<svg width="600" height="260" viewBox="0 0 600 260" fill="none" xmlns="http://www.w3.org/2000/svg">
<path d="M72.584 72.2183L70.4 63.5383H58.248L56.064 72.2183H47.496L59.424 33.4663H69.448L81.32 72.2183H72.584ZM59.816 57.4343H68.832L64.296 39.5703L59.816 57.4343ZM100.609 41.6423C103.222 41.6423 105.257 42.4449 106.713 44.0503C108.168 45.6183 108.896 47.8023 108.896 50.6023V72.2183H100.944V51.9463C100.944 50.3409 100.664 49.2209 100.105 48.5863C99.5818 47.9143 98.7792 47.5783 97.6965 47.5783C96.5765 47.5783 95.5498 47.9329 94.6165 48.6423C93.7205 49.3143 92.8432 50.3409 91.9845 51.7223V72.2183H84.0325V42.5383H90.9205L91.5365 46.2903C92.7685 44.7596 94.1125 43.6023 95.5685 42.8183C97.0618 42.0343 98.7418 41.6423 100.609 41.6423ZM132.338 41.6423C134.952 41.6423 136.986 42.4449 138.442 44.0503C139.898 45.6183 140.626 47.8023 140.626 50.6023V72.2183H132.674V51.9463C132.674 50.3409 132.394 49.2209 131.834 48.5863C131.312 47.9143 130.509 47.5783 129.426 47.5783C128.306 47.5783 127.28 47.9329 126.346 48.6423C125.45 49.3143 124.573 50.3409 123.714 51.7223V72.2183H115.762V42.5383H122.65L123.266 46.2903C124.498 44.7596 125.842 43.6023 127.298 42.8183C128.792 42.0343 130.472 41.6423 132.338 41.6423ZM170.172 63.9863C170.172 65.1436 170.34 66.0023 170.676 66.5623C171.012 67.0849 171.572 67.4769 172.356 67.7383L170.676 73.0023C168.921 72.8529 167.484 72.4423 166.364 71.7703C165.281 71.0983 164.441 70.0529 163.844 68.6343C161.903 71.6209 158.935 73.1143 154.94 73.1143C151.991 73.1143 149.639 72.2743 147.884 70.5943C146.167 68.8769 145.308 66.6556 145.308 63.9303C145.308 60.6823 146.484 58.1996 148.836 56.4823C151.188 54.7649 154.567 53.9063 158.972 53.9063H162.388V52.4503C162.388 50.6209 161.977 49.3516 161.156 48.6423C160.335 47.9329 158.972 47.5783 157.068 47.5783C154.977 47.5783 152.364 48.1009 149.228 49.1463L147.436 43.8263C151.132 42.3703 154.791 41.6423 158.412 41.6423C162.444 41.6423 165.412 42.5196 167.316 44.2743C169.22 45.9916 170.172 48.5676 170.172 52.0023V63.9863ZM157.124 67.4023C159.364 67.4023 161.119 66.3009 162.388 64.0983V58.4423H159.756C155.463 58.4423 153.316 60.0476 153.316 63.2583C153.316 64.5649 153.633 65.5916 154.268 66.3383C154.94 67.0476 155.892 67.4023 157.124 67.4023ZM197.781 73.1143C195.354 73.1143 193.469 72.4236 192.125 71.0423C190.781 69.6236 190.109 67.6263 190.109 65.0503V30.7223L198.061 29.8263V64.8263C198.061 66.1329 198.602 66.7863 199.685 66.7863C200.282 66.7863 200.805 66.6743 201.253 66.4503L202.877 72.1063C201.346 72.7783 199.647 73.1143 197.781 73.1143ZM231.074 56.7063C231.074 57.0796 231.018 58.1063 230.906 59.7863H212.37C212.631 62.4743 213.359 64.3783 214.554 65.4983C215.748 66.6183 217.372 67.1783 219.426 67.1783C220.695 67.1783 221.89 66.9729 223.01 66.5623C224.13 66.1516 225.343 65.4983 226.65 64.6023L229.954 69.0823C226.631 71.7703 222.879 73.1143 218.698 73.1143C214.031 73.1143 210.447 71.7143 207.946 68.9143C205.444 66.1143 204.194 62.3249 204.194 57.5463C204.194 54.5223 204.716 51.8156 205.762 49.4263C206.844 46.9996 208.394 45.0956 210.41 43.7143C212.463 42.3329 214.89 41.6423 217.69 41.6423C221.908 41.6423 225.194 42.9676 227.546 45.6183C229.898 48.2689 231.074 51.9649 231.074 56.7063ZM223.178 54.4663C223.178 49.5383 221.404 47.0743 217.858 47.0743C216.215 47.0743 214.927 47.6903 213.994 48.9223C213.098 50.1169 212.556 52.0769 212.37 54.8023H223.178V54.4663ZM252.705 41.6423C255.281 41.6423 257.297 42.4449 258.753 44.0503C260.247 45.6183 260.993 47.8023 260.993 50.6023V72.2183H253.041V51.9463C253.041 50.3409 252.761 49.2209 252.201 48.5863C251.641 47.9143 250.839 47.5783 249.793 47.5783C247.703 47.5783 245.799 48.9409 244.081 51.6663V72.2183H236.129V30.7223L244.081 29.8823V45.8983C245.276 44.4796 246.564 43.4156 247.945 42.7063C249.364 41.9969 250.951 41.6423 252.705 41.6423ZM292.947 56.7063C292.947 57.0796 292.891 58.1063 292.779 59.7863H274.243C274.504 62.4743 275.232 64.3783 276.427 65.4983C277.622 66.6183 279.246 67.1783 281.299 67.1783C282.568 67.1783 283.763 66.9729 284.883 66.5623C286.003 66.1516 287.216 65.4983 288.523 64.6023L291.827 69.0823C288.504 71.7703 284.752 73.1143 280.571 73.1143C275.904 73.1143 272.32 71.7143 269.819 68.9143C267.318 66.1143 266.067 62.3249 266.067 57.5463C266.067 54.5223 266.59 51.8156 267.635 49.4263C268.718 46.9996 270.267 45.0956 272.283 43.7143C274.336 42.3329 276.763 41.6423 279.563 41.6423C283.782 41.6423 287.067 42.9676 289.419 45.6183C291.771 48.2689 292.947 51.9649 292.947 56.7063ZM285.051 54.4663C285.051 49.5383 283.278 47.0743 279.731 47.0743C278.088 47.0743 276.8 47.6903 275.867 48.9223C274.971 50.1169 274.43 52.0769 274.243 54.8023H285.051V54.4663ZM305.955 29.8263V72.2183H298.003V30.7223L305.955 29.8263ZM323.987 42.5383L314.523 55.5863L324.827 72.2183H315.811L306.235 55.9783L315.755 42.5383H323.987ZM351.521 72.2183H344.633L344.241 68.2423C343.196 69.8849 341.926 71.1169 340.433 71.9383C338.94 72.7223 337.204 73.1143 335.225 73.1143C332.537 73.1143 330.484 72.3116 329.065 70.7063C327.646 69.0636 326.937 66.7863 326.937 63.8743V42.5383H334.889V62.8663C334.889 64.4343 335.15 65.5543 335.673 66.2263C336.196 66.8609 337.017 67.1783 338.137 67.1783C340.265 67.1783 342.076 65.8903 343.569 63.3143V42.5383H351.521V72.2183ZM382.977 72.2183H376.089L375.697 68.2423C374.652 69.8849 373.382 71.1169 371.889 71.9383C370.396 72.7223 368.66 73.1143 366.681 73.1143C363.993 73.1143 361.94 72.3116 360.521 70.7063C359.102 69.0636 358.393 66.7863 358.393 63.8743V42.5383H366.345V62.8663C366.345 64.4343 366.606 65.5543 367.129 66.2263C367.652 66.8609 368.473 67.1783 369.593 67.1783C371.721 67.1783 373.532 65.8903 375.025 63.3143V42.5383H382.977V72.2183ZM397.521 73.1143C395.095 73.1143 393.209 72.4236 391.865 71.0423C390.521 69.6236 389.849 67.6263 389.849 65.0503V30.7223L397.801 29.8263V64.8263C397.801 66.1329 398.343 66.7863 399.425 66.7863C400.023 66.7863 400.545 66.6743 400.993 66.4503L402.617 72.1063C401.087 72.7783 399.388 73.1143 397.521 73.1143ZM430.814 56.7063C430.814 57.0796 430.758 58.1063 430.646 59.7863H412.11C412.372 62.4743 413.1 64.3783 414.294 65.4983C415.489 66.6183 417.113 67.1783 419.166 67.1783C420.436 67.1783 421.63 66.9729 422.75 66.5623C423.87 66.1516 425.084 65.4983 426.39 64.6023L429.694 69.0823C426.372 71.7703 422.62 73.1143 418.438 73.1143C413.772 73.1143 410.188 71.7143 407.686 68.9143C405.185 66.1143 403.934 62.3249 403.934 57.5463C403.934 54.5223 404.457 51.8156 405.502 49.4263C406.585 46.9996 408.134 45.0956 410.15 43.7143C412.204 42.3329 414.63 41.6423 417.43 41.6423C421.649 41.6423 424.934 42.9676 427.286 45.6183C429.638 48.2689 430.814 51.9649 430.814 56.7063ZM422.918 54.4663C422.918 49.5383 421.145 47.0743 417.598 47.0743C415.956 47.0743 414.668 47.6903 413.734 48.9223C412.838 50.1169 412.297 52.0769 412.11 54.8023H422.918V54.4663ZM67.264 104.698C68.16 104.698 69.1493 104.848 70.232 105.146L68.888 112.818C67.8427 112.557 66.9653 112.426 66.256 112.426C64.5013 112.426 63.1387 113.042 62.168 114.274C61.1973 115.506 60.432 117.373 59.872 119.874V135.218H51.92V105.538H58.808L59.536 111.306C60.2453 109.216 61.272 107.592 62.616 106.434C63.9973 105.277 65.5467 104.698 67.264 104.698ZM84.2705 104.642C88.7132 104.642 92.1852 106.042 94.6865 108.842C97.1878 111.605 98.4385 115.45 98.4385 120.378C98.4385 123.514 97.8598 126.277 96.7025 128.666C95.5825 131.018 93.9398 132.848 91.7745 134.154C89.6465 135.461 87.1265 136.114 84.2145 136.114C79.7718 136.114 76.2812 134.733 73.7425 131.97C71.2412 129.17 69.9905 125.306 69.9905 120.378C69.9905 117.242 70.5505 114.498 71.6705 112.146C72.8278 109.757 74.4705 107.909 76.5985 106.602C78.7638 105.296 81.3212 104.642 84.2705 104.642ZM84.2705 110.578C82.2545 110.578 80.7425 111.381 79.7345 112.986C78.7638 114.554 78.2785 117.018 78.2785 120.378C78.2785 123.738 78.7638 126.221 79.7345 127.826C80.7425 129.394 82.2358 130.178 84.2145 130.178C86.1932 130.178 87.6678 129.394 88.6385 127.826C89.6465 126.221 90.1505 123.738 90.1505 120.378C90.1505 117.018 89.6652 114.554 88.6945 112.986C87.7238 111.381 86.2492 110.578 84.2705 110.578ZM120.362 104.642C122.938 104.642 124.954 105.445 126.41 107.05C127.903 108.618 128.65 110.802 128.65 113.602V135.218H120.698V114.946C120.698 113.341 120.418 112.221 119.858 111.586C119.298 110.914 118.495 110.578 117.45 110.578C115.359 110.578 113.455 111.941 111.738 114.666V135.218H103.786V93.7223L111.738 92.8823V108.898C112.932 107.48 114.22 106.416 115.602 105.706C117.02 104.997 118.607 104.642 120.362 104.642ZM143.467 92.8263V135.218H135.515V93.7223L143.467 92.8263ZM161.499 105.538L152.035 118.586L162.339 135.218H153.323L143.747 118.978L153.267 105.538H161.499ZM189.599 119.706C189.599 120.08 189.543 121.106 189.431 122.786H170.895C171.156 125.474 171.884 127.378 173.079 128.498C174.273 129.618 175.897 130.178 177.951 130.178C179.22 130.178 180.415 129.973 181.535 129.562C182.655 129.152 183.868 128.498 185.175 127.602L188.479 132.082C185.156 134.77 181.404 136.114 177.223 136.114C172.556 136.114 168.972 134.714 166.471 131.914C163.969 129.114 162.719 125.325 162.719 120.546C162.719 117.522 163.241 114.816 164.287 112.426C165.369 110 166.919 108.096 168.935 106.714C170.988 105.333 173.415 104.642 176.215 104.642C180.433 104.642 183.719 105.968 186.071 108.618C188.423 111.269 189.599 114.965 189.599 119.706ZM181.703 117.466C181.703 112.538 179.929 110.074 176.383 110.074C174.74 110.074 173.452 110.69 172.519 111.922C171.623 113.117 171.081 115.077 170.895 117.802H181.703V117.466ZM226.742 104.642C229.094 104.642 230.98 105.445 232.398 107.05C233.854 108.656 234.582 110.84 234.582 113.602V135.218H226.63V114.946C226.63 112.034 225.66 110.578 223.718 110.578C222.673 110.578 221.758 110.914 220.974 111.586C220.19 112.258 219.388 113.304 218.566 114.722V135.218H210.614V114.946C210.614 112.034 209.644 110.578 207.702 110.578C206.657 110.578 205.742 110.933 204.958 111.642C204.174 112.314 203.39 113.341 202.606 114.722V135.218H194.654V105.538H201.542L202.158 109.234C203.278 107.741 204.529 106.602 205.91 105.818C207.329 105.034 208.953 104.642 210.782 104.642C212.462 104.642 213.918 105.072 215.15 105.93C216.382 106.752 217.278 107.928 217.838 109.458C219.07 107.853 220.396 106.658 221.814 105.874C223.27 105.053 224.913 104.642 226.742 104.642ZM264.251 104.642C268.432 104.642 272.016 105.837 275.003 108.226L271.979 112.762C269.478 111.194 267.014 110.41 264.587 110.41C263.28 110.41 262.272 110.653 261.563 111.138C260.854 111.624 260.499 112.277 260.499 113.098C260.499 113.696 260.648 114.2 260.947 114.61C261.283 115.021 261.88 115.413 262.739 115.786C263.635 116.16 264.96 116.608 266.715 117.13C269.851 117.989 272.184 119.146 273.715 120.602C275.246 122.021 276.011 123.981 276.011 126.482C276.011 128.461 275.432 130.178 274.275 131.634C273.155 133.09 271.624 134.21 269.683 134.994C267.742 135.741 265.576 136.114 263.187 136.114C260.686 136.114 258.408 135.741 256.355 134.994C254.302 134.21 252.547 133.146 251.091 131.802L255.011 127.434C257.512 129.376 260.163 130.346 262.963 130.346C264.456 130.346 265.632 130.066 266.491 129.506C267.387 128.909 267.835 128.106 267.835 127.098C267.835 126.314 267.667 125.698 267.331 125.25C266.995 124.802 266.379 124.392 265.483 124.018C264.587 123.608 263.187 123.141 261.283 122.618C258.296 121.797 256.075 120.64 254.619 119.146C253.2 117.616 252.491 115.73 252.491 113.49C252.491 111.81 252.976 110.298 253.947 108.954C254.918 107.61 256.28 106.565 258.035 105.818C259.827 105.034 261.899 104.642 264.251 104.642ZM288.444 105.538V135.218H280.492V105.538H288.444ZM284.412 90.2503C285.831 90.2503 286.988 90.6983 287.884 91.5943C288.817 92.4529 289.284 93.5543 289.284 94.8983C289.284 96.2423 288.817 97.3623 287.884 98.2583C286.988 99.1169 285.831 99.5463 284.412 99.5463C282.993 99.5463 281.836 99.1169 280.94 98.2583C280.044 97.3623 279.596 96.2423 279.596 94.8983C279.596 93.5543 280.044 92.4529 280.94 91.5943C281.836 90.6983 282.993 90.2503 284.412 90.2503ZM305.453 104.642C309.634 104.642 313.218 105.837 316.205 108.226L313.181 112.762C310.679 111.194 308.215 110.41 305.789 110.41C304.482 110.41 303.474 110.653 302.765 111.138C302.055 111.624 301.701 112.277 301.701 113.098C301.701 113.696 301.85 114.2 302.149 114.61C302.485 115.021 303.082 115.413 303.941 115.786C304.837 116.16 306.162 116.608 307.917 117.13C311.053 117.989 313.386 119.146 314.917 120.602C316.447 122.021 317.213 123.981 317.213 126.482C317.213 128.461 316.634 130.178 315.477 131.634C314.357 133.09 312.826 134.21 310.885 134.994C308.943 135.741 306.778 136.114 304.389 136.114C301.887 136.114 299.61 135.741 297.557 134.994C295.503 134.21 293.749 133.146 292.293 131.802L296.213 127.434C298.714 129.376 301.365 130.346 304.165 130.346C305.658 130.346 306.834 130.066 307.693 129.506C308.589 128.909 309.037 128.106 309.037 127.098C309.037 126.314 308.869 125.698 308.533 125.25C308.197 124.802 307.581 124.392 306.685 124.018C305.789 123.608 304.389 123.141 302.485 122.618C299.498 121.797 297.277 120.64 295.821 119.146C294.402 117.616 293.693 115.73 293.693 113.49C293.693 111.81 294.178 110.298 295.149 108.954C296.119 107.61 297.482 106.565 299.237 105.818C301.029 105.034 303.101 104.642 305.453 104.642ZM345.997 135.218H339.109L338.717 131.242C337.672 132.885 336.403 134.117 334.909 134.938C333.416 135.722 331.68 136.114 329.701 136.114C327.013 136.114 324.96 135.312 323.541 133.706C322.123 132.064 321.413 129.786 321.413 126.874V105.538H329.365V125.866C329.365 127.434 329.627 128.554 330.149 129.226C330.672 129.861 331.493 130.178 332.613 130.178C334.741 130.178 336.552 128.89 338.045 126.314V105.538H345.997V135.218ZM360.15 96.4663L359.198 121.274H352.702L351.638 96.4663H360.15ZM355.95 126.538C357.294 126.538 358.432 127.005 359.366 127.938C360.299 128.872 360.766 129.992 360.766 131.298C360.766 132.605 360.299 133.744 359.366 134.714C358.432 135.648 357.294 136.114 355.95 136.114C354.643 136.114 353.523 135.648 352.59 134.714C351.656 133.744 351.19 132.605 351.19 131.298C351.19 129.992 351.656 128.872 352.59 127.938C353.523 127.005 354.643 126.538 355.95 126.538Z" fill="#F20312"/>
<path d="M48 180.739C48 173.272 54.0536 167.218 61.5211 167.218H309.085V226.782H61.5211C54.0536 226.782 48 220.728 48 213.261V180.739Z" fill="#FFDF38"/>
<path d="M89.4287 187.787L88.996 190.897H84.2636V206.5H80.2884V190.897H75.3127V187.787H89.4287ZM102.292 187.787L101.859 190.68H95.0989V195.548H100.994V198.414H95.0989V203.579H102.346V206.5H91.1237V187.787H102.292ZM109.048 187.787V203.309H116.457L116.025 206.5H105.073V187.787H109.048ZM122.469 187.787V203.309H129.878L129.446 206.5H118.493V187.787H122.469ZM135.889 187.787V206.5H131.914V187.787H135.889ZM150.684 187.787C153.604 187.787 155.939 188.454 157.688 189.788C159.455 191.104 160.338 193.529 160.338 197.062C160.338 200.524 159.473 202.966 157.742 204.391C156.029 205.797 153.83 206.5 151.144 206.5H145.789V187.787H150.684ZM149.764 190.707V203.579H151.387C152.919 203.579 154.1 203.111 154.929 202.173C155.777 201.218 156.2 199.514 156.2 197.062C156.2 195.368 155.984 194.052 155.551 193.114C155.137 192.177 154.578 191.546 153.875 191.221C153.172 190.879 152.315 190.707 151.306 190.707H149.764ZM167.014 187.787V206.5H163.039V187.787H167.014ZM178.465 187.354C179.727 187.354 180.845 187.552 181.819 187.949C182.81 188.328 183.73 188.877 184.577 189.599L182.495 191.762C181.828 191.257 181.197 190.888 180.602 190.653C180.025 190.419 179.367 190.302 178.628 190.302C177.203 190.302 176.05 190.87 175.166 192.005C174.301 193.123 173.868 194.836 173.868 197.143C173.868 199.577 174.202 201.326 174.869 202.39C175.554 203.435 176.608 203.958 178.033 203.958C179.06 203.958 179.989 203.733 180.818 203.282V198.712H178.195L177.789 195.818H184.685V205.04C183.712 205.635 182.657 206.103 181.521 206.446C180.403 206.77 179.268 206.933 178.114 206.933C175.355 206.933 173.264 206.103 171.84 204.445C170.416 202.786 169.704 200.343 169.704 197.116C169.704 195.079 170.091 193.321 170.866 191.843C171.642 190.365 172.687 189.247 174.003 188.49C175.337 187.733 176.825 187.354 178.465 187.354ZM191.611 187.787V206.5H187.636V187.787H191.611ZM201.034 187.787C203.468 187.787 205.352 188.292 206.686 189.301C208.038 190.311 208.714 191.816 208.714 193.817C208.714 195.908 208.047 197.486 206.713 198.55C205.379 199.595 203.594 200.118 201.359 200.118H199.222V206.5H195.247V187.787H201.034ZM201.034 197.197C202.188 197.197 203.071 196.936 203.684 196.413C204.297 195.89 204.604 195.025 204.604 193.817C204.604 191.708 203.396 190.653 200.98 190.653H199.222V197.197H201.034ZM219.278 206.5L218.224 202.308H212.355L211.301 206.5H207.163L212.923 187.787H217.764L223.497 206.5H219.278ZM213.113 199.361H217.466L215.276 190.734L213.113 199.361ZM228.863 187.787V206.5H224.888V187.787H228.863ZM239.491 187.787L233.244 196.224L239.977 206.5H235.326L229.025 196.521L235.245 187.787H239.491ZM252.54 187.787L252.108 190.68H245.347V195.548H251.242V198.414H245.347V203.579H252.594V206.5H241.372V187.787H252.54ZM267.733 187.787L267.301 190.897H262.568V206.5H258.593V190.897H253.617V187.787H267.733ZM281.841 187.787L281.408 190.897H276.676V206.5H272.7V190.897H267.725V187.787H281.841Z" fill="#451D02"/>
<path d="M309.084 167.218H492.648C500.115 167.218 506.169 173.272 506.169 180.739V213.261C506.169 220.728 500.115 226.782 492.648 226.782H309.084V167.218Z" fill="#F20312"/>
<path d="M342.482 187.922C343.726 187.922 344.789 188.129 345.673 188.544C346.574 188.941 347.25 189.49 347.701 190.194C348.17 190.897 348.404 191.681 348.404 192.546C348.404 193.646 348.088 194.565 347.457 195.305C346.826 196.026 345.952 196.539 344.834 196.846C346.06 196.972 347.061 197.414 347.836 198.171C348.611 198.928 348.999 199.983 348.999 201.335C348.999 202.381 348.728 203.327 348.188 204.174C347.665 205.022 346.89 205.698 345.862 206.203C344.834 206.689 343.617 206.933 342.211 206.933C339.633 206.933 337.614 206.031 336.154 204.228L338.236 202.227C338.849 202.84 339.453 203.282 340.048 203.552C340.643 203.823 341.292 203.958 341.995 203.958C342.932 203.958 343.671 203.706 344.212 203.201C344.771 202.696 345.051 201.993 345.051 201.092C345.051 200.118 344.789 199.415 344.266 198.982C343.744 198.55 342.959 198.333 341.914 198.333H340.426L340.886 195.629H341.887C342.734 195.629 343.41 195.404 343.915 194.953C344.42 194.502 344.672 193.871 344.672 193.06C344.672 192.357 344.438 191.807 343.969 191.41C343.518 191.014 342.896 190.815 342.103 190.815C341.418 190.815 340.787 190.942 340.21 191.194C339.633 191.446 339.065 191.843 338.506 192.384L336.586 190.302C338.263 188.715 340.228 187.922 342.482 187.922ZM362.568 200.47C362.821 201.714 363.28 202.624 363.947 203.201C364.633 203.778 365.543 204.066 366.679 204.066C367.887 204.066 369.185 203.688 370.573 202.93V205.905C369.834 206.248 369.131 206.5 368.464 206.662C367.796 206.843 367.066 206.933 366.273 206.933C364.236 206.933 362.559 206.374 361.243 205.256C359.945 204.12 359.089 202.525 358.674 200.47H356.322L356.862 198.387H358.566V196.359H356.322L356.862 194.25H358.701C359.206 192.285 360.144 190.743 361.514 189.626C362.902 188.49 364.533 187.922 366.408 187.922C368.283 187.922 369.978 188.436 371.492 189.463L370.113 191.843C369.536 191.465 368.968 191.194 368.409 191.032C367.851 190.852 367.229 190.761 366.544 190.761C365.606 190.761 364.804 191.05 364.137 191.627C363.47 192.204 362.974 193.078 362.649 194.25H369.275L368.734 196.359H362.46V198.387H368.301L367.787 200.47H362.568ZM386.313 184.488L389.639 185.245L383.311 209.475L379.958 208.69L386.313 184.488ZM404.098 187.922C405.342 187.922 406.405 188.129 407.289 188.544C408.19 188.941 408.866 189.49 409.317 190.194C409.786 190.897 410.02 191.681 410.02 192.546C410.02 193.646 409.705 194.565 409.074 195.305C408.443 196.026 407.568 196.539 406.451 196.846C407.676 196.972 408.677 197.414 409.452 198.171C410.227 198.928 410.615 199.983 410.615 201.335C410.615 202.381 410.345 203.327 409.804 204.174C409.281 205.022 408.506 205.698 407.478 206.203C406.451 206.689 405.234 206.933 403.827 206.933C401.249 206.933 399.23 206.031 397.77 204.228L399.852 202.227C400.465 202.84 401.069 203.282 401.664 203.552C402.259 203.823 402.908 203.958 403.611 203.958C404.549 203.958 405.288 203.706 405.829 203.201C406.387 202.696 406.667 201.993 406.667 201.092C406.667 200.118 406.405 199.415 405.883 198.982C405.36 198.55 404.576 198.333 403.53 198.333H402.043L402.502 195.629H403.503C404.35 195.629 405.026 195.404 405.531 194.953C406.036 194.502 406.288 193.871 406.288 193.06C406.288 192.357 406.054 191.807 405.585 191.41C405.134 191.014 404.512 190.815 403.719 190.815C403.034 190.815 402.403 190.942 401.826 191.194C401.249 191.446 400.681 191.843 400.123 192.384L398.203 190.302C399.879 188.715 401.844 187.922 404.098 187.922ZM423.319 186.029V206.5H419.479V186.462L423.319 186.029ZM432.027 192.168L427.457 198.468L432.432 206.5H428.079L423.454 198.658L428.052 192.168H432.027ZM445.323 206.5H441.997L441.807 204.58C441.303 205.373 440.69 205.968 439.969 206.365C439.247 206.743 438.409 206.933 437.454 206.933C436.156 206.933 435.164 206.545 434.479 205.77C433.794 204.977 433.451 203.877 433.451 202.471V192.168H437.291V201.984C437.291 202.741 437.418 203.282 437.67 203.606C437.922 203.913 438.319 204.066 438.86 204.066C439.887 204.066 440.762 203.444 441.483 202.2V192.168H445.323V206.5ZM460.513 206.5H457.187L456.998 204.58C456.493 205.373 455.88 205.968 455.159 206.365C454.438 206.743 453.599 206.933 452.644 206.933C451.346 206.933 450.354 206.545 449.669 205.77C448.984 204.977 448.641 203.877 448.641 202.471V192.168H452.481V201.984C452.481 202.741 452.608 203.282 452.86 203.606C453.112 203.913 453.509 204.066 454.05 204.066C455.078 204.066 455.952 203.444 456.673 202.2V192.168H460.513V206.5ZM476.379 186.462V206.5H472.999L472.783 204.742C471.773 206.203 470.403 206.933 468.672 206.933C466.905 206.933 465.553 206.257 464.616 204.905C463.696 203.534 463.237 201.677 463.237 199.334C463.237 197.855 463.471 196.548 463.94 195.413C464.427 194.259 465.112 193.357 465.995 192.708C466.878 192.059 467.897 191.735 469.051 191.735C470.385 191.735 471.548 192.213 472.539 193.168V186.029L476.379 186.462ZM469.808 204.066C470.367 204.066 470.863 203.931 471.295 203.661C471.728 203.372 472.143 202.93 472.539 202.335V195.926C472.161 195.476 471.773 195.142 471.376 194.926C470.998 194.692 470.556 194.574 470.051 194.574C469.168 194.574 468.474 194.962 467.969 195.737C467.482 196.512 467.239 197.711 467.239 199.334C467.239 201.046 467.455 202.263 467.888 202.985C468.339 203.706 468.979 204.066 469.808 204.066Z" fill="white"/>
</svg>
