<svg width="300" height="320" viewBox="0 0 300 320" fill="none" xmlns="http://www.w3.org/2000/svg">
<rect width="300" height="320" fill="#330B6A"/>
<path d="M40.702 24.666V51H34.47V24.666H40.702ZM55.826 24.666L47.428 36.484L56.51 51H49.29L40.892 36.94L49.252 24.666H55.826ZM75.8039 40.512C75.8039 41.348 75.7659 42.07 75.6899 42.678H63.1879C63.3906 44.3753 63.8719 45.566 64.6319 46.25C65.3919 46.934 66.4432 47.276 67.7859 47.276C68.5966 47.276 69.3819 47.1367 70.1419 46.858C70.9019 46.554 71.7252 46.098 72.6119 45.49L75.0819 48.834C72.7259 50.7087 70.1039 51.646 67.2159 51.646C63.9479 51.646 61.4399 50.6833 59.6919 48.758C57.9439 46.8327 57.0699 44.2487 57.0699 41.006C57.0699 38.954 57.4372 37.1173 58.1719 35.496C58.9066 33.8493 59.9832 32.5573 61.4019 31.62C62.8206 30.6573 64.5179 30.176 66.4939 30.176C69.4072 30.176 71.6872 31.088 73.3339 32.912C74.9806 34.736 75.8039 37.2693 75.8039 40.512ZM69.9139 38.802C69.8632 35.7113 68.7739 34.166 66.6459 34.166C65.6072 34.166 64.7966 34.546 64.2139 35.306C63.6566 36.066 63.3146 37.32 63.1879 39.068H69.9139V38.802ZM86.7577 30.176C88.2017 30.176 89.557 30.3913 90.8237 30.822C92.0904 31.2527 93.205 31.8607 94.1677 32.646L91.9637 36.028C90.317 34.9893 88.6577 34.47 86.9857 34.47C86.2004 34.47 85.5924 34.6093 85.1617 34.888C84.7564 35.1413 84.5537 35.5087 84.5537 35.99C84.5537 36.37 84.6424 36.6867 84.8197 36.94C85.0224 37.168 85.415 37.4087 85.9977 37.662C86.5804 37.9153 87.4797 38.2193 88.6957 38.574C90.7984 39.182 92.3564 39.98 93.3697 40.968C94.4084 41.9307 94.9277 43.2733 94.9277 44.996C94.9277 46.364 94.535 47.5547 93.7497 48.568C92.9644 49.556 91.8877 50.316 90.5197 50.848C89.1517 51.38 87.6317 51.646 85.9597 51.646C84.2624 51.646 82.679 51.38 81.2097 50.848C79.7657 50.316 78.537 49.5813 77.5237 48.644L80.4497 45.376C82.147 46.6933 83.933 47.352 85.8077 47.352C86.7197 47.352 87.429 47.1873 87.9357 46.858C88.4677 46.5287 88.7337 46.06 88.7337 45.452C88.7337 44.9707 88.6324 44.5907 88.4297 44.312C88.227 44.0333 87.8344 43.78 87.2517 43.552C86.669 43.2987 85.7444 42.9947 84.4777 42.64C82.4764 42.0573 80.9817 41.2467 79.9937 40.208C79.0057 39.1693 78.5117 37.8773 78.5117 36.332C78.5117 35.1667 78.841 34.128 79.4997 33.216C80.1837 32.2787 81.1464 31.544 82.3877 31.012C83.6544 30.4547 85.111 30.176 86.7577 30.176ZM120.642 50.05C119.908 50.5567 119.046 50.9493 118.058 51.228C117.096 51.5067 116.133 51.646 115.17 51.646C110.762 51.6207 108.558 49.1887 108.558 44.35V35.002H105.708V30.822H108.558V26.452L114.562 25.768V30.822H119.198L118.552 35.002H114.562V44.274C114.562 45.2113 114.714 45.8827 115.018 46.288C115.322 46.6933 115.804 46.896 116.462 46.896C117.146 46.896 117.868 46.6807 118.628 46.25L120.642 50.05ZM131.194 30.176C134.284 30.176 136.704 31.126 138.452 33.026C140.2 34.9007 141.074 37.5353 141.074 40.93C141.074 43.0833 140.668 44.9707 139.858 46.592C139.072 48.188 137.932 49.4293 136.438 50.316C134.968 51.2027 133.22 51.646 131.194 51.646C128.128 51.646 125.709 50.7087 123.936 48.834C122.188 46.934 121.314 44.2867 121.314 40.892C121.314 38.7387 121.706 36.864 122.492 35.268C123.302 33.6467 124.442 32.3927 125.912 31.506C127.406 30.6193 129.167 30.176 131.194 30.176ZM131.194 34.584C129.978 34.584 129.066 35.1033 128.458 36.142C127.85 37.1553 127.546 38.7387 127.546 40.892C127.546 43.096 127.837 44.7047 128.42 45.718C129.028 46.7313 129.952 47.238 131.194 47.238C132.41 47.238 133.322 46.7313 133.93 45.718C134.538 44.6793 134.842 43.0833 134.842 40.93C134.842 38.726 134.538 37.1173 133.93 36.104C133.347 35.0907 132.435 34.584 131.194 34.584ZM133.398 26.87C132.84 26.87 132.359 26.7813 131.954 26.604C131.548 26.4267 131.105 26.1733 130.624 25.844C129.99 25.388 129.471 25.16 129.066 25.16C128.635 25.16 128.268 25.2993 127.964 25.578C127.685 25.8313 127.381 26.2493 127.052 26.832L124.05 25.388C124.556 24.0707 125.228 22.994 126.064 22.158C126.925 21.322 127.888 20.904 128.952 20.904C129.534 20.904 130.028 21.0053 130.434 21.208C130.864 21.3853 131.333 21.6387 131.84 21.968C132.194 22.196 132.473 22.3607 132.676 22.462C132.904 22.5633 133.132 22.614 133.36 22.614C133.765 22.614 134.107 22.4873 134.386 22.234C134.69 21.9553 135.006 21.5247 135.336 20.942L138.338 22.424C137.806 23.7667 137.109 24.8433 136.248 25.654C135.412 26.4647 134.462 26.87 133.398 26.87ZM152.226 30.176C153.67 30.176 155.025 30.3913 156.292 30.822C157.559 31.2527 158.673 31.8607 159.636 32.646L157.432 36.028C155.785 34.9893 154.126 34.47 152.454 34.47C151.669 34.47 151.061 34.6093 150.63 34.888C150.225 35.1413 150.022 35.5087 150.022 35.99C150.022 36.37 150.111 36.6867 150.288 36.94C150.491 37.168 150.883 37.4087 151.466 37.662C152.049 37.9153 152.948 38.2193 154.164 38.574C156.267 39.182 157.825 39.98 158.838 40.968C159.877 41.9307 160.396 43.2733 160.396 44.996C160.396 46.364 160.003 47.5547 159.218 48.568C158.433 49.556 157.356 50.316 155.988 50.848C154.62 51.38 153.1 51.646 151.428 51.646C149.731 51.646 148.147 51.38 146.678 50.848C145.234 50.316 144.005 49.5813 142.992 48.644L145.918 45.376C147.615 46.6933 149.401 47.352 151.276 47.352C152.188 47.352 152.897 47.1873 153.404 46.858C153.936 46.5287 154.202 46.06 154.202 45.452C154.202 44.9707 154.101 44.5907 153.898 44.312C153.695 44.0333 153.303 43.78 152.72 43.552C152.137 43.2987 151.213 42.9947 149.946 42.64C147.945 42.0573 146.45 41.2467 145.462 40.208C144.474 39.1693 143.98 37.8773 143.98 36.332C143.98 35.1667 144.309 34.128 144.968 33.216C145.652 32.2787 146.615 31.544 147.856 31.012C149.123 30.4547 150.579 30.176 152.226 30.176ZM176.618 50.05C175.884 50.5567 175.022 50.9493 174.034 51.228C173.072 51.5067 172.109 51.646 171.146 51.646C166.738 51.6207 164.534 49.1887 164.534 44.35V35.002H161.684V30.822H164.534V26.452L170.538 25.768V30.822H175.174L174.528 35.002H170.538V44.274C170.538 45.2113 170.69 45.8827 170.994 46.288C171.298 46.6933 171.78 46.896 172.438 46.896C173.122 46.896 173.844 46.6807 174.604 46.25L176.618 50.05ZM194.688 45.148C194.688 45.908 194.789 46.4653 194.992 46.82C195.22 47.1747 195.575 47.4407 196.056 47.618L194.802 51.532C193.561 51.4307 192.547 51.1647 191.762 50.734C190.977 50.278 190.369 49.5687 189.938 48.606C188.621 50.6327 186.594 51.646 183.858 51.646C181.857 51.646 180.261 51.0633 179.07 49.898C177.879 48.7327 177.284 47.2127 177.284 45.338C177.284 43.134 178.095 41.4493 179.716 40.284C181.337 39.1187 183.681 38.536 186.746 38.536H188.798V37.662C188.798 36.4713 188.545 35.6607 188.038 35.23C187.531 34.774 186.645 34.546 185.378 34.546C184.719 34.546 183.921 34.6473 182.984 34.85C182.047 35.0273 181.084 35.2807 180.096 35.61L178.728 31.658C179.995 31.1767 181.287 30.8093 182.604 30.556C183.947 30.3027 185.188 30.176 186.328 30.176C189.216 30.176 191.331 30.7713 192.674 31.962C194.017 33.1527 194.688 34.9387 194.688 37.32V45.148ZM185.606 47.352C186.974 47.352 188.038 46.706 188.798 45.414V41.842H187.316C185.948 41.842 184.922 42.0827 184.238 42.564C183.579 43.0453 183.25 43.7927 183.25 44.806C183.25 45.6167 183.453 46.25 183.858 46.706C184.289 47.1367 184.871 47.352 185.606 47.352ZM211.383 30.176C213.79 30.176 215.639 31.126 216.931 33.026C218.223 34.9007 218.869 37.5353 218.869 40.93C218.869 43.0073 218.54 44.8567 217.881 46.478C217.248 48.0993 216.323 49.366 215.107 50.278C213.917 51.19 212.498 51.646 210.851 51.646C209.762 51.646 208.761 51.418 207.849 50.962C206.963 50.506 206.203 49.8727 205.569 49.062L205.265 51H199.945V22.804L205.949 22.158V32.874C206.557 32.038 207.33 31.3793 208.267 30.898C209.23 30.4167 210.269 30.176 211.383 30.176ZM209.103 47.276C211.459 47.276 212.637 45.1607 212.637 40.93C212.637 38.5233 212.359 36.864 211.801 35.952C211.244 35.04 210.433 34.584 209.369 34.584C208.027 34.584 206.887 35.3693 205.949 36.94V45.338C206.329 45.946 206.785 46.4273 207.317 46.782C207.875 47.1113 208.47 47.276 209.103 47.276ZM40.322 96.72C40.322 98.8227 39.98 100.558 39.296 101.926C38.6373 103.294 37.7253 104.383 36.56 105.194C35.42 106.03 33.976 106.765 32.228 107.398L30.214 103.028C31.202 102.572 31.9747 102.129 32.532 101.698C33.0893 101.267 33.52 100.685 33.824 99.95C34.1533 99.2407 34.318 98.2907 34.318 97.1V78.822H40.322V96.72ZM37.32 68.182C38.3587 68.182 39.2073 68.5113 39.866 69.17C40.55 69.8033 40.892 70.614 40.892 71.602C40.892 72.59 40.55 73.4133 39.866 74.072C39.2073 74.7053 38.3587 75.022 37.32 75.022C36.2813 75.022 35.4327 74.7053 34.774 74.072C34.1153 73.4133 33.786 72.59 33.786 71.602C33.786 70.614 34.1153 69.8033 34.774 69.17C35.4327 68.5113 36.2813 68.182 37.32 68.182ZM61.5545 93.148C61.5545 93.908 61.6558 94.4653 61.8585 94.82C62.0865 95.1747 62.4412 95.4407 62.9225 95.618L61.6685 99.532C60.4272 99.4307 59.4138 99.1647 58.6285 98.734C57.8432 98.278 57.2352 97.5687 56.8045 96.606C55.4872 98.6327 53.4605 99.646 50.7245 99.646C48.7232 99.646 47.1272 99.0633 45.9365 97.898C44.7458 96.7327 44.1505 95.2127 44.1505 93.338C44.1505 91.134 44.9612 89.4493 46.5825 88.284C48.2038 87.1187 50.5472 86.536 53.6125 86.536H55.6645V85.662C55.6645 84.4713 55.4112 83.6607 54.9045 83.23C54.3978 82.774 53.5112 82.546 52.2445 82.546C51.5858 82.546 50.7878 82.6473 49.8505 82.85C48.9132 83.0273 47.9505 83.2807 46.9625 83.61L45.5945 79.658C46.8612 79.1767 48.1532 78.8093 49.4705 78.556C50.8132 78.3027 52.0545 78.176 53.1945 78.176C56.0825 78.176 58.1978 78.7713 59.5405 79.962C60.8832 81.1527 61.5545 82.9387 61.5545 85.32V93.148ZM52.4725 95.352C53.8405 95.352 54.9045 94.706 55.6645 93.414V89.842H54.1825C52.8145 89.842 51.7885 90.0827 51.1045 90.564C50.4458 91.0453 50.1165 91.7927 50.1165 92.806C50.1165 93.6167 50.3192 94.25 50.7245 94.706C51.1552 95.1367 51.7378 95.352 52.4725 95.352ZM71.7988 99.646C70.0508 99.646 68.6828 99.152 67.6948 98.164C66.7321 97.1507 66.2508 95.7193 66.2508 93.87V70.804L72.2548 70.158V93.642C72.2548 94.478 72.5968 94.896 73.2808 94.896C73.6354 94.896 73.9648 94.8327 74.2688 94.706L75.4468 98.962C74.3574 99.418 73.1414 99.646 71.7988 99.646ZM96.779 80C95.4617 80.532 93.5237 80.798 90.965 80.798C92.2823 81.3553 93.245 82.0393 93.853 82.85C94.461 83.6607 94.765 84.712 94.765 86.004C94.765 87.296 94.423 88.4613 93.739 89.5C93.055 90.5133 92.067 91.3113 90.775 91.894C89.5083 92.4767 88.0137 92.768 86.291 92.768C85.4803 92.768 84.7077 92.692 83.973 92.54C83.7703 92.6413 83.6057 92.806 83.479 93.034C83.3777 93.2367 83.327 93.452 83.327 93.68C83.327 94.06 83.4663 94.364 83.745 94.592C84.049 94.7947 84.6443 94.896 85.531 94.896H88.571C90.1163 94.896 91.4717 95.1493 92.637 95.656C93.8023 96.1627 94.7017 96.8593 95.335 97.746C95.9683 98.6327 96.285 99.6333 96.285 100.748C96.285 102.851 95.373 104.485 93.549 105.65C91.7503 106.841 89.141 107.436 85.721 107.436C83.2637 107.436 81.3257 107.17 79.907 106.638C78.4883 106.131 77.4877 105.409 76.905 104.472C76.3477 103.535 76.069 102.357 76.069 100.938H81.465C81.465 101.546 81.579 102.027 81.807 102.382C82.0603 102.737 82.5037 103.003 83.137 103.18C83.7703 103.357 84.6823 103.446 85.873 103.446C87.5197 103.446 88.6597 103.243 89.293 102.838C89.9263 102.458 90.243 101.901 90.243 101.166C90.243 100.558 90.0023 100.077 89.521 99.722C89.0397 99.3673 88.3177 99.19 87.355 99.19H84.429C82.3517 99.19 80.7937 98.8227 79.755 98.088C78.7417 97.328 78.235 96.3653 78.235 95.2C78.235 94.4653 78.4503 93.756 78.881 93.072C79.3117 92.3627 79.8943 91.78 80.629 91.324C79.3623 90.64 78.4377 89.842 77.855 88.93C77.2977 87.9927 77.019 86.8653 77.019 85.548C77.019 83.2933 77.8297 81.5073 79.451 80.19C81.0723 78.8473 83.213 78.176 85.873 78.176C87.8997 78.2267 89.6097 78.024 91.003 77.568C92.4217 77.112 93.8783 76.4407 95.373 75.554L96.779 80ZM86.025 82.128C85.0877 82.128 84.3403 82.432 83.783 83.04C83.251 83.6227 82.985 84.4333 82.985 85.472C82.985 86.5613 83.251 87.41 83.783 88.018C84.3403 88.6007 85.0877 88.892 86.025 88.892C87.013 88.892 87.7603 88.6007 88.267 88.018C88.799 87.4353 89.065 86.5613 89.065 85.396C89.065 83.2173 88.0517 82.128 86.025 82.128ZM111.002 78.176C113.535 78.176 115.422 79.1133 116.664 80.988C117.905 82.8627 118.526 85.4847 118.526 88.854C118.526 90.9313 118.196 92.7933 117.538 94.44C116.904 96.0613 115.98 97.3407 114.764 98.278C113.548 99.19 112.129 99.646 110.508 99.646C108.481 99.646 106.847 98.9493 105.606 97.556V106.79L99.6017 107.436V78.822H104.884L105.188 81.064C105.973 80.076 106.872 79.354 107.886 78.898C108.899 78.4167 109.938 78.176 111.002 78.176ZM108.684 95.238C111.09 95.238 112.294 93.1353 112.294 88.93C112.294 86.5487 112.028 84.902 111.496 83.99C110.964 83.0527 110.166 82.584 109.102 82.584C108.418 82.584 107.772 82.7867 107.164 83.192C106.581 83.5973 106.062 84.18 105.606 84.94V93.452C106.416 94.6427 107.442 95.238 108.684 95.238ZM138.415 93.148C138.415 93.908 138.517 94.4653 138.719 94.82C138.947 95.1747 139.302 95.4407 139.783 95.618L138.529 99.532C137.288 99.4307 136.275 99.1647 135.489 98.734C134.704 98.278 134.096 97.5687 133.665 96.606C132.348 98.6327 130.321 99.646 127.585 99.646C125.584 99.646 123.988 99.0633 122.797 97.898C121.607 96.7327 121.011 95.2127 121.011 93.338C121.011 91.134 121.822 89.4493 123.443 88.284C125.065 87.1187 127.408 86.536 130.473 86.536H132.525V85.662C132.525 84.4713 132.272 83.6607 131.765 83.23C131.259 82.774 130.372 82.546 129.105 82.546C128.447 82.546 127.649 82.6473 126.711 82.85C125.774 83.0273 124.811 83.2807 123.823 83.61L122.455 79.658C123.722 79.1767 125.014 78.8093 126.331 78.556C127.674 78.3027 128.915 78.176 130.055 78.176C132.943 78.176 135.059 78.7713 136.401 79.962C137.744 81.1527 138.415 82.9387 138.415 85.32V93.148ZM129.333 95.352C130.701 95.352 131.765 94.706 132.525 93.414V89.842H131.043C129.675 89.842 128.649 90.0827 127.965 90.564C127.307 91.0453 126.977 91.7927 126.977 92.806C126.977 93.6167 127.18 94.25 127.585 94.706C128.016 95.1367 128.599 95.352 129.333 95.352ZM148.66 99.646C146.912 99.646 145.544 99.152 144.556 98.164C143.593 97.1507 143.112 95.7193 143.112 93.87V70.804L149.116 70.158V93.642C149.116 94.478 149.458 94.896 150.142 94.896C150.496 94.896 150.826 94.8327 151.13 94.706L152.308 98.962C151.218 99.418 150.002 99.646 148.66 99.646ZM160.416 99.646C158.668 99.646 157.3 99.152 156.312 98.164C155.349 97.1507 154.868 95.7193 154.868 93.87V70.804L160.872 70.158V93.642C160.872 94.478 161.214 94.896 161.898 94.896C162.253 94.896 162.582 94.8327 162.886 94.706L164.064 98.962C162.975 99.418 161.759 99.646 160.416 99.646ZM172.818 78.822V99H166.814V78.822H172.818ZM169.778 68.182C170.817 68.182 171.666 68.5113 172.324 69.17C173.008 69.8033 173.35 70.614 173.35 71.602C173.35 72.59 173.008 73.4133 172.324 74.072C171.666 74.7053 170.817 75.022 169.778 75.022C168.74 75.022 167.891 74.7053 167.232 74.072C166.574 73.4133 166.244 72.59 166.244 71.602C166.244 70.614 166.574 69.8033 167.232 69.17C167.891 68.5113 168.74 68.182 169.778 68.182ZM213.764 99H207.646L207.19 88.702C207.064 86.2447 207 84.0533 207 82.128C207 80.6587 207.038 79.2653 207.114 77.948L203.048 96.226H197.158L192.826 77.948C192.978 80.152 193.054 82.2293 193.054 84.18C193.054 85.6493 193.016 87.182 192.94 88.778L192.484 99H186.404L188.38 72.666H196.246L200.198 90.526L203.884 72.666H211.788L213.764 99ZM244.112 99H237.994L237.538 88.702C237.412 86.2447 237.348 84.0533 237.348 82.128C237.348 80.6587 237.386 79.2653 237.462 77.948L233.396 96.226H227.506L223.174 77.948C223.326 80.152 223.402 82.2293 223.402 84.18C223.402 85.6493 223.364 87.182 223.288 88.778L222.832 99H216.752L218.728 72.666H226.594L230.546 90.526L234.232 72.666H242.136L244.112 99ZM247.518 89.424V84.788H259.64V89.424H247.518ZM40.36 118.158V147H34.356V118.804L40.36 118.158ZM52.824 126.822L46.706 135.676L53.318 147H46.554L40.55 135.98L46.706 126.822H52.824ZM71.2772 141.148C71.2772 141.908 71.3785 142.465 71.5812 142.82C71.8092 143.175 72.1638 143.441 72.6452 143.618L71.3912 147.532C70.1498 147.431 69.1365 147.165 68.3512 146.734C67.5658 146.278 66.9578 145.569 66.5272 144.606C65.2098 146.633 63.1832 147.646 60.4472 147.646C58.4458 147.646 56.8498 147.063 55.6592 145.898C54.4685 144.733 53.8732 143.213 53.8732 141.338C53.8732 139.134 54.6838 137.449 56.3052 136.284C57.9265 135.119 60.2698 134.536 63.3352 134.536H65.3872V133.662C65.3872 132.471 65.1338 131.661 64.6272 131.23C64.1205 130.774 63.2338 130.546 61.9672 130.546C61.3085 130.546 60.5105 130.647 59.5732 130.85C58.6358 131.027 57.6732 131.281 56.6852 131.61L55.3172 127.658C56.5838 127.177 57.8758 126.809 59.1932 126.556C60.5358 126.303 61.7772 126.176 62.9172 126.176C65.8052 126.176 67.9205 126.771 69.2632 127.962C70.6058 129.153 71.2772 130.939 71.2772 133.32V141.148ZM62.1952 143.352C63.5632 143.352 64.6272 142.706 65.3872 141.414V137.842H63.9052C62.5372 137.842 61.5112 138.083 60.8272 138.564C60.1685 139.045 59.8392 139.793 59.8392 140.806C59.8392 141.617 60.0418 142.25 60.4472 142.706C60.8778 143.137 61.4605 143.352 62.1952 143.352ZM87.4785 126.252C88.2132 126.252 88.8845 126.341 89.4925 126.518L88.5425 132.332C87.7825 132.155 87.1745 132.066 86.7185 132.066C85.5279 132.066 84.6159 132.484 83.9825 133.32C83.3745 134.131 82.8932 135.359 82.5385 137.006V147H76.5345V126.822H81.7785L82.2725 130.736C82.7285 129.343 83.4125 128.253 84.3245 127.468C85.2619 126.657 86.3132 126.252 87.4785 126.252ZM98.2655 126.822V147H92.2615V126.822H98.2655ZM95.2255 116.182C96.2641 116.182 97.1128 116.511 97.7715 117.17C98.4555 117.803 98.7975 118.614 98.7975 119.602C98.7975 120.59 98.4555 121.413 97.7715 122.072C97.1128 122.705 96.2641 123.022 95.2255 123.022C94.1868 123.022 93.3381 122.705 92.6795 122.072C92.0208 121.413 91.6915 120.59 91.6915 119.602C91.6915 118.614 92.0208 117.803 92.6795 117.17C93.3381 116.511 94.1868 116.182 95.2255 116.182ZM109.465 118.158V147H103.461V118.804L109.465 118.158ZM121.929 126.822L115.811 135.676L122.423 147H115.659L109.655 135.98L115.811 126.822H121.929ZM140.382 141.148C140.382 141.908 140.484 142.465 140.686 142.82C140.914 143.175 141.269 143.441 141.75 143.618L140.496 147.532C139.255 147.431 138.242 147.165 137.456 146.734C136.671 146.278 136.063 145.569 135.632 144.606C134.315 146.633 132.288 147.646 129.552 147.646C127.551 147.646 125.955 147.063 124.764 145.898C123.574 144.733 122.978 143.213 122.978 141.338C122.978 139.134 123.789 137.449 125.41 136.284C127.032 135.119 129.375 134.536 132.44 134.536H134.492V133.662C134.492 132.471 134.239 131.661 133.732 131.23C133.226 130.774 132.339 130.546 131.072 130.546C130.414 130.546 129.616 130.647 128.678 130.85C127.741 131.027 126.778 131.281 125.79 131.61L124.422 127.658C125.689 127.177 126.981 126.809 128.298 126.556C129.641 126.303 130.882 126.176 132.022 126.176C134.91 126.176 137.026 126.771 138.368 127.962C139.711 129.153 140.382 130.939 140.382 133.32V141.148ZM131.3 143.352C132.668 143.352 133.732 142.706 134.492 141.414V137.842H133.01C131.642 137.842 130.616 138.083 129.932 138.564C129.274 139.045 128.944 139.793 128.944 140.806C128.944 141.617 129.147 142.25 129.552 142.706C129.983 143.137 130.566 143.352 131.3 143.352ZM151.557 120.02C153.331 120.02 154.838 120.311 156.079 120.894C157.346 121.451 158.296 122.211 158.929 123.174C159.563 124.137 159.879 125.201 159.879 126.366C159.879 127.405 159.689 128.291 159.309 129.026C158.955 129.761 158.524 130.356 158.017 130.812C157.511 131.268 156.839 131.8 156.003 132.408C154.99 133.092 154.243 133.713 153.761 134.27C153.28 134.802 153.039 135.499 153.039 136.36V137.31H147.567V136.132C147.567 134.941 147.745 133.941 148.099 133.13C148.479 132.294 148.923 131.648 149.429 131.192C149.961 130.711 150.62 130.191 151.405 129.634C152.165 129.127 152.723 128.684 153.077 128.304C153.432 127.924 153.609 127.455 153.609 126.898C153.609 126.214 153.369 125.682 152.887 125.302C152.431 124.922 151.785 124.732 150.949 124.732C149.353 124.732 147.871 125.505 146.503 127.05L142.665 124.086C144.971 121.375 147.935 120.02 151.557 120.02ZM150.379 140.768C151.317 140.768 152.115 141.11 152.773 141.794C153.457 142.453 153.799 143.251 153.799 144.188C153.799 145.151 153.457 145.974 152.773 146.658C152.115 147.317 151.317 147.646 150.379 147.646C149.442 147.646 148.631 147.317 147.947 146.658C147.289 145.974 146.959 145.151 146.959 144.188C146.959 143.251 147.289 142.453 147.947 141.794C148.631 141.11 149.442 140.768 150.379 140.768Z" fill="#D7FF00"/>
<path d="M32.8807 173.344V171.455H44.1378V173.344H39.5994V186H37.4119V173.344H32.8807ZM49.3246 186.22C48.2498 186.22 47.3241 185.991 46.5476 185.531C45.7758 185.067 45.1792 184.416 44.7578 183.578C44.3411 182.735 44.1328 181.748 44.1328 180.616C44.1328 179.499 44.3411 178.514 44.7578 177.662C45.1792 176.81 45.7663 176.144 46.5192 175.666C47.2768 175.188 48.1622 174.949 49.1754 174.949C49.791 174.949 50.3875 175.051 50.9652 175.254C51.5429 175.458 52.0613 175.777 52.5206 176.213C52.9799 176.649 53.3421 177.214 53.6072 177.911C53.8724 178.602 54.005 179.442 54.005 180.432V181.185H45.3331V179.594H51.924C51.924 179.035 51.8104 178.54 51.5831 178.109C51.3558 177.674 51.0362 177.33 50.6243 177.08C50.2171 176.829 49.7389 176.703 49.1896 176.703C48.593 176.703 48.0722 176.85 47.6271 177.143C47.1868 177.432 46.8459 177.811 46.6044 178.28C46.3677 178.744 46.2493 179.248 46.2493 179.793V181.036C46.2493 181.765 46.3771 182.385 46.6328 182.896C46.8932 183.408 47.2554 183.798 47.7195 184.068C48.1835 184.333 48.7256 184.466 49.3459 184.466C49.7483 184.466 50.1153 184.409 50.4467 184.295C50.7782 184.177 51.0646 184.002 51.3061 183.77C51.5476 183.538 51.7322 183.251 51.8601 182.911L53.87 183.273C53.709 183.865 53.4202 184.383 53.0036 184.828C52.5916 185.268 52.0732 185.612 51.4482 185.858C50.8279 186.099 50.12 186.22 49.3246 186.22ZM60.8129 186.22C59.738 186.22 58.8124 185.991 58.0359 185.531C57.2641 185.067 56.6675 184.416 56.2461 183.578C55.8294 182.735 55.6211 181.748 55.6211 180.616C55.6211 179.499 55.8294 178.514 56.2461 177.662C56.6675 176.81 57.2546 176.144 58.0075 175.666C58.765 175.188 59.6504 174.949 60.6637 174.949C61.2792 174.949 61.8758 175.051 62.4535 175.254C63.0311 175.458 63.5496 175.777 64.0089 176.213C64.4682 176.649 64.8304 177.214 65.0955 177.911C65.3607 178.602 65.4933 179.442 65.4933 180.432V181.185H56.8214V179.594H63.4123C63.4123 179.035 63.2987 178.54 63.0714 178.109C62.8441 177.674 62.5245 177.33 62.1126 177.08C61.7054 176.829 61.2272 176.703 60.6779 176.703C60.0813 176.703 59.5605 176.85 59.1154 177.143C58.6751 177.432 58.3342 177.811 58.0927 178.28C57.8559 178.744 57.7376 179.248 57.7376 179.793V181.036C57.7376 181.765 57.8654 182.385 58.1211 182.896C58.3815 183.408 58.7437 183.798 59.2077 184.068C59.6718 184.333 60.2139 184.466 60.8342 184.466C61.2366 184.466 61.6036 184.409 61.935 184.295C62.2665 184.177 62.5529 184.002 62.7944 183.77C63.0359 183.538 63.2205 183.251 63.3484 182.911L65.3583 183.273C65.1973 183.865 64.9085 184.383 64.4918 184.828C64.0799 185.268 63.5614 185.612 62.9364 185.858C62.3162 186.099 61.6083 186.22 60.8129 186.22ZM77.2376 186.22C76.2148 186.22 75.3223 185.986 74.56 185.517C73.7977 185.048 73.2058 184.393 72.7844 183.55C72.363 182.707 72.1523 181.722 72.1523 180.595C72.1523 179.464 72.363 178.474 72.7844 177.626C73.2058 176.779 73.7977 176.121 74.56 175.652C75.3223 175.183 76.2148 174.949 77.2376 174.949C78.2603 174.949 79.1528 175.183 79.9151 175.652C80.6774 176.121 81.2693 176.779 81.6907 177.626C82.1121 178.474 82.3228 179.464 82.3228 180.595C82.3228 181.722 82.1121 182.707 81.6907 183.55C81.2693 184.393 80.6774 185.048 79.9151 185.517C79.1528 185.986 78.2603 186.22 77.2376 186.22ZM77.2447 184.438C77.9076 184.438 78.4568 184.262 78.8924 183.912C79.328 183.562 79.65 183.095 79.8583 182.513C80.0714 181.93 80.1779 181.289 80.1779 180.588C80.1779 179.892 80.0714 179.253 79.8583 178.67C79.65 178.083 79.328 177.612 78.8924 177.257C78.4568 176.902 77.9076 176.724 77.2447 176.724C76.5771 176.724 76.0231 176.902 75.5827 177.257C75.1471 177.612 74.8228 178.083 74.6097 178.67C74.4014 179.253 74.2972 179.892 74.2972 180.588C74.2972 181.289 74.4014 181.93 74.6097 182.513C74.8228 183.095 75.1471 183.562 75.5827 183.912C76.0231 184.262 76.5771 184.438 77.2447 184.438ZM84.4432 186V175.091H86.4815V176.866H86.6165C86.8438 176.265 87.2154 175.796 87.7315 175.46C88.2476 175.119 88.8655 174.949 89.5852 174.949C90.3144 174.949 90.9252 175.119 91.4176 175.46C91.9148 175.801 92.2817 176.27 92.5185 176.866H92.6321C92.8925 176.284 93.3068 175.82 93.875 175.474C94.4432 175.124 95.1203 174.949 95.9062 174.949C96.8958 174.949 97.7031 175.259 98.3281 175.879C98.9579 176.5 99.2727 177.435 99.2727 178.685V186H97.1491V178.884C97.1491 178.145 96.9479 177.61 96.5455 177.278C96.143 176.947 95.6624 176.781 95.1037 176.781C94.4124 176.781 93.875 176.994 93.4915 177.42C93.108 177.842 92.9162 178.384 92.9162 179.047V186H90.7997V178.749C90.7997 178.157 90.6151 177.681 90.2457 177.321C89.8764 176.961 89.3958 176.781 88.804 176.781C88.4015 176.781 88.0298 176.888 87.6889 177.101C87.3527 177.309 87.0805 177.6 86.8722 177.974C86.6686 178.348 86.5668 178.782 86.5668 179.274V186H84.4432ZM105.044 186.241C104.352 186.241 103.727 186.114 103.169 185.858C102.61 185.598 102.167 185.221 101.841 184.729C101.519 184.236 101.358 183.633 101.358 182.918C101.358 182.302 101.476 181.795 101.713 181.398C101.949 181 102.269 180.685 102.672 180.453C103.074 180.221 103.524 180.046 104.021 179.928C104.518 179.809 105.025 179.719 105.541 179.658C106.194 179.582 106.725 179.52 107.132 179.473C107.539 179.421 107.835 179.338 108.02 179.224C108.204 179.111 108.297 178.926 108.297 178.67V178.621C108.297 178 108.121 177.52 107.771 177.179C107.425 176.838 106.909 176.668 106.223 176.668C105.508 176.668 104.944 176.826 104.532 177.143C104.125 177.456 103.843 177.804 103.687 178.188L101.691 177.733C101.928 177.07 102.274 176.535 102.728 176.128C103.188 175.716 103.716 175.418 104.312 175.233C104.909 175.044 105.536 174.949 106.194 174.949C106.63 174.949 107.092 175.001 107.579 175.105C108.072 175.205 108.531 175.389 108.957 175.659C109.388 175.929 109.741 176.315 110.015 176.817C110.29 177.314 110.427 177.96 110.427 178.756V186H108.353V184.509H108.268C108.131 184.783 107.925 185.053 107.65 185.318C107.376 185.583 107.023 185.804 106.592 185.979C106.161 186.154 105.645 186.241 105.044 186.241ZM105.505 184.537C106.092 184.537 106.594 184.421 107.011 184.189C107.432 183.957 107.752 183.654 107.97 183.28C108.192 182.901 108.304 182.496 108.304 182.065V180.659C108.228 180.735 108.081 180.806 107.863 180.872C107.65 180.934 107.406 180.988 107.132 181.036C106.857 181.078 106.59 181.118 106.329 181.156C106.069 181.189 105.851 181.218 105.676 181.241C105.264 181.294 104.887 181.381 104.547 181.504C104.21 181.627 103.94 181.805 103.737 182.037C103.538 182.264 103.439 182.567 103.439 182.946C103.439 183.472 103.633 183.869 104.021 184.139C104.409 184.404 104.904 184.537 105.505 184.537ZM122.75 186.22C121.676 186.22 120.75 185.991 119.973 185.531C119.202 185.067 118.605 184.416 118.184 183.578C117.767 182.735 117.559 181.748 117.559 180.616C117.559 179.499 117.767 178.514 118.184 177.662C118.605 176.81 119.192 176.144 119.945 175.666C120.703 175.188 121.588 174.949 122.601 174.949C123.217 174.949 123.813 175.051 124.391 175.254C124.969 175.458 125.487 175.777 125.946 176.213C126.406 176.649 126.768 177.214 127.033 177.911C127.298 178.602 127.431 179.442 127.431 180.432V181.185H118.759V179.594H125.35C125.35 179.035 125.236 178.54 125.009 178.109C124.782 177.674 124.462 177.33 124.05 177.08C123.643 176.829 123.165 176.703 122.615 176.703C122.019 176.703 121.498 176.85 121.053 177.143C120.613 177.432 120.272 177.811 120.03 178.28C119.793 178.744 119.675 179.248 119.675 179.793V181.036C119.675 181.765 119.803 182.385 120.059 182.896C120.319 183.408 120.681 183.798 121.145 184.068C121.609 184.333 122.151 184.466 122.772 184.466C123.174 184.466 123.541 184.409 123.873 184.295C124.204 184.177 124.49 184.002 124.732 183.77C124.973 183.538 125.158 183.251 125.286 182.911L127.296 183.273C127.135 183.865 126.846 184.383 126.429 184.828C126.017 185.268 125.499 185.612 124.874 185.858C124.254 186.099 123.546 186.22 122.75 186.22ZM131.661 179.523V186H129.537V175.091H131.575V176.866H131.71C131.961 176.289 132.354 175.825 132.889 175.474C133.429 175.124 134.108 174.949 134.928 174.949C135.671 174.949 136.322 175.105 136.881 175.418C137.439 175.725 137.873 176.185 138.18 176.795C138.488 177.406 138.642 178.161 138.642 179.061V186H136.518V179.317C136.518 178.526 136.313 177.908 135.901 177.463C135.489 177.013 134.923 176.788 134.203 176.788C133.711 176.788 133.273 176.895 132.889 177.108C132.51 177.321 132.21 177.634 131.987 178.045C131.769 178.453 131.661 178.945 131.661 179.523ZM143.364 179.523V186H141.24V175.091H143.278V176.866H143.413C143.664 176.289 144.057 175.825 144.592 175.474C145.132 175.124 145.812 174.949 146.631 174.949C147.374 174.949 148.025 175.105 148.584 175.418C149.143 175.725 149.576 176.185 149.884 176.795C150.191 177.406 150.345 178.161 150.345 179.061V186H148.222V179.317C148.222 178.526 148.016 177.908 147.604 177.463C147.192 177.013 146.626 176.788 145.906 176.788C145.414 176.788 144.976 176.895 144.592 177.108C144.214 177.321 143.913 177.634 143.69 178.045C143.473 178.453 143.364 178.945 143.364 179.523ZM159.854 181.476V175.091H161.984V186H159.896V184.111H159.783C159.532 184.693 159.129 185.179 158.575 185.567C158.026 185.95 157.342 186.142 156.523 186.142C155.822 186.142 155.202 185.988 154.662 185.68C154.127 185.368 153.705 184.906 153.398 184.295C153.095 183.685 152.943 182.929 152.943 182.03V175.091H155.067V181.774C155.067 182.518 155.273 183.109 155.685 183.55C156.097 183.99 156.632 184.21 157.29 184.21C157.688 184.21 158.083 184.111 158.476 183.912C158.874 183.713 159.203 183.412 159.463 183.01C159.728 182.607 159.858 182.096 159.854 181.476ZM172.762 177.754L170.838 178.095C170.757 177.849 170.629 177.615 170.454 177.392C170.284 177.17 170.052 176.987 169.758 176.845C169.465 176.703 169.098 176.632 168.657 176.632C168.056 176.632 167.554 176.767 167.152 177.037C166.749 177.302 166.548 177.645 166.548 178.067C166.548 178.431 166.683 178.725 166.953 178.947C167.223 179.17 167.658 179.352 168.26 179.494L169.993 179.892C170.996 180.124 171.744 180.482 172.237 180.964C172.729 181.447 172.975 182.075 172.975 182.847C172.975 183.5 172.786 184.082 172.407 184.594C172.033 185.1 171.51 185.498 170.838 185.787C170.17 186.076 169.396 186.22 168.515 186.22C167.294 186.22 166.297 185.96 165.525 185.439C164.753 184.913 164.28 184.168 164.105 183.202L166.157 182.889C166.285 183.424 166.548 183.829 166.946 184.104C167.343 184.374 167.862 184.509 168.501 184.509C169.197 184.509 169.753 184.364 170.17 184.075C170.587 183.782 170.795 183.424 170.795 183.003C170.795 182.662 170.667 182.375 170.412 182.143C170.161 181.911 169.775 181.736 169.254 181.618L167.407 181.213C166.389 180.981 165.636 180.612 165.149 180.105C164.666 179.598 164.424 178.957 164.424 178.18C164.424 177.536 164.604 176.973 164.964 176.49C165.324 176.007 165.821 175.631 166.456 175.361C167.09 175.086 167.817 174.949 168.636 174.949C169.815 174.949 170.743 175.205 171.42 175.716C172.097 176.223 172.545 176.902 172.762 177.754ZM180.153 175.091V176.795H174.194V175.091H180.153ZM175.792 172.477H177.915V182.797C177.915 183.209 177.977 183.519 178.1 183.727C178.223 183.931 178.382 184.071 178.576 184.146C178.775 184.217 178.99 184.253 179.222 184.253C179.393 184.253 179.542 184.241 179.67 184.217C179.798 184.194 179.897 184.175 179.968 184.161L180.352 185.915C180.228 185.962 180.053 186.009 179.826 186.057C179.599 186.109 179.315 186.137 178.974 186.142C178.415 186.152 177.894 186.052 177.411 185.844C176.928 185.635 176.538 185.313 176.239 184.878C175.941 184.442 175.792 183.895 175.792 183.237V172.477ZM189.162 181.476V175.091H191.293V186H189.205V184.111H189.091C188.84 184.693 188.438 185.179 187.884 185.567C187.335 185.95 186.65 186.142 185.831 186.142C185.131 186.142 184.51 185.988 183.971 185.68C183.435 185.368 183.014 184.906 182.706 184.295C182.403 183.685 182.252 182.929 182.252 182.03V175.091H184.375V181.774C184.375 182.518 184.581 183.109 184.993 183.55C185.405 183.99 185.94 184.21 186.598 184.21C186.996 184.21 187.391 184.111 187.784 183.912C188.182 183.713 188.511 183.412 188.772 183.01C189.037 182.607 189.167 182.096 189.162 181.476ZM202.071 177.754L200.146 178.095C200.066 177.849 199.938 177.615 199.763 177.392C199.592 177.17 199.36 176.987 199.067 176.845C198.773 176.703 198.406 176.632 197.966 176.632C197.365 176.632 196.863 176.767 196.46 177.037C196.058 177.302 195.857 177.645 195.857 178.067C195.857 178.431 195.991 178.725 196.261 178.947C196.531 179.17 196.967 179.352 197.568 179.494L199.301 179.892C200.305 180.124 201.053 180.482 201.545 180.964C202.038 181.447 202.284 182.075 202.284 182.847C202.284 183.5 202.095 184.082 201.716 184.594C201.342 185.1 200.819 185.498 200.146 185.787C199.479 186.076 198.705 186.22 197.824 186.22C196.602 186.22 195.606 185.96 194.834 185.439C194.062 184.913 193.589 184.168 193.413 183.202L195.466 182.889C195.594 183.424 195.857 183.829 196.254 184.104C196.652 184.374 197.17 184.509 197.81 184.509C198.506 184.509 199.062 184.364 199.479 184.075C199.895 183.782 200.104 183.424 200.104 183.003C200.104 182.662 199.976 182.375 199.72 182.143C199.469 181.911 199.083 181.736 198.562 181.618L196.716 181.213C195.698 180.981 194.945 180.612 194.457 180.105C193.974 179.598 193.733 178.957 193.733 178.18C193.733 177.536 193.913 176.973 194.273 176.49C194.633 176.007 195.13 175.631 195.764 175.361C196.399 175.086 197.125 174.949 197.945 174.949C199.124 174.949 200.052 175.205 200.729 175.716C201.406 176.223 201.853 176.902 202.071 177.754ZM209.412 175.091H211.536V186.71C211.536 187.439 211.403 188.055 211.138 188.557C210.877 189.059 210.489 189.44 209.973 189.7C209.462 189.961 208.83 190.091 208.077 190.091C208.001 190.091 207.93 190.091 207.864 190.091C207.793 190.091 207.719 190.089 207.643 190.084V188.259C207.71 188.259 207.769 188.259 207.821 188.259C207.868 188.259 207.923 188.259 207.984 188.259C208.486 188.259 208.848 188.124 209.071 187.854C209.298 187.589 209.412 187.203 209.412 186.696V175.091ZM210.463 173.408C210.094 173.408 209.777 173.285 209.511 173.038C209.251 172.787 209.121 172.489 209.121 172.143C209.121 171.793 209.251 171.495 209.511 171.249C209.777 170.998 210.094 170.872 210.463 170.872C210.832 170.872 211.147 170.998 211.408 171.249C211.673 171.495 211.805 171.793 211.805 172.143C211.805 172.489 211.673 172.787 211.408 173.038C211.147 173.285 210.832 173.408 210.463 173.408ZM217.317 186.241C216.626 186.241 216.001 186.114 215.442 185.858C214.883 185.598 214.441 185.221 214.114 184.729C213.792 184.236 213.631 183.633 213.631 182.918C213.631 182.302 213.749 181.795 213.986 181.398C214.223 181 214.542 180.685 214.945 180.453C215.347 180.221 215.797 180.046 216.294 179.928C216.792 179.809 217.298 179.719 217.814 179.658C218.468 179.582 218.998 179.52 219.405 179.473C219.812 179.421 220.108 179.338 220.293 179.224C220.478 179.111 220.57 178.926 220.57 178.67V178.621C220.57 178 220.395 177.52 220.044 177.179C219.699 176.838 219.183 176.668 218.496 176.668C217.781 176.668 217.218 176.826 216.806 177.143C216.399 177.456 216.117 177.804 215.961 178.188L213.965 177.733C214.202 177.07 214.547 176.535 215.002 176.128C215.461 175.716 215.989 175.418 216.586 175.233C217.182 175.044 217.81 174.949 218.468 174.949C218.903 174.949 219.365 175.001 219.853 175.105C220.345 175.205 220.804 175.389 221.23 175.659C221.661 175.929 222.014 176.315 222.289 176.817C222.563 177.314 222.701 177.96 222.701 178.756V186H220.627V184.509H220.542C220.404 184.783 220.198 185.053 219.924 185.318C219.649 185.583 219.296 185.804 218.865 185.979C218.435 186.154 217.918 186.241 217.317 186.241ZM217.779 184.537C218.366 184.537 218.868 184.421 219.284 184.189C219.706 183.957 220.025 183.654 220.243 183.28C220.466 182.901 220.577 182.496 220.577 182.065V180.659C220.501 180.735 220.355 180.806 220.137 180.872C219.924 180.934 219.68 180.988 219.405 181.036C219.131 181.078 218.863 181.118 218.603 181.156C218.342 181.189 218.124 181.218 217.949 181.241C217.537 181.294 217.161 181.381 216.82 181.504C216.484 181.627 216.214 181.805 216.01 182.037C215.811 182.264 215.712 182.567 215.712 182.946C215.712 183.472 215.906 183.869 216.294 184.139C216.683 184.404 217.177 184.537 217.779 184.537ZM38.0227 211.22C37 211.22 36.1075 210.986 35.3452 210.517C34.5829 210.048 33.991 209.393 33.5696 208.55C33.1482 207.707 32.9375 206.722 32.9375 205.595C32.9375 204.464 33.1482 203.474 33.5696 202.626C33.991 201.779 34.5829 201.121 35.3452 200.652C36.1075 200.183 37 199.949 38.0227 199.949C39.0455 199.949 39.938 200.183 40.7003 200.652C41.4626 201.121 42.0545 201.779 42.4759 202.626C42.8973 203.474 43.108 204.464 43.108 205.595C43.108 206.722 42.8973 207.707 42.4759 208.55C42.0545 209.393 41.4626 210.048 40.7003 210.517C39.938 210.986 39.0455 211.22 38.0227 211.22ZM38.0298 209.438C38.6927 209.438 39.242 209.262 39.6776 208.912C40.1132 208.562 40.4351 208.095 40.6435 207.513C40.8565 206.93 40.9631 206.289 40.9631 205.588C40.9631 204.892 40.8565 204.253 40.6435 203.67C40.4351 203.083 40.1132 202.612 39.6776 202.257C39.242 201.902 38.6927 201.724 38.0298 201.724C37.3622 201.724 36.8082 201.902 36.3679 202.257C35.9323 202.612 35.608 203.083 35.3949 203.67C35.1866 204.253 35.0824 204.892 35.0824 205.588C35.0824 206.289 35.1866 206.93 35.3949 207.513C35.608 208.095 35.9323 208.562 36.3679 208.912C36.8082 209.262 37.3622 209.438 38.0298 209.438ZM53.4031 202.754L51.4783 203.095C51.3978 202.849 51.27 202.615 51.0948 202.392C50.9244 202.17 50.6924 201.987 50.3988 201.845C50.1052 201.703 49.7383 201.632 49.2979 201.632C48.6966 201.632 48.1947 201.767 47.7923 202.037C47.3898 202.302 47.1886 202.645 47.1886 203.067C47.1886 203.431 47.3235 203.725 47.5934 203.947C47.8633 204.17 48.2989 204.352 48.9002 204.494L50.6332 204.892C51.637 205.124 52.3851 205.482 52.8775 205.964C53.3699 206.447 53.6161 207.075 53.6161 207.847C53.6161 208.5 53.4267 209.082 53.0479 209.594C52.6739 210.1 52.1507 210.498 51.4783 210.787C50.8107 211.076 50.0366 211.22 49.1559 211.22C47.9343 211.22 46.9376 210.96 46.1658 210.439C45.3941 209.913 44.9206 209.168 44.7454 208.202L46.7979 207.889C46.9258 208.424 47.1886 208.829 47.5863 209.104C47.984 209.374 48.5025 209.509 49.1417 209.509C49.8377 209.509 50.3941 209.364 50.8107 209.075C51.2274 208.782 51.4357 208.424 51.4357 208.003C51.4357 207.662 51.3079 207.375 51.0522 207.143C50.8013 206.911 50.4154 206.736 49.8945 206.618L48.0479 206.213C47.0299 205.981 46.2771 205.612 45.7894 205.105C45.3065 204.598 45.065 203.957 45.065 203.18C45.065 202.536 45.2449 201.973 45.6048 201.49C45.9646 201.007 46.4618 200.631 47.0962 200.361C47.7307 200.086 48.4575 199.949 49.2766 199.949C50.4556 199.949 51.3836 200.205 52.0607 200.716C52.7378 201.223 53.1853 201.902 53.4031 202.754ZM58.8757 211.241C58.1844 211.241 57.5594 211.114 57.0007 210.858C56.442 210.598 55.9993 210.221 55.6726 209.729C55.3506 209.236 55.1896 208.633 55.1896 207.918C55.1896 207.302 55.308 206.795 55.5447 206.398C55.7815 206 56.1011 205.685 56.5036 205.453C56.906 205.221 57.3558 205.046 57.853 204.928C58.3501 204.809 58.8568 204.719 59.3729 204.658C60.0263 204.582 60.5566 204.52 60.9638 204.473C61.371 204.421 61.6669 204.338 61.8516 204.224C62.0362 204.111 62.1286 203.926 62.1286 203.67V203.621C62.1286 203 61.9534 202.52 61.603 202.179C61.2573 201.838 60.7412 201.668 60.0547 201.668C59.3397 201.668 58.7763 201.826 58.3643 202.143C57.9571 202.456 57.6754 202.804 57.5192 203.188L55.5234 202.733C55.7602 202.07 56.1058 201.535 56.5604 201.128C57.0196 200.716 57.5476 200.418 58.1442 200.233C58.7408 200.044 59.3681 199.949 60.0263 199.949C60.4619 199.949 60.9235 200.001 61.4112 200.105C61.9036 200.205 62.3629 200.389 62.7891 200.659C63.2199 200.929 63.5727 201.315 63.8473 201.817C64.1219 202.314 64.2592 202.96 64.2592 203.756V211H62.1854V209.509H62.1001C61.9628 209.783 61.7569 210.053 61.4822 210.318C61.2076 210.583 60.8549 210.804 60.424 210.979C59.9931 211.154 59.477 211.241 58.8757 211.241ZM59.3374 209.537C59.9245 209.537 60.4264 209.421 60.843 209.189C61.2644 208.957 61.584 208.654 61.8018 208.28C62.0244 207.901 62.1357 207.496 62.1357 207.065V205.659C62.0599 205.735 61.9131 205.806 61.6953 205.872C61.4822 205.934 61.2384 205.988 60.9638 206.036C60.6892 206.078 60.4216 206.118 60.1612 206.156C59.9008 206.189 59.683 206.218 59.5078 206.241C59.0959 206.294 58.7195 206.381 58.3786 206.504C58.0424 206.627 57.7725 206.805 57.5689 207.037C57.37 207.264 57.2706 207.567 57.2706 207.946C57.2706 208.472 57.4647 208.869 57.853 209.139C58.2412 209.404 58.736 209.537 59.3374 209.537ZM68.9613 196.455V211H66.8377V196.455H68.9613ZM76.2699 211.22C75.1951 211.22 74.2694 210.991 73.4929 210.531C72.7211 210.067 72.1245 209.416 71.7031 208.578C71.2865 207.735 71.0781 206.748 71.0781 205.616C71.0781 204.499 71.2865 203.514 71.7031 202.662C72.1245 201.81 72.7116 201.144 73.4645 200.666C74.2221 200.188 75.1075 199.949 76.1207 199.949C76.7363 199.949 77.3329 200.051 77.9105 200.254C78.4882 200.458 79.0066 200.777 79.4659 201.213C79.9252 201.649 80.2874 202.214 80.5526 202.911C80.8177 203.602 80.9503 204.442 80.9503 205.432V206.185H72.2784V204.594H78.8693C78.8693 204.035 78.7557 203.54 78.5284 203.109C78.3011 202.674 77.9815 202.33 77.5696 202.08C77.1624 201.829 76.6842 201.703 76.1349 201.703C75.5384 201.703 75.0175 201.85 74.5724 202.143C74.1321 202.432 73.7912 202.811 73.5497 203.28C73.313 203.744 73.1946 204.248 73.1946 204.793V206.036C73.1946 206.765 73.3224 207.385 73.5781 207.896C73.8385 208.408 74.2008 208.798 74.6648 209.068C75.1288 209.333 75.6709 209.466 76.2912 209.466C76.6937 209.466 77.0606 209.409 77.392 209.295C77.7235 209.177 78.0099 209.002 78.2514 208.77C78.4929 208.538 78.6776 208.251 78.8054 207.911L80.8153 208.273C80.6544 208.865 80.3655 209.383 79.9489 209.828C79.5369 210.268 79.0185 210.612 78.3935 210.858C77.7732 211.099 77.0653 211.22 76.2699 211.22ZM87.1403 211.213C86.2596 211.213 85.4736 210.988 84.7823 210.538C84.0958 210.084 83.556 209.437 83.163 208.599C82.7747 207.757 82.5806 206.746 82.5806 205.567C82.5806 204.388 82.7771 203.379 83.1701 202.541C83.5678 201.703 84.1123 201.062 84.8036 200.616C85.4949 200.171 86.2785 199.949 87.1545 199.949C87.8316 199.949 88.3761 200.062 88.788 200.29C89.2047 200.512 89.5266 200.773 89.7539 201.071C89.9859 201.369 90.1658 201.632 90.2937 201.859H90.4215V196.455H92.5451V211H90.4712V209.303H90.2937C90.1658 209.535 89.9812 209.8 89.7397 210.098C89.503 210.396 89.1763 210.657 88.7596 210.879C88.3429 211.102 87.8031 211.213 87.1403 211.213ZM87.609 209.402C88.2198 209.402 88.7359 209.241 89.1573 208.919C89.5835 208.592 89.9054 208.14 90.1232 207.562C90.3458 206.985 90.457 206.312 90.457 205.545C90.457 204.788 90.3481 204.125 90.1303 203.557C89.9125 202.989 89.5929 202.546 89.1715 202.229C88.7501 201.911 88.2293 201.753 87.609 201.753C86.9698 201.753 86.4371 201.919 86.011 202.25C85.5849 202.581 85.2629 203.034 85.0451 203.607C84.832 204.179 84.7255 204.826 84.7255 205.545C84.7255 206.275 84.8344 206.93 85.0522 207.513C85.27 208.095 85.592 208.557 86.0181 208.898C86.449 209.234 86.9793 209.402 87.609 209.402Z" fill="#F5FCC4"/>
<path d="M105.433 211.199C104.429 211.199 103.534 211.014 102.748 210.645C101.967 210.276 101.347 209.767 100.887 209.118C100.428 208.469 100.189 207.726 100.17 206.888H103.153C103.186 207.451 103.423 207.908 103.863 208.259C104.304 208.609 104.827 208.784 105.433 208.784C105.916 208.784 106.342 208.678 106.711 208.464C107.085 208.247 107.377 207.946 107.585 207.562C107.798 207.174 107.904 206.729 107.904 206.227C107.904 205.716 107.796 205.266 107.578 204.878C107.365 204.49 107.069 204.187 106.69 203.969C106.311 203.751 105.878 203.64 105.39 203.635C104.964 203.635 104.55 203.723 104.147 203.898C103.75 204.073 103.44 204.312 103.217 204.615L100.483 204.125L101.172 196.455H110.064V198.969H103.707L103.331 202.612H103.416C103.672 202.252 104.057 201.954 104.574 201.717C105.09 201.481 105.667 201.362 106.306 201.362C107.182 201.362 107.964 201.568 108.65 201.98C109.337 202.392 109.879 202.958 110.277 203.678C110.674 204.393 110.871 205.216 110.866 206.149C110.871 207.129 110.644 208 110.184 208.763C109.73 209.52 109.093 210.117 108.274 210.553C107.459 210.983 106.512 211.199 105.433 211.199ZM126.067 208.983L117.58 200.51L119.441 198.628L127.935 207.122L126.067 208.983ZM119.441 208.983L117.58 207.122L126.067 198.628L127.935 200.51L119.441 208.983ZM141.191 196.455V211H138.115V199.374H138.03L134.699 201.462V198.734L138.3 196.455H141.191ZM150.101 211.32C148.879 211.315 147.828 211.014 146.947 210.418C146.071 209.821 145.397 208.957 144.923 207.825C144.455 206.694 144.223 205.332 144.227 203.741C144.227 202.155 144.462 200.804 144.93 199.686C145.404 198.569 146.079 197.719 146.955 197.136C147.835 196.549 148.884 196.256 150.101 196.256C151.318 196.256 152.364 196.549 153.24 197.136C154.121 197.723 154.798 198.576 155.271 199.693C155.745 200.806 155.979 202.155 155.974 203.741C155.974 205.337 155.738 206.701 155.264 207.832C154.795 208.964 154.123 209.828 153.247 210.425C152.371 211.021 151.322 211.32 150.101 211.32ZM150.101 208.77C150.934 208.77 151.599 208.351 152.097 207.513C152.594 206.675 152.84 205.418 152.835 203.741C152.835 202.638 152.722 201.72 152.494 200.986C152.272 200.252 151.955 199.7 151.543 199.331C151.135 198.962 150.655 198.777 150.101 198.777C149.272 198.777 148.609 199.191 148.112 200.02C147.615 200.848 147.364 202.089 147.359 203.741C147.359 204.859 147.471 205.792 147.693 206.54C147.92 207.283 148.24 207.842 148.652 208.216C149.064 208.585 149.547 208.77 150.101 208.77ZM163.62 211.32C162.399 211.315 161.348 211.014 160.467 210.418C159.591 209.821 158.916 208.957 158.443 207.825C157.974 206.694 157.742 205.332 157.747 203.741C157.747 202.155 157.981 200.804 158.45 199.686C158.923 198.569 159.598 197.719 160.474 197.136C161.355 196.549 162.404 196.256 163.62 196.256C164.837 196.256 165.884 196.549 166.76 197.136C167.64 197.723 168.317 198.576 168.791 199.693C169.264 200.806 169.499 202.155 169.494 203.741C169.494 205.337 169.257 206.701 168.784 207.832C168.315 208.964 167.643 209.828 166.767 210.425C165.891 211.021 164.842 211.32 163.62 211.32ZM163.62 208.77C164.454 208.77 165.119 208.351 165.616 207.513C166.113 206.675 166.359 205.418 166.355 203.741C166.355 202.638 166.241 201.72 166.014 200.986C165.791 200.252 165.474 199.7 165.062 199.331C164.655 198.962 164.174 198.777 163.62 198.777C162.792 198.777 162.129 199.191 161.632 200.02C161.135 200.848 160.884 202.089 160.879 203.741C160.879 204.859 160.99 205.792 161.213 206.54C161.44 207.283 161.76 207.842 162.172 208.216C162.583 208.585 163.066 208.77 163.62 208.77ZM185.418 201.462L184.715 203.017H175.219L175.794 201.462H185.418ZM184.061 204.438L183.287 206.028H175.219L175.794 204.438H184.061ZM187.265 197.577L186.128 200.006C185.939 199.873 185.709 199.729 185.439 199.572C185.174 199.411 184.869 199.277 184.523 199.168C184.182 199.054 183.803 198.997 183.387 198.997C182.729 198.997 182.156 199.163 181.668 199.494C181.18 199.826 180.801 200.342 180.532 201.043C180.266 201.743 180.134 202.643 180.134 203.741C180.134 204.849 180.266 205.751 180.532 206.447C180.801 207.139 181.18 207.648 181.668 207.974C182.156 208.296 182.729 208.457 183.387 208.457C183.803 208.457 184.182 208.403 184.523 208.294C184.864 208.185 185.162 208.055 185.418 207.903C185.678 207.752 185.896 207.612 186.071 207.484L187.222 209.913C186.706 210.339 186.121 210.661 185.468 210.879C184.814 211.092 184.121 211.199 183.387 211.199C182.146 211.199 181.048 210.905 180.091 210.318C179.14 209.726 178.394 208.876 177.854 207.768C177.314 206.656 177.044 205.313 177.044 203.741C177.044 202.174 177.314 200.832 177.854 199.714C178.394 198.597 179.14 197.742 180.091 197.151C181.048 196.554 182.146 196.256 183.387 196.256C184.149 196.256 184.855 196.369 185.503 196.597C186.152 196.824 186.739 197.151 187.265 197.577ZM196.729 196.455V211H193.703V196.455H196.729ZM203.832 211.213C202.728 211.213 201.774 210.979 200.969 210.51C200.169 210.036 199.551 209.378 199.116 208.536C198.68 207.688 198.462 206.705 198.462 205.588C198.462 204.461 198.68 203.476 199.116 202.634C199.551 201.786 200.169 201.128 200.969 200.659C201.774 200.186 202.728 199.949 203.832 199.949C204.935 199.949 205.887 200.186 206.687 200.659C207.492 201.128 208.112 201.786 208.548 202.634C208.983 203.476 209.201 204.461 209.201 205.588C209.201 206.705 208.983 207.688 208.548 208.536C208.112 209.378 207.492 210.036 206.687 210.51C205.887 210.979 204.935 211.213 203.832 211.213ZM203.846 208.869C204.348 208.869 204.767 208.727 205.103 208.443C205.439 208.154 205.692 207.761 205.863 207.264C206.038 206.767 206.126 206.201 206.126 205.567C206.126 204.932 206.038 204.366 205.863 203.869C205.692 203.372 205.439 202.979 205.103 202.69C204.767 202.402 204.348 202.257 203.846 202.257C203.339 202.257 202.913 202.402 202.567 202.69C202.227 202.979 201.969 203.372 201.793 203.869C201.623 204.366 201.538 204.932 201.538 205.567C201.538 206.201 201.623 206.767 201.793 207.264C201.969 207.761 202.227 208.154 202.567 208.443C202.913 208.727 203.339 208.869 203.846 208.869ZM215.847 211.213C214.744 211.213 213.79 210.979 212.985 210.51C212.185 210.036 211.567 209.378 211.131 208.536C210.696 207.688 210.478 206.705 210.478 205.588C210.478 204.461 210.696 203.476 211.131 202.634C211.567 201.786 212.185 201.128 212.985 200.659C213.79 200.186 214.744 199.949 215.847 199.949C216.951 199.949 217.902 200.186 218.702 200.659C219.507 201.128 220.128 201.786 220.563 202.634C220.999 203.476 221.217 204.461 221.217 205.588C221.217 206.705 220.999 207.688 220.563 208.536C220.128 209.378 219.507 210.036 218.702 210.51C217.902 210.979 216.951 211.213 215.847 211.213ZM215.862 208.869C216.363 208.869 216.782 208.727 217.119 208.443C217.455 208.154 217.708 207.761 217.879 207.264C218.054 206.767 218.141 206.201 218.141 205.567C218.141 204.932 218.054 204.366 217.879 203.869C217.708 203.372 217.455 202.979 217.119 202.69C216.782 202.402 216.363 202.257 215.862 202.257C215.355 202.257 214.929 202.402 214.583 202.69C214.242 202.979 213.984 203.372 213.809 203.869C213.638 204.366 213.553 204.932 213.553 205.567C213.553 206.201 213.638 206.767 213.809 207.264C213.984 207.761 214.242 208.154 214.583 208.443C214.929 208.727 215.355 208.869 215.862 208.869ZM232.011 203.202L229.241 203.372C229.193 203.135 229.092 202.922 228.935 202.733C228.779 202.539 228.573 202.385 228.317 202.271C228.067 202.153 227.766 202.094 227.415 202.094C226.947 202.094 226.551 202.193 226.229 202.392C225.907 202.586 225.746 202.847 225.746 203.173C225.746 203.434 225.851 203.654 226.059 203.834C226.267 204.014 226.625 204.158 227.131 204.267L229.106 204.665C230.166 204.883 230.957 205.233 231.478 205.716C231.999 206.199 232.259 206.833 232.259 207.619C232.259 208.334 232.049 208.962 231.627 209.501C231.21 210.041 230.638 210.463 229.908 210.766C229.184 211.064 228.348 211.213 227.401 211.213C225.957 211.213 224.807 210.912 223.95 210.311C223.097 209.705 222.598 208.881 222.451 207.839L225.427 207.683C225.517 208.124 225.735 208.46 226.08 208.692C226.426 208.919 226.869 209.033 227.408 209.033C227.939 209.033 228.365 208.931 228.687 208.727C229.013 208.519 229.179 208.251 229.184 207.925C229.179 207.65 229.063 207.425 228.836 207.25C228.609 207.07 228.258 206.933 227.785 206.838L225.896 206.462C224.83 206.249 224.037 205.879 223.516 205.354C223 204.828 222.742 204.158 222.742 203.344C222.742 202.643 222.932 202.039 223.31 201.533C223.694 201.026 224.231 200.635 224.923 200.361C225.619 200.086 226.433 199.949 227.366 199.949C228.744 199.949 229.828 200.24 230.619 200.822C231.414 201.405 231.878 202.198 232.011 203.202ZM233.914 211V200.091H236.94V211H233.914ZM235.434 198.685C234.984 198.685 234.599 198.536 234.277 198.237C233.959 197.934 233.801 197.572 233.801 197.151C233.801 196.734 233.959 196.376 234.277 196.078C234.599 195.775 234.984 195.624 235.434 195.624C235.884 195.624 236.268 195.775 236.585 196.078C236.907 196.376 237.068 196.734 237.068 197.151C237.068 197.572 236.907 197.934 236.585 198.237C236.268 198.536 235.884 198.685 235.434 198.685ZM248.19 203.202L245.42 203.372C245.373 203.135 245.271 202.922 245.115 202.733C244.959 202.539 244.753 202.385 244.497 202.271C244.246 202.153 243.946 202.094 243.595 202.094C243.126 202.094 242.731 202.193 242.409 202.392C242.087 202.586 241.926 202.847 241.926 203.173C241.926 203.434 242.03 203.654 242.239 203.834C242.447 204.014 242.804 204.158 243.311 204.267L245.286 204.665C246.346 204.883 247.137 205.233 247.658 205.716C248.179 206.199 248.439 206.833 248.439 207.619C248.439 208.334 248.228 208.962 247.807 209.501C247.39 210.041 246.817 210.463 246.088 210.766C245.364 211.064 244.528 211.213 243.581 211.213C242.137 211.213 240.986 210.912 240.129 210.311C239.277 209.705 238.777 208.881 238.631 207.839L241.607 207.683C241.696 208.124 241.914 208.46 242.26 208.692C242.606 208.919 243.048 209.033 243.588 209.033C244.118 209.033 244.545 208.931 244.866 208.727C245.193 208.519 245.359 208.251 245.364 207.925C245.359 207.65 245.243 207.425 245.016 207.25C244.788 207.07 244.438 206.933 243.964 206.838L242.075 206.462C241.01 206.249 240.217 205.879 239.696 205.354C239.18 204.828 238.922 204.158 238.922 203.344C238.922 202.643 239.111 202.039 239.49 201.533C239.874 201.026 240.411 200.635 241.102 200.361C241.798 200.086 242.613 199.949 243.545 199.949C244.923 199.949 246.008 200.24 246.798 200.822C247.594 201.405 248.058 202.198 248.19 203.202ZM253.709 196.455L253.432 206.639H250.833L250.549 196.455H253.709ZM252.132 211.185C251.664 211.185 251.261 211.019 250.925 210.688C250.589 210.351 250.423 209.949 250.428 209.48C250.423 209.016 250.589 208.618 250.925 208.287C251.261 207.955 251.664 207.79 252.132 207.79C252.582 207.79 252.978 207.955 253.319 208.287C253.659 208.618 253.832 209.016 253.837 209.48C253.832 209.793 253.749 210.079 253.588 210.339C253.432 210.595 253.226 210.801 252.971 210.957C252.715 211.109 252.435 211.185 252.132 211.185Z" fill="#D7FF00"/>
<path d="M32 250C32 247.791 33.7909 246 36 246H189C191.209 246 193 247.791 193 250V291C193 293.209 191.209 295 189 295H36C33.7909 295 32 293.209 32 291V250Z" fill="#D7FF00"/>
<path d="M67.664 262.392L67.28 264.96H61.28V269.28H66.512V271.824H61.28V276.408H67.712V279H57.752V262.392H67.664ZM82.6597 279H78.1237L72.8437 265.824C72.9877 266.96 73.0997 268.032 73.1797 269.04C73.2757 270.032 73.3237 271.2 73.3237 272.544V279H70.1317V262.392H74.5717L79.9477 275.592C79.6277 273.448 79.4677 271.48 79.4677 269.688V262.392H82.6597V279ZM98.3909 279H93.8549L88.5749 265.824C88.7189 266.96 88.8309 268.032 88.9109 269.04C89.0069 270.032 89.0549 271.2 89.0549 272.544V279H85.8629V262.392H90.3029L95.6789 275.592C95.3589 273.448 95.1989 271.48 95.1989 269.688V262.392H98.3909V279ZM114.002 273.528C114.002 274.664 113.762 275.672 113.282 276.552C112.802 277.432 112.082 278.128 111.122 278.64C110.178 279.136 109.026 279.384 107.666 279.384C105.618 279.384 104.05 278.856 102.962 277.8C101.89 276.728 101.354 275.304 101.354 273.528V262.392H104.882V273.36C104.882 274.48 105.106 275.32 105.554 275.88C106.002 276.424 106.706 276.696 107.666 276.696C108.626 276.696 109.33 276.424 109.778 275.88C110.242 275.32 110.474 274.48 110.474 273.36V262.392H114.002V273.528ZM121.921 262.008C123.121 262.008 124.161 262.184 125.041 262.536C125.937 262.872 126.761 263.392 127.513 264.096L125.833 266.04C125.241 265.56 124.649 265.208 124.057 264.984C123.465 264.76 122.833 264.648 122.161 264.648C121.425 264.648 120.833 264.808 120.385 265.128C119.953 265.432 119.737 265.872 119.737 266.448C119.737 266.848 119.825 267.176 120.001 267.432C120.193 267.688 120.521 267.928 120.985 268.152C121.449 268.376 122.145 268.632 123.073 268.92C124.721 269.448 125.953 270.104 126.769 270.888C127.585 271.656 127.993 272.76 127.993 274.2C127.993 275.224 127.737 276.128 127.225 276.912C126.713 277.68 125.969 278.288 124.993 278.736C124.017 279.168 122.873 279.384 121.561 279.384C120.249 279.384 119.081 279.176 118.057 278.76C117.033 278.344 116.153 277.776 115.417 277.056L117.217 275.064C117.857 275.608 118.521 276.024 119.209 276.312C119.897 276.584 120.649 276.72 121.465 276.72C122.329 276.72 123.017 276.52 123.529 276.12C124.057 275.72 124.321 275.16 124.321 274.44C124.321 273.992 124.225 273.624 124.033 273.336C123.857 273.032 123.545 272.76 123.097 272.52C122.649 272.28 122.001 272.032 121.153 271.776C119.345 271.216 118.049 270.544 117.265 269.76C116.497 268.976 116.113 267.952 116.113 266.688C116.113 265.76 116.361 264.944 116.857 264.24C117.353 263.52 118.041 262.968 118.921 262.584C119.801 262.2 120.801 262.008 121.921 262.008ZM140.627 262.392L140.243 265.152H136.043V279H132.515V265.152H128.099V262.392H140.627ZM149.72 279L148.784 275.28H143.576L142.64 279H138.968L144.08 262.392H148.376L153.464 279H149.72ZM144.248 272.664H148.112L146.168 265.008L144.248 272.664ZM167.227 279H162.691L157.411 265.824C157.555 266.96 157.667 268.032 157.747 269.04C157.843 270.032 157.891 271.2 157.891 272.544V279H154.699V262.392H159.139L164.515 275.592C164.195 273.448 164.035 271.48 164.035 269.688V262.392H167.227V279Z" fill="black"/>
</svg>
