<svg width="341" height="250" viewBox="0 0 341 250" fill="none" xmlns="http://www.w3.org/2000/svg">
<path d="M32 22C32 18.6863 34.6863 16 38 16H303C306.314 16 309 18.6863 309 22V228C309 231.314 306.314 234 303 234H38C34.6863 234 32 231.314 32 228V22Z" fill="#013216" fill-opacity="0.75"/>
<path d="M68.138 60.394C71.974 60.394 74.956 61.192 77.084 62.788C79.212 64.384 80.276 66.75 80.276 69.886C80.276 73.162 79.226 75.64 77.126 77.32C75.054 78.972 72.268 79.798 68.768 79.798H65.618V89.5H58.73V60.394H68.138ZM68.18 74.842C69.804 74.842 71.036 74.464 71.876 73.708C72.744 72.924 73.178 71.65 73.178 69.886C73.178 66.834 71.47 65.308 68.054 65.308H65.618V74.842H68.18ZM91.3266 60.394V89.5H84.4386V60.394H91.3266ZM104.156 60.394V84.04H115.496L114.782 89.5H97.2683V60.394H104.156ZM126.214 60.394V89.5H119.326V60.394H126.214ZM142.93 60.394L133.648 73.456L143.686 89.5H135.706L126.424 73.96L135.664 60.394H142.93ZM166.329 60.394C170.165 60.394 173.147 61.192 175.275 62.788C177.403 64.384 178.467 66.75 178.467 69.886C178.467 73.162 177.417 75.64 175.317 77.32C173.245 78.972 170.459 79.798 166.959 79.798H163.809V89.5H156.921V60.394H166.329ZM166.371 74.842C167.995 74.842 169.227 74.464 170.067 73.708C170.935 72.924 171.369 71.65 171.369 69.886C171.369 66.834 169.661 65.308 166.245 65.308H163.809V74.842H166.371ZM200.48 60.394L199.766 65.308H189.518V72.28H198.464V77.11H189.518V84.544H200.48V89.5H182.63V60.394H200.48ZM220.592 89.5L219.08 83.242H210.596L209.126 89.5H201.986L210.764 60.394H219.122L227.9 89.5H220.592ZM211.772 78.244H217.904L214.838 65.392L211.772 78.244ZM237.449 60.394V84.04H248.789L248.075 89.5H230.561V60.394H237.449ZM270.469 60.394L269.755 65.308H259.507V72.28H268.453V77.11H259.507V84.544H270.469V89.5H252.619V60.394H270.469ZM281.089 60.394L280.249 78.79H274.873L274.033 60.394H281.089ZM277.561 82.612C278.625 82.612 279.521 82.99 280.249 83.746C281.005 84.474 281.383 85.356 281.383 86.392C281.383 87.456 281.005 88.366 280.249 89.122C279.521 89.85 278.625 90.214 277.561 90.214C276.525 90.214 275.629 89.85 274.873 89.122C274.145 88.366 273.781 87.456 273.781 86.392C273.781 85.356 274.145 84.474 274.873 83.746C275.629 82.99 276.525 82.612 277.561 82.612Z" fill="#C5F000"/>
<path d="M68.8097 111.955C68.8097 113.352 68.554 114.554 68.0426 115.56C67.5313 116.561 66.8303 117.332 65.9396 117.874C65.0533 118.411 64.0455 118.679 62.9162 118.679C61.7827 118.679 60.7706 118.411 59.88 117.874C58.9936 117.332 58.2947 116.559 57.7834 115.553C57.272 114.548 57.0163 113.348 57.0163 111.955C57.0163 110.557 57.272 109.357 57.7834 108.356C58.2947 107.35 58.9936 106.579 59.88 106.042C60.7706 105.501 61.7827 105.23 62.9162 105.23C64.0455 105.23 65.0533 105.501 65.9396 106.042C66.8303 106.579 67.5313 107.35 68.0426 108.356C68.554 109.357 68.8097 110.557 68.8097 111.955ZM66.8537 111.955C66.8537 110.889 66.6811 109.992 66.3359 109.263C65.995 108.531 65.5263 107.977 64.9297 107.602C64.3374 107.222 63.6662 107.033 62.9162 107.033C62.1619 107.033 61.4886 107.222 60.8963 107.602C60.304 107.977 59.8352 108.531 59.4901 109.263C59.1491 109.992 58.9787 110.889 58.9787 111.955C58.9787 113.02 59.1491 113.919 59.4901 114.652C59.8352 115.381 60.304 115.935 60.8963 116.314C61.4886 116.689 62.1619 116.876 62.9162 116.876C63.6662 116.876 64.3374 116.689 64.9297 116.314C65.5263 115.935 65.995 115.381 66.3359 114.652C66.6811 113.919 66.8537 113.02 66.8537 111.955ZM60.9922 104.112L59.701 104.067C59.701 103.364 59.8928 102.801 60.2763 102.379C60.6598 101.957 61.1307 101.744 61.6889 101.74C61.9531 101.74 62.1832 101.785 62.3793 101.874C62.5753 101.96 62.7585 102.06 62.929 102.175C63.0994 102.29 63.272 102.392 63.4467 102.482C63.6214 102.567 63.8153 102.609 64.0284 102.609C64.2713 102.605 64.4695 102.511 64.6229 102.328C64.7805 102.141 64.8594 101.908 64.8594 101.631L66.125 101.714C66.1207 102.426 65.9268 102.987 65.5433 103.396C65.1641 103.8 64.6953 104.003 64.1371 104.003C63.8345 104.003 63.5831 103.96 63.3828 103.875C63.1825 103.786 63.0057 103.685 62.8523 103.575C62.6989 103.46 62.5412 103.359 62.3793 103.274C62.2173 103.185 62.0234 103.14 61.7976 103.14C61.5632 103.14 61.3693 103.232 61.2159 103.415C61.0668 103.598 60.9922 103.83 60.9922 104.112ZM72.805 112.67V118.5H70.8938V105.409H72.7794V110.28H72.9009C73.131 109.751 73.4826 109.332 73.9556 109.021C74.4286 108.71 75.0465 108.554 75.8093 108.554C76.4826 108.554 77.0706 108.692 77.5735 108.969C78.0806 109.246 78.4726 109.66 78.7496 110.21C79.0309 110.755 79.1715 111.437 79.1715 112.255V118.5H77.2603V112.485C77.2603 111.765 77.0749 111.207 76.7042 110.81C76.3334 110.41 75.8178 110.21 75.1573 110.21C74.7056 110.21 74.3007 110.305 73.9428 110.497C73.5891 110.689 73.31 110.97 73.1054 111.341C72.9051 111.707 72.805 112.151 72.805 112.67ZM86.08 108.682V110.216H80.7171V108.682H86.08ZM82.1553 106.33H84.0665V115.617C84.0665 115.988 84.1219 116.267 84.2327 116.455C84.3435 116.638 84.4863 116.763 84.661 116.832C84.8399 116.896 85.0338 116.928 85.2426 116.928C85.3961 116.928 85.5303 116.917 85.6453 116.896C85.7604 116.874 85.8499 116.857 85.9138 116.844L86.259 118.423C86.1482 118.466 85.9905 118.509 85.786 118.551C85.5814 118.598 85.3257 118.624 85.0189 118.628C84.5161 118.636 84.0473 118.547 83.6127 118.359C83.178 118.172 82.8265 117.882 82.558 117.49C82.2895 117.098 82.1553 116.606 82.1553 116.013V106.33ZM94.1886 114.428V108.682H96.1063V118.5H94.227V116.8H94.1247C93.8989 117.324 93.5366 117.761 93.0381 118.11C92.5438 118.455 91.928 118.628 91.1908 118.628C90.5601 118.628 90.0018 118.489 89.5161 118.212C89.0345 117.931 88.6553 117.516 88.3783 116.966C88.1055 116.416 87.9692 115.737 87.9692 114.927V108.682H89.8804V114.697C89.8804 115.366 90.0658 115.898 90.4365 116.295C90.8072 116.691 91.2888 116.889 91.8811 116.889C92.2391 116.889 92.5949 116.8 92.9486 116.621C93.3065 116.442 93.6027 116.171 93.8371 115.809C94.0757 115.447 94.1929 114.987 94.1886 114.428ZM100.36 105.409V118.5H98.4493V105.409H100.36ZM106.938 118.698C105.971 118.698 105.138 118.491 104.439 118.078C103.744 117.661 103.207 117.075 102.828 116.32C102.453 115.562 102.266 114.673 102.266 113.655C102.266 112.649 102.453 111.763 102.828 110.996C103.207 110.229 103.736 109.63 104.413 109.2C105.095 108.769 105.892 108.554 106.804 108.554C107.358 108.554 107.895 108.646 108.415 108.829C108.935 109.012 109.401 109.3 109.815 109.692C110.228 110.084 110.554 110.593 110.793 111.219C111.031 111.842 111.151 112.598 111.151 113.489V114.166H103.346V112.734H109.278C109.278 112.232 109.175 111.786 108.971 111.398C108.766 111.006 108.479 110.697 108.108 110.472C107.741 110.246 107.311 110.133 106.817 110.133C106.28 110.133 105.811 110.265 105.411 110.529C105.014 110.789 104.707 111.13 104.49 111.552C104.277 111.969 104.17 112.423 104.17 112.913V114.032C104.17 114.688 104.286 115.246 104.516 115.707C104.75 116.167 105.076 116.518 105.494 116.761C105.911 117 106.399 117.119 106.957 117.119C107.32 117.119 107.65 117.068 107.948 116.966C108.246 116.859 108.504 116.702 108.722 116.493C108.939 116.284 109.105 116.026 109.22 115.719L111.029 116.045C110.884 116.578 110.624 117.045 110.249 117.445C109.879 117.842 109.412 118.151 108.849 118.372C108.291 118.589 107.654 118.698 106.938 118.698ZM114.957 112.67V118.5H113.046V105.409H114.932V110.28H115.053C115.283 109.751 115.635 109.332 116.108 109.021C116.581 108.71 117.199 108.554 117.962 108.554C118.635 108.554 119.223 108.692 119.726 108.969C120.233 109.246 120.625 109.66 120.902 110.21C121.183 110.755 121.324 111.437 121.324 112.255V118.5H119.413V112.485C119.413 111.765 119.227 111.207 118.857 110.81C118.486 110.41 117.97 110.21 117.31 110.21C116.858 110.21 116.453 110.305 116.095 110.497C115.741 110.689 115.462 110.97 115.258 111.341C115.057 111.707 114.957 112.151 114.957 112.67ZM128.232 108.682V110.216H122.869V108.682H128.232ZM124.308 106.33H126.219V115.617C126.219 115.988 126.274 116.267 126.385 116.455C126.496 116.638 126.639 116.763 126.813 116.832C126.992 116.896 127.186 116.928 127.395 116.928C127.548 116.928 127.683 116.917 127.798 116.896C127.913 116.874 128.002 116.857 128.066 116.844L128.411 118.423C128.301 118.466 128.143 118.509 127.938 118.551C127.734 118.598 127.478 118.624 127.171 118.628C126.668 118.636 126.2 118.547 125.765 118.359C125.33 118.172 124.979 117.882 124.71 117.49C124.442 117.098 124.308 116.606 124.308 116.013V106.33ZM143.059 108.682L139.499 118.5H137.454L133.887 108.682H135.939L138.425 116.237H138.527L141.007 108.682H143.059ZM147.206 118.717C146.584 118.717 146.022 118.602 145.519 118.372C145.016 118.138 144.618 117.799 144.324 117.356C144.034 116.913 143.889 116.369 143.889 115.726C143.889 115.172 143.996 114.716 144.209 114.358C144.422 114 144.709 113.717 145.072 113.508C145.434 113.299 145.839 113.141 146.286 113.035C146.733 112.928 147.189 112.847 147.654 112.792C148.242 112.724 148.719 112.668 149.086 112.626C149.452 112.579 149.719 112.504 149.885 112.402C150.051 112.3 150.134 112.134 150.134 111.903V111.859C150.134 111.3 149.976 110.868 149.661 110.561C149.35 110.254 148.885 110.101 148.268 110.101C147.624 110.101 147.117 110.244 146.746 110.529C146.38 110.81 146.126 111.124 145.986 111.469L144.189 111.06C144.403 110.463 144.714 109.982 145.123 109.615C145.536 109.244 146.011 108.976 146.548 108.81C147.085 108.639 147.65 108.554 148.242 108.554C148.634 108.554 149.05 108.601 149.488 108.695C149.932 108.784 150.345 108.95 150.729 109.193C151.116 109.436 151.434 109.783 151.681 110.235C151.928 110.683 152.052 111.264 152.052 111.98V118.5H150.185V117.158H150.108C149.985 117.405 149.8 117.648 149.552 117.886C149.305 118.125 148.988 118.323 148.6 118.481C148.212 118.638 147.748 118.717 147.206 118.717ZM147.622 117.183C148.15 117.183 148.602 117.079 148.977 116.87C149.356 116.661 149.644 116.388 149.84 116.052C150.04 115.711 150.14 115.347 150.14 114.959V113.693C150.072 113.761 149.94 113.825 149.744 113.885C149.552 113.94 149.333 113.989 149.086 114.032C148.839 114.07 148.598 114.107 148.363 114.141C148.129 114.17 147.933 114.196 147.775 114.217C147.405 114.264 147.066 114.343 146.759 114.454C146.456 114.565 146.214 114.724 146.03 114.933C145.851 115.138 145.762 115.411 145.762 115.751C145.762 116.224 145.937 116.582 146.286 116.825C146.635 117.064 147.081 117.183 147.622 117.183ZM156.284 112.67V118.5H154.372V105.409H156.258V110.28H156.379C156.61 109.751 156.961 109.332 157.434 109.021C157.907 108.71 158.525 108.554 159.288 108.554C159.961 108.554 160.549 108.692 161.052 108.969C161.559 109.246 161.951 109.66 162.228 110.21C162.509 110.755 162.65 111.437 162.65 112.255V118.5H160.739V112.485C160.739 111.765 160.553 111.207 160.183 110.81C159.812 110.41 159.296 110.21 158.636 110.21C158.184 110.21 157.779 110.305 157.421 110.497C157.068 110.689 156.788 110.97 156.584 111.341C156.384 111.707 156.284 112.151 156.284 112.67ZM169.207 118.698C168.24 118.698 167.407 118.491 166.708 118.078C166.013 117.661 165.476 117.075 165.097 116.32C164.722 115.562 164.534 114.673 164.534 113.655C164.534 112.649 164.722 111.763 165.097 110.996C165.476 110.229 166.005 109.63 166.682 109.2C167.364 108.769 168.161 108.554 169.073 108.554C169.627 108.554 170.164 108.646 170.684 108.829C171.203 109.012 171.67 109.3 172.083 109.692C172.497 110.084 172.823 110.593 173.061 111.219C173.3 111.842 173.419 112.598 173.419 113.489V114.166H165.615V112.734H171.546C171.546 112.232 171.444 111.786 171.24 111.398C171.035 111.006 170.747 110.697 170.377 110.472C170.01 110.246 169.58 110.133 169.086 110.133C168.549 110.133 168.08 110.265 167.679 110.529C167.283 110.789 166.976 111.13 166.759 111.552C166.546 111.969 166.439 112.423 166.439 112.913V114.032C166.439 114.688 166.554 115.246 166.784 115.707C167.019 116.167 167.345 116.518 167.762 116.761C168.18 117 168.668 117.119 169.226 117.119C169.588 117.119 169.919 117.068 170.217 116.966C170.515 116.859 170.773 116.702 170.99 116.493C171.208 116.284 171.374 116.026 171.489 115.719L173.298 116.045C173.153 116.578 172.893 117.045 172.518 117.445C172.147 117.842 171.681 118.151 171.118 118.372C170.56 118.589 169.923 118.698 169.207 118.698ZM177.226 112.67V118.5H175.315V108.682H177.149V110.28H177.271C177.497 109.76 177.85 109.342 178.332 109.027C178.818 108.712 179.429 108.554 180.166 108.554C180.835 108.554 181.421 108.695 181.924 108.976C182.427 109.253 182.817 109.666 183.094 110.216C183.371 110.766 183.509 111.445 183.509 112.255V118.5H181.598V112.485C181.598 111.773 181.413 111.217 181.042 110.817C180.671 110.412 180.162 110.21 179.514 110.21C179.071 110.21 178.677 110.305 178.332 110.497C177.991 110.689 177.72 110.97 177.52 111.341C177.324 111.707 177.226 112.151 177.226 112.67ZM189.523 118.692C188.731 118.692 188.023 118.489 187.401 118.085C186.783 117.675 186.297 117.094 185.944 116.339C185.594 115.581 185.419 114.671 185.419 113.61C185.419 112.549 185.596 111.641 185.95 110.887C186.308 110.133 186.798 109.555 187.42 109.155C188.042 108.754 188.748 108.554 189.536 108.554C190.145 108.554 190.635 108.656 191.006 108.861C191.381 109.061 191.671 109.295 191.875 109.564C192.084 109.832 192.246 110.069 192.361 110.273H192.476V105.409H194.387V118.5H192.521V116.972H192.361C192.246 117.181 192.08 117.42 191.863 117.688C191.65 117.957 191.356 118.191 190.981 118.391C190.606 118.592 190.12 118.692 189.523 118.692ZM189.945 117.062C190.495 117.062 190.959 116.917 191.338 116.627C191.722 116.333 192.012 115.926 192.208 115.406C192.408 114.886 192.508 114.281 192.508 113.591C192.508 112.909 192.41 112.312 192.214 111.801C192.018 111.29 191.731 110.891 191.351 110.606C190.972 110.32 190.503 110.178 189.945 110.178C189.37 110.178 188.89 110.327 188.507 110.625C188.123 110.923 187.833 111.33 187.637 111.846C187.446 112.362 187.35 112.943 187.35 113.591C187.35 114.247 187.448 114.837 187.644 115.362C187.84 115.886 188.13 116.301 188.513 116.608C188.901 116.911 189.378 117.062 189.945 117.062ZM199.748 118.717C199.125 118.717 198.563 118.602 198.06 118.372C197.557 118.138 197.159 117.799 196.865 117.356C196.575 116.913 196.43 116.369 196.43 115.726C196.43 115.172 196.537 114.716 196.75 114.358C196.963 114 197.25 113.717 197.613 113.508C197.975 113.299 198.38 113.141 198.827 113.035C199.275 112.928 199.73 112.847 200.195 112.792C200.783 112.724 201.26 112.668 201.627 112.626C201.993 112.579 202.26 112.504 202.426 112.402C202.592 112.3 202.675 112.134 202.675 111.903V111.859C202.675 111.3 202.517 110.868 202.202 110.561C201.891 110.254 201.426 110.101 200.809 110.101C200.165 110.101 199.658 110.244 199.287 110.529C198.921 110.81 198.667 111.124 198.527 111.469L196.73 111.06C196.944 110.463 197.255 109.982 197.664 109.615C198.077 109.244 198.552 108.976 199.089 108.81C199.626 108.639 200.191 108.554 200.783 108.554C201.175 108.554 201.591 108.601 202.029 108.695C202.473 108.784 202.886 108.95 203.27 109.193C203.657 109.436 203.975 109.783 204.222 110.235C204.469 110.683 204.593 111.264 204.593 111.98V118.5H202.726V117.158H202.65C202.526 117.405 202.341 117.648 202.093 117.886C201.846 118.125 201.529 118.323 201.141 118.481C200.753 118.638 200.289 118.717 199.748 118.717ZM200.163 117.183C200.691 117.183 201.143 117.079 201.518 116.87C201.897 116.661 202.185 116.388 202.381 116.052C202.581 115.711 202.681 115.347 202.681 114.959V113.693C202.613 113.761 202.481 113.825 202.285 113.885C202.093 113.94 201.874 113.989 201.627 114.032C201.38 114.07 201.139 114.107 200.904 114.141C200.67 114.17 200.474 114.196 200.316 114.217C199.946 114.264 199.607 114.343 199.3 114.454C198.998 114.565 198.755 114.724 198.571 114.933C198.392 115.138 198.303 115.411 198.303 115.751C198.303 116.224 198.478 116.582 198.827 116.825C199.176 117.064 199.622 117.183 200.163 117.183ZM207.067 118.5V105.409H208.978V110.273H209.093C209.204 110.069 209.364 109.832 209.572 109.564C209.781 109.295 210.071 109.061 210.442 108.861C210.812 108.656 211.303 108.554 211.912 108.554C212.705 108.554 213.412 108.754 214.034 109.155C214.656 109.555 215.144 110.133 215.498 110.887C215.856 111.641 216.035 112.549 216.035 113.61C216.035 114.671 215.858 115.581 215.504 116.339C215.151 117.094 214.665 117.675 214.047 118.085C213.429 118.489 212.724 118.692 211.931 118.692C211.334 118.692 210.847 118.592 210.467 118.391C210.092 118.191 209.798 117.957 209.585 117.688C209.372 117.42 209.208 117.181 209.093 116.972H208.933V118.5H207.067ZM208.94 113.591C208.94 114.281 209.04 114.886 209.24 115.406C209.44 115.926 209.73 116.333 210.109 116.627C210.489 116.917 210.953 117.062 211.503 117.062C212.074 117.062 212.551 116.911 212.935 116.608C213.318 116.301 213.608 115.886 213.804 115.362C214.004 114.837 214.104 114.247 214.104 113.591C214.104 112.943 214.006 112.362 213.81 111.846C213.619 111.33 213.329 110.923 212.941 110.625C212.557 110.327 212.078 110.178 211.503 110.178C210.949 110.178 210.48 110.32 210.097 110.606C209.717 110.891 209.43 111.29 209.234 111.801C209.038 112.312 208.94 112.909 208.94 113.591ZM222.495 108.682H224.406V119.139C224.406 119.795 224.286 120.349 224.048 120.801C223.813 121.253 223.464 121.596 223 121.83C222.539 122.065 221.97 122.182 221.293 122.182C221.225 122.182 221.161 122.182 221.101 122.182C221.037 122.182 220.971 122.18 220.903 122.175V120.533C220.963 120.533 221.016 120.533 221.063 120.533C221.105 120.533 221.154 120.533 221.21 120.533C221.661 120.533 221.987 120.411 222.188 120.168C222.392 119.93 222.495 119.582 222.495 119.126V108.682ZM223.441 107.167C223.108 107.167 222.823 107.056 222.584 106.835C222.35 106.609 222.232 106.34 222.232 106.029C222.232 105.714 222.35 105.445 222.584 105.224C222.823 104.998 223.108 104.885 223.441 104.885C223.773 104.885 224.056 104.998 224.291 105.224C224.529 105.445 224.649 105.714 224.649 106.029C224.649 106.34 224.529 106.609 224.291 106.835C224.056 107.056 223.773 107.167 223.441 107.167ZM229.609 118.717C228.987 118.717 228.425 118.602 227.922 118.372C227.419 118.138 227.02 117.799 226.726 117.356C226.437 116.913 226.292 116.369 226.292 115.726C226.292 115.172 226.398 114.716 226.611 114.358C226.824 114 227.112 113.717 227.474 113.508C227.837 113.299 228.241 113.141 228.689 113.035C229.136 112.928 229.592 112.847 230.057 112.792C230.645 112.724 231.122 112.668 231.489 112.626C231.855 112.579 232.121 112.504 232.288 112.402C232.454 112.3 232.537 112.134 232.537 111.903V111.859C232.537 111.3 232.379 110.868 232.064 110.561C231.753 110.254 231.288 110.101 230.67 110.101C230.027 110.101 229.52 110.244 229.149 110.529C228.783 110.81 228.529 111.124 228.388 111.469L226.592 111.06C226.805 110.463 227.116 109.982 227.525 109.615C227.939 109.244 228.414 108.976 228.951 108.81C229.488 108.639 230.052 108.554 230.645 108.554C231.037 108.554 231.452 108.601 231.891 108.695C232.334 108.784 232.748 108.95 233.131 109.193C233.519 109.436 233.837 109.783 234.084 110.235C234.331 110.683 234.454 111.264 234.454 111.98V118.5H232.588V117.158H232.511C232.388 117.405 232.202 117.648 231.955 117.886C231.708 118.125 231.39 118.323 231.003 118.481C230.615 118.638 230.15 118.717 229.609 118.717ZM230.025 117.183C230.553 117.183 231.005 117.079 231.38 116.87C231.759 116.661 232.047 116.388 232.243 116.052C232.443 115.711 232.543 115.347 232.543 114.959V113.693C232.475 113.761 232.343 113.825 232.147 113.885C231.955 113.94 231.736 113.989 231.489 114.032C231.241 114.07 231.001 114.107 230.766 114.141C230.532 114.17 230.336 114.196 230.178 114.217C229.807 114.264 229.469 114.343 229.162 114.454C228.859 114.565 228.616 114.724 228.433 114.933C228.254 115.138 228.165 115.411 228.165 115.751C228.165 116.224 228.339 116.582 228.689 116.825C229.038 117.064 229.484 117.183 230.025 117.183ZM238.686 105.409V118.5H236.775V105.409H238.686ZM245.149 122.386C244.369 122.386 243.698 122.284 243.135 122.08C242.577 121.875 242.121 121.604 241.768 121.268C241.414 120.931 241.15 120.563 240.975 120.162L242.618 119.484C242.733 119.672 242.886 119.87 243.078 120.079C243.274 120.292 243.538 120.473 243.871 120.622C244.207 120.771 244.64 120.846 245.168 120.846C245.893 120.846 246.491 120.669 246.964 120.315C247.437 119.966 247.674 119.408 247.674 118.641V116.71H247.552C247.437 116.919 247.271 117.151 247.054 117.407C246.841 117.663 246.547 117.884 246.172 118.072C245.797 118.259 245.309 118.353 244.708 118.353C243.932 118.353 243.233 118.172 242.611 117.81C241.993 117.443 241.503 116.904 241.141 116.192C240.783 115.477 240.604 114.597 240.604 113.553C240.604 112.509 240.781 111.614 241.135 110.868C241.493 110.122 241.983 109.551 242.605 109.155C243.227 108.754 243.932 108.554 244.721 108.554C245.33 108.554 245.822 108.656 246.197 108.861C246.572 109.061 246.864 109.295 247.073 109.564C247.286 109.832 247.45 110.069 247.565 110.273H247.706V108.682H249.579V118.717C249.579 119.561 249.383 120.254 248.991 120.795C248.599 121.336 248.068 121.737 247.399 121.996C246.734 122.256 245.984 122.386 245.149 122.386ZM245.13 116.768C245.679 116.768 246.144 116.64 246.523 116.384C246.907 116.124 247.197 115.754 247.393 115.272C247.593 114.786 247.693 114.205 247.693 113.527C247.693 112.866 247.595 112.285 247.399 111.782C247.203 111.279 246.915 110.887 246.536 110.606C246.157 110.32 245.688 110.178 245.13 110.178C244.554 110.178 244.075 110.327 243.692 110.625C243.308 110.919 243.018 111.32 242.822 111.827C242.63 112.334 242.535 112.901 242.535 113.527C242.535 114.17 242.633 114.735 242.829 115.221C243.025 115.707 243.314 116.086 243.698 116.359C244.086 116.631 244.563 116.768 245.13 116.768ZM251.917 122.182V108.682H253.783V110.273H253.943C254.054 110.069 254.214 109.832 254.423 109.564C254.631 109.295 254.921 109.061 255.292 108.861C255.663 108.656 256.153 108.554 256.762 108.554C257.555 108.554 258.262 108.754 258.884 109.155C259.506 109.555 259.994 110.133 260.348 110.887C260.706 111.641 260.885 112.549 260.885 113.61C260.885 114.671 260.708 115.581 260.354 116.339C260.001 117.094 259.515 117.675 258.897 118.085C258.279 118.489 257.574 118.692 256.781 118.692C256.185 118.692 255.697 118.592 255.317 118.391C254.942 118.191 254.648 117.957 254.435 117.688C254.222 117.42 254.058 117.181 253.943 116.972H253.828V122.182H251.917ZM253.79 113.591C253.79 114.281 253.89 114.886 254.09 115.406C254.29 115.926 254.58 116.333 254.959 116.627C255.339 116.917 255.803 117.062 256.353 117.062C256.924 117.062 257.401 116.911 257.785 116.608C258.168 116.301 258.458 115.886 258.654 115.362C258.854 114.837 258.954 114.247 258.954 113.591C258.954 112.943 258.856 112.362 258.66 111.846C258.469 111.33 258.179 110.923 257.791 110.625C257.408 110.327 256.928 110.178 256.353 110.178C255.799 110.178 255.33 110.32 254.947 110.606C254.567 110.891 254.28 111.29 254.084 111.801C253.888 112.312 253.79 112.909 253.79 113.591ZM265.658 118.717C265.036 118.717 264.474 118.602 263.971 118.372C263.468 118.138 263.07 117.799 262.776 117.356C262.486 116.913 262.341 116.369 262.341 115.726C262.341 115.172 262.448 114.716 262.661 114.358C262.874 114 263.161 113.717 263.524 113.508C263.886 113.299 264.291 113.141 264.738 113.035C265.185 112.928 265.641 112.847 266.106 112.792C266.694 112.724 267.171 112.668 267.538 112.626C267.904 112.579 268.171 112.504 268.337 112.402C268.503 112.3 268.586 112.134 268.586 111.903V111.859C268.586 111.3 268.428 110.868 268.113 110.561C267.802 110.254 267.337 110.101 266.72 110.101C266.076 110.101 265.569 110.244 265.198 110.529C264.832 110.81 264.578 111.124 264.438 111.469L262.641 111.06C262.854 110.463 263.166 109.982 263.575 109.615C263.988 109.244 264.463 108.976 265 108.81C265.537 108.639 266.102 108.554 266.694 108.554C267.086 108.554 267.501 108.601 267.94 108.695C268.384 108.784 268.797 108.95 269.18 109.193C269.568 109.436 269.886 109.783 270.133 110.235C270.38 110.683 270.504 111.264 270.504 111.98V118.5H268.637V117.158H268.56C268.437 117.405 268.251 117.648 268.004 117.886C267.757 118.125 267.44 118.323 267.052 118.481C266.664 118.638 266.2 118.717 265.658 118.717ZM266.074 117.183C266.602 117.183 267.054 117.079 267.429 116.87C267.808 116.661 268.096 116.388 268.292 116.052C268.492 115.711 268.592 115.347 268.592 114.959V113.693C268.524 113.761 268.392 113.825 268.196 113.885C268.004 113.94 267.785 113.989 267.538 114.032C267.291 114.07 267.05 114.107 266.815 114.141C266.581 114.17 266.385 114.196 266.227 114.217C265.857 114.264 265.518 114.343 265.211 114.454C264.908 114.565 264.666 114.724 264.482 114.933C264.303 115.138 264.214 115.411 264.214 115.751C264.214 116.224 264.389 116.582 264.738 116.825C265.087 117.064 265.533 117.183 266.074 117.183ZM274.735 105.409V118.5H272.824V105.409H274.735ZM278.993 105.409V118.5H277.082V105.409H278.993ZM281.339 118.5V108.682H283.25V118.5H281.339ZM282.304 107.167C281.972 107.167 281.686 107.056 281.448 106.835C281.213 106.609 281.096 106.34 281.096 106.029C281.096 105.714 281.213 105.445 281.448 105.224C281.686 104.998 281.972 104.885 282.304 104.885C282.637 104.885 282.92 104.998 283.154 105.224C283.393 105.445 283.512 105.714 283.512 106.029C283.512 106.34 283.393 106.609 283.154 106.835C282.92 107.056 282.637 107.167 282.304 107.167ZM57.4382 128.409H59.8352L64.0028 138.585H64.1562L68.3239 128.409H70.7209V141.5H68.8416V132.027H68.7202L64.8594 141.481H63.2997L59.4389 132.021H59.3175V141.5H57.4382V128.409ZM73.3675 128.409H75.7645L79.9321 138.585H80.0855L84.2532 128.409H86.6502V141.5H84.7709V132.027H84.6495L80.7887 141.481H79.229L75.3682 132.021H75.2468V141.5H73.3675V128.409ZM89.1434 141.5V131.682H91.0546V141.5H89.1434ZM90.1086 130.167C89.7762 130.167 89.4907 130.056 89.2521 129.835C89.0177 129.609 88.9005 129.34 88.9005 129.029C88.9005 128.714 89.0177 128.445 89.2521 128.224C89.4907 127.998 89.7762 127.885 90.1086 127.885C90.441 127.885 90.7244 127.998 90.9587 128.224C91.1974 128.445 91.3167 128.714 91.3167 129.029C91.3167 129.34 91.1974 129.609 90.9587 129.835C90.7244 130.056 90.441 130.167 90.1086 130.167ZM95.312 128.409V141.5H93.4008V128.409H95.312ZM102.241 131.682V133.216H96.8784V131.682H102.241ZM98.3166 129.33H100.228V138.617C100.228 138.988 100.283 139.267 100.394 139.455C100.505 139.638 100.648 139.763 100.822 139.832C101.001 139.896 101.195 139.928 101.404 139.928C101.557 139.928 101.692 139.917 101.807 139.896C101.922 139.874 102.011 139.857 102.075 139.844L102.42 141.423C102.31 141.466 102.152 141.509 101.947 141.551C101.743 141.598 101.487 141.624 101.18 141.628C100.677 141.636 100.209 141.547 99.774 141.359C99.3393 141.172 98.9878 140.882 98.7193 140.49C98.4509 140.098 98.3166 139.606 98.3166 139.013V129.33ZM110.427 138.17L110.414 135.837H110.747L114.659 131.682H116.947L112.485 136.412H112.185L110.427 138.17ZM108.669 141.5V128.409H110.58V141.5H108.669ZM114.869 141.5L111.354 136.834L112.671 135.498L117.215 141.5H114.869ZM122.195 141.698C121.275 141.698 120.471 141.487 119.785 141.065C119.099 140.643 118.567 140.053 118.187 139.295C117.808 138.536 117.618 137.65 117.618 136.636C117.618 135.617 117.808 134.727 118.187 133.964C118.567 133.201 119.099 132.609 119.785 132.187C120.471 131.765 121.275 131.554 122.195 131.554C123.116 131.554 123.919 131.765 124.605 132.187C125.291 132.609 125.824 133.201 126.203 133.964C126.582 134.727 126.772 135.617 126.772 136.636C126.772 137.65 126.582 138.536 126.203 139.295C125.824 140.053 125.291 140.643 124.605 141.065C123.919 141.487 123.116 141.698 122.195 141.698ZM122.201 140.094C122.798 140.094 123.292 139.936 123.684 139.621C124.076 139.305 124.366 138.886 124.554 138.362C124.745 137.837 124.841 137.26 124.841 136.629C124.841 136.003 124.745 135.428 124.554 134.903C124.366 134.375 124.076 133.951 123.684 133.631C123.292 133.312 122.798 133.152 122.201 133.152C121.601 133.152 121.102 133.312 120.706 133.631C120.314 133.951 120.022 134.375 119.83 134.903C119.643 135.428 119.549 136.003 119.549 136.629C119.549 137.26 119.643 137.837 119.83 138.362C120.022 138.886 120.314 139.305 120.706 139.621C121.102 139.936 121.601 140.094 122.201 140.094ZM120.271 130.493L118.986 130.455C118.986 129.747 119.176 129.183 119.555 128.761C119.939 128.339 120.412 128.128 120.974 128.128C121.234 128.128 121.462 128.173 121.658 128.262C121.854 128.347 122.037 128.447 122.208 128.562C122.383 128.673 122.555 128.773 122.726 128.863C122.9 128.948 123.094 128.991 123.307 128.991C123.554 128.991 123.755 128.897 123.908 128.71C124.066 128.522 124.145 128.29 124.145 128.013L125.404 128.096C125.404 128.808 125.212 129.368 124.829 129.777C124.445 130.182 123.974 130.386 123.416 130.391C123.113 130.391 122.862 130.348 122.662 130.263C122.466 130.173 122.291 130.073 122.138 129.962C121.984 129.847 121.826 129.745 121.665 129.656C121.503 129.566 121.309 129.521 121.083 129.521C120.844 129.521 120.648 129.615 120.495 129.803C120.346 129.986 120.271 130.216 120.271 130.493ZM128.68 141.5V131.682H130.591V141.5H128.68ZM129.645 130.167C129.313 130.167 129.027 130.056 128.789 129.835C128.554 129.609 128.437 129.34 128.437 129.029C128.437 128.714 128.554 128.445 128.789 128.224C129.027 127.998 129.313 127.885 129.645 127.885C129.978 127.885 130.261 127.998 130.495 128.224C130.734 128.445 130.853 128.714 130.853 129.029C130.853 129.34 130.734 129.609 130.495 129.835C130.261 130.056 129.978 130.167 129.645 130.167ZM134.695 138.17L134.683 135.837H135.015L138.927 131.682H141.215L136.754 136.412H136.453L134.695 138.17ZM132.938 141.5V128.409H134.849V141.5H132.938ZM139.138 141.5L135.622 136.834L136.939 135.498L141.484 141.5H139.138ZM146.559 141.698C145.592 141.698 144.759 141.491 144.06 141.078C143.365 140.661 142.828 140.075 142.449 139.32C142.074 138.562 141.887 137.673 141.887 136.655C141.887 135.649 142.074 134.763 142.449 133.996C142.828 133.229 143.357 132.63 144.034 132.2C144.716 131.769 145.513 131.554 146.425 131.554C146.979 131.554 147.516 131.646 148.036 131.829C148.556 132.012 149.022 132.3 149.436 132.692C149.849 133.084 150.175 133.593 150.414 134.219C150.652 134.842 150.772 135.598 150.772 136.489V137.166H142.967V135.734H148.899C148.899 135.232 148.797 134.786 148.592 134.398C148.387 134.006 148.1 133.697 147.729 133.472C147.363 133.246 146.932 133.133 146.438 133.133C145.901 133.133 145.432 133.265 145.032 133.529C144.635 133.789 144.328 134.13 144.111 134.552C143.898 134.969 143.792 135.423 143.792 135.913V137.032C143.792 137.688 143.907 138.246 144.137 138.707C144.371 139.167 144.697 139.518 145.115 139.761C145.532 140 146.02 140.119 146.578 140.119C146.941 140.119 147.271 140.068 147.569 139.966C147.868 139.859 148.125 139.702 148.343 139.493C148.56 139.284 148.726 139.026 148.841 138.719L150.65 139.045C150.505 139.578 150.245 140.045 149.87 140.445C149.5 140.842 149.033 141.151 148.471 141.372C147.912 141.589 147.275 141.698 146.559 141.698ZM155.154 139.71L155.058 140.407C154.994 140.918 154.885 141.451 154.732 142.005C154.583 142.563 154.427 143.081 154.265 143.558C154.108 144.036 153.978 144.415 153.875 144.696H152.52C152.576 144.432 152.652 144.074 152.75 143.622C152.848 143.175 152.944 142.674 153.038 142.12C153.132 141.566 153.202 141.001 153.249 140.426L153.313 139.71H155.154ZM161.956 141.5V131.682H163.79V133.28H163.911C164.116 132.739 164.451 132.317 164.915 132.014C165.38 131.707 165.936 131.554 166.583 131.554C167.24 131.554 167.789 131.707 168.232 132.014C168.68 132.321 169.01 132.743 169.223 133.28H169.326C169.56 132.756 169.933 132.338 170.444 132.027C170.956 131.712 171.565 131.554 172.272 131.554C173.163 131.554 173.889 131.833 174.452 132.391C175.019 132.95 175.302 133.791 175.302 134.916V141.5H173.391V135.095C173.391 134.43 173.21 133.949 172.848 133.651C172.485 133.352 172.053 133.203 171.55 133.203C170.928 133.203 170.444 133.395 170.099 133.778C169.754 134.158 169.581 134.646 169.581 135.242V141.5H167.676V134.974C167.676 134.441 167.51 134.013 167.178 133.689C166.845 133.365 166.413 133.203 165.88 133.203C165.518 133.203 165.183 133.299 164.877 133.491C164.574 133.678 164.329 133.94 164.142 134.277C163.958 134.614 163.867 135.004 163.867 135.447V141.5H161.956ZM177.639 141.5V131.682H179.55V141.5H177.639ZM178.604 130.167C178.272 130.167 177.986 130.056 177.747 129.835C177.513 129.609 177.396 129.34 177.396 129.029C177.396 128.714 177.513 128.445 177.747 128.224C177.986 127.998 178.272 127.885 178.604 127.885C178.936 127.885 179.22 127.998 179.454 128.224C179.693 128.445 179.812 128.714 179.812 129.029C179.812 129.34 179.693 129.609 179.454 129.835C179.22 130.056 178.936 130.167 178.604 130.167ZM189.253 134.079L187.521 134.386C187.449 134.164 187.334 133.953 187.176 133.753C187.023 133.553 186.814 133.388 186.55 133.261C186.285 133.133 185.955 133.069 185.559 133.069C185.018 133.069 184.566 133.19 184.204 133.433C183.841 133.672 183.66 133.981 183.66 134.36C183.66 134.688 183.782 134.952 184.025 135.153C184.268 135.353 184.66 135.517 185.201 135.645L186.76 136.003C187.664 136.212 188.337 136.533 188.78 136.968C189.224 137.403 189.445 137.967 189.445 138.662C189.445 139.25 189.275 139.774 188.934 140.234C188.597 140.69 188.126 141.048 187.521 141.308C186.92 141.568 186.224 141.698 185.431 141.698C184.331 141.698 183.434 141.464 182.74 140.995C182.045 140.522 181.619 139.851 181.461 138.982L183.309 138.7C183.424 139.182 183.66 139.546 184.018 139.793C184.376 140.036 184.843 140.158 185.418 140.158C186.045 140.158 186.545 140.028 186.92 139.768C187.295 139.504 187.483 139.182 187.483 138.803C187.483 138.496 187.368 138.238 187.138 138.029C186.912 137.82 186.564 137.663 186.096 137.556L184.434 137.192C183.518 136.983 182.84 136.651 182.401 136.195C181.966 135.739 181.749 135.161 181.749 134.462C181.749 133.883 181.911 133.376 182.235 132.941C182.559 132.506 183.006 132.168 183.577 131.925C184.148 131.678 184.802 131.554 185.54 131.554C186.601 131.554 187.436 131.784 188.045 132.244C188.655 132.7 189.057 133.312 189.253 134.079ZM199.996 141.698C199.075 141.698 198.272 141.487 197.586 141.065C196.9 140.643 196.367 140.053 195.988 139.295C195.609 138.536 195.419 137.65 195.419 136.636C195.419 135.617 195.609 134.727 195.988 133.964C196.367 133.201 196.9 132.609 197.586 132.187C198.272 131.765 199.075 131.554 199.996 131.554C200.916 131.554 201.72 131.765 202.406 132.187C203.092 132.609 203.624 133.201 204.004 133.964C204.383 134.727 204.573 135.617 204.573 136.636C204.573 137.65 204.383 138.536 204.004 139.295C203.624 140.053 203.092 140.643 202.406 141.065C201.72 141.487 200.916 141.698 199.996 141.698ZM200.002 140.094C200.599 140.094 201.093 139.936 201.485 139.621C201.877 139.305 202.167 138.886 202.355 138.362C202.546 137.837 202.642 137.26 202.642 136.629C202.642 136.003 202.546 135.428 202.355 134.903C202.167 134.375 201.877 133.951 201.485 133.631C201.093 133.312 200.599 133.152 200.002 133.152C199.401 133.152 198.903 133.312 198.507 133.631C198.114 133.951 197.823 134.375 197.631 134.903C197.443 135.428 197.35 136.003 197.35 136.629C197.35 137.26 197.443 137.837 197.631 138.362C197.823 138.886 198.114 139.305 198.507 139.621C198.903 139.936 199.401 140.094 200.002 140.094ZM208.392 128.409V141.5H206.481V128.409H208.392ZM216.958 137.428V131.682H218.875V141.5H216.996V139.8H216.894C216.668 140.324 216.306 140.761 215.807 141.11C215.313 141.455 214.697 141.628 213.96 141.628C213.329 141.628 212.771 141.489 212.285 141.212C211.804 140.931 211.424 140.516 211.147 139.966C210.875 139.416 210.738 138.737 210.738 137.927V131.682H212.65V137.697C212.65 138.366 212.835 138.898 213.206 139.295C213.576 139.691 214.058 139.889 214.65 139.889C215.008 139.889 215.364 139.8 215.718 139.621C216.076 139.442 216.372 139.171 216.606 138.809C216.845 138.447 216.962 137.987 216.958 137.428ZM223.13 128.409V141.5H221.218V128.409H223.13ZM225.476 141.5V131.682H227.387V141.5H225.476ZM226.441 130.167C226.109 130.167 225.823 130.056 225.584 129.835C225.35 129.609 225.233 129.34 225.233 129.029C225.233 128.714 225.35 128.445 225.584 128.224C225.823 127.998 226.109 127.885 226.441 127.885C226.773 127.885 227.057 127.998 227.291 128.224C227.53 128.445 227.649 128.714 227.649 129.029C227.649 129.34 227.53 129.609 227.291 129.835C227.057 130.056 226.773 130.167 226.441 130.167ZM231.644 135.67V141.5H229.733V131.682H231.568V133.28H231.689C231.915 132.76 232.269 132.342 232.75 132.027C233.236 131.712 233.848 131.554 234.585 131.554C235.254 131.554 235.84 131.695 236.343 131.976C236.845 132.253 237.235 132.666 237.512 133.216C237.789 133.766 237.928 134.445 237.928 135.255V141.5H236.017V135.485C236.017 134.773 235.831 134.217 235.461 133.817C235.09 133.412 234.581 133.21 233.933 133.21C233.49 133.21 233.095 133.305 232.75 133.497C232.409 133.689 232.139 133.97 231.938 134.341C231.742 134.707 231.644 135.151 231.644 135.67ZM244.498 141.698C243.53 141.698 242.697 141.491 241.998 141.078C241.304 140.661 240.767 140.075 240.387 139.32C240.012 138.562 239.825 137.673 239.825 136.655C239.825 135.649 240.012 134.763 240.387 133.996C240.767 133.229 241.295 132.63 241.973 132.2C242.655 131.769 243.451 131.554 244.363 131.554C244.917 131.554 245.454 131.646 245.974 131.829C246.494 132.012 246.961 132.3 247.374 132.692C247.787 133.084 248.113 133.593 248.352 134.219C248.591 134.842 248.71 135.598 248.71 136.489V137.166H240.905V135.734H246.837C246.837 135.232 246.735 134.786 246.53 134.398C246.326 134.006 246.038 133.697 245.667 133.472C245.301 133.246 244.87 133.133 244.376 133.133C243.839 133.133 243.37 133.265 242.97 133.529C242.574 133.789 242.267 134.13 242.049 134.552C241.836 134.969 241.73 135.423 241.73 135.913V137.032C241.73 137.688 241.845 138.246 242.075 138.707C242.309 139.167 242.635 139.518 243.053 139.761C243.471 140 243.959 140.119 244.517 140.119C244.879 140.119 245.209 140.068 245.508 139.966C245.806 139.859 246.064 139.702 246.281 139.493C246.498 139.284 246.664 139.026 246.78 138.719L248.588 139.045C248.444 139.578 248.184 140.045 247.809 140.445C247.438 140.842 246.971 141.151 246.409 141.372C245.851 141.589 245.213 141.698 244.498 141.698ZM253.015 128.409L252.849 137.735H251.079L250.912 128.409H253.015ZM251.967 141.621C251.613 141.621 251.311 141.498 251.059 141.251C250.808 140.999 250.684 140.697 250.689 140.343C250.684 139.994 250.808 139.695 251.059 139.448C251.311 139.197 251.613 139.071 251.967 139.071C252.312 139.071 252.61 139.197 252.862 139.448C253.113 139.695 253.241 139.994 253.245 140.343C253.241 140.577 253.179 140.793 253.06 140.989C252.945 141.18 252.792 141.334 252.6 141.449C252.408 141.564 252.197 141.621 251.967 141.621Z" fill="#F3FFAD"/>
<path d="M179.682 177.012L181.448 171.71L173.848 173.34C173.492 174.416 173.049 175.74 172.625 177.012H169.375C169.297 177.198 169.264 177.389 169.264 177.594C169.264 178.591 169.938 179.422 171.075 179.764C171.231 179.812 171.431 179.853 171.665 179.89L171.358 180.813C170.592 183.109 170.273 184.763 170.273 185.698C170.273 188.085 171.747 189.498 174.073 189.498C175.225 189.498 176.291 189.146 177.873 187.87C177.503 187.121 177.329 186.354 177.329 185.156C177.329 184.453 177.525 183.484 177.873 182.44C178.081 181.823 178.362 180.972 178.689 179.999H181.003L182 177.012H179.682Z" fill="white"/>
<path d="M165.484 176.738C163.223 176.738 160.179 178.801 159.984 179.155L163.23 169.409L155.769 171.038L149.796 188.955H156.719L158.891 182.44C159.459 180.73 159.973 180.27 160.785 180.269H160.791C161.579 180.269 161.872 181.005 161.355 182.55C161.248 182.874 160.884 183.967 160.574 184.9C160.266 185.826 160.188 186.267 160.188 186.884C160.188 188.325 161.213 189.5 163.274 189.5C164.48 189.5 166.222 188.908 167.429 187.929C167.176 187.415 167.043 186.736 167.043 185.975C167.043 185.548 167.205 184.741 167.715 183.207C168.352 181.296 168.47 180.53 168.47 179.728C168.47 177.677 167.564 176.738 165.484 176.738Z" fill="white"/>
<path d="M143.284 187.325C141.531 187.325 140.911 186.701 141.232 184.885H142.378C147.799 184.885 151.251 183.083 151.251 179.943C151.251 178.092 149.656 176.467 145.273 176.467C137.992 176.467 134.69 180.2 134.69 184.885C134.69 187.632 136.702 189.498 140.932 189.498C144.078 189.498 146.696 188.726 148.494 187.319L148.089 186.208C146.144 187.095 144.995 187.325 143.284 187.325ZM141.746 182.985C143.053 179.128 143.566 178.639 144.55 178.639C145.365 178.639 145.597 179.562 145.002 181.355C144.604 182.544 142.998 183.528 141.573 183.528C141.626 183.353 141.683 183.171 141.746 182.985Z" fill="white"/>
<path d="M137.569 169.409L129.969 171.038L126.711 180.813C125.946 183.109 125.626 184.763 125.626 185.698C125.626 188.085 127.1 189.498 129.425 189.498C130.575 189.498 131.648 189.146 133.226 187.87C132.856 187.121 132.684 186.354 132.684 185.156C132.684 184.453 132.877 183.484 133.226 182.44L137.569 169.409Z" fill="white"/>
<path d="M125.768 177.012H118.985L117.357 181.898C116.015 185.915 115.659 186.239 114.642 186.239C113.926 186.239 113.626 185.49 114.642 182.44C115.041 181.242 115.711 179.163 116.429 177.012H109.65L108.384 180.813C107.619 183.109 107.313 184.763 107.313 185.698C107.313 188.085 108.789 189.498 111.113 189.498C112.724 189.498 114.669 188.407 116.007 187.59C116.54 188.776 117.529 189.5 119.097 189.5C120.243 189.5 122.204 189.146 123.777 187.87C123.474 187.257 123.29 186.616 123.29 185.564C123.29 184.628 123.504 183.865 123.796 182.985C124.197 181.784 125.058 179.163 125.768 177.012Z" fill="white"/>
<path d="M108.436 177.012H106.118L107.886 171.71L100.287 173.34L99.0612 177.012H95.811C95.736 177.198 95.6997 177.389 95.6997 177.594C95.7034 178.591 96.3754 179.422 97.5105 179.764C97.6673 179.812 97.8672 179.853 98.1027 179.89C97.9845 180.242 97.8807 180.555 97.797 180.813C97.0279 183.109 96.7125 184.763 96.7125 185.698C96.7125 188.085 98.1829 189.498 100.511 189.498C101.661 189.498 102.73 189.146 104.311 187.87C103.939 187.121 103.767 186.354 103.767 185.156C103.767 184.453 103.963 183.484 104.311 182.44C104.517 181.823 104.798 180.972 105.125 179.999H107.439L108.436 177.012Z" fill="white"/>
<path d="M91.8415 176.738C89.579 176.738 86.5341 178.801 86.343 179.155L89.5896 169.409L82.1237 171.038L76.154 188.955H83.0732L85.245 182.44C85.8167 180.73 86.3288 180.27 87.1413 180.269C87.9317 180.268 88.2304 181.005 87.7148 182.55C87.6054 182.874 87.24 183.967 86.9298 184.9C86.6186 185.826 86.5439 186.267 86.5439 186.884C86.5439 188.325 87.5708 189.5 89.6279 189.5C90.8361 189.5 92.5777 188.908 93.7831 187.929C93.5299 187.415 93.3955 186.736 93.3955 185.975C93.3955 185.548 93.5611 184.741 94.0729 183.207C94.7067 181.296 94.8286 180.53 94.8286 179.728C94.8286 177.677 93.9218 176.738 91.8415 176.738Z" fill="white"/>
<path d="M69.898 170.496C62.8392 170.496 56 174.771 56 182.914C56 186.915 59.6654 189.5 63.5655 189.5C70.6234 189.5 77.4643 185.224 77.4643 177.082C77.4643 173.08 73.7972 170.496 69.898 170.496ZM68.4355 179.999C66.3801 186.164 65.7996 186.86 64.4439 186.86C63.305 186.86 62.9628 186.164 65.02 179.999C67.0762 173.829 67.663 173.133 69.017 173.133C70.1584 173.133 70.4918 173.829 68.4355 179.999Z" fill="white"/>
<path d="M69.8979 168.668C72.2084 168.668 74.4052 169.424 76.089 170.796C76.1654 170.862 76.2401 170.93 76.3184 170.994C77.5336 170.384 78.3933 169.334 78.3933 167.445C78.3933 166.795 78.003 165.897 77.5132 165.5C77.1194 165.795 76.7131 166.001 76.0845 166.19C75.713 166.299 75.2035 166.359 74.6532 166.359H66.2877C65.0759 166.359 64.202 166.469 63.7131 166.615C62.2382 167.059 61.6986 167.832 61.6986 168.804C61.6986 169.449 61.9173 169.994 62.2667 170.336C64.5425 169.249 67.1597 168.668 69.8979 168.668Z" fill="white"/>
</svg>
