<svg width="200" height="29" viewBox="0 0 200 29" fill="none" xmlns="http://www.w3.org/2000/svg">
<path d="M81.228 21.835V5.635H103.458L99.529 1.651C99.0165 1.12914 98.4052 0.7145 97.7308 0.431222C97.0565 0.147944 96.3325 0.00169635 95.601 0.0010004H74.981V17.391C74.981 18.885 75.566 20.319 76.608 21.375L81.688 26.525C82.201 27.0465 82.8125 27.4608 83.487 27.7439C84.1615 28.027 84.8855 28.1732 85.617 28.174H102.767V22.542H81.927C81.7415 22.5407 81.5641 22.4658 81.4338 22.3338C81.3035 22.2018 81.2309 22.0235 81.232 21.838L81.228 21.835ZM38.168 5.635H53.448C53.6335 5.63632 53.8109 5.7112 53.9412 5.8432C54.0715 5.9752 54.1441 6.15352 54.143 6.339V14.085H38.163L38.168 5.635ZM49.758 0.0010004H31.918V28.171H38.168V16.201L40.013 18.072C40.5261 18.5936 41.1378 19.008 41.8124 19.2911C42.4871 19.5742 43.2113 19.7203 43.943 19.721H60.393V10.786C60.395 9.29586 59.8105 7.86477 58.766 6.802L53.686 1.652C53.173 1.13052 52.5615 0.716196 51.887 0.43311C51.2125 0.150024 50.4885 0.00382164 49.757 0.00300026L49.758 0.0010004ZM113.198 21.835V16.906H129.168C129.553 16.906 129.863 17.221 129.863 17.61V22.54H113.893C113.801 22.5393 113.71 22.5206 113.626 22.4848C113.541 22.449 113.464 22.3969 113.399 22.3314C113.335 22.266 113.284 22.1884 113.249 22.1033C113.215 22.0181 113.197 21.9269 113.198 21.835ZM113.198 11.275V5.643H129.168C129.553 5.643 129.863 5.958 129.863 6.347V11.277H113.193L113.198 11.275ZM136.118 28.175V18.537C136.12 17.0469 135.535 15.616 134.491 14.553L132.646 12.682H136.118V10.086C136.12 8.59586 135.536 7.16477 134.491 6.102L130.106 1.655C129.593 1.13347 128.982 0.719122 128.307 0.436032C127.633 0.152943 126.909 0.00676551 126.177 0.00599957H106.947V17.396C106.947 18.89 107.532 20.324 108.574 21.38L113.654 26.53C114.167 27.0515 114.778 27.4658 115.453 27.7489C116.127 28.032 116.852 28.1782 117.583 28.179H136.123L136.118 28.175ZM189.198 5.635V28.165H182.946V5.635H172.176V0.0010004H199.956V5.635H189.198ZM70.808 0.00500011H64.558V28.175H70.808V0.00500011ZM168.698 5.635L164.769 1.651C164.256 1.12872 163.645 0.713754 162.97 0.430295C162.295 0.146836 161.571 0.000561066 160.839 0H140.219V17.39C140.219 18.884 140.804 20.318 141.846 21.374L146.926 26.524C147.439 27.0455 148.05 27.4599 148.725 27.743C149.399 28.0261 150.123 28.1722 150.855 28.173H168.005V22.541H147.165C147.073 22.5405 146.982 22.5219 146.897 22.4862C146.813 22.4505 146.736 22.3985 146.671 22.3331C146.607 22.2678 146.555 22.1903 146.521 22.1052C146.486 22.0201 146.468 21.9289 146.469 21.837V16.907H167.998V11.276H146.468V5.644H168.698V5.635ZM28.478 5.635L24.548 1.651C24.0357 1.12874 23.4245 0.713761 22.7501 0.430293C22.0757 0.146826 21.3516 0.000548215 20.62 0H0V17.39C0 18.884 0.585 20.318 1.627 21.374L6.707 26.524C7.21997 27.0455 7.83148 27.4598 8.50597 27.7429C9.18047 28.026 9.90451 28.1722 10.636 28.173H27.786V22.541H6.946C6.76052 22.5397 6.58315 22.4648 6.45284 22.3328C6.32253 22.2008 6.24994 22.0225 6.251 21.837V16.907H27.781V11.276H6.251V5.644H28.481L28.478 5.635Z" fill="#B6EA00"/>
</svg>
