<svg width="29" height="200" viewBox="0 0 29 200" fill="none" xmlns="http://www.w3.org/2000/svg">
<path d="M21.835 118.728L5.635 118.728L5.63499 96.498L1.651 100.427C1.12914 100.94 0.714496 101.551 0.431218 102.225C0.14794 102.9 0.00169214 103.624 0.000996226 104.355L0.000997127 124.975L17.391 124.975C18.885 124.975 20.319 124.39 21.375 123.348L26.525 118.268C27.0465 117.755 27.4608 117.144 27.7439 116.469C28.027 115.795 28.1732 115.07 28.174 114.339L28.174 97.189L22.542 97.189L22.542 118.029C22.5407 118.214 22.4658 118.392 22.3338 118.522C22.2018 118.652 22.0235 118.725 21.838 118.724L21.835 118.728ZM5.635 161.788L5.635 146.508C5.63632 146.323 5.7112 146.145 5.8432 146.015C5.9752 145.885 6.15352 145.812 6.339 145.813L14.085 145.813L14.085 161.793L5.635 161.788ZM0.000998229 150.198L0.000999009 168.038L28.171 168.038L28.171 161.788L16.201 161.788L18.072 159.943C18.5936 159.43 19.008 158.818 19.2911 158.144C19.5742 157.469 19.7203 156.745 19.721 156.013L19.721 139.563L10.786 139.563C9.29585 139.561 7.86477 140.145 6.802 141.19L1.652 146.27C1.13052 146.783 0.716194 147.394 0.433108 148.069C0.150022 148.743 0.00381944 149.468 0.00299808 150.199L0.000998229 150.198ZM21.835 86.758L16.906 86.758L16.906 70.788C16.906 70.403 17.221 70.093 17.61 70.093L22.54 70.093L22.54 86.063C22.5393 86.1549 22.5206 86.2458 22.4848 86.3305C22.449 86.4152 22.3969 86.492 22.3314 86.5565C22.266 86.621 22.1884 86.6721 22.1033 86.7066C22.0181 86.7412 21.9269 86.7587 21.835 86.758ZM11.275 86.758L5.643 86.758L5.64299 70.788C5.64299 70.403 5.95799 70.093 6.34699 70.093L11.277 70.093L11.277 86.763L11.275 86.758ZM28.175 63.838L18.537 63.838C17.0469 63.8364 15.6159 64.4207 14.553 65.465L12.682 67.31L12.682 63.838L10.086 63.838C8.59585 63.836 7.16477 64.4205 6.10199 65.465L1.65499 69.85C1.13347 70.3629 0.719116 70.9744 0.436027 71.6489C0.152937 72.3234 0.00675996 73.0475 0.00599405 73.779L0.00599489 93.009L17.396 93.009C18.89 93.009 20.324 92.424 21.38 91.382L26.53 86.302C27.0515 85.789 27.4658 85.1775 27.7489 84.503C28.032 83.8285 28.1782 83.1045 28.179 82.373L28.179 63.833L28.175 63.838ZM5.63499 10.758L28.165 10.758L28.165 17.01L5.63499 17.01L5.63499 27.78L0.000992878 27.78L0.000991664 0L5.63499 -2.46314e-07L5.63499 10.758ZM0.00499702 129.148L0.00499729 135.398L28.175 135.398L28.175 129.148L0.00499702 129.148ZM5.63499 31.258L1.65099 35.187C1.12872 35.6997 0.713747 36.3112 0.430288 36.986C0.146829 37.6607 0.000554003 38.3851 -7.0305e-06 39.117L-6.12917e-06 59.737L17.39 59.737C18.884 59.737 20.318 59.152 21.374 58.11L26.524 53.03C27.0455 52.5171 27.4599 51.9056 27.743 51.231C28.026 50.5565 28.1722 49.8325 28.173 49.101L28.173 31.951L22.541 31.951L22.541 52.791C22.5405 52.8829 22.5218 52.9738 22.4862 53.0586C22.4505 53.1433 22.3985 53.2202 22.3331 53.2848C22.2678 53.3494 22.1903 53.4005 22.1052 53.4352C22.02 53.4699 21.9289 53.4875 21.837 53.487L16.907 53.487L16.907 31.958L11.276 31.958L11.276 53.488L5.64399 53.488L5.64399 31.258L5.63499 31.258ZM5.635 171.478L1.651 175.408C1.12874 175.92 0.71376 176.531 0.430292 177.206C0.146825 177.88 0.000547282 178.604 -9.01329e-07 179.336L0 199.956L17.39 199.956C18.884 199.956 20.318 199.371 21.374 198.329L26.524 193.249C27.0455 192.736 27.4598 192.125 27.7429 191.45C28.026 190.776 28.1722 190.051 28.173 189.32L28.173 172.17L22.541 172.17L22.541 193.01C22.5397 193.195 22.4648 193.373 22.3328 193.503C22.2008 193.633 22.0225 193.706 21.837 193.705L16.907 193.705L16.907 172.175L11.276 172.175L11.276 193.705L5.644 193.705L5.644 171.475L5.635 171.478Z" fill="#B6EA00"/>
</svg>
