<svg width="1250" height="702" viewBox="0 0 1250 702" fill="none" xmlns="http://www.w3.org/2000/svg">
<path opacity="0.26" d="M1247.72 563.81C1176.08 506.75 1104.45 449.69 1032.81 392.624C1032.39 392.886 1031.97 393.148 1031.55 393.41C1061.45 495.808 1091.36 598.205 1121.48 701.344C1118.5 701.613 1116.63 701.926 1114.76 701.933C1099.23 701.971 1083.7 702.112 1068.18 701.818C1065.35 701.766 1062 700.57 1059.81 698.78C998.819 648.979 937.973 599.011 877.063 549.114C817.962 500.694 758.803 452.338 699.703 403.918C666.246 376.514 632.834 349.058 599.435 321.59C592.658 316.019 592.69 315.898 585.248 320.912C449.605 412.245 313.962 503.578 178.332 594.924C127.325 629.274 76.2736 663.56 25.4522 698.178C18.1701 703.135 10.6962 701.747 3.09445 701.619C2.10347 701.6 0.632965 699.502 0.300507 698.14C-0.19818 696.119 0.0895693 693.9 0.0895694 691.77C0.0895789 474.057 0.083195 256.343 0.0895979 38.6301C0.0895984 27.3037 -5.34681e-08 1.22315 -5.34681e-08 1.22315C2.41671 0.647562 124.717 0.0975604 127.223 0.0975605C284.84 0.0719857 442.457 0.0464108 600.074 0.238281C603.546 0.238281 607.829 1.77319 610.367 4.09473C676.002 63.9688 741.465 124.028 806.933 184.075C861.968 234.554 916.977 285.065 971.999 335.557C988.717 350.9 1005.45 366.236 1022.19 381.566C1023.56 382.82 1024.99 384.003 1027.76 384.585C1026.64 379.43 1025.56 374.269 1024.4 369.127C1004.09 278.881 983.558 188.68 963.681 98.3315C960.823 85.3232 951.994 77.2265 944.366 67.9724C927.225 47.1936 909.644 26.773 892.285 6.17326C891.083 4.74708 890.201 3.04589 888.673 0.717951C891.103 0.442947 892.727 0.103989 894.351 0.103989C910.27 0.0656176 926.183 0.219109 942.103 0.00166461C946.764 -0.0622895 948.541 1.69646 949.232 6.19884C952.914 30.1625 956.968 54.0687 960.612 78.0388C961.475 83.7179 963.623 87.9453 968.137 91.7122C1012.8 129.01 1057.29 166.526 1101.86 203.946C1146.72 241.615 1191.36 279.553 1236.67 316.672C1246.29 324.544 1250.11 332.385 1250 344.908C1249.35 414.758 1249.68 484.616 1249.68 554.467C1249.68 557.306 1249.68 560.146 1249.68 562.985C1249.03 563.26 1248.37 563.542 1247.72 563.817L1247.72 563.81Z" fill="url(#paint0_linear_31_3)"/>
<defs>
<linearGradient id="paint0_linear_31_3" x1="128.003" y1="654.293" x2="1316.55" y2="-177.427" gradientUnits="userSpaceOnUse">
<stop stop-color="#00142D"/>
<stop offset="0.2" stop-color="#02162F"/>
<stop offset="0.34" stop-color="#0C1E36"/>
<stop offset="0.46" stop-color="#1B2D42"/>
<stop offset="0.58" stop-color="#314053"/>
<stop offset="0.68" stop-color="#4E5A69"/>
<stop offset="0.78" stop-color="#717A84"/>
<stop offset="0.88" stop-color="#9AA0A4"/>
<stop offset="0.97" stop-color="#C9CAC8"/>
<stop offset="1" stop-color="#DBDAD6"/>
</linearGradient>
</defs>
</svg>
