<svg width="740" height="400" viewBox="0 0 740 400" fill="none" xmlns="http://www.w3.org/2000/svg">
<path d="M77.5 79.6C77.5 81.9667 77 84.0667 76 85.9C75 87.7333 73.5 89.1833 71.5 90.25C69.5333 91.2833 67.1333 91.8 64.3 91.8C60.0333 91.8 56.7667 90.7 54.5 88.5C52.2667 86.2667 51.15 83.3 51.15 79.6V56.4H58.5V79.25C58.5 81.5833 58.9667 83.3333 59.9 84.5C60.8333 85.6333 62.3 86.2 64.3 86.2C66.3 86.2 67.7667 85.6333 68.7 84.5C69.6667 83.3333 70.15 81.5833 70.15 79.25V56.4H77.5V79.6ZM105.915 91H99.7648L99.4148 87.45C98.4815 88.9167 97.3482 90.0167 96.0148 90.75C94.6815 91.45 93.1315 91.8 91.3648 91.8C88.9648 91.8 87.1315 91.0833 85.8648 89.65C84.5982 88.1833 83.9648 86.15 83.9648 83.55V64.5H91.0648V82.65C91.0648 84.05 91.2982 85.05 91.7648 85.65C92.2315 86.2167 92.9648 86.5 93.9648 86.5C95.8648 86.5 97.4815 85.35 98.8148 83.05V64.5H105.915V91ZM135.326 77.15C135.326 77.4833 135.276 78.4 135.176 79.9H118.626C118.859 82.3 119.509 84 120.576 85C121.642 86 123.092 86.5 124.926 86.5C126.059 86.5 127.126 86.3167 128.126 85.95C129.126 85.5833 130.209 85 131.376 84.2L134.326 88.2C131.359 90.6 128.009 91.8 124.276 91.8C120.109 91.8 116.909 90.55 114.676 88.05C112.442 85.55 111.326 82.1667 111.326 77.9C111.326 75.2 111.792 72.7833 112.726 70.65C113.692 68.4833 115.076 66.7833 116.876 65.55C118.709 64.3167 120.876 63.7 123.376 63.7C127.142 63.7 130.076 64.8833 132.176 67.25C134.276 69.6167 135.326 72.9167 135.326 77.15ZM128.276 75.15C128.276 70.75 126.692 68.55 123.526 68.55C122.059 68.55 120.909 69.1 120.076 70.2C119.276 71.2667 118.792 73.0167 118.626 75.45H128.276V75.15ZM147.065 91.8C144.898 91.8 143.215 91.1833 142.015 89.95C140.815 88.6833 140.215 86.9 140.215 84.6V53.95L147.315 53.15V84.4C147.315 85.5667 147.798 86.15 148.765 86.15C149.298 86.15 149.765 86.05 150.165 85.85L151.615 90.9C150.248 91.5 148.732 91.8 147.065 91.8ZM187.717 83.65C187.717 84.6833 187.867 85.45 188.167 85.95C188.467 86.4167 188.967 86.7667 189.667 87L188.167 91.7C186.6 91.5667 185.317 91.2 184.317 90.6C183.35 90 182.6 89.0667 182.067 87.8C180.333 90.4667 177.683 91.8 174.117 91.8C171.483 91.8 169.383 91.05 167.817 89.55C166.283 88.0167 165.517 86.0333 165.517 83.6C165.517 80.7 166.567 78.4833 168.667 76.95C170.767 75.4167 173.783 74.65 177.717 74.65H180.767V73.35C180.767 71.7167 180.4 70.5833 179.667 69.95C178.933 69.3167 177.717 69 176.017 69C174.15 69 171.817 69.4667 169.017 70.4L167.417 65.65C170.717 64.35 173.983 63.7 177.217 63.7C180.817 63.7 183.467 64.4833 185.167 66.05C186.867 67.5833 187.717 69.8833 187.717 72.95V83.65ZM176.067 86.7C178.067 86.7 179.633 85.7167 180.767 83.75V78.7H178.417C174.583 78.7 172.667 80.1333 172.667 83C172.667 84.1667 172.95 85.0833 173.517 85.75C174.117 86.3833 174.967 86.7 176.067 86.7ZM214.816 83.65C214.816 84.6833 214.966 85.45 215.266 85.95C215.566 86.4167 216.066 86.7667 216.766 87L215.266 91.7C213.7 91.5667 212.416 91.2 211.416 90.6C210.45 90 209.7 89.0667 209.166 87.8C207.433 90.4667 204.783 91.8 201.216 91.8C198.583 91.8 196.483 91.05 194.916 89.55C193.383 88.0167 192.616 86.0333 192.616 83.6C192.616 80.7 193.666 78.4833 195.766 76.95C197.866 75.4167 200.883 74.65 204.816 74.65H207.866V73.35C207.866 71.7167 207.5 70.5833 206.766 69.95C206.033 69.3167 204.816 69 203.116 69C201.25 69 198.916 69.4667 196.116 70.4L194.516 65.65C197.816 64.35 201.083 63.7 204.316 63.7C207.916 63.7 210.566 64.4833 212.266 66.05C213.966 67.5833 214.816 69.8833 214.816 72.95V83.65ZM203.166 86.7C205.166 86.7 206.733 85.7167 207.866 83.75V78.7H205.516C201.683 78.7 199.766 80.1333 199.766 83C199.766 84.1667 200.05 85.0833 200.616 85.75C201.216 86.3833 202.066 86.7 203.166 86.7ZM230.222 63.7C233.955 63.7 237.155 64.7667 239.822 66.9L237.122 70.95C234.889 69.55 232.689 68.85 230.522 68.85C229.355 68.85 228.455 69.0667 227.822 69.5C227.189 69.9333 226.872 70.5167 226.872 71.25C226.872 71.7833 227.005 72.2333 227.272 72.6C227.572 72.9667 228.105 73.3167 228.872 73.65C229.672 73.9833 230.855 74.3833 232.422 74.85C235.222 75.6167 237.305 76.65 238.672 77.95C240.039 79.2167 240.722 80.9667 240.722 83.2C240.722 84.9667 240.205 86.5 239.172 87.8C238.172 89.1 236.805 90.1 235.072 90.8C233.339 91.4667 231.405 91.8 229.272 91.8C227.039 91.8 225.005 91.4667 223.172 90.8C221.339 90.1 219.772 89.15 218.472 87.95L221.972 84.05C224.205 85.7833 226.572 86.65 229.072 86.65C230.405 86.65 231.455 86.4 232.222 85.9C233.022 85.3667 233.422 84.65 233.422 83.75C233.422 83.05 233.272 82.5 232.972 82.1C232.672 81.7 232.122 81.3333 231.322 81C230.522 80.6333 229.272 80.2167 227.572 79.75C224.905 79.0167 222.922 77.9833 221.622 76.65C220.355 75.2833 219.722 73.6 219.722 71.6C219.722 70.1 220.155 68.75 221.022 67.55C221.889 66.35 223.105 65.4167 224.672 64.75C226.272 64.05 228.122 63.7 230.222 63.7ZM261.198 89.75C260.231 90.4167 259.131 90.9167 257.898 91.25C256.698 91.6167 255.498 91.8 254.298 91.8C251.564 91.7667 249.498 90.9833 248.098 89.45C246.698 87.9167 245.998 85.6667 245.998 82.7V69.5H242.048V64.5H245.998V58.7L253.098 57.85V64.5H259.198L258.498 69.5H253.098V82.55C253.098 83.8167 253.314 84.7333 253.748 85.3C254.181 85.8667 254.848 86.15 255.748 86.15C256.648 86.15 257.648 85.85 258.748 85.25L261.198 89.75ZM284.055 83.65C284.055 84.6833 284.205 85.45 284.505 85.95C284.805 86.4167 285.305 86.7667 286.005 87L284.505 91.7C282.938 91.5667 281.655 91.2 280.655 90.6C279.688 90 278.938 89.0667 278.405 87.8C276.671 90.4667 274.021 91.8 270.455 91.8C267.821 91.8 265.721 91.05 264.155 89.55C262.621 88.0167 261.855 86.0333 261.855 83.6C261.855 80.7 262.905 78.4833 265.005 76.95C267.105 75.4167 270.121 74.65 274.055 74.65H277.105V73.35C277.105 71.7167 276.738 70.5833 276.005 69.95C275.271 69.3167 274.055 69 272.355 69C270.488 69 268.155 69.4667 265.355 70.4L263.755 65.65C267.055 64.35 270.321 63.7 273.555 63.7C277.155 63.7 279.805 64.4833 281.505 66.05C283.205 67.5833 284.055 69.8833 284.055 72.95V83.65ZM272.405 86.7C274.405 86.7 275.971 85.7167 277.105 83.75V78.7H274.755C270.921 78.7 269.005 80.1333 269.005 83C269.005 84.1667 269.288 85.0833 269.855 85.75C270.455 86.3833 271.305 86.7 272.405 86.7ZM297.26 91.8C295.093 91.8 293.41 91.1833 292.21 89.95C291.01 88.6833 290.41 86.9 290.41 84.6V53.95L297.51 53.15V84.4C297.51 85.5667 297.993 86.15 298.96 86.15C299.493 86.15 299.96 86.05 300.36 85.85L301.81 90.9C300.443 91.5 298.927 91.8 297.26 91.8ZM324.712 88.35C324.712 91.0167 324.295 93.2 323.462 94.9C322.662 96.6333 321.545 98.0167 320.112 99.05C318.679 100.117 316.845 101.083 314.612 101.95L312.262 96.8C313.562 96.2 314.579 95.6 315.312 95C316.045 94.4333 316.612 93.65 317.012 92.65C317.412 91.6833 317.612 90.4 317.612 88.8V64.5H324.712V88.35ZM321.112 50.85C322.379 50.85 323.412 51.25 324.212 52.05C325.045 52.8167 325.462 53.8 325.462 55C325.462 56.2 325.045 57.2 324.212 58C323.412 58.7667 322.379 59.15 321.112 59.15C319.845 59.15 318.812 58.7667 318.012 58C317.212 57.2 316.812 56.2 316.812 55C316.812 53.8 317.212 52.8167 318.012 52.05C318.812 51.25 319.845 50.85 321.112 50.85ZM351.975 83.65C351.975 84.6833 352.125 85.45 352.425 85.95C352.725 86.4167 353.225 86.7667 353.925 87L352.425 91.7C350.858 91.5667 349.575 91.2 348.575 90.6C347.608 90 346.858 89.0667 346.325 87.8C344.591 90.4667 341.941 91.8 338.375 91.8C335.741 91.8 333.641 91.05 332.075 89.55C330.541 88.0167 329.775 86.0333 329.775 83.6C329.775 80.7 330.825 78.4833 332.925 76.95C335.025 75.4167 338.041 74.65 341.975 74.65H345.025V73.35C345.025 71.7167 344.658 70.5833 343.925 69.95C343.191 69.3167 341.975 69 340.275 69C338.408 69 336.075 69.4667 333.275 70.4L331.675 65.65C334.975 64.35 338.241 63.7 341.475 63.7C345.075 63.7 347.725 64.4833 349.425 66.05C351.125 67.5833 351.975 69.8833 351.975 72.95V83.65ZM340.325 86.7C342.325 86.7 343.891 85.7167 345.025 83.75V78.7H342.675C338.841 78.7 336.925 80.1333 336.925 83C336.925 84.1667 337.208 85.0833 337.775 85.75C338.375 86.3833 339.225 86.7 340.325 86.7ZM335.975 51.4C337.041 51.4 337.925 51.7667 338.625 52.5C339.358 53.2 339.725 54.0667 339.725 55.1C339.725 56.1333 339.358 57.0167 338.625 57.75C337.925 58.45 337.041 58.8 335.975 58.8C334.941 58.8 334.058 58.45 333.325 57.75C332.591 57.0167 332.225 56.1333 332.225 55.1C332.225 54.0667 332.591 53.2 333.325 52.5C334.058 51.7667 334.941 51.4 335.975 51.4ZM347.275 51.4C348.341 51.4 349.241 51.7667 349.975 52.5C350.708 53.2 351.075 54.0667 351.075 55.1C351.075 56.1333 350.708 57.0167 349.975 57.75C349.241 58.45 348.341 58.8 347.275 58.8C346.241 58.8 345.358 58.45 344.625 57.75C343.925 57.0167 343.575 56.1333 343.575 55.1C343.575 54.0667 343.925 53.2 344.625 52.5C345.358 51.7667 346.241 51.4 347.275 51.4ZM372.768 63.75C373.568 63.75 374.452 63.8833 375.418 64.15L374.218 71C373.285 70.7667 372.502 70.65 371.868 70.65C370.302 70.65 369.085 71.2 368.218 72.3C367.352 73.4 366.668 75.0667 366.168 77.3V91H359.068V64.5H365.218L365.868 69.65C366.502 67.7833 367.418 66.3333 368.618 65.3C369.852 64.2667 371.235 63.75 372.768 63.75ZM402.007 65.95C400.273 66.6167 397.723 66.95 394.357 66.95C396.023 67.6833 397.257 68.6 398.057 69.7C398.857 70.7667 399.257 72.1167 399.257 73.75C399.257 75.45 398.807 76.9833 397.907 78.35C397.04 79.6833 395.773 80.7333 394.107 81.5C392.473 82.2667 390.557 82.65 388.357 82.65C387.19 82.65 386.157 82.5333 385.257 82.3C384.59 82.7333 384.257 83.3167 384.257 84.05C384.257 84.5833 384.457 85.0167 384.857 85.35C385.29 85.65 386.107 85.8 387.307 85.8H391.357C393.323 85.8 395.04 86.1333 396.507 86.8C398.007 87.4333 399.157 88.3333 399.957 89.5C400.79 90.6333 401.207 91.9333 401.207 93.4C401.207 96.1 400.04 98.2 397.707 99.7C395.407 101.233 392.073 102 387.707 102C384.573 102 382.09 101.667 380.257 101C378.457 100.367 377.19 99.4333 376.457 98.2C375.723 96.9667 375.357 95.4167 375.357 93.55H381.707C381.707 94.4167 381.873 95.1 382.207 95.6C382.54 96.1333 383.14 96.5167 384.007 96.75C384.907 97.0167 386.19 97.15 387.857 97.15C390.157 97.15 391.757 96.8667 392.657 96.3C393.59 95.7333 394.057 94.9333 394.057 93.9C394.057 92.9667 393.707 92.25 393.007 91.75C392.307 91.25 391.273 91 389.907 91H386.007C383.373 91 381.407 90.5167 380.107 89.55C378.807 88.55 378.157 87.3 378.157 85.8C378.157 84.8667 378.423 83.9667 378.957 83.1C379.523 82.2 380.29 81.45 381.257 80.85C379.623 79.95 378.423 78.9 377.657 77.7C376.923 76.4667 376.557 75 376.557 73.3C376.557 71.3667 377.023 69.6833 377.957 68.25C378.923 66.7833 380.257 65.6667 381.957 64.9C383.69 64.1 385.657 63.7 387.857 63.7C390.59 63.7667 392.84 63.5333 394.607 63C396.373 62.4667 398.257 61.6333 400.257 60.5L402.007 65.95ZM388.007 68.45C386.673 68.45 385.607 68.8833 384.807 69.75C384.04 70.5833 383.657 71.7333 383.657 73.2C383.657 74.7 384.04 75.8833 384.807 76.75C385.607 77.6167 386.69 78.05 388.057 78.05C389.49 78.05 390.573 77.6333 391.307 76.8C392.04 75.9667 392.407 74.7333 392.407 73.1C392.407 70 390.94 68.45 388.007 68.45ZM412.604 64.5V91H405.504V64.5H412.604ZM409.004 50.85C410.271 50.85 411.304 51.25 412.104 52.05C412.937 52.8167 413.354 53.8 413.354 55C413.354 56.2 412.937 57.2 412.104 58C411.304 58.7667 410.271 59.15 409.004 59.15C407.737 59.15 406.704 58.7667 405.904 58C405.104 57.2 404.704 56.2 404.704 55C404.704 53.8 405.104 52.8167 405.904 52.05C406.704 51.25 407.737 50.85 409.004 50.85ZM434.415 63.7C436.749 63.7 438.565 64.4167 439.865 65.85C441.165 67.25 441.815 69.2 441.815 71.7V91H434.715V72.9C434.715 71.4667 434.465 70.4667 433.965 69.9C433.499 69.3 432.782 69 431.815 69C430.815 69 429.899 69.3167 429.065 69.95C428.265 70.55 427.482 71.4667 426.715 72.7V91H419.615V64.5H425.765L426.315 67.85C427.415 66.4833 428.615 65.45 429.915 64.75C431.249 64.05 432.749 63.7 434.415 63.7ZM467.877 53.15V91H460.777V53.95L467.877 53.15ZM483.977 64.5L475.527 76.15L484.727 91H476.677L468.127 76.5L476.627 64.5H483.977ZM498.441 63.7C502.408 63.7 505.508 64.95 507.741 67.45C509.974 69.9167 511.091 73.35 511.091 77.75C511.091 80.55 510.574 83.0167 509.541 85.15C508.541 87.25 507.074 88.8833 505.141 90.05C503.241 91.2167 500.991 91.8 498.391 91.8C494.424 91.8 491.308 90.5667 489.041 88.1C486.808 85.6 485.691 82.15 485.691 77.75C485.691 74.95 486.191 72.5 487.191 70.4C488.224 68.2667 489.691 66.6167 491.591 65.45C493.524 64.2833 495.808 63.7 498.441 63.7ZM498.441 69C496.641 69 495.291 69.7167 494.391 71.15C493.524 72.55 493.091 74.75 493.091 77.75C493.091 80.75 493.524 82.9667 494.391 84.4C495.291 85.8 496.624 86.5 498.391 86.5C500.158 86.5 501.474 85.8 502.341 84.4C503.241 82.9667 503.691 80.75 503.691 77.75C503.691 74.75 503.258 72.55 502.391 71.15C501.524 69.7167 500.208 69 498.441 69ZM501.291 59C500.591 59 499.974 58.8833 499.441 58.65C498.941 58.4167 498.341 58.0833 497.641 57.65C497.208 57.3167 496.824 57.0833 496.491 56.95C496.191 56.7833 495.874 56.7 495.541 56.7C495.008 56.7 494.541 56.8833 494.141 57.25C493.741 57.6167 493.324 58.1833 492.891 58.95L489.241 57.15C489.908 55.5167 490.774 54.1833 491.841 53.15C492.908 52.1167 494.108 51.6 495.441 51.6C496.208 51.6 496.858 51.7333 497.391 52C497.924 52.2333 498.524 52.5667 499.191 53C499.624 53.3 499.991 53.5333 500.291 53.7C500.591 53.8333 500.908 53.9 501.241 53.9C501.774 53.9 502.224 53.7333 502.591 53.4C502.991 53.0333 503.424 52.4667 503.891 51.7L507.541 53.5C506.874 55.2 506.008 56.55 504.941 57.55C503.874 58.5167 502.658 59 501.291 59ZM523.59 64.5V91H516.49V64.5H523.59ZM519.99 50.85C521.257 50.85 522.29 51.25 523.09 52.05C523.924 52.8167 524.34 53.8 524.34 55C524.34 56.2 523.924 57.2 523.09 58C522.29 58.7667 521.257 59.15 519.99 59.15C518.724 59.15 517.69 58.7667 516.89 58C516.09 57.2 515.69 56.2 515.69 55C515.69 53.8 516.09 52.8167 516.89 52.05C517.69 51.25 518.724 50.85 519.99 50.85ZM537.702 53.15V91H530.602V53.95L537.702 53.15ZM553.802 64.5L545.352 76.15L554.552 91H546.502L537.952 76.5L546.452 64.5H553.802ZM564.801 64.5V91H557.701V64.5H564.801ZM561.201 50.85C562.468 50.85 563.501 51.25 564.301 52.05C565.135 52.8167 565.551 53.8 565.551 55C565.551 56.2 565.135 57.2 564.301 58C563.501 58.7667 562.468 59.15 561.201 59.15C559.935 59.15 558.901 58.7667 558.101 58C557.301 57.2 556.901 56.2 556.901 55C556.901 53.8 557.301 52.8167 558.101 52.05C558.901 51.25 559.935 50.85 561.201 50.85ZM80.15 118.7C82.25 118.7 83.9333 119.417 85.2 120.85C86.5 122.283 87.15 124.233 87.15 126.7V146H80.05V127.9C80.05 125.3 79.1833 124 77.45 124C76.5167 124 75.7 124.3 75 124.9C74.3 125.5 73.5833 126.433 72.85 127.7V146H65.75V127.9C65.75 125.3 64.8833 124 63.15 124C62.2167 124 61.4 124.317 60.7 124.95C60 125.55 59.3 126.467 58.6 127.7V146H51.5V119.5H57.65L58.2 122.8C59.2 121.467 60.3167 120.45 61.55 119.75C62.8167 119.05 64.2667 118.7 65.9 118.7C67.4 118.7 68.7 119.083 69.8 119.85C70.9 120.583 71.7 121.633 72.2 123C73.3 121.567 74.4833 120.5 75.75 119.8C77.05 119.067 78.5167 118.7 80.15 118.7ZM105.033 118.7C108.999 118.7 112.099 119.95 114.333 122.45C116.566 124.917 117.683 128.35 117.683 132.75C117.683 135.55 117.166 138.017 116.133 140.15C115.133 142.25 113.666 143.883 111.733 145.05C109.833 146.217 107.583 146.8 104.983 146.8C101.016 146.8 97.8995 145.567 95.6328 143.1C93.3995 140.6 92.2828 137.15 92.2828 132.75C92.2828 129.95 92.7828 127.5 93.7828 125.4C94.8161 123.267 96.2828 121.617 98.1828 120.45C100.116 119.283 102.399 118.7 105.033 118.7ZM105.033 124C103.233 124 101.883 124.717 100.983 126.15C100.116 127.55 99.6828 129.75 99.6828 132.75C99.6828 135.75 100.116 137.967 100.983 139.4C101.883 140.8 103.216 141.5 104.983 141.5C106.749 141.5 108.066 140.8 108.933 139.4C109.833 137.967 110.283 135.75 110.283 132.75C110.283 129.75 109.849 127.55 108.983 126.15C108.116 124.717 106.799 124 105.033 124ZM145.482 132.15C145.482 132.483 145.432 133.4 145.332 134.9H128.782C129.015 137.3 129.665 139 130.732 140C131.799 141 133.249 141.5 135.082 141.5C136.215 141.5 137.282 141.317 138.282 140.95C139.282 140.583 140.365 140 141.532 139.2L144.482 143.2C141.515 145.6 138.165 146.8 134.432 146.8C130.265 146.8 127.065 145.55 124.832 143.05C122.599 140.55 121.482 137.167 121.482 132.9C121.482 130.2 121.949 127.783 122.882 125.65C123.849 123.483 125.232 121.783 127.032 120.55C128.865 119.317 131.032 118.7 133.532 118.7C137.299 118.7 140.232 119.883 142.332 122.25C144.432 124.617 145.482 127.917 145.482 132.15ZM138.432 130.15C138.432 125.75 136.849 123.55 133.682 123.55C132.215 123.55 131.065 124.1 130.232 125.2C129.432 126.267 128.949 128.017 128.782 130.45H138.432V130.15ZM166.471 144.75C165.504 145.417 164.404 145.917 163.171 146.25C161.971 146.617 160.771 146.8 159.571 146.8C156.838 146.767 154.771 145.983 153.371 144.45C151.971 142.917 151.271 140.667 151.271 137.7V124.5H147.321V119.5H151.271V113.7L158.371 112.85V119.5H164.471L163.771 124.5H158.371V137.55C158.371 138.817 158.588 139.733 159.021 140.3C159.454 140.867 160.121 141.15 161.021 141.15C161.921 141.15 162.921 140.85 164.021 140.25L166.471 144.75ZM183.315 118.75C184.115 118.75 184.999 118.883 185.965 119.15L184.765 126C183.832 125.767 183.049 125.65 182.415 125.65C180.849 125.65 179.632 126.2 178.765 127.3C177.899 128.4 177.215 130.067 176.715 132.3V146H169.615V119.5H175.765L176.415 124.65C177.049 122.783 177.965 121.333 179.165 120.3C180.399 119.267 181.782 118.75 183.315 118.75ZM210.375 132.15C210.375 132.483 210.325 133.4 210.225 134.9H193.675C193.908 137.3 194.558 139 195.625 140C196.691 141 198.141 141.5 199.975 141.5C201.108 141.5 202.175 141.317 203.175 140.95C204.175 140.583 205.258 140 206.425 139.2L209.375 143.2C206.408 145.6 203.058 146.8 199.325 146.8C195.158 146.8 191.958 145.55 189.725 143.05C187.491 140.55 186.375 137.167 186.375 132.9C186.375 130.2 186.841 127.783 187.775 125.65C188.741 123.483 190.125 121.783 191.925 120.55C193.758 119.317 195.925 118.7 198.425 118.7C202.191 118.7 205.125 119.883 207.225 122.25C209.325 124.617 210.375 127.917 210.375 132.15ZM203.325 130.15C203.325 125.75 201.741 123.55 198.575 123.55C197.108 123.55 195.958 124.1 195.125 125.2C194.325 126.267 193.841 128.017 193.675 130.45H203.325V130.15ZM230.314 118.7C232.647 118.7 234.464 119.417 235.764 120.85C237.064 122.25 237.714 124.2 237.714 126.7V146H230.614V127.9C230.614 126.467 230.364 125.467 229.864 124.9C229.397 124.3 228.68 124 227.714 124C226.714 124 225.797 124.317 224.964 124.95C224.164 125.55 223.38 126.467 222.614 127.7V146H215.514V119.5H221.664L222.214 122.85C223.314 121.483 224.514 120.45 225.814 119.75C227.147 119.05 228.647 118.7 230.314 118.7ZM267.419 108.95V146H261.169L260.769 142.75C258.902 145.45 256.369 146.8 253.169 146.8C249.902 146.8 247.402 145.55 245.669 143.05C243.969 140.517 243.119 137.083 243.119 132.75C243.119 130.017 243.552 127.6 244.419 125.5C245.319 123.367 246.585 121.7 248.219 120.5C249.852 119.3 251.735 118.7 253.869 118.7C256.335 118.7 258.485 119.583 260.319 121.35V108.15L267.419 108.95ZM255.269 141.5C256.302 141.5 257.219 141.25 258.019 140.75C258.819 140.217 259.585 139.4 260.319 138.3V126.45C259.619 125.617 258.902 125 258.169 124.6C257.469 124.167 256.652 123.95 255.719 123.95C254.085 123.95 252.802 124.667 251.869 126.1C250.969 127.533 250.519 129.75 250.519 132.75C250.519 135.917 250.919 138.167 251.719 139.5C252.552 140.833 253.735 141.5 255.269 141.5ZM296.8 132.15C296.8 132.483 296.75 133.4 296.65 134.9H280.1C280.334 137.3 280.984 139 282.05 140C283.117 141 284.567 141.5 286.4 141.5C287.534 141.5 288.6 141.317 289.6 140.95C290.6 140.583 291.684 140 292.85 139.2L295.8 143.2C292.834 145.6 289.484 146.8 285.75 146.8C281.584 146.8 278.384 145.55 276.15 143.05C273.917 140.55 272.8 137.167 272.8 132.9C272.8 130.2 273.267 127.783 274.2 125.65C275.167 123.483 276.55 121.783 278.35 120.55C280.184 119.317 282.35 118.7 284.85 118.7C288.617 118.7 291.55 119.883 293.65 122.25C295.75 124.617 296.8 127.917 296.8 132.15ZM289.75 130.15C289.75 125.75 288.167 123.55 285 123.55C283.534 123.55 282.384 124.1 281.55 125.2C280.75 126.267 280.267 128.017 280.1 130.45H289.75V130.15ZM303.901 138.25C305.101 138.25 306.118 138.667 306.951 139.5C307.785 140.333 308.201 141.333 308.201 142.5C308.201 143.667 307.785 144.683 306.951 145.55C306.118 146.383 305.101 146.8 303.901 146.8C302.735 146.8 301.735 146.383 300.901 145.55C300.068 144.683 299.651 143.667 299.651 142.5C299.651 141.333 300.068 140.333 300.901 139.5C301.735 138.667 302.735 138.25 303.901 138.25Z" fill="#E3000F"/>
<path d="M68.3594 176.25V199H64.4375L54.2344 182.703V199H50.3125V176.25H54.2344L64.4688 192.578V176.25H68.3594ZM82.1875 195.609V187.547C82.1875 186.943 82.0781 186.422 81.8594 185.984C81.6406 185.547 81.3073 185.208 80.8594 184.969C80.4219 184.729 79.8698 184.609 79.2031 184.609C78.5885 184.609 78.0573 184.714 77.6094 184.922C77.1615 185.13 76.8125 185.411 76.5625 185.766C76.3125 186.12 76.1875 186.521 76.1875 186.969H72.4375C72.4375 186.302 72.599 185.656 72.9219 185.031C73.2448 184.406 73.7135 183.849 74.3281 183.359C74.9427 182.87 75.6771 182.484 76.5312 182.203C77.3854 181.922 78.3438 181.781 79.4062 181.781C80.6771 181.781 81.8021 181.995 82.7812 182.422C83.7708 182.849 84.5469 183.495 85.1094 184.359C85.6823 185.214 85.9688 186.286 85.9688 187.578V195.094C85.9688 195.865 86.0208 196.557 86.125 197.172C86.2396 197.776 86.401 198.302 86.6094 198.75V199H82.75C82.5729 198.594 82.4323 198.078 82.3281 197.453C82.2344 196.818 82.1875 196.203 82.1875 195.609ZM82.7344 188.719L82.7656 191.047H80.0625C79.3646 191.047 78.75 191.115 78.2188 191.25C77.6875 191.375 77.2448 191.562 76.8906 191.812C76.5365 192.062 76.2708 192.365 76.0938 192.719C75.9167 193.073 75.8281 193.474 75.8281 193.922C75.8281 194.37 75.9323 194.781 76.1406 195.156C76.349 195.521 76.651 195.807 77.0469 196.016C77.4531 196.224 77.9427 196.328 78.5156 196.328C79.2865 196.328 79.9583 196.172 80.5312 195.859C81.1146 195.536 81.5729 195.146 81.9062 194.688C82.2396 194.219 82.4167 193.776 82.4375 193.359L83.6562 195.031C83.5312 195.458 83.3177 195.917 83.0156 196.406C82.7135 196.896 82.3177 197.365 81.8281 197.812C81.349 198.25 80.7708 198.609 80.0938 198.891C79.4271 199.172 78.6562 199.312 77.7812 199.312C76.6771 199.312 75.6927 199.094 74.8281 198.656C73.9635 198.208 73.2865 197.609 72.7969 196.859C72.3073 196.099 72.0625 195.24 72.0625 194.281C72.0625 193.385 72.2292 192.594 72.5625 191.906C72.9062 191.208 73.4062 190.625 74.0625 190.156C74.7292 189.688 75.5417 189.333 76.5 189.094C77.4583 188.844 78.5521 188.719 79.7812 188.719H82.7344ZM93.9375 182.094V199H90.1562V182.094H93.9375ZM89.9062 177.656C89.9062 177.083 90.0938 176.609 90.4688 176.234C90.8542 175.849 91.3854 175.656 92.0625 175.656C92.7292 175.656 93.2552 175.849 93.6406 176.234C94.026 176.609 94.2188 177.083 94.2188 177.656C94.2188 178.219 94.026 178.688 93.6406 179.062C93.2552 179.438 92.7292 179.625 92.0625 179.625C91.3854 179.625 90.8542 179.438 90.4688 179.062C90.0938 178.688 89.9062 178.219 89.9062 177.656ZM107.547 194.422C107.547 194.047 107.453 193.708 107.266 193.406C107.078 193.094 106.719 192.812 106.188 192.562C105.667 192.312 104.896 192.083 103.875 191.875C102.979 191.677 102.156 191.443 101.406 191.172C100.667 190.891 100.031 190.552 99.5 190.156C98.9688 189.76 98.5573 189.292 98.2656 188.75C97.974 188.208 97.8281 187.583 97.8281 186.875C97.8281 186.188 97.9792 185.536 98.2812 184.922C98.5833 184.307 99.0156 183.766 99.5781 183.297C100.141 182.828 100.823 182.458 101.625 182.188C102.438 181.917 103.344 181.781 104.344 181.781C105.76 181.781 106.974 182.021 107.984 182.5C109.005 182.969 109.786 183.609 110.328 184.422C110.87 185.224 111.141 186.13 111.141 187.141H107.375C107.375 186.693 107.26 186.276 107.031 185.891C106.812 185.495 106.479 185.177 106.031 184.938C105.583 184.688 105.021 184.562 104.344 184.562C103.698 184.562 103.161 184.667 102.734 184.875C102.318 185.073 102.005 185.333 101.797 185.656C101.599 185.979 101.5 186.333 101.5 186.719C101.5 187 101.552 187.255 101.656 187.484C101.771 187.703 101.958 187.906 102.219 188.094C102.479 188.271 102.833 188.438 103.281 188.594C103.74 188.75 104.312 188.901 105 189.047C106.292 189.318 107.401 189.667 108.328 190.094C109.266 190.51 109.984 191.052 110.484 191.719C110.984 192.375 111.234 193.208 111.234 194.219C111.234 194.969 111.073 195.656 110.75 196.281C110.438 196.896 109.979 197.432 109.375 197.891C108.771 198.339 108.047 198.688 107.203 198.938C106.37 199.188 105.432 199.312 104.391 199.312C102.859 199.312 101.562 199.042 100.5 198.5C99.4375 197.948 98.6302 197.245 98.0781 196.391C97.5365 195.526 97.2656 194.63 97.2656 193.703H100.906C100.948 194.401 101.141 194.958 101.484 195.375C101.839 195.781 102.276 196.078 102.797 196.266C103.328 196.443 103.875 196.531 104.438 196.531C105.115 196.531 105.682 196.443 106.141 196.266C106.599 196.078 106.948 195.828 107.188 195.516C107.427 195.193 107.547 194.828 107.547 194.422ZM122.281 182.094V184.844H112.75V182.094H122.281ZM115.5 177.953H119.266V194.328C119.266 194.849 119.339 195.25 119.484 195.531C119.641 195.802 119.854 195.984 120.125 196.078C120.396 196.172 120.714 196.219 121.078 196.219C121.339 196.219 121.589 196.203 121.828 196.172C122.068 196.141 122.26 196.109 122.406 196.078L122.422 198.953C122.109 199.047 121.745 199.13 121.328 199.203C120.922 199.276 120.453 199.312 119.922 199.312C119.057 199.312 118.292 199.161 117.625 198.859C116.958 198.547 116.438 198.042 116.062 197.344C115.688 196.646 115.5 195.719 115.5 194.562V177.953ZM132.641 199.312C131.391 199.312 130.26 199.109 129.25 198.703C128.25 198.286 127.396 197.708 126.688 196.969C125.99 196.229 125.453 195.359 125.078 194.359C124.703 193.359 124.516 192.281 124.516 191.125V190.5C124.516 189.177 124.708 187.979 125.094 186.906C125.479 185.833 126.016 184.917 126.703 184.156C127.391 183.385 128.203 182.797 129.141 182.391C130.078 181.984 131.094 181.781 132.188 181.781C133.396 181.781 134.453 181.984 135.359 182.391C136.266 182.797 137.016 183.37 137.609 184.109C138.214 184.839 138.661 185.708 138.953 186.719C139.255 187.729 139.406 188.844 139.406 190.062V191.672H126.344V188.969H135.688V188.672C135.667 187.995 135.531 187.359 135.281 186.766C135.042 186.172 134.672 185.693 134.172 185.328C133.672 184.964 133.005 184.781 132.172 184.781C131.547 184.781 130.99 184.917 130.5 185.188C130.021 185.448 129.62 185.828 129.297 186.328C128.974 186.828 128.724 187.432 128.547 188.141C128.38 188.839 128.297 189.625 128.297 190.5V191.125C128.297 191.865 128.396 192.552 128.594 193.188C128.802 193.812 129.104 194.359 129.5 194.828C129.896 195.297 130.375 195.667 130.938 195.938C131.5 196.198 132.141 196.328 132.859 196.328C133.766 196.328 134.573 196.146 135.281 195.781C135.99 195.417 136.604 194.901 137.125 194.234L139.109 196.156C138.745 196.688 138.271 197.198 137.688 197.688C137.104 198.167 136.391 198.557 135.547 198.859C134.714 199.161 133.745 199.312 132.641 199.312ZM146.375 175V199H142.594V175H146.375ZM157.953 199.312C156.703 199.312 155.573 199.109 154.562 198.703C153.562 198.286 152.708 197.708 152 196.969C151.302 196.229 150.766 195.359 150.391 194.359C150.016 193.359 149.828 192.281 149.828 191.125V190.5C149.828 189.177 150.021 187.979 150.406 186.906C150.792 185.833 151.328 184.917 152.016 184.156C152.703 183.385 153.516 182.797 154.453 182.391C155.391 181.984 156.406 181.781 157.5 181.781C158.708 181.781 159.766 181.984 160.672 182.391C161.578 182.797 162.328 183.37 162.922 184.109C163.526 184.839 163.974 185.708 164.266 186.719C164.568 187.729 164.719 188.844 164.719 190.062V191.672H151.656V188.969H161V188.672C160.979 187.995 160.844 187.359 160.594 186.766C160.354 186.172 159.984 185.693 159.484 185.328C158.984 184.964 158.318 184.781 157.484 184.781C156.859 184.781 156.302 184.917 155.812 185.188C155.333 185.448 154.932 185.828 154.609 186.328C154.286 186.828 154.036 187.432 153.859 188.141C153.693 188.839 153.609 189.625 153.609 190.5V191.125C153.609 191.865 153.708 192.552 153.906 193.188C154.115 193.812 154.417 194.359 154.812 194.828C155.208 195.297 155.688 195.667 156.25 195.938C156.812 196.198 157.453 196.328 158.172 196.328C159.078 196.328 159.885 196.146 160.594 195.781C161.302 195.417 161.917 194.901 162.438 194.234L164.422 196.156C164.057 196.688 163.583 197.198 163 197.688C162.417 198.167 161.703 198.557 160.859 198.859C160.026 199.161 159.057 199.312 157.953 199.312ZM171.375 175V199H167.625V175H171.375ZM170.719 189.922L169.5 189.906C169.51 188.74 169.672 187.661 169.984 186.672C170.307 185.682 170.755 184.823 171.328 184.094C171.911 183.354 172.609 182.786 173.422 182.391C174.234 181.984 175.135 181.781 176.125 181.781C176.958 181.781 177.708 181.896 178.375 182.125C179.052 182.354 179.635 182.724 180.125 183.234C180.615 183.734 180.984 184.391 181.234 185.203C181.495 186.005 181.625 186.984 181.625 188.141V199H177.844V188.109C177.844 187.297 177.724 186.651 177.484 186.172C177.255 185.693 176.917 185.349 176.469 185.141C176.021 184.922 175.474 184.812 174.828 184.812C174.151 184.812 173.552 184.948 173.031 185.219C172.521 185.49 172.094 185.859 171.75 186.328C171.406 186.797 171.146 187.339 170.969 187.953C170.802 188.568 170.719 189.224 170.719 189.922ZM192.891 199.312C191.641 199.312 190.51 199.109 189.5 198.703C188.5 198.286 187.646 197.708 186.938 196.969C186.24 196.229 185.703 195.359 185.328 194.359C184.953 193.359 184.766 192.281 184.766 191.125V190.5C184.766 189.177 184.958 187.979 185.344 186.906C185.729 185.833 186.266 184.917 186.953 184.156C187.641 183.385 188.453 182.797 189.391 182.391C190.328 181.984 191.344 181.781 192.438 181.781C193.646 181.781 194.703 181.984 195.609 182.391C196.516 182.797 197.266 183.37 197.859 184.109C198.464 184.839 198.911 185.708 199.203 186.719C199.505 187.729 199.656 188.844 199.656 190.062V191.672H186.594V188.969H195.938V188.672C195.917 187.995 195.781 187.359 195.531 186.766C195.292 186.172 194.922 185.693 194.422 185.328C193.922 184.964 193.255 184.781 192.422 184.781C191.797 184.781 191.24 184.917 190.75 185.188C190.271 185.448 189.87 185.828 189.547 186.328C189.224 186.828 188.974 187.432 188.797 188.141C188.63 188.839 188.547 189.625 188.547 190.5V191.125C188.547 191.865 188.646 192.552 188.844 193.188C189.052 193.812 189.354 194.359 189.75 194.828C190.146 195.297 190.625 195.667 191.188 195.938C191.75 196.198 192.391 196.328 193.109 196.328C194.016 196.328 194.823 196.146 195.531 195.781C196.24 195.417 196.854 194.901 197.375 194.234L199.359 196.156C198.995 196.688 198.521 197.198 197.938 197.688C197.354 198.167 196.641 198.557 195.797 198.859C194.964 199.161 193.995 199.312 192.891 199.312ZM216.062 196.016L220.203 182.094H224.109L218.234 199H215.797L216.062 196.016ZM212.891 182.094L217.109 196.078L217.312 199H214.875L208.969 182.094H212.891ZM233.672 199.312C232.422 199.312 231.292 199.109 230.281 198.703C229.281 198.286 228.427 197.708 227.719 196.969C227.021 196.229 226.484 195.359 226.109 194.359C225.734 193.359 225.547 192.281 225.547 191.125V190.5C225.547 189.177 225.74 187.979 226.125 186.906C226.51 185.833 227.047 184.917 227.734 184.156C228.422 183.385 229.234 182.797 230.172 182.391C231.109 181.984 232.125 181.781 233.219 181.781C234.427 181.781 235.484 181.984 236.391 182.391C237.297 182.797 238.047 183.37 238.641 184.109C239.245 184.839 239.693 185.708 239.984 186.719C240.286 187.729 240.438 188.844 240.438 190.062V191.672H227.375V188.969H236.719V188.672C236.698 187.995 236.562 187.359 236.312 186.766C236.073 186.172 235.703 185.693 235.203 185.328C234.703 184.964 234.036 184.781 233.203 184.781C232.578 184.781 232.021 184.917 231.531 185.188C231.052 185.448 230.651 185.828 230.328 186.328C230.005 186.828 229.755 187.432 229.578 188.141C229.411 188.839 229.328 189.625 229.328 190.5V191.125C229.328 191.865 229.427 192.552 229.625 193.188C229.833 193.812 230.135 194.359 230.531 194.828C230.927 195.297 231.406 195.667 231.969 195.938C232.531 196.198 233.172 196.328 233.891 196.328C234.797 196.328 235.604 196.146 236.312 195.781C237.021 195.417 237.635 194.901 238.156 194.234L240.141 196.156C239.776 196.688 239.302 197.198 238.719 197.688C238.135 198.167 237.422 198.557 236.578 198.859C235.745 199.161 234.776 199.312 233.672 199.312ZM250.828 199.312C249.578 199.312 248.448 199.109 247.438 198.703C246.438 198.286 245.583 197.708 244.875 196.969C244.177 196.229 243.641 195.359 243.266 194.359C242.891 193.359 242.703 192.281 242.703 191.125V190.5C242.703 189.177 242.896 187.979 243.281 186.906C243.667 185.833 244.203 184.917 244.891 184.156C245.578 183.385 246.391 182.797 247.328 182.391C248.266 181.984 249.281 181.781 250.375 181.781C251.583 181.781 252.641 181.984 253.547 182.391C254.453 182.797 255.203 183.37 255.797 184.109C256.401 184.839 256.849 185.708 257.141 186.719C257.443 187.729 257.594 188.844 257.594 190.062V191.672H244.531V188.969H253.875V188.672C253.854 187.995 253.719 187.359 253.469 186.766C253.229 186.172 252.859 185.693 252.359 185.328C251.859 184.964 251.193 184.781 250.359 184.781C249.734 184.781 249.177 184.917 248.688 185.188C248.208 185.448 247.807 185.828 247.484 186.328C247.161 186.828 246.911 187.432 246.734 188.141C246.568 188.839 246.484 189.625 246.484 190.5V191.125C246.484 191.865 246.583 192.552 246.781 193.188C246.99 193.812 247.292 194.359 247.688 194.828C248.083 195.297 248.562 195.667 249.125 195.938C249.688 196.198 250.328 196.328 251.047 196.328C251.953 196.328 252.76 196.146 253.469 195.781C254.177 195.417 254.792 194.901 255.312 194.234L257.297 196.156C256.932 196.688 256.458 197.198 255.875 197.688C255.292 198.167 254.578 198.557 253.734 198.859C252.901 199.161 251.932 199.312 250.828 199.312ZM260.547 175H264.312V195.391L263.953 199H260.547V175ZM275.344 190.391V190.719C275.344 191.969 275.203 193.12 274.922 194.172C274.651 195.214 274.234 196.12 273.672 196.891C273.12 197.661 272.432 198.26 271.609 198.688C270.797 199.104 269.854 199.312 268.781 199.312C267.729 199.312 266.812 199.115 266.031 198.719C265.25 198.323 264.594 197.76 264.062 197.031C263.542 196.302 263.12 195.432 262.797 194.422C262.474 193.411 262.245 192.297 262.109 191.078V190.031C262.245 188.802 262.474 187.688 262.797 186.688C263.12 185.677 263.542 184.807 264.062 184.078C264.594 183.339 265.245 182.771 266.016 182.375C266.797 181.979 267.708 181.781 268.75 181.781C269.833 181.781 270.786 181.99 271.609 182.406C272.443 182.823 273.135 183.417 273.688 184.188C274.24 184.948 274.651 185.854 274.922 186.906C275.203 187.958 275.344 189.12 275.344 190.391ZM271.578 190.719V190.391C271.578 189.63 271.516 188.917 271.391 188.25C271.266 187.573 271.057 186.979 270.766 186.469C270.484 185.958 270.099 185.557 269.609 185.266C269.13 184.964 268.531 184.812 267.812 184.812C267.146 184.812 266.573 184.927 266.094 185.156C265.615 185.385 265.214 185.698 264.891 186.094C264.568 186.49 264.312 186.948 264.125 187.469C263.948 187.99 263.828 188.552 263.766 189.156V191.984C263.859 192.766 264.057 193.484 264.359 194.141C264.672 194.786 265.109 195.307 265.672 195.703C266.234 196.089 266.958 196.281 267.844 196.281C268.542 196.281 269.13 196.141 269.609 195.859C270.089 195.578 270.469 195.188 270.75 194.688C271.042 194.177 271.25 193.583 271.375 192.906C271.51 192.229 271.578 191.5 271.578 190.719ZM282.562 182.094V199H278.781V182.094H282.562ZM278.531 177.656C278.531 177.083 278.719 176.609 279.094 176.234C279.479 175.849 280.01 175.656 280.688 175.656C281.354 175.656 281.88 175.849 282.266 176.234C282.651 176.609 282.844 177.083 282.844 177.656C282.844 178.219 282.651 178.688 282.266 179.062C281.88 179.438 281.354 179.625 280.688 179.625C280.01 179.625 279.479 179.438 279.094 179.062C278.719 178.688 278.531 178.219 278.531 177.656ZM290.469 185.344V205.5H286.703V182.094H290.172L290.469 185.344ZM301.484 190.391V190.719C301.484 191.948 301.339 193.089 301.047 194.141C300.766 195.182 300.344 196.094 299.781 196.875C299.229 197.646 298.547 198.245 297.734 198.672C296.922 199.099 295.984 199.312 294.922 199.312C293.87 199.312 292.948 199.12 292.156 198.734C291.375 198.339 290.714 197.781 290.172 197.062C289.63 196.344 289.193 195.5 288.859 194.531C288.536 193.552 288.307 192.479 288.172 191.312V190.047C288.307 188.807 288.536 187.682 288.859 186.672C289.193 185.661 289.63 184.792 290.172 184.062C290.714 183.333 291.375 182.771 292.156 182.375C292.938 181.979 293.849 181.781 294.891 181.781C295.953 181.781 296.896 181.99 297.719 182.406C298.542 182.812 299.234 183.396 299.797 184.156C300.359 184.906 300.781 185.812 301.062 186.875C301.344 187.927 301.484 189.099 301.484 190.391ZM297.719 190.719V190.391C297.719 189.609 297.646 188.885 297.5 188.219C297.354 187.542 297.125 186.948 296.812 186.438C296.5 185.927 296.099 185.531 295.609 185.25C295.13 184.958 294.552 184.812 293.875 184.812C293.208 184.812 292.635 184.927 292.156 185.156C291.677 185.375 291.276 185.682 290.953 186.078C290.63 186.474 290.38 186.938 290.203 187.469C290.026 187.99 289.901 188.557 289.828 189.172V192.203C289.953 192.953 290.167 193.641 290.469 194.266C290.771 194.891 291.198 195.391 291.75 195.766C292.312 196.13 293.031 196.312 293.906 196.312C294.583 196.312 295.161 196.167 295.641 195.875C296.12 195.583 296.51 195.182 296.812 194.672C297.125 194.151 297.354 193.552 297.5 192.875C297.646 192.198 297.719 191.479 297.719 190.719ZM303.969 190.734V190.375C303.969 189.156 304.146 188.026 304.5 186.984C304.854 185.932 305.365 185.021 306.031 184.25C306.708 183.469 307.531 182.865 308.5 182.438C309.479 182 310.583 181.781 311.812 181.781C313.052 181.781 314.156 182 315.125 182.438C316.104 182.865 316.932 183.469 317.609 184.25C318.286 185.021 318.802 185.932 319.156 186.984C319.51 188.026 319.688 189.156 319.688 190.375V190.734C319.688 191.953 319.51 193.083 319.156 194.125C318.802 195.167 318.286 196.078 317.609 196.859C316.932 197.63 316.109 198.234 315.141 198.672C314.172 199.099 313.073 199.312 311.844 199.312C310.604 199.312 309.495 199.099 308.516 198.672C307.547 198.234 306.724 197.63 306.047 196.859C305.37 196.078 304.854 195.167 304.5 194.125C304.146 193.083 303.969 191.953 303.969 190.734ZM307.734 190.375V190.734C307.734 191.495 307.812 192.214 307.969 192.891C308.125 193.568 308.37 194.161 308.703 194.672C309.036 195.182 309.464 195.583 309.984 195.875C310.505 196.167 311.125 196.312 311.844 196.312C312.542 196.312 313.146 196.167 313.656 195.875C314.177 195.583 314.604 195.182 314.938 194.672C315.271 194.161 315.516 193.568 315.672 192.891C315.839 192.214 315.922 191.495 315.922 190.734V190.375C315.922 189.625 315.839 188.917 315.672 188.25C315.516 187.573 315.266 186.974 314.922 186.453C314.589 185.932 314.161 185.526 313.641 185.234C313.13 184.932 312.521 184.781 311.812 184.781C311.104 184.781 310.49 184.932 309.969 185.234C309.458 185.526 309.036 185.932 308.703 186.453C308.37 186.974 308.125 187.573 307.969 188.25C307.812 188.917 307.734 189.625 307.734 190.375ZM326.625 185.312V199H322.859V182.094H326.453L326.625 185.312ZM331.797 181.984L331.766 185.484C331.536 185.443 331.286 185.411 331.016 185.391C330.755 185.37 330.495 185.359 330.234 185.359C329.589 185.359 329.021 185.453 328.531 185.641C328.042 185.818 327.63 186.078 327.297 186.422C326.974 186.755 326.724 187.161 326.547 187.641C326.37 188.12 326.266 188.656 326.234 189.25L325.375 189.312C325.375 188.25 325.479 187.266 325.688 186.359C325.896 185.453 326.208 184.656 326.625 183.969C327.052 183.281 327.583 182.745 328.219 182.359C328.865 181.974 329.609 181.781 330.453 181.781C330.682 181.781 330.927 181.802 331.188 181.844C331.458 181.885 331.661 181.932 331.797 181.984ZM342.688 182.094V184.844H333.156V182.094H342.688ZM335.906 177.953H339.672V194.328C339.672 194.849 339.745 195.25 339.891 195.531C340.047 195.802 340.26 195.984 340.531 196.078C340.802 196.172 341.12 196.219 341.484 196.219C341.745 196.219 341.995 196.203 342.234 196.172C342.474 196.141 342.667 196.109 342.812 196.078L342.828 198.953C342.516 199.047 342.151 199.13 341.734 199.203C341.328 199.276 340.859 199.312 340.328 199.312C339.464 199.312 338.698 199.161 338.031 198.859C337.365 198.547 336.844 198.042 336.469 197.344C336.094 196.646 335.906 195.719 335.906 194.562V177.953ZM355.125 195.609V187.547C355.125 186.943 355.016 186.422 354.797 185.984C354.578 185.547 354.245 185.208 353.797 184.969C353.359 184.729 352.807 184.609 352.141 184.609C351.526 184.609 350.995 184.714 350.547 184.922C350.099 185.13 349.75 185.411 349.5 185.766C349.25 186.12 349.125 186.521 349.125 186.969H345.375C345.375 186.302 345.536 185.656 345.859 185.031C346.182 184.406 346.651 183.849 347.266 183.359C347.88 182.87 348.615 182.484 349.469 182.203C350.323 181.922 351.281 181.781 352.344 181.781C353.615 181.781 354.74 181.995 355.719 182.422C356.708 182.849 357.484 183.495 358.047 184.359C358.62 185.214 358.906 186.286 358.906 187.578V195.094C358.906 195.865 358.958 196.557 359.062 197.172C359.177 197.776 359.339 198.302 359.547 198.75V199H355.688C355.51 198.594 355.37 198.078 355.266 197.453C355.172 196.818 355.125 196.203 355.125 195.609ZM355.672 188.719L355.703 191.047H353C352.302 191.047 351.688 191.115 351.156 191.25C350.625 191.375 350.182 191.562 349.828 191.812C349.474 192.062 349.208 192.365 349.031 192.719C348.854 193.073 348.766 193.474 348.766 193.922C348.766 194.37 348.87 194.781 349.078 195.156C349.286 195.521 349.589 195.807 349.984 196.016C350.391 196.224 350.88 196.328 351.453 196.328C352.224 196.328 352.896 196.172 353.469 195.859C354.052 195.536 354.51 195.146 354.844 194.688C355.177 194.219 355.354 193.776 355.375 193.359L356.594 195.031C356.469 195.458 356.255 195.917 355.953 196.406C355.651 196.896 355.255 197.365 354.766 197.812C354.286 198.25 353.708 198.609 353.031 198.891C352.365 199.172 351.594 199.312 350.719 199.312C349.615 199.312 348.63 199.094 347.766 198.656C346.901 198.208 346.224 197.609 345.734 196.859C345.245 196.099 345 195.24 345 194.281C345 193.385 345.167 192.594 345.5 191.906C345.844 191.208 346.344 190.625 347 190.156C347.667 189.688 348.479 189.333 349.438 189.094C350.396 188.844 351.49 188.719 352.719 188.719H355.672ZM372.375 195.609V187.547C372.375 186.943 372.266 186.422 372.047 185.984C371.828 185.547 371.495 185.208 371.047 184.969C370.609 184.729 370.057 184.609 369.391 184.609C368.776 184.609 368.245 184.714 367.797 184.922C367.349 185.13 367 185.411 366.75 185.766C366.5 186.12 366.375 186.521 366.375 186.969H362.625C362.625 186.302 362.786 185.656 363.109 185.031C363.432 184.406 363.901 183.849 364.516 183.359C365.13 182.87 365.865 182.484 366.719 182.203C367.573 181.922 368.531 181.781 369.594 181.781C370.865 181.781 371.99 181.995 372.969 182.422C373.958 182.849 374.734 183.495 375.297 184.359C375.87 185.214 376.156 186.286 376.156 187.578V195.094C376.156 195.865 376.208 196.557 376.312 197.172C376.427 197.776 376.589 198.302 376.797 198.75V199H372.938C372.76 198.594 372.62 198.078 372.516 197.453C372.422 196.818 372.375 196.203 372.375 195.609ZM372.922 188.719L372.953 191.047H370.25C369.552 191.047 368.938 191.115 368.406 191.25C367.875 191.375 367.432 191.562 367.078 191.812C366.724 192.062 366.458 192.365 366.281 192.719C366.104 193.073 366.016 193.474 366.016 193.922C366.016 194.37 366.12 194.781 366.328 195.156C366.536 195.521 366.839 195.807 367.234 196.016C367.641 196.224 368.13 196.328 368.703 196.328C369.474 196.328 370.146 196.172 370.719 195.859C371.302 195.536 371.76 195.146 372.094 194.688C372.427 194.219 372.604 193.776 372.625 193.359L373.844 195.031C373.719 195.458 373.505 195.917 373.203 196.406C372.901 196.896 372.505 197.365 372.016 197.812C371.536 198.25 370.958 198.609 370.281 198.891C369.615 199.172 368.844 199.312 367.969 199.312C366.865 199.312 365.88 199.094 365.016 198.656C364.151 198.208 363.474 197.609 362.984 196.859C362.495 196.099 362.25 195.24 362.25 194.281C362.25 193.385 362.417 192.594 362.75 191.906C363.094 191.208 363.594 190.625 364.25 190.156C364.917 189.688 365.729 189.333 366.688 189.094C367.646 188.844 368.74 188.719 369.969 188.719H372.922ZM384.125 175V199H380.344V175H384.125ZM405.75 195.609V187.547C405.75 186.943 405.641 186.422 405.422 185.984C405.203 185.547 404.87 185.208 404.422 184.969C403.984 184.729 403.432 184.609 402.766 184.609C402.151 184.609 401.62 184.714 401.172 184.922C400.724 185.13 400.375 185.411 400.125 185.766C399.875 186.12 399.75 186.521 399.75 186.969H396C396 186.302 396.161 185.656 396.484 185.031C396.807 184.406 397.276 183.849 397.891 183.359C398.505 182.87 399.24 182.484 400.094 182.203C400.948 181.922 401.906 181.781 402.969 181.781C404.24 181.781 405.365 181.995 406.344 182.422C407.333 182.849 408.109 183.495 408.672 184.359C409.245 185.214 409.531 186.286 409.531 187.578V195.094C409.531 195.865 409.583 196.557 409.688 197.172C409.802 197.776 409.964 198.302 410.172 198.75V199H406.312C406.135 198.594 405.995 198.078 405.891 197.453C405.797 196.818 405.75 196.203 405.75 195.609ZM406.297 188.719L406.328 191.047H403.625C402.927 191.047 402.312 191.115 401.781 191.25C401.25 191.375 400.807 191.562 400.453 191.812C400.099 192.062 399.833 192.365 399.656 192.719C399.479 193.073 399.391 193.474 399.391 193.922C399.391 194.37 399.495 194.781 399.703 195.156C399.911 195.521 400.214 195.807 400.609 196.016C401.016 196.224 401.505 196.328 402.078 196.328C402.849 196.328 403.521 196.172 404.094 195.859C404.677 195.536 405.135 195.146 405.469 194.688C405.802 194.219 405.979 193.776 406 193.359L407.219 195.031C407.094 195.458 406.88 195.917 406.578 196.406C406.276 196.896 405.88 197.365 405.391 197.812C404.911 198.25 404.333 198.609 403.656 198.891C402.99 199.172 402.219 199.312 401.344 199.312C400.24 199.312 399.255 199.094 398.391 198.656C397.526 198.208 396.849 197.609 396.359 196.859C395.87 196.099 395.625 195.24 395.625 194.281C395.625 193.385 395.792 192.594 396.125 191.906C396.469 191.208 396.969 190.625 397.625 190.156C398.292 189.688 399.104 189.333 400.062 189.094C401.021 188.844 402.115 188.719 403.344 188.719H406.297ZM417.5 182.094V199H413.719V182.094H417.5ZM413.469 177.656C413.469 177.083 413.656 176.609 414.031 176.234C414.417 175.849 414.948 175.656 415.625 175.656C416.292 175.656 416.818 175.849 417.203 176.234C417.589 176.609 417.781 177.083 417.781 177.656C417.781 178.219 417.589 178.688 417.203 179.062C416.818 179.438 416.292 179.625 415.625 179.625C414.948 179.625 414.417 179.438 414.031 179.062C413.656 178.688 413.469 178.219 413.469 177.656ZM429.375 182.094V184.844H419.844V182.094H429.375ZM422.594 177.953H426.359V194.328C426.359 194.849 426.432 195.25 426.578 195.531C426.734 195.802 426.948 195.984 427.219 196.078C427.49 196.172 427.807 196.219 428.172 196.219C428.432 196.219 428.682 196.203 428.922 196.172C429.161 196.141 429.354 196.109 429.5 196.078L429.516 198.953C429.203 199.047 428.839 199.13 428.422 199.203C428.016 199.276 427.547 199.312 427.016 199.312C426.151 199.312 425.385 199.161 424.719 198.859C424.052 198.547 423.531 198.042 423.156 197.344C422.781 196.646 422.594 195.719 422.594 194.562V177.953ZM441.812 195.609V187.547C441.812 186.943 441.703 186.422 441.484 185.984C441.266 185.547 440.932 185.208 440.484 184.969C440.047 184.729 439.495 184.609 438.828 184.609C438.214 184.609 437.682 184.714 437.234 184.922C436.786 185.13 436.438 185.411 436.188 185.766C435.938 186.12 435.812 186.521 435.812 186.969H432.062C432.062 186.302 432.224 185.656 432.547 185.031C432.87 184.406 433.339 183.849 433.953 183.359C434.568 182.87 435.302 182.484 436.156 182.203C437.01 181.922 437.969 181.781 439.031 181.781C440.302 181.781 441.427 181.995 442.406 182.422C443.396 182.849 444.172 183.495 444.734 184.359C445.307 185.214 445.594 186.286 445.594 187.578V195.094C445.594 195.865 445.646 196.557 445.75 197.172C445.865 197.776 446.026 198.302 446.234 198.75V199H442.375C442.198 198.594 442.057 198.078 441.953 197.453C441.859 196.818 441.812 196.203 441.812 195.609ZM442.359 188.719L442.391 191.047H439.688C438.99 191.047 438.375 191.115 437.844 191.25C437.312 191.375 436.87 191.562 436.516 191.812C436.161 192.062 435.896 192.365 435.719 192.719C435.542 193.073 435.453 193.474 435.453 193.922C435.453 194.37 435.557 194.781 435.766 195.156C435.974 195.521 436.276 195.807 436.672 196.016C437.078 196.224 437.568 196.328 438.141 196.328C438.911 196.328 439.583 196.172 440.156 195.859C440.74 195.536 441.198 195.146 441.531 194.688C441.865 194.219 442.042 193.776 442.062 193.359L443.281 195.031C443.156 195.458 442.943 195.917 442.641 196.406C442.339 196.896 441.943 197.365 441.453 197.812C440.974 198.25 440.396 198.609 439.719 198.891C439.052 199.172 438.281 199.312 437.406 199.312C436.302 199.312 435.318 199.094 434.453 198.656C433.589 198.208 432.911 197.609 432.422 196.859C431.932 196.099 431.688 195.24 431.688 194.281C431.688 193.385 431.854 192.594 432.188 191.906C432.531 191.208 433.031 190.625 433.688 190.156C434.354 189.688 435.167 189.333 436.125 189.094C437.083 188.844 438.177 188.719 439.406 188.719H442.359ZM449.547 175H453.312V195.391L452.953 199H449.547V175ZM464.344 190.391V190.719C464.344 191.969 464.203 193.12 463.922 194.172C463.651 195.214 463.234 196.12 462.672 196.891C462.12 197.661 461.432 198.26 460.609 198.688C459.797 199.104 458.854 199.312 457.781 199.312C456.729 199.312 455.812 199.115 455.031 198.719C454.25 198.323 453.594 197.76 453.062 197.031C452.542 196.302 452.12 195.432 451.797 194.422C451.474 193.411 451.245 192.297 451.109 191.078V190.031C451.245 188.802 451.474 187.688 451.797 186.688C452.12 185.677 452.542 184.807 453.062 184.078C453.594 183.339 454.245 182.771 455.016 182.375C455.797 181.979 456.708 181.781 457.75 181.781C458.833 181.781 459.786 181.99 460.609 182.406C461.443 182.823 462.135 183.417 462.688 184.188C463.24 184.948 463.651 185.854 463.922 186.906C464.203 187.958 464.344 189.12 464.344 190.391ZM460.578 190.719V190.391C460.578 189.63 460.516 188.917 460.391 188.25C460.266 187.573 460.057 186.979 459.766 186.469C459.484 185.958 459.099 185.557 458.609 185.266C458.13 184.964 457.531 184.812 456.812 184.812C456.146 184.812 455.573 184.927 455.094 185.156C454.615 185.385 454.214 185.698 453.891 186.094C453.568 186.49 453.312 186.948 453.125 187.469C452.948 187.99 452.828 188.552 452.766 189.156V191.984C452.859 192.766 453.057 193.484 453.359 194.141C453.672 194.786 454.109 195.307 454.672 195.703C455.234 196.089 455.958 196.281 456.844 196.281C457.542 196.281 458.13 196.141 458.609 195.859C459.089 195.578 459.469 195.188 459.75 194.688C460.042 194.177 460.25 193.583 460.375 192.906C460.51 192.229 460.578 191.5 460.578 190.719ZM483.25 182.094V184.844H473.719V182.094H483.25ZM476.469 177.953H480.234V194.328C480.234 194.849 480.307 195.25 480.453 195.531C480.609 195.802 480.823 195.984 481.094 196.078C481.365 196.172 481.682 196.219 482.047 196.219C482.307 196.219 482.557 196.203 482.797 196.172C483.036 196.141 483.229 196.109 483.375 196.078L483.391 198.953C483.078 199.047 482.714 199.13 482.297 199.203C481.891 199.276 481.422 199.312 480.891 199.312C480.026 199.312 479.26 199.161 478.594 198.859C477.927 198.547 477.406 198.042 477.031 197.344C476.656 196.646 476.469 195.719 476.469 194.562V177.953ZM493.609 199.312C492.359 199.312 491.229 199.109 490.219 198.703C489.219 198.286 488.365 197.708 487.656 196.969C486.958 196.229 486.422 195.359 486.047 194.359C485.672 193.359 485.484 192.281 485.484 191.125V190.5C485.484 189.177 485.677 187.979 486.062 186.906C486.448 185.833 486.984 184.917 487.672 184.156C488.359 183.385 489.172 182.797 490.109 182.391C491.047 181.984 492.062 181.781 493.156 181.781C494.365 181.781 495.422 181.984 496.328 182.391C497.234 182.797 497.984 183.37 498.578 184.109C499.182 184.839 499.63 185.708 499.922 186.719C500.224 187.729 500.375 188.844 500.375 190.062V191.672H487.312V188.969H496.656V188.672C496.635 187.995 496.5 187.359 496.25 186.766C496.01 186.172 495.641 185.693 495.141 185.328C494.641 184.964 493.974 184.781 493.141 184.781C492.516 184.781 491.958 184.917 491.469 185.188C490.99 185.448 490.589 185.828 490.266 186.328C489.943 186.828 489.693 187.432 489.516 188.141C489.349 188.839 489.266 189.625 489.266 190.5V191.125C489.266 191.865 489.365 192.552 489.562 193.188C489.771 193.812 490.073 194.359 490.469 194.828C490.865 195.297 491.344 195.667 491.906 195.938C492.469 196.198 493.109 196.328 493.828 196.328C494.734 196.328 495.542 196.146 496.25 195.781C496.958 195.417 497.573 194.901 498.094 194.234L500.078 196.156C499.714 196.688 499.24 197.198 498.656 197.688C498.073 198.167 497.359 198.557 496.516 198.859C495.682 199.161 494.714 199.312 493.609 199.312ZM507.031 175V199H503.281V175H507.031ZM506.375 189.922L505.156 189.906C505.167 188.74 505.328 187.661 505.641 186.672C505.964 185.682 506.411 184.823 506.984 184.094C507.568 183.354 508.266 182.786 509.078 182.391C509.891 181.984 510.792 181.781 511.781 181.781C512.615 181.781 513.365 181.896 514.031 182.125C514.708 182.354 515.292 182.724 515.781 183.234C516.271 183.734 516.641 184.391 516.891 185.203C517.151 186.005 517.281 186.984 517.281 188.141V199H513.5V188.109C513.5 187.297 513.38 186.651 513.141 186.172C512.911 185.693 512.573 185.349 512.125 185.141C511.677 184.922 511.13 184.812 510.484 184.812C509.807 184.812 509.208 184.948 508.688 185.219C508.177 185.49 507.75 185.859 507.406 186.328C507.062 186.797 506.802 187.339 506.625 187.953C506.458 188.568 506.375 189.224 506.375 189.922ZM530.625 195.609V187.547C530.625 186.943 530.516 186.422 530.297 185.984C530.078 185.547 529.745 185.208 529.297 184.969C528.859 184.729 528.307 184.609 527.641 184.609C527.026 184.609 526.495 184.714 526.047 184.922C525.599 185.13 525.25 185.411 525 185.766C524.75 186.12 524.625 186.521 524.625 186.969H520.875C520.875 186.302 521.036 185.656 521.359 185.031C521.682 184.406 522.151 183.849 522.766 183.359C523.38 182.87 524.115 182.484 524.969 182.203C525.823 181.922 526.781 181.781 527.844 181.781C529.115 181.781 530.24 181.995 531.219 182.422C532.208 182.849 532.984 183.495 533.547 184.359C534.12 185.214 534.406 186.286 534.406 187.578V195.094C534.406 195.865 534.458 196.557 534.562 197.172C534.677 197.776 534.839 198.302 535.047 198.75V199H531.188C531.01 198.594 530.87 198.078 530.766 197.453C530.672 196.818 530.625 196.203 530.625 195.609ZM531.172 188.719L531.203 191.047H528.5C527.802 191.047 527.188 191.115 526.656 191.25C526.125 191.375 525.682 191.562 525.328 191.812C524.974 192.062 524.708 192.365 524.531 192.719C524.354 193.073 524.266 193.474 524.266 193.922C524.266 194.37 524.37 194.781 524.578 195.156C524.786 195.521 525.089 195.807 525.484 196.016C525.891 196.224 526.38 196.328 526.953 196.328C527.724 196.328 528.396 196.172 528.969 195.859C529.552 195.536 530.01 195.146 530.344 194.688C530.677 194.219 530.854 193.776 530.875 193.359L532.094 195.031C531.969 195.458 531.755 195.917 531.453 196.406C531.151 196.896 530.755 197.365 530.266 197.812C529.786 198.25 529.208 198.609 528.531 198.891C527.865 199.172 527.094 199.312 526.219 199.312C525.115 199.312 524.13 199.094 523.266 198.656C522.401 198.208 521.724 197.609 521.234 196.859C520.745 196.099 520.5 195.24 520.5 194.281C520.5 193.385 520.667 192.594 521 191.906C521.344 191.208 521.844 190.625 522.5 190.156C523.167 189.688 523.979 189.333 524.938 189.094C525.896 188.844 526.99 188.719 528.219 188.719H531.172ZM555.797 194.422C555.797 194.047 555.703 193.708 555.516 193.406C555.328 193.094 554.969 192.812 554.438 192.562C553.917 192.312 553.146 192.083 552.125 191.875C551.229 191.677 550.406 191.443 549.656 191.172C548.917 190.891 548.281 190.552 547.75 190.156C547.219 189.76 546.807 189.292 546.516 188.75C546.224 188.208 546.078 187.583 546.078 186.875C546.078 186.188 546.229 185.536 546.531 184.922C546.833 184.307 547.266 183.766 547.828 183.297C548.391 182.828 549.073 182.458 549.875 182.188C550.688 181.917 551.594 181.781 552.594 181.781C554.01 181.781 555.224 182.021 556.234 182.5C557.255 182.969 558.036 183.609 558.578 184.422C559.12 185.224 559.391 186.13 559.391 187.141H555.625C555.625 186.693 555.51 186.276 555.281 185.891C555.062 185.495 554.729 185.177 554.281 184.938C553.833 184.688 553.271 184.562 552.594 184.562C551.948 184.562 551.411 184.667 550.984 184.875C550.568 185.073 550.255 185.333 550.047 185.656C549.849 185.979 549.75 186.333 549.75 186.719C549.75 187 549.802 187.255 549.906 187.484C550.021 187.703 550.208 187.906 550.469 188.094C550.729 188.271 551.083 188.438 551.531 188.594C551.99 188.75 552.562 188.901 553.25 189.047C554.542 189.318 555.651 189.667 556.578 190.094C557.516 190.51 558.234 191.052 558.734 191.719C559.234 192.375 559.484 193.208 559.484 194.219C559.484 194.969 559.323 195.656 559 196.281C558.688 196.896 558.229 197.432 557.625 197.891C557.021 198.339 556.297 198.688 555.453 198.938C554.62 199.188 553.682 199.312 552.641 199.312C551.109 199.312 549.812 199.042 548.75 198.5C547.688 197.948 546.88 197.245 546.328 196.391C545.786 195.526 545.516 194.63 545.516 193.703H549.156C549.198 194.401 549.391 194.958 549.734 195.375C550.089 195.781 550.526 196.078 551.047 196.266C551.578 196.443 552.125 196.531 552.688 196.531C553.365 196.531 553.932 196.443 554.391 196.266C554.849 196.078 555.198 195.828 555.438 195.516C555.677 195.193 555.797 194.828 555.797 194.422ZM570.531 182.094V184.844H561V182.094H570.531ZM563.75 177.953H567.516V194.328C567.516 194.849 567.589 195.25 567.734 195.531C567.891 195.802 568.104 195.984 568.375 196.078C568.646 196.172 568.964 196.219 569.328 196.219C569.589 196.219 569.839 196.203 570.078 196.172C570.318 196.141 570.51 196.109 570.656 196.078L570.672 198.953C570.359 199.047 569.995 199.13 569.578 199.203C569.172 199.276 568.703 199.312 568.172 199.312C567.307 199.312 566.542 199.161 565.875 198.859C565.208 198.547 564.688 198.042 564.312 197.344C563.938 196.646 563.75 195.719 563.75 194.562V177.953ZM577.469 182.094V199H573.688V182.094H577.469ZM573.438 177.656C573.438 177.083 573.625 176.609 574 176.234C574.385 175.849 574.917 175.656 575.594 175.656C576.26 175.656 576.786 175.849 577.172 176.234C577.557 176.609 577.75 177.083 577.75 177.656C577.75 178.219 577.557 178.688 577.172 179.062C576.786 179.438 576.26 179.625 575.594 179.625C574.917 179.625 574.385 179.438 574 179.062C573.625 178.688 573.438 178.219 573.438 177.656ZM585.625 182.094V199H581.844V182.094H585.625ZM581.594 177.656C581.594 177.083 581.781 176.609 582.156 176.234C582.542 175.849 583.073 175.656 583.75 175.656C584.417 175.656 584.943 175.849 585.328 176.234C585.714 176.609 585.906 177.083 585.906 177.656C585.906 178.219 585.714 178.688 585.328 179.062C584.943 179.438 584.417 179.625 583.75 179.625C583.073 179.625 582.542 179.438 582.156 179.062C581.781 178.688 581.594 178.219 581.594 177.656ZM593.781 175V199H590V175H593.781ZM607.391 194.422C607.391 194.047 607.297 193.708 607.109 193.406C606.922 193.094 606.562 192.812 606.031 192.562C605.51 192.312 604.74 192.083 603.719 191.875C602.823 191.677 602 191.443 601.25 191.172C600.51 190.891 599.875 190.552 599.344 190.156C598.812 189.76 598.401 189.292 598.109 188.75C597.818 188.208 597.672 187.583 597.672 186.875C597.672 186.188 597.823 185.536 598.125 184.922C598.427 184.307 598.859 183.766 599.422 183.297C599.984 182.828 600.667 182.458 601.469 182.188C602.281 181.917 603.188 181.781 604.188 181.781C605.604 181.781 606.818 182.021 607.828 182.5C608.849 182.969 609.63 183.609 610.172 184.422C610.714 185.224 610.984 186.13 610.984 187.141H607.219C607.219 186.693 607.104 186.276 606.875 185.891C606.656 185.495 606.323 185.177 605.875 184.938C605.427 184.688 604.865 184.562 604.188 184.562C603.542 184.562 603.005 184.667 602.578 184.875C602.161 185.073 601.849 185.333 601.641 185.656C601.443 185.979 601.344 186.333 601.344 186.719C601.344 187 601.396 187.255 601.5 187.484C601.615 187.703 601.802 187.906 602.062 188.094C602.323 188.271 602.677 188.438 603.125 188.594C603.583 188.75 604.156 188.901 604.844 189.047C606.135 189.318 607.245 189.667 608.172 190.094C609.109 190.51 609.828 191.052 610.328 191.719C610.828 192.375 611.078 193.208 611.078 194.219C611.078 194.969 610.917 195.656 610.594 196.281C610.281 196.896 609.823 197.432 609.219 197.891C608.615 198.339 607.891 198.688 607.047 198.938C606.214 199.188 605.276 199.312 604.234 199.312C602.703 199.312 601.406 199.042 600.344 198.5C599.281 197.948 598.474 197.245 597.922 196.391C597.38 195.526 597.109 194.63 597.109 193.703H600.75C600.792 194.401 600.984 194.958 601.328 195.375C601.682 195.781 602.12 196.078 602.641 196.266C603.172 196.443 603.719 196.531 604.281 196.531C604.958 196.531 605.526 196.443 605.984 196.266C606.443 196.078 606.792 195.828 607.031 195.516C607.271 195.193 607.391 194.828 607.391 194.422ZM621.828 199.312C620.578 199.312 619.448 199.109 618.438 198.703C617.438 198.286 616.583 197.708 615.875 196.969C615.177 196.229 614.641 195.359 614.266 194.359C613.891 193.359 613.703 192.281 613.703 191.125V190.5C613.703 189.177 613.896 187.979 614.281 186.906C614.667 185.833 615.203 184.917 615.891 184.156C616.578 183.385 617.391 182.797 618.328 182.391C619.266 181.984 620.281 181.781 621.375 181.781C622.583 181.781 623.641 181.984 624.547 182.391C625.453 182.797 626.203 183.37 626.797 184.109C627.401 184.839 627.849 185.708 628.141 186.719C628.443 187.729 628.594 188.844 628.594 190.062V191.672H615.531V188.969H624.875V188.672C624.854 187.995 624.719 187.359 624.469 186.766C624.229 186.172 623.859 185.693 623.359 185.328C622.859 184.964 622.193 184.781 621.359 184.781C620.734 184.781 620.177 184.917 619.688 185.188C619.208 185.448 618.807 185.828 618.484 186.328C618.161 186.828 617.911 187.432 617.734 188.141C617.568 188.839 617.484 189.625 617.484 190.5V191.125C617.484 191.865 617.583 192.552 617.781 193.188C617.99 193.812 618.292 194.359 618.688 194.828C619.083 195.297 619.562 195.667 620.125 195.938C620.688 196.198 621.328 196.328 622.047 196.328C622.953 196.328 623.76 196.146 624.469 195.781C625.177 195.417 625.792 194.901 626.312 194.234L628.297 196.156C627.932 196.688 627.458 197.198 626.875 197.688C626.292 198.167 625.578 198.557 624.734 198.859C623.901 199.161 622.932 199.312 621.828 199.312ZM635.562 182.094V199H631.781V182.094H635.562ZM631.531 177.656C631.531 177.083 631.719 176.609 632.094 176.234C632.479 175.849 633.01 175.656 633.688 175.656C634.354 175.656 634.88 175.849 635.266 176.234C635.651 176.609 635.844 177.083 635.844 177.656C635.844 178.219 635.651 178.688 635.266 179.062C634.88 179.438 634.354 179.625 633.688 179.625C633.01 179.625 632.479 179.438 632.094 179.062C631.719 178.688 631.531 178.219 631.531 177.656ZM650 195.5V175H653.781V199H650.359L650 195.5ZM639 190.734V190.406C639 189.125 639.151 187.958 639.453 186.906C639.755 185.844 640.193 184.932 640.766 184.172C641.339 183.401 642.036 182.812 642.859 182.406C643.682 181.99 644.609 181.781 645.641 181.781C646.661 181.781 647.557 181.979 648.328 182.375C649.099 182.771 649.755 183.339 650.297 184.078C650.839 184.807 651.271 185.682 651.594 186.703C651.917 187.714 652.146 188.839 652.281 190.078V191.125C652.146 192.333 651.917 193.438 651.594 194.438C651.271 195.438 650.839 196.302 650.297 197.031C649.755 197.76 649.094 198.323 648.312 198.719C647.542 199.115 646.641 199.312 645.609 199.312C644.589 199.312 643.667 199.099 642.844 198.672C642.031 198.245 641.339 197.646 640.766 196.875C640.193 196.104 639.755 195.198 639.453 194.156C639.151 193.104 639 191.964 639 190.734ZM642.766 190.406V190.734C642.766 191.505 642.833 192.224 642.969 192.891C643.115 193.557 643.339 194.146 643.641 194.656C643.943 195.156 644.333 195.552 644.812 195.844C645.302 196.125 645.885 196.266 646.562 196.266C647.417 196.266 648.12 196.078 648.672 195.703C649.224 195.328 649.656 194.823 649.969 194.188C650.292 193.542 650.51 192.823 650.625 192.031V189.203C650.562 188.589 650.432 188.016 650.234 187.484C650.047 186.953 649.792 186.49 649.469 186.094C649.146 185.688 648.745 185.375 648.266 185.156C647.797 184.927 647.24 184.812 646.594 184.812C645.906 184.812 645.323 184.958 644.844 185.25C644.365 185.542 643.969 185.943 643.656 186.453C643.354 186.964 643.13 187.557 642.984 188.234C642.839 188.911 642.766 189.635 642.766 190.406ZM55.4375 236.016L59.5781 222.094H63.4844L57.6094 239H55.1719L55.4375 236.016ZM52.2656 222.094L56.4844 236.078L56.6875 239H54.25L48.3438 222.094H52.2656ZM75.0938 235.609V227.547C75.0938 226.943 74.9844 226.422 74.7656 225.984C74.5469 225.547 74.2135 225.208 73.7656 224.969C73.3281 224.729 72.776 224.609 72.1094 224.609C71.4948 224.609 70.9635 224.714 70.5156 224.922C70.0677 225.13 69.7188 225.411 69.4688 225.766C69.2188 226.12 69.0938 226.521 69.0938 226.969H65.3438C65.3438 226.302 65.5052 225.656 65.8281 225.031C66.151 224.406 66.6198 223.849 67.2344 223.359C67.849 222.87 68.5833 222.484 69.4375 222.203C70.2917 221.922 71.25 221.781 72.3125 221.781C73.5833 221.781 74.7083 221.995 75.6875 222.422C76.6771 222.849 77.4531 223.495 78.0156 224.359C78.5885 225.214 78.875 226.286 78.875 227.578V235.094C78.875 235.865 78.9271 236.557 79.0312 237.172C79.1458 237.776 79.3073 238.302 79.5156 238.75V239H75.6562C75.4792 238.594 75.3385 238.078 75.2344 237.453C75.1406 236.818 75.0938 236.203 75.0938 235.609ZM75.6406 228.719L75.6719 231.047H72.9688C72.2708 231.047 71.6562 231.115 71.125 231.25C70.5938 231.375 70.151 231.562 69.7969 231.812C69.4427 232.062 69.1771 232.365 69 232.719C68.8229 233.073 68.7344 233.474 68.7344 233.922C68.7344 234.37 68.8385 234.781 69.0469 235.156C69.2552 235.521 69.5573 235.807 69.9531 236.016C70.3594 236.224 70.849 236.328 71.4219 236.328C72.1927 236.328 72.8646 236.172 73.4375 235.859C74.0208 235.536 74.4792 235.146 74.8125 234.688C75.1458 234.219 75.3229 233.776 75.3438 233.359L76.5625 235.031C76.4375 235.458 76.224 235.917 75.9219 236.406C75.6198 236.896 75.224 237.365 74.7344 237.812C74.2552 238.25 73.6771 238.609 73 238.891C72.3333 239.172 71.5625 239.312 70.6875 239.312C69.5833 239.312 68.599 239.094 67.7344 238.656C66.8698 238.208 66.1927 237.609 65.7031 236.859C65.2135 236.099 64.9688 235.24 64.9688 234.281C64.9688 233.385 65.1354 232.594 65.4688 231.906C65.8125 231.208 66.3125 230.625 66.9688 230.156C67.6354 229.688 68.4479 229.333 69.4062 229.094C70.3646 228.844 71.4583 228.719 72.6875 228.719H75.6406ZM86.8438 215V239H83.0625V215H86.8438ZM95 222.094V239H91.2188V222.094H95ZM90.9688 217.656C90.9688 217.083 91.1562 216.609 91.5312 216.234C91.9167 215.849 92.4479 215.656 93.125 215.656C93.7917 215.656 94.3177 215.849 94.7031 216.234C95.0885 216.609 95.2812 217.083 95.2812 217.656C95.2812 218.219 95.0885 218.688 94.7031 219.062C94.3177 219.438 93.7917 219.625 93.125 219.625C92.4479 219.625 91.9167 219.438 91.5312 219.062C91.1562 218.688 90.9688 218.219 90.9688 217.656ZM102.922 215V239H99.1406V215H102.922ZM113.422 222.094L106.062 230.25L102.031 234.375L101.047 231.188L104.094 227.422L108.875 222.094H113.422ZM109.688 239L104.203 231.062L106.578 228.422L114.047 239H109.688ZM125.984 235.016V222.094H129.766V239H126.203L125.984 235.016ZM126.516 231.5L127.781 231.469C127.781 232.604 127.656 233.651 127.406 234.609C127.156 235.557 126.771 236.385 126.25 237.094C125.729 237.792 125.062 238.339 124.25 238.734C123.438 239.12 122.464 239.312 121.328 239.312C120.505 239.312 119.75 239.193 119.062 238.953C118.375 238.714 117.781 238.344 117.281 237.844C116.792 237.344 116.411 236.693 116.141 235.891C115.87 235.089 115.734 234.13 115.734 233.016V222.094H119.5V233.047C119.5 233.661 119.573 234.177 119.719 234.594C119.865 235 120.062 235.328 120.312 235.578C120.562 235.828 120.854 236.005 121.188 236.109C121.521 236.214 121.875 236.266 122.25 236.266C123.323 236.266 124.167 236.057 124.781 235.641C125.406 235.214 125.849 234.641 126.109 233.922C126.38 233.203 126.516 232.396 126.516 231.5ZM137.656 222.094V239H133.875V222.094H137.656ZM133.625 217.656C133.625 217.083 133.812 216.609 134.188 216.234C134.573 215.849 135.104 215.656 135.781 215.656C136.448 215.656 136.974 215.849 137.359 216.234C137.745 216.609 137.938 217.083 137.938 217.656C137.938 218.219 137.745 218.688 137.359 219.062C136.974 219.438 136.448 219.625 135.781 219.625C135.104 219.625 134.573 219.438 134.188 219.062C133.812 218.688 133.625 218.219 133.625 217.656ZM152.094 235.5V215H155.875V239H152.453L152.094 235.5ZM141.094 230.734V230.406C141.094 229.125 141.245 227.958 141.547 226.906C141.849 225.844 142.286 224.932 142.859 224.172C143.432 223.401 144.13 222.812 144.953 222.406C145.776 221.99 146.703 221.781 147.734 221.781C148.755 221.781 149.651 221.979 150.422 222.375C151.193 222.771 151.849 223.339 152.391 224.078C152.932 224.807 153.365 225.682 153.688 226.703C154.01 227.714 154.24 228.839 154.375 230.078V231.125C154.24 232.333 154.01 233.438 153.688 234.438C153.365 235.438 152.932 236.302 152.391 237.031C151.849 237.76 151.188 238.323 150.406 238.719C149.635 239.115 148.734 239.312 147.703 239.312C146.682 239.312 145.76 239.099 144.938 238.672C144.125 238.245 143.432 237.646 142.859 236.875C142.286 236.104 141.849 235.198 141.547 234.156C141.245 233.104 141.094 231.964 141.094 230.734ZM144.859 230.406V230.734C144.859 231.505 144.927 232.224 145.062 232.891C145.208 233.557 145.432 234.146 145.734 234.656C146.036 235.156 146.427 235.552 146.906 235.844C147.396 236.125 147.979 236.266 148.656 236.266C149.51 236.266 150.214 236.078 150.766 235.703C151.318 235.328 151.75 234.823 152.062 234.188C152.385 233.542 152.604 232.823 152.719 232.031V229.203C152.656 228.589 152.526 228.016 152.328 227.484C152.141 226.953 151.885 226.49 151.562 226.094C151.24 225.688 150.839 225.375 150.359 225.156C149.891 224.927 149.333 224.812 148.688 224.812C148 224.812 147.417 224.958 146.938 225.25C146.458 225.542 146.062 225.943 145.75 226.453C145.448 226.964 145.224 227.557 145.078 228.234C144.932 228.911 144.859 229.635 144.859 230.406ZM159.969 237.125C159.969 236.542 160.167 236.052 160.562 235.656C160.958 235.25 161.495 235.047 162.172 235.047C162.859 235.047 163.396 235.25 163.781 235.656C164.177 236.052 164.375 236.542 164.375 237.125C164.375 237.708 164.177 238.198 163.781 238.594C163.396 238.99 162.859 239.188 162.172 239.188C161.495 239.188 160.958 238.99 160.562 238.594C160.167 238.198 159.969 237.708 159.969 237.125Z" fill="#461102"/>
<path d="M67.824 283.292C71.744 283.292 75.132 284.02 77.988 285.476C80.844 286.876 83 288.808 84.456 291.272C85.968 293.68 86.724 296.368 86.724 299.336C86.724 302.416 86.052 305.384 84.708 308.24C83.42 311.096 81.18 314.316 77.988 317.9C74.852 321.484 70.26 326.104 64.212 331.76H87.984L86.64 341H50.604V332.348C57.66 325.292 62.756 320.028 65.892 316.556C69.028 313.084 71.24 310.144 72.528 307.736C73.816 305.328 74.46 302.864 74.46 300.344C74.46 297.936 73.76 296.032 72.36 294.632C70.96 293.232 69.084 292.532 66.732 292.532C64.66 292.532 62.812 293.008 61.188 293.96C59.564 294.856 57.856 296.368 56.064 298.496L48.924 292.784C53.74 286.456 60.04 283.292 67.824 283.292ZM131.988 322.268C132.772 326.132 134.2 328.96 136.272 330.752C138.4 332.544 141.228 333.44 144.756 333.44C148.508 333.44 152.54 332.264 156.852 329.912V339.152C154.556 340.216 152.372 341 150.3 341.504C148.228 342.064 145.96 342.344 143.496 342.344C137.168 342.344 131.96 340.608 127.872 337.136C123.84 333.608 121.18 328.652 119.892 322.268H112.584L114.264 315.8H119.556V309.5H112.584L114.264 302.948H119.976C121.544 296.844 124.456 292.056 128.712 288.584C133.024 285.056 138.092 283.292 143.916 283.292C149.74 283.292 155.004 284.888 159.708 288.08L155.424 295.472C153.632 294.296 151.868 293.456 150.132 292.952C148.396 292.392 146.464 292.112 144.336 292.112C141.424 292.112 138.932 293.008 136.86 294.8C134.788 296.592 133.248 299.308 132.24 302.948H152.82L151.14 309.5H131.652V315.8H149.796L148.2 322.268H131.988Z" fill="#E3000F"/>
<path d="M194.047 320.25V323.5H178.641V320.719L186.031 312.734C186.802 311.859 187.411 311.099 187.859 310.453C188.307 309.807 188.625 309.224 188.812 308.703C189.01 308.172 189.109 307.667 189.109 307.188C189.109 306.49 188.984 305.88 188.734 305.359C188.484 304.828 188.12 304.417 187.641 304.125C187.172 303.833 186.594 303.688 185.906 303.688C185.146 303.688 184.495 303.865 183.953 304.219C183.422 304.562 183.016 305.042 182.734 305.656C182.464 306.271 182.328 306.974 182.328 307.766H178.188C178.188 306.422 178.5 305.198 179.125 304.094C179.75 302.979 180.646 302.089 181.812 301.422C182.979 300.755 184.365 300.422 185.969 300.422C187.531 300.422 188.854 300.682 189.938 301.203C191.021 301.714 191.844 302.443 192.406 303.391C192.969 304.339 193.25 305.469 193.25 306.781C193.25 307.51 193.13 308.229 192.891 308.938C192.651 309.646 192.312 310.349 191.875 311.047C191.448 311.734 190.938 312.432 190.344 313.141C189.75 313.849 189.089 314.573 188.359 315.312L183.922 320.25H194.047ZM209.234 299.484V323.5H205.109V299.484H209.234ZM219.828 306.594L212.469 314.859L208.484 318.906L207.172 315.703L210.25 311.828L214.844 306.594H219.828ZM215.609 323.5L210.375 315.625L213.125 312.953L220.391 323.5H215.609ZM232.078 319.484V306.594H236.234V323.5H232.328L232.078 319.484ZM232.609 315.984L233.891 315.953C233.891 317.089 233.766 318.135 233.516 319.094C233.266 320.052 232.875 320.885 232.344 321.594C231.823 322.292 231.161 322.839 230.359 323.234C229.557 323.62 228.609 323.812 227.516 323.812C226.682 323.812 225.922 323.698 225.234 323.469C224.547 323.229 223.953 322.859 223.453 322.359C222.964 321.849 222.583 321.198 222.312 320.406C222.042 319.604 221.906 318.641 221.906 317.516V306.594H226.031V317.547C226.031 318.109 226.094 318.578 226.219 318.953C226.354 319.328 226.536 319.635 226.766 319.875C227.005 320.104 227.281 320.271 227.594 320.375C227.917 320.469 228.26 320.516 228.625 320.516C229.625 320.516 230.411 320.318 230.984 319.922C231.568 319.516 231.984 318.974 232.234 318.297C232.484 317.609 232.609 316.839 232.609 315.984ZM249.953 319.484V306.594H254.109V323.5H250.203L249.953 319.484ZM250.484 315.984L251.766 315.953C251.766 317.089 251.641 318.135 251.391 319.094C251.141 320.052 250.75 320.885 250.219 321.594C249.698 322.292 249.036 322.839 248.234 323.234C247.432 323.62 246.484 323.812 245.391 323.812C244.557 323.812 243.797 323.698 243.109 323.469C242.422 323.229 241.828 322.859 241.328 322.359C240.839 321.849 240.458 321.198 240.188 320.406C239.917 319.604 239.781 318.641 239.781 317.516V306.594H243.906V317.547C243.906 318.109 243.969 318.578 244.094 318.953C244.229 319.328 244.411 319.635 244.641 319.875C244.88 320.104 245.156 320.271 245.469 320.375C245.792 320.469 246.135 320.516 246.5 320.516C247.5 320.516 248.286 320.318 248.859 319.922C249.443 319.516 249.859 318.974 250.109 318.297C250.359 317.609 250.484 316.839 250.484 315.984ZM267.906 319.906V299.5H272.062V323.5H268.312L267.906 319.906ZM257.047 315.25V314.922C257.047 313.63 257.193 312.458 257.484 311.406C257.786 310.344 258.224 309.432 258.797 308.672C259.37 307.911 260.062 307.323 260.875 306.906C261.698 306.49 262.63 306.281 263.672 306.281C264.682 306.281 265.562 306.484 266.312 306.891C267.073 307.297 267.719 307.875 268.25 308.625C268.792 309.375 269.224 310.266 269.547 311.297C269.87 312.318 270.104 313.443 270.25 314.672V315.562C270.104 316.76 269.87 317.859 269.547 318.859C269.224 319.859 268.792 320.734 268.25 321.484C267.719 322.224 267.073 322.797 266.312 323.203C265.552 323.609 264.661 323.812 263.641 323.812C262.609 323.812 261.682 323.599 260.859 323.172C260.047 322.745 259.354 322.146 258.781 321.375C258.219 320.604 257.786 319.698 257.484 318.656C257.193 317.615 257.047 316.479 257.047 315.25ZM261.188 314.922V315.25C261.188 315.979 261.25 316.661 261.375 317.297C261.5 317.932 261.703 318.495 261.984 318.984C262.266 319.464 262.625 319.839 263.062 320.109C263.51 320.38 264.052 320.516 264.688 320.516C265.5 320.516 266.167 320.339 266.688 319.984C267.219 319.62 267.63 319.125 267.922 318.5C268.214 317.865 268.401 317.151 268.484 316.359V313.906C268.443 313.281 268.333 312.703 268.156 312.172C267.99 311.641 267.75 311.182 267.438 310.797C267.135 310.411 266.76 310.109 266.312 309.891C265.865 309.672 265.333 309.562 264.719 309.562C264.083 309.562 263.542 309.703 263.094 309.984C262.646 310.255 262.281 310.635 262 311.125C261.719 311.615 261.51 312.182 261.375 312.828C261.25 313.474 261.188 314.172 261.188 314.922Z" fill="#461102"/>
<rect x="376" y="280" width="316" height="64" rx="16" fill="#E3000F"/>
<path d="M425.248 300.824L424.736 304.856H419.264V323H414.016V304.856H408.288V300.824H425.248ZM440.961 300.824L440.417 304.568H432.609V309.88H439.425V313.56H432.609V319.224H440.961V323H427.361V300.824H440.961ZM449.453 300.824V318.84H458.093L457.549 323H444.205V300.824H449.453ZM465.859 300.824V318.84H474.499L473.955 323H460.611V300.824H465.859ZM482.266 300.824V323H477.018V300.824H482.266ZM500.162 300.824C503.64 300.824 506.424 301.613 508.514 303.192C510.626 304.749 511.682 307.619 511.682 311.8C511.682 315.917 510.658 318.819 508.61 320.504C506.562 322.168 503.906 323 500.642 323H493.986V300.824H500.162ZM499.234 304.632V319.192H500.962C502.69 319.192 504.002 318.659 504.898 317.592C505.794 316.504 506.242 314.573 506.242 311.8C506.242 309.901 506.018 308.429 505.57 307.384C505.122 306.339 504.514 305.624 503.746 305.24C502.978 304.835 502.029 304.632 500.898 304.632H499.234ZM520.078 300.824V323H514.83V300.824H520.078ZM533.805 300.28C536.664 300.28 539.128 301.187 541.197 303L538.541 305.784C537.752 305.187 537.016 304.76 536.333 304.504C535.672 304.227 534.904 304.088 534.029 304.088C532.386 304.088 531.074 304.739 530.093 306.04C529.112 307.32 528.621 309.272 528.621 311.896C528.621 314.733 528.994 316.749 529.741 317.944C530.488 319.117 531.65 319.704 533.229 319.704C534.338 319.704 535.341 319.459 536.237 318.968V313.944H533.357L532.845 310.232H541.325V321.208C540.173 321.955 538.904 322.531 537.517 322.936C536.13 323.341 534.744 323.544 533.357 323.544C529.986 323.544 527.448 322.563 525.741 320.6C524.034 318.616 523.181 315.715 523.181 311.896C523.181 309.464 523.64 307.373 524.557 305.624C525.496 303.875 526.765 302.552 528.365 301.656C529.986 300.739 531.8 300.28 533.805 300.28ZM550.078 300.824V323H544.83V300.824H550.078ZM561.373 300.824C564.296 300.824 566.568 301.432 568.189 302.648C569.81 303.864 570.621 305.667 570.621 308.056C570.621 310.552 569.821 312.44 568.221 313.72C566.642 314.979 564.52 315.608 561.853 315.608H559.453V323H554.205V300.824H561.373ZM561.405 311.832C562.642 311.832 563.581 311.544 564.221 310.968C564.882 310.371 565.213 309.4 565.213 308.056C565.213 305.731 563.912 304.568 561.309 304.568H559.453V311.832H561.405ZM583.166 323L582.014 318.232H575.55L574.43 323H568.99L575.678 300.824H582.046L588.734 323H583.166ZM576.446 314.424H581.118L578.782 304.632L576.446 314.424ZM595.609 300.824V323H590.361V300.824H595.609ZM608.345 300.824L601.273 310.776L608.921 323H602.841L595.769 311.16L602.809 300.824H608.345ZM624.211 300.824L623.667 304.568H615.859V309.88H622.675V313.56H615.859V319.224H624.211V323H610.611V300.824H624.211ZM642.623 300.824L642.111 304.856H636.639V323H631.391V304.856H625.663V300.824H642.623ZM659.904 300.824L659.392 304.856H653.92V323H648.672V304.856H642.944V300.824H659.904Z" fill="#FFE80D"/>
</svg>
