<svg width="325" height="200" viewBox="0 0 325 200" fill="none" xmlns="http://www.w3.org/2000/svg">
<path d="M24 22C24 18.6863 26.6863 16 30 16H295C298.314 16 301 18.6863 301 22V178C301 181.314 298.314 184 295 184H30C26.6863 184 24 181.314 24 178V22Z" fill="#013216" fill-opacity="0.75"/>
<path d="M58.404 41.552C61.692 41.552 64.248 42.236 66.072 43.604C67.896 44.972 68.808 47 68.808 49.688C68.808 52.496 67.908 54.62 66.108 56.06C64.332 57.476 61.944 58.184 58.944 58.184H56.244V66.5H50.34V41.552H58.404ZM58.44 53.936C59.832 53.936 60.888 53.612 61.608 52.964C62.352 52.292 62.724 51.2 62.724 49.688C62.724 47.072 61.26 45.764 58.332 45.764H56.244V53.936H58.44ZM78.2799 41.552V66.5H72.3759V41.552H78.2799ZM89.2768 41.552V61.82H98.9968L98.3848 66.5H83.3728V41.552H89.2768ZM108.184 41.552V66.5H102.28V41.552H108.184ZM122.512 41.552L114.556 52.748L123.16 66.5H116.32L108.364 53.18L116.284 41.552H122.512ZM142.568 41.552C145.856 41.552 148.412 42.236 150.236 43.604C152.06 44.972 152.972 47 152.972 49.688C152.972 52.496 152.072 54.62 150.272 56.06C148.496 57.476 146.108 58.184 143.108 58.184H140.408V66.5H134.504V41.552H142.568ZM142.604 53.936C143.996 53.936 145.052 53.612 145.772 52.964C146.516 52.292 146.888 51.2 146.888 49.688C146.888 47.072 145.424 45.764 142.496 45.764H140.408V53.936H142.604ZM171.84 41.552L171.228 45.764H162.444V51.74H170.112V55.88H162.444V62.252H171.84V66.5H156.54V41.552H171.84ZM189.079 66.5L187.783 61.136H180.511L179.251 66.5H173.131L180.655 41.552H187.819L195.343 66.5H189.079ZM181.519 56.852H186.775L184.147 45.836L181.519 56.852ZM203.528 41.552V61.82H213.248L212.636 66.5H197.624V41.552H203.528ZM231.831 41.552L231.219 45.764H222.435V51.74H230.103V55.88H222.435V62.252H231.831V66.5H216.531V41.552H231.831ZM240.934 41.552L240.214 57.32H235.606L234.886 41.552H240.934ZM237.91 60.596C238.822 60.596 239.59 60.92 240.214 61.568C240.862 62.192 241.186 62.948 241.186 63.836C241.186 64.748 240.862 65.528 240.214 66.176C239.59 66.8 238.822 67.112 237.91 67.112C237.022 67.112 236.254 66.8 235.606 66.176C234.982 65.528 234.67 64.748 234.67 63.836C234.67 62.948 234.982 62.192 235.606 61.568C236.254 60.92 237.022 60.596 237.91 60.596Z" fill="#C5F000"/>
<path d="M60.8097 88.9545C60.8097 90.3523 60.554 91.554 60.0426 92.5597C59.5313 93.5611 58.8303 94.3324 57.9396 94.8736C57.0533 95.4105 56.0455 95.679 54.9162 95.679C53.7827 95.679 52.7706 95.4105 51.88 94.8736C50.9936 94.3324 50.2947 93.5589 49.7834 92.5533C49.272 91.5476 49.0163 90.348 49.0163 88.9545C49.0163 87.5568 49.272 86.3572 49.7834 85.3558C50.2947 84.3501 50.9936 83.5788 51.88 83.0419C52.7706 82.5007 53.7827 82.2301 54.9162 82.2301C56.0455 82.2301 57.0533 82.5007 57.9396 83.0419C58.8303 83.5788 59.5313 84.3501 60.0426 85.3558C60.554 86.3572 60.8097 87.5568 60.8097 88.9545ZM58.8537 88.9545C58.8537 87.8892 58.6811 86.9922 58.3359 86.2635C57.995 85.5305 57.5263 84.9766 56.9297 84.6016C56.3374 84.2223 55.6662 84.0327 54.9162 84.0327C54.1619 84.0327 53.4886 84.2223 52.8963 84.6016C52.304 84.9766 51.8352 85.5305 51.4901 86.2635C51.1491 86.9922 50.9787 87.8892 50.9787 88.9545C50.9787 90.0199 51.1491 90.919 51.4901 91.652C51.8352 92.3807 52.304 92.9347 52.8963 93.3139C53.4886 93.6889 54.1619 93.8764 54.9162 93.8764C55.6662 93.8764 56.3374 93.6889 56.9297 93.3139C57.5263 92.9347 57.995 92.3807 58.3359 91.652C58.6811 90.919 58.8537 90.0199 58.8537 88.9545ZM52.9922 81.1115L51.701 81.0668C51.701 80.3636 51.8928 79.8011 52.2763 79.3793C52.6598 78.9574 53.1307 78.7443 53.6889 78.7401C53.9531 78.7401 54.1832 78.7848 54.3793 78.8743C54.5753 78.9595 54.7585 79.0597 54.929 79.1747C55.0994 79.2898 55.272 79.392 55.4467 79.4815C55.6214 79.5668 55.8153 79.6094 56.0284 79.6094C56.2713 79.6051 56.4695 79.5114 56.6229 79.3281C56.7805 79.1406 56.8594 78.9084 56.8594 78.6314L58.125 78.7145C58.1207 79.4261 57.9268 79.9865 57.5433 80.3956C57.1641 80.8004 56.6953 81.0028 56.1371 81.0028C55.8345 81.0028 55.5831 80.9602 55.3828 80.875C55.1825 80.7855 55.0057 80.6854 54.8523 80.5746C54.6989 80.4595 54.5412 80.3594 54.3793 80.2741C54.2173 80.1847 54.0234 80.1399 53.7976 80.1399C53.5632 80.1399 53.3693 80.2315 53.2159 80.4148C53.0668 80.598 52.9922 80.8303 52.9922 81.1115ZM64.805 89.6705V95.5H62.8938V82.4091H64.7794V87.2798H64.9009C65.131 86.7514 65.4826 86.3317 65.9556 86.0206C66.4286 85.7095 67.0465 85.554 67.8093 85.554C68.4826 85.554 69.0706 85.6925 69.5735 85.9695C70.0806 86.2464 70.4726 86.6598 70.7496 87.2095C71.0309 87.755 71.1715 88.4368 71.1715 89.255V95.5H69.2603V89.4851C69.2603 88.7649 69.0749 88.2067 68.7042 87.8104C68.3334 87.4098 67.8178 87.2095 67.1573 87.2095C66.7056 87.2095 66.3007 87.3054 65.9428 87.4972C65.5891 87.6889 65.31 87.9702 65.1054 88.3409C64.9051 88.7074 64.805 89.1506 64.805 89.6705ZM78.08 85.6818V87.2159H72.7171V85.6818H78.08ZM74.1553 83.3295H76.0665V92.6172C76.0665 92.9879 76.1219 93.267 76.2327 93.4545C76.3435 93.6378 76.4863 93.7635 76.661 93.8317C76.8399 93.8956 77.0338 93.9276 77.2426 93.9276C77.3961 93.9276 77.5303 93.9169 77.6453 93.8956C77.7604 93.8743 77.8499 93.8572 77.9138 93.8445L78.259 95.4233C78.1482 95.4659 77.9905 95.5085 77.786 95.5511C77.5814 95.598 77.3257 95.6236 77.0189 95.6278C76.5161 95.6364 76.0473 95.5469 75.6127 95.3594C75.178 95.1719 74.8265 94.8821 74.558 94.4901C74.2895 94.098 74.1553 93.6058 74.1553 93.0135V83.3295ZM86.1886 91.4283V85.6818H88.1063V95.5H86.227V93.7997H86.1247C85.8989 94.3239 85.5366 94.7607 85.0381 95.1101C84.5438 95.4553 83.928 95.6278 83.1908 95.6278C82.5601 95.6278 82.0018 95.4893 81.5161 95.2124C81.0345 94.9311 80.6553 94.5156 80.3783 93.9659C80.1055 93.4162 79.9692 92.7365 79.9692 91.9268V85.6818H81.8804V91.6967C81.8804 92.3658 82.0658 92.8984 82.4365 93.2947C82.8072 93.6911 83.2888 93.8892 83.8811 93.8892C84.2391 93.8892 84.5949 93.7997 84.9486 93.6207C85.3065 93.4418 85.6027 93.1712 85.8371 92.8089C86.0757 92.4467 86.1929 91.9865 86.1886 91.4283ZM92.3605 82.4091V95.5H90.4493V82.4091H92.3605ZM98.9382 95.6982C97.9709 95.6982 97.1378 95.4915 96.4389 95.0781C95.7443 94.6605 95.2074 94.0746 94.8281 93.3203C94.4531 92.5618 94.2656 91.6733 94.2656 90.6548C94.2656 89.6491 94.4531 88.7628 94.8281 87.9957C95.2074 87.2287 95.7358 86.63 96.4134 86.1996C97.0952 85.7692 97.892 85.554 98.804 85.554C99.358 85.554 99.8949 85.6456 100.415 85.8288C100.935 86.0121 101.401 86.2997 101.815 86.6918C102.228 87.0838 102.554 87.593 102.793 88.2195C103.031 88.8416 103.151 89.598 103.151 90.4886V91.1662H95.3459V89.7344H101.278C101.278 89.2315 101.175 88.7862 100.971 88.3984C100.766 88.0064 100.479 87.6974 100.108 87.4716C99.7415 87.2457 99.3111 87.1328 98.8168 87.1328C98.2798 87.1328 97.8111 87.2649 97.4105 87.5291C97.0142 87.7891 96.7074 88.13 96.4901 88.5518C96.277 88.9695 96.1705 89.4233 96.1705 89.9134V91.032C96.1705 91.6882 96.2855 92.2464 96.5156 92.7067C96.75 93.1669 97.076 93.5185 97.4936 93.7614C97.9112 94 98.3991 94.1193 98.9574 94.1193C99.3196 94.1193 99.6499 94.0682 99.9482 93.9659C100.246 93.8594 100.504 93.7017 100.722 93.4929C100.939 93.2841 101.105 93.0263 101.22 92.7195L103.029 93.0455C102.884 93.5781 102.624 94.0447 102.249 94.4453C101.879 94.8416 101.412 95.1506 100.849 95.3722C100.291 95.5895 99.6541 95.6982 98.9382 95.6982ZM106.957 89.6705V95.5H105.046V82.4091H106.932V87.2798H107.053C107.283 86.7514 107.635 86.3317 108.108 86.0206C108.581 85.7095 109.199 85.554 109.962 85.554C110.635 85.554 111.223 85.6925 111.726 85.9695C112.233 86.2464 112.625 86.6598 112.902 87.2095C113.183 87.755 113.324 88.4368 113.324 89.255V95.5H111.413V89.4851C111.413 88.7649 111.227 88.2067 110.857 87.8104C110.486 87.4098 109.97 87.2095 109.31 87.2095C108.858 87.2095 108.453 87.3054 108.095 87.4972C107.741 87.6889 107.462 87.9702 107.258 88.3409C107.057 88.7074 106.957 89.1506 106.957 89.6705ZM120.232 85.6818V87.2159H114.869V85.6818H120.232ZM116.308 83.3295H118.219V92.6172C118.219 92.9879 118.274 93.267 118.385 93.4545C118.496 93.6378 118.639 93.7635 118.813 93.8317C118.992 93.8956 119.186 93.9276 119.395 93.9276C119.548 93.9276 119.683 93.9169 119.798 93.8956C119.913 93.8743 120.002 93.8572 120.066 93.8445L120.411 95.4233C120.301 95.4659 120.143 95.5085 119.938 95.5511C119.734 95.598 119.478 95.6236 119.171 95.6278C118.668 95.6364 118.2 95.5469 117.765 95.3594C117.33 95.1719 116.979 94.8821 116.71 94.4901C116.442 94.098 116.308 93.6058 116.308 93.0135V83.3295ZM135.059 85.6818L131.499 95.5H129.454L125.887 85.6818H127.939L130.425 93.2372H130.527L133.007 85.6818H135.059ZM139.206 95.7173C138.584 95.7173 138.022 95.6023 137.519 95.3722C137.016 95.1378 136.618 94.799 136.324 94.3558C136.034 93.9126 135.889 93.3693 135.889 92.7259C135.889 92.1719 135.996 91.7159 136.209 91.358C136.422 91 136.709 90.7166 137.072 90.5078C137.434 90.299 137.839 90.1413 138.286 90.0348C138.733 89.9283 139.189 89.8473 139.654 89.7919C140.242 89.7237 140.719 89.6683 141.086 89.6257C141.452 89.5788 141.719 89.5043 141.885 89.402C142.051 89.2997 142.134 89.1335 142.134 88.9034V88.8587C142.134 88.3004 141.976 87.8679 141.661 87.5611C141.35 87.2543 140.885 87.1009 140.268 87.1009C139.624 87.1009 139.117 87.2436 138.746 87.5291C138.38 87.8104 138.126 88.1236 137.986 88.4688L136.189 88.0597C136.403 87.4631 136.714 86.9815 137.123 86.6151C137.536 86.2443 138.011 85.9759 138.548 85.8097C139.085 85.6392 139.65 85.554 140.242 85.554C140.634 85.554 141.05 85.6009 141.488 85.6946C141.932 85.7841 142.345 85.9503 142.729 86.1932C143.116 86.4361 143.434 86.7834 143.681 87.2351C143.928 87.6825 144.052 88.2642 144.052 88.9801V95.5H142.185V94.1577H142.108C141.985 94.4048 141.8 94.6477 141.552 94.8864C141.305 95.125 140.988 95.3232 140.6 95.4808C140.212 95.6385 139.748 95.7173 139.206 95.7173ZM139.622 94.1832C140.15 94.1832 140.602 94.0788 140.977 93.87C141.356 93.6612 141.644 93.3885 141.84 93.0518C142.04 92.7109 142.14 92.3466 142.14 91.9588V90.6932C142.072 90.7614 141.94 90.8253 141.744 90.8849C141.552 90.9403 141.333 90.9893 141.086 91.032C140.839 91.0703 140.598 91.1065 140.363 91.1406C140.129 91.1705 139.933 91.196 139.775 91.2173C139.405 91.2642 139.066 91.343 138.759 91.4538C138.456 91.5646 138.214 91.7244 138.03 91.9332C137.851 92.1378 137.762 92.4105 137.762 92.7514C137.762 93.2244 137.937 93.5824 138.286 93.8253C138.635 94.0639 139.081 94.1832 139.622 94.1832ZM148.284 89.6705V95.5H146.372V82.4091H148.258V87.2798H148.379C148.61 86.7514 148.961 86.3317 149.434 86.0206C149.907 85.7095 150.525 85.554 151.288 85.554C151.961 85.554 152.549 85.6925 153.052 85.9695C153.559 86.2464 153.951 86.6598 154.228 87.2095C154.509 87.755 154.65 88.4368 154.65 89.255V95.5H152.739V89.4851C152.739 88.7649 152.553 88.2067 152.183 87.8104C151.812 87.4098 151.296 87.2095 150.636 87.2095C150.184 87.2095 149.779 87.3054 149.421 87.4972C149.068 87.6889 148.788 87.9702 148.584 88.3409C148.384 88.7074 148.284 89.1506 148.284 89.6705ZM161.207 95.6982C160.24 95.6982 159.407 95.4915 158.708 95.0781C158.013 94.6605 157.476 94.0746 157.097 93.3203C156.722 92.5618 156.534 91.6733 156.534 90.6548C156.534 89.6491 156.722 88.7628 157.097 87.9957C157.476 87.2287 158.005 86.63 158.682 86.1996C159.364 85.7692 160.161 85.554 161.073 85.554C161.627 85.554 162.164 85.6456 162.684 85.8288C163.203 86.0121 163.67 86.2997 164.083 86.6918C164.497 87.0838 164.823 87.593 165.061 88.2195C165.3 88.8416 165.419 89.598 165.419 90.4886V91.1662H157.615V89.7344H163.546C163.546 89.2315 163.444 88.7862 163.24 88.3984C163.035 88.0064 162.747 87.6974 162.377 87.4716C162.01 87.2457 161.58 87.1328 161.086 87.1328C160.549 87.1328 160.08 87.2649 159.679 87.5291C159.283 87.7891 158.976 88.13 158.759 88.5518C158.546 88.9695 158.439 89.4233 158.439 89.9134V91.032C158.439 91.6882 158.554 92.2464 158.784 92.7067C159.019 93.1669 159.345 93.5185 159.762 93.7614C160.18 94 160.668 94.1193 161.226 94.1193C161.588 94.1193 161.919 94.0682 162.217 93.9659C162.515 93.8594 162.773 93.7017 162.99 93.4929C163.208 93.2841 163.374 93.0263 163.489 92.7195L165.298 93.0455C165.153 93.5781 164.893 94.0447 164.518 94.4453C164.147 94.8416 163.681 95.1506 163.118 95.3722C162.56 95.5895 161.923 95.6982 161.207 95.6982ZM169.226 89.6705V95.5H167.315V85.6818H169.149V87.2798H169.271C169.497 86.7599 169.85 86.3423 170.332 86.027C170.818 85.7116 171.429 85.554 172.166 85.554C172.835 85.554 173.421 85.6946 173.924 85.9759C174.427 86.2528 174.817 86.6662 175.094 87.2159C175.371 87.7656 175.509 88.4453 175.509 89.255V95.5H173.598V89.4851C173.598 88.7734 173.413 88.2173 173.042 87.8168C172.671 87.4119 172.162 87.2095 171.514 87.2095C171.071 87.2095 170.677 87.3054 170.332 87.4972C169.991 87.6889 169.72 87.9702 169.52 88.3409C169.324 88.7074 169.226 89.1506 169.226 89.6705ZM181.523 95.6918C180.731 95.6918 180.023 95.4893 179.401 95.0845C178.783 94.6754 178.297 94.0937 177.944 93.3395C177.594 92.581 177.419 91.6712 177.419 90.6101C177.419 89.549 177.596 88.6413 177.95 87.8871C178.308 87.1328 178.798 86.5554 179.42 86.1548C180.042 85.7543 180.748 85.554 181.536 85.554C182.145 85.554 182.635 85.6562 183.006 85.8608C183.381 86.0611 183.671 86.2955 183.875 86.5639C184.084 86.8324 184.246 87.0689 184.361 87.2734H184.476V82.4091H186.387V95.5H184.521V93.9723H184.361C184.246 94.1811 184.08 94.4197 183.863 94.6882C183.65 94.9567 183.356 95.1911 182.981 95.3913C182.606 95.5916 182.12 95.6918 181.523 95.6918ZM181.945 94.0618C182.495 94.0618 182.959 93.9169 183.338 93.6271C183.722 93.3331 184.012 92.9261 184.208 92.4062C184.408 91.8864 184.508 91.2812 184.508 90.5909C184.508 89.9091 184.41 89.3125 184.214 88.8011C184.018 88.2898 183.731 87.8913 183.351 87.6058C182.972 87.3203 182.503 87.1776 181.945 87.1776C181.37 87.1776 180.89 87.3267 180.507 87.625C180.123 87.9233 179.833 88.3303 179.637 88.8459C179.446 89.3615 179.35 89.9432 179.35 90.5909C179.35 91.2472 179.448 91.8374 179.644 92.3615C179.84 92.8857 180.13 93.3011 180.513 93.608C180.901 93.9105 181.378 94.0618 181.945 94.0618ZM191.748 95.7173C191.125 95.7173 190.563 95.6023 190.06 95.3722C189.557 95.1378 189.159 94.799 188.865 94.3558C188.575 93.9126 188.43 93.3693 188.43 92.7259C188.43 92.1719 188.537 91.7159 188.75 91.358C188.963 91 189.25 90.7166 189.613 90.5078C189.975 90.299 190.38 90.1413 190.827 90.0348C191.275 89.9283 191.73 89.8473 192.195 89.7919C192.783 89.7237 193.26 89.6683 193.627 89.6257C193.993 89.5788 194.26 89.5043 194.426 89.402C194.592 89.2997 194.675 89.1335 194.675 88.9034V88.8587C194.675 88.3004 194.517 87.8679 194.202 87.5611C193.891 87.2543 193.426 87.1009 192.809 87.1009C192.165 87.1009 191.658 87.2436 191.287 87.5291C190.921 87.8104 190.667 88.1236 190.527 88.4688L188.73 88.0597C188.944 87.4631 189.255 86.9815 189.664 86.6151C190.077 86.2443 190.552 85.9759 191.089 85.8097C191.626 85.6392 192.191 85.554 192.783 85.554C193.175 85.554 193.591 85.6009 194.029 85.6946C194.473 85.7841 194.886 85.9503 195.27 86.1932C195.657 86.4361 195.975 86.7834 196.222 87.2351C196.469 87.6825 196.593 88.2642 196.593 88.9801V95.5H194.726V94.1577H194.65C194.526 94.4048 194.341 94.6477 194.093 94.8864C193.846 95.125 193.529 95.3232 193.141 95.4808C192.753 95.6385 192.289 95.7173 191.748 95.7173ZM192.163 94.1832C192.691 94.1832 193.143 94.0788 193.518 93.87C193.897 93.6612 194.185 93.3885 194.381 93.0518C194.581 92.7109 194.681 92.3466 194.681 91.9588V90.6932C194.613 90.7614 194.481 90.8253 194.285 90.8849C194.093 90.9403 193.874 90.9893 193.627 91.032C193.38 91.0703 193.139 91.1065 192.904 91.1406C192.67 91.1705 192.474 91.196 192.316 91.2173C191.946 91.2642 191.607 91.343 191.3 91.4538C190.998 91.5646 190.755 91.7244 190.571 91.9332C190.392 92.1378 190.303 92.4105 190.303 92.7514C190.303 93.2244 190.478 93.5824 190.827 93.8253C191.176 94.0639 191.622 94.1832 192.163 94.1832ZM199.067 95.5V82.4091H200.978V87.2734H201.093C201.204 87.0689 201.364 86.8324 201.572 86.5639C201.781 86.2955 202.071 86.0611 202.442 85.8608C202.812 85.6562 203.303 85.554 203.912 85.554C204.705 85.554 205.412 85.7543 206.034 86.1548C206.656 86.5554 207.144 87.1328 207.498 87.8871C207.856 88.6413 208.035 89.549 208.035 90.6101C208.035 91.6712 207.858 92.581 207.504 93.3395C207.151 94.0937 206.665 94.6754 206.047 95.0845C205.429 95.4893 204.724 95.6918 203.931 95.6918C203.334 95.6918 202.847 95.5916 202.467 95.3913C202.092 95.1911 201.798 94.9567 201.585 94.6882C201.372 94.4197 201.208 94.1811 201.093 93.9723H200.933V95.5H199.067ZM200.94 90.5909C200.94 91.2812 201.04 91.8864 201.24 92.4062C201.44 92.9261 201.73 93.3331 202.109 93.6271C202.489 93.9169 202.953 94.0618 203.503 94.0618C204.074 94.0618 204.551 93.9105 204.935 93.608C205.318 93.3011 205.608 92.8857 205.804 92.3615C206.004 91.8374 206.104 91.2472 206.104 90.5909C206.104 89.9432 206.006 89.3615 205.81 88.8459C205.619 88.3303 205.329 87.9233 204.941 87.625C204.557 87.3267 204.078 87.1776 203.503 87.1776C202.949 87.1776 202.48 87.3203 202.097 87.6058C201.717 87.8913 201.43 88.2898 201.234 88.8011C201.038 89.3125 200.94 89.9091 200.94 90.5909ZM214.495 85.6818H216.406V96.1392C216.406 96.7955 216.286 97.3494 216.048 97.8011C215.813 98.2528 215.464 98.5959 215 98.8303C214.539 99.0646 213.97 99.1818 213.293 99.1818C213.225 99.1818 213.161 99.1818 213.101 99.1818C213.037 99.1818 212.971 99.1797 212.903 99.1754V97.5327C212.963 97.5327 213.016 97.5327 213.063 97.5327C213.105 97.5327 213.154 97.5327 213.21 97.5327C213.661 97.5327 213.987 97.4112 214.188 97.1683C214.392 96.9297 214.495 96.5824 214.495 96.1264V85.6818ZM215.441 84.1669C215.108 84.1669 214.823 84.0561 214.584 83.8345C214.35 83.6087 214.232 83.3402 214.232 83.0291C214.232 82.7138 214.35 82.4453 214.584 82.2237C214.823 81.9979 215.108 81.8849 215.441 81.8849C215.773 81.8849 216.056 81.9979 216.291 82.2237C216.529 82.4453 216.649 82.7138 216.649 83.0291C216.649 83.3402 216.529 83.6087 216.291 83.8345C216.056 84.0561 215.773 84.1669 215.441 84.1669ZM221.609 95.7173C220.987 95.7173 220.425 95.6023 219.922 95.3722C219.419 95.1378 219.02 94.799 218.726 94.3558C218.437 93.9126 218.292 93.3693 218.292 92.7259C218.292 92.1719 218.398 91.7159 218.611 91.358C218.824 91 219.112 90.7166 219.474 90.5078C219.837 90.299 220.241 90.1413 220.689 90.0348C221.136 89.9283 221.592 89.8473 222.057 89.7919C222.645 89.7237 223.122 89.6683 223.489 89.6257C223.855 89.5788 224.121 89.5043 224.288 89.402C224.454 89.2997 224.537 89.1335 224.537 88.9034V88.8587C224.537 88.3004 224.379 87.8679 224.064 87.5611C223.753 87.2543 223.288 87.1009 222.67 87.1009C222.027 87.1009 221.52 87.2436 221.149 87.5291C220.783 87.8104 220.529 88.1236 220.388 88.4688L218.592 88.0597C218.805 87.4631 219.116 86.9815 219.525 86.6151C219.939 86.2443 220.414 85.9759 220.951 85.8097C221.488 85.6392 222.052 85.554 222.645 85.554C223.037 85.554 223.452 85.6009 223.891 85.6946C224.334 85.7841 224.748 85.9503 225.131 86.1932C225.519 86.4361 225.837 86.7834 226.084 87.2351C226.331 87.6825 226.454 88.2642 226.454 88.9801V95.5H224.588V94.1577H224.511C224.388 94.4048 224.202 94.6477 223.955 94.8864C223.708 95.125 223.39 95.3232 223.003 95.4808C222.615 95.6385 222.15 95.7173 221.609 95.7173ZM222.025 94.1832C222.553 94.1832 223.005 94.0788 223.38 93.87C223.759 93.6612 224.047 93.3885 224.243 93.0518C224.443 92.7109 224.543 92.3466 224.543 91.9588V90.6932C224.475 90.7614 224.343 90.8253 224.147 90.8849C223.955 90.9403 223.736 90.9893 223.489 91.032C223.241 91.0703 223.001 91.1065 222.766 91.1406C222.532 91.1705 222.336 91.196 222.178 91.2173C221.807 91.2642 221.469 91.343 221.162 91.4538C220.859 91.5646 220.616 91.7244 220.433 91.9332C220.254 92.1378 220.165 92.4105 220.165 92.7514C220.165 93.2244 220.339 93.5824 220.689 93.8253C221.038 94.0639 221.484 94.1832 222.025 94.1832ZM230.686 82.4091V95.5H228.775V82.4091H230.686ZM237.149 99.3864C236.369 99.3864 235.698 99.2841 235.135 99.0795C234.577 98.875 234.121 98.6044 233.768 98.2678C233.414 97.9311 233.15 97.5625 232.975 97.1619L234.618 96.4844C234.733 96.6719 234.886 96.87 235.078 97.0788C235.274 97.2919 235.538 97.473 235.871 97.6222C236.207 97.7713 236.64 97.8459 237.168 97.8459C237.893 97.8459 238.491 97.669 238.964 97.3153C239.437 96.9659 239.674 96.4077 239.674 95.6406V93.7102H239.552C239.437 93.919 239.271 94.1513 239.054 94.407C238.841 94.6626 238.547 94.8842 238.172 95.0717C237.797 95.2592 237.309 95.353 236.708 95.353C235.932 95.353 235.233 95.1719 234.611 94.8097C233.993 94.4432 233.503 93.9041 233.141 93.1925C232.783 92.4766 232.604 91.5966 232.604 90.5526C232.604 89.5085 232.781 88.6136 233.135 87.8679C233.493 87.1222 233.983 86.5511 234.605 86.1548C235.227 85.7543 235.932 85.554 236.721 85.554C237.33 85.554 237.822 85.6562 238.197 85.8608C238.572 86.0611 238.864 86.2955 239.073 86.5639C239.286 86.8324 239.45 87.0689 239.565 87.2734H239.706V85.6818H241.579V95.7173C241.579 96.5611 241.383 97.2536 240.991 97.7947C240.599 98.3359 240.068 98.7365 239.399 98.9964C238.734 99.2564 237.984 99.3864 237.149 99.3864ZM237.13 93.7678C237.679 93.7678 238.144 93.6399 238.523 93.3842C238.907 93.1243 239.197 92.7536 239.393 92.272C239.593 91.7862 239.693 91.2045 239.693 90.527C239.693 89.8665 239.595 89.2848 239.399 88.782C239.203 88.2791 238.915 87.8871 238.536 87.6058C238.157 87.3203 237.688 87.1776 237.13 87.1776C236.554 87.1776 236.075 87.3267 235.692 87.625C235.308 87.919 235.018 88.3196 234.822 88.8267C234.63 89.3338 234.535 89.9006 234.535 90.527C234.535 91.1705 234.633 91.7351 234.829 92.2209C235.025 92.7067 235.314 93.0859 235.698 93.3587C236.086 93.6314 236.563 93.7678 237.13 93.7678ZM243.917 99.1818V85.6818H245.783V87.2734H245.943C246.054 87.0689 246.214 86.8324 246.423 86.5639C246.631 86.2955 246.921 86.0611 247.292 85.8608C247.663 85.6562 248.153 85.554 248.762 85.554C249.555 85.554 250.262 85.7543 250.884 86.1548C251.506 86.5554 251.994 87.1328 252.348 87.8871C252.706 88.6413 252.885 89.549 252.885 90.6101C252.885 91.6712 252.708 92.581 252.354 93.3395C252.001 94.0937 251.515 94.6754 250.897 95.0845C250.279 95.4893 249.574 95.6918 248.781 95.6918C248.185 95.6918 247.697 95.5916 247.317 95.3913C246.942 95.1911 246.648 94.9567 246.435 94.6882C246.222 94.4197 246.058 94.1811 245.943 93.9723H245.828V99.1818H243.917ZM245.79 90.5909C245.79 91.2812 245.89 91.8864 246.09 92.4062C246.29 92.9261 246.58 93.3331 246.959 93.6271C247.339 93.9169 247.803 94.0618 248.353 94.0618C248.924 94.0618 249.401 93.9105 249.785 93.608C250.168 93.3011 250.458 92.8857 250.654 92.3615C250.854 91.8374 250.954 91.2472 250.954 90.5909C250.954 89.9432 250.856 89.3615 250.66 88.8459C250.469 88.3303 250.179 87.9233 249.791 87.625C249.408 87.3267 248.928 87.1776 248.353 87.1776C247.799 87.1776 247.33 87.3203 246.947 87.6058C246.567 87.8913 246.28 88.2898 246.084 88.8011C245.888 89.3125 245.79 89.9091 245.79 90.5909ZM257.658 95.7173C257.036 95.7173 256.474 95.6023 255.971 95.3722C255.468 95.1378 255.07 94.799 254.776 94.3558C254.486 93.9126 254.341 93.3693 254.341 92.7259C254.341 92.1719 254.448 91.7159 254.661 91.358C254.874 91 255.161 90.7166 255.524 90.5078C255.886 90.299 256.291 90.1413 256.738 90.0348C257.185 89.9283 257.641 89.8473 258.106 89.7919C258.694 89.7237 259.171 89.6683 259.538 89.6257C259.904 89.5788 260.171 89.5043 260.337 89.402C260.503 89.2997 260.586 89.1335 260.586 88.9034V88.8587C260.586 88.3004 260.428 87.8679 260.113 87.5611C259.802 87.2543 259.337 87.1009 258.72 87.1009C258.076 87.1009 257.569 87.2436 257.198 87.5291C256.832 87.8104 256.578 88.1236 256.438 88.4688L254.641 88.0597C254.854 87.4631 255.166 86.9815 255.575 86.6151C255.988 86.2443 256.463 85.9759 257 85.8097C257.537 85.6392 258.102 85.554 258.694 85.554C259.086 85.554 259.501 85.6009 259.94 85.6946C260.384 85.7841 260.797 85.9503 261.18 86.1932C261.568 86.4361 261.886 86.7834 262.133 87.2351C262.38 87.6825 262.504 88.2642 262.504 88.9801V95.5H260.637V94.1577H260.56C260.437 94.4048 260.251 94.6477 260.004 94.8864C259.757 95.125 259.44 95.3232 259.052 95.4808C258.664 95.6385 258.2 95.7173 257.658 95.7173ZM258.074 94.1832C258.602 94.1832 259.054 94.0788 259.429 93.87C259.808 93.6612 260.096 93.3885 260.292 93.0518C260.492 92.7109 260.592 92.3466 260.592 91.9588V90.6932C260.524 90.7614 260.392 90.8253 260.196 90.8849C260.004 90.9403 259.785 90.9893 259.538 91.032C259.291 91.0703 259.05 91.1065 258.815 91.1406C258.581 91.1705 258.385 91.196 258.227 91.2173C257.857 91.2642 257.518 91.343 257.211 91.4538C256.908 91.5646 256.666 91.7244 256.482 91.9332C256.303 92.1378 256.214 92.4105 256.214 92.7514C256.214 93.2244 256.389 93.5824 256.738 93.8253C257.087 94.0639 257.533 94.1832 258.074 94.1832ZM266.735 82.4091V95.5H264.824V82.4091H266.735ZM270.993 82.4091V95.5H269.082V82.4091H270.993ZM273.339 95.5V85.6818H275.25V95.5H273.339ZM274.304 84.1669C273.972 84.1669 273.686 84.0561 273.448 83.8345C273.213 83.6087 273.096 83.3402 273.096 83.0291C273.096 82.7138 273.213 82.4453 273.448 82.2237C273.686 81.9979 273.972 81.8849 274.304 81.8849C274.637 81.8849 274.92 81.9979 275.154 82.2237C275.393 82.4453 275.512 82.7138 275.512 83.0291C275.512 83.3402 275.393 83.6087 275.154 83.8345C274.92 84.0561 274.637 84.1669 274.304 84.1669ZM49.4382 105.409H51.8352L56.0028 115.585H56.1562L60.3239 105.409H62.7209V118.5H60.8416V109.027H60.7202L56.8594 118.481H55.2997L51.4389 109.021H51.3175V118.5H49.4382V105.409ZM65.3675 105.409H67.7645L71.9321 115.585H72.0855L76.2532 105.409H78.6502V118.5H76.7709V109.027H76.6495L72.7887 118.481H71.229L67.3682 109.021H67.2468V118.5H65.3675V105.409ZM81.1434 118.5V108.682H83.0546V118.5H81.1434ZM82.1086 107.167C81.7762 107.167 81.4907 107.056 81.2521 106.835C81.0177 106.609 80.9005 106.34 80.9005 106.029C80.9005 105.714 81.0177 105.445 81.2521 105.224C81.4907 104.998 81.7762 104.885 82.1086 104.885C82.441 104.885 82.7244 104.998 82.9587 105.224C83.1974 105.445 83.3167 105.714 83.3167 106.029C83.3167 106.34 83.1974 106.609 82.9587 106.835C82.7244 107.056 82.441 107.167 82.1086 107.167ZM87.312 105.409V118.5H85.4008V105.409H87.312ZM94.2413 108.682V110.216H88.8784V108.682H94.2413ZM90.3166 106.33H92.2278V115.617C92.2278 115.988 92.2832 116.267 92.394 116.455C92.5048 116.638 92.6476 116.763 92.8223 116.832C93.0013 116.896 93.1952 116.928 93.404 116.928C93.5574 116.928 93.6916 116.917 93.8067 116.896C93.9217 116.874 94.0112 116.857 94.0751 116.844L94.4203 118.423C94.3095 118.466 94.1518 118.509 93.9473 118.551C93.7428 118.598 93.4871 118.624 93.1803 118.628C92.6774 118.636 92.2087 118.547 91.774 118.359C91.3393 118.172 90.9878 117.882 90.7193 117.49C90.4509 117.098 90.3166 116.606 90.3166 116.013V106.33ZM102.427 115.17L102.414 112.837H102.747L106.659 108.682H108.947L104.485 113.412H104.185L102.427 115.17ZM100.669 118.5V105.409H102.58V118.5H100.669ZM106.869 118.5L103.354 113.834L104.671 112.498L109.215 118.5H106.869ZM114.195 118.698C113.275 118.698 112.471 118.487 111.785 118.065C111.099 117.643 110.567 117.053 110.187 116.295C109.808 115.536 109.618 114.65 109.618 113.636C109.618 112.617 109.808 111.727 110.187 110.964C110.567 110.201 111.099 109.609 111.785 109.187C112.471 108.765 113.275 108.554 114.195 108.554C115.116 108.554 115.919 108.765 116.605 109.187C117.291 109.609 117.824 110.201 118.203 110.964C118.582 111.727 118.772 112.617 118.772 113.636C118.772 114.65 118.582 115.536 118.203 116.295C117.824 117.053 117.291 117.643 116.605 118.065C115.919 118.487 115.116 118.698 114.195 118.698ZM114.201 117.094C114.798 117.094 115.292 116.936 115.684 116.621C116.076 116.305 116.366 115.886 116.554 115.362C116.745 114.837 116.841 114.26 116.841 113.629C116.841 113.003 116.745 112.428 116.554 111.903C116.366 111.375 116.076 110.951 115.684 110.631C115.292 110.312 114.798 110.152 114.201 110.152C113.601 110.152 113.102 110.312 112.706 110.631C112.314 110.951 112.022 111.375 111.83 111.903C111.643 112.428 111.549 113.003 111.549 113.629C111.549 114.26 111.643 114.837 111.83 115.362C112.022 115.886 112.314 116.305 112.706 116.621C113.102 116.936 113.601 117.094 114.201 117.094ZM112.271 107.493L110.986 107.455C110.986 106.747 111.176 106.183 111.555 105.761C111.939 105.339 112.412 105.128 112.974 105.128C113.234 105.128 113.462 105.173 113.658 105.262C113.854 105.347 114.037 105.447 114.208 105.562C114.383 105.673 114.555 105.773 114.726 105.863C114.9 105.948 115.094 105.991 115.307 105.991C115.554 105.991 115.755 105.897 115.908 105.71C116.066 105.522 116.145 105.29 116.145 105.013L117.404 105.096C117.404 105.808 117.212 106.368 116.829 106.777C116.445 107.182 115.974 107.386 115.416 107.391C115.113 107.391 114.862 107.348 114.662 107.263C114.466 107.173 114.291 107.073 114.138 106.962C113.984 106.847 113.826 106.745 113.665 106.656C113.503 106.566 113.309 106.521 113.083 106.521C112.844 106.521 112.648 106.615 112.495 106.803C112.346 106.986 112.271 107.216 112.271 107.493ZM120.68 118.5V108.682H122.591V118.5H120.68ZM121.645 107.167C121.313 107.167 121.027 107.056 120.789 106.835C120.554 106.609 120.437 106.34 120.437 106.029C120.437 105.714 120.554 105.445 120.789 105.224C121.027 104.998 121.313 104.885 121.645 104.885C121.978 104.885 122.261 104.998 122.495 105.224C122.734 105.445 122.853 105.714 122.853 106.029C122.853 106.34 122.734 106.609 122.495 106.835C122.261 107.056 121.978 107.167 121.645 107.167ZM126.695 115.17L126.683 112.837H127.015L130.927 108.682H133.215L128.754 113.412H128.453L126.695 115.17ZM124.938 118.5V105.409H126.849V118.5H124.938ZM131.138 118.5L127.622 113.834L128.939 112.498L133.484 118.5H131.138ZM138.559 118.698C137.592 118.698 136.759 118.491 136.06 118.078C135.365 117.661 134.828 117.075 134.449 116.32C134.074 115.562 133.887 114.673 133.887 113.655C133.887 112.649 134.074 111.763 134.449 110.996C134.828 110.229 135.357 109.63 136.034 109.2C136.716 108.769 137.513 108.554 138.425 108.554C138.979 108.554 139.516 108.646 140.036 108.829C140.556 109.012 141.022 109.3 141.436 109.692C141.849 110.084 142.175 110.593 142.414 111.219C142.652 111.842 142.772 112.598 142.772 113.489V114.166H134.967V112.734H140.899C140.899 112.232 140.797 111.786 140.592 111.398C140.387 111.006 140.1 110.697 139.729 110.472C139.363 110.246 138.932 110.133 138.438 110.133C137.901 110.133 137.432 110.265 137.032 110.529C136.635 110.789 136.328 111.13 136.111 111.552C135.898 111.969 135.792 112.423 135.792 112.913V114.032C135.792 114.688 135.907 115.246 136.137 115.707C136.371 116.167 136.697 116.518 137.115 116.761C137.532 117 138.02 117.119 138.578 117.119C138.941 117.119 139.271 117.068 139.569 116.966C139.868 116.859 140.125 116.702 140.343 116.493C140.56 116.284 140.726 116.026 140.841 115.719L142.65 116.045C142.505 116.578 142.245 117.045 141.87 117.445C141.5 117.842 141.033 118.151 140.471 118.372C139.912 118.589 139.275 118.698 138.559 118.698ZM147.154 116.71L147.058 117.407C146.994 117.918 146.885 118.451 146.732 119.005C146.583 119.563 146.427 120.081 146.265 120.558C146.108 121.036 145.978 121.415 145.875 121.696H144.52C144.576 121.432 144.652 121.074 144.75 120.622C144.848 120.175 144.944 119.674 145.038 119.12C145.132 118.566 145.202 118.001 145.249 117.426L145.313 116.71H147.154ZM153.956 118.5V108.682H155.79V110.28H155.911C156.116 109.739 156.451 109.317 156.915 109.014C157.38 108.707 157.936 108.554 158.583 108.554C159.24 108.554 159.789 108.707 160.232 109.014C160.68 109.321 161.01 109.743 161.223 110.28H161.326C161.56 109.756 161.933 109.338 162.444 109.027C162.956 108.712 163.565 108.554 164.272 108.554C165.163 108.554 165.889 108.833 166.452 109.391C167.019 109.95 167.302 110.791 167.302 111.916V118.5H165.391V112.095C165.391 111.43 165.21 110.949 164.848 110.651C164.485 110.352 164.053 110.203 163.55 110.203C162.928 110.203 162.444 110.395 162.099 110.778C161.754 111.158 161.581 111.646 161.581 112.242V118.5H159.676V111.974C159.676 111.441 159.51 111.013 159.178 110.689C158.845 110.365 158.413 110.203 157.88 110.203C157.518 110.203 157.183 110.299 156.877 110.491C156.574 110.678 156.329 110.94 156.142 111.277C155.958 111.614 155.867 112.004 155.867 112.447V118.5H153.956ZM169.639 118.5V108.682H171.55V118.5H169.639ZM170.604 107.167C170.272 107.167 169.986 107.056 169.747 106.835C169.513 106.609 169.396 106.34 169.396 106.029C169.396 105.714 169.513 105.445 169.747 105.224C169.986 104.998 170.272 104.885 170.604 104.885C170.936 104.885 171.22 104.998 171.454 105.224C171.693 105.445 171.812 105.714 171.812 106.029C171.812 106.34 171.693 106.609 171.454 106.835C171.22 107.056 170.936 107.167 170.604 107.167ZM181.253 111.079L179.521 111.386C179.449 111.164 179.334 110.953 179.176 110.753C179.023 110.553 178.814 110.388 178.55 110.261C178.285 110.133 177.955 110.069 177.559 110.069C177.018 110.069 176.566 110.19 176.204 110.433C175.841 110.672 175.66 110.981 175.66 111.36C175.66 111.688 175.782 111.952 176.025 112.153C176.268 112.353 176.66 112.517 177.201 112.645L178.76 113.003C179.664 113.212 180.337 113.533 180.78 113.968C181.224 114.403 181.445 114.967 181.445 115.662C181.445 116.25 181.275 116.774 180.934 117.234C180.597 117.69 180.126 118.048 179.521 118.308C178.92 118.568 178.224 118.698 177.431 118.698C176.331 118.698 175.434 118.464 174.74 117.995C174.045 117.522 173.619 116.851 173.461 115.982L175.309 115.7C175.424 116.182 175.66 116.546 176.018 116.793C176.376 117.036 176.843 117.158 177.418 117.158C178.045 117.158 178.545 117.028 178.92 116.768C179.295 116.504 179.483 116.182 179.483 115.803C179.483 115.496 179.368 115.238 179.138 115.029C178.912 114.82 178.564 114.663 178.096 114.556L176.434 114.192C175.518 113.983 174.84 113.651 174.401 113.195C173.966 112.739 173.749 112.161 173.749 111.462C173.749 110.883 173.911 110.376 174.235 109.941C174.559 109.506 175.006 109.168 175.577 108.925C176.148 108.678 176.802 108.554 177.54 108.554C178.601 108.554 179.436 108.784 180.045 109.244C180.655 109.7 181.057 110.312 181.253 111.079ZM191.996 118.698C191.075 118.698 190.272 118.487 189.586 118.065C188.9 117.643 188.367 117.053 187.988 116.295C187.609 115.536 187.419 114.65 187.419 113.636C187.419 112.617 187.609 111.727 187.988 110.964C188.367 110.201 188.9 109.609 189.586 109.187C190.272 108.765 191.075 108.554 191.996 108.554C192.916 108.554 193.72 108.765 194.406 109.187C195.092 109.609 195.624 110.201 196.004 110.964C196.383 111.727 196.573 112.617 196.573 113.636C196.573 114.65 196.383 115.536 196.004 116.295C195.624 117.053 195.092 117.643 194.406 118.065C193.72 118.487 192.916 118.698 191.996 118.698ZM192.002 117.094C192.599 117.094 193.093 116.936 193.485 116.621C193.877 116.305 194.167 115.886 194.355 115.362C194.546 114.837 194.642 114.26 194.642 113.629C194.642 113.003 194.546 112.428 194.355 111.903C194.167 111.375 193.877 110.951 193.485 110.631C193.093 110.312 192.599 110.152 192.002 110.152C191.401 110.152 190.903 110.312 190.507 110.631C190.114 110.951 189.823 111.375 189.631 111.903C189.443 112.428 189.35 113.003 189.35 113.629C189.35 114.26 189.443 114.837 189.631 115.362C189.823 115.886 190.114 116.305 190.507 116.621C190.903 116.936 191.401 117.094 192.002 117.094ZM200.392 105.409V118.5H198.481V105.409H200.392ZM208.958 114.428V108.682H210.875V118.5H208.996V116.8H208.894C208.668 117.324 208.306 117.761 207.807 118.11C207.313 118.455 206.697 118.628 205.96 118.628C205.329 118.628 204.771 118.489 204.285 118.212C203.804 117.931 203.424 117.516 203.147 116.966C202.875 116.416 202.738 115.737 202.738 114.927V108.682H204.65V114.697C204.65 115.366 204.835 115.898 205.206 116.295C205.576 116.691 206.058 116.889 206.65 116.889C207.008 116.889 207.364 116.8 207.718 116.621C208.076 116.442 208.372 116.171 208.606 115.809C208.845 115.447 208.962 114.987 208.958 114.428ZM215.13 105.409V118.5H213.218V105.409H215.13ZM217.476 118.5V108.682H219.387V118.5H217.476ZM218.441 107.167C218.109 107.167 217.823 107.056 217.584 106.835C217.35 106.609 217.233 106.34 217.233 106.029C217.233 105.714 217.35 105.445 217.584 105.224C217.823 104.998 218.109 104.885 218.441 104.885C218.773 104.885 219.057 104.998 219.291 105.224C219.53 105.445 219.649 105.714 219.649 106.029C219.649 106.34 219.53 106.609 219.291 106.835C219.057 107.056 218.773 107.167 218.441 107.167ZM223.644 112.67V118.5H221.733V108.682H223.568V110.28H223.689C223.915 109.76 224.269 109.342 224.75 109.027C225.236 108.712 225.848 108.554 226.585 108.554C227.254 108.554 227.84 108.695 228.343 108.976C228.845 109.253 229.235 109.666 229.512 110.216C229.789 110.766 229.928 111.445 229.928 112.255V118.5H228.017V112.485C228.017 111.773 227.831 111.217 227.461 110.817C227.09 110.412 226.581 110.21 225.933 110.21C225.49 110.21 225.095 110.305 224.75 110.497C224.409 110.689 224.139 110.97 223.938 111.341C223.742 111.707 223.644 112.151 223.644 112.67ZM236.498 118.698C235.53 118.698 234.697 118.491 233.998 118.078C233.304 117.661 232.767 117.075 232.387 116.32C232.012 115.562 231.825 114.673 231.825 113.655C231.825 112.649 232.012 111.763 232.387 110.996C232.767 110.229 233.295 109.63 233.973 109.2C234.655 108.769 235.451 108.554 236.363 108.554C236.917 108.554 237.454 108.646 237.974 108.829C238.494 109.012 238.961 109.3 239.374 109.692C239.787 110.084 240.113 110.593 240.352 111.219C240.591 111.842 240.71 112.598 240.71 113.489V114.166H232.905V112.734H238.837C238.837 112.232 238.735 111.786 238.53 111.398C238.326 111.006 238.038 110.697 237.667 110.472C237.301 110.246 236.87 110.133 236.376 110.133C235.839 110.133 235.37 110.265 234.97 110.529C234.574 110.789 234.267 111.13 234.049 111.552C233.836 111.969 233.73 112.423 233.73 112.913V114.032C233.73 114.688 233.845 115.246 234.075 115.707C234.309 116.167 234.635 116.518 235.053 116.761C235.471 117 235.959 117.119 236.517 117.119C236.879 117.119 237.209 117.068 237.508 116.966C237.806 116.859 238.064 116.702 238.281 116.493C238.498 116.284 238.664 116.026 238.78 115.719L240.588 116.045C240.444 116.578 240.184 117.045 239.809 117.445C239.438 117.842 238.971 118.151 238.409 118.372C237.851 118.589 237.213 118.698 236.498 118.698ZM245.015 105.409L244.849 114.735H243.079L242.912 105.409H245.015ZM243.967 118.621C243.613 118.621 243.311 118.498 243.059 118.251C242.808 117.999 242.684 117.697 242.689 117.343C242.684 116.994 242.808 116.695 243.059 116.448C243.311 116.197 243.613 116.071 243.967 116.071C244.312 116.071 244.61 116.197 244.862 116.448C245.113 116.695 245.241 116.994 245.245 117.343C245.241 117.577 245.179 117.793 245.06 117.989C244.945 118.18 244.792 118.334 244.6 118.449C244.408 118.564 244.197 118.621 243.967 118.621Z" fill="#F3FFAD"/>
<path d="M130.455 150.175L131.632 146.64L126.565 147.727C126.328 148.444 126.033 149.327 125.75 150.175H123.583C123.531 150.299 123.509 150.426 123.509 150.563C123.509 151.227 123.958 151.781 124.717 152.01C124.821 152.041 124.954 152.069 125.11 152.093L124.906 152.709C124.395 154.239 124.182 155.342 124.182 155.965C124.182 157.556 125.165 158.499 126.716 158.499C127.483 158.499 128.194 158.264 129.249 157.413C129.002 156.914 128.886 156.403 128.886 155.604C128.886 155.135 129.017 154.489 129.249 153.794C129.387 153.382 129.575 152.814 129.793 152.166H131.336L132 150.175H130.455Z" fill="white"/>
<path d="M120.989 149.992C119.482 149.992 117.453 151.367 117.322 151.604L119.487 145.106L114.512 146.192L110.531 158.137H115.146L116.594 153.794C116.973 152.653 117.315 152.347 117.857 152.346H117.86C118.386 152.346 118.582 152.836 118.237 153.866C118.166 154.083 117.923 154.811 117.716 155.433C117.511 156.05 117.459 156.345 117.459 156.756C117.459 157.716 118.142 158.5 119.516 158.5C120.32 158.5 121.481 158.105 122.286 157.453C122.118 157.11 122.029 156.657 122.029 156.15C122.029 155.866 122.137 155.327 122.477 154.305C122.902 153.031 122.98 152.52 122.98 151.985C122.98 150.618 122.376 149.992 120.989 149.992Z" fill="white"/>
<path d="M106.189 157.05C105.021 157.05 104.607 156.634 104.822 155.423H105.586C109.2 155.423 111.5 154.222 111.5 152.129C111.5 150.895 110.437 149.811 107.515 149.811C102.661 149.811 100.46 152.3 100.46 155.423C100.46 157.255 101.801 158.499 104.621 158.499C106.719 158.499 108.464 157.984 109.663 157.046L109.393 156.305C108.096 156.897 107.33 157.05 106.189 157.05ZM105.164 154.157C106.035 151.586 106.377 151.259 107.033 151.259C107.576 151.259 107.732 151.874 107.335 153.07C107.07 153.863 105.999 154.518 105.049 154.518C105.084 154.402 105.122 154.281 105.164 154.157Z" fill="white"/>
<path d="M102.379 145.106L97.3124 146.192L95.1409 152.709C94.6304 154.239 94.4171 155.342 94.4171 155.965C94.4171 157.556 95.3999 158.499 96.9501 158.499C97.7166 158.499 98.4319 158.264 99.4839 157.413C99.2374 156.914 99.1229 156.402 99.1229 155.604C99.1229 155.135 99.2511 154.489 99.4839 153.794L102.379 145.106Z" fill="white"/>
<path d="M94.5119 150.175H89.9899L88.9047 153.432C88.0102 156.11 87.7727 156.326 87.0947 156.326C86.6174 156.326 86.4172 155.826 87.0947 153.794C87.3607 152.995 87.8077 151.609 88.2859 150.175H83.7667L82.9227 152.709C82.4129 154.239 82.2084 155.342 82.2084 155.965C82.2084 157.556 83.1924 158.499 84.7422 158.499C85.8162 158.499 87.1129 157.771 88.0044 157.227C88.3599 158.018 89.0197 158.5 90.0644 158.5C90.8289 158.5 92.1359 158.264 93.1844 157.413C92.9829 157.005 92.8602 156.577 92.8602 155.876C92.8602 155.252 93.0024 154.744 93.1974 154.157C93.4647 153.356 94.0389 151.609 94.5119 150.175Z" fill="white"/>
<path d="M82.9572 150.175H81.4122L82.5904 146.64L77.5247 147.727L76.7074 150.175H74.5407C74.4907 150.299 74.4664 150.426 74.4664 150.563C74.4689 151.227 74.9169 151.781 75.6737 152.01C75.7782 152.041 75.9114 152.069 76.0684 152.093C75.9897 152.328 75.9204 152.536 75.8647 152.709C75.3519 154.239 75.1417 155.342 75.1417 155.965C75.1417 157.556 76.1219 158.499 77.6742 158.499C78.4404 158.499 79.1534 158.264 80.2072 157.413C79.9594 156.914 79.8444 156.403 79.8444 155.604C79.8444 155.135 79.9754 154.489 80.2072 153.794C80.3447 153.382 80.5319 152.814 80.7502 152.166H82.2927L82.9572 150.175Z" fill="white"/>
<path d="M71.8944 149.992C70.386 149.992 68.3561 151.367 68.2287 151.604L70.3931 145.106L65.4158 146.192L61.436 158.137H66.0488L67.4967 153.794C67.8778 152.653 68.2192 152.347 68.7609 152.346C69.2878 152.346 69.4869 152.836 69.1432 153.866C69.0703 154.083 68.8267 154.811 68.6198 155.433C68.4124 156.05 68.3626 156.345 68.3626 156.756C68.3626 157.716 69.0472 158.5 70.4186 158.5C71.224 158.5 72.3851 158.105 73.1887 157.453C73.02 157.11 72.9304 156.657 72.9304 156.15C72.9304 155.866 73.0407 155.327 73.382 154.305C73.8045 153.031 73.8857 152.52 73.8857 151.985C73.8857 150.618 73.2812 149.992 71.8944 149.992Z" fill="white"/>
<path d="M57.2653 145.83C52.5594 145.83 48 148.681 48 154.109C48 156.776 50.4436 158.5 53.0437 158.5C57.7489 158.5 62.3095 155.649 62.3095 150.221C62.3095 147.553 59.8648 145.83 57.2653 145.83ZM56.2903 152.166C54.9201 156.276 54.5331 156.74 53.6292 156.74C52.87 156.74 52.6418 156.276 54.0133 152.166C55.3842 148.053 55.7753 147.589 56.678 147.589C57.439 147.589 57.6612 148.053 56.2903 152.166Z" fill="white"/>
<path d="M57.2653 144.612C58.8056 144.612 60.2701 145.116 61.3926 146.031C61.4436 146.074 61.4934 146.12 61.5456 146.163C62.3557 145.756 62.9289 145.056 62.9289 143.797C62.9289 143.364 62.6687 142.765 62.3421 142.5C62.0796 142.697 61.8087 142.834 61.3897 142.96C61.142 143.033 60.8023 143.073 60.4355 143.073H54.8584C54.0506 143.073 53.468 143.146 53.142 143.243C52.1588 143.54 51.7991 144.055 51.7991 144.703C51.7991 145.133 51.9448 145.496 52.1778 145.724C53.695 144.999 55.4398 144.612 57.2653 144.612Z" fill="white"/>
</svg>
