<?xml version="1.0" encoding="UTF-8"?>
<svg id="Layer_1" xmlns="http://www.w3.org/2000/svg" version="1.1" viewBox="0 0 200 60">
  <!-- Generator: Adobe Illustrator 29.0.0, SVG Export Plug-In . SVG Version: 2.1.0 Build 186)  -->
  <defs>
    <style>
      .st0 {
        fill: #c5e900;
      }
    </style>
  </defs>
  <path class="st0" d="M81.2,37.8v-16.2h22.2l-3.9-4c-1-1.1-2.5-1.6-3.9-1.6h-20.6v17.4c0,1.5.6,2.9,1.6,4l5.1,5.2c1,1.1,2.5,1.6,3.9,1.6h17.2v-5.6h-20.8c-.4,0-.7-.3-.7-.7ZM38.2,21.5h15.3c.4,0,.7.3.7.7v7.7h-16v-8.5ZM49.8,15.9h-17.8v28.2h6.2v-12l1.8,1.9c1,1.1,2.5,1.6,3.9,1.6h16.5v-8.9c0-1.5-.6-2.9-1.6-4l-5.1-5.1c-1-1.1-2.5-1.6-3.9-1.6ZM113.2,37.8v-4.9h16c.4,0,.7.3.7.7v4.9h-16c-.4,0-.7-.3-.7-.7h0ZM113.2,27.2v-5.6h16c.4,0,.7.3.7.7v4.9h-16.7ZM136.1,44.1v-9.6c0-1.5-.6-2.9-1.6-4l-1.8-1.9h3.5v-2.6c0-1.5-.6-2.9-1.6-4l-4.4-4.4c-1-1.1-2.5-1.6-3.9-1.6h-19.2v17.4c0,1.5.6,2.9,1.6,4l5.1,5.2c1,1.1,2.5,1.6,3.9,1.6h18.5ZM189.2,21.5v22.5h-6.3v-22.5h-10.8v-5.6h27.8v5.6h-10.8ZM70.8,15.9h-6.2v28.2h6.2V15.9ZM168.7,21.6l-3.9-4c-1-1.1-2.5-1.6-3.9-1.7h-20.6v17.4c0,1.5.6,2.9,1.6,4l5.1,5.2c1,1.1,2.5,1.6,3.9,1.6h17.1v-5.6h-20.8c-.4,0-.7-.3-.7-.7v-4.9h21.5v-5.6h-21.5v-5.6h22.2ZM28.5,21.6l-3.9-4c-1-1.1-2.5-1.6-3.9-1.7H0v17.4c0,1.5.6,2.9,1.6,4l5.1,5.2c1,1.1,2.5,1.6,3.9,1.6h17.1v-5.6H6.9c-.4,0-.7-.3-.7-.7v-4.9h21.5v-5.6H6.3v-5.6h22.2Z"/>
</svg>