<svg width="300" height="237" viewBox="0 0 300 237" fill="none" xmlns="http://www.w3.org/2000/svg">
<path d="M16 38C16 34.6863 18.6863 32 22 32H278C281.314 32 284 34.6863 284 38V199C284 202.314 281.314 205 278 205H22C18.6863 205 16 202.314 16 199V38Z" fill="#013216" fill-opacity="0.75"/>
<path d="M51.56 56.28C55.2133 56.28 58.0533 57.04 60.08 58.56C62.1067 60.08 63.12 62.3333 63.12 65.32C63.12 68.44 62.12 70.8 60.12 72.4C58.1467 73.9733 55.4933 74.76 52.16 74.76H49.16V84H42.6V56.28H51.56ZM51.6 70.04C53.1467 70.04 54.32 69.68 55.12 68.96C55.9467 68.2133 56.36 67 56.36 65.32C56.36 62.4133 54.7333 60.96 51.48 60.96H49.16V70.04H51.6ZM73.6444 56.28V84H67.0844V56.28H73.6444ZM85.8631 56.28V78.8H96.6631L95.9831 84H79.3031V56.28H85.8631ZM106.871 56.28V84H100.311V56.28H106.871ZM122.791 56.28L113.951 68.72L123.511 84H115.911L107.071 69.2L115.871 56.28H122.791ZM145.076 56.28C148.729 56.28 151.569 57.04 153.596 58.56C155.622 60.08 156.636 62.3333 156.636 65.32C156.636 68.44 155.636 70.8 153.636 72.4C151.662 73.9733 149.009 74.76 145.676 74.76H142.676V84H136.116V56.28H145.076ZM145.116 70.04C146.662 70.04 147.836 69.68 148.636 68.96C149.462 68.2133 149.876 67 149.876 65.32C149.876 62.4133 148.249 60.96 144.996 60.96H142.676V70.04H145.116ZM177.6 56.28L176.92 60.96H167.16V67.6H175.68V72.2H167.16V79.28H177.6V84H160.6V56.28H177.6ZM196.755 84L195.315 78.04H187.235L185.835 84H179.035L187.395 56.28H195.355L203.715 84H196.755ZM188.355 73.28H194.195L191.275 61.04L188.355 73.28ZM212.808 56.28V78.8H223.608L222.928 84H206.248V56.28H212.808ZM244.256 56.28L243.576 60.96H233.816V67.6H242.336V72.2H233.816V79.28H244.256V84H227.256V56.28H244.256ZM254.371 56.28L253.571 73.8H248.451L247.651 56.28H254.371ZM251.011 77.44C252.024 77.44 252.878 77.8 253.571 78.52C254.291 79.2133 254.651 80.0533 254.651 81.04C254.651 82.0533 254.291 82.92 253.571 83.64C252.878 84.3333 252.024 84.68 251.011 84.68C250.024 84.68 249.171 84.3333 248.451 83.64C247.758 82.92 247.411 82.0533 247.411 81.04C247.411 80.0533 247.758 79.2133 248.451 78.52C249.171 77.8 250.024 77.44 251.011 77.44Z" fill="#C5F000"/>
<path d="M52.098 105.818C52.098 107.138 51.8565 108.273 51.3736 109.223C50.8906 110.169 50.2286 110.897 49.3874 111.408C48.5503 111.915 47.5985 112.169 46.532 112.169C45.4614 112.169 44.5056 111.915 43.6644 111.408C42.8273 110.897 42.1673 110.167 41.6843 109.217C41.2013 108.267 40.9599 107.134 40.9599 105.818C40.9599 104.498 41.2013 103.365 41.6843 102.419C42.1673 101.47 42.8273 100.741 43.6644 100.234C44.5056 99.7229 45.4614 99.4673 46.532 99.4673C47.5985 99.4673 48.5503 99.7229 49.3874 100.234C50.2286 100.741 50.8906 101.47 51.3736 102.419C51.8565 103.365 52.098 104.498 52.098 105.818ZM50.2507 105.818C50.2507 104.812 50.0877 103.965 49.7617 103.277C49.4397 102.584 48.997 102.061 48.4336 101.707C47.8742 101.349 47.2403 101.17 46.532 101.17C45.8196 101.17 45.1837 101.349 44.6243 101.707C44.0649 102.061 43.6222 102.584 43.2962 103.277C42.9742 103.965 42.8132 104.812 42.8132 105.818C42.8132 106.824 42.9742 107.674 43.2962 108.366C43.6222 109.054 44.0649 109.577 44.6243 109.935C45.1837 110.29 45.8196 110.467 46.532 110.467C47.2403 110.467 47.8742 110.29 48.4336 109.935C48.997 109.577 49.4397 109.054 49.7617 108.366C50.0877 107.674 50.2507 106.824 50.2507 105.818ZM44.7148 98.4109L43.4954 98.3686C43.4954 97.7045 43.6765 97.1733 44.0387 96.7749C44.4009 96.3764 44.8456 96.1752 45.3729 96.1712C45.6224 96.1712 45.8397 96.2134 46.0249 96.2979C46.21 96.3784 46.383 96.473 46.544 96.5817C46.705 96.6903 46.868 96.7869 47.033 96.8714C47.198 96.9519 47.3812 96.9922 47.5824 96.9922C47.8118 96.9882 47.9989 96.8996 48.1438 96.7266C48.2927 96.5495 48.3672 96.3301 48.3672 96.0685L49.5625 96.147C49.5585 96.8191 49.3754 97.3484 49.0131 97.7347C48.6549 98.1171 48.2122 98.3082 47.685 98.3082C47.3993 98.3082 47.1618 98.268 46.9727 98.1875C46.7835 98.103 46.6165 98.0084 46.4716 97.9038C46.3267 97.7951 46.1778 97.7005 46.0249 97.62C45.8719 97.5355 45.6888 97.4933 45.4755 97.4933C45.2541 97.4933 45.071 97.5798 44.9261 97.7528C44.7853 97.9259 44.7148 98.1452 44.7148 98.4109ZM55.8714 106.494V112H54.0664V99.6364H55.8472V104.237H55.962C56.1793 103.737 56.5113 103.341 56.958 103.047C57.4048 102.753 57.9883 102.607 58.7088 102.607C59.3446 102.607 59.9 102.737 60.3749 102.999C60.8539 103.261 61.2241 103.651 61.4857 104.17C61.7514 104.685 61.8842 105.329 61.8842 106.102V112H60.0791V106.319C60.0791 105.639 59.9041 105.112 59.5539 104.738C59.2038 104.359 58.7168 104.17 58.093 104.17C57.6664 104.17 57.284 104.261 56.946 104.442C56.6119 104.623 56.3483 104.888 56.1551 105.239C55.966 105.585 55.8714 106.003 55.8714 106.494ZM68.4089 102.727V104.176H63.3439V102.727H68.4089ZM64.7022 100.506H66.5073V109.277C66.5073 109.627 66.5596 109.891 66.6642 110.068C66.7689 110.241 66.9037 110.36 67.0687 110.424C67.2377 110.485 67.4209 110.515 67.6181 110.515C67.7629 110.515 67.8897 110.505 67.9984 110.485C68.107 110.465 68.1916 110.449 68.2519 110.436L68.5779 111.928C68.4733 111.968 68.3244 112.008 68.1312 112.048C67.938 112.093 67.6965 112.117 67.4068 112.121C66.9319 112.129 66.4892 112.044 66.0786 111.867C65.6681 111.69 65.3361 111.416 65.0825 111.046C64.829 110.676 64.7022 110.211 64.7022 109.652V100.506ZM76.067 108.154V102.727H77.8781V112H76.1033V110.394H76.0067C75.7934 110.889 75.4513 111.302 74.9804 111.632C74.5135 111.958 73.932 112.121 73.2357 112.121C72.6401 112.121 72.1129 111.99 71.654 111.728C71.1993 111.463 70.8411 111.07 70.5795 110.551C70.3219 110.032 70.1931 109.39 70.1931 108.625V102.727H71.9982V108.408C71.9982 109.04 72.1732 109.543 72.5234 109.917C72.8735 110.292 73.3283 110.479 73.8877 110.479C74.2258 110.479 74.5618 110.394 74.8959 110.225C75.2339 110.056 75.5137 109.801 75.735 109.458C75.9604 109.116 76.0711 108.682 76.067 108.154ZM81.896 99.6364V112H80.091V99.6364H81.896ZM88.1083 112.187C87.1947 112.187 86.4079 111.992 85.7479 111.602C85.0919 111.207 84.5848 110.654 84.2266 109.941C83.8724 109.225 83.6953 108.386 83.6953 107.424C83.6953 106.474 83.8724 105.637 84.2266 104.913C84.5848 104.188 85.0838 103.623 85.7237 103.216C86.3677 102.81 87.1203 102.607 87.9815 102.607C88.5047 102.607 89.0118 102.693 89.5028 102.866C89.9938 103.039 90.4345 103.311 90.8249 103.681C91.2153 104.051 91.5232 104.532 91.7486 105.124C91.974 105.712 92.0866 106.426 92.0866 107.267V107.907H84.7156V106.555H90.3178C90.3178 106.08 90.2212 105.659 90.0281 105.293C89.8349 104.923 89.5632 104.631 89.2131 104.418C88.867 104.204 88.4605 104.098 87.9936 104.098C87.4865 104.098 87.0438 104.222 86.6655 104.472C86.2912 104.717 86.0014 105.039 85.7962 105.438C85.5949 105.832 85.4943 106.261 85.4943 106.724V107.78C85.4943 108.4 85.603 108.927 85.8203 109.362C86.0417 109.797 86.3496 110.129 86.744 110.358C87.1384 110.583 87.5992 110.696 88.1264 110.696C88.4685 110.696 88.7804 110.648 89.0621 110.551C89.3439 110.451 89.5874 110.302 89.7926 110.104C89.9979 109.907 90.1548 109.664 90.2635 109.374L91.9719 109.682C91.8351 110.185 91.5896 110.626 91.2354 111.004C90.8853 111.378 90.4446 111.67 89.9134 111.879C89.3861 112.085 88.7844 112.187 88.1083 112.187ZM95.6819 106.494V112H93.8769V99.6364H95.6578V104.237H95.7725C95.9898 103.737 96.3219 103.341 96.7686 103.047C97.2153 102.753 97.7989 102.607 98.5193 102.607C99.1552 102.607 99.7106 102.737 100.185 102.999C100.664 103.261 101.035 103.651 101.296 104.17C101.562 104.685 101.695 105.329 101.695 106.102V112H99.8897V106.319C99.8897 105.639 99.7146 105.112 99.3645 104.738C99.0143 104.359 98.5273 104.17 97.9035 104.17C97.4769 104.17 97.0946 104.261 96.7565 104.442C96.4225 104.623 96.1589 104.888 95.9657 105.239C95.7765 105.585 95.6819 106.003 95.6819 106.494ZM108.219 102.727V104.176H103.154V102.727H108.219ZM104.513 100.506H106.318V109.277C106.318 109.627 106.37 109.891 106.475 110.068C106.579 110.241 106.714 110.36 106.879 110.424C107.048 110.485 107.231 110.515 107.429 110.515C107.573 110.515 107.7 110.505 107.809 110.485C107.918 110.465 108.002 110.449 108.062 110.436L108.388 111.928C108.284 111.968 108.135 112.008 107.942 112.048C107.749 112.093 107.507 112.117 107.217 112.121C106.742 112.129 106.3 112.044 105.889 111.867C105.479 111.69 105.147 111.416 104.893 111.046C104.64 110.676 104.513 110.211 104.513 109.652V100.506ZM122.223 102.727L118.86 112H116.928L113.56 102.727H115.498L117.846 109.863H117.943L120.285 102.727H122.223ZM126.139 112.205C125.552 112.205 125.021 112.097 124.546 111.879C124.071 111.658 123.695 111.338 123.417 110.919C123.143 110.501 123.006 109.988 123.006 109.38C123.006 108.857 123.107 108.426 123.308 108.088C123.509 107.75 123.781 107.482 124.123 107.285C124.465 107.088 124.848 106.939 125.27 106.838C125.693 106.738 126.123 106.661 126.562 106.609C127.117 106.545 127.568 106.492 127.914 106.452C128.26 106.408 128.512 106.337 128.669 106.241C128.826 106.144 128.904 105.987 128.904 105.77V105.728C128.904 105.2 128.755 104.792 128.458 104.502C128.164 104.212 127.725 104.067 127.142 104.067C126.534 104.067 126.055 104.202 125.705 104.472C125.359 104.738 125.119 105.033 124.986 105.359L123.29 104.973C123.491 104.41 123.785 103.955 124.171 103.609C124.562 103.259 125.011 103.005 125.518 102.848C126.025 102.687 126.558 102.607 127.117 102.607C127.488 102.607 127.88 102.651 128.295 102.739C128.713 102.824 129.104 102.981 129.466 103.21C129.832 103.44 130.132 103.768 130.365 104.194C130.599 104.617 130.715 105.166 130.715 105.842V112H128.953V110.732H128.88C128.764 110.966 128.588 111.195 128.355 111.42C128.122 111.646 127.822 111.833 127.456 111.982C127.089 112.131 126.651 112.205 126.139 112.205ZM126.532 110.756C127.031 110.756 127.458 110.658 127.812 110.461C128.17 110.263 128.442 110.006 128.627 109.688C128.816 109.366 128.91 109.022 128.91 108.656V107.46C128.846 107.525 128.721 107.585 128.536 107.641C128.355 107.694 128.148 107.74 127.914 107.78C127.681 107.816 127.454 107.851 127.232 107.883C127.011 107.911 126.826 107.935 126.677 107.955C126.327 108 126.007 108.074 125.717 108.179C125.431 108.283 125.202 108.434 125.029 108.631C124.86 108.825 124.775 109.082 124.775 109.404C124.775 109.851 124.94 110.189 125.27 110.418C125.6 110.644 126.021 110.756 126.532 110.756ZM134.712 106.494V112H132.907V99.6364H134.688V104.237H134.803C135.02 103.737 135.352 103.341 135.799 103.047C136.246 102.753 136.829 102.607 137.55 102.607C138.185 102.607 138.741 102.737 139.216 102.999C139.695 103.261 140.065 103.651 140.327 104.17C140.592 104.685 140.725 105.329 140.725 106.102V112H138.92V106.319C138.92 105.639 138.745 105.112 138.395 104.738C138.045 104.359 137.558 104.17 136.934 104.17C136.507 104.17 136.125 104.261 135.787 104.442C135.453 104.623 135.189 104.888 134.996 105.239C134.807 105.585 134.712 106.003 134.712 106.494ZM146.918 112.187C146.004 112.187 145.217 111.992 144.557 111.602C143.901 111.207 143.394 110.654 143.036 109.941C142.682 109.225 142.505 108.386 142.505 107.424C142.505 106.474 142.682 105.637 143.036 104.913C143.394 104.188 143.893 103.623 144.533 103.216C145.177 102.81 145.93 102.607 146.791 102.607C147.314 102.607 147.821 102.693 148.312 102.866C148.803 103.039 149.244 103.311 149.634 103.681C150.025 104.051 150.333 104.532 150.558 105.124C150.783 105.712 150.896 106.426 150.896 107.267V107.907H143.525V106.555H149.127C149.127 106.08 149.031 105.659 148.837 105.293C148.644 104.923 148.373 104.631 148.022 104.418C147.676 104.204 147.27 104.098 146.803 104.098C146.296 104.098 145.853 104.222 145.475 104.472C145.101 104.717 144.811 105.039 144.606 105.438C144.404 105.832 144.304 106.261 144.304 106.724V107.78C144.304 108.4 144.412 108.927 144.63 109.362C144.851 109.797 145.159 110.129 145.553 110.358C145.948 110.583 146.409 110.696 146.936 110.696C147.278 110.696 147.59 110.648 147.872 110.551C148.153 110.451 148.397 110.302 148.602 110.104C148.807 109.907 148.964 109.664 149.073 109.374L150.781 109.682C150.644 110.185 150.399 110.626 150.045 111.004C149.695 111.378 149.254 111.67 148.723 111.879C148.195 112.085 147.594 112.187 146.918 112.187ZM154.491 106.494V112H152.686V102.727H154.419V104.237H154.534C154.747 103.746 155.081 103.351 155.536 103.053C155.995 102.755 156.572 102.607 157.268 102.607C157.9 102.607 158.454 102.739 158.928 103.005C159.403 103.267 159.772 103.657 160.033 104.176C160.295 104.695 160.426 105.337 160.426 106.102V112H158.621V106.319C158.621 105.647 158.446 105.122 158.095 104.744C157.745 104.361 157.264 104.17 156.653 104.17C156.234 104.17 155.862 104.261 155.536 104.442C155.214 104.623 154.958 104.888 154.769 105.239C154.584 105.585 154.491 106.003 154.491 106.494ZM166.105 112.181C165.357 112.181 164.689 111.99 164.101 111.608C163.517 111.221 163.059 110.672 162.724 109.96C162.394 109.243 162.229 108.384 162.229 107.382C162.229 106.38 162.396 105.522 162.731 104.81C163.069 104.098 163.531 103.552 164.119 103.174C164.707 102.796 165.373 102.607 166.117 102.607C166.693 102.607 167.156 102.703 167.506 102.896C167.86 103.085 168.134 103.307 168.327 103.56C168.524 103.814 168.677 104.037 168.786 104.23H168.894V99.6364H170.699V112H168.936V110.557H168.786C168.677 110.754 168.52 110.98 168.315 111.233C168.113 111.487 167.836 111.708 167.482 111.897C167.127 112.087 166.669 112.181 166.105 112.181ZM166.504 110.642C167.023 110.642 167.461 110.505 167.82 110.231C168.182 109.953 168.456 109.569 168.641 109.078C168.83 108.587 168.924 108.016 168.924 107.364C168.924 106.72 168.832 106.156 168.647 105.673C168.462 105.19 168.19 104.814 167.832 104.544C167.474 104.275 167.031 104.14 166.504 104.14C165.96 104.14 165.508 104.281 165.145 104.562C164.783 104.844 164.509 105.229 164.324 105.716C164.143 106.203 164.053 106.752 164.053 107.364C164.053 107.983 164.145 108.541 164.33 109.036C164.515 109.531 164.789 109.923 165.151 110.213C165.518 110.499 165.968 110.642 166.504 110.642ZM175.762 112.205C175.174 112.205 174.643 112.097 174.168 111.879C173.693 111.658 173.317 111.338 173.039 110.919C172.765 110.501 172.628 109.988 172.628 109.38C172.628 108.857 172.729 108.426 172.93 108.088C173.131 107.75 173.403 107.482 173.745 107.285C174.087 107.088 174.47 106.939 174.892 106.838C175.315 106.738 175.745 106.661 176.184 106.609C176.74 106.545 177.19 106.492 177.536 106.452C177.883 106.408 178.134 106.337 178.291 106.241C178.448 106.144 178.526 105.987 178.526 105.77V105.728C178.526 105.2 178.378 104.792 178.08 104.502C177.786 104.212 177.347 104.067 176.764 104.067C176.156 104.067 175.677 104.202 175.327 104.472C174.981 104.738 174.741 105.033 174.608 105.359L172.912 104.973C173.113 104.41 173.407 103.955 173.794 103.609C174.184 103.259 174.633 103.005 175.14 102.848C175.647 102.687 176.18 102.607 176.74 102.607C177.11 102.607 177.502 102.651 177.917 102.739C178.335 102.824 178.726 102.981 179.088 103.21C179.454 103.44 179.754 103.768 179.987 104.194C180.221 104.617 180.338 105.166 180.338 105.842V112H178.575V110.732H178.502C178.386 110.966 178.211 111.195 177.977 111.42C177.744 111.646 177.444 111.833 177.078 111.982C176.711 112.131 176.273 112.205 175.762 112.205ZM176.154 110.756C176.653 110.756 177.08 110.658 177.434 110.461C177.792 110.263 178.064 110.006 178.249 109.688C178.438 109.366 178.532 109.022 178.532 108.656V107.46C178.468 107.525 178.343 107.585 178.158 107.641C177.977 107.694 177.77 107.74 177.536 107.78C177.303 107.816 177.076 107.851 176.854 107.883C176.633 107.911 176.448 107.935 176.299 107.955C175.949 108 175.629 108.074 175.339 108.179C175.053 108.283 174.824 108.434 174.651 108.631C174.482 108.825 174.397 109.082 174.397 109.404C174.397 109.851 174.562 110.189 174.892 110.418C175.222 110.644 175.643 110.756 176.154 110.756ZM182.674 112V99.6364H184.479V104.23H184.588C184.692 104.037 184.843 103.814 185.041 103.56C185.238 103.307 185.511 103.085 185.862 102.896C186.212 102.703 186.675 102.607 187.25 102.607C187.999 102.607 188.667 102.796 189.254 103.174C189.842 103.552 190.303 104.098 190.637 104.81C190.975 105.522 191.144 106.38 191.144 107.382C191.144 108.384 190.977 109.243 190.643 109.96C190.309 110.672 189.85 111.221 189.266 111.608C188.683 111.99 188.017 112.181 187.268 112.181C186.705 112.181 186.244 112.087 185.886 111.897C185.532 111.708 185.254 111.487 185.053 111.233C184.851 110.98 184.697 110.754 184.588 110.557H184.437V112H182.674ZM184.443 107.364C184.443 108.016 184.538 108.587 184.727 109.078C184.916 109.569 185.19 109.953 185.548 110.231C185.906 110.505 186.345 110.642 186.864 110.642C187.403 110.642 187.854 110.499 188.216 110.213C188.578 109.923 188.852 109.531 189.037 109.036C189.226 108.541 189.321 107.983 189.321 107.364C189.321 106.752 189.228 106.203 189.043 105.716C188.862 105.229 188.588 104.844 188.222 104.562C187.86 104.281 187.407 104.14 186.864 104.14C186.341 104.14 185.898 104.275 185.536 104.544C185.177 104.814 184.906 105.19 184.721 105.673C184.536 106.156 184.443 106.72 184.443 107.364ZM197.245 102.727H199.05V112.604C199.05 113.223 198.937 113.747 198.712 114.173C198.49 114.6 198.16 114.924 197.722 115.145C197.287 115.367 196.75 115.477 196.11 115.477C196.046 115.477 195.985 115.477 195.929 115.477C195.868 115.477 195.806 115.475 195.742 115.471V113.92C195.798 113.92 195.848 113.92 195.893 113.92C195.933 113.92 195.979 113.92 196.031 113.92C196.458 113.92 196.766 113.805 196.955 113.576C197.148 113.35 197.245 113.022 197.245 112.592V102.727ZM198.138 101.297C197.824 101.297 197.555 101.192 197.329 100.983C197.108 100.769 196.997 100.516 196.997 100.222C196.997 99.9241 197.108 99.6706 197.329 99.4613C197.555 99.248 197.824 99.1413 198.138 99.1413C198.452 99.1413 198.72 99.248 198.941 99.4613C199.167 99.6706 199.279 99.9241 199.279 100.222C199.279 100.516 199.167 100.769 198.941 100.983C198.72 101.192 198.452 101.297 198.138 101.297ZM203.964 112.205C203.377 112.205 202.845 112.097 202.371 111.879C201.896 111.658 201.519 111.338 201.242 110.919C200.968 110.501 200.831 109.988 200.831 109.38C200.831 108.857 200.932 108.426 201.133 108.088C201.334 107.75 201.606 107.482 201.948 107.285C202.29 107.088 202.672 106.939 203.095 106.838C203.518 106.738 203.948 106.661 204.387 106.609C204.942 106.545 205.393 106.492 205.739 106.452C206.085 106.408 206.337 106.337 206.494 106.241C206.651 106.144 206.729 105.987 206.729 105.77V105.728C206.729 105.2 206.58 104.792 206.282 104.502C205.989 104.212 205.55 104.067 204.966 104.067C204.359 104.067 203.88 104.202 203.53 104.472C203.183 104.738 202.944 105.033 202.811 105.359L201.115 104.973C201.316 104.41 201.61 103.955 201.996 103.609C202.387 103.259 202.835 103.005 203.342 102.848C203.85 102.687 204.383 102.607 204.942 102.607C205.313 102.607 205.705 102.651 206.119 102.739C206.538 102.824 206.928 102.981 207.291 103.21C207.657 103.44 207.957 103.768 208.19 104.194C208.424 104.617 208.54 105.166 208.54 105.842V112H206.777V110.732H206.705C206.588 110.966 206.413 111.195 206.18 111.42C205.946 111.646 205.647 111.833 205.28 111.982C204.914 112.131 204.475 112.205 203.964 112.205ZM204.357 110.756C204.856 110.756 205.282 110.658 205.636 110.461C205.995 110.263 206.266 110.006 206.451 109.688C206.641 109.366 206.735 109.022 206.735 108.656V107.46C206.671 107.525 206.546 107.585 206.361 107.641C206.18 107.694 205.973 107.74 205.739 107.78C205.506 107.816 205.278 107.851 205.057 107.883C204.836 107.911 204.65 107.935 204.502 107.955C204.151 108 203.831 108.074 203.542 108.179C203.256 108.283 203.027 108.434 202.853 108.631C202.684 108.825 202.6 109.082 202.6 109.404C202.6 109.851 202.765 110.189 203.095 110.418C203.425 110.644 203.846 110.756 204.357 110.756ZM212.537 99.6364V112H210.732V99.6364H212.537ZM218.641 115.67C217.904 115.67 217.27 115.574 216.739 115.381C216.212 115.188 215.781 114.932 215.447 114.614C215.113 114.296 214.864 113.948 214.699 113.57L216.25 112.93C216.359 113.107 216.504 113.294 216.685 113.491C216.87 113.692 217.119 113.863 217.433 114.004C217.751 114.145 218.16 114.216 218.659 114.216C219.343 114.216 219.908 114.049 220.355 113.714C220.802 113.384 221.025 112.857 221.025 112.133V110.31H220.911C220.802 110.507 220.645 110.726 220.44 110.968C220.238 111.209 219.961 111.418 219.607 111.596C219.252 111.773 218.792 111.861 218.224 111.861C217.492 111.861 216.832 111.69 216.244 111.348C215.66 111.002 215.198 110.493 214.856 109.821C214.517 109.145 214.348 108.313 214.348 107.327C214.348 106.341 214.515 105.496 214.849 104.792C215.188 104.088 215.65 103.548 216.238 103.174C216.826 102.796 217.492 102.607 218.236 102.607C218.812 102.607 219.277 102.703 219.631 102.896C219.985 103.085 220.261 103.307 220.458 103.56C220.659 103.814 220.814 104.037 220.923 104.23H221.055V102.727H222.824V112.205C222.824 113.002 222.639 113.656 222.269 114.167C221.899 114.678 221.398 115.057 220.766 115.302C220.138 115.548 219.429 115.67 218.641 115.67ZM218.623 110.364C219.142 110.364 219.58 110.243 219.939 110.002C220.301 109.756 220.574 109.406 220.76 108.951C220.949 108.493 221.043 107.943 221.043 107.303C221.043 106.679 220.951 106.13 220.766 105.655C220.581 105.18 220.309 104.81 219.951 104.544C219.592 104.275 219.15 104.14 218.623 104.14C218.079 104.14 217.626 104.281 217.264 104.562C216.902 104.84 216.628 105.219 216.443 105.697C216.262 106.176 216.172 106.712 216.172 107.303C216.172 107.911 216.264 108.444 216.449 108.903C216.634 109.362 216.908 109.72 217.27 109.978C217.637 110.235 218.087 110.364 218.623 110.364ZM225.033 115.477V102.727H226.795V104.23H226.946C227.051 104.037 227.202 103.814 227.399 103.56C227.596 103.307 227.87 103.085 228.22 102.896C228.57 102.703 229.033 102.607 229.609 102.607C230.357 102.607 231.025 102.796 231.613 103.174C232.2 103.552 232.661 104.098 232.995 104.81C233.333 105.522 233.502 106.38 233.502 107.382C233.502 108.384 233.335 109.243 233.001 109.96C232.667 110.672 232.208 111.221 231.625 111.608C231.041 111.99 230.375 112.181 229.627 112.181C229.063 112.181 228.602 112.087 228.244 111.897C227.89 111.708 227.612 111.487 227.411 111.233C227.21 110.98 227.055 110.754 226.946 110.557H226.838V115.477H225.033ZM226.801 107.364C226.801 108.016 226.896 108.587 227.085 109.078C227.274 109.569 227.548 109.953 227.906 110.231C228.264 110.505 228.703 110.642 229.222 110.642C229.761 110.642 230.212 110.499 230.574 110.213C230.937 109.923 231.21 109.531 231.395 109.036C231.585 108.541 231.679 107.983 231.679 107.364C231.679 106.752 231.587 106.203 231.402 105.716C231.22 105.229 230.947 104.844 230.581 104.562C230.218 104.281 229.766 104.14 229.222 104.14C228.699 104.14 228.256 104.275 227.894 104.544C227.536 104.814 227.264 105.19 227.079 105.673C226.894 106.156 226.801 106.72 226.801 107.364ZM238.011 112.205C237.423 112.205 236.892 112.097 236.417 111.879C235.942 111.658 235.566 111.338 235.288 110.919C235.014 110.501 234.878 109.988 234.878 109.38C234.878 108.857 234.978 108.426 235.179 108.088C235.381 107.75 235.652 107.482 235.994 107.285C236.337 107.088 236.719 106.939 237.141 106.838C237.564 106.738 237.995 106.661 238.433 106.609C238.989 106.545 239.44 106.492 239.786 106.452C240.132 106.408 240.383 106.337 240.54 106.241C240.697 106.144 240.776 105.987 240.776 105.77V105.728C240.776 105.2 240.627 104.792 240.329 104.502C240.035 104.212 239.596 104.067 239.013 104.067C238.405 104.067 237.926 104.202 237.576 104.472C237.23 104.738 236.991 105.033 236.858 105.359L235.161 104.973C235.363 104.41 235.656 103.955 236.043 103.609C236.433 103.259 236.882 103.005 237.389 102.848C237.896 102.687 238.429 102.607 238.989 102.607C239.359 102.607 239.751 102.651 240.166 102.739C240.585 102.824 240.975 102.981 241.337 103.21C241.703 103.44 242.003 103.768 242.237 104.194C242.47 104.617 242.587 105.166 242.587 105.842V112H240.824V110.732H240.752C240.635 110.966 240.46 111.195 240.226 111.42C239.993 111.646 239.693 111.833 239.327 111.982C238.961 112.131 238.522 112.205 238.011 112.205ZM238.403 110.756C238.902 110.756 239.329 110.658 239.683 110.461C240.041 110.263 240.313 110.006 240.498 109.688C240.687 109.366 240.782 109.022 240.782 108.656V107.46C240.717 107.525 240.593 107.585 240.407 107.641C240.226 107.694 240.019 107.74 239.786 107.78C239.552 107.816 239.325 107.851 239.103 107.883C238.882 107.911 238.697 107.935 238.548 107.955C238.198 108 237.878 108.074 237.588 108.179C237.302 108.283 237.073 108.434 236.9 108.631C236.731 108.825 236.646 109.082 236.646 109.404C236.646 109.851 236.811 110.189 237.141 110.418C237.471 110.644 237.892 110.756 238.403 110.756ZM246.583 99.6364V112H244.778V99.6364H246.583ZM250.604 99.6364V112H248.799V99.6364H250.604ZM252.82 112V102.727H254.625V112H252.82ZM253.732 101.297C253.418 101.297 253.148 101.192 252.923 100.983C252.702 100.769 252.591 100.516 252.591 100.222C252.591 99.9241 252.702 99.6706 252.923 99.4613C253.148 99.248 253.418 99.1413 253.732 99.1413C254.046 99.1413 254.313 99.248 254.535 99.4613C254.76 99.6706 254.873 99.9241 254.873 100.222C254.873 100.516 254.76 100.769 254.535 100.983C254.313 101.192 254.046 101.297 253.732 101.297ZM41.3583 120.636H43.6222L47.5582 130.247H47.7031L51.6392 120.636H53.9031V133H52.1282V124.053H52.0135L48.3672 132.982H46.8942L43.2479 124.047H43.1332V133H41.3583V120.636ZM56.4026 120.636H58.6665L62.6026 130.247H62.7475L66.6835 120.636H68.9474V133H67.1725V124.053H67.0578L63.4115 132.982H61.9385L58.2922 124.047H58.1775V133H56.4026V120.636ZM71.3021 133V123.727H73.1071V133H71.3021ZM72.2137 122.297C71.8998 122.297 71.6301 122.192 71.4047 121.983C71.1834 121.769 71.0727 121.516 71.0727 121.222C71.0727 120.924 71.1834 120.671 71.4047 120.461C71.6301 120.248 71.8998 120.141 72.2137 120.141C72.5276 120.141 72.7952 120.248 73.0166 120.461C73.242 120.671 73.3547 120.924 73.3547 121.222C73.3547 121.516 73.242 121.769 73.0166 121.983C72.7952 122.192 72.5276 122.297 72.2137 122.297ZM77.128 120.636V133H75.323V120.636H77.128ZM83.6724 123.727V125.176H78.6074V123.727H83.6724ZM79.9657 121.506H81.7707V130.277C81.7707 130.627 81.8231 130.891 81.9277 131.068C82.0323 131.241 82.1672 131.36 82.3322 131.424C82.5012 131.485 82.6843 131.515 82.8815 131.515C83.0264 131.515 83.1532 131.505 83.2619 131.485C83.3705 131.465 83.455 131.449 83.5154 131.436L83.8414 132.928C83.7368 132.968 83.5879 133.008 83.3947 133.048C83.2015 133.093 82.96 133.117 82.6702 133.121C82.1953 133.129 81.7526 133.044 81.3421 132.867C80.9316 132.69 80.5996 132.416 80.346 132.046C80.0925 131.676 79.9657 131.211 79.9657 130.652V121.506ZM91.4033 129.855L91.3912 127.651H91.7051L95.3997 123.727H97.5609L93.3472 128.195H93.0634L91.4033 129.855ZM89.7431 133V120.636H91.5482V133H89.7431ZM95.5989 133L92.2786 128.593L93.5222 127.331L97.8145 133H95.5989ZM102.518 133.187C101.648 133.187 100.89 132.988 100.242 132.589C99.5937 132.191 99.0906 131.634 98.7324 130.917C98.3742 130.201 98.1951 129.364 98.1951 128.406C98.1951 127.444 98.3742 126.603 98.7324 125.882C99.0906 125.162 99.5937 124.603 100.242 124.204C100.89 123.806 101.648 123.607 102.518 123.607C103.387 123.607 104.146 123.806 104.793 124.204C105.441 124.603 105.945 125.162 106.303 125.882C106.661 126.603 106.84 127.444 106.84 128.406C106.84 129.364 106.661 130.201 106.303 130.917C105.945 131.634 105.441 132.191 104.793 132.589C104.146 132.988 103.387 133.187 102.518 133.187ZM102.524 131.672C103.087 131.672 103.554 131.523 103.924 131.225C104.294 130.927 104.568 130.531 104.745 130.036C104.926 129.541 105.017 128.996 105.017 128.4C105.017 127.808 104.926 127.265 104.745 126.77C104.568 126.271 104.294 125.87 103.924 125.569C103.554 125.267 103.087 125.116 102.524 125.116C101.956 125.116 101.485 125.267 101.111 125.569C100.741 125.87 100.465 126.271 100.284 126.77C100.107 127.265 100.018 127.808 100.018 128.4C100.018 128.996 100.107 129.541 100.284 130.036C100.465 130.531 100.741 130.927 101.111 131.225C101.485 131.523 101.956 131.672 102.524 131.672ZM100.7 122.604L99.487 122.568C99.487 121.9 99.6661 121.367 100.024 120.968C100.387 120.57 100.833 120.371 101.365 120.371C101.61 120.371 101.825 120.413 102.01 120.498C102.196 120.578 102.369 120.673 102.53 120.781C102.695 120.886 102.858 120.98 103.019 121.065C103.184 121.145 103.367 121.186 103.568 121.186C103.801 121.186 103.991 121.097 104.135 120.92C104.284 120.743 104.359 120.524 104.359 120.262L105.548 120.341C105.548 121.013 105.367 121.542 105.005 121.928C104.643 122.311 104.198 122.504 103.671 122.508C103.385 122.508 103.147 122.468 102.958 122.387C102.773 122.303 102.608 122.208 102.463 122.103C102.318 121.995 102.169 121.898 102.016 121.814C101.864 121.729 101.68 121.687 101.467 121.687C101.242 121.687 101.057 121.775 100.912 121.952C100.771 122.125 100.7 122.343 100.7 122.604ZM108.642 133V123.727H110.447V133H108.642ZM109.554 122.297C109.24 122.297 108.97 122.192 108.745 121.983C108.524 121.769 108.413 121.516 108.413 121.222C108.413 120.924 108.524 120.671 108.745 120.461C108.97 120.248 109.24 120.141 109.554 120.141C109.868 120.141 110.135 120.248 110.357 120.461C110.582 120.671 110.695 120.924 110.695 121.222C110.695 121.516 110.582 121.769 110.357 121.983C110.135 122.192 109.868 122.297 109.554 122.297ZM114.323 129.855L114.311 127.651H114.625L118.32 123.727H120.481L116.267 128.195H115.984L114.323 129.855ZM112.663 133V120.636H114.468V133H112.663ZM118.519 133L115.199 128.593L116.442 127.331L120.735 133H118.519ZM125.528 133.187C124.615 133.187 123.828 132.992 123.168 132.602C122.512 132.207 122.005 131.654 121.646 130.941C121.292 130.225 121.115 129.386 121.115 128.424C121.115 127.474 121.292 126.637 121.646 125.913C122.005 125.188 122.504 124.623 123.144 124.216C123.788 123.81 124.54 123.607 125.401 123.607C125.925 123.607 126.432 123.693 126.923 123.866C127.414 124.039 127.854 124.311 128.245 124.681C128.635 125.051 128.943 125.532 129.169 126.124C129.394 126.712 129.507 127.426 129.507 128.267V128.907H122.135V127.555H127.738C127.738 127.08 127.641 126.659 127.448 126.293C127.255 125.923 126.983 125.631 126.633 125.418C126.287 125.204 125.88 125.098 125.414 125.098C124.906 125.098 124.464 125.222 124.085 125.472C123.711 125.717 123.421 126.039 123.216 126.438C123.015 126.832 122.914 127.261 122.914 127.724V128.78C122.914 129.4 123.023 129.927 123.24 130.362C123.462 130.797 123.769 131.129 124.164 131.358C124.558 131.583 125.019 131.696 125.546 131.696C125.888 131.696 126.2 131.648 126.482 131.551C126.764 131.451 127.007 131.302 127.213 131.104C127.418 130.907 127.575 130.664 127.683 130.374L129.392 130.682C129.255 131.185 129.01 131.626 128.655 132.004C128.305 132.378 127.865 132.67 127.333 132.879C126.806 133.085 126.204 133.187 125.528 133.187ZM133.645 131.31L133.555 131.968C133.494 132.451 133.392 132.954 133.247 133.477C133.106 134.004 132.959 134.493 132.806 134.944C132.657 135.395 132.534 135.753 132.438 136.018H131.158C131.21 135.769 131.283 135.431 131.375 135.004C131.468 134.582 131.558 134.109 131.647 133.586C131.736 133.062 131.802 132.529 131.846 131.986L131.907 131.31H133.645ZM140.069 133V123.727H141.802V125.237H141.916C142.11 124.725 142.426 124.327 142.864 124.041C143.303 123.751 143.828 123.607 144.44 123.607C145.06 123.607 145.579 123.751 145.997 124.041C146.42 124.331 146.732 124.729 146.933 125.237H147.03C147.251 124.741 147.603 124.347 148.086 124.053C148.569 123.755 149.145 123.607 149.813 123.607C150.654 123.607 151.34 123.87 151.871 124.397C152.407 124.925 152.674 125.719 152.674 126.782V133H150.869V126.951C150.869 126.323 150.698 125.868 150.356 125.587C150.014 125.305 149.605 125.164 149.131 125.164C148.543 125.164 148.086 125.345 147.76 125.707C147.434 126.066 147.271 126.526 147.271 127.09V133H145.472V126.836C145.472 126.333 145.315 125.929 145.001 125.623C144.687 125.317 144.279 125.164 143.776 125.164C143.434 125.164 143.118 125.255 142.828 125.436C142.542 125.613 142.311 125.86 142.134 126.178C141.961 126.496 141.874 126.864 141.874 127.283V133H140.069ZM154.881 133V123.727H156.686V133H154.881ZM155.793 122.297C155.479 122.297 155.209 122.192 154.984 121.983C154.762 121.769 154.652 121.516 154.652 121.222C154.652 120.924 154.762 120.671 154.984 120.461C155.209 120.248 155.479 120.141 155.793 120.141C156.107 120.141 156.374 120.248 156.595 120.461C156.821 120.671 156.934 120.924 156.934 121.222C156.934 121.516 156.821 121.769 156.595 121.983C156.374 122.192 156.107 122.297 155.793 122.297ZM165.85 125.991L164.214 126.281C164.146 126.072 164.037 125.872 163.888 125.683C163.744 125.494 163.546 125.339 163.297 125.218C163.047 125.098 162.735 125.037 162.361 125.037C161.85 125.037 161.423 125.152 161.081 125.381C160.739 125.607 160.568 125.899 160.568 126.257C160.568 126.567 160.683 126.816 160.912 127.005C161.142 127.194 161.512 127.349 162.023 127.47L163.496 127.808C164.349 128.005 164.985 128.309 165.404 128.72C165.822 129.13 166.032 129.664 166.032 130.32C166.032 130.875 165.871 131.37 165.549 131.805C165.231 132.235 164.786 132.573 164.214 132.819C163.647 133.064 162.989 133.187 162.24 133.187C161.202 133.187 160.355 132.966 159.699 132.523C159.043 132.076 158.64 131.442 158.491 130.621L160.236 130.356C160.345 130.811 160.568 131.155 160.906 131.388C161.244 131.618 161.685 131.732 162.228 131.732C162.82 131.732 163.293 131.609 163.647 131.364C164.001 131.114 164.178 130.811 164.178 130.452C164.178 130.163 164.07 129.919 163.852 129.722C163.639 129.525 163.311 129.376 162.868 129.275L161.299 128.931C160.433 128.734 159.793 128.42 159.379 127.989C158.968 127.559 158.763 127.013 158.763 126.353C158.763 125.806 158.916 125.327 159.222 124.917C159.528 124.506 159.95 124.186 160.49 123.957C161.029 123.723 161.647 123.607 162.343 123.607C163.345 123.607 164.134 123.824 164.709 124.259C165.285 124.689 165.665 125.267 165.85 125.991ZM175.996 133.187C175.127 133.187 174.368 132.988 173.72 132.589C173.072 132.191 172.569 131.634 172.211 130.917C171.853 130.201 171.674 129.364 171.674 128.406C171.674 127.444 171.853 126.603 172.211 125.882C172.569 125.162 173.072 124.603 173.72 124.204C174.368 123.806 175.127 123.607 175.996 123.607C176.865 123.607 177.624 123.806 178.272 124.204C178.92 124.603 179.423 125.162 179.781 125.882C180.139 126.603 180.319 127.444 180.319 128.406C180.319 129.364 180.139 130.201 179.781 130.917C179.423 131.634 178.92 132.191 178.272 132.589C177.624 132.988 176.865 133.187 175.996 133.187ZM176.002 131.672C176.566 131.672 177.032 131.523 177.403 131.225C177.773 130.927 178.047 130.531 178.224 130.036C178.405 129.541 178.495 128.996 178.495 128.4C178.495 127.808 178.405 127.265 178.224 126.77C178.047 126.271 177.773 125.87 177.403 125.569C177.032 125.267 176.566 125.116 176.002 125.116C175.435 125.116 174.964 125.267 174.589 125.569C174.219 125.87 173.944 126.271 173.762 126.77C173.585 127.265 173.497 127.808 173.497 128.4C173.497 128.996 173.585 129.541 173.762 130.036C173.944 130.531 174.219 130.927 174.589 131.225C174.964 131.523 175.435 131.672 176.002 131.672ZM183.926 120.636V133H182.121V120.636H183.926ZM192.016 129.154V123.727H193.827V133H192.052V131.394H191.955C191.742 131.889 191.4 132.302 190.929 132.632C190.462 132.958 189.881 133.121 189.184 133.121C188.589 133.121 188.061 132.99 187.603 132.728C187.148 132.463 186.79 132.07 186.528 131.551C186.271 131.032 186.142 130.39 186.142 129.625V123.727H187.947V129.408C187.947 130.04 188.122 130.543 188.472 130.917C188.822 131.292 189.277 131.479 189.836 131.479C190.174 131.479 190.51 131.394 190.845 131.225C191.183 131.056 191.462 130.801 191.684 130.458C191.909 130.116 192.02 129.682 192.016 129.154ZM197.845 120.636V133H196.04V120.636H197.845ZM200.06 133V123.727H201.866V133H200.06ZM200.972 122.297C200.658 122.297 200.389 122.192 200.163 121.983C199.942 121.769 199.831 121.516 199.831 121.222C199.831 120.924 199.942 120.671 200.163 120.461C200.389 120.248 200.658 120.141 200.972 120.141C201.286 120.141 201.554 120.248 201.775 120.461C202 120.671 202.113 120.924 202.113 121.222C202.113 121.516 202 121.769 201.775 121.983C201.554 122.192 201.286 122.297 200.972 122.297ZM205.886 127.494V133H204.081V123.727H205.814V125.237H205.929C206.142 124.746 206.476 124.351 206.931 124.053C207.39 123.755 207.967 123.607 208.663 123.607C209.295 123.607 209.849 123.739 210.324 124.005C210.798 124.267 211.167 124.657 211.428 125.176C211.69 125.695 211.821 126.337 211.821 127.102V133H210.016V127.319C210.016 126.647 209.841 126.122 209.49 125.744C209.14 125.361 208.659 125.17 208.048 125.17C207.629 125.17 207.257 125.261 206.931 125.442C206.609 125.623 206.353 125.888 206.164 126.239C205.979 126.585 205.886 127.003 205.886 127.494ZM218.026 133.187C217.112 133.187 216.325 132.992 215.665 132.602C215.009 132.207 214.502 131.654 214.144 130.941C213.79 130.225 213.613 129.386 213.613 128.424C213.613 127.474 213.79 126.637 214.144 125.913C214.502 125.188 215.001 124.623 215.641 124.216C216.285 123.81 217.037 123.607 217.899 123.607C218.422 123.607 218.929 123.693 219.42 123.866C219.911 124.039 220.352 124.311 220.742 124.681C221.133 125.051 221.44 125.532 221.666 126.124C221.891 126.712 222.004 127.426 222.004 128.267V128.907H214.633V127.555H220.235C220.235 127.08 220.138 126.659 219.945 126.293C219.752 125.923 219.48 125.631 219.13 125.418C218.784 125.204 218.378 125.098 217.911 125.098C217.404 125.098 216.961 125.222 216.583 125.472C216.208 125.717 215.919 126.039 215.713 126.438C215.512 126.832 215.412 127.261 215.412 127.724V128.78C215.412 129.4 215.52 129.927 215.738 130.362C215.959 130.797 216.267 131.129 216.661 131.358C217.056 131.583 217.516 131.696 218.044 131.696C218.386 131.696 218.698 131.648 218.979 131.551C219.261 131.451 219.505 131.302 219.71 131.104C219.915 130.907 220.072 130.664 220.181 130.374L221.889 130.682C221.752 131.185 221.507 131.626 221.153 132.004C220.802 132.378 220.362 132.67 219.831 132.879C219.303 133.085 218.702 133.187 218.026 133.187ZM226.07 120.636L225.913 129.444H224.241L224.084 120.636H226.07ZM225.08 133.115C224.746 133.115 224.46 132.998 224.223 132.765C223.985 132.527 223.869 132.241 223.873 131.907C223.869 131.577 223.985 131.296 224.223 131.062C224.46 130.825 224.746 130.706 225.08 130.706C225.406 130.706 225.688 130.825 225.925 131.062C226.163 131.296 226.283 131.577 226.287 131.907C226.283 132.129 226.225 132.332 226.112 132.517C226.004 132.698 225.859 132.843 225.678 132.952C225.496 133.06 225.297 133.115 225.08 133.115Z" fill="#F3FFAD"/>
<path d="M163.682 168.512L165.448 163.21L157.848 164.84C157.492 165.916 157.049 167.24 156.625 168.512H153.375C153.297 168.698 153.264 168.889 153.264 169.094C153.264 170.091 153.938 170.922 155.075 171.264C155.231 171.312 155.431 171.353 155.665 171.39L155.358 172.313C154.592 174.609 154.273 176.263 154.273 177.198C154.273 179.585 155.747 180.998 158.073 180.998C159.225 180.998 160.291 180.646 161.873 179.37C161.503 178.621 161.329 177.854 161.329 176.656C161.329 175.953 161.525 174.984 161.873 173.94C162.081 173.323 162.362 172.472 162.689 171.499H165.003L166 168.512H163.682Z" fill="white"/>
<path d="M149.484 168.238C147.223 168.238 144.179 170.301 143.984 170.655L147.23 160.909L139.769 162.538L133.796 180.455H140.719L142.891 173.94C143.459 172.23 143.973 171.77 144.785 171.769H144.791C145.579 171.769 145.872 172.505 145.355 174.05C145.248 174.374 144.884 175.467 144.574 176.4C144.266 177.326 144.188 177.767 144.188 178.384C144.188 179.825 145.213 181 147.274 181C148.48 181 150.222 180.408 151.429 179.429C151.176 178.915 151.043 178.236 151.043 177.475C151.043 177.048 151.205 176.241 151.715 174.707C152.352 172.796 152.47 172.03 152.47 171.228C152.47 169.177 151.564 168.238 149.484 168.238Z" fill="white"/>
<path d="M127.284 178.825C125.531 178.825 124.911 178.201 125.232 176.385H126.378C131.799 176.385 135.251 174.583 135.251 171.443C135.251 169.592 133.656 167.967 129.273 167.967C121.992 167.967 118.69 171.7 118.69 176.385C118.69 179.132 120.702 180.998 124.932 180.998C128.078 180.998 130.696 180.226 132.494 178.819L132.089 177.708C130.144 178.595 128.995 178.825 127.284 178.825ZM125.746 174.485C127.053 170.628 127.566 170.139 128.55 170.139C129.365 170.139 129.597 171.062 129.002 172.855C128.604 174.044 126.998 175.028 125.573 175.028C125.626 174.853 125.683 174.671 125.746 174.485Z" fill="white"/>
<path d="M121.569 160.909L113.969 162.538L110.711 172.313C109.946 174.609 109.626 176.263 109.626 177.198C109.626 179.585 111.1 180.998 113.425 180.998C114.575 180.998 115.648 180.646 117.226 179.37C116.856 178.621 116.684 177.854 116.684 176.656C116.684 175.953 116.877 174.984 117.226 173.94L121.569 160.909Z" fill="white"/>
<path d="M109.768 168.512H102.985L101.357 173.398C100.015 177.415 99.659 177.739 98.642 177.739C97.9261 177.739 97.6258 176.99 98.642 173.94C99.041 172.742 99.7115 170.663 100.429 168.512H93.65L92.384 172.313C91.6194 174.609 91.3126 176.263 91.3126 177.198C91.3126 179.585 92.7886 180.998 95.1133 180.998C96.7243 180.998 98.6694 179.907 100.007 179.09C100.54 180.276 101.529 181 103.097 181C104.243 181 106.204 180.646 107.777 179.37C107.474 178.757 107.29 178.116 107.29 177.064C107.29 176.128 107.504 175.365 107.796 174.485C108.197 173.284 109.058 170.663 109.768 168.512Z" fill="white"/>
<path d="M92.4358 168.512H90.1183L91.8856 163.21L84.287 164.84L83.0612 168.512H79.811C79.736 168.698 79.6997 168.889 79.6997 169.094C79.7034 170.091 80.3754 170.922 81.5105 171.264C81.6673 171.312 81.8672 171.353 82.1027 171.39C81.9845 171.742 81.8807 172.055 81.797 172.313C81.0279 174.609 80.7125 176.263 80.7125 177.198C80.7125 179.585 82.1829 180.998 84.5113 180.998C85.6606 180.998 86.7301 180.646 88.3108 179.37C87.9391 178.621 87.7666 177.854 87.7666 176.656C87.7666 175.953 87.9631 174.984 88.3108 173.94C88.517 173.323 88.7979 172.472 89.1253 171.499H91.439L92.4358 168.512Z" fill="white"/>
<path d="M75.8415 168.238C73.579 168.238 70.5341 170.301 70.343 170.655L73.5896 160.909L66.1237 162.538L60.154 180.455H67.0732L69.245 173.94C69.8167 172.23 70.3288 171.77 71.1413 171.769C71.9317 171.768 72.2304 172.505 71.7148 174.05C71.6054 174.374 71.24 175.467 70.9298 176.4C70.6186 177.326 70.5439 177.767 70.5439 178.384C70.5439 179.825 71.5708 181 73.6279 181C74.8361 181 76.5777 180.408 77.7831 179.429C77.5299 178.915 77.3955 178.236 77.3955 177.475C77.3955 177.048 77.5611 176.241 78.0729 174.707C78.7067 172.796 78.8286 172.03 78.8286 171.228C78.8286 169.177 77.9218 168.238 75.8415 168.238Z" fill="white"/>
<path d="M53.898 161.996C46.8392 161.996 40 166.271 40 174.414C40 178.415 43.6654 181 47.5655 181C54.6234 181 61.4643 176.724 61.4643 168.582C61.4643 164.58 57.7972 161.996 53.898 161.996ZM52.4355 171.499C50.3801 177.664 49.7996 178.36 48.4439 178.36C47.305 178.36 46.9628 177.664 49.02 171.499C51.0762 165.329 51.663 164.633 53.017 164.633C54.1584 164.633 54.4918 165.329 52.4355 171.499Z" fill="white"/>
<path d="M53.8979 160.168C56.2084 160.168 58.4052 160.924 60.089 162.296C60.1654 162.362 60.2401 162.43 60.3184 162.494C61.5336 161.884 62.3933 160.834 62.3933 158.945C62.3933 158.295 62.003 157.397 61.5132 157C61.1194 157.295 60.7131 157.501 60.0845 157.69C59.713 157.799 59.2035 157.859 58.6532 157.859H50.2877C49.0759 157.859 48.202 157.969 47.7131 158.115C46.2382 158.559 45.6986 159.332 45.6986 160.304C45.6986 160.949 45.9173 161.494 46.2667 161.836C48.5425 160.749 51.1597 160.168 53.8979 160.168Z" fill="white"/>
</svg>
