<svg width="350" height="250" viewBox="0 0 350 250" fill="none" xmlns="http://www.w3.org/2000/svg">
<path d="M36.52 59.76C38.02 59.76 39.32 59.98 40.42 60.42C41.54 60.84 42.57 61.49 43.51 62.37L41.41 64.8C40.67 64.2 39.93 63.76 39.19 63.48C38.45 63.2 37.66 63.06 36.82 63.06C35.9 63.06 35.16 63.26 34.6 63.66C34.06 64.04 33.79 64.59 33.79 65.31C33.79 65.81 33.9 66.22 34.12 66.54C34.36 66.86 34.77 67.16 35.35 67.44C35.93 67.72 36.8 68.04 37.96 68.4C40.02 69.06 41.56 69.88 42.58 70.86C43.6 71.82 44.11 73.2 44.11 75C44.11 76.28 43.79 77.41 43.15 78.39C42.51 79.35 41.58 80.11 40.36 80.67C39.14 81.21 37.71 81.48 36.07 81.48C34.43 81.48 32.97 81.22 31.69 80.7C30.41 80.18 29.31 79.47 28.39 78.57L30.64 76.08C31.44 76.76 32.27 77.28 33.13 77.64C33.99 77.98 34.93 78.15 35.95 78.15C37.03 78.15 37.89 77.9 38.53 77.4C39.19 76.9 39.52 76.2 39.52 75.3C39.52 74.74 39.4 74.28 39.16 73.92C38.94 73.54 38.55 73.2 37.99 72.9C37.43 72.6 36.62 72.29 35.56 71.97C33.3 71.27 31.68 70.43 30.7 69.45C29.74 68.47 29.26 67.19 29.26 65.61C29.26 64.45 29.57 63.43 30.19 62.55C30.81 61.65 31.67 60.96 32.77 60.48C33.87 60 35.12 59.76 36.52 59.76ZM51.5629 60.24V81H47.1529V60.24H51.5629ZM62.3013 59.76C63.8013 59.76 65.1013 59.98 66.2013 60.42C67.3213 60.84 68.3513 61.49 69.2913 62.37L67.1913 64.8C66.4513 64.2 65.7113 63.76 64.9713 63.48C64.2313 63.2 63.4413 63.06 62.6012 63.06C61.6813 63.06 60.9413 63.26 60.3813 63.66C59.8413 64.04 59.5713 64.59 59.5713 65.31C59.5713 65.81 59.6813 66.22 59.9013 66.54C60.1413 66.86 60.5513 67.16 61.1313 67.44C61.7113 67.72 62.5813 68.04 63.7413 68.4C65.8013 69.06 67.3413 69.88 68.3613 70.86C69.3813 71.82 69.8913 73.2 69.8913 75C69.8913 76.28 69.5712 77.41 68.9312 78.39C68.2913 79.35 67.3613 80.11 66.1413 80.67C64.9213 81.21 63.4913 81.48 61.8513 81.48C60.2113 81.48 58.7513 81.22 57.4713 80.7C56.1913 80.18 55.0913 79.47 54.1713 78.57L56.4213 76.08C57.2213 76.76 58.0513 77.28 58.9113 77.64C59.7713 77.98 60.7113 78.15 61.7313 78.15C62.8113 78.15 63.6713 77.9 64.3113 77.4C64.9713 76.9 65.3013 76.2 65.3013 75.3C65.3013 74.74 65.1813 74.28 64.9413 73.92C64.7213 73.54 64.3313 73.2 63.7713 72.9C63.2113 72.6 62.4013 72.29 61.3413 71.97C59.0813 71.27 57.4613 70.43 56.4813 69.45C55.5213 68.47 55.0413 67.19 55.0413 65.61C55.0413 64.45 55.3513 63.43 55.9713 62.55C56.5913 61.65 57.4513 60.96 58.5513 60.48C59.6513 60 60.9013 59.76 62.3013 59.76ZM88.4441 74.16C88.4441 75.58 88.1441 76.84 87.5441 77.94C86.9441 79.04 86.0441 79.91 84.8441 80.55C83.6641 81.17 82.2241 81.48 80.5241 81.48C77.9641 81.48 76.0041 80.82 74.6441 79.5C73.3041 78.16 72.6341 76.38 72.6341 74.16V60.24H77.0441V73.95C77.0441 75.35 77.3241 76.4 77.8841 77.1C78.4441 77.78 79.3241 78.12 80.5241 78.12C81.7241 78.12 82.6041 77.78 83.1641 77.1C83.7441 76.4 84.0341 75.35 84.0341 73.95V60.24H88.4441V74.16ZM104.297 60.24V77.46H112.517L112.037 81H99.8873V60.24H104.297ZM122.052 59.76C123.952 59.76 125.592 60.19 126.972 61.05C128.352 61.89 129.412 63.12 130.152 64.74C130.892 66.36 131.262 68.32 131.262 70.62C131.262 72.88 130.892 74.83 130.152 76.47C129.412 78.09 128.352 79.33 126.972 80.19C125.592 81.05 123.952 81.48 122.052 81.48C120.152 81.48 118.502 81.06 117.102 80.22C115.722 79.36 114.662 78.12 113.922 76.5C113.182 74.86 112.812 72.9 112.812 70.62C112.812 68.38 113.182 66.45 113.922 64.83C114.682 63.19 115.752 61.94 117.132 61.08C118.532 60.2 120.172 59.76 122.052 59.76ZM122.052 63.06C120.532 63.06 119.382 63.66 118.602 64.86C117.842 66.06 117.462 67.98 117.462 70.62C117.462 73.26 117.852 75.18 118.632 76.38C119.412 77.58 120.552 78.18 122.052 78.18C123.572 78.18 124.712 77.59 125.472 76.41C126.232 75.21 126.612 73.28 126.612 70.62C126.612 67.96 126.232 66.04 125.472 64.86C124.712 63.66 123.572 63.06 122.052 63.06ZM146.994 60.24L146.514 63.45H139.014V68.85H145.554V72.03H139.014V77.76H147.054V81H134.604V60.24H146.994ZM161.074 70.02C162.474 70.28 163.604 70.79 164.464 71.55C165.344 72.29 165.784 73.43 165.784 74.97C165.784 77.15 165.004 78.7 163.444 79.62C161.884 80.54 159.714 81 156.934 81H150.454V60.24H156.124C158.964 60.24 161.134 60.66 162.634 61.5C164.134 62.34 164.884 63.69 164.884 65.55C164.884 66.77 164.514 67.76 163.774 68.52C163.054 69.26 162.154 69.76 161.074 70.02ZM154.864 63.42V68.67H157.024C158.104 68.67 158.934 68.45 159.514 68.01C160.094 67.55 160.384 66.86 160.384 65.94C160.384 65.02 160.074 64.37 159.454 63.99C158.834 63.61 157.864 63.42 156.544 63.42H154.864ZM156.964 77.73C158.344 77.73 159.394 77.53 160.114 77.13C160.834 76.71 161.194 75.93 161.194 74.79C161.194 72.71 159.914 71.67 157.354 71.67H154.864V77.73H156.964ZM172.571 60.24L172.061 73.53H168.581L168.011 60.24H172.571ZM170.321 76.35C171.041 76.35 171.651 76.6 172.151 77.1C172.651 77.6 172.901 78.2 172.901 78.9C172.901 79.6 172.651 80.21 172.151 80.73C171.651 81.23 171.041 81.48 170.321 81.48C169.621 81.48 169.021 81.23 168.521 80.73C168.021 80.21 167.771 79.6 167.771 78.9C167.771 78.2 168.021 77.6 168.521 77.1C169.021 76.6 169.621 76.35 170.321 76.35Z" fill="#FFE80D"/>
<path d="M87.7413 86.5183C91.602 86.5859 95.3148 87.0907 99.2137 87.1103C103.896 87.1335 108.68 86.7163 113.417 86.8554C113.566 86.8597 113.717 86.8645 113.87 86.8698C118.667 87.0296 123.52 87.1503 128.352 87.2875C133.192 87.4221 138.024 87.5641 142.871 87.7048C144.157 87.7422 145.446 87.7792 146.728 87.8149C150.255 87.9103 153.764 87.8982 157.248 87.5824C159.67 87.3904 162.024 86.8833 164.561 86.5705L164.544 86.5733C165.353 86.4686 166.16 86.3505 166.967 86.2197C168.386 85.9961 169.79 85.7024 171.243 85.5005C171.372 85.4837 171.503 85.4678 171.632 85.4542C172.573 85.3655 173.493 85.212 174.419 85.0113C174.566 84.9799 174.71 84.9714 174.826 84.9883C174.938 85.0061 175.014 85.0475 175.03 85.1075C175.047 85.1675 175.003 85.2423 174.914 85.3152C174.822 85.389 174.692 85.4545 174.547 85.5002C173.64 85.7889 172.688 86.0401 171.75 86.2183C171.621 86.2446 171.489 86.2734 171.359 86.3034C170.215 86.5726 169.056 86.9234 167.883 87.2332C167.643 87.0243 167.346 86.8915 166.85 86.9075C166.597 86.9157 166.236 86.9705 165.984 87.0682C165.756 87.1564 165.592 87.265 165.436 87.3681C165.273 87.476 165.116 87.5781 164.905 87.642C164.851 87.6583 164.797 87.676 164.744 87.6948C164.741 87.6952 164.732 87.6968 164.729 87.6971C164.437 87.7938 164.163 87.9364 163.878 88.0897C163.758 88.155 163.631 88.2232 163.504 88.2898C162.409 88.5681 161.283 88.8778 160.141 89.141C159.687 89.1982 159.281 89.2462 158.931 89.3144C158.624 89.3744 158.34 89.4731 158.067 89.5812C157.886 89.6158 157.709 89.649 157.531 89.6815C156.368 89.893 155.222 90.0657 154.055 90.2138C153.142 90.2222 152.187 90.2231 150.951 90.2554C150.416 90.2691 149.882 90.2542 149.387 90.2359C148.634 90.2098 147.93 90.1775 147.329 90.225C147.146 90.2393 146.956 90.2411 146.762 90.2359C146.535 90.2294 146.299 90.2126 146.059 90.1959C145.489 90.1551 144.913 90.114 144.396 90.2183C144.062 90.284 143.777 90.3623 143.496 90.4351C143.046 90.5509 142.677 90.6517 142.32 90.662C141.669 90.6812 141.096 90.7674 140.599 90.8431C139.99 90.9344 139.497 91.0105 139.047 90.9367C138.98 90.9256 138.904 90.9106 138.817 90.8935C138.361 90.8037 137.629 90.66 136.581 90.7495C136.21 90.7813 135.855 90.8597 135.515 90.9365C135.017 91.0484 134.53 91.1567 134.011 91.1126C133.934 91.106 133.852 91.077 133.778 91.0505C133.684 91.0168 133.602 90.9874 133.553 91.0136C133.411 91.0905 133.186 91.1759 132.941 91.2687C132.761 91.3368 132.569 91.4091 132.393 91.4848C131.047 91.5333 129.699 91.5785 128.351 91.6197C127.734 91.6386 127.114 91.6567 126.498 91.6739C126.181 91.5595 125.857 91.4564 125.517 91.3783C125.068 91.2762 124.495 91.2448 123.745 91.2033C123.199 91.1727 122.557 91.1367 121.813 91.0628C120.435 90.9264 119.026 90.9479 118.112 91.0116C117.923 91.0251 117.727 91.0395 117.519 91.0552C116.743 91.1139 115.762 91.1896 113.895 91.2505C113.702 91.2566 113.515 91.2619 113.335 91.2665C111.831 91.3035 110.546 91.307 109.553 91.3116C108.984 91.3143 108.511 91.3171 108.149 91.3277C107.528 91.3457 106.767 91.3611 106.002 91.3776C104.804 91.4034 103.598 91.4315 102.915 91.4719C102.671 91.4863 102.416 91.5043 102.14 91.5235C101.375 91.5766 100.452 91.6411 99.1761 91.6738C97.837 91.7079 97.0065 91.6739 96.1429 91.6056C95.7935 91.5779 95.482 91.4775 95.1657 91.3735C94.7145 91.226 94.2455 91.0716 93.6045 91.107C93.4558 91.1153 93.2966 91.1361 93.1295 91.1579C92.8216 91.1979 92.492 91.241 92.1527 91.2138C92.0346 91.2043 91.9298 91.176 91.8287 91.1482C91.7175 91.1177 91.6084 91.0878 91.4838 91.0838C91.0166 91.069 90.5664 91.0661 90.1612 91.0627C89.6441 91.0585 89.2035 91.0537 88.9367 91.0236C88.4564 90.9698 87.9298 90.9918 87.3932 91.0129C86.9854 91.029 86.5721 91.0447 86.1736 91.0256C85.917 91.0133 85.637 91.0043 85.3371 90.9981C84.3277 90.9774 83.1173 90.9975 81.8774 91.0481C81.2704 91.0728 80.7593 90.9963 80.1045 90.899C79.697 90.8384 79.2339 90.7697 78.6571 90.7129C78.3302 90.6808 78.0506 90.7269 77.7927 90.7695C77.5542 90.8088 77.3337 90.8452 77.1093 90.8152C76.9106 90.7886 76.7877 90.6948 76.6703 90.6056C76.5398 90.5064 76.4172 90.413 76.2073 90.425C76.0957 90.4314 75.959 90.4731 75.7964 90.5226C75.7321 90.5422 75.6635 90.5629 75.5909 90.5833C75.5951 90.565 75.5964 90.5486 75.5968 90.5362C75.5994 90.4484 75.3868 90.3965 75.1784 90.3457C75.0951 90.3254 75.0119 90.3053 74.9441 90.2831C74.6938 90.2015 74.2169 90.1767 73.8516 90.1704C73.6973 90.1678 73.5578 90.1368 73.3955 90.1007C73.3479 90.0901 73.2983 90.0791 73.2456 90.0682C73.1408 90.0461 73.0236 90.0245 72.8855 90.0086C72.768 89.995 72.6777 89.9673 72.6029 89.9442C72.5487 89.9275 72.5025 89.9132 72.4594 89.9087C72.4221 89.9048 72.3912 89.9293 72.3565 89.9568C72.3316 89.9766 72.3044 89.9981 72.2714 90.0118C72.1914 90.0444 72.0935 90.0525 72.0244 90.0399C71.9925 90.034 71.9674 90.0236 71.9425 90.0133C71.9134 90.0013 71.8846 89.9892 71.8444 89.9843C71.6602 89.9619 71.4789 89.9867 71.2896 90.0126C71.0794 90.0411 70.8687 90.071 70.6298 90.041C70.5548 90.0316 70.4749 90.0118 70.3974 89.9926C70.3163 89.9724 70.2373 89.953 70.1698 89.9471C69.8936 89.9228 69.6422 89.9815 69.4044 90.0355C69.247 90.0715 69.098 90.1054 68.9597 90.1117C68.7063 90.1232 68.5728 90.1968 68.4722 90.2512C68.4203 90.2793 68.3779 90.3025 68.3337 90.309C68.2933 90.3064 68.2523 90.3034 68.2121 90.3002C68.1753 90.2942 68.1372 90.288 68.1013 90.2893C68.0986 90.2894 68.0959 90.2897 68.0932 90.2898C67.868 90.2688 67.6456 90.2402 67.4277 90.212C66.9362 90.1485 66.4463 90.0865 65.9319 90.1149C65.8207 90.1211 65.7071 90.1514 65.5915 90.1822C65.4498 90.22 65.305 90.2587 65.1585 90.2549C64.8088 90.246 64.4548 90.1929 64.1063 90.1409C63.5832 90.0628 63.0702 89.9873 62.5993 90.0684C62.4438 90.0952 62.2921 90.14 62.1401 90.1852C62.0554 90.2104 61.9703 90.2358 61.8845 90.2581C61.9027 90.2168 61.9123 90.1781 61.9214 90.142C61.94 90.0675 61.956 90.0038 62.0385 89.9497C62.2335 89.8218 62.4548 89.6459 62.4304 89.5175C62.4237 89.4827 62.4291 89.4439 62.4351 89.4048C62.4499 89.3068 62.465 89.2067 62.2836 89.1614C62.1612 89.1308 61.8475 89.0608 61.6472 89.136C61.6036 89.1523 61.5771 89.1847 61.5476 89.2207C61.4947 89.2855 61.4316 89.3621 61.2423 89.3802C61.2104 89.3832 61.1758 89.386 61.14 89.3886C60.9972 89.3989 60.8374 89.4104 60.7779 89.4625C60.7093 89.5226 60.7242 89.5911 60.7415 89.671C60.764 89.7751 60.7908 89.8986 60.6433 90.0481C60.6142 90.0777 60.5579 90.0879 60.5156 90.0957C60.4858 90.1012 60.463 90.1056 60.4607 90.1145C60.4582 90.1247 60.4677 90.1458 60.48 90.1726C60.5231 90.2671 60.5978 90.432 60.2877 90.4401C60.2039 90.4423 60.108 90.4348 60.022 90.428C59.8954 90.4181 59.7903 90.4099 59.7764 90.437C59.7712 90.4473 59.7675 90.4584 59.7644 90.47C59.6638 90.4672 59.5632 90.4644 59.4628 90.4617C59.333 90.4301 59.1507 90.4339 58.9241 90.4389C58.8691 90.4401 58.8112 90.4413 58.7511 90.4421C58.5519 90.4368 58.3555 90.4316 58.155 90.4263C57.9965 90.4139 57.8281 90.393 57.6507 90.3593C57.2959 90.2916 56.9863 90.1779 56.6818 90.0669C56.5539 90.0202 56.4274 89.9738 56.2994 89.9317C56.349 89.9258 56.3938 89.9189 56.4283 89.9098C56.6641 89.8475 56.7584 89.7291 56.845 89.6201C56.9027 89.5476 56.9572 89.4792 57.0483 89.4346C57.2148 89.3528 57.1961 89.2593 57.1835 89.1901C57.1769 89.1543 57.1718 89.1249 57.1936 89.1072C57.2113 89.093 57.2523 89.086 57.2947 89.0788C57.3317 89.0725 57.3699 89.0659 57.3942 89.0544C57.6903 88.9145 57.6003 88.8357 57.4691 88.721C57.3967 88.6578 57.3122 88.5836 57.2729 88.4822C57.2389 88.3748 57.2495 88.3431 57.4051 88.2988C57.2827 88.2467 57.1622 88.1946 57.0387 88.1427C56.9906 88.1466 56.9545 88.1803 56.9038 88.2361C56.8133 88.3357 56.5165 88.375 56.2862 88.4059C56.1795 88.4202 56.0869 88.4327 56.0348 88.4485C55.7557 88.5324 55.8378 88.6435 55.9116 88.7413C55.9521 88.795 55.9893 88.8448 55.9612 88.8838C55.9492 88.9005 55.9671 88.9167 55.9844 88.9332C55.9979 88.946 56.0117 88.9589 56.0124 88.9725C56.0181 89.0706 55.8519 89.1456 55.6986 89.2153C55.6109 89.2552 55.5274 89.2935 55.4815 89.3333C55.4676 89.3454 55.4565 89.3578 55.4461 89.3697C55.431 89.3872 55.4163 89.4039 55.393 89.4183C55.3401 89.4511 55.2306 89.4743 55.111 89.4996C55.0497 89.5126 54.9858 89.5262 54.9256 89.5419C54.8479 89.5624 54.8191 89.6017 54.7895 89.6427C54.7685 89.6717 54.7465 89.7016 54.7057 89.7265C54.6318 89.7717 54.4817 89.7899 54.3432 89.8069C54.2829 89.8143 54.2247 89.8216 54.1757 89.8306C54.1558 89.8343 54.1463 89.8411 54.1443 89.8503C53.9182 89.8849 53.7035 89.92 53.4899 89.9547C52.4393 90.1285 51.5155 90.2814 50.1479 90.2227C49.8888 90.2117 49.6172 90.2234 49.332 90.247C48.4431 90.2364 47.5332 90.2299 46.6416 90.2296C46.4562 90.1495 46.2551 90.0844 45.984 90.0396C45.4957 89.9547 45.0073 89.958 44.42 89.9696C44.0085 89.9771 43.5052 89.9909 42.9722 89.9828C42.6958 89.981 42.4287 89.9836 42.1895 89.9934C41.4905 90.0346 40.7674 90.0865 39.9887 90.1683C38.8984 90.282 37.6633 90.4363 36.7927 90.5745C36.3197 90.6486 35.8116 90.6597 35.3338 90.6757C34.6634 90.6977 34.0657 90.727 33.7368 90.9348C33.6336 91.0008 33.5398 91.0975 33.4478 91.1918C33.3815 91.2591 33.319 91.3245 33.255 91.3772C33.0616 91.4078 32.8563 91.4421 32.6649 91.4736C32.3008 91.4644 31.7349 91.4981 31.247 91.7209C31.0395 91.7589 30.8426 91.7951 30.6451 91.8318C30.2144 91.913 29.7922 91.9944 29.3769 92.0761C29.2398 92.1031 29.0966 92.1318 28.9574 92.1598C28.9561 92.16 28.9548 92.1603 28.9535 92.1605C28.6799 92.2149 28.3862 92.2756 28.1131 92.3315C27.9954 92.3557 27.8767 92.3803 27.7567 92.4054C27.4451 92.471 27.1544 92.5318 26.8483 92.5975C26.6845 92.6327 26.5312 92.6653 26.3708 92.7C26.113 92.7555 25.8413 92.8156 25.5875 92.8709C25.1659 92.9637 24.7476 93.0565 24.326 93.1515C24.2566 93.1671 24.1866 93.1723 24.1317 93.165C24.0767 93.1576 24.0412 93.1386 24.0329 93.1105C24.0246 93.0823 24.0442 93.0468 24.0864 93.0106C24.1286 92.9746 24.1902 92.9411 24.2569 92.9165C24.6632 92.7669 25.0669 92.6196 25.4741 92.4731C25.7188 92.3845 25.9817 92.2911 26.2308 92.2026C26.3859 92.1477 26.5341 92.0951 26.6928 92.0396C26.9892 91.936 27.2712 91.8373 27.5739 91.734C27.6904 91.6941 27.8057 91.6547 27.9199 91.6157C28.1859 91.5247 28.4726 91.4292 28.7395 91.3402C28.7411 91.3396 28.7427 91.3391 28.7444 91.3385C28.8795 91.2937 29.0179 91.2482 29.1506 91.2045C29.5557 91.0713 29.9686 90.9384 30.3913 90.8062C30.6082 90.7377 30.8314 90.6687 31.0591 90.5993C31.1851 90.5608 31.3056 90.5239 31.4301 90.4864C31.4984 90.4659 31.5673 90.4455 31.636 90.4251C33.2091 89.9552 34.7881 89.535 36.4007 89.1699C38.0051 88.8044 39.6198 88.4972 41.2066 88.1787C41.4367 88.1327 41.6592 88.0876 41.8895 88.0408C43.357 87.7686 44.7466 87.6444 46.158 87.5075C55.1989 86.73 64.2404 86.3886 73.345 86.3625C74.6854 86.3631 76.0268 86.3645 77.3704 86.3703C78.8536 86.3763 80.378 86.3895 81.8663 86.4097C83.0873 86.4265 84.289 86.4477 85.5037 86.4743C85.7853 86.4805 86.0658 86.4863 86.3457 86.492C86.801 86.501 87.261 86.5097 87.7413 86.5183Z" fill="#FFE80D"/>
<path d="M34.5654 101.203V114H32.377V101.203H34.5654ZM38.582 101.203V102.961H28.3955V101.203H38.582ZM43.4072 114.176C42.7041 114.176 42.0684 114.062 41.5 113.833C40.9375 113.599 40.457 113.273 40.0586 112.857C39.666 112.441 39.3643 111.952 39.1533 111.39C38.9424 110.827 38.8369 110.221 38.8369 109.57V109.219C38.8369 108.475 38.9453 107.801 39.1621 107.197C39.3789 106.594 39.6807 106.078 40.0674 105.65C40.4541 105.217 40.9111 104.886 41.4385 104.657C41.9658 104.429 42.5371 104.314 43.1523 104.314C43.832 104.314 44.4268 104.429 44.9365 104.657C45.4463 104.886 45.8682 105.208 46.2021 105.624C46.542 106.034 46.7939 106.523 46.958 107.092C47.1279 107.66 47.2129 108.287 47.2129 108.973V109.878H39.8652V108.357H45.1211V108.19C45.1094 107.81 45.0332 107.452 44.8926 107.118C44.7578 106.784 44.5498 106.515 44.2686 106.31C43.9873 106.104 43.6123 106.002 43.1436 106.002C42.792 106.002 42.4785 106.078 42.2031 106.23C41.9336 106.377 41.708 106.591 41.5264 106.872C41.3447 107.153 41.2041 107.493 41.1045 107.892C41.0107 108.284 40.9639 108.727 40.9639 109.219V109.57C40.9639 109.986 41.0195 110.373 41.1309 110.73C41.248 111.082 41.418 111.39 41.6406 111.653C41.8633 111.917 42.1328 112.125 42.4492 112.277C42.7656 112.424 43.126 112.497 43.5303 112.497C44.04 112.497 44.4941 112.395 44.8926 112.189C45.291 111.984 45.6367 111.694 45.9297 111.319L47.0459 112.4C46.8408 112.699 46.5742 112.986 46.2461 113.262C45.918 113.531 45.5166 113.751 45.042 113.921C44.5732 114.091 44.0283 114.176 43.4072 114.176ZM51.1328 100.5V114H49.0059V100.5H51.1328ZM55.7207 100.5V114H53.5938V100.5H55.7207ZM60.3086 104.49V114H58.1816V104.49H60.3086ZM58.041 101.994C58.041 101.672 58.1465 101.405 58.3574 101.194C58.5742 100.978 58.873 100.869 59.2539 100.869C59.6289 100.869 59.9248 100.978 60.1416 101.194C60.3584 101.405 60.4668 101.672 60.4668 101.994C60.4668 102.311 60.3584 102.574 60.1416 102.785C59.9248 102.996 59.6289 103.102 59.2539 103.102C58.873 103.102 58.5742 102.996 58.3574 102.785C58.1465 102.574 58.041 102.311 58.041 101.994ZM77.5264 107.25V107.953C77.5264 108.92 77.4004 109.787 77.1484 110.555C76.8965 111.322 76.5361 111.976 76.0674 112.515C75.6045 113.054 75.0479 113.467 74.3975 113.754C73.7471 114.035 73.0264 114.176 72.2354 114.176C71.4502 114.176 70.7324 114.035 70.082 113.754C69.4375 113.467 68.8779 113.054 68.4033 112.515C67.9287 111.976 67.5596 111.322 67.2959 110.555C67.0381 109.787 66.9092 108.92 66.9092 107.953V107.25C66.9092 106.283 67.0381 105.419 67.2959 104.657C67.5537 103.89 67.917 103.236 68.3857 102.697C68.8604 102.152 69.4199 101.739 70.0645 101.458C70.7148 101.171 71.4326 101.027 72.2178 101.027C73.0088 101.027 73.7295 101.171 74.3799 101.458C75.0303 101.739 75.5898 102.152 76.0586 102.697C76.5273 103.236 76.8877 103.89 77.1396 104.657C77.3975 105.419 77.5264 106.283 77.5264 107.25ZM75.3203 107.953V107.232C75.3203 106.518 75.25 105.888 75.1094 105.343C74.9746 104.792 74.7725 104.332 74.5029 103.963C74.2393 103.588 73.9141 103.307 73.5273 103.119C73.1406 102.926 72.7041 102.829 72.2178 102.829C71.7314 102.829 71.2979 102.926 70.917 103.119C70.5361 103.307 70.2109 103.588 69.9414 103.963C69.6777 104.332 69.4756 104.792 69.335 105.343C69.1943 105.888 69.124 106.518 69.124 107.232V107.953C69.124 108.668 69.1943 109.301 69.335 109.852C69.4756 110.402 69.6807 110.868 69.9502 111.249C70.2256 111.624 70.5537 111.908 70.9346 112.102C71.3154 112.289 71.749 112.383 72.2354 112.383C72.7275 112.383 73.1641 112.289 73.5449 112.102C73.9258 111.908 74.248 111.624 74.5117 111.249C74.7754 110.868 74.9746 110.402 75.1094 109.852C75.25 109.301 75.3203 108.668 75.3203 107.953ZM74.1514 97.8633L75.4434 97.96C75.4434 98.3877 75.3584 98.7715 75.1885 99.1113C75.0186 99.4453 74.7871 99.709 74.4941 99.9023C74.2012 100.096 73.8701 100.192 73.501 100.192C73.2139 100.192 72.9707 100.151 72.7715 100.069C72.5723 99.9873 72.3906 99.8936 72.2266 99.7881C72.0625 99.6826 71.8926 99.5918 71.7168 99.5156C71.5469 99.4336 71.3447 99.3926 71.1104 99.3926C70.8877 99.3926 70.6973 99.4746 70.5391 99.6387C70.3867 99.8027 70.3105 100.022 70.3105 100.298L69.0098 100.228C69.0098 99.8057 69.0947 99.4248 69.2646 99.085C69.4346 98.7451 69.666 98.4756 69.959 98.2764C70.252 98.0771 70.583 97.9775 70.9521 97.9775C71.1924 97.9775 71.4092 98.0186 71.6025 98.1006C71.8018 98.1768 71.9893 98.2676 72.165 98.373C72.3467 98.4785 72.5312 98.5723 72.7188 98.6543C72.9062 98.7363 73.1143 98.7773 73.3428 98.7773C73.5654 98.7773 73.7559 98.6924 73.9141 98.5225C74.0723 98.3525 74.1514 98.1328 74.1514 97.8633ZM81.6133 100.5V114H79.5039V100.5H81.6133ZM81.2441 108.894L80.5586 108.885C80.5645 108.229 80.6553 107.622 80.8311 107.065C81.0127 106.509 81.2646 106.025 81.5869 105.615C81.915 105.199 82.3076 104.88 82.7646 104.657C83.2217 104.429 83.7285 104.314 84.2852 104.314C84.7539 104.314 85.1758 104.379 85.5508 104.508C85.9316 104.637 86.2598 104.845 86.5352 105.132C86.8105 105.413 87.0186 105.782 87.1592 106.239C87.3057 106.69 87.3789 107.241 87.3789 107.892V114H85.252V107.874C85.252 107.417 85.1846 107.054 85.0498 106.784C84.9209 106.515 84.7305 106.321 84.4785 106.204C84.2266 106.081 83.9189 106.02 83.5557 106.02C83.1748 106.02 82.8379 106.096 82.5449 106.248C82.2578 106.4 82.0176 106.608 81.8242 106.872C81.6309 107.136 81.4844 107.44 81.3848 107.786C81.291 108.132 81.2441 108.501 81.2441 108.894ZM93.8828 104.49V106.037H88.5215V104.49H93.8828ZM90.0684 102.161H92.1865V111.372C92.1865 111.665 92.2275 111.891 92.3096 112.049C92.3975 112.201 92.5176 112.304 92.6699 112.356C92.8223 112.409 93.001 112.436 93.2061 112.436C93.3525 112.436 93.4932 112.427 93.6279 112.409C93.7627 112.392 93.8711 112.374 93.9531 112.356L93.9619 113.974C93.7861 114.026 93.5811 114.073 93.3467 114.114C93.1182 114.155 92.8545 114.176 92.5557 114.176C92.0693 114.176 91.6387 114.091 91.2637 113.921C90.8887 113.745 90.5957 113.461 90.3848 113.068C90.1738 112.676 90.0684 112.154 90.0684 111.504V102.161ZM101.239 111.759V104.49H103.366V114H101.362L101.239 111.759ZM101.538 109.781L102.25 109.764C102.25 110.402 102.18 110.991 102.039 111.53C101.898 112.063 101.682 112.529 101.389 112.928C101.096 113.32 100.721 113.628 100.264 113.851C99.8066 114.067 99.2588 114.176 98.6201 114.176C98.1572 114.176 97.7324 114.108 97.3457 113.974C96.959 113.839 96.625 113.631 96.3438 113.35C96.0684 113.068 95.8545 112.702 95.7021 112.251C95.5498 111.8 95.4736 111.261 95.4736 110.634V104.49H97.5918V110.651C97.5918 110.997 97.6328 111.287 97.7148 111.521C97.7969 111.75 97.9082 111.935 98.0488 112.075C98.1895 112.216 98.3535 112.315 98.541 112.374C98.7285 112.433 98.9277 112.462 99.1387 112.462C99.7422 112.462 100.217 112.345 100.562 112.11C100.914 111.87 101.163 111.548 101.31 111.144C101.462 110.739 101.538 110.285 101.538 109.781ZM107.805 100.5V114H105.678V100.5H107.805ZM114.317 114.176C113.614 114.176 112.979 114.062 112.41 113.833C111.848 113.599 111.367 113.273 110.969 112.857C110.576 112.441 110.274 111.952 110.063 111.39C109.853 110.827 109.747 110.221 109.747 109.57V109.219C109.747 108.475 109.855 107.801 110.072 107.197C110.289 106.594 110.591 106.078 110.978 105.65C111.364 105.217 111.821 104.886 112.349 104.657C112.876 104.429 113.447 104.314 114.062 104.314C114.742 104.314 115.337 104.429 115.847 104.657C116.356 104.886 116.778 105.208 117.112 105.624C117.452 106.034 117.704 106.523 117.868 107.092C118.038 107.66 118.123 108.287 118.123 108.973V109.878H110.775V108.357H116.031V108.19C116.02 107.81 115.943 107.452 115.803 107.118C115.668 106.784 115.46 106.515 115.179 106.31C114.897 106.104 114.522 106.002 114.054 106.002C113.702 106.002 113.389 106.078 113.113 106.23C112.844 106.377 112.618 106.591 112.437 106.872C112.255 107.153 112.114 107.493 112.015 107.892C111.921 108.284 111.874 108.727 111.874 109.219V109.57C111.874 109.986 111.93 110.373 112.041 110.73C112.158 111.082 112.328 111.39 112.551 111.653C112.773 111.917 113.043 112.125 113.359 112.277C113.676 112.424 114.036 112.497 114.44 112.497C114.95 112.497 115.404 112.395 115.803 112.189C116.201 111.984 116.547 111.694 116.84 111.319L117.956 112.4C117.751 112.699 117.484 112.986 117.156 113.262C116.828 113.531 116.427 113.751 115.952 113.921C115.483 114.091 114.938 114.176 114.317 114.176ZM121.867 100.5V114H119.758V100.5H121.867ZM121.498 108.894L120.812 108.885C120.818 108.229 120.909 107.622 121.085 107.065C121.267 106.509 121.519 106.025 121.841 105.615C122.169 105.199 122.562 104.88 123.019 104.657C123.476 104.429 123.982 104.314 124.539 104.314C125.008 104.314 125.43 104.379 125.805 104.508C126.186 104.637 126.514 104.845 126.789 105.132C127.064 105.413 127.272 105.782 127.413 106.239C127.56 106.69 127.633 107.241 127.633 107.892V114H125.506V107.874C125.506 107.417 125.438 107.054 125.304 106.784C125.175 106.515 124.984 106.321 124.732 106.204C124.48 106.081 124.173 106.02 123.81 106.02C123.429 106.02 123.092 106.096 122.799 106.248C122.512 106.4 122.271 106.608 122.078 106.872C121.885 107.136 121.738 107.44 121.639 107.786C121.545 108.132 121.498 108.501 121.498 108.894ZM134.137 104.49V106.037H128.775V104.49H134.137ZM130.322 102.161H132.44V111.372C132.44 111.665 132.481 111.891 132.563 112.049C132.651 112.201 132.771 112.304 132.924 112.356C133.076 112.409 133.255 112.436 133.46 112.436C133.606 112.436 133.747 112.427 133.882 112.409C134.017 112.392 134.125 112.374 134.207 112.356L134.216 113.974C134.04 114.026 133.835 114.073 133.601 114.114C133.372 114.155 133.108 114.176 132.81 114.176C132.323 114.176 131.893 114.091 131.518 113.921C131.143 113.745 130.85 113.461 130.639 113.068C130.428 112.676 130.322 112.154 130.322 111.504V102.161ZM142.671 101.203V114H140.465V101.203H142.671ZM150.361 101.203L145.176 107.364L142.223 110.493L141.836 108.305L143.945 105.703L147.672 101.203H150.361ZM147.988 114L143.778 107.936L145.299 106.433L150.607 114H147.988ZM153.895 104.49V114H151.768V104.49H153.895ZM151.627 101.994C151.627 101.672 151.732 101.405 151.943 101.194C152.16 100.978 152.459 100.869 152.84 100.869C153.215 100.869 153.511 100.978 153.728 101.194C153.944 101.405 154.053 101.672 154.053 101.994C154.053 102.311 153.944 102.574 153.728 102.785C153.511 102.996 153.215 103.102 152.84 103.102C152.459 103.102 152.16 102.996 151.943 102.785C151.732 102.574 151.627 102.311 151.627 101.994ZM158.342 106.301V114H156.224V104.49H158.245L158.342 106.301ZM161.251 104.429L161.233 106.397C161.104 106.374 160.964 106.356 160.812 106.345C160.665 106.333 160.519 106.327 160.372 106.327C160.009 106.327 159.689 106.38 159.414 106.485C159.139 106.585 158.907 106.731 158.72 106.925C158.538 107.112 158.397 107.341 158.298 107.61C158.198 107.88 158.14 108.182 158.122 108.516L157.639 108.551C157.639 107.953 157.697 107.399 157.814 106.89C157.932 106.38 158.107 105.932 158.342 105.545C158.582 105.158 158.881 104.856 159.238 104.64C159.602 104.423 160.021 104.314 160.495 104.314C160.624 104.314 160.762 104.326 160.908 104.35C161.061 104.373 161.175 104.399 161.251 104.429ZM162.684 104.49H164.811V114.826C164.811 115.477 164.699 116.024 164.477 116.47C164.254 116.921 163.926 117.261 163.492 117.489C163.059 117.724 162.528 117.841 161.901 117.841C161.714 117.841 161.521 117.826 161.321 117.797C161.116 117.773 160.923 117.738 160.741 117.691L160.75 116.039C160.873 116.062 161.005 116.08 161.146 116.092C161.28 116.109 161.409 116.118 161.532 116.118C161.784 116.118 161.995 116.074 162.165 115.986C162.335 115.898 162.464 115.761 162.552 115.573C162.64 115.386 162.684 115.137 162.684 114.826V104.49ZM162.499 101.994C162.499 101.672 162.607 101.405 162.824 101.194C163.041 100.978 163.337 100.869 163.712 100.869C164.093 100.869 164.389 100.978 164.6 101.194C164.816 101.405 164.925 101.672 164.925 101.994C164.925 102.311 164.816 102.574 164.6 102.785C164.389 102.996 164.093 103.102 163.712 103.102C163.337 103.102 163.041 102.996 162.824 102.785C162.607 102.574 162.499 102.311 162.499 101.994ZM172.457 112.093V107.558C172.457 107.218 172.396 106.925 172.272 106.679C172.149 106.433 171.962 106.242 171.71 106.107C171.464 105.973 171.153 105.905 170.778 105.905C170.433 105.905 170.134 105.964 169.882 106.081C169.63 106.198 169.434 106.356 169.293 106.556C169.152 106.755 169.082 106.98 169.082 107.232H166.973C166.973 106.857 167.063 106.494 167.245 106.143C167.427 105.791 167.69 105.478 168.036 105.202C168.382 104.927 168.795 104.71 169.275 104.552C169.756 104.394 170.295 104.314 170.893 104.314C171.607 104.314 172.24 104.435 172.791 104.675C173.348 104.915 173.784 105.278 174.101 105.765C174.423 106.245 174.584 106.849 174.584 107.575V111.803C174.584 112.236 174.613 112.626 174.672 112.972C174.736 113.312 174.827 113.607 174.944 113.859V114H172.773C172.674 113.771 172.595 113.481 172.536 113.13C172.483 112.772 172.457 112.427 172.457 112.093ZM172.765 108.217L172.782 109.526H171.262C170.869 109.526 170.523 109.564 170.225 109.641C169.926 109.711 169.677 109.816 169.478 109.957C169.278 110.098 169.129 110.268 169.029 110.467C168.93 110.666 168.88 110.892 168.88 111.144C168.88 111.396 168.938 111.627 169.056 111.838C169.173 112.043 169.343 112.204 169.565 112.321C169.794 112.438 170.069 112.497 170.392 112.497C170.825 112.497 171.203 112.409 171.525 112.233C171.854 112.052 172.111 111.832 172.299 111.574C172.486 111.311 172.586 111.062 172.598 110.827L173.283 111.768C173.213 112.008 173.093 112.266 172.923 112.541C172.753 112.816 172.53 113.08 172.255 113.332C171.985 113.578 171.66 113.78 171.279 113.938C170.904 114.097 170.471 114.176 169.979 114.176C169.357 114.176 168.804 114.053 168.317 113.807C167.831 113.555 167.45 113.218 167.175 112.796C166.899 112.368 166.762 111.885 166.762 111.346C166.762 110.842 166.855 110.396 167.043 110.01C167.236 109.617 167.518 109.289 167.887 109.025C168.262 108.762 168.719 108.562 169.258 108.428C169.797 108.287 170.412 108.217 171.104 108.217H172.765ZM182.134 111.425C182.134 111.214 182.081 111.023 181.976 110.854C181.87 110.678 181.668 110.52 181.369 110.379C181.076 110.238 180.643 110.109 180.068 109.992C179.564 109.881 179.102 109.749 178.68 109.597C178.264 109.438 177.906 109.248 177.607 109.025C177.309 108.803 177.077 108.539 176.913 108.234C176.749 107.93 176.667 107.578 176.667 107.18C176.667 106.793 176.752 106.427 176.922 106.081C177.092 105.735 177.335 105.431 177.651 105.167C177.968 104.903 178.352 104.695 178.803 104.543C179.26 104.391 179.77 104.314 180.332 104.314C181.129 104.314 181.812 104.449 182.38 104.719C182.954 104.982 183.394 105.343 183.698 105.8C184.003 106.251 184.155 106.761 184.155 107.329H182.037C182.037 107.077 181.973 106.843 181.844 106.626C181.721 106.403 181.533 106.225 181.281 106.09C181.029 105.949 180.713 105.879 180.332 105.879C179.969 105.879 179.667 105.938 179.427 106.055C179.192 106.166 179.017 106.312 178.899 106.494C178.788 106.676 178.732 106.875 178.732 107.092C178.732 107.25 178.762 107.394 178.82 107.522C178.885 107.646 178.99 107.76 179.137 107.865C179.283 107.965 179.482 108.059 179.734 108.146C179.992 108.234 180.314 108.319 180.701 108.401C181.428 108.554 182.052 108.75 182.573 108.99C183.101 109.225 183.505 109.529 183.786 109.904C184.067 110.273 184.208 110.742 184.208 111.311C184.208 111.732 184.117 112.119 183.936 112.471C183.76 112.816 183.502 113.118 183.162 113.376C182.822 113.628 182.415 113.824 181.94 113.965C181.472 114.105 180.944 114.176 180.358 114.176C179.497 114.176 178.768 114.023 178.17 113.719C177.572 113.408 177.118 113.013 176.808 112.532C176.503 112.046 176.351 111.542 176.351 111.021H178.398C178.422 111.413 178.53 111.727 178.724 111.961C178.923 112.189 179.169 112.356 179.462 112.462C179.761 112.562 180.068 112.611 180.385 112.611C180.766 112.611 181.085 112.562 181.343 112.462C181.601 112.356 181.797 112.216 181.932 112.04C182.066 111.858 182.134 111.653 182.134 111.425ZM190.422 104.49V106.037H185.061V104.49H190.422ZM186.607 102.161H188.726V111.372C188.726 111.665 188.767 111.891 188.849 112.049C188.937 112.201 189.057 112.304 189.209 112.356C189.361 112.409 189.54 112.436 189.745 112.436C189.892 112.436 190.032 112.427 190.167 112.409C190.302 112.392 190.41 112.374 190.492 112.356L190.501 113.974C190.325 114.026 190.12 114.073 189.886 114.114C189.657 114.155 189.394 114.176 189.095 114.176C188.608 114.176 188.178 114.091 187.803 113.921C187.428 113.745 187.135 113.461 186.924 113.068C186.713 112.676 186.607 112.154 186.607 111.504V102.161ZM197.778 111.759V104.49H199.905V114H197.901L197.778 111.759ZM198.077 109.781L198.789 109.764C198.789 110.402 198.719 110.991 198.578 111.53C198.438 112.063 198.221 112.529 197.928 112.928C197.635 113.32 197.26 113.628 196.803 113.851C196.346 114.067 195.798 114.176 195.159 114.176C194.696 114.176 194.271 114.108 193.885 113.974C193.498 113.839 193.164 113.631 192.883 113.35C192.607 113.068 192.394 112.702 192.241 112.251C192.089 111.8 192.013 111.261 192.013 110.634V104.49H194.131V110.651C194.131 110.997 194.172 111.287 194.254 111.521C194.336 111.75 194.447 111.935 194.588 112.075C194.729 112.216 194.893 112.315 195.08 112.374C195.268 112.433 195.467 112.462 195.678 112.462C196.281 112.462 196.756 112.345 197.102 112.11C197.453 111.87 197.702 111.548 197.849 111.144C198.001 110.739 198.077 110.285 198.077 109.781ZM207.411 111.425C207.411 111.214 207.358 111.023 207.253 110.854C207.147 110.678 206.945 110.52 206.646 110.379C206.354 110.238 205.92 110.109 205.346 109.992C204.842 109.881 204.379 109.749 203.957 109.597C203.541 109.438 203.184 109.248 202.885 109.025C202.586 108.803 202.354 108.539 202.19 108.234C202.026 107.93 201.944 107.578 201.944 107.18C201.944 106.793 202.029 106.427 202.199 106.081C202.369 105.735 202.612 105.431 202.929 105.167C203.245 104.903 203.629 104.695 204.08 104.543C204.537 104.391 205.047 104.314 205.609 104.314C206.406 104.314 207.089 104.449 207.657 104.719C208.231 104.982 208.671 105.343 208.976 105.8C209.28 106.251 209.433 106.761 209.433 107.329H207.314C207.314 107.077 207.25 106.843 207.121 106.626C206.998 106.403 206.811 106.225 206.559 106.09C206.307 105.949 205.99 105.879 205.609 105.879C205.246 105.879 204.944 105.938 204.704 106.055C204.47 106.166 204.294 106.312 204.177 106.494C204.065 106.676 204.01 106.875 204.01 107.092C204.01 107.25 204.039 107.394 204.098 107.522C204.162 107.646 204.268 107.76 204.414 107.865C204.561 107.965 204.76 108.059 205.012 108.146C205.27 108.234 205.592 108.319 205.979 108.401C206.705 108.554 207.329 108.75 207.851 108.99C208.378 109.225 208.782 109.529 209.063 109.904C209.345 110.273 209.485 110.742 209.485 111.311C209.485 111.732 209.395 112.119 209.213 112.471C209.037 112.816 208.779 113.118 208.439 113.376C208.1 113.628 207.692 113.824 207.218 113.965C206.749 114.105 206.222 114.176 205.636 114.176C204.774 114.176 204.045 114.023 203.447 113.719C202.85 113.408 202.396 113.013 202.085 112.532C201.78 112.046 201.628 111.542 201.628 111.021H203.676C203.699 111.413 203.808 111.727 204.001 111.961C204.2 112.189 204.446 112.356 204.739 112.462C205.038 112.562 205.346 112.611 205.662 112.611C206.043 112.611 206.362 112.562 206.62 112.462C206.878 112.356 207.074 112.216 207.209 112.04C207.344 111.858 207.411 111.653 207.411 111.425ZM215.532 114.176C214.829 114.176 214.193 114.062 213.625 113.833C213.062 113.599 212.582 113.273 212.184 112.857C211.791 112.441 211.489 111.952 211.278 111.39C211.067 110.827 210.962 110.221 210.962 109.57V109.219C210.962 108.475 211.07 107.801 211.287 107.197C211.504 106.594 211.806 106.078 212.192 105.65C212.579 105.217 213.036 104.886 213.563 104.657C214.091 104.429 214.662 104.314 215.277 104.314C215.957 104.314 216.552 104.429 217.062 104.657C217.571 104.886 217.993 105.208 218.327 105.624C218.667 106.034 218.919 106.523 219.083 107.092C219.253 107.66 219.338 108.287 219.338 108.973V109.878H211.99V108.357H217.246V108.19C217.234 107.81 217.158 107.452 217.018 107.118C216.883 106.784 216.675 106.515 216.394 106.31C216.112 106.104 215.737 106.002 215.269 106.002C214.917 106.002 214.604 106.078 214.328 106.23C214.059 106.377 213.833 106.591 213.651 106.872C213.47 107.153 213.329 107.493 213.229 107.892C213.136 108.284 213.089 108.727 213.089 109.219V109.57C213.089 109.986 213.145 110.373 213.256 110.73C213.373 111.082 213.543 111.39 213.766 111.653C213.988 111.917 214.258 112.125 214.574 112.277C214.891 112.424 215.251 112.497 215.655 112.497C216.165 112.497 216.619 112.395 217.018 112.189C217.416 111.984 217.762 111.694 218.055 111.319L219.171 112.4C218.966 112.699 218.699 112.986 218.371 113.262C218.043 113.531 217.642 113.751 217.167 113.921C216.698 114.091 216.153 114.176 215.532 114.176ZM231.273 112.031V100.5H233.4V114H231.476L231.273 112.031ZM225.086 109.351V109.166C225.086 108.445 225.171 107.789 225.341 107.197C225.511 106.6 225.757 106.087 226.079 105.659C226.401 105.226 226.794 104.895 227.257 104.666C227.72 104.432 228.241 104.314 228.821 104.314C229.396 104.314 229.899 104.426 230.333 104.648C230.767 104.871 231.136 105.19 231.44 105.606C231.745 106.017 231.988 106.509 232.17 107.083C232.352 107.651 232.48 108.284 232.557 108.981V109.57C232.48 110.25 232.352 110.871 232.17 111.434C231.988 111.996 231.745 112.482 231.44 112.893C231.136 113.303 230.764 113.619 230.324 113.842C229.891 114.064 229.384 114.176 228.804 114.176C228.229 114.176 227.711 114.056 227.248 113.815C226.791 113.575 226.401 113.238 226.079 112.805C225.757 112.371 225.511 111.861 225.341 111.275C225.171 110.684 225.086 110.042 225.086 109.351ZM227.204 109.166V109.351C227.204 109.784 227.242 110.188 227.318 110.563C227.4 110.938 227.526 111.27 227.696 111.557C227.866 111.838 228.086 112.061 228.355 112.225C228.631 112.383 228.959 112.462 229.34 112.462C229.82 112.462 230.216 112.356 230.526 112.146C230.837 111.935 231.08 111.65 231.256 111.293C231.438 110.93 231.561 110.525 231.625 110.08V108.489C231.59 108.144 231.517 107.821 231.405 107.522C231.3 107.224 231.156 106.963 230.975 106.74C230.793 106.512 230.567 106.336 230.298 106.213C230.034 106.084 229.721 106.02 229.357 106.02C228.971 106.02 228.643 106.102 228.373 106.266C228.104 106.43 227.881 106.655 227.705 106.942C227.535 107.229 227.409 107.563 227.327 107.944C227.245 108.325 227.204 108.732 227.204 109.166ZM237.883 104.49V114H235.756V104.49H237.883ZM235.615 101.994C235.615 101.672 235.721 101.405 235.932 101.194C236.148 100.978 236.447 100.869 236.828 100.869C237.203 100.869 237.499 100.978 237.716 101.194C237.933 101.405 238.041 101.672 238.041 101.994C238.041 102.311 237.933 102.574 237.716 102.785C237.499 102.996 237.203 103.102 236.828 103.102C236.447 103.102 236.148 102.996 235.932 102.785C235.721 102.574 235.615 102.311 235.615 101.994ZM246.294 104.49H248.219V113.736C248.219 114.592 248.037 115.318 247.674 115.916C247.311 116.514 246.804 116.968 246.153 117.278C245.503 117.595 244.75 117.753 243.895 117.753C243.531 117.753 243.127 117.7 242.682 117.595C242.242 117.489 241.814 117.319 241.398 117.085C240.988 116.856 240.646 116.555 240.37 116.18L241.363 114.932C241.703 115.336 242.078 115.632 242.488 115.819C242.898 116.007 243.329 116.101 243.78 116.101C244.267 116.101 244.68 116.01 245.02 115.828C245.365 115.652 245.632 115.392 245.819 115.046C246.007 114.7 246.101 114.278 246.101 113.78V106.644L246.294 104.49ZM239.834 109.351V109.166C239.834 108.445 239.922 107.789 240.098 107.197C240.273 106.6 240.525 106.087 240.854 105.659C241.182 105.226 241.58 104.895 242.049 104.666C242.518 104.432 243.048 104.314 243.64 104.314C244.255 104.314 244.779 104.426 245.213 104.648C245.652 104.871 246.019 105.19 246.312 105.606C246.604 106.017 246.833 106.509 246.997 107.083C247.167 107.651 247.293 108.284 247.375 108.981V109.57C247.299 110.25 247.17 110.871 246.988 111.434C246.807 111.996 246.566 112.482 246.268 112.893C245.969 113.303 245.6 113.619 245.16 113.842C244.727 114.064 244.214 114.176 243.622 114.176C243.042 114.176 242.518 114.056 242.049 113.815C241.586 113.575 241.188 113.238 240.854 112.805C240.525 112.371 240.273 111.861 240.098 111.275C239.922 110.684 239.834 110.042 239.834 109.351ZM241.952 109.166V109.351C241.952 109.784 241.993 110.188 242.075 110.563C242.163 110.938 242.295 111.27 242.471 111.557C242.652 111.838 242.881 112.061 243.156 112.225C243.438 112.383 243.769 112.462 244.149 112.462C244.647 112.462 245.055 112.356 245.371 112.146C245.693 111.935 245.939 111.65 246.109 111.293C246.285 110.93 246.408 110.525 246.479 110.08V108.489C246.443 108.144 246.37 107.821 246.259 107.522C246.153 107.224 246.01 106.963 245.828 106.74C245.646 106.512 245.418 106.336 245.143 106.213C244.867 106.084 244.542 106.02 244.167 106.02C243.786 106.02 243.455 106.102 243.174 106.266C242.893 106.43 242.661 106.655 242.479 106.942C242.304 107.229 242.172 107.563 242.084 107.944C241.996 108.325 241.952 108.732 241.952 109.166ZM252.684 104.49V114H250.557V104.49H252.684ZM250.416 101.994C250.416 101.672 250.521 101.405 250.732 101.194C250.949 100.978 251.248 100.869 251.629 100.869C252.004 100.869 252.3 100.978 252.517 101.194C252.733 101.405 252.842 101.672 252.842 101.994C252.842 102.311 252.733 102.574 252.517 102.785C252.3 102.996 252.004 103.102 251.629 103.102C251.248 103.102 250.949 102.996 250.732 102.785C250.521 102.574 250.416 102.311 250.416 101.994ZM257.131 106.318V117.656H255.013V104.49H256.964L257.131 106.318ZM263.327 109.157V109.342C263.327 110.033 263.245 110.675 263.081 111.267C262.923 111.853 262.686 112.365 262.369 112.805C262.059 113.238 261.675 113.575 261.218 113.815C260.761 114.056 260.233 114.176 259.636 114.176C259.044 114.176 258.525 114.067 258.08 113.851C257.641 113.628 257.269 113.314 256.964 112.91C256.659 112.506 256.413 112.031 256.226 111.486C256.044 110.936 255.915 110.332 255.839 109.676V108.964C255.915 108.267 256.044 107.634 256.226 107.065C256.413 106.497 256.659 106.008 256.964 105.598C257.269 105.188 257.641 104.871 258.08 104.648C258.52 104.426 259.032 104.314 259.618 104.314C260.216 104.314 260.746 104.432 261.209 104.666C261.672 104.895 262.062 105.223 262.378 105.65C262.694 106.072 262.932 106.582 263.09 107.18C263.248 107.771 263.327 108.431 263.327 109.157ZM261.209 109.342V109.157C261.209 108.718 261.168 108.311 261.086 107.936C261.004 107.555 260.875 107.221 260.699 106.934C260.523 106.646 260.298 106.424 260.022 106.266C259.753 106.102 259.428 106.02 259.047 106.02C258.672 106.02 258.35 106.084 258.08 106.213C257.811 106.336 257.585 106.509 257.403 106.731C257.222 106.954 257.081 107.215 256.981 107.514C256.882 107.807 256.812 108.126 256.771 108.472V110.177C256.841 110.599 256.961 110.985 257.131 111.337C257.301 111.688 257.541 111.97 257.852 112.181C258.168 112.386 258.572 112.488 259.064 112.488C259.445 112.488 259.771 112.406 260.04 112.242C260.31 112.078 260.529 111.853 260.699 111.565C260.875 111.272 261.004 110.936 261.086 110.555C261.168 110.174 261.209 109.77 261.209 109.342ZM270.49 112.093V107.558C270.49 107.218 270.429 106.925 270.306 106.679C270.183 106.433 269.995 106.242 269.743 106.107C269.497 105.973 269.187 105.905 268.812 105.905C268.466 105.905 268.167 105.964 267.915 106.081C267.663 106.198 267.467 106.356 267.326 106.556C267.186 106.755 267.115 106.98 267.115 107.232H265.006C265.006 106.857 265.097 106.494 265.278 106.143C265.46 105.791 265.724 105.478 266.069 105.202C266.415 104.927 266.828 104.71 267.309 104.552C267.789 104.394 268.328 104.314 268.926 104.314C269.641 104.314 270.273 104.435 270.824 104.675C271.381 104.915 271.817 105.278 272.134 105.765C272.456 106.245 272.617 106.849 272.617 107.575V111.803C272.617 112.236 272.646 112.626 272.705 112.972C272.77 113.312 272.86 113.607 272.978 113.859V114H270.807C270.707 113.771 270.628 113.481 270.569 113.13C270.517 112.772 270.49 112.427 270.49 112.093ZM270.798 108.217L270.815 109.526H269.295C268.902 109.526 268.557 109.564 268.258 109.641C267.959 109.711 267.71 109.816 267.511 109.957C267.312 110.098 267.162 110.268 267.062 110.467C266.963 110.666 266.913 110.892 266.913 111.144C266.913 111.396 266.972 111.627 267.089 111.838C267.206 112.043 267.376 112.204 267.599 112.321C267.827 112.438 268.103 112.497 268.425 112.497C268.858 112.497 269.236 112.409 269.559 112.233C269.887 112.052 270.145 111.832 270.332 111.574C270.52 111.311 270.619 111.062 270.631 110.827L271.316 111.768C271.246 112.008 271.126 112.266 270.956 112.541C270.786 112.816 270.563 113.08 270.288 113.332C270.019 113.578 269.693 113.78 269.312 113.938C268.938 114.097 268.504 114.176 268.012 114.176C267.391 114.176 266.837 114.053 266.351 113.807C265.864 113.555 265.483 113.218 265.208 112.796C264.933 112.368 264.795 111.885 264.795 111.346C264.795 110.842 264.889 110.396 265.076 110.01C265.27 109.617 265.551 109.289 265.92 109.025C266.295 108.762 266.752 108.562 267.291 108.428C267.83 108.287 268.445 108.217 269.137 108.217H270.798ZM276.968 100.5V114H274.841V100.5H276.968ZM282.874 104.49L278.734 109.078L276.467 111.398L275.913 109.605L277.627 107.487L280.316 104.49H282.874ZM280.773 114L277.688 109.535L279.024 108.05L283.226 114H280.773ZM288.235 114.176C287.532 114.176 286.896 114.062 286.328 113.833C285.766 113.599 285.285 113.273 284.887 112.857C284.494 112.441 284.192 111.952 283.981 111.39C283.771 110.827 283.665 110.221 283.665 109.57V109.219C283.665 108.475 283.773 107.801 283.99 107.197C284.207 106.594 284.509 106.078 284.896 105.65C285.282 105.217 285.739 104.886 286.267 104.657C286.794 104.429 287.365 104.314 287.98 104.314C288.66 104.314 289.255 104.429 289.765 104.657C290.274 104.886 290.696 105.208 291.03 105.624C291.37 106.034 291.622 106.523 291.786 107.092C291.956 107.66 292.041 108.287 292.041 108.973V109.878H284.693V108.357H289.949V108.19C289.938 107.81 289.861 107.452 289.721 107.118C289.586 106.784 289.378 106.515 289.097 106.31C288.815 106.104 288.44 106.002 287.972 106.002C287.62 106.002 287.307 106.078 287.031 106.23C286.762 106.377 286.536 106.591 286.354 106.872C286.173 107.153 286.032 107.493 285.933 107.892C285.839 108.284 285.792 108.727 285.792 109.219V109.57C285.792 109.986 285.848 110.373 285.959 110.73C286.076 111.082 286.246 111.39 286.469 111.653C286.691 111.917 286.961 112.125 287.277 112.277C287.594 112.424 287.954 112.497 288.358 112.497C288.868 112.497 289.322 112.395 289.721 112.189C290.119 111.984 290.465 111.694 290.758 111.319L291.874 112.4C291.669 112.699 291.402 112.986 291.074 113.262C290.746 113.531 290.345 113.751 289.87 113.921C289.401 114.091 288.856 114.176 288.235 114.176ZM298.053 104.49V106.037H292.691V104.49H298.053ZM294.238 102.161H296.356V111.372C296.356 111.665 296.397 111.891 296.479 112.049C296.567 112.201 296.688 112.304 296.84 112.356C296.992 112.409 297.171 112.436 297.376 112.436C297.522 112.436 297.663 112.427 297.798 112.409C297.933 112.392 298.041 112.374 298.123 112.356L298.132 113.974C297.956 114.026 297.751 114.073 297.517 114.114C297.288 114.155 297.024 114.176 296.726 114.176C296.239 114.176 295.809 114.091 295.434 113.921C295.059 113.745 294.766 113.461 294.555 113.068C294.344 112.676 294.238 112.154 294.238 111.504V102.161ZM304.047 104.49V106.037H298.686V104.49H304.047ZM300.232 102.161H302.351V111.372C302.351 111.665 302.392 111.891 302.474 112.049C302.562 112.201 302.682 112.304 302.834 112.356C302.986 112.409 303.165 112.436 303.37 112.436C303.517 112.436 303.657 112.427 303.792 112.409C303.927 112.392 304.035 112.374 304.117 112.356L304.126 113.974C303.95 114.026 303.745 114.073 303.511 114.114C303.282 114.155 303.019 114.176 302.72 114.176C302.233 114.176 301.803 114.091 301.428 113.921C301.053 113.745 300.76 113.461 300.549 113.068C300.338 112.676 300.232 112.154 300.232 111.504V102.161ZM308.125 101.203L307.914 110.229H306.104L305.884 101.203H308.125ZM305.822 112.998C305.822 112.676 305.928 112.406 306.139 112.189C306.355 111.967 306.654 111.855 307.035 111.855C307.41 111.855 307.706 111.967 307.923 112.189C308.14 112.406 308.248 112.676 308.248 112.998C308.248 113.309 308.14 113.575 307.923 113.798C307.706 114.015 307.41 114.123 307.035 114.123C306.654 114.123 306.355 114.015 306.139 113.798C305.928 113.575 305.822 113.309 305.822 112.998Z" fill="white"/>
<path d="M37.44 160.52C39.3067 160.52 40.92 160.867 42.28 161.56C43.64 162.227 44.6667 163.147 45.36 164.32C46.08 165.467 46.44 166.747 46.44 168.16C46.44 169.627 46.12 171.04 45.48 172.4C44.8667 173.76 43.8 175.293 42.28 177C40.7867 178.707 38.6 180.907 35.72 183.6H47.04L46.4 188H29.24V183.88C32.6 180.52 35.0267 178.013 36.52 176.36C38.0133 174.707 39.0667 173.307 39.68 172.16C40.2933 171.013 40.6 169.84 40.6 168.64C40.6 167.493 40.2667 166.587 39.6 165.92C38.9333 165.253 38.04 164.92 36.92 164.92C35.9333 164.92 35.0533 165.147 34.28 165.6C33.5067 166.027 32.6933 166.747 31.84 167.76L28.44 165.04C30.7333 162.027 33.7333 160.52 37.44 160.52ZM67.9944 179.08C68.3677 180.92 69.0477 182.267 70.0344 183.12C71.0477 183.973 72.3944 184.4 74.0744 184.4C75.861 184.4 77.781 183.84 79.8344 182.72V187.12C78.741 187.627 77.701 188 76.7144 188.24C75.7277 188.507 74.6477 188.64 73.4744 188.64C70.461 188.64 67.981 187.813 66.0344 186.16C64.1144 184.48 62.8477 182.12 62.2344 179.08H58.7544L59.5544 176H62.0744V173H58.7544L59.5544 169.88H62.2744C63.021 166.973 64.4077 164.693 66.4344 163.04C68.4877 161.36 70.901 160.52 73.6744 160.52C76.4477 160.52 78.9544 161.28 81.1944 162.8L79.1544 166.32C78.301 165.76 77.461 165.36 76.6344 165.12C75.8077 164.853 74.8877 164.72 73.8744 164.72C72.4877 164.72 71.301 165.147 70.3144 166C69.3277 166.853 68.5944 168.147 68.1144 169.88H77.9144L77.1144 173H67.8344V176H76.4744L75.7144 179.08H67.9944Z" fill="#FFE80D"/>
<path d="M95.54 168.695C96.24 168.695 96.845 168.825 97.355 169.085C97.865 169.335 98.25 169.68 98.51 170.12C98.78 170.55 98.915 171.03 98.915 171.56C98.915 172.11 98.795 172.64 98.555 173.15C98.325 173.66 97.925 174.235 97.355 174.875C96.795 175.515 95.975 176.34 94.895 177.35H99.14L98.9 179H92.465V177.455C93.725 176.195 94.635 175.255 95.195 174.635C95.755 174.015 96.15 173.49 96.38 173.06C96.61 172.63 96.725 172.19 96.725 171.74C96.725 171.31 96.6 170.97 96.35 170.72C96.1 170.47 95.765 170.345 95.345 170.345C94.975 170.345 94.645 170.43 94.355 170.6C94.065 170.76 93.76 171.03 93.44 171.41L92.165 170.39C93.025 169.26 94.15 168.695 95.54 168.695ZM106.518 167.645V179H104.388V167.885L106.518 167.645ZM111.348 171.05L108.813 174.545L111.573 179H109.158L106.593 174.65L109.143 171.05H111.348ZM118.911 179H117.066L116.961 177.935C116.681 178.375 116.341 178.705 115.941 178.925C115.541 179.135 115.076 179.24 114.546 179.24C113.826 179.24 113.276 179.025 112.896 178.595C112.516 178.155 112.326 177.545 112.326 176.765V171.05H114.456V176.495C114.456 176.915 114.526 177.215 114.666 177.395C114.806 177.565 115.026 177.65 115.326 177.65C115.896 177.65 116.381 177.305 116.781 176.615V171.05H118.911V179ZM127.524 179H125.679L125.574 177.935C125.294 178.375 124.954 178.705 124.554 178.925C124.154 179.135 123.689 179.24 123.159 179.24C122.439 179.24 121.889 179.025 121.509 178.595C121.129 178.155 120.939 177.545 120.939 176.765V171.05H123.069V176.495C123.069 176.915 123.139 177.215 123.279 177.395C123.419 177.565 123.639 177.65 123.939 177.65C124.509 177.65 124.994 177.305 125.394 176.615V171.05H127.524V179ZM136.512 167.885V179H134.637L134.517 178.025C133.957 178.835 133.197 179.24 132.237 179.24C131.257 179.24 130.507 178.865 129.987 178.115C129.477 177.355 129.222 176.325 129.222 175.025C129.222 174.205 129.352 173.48 129.612 172.85C129.882 172.21 130.262 171.71 130.752 171.35C131.242 170.99 131.807 170.81 132.447 170.81C133.187 170.81 133.832 171.075 134.382 171.605V167.645L136.512 167.885ZM132.867 177.65C133.177 177.65 133.452 177.575 133.692 177.425C133.932 177.265 134.162 177.02 134.382 176.69V173.135C134.172 172.885 133.957 172.7 133.737 172.58C133.527 172.45 133.282 172.385 133.002 172.385C132.512 172.385 132.127 172.6 131.847 173.03C131.577 173.46 131.442 174.125 131.442 175.025C131.442 175.975 131.562 176.65 131.802 177.05C132.052 177.45 132.407 177.65 132.867 177.65Z" fill="white"/>
<rect x="241" y="158" width="81" height="32" rx="8" fill="#AF0510"/>
<path d="M265.624 168.412L265.368 170.428H262.632V179.5H260.008V170.428H257.144V168.412H265.624ZM273.481 168.412L273.209 170.284H269.305V172.94H272.713V174.78H269.305V177.612H273.481V179.5H266.681V168.412H273.481ZM277.727 168.412V177.42H282.047L281.775 179.5H275.103V168.412H277.727ZM285.93 168.412V177.42H290.25L289.978 179.5H283.306V168.412H285.93ZM294.133 168.412V179.5H291.509V168.412H294.133ZM304.74 179.5H301.396L298.196 170.908C298.303 171.751 298.383 172.497 298.436 173.148C298.5 173.788 298.532 174.551 298.532 175.436V179.5H296.196V168.412H299.46L302.74 177.02C302.506 175.559 302.388 174.183 302.388 172.892V168.412H304.74V179.5Z" fill="#FFE80D"/>
</svg>
