<svg width="120" height="28" viewBox="0 0 120 28" fill="none" xmlns="http://www.w3.org/2000/svg">
<rect width="120" height="28" rx="4" fill="#E3000F"/>
<path d="M22.432 9.684L20.404 18H17.98L15.868 9.684H17.836L19.228 16.488L20.512 9.684H22.432ZM26.7618 18L26.3898 16.188H24.2778L23.9058 18H21.9617L24.2058 9.684H26.5098L28.7418 18H26.7618ZM24.5658 14.808H26.1018L25.3338 11.088L24.5658 14.808ZM33.2774 18L32.9054 16.188H30.7934L30.4214 18H28.4774L30.7214 9.684H33.0254L35.2574 18H33.2774ZM31.0814 14.808H32.6174L31.8494 11.088L31.0814 14.808ZM40.4193 9.684L40.2153 11.148H38.4273V18H36.5073V11.148H34.6113V9.684H40.4193ZM44.4805 18L44.1085 16.188H41.9965L41.6245 18H39.6805L41.9245 9.684H44.2285L46.4605 18H44.4805ZM42.2845 14.808H43.8205L43.0525 11.088L42.2845 14.808ZM51.8602 9.684C52.9242 9.684 53.7402 9.912 54.3082 10.368C54.8842 10.824 55.1722 11.496 55.1722 12.384C55.1722 13.32 54.8922 14.028 54.3322 14.508C53.7802 14.98 53.0162 15.216 52.0402 15.216H51.4042V18H49.4842V9.684H51.8602ZM51.8842 13.824C52.3322 13.824 52.6642 13.716 52.8802 13.5C53.0962 13.276 53.2042 12.908 53.2042 12.396C53.2042 11.94 53.0962 11.604 52.8802 11.388C52.6722 11.164 52.3402 11.052 51.8842 11.052H51.4042V13.824H51.8842ZM59.3047 18L58.9327 16.188H56.8207L56.4487 18H54.5047L56.7487 9.684H59.0527L61.2847 18H59.3047ZM57.1087 14.808H58.6447L57.8767 11.088L57.1087 14.808ZM63.7323 9.684V18H61.8123V9.684H63.7323ZM68.0763 9.684L65.7483 13.416L68.2683 18H66.1203L63.7923 13.56L66.1203 9.684H68.0763ZM70.705 9.684V18H68.785V9.684H70.705ZM75.049 9.684L72.721 13.416L75.241 18H73.093L70.765 13.56L73.093 9.684H75.049ZM81.5082 15.432C81.5082 15.96 81.3962 16.436 81.1722 16.86C80.9482 17.276 80.6122 17.604 80.1642 17.844C79.7162 18.084 79.1682 18.204 78.5202 18.204C77.5442 18.204 76.8002 17.952 76.2882 17.448C75.7842 16.944 75.5322 16.272 75.5322 15.432V9.684H77.4522V15.36C77.4522 15.84 77.5362 16.196 77.7042 16.428C77.8722 16.652 78.1442 16.764 78.5202 16.764C78.8962 16.764 79.1642 16.652 79.3242 16.428C79.4922 16.196 79.5762 15.84 79.5762 15.36V9.684H81.5082V15.432ZM90.3152 18H88.4792L88.3712 14.712C88.3392 13.752 88.3232 13.044 88.3232 12.588C88.3232 12.028 88.3312 11.616 88.3472 11.352L87.2552 17.124H85.4552L84.3032 11.352C84.3352 11.96 84.3512 12.604 84.3512 13.284C84.3512 13.588 84.3432 14.076 84.3272 14.748L84.2192 18H82.3952L82.9472 9.684H85.3472L86.3912 15.348L87.3512 9.684H89.7632L90.3152 18ZM93.2519 9.684V18H91.3319V9.684H93.2519ZM97.0385 9.48C97.5985 9.48 98.0905 9.572 98.5145 9.756C98.9465 9.932 99.3385 10.196 99.6905 10.548L98.8145 11.556C98.2945 11.108 97.7625 10.884 97.2185 10.884C96.9145 10.884 96.6745 10.96 96.4985 11.112C96.3225 11.264 96.2345 11.472 96.2345 11.736C96.2345 11.912 96.2745 12.06 96.3545 12.18C96.4345 12.3 96.5745 12.416 96.7745 12.528C96.9745 12.64 97.2705 12.768 97.6625 12.912C98.1745 13.104 98.5865 13.312 98.8985 13.536C99.2185 13.752 99.4625 14.024 99.6305 14.352C99.7985 14.68 99.8825 15.088 99.8825 15.576C99.8825 16.088 99.7585 16.544 99.5105 16.944C99.2705 17.336 98.9185 17.644 98.4545 17.868C97.9985 18.092 97.4625 18.204 96.8465 18.204C95.6865 18.204 94.7225 17.812 93.9545 17.028L94.8905 15.984C95.1865 16.24 95.4825 16.436 95.7785 16.572C96.0825 16.708 96.4025 16.776 96.7385 16.776C97.1065 16.776 97.3905 16.68 97.5905 16.488C97.7905 16.296 97.8905 16.04 97.8905 15.72C97.8905 15.416 97.7985 15.172 97.6145 14.988C97.4305 14.804 97.0825 14.62 96.5705 14.436C95.7385 14.124 95.1465 13.772 94.7945 13.38C94.4425 12.988 94.2665 12.488 94.2665 11.88C94.2665 11.408 94.3865 10.992 94.6265 10.632C94.8665 10.264 95.1945 9.98 95.6105 9.78C96.0345 9.58 96.5105 9.48 97.0385 9.48ZM102.697 9.684V18H100.777V9.684H102.697Z" fill="#FFE80D"/>
</svg>
