<svg width="2306" height="2306" viewBox="0 0 2306 2306" fill="none" xmlns="http://www.w3.org/2000/svg">
<g opacity="0.75" clip-path="url(#clip0_2804_1181)">
<path d="M1731.56 155.663L1154.19 1153L2028.89 402.667L1731.56 155.663Z" fill="#FFE80D"/>
<path d="M1154.19 0V1153L1536.37 65.2549L1154.19 0Z" fill="#FFE80D"/>
<path d="M578.561 153.275L1154.19 1153L941.142 19.2985L578.561 153.275Z" fill="#FFE80D"/>
<path d="M155.663 574.439L1154.19 1153L402.667 277.113L155.663 574.439Z" fill="#FFE80D"/>
<path d="M0 1153H1154.19L65.2549 769.632L0 1153Z" fill="#FFE80D"/>
<path d="M153.275 1727.44L1154.19 1153L19.2983 1364.86L153.275 1727.44Z" fill="#FFE80D"/>
<path d="M574.439 2150.34L1154.19 1153L277.113 1903.33L574.439 2150.34Z" fill="#FFE80D"/>
<path d="M1154.19 2306V1153L769.632 2240.74L1154.19 2306Z" fill="#FFE80D"/>
<path d="M1727.44 2152.72L1154.19 1153L1364.86 2286.7L1727.44 2152.72Z" fill="#FFE80D"/>
<path d="M2150.34 1731.56L1154.19 1153L1903.33 2028.89L2150.34 1731.56Z" fill="#FFE80D"/>
<path d="M2306 1153H1154.19L2240.74 1536.37L2306 1153Z" fill="#FFE80D"/>
<path d="M2152.72 578.561L1154.19 1153L2286.7 941.142L2152.72 578.561Z" fill="#FFE80D"/>
</g>
<defs>
<clipPath id="clip0_2804_1181">
<rect width="2306" height="2306" fill="white"/>
</clipPath>
</defs>
</svg>
