<svg width="330" height="200" viewBox="0 0 330 200" fill="none" xmlns="http://www.w3.org/2000/svg">
<rect width="330" height="200" fill="#FFEBC4"/>
<path d="M30.224 20.512C32.024 20.512 33.584 20.776 34.904 21.304C36.248 21.808 37.484 22.588 38.612 23.644L36.092 26.56C35.204 25.84 34.316 25.312 33.428 24.976C32.54 24.64 31.592 24.472 30.584 24.472C29.48 24.472 28.592 24.712 27.92 25.192C27.272 25.648 26.948 26.308 26.948 27.172C26.948 27.772 27.08 28.264 27.344 28.648C27.632 29.032 28.124 29.392 28.82 29.728C29.516 30.064 30.56 30.448 31.952 30.88C34.424 31.672 36.272 32.656 37.496 33.832C38.72 34.984 39.332 36.64 39.332 38.8C39.332 40.336 38.948 41.692 38.18 42.868C37.412 44.02 36.296 44.932 34.832 45.604C33.368 46.252 31.652 46.576 29.684 46.576C27.716 46.576 25.964 46.264 24.428 45.64C22.892 45.016 21.572 44.164 20.468 43.084L23.168 40.096C24.128 40.912 25.124 41.536 26.156 41.968C27.188 42.376 28.316 42.58 29.54 42.58C30.836 42.58 31.868 42.28 32.636 41.68C33.428 41.08 33.824 40.24 33.824 39.16C33.824 38.488 33.68 37.936 33.392 37.504C33.128 37.048 32.66 36.64 31.988 36.28C31.316 35.92 30.344 35.548 29.072 35.164C26.36 34.324 24.416 33.316 23.24 32.14C22.088 30.964 21.512 29.428 21.512 27.532C21.512 26.14 21.884 24.916 22.628 23.86C23.372 22.78 24.404 21.952 25.724 21.376C27.044 20.8 28.544 20.512 30.224 20.512ZM50.0035 26.344C52.8595 26.344 55.0915 27.244 56.6995 29.044C58.3075 30.82 59.1115 33.292 59.1115 36.46C59.1115 38.476 58.7395 40.252 57.9955 41.788C57.2755 43.3 56.2195 44.476 54.8275 45.316C53.4595 46.156 51.8395 46.576 49.9675 46.576C47.1115 46.576 44.8675 45.688 43.2355 43.912C41.6275 42.112 40.8235 39.628 40.8235 36.46C40.8235 34.444 41.1835 32.68 41.9035 31.168C42.6475 29.632 43.7035 28.444 45.0715 27.604C46.4635 26.764 48.1075 26.344 50.0035 26.344ZM50.0035 30.16C48.7075 30.16 47.7355 30.676 47.0875 31.708C46.4635 32.716 46.1515 34.3 46.1515 36.46C46.1515 38.62 46.4635 40.216 47.0875 41.248C47.7355 42.256 48.6955 42.76 49.9675 42.76C51.2395 42.76 52.1875 42.256 52.8115 41.248C53.4595 40.216 53.7835 38.62 53.7835 36.46C53.7835 34.3 53.4715 32.716 52.8475 31.708C52.2235 30.676 51.2755 30.16 50.0035 30.16ZM52.0555 22.96C51.5515 22.96 51.1075 22.876 50.7235 22.708C50.3635 22.54 49.9315 22.3 49.4275 21.988C49.1155 21.748 48.8395 21.58 48.5995 21.484C48.3835 21.364 48.1555 21.304 47.9155 21.304C47.5315 21.304 47.1955 21.436 46.9075 21.7C46.6195 21.964 46.3195 22.372 46.0075 22.924L43.3795 21.628C43.8595 20.452 44.4835 19.492 45.2515 18.748C46.0195 18.004 46.8835 17.632 47.8435 17.632C48.3955 17.632 48.8635 17.728 49.2475 17.92C49.6315 18.088 50.0635 18.328 50.5435 18.64C50.8555 18.856 51.1195 19.024 51.3355 19.144C51.5515 19.24 51.7795 19.288 52.0195 19.288C52.4035 19.288 52.7275 19.168 52.9915 18.928C53.2795 18.664 53.5915 18.256 53.9275 17.704L56.5555 19C56.0755 20.224 55.4515 21.196 54.6835 21.916C53.9155 22.612 53.0395 22.96 52.0555 22.96ZM72.4309 26.344C74.6629 26.344 76.3909 27.232 77.6149 29.008C78.8629 30.784 79.4869 33.268 79.4869 36.46C79.4869 38.428 79.1749 40.18 78.5509 41.716C77.9509 43.228 77.0749 44.416 75.9229 45.28C74.7949 46.144 73.4629 46.576 71.9269 46.576C69.8389 46.576 68.1709 45.76 66.9229 44.128L66.6349 46H62.0989V19.324L67.2109 18.748V28.972C67.8109 28.156 68.5669 27.52 69.4789 27.064C70.3909 26.584 71.3749 26.344 72.4309 26.344ZM70.4869 42.796C72.9349 42.796 74.1589 40.684 74.1589 36.46C74.1589 34.132 73.8589 32.5 73.2589 31.564C72.6829 30.604 71.8429 30.124 70.7389 30.124C69.3709 30.124 68.1949 30.94 67.2109 32.572V40.744C68.0509 42.112 69.1429 42.796 70.4869 42.796ZM92.5082 26.38C93.0842 26.38 93.7202 26.476 94.4162 26.668L93.5522 31.6C92.8802 31.432 92.3162 31.348 91.8602 31.348C90.7322 31.348 89.8562 31.744 89.2322 32.536C88.6082 33.328 88.1162 34.528 87.7562 36.136V46H82.6442V26.92H87.0722L87.5402 30.628C87.9962 29.284 88.6562 28.24 89.5202 27.496C90.4082 26.752 91.4042 26.38 92.5082 26.38ZM109.367 40.708C109.367 41.452 109.475 42.004 109.691 42.364C109.907 42.7 110.267 42.952 110.771 43.12L109.691 46.504C108.563 46.408 107.639 46.144 106.919 45.712C106.223 45.28 105.683 44.608 105.299 43.696C104.051 45.616 102.143 46.576 99.5752 46.576C97.6792 46.576 96.1672 46.036 95.0392 44.956C93.9352 43.852 93.3832 42.424 93.3832 40.672C93.3832 38.584 94.1392 36.988 95.6512 35.884C97.1632 34.78 99.3352 34.228 102.167 34.228H104.363V33.292C104.363 32.116 104.099 31.3 103.571 30.844C103.043 30.388 102.167 30.16 100.943 30.16C99.5992 30.16 97.9192 30.496 95.9032 31.168L94.7512 27.748C97.1272 26.812 99.4792 26.344 101.807 26.344C104.399 26.344 106.307 26.908 107.531 28.036C108.755 29.14 109.367 30.796 109.367 33.004V40.708ZM100.979 42.904C102.419 42.904 103.547 42.196 104.363 40.78V37.144H102.671C99.9112 37.144 98.5312 38.176 98.5312 40.24C98.5312 41.08 98.7352 41.74 99.1432 42.22C99.5752 42.676 100.187 42.904 100.979 42.904ZM130.099 19.324V46H125.599L125.311 43.66C123.967 45.604 122.143 46.576 119.839 46.576C117.487 46.576 115.687 45.676 114.439 43.876C113.215 42.052 112.603 39.58 112.603 36.46C112.603 34.492 112.915 32.752 113.539 31.24C114.187 29.704 115.099 28.504 116.275 27.64C117.451 26.776 118.807 26.344 120.343 26.344C122.119 26.344 123.667 26.98 124.987 28.252V18.748L130.099 19.324ZM121.351 42.76C122.095 42.76 122.755 42.58 123.331 42.22C123.907 41.836 124.459 41.248 124.987 40.456V31.924C124.483 31.324 123.967 30.88 123.439 30.592C122.935 30.28 122.347 30.124 121.675 30.124C120.499 30.124 119.575 30.64 118.903 31.672C118.255 32.704 117.931 34.3 117.931 36.46C117.931 38.74 118.219 40.36 118.795 41.32C119.395 42.28 120.247 42.76 121.351 42.76ZM146.867 46.576C145.307 46.576 144.095 46.132 143.231 45.244C142.367 44.332 141.935 43.048 141.935 41.392V19.324L147.047 18.748V41.248C147.047 42.088 147.395 42.508 148.091 42.508C148.475 42.508 148.811 42.436 149.099 42.292L150.143 45.928C149.159 46.36 148.067 46.576 146.867 46.576ZM159.719 26.344C162.575 26.344 164.807 27.244 166.415 29.044C168.023 30.82 168.827 33.292 168.827 36.46C168.827 38.476 168.455 40.252 167.711 41.788C166.991 43.3 165.935 44.476 164.543 45.316C163.175 46.156 161.555 46.576 159.683 46.576C156.827 46.576 154.583 45.688 152.951 43.912C151.343 42.112 150.539 39.628 150.539 36.46C150.539 34.444 150.899 32.68 151.619 31.168C152.363 29.632 153.419 28.444 154.787 27.604C156.179 26.764 157.823 26.344 159.719 26.344ZM159.719 30.16C158.423 30.16 157.451 30.676 156.803 31.708C156.179 32.716 155.867 34.3 155.867 36.46C155.867 38.62 156.179 40.216 156.803 41.248C157.451 42.256 158.411 42.76 159.683 42.76C160.955 42.76 161.903 42.256 162.527 41.248C163.175 40.216 163.499 38.62 163.499 36.46C163.499 34.3 163.187 32.716 162.563 31.708C161.939 30.676 160.991 30.16 159.719 30.16ZM187.943 36.028C187.943 36.268 187.907 36.928 187.835 38.008H175.919C176.087 39.736 176.555 40.96 177.323 41.68C178.091 42.4 179.135 42.76 180.455 42.76C181.271 42.76 182.039 42.628 182.759 42.364C183.479 42.1 184.259 41.68 185.099 41.104L187.223 43.984C185.087 45.712 182.675 46.576 179.987 46.576C176.987 46.576 174.683 45.676 173.075 43.876C171.467 42.076 170.663 39.64 170.663 36.568C170.663 34.624 170.999 32.884 171.671 31.348C172.367 29.788 173.363 28.564 174.659 27.676C175.979 26.788 177.539 26.344 179.339 26.344C182.051 26.344 184.163 27.196 185.675 28.9C187.187 30.604 187.943 32.98 187.943 36.028ZM182.867 34.588C182.867 31.42 181.727 29.836 179.447 29.836C178.391 29.836 177.563 30.232 176.963 31.024C176.387 31.792 176.039 33.052 175.919 34.804H182.867V34.588ZM206.337 26.92L200.217 46H194.133L187.905 26.92H193.449L197.229 42.004L201.081 26.92H206.337ZM221.755 40.708C221.755 41.452 221.863 42.004 222.079 42.364C222.295 42.7 222.655 42.952 223.159 43.12L222.079 46.504C220.951 46.408 220.027 46.144 219.307 45.712C218.611 45.28 218.071 44.608 217.687 43.696C216.439 45.616 214.531 46.576 211.963 46.576C210.067 46.576 208.555 46.036 207.427 44.956C206.323 43.852 205.771 42.424 205.771 40.672C205.771 38.584 206.527 36.988 208.039 35.884C209.551 34.78 211.723 34.228 214.555 34.228H216.751V33.292C216.751 32.116 216.487 31.3 215.959 30.844C215.431 30.388 214.555 30.16 213.331 30.16C211.987 30.16 210.307 30.496 208.291 31.168L207.139 27.748C209.515 26.812 211.867 26.344 214.195 26.344C216.787 26.344 218.695 26.908 219.919 28.036C221.143 29.14 221.755 30.796 221.755 33.004V40.708ZM213.367 42.904C214.807 42.904 215.935 42.196 216.751 40.78V37.144H215.059C212.299 37.144 210.919 38.176 210.919 40.24C210.919 41.08 211.123 41.74 211.531 42.22C211.963 42.676 212.575 42.904 213.367 42.904ZM242.486 19.324V46H237.986L237.698 43.66C236.354 45.604 234.53 46.576 232.226 46.576C229.874 46.576 228.074 45.676 226.826 43.876C225.602 42.052 224.99 39.58 224.99 36.46C224.99 34.492 225.302 32.752 225.926 31.24C226.574 29.704 227.486 28.504 228.662 27.64C229.838 26.776 231.194 26.344 232.73 26.344C234.506 26.344 236.054 26.98 237.374 28.252V18.748L242.486 19.324ZM233.738 42.76C234.482 42.76 235.142 42.58 235.718 42.22C236.294 41.836 236.846 41.248 237.374 40.456V31.924C236.87 31.324 236.354 30.88 235.826 30.592C235.322 30.28 234.734 30.124 234.062 30.124C232.886 30.124 231.962 30.64 231.29 31.672C230.642 32.704 230.318 34.3 230.318 36.46C230.318 38.74 230.606 40.36 231.182 41.32C231.782 42.28 232.634 42.76 233.738 42.76ZM251.113 21.088L250.501 37.036H246.325L245.641 21.088H251.113ZM248.413 40.42C249.277 40.42 250.009 40.72 250.609 41.32C251.209 41.92 251.509 42.64 251.509 43.48C251.509 44.32 251.209 45.052 250.609 45.676C250.009 46.276 249.277 46.576 248.413 46.576C247.573 46.576 246.853 46.276 246.253 45.676C245.653 45.052 245.353 44.32 245.353 43.48C245.353 42.64 245.653 41.92 246.253 41.32C246.853 40.72 247.573 40.42 248.413 40.42Z" fill="#E3000F"/>
<path d="M34.233 69.7273C34.233 71.2803 33.9489 72.6155 33.3807 73.733C32.8125 74.8456 32.0336 75.7027 31.044 76.304C30.0592 76.9006 28.9394 77.1989 27.6847 77.1989C26.4252 77.1989 25.3007 76.9006 24.3111 76.304C23.3262 75.7027 22.5497 74.8433 21.9815 73.7259C21.4134 72.6084 21.1293 71.2756 21.1293 69.7273C21.1293 68.1742 21.4134 66.8414 21.9815 65.7287C22.5497 64.6113 23.3262 63.7543 24.3111 63.1577C25.3007 62.5563 26.4252 62.2557 27.6847 62.2557C28.9394 62.2557 30.0592 62.5563 31.044 63.1577C32.0336 63.7543 32.8125 64.6113 33.3807 65.7287C33.9489 66.8414 34.233 68.1742 34.233 69.7273ZM32.0597 69.7273C32.0597 68.5436 31.8679 67.5469 31.4844 66.7372C31.1056 65.9228 30.5848 65.3073 29.9219 64.8906C29.2637 64.4692 28.518 64.2585 27.6847 64.2585C26.8466 64.2585 26.0985 64.4692 25.4403 64.8906C24.7822 65.3073 24.2614 65.9228 23.8778 66.7372C23.4991 67.5469 23.3097 68.5436 23.3097 69.7273C23.3097 70.911 23.4991 71.91 23.8778 72.7244C24.2614 73.5341 24.7822 74.1496 25.4403 74.571C26.0985 74.9877 26.8466 75.196 27.6847 75.196C28.518 75.196 29.2637 74.9877 29.9219 74.571C30.5848 74.1496 31.1056 73.5341 31.4844 72.7244C31.8679 71.91 32.0597 70.911 32.0597 69.7273ZM25.5469 61.0128L24.1122 60.9631C24.1122 60.1818 24.3253 59.5568 24.7514 59.0881C25.1776 58.6193 25.7008 58.3826 26.321 58.3778C26.6146 58.3778 26.8703 58.4276 27.0881 58.527C27.3059 58.6217 27.5095 58.733 27.6989 58.8608C27.8883 58.9886 28.08 59.1023 28.2741 59.2017C28.4683 59.2964 28.6837 59.3438 28.9205 59.3438C29.1903 59.339 29.4105 59.2348 29.581 59.0312C29.7562 58.8229 29.8438 58.5649 29.8438 58.2571L31.25 58.3494C31.2453 59.1402 31.0298 59.7628 30.6037 60.2173C30.1823 60.6671 29.6615 60.892 29.0412 60.892C28.705 60.892 28.4257 60.8447 28.2031 60.75C27.9806 60.6506 27.7841 60.5393 27.6136 60.4162C27.4432 60.2884 27.268 60.1771 27.0881 60.0824C26.9081 59.983 26.6927 59.9332 26.4418 59.9332C26.1813 59.9332 25.9659 60.035 25.7955 60.2386C25.6297 60.4422 25.5469 60.7003 25.5469 61.0128ZM38.4222 70.5227V77H36.2987V62.4545H38.3938V67.8665H38.5288C38.7844 67.2794 39.1751 66.813 39.7006 66.4673C40.2262 66.1217 40.9128 65.9489 41.7603 65.9489C42.5084 65.9489 43.1618 66.1027 43.7205 66.4105C44.284 66.7183 44.7196 67.1776 45.0273 67.7884C45.3398 68.3944 45.4961 69.152 45.4961 70.0611V77H43.3725V70.3168C43.3725 69.5166 43.1665 68.8963 42.7546 68.456C42.3427 68.0109 41.7698 67.7884 41.0359 67.7884C40.534 67.7884 40.0842 67.8949 39.6864 68.108C39.2934 68.321 38.9833 68.6335 38.756 69.0455C38.5335 69.4527 38.4222 69.9451 38.4222 70.5227ZM52.9222 66.0909V67.7955H46.9634V66.0909H52.9222ZM48.5614 63.4773H50.685V73.7969C50.685 74.2088 50.7466 74.5189 50.8697 74.7273C50.9928 74.9309 51.1514 75.0705 51.3455 75.1463C51.5444 75.2173 51.7598 75.2528 51.9918 75.2528C52.1623 75.2528 52.3114 75.241 52.4393 75.2173C52.5671 75.1937 52.6665 75.1747 52.7376 75.1605L53.1211 76.9148C52.998 76.9621 52.8228 77.0095 52.5955 77.0568C52.3683 77.1089 52.0842 77.1373 51.7433 77.142C51.1845 77.1515 50.6637 77.0521 50.1808 76.8438C49.6978 76.6354 49.3072 76.3134 49.0089 75.8778C48.7106 75.4422 48.5614 74.8954 48.5614 74.2372V63.4773ZM61.6818 72.4759V66.0909H63.8125V77H61.7244V75.1108H61.6108C61.3598 75.6932 60.9574 76.1785 60.4034 76.5668C59.8542 76.9503 59.17 77.142 58.3509 77.142C57.6501 77.142 57.0298 76.9882 56.4901 76.6804C55.955 76.3679 55.5336 75.9062 55.2259 75.2955C54.9228 74.6847 54.7713 73.9295 54.7713 73.0298V66.0909H56.8949V72.7741C56.8949 73.5175 57.1009 74.1094 57.5128 74.5497C57.9247 74.9901 58.4598 75.2102 59.1179 75.2102C59.5156 75.2102 59.911 75.1108 60.304 74.9119C60.7017 74.7131 61.0308 74.4124 61.2912 74.0099C61.5563 73.6075 61.6866 73.0961 61.6818 72.4759ZM68.2894 62.4545V77H66.1658V62.4545H68.2894ZM75.348 77.2202C74.2732 77.2202 73.3475 76.9905 72.571 76.5312C71.7992 76.0672 71.2027 75.4162 70.7812 74.5781C70.3646 73.7353 70.1562 72.7481 70.1562 71.6165C70.1562 70.4991 70.3646 69.5142 70.7812 68.6619C71.2027 67.8097 71.7898 67.1444 72.5426 66.6662C73.3002 66.188 74.1856 65.9489 75.1989 65.9489C75.8144 65.9489 76.411 66.0507 76.9886 66.2543C77.5663 66.4579 78.0848 66.7775 78.544 67.2131C79.0033 67.6487 79.3655 68.2145 79.6307 68.9105C79.8958 69.6018 80.0284 70.4422 80.0284 71.4318V72.1847H71.3565V70.5938H77.9474C77.9474 70.035 77.8338 69.5402 77.6065 69.1094C77.3793 68.6738 77.0597 68.3305 76.6477 68.0795C76.2405 67.8286 75.7623 67.7031 75.2131 67.7031C74.6165 67.7031 74.0956 67.8499 73.6506 68.1435C73.2102 68.4323 72.8693 68.8111 72.6278 69.2798C72.3911 69.7438 72.2727 70.2481 72.2727 70.7926V72.0355C72.2727 72.7647 72.4006 73.3849 72.6562 73.8963C72.9167 74.4077 73.2789 74.7983 73.7429 75.0682C74.2069 75.3333 74.7491 75.4659 75.3693 75.4659C75.7718 75.4659 76.1387 75.4091 76.4702 75.2955C76.8016 75.1771 77.0881 75.0019 77.3295 74.7699C77.571 74.5379 77.7557 74.2514 77.8835 73.9105L79.8935 74.2727C79.7325 74.8646 79.4437 75.383 79.027 75.8281C78.6151 76.2685 78.0966 76.6117 77.4716 76.858C76.8513 77.0994 76.1435 77.2202 75.348 77.2202ZM84.0082 70.5227V77H81.8846V62.4545H83.9798V67.8665H84.1147C84.3704 67.2794 84.761 66.813 85.2866 66.4673C85.8121 66.1217 86.4987 65.9489 87.3462 65.9489C88.0943 65.9489 88.7478 66.1027 89.3065 66.4105C89.8699 66.7183 90.3055 67.1776 90.6133 67.7884C90.9258 68.3944 91.082 69.152 91.082 70.0611V77H88.9585V70.3168C88.9585 69.5166 88.7525 68.8963 88.3406 68.456C87.9286 68.0109 87.3557 67.7884 86.6218 67.7884C86.1199 67.7884 85.6701 67.8949 85.2724 68.108C84.8794 68.321 84.5692 68.6335 84.342 69.0455C84.1194 69.4527 84.0082 69.9451 84.0082 70.5227ZM98.5082 66.0909V67.7955H92.5494V66.0909H98.5082ZM94.1474 63.4773H96.271V73.7969C96.271 74.2088 96.3325 74.5189 96.4556 74.7273C96.5787 74.9309 96.7373 75.0705 96.9315 75.1463C97.1303 75.2173 97.3458 75.2528 97.5778 75.2528C97.7482 75.2528 97.8974 75.241 98.0252 75.2173C98.1531 75.1937 98.2525 75.1747 98.3235 75.1605L98.707 76.9148C98.5839 76.9621 98.4087 77.0095 98.1815 77.0568C97.9542 77.1089 97.6701 77.1373 97.3292 77.142C96.7705 77.1515 96.2496 77.0521 95.7667 76.8438C95.2837 76.6354 94.8931 76.3134 94.5948 75.8778C94.2965 75.4422 94.1474 74.8954 94.1474 74.2372V63.4773ZM105.321 77V62.4545H107.515V69.4006H107.693L113.794 62.4545H116.556L110.69 69.0028L116.578 77H113.936L109.234 70.5014L107.515 72.4759V77H105.321ZM118.615 77V66.0909H120.739V77H118.615ZM119.688 64.4077C119.318 64.4077 119.001 64.2846 118.736 64.0384C118.475 63.7874 118.345 63.4891 118.345 63.1435C118.345 62.7931 118.475 62.4948 118.736 62.2486C119.001 61.9976 119.318 61.8722 119.688 61.8722C120.057 61.8722 120.372 61.9976 120.632 62.2486C120.897 62.4948 121.03 62.7931 121.03 63.1435C121.03 63.4891 120.897 63.7874 120.632 64.0384C120.372 64.2846 120.057 64.4077 119.688 64.4077ZM123.096 77V66.0909H125.148V67.8239H125.262C125.461 67.2367 125.811 66.7751 126.313 66.4389C126.819 66.098 127.392 65.9276 128.032 65.9276C128.164 65.9276 128.32 65.9323 128.5 65.9418C128.685 65.9512 128.829 65.9631 128.934 65.9773V68.0085C128.848 67.9848 128.697 67.9588 128.479 67.9304C128.261 67.8973 128.043 67.8807 127.826 67.8807C127.324 67.8807 126.876 67.9872 126.483 68.2003C126.095 68.4086 125.787 68.6998 125.56 69.0739C125.333 69.4432 125.219 69.8646 125.219 70.3381V77H123.096ZM130.271 66.0909H132.395V77.7102C132.395 78.4394 132.262 79.0549 131.997 79.5568C131.737 80.0587 131.348 80.4399 130.832 80.7003C130.321 80.9607 129.689 81.0909 128.936 81.0909C128.86 81.0909 128.789 81.0909 128.723 81.0909C128.652 81.0909 128.579 81.0885 128.503 81.0838V79.2585C128.569 79.2585 128.628 79.2585 128.68 79.2585C128.728 79.2585 128.782 79.2585 128.844 79.2585C129.346 79.2585 129.708 79.1236 129.93 78.8537C130.158 78.5885 130.271 78.2027 130.271 77.696V66.0909ZM131.322 64.4077C130.953 64.4077 130.636 64.2846 130.371 64.0384C130.11 63.7874 129.98 63.4891 129.98 63.1435C129.98 62.7931 130.11 62.4948 130.371 62.2486C130.636 61.9976 130.953 61.8722 131.322 61.8722C131.692 61.8722 132.007 61.9976 132.267 62.2486C132.532 62.4948 132.665 62.7931 132.665 63.1435C132.665 63.4891 132.532 63.7874 132.267 64.0384C132.007 64.2846 131.692 64.4077 131.322 64.4077ZM137.926 77.2415C137.235 77.2415 136.61 77.1136 136.051 76.858C135.493 76.5975 135.05 76.2211 134.723 75.7287C134.401 75.2363 134.24 74.6326 134.24 73.9176C134.24 73.3021 134.359 72.7955 134.596 72.3977C134.832 72 135.152 71.6851 135.554 71.4531C135.957 71.2211 136.407 71.0459 136.904 70.9276C137.401 70.8092 137.908 70.7192 138.424 70.6577C139.077 70.5819 139.607 70.5204 140.015 70.473C140.422 70.4209 140.718 70.3381 140.902 70.2244C141.087 70.1108 141.179 69.9261 141.179 69.6705V69.6207C141.179 69.0005 141.004 68.5199 140.654 68.179C140.308 67.8381 139.792 67.6676 139.105 67.6676C138.391 67.6676 137.827 67.8262 137.415 68.1435C137.008 68.456 136.726 68.804 136.57 69.1875L134.574 68.733C134.811 68.0701 135.157 67.535 135.611 67.1278C136.07 66.7159 136.598 66.4176 137.195 66.233C137.792 66.0436 138.419 65.9489 139.077 65.9489C139.513 65.9489 139.974 66.0009 140.462 66.1051C140.954 66.2045 141.414 66.3892 141.84 66.6591C142.271 66.929 142.623 67.3149 142.898 67.8168C143.173 68.3139 143.31 68.9602 143.31 69.7557V77H141.236V75.5085H141.151C141.014 75.7831 140.808 76.053 140.533 76.3182C140.258 76.5833 139.906 76.8035 139.475 76.9787C139.044 77.1539 138.528 77.2415 137.926 77.2415ZM138.388 75.5369C138.975 75.5369 139.477 75.4209 139.894 75.1889C140.315 74.9569 140.635 74.6539 140.853 74.2798C141.075 73.901 141.186 73.4962 141.186 73.0653V71.6591C141.111 71.7348 140.964 71.8059 140.746 71.8722C140.533 71.9337 140.289 71.9882 140.015 72.0355C139.74 72.0781 139.472 72.1184 139.212 72.1562C138.952 72.1894 138.734 72.2178 138.559 72.2415C138.147 72.2936 137.77 72.3812 137.429 72.5043C137.093 72.6274 136.823 72.8049 136.62 73.0369C136.421 73.2642 136.321 73.5672 136.321 73.946C136.321 74.4716 136.516 74.8693 136.904 75.1392C137.292 75.4044 137.787 75.5369 138.388 75.5369ZM153.813 68.7543L151.888 69.0952C151.808 68.849 151.68 68.6146 151.505 68.392C151.335 68.1695 151.103 67.9872 150.809 67.8452C150.515 67.7031 150.148 67.6321 149.708 67.6321C149.107 67.6321 148.605 67.767 148.202 68.0369C147.8 68.3021 147.599 68.6454 147.599 69.0668C147.599 69.4313 147.734 69.7249 148.004 69.9474C148.273 70.17 148.709 70.3523 149.31 70.4943L151.043 70.892C152.047 71.1241 152.795 71.4815 153.288 71.9645C153.78 72.4474 154.026 73.0748 154.026 73.8466C154.026 74.5 153.837 75.0824 153.458 75.5938C153.084 76.1004 152.561 76.4981 151.888 76.7869C151.221 77.0758 150.447 77.2202 149.566 77.2202C148.344 77.2202 147.348 76.9598 146.576 76.4389C145.804 75.9134 145.331 75.1676 145.156 74.2017L147.208 73.8892C147.336 74.4242 147.599 74.8291 147.996 75.1037C148.394 75.3736 148.913 75.5085 149.552 75.5085C150.248 75.5085 150.804 75.3641 151.221 75.0753C151.638 74.7817 151.846 74.4242 151.846 74.0028C151.846 73.6619 151.718 73.3755 151.462 73.1435C151.211 72.9115 150.826 72.7363 150.305 72.6179L148.458 72.2131C147.44 71.9811 146.687 71.6117 146.2 71.1051C145.717 70.5985 145.475 69.9569 145.475 69.1804C145.475 68.5365 145.655 67.973 146.015 67.4901C146.375 67.0071 146.872 66.6307 147.506 66.3608C148.141 66.0862 148.868 65.9489 149.687 65.9489C150.866 65.9489 151.794 66.2045 152.471 66.7159C153.148 67.2225 153.595 67.902 153.813 68.7543ZM160.953 66.0909V67.7955H154.995V66.0909H160.953ZM156.593 63.4773H158.716V73.7969C158.716 74.2088 158.778 74.5189 158.901 74.7273C159.024 74.9309 159.183 75.0705 159.377 75.1463C159.576 75.2173 159.791 75.2528 160.023 75.2528C160.194 75.2528 160.343 75.241 160.471 75.2173C160.598 75.1937 160.698 75.1747 160.769 75.1605L161.152 76.9148C161.029 76.9621 160.854 77.0095 160.627 77.0568C160.4 77.1089 160.115 77.1373 159.775 77.142C159.216 77.1515 158.695 77.0521 158.212 76.8438C157.729 76.6354 157.338 76.3134 157.04 75.8778C156.742 75.4422 156.593 74.8954 156.593 74.2372V63.4773ZM169.713 72.4759V66.0909H171.844V77H169.756V75.1108H169.642C169.391 75.6932 168.989 76.1785 168.435 76.5668C167.885 76.9503 167.201 77.142 166.382 77.142C165.681 77.142 165.061 76.9882 164.521 76.6804C163.986 76.3679 163.565 75.9062 163.257 75.2955C162.954 74.6847 162.803 73.9295 162.803 73.0298V66.0909H164.926V72.7741C164.926 73.5175 165.132 74.1094 165.544 74.5497C165.956 74.9901 166.491 75.2102 167.149 75.2102C167.547 75.2102 167.942 75.1108 168.335 74.9119C168.733 74.7131 169.062 74.4124 169.322 74.0099C169.588 73.6075 169.718 73.0961 169.713 72.4759ZM182.372 68.7543L180.447 69.0952C180.367 68.849 180.239 68.6146 180.064 68.392C179.893 68.1695 179.661 67.9872 179.368 67.8452C179.074 67.7031 178.707 67.6321 178.267 67.6321C177.665 67.6321 177.163 67.767 176.761 68.0369C176.359 68.3021 176.157 68.6454 176.157 69.0668C176.157 69.4313 176.292 69.7249 176.562 69.9474C176.832 70.17 177.268 70.3523 177.869 70.4943L179.602 70.892C180.606 71.1241 181.354 71.4815 181.846 71.9645C182.339 72.4474 182.585 73.0748 182.585 73.8466C182.585 74.5 182.395 75.0824 182.017 75.5938C181.643 76.1004 181.119 76.4981 180.447 76.7869C179.779 77.0758 179.005 77.2202 178.125 77.2202C176.903 77.2202 175.906 76.9598 175.135 76.4389C174.363 75.9134 173.889 75.1676 173.714 74.2017L175.767 73.8892C175.895 74.4242 176.157 74.8291 176.555 75.1037C176.953 75.3736 177.471 75.5085 178.11 75.5085C178.806 75.5085 179.363 75.3641 179.779 75.0753C180.196 74.7817 180.404 74.4242 180.404 74.0028C180.404 73.6619 180.277 73.3755 180.021 73.1435C179.77 72.9115 179.384 72.7363 178.863 72.6179L177.017 72.2131C175.999 71.9811 175.246 71.6117 174.758 71.1051C174.275 70.5985 174.034 69.9569 174.034 69.1804C174.034 68.5365 174.214 67.973 174.574 67.4901C174.933 67.0071 175.431 66.6307 176.065 66.3608C176.699 66.0862 177.426 65.9489 178.245 65.9489C179.424 65.9489 180.352 66.2045 181.029 66.7159C181.707 67.2225 182.154 67.902 182.372 68.7543ZM189.121 77.2202C188.047 77.2202 187.121 76.9905 186.344 76.5312C185.573 76.0672 184.976 75.4162 184.555 74.5781C184.138 73.7353 183.93 72.7481 183.93 71.6165C183.93 70.4991 184.138 69.5142 184.555 68.6619C184.976 67.8097 185.563 67.1444 186.316 66.6662C187.074 66.188 187.959 65.9489 188.972 65.9489C189.588 65.9489 190.184 66.0507 190.762 66.2543C191.34 66.4579 191.858 66.7775 192.317 67.2131C192.777 67.6487 193.139 68.2145 193.404 68.9105C193.669 69.6018 193.802 70.4422 193.802 71.4318V72.1847H185.13V70.5938H191.721C191.721 70.035 191.607 69.5402 191.38 69.1094C191.153 68.6738 190.833 68.3305 190.421 68.0795C190.014 67.8286 189.536 67.7031 188.987 67.7031C188.39 67.7031 187.869 67.8499 187.424 68.1435C186.984 68.4323 186.643 68.8111 186.401 69.2798C186.165 69.7438 186.046 70.2481 186.046 70.7926V72.0355C186.046 72.7647 186.174 73.3849 186.43 73.8963C186.69 74.4077 187.052 74.7983 187.516 75.0682C187.98 75.3333 188.522 75.4659 189.143 75.4659C189.545 75.4659 189.912 75.4091 190.244 75.2955C190.575 75.1771 190.862 75.0019 191.103 74.7699C191.344 74.5379 191.529 74.2514 191.657 73.9105L193.667 74.2727C193.506 74.8646 193.217 75.383 192.8 75.8281C192.388 76.2685 191.87 76.6117 191.245 76.858C190.625 77.0994 189.917 77.2202 189.121 77.2202ZM204.535 77.2131C203.654 77.2131 202.868 76.9882 202.177 76.5384C201.49 76.0838 200.951 75.4375 200.558 74.5994C200.169 73.7566 199.975 72.7457 199.975 71.5668C199.975 70.3878 200.172 69.3793 200.565 68.5412C200.962 67.7031 201.507 67.0616 202.198 66.6165C202.889 66.1714 203.673 65.9489 204.549 65.9489C205.226 65.9489 205.771 66.0625 206.183 66.2898C206.599 66.5123 206.921 66.7727 207.148 67.071C207.38 67.3693 207.56 67.6321 207.688 67.8594H207.816V62.4545H209.94V77H207.866V75.3026H207.688C207.56 75.5346 207.376 75.7997 207.134 76.098C206.897 76.3963 206.571 76.6567 206.154 76.8793C205.737 77.1018 205.198 77.2131 204.535 77.2131ZM205.004 75.402C205.614 75.402 206.13 75.241 206.552 74.919C206.978 74.5923 207.3 74.1402 207.518 73.5625C207.74 72.9848 207.852 72.3125 207.852 71.5455C207.852 70.7879 207.743 70.125 207.525 69.5568C207.307 68.9886 206.987 68.5459 206.566 68.2287C206.145 67.9115 205.624 67.7528 205.004 67.7528C204.364 67.7528 203.832 67.9186 203.406 68.25C202.979 68.5814 202.657 69.0336 202.44 69.6065C202.227 70.1795 202.12 70.8258 202.12 71.5455C202.12 72.2746 202.229 72.9304 202.447 73.5128C202.665 74.0952 202.987 74.5568 203.413 74.8977C203.844 75.2339 204.374 75.402 205.004 75.402ZM212.471 77V66.0909H214.594V77H212.471ZM213.543 64.4077C213.174 64.4077 212.856 64.2846 212.591 64.0384C212.331 63.7874 212.201 63.4891 212.201 63.1435C212.201 62.7931 212.331 62.4948 212.591 62.2486C212.856 61.9976 213.174 61.8722 213.543 61.8722C213.912 61.8722 214.227 61.9976 214.488 62.2486C214.753 62.4948 214.885 62.7931 214.885 63.1435C214.885 63.4891 214.753 63.7874 214.488 64.0384C214.227 64.2846 213.912 64.4077 213.543 64.4077ZM221.525 81.3182C220.658 81.3182 219.913 81.2045 219.288 80.9773C218.667 80.75 218.161 80.4493 217.768 80.0753C217.375 79.7012 217.081 79.2917 216.887 78.8466L218.712 78.0938C218.84 78.3021 219.011 78.5223 219.224 78.7543C219.442 78.991 219.735 79.1922 220.104 79.358C220.478 79.5237 220.959 79.6065 221.546 79.6065C222.351 79.6065 223.016 79.41 223.542 79.017C224.067 78.6288 224.33 78.0085 224.33 77.1562V75.0114H224.195C224.067 75.2434 223.883 75.5014 223.641 75.7855C223.405 76.0696 223.078 76.3158 222.661 76.5241C222.245 76.7325 221.702 76.8366 221.035 76.8366C220.173 76.8366 219.397 76.6354 218.705 76.233C218.019 75.8258 217.474 75.2268 217.072 74.4361C216.674 73.6406 216.475 72.6629 216.475 71.5028C216.475 70.3428 216.672 69.3485 217.065 68.5199C217.462 67.6913 218.007 67.0568 218.698 66.6165C219.389 66.1714 220.173 65.9489 221.049 65.9489C221.726 65.9489 222.273 66.0625 222.69 66.2898C223.106 66.5123 223.431 66.7727 223.663 67.071C223.899 67.3693 224.082 67.6321 224.21 67.8594H224.366V66.0909H226.447V77.2415C226.447 78.179 226.229 78.9484 225.793 79.5497C225.358 80.151 224.768 80.5961 224.025 80.8849C223.286 81.1738 222.453 81.3182 221.525 81.3182ZM221.504 75.0753C222.114 75.0753 222.63 74.9332 223.052 74.6491C223.478 74.3603 223.8 73.9484 224.018 73.4134C224.24 72.8736 224.352 72.2273 224.352 71.4744C224.352 70.7405 224.243 70.0942 224.025 69.5355C223.807 68.9768 223.487 68.5412 223.066 68.2287C222.645 67.9115 222.124 67.7528 221.504 67.7528C220.864 67.7528 220.332 67.9186 219.906 68.25C219.479 68.5767 219.157 69.0218 218.94 69.5852C218.727 70.1487 218.62 70.7784 218.62 71.4744C218.62 72.1894 218.729 72.8168 218.947 73.3565C219.165 73.8963 219.487 74.3177 219.913 74.6207C220.344 74.9238 220.874 75.0753 221.504 75.0753ZM228.795 77V66.0909H230.918V77H228.795ZM229.867 64.4077C229.498 64.4077 229.181 64.2846 228.915 64.0384C228.655 63.7874 228.525 63.4891 228.525 63.1435C228.525 62.7931 228.655 62.4948 228.915 62.2486C229.181 61.9976 229.498 61.8722 229.867 61.8722C230.237 61.8722 230.551 61.9976 230.812 62.2486C231.077 62.4948 231.21 62.7931 231.21 63.1435C231.21 63.4891 231.077 63.7874 230.812 64.0384C230.551 64.2846 230.237 64.4077 229.867 64.4077ZM233.275 81.0909V66.0909H235.349V67.8594H235.527C235.65 67.6321 235.827 67.3693 236.059 67.071C236.291 66.7727 236.613 66.5123 237.025 66.2898C237.437 66.0625 237.982 65.9489 238.659 65.9489C239.539 65.9489 240.325 66.1714 241.017 66.6165C241.708 67.0616 242.25 67.7031 242.643 68.5412C243.041 69.3793 243.24 70.3878 243.24 71.5668C243.24 72.7457 243.043 73.7566 242.65 74.5994C242.257 75.4375 241.717 76.0838 241.031 76.5384C240.344 76.9882 239.561 77.2131 238.68 77.2131C238.017 77.2131 237.475 77.1018 237.054 76.8793C236.637 76.6567 236.31 76.3963 236.074 76.098C235.837 75.7997 235.654 75.5346 235.527 75.3026H235.399V81.0909H233.275ZM235.356 71.5455C235.356 72.3125 235.467 72.9848 235.69 73.5625C235.913 74.1402 236.234 74.5923 236.656 74.919C237.077 75.241 237.593 75.402 238.204 75.402C238.839 75.402 239.369 75.2339 239.795 74.8977C240.221 74.5568 240.543 74.0952 240.761 73.5128C240.984 72.9304 241.095 72.2746 241.095 71.5455C241.095 70.8258 240.986 70.1795 240.768 69.6065C240.555 69.0336 240.233 68.5814 239.802 68.25C239.376 67.9186 238.843 67.7528 238.204 67.7528C237.589 67.7528 237.068 67.9115 236.642 68.2287C236.22 68.5459 235.901 68.9886 235.683 69.5568C235.465 70.125 235.356 70.7879 235.356 71.5455ZM248.294 77.2415C247.602 77.2415 246.977 77.1136 246.419 76.858C245.86 76.5975 245.417 76.2211 245.091 75.7287C244.769 75.2363 244.608 74.6326 244.608 73.9176C244.608 73.3021 244.726 72.7955 244.963 72.3977C245.199 72 245.519 71.6851 245.922 71.4531C246.324 71.2211 246.774 71.0459 247.271 70.9276C247.768 70.8092 248.275 70.7192 248.791 70.6577C249.444 70.5819 249.975 70.5204 250.382 70.473C250.789 70.4209 251.085 70.3381 251.27 70.2244C251.454 70.1108 251.547 69.9261 251.547 69.6705V69.6207C251.547 69.0005 251.371 68.5199 251.021 68.179C250.675 67.8381 250.159 67.6676 249.473 67.6676C248.758 67.6676 248.194 67.8262 247.782 68.1435C247.375 68.456 247.093 68.804 246.937 69.1875L244.941 68.733C245.178 68.0701 245.524 67.535 245.978 67.1278C246.438 66.7159 246.966 66.4176 247.562 66.233C248.159 66.0436 248.786 65.9489 249.444 65.9489C249.88 65.9489 250.342 66.0009 250.829 66.1051C251.322 66.2045 251.781 66.3892 252.207 66.6591C252.638 66.929 252.991 67.3149 253.265 67.8168C253.54 68.3139 253.677 68.9602 253.677 69.7557V77H251.603V75.5085H251.518C251.381 75.7831 251.175 76.053 250.9 76.3182C250.626 76.5833 250.273 76.8035 249.842 76.9787C249.411 77.1539 248.895 77.2415 248.294 77.2415ZM248.755 75.5369C249.342 75.5369 249.844 75.4209 250.261 75.1889C250.682 74.9569 251.002 74.6539 251.22 74.2798C251.442 73.901 251.554 73.4962 251.554 73.0653V71.6591C251.478 71.7348 251.331 71.8059 251.113 71.8722C250.9 71.9337 250.656 71.9882 250.382 72.0355C250.107 72.0781 249.84 72.1184 249.579 72.1562C249.319 72.1894 249.101 72.2178 248.926 72.2415C248.514 72.2936 248.137 72.3812 247.797 72.5043C247.46 72.6274 247.19 72.8049 246.987 73.0369C246.788 73.2642 246.689 73.5672 246.689 73.946C246.689 74.4716 246.883 74.8693 247.271 75.1392C247.659 75.4044 248.154 75.5369 248.755 75.5369ZM257.959 73.2997L257.945 70.7074H258.314L262.661 66.0909H265.203L260.246 71.3466H259.912L257.959 73.2997ZM256.006 77V62.4545H258.129V77H256.006ZM262.895 77L258.989 71.8153L260.452 70.331L265.501 77H262.895ZM270.891 77.2202C269.816 77.2202 268.891 76.9905 268.114 76.5312C267.342 76.0672 266.746 75.4162 266.324 74.5781C265.908 73.7353 265.699 72.7481 265.699 71.6165C265.699 70.4991 265.908 69.5142 266.324 68.6619C266.746 67.8097 267.333 67.1444 268.086 66.6662C268.843 66.188 269.729 65.9489 270.742 65.9489C271.357 65.9489 271.954 66.0507 272.532 66.2543C273.109 66.4579 273.628 66.7775 274.087 67.2131C274.546 67.6487 274.908 68.2145 275.174 68.9105C275.439 69.6018 275.571 70.4422 275.571 71.4318V72.1847H266.9V70.5938H273.49C273.49 70.035 273.377 69.5402 273.15 69.1094C272.922 68.6738 272.603 68.3305 272.191 68.0795C271.783 67.8286 271.305 67.7031 270.756 67.7031C270.159 67.7031 269.639 67.8499 269.194 68.1435C268.753 68.4323 268.412 68.8111 268.171 69.2798C267.934 69.7438 267.816 70.2481 267.816 70.7926V72.0355C267.816 72.7647 267.944 73.3849 268.199 73.8963C268.46 74.4077 268.822 74.7983 269.286 75.0682C269.75 75.3333 270.292 75.4659 270.912 75.4659C271.315 75.4659 271.682 75.4091 272.013 75.2955C272.345 75.1771 272.631 75.0019 272.873 74.7699C273.114 74.5379 273.299 74.2514 273.426 73.9105L275.436 74.2727C275.275 74.8646 274.987 75.383 274.57 75.8281C274.158 76.2685 273.64 76.6117 273.015 76.858C272.394 77.0994 271.686 77.2202 270.891 77.2202ZM282.52 66.0909V67.7955H276.561V66.0909H282.52ZM278.159 63.4773H280.283V73.7969C280.283 74.2088 280.344 74.5189 280.467 74.7273C280.59 74.9309 280.749 75.0705 280.943 75.1463C281.142 75.2173 281.357 75.2528 281.589 75.2528C281.76 75.2528 281.909 75.241 282.037 75.2173C282.165 75.1937 282.264 75.1747 282.335 75.1605L282.719 76.9148C282.596 76.9621 282.42 77.0095 282.193 77.0568C281.966 77.1089 281.682 77.1373 281.341 77.142C280.782 77.1515 280.261 77.0521 279.778 76.8438C279.295 76.6354 278.905 76.3134 278.607 75.8778C278.308 75.4422 278.159 74.8954 278.159 74.2372V63.4773ZM284.369 77V66.0909H286.493V77H284.369ZM285.441 64.4077C285.072 64.4077 284.755 64.2846 284.49 64.0384C284.229 63.7874 284.099 63.4891 284.099 63.1435C284.099 62.7931 284.229 62.4948 284.49 62.2486C284.755 61.9976 285.072 61.8722 285.441 61.8722C285.811 61.8722 286.126 61.9976 286.386 62.2486C286.651 62.4948 286.784 62.7931 286.784 63.1435C286.784 63.4891 286.651 63.7874 286.386 64.0384C286.126 64.2846 285.811 64.4077 285.441 64.4077ZM23.5511 87.4545V102H21.4276V87.4545H23.5511ZM25.908 102V91.0909H28.0316V102H25.908ZM26.9805 89.4077C26.6112 89.4077 26.2939 89.2846 26.0288 89.0384C25.7683 88.7874 25.6381 88.4891 25.6381 88.1435C25.6381 87.7931 25.7683 87.4948 26.0288 87.2486C26.2939 86.9976 26.6112 86.8722 26.9805 86.8722C27.3498 86.8722 27.6647 86.9976 27.9251 87.2486C28.1902 87.4948 28.3228 87.7931 28.3228 88.1435C28.3228 88.4891 28.1902 88.7874 27.9251 89.0384C27.6647 89.2846 27.3498 89.4077 26.9805 89.4077ZM34.9624 106.318C34.0959 106.318 33.3501 106.205 32.7251 105.977C32.1049 105.75 31.5982 105.449 31.2053 105.075C30.8123 104.701 30.5187 104.292 30.3246 103.847L32.1499 103.094C32.2777 103.302 32.4482 103.522 32.6612 103.754C32.879 103.991 33.1726 104.192 33.5419 104.358C33.916 104.524 34.3965 104.607 34.9837 104.607C35.7886 104.607 36.4538 104.41 36.9794 104.017C37.505 103.629 37.7678 103.009 37.7678 102.156V100.011H37.6328C37.505 100.243 37.3203 100.501 37.0788 100.786C36.8421 101.07 36.5154 101.316 36.0987 101.524C35.6821 101.732 35.1399 101.837 34.4723 101.837C33.6106 101.837 32.834 101.635 32.1428 101.233C31.4562 100.826 30.9117 100.227 30.5092 99.4361C30.1115 98.6406 29.9126 97.6629 29.9126 96.5028C29.9126 95.3428 30.1091 94.3485 30.5021 93.5199C30.8999 92.6913 31.4444 92.0568 32.1357 91.6165C32.8269 91.1714 33.6106 90.9489 34.4865 90.9489C35.1636 90.9489 35.7105 91.0625 36.1271 91.2898C36.5438 91.5123 36.8681 91.7727 37.1001 92.071C37.3369 92.3693 37.5192 92.6321 37.647 92.8594H37.8033V91.0909H39.8842V102.241C39.8842 103.179 39.6664 103.948 39.2308 104.55C38.7952 105.151 38.2057 105.596 37.4624 105.885C36.7237 106.174 35.8904 106.318 34.9624 106.318ZM34.9411 100.075C35.5518 100.075 36.0679 99.9332 36.4893 99.6491C36.9155 99.3603 37.2375 98.9484 37.4553 98.4134C37.6778 97.8736 37.7891 97.2273 37.7891 96.4744C37.7891 95.7405 37.6802 95.0942 37.4624 94.5355C37.2446 93.9768 36.925 93.5412 36.5036 93.2287C36.0821 92.9115 35.5613 92.7528 34.9411 92.7528C34.3018 92.7528 33.7692 92.9186 33.343 93.25C32.9169 93.5767 32.5949 94.0218 32.3771 94.5852C32.1641 95.1487 32.0575 95.7784 32.0575 96.4744C32.0575 97.1894 32.1664 97.8168 32.3842 98.3565C32.602 98.8963 32.924 99.3177 33.3501 99.6207C33.781 99.9238 34.3113 100.075 34.9411 100.075ZM42.2322 102V91.0909H44.3558V102H42.2322ZM43.3047 89.4077C42.9354 89.4077 42.6181 89.2846 42.353 89.0384C42.0926 88.7874 41.9624 88.4891 41.9624 88.1435C41.9624 87.7931 42.0926 87.4948 42.353 87.2486C42.6181 86.9976 42.9354 86.8722 43.3047 86.8722C43.674 86.8722 43.9889 86.9976 44.2493 87.2486C44.5144 87.4948 44.647 87.7931 44.647 88.1435C44.647 88.4891 44.5144 88.7874 44.2493 89.0384C43.9889 89.2846 43.674 89.4077 43.3047 89.4077ZM46.7127 106.091V91.0909H48.7866V92.8594H48.9641C49.0872 92.6321 49.2648 92.3693 49.4968 92.071C49.7288 91.7727 50.0508 91.5123 50.4627 91.2898C50.8746 91.0625 51.4192 90.9489 52.0962 90.9489C52.9769 90.9489 53.7629 91.1714 54.4542 91.6165C55.1455 92.0616 55.6876 92.7031 56.0806 93.5412C56.4783 94.3793 56.6772 95.3878 56.6772 96.5668C56.6772 97.7457 56.4807 98.7566 56.0877 99.5994C55.6947 100.437 55.1549 101.084 54.4684 101.538C53.7818 101.988 52.9982 102.213 52.1175 102.213C51.4547 102.213 50.9125 102.102 50.4911 101.879C50.0745 101.657 49.7478 101.396 49.511 101.098C49.2743 100.8 49.092 100.535 48.9641 100.303H48.8363V106.091H46.7127ZM48.7937 96.5455C48.7937 97.3125 48.9049 97.9848 49.1275 98.5625C49.35 99.1402 49.672 99.5923 50.0934 99.919C50.5148 100.241 51.0309 100.402 51.6417 100.402C52.2762 100.402 52.8065 100.234 53.2326 99.8977C53.6587 99.5568 53.9807 99.0952 54.1985 98.5128C54.421 97.9304 54.5323 97.2746 54.5323 96.5455C54.5323 95.8258 54.4234 95.1795 54.2056 94.6065C53.9925 94.0336 53.6706 93.5814 53.2397 93.25C52.8136 92.9186 52.2809 92.7528 51.6417 92.7528C51.0262 92.7528 50.5053 92.9115 50.0792 93.2287C49.6578 93.5459 49.3382 93.9886 49.1204 94.5568C48.9026 95.125 48.7937 95.7879 48.7937 96.5455ZM61.7312 102.241C61.0399 102.241 60.4149 102.114 59.8562 101.858C59.2975 101.598 58.8548 101.221 58.5281 100.729C58.2061 100.236 58.0451 99.6326 58.0451 98.9176C58.0451 98.3021 58.1635 97.7955 58.4002 97.3977C58.637 97 58.9566 96.6851 59.359 96.4531C59.7615 96.2211 60.2113 96.0459 60.7085 95.9276C61.2056 95.8092 61.7122 95.7192 62.2283 95.6577C62.8817 95.5819 63.4121 95.5204 63.8192 95.473C64.2264 95.4209 64.5224 95.3381 64.707 95.2244C64.8917 95.1108 64.984 94.9261 64.984 94.6705V94.6207C64.984 94.0005 64.8088 93.5199 64.4585 93.179C64.1128 92.8381 63.5967 92.6676 62.9102 92.6676C62.1952 92.6676 61.6317 92.8262 61.2198 93.1435C60.8126 93.456 60.5309 93.804 60.3746 94.1875L58.3789 93.733C58.6156 93.0701 58.9613 92.535 59.4158 92.1278C59.8751 91.7159 60.4031 91.4176 60.9996 91.233C61.5962 91.0436 62.2236 90.9489 62.8817 90.9489C63.3174 90.9489 63.779 91.0009 64.2667 91.1051C64.7591 91.2045 65.2184 91.3892 65.6445 91.6591C66.0754 91.929 66.4281 92.3149 66.7028 92.8168C66.9774 93.3139 67.1147 93.9602 67.1147 94.7557V102H65.0408V100.509H64.9556C64.8183 100.783 64.6123 101.053 64.3377 101.318C64.0631 101.583 63.7103 101.804 63.2795 101.979C62.8486 102.154 62.3325 102.241 61.7312 102.241ZM62.1928 100.537C62.7799 100.537 63.2818 100.421 63.6985 100.189C64.1199 99.9569 64.4395 99.6539 64.6573 99.2798C64.8799 98.901 64.9911 98.4962 64.9911 98.0653V96.6591C64.9154 96.7348 64.7686 96.8059 64.5508 96.8722C64.3377 96.9337 64.0939 96.9882 63.8192 97.0355C63.5446 97.0781 63.2771 97.1184 63.0167 97.1562C62.7563 97.1894 62.5385 97.2178 62.3633 97.2415C61.9513 97.2936 61.5749 97.3812 61.234 97.5043C60.8978 97.6274 60.628 97.8049 60.4244 98.0369C60.2255 98.2642 60.1261 98.5672 60.1261 98.946C60.1261 99.4716 60.3202 99.8693 60.7085 100.139C61.0967 100.404 61.5915 100.537 62.1928 100.537ZM60.9073 89.3793C60.5711 89.3793 60.2776 89.2562 60.0266 89.0099C59.7757 88.759 59.6502 88.4702 59.6502 88.1435C59.6502 87.7884 59.7757 87.4924 60.0266 87.2557C60.2776 87.0189 60.5711 86.9006 60.9073 86.9006C61.2624 86.9006 61.5584 87.0189 61.7951 87.2557C62.0366 87.4924 62.1573 87.7884 62.1573 88.1435C62.1573 88.4702 62.0366 88.759 61.7951 89.0099C61.5584 89.2562 61.2624 89.3793 60.9073 89.3793ZM65.0835 89.3793C64.7473 89.3793 64.4537 89.2562 64.2028 89.0099C63.9518 88.759 63.8263 88.4702 63.8263 88.1435C63.8263 87.7884 63.9518 87.4924 64.2028 87.2557C64.4537 87.0189 64.7473 86.9006 65.0835 86.9006C65.4386 86.9006 65.7345 87.0189 65.9712 87.2557C66.2127 87.4924 66.3335 87.7884 66.3335 88.1435C66.3335 88.4702 66.2127 88.759 65.9712 89.0099C65.7345 89.2562 65.4386 89.3793 65.0835 89.3793ZM72.6179 102.241C71.9266 102.241 71.3016 102.114 70.7429 101.858C70.1842 101.598 69.7415 101.221 69.4148 100.729C69.0928 100.236 68.9318 99.6326 68.9318 98.9176C68.9318 98.3021 69.0502 97.7955 69.2869 97.3977C69.5237 97 69.8433 96.6851 70.2457 96.4531C70.6482 96.2211 71.098 96.0459 71.5952 95.9276C72.0923 95.8092 72.599 95.7192 73.1151 95.6577C73.7685 95.5819 74.2988 95.5204 74.706 95.473C75.1132 95.4209 75.4091 95.3381 75.5938 95.2244C75.7784 95.1108 75.8707 94.9261 75.8707 94.6705V94.6207C75.8707 94.0005 75.6955 93.5199 75.3452 93.179C74.9995 92.8381 74.4834 92.6676 73.7969 92.6676C73.0819 92.6676 72.5185 92.8262 72.1065 93.1435C71.6993 93.456 71.4176 93.804 71.2614 94.1875L69.2656 93.733C69.5024 93.0701 69.848 92.535 70.3026 92.1278C70.7618 91.7159 71.2898 91.4176 71.8864 91.233C72.483 91.0436 73.1103 90.9489 73.7685 90.9489C74.2041 90.9489 74.6657 91.0009 75.1534 91.1051C75.6458 91.2045 76.1051 91.3892 76.5312 91.6591C76.9621 91.929 77.3149 92.3149 77.5895 92.8168C77.8641 93.3139 78.0014 93.9602 78.0014 94.7557V102H75.9276V100.509H75.8423C75.705 100.783 75.4991 101.053 75.2244 101.318C74.9498 101.583 74.5971 101.804 74.1662 101.979C73.7353 102.154 73.2192 102.241 72.6179 102.241ZM73.0795 100.537C73.6667 100.537 74.1686 100.421 74.5852 100.189C75.0066 99.9569 75.3262 99.6539 75.544 99.2798C75.7666 98.901 75.8778 98.4962 75.8778 98.0653V96.6591C75.8021 96.7348 75.6553 96.8059 75.4375 96.8722C75.2244 96.9337 74.9806 96.9882 74.706 97.0355C74.4313 97.0781 74.1638 97.1184 73.9034 97.1562C73.643 97.1894 73.4252 97.2178 73.25 97.2415C72.8381 97.2936 72.4616 97.3812 72.1207 97.5043C71.7846 97.6274 71.5147 97.8049 71.3111 98.0369C71.1122 98.2642 71.0128 98.5672 71.0128 98.946C71.0128 99.4716 71.2069 99.8693 71.5952 100.139C71.9834 100.404 72.4782 100.537 73.0795 100.537ZM71.794 89.3793C71.4579 89.3793 71.1643 89.2562 70.9134 89.0099C70.6624 88.759 70.5369 88.4702 70.5369 88.1435C70.5369 87.7884 70.6624 87.4924 70.9134 87.2557C71.1643 87.0189 71.4579 86.9006 71.794 86.9006C72.1491 86.9006 72.4451 87.0189 72.6818 87.2557C72.9233 87.4924 73.044 87.7884 73.044 88.1435C73.044 88.4702 72.9233 88.759 72.6818 89.0099C72.4451 89.2562 72.1491 89.3793 71.794 89.3793ZM75.9702 89.3793C75.634 89.3793 75.3404 89.2562 75.0895 89.0099C74.8385 88.759 74.7131 88.4702 74.7131 88.1435C74.7131 87.7884 74.8385 87.4924 75.0895 87.2557C75.3404 87.0189 75.634 86.9006 75.9702 86.9006C76.3253 86.9006 76.6212 87.0189 76.858 87.2557C77.0994 87.4924 77.2202 87.7884 77.2202 88.1435C77.2202 88.4702 77.0994 88.759 76.858 89.0099C76.6212 89.2562 76.3253 89.3793 75.9702 89.3793ZM88.5046 93.7543L86.5799 94.0952C86.4994 93.849 86.3716 93.6146 86.1964 93.392C86.0259 93.1695 85.7939 92.9872 85.5004 92.8452C85.2068 92.7031 84.8398 92.6321 84.3995 92.6321C83.7982 92.6321 83.2963 92.767 82.8938 93.0369C82.4914 93.3021 82.2901 93.6454 82.2901 94.0668C82.2901 94.4313 82.4251 94.7249 82.695 94.9474C82.9648 95.17 83.4004 95.3523 84.0018 95.4943L85.7347 95.892C86.7385 96.1241 87.4866 96.4815 87.979 96.9645C88.4715 97.4474 88.7177 98.0748 88.7177 98.8466C88.7177 99.5 88.5283 100.082 88.1495 100.594C87.7755 101.1 87.2522 101.498 86.5799 101.787C85.9123 102.076 85.1381 102.22 84.2575 102.22C83.0359 102.22 82.0392 101.96 81.2674 101.439C80.4956 100.913 80.0221 100.168 79.8469 99.2017L81.8995 98.8892C82.0273 99.4242 82.2901 99.8291 82.6879 100.104C83.0856 100.374 83.604 100.509 84.2433 100.509C84.9393 100.509 85.4956 100.364 85.9123 100.075C86.329 99.7817 86.5373 99.4242 86.5373 99.0028C86.5373 98.6619 86.4094 98.3755 86.1538 98.1435C85.9028 97.9115 85.5169 97.7363 84.9961 97.6179L83.1495 97.2131C82.1315 96.9811 81.3787 96.6117 80.891 96.1051C80.408 95.5985 80.1665 94.9569 80.1665 94.1804C80.1665 93.5365 80.3465 92.973 80.7063 92.4901C81.0662 92.0071 81.5633 91.6307 82.1978 91.3608C82.8323 91.0862 83.5591 90.9489 84.3782 90.9489C85.5572 90.9489 86.4852 91.2045 87.1623 91.7159C87.8394 92.2225 88.2868 92.902 88.5046 93.7543ZM97.4631 97.4759V91.0909H99.5938V102H97.5057V100.111H97.392C97.1411 100.693 96.7386 101.179 96.1847 101.567C95.6354 101.95 94.9512 102.142 94.1321 102.142C93.4313 102.142 92.8111 101.988 92.2713 101.68C91.7363 101.368 91.3149 100.906 91.0071 100.295C90.7041 99.6847 90.5526 98.9295 90.5526 98.0298V91.0909H92.6761V97.7741C92.6761 98.5175 92.8821 99.1094 93.294 99.5497C93.706 99.9901 94.241 100.21 94.8991 100.21C95.2969 100.21 95.6922 100.111 96.0852 99.9119C96.483 99.7131 96.812 99.4124 97.0724 99.0099C97.3376 98.6075 97.4678 98.0961 97.4631 97.4759ZM114.915 93.7543L112.99 94.0952C112.91 93.849 112.782 93.6146 112.607 93.392C112.436 93.1695 112.204 92.9872 111.911 92.8452C111.617 92.7031 111.25 92.6321 110.81 92.6321C110.208 92.6321 109.706 92.767 109.304 93.0369C108.902 93.3021 108.7 93.6454 108.7 94.0668C108.7 94.4313 108.835 94.7249 109.105 94.9474C109.375 95.17 109.811 95.3523 110.412 95.4943L112.145 95.892C113.149 96.1241 113.897 96.4815 114.389 96.9645C114.882 97.4474 115.128 98.0748 115.128 98.8466C115.128 99.5 114.938 100.082 114.56 100.594C114.186 101.1 113.662 101.498 112.99 101.787C112.322 102.076 111.548 102.22 110.668 102.22C109.446 102.22 108.449 101.96 107.678 101.439C106.906 100.913 106.432 100.168 106.257 99.2017L108.31 98.8892C108.438 99.4242 108.7 99.8291 109.098 100.104C109.496 100.374 110.014 100.509 110.653 100.509C111.349 100.509 111.906 100.364 112.322 100.075C112.739 99.7817 112.947 99.4242 112.947 99.0028C112.947 98.6619 112.82 98.3755 112.564 98.1435C112.313 97.9115 111.927 97.7363 111.406 97.6179L109.56 97.2131C108.542 96.9811 107.789 96.6117 107.301 96.1051C106.818 95.5985 106.577 94.9569 106.577 94.1804C106.577 93.5365 106.757 92.973 107.116 92.4901C107.476 92.0071 107.973 91.6307 108.608 91.3608C109.242 91.0862 109.969 90.9489 110.788 90.9489C111.967 90.9489 112.895 91.2045 113.572 91.7159C114.25 92.2225 114.697 92.902 114.915 93.7543ZM120.137 102.241C119.446 102.241 118.821 102.114 118.262 101.858C117.704 101.598 117.261 101.221 116.934 100.729C116.612 100.236 116.451 99.6326 116.451 98.9176C116.451 98.3021 116.57 97.7955 116.806 97.3977C117.043 97 117.363 96.6851 117.765 96.4531C118.168 96.2211 118.618 96.0459 119.115 95.9276C119.612 95.8092 120.118 95.7192 120.635 95.6577C121.288 95.5819 121.818 95.5204 122.225 95.473C122.633 95.4209 122.929 95.3381 123.113 95.2244C123.298 95.1108 123.39 94.9261 123.39 94.6705V94.6207C123.39 94.0005 123.215 93.5199 122.865 93.179C122.519 92.8381 122.003 92.6676 121.316 92.6676C120.601 92.6676 120.038 92.8262 119.626 93.1435C119.219 93.456 118.937 93.804 118.781 94.1875L116.785 93.733C117.022 93.0701 117.368 92.535 117.822 92.1278C118.281 91.7159 118.809 91.4176 119.406 91.233C120.002 91.0436 120.63 90.9489 121.288 90.9489C121.724 90.9489 122.185 91.0009 122.673 91.1051C123.165 91.2045 123.625 91.3892 124.051 91.6591C124.482 91.929 124.834 92.3149 125.109 92.8168C125.384 93.3139 125.521 93.9602 125.521 94.7557V102H123.447V100.509H123.362C123.225 100.783 123.019 101.053 122.744 101.318C122.469 101.583 122.117 101.804 121.686 101.979C121.255 102.154 120.739 102.241 120.137 102.241ZM120.599 100.537C121.186 100.537 121.688 100.421 122.105 100.189C122.526 99.9569 122.846 99.6539 123.064 99.2798C123.286 98.901 123.397 98.4962 123.397 98.0653V96.6591C123.322 96.7348 123.175 96.8059 122.957 96.8722C122.744 96.9337 122.5 96.9882 122.225 97.0355C121.951 97.0781 121.683 97.1184 121.423 97.1562C121.163 97.1894 120.945 97.2178 120.77 97.2415C120.358 97.2936 119.981 97.3812 119.64 97.5043C119.304 97.6274 119.034 97.8049 118.831 98.0369C118.632 98.2642 118.532 98.5672 118.532 98.946C118.532 99.4716 118.726 99.8693 119.115 100.139C119.503 100.404 119.998 100.537 120.599 100.537ZM131.024 102.241C130.333 102.241 129.708 102.114 129.149 101.858C128.59 101.598 128.148 101.221 127.821 100.729C127.499 100.236 127.338 99.6326 127.338 98.9176C127.338 98.3021 127.456 97.7955 127.693 97.3977C127.93 97 128.25 96.6851 128.652 96.4531C129.054 96.2211 129.504 96.0459 130.001 95.9276C130.499 95.8092 131.005 95.7192 131.521 95.6577C132.175 95.5819 132.705 95.5204 133.112 95.473C133.519 95.4209 133.815 95.3381 134 95.2244C134.185 95.1108 134.277 94.9261 134.277 94.6705V94.6207C134.277 94.0005 134.102 93.5199 133.751 93.179C133.406 92.8381 132.89 92.6676 132.203 92.6676C131.488 92.6676 130.925 92.8262 130.513 93.1435C130.106 93.456 129.824 93.804 129.668 94.1875L127.672 93.733C127.909 93.0701 128.254 92.535 128.709 92.1278C129.168 91.7159 129.696 91.4176 130.293 91.233C130.889 91.0436 131.517 90.9489 132.175 90.9489C132.61 90.9489 133.072 91.0009 133.56 91.1051C134.052 91.2045 134.511 91.3892 134.938 91.6591C135.368 91.929 135.721 92.3149 135.996 92.8168C136.27 93.3139 136.408 93.9602 136.408 94.7557V102H134.334V100.509H134.249C134.111 100.783 133.905 101.053 133.631 101.318C133.356 101.583 133.003 101.804 132.572 101.979C132.142 102.154 131.625 102.241 131.024 102.241ZM131.486 100.537C132.073 100.537 132.575 100.421 132.991 100.189C133.413 99.9569 133.732 99.6539 133.95 99.2798C134.173 98.901 134.284 98.4962 134.284 98.0653V96.6591C134.208 96.7348 134.062 96.8059 133.844 96.8722C133.631 96.9337 133.387 96.9882 133.112 97.0355C132.838 97.0781 132.57 97.1184 132.31 97.1562C132.049 97.1894 131.831 97.2178 131.656 97.2415C131.244 97.2936 130.868 97.3812 130.527 97.5043C130.191 97.6274 129.921 97.8049 129.717 98.0369C129.518 98.2642 129.419 98.5672 129.419 98.946C129.419 99.4716 129.613 99.8693 130.001 100.139C130.39 100.404 130.884 100.537 131.486 100.537ZM142.82 102.213C141.939 102.213 141.153 101.988 140.462 101.538C139.775 101.084 139.236 100.437 138.843 99.5994C138.454 98.7566 138.26 97.7457 138.26 96.5668C138.26 95.3878 138.457 94.3793 138.85 93.5412C139.248 92.7031 139.792 92.0616 140.483 91.6165C141.175 91.1714 141.958 90.9489 142.834 90.9489C143.511 90.9489 144.056 91.0625 144.468 91.2898C144.884 91.5123 145.206 91.7727 145.434 92.071C145.666 92.3693 145.846 92.6321 145.973 92.8594H146.101V87.4545H148.225V102H146.151V100.303H145.973C145.846 100.535 145.661 100.8 145.419 101.098C145.183 101.396 144.856 101.657 144.439 101.879C144.023 102.102 143.483 102.213 142.82 102.213ZM143.289 100.402C143.9 100.402 144.416 100.241 144.837 99.919C145.263 99.5923 145.585 99.1402 145.803 98.5625C146.025 97.9848 146.137 97.3125 146.137 96.5455C146.137 95.7879 146.028 95.125 145.81 94.5568C145.592 93.9886 145.273 93.5459 144.851 93.2287C144.43 92.9115 143.909 92.7528 143.289 92.7528C142.65 92.7528 142.117 92.9186 141.691 93.25C141.265 93.5814 140.943 94.0336 140.725 94.6065C140.512 95.1795 140.405 95.8258 140.405 96.5455C140.405 97.2746 140.514 97.9304 140.732 98.5128C140.95 99.0952 141.272 99.5568 141.698 99.8977C142.129 100.234 142.659 100.402 143.289 100.402ZM155.549 91.0909H157.672V102.71C157.672 103.439 157.54 104.055 157.275 104.557C157.014 105.059 156.626 105.44 156.11 105.7C155.598 105.961 154.966 106.091 154.213 106.091C154.138 106.091 154.067 106.091 154 106.091C153.929 106.091 153.856 106.089 153.78 106.084V104.259C153.846 104.259 153.906 104.259 153.958 104.259C154.005 104.259 154.06 104.259 154.121 104.259C154.623 104.259 154.985 104.124 155.208 103.854C155.435 103.589 155.549 103.203 155.549 102.696V91.0909ZM156.6 89.4077C156.23 89.4077 155.913 89.2846 155.648 89.0384C155.388 88.7874 155.257 88.4891 155.257 88.1435C155.257 87.7931 155.388 87.4948 155.648 87.2486C155.913 86.9976 156.23 86.8722 156.6 86.8722C156.969 86.8722 157.284 86.9976 157.544 87.2486C157.81 87.4948 157.942 87.7931 157.942 88.1435C157.942 88.4891 157.81 88.7874 157.544 89.0384C157.284 89.2846 156.969 89.4077 156.6 89.4077ZM163.204 102.241C162.513 102.241 161.888 102.114 161.329 101.858C160.77 101.598 160.327 101.221 160.001 100.729C159.679 100.236 159.518 99.6326 159.518 98.9176C159.518 98.3021 159.636 97.7955 159.873 97.3977C160.11 97 160.429 96.6851 160.832 96.4531C161.234 96.2211 161.684 96.0459 162.181 95.9276C162.678 95.8092 163.185 95.7192 163.701 95.6577C164.354 95.5819 164.885 95.5204 165.292 95.473C165.699 95.4209 165.995 95.3381 166.18 95.2244C166.364 95.1108 166.457 94.9261 166.457 94.6705V94.6207C166.457 94.0005 166.281 93.5199 165.931 93.179C165.585 92.8381 165.069 92.6676 164.383 92.6676C163.668 92.6676 163.104 92.8262 162.692 93.1435C162.285 93.456 162.004 93.804 161.847 94.1875L159.852 93.733C160.088 93.0701 160.434 92.535 160.888 92.1278C161.348 91.7159 161.876 91.4176 162.472 91.233C163.069 91.0436 163.696 90.9489 164.354 90.9489C164.79 90.9489 165.252 91.0009 165.739 91.1051C166.232 91.2045 166.691 91.3892 167.117 91.6591C167.548 91.929 167.901 92.3149 168.175 92.8168C168.45 93.3139 168.587 93.9602 168.587 94.7557V102H166.513V100.509H166.428C166.291 100.783 166.085 101.053 165.81 101.318C165.536 101.583 165.183 101.804 164.752 101.979C164.321 102.154 163.805 102.241 163.204 102.241ZM163.665 100.537C164.253 100.537 164.754 100.421 165.171 100.189C165.593 99.9569 165.912 99.6539 166.13 99.2798C166.353 98.901 166.464 98.4962 166.464 98.0653V96.6591C166.388 96.7348 166.241 96.8059 166.023 96.8722C165.81 96.9337 165.567 96.9882 165.292 97.0355C165.017 97.0781 164.75 97.1184 164.489 97.1562C164.229 97.1894 164.011 97.2178 163.836 97.2415C163.424 97.2936 163.048 97.3812 162.707 97.5043C162.371 97.6274 162.101 97.8049 161.897 98.0369C161.698 98.2642 161.599 98.5672 161.599 98.946C161.599 99.4716 161.793 99.8693 162.181 100.139C162.569 100.404 163.064 100.537 163.665 100.537ZM175.49 106.318C174.623 106.318 173.877 106.205 173.252 105.977C172.632 105.75 172.126 105.449 171.733 105.075C171.34 104.701 171.046 104.292 170.852 103.847L172.677 103.094C172.805 103.302 172.975 103.522 173.189 103.754C173.406 103.991 173.7 104.192 174.069 104.358C174.443 104.524 174.924 104.607 175.511 104.607C176.316 104.607 176.981 104.41 177.507 104.017C178.032 103.629 178.295 103.009 178.295 102.156V100.011H178.16C178.032 100.243 177.848 100.501 177.606 100.786C177.369 101.07 177.043 101.316 176.626 101.524C176.209 101.732 175.667 101.837 175 101.837C174.138 101.837 173.361 101.635 172.67 101.233C171.984 100.826 171.439 100.227 171.037 99.4361C170.639 98.6406 170.44 97.6629 170.44 96.5028C170.44 95.3428 170.636 94.3485 171.029 93.5199C171.427 92.6913 171.972 92.0568 172.663 91.6165C173.354 91.1714 174.138 90.9489 175.014 90.9489C175.691 90.9489 176.238 91.0625 176.654 91.2898C177.071 91.5123 177.395 91.7727 177.627 92.071C177.864 92.3693 178.047 92.6321 178.174 92.8594H178.331V91.0909H180.412V102.241C180.412 103.179 180.194 103.948 179.758 104.55C179.323 105.151 178.733 105.596 177.99 105.885C177.251 106.174 176.418 106.318 175.49 106.318ZM175.468 100.075C176.079 100.075 176.595 99.9332 177.017 99.6491C177.443 99.3603 177.765 98.9484 177.983 98.4134C178.205 97.8736 178.316 97.2273 178.316 96.4744C178.316 95.7405 178.208 95.0942 177.99 94.5355C177.772 93.9768 177.452 93.5412 177.031 93.2287C176.609 92.9115 176.089 92.7528 175.468 92.7528C174.829 92.7528 174.297 92.9186 173.87 93.25C173.444 93.5767 173.122 94.0218 172.904 94.5852C172.691 95.1487 172.585 95.7784 172.585 96.4744C172.585 97.1894 172.694 97.8168 172.912 98.3565C173.129 98.8963 173.451 99.3177 173.877 99.6207C174.308 99.9238 174.839 100.075 175.468 100.075ZM185.934 102.241C185.243 102.241 184.618 102.114 184.059 101.858C183.501 101.598 183.058 101.221 182.731 100.729C182.409 100.236 182.248 99.6326 182.248 98.9176C182.248 98.3021 182.367 97.7955 182.603 97.3977C182.84 97 183.16 96.6851 183.562 96.4531C183.965 96.2211 184.414 96.0459 184.912 95.9276C185.409 95.8092 185.915 95.7192 186.431 95.6577C187.085 95.5819 187.615 95.5204 188.022 95.473C188.43 95.4209 188.725 95.3381 188.91 95.2244C189.095 95.1108 189.187 94.9261 189.187 94.6705V94.6207C189.187 94.0005 189.012 93.5199 188.662 93.179C188.316 92.8381 187.8 92.6676 187.113 92.6676C186.398 92.6676 185.835 92.8262 185.423 93.1435C185.016 93.456 184.734 93.804 184.578 94.1875L182.582 93.733C182.819 93.0701 183.164 92.535 183.619 92.1278C184.078 91.7159 184.606 91.4176 185.203 91.233C185.799 91.0436 186.427 90.9489 187.085 90.9489C187.52 90.9489 187.982 91.0009 188.47 91.1051C188.962 91.2045 189.422 91.3892 189.848 91.6591C190.279 91.929 190.631 92.3149 190.906 92.8168C191.181 93.3139 191.318 93.9602 191.318 94.7557V102H189.244V100.509H189.159C189.021 100.783 188.815 101.053 188.541 101.318C188.266 101.583 187.913 101.804 187.483 101.979C187.052 102.154 186.536 102.241 185.934 102.241ZM186.396 100.537C186.983 100.537 187.485 100.421 187.902 100.189C188.323 99.9569 188.643 99.6539 188.86 99.2798C189.083 98.901 189.194 98.4962 189.194 98.0653V96.6591C189.118 96.7348 188.972 96.8059 188.754 96.8722C188.541 96.9337 188.297 96.9882 188.022 97.0355C187.748 97.0781 187.48 97.1184 187.22 97.1562C186.959 97.1894 186.742 97.2178 186.566 97.2415C186.154 97.2936 185.778 97.3812 185.437 97.5043C185.101 97.6274 184.831 97.8049 184.627 98.0369C184.429 98.2642 184.329 98.5672 184.329 98.946C184.329 99.4716 184.523 99.8693 184.912 100.139C185.3 100.404 185.795 100.537 186.396 100.537ZM197.73 102.213C196.849 102.213 196.063 101.988 195.372 101.538C194.686 101.084 194.146 100.437 193.753 99.5994C193.365 98.7566 193.17 97.7457 193.17 96.5668C193.17 95.3878 193.367 94.3793 193.76 93.5412C194.158 92.7031 194.702 92.0616 195.393 91.6165C196.085 91.1714 196.868 90.9489 197.744 90.9489C198.421 90.9489 198.966 91.0625 199.378 91.2898C199.795 91.5123 200.116 91.7727 200.344 92.071C200.576 92.3693 200.756 92.6321 200.884 92.8594H201.011V87.4545H203.135V102H201.061V100.303H200.884C200.756 100.535 200.571 100.8 200.33 101.098C200.093 101.396 199.766 101.657 199.349 101.879C198.933 102.102 198.393 102.213 197.73 102.213ZM198.199 100.402C198.81 100.402 199.326 100.241 199.747 99.919C200.173 99.5923 200.495 99.1402 200.713 98.5625C200.936 97.9848 201.047 97.3125 201.047 96.5455C201.047 95.7879 200.938 95.125 200.72 94.5568C200.502 93.9886 200.183 93.5459 199.761 93.2287C199.34 92.9115 198.819 92.7528 198.199 92.7528C197.56 92.7528 197.027 92.9186 196.601 93.25C196.175 93.5814 195.853 94.0336 195.635 94.6065C195.422 95.1795 195.315 95.8258 195.315 96.5455C195.315 97.2746 195.424 97.9304 195.642 98.5128C195.86 99.0952 196.182 99.5568 196.608 99.8977C197.039 100.234 197.569 100.402 198.199 100.402ZM208.841 102.241C208.149 102.241 207.524 102.114 206.966 101.858C206.407 101.598 205.964 101.221 205.637 100.729C205.315 100.236 205.154 99.6326 205.154 98.9176C205.154 98.3021 205.273 97.7955 205.51 97.3977C205.746 97 206.066 96.6851 206.468 96.4531C206.871 96.2211 207.321 96.0459 207.818 95.9276C208.315 95.8092 208.822 95.7192 209.338 95.6577C209.991 95.5819 210.521 95.5204 210.929 95.473C211.336 95.4209 211.632 95.3381 211.816 95.2244C212.001 95.1108 212.093 94.9261 212.093 94.6705V94.6207C212.093 94.0005 211.918 93.5199 211.568 93.179C211.222 92.8381 210.706 92.6676 210.02 92.6676C209.305 92.6676 208.741 92.8262 208.329 93.1435C207.922 93.456 207.64 93.804 207.484 94.1875L205.488 93.733C205.725 93.0701 206.071 92.535 206.525 92.1278C206.984 91.7159 207.512 91.4176 208.109 91.233C208.706 91.0436 209.333 90.9489 209.991 90.9489C210.427 90.9489 210.888 91.0009 211.376 91.1051C211.868 91.2045 212.328 91.3892 212.754 91.6591C213.185 91.929 213.538 92.3149 213.812 92.8168C214.087 93.3139 214.224 93.9602 214.224 94.7557V102H212.15V100.509H212.065C211.928 100.783 211.722 101.053 211.447 101.318C211.172 101.583 210.82 101.804 210.389 101.979C209.958 102.154 209.442 102.241 208.841 102.241ZM209.302 100.537C209.889 100.537 210.391 100.421 210.808 100.189C211.229 99.9569 211.549 99.6539 211.767 99.2798C211.989 98.901 212.1 98.4962 212.1 98.0653V96.6591C212.025 96.7348 211.878 96.8059 211.66 96.8722C211.447 96.9337 211.203 96.9882 210.929 97.0355C210.654 97.0781 210.386 97.1184 210.126 97.1562C209.866 97.1894 209.648 97.2178 209.473 97.2415C209.061 97.2936 208.684 97.3812 208.343 97.5043C208.007 97.6274 207.737 97.8049 207.534 98.0369C207.335 98.2642 207.235 98.5672 207.235 98.946C207.235 99.4716 207.43 99.8693 207.818 100.139C208.206 100.404 208.701 100.537 209.302 100.537ZM223.469 95.5227V102H221.346V91.0909H223.384V92.8665H223.519C223.77 92.2888 224.163 91.8248 224.698 91.4744C225.238 91.1241 225.917 90.9489 226.736 90.9489C227.48 90.9489 228.131 91.1051 228.689 91.4176C229.248 91.7254 229.681 92.1847 229.989 92.7955C230.297 93.4062 230.451 94.1615 230.451 95.0611V102H228.327V95.3168C228.327 94.526 228.121 93.9081 227.709 93.4631C227.297 93.0133 226.731 92.7884 226.012 92.7884C225.519 92.7884 225.081 92.8949 224.698 93.108C224.319 93.321 224.018 93.6335 223.796 94.0455C223.578 94.4527 223.469 94.9451 223.469 95.5227ZM237.5 102.22C236.426 102.22 235.5 101.991 234.723 101.531C233.952 101.067 233.355 100.416 232.934 99.5781C232.517 98.7353 232.309 97.7481 232.309 96.6165C232.309 95.4991 232.517 94.5142 232.934 93.6619C233.355 92.8097 233.942 92.1444 234.695 91.6662C235.453 91.188 236.338 90.9489 237.351 90.9489C237.967 90.9489 238.563 91.0507 239.141 91.2543C239.719 91.4579 240.237 91.7775 240.696 92.2131C241.156 92.6487 241.518 93.2145 241.783 93.9105C242.048 94.6018 242.181 95.4422 242.181 96.4318V97.1847H233.509V95.5938H240.1C240.1 95.035 239.986 94.5402 239.759 94.1094C239.532 93.6738 239.212 93.3305 238.8 93.0795C238.393 92.8286 237.915 92.7031 237.365 92.7031C236.769 92.7031 236.248 92.8499 235.803 93.1435C235.363 93.4323 235.022 93.8111 234.78 94.2798C234.543 94.7438 234.425 95.2481 234.425 95.7926V97.0355C234.425 97.7647 234.553 98.3849 234.809 98.8963C235.069 99.4077 235.431 99.7983 235.895 100.068C236.359 100.333 236.901 100.466 237.522 100.466C237.924 100.466 238.291 100.409 238.623 100.295C238.954 100.177 239.24 100.002 239.482 99.7699C239.723 99.5379 239.908 99.2514 240.036 98.9105L242.046 99.2727C241.885 99.8646 241.596 100.383 241.179 100.828C240.767 101.268 240.249 101.612 239.624 101.858C239.004 102.099 238.296 102.22 237.5 102.22ZM246.161 87.4545V102H244.037V87.4545H246.161ZM248.517 91.0909H250.641V102.71C250.641 103.439 250.508 104.055 250.243 104.557C249.983 105.059 249.595 105.44 249.078 105.7C248.567 105.961 247.935 106.091 247.182 106.091C247.106 106.091 247.035 106.091 246.969 106.091C246.898 106.091 246.825 106.089 246.749 106.084V104.259C246.815 104.259 246.874 104.259 246.926 104.259C246.974 104.259 247.028 104.259 247.09 104.259C247.592 104.259 247.954 104.124 248.176 103.854C248.404 103.589 248.517 103.203 248.517 102.696V91.0909ZM249.569 89.4077C249.199 89.4077 248.882 89.2846 248.617 89.0384C248.356 88.7874 248.226 88.4891 248.226 88.1435C248.226 87.7931 248.356 87.4948 248.617 87.2486C248.882 86.9976 249.199 86.8722 249.569 86.8722C249.938 86.8722 250.253 86.9976 250.513 87.2486C250.778 87.4948 250.911 87.7931 250.911 88.1435C250.911 88.4891 250.778 88.7874 250.513 89.0384C250.253 89.2846 249.938 89.4077 249.569 89.4077ZM256.173 102.241C255.481 102.241 254.856 102.114 254.298 101.858C253.739 101.598 253.296 101.221 252.969 100.729C252.647 100.236 252.487 99.6326 252.487 98.9176C252.487 98.3021 252.605 97.7955 252.842 97.3977C253.078 97 253.398 96.6851 253.8 96.4531C254.203 96.2211 254.653 96.0459 255.15 95.9276C255.647 95.8092 256.154 95.7192 256.67 95.6577C257.323 95.5819 257.853 95.5204 258.261 95.473C258.668 95.4209 258.964 95.3381 259.148 95.2244C259.333 95.1108 259.425 94.9261 259.425 94.6705V94.6207C259.425 94.0005 259.25 93.5199 258.9 93.179C258.554 92.8381 258.038 92.6676 257.352 92.6676C256.637 92.6676 256.073 92.8262 255.661 93.1435C255.254 93.456 254.972 93.804 254.816 94.1875L252.82 93.733C253.057 93.0701 253.403 92.535 253.857 92.1278C254.317 91.7159 254.844 91.4176 255.441 91.233C256.038 91.0436 256.665 90.9489 257.323 90.9489C257.759 90.9489 258.22 91.0009 258.708 91.1051C259.201 91.2045 259.66 91.3892 260.086 91.6591C260.517 91.929 260.87 92.3149 261.144 92.8168C261.419 93.3139 261.556 93.9602 261.556 94.7557V102H259.482V100.509H259.397C259.26 100.783 259.054 101.053 258.779 101.318C258.504 101.583 258.152 101.804 257.721 101.979C257.29 102.154 256.774 102.241 256.173 102.241ZM256.634 100.537C257.221 100.537 257.723 100.421 258.14 100.189C258.561 99.9569 258.881 99.6539 259.099 99.2798C259.321 98.901 259.433 98.4962 259.433 98.0653V96.6591C259.357 96.7348 259.21 96.8059 258.992 96.8722C258.779 96.9337 258.535 96.9882 258.261 97.0355C257.986 97.0781 257.719 97.1184 257.458 97.1562C257.198 97.1894 256.98 97.2178 256.805 97.2415C256.393 97.2936 256.016 97.3812 255.675 97.5043C255.339 97.6274 255.069 97.8049 254.866 98.0369C254.667 98.2642 254.567 98.5672 254.567 98.946C254.567 99.4716 254.762 99.8693 255.15 100.139C255.538 100.404 256.033 100.537 256.634 100.537ZM29.6023 118.754L27.6776 119.095C27.5971 118.849 27.4692 118.615 27.294 118.392C27.1236 118.17 26.8916 117.987 26.598 117.845C26.3045 117.703 25.9375 117.632 25.4972 117.632C24.8958 117.632 24.3939 117.767 23.9915 118.037C23.589 118.302 23.3878 118.645 23.3878 119.067C23.3878 119.431 23.5227 119.725 23.7926 119.947C24.0625 120.17 24.4981 120.352 25.0994 120.494L26.8324 120.892C27.8362 121.124 28.5843 121.482 29.0767 121.964C29.5691 122.447 29.8153 123.075 29.8153 123.847C29.8153 124.5 29.6259 125.082 29.2472 125.594C28.8731 126.1 28.3499 126.498 27.6776 126.787C27.0099 127.076 26.2358 127.22 25.3551 127.22C24.1335 127.22 23.1368 126.96 22.3651 126.439C21.5933 125.913 21.1198 125.168 20.9446 124.202L22.9972 123.889C23.125 124.424 23.3878 124.829 23.7855 125.104C24.1832 125.374 24.7017 125.509 25.3409 125.509C26.0369 125.509 26.5933 125.364 27.0099 125.075C27.4266 124.782 27.6349 124.424 27.6349 124.003C27.6349 123.662 27.5071 123.375 27.2514 123.143C27.0005 122.911 26.6146 122.736 26.0938 122.618L24.2472 122.213C23.2292 121.981 22.4763 121.612 21.9886 121.105C21.5057 120.598 21.2642 119.957 21.2642 119.18C21.2642 118.536 21.4441 117.973 21.804 117.49C22.1638 117.007 22.661 116.631 23.2955 116.361C23.9299 116.086 24.6567 115.949 25.4759 115.949C26.6548 115.949 27.5829 116.205 28.2599 116.716C28.937 117.223 29.3845 117.902 29.6023 118.754ZM36.2454 127.22C35.2227 127.22 34.3301 126.986 33.5678 126.517C32.8055 126.048 32.2137 125.393 31.7923 124.55C31.3709 123.707 31.1602 122.722 31.1602 121.595C31.1602 120.464 31.3709 119.474 31.7923 118.626C32.2137 117.779 32.8055 117.121 33.5678 116.652C34.3301 116.183 35.2227 115.949 36.2454 115.949C37.2681 115.949 38.1606 116.183 38.9229 116.652C39.6853 117.121 40.2771 117.779 40.6985 118.626C41.1199 119.474 41.3306 120.464 41.3306 121.595C41.3306 122.722 41.1199 123.707 40.6985 124.55C40.2771 125.393 39.6853 126.048 38.9229 126.517C38.1606 126.986 37.2681 127.22 36.2454 127.22ZM36.2525 125.438C36.9154 125.438 37.4646 125.262 37.9002 124.912C38.3358 124.562 38.6578 124.095 38.8661 123.513C39.0792 122.93 39.1857 122.289 39.1857 121.588C39.1857 120.892 39.0792 120.253 38.8661 119.67C38.6578 119.083 38.3358 118.612 37.9002 118.257C37.4646 117.902 36.9154 117.724 36.2525 117.724C35.5849 117.724 35.0309 117.902 34.5906 118.257C34.1549 118.612 33.8306 119.083 33.6175 119.67C33.4092 120.253 33.305 120.892 33.305 121.588C33.305 122.289 33.4092 122.93 33.6175 123.513C33.8306 124.095 34.1549 124.562 34.5906 124.912C35.0309 125.262 35.5849 125.438 36.2525 125.438ZM34.1076 114.77L32.68 114.727C32.68 113.941 32.8907 113.314 33.3121 112.845C33.7383 112.376 34.2638 112.142 34.8888 112.142C35.1777 112.142 35.431 112.192 35.6488 112.291C35.8666 112.386 36.0702 112.497 36.2596 112.625C36.4537 112.748 36.6455 112.859 36.8349 112.959C37.029 113.054 37.2444 113.101 37.4812 113.101C37.7558 113.101 37.9783 112.997 38.1488 112.788C38.324 112.58 38.4116 112.322 38.4116 112.014L39.8107 112.107C39.8107 112.897 39.5977 113.52 39.1715 113.974C38.7454 114.424 38.2222 114.652 37.6019 114.656C37.2657 114.656 36.9864 114.609 36.7638 114.514C36.546 114.415 36.3519 114.304 36.1815 114.18C36.011 114.053 35.8358 113.939 35.6559 113.839C35.476 113.74 35.2605 113.69 35.0096 113.69C34.7444 113.69 34.5266 113.795 34.3562 114.003C34.1905 114.206 34.1076 114.462 34.1076 114.77ZM43.3714 127V112.455H45.495V117.859H45.6229C45.746 117.632 45.9235 117.369 46.1555 117.071C46.3875 116.773 46.7095 116.512 47.1214 116.29C47.5334 116.062 48.0779 115.949 48.755 115.949C49.6357 115.949 50.4216 116.171 51.1129 116.616C51.8042 117.062 52.3464 117.703 52.7393 118.541C53.1371 119.379 53.3359 120.388 53.3359 121.567C53.3359 122.746 53.1394 123.757 52.7464 124.599C52.3535 125.437 51.8137 126.084 51.1271 126.538C50.4406 126.988 49.657 127.213 48.7763 127.213C48.1134 127.213 47.5713 127.102 47.1499 126.879C46.7332 126.657 46.4065 126.396 46.1697 126.098C45.933 125.8 45.7507 125.535 45.6229 125.303H45.4453V127H43.3714ZM45.4524 121.545C45.4524 122.312 45.5637 122.985 45.7862 123.562C46.0088 124.14 46.3307 124.592 46.7521 124.919C47.1735 125.241 47.6896 125.402 48.3004 125.402C48.9349 125.402 49.4652 125.234 49.8913 124.898C50.3175 124.557 50.6394 124.095 50.8572 123.513C51.0798 122.93 51.1911 122.275 51.1911 121.545C51.1911 120.826 51.0821 120.179 50.8643 119.607C50.6513 119.034 50.3293 118.581 49.8984 118.25C49.4723 117.919 48.9396 117.753 48.3004 117.753C47.6849 117.753 47.1641 117.911 46.7379 118.229C46.3165 118.546 45.9969 118.989 45.7791 119.557C45.5613 120.125 45.4524 120.788 45.4524 121.545ZM55.2205 127V116.091H57.2731V117.824H57.3867C57.5856 117.237 57.936 116.775 58.4379 116.439C58.9445 116.098 59.5174 115.928 60.1566 115.928C60.2892 115.928 60.4454 115.932 60.6254 115.942C60.81 115.951 60.9544 115.963 61.0586 115.977V118.009C60.9734 117.985 60.8219 117.959 60.604 117.93C60.3862 117.897 60.1684 117.881 59.9506 117.881C59.4487 117.881 59.0013 117.987 58.6083 118.2C58.2201 118.409 57.9123 118.7 57.685 119.074C57.4577 119.443 57.3441 119.865 57.3441 120.338V127H55.2205ZM65.4734 127.241C64.7821 127.241 64.1571 127.114 63.5984 126.858C63.0397 126.598 62.5969 126.221 62.2702 125.729C61.9483 125.236 61.7873 124.633 61.7873 123.918C61.7873 123.302 61.9057 122.795 62.1424 122.398C62.3791 122 62.6987 121.685 63.1012 121.453C63.5037 121.221 63.9535 121.046 64.4506 120.928C64.9478 120.809 65.4544 120.719 65.9705 120.658C66.6239 120.582 67.1542 120.52 67.5614 120.473C67.9686 120.421 68.2646 120.338 68.4492 120.224C68.6339 120.111 68.7262 119.926 68.7262 119.67V119.621C68.7262 119 68.551 118.52 68.2006 118.179C67.855 117.838 67.3389 117.668 66.6523 117.668C65.9374 117.668 65.3739 117.826 64.962 118.143C64.5548 118.456 64.2731 118.804 64.1168 119.188L62.1211 118.733C62.3578 118.07 62.7035 117.535 63.158 117.128C63.6173 116.716 64.1452 116.418 64.7418 116.233C65.3384 116.044 65.9658 115.949 66.6239 115.949C67.0595 115.949 67.5212 116.001 68.0089 116.105C68.5013 116.205 68.9606 116.389 69.3867 116.659C69.8176 116.929 70.1703 117.315 70.445 117.817C70.7196 118.314 70.8569 118.96 70.8569 119.756V127H68.783V125.509H68.6978C68.5605 125.783 68.3545 126.053 68.0799 126.318C67.8053 126.583 67.4525 126.804 67.0217 126.979C66.5908 127.154 66.0747 127.241 65.4734 127.241ZM65.935 125.537C66.5221 125.537 67.024 125.421 67.4407 125.189C67.8621 124.957 68.1817 124.654 68.3995 124.28C68.622 123.901 68.7333 123.496 68.7333 123.065V121.659C68.6576 121.735 68.5108 121.806 68.293 121.872C68.0799 121.934 67.8361 121.988 67.5614 122.036C67.2868 122.078 67.0193 122.118 66.7589 122.156C66.4985 122.189 66.2807 122.218 66.1055 122.241C65.6935 122.294 65.3171 122.381 64.9762 122.504C64.64 122.627 64.3701 122.805 64.1665 123.037C63.9677 123.264 63.8683 123.567 63.8683 123.946C63.8683 124.472 64.0624 124.869 64.4506 125.139C64.8389 125.404 65.3337 125.537 65.935 125.537ZM77.7592 131.318C76.8928 131.318 76.147 131.205 75.522 130.977C74.9018 130.75 74.3951 130.449 74.0021 130.075C73.6091 129.701 73.3156 129.292 73.1214 128.847L74.9467 128.094C75.0746 128.302 75.245 128.522 75.4581 128.754C75.6759 128.991 75.9695 129.192 76.3388 129.358C76.7128 129.524 77.1934 129.607 77.7805 129.607C78.5855 129.607 79.2507 129.41 79.7763 129.017C80.3018 128.629 80.5646 128.009 80.5646 127.156V125.011H80.4297C80.3018 125.243 80.1172 125.501 79.8757 125.786C79.639 126.07 79.3123 126.316 78.8956 126.524C78.4789 126.732 77.9368 126.837 77.2692 126.837C76.4074 126.837 75.6309 126.635 74.9396 126.233C74.2531 125.826 73.7086 125.227 73.3061 124.436C72.9084 123.641 72.7095 122.663 72.7095 121.503C72.7095 120.343 72.906 119.348 73.299 118.52C73.6967 117.691 74.2412 117.057 74.9325 116.616C75.6238 116.171 76.4074 115.949 77.2834 115.949C77.9605 115.949 78.5073 116.062 78.924 116.29C79.3407 116.512 79.665 116.773 79.897 117.071C80.1338 117.369 80.3161 117.632 80.4439 117.859H80.6001V116.091H82.6811V127.241C82.6811 128.179 82.4633 128.948 82.0277 129.55C81.5921 130.151 81.0026 130.596 80.2592 130.885C79.5206 131.174 78.6873 131.318 77.7592 131.318ZM77.7379 125.075C78.3487 125.075 78.8648 124.933 79.2862 124.649C79.7124 124.36 80.0343 123.948 80.2521 123.413C80.4747 122.874 80.5859 122.227 80.5859 121.474C80.5859 120.741 80.477 120.094 80.2592 119.536C80.0414 118.977 79.7218 118.541 79.3004 118.229C78.879 117.911 78.3582 117.753 77.7379 117.753C77.0987 117.753 76.5661 117.919 76.1399 118.25C75.7138 118.577 75.3918 119.022 75.174 119.585C74.9609 120.149 74.8544 120.778 74.8544 121.474C74.8544 122.189 74.9633 122.817 75.1811 123.357C75.3989 123.896 75.7209 124.318 76.147 124.621C76.5779 124.924 77.1082 125.075 77.7379 125.075ZM88.2038 127.241C87.5125 127.241 86.8875 127.114 86.3288 126.858C85.7701 126.598 85.3274 126.221 85.0007 125.729C84.6787 125.236 84.5178 124.633 84.5178 123.918C84.5178 123.302 84.6361 122.795 84.8729 122.398C85.1096 122 85.4292 121.685 85.8317 121.453C86.2341 121.221 86.6839 121.046 87.1811 120.928C87.6783 120.809 88.1849 120.719 88.701 120.658C89.3544 120.582 89.8847 120.52 90.2919 120.473C90.6991 120.421 90.995 120.338 91.1797 120.224C91.3643 120.111 91.4567 119.926 91.4567 119.67V119.621C91.4567 119 91.2815 118.52 90.9311 118.179C90.5855 117.838 90.0694 117.668 89.3828 117.668C88.6679 117.668 88.1044 117.826 87.6925 118.143C87.2853 118.456 87.0036 118.804 86.8473 119.188L84.8516 118.733C85.0883 118.07 85.4339 117.535 85.8885 117.128C86.3478 116.716 86.8757 116.418 87.4723 116.233C88.0689 116.044 88.6963 115.949 89.3544 115.949C89.79 115.949 90.2517 116.001 90.7393 116.105C91.2318 116.205 91.6911 116.389 92.1172 116.659C92.5481 116.929 92.9008 117.315 93.1754 117.817C93.45 118.314 93.5874 118.96 93.5874 119.756V127H91.5135V125.509H91.4283C91.291 125.783 91.085 126.053 90.8104 126.318C90.5357 126.583 90.183 126.804 89.7521 126.979C89.3213 127.154 88.8052 127.241 88.2038 127.241ZM88.6655 125.537C89.2526 125.537 89.7545 125.421 90.1712 125.189C90.5926 124.957 90.9122 124.654 91.13 124.28C91.3525 123.901 91.4638 123.496 91.4638 123.065V121.659C91.388 121.735 91.2412 121.806 91.0234 121.872C90.8104 121.934 90.5665 121.988 90.2919 122.036C90.0173 122.078 89.7498 122.118 89.4893 122.156C89.2289 122.189 89.0111 122.218 88.8359 122.241C88.424 122.294 88.0476 122.381 87.7067 122.504C87.3705 122.627 87.1006 122.805 86.897 123.037C86.6982 123.264 86.5987 123.567 86.5987 123.946C86.5987 124.472 86.7929 124.869 87.1811 125.139C87.5694 125.404 88.0642 125.537 88.6655 125.537ZM98.5934 112.455L98.4087 122.817H96.4414L96.2567 112.455H98.5934ZM97.4286 127.135C97.0356 127.135 96.6995 126.998 96.4201 126.723C96.1407 126.444 96.0034 126.107 96.0082 125.714C96.0034 125.326 96.1407 124.995 96.4201 124.72C96.6995 124.441 97.0356 124.301 97.4286 124.301C97.8121 124.301 98.1436 124.441 98.4229 124.72C98.7023 124.995 98.8443 125.326 98.8491 125.714C98.8443 125.975 98.7757 126.214 98.6431 126.432C98.5153 126.645 98.3448 126.815 98.1317 126.943C97.9187 127.071 97.6843 127.135 97.4286 127.135Z" fill="#442604"/>
<rect x="20" y="143" width="118" height="36" rx="6.75" fill="#E3000F"/>
<path d="M39.434 150.359C40.904 150.359 42.1745 150.632 43.2455 151.178C44.3165 151.703 45.125 152.428 45.671 153.352C46.238 154.255 46.5215 155.263 46.5215 156.376C46.5215 157.531 46.2695 158.644 45.7655 159.715C45.2825 160.786 44.4425 161.993 43.2455 163.337C42.0695 164.681 40.3475 166.414 38.0795 168.535H46.994L46.49 172H32.9765V168.755C35.6225 166.109 37.5335 164.135 38.7095 162.833C39.8855 161.531 40.715 160.429 41.198 159.526C41.681 158.623 41.9225 157.699 41.9225 156.754C41.9225 155.851 41.66 155.137 41.135 154.612C40.61 154.087 39.9065 153.824 39.0245 153.824C38.2475 153.824 37.5545 154.003 36.9455 154.36C36.3365 154.696 35.696 155.263 35.024 156.061L32.3465 153.919C34.1525 151.546 36.515 150.359 39.434 150.359ZM61.9206 164.975C62.2146 166.424 62.7501 167.485 63.5271 168.157C64.3251 168.829 65.3856 169.165 66.7086 169.165C68.1156 169.165 69.6276 168.724 71.2446 167.842V171.307C70.3836 171.706 69.5646 172 68.7876 172.189C68.0106 172.399 67.1601 172.504 66.2361 172.504C63.8631 172.504 61.9101 171.853 60.3771 170.551C58.8651 169.228 57.8676 167.369 57.3846 164.975H54.6441L55.2741 162.55H57.2586V160.187H54.6441L55.2741 157.73H57.4161C58.0041 155.441 59.0961 153.646 60.6921 152.344C62.3091 151.021 64.2096 150.359 66.3936 150.359C68.5776 150.359 70.5516 150.958 72.3156 152.155L70.7091 154.927C70.0371 154.486 69.3756 154.171 68.7246 153.982C68.0736 153.772 67.3491 153.667 66.5511 153.667C65.4591 153.667 64.5246 154.003 63.7476 154.675C62.9706 155.347 62.3931 156.365 62.0151 157.73H69.7326L69.1026 160.187H61.7946V162.55H68.5986L68.0001 164.975H61.9206Z" fill="#FFE80D"/>
<path d="M80.0494 166.5V165.307L83.7408 161.482C84.1349 161.067 84.4599 160.703 84.7156 160.39C84.9748 160.074 85.1683 159.774 85.2962 159.49C85.424 159.206 85.4879 158.904 85.4879 158.585C85.4879 158.222 85.4027 157.91 85.2322 157.647C85.0618 157.381 84.8292 157.176 84.5344 157.034C84.2397 156.889 83.9077 156.816 83.5384 156.816C83.1477 156.816 82.8068 156.896 82.5156 157.056C82.2244 157.216 82.0007 157.441 81.8445 157.732C81.6882 158.023 81.6101 158.364 81.6101 158.755H80.0387C80.0387 158.091 80.1914 157.51 80.4968 157.013C80.8022 156.516 81.2212 156.131 81.7539 155.857C82.2866 155.58 82.892 155.442 83.5703 155.442C84.2557 155.442 84.8594 155.578 85.3814 155.852C85.907 156.122 86.3171 156.491 86.6119 156.96C86.9066 157.425 87.054 157.951 87.054 158.537C87.054 158.941 86.9776 159.337 86.8249 159.724C86.6758 160.112 86.4148 160.543 86.0419 161.019C85.669 161.491 85.1506 162.065 84.4865 162.739L82.3185 165.009V165.088H87.2298V166.5H80.0494ZM93.9545 163.725L93.9438 161.781H94.2208L97.4807 158.318H99.3877L95.6697 162.26H95.4193L93.9545 163.725ZM92.4896 166.5V155.591H94.0823V166.5H92.4896ZM97.6565 166.5L94.7268 162.612L95.8241 161.498L99.6114 166.5H97.6565ZM105.647 163.107V158.318H107.245V166.5H105.679V165.083H105.594C105.406 165.52 105.104 165.884 104.688 166.175C104.276 166.463 103.763 166.607 103.149 166.607C102.623 166.607 102.158 166.491 101.753 166.26C101.352 166.026 101.036 165.68 100.805 165.222C100.578 164.763 100.464 164.197 100.464 163.522V158.318H102.057V163.331C102.057 163.888 102.211 164.332 102.52 164.662C102.829 164.993 103.231 165.158 103.724 165.158C104.022 165.158 104.319 165.083 104.614 164.934C104.912 164.785 105.159 164.559 105.354 164.257C105.553 163.956 105.651 163.572 105.647 163.107ZM114.193 163.107V158.318H115.791V166.5H114.225V165.083H114.14C113.952 165.52 113.65 165.884 113.234 166.175C112.822 166.463 112.309 166.607 111.695 166.607C111.169 166.607 110.704 166.491 110.299 166.26C109.898 166.026 109.582 165.68 109.351 165.222C109.124 164.763 109.01 164.197 109.01 163.522V158.318H110.603V163.331C110.603 163.888 110.757 164.332 111.066 164.662C111.375 164.993 111.776 165.158 112.27 165.158C112.568 165.158 112.865 165.083 113.16 164.934C113.458 164.785 113.705 164.559 113.9 164.257C114.099 163.956 114.197 163.572 114.193 163.107ZM120.619 166.66C119.958 166.66 119.369 166.491 118.85 166.154C118.335 165.813 117.931 165.328 117.636 164.7C117.345 164.067 117.199 163.309 117.199 162.425C117.199 161.541 117.347 160.784 117.641 160.156C117.94 159.527 118.348 159.046 118.866 158.712C119.385 158.379 119.973 158.212 120.63 158.212C121.137 158.212 121.546 158.297 121.855 158.467C122.167 158.634 122.409 158.83 122.579 159.053C122.753 159.277 122.888 159.474 122.984 159.645H123.08V155.591H124.672V166.5H123.117V165.227H122.984C122.888 165.401 122.75 165.6 122.568 165.824C122.391 166.047 122.146 166.243 121.833 166.409C121.521 166.576 121.116 166.66 120.619 166.66ZM120.97 165.301C121.429 165.301 121.816 165.181 122.132 164.939C122.451 164.694 122.693 164.355 122.856 163.922C123.023 163.489 123.106 162.984 123.106 162.409C123.106 161.841 123.025 161.344 122.861 160.918C122.698 160.491 122.458 160.159 122.142 159.922C121.826 159.684 121.436 159.565 120.97 159.565C120.491 159.565 120.092 159.689 119.772 159.938C119.452 160.186 119.211 160.525 119.047 160.955C118.888 161.385 118.808 161.869 118.808 162.409C118.808 162.956 118.889 163.448 119.053 163.885C119.216 164.321 119.458 164.668 119.777 164.923C120.1 165.175 120.498 165.301 120.97 165.301Z" fill="white"/>
<rect x="142.125" y="144.125" width="105" height="33.75" rx="7.875" stroke="#E3000F" stroke-width="2.25"/>
<path d="M181.827 154.526L181.539 156.794H178.461V167H175.509V156.794H172.287V154.526H181.827ZM190.311 162.032C190.311 162.428 190.293 162.77 190.257 163.058H184.335C184.431 163.862 184.659 164.426 185.019 164.75C185.379 165.074 185.877 165.236 186.513 165.236C186.897 165.236 187.269 165.17 187.629 165.038C187.989 164.894 188.379 164.678 188.799 164.39L189.969 165.974C188.853 166.862 187.611 167.306 186.243 167.306C184.695 167.306 183.507 166.85 182.679 165.938C181.851 165.026 181.437 163.802 181.437 162.266C181.437 161.294 181.611 160.424 181.959 159.656C182.307 158.876 182.817 158.264 183.489 157.82C184.161 157.364 184.965 157.136 185.901 157.136C187.281 157.136 188.361 157.568 189.141 158.432C189.921 159.296 190.311 160.496 190.311 162.032ZM187.521 161.222C187.497 159.758 186.981 159.026 185.973 159.026C185.481 159.026 185.097 159.206 184.821 159.566C184.557 159.926 184.395 160.52 184.335 161.348H187.521V161.222ZM194.447 167.306C193.619 167.306 192.971 167.072 192.503 166.604C192.047 166.124 191.819 165.446 191.819 164.57V153.644L194.663 153.338V164.462C194.663 164.858 194.825 165.056 195.149 165.056C195.317 165.056 195.473 165.026 195.617 164.966L196.175 166.982C195.659 167.198 195.083 167.306 194.447 167.306ZM199.791 167.306C198.963 167.306 198.315 167.072 197.847 166.604C197.391 166.124 197.163 165.446 197.163 164.57V153.644L200.007 153.338V164.462C200.007 164.858 200.169 165.056 200.493 165.056C200.661 165.056 200.817 165.026 200.961 164.966L201.519 166.982C201.003 167.198 200.427 167.306 199.791 167.306ZM205.44 157.442V167H202.596V157.442H205.44ZM204 152.402C204.492 152.402 204.894 152.558 205.206 152.87C205.53 153.17 205.692 153.554 205.692 154.022C205.692 154.49 205.53 154.88 205.206 155.192C204.894 155.492 204.492 155.642 204 155.642C203.508 155.642 203.106 155.492 202.794 155.192C202.482 154.88 202.326 154.49 202.326 154.022C202.326 153.554 202.482 153.17 202.794 152.87C203.106 152.558 203.508 152.402 204 152.402ZM213.275 157.136C214.103 157.136 214.751 157.388 215.219 157.892C215.687 158.396 215.921 159.104 215.921 160.016V167H213.077V160.502C213.077 160.022 212.999 159.692 212.843 159.512C212.699 159.32 212.477 159.224 212.177 159.224C211.601 159.224 211.049 159.638 210.521 160.466V167H207.677V157.442H210.161L210.359 158.576C210.767 158.096 211.205 157.736 211.673 157.496C212.153 157.256 212.687 157.136 213.275 157.136Z" fill="#E3000F"/>
</svg>
