<svg width="300" height="320" viewBox="0 0 300 320" fill="none" xmlns="http://www.w3.org/2000/svg">
<path d="M43.644 38.972C45.694 38.972 47.4707 39.2727 48.974 39.874C50.5047 40.448 51.9123 41.3363 53.197 42.539L50.327 45.86C49.3157 45.04 48.3043 44.4387 47.293 44.056C46.2817 43.6733 45.202 43.482 44.054 43.482C42.7967 43.482 41.7853 43.7553 41.02 44.302C40.282 44.8213 39.913 45.573 39.913 46.557C39.913 47.2403 40.0633 47.8007 40.364 48.238C40.692 48.6753 41.2523 49.0853 42.045 49.468C42.8377 49.8507 44.0267 50.288 45.612 50.78C48.4273 51.682 50.532 52.8027 51.926 54.142C53.32 55.454 54.017 57.34 54.017 59.8C54.017 61.5493 53.5797 63.0937 52.705 64.433C51.8303 65.745 50.5593 66.7837 48.892 67.549C47.2247 68.287 45.2703 68.656 43.029 68.656C40.7877 68.656 38.7923 68.3007 37.043 67.59C35.2937 66.8793 33.7903 65.909 32.533 64.679L35.608 61.276C36.7013 62.2053 37.8357 62.916 39.011 63.408C40.1863 63.8727 41.471 64.105 42.865 64.105C44.341 64.105 45.5163 63.7633 46.391 63.08C47.293 62.3967 47.744 61.44 47.744 60.21C47.744 59.4447 47.58 58.816 47.252 58.324C46.9513 57.8047 46.4183 57.34 45.653 56.93C44.8877 56.52 43.7807 56.0963 42.332 55.659C39.2433 54.7023 37.0293 53.5543 35.69 52.215C34.378 50.8757 33.722 49.1263 33.722 46.967C33.722 45.3817 34.1457 43.9877 34.993 42.785C35.8403 41.555 37.0157 40.612 38.519 39.956C40.0223 39.3 41.7307 38.972 43.644 38.972ZM64.2026 39.628V68H58.1756V39.628H64.2026ZM78.8784 38.972C80.9284 38.972 82.705 39.2727 84.2084 39.874C85.739 40.448 87.1467 41.3363 88.4314 42.539L85.5614 45.86C84.55 45.04 83.5387 44.4387 82.5274 44.056C81.516 43.6733 80.4364 43.482 79.2884 43.482C78.031 43.482 77.0197 43.7553 76.2544 44.302C75.5164 44.8213 75.1474 45.573 75.1474 46.557C75.1474 47.2403 75.2977 47.8007 75.5984 48.238C75.9264 48.6753 76.4867 49.0853 77.2794 49.468C78.072 49.8507 79.261 50.288 80.8464 50.78C83.6617 51.682 85.7664 52.8027 87.1604 54.142C88.5544 55.454 89.2514 57.34 89.2514 59.8C89.2514 61.5493 88.814 63.0937 87.9394 64.433C87.0647 65.745 85.7937 66.7837 84.1264 67.549C82.459 68.287 80.5047 68.656 78.2634 68.656C76.022 68.656 74.0267 68.3007 72.2774 67.59C70.528 66.8793 69.0247 65.909 67.7674 64.679L70.8424 61.276C71.9357 62.2053 73.07 62.916 74.2454 63.408C75.4207 63.8727 76.7054 64.105 78.0994 64.105C79.5754 64.105 80.7507 63.7633 81.6254 63.08C82.5274 62.3967 82.9784 61.44 82.9784 60.21C82.9784 59.4447 82.8144 58.816 82.4864 58.324C82.1857 57.8047 81.6527 57.34 80.8874 56.93C80.122 56.52 79.015 56.0963 77.5664 55.659C74.4777 54.7023 72.2637 53.5543 70.9244 52.215C69.6124 50.8757 68.9564 49.1263 68.9564 46.967C68.9564 45.3817 69.38 43.9877 70.2274 42.785C71.0747 41.555 72.25 40.612 73.7534 39.956C75.2567 39.3 76.965 38.972 78.8784 38.972ZM114.607 58.652C114.607 60.5927 114.197 62.3147 113.377 63.818C112.557 65.3213 111.327 66.5103 109.687 67.385C108.074 68.2323 106.106 68.656 103.783 68.656C100.284 68.656 97.6057 67.754 95.747 65.95C93.9157 64.1187 93 61.686 93 58.652V39.628H99.027V58.365C99.027 60.2783 99.4097 61.7133 100.175 62.67C100.94 63.5993 102.143 64.064 103.783 64.064C105.423 64.064 106.626 63.5993 107.391 62.67C108.184 61.7133 108.58 60.2783 108.58 58.365V39.628H114.607V58.652ZM136.273 39.628V63.162H147.507L146.851 68H130.246V39.628H136.273ZM160.538 38.972C163.134 38.972 165.376 39.5597 167.262 40.735C169.148 41.883 170.596 43.564 171.608 45.778C172.619 47.992 173.125 50.6707 173.125 53.814C173.125 56.9027 172.619 59.5677 171.608 61.809C170.596 64.023 169.148 65.7177 167.262 66.893C165.376 68.0683 163.134 68.656 160.538 68.656C157.941 68.656 155.686 68.082 153.773 66.934C151.887 65.7587 150.438 64.064 149.427 61.85C148.415 59.6087 147.91 56.93 147.91 53.814C147.91 50.7527 148.415 48.115 149.427 45.901C150.465 43.6597 151.928 41.9513 153.814 40.776C155.727 39.5733 157.968 38.972 160.538 38.972ZM160.538 43.482C158.46 43.482 156.889 44.302 155.823 45.942C154.784 47.582 154.265 50.206 154.265 53.814C154.265 57.422 154.798 60.046 155.864 61.686C156.93 63.326 158.488 64.146 160.538 64.146C162.615 64.146 164.173 63.3397 165.212 61.727C166.25 60.087 166.77 57.4493 166.77 53.814C166.77 50.1787 166.25 47.5547 165.212 45.942C164.173 44.302 162.615 43.482 160.538 43.482ZM194.625 39.628L193.969 44.015H183.719V51.395H192.657V55.741H183.719V63.572H194.707V68H177.692V39.628H194.625ZM213.867 52.994C215.781 53.3493 217.325 54.0463 218.5 55.085C219.703 56.0963 220.304 57.6543 220.304 59.759C220.304 62.7383 219.238 64.8567 217.106 66.114C214.974 67.3713 212.009 68 208.209 68H199.353V39.628H207.102C210.984 39.628 213.949 40.202 215.999 41.35C218.049 42.498 219.074 44.343 219.074 46.885C219.074 48.5523 218.569 49.9053 217.557 50.944C216.573 51.9553 215.343 52.6387 213.867 52.994ZM205.38 43.974V51.149H208.332C209.808 51.149 210.943 50.8483 211.735 50.247C212.528 49.6183 212.924 48.6753 212.924 47.418C212.924 46.1607 212.501 45.2723 211.653 44.753C210.806 44.2337 209.48 43.974 207.676 43.974H205.38ZM208.25 63.531C210.136 63.531 211.571 63.2577 212.555 62.711C213.539 62.137 214.031 61.071 214.031 59.513C214.031 56.6703 212.282 55.249 208.783 55.249H205.38V63.531H208.25ZM229.58 39.628L228.883 57.791H224.127L223.348 39.628H229.58ZM226.505 61.645C227.489 61.645 228.323 61.9867 229.006 62.67C229.689 63.3533 230.031 64.1733 230.031 65.13C230.031 66.0867 229.689 66.9203 229.006 67.631C228.323 68.3143 227.489 68.656 226.505 68.656C225.548 68.656 224.728 68.3143 224.045 67.631C223.362 66.9203 223.02 66.0867 223.02 65.13C223.02 64.1733 223.362 63.3533 224.045 62.67C224.728 61.9867 225.548 61.645 226.505 61.645Z" fill="#FFE80D"/>
<path d="M38.2007 87.9141V100H36.1338V87.9141H38.2007ZM41.9941 87.9141V89.5742H32.3735V87.9141H41.9941ZM46.5513 100.166C45.8872 100.166 45.2868 100.058 44.75 99.8423C44.2188 99.6209 43.765 99.3138 43.3887 98.9209C43.0179 98.528 42.7329 98.0659 42.5337 97.5347C42.3345 97.0034 42.2349 96.4307 42.2349 95.8164V95.4844C42.2349 94.7816 42.3372 94.1452 42.542 93.5752C42.7467 93.0052 43.0317 92.5182 43.397 92.1143C43.7622 91.7048 44.1938 91.3921 44.6919 91.1763C45.1899 90.9604 45.7295 90.8525 46.3105 90.8525C46.9525 90.8525 47.5142 90.9604 47.9956 91.1763C48.4771 91.3921 48.8755 91.6965 49.1909 92.0894C49.5119 92.4767 49.7498 92.9388 49.9048 93.4756C50.0653 94.0124 50.1455 94.6045 50.1455 95.252V96.1069H43.2061V94.6709H48.1699V94.5132C48.1589 94.1535 48.0869 93.8159 47.9541 93.5005C47.8268 93.1851 47.6304 92.9305 47.3647 92.7368C47.0991 92.5431 46.745 92.4463 46.3022 92.4463C45.9702 92.4463 45.6742 92.5182 45.4141 92.6621C45.1595 92.8005 44.9465 93.0024 44.7749 93.2681C44.6034 93.5337 44.4705 93.8547 44.3765 94.231C44.2879 94.6017 44.2437 95.0195 44.2437 95.4844V95.8164C44.2437 96.2093 44.2962 96.5745 44.4014 96.9121C44.512 97.2441 44.6725 97.5347 44.8828 97.7837C45.0931 98.0327 45.3477 98.2292 45.6465 98.373C45.9453 98.5114 46.2856 98.5806 46.6675 98.5806C47.1489 98.5806 47.5778 98.4837 47.9541 98.29C48.3304 98.0964 48.6569 97.8224 48.9336 97.4683L49.9878 98.4893C49.7941 98.7715 49.5423 99.0426 49.2324 99.3027C48.9225 99.5573 48.5435 99.7648 48.0952 99.9253C47.6525 100.086 47.1379 100.166 46.5513 100.166ZM53.8477 87.25V100H51.8389V87.25H53.8477ZM58.1807 87.25V100H56.1719V87.25H58.1807ZM62.5137 91.0186V100H60.5049V91.0186H62.5137ZM60.3721 88.6611C60.3721 88.3568 60.4717 88.105 60.6709 87.9058C60.8757 87.701 61.1579 87.5986 61.5176 87.5986C61.8717 87.5986 62.1512 87.701 62.356 87.9058C62.5607 88.105 62.6631 88.3568 62.6631 88.6611C62.6631 88.96 62.5607 89.209 62.356 89.4082C62.1512 89.6074 61.8717 89.707 61.5176 89.707C61.1579 89.707 60.8757 89.6074 60.6709 89.4082C60.4717 89.209 60.3721 88.96 60.3721 88.6611ZM78.7749 93.625V94.2891C78.7749 95.2021 78.6559 96.0212 78.418 96.7461C78.18 97.471 77.8397 98.0881 77.397 98.5972C76.9598 99.1063 76.4341 99.4964 75.8198 99.7676C75.2056 100.033 74.5249 100.166 73.7778 100.166C73.0363 100.166 72.3584 100.033 71.7441 99.7676C71.1354 99.4964 70.6069 99.1063 70.1587 98.5972C69.7104 98.0881 69.3618 97.471 69.1128 96.7461C68.8693 96.0212 68.7476 95.2021 68.7476 94.2891V93.625C68.7476 92.7119 68.8693 91.8957 69.1128 91.1763C69.3563 90.4513 69.6994 89.8343 70.1421 89.3252C70.5903 88.8105 71.1188 88.4204 71.7275 88.1548C72.3418 87.8836 73.0197 87.748 73.7612 87.748C74.5083 87.748 75.189 87.8836 75.8032 88.1548C76.4175 88.4204 76.946 88.8105 77.3887 89.3252C77.8314 89.8343 78.1717 90.4513 78.4097 91.1763C78.6532 91.8957 78.7749 92.7119 78.7749 93.625ZM76.6914 94.2891V93.6084C76.6914 92.9333 76.625 92.3384 76.4922 91.8237C76.3649 91.3035 76.174 90.8691 75.9194 90.5205C75.6704 90.1663 75.3633 89.9007 74.998 89.7236C74.6328 89.541 74.2205 89.4497 73.7612 89.4497C73.3019 89.4497 72.8924 89.541 72.5327 89.7236C72.173 89.9007 71.8659 90.1663 71.6113 90.5205C71.3623 90.8691 71.1714 91.3035 71.0386 91.8237C70.9058 92.3384 70.8394 92.9333 70.8394 93.6084V94.2891C70.8394 94.9642 70.9058 95.5618 71.0386 96.082C71.1714 96.6022 71.3651 97.0422 71.6196 97.4019C71.8797 97.756 72.1896 98.0244 72.5493 98.207C72.909 98.3841 73.3185 98.4727 73.7778 98.4727C74.2427 98.4727 74.6549 98.3841 75.0146 98.207C75.3743 98.0244 75.6787 97.756 75.9277 97.4019C76.1768 97.0422 76.3649 96.6022 76.4922 96.082C76.625 95.5618 76.6914 94.9642 76.6914 94.2891ZM75.5874 84.7598L76.8076 84.8511C76.8076 85.255 76.7274 85.6175 76.5669 85.9385C76.4064 86.2539 76.1878 86.5029 75.9111 86.6855C75.6344 86.8682 75.3218 86.9595 74.9731 86.9595C74.702 86.9595 74.4723 86.9207 74.2842 86.8433C74.096 86.7658 73.9245 86.6772 73.7695 86.5776C73.6146 86.478 73.4541 86.3923 73.2881 86.3203C73.1276 86.2428 72.9367 86.2041 72.7153 86.2041C72.505 86.2041 72.3252 86.2816 72.1758 86.4365C72.0319 86.5915 71.96 86.799 71.96 87.0591L70.7314 86.9927C70.7314 86.5942 70.8117 86.2345 70.9722 85.9136C71.1326 85.5926 71.3512 85.3381 71.6279 85.1499C71.9046 84.9618 72.2173 84.8677 72.5659 84.8677C72.7928 84.8677 72.9976 84.9064 73.1802 84.9839C73.3683 85.0558 73.5454 85.1416 73.7114 85.2412C73.883 85.3408 74.0573 85.4294 74.2344 85.5068C74.4115 85.5843 74.6079 85.623 74.8237 85.623C75.034 85.623 75.2139 85.5428 75.3633 85.3823C75.5127 85.2218 75.5874 85.0143 75.5874 84.7598ZM82.6348 87.25V100H80.6426V87.25H82.6348ZM82.2861 95.1772L81.6387 95.1689C81.6442 94.5492 81.73 93.9764 81.896 93.4507C82.0675 92.925 82.3055 92.4684 82.6099 92.0811C82.9198 91.6882 83.2905 91.3866 83.7222 91.1763C84.1538 90.9604 84.6325 90.8525 85.1582 90.8525C85.6009 90.8525 85.9993 90.9134 86.3535 91.0352C86.7132 91.1569 87.0231 91.3534 87.2832 91.6245C87.5433 91.8901 87.7397 92.2388 87.8726 92.6704C88.0109 93.0965 88.0801 93.6167 88.0801 94.231V100H86.0713V94.2144C86.0713 93.7827 86.0076 93.4396 85.8804 93.1851C85.7586 92.9305 85.5788 92.7479 85.3408 92.6372C85.1029 92.521 84.8123 92.4629 84.4692 92.4629C84.1095 92.4629 83.7913 92.5348 83.5146 92.6787C83.2435 92.8226 83.0166 93.019 82.834 93.2681C82.6514 93.5171 82.513 93.8049 82.4189 94.1313C82.3304 94.4578 82.2861 94.8065 82.2861 95.1772ZM94.2227 91.0186V92.4795H89.1592V91.0186H94.2227ZM90.6201 88.8188H92.6206V97.5181C92.6206 97.7948 92.6593 98.0078 92.7368 98.1572C92.8198 98.3011 92.9333 98.3979 93.0771 98.4478C93.221 98.4976 93.3898 98.5225 93.5835 98.5225C93.7218 98.5225 93.8547 98.5142 93.9819 98.4976C94.1092 98.481 94.2116 98.4644 94.2891 98.4478L94.2974 99.9751C94.1313 100.025 93.9377 100.069 93.7163 100.108C93.5005 100.147 93.2515 100.166 92.9692 100.166C92.5099 100.166 92.1032 100.086 91.749 99.9253C91.3949 99.7593 91.1182 99.4909 90.9189 99.1201C90.7197 98.7493 90.6201 98.2568 90.6201 97.6426V88.8188ZM101.17 97.8833V91.0186H103.179V100H101.287L101.17 97.8833ZM101.453 96.0156L102.125 95.999C102.125 96.6022 102.059 97.1584 101.926 97.6675C101.793 98.1711 101.588 98.611 101.312 98.9873C101.035 99.3581 100.681 99.6486 100.249 99.8589C99.8174 100.064 99.3 100.166 98.6968 100.166C98.2596 100.166 97.8584 100.102 97.4932 99.9751C97.1279 99.8478 96.8125 99.6514 96.5469 99.3857C96.2868 99.1201 96.0848 98.7743 95.9409 98.3481C95.797 97.922 95.7251 97.4129 95.7251 96.8208V91.0186H97.7256V96.8374C97.7256 97.1639 97.7643 97.4378 97.8418 97.6592C97.9193 97.875 98.0244 98.0493 98.1572 98.1821C98.29 98.3149 98.445 98.409 98.6221 98.4644C98.7992 98.5197 98.9873 98.5474 99.1865 98.5474C99.7565 98.5474 100.205 98.4367 100.531 98.2153C100.863 97.9884 101.098 97.6841 101.237 97.3022C101.381 96.9204 101.453 96.4915 101.453 96.0156ZM107.371 87.25V100H105.362V87.25H107.371ZM113.522 100.166C112.858 100.166 112.257 100.058 111.721 99.8423C111.189 99.6209 110.736 99.3138 110.359 98.9209C109.989 98.528 109.704 98.0659 109.504 97.5347C109.305 97.0034 109.206 96.4307 109.206 95.8164V95.4844C109.206 94.7816 109.308 94.1452 109.513 93.5752C109.717 93.0052 110.002 92.5182 110.368 92.1143C110.733 91.7048 111.165 91.3921 111.663 91.1763C112.161 90.9604 112.7 90.8525 113.281 90.8525C113.923 90.8525 114.485 90.9604 114.966 91.1763C115.448 91.3921 115.846 91.6965 116.162 92.0894C116.483 92.4767 116.721 92.9388 116.875 93.4756C117.036 94.0124 117.116 94.6045 117.116 95.252V96.1069H110.177V94.6709H115.141V94.5132C115.13 94.1535 115.058 93.8159 114.925 93.5005C114.798 93.1851 114.601 92.9305 114.335 92.7368C114.07 92.5431 113.716 92.4463 113.273 92.4463C112.941 92.4463 112.645 92.5182 112.385 92.6621C112.13 92.8005 111.917 93.0024 111.746 93.2681C111.574 93.5337 111.441 93.8547 111.347 94.231C111.259 94.6017 111.214 95.0195 111.214 95.4844V95.8164C111.214 96.2093 111.267 96.5745 111.372 96.9121C111.483 97.2441 111.643 97.5347 111.854 97.7837C112.064 98.0327 112.318 98.2292 112.617 98.373C112.916 98.5114 113.256 98.5806 113.638 98.5806C114.12 98.5806 114.549 98.4837 114.925 98.29C115.301 98.0964 115.628 97.8224 115.904 97.4683L116.958 98.4893C116.765 98.7715 116.513 99.0426 116.203 99.3027C115.893 99.5573 115.514 99.7648 115.066 99.9253C114.623 100.086 114.109 100.166 113.522 100.166ZM120.652 87.25V100H118.66V87.25H120.652ZM120.304 95.1772L119.656 95.1689C119.662 94.5492 119.748 93.9764 119.914 93.4507C120.085 92.925 120.323 92.4684 120.627 92.0811C120.937 91.6882 121.308 91.3866 121.74 91.1763C122.171 90.9604 122.65 90.8525 123.176 90.8525C123.618 90.8525 124.017 90.9134 124.371 91.0352C124.731 91.1569 125.041 91.3534 125.301 91.6245C125.561 91.8901 125.757 92.2388 125.89 92.6704C126.028 93.0965 126.098 93.6167 126.098 94.231V100H124.089V94.2144C124.089 93.7827 124.025 93.4396 123.898 93.1851C123.776 92.9305 123.596 92.7479 123.358 92.6372C123.12 92.521 122.83 92.4629 122.487 92.4629C122.127 92.4629 121.809 92.5348 121.532 92.6787C121.261 92.8226 121.034 93.019 120.852 93.2681C120.669 93.5171 120.531 93.8049 120.437 94.1313C120.348 94.4578 120.304 94.8065 120.304 95.1772ZM132.24 91.0186V92.4795H127.177V91.0186H132.24ZM128.638 88.8188H130.638V97.5181C130.638 97.7948 130.677 98.0078 130.754 98.1572C130.837 98.3011 130.951 98.3979 131.095 98.4478C131.239 98.4976 131.407 98.5225 131.601 98.5225C131.739 98.5225 131.872 98.5142 132 98.4976C132.127 98.481 132.229 98.4644 132.307 98.4478L132.315 99.9751C132.149 100.025 131.955 100.069 131.734 100.108C131.518 100.147 131.269 100.166 130.987 100.166C130.528 100.166 130.121 100.086 129.767 99.9253C129.412 99.7593 129.136 99.4909 128.937 99.1201C128.737 98.7493 128.638 98.2568 128.638 97.6426V88.8188ZM140.3 87.9141V100H138.217V87.9141H140.3ZM147.563 87.9141L142.666 93.7329L139.877 96.688L139.512 94.6211L141.504 92.1641L145.023 87.9141H147.563ZM145.322 100L141.346 94.2725L142.782 92.853L147.796 100H145.322ZM150.9 91.0186V100H148.892V91.0186H150.9ZM148.759 88.6611C148.759 88.3568 148.858 88.105 149.058 87.9058C149.262 87.701 149.545 87.5986 149.904 87.5986C150.258 87.5986 150.538 87.701 150.743 87.9058C150.947 88.105 151.05 88.3568 151.05 88.6611C151.05 88.96 150.947 89.209 150.743 89.4082C150.538 89.6074 150.258 89.707 149.904 89.707C149.545 89.707 149.262 89.6074 149.058 89.4082C148.858 89.209 148.759 88.96 148.759 88.6611ZM155.101 92.7285V100H153.1V91.0186H155.009L155.101 92.7285ZM157.848 90.9604L157.832 92.8198C157.71 92.7977 157.577 92.7811 157.433 92.77C157.295 92.759 157.156 92.7534 157.018 92.7534C156.675 92.7534 156.373 92.8032 156.113 92.9028C155.853 92.9969 155.635 93.1353 155.458 93.3179C155.286 93.495 155.153 93.7108 155.059 93.9653C154.965 94.2199 154.91 94.5049 154.893 94.8203L154.437 94.8535C154.437 94.2891 154.492 93.7661 154.603 93.2847C154.713 92.8032 154.879 92.3799 155.101 92.0146C155.327 91.6494 155.61 91.3644 155.947 91.1597C156.29 90.9549 156.686 90.8525 157.134 90.8525C157.256 90.8525 157.386 90.8636 157.524 90.8857C157.668 90.9079 157.776 90.9328 157.848 90.9604ZM159.201 91.0186H161.21V100.78C161.21 101.395 161.105 101.912 160.895 102.333C160.684 102.759 160.374 103.08 159.965 103.295C159.555 103.517 159.055 103.627 158.462 103.627C158.285 103.627 158.103 103.614 157.915 103.586C157.721 103.564 157.538 103.531 157.367 103.486L157.375 101.926C157.491 101.948 157.616 101.965 157.749 101.976C157.876 101.992 157.998 102 158.114 102C158.352 102 158.551 101.959 158.711 101.876C158.872 101.793 158.994 101.663 159.077 101.486C159.16 101.309 159.201 101.074 159.201 100.78V91.0186ZM159.027 88.6611C159.027 88.3568 159.129 88.105 159.334 87.9058C159.539 87.701 159.818 87.5986 160.172 87.5986C160.532 87.5986 160.812 87.701 161.011 87.9058C161.215 88.105 161.318 88.3568 161.318 88.6611C161.318 88.96 161.215 89.209 161.011 89.4082C160.812 89.6074 160.532 89.707 160.172 89.707C159.818 89.707 159.539 89.6074 159.334 89.4082C159.129 89.209 159.027 88.96 159.027 88.6611ZM168.432 98.1987V93.9155C168.432 93.5946 168.374 93.3179 168.257 93.0854C168.141 92.853 167.964 92.6732 167.726 92.5459C167.494 92.4186 167.2 92.355 166.846 92.355C166.52 92.355 166.237 92.4103 166 92.521C165.762 92.6317 165.576 92.7811 165.443 92.9692C165.311 93.1574 165.244 93.3704 165.244 93.6084H163.252C163.252 93.2542 163.338 92.9111 163.509 92.5791C163.681 92.2471 163.93 91.951 164.256 91.6909C164.583 91.4308 164.973 91.2261 165.427 91.0767C165.881 90.9272 166.39 90.8525 166.954 90.8525C167.629 90.8525 168.227 90.966 168.747 91.1929C169.273 91.4198 169.685 91.7629 169.984 92.2222C170.288 92.6759 170.44 93.2459 170.44 93.9321V97.9248C170.44 98.3343 170.468 98.7023 170.523 99.0288C170.584 99.3498 170.67 99.6292 170.781 99.8672V100H168.73C168.636 99.7842 168.562 99.5103 168.506 99.1782C168.457 98.8407 168.432 98.5142 168.432 98.1987ZM168.722 94.5381L168.739 95.7749H167.303C166.932 95.7749 166.605 95.8109 166.323 95.8828C166.041 95.9492 165.806 96.0488 165.618 96.1816C165.43 96.3145 165.288 96.4749 165.194 96.6631C165.1 96.8512 165.053 97.0643 165.053 97.3022C165.053 97.5402 165.109 97.7588 165.219 97.958C165.33 98.1517 165.49 98.3039 165.701 98.4146C165.917 98.5252 166.177 98.5806 166.481 98.5806C166.89 98.5806 167.247 98.4976 167.552 98.3315C167.862 98.16 168.105 97.9525 168.282 97.709C168.459 97.46 168.553 97.2248 168.564 97.0034L169.212 97.8916C169.146 98.1185 169.032 98.362 168.872 98.6221C168.711 98.8822 168.501 99.1312 168.241 99.3691C167.986 99.6016 167.679 99.7925 167.319 99.9419C166.965 100.091 166.556 100.166 166.091 100.166C165.504 100.166 164.981 100.05 164.522 99.8174C164.063 99.5794 163.703 99.2612 163.443 98.8628C163.183 98.4588 163.053 98.0023 163.053 97.4932C163.053 97.0173 163.141 96.5967 163.318 96.2314C163.501 95.8607 163.767 95.5508 164.115 95.3018C164.469 95.0527 164.901 94.8646 165.41 94.7373C165.919 94.6045 166.5 94.5381 167.153 94.5381H168.722ZM177.571 97.5679C177.571 97.3687 177.521 97.1888 177.421 97.0283C177.322 96.8623 177.131 96.7129 176.849 96.5801C176.572 96.4473 176.162 96.3255 175.62 96.2148C175.144 96.1097 174.707 95.9852 174.309 95.8413C173.916 95.6919 173.578 95.512 173.296 95.3018C173.014 95.0915 172.795 94.8424 172.64 94.5547C172.485 94.2669 172.408 93.9349 172.408 93.5586C172.408 93.1934 172.488 92.8475 172.648 92.521C172.809 92.1945 173.039 91.9067 173.337 91.6577C173.636 91.4087 173.999 91.2122 174.425 91.0684C174.856 90.9245 175.338 90.8525 175.869 90.8525C176.622 90.8525 177.266 90.9798 177.803 91.2344C178.346 91.4834 178.761 91.8237 179.048 92.2554C179.336 92.6815 179.48 93.1629 179.48 93.6997H177.479C177.479 93.4618 177.419 93.2404 177.297 93.0356C177.181 92.8254 177.004 92.6566 176.766 92.5293C176.528 92.3965 176.229 92.3301 175.869 92.3301C175.526 92.3301 175.241 92.3854 175.014 92.4961C174.793 92.6012 174.627 92.7396 174.516 92.9111C174.411 93.0827 174.358 93.2708 174.358 93.4756C174.358 93.625 174.386 93.7606 174.441 93.8823C174.502 93.9985 174.602 94.1064 174.74 94.2061C174.879 94.3001 175.067 94.3887 175.305 94.4717C175.548 94.5547 175.853 94.6349 176.218 94.7124C176.904 94.8563 177.493 95.0417 177.986 95.2686C178.484 95.4899 178.866 95.7777 179.131 96.1318C179.397 96.4805 179.53 96.9232 179.53 97.46C179.53 97.8584 179.444 98.2236 179.272 98.5557C179.106 98.8822 178.863 99.1672 178.542 99.4106C178.221 99.6486 177.836 99.834 177.388 99.9668C176.945 100.1 176.447 100.166 175.894 100.166C175.081 100.166 174.392 100.022 173.827 99.7344C173.263 99.4411 172.834 99.0675 172.541 98.6138C172.253 98.1545 172.109 97.6785 172.109 97.186H174.043C174.065 97.5568 174.167 97.8529 174.35 98.0742C174.538 98.29 174.771 98.4478 175.047 98.5474C175.33 98.6414 175.62 98.6885 175.919 98.6885C176.279 98.6885 176.58 98.6414 176.824 98.5474C177.067 98.4478 177.253 98.3149 177.38 98.1489C177.507 97.9774 177.571 97.7837 177.571 97.5679ZM185.398 91.0186V92.4795H180.335V91.0186H185.398ZM181.796 88.8188H183.796V97.5181C183.796 97.7948 183.835 98.0078 183.913 98.1572C183.996 98.3011 184.109 98.3979 184.253 98.4478C184.397 98.4976 184.566 98.5225 184.759 98.5225C184.898 98.5225 185.03 98.5142 185.158 98.4976C185.285 98.481 185.387 98.4644 185.465 98.4478L185.473 99.9751C185.307 100.025 185.113 100.069 184.892 100.108C184.676 100.147 184.427 100.166 184.145 100.166C183.686 100.166 183.279 100.086 182.925 99.9253C182.571 99.7593 182.294 99.4909 182.095 99.1201C181.896 98.7493 181.796 98.2568 181.796 97.6426V88.8188ZM192.346 97.8833V91.0186H194.355V100H192.462L192.346 97.8833ZM192.628 96.0156L193.301 95.999C193.301 96.6022 193.234 97.1584 193.102 97.6675C192.969 98.1711 192.764 98.611 192.487 98.9873C192.211 99.3581 191.856 99.6486 191.425 99.8589C190.993 100.064 190.476 100.166 189.873 100.166C189.435 100.166 189.034 100.102 188.669 99.9751C188.304 99.8478 187.988 99.6514 187.723 99.3857C187.463 99.1201 187.261 98.7743 187.117 98.3481C186.973 97.922 186.901 97.4129 186.901 96.8208V91.0186H188.901V96.8374C188.901 97.1639 188.94 97.4378 189.018 97.6592C189.095 97.875 189.2 98.0493 189.333 98.1821C189.466 98.3149 189.621 98.409 189.798 98.4644C189.975 98.5197 190.163 98.5474 190.362 98.5474C190.932 98.5474 191.381 98.4367 191.707 98.2153C192.039 97.9884 192.274 97.6841 192.413 97.3022C192.556 96.9204 192.628 96.4915 192.628 96.0156ZM201.444 97.5679C201.444 97.3687 201.394 97.1888 201.294 97.0283C201.195 96.8623 201.004 96.7129 200.722 96.5801C200.445 96.4473 200.035 96.3255 199.493 96.2148C199.017 96.1097 198.58 95.9852 198.182 95.8413C197.789 95.6919 197.451 95.512 197.169 95.3018C196.887 95.0915 196.668 94.8424 196.513 94.5547C196.358 94.2669 196.281 93.9349 196.281 93.5586C196.281 93.1934 196.361 92.8475 196.521 92.521C196.682 92.1945 196.912 91.9067 197.21 91.6577C197.509 91.4087 197.872 91.2122 198.298 91.0684C198.729 90.9245 199.211 90.8525 199.742 90.8525C200.495 90.8525 201.139 90.9798 201.676 91.2344C202.219 91.4834 202.634 91.8237 202.921 92.2554C203.209 92.6815 203.353 93.1629 203.353 93.6997H201.353C201.353 93.4618 201.292 93.2404 201.17 93.0356C201.054 92.8254 200.877 92.6566 200.639 92.5293C200.401 92.3965 200.102 92.3301 199.742 92.3301C199.399 92.3301 199.114 92.3854 198.887 92.4961C198.666 92.6012 198.5 92.7396 198.389 92.9111C198.284 93.0827 198.231 93.2708 198.231 93.4756C198.231 93.625 198.259 93.7606 198.314 93.8823C198.375 93.9985 198.475 94.1064 198.613 94.2061C198.752 94.3001 198.94 94.3887 199.178 94.4717C199.421 94.5547 199.726 94.6349 200.091 94.7124C200.777 94.8563 201.366 95.0417 201.859 95.2686C202.357 95.4899 202.739 95.7777 203.004 96.1318C203.27 96.4805 203.403 96.9232 203.403 97.46C203.403 97.8584 203.317 98.2236 203.146 98.5557C202.979 98.8822 202.736 99.1672 202.415 99.4106C202.094 99.6486 201.709 99.834 201.261 99.9668C200.819 100.1 200.32 100.166 199.767 100.166C198.954 100.166 198.265 100.022 197.7 99.7344C197.136 99.4411 196.707 99.0675 196.414 98.6138C196.126 98.1545 195.982 97.6785 195.982 97.186H197.916C197.938 97.5568 198.041 97.8529 198.223 98.0742C198.411 98.29 198.644 98.4478 198.92 98.5474C199.203 98.6414 199.493 98.6885 199.792 98.6885C200.152 98.6885 200.453 98.6414 200.697 98.5474C200.94 98.4478 201.126 98.3149 201.253 98.1489C201.38 97.9774 201.444 97.7837 201.444 97.5679ZM209.114 100.166C208.45 100.166 207.849 100.058 207.312 99.8423C206.781 99.6209 206.327 99.3138 205.951 98.9209C205.58 98.528 205.295 98.0659 205.096 97.5347C204.897 97.0034 204.797 96.4307 204.797 95.8164V95.4844C204.797 94.7816 204.9 94.1452 205.104 93.5752C205.309 93.0052 205.594 92.5182 205.959 92.1143C206.325 91.7048 206.756 91.3921 207.254 91.1763C207.752 90.9604 208.292 90.8525 208.873 90.8525C209.515 90.8525 210.077 90.9604 210.558 91.1763C211.04 91.3921 211.438 91.6965 211.753 92.0894C212.074 92.4767 212.312 92.9388 212.467 93.4756C212.628 94.0124 212.708 94.6045 212.708 95.252V96.1069H205.769V94.6709H210.732V94.5132C210.721 94.1535 210.649 93.8159 210.517 93.5005C210.389 93.1851 210.193 92.9305 209.927 92.7368C209.662 92.5431 209.307 92.4463 208.865 92.4463C208.533 92.4463 208.237 92.5182 207.977 92.6621C207.722 92.8005 207.509 93.0024 207.337 93.2681C207.166 93.5337 207.033 93.8547 206.939 94.231C206.85 94.6017 206.806 95.0195 206.806 95.4844V95.8164C206.806 96.2093 206.859 96.5745 206.964 96.9121C207.075 97.2441 207.235 97.5347 207.445 97.7837C207.656 98.0327 207.91 98.2292 208.209 98.373C208.508 98.5114 208.848 98.5806 209.23 98.5806C209.711 98.5806 210.14 98.4837 210.517 98.29C210.893 98.0964 211.219 97.8224 211.496 97.4683L212.55 98.4893C212.357 98.7715 212.105 99.0426 211.795 99.3027C211.485 99.5573 211.106 99.7648 210.658 99.9253C210.215 100.086 209.7 100.166 209.114 100.166ZM38.5078 119.141V108.25H40.5166V121H38.6987L38.5078 119.141ZM32.6641 116.609V116.435C32.6641 115.754 32.7443 115.134 32.9048 114.575C33.0653 114.011 33.2977 113.527 33.6021 113.123C33.9064 112.713 34.2772 112.4 34.7144 112.185C35.1515 111.963 35.644 111.853 36.1919 111.853C36.7342 111.853 37.2101 111.958 37.6196 112.168C38.0291 112.378 38.3778 112.68 38.6655 113.073C38.9533 113.46 39.1829 113.925 39.3545 114.467C39.526 115.004 39.6478 115.602 39.7197 116.26V116.816C39.6478 117.458 39.526 118.045 39.3545 118.576C39.1829 119.107 38.9533 119.567 38.6655 119.954C38.3778 120.341 38.0264 120.64 37.6113 120.851C37.2018 121.061 36.7231 121.166 36.1753 121.166C35.633 121.166 35.1432 121.053 34.7061 120.826C34.2744 120.599 33.9064 120.281 33.6021 119.871C33.2977 119.462 33.0653 118.98 32.9048 118.427C32.7443 117.868 32.6641 117.262 32.6641 116.609ZM34.6646 116.435V116.609C34.6646 117.018 34.7005 117.4 34.7725 117.754C34.8499 118.109 34.9689 118.421 35.1294 118.692C35.2899 118.958 35.4974 119.168 35.752 119.323C36.012 119.473 36.3219 119.547 36.6816 119.547C37.1354 119.547 37.509 119.448 37.8022 119.249C38.0955 119.049 38.3252 118.781 38.4912 118.443C38.6628 118.1 38.779 117.718 38.8398 117.298V115.795C38.8066 115.469 38.7375 115.165 38.6323 114.882C38.5327 114.6 38.3971 114.354 38.2256 114.144C38.054 113.928 37.841 113.762 37.5864 113.646C37.3374 113.524 37.0413 113.463 36.6982 113.463C36.333 113.463 36.0231 113.54 35.7686 113.695C35.514 113.85 35.3037 114.063 35.1377 114.334C34.9772 114.606 34.8582 114.921 34.7808 115.281C34.7033 115.64 34.6646 116.025 34.6646 116.435ZM44.75 112.019V121H42.7412V112.019H44.75ZM42.6084 109.661C42.6084 109.357 42.708 109.105 42.9072 108.906C43.112 108.701 43.3942 108.599 43.7539 108.599C44.1081 108.599 44.3875 108.701 44.5923 108.906C44.797 109.105 44.8994 109.357 44.8994 109.661C44.8994 109.96 44.797 110.209 44.5923 110.408C44.3875 110.607 44.1081 110.707 43.7539 110.707C43.3942 110.707 43.112 110.607 42.9072 110.408C42.708 110.209 42.6084 109.96 42.6084 109.661ZM52.6938 112.019H54.5117V120.751C54.5117 121.559 54.3402 122.245 53.9971 122.81C53.654 123.374 53.1753 123.803 52.561 124.096C51.9468 124.395 51.2357 124.544 50.4277 124.544C50.0846 124.544 49.7028 124.495 49.2822 124.395C48.8672 124.295 48.4632 124.135 48.0703 123.914C47.6829 123.698 47.3592 123.413 47.0991 123.059L48.0371 121.88C48.3581 122.262 48.7122 122.541 49.0996 122.718C49.487 122.895 49.8937 122.984 50.3198 122.984C50.7791 122.984 51.1693 122.898 51.4902 122.727C51.8167 122.561 52.0685 122.314 52.2456 121.988C52.4227 121.661 52.5112 121.263 52.5112 120.792V114.052L52.6938 112.019ZM46.5928 116.609V116.435C46.5928 115.754 46.6758 115.134 46.8418 114.575C47.0078 114.011 47.2458 113.527 47.5557 113.123C47.8656 112.713 48.2419 112.4 48.6846 112.185C49.1273 111.963 49.6281 111.853 50.187 111.853C50.7681 111.853 51.2633 111.958 51.6729 112.168C52.0879 112.378 52.4338 112.68 52.7104 113.073C52.9871 113.46 53.203 113.925 53.3579 114.467C53.5184 115.004 53.6374 115.602 53.7148 116.26V116.816C53.6429 117.458 53.5212 118.045 53.3496 118.576C53.1781 119.107 52.9512 119.567 52.6689 119.954C52.3867 120.341 52.0381 120.64 51.623 120.851C51.2135 121.061 50.7293 121.166 50.1704 121.166C49.6226 121.166 49.1273 121.053 48.6846 120.826C48.2474 120.599 47.8711 120.281 47.5557 119.871C47.2458 119.462 47.0078 118.98 46.8418 118.427C46.6758 117.868 46.5928 117.262 46.5928 116.609ZM48.5933 116.435V116.609C48.5933 117.018 48.632 117.4 48.7095 117.754C48.7925 118.109 48.917 118.421 49.083 118.692C49.2546 118.958 49.4704 119.168 49.7305 119.323C49.9961 119.473 50.3088 119.547 50.6685 119.547C51.1388 119.547 51.5234 119.448 51.8223 119.249C52.1266 119.049 52.359 118.781 52.5195 118.443C52.6855 118.1 52.8018 117.718 52.8682 117.298V115.795C52.835 115.469 52.7658 115.165 52.6606 114.882C52.561 114.6 52.4255 114.354 52.2539 114.144C52.0824 113.928 51.8665 113.762 51.6064 113.646C51.3464 113.524 51.0392 113.463 50.6851 113.463C50.3254 113.463 50.0127 113.54 49.7471 113.695C49.4814 113.85 49.2629 114.063 49.0913 114.334C48.9253 114.606 48.8008 114.921 48.7178 115.281C48.6348 115.64 48.5933 116.025 48.5933 116.435ZM58.7285 112.019V121H56.7197V112.019H58.7285ZM56.5869 109.661C56.5869 109.357 56.6865 109.105 56.8857 108.906C57.0905 108.701 57.3727 108.599 57.7324 108.599C58.0866 108.599 58.366 108.701 58.5708 108.906C58.7756 109.105 58.8779 109.357 58.8779 109.661C58.8779 109.96 58.7756 110.209 58.5708 110.408C58.366 110.607 58.0866 110.707 57.7324 110.707C57.3727 110.707 57.0905 110.607 56.8857 110.408C56.6865 110.209 56.5869 109.96 56.5869 109.661ZM62.9287 113.745V124.453H60.9282V112.019H62.771L62.9287 113.745ZM68.7808 116.426V116.601C68.7808 117.254 68.7033 117.86 68.5483 118.418C68.3989 118.972 68.1748 119.456 67.876 119.871C67.5827 120.281 67.2202 120.599 66.7886 120.826C66.3569 121.053 65.8589 121.166 65.2944 121.166C64.7355 121.166 64.2458 121.064 63.8252 120.859C63.4102 120.649 63.0588 120.353 62.771 119.971C62.4832 119.589 62.2508 119.141 62.0737 118.626C61.9022 118.106 61.7804 117.536 61.7085 116.916V116.244C61.7804 115.585 61.9022 114.987 62.0737 114.451C62.2508 113.914 62.4832 113.452 62.771 113.064C63.0588 112.677 63.4102 112.378 63.8252 112.168C64.2402 111.958 64.7244 111.853 65.2778 111.853C65.8423 111.853 66.3431 111.963 66.7803 112.185C67.2174 112.4 67.5854 112.71 67.8843 113.114C68.1831 113.513 68.4072 113.994 68.5566 114.559C68.7061 115.118 68.7808 115.74 68.7808 116.426ZM66.7803 116.601V116.426C66.7803 116.011 66.7415 115.627 66.6641 115.272C66.5866 114.913 66.4648 114.597 66.2988 114.326C66.1328 114.055 65.9198 113.845 65.6597 113.695C65.4051 113.54 65.098 113.463 64.7383 113.463C64.3841 113.463 64.0798 113.524 63.8252 113.646C63.5706 113.762 63.3576 113.925 63.186 114.135C63.0145 114.346 62.8817 114.592 62.7876 114.874C62.6935 115.151 62.6271 115.452 62.5884 115.779V117.389C62.6548 117.788 62.7682 118.153 62.9287 118.485C63.0892 118.817 63.3161 119.083 63.6094 119.282C63.9082 119.475 64.29 119.572 64.7549 119.572C65.1146 119.572 65.4217 119.495 65.6763 119.34C65.9308 119.185 66.1383 118.972 66.2988 118.701C66.4648 118.424 66.5866 118.106 66.6641 117.746C66.7415 117.386 66.7803 117.005 66.7803 116.601ZM75.5459 119.199V114.916C75.5459 114.595 75.4878 114.318 75.3716 114.085C75.2554 113.853 75.0783 113.673 74.8403 113.546C74.6079 113.419 74.3146 113.355 73.9604 113.355C73.634 113.355 73.3517 113.41 73.1138 113.521C72.8758 113.632 72.6904 113.781 72.5576 113.969C72.4248 114.157 72.3584 114.37 72.3584 114.608H70.3662C70.3662 114.254 70.452 113.911 70.6235 113.579C70.7951 113.247 71.0441 112.951 71.3706 112.691C71.6971 112.431 72.0872 112.226 72.541 112.077C72.9948 111.927 73.5039 111.853 74.0684 111.853C74.7435 111.853 75.3411 111.966 75.8613 112.193C76.387 112.42 76.7993 112.763 77.0981 113.222C77.4025 113.676 77.5547 114.246 77.5547 114.932V118.925C77.5547 119.334 77.5824 119.702 77.6377 120.029C77.6986 120.35 77.7843 120.629 77.895 120.867V121H75.8447C75.7507 120.784 75.6759 120.51 75.6206 120.178C75.5708 119.841 75.5459 119.514 75.5459 119.199ZM75.8364 115.538L75.853 116.775H74.417C74.0462 116.775 73.7197 116.811 73.4375 116.883C73.1553 116.949 72.9201 117.049 72.7319 117.182C72.5438 117.314 72.4027 117.475 72.3086 117.663C72.2145 117.851 72.1675 118.064 72.1675 118.302C72.1675 118.54 72.2228 118.759 72.3335 118.958C72.4442 119.152 72.6047 119.304 72.8149 119.415C73.0308 119.525 73.2909 119.581 73.5952 119.581C74.0047 119.581 74.3617 119.498 74.666 119.332C74.9759 119.16 75.2194 118.952 75.3965 118.709C75.5736 118.46 75.6676 118.225 75.6787 118.003L76.3262 118.892C76.2598 119.118 76.1463 119.362 75.9858 119.622C75.8254 119.882 75.6151 120.131 75.355 120.369C75.1004 120.602 74.7933 120.792 74.4336 120.942C74.0794 121.091 73.6699 121.166 73.2051 121.166C72.6185 121.166 72.0955 121.05 71.6362 120.817C71.1769 120.579 70.8172 120.261 70.5571 119.863C70.297 119.459 70.167 119.002 70.167 118.493C70.167 118.017 70.2555 117.597 70.4326 117.231C70.6152 116.861 70.8809 116.551 71.2295 116.302C71.5837 116.053 72.0153 115.865 72.5244 115.737C73.0335 115.604 73.6146 115.538 74.2676 115.538H75.8364ZM81.6636 108.25V121H79.6548V108.25H81.6636ZM87.2417 112.019L83.332 116.352L81.1904 118.543L80.6675 116.85L82.2861 114.849L84.8262 112.019H87.2417ZM85.2578 121L82.3442 116.783L83.606 115.38L87.5737 121H85.2578ZM92.3052 121.166C91.6411 121.166 91.0407 121.058 90.5039 120.842C89.9727 120.621 89.5189 120.314 89.1426 119.921C88.7718 119.528 88.4868 119.066 88.2876 118.535C88.0884 118.003 87.9888 117.431 87.9888 116.816V116.484C87.9888 115.782 88.0911 115.145 88.2959 114.575C88.5007 114.005 88.7856 113.518 89.1509 113.114C89.5161 112.705 89.9478 112.392 90.4458 112.176C90.9438 111.96 91.4834 111.853 92.0645 111.853C92.7064 111.853 93.2681 111.96 93.7495 112.176C94.231 112.392 94.6294 112.696 94.9448 113.089C95.2658 113.477 95.5037 113.939 95.6587 114.476C95.8192 115.012 95.8994 115.604 95.8994 116.252V117.107H88.96V115.671H93.9238V115.513C93.9128 115.153 93.8408 114.816 93.708 114.5C93.5807 114.185 93.3843 113.931 93.1187 113.737C92.853 113.543 92.4989 113.446 92.0562 113.446C91.7241 113.446 91.4281 113.518 91.168 113.662C90.9134 113.8 90.7004 114.002 90.5288 114.268C90.3573 114.534 90.2244 114.855 90.1304 115.231C90.0418 115.602 89.9976 116.02 89.9976 116.484V116.816C89.9976 117.209 90.0501 117.575 90.1553 117.912C90.266 118.244 90.4264 118.535 90.6367 118.784C90.847 119.033 91.1016 119.229 91.4004 119.373C91.6992 119.511 92.0396 119.581 92.4214 119.581C92.9028 119.581 93.3317 119.484 93.708 119.29C94.0843 119.096 94.4108 118.822 94.6875 118.468L95.7417 119.489C95.548 119.771 95.2962 120.043 94.9863 120.303C94.6764 120.557 94.2974 120.765 93.8491 120.925C93.4064 121.086 92.8918 121.166 92.3052 121.166ZM101.577 112.019V113.479H96.5137V112.019H101.577ZM97.9746 109.819H99.9751V118.518C99.9751 118.795 100.014 119.008 100.091 119.157C100.174 119.301 100.288 119.398 100.432 119.448C100.576 119.498 100.744 119.522 100.938 119.522C101.076 119.522 101.209 119.514 101.336 119.498C101.464 119.481 101.566 119.464 101.644 119.448L101.652 120.975C101.486 121.025 101.292 121.069 101.071 121.108C100.855 121.147 100.606 121.166 100.324 121.166C99.8644 121.166 99.4577 121.086 99.1035 120.925C98.7493 120.759 98.4727 120.491 98.2734 120.12C98.0742 119.749 97.9746 119.257 97.9746 118.643V109.819ZM107.238 112.019V113.479H102.175V112.019H107.238ZM103.636 109.819H105.636V118.518C105.636 118.795 105.675 119.008 105.752 119.157C105.835 119.301 105.949 119.398 106.093 119.448C106.237 119.498 106.405 119.522 106.599 119.522C106.737 119.522 106.87 119.514 106.998 119.498C107.125 119.481 107.227 119.464 107.305 119.448L107.313 120.975C107.147 121.025 106.953 121.069 106.732 121.108C106.516 121.147 106.267 121.166 105.985 121.166C105.526 121.166 105.119 121.086 104.765 120.925C104.41 120.759 104.134 120.491 103.935 120.12C103.735 119.749 103.636 119.257 103.636 118.643V109.819ZM111.09 108.914L110.891 117.439H109.181L108.973 108.914H111.09ZM108.915 120.054C108.915 119.749 109.015 119.495 109.214 119.29C109.419 119.08 109.701 118.975 110.061 118.975C110.415 118.975 110.694 119.08 110.899 119.29C111.104 119.495 111.206 119.749 111.206 120.054C111.206 120.347 111.104 120.599 110.899 120.809C110.694 121.014 110.415 121.116 110.061 121.116C109.701 121.116 109.419 121.014 109.214 120.809C109.015 120.599 108.915 120.347 108.915 120.054Z" fill="white"/>
<path d="M47.104 176.032C50.0907 176.032 52.672 176.587 54.848 177.696C57.024 178.763 58.6667 180.235 59.776 182.112C60.928 183.947 61.504 185.995 61.504 188.256C61.504 190.603 60.992 192.864 59.968 195.04C58.9867 197.216 57.28 199.669 54.848 202.4C52.4587 205.131 48.96 208.651 44.352 212.96H62.464L61.44 220H33.984V213.408C39.36 208.032 43.2427 204.021 45.632 201.376C48.0213 198.731 49.7067 196.491 50.688 194.656C51.6693 192.821 52.16 190.944 52.16 189.024C52.16 187.189 51.6267 185.739 50.56 184.672C49.4933 183.605 48.064 183.072 46.272 183.072C44.6933 183.072 43.2853 183.435 42.048 184.16C40.8107 184.843 39.5093 185.995 38.144 187.616L32.704 183.264C36.3733 178.443 41.1733 176.032 47.104 176.032ZM95.991 205.728C96.5883 208.672 97.6763 210.827 99.255 212.192C100.876 213.557 103.031 214.24 105.719 214.24C108.578 214.24 111.65 213.344 114.935 211.552V218.592C113.186 219.403 111.522 220 109.943 220.384C108.364 220.811 106.636 221.024 104.759 221.024C99.9377 221.024 95.9697 219.701 92.855 217.056C89.783 214.368 87.7563 210.592 86.775 205.728H81.207L82.487 200.8H86.519V196H81.207L82.487 191.008H86.839C88.0337 186.357 90.2523 182.709 93.495 180.064C96.7803 177.376 100.642 176.032 105.079 176.032C109.516 176.032 113.527 177.248 117.111 179.68L113.847 185.312C112.482 184.416 111.138 183.776 109.815 183.392C108.492 182.965 107.02 182.752 105.399 182.752C103.18 182.752 101.282 183.435 99.703 184.8C98.1243 186.165 96.951 188.235 96.183 191.008H111.863L110.583 196H95.735V200.8H109.559L108.343 205.728H95.991Z" fill="#FFE80D"/>
<path d="M135.664 190.012C136.784 190.012 137.752 190.22 138.568 190.636C139.384 191.036 140 191.588 140.416 192.292C140.848 192.98 141.064 193.748 141.064 194.596C141.064 195.476 140.872 196.324 140.488 197.14C140.12 197.956 139.48 198.876 138.568 199.9C137.672 200.924 136.36 202.244 134.632 203.86H141.424L141.04 206.5H130.744V204.028C132.76 202.012 134.216 200.508 135.112 199.516C136.008 198.524 136.64 197.684 137.008 196.996C137.376 196.308 137.56 195.604 137.56 194.884C137.56 194.196 137.36 193.652 136.96 193.252C136.56 192.852 136.024 192.652 135.352 192.652C134.76 192.652 134.232 192.788 133.768 193.06C133.304 193.316 132.816 193.748 132.304 194.356L130.264 192.724C131.64 190.916 133.44 190.012 135.664 190.012ZM153.229 188.332V206.5H149.821V188.716L153.229 188.332ZM160.957 193.78L156.901 199.372L161.317 206.5H157.453L153.349 199.54L157.429 193.78H160.957ZM173.057 206.5H170.105L169.937 204.796C169.489 205.5 168.945 206.028 168.305 206.38C167.665 206.716 166.921 206.884 166.073 206.884C164.921 206.884 164.041 206.54 163.433 205.852C162.825 205.148 162.521 204.172 162.521 202.924V193.78H165.929V202.492C165.929 203.164 166.041 203.644 166.265 203.932C166.489 204.204 166.841 204.34 167.321 204.34C168.233 204.34 169.009 203.788 169.649 202.684V193.78H173.057V206.5ZM186.838 206.5H183.886L183.718 204.796C183.27 205.5 182.726 206.028 182.086 206.38C181.446 206.716 180.702 206.884 179.854 206.884C178.702 206.884 177.822 206.54 177.214 205.852C176.606 205.148 176.302 204.172 176.302 202.924V193.78H179.71V202.492C179.71 203.164 179.822 203.644 180.046 203.932C180.27 204.204 180.622 204.34 181.102 204.34C182.014 204.34 182.79 203.788 183.43 202.684V193.78H186.838V206.5ZM201.219 188.716V206.5H198.219L198.027 204.94C197.131 206.236 195.915 206.884 194.379 206.884C192.811 206.884 191.611 206.284 190.779 205.084C189.963 203.868 189.555 202.22 189.555 200.14C189.555 198.828 189.763 197.668 190.179 196.66C190.611 195.636 191.219 194.836 192.003 194.26C192.787 193.684 193.691 193.396 194.715 193.396C195.899 193.396 196.931 193.82 197.811 194.668V188.332L201.219 188.716ZM195.387 204.34C195.883 204.34 196.323 204.22 196.707 203.98C197.091 203.724 197.459 203.332 197.811 202.804V197.116C197.475 196.716 197.131 196.42 196.779 196.228C196.443 196.02 196.051 195.916 195.603 195.916C194.819 195.916 194.203 196.26 193.755 196.948C193.323 197.636 193.107 198.7 193.107 200.14C193.107 201.66 193.299 202.74 193.683 203.38C194.083 204.02 194.651 204.34 195.387 204.34Z" fill="white"/>
<rect x="32" y="240" width="101" height="40" rx="12" fill="#AF0510"/>
<path d="M62.78 253.14L62.46 255.66H59.04V267H55.76V255.66H52.18V253.14H62.78ZM72.6008 253.14L72.2608 255.48H67.3808V258.8H71.6408V261.1H67.3808V264.64H72.6008V267H64.1008V253.14H72.6008ZM77.9081 253.14V264.4H83.3081L82.9681 267H74.6281V253.14H77.9081ZM88.162 253.14V264.4H93.562L93.222 267H84.882V253.14H88.162ZM98.4159 253.14V267H95.1359V253.14H98.4159ZM111.675 267H107.495L103.495 256.26C103.629 257.313 103.729 258.247 103.795 259.06C103.875 259.86 103.915 260.813 103.915 261.92V267H100.995V253.14H105.075L109.175 263.9C108.882 262.073 108.735 260.353 108.735 258.74V253.14H111.675V267Z" fill="#FFE80D"/>
</svg>
