<svg width="330" height="200" viewBox="0 0 330 200" fill="none" xmlns="http://www.w3.org/2000/svg">
<path d="M30.39 38.212C30.39 39.206 30.18 40.088 29.76 40.858C29.34 41.628 28.71 42.237 27.87 42.685C27.044 43.119 26.036 43.336 24.846 43.336C23.054 43.336 21.682 42.874 20.73 41.95C19.792 41.012 19.323 39.766 19.323 38.212V28.468H22.41V38.065C22.41 39.045 22.606 39.78 22.998 40.27C23.39 40.746 24.006 40.984 24.846 40.984C25.686 40.984 26.302 40.746 26.694 40.27C27.1 39.78 27.303 39.045 27.303 38.065V28.468H30.39V38.212ZM42.3242 43H39.7412L39.5942 41.509C39.2022 42.125 38.7262 42.587 38.1662 42.895C37.6062 43.189 36.9552 43.336 36.2132 43.336C35.2052 43.336 34.4352 43.035 33.9032 42.433C33.3712 41.817 33.1052 40.963 33.1052 39.871V31.87H36.0872V39.493C36.0872 40.081 36.1852 40.501 36.3812 40.753C36.5772 40.991 36.8852 41.11 37.3052 41.11C38.1032 41.11 38.7822 40.627 39.3422 39.661V31.87H42.3242V43ZM54.6768 37.183C54.6768 37.323 54.6558 37.708 54.6138 38.338H47.6628C47.7608 39.346 48.0338 40.06 48.4818 40.48C48.9298 40.9 49.5388 41.11 50.3088 41.11C50.7848 41.11 51.2328 41.033 51.6528 40.879C52.0728 40.725 52.5278 40.48 53.0178 40.144L54.2568 41.824C53.0108 42.832 51.6038 43.336 50.0358 43.336C48.2858 43.336 46.9418 42.811 46.0038 41.761C45.0658 40.711 44.5968 39.29 44.5968 37.498C44.5968 36.364 44.7928 35.349 45.1848 34.453C45.5908 33.543 46.1718 32.829 46.9278 32.311C47.6978 31.793 48.6078 31.534 49.6578 31.534C51.2398 31.534 52.4718 32.031 53.3538 33.025C54.2358 34.019 54.6768 35.405 54.6768 37.183ZM51.7158 36.343C51.7158 34.495 51.0508 33.571 49.7208 33.571C49.1048 33.571 48.6218 33.802 48.2718 34.264C47.9358 34.712 47.7328 35.447 47.6628 36.469H51.7158V36.343ZM59.6072 43.336C58.6972 43.336 57.9902 43.077 57.4862 42.559C56.9822 42.027 56.7302 41.278 56.7302 40.312V27.439L59.7122 27.103V40.228C59.7122 40.718 59.9152 40.963 60.3212 40.963C60.5452 40.963 60.7412 40.921 60.9092 40.837L61.5182 42.958C60.9442 43.21 60.3072 43.336 59.6072 43.336ZM76.6811 39.913C76.6811 40.347 76.7441 40.669 76.8701 40.879C76.9961 41.075 77.2061 41.222 77.5001 41.32L76.8701 43.294C76.2121 43.238 75.6731 43.084 75.2531 42.832C74.8471 42.58 74.5321 42.188 74.3081 41.656C73.5801 42.776 72.4671 43.336 70.9691 43.336C69.8631 43.336 68.9811 43.021 68.3231 42.391C67.6791 41.747 67.3571 40.914 67.3571 39.892C67.3571 38.674 67.7981 37.743 68.6801 37.099C69.5621 36.455 70.8291 36.133 72.4811 36.133H73.7621V35.587C73.7621 34.901 73.6081 34.425 73.3001 34.159C72.9921 33.893 72.4811 33.76 71.7671 33.76C70.9831 33.76 70.0031 33.956 68.8271 34.348L68.1551 32.353C69.5411 31.807 70.9131 31.534 72.2711 31.534C73.7831 31.534 74.8961 31.863 75.6101 32.521C76.3241 33.165 76.6811 34.131 76.6811 35.419V39.913ZM71.7881 41.194C72.6281 41.194 73.2861 40.781 73.7621 39.955V37.834H72.7751C71.1651 37.834 70.3601 38.436 70.3601 39.64C70.3601 40.13 70.4791 40.515 70.7171 40.795C70.9691 41.061 71.3261 41.194 71.7881 41.194ZM88.0629 39.913C88.0629 40.347 88.1259 40.669 88.2519 40.879C88.3779 41.075 88.5879 41.222 88.8819 41.32L88.2519 43.294C87.5939 43.238 87.0549 43.084 86.6349 42.832C86.2289 42.58 85.9139 42.188 85.6899 41.656C84.9619 42.776 83.8489 43.336 82.3509 43.336C81.2449 43.336 80.3629 43.021 79.7049 42.391C79.0609 41.747 78.7389 40.914 78.7389 39.892C78.7389 38.674 79.1799 37.743 80.0619 37.099C80.9439 36.455 82.2109 36.133 83.8629 36.133H85.1439V35.587C85.1439 34.901 84.9899 34.425 84.6819 34.159C84.3739 33.893 83.8629 33.76 83.1489 33.76C82.3649 33.76 81.3849 33.956 80.2089 34.348L79.5369 32.353C80.9229 31.807 82.2949 31.534 83.6529 31.534C85.1649 31.534 86.2779 31.863 86.9919 32.521C87.7059 33.165 88.0629 34.131 88.0629 35.419V39.913ZM83.1699 41.194C84.0099 41.194 84.6679 40.781 85.1439 39.955V37.834H84.1569C82.5469 37.834 81.7419 38.436 81.7419 39.64C81.7419 40.13 81.8609 40.515 82.0989 40.795C82.3509 41.061 82.7079 41.194 83.1699 41.194ZM94.5332 31.534C96.1012 31.534 97.4452 31.982 98.5652 32.878L97.4312 34.579C96.4932 33.991 95.5692 33.697 94.6592 33.697C94.1692 33.697 93.7912 33.788 93.5252 33.97C93.2592 34.152 93.1262 34.397 93.1262 34.705C93.1262 34.929 93.1822 35.118 93.2942 35.272C93.4202 35.426 93.6442 35.573 93.9662 35.713C94.3022 35.853 94.7992 36.021 95.4572 36.217C96.6332 36.539 97.5082 36.973 98.0822 37.519C98.6562 38.051 98.9432 38.786 98.9432 39.724C98.9432 40.466 98.7262 41.11 98.2922 41.656C97.8722 42.202 97.2982 42.622 96.5702 42.916C95.8422 43.196 95.0302 43.336 94.1342 43.336C93.1962 43.336 92.3422 43.196 91.5722 42.916C90.8022 42.622 90.1442 42.223 89.5982 41.719L91.0682 40.081C92.0062 40.809 93.0002 41.173 94.0502 41.173C94.6102 41.173 95.0512 41.068 95.3732 40.858C95.7092 40.634 95.8772 40.333 95.8772 39.955C95.8772 39.661 95.8142 39.43 95.6882 39.262C95.5622 39.094 95.3312 38.94 94.9952 38.8C94.6592 38.646 94.1342 38.471 93.4202 38.275C92.3002 37.967 91.4672 37.533 90.9212 36.973C90.3892 36.399 90.1232 35.692 90.1232 34.852C90.1232 34.222 90.3052 33.655 90.6692 33.151C91.0332 32.647 91.5442 32.255 92.2022 31.975C92.8742 31.681 93.6512 31.534 94.5332 31.534ZM107.543 42.475C107.137 42.755 106.675 42.965 106.157 43.105C105.653 43.259 105.149 43.336 104.645 43.336C103.497 43.322 102.629 42.993 102.041 42.349C101.453 41.705 101.159 40.76 101.159 39.514V33.97H99.5V31.87H101.159V29.434L104.141 29.077V31.87H106.703L106.409 33.97H104.141V39.451C104.141 39.983 104.232 40.368 104.414 40.606C104.596 40.844 104.876 40.963 105.254 40.963C105.632 40.963 106.052 40.837 106.514 40.585L107.543 42.475ZM117.143 39.913C117.143 40.347 117.206 40.669 117.332 40.879C117.458 41.075 117.668 41.222 117.962 41.32L117.332 43.294C116.674 43.238 116.135 43.084 115.715 42.832C115.309 42.58 114.994 42.188 114.77 41.656C114.042 42.776 112.929 43.336 111.431 43.336C110.325 43.336 109.443 43.021 108.785 42.391C108.141 41.747 107.819 40.914 107.819 39.892C107.819 38.674 108.26 37.743 109.142 37.099C110.024 36.455 111.291 36.133 112.943 36.133H114.224V35.587C114.224 34.901 114.07 34.425 113.762 34.159C113.454 33.893 112.943 33.76 112.229 33.76C111.445 33.76 110.465 33.956 109.289 34.348L108.617 32.353C110.003 31.807 111.375 31.534 112.733 31.534C114.245 31.534 115.358 31.863 116.072 32.521C116.786 33.165 117.143 34.131 117.143 35.419V39.913ZM112.25 41.194C113.09 41.194 113.748 40.781 114.224 39.955V37.834H113.237C111.627 37.834 110.822 38.436 110.822 39.64C110.822 40.13 110.941 40.515 111.179 40.795C111.431 41.061 111.788 41.194 112.25 41.194ZM122.689 43.336C121.779 43.336 121.072 43.077 120.568 42.559C120.064 42.027 119.812 41.278 119.812 40.312V27.439L122.794 27.103V40.228C122.794 40.718 122.997 40.963 123.403 40.963C123.627 40.963 123.823 40.921 123.991 40.837L124.6 42.958C124.026 43.21 123.389 43.336 122.689 43.336ZM134.24 27.103V43H131.258V27.439L134.24 27.103ZM141.002 31.87L137.453 36.763L141.317 43H137.936L134.345 36.91L137.915 31.87H141.002ZM150.837 39.913C150.837 40.347 150.9 40.669 151.026 40.879C151.152 41.075 151.362 41.222 151.656 41.32L151.026 43.294C150.368 43.238 149.829 43.084 149.409 42.832C149.003 42.58 148.688 42.188 148.464 41.656C147.736 42.776 146.623 43.336 145.125 43.336C144.019 43.336 143.137 43.021 142.479 42.391C141.835 41.747 141.513 40.914 141.513 39.892C141.513 38.674 141.954 37.743 142.836 37.099C143.718 36.455 144.985 36.133 146.637 36.133H147.918V35.587C147.918 34.901 147.764 34.425 147.456 34.159C147.148 33.893 146.637 33.76 145.923 33.76C145.139 33.76 144.159 33.956 142.983 34.348L142.311 32.353C143.697 31.807 145.069 31.534 146.427 31.534C147.939 31.534 149.052 31.863 149.766 32.521C150.48 33.165 150.837 34.131 150.837 35.419V39.913ZM145.944 41.194C146.784 41.194 147.442 40.781 147.918 39.955V37.834H146.931C145.321 37.834 144.516 38.436 144.516 39.64C144.516 40.13 144.635 40.515 144.873 40.795C145.125 41.061 145.482 41.194 145.944 41.194ZM144.117 26.368C144.565 26.368 144.936 26.522 145.23 26.83C145.538 27.124 145.692 27.488 145.692 27.922C145.692 28.356 145.538 28.727 145.23 29.035C144.936 29.329 144.565 29.476 144.117 29.476C143.683 29.476 143.312 29.329 143.004 29.035C142.696 28.727 142.542 28.356 142.542 27.922C142.542 27.488 142.696 27.124 143.004 26.83C143.312 26.522 143.683 26.368 144.117 26.368ZM148.863 26.368C149.311 26.368 149.689 26.522 149.997 26.83C150.305 27.124 150.459 27.488 150.459 27.922C150.459 28.356 150.305 28.727 149.997 29.035C149.689 29.329 149.311 29.476 148.863 29.476C148.429 29.476 148.058 29.329 147.75 29.035C147.456 28.727 147.309 28.356 147.309 27.922C147.309 27.488 147.456 27.124 147.75 26.83C148.058 26.522 148.429 26.368 148.863 26.368ZM156.799 31.87V43H153.817V31.87H156.799ZM155.287 26.137C155.819 26.137 156.253 26.305 156.589 26.641C156.939 26.963 157.114 27.376 157.114 27.88C157.114 28.384 156.939 28.804 156.589 29.14C156.253 29.462 155.819 29.623 155.287 29.623C154.755 29.623 154.321 29.462 153.985 29.14C153.649 28.804 153.481 28.384 153.481 27.88C153.481 27.376 153.649 26.963 153.985 26.641C154.321 26.305 154.755 26.137 155.287 26.137ZM165.959 31.534C166.939 31.534 167.702 31.835 168.248 32.437C168.794 33.025 169.067 33.844 169.067 34.894V43H166.085V35.398C166.085 34.796 165.98 34.376 165.77 34.138C165.574 33.886 165.273 33.76 164.867 33.76C164.447 33.76 164.062 33.893 163.712 34.159C163.376 34.411 163.047 34.796 162.725 35.314V43H159.743V31.87H162.326L162.557 33.277C163.019 32.703 163.523 32.269 164.069 31.975C164.629 31.681 165.259 31.534 165.959 31.534ZM180.728 31.534C182.296 31.534 183.64 31.982 184.76 32.878L183.626 34.579C182.688 33.991 181.764 33.697 180.854 33.697C180.364 33.697 179.986 33.788 179.72 33.97C179.454 34.152 179.321 34.397 179.321 34.705C179.321 34.929 179.377 35.118 179.489 35.272C179.615 35.426 179.839 35.573 180.161 35.713C180.497 35.853 180.994 36.021 181.652 36.217C182.828 36.539 183.703 36.973 184.277 37.519C184.851 38.051 185.138 38.786 185.138 39.724C185.138 40.466 184.921 41.11 184.487 41.656C184.067 42.202 183.493 42.622 182.765 42.916C182.037 43.196 181.225 43.336 180.329 43.336C179.391 43.336 178.537 43.196 177.767 42.916C176.997 42.622 176.339 42.223 175.793 41.719L177.263 40.081C178.201 40.809 179.195 41.173 180.245 41.173C180.805 41.173 181.246 41.068 181.568 40.858C181.904 40.634 182.072 40.333 182.072 39.955C182.072 39.661 182.009 39.43 181.883 39.262C181.757 39.094 181.526 38.94 181.19 38.8C180.854 38.646 180.329 38.471 179.615 38.275C178.495 37.967 177.662 37.533 177.116 36.973C176.584 36.399 176.318 35.692 176.318 34.852C176.318 34.222 176.5 33.655 176.864 33.151C177.228 32.647 177.739 32.255 178.397 31.975C179.069 31.681 179.846 31.534 180.728 31.534ZM191.763 31.534C193.429 31.534 194.731 32.059 195.669 33.109C196.607 34.145 197.076 35.587 197.076 37.435C197.076 38.611 196.859 39.647 196.425 40.543C196.005 41.425 195.389 42.111 194.577 42.601C193.779 43.091 192.834 43.336 191.742 43.336C190.076 43.336 188.767 42.818 187.815 41.782C186.877 40.732 186.408 39.283 186.408 37.435C186.408 36.259 186.618 35.23 187.038 34.348C187.472 33.452 188.088 32.759 188.886 32.269C189.698 31.779 190.657 31.534 191.763 31.534ZM191.763 33.76C191.007 33.76 190.44 34.061 190.062 34.663C189.698 35.251 189.516 36.175 189.516 37.435C189.516 38.695 189.698 39.626 190.062 40.228C190.44 40.816 191 41.11 191.742 41.11C192.484 41.11 193.037 40.816 193.401 40.228C193.779 39.626 193.968 38.695 193.968 37.435C193.968 36.175 193.786 35.251 193.422 34.663C193.058 34.061 192.505 33.76 191.763 33.76ZM192.96 29.56C192.666 29.56 192.407 29.511 192.183 29.413C191.973 29.315 191.721 29.175 191.427 28.993C191.245 28.853 191.084 28.755 190.944 28.699C190.818 28.629 190.685 28.594 190.545 28.594C190.321 28.594 190.125 28.671 189.957 28.825C189.789 28.979 189.614 29.217 189.432 29.539L187.899 28.783C188.179 28.097 188.543 27.537 188.991 27.103C189.439 26.669 189.943 26.452 190.503 26.452C190.825 26.452 191.098 26.508 191.322 26.62C191.546 26.718 191.798 26.858 192.078 27.04C192.26 27.166 192.414 27.264 192.54 27.334C192.666 27.39 192.799 27.418 192.939 27.418C193.163 27.418 193.352 27.348 193.506 27.208C193.674 27.054 193.856 26.816 194.052 26.494L195.585 27.25C195.305 27.964 194.941 28.531 194.493 28.951C194.045 29.357 193.534 29.56 192.96 29.56ZM205.371 31.534C206.673 31.534 207.681 32.052 208.395 33.088C209.123 34.124 209.487 35.573 209.487 37.435C209.487 38.583 209.305 39.605 208.941 40.501C208.591 41.383 208.08 42.076 207.408 42.58C206.75 43.084 205.973 43.336 205.077 43.336C203.859 43.336 202.886 42.86 202.158 41.908L201.99 43H199.344V27.439L202.326 27.103V33.067C202.676 32.591 203.117 32.22 203.649 31.954C204.181 31.674 204.755 31.534 205.371 31.534ZM204.237 41.131C205.665 41.131 206.379 39.899 206.379 37.435C206.379 36.077 206.204 35.125 205.854 34.579C205.518 34.019 205.028 33.739 204.384 33.739C203.586 33.739 202.9 34.215 202.326 35.167V39.934C202.816 40.732 203.453 41.131 204.237 41.131ZM217.608 31.555C217.944 31.555 218.315 31.611 218.721 31.723L218.217 34.6C217.825 34.502 217.496 34.453 217.23 34.453C216.572 34.453 216.061 34.684 215.697 35.146C215.333 35.608 215.046 36.308 214.836 37.246V43H211.854V31.87H214.437L214.71 34.033C214.976 33.249 215.361 32.64 215.865 32.206C216.383 31.772 216.964 31.555 217.608 31.555ZM227.967 39.913C227.967 40.347 228.03 40.669 228.156 40.879C228.282 41.075 228.492 41.222 228.786 41.32L228.156 43.294C227.498 43.238 226.959 43.084 226.539 42.832C226.133 42.58 225.818 42.188 225.594 41.656C224.866 42.776 223.753 43.336 222.255 43.336C221.149 43.336 220.267 43.021 219.609 42.391C218.965 41.747 218.643 40.914 218.643 39.892C218.643 38.674 219.084 37.743 219.966 37.099C220.848 36.455 222.115 36.133 223.767 36.133H225.048V35.587C225.048 34.901 224.894 34.425 224.586 34.159C224.278 33.893 223.767 33.76 223.053 33.76C222.269 33.76 221.289 33.956 220.113 34.348L219.441 32.353C220.827 31.807 222.199 31.534 223.557 31.534C225.069 31.534 226.182 31.863 226.896 32.521C227.61 33.165 227.967 34.131 227.967 35.419V39.913ZM223.074 41.194C223.914 41.194 224.572 40.781 225.048 39.955V37.834H224.061C222.451 37.834 221.646 38.436 221.646 39.64C221.646 40.13 221.765 40.515 222.003 40.795C222.255 41.061 222.612 41.194 223.074 41.194ZM237.163 31.534C238.143 31.534 238.906 31.835 239.452 32.437C239.998 33.025 240.271 33.844 240.271 34.894V43H237.289V35.398C237.289 34.796 237.184 34.376 236.974 34.138C236.778 33.886 236.477 33.76 236.071 33.76C235.651 33.76 235.266 33.893 234.916 34.159C234.58 34.411 234.251 34.796 233.929 35.314V43H230.947V31.87H233.53L233.761 33.277C234.223 32.703 234.727 32.269 235.273 31.975C235.833 31.681 236.463 31.534 237.163 31.534ZM249.324 31.534C250.304 31.534 251.067 31.835 251.613 32.437C252.159 33.025 252.432 33.844 252.432 34.894V43H249.45V35.398C249.45 34.796 249.345 34.376 249.135 34.138C248.939 33.886 248.638 33.76 248.232 33.76C247.812 33.76 247.427 33.893 247.077 34.159C246.741 34.411 246.412 34.796 246.09 35.314V43H243.108V31.87H245.691L245.922 33.277C246.384 32.703 246.888 32.269 247.434 31.975C247.994 31.681 248.624 31.534 249.324 31.534ZM263.774 39.913C263.774 40.347 263.837 40.669 263.963 40.879C264.089 41.075 264.299 41.222 264.593 41.32L263.963 43.294C263.305 43.238 262.766 43.084 262.346 42.832C261.94 42.58 261.625 42.188 261.401 41.656C260.673 42.776 259.56 43.336 258.062 43.336C256.956 43.336 256.074 43.021 255.416 42.391C254.772 41.747 254.45 40.914 254.45 39.892C254.45 38.674 254.891 37.743 255.773 37.099C256.655 36.455 257.922 36.133 259.574 36.133H260.855V35.587C260.855 34.901 260.701 34.425 260.393 34.159C260.085 33.893 259.574 33.76 258.86 33.76C258.076 33.76 257.096 33.956 255.92 34.348L255.248 32.353C256.634 31.807 258.006 31.534 259.364 31.534C260.876 31.534 261.989 31.863 262.703 32.521C263.417 33.165 263.774 34.131 263.774 35.419V39.913ZM258.881 41.194C259.721 41.194 260.379 40.781 260.855 39.955V37.834H259.868C258.258 37.834 257.453 38.436 257.453 39.64C257.453 40.13 257.572 40.515 257.81 40.795C258.062 41.061 258.419 41.194 258.881 41.194ZM276.392 27.439V43H273.767L273.599 41.635C272.815 42.769 271.751 43.336 270.407 43.336C269.035 43.336 267.985 42.811 267.257 41.761C266.543 40.697 266.186 39.255 266.186 37.435C266.186 36.287 266.368 35.272 266.732 34.39C267.11 33.494 267.642 32.794 268.328 32.29C269.014 31.786 269.805 31.534 270.701 31.534C271.737 31.534 272.64 31.905 273.41 32.647V27.103L276.392 27.439ZM271.289 41.11C271.723 41.11 272.108 41.005 272.444 40.795C272.78 40.571 273.102 40.228 273.41 39.766V34.789C273.116 34.439 272.815 34.18 272.507 34.012C272.213 33.83 271.87 33.739 271.478 33.739C270.792 33.739 270.253 34.04 269.861 34.642C269.483 35.244 269.294 36.175 269.294 37.435C269.294 38.765 269.462 39.71 269.798 40.27C270.148 40.83 270.645 41.11 271.289 41.11ZM288.732 37.183C288.732 37.323 288.711 37.708 288.669 38.338H281.718C281.816 39.346 282.089 40.06 282.537 40.48C282.985 40.9 283.594 41.11 284.364 41.11C284.84 41.11 285.288 41.033 285.708 40.879C286.128 40.725 286.583 40.48 287.073 40.144L288.312 41.824C287.066 42.832 285.659 43.336 284.091 43.336C282.341 43.336 280.997 42.811 280.059 41.761C279.121 40.711 278.652 39.29 278.652 37.498C278.652 36.364 278.848 35.349 279.24 34.453C279.646 33.543 280.227 32.829 280.983 32.311C281.753 31.793 282.663 31.534 283.713 31.534C285.295 31.534 286.527 32.031 287.409 33.025C288.291 34.019 288.732 35.405 288.732 37.183ZM285.771 36.343C285.771 34.495 285.106 33.571 283.776 33.571C283.16 33.571 282.677 33.802 282.327 34.264C281.991 34.712 281.788 35.447 281.718 36.469H285.771V36.343ZM300.845 32.479C300.117 32.759 299.046 32.899 297.632 32.899C298.332 33.207 298.85 33.592 299.186 34.054C299.522 34.502 299.69 35.069 299.69 35.755C299.69 36.469 299.501 37.113 299.123 37.687C298.759 38.247 298.227 38.688 297.527 39.01C296.841 39.332 296.036 39.493 295.112 39.493C294.622 39.493 294.188 39.444 293.81 39.346C293.53 39.528 293.39 39.773 293.39 40.081C293.39 40.305 293.474 40.487 293.642 40.627C293.824 40.753 294.167 40.816 294.671 40.816H296.372C297.198 40.816 297.919 40.956 298.535 41.236C299.165 41.502 299.648 41.88 299.984 42.37C300.334 42.846 300.509 43.392 300.509 44.008C300.509 45.142 300.019 46.024 299.039 46.654C298.073 47.298 296.673 47.62 294.839 47.62C293.523 47.62 292.48 47.48 291.71 47.2C290.954 46.934 290.422 46.542 290.114 46.024C289.806 45.506 289.652 44.855 289.652 44.071H292.319C292.319 44.435 292.389 44.722 292.529 44.932C292.669 45.156 292.921 45.317 293.285 45.415C293.663 45.527 294.202 45.583 294.902 45.583C295.868 45.583 296.54 45.464 296.918 45.226C297.31 44.988 297.506 44.652 297.506 44.218C297.506 43.826 297.359 43.525 297.065 43.315C296.771 43.105 296.337 43 295.763 43H294.125C293.019 43 292.193 42.797 291.647 42.391C291.101 41.971 290.828 41.446 290.828 40.816C290.828 40.424 290.94 40.046 291.164 39.682C291.402 39.304 291.724 38.989 292.13 38.737C291.444 38.359 290.94 37.918 290.618 37.414C290.31 36.896 290.156 36.28 290.156 35.566C290.156 34.754 290.352 34.047 290.744 33.445C291.15 32.829 291.71 32.36 292.424 32.038C293.152 31.702 293.978 31.534 294.902 31.534C296.05 31.562 296.995 31.464 297.737 31.24C298.479 31.016 299.27 30.666 300.11 30.19L300.845 32.479ZM294.965 33.529C294.405 33.529 293.957 33.711 293.621 34.075C293.299 34.425 293.138 34.908 293.138 35.524C293.138 36.154 293.299 36.651 293.621 37.015C293.957 37.379 294.412 37.561 294.986 37.561C295.588 37.561 296.043 37.386 296.351 37.036C296.659 36.686 296.813 36.168 296.813 35.482C296.813 34.18 296.197 33.529 294.965 33.529ZM310.347 39.913C310.347 40.347 310.41 40.669 310.536 40.879C310.662 41.075 310.872 41.222 311.166 41.32L310.536 43.294C309.878 43.238 309.339 43.084 308.919 42.832C308.513 42.58 308.198 42.188 307.974 41.656C307.246 42.776 306.133 43.336 304.635 43.336C303.529 43.336 302.647 43.021 301.989 42.391C301.345 41.747 301.023 40.914 301.023 39.892C301.023 38.674 301.464 37.743 302.346 37.099C303.228 36.455 304.495 36.133 306.147 36.133H307.428V35.587C307.428 34.901 307.274 34.425 306.966 34.159C306.658 33.893 306.147 33.76 305.433 33.76C304.649 33.76 303.669 33.956 302.493 34.348L301.821 32.353C303.207 31.807 304.579 31.534 305.937 31.534C307.449 31.534 308.562 31.863 309.276 32.521C309.99 33.165 310.347 34.131 310.347 35.419V39.913ZM305.454 41.194C306.294 41.194 306.952 40.781 307.428 39.955V37.834H306.441C304.831 37.834 304.026 38.436 304.026 39.64C304.026 40.13 304.145 40.515 304.383 40.795C304.635 41.061 304.992 41.194 305.454 41.194ZM25.224 54.555C25.56 54.555 25.931 54.611 26.337 54.723L25.833 57.6C25.441 57.502 25.112 57.453 24.846 57.453C24.188 57.453 23.677 57.684 23.313 58.146C22.949 58.608 22.662 59.308 22.452 60.246V66H19.47V54.87H22.053L22.326 57.033C22.592 56.249 22.977 55.64 23.481 55.206C23.999 54.772 24.58 54.555 25.224 54.555ZM31.8639 54.534C33.5299 54.534 34.8319 55.059 35.7699 56.109C36.7079 57.145 37.1769 58.587 37.1769 60.435C37.1769 61.611 36.9599 62.647 36.5259 63.543C36.1059 64.425 35.4899 65.111 34.6779 65.601C33.8799 66.091 32.9349 66.336 31.8429 66.336C30.1769 66.336 28.8679 65.818 27.9159 64.782C26.9779 63.732 26.5089 62.283 26.5089 60.435C26.5089 59.259 26.7189 58.23 27.1389 57.348C27.5729 56.452 28.1889 55.759 28.9869 55.269C29.7989 54.779 30.7579 54.534 31.8639 54.534ZM31.8639 56.76C31.1079 56.76 30.5409 57.061 30.1629 57.663C29.7989 58.251 29.6169 59.175 29.6169 60.435C29.6169 61.695 29.7989 62.626 30.1629 63.228C30.5409 63.816 31.1009 64.11 31.8429 64.11C32.5849 64.11 33.1379 63.816 33.5019 63.228C33.8799 62.626 34.0689 61.695 34.0689 60.435C34.0689 59.175 33.8869 58.251 33.5229 57.663C33.1589 57.061 32.6059 56.76 31.8639 56.76ZM45.6606 54.534C46.6266 54.534 47.3826 54.835 47.9286 55.437C48.4886 56.025 48.7686 56.844 48.7686 57.894V66H45.7866V58.398C45.7866 57.796 45.6816 57.376 45.4716 57.138C45.2616 56.886 44.9606 56.76 44.5686 56.76C43.7846 56.76 43.0706 57.271 42.4266 58.293V66H39.4446V50.439L42.4266 50.124V56.13C42.8746 55.598 43.3576 55.199 43.8756 54.933C44.4076 54.667 45.0026 54.534 45.6606 54.534ZM54.5877 50.103V66H51.6057V50.439L54.5877 50.103ZM61.3497 54.87L57.8007 59.763L61.6647 66H58.2837L54.6927 59.91L58.2627 54.87H61.3497ZM72.1495 60.183C72.1495 60.323 72.1285 60.708 72.0865 61.338H65.1355C65.2335 62.346 65.5065 63.06 65.9545 63.48C66.4025 63.9 67.0115 64.11 67.7815 64.11C68.2575 64.11 68.7055 64.033 69.1255 63.879C69.5455 63.725 70.0005 63.48 70.4905 63.144L71.7295 64.824C70.4835 65.832 69.0765 66.336 67.5085 66.336C65.7585 66.336 64.4145 65.811 63.4765 64.761C62.5385 63.711 62.0695 62.29 62.0695 60.498C62.0695 59.364 62.2655 58.349 62.6575 57.453C63.0635 56.543 63.6445 55.829 64.4005 55.311C65.1705 54.793 66.0805 54.534 67.1305 54.534C68.7125 54.534 69.9445 55.031 70.8265 56.025C71.7085 57.019 72.1495 58.405 72.1495 60.183ZM69.1885 59.343C69.1885 57.495 68.5235 56.571 67.1935 56.571C66.5775 56.571 66.0945 56.802 65.7445 57.264C65.4085 57.712 65.2055 58.447 65.1355 59.469H69.1885V59.343ZM86.3409 54.534C87.2229 54.534 87.9299 54.835 88.4619 55.437C89.0079 56.039 89.2809 56.858 89.2809 57.894V66H86.2989V58.398C86.2989 57.306 85.9349 56.76 85.2069 56.76C84.8149 56.76 84.4719 56.886 84.1779 57.138C83.8839 57.39 83.5829 57.782 83.2749 58.314V66H80.2929V58.398C80.2929 57.306 79.9289 56.76 79.2009 56.76C78.8089 56.76 78.4659 56.893 78.1719 57.159C77.8779 57.411 77.5839 57.796 77.2899 58.314V66H74.3079V54.87H76.8909L77.1219 56.256C77.5419 55.696 78.0109 55.269 78.5289 54.975C79.0609 54.681 79.6699 54.534 80.3559 54.534C80.9859 54.534 81.5319 54.695 81.9939 55.017C82.4559 55.325 82.7919 55.766 83.0019 56.34C83.4639 55.738 83.9609 55.29 84.4929 54.996C85.0389 54.688 85.6549 54.534 86.3409 54.534ZM100.218 50.103V66H97.2356V50.439L100.218 50.103ZM106.98 54.87L103.431 59.763L107.295 66H103.914L100.323 59.91L103.893 54.87H106.98ZM113.054 54.534C114.72 54.534 116.022 55.059 116.96 56.109C117.898 57.145 118.367 58.587 118.367 60.435C118.367 61.611 118.15 62.647 117.716 63.543C117.296 64.425 116.68 65.111 115.868 65.601C115.07 66.091 114.125 66.336 113.033 66.336C111.367 66.336 110.058 65.818 109.106 64.782C108.168 63.732 107.699 62.283 107.699 60.435C107.699 59.259 107.909 58.23 108.329 57.348C108.763 56.452 109.379 55.759 110.177 55.269C110.989 54.779 111.948 54.534 113.054 54.534ZM113.054 56.76C112.298 56.76 111.731 57.061 111.353 57.663C110.989 58.251 110.807 59.175 110.807 60.435C110.807 61.695 110.989 62.626 111.353 63.228C111.731 63.816 112.291 64.11 113.033 64.11C113.775 64.11 114.328 63.816 114.692 63.228C115.07 62.626 115.259 61.695 115.259 60.435C115.259 59.175 115.077 58.251 114.713 57.663C114.349 57.061 113.796 56.76 113.054 56.76ZM126.851 54.534C127.817 54.534 128.573 54.835 129.119 55.437C129.679 56.025 129.959 56.844 129.959 57.894V66H126.977V58.398C126.977 57.796 126.872 57.376 126.662 57.138C126.452 56.886 126.151 56.76 125.759 56.76C124.975 56.76 124.261 57.271 123.617 58.293V66H120.635V50.439L123.617 50.124V56.13C124.065 55.598 124.548 55.199 125.066 54.933C125.598 54.667 126.193 54.534 126.851 54.534ZM141.913 54.87L138.343 66H134.794L131.161 54.87H134.395L136.6 63.669L138.847 54.87H141.913ZM146.319 54.87V66H143.337V54.87H146.319ZM144.807 49.137C145.339 49.137 145.773 49.305 146.109 49.641C146.459 49.963 146.634 50.376 146.634 50.88C146.634 51.384 146.459 51.804 146.109 52.14C145.773 52.462 145.339 52.623 144.807 52.623C144.275 52.623 143.841 52.462 143.505 52.14C143.169 51.804 143.001 51.384 143.001 50.88C143.001 50.376 143.169 49.963 143.505 49.641C143.841 49.305 144.275 49.137 144.807 49.137ZM155.921 65.475C155.515 65.755 155.053 65.965 154.535 66.105C154.031 66.259 153.527 66.336 153.023 66.336C151.875 66.322 151.007 65.993 150.419 65.349C149.831 64.705 149.537 63.76 149.537 62.514V56.97H147.878V54.87H149.537V52.434L152.519 52.077V54.87H155.081L154.787 56.97H152.519V62.451C152.519 62.983 152.61 63.368 152.792 63.606C152.974 63.844 153.254 63.963 153.632 63.963C154.01 63.963 154.43 63.837 154.892 63.585L155.921 65.475ZM165.521 62.913C165.521 63.347 165.584 63.669 165.71 63.879C165.836 64.075 166.046 64.222 166.34 64.32L165.71 66.294C165.052 66.238 164.513 66.084 164.093 65.832C163.687 65.58 163.372 65.188 163.148 64.656C162.42 65.776 161.307 66.336 159.809 66.336C158.703 66.336 157.821 66.021 157.163 65.391C156.519 64.747 156.197 63.914 156.197 62.892C156.197 61.674 156.638 60.743 157.52 60.099C158.402 59.455 159.669 59.133 161.321 59.133H162.602V58.587C162.602 57.901 162.448 57.425 162.14 57.159C161.832 56.893 161.321 56.76 160.607 56.76C159.823 56.76 158.843 56.956 157.667 57.348L156.995 55.353C158.381 54.807 159.753 54.534 161.111 54.534C162.623 54.534 163.736 54.863 164.45 55.521C165.164 56.165 165.521 57.131 165.521 58.419V62.913ZM160.628 64.194C161.468 64.194 162.126 63.781 162.602 62.955V60.834H161.615C160.005 60.834 159.2 61.436 159.2 62.64C159.2 63.13 159.319 63.515 159.557 63.795C159.809 64.061 160.166 64.194 160.628 64.194ZM180.533 54.534C181.415 54.534 182.122 54.835 182.654 55.437C183.2 56.039 183.473 56.858 183.473 57.894V66H180.491V58.398C180.491 57.306 180.127 56.76 179.399 56.76C179.007 56.76 178.664 56.886 178.37 57.138C178.076 57.39 177.775 57.782 177.467 58.314V66H174.485V58.398C174.485 57.306 174.121 56.76 173.393 56.76C173.001 56.76 172.658 56.893 172.364 57.159C172.07 57.411 171.776 57.796 171.482 58.314V66H168.5V54.87H171.083L171.314 56.256C171.734 55.696 172.203 55.269 172.721 54.975C173.253 54.681 173.862 54.534 174.548 54.534C175.178 54.534 175.724 54.695 176.186 55.017C176.648 55.325 176.984 55.766 177.194 56.34C177.656 55.738 178.153 55.29 178.685 54.996C179.231 54.688 179.847 54.534 180.533 54.534ZM194.806 62.913C194.806 63.347 194.869 63.669 194.995 63.879C195.121 64.075 195.331 64.222 195.625 64.32L194.995 66.294C194.337 66.238 193.798 66.084 193.378 65.832C192.972 65.58 192.657 65.188 192.433 64.656C191.705 65.776 190.592 66.336 189.094 66.336C187.988 66.336 187.106 66.021 186.448 65.391C185.804 64.747 185.482 63.914 185.482 62.892C185.482 61.674 185.923 60.743 186.805 60.099C187.687 59.455 188.954 59.133 190.606 59.133H191.887V58.587C191.887 57.901 191.733 57.425 191.425 57.159C191.117 56.893 190.606 56.76 189.892 56.76C189.108 56.76 188.128 56.956 186.952 57.348L186.28 55.353C187.666 54.807 189.038 54.534 190.396 54.534C191.908 54.534 193.021 54.863 193.735 55.521C194.449 56.165 194.806 57.131 194.806 58.419V62.913ZM189.913 64.194C190.753 64.194 191.411 63.781 191.887 62.955V60.834H190.9C189.29 60.834 188.485 61.436 188.485 62.64C188.485 63.13 188.604 63.515 188.842 63.795C189.094 64.061 189.451 64.194 189.913 64.194ZM201.276 54.534C202.844 54.534 204.188 54.982 205.308 55.878L204.174 57.579C203.236 56.991 202.312 56.697 201.402 56.697C200.912 56.697 200.534 56.788 200.268 56.97C200.002 57.152 199.869 57.397 199.869 57.705C199.869 57.929 199.925 58.118 200.037 58.272C200.163 58.426 200.387 58.573 200.709 58.713C201.045 58.853 201.542 59.021 202.2 59.217C203.376 59.539 204.251 59.973 204.825 60.519C205.399 61.051 205.686 61.786 205.686 62.724C205.686 63.466 205.469 64.11 205.035 64.656C204.615 65.202 204.041 65.622 203.313 65.916C202.585 66.196 201.773 66.336 200.877 66.336C199.939 66.336 199.085 66.196 198.315 65.916C197.545 65.622 196.887 65.223 196.341 64.719L197.811 63.081C198.749 63.809 199.743 64.173 200.793 64.173C201.353 64.173 201.794 64.068 202.116 63.858C202.452 63.634 202.62 63.333 202.62 62.955C202.62 62.661 202.557 62.43 202.431 62.262C202.305 62.094 202.074 61.94 201.738 61.8C201.402 61.646 200.877 61.471 200.163 61.275C199.043 60.967 198.21 60.533 197.664 59.973C197.132 59.399 196.866 58.692 196.866 57.852C196.866 57.222 197.048 56.655 197.412 56.151C197.776 55.647 198.287 55.255 198.945 54.975C199.617 54.681 200.394 54.534 201.276 54.534ZM208.658 62.745C209.162 62.745 209.589 62.92 209.939 63.27C210.289 63.62 210.464 64.04 210.464 64.53C210.464 65.02 210.289 65.447 209.939 65.811C209.589 66.161 209.162 66.336 208.658 66.336C208.168 66.336 207.748 66.161 207.398 65.811C207.048 65.447 206.873 65.02 206.873 64.53C206.873 64.04 207.048 63.62 207.398 63.27C207.748 62.92 208.168 62.745 208.658 62.745Z" fill="#E3000F"/>
<path d="M21.312 81.9141V94H19.2285V81.9141H21.312ZM28.5752 81.9141L23.6777 87.7329L20.8887 90.688L20.5234 88.6211L22.5156 86.1641L26.0352 81.9141H28.5752ZM26.334 94L22.3579 88.2725L23.7939 86.853L28.8076 94H26.334ZM34.9751 91.8833V85.0186H36.9839V94H35.0913L34.9751 91.8833ZM35.2573 90.0156L35.9297 89.999C35.9297 90.6022 35.8633 91.1584 35.7305 91.6675C35.5977 92.1711 35.3929 92.611 35.1162 92.9873C34.8395 93.3581 34.4854 93.6486 34.0537 93.8589C33.6221 94.0636 33.1047 94.166 32.5015 94.166C32.0643 94.166 31.6631 94.1024 31.2979 93.9751C30.9326 93.8478 30.6172 93.6514 30.3516 93.3857C30.0915 93.1201 29.8895 92.7743 29.7456 92.3481C29.6017 91.922 29.5298 91.4129 29.5298 90.8208V85.0186H31.5303V90.8374C31.5303 91.1639 31.569 91.4378 31.6465 91.6592C31.724 91.875 31.8291 92.0493 31.9619 92.1821C32.0947 92.3149 32.2497 92.409 32.4268 92.4644C32.6038 92.5197 32.792 92.5474 32.9912 92.5474C33.5612 92.5474 34.0094 92.4367 34.3359 92.2153C34.668 91.9884 34.9032 91.6841 35.0415 91.3022C35.1854 90.9204 35.2573 90.4915 35.2573 90.0156ZM41.1758 85.0186V94H39.167V85.0186H41.1758ZM39.0342 82.6611C39.0342 82.3568 39.1338 82.105 39.333 81.9058C39.5378 81.701 39.82 81.5986 40.1797 81.5986C40.5339 81.5986 40.8133 81.701 41.0181 81.9058C41.2228 82.105 41.3252 82.3568 41.3252 82.6611C41.3252 82.96 41.2228 83.209 41.0181 83.4082C40.8133 83.6074 40.5339 83.707 40.1797 83.707C39.82 83.707 39.5378 83.6074 39.333 83.4082C39.1338 83.209 39.0342 82.96 39.0342 82.6611ZM51.5601 94.166C50.896 94.166 50.2956 94.0581 49.7588 93.8423C49.2275 93.6209 48.7738 93.3138 48.3975 92.9209C48.0267 92.528 47.7417 92.0659 47.5425 91.5347C47.3433 91.0034 47.2437 90.4307 47.2437 89.8164V89.4844C47.2437 88.7816 47.346 88.1452 47.5508 87.5752C47.7555 87.0052 48.0405 86.5182 48.4058 86.1143C48.771 85.7048 49.2026 85.3921 49.7007 85.1763C50.1987 84.9604 50.7383 84.8525 51.3193 84.8525C51.9613 84.8525 52.5229 84.9604 53.0044 85.1763C53.4858 85.3921 53.8843 85.6965 54.1997 86.0894C54.5207 86.4767 54.7586 86.9388 54.9136 87.4756C55.0741 88.0124 55.1543 88.6045 55.1543 89.252V90.1069H48.2148V88.6709H53.1787V88.5132C53.1676 88.1535 53.0957 87.8159 52.9629 87.5005C52.8356 87.1851 52.6392 86.9305 52.3735 86.7368C52.1079 86.5431 51.7537 86.4463 51.311 86.4463C50.979 86.4463 50.6829 86.5182 50.4229 86.6621C50.1683 86.8005 49.9552 87.0024 49.7837 87.2681C49.6121 87.5337 49.4793 87.8547 49.3853 88.231C49.2967 88.6017 49.2524 89.0195 49.2524 89.4844V89.8164C49.2524 90.2093 49.305 90.5745 49.4102 90.9121C49.5208 91.2441 49.6813 91.5347 49.8916 91.7837C50.1019 92.0327 50.3564 92.2292 50.6553 92.373C50.9541 92.5114 51.2944 92.5806 51.6763 92.5806C52.1577 92.5806 52.5866 92.4837 52.9629 92.29C53.3392 92.0964 53.6657 91.8224 53.9424 91.4683L54.9966 92.4893C54.8029 92.7715 54.5511 93.0426 54.2412 93.3027C53.9313 93.5573 53.5522 93.7648 53.104 93.9253C52.6613 94.0858 52.1466 94.166 51.5601 94.166ZM58.8564 85.0186V94H56.8477V85.0186H58.8564ZM56.7148 82.6611C56.7148 82.3568 56.8145 82.105 57.0137 81.9058C57.2184 81.701 57.5007 81.5986 57.8604 81.5986C58.2145 81.5986 58.494 81.701 58.6987 81.9058C58.9035 82.105 59.0059 82.3568 59.0059 82.6611C59.0059 82.96 58.9035 83.209 58.6987 83.4082C58.494 83.6074 58.2145 83.707 57.8604 83.707C57.5007 83.707 57.2184 83.6074 57.0137 83.4082C56.8145 83.209 56.7148 82.96 56.7148 82.6611ZM65.3809 85.0186H67.3896V94.7803C67.3896 95.3945 67.2845 95.9119 67.0742 96.3325C66.8639 96.7586 66.554 97.0796 66.1445 97.2954C65.735 97.5168 65.2342 97.6274 64.6421 97.6274C64.465 97.6274 64.2824 97.6136 64.0942 97.5859C63.9006 97.5638 63.7179 97.5306 63.5464 97.4863L63.5547 95.9258C63.6709 95.9479 63.7954 95.9645 63.9282 95.9756C64.0555 95.9922 64.1772 96.0005 64.2935 96.0005C64.5314 96.0005 64.7306 95.959 64.8911 95.876C65.0516 95.793 65.1733 95.6629 65.2563 95.4858C65.3394 95.3088 65.3809 95.0736 65.3809 94.7803V85.0186ZM65.2065 82.6611C65.2065 82.3568 65.3089 82.105 65.5137 81.9058C65.7184 81.701 65.9979 81.5986 66.3521 81.5986C66.7118 81.5986 66.9912 81.701 67.1904 81.9058C67.3952 82.105 67.4976 82.3568 67.4976 82.6611C67.4976 82.96 67.3952 83.209 67.1904 83.4082C66.9912 83.6074 66.7118 83.707 66.3521 83.707C65.9979 83.707 65.7184 83.6074 65.5137 83.4082C65.3089 83.209 65.2065 82.96 65.2065 82.6611ZM69.166 89.6089V89.418C69.166 88.7705 69.2601 88.1701 69.4482 87.6167C69.6364 87.0578 69.9076 86.5736 70.2617 86.1641C70.6214 85.749 71.0586 85.4281 71.5732 85.2012C72.0934 84.9688 72.68 84.8525 73.333 84.8525C73.9915 84.8525 74.5781 84.9688 75.0928 85.2012C75.613 85.4281 76.0529 85.749 76.4126 86.1641C76.7723 86.5736 77.0462 87.0578 77.2344 87.6167C77.4225 88.1701 77.5166 88.7705 77.5166 89.418V89.6089C77.5166 90.2563 77.4225 90.8568 77.2344 91.4102C77.0462 91.9635 76.7723 92.4478 76.4126 92.8628C76.0529 93.2723 75.6157 93.5933 75.1011 93.8257C74.5864 94.0526 74.0026 94.166 73.3496 94.166C72.6911 94.166 72.1017 94.0526 71.5815 93.8257C71.0669 93.5933 70.6297 93.2723 70.27 92.8628C69.9103 92.4478 69.6364 91.9635 69.4482 91.4102C69.2601 90.8568 69.166 90.2563 69.166 89.6089ZM71.1665 89.418V89.6089C71.1665 90.0129 71.208 90.3947 71.291 90.7544C71.374 91.1141 71.5041 91.4295 71.6812 91.7007C71.8582 91.9718 72.0851 92.1849 72.3618 92.3398C72.6385 92.4948 72.9678 92.5723 73.3496 92.5723C73.7204 92.5723 74.0413 92.4948 74.3125 92.3398C74.5892 92.1849 74.8161 91.9718 74.9932 91.7007C75.1702 91.4295 75.3003 91.1141 75.3833 90.7544C75.4718 90.3947 75.5161 90.0129 75.5161 89.6089V89.418C75.5161 89.0195 75.4718 88.6432 75.3833 88.2891C75.3003 87.9294 75.1675 87.6112 74.9849 87.3345C74.8078 87.0578 74.5809 86.842 74.3042 86.687C74.033 86.5265 73.7093 86.4463 73.333 86.4463C72.9567 86.4463 72.6302 86.5265 72.3535 86.687C72.0824 86.842 71.8582 87.0578 71.6812 87.3345C71.5041 87.6112 71.374 87.9294 71.291 88.2891C71.208 88.6432 71.1665 89.0195 71.1665 89.418ZM75.1177 81.3496L76.3379 81.4409C76.3379 81.8449 76.2576 82.2074 76.0972 82.5283C75.9367 82.8438 75.7181 83.0928 75.4414 83.2754C75.1647 83.458 74.8521 83.5493 74.5034 83.5493C74.2323 83.5493 74.0026 83.5106 73.8145 83.4331C73.6263 83.3556 73.4548 83.2671 73.2998 83.1675C73.1449 83.0679 72.9844 82.9821 72.8184 82.9102C72.6579 82.8327 72.467 82.7939 72.2456 82.7939C72.0353 82.7939 71.8555 82.8714 71.7061 83.0264C71.5622 83.1813 71.4902 83.3888 71.4902 83.6489L70.2617 83.5825C70.2617 83.1841 70.342 82.8244 70.5024 82.5034C70.6629 82.1825 70.8815 81.9279 71.1582 81.7397C71.4349 81.5516 71.7476 81.4575 72.0962 81.4575C72.3231 81.4575 72.5278 81.4963 72.7104 81.5737C72.8986 81.6457 73.0757 81.7314 73.2417 81.8311C73.4132 81.9307 73.5876 82.0192 73.7646 82.0967C73.9417 82.1742 74.1382 82.2129 74.354 82.2129C74.5643 82.2129 74.7441 82.1326 74.8936 81.9722C75.043 81.8117 75.1177 81.6042 75.1177 81.3496ZM84.5972 91.8833V85.0186H86.606V94H84.7134L84.5972 91.8833ZM84.8794 90.0156L85.5518 89.999C85.5518 90.6022 85.4854 91.1584 85.3525 91.6675C85.2197 92.1711 85.015 92.611 84.7383 92.9873C84.4616 93.3581 84.1074 93.6486 83.6758 93.8589C83.2441 94.0636 82.7267 94.166 82.1235 94.166C81.6864 94.166 81.2852 94.1024 80.9199 93.9751C80.5547 93.8478 80.2393 93.6514 79.9736 93.3857C79.7135 93.1201 79.5116 92.7743 79.3677 92.3481C79.2238 91.922 79.1519 91.4129 79.1519 90.8208V85.0186H81.1523V90.8374C81.1523 91.1639 81.1911 91.4378 81.2686 91.6592C81.346 91.875 81.4512 92.0493 81.584 92.1821C81.7168 92.3149 81.8717 92.409 82.0488 92.4644C82.2259 92.5197 82.4141 92.5474 82.6133 92.5474C83.1833 92.5474 83.6315 92.4367 83.958 92.2153C84.29 91.9884 84.5252 91.6841 84.6636 91.3022C84.8075 90.9204 84.8794 90.4915 84.8794 90.0156ZM93.7197 92.1987V87.9155C93.7197 87.5946 93.6616 87.3179 93.5454 87.0854C93.4292 86.853 93.2521 86.6732 93.0142 86.5459C92.7817 86.4186 92.4884 86.355 92.1343 86.355C91.8078 86.355 91.5256 86.4103 91.2876 86.521C91.0496 86.6317 90.8643 86.7811 90.7314 86.9692C90.5986 87.1574 90.5322 87.3704 90.5322 87.6084H88.54C88.54 87.2542 88.6258 86.9111 88.7974 86.5791C88.9689 86.2471 89.2179 85.951 89.5444 85.6909C89.8709 85.4308 90.2611 85.2261 90.7148 85.0767C91.1686 84.9272 91.6777 84.8525 92.2422 84.8525C92.9173 84.8525 93.515 84.966 94.0352 85.1929C94.5609 85.4198 94.9731 85.7629 95.272 86.2222C95.5763 86.6759 95.7285 87.2459 95.7285 87.9321V91.9248C95.7285 92.3343 95.7562 92.7023 95.8115 93.0288C95.8724 93.3498 95.9582 93.6292 96.0688 93.8672V94H94.0186C93.9245 93.7842 93.8498 93.5103 93.7944 93.1782C93.7446 92.8407 93.7197 92.5142 93.7197 92.1987ZM94.0103 88.5381L94.0269 89.7749H92.5908C92.2201 89.7749 91.8936 89.8109 91.6113 89.8828C91.3291 89.9492 91.0939 90.0488 90.9058 90.1816C90.7176 90.3145 90.5765 90.4749 90.4824 90.6631C90.3883 90.8512 90.3413 91.0643 90.3413 91.3022C90.3413 91.5402 90.3966 91.7588 90.5073 91.958C90.618 92.1517 90.7785 92.3039 90.9888 92.4146C91.2046 92.5252 91.4647 92.5806 91.769 92.5806C92.1785 92.5806 92.5355 92.4976 92.8398 92.3315C93.1497 92.16 93.3932 91.9525 93.5703 91.709C93.7474 91.46 93.8415 91.2248 93.8525 91.0034L94.5 91.8916C94.4336 92.1185 94.3201 92.362 94.1597 92.6221C93.9992 92.8822 93.7889 93.1312 93.5288 93.3691C93.2743 93.6016 92.9671 93.7925 92.6074 93.9419C92.2533 94.0913 91.8438 94.166 91.3789 94.166C90.7923 94.166 90.2694 94.0498 89.8101 93.8174C89.3507 93.5794 88.991 93.2612 88.731 92.8628C88.4709 92.4588 88.3408 92.0023 88.3408 91.4932C88.3408 91.0173 88.4294 90.5967 88.6064 90.2314C88.7891 89.8607 89.0547 89.5508 89.4033 89.3018C89.7575 89.0527 90.1891 88.8646 90.6982 88.7373C91.2074 88.6045 91.7884 88.5381 92.4414 88.5381H94.0103ZM99.6963 92.0742L99.688 93.502C99.688 94.0664 99.5469 94.6475 99.2646 95.2451C98.9824 95.8428 98.6089 96.3353 98.144 96.7227L97.0732 96.1001C97.2282 95.8511 97.3693 95.5993 97.4966 95.3447C97.6239 95.0902 97.7262 94.819 97.8037 94.5312C97.8812 94.2435 97.9199 93.9253 97.9199 93.5767V92.0742H99.6963ZM105.474 89.6089V89.418C105.474 88.7705 105.568 88.1701 105.756 87.6167C105.944 87.0578 106.215 86.5736 106.569 86.1641C106.929 85.749 107.366 85.4281 107.881 85.2012C108.401 84.9688 108.988 84.8525 109.641 84.8525C110.299 84.8525 110.886 84.9688 111.4 85.2012C111.921 85.4281 112.361 85.749 112.72 86.1641C113.08 86.5736 113.354 87.0578 113.542 87.6167C113.73 88.1701 113.824 88.7705 113.824 89.418V89.6089C113.824 90.2563 113.73 90.8568 113.542 91.4102C113.354 91.9635 113.08 92.4478 112.72 92.8628C112.361 93.2723 111.923 93.5933 111.409 93.8257C110.894 94.0526 110.31 94.166 109.657 94.166C108.999 94.166 108.409 94.0526 107.889 93.8257C107.375 93.5933 106.937 93.2723 106.578 92.8628C106.218 92.4478 105.944 91.9635 105.756 91.4102C105.568 90.8568 105.474 90.2563 105.474 89.6089ZM107.474 89.418V89.6089C107.474 90.0129 107.516 90.3947 107.599 90.7544C107.682 91.1141 107.812 91.4295 107.989 91.7007C108.166 91.9718 108.393 92.1849 108.669 92.3398C108.946 92.4948 109.275 92.5723 109.657 92.5723C110.028 92.5723 110.349 92.4948 110.62 92.3398C110.897 92.1849 111.124 91.9718 111.301 91.7007C111.478 91.4295 111.608 91.1141 111.691 90.7544C111.779 90.3947 111.824 90.0129 111.824 89.6089V89.418C111.824 89.0195 111.779 88.6432 111.691 88.2891C111.608 87.9294 111.475 87.6112 111.292 87.3345C111.115 87.0578 110.889 86.842 110.612 86.687C110.341 86.5265 110.017 86.4463 109.641 86.4463C109.264 86.4463 108.938 86.5265 108.661 86.687C108.39 86.842 108.166 87.0578 107.989 87.3345C107.812 87.6112 107.682 87.9294 107.599 88.2891C107.516 88.6432 107.474 89.0195 107.474 89.418ZM117.485 86.936V94H115.484V85.0186H117.369L117.485 86.936ZM117.128 89.1772L116.48 89.1689C116.486 88.5326 116.575 87.9487 116.746 87.4175C116.923 86.8862 117.167 86.4297 117.477 86.0479C117.792 85.666 118.168 85.3727 118.605 85.168C119.043 84.9577 119.53 84.8525 120.066 84.8525C120.498 84.8525 120.888 84.9134 121.237 85.0352C121.591 85.1514 121.893 85.3423 122.142 85.6079C122.396 85.8735 122.59 86.2194 122.723 86.6455C122.855 87.0661 122.922 87.5835 122.922 88.1978V94H120.913V88.1895C120.913 87.7578 120.849 87.4175 120.722 87.1685C120.6 86.9139 120.421 86.734 120.183 86.6289C119.95 86.5182 119.66 86.4629 119.311 86.4629C118.968 86.4629 118.661 86.5348 118.39 86.6787C118.118 86.8226 117.889 87.019 117.701 87.2681C117.518 87.5171 117.377 87.8049 117.277 88.1313C117.178 88.4578 117.128 88.8065 117.128 89.1772ZM133.97 81.9141V94H131.903V81.9141H133.97ZM137.764 81.9141V83.5742H128.143V81.9141H137.764ZM141.3 85.0186V94H139.291V85.0186H141.3ZM139.158 82.6611C139.158 82.3568 139.258 82.105 139.457 81.9058C139.662 81.701 139.944 81.5986 140.304 81.5986C140.658 81.5986 140.937 81.701 141.142 81.9058C141.347 82.105 141.449 82.3568 141.449 82.6611C141.449 82.96 141.347 83.209 141.142 83.4082C140.937 83.6074 140.658 83.707 140.304 83.707C139.944 83.707 139.662 83.6074 139.457 83.4082C139.258 83.209 139.158 82.96 139.158 82.6611ZM145.633 85.0186V94H143.624V85.0186H145.633ZM143.491 82.6611C143.491 82.3568 143.591 82.105 143.79 81.9058C143.995 81.701 144.277 81.5986 144.637 81.5986C144.991 81.5986 145.27 81.701 145.475 81.9058C145.68 82.105 145.782 82.3568 145.782 82.6611C145.782 82.96 145.68 83.209 145.475 83.4082C145.27 83.6074 144.991 83.707 144.637 83.707C144.277 83.707 143.995 83.6074 143.79 83.4082C143.591 83.209 143.491 82.96 143.491 82.6611ZM153.228 91.8833V85.0186H155.237V94H153.344L153.228 91.8833ZM153.51 90.0156L154.183 89.999C154.183 90.6022 154.116 91.1584 153.983 91.6675C153.851 92.1711 153.646 92.611 153.369 92.9873C153.092 93.3581 152.738 93.6486 152.307 93.8589C151.875 94.0636 151.358 94.166 150.754 94.166C150.317 94.166 149.916 94.1024 149.551 93.9751C149.186 93.8478 148.87 93.6514 148.604 93.3857C148.344 93.1201 148.142 92.7743 147.999 92.3481C147.855 91.922 147.783 91.4129 147.783 90.8208V85.0186H149.783V90.8374C149.783 91.1639 149.822 91.4378 149.899 91.6592C149.977 91.875 150.082 92.0493 150.215 92.1821C150.348 92.3149 150.503 92.409 150.68 92.4644C150.857 92.5197 151.045 92.5474 151.244 92.5474C151.814 92.5474 152.262 92.4367 152.589 92.2153C152.921 91.9884 153.156 91.6841 153.294 91.3022C153.438 90.9204 153.51 90.4915 153.51 90.0156ZM164.442 92.4146L166.642 85.0186H168.717L165.596 94H164.301L164.442 92.4146ZM162.757 85.0186L164.999 92.4478L165.106 94H163.812L160.674 85.0186H162.757ZM173.797 94.166C173.133 94.166 172.533 94.0581 171.996 93.8423C171.465 93.6209 171.011 93.3138 170.635 92.9209C170.264 92.528 169.979 92.0659 169.78 91.5347C169.581 91.0034 169.481 90.4307 169.481 89.8164V89.4844C169.481 88.7816 169.583 88.1452 169.788 87.5752C169.993 87.0052 170.278 86.5182 170.643 86.1143C171.008 85.7048 171.44 85.3921 171.938 85.1763C172.436 84.9604 172.976 84.8525 173.557 84.8525C174.199 84.8525 174.76 84.9604 175.242 85.1763C175.723 85.3921 176.122 85.6965 176.437 86.0894C176.758 86.4767 176.996 86.9388 177.151 87.4756C177.311 88.0124 177.392 88.6045 177.392 89.252V90.1069H170.452V88.6709H175.416V88.5132C175.405 88.1535 175.333 87.8159 175.2 87.5005C175.073 87.1851 174.876 86.9305 174.611 86.7368C174.345 86.5431 173.991 86.4463 173.548 86.4463C173.216 86.4463 172.92 86.5182 172.66 86.6621C172.406 86.8005 172.193 87.0024 172.021 87.2681C171.849 87.5337 171.717 87.8547 171.623 88.231C171.534 88.6017 171.49 89.0195 171.49 89.4844V89.8164C171.49 90.2093 171.542 90.5745 171.647 90.9121C171.758 91.2441 171.919 91.5347 172.129 91.7837C172.339 92.0327 172.594 92.2292 172.893 92.373C173.191 92.5114 173.532 92.5806 173.914 92.5806C174.395 92.5806 174.824 92.4837 175.2 92.29C175.576 92.0964 175.903 91.8224 176.18 91.4683L177.234 92.4893C177.04 92.7715 176.788 93.0426 176.479 93.3027C176.169 93.5573 175.79 93.7648 175.341 93.9253C174.899 94.0858 174.384 94.166 173.797 94.166ZM182.912 94.166C182.248 94.166 181.647 94.0581 181.11 93.8423C180.579 93.6209 180.125 93.3138 179.749 92.9209C179.378 92.528 179.093 92.0659 178.894 91.5347C178.695 91.0034 178.595 90.4307 178.595 89.8164V89.4844C178.595 88.7816 178.698 88.1452 178.902 87.5752C179.107 87.0052 179.392 86.5182 179.757 86.1143C180.123 85.7048 180.554 85.3921 181.052 85.1763C181.55 84.9604 182.09 84.8525 182.671 84.8525C183.313 84.8525 183.875 84.9604 184.356 85.1763C184.837 85.3921 185.236 85.6965 185.551 86.0894C185.872 86.4767 186.11 86.9388 186.265 87.4756C186.426 88.0124 186.506 88.6045 186.506 89.252V90.1069H179.566V88.6709H184.53V88.5132C184.519 88.1535 184.447 87.8159 184.314 87.5005C184.187 87.1851 183.991 86.9305 183.725 86.7368C183.459 86.5431 183.105 86.4463 182.663 86.4463C182.331 86.4463 182.035 86.5182 181.774 86.6621C181.52 86.8005 181.307 87.0024 181.135 87.2681C180.964 87.5337 180.831 87.8547 180.737 88.231C180.648 88.6017 180.604 89.0195 180.604 89.4844V89.8164C180.604 90.2093 180.657 90.5745 180.762 90.9121C180.872 91.2441 181.033 91.5347 181.243 91.7837C181.453 92.0327 181.708 92.2292 182.007 92.373C182.306 92.5114 182.646 92.5806 183.028 92.5806C183.509 92.5806 183.938 92.4837 184.314 92.29C184.691 92.0964 185.017 91.8224 185.294 91.4683L186.348 92.4893C186.154 92.7715 185.903 93.0426 185.593 93.3027C185.283 93.5573 184.904 93.7648 184.456 93.9253C184.013 94.0858 183.498 94.166 182.912 94.166ZM188.075 81.25H190.075V92.0825L189.884 94H188.075V81.25ZM195.936 89.4263V89.6006C195.936 90.2646 195.861 90.8761 195.711 91.4351C195.568 91.9884 195.346 92.4699 195.047 92.8794C194.754 93.2889 194.389 93.6071 193.952 93.834C193.52 94.0553 193.019 94.166 192.449 94.166C191.89 94.166 191.403 94.0609 190.988 93.8506C190.573 93.6403 190.225 93.3415 189.942 92.9541C189.666 92.5667 189.442 92.1047 189.27 91.5679C189.098 91.0311 188.977 90.439 188.905 89.7915V89.2354C188.977 88.5824 189.098 87.9902 189.27 87.459C189.442 86.9222 189.666 86.4601 189.942 86.0728C190.225 85.6799 190.57 85.3783 190.98 85.168C191.395 84.9577 191.879 84.8525 192.433 84.8525C193.008 84.8525 193.514 84.9632 193.952 85.1846C194.394 85.4059 194.762 85.7214 195.056 86.1309C195.349 86.5348 195.568 87.0163 195.711 87.5752C195.861 88.1341 195.936 88.7511 195.936 89.4263ZM193.935 89.6006V89.4263C193.935 89.0223 193.902 88.6432 193.835 88.2891C193.769 87.9294 193.658 87.6139 193.503 87.3428C193.354 87.0716 193.149 86.8586 192.889 86.7036C192.635 86.5431 192.316 86.4629 191.935 86.4629C191.58 86.4629 191.276 86.5238 191.021 86.6455C190.767 86.7673 190.554 86.9333 190.382 87.1436C190.211 87.3538 190.075 87.5973 189.976 87.874C189.882 88.1507 189.818 88.4495 189.785 88.7705V90.2729C189.834 90.688 189.94 91.0698 190.1 91.4185C190.266 91.7616 190.499 92.0382 190.797 92.2485C191.096 92.4533 191.481 92.5557 191.951 92.5557C192.322 92.5557 192.635 92.481 192.889 92.3315C193.144 92.1821 193.346 91.9746 193.495 91.709C193.65 91.4378 193.761 91.1224 193.827 90.7627C193.899 90.403 193.935 90.0156 193.935 89.6006ZM199.771 85.0186V94H197.762V85.0186H199.771ZM197.629 82.6611C197.629 82.3568 197.729 82.105 197.928 81.9058C198.132 81.701 198.415 81.5986 198.774 81.5986C199.129 81.5986 199.408 81.701 199.613 81.9058C199.818 82.105 199.92 82.3568 199.92 82.6611C199.92 82.96 199.818 83.209 199.613 83.4082C199.408 83.6074 199.129 83.707 198.774 83.707C198.415 83.707 198.132 83.6074 197.928 83.4082C197.729 83.209 197.629 82.96 197.629 82.6611ZM203.971 86.7451V97.4531H201.97V85.0186H203.813L203.971 86.7451ZM209.823 89.4263V89.6006C209.823 90.2536 209.745 90.8595 209.59 91.4185C209.441 91.9718 209.217 92.4561 208.918 92.8711C208.625 93.2806 208.262 93.5988 207.831 93.8257C207.399 94.0526 206.901 94.166 206.336 94.166C205.778 94.166 205.288 94.0636 204.867 93.8589C204.452 93.6486 204.101 93.3525 203.813 92.9707C203.525 92.5889 203.293 92.1406 203.116 91.626C202.944 91.1058 202.822 90.5358 202.75 89.916V89.2437C202.822 88.5851 202.944 87.9875 203.116 87.4507C203.293 86.9139 203.525 86.4518 203.813 86.0645C204.101 85.6771 204.452 85.3783 204.867 85.168C205.282 84.9577 205.766 84.8525 206.32 84.8525C206.884 84.8525 207.385 84.9632 207.822 85.1846C208.259 85.4004 208.627 85.7103 208.926 86.1143C209.225 86.5127 209.449 86.9941 209.599 87.5586C209.748 88.1175 209.823 88.7401 209.823 89.4263ZM207.822 89.6006V89.4263C207.822 89.0112 207.784 88.6266 207.706 88.2725C207.629 87.9128 207.507 87.5973 207.341 87.3262C207.175 87.055 206.962 86.8447 206.702 86.6953C206.447 86.5404 206.14 86.4629 205.78 86.4629C205.426 86.4629 205.122 86.5238 204.867 86.6455C204.613 86.7617 204.4 86.925 204.228 87.1353C204.056 87.3455 203.924 87.5918 203.83 87.874C203.736 88.1507 203.669 88.4523 203.63 88.7788V90.3892C203.697 90.7876 203.81 91.1528 203.971 91.4849C204.131 91.8169 204.358 92.0825 204.651 92.2817C204.95 92.4754 205.332 92.5723 205.797 92.5723C206.157 92.5723 206.464 92.4948 206.718 92.3398C206.973 92.1849 207.18 91.9718 207.341 91.7007C207.507 91.424 207.629 91.1058 207.706 90.7461C207.784 90.3864 207.822 90.0046 207.822 89.6006ZM211.143 89.6089V89.418C211.143 88.7705 211.237 88.1701 211.425 87.6167C211.613 87.0578 211.884 86.5736 212.238 86.1641C212.598 85.749 213.035 85.4281 213.55 85.2012C214.07 84.9688 214.657 84.8525 215.31 84.8525C215.968 84.8525 216.555 84.9688 217.069 85.2012C217.59 85.4281 218.029 85.749 218.389 86.1641C218.749 86.5736 219.023 87.0578 219.211 87.6167C219.399 88.1701 219.493 88.7705 219.493 89.418V89.6089C219.493 90.2563 219.399 90.8568 219.211 91.4102C219.023 91.9635 218.749 92.4478 218.389 92.8628C218.029 93.2723 217.592 93.5933 217.078 93.8257C216.563 94.0526 215.979 94.166 215.326 94.166C214.668 94.166 214.078 94.0526 213.558 93.8257C213.043 93.5933 212.606 93.2723 212.247 92.8628C211.887 92.4478 211.613 91.9635 211.425 91.4102C211.237 90.8568 211.143 90.2563 211.143 89.6089ZM213.143 89.418V89.6089C213.143 90.0129 213.185 90.3947 213.268 90.7544C213.351 91.1141 213.481 91.4295 213.658 91.7007C213.835 91.9718 214.062 92.1849 214.338 92.3398C214.615 92.4948 214.944 92.5723 215.326 92.5723C215.697 92.5723 216.018 92.4948 216.289 92.3398C216.566 92.1849 216.793 91.9718 216.97 91.7007C217.147 91.4295 217.277 91.1141 217.36 90.7544C217.448 90.3947 217.493 90.0129 217.493 89.6089V89.418C217.493 89.0195 217.448 88.6432 217.36 88.2891C217.277 87.9294 217.144 87.6112 216.961 87.3345C216.784 87.0578 216.557 86.842 216.281 86.687C216.01 86.5265 215.686 86.4463 215.31 86.4463C214.933 86.4463 214.607 86.5265 214.33 86.687C214.059 86.842 213.835 87.0578 213.658 87.3345C213.481 87.6112 213.351 87.9294 213.268 88.2891C213.185 88.6432 213.143 89.0195 213.143 89.418ZM223.179 86.7285V94H221.178V85.0186H223.087L223.179 86.7285ZM225.926 84.9604L225.91 86.8198C225.788 86.7977 225.655 86.7811 225.511 86.77C225.373 86.759 225.235 86.7534 225.096 86.7534C224.753 86.7534 224.451 86.8032 224.191 86.9028C223.931 86.9969 223.713 87.1353 223.536 87.3179C223.364 87.495 223.231 87.7108 223.137 87.9653C223.043 88.2199 222.988 88.5049 222.971 88.8203L222.515 88.8535C222.515 88.2891 222.57 87.7661 222.681 87.2847C222.791 86.8032 222.957 86.3799 223.179 86.0146C223.406 85.6494 223.688 85.3644 224.025 85.1597C224.368 84.9549 224.764 84.8525 225.212 84.8525C225.334 84.8525 225.464 84.8636 225.603 84.8857C225.746 84.9079 225.854 84.9328 225.926 84.9604ZM231.712 85.0186V86.4795H226.648V85.0186H231.712ZM228.109 82.8188H230.11V91.5181C230.11 91.7948 230.149 92.0078 230.226 92.1572C230.309 92.3011 230.423 92.3979 230.566 92.4478C230.71 92.4976 230.879 92.5225 231.073 92.5225C231.211 92.5225 231.344 92.5142 231.471 92.4976C231.598 92.481 231.701 92.4644 231.778 92.4478L231.787 93.9751C231.621 94.0249 231.427 94.0692 231.206 94.1079C230.99 94.1466 230.741 94.166 230.458 94.166C229.999 94.166 229.592 94.0858 229.238 93.9253C228.884 93.7593 228.607 93.4909 228.408 93.1201C228.209 92.7493 228.109 92.2568 228.109 91.6426V82.8188ZM238.319 92.1987V87.9155C238.319 87.5946 238.261 87.3179 238.145 87.0854C238.029 86.853 237.852 86.6732 237.614 86.5459C237.381 86.4186 237.088 86.355 236.734 86.355C236.407 86.355 236.125 86.4103 235.887 86.521C235.649 86.6317 235.464 86.7811 235.331 86.9692C235.198 87.1574 235.132 87.3704 235.132 87.6084H233.14C233.14 87.2542 233.225 86.9111 233.397 86.5791C233.569 86.2471 233.818 85.951 234.144 85.6909C234.471 85.4308 234.861 85.2261 235.314 85.0767C235.768 84.9272 236.277 84.8525 236.842 84.8525C237.517 84.8525 238.115 84.966 238.635 85.1929C239.16 85.4198 239.573 85.7629 239.872 86.2222C240.176 86.6759 240.328 87.2459 240.328 87.9321V91.9248C240.328 92.3343 240.356 92.7023 240.411 93.0288C240.472 93.3498 240.558 93.6292 240.668 93.8672V94H238.618C238.524 93.7842 238.449 93.5103 238.394 93.1782C238.344 92.8407 238.319 92.5142 238.319 92.1987ZM238.61 88.5381L238.626 89.7749H237.19C236.82 89.7749 236.493 89.8109 236.211 89.8828C235.929 89.9492 235.694 90.0488 235.505 90.1816C235.317 90.3145 235.176 90.4749 235.082 90.6631C234.988 90.8512 234.941 91.0643 234.941 91.3022C234.941 91.5402 234.996 91.7588 235.107 91.958C235.218 92.1517 235.378 92.3039 235.588 92.4146C235.804 92.5252 236.064 92.5806 236.369 92.5806C236.778 92.5806 237.135 92.4976 237.439 92.3315C237.749 92.16 237.993 91.9525 238.17 91.709C238.347 91.46 238.441 91.2248 238.452 91.0034L239.1 91.8916C239.033 92.1185 238.92 92.362 238.759 92.6221C238.599 92.8822 238.389 93.1312 238.128 93.3691C237.874 93.6016 237.567 93.7925 237.207 93.9419C236.853 94.0913 236.443 94.166 235.979 94.166C235.392 94.166 234.869 94.0498 234.41 93.8174C233.95 93.5794 233.591 93.2612 233.331 92.8628C233.07 92.4588 232.94 92.0023 232.94 91.4932C232.94 91.0173 233.029 90.5967 233.206 90.2314C233.389 89.8607 233.654 89.5508 234.003 89.3018C234.357 89.0527 234.789 88.8646 235.298 88.7373C235.807 88.6045 236.388 88.5381 237.041 88.5381H238.61ZM247.483 92.1987V87.9155C247.483 87.5946 247.425 87.3179 247.309 87.0854C247.193 86.853 247.016 86.6732 246.778 86.5459C246.545 86.4186 246.252 86.355 245.898 86.355C245.571 86.355 245.289 86.4103 245.051 86.521C244.813 86.6317 244.628 86.7811 244.495 86.9692C244.362 87.1574 244.296 87.3704 244.296 87.6084H242.304C242.304 87.2542 242.389 86.9111 242.561 86.5791C242.733 86.2471 242.982 85.951 243.308 85.6909C243.635 85.4308 244.025 85.2261 244.479 85.0767C244.932 84.9272 245.441 84.8525 246.006 84.8525C246.681 84.8525 247.279 84.966 247.799 85.1929C248.325 85.4198 248.737 85.7629 249.036 86.2222C249.34 86.6759 249.492 87.2459 249.492 87.9321V91.9248C249.492 92.3343 249.52 92.7023 249.575 93.0288C249.636 93.3498 249.722 93.6292 249.833 93.8672V94H247.782C247.688 93.7842 247.613 93.5103 247.558 93.1782C247.508 92.8407 247.483 92.5142 247.483 92.1987ZM247.774 88.5381L247.791 89.7749H246.354C245.984 89.7749 245.657 89.8109 245.375 89.8828C245.093 89.9492 244.858 90.0488 244.669 90.1816C244.481 90.3145 244.34 90.4749 244.246 90.6631C244.152 90.8512 244.105 91.0643 244.105 91.3022C244.105 91.5402 244.16 91.7588 244.271 91.958C244.382 92.1517 244.542 92.3039 244.752 92.4146C244.968 92.5252 245.228 92.5806 245.533 92.5806C245.942 92.5806 246.299 92.4976 246.604 92.3315C246.913 92.16 247.157 91.9525 247.334 91.709C247.511 91.46 247.605 91.2248 247.616 91.0034L248.264 91.8916C248.197 92.1185 248.084 92.362 247.923 92.6221C247.763 92.8822 247.553 93.1312 247.292 93.3691C247.038 93.6016 246.731 93.7925 246.371 93.9419C246.017 94.0913 245.607 94.166 245.143 94.166C244.556 94.166 244.033 94.0498 243.574 93.8174C243.114 93.5794 242.755 93.2612 242.495 92.8628C242.235 92.4588 242.104 92.0023 242.104 91.4932C242.104 91.0173 242.193 90.5967 242.37 90.2314C242.553 89.8607 242.818 89.5508 243.167 89.3018C243.521 89.0527 243.953 88.8646 244.462 88.7373C244.971 88.6045 245.552 88.5381 246.205 88.5381H247.774ZM253.726 81.25V94H251.717V81.25H253.726ZM265.214 92.1987V87.9155C265.214 87.5946 265.156 87.3179 265.04 87.0854C264.923 86.853 264.746 86.6732 264.508 86.5459C264.276 86.4186 263.983 86.355 263.628 86.355C263.302 86.355 263.02 86.4103 262.782 86.521C262.544 86.6317 262.358 86.7811 262.226 86.9692C262.093 87.1574 262.026 87.3704 262.026 87.6084H260.034C260.034 87.2542 260.12 86.9111 260.292 86.5791C260.463 86.2471 260.712 85.951 261.039 85.6909C261.365 85.4308 261.755 85.2261 262.209 85.0767C262.663 84.9272 263.172 84.8525 263.736 84.8525C264.411 84.8525 265.009 84.966 265.529 85.1929C266.055 85.4198 266.467 85.7629 266.766 86.2222C267.07 86.6759 267.223 87.2459 267.223 87.9321V91.9248C267.223 92.3343 267.25 92.7023 267.306 93.0288C267.367 93.3498 267.452 93.6292 267.563 93.8672V94H265.513C265.419 93.7842 265.344 93.5103 265.289 93.1782C265.239 92.8407 265.214 92.5142 265.214 92.1987ZM265.504 88.5381L265.521 89.7749H264.085C263.714 89.7749 263.388 89.8109 263.105 89.8828C262.823 89.9492 262.588 90.0488 262.4 90.1816C262.212 90.3145 262.071 90.4749 261.977 90.6631C261.882 90.8512 261.835 91.0643 261.835 91.3022C261.835 91.5402 261.891 91.7588 262.001 91.958C262.112 92.1517 262.273 92.3039 262.483 92.4146C262.699 92.5252 262.959 92.5806 263.263 92.5806C263.673 92.5806 264.03 92.4976 264.334 92.3315C264.644 92.16 264.887 91.9525 265.064 91.709C265.242 91.46 265.336 91.2248 265.347 91.0034L265.994 91.8916C265.928 92.1185 265.814 92.362 265.654 92.6221C265.493 92.8822 265.283 93.1312 265.023 93.3691C264.768 93.6016 264.461 93.7925 264.102 93.9419C263.747 94.0913 263.338 94.166 262.873 94.166C262.286 94.166 261.764 94.0498 261.304 93.8174C260.845 93.5794 260.485 93.2612 260.225 92.8628C259.965 92.4588 259.835 92.0023 259.835 91.4932C259.835 91.0173 259.924 90.5967 260.101 90.2314C260.283 89.8607 260.549 89.5508 260.897 89.3018C261.252 89.0527 261.683 88.8646 262.192 88.7373C262.701 88.6045 263.283 88.5381 263.936 88.5381H265.504ZM271.456 81.25V94H269.447V81.25H271.456ZM278.711 92.1987V87.9155C278.711 87.5946 278.653 87.3179 278.537 87.0854C278.42 86.853 278.243 86.6732 278.005 86.5459C277.773 86.4186 277.48 86.355 277.125 86.355C276.799 86.355 276.517 86.4103 276.279 86.521C276.041 86.6317 275.855 86.7811 275.723 86.9692C275.59 87.1574 275.523 87.3704 275.523 87.6084H273.531C273.531 87.2542 273.617 86.9111 273.789 86.5791C273.96 86.2471 274.209 85.951 274.536 85.6909C274.862 85.4308 275.252 85.2261 275.706 85.0767C276.16 84.9272 276.669 84.8525 277.233 84.8525C277.909 84.8525 278.506 84.966 279.026 85.1929C279.552 85.4198 279.964 85.7629 280.263 86.2222C280.568 86.6759 280.72 87.2459 280.72 87.9321V91.9248C280.72 92.3343 280.747 92.7023 280.803 93.0288C280.864 93.3498 280.949 93.6292 281.06 93.8672V94H279.01C278.916 93.7842 278.841 93.5103 278.786 93.1782C278.736 92.8407 278.711 92.5142 278.711 92.1987ZM279.001 88.5381L279.018 89.7749H277.582C277.211 89.7749 276.885 89.8109 276.603 89.8828C276.32 89.9492 276.085 90.0488 275.897 90.1816C275.709 90.3145 275.568 90.4749 275.474 90.6631C275.38 90.8512 275.333 91.0643 275.333 91.3022C275.333 91.5402 275.388 91.7588 275.499 91.958C275.609 92.1517 275.77 92.3039 275.98 92.4146C276.196 92.5252 276.456 92.5806 276.76 92.5806C277.17 92.5806 277.527 92.4976 277.831 92.3315C278.141 92.16 278.384 91.9525 278.562 91.709C278.739 91.46 278.833 91.2248 278.844 91.0034L279.491 91.8916C279.425 92.1185 279.311 92.362 279.151 92.6221C278.99 92.8822 278.78 93.1312 278.52 93.3691C278.265 93.6016 277.958 93.7925 277.599 93.9419C277.244 94.0913 276.835 94.166 276.37 94.166C275.784 94.166 275.261 94.0498 274.801 93.8174C274.342 93.5794 273.982 93.2612 273.722 92.8628C273.462 92.4588 273.332 92.0023 273.332 91.4932C273.332 91.0173 273.421 90.5967 273.598 90.2314C273.78 89.8607 274.046 89.5508 274.395 89.3018C274.749 89.0527 275.18 88.8646 275.689 88.7373C276.199 88.6045 276.78 88.5381 277.433 88.5381H279.001ZM286.929 85.0186V86.4795H281.865V85.0186H286.929ZM283.326 82.8188H285.327V91.5181C285.327 91.7948 285.365 92.0078 285.443 92.1572C285.526 92.3011 285.639 92.3979 285.783 92.4478C285.927 92.4976 286.096 92.5225 286.29 92.5225C286.428 92.5225 286.561 92.5142 286.688 92.4976C286.815 92.481 286.918 92.4644 286.995 92.4478L287.003 93.9751C286.837 94.0249 286.644 94.0692 286.422 94.1079C286.207 94.1466 285.958 94.166 285.675 94.166C285.216 94.166 284.809 94.0858 284.455 93.9253C284.101 93.7593 283.824 93.4909 283.625 93.1201C283.426 92.7493 283.326 92.2568 283.326 91.6426V82.8188ZM290.614 85.0186V94H288.605V85.0186H290.614ZM288.473 82.6611C288.473 82.3568 288.572 82.105 288.771 81.9058C288.976 81.701 289.258 81.5986 289.618 81.5986C289.972 81.5986 290.252 81.701 290.457 81.9058C290.661 82.105 290.764 82.3568 290.764 82.6611C290.764 82.96 290.661 83.209 290.457 83.4082C290.252 83.6074 289.972 83.707 289.618 83.707C289.258 83.707 288.976 83.6074 288.771 83.4082C288.572 83.209 288.473 82.96 288.473 82.6611ZM18.6475 110.609V110.418C18.6475 109.771 18.7415 109.17 18.9297 108.617C19.1178 108.058 19.389 107.574 19.7432 107.164C20.1029 106.749 20.54 106.428 21.0547 106.201C21.5749 105.969 22.1615 105.853 22.8145 105.853C23.473 105.853 24.0596 105.969 24.5742 106.201C25.0944 106.428 25.5343 106.749 25.894 107.164C26.2537 107.574 26.5277 108.058 26.7158 108.617C26.904 109.17 26.998 109.771 26.998 110.418V110.609C26.998 111.256 26.904 111.857 26.7158 112.41C26.5277 112.964 26.2537 113.448 25.894 113.863C25.5343 114.272 25.0972 114.593 24.5825 114.826C24.0679 115.053 23.484 115.166 22.8311 115.166C22.1725 115.166 21.5832 115.053 21.063 114.826C20.5483 114.593 20.1112 114.272 19.7515 113.863C19.3918 113.448 19.1178 112.964 18.9297 112.41C18.7415 111.857 18.6475 111.256 18.6475 110.609ZM20.6479 110.418V110.609C20.6479 111.013 20.6895 111.395 20.7725 111.754C20.8555 112.114 20.9855 112.43 21.1626 112.701C21.3397 112.972 21.5666 113.185 21.8433 113.34C22.12 113.495 22.4492 113.572 22.8311 113.572C23.2018 113.572 23.5228 113.495 23.7939 113.34C24.0706 113.185 24.2975 112.972 24.4746 112.701C24.6517 112.43 24.7817 112.114 24.8647 111.754C24.9533 111.395 24.9976 111.013 24.9976 110.609V110.418C24.9976 110.02 24.9533 109.643 24.8647 109.289C24.7817 108.929 24.6489 108.611 24.4663 108.334C24.2892 108.058 24.0623 107.842 23.7856 107.687C23.5145 107.527 23.1908 107.446 22.8145 107.446C22.4382 107.446 22.1117 107.527 21.835 107.687C21.5638 107.842 21.3397 108.058 21.1626 108.334C20.9855 108.611 20.8555 108.929 20.7725 109.289C20.6895 109.643 20.6479 110.02 20.6479 110.418ZM30.8164 102.25V115H28.8076V102.25H30.8164ZM36.9673 115.166C36.3032 115.166 35.7028 115.058 35.166 114.842C34.6348 114.621 34.181 114.314 33.8047 113.921C33.4339 113.528 33.1489 113.066 32.9497 112.535C32.7505 112.003 32.6509 111.431 32.6509 110.816V110.484C32.6509 109.782 32.7533 109.145 32.958 108.575C33.1628 108.005 33.4478 107.518 33.813 107.114C34.1782 106.705 34.6099 106.392 35.1079 106.176C35.606 105.96 36.1455 105.853 36.7266 105.853C37.3685 105.853 37.9302 105.96 38.4116 106.176C38.8931 106.392 39.2915 106.696 39.6069 107.089C39.9279 107.477 40.1659 107.939 40.3208 108.476C40.4813 109.012 40.5615 109.604 40.5615 110.252V111.107H33.6221V109.671H38.5859V109.513C38.5749 109.153 38.5029 108.816 38.3701 108.5C38.2428 108.185 38.0464 107.931 37.7808 107.737C37.5151 107.543 37.161 107.446 36.7183 107.446C36.3862 107.446 36.0902 107.518 35.8301 107.662C35.5755 107.8 35.3625 108.002 35.1909 108.268C35.0194 108.534 34.8866 108.855 34.7925 109.231C34.7039 109.602 34.6597 110.02 34.6597 110.484V110.816C34.6597 111.209 34.7122 111.575 34.8174 111.912C34.9281 112.244 35.0885 112.535 35.2988 112.784C35.5091 113.033 35.7637 113.229 36.0625 113.373C36.3613 113.511 36.7017 113.581 37.0835 113.581C37.5649 113.581 37.9938 113.484 38.3701 113.29C38.7464 113.096 39.0729 112.822 39.3496 112.468L40.4038 113.489C40.2101 113.771 39.9583 114.043 39.6484 114.303C39.3385 114.557 38.9595 114.765 38.5112 114.925C38.0685 115.086 37.5539 115.166 36.9673 115.166ZM44.1226 107.845V115H42.1221V106.019H44.0063L44.1226 107.845ZM43.7988 110.177L43.1182 110.169C43.1182 109.549 43.1956 108.976 43.3506 108.451C43.5055 107.925 43.7324 107.468 44.0312 107.081C44.3301 106.688 44.7008 106.387 45.1436 106.176C45.5918 105.96 46.1092 105.853 46.6958 105.853C47.1053 105.853 47.4788 105.913 47.8164 106.035C48.1595 106.151 48.4556 106.337 48.7046 106.591C48.9591 106.846 49.1528 107.172 49.2856 107.571C49.424 107.969 49.4932 108.451 49.4932 109.015V115H47.4927V109.189C47.4927 108.752 47.4263 108.409 47.2935 108.16C47.1662 107.911 46.9808 107.734 46.7373 107.629C46.4993 107.518 46.2144 107.463 45.8823 107.463C45.506 107.463 45.1851 107.535 44.9194 107.679C44.6593 107.823 44.4463 108.019 44.2803 108.268C44.1143 108.517 43.9925 108.805 43.915 109.131C43.8376 109.458 43.7988 109.806 43.7988 110.177ZM49.3687 109.646L48.4307 109.854C48.4307 109.311 48.5054 108.799 48.6548 108.318C48.8097 107.831 49.0339 107.405 49.3271 107.04C49.626 106.669 49.994 106.378 50.4312 106.168C50.8683 105.958 51.3691 105.853 51.9336 105.853C52.3929 105.853 52.8024 105.916 53.1621 106.043C53.5273 106.165 53.8372 106.359 54.0918 106.625C54.3464 106.89 54.54 107.236 54.6729 107.662C54.8057 108.083 54.8721 108.592 54.8721 109.189V115H52.8633V109.181C52.8633 108.727 52.7969 108.376 52.6641 108.127C52.5368 107.878 52.3542 107.706 52.1162 107.612C51.8783 107.513 51.5933 107.463 51.2612 107.463C50.9513 107.463 50.6774 107.521 50.4395 107.637C50.207 107.748 50.0106 107.906 49.8501 108.11C49.6896 108.31 49.5679 108.539 49.4849 108.799C49.4074 109.059 49.3687 109.342 49.3687 109.646ZM61.9941 113.199V108.916C61.9941 108.595 61.936 108.318 61.8198 108.085C61.7036 107.853 61.5265 107.673 61.2886 107.546C61.0562 107.419 60.7629 107.355 60.4087 107.355C60.0822 107.355 59.8 107.41 59.562 107.521C59.3241 107.632 59.1387 107.781 59.0059 107.969C58.873 108.157 58.8066 108.37 58.8066 108.608H56.8145C56.8145 108.254 56.9002 107.911 57.0718 107.579C57.2433 107.247 57.4924 106.951 57.8188 106.691C58.1453 106.431 58.5355 106.226 58.9893 106.077C59.443 105.927 59.9521 105.853 60.5166 105.853C61.1917 105.853 61.7894 105.966 62.3096 106.193C62.8353 106.42 63.2476 106.763 63.5464 107.222C63.8507 107.676 64.0029 108.246 64.0029 108.932V112.925C64.0029 113.334 64.0306 113.702 64.0859 114.029C64.1468 114.35 64.2326 114.629 64.3433 114.867V115H62.293C62.1989 114.784 62.1242 114.51 62.0688 114.178C62.019 113.841 61.9941 113.514 61.9941 113.199ZM62.2847 109.538L62.3013 110.775H60.8652C60.4945 110.775 60.168 110.811 59.8857 110.883C59.6035 110.949 59.3683 111.049 59.1802 111.182C58.992 111.314 58.8509 111.475 58.7568 111.663C58.6628 111.851 58.6157 112.064 58.6157 112.302C58.6157 112.54 58.6711 112.759 58.7817 112.958C58.8924 113.152 59.0529 113.304 59.2632 113.415C59.479 113.525 59.7391 113.581 60.0435 113.581C60.453 113.581 60.8099 113.498 61.1143 113.332C61.4242 113.16 61.6676 112.952 61.8447 112.709C62.0218 112.46 62.1159 112.225 62.127 112.003L62.7744 112.892C62.708 113.118 62.5946 113.362 62.4341 113.622C62.2736 113.882 62.0633 114.131 61.8032 114.369C61.5487 114.602 61.2415 114.792 60.8818 114.942C60.5277 115.091 60.1182 115.166 59.6533 115.166C59.0667 115.166 58.5438 115.05 58.0845 114.817C57.6252 114.579 57.2655 114.261 57.0054 113.863C56.7453 113.459 56.6152 113.002 56.6152 112.493C56.6152 112.017 56.7038 111.597 56.8809 111.231C57.0635 110.861 57.3291 110.551 57.6777 110.302C58.0319 110.053 58.4635 109.865 58.9727 109.737C59.4818 109.604 60.0628 109.538 60.7158 109.538H62.2847ZM71.1333 112.568C71.1333 112.369 71.0835 112.189 70.9839 112.028C70.8843 111.862 70.6934 111.713 70.4111 111.58C70.1344 111.447 69.7249 111.326 69.1826 111.215C68.7067 111.11 68.2695 110.985 67.8711 110.841C67.4782 110.692 67.1406 110.512 66.8584 110.302C66.5762 110.091 66.3576 109.842 66.2026 109.555C66.0477 109.267 65.9702 108.935 65.9702 108.559C65.9702 108.193 66.0505 107.847 66.2109 107.521C66.3714 107.194 66.6011 106.907 66.8999 106.658C67.1987 106.409 67.5612 106.212 67.9873 106.068C68.4189 105.924 68.9004 105.853 69.4316 105.853C70.1842 105.853 70.8289 105.98 71.3657 106.234C71.908 106.483 72.3231 106.824 72.6108 107.255C72.8986 107.681 73.0425 108.163 73.0425 108.7H71.042C71.042 108.462 70.9811 108.24 70.8594 108.036C70.7432 107.825 70.5661 107.657 70.3281 107.529C70.0902 107.396 69.7913 107.33 69.4316 107.33C69.0885 107.33 68.8035 107.385 68.5767 107.496C68.3553 107.601 68.1893 107.74 68.0786 107.911C67.9735 108.083 67.9209 108.271 67.9209 108.476C67.9209 108.625 67.9486 108.761 68.0039 108.882C68.0648 108.999 68.1644 109.106 68.3027 109.206C68.4411 109.3 68.6292 109.389 68.8672 109.472C69.1107 109.555 69.415 109.635 69.7803 109.712C70.4665 109.856 71.0558 110.042 71.5483 110.269C72.0464 110.49 72.4282 110.778 72.6938 111.132C72.9595 111.48 73.0923 111.923 73.0923 112.46C73.0923 112.858 73.0065 113.224 72.835 113.556C72.6689 113.882 72.4255 114.167 72.1045 114.411C71.7835 114.649 71.3989 114.834 70.9507 114.967C70.508 115.1 70.0099 115.166 69.4565 115.166C68.6431 115.166 67.9541 115.022 67.3896 114.734C66.8252 114.441 66.3963 114.068 66.103 113.614C65.8153 113.154 65.6714 112.679 65.6714 112.186H67.6055C67.6276 112.557 67.73 112.853 67.9126 113.074C68.1007 113.29 68.3332 113.448 68.6099 113.547C68.8921 113.641 69.1826 113.688 69.4814 113.688C69.8411 113.688 70.1427 113.641 70.3862 113.547C70.6297 113.448 70.8151 113.315 70.9424 113.149C71.0697 112.977 71.1333 112.784 71.1333 112.568ZM74.9268 114.004C74.9268 113.694 75.0319 113.434 75.2422 113.224C75.4525 113.008 75.7375 112.9 76.0972 112.9C76.4624 112.9 76.7474 113.008 76.9521 113.224C77.1624 113.434 77.2676 113.694 77.2676 114.004C77.2676 114.314 77.1624 114.574 76.9521 114.784C76.7474 114.994 76.4624 115.1 76.0972 115.1C75.7375 115.1 75.4525 114.994 75.2422 114.784C75.0319 114.574 74.9268 114.314 74.9268 114.004Z" fill="#461102"/>
<path d="M27.912 141.646C29.872 141.646 31.566 142.01 32.994 142.738C34.422 143.438 35.5 144.404 36.228 145.636C36.984 146.84 37.362 148.184 37.362 149.668C37.362 151.208 37.026 152.692 36.354 154.12C35.71 155.548 34.59 157.158 32.994 158.95C31.426 160.742 29.13 163.052 26.106 165.88H37.992L37.32 170.5H19.302V166.174C22.83 162.646 25.378 160.014 26.946 158.278C28.514 156.542 29.62 155.072 30.264 153.868C30.908 152.664 31.23 151.432 31.23 150.172C31.23 148.968 30.88 148.016 30.18 147.316C29.48 146.616 28.542 146.266 27.366 146.266C26.33 146.266 25.406 146.504 24.594 146.98C23.782 147.428 22.928 148.184 22.032 149.248L18.462 146.392C20.87 143.228 24.02 141.646 27.912 141.646ZM59.9941 161.134C60.3861 163.066 61.1001 164.48 62.1361 165.376C63.2001 166.272 64.6141 166.72 66.3781 166.72C68.2541 166.72 70.2701 166.132 72.4261 164.956V169.576C71.2781 170.108 70.1861 170.5 69.1501 170.752C68.1141 171.032 66.9801 171.172 65.7481 171.172C62.5841 171.172 59.9801 170.304 57.9361 168.568C55.9201 166.804 54.5901 164.326 53.9461 161.134H50.2921L51.1321 157.9H53.7781V154.75H50.2921L51.1321 151.474H53.9881C54.7721 148.422 56.2281 146.028 58.3561 144.292C60.5121 142.528 63.0461 141.646 65.9581 141.646C68.8701 141.646 71.5021 142.444 73.8541 144.04L71.7121 147.736C70.8161 147.148 69.9341 146.728 69.0661 146.476C68.1981 146.196 67.2321 146.056 66.1681 146.056C64.7121 146.056 63.4661 146.504 62.4301 147.4C61.3941 148.296 60.6241 149.654 60.1201 151.474H70.4101L69.5701 154.75H59.8261V157.9H68.8981L68.1001 161.134H59.9941Z" fill="#E3000F"/>
<path d="M91.5234 159.875V161.5H83.8203V160.109L87.5156 156.117C87.901 155.68 88.2057 155.299 88.4297 154.977C88.6536 154.654 88.8125 154.362 88.9062 154.102C89.0052 153.836 89.0547 153.583 89.0547 153.344C89.0547 152.995 88.9922 152.69 88.8672 152.43C88.7422 152.164 88.5599 151.958 88.3203 151.812C88.0859 151.667 87.7969 151.594 87.4531 151.594C87.0729 151.594 86.7474 151.682 86.4766 151.859C86.2109 152.031 86.0078 152.271 85.8672 152.578C85.7318 152.885 85.6641 153.237 85.6641 153.633H83.5938C83.5938 152.961 83.75 152.349 84.0625 151.797C84.375 151.24 84.8229 150.794 85.4062 150.461C85.9896 150.128 86.6823 149.961 87.4844 149.961C88.2656 149.961 88.9271 150.091 89.4688 150.352C90.0104 150.607 90.4219 150.971 90.7031 151.445C90.9844 151.919 91.125 152.484 91.125 153.141C91.125 153.505 91.0651 153.865 90.9453 154.219C90.8255 154.573 90.6562 154.924 90.4375 155.273C90.224 155.617 89.9688 155.966 89.6719 156.32C89.375 156.674 89.0443 157.036 88.6797 157.406L86.4609 159.875H91.5234ZM99.1172 149.492V161.5H97.0547V149.492H99.1172ZM104.414 153.047L100.734 157.18L98.7422 159.203L98.0859 157.602L99.625 155.664L101.922 153.047H104.414ZM102.305 161.5L99.6875 157.562L101.062 156.227L104.695 161.5H102.305ZM110.539 159.492V153.047H112.617V161.5H110.664L110.539 159.492ZM110.805 157.742L111.445 157.727C111.445 158.294 111.383 158.818 111.258 159.297C111.133 159.776 110.938 160.193 110.672 160.547C110.411 160.896 110.081 161.169 109.68 161.367C109.279 161.56 108.805 161.656 108.258 161.656C107.841 161.656 107.461 161.599 107.117 161.484C106.773 161.365 106.477 161.18 106.227 160.93C105.982 160.674 105.792 160.349 105.656 159.953C105.521 159.552 105.453 159.07 105.453 158.508V153.047H107.516V158.523C107.516 158.805 107.547 159.039 107.609 159.227C107.677 159.414 107.768 159.568 107.883 159.688C108.003 159.802 108.141 159.885 108.297 159.938C108.458 159.984 108.63 160.008 108.812 160.008C109.312 160.008 109.706 159.909 109.992 159.711C110.284 159.508 110.492 159.237 110.617 158.898C110.742 158.555 110.805 158.169 110.805 157.742ZM119.477 159.492V153.047H121.555V161.5H119.602L119.477 159.492ZM119.742 157.742L120.383 157.727C120.383 158.294 120.32 158.818 120.195 159.297C120.07 159.776 119.875 160.193 119.609 160.547C119.349 160.896 119.018 161.169 118.617 161.367C118.216 161.56 117.742 161.656 117.195 161.656C116.779 161.656 116.398 161.599 116.055 161.484C115.711 161.365 115.414 161.18 115.164 160.93C114.919 160.674 114.729 160.349 114.594 159.953C114.458 159.552 114.391 159.07 114.391 158.508V153.047H116.453V158.523C116.453 158.805 116.484 159.039 116.547 159.227C116.615 159.414 116.706 159.568 116.82 159.688C116.94 159.802 117.078 159.885 117.234 159.938C117.396 159.984 117.568 160.008 117.75 160.008C118.25 160.008 118.643 159.909 118.93 159.711C119.221 159.508 119.43 159.237 119.555 158.898C119.68 158.555 119.742 158.169 119.742 157.742ZM128.453 159.703V149.5H130.531V161.5H128.656L128.453 159.703ZM123.023 157.375V157.211C123.023 156.565 123.096 155.979 123.242 155.453C123.393 154.922 123.612 154.466 123.898 154.086C124.185 153.706 124.531 153.411 124.938 153.203C125.349 152.995 125.815 152.891 126.336 152.891C126.841 152.891 127.281 152.992 127.656 153.195C128.036 153.398 128.359 153.688 128.625 154.062C128.896 154.438 129.112 154.883 129.273 155.398C129.435 155.909 129.552 156.471 129.625 157.086V157.531C129.552 158.13 129.435 158.68 129.273 159.18C129.112 159.68 128.896 160.117 128.625 160.492C128.359 160.862 128.036 161.148 127.656 161.352C127.276 161.555 126.831 161.656 126.32 161.656C125.805 161.656 125.341 161.549 124.93 161.336C124.523 161.122 124.177 160.823 123.891 160.438C123.609 160.052 123.393 159.599 123.242 159.078C123.096 158.557 123.023 157.99 123.023 157.375ZM125.094 157.211V157.375C125.094 157.74 125.125 158.081 125.188 158.398C125.25 158.716 125.352 158.997 125.492 159.242C125.633 159.482 125.812 159.669 126.031 159.805C126.255 159.94 126.526 160.008 126.844 160.008C127.25 160.008 127.583 159.919 127.844 159.742C128.109 159.56 128.315 159.312 128.461 159C128.607 158.682 128.701 158.326 128.742 157.93V156.703C128.721 156.391 128.667 156.102 128.578 155.836C128.495 155.57 128.375 155.341 128.219 155.148C128.068 154.956 127.88 154.805 127.656 154.695C127.432 154.586 127.167 154.531 126.859 154.531C126.542 154.531 126.271 154.602 126.047 154.742C125.823 154.878 125.641 155.068 125.5 155.312C125.359 155.557 125.255 155.841 125.188 156.164C125.125 156.487 125.094 156.836 125.094 157.211Z" fill="#461102"/>
<rect x="154" y="140" width="158" height="32" rx="8" fill="#E3000F"/>
<path d="M178.624 150.412L178.368 152.428H175.632V161.5H173.008V152.428H170.144V150.412H178.624ZM186.481 150.412L186.209 152.284H182.305V154.94H185.713V156.78H182.305V159.612H186.481V161.5H179.681V150.412H186.481ZM190.727 150.412V159.42H195.047L194.775 161.5H188.103V150.412H190.727ZM198.93 150.412V159.42H203.25L202.978 161.5H196.306V150.412H198.93ZM207.133 150.412V161.5H204.509V150.412H207.133ZM216.081 150.412C217.82 150.412 219.212 150.807 220.257 151.596C221.313 152.375 221.841 153.809 221.841 155.9C221.841 157.959 221.329 159.409 220.305 160.252C219.281 161.084 217.953 161.5 216.321 161.5H212.993V150.412H216.081ZM215.617 152.316V159.596H216.481C217.345 159.596 218.001 159.329 218.449 158.796C218.897 158.252 219.121 157.287 219.121 155.9C219.121 154.951 219.009 154.215 218.785 153.692C218.561 153.169 218.257 152.812 217.873 152.62C217.489 152.417 217.014 152.316 216.449 152.316H215.617ZM226.039 150.412V161.5H223.415V150.412H226.039ZM232.903 150.14C234.332 150.14 235.564 150.593 236.599 151.5L235.271 152.892C234.876 152.593 234.508 152.38 234.167 152.252C233.836 152.113 233.452 152.044 233.015 152.044C232.193 152.044 231.537 152.369 231.047 153.02C230.556 153.66 230.311 154.636 230.311 155.948C230.311 157.367 230.497 158.375 230.871 158.972C231.244 159.559 231.825 159.852 232.615 159.852C233.169 159.852 233.671 159.729 234.119 159.484V156.972H232.679L232.423 155.116H236.663V160.604C236.087 160.977 235.452 161.265 234.759 161.468C234.065 161.671 233.372 161.772 232.679 161.772C230.993 161.772 229.724 161.281 228.871 160.3C228.017 159.308 227.59 157.857 227.59 155.948C227.59 154.732 227.82 153.687 228.279 152.812C228.748 151.937 229.383 151.276 230.183 150.828C230.993 150.369 231.9 150.14 232.903 150.14ZM241.039 150.412V161.5H238.415V150.412H241.039ZM246.687 150.412C248.148 150.412 249.284 150.716 250.095 151.324C250.905 151.932 251.311 152.833 251.311 154.028C251.311 155.276 250.911 156.22 250.111 156.86C249.321 157.489 248.26 157.804 246.927 157.804H245.727V161.5H243.103V150.412H246.687ZM246.703 155.916C247.321 155.916 247.791 155.772 248.111 155.484C248.441 155.185 248.607 154.7 248.607 154.028C248.607 152.865 247.956 152.284 246.655 152.284H245.727V155.916H246.703ZM257.583 161.5L257.007 159.116H253.775L253.215 161.5H250.495L253.839 150.412H257.023L260.367 161.5H257.583ZM254.223 157.212H256.559L255.391 152.316L254.223 157.212ZM263.805 150.412V161.5H261.181V150.412H263.805ZM270.173 150.412L266.637 155.388L270.461 161.5H267.421L263.885 155.58L267.405 150.412H270.173ZM278.106 150.412L277.834 152.284H273.93V154.94H277.338V156.78H273.93V159.612H278.106V161.5H271.306V150.412H278.106ZM287.312 150.412L287.056 152.428H284.32V161.5H281.696V152.428H278.832V150.412H287.312ZM295.952 150.412L295.696 152.428H292.96V161.5H290.336V152.428H287.472V150.412H295.952Z" fill="#FFE80D"/>
</svg>
