<svg width="330" height="200" viewBox="0 0 330 200" fill="none" xmlns="http://www.w3.org/2000/svg">
<path d="M32.16 39.528C32.16 40.664 31.92 41.672 31.44 42.552C30.96 43.432 30.24 44.128 29.28 44.64C28.336 45.136 27.184 45.384 25.824 45.384C23.776 45.384 22.208 44.856 21.12 43.8C20.048 42.728 19.512 41.304 19.512 39.528V28.392H23.04V39.36C23.04 40.48 23.264 41.32 23.712 41.88C24.16 42.424 24.864 42.696 25.824 42.696C26.784 42.696 27.488 42.424 27.936 41.88C28.4 41.32 28.632 40.48 28.632 39.36V28.392H32.16V39.528ZM45.7991 45H42.8471L42.6791 43.296C42.2311 44 41.6871 44.528 41.0471 44.88C40.4071 45.216 39.6631 45.384 38.8151 45.384C37.6631 45.384 36.7831 45.04 36.1751 44.352C35.5671 43.648 35.2631 42.672 35.2631 41.424V32.28H38.6711V40.992C38.6711 41.664 38.7831 42.144 39.0071 42.432C39.2311 42.704 39.5831 42.84 40.0631 42.84C40.9751 42.84 41.7511 42.288 42.3911 41.184V32.28H45.7991V45ZM59.9164 38.352C59.9164 38.512 59.8924 38.952 59.8444 39.672H51.9004C52.0124 40.824 52.3244 41.64 52.8364 42.12C53.3484 42.6 54.0444 42.84 54.9244 42.84C55.4684 42.84 55.9804 42.752 56.4604 42.576C56.9404 42.4 57.4604 42.12 58.0204 41.736L59.4364 43.656C58.0124 44.808 56.4044 45.384 54.6124 45.384C52.6124 45.384 51.0764 44.784 50.0044 43.584C48.9324 42.384 48.3964 40.76 48.3964 38.712C48.3964 37.416 48.6204 36.256 49.0684 35.232C49.5324 34.192 50.1964 33.376 51.0604 32.784C51.9404 32.192 52.9804 31.896 54.1804 31.896C55.9884 31.896 57.3964 32.464 58.4044 33.6C59.4124 34.736 59.9164 36.32 59.9164 38.352ZM56.5324 37.392C56.5324 35.28 55.7724 34.224 54.2524 34.224C53.5484 34.224 52.9964 34.488 52.5964 35.016C52.2124 35.528 51.9804 36.368 51.9004 37.536H56.5324V37.392ZM65.5511 45.384C64.5111 45.384 63.7031 45.088 63.1271 44.496C62.5511 43.888 62.2631 43.032 62.2631 41.928V27.216L65.6711 26.832V41.832C65.6711 42.392 65.9031 42.672 66.3671 42.672C66.6231 42.672 66.8471 42.624 67.0391 42.528L67.7351 44.952C67.0791 45.24 66.3511 45.384 65.5511 45.384ZM85.0641 41.472C85.0641 41.968 85.1361 42.336 85.2801 42.576C85.4241 42.8 85.6641 42.968 86.0001 43.08L85.2801 45.336C84.5281 45.272 83.9121 45.096 83.4321 44.808C82.9681 44.52 82.6081 44.072 82.3521 43.464C81.5201 44.744 80.2481 45.384 78.5361 45.384C77.2721 45.384 76.2641 45.024 75.5121 44.304C74.7761 43.568 74.4081 42.616 74.4081 41.448C74.4081 40.056 74.9121 38.992 75.9201 38.256C76.9281 37.52 78.3761 37.152 80.2641 37.152H81.7281V36.528C81.7281 35.744 81.5521 35.2 81.2001 34.896C80.8481 34.592 80.2641 34.44 79.4481 34.44C78.5521 34.44 77.4321 34.664 76.0881 35.112L75.3201 32.832C76.9041 32.208 78.4721 31.896 80.0241 31.896C81.7521 31.896 83.0241 32.272 83.8401 33.024C84.6561 33.76 85.0641 34.864 85.0641 36.336V41.472ZM79.4721 42.936C80.4321 42.936 81.1841 42.464 81.7281 41.52V39.096H80.6001C78.7601 39.096 77.8401 39.784 77.8401 41.16C77.8401 41.72 77.9761 42.16 78.2481 42.48C78.5361 42.784 78.9441 42.936 79.4721 42.936ZM98.0719 41.472C98.0719 41.968 98.1439 42.336 98.2879 42.576C98.4319 42.8 98.6719 42.968 99.0079 43.08L98.2879 45.336C97.5359 45.272 96.9199 45.096 96.4399 44.808C95.9759 44.52 95.6159 44.072 95.3599 43.464C94.5279 44.744 93.2559 45.384 91.5439 45.384C90.2799 45.384 89.2719 45.024 88.5199 44.304C87.7839 43.568 87.4159 42.616 87.4159 41.448C87.4159 40.056 87.9199 38.992 88.9279 38.256C89.9359 37.52 91.3839 37.152 93.2719 37.152H94.7359V36.528C94.7359 35.744 94.5599 35.2 94.2079 34.896C93.8559 34.592 93.2719 34.44 92.4559 34.44C91.5599 34.44 90.4399 34.664 89.0959 35.112L88.3279 32.832C89.9119 32.208 91.4799 31.896 93.0319 31.896C94.7599 31.896 96.0319 32.272 96.8479 33.024C97.6639 33.76 98.0719 34.864 98.0719 36.336V41.472ZM92.4799 42.936C93.4399 42.936 94.1919 42.464 94.7359 41.52V39.096H93.6079C91.7679 39.096 90.8479 39.784 90.8479 41.16C90.8479 41.72 90.9839 42.16 91.2559 42.48C91.5439 42.784 91.9519 42.936 92.4799 42.936ZM105.467 31.896C107.259 31.896 108.795 32.408 110.075 33.432L108.779 35.376C107.707 34.704 106.651 34.368 105.611 34.368C105.051 34.368 104.619 34.472 104.315 34.68C104.011 34.888 103.859 35.168 103.859 35.52C103.859 35.776 103.923 35.992 104.051 36.168C104.195 36.344 104.451 36.512 104.819 36.672C105.203 36.832 105.771 37.024 106.523 37.248C107.867 37.616 108.867 38.112 109.523 38.736C110.179 39.344 110.507 40.184 110.507 41.256C110.507 42.104 110.259 42.84 109.763 43.464C109.283 44.088 108.627 44.568 107.795 44.904C106.963 45.224 106.035 45.384 105.011 45.384C103.939 45.384 102.963 45.224 102.083 44.904C101.203 44.568 100.451 44.112 99.8265 43.536L101.507 41.664C102.579 42.496 103.715 42.912 104.915 42.912C105.555 42.912 106.059 42.792 106.427 42.552C106.811 42.296 107.003 41.952 107.003 41.52C107.003 41.184 106.931 40.92 106.787 40.728C106.643 40.536 106.379 40.36 105.995 40.2C105.611 40.024 105.011 39.824 104.195 39.6C102.915 39.248 101.963 38.752 101.339 38.112C100.731 37.456 100.427 36.648 100.427 35.688C100.427 34.968 100.635 34.32 101.051 33.744C101.467 33.168 102.051 32.72 102.803 32.4C103.571 32.064 104.459 31.896 105.467 31.896ZM120.335 44.4C119.871 44.72 119.343 44.96 118.751 45.12C118.175 45.296 117.599 45.384 117.023 45.384C115.711 45.368 114.719 44.992 114.047 44.256C113.375 43.52 113.039 42.44 113.039 41.016V34.68H111.143V32.28H113.039V29.496L116.447 29.088V32.28H119.375L119.039 34.68H116.447V40.944C116.447 41.552 116.551 41.992 116.759 42.264C116.967 42.536 117.287 42.672 117.719 42.672C118.151 42.672 118.631 42.528 119.159 42.24L120.335 44.4ZM131.306 41.472C131.306 41.968 131.378 42.336 131.522 42.576C131.666 42.8 131.906 42.968 132.242 43.08L131.522 45.336C130.77 45.272 130.154 45.096 129.674 44.808C129.21 44.52 128.85 44.072 128.594 43.464C127.762 44.744 126.49 45.384 124.778 45.384C123.514 45.384 122.506 45.024 121.754 44.304C121.018 43.568 120.65 42.616 120.65 41.448C120.65 40.056 121.154 38.992 122.162 38.256C123.17 37.52 124.618 37.152 126.506 37.152H127.97V36.528C127.97 35.744 127.794 35.2 127.442 34.896C127.09 34.592 126.506 34.44 125.69 34.44C124.794 34.44 123.674 34.664 122.33 35.112L121.562 32.832C123.146 32.208 124.714 31.896 126.266 31.896C127.994 31.896 129.266 32.272 130.082 33.024C130.898 33.76 131.306 34.864 131.306 36.336V41.472ZM125.714 42.936C126.674 42.936 127.426 42.464 127.97 41.52V39.096H126.842C125.002 39.096 124.082 39.784 124.082 41.16C124.082 41.72 124.218 42.16 124.49 42.48C124.778 42.784 125.186 42.936 125.714 42.936ZM137.645 45.384C136.605 45.384 135.797 45.088 135.221 44.496C134.645 43.888 134.357 43.032 134.357 41.928V27.216L137.765 26.832V41.832C137.765 42.392 137.997 42.672 138.461 42.672C138.717 42.672 138.941 42.624 139.133 42.528L139.829 44.952C139.173 45.24 138.445 45.384 137.645 45.384ZM150.822 43.728C150.822 45.008 150.622 46.056 150.222 46.872C149.838 47.704 149.302 48.368 148.614 48.864C147.926 49.376 147.046 49.84 145.974 50.256L144.846 47.784C145.47 47.496 145.958 47.208 146.31 46.92C146.662 46.648 146.934 46.272 147.126 45.792C147.318 45.328 147.414 44.712 147.414 43.944V32.28H150.822V43.728ZM149.094 25.728C149.702 25.728 150.198 25.92 150.582 26.304C150.982 26.672 151.182 27.144 151.182 27.72C151.182 28.296 150.982 28.776 150.582 29.16C150.198 29.528 149.702 29.712 149.094 29.712C148.486 29.712 147.99 29.528 147.606 29.16C147.222 28.776 147.03 28.296 147.03 27.72C147.03 27.144 147.222 26.672 147.606 26.304C147.99 25.92 148.486 25.728 149.094 25.728ZM163.908 41.472C163.908 41.968 163.98 42.336 164.124 42.576C164.268 42.8 164.508 42.968 164.844 43.08L164.124 45.336C163.372 45.272 162.756 45.096 162.276 44.808C161.812 44.52 161.452 44.072 161.196 43.464C160.364 44.744 159.092 45.384 157.38 45.384C156.116 45.384 155.108 45.024 154.356 44.304C153.62 43.568 153.252 42.616 153.252 41.448C153.252 40.056 153.756 38.992 154.764 38.256C155.772 37.52 157.22 37.152 159.108 37.152H160.572V36.528C160.572 35.744 160.396 35.2 160.044 34.896C159.692 34.592 159.108 34.44 158.292 34.44C157.396 34.44 156.276 34.664 154.932 35.112L154.164 32.832C155.748 32.208 157.316 31.896 158.868 31.896C160.596 31.896 161.868 32.272 162.684 33.024C163.5 33.76 163.908 34.864 163.908 36.336V41.472ZM158.316 42.936C159.276 42.936 160.028 42.464 160.572 41.52V39.096H159.444C157.604 39.096 156.684 39.784 156.684 41.16C156.684 41.72 156.82 42.16 157.092 42.48C157.38 42.784 157.788 42.936 158.316 42.936ZM156.228 25.992C156.74 25.992 157.164 26.168 157.5 26.52C157.852 26.856 158.028 27.272 158.028 27.768C158.028 28.264 157.852 28.688 157.5 29.04C157.164 29.376 156.74 29.544 156.228 29.544C155.732 29.544 155.308 29.376 154.956 29.04C154.604 28.688 154.428 28.264 154.428 27.768C154.428 27.272 154.604 26.856 154.956 26.52C155.308 26.168 155.732 25.992 156.228 25.992ZM161.652 25.992C162.164 25.992 162.596 26.168 162.948 26.52C163.3 26.856 163.476 27.272 163.476 27.768C163.476 28.264 163.3 28.688 162.948 29.04C162.596 29.376 162.164 29.544 161.652 29.544C161.156 29.544 160.732 29.376 160.38 29.04C160.044 28.688 159.876 28.264 159.876 27.768C159.876 27.272 160.044 26.856 160.38 26.52C160.732 26.168 161.156 25.992 161.652 25.992ZM173.889 31.92C174.273 31.92 174.697 31.984 175.161 32.112L174.585 35.4C174.137 35.288 173.761 35.232 173.457 35.232C172.705 35.232 172.121 35.496 171.705 36.024C171.289 36.552 170.961 37.352 170.721 38.424V45H167.313V32.28H170.265L170.577 34.752C170.881 33.856 171.321 33.16 171.897 32.664C172.489 32.168 173.153 31.92 173.889 31.92ZM187.923 32.976C187.091 33.296 185.867 33.456 184.251 33.456C185.051 33.808 185.643 34.248 186.027 34.776C186.411 35.288 186.603 35.936 186.603 36.72C186.603 37.536 186.387 38.272 185.955 38.928C185.539 39.568 184.931 40.072 184.131 40.44C183.347 40.808 182.427 40.992 181.371 40.992C180.811 40.992 180.315 40.936 179.883 40.824C179.563 41.032 179.403 41.312 179.403 41.664C179.403 41.92 179.499 42.128 179.691 42.288C179.899 42.432 180.291 42.504 180.867 42.504H182.811C183.755 42.504 184.579 42.664 185.283 42.984C186.003 43.288 186.555 43.72 186.939 44.28C187.339 44.824 187.539 45.448 187.539 46.152C187.539 47.448 186.979 48.456 185.859 49.176C184.755 49.912 183.155 50.28 181.059 50.28C179.555 50.28 178.363 50.12 177.483 49.8C176.619 49.496 176.011 49.048 175.659 48.456C175.307 47.864 175.131 47.12 175.131 46.224H178.179C178.179 46.64 178.259 46.968 178.419 47.208C178.579 47.464 178.867 47.648 179.283 47.76C179.715 47.888 180.331 47.952 181.131 47.952C182.235 47.952 183.003 47.816 183.435 47.544C183.883 47.272 184.107 46.888 184.107 46.392C184.107 45.944 183.939 45.6 183.603 45.36C183.267 45.12 182.771 45 182.115 45H180.243C178.979 45 178.035 44.768 177.411 44.304C176.787 43.824 176.475 43.224 176.475 42.504C176.475 42.056 176.603 41.624 176.859 41.208C177.131 40.776 177.499 40.416 177.963 40.128C177.179 39.696 176.603 39.192 176.235 38.616C175.883 38.024 175.707 37.32 175.707 36.504C175.707 35.576 175.931 34.768 176.379 34.08C176.843 33.376 177.483 32.84 178.299 32.472C179.131 32.088 180.075 31.896 181.131 31.896C182.443 31.928 183.523 31.816 184.371 31.56C185.219 31.304 186.123 30.904 187.083 30.36L187.923 32.976ZM181.203 34.176C180.563 34.176 180.051 34.384 179.667 34.8C179.299 35.2 179.115 35.752 179.115 36.456C179.115 37.176 179.299 37.744 179.667 38.16C180.051 38.576 180.571 38.784 181.227 38.784C181.915 38.784 182.435 38.584 182.787 38.184C183.139 37.784 183.315 37.192 183.315 36.408C183.315 34.92 182.611 34.176 181.203 34.176ZM193.01 32.28V45H189.602V32.28H193.01ZM191.282 25.728C191.89 25.728 192.386 25.92 192.77 26.304C193.17 26.672 193.37 27.144 193.37 27.72C193.37 28.296 193.17 28.776 192.77 29.16C192.386 29.528 191.89 29.712 191.282 29.712C190.674 29.712 190.178 29.528 189.794 29.16C189.41 28.776 189.218 28.296 189.218 27.72C189.218 27.144 189.41 26.672 189.794 26.304C190.178 25.92 190.674 25.728 191.282 25.728ZM203.479 31.896C204.599 31.896 205.471 32.24 206.095 32.928C206.719 33.6 207.031 34.536 207.031 35.736V45H203.623V36.312C203.623 35.624 203.503 35.144 203.263 34.872C203.039 34.584 202.695 34.44 202.231 34.44C201.751 34.44 201.311 34.592 200.911 34.896C200.527 35.184 200.151 35.624 199.783 36.216V45H196.375V32.28H199.327L199.591 33.888C200.119 33.232 200.695 32.736 201.319 32.4C201.959 32.064 202.679 31.896 203.479 31.896ZM219.541 26.832V45H216.133V27.216L219.541 26.832ZM227.269 32.28L223.213 37.872L227.629 45H223.765L219.661 38.04L223.741 32.28H227.269ZM234.212 31.896C236.116 31.896 237.604 32.496 238.676 33.696C239.748 34.88 240.284 36.528 240.284 38.64C240.284 39.984 240.036 41.168 239.54 42.192C239.06 43.2 238.356 43.984 237.428 44.544C236.516 45.104 235.436 45.384 234.188 45.384C232.284 45.384 230.788 44.792 229.7 43.608C228.628 42.408 228.092 40.752 228.092 38.64C228.092 37.296 228.332 36.12 228.812 35.112C229.308 34.088 230.012 33.296 230.924 32.736C231.852 32.176 232.948 31.896 234.212 31.896ZM234.212 34.44C233.348 34.44 232.7 34.784 232.268 35.472C231.852 36.144 231.644 37.2 231.644 38.64C231.644 40.08 231.852 41.144 232.268 41.832C232.7 42.504 233.34 42.84 234.188 42.84C235.036 42.84 235.668 42.504 236.084 41.832C236.516 41.144 236.732 40.08 236.732 38.64C236.732 37.2 236.524 36.144 236.108 35.472C235.692 34.784 235.06 34.44 234.212 34.44ZM235.58 29.64C235.244 29.64 234.948 29.584 234.692 29.472C234.452 29.36 234.164 29.2 233.828 28.992C233.62 28.832 233.436 28.72 233.276 28.656C233.132 28.576 232.98 28.536 232.82 28.536C232.564 28.536 232.34 28.624 232.148 28.8C231.956 28.976 231.756 29.248 231.548 29.616L229.796 28.752C230.116 27.968 230.532 27.328 231.044 26.832C231.556 26.336 232.132 26.088 232.772 26.088C233.14 26.088 233.452 26.152 233.708 26.28C233.964 26.392 234.252 26.552 234.572 26.76C234.78 26.904 234.956 27.016 235.1 27.096C235.244 27.16 235.396 27.192 235.556 27.192C235.812 27.192 236.028 27.112 236.204 26.952C236.396 26.776 236.604 26.504 236.828 26.136L238.58 27C238.26 27.816 237.844 28.464 237.332 28.944C236.82 29.408 236.236 29.64 235.58 29.64ZM246.283 32.28V45H242.875V32.28H246.283ZM244.555 25.728C245.163 25.728 245.659 25.92 246.043 26.304C246.443 26.672 246.643 27.144 246.643 27.72C246.643 28.296 246.443 28.776 246.043 29.16C245.659 29.528 245.163 29.712 244.555 29.712C243.947 29.712 243.451 29.528 243.067 29.16C242.683 28.776 242.491 28.296 242.491 27.72C242.491 27.144 242.683 26.672 243.067 26.304C243.451 25.92 243.947 25.728 244.555 25.728ZM253.057 26.832V45H249.649V27.216L253.057 26.832ZM260.785 32.28L256.729 37.872L261.145 45H257.281L253.177 38.04L257.257 32.28H260.785ZM266.065 32.28V45H262.657V32.28H266.065ZM264.337 25.728C264.945 25.728 265.441 25.92 265.825 26.304C266.225 26.672 266.425 27.144 266.425 27.72C266.425 28.296 266.225 28.776 265.825 29.16C265.441 29.528 264.945 29.712 264.337 29.712C263.729 29.712 263.233 29.528 262.849 29.16C262.465 28.776 262.273 28.296 262.273 27.72C262.273 27.144 262.465 26.672 262.849 26.304C263.233 25.92 263.729 25.728 264.337 25.728ZM33.432 57.896C34.44 57.896 35.248 58.24 35.856 58.928C36.48 59.616 36.792 60.552 36.792 61.736V71H33.384V62.312C33.384 61.064 32.968 60.44 32.136 60.44C31.688 60.44 31.296 60.584 30.96 60.872C30.624 61.16 30.28 61.608 29.928 62.216V71H26.52V62.312C26.52 61.064 26.104 60.44 25.272 60.44C24.824 60.44 24.432 60.592 24.096 60.896C23.76 61.184 23.424 61.624 23.088 62.216V71H19.68V58.28H22.632L22.896 59.864C23.376 59.224 23.912 58.736 24.504 58.4C25.112 58.064 25.808 57.896 26.592 57.896C27.312 57.896 27.936 58.08 28.464 58.448C28.992 58.8 29.376 59.304 29.616 59.96C30.144 59.272 30.712 58.76 31.32 58.424C31.944 58.072 32.648 57.896 33.432 57.896ZM45.3758 57.896C47.2798 57.896 48.7678 58.496 49.8398 59.696C50.9118 60.88 51.4478 62.528 51.4478 64.64C51.4478 65.984 51.1998 67.168 50.7038 68.192C50.2238 69.2 49.5198 69.984 48.5918 70.544C47.6798 71.104 46.5998 71.384 45.3518 71.384C43.4478 71.384 41.9518 70.792 40.8638 69.608C39.7918 68.408 39.2558 66.752 39.2558 64.64C39.2558 63.296 39.4958 62.12 39.9758 61.112C40.4718 60.088 41.1758 59.296 42.0878 58.736C43.0158 58.176 44.1118 57.896 45.3758 57.896ZM45.3758 60.44C44.5118 60.44 43.8638 60.784 43.4318 61.472C43.0158 62.144 42.8078 63.2 42.8078 64.64C42.8078 66.08 43.0158 67.144 43.4318 67.832C43.8638 68.504 44.5038 68.84 45.3518 68.84C46.1998 68.84 46.8318 68.504 47.2478 67.832C47.6798 67.144 47.8958 66.08 47.8958 64.64C47.8958 63.2 47.6878 62.144 47.2718 61.472C46.8558 60.784 46.2238 60.44 45.3758 60.44ZM64.7914 64.352C64.7914 64.512 64.7674 64.952 64.7194 65.672H56.7754C56.8874 66.824 57.1994 67.64 57.7114 68.12C58.2234 68.6 58.9194 68.84 59.7994 68.84C60.3434 68.84 60.8554 68.752 61.3354 68.576C61.8154 68.4 62.3354 68.12 62.8954 67.736L64.3114 69.656C62.8874 70.808 61.2794 71.384 59.4874 71.384C57.4874 71.384 55.9514 70.784 54.8794 69.584C53.8074 68.384 53.2714 66.76 53.2714 64.712C53.2714 63.416 53.4954 62.256 53.9434 61.232C54.4074 60.192 55.0714 59.376 55.9354 58.784C56.8154 58.192 57.8554 57.896 59.0554 57.896C60.8634 57.896 62.2714 58.464 63.2794 59.6C64.2874 60.736 64.7914 62.32 64.7914 64.352ZM61.4074 63.392C61.4074 61.28 60.6474 60.224 59.1274 60.224C58.4234 60.224 57.8714 60.488 57.4714 61.016C57.0874 61.528 56.8554 62.368 56.7754 63.536H61.4074V63.392ZM74.8661 70.4C74.4021 70.72 73.8741 70.96 73.2821 71.12C72.7061 71.296 72.1301 71.384 71.5541 71.384C70.2421 71.368 69.2501 70.992 68.5781 70.256C67.9061 69.52 67.5701 68.44 67.5701 67.016V60.68H65.6741V58.28H67.5701V55.496L70.9781 55.088V58.28H73.9061L73.5701 60.68H70.9781V66.944C70.9781 67.552 71.0821 67.992 71.2901 68.264C71.4981 68.536 71.8181 68.672 72.2501 68.672C72.6821 68.672 73.1621 68.528 73.6901 68.24L74.8661 70.4ZM82.9513 57.92C83.3353 57.92 83.7593 57.984 84.2233 58.112L83.6473 61.4C83.1993 61.288 82.8233 61.232 82.5193 61.232C81.7673 61.232 81.1833 61.496 80.7673 62.024C80.3513 62.552 80.0233 63.352 79.7833 64.424V71H76.3753V58.28H79.3273L79.6393 60.752C79.9433 59.856 80.3833 59.16 80.9593 58.664C81.5513 58.168 82.2153 57.92 82.9513 57.92ZM95.9398 64.352C95.9398 64.512 95.9158 64.952 95.8678 65.672H87.9238C88.0358 66.824 88.3478 67.64 88.8598 68.12C89.3718 68.6 90.0678 68.84 90.9478 68.84C91.4918 68.84 92.0038 68.752 92.4838 68.576C92.9638 68.4 93.4838 68.12 94.0438 67.736L95.4598 69.656C94.0358 70.808 92.4278 71.384 90.6358 71.384C88.6358 71.384 87.0998 70.784 86.0278 69.584C84.9558 68.384 84.4198 66.76 84.4198 64.712C84.4198 63.416 84.6438 62.256 85.0918 61.232C85.5558 60.192 86.2198 59.376 87.0838 58.784C87.9638 58.192 89.0038 57.896 90.2038 57.896C92.0118 57.896 93.4198 58.464 94.4278 59.6C95.4358 60.736 95.9398 62.32 95.9398 64.352ZM92.5558 63.392C92.5558 61.28 91.7958 60.224 90.2758 60.224C89.5718 60.224 89.0198 60.488 88.6198 61.016C88.2358 61.528 88.0038 62.368 87.9238 63.536H92.5558V63.392ZM105.511 57.896C106.631 57.896 107.503 58.24 108.127 58.928C108.751 59.6 109.063 60.536 109.063 61.736V71H105.655V62.312C105.655 61.624 105.535 61.144 105.295 60.872C105.071 60.584 104.727 60.44 104.263 60.44C103.783 60.44 103.343 60.592 102.943 60.896C102.559 61.184 102.183 61.624 101.815 62.216V71H98.4066V58.28H101.359L101.623 59.888C102.151 59.232 102.727 58.736 103.351 58.4C103.991 58.064 104.711 57.896 105.511 57.896ZM123.321 53.216V71H120.321L120.129 69.44C119.233 70.736 118.017 71.384 116.481 71.384C114.913 71.384 113.713 70.784 112.881 69.584C112.065 68.368 111.657 66.72 111.657 64.64C111.657 63.328 111.865 62.168 112.281 61.16C112.713 60.136 113.321 59.336 114.105 58.76C114.889 58.184 115.793 57.896 116.817 57.896C118.001 57.896 119.033 58.32 119.913 59.168V52.832L123.321 53.216ZM117.489 68.84C117.985 68.84 118.425 68.72 118.809 68.48C119.193 68.224 119.561 67.832 119.913 67.304V61.616C119.577 61.216 119.233 60.92 118.881 60.728C118.545 60.52 118.153 60.416 117.705 60.416C116.921 60.416 116.305 60.76 115.857 61.448C115.425 62.136 115.209 63.2 115.209 64.64C115.209 66.16 115.401 67.24 115.785 67.88C116.185 68.52 116.753 68.84 117.489 68.84ZM137.424 64.352C137.424 64.512 137.4 64.952 137.352 65.672H129.408C129.52 66.824 129.832 67.64 130.344 68.12C130.856 68.6 131.552 68.84 132.432 68.84C132.976 68.84 133.488 68.752 133.968 68.576C134.448 68.4 134.968 68.12 135.528 67.736L136.944 69.656C135.52 70.808 133.912 71.384 132.12 71.384C130.12 71.384 128.584 70.784 127.512 69.584C126.44 68.384 125.904 66.76 125.904 64.712C125.904 63.416 126.128 62.256 126.576 61.232C127.04 60.192 127.704 59.376 128.568 58.784C129.448 58.192 130.488 57.896 131.688 57.896C133.496 57.896 134.904 58.464 135.912 59.6C136.92 60.736 137.424 62.32 137.424 64.352ZM134.04 63.392C134.04 61.28 133.28 60.224 131.76 60.224C131.056 60.224 130.504 60.488 130.104 61.016C129.72 61.528 129.488 62.368 129.408 63.536H134.04V63.392ZM140.833 67.28C141.409 67.28 141.897 67.48 142.297 67.88C142.697 68.28 142.897 68.76 142.897 69.32C142.897 69.88 142.697 70.368 142.297 70.784C141.897 71.184 141.409 71.384 140.833 71.384C140.273 71.384 139.793 71.184 139.393 70.784C138.993 70.368 138.793 69.88 138.793 69.32C138.793 68.76 138.993 68.28 139.393 67.88C139.793 67.48 140.273 67.28 140.833 67.28Z" fill="#E3000F"/>
<path d="M28.8159 86.9141V99H26.7324L21.312 90.3423V99H19.2285V86.9141H21.312L26.749 95.5884V86.9141H28.8159ZM36.1621 97.1987V92.9155C36.1621 92.5946 36.104 92.3179 35.9878 92.0854C35.8716 91.853 35.6945 91.6732 35.4565 91.5459C35.2241 91.4186 34.9308 91.355 34.5767 91.355C34.2502 91.355 33.9679 91.4103 33.73 91.521C33.492 91.6317 33.3066 91.7811 33.1738 91.9692C33.041 92.1574 32.9746 92.3704 32.9746 92.6084H30.9824C30.9824 92.2542 31.0682 91.9111 31.2397 91.5791C31.4113 91.2471 31.6603 90.951 31.9868 90.6909C32.3133 90.4308 32.7035 90.2261 33.1572 90.0767C33.611 89.9272 34.1201 89.8525 34.6846 89.8525C35.3597 89.8525 35.9574 89.966 36.4775 90.1929C37.0033 90.4198 37.4155 90.7629 37.7144 91.2222C38.0187 91.6759 38.1709 92.2459 38.1709 92.9321V96.9248C38.1709 97.3343 38.1986 97.7023 38.2539 98.0288C38.3148 98.3498 38.4006 98.6292 38.5112 98.8672V99H36.4609C36.3669 98.7842 36.2922 98.5103 36.2368 98.1782C36.187 97.8407 36.1621 97.5142 36.1621 97.1987ZM36.4526 93.5381L36.4692 94.7749H35.0332C34.6624 94.7749 34.3359 94.8109 34.0537 94.8828C33.7715 94.9492 33.5363 95.0488 33.3481 95.1816C33.16 95.3145 33.0189 95.4749 32.9248 95.6631C32.8307 95.8512 32.7837 96.0643 32.7837 96.3022C32.7837 96.5402 32.839 96.7588 32.9497 96.958C33.0604 97.1517 33.2209 97.3039 33.4312 97.4146C33.647 97.5252 33.9071 97.5806 34.2114 97.5806C34.6209 97.5806 34.9779 97.4976 35.2822 97.3315C35.5921 97.16 35.8356 96.9525 36.0127 96.709C36.1898 96.46 36.2839 96.2248 36.2949 96.0034L36.9424 96.8916C36.876 97.1185 36.7625 97.362 36.6021 97.6221C36.4416 97.8822 36.2313 98.1312 35.9712 98.3691C35.7166 98.6016 35.4095 98.7925 35.0498 98.9419C34.6956 99.0913 34.2861 99.166 33.8213 99.166C33.2347 99.166 32.7118 99.0498 32.2524 98.8174C31.7931 98.5794 31.4334 98.2612 31.1733 97.8628C30.9132 97.4588 30.7832 97.0023 30.7832 96.4932C30.7832 96.0173 30.8717 95.5967 31.0488 95.2314C31.2314 94.8607 31.4971 94.5508 31.8457 94.3018C32.1999 94.0527 32.6315 93.8646 33.1406 93.7373C33.6497 93.6045 34.2308 93.5381 34.8838 93.5381H36.4526ZM42.4043 90.0186V99H40.3955V90.0186H42.4043ZM40.2627 87.6611C40.2627 87.3568 40.3623 87.105 40.5615 86.9058C40.7663 86.701 41.0485 86.5986 41.4082 86.5986C41.7624 86.5986 42.0418 86.701 42.2466 86.9058C42.4513 87.105 42.5537 87.3568 42.5537 87.6611C42.5537 87.96 42.4513 88.209 42.2466 88.4082C42.0418 88.6074 41.7624 88.707 41.4082 88.707C41.0485 88.707 40.7663 88.6074 40.5615 88.4082C40.3623 88.209 40.2627 87.96 40.2627 87.6611ZM49.6343 96.5679C49.6343 96.3687 49.5845 96.1888 49.4849 96.0283C49.3853 95.8623 49.1943 95.7129 48.9121 95.5801C48.6354 95.4473 48.2259 95.3255 47.6836 95.2148C47.2077 95.1097 46.7705 94.9852 46.3721 94.8413C45.9792 94.6919 45.6416 94.512 45.3594 94.3018C45.0771 94.0915 44.8586 93.8424 44.7036 93.5547C44.5487 93.2669 44.4712 92.9349 44.4712 92.5586C44.4712 92.1934 44.5514 91.8475 44.7119 91.521C44.8724 91.1945 45.1021 90.9067 45.4009 90.6577C45.6997 90.4087 46.0622 90.2122 46.4883 90.0684C46.9199 89.9245 47.4014 89.8525 47.9326 89.8525C48.6852 89.8525 49.3299 89.9798 49.8667 90.2344C50.409 90.4834 50.8241 90.8237 51.1118 91.2554C51.3996 91.6815 51.5435 92.1629 51.5435 92.6997H49.543C49.543 92.4618 49.4821 92.2404 49.3604 92.0356C49.2441 91.8254 49.0671 91.6566 48.8291 91.5293C48.5911 91.3965 48.2923 91.3301 47.9326 91.3301C47.5895 91.3301 47.3045 91.3854 47.0776 91.4961C46.8563 91.6012 46.6903 91.7396 46.5796 91.9111C46.4744 92.0827 46.4219 92.2708 46.4219 92.4756C46.4219 92.625 46.4495 92.7606 46.5049 92.8823C46.5658 92.9985 46.6654 93.1064 46.8037 93.2061C46.9421 93.3001 47.1302 93.3887 47.3682 93.4717C47.6117 93.5547 47.916 93.6349 48.2812 93.7124C48.9674 93.8563 49.5568 94.0417 50.0493 94.2686C50.5474 94.4899 50.9292 94.7777 51.1948 95.1318C51.4604 95.4805 51.5933 95.9232 51.5933 96.46C51.5933 96.8584 51.5075 97.2236 51.3359 97.5557C51.1699 97.8822 50.9264 98.1672 50.6055 98.4106C50.2845 98.6486 49.8999 98.834 49.4517 98.9668C49.009 99.0996 48.5109 99.166 47.9575 99.166C47.144 99.166 46.4551 99.0221 45.8906 98.7344C45.3262 98.4411 44.8973 98.0675 44.604 97.6138C44.3162 97.1545 44.1724 96.6785 44.1724 96.186H46.1064C46.1286 96.5568 46.231 96.8529 46.4136 97.0742C46.6017 97.29 46.8341 97.4478 47.1108 97.5474C47.3931 97.6414 47.6836 97.6885 47.9824 97.6885C48.3421 97.6885 48.6437 97.6414 48.8872 97.5474C49.1307 97.4478 49.3161 97.3149 49.4434 97.1489C49.5706 96.9774 49.6343 96.7837 49.6343 96.5679ZM57.4619 90.0186V91.4795H52.3984V90.0186H57.4619ZM53.8594 87.8188H55.8599V96.5181C55.8599 96.7948 55.8986 97.0078 55.9761 97.1572C56.0591 97.3011 56.1725 97.3979 56.3164 97.4478C56.4603 97.4976 56.6291 97.5225 56.8228 97.5225C56.9611 97.5225 57.0939 97.5142 57.2212 97.4976C57.3485 97.481 57.4508 97.4644 57.5283 97.4478L57.5366 98.9751C57.3706 99.0249 57.1769 99.0692 56.9556 99.1079C56.7397 99.1466 56.4907 99.166 56.2085 99.166C55.7492 99.166 55.3424 99.0858 54.9883 98.9253C54.6341 98.7593 54.3574 98.4909 54.1582 98.1201C53.959 97.7493 53.8594 97.2568 53.8594 96.6426V87.8188ZM62.9653 99.166C62.3013 99.166 61.7008 99.0581 61.1641 98.8423C60.6328 98.6209 60.179 98.3138 59.8027 97.9209C59.432 97.528 59.147 97.0659 58.9478 96.5347C58.7485 96.0034 58.6489 95.4307 58.6489 94.8164V94.4844C58.6489 93.7816 58.7513 93.1452 58.9561 92.5752C59.1608 92.0052 59.4458 91.5182 59.811 91.1143C60.1763 90.7048 60.6079 90.3921 61.106 90.1763C61.604 89.9604 62.1436 89.8525 62.7246 89.8525C63.3665 89.8525 63.9282 89.9604 64.4097 90.1763C64.8911 90.3921 65.2896 90.6965 65.605 91.0894C65.9259 91.4767 66.1639 91.9388 66.3188 92.4756C66.4793 93.0124 66.5596 93.6045 66.5596 94.252V95.1069H59.6201V93.6709H64.584V93.5132C64.5729 93.1535 64.501 92.8159 64.3682 92.5005C64.2409 92.1851 64.0444 91.9305 63.7788 91.7368C63.5132 91.5431 63.159 91.4463 62.7163 91.4463C62.3843 91.4463 62.0882 91.5182 61.8281 91.6621C61.5736 91.8005 61.3605 92.0024 61.189 92.2681C61.0174 92.5337 60.8846 92.8547 60.7905 93.231C60.702 93.6017 60.6577 94.0195 60.6577 94.4844V94.8164C60.6577 95.2093 60.7103 95.5745 60.8154 95.9121C60.9261 96.2441 61.0866 96.5347 61.2969 96.7837C61.5072 97.0327 61.7617 97.2292 62.0605 97.373C62.3594 97.5114 62.6997 97.5806 63.0815 97.5806C63.563 97.5806 63.9919 97.4837 64.3682 97.29C64.7445 97.0964 65.071 96.8224 65.3477 96.4683L66.4019 97.4893C66.2082 97.7715 65.9564 98.0426 65.6465 98.3027C65.3366 98.5573 64.9575 98.7648 64.5093 98.9253C64.0666 99.0858 63.5519 99.166 62.9653 99.166ZM70.2617 86.25V99H68.2529V86.25H70.2617ZM76.4126 99.166C75.7485 99.166 75.1481 99.0581 74.6113 98.8423C74.0801 98.6209 73.6263 98.3138 73.25 97.9209C72.8792 97.528 72.5942 97.0659 72.395 96.5347C72.1958 96.0034 72.0962 95.4307 72.0962 94.8164V94.4844C72.0962 93.7816 72.1986 93.1452 72.4033 92.5752C72.6081 92.0052 72.8931 91.5182 73.2583 91.1143C73.6235 90.7048 74.0552 90.3921 74.5532 90.1763C75.0513 89.9604 75.5908 89.8525 76.1719 89.8525C76.8138 89.8525 77.3755 89.9604 77.8569 90.1763C78.3384 90.3921 78.7368 90.6965 79.0522 91.0894C79.3732 91.4767 79.6112 91.9388 79.7661 92.4756C79.9266 93.0124 80.0068 93.6045 80.0068 94.252V95.1069H73.0674V93.6709H78.0312V93.5132C78.0202 93.1535 77.9482 92.8159 77.8154 92.5005C77.6882 92.1851 77.4917 91.9305 77.2261 91.7368C76.9604 91.5431 76.6063 91.4463 76.1636 91.4463C75.8315 91.4463 75.5355 91.5182 75.2754 91.6621C75.0208 91.8005 74.8078 92.0024 74.6362 92.2681C74.4647 92.5337 74.3319 92.8547 74.2378 93.231C74.1493 93.6017 74.105 94.0195 74.105 94.4844V94.8164C74.105 95.2093 74.1576 95.5745 74.2627 95.9121C74.3734 96.2441 74.5339 96.5347 74.7441 96.7837C74.9544 97.0327 75.209 97.2292 75.5078 97.373C75.8066 97.5114 76.147 97.5806 76.5288 97.5806C77.0103 97.5806 77.4391 97.4837 77.8154 97.29C78.1917 97.0964 78.5182 96.8224 78.7949 96.4683L79.8491 97.4893C79.6554 97.7715 79.4036 98.0426 79.0938 98.3027C78.7839 98.5573 78.4048 98.7648 77.9565 98.9253C77.5138 99.0858 76.9992 99.166 76.4126 99.166ZM83.543 86.25V99H81.5508V86.25H83.543ZM83.1943 94.1772L82.5469 94.1689C82.5524 93.5492 82.6382 92.9764 82.8042 92.4507C82.9757 91.925 83.2137 91.4684 83.5181 91.0811C83.828 90.6882 84.1987 90.3866 84.6304 90.1763C85.062 89.9604 85.5407 89.8525 86.0664 89.8525C86.5091 89.8525 86.9076 89.9134 87.2617 90.0352C87.6214 90.1569 87.9313 90.3534 88.1914 90.6245C88.4515 90.8901 88.6479 91.2388 88.7808 91.6704C88.9191 92.0965 88.9883 92.6167 88.9883 93.231V99H86.9795V93.2144C86.9795 92.7827 86.9159 92.4396 86.7886 92.1851C86.6668 91.9305 86.487 91.7479 86.249 91.6372C86.0111 91.521 85.7205 91.4629 85.3774 91.4629C85.0177 91.4629 84.6995 91.5348 84.4229 91.6787C84.1517 91.8226 83.9248 92.019 83.7422 92.2681C83.5596 92.5171 83.4212 92.8049 83.3271 93.1313C83.2386 93.4578 83.1943 93.8065 83.1943 94.1772ZM94.9731 99.166C94.3091 99.166 93.7087 99.0581 93.1719 98.8423C92.6406 98.6209 92.1868 98.3138 91.8105 97.9209C91.4398 97.528 91.1548 97.0659 90.9556 96.5347C90.7563 96.0034 90.6567 95.4307 90.6567 94.8164V94.4844C90.6567 93.7816 90.7591 93.1452 90.9639 92.5752C91.1686 92.0052 91.4536 91.5182 91.8188 91.1143C92.1841 90.7048 92.6157 90.3921 93.1138 90.1763C93.6118 89.9604 94.1514 89.8525 94.7324 89.8525C95.3743 89.8525 95.936 89.9604 96.4175 90.1763C96.8989 90.3921 97.2974 90.6965 97.6128 91.0894C97.9338 91.4767 98.1717 91.9388 98.3267 92.4756C98.4871 93.0124 98.5674 93.6045 98.5674 94.252V95.1069H91.6279V93.6709H96.5918V93.5132C96.5807 93.1535 96.5088 92.8159 96.376 92.5005C96.2487 92.1851 96.0522 91.9305 95.7866 91.7368C95.521 91.5431 95.1668 91.4463 94.7241 91.4463C94.3921 91.4463 94.096 91.5182 93.8359 91.6621C93.5814 91.8005 93.3683 92.0024 93.1968 92.2681C93.0252 92.5337 92.8924 92.8547 92.7983 93.231C92.7098 93.6017 92.6655 94.0195 92.6655 94.4844V94.8164C92.6655 95.2093 92.7181 95.5745 92.8232 95.9121C92.9339 96.2441 93.0944 96.5347 93.3047 96.7837C93.515 97.0327 93.7695 97.2292 94.0684 97.373C94.3672 97.5114 94.7075 97.5806 95.0894 97.5806C95.5708 97.5806 95.9997 97.4837 96.376 97.29C96.7523 97.0964 97.0788 96.8224 97.3555 96.4683L98.4097 97.4893C98.216 97.7715 97.9642 98.0426 97.6543 98.3027C97.3444 98.5573 96.9653 98.7648 96.5171 98.9253C96.0744 99.0858 95.5597 99.166 94.9731 99.166ZM107.283 97.4146L109.483 90.0186H111.558L108.437 99H107.142L107.283 97.4146ZM105.598 90.0186L107.839 97.4478L107.947 99H106.652L103.515 90.0186H105.598ZM116.638 99.166C115.974 99.166 115.374 99.0581 114.837 98.8423C114.306 98.6209 113.852 98.3138 113.476 97.9209C113.105 97.528 112.82 97.0659 112.621 96.5347C112.421 96.0034 112.322 95.4307 112.322 94.8164V94.4844C112.322 93.7816 112.424 93.1452 112.629 92.5752C112.834 92.0052 113.119 91.5182 113.484 91.1143C113.849 90.7048 114.281 90.3921 114.779 90.1763C115.277 89.9604 115.816 89.8525 116.397 89.8525C117.039 89.8525 117.601 89.9604 118.083 90.1763C118.564 90.3921 118.962 90.6965 119.278 91.0894C119.599 91.4767 119.837 91.9388 119.992 92.4756C120.152 93.0124 120.232 93.6045 120.232 94.252V95.1069H113.293V93.6709H118.257V93.5132C118.246 93.1535 118.174 92.8159 118.041 92.5005C117.914 92.1851 117.717 91.9305 117.452 91.7368C117.186 91.5431 116.832 91.4463 116.389 91.4463C116.057 91.4463 115.761 91.5182 115.501 91.6621C115.246 91.8005 115.033 92.0024 114.862 92.2681C114.69 92.5337 114.557 92.8547 114.463 93.231C114.375 93.6017 114.331 94.0195 114.331 94.4844V94.8164C114.331 95.2093 114.383 95.5745 114.488 95.9121C114.599 96.2441 114.759 96.5347 114.97 96.7837C115.18 97.0327 115.435 97.2292 115.733 97.373C116.032 97.5114 116.373 97.5806 116.754 97.5806C117.236 97.5806 117.665 97.4837 118.041 97.29C118.417 97.0964 118.744 96.8224 119.021 96.4683L120.075 97.4893C119.881 97.7715 119.629 98.0426 119.319 98.3027C119.009 98.5573 118.63 98.7648 118.182 98.9253C117.739 99.0858 117.225 99.166 116.638 99.166ZM125.752 99.166C125.088 99.166 124.488 99.0581 123.951 98.8423C123.42 98.6209 122.966 98.3138 122.59 97.9209C122.219 97.528 121.934 97.0659 121.735 96.5347C121.536 96.0034 121.436 95.4307 121.436 94.8164V94.4844C121.436 93.7816 121.538 93.1452 121.743 92.5752C121.948 92.0052 122.233 91.5182 122.598 91.1143C122.963 90.7048 123.395 90.3921 123.893 90.1763C124.391 89.9604 124.931 89.8525 125.512 89.8525C126.154 89.8525 126.715 89.9604 127.197 90.1763C127.678 90.3921 128.077 90.6965 128.392 91.0894C128.713 91.4767 128.951 91.9388 129.106 92.4756C129.266 93.0124 129.347 93.6045 129.347 94.252V95.1069H122.407V93.6709H127.371V93.5132C127.36 93.1535 127.288 92.8159 127.155 92.5005C127.028 92.1851 126.832 91.9305 126.566 91.7368C126.3 91.5431 125.946 91.4463 125.503 91.4463C125.171 91.4463 124.875 91.5182 124.615 91.6621C124.361 91.8005 124.148 92.0024 123.976 92.2681C123.805 92.5337 123.672 92.8547 123.578 93.231C123.489 93.6017 123.445 94.0195 123.445 94.4844V94.8164C123.445 95.2093 123.497 95.5745 123.603 95.9121C123.713 96.2441 123.874 96.5347 124.084 96.7837C124.294 97.0327 124.549 97.2292 124.848 97.373C125.146 97.5114 125.487 97.5806 125.869 97.5806C126.35 97.5806 126.779 97.4837 127.155 97.29C127.532 97.0964 127.858 96.8224 128.135 96.4683L129.189 97.4893C128.995 97.7715 128.743 98.0426 128.434 98.3027C128.124 98.5573 127.745 98.7648 127.296 98.9253C126.854 99.0858 126.339 99.166 125.752 99.166ZM130.916 86.25H132.916V97.0825L132.725 99H130.916V86.25ZM138.776 94.4263V94.6006C138.776 95.2646 138.702 95.8761 138.552 96.4351C138.408 96.9884 138.187 97.4699 137.888 97.8794C137.595 98.2889 137.23 98.6071 136.792 98.834C136.361 99.0553 135.86 99.166 135.29 99.166C134.731 99.166 134.244 99.0609 133.829 98.8506C133.414 98.6403 133.065 98.3415 132.783 97.9541C132.507 97.5667 132.282 97.1047 132.111 96.5679C131.939 96.0311 131.818 95.439 131.746 94.7915V94.2354C131.818 93.5824 131.939 92.9902 132.111 92.459C132.282 91.9222 132.507 91.4601 132.783 91.0728C133.065 90.6799 133.411 90.3783 133.821 90.168C134.236 89.9577 134.72 89.8525 135.273 89.8525C135.849 89.8525 136.355 89.9632 136.792 90.1846C137.235 90.4059 137.603 90.7214 137.896 91.1309C138.19 91.5348 138.408 92.0163 138.552 92.5752C138.702 93.1341 138.776 93.7511 138.776 94.4263ZM136.776 94.6006V94.4263C136.776 94.0223 136.743 93.6432 136.676 93.2891C136.61 92.9294 136.499 92.6139 136.344 92.3428C136.195 92.0716 135.99 91.8586 135.73 91.7036C135.475 91.5431 135.157 91.4629 134.775 91.4629C134.421 91.4629 134.117 91.5238 133.862 91.6455C133.608 91.7673 133.395 91.9333 133.223 92.1436C133.052 92.3538 132.916 92.5973 132.816 92.874C132.722 93.1507 132.659 93.4495 132.625 93.7705V95.2729C132.675 95.688 132.78 96.0698 132.941 96.4185C133.107 96.7616 133.339 97.0382 133.638 97.2485C133.937 97.4533 134.322 97.5557 134.792 97.5557C135.163 97.5557 135.475 97.481 135.73 97.3315C135.985 97.1821 136.187 96.9746 136.336 96.709C136.491 96.4378 136.602 96.1224 136.668 95.7627C136.74 95.403 136.776 95.0156 136.776 94.6006ZM142.611 90.0186V99H140.603V90.0186H142.611ZM140.47 87.6611C140.47 87.3568 140.569 87.105 140.769 86.9058C140.973 86.701 141.256 86.5986 141.615 86.5986C141.969 86.5986 142.249 86.701 142.454 86.9058C142.658 87.105 142.761 87.3568 142.761 87.6611C142.761 87.96 142.658 88.209 142.454 88.4082C142.249 88.6074 141.969 88.707 141.615 88.707C141.256 88.707 140.973 88.6074 140.769 88.4082C140.569 88.209 140.47 87.96 140.47 87.6611ZM146.812 91.7451V102.453H144.811V90.0186H146.654L146.812 91.7451ZM152.664 94.4263V94.6006C152.664 95.2536 152.586 95.8595 152.431 96.4185C152.282 96.9718 152.058 97.4561 151.759 97.8711C151.465 98.2806 151.103 98.5988 150.671 98.8257C150.24 99.0526 149.742 99.166 149.177 99.166C148.618 99.166 148.129 99.0636 147.708 98.8589C147.293 98.6486 146.942 98.3525 146.654 97.9707C146.366 97.5889 146.134 97.1406 145.957 96.626C145.785 96.1058 145.663 95.5358 145.591 94.916V94.2437C145.663 93.5851 145.785 92.9875 145.957 92.4507C146.134 91.9139 146.366 91.4518 146.654 91.0645C146.942 90.6771 147.293 90.3783 147.708 90.168C148.123 89.9577 148.607 89.8525 149.161 89.8525C149.725 89.8525 150.226 89.9632 150.663 90.1846C151.1 90.4004 151.468 90.7103 151.767 91.1143C152.066 91.5127 152.29 91.9941 152.439 92.5586C152.589 93.1175 152.664 93.7401 152.664 94.4263ZM150.663 94.6006V94.4263C150.663 94.0112 150.624 93.6266 150.547 93.2725C150.469 92.9128 150.348 92.5973 150.182 92.3262C150.016 92.055 149.803 91.8447 149.542 91.6953C149.288 91.5404 148.981 91.4629 148.621 91.4629C148.267 91.4629 147.963 91.5238 147.708 91.6455C147.453 91.7617 147.24 91.925 147.069 92.1353C146.897 92.3455 146.764 92.5918 146.67 92.874C146.576 93.1507 146.51 93.4523 146.471 93.7788V95.3892C146.538 95.7876 146.651 96.1528 146.812 96.4849C146.972 96.8169 147.199 97.0825 147.492 97.2817C147.791 97.4754 148.173 97.5723 148.638 97.5723C148.997 97.5723 149.305 97.4948 149.559 97.3398C149.814 97.1849 150.021 96.9718 150.182 96.7007C150.348 96.424 150.469 96.1058 150.547 95.7461C150.624 95.3864 150.663 95.0046 150.663 94.6006ZM153.983 94.6089V94.418C153.983 93.7705 154.077 93.1701 154.266 92.6167C154.454 92.0578 154.725 91.5736 155.079 91.1641C155.439 90.749 155.876 90.4281 156.391 90.2012C156.911 89.9688 157.497 89.8525 158.15 89.8525C158.809 89.8525 159.396 89.9688 159.91 90.2012C160.43 90.4281 160.87 90.749 161.23 91.1641C161.59 91.5736 161.864 92.0578 162.052 92.6167C162.24 93.1701 162.334 93.7705 162.334 94.418V94.6089C162.334 95.2563 162.24 95.8568 162.052 96.4102C161.864 96.9635 161.59 97.4478 161.23 97.8628C160.87 98.2723 160.433 98.5933 159.918 98.8257C159.404 99.0526 158.82 99.166 158.167 99.166C157.508 99.166 156.919 99.0526 156.399 98.8257C155.884 98.5933 155.447 98.2723 155.087 97.8628C154.728 97.4478 154.454 96.9635 154.266 96.4102C154.077 95.8568 153.983 95.2563 153.983 94.6089ZM155.984 94.418V94.6089C155.984 95.0129 156.025 95.3947 156.108 95.7544C156.191 96.1141 156.321 96.4295 156.499 96.7007C156.676 96.9718 156.903 97.1849 157.179 97.3398C157.456 97.4948 157.785 97.5723 158.167 97.5723C158.538 97.5723 158.859 97.4948 159.13 97.3398C159.407 97.1849 159.633 96.9718 159.811 96.7007C159.988 96.4295 160.118 96.1141 160.201 95.7544C160.289 95.3947 160.333 95.0129 160.333 94.6089V94.418C160.333 94.0195 160.289 93.6432 160.201 93.2891C160.118 92.9294 159.985 92.6112 159.802 92.3345C159.625 92.0578 159.398 91.842 159.122 91.687C158.85 91.5265 158.527 91.4463 158.15 91.4463C157.774 91.4463 157.448 91.5265 157.171 91.687C156.9 91.842 156.676 92.0578 156.499 92.3345C156.321 92.6112 156.191 92.9294 156.108 93.2891C156.025 93.6432 155.984 94.0195 155.984 94.418ZM166.02 91.7285V99H164.019V90.0186H165.928L166.02 91.7285ZM168.767 89.9604L168.75 91.8198C168.629 91.7977 168.496 91.7811 168.352 91.77C168.214 91.759 168.075 91.7534 167.937 91.7534C167.594 91.7534 167.292 91.8032 167.032 91.9028C166.772 91.9969 166.554 92.1353 166.376 92.3179C166.205 92.495 166.072 92.7108 165.978 92.9653C165.884 93.2199 165.829 93.5049 165.812 93.8203L165.355 93.8535C165.355 93.2891 165.411 92.7661 165.521 92.2847C165.632 91.8032 165.798 91.3799 166.02 91.0146C166.246 90.6494 166.529 90.3644 166.866 90.1597C167.209 89.9549 167.605 89.8525 168.053 89.8525C168.175 89.8525 168.305 89.8636 168.443 89.8857C168.587 89.9079 168.695 89.9328 168.767 89.9604ZM174.553 90.0186V91.4795H169.489V90.0186H174.553ZM170.95 87.8188H172.951V96.5181C172.951 96.7948 172.989 97.0078 173.067 97.1572C173.15 97.3011 173.263 97.3979 173.407 97.4478C173.551 97.4976 173.72 97.5225 173.914 97.5225C174.052 97.5225 174.185 97.5142 174.312 97.4976C174.439 97.481 174.542 97.4644 174.619 97.4478L174.627 98.9751C174.461 99.0249 174.268 99.0692 174.046 99.1079C173.831 99.1466 173.582 99.166 173.299 99.166C172.84 99.166 172.433 99.0858 172.079 98.9253C171.725 98.7593 171.448 98.4909 171.249 98.1201C171.05 97.7493 170.95 97.2568 170.95 96.6426V87.8188ZM181.16 97.1987V92.9155C181.16 92.5946 181.102 92.3179 180.986 92.0854C180.87 91.853 180.693 91.6732 180.455 91.5459C180.222 91.4186 179.929 91.355 179.575 91.355C179.248 91.355 178.966 91.4103 178.728 91.521C178.49 91.6317 178.305 91.7811 178.172 91.9692C178.039 92.1574 177.973 92.3704 177.973 92.6084H175.98C175.98 92.2542 176.066 91.9111 176.238 91.5791C176.409 91.2471 176.658 90.951 176.985 90.6909C177.311 90.4308 177.701 90.2261 178.155 90.0767C178.609 89.9272 179.118 89.8525 179.683 89.8525C180.358 89.8525 180.955 89.966 181.476 90.1929C182.001 90.4198 182.414 90.7629 182.712 91.2222C183.017 91.6759 183.169 92.2459 183.169 92.9321V96.9248C183.169 97.3343 183.197 97.7023 183.252 98.0288C183.313 98.3498 183.399 98.6292 183.509 98.8672V99H181.459C181.365 98.7842 181.29 98.5103 181.235 98.1782C181.185 97.8407 181.16 97.5142 181.16 97.1987ZM181.451 93.5381L181.467 94.7749H180.031C179.66 94.7749 179.334 94.8109 179.052 94.8828C178.77 94.9492 178.534 95.0488 178.346 95.1816C178.158 95.3145 178.017 95.4749 177.923 95.6631C177.829 95.8512 177.782 96.0643 177.782 96.3022C177.782 96.5402 177.837 96.7588 177.948 96.958C178.058 97.1517 178.219 97.3039 178.429 97.4146C178.645 97.5252 178.905 97.5806 179.209 97.5806C179.619 97.5806 179.976 97.4976 180.28 97.3315C180.59 97.16 180.834 96.9525 181.011 96.709C181.188 96.46 181.282 96.2248 181.293 96.0034L181.94 96.8916C181.874 97.1185 181.761 97.362 181.6 97.6221C181.44 97.8822 181.229 98.1312 180.969 98.3691C180.715 98.6016 180.408 98.7925 180.048 98.9419C179.694 99.0913 179.284 99.166 178.819 99.166C178.233 99.166 177.71 99.0498 177.25 98.8174C176.791 98.5794 176.431 98.2612 176.171 97.8628C175.911 97.4588 175.781 97.0023 175.781 96.4932C175.781 96.0173 175.87 95.5967 176.047 95.2314C176.229 94.8607 176.495 94.5508 176.844 94.3018C177.198 94.0527 177.63 93.8646 178.139 93.7373C178.648 93.6045 179.229 93.5381 179.882 93.5381H181.451ZM190.324 97.1987V92.9155C190.324 92.5946 190.266 92.3179 190.15 92.0854C190.034 91.853 189.857 91.6732 189.619 91.5459C189.386 91.4186 189.093 91.355 188.739 91.355C188.412 91.355 188.13 91.4103 187.892 91.521C187.654 91.6317 187.469 91.7811 187.336 91.9692C187.203 92.1574 187.137 92.3704 187.137 92.6084H185.145C185.145 92.2542 185.23 91.9111 185.402 91.5791C185.573 91.2471 185.822 90.951 186.149 90.6909C186.475 90.4308 186.866 90.2261 187.319 90.0767C187.773 89.9272 188.282 89.8525 188.847 89.8525C189.522 89.8525 190.119 89.966 190.64 90.1929C191.165 90.4198 191.578 90.7629 191.876 91.2222C192.181 91.6759 192.333 92.2459 192.333 92.9321V96.9248C192.333 97.3343 192.361 97.7023 192.416 98.0288C192.477 98.3498 192.563 98.6292 192.673 98.8672V99H190.623C190.529 98.7842 190.454 98.5103 190.399 98.1782C190.349 97.8407 190.324 97.5142 190.324 97.1987ZM190.615 93.5381L190.631 94.7749H189.195C188.825 94.7749 188.498 94.8109 188.216 94.8828C187.934 94.9492 187.698 95.0488 187.51 95.1816C187.322 95.3145 187.181 95.4749 187.087 95.6631C186.993 95.8512 186.946 96.0643 186.946 96.3022C186.946 96.5402 187.001 96.7588 187.112 96.958C187.222 97.1517 187.383 97.3039 187.593 97.4146C187.809 97.5252 188.069 97.5806 188.374 97.5806C188.783 97.5806 189.14 97.4976 189.444 97.3315C189.754 97.16 189.998 96.9525 190.175 96.709C190.352 96.46 190.446 96.2248 190.457 96.0034L191.104 96.8916C191.038 97.1185 190.925 97.362 190.764 97.6221C190.604 97.8822 190.393 98.1312 190.133 98.3691C189.879 98.6016 189.572 98.7925 189.212 98.9419C188.858 99.0913 188.448 99.166 187.983 99.166C187.397 99.166 186.874 99.0498 186.415 98.8174C185.955 98.5794 185.596 98.2612 185.335 97.8628C185.075 97.4588 184.945 97.0023 184.945 96.4932C184.945 96.0173 185.034 95.5967 185.211 95.2314C185.394 94.8607 185.659 94.5508 186.008 94.3018C186.362 94.0527 186.794 93.8646 187.303 93.7373C187.812 93.6045 188.393 93.5381 189.046 93.5381H190.615ZM196.566 86.25V99H194.558V86.25H196.566ZM208.055 97.1987V92.9155C208.055 92.5946 207.997 92.3179 207.88 92.0854C207.764 91.853 207.587 91.6732 207.349 91.5459C207.117 91.4186 206.823 91.355 206.469 91.355C206.143 91.355 205.861 91.4103 205.623 91.521C205.385 91.6317 205.199 91.7811 205.066 91.9692C204.934 92.1574 204.867 92.3704 204.867 92.6084H202.875C202.875 92.2542 202.961 91.9111 203.132 91.5791C203.304 91.2471 203.553 90.951 203.879 90.6909C204.206 90.4308 204.596 90.2261 205.05 90.0767C205.504 89.9272 206.013 89.8525 206.577 89.8525C207.252 89.8525 207.85 89.966 208.37 90.1929C208.896 90.4198 209.308 90.7629 209.607 91.2222C209.911 91.6759 210.063 92.2459 210.063 92.9321V96.9248C210.063 97.3343 210.091 97.7023 210.146 98.0288C210.207 98.3498 210.293 98.6292 210.404 98.8672V99H208.354C208.259 98.7842 208.185 98.5103 208.129 98.1782C208.08 97.8407 208.055 97.5142 208.055 97.1987ZM208.345 93.5381L208.362 94.7749H206.926C206.555 94.7749 206.229 94.8109 205.946 94.8828C205.664 94.9492 205.429 95.0488 205.241 95.1816C205.053 95.3145 204.911 95.4749 204.817 95.6631C204.723 95.8512 204.676 96.0643 204.676 96.3022C204.676 96.5402 204.732 96.7588 204.842 96.958C204.953 97.1517 205.113 97.3039 205.324 97.4146C205.54 97.5252 205.8 97.5806 206.104 97.5806C206.514 97.5806 206.87 97.4976 207.175 97.3315C207.485 97.16 207.728 96.9525 207.905 96.709C208.082 96.46 208.176 96.2248 208.188 96.0034L208.835 96.8916C208.769 97.1185 208.655 97.362 208.495 97.6221C208.334 97.8822 208.124 98.1312 207.864 98.3691C207.609 98.6016 207.302 98.7925 206.942 98.9419C206.588 99.0913 206.179 99.166 205.714 99.166C205.127 99.166 204.604 99.0498 204.145 98.8174C203.686 98.5794 203.326 98.2612 203.066 97.8628C202.806 97.4588 202.676 97.0023 202.676 96.4932C202.676 96.0173 202.764 95.5967 202.941 95.2314C203.124 94.8607 203.39 94.5508 203.738 94.3018C204.092 94.0527 204.524 93.8646 205.033 93.7373C205.542 93.6045 206.123 93.5381 206.776 93.5381H208.345ZM214.297 90.0186V99H212.288V90.0186H214.297ZM212.155 87.6611C212.155 87.3568 212.255 87.105 212.454 86.9058C212.659 86.701 212.941 86.5986 213.301 86.5986C213.655 86.5986 213.934 86.701 214.139 86.9058C214.344 87.105 214.446 87.3568 214.446 87.6611C214.446 87.96 214.344 88.209 214.139 88.4082C213.934 88.6074 213.655 88.707 213.301 88.707C212.941 88.707 212.659 88.6074 212.454 88.4082C212.255 88.209 212.155 87.96 212.155 87.6611ZM220.605 90.0186V91.4795H215.542V90.0186H220.605ZM217.003 87.8188H219.003V96.5181C219.003 96.7948 219.042 97.0078 219.12 97.1572C219.203 97.3011 219.316 97.3979 219.46 97.4478C219.604 97.4976 219.773 97.5225 219.966 97.5225C220.105 97.5225 220.237 97.5142 220.365 97.4976C220.492 97.481 220.594 97.4644 220.672 97.4478L220.68 98.9751C220.514 99.0249 220.32 99.0692 220.099 99.1079C219.883 99.1466 219.634 99.166 219.352 99.166C218.893 99.166 218.486 99.0858 218.132 98.9253C217.778 98.7593 217.501 98.4909 217.302 98.1201C217.103 97.7493 217.003 97.2568 217.003 96.6426V87.8188ZM227.213 97.1987V92.9155C227.213 92.5946 227.155 92.3179 227.039 92.0854C226.922 91.853 226.745 91.6732 226.507 91.5459C226.275 91.4186 225.982 91.355 225.627 91.355C225.301 91.355 225.019 91.4103 224.781 91.521C224.543 91.6317 224.357 91.7811 224.225 91.9692C224.092 92.1574 224.025 92.3704 224.025 92.6084H222.033C222.033 92.2542 222.119 91.9111 222.291 91.5791C222.462 91.2471 222.711 90.951 223.038 90.6909C223.364 90.4308 223.754 90.2261 224.208 90.0767C224.662 89.9272 225.171 89.8525 225.735 89.8525C226.41 89.8525 227.008 89.966 227.528 90.1929C228.054 90.4198 228.466 90.7629 228.765 91.2222C229.069 91.6759 229.222 92.2459 229.222 92.9321V96.9248C229.222 97.3343 229.249 97.7023 229.305 98.0288C229.366 98.3498 229.451 98.6292 229.562 98.8672V99H227.512C227.418 98.7842 227.343 98.5103 227.288 98.1782C227.238 97.8407 227.213 97.5142 227.213 97.1987ZM227.503 93.5381L227.52 94.7749H226.084C225.713 94.7749 225.387 94.8109 225.104 94.8828C224.822 94.9492 224.587 95.0488 224.399 95.1816C224.211 95.3145 224.07 95.4749 223.976 95.6631C223.882 95.8512 223.834 96.0643 223.834 96.3022C223.834 96.5402 223.89 96.7588 224 96.958C224.111 97.1517 224.272 97.3039 224.482 97.4146C224.698 97.5252 224.958 97.5806 225.262 97.5806C225.672 97.5806 226.029 97.4976 226.333 97.3315C226.643 97.16 226.886 96.9525 227.063 96.709C227.241 96.46 227.335 96.2248 227.346 96.0034L227.993 96.8916C227.927 97.1185 227.813 97.362 227.653 97.6221C227.492 97.8822 227.282 98.1312 227.022 98.3691C226.767 98.6016 226.46 98.7925 226.101 98.9419C225.746 99.0913 225.337 99.166 224.872 99.166C224.285 99.166 223.763 99.0498 223.303 98.8174C222.844 98.5794 222.484 98.2612 222.224 97.8628C221.964 97.4588 221.834 97.0023 221.834 96.4932C221.834 96.0173 221.923 95.5967 222.1 95.2314C222.282 94.8607 222.548 94.5508 222.896 94.3018C223.251 94.0527 223.682 93.8646 224.191 93.7373C224.701 93.6045 225.282 93.5381 225.935 93.5381H227.503ZM231.322 86.25H233.322V97.0825L233.131 99H231.322V86.25ZM239.183 94.4263V94.6006C239.183 95.2646 239.108 95.8761 238.958 96.4351C238.815 96.9884 238.593 97.4699 238.294 97.8794C238.001 98.2889 237.636 98.6071 237.199 98.834C236.767 99.0553 236.266 99.166 235.696 99.166C235.137 99.166 234.65 99.0609 234.235 98.8506C233.82 98.6403 233.472 98.3415 233.189 97.9541C232.913 97.5667 232.689 97.1047 232.517 96.5679C232.346 96.0311 232.224 95.439 232.152 94.7915V94.2354C232.224 93.5824 232.346 92.9902 232.517 92.459C232.689 91.9222 232.913 91.4601 233.189 91.0728C233.472 90.6799 233.818 90.3783 234.227 90.168C234.642 89.9577 235.126 89.8525 235.68 89.8525C236.255 89.8525 236.762 89.9632 237.199 90.1846C237.641 90.4059 238.009 90.7214 238.303 91.1309C238.596 91.5348 238.815 92.0163 238.958 92.5752C239.108 93.1341 239.183 93.7511 239.183 94.4263ZM237.182 94.6006V94.4263C237.182 94.0223 237.149 93.6432 237.083 93.2891C237.016 92.9294 236.905 92.6139 236.75 92.3428C236.601 92.0716 236.396 91.8586 236.136 91.7036C235.882 91.5431 235.563 91.4629 235.182 91.4629C234.827 91.4629 234.523 91.5238 234.269 91.6455C234.014 91.7673 233.801 91.9333 233.629 92.1436C233.458 92.3538 233.322 92.5973 233.223 92.874C233.129 93.1507 233.065 93.4495 233.032 93.7705V95.2729C233.082 95.688 233.187 96.0698 233.347 96.4185C233.513 96.7616 233.746 97.0382 234.044 97.2485C234.343 97.4533 234.728 97.5557 235.198 97.5557C235.569 97.5557 235.882 97.481 236.136 97.3315C236.391 97.1821 236.593 96.9746 236.742 96.709C236.897 96.4378 237.008 96.1224 237.074 95.7627C237.146 95.403 237.182 95.0156 237.182 94.6006ZM249.227 90.0186V91.4795H244.163V90.0186H249.227ZM245.624 87.8188H247.625V96.5181C247.625 96.7948 247.663 97.0078 247.741 97.1572C247.824 97.3011 247.937 97.3979 248.081 97.4478C248.225 97.4976 248.394 97.5225 248.587 97.5225C248.726 97.5225 248.859 97.5142 248.986 97.4976C249.113 97.481 249.215 97.4644 249.293 97.4478L249.301 98.9751C249.135 99.0249 248.942 99.0692 248.72 99.1079C248.504 99.1466 248.255 99.166 247.973 99.166C247.514 99.166 247.107 99.0858 246.753 98.9253C246.399 98.7593 246.122 98.4909 245.923 98.1201C245.724 97.7493 245.624 97.2568 245.624 96.6426V87.8188ZM254.73 99.166C254.066 99.166 253.465 99.0581 252.929 98.8423C252.397 98.6209 251.944 98.3138 251.567 97.9209C251.197 97.528 250.912 97.0659 250.712 96.5347C250.513 96.0034 250.414 95.4307 250.414 94.8164V94.4844C250.414 93.7816 250.516 93.1452 250.721 92.5752C250.925 92.0052 251.21 91.5182 251.576 91.1143C251.941 90.7048 252.373 90.3921 252.871 90.1763C253.369 89.9604 253.908 89.8525 254.489 89.8525C255.131 89.8525 255.693 89.9604 256.174 90.1763C256.656 90.3921 257.054 90.6965 257.37 91.0894C257.691 91.4767 257.929 91.9388 258.083 92.4756C258.244 93.0124 258.324 93.6045 258.324 94.252V95.1069H251.385V93.6709H256.349V93.5132C256.338 93.1535 256.266 92.8159 256.133 92.5005C256.006 92.1851 255.809 91.9305 255.543 91.7368C255.278 91.5431 254.924 91.4463 254.481 91.4463C254.149 91.4463 253.853 91.5182 253.593 91.6621C253.338 91.8005 253.125 92.0024 252.954 92.2681C252.782 92.5337 252.649 92.8547 252.555 93.231C252.467 93.6017 252.422 94.0195 252.422 94.4844V94.8164C252.422 95.2093 252.475 95.5745 252.58 95.9121C252.691 96.2441 252.851 96.5347 253.062 96.7837C253.272 97.0327 253.526 97.2292 253.825 97.373C254.124 97.5114 254.464 97.5806 254.846 97.5806C255.328 97.5806 255.757 97.4837 256.133 97.29C256.509 97.0964 256.836 96.8224 257.112 96.4683L258.167 97.4893C257.973 97.7715 257.721 98.0426 257.411 98.3027C257.101 98.5573 256.722 98.7648 256.274 98.9253C255.831 99.0858 255.317 99.166 254.73 99.166ZM261.86 86.25V99H259.868V86.25H261.86ZM261.512 94.1772L260.864 94.1689C260.87 93.5492 260.956 92.9764 261.122 92.4507C261.293 91.925 261.531 91.4684 261.835 91.0811C262.145 90.6882 262.516 90.3866 262.948 90.1763C263.379 89.9604 263.858 89.8525 264.384 89.8525C264.826 89.8525 265.225 89.9134 265.579 90.0352C265.939 90.1569 266.249 90.3534 266.509 90.6245C266.769 90.8901 266.965 91.2388 267.098 91.6704C267.236 92.0965 267.306 92.6167 267.306 93.231V99H265.297V93.2144C265.297 92.7827 265.233 92.4396 265.106 92.1851C264.984 91.9305 264.804 91.7479 264.566 91.6372C264.328 91.521 264.038 91.4629 263.695 91.4629C263.335 91.4629 263.017 91.5348 262.74 91.6787C262.469 91.8226 262.242 92.019 262.06 92.2681C261.877 92.5171 261.739 92.8049 261.645 93.1313C261.556 93.4578 261.512 93.8065 261.512 94.1772ZM274.395 97.1987V92.9155C274.395 92.5946 274.336 92.3179 274.22 92.0854C274.104 91.853 273.927 91.6732 273.689 91.5459C273.457 91.4186 273.163 91.355 272.809 91.355C272.483 91.355 272.2 91.4103 271.962 91.521C271.724 91.6317 271.539 91.7811 271.406 91.9692C271.273 92.1574 271.207 92.3704 271.207 92.6084H269.215C269.215 92.2542 269.301 91.9111 269.472 91.5791C269.644 91.2471 269.893 90.951 270.219 90.6909C270.546 90.4308 270.936 90.2261 271.39 90.0767C271.843 89.9272 272.353 89.8525 272.917 89.8525C273.592 89.8525 274.19 89.966 274.71 90.1929C275.236 90.4198 275.648 90.7629 275.947 91.2222C276.251 91.6759 276.403 92.2459 276.403 92.9321V96.9248C276.403 97.3343 276.431 97.7023 276.486 98.0288C276.547 98.3498 276.633 98.6292 276.744 98.8672V99H274.693C274.599 98.7842 274.525 98.5103 274.469 98.1782C274.419 97.8407 274.395 97.5142 274.395 97.1987ZM274.685 93.5381L274.702 94.7749H273.266C272.895 94.7749 272.568 94.8109 272.286 94.8828C272.004 94.9492 271.769 95.0488 271.581 95.1816C271.392 95.3145 271.251 95.4749 271.157 95.6631C271.063 95.8512 271.016 96.0643 271.016 96.3022C271.016 96.5402 271.071 96.7588 271.182 96.958C271.293 97.1517 271.453 97.3039 271.664 97.4146C271.879 97.5252 272.139 97.5806 272.444 97.5806C272.853 97.5806 273.21 97.4976 273.515 97.3315C273.825 97.16 274.068 96.9525 274.245 96.709C274.422 96.46 274.516 96.2248 274.527 96.0034L275.175 96.8916C275.108 97.1185 274.995 97.362 274.834 97.6221C274.674 97.8822 274.464 98.1312 274.204 98.3691C273.949 98.6016 273.642 98.7925 273.282 98.9419C272.928 99.0913 272.519 99.166 272.054 99.166C271.467 99.166 270.944 99.0498 270.485 98.8174C270.026 98.5794 269.666 98.2612 269.406 97.8628C269.146 97.4588 269.016 97.0023 269.016 96.4932C269.016 96.0173 269.104 95.5967 269.281 95.2314C269.464 94.8607 269.729 94.5508 270.078 94.3018C270.432 94.0527 270.864 93.8646 271.373 93.7373C271.882 93.6045 272.463 93.5381 273.116 93.5381H274.685ZM24.0679 117.568C24.0679 117.369 24.0181 117.189 23.9185 117.028C23.8188 116.862 23.6279 116.713 23.3457 116.58C23.069 116.447 22.6595 116.326 22.1172 116.215C21.6413 116.11 21.2041 115.985 20.8057 115.841C20.4128 115.692 20.0752 115.512 19.793 115.302C19.5107 115.091 19.2922 114.842 19.1372 114.555C18.9823 114.267 18.9048 113.935 18.9048 113.559C18.9048 113.193 18.985 112.847 19.1455 112.521C19.306 112.194 19.5356 111.907 19.8345 111.658C20.1333 111.409 20.4958 111.212 20.9219 111.068C21.3535 110.924 21.835 110.853 22.3662 110.853C23.1188 110.853 23.7635 110.98 24.3003 111.234C24.8426 111.483 25.2576 111.824 25.5454 112.255C25.8332 112.681 25.9771 113.163 25.9771 113.7H23.9766C23.9766 113.462 23.9157 113.24 23.7939 113.036C23.6777 112.825 23.5007 112.657 23.2627 112.529C23.0247 112.396 22.7259 112.33 22.3662 112.33C22.0231 112.33 21.7381 112.385 21.5112 112.496C21.2899 112.601 21.1239 112.74 21.0132 112.911C20.908 113.083 20.8555 113.271 20.8555 113.476C20.8555 113.625 20.8831 113.761 20.9385 113.882C20.9993 113.999 21.099 114.106 21.2373 114.206C21.3757 114.3 21.5638 114.389 21.8018 114.472C22.0452 114.555 22.3496 114.635 22.7148 114.712C23.401 114.856 23.9904 115.042 24.4829 115.269C24.981 115.49 25.3628 115.778 25.6284 116.132C25.894 116.48 26.0269 116.923 26.0269 117.46C26.0269 117.858 25.9411 118.224 25.7695 118.556C25.6035 118.882 25.36 119.167 25.0391 119.411C24.7181 119.649 24.3335 119.834 23.8853 119.967C23.4425 120.1 22.9445 120.166 22.3911 120.166C21.5776 120.166 20.8887 120.022 20.3242 119.734C19.7598 119.441 19.3309 119.068 19.0376 118.614C18.7498 118.154 18.606 117.679 18.606 117.186H20.54C20.5622 117.557 20.6646 117.853 20.8472 118.074C21.0353 118.29 21.2677 118.448 21.5444 118.547C21.8267 118.641 22.1172 118.688 22.416 118.688C22.7757 118.688 23.0773 118.641 23.3208 118.547C23.5643 118.448 23.7497 118.315 23.877 118.149C24.0042 117.977 24.0679 117.784 24.0679 117.568ZM31.8955 111.019V112.479H26.832V111.019H31.8955ZM28.293 108.819H30.2935V117.518C30.2935 117.795 30.3322 118.008 30.4097 118.157C30.4927 118.301 30.6061 118.398 30.75 118.448C30.8939 118.498 31.0627 118.522 31.2563 118.522C31.3947 118.522 31.5275 118.514 31.6548 118.498C31.7821 118.481 31.8844 118.464 31.9619 118.448L31.9702 119.975C31.8042 120.025 31.6105 120.069 31.3892 120.108C31.1733 120.147 30.9243 120.166 30.6421 120.166C30.1828 120.166 29.776 120.086 29.4219 119.925C29.0677 119.759 28.791 119.491 28.5918 119.12C28.3926 118.749 28.293 118.257 28.293 117.643V108.819ZM35.5811 111.019V120H33.5723V111.019H35.5811ZM33.4395 108.661C33.4395 108.357 33.5391 108.105 33.7383 107.906C33.943 107.701 34.2253 107.599 34.585 107.599C34.9391 107.599 35.2186 107.701 35.4233 107.906C35.6281 108.105 35.7305 108.357 35.7305 108.661C35.7305 108.96 35.6281 109.209 35.4233 109.408C35.2186 109.607 34.9391 109.707 34.585 109.707C34.2253 109.707 33.943 109.607 33.7383 109.408C33.5391 109.209 33.4395 108.96 33.4395 108.661ZM39.9141 111.019V120H37.9053V111.019H39.9141ZM37.7725 108.661C37.7725 108.357 37.8721 108.105 38.0713 107.906C38.276 107.701 38.5583 107.599 38.918 107.599C39.2721 107.599 39.5516 107.701 39.7563 107.906C39.9611 108.105 40.0635 108.357 40.0635 108.661C40.0635 108.96 39.9611 109.209 39.7563 109.408C39.5516 109.607 39.2721 109.707 38.918 109.707C38.5583 109.707 38.276 109.607 38.0713 109.408C37.8721 109.209 37.7725 108.96 37.7725 108.661ZM44.2471 107.25V120H42.2383V107.25H44.2471ZM51.4771 117.568C51.4771 117.369 51.4272 117.189 51.3276 117.028C51.228 116.862 51.0371 116.713 50.7549 116.58C50.4782 116.447 50.0687 116.326 49.5264 116.215C49.0505 116.11 48.6133 115.985 48.2148 115.841C47.8219 115.692 47.4844 115.512 47.2021 115.302C46.9199 115.091 46.7013 114.842 46.5464 114.555C46.3914 114.267 46.314 113.935 46.314 113.559C46.314 113.193 46.3942 112.847 46.5547 112.521C46.7152 112.194 46.9448 111.907 47.2437 111.658C47.5425 111.409 47.9049 111.212 48.3311 111.068C48.7627 110.924 49.2441 110.853 49.7754 110.853C50.528 110.853 51.1727 110.98 51.7095 111.234C52.2518 111.483 52.6668 111.824 52.9546 112.255C53.2424 112.681 53.3862 113.163 53.3862 113.7H51.3857C51.3857 113.462 51.3249 113.24 51.2031 113.036C51.0869 112.825 50.9098 112.657 50.6719 112.529C50.4339 112.396 50.1351 112.33 49.7754 112.33C49.4323 112.33 49.1473 112.385 48.9204 112.496C48.6991 112.601 48.533 112.74 48.4224 112.911C48.3172 113.083 48.2646 113.271 48.2646 113.476C48.2646 113.625 48.2923 113.761 48.3477 113.882C48.4085 113.999 48.5081 114.106 48.6465 114.206C48.7848 114.3 48.973 114.389 49.2109 114.472C49.4544 114.555 49.7588 114.635 50.124 114.712C50.8102 114.856 51.3996 115.042 51.8921 115.269C52.3901 115.49 52.772 115.778 53.0376 116.132C53.3032 116.48 53.436 116.923 53.436 117.46C53.436 117.858 53.3503 118.224 53.1787 118.556C53.0127 118.882 52.7692 119.167 52.4482 119.411C52.1273 119.649 51.7427 119.834 51.2944 119.967C50.8517 120.1 50.3537 120.166 49.8003 120.166C48.9868 120.166 48.2979 120.022 47.7334 119.734C47.1689 119.441 46.7401 119.068 46.4468 118.614C46.159 118.154 46.0151 117.679 46.0151 117.186H47.9492C47.9714 117.557 48.0737 117.853 48.2563 118.074C48.4445 118.29 48.6769 118.448 48.9536 118.547C49.2358 118.641 49.5264 118.688 49.8252 118.688C50.1849 118.688 50.4865 118.641 50.73 118.547C50.9735 118.448 51.1589 118.315 51.2861 118.149C51.4134 117.977 51.4771 117.784 51.4771 117.568ZM59.147 120.166C58.4829 120.166 57.8825 120.058 57.3457 119.842C56.8145 119.621 56.3607 119.314 55.9844 118.921C55.6136 118.528 55.3286 118.066 55.1294 117.535C54.9302 117.003 54.8306 116.431 54.8306 115.816V115.484C54.8306 114.782 54.9329 114.145 55.1377 113.575C55.3424 113.005 55.6274 112.518 55.9927 112.114C56.3579 111.705 56.7896 111.392 57.2876 111.176C57.7856 110.96 58.3252 110.853 58.9062 110.853C59.5482 110.853 60.1099 110.96 60.5913 111.176C61.0728 111.392 61.4712 111.696 61.7866 112.089C62.1076 112.477 62.3455 112.939 62.5005 113.476C62.661 114.012 62.7412 114.604 62.7412 115.252V116.107H55.8018V114.671H60.7656V114.513C60.7546 114.153 60.6826 113.816 60.5498 113.5C60.4225 113.185 60.2261 112.931 59.9604 112.737C59.6948 112.543 59.3407 112.446 58.8979 112.446C58.5659 112.446 58.2699 112.518 58.0098 112.662C57.7552 112.8 57.5422 113.002 57.3706 113.268C57.1991 113.534 57.0662 113.855 56.9722 114.231C56.8836 114.602 56.8394 115.02 56.8394 115.484V115.816C56.8394 116.209 56.8919 116.575 56.9971 116.912C57.1077 117.244 57.2682 117.535 57.4785 117.784C57.6888 118.033 57.9434 118.229 58.2422 118.373C58.541 118.511 58.8813 118.581 59.2632 118.581C59.7446 118.581 60.1735 118.484 60.5498 118.29C60.9261 118.096 61.2526 117.822 61.5293 117.468L62.5835 118.489C62.3898 118.771 62.138 119.043 61.8281 119.303C61.5182 119.557 61.1392 119.765 60.6909 119.925C60.2482 120.086 59.7336 120.166 59.147 120.166ZM66.4434 111.019V120H64.4346V111.019H66.4434ZM64.3018 108.661C64.3018 108.357 64.4014 108.105 64.6006 107.906C64.8053 107.701 65.0876 107.599 65.4473 107.599C65.8014 107.599 66.0809 107.701 66.2856 107.906C66.4904 108.105 66.5928 108.357 66.5928 108.661C66.5928 108.96 66.4904 109.209 66.2856 109.408C66.0809 109.607 65.8014 109.707 65.4473 109.707C65.0876 109.707 64.8053 109.607 64.6006 109.408C64.4014 109.209 64.3018 108.96 64.3018 108.661ZM74.1133 118.141V107.25H76.1221V120H74.3042L74.1133 118.141ZM68.2695 115.609V115.435C68.2695 114.754 68.3498 114.134 68.5103 113.575C68.6707 113.011 68.9032 112.527 69.2075 112.123C69.5119 111.713 69.8826 111.4 70.3198 111.185C70.757 110.963 71.2495 110.853 71.7974 110.853C72.3397 110.853 72.8156 110.958 73.2251 111.168C73.6346 111.378 73.9832 111.68 74.271 112.073C74.5588 112.46 74.7884 112.925 74.96 113.467C75.1315 114.004 75.2533 114.602 75.3252 115.26V115.816C75.2533 116.458 75.1315 117.045 74.96 117.576C74.7884 118.107 74.5588 118.567 74.271 118.954C73.9832 119.341 73.6318 119.64 73.2168 119.851C72.8073 120.061 72.3286 120.166 71.7808 120.166C71.2384 120.166 70.7487 120.053 70.3115 119.826C69.8799 119.599 69.5119 119.281 69.2075 118.871C68.9032 118.462 68.6707 117.98 68.5103 117.427C68.3498 116.868 68.2695 116.262 68.2695 115.609ZM70.27 115.435V115.609C70.27 116.018 70.306 116.4 70.3779 116.754C70.4554 117.109 70.5744 117.421 70.7349 117.692C70.8953 117.958 71.1029 118.168 71.3574 118.323C71.6175 118.473 71.9274 118.547 72.2871 118.547C72.7409 118.547 73.1144 118.448 73.4077 118.249C73.701 118.049 73.9307 117.781 74.0967 117.443C74.2682 117.1 74.3844 116.718 74.4453 116.298V114.795C74.4121 114.469 74.3429 114.165 74.2378 113.882C74.1382 113.6 74.0026 113.354 73.8311 113.144C73.6595 112.928 73.4465 112.762 73.1919 112.646C72.9429 112.524 72.6468 112.463 72.3037 112.463C71.9385 112.463 71.6286 112.54 71.374 112.695C71.1195 112.85 70.9092 113.063 70.7432 113.334C70.5827 113.606 70.4637 113.921 70.3862 114.281C70.3088 114.64 70.27 115.025 70.27 115.435ZM85.3691 118.415L87.5688 111.019H89.644L86.5229 120H85.228L85.3691 118.415ZM83.6841 111.019L85.9253 118.448L86.0332 120H84.7383L81.6006 111.019H83.6841ZM95.8115 118.199V113.916C95.8115 113.595 95.7534 113.318 95.6372 113.085C95.521 112.853 95.3439 112.673 95.106 112.546C94.8735 112.419 94.5802 112.355 94.2261 112.355C93.8996 112.355 93.6174 112.41 93.3794 112.521C93.1414 112.632 92.9561 112.781 92.8232 112.969C92.6904 113.157 92.624 113.37 92.624 113.608H90.6318C90.6318 113.254 90.7176 112.911 90.8892 112.579C91.0607 112.247 91.3097 111.951 91.6362 111.691C91.9627 111.431 92.3529 111.226 92.8066 111.077C93.2604 110.927 93.7695 110.853 94.334 110.853C95.0091 110.853 95.6068 110.966 96.127 111.193C96.6527 111.42 97.0649 111.763 97.3638 112.222C97.6681 112.676 97.8203 113.246 97.8203 113.932V117.925C97.8203 118.334 97.848 118.702 97.9033 119.029C97.9642 119.35 98.05 119.629 98.1606 119.867V120H96.1104C96.0163 119.784 95.9416 119.51 95.8862 119.178C95.8364 118.841 95.8115 118.514 95.8115 118.199ZM96.1021 114.538L96.1187 115.775H94.6826C94.3118 115.775 93.9854 115.811 93.7031 115.883C93.4209 115.949 93.1857 116.049 92.9976 116.182C92.8094 116.314 92.6683 116.475 92.5742 116.663C92.4801 116.851 92.4331 117.064 92.4331 117.302C92.4331 117.54 92.4884 117.759 92.5991 117.958C92.7098 118.152 92.8703 118.304 93.0806 118.415C93.2964 118.525 93.5565 118.581 93.8608 118.581C94.2703 118.581 94.6273 118.498 94.9316 118.332C95.2415 118.16 95.485 117.952 95.6621 117.709C95.8392 117.46 95.9333 117.225 95.9443 117.003L96.5918 117.892C96.5254 118.118 96.4119 118.362 96.2515 118.622C96.091 118.882 95.8807 119.131 95.6206 119.369C95.366 119.602 95.0589 119.792 94.6992 119.942C94.3451 120.091 93.9355 120.166 93.4707 120.166C92.8841 120.166 92.3612 120.05 91.9019 119.817C91.4425 119.579 91.0828 119.261 90.8228 118.863C90.5627 118.459 90.4326 118.002 90.4326 117.493C90.4326 117.017 90.5212 116.597 90.6982 116.231C90.8809 115.861 91.1465 115.551 91.4951 115.302C91.8493 115.053 92.2809 114.865 92.79 114.737C93.2992 114.604 93.8802 114.538 94.5332 114.538H96.1021ZM102.054 107.25V120H100.045V107.25H102.054ZM106.387 111.019V120H104.378V111.019H106.387ZM104.245 108.661C104.245 108.357 104.345 108.105 104.544 107.906C104.749 107.701 105.031 107.599 105.391 107.599C105.745 107.599 106.024 107.701 106.229 107.906C106.434 108.105 106.536 108.357 106.536 108.661C106.536 108.96 106.434 109.209 106.229 109.408C106.024 109.607 105.745 109.707 105.391 109.707C105.031 109.707 104.749 109.607 104.544 109.408C104.345 109.209 104.245 108.96 104.245 108.661ZM110.595 107.25V120H108.586V107.25H110.595ZM116.173 111.019L112.264 115.352L110.122 117.543L109.599 115.85L111.218 113.849L113.758 111.019H116.173ZM114.189 120L111.276 115.783L112.538 114.38L116.505 120H114.189ZM122.847 117.883V111.019H124.856V120H122.963L122.847 117.883ZM123.129 116.016L123.802 115.999C123.802 116.602 123.735 117.158 123.603 117.667C123.47 118.171 123.265 118.611 122.988 118.987C122.712 119.358 122.357 119.649 121.926 119.859C121.494 120.064 120.977 120.166 120.374 120.166C119.936 120.166 119.535 120.102 119.17 119.975C118.805 119.848 118.489 119.651 118.224 119.386C117.964 119.12 117.762 118.774 117.618 118.348C117.474 117.922 117.402 117.413 117.402 116.821V111.019H119.402V116.837C119.402 117.164 119.441 117.438 119.519 117.659C119.596 117.875 119.701 118.049 119.834 118.182C119.967 118.315 120.122 118.409 120.299 118.464C120.476 118.52 120.664 118.547 120.863 118.547C121.433 118.547 121.882 118.437 122.208 118.215C122.54 117.988 122.775 117.684 122.914 117.302C123.057 116.92 123.129 116.492 123.129 116.016ZM129.048 111.019V120H127.039V111.019H129.048ZM126.906 108.661C126.906 108.357 127.006 108.105 127.205 107.906C127.41 107.701 127.692 107.599 128.052 107.599C128.406 107.599 128.685 107.701 128.89 107.906C129.095 108.105 129.197 108.357 129.197 108.661C129.197 108.96 129.095 109.209 128.89 109.408C128.685 109.607 128.406 109.707 128.052 109.707C127.692 109.707 127.41 109.607 127.205 109.408C127.006 109.209 126.906 108.96 126.906 108.661ZM136.718 118.141V107.25H138.727V120H136.909L136.718 118.141ZM130.874 115.609V115.435C130.874 114.754 130.954 114.134 131.115 113.575C131.275 113.011 131.508 112.527 131.812 112.123C132.116 111.713 132.487 111.4 132.924 111.185C133.361 110.963 133.854 110.853 134.402 110.853C134.944 110.853 135.42 110.958 135.83 111.168C136.239 111.378 136.588 111.68 136.875 112.073C137.163 112.46 137.393 112.925 137.564 113.467C137.736 114.004 137.858 114.602 137.93 115.26V115.816C137.858 116.458 137.736 117.045 137.564 117.576C137.393 118.107 137.163 118.567 136.875 118.954C136.588 119.341 136.236 119.64 135.821 119.851C135.412 120.061 134.933 120.166 134.385 120.166C133.843 120.166 133.353 120.053 132.916 119.826C132.484 119.599 132.116 119.281 131.812 118.871C131.508 118.462 131.275 117.98 131.115 117.427C130.954 116.868 130.874 116.262 130.874 115.609ZM132.875 115.435V115.609C132.875 116.018 132.91 116.4 132.982 116.754C133.06 117.109 133.179 117.421 133.339 117.692C133.5 117.958 133.707 118.168 133.962 118.323C134.222 118.473 134.532 118.547 134.892 118.547C135.345 118.547 135.719 118.448 136.012 118.249C136.306 118.049 136.535 117.781 136.701 117.443C136.873 117.1 136.989 116.718 137.05 116.298V114.795C137.017 114.469 136.947 114.165 136.842 113.882C136.743 113.6 136.607 113.354 136.436 113.144C136.264 112.928 136.051 112.762 135.796 112.646C135.547 112.524 135.251 112.463 134.908 112.463C134.543 112.463 134.233 112.54 133.979 112.695C133.724 112.85 133.514 113.063 133.348 113.334C133.187 113.606 133.068 113.921 132.991 114.281C132.913 114.64 132.875 115.025 132.875 115.435ZM140.901 119.004C140.901 118.694 141.007 118.434 141.217 118.224C141.427 118.008 141.712 117.9 142.072 117.9C142.437 117.9 142.722 118.008 142.927 118.224C143.137 118.434 143.242 118.694 143.242 119.004C143.242 119.314 143.137 119.574 142.927 119.784C142.722 119.994 142.437 120.1 142.072 120.1C141.712 120.1 141.427 119.994 141.217 119.784C141.007 119.574 140.901 119.314 140.901 119.004Z" fill="#461102"/>
<path d="M27.912 141.646C29.872 141.646 31.566 142.01 32.994 142.738C34.422 143.438 35.5 144.404 36.228 145.636C36.984 146.84 37.362 148.184 37.362 149.668C37.362 151.208 37.026 152.692 36.354 154.12C35.71 155.548 34.59 157.158 32.994 158.95C31.426 160.742 29.13 163.052 26.106 165.88H37.992L37.32 170.5H19.302V166.174C22.83 162.646 25.378 160.014 26.946 158.278C28.514 156.542 29.62 155.072 30.264 153.868C30.908 152.664 31.23 151.432 31.23 150.172C31.23 148.968 30.88 148.016 30.18 147.316C29.48 146.616 28.542 146.266 27.366 146.266C26.33 146.266 25.406 146.504 24.594 146.98C23.782 147.428 22.928 148.184 22.032 149.248L18.462 146.392C20.87 143.228 24.02 141.646 27.912 141.646ZM59.9941 161.134C60.3861 163.066 61.1001 164.48 62.1361 165.376C63.2001 166.272 64.6141 166.72 66.3781 166.72C68.2541 166.72 70.2701 166.132 72.4261 164.956V169.576C71.2781 170.108 70.1861 170.5 69.1501 170.752C68.1141 171.032 66.9801 171.172 65.7481 171.172C62.5841 171.172 59.9801 170.304 57.9361 168.568C55.9201 166.804 54.5901 164.326 53.9461 161.134H50.2921L51.1321 157.9H53.7781V154.75H50.2921L51.1321 151.474H53.9881C54.7721 148.422 56.2281 146.028 58.3561 144.292C60.5121 142.528 63.0461 141.646 65.9581 141.646C68.8701 141.646 71.5021 142.444 73.8541 144.04L71.7121 147.736C70.8161 147.148 69.9341 146.728 69.0661 146.476C68.1981 146.196 67.2321 146.056 66.1681 146.056C64.7121 146.056 63.4661 146.504 62.4301 147.4C61.3941 148.296 60.6241 149.654 60.1201 151.474H70.4101L69.5701 154.75H59.8261V157.9H68.8981L68.1001 161.134H59.9941Z" fill="#E3000F"/>
<path d="M91.5234 159.875V161.5H83.8203V160.109L87.5156 156.117C87.901 155.68 88.2057 155.299 88.4297 154.977C88.6536 154.654 88.8125 154.362 88.9062 154.102C89.0052 153.836 89.0547 153.583 89.0547 153.344C89.0547 152.995 88.9922 152.69 88.8672 152.43C88.7422 152.164 88.5599 151.958 88.3203 151.812C88.0859 151.667 87.7969 151.594 87.4531 151.594C87.0729 151.594 86.7474 151.682 86.4766 151.859C86.2109 152.031 86.0078 152.271 85.8672 152.578C85.7318 152.885 85.6641 153.237 85.6641 153.633H83.5938C83.5938 152.961 83.75 152.349 84.0625 151.797C84.375 151.24 84.8229 150.794 85.4062 150.461C85.9896 150.128 86.6823 149.961 87.4844 149.961C88.2656 149.961 88.9271 150.091 89.4688 150.352C90.0104 150.607 90.4219 150.971 90.7031 151.445C90.9844 151.919 91.125 152.484 91.125 153.141C91.125 153.505 91.0651 153.865 90.9453 154.219C90.8255 154.573 90.6562 154.924 90.4375 155.273C90.224 155.617 89.9688 155.966 89.6719 156.32C89.375 156.674 89.0443 157.036 88.6797 157.406L86.4609 159.875H91.5234ZM99.1172 149.492V161.5H97.0547V149.492H99.1172ZM104.414 153.047L100.734 157.18L98.7422 159.203L98.0859 157.602L99.625 155.664L101.922 153.047H104.414ZM102.305 161.5L99.6875 157.562L101.062 156.227L104.695 161.5H102.305ZM110.539 159.492V153.047H112.617V161.5H110.664L110.539 159.492ZM110.805 157.742L111.445 157.727C111.445 158.294 111.383 158.818 111.258 159.297C111.133 159.776 110.938 160.193 110.672 160.547C110.411 160.896 110.081 161.169 109.68 161.367C109.279 161.56 108.805 161.656 108.258 161.656C107.841 161.656 107.461 161.599 107.117 161.484C106.773 161.365 106.477 161.18 106.227 160.93C105.982 160.674 105.792 160.349 105.656 159.953C105.521 159.552 105.453 159.07 105.453 158.508V153.047H107.516V158.523C107.516 158.805 107.547 159.039 107.609 159.227C107.677 159.414 107.768 159.568 107.883 159.688C108.003 159.802 108.141 159.885 108.297 159.938C108.458 159.984 108.63 160.008 108.812 160.008C109.312 160.008 109.706 159.909 109.992 159.711C110.284 159.508 110.492 159.237 110.617 158.898C110.742 158.555 110.805 158.169 110.805 157.742ZM119.477 159.492V153.047H121.555V161.5H119.602L119.477 159.492ZM119.742 157.742L120.383 157.727C120.383 158.294 120.32 158.818 120.195 159.297C120.07 159.776 119.875 160.193 119.609 160.547C119.349 160.896 119.018 161.169 118.617 161.367C118.216 161.56 117.742 161.656 117.195 161.656C116.779 161.656 116.398 161.599 116.055 161.484C115.711 161.365 115.414 161.18 115.164 160.93C114.919 160.674 114.729 160.349 114.594 159.953C114.458 159.552 114.391 159.07 114.391 158.508V153.047H116.453V158.523C116.453 158.805 116.484 159.039 116.547 159.227C116.615 159.414 116.706 159.568 116.82 159.688C116.94 159.802 117.078 159.885 117.234 159.938C117.396 159.984 117.568 160.008 117.75 160.008C118.25 160.008 118.643 159.909 118.93 159.711C119.221 159.508 119.43 159.237 119.555 158.898C119.68 158.555 119.742 158.169 119.742 157.742ZM128.453 159.703V149.5H130.531V161.5H128.656L128.453 159.703ZM123.023 157.375V157.211C123.023 156.565 123.096 155.979 123.242 155.453C123.393 154.922 123.612 154.466 123.898 154.086C124.185 153.706 124.531 153.411 124.938 153.203C125.349 152.995 125.815 152.891 126.336 152.891C126.841 152.891 127.281 152.992 127.656 153.195C128.036 153.398 128.359 153.688 128.625 154.062C128.896 154.438 129.112 154.883 129.273 155.398C129.435 155.909 129.552 156.471 129.625 157.086V157.531C129.552 158.13 129.435 158.68 129.273 159.18C129.112 159.68 128.896 160.117 128.625 160.492C128.359 160.862 128.036 161.148 127.656 161.352C127.276 161.555 126.831 161.656 126.32 161.656C125.805 161.656 125.341 161.549 124.93 161.336C124.523 161.122 124.177 160.823 123.891 160.438C123.609 160.052 123.393 159.599 123.242 159.078C123.096 158.557 123.023 157.99 123.023 157.375ZM125.094 157.211V157.375C125.094 157.74 125.125 158.081 125.188 158.398C125.25 158.716 125.352 158.997 125.492 159.242C125.633 159.482 125.812 159.669 126.031 159.805C126.255 159.94 126.526 160.008 126.844 160.008C127.25 160.008 127.583 159.919 127.844 159.742C128.109 159.56 128.315 159.312 128.461 159C128.607 158.682 128.701 158.326 128.742 157.93V156.703C128.721 156.391 128.667 156.102 128.578 155.836C128.495 155.57 128.375 155.341 128.219 155.148C128.068 154.956 127.88 154.805 127.656 154.695C127.432 154.586 127.167 154.531 126.859 154.531C126.542 154.531 126.271 154.602 126.047 154.742C125.823 154.878 125.641 155.068 125.5 155.312C125.359 155.557 125.255 155.841 125.188 156.164C125.125 156.487 125.094 156.836 125.094 157.211Z" fill="#461102"/>
<rect x="154" y="140" width="158" height="32" rx="8" fill="#E3000F"/>
<path d="M178.624 150.412L178.368 152.428H175.632V161.5H173.008V152.428H170.144V150.412H178.624ZM186.481 150.412L186.209 152.284H182.305V154.94H185.713V156.78H182.305V159.612H186.481V161.5H179.681V150.412H186.481ZM190.727 150.412V159.42H195.047L194.775 161.5H188.103V150.412H190.727ZM198.93 150.412V159.42H203.25L202.978 161.5H196.306V150.412H198.93ZM207.133 150.412V161.5H204.509V150.412H207.133ZM216.081 150.412C217.82 150.412 219.212 150.807 220.257 151.596C221.313 152.375 221.841 153.809 221.841 155.9C221.841 157.959 221.329 159.409 220.305 160.252C219.281 161.084 217.953 161.5 216.321 161.5H212.993V150.412H216.081ZM215.617 152.316V159.596H216.481C217.345 159.596 218.001 159.329 218.449 158.796C218.897 158.252 219.121 157.287 219.121 155.9C219.121 154.951 219.009 154.215 218.785 153.692C218.561 153.169 218.257 152.812 217.873 152.62C217.489 152.417 217.014 152.316 216.449 152.316H215.617ZM226.039 150.412V161.5H223.415V150.412H226.039ZM232.903 150.14C234.332 150.14 235.564 150.593 236.599 151.5L235.271 152.892C234.876 152.593 234.508 152.38 234.167 152.252C233.836 152.113 233.452 152.044 233.015 152.044C232.193 152.044 231.537 152.369 231.047 153.02C230.556 153.66 230.311 154.636 230.311 155.948C230.311 157.367 230.497 158.375 230.871 158.972C231.244 159.559 231.825 159.852 232.615 159.852C233.169 159.852 233.671 159.729 234.119 159.484V156.972H232.679L232.423 155.116H236.663V160.604C236.087 160.977 235.452 161.265 234.759 161.468C234.065 161.671 233.372 161.772 232.679 161.772C230.993 161.772 229.724 161.281 228.871 160.3C228.017 159.308 227.59 157.857 227.59 155.948C227.59 154.732 227.82 153.687 228.279 152.812C228.748 151.937 229.383 151.276 230.183 150.828C230.993 150.369 231.9 150.14 232.903 150.14ZM241.039 150.412V161.5H238.415V150.412H241.039ZM246.687 150.412C248.148 150.412 249.284 150.716 250.095 151.324C250.905 151.932 251.311 152.833 251.311 154.028C251.311 155.276 250.911 156.22 250.111 156.86C249.321 157.489 248.26 157.804 246.927 157.804H245.727V161.5H243.103V150.412H246.687ZM246.703 155.916C247.321 155.916 247.791 155.772 248.111 155.484C248.441 155.185 248.607 154.7 248.607 154.028C248.607 152.865 247.956 152.284 246.655 152.284H245.727V155.916H246.703ZM257.583 161.5L257.007 159.116H253.775L253.215 161.5H250.495L253.839 150.412H257.023L260.367 161.5H257.583ZM254.223 157.212H256.559L255.391 152.316L254.223 157.212ZM263.805 150.412V161.5H261.181V150.412H263.805ZM270.173 150.412L266.637 155.388L270.461 161.5H267.421L263.885 155.58L267.405 150.412H270.173ZM278.106 150.412L277.834 152.284H273.93V154.94H277.338V156.78H273.93V159.612H278.106V161.5H271.306V150.412H278.106ZM287.312 150.412L287.056 152.428H284.32V161.5H281.696V152.428H278.832V150.412H287.312ZM295.952 150.412L295.696 152.428H292.96V161.5H290.336V152.428H287.472V150.412H295.952Z" fill="#FFE80D"/>
</svg>
