<svg width="330" height="200" viewBox="0 0 330 200" fill="none" xmlns="http://www.w3.org/2000/svg">
<path d="M32.16 39.528C32.16 40.664 31.92 41.672 31.44 42.552C30.96 43.432 30.24 44.128 29.28 44.64C28.336 45.136 27.184 45.384 25.824 45.384C23.776 45.384 22.208 44.856 21.12 43.8C20.048 42.728 19.512 41.304 19.512 39.528V28.392H23.04V39.36C23.04 40.48 23.264 41.32 23.712 41.88C24.16 42.424 24.864 42.696 25.824 42.696C26.784 42.696 27.488 42.424 27.936 41.88C28.4 41.32 28.632 40.48 28.632 39.36V28.392H32.16V39.528ZM45.7991 45H42.8471L42.6791 43.296C42.2311 44 41.6871 44.528 41.0471 44.88C40.4071 45.216 39.6631 45.384 38.8151 45.384C37.6631 45.384 36.7831 45.04 36.1751 44.352C35.5671 43.648 35.2631 42.672 35.2631 41.424V32.28H38.6711V40.992C38.6711 41.664 38.7831 42.144 39.0071 42.432C39.2311 42.704 39.5831 42.84 40.0631 42.84C40.9751 42.84 41.7511 42.288 42.3911 41.184V32.28H45.7991V45ZM59.9164 38.352C59.9164 38.512 59.8924 38.952 59.8444 39.672H51.9004C52.0124 40.824 52.3244 41.64 52.8364 42.12C53.3484 42.6 54.0444 42.84 54.9244 42.84C55.4684 42.84 55.9804 42.752 56.4604 42.576C56.9404 42.4 57.4604 42.12 58.0204 41.736L59.4364 43.656C58.0124 44.808 56.4044 45.384 54.6124 45.384C52.6124 45.384 51.0764 44.784 50.0044 43.584C48.9324 42.384 48.3964 40.76 48.3964 38.712C48.3964 37.416 48.6204 36.256 49.0684 35.232C49.5324 34.192 50.1964 33.376 51.0604 32.784C51.9404 32.192 52.9804 31.896 54.1804 31.896C55.9884 31.896 57.3964 32.464 58.4044 33.6C59.4124 34.736 59.9164 36.32 59.9164 38.352ZM56.5324 37.392C56.5324 35.28 55.7724 34.224 54.2524 34.224C53.5484 34.224 52.9964 34.488 52.5964 35.016C52.2124 35.528 51.9804 36.368 51.9004 37.536H56.5324V37.392ZM65.5511 45.384C64.5111 45.384 63.7031 45.088 63.1271 44.496C62.5511 43.888 62.2631 43.032 62.2631 41.928V27.216L65.6711 26.832V41.832C65.6711 42.392 65.9031 42.672 66.3671 42.672C66.6231 42.672 66.8471 42.624 67.0391 42.528L67.7351 44.952C67.0791 45.24 66.3511 45.384 65.5511 45.384ZM85.0641 41.472C85.0641 41.968 85.1361 42.336 85.2801 42.576C85.4241 42.8 85.6641 42.968 86.0001 43.08L85.2801 45.336C84.5281 45.272 83.9121 45.096 83.4321 44.808C82.9681 44.52 82.6081 44.072 82.3521 43.464C81.5201 44.744 80.2481 45.384 78.5361 45.384C77.2721 45.384 76.2641 45.024 75.5121 44.304C74.7761 43.568 74.4081 42.616 74.4081 41.448C74.4081 40.056 74.9121 38.992 75.9201 38.256C76.9281 37.52 78.3761 37.152 80.2641 37.152H81.7281V36.528C81.7281 35.744 81.5521 35.2 81.2001 34.896C80.8481 34.592 80.2641 34.44 79.4481 34.44C78.5521 34.44 77.4321 34.664 76.0881 35.112L75.3201 32.832C76.9041 32.208 78.4721 31.896 80.0241 31.896C81.7521 31.896 83.0241 32.272 83.8401 33.024C84.6561 33.76 85.0641 34.864 85.0641 36.336V41.472ZM79.4721 42.936C80.4321 42.936 81.1841 42.464 81.7281 41.52V39.096H80.6001C78.7601 39.096 77.8401 39.784 77.8401 41.16C77.8401 41.72 77.9761 42.16 78.2481 42.48C78.5361 42.784 78.9441 42.936 79.4721 42.936ZM98.0719 41.472C98.0719 41.968 98.1439 42.336 98.2879 42.576C98.4319 42.8 98.6719 42.968 99.0079 43.08L98.2879 45.336C97.5359 45.272 96.9199 45.096 96.4399 44.808C95.9759 44.52 95.6159 44.072 95.3599 43.464C94.5279 44.744 93.2559 45.384 91.5439 45.384C90.2799 45.384 89.2719 45.024 88.5199 44.304C87.7839 43.568 87.4159 42.616 87.4159 41.448C87.4159 40.056 87.9199 38.992 88.9279 38.256C89.9359 37.52 91.3839 37.152 93.2719 37.152H94.7359V36.528C94.7359 35.744 94.5599 35.2 94.2079 34.896C93.8559 34.592 93.2719 34.44 92.4559 34.44C91.5599 34.44 90.4399 34.664 89.0959 35.112L88.3279 32.832C89.9119 32.208 91.4799 31.896 93.0319 31.896C94.7599 31.896 96.0319 32.272 96.8479 33.024C97.6639 33.76 98.0719 34.864 98.0719 36.336V41.472ZM92.4799 42.936C93.4399 42.936 94.1919 42.464 94.7359 41.52V39.096H93.6079C91.7679 39.096 90.8479 39.784 90.8479 41.16C90.8479 41.72 90.9839 42.16 91.2559 42.48C91.5439 42.784 91.9519 42.936 92.4799 42.936ZM105.467 31.896C107.259 31.896 108.795 32.408 110.075 33.432L108.779 35.376C107.707 34.704 106.651 34.368 105.611 34.368C105.051 34.368 104.619 34.472 104.315 34.68C104.011 34.888 103.859 35.168 103.859 35.52C103.859 35.776 103.923 35.992 104.051 36.168C104.195 36.344 104.451 36.512 104.819 36.672C105.203 36.832 105.771 37.024 106.523 37.248C107.867 37.616 108.867 38.112 109.523 38.736C110.179 39.344 110.507 40.184 110.507 41.256C110.507 42.104 110.259 42.84 109.763 43.464C109.283 44.088 108.627 44.568 107.795 44.904C106.963 45.224 106.035 45.384 105.011 45.384C103.939 45.384 102.963 45.224 102.083 44.904C101.203 44.568 100.451 44.112 99.8265 43.536L101.507 41.664C102.579 42.496 103.715 42.912 104.915 42.912C105.555 42.912 106.059 42.792 106.427 42.552C106.811 42.296 107.003 41.952 107.003 41.52C107.003 41.184 106.931 40.92 106.787 40.728C106.643 40.536 106.379 40.36 105.995 40.2C105.611 40.024 105.011 39.824 104.195 39.6C102.915 39.248 101.963 38.752 101.339 38.112C100.731 37.456 100.427 36.648 100.427 35.688C100.427 34.968 100.635 34.32 101.051 33.744C101.467 33.168 102.051 32.72 102.803 32.4C103.571 32.064 104.459 31.896 105.467 31.896ZM120.335 44.4C119.871 44.72 119.343 44.96 118.751 45.12C118.175 45.296 117.599 45.384 117.023 45.384C115.711 45.368 114.719 44.992 114.047 44.256C113.375 43.52 113.039 42.44 113.039 41.016V34.68H111.143V32.28H113.039V29.496L116.447 29.088V32.28H119.375L119.039 34.68H116.447V40.944C116.447 41.552 116.551 41.992 116.759 42.264C116.967 42.536 117.287 42.672 117.719 42.672C118.151 42.672 118.631 42.528 119.159 42.24L120.335 44.4ZM131.306 41.472C131.306 41.968 131.378 42.336 131.522 42.576C131.666 42.8 131.906 42.968 132.242 43.08L131.522 45.336C130.77 45.272 130.154 45.096 129.674 44.808C129.21 44.52 128.85 44.072 128.594 43.464C127.762 44.744 126.49 45.384 124.778 45.384C123.514 45.384 122.506 45.024 121.754 44.304C121.018 43.568 120.65 42.616 120.65 41.448C120.65 40.056 121.154 38.992 122.162 38.256C123.17 37.52 124.618 37.152 126.506 37.152H127.97V36.528C127.97 35.744 127.794 35.2 127.442 34.896C127.09 34.592 126.506 34.44 125.69 34.44C124.794 34.44 123.674 34.664 122.33 35.112L121.562 32.832C123.146 32.208 124.714 31.896 126.266 31.896C127.994 31.896 129.266 32.272 130.082 33.024C130.898 33.76 131.306 34.864 131.306 36.336V41.472ZM125.714 42.936C126.674 42.936 127.426 42.464 127.97 41.52V39.096H126.842C125.002 39.096 124.082 39.784 124.082 41.16C124.082 41.72 124.218 42.16 124.49 42.48C124.778 42.784 125.186 42.936 125.714 42.936ZM137.645 45.384C136.605 45.384 135.797 45.088 135.221 44.496C134.645 43.888 134.357 43.032 134.357 41.928V27.216L137.765 26.832V41.832C137.765 42.392 137.997 42.672 138.461 42.672C138.717 42.672 138.941 42.624 139.133 42.528L139.829 44.952C139.173 45.24 138.445 45.384 137.645 45.384ZM154.542 31.896C155.646 31.896 156.51 32.24 157.134 32.928C157.774 33.6 158.094 34.536 158.094 35.736V45H154.686V36.312C154.686 35.624 154.566 35.144 154.326 34.872C154.086 34.584 153.742 34.44 153.294 34.44C152.398 34.44 151.582 35.024 150.846 36.192V45H147.438V27.216L150.846 26.856V33.72C151.358 33.112 151.91 32.656 152.502 32.352C153.11 32.048 153.79 31.896 154.542 31.896ZM171.056 41.472C171.056 41.968 171.128 42.336 171.272 42.576C171.416 42.8 171.656 42.968 171.992 43.08L171.272 45.336C170.52 45.272 169.904 45.096 169.424 44.808C168.96 44.52 168.6 44.072 168.344 43.464C167.512 44.744 166.24 45.384 164.528 45.384C163.264 45.384 162.256 45.024 161.504 44.304C160.768 43.568 160.4 42.616 160.4 41.448C160.4 40.056 160.904 38.992 161.912 38.256C162.92 37.52 164.368 37.152 166.256 37.152H167.72V36.528C167.72 35.744 167.544 35.2 167.192 34.896C166.84 34.592 166.256 34.44 165.44 34.44C164.544 34.44 163.424 34.664 162.08 35.112L161.312 32.832C162.896 32.208 164.464 31.896 166.016 31.896C167.744 31.896 169.016 32.272 169.832 33.024C170.648 33.76 171.056 34.864 171.056 36.336V41.472ZM165.464 42.936C166.424 42.936 167.176 42.464 167.72 41.52V39.096H166.592C164.752 39.096 163.832 39.784 163.832 41.16C163.832 41.72 163.968 42.16 164.24 42.48C164.528 42.784 164.936 42.936 165.464 42.936ZM177.869 26.832V45H174.461V27.216L177.869 26.832ZM185.597 32.28L181.541 37.872L185.957 45H182.093L177.989 38.04L182.069 32.28H185.597ZM190.877 26.832V45H187.469V27.216L190.877 26.832ZM198.605 32.28L194.549 37.872L198.965 45H195.101L190.997 38.04L195.077 32.28H198.605ZM209.845 41.472C209.845 41.968 209.917 42.336 210.061 42.576C210.205 42.8 210.445 42.968 210.781 43.08L210.061 45.336C209.309 45.272 208.693 45.096 208.213 44.808C207.749 44.52 207.389 44.072 207.133 43.464C206.301 44.744 205.029 45.384 203.317 45.384C202.053 45.384 201.045 45.024 200.293 44.304C199.557 43.568 199.189 42.616 199.189 41.448C199.189 40.056 199.693 38.992 200.701 38.256C201.709 37.52 203.157 37.152 205.045 37.152H206.509V36.528C206.509 35.744 206.333 35.2 205.981 34.896C205.629 34.592 205.045 34.44 204.229 34.44C203.333 34.44 202.213 34.664 200.869 35.112L200.101 32.832C201.685 32.208 203.253 31.896 204.805 31.896C206.533 31.896 207.805 32.272 208.621 33.024C209.437 33.76 209.845 34.864 209.845 36.336V41.472ZM204.253 42.936C205.213 42.936 205.965 42.464 206.509 41.52V39.096H205.381C203.541 39.096 202.621 39.784 202.621 41.16C202.621 41.72 202.757 42.16 203.029 42.48C203.317 42.784 203.725 42.936 204.253 42.936ZM220.354 31.896C221.474 31.896 222.346 32.24 222.97 32.928C223.594 33.6 223.906 34.536 223.906 35.736V45H220.498V36.312C220.498 35.624 220.378 35.144 220.138 34.872C219.914 34.584 219.57 34.44 219.106 34.44C218.626 34.44 218.186 34.592 217.786 34.896C217.402 35.184 217.026 35.624 216.658 36.216V45H213.25V32.28H216.202L216.466 33.888C216.994 33.232 217.57 32.736 218.194 32.4C218.834 32.064 219.554 31.896 220.354 31.896ZM26.256 57.92C26.64 57.92 27.064 57.984 27.528 58.112L26.952 61.4C26.504 61.288 26.128 61.232 25.824 61.232C25.072 61.232 24.488 61.496 24.072 62.024C23.656 62.552 23.328 63.352 23.088 64.424V71H19.68V58.28H22.632L22.944 60.752C23.248 59.856 23.688 59.16 24.264 58.664C24.856 58.168 25.52 57.92 26.256 57.92ZM39.2445 64.352C39.2445 64.512 39.2205 64.952 39.1725 65.672H31.2285C31.3405 66.824 31.6525 67.64 32.1645 68.12C32.6765 68.6 33.3725 68.84 34.2525 68.84C34.7965 68.84 35.3085 68.752 35.7885 68.576C36.2685 68.4 36.7885 68.12 37.3485 67.736L38.7645 69.656C37.3405 70.808 35.7325 71.384 33.9405 71.384C31.9405 71.384 30.4045 70.784 29.3325 69.584C28.2605 68.384 27.7245 66.76 27.7245 64.712C27.7245 63.416 27.9485 62.256 28.3965 61.232C28.8605 60.192 29.5245 59.376 30.3885 58.784C31.2685 58.192 32.3085 57.896 33.5085 57.896C35.3165 57.896 36.7245 58.464 37.7325 59.6C38.7405 60.736 39.2445 62.32 39.2445 64.352ZM35.8605 63.392C35.8605 61.28 35.1005 60.224 33.5805 60.224C32.8765 60.224 32.3245 60.488 31.9245 61.016C31.5405 61.528 31.3085 62.368 31.2285 63.536H35.8605V63.392ZM53.0873 58.976C52.2553 59.296 51.0313 59.456 49.4153 59.456C50.2153 59.808 50.8073 60.248 51.1913 60.776C51.5753 61.288 51.7673 61.936 51.7673 62.72C51.7673 63.536 51.5513 64.272 51.1193 64.928C50.7033 65.568 50.0953 66.072 49.2953 66.44C48.5113 66.808 47.5913 66.992 46.5353 66.992C45.9753 66.992 45.4793 66.936 45.0473 66.824C44.7273 67.032 44.5673 67.312 44.5673 67.664C44.5673 67.92 44.6633 68.128 44.8553 68.288C45.0633 68.432 45.4553 68.504 46.0312 68.504H47.9753C48.9193 68.504 49.7433 68.664 50.4473 68.984C51.1673 69.288 51.7193 69.72 52.1033 70.28C52.5033 70.824 52.7032 71.448 52.7032 72.152C52.7032 73.448 52.1433 74.456 51.0233 75.176C49.9193 75.912 48.3193 76.28 46.2233 76.28C44.7193 76.28 43.5273 76.12 42.6473 75.8C41.7833 75.496 41.1753 75.048 40.8232 74.456C40.4713 73.864 40.2953 73.12 40.2953 72.224H43.3433C43.3433 72.64 43.4233 72.968 43.5833 73.208C43.7433 73.464 44.0313 73.648 44.4473 73.76C44.8793 73.888 45.4953 73.952 46.2953 73.952C47.3993 73.952 48.1673 73.816 48.5993 73.544C49.0473 73.272 49.2713 72.888 49.2713 72.392C49.2713 71.944 49.1033 71.6 48.7673 71.36C48.4313 71.12 47.9353 71 47.2793 71H45.4073C44.1433 71 43.1993 70.768 42.5753 70.304C41.9513 69.824 41.6393 69.224 41.6393 68.504C41.6393 68.056 41.7673 67.624 42.0233 67.208C42.2953 66.776 42.6633 66.416 43.1273 66.128C42.3433 65.696 41.7673 65.192 41.3993 64.616C41.0473 64.024 40.8713 63.32 40.8713 62.504C40.8713 61.576 41.0953 60.768 41.5433 60.08C42.0073 59.376 42.6473 58.84 43.4633 58.472C44.2953 58.088 45.2393 57.896 46.2953 57.896C47.6073 57.928 48.6873 57.816 49.5353 57.56C50.3833 57.304 51.2873 56.904 52.2473 56.36L53.0873 58.976ZM46.3672 60.176C45.7273 60.176 45.2153 60.384 44.8313 60.8C44.4633 61.2 44.2793 61.752 44.2793 62.456C44.2793 63.176 44.4633 63.744 44.8313 64.16C45.2153 64.576 45.7353 64.784 46.3913 64.784C47.0793 64.784 47.5993 64.584 47.9513 64.184C48.3033 63.784 48.4793 63.192 48.4793 62.408C48.4793 60.92 47.7753 60.176 46.3672 60.176ZM64.9476 71H61.9956L61.8276 69.296C61.3796 70 60.8356 70.528 60.1956 70.88C59.5556 71.216 58.8116 71.384 57.9636 71.384C56.8116 71.384 55.9316 71.04 55.3236 70.352C54.7156 69.648 54.4116 68.672 54.4116 67.424V58.28H57.8196V66.992C57.8196 67.664 57.9316 68.144 58.1556 68.432C58.3796 68.704 58.7316 68.84 59.2116 68.84C60.1236 68.84 60.8996 68.288 61.5396 67.184V58.28H64.9476V71ZM71.4808 71.384C70.4408 71.384 69.6328 71.088 69.0568 70.496C68.4808 69.888 68.1928 69.032 68.1928 67.928V53.216L71.6008 52.832V67.832C71.6008 68.392 71.8328 68.672 72.2968 68.672C72.5528 68.672 72.7768 68.624 72.9688 68.528L73.6648 70.952C73.0088 71.24 72.2808 71.384 71.4808 71.384ZM85.0172 67.472C85.0172 67.968 85.0892 68.336 85.2332 68.576C85.3772 68.8 85.6172 68.968 85.9532 69.08L85.2332 71.336C84.4812 71.272 83.8652 71.096 83.3852 70.808C82.9212 70.52 82.5612 70.072 82.3052 69.464C81.4732 70.744 80.2012 71.384 78.4892 71.384C77.2252 71.384 76.2172 71.024 75.4652 70.304C74.7292 69.568 74.3612 68.616 74.3612 67.448C74.3612 66.056 74.8652 64.992 75.8732 64.256C76.8812 63.52 78.3292 63.152 80.2172 63.152H81.6812V62.528C81.6812 61.744 81.5052 61.2 81.1532 60.896C80.8012 60.592 80.2172 60.44 79.4012 60.44C78.5052 60.44 77.3852 60.664 76.0412 61.112L75.2732 58.832C76.8572 58.208 78.4252 57.896 79.9772 57.896C81.7052 57.896 82.9772 58.272 83.7932 59.024C84.6092 59.76 85.0172 60.864 85.0172 62.336V67.472ZM79.4252 68.936C80.3852 68.936 81.1372 68.464 81.6812 67.52V65.096H80.5532C78.7132 65.096 77.7932 65.784 77.7932 67.16C77.7932 67.72 77.9292 68.16 78.2012 68.48C78.4892 68.784 78.8972 68.936 79.4252 68.936ZM98.025 67.472C98.025 67.968 98.097 68.336 98.241 68.576C98.385 68.8 98.625 68.968 98.961 69.08L98.241 71.336C97.489 71.272 96.873 71.096 96.393 70.808C95.929 70.52 95.569 70.072 95.313 69.464C94.481 70.744 93.209 71.384 91.497 71.384C90.233 71.384 89.225 71.024 88.473 70.304C87.737 69.568 87.369 68.616 87.369 67.448C87.369 66.056 87.873 64.992 88.881 64.256C89.889 63.52 91.337 63.152 93.225 63.152H94.689V62.528C94.689 61.744 94.513 61.2 94.161 60.896C93.809 60.592 93.225 60.44 92.409 60.44C91.513 60.44 90.393 60.664 89.049 61.112L88.281 58.832C89.865 58.208 91.433 57.896 92.985 57.896C94.713 57.896 95.985 58.272 96.801 59.024C97.617 59.76 98.025 60.864 98.025 62.336V67.472ZM92.433 68.936C93.393 68.936 94.145 68.464 94.689 67.52V65.096H93.561C91.721 65.096 90.801 65.784 90.801 67.16C90.801 67.72 90.937 68.16 91.209 68.48C91.497 68.784 91.905 68.936 92.433 68.936ZM108.006 57.92C108.39 57.92 108.814 57.984 109.278 58.112L108.702 61.4C108.254 61.288 107.878 61.232 107.574 61.232C106.822 61.232 106.238 61.496 105.822 62.024C105.406 62.552 105.078 63.352 104.838 64.424V71H101.43V58.28H104.382L104.694 60.752C104.998 59.856 105.438 59.16 106.014 58.664C106.606 58.168 107.27 57.92 108.006 57.92ZM114.888 57.896C116.68 57.896 118.216 58.408 119.496 59.432L118.2 61.376C117.128 60.704 116.072 60.368 115.032 60.368C114.472 60.368 114.04 60.472 113.736 60.68C113.432 60.888 113.28 61.168 113.28 61.52C113.28 61.776 113.344 61.992 113.472 62.168C113.616 62.344 113.872 62.512 114.24 62.672C114.624 62.832 115.192 63.024 115.944 63.248C117.288 63.616 118.288 64.112 118.944 64.736C119.6 65.344 119.928 66.184 119.928 67.256C119.928 68.104 119.68 68.84 119.184 69.464C118.704 70.088 118.048 70.568 117.216 70.904C116.384 71.224 115.456 71.384 114.432 71.384C113.36 71.384 112.384 71.224 111.504 70.904C110.624 70.568 109.872 70.112 109.248 69.536L110.928 67.664C112 68.496 113.136 68.912 114.336 68.912C114.976 68.912 115.48 68.792 115.848 68.552C116.232 68.296 116.424 67.952 116.424 67.52C116.424 67.184 116.352 66.92 116.208 66.728C116.064 66.536 115.8 66.36 115.416 66.2C115.032 66.024 114.432 65.824 113.616 65.6C112.336 65.248 111.384 64.752 110.76 64.112C110.152 63.456 109.848 62.648 109.848 61.688C109.848 60.968 110.056 60.32 110.472 59.744C110.888 59.168 111.472 58.72 112.224 58.4C112.992 58.064 113.88 57.896 114.888 57.896ZM132.901 64.352C132.901 64.512 132.877 64.952 132.829 65.672H124.885C124.997 66.824 125.309 67.64 125.821 68.12C126.333 68.6 127.029 68.84 127.909 68.84C128.453 68.84 128.965 68.752 129.445 68.576C129.925 68.4 130.445 68.12 131.005 67.736L132.421 69.656C130.997 70.808 129.389 71.384 127.597 71.384C125.597 71.384 124.061 70.784 122.989 69.584C121.917 68.384 121.381 66.76 121.381 64.712C121.381 63.416 121.605 62.256 122.053 61.232C122.517 60.192 123.181 59.376 124.045 58.784C124.925 58.192 125.965 57.896 127.165 57.896C128.973 57.896 130.381 58.464 131.389 59.6C132.397 60.736 132.901 62.32 132.901 64.352ZM129.517 63.392C129.517 61.28 128.757 60.224 127.237 60.224C126.533 60.224 125.981 60.488 125.581 61.016C125.197 61.528 124.965 62.368 124.885 63.536H129.517V63.392ZM138.536 71.384C137.496 71.384 136.688 71.088 136.112 70.496C135.536 69.888 135.248 69.032 135.248 67.928V53.216L138.656 52.832V67.832C138.656 68.392 138.888 68.672 139.352 68.672C139.608 68.672 139.832 68.624 140.023 68.528L140.72 70.952C140.064 71.24 139.336 71.384 138.536 71.384ZM150.077 70.4C149.613 70.72 149.085 70.96 148.493 71.12C147.917 71.296 147.341 71.384 146.765 71.384C145.453 71.368 144.461 70.992 143.789 70.256C143.117 69.52 142.781 68.44 142.781 67.016V60.68H140.885V58.28H142.781V55.496L146.189 55.088V58.28H149.117L148.781 60.68H146.189V66.944C146.189 67.552 146.293 67.992 146.501 68.264C146.709 68.536 147.029 68.672 147.461 68.672C147.893 68.672 148.373 68.528 148.901 68.24L150.077 70.4ZM161.67 57.896C163.462 57.896 164.998 58.408 166.278 59.432L164.982 61.376C163.91 60.704 162.854 60.368 161.814 60.368C161.254 60.368 160.822 60.472 160.518 60.68C160.214 60.888 160.062 61.168 160.062 61.52C160.062 61.776 160.126 61.992 160.254 62.168C160.398 62.344 160.654 62.512 161.022 62.672C161.406 62.832 161.974 63.024 162.726 63.248C164.07 63.616 165.07 64.112 165.726 64.736C166.382 65.344 166.71 66.184 166.71 67.256C166.71 68.104 166.462 68.84 165.966 69.464C165.486 70.088 164.83 70.568 163.998 70.904C163.166 71.224 162.238 71.384 161.214 71.384C160.142 71.384 159.166 71.224 158.286 70.904C157.406 70.568 156.654 70.112 156.03 69.536L157.71 67.664C158.782 68.496 159.918 68.912 161.118 68.912C161.758 68.912 162.262 68.792 162.63 68.552C163.014 68.296 163.206 67.952 163.206 67.52C163.206 67.184 163.134 66.92 162.99 66.728C162.846 66.536 162.582 66.36 162.198 66.2C161.814 66.024 161.214 65.824 160.398 65.6C159.118 65.248 158.166 64.752 157.542 64.112C156.934 63.456 156.63 62.648 156.63 61.688C156.63 60.968 156.838 60.32 157.254 59.744C157.67 59.168 158.254 58.72 159.006 58.4C159.774 58.064 160.662 57.896 161.67 57.896ZM175.794 57.896C177.394 57.896 178.578 58.488 179.346 59.672C180.13 60.84 180.522 62.488 180.522 64.616C180.522 65.912 180.322 67.072 179.922 68.096C179.522 69.12 178.938 69.928 178.17 70.52C177.418 71.096 176.522 71.384 175.482 71.384C174.186 71.384 173.138 70.928 172.338 70.016V75.896L168.93 76.28V58.28H171.93L172.098 59.768C172.578 59.144 173.138 58.68 173.778 58.376C174.434 58.056 175.106 57.896 175.794 57.896ZM174.474 68.84C176.138 68.84 176.97 67.44 176.97 64.64C176.97 63.104 176.786 62.016 176.418 61.376C176.05 60.736 175.49 60.416 174.738 60.416C174.258 60.416 173.81 60.568 173.394 60.872C172.994 61.16 172.642 61.552 172.338 62.048V67.592C172.882 68.424 173.594 68.84 174.474 68.84ZM188.579 57.896C190.483 57.896 191.971 58.496 193.043 59.696C194.115 60.88 194.651 62.528 194.651 64.64C194.651 65.984 194.403 67.168 193.907 68.192C193.427 69.2 192.723 69.984 191.795 70.544C190.883 71.104 189.803 71.384 188.555 71.384C186.651 71.384 185.155 70.792 184.067 69.608C182.995 68.408 182.459 66.752 182.459 64.64C182.459 63.296 182.699 62.12 183.179 61.112C183.675 60.088 184.379 59.296 185.291 58.736C186.219 58.176 187.315 57.896 188.579 57.896ZM188.579 60.44C187.715 60.44 187.067 60.784 186.635 61.472C186.219 62.144 186.011 63.2 186.011 64.64C186.011 66.08 186.219 67.144 186.635 67.832C187.067 68.504 187.707 68.84 188.555 68.84C189.403 68.84 190.035 68.504 190.451 67.832C190.883 67.144 191.099 66.08 191.099 64.64C191.099 63.2 190.891 62.144 190.475 61.472C190.059 60.784 189.427 60.44 188.579 60.44ZM203.819 57.92C204.203 57.92 204.627 57.984 205.091 58.112L204.515 61.4C204.067 61.288 203.691 61.232 203.387 61.232C202.635 61.232 202.051 61.496 201.635 62.024C201.219 62.552 200.891 63.352 200.651 64.424V71H197.243V58.28H200.195L200.507 60.752C200.811 59.856 201.251 59.16 201.827 58.664C202.419 58.168 203.083 57.92 203.819 57.92ZM214.39 70.4C213.926 70.72 213.398 70.96 212.806 71.12C212.23 71.296 211.654 71.384 211.078 71.384C209.766 71.368 208.774 70.992 208.102 70.256C207.43 69.52 207.094 68.44 207.094 67.016V60.68H205.198V58.28H207.094V55.496L210.502 55.088V58.28H213.43L213.094 60.68H210.502V66.944C210.502 67.552 210.606 67.992 210.814 68.264C211.022 68.536 211.342 68.672 211.774 68.672C212.206 68.672 212.686 68.528 213.214 68.24L214.39 70.4ZM219.307 58.28V71H215.899V58.28H219.307ZM217.579 51.728C218.187 51.728 218.683 51.92 219.067 52.304C219.467 52.672 219.667 53.144 219.667 53.72C219.667 54.296 219.467 54.776 219.067 55.16C218.683 55.528 218.187 55.712 217.579 55.712C216.971 55.712 216.475 55.528 216.091 55.16C215.707 54.776 215.515 54.296 215.515 53.72C215.515 53.144 215.707 52.672 216.091 52.304C216.475 51.92 216.971 51.728 217.579 51.728ZM236.424 57.896C237.432 57.896 238.24 58.24 238.848 58.928C239.472 59.616 239.784 60.552 239.784 61.736V71H236.376V62.312C236.376 61.064 235.96 60.44 235.128 60.44C234.68 60.44 234.288 60.584 233.952 60.872C233.616 61.16 233.272 61.608 232.92 62.216V71H229.512V62.312C229.512 61.064 229.096 60.44 228.264 60.44C227.816 60.44 227.424 60.592 227.088 60.896C226.752 61.184 226.416 61.624 226.08 62.216V71H222.672V58.28H225.624L225.888 59.864C226.368 59.224 226.904 58.736 227.496 58.4C228.104 58.064 228.8 57.896 229.584 57.896C230.304 57.896 230.928 58.08 231.456 58.448C231.984 58.8 232.368 59.304 232.608 59.96C233.136 59.272 233.704 58.76 234.312 58.424C234.936 58.072 235.64 57.896 236.424 57.896ZM252.736 67.472C252.736 67.968 252.808 68.336 252.952 68.576C253.096 68.8 253.336 68.968 253.672 69.08L252.952 71.336C252.2 71.272 251.584 71.096 251.104 70.808C250.64 70.52 250.28 70.072 250.024 69.464C249.192 70.744 247.92 71.384 246.208 71.384C244.944 71.384 243.936 71.024 243.184 70.304C242.448 69.568 242.08 68.616 242.08 67.448C242.08 66.056 242.584 64.992 243.592 64.256C244.6 63.52 246.048 63.152 247.936 63.152H249.4V62.528C249.4 61.744 249.224 61.2 248.872 60.896C248.52 60.592 247.936 60.44 247.12 60.44C246.224 60.44 245.104 60.664 243.76 61.112L242.992 58.832C244.576 58.208 246.144 57.896 247.696 57.896C249.424 57.896 250.696 58.272 251.512 59.024C252.328 59.76 252.736 60.864 252.736 62.336V67.472ZM247.144 68.936C248.104 68.936 248.856 68.464 249.4 67.52V65.096H248.272C246.432 65.096 245.512 65.784 245.512 67.16C245.512 67.72 245.648 68.16 245.92 68.48C246.208 68.784 246.616 68.936 247.144 68.936ZM257.317 67.28C257.893 67.28 258.381 67.48 258.781 67.88C259.181 68.28 259.381 68.76 259.381 69.32C259.381 69.88 259.181 70.368 258.781 70.784C258.381 71.184 257.893 71.384 257.317 71.384C256.757 71.384 256.277 71.184 255.877 70.784C255.477 70.368 255.277 69.88 255.277 69.32C255.277 68.76 255.477 68.28 255.877 67.88C256.277 67.48 256.757 67.28 257.317 67.28Z" fill="#E3000F"/>
<path d="M21.4531 86.9141V99H19.3696V86.9141H21.4531ZM28.8823 96.5679C28.8823 96.3687 28.8325 96.1888 28.7329 96.0283C28.6333 95.8623 28.4424 95.7129 28.1602 95.5801C27.8835 95.4473 27.474 95.3255 26.9316 95.2148C26.4557 95.1097 26.0186 94.9852 25.6201 94.8413C25.2272 94.6919 24.8896 94.512 24.6074 94.3018C24.3252 94.0915 24.1066 93.8424 23.9517 93.5547C23.7967 93.2669 23.7192 92.9349 23.7192 92.5586C23.7192 92.1934 23.7995 91.8475 23.96 91.521C24.1204 91.1945 24.3501 90.9067 24.6489 90.6577C24.9478 90.4087 25.3102 90.2122 25.7363 90.0684C26.168 89.9245 26.6494 89.8525 27.1807 89.8525C27.9333 89.8525 28.578 89.9798 29.1147 90.2344C29.6571 90.4834 30.0721 90.8237 30.3599 91.2554C30.6476 91.6815 30.7915 92.1629 30.7915 92.6997H28.791C28.791 92.4618 28.7301 92.2404 28.6084 92.0356C28.4922 91.8254 28.3151 91.6566 28.0771 91.5293C27.8392 91.3965 27.5404 91.3301 27.1807 91.3301C26.8376 91.3301 26.5526 91.3854 26.3257 91.4961C26.1043 91.6012 25.9383 91.7396 25.8276 91.9111C25.7225 92.0827 25.6699 92.2708 25.6699 92.4756C25.6699 92.625 25.6976 92.7606 25.7529 92.8823C25.8138 92.9985 25.9134 93.1064 26.0518 93.2061C26.1901 93.3001 26.3783 93.3887 26.6162 93.4717C26.8597 93.5547 27.1641 93.6349 27.5293 93.7124C28.2155 93.8563 28.8049 94.0417 29.2974 94.2686C29.7954 94.4899 30.1772 94.7777 30.4429 95.1318C30.7085 95.4805 30.8413 95.9232 30.8413 96.46C30.8413 96.8584 30.7555 97.2236 30.584 97.5557C30.418 97.8822 30.1745 98.1672 29.8535 98.4106C29.5326 98.6486 29.1479 98.834 28.6997 98.9668C28.257 99.0996 27.759 99.166 27.2056 99.166C26.3921 99.166 25.7031 99.0221 25.1387 98.7344C24.5742 98.4411 24.1453 98.0675 23.8521 97.6138C23.5643 97.1545 23.4204 96.6785 23.4204 96.186H25.3545C25.3766 96.5568 25.479 96.8529 25.6616 97.0742C25.8498 97.29 26.0822 97.4478 26.3589 97.5474C26.6411 97.6414 26.9316 97.6885 27.2305 97.6885C27.5902 97.6885 27.8918 97.6414 28.1353 97.5474C28.3787 97.4478 28.5641 97.3149 28.6914 97.1489C28.8187 96.9774 28.8823 96.7837 28.8823 96.5679ZM36.5522 99.166C35.8882 99.166 35.2878 99.0581 34.751 98.8423C34.2197 98.6209 33.766 98.3138 33.3896 97.9209C33.0189 97.528 32.7339 97.0659 32.5347 96.5347C32.3354 96.0034 32.2358 95.4307 32.2358 94.8164V94.4844C32.2358 93.7816 32.3382 93.1452 32.543 92.5752C32.7477 92.0052 33.0327 91.5182 33.3979 91.1143C33.7632 90.7048 34.1948 90.3921 34.6929 90.1763C35.1909 89.9604 35.7305 89.8525 36.3115 89.8525C36.9535 89.8525 37.5151 89.9604 37.9966 90.1763C38.478 90.3921 38.8765 90.6965 39.1919 91.0894C39.5129 91.4767 39.7508 91.9388 39.9058 92.4756C40.0662 93.0124 40.1465 93.6045 40.1465 94.252V95.1069H33.207V93.6709H38.1709V93.5132C38.1598 93.1535 38.0879 92.8159 37.9551 92.5005C37.8278 92.1851 37.6313 91.9305 37.3657 91.7368C37.1001 91.5431 36.7459 91.4463 36.3032 91.4463C35.9712 91.4463 35.6751 91.5182 35.415 91.6621C35.1605 91.8005 34.9474 92.0024 34.7759 92.2681C34.6043 92.5337 34.4715 92.8547 34.3774 93.231C34.2889 93.6017 34.2446 94.0195 34.2446 94.4844V94.8164C34.2446 95.2093 34.2972 95.5745 34.4023 95.9121C34.513 96.2441 34.6735 96.5347 34.8838 96.7837C35.0941 97.0327 35.3486 97.2292 35.6475 97.373C35.9463 97.5114 36.2866 97.5806 36.6685 97.5806C37.1499 97.5806 37.5788 97.4837 37.9551 97.29C38.3314 97.0964 38.6579 96.8224 38.9346 96.4683L39.9888 97.4893C39.7951 97.7715 39.5433 98.0426 39.2334 98.3027C38.9235 98.5573 38.5444 98.7648 38.0962 98.9253C37.6535 99.0858 37.1388 99.166 36.5522 99.166ZM47.4595 90.0186H49.2773V98.751C49.2773 99.5589 49.1058 100.245 48.7627 100.81C48.4196 101.374 47.9409 101.803 47.3267 102.096C46.7124 102.395 46.0013 102.544 45.1934 102.544C44.8503 102.544 44.4684 102.495 44.0479 102.395C43.6328 102.295 43.2288 102.135 42.8359 101.914C42.4486 101.698 42.1248 101.413 41.8647 101.059L42.8027 99.8799C43.1237 100.262 43.4779 100.541 43.8652 100.718C44.2526 100.895 44.6593 100.984 45.0854 100.984C45.5448 100.984 45.9349 100.898 46.2559 100.727C46.5824 100.561 46.8341 100.314 47.0112 99.9878C47.1883 99.6613 47.2769 99.2629 47.2769 98.7925V92.0522L47.4595 90.0186ZM41.3584 94.6089V94.4346C41.3584 93.7539 41.4414 93.1341 41.6074 92.5752C41.7734 92.0107 42.0114 91.5265 42.3213 91.1226C42.6312 90.7131 43.0075 90.4004 43.4502 90.1846C43.8929 89.9632 44.3937 89.8525 44.9526 89.8525C45.5337 89.8525 46.029 89.9577 46.4385 90.168C46.8535 90.3783 47.1994 90.6799 47.4761 91.0728C47.7528 91.4601 47.9686 91.925 48.1235 92.4673C48.284 93.0041 48.403 93.6017 48.4805 94.2603V94.8164C48.4085 95.4583 48.2868 96.0449 48.1152 96.5762C47.9437 97.1074 47.7168 97.5667 47.4346 97.9541C47.1523 98.3415 46.8037 98.6403 46.3887 98.8506C45.9792 99.0609 45.495 99.166 44.936 99.166C44.3882 99.166 43.8929 99.0526 43.4502 98.8257C43.013 98.5988 42.6367 98.2806 42.3213 97.8711C42.0114 97.4616 41.7734 96.9801 41.6074 96.4268C41.4414 95.8678 41.3584 95.2619 41.3584 94.6089ZM43.3589 94.4346V94.6089C43.3589 95.0184 43.3976 95.4002 43.4751 95.7544C43.5581 96.1086 43.6826 96.4212 43.8486 96.6924C44.0202 96.958 44.236 97.1683 44.4961 97.3232C44.7617 97.4727 45.0744 97.5474 45.4341 97.5474C45.9045 97.5474 46.2891 97.4478 46.5879 97.2485C46.8923 97.0493 47.1247 96.7809 47.2852 96.4434C47.4512 96.1003 47.5674 95.7184 47.6338 95.2979V93.7954C47.6006 93.4689 47.5314 93.1646 47.4263 92.8823C47.3267 92.6001 47.1911 92.3538 47.0195 92.1436C46.848 91.9277 46.6322 91.7617 46.3721 91.6455C46.112 91.5238 45.8049 91.4629 45.4507 91.4629C45.091 91.4629 44.7783 91.5404 44.5127 91.6953C44.2471 91.8503 44.0285 92.0633 43.8569 92.3345C43.6909 92.6056 43.5664 92.9211 43.4834 93.2808C43.4004 93.6405 43.3589 94.0251 43.3589 94.4346ZM53.4941 90.0186V99H51.4854V90.0186H53.4941ZM51.3525 87.6611C51.3525 87.3568 51.4521 87.105 51.6514 86.9058C51.8561 86.701 52.1383 86.5986 52.498 86.5986C52.8522 86.5986 53.1317 86.701 53.3364 86.9058C53.5412 87.105 53.6436 87.3568 53.6436 87.6611C53.6436 87.96 53.5412 88.209 53.3364 88.4082C53.1317 88.6074 52.8522 88.707 52.498 88.707C52.1383 88.707 51.8561 88.6074 51.6514 88.4082C51.4521 88.209 51.3525 87.96 51.3525 87.6611ZM61.936 86.25V99H59.9272V86.25H61.936ZM67.5142 90.0186L63.6045 94.3516L61.4629 96.543L60.9399 94.8496L62.5586 92.8491L65.0986 90.0186H67.5142ZM65.5303 99L62.6167 94.7832L63.8784 93.3804L67.8462 99H65.5303ZM74.188 96.8833V90.0186H76.1968V99H74.3042L74.188 96.8833ZM74.4702 95.0156L75.1426 94.999C75.1426 95.6022 75.0762 96.1584 74.9434 96.6675C74.8105 97.1711 74.6058 97.611 74.3291 97.9873C74.0524 98.3581 73.6982 98.6486 73.2666 98.8589C72.835 99.0636 72.3175 99.166 71.7144 99.166C71.2772 99.166 70.876 99.1024 70.5107 98.9751C70.1455 98.8478 69.8301 98.6514 69.5645 98.3857C69.3044 98.1201 69.1024 97.7743 68.9585 97.3481C68.8146 96.922 68.7427 96.4129 68.7427 95.8208V90.0186H70.7432V95.8374C70.7432 96.1639 70.7819 96.4378 70.8594 96.6592C70.9368 96.875 71.042 97.0493 71.1748 97.1821C71.3076 97.3149 71.4626 97.409 71.6396 97.4644C71.8167 97.5197 72.0049 97.5474 72.2041 97.5474C72.7741 97.5474 73.2223 97.4367 73.5488 97.2153C73.8809 96.9884 74.116 96.6841 74.2544 96.3022C74.3983 95.9204 74.4702 95.4915 74.4702 95.0156ZM80.3887 90.0186V99H78.3799V90.0186H80.3887ZM78.2471 87.6611C78.2471 87.3568 78.3467 87.105 78.5459 86.9058C78.7507 86.701 79.0329 86.5986 79.3926 86.5986C79.7467 86.5986 80.0262 86.701 80.231 86.9058C80.4357 87.105 80.5381 87.3568 80.5381 87.6611C80.5381 87.96 80.4357 88.209 80.231 88.4082C80.0262 88.6074 79.7467 88.707 79.3926 88.707C79.0329 88.707 78.7507 88.6074 78.5459 88.4082C78.3467 88.209 78.2471 87.96 78.2471 87.6611ZM91.8521 96.5679C91.8521 96.3687 91.8022 96.1888 91.7026 96.0283C91.603 95.8623 91.4121 95.7129 91.1299 95.5801C90.8532 95.4473 90.4437 95.3255 89.9014 95.2148C89.4255 95.1097 88.9883 94.9852 88.5898 94.8413C88.1969 94.6919 87.8594 94.512 87.5771 94.3018C87.2949 94.0915 87.0763 93.8424 86.9214 93.5547C86.7664 93.2669 86.689 92.9349 86.689 92.5586C86.689 92.1934 86.7692 91.8475 86.9297 91.521C87.0902 91.1945 87.3198 90.9067 87.6187 90.6577C87.9175 90.4087 88.2799 90.2122 88.7061 90.0684C89.1377 89.9245 89.6191 89.8525 90.1504 89.8525C90.903 89.8525 91.5477 89.9798 92.0845 90.2344C92.6268 90.4834 93.0418 90.8237 93.3296 91.2554C93.6174 91.6815 93.7612 92.1629 93.7612 92.6997H91.7607C91.7607 92.4618 91.6999 92.2404 91.5781 92.0356C91.4619 91.8254 91.2848 91.6566 91.0469 91.5293C90.8089 91.3965 90.5101 91.3301 90.1504 91.3301C89.8073 91.3301 89.5223 91.3854 89.2954 91.4961C89.0741 91.6012 88.908 91.7396 88.7974 91.9111C88.6922 92.0827 88.6396 92.2708 88.6396 92.4756C88.6396 92.625 88.6673 92.7606 88.7227 92.8823C88.7835 92.9985 88.8831 93.1064 89.0215 93.2061C89.1598 93.3001 89.348 93.3887 89.5859 93.4717C89.8294 93.5547 90.1338 93.6349 90.499 93.7124C91.1852 93.8563 91.7746 94.0417 92.2671 94.2686C92.7651 94.4899 93.147 94.7777 93.4126 95.1318C93.6782 95.4805 93.811 95.9232 93.811 96.46C93.811 96.8584 93.7253 97.2236 93.5537 97.5557C93.3877 97.8822 93.1442 98.1672 92.8232 98.4106C92.5023 98.6486 92.1177 98.834 91.6694 98.9668C91.2267 99.0996 90.7287 99.166 90.1753 99.166C89.3618 99.166 88.6729 99.0221 88.1084 98.7344C87.5439 98.4411 87.1151 98.0675 86.8218 97.6138C86.534 97.1545 86.3901 96.6785 86.3901 96.186H88.3242C88.3464 96.5568 88.4487 96.8529 88.6313 97.0742C88.8195 97.29 89.0519 97.4478 89.3286 97.5474C89.6108 97.6414 89.9014 97.6885 90.2002 97.6885C90.5599 97.6885 90.8615 97.6414 91.105 97.5474C91.3485 97.4478 91.5339 97.3149 91.6611 97.1489C91.7884 96.9774 91.8521 96.7837 91.8521 96.5679ZM99.522 99.166C98.8579 99.166 98.2575 99.0581 97.7207 98.8423C97.1895 98.6209 96.7357 98.3138 96.3594 97.9209C95.9886 97.528 95.7036 97.0659 95.5044 96.5347C95.3052 96.0034 95.2056 95.4307 95.2056 94.8164V94.4844C95.2056 93.7816 95.3079 93.1452 95.5127 92.5752C95.7174 92.0052 96.0024 91.5182 96.3677 91.1143C96.7329 90.7048 97.1646 90.3921 97.6626 90.1763C98.1606 89.9604 98.7002 89.8525 99.2812 89.8525C99.9232 89.8525 100.485 89.9604 100.966 90.1763C101.448 90.3921 101.846 90.6965 102.162 91.0894C102.483 91.4767 102.721 91.9388 102.875 92.4756C103.036 93.0124 103.116 93.6045 103.116 94.252V95.1069H96.1768V93.6709H101.141V93.5132C101.13 93.1535 101.058 92.8159 100.925 92.5005C100.798 92.1851 100.601 91.9305 100.335 91.7368C100.07 91.5431 99.7157 91.4463 99.2729 91.4463C98.9409 91.4463 98.6449 91.5182 98.3848 91.6621C98.1302 91.8005 97.9172 92.0024 97.7456 92.2681C97.5741 92.5337 97.4412 92.8547 97.3472 93.231C97.2586 93.6017 97.2144 94.0195 97.2144 94.4844V94.8164C97.2144 95.2093 97.2669 95.5745 97.3721 95.9121C97.4827 96.2441 97.6432 96.5347 97.8535 96.7837C98.0638 97.0327 98.3184 97.2292 98.6172 97.373C98.916 97.5114 99.2563 97.5806 99.6382 97.5806C100.12 97.5806 100.549 97.4837 100.925 97.29C101.301 97.0964 101.628 96.8224 101.904 96.4683L102.958 97.4893C102.765 97.7715 102.513 98.0426 102.203 98.3027C101.893 98.5573 101.514 98.7648 101.066 98.9253C100.623 99.0858 100.109 99.166 99.522 99.166ZM108.636 99.166C107.972 99.166 107.372 99.0581 106.835 98.8423C106.304 98.6209 105.85 98.3138 105.474 97.9209C105.103 97.528 104.818 97.0659 104.619 96.5347C104.419 96.0034 104.32 95.4307 104.32 94.8164V94.4844C104.32 93.7816 104.422 93.1452 104.627 92.5752C104.832 92.0052 105.117 91.5182 105.482 91.1143C105.847 90.7048 106.279 90.3921 106.777 90.1763C107.275 89.9604 107.814 89.8525 108.396 89.8525C109.037 89.8525 109.599 89.9604 110.081 90.1763C110.562 90.3921 110.96 90.6965 111.276 91.0894C111.597 91.4767 111.835 91.9388 111.99 92.4756C112.15 93.0124 112.23 93.6045 112.23 94.252V95.1069H105.291V93.6709H110.255V93.5132C110.244 93.1535 110.172 92.8159 110.039 92.5005C109.912 92.1851 109.715 91.9305 109.45 91.7368C109.184 91.5431 108.83 91.4463 108.387 91.4463C108.055 91.4463 107.759 91.5182 107.499 91.6621C107.244 91.8005 107.031 92.0024 106.86 92.2681C106.688 92.5337 106.556 92.8547 106.461 93.231C106.373 93.6017 106.329 94.0195 106.329 94.4844V94.8164C106.329 95.2093 106.381 95.5745 106.486 95.9121C106.597 96.2441 106.757 96.5347 106.968 96.7837C107.178 97.0327 107.433 97.2292 107.731 97.373C108.03 97.5114 108.371 97.5806 108.752 97.5806C109.234 97.5806 109.663 97.4837 110.039 97.29C110.415 97.0964 110.742 96.8224 111.019 96.4683L112.073 97.4893C111.879 97.7715 111.627 98.0426 111.317 98.3027C111.007 98.5573 110.628 98.7648 110.18 98.9253C109.737 99.0858 109.223 99.166 108.636 99.166ZM118.124 90.0186H120.133V99.7803C120.133 100.395 120.028 100.912 119.817 101.333C119.607 101.759 119.297 102.08 118.888 102.295C118.478 102.517 117.977 102.627 117.385 102.627C117.208 102.627 117.026 102.614 116.837 102.586C116.644 102.564 116.461 102.531 116.29 102.486L116.298 100.926C116.414 100.948 116.539 100.965 116.671 100.976C116.799 100.992 116.92 101 117.037 101C117.275 101 117.474 100.959 117.634 100.876C117.795 100.793 117.917 100.663 118 100.486C118.083 100.309 118.124 100.074 118.124 99.7803V90.0186ZM117.95 87.6611C117.95 87.3568 118.052 87.105 118.257 86.9058C118.462 86.701 118.741 86.5986 119.095 86.5986C119.455 86.5986 119.734 86.701 119.934 86.9058C120.138 87.105 120.241 87.3568 120.241 87.6611C120.241 87.96 120.138 88.209 119.934 88.4082C119.734 88.6074 119.455 88.707 119.095 88.707C118.741 88.707 118.462 88.6074 118.257 88.4082C118.052 88.209 117.95 87.96 117.95 87.6611ZM127.354 97.1987V92.9155C127.354 92.5946 127.296 92.3179 127.18 92.0854C127.064 91.853 126.887 91.6732 126.649 91.5459C126.417 91.4186 126.123 91.355 125.769 91.355C125.443 91.355 125.16 91.4103 124.922 91.521C124.684 91.6317 124.499 91.7811 124.366 91.9692C124.233 92.1574 124.167 92.3704 124.167 92.6084H122.175C122.175 92.2542 122.261 91.9111 122.432 91.5791C122.604 91.2471 122.853 90.951 123.179 90.6909C123.506 90.4308 123.896 90.2261 124.35 90.0767C124.803 89.9272 125.312 89.8525 125.877 89.8525C126.552 89.8525 127.15 89.966 127.67 90.1929C128.196 90.4198 128.608 90.7629 128.907 91.2222C129.211 91.6759 129.363 92.2459 129.363 92.9321V96.9248C129.363 97.3343 129.391 97.7023 129.446 98.0288C129.507 98.3498 129.593 98.6292 129.704 98.8672V99H127.653C127.559 98.7842 127.485 98.5103 127.429 98.1782C127.379 97.8407 127.354 97.5142 127.354 97.1987ZM127.645 93.5381L127.662 94.7749H126.226C125.855 94.7749 125.528 94.8109 125.246 94.8828C124.964 94.9492 124.729 95.0488 124.541 95.1816C124.352 95.3145 124.211 95.4749 124.117 95.6631C124.023 95.8512 123.976 96.0643 123.976 96.3022C123.976 96.5402 124.031 96.7588 124.142 96.958C124.253 97.1517 124.413 97.3039 124.624 97.4146C124.839 97.5252 125.099 97.5806 125.404 97.5806C125.813 97.5806 126.17 97.4976 126.475 97.3315C126.785 97.16 127.028 96.9525 127.205 96.709C127.382 96.46 127.476 96.2248 127.487 96.0034L128.135 96.8916C128.068 97.1185 127.955 97.362 127.794 97.6221C127.634 97.8822 127.424 98.1312 127.164 98.3691C126.909 98.6016 126.602 98.7925 126.242 98.9419C125.888 99.0913 125.479 99.166 125.014 99.166C124.427 99.166 123.904 99.0498 123.445 98.8174C122.986 98.5794 122.626 98.2612 122.366 97.8628C122.106 97.4588 121.976 97.0023 121.976 96.4932C121.976 96.0173 122.064 95.5967 122.241 95.2314C122.424 94.8607 122.689 94.5508 123.038 94.3018C123.392 94.0527 123.824 93.8646 124.333 93.7373C124.842 93.6045 125.423 93.5381 126.076 93.5381H127.645ZM123.005 87.6362C123.005 87.3651 123.099 87.1382 123.287 86.9556C123.475 86.7674 123.724 86.6733 124.034 86.6733C124.35 86.6733 124.601 86.7674 124.79 86.9556C124.978 87.1382 125.072 87.3651 125.072 87.6362C125.072 87.9019 124.978 88.1287 124.79 88.3169C124.601 88.4995 124.35 88.5908 124.034 88.5908C123.724 88.5908 123.475 88.4995 123.287 88.3169C123.099 88.1287 123.005 87.9019 123.005 87.6362ZM126.848 87.6445C126.848 87.3734 126.942 87.1465 127.13 86.9639C127.319 86.7757 127.57 86.6816 127.886 86.6816C128.196 86.6816 128.445 86.7757 128.633 86.9639C128.826 87.1465 128.923 87.3734 128.923 87.6445C128.923 87.9102 128.826 88.137 128.633 88.3252C128.445 88.5078 128.196 88.5991 127.886 88.5991C127.57 88.5991 127.319 88.5078 127.13 88.3252C126.942 88.137 126.848 87.9102 126.848 87.6445ZM136.519 97.1987V92.9155C136.519 92.5946 136.46 92.3179 136.344 92.0854C136.228 91.853 136.051 91.6732 135.813 91.5459C135.581 91.4186 135.287 91.355 134.933 91.355C134.607 91.355 134.324 91.4103 134.086 91.521C133.848 91.6317 133.663 91.7811 133.53 91.9692C133.397 92.1574 133.331 92.3704 133.331 92.6084H131.339C131.339 92.2542 131.425 91.9111 131.596 91.5791C131.768 91.2471 132.017 90.951 132.343 90.6909C132.67 90.4308 133.06 90.2261 133.514 90.0767C133.967 89.9272 134.477 89.8525 135.041 89.8525C135.716 89.8525 136.314 89.966 136.834 90.1929C137.36 90.4198 137.772 90.7629 138.071 91.2222C138.375 91.6759 138.527 92.2459 138.527 92.9321V96.9248C138.527 97.3343 138.555 97.7023 138.61 98.0288C138.671 98.3498 138.757 98.6292 138.868 98.8672V99H136.817C136.723 98.7842 136.649 98.5103 136.593 98.1782C136.543 97.8407 136.519 97.5142 136.519 97.1987ZM136.809 93.5381L136.826 94.7749H135.39C135.019 94.7749 134.692 94.8109 134.41 94.8828C134.128 94.9492 133.893 95.0488 133.705 95.1816C133.516 95.3145 133.375 95.4749 133.281 95.6631C133.187 95.8512 133.14 96.0643 133.14 96.3022C133.14 96.5402 133.195 96.7588 133.306 96.958C133.417 97.1517 133.577 97.3039 133.788 97.4146C134.003 97.5252 134.264 97.5806 134.568 97.5806C134.977 97.5806 135.334 97.4976 135.639 97.3315C135.949 97.16 136.192 96.9525 136.369 96.709C136.546 96.46 136.64 96.2248 136.651 96.0034L137.299 96.8916C137.232 97.1185 137.119 97.362 136.958 97.6221C136.798 97.8822 136.588 98.1312 136.328 98.3691C136.073 98.6016 135.766 98.7925 135.406 98.9419C135.052 99.0913 134.643 99.166 134.178 99.166C133.591 99.166 133.068 99.0498 132.609 98.8174C132.15 98.5794 131.79 98.2612 131.53 97.8628C131.27 97.4588 131.14 97.0023 131.14 96.4932C131.14 96.0173 131.228 95.5967 131.405 95.2314C131.588 94.8607 131.854 94.5508 132.202 94.3018C132.556 94.0527 132.988 93.8646 133.497 93.7373C134.006 93.6045 134.587 93.5381 135.24 93.5381H136.809ZM132.169 87.6362C132.169 87.3651 132.263 87.1382 132.451 86.9556C132.639 86.7674 132.888 86.6733 133.198 86.6733C133.514 86.6733 133.765 86.7674 133.954 86.9556C134.142 87.1382 134.236 87.3651 134.236 87.6362C134.236 87.9019 134.142 88.1287 133.954 88.3169C133.765 88.4995 133.514 88.5908 133.198 88.5908C132.888 88.5908 132.639 88.4995 132.451 88.3169C132.263 88.1287 132.169 87.9019 132.169 87.6362ZM136.012 87.6445C136.012 87.3734 136.106 87.1465 136.294 86.9639C136.483 86.7757 136.734 86.6816 137.05 86.6816C137.36 86.6816 137.609 86.7757 137.797 86.9639C137.991 87.1465 138.087 87.3734 138.087 87.6445C138.087 87.9102 137.991 88.137 137.797 88.3252C137.609 88.5078 137.36 88.5991 137.05 88.5991C136.734 88.5991 136.483 88.5078 136.294 88.3252C136.106 88.137 136.012 87.9102 136.012 87.6445ZM140.627 86.25H142.628V97.0825L142.437 99H140.627V86.25ZM148.488 94.4263V94.6006C148.488 95.2646 148.414 95.8761 148.264 96.4351C148.12 96.9884 147.899 97.4699 147.6 97.8794C147.307 98.2889 146.942 98.6071 146.504 98.834C146.073 99.0553 145.572 99.166 145.002 99.166C144.443 99.166 143.956 99.0609 143.541 98.8506C143.126 98.6403 142.777 98.3415 142.495 97.9541C142.218 97.5667 141.994 97.1047 141.823 96.5679C141.651 96.0311 141.529 95.439 141.458 94.7915V94.2354C141.529 93.5824 141.651 92.9902 141.823 92.459C141.994 91.9222 142.218 91.4601 142.495 91.0728C142.777 90.6799 143.123 90.3783 143.533 90.168C143.948 89.9577 144.432 89.8525 144.985 89.8525C145.561 89.8525 146.067 89.9632 146.504 90.1846C146.947 90.4059 147.315 90.7214 147.608 91.1309C147.902 91.5348 148.12 92.0163 148.264 92.5752C148.414 93.1341 148.488 93.7511 148.488 94.4263ZM146.488 94.6006V94.4263C146.488 94.0223 146.455 93.6432 146.388 93.2891C146.322 92.9294 146.211 92.6139 146.056 92.3428C145.907 92.0716 145.702 91.8586 145.442 91.7036C145.187 91.5431 144.869 91.4629 144.487 91.4629C144.133 91.4629 143.829 91.5238 143.574 91.6455C143.32 91.7673 143.107 91.9333 142.935 92.1436C142.764 92.3538 142.628 92.5973 142.528 92.874C142.434 93.1507 142.371 93.4495 142.337 93.7705V95.2729C142.387 95.688 142.492 96.0698 142.653 96.4185C142.819 96.7616 143.051 97.0382 143.35 97.2485C143.649 97.4533 144.034 97.5557 144.504 97.5557C144.875 97.5557 145.187 97.481 145.442 97.3315C145.696 97.1821 145.898 96.9746 146.048 96.709C146.203 96.4378 146.313 96.1224 146.38 95.7627C146.452 95.403 146.488 95.0156 146.488 94.6006ZM156.424 91.7451V102.453H154.423V90.0186H156.266L156.424 91.7451ZM162.276 94.4263V94.6006C162.276 95.2536 162.198 95.8595 162.043 96.4185C161.894 96.9718 161.67 97.4561 161.371 97.8711C161.078 98.2806 160.715 98.5988 160.284 98.8257C159.852 99.0526 159.354 99.166 158.79 99.166C158.231 99.166 157.741 99.0636 157.32 98.8589C156.905 98.6486 156.554 98.3525 156.266 97.9707C155.978 97.5889 155.746 97.1406 155.569 96.626C155.397 96.1058 155.276 95.5358 155.204 94.916V94.2437C155.276 93.5851 155.397 92.9875 155.569 92.4507C155.746 91.9139 155.978 91.4518 156.266 91.0645C156.554 90.6771 156.905 90.3783 157.32 90.168C157.735 89.9577 158.22 89.8525 158.773 89.8525C159.337 89.8525 159.838 89.9632 160.275 90.1846C160.713 90.4004 161.081 90.7103 161.379 91.1143C161.678 91.5127 161.902 91.9941 162.052 92.5586C162.201 93.1175 162.276 93.7401 162.276 94.4263ZM160.275 94.6006V94.4263C160.275 94.0112 160.237 93.6266 160.159 93.2725C160.082 92.9128 159.96 92.5973 159.794 92.3262C159.628 92.055 159.415 91.8447 159.155 91.6953C158.9 91.5404 158.593 91.4629 158.233 91.4629C157.879 91.4629 157.575 91.5238 157.32 91.6455C157.066 91.7617 156.853 91.925 156.681 92.1353C156.51 92.3455 156.377 92.5918 156.283 92.874C156.189 93.1507 156.122 93.4523 156.083 93.7788V95.3892C156.15 95.7876 156.263 96.1528 156.424 96.4849C156.584 96.8169 156.811 97.0825 157.104 97.2817C157.403 97.4754 157.785 97.5723 158.25 97.5723C158.61 97.5723 158.917 97.4948 159.171 97.3398C159.426 97.1849 159.633 96.9718 159.794 96.7007C159.96 96.424 160.082 96.1058 160.159 95.7461C160.237 95.3864 160.275 95.0046 160.275 94.6006ZM166.119 86.25V99H164.11V86.25H166.119ZM173.374 97.1987V92.9155C173.374 92.5946 173.316 92.3179 173.2 92.0854C173.083 91.853 172.906 91.6732 172.668 91.5459C172.436 91.4186 172.143 91.355 171.789 91.355C171.462 91.355 171.18 91.4103 170.942 91.521C170.704 91.6317 170.519 91.7811 170.386 91.9692C170.253 92.1574 170.187 92.3704 170.187 92.6084H168.194C168.194 92.2542 168.28 91.9111 168.452 91.5791C168.623 91.2471 168.872 90.951 169.199 90.6909C169.525 90.4308 169.915 90.2261 170.369 90.0767C170.823 89.9272 171.332 89.8525 171.896 89.8525C172.572 89.8525 173.169 89.966 173.689 90.1929C174.215 90.4198 174.627 90.7629 174.926 91.2222C175.231 91.6759 175.383 92.2459 175.383 92.9321V96.9248C175.383 97.3343 175.41 97.7023 175.466 98.0288C175.527 98.3498 175.612 98.6292 175.723 98.8672V99H173.673C173.579 98.7842 173.504 98.5103 173.449 98.1782C173.399 97.8407 173.374 97.5142 173.374 97.1987ZM173.665 93.5381L173.681 94.7749H172.245C171.874 94.7749 171.548 94.8109 171.266 94.8828C170.983 94.9492 170.748 95.0488 170.56 95.1816C170.372 95.3145 170.231 95.4749 170.137 95.6631C170.043 95.8512 169.996 96.0643 169.996 96.3022C169.996 96.5402 170.051 96.7588 170.162 96.958C170.272 97.1517 170.433 97.3039 170.643 97.4146C170.859 97.5252 171.119 97.5806 171.423 97.5806C171.833 97.5806 172.19 97.4976 172.494 97.3315C172.804 97.16 173.048 96.9525 173.225 96.709C173.402 96.46 173.496 96.2248 173.507 96.0034L174.154 96.8916C174.088 97.1185 173.974 97.362 173.814 97.6221C173.653 97.8822 173.443 98.1312 173.183 98.3691C172.929 98.6016 172.621 98.7925 172.262 98.9419C171.908 99.0913 171.498 99.166 171.033 99.166C170.447 99.166 169.924 99.0498 169.464 98.8174C169.005 98.5794 168.645 98.2612 168.385 97.8628C168.125 97.4588 167.995 97.0023 167.995 96.4932C167.995 96.0173 168.084 95.5967 168.261 95.2314C168.443 94.8607 168.709 94.5508 169.058 94.3018C169.412 94.0527 169.843 93.8646 170.353 93.7373C170.862 93.6045 171.443 93.5381 172.096 93.5381H173.665ZM182.538 97.1987V92.9155C182.538 92.5946 182.48 92.3179 182.364 92.0854C182.248 91.853 182.07 91.6732 181.833 91.5459C181.6 91.4186 181.307 91.355 180.953 91.355C180.626 91.355 180.344 91.4103 180.106 91.521C179.868 91.6317 179.683 91.7811 179.55 91.9692C179.417 92.1574 179.351 92.3704 179.351 92.6084H177.358C177.358 92.2542 177.444 91.9111 177.616 91.5791C177.787 91.2471 178.036 90.951 178.363 90.6909C178.689 90.4308 179.079 90.2261 179.533 90.0767C179.987 89.9272 180.496 89.8525 181.061 89.8525C181.736 89.8525 182.333 89.966 182.854 90.1929C183.379 90.4198 183.792 90.7629 184.09 91.2222C184.395 91.6759 184.547 92.2459 184.547 92.9321V96.9248C184.547 97.3343 184.575 97.7023 184.63 98.0288C184.691 98.3498 184.777 98.6292 184.887 98.8672V99H182.837C182.743 98.7842 182.668 98.5103 182.613 98.1782C182.563 97.8407 182.538 97.5142 182.538 97.1987ZM182.829 93.5381L182.845 94.7749H181.409C181.038 94.7749 180.712 94.8109 180.43 94.8828C180.147 94.9492 179.912 95.0488 179.724 95.1816C179.536 95.3145 179.395 95.4749 179.301 95.6631C179.207 95.8512 179.16 96.0643 179.16 96.3022C179.16 96.5402 179.215 96.7588 179.326 96.958C179.436 97.1517 179.597 97.3039 179.807 97.4146C180.023 97.5252 180.283 97.5806 180.587 97.5806C180.997 97.5806 181.354 97.4976 181.658 97.3315C181.968 97.16 182.212 96.9525 182.389 96.709C182.566 96.46 182.66 96.2248 182.671 96.0034L183.318 96.8916C183.252 97.1185 183.139 97.362 182.978 97.6221C182.818 97.8822 182.607 98.1312 182.347 98.3691C182.093 98.6016 181.785 98.7925 181.426 98.9419C181.072 99.0913 180.662 99.166 180.197 99.166C179.611 99.166 179.088 99.0498 178.628 98.8174C178.169 98.5794 177.809 98.2612 177.549 97.8628C177.289 97.4588 177.159 97.0023 177.159 96.4932C177.159 96.0173 177.248 95.5967 177.425 95.2314C177.607 94.8607 177.873 94.5508 178.222 94.3018C178.576 94.0527 179.007 93.8646 179.517 93.7373C180.026 93.6045 180.607 93.5381 181.26 93.5381H182.829ZM188.623 91.936V99H186.622V90.0186H188.506L188.623 91.936ZM188.266 94.1772L187.618 94.1689C187.624 93.5326 187.712 92.9487 187.884 92.4175C188.061 91.8862 188.304 91.4297 188.614 91.0479C188.93 90.666 189.306 90.3727 189.743 90.168C190.18 89.9577 190.667 89.8525 191.204 89.8525C191.636 89.8525 192.026 89.9134 192.375 90.0352C192.729 90.1514 193.03 90.3423 193.279 90.6079C193.534 90.8735 193.728 91.2194 193.86 91.6455C193.993 92.0661 194.06 92.5835 194.06 93.1978V99H192.051V93.1895C192.051 92.7578 191.987 92.4175 191.86 92.1685C191.738 91.9139 191.558 91.734 191.32 91.6289C191.088 91.5182 190.797 91.4629 190.449 91.4629C190.106 91.4629 189.799 91.5348 189.527 91.6787C189.256 91.8226 189.027 92.019 188.838 92.2681C188.656 92.5171 188.515 92.8049 188.415 93.1313C188.315 93.4578 188.266 93.8065 188.266 94.1772ZM198.243 90.0186V99H196.234V90.0186H198.243ZM196.102 87.6611C196.102 87.3568 196.201 87.105 196.4 86.9058C196.605 86.701 196.887 86.5986 197.247 86.5986C197.601 86.5986 197.881 86.701 198.085 86.9058C198.29 87.105 198.393 87.3568 198.393 87.6611C198.393 87.96 198.29 88.209 198.085 88.4082C197.881 88.6074 197.601 88.707 197.247 88.707C196.887 88.707 196.605 88.6074 196.4 88.4082C196.201 88.209 196.102 87.96 196.102 87.6611ZM202.452 86.25V99H200.443V86.25H202.452ZM208.03 90.0186L204.12 94.3516L201.979 96.543L201.456 94.8496L203.074 92.8491L205.614 90.0186H208.03ZM206.046 99L203.132 94.7832L204.394 93.3804L208.362 99H206.046ZM214.338 96.5679C214.338 96.3687 214.289 96.1888 214.189 96.0283C214.089 95.8623 213.898 95.7129 213.616 95.5801C213.34 95.4473 212.93 95.3255 212.388 95.2148C211.912 95.1097 211.475 94.9852 211.076 94.8413C210.683 94.6919 210.346 94.512 210.063 94.3018C209.781 94.0915 209.563 93.8424 209.408 93.5547C209.253 93.2669 209.175 92.9349 209.175 92.5586C209.175 92.1934 209.256 91.8475 209.416 91.521C209.576 91.1945 209.806 90.9067 210.105 90.6577C210.404 90.4087 210.766 90.2122 211.192 90.0684C211.624 89.9245 212.105 89.8525 212.637 89.8525C213.389 89.8525 214.034 89.9798 214.571 90.2344C215.113 90.4834 215.528 90.8237 215.816 91.2554C216.104 91.6815 216.248 92.1629 216.248 92.6997H214.247C214.247 92.4618 214.186 92.2404 214.064 92.0356C213.948 91.8254 213.771 91.6566 213.533 91.5293C213.295 91.3965 212.996 91.3301 212.637 91.3301C212.294 91.3301 212.009 91.3854 211.782 91.4961C211.56 91.6012 211.394 91.7396 211.284 91.9111C211.179 92.0827 211.126 92.2708 211.126 92.4756C211.126 92.625 211.154 92.7606 211.209 92.8823C211.27 92.9985 211.369 93.1064 211.508 93.2061C211.646 93.3001 211.834 93.3887 212.072 93.4717C212.316 93.5547 212.62 93.6349 212.985 93.7124C213.672 93.8563 214.261 94.0417 214.753 94.2686C215.251 94.4899 215.633 94.7777 215.899 95.1318C216.165 95.4805 216.297 95.9232 216.297 96.46C216.297 96.8584 216.212 97.2236 216.04 97.5557C215.874 97.8822 215.631 98.1672 215.31 98.4106C214.989 98.6486 214.604 98.834 214.156 98.9668C213.713 99.0996 213.215 99.166 212.662 99.166C211.848 99.166 211.159 99.0221 210.595 98.7344C210.03 98.4411 209.601 98.0675 209.308 97.6138C209.02 97.1545 208.876 96.6785 208.876 96.186H210.811C210.833 96.5568 210.935 96.8529 211.118 97.0742C211.306 97.29 211.538 97.4478 211.815 97.5474C212.097 97.6414 212.388 97.6885 212.687 97.6885C213.046 97.6885 213.348 97.6414 213.591 97.5474C213.835 97.4478 214.02 97.3149 214.147 97.1489C214.275 96.9774 214.338 96.7837 214.338 96.5679ZM219.925 97.0742L219.917 98.502C219.917 99.0664 219.775 99.6475 219.493 100.245C219.211 100.843 218.837 101.335 218.373 101.723L217.302 101.1C217.457 100.851 217.598 100.599 217.725 100.345C217.852 100.09 217.955 99.819 218.032 99.5312C218.11 99.2435 218.148 98.9253 218.148 98.5767V97.0742H219.925ZM24.0679 117.568C24.0679 117.369 24.0181 117.189 23.9185 117.028C23.8188 116.862 23.6279 116.713 23.3457 116.58C23.069 116.447 22.6595 116.326 22.1172 116.215C21.6413 116.11 21.2041 115.985 20.8057 115.841C20.4128 115.692 20.0752 115.512 19.793 115.302C19.5107 115.091 19.2922 114.842 19.1372 114.555C18.9823 114.267 18.9048 113.935 18.9048 113.559C18.9048 113.193 18.985 112.847 19.1455 112.521C19.306 112.194 19.5356 111.907 19.8345 111.658C20.1333 111.409 20.4958 111.212 20.9219 111.068C21.3535 110.924 21.835 110.853 22.3662 110.853C23.1188 110.853 23.7635 110.98 24.3003 111.234C24.8426 111.483 25.2576 111.824 25.5454 112.255C25.8332 112.681 25.9771 113.163 25.9771 113.7H23.9766C23.9766 113.462 23.9157 113.24 23.7939 113.036C23.6777 112.825 23.5007 112.657 23.2627 112.529C23.0247 112.396 22.7259 112.33 22.3662 112.33C22.0231 112.33 21.7381 112.385 21.5112 112.496C21.2899 112.601 21.1239 112.74 21.0132 112.911C20.908 113.083 20.8555 113.271 20.8555 113.476C20.8555 113.625 20.8831 113.761 20.9385 113.882C20.9993 113.999 21.099 114.106 21.2373 114.206C21.3757 114.3 21.5638 114.389 21.8018 114.472C22.0452 114.555 22.3496 114.635 22.7148 114.712C23.401 114.856 23.9904 115.042 24.4829 115.269C24.981 115.49 25.3628 115.778 25.6284 116.132C25.894 116.48 26.0269 116.923 26.0269 117.46C26.0269 117.858 25.9411 118.224 25.7695 118.556C25.6035 118.882 25.36 119.167 25.0391 119.411C24.7181 119.649 24.3335 119.834 23.8853 119.967C23.4425 120.1 22.9445 120.166 22.3911 120.166C21.5776 120.166 20.8887 120.022 20.3242 119.734C19.7598 119.441 19.3309 119.068 19.0376 118.614C18.7498 118.154 18.606 117.679 18.606 117.186H20.54C20.5622 117.557 20.6646 117.853 20.8472 118.074C21.0353 118.29 21.2677 118.448 21.5444 118.547C21.8267 118.641 22.1172 118.688 22.416 118.688C22.7757 118.688 23.0773 118.641 23.3208 118.547C23.5643 118.448 23.7497 118.315 23.877 118.149C24.0042 117.977 24.0679 117.784 24.0679 117.568ZM29.7871 112.745V123.453H27.7866V111.019H29.6294L29.7871 112.745ZM35.6392 115.426V115.601C35.6392 116.254 35.5617 116.86 35.4067 117.418C35.2573 117.972 35.0332 118.456 34.7344 118.871C34.4411 119.281 34.0786 119.599 33.647 119.826C33.2153 120.053 32.7173 120.166 32.1528 120.166C31.5939 120.166 31.1042 120.064 30.6836 119.859C30.2686 119.649 29.9172 119.353 29.6294 118.971C29.3416 118.589 29.1092 118.141 28.9321 117.626C28.7606 117.106 28.6388 116.536 28.5669 115.916V115.244C28.6388 114.585 28.7606 113.987 28.9321 113.451C29.1092 112.914 29.3416 112.452 29.6294 112.064C29.9172 111.677 30.2686 111.378 30.6836 111.168C31.0986 110.958 31.5828 110.853 32.1362 110.853C32.7007 110.853 33.2015 110.963 33.6387 111.185C34.0758 111.4 34.4438 111.71 34.7427 112.114C35.0415 112.513 35.2656 112.994 35.415 113.559C35.5645 114.118 35.6392 114.74 35.6392 115.426ZM33.6387 115.601V115.426C33.6387 115.011 33.5999 114.627 33.5225 114.272C33.445 113.913 33.3232 113.597 33.1572 113.326C32.9912 113.055 32.7782 112.845 32.5181 112.695C32.2635 112.54 31.9564 112.463 31.5967 112.463C31.2425 112.463 30.9382 112.524 30.6836 112.646C30.429 112.762 30.216 112.925 30.0444 113.135C29.8729 113.346 29.7401 113.592 29.646 113.874C29.5519 114.151 29.4855 114.452 29.4468 114.779V116.389C29.5132 116.788 29.6266 117.153 29.7871 117.485C29.9476 117.817 30.1745 118.083 30.4678 118.282C30.7666 118.475 31.1484 118.572 31.6133 118.572C31.973 118.572 32.2801 118.495 32.5347 118.34C32.7892 118.185 32.9967 117.972 33.1572 117.701C33.3232 117.424 33.445 117.106 33.5225 116.746C33.5999 116.386 33.6387 116.005 33.6387 115.601ZM36.959 115.609V115.418C36.959 114.771 37.0531 114.17 37.2412 113.617C37.4294 113.058 37.7005 112.574 38.0547 112.164C38.4144 111.749 38.8516 111.428 39.3662 111.201C39.8864 110.969 40.473 110.853 41.126 110.853C41.7845 110.853 42.3711 110.969 42.8857 111.201C43.4059 111.428 43.8459 111.749 44.2056 112.164C44.5653 112.574 44.8392 113.058 45.0273 113.617C45.2155 114.17 45.3096 114.771 45.3096 115.418V115.609C45.3096 116.256 45.2155 116.857 45.0273 117.41C44.8392 117.964 44.5653 118.448 44.2056 118.863C43.8459 119.272 43.4087 119.593 42.894 119.826C42.3794 120.053 41.7956 120.166 41.1426 120.166C40.484 120.166 39.8947 120.053 39.3745 119.826C38.8599 119.593 38.4227 119.272 38.063 118.863C37.7033 118.448 37.4294 117.964 37.2412 117.41C37.0531 116.857 36.959 116.256 36.959 115.609ZM38.9595 115.418V115.609C38.9595 116.013 39.001 116.395 39.084 116.754C39.167 117.114 39.297 117.43 39.4741 117.701C39.6512 117.972 39.8781 118.185 40.1548 118.34C40.4315 118.495 40.7607 118.572 41.1426 118.572C41.5133 118.572 41.8343 118.495 42.1055 118.34C42.3822 118.185 42.609 117.972 42.7861 117.701C42.9632 117.43 43.0933 117.114 43.1763 116.754C43.2648 116.395 43.3091 116.013 43.3091 115.609V115.418C43.3091 115.02 43.2648 114.643 43.1763 114.289C43.0933 113.929 42.9604 113.611 42.7778 113.334C42.6007 113.058 42.3739 112.842 42.0972 112.687C41.826 112.527 41.5023 112.446 41.126 112.446C40.7497 112.446 40.4232 112.527 40.1465 112.687C39.8753 112.842 39.6512 113.058 39.4741 113.334C39.297 113.611 39.167 113.929 39.084 114.289C39.001 114.643 38.9595 115.02 38.9595 115.418ZM48.9951 112.729V120H46.9946V111.019H48.9038L48.9951 112.729ZM51.7427 110.96L51.7261 112.82C51.6043 112.798 51.4715 112.781 51.3276 112.77C51.1893 112.759 51.0509 112.753 50.9126 112.753C50.5695 112.753 50.2679 112.803 50.0078 112.903C49.7477 112.997 49.5291 113.135 49.3521 113.318C49.1805 113.495 49.0477 113.711 48.9536 113.965C48.8595 114.22 48.8042 114.505 48.7876 114.82L48.3311 114.854C48.3311 114.289 48.3864 113.766 48.4971 113.285C48.6077 112.803 48.7738 112.38 48.9951 112.015C49.222 111.649 49.5042 111.364 49.8418 111.16C50.1849 110.955 50.5806 110.853 51.0288 110.853C51.1506 110.853 51.2806 110.864 51.4189 110.886C51.5628 110.908 51.6707 110.933 51.7427 110.96ZM58.3086 118.141V107.25H60.3174V120H58.4995L58.3086 118.141ZM52.4648 115.609V115.435C52.4648 114.754 52.5451 114.134 52.7056 113.575C52.866 113.011 53.0985 112.527 53.4028 112.123C53.7072 111.713 54.078 111.4 54.5151 111.185C54.9523 110.963 55.4448 110.853 55.9927 110.853C56.535 110.853 57.0109 110.958 57.4204 111.168C57.8299 111.378 58.1785 111.68 58.4663 112.073C58.7541 112.46 58.9837 112.925 59.1553 113.467C59.3268 114.004 59.4486 114.602 59.5205 115.26V115.816C59.4486 116.458 59.3268 117.045 59.1553 117.576C58.9837 118.107 58.7541 118.567 58.4663 118.954C58.1785 119.341 57.8271 119.64 57.4121 119.851C57.0026 120.061 56.5239 120.166 55.9761 120.166C55.4338 120.166 54.944 120.053 54.5068 119.826C54.0752 119.599 53.7072 119.281 53.4028 118.871C53.0985 118.462 52.866 117.98 52.7056 117.427C52.5451 116.868 52.4648 116.262 52.4648 115.609ZM54.4653 115.435V115.609C54.4653 116.018 54.5013 116.4 54.5732 116.754C54.6507 117.109 54.7697 117.421 54.9302 117.692C55.0907 117.958 55.2982 118.168 55.5527 118.323C55.8128 118.473 56.1227 118.547 56.4824 118.547C56.9362 118.547 57.3097 118.448 57.603 118.249C57.8963 118.049 58.126 117.781 58.292 117.443C58.4635 117.1 58.5798 116.718 58.6406 116.298V114.795C58.6074 114.469 58.5382 114.165 58.4331 113.882C58.3335 113.6 58.1979 113.354 58.0264 113.144C57.8548 112.928 57.6418 112.762 57.3872 112.646C57.1382 112.524 56.8421 112.463 56.499 112.463C56.1338 112.463 55.8239 112.54 55.5693 112.695C55.3148 112.85 55.1045 113.063 54.9385 113.334C54.778 113.606 54.659 113.921 54.5815 114.281C54.5041 114.64 54.4653 115.025 54.4653 115.435ZM64.5508 111.019V120H62.542V111.019H64.5508ZM62.4092 108.661C62.4092 108.357 62.5088 108.105 62.708 107.906C62.9128 107.701 63.195 107.599 63.5547 107.599C63.9089 107.599 64.1883 107.701 64.3931 107.906C64.5978 108.105 64.7002 108.357 64.7002 108.661C64.7002 108.96 64.5978 109.209 64.3931 109.408C64.1883 109.607 63.9089 109.707 63.5547 109.707C63.195 109.707 62.9128 109.607 62.708 109.408C62.5088 109.209 62.4092 108.96 62.4092 108.661ZM72.146 117.883V111.019H74.1548V120H72.2622L72.146 117.883ZM72.4282 116.016L73.1006 115.999C73.1006 116.602 73.0342 117.158 72.9014 117.667C72.7686 118.171 72.5638 118.611 72.2871 118.987C72.0104 119.358 71.6562 119.649 71.2246 119.859C70.793 120.064 70.2756 120.166 69.6724 120.166C69.2352 120.166 68.834 120.102 68.4688 119.975C68.1035 119.848 67.7881 119.651 67.5225 119.386C67.2624 119.12 67.0604 118.774 66.9165 118.348C66.7726 117.922 66.7007 117.413 66.7007 116.821V111.019H68.7012V116.837C68.7012 117.164 68.7399 117.438 68.8174 117.659C68.8949 117.875 69 118.049 69.1328 118.182C69.2656 118.315 69.4206 118.409 69.5977 118.464C69.7747 118.52 69.9629 118.547 70.1621 118.547C70.7321 118.547 71.1803 118.437 71.5068 118.215C71.8389 117.988 72.0741 117.684 72.2124 117.302C72.3563 116.92 72.4282 116.492 72.4282 116.016ZM81.6089 117.883V111.019H83.6177V120H81.7251L81.6089 117.883ZM81.8911 116.016L82.5635 115.999C82.5635 116.602 82.4971 117.158 82.3643 117.667C82.2314 118.171 82.0267 118.611 81.75 118.987C81.4733 119.358 81.1191 119.649 80.6875 119.859C80.2559 120.064 79.7384 120.166 79.1353 120.166C78.6981 120.166 78.2969 120.102 77.9316 119.975C77.5664 119.848 77.251 119.651 76.9854 119.386C76.7253 119.12 76.5233 118.774 76.3794 118.348C76.2355 117.922 76.1636 117.413 76.1636 116.821V111.019H78.1641V116.837C78.1641 117.164 78.2028 117.438 78.2803 117.659C78.3577 117.875 78.4629 118.049 78.5957 118.182C78.7285 118.315 78.8835 118.409 79.0605 118.464C79.2376 118.52 79.4258 118.547 79.625 118.547C80.195 118.547 80.6432 118.437 80.9697 118.215C81.3018 117.988 81.5369 117.684 81.6753 117.302C81.8192 116.92 81.8911 116.492 81.8911 116.016ZM91.1465 118.141V107.25H93.1553V120H91.3374L91.1465 118.141ZM85.3027 115.609V115.435C85.3027 114.754 85.383 114.134 85.5435 113.575C85.7039 113.011 85.9364 112.527 86.2407 112.123C86.5451 111.713 86.9159 111.4 87.353 111.185C87.7902 110.963 88.2827 110.853 88.8306 110.853C89.3729 110.853 89.8488 110.958 90.2583 111.168C90.6678 111.378 91.0164 111.68 91.3042 112.073C91.592 112.46 91.8216 112.925 91.9932 113.467C92.1647 114.004 92.2865 114.602 92.3584 115.26V115.816C92.2865 116.458 92.1647 117.045 91.9932 117.576C91.8216 118.107 91.592 118.567 91.3042 118.954C91.0164 119.341 90.665 119.64 90.25 119.851C89.8405 120.061 89.3618 120.166 88.814 120.166C88.2716 120.166 87.7819 120.053 87.3447 119.826C86.9131 119.599 86.5451 119.281 86.2407 118.871C85.9364 118.462 85.7039 117.98 85.5435 117.427C85.383 116.868 85.3027 116.262 85.3027 115.609ZM87.3032 115.435V115.609C87.3032 116.018 87.3392 116.4 87.4111 116.754C87.4886 117.109 87.6076 117.421 87.7681 117.692C87.9285 117.958 88.1361 118.168 88.3906 118.323C88.6507 118.473 88.9606 118.547 89.3203 118.547C89.7741 118.547 90.1476 118.448 90.4409 118.249C90.7342 118.049 90.9639 117.781 91.1299 117.443C91.3014 117.1 91.4176 116.718 91.4785 116.298V114.795C91.4453 114.469 91.3761 114.165 91.271 113.882C91.1714 113.6 91.0358 113.354 90.8643 113.144C90.6927 112.928 90.4797 112.762 90.2251 112.646C89.9761 112.524 89.68 112.463 89.3369 112.463C88.9717 112.463 88.6618 112.54 88.4072 112.695C88.1527 112.85 87.9424 113.063 87.7764 113.334C87.6159 113.606 87.4969 113.921 87.4194 114.281C87.342 114.64 87.3032 115.025 87.3032 115.435ZM97.3887 111.019V120H95.3799V111.019H97.3887ZM95.2471 108.661C95.2471 108.357 95.3467 108.105 95.5459 107.906C95.7507 107.701 96.0329 107.599 96.3926 107.599C96.7467 107.599 97.0262 107.701 97.231 107.906C97.4357 108.105 97.5381 108.357 97.5381 108.661C97.5381 108.96 97.4357 109.209 97.231 109.408C97.0262 109.607 96.7467 109.707 96.3926 109.707C96.0329 109.707 95.7507 109.607 95.5459 109.408C95.3467 109.209 95.2471 108.96 95.2471 108.661ZM104.619 117.568C104.619 117.369 104.569 117.189 104.469 117.028C104.37 116.862 104.179 116.713 103.896 116.58C103.62 116.447 103.21 116.326 102.668 116.215C102.192 116.11 101.755 115.985 101.356 115.841C100.964 115.692 100.626 115.512 100.344 115.302C100.062 115.091 99.8429 114.842 99.688 114.555C99.533 114.267 99.4556 113.935 99.4556 113.559C99.4556 113.193 99.5358 112.847 99.6963 112.521C99.8568 112.194 100.086 111.907 100.385 111.658C100.684 111.409 101.047 111.212 101.473 111.068C101.904 110.924 102.386 110.853 102.917 110.853C103.67 110.853 104.314 110.98 104.851 111.234C105.393 111.483 105.808 111.824 106.096 112.255C106.384 112.681 106.528 113.163 106.528 113.7H104.527C104.527 113.462 104.466 113.24 104.345 113.036C104.229 112.825 104.051 112.657 103.813 112.529C103.576 112.396 103.277 112.33 102.917 112.33C102.574 112.33 102.289 112.385 102.062 112.496C101.841 112.601 101.675 112.74 101.564 112.911C101.459 113.083 101.406 113.271 101.406 113.476C101.406 113.625 101.434 113.761 101.489 113.882C101.55 113.999 101.65 114.106 101.788 114.206C101.926 114.3 102.115 114.389 102.353 114.472C102.596 114.555 102.9 114.635 103.266 114.712C103.952 114.856 104.541 115.042 105.034 115.269C105.532 115.49 105.914 115.778 106.179 116.132C106.445 116.48 106.578 116.923 106.578 117.46C106.578 117.858 106.492 118.224 106.32 118.556C106.154 118.882 105.911 119.167 105.59 119.411C105.269 119.649 104.884 119.834 104.436 119.967C103.993 120.1 103.495 120.166 102.942 120.166C102.128 120.166 101.439 120.022 100.875 119.734C100.311 119.441 99.8817 119.068 99.5884 118.614C99.3006 118.154 99.1567 117.679 99.1567 117.186H101.091C101.113 117.557 101.215 117.853 101.398 118.074C101.586 118.29 101.819 118.448 102.095 118.547C102.377 118.641 102.668 118.688 102.967 118.688C103.326 118.688 103.628 118.641 103.872 118.547C104.115 118.448 104.3 118.315 104.428 118.149C104.555 117.977 104.619 117.784 104.619 117.568ZM112.289 120.166C111.625 120.166 111.024 120.058 110.487 119.842C109.956 119.621 109.502 119.314 109.126 118.921C108.755 118.528 108.47 118.066 108.271 117.535C108.072 117.003 107.972 116.431 107.972 115.816V115.484C107.972 114.782 108.075 114.145 108.279 113.575C108.484 113.005 108.769 112.518 109.134 112.114C109.5 111.705 109.931 111.392 110.429 111.176C110.927 110.96 111.467 110.853 112.048 110.853C112.69 110.853 113.251 110.96 113.733 111.176C114.214 111.392 114.613 111.696 114.928 112.089C115.249 112.477 115.487 112.939 115.642 113.476C115.803 114.012 115.883 114.604 115.883 115.252V116.107H108.943V114.671H113.907V114.513C113.896 114.153 113.824 113.816 113.691 113.5C113.564 113.185 113.368 112.931 113.102 112.737C112.836 112.543 112.482 112.446 112.04 112.446C111.708 112.446 111.411 112.518 111.151 112.662C110.897 112.8 110.684 113.002 110.512 113.268C110.341 113.534 110.208 113.855 110.114 114.231C110.025 114.602 109.981 115.02 109.981 115.484V115.816C109.981 116.209 110.034 116.575 110.139 116.912C110.249 117.244 110.41 117.535 110.62 117.784C110.83 118.033 111.085 118.229 111.384 118.373C111.683 118.511 112.023 118.581 112.405 118.581C112.886 118.581 113.315 118.484 113.691 118.29C114.068 118.096 114.394 117.822 114.671 117.468L115.725 118.489C115.531 118.771 115.28 119.043 114.97 119.303C114.66 119.557 114.281 119.765 113.833 119.925C113.39 120.086 112.875 120.166 112.289 120.166ZM119.585 111.019V120H117.576V111.019H119.585ZM117.443 108.661C117.443 108.357 117.543 108.105 117.742 107.906C117.947 107.701 118.229 107.599 118.589 107.599C118.943 107.599 119.222 107.701 119.427 107.906C119.632 108.105 119.734 108.357 119.734 108.661C119.734 108.96 119.632 109.209 119.427 109.408C119.222 109.607 118.943 109.707 118.589 109.707C118.229 109.707 117.947 109.607 117.742 109.408C117.543 109.209 117.443 108.96 117.443 108.661ZM127.255 118.141V107.25H129.264V120H127.446L127.255 118.141ZM121.411 115.609V115.435C121.411 114.754 121.491 114.134 121.652 113.575C121.812 113.011 122.045 112.527 122.349 112.123C122.653 111.713 123.024 111.4 123.461 111.185C123.899 110.963 124.391 110.853 124.939 110.853C125.481 110.853 125.957 110.958 126.367 111.168C126.776 111.378 127.125 111.68 127.413 112.073C127.7 112.46 127.93 112.925 128.102 113.467C128.273 114.004 128.395 114.602 128.467 115.26V115.816C128.395 116.458 128.273 117.045 128.102 117.576C127.93 118.107 127.7 118.567 127.413 118.954C127.125 119.341 126.773 119.64 126.358 119.851C125.949 120.061 125.47 120.166 124.922 120.166C124.38 120.166 123.89 120.053 123.453 119.826C123.021 119.599 122.653 119.281 122.349 118.871C122.045 118.462 121.812 117.98 121.652 117.427C121.491 116.868 121.411 116.262 121.411 115.609ZM123.412 115.435V115.609C123.412 116.018 123.448 116.4 123.52 116.754C123.597 117.109 123.716 117.421 123.876 117.692C124.037 117.958 124.244 118.168 124.499 118.323C124.759 118.473 125.069 118.547 125.429 118.547C125.882 118.547 126.256 118.448 126.549 118.249C126.843 118.049 127.072 117.781 127.238 117.443C127.41 117.1 127.526 116.718 127.587 116.298V114.795C127.554 114.469 127.485 114.165 127.379 113.882C127.28 113.6 127.144 113.354 126.973 113.144C126.801 112.928 126.588 112.762 126.333 112.646C126.084 112.524 125.788 112.463 125.445 112.463C125.08 112.463 124.77 112.54 124.516 112.695C124.261 112.85 124.051 113.063 123.885 113.334C123.724 113.606 123.605 113.921 123.528 114.281C123.45 114.64 123.412 115.025 123.412 115.435ZM140.627 117.568C140.627 117.369 140.578 117.189 140.478 117.028C140.378 116.862 140.188 116.713 139.905 116.58C139.629 116.447 139.219 116.326 138.677 116.215C138.201 116.11 137.764 115.985 137.365 115.841C136.972 115.692 136.635 115.512 136.353 115.302C136.07 115.091 135.852 114.842 135.697 114.555C135.542 114.267 135.464 113.935 135.464 113.559C135.464 113.193 135.545 112.847 135.705 112.521C135.866 112.194 136.095 111.907 136.394 111.658C136.693 111.409 137.055 111.212 137.481 111.068C137.913 110.924 138.395 110.853 138.926 110.853C139.678 110.853 140.323 110.98 140.86 111.234C141.402 111.483 141.817 111.824 142.105 112.255C142.393 112.681 142.537 113.163 142.537 113.7H140.536C140.536 113.462 140.475 113.24 140.354 113.036C140.237 112.825 140.06 112.657 139.822 112.529C139.584 112.396 139.285 112.33 138.926 112.33C138.583 112.33 138.298 112.385 138.071 112.496C137.849 112.601 137.683 112.74 137.573 112.911C137.468 113.083 137.415 113.271 137.415 113.476C137.415 113.625 137.443 113.761 137.498 113.882C137.559 113.999 137.659 114.106 137.797 114.206C137.935 114.3 138.123 114.389 138.361 114.472C138.605 114.555 138.909 114.635 139.274 114.712C139.961 114.856 140.55 115.042 141.042 115.269C141.541 115.49 141.922 115.778 142.188 116.132C142.454 116.48 142.586 116.923 142.586 117.46C142.586 117.858 142.501 118.224 142.329 118.556C142.163 118.882 141.92 119.167 141.599 119.411C141.278 119.649 140.893 119.834 140.445 119.967C140.002 120.1 139.504 120.166 138.951 120.166C138.137 120.166 137.448 120.022 136.884 119.734C136.319 119.441 135.89 119.068 135.597 118.614C135.309 118.154 135.166 117.679 135.166 117.186H137.1C137.122 117.557 137.224 117.853 137.407 118.074C137.595 118.29 137.827 118.448 138.104 118.547C138.386 118.641 138.677 118.688 138.976 118.688C139.335 118.688 139.637 118.641 139.88 118.547C140.124 118.448 140.309 118.315 140.437 118.149C140.564 117.977 140.627 117.784 140.627 117.568ZM149.401 118.199V113.916C149.401 113.595 149.343 113.318 149.227 113.085C149.111 112.853 148.934 112.673 148.696 112.546C148.463 112.419 148.17 112.355 147.816 112.355C147.489 112.355 147.207 112.41 146.969 112.521C146.731 112.632 146.546 112.781 146.413 112.969C146.28 113.157 146.214 113.37 146.214 113.608H144.222C144.222 113.254 144.307 112.911 144.479 112.579C144.651 112.247 144.9 111.951 145.226 111.691C145.553 111.431 145.943 111.226 146.396 111.077C146.85 110.927 147.359 110.853 147.924 110.853C148.599 110.853 149.197 110.966 149.717 111.193C150.243 111.42 150.655 111.763 150.954 112.222C151.258 112.676 151.41 113.246 151.41 113.932V117.925C151.41 118.334 151.438 118.702 151.493 119.029C151.554 119.35 151.64 119.629 151.75 119.867V120H149.7C149.606 119.784 149.531 119.51 149.476 119.178C149.426 118.841 149.401 118.514 149.401 118.199ZM149.692 114.538L149.708 115.775H148.272C147.902 115.775 147.575 115.811 147.293 115.883C147.011 115.949 146.776 116.049 146.587 116.182C146.399 116.314 146.258 116.475 146.164 116.663C146.07 116.851 146.023 117.064 146.023 117.302C146.023 117.54 146.078 117.759 146.189 117.958C146.3 118.152 146.46 118.304 146.67 118.415C146.886 118.525 147.146 118.581 147.451 118.581C147.86 118.581 148.217 118.498 148.521 118.332C148.831 118.16 149.075 117.952 149.252 117.709C149.429 117.46 149.523 117.225 149.534 117.003L150.182 117.892C150.115 118.118 150.002 118.362 149.841 118.622C149.681 118.882 149.471 119.131 149.21 119.369C148.956 119.602 148.649 119.792 148.289 119.942C147.935 120.091 147.525 120.166 147.061 120.166C146.474 120.166 145.951 120.05 145.492 119.817C145.032 119.579 144.673 119.261 144.413 118.863C144.153 118.459 144.022 118.002 144.022 117.493C144.022 117.017 144.111 116.597 144.288 116.231C144.471 115.861 144.736 115.551 145.085 115.302C145.439 115.053 145.871 114.865 146.38 114.737C146.889 114.604 147.47 114.538 148.123 114.538H149.692ZM158.565 118.199V113.916C158.565 113.595 158.507 113.318 158.391 113.085C158.275 112.853 158.098 112.673 157.86 112.546C157.627 112.419 157.334 112.355 156.98 112.355C156.653 112.355 156.371 112.41 156.133 112.521C155.895 112.632 155.71 112.781 155.577 112.969C155.444 113.157 155.378 113.37 155.378 113.608H153.386C153.386 113.254 153.472 112.911 153.643 112.579C153.815 112.247 154.064 111.951 154.39 111.691C154.717 111.431 155.107 111.226 155.561 111.077C156.014 110.927 156.523 110.853 157.088 110.853C157.763 110.853 158.361 110.966 158.881 111.193C159.407 111.42 159.819 111.763 160.118 112.222C160.422 112.676 160.574 113.246 160.574 113.932V117.925C160.574 118.334 160.602 118.702 160.657 119.029C160.718 119.35 160.804 119.629 160.915 119.867V120H158.864C158.77 119.784 158.695 119.51 158.64 119.178C158.59 118.841 158.565 118.514 158.565 118.199ZM158.856 114.538L158.873 115.775H157.437C157.066 115.775 156.739 115.811 156.457 115.883C156.175 115.949 155.94 116.049 155.751 116.182C155.563 116.314 155.422 116.475 155.328 116.663C155.234 116.851 155.187 117.064 155.187 117.302C155.187 117.54 155.242 117.759 155.353 117.958C155.464 118.152 155.624 118.304 155.834 118.415C156.05 118.525 156.31 118.581 156.615 118.581C157.024 118.581 157.381 118.498 157.686 118.332C157.995 118.16 158.239 117.952 158.416 117.709C158.593 117.46 158.687 117.225 158.698 117.003L159.346 117.892C159.279 118.118 159.166 118.362 159.005 118.622C158.845 118.882 158.635 119.131 158.375 119.369C158.12 119.602 157.813 119.792 157.453 119.942C157.099 120.091 156.689 120.166 156.225 120.166C155.638 120.166 155.115 120.05 154.656 119.817C154.196 119.579 153.837 119.261 153.577 118.863C153.317 118.459 153.187 118.002 153.187 117.493C153.187 117.017 153.275 116.597 153.452 116.231C153.635 115.861 153.9 115.551 154.249 115.302C154.603 115.053 155.035 114.865 155.544 114.737C156.053 114.604 156.634 114.538 157.287 114.538H158.856ZM168.145 118.141V107.25H170.153V120H168.335L168.145 118.141ZM162.301 115.609V115.435C162.301 114.754 162.381 114.134 162.542 113.575C162.702 113.011 162.934 112.527 163.239 112.123C163.543 111.713 163.914 111.4 164.351 111.185C164.788 110.963 165.281 110.853 165.829 110.853C166.371 110.853 166.847 110.958 167.256 111.168C167.666 111.378 168.014 111.68 168.302 112.073C168.59 112.46 168.82 112.925 168.991 113.467C169.163 114.004 169.285 114.602 169.356 115.26V115.816C169.285 116.458 169.163 117.045 168.991 117.576C168.82 118.107 168.59 118.567 168.302 118.954C168.014 119.341 167.663 119.64 167.248 119.851C166.839 120.061 166.36 120.166 165.812 120.166C165.27 120.166 164.78 120.053 164.343 119.826C163.911 119.599 163.543 119.281 163.239 118.871C162.934 118.462 162.702 117.98 162.542 117.427C162.381 116.868 162.301 116.262 162.301 115.609ZM164.301 115.435V115.609C164.301 116.018 164.337 116.4 164.409 116.754C164.487 117.109 164.606 117.421 164.766 117.692C164.927 117.958 165.134 118.168 165.389 118.323C165.649 118.473 165.959 118.547 166.318 118.547C166.772 118.547 167.146 118.448 167.439 118.249C167.732 118.049 167.962 117.781 168.128 117.443C168.299 117.1 168.416 116.718 168.477 116.298V114.795C168.443 114.469 168.374 114.165 168.269 113.882C168.169 113.6 168.034 113.354 167.862 113.144C167.691 112.928 167.478 112.762 167.223 112.646C166.974 112.524 166.678 112.463 166.335 112.463C165.97 112.463 165.66 112.54 165.405 112.695C165.151 112.85 164.94 113.063 164.774 113.334C164.614 113.606 164.495 113.921 164.417 114.281C164.34 114.64 164.301 115.025 164.301 115.435ZM178.62 111.019V120H176.611V111.019H178.62ZM176.479 108.661C176.479 108.357 176.578 108.105 176.777 107.906C176.982 107.701 177.264 107.599 177.624 107.599C177.978 107.599 178.258 107.701 178.462 107.906C178.667 108.105 178.77 108.357 178.77 108.661C178.77 108.96 178.667 109.209 178.462 109.408C178.258 109.607 177.978 109.707 177.624 109.707C177.264 109.707 176.982 109.607 176.777 109.408C176.578 109.209 176.479 108.96 176.479 108.661ZM182.829 107.25V120H180.82V107.25H182.829ZM188.407 111.019L184.497 115.352L182.355 117.543L181.833 115.85L183.451 113.849L185.991 111.019H188.407ZM186.423 120L183.509 115.783L184.771 114.38L188.739 120H186.423ZM191.694 107.25V120H189.685V107.25H191.694ZM197.272 111.019L193.362 115.352L191.221 117.543L190.698 115.85L192.316 113.849L194.856 111.019H197.272ZM195.288 120L192.375 115.783L193.636 114.38L197.604 120H195.288ZM203.605 118.199V113.916C203.605 113.595 203.547 113.318 203.431 113.085C203.315 112.853 203.138 112.673 202.9 112.546C202.667 112.419 202.374 112.355 202.02 112.355C201.694 112.355 201.411 112.41 201.173 112.521C200.935 112.632 200.75 112.781 200.617 112.969C200.484 113.157 200.418 113.37 200.418 113.608H198.426C198.426 113.254 198.512 112.911 198.683 112.579C198.855 112.247 199.104 111.951 199.43 111.691C199.757 111.431 200.147 111.226 200.601 111.077C201.054 110.927 201.563 110.853 202.128 110.853C202.803 110.853 203.401 110.966 203.921 111.193C204.447 111.42 204.859 111.763 205.158 112.222C205.462 112.676 205.614 113.246 205.614 113.932V117.925C205.614 118.334 205.642 118.702 205.697 119.029C205.758 119.35 205.844 119.629 205.955 119.867V120H203.904C203.81 119.784 203.736 119.51 203.68 119.178C203.63 118.841 203.605 118.514 203.605 118.199ZM203.896 114.538L203.913 115.775H202.477C202.106 115.775 201.779 115.811 201.497 115.883C201.215 115.949 200.98 116.049 200.792 116.182C200.603 116.314 200.462 116.475 200.368 116.663C200.274 116.851 200.227 117.064 200.227 117.302C200.227 117.54 200.282 117.759 200.393 117.958C200.504 118.152 200.664 118.304 200.875 118.415C201.09 118.525 201.35 118.581 201.655 118.581C202.064 118.581 202.421 118.498 202.726 118.332C203.035 118.16 203.279 117.952 203.456 117.709C203.633 117.46 203.727 117.225 203.738 117.003L204.386 117.892C204.319 118.118 204.206 118.362 204.045 118.622C203.885 118.882 203.675 119.131 203.415 119.369C203.16 119.602 202.853 119.792 202.493 119.942C202.139 120.091 201.729 120.166 201.265 120.166C200.678 120.166 200.155 120.05 199.696 119.817C199.236 119.579 198.877 119.261 198.617 118.863C198.357 118.459 198.227 118.002 198.227 117.493C198.227 117.017 198.315 116.597 198.492 116.231C198.675 115.861 198.94 115.551 199.289 115.302C199.643 115.053 200.075 114.865 200.584 114.737C201.093 114.604 201.674 114.538 202.327 114.538H203.896ZM214.081 107.25V120H212.072V107.25H214.081ZM221.676 117.883V111.019H223.685V120H221.792L221.676 117.883ZM221.958 116.016L222.631 115.999C222.631 116.602 222.564 117.158 222.432 117.667C222.299 118.171 222.094 118.611 221.817 118.987C221.541 119.358 221.187 119.649 220.755 119.859C220.323 120.064 219.806 120.166 219.203 120.166C218.765 120.166 218.364 120.102 217.999 119.975C217.634 119.848 217.318 119.651 217.053 119.386C216.793 119.12 216.591 118.774 216.447 118.348C216.303 117.922 216.231 117.413 216.231 116.821V111.019H218.231V116.837C218.231 117.164 218.27 117.438 218.348 117.659C218.425 117.875 218.53 118.049 218.663 118.182C218.796 118.315 218.951 118.409 219.128 118.464C219.305 118.52 219.493 118.547 219.692 118.547C220.262 118.547 220.711 118.437 221.037 118.215C221.369 117.988 221.604 117.684 221.743 117.302C221.887 116.92 221.958 116.492 221.958 116.016ZM231.488 111.019H233.306V119.751C233.306 120.559 233.134 121.245 232.791 121.81C232.448 122.374 231.969 122.803 231.355 123.096C230.741 123.395 230.03 123.544 229.222 123.544C228.879 123.544 228.497 123.495 228.076 123.395C227.661 123.295 227.257 123.135 226.864 122.914C226.477 122.698 226.153 122.413 225.893 122.059L226.831 120.88C227.152 121.262 227.506 121.541 227.894 121.718C228.281 121.895 228.688 121.984 229.114 121.984C229.573 121.984 229.963 121.898 230.284 121.727C230.611 121.561 230.862 121.314 231.04 120.988C231.217 120.661 231.305 120.263 231.305 119.792V113.052L231.488 111.019ZM225.387 115.609V115.435C225.387 114.754 225.47 114.134 225.636 113.575C225.802 113.011 226.04 112.527 226.35 112.123C226.66 111.713 227.036 111.4 227.479 111.185C227.921 110.963 228.422 110.853 228.981 110.853C229.562 110.853 230.057 110.958 230.467 111.168C230.882 111.378 231.228 111.68 231.504 112.073C231.781 112.46 231.997 112.925 232.152 113.467C232.312 114.004 232.431 114.602 232.509 115.26V115.816C232.437 116.458 232.315 117.045 232.144 117.576C231.972 118.107 231.745 118.567 231.463 118.954C231.181 119.341 230.832 119.64 230.417 119.851C230.007 120.061 229.523 120.166 228.964 120.166C228.417 120.166 227.921 120.053 227.479 119.826C227.041 119.599 226.665 119.281 226.35 118.871C226.04 118.462 225.802 117.98 225.636 117.427C225.47 116.868 225.387 116.262 225.387 115.609ZM227.387 115.435V115.609C227.387 116.018 227.426 116.4 227.503 116.754C227.586 117.109 227.711 117.421 227.877 117.692C228.049 117.958 228.264 118.168 228.524 118.323C228.79 118.473 229.103 118.547 229.462 118.547C229.933 118.547 230.317 118.448 230.616 118.249C230.921 118.049 231.153 117.781 231.313 117.443C231.479 117.1 231.596 116.718 231.662 116.298V114.795C231.629 114.469 231.56 114.165 231.455 113.882C231.355 113.6 231.219 113.354 231.048 113.144C230.876 112.928 230.66 112.762 230.4 112.646C230.14 112.524 229.833 112.463 229.479 112.463C229.119 112.463 228.807 112.54 228.541 112.695C228.275 112.85 228.057 113.063 227.885 113.334C227.719 113.606 227.595 113.921 227.512 114.281C227.429 114.64 227.387 115.025 227.387 115.435ZM239.34 120.166C238.676 120.166 238.076 120.058 237.539 119.842C237.008 119.621 236.554 119.314 236.178 118.921C235.807 118.528 235.522 118.066 235.323 117.535C235.124 117.003 235.024 116.431 235.024 115.816V115.484C235.024 114.782 235.126 114.145 235.331 113.575C235.536 113.005 235.821 112.518 236.186 112.114C236.551 111.705 236.983 111.392 237.481 111.176C237.979 110.96 238.519 110.853 239.1 110.853C239.742 110.853 240.303 110.96 240.785 111.176C241.266 111.392 241.665 111.696 241.98 112.089C242.301 112.477 242.539 112.939 242.694 113.476C242.854 114.012 242.935 114.604 242.935 115.252V116.107H235.995V114.671H240.959V114.513C240.948 114.153 240.876 113.816 240.743 113.5C240.616 113.185 240.419 112.931 240.154 112.737C239.888 112.543 239.534 112.446 239.091 112.446C238.759 112.446 238.463 112.518 238.203 112.662C237.949 112.8 237.736 113.002 237.564 113.268C237.392 113.534 237.26 113.855 237.166 114.231C237.077 114.602 237.033 115.02 237.033 115.484V115.816C237.033 116.209 237.085 116.575 237.19 116.912C237.301 117.244 237.462 117.535 237.672 117.784C237.882 118.033 238.137 118.229 238.436 118.373C238.734 118.511 239.075 118.581 239.457 118.581C239.938 118.581 240.367 118.484 240.743 118.29C241.119 118.096 241.446 117.822 241.723 117.468L242.777 118.489C242.583 118.771 242.331 119.043 242.021 119.303C241.712 119.557 241.333 119.765 240.884 119.925C240.442 120.086 239.927 120.166 239.34 120.166ZM249.974 118.141V107.25H251.982V120H250.165L249.974 118.141ZM244.13 115.609V115.435C244.13 114.754 244.21 114.134 244.371 113.575C244.531 113.011 244.764 112.527 245.068 112.123C245.372 111.713 245.743 111.4 246.18 111.185C246.617 110.963 247.11 110.853 247.658 110.853C248.2 110.853 248.676 110.958 249.085 111.168C249.495 111.378 249.844 111.68 250.131 112.073C250.419 112.46 250.649 112.925 250.82 113.467C250.992 114.004 251.114 114.602 251.186 115.26V115.816C251.114 116.458 250.992 117.045 250.82 117.576C250.649 118.107 250.419 118.567 250.131 118.954C249.844 119.341 249.492 119.64 249.077 119.851C248.668 120.061 248.189 120.166 247.641 120.166C247.099 120.166 246.609 120.053 246.172 119.826C245.74 119.599 245.372 119.281 245.068 118.871C244.764 118.462 244.531 117.98 244.371 117.427C244.21 116.868 244.13 116.262 244.13 115.609ZM246.13 115.435V115.609C246.13 116.018 246.166 116.4 246.238 116.754C246.316 117.109 246.435 117.421 246.595 117.692C246.756 117.958 246.963 118.168 247.218 118.323C247.478 118.473 247.788 118.547 248.147 118.547C248.601 118.547 248.975 118.448 249.268 118.249C249.561 118.049 249.791 117.781 249.957 117.443C250.129 117.1 250.245 116.718 250.306 116.298V114.795C250.272 114.469 250.203 114.165 250.098 113.882C249.999 113.6 249.863 113.354 249.691 113.144C249.52 112.928 249.307 112.762 249.052 112.646C248.803 112.524 248.507 112.463 248.164 112.463C247.799 112.463 247.489 112.54 247.234 112.695C246.98 112.85 246.77 113.063 246.604 113.334C246.443 113.606 246.324 113.921 246.247 114.281C246.169 114.64 246.13 115.025 246.13 115.435ZM259.138 118.199V113.916C259.138 113.595 259.08 113.318 258.963 113.085C258.847 112.853 258.67 112.673 258.432 112.546C258.2 112.419 257.906 112.355 257.552 112.355C257.226 112.355 256.944 112.41 256.706 112.521C256.468 112.632 256.282 112.781 256.149 112.969C256.017 113.157 255.95 113.37 255.95 113.608H253.958C253.958 113.254 254.044 112.911 254.215 112.579C254.387 112.247 254.636 111.951 254.962 111.691C255.289 111.431 255.679 111.226 256.133 111.077C256.587 110.927 257.096 110.853 257.66 110.853C258.335 110.853 258.933 110.966 259.453 111.193C259.979 111.42 260.391 111.763 260.69 112.222C260.994 112.676 261.146 113.246 261.146 113.932V117.925C261.146 118.334 261.174 118.702 261.229 119.029C261.29 119.35 261.376 119.629 261.487 119.867V120H259.437C259.342 119.784 259.268 119.51 259.212 119.178C259.163 118.841 259.138 118.514 259.138 118.199ZM259.428 114.538L259.445 115.775H258.009C257.638 115.775 257.312 115.811 257.029 115.883C256.747 115.949 256.512 116.049 256.324 116.182C256.136 116.314 255.994 116.475 255.9 116.663C255.806 116.851 255.759 117.064 255.759 117.302C255.759 117.54 255.815 117.759 255.925 117.958C256.036 118.152 256.196 118.304 256.407 118.415C256.623 118.525 256.883 118.581 257.187 118.581C257.597 118.581 257.953 118.498 258.258 118.332C258.568 118.16 258.811 117.952 258.988 117.709C259.165 117.46 259.259 117.225 259.271 117.003L259.918 117.892C259.852 118.118 259.738 118.362 259.578 118.622C259.417 118.882 259.207 119.131 258.947 119.369C258.692 119.602 258.385 119.792 258.025 119.942C257.671 120.091 257.262 120.166 256.797 120.166C256.21 120.166 255.687 120.05 255.228 119.817C254.769 119.579 254.409 119.261 254.149 118.863C253.889 118.459 253.759 118.002 253.759 117.493C253.759 117.017 253.847 116.597 254.024 116.231C254.207 115.861 254.473 115.551 254.821 115.302C255.175 115.053 255.607 114.865 256.116 114.737C256.625 114.604 257.206 114.538 257.859 114.538H259.428ZM263.321 119.004C263.321 118.694 263.426 118.434 263.637 118.224C263.847 118.008 264.132 117.9 264.492 117.9C264.857 117.9 265.142 118.008 265.347 118.224C265.557 118.434 265.662 118.694 265.662 119.004C265.662 119.314 265.557 119.574 265.347 119.784C265.142 119.994 264.857 120.1 264.492 120.1C264.132 120.1 263.847 119.994 263.637 119.784C263.426 119.574 263.321 119.314 263.321 119.004Z" fill="#461102"/>
<path d="M27.912 141.646C29.872 141.646 31.566 142.01 32.994 142.738C34.422 143.438 35.5 144.404 36.228 145.636C36.984 146.84 37.362 148.184 37.362 149.668C37.362 151.208 37.026 152.692 36.354 154.12C35.71 155.548 34.59 157.158 32.994 158.95C31.426 160.742 29.13 163.052 26.106 165.88H37.992L37.32 170.5H19.302V166.174C22.83 162.646 25.378 160.014 26.946 158.278C28.514 156.542 29.62 155.072 30.264 153.868C30.908 152.664 31.23 151.432 31.23 150.172C31.23 148.968 30.88 148.016 30.18 147.316C29.48 146.616 28.542 146.266 27.366 146.266C26.33 146.266 25.406 146.504 24.594 146.98C23.782 147.428 22.928 148.184 22.032 149.248L18.462 146.392C20.87 143.228 24.02 141.646 27.912 141.646ZM59.9941 161.134C60.3861 163.066 61.1001 164.48 62.1361 165.376C63.2001 166.272 64.6141 166.72 66.3781 166.72C68.2541 166.72 70.2701 166.132 72.4261 164.956V169.576C71.2781 170.108 70.1861 170.5 69.1501 170.752C68.1141 171.032 66.9801 171.172 65.7481 171.172C62.5841 171.172 59.9801 170.304 57.9361 168.568C55.9201 166.804 54.5901 164.326 53.9461 161.134H50.2921L51.1321 157.9H53.7781V154.75H50.2921L51.1321 151.474H53.9881C54.7721 148.422 56.2281 146.028 58.3561 144.292C60.5121 142.528 63.0461 141.646 65.9581 141.646C68.8701 141.646 71.5021 142.444 73.8541 144.04L71.7121 147.736C70.8161 147.148 69.9341 146.728 69.0661 146.476C68.1981 146.196 67.2321 146.056 66.1681 146.056C64.7121 146.056 63.4661 146.504 62.4301 147.4C61.3941 148.296 60.6241 149.654 60.1201 151.474H70.4101L69.5701 154.75H59.8261V157.9H68.8981L68.1001 161.134H59.9941Z" fill="#E3000F"/>
<path d="M91.5234 159.875V161.5H83.8203V160.109L87.5156 156.117C87.901 155.68 88.2057 155.299 88.4297 154.977C88.6536 154.654 88.8125 154.362 88.9062 154.102C89.0052 153.836 89.0547 153.583 89.0547 153.344C89.0547 152.995 88.9922 152.69 88.8672 152.43C88.7422 152.164 88.5599 151.958 88.3203 151.812C88.0859 151.667 87.7969 151.594 87.4531 151.594C87.0729 151.594 86.7474 151.682 86.4766 151.859C86.2109 152.031 86.0078 152.271 85.8672 152.578C85.7318 152.885 85.6641 153.237 85.6641 153.633H83.5938C83.5938 152.961 83.75 152.349 84.0625 151.797C84.375 151.24 84.8229 150.794 85.4062 150.461C85.9896 150.128 86.6823 149.961 87.4844 149.961C88.2656 149.961 88.9271 150.091 89.4688 150.352C90.0104 150.607 90.4219 150.971 90.7031 151.445C90.9844 151.919 91.125 152.484 91.125 153.141C91.125 153.505 91.0651 153.865 90.9453 154.219C90.8255 154.573 90.6562 154.924 90.4375 155.273C90.224 155.617 89.9688 155.966 89.6719 156.32C89.375 156.674 89.0443 157.036 88.6797 157.406L86.4609 159.875H91.5234ZM99.1172 149.492V161.5H97.0547V149.492H99.1172ZM104.414 153.047L100.734 157.18L98.7422 159.203L98.0859 157.602L99.625 155.664L101.922 153.047H104.414ZM102.305 161.5L99.6875 157.562L101.062 156.227L104.695 161.5H102.305ZM110.539 159.492V153.047H112.617V161.5H110.664L110.539 159.492ZM110.805 157.742L111.445 157.727C111.445 158.294 111.383 158.818 111.258 159.297C111.133 159.776 110.938 160.193 110.672 160.547C110.411 160.896 110.081 161.169 109.68 161.367C109.279 161.56 108.805 161.656 108.258 161.656C107.841 161.656 107.461 161.599 107.117 161.484C106.773 161.365 106.477 161.18 106.227 160.93C105.982 160.674 105.792 160.349 105.656 159.953C105.521 159.552 105.453 159.07 105.453 158.508V153.047H107.516V158.523C107.516 158.805 107.547 159.039 107.609 159.227C107.677 159.414 107.768 159.568 107.883 159.688C108.003 159.802 108.141 159.885 108.297 159.938C108.458 159.984 108.63 160.008 108.812 160.008C109.312 160.008 109.706 159.909 109.992 159.711C110.284 159.508 110.492 159.237 110.617 158.898C110.742 158.555 110.805 158.169 110.805 157.742ZM119.477 159.492V153.047H121.555V161.5H119.602L119.477 159.492ZM119.742 157.742L120.383 157.727C120.383 158.294 120.32 158.818 120.195 159.297C120.07 159.776 119.875 160.193 119.609 160.547C119.349 160.896 119.018 161.169 118.617 161.367C118.216 161.56 117.742 161.656 117.195 161.656C116.779 161.656 116.398 161.599 116.055 161.484C115.711 161.365 115.414 161.18 115.164 160.93C114.919 160.674 114.729 160.349 114.594 159.953C114.458 159.552 114.391 159.07 114.391 158.508V153.047H116.453V158.523C116.453 158.805 116.484 159.039 116.547 159.227C116.615 159.414 116.706 159.568 116.82 159.688C116.94 159.802 117.078 159.885 117.234 159.938C117.396 159.984 117.568 160.008 117.75 160.008C118.25 160.008 118.643 159.909 118.93 159.711C119.221 159.508 119.43 159.237 119.555 158.898C119.68 158.555 119.742 158.169 119.742 157.742ZM128.453 159.703V149.5H130.531V161.5H128.656L128.453 159.703ZM123.023 157.375V157.211C123.023 156.565 123.096 155.979 123.242 155.453C123.393 154.922 123.612 154.466 123.898 154.086C124.185 153.706 124.531 153.411 124.938 153.203C125.349 152.995 125.815 152.891 126.336 152.891C126.841 152.891 127.281 152.992 127.656 153.195C128.036 153.398 128.359 153.688 128.625 154.062C128.896 154.438 129.112 154.883 129.273 155.398C129.435 155.909 129.552 156.471 129.625 157.086V157.531C129.552 158.13 129.435 158.68 129.273 159.18C129.112 159.68 128.896 160.117 128.625 160.492C128.359 160.862 128.036 161.148 127.656 161.352C127.276 161.555 126.831 161.656 126.32 161.656C125.805 161.656 125.341 161.549 124.93 161.336C124.523 161.122 124.177 160.823 123.891 160.438C123.609 160.052 123.393 159.599 123.242 159.078C123.096 158.557 123.023 157.99 123.023 157.375ZM125.094 157.211V157.375C125.094 157.74 125.125 158.081 125.188 158.398C125.25 158.716 125.352 158.997 125.492 159.242C125.633 159.482 125.812 159.669 126.031 159.805C126.255 159.94 126.526 160.008 126.844 160.008C127.25 160.008 127.583 159.919 127.844 159.742C128.109 159.56 128.315 159.312 128.461 159C128.607 158.682 128.701 158.326 128.742 157.93V156.703C128.721 156.391 128.667 156.102 128.578 155.836C128.495 155.57 128.375 155.341 128.219 155.148C128.068 154.956 127.88 154.805 127.656 154.695C127.432 154.586 127.167 154.531 126.859 154.531C126.542 154.531 126.271 154.602 126.047 154.742C125.823 154.878 125.641 155.068 125.5 155.312C125.359 155.557 125.255 155.841 125.188 156.164C125.125 156.487 125.094 156.836 125.094 157.211Z" fill="#461102"/>
<rect x="154" y="140" width="158" height="32" rx="8" fill="#E3000F"/>
<path d="M178.624 150.412L178.368 152.428H175.632V161.5H173.008V152.428H170.144V150.412H178.624ZM186.481 150.412L186.209 152.284H182.305V154.94H185.713V156.78H182.305V159.612H186.481V161.5H179.681V150.412H186.481ZM190.727 150.412V159.42H195.047L194.775 161.5H188.103V150.412H190.727ZM198.93 150.412V159.42H203.25L202.978 161.5H196.306V150.412H198.93ZM207.133 150.412V161.5H204.509V150.412H207.133ZM216.081 150.412C217.82 150.412 219.212 150.807 220.257 151.596C221.313 152.375 221.841 153.809 221.841 155.9C221.841 157.959 221.329 159.409 220.305 160.252C219.281 161.084 217.953 161.5 216.321 161.5H212.993V150.412H216.081ZM215.617 152.316V159.596H216.481C217.345 159.596 218.001 159.329 218.449 158.796C218.897 158.252 219.121 157.287 219.121 155.9C219.121 154.951 219.009 154.215 218.785 153.692C218.561 153.169 218.257 152.812 217.873 152.62C217.489 152.417 217.014 152.316 216.449 152.316H215.617ZM226.039 150.412V161.5H223.415V150.412H226.039ZM232.903 150.14C234.332 150.14 235.564 150.593 236.599 151.5L235.271 152.892C234.876 152.593 234.508 152.38 234.167 152.252C233.836 152.113 233.452 152.044 233.015 152.044C232.193 152.044 231.537 152.369 231.047 153.02C230.556 153.66 230.311 154.636 230.311 155.948C230.311 157.367 230.497 158.375 230.871 158.972C231.244 159.559 231.825 159.852 232.615 159.852C233.169 159.852 233.671 159.729 234.119 159.484V156.972H232.679L232.423 155.116H236.663V160.604C236.087 160.977 235.452 161.265 234.759 161.468C234.065 161.671 233.372 161.772 232.679 161.772C230.993 161.772 229.724 161.281 228.871 160.3C228.017 159.308 227.59 157.857 227.59 155.948C227.59 154.732 227.82 153.687 228.279 152.812C228.748 151.937 229.383 151.276 230.183 150.828C230.993 150.369 231.9 150.14 232.903 150.14ZM241.039 150.412V161.5H238.415V150.412H241.039ZM246.687 150.412C248.148 150.412 249.284 150.716 250.095 151.324C250.905 151.932 251.311 152.833 251.311 154.028C251.311 155.276 250.911 156.22 250.111 156.86C249.321 157.489 248.26 157.804 246.927 157.804H245.727V161.5H243.103V150.412H246.687ZM246.703 155.916C247.321 155.916 247.791 155.772 248.111 155.484C248.441 155.185 248.607 154.7 248.607 154.028C248.607 152.865 247.956 152.284 246.655 152.284H245.727V155.916H246.703ZM257.583 161.5L257.007 159.116H253.775L253.215 161.5H250.495L253.839 150.412H257.023L260.367 161.5H257.583ZM254.223 157.212H256.559L255.391 152.316L254.223 157.212ZM263.805 150.412V161.5H261.181V150.412H263.805ZM270.173 150.412L266.637 155.388L270.461 161.5H267.421L263.885 155.58L267.405 150.412H270.173ZM278.106 150.412L277.834 152.284H273.93V154.94H277.338V156.78H273.93V159.612H278.106V161.5H271.306V150.412H278.106ZM287.312 150.412L287.056 152.428H284.32V161.5H281.696V152.428H278.832V150.412H287.312ZM295.952 150.412L295.696 152.428H292.96V161.5H290.336V152.428H287.472V150.412H295.952Z" fill="#FFE80D"/>
</svg>
