<svg width="330" height="200" viewBox="0 0 330 200" fill="none" xmlns="http://www.w3.org/2000/svg">
<path d="M32.52 39.76C34.02 39.76 35.32 39.98 36.42 40.42C37.54 40.84 38.57 41.49 39.51 42.37L37.41 44.8C36.67 44.2 35.93 43.76 35.19 43.48C34.45 43.2 33.66 43.06 32.82 43.06C31.9 43.06 31.16 43.26 30.6 43.66C30.06 44.04 29.79 44.59 29.79 45.31C29.79 45.81 29.9 46.22 30.12 46.54C30.36 46.86 30.77 47.16 31.35 47.44C31.93 47.72 32.8 48.04 33.96 48.4C36.02 49.06 37.56 49.88 38.58 50.86C39.6 51.82 40.11 53.2 40.11 55C40.11 56.28 39.79 57.41 39.15 58.39C38.51 59.35 37.58 60.11 36.36 60.67C35.14 61.21 33.71 61.48 32.07 61.48C30.43 61.48 28.97 61.22 27.69 60.7C26.41 60.18 25.31 59.47 24.39 58.57L26.64 56.08C27.44 56.76 28.27 57.28 29.13 57.64C29.99 57.98 30.93 58.15 31.95 58.15C33.03 58.15 33.89 57.9 34.53 57.4C35.19 56.9 35.52 56.2 35.52 55.3C35.52 54.74 35.4 54.28 35.16 53.92C34.94 53.54 34.55 53.2 33.99 52.9C33.43 52.6 32.62 52.29 31.56 51.97C29.3 51.27 27.68 50.43 26.7 49.45C25.74 48.47 25.26 47.19 25.26 45.61C25.26 44.45 25.57 43.43 26.19 42.55C26.81 41.65 27.67 40.96 28.77 40.48C29.87 40 31.12 39.76 32.52 39.76ZM47.5629 40.24V61H43.1529V40.24H47.5629ZM58.3013 39.76C59.8013 39.76 61.1013 39.98 62.2013 40.42C63.3213 40.84 64.3513 41.49 65.2913 42.37L63.1913 44.8C62.4513 44.2 61.7113 43.76 60.9713 43.48C60.2313 43.2 59.4413 43.06 58.6012 43.06C57.6813 43.06 56.9413 43.26 56.3813 43.66C55.8413 44.04 55.5713 44.59 55.5713 45.31C55.5713 45.81 55.6813 46.22 55.9013 46.54C56.1413 46.86 56.5513 47.16 57.1313 47.44C57.7113 47.72 58.5813 48.04 59.7413 48.4C61.8013 49.06 63.3413 49.88 64.3613 50.86C65.3813 51.82 65.8913 53.2 65.8913 55C65.8913 56.28 65.5712 57.41 64.9312 58.39C64.2913 59.35 63.3613 60.11 62.1413 60.67C60.9213 61.21 59.4913 61.48 57.8513 61.48C56.2113 61.48 54.7513 61.22 53.4713 60.7C52.1913 60.18 51.0913 59.47 50.1713 58.57L52.4213 56.08C53.2213 56.76 54.0513 57.28 54.9113 57.64C55.7713 57.98 56.7113 58.15 57.7313 58.15C58.8113 58.15 59.6713 57.9 60.3113 57.4C60.9713 56.9 61.3013 56.2 61.3013 55.3C61.3013 54.74 61.1813 54.28 60.9413 53.92C60.7213 53.54 60.3313 53.2 59.7713 52.9C59.2113 52.6 58.4013 52.29 57.3413 51.97C55.0813 51.27 53.4613 50.43 52.4813 49.45C51.5213 48.47 51.0413 47.19 51.0413 45.61C51.0413 44.45 51.3513 43.43 51.9713 42.55C52.5913 41.65 53.4513 40.96 54.5513 40.48C55.6513 40 56.9013 39.76 58.3013 39.76ZM84.4441 54.16C84.4441 55.58 84.1441 56.84 83.5441 57.94C82.9441 59.04 82.0441 59.91 80.8441 60.55C79.6641 61.17 78.2241 61.48 76.5241 61.48C73.9641 61.48 72.0041 60.82 70.6441 59.5C69.3041 58.16 68.6341 56.38 68.6341 54.16V40.24H73.0441V53.95C73.0441 55.35 73.3241 56.4 73.8841 57.1C74.4441 57.78 75.3241 58.12 76.5241 58.12C77.7241 58.12 78.6041 57.78 79.1641 57.1C79.7441 56.4 80.0341 55.35 80.0341 53.95V40.24H84.4441V54.16ZM100.297 40.24V57.46H108.517L108.037 61H95.8873V40.24H100.297ZM118.052 39.76C119.952 39.76 121.592 40.19 122.972 41.05C124.352 41.89 125.412 43.12 126.152 44.74C126.892 46.36 127.262 48.32 127.262 50.62C127.262 52.88 126.892 54.83 126.152 56.47C125.412 58.09 124.352 59.33 122.972 60.19C121.592 61.05 119.952 61.48 118.052 61.48C116.152 61.48 114.502 61.06 113.102 60.22C111.722 59.36 110.662 58.12 109.922 56.5C109.182 54.86 108.812 52.9 108.812 50.62C108.812 48.38 109.182 46.45 109.922 44.83C110.682 43.19 111.752 41.94 113.132 41.08C114.532 40.2 116.172 39.76 118.052 39.76ZM118.052 43.06C116.532 43.06 115.382 43.66 114.602 44.86C113.842 46.06 113.462 47.98 113.462 50.62C113.462 53.26 113.852 55.18 114.632 56.38C115.412 57.58 116.552 58.18 118.052 58.18C119.572 58.18 120.712 57.59 121.472 56.41C122.232 55.21 122.612 53.28 122.612 50.62C122.612 47.96 122.232 46.04 121.472 44.86C120.712 43.66 119.572 43.06 118.052 43.06ZM142.994 40.24L142.514 43.45H135.014V48.85H141.554V52.03H135.014V57.76H143.054V61H130.604V40.24H142.994ZM157.074 50.02C158.474 50.28 159.604 50.79 160.464 51.55C161.344 52.29 161.784 53.43 161.784 54.97C161.784 57.15 161.004 58.7 159.444 59.62C157.884 60.54 155.714 61 152.934 61H146.454V40.24H152.124C154.964 40.24 157.134 40.66 158.634 41.5C160.134 42.34 160.884 43.69 160.884 45.55C160.884 46.77 160.514 47.76 159.774 48.52C159.054 49.26 158.154 49.76 157.074 50.02ZM150.864 43.42V48.67H153.024C154.104 48.67 154.934 48.45 155.514 48.01C156.094 47.55 156.384 46.86 156.384 45.94C156.384 45.02 156.074 44.37 155.454 43.99C154.834 43.61 153.864 43.42 152.544 43.42H150.864ZM152.964 57.73C154.344 57.73 155.394 57.53 156.114 57.13C156.834 56.71 157.194 55.93 157.194 54.79C157.194 52.71 155.914 51.67 153.354 51.67H150.864V57.73H152.964ZM168.571 40.24L168.061 53.53H164.581L164.011 40.24H168.571ZM166.321 56.35C167.041 56.35 167.651 56.6 168.151 57.1C168.651 57.6 168.901 58.2 168.901 58.9C168.901 59.6 168.651 60.21 168.151 60.73C167.651 61.23 167.041 61.48 166.321 61.48C165.621 61.48 165.021 61.23 164.521 60.73C164.021 60.21 163.771 59.6 163.771 58.9C163.771 58.2 164.021 57.6 164.521 57.1C165.021 56.6 165.621 56.35 166.321 56.35Z" fill="#FFE80D"/>
<path d="M30.5654 81.2031V94H28.377V81.2031H30.5654ZM34.582 81.2031V82.9609H24.3955V81.2031H34.582ZM39.4072 94.1758C38.7041 94.1758 38.0684 94.0615 37.5 93.833C36.9375 93.5986 36.457 93.2734 36.0586 92.8574C35.666 92.4414 35.3643 91.9521 35.1533 91.3896C34.9424 90.8271 34.8369 90.2207 34.8369 89.5703V89.2188C34.8369 88.4746 34.9453 87.8008 35.1621 87.1973C35.3789 86.5938 35.6807 86.0781 36.0674 85.6504C36.4541 85.2168 36.9111 84.8857 37.4385 84.6572C37.9658 84.4287 38.5371 84.3145 39.1523 84.3145C39.832 84.3145 40.4268 84.4287 40.9365 84.6572C41.4463 84.8857 41.8682 85.208 42.2021 85.624C42.542 86.0342 42.7939 86.5234 42.958 87.0918C43.1279 87.6602 43.2129 88.2871 43.2129 88.9727V89.8779H35.8652V88.3574H41.1211V88.1904C41.1094 87.8096 41.0332 87.4521 40.8926 87.1182C40.7578 86.7842 40.5498 86.5146 40.2686 86.3096C39.9873 86.1045 39.6123 86.002 39.1436 86.002C38.792 86.002 38.4785 86.0781 38.2031 86.2305C37.9336 86.377 37.708 86.5908 37.5264 86.8721C37.3447 87.1533 37.2041 87.4932 37.1045 87.8916C37.0107 88.2842 36.9639 88.7266 36.9639 89.2188V89.5703C36.9639 89.9863 37.0195 90.373 37.1309 90.7305C37.248 91.082 37.418 91.3896 37.6406 91.6533C37.8633 91.917 38.1328 92.125 38.4492 92.2773C38.7656 92.4238 39.126 92.4971 39.5303 92.4971C40.04 92.4971 40.4941 92.3945 40.8926 92.1895C41.291 91.9844 41.6367 91.6943 41.9297 91.3193L43.0459 92.4004C42.8408 92.6992 42.5742 92.9863 42.2461 93.2617C41.918 93.5312 41.5166 93.751 41.042 93.9209C40.5732 94.0908 40.0283 94.1758 39.4072 94.1758ZM47.1328 80.5V94H45.0059V80.5H47.1328ZM51.7207 80.5V94H49.5938V80.5H51.7207ZM56.3086 84.4902V94H54.1816V84.4902H56.3086ZM54.041 81.9941C54.041 81.6719 54.1465 81.4053 54.3574 81.1943C54.5742 80.9775 54.873 80.8691 55.2539 80.8691C55.6289 80.8691 55.9248 80.9775 56.1416 81.1943C56.3584 81.4053 56.4668 81.6719 56.4668 81.9941C56.4668 82.3105 56.3584 82.5742 56.1416 82.7852C55.9248 82.9961 55.6289 83.1016 55.2539 83.1016C54.873 83.1016 54.5742 82.9961 54.3574 82.7852C54.1465 82.5742 54.041 82.3105 54.041 81.9941ZM73.5264 87.25V87.9531C73.5264 88.9199 73.4004 89.7871 73.1484 90.5547C72.8965 91.3223 72.5361 91.9756 72.0674 92.5146C71.6045 93.0537 71.0479 93.4668 70.3975 93.7539C69.7471 94.0352 69.0264 94.1758 68.2354 94.1758C67.4502 94.1758 66.7324 94.0352 66.082 93.7539C65.4375 93.4668 64.8779 93.0537 64.4033 92.5146C63.9287 91.9756 63.5596 91.3223 63.2959 90.5547C63.0381 89.7871 62.9092 88.9199 62.9092 87.9531V87.25C62.9092 86.2832 63.0381 85.4189 63.2959 84.6572C63.5537 83.8896 63.917 83.2363 64.3857 82.6973C64.8604 82.1523 65.4199 81.7393 66.0645 81.458C66.7148 81.1709 67.4326 81.0273 68.2178 81.0273C69.0088 81.0273 69.7295 81.1709 70.3799 81.458C71.0303 81.7393 71.5898 82.1523 72.0586 82.6973C72.5273 83.2363 72.8877 83.8896 73.1396 84.6572C73.3975 85.4189 73.5264 86.2832 73.5264 87.25ZM71.3203 87.9531V87.2324C71.3203 86.5176 71.25 85.8877 71.1094 85.3428C70.9746 84.792 70.7725 84.332 70.5029 83.9629C70.2393 83.5879 69.9141 83.3066 69.5273 83.1191C69.1406 82.9258 68.7041 82.8291 68.2178 82.8291C67.7314 82.8291 67.2979 82.9258 66.917 83.1191C66.5361 83.3066 66.2109 83.5879 65.9414 83.9629C65.6777 84.332 65.4756 84.792 65.335 85.3428C65.1943 85.8877 65.124 86.5176 65.124 87.2324V87.9531C65.124 88.668 65.1943 89.3008 65.335 89.8516C65.4756 90.4023 65.6807 90.8682 65.9502 91.249C66.2256 91.624 66.5537 91.9082 66.9346 92.1016C67.3154 92.2891 67.749 92.3828 68.2354 92.3828C68.7275 92.3828 69.1641 92.2891 69.5449 92.1016C69.9258 91.9082 70.248 91.624 70.5117 91.249C70.7754 90.8682 70.9746 90.4023 71.1094 89.8516C71.25 89.3008 71.3203 88.668 71.3203 87.9531ZM70.1514 77.8633L71.4434 77.96C71.4434 78.3877 71.3584 78.7715 71.1885 79.1113C71.0186 79.4453 70.7871 79.709 70.4941 79.9023C70.2012 80.0957 69.8701 80.1924 69.501 80.1924C69.2139 80.1924 68.9707 80.1514 68.7715 80.0693C68.5723 79.9873 68.3906 79.8936 68.2266 79.7881C68.0625 79.6826 67.8926 79.5918 67.7168 79.5156C67.5469 79.4336 67.3447 79.3926 67.1104 79.3926C66.8877 79.3926 66.6973 79.4746 66.5391 79.6387C66.3867 79.8027 66.3105 80.0225 66.3105 80.2979L65.0098 80.2275C65.0098 79.8057 65.0947 79.4248 65.2646 79.085C65.4346 78.7451 65.666 78.4756 65.959 78.2764C66.252 78.0771 66.583 77.9775 66.9521 77.9775C67.1924 77.9775 67.4092 78.0186 67.6025 78.1006C67.8018 78.1768 67.9893 78.2676 68.165 78.373C68.3467 78.4785 68.5312 78.5723 68.7188 78.6543C68.9062 78.7363 69.1143 78.7773 69.3428 78.7773C69.5654 78.7773 69.7559 78.6924 69.9141 78.5225C70.0723 78.3525 70.1514 78.1328 70.1514 77.8633ZM77.6133 80.5V94H75.5039V80.5H77.6133ZM77.2441 88.8936L76.5586 88.8848C76.5645 88.2285 76.6553 87.6221 76.8311 87.0654C77.0127 86.5088 77.2646 86.0254 77.5869 85.6152C77.915 85.1992 78.3076 84.8799 78.7646 84.6572C79.2217 84.4287 79.7285 84.3145 80.2852 84.3145C80.7539 84.3145 81.1758 84.3789 81.5508 84.5078C81.9316 84.6367 82.2598 84.8447 82.5352 85.1318C82.8105 85.4131 83.0186 85.7822 83.1592 86.2393C83.3057 86.6904 83.3789 87.2412 83.3789 87.8916V94H81.252V87.874C81.252 87.417 81.1846 87.0537 81.0498 86.7842C80.9209 86.5146 80.7305 86.3213 80.4785 86.2041C80.2266 86.0811 79.9189 86.0195 79.5557 86.0195C79.1748 86.0195 78.8379 86.0957 78.5449 86.248C78.2578 86.4004 78.0176 86.6084 77.8242 86.8721C77.6309 87.1357 77.4844 87.4404 77.3848 87.7861C77.291 88.1318 77.2441 88.501 77.2441 88.8936ZM89.8828 84.4902V86.0371H84.5215V84.4902H89.8828ZM86.0684 82.1611H88.1865V91.3721C88.1865 91.665 88.2275 91.8906 88.3096 92.0488C88.3975 92.2012 88.5176 92.3037 88.6699 92.3564C88.8223 92.4092 89.001 92.4355 89.2061 92.4355C89.3525 92.4355 89.4932 92.4268 89.6279 92.4092C89.7627 92.3916 89.8711 92.374 89.9531 92.3564L89.9619 93.9736C89.7861 94.0264 89.5811 94.0732 89.3467 94.1143C89.1182 94.1553 88.8545 94.1758 88.5557 94.1758C88.0693 94.1758 87.6387 94.0908 87.2637 93.9209C86.8887 93.7451 86.5957 93.4609 86.3848 93.0684C86.1738 92.6758 86.0684 92.1543 86.0684 91.5039V82.1611ZM97.2393 91.7588V84.4902H99.3662V94H97.3623L97.2393 91.7588ZM97.5381 89.7812L98.25 89.7637C98.25 90.4023 98.1797 90.9912 98.0391 91.5303C97.8984 92.0635 97.6816 92.5293 97.3887 92.9277C97.0957 93.3203 96.7207 93.6279 96.2637 93.8506C95.8066 94.0674 95.2588 94.1758 94.6201 94.1758C94.1572 94.1758 93.7324 94.1084 93.3457 93.9736C92.959 93.8389 92.625 93.6309 92.3438 93.3496C92.0684 93.0684 91.8545 92.7021 91.7021 92.251C91.5498 91.7998 91.4736 91.2607 91.4736 90.6338V84.4902H93.5918V90.6514C93.5918 90.9971 93.6328 91.2871 93.7148 91.5215C93.7969 91.75 93.9082 91.9346 94.0488 92.0752C94.1895 92.2158 94.3535 92.3154 94.541 92.374C94.7285 92.4326 94.9277 92.4619 95.1387 92.4619C95.7422 92.4619 96.2168 92.3447 96.5625 92.1104C96.9141 91.8701 97.1631 91.5479 97.3096 91.1436C97.4619 90.7393 97.5381 90.2852 97.5381 89.7812ZM103.805 80.5V94H101.678V80.5H103.805ZM110.317 94.1758C109.614 94.1758 108.979 94.0615 108.41 93.833C107.848 93.5986 107.367 93.2734 106.969 92.8574C106.576 92.4414 106.274 91.9521 106.063 91.3896C105.853 90.8271 105.747 90.2207 105.747 89.5703V89.2188C105.747 88.4746 105.855 87.8008 106.072 87.1973C106.289 86.5938 106.591 86.0781 106.978 85.6504C107.364 85.2168 107.821 84.8857 108.349 84.6572C108.876 84.4287 109.447 84.3145 110.062 84.3145C110.742 84.3145 111.337 84.4287 111.847 84.6572C112.356 84.8857 112.778 85.208 113.112 85.624C113.452 86.0342 113.704 86.5234 113.868 87.0918C114.038 87.6602 114.123 88.2871 114.123 88.9727V89.8779H106.775V88.3574H112.031V88.1904C112.02 87.8096 111.943 87.4521 111.803 87.1182C111.668 86.7842 111.46 86.5146 111.179 86.3096C110.897 86.1045 110.522 86.002 110.054 86.002C109.702 86.002 109.389 86.0781 109.113 86.2305C108.844 86.377 108.618 86.5908 108.437 86.8721C108.255 87.1533 108.114 87.4932 108.015 87.8916C107.921 88.2842 107.874 88.7266 107.874 89.2188V89.5703C107.874 89.9863 107.93 90.373 108.041 90.7305C108.158 91.082 108.328 91.3896 108.551 91.6533C108.773 91.917 109.043 92.125 109.359 92.2773C109.676 92.4238 110.036 92.4971 110.44 92.4971C110.95 92.4971 111.404 92.3945 111.803 92.1895C112.201 91.9844 112.547 91.6943 112.84 91.3193L113.956 92.4004C113.751 92.6992 113.484 92.9863 113.156 93.2617C112.828 93.5312 112.427 93.751 111.952 93.9209C111.483 94.0908 110.938 94.1758 110.317 94.1758ZM117.867 80.5V94H115.758V80.5H117.867ZM117.498 88.8936L116.812 88.8848C116.818 88.2285 116.909 87.6221 117.085 87.0654C117.267 86.5088 117.519 86.0254 117.841 85.6152C118.169 85.1992 118.562 84.8799 119.019 84.6572C119.476 84.4287 119.982 84.3145 120.539 84.3145C121.008 84.3145 121.43 84.3789 121.805 84.5078C122.186 84.6367 122.514 84.8447 122.789 85.1318C123.064 85.4131 123.272 85.7822 123.413 86.2393C123.56 86.6904 123.633 87.2412 123.633 87.8916V94H121.506V87.874C121.506 87.417 121.438 87.0537 121.304 86.7842C121.175 86.5146 120.984 86.3213 120.732 86.2041C120.48 86.0811 120.173 86.0195 119.81 86.0195C119.429 86.0195 119.092 86.0957 118.799 86.248C118.512 86.4004 118.271 86.6084 118.078 86.8721C117.885 87.1357 117.738 87.4404 117.639 87.7861C117.545 88.1318 117.498 88.501 117.498 88.8936ZM130.137 84.4902V86.0371H124.775V84.4902H130.137ZM126.322 82.1611H128.44V91.3721C128.44 91.665 128.481 91.8906 128.563 92.0488C128.651 92.2012 128.771 92.3037 128.924 92.3564C129.076 92.4092 129.255 92.4355 129.46 92.4355C129.606 92.4355 129.747 92.4268 129.882 92.4092C130.017 92.3916 130.125 92.374 130.207 92.3564L130.216 93.9736C130.04 94.0264 129.835 94.0732 129.601 94.1143C129.372 94.1553 129.108 94.1758 128.81 94.1758C128.323 94.1758 127.893 94.0908 127.518 93.9209C127.143 93.7451 126.85 93.4609 126.639 93.0684C126.428 92.6758 126.322 92.1543 126.322 91.5039V82.1611ZM138.671 81.2031V94H136.465V81.2031H138.671ZM146.361 81.2031L141.176 87.3643L138.223 90.4932L137.836 88.3047L139.945 85.7031L143.672 81.2031H146.361ZM143.988 94L139.778 87.9355L141.299 86.4326L146.607 94H143.988ZM149.895 84.4902V94H147.768V84.4902H149.895ZM147.627 81.9941C147.627 81.6719 147.732 81.4053 147.943 81.1943C148.16 80.9775 148.459 80.8691 148.84 80.8691C149.215 80.8691 149.511 80.9775 149.728 81.1943C149.944 81.4053 150.053 81.6719 150.053 81.9941C150.053 82.3105 149.944 82.5742 149.728 82.7852C149.511 82.9961 149.215 83.1016 148.84 83.1016C148.459 83.1016 148.16 82.9961 147.943 82.7852C147.732 82.5742 147.627 82.3105 147.627 81.9941ZM154.342 86.3008V94H152.224V84.4902H154.245L154.342 86.3008ZM157.251 84.4287L157.233 86.3975C157.104 86.374 156.964 86.3564 156.812 86.3447C156.665 86.333 156.519 86.3271 156.372 86.3271C156.009 86.3271 155.689 86.3799 155.414 86.4854C155.139 86.585 154.907 86.7314 154.72 86.9248C154.538 87.1123 154.397 87.3408 154.298 87.6104C154.198 87.8799 154.14 88.1816 154.122 88.5156L153.639 88.5508C153.639 87.9531 153.697 87.3994 153.814 86.8896C153.932 86.3799 154.107 85.9316 154.342 85.5449C154.582 85.1582 154.881 84.8564 155.238 84.6396C155.602 84.4229 156.021 84.3145 156.495 84.3145C156.624 84.3145 156.762 84.3262 156.908 84.3496C157.061 84.373 157.175 84.3994 157.251 84.4287ZM158.684 84.4902H160.811V94.8262C160.811 95.4766 160.699 96.0244 160.477 96.4697C160.254 96.9209 159.926 97.2607 159.492 97.4893C159.059 97.7236 158.528 97.8408 157.901 97.8408C157.714 97.8408 157.521 97.8262 157.321 97.7969C157.116 97.7734 156.923 97.7383 156.741 97.6914L156.75 96.0391C156.873 96.0625 157.005 96.0801 157.146 96.0918C157.28 96.1094 157.409 96.1182 157.532 96.1182C157.784 96.1182 157.995 96.0742 158.165 95.9863C158.335 95.8984 158.464 95.7607 158.552 95.5732C158.64 95.3857 158.684 95.1367 158.684 94.8262V84.4902ZM158.499 81.9941C158.499 81.6719 158.607 81.4053 158.824 81.1943C159.041 80.9775 159.337 80.8691 159.712 80.8691C160.093 80.8691 160.389 80.9775 160.6 81.1943C160.816 81.4053 160.925 81.6719 160.925 81.9941C160.925 82.3105 160.816 82.5742 160.6 82.7852C160.389 82.9961 160.093 83.1016 159.712 83.1016C159.337 83.1016 159.041 82.9961 158.824 82.7852C158.607 82.5742 158.499 82.3105 158.499 81.9941ZM168.457 92.0928V87.5576C168.457 87.2178 168.396 86.9248 168.272 86.6787C168.149 86.4326 167.962 86.2422 167.71 86.1074C167.464 85.9727 167.153 85.9053 166.778 85.9053C166.433 85.9053 166.134 85.9639 165.882 86.0811C165.63 86.1982 165.434 86.3564 165.293 86.5557C165.152 86.7549 165.082 86.9805 165.082 87.2324H162.973C162.973 86.8574 163.063 86.4941 163.245 86.1426C163.427 85.791 163.69 85.4775 164.036 85.2021C164.382 84.9268 164.795 84.71 165.275 84.5518C165.756 84.3936 166.295 84.3145 166.893 84.3145C167.607 84.3145 168.24 84.4346 168.791 84.6748C169.348 84.915 169.784 85.2783 170.101 85.7646C170.423 86.2451 170.584 86.8486 170.584 87.5752V91.8027C170.584 92.2363 170.613 92.626 170.672 92.9717C170.736 93.3115 170.827 93.6074 170.944 93.8594V94H168.773C168.674 93.7715 168.595 93.4814 168.536 93.1299C168.483 92.7725 168.457 92.4268 168.457 92.0928ZM168.765 88.2168L168.782 89.5264H167.262C166.869 89.5264 166.523 89.5645 166.225 89.6406C165.926 89.7109 165.677 89.8164 165.478 89.957C165.278 90.0977 165.129 90.2676 165.029 90.4668C164.93 90.666 164.88 90.8916 164.88 91.1436C164.88 91.3955 164.938 91.627 165.056 91.8379C165.173 92.043 165.343 92.2041 165.565 92.3213C165.794 92.4385 166.069 92.4971 166.392 92.4971C166.825 92.4971 167.203 92.4092 167.525 92.2334C167.854 92.0518 168.111 91.832 168.299 91.5742C168.486 91.3105 168.586 91.0615 168.598 90.8271L169.283 91.7676C169.213 92.0078 169.093 92.2656 168.923 92.541C168.753 92.8164 168.53 93.0801 168.255 93.332C167.985 93.5781 167.66 93.7803 167.279 93.9385C166.904 94.0967 166.471 94.1758 165.979 94.1758C165.357 94.1758 164.804 94.0527 164.317 93.8066C163.831 93.5547 163.45 93.2178 163.175 92.7959C162.899 92.3682 162.762 91.8848 162.762 91.3457C162.762 90.8418 162.855 90.3965 163.043 90.0098C163.236 89.6172 163.518 89.2891 163.887 89.0254C164.262 88.7617 164.719 88.5625 165.258 88.4277C165.797 88.2871 166.412 88.2168 167.104 88.2168H168.765ZM178.134 91.4248C178.134 91.2139 178.081 91.0234 177.976 90.8535C177.87 90.6777 177.668 90.5195 177.369 90.3789C177.076 90.2383 176.643 90.1094 176.068 89.9922C175.564 89.8809 175.102 89.749 174.68 89.5967C174.264 89.4385 173.906 89.248 173.607 89.0254C173.309 88.8027 173.077 88.5391 172.913 88.2344C172.749 87.9297 172.667 87.5781 172.667 87.1797C172.667 86.793 172.752 86.4268 172.922 86.0811C173.092 85.7354 173.335 85.4307 173.651 85.167C173.968 84.9033 174.352 84.6953 174.803 84.543C175.26 84.3906 175.77 84.3145 176.332 84.3145C177.129 84.3145 177.812 84.4492 178.38 84.7188C178.954 84.9824 179.394 85.3428 179.698 85.7998C180.003 86.251 180.155 86.7607 180.155 87.3291H178.037C178.037 87.0771 177.973 86.8428 177.844 86.626C177.721 86.4033 177.533 86.2246 177.281 86.0898C177.029 85.9492 176.713 85.8789 176.332 85.8789C175.969 85.8789 175.667 85.9375 175.427 86.0547C175.192 86.166 175.017 86.3125 174.899 86.4941C174.788 86.6758 174.732 86.875 174.732 87.0918C174.732 87.25 174.762 87.3936 174.82 87.5225C174.885 87.6455 174.99 87.7598 175.137 87.8652C175.283 87.9648 175.482 88.0586 175.734 88.1465C175.992 88.2344 176.314 88.3193 176.701 88.4014C177.428 88.5537 178.052 88.75 178.573 88.9902C179.101 89.2246 179.505 89.5293 179.786 89.9043C180.067 90.2734 180.208 90.7422 180.208 91.3105C180.208 91.7324 180.117 92.1191 179.936 92.4707C179.76 92.8164 179.502 93.1182 179.162 93.376C178.822 93.6279 178.415 93.8242 177.94 93.9648C177.472 94.1055 176.944 94.1758 176.358 94.1758C175.497 94.1758 174.768 94.0234 174.17 93.7188C173.572 93.4082 173.118 93.0127 172.808 92.5322C172.503 92.0459 172.351 91.542 172.351 91.0205H174.398C174.422 91.4131 174.53 91.7266 174.724 91.9609C174.923 92.1895 175.169 92.3564 175.462 92.4619C175.761 92.5615 176.068 92.6113 176.385 92.6113C176.766 92.6113 177.085 92.5615 177.343 92.4619C177.601 92.3564 177.797 92.2158 177.932 92.04C178.066 91.8584 178.134 91.6533 178.134 91.4248ZM186.422 84.4902V86.0371H181.061V84.4902H186.422ZM182.607 82.1611H184.726V91.3721C184.726 91.665 184.767 91.8906 184.849 92.0488C184.937 92.2012 185.057 92.3037 185.209 92.3564C185.361 92.4092 185.54 92.4355 185.745 92.4355C185.892 92.4355 186.032 92.4268 186.167 92.4092C186.302 92.3916 186.41 92.374 186.492 92.3564L186.501 93.9736C186.325 94.0264 186.12 94.0732 185.886 94.1143C185.657 94.1553 185.394 94.1758 185.095 94.1758C184.608 94.1758 184.178 94.0908 183.803 93.9209C183.428 93.7451 183.135 93.4609 182.924 93.0684C182.713 92.6758 182.607 92.1543 182.607 91.5039V82.1611ZM193.778 91.7588V84.4902H195.905V94H193.901L193.778 91.7588ZM194.077 89.7812L194.789 89.7637C194.789 90.4023 194.719 90.9912 194.578 91.5303C194.438 92.0635 194.221 92.5293 193.928 92.9277C193.635 93.3203 193.26 93.6279 192.803 93.8506C192.346 94.0674 191.798 94.1758 191.159 94.1758C190.696 94.1758 190.271 94.1084 189.885 93.9736C189.498 93.8389 189.164 93.6309 188.883 93.3496C188.607 93.0684 188.394 92.7021 188.241 92.251C188.089 91.7998 188.013 91.2607 188.013 90.6338V84.4902H190.131V90.6514C190.131 90.9971 190.172 91.2871 190.254 91.5215C190.336 91.75 190.447 91.9346 190.588 92.0752C190.729 92.2158 190.893 92.3154 191.08 92.374C191.268 92.4326 191.467 92.4619 191.678 92.4619C192.281 92.4619 192.756 92.3447 193.102 92.1104C193.453 91.8701 193.702 91.5479 193.849 91.1436C194.001 90.7393 194.077 90.2852 194.077 89.7812ZM203.411 91.4248C203.411 91.2139 203.358 91.0234 203.253 90.8535C203.147 90.6777 202.945 90.5195 202.646 90.3789C202.354 90.2383 201.92 90.1094 201.346 89.9922C200.842 89.8809 200.379 89.749 199.957 89.5967C199.541 89.4385 199.184 89.248 198.885 89.0254C198.586 88.8027 198.354 88.5391 198.19 88.2344C198.026 87.9297 197.944 87.5781 197.944 87.1797C197.944 86.793 198.029 86.4268 198.199 86.0811C198.369 85.7354 198.612 85.4307 198.929 85.167C199.245 84.9033 199.629 84.6953 200.08 84.543C200.537 84.3906 201.047 84.3145 201.609 84.3145C202.406 84.3145 203.089 84.4492 203.657 84.7188C204.231 84.9824 204.671 85.3428 204.976 85.7998C205.28 86.251 205.433 86.7607 205.433 87.3291H203.314C203.314 87.0771 203.25 86.8428 203.121 86.626C202.998 86.4033 202.811 86.2246 202.559 86.0898C202.307 85.9492 201.99 85.8789 201.609 85.8789C201.246 85.8789 200.944 85.9375 200.704 86.0547C200.47 86.166 200.294 86.3125 200.177 86.4941C200.065 86.6758 200.01 86.875 200.01 87.0918C200.01 87.25 200.039 87.3936 200.098 87.5225C200.162 87.6455 200.268 87.7598 200.414 87.8652C200.561 87.9648 200.76 88.0586 201.012 88.1465C201.27 88.2344 201.592 88.3193 201.979 88.4014C202.705 88.5537 203.329 88.75 203.851 88.9902C204.378 89.2246 204.782 89.5293 205.063 89.9043C205.345 90.2734 205.485 90.7422 205.485 91.3105C205.485 91.7324 205.395 92.1191 205.213 92.4707C205.037 92.8164 204.779 93.1182 204.439 93.376C204.1 93.6279 203.692 93.8242 203.218 93.9648C202.749 94.1055 202.222 94.1758 201.636 94.1758C200.774 94.1758 200.045 94.0234 199.447 93.7188C198.85 93.4082 198.396 93.0127 198.085 92.5322C197.78 92.0459 197.628 91.542 197.628 91.0205H199.676C199.699 91.4131 199.808 91.7266 200.001 91.9609C200.2 92.1895 200.446 92.3564 200.739 92.4619C201.038 92.5615 201.346 92.6113 201.662 92.6113C202.043 92.6113 202.362 92.5615 202.62 92.4619C202.878 92.3564 203.074 92.2158 203.209 92.04C203.344 91.8584 203.411 91.6533 203.411 91.4248ZM211.532 94.1758C210.829 94.1758 210.193 94.0615 209.625 93.833C209.062 93.5986 208.582 93.2734 208.184 92.8574C207.791 92.4414 207.489 91.9521 207.278 91.3896C207.067 90.8271 206.962 90.2207 206.962 89.5703V89.2188C206.962 88.4746 207.07 87.8008 207.287 87.1973C207.504 86.5938 207.806 86.0781 208.192 85.6504C208.579 85.2168 209.036 84.8857 209.563 84.6572C210.091 84.4287 210.662 84.3145 211.277 84.3145C211.957 84.3145 212.552 84.4287 213.062 84.6572C213.571 84.8857 213.993 85.208 214.327 85.624C214.667 86.0342 214.919 86.5234 215.083 87.0918C215.253 87.6602 215.338 88.2871 215.338 88.9727V89.8779H207.99V88.3574H213.246V88.1904C213.234 87.8096 213.158 87.4521 213.018 87.1182C212.883 86.7842 212.675 86.5146 212.394 86.3096C212.112 86.1045 211.737 86.002 211.269 86.002C210.917 86.002 210.604 86.0781 210.328 86.2305C210.059 86.377 209.833 86.5908 209.651 86.8721C209.47 87.1533 209.329 87.4932 209.229 87.8916C209.136 88.2842 209.089 88.7266 209.089 89.2188V89.5703C209.089 89.9863 209.145 90.373 209.256 90.7305C209.373 91.082 209.543 91.3896 209.766 91.6533C209.988 91.917 210.258 92.125 210.574 92.2773C210.891 92.4238 211.251 92.4971 211.655 92.4971C212.165 92.4971 212.619 92.3945 213.018 92.1895C213.416 91.9844 213.762 91.6943 214.055 91.3193L215.171 92.4004C214.966 92.6992 214.699 92.9863 214.371 93.2617C214.043 93.5312 213.642 93.751 213.167 93.9209C212.698 94.0908 212.153 94.1758 211.532 94.1758ZM227.273 92.0312V80.5H229.4V94H227.476L227.273 92.0312ZM221.086 89.3506V89.166C221.086 88.4453 221.171 87.7891 221.341 87.1973C221.511 86.5996 221.757 86.0869 222.079 85.6592C222.401 85.2256 222.794 84.8945 223.257 84.666C223.72 84.4316 224.241 84.3145 224.821 84.3145C225.396 84.3145 225.899 84.4258 226.333 84.6484C226.767 84.8711 227.136 85.1904 227.44 85.6064C227.745 86.0166 227.988 86.5088 228.17 87.083C228.352 87.6514 228.48 88.2842 228.557 88.9814V89.5703C228.48 90.25 228.352 90.8711 228.17 91.4336C227.988 91.9961 227.745 92.4824 227.44 92.8926C227.136 93.3027 226.764 93.6191 226.324 93.8418C225.891 94.0645 225.384 94.1758 224.804 94.1758C224.229 94.1758 223.711 94.0557 223.248 93.8154C222.791 93.5752 222.401 93.2383 222.079 92.8047C221.757 92.3711 221.511 91.8613 221.341 91.2754C221.171 90.6836 221.086 90.042 221.086 89.3506ZM223.204 89.166V89.3506C223.204 89.7842 223.242 90.1885 223.318 90.5635C223.4 90.9385 223.526 91.2695 223.696 91.5566C223.866 91.8379 224.086 92.0605 224.355 92.2246C224.631 92.3828 224.959 92.4619 225.34 92.4619C225.82 92.4619 226.216 92.3564 226.526 92.1455C226.837 91.9346 227.08 91.6504 227.256 91.293C227.438 90.9297 227.561 90.5254 227.625 90.0801V88.4893C227.59 88.1436 227.517 87.8213 227.405 87.5225C227.3 87.2236 227.156 86.9629 226.975 86.7402C226.793 86.5117 226.567 86.3359 226.298 86.2129C226.034 86.084 225.721 86.0195 225.357 86.0195C224.971 86.0195 224.643 86.1016 224.373 86.2656C224.104 86.4297 223.881 86.6553 223.705 86.9424C223.535 87.2295 223.409 87.5635 223.327 87.9443C223.245 88.3252 223.204 88.7324 223.204 89.166ZM233.883 84.4902V94H231.756V84.4902H233.883ZM231.615 81.9941C231.615 81.6719 231.721 81.4053 231.932 81.1943C232.148 80.9775 232.447 80.8691 232.828 80.8691C233.203 80.8691 233.499 80.9775 233.716 81.1943C233.933 81.4053 234.041 81.6719 234.041 81.9941C234.041 82.3105 233.933 82.5742 233.716 82.7852C233.499 82.9961 233.203 83.1016 232.828 83.1016C232.447 83.1016 232.148 82.9961 231.932 82.7852C231.721 82.5742 231.615 82.3105 231.615 81.9941ZM242.294 84.4902H244.219V93.7363C244.219 94.5918 244.037 95.3184 243.674 95.916C243.311 96.5137 242.804 96.9678 242.153 97.2783C241.503 97.5947 240.75 97.7529 239.895 97.7529C239.531 97.7529 239.127 97.7002 238.682 97.5947C238.242 97.4893 237.814 97.3193 237.398 97.085C236.988 96.8564 236.646 96.5547 236.37 96.1797L237.363 94.9316C237.703 95.3359 238.078 95.6318 238.488 95.8193C238.898 96.0068 239.329 96.1006 239.78 96.1006C240.267 96.1006 240.68 96.0098 241.02 95.8281C241.365 95.6523 241.632 95.3916 241.819 95.0459C242.007 94.7002 242.101 94.2783 242.101 93.7803V86.6436L242.294 84.4902ZM235.834 89.3506V89.166C235.834 88.4453 235.922 87.7891 236.098 87.1973C236.273 86.5996 236.525 86.0869 236.854 85.6592C237.182 85.2256 237.58 84.8945 238.049 84.666C238.518 84.4316 239.048 84.3145 239.64 84.3145C240.255 84.3145 240.779 84.4258 241.213 84.6484C241.652 84.8711 242.019 85.1904 242.312 85.6064C242.604 86.0166 242.833 86.5088 242.997 87.083C243.167 87.6514 243.293 88.2842 243.375 88.9814V89.5703C243.299 90.25 243.17 90.8711 242.988 91.4336C242.807 91.9961 242.566 92.4824 242.268 92.8926C241.969 93.3027 241.6 93.6191 241.16 93.8418C240.727 94.0645 240.214 94.1758 239.622 94.1758C239.042 94.1758 238.518 94.0557 238.049 93.8154C237.586 93.5752 237.188 93.2383 236.854 92.8047C236.525 92.3711 236.273 91.8613 236.098 91.2754C235.922 90.6836 235.834 90.042 235.834 89.3506ZM237.952 89.166V89.3506C237.952 89.7842 237.993 90.1885 238.075 90.5635C238.163 90.9385 238.295 91.2695 238.471 91.5566C238.652 91.8379 238.881 92.0605 239.156 92.2246C239.438 92.3828 239.769 92.4619 240.149 92.4619C240.647 92.4619 241.055 92.3564 241.371 92.1455C241.693 91.9346 241.939 91.6504 242.109 91.293C242.285 90.9297 242.408 90.5254 242.479 90.0801V88.4893C242.443 88.1436 242.37 87.8213 242.259 87.5225C242.153 87.2236 242.01 86.9629 241.828 86.7402C241.646 86.5117 241.418 86.3359 241.143 86.2129C240.867 86.084 240.542 86.0195 240.167 86.0195C239.786 86.0195 239.455 86.1016 239.174 86.2656C238.893 86.4297 238.661 86.6553 238.479 86.9424C238.304 87.2295 238.172 87.5635 238.084 87.9443C237.996 88.3252 237.952 88.7324 237.952 89.166ZM248.684 84.4902V94H246.557V84.4902H248.684ZM246.416 81.9941C246.416 81.6719 246.521 81.4053 246.732 81.1943C246.949 80.9775 247.248 80.8691 247.629 80.8691C248.004 80.8691 248.3 80.9775 248.517 81.1943C248.733 81.4053 248.842 81.6719 248.842 81.9941C248.842 82.3105 248.733 82.5742 248.517 82.7852C248.3 82.9961 248.004 83.1016 247.629 83.1016C247.248 83.1016 246.949 82.9961 246.732 82.7852C246.521 82.5742 246.416 82.3105 246.416 81.9941ZM253.131 86.3184V97.6562H251.013V84.4902H252.964L253.131 86.3184ZM259.327 89.1572V89.3418C259.327 90.0332 259.245 90.6748 259.081 91.2666C258.923 91.8525 258.686 92.3652 258.369 92.8047C258.059 93.2383 257.675 93.5752 257.218 93.8154C256.761 94.0557 256.233 94.1758 255.636 94.1758C255.044 94.1758 254.525 94.0674 254.08 93.8506C253.641 93.6279 253.269 93.3145 252.964 92.9102C252.659 92.5059 252.413 92.0312 252.226 91.4863C252.044 90.9355 251.915 90.332 251.839 89.6758V88.9639C251.915 88.2666 252.044 87.6338 252.226 87.0654C252.413 86.4971 252.659 86.0078 252.964 85.5977C253.269 85.1875 253.641 84.8711 254.08 84.6484C254.52 84.4258 255.032 84.3145 255.618 84.3145C256.216 84.3145 256.746 84.4316 257.209 84.666C257.672 84.8945 258.062 85.2227 258.378 85.6504C258.694 86.0723 258.932 86.582 259.09 87.1797C259.248 87.7715 259.327 88.4307 259.327 89.1572ZM257.209 89.3418V89.1572C257.209 88.7178 257.168 88.3105 257.086 87.9355C257.004 87.5547 256.875 87.2207 256.699 86.9336C256.523 86.6465 256.298 86.4238 256.022 86.2656C255.753 86.1016 255.428 86.0195 255.047 86.0195C254.672 86.0195 254.35 86.084 254.08 86.2129C253.811 86.3359 253.585 86.5088 253.403 86.7314C253.222 86.9541 253.081 87.2148 252.981 87.5137C252.882 87.8066 252.812 88.126 252.771 88.4717V90.1768C252.841 90.5986 252.961 90.9854 253.131 91.3369C253.301 91.6885 253.541 91.9697 253.852 92.1807C254.168 92.3857 254.572 92.4883 255.064 92.4883C255.445 92.4883 255.771 92.4062 256.04 92.2422C256.31 92.0781 256.529 91.8525 256.699 91.5654C256.875 91.2725 257.004 90.9355 257.086 90.5547C257.168 90.1738 257.209 89.7695 257.209 89.3418ZM266.49 92.0928V87.5576C266.49 87.2178 266.429 86.9248 266.306 86.6787C266.183 86.4326 265.995 86.2422 265.743 86.1074C265.497 85.9727 265.187 85.9053 264.812 85.9053C264.466 85.9053 264.167 85.9639 263.915 86.0811C263.663 86.1982 263.467 86.3564 263.326 86.5557C263.186 86.7549 263.115 86.9805 263.115 87.2324H261.006C261.006 86.8574 261.097 86.4941 261.278 86.1426C261.46 85.791 261.724 85.4775 262.069 85.2021C262.415 84.9268 262.828 84.71 263.309 84.5518C263.789 84.3936 264.328 84.3145 264.926 84.3145C265.641 84.3145 266.273 84.4346 266.824 84.6748C267.381 84.915 267.817 85.2783 268.134 85.7646C268.456 86.2451 268.617 86.8486 268.617 87.5752V91.8027C268.617 92.2363 268.646 92.626 268.705 92.9717C268.77 93.3115 268.86 93.6074 268.978 93.8594V94H266.807C266.707 93.7715 266.628 93.4814 266.569 93.1299C266.517 92.7725 266.49 92.4268 266.49 92.0928ZM266.798 88.2168L266.815 89.5264H265.295C264.902 89.5264 264.557 89.5645 264.258 89.6406C263.959 89.7109 263.71 89.8164 263.511 89.957C263.312 90.0977 263.162 90.2676 263.062 90.4668C262.963 90.666 262.913 90.8916 262.913 91.1436C262.913 91.3955 262.972 91.627 263.089 91.8379C263.206 92.043 263.376 92.2041 263.599 92.3213C263.827 92.4385 264.103 92.4971 264.425 92.4971C264.858 92.4971 265.236 92.4092 265.559 92.2334C265.887 92.0518 266.145 91.832 266.332 91.5742C266.52 91.3105 266.619 91.0615 266.631 90.8271L267.316 91.7676C267.246 92.0078 267.126 92.2656 266.956 92.541C266.786 92.8164 266.563 93.0801 266.288 93.332C266.019 93.5781 265.693 93.7803 265.312 93.9385C264.938 94.0967 264.504 94.1758 264.012 94.1758C263.391 94.1758 262.837 94.0527 262.351 93.8066C261.864 93.5547 261.483 93.2178 261.208 92.7959C260.933 92.3682 260.795 91.8848 260.795 91.3457C260.795 90.8418 260.889 90.3965 261.076 90.0098C261.27 89.6172 261.551 89.2891 261.92 89.0254C262.295 88.7617 262.752 88.5625 263.291 88.4277C263.83 88.2871 264.445 88.2168 265.137 88.2168H266.798ZM272.968 80.5V94H270.841V80.5H272.968ZM278.874 84.4902L274.734 89.0781L272.467 91.3984L271.913 89.6055L273.627 87.4873L276.316 84.4902H278.874ZM276.773 94L273.688 89.5352L275.024 88.0498L279.226 94H276.773ZM284.235 94.1758C283.532 94.1758 282.896 94.0615 282.328 93.833C281.766 93.5986 281.285 93.2734 280.887 92.8574C280.494 92.4414 280.192 91.9521 279.981 91.3896C279.771 90.8271 279.665 90.2207 279.665 89.5703V89.2188C279.665 88.4746 279.773 87.8008 279.99 87.1973C280.207 86.5938 280.509 86.0781 280.896 85.6504C281.282 85.2168 281.739 84.8857 282.267 84.6572C282.794 84.4287 283.365 84.3145 283.98 84.3145C284.66 84.3145 285.255 84.4287 285.765 84.6572C286.274 84.8857 286.696 85.208 287.03 85.624C287.37 86.0342 287.622 86.5234 287.786 87.0918C287.956 87.6602 288.041 88.2871 288.041 88.9727V89.8779H280.693V88.3574H285.949V88.1904C285.938 87.8096 285.861 87.4521 285.721 87.1182C285.586 86.7842 285.378 86.5146 285.097 86.3096C284.815 86.1045 284.44 86.002 283.972 86.002C283.62 86.002 283.307 86.0781 283.031 86.2305C282.762 86.377 282.536 86.5908 282.354 86.8721C282.173 87.1533 282.032 87.4932 281.933 87.8916C281.839 88.2842 281.792 88.7266 281.792 89.2188V89.5703C281.792 89.9863 281.848 90.373 281.959 90.7305C282.076 91.082 282.246 91.3896 282.469 91.6533C282.691 91.917 282.961 92.125 283.277 92.2773C283.594 92.4238 283.954 92.4971 284.358 92.4971C284.868 92.4971 285.322 92.3945 285.721 92.1895C286.119 91.9844 286.465 91.6943 286.758 91.3193L287.874 92.4004C287.669 92.6992 287.402 92.9863 287.074 93.2617C286.746 93.5312 286.345 93.751 285.87 93.9209C285.401 94.0908 284.856 94.1758 284.235 94.1758ZM294.053 84.4902V86.0371H288.691V84.4902H294.053ZM290.238 82.1611H292.356V91.3721C292.356 91.665 292.397 91.8906 292.479 92.0488C292.567 92.2012 292.688 92.3037 292.84 92.3564C292.992 92.4092 293.171 92.4355 293.376 92.4355C293.522 92.4355 293.663 92.4268 293.798 92.4092C293.933 92.3916 294.041 92.374 294.123 92.3564L294.132 93.9736C293.956 94.0264 293.751 94.0732 293.517 94.1143C293.288 94.1553 293.024 94.1758 292.726 94.1758C292.239 94.1758 291.809 94.0908 291.434 93.9209C291.059 93.7451 290.766 93.4609 290.555 93.0684C290.344 92.6758 290.238 92.1543 290.238 91.5039V82.1611ZM300.047 84.4902V86.0371H294.686V84.4902H300.047ZM296.232 82.1611H298.351V91.3721C298.351 91.665 298.392 91.8906 298.474 92.0488C298.562 92.2012 298.682 92.3037 298.834 92.3564C298.986 92.4092 299.165 92.4355 299.37 92.4355C299.517 92.4355 299.657 92.4268 299.792 92.4092C299.927 92.3916 300.035 92.374 300.117 92.3564L300.126 93.9736C299.95 94.0264 299.745 94.0732 299.511 94.1143C299.282 94.1553 299.019 94.1758 298.72 94.1758C298.233 94.1758 297.803 94.0908 297.428 93.9209C297.053 93.7451 296.76 93.4609 296.549 93.0684C296.338 92.6758 296.232 92.1543 296.232 91.5039V82.1611ZM304.125 81.2031L303.914 90.2295H302.104L301.884 81.2031H304.125ZM301.822 92.998C301.822 92.6758 301.928 92.4062 302.139 92.1895C302.355 91.9668 302.654 91.8555 303.035 91.8555C303.41 91.8555 303.706 91.9668 303.923 92.1895C304.14 92.4062 304.248 92.6758 304.248 92.998C304.248 93.3086 304.14 93.5752 303.923 93.7979C303.706 94.0146 303.41 94.123 303.035 94.123C302.654 94.123 302.355 94.0146 302.139 93.7979C301.928 93.5752 301.822 93.3086 301.822 92.998Z" fill="white"/>
<path d="M33.44 130.52C35.3067 130.52 36.92 130.867 38.28 131.56C39.64 132.227 40.6667 133.147 41.36 134.32C42.08 135.467 42.44 136.747 42.44 138.16C42.44 139.627 42.12 141.04 41.48 142.4C40.8667 143.76 39.8 145.293 38.28 147C36.7867 148.707 34.6 150.907 31.72 153.6H43.04L42.4 158H25.24V153.88C28.6 150.52 31.0267 148.013 32.52 146.36C34.0133 144.707 35.0667 143.307 35.68 142.16C36.2933 141.013 36.6 139.84 36.6 138.64C36.6 137.493 36.2667 136.587 35.6 135.92C34.9333 135.253 34.04 134.92 32.92 134.92C31.9333 134.92 31.0533 135.147 30.28 135.6C29.5067 136.027 28.6933 136.747 27.84 137.76L24.44 135.04C26.7333 132.027 29.7333 130.52 33.44 130.52ZM63.9944 149.08C64.3677 150.92 65.0477 152.267 66.0344 153.12C67.0477 153.973 68.3944 154.4 70.0744 154.4C71.861 154.4 73.781 153.84 75.8344 152.72V157.12C74.741 157.627 73.701 158 72.7144 158.24C71.7277 158.507 70.6477 158.64 69.4744 158.64C66.461 158.64 63.981 157.813 62.0344 156.16C60.1144 154.48 58.8477 152.12 58.2344 149.08H54.7544L55.5544 146H58.0744V143H54.7544L55.5544 139.88H58.2744C59.021 136.973 60.4077 134.693 62.4344 133.04C64.4877 131.36 66.901 130.52 69.6744 130.52C72.4477 130.52 74.9544 131.28 77.1944 132.8L75.1544 136.32C74.301 135.76 73.461 135.36 72.6344 135.12C71.8077 134.853 70.8877 134.72 69.8744 134.72C68.4877 134.72 67.301 135.147 66.3144 136C65.3277 136.853 64.5944 138.147 64.1144 139.88H73.9144L73.1144 143H63.8344V146H72.4744L71.7144 149.08H63.9944Z" fill="#FFE80D"/>
<path d="M91.54 138.695C92.24 138.695 92.845 138.825 93.355 139.085C93.865 139.335 94.25 139.68 94.51 140.12C94.78 140.55 94.915 141.03 94.915 141.56C94.915 142.11 94.795 142.64 94.555 143.15C94.325 143.66 93.925 144.235 93.355 144.875C92.795 145.515 91.975 146.34 90.895 147.35H95.14L94.9 149H88.465V147.455C89.725 146.195 90.635 145.255 91.195 144.635C91.755 144.015 92.15 143.49 92.38 143.06C92.61 142.63 92.725 142.19 92.725 141.74C92.725 141.31 92.6 140.97 92.35 140.72C92.1 140.47 91.765 140.345 91.345 140.345C90.975 140.345 90.645 140.43 90.355 140.6C90.065 140.76 89.76 141.03 89.44 141.41L88.165 140.39C89.025 139.26 90.15 138.695 91.54 138.695ZM102.518 137.645V149H100.388V137.885L102.518 137.645ZM107.348 141.05L104.813 144.545L107.573 149H105.158L102.593 144.65L105.143 141.05H107.348ZM114.911 149H113.066L112.961 147.935C112.681 148.375 112.341 148.705 111.941 148.925C111.541 149.135 111.076 149.24 110.546 149.24C109.826 149.24 109.276 149.025 108.896 148.595C108.516 148.155 108.326 147.545 108.326 146.765V141.05H110.456V146.495C110.456 146.915 110.526 147.215 110.666 147.395C110.806 147.565 111.026 147.65 111.326 147.65C111.896 147.65 112.381 147.305 112.781 146.615V141.05H114.911V149ZM123.524 149H121.679L121.574 147.935C121.294 148.375 120.954 148.705 120.554 148.925C120.154 149.135 119.689 149.24 119.159 149.24C118.439 149.24 117.889 149.025 117.509 148.595C117.129 148.155 116.939 147.545 116.939 146.765V141.05H119.069V146.495C119.069 146.915 119.139 147.215 119.279 147.395C119.419 147.565 119.639 147.65 119.939 147.65C120.509 147.65 120.994 147.305 121.394 146.615V141.05H123.524V149ZM132.512 137.885V149H130.637L130.517 148.025C129.957 148.835 129.197 149.24 128.237 149.24C127.257 149.24 126.507 148.865 125.987 148.115C125.477 147.355 125.222 146.325 125.222 145.025C125.222 144.205 125.352 143.48 125.612 142.85C125.882 142.21 126.262 141.71 126.752 141.35C127.242 140.99 127.807 140.81 128.447 140.81C129.187 140.81 129.832 141.075 130.382 141.605V137.645L132.512 137.885ZM128.867 147.65C129.177 147.65 129.452 147.575 129.692 147.425C129.932 147.265 130.162 147.02 130.382 146.69V143.135C130.172 142.885 129.957 142.7 129.737 142.58C129.527 142.45 129.282 142.385 129.002 142.385C128.512 142.385 128.127 142.6 127.847 143.03C127.577 143.46 127.442 144.125 127.442 145.025C127.442 145.975 127.562 146.65 127.802 147.05C128.052 147.45 128.407 147.65 128.867 147.65Z" fill="white"/>
<rect x="225" y="128" width="81" height="32" rx="8" fill="#AF0510"/>
<path d="M249.624 138.412L249.368 140.428H246.632V149.5H244.008V140.428H241.144V138.412H249.624ZM257.481 138.412L257.209 140.284H253.305V142.94H256.713V144.78H253.305V147.612H257.481V149.5H250.681V138.412H257.481ZM261.727 138.412V147.42H266.047L265.775 149.5H259.103V138.412H261.727ZM269.93 138.412V147.42H274.25L273.978 149.5H267.306V138.412H269.93ZM278.133 138.412V149.5H275.509V138.412H278.133ZM288.74 149.5H285.396L282.196 140.908C282.303 141.751 282.383 142.497 282.436 143.148C282.5 143.788 282.532 144.551 282.532 145.436V149.5H280.196V138.412H283.46L286.74 147.02C286.506 145.559 286.388 144.183 286.388 142.892V138.412H288.74V149.5Z" fill="#FFE80D"/>
</svg>
