<svg width="740" height="400" viewBox="0 0 740 400" fill="none" xmlns="http://www.w3.org/2000/svg">
<rect width="740" height="400" fill="#FFEBC4"/>
<path d="M64.1871 48.9934C68.9871 48.9934 73.1471 49.6974 76.6671 51.1054C80.2511 52.4494 83.5471 54.5294 86.5551 57.3454L79.8351 65.1214C77.4671 63.2014 75.0991 61.7934 72.7311 60.8974C70.3631 60.0014 67.8351 59.5534 65.1471 59.5534C62.2031 59.5534 59.8351 60.1934 58.0431 61.4734C56.3151 62.6894 55.4511 64.4494 55.4511 66.7534C55.4511 68.3534 55.8031 69.6654 56.5071 70.6894C57.2751 71.7134 58.5871 72.6734 60.4431 73.5694C62.2991 74.4654 65.0831 75.4894 68.7951 76.6414C75.3871 78.7534 80.3151 81.3774 83.5791 84.5134C86.8431 87.5854 88.4751 92.0014 88.4751 97.7614C88.4751 101.857 87.4511 105.473 85.4031 108.609C83.3551 111.681 80.3791 114.113 76.4751 115.905C72.5711 117.633 67.9951 118.497 62.7471 118.497C57.4991 118.497 52.8271 117.665 48.7311 116.001C44.6351 114.337 41.1151 112.065 38.1711 109.185L45.3711 101.217C47.9311 103.393 50.5871 105.057 53.3391 106.209C56.0911 107.297 59.0991 107.841 62.3631 107.841C65.8191 107.841 68.5711 107.041 70.6191 105.441C72.7311 103.841 73.7871 101.601 73.7871 98.7214C73.7871 96.9294 73.4031 95.4574 72.6351 94.3054C71.9311 93.0894 70.6831 92.0014 68.8911 91.0414C67.0991 90.0814 64.5071 89.0894 61.1151 88.0654C53.8831 85.8254 48.6991 83.1374 45.5631 80.0014C42.4911 76.8654 40.9551 72.7694 40.9551 67.7134C40.9551 64.0014 41.9471 60.7374 43.9311 57.9214C45.9151 55.0414 48.6671 52.8334 52.1871 51.2974C55.7071 49.7614 59.7071 48.9934 64.1871 48.9934ZM116.932 64.5454C124.548 64.5454 130.5 66.9454 134.788 71.7454C139.076 76.4814 141.22 83.0734 141.22 91.5214C141.22 96.8974 140.228 101.633 138.244 105.729C136.324 109.761 133.508 112.897 129.796 115.137C126.148 117.377 121.828 118.497 116.836 118.497C109.22 118.497 103.236 116.129 98.8843 111.393C94.5963 106.593 92.4523 99.9694 92.4523 91.5214C92.4523 86.1454 93.4123 81.4414 95.3323 77.4094C97.3163 73.3134 100.132 70.1454 103.78 67.9054C107.492 65.6654 111.876 64.5454 116.932 64.5454ZM116.932 74.7214C113.476 74.7214 110.884 76.0974 109.156 78.8494C107.492 81.5374 106.66 85.7614 106.66 91.5214C106.66 97.2814 107.492 101.537 109.156 104.289C110.884 106.977 113.444 108.321 116.836 108.321C120.228 108.321 122.756 106.977 124.42 104.289C126.148 101.537 127.012 97.2814 127.012 91.5214C127.012 85.7614 126.18 81.5374 124.516 78.8494C122.852 76.0974 120.324 74.7214 116.932 74.7214ZM122.404 55.5214C121.06 55.5214 119.876 55.2974 118.852 54.8494C117.892 54.4014 116.74 53.7614 115.396 52.9294C114.564 52.2894 113.828 51.8414 113.188 51.5854C112.612 51.2654 112.004 51.1054 111.364 51.1054C110.34 51.1054 109.444 51.4574 108.676 52.1614C107.908 52.8654 107.108 53.9534 106.276 55.4254L99.2683 51.9694C100.548 48.8334 102.212 46.2734 104.26 44.2894C106.308 42.3054 108.612 41.3134 111.172 41.3134C112.644 41.3134 113.892 41.5694 114.916 42.0814C115.94 42.5294 117.092 43.1694 118.372 44.0014C119.204 44.5774 119.908 45.0254 120.484 45.3454C121.06 45.6014 121.668 45.7294 122.308 45.7294C123.332 45.7294 124.196 45.4094 124.9 44.7694C125.668 44.0654 126.5 42.9774 127.396 41.5054L134.404 44.9614C133.124 48.2254 131.46 50.8174 129.412 52.7374C127.364 54.5934 125.028 55.5214 122.404 55.5214ZM176.739 64.5454C182.691 64.5454 187.299 66.9134 190.563 71.6494C193.891 76.3854 195.555 83.0094 195.555 91.5214C195.555 96.7694 194.723 101.441 193.059 105.537C191.459 109.569 189.123 112.737 186.051 115.041C183.043 117.345 179.491 118.497 175.395 118.497C169.827 118.497 165.379 116.321 162.051 111.969L161.283 116.961H149.187V45.8254L162.819 44.2894V71.5534C164.419 69.3774 166.435 67.6814 168.867 66.4654C171.299 65.1854 173.923 64.5454 176.739 64.5454ZM171.555 108.417C178.083 108.417 181.347 102.785 181.347 91.5214C181.347 85.3134 180.547 80.9614 178.947 78.4654C177.411 75.9054 175.171 74.6254 172.227 74.6254C168.579 74.6254 165.443 76.8014 162.819 81.1534V102.945C165.059 106.593 167.971 108.417 171.555 108.417ZM230.278 64.6414C231.814 64.6414 233.51 64.8974 235.366 65.4094L233.062 78.5614C231.27 78.1134 229.766 77.8894 228.55 77.8894C225.542 77.8894 223.206 78.9454 221.542 81.0574C219.878 83.1694 218.566 86.3694 217.606 90.6574V116.961H203.974V66.0814H215.782L217.03 75.9694C218.246 72.3854 220.006 69.6014 222.31 67.6174C224.678 65.6334 227.334 64.6414 230.278 64.6414ZM275.236 102.849C275.236 104.833 275.524 106.305 276.1 107.265C276.676 108.161 277.636 108.833 278.98 109.281L276.1 118.305C273.092 118.049 270.628 117.345 268.708 116.193C266.852 115.041 265.412 113.249 264.388 110.817C261.06 115.937 255.972 118.497 249.124 118.497C244.068 118.497 240.036 117.057 237.028 114.177C234.084 111.233 232.612 107.425 232.612 102.753C232.612 97.1854 234.628 92.9294 238.66 89.9854C242.692 87.0414 248.484 85.5694 256.036 85.5694H261.892V83.0734C261.892 79.9374 261.188 77.7614 259.78 76.5454C258.372 75.3294 256.036 74.7214 252.772 74.7214C249.188 74.7214 244.708 75.6174 239.332 77.4094L236.26 68.2894C242.596 65.7934 248.868 64.5454 255.076 64.5454C261.988 64.5454 267.076 66.0494 270.34 69.0574C273.604 72.0014 275.236 76.4174 275.236 82.3054V102.849ZM252.868 108.705C256.708 108.705 259.716 106.817 261.892 103.041V93.3454H257.38C250.02 93.3454 246.34 96.0974 246.34 101.601C246.34 103.841 246.884 105.601 247.972 106.881C249.124 108.097 250.756 108.705 252.868 108.705ZM330.52 45.8254V116.961H318.52L317.752 110.721C314.168 115.905 309.304 118.497 303.16 118.497C296.888 118.497 292.088 116.097 288.76 111.297C285.496 106.433 283.864 99.8414 283.864 91.5214C283.864 86.2734 284.696 81.6334 286.36 77.6014C288.088 73.5054 290.52 70.3054 293.656 68.0014C296.792 65.6974 300.408 64.5454 304.504 64.5454C309.24 64.5454 313.368 66.2414 316.888 69.6334V44.2894L330.52 45.8254ZM307.192 108.321C309.176 108.321 310.936 107.841 312.472 106.881C314.008 105.857 315.48 104.289 316.888 102.177V79.4254C315.544 77.8254 314.168 76.6414 312.76 75.8734C311.416 75.0414 309.848 74.6254 308.056 74.6254C304.92 74.6254 302.456 76.0014 300.664 78.7534C298.936 81.5054 298.072 85.7614 298.072 91.5214C298.072 97.6014 298.84 101.921 300.376 104.481C301.976 107.041 304.248 108.321 307.192 108.321ZM375.234 118.497C371.074 118.497 367.842 117.313 365.538 114.945C363.234 112.513 362.082 109.089 362.082 104.673V45.8254L375.714 44.2894V104.289C375.714 106.529 376.642 107.649 378.498 107.649C379.522 107.649 380.418 107.457 381.186 107.073L383.97 116.769C381.346 117.921 378.434 118.497 375.234 118.497ZM409.507 64.5454C417.123 64.5454 423.075 66.9454 427.363 71.7454C431.651 76.4814 433.795 83.0734 433.795 91.5214C433.795 96.8974 432.803 101.633 430.819 105.729C428.899 109.761 426.083 112.897 422.371 115.137C418.723 117.377 414.403 118.497 409.411 118.497C401.795 118.497 395.811 116.129 391.459 111.393C387.171 106.593 385.027 99.9694 385.027 91.5214C385.027 86.1454 385.987 81.4414 387.907 77.4094C389.891 73.3134 392.707 70.1454 396.355 67.9054C400.067 65.6654 404.451 64.5454 409.507 64.5454ZM409.507 74.7214C406.051 74.7214 403.459 76.0974 401.731 78.8494C400.067 81.5374 399.235 85.7614 399.235 91.5214C399.235 97.2814 400.067 101.537 401.731 104.289C403.459 106.977 406.019 108.321 409.411 108.321C412.803 108.321 415.331 106.977 416.995 104.289C418.723 101.537 419.587 97.2814 419.587 91.5214C419.587 85.7614 418.755 81.5374 417.091 78.8494C415.427 76.0974 412.899 74.7214 409.507 74.7214ZM484.77 90.3694C484.77 91.0094 484.674 92.7694 484.482 95.6494H452.706C453.154 100.257 454.402 103.521 456.45 105.441C458.498 107.361 461.282 108.321 464.802 108.321C466.978 108.321 469.026 107.969 470.946 107.265C472.866 106.561 474.946 105.441 477.186 103.905L482.85 111.585C477.154 116.193 470.722 118.497 463.554 118.497C455.554 118.497 449.41 116.097 445.122 111.297C440.834 106.497 438.69 100.001 438.69 91.8094C438.69 86.6254 439.586 81.9854 441.378 77.8894C443.234 73.7294 445.89 70.4654 449.346 68.0974C452.866 65.7294 457.026 64.5454 461.826 64.5454C469.058 64.5454 474.69 66.8174 478.722 71.3614C482.754 75.9054 484.77 82.2414 484.77 90.3694ZM471.234 86.5294C471.234 78.0814 468.194 73.8574 462.114 73.8574C459.298 73.8574 457.09 74.9134 455.49 77.0254C453.954 79.0734 453.026 82.4334 452.706 87.1054H471.234V86.5294ZM533.821 66.0814L517.501 116.961H501.277L484.669 66.0814H499.453L509.533 106.305L519.805 66.0814H533.821ZM574.936 102.849C574.936 104.833 575.224 106.305 575.8 107.265C576.376 108.161 577.336 108.833 578.68 109.281L575.8 118.305C572.792 118.049 570.328 117.345 568.408 116.193C566.552 115.041 565.112 113.249 564.088 110.817C560.76 115.937 555.672 118.497 548.824 118.497C543.768 118.497 539.736 117.057 536.728 114.177C533.784 111.233 532.312 107.425 532.312 102.753C532.312 97.1854 534.328 92.9294 538.36 89.9854C542.392 87.0414 548.184 85.5694 555.736 85.5694H561.592V83.0734C561.592 79.9374 560.888 77.7614 559.48 76.5454C558.072 75.3294 555.736 74.7214 552.472 74.7214C548.888 74.7214 544.408 75.6174 539.032 77.4094L535.96 68.2894C542.296 65.7934 548.568 64.5454 554.776 64.5454C561.688 64.5454 566.776 66.0494 570.04 69.0574C573.304 72.0014 574.936 76.4174 574.936 82.3054V102.849ZM552.568 108.705C556.408 108.705 559.416 106.817 561.592 103.041V93.3454H557.08C549.72 93.3454 546.04 96.0974 546.04 101.601C546.04 103.841 546.584 105.601 547.672 106.881C548.824 108.097 550.456 108.705 552.568 108.705ZM630.22 45.8254V116.961H618.22L617.452 110.721C613.868 115.905 609.004 118.497 602.86 118.497C596.588 118.497 591.788 116.097 588.46 111.297C585.196 106.433 583.564 99.8414 583.564 91.5214C583.564 86.2734 584.396 81.6334 586.06 77.6014C587.788 73.5054 590.22 70.3054 593.356 68.0014C596.492 65.6974 600.108 64.5454 604.204 64.5454C608.94 64.5454 613.068 66.2414 616.588 69.6334V44.2894L630.22 45.8254ZM606.892 108.321C608.876 108.321 610.636 107.841 612.172 106.881C613.708 105.857 615.18 104.289 616.588 102.177V79.4254C615.244 77.8254 613.868 76.6414 612.46 75.8734C611.116 75.0414 609.548 74.6254 607.756 74.6254C604.62 74.6254 602.156 76.0014 600.364 78.7534C598.636 81.5054 597.772 85.7614 597.772 91.5214C597.772 97.6014 598.54 101.921 600.076 104.481C601.676 107.041 603.948 108.321 606.892 108.321ZM653.224 50.5294L651.592 93.0574H640.456L638.632 50.5294H653.224ZM646.024 102.081C648.328 102.081 650.28 102.881 651.88 104.481C653.48 106.081 654.28 108.001 654.28 110.241C654.28 112.481 653.48 114.433 651.88 116.097C650.28 117.697 648.328 118.497 646.024 118.497C643.784 118.497 641.864 117.697 640.264 116.097C638.664 114.433 637.864 112.481 637.864 110.241C637.864 108.001 638.664 106.081 640.264 104.481C641.864 102.881 643.784 102.081 646.024 102.081Z" fill="#E3000F"/>
<path d="M62.5424 157.871C62.5424 160.666 62.031 163.069 61.0083 165.081C59.9856 167.084 58.5836 168.626 56.8023 169.709C55.0296 170.782 53.014 171.319 50.7555 171.319C48.4884 171.319 46.4643 170.782 44.683 169.709C42.9103 168.626 41.5126 167.079 40.4898 165.068C39.4671 163.057 38.9557 160.657 38.9557 157.871C38.9557 155.075 39.4671 152.676 40.4898 150.673C41.5126 148.662 42.9103 147.119 44.683 146.045C46.4643 144.963 48.4884 144.422 50.7555 144.422C53.014 144.422 55.0296 144.963 56.8023 146.045C58.5836 147.119 59.9856 148.662 61.0083 150.673C62.031 152.676 62.5424 155.075 62.5424 157.871ZM58.6305 157.871C58.6305 155.74 58.2853 153.946 57.5949 152.488C56.9131 151.023 55.9756 149.915 54.7824 149.165C53.5978 148.406 52.2555 148.027 50.7555 148.027C49.2469 148.027 47.9003 148.406 46.7157 149.165C45.531 149.915 44.5935 151.023 43.9032 152.488C43.2214 153.946 42.8805 155.74 42.8805 157.871C42.8805 160.001 43.2214 161.799 43.9032 163.265C44.5935 164.723 45.531 165.831 46.7157 166.589C47.9003 167.339 49.2469 167.714 50.7555 167.714C52.2555 167.714 53.5978 167.339 54.7824 166.589C55.9756 165.831 56.9131 164.723 57.5949 163.265C58.2853 161.799 58.6305 160.001 58.6305 157.871ZM46.9074 142.184L44.3251 142.095C44.3251 140.689 44.7086 139.564 45.4756 138.72C46.2427 137.876 47.1844 137.45 48.3009 137.442C48.8293 137.442 49.2895 137.531 49.6816 137.71C50.0736 137.88 50.4401 138.081 50.781 138.311C51.1219 138.541 51.4671 138.746 51.8165 138.924C52.166 139.095 52.5537 139.18 52.9799 139.18C53.4657 139.172 53.862 138.984 54.1688 138.618C54.4841 138.243 54.6418 137.778 54.6418 137.224L57.1731 137.39C57.1645 138.814 56.7768 139.934 56.0097 140.753C55.2512 141.562 54.3137 141.967 53.1972 141.967C52.5921 141.967 52.0893 141.882 51.6887 141.711C51.2881 141.532 50.9344 141.332 50.6276 141.111C50.3208 140.88 50.0055 140.68 49.6816 140.51C49.3577 140.331 48.9699 140.241 48.5182 140.241C48.0495 140.241 47.6617 140.424 47.3549 140.791C47.0566 141.157 46.9074 141.622 46.9074 142.184ZM70.0831 159.302V170.961H66.2606V144.78H70.0319V154.521H70.2748C70.7351 153.464 71.4382 152.625 72.3842 152.003C73.3302 151.38 74.566 151.069 76.0916 151.069C77.4382 151.069 78.6143 151.346 79.62 151.9C80.6342 152.454 81.4183 153.281 81.9723 154.38C82.5348 155.471 82.816 156.835 82.816 158.471V170.961H78.9936V158.932C78.9936 157.491 78.6229 156.375 77.8814 155.582C77.1399 154.781 76.1086 154.38 74.7876 154.38C73.8842 154.38 73.0746 154.572 72.3586 154.956C71.6513 155.339 71.093 155.902 70.6839 156.643C70.2834 157.376 70.0831 158.263 70.0831 159.302ZM96.1831 151.325V154.393H85.4572V151.325H96.1831ZM88.3336 146.621H92.1561V165.196C92.1561 165.937 92.2669 166.496 92.4885 166.871C92.7101 167.237 92.9956 167.488 93.345 167.625C93.703 167.753 94.0908 167.817 94.5084 167.817C94.8152 167.817 95.0836 167.795 95.3138 167.753C95.5439 167.71 95.7229 167.676 95.8507 167.65L96.541 170.808C96.3194 170.893 96.0041 170.978 95.595 171.064C95.1859 171.157 94.6746 171.209 94.0609 171.217C93.0552 171.234 92.1177 171.055 91.2484 170.68C90.3791 170.305 89.676 169.726 89.139 168.942C88.6021 168.157 88.3336 167.173 88.3336 165.988V146.621ZM111.95 162.818V151.325H115.786V170.961H112.027V167.561H111.822C111.371 168.609 110.646 169.483 109.649 170.182C108.661 170.872 107.429 171.217 105.955 171.217C104.693 171.217 103.577 170.94 102.605 170.386C101.642 169.824 100.884 168.993 100.33 167.893C99.7841 166.794 99.5114 165.434 99.5114 163.815V151.325H103.334V163.355C103.334 164.693 103.705 165.758 104.446 166.551C105.188 167.344 106.151 167.74 107.335 167.74C108.051 167.74 108.763 167.561 109.47 167.203C110.186 166.845 110.778 166.304 111.247 165.579C111.724 164.855 111.959 163.934 111.95 162.818ZM123.844 144.78V170.961H120.022V144.78H123.844ZM136.549 171.358C134.615 171.358 132.949 170.944 131.551 170.118C130.162 169.282 129.088 168.111 128.329 166.602C127.579 165.085 127.204 163.308 127.204 161.271C127.204 159.26 127.579 157.487 128.329 155.953C129.088 154.419 130.145 153.221 131.5 152.361C132.863 151.5 134.457 151.069 136.281 151.069C137.389 151.069 138.463 151.253 139.503 151.619C140.542 151.986 141.476 152.561 142.302 153.345C143.129 154.129 143.781 155.148 144.258 156.4C144.736 157.645 144.974 159.157 144.974 160.939V162.294H129.365V159.43H141.228C141.228 158.424 141.024 157.534 140.615 156.758C140.206 155.974 139.63 155.356 138.889 154.905C138.156 154.453 137.295 154.227 136.307 154.227C135.233 154.227 134.295 154.491 133.494 155.02C132.701 155.54 132.088 156.221 131.653 157.065C131.227 157.9 131.014 158.808 131.014 159.788V162.025C131.014 163.338 131.244 164.454 131.704 165.375C132.173 166.295 132.825 166.998 133.66 167.484C134.496 167.961 135.471 168.2 136.588 168.2C137.312 168.2 137.973 168.098 138.569 167.893C139.166 167.68 139.682 167.365 140.116 166.947C140.551 166.53 140.883 166.014 141.113 165.4L144.731 166.052C144.442 167.118 143.922 168.051 143.172 168.852C142.43 169.645 141.497 170.263 140.372 170.706C139.255 171.14 137.981 171.358 136.549 171.358ZM152.138 159.302V170.961H148.315V144.78H152.087V154.521H152.33C152.79 153.464 153.493 152.625 154.439 152.003C155.385 151.38 156.621 151.069 158.146 151.069C159.493 151.069 160.669 151.346 161.675 151.9C162.689 152.454 163.473 153.281 164.027 154.38C164.589 155.471 164.871 156.835 164.871 158.471V170.961H161.048V158.932C161.048 157.491 160.678 156.375 159.936 155.582C159.195 154.781 158.163 154.38 156.842 154.38C155.939 154.38 155.129 154.572 154.413 154.956C153.706 155.339 153.148 155.902 152.739 156.643C152.338 157.376 152.138 158.263 152.138 159.302ZM178.238 151.325V154.393H167.512V151.325H178.238ZM170.388 146.621H174.211V165.196C174.211 165.937 174.322 166.496 174.543 166.871C174.765 167.237 175.05 167.488 175.4 167.625C175.758 167.753 176.145 167.817 176.563 167.817C176.87 167.817 177.138 167.795 177.368 167.753C177.599 167.71 177.778 167.676 177.905 167.65L178.596 170.808C178.374 170.893 178.059 170.978 177.65 171.064C177.241 171.157 176.729 171.209 176.116 171.217C175.11 171.234 174.172 171.055 173.303 170.68C172.434 170.305 171.731 169.726 171.194 168.942C170.657 168.157 170.388 167.173 170.388 165.988V146.621ZM190.5 170.961V144.78H194.451V157.282H194.77L205.752 144.78H210.725L200.165 156.567L210.763 170.961H206.007L197.544 159.264L194.451 162.818V170.961H190.5ZM214.43 170.961V151.325H218.253V170.961H214.43ZM216.361 148.295C215.696 148.295 215.125 148.074 214.647 147.63C214.179 147.179 213.944 146.642 213.944 146.02C213.944 145.389 214.179 144.852 214.647 144.409C215.125 143.957 215.696 143.731 216.361 143.731C217.025 143.731 217.592 143.957 218.061 144.409C218.538 144.852 218.777 145.389 218.777 146.02C218.777 146.642 218.538 147.179 218.061 147.63C217.592 148.074 217.025 148.295 216.361 148.295ZM222.495 170.961V151.325H226.19V154.444H226.394C226.752 153.388 227.383 152.557 228.286 151.951C229.198 151.338 230.229 151.031 231.38 151.031C231.619 151.031 231.9 151.04 232.224 151.057C232.556 151.074 232.816 151.095 233.004 151.121V154.777C232.85 154.734 232.577 154.687 232.185 154.636C231.793 154.576 231.401 154.547 231.009 154.547C230.106 154.547 229.3 154.738 228.593 155.122C227.894 155.497 227.34 156.021 226.931 156.694C226.522 157.359 226.317 158.118 226.317 158.97V170.961H222.495ZM235.411 151.325H239.234V172.24C239.234 173.552 238.995 174.66 238.518 175.564C238.049 176.467 237.35 177.153 236.421 177.622C235.501 178.091 234.363 178.325 233.008 178.325C232.872 178.325 232.744 178.325 232.624 178.325C232.497 178.325 232.365 178.321 232.228 178.312V175.027C232.347 175.027 232.454 175.027 232.548 175.027C232.633 175.027 232.731 175.027 232.842 175.027C233.745 175.027 234.397 174.784 234.798 174.298C235.207 173.821 235.411 173.126 235.411 172.214V151.325ZM237.303 148.295C236.639 148.295 236.068 148.074 235.59 147.63C235.122 147.179 234.887 146.642 234.887 146.02C234.887 145.389 235.122 144.852 235.59 144.409C236.068 143.957 236.639 143.731 237.303 143.731C237.968 143.731 238.535 143.957 239.004 144.409C239.481 144.852 239.72 145.389 239.72 146.02C239.72 146.642 239.481 147.179 239.004 147.63C238.535 148.074 237.968 148.295 237.303 148.295ZM249.191 171.396C247.946 171.396 246.821 171.166 245.816 170.706C244.81 170.237 244.013 169.559 243.425 168.673C242.846 167.787 242.556 166.7 242.556 165.413C242.556 164.305 242.769 163.393 243.195 162.677C243.621 161.961 244.196 161.395 244.921 160.977C245.645 160.559 246.455 160.244 247.35 160.031C248.245 159.818 249.157 159.656 250.086 159.545C251.262 159.409 252.216 159.298 252.949 159.213C253.682 159.119 254.215 158.97 254.547 158.765C254.88 158.561 255.046 158.228 255.046 157.768V157.679C255.046 156.562 254.731 155.697 254.1 155.084C253.478 154.47 252.549 154.163 251.313 154.163C250.026 154.163 249.012 154.449 248.27 155.02C247.537 155.582 247.03 156.209 246.749 156.899L243.157 156.081C243.583 154.888 244.205 153.924 245.023 153.192C245.85 152.45 246.8 151.913 247.874 151.581C248.948 151.24 250.077 151.069 251.262 151.069C252.046 151.069 252.877 151.163 253.755 151.351C254.641 151.53 255.468 151.862 256.235 152.348C257.01 152.834 257.645 153.528 258.14 154.432C258.634 155.326 258.881 156.49 258.881 157.922V170.961H255.148V168.277H254.995C254.748 168.771 254.377 169.257 253.883 169.734C253.388 170.211 252.753 170.608 251.978 170.923C251.202 171.238 250.273 171.396 249.191 171.396ZM250.022 168.328C251.079 168.328 251.982 168.119 252.732 167.701C253.49 167.284 254.066 166.738 254.458 166.065C254.858 165.383 255.059 164.655 255.059 163.879V161.348C254.922 161.484 254.658 161.612 254.266 161.731C253.883 161.842 253.444 161.94 252.949 162.025C252.455 162.102 251.973 162.174 251.505 162.243C251.036 162.302 250.644 162.353 250.329 162.396C249.587 162.49 248.91 162.648 248.296 162.869C247.691 163.091 247.205 163.41 246.838 163.828C246.481 164.237 246.302 164.782 246.302 165.464C246.302 166.41 246.651 167.126 247.35 167.612C248.049 168.089 248.939 168.328 250.022 168.328ZM277.787 156.119L274.322 156.733C274.177 156.29 273.947 155.868 273.632 155.467C273.325 155.067 272.908 154.738 272.379 154.483C271.851 154.227 271.19 154.099 270.398 154.099C269.315 154.099 268.412 154.342 267.687 154.828C266.963 155.305 266.601 155.923 266.601 156.682C266.601 157.338 266.844 157.866 267.329 158.267C267.815 158.667 268.599 158.996 269.682 159.251L272.801 159.967C274.608 160.385 275.954 161.028 276.841 161.898C277.727 162.767 278.17 163.896 278.17 165.285C278.17 166.461 277.829 167.51 277.148 168.43C276.474 169.342 275.533 170.058 274.322 170.578C273.121 171.098 271.727 171.358 270.142 171.358C267.943 171.358 266.149 170.889 264.76 169.951C263.371 169.005 262.518 167.663 262.203 165.924L265.898 165.362C266.128 166.325 266.601 167.054 267.317 167.548C268.033 168.034 268.966 168.277 270.116 168.277C271.369 168.277 272.371 168.017 273.121 167.497C273.871 166.969 274.246 166.325 274.246 165.567C274.246 164.953 274.016 164.437 273.555 164.02C273.104 163.602 272.409 163.287 271.471 163.074L268.148 162.345C266.315 161.927 264.96 161.263 264.082 160.351C263.213 159.439 262.778 158.284 262.778 156.886C262.778 155.727 263.102 154.713 263.75 153.844C264.398 152.974 265.293 152.297 266.435 151.811C267.577 151.317 268.885 151.069 270.359 151.069C272.481 151.069 274.152 151.53 275.371 152.45C276.589 153.362 277.395 154.585 277.787 156.119ZM290.639 151.325V154.393H279.913V151.325H290.639ZM282.79 146.621H286.612V165.196C286.612 165.937 286.723 166.496 286.945 166.871C287.166 167.237 287.452 167.488 287.801 167.625C288.159 167.753 288.547 167.817 288.965 167.817C289.271 167.817 289.54 167.795 289.77 167.753C290 167.71 290.179 167.676 290.307 167.65L290.997 170.808C290.776 170.893 290.46 170.978 290.051 171.064C289.642 171.157 289.131 171.209 288.517 171.217C287.511 171.234 286.574 171.055 285.705 170.68C284.835 170.305 284.132 169.726 283.595 168.942C283.058 168.157 282.79 167.173 282.79 165.988V146.621ZM306.407 162.818V151.325H310.242V170.961H306.483V167.561H306.279C305.827 168.609 305.103 169.483 304.105 170.182C303.117 170.872 301.885 171.217 300.411 171.217C299.149 171.217 298.033 170.94 297.061 170.386C296.098 169.824 295.34 168.993 294.786 167.893C294.24 166.794 293.968 165.434 293.968 163.815V151.325H297.79V163.355C297.79 164.693 298.161 165.758 298.902 166.551C299.644 167.344 300.607 167.74 301.792 167.74C302.507 167.74 303.219 167.561 303.926 167.203C304.642 166.845 305.235 166.304 305.703 165.579C306.181 164.855 306.415 163.934 306.407 162.818ZM329.192 156.119L325.728 156.733C325.583 156.29 325.353 155.868 325.037 155.467C324.731 155.067 324.313 154.738 323.785 154.483C323.256 154.227 322.596 154.099 321.803 154.099C320.721 154.099 319.817 154.342 319.093 154.828C318.368 155.305 318.006 155.923 318.006 156.682C318.006 157.338 318.249 157.866 318.735 158.267C319.221 158.667 320.005 158.996 321.087 159.251L324.207 159.967C326.013 160.385 327.36 161.028 328.246 161.898C329.133 162.767 329.576 163.896 329.576 165.285C329.576 166.461 329.235 167.51 328.553 168.43C327.88 169.342 326.938 170.058 325.728 170.578C324.526 171.098 323.133 171.358 321.547 171.358C319.349 171.358 317.555 170.889 316.165 169.951C314.776 169.005 313.924 167.663 313.609 165.924L317.303 165.362C317.533 166.325 318.006 167.054 318.722 167.548C319.438 168.034 320.371 168.277 321.522 168.277C322.775 168.277 323.776 168.017 324.526 167.497C325.276 166.969 325.651 166.325 325.651 165.567C325.651 164.953 325.421 164.437 324.961 164.02C324.509 163.602 323.814 163.287 322.877 163.074L319.553 162.345C317.721 161.927 316.366 161.263 315.488 160.351C314.618 159.439 314.184 158.284 314.184 156.886C314.184 155.727 314.508 154.713 315.155 153.844C315.803 152.974 316.698 152.297 317.84 151.811C318.982 151.317 320.29 151.069 321.765 151.069C323.887 151.069 325.557 151.53 326.776 152.45C327.995 153.362 328.8 154.585 329.192 156.119ZM341.342 171.358C339.407 171.358 337.741 170.944 336.343 170.118C334.954 169.282 333.88 168.111 333.121 166.602C332.371 165.085 331.996 163.308 331.996 161.271C331.996 159.26 332.371 157.487 333.121 155.953C333.88 154.419 334.937 153.221 336.292 152.361C337.656 151.5 339.249 151.069 341.073 151.069C342.181 151.069 343.255 151.253 344.295 151.619C345.335 151.986 346.268 152.561 347.095 153.345C347.921 154.129 348.573 155.148 349.05 156.4C349.528 157.645 349.766 159.157 349.766 160.939V162.294H334.157V159.43H346.021C346.021 158.424 345.816 157.534 345.407 156.758C344.998 155.974 344.423 155.356 343.681 154.905C342.948 154.453 342.087 154.227 341.099 154.227C340.025 154.227 339.087 154.491 338.286 155.02C337.494 155.54 336.88 156.221 336.445 157.065C336.019 157.9 335.806 158.808 335.806 159.788V162.025C335.806 163.338 336.036 164.454 336.496 165.375C336.965 166.295 337.617 166.998 338.452 167.484C339.288 167.961 340.264 168.2 341.38 168.2C342.104 168.2 342.765 168.098 343.362 167.893C343.958 167.68 344.474 167.365 344.908 166.947C345.343 166.53 345.675 166.014 345.906 165.4L349.523 166.052C349.234 167.118 348.714 168.051 347.964 168.852C347.222 169.645 346.289 170.263 345.164 170.706C344.048 171.14 342.773 171.358 341.342 171.358ZM369.086 171.345C367.5 171.345 366.086 170.94 364.841 170.13C363.606 169.312 362.634 168.149 361.927 166.64C361.228 165.123 360.878 163.304 360.878 161.182C360.878 159.059 361.232 157.244 361.939 155.736C362.655 154.227 363.635 153.072 364.88 152.271C366.124 151.47 367.535 151.069 369.111 151.069C370.33 151.069 371.31 151.274 372.052 151.683C372.802 152.084 373.381 152.552 373.79 153.089C374.208 153.626 374.532 154.099 374.762 154.508H374.992V144.78H378.814V170.961H375.081V167.906H374.762C374.532 168.324 374.199 168.801 373.765 169.338C373.339 169.875 372.75 170.344 372 170.744C371.25 171.145 370.279 171.345 369.086 171.345ZM369.929 168.085C371.029 168.085 371.958 167.795 372.716 167.216C373.483 166.628 374.063 165.814 374.455 164.774C374.856 163.734 375.056 162.524 375.056 161.143C375.056 159.78 374.86 158.586 374.468 157.564C374.076 156.541 373.5 155.744 372.742 155.173C371.983 154.602 371.046 154.317 369.929 154.317C368.779 154.317 367.82 154.615 367.053 155.211C366.286 155.808 365.706 156.622 365.314 157.653C364.931 158.684 364.739 159.848 364.739 161.143C364.739 162.456 364.935 163.636 365.327 164.684C365.719 165.733 366.299 166.564 367.066 167.177C367.841 167.782 368.796 168.085 369.929 168.085ZM383.37 170.961V151.325H387.192V170.961H383.37ZM385.3 148.295C384.636 148.295 384.065 148.074 383.587 147.63C383.119 147.179 382.884 146.642 382.884 146.02C382.884 145.389 383.119 144.852 383.587 144.409C384.065 143.957 384.636 143.731 385.3 143.731C385.965 143.731 386.532 143.957 387.001 144.409C387.478 144.852 387.717 145.389 387.717 146.02C387.717 146.642 387.478 147.179 387.001 147.63C386.532 148.074 385.965 148.295 385.3 148.295ZM399.668 178.734C398.108 178.734 396.766 178.53 395.641 178.121C394.524 177.711 393.612 177.17 392.905 176.497C392.198 175.824 391.669 175.086 391.32 174.285L394.605 172.93C394.835 173.305 395.142 173.701 395.526 174.119C395.918 174.545 396.446 174.907 397.111 175.206C397.784 175.504 398.649 175.653 399.706 175.653C401.155 175.653 402.352 175.299 403.299 174.592C404.245 173.893 404.718 172.777 404.718 171.243V167.382H404.475C404.245 167.799 403.912 168.264 403.477 168.775C403.051 169.287 402.463 169.73 401.713 170.105C400.963 170.48 399.987 170.667 398.786 170.667C397.235 170.667 395.837 170.305 394.593 169.581C393.357 168.848 392.377 167.77 391.652 166.346C390.936 164.915 390.578 163.155 390.578 161.067C390.578 158.978 390.932 157.189 391.639 155.697C392.355 154.206 393.335 153.064 394.58 152.271C395.824 151.47 397.235 151.069 398.811 151.069C400.03 151.069 401.014 151.274 401.764 151.683C402.514 152.084 403.098 152.552 403.516 153.089C403.942 153.626 404.27 154.099 404.5 154.508H404.781V151.325H408.527V171.396C408.527 173.084 408.135 174.469 407.351 175.551C406.567 176.633 405.506 177.434 404.168 177.954C402.838 178.474 401.338 178.734 399.668 178.734ZM399.629 167.497C400.729 167.497 401.658 167.241 402.416 166.73C403.183 166.21 403.763 165.469 404.155 164.505C404.556 163.534 404.756 162.371 404.756 161.015C404.756 159.694 404.56 158.531 404.168 157.525C403.776 156.52 403.2 155.736 402.442 155.173C401.683 154.602 400.746 154.317 399.629 154.317C398.479 154.317 397.52 154.615 396.753 155.211C395.986 155.799 395.406 156.601 395.014 157.615C394.631 158.629 394.439 159.763 394.439 161.015C394.439 162.302 394.635 163.432 395.027 164.403C395.419 165.375 395.999 166.133 396.766 166.679C397.541 167.224 398.496 167.497 399.629 167.497ZM412.754 170.961V151.325H416.576V170.961H412.754ZM414.684 148.295C414.019 148.295 413.448 148.074 412.971 147.63C412.502 147.179 412.268 146.642 412.268 146.02C412.268 145.389 412.502 144.852 412.971 144.409C413.448 143.957 414.019 143.731 414.684 143.731C415.349 143.731 415.916 143.957 416.384 144.409C416.862 144.852 417.1 145.389 417.1 146.02C417.1 146.642 416.862 147.179 416.384 147.63C415.916 148.074 415.349 148.295 414.684 148.295ZM420.818 178.325V151.325H424.551V154.508H424.871C425.093 154.099 425.412 153.626 425.83 153.089C426.247 152.552 426.827 152.084 427.568 151.683C428.31 151.274 429.29 151.069 430.509 151.069C432.094 151.069 433.509 151.47 434.753 152.271C435.997 153.072 436.973 154.227 437.681 155.736C438.397 157.244 438.755 159.059 438.755 161.182C438.755 163.304 438.401 165.123 437.693 166.64C436.986 168.149 436.014 169.312 434.779 170.13C433.543 170.94 432.132 171.345 430.547 171.345C429.354 171.345 428.378 171.145 427.62 170.744C426.87 170.344 426.282 169.875 425.855 169.338C425.429 168.801 425.101 168.324 424.871 167.906H424.641V178.325H420.818ZM424.564 161.143C424.564 162.524 424.764 163.734 425.165 164.774C425.566 165.814 426.145 166.628 426.904 167.216C427.662 167.795 428.591 168.085 429.691 168.085C430.833 168.085 431.787 167.782 432.554 167.177C433.321 166.564 433.901 165.733 434.293 164.684C434.693 163.636 434.894 162.456 434.894 161.143C434.894 159.848 434.698 158.684 434.306 157.653C433.922 156.622 433.343 155.808 432.567 155.211C431.8 154.615 430.841 154.317 429.691 154.317C428.583 154.317 427.645 154.602 426.878 155.173C426.12 155.744 425.544 156.541 425.152 157.564C424.76 158.586 424.564 159.78 424.564 161.143ZM447.852 171.396C446.607 171.396 445.482 171.166 444.477 170.706C443.471 170.237 442.674 169.559 442.086 168.673C441.507 167.787 441.217 166.7 441.217 165.413C441.217 164.305 441.43 163.393 441.856 162.677C442.282 161.961 442.857 161.395 443.582 160.977C444.306 160.559 445.116 160.244 446.011 160.031C446.906 159.818 447.818 159.656 448.747 159.545C449.923 159.409 450.877 159.298 451.61 159.213C452.343 159.119 452.876 158.97 453.208 158.765C453.541 158.561 453.707 158.228 453.707 157.768V157.679C453.707 156.562 453.391 155.697 452.761 155.084C452.139 154.47 451.21 154.163 449.974 154.163C448.687 154.163 447.673 154.449 446.931 155.02C446.198 155.582 445.691 156.209 445.41 156.899L441.818 156.081C442.244 154.888 442.866 153.924 443.684 153.192C444.511 152.45 445.461 151.913 446.535 151.581C447.609 151.24 448.738 151.069 449.923 151.069C450.707 151.069 451.538 151.163 452.416 151.351C453.302 151.53 454.129 151.862 454.896 152.348C455.671 152.834 456.306 153.528 456.801 154.432C457.295 155.326 457.542 156.49 457.542 157.922V170.961H453.809V168.277H453.656C453.409 168.771 453.038 169.257 452.543 169.734C452.049 170.211 451.414 170.608 450.639 170.923C449.863 171.238 448.934 171.396 447.852 171.396ZM448.683 168.328C449.739 168.328 450.643 168.119 451.393 167.701C452.151 167.284 452.727 166.738 453.119 166.065C453.519 165.383 453.72 164.655 453.72 163.879V161.348C453.583 161.484 453.319 161.612 452.927 161.731C452.543 161.842 452.105 161.94 451.61 162.025C451.116 162.102 450.634 162.174 450.166 162.243C449.697 162.302 449.305 162.353 448.989 162.396C448.248 162.49 447.57 162.648 446.957 162.869C446.352 163.091 445.866 163.41 445.499 163.828C445.141 164.237 444.962 164.782 444.962 165.464C444.962 166.41 445.312 167.126 446.011 167.612C446.71 168.089 447.6 168.328 448.683 168.328ZM465.249 164.301L465.223 159.635H465.888L473.712 151.325H478.289L469.365 160.785H468.765L465.249 164.301ZM461.733 170.961V144.78H465.556V170.961H461.733ZM474.134 170.961L467.103 161.629L469.736 158.957L478.826 170.961H474.134ZM488.527 171.358C486.592 171.358 484.926 170.944 483.528 170.118C482.139 169.282 481.065 168.111 480.307 166.602C479.557 165.085 479.182 163.308 479.182 161.271C479.182 159.26 479.557 157.487 480.307 155.953C481.065 154.419 482.122 153.221 483.477 152.361C484.841 151.5 486.435 151.069 488.258 151.069C489.366 151.069 490.44 151.253 491.48 151.619C492.52 151.986 493.453 152.561 494.28 153.345C495.106 154.129 495.758 155.148 496.236 156.4C496.713 157.645 496.952 159.157 496.952 160.939V162.294H481.342V159.43H493.206C493.206 158.424 493.001 157.534 492.592 156.758C492.183 155.974 491.608 155.356 490.866 154.905C490.133 154.453 489.273 154.227 488.284 154.227C487.21 154.227 486.273 154.491 485.471 155.02C484.679 155.54 484.065 156.221 483.631 157.065C483.204 157.9 482.991 158.808 482.991 159.788V162.025C482.991 163.338 483.221 164.454 483.682 165.375C484.15 166.295 484.802 166.998 485.638 167.484C486.473 167.961 487.449 168.2 488.565 168.2C489.29 168.2 489.95 168.098 490.547 167.893C491.143 167.68 491.659 167.365 492.094 166.947C492.528 166.53 492.861 166.014 493.091 165.4L496.709 166.052C496.419 167.118 495.899 168.051 495.149 168.852C494.408 169.645 493.474 170.263 492.349 170.706C491.233 171.14 489.959 171.358 488.527 171.358ZM509.459 151.325V154.393H498.733V151.325H509.459ZM501.609 146.621H505.432V165.196C505.432 165.937 505.543 166.496 505.764 166.871C505.986 167.237 506.271 167.488 506.621 167.625C506.979 167.753 507.367 167.817 507.784 167.817C508.091 167.817 508.359 167.795 508.59 167.753C508.82 167.71 508.999 167.676 509.126 167.65L509.817 170.808C509.595 170.893 509.28 170.978 508.871 171.064C508.462 171.157 507.95 171.209 507.337 171.217C506.331 171.234 505.394 171.055 504.524 170.68C503.655 170.305 502.952 169.726 502.415 168.942C501.878 168.157 501.609 167.173 501.609 165.988V146.621ZM512.787 170.961V151.325H516.61V170.961H512.787ZM514.718 148.295C514.053 148.295 513.482 148.074 513.005 147.63C512.536 147.179 512.301 146.642 512.301 146.02C512.301 145.389 512.536 144.852 513.005 144.409C513.482 143.957 514.053 143.731 514.718 143.731C515.382 143.731 515.949 143.957 516.418 144.409C516.895 144.852 517.134 145.389 517.134 146.02C517.134 146.642 516.895 147.179 516.418 147.63C515.949 148.074 515.382 148.295 514.718 148.295ZM533.302 144.78V170.961H529.479V144.78H533.302ZM537.544 170.961V151.325H541.367V170.961H537.544ZM539.475 148.295C538.81 148.295 538.239 148.074 537.762 147.63C537.293 147.179 537.058 146.642 537.058 146.02C537.058 145.389 537.293 144.852 537.762 144.409C538.239 143.957 538.81 143.731 539.475 143.731C540.139 143.731 540.706 143.957 541.175 144.409C541.652 144.852 541.891 145.389 541.891 146.02C541.891 146.642 541.652 147.179 541.175 147.63C540.706 148.074 540.139 148.295 539.475 148.295ZM553.842 178.734C552.282 178.734 550.94 178.53 549.815 178.121C548.699 177.711 547.787 177.17 547.079 176.497C546.372 175.824 545.843 175.086 545.494 174.285L548.78 172.93C549.01 173.305 549.316 173.701 549.7 174.119C550.092 174.545 550.62 174.907 551.285 175.206C551.958 175.504 552.824 175.653 553.88 175.653C555.329 175.653 556.527 175.299 557.473 174.592C558.419 173.893 558.892 172.777 558.892 171.243V167.382H558.649C558.419 167.799 558.086 168.264 557.652 168.775C557.226 169.287 556.637 169.73 555.887 170.105C555.137 170.48 554.162 170.667 552.96 170.667C551.409 170.667 550.011 170.305 548.767 169.581C547.531 168.848 546.551 167.77 545.826 166.346C545.11 164.915 544.753 163.155 544.753 161.067C544.753 158.978 545.106 157.189 545.814 155.697C546.53 154.206 547.51 153.064 548.754 152.271C549.998 151.47 551.409 151.069 552.985 151.069C554.204 151.069 555.189 151.274 555.939 151.683C556.689 152.084 557.272 152.552 557.69 153.089C558.116 153.626 558.444 154.099 558.674 154.508H558.956V151.325H562.701V171.396C562.701 173.084 562.309 174.469 561.525 175.551C560.741 176.633 559.68 177.434 558.342 177.954C557.012 178.474 555.512 178.734 553.842 178.734ZM553.804 167.497C554.903 167.497 555.832 167.241 556.591 166.73C557.358 166.21 557.937 165.469 558.329 164.505C558.73 163.534 558.93 162.371 558.93 161.015C558.93 159.694 558.734 158.531 558.342 157.525C557.95 156.52 557.375 155.736 556.616 155.173C555.858 154.602 554.92 154.317 553.804 154.317C552.653 154.317 551.694 154.615 550.927 155.211C550.16 155.799 549.581 156.601 549.189 157.615C548.805 158.629 548.613 159.763 548.613 161.015C548.613 162.302 548.809 163.432 549.201 164.403C549.593 165.375 550.173 166.133 550.94 166.679C551.716 167.224 552.67 167.497 553.804 167.497ZM566.928 170.961V151.325H570.75V170.961H566.928ZM568.858 148.295C568.193 148.295 567.622 148.074 567.145 147.63C566.676 147.179 566.442 146.642 566.442 146.02C566.442 145.389 566.676 144.852 567.145 144.409C567.622 143.957 568.193 143.731 568.858 143.731C569.523 143.731 570.09 143.957 570.559 144.409C571.036 144.852 571.274 145.389 571.274 146.02C571.274 146.642 571.036 147.179 570.559 147.63C570.09 148.074 569.523 148.295 568.858 148.295ZM574.993 178.325V151.325H578.726V154.508H579.045C579.267 154.099 579.586 153.626 580.004 153.089C580.422 152.552 581.001 152.084 581.743 151.683C582.484 151.274 583.464 151.069 584.683 151.069C586.268 151.069 587.683 151.47 588.927 152.271C590.172 153.072 591.147 154.227 591.855 155.736C592.571 157.244 592.929 159.059 592.929 161.182C592.929 163.304 592.575 165.123 591.868 166.64C591.16 168.149 590.189 169.312 588.953 170.13C587.717 170.94 586.307 171.345 584.721 171.345C583.528 171.345 582.552 171.145 581.794 170.744C581.044 170.344 580.456 169.875 580.03 169.338C579.603 168.801 579.275 168.324 579.045 167.906H578.815V178.325H574.993ZM578.738 161.143C578.738 162.524 578.939 163.734 579.339 164.774C579.74 165.814 580.319 166.628 581.078 167.216C581.836 167.795 582.765 168.085 583.865 168.085C585.007 168.085 585.961 167.782 586.728 167.177C587.496 166.564 588.075 165.733 588.467 164.684C588.868 163.636 589.068 162.456 589.068 161.143C589.068 159.848 588.872 158.684 588.48 157.653C588.096 156.622 587.517 155.808 586.741 155.211C585.974 154.615 585.015 154.317 583.865 154.317C582.757 154.317 581.819 154.602 581.052 155.173C580.294 155.744 579.719 156.541 579.326 157.564C578.934 158.586 578.738 159.78 578.738 161.143ZM602.026 171.396C600.782 171.396 599.657 171.166 598.651 170.706C597.645 170.237 596.848 169.559 596.26 168.673C595.681 167.787 595.391 166.7 595.391 165.413C595.391 164.305 595.604 163.393 596.03 162.677C596.456 161.961 597.032 161.395 597.756 160.977C598.48 160.559 599.29 160.244 600.185 160.031C601.08 159.818 601.992 159.656 602.921 159.545C604.097 159.409 605.051 159.298 605.784 159.213C606.517 159.119 607.05 158.97 607.382 158.765C607.715 158.561 607.881 158.228 607.881 157.768V157.679C607.881 156.562 607.566 155.697 606.935 155.084C606.313 154.47 605.384 154.163 604.148 154.163C602.861 154.163 601.847 154.449 601.105 155.02C600.372 155.582 599.865 156.209 599.584 156.899L595.992 156.081C596.418 154.888 597.04 153.924 597.858 153.192C598.685 152.45 599.635 151.913 600.709 151.581C601.783 151.24 602.912 151.069 604.097 151.069C604.881 151.069 605.712 151.163 606.59 151.351C607.476 151.53 608.303 151.862 609.07 152.348C609.845 152.834 610.48 153.528 610.975 154.432C611.469 155.326 611.716 156.49 611.716 157.922V170.961H607.983V168.277H607.83C607.583 168.771 607.212 169.257 606.718 169.734C606.223 170.211 605.588 170.608 604.813 170.923C604.037 171.238 603.108 171.396 602.026 171.396ZM602.857 168.328C603.914 168.328 604.817 168.119 605.567 167.701C606.326 167.284 606.901 166.738 607.293 166.065C607.693 165.383 607.894 164.655 607.894 163.879V161.348C607.757 161.484 607.493 161.612 607.101 161.731C606.718 161.842 606.279 161.94 605.784 162.025C605.29 162.102 604.809 162.174 604.34 162.243C603.871 162.302 603.479 162.353 603.164 162.396C602.422 162.49 601.745 162.648 601.131 162.869C600.526 163.091 600.04 163.41 599.674 163.828C599.316 164.237 599.137 164.782 599.137 165.464C599.137 166.41 599.486 167.126 600.185 167.612C600.884 168.089 601.774 168.328 602.857 168.328ZM600.543 148.244C599.938 148.244 599.409 148.023 598.958 147.579C598.506 147.128 598.28 146.608 598.28 146.02C598.28 145.38 598.506 144.848 598.958 144.422C599.409 143.996 599.938 143.782 600.543 143.782C601.182 143.782 601.715 143.996 602.141 144.422C602.576 144.848 602.793 145.38 602.793 146.02C602.793 146.608 602.576 147.128 602.141 147.579C601.715 148.023 601.182 148.244 600.543 148.244ZM608.06 148.244C607.455 148.244 606.926 148.023 606.475 147.579C606.023 147.128 605.797 146.608 605.797 146.02C605.797 145.38 606.023 144.848 606.475 144.422C606.926 143.996 607.455 143.782 608.06 143.782C608.699 143.782 609.232 143.996 609.658 144.422C610.093 144.848 610.31 145.38 610.31 146.02C610.31 146.608 610.093 147.128 609.658 147.579C609.232 148.023 608.699 148.244 608.06 148.244ZM621.622 171.396C620.378 171.396 619.253 171.166 618.247 170.706C617.241 170.237 616.444 169.559 615.856 168.673C615.277 167.787 614.987 166.7 614.987 165.413C614.987 164.305 615.2 163.393 615.626 162.677C616.052 161.961 616.628 161.395 617.352 160.977C618.077 160.559 618.886 160.244 619.781 160.031C620.676 159.818 621.588 159.656 622.517 159.545C623.693 159.409 624.648 159.298 625.381 159.213C626.113 159.119 626.646 158.97 626.979 158.765C627.311 158.561 627.477 158.228 627.477 157.768V157.679C627.477 156.562 627.162 155.697 626.531 155.084C625.909 154.47 624.98 154.163 623.744 154.163C622.457 154.163 621.443 154.449 620.702 155.02C619.969 155.582 619.462 156.209 619.18 156.899L615.588 156.081C616.014 154.888 616.636 153.924 617.454 153.192C618.281 152.45 619.231 151.913 620.305 151.581C621.379 151.24 622.508 151.069 623.693 151.069C624.477 151.069 625.308 151.163 626.186 151.351C627.072 151.53 627.899 151.862 628.666 152.348C629.442 152.834 630.077 153.528 630.571 154.432C631.065 155.326 631.312 156.49 631.312 157.922V170.961H627.579V168.277H627.426C627.179 168.771 626.808 169.257 626.314 169.734C625.819 170.211 625.185 170.608 624.409 170.923C623.633 171.238 622.704 171.396 621.622 171.396ZM622.453 168.328C623.51 168.328 624.413 168.119 625.163 167.701C625.922 167.284 626.497 166.738 626.889 166.065C627.29 165.383 627.49 164.655 627.49 163.879V161.348C627.354 161.484 627.089 161.612 626.697 161.731C626.314 161.842 625.875 161.94 625.381 162.025C624.886 162.102 624.405 162.174 623.936 162.243C623.467 162.302 623.075 162.353 622.76 162.396C622.018 162.49 621.341 162.648 620.727 162.869C620.122 163.091 619.636 163.41 619.27 163.828C618.912 164.237 618.733 164.782 618.733 165.464C618.733 166.41 619.082 167.126 619.781 167.612C620.48 168.089 621.371 168.328 622.453 168.328ZM620.139 148.244C619.534 148.244 619.006 148.023 618.554 147.579C618.102 147.128 617.876 146.608 617.876 146.02C617.876 145.38 618.102 144.848 618.554 144.422C619.006 143.996 619.534 143.782 620.139 143.782C620.778 143.782 621.311 143.996 621.737 144.422C622.172 144.848 622.389 145.38 622.389 146.02C622.389 146.608 622.172 147.128 621.737 147.579C621.311 148.023 620.778 148.244 620.139 148.244ZM627.656 148.244C627.051 148.244 626.523 148.023 626.071 147.579C625.619 147.128 625.393 146.608 625.393 146.02C625.393 145.38 625.619 144.848 626.071 144.422C626.523 143.996 627.051 143.782 627.656 143.782C628.295 143.782 628.828 143.996 629.254 144.422C629.689 144.848 629.906 145.38 629.906 146.02C629.906 146.608 629.689 147.128 629.254 147.579C628.828 148.023 628.295 148.244 627.656 148.244ZM650.218 156.119L646.754 156.733C646.609 156.29 646.379 155.868 646.063 155.467C645.756 155.067 645.339 154.738 644.81 154.483C644.282 154.227 643.621 154.099 642.829 154.099C641.746 154.099 640.843 154.342 640.119 154.828C639.394 155.305 639.032 155.923 639.032 156.682C639.032 157.338 639.275 157.866 639.761 158.267C640.246 158.667 641.031 158.996 642.113 159.251L645.232 159.967C647.039 160.385 648.386 161.028 649.272 161.898C650.158 162.767 650.602 163.896 650.602 165.285C650.602 166.461 650.261 167.51 649.579 168.43C648.906 169.342 647.964 170.058 646.754 170.578C645.552 171.098 644.158 171.358 642.573 171.358C640.374 171.358 638.58 170.889 637.191 169.951C635.802 169.005 634.95 167.663 634.634 165.924L638.329 165.362C638.559 166.325 639.032 167.054 639.748 167.548C640.464 168.034 641.397 168.277 642.548 168.277C643.8 168.277 644.802 168.017 645.552 167.497C646.302 166.969 646.677 166.325 646.677 165.567C646.677 164.953 646.447 164.437 645.987 164.02C645.535 163.602 644.84 163.287 643.903 163.074L640.579 162.345C638.746 161.927 637.391 161.263 636.514 160.351C635.644 159.439 635.21 158.284 635.21 156.886C635.21 155.727 635.533 154.713 636.181 153.844C636.829 152.974 637.724 152.297 638.866 151.811C640.008 151.317 641.316 151.069 642.791 151.069C644.913 151.069 646.583 151.53 647.802 152.45C649.021 153.362 649.826 154.585 650.218 156.119ZM666.343 162.818V151.325H670.179V170.961H666.42V167.561H666.215C665.764 168.609 665.039 169.483 664.042 170.182C663.054 170.872 661.822 171.217 660.348 171.217C659.086 171.217 657.97 170.94 656.998 170.386C656.035 169.824 655.277 168.993 654.723 167.893C654.177 166.794 653.904 165.434 653.904 163.815V151.325H657.727V163.355C657.727 164.693 658.098 165.758 658.839 166.551C659.581 167.344 660.544 167.74 661.728 167.74C662.444 167.74 663.156 167.561 663.863 167.203C664.579 166.845 665.171 166.304 665.64 165.579C666.117 164.855 666.352 163.934 666.343 162.818ZM54.2072 201.119L50.7427 201.733C50.5978 201.29 50.3677 200.868 50.0523 200.467C49.7455 200.067 49.3279 199.738 48.7995 199.483C48.2711 199.227 47.6106 199.099 46.818 199.099C45.7356 199.099 44.8322 199.342 44.1077 199.828C43.3833 200.305 43.0211 200.923 43.0211 201.682C43.0211 202.338 43.264 202.866 43.7498 203.267C44.2356 203.667 45.0197 203.996 46.102 204.251L49.2214 204.967C51.0282 205.385 52.3748 206.028 53.2611 206.898C54.1475 207.767 54.5907 208.896 54.5907 210.285C54.5907 211.461 54.2498 212.51 53.568 213.43C52.8947 214.342 51.9529 215.058 50.7427 215.578C49.541 216.098 48.1475 216.358 46.5623 216.358C44.3634 216.358 42.5694 215.889 41.1802 214.951C39.791 214.005 38.9387 212.663 38.6233 210.924L42.318 210.362C42.5481 211.325 43.0211 212.054 43.737 212.548C44.4529 213.034 45.3861 213.277 46.5367 213.277C47.7895 213.277 48.791 213.017 49.541 212.497C50.291 211.969 50.666 211.325 50.666 210.567C50.666 209.953 50.4358 209.437 49.9756 209.02C49.5239 208.602 48.8293 208.287 47.8918 208.074L44.568 207.345C42.7356 206.927 41.3805 206.263 40.5026 205.351C39.6333 204.439 39.1986 203.284 39.1986 201.886C39.1986 200.727 39.5225 199.713 40.1702 198.844C40.818 197.974 41.7128 197.297 42.8549 196.811C43.9969 196.317 45.3052 196.069 46.7796 196.069C48.9018 196.069 50.5722 196.53 51.791 197.45C53.0097 198.362 53.8151 199.585 54.2072 201.119ZM63.6079 216.396C62.3636 216.396 61.2386 216.166 60.2329 215.706C59.2273 215.237 58.4304 214.559 57.8423 213.673C57.2628 212.787 56.973 211.7 56.973 210.413C56.973 209.305 57.1861 208.393 57.6122 207.677C58.0383 206.961 58.6136 206.395 59.3381 205.977C60.0625 205.559 60.8721 205.244 61.767 205.031C62.6619 204.818 63.5738 204.656 64.5028 204.545C65.679 204.409 66.6335 204.298 67.3665 204.213C68.0994 204.119 68.6321 203.97 68.9645 203.765C69.2969 203.561 69.4631 203.228 69.4631 202.768V202.679C69.4631 201.562 69.1477 200.697 68.517 200.084C67.8949 199.47 66.9659 199.163 65.7301 199.163C64.4432 199.163 63.429 199.449 62.6875 200.02C61.9545 200.582 61.4474 201.209 61.1662 201.899L57.5738 201.081C58 199.888 58.6221 198.924 59.4403 198.192C60.267 197.45 61.2173 196.913 62.2912 196.581C63.365 196.24 64.4943 196.069 65.679 196.069C66.4631 196.069 67.294 196.163 68.1719 196.351C69.0582 196.53 69.8849 196.862 70.652 197.348C71.4275 197.834 72.0625 198.528 72.5568 199.432C73.0511 200.326 73.2983 201.49 73.2983 202.922V215.961H69.5653V213.277H69.4119C69.1648 213.771 68.794 214.257 68.2997 214.734C67.8054 215.211 67.1704 215.608 66.3949 215.923C65.6193 216.238 64.6903 216.396 63.6079 216.396ZM64.4389 213.328C65.4957 213.328 66.3991 213.119 67.1491 212.701C67.9077 212.284 68.4829 211.738 68.875 211.065C69.2756 210.383 69.4758 209.655 69.4758 208.879V206.348C69.3395 206.484 69.0753 206.612 68.6832 206.731C68.2997 206.842 67.8608 206.94 67.3665 207.025C66.8721 207.102 66.3906 207.174 65.9219 207.243C65.4531 207.302 65.0611 207.353 64.7457 207.396C64.0042 207.49 63.3267 207.648 62.7131 207.869C62.1079 208.091 61.6221 208.41 61.2557 208.828C60.8977 209.237 60.7187 209.782 60.7187 210.464C60.7187 211.41 61.0682 212.126 61.767 212.612C62.4659 213.089 63.3565 213.328 64.4389 213.328ZM83.204 216.396C81.9597 216.396 80.8347 216.166 79.829 215.706C78.8234 215.237 78.0265 214.559 77.4384 213.673C76.8589 212.787 76.5691 211.7 76.5691 210.413C76.5691 209.305 76.7822 208.393 77.2083 207.677C77.6344 206.961 78.2097 206.395 78.9341 205.977C79.6586 205.559 80.4682 205.244 81.3631 205.031C82.258 204.818 83.1699 204.656 84.0989 204.545C85.2751 204.409 86.2296 204.298 86.9626 204.213C87.6955 204.119 88.2282 203.97 88.5606 203.765C88.893 203.561 89.0591 203.228 89.0591 202.768V202.679C89.0591 201.562 88.7438 200.697 88.1131 200.084C87.491 199.47 86.562 199.163 85.3262 199.163C84.0393 199.163 83.0251 199.449 82.2836 200.02C81.5506 200.582 81.0435 201.209 80.7623 201.899L77.1699 201.081C77.5961 199.888 78.2182 198.924 79.0364 198.192C79.8631 197.45 80.8134 196.913 81.8873 196.581C82.9611 196.24 84.0904 196.069 85.2751 196.069C86.0591 196.069 86.8901 196.163 87.768 196.351C88.6543 196.53 89.481 196.862 90.2481 197.348C91.0236 197.834 91.6586 198.528 92.1529 199.432C92.6472 200.326 92.8944 201.49 92.8944 202.922V215.961H89.1614V213.277H89.008C88.7609 213.771 88.3901 214.257 87.8958 214.734C87.4015 215.211 86.7665 215.608 85.991 215.923C85.2154 216.238 84.2864 216.396 83.204 216.396ZM84.035 213.328C85.0918 213.328 85.9952 213.119 86.7452 212.701C87.5037 212.284 88.079 211.738 88.4711 211.065C88.8716 210.383 89.0719 209.655 89.0719 208.879V206.348C88.9356 206.484 88.6714 206.612 88.2793 206.731C87.8958 206.842 87.4569 206.94 86.9626 207.025C86.4682 207.102 85.9867 207.174 85.518 207.243C85.0492 207.302 84.6572 207.353 84.3418 207.396C83.6003 207.49 82.9228 207.648 82.3091 207.869C81.704 208.091 81.2182 208.41 80.8518 208.828C80.4938 209.237 80.3148 209.782 80.3148 210.464C80.3148 211.41 80.6643 212.126 81.3631 212.612C82.062 213.089 82.9526 213.328 84.035 213.328ZM104.436 216.345C102.851 216.345 101.436 215.94 100.192 215.13C98.9564 214.312 97.9848 213.149 97.2774 211.64C96.5785 210.123 96.2291 208.304 96.2291 206.182C96.2291 204.059 96.5828 202.244 97.2902 200.736C98.0061 199.227 98.9862 198.072 100.231 197.271C101.475 196.47 102.885 196.069 104.462 196.069C105.681 196.069 106.661 196.274 107.402 196.683C108.152 197.084 108.732 197.552 109.141 198.089C109.559 198.626 109.883 199.099 110.113 199.508H110.343V189.78H114.165V215.961H110.432V212.906H110.113C109.883 213.324 109.55 213.801 109.115 214.338C108.689 214.875 108.101 215.344 107.351 215.744C106.601 216.145 105.63 216.345 104.436 216.345ZM105.28 213.085C106.38 213.085 107.309 212.795 108.067 212.216C108.834 211.628 109.414 210.814 109.806 209.774C110.206 208.734 110.407 207.524 110.407 206.143C110.407 204.78 110.211 203.586 109.819 202.564C109.427 201.541 108.851 200.744 108.093 200.173C107.334 199.602 106.397 199.317 105.28 199.317C104.13 199.317 103.171 199.615 102.404 200.211C101.637 200.808 101.057 201.622 100.665 202.653C100.282 203.684 100.09 204.848 100.09 206.143C100.09 207.456 100.286 208.636 100.678 209.684C101.07 210.733 101.65 211.564 102.417 212.177C103.192 212.782 104.147 213.085 105.28 213.085ZM127.348 196.325H131.171V217.24C131.171 218.552 130.932 219.66 130.455 220.564C129.986 221.467 129.287 222.153 128.358 222.622C127.438 223.091 126.3 223.325 124.945 223.325C124.808 223.325 124.681 223.325 124.561 223.325C124.433 223.325 124.301 223.321 124.165 223.312V220.027C124.284 220.027 124.391 220.027 124.484 220.027C124.57 220.027 124.668 220.027 124.779 220.027C125.682 220.027 126.334 219.784 126.734 219.298C127.144 218.821 127.348 218.126 127.348 217.214V196.325ZM129.24 193.295C128.575 193.295 128.004 193.074 127.527 192.63C127.058 192.179 126.824 191.642 126.824 191.02C126.824 190.389 127.058 189.852 127.527 189.409C128.004 188.957 128.575 188.731 129.24 188.731C129.905 188.731 130.472 188.957 130.94 189.409C131.418 189.852 131.656 190.389 131.656 191.02C131.656 191.642 131.418 192.179 130.94 192.63C130.472 193.074 129.905 193.295 129.24 193.295ZM141.127 216.396C139.883 216.396 138.758 216.166 137.752 215.706C136.747 215.237 135.95 214.559 135.362 213.673C134.782 212.787 134.493 211.7 134.493 210.413C134.493 209.305 134.706 208.393 135.132 207.677C135.558 206.961 136.133 206.395 136.858 205.977C137.582 205.559 138.392 205.244 139.287 205.031C140.181 204.818 141.093 204.656 142.022 204.545C143.198 204.409 144.153 204.298 144.886 204.213C145.619 204.119 146.152 203.97 146.484 203.765C146.816 203.561 146.983 203.228 146.983 202.768V202.679C146.983 201.562 146.667 200.697 146.037 200.084C145.414 199.47 144.485 199.163 143.25 199.163C141.963 199.163 140.948 199.449 140.207 200.02C139.474 200.582 138.967 201.209 138.686 201.899L135.093 201.081C135.52 199.888 136.142 198.924 136.96 198.192C137.787 197.45 138.737 196.913 139.811 196.581C140.885 196.24 142.014 196.069 143.198 196.069C143.983 196.069 144.814 196.163 145.691 196.351C146.578 196.53 147.404 196.862 148.172 197.348C148.947 197.834 149.582 198.528 150.076 199.432C150.571 200.326 150.818 201.49 150.818 202.922V215.961H147.085V213.277H146.931C146.684 213.771 146.314 214.257 145.819 214.734C145.325 215.211 144.69 215.608 143.914 215.923C143.139 216.238 142.21 216.396 141.127 216.396ZM141.958 213.328C143.015 213.328 143.919 213.119 144.669 212.701C145.427 212.284 146.002 211.738 146.395 211.065C146.795 210.383 146.995 209.655 146.995 208.879V206.348C146.859 206.484 146.595 206.612 146.203 206.731C145.819 206.842 145.38 206.94 144.886 207.025C144.392 207.102 143.91 207.174 143.441 207.243C142.973 207.302 142.581 207.353 142.265 207.396C141.524 207.49 140.846 207.648 140.233 207.869C139.627 208.091 139.142 208.41 138.775 208.828C138.417 209.237 138.238 209.782 138.238 210.464C138.238 211.41 138.588 212.126 139.287 212.612C139.985 213.089 140.876 213.328 141.958 213.328ZM163.242 223.734C161.682 223.734 160.34 223.53 159.215 223.121C158.099 222.711 157.187 222.17 156.479 221.497C155.772 220.824 155.243 220.086 154.894 219.285L158.18 217.93C158.41 218.305 158.716 218.701 159.1 219.119C159.492 219.545 160.02 219.907 160.685 220.206C161.359 220.504 162.224 220.653 163.28 220.653C164.729 220.653 165.927 220.299 166.873 219.592C167.819 218.893 168.292 217.777 168.292 216.243V212.382H168.049C167.819 212.799 167.486 213.264 167.052 213.775C166.626 214.287 166.037 214.73 165.287 215.105C164.537 215.48 163.562 215.667 162.36 215.667C160.809 215.667 159.411 215.305 158.167 214.581C156.931 213.848 155.951 212.77 155.226 211.346C154.51 209.915 154.153 208.155 154.153 206.067C154.153 203.978 154.506 202.189 155.214 200.697C155.93 199.206 156.91 198.064 158.154 197.271C159.398 196.47 160.809 196.069 162.385 196.069C163.604 196.069 164.589 196.274 165.339 196.683C166.089 197.084 166.672 197.552 167.09 198.089C167.516 198.626 167.844 199.099 168.074 199.508H168.356V196.325H172.101V216.396C172.101 218.084 171.709 219.469 170.925 220.551C170.141 221.633 169.08 222.434 167.742 222.954C166.412 223.474 164.912 223.734 163.242 223.734ZM163.204 212.497C164.303 212.497 165.232 212.241 165.991 211.73C166.758 211.21 167.337 210.469 167.729 209.505C168.13 208.534 168.33 207.371 168.33 206.015C168.33 204.694 168.134 203.531 167.742 202.525C167.35 201.52 166.775 200.736 166.016 200.173C165.258 199.602 164.32 199.317 163.204 199.317C162.053 199.317 161.094 199.615 160.327 200.211C159.56 200.799 158.981 201.601 158.589 202.615C158.205 203.629 158.013 204.763 158.013 206.015C158.013 207.302 158.209 208.432 158.601 209.403C158.993 210.375 159.573 211.133 160.34 211.679C161.116 212.224 162.07 212.497 163.204 212.497ZM182.042 216.396C180.798 216.396 179.673 216.166 178.667 215.706C177.662 215.237 176.865 214.559 176.277 213.673C175.697 212.787 175.407 211.7 175.407 210.413C175.407 209.305 175.62 208.393 176.047 207.677C176.473 206.961 177.048 206.395 177.772 205.977C178.497 205.559 179.307 205.244 180.201 205.031C181.096 204.818 182.008 204.656 182.937 204.545C184.113 204.409 185.068 204.298 185.801 204.213C186.534 204.119 187.066 203.97 187.399 203.765C187.731 203.561 187.897 203.228 187.897 202.768V202.679C187.897 201.562 187.582 200.697 186.951 200.084C186.329 199.47 185.4 199.163 184.164 199.163C182.878 199.163 181.863 199.449 181.122 200.02C180.389 200.582 179.882 201.209 179.601 201.899L176.008 201.081C176.434 199.888 177.057 198.924 177.875 198.192C178.701 197.45 179.652 196.913 180.726 196.581C181.799 196.24 182.929 196.069 184.113 196.069C184.897 196.069 185.728 196.163 186.606 196.351C187.493 196.53 188.319 196.862 189.086 197.348C189.862 197.834 190.497 198.528 190.991 199.432C191.485 200.326 191.733 201.49 191.733 202.922V215.961H188V213.277H187.846C187.599 213.771 187.228 214.257 186.734 214.734C186.24 215.211 185.605 215.608 184.829 215.923C184.054 216.238 183.125 216.396 182.042 216.396ZM182.873 213.328C183.93 213.328 184.834 213.119 185.584 212.701C186.342 212.284 186.917 211.738 187.309 211.065C187.71 210.383 187.91 209.655 187.91 208.879V206.348C187.774 206.484 187.51 206.612 187.118 206.731C186.734 206.842 186.295 206.94 185.801 207.025C185.307 207.102 184.825 207.174 184.356 207.243C183.887 207.302 183.495 207.353 183.18 207.396C182.439 207.49 181.761 207.648 181.147 207.869C180.542 208.091 180.057 208.41 179.69 208.828C179.332 209.237 179.153 209.782 179.153 210.464C179.153 211.41 179.503 212.126 180.201 212.612C180.9 213.089 181.791 213.328 182.873 213.328ZM203.275 216.345C201.69 216.345 200.275 215.94 199.03 215.13C197.795 214.312 196.823 213.149 196.116 211.64C195.417 210.123 195.067 208.304 195.067 206.182C195.067 204.059 195.421 202.244 196.128 200.736C196.844 199.227 197.824 198.072 199.069 197.271C200.313 196.47 201.724 196.069 203.3 196.069C204.519 196.069 205.499 196.274 206.241 196.683C206.991 197.084 207.57 197.552 207.979 198.089C208.397 198.626 208.721 199.099 208.951 199.508H209.181V189.78H213.003V215.961H209.271V212.906H208.951C208.721 213.324 208.388 213.801 207.954 214.338C207.528 214.875 206.94 215.344 206.19 215.744C205.44 216.145 204.468 216.345 203.275 216.345ZM204.119 213.085C205.218 213.085 206.147 212.795 206.905 212.216C207.672 211.628 208.252 210.814 208.644 209.774C209.045 208.734 209.245 207.524 209.245 206.143C209.245 204.78 209.049 203.586 208.657 202.564C208.265 201.541 207.69 200.744 206.931 200.173C206.172 199.602 205.235 199.317 204.119 199.317C202.968 199.317 202.009 199.615 201.242 200.211C200.475 200.808 199.896 201.622 199.503 202.653C199.12 203.684 198.928 204.848 198.928 206.143C198.928 207.456 199.124 208.636 199.516 209.684C199.908 210.733 200.488 211.564 201.255 212.177C202.03 212.782 202.985 213.085 204.119 213.085ZM223.274 216.396C222.029 216.396 220.904 216.166 219.899 215.706C218.893 215.237 218.096 214.559 217.508 213.673C216.928 212.787 216.639 211.7 216.639 210.413C216.639 209.305 216.852 208.393 217.278 207.677C217.704 206.961 218.279 206.395 219.004 205.977C219.728 205.559 220.538 205.244 221.433 205.031C222.328 204.818 223.239 204.656 224.168 204.545C225.345 204.409 226.299 204.298 227.032 204.213C227.765 204.119 228.298 203.97 228.63 203.765C228.962 203.561 229.129 203.228 229.129 202.768V202.679C229.129 201.562 228.813 200.697 228.183 200.084C227.56 199.47 226.632 199.163 225.396 199.163C224.109 199.163 223.095 199.449 222.353 200.02C221.62 200.582 221.113 201.209 220.832 201.899L217.239 201.081C217.666 199.888 218.288 198.924 219.106 198.192C219.933 197.45 220.883 196.913 221.957 196.581C223.031 196.24 224.16 196.069 225.345 196.069C226.129 196.069 226.96 196.163 227.837 196.351C228.724 196.53 229.551 196.862 230.318 197.348C231.093 197.834 231.728 198.528 232.222 199.432C232.717 200.326 232.964 201.49 232.964 202.922V215.961H229.231V213.277H229.078C228.83 213.771 228.46 214.257 227.965 214.734C227.471 215.211 226.836 215.608 226.06 215.923C225.285 216.238 224.356 216.396 223.274 216.396ZM224.105 213.328C225.161 213.328 226.065 213.119 226.815 212.701C227.573 212.284 228.149 211.738 228.541 211.065C228.941 210.383 229.141 209.655 229.141 208.879V206.348C229.005 206.484 228.741 206.612 228.349 206.731C227.965 206.842 227.526 206.94 227.032 207.025C226.538 207.102 226.056 207.174 225.587 207.243C225.119 207.302 224.727 207.353 224.411 207.396C223.67 207.49 222.992 207.648 222.379 207.869C221.774 208.091 221.288 208.41 220.921 208.828C220.563 209.237 220.384 209.782 220.384 210.464C220.384 211.41 220.734 212.126 221.433 212.612C222.132 213.089 223.022 213.328 224.105 213.328ZM249.605 204.302V215.961H245.783V196.325H249.452V199.521H249.694C250.146 198.481 250.854 197.646 251.817 197.015C252.788 196.385 254.011 196.069 255.486 196.069C256.824 196.069 257.996 196.351 259.001 196.913C260.007 197.467 260.787 198.294 261.341 199.393C261.895 200.493 262.172 201.852 262.172 203.471V215.961H258.349V203.932C258.349 202.508 257.979 201.396 257.237 200.595C256.496 199.785 255.477 199.38 254.182 199.38C253.295 199.38 252.507 199.572 251.817 199.956C251.135 200.339 250.594 200.902 250.193 201.643C249.801 202.376 249.605 203.263 249.605 204.302ZM274.861 216.358C272.927 216.358 271.26 215.944 269.863 215.118C268.473 214.282 267.4 213.111 266.641 211.602C265.891 210.085 265.516 208.308 265.516 206.271C265.516 204.26 265.891 202.487 266.641 200.953C267.4 199.419 268.456 198.221 269.811 197.361C271.175 196.5 272.769 196.069 274.593 196.069C275.701 196.069 276.775 196.253 277.814 196.619C278.854 196.986 279.787 197.561 280.614 198.345C281.441 199.129 282.093 200.148 282.57 201.4C283.047 202.645 283.286 204.157 283.286 205.939V207.294H267.677V204.43H279.54C279.54 203.424 279.336 202.534 278.927 201.758C278.517 200.974 277.942 200.356 277.201 199.905C276.468 199.453 275.607 199.227 274.618 199.227C273.544 199.227 272.607 199.491 271.806 200.02C271.013 200.54 270.4 201.221 269.965 202.065C269.539 202.9 269.326 203.808 269.326 204.788V207.025C269.326 208.338 269.556 209.454 270.016 210.375C270.485 211.295 271.137 211.998 271.972 212.484C272.807 212.961 273.783 213.2 274.9 213.2C275.624 213.2 276.285 213.098 276.881 212.893C277.478 212.68 277.993 212.365 278.428 211.947C278.863 211.53 279.195 211.014 279.425 210.4L283.043 211.052C282.753 212.118 282.233 213.051 281.483 213.852C280.742 214.645 279.809 215.263 278.684 215.706C277.567 216.14 276.293 216.358 274.861 216.358ZM290.449 189.78V215.961H286.627V189.78H290.449ZM294.692 196.325H298.514V217.24C298.514 218.552 298.276 219.66 297.798 220.564C297.33 221.467 296.631 222.153 295.702 222.622C294.781 223.091 293.644 223.325 292.288 223.325C292.152 223.325 292.024 223.325 291.905 223.325C291.777 223.325 291.645 223.321 291.509 223.312V220.027C291.628 220.027 291.734 220.027 291.828 220.027C291.913 220.027 292.011 220.027 292.122 220.027C293.026 220.027 293.678 219.784 294.078 219.298C294.487 218.821 294.692 218.126 294.692 217.214V196.325ZM296.584 193.295C295.919 193.295 295.348 193.074 294.871 192.63C294.402 192.179 294.168 191.642 294.168 191.02C294.168 190.389 294.402 189.852 294.871 189.409C295.348 188.957 295.919 188.731 296.584 188.731C297.249 188.731 297.815 188.957 298.284 189.409C298.761 189.852 299 190.389 299 191.02C299 191.642 298.761 192.179 298.284 192.63C297.815 193.074 297.249 193.295 296.584 193.295ZM308.471 216.396C307.227 216.396 306.102 216.166 305.096 215.706C304.091 215.237 303.294 214.559 302.706 213.673C302.126 212.787 301.836 211.7 301.836 210.413C301.836 209.305 302.049 208.393 302.475 207.677C302.902 206.961 303.477 206.395 304.201 205.977C304.926 205.559 305.735 205.244 306.63 205.031C307.525 204.818 308.437 204.656 309.366 204.545C310.542 204.409 311.497 204.298 312.23 204.213C312.963 204.119 313.495 203.97 313.828 203.765C314.16 203.561 314.326 203.228 314.326 202.768V202.679C314.326 201.562 314.011 200.697 313.38 200.084C312.758 199.47 311.829 199.163 310.593 199.163C309.306 199.163 308.292 199.449 307.551 200.02C306.818 200.582 306.311 201.209 306.029 201.899L302.437 201.081C302.863 199.888 303.485 198.924 304.304 198.192C305.13 197.45 306.081 196.913 307.154 196.581C308.228 196.24 309.358 196.069 310.542 196.069C311.326 196.069 312.157 196.163 313.035 196.351C313.922 196.53 314.748 196.862 315.515 197.348C316.291 197.834 316.926 198.528 317.42 199.432C317.914 200.326 318.162 201.49 318.162 202.922V215.961H314.429V213.277H314.275C314.028 213.771 313.657 214.257 313.163 214.734C312.669 215.211 312.034 215.608 311.258 215.923C310.483 216.238 309.554 216.396 308.471 216.396ZM309.302 213.328C310.359 213.328 311.262 213.119 312.012 212.701C312.771 212.284 313.346 211.738 313.738 211.065C314.139 210.383 314.339 209.655 314.339 208.879V206.348C314.203 206.484 313.939 206.612 313.547 206.731C313.163 206.842 312.724 206.94 312.23 207.025C311.735 207.102 311.254 207.174 310.785 207.243C310.316 207.302 309.924 207.353 309.609 207.396C308.868 207.49 308.19 207.648 307.576 207.869C306.971 208.091 306.485 208.41 306.119 208.828C305.761 209.237 305.582 209.782 305.582 210.464C305.582 211.41 305.931 212.126 306.63 212.612C307.329 213.089 308.22 213.328 309.302 213.328ZM345.695 201.119L342.23 201.733C342.085 201.29 341.855 200.868 341.54 200.467C341.233 200.067 340.815 199.738 340.287 199.483C339.759 199.227 339.098 199.099 338.305 199.099C337.223 199.099 336.32 199.342 335.595 199.828C334.871 200.305 334.509 200.923 334.509 201.682C334.509 202.338 334.751 202.866 335.237 203.267C335.723 203.667 336.507 203.996 337.59 204.251L340.709 204.967C342.516 205.385 343.862 206.028 344.749 206.898C345.635 207.767 346.078 208.896 346.078 210.285C346.078 211.461 345.737 212.51 345.055 213.43C344.382 214.342 343.44 215.058 342.23 215.578C341.028 216.098 339.635 216.358 338.05 216.358C335.851 216.358 334.057 215.889 332.668 214.951C331.278 214.005 330.426 212.663 330.111 210.924L333.805 210.362C334.036 211.325 334.509 212.054 335.224 212.548C335.94 213.034 336.874 213.277 338.024 213.277C339.277 213.277 340.278 213.017 341.028 212.497C341.778 211.969 342.153 211.325 342.153 210.567C342.153 209.953 341.923 209.437 341.463 209.02C341.011 208.602 340.317 208.287 339.379 208.074L336.055 207.345C334.223 206.927 332.868 206.263 331.99 205.351C331.121 204.439 330.686 203.284 330.686 201.886C330.686 200.727 331.01 199.713 331.658 198.844C332.305 197.974 333.2 197.297 334.342 196.811C335.484 196.317 336.793 196.069 338.267 196.069C340.389 196.069 342.06 196.53 343.278 197.45C344.497 198.362 345.303 199.585 345.695 201.119ZM357.652 216.358C355.811 216.358 354.205 215.936 352.833 215.092C351.46 214.248 350.395 213.068 349.637 211.551C348.878 210.034 348.499 208.261 348.499 206.233C348.499 204.196 348.878 202.415 349.637 200.889C350.395 199.363 351.46 198.179 352.833 197.335C354.205 196.491 355.811 196.069 357.652 196.069C359.493 196.069 361.1 196.491 362.472 197.335C363.844 198.179 364.909 199.363 365.668 200.889C366.426 202.415 366.806 204.196 366.806 206.233C366.806 208.261 366.426 210.034 365.668 211.551C364.909 213.068 363.844 214.248 362.472 215.092C361.1 215.936 359.493 216.358 357.652 216.358ZM357.665 213.149C358.858 213.149 359.847 212.834 360.631 212.203C361.415 211.572 361.995 210.733 362.37 209.684C362.753 208.636 362.945 207.481 362.945 206.22C362.945 204.967 362.753 203.817 362.37 202.768C361.995 201.711 361.415 200.863 360.631 200.224C359.847 199.585 358.858 199.265 357.665 199.265C356.463 199.265 355.466 199.585 354.674 200.224C353.889 200.863 353.306 201.711 352.922 202.768C352.547 203.817 352.36 204.967 352.36 206.22C352.36 207.481 352.547 208.636 352.922 209.684C353.306 210.733 353.889 211.572 354.674 212.203C355.466 212.834 356.463 213.149 357.665 213.149ZM353.804 193.947L351.235 193.871C351.235 192.456 351.614 191.326 352.372 190.483C353.139 189.639 354.085 189.217 355.21 189.217C355.73 189.217 356.186 189.307 356.578 189.486C356.97 189.656 357.337 189.856 357.678 190.086C358.027 190.308 358.372 190.508 358.713 190.687C359.063 190.858 359.451 190.943 359.877 190.943C360.371 190.943 360.772 190.755 361.078 190.38C361.394 190.005 361.551 189.541 361.551 188.987L364.07 189.153C364.07 190.576 363.686 191.697 362.919 192.515C362.152 193.325 361.21 193.734 360.094 193.743C359.489 193.743 358.986 193.657 358.585 193.487C358.193 193.308 357.844 193.108 357.537 192.886C357.23 192.656 356.915 192.451 356.591 192.273C356.267 192.094 355.88 192.004 355.428 192.004C354.951 192.004 354.558 192.192 354.252 192.567C353.953 192.933 353.804 193.393 353.804 193.947ZM370.479 215.961V189.78H374.302V199.508H374.532C374.753 199.099 375.073 198.626 375.491 198.089C375.908 197.552 376.488 197.084 377.229 196.683C377.971 196.274 378.951 196.069 380.17 196.069C381.755 196.069 383.17 196.47 384.414 197.271C385.658 198.072 386.634 199.227 387.341 200.736C388.057 202.244 388.415 204.059 388.415 206.182C388.415 208.304 388.062 210.123 387.354 211.64C386.647 213.149 385.675 214.312 384.439 215.13C383.204 215.94 381.793 216.345 380.208 216.345C379.015 216.345 378.039 216.145 377.28 215.744C376.53 215.344 375.942 214.875 375.516 214.338C375.09 213.801 374.762 213.324 374.532 212.906H374.212V215.961H370.479ZM374.225 206.143C374.225 207.524 374.425 208.734 374.826 209.774C375.226 210.814 375.806 211.628 376.564 212.216C377.323 212.795 378.252 213.085 379.351 213.085C380.493 213.085 381.448 212.782 382.215 212.177C382.982 211.564 383.562 210.733 383.954 209.684C384.354 208.636 384.554 207.456 384.554 206.143C384.554 204.848 384.358 203.684 383.966 202.653C383.583 201.622 383.003 200.808 382.228 200.211C381.461 199.615 380.502 199.317 379.351 199.317C378.243 199.317 377.306 199.602 376.539 200.173C375.78 200.744 375.205 201.541 374.813 202.564C374.421 203.586 374.225 204.78 374.225 206.143ZM391.808 215.961V196.325H395.502V199.444H395.707C396.065 198.388 396.695 197.557 397.599 196.951C398.511 196.338 399.542 196.031 400.692 196.031C400.931 196.031 401.212 196.04 401.536 196.057C401.869 196.074 402.129 196.095 402.316 196.121V199.777C402.163 199.734 401.89 199.687 401.498 199.636C401.106 199.576 400.714 199.547 400.322 199.547C399.418 199.547 398.613 199.738 397.906 200.122C397.207 200.497 396.653 201.021 396.244 201.694C395.835 202.359 395.63 203.118 395.63 203.97V215.961H391.808ZM410.263 216.396C409.018 216.396 407.893 216.166 406.888 215.706C405.882 215.237 405.085 214.559 404.497 213.673C403.917 212.787 403.628 211.7 403.628 210.413C403.628 209.305 403.841 208.393 404.267 207.677C404.693 206.961 405.268 206.395 405.993 205.977C406.717 205.559 407.527 205.244 408.422 205.031C409.317 204.818 410.229 204.656 411.158 204.545C412.334 204.409 413.288 204.298 414.021 204.213C414.754 204.119 415.287 203.97 415.619 203.765C415.952 203.561 416.118 203.228 416.118 202.768V202.679C416.118 201.562 415.802 200.697 415.172 200.084C414.55 199.47 413.621 199.163 412.385 199.163C411.098 199.163 410.084 199.449 409.342 200.02C408.609 200.582 408.102 201.209 407.821 201.899L404.229 201.081C404.655 199.888 405.277 198.924 406.095 198.192C406.922 197.45 407.872 196.913 408.946 196.581C410.02 196.24 411.149 196.069 412.334 196.069C413.118 196.069 413.949 196.163 414.827 196.351C415.713 196.53 416.54 196.862 417.307 197.348C418.082 197.834 418.717 198.528 419.212 199.432C419.706 200.326 419.953 201.49 419.953 202.922V215.961H416.22V213.277H416.067C415.819 213.771 415.449 214.257 414.954 214.734C414.46 215.211 413.825 215.608 413.05 215.923C412.274 216.238 411.345 216.396 410.263 216.396ZM411.094 213.328C412.15 213.328 413.054 213.119 413.804 212.701C414.562 212.284 415.138 211.738 415.53 211.065C415.93 210.383 416.131 209.655 416.131 208.879V206.348C415.994 206.484 415.73 206.612 415.338 206.731C414.954 206.842 414.515 206.94 414.021 207.025C413.527 207.102 413.045 207.174 412.577 207.243C412.108 207.302 411.716 207.353 411.4 207.396C410.659 207.49 409.981 207.648 409.368 207.869C408.763 208.091 408.277 208.41 407.91 208.828C407.552 209.237 407.373 209.782 407.373 210.464C407.373 211.41 407.723 212.126 408.422 212.612C409.121 213.089 410.011 213.328 411.094 213.328ZM432.377 223.734C430.818 223.734 429.475 223.53 428.35 223.121C427.234 222.711 426.322 222.17 425.614 221.497C424.907 220.824 424.379 220.086 424.029 219.285L427.315 217.93C427.545 218.305 427.852 218.701 428.235 219.119C428.627 219.545 429.156 219.907 429.82 220.206C430.494 220.504 431.359 220.653 432.416 220.653C433.864 220.653 435.062 220.299 436.008 219.592C436.954 218.893 437.427 217.777 437.427 216.243V212.382H437.184C436.954 212.799 436.621 213.264 436.187 213.775C435.761 214.287 435.173 214.73 434.423 215.105C433.673 215.48 432.697 215.667 431.495 215.667C429.944 215.667 428.546 215.305 427.302 214.581C426.066 213.848 425.086 212.77 424.362 211.346C423.646 209.915 423.288 208.155 423.288 206.067C423.288 203.978 423.641 202.189 424.349 200.697C425.065 199.206 426.045 198.064 427.289 197.271C428.533 196.47 429.944 196.069 431.521 196.069C432.739 196.069 433.724 196.274 434.474 196.683C435.224 197.084 435.808 197.552 436.225 198.089C436.651 198.626 436.979 199.099 437.21 199.508H437.491V196.325H441.237V216.396C441.237 218.084 440.845 219.469 440.06 220.551C439.276 221.633 438.215 222.434 436.877 222.954C435.548 223.474 434.048 223.734 432.377 223.734ZM432.339 212.497C433.438 212.497 434.367 212.241 435.126 211.73C435.893 211.21 436.472 210.469 436.864 209.505C437.265 208.534 437.465 207.371 437.465 206.015C437.465 204.694 437.269 203.531 436.877 202.525C436.485 201.52 435.91 200.736 435.151 200.173C434.393 199.602 433.455 199.317 432.339 199.317C431.188 199.317 430.229 199.615 429.462 200.211C428.695 200.799 428.116 201.601 427.724 202.615C427.34 203.629 427.148 204.763 427.148 206.015C427.148 207.302 427.345 208.432 427.737 209.403C428.129 210.375 428.708 211.133 429.475 211.679C430.251 212.224 431.205 212.497 432.339 212.497ZM451.177 216.396C449.933 216.396 448.808 216.166 447.802 215.706C446.797 215.237 446 214.559 445.412 213.673C444.832 212.787 444.543 211.7 444.543 210.413C444.543 209.305 444.756 208.393 445.182 207.677C445.608 206.961 446.183 206.395 446.908 205.977C447.632 205.559 448.442 205.244 449.337 205.031C450.231 204.818 451.143 204.656 452.072 204.545C453.248 204.409 454.203 204.298 454.936 204.213C455.669 204.119 456.202 203.97 456.534 203.765C456.866 203.561 457.033 203.228 457.033 202.768V202.679C457.033 201.562 456.717 200.697 456.087 200.084C455.464 199.47 454.535 199.163 453.3 199.163C452.013 199.163 450.998 199.449 450.257 200.02C449.524 200.582 449.017 201.209 448.736 201.899L445.143 201.081C445.57 199.888 446.192 198.924 447.01 198.192C447.837 197.45 448.787 196.913 449.861 196.581C450.935 196.24 452.064 196.069 453.248 196.069C454.033 196.069 454.864 196.163 455.741 196.351C456.628 196.53 457.454 196.862 458.221 197.348C458.997 197.834 459.632 198.528 460.126 199.432C460.621 200.326 460.868 201.49 460.868 202.922V215.961H457.135V213.277H456.981C456.734 213.771 456.364 214.257 455.869 214.734C455.375 215.211 454.74 215.608 453.964 215.923C453.189 216.238 452.26 216.396 451.177 216.396ZM452.008 213.328C453.065 213.328 453.969 213.119 454.719 212.701C455.477 212.284 456.052 211.738 456.445 211.065C456.845 210.383 457.045 209.655 457.045 208.879V206.348C456.909 206.484 456.645 206.612 456.253 206.731C455.869 206.842 455.43 206.94 454.936 207.025C454.442 207.102 453.96 207.174 453.491 207.243C453.023 207.302 452.631 207.353 452.315 207.396C451.574 207.49 450.896 207.648 450.283 207.869C449.677 208.091 449.192 208.41 448.825 208.828C448.467 209.237 448.288 209.782 448.288 210.464C448.288 211.41 448.638 212.126 449.337 212.612C450.035 213.089 450.926 213.328 452.008 213.328ZM469.879 189.78L469.546 208.432H466.005L465.673 189.78H469.879ZM467.782 216.204C467.075 216.204 466.47 215.957 465.967 215.463C465.464 214.96 465.217 214.355 465.225 213.648C465.217 212.949 465.464 212.352 465.967 211.858C466.47 211.355 467.075 211.103 467.782 211.103C468.472 211.103 469.069 211.355 469.572 211.858C470.075 212.352 470.33 212.949 470.339 213.648C470.33 214.116 470.207 214.547 469.968 214.939C469.738 215.322 469.431 215.629 469.048 215.859C468.664 216.089 468.242 216.204 467.782 216.204Z" fill="#442604"/>
<rect x="36.9231" y="259.039" width="295" height="90" rx="16.875" fill="#E3000F"/>
<path d="M85.5081 276.937C89.1831 276.937 92.3593 277.62 95.0368 278.985C97.7143 280.297 99.7356 282.109 101.101 284.419C102.518 286.676 103.227 289.196 103.227 291.979C103.227 294.866 102.597 297.649 101.337 300.326C100.129 303.004 98.0293 306.022 95.0368 309.382C92.0968 312.742 87.7918 317.074 82.1218 322.376H104.408L103.148 331.039H69.3643V322.927C75.9793 316.312 80.7568 311.377 83.6968 308.122C86.6368 304.867 88.7106 302.111 89.9181 299.854C91.1256 297.596 91.7293 295.286 91.7293 292.924C91.7293 290.666 91.0731 288.881 89.7606 287.569C88.4481 286.256 86.6893 285.6 84.4843 285.6C82.5418 285.6 80.8093 286.046 79.2868 286.939C77.7643 287.779 76.1631 289.196 74.4831 291.191L67.7893 285.836C72.3043 279.904 78.2106 276.937 85.5081 276.937ZM141.724 313.477C142.459 317.1 143.798 319.751 145.741 321.431C147.736 323.111 150.387 323.951 153.694 323.951C157.212 323.951 160.992 322.849 165.034 320.644V329.306C162.882 330.304 160.834 331.039 158.892 331.511C156.949 332.036 154.823 332.299 152.513 332.299C146.581 332.299 141.698 330.671 137.866 327.416C134.086 324.109 131.592 319.462 130.384 313.477H123.533L125.108 307.414H130.069V301.507H123.533L125.108 295.365H130.463C131.933 289.642 134.663 285.154 138.653 281.899C142.696 278.591 147.447 276.937 152.907 276.937C158.367 276.937 163.302 278.434 167.712 281.426L163.696 288.356C162.016 287.254 160.362 286.466 158.734 285.994C157.107 285.469 155.296 285.206 153.301 285.206C150.571 285.206 148.234 286.046 146.292 287.726C144.349 289.406 142.906 291.952 141.961 295.365H161.254L159.679 301.507H141.409V307.414H158.419L156.923 313.477H141.724Z" fill="#FFE80D"/>
<path d="M186.546 317.539V314.556L195.775 304.994C196.76 303.955 197.573 303.045 198.212 302.264C198.86 301.474 199.344 300.724 199.663 300.014C199.983 299.303 200.143 298.549 200.143 297.75C200.143 296.844 199.93 296.063 199.504 295.406C199.078 294.74 198.496 294.23 197.759 293.875C197.022 293.511 196.192 293.329 195.269 293.329C194.292 293.329 193.44 293.528 192.712 293.928C191.984 294.327 191.425 294.891 191.034 295.619C190.644 296.347 190.448 297.199 190.448 298.176H186.52C186.52 296.516 186.902 295.064 187.665 293.821C188.429 292.579 189.476 291.615 190.808 290.932C192.14 290.239 193.653 289.893 195.349 289.893C197.062 289.893 198.572 290.235 199.877 290.918C201.19 291.593 202.216 292.516 202.953 293.688C203.69 294.851 204.058 296.165 204.058 297.63C204.058 298.642 203.867 299.632 203.485 300.6C203.113 301.567 202.46 302.646 201.528 303.836C200.596 305.016 199.299 306.45 197.639 308.137L192.219 313.81V314.01H204.497V317.539H186.546ZM221.309 310.601L221.283 305.74H221.975L230.125 297.084H234.892L225.597 306.938H224.971L221.309 310.601ZM217.647 317.539V290.266H221.629V317.539H217.647ZM230.564 317.539L223.24 307.817L225.983 305.034L235.452 317.539H230.564ZM250.541 309.056V297.084H254.536V317.539H250.621V313.996H250.408C249.937 315.088 249.183 315.998 248.144 316.726C247.114 317.445 245.831 317.805 244.295 317.805C242.981 317.805 241.818 317.516 240.806 316.939C239.803 316.353 239.013 315.488 238.436 314.343C237.868 313.197 237.584 311.781 237.584 310.095V297.084H241.565V309.615C241.565 311.009 241.952 312.119 242.724 312.944C243.496 313.77 244.499 314.183 245.733 314.183C246.479 314.183 247.221 313.996 247.957 313.623C248.703 313.251 249.32 312.687 249.808 311.932C250.306 311.178 250.55 310.219 250.541 309.056ZM271.906 309.056V297.084H275.901V317.539H271.985V313.996H271.772C271.302 315.088 270.547 315.998 269.509 316.726C268.479 317.445 267.196 317.805 265.66 317.805C264.346 317.805 263.183 317.516 262.171 316.939C261.168 316.353 260.378 315.488 259.801 314.343C259.232 313.197 258.948 311.781 258.948 310.095V297.084H262.93V309.615C262.93 311.009 263.316 312.119 264.089 312.944C264.861 313.77 265.864 314.183 267.098 314.183C267.844 314.183 268.585 313.996 269.322 313.623C270.068 313.251 270.685 312.687 271.173 311.932C271.67 311.178 271.914 310.219 271.906 309.056ZM287.97 317.938C286.319 317.938 284.845 317.516 283.549 316.673C282.262 315.821 281.25 314.609 280.513 313.038C279.785 311.457 279.421 309.562 279.421 307.351C279.421 305.141 279.789 303.25 280.526 301.678C281.272 300.107 282.293 298.904 283.589 298.069C284.885 297.235 286.354 296.818 287.997 296.818C289.266 296.818 290.287 297.031 291.06 297.457C291.841 297.874 292.445 298.362 292.871 298.922C293.306 299.481 293.643 299.974 293.883 300.4H294.123V290.266H298.104V317.539H294.216V314.356H293.883C293.643 314.791 293.297 315.288 292.844 315.847C292.4 316.407 291.788 316.895 291.006 317.312C290.225 317.729 289.213 317.938 287.97 317.938ZM288.849 314.542C289.994 314.542 290.962 314.24 291.752 313.637C292.551 313.024 293.155 312.176 293.563 311.093C293.981 310.01 294.189 308.75 294.189 307.311C294.189 305.891 293.985 304.648 293.577 303.583C293.168 302.517 292.569 301.687 291.779 301.092C290.989 300.498 290.012 300.2 288.849 300.2C287.651 300.2 286.652 300.511 285.853 301.132C285.054 301.754 284.45 302.602 284.042 303.676C283.642 304.75 283.443 305.962 283.443 307.311C283.443 308.678 283.647 309.908 284.055 311C284.464 312.092 285.067 312.958 285.866 313.597C286.674 314.227 287.668 314.542 288.849 314.542Z" fill="white"/>
<rect x="342.236" y="261.851" width="262.5" height="84.375" rx="19.6875" stroke="#E3000F" stroke-width="5.625"/>
<path d="M441.241 288.354L440.521 294.024H432.826V319.539H425.446V294.024H417.391V288.354H441.241ZM462.451 307.119C462.451 308.109 462.406 308.964 462.316 309.684H447.511C447.751 311.694 448.321 313.104 449.221 313.914C450.121 314.724 451.366 315.129 452.956 315.129C453.916 315.129 454.846 314.964 455.746 314.634C456.646 314.274 457.621 313.734 458.671 313.014L461.596 316.974C458.806 319.194 455.701 320.304 452.281 320.304C448.411 320.304 445.441 319.164 443.371 316.884C441.301 314.604 440.266 311.544 440.266 307.704C440.266 305.274 440.701 303.099 441.571 301.179C442.441 299.229 443.716 297.699 445.396 296.589C447.076 295.449 449.086 294.879 451.426 294.879C454.876 294.879 457.576 295.959 459.526 298.119C461.476 300.279 462.451 303.279 462.451 307.119ZM455.476 305.094C455.416 301.434 454.126 299.604 451.606 299.604C450.376 299.604 449.416 300.054 448.726 300.954C448.066 301.854 447.661 303.339 447.511 305.409H455.476V305.094ZM472.791 320.304C470.721 320.304 469.101 319.719 467.931 318.549C466.791 317.349 466.221 315.654 466.221 313.464V286.149L473.331 285.384V313.194C473.331 314.184 473.736 314.679 474.546 314.679C474.966 314.679 475.356 314.604 475.716 314.454L477.111 319.494C475.821 320.034 474.381 320.304 472.791 320.304ZM486.15 320.304C484.08 320.304 482.46 319.719 481.29 318.549C480.15 317.349 479.58 315.654 479.58 313.464V286.149L486.69 285.384V313.194C486.69 314.184 487.095 314.679 487.905 314.679C488.325 314.679 488.715 314.604 489.075 314.454L490.47 319.494C489.18 320.034 487.74 320.304 486.15 320.304ZM500.274 295.644V319.539H493.164V295.644H500.274ZM496.674 283.044C497.904 283.044 498.909 283.434 499.689 284.214C500.499 284.964 500.904 285.924 500.904 287.094C500.904 288.264 500.499 289.239 499.689 290.019C498.909 290.769 497.904 291.144 496.674 291.144C495.444 291.144 494.439 290.769 493.659 290.019C492.879 289.239 492.489 288.264 492.489 287.094C492.489 285.924 492.879 284.964 493.659 284.214C494.439 283.434 495.444 283.044 496.674 283.044ZM519.859 294.879C521.929 294.879 523.549 295.509 524.719 296.769C525.889 298.029 526.474 299.799 526.474 302.079V319.539H519.364V303.294C519.364 302.094 519.169 301.269 518.779 300.819C518.419 300.339 517.864 300.099 517.114 300.099C515.674 300.099 514.294 301.134 512.974 303.204V319.539H505.864V295.644H512.074L512.569 298.479C513.589 297.279 514.684 296.379 515.854 295.779C517.054 295.179 518.389 294.879 519.859 294.879Z" fill="#E3000F"/>
</svg>
