<svg width="24" height="24" viewBox="0 0 24 24" fill="none" xmlns="http://www.w3.org/2000/svg">
<path d="M12 21.6C10.6833 21.6 9.44166 21.35 8.27499 20.85C7.10833 20.35 6.08749 19.6625 5.21249 18.7875C4.33749 17.9125 3.64999 16.8917 3.14999 15.725C2.64999 14.5584 2.39999 13.3125 2.39999 11.9875C2.39999 10.6625 2.64999 9.42086 3.14999 8.26252C3.64999 7.10419 4.33749 6.08752 5.21249 5.21252C6.08749 4.33752 7.10833 3.65002 8.27499 3.15002C9.44166 2.65002 10.6833 2.40002 12 2.40002C13.3333 2.40002 14.5792 2.65002 15.7375 3.15002C16.8958 3.65002 17.9125 4.33752 18.7875 5.21252C19.6625 6.08752 20.35 7.10419 20.85 8.26252C21.35 9.42086 21.6 10.6625 21.6 11.9875C21.6 13.3125 21.35 14.5584 20.85 15.725C20.35 16.8917 19.6625 17.9125 18.7875 18.7875C17.9125 19.6625 16.8958 20.35 15.7375 20.85C14.5792 21.35 13.3333 21.6 12 21.6ZM16.475 9.80002L17.85 9.40002L18.475 7.67502C17.975 6.94169 17.3833 6.31252 16.7 5.78752C16.0167 5.26252 15.25 4.85836 14.4 4.57502L12.9 5.65002V7.27502L16.475 9.80002ZM7.49999 9.77502L11.1 7.27502V5.65002L9.59999 4.57502C8.74999 4.85836 7.97916 5.25836 7.28749 5.77502C6.59583 6.29169 6.00833 6.91669 5.52499 7.65002L6.14999 9.40002L7.49999 9.77502ZM5.64999 16.5L7.47499 16.55L8.29999 15.45L6.97499 11.5L5.64999 11.125L4.19999 12.25C4.23333 13.0167 4.37083 13.7584 4.61249 14.475C4.85416 15.1917 5.19999 15.8667 5.64999 16.5ZM13.275 19.6875C13.6917 19.6125 14.1083 19.5084 14.525 19.375L15.075 17.625L14.225 16.5H9.74999L8.92499 17.625L9.47499 19.375C9.89166 19.5084 10.3083 19.6125 10.725 19.6875C11.1417 19.7625 11.5667 19.8 12 19.8C12.4333 19.8 12.8583 19.7625 13.275 19.6875ZM9.94999 14.7H14.05L15.25 11.125L12 8.85002L8.74999 11.125L9.94999 14.7ZM18.35 16.525C18.8 15.8917 19.1458 15.2167 19.3875 14.5C19.6292 13.7834 19.7667 13.0417 19.8 12.275L18.35 11.125L17.025 11.5L15.7 15.45L16.525 16.55L18.35 16.525Z" fill="#002E15"/>
</svg>
