<svg width="235" height="64" viewBox="0 0 235 64" fill="none" xmlns="http://www.w3.org/2000/svg">
<path d="M0 8C0 3.58172 3.58172 0 8 0H226.94C231.358 0 234.94 3.58172 234.94 8V56C234.94 60.4183 231.358 64 226.94 64H8C3.58172 64 0 60.4183 0 56V8Z" fill="black"/>
<path d="M39.9845 32.5013C40.0025 31.1048 40.3734 29.7356 41.0628 28.521C41.7521 27.3064 42.7375 26.2859 43.9273 25.5544C43.1715 24.475 42.1744 23.5867 41.0152 22.96C39.856 22.3333 38.5667 21.9856 37.2496 21.9444C34.4401 21.6495 31.7163 23.6256 30.2846 23.6256C28.8252 23.6256 26.6209 21.9737 24.2472 22.0225C22.7118 22.0721 21.2155 22.5186 19.9039 23.3184C18.5924 24.1183 17.5104 25.2442 16.7635 26.5865C13.5277 32.1888 15.9413 40.4223 19.0409 44.9508C20.5917 47.1682 22.4042 49.6452 24.7757 49.5574C27.0964 49.4611 27.9632 48.0775 30.7645 48.0775C33.5398 48.0775 34.353 49.5574 36.7726 49.5015C39.2629 49.4611 40.8318 47.2742 42.3282 45.0357C43.4425 43.4557 44.2999 41.7094 44.8686 39.8616C43.4219 39.2497 42.1873 38.2254 41.3188 36.9166C40.4502 35.6077 39.9862 34.0721 39.9845 32.5013Z" fill="white"/>
<path d="M35.4145 18.9658C36.7723 17.3359 37.4412 15.2408 37.2792 13.1256C35.2048 13.3435 33.2887 14.3349 31.9126 15.9023C31.2397 16.6681 30.7244 17.5589 30.3961 18.5239C30.0678 19.4889 29.9328 20.5091 29.999 21.5263C31.0366 21.537 32.063 21.3121 33.0011 20.8686C33.9392 20.4251 34.7643 19.7745 35.4145 18.9658Z" fill="white"/>
<path d="M64.4532 23.133H58.2264V13.1499H59.777V21.7074H64.4532V23.133Z" fill="white"/>
<path d="M66.0201 21.0024C66.0201 19.6462 67.0299 18.8644 68.8223 18.7533L70.863 18.6357V17.9854C70.863 17.1897 70.3369 16.7404 69.3206 16.7404C68.4906 16.7404 67.9155 17.0451 67.7504 17.5777H66.311C66.4629 16.2837 67.6802 15.4537 69.3892 15.4537C71.278 15.4537 72.3433 16.394 72.3433 17.9854V23.133H70.912V22.0742H70.7944C70.5556 22.454 70.2203 22.7636 69.8227 22.9714C69.4252 23.1793 68.9796 23.2778 68.5314 23.2571C68.2152 23.29 67.8955 23.2563 67.5931 23.1581C67.2906 23.0599 67.0121 22.8994 66.7755 22.6869C66.5389 22.4745 66.3494 22.2148 66.2193 21.9247C66.0892 21.6345 66.0214 21.3204 66.0201 21.0024ZM70.863 20.3586V19.7288L69.0234 19.8464C67.9858 19.9158 67.5153 20.2688 67.5153 20.9329C67.5153 21.611 68.1035 22.0056 68.9123 22.0056C69.1493 22.0296 69.3887 22.0056 69.6162 21.9352C69.8438 21.8648 70.0548 21.7493 70.2368 21.5956C70.4188 21.442 70.5681 21.2533 70.6756 21.0408C70.7832 20.8283 70.8469 20.5963 70.863 20.3586Z" fill="white"/>
<path d="M74.2419 21.0024C74.2419 19.6462 75.2517 18.8644 77.044 18.7533L79.0848 18.6357V17.9854C79.0848 17.1897 78.5587 16.7404 77.5424 16.7404C76.7124 16.7404 76.1373 17.0451 75.9722 17.5777H74.5327C74.6847 16.2837 75.902 15.4537 77.611 15.4537C79.4998 15.4537 80.5651 16.394 80.5651 17.9854V23.133H79.1338V22.0742H79.0162C78.7774 22.454 78.4421 22.7636 78.0445 22.9714C77.647 23.1793 77.2014 23.2778 76.7532 23.2571C76.437 23.29 76.1173 23.2563 75.8149 23.1581C75.5124 23.0599 75.2339 22.8994 74.9973 22.6869C74.7607 22.4745 74.5712 22.2148 74.4411 21.9247C74.311 21.6345 74.2432 21.3204 74.2419 21.0024ZM79.0848 20.3586V19.7288L77.245 19.8464C76.2075 19.9158 75.7369 20.2688 75.7369 20.9329C75.7369 21.611 76.3251 22.0056 77.1339 22.0056C77.3709 22.0296 77.6103 22.0057 77.8379 21.9352C78.0654 21.8648 78.2765 21.7493 78.4585 21.5957C78.6405 21.442 78.7898 21.2533 78.8974 21.0408C79.005 20.8283 79.0687 20.5963 79.0848 20.3586Z" fill="white"/>
<path d="M82.5193 19.3628C82.5193 16.9822 83.7431 15.4741 85.6465 15.4741C86.1174 15.4524 86.5847 15.5652 86.9938 15.7992C87.4029 16.0333 87.737 16.3789 87.9569 16.7958H88.068V12.6581H89.5548V23.133H88.1301V21.9427H88.0125C87.7755 22.3568 87.4298 22.6981 87.0128 22.9298C86.5958 23.1615 86.1233 23.2747 85.6466 23.2572C83.73 23.2572 82.5193 21.7491 82.5193 19.3628ZM84.0552 19.3628C84.0552 20.9607 84.8084 21.9223 86.0682 21.9223C87.3213 21.9223 88.0958 20.9469 88.0958 19.3693C88.0958 17.7991 87.3132 16.8098 86.0682 16.8098C84.8165 16.8098 84.0552 17.7779 84.0552 19.3628Z" fill="white"/>
<path d="M91.7999 13.3714C91.7884 13.1788 91.835 12.9872 91.9337 12.8215C92.0324 12.6557 92.1786 12.5234 92.3533 12.4416C92.5281 12.3599 92.7233 12.3325 92.9138 12.363C93.1043 12.3935 93.2812 12.4805 93.4217 12.6128C93.5622 12.745 93.6597 12.9164 93.7016 13.1047C93.7436 13.293 93.728 13.4895 93.657 13.6689C93.5859 13.8483 93.4626 14.0021 93.3031 14.1106C93.1436 14.2191 92.9552 14.2772 92.7623 14.2774C92.639 14.2837 92.5157 14.265 92.3998 14.2224C92.2839 14.1798 92.1778 14.1142 92.0879 14.0296C91.998 13.9449 91.9261 13.843 91.8767 13.7299C91.8272 13.6168 91.801 13.4948 91.7999 13.3714ZM92.0205 15.5992H93.5024V23.1331H92.0205V15.5992Z" fill="white"/>
<path d="M99.5576 21.0024C99.5576 19.6462 100.567 18.8644 102.36 18.7533L104.4 18.6357V17.9854C104.4 17.1897 103.874 16.7404 102.858 16.7404C102.028 16.7404 101.453 17.0451 101.288 17.5777H99.8484C100 16.2837 101.218 15.4537 102.927 15.4537C104.815 15.4537 105.881 16.394 105.881 17.9854V23.133H104.449V22.0742H104.332C104.093 22.454 103.758 22.7636 103.36 22.9714C102.963 23.1793 102.517 23.2778 102.069 23.2571C101.753 23.29 101.433 23.2563 101.131 23.1581C100.828 23.0599 100.55 22.8994 100.313 22.6869C100.076 22.4745 99.8869 22.2148 99.7568 21.9247C99.6267 21.6345 99.5588 21.3204 99.5576 21.0024ZM104.4 20.3586V19.7288L102.561 19.8464C101.523 19.9158 101.053 20.2688 101.053 20.9329C101.053 21.611 101.641 22.0056 102.45 22.0056C102.687 22.0296 102.926 22.0056 103.154 21.9352C103.381 21.8648 103.592 21.7493 103.774 21.5956C103.956 21.442 104.105 21.2533 104.213 21.0408C104.321 20.8283 104.384 20.5963 104.4 20.3586Z" fill="white"/>
<path d="M108.278 12.6581H109.765V23.133H108.278L108.278 12.6581Z" fill="white"/>
<path d="M112.274 12.6581H113.761V23.133H112.274V12.6581Z" fill="white"/>
<path d="M115.774 21.0024C115.774 19.6462 116.784 18.8644 118.576 18.7533L120.617 18.6357V17.9854C120.617 17.1897 120.091 16.7404 119.075 16.7404C118.245 16.7404 117.669 17.0451 117.504 17.5777H116.065C116.217 16.2837 117.434 15.4537 119.143 15.4537C121.032 15.4537 122.097 16.394 122.097 17.9854V23.133H120.666V22.0742H120.548C120.31 22.454 119.974 22.7636 119.577 22.9714C119.179 23.1793 118.733 23.2778 118.285 23.2571C117.969 23.29 117.649 23.2563 117.347 23.1581C117.045 23.0599 116.766 22.8994 116.529 22.6869C116.293 22.4745 116.103 22.2148 115.973 21.9247C115.843 21.6345 115.775 21.3204 115.774 21.0024ZM120.617 20.3586V19.7288L118.777 19.8464C117.74 19.9158 117.269 20.2688 117.269 20.9329C117.269 21.611 117.857 22.0056 118.666 22.0056C118.903 22.0296 119.142 22.0057 119.37 21.9352C119.598 21.8648 119.809 21.7493 119.991 21.5957C120.173 21.442 120.322 21.2533 120.43 21.0408C120.537 20.8283 120.601 20.5963 120.617 20.3586Z" fill="white"/>
<path d="M69.325 43.925H61.4054L59.5036 49.5408H56.1492L63.6504 28.7632H67.1355L74.6367 49.5407H71.2252L69.325 43.925ZM62.2257 41.3337H68.5032L65.4086 32.2189H65.3218L62.2257 41.3337Z" fill="white"/>
<path d="M90.837 41.9672C90.837 46.6745 88.3175 49.6988 84.5154 49.6988C83.5523 49.7492 82.5944 49.5273 81.7515 49.0586C80.9086 48.5899 80.2147 47.8933 79.7493 47.0486H79.6774V54.5515H76.568V34.3916H79.5777V36.911H79.6349C80.1217 36.0703 80.8273 35.3774 81.6766 34.9058C82.5259 34.4342 83.4872 34.2017 84.4582 34.2331C88.3029 34.2331 90.837 37.2721 90.837 41.9672ZM87.641 41.9672C87.641 38.8995 86.0561 36.8833 83.638 36.8833C81.2623 36.8833 79.6643 38.942 79.6643 41.9672C79.6643 45.0193 81.2623 47.0633 83.638 47.0633C86.0562 47.0633 87.641 45.0618 87.641 41.9672Z" fill="white"/>
<path d="M107.508 41.9672C107.508 46.6745 104.99 49.6988 101.188 49.6988C100.224 49.7492 99.2666 49.5273 98.4237 49.0586C97.5808 48.5899 96.8869 47.8933 96.4215 47.0486H96.3497V54.5515H93.2404V34.3916H96.25V36.911H96.3072C96.794 36.0703 97.4995 35.3774 98.3489 34.9058C99.1982 34.4342 100.159 34.2017 101.13 34.2331C104.975 34.2331 107.508 37.2721 107.508 41.9672ZM104.313 41.9672C104.313 38.8995 102.728 36.8833 100.31 36.8833C97.9345 36.8833 96.3365 38.942 96.3365 41.9672C96.3365 45.0193 97.9345 47.0633 100.31 47.0633C102.728 47.0633 104.313 45.0618 104.313 41.9672Z" fill="white"/>
<path d="M118.527 43.7518C118.757 45.8122 120.759 47.165 123.494 47.165C126.115 47.165 128 45.8121 128 43.9544C128 42.3417 126.863 41.3761 124.17 40.7143L121.478 40.0649C117.662 39.1434 115.891 37.3592 115.891 34.4639C115.891 30.8791 119.015 28.4168 123.451 28.4168C127.842 28.4168 130.851 30.8791 130.952 34.4639H127.814C127.626 32.3905 125.912 31.1389 123.407 31.1389C120.902 31.1389 119.188 32.4052 119.188 34.2482C119.188 35.7171 120.283 36.5815 122.961 37.2431L125.25 37.8052C129.513 38.8133 131.284 40.5264 131.284 43.5655C131.284 47.4526 128.188 49.8871 123.263 49.8871C118.656 49.8871 115.545 47.5097 115.344 43.7518L118.527 43.7518Z" fill="white"/>
<path d="M137.995 30.8072V34.392H140.875V36.8543H137.995V45.206C137.995 46.5033 138.571 47.1079 139.838 47.1079C140.18 47.1019 140.521 47.0779 140.86 47.0359V49.4835C140.291 49.5899 139.712 49.6381 139.133 49.6273C136.067 49.6273 134.871 48.4754 134.871 45.5376V36.8543H132.668V34.392H134.871V30.8072H137.995Z" fill="white"/>
<path d="M142.543 41.9676C142.543 37.2007 145.35 34.2058 149.728 34.2058C154.12 34.2058 156.914 37.2006 156.914 41.9676C156.914 46.7468 154.134 49.7286 149.728 49.7286C145.323 49.7286 142.543 46.7467 142.543 41.9676ZM153.745 41.9676C153.745 38.6973 152.247 36.7677 149.728 36.7677C147.208 36.7677 145.711 38.7121 145.711 41.9676C145.711 45.2501 147.208 47.1651 149.728 47.1651C152.247 47.1651 153.745 45.2501 153.745 41.9676Z" fill="white"/>
<path d="M159.477 34.3914H162.443V36.9697H162.515C162.715 36.1644 163.187 35.4528 163.851 34.9544C164.514 34.456 165.329 34.2012 166.158 34.2329C166.517 34.2316 166.874 34.2706 167.223 34.3489V37.2572C166.771 37.119 166.299 37.0555 165.826 37.0693C165.375 37.051 164.924 37.1307 164.506 37.3029C164.088 37.4751 163.712 37.7357 163.405 38.0669C163.097 38.3981 162.864 38.792 162.723 39.2215C162.582 39.651 162.535 40.106 162.586 40.5552V49.5401H159.477L159.477 34.3914Z" fill="white"/>
<path d="M181.561 45.0916C181.143 47.8415 178.465 49.7286 175.038 49.7286C170.632 49.7286 167.897 46.7762 167.897 42.0395C167.897 37.2873 170.646 34.2058 174.908 34.2058C179.099 34.2058 181.734 37.0847 181.734 41.6784V42.7437H171.035V42.9316C170.986 43.4891 171.056 44.0507 171.24 44.5791C171.424 45.1076 171.719 45.5907 172.104 45.9965C172.49 46.4024 172.957 46.7215 173.475 46.9328C173.994 47.1442 174.551 47.2428 175.11 47.2222C175.845 47.2911 176.582 47.1209 177.213 46.737C177.843 46.3531 178.332 45.7761 178.608 45.0916L181.561 45.0916ZM171.05 40.5706H178.623C178.651 40.0693 178.575 39.5676 178.4 39.097C178.225 38.6264 177.955 38.1971 177.606 37.836C177.257 37.4749 176.837 37.1899 176.373 36.9987C175.908 36.8076 175.41 36.7144 174.908 36.7252C174.401 36.7222 173.899 36.8195 173.431 37.0116C172.962 37.2036 172.536 37.4865 172.178 37.8441C171.819 38.2016 171.535 38.6266 171.341 39.0945C171.148 39.5625 171.049 40.0642 171.05 40.5706Z" fill="white"/>
<path d="M183.821 36.3658L185.52 28.7632H188.543L186.484 36.3658H183.821Z" fill="white"/>
<path d="M191.317 30.4044C191.31 30.0451 191.41 29.6918 191.605 29.3896C191.799 29.0875 192.079 28.8501 192.41 28.708C192.74 28.5659 193.105 28.5254 193.458 28.5916C193.811 28.6579 194.136 28.828 194.392 29.0801C194.649 29.3322 194.824 29.655 194.895 30.0071C194.967 30.3593 194.932 30.7248 194.795 31.0571C194.658 31.3893 194.426 31.6732 194.126 31.8724C193.827 32.0716 193.476 32.1772 193.116 32.1755C192.643 32.1785 192.188 31.9937 191.851 31.6617C191.514 31.3297 191.322 30.8776 191.317 30.4044ZM191.562 34.3927H194.672V49.5415H191.562V34.3927Z" fill="white"/>
<path d="M203.668 34.2205C207.024 34.2205 209.427 36.0766 209.499 38.7546H206.576C206.447 37.4164 205.31 36.5963 203.581 36.5963C201.896 36.5963 200.774 37.3724 200.774 38.5537C200.774 39.4605 201.522 40.065 203.092 40.4547L205.641 41.0462C208.693 41.7798 209.845 42.9023 209.845 45.1212C209.845 47.8563 207.254 49.7288 203.553 49.7288C199.982 49.7288 197.578 47.8988 197.348 45.1343H200.428C200.645 46.5884 201.81 47.3662 203.697 47.3662C205.555 47.3662 206.72 46.6032 206.72 45.3941C206.72 44.4578 206.145 43.9546 204.561 43.551L201.854 42.8893C199.119 42.2259 197.737 40.8289 197.737 38.7269C197.736 36.0488 200.14 34.2205 203.668 34.2205Z" fill="white"/>
<path d="M216.451 30.8072V34.392H219.332V36.8543H216.451V45.206C216.451 46.5033 217.028 47.1079 218.294 47.1079C218.636 47.1019 218.978 47.0779 219.317 47.0359V49.4835C218.748 49.5899 218.169 49.6381 217.59 49.6273C214.523 49.6273 213.327 48.4754 213.327 45.5376V36.8543H211.125V34.392H213.327V30.8072H216.451Z" fill="white"/>
</svg>
