<svg width="217" height="64" viewBox="0 0 217 64" fill="none" xmlns="http://www.w3.org/2000/svg">
<path d="M0 8C0 3.58172 3.58172 0 8 0H208.05C212.468 0 216.05 3.58172 216.05 8V56C216.05 60.4183 212.468 64 208.05 64H8.00001C3.58173 64 0 60.4183 0 56V8Z" fill="black"/>
<path d="M109.015 34.7966C105.309 34.7966 102.235 37.6892 102.235 41.6666C102.235 45.644 105.309 48.4463 109.015 48.4463C112.721 48.4463 115.885 45.5536 115.885 41.5762C115.885 37.5988 112.811 34.7966 109.015 34.7966ZM109.015 45.7344C106.936 45.7344 105.218 44.0169 105.218 41.5762C105.218 39.1356 107.026 37.5084 109.015 37.5084C111.004 37.5084 112.902 39.1356 112.902 41.5762C112.902 44.0169 111.094 45.7344 109.015 45.7344ZM94.0996 34.887C90.3934 34.887 87.3199 37.6892 87.3199 41.5762C87.3199 45.4632 90.3934 48.4463 94.0996 48.4463C97.8058 48.4463 100.97 45.5536 100.97 41.5762C100.97 37.5988 97.8962 34.7966 94.0996 34.7966V34.887ZM94.0996 45.7344C92.0205 45.7344 90.303 44.0169 90.303 41.5762C90.303 39.1356 92.1109 37.5084 94.0996 37.5084C96.0883 37.5084 97.9866 39.1356 97.9866 41.5762C97.9866 44.0169 96.1787 45.7344 94.0996 45.7344ZM76.3821 36.8757V39.7683H83.3425C83.2212 41.122 82.6481 42.3956 81.7154 43.3841C81.0291 44.1007 80.1993 44.6642 79.2803 45.0381C78.3612 45.4119 77.3737 45.5876 76.3821 45.5536C75.3773 45.5537 74.3824 45.3543 73.4552 44.9671C72.5281 44.5799 71.6869 44.0125 70.9806 43.2978C70.2744 42.5831 69.7169 41.7353 69.3407 40.8036C68.9645 39.8719 68.7769 38.8748 68.7889 37.87C68.7666 36.3737 69.187 34.9042 69.9973 33.6461C70.8075 32.3879 71.9714 31.3973 73.3429 30.7985C74.7143 30.1997 76.2321 30.0195 77.7056 30.2805C79.1792 30.5415 80.5427 31.2321 81.625 32.2655L83.6137 30.1864C82.0975 28.7552 80.1952 27.7997 78.1418 27.4381C76.0884 27.0764 73.9741 27.3245 72.0602 28.1516C70.1463 28.9787 68.5168 30.3486 67.373 32.0919C66.2293 33.8352 65.6216 35.8754 65.625 37.9604C65.6958 40.7901 66.8698 43.48 68.8965 45.456C70.9231 47.432 73.6419 48.5376 76.4725 48.5367C79.5459 48.5367 81.8962 47.4519 83.7041 45.5536C85.6928 43.6553 86.2352 41.0339 86.2352 38.774L86.1448 36.9661H76.3821V36.8757ZM148.879 39.1356C148.337 37.6892 146.619 34.7966 143.094 34.7966C139.569 34.7966 136.676 37.5084 136.676 41.6666C136.676 45.4632 139.569 48.4463 143.365 48.4463C146.529 48.4463 148.337 46.548 149.06 45.3728L146.71 43.8361C145.987 45.0113 144.902 45.644 143.365 45.644C141.828 45.644 140.834 45.0113 140.111 43.6553L149.15 39.8587L148.879 39.1356ZM139.569 41.3954C139.569 38.774 141.648 37.5084 143.184 37.5084C144.359 37.5084 145.354 38.0508 145.715 38.8644L139.569 41.3954ZM132.246 47.9943H135.23V28.0169H132.246V47.9943ZM127.275 36.3333C126.819 35.8315 126.259 35.4343 125.635 35.169C125.011 34.9038 124.337 34.7767 123.659 34.7966C120.224 34.7966 117.15 37.7796 117.15 41.6666C117.15 45.5536 120.224 48.4463 123.659 48.4463C125.286 48.4463 126.552 47.7231 127.275 46.9096V47.8135C127.275 50.5254 125.919 51.8813 123.659 51.8813C121.851 51.8813 120.766 50.5254 120.224 49.4406L117.602 50.5254C118.416 52.3333 120.314 54.5932 123.659 54.5932C127.184 54.5932 130.167 52.5141 130.167 47.4519V35.2486H127.275V36.3333ZM123.93 45.7344C121.851 45.7344 120.133 44.0169 120.133 41.6666C120.133 39.3163 121.851 37.5084 123.93 37.5084C126.009 37.5084 127.546 39.3163 127.546 41.6666C127.546 44.0169 125.919 45.7344 123.93 45.7344ZM162.891 28.0169H155.749V47.9943H158.732V40.4011H162.891C166.235 40.4011 169.489 38.0508 169.489 34.2542C169.489 30.4576 166.235 28.0169 162.891 28.0169ZM162.891 37.6892H158.732V30.7288H162.981C165.15 30.7288 166.506 32.5367 166.506 34.1638C166.506 35.7909 165.241 37.5988 162.891 37.5988V37.6892ZM181.422 34.7966C179.252 34.7966 176.992 35.7005 176.088 37.87L178.8 38.9548C179.343 37.87 180.427 37.5084 181.512 37.5084C183.049 37.5084 184.585 38.4124 184.676 40.0395V40.3107C183.711 39.7673 182.62 39.4867 181.512 39.4971C178.619 39.4971 175.727 41.0339 175.727 44.0169C175.727 46.7288 178.077 48.4463 180.698 48.4463C182.687 48.4463 183.862 47.5423 184.495 46.4576H184.676V47.9943H187.478V40.3107C187.478 36.7853 184.857 34.887 181.422 34.887V34.7966ZM181.06 45.7344C180.156 45.7344 178.71 45.2824 178.71 44.0169C178.71 42.4802 180.427 41.9378 181.874 41.9378C182.817 41.9091 183.752 42.1272 184.585 42.5706C184.477 43.4339 184.061 44.229 183.413 44.8102C182.765 45.3913 181.93 45.7195 181.06 45.7344ZM197.964 35.2486L194.529 43.9265L190.913 35.2486H187.659L193.083 47.3615L190.009 54.0508H193.083L201.309 35.2486H197.964ZM171.117 47.9039H174.1V28.0169H171.117V47.9943V47.9039Z" fill="white"/>
<path d="M33.1726 31.0918L16.0879 49.1709C16.2639 49.8604 16.6003 50.4987 17.0696 51.0337C17.5389 51.5686 18.1279 51.9852 18.7886 52.2495C19.4494 52.5138 20.1632 52.6184 20.872 52.5546C21.5808 52.4909 22.2645 52.2607 22.8676 51.8828L42.1218 40.8545L33.0822 31.0918H33.1726Z" fill="#EA4335"/>
<path d="M50.3478 28.0175L42.1218 23.2266L32.7207 31.5429L42.1218 40.8545L50.3478 36.1531C51.7941 35.2492 52.7885 33.8028 52.7885 32.0853C52.7885 30.3678 51.8845 28.8311 50.3478 28.0175Z" fill="#FBBC04"/>
<path d="M16.088 14.9092L15.9072 16.0843V47.9035C15.9072 48.3555 15.9072 48.8075 16.088 49.0787L33.7151 31.6323L16.088 14.9092Z" fill="#4285F4"/>
<path d="M33.263 31.9943L42.1218 23.2266L22.9579 12.1073C22.3478 11.7306 21.6582 11.5014 20.9439 11.438C20.2297 11.3746 19.5105 11.4786 18.8435 11.7419C18.1765 12.0052 17.5801 12.4204 17.1018 12.9546C16.6234 13.4888 16.2762 14.1272 16.0879 14.8191L33.263 31.9943Z" fill="#34A853"/>
<path d="M66.8906 11.2941H68.337V15.3619H72.8567V11.2941H74.3935V21.0568H72.8567V16.8082H68.337V21.0568H66.8906V11.2941ZM80.8115 11.2941L84.4273 21.0568H82.8002L81.8963 18.5257H78.0093L77.1053 21.0568H75.3878L79.0036 11.2941H80.8115ZM81.3539 17.1698L80.4499 14.2771L80.0884 13.102H79.998L79.546 14.2771L78.5516 17.0794H81.3539V17.1698ZM85.4217 11.2941H87.2296L91.659 18.3449V11.2941H93.1053V21.0568H91.5686L86.9584 13.554V21.0568H85.4217V11.2941ZM95.094 11.2941H96.5403V15.9042H96.6307L100.608 11.3845H102.416L98.8906 15.4523L102.778 20.9664H100.97L97.8963 16.7178L96.5403 18.1641V21.0568H95.094V11.2941ZM103.682 11.2941H105.218V21.0568H103.682V11.2941ZM109.015 20.6048C108.225 20.1492 107.573 19.4888 107.127 18.6932C106.682 17.8976 106.46 16.9965 106.484 16.085C106.484 15.1811 106.755 14.2771 107.207 13.554C107.659 12.8308 108.292 12.198 109.015 11.746C109.828 11.2941 110.642 11.1133 111.546 11.1133C112.269 11.1133 112.992 11.2037 113.625 11.4749C114.258 11.746 114.8 12.1076 115.252 12.5596L114.167 13.6444L112.992 12.7404C112.536 12.5493 112.036 12.4868 111.546 12.5596C110.587 12.5596 109.667 12.9406 108.989 13.6187C108.311 14.2968 107.93 15.2165 107.93 16.1754C107.924 16.8156 108.089 17.4459 108.406 18.0017C108.724 18.5576 109.184 19.0192 109.738 19.3393C110.291 19.6453 110.914 19.8011 111.546 19.7912C112.035 19.8298 112.527 19.7683 112.992 19.6105C113.444 19.4297 113.715 19.1585 114.077 18.8873C114.559 18.4039 114.849 17.761 114.891 17.0794H111.546V15.8138H116.337V16.537C116.337 17.1698 116.337 17.8025 116.066 18.3449C115.885 18.8873 115.614 19.4297 115.162 19.7912C114.705 20.2866 114.143 20.6736 113.518 20.9238C112.892 21.1741 112.218 21.2813 111.546 21.2376C110.642 21.2376 109.738 21.0568 109.015 20.6048ZM117.783 11.2941H123.749V12.7404H119.32V15.4523H123.297V16.8986H119.32V19.6105H123.749V21.0568H117.874V11.2941H117.783ZM129.625 12.7404H126.913V11.2941H133.874V12.7404H131.162V21.0568H129.625V12.65V12.7404ZM135.049 11.2941H140.925V12.7404H136.586V15.4523H140.473V16.8986H136.586V19.6105H140.925V21.0568H135.049V11.2941ZM142.552 11.2941H148.427V12.7404H143.998V15.4523H147.975V16.8986H143.998V19.6105H148.518V21.0568H142.552V11.2941ZM151.862 11.2941L156.111 18.3449H156.201V11.2941H157.648V21.0568H156.111L151.501 13.554V21.0568H149.964V11.2941H151.862ZM161.173 20.7856C160.631 20.424 160.269 19.972 159.908 19.3393C159.594 18.6921 159.439 17.9793 159.456 17.2602V11.2941H160.902V17.3506C160.902 18.0737 161.083 18.6161 161.535 19.1585C161.987 19.7009 162.439 19.7912 163.162 19.7912C163.885 19.7912 164.337 19.5201 164.699 19.0681C165.06 18.6161 165.241 18.1641 165.241 17.3506V11.2941H166.778V17.1698C166.778 17.9833 166.687 18.6161 166.326 19.2489C165.964 19.8816 165.602 20.3336 165.06 20.6048C164.518 20.9664 163.885 21.1472 163.071 21.1472C162.258 21.1472 161.715 20.9664 161.263 20.6048L161.173 20.7856ZM169.218 20.5144C168.552 20.0258 168.074 19.324 167.862 18.5257L169.309 17.9833C169.399 18.5257 169.67 18.8873 170.032 19.2489C170.393 19.6105 170.936 19.7912 171.388 19.7912C171.84 19.7912 172.292 19.7009 172.563 19.4297C172.925 19.1585 173.105 18.8873 173.105 18.4353C173.105 17.9833 172.925 17.7122 172.653 17.441C172.188 17.0889 171.669 16.8142 171.117 16.6274L170.484 16.4466C169.877 16.2347 169.322 15.8957 168.857 15.4523C168.405 15.0003 168.224 14.4579 168.224 13.7347C168.224 13.2828 168.314 12.8308 168.586 12.3788C168.857 11.9268 169.218 11.6557 169.67 11.4749C170.122 11.2941 170.665 11.1133 171.297 11.1133C172.111 11.1133 172.834 11.2941 173.286 11.746C173.738 12.198 174.19 12.65 174.371 13.102L172.925 13.7347C172.8 13.4 172.579 13.1098 172.289 12.9006C171.999 12.6915 171.654 12.5728 171.297 12.5596C170.916 12.5331 170.536 12.628 170.213 12.8308C169.851 13.102 169.761 13.3732 169.761 13.7347C169.761 14.0963 169.761 14.3675 170.122 14.6387L171.388 15.1811L172.021 15.3619C172.834 15.7234 173.467 16.085 173.919 16.537C174.371 16.989 174.642 17.6218 174.642 18.3449C174.642 19.0681 174.461 19.6105 174.1 19.972C173.828 20.424 173.376 20.7856 172.834 20.9664C172.292 21.1472 171.93 21.2376 171.297 21.2376C170.525 21.2639 169.765 21.0421 169.128 20.6048L169.218 20.5144ZM176.088 11.2941H181.964V12.7404H177.625V15.4523H181.512V16.8986H177.625V19.6105H181.964V21.0568H176.088V11.2941ZM184.224 20.5144C183.558 20.0258 183.08 19.324 182.868 18.5257L184.314 17.9833C184.495 18.5257 184.676 18.8873 185.038 19.2489C185.399 19.6105 185.941 19.7912 186.393 19.7912C186.845 19.7912 187.297 19.7009 187.659 19.4297C187.93 19.1585 188.111 18.8873 188.111 18.4353C188.111 17.9833 188.021 17.7122 187.659 17.441C187.194 17.0889 186.675 16.8142 186.122 16.6274L185.489 16.4466C184.883 16.2347 184.328 15.8957 183.862 15.4523C183.41 15.0003 183.23 14.4579 183.23 13.7347C183.23 13.2828 183.32 12.8308 183.591 12.3788C183.862 11.9268 184.224 11.6557 184.676 11.4749C185.128 11.2941 185.67 11.1133 186.303 11.1133C187.207 11.1133 187.84 11.2941 188.292 11.746C188.744 12.198 189.196 12.65 189.376 13.102L188.021 13.7347C187.89 13.3858 187.655 13.0856 187.348 12.8753C187.04 12.6649 186.676 12.5547 186.303 12.5596C185.922 12.5331 185.542 12.628 185.218 12.8308C184.857 13.102 184.766 13.3732 184.766 13.7347C184.766 14.0963 184.857 14.3675 185.128 14.6387C185.399 14.9099 185.851 15.0003 186.393 15.1811L187.026 15.3619C187.93 15.7234 188.473 16.085 188.925 16.537C189.376 16.989 189.648 17.6218 189.648 18.3449C189.648 19.0681 189.467 19.6105 189.105 19.972C188.834 20.424 188.382 20.7856 187.93 20.9664C187.478 21.1472 186.845 21.2376 186.303 21.2376C185.531 21.2639 184.771 21.0421 184.134 20.6048L184.224 20.5144ZM192.902 12.7404H190.19V11.2941H197.151V12.7404H194.439V21.0568H192.902V12.65V12.7404Z" fill="white"/>
</svg>
