<svg width="600" height="260" viewBox="0 0 600 260" fill="none" xmlns="http://www.w3.org/2000/svg">
<path d="M16 5.99999C16 2.68628 18.6863 0 22 0H578C581.314 0 584 2.68629 584 6V238C584 241.314 581.314 244 578 244H22C18.6863 244 16 241.314 16 238V5.99999Z" fill="#013216" fill-opacity="0.75"/>
<path d="M68.808 32.104C75.384 32.104 80.496 33.472 84.144 36.208C87.792 38.944 89.616 43 89.616 48.376C89.616 53.992 87.816 58.24 84.216 61.12C80.664 63.952 75.888 65.368 69.888 65.368H64.488V82H52.68V32.104H68.808ZM68.88 56.872C71.664 56.872 73.776 56.224 75.216 54.928C76.704 53.584 77.448 51.4 77.448 48.376C77.448 43.144 74.52 40.528 68.664 40.528H64.488V56.872H68.88ZM108.56 32.104V82H96.7519V32.104H108.56ZM130.554 32.104V72.64H149.994L148.77 82H118.746V32.104H130.554ZM168.368 32.104V82H156.56V32.104H168.368ZM197.024 32.104L181.112 54.496L198.32 82H184.64L168.728 55.36L184.568 32.104H197.024ZM237.136 32.104C243.712 32.104 248.824 33.472 252.472 36.208C256.12 38.944 257.944 43 257.944 48.376C257.944 53.992 256.144 58.24 252.544 61.12C248.992 63.952 244.216 65.368 238.216 65.368H232.816V82H221.008V32.104H237.136ZM237.208 56.872C239.992 56.872 242.104 56.224 243.544 54.928C245.032 53.584 245.776 51.4 245.776 48.376C245.776 43.144 242.848 40.528 236.992 40.528H232.816V56.872H237.208ZM295.68 32.104L294.456 40.528H276.888V52.48H292.224V60.76H276.888V73.504H295.68V82H265.08V32.104H295.68ZM330.158 82L327.566 71.272H313.022L310.502 82H298.262L313.31 32.104H327.638L342.686 82H330.158ZM315.038 62.704H325.55L320.294 40.672L315.038 62.704ZM359.055 32.104V72.64H378.495L377.271 82H347.247V32.104H359.055ZM415.661 32.104L414.437 40.528H396.869V52.48H412.205V60.76H396.869V73.504H415.661V82H385.061V32.104H415.661ZM433.868 32.104L432.428 63.64H423.212L421.772 32.104H433.868ZM427.82 70.192C429.644 70.192 431.18 70.84 432.428 72.136C433.724 73.384 434.372 74.896 434.372 76.672C434.372 78.496 433.724 80.056 432.428 81.352C431.18 82.6 429.644 83.224 427.82 83.224C426.044 83.224 424.508 82.6 423.212 81.352C421.964 80.056 421.34 78.496 421.34 76.672C421.34 74.896 421.964 73.384 423.212 72.136C424.508 70.84 426.044 70.192 427.82 70.192Z" fill="#C5F000"/>
<path d="M67.2145 110.182C67.2145 112.278 66.831 114.081 66.0639 115.589C65.2969 117.092 64.2454 118.249 62.9094 119.06C61.5799 119.866 60.0682 120.268 58.3743 120.268C56.674 120.268 55.1559 119.866 53.82 119.06C52.4904 118.249 51.4421 117.088 50.6751 115.58C49.908 114.071 49.5245 112.272 49.5245 110.182C49.5245 108.085 49.908 106.286 50.6751 104.784C51.4421 103.275 52.4904 102.118 53.82 101.313C55.1559 100.501 56.674 100.095 58.3743 100.095C60.0682 100.095 61.5799 100.501 62.9094 101.313C64.2454 102.118 65.2969 103.275 66.0639 104.784C66.831 106.286 67.2145 108.085 67.2145 110.182ZM64.2805 110.182C64.2805 108.584 64.0217 107.238 63.5039 106.145C62.9925 105.046 62.2894 104.215 61.3945 103.652C60.506 103.083 59.4993 102.799 58.3743 102.799C57.2429 102.799 56.233 103.083 55.3445 103.652C54.456 104.215 53.7528 105.046 53.2351 106.145C52.7237 107.238 52.468 108.584 52.468 110.182C52.468 111.78 52.7237 113.129 53.2351 114.228C53.7528 115.321 54.456 116.152 55.3445 116.721C56.233 117.283 57.2429 117.565 58.3743 117.565C59.4993 117.565 60.506 117.283 61.3945 116.721C62.2894 116.152 62.9925 115.321 63.5039 114.228C64.0217 113.129 64.2805 111.78 64.2805 110.182ZM55.4883 98.4173L53.5515 98.3501C53.5515 97.2955 53.8391 96.4517 54.4144 95.8189C54.9897 95.1861 55.696 94.8665 56.5334 94.8601C56.9297 94.8601 57.2749 94.9272 57.5689 95.0614C57.8629 95.1893 58.1378 95.3395 58.3935 95.5121C58.6491 95.6847 58.908 95.8381 59.1701 95.9723C59.4322 96.1001 59.723 96.1641 60.0426 96.1641C60.407 96.1577 60.7042 96.017 60.9343 95.7422C61.1708 95.4609 61.2891 95.1126 61.2891 94.6971L63.1875 94.8217C63.1811 95.8892 62.8903 96.7298 62.315 97.3434C61.7461 97.9506 61.043 98.2543 60.2056 98.2543C59.7518 98.2543 59.3746 98.1903 59.0742 98.0625C58.7738 97.9283 58.5085 97.7781 58.2784 97.6119C58.0483 97.4393 57.8118 97.2891 57.5689 97.1612C57.326 97.027 57.0352 96.9599 56.6964 96.9599C56.3448 96.9599 56.054 97.0973 55.8239 97.3722C55.6001 97.647 55.4883 97.9954 55.4883 98.4173ZM73.2075 111.256V120H70.3407V100.364H73.1692V107.67H73.3513C73.6965 106.877 74.2238 106.248 74.9334 105.781C75.6429 105.314 76.5697 105.081 77.7139 105.081C78.7238 105.081 79.6059 105.289 80.3602 105.704C81.1209 106.12 81.7089 106.74 82.1244 107.564C82.5463 108.382 82.7572 109.405 82.7572 110.632V120H79.8904V110.978C79.8904 109.897 79.6123 109.06 79.0562 108.466C78.5001 107.865 77.7267 107.564 76.7359 107.564C76.0584 107.564 75.4511 107.708 74.9142 107.996C74.3836 108.283 73.965 108.705 73.6582 109.261C73.3577 109.811 73.2075 110.476 73.2075 111.256ZM93.12 105.273V107.574H85.0756V105.273H93.12ZM87.2329 101.744H90.0998V115.676C90.0998 116.232 90.1829 116.651 90.3491 116.932C90.5153 117.207 90.7294 117.395 90.9915 117.498C91.2599 117.593 91.5508 117.641 91.864 117.641C92.0941 117.641 92.2954 117.625 92.468 117.593C92.6406 117.561 92.7748 117.536 92.8707 117.517L93.3885 119.885C93.2223 119.949 92.9858 120.013 92.679 120.077C92.3721 120.147 91.9886 120.185 91.5284 120.192C90.7741 120.205 90.071 120.07 89.419 119.789C88.767 119.508 88.2397 119.073 87.837 118.485C87.4343 117.897 87.2329 117.159 87.2329 116.27V101.744ZM105.283 113.892V105.273H108.159V120H105.34V117.45H105.187C104.848 118.236 104.305 118.891 103.557 119.415C102.816 119.933 101.892 120.192 100.786 120.192C99.8401 120.192 99.0028 119.984 98.2741 119.569C97.5518 119.147 96.9829 118.523 96.5674 117.699C96.1583 116.874 95.9538 115.855 95.9538 114.64V105.273H98.8206V114.295C98.8206 115.299 99.0987 116.098 99.6548 116.692C100.211 117.287 100.933 117.584 101.822 117.584C102.359 117.584 102.892 117.45 103.423 117.181C103.96 116.913 104.404 116.507 104.756 115.963C105.114 115.42 105.289 114.73 105.283 113.892ZM114.541 100.364V120H111.674V100.364H114.541ZM124.407 120.297C122.956 120.297 121.707 119.987 120.658 119.367C119.616 118.741 118.811 117.862 118.242 116.73C117.68 115.593 117.398 114.26 117.398 112.732C117.398 111.224 117.68 109.894 118.242 108.744C118.811 107.593 119.604 106.695 120.62 106.049C121.643 105.404 122.838 105.081 124.206 105.081C125.037 105.081 125.842 105.218 126.622 105.493C127.402 105.768 128.102 106.2 128.722 106.788C129.342 107.376 129.831 108.14 130.189 109.079C130.547 110.012 130.726 111.147 130.726 112.483V113.499H119.019V111.352H127.917C127.917 110.597 127.763 109.929 127.456 109.348C127.15 108.76 126.718 108.296 126.162 107.957C125.612 107.619 124.967 107.449 124.225 107.449C123.42 107.449 122.717 107.647 122.116 108.044C121.521 108.434 121.061 108.945 120.735 109.578C120.415 110.204 120.256 110.885 120.256 111.62V113.298C120.256 114.282 120.428 115.12 120.773 115.81C121.125 116.5 121.614 117.028 122.24 117.392C122.867 117.75 123.599 117.929 124.436 117.929C124.979 117.929 125.475 117.852 125.922 117.699C126.37 117.539 126.756 117.303 127.082 116.989C127.408 116.676 127.658 116.289 127.83 115.829L130.544 116.318C130.326 117.117 129.936 117.817 129.374 118.418C128.818 119.012 128.118 119.476 127.274 119.808C126.437 120.134 125.481 120.297 124.407 120.297ZM136.436 111.256V120H133.569V100.364H136.398V107.67H136.58C136.925 106.877 137.452 106.248 138.162 105.781C138.871 105.314 139.798 105.081 140.942 105.081C141.952 105.081 142.834 105.289 143.589 105.704C144.349 106.12 144.937 106.74 145.353 107.564C145.775 108.382 145.986 109.405 145.986 110.632V120H143.119V110.978C143.119 109.897 142.841 109.06 142.285 108.466C141.729 107.865 140.955 107.564 139.964 107.564C139.287 107.564 138.68 107.708 138.143 107.996C137.612 108.283 137.193 108.705 136.887 109.261C136.586 109.811 136.436 110.476 136.436 111.256ZM156.349 105.273V107.574H148.304V105.273H156.349ZM150.461 101.744H153.328V115.676C153.328 116.232 153.411 116.651 153.578 116.932C153.744 117.207 153.958 117.395 154.22 117.498C154.488 117.593 154.779 117.641 155.092 117.641C155.323 117.641 155.524 117.625 155.697 117.593C155.869 117.561 156.003 117.536 156.099 117.517L156.617 119.885C156.451 119.949 156.214 120.013 155.907 120.077C155.601 120.147 155.217 120.185 154.757 120.192C154.003 120.205 153.3 120.07 152.648 119.789C151.996 119.508 151.468 119.073 151.065 118.485C150.663 117.897 150.461 117.159 150.461 116.27V101.744ZM178.589 105.273L173.248 120H170.18L164.83 105.273H167.908L171.638 116.606H171.791L175.511 105.273H178.589ZM184.81 120.326C183.877 120.326 183.033 120.153 182.278 119.808C181.524 119.457 180.927 118.949 180.486 118.284C180.051 117.619 179.834 116.804 179.834 115.839C179.834 115.008 179.993 114.324 180.313 113.787C180.633 113.25 181.064 112.825 181.607 112.512C182.151 112.199 182.758 111.962 183.429 111.802C184.1 111.642 184.784 111.521 185.481 111.438C186.363 111.336 187.079 111.252 187.629 111.189C188.178 111.118 188.578 111.006 188.827 110.853C189.076 110.7 189.201 110.45 189.201 110.105V110.038C189.201 109.201 188.965 108.552 188.492 108.092C188.025 107.631 187.328 107.401 186.401 107.401C185.436 107.401 184.676 107.615 184.119 108.044C183.57 108.466 183.189 108.935 182.978 109.453L180.284 108.839C180.604 107.945 181.07 107.222 181.684 106.673C182.304 106.116 183.017 105.714 183.822 105.464C184.628 105.209 185.475 105.081 186.363 105.081C186.951 105.081 187.574 105.151 188.233 105.292C188.897 105.426 189.517 105.675 190.093 106.04C190.674 106.404 191.151 106.925 191.521 107.603C191.892 108.274 192.078 109.146 192.078 110.22V120H189.278V117.987H189.163C188.977 118.357 188.699 118.722 188.329 119.08C187.958 119.437 187.482 119.735 186.9 119.971C186.318 120.208 185.622 120.326 184.81 120.326ZM185.433 118.025C186.226 118.025 186.903 117.868 187.466 117.555C188.035 117.242 188.466 116.833 188.76 116.328C189.06 115.816 189.211 115.27 189.211 114.688V112.79C189.108 112.892 188.91 112.988 188.616 113.077C188.329 113.161 187.999 113.234 187.629 113.298C187.258 113.355 186.897 113.41 186.545 113.461C186.194 113.506 185.9 113.544 185.663 113.576C185.107 113.646 184.599 113.765 184.139 113.931C183.685 114.097 183.32 114.337 183.046 114.65C182.777 114.957 182.643 115.366 182.643 115.877C182.643 116.587 182.905 117.124 183.429 117.488C183.953 117.846 184.621 118.025 185.433 118.025ZM198.425 111.256V120H195.558V100.364H198.387V107.67H198.569C198.914 106.877 199.442 106.248 200.151 105.781C200.861 105.314 201.788 105.081 202.932 105.081C203.942 105.081 204.824 105.289 205.578 105.704C206.339 106.12 206.927 106.74 207.342 107.564C207.764 108.382 207.975 109.405 207.975 110.632V120H205.108V110.978C205.108 109.897 204.83 109.06 204.274 108.466C203.718 107.865 202.944 107.564 201.954 107.564C201.276 107.564 200.669 107.708 200.132 107.996C199.601 108.283 199.183 108.705 198.876 109.261C198.576 109.811 198.425 110.476 198.425 111.256ZM217.81 120.297C216.359 120.297 215.11 119.987 214.062 119.367C213.02 118.741 212.214 117.862 211.645 116.73C211.083 115.593 210.802 114.26 210.802 112.732C210.802 111.224 211.083 109.894 211.645 108.744C212.214 107.593 213.007 106.695 214.023 106.049C215.046 105.404 216.241 105.081 217.609 105.081C218.44 105.081 219.245 105.218 220.025 105.493C220.805 105.768 221.505 106.2 222.125 106.788C222.745 107.376 223.234 108.14 223.592 109.079C223.95 110.012 224.129 111.147 224.129 112.483V113.499H212.422V111.352H221.32C221.32 110.597 221.166 109.929 220.859 109.348C220.553 108.76 220.121 108.296 219.565 107.957C219.015 107.619 218.37 107.449 217.628 107.449C216.823 107.449 216.12 107.647 215.519 108.044C214.924 108.434 214.464 108.945 214.138 109.578C213.819 110.204 213.659 110.885 213.659 111.62V113.298C213.659 114.282 213.831 115.12 214.177 115.81C214.528 116.5 215.017 117.028 215.644 117.392C216.27 117.75 217.002 117.929 217.839 117.929C218.383 117.929 218.878 117.852 219.325 117.699C219.773 117.539 220.16 117.303 220.486 116.989C220.812 116.676 221.061 116.289 221.233 115.829L223.947 116.318C223.729 117.117 223.34 117.817 222.777 118.418C222.221 119.012 221.521 119.476 220.677 119.808C219.84 120.134 218.884 120.297 217.81 120.297ZM229.839 111.256V120H226.972V105.273H229.724V107.67H229.906C230.245 106.89 230.776 106.263 231.498 105.79C232.227 105.317 233.144 105.081 234.25 105.081C235.253 105.081 236.132 105.292 236.886 105.714C237.641 106.129 238.226 106.749 238.641 107.574C239.056 108.398 239.264 109.418 239.264 110.632V120H236.397V110.978C236.397 109.91 236.119 109.076 235.563 108.475C235.007 107.868 234.243 107.564 233.272 107.564C232.607 107.564 232.016 107.708 231.498 107.996C230.987 108.283 230.581 108.705 230.28 109.261C229.986 109.811 229.839 110.476 229.839 111.256ZM248.285 120.288C247.096 120.288 246.035 119.984 245.101 119.377C244.175 118.763 243.446 117.891 242.915 116.759C242.391 115.621 242.129 114.257 242.129 112.665C242.129 111.074 242.394 109.712 242.925 108.581C243.462 107.449 244.197 106.583 245.13 105.982C246.063 105.381 247.121 105.081 248.304 105.081C249.218 105.081 249.953 105.234 250.509 105.541C251.072 105.842 251.506 106.193 251.813 106.596C252.126 106.999 252.369 107.353 252.542 107.66H252.714V100.364H255.581V120H252.781V117.708H252.542C252.369 118.022 252.12 118.38 251.794 118.782C251.474 119.185 251.033 119.537 250.471 119.837C249.908 120.137 249.18 120.288 248.285 120.288ZM248.917 117.843C249.742 117.843 250.439 117.625 251.008 117.191C251.583 116.75 252.018 116.139 252.312 115.359C252.612 114.58 252.762 113.672 252.762 112.636C252.762 111.614 252.615 110.719 252.321 109.952C252.027 109.185 251.596 108.587 251.027 108.159C250.458 107.73 249.755 107.516 248.917 107.516C248.055 107.516 247.335 107.74 246.76 108.188C246.185 108.635 245.75 109.245 245.456 110.019C245.169 110.792 245.025 111.665 245.025 112.636C245.025 113.621 245.172 114.506 245.466 115.292C245.76 116.078 246.194 116.702 246.77 117.162C247.351 117.616 248.067 117.843 248.917 117.843ZM263.621 120.326C262.688 120.326 261.844 120.153 261.09 119.808C260.336 119.457 259.738 118.949 259.297 118.284C258.862 117.619 258.645 116.804 258.645 115.839C258.645 115.008 258.805 114.324 259.124 113.787C259.444 113.25 259.876 112.825 260.419 112.512C260.962 112.199 261.569 111.962 262.241 111.802C262.912 111.642 263.596 111.521 264.292 111.438C265.175 111.336 265.89 111.252 266.44 111.189C266.99 111.118 267.389 111.006 267.639 110.853C267.888 110.7 268.013 110.45 268.013 110.105V110.038C268.013 109.201 267.776 108.552 267.303 108.092C266.836 107.631 266.14 107.401 265.213 107.401C264.248 107.401 263.487 107.615 262.931 108.044C262.381 108.466 262.001 108.935 261.79 109.453L259.096 108.839C259.415 107.945 259.882 107.222 260.496 106.673C261.116 106.116 261.828 105.714 262.634 105.464C263.439 105.209 264.286 105.081 265.175 105.081C265.763 105.081 266.386 105.151 267.044 105.292C267.709 105.426 268.329 105.675 268.904 106.04C269.486 106.404 269.962 106.925 270.333 107.603C270.704 108.274 270.889 109.146 270.889 110.22V120H268.089V117.987H267.974C267.789 118.357 267.511 118.722 267.14 119.08C266.769 119.437 266.293 119.735 265.711 119.971C265.13 120.208 264.433 120.326 263.621 120.326ZM264.244 118.025C265.037 118.025 265.715 117.868 266.277 117.555C266.846 117.242 267.278 116.833 267.572 116.328C267.872 115.816 268.022 115.27 268.022 114.688V112.79C267.92 112.892 267.722 112.988 267.428 113.077C267.14 113.161 266.811 113.234 266.44 113.298C266.069 113.355 265.708 113.41 265.357 113.461C265.005 113.506 264.711 113.544 264.475 113.576C263.919 113.646 263.41 113.765 262.95 113.931C262.496 114.097 262.132 114.337 261.857 114.65C261.589 114.957 261.454 115.366 261.454 115.877C261.454 116.587 261.716 117.124 262.241 117.488C262.765 117.846 263.433 118.025 264.244 118.025ZM274.6 120V100.364H277.467V107.66H277.64C277.806 107.353 278.045 106.999 278.359 106.596C278.672 106.193 279.106 105.842 279.663 105.541C280.219 105.234 280.954 105.081 281.868 105.081C283.057 105.081 284.118 105.381 285.051 105.982C285.984 106.583 286.716 107.449 287.247 108.581C287.784 109.712 288.052 111.074 288.052 112.665C288.052 114.257 287.787 115.621 287.256 116.759C286.726 117.891 285.997 118.763 285.07 119.377C284.143 119.984 283.086 120.288 281.897 120.288C281.002 120.288 280.27 120.137 279.701 119.837C279.138 119.537 278.697 119.185 278.378 118.782C278.058 118.38 277.812 118.022 277.64 117.708H277.4V120H274.6ZM277.409 112.636C277.409 113.672 277.56 114.58 277.86 115.359C278.16 116.139 278.595 116.75 279.164 117.191C279.733 117.625 280.43 117.843 281.254 117.843C282.111 117.843 282.827 117.616 283.402 117.162C283.977 116.702 284.412 116.078 284.706 115.292C285.006 114.506 285.157 113.621 285.157 112.636C285.157 111.665 285.01 110.792 284.716 110.019C284.428 109.245 283.993 108.635 283.412 108.188C282.836 107.74 282.117 107.516 281.254 107.516C280.423 107.516 279.72 107.73 279.145 108.159C278.576 108.587 278.144 109.185 277.85 109.952C277.556 110.719 277.409 111.614 277.409 112.636ZM297.742 105.273H300.609V120.959C300.609 121.943 300.43 122.774 300.072 123.452C299.72 124.129 299.196 124.644 298.499 124.995C297.809 125.347 296.956 125.523 295.939 125.523C295.837 125.523 295.741 125.523 295.652 125.523C295.556 125.523 295.457 125.52 295.354 125.513V123.049C295.444 123.049 295.524 123.049 295.594 123.049C295.658 123.049 295.732 123.049 295.815 123.049C296.492 123.049 296.981 122.867 297.282 122.502C297.588 122.145 297.742 121.624 297.742 120.94V105.273ZM299.161 103C298.662 103 298.234 102.834 297.876 102.502C297.525 102.163 297.349 101.76 297.349 101.294C297.349 100.821 297.525 100.418 297.876 100.086C298.234 99.7468 298.662 99.5774 299.161 99.5774C299.659 99.5774 300.085 99.7468 300.436 100.086C300.794 100.418 300.973 100.821 300.973 101.294C300.973 101.76 300.794 102.163 300.436 102.502C300.085 102.834 299.659 103 299.161 103ZM308.414 120.326C307.481 120.326 306.637 120.153 305.883 119.808C305.128 119.457 304.531 118.949 304.09 118.284C303.655 117.619 303.438 116.804 303.438 115.839C303.438 115.008 303.597 114.324 303.917 113.787C304.237 113.25 304.668 112.825 305.211 112.512C305.755 112.199 306.362 111.962 307.033 111.802C307.704 111.642 308.388 111.521 309.085 111.438C309.967 111.336 310.683 111.252 311.233 111.189C311.782 111.118 312.182 111.006 312.431 110.853C312.681 110.7 312.805 110.45 312.805 110.105V110.038C312.805 109.201 312.569 108.552 312.096 108.092C311.629 107.631 310.932 107.401 310.005 107.401C309.04 107.401 308.28 107.615 307.724 108.044C307.174 108.466 306.793 108.935 306.583 109.453L303.888 108.839C304.208 107.945 304.674 107.222 305.288 106.673C305.908 106.116 306.621 105.714 307.426 105.464C308.232 105.209 309.079 105.081 309.967 105.081C310.555 105.081 311.178 105.151 311.837 105.292C312.502 105.426 313.122 105.675 313.697 106.04C314.279 106.404 314.755 106.925 315.125 107.603C315.496 108.274 315.682 109.146 315.682 110.22V120H312.882V117.987H312.767C312.581 118.357 312.303 118.722 311.933 119.08C311.562 119.437 311.086 119.735 310.504 119.971C309.922 120.208 309.226 120.326 308.414 120.326ZM309.037 118.025C309.83 118.025 310.507 117.868 311.07 117.555C311.639 117.242 312.07 116.833 312.364 116.328C312.665 115.816 312.815 115.27 312.815 114.688V112.79C312.712 112.892 312.514 112.988 312.22 113.077C311.933 113.161 311.603 113.234 311.233 113.298C310.862 113.355 310.501 113.41 310.149 113.461C309.798 113.506 309.504 113.544 309.267 113.576C308.711 113.646 308.203 113.765 307.743 113.931C307.289 114.097 306.924 114.337 306.65 114.65C306.381 114.957 306.247 115.366 306.247 115.877C306.247 116.587 306.509 117.124 307.033 117.488C307.557 117.846 308.225 118.025 309.037 118.025ZM322.029 100.364V120H319.163V100.364H322.029ZM331.723 125.83C330.554 125.83 329.547 125.676 328.703 125.369C327.866 125.063 327.182 124.657 326.651 124.152C326.121 123.647 325.724 123.094 325.462 122.493L327.927 121.477C328.099 121.758 328.329 122.055 328.617 122.368C328.911 122.688 329.307 122.96 329.806 123.183C330.311 123.407 330.96 123.519 331.752 123.519C332.839 123.519 333.737 123.254 334.446 122.723C335.156 122.199 335.511 121.362 335.511 120.211V117.315H335.329C335.156 117.629 334.907 117.977 334.581 118.36C334.261 118.744 333.82 119.076 333.257 119.358C332.695 119.639 331.963 119.779 331.062 119.779C329.898 119.779 328.85 119.508 327.917 118.964C326.99 118.415 326.255 117.606 325.712 116.539C325.175 115.465 324.906 114.145 324.906 112.579C324.906 111.013 325.172 109.67 325.702 108.552C326.239 107.433 326.974 106.577 327.907 105.982C328.841 105.381 329.898 105.081 331.081 105.081C331.995 105.081 332.733 105.234 333.296 105.541C333.858 105.842 334.296 106.193 334.609 106.596C334.929 106.999 335.175 107.353 335.348 107.66H335.559V105.273H338.368V120.326C338.368 121.592 338.074 122.63 337.486 123.442C336.898 124.254 336.102 124.855 335.098 125.245C334.101 125.635 332.976 125.83 331.723 125.83ZM331.695 117.402C332.519 117.402 333.216 117.21 333.785 116.826C334.36 116.436 334.795 115.88 335.089 115.158C335.389 114.429 335.539 113.557 335.539 112.54C335.539 111.55 335.392 110.677 335.098 109.923C334.804 109.169 334.373 108.581 333.804 108.159C333.235 107.73 332.532 107.516 331.695 107.516C330.832 107.516 330.113 107.74 329.537 108.188C328.962 108.629 328.527 109.229 328.233 109.99C327.946 110.751 327.802 111.601 327.802 112.54C327.802 113.506 327.949 114.353 328.243 115.081C328.537 115.81 328.972 116.379 329.547 116.788C330.129 117.197 330.845 117.402 331.695 117.402ZM341.875 125.523V105.273H344.675V107.66H344.915C345.081 107.353 345.321 106.999 345.634 106.596C345.947 106.193 346.382 105.842 346.938 105.541C347.494 105.234 348.229 105.081 349.143 105.081C350.332 105.081 351.393 105.381 352.326 105.982C353.259 106.583 353.991 107.449 354.522 108.581C355.059 109.712 355.327 111.074 355.327 112.665C355.327 114.257 355.062 115.621 354.532 116.759C354.001 117.891 353.272 118.763 352.345 119.377C351.419 119.984 350.361 120.288 349.172 120.288C348.277 120.288 347.545 120.137 346.976 119.837C346.414 119.537 345.973 119.185 345.653 118.782C345.333 118.38 345.087 118.022 344.915 117.708H344.742V125.523H341.875ZM344.685 112.636C344.685 113.672 344.835 114.58 345.135 115.359C345.436 116.139 345.87 116.75 346.439 117.191C347.008 117.625 347.705 117.843 348.529 117.843C349.386 117.843 350.102 117.616 350.677 117.162C351.252 116.702 351.687 116.078 351.981 115.292C352.282 114.506 352.432 113.621 352.432 112.636C352.432 111.665 352.285 110.792 351.991 110.019C351.703 109.245 351.268 108.635 350.687 108.188C350.111 107.74 349.392 107.516 348.529 107.516C347.698 107.516 346.995 107.73 346.42 108.159C345.851 108.587 345.42 109.185 345.126 109.952C344.832 110.719 344.685 111.614 344.685 112.636ZM362.488 120.326C361.554 120.326 360.711 120.153 359.956 119.808C359.202 119.457 358.604 118.949 358.163 118.284C357.729 117.619 357.511 116.804 357.511 115.839C357.511 115.008 357.671 114.324 357.991 113.787C358.31 113.25 358.742 112.825 359.285 112.512C359.829 112.199 360.436 111.962 361.107 111.802C361.778 111.642 362.462 111.521 363.159 111.438C364.041 111.336 364.757 111.252 365.307 111.189C365.856 111.118 366.256 111.006 366.505 110.853C366.754 110.7 366.879 110.45 366.879 110.105V110.038C366.879 109.201 366.642 108.552 366.169 108.092C365.703 107.631 365.006 107.401 364.079 107.401C363.114 107.401 362.353 107.615 361.797 108.044C361.248 108.466 360.867 108.935 360.656 109.453L357.962 108.839C358.282 107.945 358.748 107.222 359.362 106.673C359.982 106.116 360.695 105.714 361.5 105.464C362.305 105.209 363.152 105.081 364.041 105.081C364.629 105.081 365.252 105.151 365.911 105.292C366.575 105.426 367.195 105.675 367.771 106.04C368.352 106.404 368.829 106.925 369.199 107.603C369.57 108.274 369.755 109.146 369.755 110.22V120H366.956V117.987H366.841C366.655 118.357 366.377 118.722 366.006 119.08C365.636 119.437 365.16 119.735 364.578 119.971C363.996 120.208 363.299 120.326 362.488 120.326ZM363.111 118.025C363.904 118.025 364.581 117.868 365.144 117.555C365.712 117.242 366.144 116.833 366.438 116.328C366.738 115.816 366.889 115.27 366.889 114.688V112.79C366.786 112.892 366.588 112.988 366.294 113.077C366.006 113.161 365.677 113.234 365.307 113.298C364.936 113.355 364.575 113.41 364.223 113.461C363.872 113.506 363.578 113.544 363.341 113.576C362.785 113.646 362.277 113.765 361.817 113.931C361.363 114.097 360.998 114.337 360.723 114.65C360.455 114.957 360.321 115.366 360.321 115.877C360.321 116.587 360.583 117.124 361.107 117.488C361.631 117.846 362.299 118.025 363.111 118.025ZM376.103 100.364V120H373.236V100.364H376.103ZM382.489 100.364V120H379.623V100.364H382.489ZM386.009 120V105.273H388.875V120H386.009ZM387.456 103C386.958 103 386.53 102.834 386.172 102.502C385.82 102.163 385.644 101.76 385.644 101.294C385.644 100.821 385.82 100.418 386.172 100.086C386.53 99.7468 386.958 99.5774 387.456 99.5774C387.955 99.5774 388.38 99.7468 388.732 100.086C389.09 100.418 389.269 100.821 389.269 101.294C389.269 101.76 389.09 102.163 388.732 102.502C388.38 102.834 387.955 103 387.456 103ZM399.433 100.364H403.028L409.28 115.628H409.51L415.761 100.364H419.357V120H416.538V105.79H416.356L410.565 119.971H408.225L402.434 105.781H402.252V120H399.433V100.364ZM423.327 100.364H426.922L433.174 115.628H433.404L439.655 100.364H443.251V120H440.432V105.79H440.25L434.459 119.971H432.119L426.328 105.781H426.146V120H423.327V100.364ZM446.991 120V105.273H449.858V120H446.991ZM448.438 103C447.94 103 447.512 102.834 447.154 102.502C446.802 102.163 446.626 101.76 446.626 101.294C446.626 100.821 446.802 100.418 447.154 100.086C447.512 99.7468 447.94 99.5774 448.438 99.5774C448.937 99.5774 449.362 99.7468 449.714 100.086C450.072 100.418 450.251 100.821 450.251 101.294C450.251 101.76 450.072 102.163 449.714 102.502C449.362 102.834 448.937 103 448.438 103ZM456.244 100.364V120H453.377V100.364H456.244ZM466.638 105.273V107.574H458.593V105.273H466.638ZM460.751 101.744H463.617V115.676C463.617 116.232 463.7 116.651 463.867 116.932C464.033 117.207 464.247 117.395 464.509 117.498C464.778 117.593 465.068 117.641 465.382 117.641C465.612 117.641 465.813 117.625 465.986 117.593C466.158 117.561 466.292 117.536 466.388 117.517L466.906 119.885C466.74 119.949 466.503 120.013 466.197 120.077C465.89 120.147 465.506 120.185 465.046 120.192C464.292 120.205 463.589 120.07 462.937 119.789C462.285 119.508 461.757 119.073 461.355 118.485C460.952 117.897 460.751 117.159 460.751 116.27V101.744ZM478.916 115.005L478.897 111.505H479.395L485.263 105.273H488.696L482.003 112.368H481.553L478.916 115.005ZM476.279 120V100.364H479.146V120H476.279ZM485.58 120L480.306 113.001L482.281 110.997L489.099 120H485.58ZM496.568 120.297C495.188 120.297 493.983 119.981 492.953 119.348C491.924 118.715 491.125 117.83 490.556 116.692C489.988 115.554 489.703 114.225 489.703 112.703C489.703 111.176 489.988 109.84 490.556 108.696C491.125 107.551 491.924 106.663 492.953 106.03C493.983 105.397 495.188 105.081 496.568 105.081C497.949 105.081 499.154 105.397 500.183 106.03C501.212 106.663 502.011 107.551 502.58 108.696C503.149 109.84 503.433 111.176 503.433 112.703C503.433 114.225 503.149 115.554 502.58 116.692C502.011 117.83 501.212 118.715 500.183 119.348C499.154 119.981 497.949 120.297 496.568 120.297ZM496.578 117.891C497.473 117.891 498.214 117.654 498.802 117.181C499.39 116.708 499.825 116.078 500.106 115.292C500.394 114.506 500.538 113.64 500.538 112.694C500.538 111.754 500.394 110.891 500.106 110.105C499.825 109.312 499.39 108.676 498.802 108.197C498.214 107.718 497.473 107.478 496.578 107.478C495.676 107.478 494.929 107.718 494.334 108.197C493.746 108.676 493.308 109.312 493.021 110.105C492.739 110.891 492.599 111.754 492.599 112.694C492.599 113.64 492.739 114.506 493.021 115.292C493.308 116.078 493.746 116.708 494.334 117.181C494.929 117.654 495.676 117.891 496.578 117.891ZM493.682 103.489L491.755 103.432C491.755 102.371 492.039 101.524 492.608 100.891C493.184 100.258 493.893 99.9418 494.737 99.9418C495.127 99.9418 495.469 100.009 495.763 100.143C496.057 100.271 496.332 100.421 496.587 100.594C496.849 100.76 497.108 100.91 497.364 101.044C497.626 101.172 497.917 101.236 498.237 101.236C498.607 101.236 498.908 101.096 499.138 100.814C499.374 100.533 499.493 100.185 499.493 99.7692L501.381 99.8938C501.381 100.961 501.094 101.802 500.518 102.415C499.943 103.023 499.237 103.33 498.4 103.336C497.946 103.336 497.569 103.272 497.268 103.144C496.974 103.01 496.712 102.86 496.482 102.694C496.252 102.521 496.015 102.368 495.772 102.233C495.529 102.099 495.239 102.032 494.9 102.032C494.542 102.032 494.248 102.173 494.018 102.454C493.794 102.729 493.682 103.074 493.682 103.489ZM506.296 120V105.273H509.163V120H506.296ZM507.744 103C507.245 103 506.817 102.834 506.459 102.502C506.107 102.163 505.931 101.76 505.931 101.294C505.931 100.821 506.107 100.418 506.459 100.086C506.817 99.7468 507.245 99.5774 507.744 99.5774C508.242 99.5774 508.667 99.7468 509.019 100.086C509.377 100.418 509.556 100.821 509.556 101.294C509.556 101.76 509.377 102.163 509.019 102.502C508.667 102.834 508.242 103 507.744 103ZM515.319 115.005L515.299 111.505H515.798L521.666 105.273H525.098L518.406 112.368H517.955L515.319 115.005ZM512.682 120V100.364H515.549V120H512.682ZM521.982 120L516.709 113.001L518.684 110.997L525.501 120H521.982ZM533.115 120.297C531.664 120.297 530.414 119.987 529.366 119.367C528.324 118.741 527.518 117.862 526.949 116.73C526.387 115.593 526.106 114.26 526.106 112.732C526.106 111.224 526.387 109.894 526.949 108.744C527.518 107.593 528.311 106.695 529.327 106.049C530.35 105.404 531.545 105.081 532.913 105.081C533.744 105.081 534.55 105.218 535.329 105.493C536.109 105.768 536.809 106.2 537.429 106.788C538.049 107.376 538.538 108.14 538.896 109.079C539.254 110.012 539.433 111.147 539.433 112.483V113.499H527.726V111.352H536.624C536.624 110.597 536.47 109.929 536.164 109.348C535.857 108.76 535.425 108.296 534.869 107.957C534.319 107.619 533.674 107.449 532.932 107.449C532.127 107.449 531.424 107.647 530.823 108.044C530.229 108.434 529.768 108.945 529.442 109.578C529.123 110.204 528.963 110.885 528.963 111.62V113.298C528.963 114.282 529.135 115.12 529.481 115.81C529.832 116.5 530.321 117.028 530.948 117.392C531.574 117.75 532.306 117.929 533.143 117.929C533.687 117.929 534.182 117.852 534.629 117.699C535.077 117.539 535.464 117.303 535.79 116.989C536.116 116.676 536.365 116.289 536.537 115.829L539.251 116.318C539.034 117.117 538.644 117.817 538.081 118.418C537.525 119.012 536.825 119.476 535.981 119.808C535.144 120.134 534.188 120.297 533.115 120.297ZM546.006 117.315L545.862 118.36C545.766 119.127 545.603 119.926 545.373 120.757C545.15 121.595 544.916 122.371 544.673 123.087C544.437 123.803 544.242 124.372 544.089 124.794H542.056C542.139 124.398 542.254 123.861 542.401 123.183C542.548 122.512 542.692 121.761 542.833 120.93C542.973 120.099 543.079 119.252 543.149 118.389L543.245 117.315H546.006ZM49.9272 154V139.273H52.679V141.67H52.8612C53.168 140.858 53.6697 140.225 54.3665 139.771C55.0632 139.311 55.8974 139.081 56.869 139.081C57.8533 139.081 58.6779 139.311 59.3427 139.771C60.0138 140.232 60.5092 140.864 60.8288 141.67H60.9822C61.3338 140.884 61.8931 140.257 62.6602 139.79C63.4272 139.317 64.3413 139.081 65.4023 139.081C66.7383 139.081 67.8281 139.5 68.6719 140.337C69.522 141.174 69.9471 142.437 69.9471 144.124V154H67.0803V144.393C67.0803 143.396 66.8086 142.673 66.2653 142.226C65.7219 141.778 65.0732 141.555 64.3189 141.555C63.3857 141.555 62.6602 141.842 62.1424 142.418C61.6246 142.987 61.3658 143.718 61.3658 144.613V154H58.5085V144.211C58.5085 143.412 58.2592 142.769 57.7607 142.283C57.2621 141.798 56.6133 141.555 55.8143 141.555C55.271 141.555 54.7692 141.699 54.3089 141.986C53.8551 142.267 53.4876 142.661 53.2063 143.165C52.9315 143.67 52.794 144.255 52.794 144.92V154H49.9272ZM73.452 154V139.273H76.3188V154H73.452ZM74.8998 137C74.4012 137 73.973 136.834 73.615 136.502C73.2634 136.163 73.0877 135.76 73.0877 135.294C73.0877 134.821 73.2634 134.418 73.615 134.086C73.973 133.747 74.4012 133.577 74.8998 133.577C75.3984 133.577 75.8235 133.747 76.175 134.086C76.533 134.418 76.712 134.821 76.712 135.294C76.712 135.76 76.533 136.163 76.175 136.502C75.8235 136.834 75.3984 137 74.8998 137ZM90.874 142.868L88.2756 143.328C88.167 142.996 87.9944 142.68 87.7579 142.379C87.5278 142.079 87.2146 141.833 86.8183 141.641C86.4219 141.449 85.9266 141.353 85.3321 141.353C84.5203 141.353 83.8428 141.536 83.2994 141.9C82.7561 142.258 82.4844 142.721 82.4844 143.29C82.4844 143.782 82.6666 144.179 83.031 144.479C83.3953 144.779 83.9834 145.026 84.7952 145.217L87.1347 145.754C88.4898 146.067 89.4997 146.55 90.1645 147.202C90.8293 147.854 91.1616 148.701 91.1616 149.743C91.1616 150.625 90.906 151.411 90.3946 152.102C89.8896 152.786 89.1833 153.322 88.2756 153.712C87.3744 154.102 86.3293 154.297 85.1403 154.297C83.4912 154.297 82.1457 153.946 81.1038 153.243C80.0619 152.533 79.4227 151.526 79.1862 150.222L81.9571 149.8C82.1297 150.523 82.4844 151.069 83.0214 151.44C83.5583 151.804 84.2582 151.987 85.1212 151.987C86.0608 151.987 86.8119 151.792 87.3744 151.402C87.9369 151.005 88.2181 150.523 88.2181 149.954C88.2181 149.494 88.0455 149.107 87.7004 148.794C87.3616 148.48 86.8406 148.244 86.1375 148.084L83.6446 147.538C82.2703 147.224 81.254 146.726 80.5956 146.042C79.9436 145.358 79.6176 144.492 79.6176 143.444C79.6176 142.574 79.8605 141.814 80.3463 141.162C80.8321 140.51 81.5033 140.001 82.3598 139.637C83.2163 139.266 84.1975 139.081 85.3033 139.081C86.895 139.081 88.1478 139.426 89.0619 140.116C89.9759 140.8 90.58 141.718 90.874 142.868ZM106.988 154.297C105.607 154.297 104.402 153.981 103.373 153.348C102.344 152.715 101.545 151.83 100.976 150.692C100.407 149.554 100.123 148.225 100.123 146.703C100.123 145.176 100.407 143.84 100.976 142.696C101.545 141.551 102.344 140.663 103.373 140.03C104.402 139.397 105.607 139.081 106.988 139.081C108.368 139.081 109.573 139.397 110.602 140.03C111.632 140.663 112.431 141.551 112.999 142.696C113.568 143.84 113.853 145.176 113.853 146.703C113.853 148.225 113.568 149.554 112.999 150.692C112.431 151.83 111.632 152.715 110.602 153.348C109.573 153.981 108.368 154.297 106.988 154.297ZM106.997 151.891C107.892 151.891 108.634 151.654 109.222 151.181C109.81 150.708 110.244 150.078 110.526 149.292C110.813 148.506 110.957 147.64 110.957 146.694C110.957 145.754 110.813 144.891 110.526 144.105C110.244 143.312 109.81 142.676 109.222 142.197C108.634 141.718 107.892 141.478 106.997 141.478C106.096 141.478 105.348 141.718 104.754 142.197C104.166 142.676 103.728 143.312 103.44 144.105C103.159 144.891 103.018 145.754 103.018 146.694C103.018 147.64 103.159 148.506 103.44 149.292C103.728 150.078 104.166 150.708 104.754 151.181C105.348 151.654 106.096 151.891 106.997 151.891ZM119.582 134.364V154H116.715V134.364H119.582ZM132.431 147.892V139.273H135.307V154H132.488V151.45H132.335C131.996 152.236 131.453 152.891 130.705 153.415C129.963 153.933 129.04 154.192 127.934 154.192C126.988 154.192 126.15 153.984 125.422 153.569C124.699 153.147 124.131 152.523 123.715 151.699C123.306 150.874 123.101 149.855 123.101 148.64V139.273H125.968V148.295C125.968 149.299 126.246 150.098 126.802 150.692C127.359 151.287 128.081 151.584 128.969 151.584C129.506 151.584 130.04 151.45 130.571 151.181C131.107 150.913 131.552 150.507 131.903 149.963C132.261 149.42 132.437 148.73 132.431 147.892ZM141.688 134.364V154H138.822V134.364H141.688ZM145.208 154V139.273H148.075V154H145.208ZM146.655 137C146.157 137 145.729 136.834 145.371 136.502C145.019 136.163 144.843 135.76 144.843 135.294C144.843 134.821 145.019 134.418 145.371 134.086C145.729 133.747 146.157 133.577 146.655 133.577C147.154 133.577 147.579 133.747 147.931 134.086C148.289 134.418 148.468 134.821 148.468 135.294C148.468 135.76 148.289 136.163 147.931 136.502C147.579 136.834 147.154 137 146.655 137ZM154.461 145.256V154H151.594V139.273H154.346V141.67H154.528C154.867 140.89 155.397 140.263 156.119 139.79C156.848 139.317 157.765 139.081 158.871 139.081C159.875 139.081 160.754 139.292 161.508 139.714C162.262 140.129 162.847 140.749 163.262 141.574C163.678 142.398 163.886 143.418 163.886 144.632V154H161.019V144.978C161.019 143.91 160.741 143.076 160.185 142.475C159.629 141.868 158.865 141.564 157.893 141.564C157.228 141.564 156.637 141.708 156.119 141.996C155.608 142.283 155.202 142.705 154.902 143.261C154.608 143.811 154.461 144.476 154.461 145.256ZM173.74 154.297C172.289 154.297 171.04 153.987 169.991 153.367C168.949 152.741 168.144 151.862 167.575 150.73C167.013 149.593 166.731 148.26 166.731 146.732C166.731 145.224 167.013 143.894 167.575 142.744C168.144 141.593 168.937 140.695 169.953 140.049C170.976 139.404 172.171 139.081 173.539 139.081C174.37 139.081 175.175 139.218 175.955 139.493C176.735 139.768 177.435 140.2 178.055 140.788C178.675 141.376 179.164 142.14 179.522 143.079C179.88 144.012 180.059 145.147 180.059 146.483V147.499H168.352V145.352H177.25C177.25 144.597 177.096 143.929 176.789 143.348C176.483 142.76 176.051 142.296 175.495 141.957C174.945 141.619 174.3 141.449 173.558 141.449C172.753 141.449 172.05 141.647 171.449 142.044C170.854 142.434 170.394 142.945 170.068 143.578C169.748 144.204 169.589 144.885 169.589 145.62V147.298C169.589 148.282 169.761 149.12 170.106 149.81C170.458 150.5 170.947 151.028 171.573 151.392C172.2 151.75 172.932 151.929 173.769 151.929C174.312 151.929 174.808 151.852 175.255 151.699C175.703 151.539 176.089 151.303 176.415 150.989C176.741 150.676 176.991 150.289 177.163 149.829L179.877 150.318C179.659 151.117 179.269 151.817 178.707 152.418C178.151 153.012 177.451 153.476 176.607 153.808C175.77 154.134 174.814 154.297 173.74 154.297ZM186.517 134.364L186.268 148.353H183.612L183.362 134.364H186.517ZM184.944 154.182C184.414 154.182 183.96 153.997 183.583 153.626C183.206 153.249 183.02 152.795 183.027 152.265C183.02 151.74 183.206 151.293 183.583 150.922C183.96 150.545 184.414 150.357 184.944 150.357C185.462 150.357 185.91 150.545 186.287 150.922C186.664 151.293 186.856 151.74 186.862 152.265C186.856 152.616 186.763 152.939 186.584 153.233C186.411 153.521 186.181 153.751 185.894 153.923C185.606 154.096 185.29 154.182 184.944 154.182Z" fill="#F3FFAD"/>
<path d="M212.91 195.349L215.264 188.28L205.13 190.454C204.656 191.888 204.066 193.653 203.5 195.349H199.167C199.062 195.597 199.019 195.852 199.019 196.126C199.019 197.455 199.917 198.563 201.433 199.019C201.642 199.082 201.908 199.138 202.22 199.186L201.811 200.418C200.789 203.478 200.364 205.684 200.364 206.93C200.364 210.113 202.329 211.998 205.431 211.998C206.966 211.998 208.388 211.528 210.497 209.826C210.004 208.828 209.772 207.805 209.772 206.208C209.772 205.271 210.034 203.979 210.497 202.587C210.775 201.764 211.149 200.629 211.586 199.332H214.671L216 195.349H212.91Z" fill="white"/>
<path d="M193.978 194.984C190.964 194.984 186.905 197.734 186.645 198.207L190.973 185.212L181.025 187.384L173.062 211.273H182.292L185.188 202.587C185.945 200.306 186.63 199.694 187.714 199.692H187.721C188.772 199.692 189.163 200.673 188.474 202.733C188.331 203.165 187.845 204.622 187.432 205.867C187.021 207.101 186.917 207.69 186.917 208.511C186.917 210.433 188.284 212 191.032 212C192.64 212 194.962 211.21 196.572 209.905C196.235 209.22 196.057 208.315 196.057 207.3C196.057 206.731 196.273 205.655 196.954 203.61C197.803 201.062 197.96 200.04 197.96 198.971C197.96 196.236 196.752 194.984 193.978 194.984Z" fill="white"/>
<path d="M164.379 209.099C162.041 209.099 161.214 208.268 161.643 205.847H163.171C170.399 205.847 175.001 203.444 175.001 199.258C175.001 196.79 172.874 194.623 167.031 194.623C157.323 194.623 152.92 199.6 152.92 205.847C152.92 209.51 155.603 211.998 161.243 211.998C165.438 211.998 168.928 210.968 171.325 209.092L170.786 207.611C168.192 208.794 166.66 209.099 164.379 209.099ZM162.328 203.314C164.07 198.171 164.755 197.519 166.067 197.519C167.153 197.519 167.463 198.749 166.669 201.14C166.139 202.726 163.997 204.037 162.097 204.037C162.168 203.804 162.244 203.562 162.328 203.314Z" fill="white"/>
<path d="M156.758 185.212L146.625 187.384L142.282 200.418C141.261 203.478 140.834 205.684 140.834 206.93C140.834 210.113 142.8 211.998 145.9 211.998C147.433 211.998 148.864 211.528 150.968 209.826C150.475 208.828 150.246 207.805 150.246 206.208C150.246 205.271 150.502 203.979 150.968 202.587L156.758 185.212Z" fill="white"/>
<path d="M141.024 195.349H131.98L129.809 201.864C128.02 207.219 127.545 207.652 126.189 207.652C125.235 207.652 124.834 206.653 126.189 202.587C126.721 200.989 127.615 198.218 128.572 195.349H119.533L117.845 200.418C116.826 203.478 116.417 205.684 116.417 206.93C116.417 210.113 118.385 211.998 121.484 211.998C123.632 211.998 126.226 210.542 128.009 209.454C128.72 211.035 130.039 212 132.129 212C133.658 212 136.272 211.528 138.369 209.826C137.966 209.009 137.72 208.155 137.72 206.752C137.72 205.504 138.005 204.487 138.395 203.314C138.929 201.712 140.078 198.218 141.024 195.349Z" fill="white"/>
<path d="M117.914 195.349H114.824L117.181 188.28L107.049 190.454L105.415 195.349H101.081C100.981 195.597 100.933 195.852 100.933 196.126C100.938 197.455 101.834 198.563 103.347 199.019C103.556 199.082 103.823 199.138 104.137 199.186C103.979 199.656 103.841 200.073 103.729 200.418C102.704 203.478 102.283 205.684 102.283 206.93C102.283 210.113 104.244 211.998 107.348 211.998C108.881 211.998 110.307 211.528 112.414 209.826C111.919 208.828 111.689 207.805 111.689 206.208C111.689 205.271 111.951 203.979 112.414 202.587C112.689 201.764 113.064 200.629 113.5 199.332H116.585L117.914 195.349Z" fill="white"/>
<path d="M95.7887 194.984C92.772 194.984 88.7121 197.734 88.4573 198.207L92.7862 185.212L82.8316 187.384L74.872 211.273H84.0976L86.9934 202.587C87.7556 200.306 88.4383 199.694 89.5218 199.692C90.5755 199.691 90.9738 200.673 90.2863 202.733C90.1406 203.165 89.6534 204.622 89.2397 205.867C88.8248 207.101 88.7252 207.69 88.7252 208.511C88.7252 210.433 90.0943 212 92.8372 212C94.4481 212 96.7702 211.21 98.3774 209.905C98.0399 209.22 97.8607 208.315 97.8607 207.3C97.8607 206.731 98.0814 205.655 98.7639 203.61C99.6089 201.062 99.7714 200.04 99.7714 198.971C99.7714 196.236 98.5624 194.984 95.7887 194.984Z" fill="white"/>
<path d="M66.5306 186.661C57.1189 186.661 48 192.361 48 203.219C48 208.553 52.8872 212 58.0874 212C67.4978 212 76.6191 206.298 76.6191 195.443C76.6191 190.107 71.7296 186.661 66.5306 186.661ZM64.5807 199.332C61.8402 207.552 61.0661 208.479 59.2585 208.479C57.74 208.479 57.2837 207.552 60.0266 199.332C62.7683 191.106 63.5507 190.178 65.356 190.178C66.8779 190.178 67.3224 191.106 64.5807 199.332Z" fill="white"/>
<path d="M66.5306 184.223C69.6112 184.223 72.5403 185.232 74.7853 187.061C74.8872 187.149 74.9868 187.24 75.0911 187.325C76.7115 186.512 77.8577 185.112 77.8577 182.594C77.8577 181.727 77.3373 180.53 76.6842 180C76.1591 180.394 75.6175 180.667 74.7794 180.92C74.284 181.066 73.6047 181.145 72.871 181.145H61.7169C60.1012 181.145 58.936 181.292 58.2841 181.486C56.3176 182.079 55.5981 183.109 55.5981 184.406C55.5981 185.265 55.8897 185.992 56.3556 186.448C59.39 184.999 62.8797 184.223 66.5306 184.223Z" fill="white"/>
</svg>
