<svg width="770" height="100" viewBox="0 0 770 100" fill="none" xmlns="http://www.w3.org/2000/svg">
<path d="M66.0845 69L63.9785 60.63H52.2605L50.1545 69H41.8925L53.3945 31.632H63.0605L74.5085 69H66.0845ZM53.7725 54.744H62.4665L58.0925 37.518L53.7725 54.744ZM93.1081 39.516C95.6281 39.516 97.5901 40.29 98.9941 41.838C100.398 43.35 101.1 45.456 101.1 48.156V69H93.4321V49.452C93.4321 47.904 93.1621 46.824 92.6221 46.212C92.1181 45.564 91.3441 45.24 90.3001 45.24C89.2201 45.24 88.2301 45.582 87.3301 46.266C86.4661 46.914 85.6201 47.904 84.7921 49.236V69H77.1241V40.38H83.7661L84.3601 43.998C85.5481 42.522 86.8441 41.406 88.2481 40.65C89.6881 39.894 91.3081 39.516 93.1081 39.516ZM123.705 39.516C126.225 39.516 128.187 40.29 129.591 41.838C130.995 43.35 131.697 45.456 131.697 48.156V69H124.029V49.452C124.029 47.904 123.759 46.824 123.219 46.212C122.715 45.564 121.941 45.24 120.897 45.24C119.817 45.24 118.827 45.582 117.927 46.266C117.063 46.914 116.217 47.904 115.389 49.236V69H107.721V40.38H114.363L114.957 43.998C116.145 42.522 117.441 41.406 118.845 40.65C120.285 39.894 121.905 39.516 123.705 39.516ZM160.187 61.062C160.187 62.178 160.349 63.006 160.673 63.546C160.997 64.05 161.537 64.428 162.293 64.68L160.673 69.756C158.981 69.612 157.595 69.216 156.515 68.568C155.471 67.92 154.661 66.912 154.085 65.544C152.213 68.424 149.351 69.864 145.499 69.864C142.655 69.864 140.387 69.054 138.695 67.434C137.039 65.778 136.211 63.636 136.211 61.008C136.211 57.876 137.345 55.482 139.613 53.826C141.881 52.17 145.139 51.342 149.387 51.342H152.681V49.938C152.681 48.174 152.285 46.95 151.493 46.266C150.701 45.582 149.387 45.24 147.551 45.24C145.535 45.24 143.015 45.744 139.991 46.752L138.263 41.622C141.827 40.218 145.355 39.516 148.847 39.516C152.735 39.516 155.597 40.362 157.433 42.054C159.269 43.71 160.187 46.194 160.187 49.506V61.062ZM147.605 64.356C149.765 64.356 151.457 63.294 152.681 61.17V55.716H150.143C146.003 55.716 143.933 57.264 143.933 60.36C143.933 61.62 144.239 62.61 144.851 63.33C145.499 64.014 146.417 64.356 147.605 64.356ZM186.81 69.864C184.47 69.864 182.652 69.198 181.356 67.866C180.06 66.498 179.412 64.572 179.412 62.088V28.986L187.08 28.122V61.872C187.08 63.132 187.602 63.762 188.646 63.762C189.222 63.762 189.726 63.654 190.158 63.438L191.724 68.892C190.248 69.54 188.61 69.864 186.81 69.864ZM218.914 54.042C218.914 54.402 218.86 55.392 218.752 57.012H200.878C201.13 59.604 201.832 61.44 202.984 62.52C204.136 63.6 205.702 64.14 207.682 64.14C208.906 64.14 210.058 63.942 211.138 63.546C212.218 63.15 213.388 62.52 214.648 61.656L217.834 65.976C214.63 68.568 211.012 69.864 206.98 69.864C202.48 69.864 199.024 68.514 196.612 65.814C194.2 63.114 192.994 59.46 192.994 54.852C192.994 51.936 193.498 49.326 194.506 47.022C195.55 44.682 197.044 42.846 198.988 41.514C200.968 40.182 203.308 39.516 206.008 39.516C210.076 39.516 213.244 40.794 215.512 43.35C217.78 45.906 218.914 49.47 218.914 54.042ZM211.3 51.882C211.3 47.13 209.59 44.754 206.17 44.754C204.586 44.754 203.344 45.348 202.444 46.536C201.58 47.688 201.058 49.578 200.878 52.206H211.3V51.882ZM239.773 39.516C242.257 39.516 244.201 40.29 245.605 41.838C247.045 43.35 247.765 45.456 247.765 48.156V69H240.097V49.452C240.097 47.904 239.827 46.824 239.287 46.212C238.747 45.564 237.973 45.24 236.965 45.24C234.949 45.24 233.113 46.554 231.457 49.182V69H223.789V28.986L231.457 28.176V43.62C232.609 42.252 233.851 41.226 235.183 40.542C236.551 39.858 238.081 39.516 239.773 39.516ZM278.577 54.042C278.577 54.402 278.523 55.392 278.415 57.012H260.541C260.793 59.604 261.495 61.44 262.647 62.52C263.799 63.6 265.365 64.14 267.345 64.14C268.569 64.14 269.721 63.942 270.801 63.546C271.881 63.15 273.051 62.52 274.311 61.656L277.497 65.976C274.293 68.568 270.675 69.864 266.643 69.864C262.143 69.864 258.687 68.514 256.275 65.814C253.863 63.114 252.657 59.46 252.657 54.852C252.657 51.936 253.161 49.326 254.169 47.022C255.213 44.682 256.707 42.846 258.651 41.514C260.631 40.182 262.971 39.516 265.671 39.516C269.739 39.516 272.907 40.794 275.175 43.35C277.443 45.906 278.577 49.47 278.577 54.042ZM270.963 51.882C270.963 47.13 269.253 44.754 265.833 44.754C264.249 44.754 263.007 45.348 262.107 46.536C261.243 47.688 260.721 49.578 260.541 52.206H270.963V51.882ZM291.121 28.122V69H283.453V28.986L291.121 28.122ZM308.509 40.38L299.383 52.962L309.319 69H300.625L291.391 53.34L300.571 40.38H308.509ZM335.059 69H328.417L328.039 65.166C327.031 66.75 325.807 67.938 324.367 68.73C322.927 69.486 321.253 69.864 319.345 69.864C316.753 69.864 314.773 69.09 313.405 67.542C312.037 65.958 311.353 63.762 311.353 60.954V40.38H319.021V59.982C319.021 61.494 319.273 62.574 319.777 63.222C320.281 63.834 321.073 64.14 322.153 64.14C324.205 64.14 325.951 62.898 327.391 60.414V40.38H335.059V69ZM365.392 69H358.75L358.372 65.166C357.364 66.75 356.14 67.938 354.7 68.73C353.26 69.486 351.586 69.864 349.678 69.864C347.086 69.864 345.106 69.09 343.738 67.542C342.37 65.958 341.686 63.762 341.686 60.954V40.38H349.354V59.982C349.354 61.494 349.606 62.574 350.11 63.222C350.614 63.834 351.406 64.14 352.486 64.14C354.538 64.14 356.284 62.898 357.724 60.414V40.38H365.392V69ZM379.417 69.864C377.077 69.864 375.259 69.198 373.963 67.866C372.667 66.498 372.019 64.572 372.019 62.088V28.986L379.687 28.122V61.872C379.687 63.132 380.209 63.762 381.253 63.762C381.829 63.762 382.333 63.654 382.765 63.438L384.331 68.892C382.855 69.54 381.217 69.864 379.417 69.864ZM411.521 54.042C411.521 54.402 411.467 55.392 411.359 57.012H393.485C393.737 59.604 394.439 61.44 395.591 62.52C396.743 63.6 398.309 64.14 400.289 64.14C401.513 64.14 402.665 63.942 403.745 63.546C404.825 63.15 405.995 62.52 407.255 61.656L410.441 65.976C407.237 68.568 403.619 69.864 399.587 69.864C395.087 69.864 391.631 68.514 389.219 65.814C386.807 63.114 385.601 59.46 385.601 54.852C385.601 51.936 386.105 49.326 387.113 47.022C388.157 44.682 389.651 42.846 391.595 41.514C393.575 40.182 395.915 39.516 398.615 39.516C402.683 39.516 405.851 40.794 408.119 43.35C410.387 45.906 411.521 49.47 411.521 54.042ZM403.907 51.882C403.907 47.13 402.197 44.754 398.777 44.754C397.193 44.754 395.951 45.348 395.051 46.536C394.187 47.688 393.665 49.578 393.485 52.206H403.907V51.882ZM443.701 39.57C444.565 39.57 445.519 39.714 446.563 40.002L445.267 47.4C444.259 47.148 443.413 47.022 442.729 47.022C441.037 47.022 439.723 47.616 438.787 48.804C437.851 49.992 437.113 51.792 436.573 54.204V69H428.905V40.38H435.547L436.249 45.942C436.933 43.926 437.923 42.36 439.219 41.244C440.551 40.128 442.045 39.57 443.701 39.57ZM460.1 39.516C464.384 39.516 467.732 40.866 470.144 43.566C472.556 46.23 473.762 49.938 473.762 54.69C473.762 57.714 473.204 60.378 472.088 62.682C471.008 64.95 469.424 66.714 467.336 67.974C465.284 69.234 462.854 69.864 460.046 69.864C455.762 69.864 452.396 68.532 449.948 65.868C447.536 63.168 446.33 59.442 446.33 54.69C446.33 51.666 446.87 49.02 447.95 46.752C449.066 44.448 450.65 42.666 452.702 41.406C454.79 40.146 457.256 39.516 460.1 39.516ZM460.1 45.24C458.156 45.24 456.698 46.014 455.726 47.562C454.79 49.074 454.322 51.45 454.322 54.69C454.322 57.93 454.79 60.324 455.726 61.872C456.698 63.384 458.138 64.14 460.046 64.14C461.954 64.14 463.376 63.384 464.312 61.872C465.284 60.324 465.77 57.93 465.77 54.69C465.77 51.45 465.302 49.074 464.366 47.562C463.43 46.014 462.008 45.24 460.1 45.24ZM494.902 39.516C497.386 39.516 499.33 40.29 500.734 41.838C502.174 43.35 502.894 45.456 502.894 48.156V69H495.226V49.452C495.226 47.904 494.956 46.824 494.416 46.212C493.876 45.564 493.102 45.24 492.094 45.24C490.078 45.24 488.242 46.554 486.586 49.182V69H478.918V28.986L486.586 28.176V43.62C487.738 42.252 488.98 41.226 490.312 40.542C491.68 39.858 493.21 39.516 494.902 39.516ZM517.182 28.122V69H509.514V28.986L517.182 28.122ZM534.57 40.38L525.444 52.962L535.38 69H526.686L517.452 53.34L526.632 40.38H534.57ZM561.666 54.042C561.666 54.402 561.612 55.392 561.504 57.012H543.63C543.882 59.604 544.584 61.44 545.736 62.52C546.888 63.6 548.454 64.14 550.434 64.14C551.658 64.14 552.81 63.942 553.89 63.546C554.97 63.15 556.14 62.52 557.4 61.656L560.586 65.976C557.382 68.568 553.764 69.864 549.732 69.864C545.232 69.864 541.776 68.514 539.364 65.814C536.952 63.114 535.746 59.46 535.746 54.852C535.746 51.936 536.25 49.326 537.258 47.022C538.302 44.682 539.796 42.846 541.74 41.514C543.72 40.182 546.06 39.516 548.76 39.516C552.828 39.516 555.996 40.794 558.264 43.35C560.532 45.906 561.666 49.47 561.666 54.042ZM554.052 51.882C554.052 47.13 552.342 44.754 548.922 44.754C547.338 44.754 546.096 45.348 545.196 46.536C544.332 47.688 543.81 49.578 543.63 52.206H554.052V51.882ZM597.483 39.516C599.751 39.516 601.569 40.29 602.937 41.838C604.341 43.386 605.043 45.492 605.043 48.156V69H597.375V49.452C597.375 46.644 596.439 45.24 594.567 45.24C593.559 45.24 592.677 45.564 591.921 46.212C591.165 46.86 590.391 47.868 589.599 49.236V69H581.931V49.452C581.931 46.644 580.995 45.24 579.123 45.24C578.115 45.24 577.233 45.582 576.477 46.266C575.721 46.914 574.965 47.904 574.209 49.236V69H566.541V40.38H573.183L573.777 43.944C574.857 42.504 576.063 41.406 577.395 40.65C578.763 39.894 580.329 39.516 582.093 39.516C583.713 39.516 585.117 39.93 586.305 40.758C587.493 41.55 588.357 42.684 588.897 44.16C590.085 42.612 591.363 41.46 592.731 40.704C594.135 39.912 595.719 39.516 597.483 39.516ZM633.652 39.516C637.684 39.516 641.14 40.668 644.02 42.972L641.104 47.346C638.692 45.834 636.316 45.078 633.976 45.078C632.716 45.078 631.744 45.312 631.06 45.78C630.376 46.248 630.034 46.878 630.034 47.67C630.034 48.246 630.178 48.732 630.466 49.128C630.79 49.524 631.366 49.902 632.194 50.262C633.058 50.622 634.336 51.054 636.028 51.558C639.052 52.386 641.302 53.502 642.778 54.906C644.254 56.274 644.992 58.164 644.992 60.576C644.992 62.484 644.434 64.14 643.318 65.544C642.238 66.948 640.762 68.028 638.89 68.784C637.018 69.504 634.93 69.864 632.626 69.864C630.214 69.864 628.018 69.504 626.038 68.784C624.058 68.028 622.366 67.002 620.962 65.706L624.742 61.494C627.154 63.366 629.71 64.302 632.41 64.302C633.85 64.302 634.984 64.032 635.812 63.492C636.676 62.916 637.108 62.142 637.108 61.17C637.108 60.414 636.946 59.82 636.622 59.388C636.298 58.956 635.704 58.56 634.84 58.2C633.976 57.804 632.626 57.354 630.79 56.85C627.91 56.058 625.768 54.942 624.364 53.502C622.996 52.026 622.312 50.208 622.312 48.048C622.312 46.428 622.78 44.97 623.716 43.674C624.652 42.378 625.966 41.37 627.658 40.65C629.386 39.894 631.384 39.516 633.652 39.516ZM656.981 40.38V69H649.313V40.38H656.981ZM653.093 25.638C654.461 25.638 655.577 26.07 656.441 26.934C657.341 27.762 657.791 28.824 657.791 30.12C657.791 31.416 657.341 32.496 656.441 33.36C655.577 34.188 654.461 34.602 653.093 34.602C651.725 34.602 650.609 34.188 649.745 33.36C648.881 32.496 648.449 31.416 648.449 30.12C648.449 28.824 648.881 27.762 649.745 26.934C650.609 26.07 651.725 25.638 653.093 25.638ZM673.382 39.516C677.414 39.516 680.87 40.668 683.75 42.972L680.834 47.346C678.422 45.834 676.046 45.078 673.706 45.078C672.446 45.078 671.474 45.312 670.79 45.78C670.106 46.248 669.764 46.878 669.764 47.67C669.764 48.246 669.908 48.732 670.196 49.128C670.52 49.524 671.096 49.902 671.924 50.262C672.788 50.622 674.066 51.054 675.758 51.558C678.782 52.386 681.032 53.502 682.508 54.906C683.984 56.274 684.722 58.164 684.722 60.576C684.722 62.484 684.164 64.14 683.048 65.544C681.968 66.948 680.492 68.028 678.62 68.784C676.748 69.504 674.66 69.864 672.356 69.864C669.944 69.864 667.748 69.504 665.768 68.784C663.788 68.028 662.096 67.002 660.692 65.706L664.472 61.494C666.884 63.366 669.44 64.302 672.14 64.302C673.58 64.302 674.714 64.032 675.542 63.492C676.406 62.916 676.838 62.142 676.838 61.17C676.838 60.414 676.676 59.82 676.352 59.388C676.028 58.956 675.434 58.56 674.57 58.2C673.706 57.804 672.356 57.354 670.52 56.85C667.64 56.058 665.498 54.942 664.094 53.502C662.726 52.026 662.042 50.208 662.042 48.048C662.042 46.428 662.51 44.97 663.446 43.674C664.382 42.378 665.696 41.37 667.388 40.65C669.116 39.894 671.114 39.516 673.382 39.516ZM712.479 69H705.837L705.459 65.166C704.451 66.75 703.227 67.938 701.787 68.73C700.347 69.486 698.673 69.864 696.765 69.864C694.173 69.864 692.193 69.09 690.825 67.542C689.457 65.958 688.773 63.762 688.773 60.954V40.38H696.441V59.982C696.441 61.494 696.693 62.574 697.197 63.222C697.701 63.834 698.493 64.14 699.573 64.14C701.625 64.14 703.371 62.898 704.811 60.414V40.38H712.479V69ZM726.126 31.632L725.208 55.554H718.944L717.918 31.632H726.126ZM722.076 60.63C723.372 60.63 724.47 61.08 725.37 61.98C726.27 62.88 726.72 63.96 726.72 65.22C726.72 66.48 726.27 67.578 725.37 68.514C724.47 69.414 723.372 69.864 722.076 69.864C720.816 69.864 719.736 69.414 718.836 68.514C717.936 67.578 717.486 66.48 717.486 65.22C717.486 63.96 717.936 62.88 718.836 61.98C719.736 61.08 720.816 60.63 722.076 60.63Z" fill="#F20312"/>
</svg>
