<svg width="770" height="100" viewBox="0 0 770 100" fill="none" xmlns="http://www.w3.org/2000/svg">
<path d="M102.534 29.6834C102.534 20.4419 110.025 12.9502 119.267 12.9502H425.466V86.1497H119.267C110.025 86.1497 102.534 78.658 102.534 69.4165V29.6834Z" fill="#FFDF38"/>
<path d="M153.804 37.8913L153.269 41.74H147.412V61.05H142.492V41.74H136.335V37.8913H153.804ZM169.723 37.8913L169.188 41.4722H160.821V47.4962H168.117V51.0436H160.821V57.4357H169.79V61.05H155.902V37.8913H169.723ZM178.084 37.8913V57.101H187.254L186.718 61.05H173.164V37.8913H178.084ZM194.693 37.8913V57.101H203.863L203.327 61.05H189.773V37.8913H194.693ZM211.302 37.8913V61.05H206.382V37.8913H211.302ZM229.611 37.8913C233.225 37.8913 236.114 38.7168 238.279 40.3678C240.465 41.9965 241.558 44.9974 241.558 49.3703C241.558 53.654 240.487 56.6771 238.346 58.4397C236.226 60.1799 233.504 61.05 230.18 61.05H223.553V37.8913H229.611ZM228.473 41.5057V57.4357H230.481C232.377 57.4357 233.839 56.8556 234.865 55.6954C235.914 54.513 236.438 52.4046 236.438 49.3703C236.438 47.2731 236.17 45.6444 235.635 44.4842C235.122 43.324 234.43 42.5432 233.56 42.1416C232.69 41.7177 231.63 41.5057 230.381 41.5057H228.473ZM249.821 37.8913V61.05H244.901V37.8913H249.821ZM263.992 37.3559C265.554 37.3559 266.937 37.6013 268.142 38.0921C269.369 38.5607 270.507 39.2411 271.555 40.1336L268.979 42.8109C268.153 42.1862 267.372 41.7288 266.636 41.4388C265.922 41.1487 265.108 41.0037 264.193 41.0037C262.43 41.0037 261.002 41.7065 259.909 43.1121C258.838 44.4954 258.303 46.6149 258.303 49.4707C258.303 52.4827 258.715 54.6468 259.541 55.9632C260.389 57.2572 261.694 57.9042 263.457 57.9042C264.728 57.9042 265.877 57.6253 266.904 57.0676V51.4117H263.657L263.155 47.8308H271.689V59.2429C270.484 59.9791 269.179 60.5592 267.774 60.9831C266.39 61.3847 264.985 61.5855 263.557 61.5855C260.143 61.5855 257.555 60.5592 255.793 58.5066C254.03 56.454 253.149 53.4309 253.149 49.4372C253.149 46.9161 253.629 44.7408 254.588 42.9113C255.547 41.0818 256.841 39.6985 258.47 38.7615C260.121 37.8244 261.962 37.3559 263.992 37.3559ZM280.261 37.8913V61.05H275.341V37.8913H280.261ZM291.922 37.8913C294.934 37.8913 297.266 38.516 298.917 39.7654C300.59 41.0149 301.426 42.8778 301.426 45.3543C301.426 47.9424 300.601 49.8946 298.95 51.2109C297.299 52.505 295.09 53.152 292.324 53.152H289.68V61.05H284.76V37.8913H291.922ZM291.922 49.5376C293.35 49.5376 294.443 49.2141 295.202 48.5671C295.96 47.9201 296.34 46.8492 296.34 45.3543C296.34 42.744 294.845 41.4388 291.855 41.4388H289.68V49.5376H291.922ZM314.5 61.05L313.195 55.8628H305.933L304.628 61.05H299.507L306.636 37.8913H312.626L319.721 61.05H314.5ZM306.87 52.2149H312.258L309.547 41.5392L306.87 52.2149ZM326.362 37.8913V61.05H321.443V37.8913H326.362ZM339.514 37.8913L331.784 48.3328L340.117 61.05H334.361L326.563 48.701L334.26 37.8913H339.514ZM355.664 37.8913L355.129 41.4722H346.762V47.4962H354.058V51.0436H346.762V57.4357H355.731V61.05H341.843V37.8913H355.664ZM374.466 37.8913L373.931 41.74H368.074V61.05H363.155V41.74H356.997V37.8913H374.466ZM391.925 37.8913L391.39 41.74H385.533V61.05H380.613V41.74H374.456V37.8913H391.925Z" fill="#451D02"/>
<path d="M425.466 12.9502H651.666C660.907 12.9502 668.399 20.4419 668.399 29.6834V69.4165C668.399 78.658 660.907 86.1497 651.666 86.1497H425.466V12.9502Z" fill="#F20312"/>
<path d="M466.797 38.0587C468.337 38.0587 469.653 38.3152 470.746 38.8284C471.862 39.3192 472.699 39.9997 473.256 40.8698C473.836 41.74 474.126 42.7105 474.126 43.7814C474.126 45.1424 473.736 46.2802 472.955 47.195C472.174 48.0874 471.092 48.7233 469.709 49.1026C471.226 49.2587 472.464 49.8054 473.424 50.7424C474.383 51.6795 474.863 52.9847 474.863 54.658C474.863 55.952 474.528 57.1233 473.859 58.1719C473.212 59.2206 472.252 60.0572 470.981 60.6819C469.709 61.2843 468.203 61.5855 466.463 61.5855C463.272 61.5855 460.773 60.47 458.966 58.2389L461.543 55.7624C462.302 56.5209 463.049 57.0676 463.785 57.4022C464.522 57.7369 465.325 57.9042 466.195 57.9042C467.355 57.9042 468.27 57.5919 468.939 56.9672C469.631 56.3424 469.977 55.4723 469.977 54.3568C469.977 53.152 469.653 52.2819 469.006 51.7464C468.359 51.2109 467.389 50.9432 466.095 50.9432H464.254L464.823 47.5966H466.061C467.11 47.5966 467.946 47.3177 468.571 46.7599C469.196 46.2021 469.508 45.4213 469.508 44.4173C469.508 43.5471 469.218 42.8667 468.638 42.3758C468.08 41.885 467.31 41.6396 466.329 41.6396C465.481 41.6396 464.7 41.7957 463.986 42.1081C463.272 42.4204 462.569 42.9113 461.878 43.5806L459.502 41.0037C461.577 39.0403 464.008 38.0587 466.797 38.0587ZM491.656 53.5871C491.968 55.1265 492.537 56.2532 493.363 56.9672C494.21 57.6811 495.337 58.0381 496.743 58.0381C498.237 58.0381 499.844 57.5695 501.562 56.6325V60.3138C500.647 60.7377 499.777 61.05 498.951 61.2508C498.126 61.474 497.222 61.5855 496.241 61.5855C493.72 61.5855 491.645 60.8939 490.016 59.5106C488.41 58.105 487.35 56.1305 486.837 53.5871H483.925L484.594 51.0101H486.703V48.5002H483.925L484.594 45.8898H486.87C487.495 43.4579 488.655 41.5503 490.351 40.167C492.069 38.7615 494.088 38.0587 496.408 38.0587C498.728 38.0587 500.826 38.6945 502.7 39.9662L500.993 42.9113C500.279 42.4428 499.576 42.1081 498.885 41.9073C498.193 41.6842 497.423 41.5726 496.575 41.5726C495.415 41.5726 494.422 41.9296 493.597 42.6436C492.771 43.3575 492.158 44.4396 491.756 45.8898H499.955L499.286 48.5002H491.522V51.0101H498.751L498.115 53.5871H491.656ZM521.041 33.8084L525.157 34.7455L517.326 64.7313L513.176 63.7608L521.041 33.8084ZM543.051 38.0587C544.59 38.0587 545.907 38.3152 547 38.8284C548.116 39.3192 548.952 39.9997 549.51 40.8698C550.09 41.74 550.38 42.7105 550.38 43.7814C550.38 45.1424 549.99 46.2802 549.209 47.195C548.428 48.0874 547.346 48.7233 545.963 49.1026C547.48 49.2587 548.718 49.8054 549.677 50.7424C550.637 51.6795 551.116 52.9847 551.116 54.658C551.116 55.952 550.782 57.1233 550.112 58.1719C549.465 59.2206 548.506 60.0572 547.234 60.6819C545.963 61.2843 544.457 61.5855 542.716 61.5855C539.526 61.5855 537.027 60.47 535.22 58.2389L537.797 55.7624C538.555 56.5209 539.303 57.0676 540.039 57.4022C540.775 57.7369 541.578 57.9042 542.449 57.9042C543.609 57.9042 544.523 57.5919 545.193 56.9672C545.884 56.3424 546.23 55.4723 546.23 54.3568C546.23 53.152 545.907 52.2819 545.26 51.7464C544.613 51.2109 543.642 50.9432 542.348 50.9432H540.507L541.076 47.5966H542.315C543.363 47.5966 544.2 47.3177 544.825 46.7599C545.449 46.2021 545.762 45.4213 545.762 44.4173C545.762 43.5471 545.472 42.8667 544.892 42.3758C544.334 41.885 543.564 41.6396 542.582 41.6396C541.735 41.6396 540.954 41.7957 540.24 42.1081C539.526 42.4204 538.823 42.9113 538.131 43.5806L535.755 41.0037C537.83 39.0403 540.262 38.0587 543.051 38.0587ZM566.838 35.716V61.05H562.086V36.2515L566.838 35.716ZM577.615 43.3129L571.959 51.1105L578.117 61.05H572.729L567.006 51.3448L572.695 43.3129H577.615ZM594.069 61.05H589.953L589.719 58.6739C589.094 59.6556 588.335 60.3919 587.443 60.8827C586.551 61.3512 585.513 61.5855 584.331 61.5855C582.724 61.5855 581.497 61.1058 580.649 60.1465C579.802 59.1648 579.378 57.8038 579.378 56.0636V43.3129H584.13V55.4612C584.13 56.3982 584.286 57.0676 584.598 57.4691C584.911 57.8484 585.402 58.0381 586.071 58.0381C587.343 58.0381 588.425 57.2684 589.317 55.7289V43.3129H594.069V61.05ZM612.868 61.05H608.752L608.517 58.6739C607.893 59.6556 607.134 60.3919 606.242 60.8827C605.349 61.3512 604.312 61.5855 603.129 61.5855C601.523 61.5855 600.296 61.1058 599.448 60.1465C598.6 59.1648 598.176 57.8038 598.176 56.0636V43.3129H602.929V55.4612C602.929 56.3982 603.085 57.0676 603.397 57.4691C603.709 57.8484 604.2 58.0381 604.87 58.0381C606.141 58.0381 607.223 57.2684 608.116 55.7289V43.3129H612.868V61.05ZM632.503 36.2515V61.05H628.32L628.052 58.8747C626.803 60.6819 625.107 61.5855 622.965 61.5855C620.779 61.5855 619.106 60.7489 617.945 59.0755C616.808 57.3799 616.239 55.0819 616.239 52.1815C616.239 50.352 616.529 48.7344 617.109 47.3288C617.711 45.9009 618.559 44.7854 619.652 43.9822C620.746 43.179 622.006 42.7774 623.434 42.7774C625.085 42.7774 626.524 43.3687 627.751 44.5511V35.716L632.503 36.2515ZM624.371 58.0381C625.063 58.0381 625.676 57.8707 626.212 57.5361C626.747 57.1791 627.26 56.6325 627.751 55.8962V47.9647C627.283 47.4069 626.803 46.9942 626.312 46.7264C625.844 46.4364 625.297 46.2914 624.672 46.2914C623.579 46.2914 622.72 46.7711 622.095 47.7304C621.493 48.6898 621.192 50.1735 621.192 52.1815C621.192 54.301 621.459 55.807 621.995 56.6994C622.553 57.5919 623.345 58.0381 624.371 58.0381Z" fill="white"/>
</svg>
