<svg width="600" height="260" viewBox="0 0 600 260" fill="none" xmlns="http://www.w3.org/2000/svg">
<path d="M54.768 39.184C57.368 39.184 59.6213 39.5653 61.528 40.328C63.4693 41.056 65.2547 42.1827 66.884 43.708L63.244 47.92C61.9613 46.88 60.6787 46.1173 59.396 45.632C58.1133 45.1467 56.744 44.904 55.288 44.904C53.6933 44.904 52.4107 45.2507 51.44 45.944C50.504 46.6027 50.036 47.556 50.036 48.804C50.036 49.6707 50.2267 50.3813 50.608 50.936C51.024 51.4907 51.7347 52.0107 52.74 52.496C53.7453 52.9813 55.2533 53.536 57.264 54.16C60.8347 55.304 63.504 56.7253 65.272 58.424C67.04 60.088 67.924 62.48 67.924 65.6C67.924 67.8187 67.3693 69.7773 66.26 71.476C65.1507 73.14 63.5387 74.4573 61.424 75.428C59.3093 76.364 56.8307 76.832 53.988 76.832C51.1453 76.832 48.6147 76.3813 46.396 75.48C44.1773 74.5787 42.2707 73.348 40.676 71.788L44.576 67.472C45.9627 68.6507 47.4013 69.552 48.892 70.176C50.3827 70.7653 52.012 71.06 53.78 71.06C55.652 71.06 57.1427 70.6267 58.252 69.76C59.396 68.8933 59.968 67.68 59.968 66.12C59.968 65.1493 59.76 64.352 59.344 63.728C58.9627 63.0693 58.2867 62.48 57.316 61.96C56.3453 61.44 54.9413 60.9027 53.104 60.348C49.1867 59.1347 46.3787 57.6787 44.68 55.98C43.016 54.2813 42.184 52.0627 42.184 49.324C42.184 47.3133 42.7213 45.5453 43.796 44.02C44.8707 42.46 46.3613 41.264 48.268 40.432C50.1747 39.6 52.3413 39.184 54.768 39.184ZM80.8423 40.016V76H73.1983V40.016H80.8423ZM99.4555 39.184C102.056 39.184 104.309 39.5653 106.216 40.328C108.157 41.056 109.942 42.1827 111.572 43.708L107.932 47.92C106.649 46.88 105.366 46.1173 104.084 45.632C102.801 45.1467 101.432 44.904 99.9755 44.904C98.3808 44.904 97.0982 45.2507 96.1275 45.944C95.1915 46.6027 94.7235 47.556 94.7235 48.804C94.7235 49.6707 94.9142 50.3813 95.2955 50.936C95.7115 51.4907 96.4222 52.0107 97.4275 52.496C98.4328 52.9813 99.9408 53.536 101.952 54.16C105.522 55.304 108.192 56.7253 109.96 58.424C111.728 60.088 112.612 62.48 112.612 65.6C112.612 67.8187 112.057 69.7773 110.947 71.476C109.838 73.14 108.226 74.4573 106.112 75.428C103.997 76.364 101.518 76.832 98.6755 76.832C95.8328 76.832 93.3022 76.3813 91.0835 75.48C88.8648 74.5787 86.9582 73.348 85.3635 71.788L89.2635 67.472C90.6502 68.6507 92.0888 69.552 93.5795 70.176C95.0702 70.7653 96.6995 71.06 98.4675 71.06C100.34 71.06 101.83 70.6267 102.94 69.76C104.084 68.8933 104.656 67.68 104.656 66.12C104.656 65.1493 104.448 64.352 104.032 63.728C103.65 63.0693 102.974 62.48 102.004 61.96C101.033 61.44 99.6288 60.9027 97.7915 60.348C93.8742 59.1347 91.0662 57.6787 89.3675 55.98C87.7035 54.2813 86.8715 52.0627 86.8715 49.324C86.8715 47.3133 87.4088 45.5453 88.4835 44.02C89.5582 42.46 91.0488 41.264 92.9555 40.432C94.8622 39.6 97.0288 39.184 99.4555 39.184ZM144.77 64.144C144.77 66.6053 144.25 68.7893 143.21 70.696C142.17 72.6027 140.61 74.1107 138.53 75.22C136.485 76.2947 133.989 76.832 131.042 76.832C126.605 76.832 123.207 75.688 120.85 73.4C118.527 71.0773 117.366 67.992 117.366 64.144V40.016H125.01V63.78C125.01 66.2067 125.495 68.0267 126.466 69.24C127.437 70.4187 128.962 71.008 131.042 71.008C133.122 71.008 134.647 70.4187 135.618 69.24C136.623 68.0267 137.126 66.2067 137.126 63.78V40.016H144.77V64.144ZM172.249 40.016V69.864H186.497L185.665 76H164.605V40.016H172.249ZM203.023 39.184C206.317 39.184 209.159 39.9293 211.551 41.42C213.943 42.876 215.781 45.008 217.063 47.816C218.346 50.624 218.987 54.0213 218.987 58.008C218.987 61.9253 218.346 65.3053 217.063 68.148C215.781 70.956 213.943 73.1053 211.551 74.596C209.159 76.0867 206.317 76.832 203.023 76.832C199.73 76.832 196.87 76.104 194.443 74.648C192.051 73.1573 190.214 71.008 188.931 68.2C187.649 65.3573 187.007 61.96 187.007 58.008C187.007 54.1253 187.649 50.78 188.931 47.972C190.249 45.1293 192.103 42.9627 194.495 41.472C196.922 39.9467 199.765 39.184 203.023 39.184ZM203.023 44.904C200.389 44.904 198.395 45.944 197.043 48.024C195.726 50.104 195.067 53.432 195.067 58.008C195.067 62.584 195.743 65.912 197.095 67.992C198.447 70.072 200.423 71.112 203.023 71.112C205.658 71.112 207.634 70.0893 208.951 68.044C210.269 65.964 210.927 62.6187 210.927 58.008C210.927 53.3973 210.269 50.0693 208.951 48.024C207.634 45.944 205.658 44.904 203.023 44.904ZM246.256 40.016L245.424 45.58H232.424V54.94H243.76V60.452H232.424V70.384H246.36V76H224.78V40.016H246.256ZM270.661 56.968C273.088 57.4187 275.046 58.3027 276.537 59.62C278.062 60.9027 278.825 62.8787 278.825 65.548C278.825 69.3267 277.473 72.0133 274.769 73.608C272.065 75.2027 268.304 76 263.485 76H252.253V40.016H262.081C267.004 40.016 270.765 40.744 273.365 42.2C275.965 43.656 277.265 45.996 277.265 49.22C277.265 51.3347 276.624 53.0507 275.341 54.368C274.093 55.6507 272.533 56.5173 270.661 56.968ZM259.897 45.528V54.628H263.641C265.513 54.628 266.952 54.2467 267.957 53.484C268.962 52.6867 269.465 51.4907 269.465 49.896C269.465 48.3013 268.928 47.1747 267.853 46.516C266.778 45.8573 265.097 45.528 262.809 45.528H259.897ZM263.537 70.332C265.929 70.332 267.749 69.9853 268.997 69.292C270.245 68.564 270.869 67.212 270.869 65.236C270.869 61.6307 268.65 59.828 264.213 59.828H259.897V70.332H263.537ZM290.589 40.016L289.705 63.052H283.673L282.685 40.016H290.589ZM286.689 67.94C287.937 67.94 288.995 68.3733 289.861 69.24C290.728 70.1067 291.161 71.1467 291.161 72.36C291.161 73.5733 290.728 74.6307 289.861 75.532C288.995 76.3987 287.937 76.832 286.689 76.832C285.476 76.832 284.436 76.3987 283.569 75.532C282.703 74.6307 282.269 73.5733 282.269 72.36C282.269 71.1467 282.703 70.1067 283.569 69.24C284.436 68.3733 285.476 67.94 286.689 67.94Z" fill="#FFE80D"/>
<path d="M48.7539 99.9375V117H45.8359V99.9375H48.7539ZM54.1094 99.9375V102.281H40.5273V99.9375H54.1094ZM60.543 117.234C59.6055 117.234 58.7578 117.082 58 116.777C57.25 116.465 56.6094 116.031 56.0781 115.477C55.5547 114.922 55.1523 114.27 54.8711 113.52C54.5898 112.77 54.4492 111.961 54.4492 111.094V110.625C54.4492 109.633 54.5938 108.734 54.8828 107.93C55.1719 107.125 55.5742 106.438 56.0898 105.867C56.6055 105.289 57.2148 104.848 57.918 104.543C58.6211 104.238 59.3828 104.086 60.2031 104.086C61.1094 104.086 61.9023 104.238 62.582 104.543C63.2617 104.848 63.8242 105.277 64.2695 105.832C64.7227 106.379 65.0586 107.031 65.2773 107.789C65.5039 108.547 65.6172 109.383 65.6172 110.297V111.504H55.8203V109.477H62.8281V109.254C62.8125 108.746 62.7109 108.27 62.5234 107.824C62.3438 107.379 62.0664 107.02 61.6914 106.746C61.3164 106.473 60.8164 106.336 60.1914 106.336C59.7227 106.336 59.3047 106.438 58.9375 106.641C58.5781 106.836 58.2773 107.121 58.0352 107.496C57.793 107.871 57.6055 108.324 57.4727 108.855C57.3477 109.379 57.2852 109.969 57.2852 110.625V111.094C57.2852 111.648 57.3594 112.164 57.5078 112.641C57.6641 113.109 57.8906 113.52 58.1875 113.871C58.4844 114.223 58.8438 114.5 59.2656 114.703C59.6875 114.898 60.168 114.996 60.707 114.996C61.3867 114.996 61.9922 114.859 62.5234 114.586C63.0547 114.312 63.5156 113.926 63.9062 113.426L65.3945 114.867C65.1211 115.266 64.7656 115.648 64.3281 116.016C63.8906 116.375 63.3555 116.668 62.7227 116.895C62.0977 117.121 61.3711 117.234 60.543 117.234ZM70.8438 99V117H68.0078V99H70.8438ZM76.9609 99V117H74.125V99H76.9609ZM83.0781 104.32V117H80.2422V104.32H83.0781ZM80.0547 100.992C80.0547 100.562 80.1953 100.207 80.4766 99.9258C80.7656 99.6367 81.1641 99.4922 81.6719 99.4922C82.1719 99.4922 82.5664 99.6367 82.8555 99.9258C83.1445 100.207 83.2891 100.562 83.2891 100.992C83.2891 101.414 83.1445 101.766 82.8555 102.047C82.5664 102.328 82.1719 102.469 81.6719 102.469C81.1641 102.469 80.7656 102.328 80.4766 102.047C80.1953 101.766 80.0547 101.414 80.0547 100.992ZM106.035 108V108.938C106.035 110.227 105.867 111.383 105.531 112.406C105.195 113.43 104.715 114.301 104.09 115.02C103.473 115.738 102.73 116.289 101.863 116.672C100.996 117.047 100.035 117.234 98.9805 117.234C97.9336 117.234 96.9766 117.047 96.1094 116.672C95.25 116.289 94.5039 115.738 93.8711 115.02C93.2383 114.301 92.7461 113.43 92.3945 112.406C92.0508 111.383 91.8789 110.227 91.8789 108.938V108C91.8789 106.711 92.0508 105.559 92.3945 104.543C92.7383 103.52 93.2227 102.648 93.8477 101.93C94.4805 101.203 95.2266 100.652 96.0859 100.277C96.9531 99.8945 97.9102 99.7031 98.957 99.7031C100.012 99.7031 100.973 99.8945 101.84 100.277C102.707 100.652 103.453 101.203 104.078 101.93C104.703 102.648 105.184 103.52 105.52 104.543C105.863 105.559 106.035 106.711 106.035 108ZM103.094 108.938V107.977C103.094 107.023 103 106.184 102.812 105.457C102.633 104.723 102.363 104.109 102.004 103.617C101.652 103.117 101.219 102.742 100.703 102.492C100.188 102.234 99.6055 102.105 98.957 102.105C98.3086 102.105 97.7305 102.234 97.2227 102.492C96.7148 102.742 96.2812 103.117 95.9219 103.617C95.5703 104.109 95.3008 104.723 95.1133 105.457C94.9258 106.184 94.832 107.023 94.832 107.977V108.938C94.832 109.891 94.9258 110.734 95.1133 111.469C95.3008 112.203 95.5742 112.824 95.9336 113.332C96.3008 113.832 96.7383 114.211 97.2461 114.469C97.7539 114.719 98.332 114.844 98.9805 114.844C99.6367 114.844 100.219 114.719 100.727 114.469C101.234 114.211 101.664 113.832 102.016 113.332C102.367 112.824 102.633 112.203 102.812 111.469C103 110.734 103.094 109.891 103.094 108.938ZM101.535 95.4844L103.258 95.6133C103.258 96.1836 103.145 96.6953 102.918 97.1484C102.691 97.5938 102.383 97.9453 101.992 98.2031C101.602 98.4609 101.16 98.5898 100.668 98.5898C100.285 98.5898 99.9609 98.5352 99.6953 98.4258C99.4297 98.3164 99.1875 98.1914 98.9688 98.0508C98.75 97.9102 98.5234 97.7891 98.2891 97.6875C98.0625 97.5781 97.793 97.5234 97.4805 97.5234C97.1836 97.5234 96.9297 97.6328 96.7188 97.8516C96.5156 98.0703 96.4141 98.3633 96.4141 98.7305L94.6797 98.6367C94.6797 98.0742 94.793 97.5664 95.0195 97.1133C95.2461 96.6602 95.5547 96.3008 95.9453 96.0352C96.3359 95.7695 96.7773 95.6367 97.2695 95.6367C97.5898 95.6367 97.8789 95.6914 98.1367 95.8008C98.4023 95.9023 98.6523 96.0234 98.8867 96.1641C99.1289 96.3047 99.375 96.4297 99.625 96.5391C99.875 96.6484 100.152 96.7031 100.457 96.7031C100.754 96.7031 101.008 96.5898 101.219 96.3633C101.43 96.1367 101.535 95.8438 101.535 95.4844ZM111.484 99V117H108.672V99H111.484ZM110.992 110.191L110.078 110.18C110.086 109.305 110.207 108.496 110.441 107.754C110.684 107.012 111.02 106.367 111.449 105.82C111.887 105.266 112.41 104.84 113.02 104.543C113.629 104.238 114.305 104.086 115.047 104.086C115.672 104.086 116.234 104.172 116.734 104.344C117.242 104.516 117.68 104.793 118.047 105.176C118.414 105.551 118.691 106.043 118.879 106.652C119.074 107.254 119.172 107.988 119.172 108.855V117H116.336V108.832C116.336 108.223 116.246 107.738 116.066 107.379C115.895 107.02 115.641 106.762 115.305 106.605C114.969 106.441 114.559 106.359 114.074 106.359C113.566 106.359 113.117 106.461 112.727 106.664C112.344 106.867 112.023 107.145 111.766 107.496C111.508 107.848 111.312 108.254 111.18 108.715C111.055 109.176 110.992 109.668 110.992 110.191ZM127.844 104.32V106.383H120.695V104.32H127.844ZM122.758 101.215H125.582V113.496C125.582 113.887 125.637 114.188 125.746 114.398C125.863 114.602 126.023 114.738 126.227 114.809C126.43 114.879 126.668 114.914 126.941 114.914C127.137 114.914 127.324 114.902 127.504 114.879C127.684 114.855 127.828 114.832 127.938 114.809L127.949 116.965C127.715 117.035 127.441 117.098 127.129 117.152C126.824 117.207 126.473 117.234 126.074 117.234C125.426 117.234 124.852 117.121 124.352 116.895C123.852 116.66 123.461 116.281 123.18 115.758C122.898 115.234 122.758 114.539 122.758 113.672V101.215ZM137.652 114.012V104.32H140.488V117H137.816L137.652 114.012ZM138.051 111.375L139 111.352C139 112.203 138.906 112.988 138.719 113.707C138.531 114.418 138.242 115.039 137.852 115.57C137.461 116.094 136.961 116.504 136.352 116.801C135.742 117.09 135.012 117.234 134.16 117.234C133.543 117.234 132.977 117.145 132.461 116.965C131.945 116.785 131.5 116.508 131.125 116.133C130.758 115.758 130.473 115.27 130.27 114.668C130.066 114.066 129.965 113.348 129.965 112.512V104.32H132.789V112.535C132.789 112.996 132.844 113.383 132.953 113.695C133.062 114 133.211 114.246 133.398 114.434C133.586 114.621 133.805 114.754 134.055 114.832C134.305 114.91 134.57 114.949 134.852 114.949C135.656 114.949 136.289 114.793 136.75 114.48C137.219 114.16 137.551 113.73 137.746 113.191C137.949 112.652 138.051 112.047 138.051 111.375ZM146.406 99V117H143.57V99H146.406ZM155.09 117.234C154.152 117.234 153.305 117.082 152.547 116.777C151.797 116.465 151.156 116.031 150.625 115.477C150.102 114.922 149.699 114.27 149.418 113.52C149.137 112.77 148.996 111.961 148.996 111.094V110.625C148.996 109.633 149.141 108.734 149.43 107.93C149.719 107.125 150.121 106.438 150.637 105.867C151.152 105.289 151.762 104.848 152.465 104.543C153.168 104.238 153.93 104.086 154.75 104.086C155.656 104.086 156.449 104.238 157.129 104.543C157.809 104.848 158.371 105.277 158.816 105.832C159.27 106.379 159.605 107.031 159.824 107.789C160.051 108.547 160.164 109.383 160.164 110.297V111.504H150.367V109.477H157.375V109.254C157.359 108.746 157.258 108.27 157.07 107.824C156.891 107.379 156.613 107.02 156.238 106.746C155.863 106.473 155.363 106.336 154.738 106.336C154.27 106.336 153.852 106.438 153.484 106.641C153.125 106.836 152.824 107.121 152.582 107.496C152.34 107.871 152.152 108.324 152.02 108.855C151.895 109.379 151.832 109.969 151.832 110.625V111.094C151.832 111.648 151.906 112.164 152.055 112.641C152.211 113.109 152.438 113.52 152.734 113.871C153.031 114.223 153.391 114.5 153.812 114.703C154.234 114.898 154.715 114.996 155.254 114.996C155.934 114.996 156.539 114.859 157.07 114.586C157.602 114.312 158.062 113.926 158.453 113.426L159.941 114.867C159.668 115.266 159.312 115.648 158.875 116.016C158.438 116.375 157.902 116.668 157.27 116.895C156.645 117.121 155.918 117.234 155.09 117.234ZM165.156 99V117H162.344V99H165.156ZM164.664 110.191L163.75 110.18C163.758 109.305 163.879 108.496 164.113 107.754C164.355 107.012 164.691 106.367 165.121 105.82C165.559 105.266 166.082 104.84 166.691 104.543C167.301 104.238 167.977 104.086 168.719 104.086C169.344 104.086 169.906 104.172 170.406 104.344C170.914 104.516 171.352 104.793 171.719 105.176C172.086 105.551 172.363 106.043 172.551 106.652C172.746 107.254 172.844 107.988 172.844 108.855V117H170.008V108.832C170.008 108.223 169.918 107.738 169.738 107.379C169.566 107.02 169.312 106.762 168.977 106.605C168.641 106.441 168.23 106.359 167.746 106.359C167.238 106.359 166.789 106.461 166.398 106.664C166.016 106.867 165.695 107.145 165.438 107.496C165.18 107.848 164.984 108.254 164.852 108.715C164.727 109.176 164.664 109.668 164.664 110.191ZM181.516 104.32V106.383H174.367V104.32H181.516ZM176.43 101.215H179.254V113.496C179.254 113.887 179.309 114.188 179.418 114.398C179.535 114.602 179.695 114.738 179.898 114.809C180.102 114.879 180.34 114.914 180.613 114.914C180.809 114.914 180.996 114.902 181.176 114.879C181.355 114.855 181.5 114.832 181.609 114.809L181.621 116.965C181.387 117.035 181.113 117.098 180.801 117.152C180.496 117.207 180.145 117.234 179.746 117.234C179.098 117.234 178.523 117.121 178.023 116.895C177.523 116.66 177.133 116.281 176.852 115.758C176.57 115.234 176.43 114.539 176.43 113.672V101.215ZM192.895 99.9375V117H189.953V99.9375H192.895ZM203.148 99.9375L196.234 108.152L192.297 112.324L191.781 109.406L194.594 105.938L199.562 99.9375H203.148ZM199.984 117L194.371 108.914L196.398 106.91L203.477 117H199.984ZM207.859 104.32V117H205.023V104.32H207.859ZM204.836 100.992C204.836 100.562 204.977 100.207 205.258 99.9258C205.547 99.6367 205.945 99.4922 206.453 99.4922C206.953 99.4922 207.348 99.6367 207.637 99.9258C207.926 100.207 208.07 100.562 208.07 100.992C208.07 101.414 207.926 101.766 207.637 102.047C207.348 102.328 206.953 102.469 206.453 102.469C205.945 102.469 205.547 102.328 205.258 102.047C204.977 101.766 204.836 101.414 204.836 100.992ZM213.789 106.734V117H210.965V104.32H213.66L213.789 106.734ZM217.668 104.238L217.645 106.863C217.473 106.832 217.285 106.809 217.082 106.793C216.887 106.777 216.691 106.77 216.496 106.77C216.012 106.77 215.586 106.84 215.219 106.98C214.852 107.113 214.543 107.309 214.293 107.566C214.051 107.816 213.863 108.121 213.73 108.48C213.598 108.84 213.52 109.242 213.496 109.688L212.852 109.734C212.852 108.938 212.93 108.199 213.086 107.52C213.242 106.84 213.477 106.242 213.789 105.727C214.109 105.211 214.508 104.809 214.984 104.52C215.469 104.23 216.027 104.086 216.66 104.086C216.832 104.086 217.016 104.102 217.211 104.133C217.414 104.164 217.566 104.199 217.668 104.238ZM219.578 104.32H222.414V118.102C222.414 118.969 222.266 119.699 221.969 120.293C221.672 120.895 221.234 121.348 220.656 121.652C220.078 121.965 219.371 122.121 218.535 122.121C218.285 122.121 218.027 122.102 217.762 122.062C217.488 122.031 217.23 121.984 216.988 121.922L217 119.719C217.164 119.75 217.34 119.773 217.527 119.789C217.707 119.812 217.879 119.824 218.043 119.824C218.379 119.824 218.66 119.766 218.887 119.648C219.113 119.531 219.285 119.348 219.402 119.098C219.52 118.848 219.578 118.516 219.578 118.102V104.32ZM219.332 100.992C219.332 100.562 219.477 100.207 219.766 99.9258C220.055 99.6367 220.449 99.4922 220.949 99.4922C221.457 99.4922 221.852 99.6367 222.133 99.9258C222.422 100.207 222.566 100.562 222.566 100.992C222.566 101.414 222.422 101.766 222.133 102.047C221.852 102.328 221.457 102.469 220.949 102.469C220.449 102.469 220.055 102.328 219.766 102.047C219.477 101.766 219.332 101.414 219.332 100.992ZM232.609 114.457V108.41C232.609 107.957 232.527 107.566 232.363 107.238C232.199 106.91 231.949 106.656 231.613 106.477C231.285 106.297 230.871 106.207 230.371 106.207C229.91 106.207 229.512 106.285 229.176 106.441C228.84 106.598 228.578 106.809 228.391 107.074C228.203 107.34 228.109 107.641 228.109 107.977H225.297C225.297 107.477 225.418 106.992 225.66 106.523C225.902 106.055 226.254 105.637 226.715 105.27C227.176 104.902 227.727 104.613 228.367 104.402C229.008 104.191 229.727 104.086 230.523 104.086C231.477 104.086 232.32 104.246 233.055 104.566C233.797 104.887 234.379 105.371 234.801 106.02C235.23 106.66 235.445 107.465 235.445 108.434V114.07C235.445 114.648 235.484 115.168 235.562 115.629C235.648 116.082 235.77 116.477 235.926 116.812V117H233.031C232.898 116.695 232.793 116.309 232.715 115.84C232.645 115.363 232.609 114.902 232.609 114.457ZM233.02 109.289L233.043 111.035H231.016C230.492 111.035 230.031 111.086 229.633 111.188C229.234 111.281 228.902 111.422 228.637 111.609C228.371 111.797 228.172 112.023 228.039 112.289C227.906 112.555 227.84 112.855 227.84 113.191C227.84 113.527 227.918 113.836 228.074 114.117C228.23 114.391 228.457 114.605 228.754 114.762C229.059 114.918 229.426 114.996 229.855 114.996C230.434 114.996 230.938 114.879 231.367 114.645C231.805 114.402 232.148 114.109 232.398 113.766C232.648 113.414 232.781 113.082 232.797 112.77L233.711 114.023C233.617 114.344 233.457 114.688 233.23 115.055C233.004 115.422 232.707 115.773 232.34 116.109C231.98 116.438 231.547 116.707 231.039 116.918C230.539 117.129 229.961 117.234 229.305 117.234C228.477 117.234 227.738 117.07 227.09 116.742C226.441 116.406 225.934 115.957 225.566 115.395C225.199 114.824 225.016 114.18 225.016 113.461C225.016 112.789 225.141 112.195 225.391 111.68C225.648 111.156 226.023 110.719 226.516 110.367C227.016 110.016 227.625 109.75 228.344 109.57C229.062 109.383 229.883 109.289 230.805 109.289H233.02ZM245.512 113.566C245.512 113.285 245.441 113.031 245.301 112.805C245.16 112.57 244.891 112.359 244.492 112.172C244.102 111.984 243.523 111.812 242.758 111.656C242.086 111.508 241.469 111.332 240.906 111.129C240.352 110.918 239.875 110.664 239.477 110.367C239.078 110.07 238.77 109.719 238.551 109.312C238.332 108.906 238.223 108.438 238.223 107.906C238.223 107.391 238.336 106.902 238.562 106.441C238.789 105.98 239.113 105.574 239.535 105.223C239.957 104.871 240.469 104.594 241.07 104.391C241.68 104.188 242.359 104.086 243.109 104.086C244.172 104.086 245.082 104.266 245.84 104.625C246.605 104.977 247.191 105.457 247.598 106.066C248.004 106.668 248.207 107.348 248.207 108.105H245.383C245.383 107.77 245.297 107.457 245.125 107.168C244.961 106.871 244.711 106.633 244.375 106.453C244.039 106.266 243.617 106.172 243.109 106.172C242.625 106.172 242.223 106.25 241.902 106.406C241.59 106.555 241.355 106.75 241.199 106.992C241.051 107.234 240.977 107.5 240.977 107.789C240.977 108 241.016 108.191 241.094 108.363C241.18 108.527 241.32 108.68 241.516 108.82C241.711 108.953 241.977 109.078 242.312 109.195C242.656 109.312 243.086 109.426 243.602 109.535C244.57 109.738 245.402 110 246.098 110.32C246.801 110.633 247.34 111.039 247.715 111.539C248.09 112.031 248.277 112.656 248.277 113.414C248.277 113.977 248.156 114.492 247.914 114.961C247.68 115.422 247.336 115.824 246.883 116.168C246.43 116.504 245.887 116.766 245.254 116.953C244.629 117.141 243.926 117.234 243.145 117.234C241.996 117.234 241.023 117.031 240.227 116.625C239.43 116.211 238.824 115.684 238.41 115.043C238.004 114.395 237.801 113.723 237.801 113.027H240.531C240.562 113.551 240.707 113.969 240.965 114.281C241.23 114.586 241.559 114.809 241.949 114.949C242.348 115.082 242.758 115.148 243.18 115.148C243.688 115.148 244.113 115.082 244.457 114.949C244.801 114.809 245.062 114.621 245.242 114.387C245.422 114.145 245.512 113.871 245.512 113.566ZM256.562 104.32V106.383H249.414V104.32H256.562ZM251.477 101.215H254.301V113.496C254.301 113.887 254.355 114.188 254.465 114.398C254.582 114.602 254.742 114.738 254.945 114.809C255.148 114.879 255.387 114.914 255.66 114.914C255.855 114.914 256.043 114.902 256.223 114.879C256.402 114.855 256.547 114.832 256.656 114.809L256.668 116.965C256.434 117.035 256.16 117.098 255.848 117.152C255.543 117.207 255.191 117.234 254.793 117.234C254.145 117.234 253.57 117.121 253.07 116.895C252.57 116.66 252.18 116.281 251.898 115.758C251.617 115.234 251.477 114.539 251.477 113.672V101.215ZM266.371 114.012V104.32H269.207V117H266.535L266.371 114.012ZM266.77 111.375L267.719 111.352C267.719 112.203 267.625 112.988 267.438 113.707C267.25 114.418 266.961 115.039 266.57 115.57C266.18 116.094 265.68 116.504 265.07 116.801C264.461 117.09 263.73 117.234 262.879 117.234C262.262 117.234 261.695 117.145 261.18 116.965C260.664 116.785 260.219 116.508 259.844 116.133C259.477 115.758 259.191 115.27 258.988 114.668C258.785 114.066 258.684 113.348 258.684 112.512V104.32H261.508V112.535C261.508 112.996 261.562 113.383 261.672 113.695C261.781 114 261.93 114.246 262.117 114.434C262.305 114.621 262.523 114.754 262.773 114.832C263.023 114.91 263.289 114.949 263.57 114.949C264.375 114.949 265.008 114.793 265.469 114.48C265.938 114.16 266.27 113.73 266.465 113.191C266.668 112.652 266.77 112.047 266.77 111.375ZM279.215 113.566C279.215 113.285 279.145 113.031 279.004 112.805C278.863 112.57 278.594 112.359 278.195 112.172C277.805 111.984 277.227 111.812 276.461 111.656C275.789 111.508 275.172 111.332 274.609 111.129C274.055 110.918 273.578 110.664 273.18 110.367C272.781 110.07 272.473 109.719 272.254 109.312C272.035 108.906 271.926 108.438 271.926 107.906C271.926 107.391 272.039 106.902 272.266 106.441C272.492 105.98 272.816 105.574 273.238 105.223C273.66 104.871 274.172 104.594 274.773 104.391C275.383 104.188 276.062 104.086 276.812 104.086C277.875 104.086 278.785 104.266 279.543 104.625C280.309 104.977 280.895 105.457 281.301 106.066C281.707 106.668 281.91 107.348 281.91 108.105H279.086C279.086 107.77 279 107.457 278.828 107.168C278.664 106.871 278.414 106.633 278.078 106.453C277.742 106.266 277.32 106.172 276.812 106.172C276.328 106.172 275.926 106.25 275.605 106.406C275.293 106.555 275.059 106.75 274.902 106.992C274.754 107.234 274.68 107.5 274.68 107.789C274.68 108 274.719 108.191 274.797 108.363C274.883 108.527 275.023 108.68 275.219 108.82C275.414 108.953 275.68 109.078 276.016 109.195C276.359 109.312 276.789 109.426 277.305 109.535C278.273 109.738 279.105 110 279.801 110.32C280.504 110.633 281.043 111.039 281.418 111.539C281.793 112.031 281.98 112.656 281.98 113.414C281.98 113.977 281.859 114.492 281.617 114.961C281.383 115.422 281.039 115.824 280.586 116.168C280.133 116.504 279.59 116.766 278.957 116.953C278.332 117.141 277.629 117.234 276.848 117.234C275.699 117.234 274.727 117.031 273.93 116.625C273.133 116.211 272.527 115.684 272.113 115.043C271.707 114.395 271.504 113.723 271.504 113.027H274.234C274.266 113.551 274.41 113.969 274.668 114.281C274.934 114.586 275.262 114.809 275.652 114.949C276.051 115.082 276.461 115.148 276.883 115.148C277.391 115.148 277.816 115.082 278.16 114.949C278.504 114.809 278.766 114.621 278.945 114.387C279.125 114.145 279.215 113.871 279.215 113.566ZM290.043 117.234C289.105 117.234 288.258 117.082 287.5 116.777C286.75 116.465 286.109 116.031 285.578 115.477C285.055 114.922 284.652 114.27 284.371 113.52C284.09 112.77 283.949 111.961 283.949 111.094V110.625C283.949 109.633 284.094 108.734 284.383 107.93C284.672 107.125 285.074 106.438 285.59 105.867C286.105 105.289 286.715 104.848 287.418 104.543C288.121 104.238 288.883 104.086 289.703 104.086C290.609 104.086 291.402 104.238 292.082 104.543C292.762 104.848 293.324 105.277 293.77 105.832C294.223 106.379 294.559 107.031 294.777 107.789C295.004 108.547 295.117 109.383 295.117 110.297V111.504H285.32V109.477H292.328V109.254C292.312 108.746 292.211 108.27 292.023 107.824C291.844 107.379 291.566 107.02 291.191 106.746C290.816 106.473 290.316 106.336 289.691 106.336C289.223 106.336 288.805 106.438 288.438 106.641C288.078 106.836 287.777 107.121 287.535 107.496C287.293 107.871 287.105 108.324 286.973 108.855C286.848 109.379 286.785 109.969 286.785 110.625V111.094C286.785 111.648 286.859 112.164 287.008 112.641C287.164 113.109 287.391 113.52 287.688 113.871C287.984 114.223 288.344 114.5 288.766 114.703C289.188 114.898 289.668 114.996 290.207 114.996C290.887 114.996 291.492 114.859 292.023 114.586C292.555 114.312 293.016 113.926 293.406 113.426L294.895 114.867C294.621 115.266 294.266 115.648 293.828 116.016C293.391 116.375 292.855 116.668 292.223 116.895C291.598 117.121 290.871 117.234 290.043 117.234ZM311.031 114.375V99H313.867V117H311.301L311.031 114.375ZM302.781 110.801V110.555C302.781 109.594 302.895 108.719 303.121 107.93C303.348 107.133 303.676 106.449 304.105 105.879C304.535 105.301 305.059 104.859 305.676 104.555C306.293 104.242 306.988 104.086 307.762 104.086C308.527 104.086 309.199 104.234 309.777 104.531C310.355 104.828 310.848 105.254 311.254 105.809C311.66 106.355 311.984 107.012 312.227 107.777C312.469 108.535 312.641 109.379 312.742 110.309V111.094C312.641 112 312.469 112.828 312.227 113.578C311.984 114.328 311.66 114.977 311.254 115.523C310.848 116.07 310.352 116.492 309.766 116.789C309.188 117.086 308.512 117.234 307.738 117.234C306.973 117.234 306.281 117.074 305.664 116.754C305.055 116.434 304.535 115.984 304.105 115.406C303.676 114.828 303.348 114.148 303.121 113.367C302.895 112.578 302.781 111.723 302.781 110.801ZM305.605 110.555V110.801C305.605 111.379 305.656 111.918 305.758 112.418C305.867 112.918 306.035 113.359 306.262 113.742C306.488 114.117 306.781 114.414 307.141 114.633C307.508 114.844 307.945 114.949 308.453 114.949C309.094 114.949 309.621 114.809 310.035 114.527C310.449 114.246 310.773 113.867 311.008 113.391C311.25 112.906 311.414 112.367 311.5 111.773V109.652C311.453 109.191 311.355 108.762 311.207 108.363C311.066 107.965 310.875 107.617 310.633 107.32C310.391 107.016 310.09 106.781 309.73 106.617C309.379 106.445 308.961 106.359 308.477 106.359C307.961 106.359 307.523 106.469 307.164 106.688C306.805 106.906 306.508 107.207 306.273 107.59C306.047 107.973 305.879 108.418 305.77 108.926C305.66 109.434 305.605 109.977 305.605 110.555ZM319.844 104.32V117H317.008V104.32H319.844ZM316.82 100.992C316.82 100.562 316.961 100.207 317.242 99.9258C317.531 99.6367 317.93 99.4922 318.438 99.4922C318.938 99.4922 319.332 99.6367 319.621 99.9258C319.91 100.207 320.055 100.562 320.055 100.992C320.055 101.414 319.91 101.766 319.621 102.047C319.332 102.328 318.938 102.469 318.438 102.469C317.93 102.469 317.531 102.328 317.242 102.047C316.961 101.766 316.82 101.414 316.82 100.992ZM331.059 104.32H333.625V116.648C333.625 117.789 333.383 118.758 332.898 119.555C332.414 120.352 331.738 120.957 330.871 121.371C330.004 121.793 329 122.004 327.859 122.004C327.375 122.004 326.836 121.934 326.242 121.793C325.656 121.652 325.086 121.426 324.531 121.113C323.984 120.809 323.527 120.406 323.16 119.906L324.484 118.242C324.938 118.781 325.438 119.176 325.984 119.426C326.531 119.676 327.105 119.801 327.707 119.801C328.355 119.801 328.906 119.68 329.359 119.438C329.82 119.203 330.176 118.855 330.426 118.395C330.676 117.934 330.801 117.371 330.801 116.707V107.191L331.059 104.32ZM322.445 110.801V110.555C322.445 109.594 322.562 108.719 322.797 107.93C323.031 107.133 323.367 106.449 323.805 105.879C324.242 105.301 324.773 104.859 325.398 104.555C326.023 104.242 326.73 104.086 327.52 104.086C328.34 104.086 329.039 104.234 329.617 104.531C330.203 104.828 330.691 105.254 331.082 105.809C331.473 106.355 331.777 107.012 331.996 107.777C332.223 108.535 332.391 109.379 332.5 110.309V111.094C332.398 112 332.227 112.828 331.984 113.578C331.742 114.328 331.422 114.977 331.023 115.523C330.625 116.07 330.133 116.492 329.547 116.789C328.969 117.086 328.285 117.234 327.496 117.234C326.723 117.234 326.023 117.074 325.398 116.754C324.781 116.434 324.25 115.984 323.805 115.406C323.367 114.828 323.031 114.148 322.797 113.367C322.562 112.578 322.445 111.723 322.445 110.801ZM325.27 110.555V110.801C325.27 111.379 325.324 111.918 325.434 112.418C325.551 112.918 325.727 113.359 325.961 113.742C326.203 114.117 326.508 114.414 326.875 114.633C327.25 114.844 327.691 114.949 328.199 114.949C328.863 114.949 329.406 114.809 329.828 114.527C330.258 114.246 330.586 113.867 330.812 113.391C331.047 112.906 331.211 112.367 331.305 111.773V109.652C331.258 109.191 331.16 108.762 331.012 108.363C330.871 107.965 330.68 107.617 330.438 107.32C330.195 107.016 329.891 106.781 329.523 106.617C329.156 106.445 328.723 106.359 328.223 106.359C327.715 106.359 327.273 106.469 326.898 106.688C326.523 106.906 326.215 107.207 325.973 107.59C325.738 107.973 325.562 108.418 325.445 108.926C325.328 109.434 325.27 109.977 325.27 110.555ZM339.578 104.32V117H336.742V104.32H339.578ZM336.555 100.992C336.555 100.562 336.695 100.207 336.977 99.9258C337.266 99.6367 337.664 99.4922 338.172 99.4922C338.672 99.4922 339.066 99.6367 339.355 99.9258C339.645 100.207 339.789 100.562 339.789 100.992C339.789 101.414 339.645 101.766 339.355 102.047C339.066 102.328 338.672 102.469 338.172 102.469C337.664 102.469 337.266 102.328 336.977 102.047C336.695 101.766 336.555 101.414 336.555 100.992ZM345.508 106.758V121.875H342.684V104.32H345.285L345.508 106.758ZM353.77 110.543V110.789C353.77 111.711 353.66 112.566 353.441 113.355C353.23 114.137 352.914 114.82 352.492 115.406C352.078 115.984 351.566 116.434 350.957 116.754C350.348 117.074 349.645 117.234 348.848 117.234C348.059 117.234 347.367 117.09 346.773 116.801C346.188 116.504 345.691 116.086 345.285 115.547C344.879 115.008 344.551 114.375 344.301 113.648C344.059 112.914 343.887 112.109 343.785 111.234V110.285C343.887 109.355 344.059 108.512 344.301 107.754C344.551 106.996 344.879 106.344 345.285 105.797C345.691 105.25 346.188 104.828 346.773 104.531C347.359 104.234 348.043 104.086 348.824 104.086C349.621 104.086 350.328 104.242 350.945 104.555C351.562 104.859 352.082 105.297 352.504 105.867C352.926 106.43 353.242 107.109 353.453 107.906C353.664 108.695 353.77 109.574 353.77 110.543ZM350.945 110.789V110.543C350.945 109.957 350.891 109.414 350.781 108.914C350.672 108.406 350.5 107.961 350.266 107.578C350.031 107.195 349.73 106.898 349.363 106.688C349.004 106.469 348.57 106.359 348.062 106.359C347.562 106.359 347.133 106.445 346.773 106.617C346.414 106.781 346.113 107.012 345.871 107.309C345.629 107.605 345.441 107.953 345.309 108.352C345.176 108.742 345.082 109.168 345.027 109.629V111.902C345.121 112.465 345.281 112.98 345.508 113.449C345.734 113.918 346.055 114.293 346.469 114.574C346.891 114.848 347.43 114.984 348.086 114.984C348.594 114.984 349.027 114.875 349.387 114.656C349.746 114.438 350.039 114.137 350.266 113.754C350.5 113.363 350.672 112.914 350.781 112.406C350.891 111.898 350.945 111.359 350.945 110.789ZM363.32 114.457V108.41C363.32 107.957 363.238 107.566 363.074 107.238C362.91 106.91 362.66 106.656 362.324 106.477C361.996 106.297 361.582 106.207 361.082 106.207C360.621 106.207 360.223 106.285 359.887 106.441C359.551 106.598 359.289 106.809 359.102 107.074C358.914 107.34 358.82 107.641 358.82 107.977H356.008C356.008 107.477 356.129 106.992 356.371 106.523C356.613 106.055 356.965 105.637 357.426 105.27C357.887 104.902 358.438 104.613 359.078 104.402C359.719 104.191 360.438 104.086 361.234 104.086C362.188 104.086 363.031 104.246 363.766 104.566C364.508 104.887 365.09 105.371 365.512 106.02C365.941 106.66 366.156 107.465 366.156 108.434V114.07C366.156 114.648 366.195 115.168 366.273 115.629C366.359 116.082 366.48 116.477 366.637 116.812V117H363.742C363.609 116.695 363.504 116.309 363.426 115.84C363.355 115.363 363.32 114.902 363.32 114.457ZM363.73 109.289L363.754 111.035H361.727C361.203 111.035 360.742 111.086 360.344 111.188C359.945 111.281 359.613 111.422 359.348 111.609C359.082 111.797 358.883 112.023 358.75 112.289C358.617 112.555 358.551 112.855 358.551 113.191C358.551 113.527 358.629 113.836 358.785 114.117C358.941 114.391 359.168 114.605 359.465 114.762C359.77 114.918 360.137 114.996 360.566 114.996C361.145 114.996 361.648 114.879 362.078 114.645C362.516 114.402 362.859 114.109 363.109 113.766C363.359 113.414 363.492 113.082 363.508 112.77L364.422 114.023C364.328 114.344 364.168 114.688 363.941 115.055C363.715 115.422 363.418 115.773 363.051 116.109C362.691 116.438 362.258 116.707 361.75 116.918C361.25 117.129 360.672 117.234 360.016 117.234C359.188 117.234 358.449 117.07 357.801 116.742C357.152 116.406 356.645 115.957 356.277 115.395C355.91 114.824 355.727 114.18 355.727 113.461C355.727 112.789 355.852 112.195 356.102 111.68C356.359 111.156 356.734 110.719 357.227 110.367C357.727 110.016 358.336 109.75 359.055 109.57C359.773 109.383 360.594 109.289 361.516 109.289H363.73ZM371.957 99V117H369.121V99H371.957ZM379.832 104.32L374.312 110.438L371.289 113.531L370.551 111.141L372.836 108.316L376.422 104.32H379.832ZM377.031 117L372.918 111.047L374.699 109.066L380.301 117H377.031ZM386.98 117.234C386.043 117.234 385.195 117.082 384.438 116.777C383.688 116.465 383.047 116.031 382.516 115.477C381.992 114.922 381.59 114.27 381.309 113.52C381.027 112.77 380.887 111.961 380.887 111.094V110.625C380.887 109.633 381.031 108.734 381.32 107.93C381.609 107.125 382.012 106.438 382.527 105.867C383.043 105.289 383.652 104.848 384.355 104.543C385.059 104.238 385.82 104.086 386.641 104.086C387.547 104.086 388.34 104.238 389.02 104.543C389.699 104.848 390.262 105.277 390.707 105.832C391.16 106.379 391.496 107.031 391.715 107.789C391.941 108.547 392.055 109.383 392.055 110.297V111.504H382.258V109.477H389.266V109.254C389.25 108.746 389.148 108.27 388.961 107.824C388.781 107.379 388.504 107.02 388.129 106.746C387.754 106.473 387.254 106.336 386.629 106.336C386.16 106.336 385.742 106.438 385.375 106.641C385.016 106.836 384.715 107.121 384.473 107.496C384.23 107.871 384.043 108.324 383.91 108.855C383.785 109.379 383.723 109.969 383.723 110.625V111.094C383.723 111.648 383.797 112.164 383.945 112.641C384.102 113.109 384.328 113.52 384.625 113.871C384.922 114.223 385.281 114.5 385.703 114.703C386.125 114.898 386.605 114.996 387.145 114.996C387.824 114.996 388.43 114.859 388.961 114.586C389.492 114.312 389.953 113.926 390.344 113.426L391.832 114.867C391.559 115.266 391.203 115.648 390.766 116.016C390.328 116.375 389.793 116.668 389.16 116.895C388.535 117.121 387.809 117.234 386.98 117.234ZM400.07 104.32V106.383H392.922V104.32H400.07ZM394.984 101.215H397.809V113.496C397.809 113.887 397.863 114.188 397.973 114.398C398.09 114.602 398.25 114.738 398.453 114.809C398.656 114.879 398.895 114.914 399.168 114.914C399.363 114.914 399.551 114.902 399.73 114.879C399.91 114.855 400.055 114.832 400.164 114.809L400.176 116.965C399.941 117.035 399.668 117.098 399.355 117.152C399.051 117.207 398.699 117.234 398.301 117.234C397.652 117.234 397.078 117.121 396.578 116.895C396.078 116.66 395.688 116.281 395.406 115.758C395.125 115.234 394.984 114.539 394.984 113.672V101.215ZM408.062 104.32V106.383H400.914V104.32H408.062ZM402.977 101.215H405.801V113.496C405.801 113.887 405.855 114.188 405.965 114.398C406.082 114.602 406.242 114.738 406.445 114.809C406.648 114.879 406.887 114.914 407.16 114.914C407.355 114.914 407.543 114.902 407.723 114.879C407.902 114.855 408.047 114.832 408.156 114.809L408.168 116.965C407.934 117.035 407.66 117.098 407.348 117.152C407.043 117.207 406.691 117.234 406.293 117.234C405.645 117.234 405.07 117.121 404.57 116.895C404.07 116.66 403.68 116.281 403.398 115.758C403.117 115.234 402.977 114.539 402.977 113.672V101.215ZM413.5 99.9375L413.219 111.973H410.805L410.512 99.9375H413.5ZM410.43 115.664C410.43 115.234 410.57 114.875 410.852 114.586C411.141 114.289 411.539 114.141 412.047 114.141C412.547 114.141 412.941 114.289 413.23 114.586C413.52 114.875 413.664 115.234 413.664 115.664C413.664 116.078 413.52 116.434 413.23 116.73C412.941 117.02 412.547 117.164 412.047 117.164C411.539 117.164 411.141 117.02 410.852 116.73C410.57 116.434 410.43 116.078 410.43 115.664Z" fill="white"/>
<path d="M58.88 160.54C62.6133 160.54 65.84 161.233 68.56 162.62C71.28 163.953 73.3333 165.793 74.72 168.14C76.16 170.433 76.88 172.993 76.88 175.82C76.88 178.753 76.24 181.58 74.96 184.3C73.7333 187.02 71.6 190.087 68.56 193.5C65.5733 196.913 61.2 201.313 55.44 206.7H78.08L76.8 215.5H42.48V207.26C49.2 200.54 54.0533 195.527 57.04 192.22C60.0267 188.913 62.1333 186.113 63.36 183.82C64.5867 181.527 65.2 179.18 65.2 176.78C65.2 174.487 64.5333 172.673 63.2 171.34C61.8667 170.007 60.08 169.34 57.84 169.34C55.8667 169.34 54.1067 169.793 52.56 170.7C51.0133 171.553 49.3867 172.993 47.68 175.02L40.88 169.58C45.4667 163.553 51.4667 160.54 58.88 160.54ZM119.989 197.66C120.735 201.34 122.095 204.033 124.069 205.74C126.095 207.447 128.789 208.3 132.149 208.3C135.722 208.3 139.562 207.18 143.669 204.94V213.74C141.482 214.753 139.402 215.5 137.429 215.98C135.455 216.513 133.295 216.78 130.949 216.78C124.922 216.78 119.962 215.127 116.069 211.82C112.229 208.46 109.695 203.74 108.469 197.66H101.509L103.109 191.5H108.149V185.5H101.509L103.109 179.26H108.549C110.042 173.447 112.815 168.887 116.869 165.58C120.975 162.22 125.802 160.54 131.349 160.54C136.895 160.54 141.909 162.06 146.389 165.1L142.309 172.14C140.602 171.02 138.922 170.22 137.269 169.74C135.615 169.207 133.775 168.94 131.749 168.94C128.975 168.94 126.602 169.793 124.629 171.5C122.655 173.207 121.189 175.793 120.229 179.26H139.829L138.229 185.5H119.669V191.5H136.949L135.429 197.66H119.989Z" fill="#FFE80D"/>
<path d="M175.08 177.89C176.48 177.89 177.69 178.15 178.71 178.67C179.73 179.17 180.5 179.86 181.02 180.74C181.56 181.6 181.83 182.56 181.83 183.62C181.83 184.72 181.59 185.78 181.11 186.8C180.65 187.82 179.85 188.97 178.71 190.25C177.59 191.53 175.95 193.18 173.79 195.2H182.28L181.8 198.5H168.93V195.41C171.45 192.89 173.27 191.01 174.39 189.77C175.51 188.53 176.3 187.48 176.76 186.62C177.22 185.76 177.45 184.88 177.45 183.98C177.45 183.12 177.2 182.44 176.7 181.94C176.2 181.44 175.53 181.19 174.69 181.19C173.95 181.19 173.29 181.36 172.71 181.7C172.13 182.02 171.52 182.56 170.88 183.32L168.33 181.28C170.05 179.02 172.3 177.89 175.08 177.89ZM197.036 175.79V198.5H192.776V176.27L197.036 175.79ZM206.696 182.6L201.626 189.59L207.146 198.5H202.316L197.186 189.8L202.286 182.6H206.696ZM221.821 198.5H218.131L217.921 196.37C217.361 197.25 216.681 197.91 215.881 198.35C215.081 198.77 214.151 198.98 213.091 198.98C211.651 198.98 210.551 198.55 209.791 197.69C209.031 196.81 208.651 195.59 208.651 194.03V182.6H212.911V193.49C212.911 194.33 213.051 194.93 213.331 195.29C213.611 195.63 214.051 195.8 214.651 195.8C215.791 195.8 216.761 195.11 217.561 193.73V182.6H221.821V198.5ZM239.048 198.5H235.358L235.148 196.37C234.588 197.25 233.908 197.91 233.108 198.35C232.308 198.77 231.378 198.98 230.318 198.98C228.878 198.98 227.778 198.55 227.018 197.69C226.258 196.81 225.878 195.59 225.878 194.03V182.6H230.138V193.49C230.138 194.33 230.278 194.93 230.558 195.29C230.838 195.63 231.278 195.8 231.878 195.8C233.018 195.8 233.988 195.11 234.788 193.73V182.6H239.048V198.5ZM257.024 176.27V198.5H253.274L253.034 196.55C251.914 198.17 250.394 198.98 248.474 198.98C246.514 198.98 245.014 198.23 243.974 196.73C242.954 195.21 242.444 193.15 242.444 190.55C242.444 188.91 242.704 187.46 243.224 186.2C243.764 184.92 244.524 183.92 245.504 183.2C246.484 182.48 247.614 182.12 248.894 182.12C250.374 182.12 251.664 182.65 252.764 183.71V175.79L257.024 176.27ZM249.734 195.8C250.354 195.8 250.904 195.65 251.384 195.35C251.864 195.03 252.324 194.54 252.764 193.88V186.77C252.344 186.27 251.914 185.9 251.474 185.66C251.054 185.4 250.564 185.27 250.004 185.27C249.024 185.27 248.254 185.7 247.694 186.56C247.154 187.42 246.884 188.75 246.884 190.55C246.884 192.45 247.124 193.8 247.604 194.6C248.104 195.4 248.814 195.8 249.734 195.8Z" fill="white"/>
<rect x="398" y="156" width="162" height="64" rx="16" fill="#AF0510"/>
<path d="M447.248 176.824L446.736 180.856H441.264V199H436.016V180.856H430.288V176.824H447.248ZM462.961 176.824L462.417 180.568H454.609V185.88H461.425V189.56H454.609V195.224H462.961V199H449.361V176.824H462.961ZM471.453 176.824V194.84H480.093L479.549 199H466.205V176.824H471.453ZM487.859 176.824V194.84H496.499L495.955 199H482.611V176.824H487.859ZM504.265 176.824V199H499.017V176.824H504.265ZM525.48 199H518.792L512.392 181.816C512.606 183.501 512.766 184.995 512.872 186.296C513 187.576 513.064 189.101 513.064 190.872V199H508.392V176.824H514.92L521.48 194.04C521.011 191.117 520.776 188.365 520.776 185.784V176.824H525.48V199Z" fill="#FFE80D"/>
</svg>
