<svg width="600" height="100" viewBox="0 0 600 100" fill="none" xmlns="http://www.w3.org/2000/svg">
<path d="M4 16C4 9.37259 9.37258 4 16 4H584C590.627 4 596 9.37258 596 16V84C596 90.6274 590.627 96 584 96H16C9.37259 96 4 90.6274 4 84V16Z" fill="#013216" fill-opacity="0.75"/>
<path d="M421.365 49.024L424.896 38.4199L409.695 41.6807C408.984 43.8321 408.099 46.4797 407.251 49.024H400.75C400.594 49.3956 400.528 49.7779 400.528 50.1887C400.528 52.1818 401.875 53.8442 404.15 54.5288C404.463 54.6231 404.863 54.7066 405.331 54.7795L404.717 56.6268C403.184 61.2177 402.546 64.5266 402.546 66.3953C402.546 71.1694 405.494 73.9964 410.147 73.9964C412.45 73.9964 414.582 73.2924 417.746 70.7391C417.006 69.242 416.658 67.7076 416.658 65.3125C416.658 63.9061 417.051 61.968 417.746 59.8806C418.162 58.6466 418.724 56.9434 419.379 54.9982H424.007L426 49.024H421.365Z" fill="white"/>
<path d="M392.968 48.4764C388.446 48.4764 382.358 52.6014 381.967 53.3108L388.46 33.8183L373.537 37.0756L361.593 72.9099H375.438L379.782 59.8805C380.918 56.4596 381.946 55.5403 383.571 55.5386H383.581C385.159 55.5386 385.745 57.0091 384.711 60.0993C384.497 60.7482 383.768 62.9334 383.148 64.8004C382.532 66.6513 382.376 67.5349 382.376 68.7672C382.376 71.6493 384.426 73.9998 388.548 73.9998C390.961 73.9998 394.444 72.8157 396.858 70.858C396.353 69.8304 396.086 68.472 396.086 66.95C396.086 66.0966 396.41 64.4821 397.431 61.4149C398.705 57.5923 398.94 56.0596 398.94 54.4558C398.94 50.354 397.129 48.4764 392.968 48.4764Z" fill="white"/>
<path d="M348.568 69.6491C345.062 69.6491 343.822 68.4027 344.465 64.7703H346.757C357.599 64.7703 364.501 61.1662 364.501 54.8863C364.501 51.1844 361.312 47.9342 352.546 47.9342C337.984 47.9342 331.381 55.4001 331.381 64.7703C331.381 70.2643 335.404 73.9964 343.864 73.9964C350.157 73.9964 355.393 72.4513 358.988 69.6385L358.179 67.416C354.289 69.1905 351.99 69.6491 348.568 69.6491ZM345.493 60.9706C348.106 53.2568 349.132 52.2778 351.1 52.2778C352.729 52.2778 353.195 54.1234 352.004 57.7097C351.209 60.0886 347.996 62.0551 345.146 62.0551C345.253 61.7067 345.367 61.3429 345.493 60.9706Z" fill="white"/>
<path d="M337.138 33.8183L321.937 37.0756L315.423 56.6267C313.891 61.2176 313.252 64.5265 313.252 66.3952C313.252 71.1693 316.2 73.9963 320.851 73.9963C323.15 73.9963 325.296 73.2923 328.452 70.7391C327.712 69.2419 327.369 67.7075 327.369 65.3125C327.369 63.9061 327.754 61.9679 328.452 59.8805L337.138 33.8183Z" fill="white"/>
<path d="M313.536 49.024H299.97L296.714 58.796C294.031 66.8291 293.318 67.4782 291.284 67.4782C289.853 67.4782 289.252 65.9793 291.284 59.8806C292.082 57.4838 293.423 53.3269 294.858 49.024H281.3L278.768 56.6268C277.239 61.2177 276.626 64.5266 276.626 66.3953C276.626 71.1694 279.578 73.9964 284.227 73.9964C287.449 73.9964 291.339 71.8131 294.013 70.1809C295.08 72.5527 297.059 74 300.193 74C302.487 74 306.408 73.2924 309.553 70.7392C308.949 69.514 308.581 68.2321 308.581 66.1287C308.581 64.2565 309.007 62.7309 309.592 60.9707C310.394 58.5686 312.117 53.3268 313.536 49.024Z" fill="white"/>
<path d="M278.872 49.024H274.237L277.772 38.4199L262.574 41.6807L260.123 49.024H253.622C253.472 49.3956 253.4 49.7779 253.4 50.1887C253.407 52.1818 254.751 53.8442 257.021 54.5288C257.335 54.6231 257.735 54.7066 258.206 54.7795C257.969 55.4836 257.762 56.1094 257.594 56.6268C256.056 61.2177 255.425 64.5266 255.425 66.3953C255.425 71.1694 258.366 73.9964 263.023 73.9964C265.322 73.9964 267.461 73.2924 270.622 70.7391C269.879 69.242 269.534 67.7076 269.534 65.3125C269.534 63.9061 269.927 61.968 270.622 59.8806C271.034 58.6466 271.596 56.9434 272.251 54.9982H276.878L278.872 49.024Z" fill="white"/>
<path d="M245.683 48.4764C241.158 48.4764 235.068 52.6014 234.686 53.3108L241.18 33.8183L226.248 37.0756L214.308 72.9099H228.147L232.49 59.8805C233.634 56.4596 234.658 55.5403 236.283 55.5386C237.864 55.5369 238.461 57.0091 237.43 60.0993C237.211 60.7482 236.48 62.9334 235.86 64.8004C235.237 66.6513 235.088 67.5349 235.088 68.7672C235.088 71.6493 237.142 73.9998 241.256 73.9998C243.672 73.9998 247.156 72.8157 249.566 70.858C249.06 69.8304 248.791 68.472 248.791 66.95C248.791 66.0966 249.122 64.4821 250.146 61.4149C251.414 57.5923 251.657 56.0596 251.657 54.4558C251.657 50.354 249.844 48.4764 245.683 48.4764Z" fill="white"/>
<path d="M201.796 35.991C187.679 35.991 174 44.5417 174 60.8284C174 68.8295 181.331 73.9999 189.131 73.9999C203.247 73.9999 216.929 65.4476 216.929 49.1645C216.929 41.1598 209.595 35.991 201.796 35.991ZM198.871 54.9982C194.761 67.3288 193.599 68.7192 190.888 68.7192C188.61 68.7192 187.926 67.3288 192.04 54.9982C196.153 42.6586 197.326 41.2665 200.034 41.2665C202.317 41.2665 202.984 42.6586 198.871 54.9982Z" fill="white"/>
<path d="M201.796 32.3352C206.417 32.3352 210.811 33.8481 214.178 36.5916C214.331 36.7233 214.481 36.8603 214.637 36.9882C217.067 35.7685 218.787 33.6687 218.787 29.8903C218.787 28.5906 218.006 26.7948 217.027 26C216.239 26.5903 215.426 27.001 214.169 27.3798C213.426 27.5984 212.407 27.7176 211.307 27.7176H194.576C192.152 27.7176 190.404 27.938 189.426 28.2296C186.477 29.1186 185.397 30.6637 185.397 32.6088C185.397 33.8979 185.835 34.9879 186.534 35.6724C191.085 33.4978 196.32 32.3352 201.796 32.3352Z" fill="white"/>
</svg>
