<svg width="600" height="100" viewBox="0 0 600 100" fill="none" xmlns="http://www.w3.org/2000/svg">
<path d="M4 16C4 9.37259 9.37258 4 16 4H584C590.627 4 596 9.37258 596 16V84C596 90.6274 590.627 96 584 96H16C9.37259 96 4 90.6274 4 84V16Z" fill="#013216" fill-opacity="0.75"/>
<path d="M119.829 31.8636C119.829 34.3485 119.374 36.4848 118.465 38.2727C117.556 40.053 116.31 41.4242 114.727 42.3864C113.151 43.3409 111.359 43.8182 109.352 43.8182C107.337 43.8182 105.537 43.3409 103.954 42.3864C102.378 41.4242 101.136 40.0492 100.227 38.2614C99.3176 36.4735 98.8631 34.3409 98.8631 31.8636C98.8631 29.3788 99.3176 27.2462 100.227 25.4659C101.136 23.678 102.378 22.3068 103.954 21.3523C105.537 20.3902 107.337 19.9091 109.352 19.9091C111.359 19.9091 113.151 20.3902 114.727 21.3523C116.31 22.3068 117.556 23.678 118.465 25.4659C119.374 27.2462 119.829 29.3788 119.829 31.8636ZM116.352 31.8636C116.352 29.9697 116.045 28.375 115.431 27.0795C114.825 25.7765 113.992 24.7917 112.931 24.125C111.878 23.4508 110.685 23.1136 109.352 23.1136C108.011 23.1136 106.814 23.4508 105.761 24.125C104.708 24.7917 103.874 25.7765 103.261 27.0795C102.655 28.375 102.352 29.9697 102.352 31.8636C102.352 33.7576 102.655 35.3561 103.261 36.6591C103.874 37.9545 104.708 38.9394 105.761 39.6136C106.814 40.2803 108.011 40.6136 109.352 40.6136C110.685 40.6136 111.878 40.2803 112.931 39.6136C113.992 38.9394 114.825 37.9545 115.431 36.6591C116.045 35.3561 116.352 33.7576 116.352 31.8636ZM105.931 17.9205L103.636 17.8409C103.636 16.5909 103.977 15.5909 104.659 14.8409C105.34 14.0909 106.177 13.7121 107.17 13.7045C107.64 13.7045 108.049 13.7841 108.397 13.9432C108.746 14.0947 109.071 14.2727 109.374 14.4773C109.677 14.6818 109.984 14.8636 110.295 15.0227C110.605 15.1742 110.95 15.25 111.329 15.25C111.761 15.2424 112.113 15.0758 112.386 14.75C112.666 14.4167 112.806 14.0038 112.806 13.5114L115.056 13.6591C115.049 14.9242 114.704 15.9205 114.022 16.6477C113.348 17.3674 112.515 17.7273 111.522 17.7273C110.984 17.7273 110.537 17.6515 110.181 17.5C109.825 17.3409 109.511 17.1629 109.238 16.9659C108.965 16.7614 108.685 16.5833 108.397 16.4318C108.109 16.2727 107.765 16.1932 107.363 16.1932C106.946 16.1932 106.602 16.3561 106.329 16.6818C106.064 17.0076 105.931 17.4205 105.931 17.9205ZM126.932 33.1364V43.5H123.534V20.2273H126.886V28.8864H127.102C127.511 27.947 128.136 27.2008 128.977 26.6477C129.818 26.0947 130.917 25.8182 132.273 25.8182C133.47 25.8182 134.515 26.0644 135.409 26.5568C136.311 27.0492 137.008 27.7841 137.5 28.7614C138 29.7311 138.25 30.9432 138.25 32.3977V43.5H134.852V32.8068C134.852 31.5265 134.523 30.5341 133.864 29.8295C133.205 29.1174 132.288 28.7614 131.114 28.7614C130.311 28.7614 129.591 28.9318 128.955 29.2727C128.326 29.6136 127.83 30.1136 127.466 30.7727C127.11 31.4242 126.932 32.2121 126.932 33.1364ZM150.532 26.0455V28.7727H140.998V26.0455H150.532ZM143.555 21.8636H146.952V38.375C146.952 39.0341 147.051 39.5303 147.248 39.8636C147.445 40.1894 147.698 40.4129 148.009 40.5341C148.327 40.6477 148.672 40.7045 149.043 40.7045C149.316 40.7045 149.555 40.6856 149.759 40.6477C149.964 40.6098 150.123 40.5795 150.236 40.5568L150.85 43.3636C150.653 43.4394 150.373 43.5152 150.009 43.5909C149.645 43.6742 149.191 43.7197 148.645 43.7273C147.752 43.7424 146.918 43.5833 146.145 43.25C145.373 42.9167 144.748 42.4015 144.27 41.7045C143.793 41.0076 143.555 40.1326 143.555 39.0795V21.8636ZM164.947 36.2614V26.0455H168.356V43.5H165.015V40.4773H164.834C164.432 41.4091 163.788 42.1856 162.902 42.8068C162.023 43.4205 160.928 43.7273 159.618 43.7273C158.496 43.7273 157.504 43.4811 156.64 42.9886C155.784 42.4886 155.11 41.75 154.618 40.7727C154.133 39.7955 153.89 38.5871 153.89 37.1477V26.0455H157.288V36.7386C157.288 37.928 157.618 38.875 158.277 39.5795C158.936 40.2841 159.792 40.6364 160.845 40.6364C161.481 40.6364 162.114 40.4773 162.743 40.1591C163.379 39.8409 163.905 39.3598 164.322 38.7159C164.746 38.072 164.955 37.2538 164.947 36.2614ZM175.919 20.2273V43.5H172.522V20.2273H175.919ZM187.613 43.8523C185.893 43.8523 184.412 43.4848 183.17 42.75C181.935 42.0076 180.98 40.9659 180.306 39.625C179.64 38.2765 179.306 36.697 179.306 34.8864C179.306 33.0985 179.64 31.5227 180.306 30.1591C180.98 28.7955 181.92 27.7311 183.124 26.9659C184.337 26.2008 185.753 25.8182 187.374 25.8182C188.359 25.8182 189.314 25.9811 190.238 26.3068C191.162 26.6326 191.992 27.1439 192.727 27.8409C193.462 28.5379 194.041 29.4432 194.465 30.5568C194.89 31.6629 195.102 33.0076 195.102 34.5909V35.7955H181.227V33.25H191.772C191.772 32.3561 191.59 31.5644 191.227 30.875C190.863 30.178 190.352 29.6288 189.693 29.2273C189.041 28.8258 188.276 28.625 187.397 28.625C186.443 28.625 185.609 28.8598 184.897 29.3295C184.193 29.7917 183.647 30.3977 183.261 31.1477C182.882 31.8902 182.693 32.697 182.693 33.5682V35.5568C182.693 36.7235 182.897 37.7159 183.306 38.5341C183.723 39.3523 184.302 39.9773 185.045 40.4091C185.787 40.8333 186.655 41.0455 187.647 41.0455C188.291 41.0455 188.878 40.9545 189.409 40.7727C189.939 40.5833 190.397 40.303 190.784 39.9318C191.17 39.5606 191.465 39.1023 191.67 38.5568L194.886 39.1364C194.628 40.0833 194.166 40.9129 193.499 41.625C192.84 42.3295 192.011 42.8788 191.011 43.2727C190.018 43.6591 188.886 43.8523 187.613 43.8523ZM201.869 33.1364V43.5H198.472V20.2273H201.824V28.8864H202.04C202.449 27.947 203.074 27.2008 203.915 26.6477C204.756 26.0947 205.854 25.8182 207.21 25.8182C208.407 25.8182 209.453 26.0644 210.347 26.5568C211.248 27.0492 211.945 27.7841 212.438 28.7614C212.938 29.7311 213.188 30.9432 213.188 32.3977V43.5H209.79V32.8068C209.79 31.5265 209.46 30.5341 208.801 29.8295C208.142 29.1174 207.225 28.7614 206.051 28.7614C205.248 28.7614 204.528 28.9318 203.892 29.2727C203.263 29.6136 202.767 30.1136 202.403 30.7727C202.047 31.4242 201.869 32.2121 201.869 33.1364ZM225.469 26.0455V28.7727H215.935V26.0455H225.469ZM218.492 21.8636H221.89V38.375C221.89 39.0341 221.988 39.5303 222.185 39.8636C222.382 40.1894 222.636 40.4129 222.947 40.5341C223.265 40.6477 223.609 40.7045 223.981 40.7045C224.253 40.7045 224.492 40.6856 224.697 40.6477C224.901 40.6098 225.06 40.5795 225.174 40.5568L225.787 43.3636C225.591 43.4394 225.31 43.5152 224.947 43.5909C224.583 43.6742 224.128 43.7197 223.583 43.7273C222.689 43.7424 221.856 43.5833 221.083 43.25C220.31 42.9167 219.685 42.4015 219.208 41.7045C218.731 41.0076 218.492 40.1326 218.492 39.0795V21.8636ZM251.828 26.0455L245.499 43.5H241.862L235.522 26.0455H239.169L243.59 39.4773H243.772L248.181 26.0455H251.828ZM259.201 43.8864C258.095 43.8864 257.095 43.6818 256.201 43.2727C255.307 42.8561 254.599 42.2538 254.076 41.4659C253.561 40.678 253.303 39.7121 253.303 38.5682C253.303 37.5833 253.493 36.7727 253.872 36.1364C254.25 35.5 254.762 34.9962 255.406 34.625C256.05 34.2538 256.769 33.9735 257.565 33.7841C258.36 33.5947 259.171 33.4508 259.997 33.3523C261.042 33.2311 261.891 33.1326 262.542 33.0568C263.194 32.9735 263.667 32.8409 263.962 32.6591C264.258 32.4773 264.406 32.1818 264.406 31.7727V31.6932C264.406 30.7008 264.125 29.9318 263.565 29.3864C263.012 28.8409 262.186 28.5682 261.087 28.5682C259.944 28.5682 259.042 28.822 258.383 29.3295C257.731 29.8295 257.281 30.3864 257.031 31L253.837 30.2727C254.216 29.2121 254.769 28.3561 255.497 27.7045C256.231 27.0455 257.076 26.5682 258.031 26.2727C258.985 25.9697 259.989 25.8182 261.042 25.8182C261.739 25.8182 262.478 25.9015 263.258 26.0682C264.046 26.2273 264.781 26.5227 265.462 26.9545C266.152 27.3864 266.716 28.0038 267.156 28.8068C267.595 29.6023 267.815 30.6364 267.815 31.9091V43.5H264.497V41.1136H264.36C264.141 41.553 263.811 41.9848 263.372 42.4091C262.932 42.8333 262.368 43.1856 261.678 43.4659C260.989 43.7462 260.163 43.8864 259.201 43.8864ZM259.94 41.1591C260.879 41.1591 261.682 40.9735 262.349 40.6023C263.023 40.2311 263.534 39.7462 263.883 39.1477C264.239 38.5417 264.417 37.8939 264.417 37.2045V34.9545C264.296 35.0758 264.061 35.1894 263.712 35.2955C263.372 35.3939 262.981 35.4811 262.542 35.5568C262.103 35.625 261.675 35.6894 261.258 35.75C260.841 35.803 260.493 35.8485 260.212 35.8864C259.553 35.9697 258.951 36.1098 258.406 36.3068C257.868 36.5038 257.436 36.7879 257.11 37.1591C256.792 37.5227 256.633 38.0076 256.633 38.6136C256.633 39.4545 256.944 40.0909 257.565 40.5227C258.186 40.947 258.978 41.1591 259.94 41.1591ZM275.338 33.1364V43.5H271.94V20.2273H275.293V28.8864H275.509C275.918 27.947 276.543 27.2008 277.384 26.6477C278.224 26.0947 279.323 25.8182 280.679 25.8182C281.876 25.8182 282.921 26.0644 283.815 26.5568C284.717 27.0492 285.414 27.7841 285.906 28.7614C286.406 29.7311 286.656 30.9432 286.656 32.3977V43.5H283.259V32.8068C283.259 31.5265 282.929 30.5341 282.27 29.8295C281.611 29.1174 280.694 28.7614 279.52 28.7614C278.717 28.7614 277.997 28.9318 277.361 29.2727C276.732 29.6136 276.236 30.1136 275.872 30.7727C275.516 31.4242 275.338 32.2121 275.338 33.1364ZM298.313 43.8523C296.593 43.8523 295.112 43.4848 293.87 42.75C292.635 42.0076 291.68 40.9659 291.006 39.625C290.34 38.2765 290.006 36.697 290.006 34.8864C290.006 33.0985 290.34 31.5227 291.006 30.1591C291.68 28.7955 292.62 27.7311 293.824 26.9659C295.037 26.2008 296.453 25.8182 298.074 25.8182C299.059 25.8182 300.014 25.9811 300.938 26.3068C301.862 26.6326 302.692 27.1439 303.427 27.8409C304.162 28.5379 304.741 29.4432 305.165 30.5568C305.59 31.6629 305.802 33.0076 305.802 34.5909V35.7955H291.927V33.25H302.472C302.472 32.3561 302.29 31.5644 301.927 30.875C301.563 30.178 301.052 29.6288 300.393 29.2273C299.741 28.8258 298.976 28.625 298.097 28.625C297.143 28.625 296.309 28.8598 295.597 29.3295C294.893 29.7917 294.347 30.3977 293.961 31.1477C293.582 31.8902 293.393 32.697 293.393 33.5682V35.5568C293.393 36.7235 293.597 37.7159 294.006 38.5341C294.423 39.3523 295.002 39.9773 295.745 40.4091C296.487 40.8333 297.355 41.0455 298.347 41.0455C298.991 41.0455 299.578 40.9545 300.109 40.7727C300.639 40.5833 301.097 40.303 301.484 39.9318C301.87 39.5606 302.165 39.1023 302.37 38.5568L305.586 39.1364C305.328 40.0833 304.866 40.9129 304.199 41.625C303.54 42.3295 302.711 42.8788 301.711 43.2727C300.718 43.6591 299.586 43.8523 298.313 43.8523ZM312.569 33.1364V43.5H309.172V26.0455H312.433V28.8864H312.649C313.05 27.9621 313.679 27.2197 314.535 26.6591C315.399 26.0985 316.486 25.8182 317.797 25.8182C318.986 25.8182 320.028 26.0682 320.922 26.5682C321.816 27.0606 322.509 27.7955 323.001 28.7727C323.494 29.75 323.74 30.9583 323.74 32.3977V43.5H320.342V32.8068C320.342 31.5417 320.012 30.553 319.353 29.8409C318.694 29.1212 317.789 28.7614 316.637 28.7614C315.85 28.7614 315.149 28.9318 314.535 29.2727C313.929 29.6136 313.448 30.1136 313.092 30.7727C312.744 31.4242 312.569 32.2121 312.569 33.1364ZM334.431 43.8409C333.022 43.8409 331.764 43.4811 330.658 42.7614C329.559 42.0341 328.696 41 328.067 39.6591C327.446 38.3106 327.135 36.6932 327.135 34.8068C327.135 32.9205 327.45 31.3068 328.078 29.9659C328.715 28.625 329.586 27.5985 330.692 26.8864C331.798 26.1742 333.052 25.8182 334.453 25.8182C335.537 25.8182 336.408 26 337.067 26.3636C337.734 26.7197 338.249 27.1364 338.612 27.6136C338.984 28.0909 339.272 28.5114 339.476 28.875H339.681V20.2273H343.078V43.5H339.76V40.7841H339.476C339.272 41.1553 338.976 41.5795 338.59 42.0568C338.211 42.5341 337.688 42.9508 337.022 43.3068C336.355 43.6629 335.491 43.8409 334.431 43.8409ZM335.181 40.9432C336.158 40.9432 336.984 40.6856 337.658 40.1705C338.34 39.6477 338.855 38.9242 339.203 38C339.559 37.0758 339.737 36 339.737 34.7727C339.737 33.5606 339.563 32.5 339.215 31.5909C338.866 30.6818 338.355 29.9735 337.681 29.4659C337.006 28.9583 336.173 28.7045 335.181 28.7045C334.158 28.7045 333.306 28.9697 332.624 29.5C331.942 30.0303 331.427 30.7538 331.078 31.6705C330.737 32.5871 330.567 33.6212 330.567 34.7727C330.567 35.9394 330.741 36.9886 331.09 37.9205C331.438 38.8523 331.953 39.5909 332.635 40.1364C333.325 40.6742 334.173 40.9432 335.181 40.9432ZM352.607 43.8864C351.501 43.8864 350.501 43.6818 349.607 43.2727C348.713 42.8561 348.005 42.2538 347.482 41.4659C346.967 40.678 346.71 39.7121 346.71 38.5682C346.71 37.5833 346.899 36.7727 347.278 36.1364C347.657 35.5 348.168 34.9962 348.812 34.625C349.456 34.2538 350.176 33.9735 350.971 33.7841C351.766 33.5947 352.577 33.4508 353.403 33.3523C354.448 33.2311 355.297 33.1326 355.948 33.0568C356.6 32.9735 357.073 32.8409 357.369 32.6591C357.664 32.4773 357.812 32.1818 357.812 31.7727V31.6932C357.812 30.7008 357.532 29.9318 356.971 29.3864C356.418 28.8409 355.592 28.5682 354.494 28.5682C353.35 28.5682 352.448 28.822 351.789 29.3295C351.138 29.8295 350.687 30.3864 350.437 31L347.244 30.2727C347.623 29.2121 348.176 28.3561 348.903 27.7045C349.638 27.0455 350.482 26.5682 351.437 26.2727C352.391 25.9697 353.395 25.8182 354.448 25.8182C355.145 25.8182 355.884 25.9015 356.664 26.0682C357.452 26.2273 358.187 26.5227 358.869 26.9545C359.558 27.3864 360.123 28.0038 360.562 28.8068C361.001 29.6023 361.221 30.6364 361.221 31.9091V43.5H357.903V41.1136H357.766C357.547 41.553 357.217 41.9848 356.778 42.4091C356.338 42.8333 355.774 43.1856 355.085 43.4659C354.395 43.7462 353.57 43.8864 352.607 43.8864ZM353.346 41.1591C354.285 41.1591 355.088 40.9735 355.755 40.6023C356.429 40.2311 356.941 39.7462 357.289 39.1477C357.645 38.5417 357.823 37.8939 357.823 37.2045V34.9545C357.702 35.0758 357.467 35.1894 357.119 35.2955C356.778 35.3939 356.388 35.4811 355.948 35.5568C355.509 35.625 355.081 35.6894 354.664 35.75C354.248 35.803 353.899 35.8485 353.619 35.8864C352.96 35.9697 352.357 36.1098 351.812 36.3068C351.274 36.5038 350.842 36.7879 350.516 37.1591C350.198 37.5227 350.039 38.0076 350.039 38.6136C350.039 39.4545 350.35 40.0909 350.971 40.5227C351.592 40.947 352.384 41.1591 353.346 41.1591ZM365.619 43.5V20.2273H369.017V28.875H369.222C369.419 28.5114 369.703 28.0909 370.074 27.6136C370.445 27.1364 370.96 26.7197 371.619 26.3636C372.278 26 373.15 25.8182 374.233 25.8182C375.642 25.8182 376.9 26.1742 378.006 26.8864C379.112 27.5985 379.979 28.625 380.608 29.9659C381.244 31.3068 381.562 32.9205 381.562 34.8068C381.562 36.6932 381.248 38.3106 380.619 39.6591C379.991 41 379.127 42.0341 378.028 42.7614C376.93 43.4811 375.676 43.8409 374.267 43.8409C373.206 43.8409 372.339 43.6629 371.665 43.3068C370.998 42.9508 370.475 42.5341 370.097 42.0568C369.718 41.5795 369.426 41.1553 369.222 40.7841H368.938V43.5H365.619ZM368.949 34.7727C368.949 36 369.127 37.0758 369.483 38C369.839 38.9242 370.354 39.6477 371.028 40.1705C371.703 40.6856 372.528 40.9432 373.506 40.9432C374.521 40.9432 375.369 40.6742 376.051 40.1364C376.733 39.5909 377.248 38.8523 377.597 37.9205C377.953 36.9886 378.131 35.9394 378.131 34.7727C378.131 33.6212 377.956 32.5871 377.608 31.6705C377.267 30.7538 376.752 30.0303 376.062 29.5C375.381 28.9697 374.528 28.7045 373.506 28.7045C372.521 28.7045 371.688 28.9583 371.006 29.4659C370.331 29.9735 369.82 30.6818 369.472 31.5909C369.123 32.5 368.949 33.5606 368.949 34.7727ZM393.047 26.0455H396.444V44.6364C396.444 45.803 396.232 46.7879 395.808 47.5909C395.391 48.3939 394.77 49.0038 393.944 49.4205C393.126 49.8371 392.115 50.0455 390.91 50.0455C390.789 50.0455 390.675 50.0455 390.569 50.0455C390.456 50.0455 390.338 50.0417 390.217 50.0341V47.1136C390.323 47.1136 390.418 47.1136 390.501 47.1136C390.577 47.1136 390.664 47.1136 390.762 47.1136C391.566 47.1136 392.145 46.8977 392.501 46.4659C392.865 46.0417 393.047 45.4242 393.047 44.6136V26.0455ZM394.728 23.3523C394.137 23.3523 393.63 23.1553 393.206 22.7614C392.789 22.3598 392.581 21.8826 392.581 21.3295C392.581 20.7689 392.789 20.2917 393.206 19.8977C393.63 19.4962 394.137 19.2955 394.728 19.2955C395.319 19.2955 395.823 19.4962 396.24 19.8977C396.664 20.2917 396.876 20.7689 396.876 21.3295C396.876 21.8826 396.664 22.3598 396.24 22.7614C395.823 23.1553 395.319 23.3523 394.728 23.3523ZM405.695 43.8864C404.589 43.8864 403.589 43.6818 402.695 43.2727C401.801 42.8561 401.093 42.2538 400.57 41.4659C400.055 40.678 399.797 39.7121 399.797 38.5682C399.797 37.5833 399.987 36.7727 400.365 36.1364C400.744 35.5 401.255 34.9962 401.899 34.625C402.543 34.2538 403.263 33.9735 404.059 33.7841C404.854 33.5947 405.665 33.4508 406.49 33.3523C407.536 33.2311 408.384 33.1326 409.036 33.0568C409.687 32.9735 410.161 32.8409 410.456 32.6591C410.752 32.4773 410.899 32.1818 410.899 31.7727V31.6932C410.899 30.7008 410.619 29.9318 410.059 29.3864C409.505 28.8409 408.68 28.5682 407.581 28.5682C406.437 28.5682 405.536 28.822 404.877 29.3295C404.225 29.8295 403.774 30.3864 403.524 31L400.331 30.2727C400.71 29.2121 401.263 28.3561 401.99 27.7045C402.725 27.0455 403.57 26.5682 404.524 26.2727C405.479 25.9697 406.483 25.8182 407.536 25.8182C408.233 25.8182 408.971 25.9015 409.752 26.0682C410.54 26.2273 411.274 26.5227 411.956 26.9545C412.646 27.3864 413.21 28.0038 413.649 28.8068C414.089 29.6023 414.309 30.6364 414.309 31.9091V43.5H410.99V41.1136H410.854C410.634 41.553 410.305 41.9848 409.865 42.4091C409.426 42.8333 408.862 43.1856 408.172 43.4659C407.483 43.7462 406.657 43.8864 405.695 43.8864ZM406.434 41.1591C407.373 41.1591 408.176 40.9735 408.843 40.6023C409.517 40.2311 410.028 39.7462 410.377 39.1477C410.733 38.5417 410.911 37.8939 410.911 37.2045V34.9545C410.79 35.0758 410.555 35.1894 410.206 35.2955C409.865 35.3939 409.475 35.4811 409.036 35.5568C408.596 35.625 408.168 35.6894 407.752 35.75C407.335 35.803 406.987 35.8485 406.706 35.8864C406.047 35.9697 405.445 36.1098 404.899 36.3068C404.362 36.5038 403.93 36.7879 403.604 37.1591C403.286 37.5227 403.127 38.0076 403.127 38.6136C403.127 39.4545 403.437 40.0909 404.059 40.5227C404.68 40.947 405.471 41.1591 406.434 41.1591ZM421.832 20.2273V43.5H418.434V20.2273H421.832ZM433.321 50.4091C431.935 50.4091 430.741 50.2273 429.741 49.8636C428.749 49.5 427.938 49.0189 427.31 48.4205C426.681 47.822 426.211 47.1667 425.901 46.4545L428.821 45.25C429.026 45.5833 429.298 45.9356 429.639 46.3068C429.988 46.6856 430.457 47.0076 431.048 47.2727C431.647 47.5379 432.416 47.6705 433.355 47.6705C434.643 47.6705 435.707 47.3561 436.548 46.7273C437.389 46.1061 437.81 45.1136 437.81 43.75V40.3182H437.594C437.389 40.6894 437.094 41.1023 436.707 41.5568C436.329 42.0114 435.806 42.4053 435.139 42.7386C434.473 43.072 433.605 43.2386 432.537 43.2386C431.158 43.2386 429.916 42.9167 428.81 42.2727C427.711 41.6212 426.84 40.6629 426.196 39.3977C425.56 38.125 425.241 36.5606 425.241 34.7045C425.241 32.8485 425.556 31.2576 426.185 29.9318C426.821 28.6061 427.692 27.5909 428.798 26.8864C429.904 26.1742 431.158 25.8182 432.56 25.8182C433.643 25.8182 434.518 26 435.185 26.3636C435.851 26.7197 436.37 27.1364 436.741 27.6136C437.12 28.0909 437.412 28.5114 437.616 28.875H437.866V26.0455H441.196V43.8864C441.196 45.3864 440.848 46.6174 440.151 47.5795C439.454 48.5417 438.51 49.2538 437.321 49.7159C436.139 50.178 434.806 50.4091 433.321 50.4091ZM433.287 40.4205C434.264 40.4205 435.09 40.1932 435.764 39.7386C436.446 39.2765 436.961 38.6174 437.31 37.7614C437.666 36.8977 437.844 35.8636 437.844 34.6591C437.844 33.4848 437.67 32.4508 437.321 31.5568C436.973 30.6629 436.461 29.9659 435.787 29.4659C435.113 28.9583 434.279 28.7045 433.287 28.7045C432.264 28.7045 431.412 28.9697 430.73 29.5C430.048 30.0227 429.533 30.7348 429.185 31.6364C428.844 32.5379 428.673 33.5455 428.673 34.6591C428.673 35.803 428.848 36.8068 429.196 37.6705C429.545 38.5341 430.06 39.2083 430.741 39.6932C431.431 40.178 432.279 40.4205 433.287 40.4205ZM445.353 50.0455V26.0455H448.671V28.875H448.955C449.152 28.5114 449.436 28.0909 449.807 27.6136C450.179 27.1364 450.694 26.7197 451.353 26.3636C452.012 26 452.883 25.8182 453.966 25.8182C455.376 25.8182 456.633 26.1742 457.739 26.8864C458.845 27.5985 459.713 28.625 460.341 29.9659C460.978 31.3068 461.296 32.9205 461.296 34.8068C461.296 36.6932 460.982 38.3106 460.353 39.6591C459.724 41 458.86 42.0341 457.762 42.7614C456.663 43.4811 455.41 43.8409 454.001 43.8409C452.94 43.8409 452.073 43.6629 451.398 43.3068C450.732 42.9508 450.209 42.5341 449.83 42.0568C449.451 41.5795 449.16 41.1553 448.955 40.7841H448.751V50.0455H445.353ZM448.682 34.7727C448.682 36 448.86 37.0758 449.216 38C449.573 38.9242 450.088 39.6477 450.762 40.1705C451.436 40.6856 452.262 40.9432 453.239 40.9432C454.254 40.9432 455.103 40.6742 455.785 40.1364C456.466 39.5909 456.982 38.8523 457.33 37.9205C457.686 36.9886 457.864 35.9394 457.864 34.7727C457.864 33.6212 457.69 32.5871 457.341 31.6705C457.001 30.7538 456.485 30.0303 455.796 29.5C455.114 28.9697 454.262 28.7045 453.239 28.7045C452.254 28.7045 451.421 28.9583 450.739 29.4659C450.065 29.9735 449.554 30.6818 449.205 31.5909C448.857 32.5 448.682 33.5606 448.682 34.7727ZM469.782 43.8864C468.676 43.8864 467.676 43.6818 466.782 43.2727C465.888 42.8561 465.18 42.2538 464.657 41.4659C464.142 40.678 463.885 39.7121 463.885 38.5682C463.885 37.5833 464.074 36.7727 464.453 36.1364C464.832 35.5 465.343 34.9962 465.987 34.625C466.631 34.2538 467.351 33.9735 468.146 33.7841C468.941 33.5947 469.752 33.4508 470.578 33.3523C471.623 33.2311 472.472 33.1326 473.123 33.0568C473.775 32.9735 474.248 32.8409 474.544 32.6591C474.839 32.4773 474.987 32.1818 474.987 31.7727V31.6932C474.987 30.7008 474.707 29.9318 474.146 29.3864C473.593 28.8409 472.767 28.5682 471.669 28.5682C470.525 28.5682 469.623 28.822 468.964 29.3295C468.313 29.8295 467.862 30.3864 467.612 31L464.419 30.2727C464.798 29.2121 465.351 28.3561 466.078 27.7045C466.813 27.0455 467.657 26.5682 468.612 26.2727C469.566 25.9697 470.57 25.8182 471.623 25.8182C472.32 25.8182 473.059 25.9015 473.839 26.0682C474.627 26.2273 475.362 26.5227 476.044 26.9545C476.733 27.3864 477.298 28.0038 477.737 28.8068C478.176 29.6023 478.396 30.6364 478.396 31.9091V43.5H475.078V41.1136H474.941C474.722 41.553 474.392 41.9848 473.953 42.4091C473.513 42.8333 472.949 43.1856 472.26 43.4659C471.57 43.7462 470.744 43.8864 469.782 43.8864ZM470.521 41.1591C471.46 41.1591 472.263 40.9735 472.93 40.6023C473.604 40.2311 474.116 39.7462 474.464 39.1477C474.82 38.5417 474.998 37.8939 474.998 37.2045V34.9545C474.877 35.0758 474.642 35.1894 474.294 35.2955C473.953 35.3939 473.563 35.4811 473.123 35.5568C472.684 35.625 472.256 35.6894 471.839 35.75C471.423 35.803 471.074 35.8485 470.794 35.8864C470.135 35.9697 469.532 36.1098 468.987 36.3068C468.449 36.5038 468.017 36.7879 467.691 37.1591C467.373 37.5227 467.214 38.0076 467.214 38.6136C467.214 39.4545 467.525 40.0909 468.146 40.5227C468.767 40.947 469.559 41.1591 470.521 41.1591ZM485.919 20.2273V43.5H482.522V20.2273H485.919ZM493.488 20.2273V43.5H490.09V20.2273H493.488ZM497.659 43.5V26.0455H501.057V43.5H497.659ZM499.375 23.3523C498.784 23.3523 498.277 23.1553 497.852 22.7614C497.436 22.3598 497.227 21.8826 497.227 21.3295C497.227 20.7689 497.436 20.2917 497.852 19.8977C498.277 19.4962 498.784 19.2955 499.375 19.2955C499.966 19.2955 500.47 19.4962 500.886 19.8977C501.311 20.2917 501.523 20.7689 501.523 21.3295C501.523 21.8826 501.311 22.3598 500.886 22.7614C500.47 23.1553 499.966 23.3523 499.375 23.3523ZM126.013 56.2273H130.274L137.684 74.3182H137.956L145.365 56.2273H149.627V79.5H146.286V62.6591H146.07L139.206 79.4659H136.434L129.57 62.6477H129.354V79.5H126.013V56.2273ZM154.332 56.2273H158.593L166.002 74.3182H166.275L173.684 56.2273H177.945V79.5H174.605V62.6591H174.389L167.525 79.4659H164.752L157.889 62.6477H157.673V79.5H154.332V56.2273ZM182.378 79.5V62.0455H185.776V79.5H182.378ZM184.094 59.3523C183.503 59.3523 182.995 59.1553 182.571 58.7614C182.154 58.3598 181.946 57.8826 181.946 57.3295C181.946 56.7689 182.154 56.2917 182.571 55.8977C182.995 55.4962 183.503 55.2955 184.094 55.2955C184.685 55.2955 185.188 55.4962 185.605 55.8977C186.029 56.2917 186.241 56.7689 186.241 57.3295C186.241 57.8826 186.029 58.3598 185.605 58.7614C185.188 59.1553 184.685 59.3523 184.094 59.3523ZM193.344 56.2273V79.5H189.947V56.2273H193.344ZM205.663 62.0455V64.7727H196.129V62.0455H205.663ZM198.686 57.8636H202.084V74.375C202.084 75.0341 202.182 75.5303 202.379 75.8636C202.576 76.1894 202.83 76.4129 203.14 76.5341C203.459 76.6477 203.803 76.7045 204.174 76.7045C204.447 76.7045 204.686 76.6856 204.89 76.6477C205.095 76.6098 205.254 76.5795 205.368 76.5568L205.981 79.3636C205.784 79.4394 205.504 79.5152 205.14 79.5909C204.777 79.6742 204.322 79.7197 203.777 79.7273C202.883 79.7424 202.049 79.5833 201.277 79.25C200.504 78.9167 199.879 78.4015 199.402 77.7045C198.924 77.0076 198.686 76.1326 198.686 75.0795V57.8636ZM220.215 73.5795L220.193 69.4318H220.784L227.738 62.0455H231.806L223.874 70.4545H223.34L220.215 73.5795ZM217.09 79.5V56.2273H220.488V79.5H217.09ZM228.113 79.5L221.863 71.2045L224.204 68.8295L232.284 79.5H228.113ZM241.136 79.8523C239.5 79.8523 238.072 79.4773 236.852 78.7273C235.633 77.9773 234.686 76.928 234.011 75.5795C233.337 74.2311 233 72.6553 233 70.8523C233 69.0417 233.337 67.4583 234.011 66.1023C234.686 64.7462 235.633 63.6932 236.852 62.9432C238.072 62.1932 239.5 61.8182 241.136 61.8182C242.773 61.8182 244.201 62.1932 245.42 62.9432C246.64 63.6932 247.587 64.7462 248.261 66.1023C248.936 67.4583 249.273 69.0417 249.273 70.8523C249.273 72.6553 248.936 74.2311 248.261 75.5795C247.587 76.928 246.64 77.9773 245.42 78.7273C244.201 79.4773 242.773 79.8523 241.136 79.8523ZM241.148 77C242.208 77 243.087 76.7197 243.784 76.1591C244.481 75.5985 244.996 74.8523 245.33 73.9205C245.67 72.9886 245.841 71.9621 245.841 70.8409C245.841 69.7273 245.67 68.7045 245.33 67.7727C244.996 66.8333 244.481 66.0795 243.784 65.5114C243.087 64.9432 242.208 64.6591 241.148 64.6591C240.08 64.6591 239.193 64.9432 238.489 65.5114C237.792 66.0795 237.273 66.8333 236.932 67.7727C236.598 68.7045 236.432 69.7273 236.432 70.8409C236.432 71.9621 236.598 72.9886 236.932 73.9205C237.273 74.8523 237.792 75.5985 238.489 76.1591C239.193 76.7197 240.08 77 241.148 77ZM237.716 59.9318L235.432 59.8636C235.432 58.6061 235.769 57.6023 236.443 56.8523C237.125 56.1023 237.966 55.7273 238.966 55.7273C239.428 55.7273 239.833 55.8068 240.182 55.9659C240.53 56.1174 240.856 56.2955 241.159 56.5C241.47 56.697 241.777 56.875 242.08 57.0341C242.39 57.1856 242.735 57.2614 243.114 57.2614C243.553 57.2614 243.909 57.0947 244.182 56.7614C244.462 56.428 244.602 56.0152 244.602 55.5227L246.841 55.6705C246.841 56.9356 246.5 57.9318 245.818 58.6591C245.136 59.3788 244.299 59.7424 243.307 59.75C242.769 59.75 242.322 59.6742 241.966 59.5227C241.617 59.3636 241.307 59.1856 241.034 58.9886C240.761 58.7841 240.481 58.6023 240.193 58.4432C239.905 58.2841 239.561 58.2045 239.159 58.2045C238.735 58.2045 238.386 58.3712 238.114 58.7045C237.848 59.0303 237.716 59.4394 237.716 59.9318ZM252.665 79.5V62.0455H256.063V79.5H252.665ZM254.381 59.3523C253.79 59.3523 253.283 59.1553 252.859 58.7614C252.442 58.3598 252.234 57.8826 252.234 57.3295C252.234 56.7689 252.442 56.2917 252.859 55.8977C253.283 55.4962 253.79 55.2955 254.381 55.2955C254.972 55.2955 255.476 55.4962 255.893 55.8977C256.317 56.2917 256.529 56.7689 256.529 57.3295C256.529 57.8826 256.317 58.3598 255.893 58.7614C255.476 59.1553 254.972 59.3523 254.381 59.3523ZM263.359 73.5795L263.336 69.4318H263.927L270.882 62.0455H274.95L267.018 70.4545H266.484L263.359 73.5795ZM260.234 79.5V56.2273H263.632V79.5H260.234ZM271.257 79.5L265.007 71.2045L267.348 68.8295L275.427 79.5H271.257ZM284.451 79.8523C282.731 79.8523 281.25 79.4848 280.007 78.75C278.773 78.0076 277.818 76.9659 277.144 75.625C276.477 74.2765 276.144 72.697 276.144 70.8864C276.144 69.0985 276.477 67.5227 277.144 66.1591C277.818 64.7955 278.757 63.7311 279.962 62.9659C281.174 62.2008 282.591 61.8182 284.212 61.8182C285.197 61.8182 286.151 61.9811 287.076 62.3068C288 62.6326 288.829 63.1439 289.564 63.8409C290.299 64.5379 290.879 65.4432 291.303 66.5568C291.727 67.6629 291.939 69.0076 291.939 70.5909V71.7955H278.064V69.25H288.61C288.61 68.3561 288.428 67.5644 288.064 66.875C287.701 66.178 287.189 65.6288 286.53 65.2273C285.879 64.8258 285.113 64.625 284.235 64.625C283.28 64.625 282.447 64.8598 281.735 65.3295C281.03 65.7917 280.485 66.3977 280.098 67.1477C279.72 67.8902 279.53 68.697 279.53 69.5682V71.5568C279.53 72.7235 279.735 73.7159 280.144 74.5341C280.56 75.3523 281.14 75.9773 281.882 76.4091C282.625 76.8333 283.492 77.0455 284.485 77.0455C285.129 77.0455 285.716 76.9545 286.246 76.7727C286.776 76.5833 287.235 76.303 287.621 75.9318C288.007 75.5606 288.303 75.1023 288.507 74.5568L291.723 75.1364C291.466 76.0833 291.004 76.9129 290.337 77.625C289.678 78.3295 288.848 78.8788 287.848 79.2727C286.856 79.6591 285.723 79.8523 284.451 79.8523ZM299.73 76.3182L299.559 77.5568C299.445 78.4659 299.252 79.4129 298.98 80.3977C298.714 81.3902 298.438 82.3106 298.15 83.1591C297.87 84.0076 297.639 84.6818 297.457 85.1818H295.048C295.146 84.7121 295.283 84.0758 295.457 83.2727C295.631 82.4773 295.802 81.5871 295.968 80.6023C296.135 79.6174 296.26 78.6136 296.343 77.5909L296.457 76.3182H299.73ZM311.822 79.5V62.0455H315.083V64.8864H315.299C315.663 63.9242 316.257 63.1742 317.083 62.6364C317.909 62.0909 318.897 61.8182 320.049 61.8182C321.216 61.8182 322.193 62.0909 322.981 62.6364C323.776 63.1818 324.363 63.9318 324.742 64.8864H324.924C325.341 63.9545 326.003 63.2121 326.913 62.6591C327.822 62.0985 328.905 61.8182 330.163 61.8182C331.746 61.8182 333.038 62.3144 334.038 63.3068C335.045 64.2992 335.549 65.7955 335.549 67.7955V79.5H332.151V68.1136C332.151 66.9318 331.829 66.0758 331.185 65.5455C330.541 65.0152 329.772 64.75 328.878 64.75C327.772 64.75 326.913 65.0909 326.299 65.7727C325.685 66.447 325.378 67.3144 325.378 68.375V79.5H321.992V67.8977C321.992 66.9508 321.697 66.1894 321.106 65.6136C320.515 65.0379 319.746 64.75 318.799 64.75C318.155 64.75 317.56 64.9205 317.015 65.2614C316.477 65.5947 316.041 66.0606 315.708 66.6591C315.382 67.2576 315.219 67.9508 315.219 68.7386V79.5H311.822ZM339.703 79.5V62.0455H343.101V79.5H339.703ZM341.419 59.3523C340.828 59.3523 340.32 59.1553 339.896 58.7614C339.479 58.3598 339.271 57.8826 339.271 57.3295C339.271 56.7689 339.479 56.2917 339.896 55.8977C340.32 55.4962 340.828 55.2955 341.419 55.2955C342.01 55.2955 342.513 55.4962 342.93 55.8977C343.354 56.2917 343.566 56.7689 343.566 57.3295C343.566 57.8826 343.354 58.3598 342.93 58.7614C342.513 59.1553 342.01 59.3523 341.419 59.3523ZM360.351 66.3068L357.272 66.8523C357.143 66.4583 356.938 66.0833 356.658 65.7273C356.385 65.3712 356.014 65.0795 355.544 64.8523C355.075 64.625 354.487 64.5114 353.783 64.5114C352.821 64.5114 352.018 64.7273 351.374 65.1591C350.73 65.5833 350.408 66.1326 350.408 66.8068C350.408 67.3902 350.624 67.8598 351.056 68.2159C351.487 68.572 352.184 68.8636 353.147 69.0909L355.919 69.7273C357.525 70.0985 358.722 70.6705 359.51 71.4432C360.298 72.2159 360.692 73.2197 360.692 74.4545C360.692 75.5 360.389 76.4318 359.783 77.25C359.184 78.0606 358.347 78.697 357.272 79.1591C356.203 79.6212 354.965 79.8523 353.556 79.8523C351.601 79.8523 350.006 79.4356 348.772 78.6023C347.537 77.7614 346.779 76.5682 346.499 75.0227L349.783 74.5227C349.987 75.3788 350.408 76.0265 351.044 76.4659C351.681 76.8977 352.51 77.1136 353.533 77.1136C354.647 77.1136 355.537 76.8826 356.203 76.4205C356.87 75.9508 357.203 75.3788 357.203 74.7045C357.203 74.1591 356.999 73.7008 356.59 73.3295C356.188 72.9583 355.571 72.678 354.737 72.4886L351.783 71.8409C350.154 71.4697 348.95 70.8788 348.169 70.0682C347.397 69.2576 347.01 68.2311 347.01 66.9886C347.01 65.9583 347.298 65.0568 347.874 64.2841C348.45 63.5114 349.245 62.9091 350.26 62.4773C351.275 62.0379 352.438 61.8182 353.749 61.8182C355.635 61.8182 357.12 62.2273 358.203 63.0455C359.287 63.8561 360.003 64.9432 360.351 66.3068ZM379.449 79.8523C377.813 79.8523 376.384 79.4773 375.165 78.7273C373.945 77.9773 372.998 76.928 372.324 75.5795C371.65 74.2311 371.312 72.6553 371.312 70.8523C371.312 69.0417 371.65 67.4583 372.324 66.1023C372.998 64.7462 373.945 63.6932 375.165 62.9432C376.384 62.1932 377.813 61.8182 379.449 61.8182C381.085 61.8182 382.513 62.1932 383.733 62.9432C384.953 63.6932 385.9 64.7462 386.574 66.1023C387.248 67.4583 387.585 69.0417 387.585 70.8523C387.585 72.6553 387.248 74.2311 386.574 75.5795C385.9 76.928 384.953 77.9773 383.733 78.7273C382.513 79.4773 381.085 79.8523 379.449 79.8523ZM379.46 77C380.521 77 381.4 76.7197 382.097 76.1591C382.794 75.5985 383.309 74.8523 383.642 73.9205C383.983 72.9886 384.153 71.9621 384.153 70.8409C384.153 69.7273 383.983 68.7045 383.642 67.7727C383.309 66.8333 382.794 66.0795 382.097 65.5114C381.4 64.9432 380.521 64.6591 379.46 64.6591C378.392 64.6591 377.506 64.9432 376.801 65.5114C376.104 66.0795 375.585 66.8333 375.244 67.7727C374.911 68.7045 374.744 69.7273 374.744 70.8409C374.744 71.9621 374.911 72.9886 375.244 73.9205C375.585 74.8523 376.104 75.5985 376.801 76.1591C377.506 76.7197 378.392 77 379.46 77ZM394.376 56.2273V79.5H390.978V56.2273H394.376ZM409.603 72.2614V62.0455H413.013V79.5H409.672V76.4773H409.49C409.088 77.4091 408.444 78.1856 407.558 78.8068C406.679 79.4205 405.584 79.7273 404.274 79.7273C403.153 79.7273 402.16 79.4811 401.297 78.9886C400.441 78.4886 399.766 77.75 399.274 76.7727C398.789 75.7955 398.547 74.5871 398.547 73.1477V62.0455H401.944V72.7386C401.944 73.928 402.274 74.875 402.933 75.5795C403.592 76.2841 404.448 76.6364 405.501 76.6364C406.138 76.6364 406.77 76.4773 407.399 76.1591C408.035 75.8409 408.562 75.3598 408.978 74.7159C409.403 74.072 409.611 73.2538 409.603 72.2614ZM420.576 56.2273V79.5H417.178V56.2273H420.576ZM424.747 79.5V62.0455H428.144V79.5H424.747ZM426.463 59.3523C425.872 59.3523 425.364 59.1553 424.94 58.7614C424.523 58.3598 424.315 57.8826 424.315 57.3295C424.315 56.7689 424.523 56.2917 424.94 55.8977C425.364 55.4962 425.872 55.2955 426.463 55.2955C427.053 55.2955 427.557 55.4962 427.974 55.8977C428.398 56.2917 428.61 56.7689 428.61 57.3295C428.61 57.8826 428.398 58.3598 427.974 58.7614C427.557 59.1553 427.053 59.3523 426.463 59.3523ZM435.713 69.1364V79.5H432.315V62.0455H435.577V64.8864H435.793C436.194 63.9621 436.823 63.2197 437.679 62.6591C438.543 62.0985 439.63 61.8182 440.94 61.8182C442.13 61.8182 443.171 62.0682 444.065 62.5682C444.959 63.0606 445.652 63.7955 446.145 64.7727C446.637 65.75 446.884 66.9583 446.884 68.3977V79.5H443.486V68.8068C443.486 67.5417 443.156 66.553 442.497 65.8409C441.838 65.1212 440.933 64.7614 439.781 64.7614C438.993 64.7614 438.293 64.9318 437.679 65.2727C437.073 65.6136 436.592 66.1136 436.236 66.7727C435.887 67.4242 435.713 68.2121 435.713 69.1364ZM458.563 79.8523C456.843 79.8523 455.362 79.4848 454.12 78.75C452.885 78.0076 451.93 76.9659 451.256 75.625C450.59 74.2765 450.256 72.697 450.256 70.8864C450.256 69.0985 450.59 67.5227 451.256 66.1591C451.93 64.7955 452.87 63.7311 454.074 62.9659C455.287 62.2008 456.703 61.8182 458.324 61.8182C459.309 61.8182 460.264 61.9811 461.188 62.3068C462.112 62.6326 462.942 63.1439 463.677 63.8409C464.412 64.5379 464.991 65.4432 465.415 66.5568C465.84 67.6629 466.052 69.0076 466.052 70.5909V71.7955H452.177V69.25H462.722C462.722 68.3561 462.54 67.5644 462.177 66.875C461.813 66.178 461.302 65.6288 460.643 65.2273C459.991 64.8258 459.226 64.625 458.347 64.625C457.393 64.625 456.559 64.8598 455.847 65.3295C455.143 65.7917 454.597 66.3977 454.211 67.1477C453.832 67.8902 453.643 68.697 453.643 69.5682V71.5568C453.643 72.7235 453.847 73.7159 454.256 74.5341C454.673 75.3523 455.252 75.9773 455.995 76.4091C456.737 76.8333 457.605 77.0455 458.597 77.0455C459.241 77.0455 459.828 76.9545 460.358 76.7727C460.889 76.5833 461.347 76.303 461.733 75.9318C462.12 75.5606 462.415 75.1023 462.62 74.5568L465.836 75.1364C465.578 76.0833 465.116 76.9129 464.449 77.625C463.79 78.3295 462.961 78.8788 461.961 79.2727C460.968 79.6591 459.836 79.8523 458.563 79.8523ZM473.706 56.2273L473.41 72.8068H470.263L469.967 56.2273H473.706ZM471.842 79.7159C471.213 79.7159 470.675 79.4962 470.228 79.0568C469.781 78.6098 469.562 78.072 469.569 77.4432C469.562 76.822 469.781 76.2917 470.228 75.8523C470.675 75.4053 471.213 75.1818 471.842 75.1818C472.456 75.1818 472.986 75.4053 473.433 75.8523C473.88 76.2917 474.107 76.822 474.115 77.4432C474.107 77.8598 473.997 78.2424 473.785 78.5909C473.581 78.9318 473.308 79.2045 472.967 79.4091C472.626 79.6136 472.251 79.7159 471.842 79.7159Z" fill="#F3FFAD"/>
</svg>
