<svg width="600" height="100" viewBox="0 0 600 100" fill="none" xmlns="http://www.w3.org/2000/svg">
<path d="M4 16C4 9.37259 9.37258 4 16 4H584C590.627 4 596 9.37258 596 16V84C596 90.6274 590.627 96 584 96H16C9.37259 96 4 90.6274 4 84V16Z" fill="#013216" fill-opacity="0.75"/>
<path d="M126.57 25.104C133.146 25.104 138.258 26.472 141.906 29.208C145.554 31.944 147.378 36 147.378 41.376C147.378 46.992 145.578 51.24 141.978 54.12C138.426 56.952 133.65 58.368 127.65 58.368H122.25V75H110.442V25.104H126.57ZM126.642 49.872C129.426 49.872 131.538 49.224 132.978 47.928C134.466 46.584 135.21 44.4 135.21 41.376C135.21 36.144 132.282 33.528 126.426 33.528H122.25V49.872H126.642ZM166.322 25.104V75H154.514V25.104H166.322ZM188.315 25.104V65.64H207.755L206.531 75H176.507V25.104H188.315ZM226.129 25.104V75H214.321V25.104H226.129ZM254.785 25.104L238.873 47.496L256.081 75H242.401L226.489 48.36L242.329 25.104H254.785ZM294.898 25.104C301.474 25.104 306.586 26.472 310.234 29.208C313.882 31.944 315.706 36 315.706 41.376C315.706 46.992 313.906 51.24 310.306 54.12C306.754 56.952 301.978 58.368 295.978 58.368H290.578V75H278.77V25.104H294.898ZM294.97 49.872C297.754 49.872 299.866 49.224 301.306 47.928C302.794 46.584 303.538 44.4 303.538 41.376C303.538 36.144 300.61 33.528 294.754 33.528H290.578V49.872H294.97ZM353.442 25.104L352.218 33.528H334.65V45.48H349.986V53.76H334.65V66.504H353.442V75H322.842V25.104H353.442ZM387.92 75L385.328 64.272H370.784L368.264 75H356.024L371.072 25.104H385.4L400.448 75H387.92ZM372.8 55.704H383.312L378.056 33.672L372.8 55.704ZM416.817 25.104V65.64H436.257L435.033 75H405.009V25.104H416.817ZM473.423 25.104L472.199 33.528H454.631V45.48H469.967V53.76H454.631V66.504H473.423V75H442.823V25.104H473.423ZM491.629 25.104L490.189 56.64H480.973L479.533 25.104H491.629ZM485.581 63.192C487.405 63.192 488.941 63.84 490.189 65.136C491.485 66.384 492.133 67.896 492.133 69.672C492.133 71.496 491.485 73.056 490.189 74.352C488.941 75.6 487.405 76.224 485.581 76.224C483.805 76.224 482.269 75.6 480.973 74.352C479.725 73.056 479.101 71.496 479.101 69.672C479.101 67.896 479.725 66.384 480.973 65.136C482.269 63.84 483.805 63.192 485.581 63.192Z" fill="#C5F000"/>
</svg>
