<svg width="710" height="400" viewBox="0 0 710 400" fill="none" xmlns="http://www.w3.org/2000/svg">
<path d="M77.5 79.6C77.5 81.9667 77 84.0667 76 85.9C75 87.7333 73.5 89.1833 71.5 90.25C69.5333 91.2833 67.1333 91.8 64.3 91.8C60.0333 91.8 56.7667 90.7 54.5 88.5C52.2667 86.2667 51.15 83.3 51.15 79.6V56.4H58.5V79.25C58.5 81.5833 58.9667 83.3333 59.9 84.5C60.8333 85.6333 62.3 86.2 64.3 86.2C66.3 86.2 67.7667 85.6333 68.7 84.5C69.6667 83.3333 70.15 81.5833 70.15 79.25V56.4H77.5V79.6ZM105.915 91H99.7648L99.4148 87.45C98.4815 88.9167 97.3482 90.0167 96.0148 90.75C94.6815 91.45 93.1315 91.8 91.3648 91.8C88.9648 91.8 87.1315 91.0833 85.8648 89.65C84.5982 88.1833 83.9648 86.15 83.9648 83.55V64.5H91.0648V82.65C91.0648 84.05 91.2982 85.05 91.7648 85.65C92.2315 86.2167 92.9648 86.5 93.9648 86.5C95.8648 86.5 97.4815 85.35 98.8148 83.05V64.5H105.915V91ZM135.326 77.15C135.326 77.4833 135.276 78.4 135.176 79.9H118.626C118.859 82.3 119.509 84 120.576 85C121.642 86 123.092 86.5 124.926 86.5C126.059 86.5 127.126 86.3167 128.126 85.95C129.126 85.5833 130.209 85 131.376 84.2L134.326 88.2C131.359 90.6 128.009 91.8 124.276 91.8C120.109 91.8 116.909 90.55 114.676 88.05C112.442 85.55 111.326 82.1667 111.326 77.9C111.326 75.2 111.792 72.7833 112.726 70.65C113.692 68.4833 115.076 66.7833 116.876 65.55C118.709 64.3167 120.876 63.7 123.376 63.7C127.142 63.7 130.076 64.8833 132.176 67.25C134.276 69.6167 135.326 72.9167 135.326 77.15ZM128.276 75.15C128.276 70.75 126.692 68.55 123.526 68.55C122.059 68.55 120.909 69.1 120.076 70.2C119.276 71.2667 118.792 73.0167 118.626 75.45H128.276V75.15ZM147.065 91.8C144.898 91.8 143.215 91.1833 142.015 89.95C140.815 88.6833 140.215 86.9 140.215 84.6V53.95L147.315 53.15V84.4C147.315 85.5667 147.798 86.15 148.765 86.15C149.298 86.15 149.765 86.05 150.165 85.85L151.615 90.9C150.248 91.5 148.732 91.8 147.065 91.8ZM187.717 83.65C187.717 84.6833 187.867 85.45 188.167 85.95C188.467 86.4167 188.967 86.7667 189.667 87L188.167 91.7C186.6 91.5667 185.317 91.2 184.317 90.6C183.35 90 182.6 89.0667 182.067 87.8C180.333 90.4667 177.683 91.8 174.117 91.8C171.483 91.8 169.383 91.05 167.817 89.55C166.283 88.0167 165.517 86.0333 165.517 83.6C165.517 80.7 166.567 78.4833 168.667 76.95C170.767 75.4167 173.783 74.65 177.717 74.65H180.767V73.35C180.767 71.7167 180.4 70.5833 179.667 69.95C178.933 69.3167 177.717 69 176.017 69C174.15 69 171.817 69.4667 169.017 70.4L167.417 65.65C170.717 64.35 173.983 63.7 177.217 63.7C180.817 63.7 183.467 64.4833 185.167 66.05C186.867 67.5833 187.717 69.8833 187.717 72.95V83.65ZM176.067 86.7C178.067 86.7 179.633 85.7167 180.767 83.75V78.7H178.417C174.583 78.7 172.667 80.1333 172.667 83C172.667 84.1667 172.95 85.0833 173.517 85.75C174.117 86.3833 174.967 86.7 176.067 86.7ZM214.816 83.65C214.816 84.6833 214.966 85.45 215.266 85.95C215.566 86.4167 216.066 86.7667 216.766 87L215.266 91.7C213.7 91.5667 212.416 91.2 211.416 90.6C210.45 90 209.7 89.0667 209.166 87.8C207.433 90.4667 204.783 91.8 201.216 91.8C198.583 91.8 196.483 91.05 194.916 89.55C193.383 88.0167 192.616 86.0333 192.616 83.6C192.616 80.7 193.666 78.4833 195.766 76.95C197.866 75.4167 200.883 74.65 204.816 74.65H207.866V73.35C207.866 71.7167 207.5 70.5833 206.766 69.95C206.033 69.3167 204.816 69 203.116 69C201.25 69 198.916 69.4667 196.116 70.4L194.516 65.65C197.816 64.35 201.083 63.7 204.316 63.7C207.916 63.7 210.566 64.4833 212.266 66.05C213.966 67.5833 214.816 69.8833 214.816 72.95V83.65ZM203.166 86.7C205.166 86.7 206.733 85.7167 207.866 83.75V78.7H205.516C201.683 78.7 199.766 80.1333 199.766 83C199.766 84.1667 200.05 85.0833 200.616 85.75C201.216 86.3833 202.066 86.7 203.166 86.7ZM230.222 63.7C233.955 63.7 237.155 64.7667 239.822 66.9L237.122 70.95C234.889 69.55 232.689 68.85 230.522 68.85C229.355 68.85 228.455 69.0667 227.822 69.5C227.189 69.9333 226.872 70.5167 226.872 71.25C226.872 71.7833 227.005 72.2333 227.272 72.6C227.572 72.9667 228.105 73.3167 228.872 73.65C229.672 73.9833 230.855 74.3833 232.422 74.85C235.222 75.6167 237.305 76.65 238.672 77.95C240.039 79.2167 240.722 80.9667 240.722 83.2C240.722 84.9667 240.205 86.5 239.172 87.8C238.172 89.1 236.805 90.1 235.072 90.8C233.339 91.4667 231.405 91.8 229.272 91.8C227.039 91.8 225.005 91.4667 223.172 90.8C221.339 90.1 219.772 89.15 218.472 87.95L221.972 84.05C224.205 85.7833 226.572 86.65 229.072 86.65C230.405 86.65 231.455 86.4 232.222 85.9C233.022 85.3667 233.422 84.65 233.422 83.75C233.422 83.05 233.272 82.5 232.972 82.1C232.672 81.7 232.122 81.3333 231.322 81C230.522 80.6333 229.272 80.2167 227.572 79.75C224.905 79.0167 222.922 77.9833 221.622 76.65C220.355 75.2833 219.722 73.6 219.722 71.6C219.722 70.1 220.155 68.75 221.022 67.55C221.889 66.35 223.105 65.4167 224.672 64.75C226.272 64.05 228.122 63.7 230.222 63.7ZM261.198 89.75C260.231 90.4167 259.131 90.9167 257.898 91.25C256.698 91.6167 255.498 91.8 254.298 91.8C251.564 91.7667 249.498 90.9833 248.098 89.45C246.698 87.9167 245.998 85.6667 245.998 82.7V69.5H242.048V64.5H245.998V58.7L253.098 57.85V64.5H259.198L258.498 69.5H253.098V82.55C253.098 83.8167 253.314 84.7333 253.748 85.3C254.181 85.8667 254.848 86.15 255.748 86.15C256.648 86.15 257.648 85.85 258.748 85.25L261.198 89.75ZM284.055 83.65C284.055 84.6833 284.205 85.45 284.505 85.95C284.805 86.4167 285.305 86.7667 286.005 87L284.505 91.7C282.938 91.5667 281.655 91.2 280.655 90.6C279.688 90 278.938 89.0667 278.405 87.8C276.671 90.4667 274.021 91.8 270.455 91.8C267.821 91.8 265.721 91.05 264.155 89.55C262.621 88.0167 261.855 86.0333 261.855 83.6C261.855 80.7 262.905 78.4833 265.005 76.95C267.105 75.4167 270.121 74.65 274.055 74.65H277.105V73.35C277.105 71.7167 276.738 70.5833 276.005 69.95C275.271 69.3167 274.055 69 272.355 69C270.488 69 268.155 69.4667 265.355 70.4L263.755 65.65C267.055 64.35 270.321 63.7 273.555 63.7C277.155 63.7 279.805 64.4833 281.505 66.05C283.205 67.5833 284.055 69.8833 284.055 72.95V83.65ZM272.405 86.7C274.405 86.7 275.971 85.7167 277.105 83.75V78.7H274.755C270.921 78.7 269.005 80.1333 269.005 83C269.005 84.1667 269.288 85.0833 269.855 85.75C270.455 86.3833 271.305 86.7 272.405 86.7ZM297.26 91.8C295.093 91.8 293.41 91.1833 292.21 89.95C291.01 88.6833 290.41 86.9 290.41 84.6V53.95L297.51 53.15V84.4C297.51 85.5667 297.993 86.15 298.96 86.15C299.493 86.15 299.96 86.05 300.36 85.85L301.81 90.9C300.443 91.5 298.927 91.8 297.26 91.8ZM332.462 63.7C334.762 63.7 336.562 64.4167 337.862 65.85C339.195 67.25 339.862 69.2 339.862 71.7V91H332.762V72.9C332.762 71.4667 332.512 70.4667 332.012 69.9C331.512 69.3 330.795 69 329.862 69C327.995 69 326.295 70.2167 324.762 72.65V91H317.662V53.95L324.762 53.2V67.5C325.829 66.2333 326.979 65.2833 328.212 64.65C329.479 64.0167 330.895 63.7 332.462 63.7ZM366.867 83.65C366.867 84.6833 367.017 85.45 367.317 85.95C367.617 86.4167 368.117 86.7667 368.817 87L367.317 91.7C365.751 91.5667 364.467 91.2 363.467 90.6C362.501 90 361.751 89.0667 361.217 87.8C359.484 90.4667 356.834 91.8 353.267 91.8C350.634 91.8 348.534 91.05 346.967 89.55C345.434 88.0167 344.667 86.0333 344.667 83.6C344.667 80.7 345.717 78.4833 347.817 76.95C349.917 75.4167 352.934 74.65 356.867 74.65H359.917V73.35C359.917 71.7167 359.551 70.5833 358.817 69.95C358.084 69.3167 356.867 69 355.167 69C353.301 69 350.967 69.4667 348.167 70.4L346.567 65.65C349.867 64.35 353.134 63.7 356.367 63.7C359.967 63.7 362.617 64.4833 364.317 66.05C366.017 67.5833 366.867 69.8833 366.867 72.95V83.65ZM355.217 86.7C357.217 86.7 358.784 85.7167 359.917 83.75V78.7H357.567C353.734 78.7 351.817 80.1333 351.817 83C351.817 84.1667 352.101 85.0833 352.667 85.75C353.267 86.3833 354.117 86.7 355.217 86.7ZM381.061 53.15V91H373.961V53.95L381.061 53.15ZM397.161 64.5L388.711 76.15L397.911 91H389.861L381.311 76.5L389.811 64.5H397.161ZM408.161 53.15V91H401.061V53.95L408.161 53.15ZM424.261 64.5L415.811 76.15L425.011 91H416.961L408.411 76.5L416.911 64.5H424.261ZM447.678 83.65C447.678 84.6833 447.828 85.45 448.128 85.95C448.428 86.4167 448.928 86.7667 449.628 87L448.128 91.7C446.561 91.5667 445.278 91.2 444.278 90.6C443.311 90 442.561 89.0667 442.028 87.8C440.294 90.4667 437.644 91.8 434.078 91.8C431.444 91.8 429.344 91.05 427.778 89.55C426.244 88.0167 425.478 86.0333 425.478 83.6C425.478 80.7 426.528 78.4833 428.628 76.95C430.728 75.4167 433.744 74.65 437.678 74.65H440.728V73.35C440.728 71.7167 440.361 70.5833 439.628 69.95C438.894 69.3167 437.678 69 435.978 69C434.111 69 431.778 69.4667 428.978 70.4L427.378 65.65C430.678 64.35 433.944 63.7 437.178 63.7C440.778 63.7 443.428 64.4833 445.128 66.05C446.828 67.5833 447.678 69.8833 447.678 72.95V83.65ZM436.028 86.7C438.028 86.7 439.594 85.7167 440.728 83.75V78.7H438.378C434.544 78.7 432.628 80.1333 432.628 83C432.628 84.1667 432.911 85.0833 433.478 85.75C434.078 86.3833 434.928 86.7 436.028 86.7ZM469.571 63.7C471.905 63.7 473.721 64.4167 475.021 65.85C476.321 67.25 476.971 69.2 476.971 71.7V91H469.871V72.9C469.871 71.4667 469.621 70.4667 469.121 69.9C468.655 69.3 467.938 69 466.971 69C465.971 69 465.055 69.3167 464.221 69.95C463.421 70.55 462.638 71.4667 461.871 72.7V91H454.771V64.5H460.921L461.471 67.85C462.571 66.4833 463.771 65.45 465.071 64.75C466.405 64.05 467.905 63.7 469.571 63.7ZM65.2 118.75C66 118.75 66.8833 118.883 67.85 119.15L66.65 126C65.7167 125.767 64.9333 125.65 64.3 125.65C62.7333 125.65 61.5167 126.2 60.65 127.3C59.7833 128.4 59.1 130.067 58.6 132.3V146H51.5V119.5H57.65L58.3 124.65C58.9333 122.783 59.85 121.333 61.05 120.3C62.2833 119.267 63.6667 118.75 65.2 118.75ZM92.2594 132.15C92.2594 132.483 92.2094 133.4 92.1094 134.9H75.5594C75.7927 137.3 76.4427 139 77.5094 140C78.576 141 80.026 141.5 81.8594 141.5C82.9927 141.5 84.0594 141.317 85.0594 140.95C86.0594 140.583 87.1427 140 88.3094 139.2L91.2594 143.2C88.2927 145.6 84.9427 146.8 81.2094 146.8C77.0427 146.8 73.8427 145.55 71.6094 143.05C69.376 140.55 68.2594 137.167 68.2594 132.9C68.2594 130.2 68.726 127.783 69.6594 125.65C70.626 123.483 72.0094 121.783 73.8094 120.55C75.6427 119.317 77.8094 118.7 80.3094 118.7C84.076 118.7 87.0094 119.883 89.1094 122.25C91.2094 124.617 92.2594 127.917 92.2594 132.15ZM85.2094 130.15C85.2094 125.75 83.626 123.55 80.4594 123.55C78.9927 123.55 77.8427 124.1 77.0094 125.2C76.2094 126.267 75.726 128.017 75.5594 130.45H85.2094V130.15ZM121.098 120.95C119.365 121.617 116.815 121.95 113.448 121.95C115.115 122.683 116.348 123.6 117.148 124.7C117.948 125.767 118.348 127.117 118.348 128.75C118.348 130.45 117.898 131.983 116.998 133.35C116.132 134.683 114.865 135.733 113.198 136.5C111.565 137.267 109.648 137.65 107.448 137.65C106.282 137.65 105.248 137.533 104.348 137.3C103.682 137.733 103.348 138.317 103.348 139.05C103.348 139.583 103.548 140.017 103.948 140.35C104.382 140.65 105.198 140.8 106.398 140.8H110.448C112.415 140.8 114.132 141.133 115.598 141.8C117.098 142.433 118.248 143.333 119.048 144.5C119.882 145.633 120.298 146.933 120.298 148.4C120.298 151.1 119.132 153.2 116.798 154.7C114.498 156.233 111.165 157 106.798 157C103.665 157 101.182 156.667 99.3484 156C97.5484 155.367 96.2818 154.433 95.5484 153.2C94.8151 151.967 94.4484 150.417 94.4484 148.55H100.798C100.798 149.417 100.965 150.1 101.298 150.6C101.632 151.133 102.232 151.517 103.098 151.75C103.998 152.017 105.282 152.15 106.948 152.15C109.248 152.15 110.848 151.867 111.748 151.3C112.682 150.733 113.148 149.933 113.148 148.9C113.148 147.967 112.798 147.25 112.098 146.75C111.398 146.25 110.365 146 108.998 146H105.098C102.465 146 100.498 145.517 99.1984 144.55C97.8984 143.55 97.2484 142.3 97.2484 140.8C97.2484 139.867 97.5151 138.967 98.0484 138.1C98.6151 137.2 99.3818 136.45 100.348 135.85C98.7151 134.95 97.5151 133.9 96.7484 132.7C96.0151 131.467 95.6484 130 95.6484 128.3C95.6484 126.367 96.1151 124.683 97.0484 123.25C98.0151 121.783 99.3484 120.667 101.048 119.9C102.782 119.1 104.748 118.7 106.948 118.7C109.682 118.767 111.932 118.533 113.698 118C115.465 117.467 117.348 116.633 119.348 115.5L121.098 120.95ZM107.098 123.45C105.765 123.45 104.698 123.883 103.898 124.75C103.132 125.583 102.748 126.733 102.748 128.2C102.748 129.7 103.132 130.883 103.898 131.75C104.698 132.617 105.782 133.05 107.148 133.05C108.582 133.05 109.665 132.633 110.398 131.8C111.132 130.967 111.498 129.733 111.498 128.1C111.498 125 110.032 123.45 107.098 123.45ZM145.807 146H139.657L139.307 142.45C138.374 143.917 137.241 145.017 135.907 145.75C134.574 146.45 133.024 146.8 131.257 146.8C128.857 146.8 127.024 146.083 125.757 144.65C124.491 143.183 123.857 141.15 123.857 138.55V119.5H130.957V137.65C130.957 139.05 131.191 140.05 131.657 140.65C132.124 141.217 132.857 141.5 133.857 141.5C135.757 141.5 137.374 140.35 138.707 138.05V119.5H145.807V146ZM159.418 146.8C157.252 146.8 155.568 146.183 154.368 144.95C153.168 143.683 152.568 141.9 152.568 139.6V108.95L159.668 108.15V139.4C159.668 140.567 160.152 141.15 161.118 141.15C161.652 141.15 162.118 141.05 162.518 140.85L163.968 145.9C162.602 146.5 161.085 146.8 159.418 146.8ZM187.619 138.65C187.619 139.683 187.769 140.45 188.069 140.95C188.369 141.417 188.869 141.767 189.569 142L188.069 146.7C186.502 146.567 185.219 146.2 184.219 145.6C183.252 145 182.502 144.067 181.969 142.8C180.236 145.467 177.586 146.8 174.019 146.8C171.386 146.8 169.286 146.05 167.719 144.55C166.186 143.017 165.419 141.033 165.419 138.6C165.419 135.7 166.469 133.483 168.569 131.95C170.669 130.417 173.686 129.65 177.619 129.65H180.669V128.35C180.669 126.717 180.302 125.583 179.569 124.95C178.836 124.317 177.619 124 175.919 124C174.052 124 171.719 124.467 168.919 125.4L167.319 120.65C170.619 119.35 173.886 118.7 177.119 118.7C180.719 118.7 183.369 119.483 185.069 121.05C186.769 122.583 187.619 124.883 187.619 127.95V138.65ZM175.969 141.7C177.969 141.7 179.536 140.717 180.669 138.75V133.7H178.319C174.486 133.7 172.569 135.133 172.569 138C172.569 139.167 172.852 140.083 173.419 140.75C174.019 141.383 174.869 141.7 175.969 141.7ZM214.719 138.65C214.719 139.683 214.869 140.45 215.169 140.95C215.469 141.417 215.969 141.767 216.669 142L215.169 146.7C213.602 146.567 212.319 146.2 211.319 145.6C210.352 145 209.602 144.067 209.069 142.8C207.335 145.467 204.685 146.8 201.119 146.8C198.485 146.8 196.385 146.05 194.819 144.55C193.285 143.017 192.519 141.033 192.519 138.6C192.519 135.7 193.569 133.483 195.669 131.95C197.769 130.417 200.785 129.65 204.719 129.65H207.769V128.35C207.769 126.717 207.402 125.583 206.669 124.95C205.935 124.317 204.719 124 203.019 124C201.152 124 198.819 124.467 196.019 125.4L194.419 120.65C197.719 119.35 200.985 118.7 204.219 118.7C207.819 118.7 210.469 119.483 212.169 121.05C213.869 122.583 214.719 124.883 214.719 127.95V138.65ZM203.069 141.7C205.069 141.7 206.635 140.717 207.769 138.75V133.7H205.419C201.585 133.7 199.669 135.133 199.669 138C199.669 139.167 199.952 140.083 200.519 140.75C201.119 141.383 201.969 141.7 203.069 141.7ZM235.513 118.75C236.313 118.75 237.196 118.883 238.163 119.15L236.963 126C236.029 125.767 235.246 125.65 234.613 125.65C233.046 125.65 231.829 126.2 230.963 127.3C230.096 128.4 229.413 130.067 228.913 132.3V146H221.813V119.5H227.963L228.613 124.65C229.246 122.783 230.163 121.333 231.363 120.3C232.596 119.267 233.979 118.75 235.513 118.75ZM249.851 118.7C253.584 118.7 256.784 119.767 259.451 121.9L256.751 125.95C254.517 124.55 252.317 123.85 250.151 123.85C248.984 123.85 248.084 124.067 247.451 124.5C246.817 124.933 246.501 125.517 246.501 126.25C246.501 126.783 246.634 127.233 246.901 127.6C247.201 127.967 247.734 128.317 248.501 128.65C249.301 128.983 250.484 129.383 252.051 129.85C254.851 130.617 256.934 131.65 258.301 132.95C259.667 134.217 260.351 135.967 260.351 138.2C260.351 139.967 259.834 141.5 258.801 142.8C257.801 144.1 256.434 145.1 254.701 145.8C252.967 146.467 251.034 146.8 248.901 146.8C246.667 146.8 244.634 146.467 242.801 145.8C240.967 145.1 239.401 144.15 238.101 142.95L241.601 139.05C243.834 140.783 246.201 141.65 248.701 141.65C250.034 141.65 251.084 141.4 251.851 140.9C252.651 140.367 253.051 139.65 253.051 138.75C253.051 138.05 252.901 137.5 252.601 137.1C252.301 136.7 251.751 136.333 250.951 136C250.151 135.633 248.901 135.217 247.201 134.75C244.534 134.017 242.551 132.983 241.251 131.65C239.984 130.283 239.351 128.6 239.351 126.6C239.351 125.1 239.784 123.75 240.651 122.55C241.517 121.35 242.734 120.417 244.301 119.75C245.901 119.05 247.751 118.7 249.851 118.7ZM287.377 132.15C287.377 132.483 287.327 133.4 287.227 134.9H270.677C270.91 137.3 271.56 139 272.627 140C273.693 141 275.143 141.5 276.977 141.5C278.11 141.5 279.177 141.317 280.177 140.95C281.177 140.583 282.26 140 283.427 139.2L286.377 143.2C283.41 145.6 280.06 146.8 276.327 146.8C272.16 146.8 268.96 145.55 266.727 143.05C264.493 140.55 263.377 137.167 263.377 132.9C263.377 130.2 263.843 127.783 264.777 125.65C265.743 123.483 267.127 121.783 268.927 120.55C270.76 119.317 272.927 118.7 275.427 118.7C279.193 118.7 282.127 119.883 284.227 122.25C286.327 124.617 287.377 127.917 287.377 132.15ZM280.327 130.15C280.327 125.75 278.743 123.55 275.577 123.55C274.11 123.55 272.96 124.1 272.127 125.2C271.327 126.267 270.843 128.017 270.677 130.45H280.327V130.15ZM299.116 146.8C296.949 146.8 295.266 146.183 294.066 144.95C292.866 143.683 292.266 141.9 292.266 139.6V108.95L299.366 108.15V139.4C299.366 140.567 299.849 141.15 300.816 141.15C301.349 141.15 301.816 141.05 302.216 140.85L303.666 145.9C302.299 146.5 300.782 146.8 299.116 146.8ZM323.161 144.75C322.194 145.417 321.094 145.917 319.861 146.25C318.661 146.617 317.461 146.8 316.261 146.8C313.527 146.767 311.461 145.983 310.061 144.45C308.661 142.917 307.961 140.667 307.961 137.7V124.5H304.011V119.5H307.961V113.7L315.061 112.85V119.5H321.161L320.461 124.5H315.061V137.55C315.061 138.817 315.277 139.733 315.711 140.3C316.144 140.867 316.811 141.15 317.711 141.15C318.611 141.15 319.611 140.85 320.711 140.25L323.161 144.75ZM347.312 118.7C351.045 118.7 354.245 119.767 356.912 121.9L354.212 125.95C351.978 124.55 349.778 123.85 347.612 123.85C346.445 123.85 345.545 124.067 344.912 124.5C344.278 124.933 343.962 125.517 343.962 126.25C343.962 126.783 344.095 127.233 344.362 127.6C344.662 127.967 345.195 128.317 345.962 128.65C346.762 128.983 347.945 129.383 349.512 129.85C352.312 130.617 354.395 131.65 355.762 132.95C357.128 134.217 357.812 135.967 357.812 138.2C357.812 139.967 357.295 141.5 356.262 142.8C355.262 144.1 353.895 145.1 352.162 145.8C350.428 146.467 348.495 146.8 346.362 146.8C344.128 146.8 342.095 146.467 340.262 145.8C338.428 145.1 336.862 144.15 335.562 142.95L339.062 139.05C341.295 140.783 343.662 141.65 346.162 141.65C347.495 141.65 348.545 141.4 349.312 140.9C350.112 140.367 350.512 139.65 350.512 138.75C350.512 138.05 350.362 137.5 350.062 137.1C349.762 136.7 349.212 136.333 348.412 136C347.612 135.633 346.362 135.217 344.662 134.75C341.995 134.017 340.012 132.983 338.712 131.65C337.445 130.283 336.812 128.6 336.812 126.6C336.812 125.1 337.245 123.75 338.112 122.55C338.978 121.35 340.195 120.417 341.762 119.75C343.362 119.05 345.212 118.7 347.312 118.7ZM376.738 118.7C380.071 118.7 382.538 119.933 384.138 122.4C385.771 124.833 386.588 128.267 386.588 132.7C386.588 135.4 386.171 137.817 385.337 139.95C384.504 142.083 383.288 143.767 381.688 145C380.121 146.2 378.254 146.8 376.088 146.8C373.388 146.8 371.204 145.85 369.538 143.95V156.2L362.438 157V119.5H368.688L369.038 122.6C370.038 121.3 371.204 120.333 372.538 119.7C373.904 119.033 375.304 118.7 376.738 118.7ZM373.988 141.5C377.454 141.5 379.188 138.583 379.188 132.75C379.188 129.55 378.804 127.283 378.038 125.95C377.271 124.617 376.104 123.95 374.538 123.95C373.538 123.95 372.604 124.267 371.738 124.9C370.904 125.5 370.171 126.317 369.538 127.35V138.9C370.671 140.633 372.154 141.5 373.988 141.5ZM403.373 118.7C407.339 118.7 410.439 119.95 412.673 122.45C414.906 124.917 416.023 128.35 416.023 132.75C416.023 135.55 415.506 138.017 414.473 140.15C413.473 142.25 412.006 143.883 410.073 145.05C408.173 146.217 405.923 146.8 403.323 146.8C399.356 146.8 396.239 145.567 393.973 143.1C391.739 140.6 390.623 137.15 390.623 132.75C390.623 129.95 391.123 127.5 392.123 125.4C393.156 123.267 394.623 121.617 396.523 120.45C398.456 119.283 400.739 118.7 403.373 118.7ZM403.373 124C401.573 124 400.223 124.717 399.323 126.15C398.456 127.55 398.023 129.75 398.023 132.75C398.023 135.75 398.456 137.967 399.323 139.4C400.223 140.8 401.556 141.5 403.323 141.5C405.089 141.5 406.406 140.8 407.273 139.4C408.173 137.967 408.623 135.75 408.623 132.75C408.623 129.75 408.189 127.55 407.323 126.15C406.456 124.717 405.139 124 403.373 124ZM435.122 118.75C435.922 118.75 436.805 118.883 437.772 119.15L436.572 126C435.639 125.767 434.855 125.65 434.222 125.65C432.655 125.65 431.439 126.2 430.572 127.3C429.705 128.4 429.022 130.067 428.522 132.3V146H421.422V119.5H427.572L428.222 124.65C428.855 122.783 429.772 121.333 430.972 120.3C432.205 119.267 433.589 118.75 435.122 118.75ZM457.145 144.75C456.178 145.417 455.078 145.917 453.845 146.25C452.645 146.617 451.445 146.8 450.245 146.8C447.512 146.767 445.445 145.983 444.045 144.45C442.645 142.917 441.945 140.667 441.945 137.7V124.5H437.995V119.5H441.945V113.7L449.045 112.85V119.5H455.145L454.445 124.5H449.045V137.55C449.045 138.817 449.262 139.733 449.695 140.3C450.128 140.867 450.795 141.15 451.695 141.15C452.595 141.15 453.595 140.85 454.695 140.25L457.145 144.75ZM467.389 119.5V146H460.289V119.5H467.389ZM463.789 105.85C465.056 105.85 466.089 106.25 466.889 107.05C467.722 107.817 468.139 108.8 468.139 110C468.139 111.2 467.722 112.2 466.889 113C466.089 113.767 465.056 114.15 463.789 114.15C462.522 114.15 461.489 113.767 460.689 113C459.889 112.2 459.489 111.2 459.489 110C459.489 108.8 459.889 107.817 460.689 107.05C461.489 106.25 462.522 105.85 463.789 105.85ZM503.05 118.7C505.15 118.7 506.834 119.417 508.1 120.85C509.4 122.283 510.05 124.233 510.05 126.7V146H502.95V127.9C502.95 125.3 502.084 124 500.35 124C499.417 124 498.6 124.3 497.9 124.9C497.2 125.5 496.484 126.433 495.75 127.7V146H488.65V127.9C488.65 125.3 487.784 124 486.05 124C485.117 124 484.3 124.317 483.6 124.95C482.9 125.55 482.2 126.467 481.5 127.7V146H474.4V119.5H480.55L481.1 122.8C482.1 121.467 483.217 120.45 484.45 119.75C485.717 119.05 487.167 118.7 488.8 118.7C490.3 118.7 491.6 119.083 492.7 119.85C493.8 120.583 494.6 121.633 495.1 123C496.2 121.567 497.384 120.5 498.65 119.8C499.95 119.067 501.417 118.7 503.05 118.7ZM537.033 138.65C537.033 139.683 537.183 140.45 537.483 140.95C537.783 141.417 538.283 141.767 538.983 142L537.483 146.7C535.917 146.567 534.633 146.2 533.633 145.6C532.667 145 531.917 144.067 531.383 142.8C529.65 145.467 527 146.8 523.433 146.8C520.8 146.8 518.7 146.05 517.133 144.55C515.6 143.017 514.833 141.033 514.833 138.6C514.833 135.7 515.883 133.483 517.983 131.95C520.083 130.417 523.1 129.65 527.033 129.65H530.083V128.35C530.083 126.717 529.717 125.583 528.983 124.95C528.25 124.317 527.033 124 525.333 124C523.467 124 521.133 124.467 518.333 125.4L516.733 120.65C520.033 119.35 523.3 118.7 526.533 118.7C530.133 118.7 532.783 119.483 534.483 121.05C536.183 122.583 537.033 124.883 537.033 127.95V138.65ZM525.383 141.7C527.383 141.7 528.95 140.717 530.083 138.75V133.7H527.733C523.9 133.7 521.983 135.133 521.983 138C521.983 139.167 522.267 140.083 522.833 140.75C523.433 141.383 524.283 141.7 525.383 141.7ZM546.577 138.25C547.777 138.25 548.794 138.667 549.627 139.5C550.46 140.333 550.877 141.333 550.877 142.5C550.877 143.667 550.46 144.683 549.627 145.55C548.794 146.383 547.777 146.8 546.577 146.8C545.41 146.8 544.41 146.383 543.577 145.55C542.744 144.683 542.327 143.667 542.327 142.5C542.327 141.333 542.744 140.333 543.577 139.5C544.41 138.667 545.41 138.25 546.577 138.25Z" fill="#E3000F"/>
<path d="M54.5 176.25V199H50.5781V176.25H54.5ZM68.4844 194.422C68.4844 194.047 68.3906 193.708 68.2031 193.406C68.0156 193.094 67.6562 192.812 67.125 192.562C66.6042 192.312 65.8333 192.083 64.8125 191.875C63.9167 191.677 63.0938 191.443 62.3438 191.172C61.6042 190.891 60.9688 190.552 60.4375 190.156C59.9062 189.76 59.4948 189.292 59.2031 188.75C58.9115 188.208 58.7656 187.583 58.7656 186.875C58.7656 186.188 58.9167 185.536 59.2188 184.922C59.5208 184.307 59.9531 183.766 60.5156 183.297C61.0781 182.828 61.7604 182.458 62.5625 182.188C63.375 181.917 64.2812 181.781 65.2812 181.781C66.6979 181.781 67.9115 182.021 68.9219 182.5C69.9427 182.969 70.724 183.609 71.2656 184.422C71.8073 185.224 72.0781 186.13 72.0781 187.141H68.3125C68.3125 186.693 68.1979 186.276 67.9688 185.891C67.75 185.495 67.4167 185.177 66.9688 184.938C66.5208 184.688 65.9583 184.562 65.2812 184.562C64.6354 184.562 64.099 184.667 63.6719 184.875C63.2552 185.073 62.9427 185.333 62.7344 185.656C62.5365 185.979 62.4375 186.333 62.4375 186.719C62.4375 187 62.4896 187.255 62.5938 187.484C62.7083 187.703 62.8958 187.906 63.1562 188.094C63.4167 188.271 63.7708 188.438 64.2188 188.594C64.6771 188.75 65.25 188.901 65.9375 189.047C67.2292 189.318 68.3385 189.667 69.2656 190.094C70.2031 190.51 70.9219 191.052 71.4219 191.719C71.9219 192.375 72.1719 193.208 72.1719 194.219C72.1719 194.969 72.0104 195.656 71.6875 196.281C71.375 196.896 70.9167 197.432 70.3125 197.891C69.7083 198.339 68.9844 198.688 68.1406 198.938C67.3073 199.188 66.3698 199.312 65.3281 199.312C63.7969 199.312 62.5 199.042 61.4375 198.5C60.375 197.948 59.5677 197.245 59.0156 196.391C58.474 195.526 58.2031 194.63 58.2031 193.703H61.8438C61.8854 194.401 62.0781 194.958 62.4219 195.375C62.776 195.781 63.2135 196.078 63.7344 196.266C64.2656 196.443 64.8125 196.531 65.375 196.531C66.0521 196.531 66.6198 196.443 67.0781 196.266C67.5365 196.078 67.8854 195.828 68.125 195.516C68.3646 195.193 68.4844 194.828 68.4844 194.422ZM82.9219 199.312C81.6719 199.312 80.5417 199.109 79.5312 198.703C78.5312 198.286 77.6771 197.708 76.9688 196.969C76.2708 196.229 75.7344 195.359 75.3594 194.359C74.9844 193.359 74.7969 192.281 74.7969 191.125V190.5C74.7969 189.177 74.9896 187.979 75.375 186.906C75.7604 185.833 76.2969 184.917 76.9844 184.156C77.6719 183.385 78.4844 182.797 79.4219 182.391C80.3594 181.984 81.375 181.781 82.4688 181.781C83.6771 181.781 84.7344 181.984 85.6406 182.391C86.5469 182.797 87.2969 183.37 87.8906 184.109C88.4948 184.839 88.9427 185.708 89.2344 186.719C89.5365 187.729 89.6875 188.844 89.6875 190.062V191.672H76.625V188.969H85.9688V188.672C85.9479 187.995 85.8125 187.359 85.5625 186.766C85.3229 186.172 84.9531 185.693 84.4531 185.328C83.9531 184.964 83.2865 184.781 82.4531 184.781C81.8281 184.781 81.2708 184.917 80.7812 185.188C80.3021 185.448 79.901 185.828 79.5781 186.328C79.2552 186.828 79.0052 187.432 78.8281 188.141C78.6615 188.839 78.5781 189.625 78.5781 190.5V191.125C78.5781 191.865 78.6771 192.552 78.875 193.188C79.0833 193.812 79.3854 194.359 79.7812 194.828C80.1771 195.297 80.6562 195.667 81.2188 195.938C81.7812 196.198 82.4219 196.328 83.1406 196.328C84.0469 196.328 84.8542 196.146 85.5625 195.781C86.2708 195.417 86.8854 194.901 87.4062 194.234L89.3906 196.156C89.026 196.688 88.5521 197.198 87.9688 197.688C87.3854 198.167 86.6719 198.557 85.8281 198.859C84.9948 199.161 84.026 199.312 82.9219 199.312ZM103.453 182.094H106.875V198.531C106.875 200.052 106.552 201.344 105.906 202.406C105.26 203.469 104.359 204.276 103.203 204.828C102.047 205.391 100.708 205.672 99.1875 205.672C98.5417 205.672 97.8229 205.578 97.0312 205.391C96.25 205.203 95.4896 204.901 94.75 204.484C94.0208 204.078 93.4115 203.542 92.9219 202.875L94.6875 200.656C95.2917 201.375 95.9583 201.901 96.6875 202.234C97.4167 202.568 98.1823 202.734 98.9844 202.734C99.849 202.734 100.583 202.573 101.188 202.25C101.802 201.938 102.276 201.474 102.609 200.859C102.943 200.245 103.109 199.495 103.109 198.609V185.922L103.453 182.094ZM91.9688 190.734V190.406C91.9688 189.125 92.125 187.958 92.4375 186.906C92.75 185.844 93.1979 184.932 93.7812 184.172C94.3646 183.401 95.0729 182.812 95.9062 182.406C96.7396 181.99 97.6823 181.781 98.7344 181.781C99.8281 181.781 100.76 181.979 101.531 182.375C102.312 182.771 102.964 183.339 103.484 184.078C104.005 184.807 104.411 185.682 104.703 186.703C105.005 187.714 105.229 188.839 105.375 190.078V191.125C105.24 192.333 105.01 193.438 104.688 194.438C104.365 195.438 103.938 196.302 103.406 197.031C102.875 197.76 102.219 198.323 101.438 198.719C100.667 199.115 99.7552 199.312 98.7031 199.312C97.6719 199.312 96.7396 199.099 95.9062 198.672C95.0833 198.245 94.375 197.646 93.7812 196.875C93.1979 196.104 92.75 195.198 92.4375 194.156C92.125 193.104 91.9688 191.964 91.9688 190.734ZM95.7344 190.406V190.734C95.7344 191.505 95.8073 192.224 95.9531 192.891C96.1094 193.557 96.3438 194.146 96.6562 194.656C96.9792 195.156 97.3854 195.552 97.875 195.844C98.375 196.125 98.9635 196.266 99.6406 196.266C100.526 196.266 101.25 196.078 101.812 195.703C102.385 195.328 102.823 194.823 103.125 194.188C103.438 193.542 103.656 192.823 103.781 192.031V189.203C103.719 188.589 103.589 188.016 103.391 187.484C103.203 186.953 102.948 186.49 102.625 186.094C102.302 185.688 101.896 185.375 101.406 185.156C100.917 184.927 100.339 184.812 99.6719 184.812C98.9948 184.812 98.4062 184.958 97.9062 185.25C97.4062 185.542 96.9948 185.943 96.6719 186.453C96.3594 186.964 96.125 187.557 95.9688 188.234C95.8125 188.911 95.7344 189.635 95.7344 190.406ZM114.812 182.094V199H111.031V182.094H114.812ZM110.781 177.656C110.781 177.083 110.969 176.609 111.344 176.234C111.729 175.849 112.26 175.656 112.938 175.656C113.604 175.656 114.13 175.849 114.516 176.234C114.901 176.609 115.094 177.083 115.094 177.656C115.094 178.219 114.901 178.688 114.516 179.062C114.13 179.438 113.604 179.625 112.938 179.625C112.26 179.625 111.729 179.438 111.344 179.062C110.969 178.688 110.781 178.219 110.781 177.656ZM130.703 175V199H126.922V175H130.703ZM141.203 182.094L133.844 190.25L129.812 194.375L128.828 191.188L131.875 187.422L136.656 182.094H141.203ZM137.469 199L131.984 191.062L134.359 188.422L141.828 199H137.469ZM153.766 195.016V182.094H157.547V199H153.984L153.766 195.016ZM154.297 191.5L155.562 191.469C155.562 192.604 155.438 193.651 155.188 194.609C154.938 195.557 154.552 196.385 154.031 197.094C153.51 197.792 152.844 198.339 152.031 198.734C151.219 199.12 150.245 199.312 149.109 199.312C148.286 199.312 147.531 199.193 146.844 198.953C146.156 198.714 145.562 198.344 145.062 197.844C144.573 197.344 144.193 196.693 143.922 195.891C143.651 195.089 143.516 194.13 143.516 193.016V182.094H147.281V193.047C147.281 193.661 147.354 194.177 147.5 194.594C147.646 195 147.844 195.328 148.094 195.578C148.344 195.828 148.635 196.005 148.969 196.109C149.302 196.214 149.656 196.266 150.031 196.266C151.104 196.266 151.948 196.057 152.562 195.641C153.188 195.214 153.63 194.641 153.891 193.922C154.161 193.203 154.297 192.396 154.297 191.5ZM165.438 182.094V199H161.656V182.094H165.438ZM161.406 177.656C161.406 177.083 161.594 176.609 161.969 176.234C162.354 175.849 162.885 175.656 163.562 175.656C164.229 175.656 164.755 175.849 165.141 176.234C165.526 176.609 165.719 177.083 165.719 177.656C165.719 178.219 165.526 178.688 165.141 179.062C164.755 179.438 164.229 179.625 163.562 179.625C162.885 179.625 162.354 179.438 161.969 179.062C161.594 178.688 161.406 178.219 161.406 177.656ZM187.016 194.422C187.016 194.047 186.922 193.708 186.734 193.406C186.547 193.094 186.188 192.812 185.656 192.562C185.135 192.312 184.365 192.083 183.344 191.875C182.448 191.677 181.625 191.443 180.875 191.172C180.135 190.891 179.5 190.552 178.969 190.156C178.438 189.76 178.026 189.292 177.734 188.75C177.443 188.208 177.297 187.583 177.297 186.875C177.297 186.188 177.448 185.536 177.75 184.922C178.052 184.307 178.484 183.766 179.047 183.297C179.609 182.828 180.292 182.458 181.094 182.188C181.906 181.917 182.812 181.781 183.812 181.781C185.229 181.781 186.443 182.021 187.453 182.5C188.474 182.969 189.255 183.609 189.797 184.422C190.339 185.224 190.609 186.13 190.609 187.141H186.844C186.844 186.693 186.729 186.276 186.5 185.891C186.281 185.495 185.948 185.177 185.5 184.938C185.052 184.688 184.49 184.562 183.812 184.562C183.167 184.562 182.63 184.667 182.203 184.875C181.786 185.073 181.474 185.333 181.266 185.656C181.068 185.979 180.969 186.333 180.969 186.719C180.969 187 181.021 187.255 181.125 187.484C181.24 187.703 181.427 187.906 181.688 188.094C181.948 188.271 182.302 188.438 182.75 188.594C183.208 188.75 183.781 188.901 184.469 189.047C185.76 189.318 186.87 189.667 187.797 190.094C188.734 190.51 189.453 191.052 189.953 191.719C190.453 192.375 190.703 193.208 190.703 194.219C190.703 194.969 190.542 195.656 190.219 196.281C189.906 196.896 189.448 197.432 188.844 197.891C188.24 198.339 187.516 198.688 186.672 198.938C185.839 199.188 184.901 199.312 183.859 199.312C182.328 199.312 181.031 199.042 179.969 198.5C178.906 197.948 178.099 197.245 177.547 196.391C177.005 195.526 176.734 194.63 176.734 193.703H180.375C180.417 194.401 180.609 194.958 180.953 195.375C181.307 195.781 181.745 196.078 182.266 196.266C182.797 196.443 183.344 196.531 183.906 196.531C184.583 196.531 185.151 196.443 185.609 196.266C186.068 196.078 186.417 195.828 186.656 195.516C186.896 195.193 187.016 194.828 187.016 194.422ZM201.453 199.312C200.203 199.312 199.073 199.109 198.062 198.703C197.062 198.286 196.208 197.708 195.5 196.969C194.802 196.229 194.266 195.359 193.891 194.359C193.516 193.359 193.328 192.281 193.328 191.125V190.5C193.328 189.177 193.521 187.979 193.906 186.906C194.292 185.833 194.828 184.917 195.516 184.156C196.203 183.385 197.016 182.797 197.953 182.391C198.891 181.984 199.906 181.781 201 181.781C202.208 181.781 203.266 181.984 204.172 182.391C205.078 182.797 205.828 183.37 206.422 184.109C207.026 184.839 207.474 185.708 207.766 186.719C208.068 187.729 208.219 188.844 208.219 190.062V191.672H195.156V188.969H204.5V188.672C204.479 187.995 204.344 187.359 204.094 186.766C203.854 186.172 203.484 185.693 202.984 185.328C202.484 184.964 201.818 184.781 200.984 184.781C200.359 184.781 199.802 184.917 199.312 185.188C198.833 185.448 198.432 185.828 198.109 186.328C197.786 186.828 197.536 187.432 197.359 188.141C197.193 188.839 197.109 189.625 197.109 190.5V191.125C197.109 191.865 197.208 192.552 197.406 193.188C197.615 193.812 197.917 194.359 198.312 194.828C198.708 195.297 199.188 195.667 199.75 195.938C200.312 196.198 200.953 196.328 201.672 196.328C202.578 196.328 203.385 196.146 204.094 195.781C204.802 195.417 205.417 194.901 205.938 194.234L207.922 196.156C207.557 196.688 207.083 197.198 206.5 197.688C205.917 198.167 205.203 198.557 204.359 198.859C203.526 199.161 202.557 199.312 201.453 199.312ZM218.609 199.312C217.359 199.312 216.229 199.109 215.219 198.703C214.219 198.286 213.365 197.708 212.656 196.969C211.958 196.229 211.422 195.359 211.047 194.359C210.672 193.359 210.484 192.281 210.484 191.125V190.5C210.484 189.177 210.677 187.979 211.062 186.906C211.448 185.833 211.984 184.917 212.672 184.156C213.359 183.385 214.172 182.797 215.109 182.391C216.047 181.984 217.062 181.781 218.156 181.781C219.365 181.781 220.422 181.984 221.328 182.391C222.234 182.797 222.984 183.37 223.578 184.109C224.182 184.839 224.63 185.708 224.922 186.719C225.224 187.729 225.375 188.844 225.375 190.062V191.672H212.312V188.969H221.656V188.672C221.635 187.995 221.5 187.359 221.25 186.766C221.01 186.172 220.641 185.693 220.141 185.328C219.641 184.964 218.974 184.781 218.141 184.781C217.516 184.781 216.958 184.917 216.469 185.188C215.99 185.448 215.589 185.828 215.266 186.328C214.943 186.828 214.693 187.432 214.516 188.141C214.349 188.839 214.266 189.625 214.266 190.5V191.125C214.266 191.865 214.365 192.552 214.562 193.188C214.771 193.812 215.073 194.359 215.469 194.828C215.865 195.297 216.344 195.667 216.906 195.938C217.469 196.198 218.109 196.328 218.828 196.328C219.734 196.328 220.542 196.146 221.25 195.781C221.958 195.417 222.573 194.901 223.094 194.234L225.078 196.156C224.714 196.688 224.24 197.198 223.656 197.688C223.073 198.167 222.359 198.557 221.516 198.859C220.682 199.161 219.714 199.312 218.609 199.312ZM236.469 182.094H240.25V200.469C240.25 201.625 240.052 202.599 239.656 203.391C239.26 204.193 238.677 204.797 237.906 205.203C237.135 205.62 236.193 205.828 235.078 205.828C234.745 205.828 234.401 205.802 234.047 205.75C233.682 205.708 233.339 205.646 233.016 205.562L233.031 202.625C233.25 202.667 233.484 202.698 233.734 202.719C233.974 202.75 234.203 202.766 234.422 202.766C234.87 202.766 235.245 202.688 235.547 202.531C235.849 202.375 236.078 202.13 236.234 201.797C236.391 201.464 236.469 201.021 236.469 200.469V182.094ZM236.141 177.656C236.141 177.083 236.333 176.609 236.719 176.234C237.104 175.849 237.63 175.656 238.297 175.656C238.974 175.656 239.5 175.849 239.875 176.234C240.26 176.609 240.453 177.083 240.453 177.656C240.453 178.219 240.26 178.688 239.875 179.062C239.5 179.438 238.974 179.625 238.297 179.625C237.63 179.625 237.104 179.438 236.719 179.062C236.333 178.688 236.141 178.219 236.141 177.656ZM253.844 195.609V187.547C253.844 186.943 253.734 186.422 253.516 185.984C253.297 185.547 252.964 185.208 252.516 184.969C252.078 184.729 251.526 184.609 250.859 184.609C250.245 184.609 249.714 184.714 249.266 184.922C248.818 185.13 248.469 185.411 248.219 185.766C247.969 186.12 247.844 186.521 247.844 186.969H244.094C244.094 186.302 244.255 185.656 244.578 185.031C244.901 184.406 245.37 183.849 245.984 183.359C246.599 182.87 247.333 182.484 248.188 182.203C249.042 181.922 250 181.781 251.062 181.781C252.333 181.781 253.458 181.995 254.438 182.422C255.427 182.849 256.203 183.495 256.766 184.359C257.339 185.214 257.625 186.286 257.625 187.578V195.094C257.625 195.865 257.677 196.557 257.781 197.172C257.896 197.776 258.057 198.302 258.266 198.75V199H254.406C254.229 198.594 254.089 198.078 253.984 197.453C253.891 196.818 253.844 196.203 253.844 195.609ZM254.391 188.719L254.422 191.047H251.719C251.021 191.047 250.406 191.115 249.875 191.25C249.344 191.375 248.901 191.562 248.547 191.812C248.193 192.062 247.927 192.365 247.75 192.719C247.573 193.073 247.484 193.474 247.484 193.922C247.484 194.37 247.589 194.781 247.797 195.156C248.005 195.521 248.307 195.807 248.703 196.016C249.109 196.224 249.599 196.328 250.172 196.328C250.943 196.328 251.615 196.172 252.188 195.859C252.771 195.536 253.229 195.146 253.562 194.688C253.896 194.219 254.073 193.776 254.094 193.359L255.312 195.031C255.188 195.458 254.974 195.917 254.672 196.406C254.37 196.896 253.974 197.365 253.484 197.812C253.005 198.25 252.427 198.609 251.75 198.891C251.083 199.172 250.312 199.312 249.438 199.312C248.333 199.312 247.349 199.094 246.484 198.656C245.62 198.208 244.943 197.609 244.453 196.859C243.964 196.099 243.719 195.24 243.719 194.281C243.719 193.385 243.885 192.594 244.219 191.906C244.562 191.208 245.062 190.625 245.719 190.156C246.385 189.688 247.198 189.333 248.156 189.094C249.115 188.844 250.208 188.719 251.438 188.719H254.391ZM245.656 177.609C245.656 177.099 245.833 176.672 246.188 176.328C246.542 175.974 247.01 175.797 247.594 175.797C248.188 175.797 248.661 175.974 249.016 176.328C249.37 176.672 249.547 177.099 249.547 177.609C249.547 178.109 249.37 178.536 249.016 178.891C248.661 179.234 248.188 179.406 247.594 179.406C247.01 179.406 246.542 179.234 246.188 178.891C245.833 178.536 245.656 178.109 245.656 177.609ZM252.891 177.625C252.891 177.115 253.068 176.688 253.422 176.344C253.776 175.99 254.25 175.812 254.844 175.812C255.427 175.812 255.896 175.99 256.25 176.344C256.615 176.688 256.797 177.115 256.797 177.625C256.797 178.125 256.615 178.552 256.25 178.906C255.896 179.25 255.427 179.422 254.844 179.422C254.25 179.422 253.776 179.25 253.422 178.906C253.068 178.552 252.891 178.125 252.891 177.625ZM271.094 195.609V187.547C271.094 186.943 270.984 186.422 270.766 185.984C270.547 185.547 270.214 185.208 269.766 184.969C269.328 184.729 268.776 184.609 268.109 184.609C267.495 184.609 266.964 184.714 266.516 184.922C266.068 185.13 265.719 185.411 265.469 185.766C265.219 186.12 265.094 186.521 265.094 186.969H261.344C261.344 186.302 261.505 185.656 261.828 185.031C262.151 184.406 262.62 183.849 263.234 183.359C263.849 182.87 264.583 182.484 265.438 182.203C266.292 181.922 267.25 181.781 268.312 181.781C269.583 181.781 270.708 181.995 271.688 182.422C272.677 182.849 273.453 183.495 274.016 184.359C274.589 185.214 274.875 186.286 274.875 187.578V195.094C274.875 195.865 274.927 196.557 275.031 197.172C275.146 197.776 275.307 198.302 275.516 198.75V199H271.656C271.479 198.594 271.339 198.078 271.234 197.453C271.141 196.818 271.094 196.203 271.094 195.609ZM271.641 188.719L271.672 191.047H268.969C268.271 191.047 267.656 191.115 267.125 191.25C266.594 191.375 266.151 191.562 265.797 191.812C265.443 192.062 265.177 192.365 265 192.719C264.823 193.073 264.734 193.474 264.734 193.922C264.734 194.37 264.839 194.781 265.047 195.156C265.255 195.521 265.557 195.807 265.953 196.016C266.359 196.224 266.849 196.328 267.422 196.328C268.193 196.328 268.865 196.172 269.438 195.859C270.021 195.536 270.479 195.146 270.812 194.688C271.146 194.219 271.323 193.776 271.344 193.359L272.562 195.031C272.438 195.458 272.224 195.917 271.922 196.406C271.62 196.896 271.224 197.365 270.734 197.812C270.255 198.25 269.677 198.609 269 198.891C268.333 199.172 267.562 199.312 266.688 199.312C265.583 199.312 264.599 199.094 263.734 198.656C262.87 198.208 262.193 197.609 261.703 196.859C261.214 196.099 260.969 195.24 260.969 194.281C260.969 193.385 261.135 192.594 261.469 191.906C261.812 191.208 262.312 190.625 262.969 190.156C263.635 189.688 264.448 189.333 265.406 189.094C266.365 188.844 267.458 188.719 268.688 188.719H271.641ZM262.906 177.609C262.906 177.099 263.083 176.672 263.438 176.328C263.792 175.974 264.26 175.797 264.844 175.797C265.438 175.797 265.911 175.974 266.266 176.328C266.62 176.672 266.797 177.099 266.797 177.609C266.797 178.109 266.62 178.536 266.266 178.891C265.911 179.234 265.438 179.406 264.844 179.406C264.26 179.406 263.792 179.234 263.438 178.891C263.083 178.536 262.906 178.109 262.906 177.609ZM270.141 177.625C270.141 177.115 270.318 176.688 270.672 176.344C271.026 175.99 271.5 175.812 272.094 175.812C272.677 175.812 273.146 175.99 273.5 176.344C273.865 176.688 274.047 177.115 274.047 177.625C274.047 178.125 273.865 178.552 273.5 178.906C273.146 179.25 272.677 179.422 272.094 179.422C271.5 179.422 271.026 179.25 270.672 178.906C270.318 178.552 270.141 178.125 270.141 177.625ZM278.828 175H282.594V195.391L282.234 199H278.828V175ZM293.625 190.391V190.719C293.625 191.969 293.484 193.12 293.203 194.172C292.932 195.214 292.516 196.12 291.953 196.891C291.401 197.661 290.714 198.26 289.891 198.688C289.078 199.104 288.135 199.312 287.062 199.312C286.01 199.312 285.094 199.115 284.312 198.719C283.531 198.323 282.875 197.76 282.344 197.031C281.823 196.302 281.401 195.432 281.078 194.422C280.755 193.411 280.526 192.297 280.391 191.078V190.031C280.526 188.802 280.755 187.688 281.078 186.688C281.401 185.677 281.823 184.807 282.344 184.078C282.875 183.339 283.526 182.771 284.297 182.375C285.078 181.979 285.99 181.781 287.031 181.781C288.115 181.781 289.068 181.99 289.891 182.406C290.724 182.823 291.417 183.417 291.969 184.188C292.521 184.948 292.932 185.854 293.203 186.906C293.484 187.958 293.625 189.12 293.625 190.391ZM289.859 190.719V190.391C289.859 189.63 289.797 188.917 289.672 188.25C289.547 187.573 289.339 186.979 289.047 186.469C288.766 185.958 288.38 185.557 287.891 185.266C287.411 184.964 286.812 184.812 286.094 184.812C285.427 184.812 284.854 184.927 284.375 185.156C283.896 185.385 283.495 185.698 283.172 186.094C282.849 186.49 282.594 186.948 282.406 187.469C282.229 187.99 282.109 188.552 282.047 189.156V191.984C282.141 192.766 282.339 193.484 282.641 194.141C282.953 194.786 283.391 195.307 283.953 195.703C284.516 196.089 285.24 196.281 286.125 196.281C286.823 196.281 287.411 196.141 287.891 195.859C288.37 195.578 288.75 195.188 289.031 194.688C289.323 194.177 289.531 193.583 289.656 192.906C289.792 192.229 289.859 191.5 289.859 190.719ZM308.562 185.344V205.5H304.797V182.094H308.266L308.562 185.344ZM319.578 190.391V190.719C319.578 191.948 319.432 193.089 319.141 194.141C318.859 195.182 318.438 196.094 317.875 196.875C317.323 197.646 316.641 198.245 315.828 198.672C315.016 199.099 314.078 199.312 313.016 199.312C311.964 199.312 311.042 199.12 310.25 198.734C309.469 198.339 308.807 197.781 308.266 197.062C307.724 196.344 307.286 195.5 306.953 194.531C306.63 193.552 306.401 192.479 306.266 191.312V190.047C306.401 188.807 306.63 187.682 306.953 186.672C307.286 185.661 307.724 184.792 308.266 184.062C308.807 183.333 309.469 182.771 310.25 182.375C311.031 181.979 311.943 181.781 312.984 181.781C314.047 181.781 314.99 181.99 315.812 182.406C316.635 182.812 317.328 183.396 317.891 184.156C318.453 184.906 318.875 185.812 319.156 186.875C319.438 187.927 319.578 189.099 319.578 190.391ZM315.812 190.719V190.391C315.812 189.609 315.74 188.885 315.594 188.219C315.448 187.542 315.219 186.948 314.906 186.438C314.594 185.927 314.193 185.531 313.703 185.25C313.224 184.958 312.646 184.812 311.969 184.812C311.302 184.812 310.729 184.927 310.25 185.156C309.771 185.375 309.37 185.682 309.047 186.078C308.724 186.474 308.474 186.938 308.297 187.469C308.12 187.99 307.995 188.557 307.922 189.172V192.203C308.047 192.953 308.26 193.641 308.562 194.266C308.865 194.891 309.292 195.391 309.844 195.766C310.406 196.13 311.125 196.312 312 196.312C312.677 196.312 313.255 196.167 313.734 195.875C314.214 195.583 314.604 195.182 314.906 194.672C315.219 194.151 315.448 193.552 315.594 192.875C315.74 192.198 315.812 191.479 315.812 190.719ZM326.812 175V199H323.031V175H326.812ZM340.469 195.609V187.547C340.469 186.943 340.359 186.422 340.141 185.984C339.922 185.547 339.589 185.208 339.141 184.969C338.703 184.729 338.151 184.609 337.484 184.609C336.87 184.609 336.339 184.714 335.891 184.922C335.443 185.13 335.094 185.411 334.844 185.766C334.594 186.12 334.469 186.521 334.469 186.969H330.719C330.719 186.302 330.88 185.656 331.203 185.031C331.526 184.406 331.995 183.849 332.609 183.359C333.224 182.87 333.958 182.484 334.812 182.203C335.667 181.922 336.625 181.781 337.688 181.781C338.958 181.781 340.083 181.995 341.062 182.422C342.052 182.849 342.828 183.495 343.391 184.359C343.964 185.214 344.25 186.286 344.25 187.578V195.094C344.25 195.865 344.302 196.557 344.406 197.172C344.521 197.776 344.682 198.302 344.891 198.75V199H341.031C340.854 198.594 340.714 198.078 340.609 197.453C340.516 196.818 340.469 196.203 340.469 195.609ZM341.016 188.719L341.047 191.047H338.344C337.646 191.047 337.031 191.115 336.5 191.25C335.969 191.375 335.526 191.562 335.172 191.812C334.818 192.062 334.552 192.365 334.375 192.719C334.198 193.073 334.109 193.474 334.109 193.922C334.109 194.37 334.214 194.781 334.422 195.156C334.63 195.521 334.932 195.807 335.328 196.016C335.734 196.224 336.224 196.328 336.797 196.328C337.568 196.328 338.24 196.172 338.812 195.859C339.396 195.536 339.854 195.146 340.188 194.688C340.521 194.219 340.698 193.776 340.719 193.359L341.938 195.031C341.812 195.458 341.599 195.917 341.297 196.406C340.995 196.896 340.599 197.365 340.109 197.812C339.63 198.25 339.052 198.609 338.375 198.891C337.708 199.172 336.938 199.312 336.062 199.312C334.958 199.312 333.974 199.094 333.109 198.656C332.245 198.208 331.568 197.609 331.078 196.859C330.589 196.099 330.344 195.24 330.344 194.281C330.344 193.385 330.51 192.594 330.844 191.906C331.188 191.208 331.688 190.625 332.344 190.156C333.01 189.688 333.823 189.333 334.781 189.094C335.74 188.844 336.833 188.719 338.062 188.719H341.016ZM357.719 195.609V187.547C357.719 186.943 357.609 186.422 357.391 185.984C357.172 185.547 356.839 185.208 356.391 184.969C355.953 184.729 355.401 184.609 354.734 184.609C354.12 184.609 353.589 184.714 353.141 184.922C352.693 185.13 352.344 185.411 352.094 185.766C351.844 186.12 351.719 186.521 351.719 186.969H347.969C347.969 186.302 348.13 185.656 348.453 185.031C348.776 184.406 349.245 183.849 349.859 183.359C350.474 182.87 351.208 182.484 352.062 182.203C352.917 181.922 353.875 181.781 354.938 181.781C356.208 181.781 357.333 181.995 358.312 182.422C359.302 182.849 360.078 183.495 360.641 184.359C361.214 185.214 361.5 186.286 361.5 187.578V195.094C361.5 195.865 361.552 196.557 361.656 197.172C361.771 197.776 361.932 198.302 362.141 198.75V199H358.281C358.104 198.594 357.964 198.078 357.859 197.453C357.766 196.818 357.719 196.203 357.719 195.609ZM358.266 188.719L358.297 191.047H355.594C354.896 191.047 354.281 191.115 353.75 191.25C353.219 191.375 352.776 191.562 352.422 191.812C352.068 192.062 351.802 192.365 351.625 192.719C351.448 193.073 351.359 193.474 351.359 193.922C351.359 194.37 351.464 194.781 351.672 195.156C351.88 195.521 352.182 195.807 352.578 196.016C352.984 196.224 353.474 196.328 354.047 196.328C354.818 196.328 355.49 196.172 356.062 195.859C356.646 195.536 357.104 195.146 357.438 194.688C357.771 194.219 357.948 193.776 357.969 193.359L359.188 195.031C359.062 195.458 358.849 195.917 358.547 196.406C358.245 196.896 357.849 197.365 357.359 197.812C356.88 198.25 356.302 198.609 355.625 198.891C354.958 199.172 354.188 199.312 353.312 199.312C352.208 199.312 351.224 199.094 350.359 198.656C349.495 198.208 348.818 197.609 348.328 196.859C347.839 196.099 347.594 195.24 347.594 194.281C347.594 193.385 347.76 192.594 348.094 191.906C348.438 191.208 348.938 190.625 349.594 190.156C350.26 189.688 351.073 189.333 352.031 189.094C352.99 188.844 354.083 188.719 355.312 188.719H358.266ZM369.172 185.703V199H365.406V182.094H368.953L369.172 185.703ZM368.5 189.922L367.281 189.906C367.292 188.708 367.458 187.609 367.781 186.609C368.115 185.609 368.573 184.75 369.156 184.031C369.75 183.312 370.458 182.76 371.281 182.375C372.104 181.979 373.021 181.781 374.031 181.781C374.844 181.781 375.578 181.896 376.234 182.125C376.901 182.344 377.469 182.703 377.938 183.203C378.417 183.703 378.781 184.354 379.031 185.156C379.281 185.948 379.406 186.922 379.406 188.078V199H375.625V188.062C375.625 187.25 375.505 186.609 375.266 186.141C375.036 185.661 374.698 185.323 374.25 185.125C373.812 184.917 373.266 184.812 372.609 184.812C371.964 184.812 371.385 184.948 370.875 185.219C370.365 185.49 369.932 185.859 369.578 186.328C369.234 186.797 368.969 187.339 368.781 187.953C368.594 188.568 368.5 189.224 368.5 189.922ZM387.281 182.094V199H383.5V182.094H387.281ZM383.25 177.656C383.25 177.083 383.438 176.609 383.812 176.234C384.198 175.849 384.729 175.656 385.406 175.656C386.073 175.656 386.599 175.849 386.984 176.234C387.37 176.609 387.562 177.083 387.562 177.656C387.562 178.219 387.37 178.688 386.984 179.062C386.599 179.438 386.073 179.625 385.406 179.625C384.729 179.625 384.198 179.438 383.812 179.062C383.438 178.688 383.25 178.219 383.25 177.656ZM395.203 175V199H391.422V175H395.203ZM405.703 182.094L398.344 190.25L394.312 194.375L393.328 191.188L396.375 187.422L401.156 182.094H405.703ZM401.969 199L396.484 191.062L398.859 188.422L406.328 199H401.969ZM417.578 194.422C417.578 194.047 417.484 193.708 417.297 193.406C417.109 193.094 416.75 192.812 416.219 192.562C415.698 192.312 414.927 192.083 413.906 191.875C413.01 191.677 412.188 191.443 411.438 191.172C410.698 190.891 410.062 190.552 409.531 190.156C409 189.76 408.589 189.292 408.297 188.75C408.005 188.208 407.859 187.583 407.859 186.875C407.859 186.188 408.01 185.536 408.312 184.922C408.615 184.307 409.047 183.766 409.609 183.297C410.172 182.828 410.854 182.458 411.656 182.188C412.469 181.917 413.375 181.781 414.375 181.781C415.792 181.781 417.005 182.021 418.016 182.5C419.036 182.969 419.818 183.609 420.359 184.422C420.901 185.224 421.172 186.13 421.172 187.141H417.406C417.406 186.693 417.292 186.276 417.062 185.891C416.844 185.495 416.51 185.177 416.062 184.938C415.615 184.688 415.052 184.562 414.375 184.562C413.729 184.562 413.193 184.667 412.766 184.875C412.349 185.073 412.036 185.333 411.828 185.656C411.63 185.979 411.531 186.333 411.531 186.719C411.531 187 411.583 187.255 411.688 187.484C411.802 187.703 411.99 187.906 412.25 188.094C412.51 188.271 412.865 188.438 413.312 188.594C413.771 188.75 414.344 188.901 415.031 189.047C416.323 189.318 417.432 189.667 418.359 190.094C419.297 190.51 420.016 191.052 420.516 191.719C421.016 192.375 421.266 193.208 421.266 194.219C421.266 194.969 421.104 195.656 420.781 196.281C420.469 196.896 420.01 197.432 419.406 197.891C418.802 198.339 418.078 198.688 417.234 198.938C416.401 199.188 415.464 199.312 414.422 199.312C412.891 199.312 411.594 199.042 410.531 198.5C409.469 197.948 408.661 197.245 408.109 196.391C407.568 195.526 407.297 194.63 407.297 193.703H410.938C410.979 194.401 411.172 194.958 411.516 195.375C411.87 195.781 412.307 196.078 412.828 196.266C413.359 196.443 413.906 196.531 414.469 196.531C415.146 196.531 415.714 196.443 416.172 196.266C416.63 196.078 416.979 195.828 417.219 195.516C417.458 195.193 417.578 194.828 417.578 194.422ZM428.094 195.375L428.078 198.062C428.078 199.125 427.812 200.219 427.281 201.344C426.75 202.469 426.047 203.396 425.172 204.125L423.156 202.953C423.448 202.484 423.714 202.01 423.953 201.531C424.193 201.052 424.385 200.542 424.531 200C424.677 199.458 424.75 198.859 424.75 198.203V195.375H428.094ZM449.172 194.422C449.172 194.047 449.078 193.708 448.891 193.406C448.703 193.094 448.344 192.812 447.812 192.562C447.292 192.312 446.521 192.083 445.5 191.875C444.604 191.677 443.781 191.443 443.031 191.172C442.292 190.891 441.656 190.552 441.125 190.156C440.594 189.76 440.182 189.292 439.891 188.75C439.599 188.208 439.453 187.583 439.453 186.875C439.453 186.188 439.604 185.536 439.906 184.922C440.208 184.307 440.641 183.766 441.203 183.297C441.766 182.828 442.448 182.458 443.25 182.188C444.062 181.917 444.969 181.781 445.969 181.781C447.385 181.781 448.599 182.021 449.609 182.5C450.63 182.969 451.411 183.609 451.953 184.422C452.495 185.224 452.766 186.13 452.766 187.141H449C449 186.693 448.885 186.276 448.656 185.891C448.438 185.495 448.104 185.177 447.656 184.938C447.208 184.688 446.646 184.562 445.969 184.562C445.323 184.562 444.786 184.667 444.359 184.875C443.943 185.073 443.63 185.333 443.422 185.656C443.224 185.979 443.125 186.333 443.125 186.719C443.125 187 443.177 187.255 443.281 187.484C443.396 187.703 443.583 187.906 443.844 188.094C444.104 188.271 444.458 188.438 444.906 188.594C445.365 188.75 445.938 188.901 446.625 189.047C447.917 189.318 449.026 189.667 449.953 190.094C450.891 190.51 451.609 191.052 452.109 191.719C452.609 192.375 452.859 193.208 452.859 194.219C452.859 194.969 452.698 195.656 452.375 196.281C452.062 196.896 451.604 197.432 451 197.891C450.396 198.339 449.672 198.688 448.828 198.938C447.995 199.188 447.057 199.312 446.016 199.312C444.484 199.312 443.188 199.042 442.125 198.5C441.062 197.948 440.255 197.245 439.703 196.391C439.161 195.526 438.891 194.63 438.891 193.703H442.531C442.573 194.401 442.766 194.958 443.109 195.375C443.464 195.781 443.901 196.078 444.422 196.266C444.953 196.443 445.5 196.531 446.062 196.531C446.74 196.531 447.307 196.443 447.766 196.266C448.224 196.078 448.573 195.828 448.812 195.516C449.052 195.193 449.172 194.828 449.172 194.422ZM459.938 185.344V205.5H456.172V182.094H459.641L459.938 185.344ZM470.953 190.391V190.719C470.953 191.948 470.807 193.089 470.516 194.141C470.234 195.182 469.812 196.094 469.25 196.875C468.698 197.646 468.016 198.245 467.203 198.672C466.391 199.099 465.453 199.312 464.391 199.312C463.339 199.312 462.417 199.12 461.625 198.734C460.844 198.339 460.182 197.781 459.641 197.062C459.099 196.344 458.661 195.5 458.328 194.531C458.005 193.552 457.776 192.479 457.641 191.312V190.047C457.776 188.807 458.005 187.682 458.328 186.672C458.661 185.661 459.099 184.792 459.641 184.062C460.182 183.333 460.844 182.771 461.625 182.375C462.406 181.979 463.318 181.781 464.359 181.781C465.422 181.781 466.365 181.99 467.188 182.406C468.01 182.812 468.703 183.396 469.266 184.156C469.828 184.906 470.25 185.812 470.531 186.875C470.812 187.927 470.953 189.099 470.953 190.391ZM467.188 190.719V190.391C467.188 189.609 467.115 188.885 466.969 188.219C466.823 187.542 466.594 186.948 466.281 186.438C465.969 185.927 465.568 185.531 465.078 185.25C464.599 184.958 464.021 184.812 463.344 184.812C462.677 184.812 462.104 184.927 461.625 185.156C461.146 185.375 460.745 185.682 460.422 186.078C460.099 186.474 459.849 186.938 459.672 187.469C459.495 187.99 459.37 188.557 459.297 189.172V192.203C459.422 192.953 459.635 193.641 459.938 194.266C460.24 194.891 460.667 195.391 461.219 195.766C461.781 196.13 462.5 196.312 463.375 196.312C464.052 196.312 464.63 196.167 465.109 195.875C465.589 195.583 465.979 195.182 466.281 194.672C466.594 194.151 466.823 193.552 466.969 192.875C467.115 192.198 467.188 191.479 467.188 190.719ZM473.438 190.734V190.375C473.438 189.156 473.615 188.026 473.969 186.984C474.323 185.932 474.833 185.021 475.5 184.25C476.177 183.469 477 182.865 477.969 182.438C478.948 182 480.052 181.781 481.281 181.781C482.521 181.781 483.625 182 484.594 182.438C485.573 182.865 486.401 183.469 487.078 184.25C487.755 185.021 488.271 185.932 488.625 186.984C488.979 188.026 489.156 189.156 489.156 190.375V190.734C489.156 191.953 488.979 193.083 488.625 194.125C488.271 195.167 487.755 196.078 487.078 196.859C486.401 197.63 485.578 198.234 484.609 198.672C483.641 199.099 482.542 199.312 481.312 199.312C480.073 199.312 478.964 199.099 477.984 198.672C477.016 198.234 476.193 197.63 475.516 196.859C474.839 196.078 474.323 195.167 473.969 194.125C473.615 193.083 473.438 191.953 473.438 190.734ZM477.203 190.375V190.734C477.203 191.495 477.281 192.214 477.438 192.891C477.594 193.568 477.839 194.161 478.172 194.672C478.505 195.182 478.932 195.583 479.453 195.875C479.974 196.167 480.594 196.312 481.312 196.312C482.01 196.312 482.615 196.167 483.125 195.875C483.646 195.583 484.073 195.182 484.406 194.672C484.74 194.161 484.984 193.568 485.141 192.891C485.307 192.214 485.391 191.495 485.391 190.734V190.375C485.391 189.625 485.307 188.917 485.141 188.25C484.984 187.573 484.734 186.974 484.391 186.453C484.057 185.932 483.63 185.526 483.109 185.234C482.599 184.932 481.99 184.781 481.281 184.781C480.573 184.781 479.958 184.932 479.438 185.234C478.927 185.526 478.505 185.932 478.172 186.453C477.839 186.974 477.594 187.573 477.438 188.25C477.281 188.917 477.203 189.625 477.203 190.375ZM496.094 185.312V199H492.328V182.094H495.922L496.094 185.312ZM501.266 181.984L501.234 185.484C501.005 185.443 500.755 185.411 500.484 185.391C500.224 185.37 499.964 185.359 499.703 185.359C499.057 185.359 498.49 185.453 498 185.641C497.51 185.818 497.099 186.078 496.766 186.422C496.443 186.755 496.193 187.161 496.016 187.641C495.839 188.12 495.734 188.656 495.703 189.25L494.844 189.312C494.844 188.25 494.948 187.266 495.156 186.359C495.365 185.453 495.677 184.656 496.094 183.969C496.521 183.281 497.052 182.745 497.688 182.359C498.333 181.974 499.078 181.781 499.922 181.781C500.151 181.781 500.396 181.802 500.656 181.844C500.927 181.885 501.13 181.932 501.266 181.984ZM513.625 195.5V175H517.406V199H513.984L513.625 195.5ZM502.625 190.734V190.406C502.625 189.125 502.776 187.958 503.078 186.906C503.38 185.844 503.818 184.932 504.391 184.172C504.964 183.401 505.661 182.812 506.484 182.406C507.307 181.99 508.234 181.781 509.266 181.781C510.286 181.781 511.182 181.979 511.953 182.375C512.724 182.771 513.38 183.339 513.922 184.078C514.464 184.807 514.896 185.682 515.219 186.703C515.542 187.714 515.771 188.839 515.906 190.078V191.125C515.771 192.333 515.542 193.438 515.219 194.438C514.896 195.438 514.464 196.302 513.922 197.031C513.38 197.76 512.719 198.323 511.938 198.719C511.167 199.115 510.266 199.312 509.234 199.312C508.214 199.312 507.292 199.099 506.469 198.672C505.656 198.245 504.964 197.646 504.391 196.875C503.818 196.104 503.38 195.198 503.078 194.156C502.776 193.104 502.625 191.964 502.625 190.734ZM506.391 190.406V190.734C506.391 191.505 506.458 192.224 506.594 192.891C506.74 193.557 506.964 194.146 507.266 194.656C507.568 195.156 507.958 195.552 508.438 195.844C508.927 196.125 509.51 196.266 510.188 196.266C511.042 196.266 511.745 196.078 512.297 195.703C512.849 195.328 513.281 194.823 513.594 194.188C513.917 193.542 514.135 192.823 514.25 192.031V189.203C514.188 188.589 514.057 188.016 513.859 187.484C513.672 186.953 513.417 186.49 513.094 186.094C512.771 185.688 512.37 185.375 511.891 185.156C511.422 184.927 510.865 184.812 510.219 184.812C509.531 184.812 508.948 184.958 508.469 185.25C507.99 185.542 507.594 185.943 507.281 186.453C506.979 186.964 506.755 187.557 506.609 188.234C506.464 188.911 506.391 189.635 506.391 190.406ZM525.375 182.094V199H521.594V182.094H525.375ZM521.344 177.656C521.344 177.083 521.531 176.609 521.906 176.234C522.292 175.849 522.823 175.656 523.5 175.656C524.167 175.656 524.693 175.849 525.078 176.234C525.464 176.609 525.656 177.083 525.656 177.656C525.656 178.219 525.464 178.688 525.078 179.062C524.693 179.438 524.167 179.625 523.5 179.625C522.823 179.625 522.292 179.438 521.906 179.062C521.531 178.688 521.344 178.219 521.344 177.656ZM539.672 195.016V182.094H543.453V199H539.891L539.672 195.016ZM540.203 191.5L541.469 191.469C541.469 192.604 541.344 193.651 541.094 194.609C540.844 195.557 540.458 196.385 539.938 197.094C539.417 197.792 538.75 198.339 537.938 198.734C537.125 199.12 536.151 199.312 535.016 199.312C534.193 199.312 533.438 199.193 532.75 198.953C532.062 198.714 531.469 198.344 530.969 197.844C530.479 197.344 530.099 196.693 529.828 195.891C529.557 195.089 529.422 194.13 529.422 193.016V182.094H533.188V193.047C533.188 193.661 533.26 194.177 533.406 194.594C533.552 195 533.75 195.328 534 195.578C534.25 195.828 534.542 196.005 534.875 196.109C535.208 196.214 535.562 196.266 535.938 196.266C537.01 196.266 537.854 196.057 538.469 195.641C539.094 195.214 539.536 194.641 539.797 193.922C540.068 193.203 540.203 192.396 540.203 191.5ZM557.484 195.016V182.094H561.266V199H557.703L557.484 195.016ZM558.016 191.5L559.281 191.469C559.281 192.604 559.156 193.651 558.906 194.609C558.656 195.557 558.271 196.385 557.75 197.094C557.229 197.792 556.562 198.339 555.75 198.734C554.938 199.12 553.964 199.312 552.828 199.312C552.005 199.312 551.25 199.193 550.562 198.953C549.875 198.714 549.281 198.344 548.781 197.844C548.292 197.344 547.911 196.693 547.641 195.891C547.37 195.089 547.234 194.13 547.234 193.016V182.094H551V193.047C551 193.661 551.073 194.177 551.219 194.594C551.365 195 551.562 195.328 551.812 195.578C552.062 195.828 552.354 196.005 552.688 196.109C553.021 196.214 553.375 196.266 553.75 196.266C554.823 196.266 555.667 196.057 556.281 195.641C556.906 195.214 557.349 194.641 557.609 193.922C557.88 193.203 558.016 192.396 558.016 191.5ZM575.438 195.5V175H579.219V199H575.797L575.438 195.5ZM564.438 190.734V190.406C564.438 189.125 564.589 187.958 564.891 186.906C565.193 185.844 565.63 184.932 566.203 184.172C566.776 183.401 567.474 182.812 568.297 182.406C569.12 181.99 570.047 181.781 571.078 181.781C572.099 181.781 572.995 181.979 573.766 182.375C574.536 182.771 575.193 183.339 575.734 184.078C576.276 184.807 576.708 185.682 577.031 186.703C577.354 187.714 577.583 188.839 577.719 190.078V191.125C577.583 192.333 577.354 193.438 577.031 194.438C576.708 195.438 576.276 196.302 575.734 197.031C575.193 197.76 574.531 198.323 573.75 198.719C572.979 199.115 572.078 199.312 571.047 199.312C570.026 199.312 569.104 199.099 568.281 198.672C567.469 198.245 566.776 197.646 566.203 196.875C565.63 196.104 565.193 195.198 564.891 194.156C564.589 193.104 564.438 191.964 564.438 190.734ZM568.203 190.406V190.734C568.203 191.505 568.271 192.224 568.406 192.891C568.552 193.557 568.776 194.146 569.078 194.656C569.38 195.156 569.771 195.552 570.25 195.844C570.74 196.125 571.323 196.266 572 196.266C572.854 196.266 573.557 196.078 574.109 195.703C574.661 195.328 575.094 194.823 575.406 194.188C575.729 193.542 575.948 192.823 576.062 192.031V189.203C576 188.589 575.87 188.016 575.672 187.484C575.484 186.953 575.229 186.49 574.906 186.094C574.583 185.688 574.182 185.375 573.703 185.156C573.234 184.927 572.677 184.812 572.031 184.812C571.344 184.812 570.76 184.958 570.281 185.25C569.802 185.542 569.406 185.943 569.094 186.453C568.792 186.964 568.568 187.557 568.422 188.234C568.276 188.911 568.203 189.635 568.203 190.406ZM587.188 182.094V199H583.406V182.094H587.188ZM583.156 177.656C583.156 177.083 583.344 176.609 583.719 176.234C584.104 175.849 584.635 175.656 585.312 175.656C585.979 175.656 586.505 175.849 586.891 176.234C587.276 176.609 587.469 177.083 587.469 177.656C587.469 178.219 587.276 178.688 586.891 179.062C586.505 179.438 585.979 179.625 585.312 179.625C584.635 179.625 584.104 179.438 583.719 179.062C583.344 178.688 583.156 178.219 583.156 177.656ZM600.797 194.422C600.797 194.047 600.703 193.708 600.516 193.406C600.328 193.094 599.969 192.812 599.438 192.562C598.917 192.312 598.146 192.083 597.125 191.875C596.229 191.677 595.406 191.443 594.656 191.172C593.917 190.891 593.281 190.552 592.75 190.156C592.219 189.76 591.807 189.292 591.516 188.75C591.224 188.208 591.078 187.583 591.078 186.875C591.078 186.188 591.229 185.536 591.531 184.922C591.833 184.307 592.266 183.766 592.828 183.297C593.391 182.828 594.073 182.458 594.875 182.188C595.688 181.917 596.594 181.781 597.594 181.781C599.01 181.781 600.224 182.021 601.234 182.5C602.255 182.969 603.036 183.609 603.578 184.422C604.12 185.224 604.391 186.13 604.391 187.141H600.625C600.625 186.693 600.51 186.276 600.281 185.891C600.062 185.495 599.729 185.177 599.281 184.938C598.833 184.688 598.271 184.562 597.594 184.562C596.948 184.562 596.411 184.667 595.984 184.875C595.568 185.073 595.255 185.333 595.047 185.656C594.849 185.979 594.75 186.333 594.75 186.719C594.75 187 594.802 187.255 594.906 187.484C595.021 187.703 595.208 187.906 595.469 188.094C595.729 188.271 596.083 188.438 596.531 188.594C596.99 188.75 597.562 188.901 598.25 189.047C599.542 189.318 600.651 189.667 601.578 190.094C602.516 190.51 603.234 191.052 603.734 191.719C604.234 192.375 604.484 193.208 604.484 194.219C604.484 194.969 604.323 195.656 604 196.281C603.688 196.896 603.229 197.432 602.625 197.891C602.021 198.339 601.297 198.688 600.453 198.938C599.62 199.188 598.682 199.312 597.641 199.312C596.109 199.312 594.812 199.042 593.75 198.5C592.688 197.948 591.88 197.245 591.328 196.391C590.786 195.526 590.516 194.63 590.516 193.703H594.156C594.198 194.401 594.391 194.958 594.734 195.375C595.089 195.781 595.526 196.078 596.047 196.266C596.578 196.443 597.125 196.531 597.688 196.531C598.365 196.531 598.932 196.443 599.391 196.266C599.849 196.078 600.198 195.828 600.438 195.516C600.677 195.193 600.797 194.828 600.797 194.422ZM615.234 199.312C613.984 199.312 612.854 199.109 611.844 198.703C610.844 198.286 609.99 197.708 609.281 196.969C608.583 196.229 608.047 195.359 607.672 194.359C607.297 193.359 607.109 192.281 607.109 191.125V190.5C607.109 189.177 607.302 187.979 607.688 186.906C608.073 185.833 608.609 184.917 609.297 184.156C609.984 183.385 610.797 182.797 611.734 182.391C612.672 181.984 613.688 181.781 614.781 181.781C615.99 181.781 617.047 181.984 617.953 182.391C618.859 182.797 619.609 183.37 620.203 184.109C620.807 184.839 621.255 185.708 621.547 186.719C621.849 187.729 622 188.844 622 190.062V191.672H608.938V188.969H618.281V188.672C618.26 187.995 618.125 187.359 617.875 186.766C617.635 186.172 617.266 185.693 616.766 185.328C616.266 184.964 615.599 184.781 614.766 184.781C614.141 184.781 613.583 184.917 613.094 185.188C612.615 185.448 612.214 185.828 611.891 186.328C611.568 186.828 611.318 187.432 611.141 188.141C610.974 188.839 610.891 189.625 610.891 190.5V191.125C610.891 191.865 610.99 192.552 611.188 193.188C611.396 193.812 611.698 194.359 612.094 194.828C612.49 195.297 612.969 195.667 613.531 195.938C614.094 196.198 614.734 196.328 615.453 196.328C616.359 196.328 617.167 196.146 617.875 195.781C618.583 195.417 619.198 194.901 619.719 194.234L621.703 196.156C621.339 196.688 620.865 197.198 620.281 197.688C619.698 198.167 618.984 198.557 618.141 198.859C617.307 199.161 616.339 199.312 615.234 199.312ZM628.969 182.094V199H625.188V182.094H628.969ZM624.938 177.656C624.938 177.083 625.125 176.609 625.5 176.234C625.885 175.849 626.417 175.656 627.094 175.656C627.76 175.656 628.286 175.849 628.672 176.234C629.057 176.609 629.25 177.083 629.25 177.656C629.25 178.219 629.057 178.688 628.672 179.062C628.286 179.438 627.76 179.625 627.094 179.625C626.417 179.625 625.885 179.438 625.5 179.062C625.125 178.688 624.938 178.219 624.938 177.656ZM643.406 195.5V175H647.188V199H643.766L643.406 195.5ZM632.406 190.734V190.406C632.406 189.125 632.557 187.958 632.859 186.906C633.161 185.844 633.599 184.932 634.172 184.172C634.745 183.401 635.443 182.812 636.266 182.406C637.089 181.99 638.016 181.781 639.047 181.781C640.068 181.781 640.964 181.979 641.734 182.375C642.505 182.771 643.161 183.339 643.703 184.078C644.245 184.807 644.677 185.682 645 186.703C645.323 187.714 645.552 188.839 645.688 190.078V191.125C645.552 192.333 645.323 193.438 645 194.438C644.677 195.438 644.245 196.302 643.703 197.031C643.161 197.76 642.5 198.323 641.719 198.719C640.948 199.115 640.047 199.312 639.016 199.312C637.995 199.312 637.073 199.099 636.25 198.672C635.438 198.245 634.745 197.646 634.172 196.875C633.599 196.104 633.161 195.198 632.859 194.156C632.557 193.104 632.406 191.964 632.406 190.734ZM636.172 190.406V190.734C636.172 191.505 636.24 192.224 636.375 192.891C636.521 193.557 636.745 194.146 637.047 194.656C637.349 195.156 637.74 195.552 638.219 195.844C638.708 196.125 639.292 196.266 639.969 196.266C640.823 196.266 641.526 196.078 642.078 195.703C642.63 195.328 643.062 194.823 643.375 194.188C643.698 193.542 643.917 192.823 644.031 192.031V189.203C643.969 188.589 643.839 188.016 643.641 187.484C643.453 186.953 643.198 186.49 642.875 186.094C642.552 185.688 642.151 185.375 641.672 185.156C641.203 184.927 640.646 184.812 640 184.812C639.312 184.812 638.729 184.958 638.25 185.25C637.771 185.542 637.375 185.943 637.062 186.453C636.76 186.964 636.536 187.557 636.391 188.234C636.245 188.911 636.172 189.635 636.172 190.406ZM59.4219 234.422C59.4219 234.047 59.3281 233.708 59.1406 233.406C58.9531 233.094 58.5938 232.812 58.0625 232.562C57.5417 232.312 56.7708 232.083 55.75 231.875C54.8542 231.677 54.0312 231.443 53.2812 231.172C52.5417 230.891 51.9062 230.552 51.375 230.156C50.8438 229.76 50.4323 229.292 50.1406 228.75C49.849 228.208 49.7031 227.583 49.7031 226.875C49.7031 226.188 49.8542 225.536 50.1562 224.922C50.4583 224.307 50.8906 223.766 51.4531 223.297C52.0156 222.828 52.6979 222.458 53.5 222.188C54.3125 221.917 55.2188 221.781 56.2188 221.781C57.6354 221.781 58.849 222.021 59.8594 222.5C60.8802 222.969 61.6615 223.609 62.2031 224.422C62.7448 225.224 63.0156 226.13 63.0156 227.141H59.25C59.25 226.693 59.1354 226.276 58.9062 225.891C58.6875 225.495 58.3542 225.177 57.9062 224.938C57.4583 224.688 56.8958 224.562 56.2188 224.562C55.5729 224.562 55.0365 224.667 54.6094 224.875C54.1927 225.073 53.8802 225.333 53.6719 225.656C53.474 225.979 53.375 226.333 53.375 226.719C53.375 227 53.4271 227.255 53.5312 227.484C53.6458 227.703 53.8333 227.906 54.0938 228.094C54.3542 228.271 54.7083 228.438 55.1562 228.594C55.6146 228.75 56.1875 228.901 56.875 229.047C58.1667 229.318 59.276 229.667 60.2031 230.094C61.1406 230.51 61.8594 231.052 62.3594 231.719C62.8594 232.375 63.1094 233.208 63.1094 234.219C63.1094 234.969 62.9479 235.656 62.625 236.281C62.3125 236.896 61.8542 237.432 61.25 237.891C60.6458 238.339 59.9219 238.688 59.0781 238.938C58.2448 239.188 57.3073 239.312 56.2656 239.312C54.7344 239.312 53.4375 239.042 52.375 238.5C51.3125 237.948 50.5052 237.245 49.9531 236.391C49.4115 235.526 49.1406 234.63 49.1406 233.703H52.7812C52.8229 234.401 53.0156 234.958 53.3594 235.375C53.7135 235.781 54.151 236.078 54.6719 236.266C55.2031 236.443 55.75 236.531 56.3125 236.531C56.9896 236.531 57.5573 236.443 58.0156 236.266C58.474 236.078 58.8229 235.828 59.0625 235.516C59.3021 235.193 59.4219 234.828 59.4219 234.422ZM75.9375 235.609V227.547C75.9375 226.943 75.8281 226.422 75.6094 225.984C75.3906 225.547 75.0573 225.208 74.6094 224.969C74.1719 224.729 73.6198 224.609 72.9531 224.609C72.3385 224.609 71.8073 224.714 71.3594 224.922C70.9115 225.13 70.5625 225.411 70.3125 225.766C70.0625 226.12 69.9375 226.521 69.9375 226.969H66.1875C66.1875 226.302 66.349 225.656 66.6719 225.031C66.9948 224.406 67.4635 223.849 68.0781 223.359C68.6927 222.87 69.4271 222.484 70.2812 222.203C71.1354 221.922 72.0938 221.781 73.1562 221.781C74.4271 221.781 75.5521 221.995 76.5312 222.422C77.5208 222.849 78.2969 223.495 78.8594 224.359C79.4323 225.214 79.7188 226.286 79.7188 227.578V235.094C79.7188 235.865 79.7708 236.557 79.875 237.172C79.9896 237.776 80.151 238.302 80.3594 238.75V239H76.5C76.3229 238.594 76.1823 238.078 76.0781 237.453C75.9844 236.818 75.9375 236.203 75.9375 235.609ZM76.4844 228.719L76.5156 231.047H73.8125C73.1146 231.047 72.5 231.115 71.9688 231.25C71.4375 231.375 70.9948 231.562 70.6406 231.812C70.2865 232.062 70.0208 232.365 69.8438 232.719C69.6667 233.073 69.5781 233.474 69.5781 233.922C69.5781 234.37 69.6823 234.781 69.8906 235.156C70.099 235.521 70.401 235.807 70.7969 236.016C71.2031 236.224 71.6927 236.328 72.2656 236.328C73.0365 236.328 73.7083 236.172 74.2812 235.859C74.8646 235.536 75.3229 235.146 75.6562 234.688C75.9896 234.219 76.1667 233.776 76.1875 233.359L77.4062 235.031C77.2812 235.458 77.0677 235.917 76.7656 236.406C76.4635 236.896 76.0677 237.365 75.5781 237.812C75.099 238.25 74.5208 238.609 73.8438 238.891C73.1771 239.172 72.4062 239.312 71.5312 239.312C70.4271 239.312 69.4427 239.094 68.5781 238.656C67.7135 238.208 67.0365 237.609 66.5469 236.859C66.0573 236.099 65.8125 235.24 65.8125 234.281C65.8125 233.385 65.9792 232.594 66.3125 231.906C66.6562 231.208 67.1562 230.625 67.8125 230.156C68.4792 229.688 69.2917 229.333 70.25 229.094C71.2083 228.844 72.3021 228.719 73.5312 228.719H76.4844ZM93.1875 235.609V227.547C93.1875 226.943 93.0781 226.422 92.8594 225.984C92.6406 225.547 92.3073 225.208 91.8594 224.969C91.4219 224.729 90.8698 224.609 90.2031 224.609C89.5885 224.609 89.0573 224.714 88.6094 224.922C88.1615 225.13 87.8125 225.411 87.5625 225.766C87.3125 226.12 87.1875 226.521 87.1875 226.969H83.4375C83.4375 226.302 83.599 225.656 83.9219 225.031C84.2448 224.406 84.7135 223.849 85.3281 223.359C85.9427 222.87 86.6771 222.484 87.5312 222.203C88.3854 221.922 89.3438 221.781 90.4062 221.781C91.6771 221.781 92.8021 221.995 93.7812 222.422C94.7708 222.849 95.5469 223.495 96.1094 224.359C96.6823 225.214 96.9688 226.286 96.9688 227.578V235.094C96.9688 235.865 97.0208 236.557 97.125 237.172C97.2396 237.776 97.401 238.302 97.6094 238.75V239H93.75C93.5729 238.594 93.4323 238.078 93.3281 237.453C93.2344 236.818 93.1875 236.203 93.1875 235.609ZM93.7344 228.719L93.7656 231.047H91.0625C90.3646 231.047 89.75 231.115 89.2188 231.25C88.6875 231.375 88.2448 231.562 87.8906 231.812C87.5365 232.062 87.2708 232.365 87.0938 232.719C86.9167 233.073 86.8281 233.474 86.8281 233.922C86.8281 234.37 86.9323 234.781 87.1406 235.156C87.349 235.521 87.651 235.807 88.0469 236.016C88.4531 236.224 88.9427 236.328 89.5156 236.328C90.2865 236.328 90.9583 236.172 91.5312 235.859C92.1146 235.536 92.5729 235.146 92.9062 234.688C93.2396 234.219 93.4167 233.776 93.4375 233.359L94.6562 235.031C94.5312 235.458 94.3177 235.917 94.0156 236.406C93.7135 236.896 93.3177 237.365 92.8281 237.812C92.349 238.25 91.7708 238.609 91.0938 238.891C90.4271 239.172 89.6562 239.312 88.7812 239.312C87.6771 239.312 86.6927 239.094 85.8281 238.656C84.9635 238.208 84.2865 237.609 83.7969 236.859C83.3073 236.099 83.0625 235.24 83.0625 234.281C83.0625 233.385 83.2292 232.594 83.5625 231.906C83.9062 231.208 84.4062 230.625 85.0625 230.156C85.7292 229.688 86.5417 229.333 87.5 229.094C88.4583 228.844 89.5521 228.719 90.7812 228.719H93.7344ZM111.219 235.5V215H115V239H111.578L111.219 235.5ZM100.219 230.734V230.406C100.219 229.125 100.37 227.958 100.672 226.906C100.974 225.844 101.411 224.932 101.984 224.172C102.557 223.401 103.255 222.812 104.078 222.406C104.901 221.99 105.828 221.781 106.859 221.781C107.88 221.781 108.776 221.979 109.547 222.375C110.318 222.771 110.974 223.339 111.516 224.078C112.057 224.807 112.49 225.682 112.812 226.703C113.135 227.714 113.365 228.839 113.5 230.078V231.125C113.365 232.333 113.135 233.438 112.812 234.438C112.49 235.438 112.057 236.302 111.516 237.031C110.974 237.76 110.312 238.323 109.531 238.719C108.76 239.115 107.859 239.312 106.828 239.312C105.807 239.312 104.885 239.099 104.062 238.672C103.25 238.245 102.557 237.646 101.984 236.875C101.411 236.104 100.974 235.198 100.672 234.156C100.37 233.104 100.219 231.964 100.219 230.734ZM103.984 230.406V230.734C103.984 231.505 104.052 232.224 104.188 232.891C104.333 233.557 104.557 234.146 104.859 234.656C105.161 235.156 105.552 235.552 106.031 235.844C106.521 236.125 107.104 236.266 107.781 236.266C108.635 236.266 109.339 236.078 109.891 235.703C110.443 235.328 110.875 234.823 111.188 234.188C111.51 233.542 111.729 232.823 111.844 232.031V229.203C111.781 228.589 111.651 228.016 111.453 227.484C111.266 226.953 111.01 226.49 110.688 226.094C110.365 225.688 109.964 225.375 109.484 225.156C109.016 224.927 108.458 224.812 107.812 224.812C107.125 224.812 106.542 224.958 106.062 225.25C105.583 225.542 105.188 225.943 104.875 226.453C104.573 226.964 104.349 227.557 104.203 228.234C104.057 228.911 103.984 229.635 103.984 230.406ZM130.938 222.094V239H127.156V222.094H130.938ZM126.906 217.656C126.906 217.083 127.094 216.609 127.469 216.234C127.854 215.849 128.385 215.656 129.062 215.656C129.729 215.656 130.255 215.849 130.641 216.234C131.026 216.609 131.219 217.083 131.219 217.656C131.219 218.219 131.026 218.688 130.641 219.062C130.255 219.438 129.729 219.625 129.062 219.625C128.385 219.625 127.854 219.438 127.469 219.062C127.094 218.688 126.906 218.219 126.906 217.656ZM138.859 215V239H135.078V215H138.859ZM149.359 222.094L142 230.25L137.969 234.375L136.984 231.188L140.031 227.422L144.812 222.094H149.359ZM145.625 239L140.141 231.062L142.516 228.422L149.984 239H145.625ZM155.547 215V239H151.766V215H155.547ZM166.047 222.094L158.688 230.25L154.656 234.375L153.672 231.188L156.719 227.422L161.5 222.094H166.047ZM162.312 239L156.828 231.062L159.203 228.422L166.672 239H162.312ZM177.969 235.609V227.547C177.969 226.943 177.859 226.422 177.641 225.984C177.422 225.547 177.089 225.208 176.641 224.969C176.203 224.729 175.651 224.609 174.984 224.609C174.37 224.609 173.839 224.714 173.391 224.922C172.943 225.13 172.594 225.411 172.344 225.766C172.094 226.12 171.969 226.521 171.969 226.969H168.219C168.219 226.302 168.38 225.656 168.703 225.031C169.026 224.406 169.495 223.849 170.109 223.359C170.724 222.87 171.458 222.484 172.312 222.203C173.167 221.922 174.125 221.781 175.188 221.781C176.458 221.781 177.583 221.995 178.562 222.422C179.552 222.849 180.328 223.495 180.891 224.359C181.464 225.214 181.75 226.286 181.75 227.578V235.094C181.75 235.865 181.802 236.557 181.906 237.172C182.021 237.776 182.182 238.302 182.391 238.75V239H178.531C178.354 238.594 178.214 238.078 178.109 237.453C178.016 236.818 177.969 236.203 177.969 235.609ZM178.516 228.719L178.547 231.047H175.844C175.146 231.047 174.531 231.115 174 231.25C173.469 231.375 173.026 231.562 172.672 231.812C172.318 232.062 172.052 232.365 171.875 232.719C171.698 233.073 171.609 233.474 171.609 233.922C171.609 234.37 171.714 234.781 171.922 235.156C172.13 235.521 172.432 235.807 172.828 236.016C173.234 236.224 173.724 236.328 174.297 236.328C175.068 236.328 175.74 236.172 176.312 235.859C176.896 235.536 177.354 235.146 177.688 234.688C178.021 234.219 178.198 233.776 178.219 233.359L179.438 235.031C179.312 235.458 179.099 235.917 178.797 236.406C178.495 236.896 178.099 237.365 177.609 237.812C177.13 238.25 176.552 238.609 175.875 238.891C175.208 239.172 174.438 239.312 173.562 239.312C172.458 239.312 171.474 239.094 170.609 238.656C169.745 238.208 169.068 237.609 168.578 236.859C168.089 236.099 167.844 235.24 167.844 234.281C167.844 233.385 168.01 232.594 168.344 231.906C168.688 231.208 169.188 230.625 169.844 230.156C170.51 229.688 171.323 229.333 172.281 229.094C173.24 228.844 174.333 228.719 175.562 228.719H178.516ZM197.688 215V239H193.906V215H197.688ZM211.984 235.016V222.094H215.766V239H212.203L211.984 235.016ZM212.516 231.5L213.781 231.469C213.781 232.604 213.656 233.651 213.406 234.609C213.156 235.557 212.771 236.385 212.25 237.094C211.729 237.792 211.062 238.339 210.25 238.734C209.438 239.12 208.464 239.312 207.328 239.312C206.505 239.312 205.75 239.193 205.062 238.953C204.375 238.714 203.781 238.344 203.281 237.844C202.792 237.344 202.411 236.693 202.141 235.891C201.87 235.089 201.734 234.13 201.734 233.016V222.094H205.5V233.047C205.5 233.661 205.573 234.177 205.719 234.594C205.865 235 206.062 235.328 206.312 235.578C206.562 235.828 206.854 236.005 207.188 236.109C207.521 236.214 207.875 236.266 208.25 236.266C209.323 236.266 210.167 236.057 210.781 235.641C211.406 235.214 211.849 234.641 212.109 233.922C212.38 233.203 212.516 232.396 212.516 231.5ZM230.453 222.094H233.875V238.531C233.875 240.052 233.552 241.344 232.906 242.406C232.26 243.469 231.359 244.276 230.203 244.828C229.047 245.391 227.708 245.672 226.188 245.672C225.542 245.672 224.823 245.578 224.031 245.391C223.25 245.203 222.49 244.901 221.75 244.484C221.021 244.078 220.411 243.542 219.922 242.875L221.688 240.656C222.292 241.375 222.958 241.901 223.688 242.234C224.417 242.568 225.182 242.734 225.984 242.734C226.849 242.734 227.583 242.573 228.188 242.25C228.802 241.938 229.276 241.474 229.609 240.859C229.943 240.245 230.109 239.495 230.109 238.609V225.922L230.453 222.094ZM218.969 230.734V230.406C218.969 229.125 219.125 227.958 219.438 226.906C219.75 225.844 220.198 224.932 220.781 224.172C221.365 223.401 222.073 222.812 222.906 222.406C223.74 221.99 224.682 221.781 225.734 221.781C226.828 221.781 227.76 221.979 228.531 222.375C229.312 222.771 229.964 223.339 230.484 224.078C231.005 224.807 231.411 225.682 231.703 226.703C232.005 227.714 232.229 228.839 232.375 230.078V231.125C232.24 232.333 232.01 233.438 231.688 234.438C231.365 235.438 230.938 236.302 230.406 237.031C229.875 237.76 229.219 238.323 228.438 238.719C227.667 239.115 226.755 239.312 225.703 239.312C224.672 239.312 223.74 239.099 222.906 238.672C222.083 238.245 221.375 237.646 220.781 236.875C220.198 236.104 219.75 235.198 219.438 234.156C219.125 233.104 218.969 231.964 218.969 230.734ZM222.734 230.406V230.734C222.734 231.505 222.807 232.224 222.953 232.891C223.109 233.557 223.344 234.146 223.656 234.656C223.979 235.156 224.385 235.552 224.875 235.844C225.375 236.125 225.964 236.266 226.641 236.266C227.526 236.266 228.25 236.078 228.812 235.703C229.385 235.328 229.823 234.823 230.125 234.188C230.438 233.542 230.656 232.823 230.781 232.031V229.203C230.719 228.589 230.589 228.016 230.391 227.484C230.203 226.953 229.948 226.49 229.625 226.094C229.302 225.688 228.896 225.375 228.406 225.156C227.917 224.927 227.339 224.812 226.672 224.812C225.995 224.812 225.406 224.958 224.906 225.25C224.406 225.542 223.995 225.943 223.672 226.453C223.359 226.964 223.125 227.557 222.969 228.234C222.812 228.911 222.734 229.635 222.734 230.406ZM245.234 239.312C243.984 239.312 242.854 239.109 241.844 238.703C240.844 238.286 239.99 237.708 239.281 236.969C238.583 236.229 238.047 235.359 237.672 234.359C237.297 233.359 237.109 232.281 237.109 231.125V230.5C237.109 229.177 237.302 227.979 237.688 226.906C238.073 225.833 238.609 224.917 239.297 224.156C239.984 223.385 240.797 222.797 241.734 222.391C242.672 221.984 243.688 221.781 244.781 221.781C245.99 221.781 247.047 221.984 247.953 222.391C248.859 222.797 249.609 223.37 250.203 224.109C250.807 224.839 251.255 225.708 251.547 226.719C251.849 227.729 252 228.844 252 230.062V231.672H238.938V228.969H248.281V228.672C248.26 227.995 248.125 227.359 247.875 226.766C247.635 226.172 247.266 225.693 246.766 225.328C246.266 224.964 245.599 224.781 244.766 224.781C244.141 224.781 243.583 224.917 243.094 225.188C242.615 225.448 242.214 225.828 241.891 226.328C241.568 226.828 241.318 227.432 241.141 228.141C240.974 228.839 240.891 229.625 240.891 230.5V231.125C240.891 231.865 240.99 232.552 241.188 233.188C241.396 233.812 241.698 234.359 242.094 234.828C242.49 235.297 242.969 235.667 243.531 235.938C244.094 236.198 244.734 236.328 245.453 236.328C246.359 236.328 247.167 236.146 247.875 235.781C248.583 235.417 249.198 234.901 249.719 234.234L251.703 236.156C251.339 236.688 250.865 237.198 250.281 237.688C249.698 238.167 248.984 238.557 248.141 238.859C247.307 239.161 246.339 239.312 245.234 239.312ZM265.25 235.5V215H269.031V239H265.609L265.25 235.5ZM254.25 230.734V230.406C254.25 229.125 254.401 227.958 254.703 226.906C255.005 225.844 255.443 224.932 256.016 224.172C256.589 223.401 257.286 222.812 258.109 222.406C258.932 221.99 259.859 221.781 260.891 221.781C261.911 221.781 262.807 221.979 263.578 222.375C264.349 222.771 265.005 223.339 265.547 224.078C266.089 224.807 266.521 225.682 266.844 226.703C267.167 227.714 267.396 228.839 267.531 230.078V231.125C267.396 232.333 267.167 233.438 266.844 234.438C266.521 235.438 266.089 236.302 265.547 237.031C265.005 237.76 264.344 238.323 263.562 238.719C262.792 239.115 261.891 239.312 260.859 239.312C259.839 239.312 258.917 239.099 258.094 238.672C257.281 238.245 256.589 237.646 256.016 236.875C255.443 236.104 255.005 235.198 254.703 234.156C254.401 233.104 254.25 231.964 254.25 230.734ZM258.016 230.406V230.734C258.016 231.505 258.083 232.224 258.219 232.891C258.365 233.557 258.589 234.146 258.891 234.656C259.193 235.156 259.583 235.552 260.062 235.844C260.552 236.125 261.135 236.266 261.812 236.266C262.667 236.266 263.37 236.078 263.922 235.703C264.474 235.328 264.906 234.823 265.219 234.188C265.542 233.542 265.76 232.823 265.875 232.031V229.203C265.812 228.589 265.682 228.016 265.484 227.484C265.297 226.953 265.042 226.49 264.719 226.094C264.396 225.688 263.995 225.375 263.516 225.156C263.047 224.927 262.49 224.812 261.844 224.812C261.156 224.812 260.573 224.958 260.094 225.25C259.615 225.542 259.219 225.943 258.906 226.453C258.604 226.964 258.38 227.557 258.234 228.234C258.089 228.911 258.016 229.635 258.016 230.406ZM282.5 235.609V227.547C282.5 226.943 282.391 226.422 282.172 225.984C281.953 225.547 281.62 225.208 281.172 224.969C280.734 224.729 280.182 224.609 279.516 224.609C278.901 224.609 278.37 224.714 277.922 224.922C277.474 225.13 277.125 225.411 276.875 225.766C276.625 226.12 276.5 226.521 276.5 226.969H272.75C272.75 226.302 272.911 225.656 273.234 225.031C273.557 224.406 274.026 223.849 274.641 223.359C275.255 222.87 275.99 222.484 276.844 222.203C277.698 221.922 278.656 221.781 279.719 221.781C280.99 221.781 282.115 221.995 283.094 222.422C284.083 222.849 284.859 223.495 285.422 224.359C285.995 225.214 286.281 226.286 286.281 227.578V235.094C286.281 235.865 286.333 236.557 286.438 237.172C286.552 237.776 286.714 238.302 286.922 238.75V239H283.062C282.885 238.594 282.745 238.078 282.641 237.453C282.547 236.818 282.5 236.203 282.5 235.609ZM283.047 228.719L283.078 231.047H280.375C279.677 231.047 279.062 231.115 278.531 231.25C278 231.375 277.557 231.562 277.203 231.812C276.849 232.062 276.583 232.365 276.406 232.719C276.229 233.073 276.141 233.474 276.141 233.922C276.141 234.37 276.245 234.781 276.453 235.156C276.661 235.521 276.964 235.807 277.359 236.016C277.766 236.224 278.255 236.328 278.828 236.328C279.599 236.328 280.271 236.172 280.844 235.859C281.427 235.536 281.885 235.146 282.219 234.688C282.552 234.219 282.729 233.776 282.75 233.359L283.969 235.031C283.844 235.458 283.63 235.917 283.328 236.406C283.026 236.896 282.63 237.365 282.141 237.812C281.661 238.25 281.083 238.609 280.406 238.891C279.74 239.172 278.969 239.312 278.094 239.312C276.99 239.312 276.005 239.094 275.141 238.656C274.276 238.208 273.599 237.609 273.109 236.859C272.62 236.099 272.375 235.24 272.375 234.281C272.375 233.385 272.542 232.594 272.875 231.906C273.219 231.208 273.719 230.625 274.375 230.156C275.042 229.688 275.854 229.333 276.812 229.094C277.771 228.844 278.865 228.719 280.094 228.719H283.047ZM290.375 237.125C290.375 236.542 290.573 236.052 290.969 235.656C291.365 235.25 291.901 235.047 292.578 235.047C293.266 235.047 293.802 235.25 294.188 235.656C294.583 236.052 294.781 236.542 294.781 237.125C294.781 237.708 294.583 238.198 294.188 238.594C293.802 238.99 293.266 239.188 292.578 239.188C291.901 239.188 291.365 238.99 290.969 238.594C290.573 238.198 290.375 237.708 290.375 237.125Z" fill="#461102"/>
<path d="M67.824 283.292C71.744 283.292 75.132 284.02 77.988 285.476C80.844 286.876 83 288.808 84.456 291.272C85.968 293.68 86.724 296.368 86.724 299.336C86.724 302.416 86.052 305.384 84.708 308.24C83.42 311.096 81.18 314.316 77.988 317.9C74.852 321.484 70.26 326.104 64.212 331.76H87.984L86.64 341H50.604V332.348C57.66 325.292 62.756 320.028 65.892 316.556C69.028 313.084 71.24 310.144 72.528 307.736C73.816 305.328 74.46 302.864 74.46 300.344C74.46 297.936 73.76 296.032 72.36 294.632C70.96 293.232 69.084 292.532 66.732 292.532C64.66 292.532 62.812 293.008 61.188 293.96C59.564 294.856 57.856 296.368 56.064 298.496L48.924 292.784C53.74 286.456 60.04 283.292 67.824 283.292ZM131.988 322.268C132.772 326.132 134.2 328.96 136.272 330.752C138.4 332.544 141.228 333.44 144.756 333.44C148.508 333.44 152.54 332.264 156.852 329.912V339.152C154.556 340.216 152.372 341 150.3 341.504C148.228 342.064 145.96 342.344 143.496 342.344C137.168 342.344 131.96 340.608 127.872 337.136C123.84 333.608 121.18 328.652 119.892 322.268H112.584L114.264 315.8H119.556V309.5H112.584L114.264 302.948H119.976C121.544 296.844 124.456 292.056 128.712 288.584C133.024 285.056 138.092 283.292 143.916 283.292C149.74 283.292 155.004 284.888 159.708 288.08L155.424 295.472C153.632 294.296 151.868 293.456 150.132 292.952C148.396 292.392 146.464 292.112 144.336 292.112C141.424 292.112 138.932 293.008 136.86 294.8C134.788 296.592 133.248 299.308 132.24 302.948H152.82L151.14 309.5H131.652V315.8H149.796L148.2 322.268H131.988Z" fill="#E3000F"/>
<path d="M194.047 320.25V323.5H178.641V320.719L186.031 312.734C186.802 311.859 187.411 311.099 187.859 310.453C188.307 309.807 188.625 309.224 188.812 308.703C189.01 308.172 189.109 307.667 189.109 307.188C189.109 306.49 188.984 305.88 188.734 305.359C188.484 304.828 188.12 304.417 187.641 304.125C187.172 303.833 186.594 303.688 185.906 303.688C185.146 303.688 184.495 303.865 183.953 304.219C183.422 304.562 183.016 305.042 182.734 305.656C182.464 306.271 182.328 306.974 182.328 307.766H178.188C178.188 306.422 178.5 305.198 179.125 304.094C179.75 302.979 180.646 302.089 181.812 301.422C182.979 300.755 184.365 300.422 185.969 300.422C187.531 300.422 188.854 300.682 189.938 301.203C191.021 301.714 191.844 302.443 192.406 303.391C192.969 304.339 193.25 305.469 193.25 306.781C193.25 307.51 193.13 308.229 192.891 308.938C192.651 309.646 192.312 310.349 191.875 311.047C191.448 311.734 190.938 312.432 190.344 313.141C189.75 313.849 189.089 314.573 188.359 315.312L183.922 320.25H194.047ZM209.234 299.484V323.5H205.109V299.484H209.234ZM219.828 306.594L212.469 314.859L208.484 318.906L207.172 315.703L210.25 311.828L214.844 306.594H219.828ZM215.609 323.5L210.375 315.625L213.125 312.953L220.391 323.5H215.609ZM232.078 319.484V306.594H236.234V323.5H232.328L232.078 319.484ZM232.609 315.984L233.891 315.953C233.891 317.089 233.766 318.135 233.516 319.094C233.266 320.052 232.875 320.885 232.344 321.594C231.823 322.292 231.161 322.839 230.359 323.234C229.557 323.62 228.609 323.812 227.516 323.812C226.682 323.812 225.922 323.698 225.234 323.469C224.547 323.229 223.953 322.859 223.453 322.359C222.964 321.849 222.583 321.198 222.312 320.406C222.042 319.604 221.906 318.641 221.906 317.516V306.594H226.031V317.547C226.031 318.109 226.094 318.578 226.219 318.953C226.354 319.328 226.536 319.635 226.766 319.875C227.005 320.104 227.281 320.271 227.594 320.375C227.917 320.469 228.26 320.516 228.625 320.516C229.625 320.516 230.411 320.318 230.984 319.922C231.568 319.516 231.984 318.974 232.234 318.297C232.484 317.609 232.609 316.839 232.609 315.984ZM249.953 319.484V306.594H254.109V323.5H250.203L249.953 319.484ZM250.484 315.984L251.766 315.953C251.766 317.089 251.641 318.135 251.391 319.094C251.141 320.052 250.75 320.885 250.219 321.594C249.698 322.292 249.036 322.839 248.234 323.234C247.432 323.62 246.484 323.812 245.391 323.812C244.557 323.812 243.797 323.698 243.109 323.469C242.422 323.229 241.828 322.859 241.328 322.359C240.839 321.849 240.458 321.198 240.188 320.406C239.917 319.604 239.781 318.641 239.781 317.516V306.594H243.906V317.547C243.906 318.109 243.969 318.578 244.094 318.953C244.229 319.328 244.411 319.635 244.641 319.875C244.88 320.104 245.156 320.271 245.469 320.375C245.792 320.469 246.135 320.516 246.5 320.516C247.5 320.516 248.286 320.318 248.859 319.922C249.443 319.516 249.859 318.974 250.109 318.297C250.359 317.609 250.484 316.839 250.484 315.984ZM267.906 319.906V299.5H272.062V323.5H268.312L267.906 319.906ZM257.047 315.25V314.922C257.047 313.63 257.193 312.458 257.484 311.406C257.786 310.344 258.224 309.432 258.797 308.672C259.37 307.911 260.062 307.323 260.875 306.906C261.698 306.49 262.63 306.281 263.672 306.281C264.682 306.281 265.562 306.484 266.312 306.891C267.073 307.297 267.719 307.875 268.25 308.625C268.792 309.375 269.224 310.266 269.547 311.297C269.87 312.318 270.104 313.443 270.25 314.672V315.562C270.104 316.76 269.87 317.859 269.547 318.859C269.224 319.859 268.792 320.734 268.25 321.484C267.719 322.224 267.073 322.797 266.312 323.203C265.552 323.609 264.661 323.812 263.641 323.812C262.609 323.812 261.682 323.599 260.859 323.172C260.047 322.745 259.354 322.146 258.781 321.375C258.219 320.604 257.786 319.698 257.484 318.656C257.193 317.615 257.047 316.479 257.047 315.25ZM261.188 314.922V315.25C261.188 315.979 261.25 316.661 261.375 317.297C261.5 317.932 261.703 318.495 261.984 318.984C262.266 319.464 262.625 319.839 263.062 320.109C263.51 320.38 264.052 320.516 264.688 320.516C265.5 320.516 266.167 320.339 266.688 319.984C267.219 319.62 267.63 319.125 267.922 318.5C268.214 317.865 268.401 317.151 268.484 316.359V313.906C268.443 313.281 268.333 312.703 268.156 312.172C267.99 311.641 267.75 311.182 267.438 310.797C267.135 310.411 266.76 310.109 266.312 309.891C265.865 309.672 265.333 309.562 264.719 309.562C264.083 309.562 263.542 309.703 263.094 309.984C262.646 310.255 262.281 310.635 262 311.125C261.719 311.615 261.51 312.182 261.375 312.828C261.25 313.474 261.188 314.172 261.188 314.922Z" fill="#461102"/>
<rect x="346" y="280" width="316" height="64" rx="16" fill="#E3000F"/>
<path d="M395.248 300.824L394.736 304.856H389.264V323H384.016V304.856H378.288V300.824H395.248ZM410.961 300.824L410.417 304.568H402.609V309.88H409.425V313.56H402.609V319.224H410.961V323H397.361V300.824H410.961ZM419.453 300.824V318.84H428.093L427.549 323H414.205V300.824H419.453ZM435.859 300.824V318.84H444.499L443.955 323H430.611V300.824H435.859ZM452.266 300.824V323H447.018V300.824H452.266ZM470.162 300.824C473.64 300.824 476.424 301.613 478.514 303.192C480.626 304.749 481.682 307.619 481.682 311.8C481.682 315.917 480.658 318.819 478.61 320.504C476.562 322.168 473.906 323 470.642 323H463.986V300.824H470.162ZM469.234 304.632V319.192H470.962C472.69 319.192 474.002 318.659 474.898 317.592C475.794 316.504 476.242 314.573 476.242 311.8C476.242 309.901 476.018 308.429 475.57 307.384C475.122 306.339 474.514 305.624 473.746 305.24C472.978 304.835 472.029 304.632 470.898 304.632H469.234ZM490.078 300.824V323H484.83V300.824H490.078ZM503.805 300.28C506.664 300.28 509.128 301.187 511.197 303L508.541 305.784C507.752 305.187 507.016 304.76 506.333 304.504C505.672 304.227 504.904 304.088 504.029 304.088C502.386 304.088 501.074 304.739 500.093 306.04C499.112 307.32 498.621 309.272 498.621 311.896C498.621 314.733 498.994 316.749 499.741 317.944C500.488 319.117 501.65 319.704 503.229 319.704C504.338 319.704 505.341 319.459 506.237 318.968V313.944H503.357L502.845 310.232H511.325V321.208C510.173 321.955 508.904 322.531 507.517 322.936C506.13 323.341 504.744 323.544 503.357 323.544C499.986 323.544 497.448 322.563 495.741 320.6C494.034 318.616 493.181 315.715 493.181 311.896C493.181 309.464 493.64 307.373 494.557 305.624C495.496 303.875 496.765 302.552 498.365 301.656C499.986 300.739 501.8 300.28 503.805 300.28ZM520.078 300.824V323H514.83V300.824H520.078ZM531.373 300.824C534.296 300.824 536.568 301.432 538.189 302.648C539.81 303.864 540.621 305.667 540.621 308.056C540.621 310.552 539.821 312.44 538.221 313.72C536.642 314.979 534.52 315.608 531.853 315.608H529.453V323H524.205V300.824H531.373ZM531.405 311.832C532.642 311.832 533.581 311.544 534.221 310.968C534.882 310.371 535.213 309.4 535.213 308.056C535.213 305.731 533.912 304.568 531.309 304.568H529.453V311.832H531.405ZM553.166 323L552.014 318.232H545.55L544.43 323H538.99L545.678 300.824H552.046L558.734 323H553.166ZM546.446 314.424H551.118L548.782 304.632L546.446 314.424ZM565.609 300.824V323H560.361V300.824H565.609ZM578.345 300.824L571.273 310.776L578.921 323H572.841L565.769 311.16L572.809 300.824H578.345ZM594.211 300.824L593.667 304.568H585.859V309.88H592.675V313.56H585.859V319.224H594.211V323H580.611V300.824H594.211ZM612.623 300.824L612.111 304.856H606.639V323H601.391V304.856H595.663V300.824H612.623ZM629.904 300.824L629.392 304.856H623.92V323H618.672V304.856H612.944V300.824H629.904Z" fill="#FFE80D"/>
</svg>
