<svg width="710" height="400" viewBox="0 0 710 400" fill="none" xmlns="http://www.w3.org/2000/svg">
<path d="M76.32 78.056C76.32 80.328 75.84 82.344 74.88 84.104C73.92 85.864 72.48 87.256 70.56 88.28C68.672 89.272 66.368 89.768 63.648 89.768C59.552 89.768 56.416 88.712 54.24 86.6C52.096 84.456 51.024 81.608 51.024 78.056V55.784H58.08V77.72C58.08 79.96 58.528 81.64 59.424 82.76C60.32 83.848 61.728 84.392 63.648 84.392C65.568 84.392 66.976 83.848 67.872 82.76C68.8 81.64 69.264 79.96 69.264 77.72V55.784H76.32V78.056ZM103.598 89H97.6943L97.3583 85.592C96.4623 87 95.3743 88.056 94.0943 88.76C92.8143 89.432 91.3263 89.768 89.6303 89.768C87.3263 89.768 85.5663 89.08 84.3503 87.704C83.1343 86.296 82.5263 84.344 82.5263 81.848V63.56H89.3423V80.984C89.3423 82.328 89.5663 83.288 90.0143 83.864C90.4623 84.408 91.1663 84.68 92.1263 84.68C93.9503 84.68 95.5023 83.576 96.7823 81.368V63.56H103.598V89ZM131.833 75.704C131.833 76.024 131.785 76.904 131.689 78.344H115.801C116.025 80.648 116.649 82.28 117.673 83.24C118.697 84.2 120.089 84.68 121.849 84.68C122.937 84.68 123.961 84.504 124.921 84.152C125.881 83.8 126.921 83.24 128.041 82.472L130.873 86.312C128.025 88.616 124.809 89.768 121.225 89.768C117.225 89.768 114.153 88.568 112.009 86.168C109.865 83.768 108.793 80.52 108.793 76.424C108.793 73.832 109.241 71.512 110.137 69.464C111.065 67.384 112.393 65.752 114.121 64.568C115.881 63.384 117.961 62.792 120.361 62.792C123.977 62.792 126.793 63.928 128.809 66.2C130.825 68.472 131.833 71.64 131.833 75.704ZM125.065 73.784C125.065 69.56 123.545 67.448 120.505 67.448C119.097 67.448 117.993 67.976 117.193 69.032C116.425 70.056 115.961 71.736 115.801 74.072H125.065V73.784ZM143.102 89.768C141.022 89.768 139.406 89.176 138.254 87.992C137.102 86.776 136.526 85.064 136.526 82.856V53.432L143.342 52.664V82.664C143.342 83.784 143.806 84.344 144.734 84.344C145.246 84.344 145.694 84.248 146.078 84.056L147.47 88.904C146.158 89.48 144.702 89.768 143.102 89.768ZM182.128 81.944C182.128 82.936 182.272 83.672 182.56 84.152C182.848 84.6 183.328 84.936 184 85.16L182.56 89.672C181.056 89.544 179.824 89.192 178.864 88.616C177.936 88.04 177.216 87.144 176.704 85.928C175.04 88.488 172.496 89.768 169.072 89.768C166.544 89.768 164.528 89.048 163.024 87.608C161.552 86.136 160.816 84.232 160.816 81.896C160.816 79.112 161.824 76.984 163.84 75.512C165.856 74.04 168.752 73.304 172.528 73.304H175.456V72.056C175.456 70.488 175.104 69.4 174.4 68.792C173.696 68.184 172.528 67.88 170.896 67.88C169.104 67.88 166.864 68.328 164.176 69.224L162.64 64.664C165.808 63.416 168.944 62.792 172.048 62.792C175.504 62.792 178.048 63.544 179.68 65.048C181.312 66.52 182.128 68.728 182.128 71.672V81.944ZM170.944 84.872C172.864 84.872 174.368 83.928 175.456 82.04V77.192H173.2C169.52 77.192 167.68 78.568 167.68 81.32C167.68 82.44 167.952 83.32 168.496 83.96C169.072 84.568 169.888 84.872 170.944 84.872ZM208.144 81.944C208.144 82.936 208.288 83.672 208.576 84.152C208.864 84.6 209.344 84.936 210.016 85.16L208.576 89.672C207.072 89.544 205.84 89.192 204.88 88.616C203.952 88.04 203.232 87.144 202.72 85.928C201.056 88.488 198.512 89.768 195.088 89.768C192.56 89.768 190.544 89.048 189.04 87.608C187.568 86.136 186.832 84.232 186.832 81.896C186.832 79.112 187.84 76.984 189.856 75.512C191.872 74.04 194.768 73.304 198.544 73.304H201.472V72.056C201.472 70.488 201.12 69.4 200.416 68.792C199.712 68.184 198.544 67.88 196.912 67.88C195.12 67.88 192.88 68.328 190.192 69.224L188.656 64.664C191.824 63.416 194.96 62.792 198.064 62.792C201.52 62.792 204.064 63.544 205.696 65.048C207.328 66.52 208.144 68.728 208.144 71.672V81.944ZM196.96 84.872C198.88 84.872 200.384 83.928 201.472 82.04V77.192H199.216C195.536 77.192 193.696 78.568 193.696 81.32C193.696 82.44 193.968 83.32 194.512 83.96C195.088 84.568 195.904 84.872 196.96 84.872ZM222.933 62.792C226.517 62.792 229.589 63.816 232.149 65.864L229.557 69.752C227.413 68.408 225.301 67.736 223.221 67.736C222.101 67.736 221.237 67.944 220.629 68.36C220.021 68.776 219.717 69.336 219.717 70.04C219.717 70.552 219.845 70.984 220.101 71.336C220.389 71.688 220.901 72.024 221.637 72.344C222.405 72.664 223.541 73.048 225.045 73.496C227.733 74.232 229.733 75.224 231.045 76.472C232.357 77.688 233.013 79.368 233.013 81.512C233.013 83.208 232.517 84.68 231.525 85.928C230.565 87.176 229.253 88.136 227.589 88.808C225.925 89.448 224.069 89.768 222.021 89.768C219.877 89.768 217.925 89.448 216.165 88.808C214.405 88.136 212.901 87.224 211.653 86.072L215.013 82.328C217.157 83.992 219.429 84.824 221.829 84.824C223.109 84.824 224.117 84.584 224.853 84.104C225.621 83.592 226.005 82.904 226.005 82.04C226.005 81.368 225.861 80.84 225.573 80.456C225.285 80.072 224.757 79.72 223.989 79.4C223.221 79.048 222.021 78.648 220.389 78.2C217.829 77.496 215.925 76.504 214.677 75.224C213.461 73.912 212.853 72.296 212.853 70.376C212.853 68.936 213.269 67.64 214.101 66.488C214.933 65.336 216.101 64.44 217.605 63.8C219.141 63.128 220.917 62.792 222.933 62.792ZM252.67 87.8C251.742 88.44 250.686 88.92 249.502 89.24C248.35 89.592 247.198 89.768 246.046 89.768C243.422 89.736 241.438 88.984 240.094 87.512C238.75 86.04 238.078 83.88 238.078 81.032V68.36H234.286V63.56H238.078V57.992L244.894 57.176V63.56H250.75L250.078 68.36H244.894V80.888C244.894 82.104 245.102 82.984 245.518 83.528C245.934 84.072 246.574 84.344 247.438 84.344C248.302 84.344 249.262 84.056 250.318 83.48L252.67 87.8ZM274.613 81.944C274.613 82.936 274.757 83.672 275.045 84.152C275.333 84.6 275.813 84.936 276.484 85.16L275.045 89.672C273.541 89.544 272.309 89.192 271.349 88.616C270.421 88.04 269.701 87.144 269.189 85.928C267.525 88.488 264.981 89.768 261.557 89.768C259.029 89.768 257.013 89.048 255.509 87.608C254.037 86.136 253.301 84.232 253.301 81.896C253.301 79.112 254.309 76.984 256.325 75.512C258.341 74.04 261.237 73.304 265.013 73.304H267.941V72.056C267.941 70.488 267.589 69.4 266.885 68.792C266.181 68.184 265.013 67.88 263.381 67.88C261.589 67.88 259.349 68.328 256.661 69.224L255.125 64.664C258.293 63.416 261.429 62.792 264.533 62.792C267.989 62.792 270.533 63.544 272.165 65.048C273.797 66.52 274.613 68.728 274.613 71.672V81.944ZM263.429 84.872C265.349 84.872 266.853 83.928 267.941 82.04V77.192H265.685C262.005 77.192 260.165 78.568 260.165 81.32C260.165 82.44 260.437 83.32 260.981 83.96C261.557 84.568 262.373 84.872 263.429 84.872ZM287.29 89.768C285.21 89.768 283.594 89.176 282.442 87.992C281.29 86.776 280.714 85.064 280.714 82.856V53.432L287.53 52.664V82.664C287.53 83.784 287.994 84.344 288.922 84.344C289.434 84.344 289.882 84.248 290.266 84.056L291.658 88.904C290.346 89.48 288.89 89.768 287.29 89.768ZM313.692 52.664V89H306.876V53.432L313.692 52.664ZM329.148 63.56L321.036 74.744L329.868 89H322.14L313.932 75.08L322.092 63.56H329.148ZM351.628 81.944C351.628 82.936 351.772 83.672 352.06 84.152C352.348 84.6 352.828 84.936 353.5 85.16L352.06 89.672C350.556 89.544 349.324 89.192 348.364 88.616C347.436 88.04 346.716 87.144 346.204 85.928C344.54 88.488 341.996 89.768 338.572 89.768C336.044 89.768 334.028 89.048 332.524 87.608C331.052 86.136 330.316 84.232 330.316 81.896C330.316 79.112 331.324 76.984 333.34 75.512C335.356 74.04 338.252 73.304 342.028 73.304H344.956V72.056C344.956 70.488 344.604 69.4 343.9 68.792C343.196 68.184 342.028 67.88 340.396 67.88C338.604 67.88 336.364 68.328 333.676 69.224L332.14 64.664C335.308 63.416 338.444 62.792 341.548 62.792C345.004 62.792 347.548 63.544 349.18 65.048C350.812 66.52 351.628 68.728 351.628 71.672V81.944ZM340.444 84.872C342.364 84.872 343.868 83.928 344.956 82.04V77.192H342.7C339.02 77.192 337.18 78.568 337.18 81.32C337.18 82.44 337.452 83.32 337.996 83.96C338.572 84.568 339.388 84.872 340.444 84.872ZM336.268 50.984C337.292 50.984 338.14 51.336 338.812 52.04C339.516 52.712 339.868 53.544 339.868 54.536C339.868 55.528 339.516 56.376 338.812 57.08C338.14 57.752 337.292 58.088 336.268 58.088C335.276 58.088 334.428 57.752 333.724 57.08C333.02 56.376 332.668 55.528 332.668 54.536C332.668 53.544 333.02 52.712 333.724 52.04C334.428 51.336 335.276 50.984 336.268 50.984ZM347.116 50.984C348.14 50.984 349.004 51.336 349.708 52.04C350.412 52.712 350.764 53.544 350.764 54.536C350.764 55.528 350.412 56.376 349.708 57.08C349.004 57.752 348.14 58.088 347.116 58.088C346.124 58.088 345.276 57.752 344.572 57.08C343.9 56.376 343.564 55.528 343.564 54.536C343.564 53.544 343.9 52.712 344.572 52.04C345.276 51.336 346.124 50.984 347.116 50.984ZM365.254 63.56V89H358.438V63.56H365.254ZM361.798 50.456C363.014 50.456 364.006 50.84 364.774 51.608C365.574 52.344 365.974 53.288 365.974 54.44C365.974 55.592 365.574 56.552 364.774 57.32C364.006 58.056 363.014 58.424 361.798 58.424C360.582 58.424 359.59 58.056 358.822 57.32C358.054 56.552 357.67 55.592 357.67 54.44C357.67 53.288 358.054 52.344 358.822 51.608C359.59 50.84 360.582 50.456 361.798 50.456ZM386.193 62.792C388.433 62.792 390.177 63.48 391.425 64.856C392.673 66.2 393.297 68.072 393.297 70.472V89H386.481V71.624C386.481 70.248 386.241 69.288 385.761 68.744C385.313 68.168 384.625 67.88 383.697 67.88C382.737 67.88 381.857 68.184 381.057 68.792C380.289 69.368 379.537 70.248 378.801 71.432V89H371.985V63.56H377.889L378.417 66.776C379.473 65.464 380.625 64.472 381.873 63.8C383.153 63.128 384.593 62.792 386.193 62.792ZM59.808 115.792C63.392 115.792 66.464 116.816 69.024 118.864L66.432 122.752C64.288 121.408 62.176 120.736 60.096 120.736C58.976 120.736 58.112 120.944 57.504 121.36C56.896 121.776 56.592 122.336 56.592 123.04C56.592 123.552 56.72 123.984 56.976 124.336C57.264 124.688 57.776 125.024 58.512 125.344C59.28 125.664 60.416 126.048 61.92 126.496C64.608 127.232 66.608 128.224 67.92 129.472C69.232 130.688 69.888 132.368 69.888 134.512C69.888 136.208 69.392 137.68 68.4 138.928C67.44 140.176 66.128 141.136 64.464 141.808C62.8 142.448 60.944 142.768 58.896 142.768C56.752 142.768 54.8 142.448 53.04 141.808C51.28 141.136 49.776 140.224 48.528 139.072L51.888 135.328C54.032 136.992 56.304 137.824 58.704 137.824C59.984 137.824 60.992 137.584 61.728 137.104C62.496 136.592 62.88 135.904 62.88 135.04C62.88 134.368 62.736 133.84 62.448 133.456C62.16 133.072 61.632 132.72 60.864 132.4C60.096 132.048 58.896 131.648 57.264 131.2C54.704 130.496 52.8 129.504 51.552 128.224C50.336 126.912 49.728 125.296 49.728 123.376C49.728 121.936 50.144 120.64 50.976 119.488C51.808 118.336 52.976 117.44 54.48 116.8C56.016 116.128 57.792 115.792 59.808 115.792ZM85.0328 115.792C88.8408 115.792 91.8168 116.992 93.9608 119.392C96.1048 121.76 97.1768 125.056 97.1768 129.28C97.1768 131.968 96.6808 134.336 95.6888 136.384C94.7288 138.4 93.3208 139.968 91.4648 141.088C89.6408 142.208 87.4808 142.768 84.9848 142.768C81.1768 142.768 78.1848 141.584 76.0088 139.216C73.8648 136.816 72.7928 133.504 72.7928 129.28C72.7928 126.592 73.2728 124.24 74.2328 122.224C75.2248 120.176 76.6328 118.592 78.4568 117.472C80.3128 116.352 82.5048 115.792 85.0328 115.792ZM85.0328 120.88C83.3048 120.88 82.0088 121.568 81.1448 122.944C80.3128 124.288 79.8968 126.4 79.8968 129.28C79.8968 132.16 80.3128 134.288 81.1448 135.664C82.0088 137.008 83.2888 137.68 84.9848 137.68C86.6808 137.68 87.9448 137.008 88.7768 135.664C89.6408 134.288 90.0728 132.16 90.0728 129.28C90.0728 126.4 89.6568 124.288 88.8248 122.944C87.9928 121.568 86.7288 120.88 85.0328 120.88ZM87.7688 111.28C87.0968 111.28 86.5048 111.168 85.9928 110.944C85.5128 110.72 84.9368 110.4 84.2648 109.984C83.8488 109.664 83.4808 109.44 83.1608 109.312C82.8728 109.152 82.5688 109.072 82.2488 109.072C81.7368 109.072 81.2888 109.248 80.9048 109.6C80.5208 109.952 80.1208 110.496 79.7048 111.232L76.2008 109.504C76.8408 107.936 77.6728 106.656 78.6968 105.664C79.7208 104.672 80.8728 104.176 82.1528 104.176C82.8888 104.176 83.5128 104.304 84.0248 104.56C84.5368 104.784 85.1128 105.104 85.7528 105.52C86.1688 105.808 86.5208 106.032 86.8088 106.192C87.0968 106.32 87.4008 106.384 87.7208 106.384C88.2328 106.384 88.6648 106.224 89.0168 105.904C89.4008 105.552 89.8168 105.008 90.2648 104.272L93.7688 106C93.1288 107.632 92.2968 108.928 91.2728 109.888C90.2488 110.816 89.0808 111.28 87.7688 111.28ZM116.136 115.792C119.112 115.792 121.416 116.976 123.048 119.344C124.712 121.712 125.544 125.024 125.544 129.28C125.544 131.904 125.128 134.24 124.296 136.288C123.496 138.304 122.328 139.888 120.792 141.04C119.288 142.192 117.512 142.768 115.464 142.768C112.68 142.768 110.456 141.68 108.792 139.504L108.408 142H102.36V106.432L109.176 105.664V119.296C109.976 118.208 110.984 117.36 112.2 116.752C113.416 116.112 114.728 115.792 116.136 115.792ZM113.544 137.728C116.808 137.728 118.44 134.912 118.44 129.28C118.44 126.176 118.04 124 117.24 122.752C116.472 121.472 115.352 120.832 113.88 120.832C112.056 120.832 110.488 121.92 109.176 124.096V134.992C110.296 136.816 111.752 137.728 113.544 137.728ZM144.106 115.84C144.874 115.84 145.722 115.968 146.65 116.224L145.498 122.8C144.602 122.576 143.85 122.464 143.242 122.464C141.738 122.464 140.57 122.992 139.738 124.048C138.906 125.104 138.25 126.704 137.77 128.848V142H130.954V116.56H136.858L137.482 121.504C138.09 119.712 138.97 118.32 140.122 117.328C141.306 116.336 142.634 115.84 144.106 115.84ZM167.784 134.944C167.784 135.936 167.928 136.672 168.216 137.152C168.504 137.6 168.984 137.936 169.656 138.16L168.216 142.672C166.712 142.544 165.48 142.192 164.52 141.616C163.592 141.04 162.872 140.144 162.36 138.928C160.696 141.488 158.152 142.768 154.728 142.768C152.2 142.768 150.184 142.048 148.68 140.608C147.208 139.136 146.472 137.232 146.472 134.896C146.472 132.112 147.48 129.984 149.496 128.512C151.512 127.04 154.408 126.304 158.184 126.304H161.112V125.056C161.112 123.488 160.76 122.4 160.056 121.792C159.352 121.184 158.184 120.88 156.552 120.88C154.76 120.88 152.52 121.328 149.832 122.224L148.296 117.664C151.464 116.416 154.6 115.792 157.704 115.792C161.16 115.792 163.704 116.544 165.336 118.048C166.968 119.52 167.784 121.728 167.784 124.672V134.944ZM156.6 137.872C158.52 137.872 160.024 136.928 161.112 135.04V130.192H158.856C155.176 130.192 153.336 131.568 153.336 134.32C153.336 135.44 153.608 136.32 154.152 136.96C154.728 137.568 155.544 137.872 156.6 137.872ZM188.802 115.792C191.042 115.792 192.786 116.48 194.034 117.856C195.282 119.2 195.906 121.072 195.906 123.472V142H189.09V124.624C189.09 123.248 188.85 122.288 188.37 121.744C187.922 121.168 187.234 120.88 186.306 120.88C185.346 120.88 184.466 121.184 183.666 121.792C182.898 122.368 182.146 123.248 181.41 124.432V142H174.594V116.56H180.498L181.026 119.776C182.082 118.464 183.234 117.472 184.482 116.8C185.762 116.128 187.202 115.792 188.802 115.792ZM216.599 115.792C218.839 115.792 220.583 116.48 221.831 117.856C223.079 119.2 223.703 121.072 223.703 123.472V142H216.887V124.624C216.887 123.248 216.647 122.288 216.167 121.744C215.719 121.168 215.031 120.88 214.103 120.88C213.143 120.88 212.263 121.184 211.463 121.792C210.695 122.368 209.943 123.248 209.207 124.432V142H202.391V116.56H208.295L208.823 119.776C209.879 118.464 211.031 117.472 212.279 116.8C213.559 116.128 214.999 115.792 216.599 115.792ZM249.628 134.944C249.628 135.936 249.772 136.672 250.06 137.152C250.348 137.6 250.828 137.936 251.5 138.16L250.06 142.672C248.556 142.544 247.324 142.192 246.364 141.616C245.436 141.04 244.716 140.144 244.204 138.928C242.54 141.488 239.996 142.768 236.572 142.768C234.044 142.768 232.028 142.048 230.524 140.608C229.052 139.136 228.316 137.232 228.316 134.896C228.316 132.112 229.324 129.984 231.34 128.512C233.356 127.04 236.252 126.304 240.028 126.304H242.956V125.056C242.956 123.488 242.604 122.4 241.9 121.792C241.196 121.184 240.028 120.88 238.396 120.88C236.604 120.88 234.364 121.328 231.676 122.224L230.14 117.664C233.308 116.416 236.444 115.792 239.548 115.792C243.004 115.792 245.548 116.544 247.18 118.048C248.812 119.52 249.628 121.728 249.628 124.672V134.944ZM238.444 137.872C240.364 137.872 241.868 136.928 242.956 135.04V130.192H240.7C237.02 130.192 235.18 131.568 235.18 134.32C235.18 135.44 235.452 136.32 235.996 136.96C236.572 137.568 237.388 137.872 238.444 137.872ZM278.47 106.432V142H272.47L272.086 138.88C270.294 141.472 267.862 142.768 264.79 142.768C261.654 142.768 259.254 141.568 257.59 139.168C255.958 136.736 255.142 133.44 255.142 129.28C255.142 126.656 255.558 124.336 256.39 122.32C257.254 120.272 258.47 118.672 260.038 117.52C261.606 116.368 263.414 115.792 265.462 115.792C267.83 115.792 269.894 116.64 271.654 118.336V105.664L278.47 106.432ZM266.806 137.68C267.798 137.68 268.678 137.44 269.446 136.96C270.214 136.448 270.95 135.664 271.654 134.608V123.232C270.982 122.432 270.294 121.84 269.59 121.456C268.918 121.04 268.134 120.832 267.238 120.832C265.67 120.832 264.438 121.52 263.542 122.896C262.678 124.272 262.246 126.4 262.246 129.28C262.246 132.32 262.63 134.48 263.398 135.76C264.198 137.04 265.334 137.68 266.806 137.68ZM306.677 128.704C306.677 129.024 306.629 129.904 306.533 131.344H290.645C290.869 133.648 291.493 135.28 292.517 136.24C293.541 137.2 294.933 137.68 296.693 137.68C297.781 137.68 298.805 137.504 299.765 137.152C300.725 136.8 301.765 136.24 302.885 135.472L305.717 139.312C302.869 141.616 299.653 142.768 296.069 142.768C292.069 142.768 288.997 141.568 286.853 139.168C284.709 136.768 283.637 133.52 283.637 129.424C283.637 126.832 284.085 124.512 284.98 122.464C285.909 120.384 287.237 118.752 288.965 117.568C290.725 116.384 292.805 115.792 295.205 115.792C298.821 115.792 301.637 116.928 303.653 119.2C305.669 121.472 306.677 124.64 306.677 128.704ZM299.909 126.784C299.909 122.56 298.389 120.448 295.349 120.448C293.941 120.448 292.837 120.976 292.037 122.032C291.269 123.056 290.805 124.736 290.645 127.072H299.909V126.784ZM334.362 117.952C332.698 118.592 330.25 118.912 327.018 118.912C328.618 119.616 329.802 120.496 330.57 121.552C331.338 122.576 331.722 123.872 331.722 125.44C331.722 127.072 331.29 128.544 330.426 129.856C329.594 131.136 328.378 132.144 326.778 132.88C325.21 133.616 323.37 133.984 321.258 133.984C320.138 133.984 319.146 133.872 318.282 133.648C317.642 134.064 317.322 134.624 317.322 135.328C317.322 135.84 317.514 136.256 317.898 136.576C318.314 136.864 319.098 137.008 320.25 137.008H324.138C326.026 137.008 327.674 137.328 329.082 137.968C330.522 138.576 331.626 139.44 332.394 140.56C333.194 141.648 333.594 142.896 333.594 144.304C333.594 146.896 332.474 148.912 330.234 150.352C328.026 151.824 324.826 152.56 320.634 152.56C317.626 152.56 315.242 152.24 313.482 151.6C311.754 150.992 310.538 150.096 309.834 148.912C309.13 147.728 308.778 146.24 308.778 144.448H314.874C314.874 145.28 315.034 145.936 315.354 146.416C315.674 146.928 316.25 147.296 317.082 147.52C317.946 147.776 319.178 147.904 320.778 147.904C322.986 147.904 324.522 147.632 325.386 147.088C326.282 146.544 326.73 145.776 326.73 144.784C326.73 143.888 326.394 143.2 325.722 142.72C325.05 142.24 324.058 142 322.746 142H319.002C316.474 142 314.586 141.536 313.338 140.608C312.09 139.648 311.466 138.448 311.466 137.008C311.466 136.112 311.722 135.248 312.234 134.416C312.778 133.552 313.514 132.832 314.442 132.256C312.874 131.392 311.722 130.384 310.986 129.232C310.282 128.048 309.93 126.64 309.93 125.008C309.93 123.152 310.378 121.536 311.274 120.16C312.202 118.752 313.482 117.68 315.114 116.944C316.778 116.176 318.666 115.792 320.778 115.792C323.402 115.856 325.562 115.632 327.258 115.12C328.954 114.608 330.762 113.808 332.682 112.72L334.362 117.952ZM320.922 120.352C319.642 120.352 318.618 120.768 317.85 121.6C317.114 122.4 316.746 123.504 316.746 124.912C316.746 126.352 317.114 127.488 317.85 128.32C318.618 129.152 319.658 129.568 320.97 129.568C322.346 129.568 323.386 129.168 324.09 128.368C324.794 127.568 325.146 126.384 325.146 124.816C325.146 121.84 323.738 120.352 320.922 120.352ZM356.081 134.944C356.081 135.936 356.225 136.672 356.513 137.152C356.801 137.6 357.281 137.936 357.953 138.16L356.513 142.672C355.009 142.544 353.777 142.192 352.817 141.616C351.889 141.04 351.169 140.144 350.657 138.928C348.993 141.488 346.449 142.768 343.025 142.768C340.497 142.768 338.481 142.048 336.977 140.608C335.505 139.136 334.769 137.232 334.769 134.896C334.769 132.112 335.777 129.984 337.793 128.512C339.809 127.04 342.705 126.304 346.481 126.304H349.409V125.056C349.409 123.488 349.057 122.4 348.353 121.792C347.649 121.184 346.481 120.88 344.849 120.88C343.057 120.88 340.817 121.328 338.129 122.224L336.593 117.664C339.761 116.416 342.897 115.792 346.001 115.792C349.457 115.792 352.001 116.544 353.633 118.048C355.265 119.52 356.081 121.728 356.081 124.672V134.944ZM344.897 137.872C346.817 137.872 348.321 136.928 349.409 135.04V130.192H347.153C343.473 130.192 341.633 131.568 341.633 134.32C341.633 135.44 341.905 136.32 342.449 136.96C343.025 137.568 343.841 137.872 344.897 137.872ZM387.762 115.84C388.53 115.84 389.378 115.968 390.306 116.224L389.154 122.8C388.258 122.576 387.506 122.464 386.898 122.464C385.394 122.464 384.226 122.992 383.394 124.048C382.562 125.104 381.906 126.704 381.426 128.848V142H374.61V116.56H380.514L381.138 121.504C381.746 119.712 382.626 118.32 383.778 117.328C384.962 116.336 386.29 115.84 387.762 115.84ZM402.939 115.792C406.747 115.792 409.723 116.992 411.867 119.392C414.011 121.76 415.083 125.056 415.083 129.28C415.083 131.968 414.587 134.336 413.595 136.384C412.635 138.4 411.227 139.968 409.371 141.088C407.547 142.208 405.387 142.768 402.891 142.768C399.083 142.768 396.091 141.584 393.915 139.216C391.771 136.816 390.699 133.504 390.699 129.28C390.699 126.592 391.179 124.24 392.139 122.224C393.131 120.176 394.539 118.592 396.363 117.472C398.219 116.352 400.411 115.792 402.939 115.792ZM402.939 120.88C401.211 120.88 399.915 121.568 399.051 122.944C398.219 124.288 397.803 126.4 397.803 129.28C397.803 132.16 398.219 134.288 399.051 135.664C399.915 137.008 401.195 137.68 402.891 137.68C404.587 137.68 405.851 137.008 406.683 135.664C407.547 134.288 407.979 132.16 407.979 129.28C407.979 126.4 407.563 124.288 406.731 122.944C405.899 121.568 404.635 120.88 402.939 120.88ZM434.474 115.792C436.682 115.792 438.41 116.48 439.658 117.856C440.938 119.2 441.578 121.072 441.578 123.472V142H434.762V124.624C434.762 123.248 434.522 122.288 434.042 121.744C433.562 121.168 432.874 120.88 431.978 120.88C430.186 120.88 428.554 122.048 427.082 124.384V142H420.266V106.432L427.082 105.712V119.44C428.106 118.224 429.21 117.312 430.394 116.704C431.61 116.096 432.97 115.792 434.474 115.792ZM454.879 105.664V142H448.063V106.432L454.879 105.664ZM470.335 116.56L462.223 127.744L471.055 142H463.327L455.119 128.08L463.279 116.56H470.335ZM495.02 128.704C495.02 129.024 494.972 129.904 494.876 131.344H478.988C479.212 133.648 479.836 135.28 480.86 136.24C481.884 137.2 483.276 137.68 485.036 137.68C486.124 137.68 487.148 137.504 488.108 137.152C489.068 136.8 490.108 136.24 491.228 135.472L494.06 139.312C491.212 141.616 487.996 142.768 484.412 142.768C480.412 142.768 477.34 141.568 475.196 139.168C473.052 136.768 471.98 133.52 471.98 129.424C471.98 126.832 472.428 124.512 473.324 122.464C474.252 120.384 475.58 118.752 477.308 117.568C479.068 116.384 481.148 115.792 483.548 115.792C487.164 115.792 489.98 116.928 491.996 119.2C494.012 121.472 495.02 124.64 495.02 128.704ZM488.252 126.784C488.252 122.56 486.732 120.448 483.692 120.448C482.284 120.448 481.18 120.976 480.38 122.032C479.612 123.056 479.148 124.736 478.988 127.072H488.252V126.784ZM527.458 115.792C529.474 115.792 531.09 116.48 532.306 117.856C533.554 119.232 534.178 121.104 534.178 123.472V142H527.362V124.624C527.362 122.128 526.53 120.88 524.866 120.88C523.97 120.88 523.186 121.168 522.514 121.744C521.842 122.32 521.154 123.216 520.45 124.432V142H513.634V124.624C513.634 122.128 512.802 120.88 511.138 120.88C510.242 120.88 509.458 121.184 508.786 121.792C508.114 122.368 507.442 123.248 506.77 124.432V142H499.954V116.56H505.858L506.386 119.728C507.346 118.448 508.418 117.472 509.602 116.8C510.818 116.128 512.21 115.792 513.778 115.792C515.218 115.792 516.466 116.16 517.522 116.896C518.578 117.6 519.346 118.608 519.826 119.92C520.882 118.544 522.018 117.52 523.234 116.848C524.482 116.144 525.89 115.792 527.458 115.792ZM58.176 158.664V195H51.36V159.432L58.176 158.664ZM73.632 169.56L65.52 180.744L74.352 195H66.624L58.416 181.08L66.576 169.56H73.632ZM87.5171 168.792C91.3251 168.792 94.3011 169.992 96.4451 172.392C98.5891 174.76 99.6611 178.056 99.6611 182.28C99.6611 184.968 99.1651 187.336 98.1731 189.384C97.2131 191.4 95.8051 192.968 93.9491 194.088C92.1251 195.208 89.9651 195.768 87.4691 195.768C83.6611 195.768 80.6691 194.584 78.4931 192.216C76.3491 189.816 75.2771 186.504 75.2771 182.28C75.2771 179.592 75.7571 177.24 76.7171 175.224C77.7091 173.176 79.1171 171.592 80.9411 170.472C82.7971 169.352 84.9891 168.792 87.5171 168.792ZM87.5171 173.88C85.7891 173.88 84.4931 174.568 83.6291 175.944C82.7971 177.288 82.3811 179.4 82.3811 182.28C82.3811 185.16 82.7971 187.288 83.6291 188.664C84.4931 190.008 85.7731 190.68 87.4691 190.68C89.1651 190.68 90.4291 190.008 91.2611 188.664C92.1251 187.288 92.5571 185.16 92.5571 182.28C92.5571 179.4 92.1411 177.288 91.3091 175.944C90.4771 174.568 89.2131 173.88 87.5171 173.88ZM119.052 168.792C121.26 168.792 122.988 169.48 124.236 170.856C125.516 172.2 126.156 174.072 126.156 176.472V195H119.34V177.624C119.34 176.248 119.1 175.288 118.62 174.744C118.14 174.168 117.452 173.88 116.556 173.88C114.764 173.88 113.132 175.048 111.66 177.384V195H104.844V159.432L111.66 158.712V172.44C112.684 171.224 113.788 170.312 114.972 169.704C116.188 169.096 117.548 168.792 119.052 168.792ZM153.48 169.56L145.32 195H137.208L128.904 169.56H136.296L141.336 189.672L146.472 169.56H153.48ZM163.551 169.56V195H156.735V169.56H163.551ZM160.095 156.456C161.311 156.456 162.303 156.84 163.071 157.608C163.871 158.344 164.271 159.288 164.271 160.44C164.271 161.592 163.871 162.552 163.071 163.32C162.303 164.056 161.311 164.424 160.095 164.424C158.879 164.424 157.887 164.056 157.119 163.32C156.351 162.552 155.967 161.592 155.967 160.44C155.967 159.288 156.351 158.344 157.119 157.608C157.887 156.84 158.879 156.456 160.095 156.456ZM185.498 193.8C184.57 194.44 183.514 194.92 182.33 195.24C181.178 195.592 180.026 195.768 178.874 195.768C176.25 195.736 174.266 194.984 172.922 193.512C171.578 192.04 170.906 189.88 170.906 187.032V174.36H167.114V169.56H170.906V163.992L177.722 163.176V169.56H183.578L182.906 174.36H177.722V186.888C177.722 188.104 177.93 188.984 178.346 189.528C178.762 190.072 179.402 190.344 180.266 190.344C181.13 190.344 182.09 190.056 183.146 189.48L185.498 193.8ZM207.441 187.944C207.441 188.936 207.585 189.672 207.873 190.152C208.161 190.6 208.641 190.936 209.313 191.16L207.873 195.672C206.369 195.544 205.137 195.192 204.177 194.616C203.249 194.04 202.529 193.144 202.017 191.928C200.353 194.488 197.809 195.768 194.385 195.768C191.857 195.768 189.841 195.048 188.337 193.608C186.865 192.136 186.129 190.232 186.129 187.896C186.129 185.112 187.137 182.984 189.153 181.512C191.169 180.04 194.065 179.304 197.841 179.304H200.769V178.056C200.769 176.488 200.417 175.4 199.713 174.792C199.009 174.184 197.841 173.88 196.209 173.88C194.417 173.88 192.177 174.328 189.489 175.224L187.953 170.664C191.121 169.416 194.257 168.792 197.361 168.792C200.817 168.792 203.361 169.544 204.993 171.048C206.625 172.52 207.441 174.728 207.441 177.672V187.944ZM196.257 190.872C198.177 190.872 199.681 189.928 200.769 188.04V183.192H198.513C194.833 183.192 192.993 184.568 192.993 187.32C192.993 188.44 193.265 189.32 193.809 189.96C194.385 190.568 195.201 190.872 196.257 190.872ZM241.755 168.792C243.771 168.792 245.387 169.48 246.603 170.856C247.851 172.232 248.475 174.104 248.475 176.472V195H241.659V177.624C241.659 175.128 240.827 173.88 239.163 173.88C238.267 173.88 237.483 174.168 236.811 174.744C236.139 175.32 235.451 176.216 234.747 177.432V195H227.931V177.624C227.931 175.128 227.099 173.88 225.435 173.88C224.539 173.88 223.755 174.184 223.083 174.792C222.411 175.368 221.739 176.248 221.067 177.432V195H214.251V169.56H220.155L220.683 172.728C221.643 171.448 222.715 170.472 223.899 169.8C225.115 169.128 226.507 168.792 228.075 168.792C229.515 168.792 230.763 169.16 231.819 169.896C232.875 170.6 233.643 171.608 234.123 172.92C235.179 171.544 236.315 170.52 237.531 169.848C238.779 169.144 240.187 168.792 241.755 168.792ZM274.378 187.944C274.378 188.936 274.522 189.672 274.81 190.152C275.098 190.6 275.578 190.936 276.25 191.16L274.81 195.672C273.306 195.544 272.074 195.192 271.114 194.616C270.186 194.04 269.466 193.144 268.954 191.928C267.29 194.488 264.746 195.768 261.322 195.768C258.794 195.768 256.778 195.048 255.274 193.608C253.802 192.136 253.066 190.232 253.066 187.896C253.066 185.112 254.074 182.984 256.09 181.512C258.106 180.04 261.002 179.304 264.778 179.304H267.706V178.056C267.706 176.488 267.354 175.4 266.65 174.792C265.946 174.184 264.778 173.88 263.146 173.88C261.354 173.88 259.114 174.328 256.426 175.224L254.89 170.664C258.058 169.416 261.194 168.792 264.298 168.792C267.754 168.792 270.298 169.544 271.93 171.048C273.562 172.52 274.378 174.728 274.378 177.672V187.944ZM263.194 190.872C265.114 190.872 266.618 189.928 267.706 188.04V183.192H265.45C261.77 183.192 259.93 184.568 259.93 187.32C259.93 188.44 260.202 189.32 260.746 189.96C261.322 190.568 262.138 190.872 263.194 190.872ZM289.167 168.792C292.751 168.792 295.823 169.816 298.383 171.864L295.791 175.752C293.647 174.408 291.535 173.736 289.455 173.736C288.335 173.736 287.471 173.944 286.863 174.36C286.255 174.776 285.951 175.336 285.951 176.04C285.951 176.552 286.079 176.984 286.335 177.336C286.623 177.688 287.135 178.024 287.871 178.344C288.639 178.664 289.775 179.048 291.279 179.496C293.967 180.232 295.967 181.224 297.279 182.472C298.591 183.688 299.247 185.368 299.247 187.512C299.247 189.208 298.751 190.68 297.759 191.928C296.799 193.176 295.487 194.136 293.823 194.808C292.159 195.448 290.303 195.768 288.255 195.768C286.111 195.768 284.159 195.448 282.399 194.808C280.639 194.136 279.135 193.224 277.887 192.072L281.247 188.328C283.391 189.992 285.663 190.824 288.063 190.824C289.343 190.824 290.351 190.584 291.087 190.104C291.855 189.592 292.239 188.904 292.239 188.04C292.239 187.368 292.095 186.84 291.807 186.456C291.519 186.072 290.991 185.72 290.223 185.4C289.455 185.048 288.255 184.648 286.623 184.2C284.063 183.496 282.159 182.504 280.911 181.224C279.695 179.912 279.087 178.296 279.087 176.376C279.087 174.936 279.503 173.64 280.335 172.488C281.167 171.336 282.335 170.44 283.839 169.8C285.375 169.128 287.151 168.792 289.167 168.792ZM306.04 187.56C307.192 187.56 308.168 187.96 308.968 188.76C309.768 189.56 310.168 190.52 310.168 191.64C310.168 192.76 309.768 193.736 308.968 194.568C308.168 195.368 307.192 195.768 306.04 195.768C304.92 195.768 303.96 195.368 303.16 194.568C302.36 193.736 301.96 192.76 301.96 191.64C301.96 190.52 302.36 189.56 303.16 188.76C303.96 187.96 304.92 187.56 306.04 187.56Z" fill="#E3000F"/>
<path d="M53.8447 224.672V246H50.168V224.672H53.8447ZM66.6621 224.672L58.0195 234.94L53.0977 240.155L52.4531 236.508L55.9688 232.172L62.1797 224.672H66.6621ZM62.707 246L55.6904 235.893L58.2246 233.388L67.0723 246H62.707ZM77.9561 242.265V230.15H81.501V246H78.1611L77.9561 242.265ZM78.4541 238.969L79.6406 238.939C79.6406 240.004 79.5234 240.985 79.2891 241.884C79.0547 242.772 78.6934 243.549 78.2051 244.213C77.7168 244.867 77.0918 245.38 76.3301 245.751C75.5684 246.112 74.6553 246.293 73.5908 246.293C72.8193 246.293 72.1113 246.181 71.4668 245.956C70.8223 245.731 70.2656 245.385 69.7969 244.916C69.3379 244.447 68.9814 243.837 68.7275 243.085C68.4736 242.333 68.3467 241.435 68.3467 240.39V230.15H71.877V240.419C71.877 240.995 71.9453 241.479 72.082 241.869C72.2188 242.25 72.4043 242.558 72.6387 242.792C72.873 243.026 73.1465 243.192 73.459 243.29C73.7715 243.388 74.1035 243.437 74.4551 243.437C75.4609 243.437 76.252 243.241 76.8281 242.851C77.4141 242.45 77.8291 241.913 78.0732 241.239C78.3271 240.565 78.4541 239.809 78.4541 238.969ZM88.8984 230.15V246H85.3535V230.15H88.8984ZM85.1191 225.99C85.1191 225.453 85.2949 225.009 85.6465 224.657C86.0078 224.296 86.5059 224.115 87.1406 224.115C87.7656 224.115 88.2588 224.296 88.6201 224.657C88.9814 225.009 89.1621 225.453 89.1621 225.99C89.1621 226.518 88.9814 226.957 88.6201 227.309C88.2588 227.66 87.7656 227.836 87.1406 227.836C86.5059 227.836 86.0078 227.66 85.6465 227.309C85.2949 226.957 85.1191 226.518 85.1191 225.99ZM107.224 246.293C106.052 246.293 104.992 246.103 104.045 245.722C103.107 245.331 102.307 244.789 101.643 244.096C100.988 243.402 100.485 242.587 100.134 241.649C99.7822 240.712 99.6064 239.701 99.6064 238.617V238.031C99.6064 236.791 99.7871 235.668 100.148 234.662C100.51 233.656 101.013 232.797 101.657 232.084C102.302 231.361 103.063 230.81 103.942 230.429C104.821 230.048 105.773 229.857 106.799 229.857C107.932 229.857 108.923 230.048 109.772 230.429C110.622 230.81 111.325 231.347 111.882 232.04C112.448 232.724 112.868 233.539 113.142 234.486C113.425 235.434 113.566 236.479 113.566 237.621V239.13H101.32V236.596H110.08V236.317C110.061 235.683 109.934 235.087 109.699 234.53C109.475 233.974 109.128 233.524 108.659 233.183C108.19 232.841 107.565 232.67 106.784 232.67C106.198 232.67 105.676 232.797 105.217 233.051C104.768 233.295 104.392 233.651 104.089 234.12C103.786 234.589 103.552 235.155 103.386 235.819C103.229 236.474 103.151 237.211 103.151 238.031V238.617C103.151 239.311 103.244 239.955 103.43 240.551C103.625 241.137 103.908 241.649 104.279 242.089C104.65 242.528 105.1 242.875 105.627 243.129C106.154 243.373 106.755 243.495 107.429 243.495C108.278 243.495 109.035 243.324 109.699 242.982C110.363 242.641 110.939 242.157 111.428 241.532L113.288 243.334C112.946 243.832 112.502 244.311 111.955 244.77C111.408 245.219 110.739 245.585 109.948 245.868C109.167 246.151 108.259 246.293 107.224 246.293ZM120.1 230.15V246H116.555V230.15H120.1ZM116.32 225.99C116.32 225.453 116.496 225.009 116.848 224.657C117.209 224.296 117.707 224.115 118.342 224.115C118.967 224.115 119.46 224.296 119.821 224.657C120.183 225.009 120.363 225.453 120.363 225.99C120.363 226.518 120.183 226.957 119.821 227.309C119.46 227.66 118.967 227.836 118.342 227.836C117.707 227.836 117.209 227.66 116.848 227.309C116.496 226.957 116.32 226.518 116.32 225.99ZM131.613 230.15H135.158V247.377C135.158 248.461 134.973 249.374 134.602 250.116C134.23 250.868 133.684 251.435 132.961 251.815C132.238 252.206 131.354 252.401 130.31 252.401C129.997 252.401 129.675 252.377 129.343 252.328C129.001 252.289 128.679 252.23 128.376 252.152L128.391 249.398C128.596 249.438 128.815 249.467 129.05 249.486C129.274 249.516 129.489 249.53 129.694 249.53C130.114 249.53 130.466 249.457 130.749 249.311C131.032 249.164 131.247 248.935 131.394 248.622C131.54 248.31 131.613 247.895 131.613 247.377V230.15ZM131.306 225.99C131.306 225.453 131.486 225.009 131.848 224.657C132.209 224.296 132.702 224.115 133.327 224.115C133.962 224.115 134.455 224.296 134.807 224.657C135.168 225.009 135.349 225.453 135.349 225.99C135.349 226.518 135.168 226.957 134.807 227.309C134.455 227.66 133.962 227.836 133.327 227.836C132.702 227.836 132.209 227.66 131.848 227.309C131.486 226.957 131.306 226.518 131.306 225.99ZM138.293 238.251V237.914C138.293 236.771 138.459 235.712 138.791 234.735C139.123 233.749 139.602 232.895 140.227 232.172C140.861 231.439 141.633 230.873 142.541 230.473C143.459 230.062 144.494 229.857 145.646 229.857C146.809 229.857 147.844 230.062 148.752 230.473C149.67 230.873 150.446 231.439 151.081 232.172C151.716 232.895 152.199 233.749 152.531 234.735C152.863 235.712 153.029 236.771 153.029 237.914V238.251C153.029 239.394 152.863 240.453 152.531 241.43C152.199 242.406 151.716 243.261 151.081 243.993C150.446 244.716 149.675 245.282 148.767 245.692C147.858 246.093 146.828 246.293 145.676 246.293C144.514 246.293 143.474 246.093 142.556 245.692C141.647 245.282 140.876 244.716 140.241 243.993C139.606 243.261 139.123 242.406 138.791 241.43C138.459 240.453 138.293 239.394 138.293 238.251ZM141.823 237.914V238.251C141.823 238.964 141.896 239.638 142.043 240.272C142.189 240.907 142.419 241.464 142.731 241.942C143.044 242.421 143.444 242.797 143.933 243.07C144.421 243.344 145.002 243.48 145.676 243.48C146.33 243.48 146.896 243.344 147.375 243.07C147.863 242.797 148.264 242.421 148.576 241.942C148.889 241.464 149.118 240.907 149.265 240.272C149.421 239.638 149.499 238.964 149.499 238.251V237.914C149.499 237.211 149.421 236.547 149.265 235.922C149.118 235.287 148.884 234.726 148.562 234.237C148.249 233.749 147.849 233.368 147.36 233.095C146.882 232.812 146.311 232.67 145.646 232.67C144.982 232.67 144.406 232.812 143.918 233.095C143.439 233.368 143.044 233.749 142.731 234.237C142.419 234.726 142.189 235.287 142.043 235.922C141.896 236.547 141.823 237.211 141.823 237.914ZM148.796 223.676L150.949 223.837C150.949 224.55 150.808 225.189 150.524 225.756C150.241 226.312 149.855 226.752 149.367 227.074C148.879 227.396 148.327 227.558 147.712 227.558C147.233 227.558 146.828 227.489 146.496 227.353C146.164 227.216 145.861 227.06 145.588 226.884C145.314 226.708 145.031 226.557 144.738 226.43C144.455 226.293 144.118 226.225 143.728 226.225C143.356 226.225 143.039 226.361 142.775 226.635C142.521 226.908 142.395 227.274 142.395 227.733L140.227 227.616C140.227 226.913 140.368 226.278 140.651 225.712C140.935 225.146 141.32 224.696 141.809 224.364C142.297 224.032 142.849 223.866 143.464 223.866C143.864 223.866 144.226 223.935 144.548 224.071C144.88 224.198 145.192 224.35 145.485 224.525C145.788 224.701 146.096 224.857 146.408 224.994C146.721 225.131 147.067 225.199 147.448 225.199C147.819 225.199 148.137 225.058 148.4 224.774C148.664 224.491 148.796 224.125 148.796 223.676ZM165.524 242.265V230.15H169.069V246H165.729L165.524 242.265ZM166.022 238.969L167.209 238.939C167.209 240.004 167.092 240.985 166.857 241.884C166.623 242.772 166.262 243.549 165.773 244.213C165.285 244.867 164.66 245.38 163.898 245.751C163.137 246.112 162.224 246.293 161.159 246.293C160.388 246.293 159.68 246.181 159.035 245.956C158.391 245.731 157.834 245.385 157.365 244.916C156.906 244.447 156.55 243.837 156.296 243.085C156.042 242.333 155.915 241.435 155.915 240.39V230.15H159.445V240.419C159.445 240.995 159.514 241.479 159.65 241.869C159.787 242.25 159.973 242.558 160.207 242.792C160.441 243.026 160.715 243.192 161.027 243.29C161.34 243.388 161.672 243.437 162.023 243.437C163.029 243.437 163.82 243.241 164.396 242.851C164.982 242.45 165.397 241.913 165.642 241.239C165.896 240.565 166.022 239.809 166.022 238.969ZM181.623 242.821V235.263C181.623 234.696 181.521 234.208 181.315 233.798C181.11 233.388 180.798 233.07 180.378 232.846C179.968 232.621 179.45 232.509 178.825 232.509C178.249 232.509 177.751 232.606 177.331 232.802C176.911 232.997 176.584 233.261 176.35 233.593C176.115 233.925 175.998 234.301 175.998 234.721H172.482C172.482 234.096 172.634 233.49 172.937 232.904C173.239 232.318 173.679 231.796 174.255 231.337C174.831 230.878 175.52 230.517 176.32 230.253C177.121 229.989 178.02 229.857 179.016 229.857C180.207 229.857 181.262 230.058 182.18 230.458C183.107 230.858 183.835 231.464 184.362 232.274C184.899 233.075 185.168 234.081 185.168 235.292V242.338C185.168 243.061 185.217 243.71 185.314 244.286C185.422 244.853 185.573 245.346 185.769 245.766V246H182.15C181.984 245.619 181.853 245.136 181.755 244.55C181.667 243.954 181.623 243.378 181.623 242.821ZM182.136 236.361L182.165 238.544H179.631C178.977 238.544 178.4 238.607 177.902 238.734C177.404 238.852 176.989 239.027 176.657 239.262C176.325 239.496 176.076 239.779 175.91 240.111C175.744 240.443 175.661 240.819 175.661 241.239C175.661 241.659 175.759 242.045 175.954 242.396C176.149 242.738 176.433 243.007 176.804 243.202C177.185 243.397 177.644 243.495 178.181 243.495C178.903 243.495 179.533 243.349 180.07 243.056C180.617 242.753 181.047 242.387 181.359 241.957C181.672 241.518 181.838 241.103 181.857 240.712L183 242.279C182.883 242.68 182.683 243.109 182.399 243.568C182.116 244.027 181.745 244.467 181.286 244.887C180.837 245.297 180.295 245.634 179.66 245.897C179.035 246.161 178.312 246.293 177.492 246.293C176.457 246.293 175.534 246.088 174.724 245.678C173.913 245.258 173.278 244.696 172.819 243.993C172.36 243.28 172.131 242.475 172.131 241.576C172.131 240.736 172.287 239.994 172.6 239.35C172.922 238.695 173.391 238.148 174.006 237.709C174.631 237.27 175.393 236.938 176.291 236.713C177.189 236.479 178.215 236.361 179.367 236.361H182.136ZM192.17 242.602L192.155 245.121C192.155 246.117 191.906 247.143 191.408 248.197C190.91 249.252 190.251 250.121 189.431 250.805L187.541 249.706C187.814 249.267 188.063 248.822 188.288 248.373C188.513 247.924 188.693 247.445 188.83 246.938C188.967 246.43 189.035 245.868 189.035 245.253V242.602H192.17ZM202.365 238.251V237.914C202.365 236.771 202.531 235.712 202.863 234.735C203.195 233.749 203.674 232.895 204.299 232.172C204.934 231.439 205.705 230.873 206.613 230.473C207.531 230.062 208.566 229.857 209.719 229.857C210.881 229.857 211.916 230.062 212.824 230.473C213.742 230.873 214.519 231.439 215.153 232.172C215.788 232.895 216.271 233.749 216.604 234.735C216.936 235.712 217.102 236.771 217.102 237.914V238.251C217.102 239.394 216.936 240.453 216.604 241.43C216.271 242.406 215.788 243.261 215.153 243.993C214.519 244.716 213.747 245.282 212.839 245.692C211.931 246.093 210.9 246.293 209.748 246.293C208.586 246.293 207.546 246.093 206.628 245.692C205.72 245.282 204.948 244.716 204.313 243.993C203.679 243.261 203.195 242.406 202.863 241.43C202.531 240.453 202.365 239.394 202.365 238.251ZM205.896 237.914V238.251C205.896 238.964 205.969 239.638 206.115 240.272C206.262 240.907 206.491 241.464 206.804 241.942C207.116 242.421 207.517 242.797 208.005 243.07C208.493 243.344 209.074 243.48 209.748 243.48C210.402 243.48 210.969 243.344 211.447 243.07C211.936 242.797 212.336 242.421 212.648 241.942C212.961 241.464 213.19 240.907 213.337 240.272C213.493 239.638 213.571 238.964 213.571 238.251V237.914C213.571 237.211 213.493 236.547 213.337 235.922C213.19 235.287 212.956 234.726 212.634 234.237C212.321 233.749 211.921 233.368 211.433 233.095C210.954 232.812 210.383 232.67 209.719 232.67C209.055 232.67 208.479 232.812 207.99 233.095C207.512 233.368 207.116 233.749 206.804 234.237C206.491 234.726 206.262 235.287 206.115 235.922C205.969 236.547 205.896 237.211 205.896 237.914ZM223.562 233.534V246H220.031V230.15H223.356L223.562 233.534ZM222.932 237.489L221.789 237.475C221.799 236.352 221.955 235.321 222.258 234.384C222.57 233.446 223 232.641 223.547 231.967C224.104 231.293 224.768 230.775 225.539 230.414C226.311 230.043 227.17 229.857 228.117 229.857C228.879 229.857 229.567 229.965 230.183 230.18C230.808 230.385 231.34 230.722 231.779 231.19C232.229 231.659 232.57 232.27 232.805 233.021C233.039 233.764 233.156 234.677 233.156 235.761V246H229.611V235.746C229.611 234.984 229.499 234.384 229.274 233.944C229.06 233.495 228.742 233.178 228.322 232.992C227.912 232.797 227.399 232.699 226.784 232.699C226.179 232.699 225.637 232.826 225.158 233.08C224.68 233.334 224.274 233.681 223.942 234.12C223.62 234.56 223.371 235.067 223.195 235.644C223.02 236.22 222.932 236.835 222.932 237.489ZM252.653 224.672V246H249.006V224.672H252.653ZM259.348 224.672V227.602H242.37V224.672H259.348ZM265.588 230.15V246H262.043V230.15H265.588ZM261.809 225.99C261.809 225.453 261.984 225.009 262.336 224.657C262.697 224.296 263.195 224.115 263.83 224.115C264.455 224.115 264.948 224.296 265.31 224.657C265.671 225.009 265.852 225.453 265.852 225.99C265.852 226.518 265.671 226.957 265.31 227.309C264.948 227.66 264.455 227.836 263.83 227.836C263.195 227.836 262.697 227.66 262.336 227.309C261.984 226.957 261.809 226.518 261.809 225.99ZM273.234 230.15V246H269.689V230.15H273.234ZM269.455 225.99C269.455 225.453 269.631 225.009 269.982 224.657C270.344 224.296 270.842 224.115 271.477 224.115C272.102 224.115 272.595 224.296 272.956 224.657C273.317 225.009 273.498 225.453 273.498 225.99C273.498 226.518 273.317 226.957 272.956 227.309C272.595 227.66 272.102 227.836 271.477 227.836C270.842 227.836 270.344 227.66 269.982 227.309C269.631 226.957 269.455 226.518 269.455 225.99ZM286.638 242.265V230.15H290.183V246H286.843L286.638 242.265ZM287.136 238.969L288.322 238.939C288.322 240.004 288.205 240.985 287.971 241.884C287.736 242.772 287.375 243.549 286.887 244.213C286.398 244.867 285.773 245.38 285.012 245.751C284.25 246.112 283.337 246.293 282.272 246.293C281.501 246.293 280.793 246.181 280.148 245.956C279.504 245.731 278.947 245.385 278.479 244.916C278.02 244.447 277.663 243.837 277.409 243.085C277.155 242.333 277.028 241.435 277.028 240.39V230.15H280.559V240.419C280.559 240.995 280.627 241.479 280.764 241.869C280.9 242.25 281.086 242.558 281.32 242.792C281.555 243.026 281.828 243.192 282.141 243.29C282.453 243.388 282.785 243.437 283.137 243.437C284.143 243.437 284.934 243.241 285.51 242.851C286.096 242.45 286.511 241.913 286.755 241.239C287.009 240.565 287.136 239.809 287.136 238.969ZM306.428 243.202L310.31 230.15H313.972L308.464 246H306.179L306.428 243.202ZM303.454 230.15L307.409 243.261L307.6 246H305.314L299.777 230.15H303.454ZM322.937 246.293C321.765 246.293 320.705 246.103 319.758 245.722C318.82 245.331 318.02 244.789 317.355 244.096C316.701 243.402 316.198 242.587 315.847 241.649C315.495 240.712 315.319 239.701 315.319 238.617V238.031C315.319 236.791 315.5 235.668 315.861 234.662C316.223 233.656 316.726 232.797 317.37 232.084C318.015 231.361 318.776 230.81 319.655 230.429C320.534 230.048 321.486 229.857 322.512 229.857C323.645 229.857 324.636 230.048 325.485 230.429C326.335 230.81 327.038 231.347 327.595 232.04C328.161 232.724 328.581 233.539 328.854 234.486C329.138 235.434 329.279 236.479 329.279 237.621V239.13H317.033V236.596H325.793V236.317C325.773 235.683 325.646 235.087 325.412 234.53C325.188 233.974 324.841 233.524 324.372 233.183C323.903 232.841 323.278 232.67 322.497 232.67C321.911 232.67 321.389 232.797 320.93 233.051C320.48 233.295 320.104 233.651 319.802 234.12C319.499 234.589 319.265 235.155 319.099 235.819C318.942 236.474 318.864 237.211 318.864 238.031V238.617C318.864 239.311 318.957 239.955 319.143 240.551C319.338 241.137 319.621 241.649 319.992 242.089C320.363 242.528 320.812 242.875 321.34 243.129C321.867 243.373 322.468 243.495 323.142 243.495C323.991 243.495 324.748 243.324 325.412 242.982C326.076 242.641 326.652 242.157 327.141 241.532L329.001 243.334C328.659 243.832 328.215 244.311 327.668 244.77C327.121 245.219 326.452 245.585 325.661 245.868C324.88 246.151 323.972 246.293 322.937 246.293ZM339.021 246.293C337.849 246.293 336.789 246.103 335.842 245.722C334.904 245.331 334.104 244.789 333.439 244.096C332.785 243.402 332.282 242.587 331.931 241.649C331.579 240.712 331.403 239.701 331.403 238.617V238.031C331.403 236.791 331.584 235.668 331.945 234.662C332.307 233.656 332.81 232.797 333.454 232.084C334.099 231.361 334.86 230.81 335.739 230.429C336.618 230.048 337.57 229.857 338.596 229.857C339.729 229.857 340.72 230.048 341.569 230.429C342.419 230.81 343.122 231.347 343.679 232.04C344.245 232.724 344.665 233.539 344.938 234.486C345.222 235.434 345.363 236.479 345.363 237.621V239.13H333.117V236.596H341.877V236.317C341.857 235.683 341.73 235.087 341.496 234.53C341.271 233.974 340.925 233.524 340.456 233.183C339.987 232.841 339.362 232.67 338.581 232.67C337.995 232.67 337.473 232.797 337.014 233.051C336.564 233.295 336.188 233.651 335.886 234.12C335.583 234.589 335.349 235.155 335.183 235.819C335.026 236.474 334.948 237.211 334.948 238.031V238.617C334.948 239.311 335.041 239.955 335.227 240.551C335.422 241.137 335.705 241.649 336.076 242.089C336.447 242.528 336.896 242.875 337.424 243.129C337.951 243.373 338.552 243.495 339.226 243.495C340.075 243.495 340.832 243.324 341.496 242.982C342.16 242.641 342.736 242.157 343.225 241.532L345.085 243.334C344.743 243.832 344.299 244.311 343.752 244.77C343.205 245.219 342.536 245.585 341.745 245.868C340.964 246.151 340.056 246.293 339.021 246.293ZM348.132 223.5H351.662V242.616L351.325 246H348.132V223.5ZM362.004 237.929V238.236C362.004 239.408 361.872 240.487 361.608 241.474C361.354 242.45 360.964 243.3 360.437 244.022C359.919 244.745 359.274 245.307 358.503 245.707C357.741 246.098 356.857 246.293 355.852 246.293C354.865 246.293 354.006 246.107 353.273 245.736C352.541 245.365 351.926 244.838 351.428 244.154C350.939 243.471 350.544 242.655 350.241 241.708C349.938 240.761 349.724 239.716 349.597 238.573V237.592C349.724 236.439 349.938 235.395 350.241 234.457C350.544 233.51 350.939 232.694 351.428 232.011C351.926 231.317 352.536 230.785 353.259 230.414C353.991 230.043 354.846 229.857 355.822 229.857C356.838 229.857 357.731 230.053 358.503 230.443C359.284 230.834 359.934 231.391 360.451 232.113C360.969 232.826 361.354 233.676 361.608 234.662C361.872 235.648 362.004 236.737 362.004 237.929ZM358.474 238.236V237.929C358.474 237.216 358.415 236.547 358.298 235.922C358.181 235.287 357.985 234.73 357.712 234.252C357.448 233.773 357.087 233.397 356.628 233.124C356.179 232.841 355.617 232.699 354.943 232.699C354.318 232.699 353.781 232.807 353.332 233.021C352.883 233.236 352.507 233.529 352.204 233.9C351.901 234.271 351.662 234.701 351.486 235.189C351.32 235.678 351.208 236.205 351.149 236.771V239.423C351.237 240.155 351.423 240.829 351.706 241.444C351.999 242.05 352.409 242.538 352.937 242.909C353.464 243.271 354.143 243.451 354.973 243.451C355.627 243.451 356.179 243.319 356.628 243.056C357.077 242.792 357.434 242.426 357.697 241.957C357.971 241.479 358.166 240.922 358.283 240.287C358.41 239.652 358.474 238.969 358.474 238.236ZM368.771 230.15V246H365.227V230.15H368.771ZM364.992 225.99C364.992 225.453 365.168 225.009 365.52 224.657C365.881 224.296 366.379 224.115 367.014 224.115C367.639 224.115 368.132 224.296 368.493 224.657C368.854 225.009 369.035 225.453 369.035 225.99C369.035 226.518 368.854 226.957 368.493 227.309C368.132 227.66 367.639 227.836 367.014 227.836C366.379 227.836 365.881 227.66 365.52 227.309C365.168 226.957 364.992 226.518 364.992 225.99ZM376.184 233.197V252.094H372.653V230.15H375.905L376.184 233.197ZM386.511 237.929V238.236C386.511 239.389 386.374 240.458 386.101 241.444C385.837 242.421 385.441 243.275 384.914 244.008C384.396 244.73 383.757 245.292 382.995 245.692C382.233 246.093 381.354 246.293 380.358 246.293C379.372 246.293 378.508 246.112 377.766 245.751C377.033 245.38 376.413 244.857 375.905 244.184C375.397 243.51 374.987 242.719 374.675 241.811C374.372 240.893 374.157 239.887 374.03 238.793V237.606C374.157 236.444 374.372 235.39 374.675 234.442C374.987 233.495 375.397 232.68 375.905 231.996C376.413 231.312 377.033 230.785 377.766 230.414C378.498 230.043 379.353 229.857 380.329 229.857C381.325 229.857 382.209 230.053 382.98 230.443C383.752 230.824 384.401 231.371 384.929 232.084C385.456 232.787 385.852 233.637 386.115 234.633C386.379 235.619 386.511 236.718 386.511 237.929ZM382.98 238.236V237.929C382.98 237.196 382.912 236.518 382.775 235.893C382.639 235.258 382.424 234.701 382.131 234.223C381.838 233.744 381.462 233.373 381.003 233.109C380.554 232.836 380.012 232.699 379.377 232.699C378.752 232.699 378.215 232.807 377.766 233.021C377.316 233.227 376.94 233.515 376.638 233.886C376.335 234.257 376.101 234.691 375.935 235.189C375.769 235.678 375.651 236.21 375.583 236.786V239.628C375.7 240.331 375.9 240.976 376.184 241.562C376.467 242.147 376.867 242.616 377.385 242.968C377.912 243.31 378.586 243.48 379.406 243.48C380.041 243.48 380.583 243.344 381.032 243.07C381.481 242.797 381.848 242.421 382.131 241.942C382.424 241.454 382.639 240.893 382.775 240.258C382.912 239.623 382.98 238.949 382.98 238.236ZM388.84 238.251V237.914C388.84 236.771 389.006 235.712 389.338 234.735C389.67 233.749 390.148 232.895 390.773 232.172C391.408 231.439 392.18 230.873 393.088 230.473C394.006 230.062 395.041 229.857 396.193 229.857C397.355 229.857 398.391 230.062 399.299 230.473C400.217 230.873 400.993 231.439 401.628 232.172C402.263 232.895 402.746 233.749 403.078 234.735C403.41 235.712 403.576 236.771 403.576 237.914V238.251C403.576 239.394 403.41 240.453 403.078 241.43C402.746 242.406 402.263 243.261 401.628 243.993C400.993 244.716 400.222 245.282 399.313 245.692C398.405 246.093 397.375 246.293 396.223 246.293C395.061 246.293 394.021 246.093 393.103 245.692C392.194 245.282 391.423 244.716 390.788 243.993C390.153 243.261 389.67 242.406 389.338 241.43C389.006 240.453 388.84 239.394 388.84 238.251ZM392.37 237.914V238.251C392.37 238.964 392.443 239.638 392.59 240.272C392.736 240.907 392.966 241.464 393.278 241.942C393.591 242.421 393.991 242.797 394.479 243.07C394.968 243.344 395.549 243.48 396.223 243.48C396.877 243.48 397.443 243.344 397.922 243.07C398.41 242.797 398.811 242.421 399.123 241.942C399.436 241.464 399.665 240.907 399.812 240.272C399.968 239.638 400.046 238.964 400.046 238.251V237.914C400.046 237.211 399.968 236.547 399.812 235.922C399.665 235.287 399.431 234.726 399.108 234.237C398.796 233.749 398.396 233.368 397.907 233.095C397.429 232.812 396.857 232.67 396.193 232.67C395.529 232.67 394.953 232.812 394.465 233.095C393.986 233.368 393.591 233.749 393.278 234.237C392.966 234.726 392.736 235.287 392.59 235.922C392.443 236.547 392.37 237.211 392.37 237.914ZM410.08 233.168V246H406.55V230.15H409.919L410.08 233.168ZM414.929 230.048L414.899 233.329C414.685 233.29 414.45 233.261 414.196 233.241C413.952 233.222 413.708 233.212 413.464 233.212C412.858 233.212 412.326 233.3 411.867 233.476C411.408 233.642 411.022 233.886 410.71 234.208C410.407 234.521 410.173 234.901 410.007 235.351C409.841 235.8 409.743 236.303 409.714 236.859L408.908 236.918C408.908 235.922 409.006 234.999 409.201 234.149C409.396 233.3 409.689 232.553 410.08 231.908C410.48 231.264 410.979 230.761 411.574 230.399C412.18 230.038 412.878 229.857 413.669 229.857C413.884 229.857 414.113 229.877 414.357 229.916C414.611 229.955 414.802 229.999 414.929 230.048ZM425.139 230.15V232.729H416.203V230.15H425.139ZM418.781 226.269H422.312V241.62C422.312 242.108 422.38 242.484 422.517 242.748C422.663 243.002 422.863 243.173 423.117 243.261C423.371 243.349 423.669 243.393 424.011 243.393C424.255 243.393 424.489 243.378 424.714 243.349C424.938 243.319 425.119 243.29 425.256 243.261L425.271 245.956C424.978 246.044 424.636 246.122 424.245 246.19C423.864 246.259 423.425 246.293 422.927 246.293C422.116 246.293 421.398 246.151 420.773 245.868C420.148 245.575 419.66 245.102 419.309 244.447C418.957 243.793 418.781 242.924 418.781 241.84V226.269ZM436.799 242.821V235.263C436.799 234.696 436.696 234.208 436.491 233.798C436.286 233.388 435.974 233.07 435.554 232.846C435.144 232.621 434.626 232.509 434.001 232.509C433.425 232.509 432.927 232.606 432.507 232.802C432.087 232.997 431.76 233.261 431.525 233.593C431.291 233.925 431.174 234.301 431.174 234.721H427.658C427.658 234.096 427.81 233.49 428.112 232.904C428.415 232.318 428.854 231.796 429.431 231.337C430.007 230.878 430.695 230.517 431.496 230.253C432.297 229.989 433.195 229.857 434.191 229.857C435.383 229.857 436.438 230.058 437.355 230.458C438.283 230.858 439.011 231.464 439.538 232.274C440.075 233.075 440.344 234.081 440.344 235.292V242.338C440.344 243.061 440.393 243.71 440.49 244.286C440.598 244.853 440.749 245.346 440.944 245.766V246H437.326C437.16 245.619 437.028 245.136 436.931 244.55C436.843 243.954 436.799 243.378 436.799 242.821ZM437.312 236.361L437.341 238.544H434.807C434.152 238.544 433.576 238.607 433.078 238.734C432.58 238.852 432.165 239.027 431.833 239.262C431.501 239.496 431.252 239.779 431.086 240.111C430.92 240.443 430.837 240.819 430.837 241.239C430.837 241.659 430.935 242.045 431.13 242.396C431.325 242.738 431.608 243.007 431.979 243.202C432.36 243.397 432.819 243.495 433.356 243.495C434.079 243.495 434.709 243.349 435.246 243.056C435.793 242.753 436.223 242.387 436.535 241.957C436.848 241.518 437.014 241.103 437.033 240.712L438.176 242.279C438.059 242.68 437.858 243.109 437.575 243.568C437.292 244.027 436.921 244.467 436.462 244.887C436.013 245.297 435.471 245.634 434.836 245.897C434.211 246.161 433.488 246.293 432.668 246.293C431.633 246.293 430.71 246.088 429.899 245.678C429.089 245.258 428.454 244.696 427.995 243.993C427.536 243.28 427.307 242.475 427.307 241.576C427.307 240.736 427.463 239.994 427.775 239.35C428.098 238.695 428.566 238.148 429.182 237.709C429.807 237.27 430.568 236.938 431.467 236.713C432.365 236.479 433.391 236.361 434.543 236.361H437.312ZM452.971 242.821V235.263C452.971 234.696 452.868 234.208 452.663 233.798C452.458 233.388 452.146 233.07 451.726 232.846C451.315 232.621 450.798 232.509 450.173 232.509C449.597 232.509 449.099 232.606 448.679 232.802C448.259 232.997 447.932 233.261 447.697 233.593C447.463 233.925 447.346 234.301 447.346 234.721H443.83C443.83 234.096 443.981 233.49 444.284 232.904C444.587 232.318 445.026 231.796 445.603 231.337C446.179 230.878 446.867 230.517 447.668 230.253C448.469 229.989 449.367 229.857 450.363 229.857C451.555 229.857 452.609 230.058 453.527 230.458C454.455 230.858 455.183 231.464 455.71 232.274C456.247 233.075 456.516 234.081 456.516 235.292V242.338C456.516 243.061 456.564 243.71 456.662 244.286C456.77 244.853 456.921 245.346 457.116 245.766V246H453.498C453.332 245.619 453.2 245.136 453.103 244.55C453.015 243.954 452.971 243.378 452.971 242.821ZM453.483 236.361L453.513 238.544H450.979C450.324 238.544 449.748 238.607 449.25 238.734C448.752 238.852 448.337 239.027 448.005 239.262C447.673 239.496 447.424 239.779 447.258 240.111C447.092 240.443 447.009 240.819 447.009 241.239C447.009 241.659 447.106 242.045 447.302 242.396C447.497 242.738 447.78 243.007 448.151 243.202C448.532 243.397 448.991 243.495 449.528 243.495C450.251 243.495 450.881 243.349 451.418 243.056C451.965 242.753 452.395 242.387 452.707 241.957C453.02 241.518 453.186 241.103 453.205 240.712L454.348 242.279C454.23 242.68 454.03 243.109 453.747 243.568C453.464 244.027 453.093 244.467 452.634 244.887C452.185 245.297 451.643 245.634 451.008 245.897C450.383 246.161 449.66 246.293 448.84 246.293C447.805 246.293 446.882 246.088 446.071 245.678C445.261 245.258 444.626 244.696 444.167 243.993C443.708 243.28 443.479 242.475 443.479 241.576C443.479 240.736 443.635 239.994 443.947 239.35C444.27 238.695 444.738 238.148 445.354 237.709C445.979 237.27 446.74 236.938 447.639 236.713C448.537 236.479 449.562 236.361 450.715 236.361H453.483ZM463.986 223.5V246H460.441V223.5H463.986ZM484.26 242.821V235.263C484.26 234.696 484.157 234.208 483.952 233.798C483.747 233.388 483.435 233.07 483.015 232.846C482.604 232.621 482.087 232.509 481.462 232.509C480.886 232.509 480.388 232.606 479.968 232.802C479.548 232.997 479.221 233.261 478.986 233.593C478.752 233.925 478.635 234.301 478.635 234.721H475.119C475.119 234.096 475.271 233.49 475.573 232.904C475.876 232.318 476.315 231.796 476.892 231.337C477.468 230.878 478.156 230.517 478.957 230.253C479.758 229.989 480.656 229.857 481.652 229.857C482.844 229.857 483.898 230.058 484.816 230.458C485.744 230.858 486.472 231.464 486.999 232.274C487.536 233.075 487.805 234.081 487.805 235.292V242.338C487.805 243.061 487.854 243.71 487.951 244.286C488.059 244.853 488.21 245.346 488.405 245.766V246H484.787C484.621 245.619 484.489 245.136 484.392 244.55C484.304 243.954 484.26 243.378 484.26 242.821ZM484.772 236.361L484.802 238.544H482.268C481.613 238.544 481.037 238.607 480.539 238.734C480.041 238.852 479.626 239.027 479.294 239.262C478.962 239.496 478.713 239.779 478.547 240.111C478.381 240.443 478.298 240.819 478.298 241.239C478.298 241.659 478.396 242.045 478.591 242.396C478.786 242.738 479.069 243.007 479.44 243.202C479.821 243.397 480.28 243.495 480.817 243.495C481.54 243.495 482.17 243.349 482.707 243.056C483.254 242.753 483.684 242.387 483.996 241.957C484.309 241.518 484.475 241.103 484.494 240.712L485.637 242.279C485.52 242.68 485.319 243.109 485.036 243.568C484.753 244.027 484.382 244.467 483.923 244.887C483.474 245.297 482.932 245.634 482.297 245.897C481.672 246.161 480.949 246.293 480.129 246.293C479.094 246.293 478.171 246.088 477.36 245.678C476.55 245.258 475.915 244.696 475.456 243.993C474.997 243.28 474.768 242.475 474.768 241.576C474.768 240.736 474.924 239.994 475.236 239.35C475.559 238.695 476.027 238.148 476.643 237.709C477.268 237.27 478.029 236.938 478.928 236.713C479.826 236.479 480.852 236.361 482.004 236.361H484.772ZM495.275 223.5V246H491.73V223.5H495.275ZM508.078 242.821V235.263C508.078 234.696 507.976 234.208 507.771 233.798C507.565 233.388 507.253 233.07 506.833 232.846C506.423 232.621 505.905 232.509 505.28 232.509C504.704 232.509 504.206 232.606 503.786 232.802C503.366 232.997 503.039 233.261 502.805 233.593C502.57 233.925 502.453 234.301 502.453 234.721H498.938C498.938 234.096 499.089 233.49 499.392 232.904C499.694 232.318 500.134 231.796 500.71 231.337C501.286 230.878 501.975 230.517 502.775 230.253C503.576 229.989 504.475 229.857 505.471 229.857C506.662 229.857 507.717 230.058 508.635 230.458C509.562 230.858 510.29 231.464 510.817 232.274C511.354 233.075 511.623 234.081 511.623 235.292V242.338C511.623 243.061 511.672 243.71 511.77 244.286C511.877 244.853 512.028 245.346 512.224 245.766V246H508.605C508.439 245.619 508.308 245.136 508.21 244.55C508.122 243.954 508.078 243.378 508.078 242.821ZM508.591 236.361L508.62 238.544H506.086C505.432 238.544 504.855 238.607 504.357 238.734C503.859 238.852 503.444 239.027 503.112 239.262C502.78 239.496 502.531 239.779 502.365 240.111C502.199 240.443 502.116 240.819 502.116 241.239C502.116 241.659 502.214 242.045 502.409 242.396C502.604 242.738 502.888 243.007 503.259 243.202C503.64 243.397 504.099 243.495 504.636 243.495C505.358 243.495 505.988 243.349 506.525 243.056C507.072 242.753 507.502 242.387 507.814 241.957C508.127 241.518 508.293 241.103 508.312 240.712L509.455 242.279C509.338 242.68 509.138 243.109 508.854 243.568C508.571 244.027 508.2 244.467 507.741 244.887C507.292 245.297 506.75 245.634 506.115 245.897C505.49 246.161 504.768 246.293 503.947 246.293C502.912 246.293 501.989 246.088 501.179 245.678C500.368 245.258 499.733 244.696 499.274 243.993C498.815 243.28 498.586 242.475 498.586 241.576C498.586 240.736 498.742 239.994 499.055 239.35C499.377 238.695 499.846 238.148 500.461 237.709C501.086 237.27 501.848 236.938 502.746 236.713C503.645 236.479 504.67 236.361 505.822 236.361H508.591ZM522.58 230.15V232.729H513.645V230.15H522.58ZM516.223 226.269H519.753V241.62C519.753 242.108 519.821 242.484 519.958 242.748C520.104 243.002 520.305 243.173 520.559 243.261C520.812 243.349 521.11 243.393 521.452 243.393C521.696 243.393 521.931 243.378 522.155 243.349C522.38 243.319 522.561 243.29 522.697 243.261L522.712 245.956C522.419 246.044 522.077 246.122 521.687 246.19C521.306 246.259 520.866 246.293 520.368 246.293C519.558 246.293 518.84 246.151 518.215 245.868C517.59 245.575 517.102 245.102 516.75 244.447C516.398 243.793 516.223 242.924 516.223 241.84V226.269ZM529.084 230.15V246H525.539V230.15H529.084ZM525.305 225.99C525.305 225.453 525.48 225.009 525.832 224.657C526.193 224.296 526.691 224.115 527.326 224.115C527.951 224.115 528.444 224.296 528.806 224.657C529.167 225.009 529.348 225.453 529.348 225.99C529.348 226.518 529.167 226.957 528.806 227.309C528.444 227.66 527.951 227.836 527.326 227.836C526.691 227.836 526.193 227.66 525.832 227.309C525.48 226.957 525.305 226.518 525.305 225.99ZM539.748 238.251V237.914C539.748 236.771 539.914 235.712 540.246 234.735C540.578 233.749 541.057 232.895 541.682 232.172C542.316 231.439 543.088 230.873 543.996 230.473C544.914 230.062 545.949 229.857 547.102 229.857C548.264 229.857 549.299 230.062 550.207 230.473C551.125 230.873 551.901 231.439 552.536 232.172C553.171 232.895 553.654 233.749 553.986 234.735C554.318 235.712 554.484 236.771 554.484 237.914V238.251C554.484 239.394 554.318 240.453 553.986 241.43C553.654 242.406 553.171 243.261 552.536 243.993C551.901 244.716 551.13 245.282 550.222 245.692C549.313 246.093 548.283 246.293 547.131 246.293C545.969 246.293 544.929 246.093 544.011 245.692C543.103 245.282 542.331 244.716 541.696 243.993C541.062 243.261 540.578 242.406 540.246 241.43C539.914 240.453 539.748 239.394 539.748 238.251ZM543.278 237.914V238.251C543.278 238.964 543.352 239.638 543.498 240.272C543.645 240.907 543.874 241.464 544.187 241.942C544.499 242.421 544.899 242.797 545.388 243.07C545.876 243.344 546.457 243.48 547.131 243.48C547.785 243.48 548.352 243.344 548.83 243.07C549.318 242.797 549.719 242.421 550.031 241.942C550.344 241.464 550.573 240.907 550.72 240.272C550.876 239.638 550.954 238.964 550.954 238.251V237.914C550.954 237.211 550.876 236.547 550.72 235.922C550.573 235.287 550.339 234.726 550.017 234.237C549.704 233.749 549.304 233.368 548.815 233.095C548.337 232.812 547.766 232.67 547.102 232.67C546.438 232.67 545.861 232.812 545.373 233.095C544.895 233.368 544.499 233.749 544.187 234.237C543.874 234.726 543.645 235.287 543.498 235.922C543.352 236.547 543.278 237.211 543.278 237.914ZM561.223 223.5V246H557.678V223.5H561.223ZM572.077 246.293C570.905 246.293 569.846 246.103 568.898 245.722C567.961 245.331 567.16 244.789 566.496 244.096C565.842 243.402 565.339 242.587 564.987 241.649C564.636 240.712 564.46 239.701 564.46 238.617V238.031C564.46 236.791 564.641 235.668 565.002 234.662C565.363 233.656 565.866 232.797 566.511 232.084C567.155 231.361 567.917 230.81 568.796 230.429C569.675 230.048 570.627 229.857 571.652 229.857C572.785 229.857 573.776 230.048 574.626 230.429C575.476 230.81 576.179 231.347 576.735 232.04C577.302 232.724 577.722 233.539 577.995 234.486C578.278 235.434 578.42 236.479 578.42 237.621V239.13H566.174V236.596H574.934V236.317C574.914 235.683 574.787 235.087 574.553 234.53C574.328 233.974 573.981 233.524 573.513 233.183C573.044 232.841 572.419 232.67 571.638 232.67C571.052 232.67 570.529 232.797 570.07 233.051C569.621 233.295 569.245 233.651 568.942 234.12C568.64 234.589 568.405 235.155 568.239 235.819C568.083 236.474 568.005 237.211 568.005 238.031V238.617C568.005 239.311 568.098 239.955 568.283 240.551C568.479 241.137 568.762 241.649 569.133 242.089C569.504 242.528 569.953 242.875 570.48 243.129C571.008 243.373 571.608 243.495 572.282 243.495C573.132 243.495 573.889 243.324 574.553 242.982C575.217 242.641 575.793 242.157 576.281 241.532L578.142 243.334C577.8 243.832 577.355 244.311 576.809 244.77C576.262 245.219 575.593 245.585 574.802 245.868C574.021 246.151 573.112 246.293 572.077 246.293ZM584.704 233.373V246H581.174V230.15H584.499L584.704 233.373ZM584.133 237.489L582.932 237.475C582.932 236.381 583.068 235.37 583.342 234.442C583.615 233.515 584.016 232.709 584.543 232.025C585.07 231.332 585.725 230.8 586.506 230.429C587.297 230.048 588.21 229.857 589.245 229.857C589.968 229.857 590.627 229.965 591.223 230.18C591.828 230.385 592.351 230.712 592.79 231.161C593.239 231.61 593.581 232.187 593.815 232.89C594.06 233.593 594.182 234.442 594.182 235.438V246H590.651V235.746C590.651 234.975 590.534 234.369 590.3 233.93C590.075 233.49 589.748 233.178 589.318 232.992C588.898 232.797 588.396 232.699 587.81 232.699C587.146 232.699 586.579 232.826 586.11 233.08C585.651 233.334 585.275 233.681 584.982 234.12C584.689 234.56 584.475 235.067 584.338 235.644C584.201 236.22 584.133 236.835 584.133 237.489ZM593.962 236.552L592.307 236.918C592.307 235.961 592.438 235.058 592.702 234.208C592.976 233.349 593.371 232.597 593.889 231.952C594.416 231.298 595.065 230.785 595.837 230.414C596.608 230.043 597.492 229.857 598.488 229.857C599.299 229.857 600.021 229.97 600.656 230.194C601.301 230.409 601.848 230.751 602.297 231.22C602.746 231.688 603.088 232.299 603.322 233.051C603.557 233.793 603.674 234.691 603.674 235.746V246H600.129V235.731C600.129 234.931 600.012 234.311 599.777 233.871C599.553 233.432 599.23 233.129 598.811 232.963C598.391 232.787 597.888 232.699 597.302 232.699C596.755 232.699 596.271 232.802 595.852 233.007C595.441 233.202 595.095 233.48 594.812 233.842C594.528 234.193 594.313 234.599 594.167 235.058C594.03 235.517 593.962 236.015 593.962 236.552ZM616.242 242.821V235.263C616.242 234.696 616.14 234.208 615.935 233.798C615.729 233.388 615.417 233.07 614.997 232.846C614.587 232.621 614.069 232.509 613.444 232.509C612.868 232.509 612.37 232.606 611.95 232.802C611.53 232.997 611.203 233.261 610.969 233.593C610.734 233.925 610.617 234.301 610.617 234.721H607.102C607.102 234.096 607.253 233.49 607.556 232.904C607.858 232.318 608.298 231.796 608.874 231.337C609.45 230.878 610.139 230.517 610.939 230.253C611.74 229.989 612.639 229.857 613.635 229.857C614.826 229.857 615.881 230.058 616.799 230.458C617.727 230.858 618.454 231.464 618.981 232.274C619.519 233.075 619.787 234.081 619.787 235.292V242.338C619.787 243.061 619.836 243.71 619.934 244.286C620.041 244.853 620.192 245.346 620.388 245.766V246H616.77C616.604 245.619 616.472 245.136 616.374 244.55C616.286 243.954 616.242 243.378 616.242 242.821ZM616.755 236.361L616.784 238.544H614.25C613.596 238.544 613.02 238.607 612.521 238.734C612.023 238.852 611.608 239.027 611.276 239.262C610.944 239.496 610.695 239.779 610.529 240.111C610.363 240.443 610.28 240.819 610.28 241.239C610.28 241.659 610.378 242.045 610.573 242.396C610.769 242.738 611.052 243.007 611.423 243.202C611.804 243.397 612.263 243.495 612.8 243.495C613.522 243.495 614.152 243.349 614.689 243.056C615.236 242.753 615.666 242.387 615.979 241.957C616.291 241.518 616.457 241.103 616.477 240.712L617.619 242.279C617.502 242.68 617.302 243.109 617.019 243.568C616.735 244.027 616.364 244.467 615.905 244.887C615.456 245.297 614.914 245.634 614.279 245.897C613.654 246.161 612.932 246.293 612.111 246.293C611.076 246.293 610.153 246.088 609.343 245.678C608.532 245.258 607.897 244.696 607.438 243.993C606.979 243.28 606.75 242.475 606.75 241.576C606.75 240.736 606.906 239.994 607.219 239.35C607.541 238.695 608.01 238.148 608.625 237.709C609.25 237.27 610.012 236.938 610.91 236.713C611.809 236.479 612.834 236.361 613.986 236.361H616.755ZM632.37 241.708C632.37 241.356 632.282 241.039 632.106 240.756C631.931 240.463 631.594 240.199 631.096 239.965C630.607 239.73 629.885 239.516 628.928 239.32C628.088 239.135 627.316 238.915 626.613 238.661C625.92 238.397 625.324 238.08 624.826 237.709C624.328 237.338 623.942 236.898 623.669 236.391C623.396 235.883 623.259 235.297 623.259 234.633C623.259 233.988 623.4 233.378 623.684 232.802C623.967 232.226 624.372 231.718 624.899 231.278C625.427 230.839 626.066 230.492 626.818 230.238C627.58 229.984 628.43 229.857 629.367 229.857C630.695 229.857 631.833 230.082 632.78 230.531C633.737 230.971 634.47 231.571 634.978 232.333C635.485 233.085 635.739 233.935 635.739 234.882H632.209C632.209 234.462 632.102 234.071 631.887 233.71C631.682 233.339 631.369 233.041 630.949 232.816C630.529 232.582 630.002 232.465 629.367 232.465C628.762 232.465 628.259 232.562 627.858 232.758C627.468 232.943 627.175 233.188 626.979 233.49C626.794 233.793 626.701 234.125 626.701 234.486C626.701 234.75 626.75 234.989 626.848 235.204C626.955 235.409 627.131 235.6 627.375 235.775C627.619 235.941 627.951 236.098 628.371 236.244C628.801 236.391 629.338 236.532 629.982 236.669C631.193 236.923 632.233 237.25 633.103 237.65C633.981 238.041 634.655 238.549 635.124 239.174C635.593 239.789 635.827 240.57 635.827 241.518C635.827 242.221 635.676 242.865 635.373 243.451C635.08 244.027 634.65 244.53 634.084 244.96C633.518 245.38 632.839 245.707 632.048 245.941C631.267 246.176 630.388 246.293 629.411 246.293C627.976 246.293 626.76 246.039 625.764 245.531C624.768 245.014 624.011 244.354 623.493 243.554C622.985 242.743 622.731 241.903 622.731 241.034H626.145C626.184 241.688 626.364 242.211 626.687 242.602C627.019 242.982 627.429 243.261 627.917 243.437C628.415 243.603 628.928 243.686 629.455 243.686C630.09 243.686 630.622 243.603 631.052 243.437C631.481 243.261 631.809 243.026 632.033 242.733C632.258 242.431 632.37 242.089 632.37 241.708ZM639.064 244.242C639.064 243.695 639.25 243.236 639.621 242.865C639.992 242.484 640.495 242.294 641.13 242.294C641.774 242.294 642.277 242.484 642.639 242.865C643.01 243.236 643.195 243.695 643.195 244.242C643.195 244.789 643.01 245.248 642.639 245.619C642.277 245.99 641.774 246.176 641.13 246.176C640.495 246.176 639.992 245.99 639.621 245.619C639.25 245.248 639.064 244.789 639.064 244.242Z" fill="#461102"/>
<path d="M67.824 283.292C71.744 283.292 75.132 284.02 77.988 285.476C80.844 286.876 83 288.808 84.456 291.272C85.968 293.68 86.724 296.368 86.724 299.336C86.724 302.416 86.052 305.384 84.708 308.24C83.42 311.096 81.18 314.316 77.988 317.9C74.852 321.484 70.26 326.104 64.212 331.76H87.984L86.64 341H50.604V332.348C57.66 325.292 62.756 320.028 65.892 316.556C69.028 313.084 71.24 310.144 72.528 307.736C73.816 305.328 74.46 302.864 74.46 300.344C74.46 297.936 73.76 296.032 72.36 294.632C70.96 293.232 69.084 292.532 66.732 292.532C64.66 292.532 62.812 293.008 61.188 293.96C59.564 294.856 57.856 296.368 56.064 298.496L48.924 292.784C53.74 286.456 60.04 283.292 67.824 283.292ZM131.988 322.268C132.772 326.132 134.2 328.96 136.272 330.752C138.4 332.544 141.228 333.44 144.756 333.44C148.508 333.44 152.54 332.264 156.852 329.912V339.152C154.556 340.216 152.372 341 150.3 341.504C148.228 342.064 145.96 342.344 143.496 342.344C137.168 342.344 131.96 340.608 127.872 337.136C123.84 333.608 121.18 328.652 119.892 322.268H112.584L114.264 315.8H119.556V309.5H112.584L114.264 302.948H119.976C121.544 296.844 124.456 292.056 128.712 288.584C133.024 285.056 138.092 283.292 143.916 283.292C149.74 283.292 155.004 284.888 159.708 288.08L155.424 295.472C153.632 294.296 151.868 293.456 150.132 292.952C148.396 292.392 146.464 292.112 144.336 292.112C141.424 292.112 138.932 293.008 136.86 294.8C134.788 296.592 133.248 299.308 132.24 302.948H152.82L151.14 309.5H131.652V315.8H149.796L148.2 322.268H131.988Z" fill="#E3000F"/>
<path d="M194.047 320.25V323.5H178.641V320.719L186.031 312.734C186.802 311.859 187.411 311.099 187.859 310.453C188.307 309.807 188.625 309.224 188.812 308.703C189.01 308.172 189.109 307.667 189.109 307.188C189.109 306.49 188.984 305.88 188.734 305.359C188.484 304.828 188.12 304.417 187.641 304.125C187.172 303.833 186.594 303.688 185.906 303.688C185.146 303.688 184.495 303.865 183.953 304.219C183.422 304.562 183.016 305.042 182.734 305.656C182.464 306.271 182.328 306.974 182.328 307.766H178.188C178.188 306.422 178.5 305.198 179.125 304.094C179.75 302.979 180.646 302.089 181.812 301.422C182.979 300.755 184.365 300.422 185.969 300.422C187.531 300.422 188.854 300.682 189.938 301.203C191.021 301.714 191.844 302.443 192.406 303.391C192.969 304.339 193.25 305.469 193.25 306.781C193.25 307.51 193.13 308.229 192.891 308.938C192.651 309.646 192.312 310.349 191.875 311.047C191.448 311.734 190.938 312.432 190.344 313.141C189.75 313.849 189.089 314.573 188.359 315.312L183.922 320.25H194.047ZM209.234 299.484V323.5H205.109V299.484H209.234ZM219.828 306.594L212.469 314.859L208.484 318.906L207.172 315.703L210.25 311.828L214.844 306.594H219.828ZM215.609 323.5L210.375 315.625L213.125 312.953L220.391 323.5H215.609ZM232.078 319.484V306.594H236.234V323.5H232.328L232.078 319.484ZM232.609 315.984L233.891 315.953C233.891 317.089 233.766 318.135 233.516 319.094C233.266 320.052 232.875 320.885 232.344 321.594C231.823 322.292 231.161 322.839 230.359 323.234C229.557 323.62 228.609 323.812 227.516 323.812C226.682 323.812 225.922 323.698 225.234 323.469C224.547 323.229 223.953 322.859 223.453 322.359C222.964 321.849 222.583 321.198 222.312 320.406C222.042 319.604 221.906 318.641 221.906 317.516V306.594H226.031V317.547C226.031 318.109 226.094 318.578 226.219 318.953C226.354 319.328 226.536 319.635 226.766 319.875C227.005 320.104 227.281 320.271 227.594 320.375C227.917 320.469 228.26 320.516 228.625 320.516C229.625 320.516 230.411 320.318 230.984 319.922C231.568 319.516 231.984 318.974 232.234 318.297C232.484 317.609 232.609 316.839 232.609 315.984ZM249.953 319.484V306.594H254.109V323.5H250.203L249.953 319.484ZM250.484 315.984L251.766 315.953C251.766 317.089 251.641 318.135 251.391 319.094C251.141 320.052 250.75 320.885 250.219 321.594C249.698 322.292 249.036 322.839 248.234 323.234C247.432 323.62 246.484 323.812 245.391 323.812C244.557 323.812 243.797 323.698 243.109 323.469C242.422 323.229 241.828 322.859 241.328 322.359C240.839 321.849 240.458 321.198 240.188 320.406C239.917 319.604 239.781 318.641 239.781 317.516V306.594H243.906V317.547C243.906 318.109 243.969 318.578 244.094 318.953C244.229 319.328 244.411 319.635 244.641 319.875C244.88 320.104 245.156 320.271 245.469 320.375C245.792 320.469 246.135 320.516 246.5 320.516C247.5 320.516 248.286 320.318 248.859 319.922C249.443 319.516 249.859 318.974 250.109 318.297C250.359 317.609 250.484 316.839 250.484 315.984ZM267.906 319.906V299.5H272.062V323.5H268.312L267.906 319.906ZM257.047 315.25V314.922C257.047 313.63 257.193 312.458 257.484 311.406C257.786 310.344 258.224 309.432 258.797 308.672C259.37 307.911 260.062 307.323 260.875 306.906C261.698 306.49 262.63 306.281 263.672 306.281C264.682 306.281 265.562 306.484 266.312 306.891C267.073 307.297 267.719 307.875 268.25 308.625C268.792 309.375 269.224 310.266 269.547 311.297C269.87 312.318 270.104 313.443 270.25 314.672V315.562C270.104 316.76 269.87 317.859 269.547 318.859C269.224 319.859 268.792 320.734 268.25 321.484C267.719 322.224 267.073 322.797 266.312 323.203C265.552 323.609 264.661 323.812 263.641 323.812C262.609 323.812 261.682 323.599 260.859 323.172C260.047 322.745 259.354 322.146 258.781 321.375C258.219 320.604 257.786 319.698 257.484 318.656C257.193 317.615 257.047 316.479 257.047 315.25ZM261.188 314.922V315.25C261.188 315.979 261.25 316.661 261.375 317.297C261.5 317.932 261.703 318.495 261.984 318.984C262.266 319.464 262.625 319.839 263.062 320.109C263.51 320.38 264.052 320.516 264.688 320.516C265.5 320.516 266.167 320.339 266.688 319.984C267.219 319.62 267.63 319.125 267.922 318.5C268.214 317.865 268.401 317.151 268.484 316.359V313.906C268.443 313.281 268.333 312.703 268.156 312.172C267.99 311.641 267.75 311.182 267.438 310.797C267.135 310.411 266.76 310.109 266.312 309.891C265.865 309.672 265.333 309.562 264.719 309.562C264.083 309.562 263.542 309.703 263.094 309.984C262.646 310.255 262.281 310.635 262 311.125C261.719 311.615 261.51 312.182 261.375 312.828C261.25 313.474 261.188 314.172 261.188 314.922Z" fill="#461102"/>
<rect x="346" y="280" width="316" height="64" rx="16" fill="#E3000F"/>
<path d="M395.248 300.824L394.736 304.856H389.264V323H384.016V304.856H378.288V300.824H395.248ZM410.961 300.824L410.417 304.568H402.609V309.88H409.425V313.56H402.609V319.224H410.961V323H397.361V300.824H410.961ZM419.453 300.824V318.84H428.093L427.549 323H414.205V300.824H419.453ZM435.859 300.824V318.84H444.499L443.955 323H430.611V300.824H435.859ZM452.266 300.824V323H447.018V300.824H452.266ZM470.162 300.824C473.64 300.824 476.424 301.613 478.514 303.192C480.626 304.749 481.682 307.619 481.682 311.8C481.682 315.917 480.658 318.819 478.61 320.504C476.562 322.168 473.906 323 470.642 323H463.986V300.824H470.162ZM469.234 304.632V319.192H470.962C472.69 319.192 474.002 318.659 474.898 317.592C475.794 316.504 476.242 314.573 476.242 311.8C476.242 309.901 476.018 308.429 475.57 307.384C475.122 306.339 474.514 305.624 473.746 305.24C472.978 304.835 472.029 304.632 470.898 304.632H469.234ZM490.078 300.824V323H484.83V300.824H490.078ZM503.805 300.28C506.664 300.28 509.128 301.187 511.197 303L508.541 305.784C507.752 305.187 507.016 304.76 506.333 304.504C505.672 304.227 504.904 304.088 504.029 304.088C502.386 304.088 501.074 304.739 500.093 306.04C499.112 307.32 498.621 309.272 498.621 311.896C498.621 314.733 498.994 316.749 499.741 317.944C500.488 319.117 501.65 319.704 503.229 319.704C504.338 319.704 505.341 319.459 506.237 318.968V313.944H503.357L502.845 310.232H511.325V321.208C510.173 321.955 508.904 322.531 507.517 322.936C506.13 323.341 504.744 323.544 503.357 323.544C499.986 323.544 497.448 322.563 495.741 320.6C494.034 318.616 493.181 315.715 493.181 311.896C493.181 309.464 493.64 307.373 494.557 305.624C495.496 303.875 496.765 302.552 498.365 301.656C499.986 300.739 501.8 300.28 503.805 300.28ZM520.078 300.824V323H514.83V300.824H520.078ZM531.373 300.824C534.296 300.824 536.568 301.432 538.189 302.648C539.81 303.864 540.621 305.667 540.621 308.056C540.621 310.552 539.821 312.44 538.221 313.72C536.642 314.979 534.52 315.608 531.853 315.608H529.453V323H524.205V300.824H531.373ZM531.405 311.832C532.642 311.832 533.581 311.544 534.221 310.968C534.882 310.371 535.213 309.4 535.213 308.056C535.213 305.731 533.912 304.568 531.309 304.568H529.453V311.832H531.405ZM553.166 323L552.014 318.232H545.55L544.43 323H538.99L545.678 300.824H552.046L558.734 323H553.166ZM546.446 314.424H551.118L548.782 304.632L546.446 314.424ZM565.609 300.824V323H560.361V300.824H565.609ZM578.345 300.824L571.273 310.776L578.921 323H572.841L565.769 311.16L572.809 300.824H578.345ZM594.211 300.824L593.667 304.568H585.859V309.88H592.675V313.56H585.859V319.224H594.211V323H580.611V300.824H594.211ZM612.623 300.824L612.111 304.856H606.639V323H601.391V304.856H595.663V300.824H612.623ZM629.904 300.824L629.392 304.856H623.92V323H618.672V304.856H612.944V300.824H629.904Z" fill="#FFE80D"/>
</svg>
