<svg width="330" height="200" viewBox="0 0 330 200" fill="none" xmlns="http://www.w3.org/2000/svg">
<path d="M40.4269 57.3644L38.8457 51.0802H30.0479L28.4667 57.3644H22.2637L30.8993 29.3087H38.1565L46.7515 57.3644H40.4269ZM31.1831 46.6611H37.7105L34.4265 33.7279L31.1831 46.6611ZM60.716 35.228C62.608 35.228 64.0811 35.8091 65.1352 36.9713C66.1893 38.1065 66.7164 39.6877 66.7164 41.7148V57.3644H60.9593V42.6879C60.9593 41.5256 60.7566 40.7148 60.3511 40.2553C59.9727 39.7688 59.3916 39.5255 58.6078 39.5255C57.7969 39.5255 57.0536 39.7823 56.3779 40.2958C55.7292 40.7823 55.0941 41.5256 54.4724 42.5257V57.3644H48.7153V35.8767H53.7021L54.1481 38.593C55.04 37.4849 56.013 36.647 57.0672 36.0794C58.1483 35.5118 59.3646 35.228 60.716 35.228ZM83.6877 35.228C85.5797 35.228 87.0527 35.8091 88.1068 36.9713C89.161 38.1065 89.688 39.6877 89.688 41.7148V57.3644H83.9309V42.6879C83.9309 41.5256 83.7282 40.7148 83.3228 40.2553C82.9444 39.7688 82.3633 39.5255 81.5794 39.5255C80.7686 39.5255 80.0253 39.7823 79.3496 40.2958C78.7009 40.7823 78.0657 41.5256 77.4441 42.5257V57.3644H71.687V35.8767H76.6738L77.1197 38.593C78.0117 37.4849 78.9847 36.647 80.0388 36.0794C81.12 35.5118 82.3362 35.228 83.6877 35.228ZM111.078 51.4046C111.078 52.2425 111.2 52.8641 111.443 53.2696C111.687 53.648 112.092 53.9318 112.66 54.121L111.443 57.932C110.173 57.8239 109.132 57.5266 108.322 57.04C107.538 56.5535 106.93 55.7967 106.497 54.7696C105.092 56.9319 102.943 58.0131 100.051 58.0131C97.9156 58.0131 96.2128 57.4049 94.9424 56.1886C93.6991 54.9453 93.0775 53.3371 93.0775 51.364C93.0775 49.0126 93.9289 47.2152 95.6317 45.9718C97.3345 44.7285 99.7805 44.1069 102.97 44.1069H105.443V43.0528C105.443 41.7284 105.146 40.8094 104.551 40.2958C103.956 39.7823 102.97 39.5255 101.591 39.5255C100.078 39.5255 98.1859 39.9039 95.9155 40.6607L94.6181 36.8091C97.2939 35.755 99.9427 35.228 102.564 35.228C105.484 35.228 107.632 35.8632 109.011 37.1335C110.389 38.3768 111.078 40.2418 111.078 42.7284V51.4046ZM101.632 53.8777C103.254 53.8777 104.524 53.0804 105.443 51.4857V47.3908H103.538C100.429 47.3908 98.8751 48.5531 98.8751 50.8775C98.8751 51.8235 99.1048 52.5668 99.5643 53.1074C100.051 53.6209 100.74 53.8777 101.632 53.8777ZM131.067 58.0131C129.31 58.0131 127.945 57.513 126.972 56.513C125.999 55.4859 125.512 54.0399 125.512 52.1749V27.3221L131.269 26.6734V52.0127C131.269 52.9587 131.661 53.4317 132.445 53.4317C132.878 53.4317 133.256 53.3506 133.58 53.1885L134.756 57.2833C133.648 57.7698 132.418 58.0131 131.067 58.0131ZM155.17 46.134C155.17 46.4043 155.13 47.1476 155.048 48.3639H141.629C141.818 50.3099 142.345 51.6884 143.21 52.4992C144.075 53.3101 145.251 53.7155 146.737 53.7155C147.656 53.7155 148.521 53.5669 149.332 53.2696C150.143 52.9722 151.021 52.4992 151.967 51.8506L154.359 55.094C151.954 57.04 149.237 58.0131 146.21 58.0131C142.832 58.0131 140.237 56.9995 138.426 54.9724C136.615 52.9452 135.71 50.2018 135.71 46.7422C135.71 44.5528 136.088 42.5933 136.845 40.8634C137.629 39.1066 138.75 37.7281 140.21 36.7281C141.696 35.728 143.453 35.228 145.48 35.228C148.535 35.228 150.913 36.1875 152.616 38.1065C154.319 40.0256 155.17 42.7014 155.17 46.134ZM149.454 44.5123C149.454 40.9445 148.17 39.1606 145.602 39.1606C144.413 39.1606 143.48 39.6066 142.805 40.4986C142.156 41.3635 141.764 42.7825 141.629 44.7556H149.454V44.5123ZM170.831 35.228C172.696 35.228 174.156 35.8091 175.21 36.9713C176.291 38.1065 176.831 39.6877 176.831 41.7148V57.3644H171.074V42.6879C171.074 41.5256 170.872 40.7148 170.466 40.2553C170.061 39.7688 169.48 39.5255 168.723 39.5255C167.209 39.5255 165.831 40.5121 164.587 42.4852V57.3644H158.83V27.3221L164.587 26.714V38.3092C165.452 37.2822 166.385 36.5118 167.385 35.9983C168.412 35.4848 169.561 35.228 170.831 35.228ZM199.965 46.134C199.965 46.4043 199.925 47.1476 199.844 48.3639H186.424C186.613 50.3099 187.14 51.6884 188.005 52.4992C188.87 53.3101 190.046 53.7155 191.532 53.7155C192.451 53.7155 193.316 53.5669 194.127 53.2696C194.938 52.9722 195.816 52.4992 196.762 51.8506L199.154 55.094C196.749 57.04 194.032 58.0131 191.005 58.0131C187.627 58.0131 185.032 56.9995 183.221 54.9724C181.41 52.9452 180.505 50.2018 180.505 46.7422C180.505 44.5528 180.883 42.5933 181.64 40.8634C182.424 39.1066 183.545 37.7281 185.005 36.7281C186.491 35.728 188.248 35.228 190.275 35.228C193.33 35.228 195.708 36.1875 197.411 38.1065C199.114 40.0256 199.965 42.7014 199.965 46.134ZM194.249 44.5123C194.249 40.9445 192.965 39.1606 190.397 39.1606C189.208 39.1606 188.275 39.6066 187.6 40.4986C186.951 41.3635 186.559 42.7825 186.424 44.7556H194.249V44.5123ZM209.383 26.6734V57.3644H203.625V27.3221L209.383 26.6734ZM222.437 35.8767L215.586 45.3232L223.046 57.3644H216.518L209.585 45.607L216.478 35.8767H222.437ZM242.371 57.3644H237.385L237.101 54.4858C236.344 55.6751 235.425 56.567 234.344 57.1617C233.263 57.7293 232.006 58.0131 230.573 58.0131C228.627 58.0131 227.141 57.432 226.114 56.2697C225.087 55.0805 224.573 53.4317 224.573 51.3235V35.8767H230.33V50.5937C230.33 51.7289 230.519 52.5398 230.898 53.0263C231.276 53.4858 231.871 53.7155 232.682 53.7155C234.222 53.7155 235.533 52.783 236.614 50.9181V35.8767H242.371V57.3644ZM265.145 57.3644H260.158L259.875 54.4858C259.118 55.6751 258.199 56.567 257.118 57.1617C256.037 57.7293 254.78 58.0131 253.347 58.0131C251.401 58.0131 249.915 57.432 248.887 56.2697C247.86 55.0805 247.347 53.4317 247.347 51.3235V35.8767H253.104V50.5937C253.104 51.7289 253.293 52.5398 253.672 53.0263C254.05 53.4858 254.645 53.7155 255.455 53.7155C256.996 53.7155 258.307 52.783 259.388 50.9181V35.8767H265.145V57.3644ZM275.675 58.0131C273.918 58.0131 272.553 57.513 271.58 56.513C270.607 55.4859 270.121 54.0399 270.121 52.1749V27.3221L275.878 26.6734V52.0127C275.878 52.9587 276.27 53.4317 277.053 53.4317C277.486 53.4317 277.864 53.3506 278.189 53.1885L279.364 57.2833C278.256 57.7698 277.026 58.0131 275.675 58.0131ZM299.778 46.134C299.778 46.4043 299.738 47.1476 299.657 48.3639H286.237C286.426 50.3099 286.953 51.6884 287.818 52.4992C288.683 53.3101 289.859 53.7155 291.345 53.7155C292.264 53.7155 293.129 53.5669 293.94 53.2696C294.751 52.9722 295.629 52.4992 296.575 51.8506L298.967 55.094C296.562 57.04 293.845 58.0131 290.818 58.0131C287.44 58.0131 284.845 56.9995 283.034 54.9724C281.223 52.9452 280.318 50.2018 280.318 46.7422C280.318 44.5528 280.696 42.5933 281.453 40.8634C282.237 39.1066 283.358 37.7281 284.818 36.7281C286.304 35.728 288.061 35.228 290.088 35.228C293.143 35.228 295.521 36.1875 297.224 38.1065C298.927 40.0256 299.778 42.7014 299.778 46.134ZM294.062 44.5123C294.062 40.9445 292.778 39.1606 290.21 39.1606C289.021 39.1606 288.088 39.6066 287.413 40.4986C286.764 41.3635 286.372 42.7825 286.237 44.7556H294.062V44.5123ZM36.5753 81.2685C37.224 81.2685 37.9402 81.3766 38.7241 81.5929L37.751 87.1472C36.9942 86.958 36.3591 86.8634 35.8455 86.8634C34.5752 86.8634 33.5886 87.3094 32.8859 88.2014C32.1831 89.0933 31.6291 90.4447 31.2236 92.2556V103.364H25.4665V81.8767H30.4533L30.9804 86.0526C31.4939 84.539 32.2372 83.3632 33.2102 82.5254C34.2103 81.6875 35.332 81.2685 36.5753 81.2685ZM48.8876 81.228C52.104 81.228 54.6177 82.2416 56.4286 84.2687C58.2395 86.2688 59.145 89.0528 59.145 92.6205C59.145 94.8909 58.726 96.891 57.8882 98.6209C57.0773 100.324 55.888 101.648 54.3204 102.594C52.7798 103.54 50.9553 104.013 48.8471 104.013C45.6307 104.013 43.1035 103.013 41.2656 101.013C39.4547 98.9858 38.5492 96.1883 38.5492 92.6205C38.5492 90.3501 38.9546 88.3635 39.7655 86.6607C40.6034 84.9309 41.7926 83.593 43.3333 82.647C44.9009 81.701 46.7524 81.228 48.8876 81.228ZM48.8876 85.5255C47.4281 85.5255 46.3334 86.1066 45.6037 87.2689C44.9009 88.4041 44.5496 90.188 44.5496 92.6205C44.5496 95.0531 44.9009 96.8505 45.6037 98.0127C46.3334 99.1479 47.4146 99.7155 48.8471 99.7155C50.2796 99.7155 51.3472 99.1479 52.05 98.0127C52.7798 96.8505 53.1446 95.0531 53.1446 92.6205C53.1446 90.188 52.7933 88.4041 52.0905 87.2689C51.3878 86.1066 50.3202 85.5255 48.8876 85.5255ZM75.0169 81.228C76.8819 81.228 78.3414 81.8091 79.3955 82.9713C80.4767 84.1065 81.0172 85.6877 81.0172 87.7148V103.364H75.2601V88.6879C75.2601 87.5256 75.0574 86.7148 74.652 86.2553C74.2466 85.7688 73.6655 85.5255 72.9087 85.5255C71.3951 85.5255 70.0166 86.5121 68.7733 88.4852V103.364H63.0162V73.3221L68.7733 72.714V84.3092C69.6382 83.2822 70.5707 82.5118 71.5707 81.9983C72.5978 81.4848 73.7465 81.228 75.0169 81.228ZM91.7449 72.6734V103.364H85.9878V73.3221L91.7449 72.6734ZM104.8 81.8767L97.948 91.3232L105.408 103.364H98.8805L91.9476 91.607L98.8399 81.8767H104.8ZM125.143 92.134C125.143 92.4043 125.103 93.1476 125.021 94.3639H111.602C111.791 96.3099 112.318 97.6884 113.183 98.4992C114.048 99.3101 115.224 99.7155 116.71 99.7155C117.629 99.7155 118.494 99.5669 119.305 99.2696C120.116 98.9722 120.994 98.4992 121.94 97.8506L124.332 101.094C121.927 103.04 119.21 104.013 116.183 104.013C112.805 104.013 110.21 102.999 108.399 100.972C106.588 98.9452 105.682 96.2018 105.682 92.7422C105.682 90.5528 106.061 88.5933 106.818 86.8634C107.602 85.1066 108.723 83.7281 110.183 82.7281C111.669 81.728 113.426 81.228 115.453 81.228C118.508 81.228 120.886 82.1875 122.589 84.1065C124.292 86.0256 125.143 88.7014 125.143 92.134ZM119.427 90.5123C119.427 86.9445 118.143 85.1606 115.575 85.1606C114.386 85.1606 113.453 85.6066 112.777 86.4986C112.129 87.3635 111.737 88.7825 111.602 90.7556H119.427V90.5123ZM152.034 81.228C153.737 81.228 155.102 81.8091 156.129 82.9713C157.183 84.1336 157.71 85.7147 157.71 87.7148V103.364H151.953V88.6879C151.953 86.5796 151.251 85.5255 149.845 85.5255C149.088 85.5255 148.426 85.7688 147.858 86.2553C147.291 86.7418 146.71 87.4986 146.115 88.5257V103.364H140.358V88.6879C140.358 86.5796 139.655 85.5255 138.25 85.5255C137.493 85.5255 136.831 85.7823 136.263 86.2958C135.696 86.7823 135.128 87.5256 134.56 88.5257V103.364H128.803V81.8767H133.79L134.236 84.5525C135.047 83.4714 135.952 82.647 136.952 82.0794C137.98 81.5118 139.155 81.228 140.48 81.228C141.696 81.228 142.75 81.5388 143.642 82.1605C144.534 82.7551 145.183 83.6065 145.588 84.7147C146.48 83.5524 147.44 82.6875 148.467 82.1199C149.521 81.5253 150.71 81.228 152.034 81.228ZM179.19 81.228C182.217 81.228 184.812 82.0929 186.974 83.8227L184.785 87.1067C182.974 85.9715 181.19 85.4039 179.433 85.4039C178.487 85.4039 177.757 85.5796 177.244 85.931C176.73 86.2823 176.473 86.7553 176.473 87.35C176.473 87.7824 176.582 88.1473 176.798 88.4446C177.041 88.7419 177.474 89.0257 178.095 89.296C178.744 89.5663 179.703 89.8906 180.974 90.269C183.244 90.8907 184.933 91.7286 186.042 92.7827C187.15 93.8098 187.704 95.2288 187.704 97.0397C187.704 98.4722 187.285 99.7155 186.447 100.77C185.636 101.824 184.528 102.635 183.123 103.202C181.717 103.743 180.149 104.013 178.42 104.013C176.609 104.013 174.96 103.743 173.473 103.202C171.987 102.635 170.716 101.864 169.662 100.891L172.5 97.7289C174.311 99.1344 176.23 99.8372 178.257 99.8372C179.339 99.8372 180.19 99.6344 180.812 99.229C181.46 98.7966 181.785 98.2154 181.785 97.4857C181.785 96.9181 181.663 96.4721 181.42 96.1478C181.176 95.8234 180.73 95.5261 180.082 95.2558C179.433 94.9585 178.42 94.6206 177.041 94.2422C174.879 93.6476 173.271 92.8097 172.216 91.7286C171.189 90.6204 170.676 89.2555 170.676 87.6338C170.676 86.4175 171.027 85.3228 171.73 84.3498C172.433 83.3768 173.419 82.62 174.69 82.0794C175.987 81.5118 177.487 81.228 179.19 81.228ZM196.705 81.8767V103.364H190.948V81.8767H196.705ZM193.786 70.8085C194.813 70.8085 195.651 71.1328 196.3 71.7815C196.975 72.4031 197.313 73.2005 197.313 74.1735C197.313 75.1465 196.975 75.9574 196.3 76.6061C195.651 77.2277 194.813 77.5386 193.786 77.5386C192.759 77.5386 191.921 77.2277 191.272 76.6061C190.624 75.9574 190.299 75.1465 190.299 74.1735C190.299 73.2005 190.624 72.4031 191.272 71.7815C191.921 71.1328 192.759 70.8085 193.786 70.8085ZM209.019 81.228C212.046 81.228 214.641 82.0929 216.803 83.8227L214.614 87.1067C212.803 85.9715 211.019 85.4039 209.262 85.4039C208.316 85.4039 207.586 85.5796 207.073 85.931C206.559 86.2823 206.303 86.7553 206.303 87.35C206.303 87.7824 206.411 88.1473 206.627 88.4446C206.87 88.7419 207.303 89.0257 207.924 89.296C208.573 89.5663 209.532 89.8906 210.803 90.269C213.073 90.8907 214.763 91.7286 215.871 92.7827C216.979 93.8098 217.533 95.2288 217.533 97.0397C217.533 98.4722 217.114 99.7155 216.276 100.77C215.465 101.824 214.357 102.635 212.952 103.202C211.546 103.743 209.978 104.013 208.249 104.013C206.438 104.013 204.789 103.743 203.302 103.202C201.816 102.635 200.545 101.864 199.491 100.891L202.329 97.7289C204.14 99.1344 206.059 99.8372 208.086 99.8372C209.168 99.8372 210.019 99.6344 210.641 99.229C211.289 98.7966 211.614 98.2154 211.614 97.4857C211.614 96.9181 211.492 96.4721 211.249 96.1478C211.006 95.8234 210.56 95.5261 209.911 95.2558C209.262 94.9585 208.249 94.6206 206.87 94.2422C204.708 93.6476 203.1 92.8097 202.046 91.7286C201.018 90.6204 200.505 89.2555 200.505 87.6338C200.505 86.4175 200.856 85.3228 201.559 84.3498C202.262 83.3768 203.248 82.62 204.519 82.0794C205.816 81.5118 207.316 81.228 209.019 81.228ZM238.373 103.364H233.386L233.102 100.486C232.345 101.675 231.426 102.567 230.345 103.162C229.264 103.729 228.007 104.013 226.575 104.013C224.629 104.013 223.142 103.432 222.115 102.27C221.088 101.08 220.574 99.4317 220.574 97.3235V81.8767H226.331V96.5937C226.331 97.7289 226.521 98.5398 226.899 99.0263C227.277 99.4858 227.872 99.7155 228.683 99.7155C230.223 99.7155 231.534 98.783 232.616 96.9181V81.8767H238.373V103.364ZM248.619 75.3087L247.929 93.2692H243.226L242.456 75.3087H248.619ZM245.578 97.0802C246.551 97.0802 247.375 97.4181 248.051 98.0938C248.727 98.7695 249.065 99.5804 249.065 100.526C249.065 101.472 248.727 102.297 248.051 102.999C247.375 103.675 246.551 104.013 245.578 104.013C244.632 104.013 243.821 103.675 243.145 102.999C242.47 102.297 242.132 101.472 242.132 100.526C242.132 99.5804 242.47 98.7695 243.145 98.0938C243.821 97.4181 244.632 97.0802 245.578 97.0802Z" fill="#F20312"/>
<path d="M22.6285 141.902C22.6285 137.282 26.3744 133.536 30.9951 133.536H184.095V170.636H30.9951C26.3744 170.636 22.6285 166.89 22.6285 162.269V141.902Z" fill="#FFDF38"/>
<path d="M48.2638 146.506L47.9961 148.431H45.0678V158.086H42.608V148.431H39.5291V146.506H48.2638ZM56.2234 146.506L55.9557 148.297H51.7724V151.309H55.4202V153.083H51.7724V156.279H56.2569V158.086H49.3126V146.506H56.2234ZM60.4037 146.506V156.111H64.9886L64.7209 158.086H57.9439V146.506H60.4037ZM68.7082 146.506V156.111H73.2931L73.0254 158.086H66.2484V146.506H68.7082ZM77.0127 146.506V158.086H74.5529V146.506H77.0127ZM86.1672 146.506C87.9744 146.506 89.419 146.919 90.5011 147.745C91.5943 148.559 92.1409 150.059 92.1409 152.246C92.1409 154.388 91.6055 155.899 90.5346 156.781C89.4748 157.651 88.1138 158.086 86.4517 158.086H83.1385V146.506H86.1672ZM85.5983 148.314V156.279H86.6023C87.5505 156.279 88.2811 155.989 88.7943 155.409C89.3186 154.817 89.5808 153.763 89.5808 152.246C89.5808 151.197 89.4469 150.383 89.1792 149.803C88.9226 149.223 88.5768 148.832 88.1417 148.632C87.7066 148.42 87.1768 148.314 86.5521 148.314H85.5983ZM96.2722 146.506V158.086H93.8124V146.506H96.2722ZM103.358 146.239C104.139 146.239 104.83 146.361 105.433 146.607C106.046 146.841 106.615 147.181 107.139 147.628L105.851 148.966C105.438 148.654 105.048 148.425 104.68 148.28C104.323 148.135 103.916 148.063 103.458 148.063C102.577 148.063 101.863 148.414 101.316 149.117C100.781 149.808 100.513 150.868 100.513 152.296C100.513 153.802 100.72 154.884 101.132 155.542C101.556 156.189 102.209 156.513 103.09 156.513C103.726 156.513 104.3 156.373 104.814 156.095V153.267H103.19L102.939 151.476H107.206V157.182C106.604 157.55 105.951 157.84 105.249 158.052C104.557 158.253 103.854 158.354 103.14 158.354C101.433 158.354 100.139 157.84 99.2582 156.814C98.3769 155.788 97.9362 154.276 97.9362 152.279C97.9362 151.019 98.1761 149.931 98.6558 149.016C99.1354 148.102 99.7825 147.41 100.597 146.942C101.422 146.473 102.343 146.239 103.358 146.239ZM111.492 146.506V158.086H109.032V146.506H111.492ZM117.323 146.506C118.829 146.506 119.995 146.819 120.82 147.444C121.657 148.068 122.075 149 122.075 150.238C122.075 151.532 121.662 152.508 120.837 153.166C120.011 153.813 118.907 154.137 117.524 154.137H116.202V158.086H113.742V146.506H117.323ZM117.323 152.33C118.037 152.33 118.583 152.168 118.963 151.844C119.342 151.521 119.532 150.985 119.532 150.238C119.532 148.933 118.784 148.28 117.289 148.28H116.202V152.33H117.323ZM128.612 158.086L127.959 155.492H124.328L123.676 158.086H121.115L124.68 146.506H127.675L131.222 158.086H128.612ZM124.797 153.668H127.491L126.135 148.33L124.797 153.668ZM134.543 146.506V158.086H132.083V146.506H134.543ZM141.119 146.506L137.254 151.727L141.42 158.086H138.542L134.643 151.911L138.492 146.506H141.119ZM149.194 146.506L148.926 148.297H144.743V151.309H148.391V153.083H144.743V156.279H149.227V158.086H142.283V146.506H149.194ZM158.595 146.506L158.327 148.431H155.399V158.086H152.939V148.431H149.86V146.506H158.595ZM167.324 146.506L167.057 148.431H164.128V158.086H161.668V148.431H158.59V146.506H167.324Z" fill="#451D02"/>
<path d="M184.095 133.536H297.195C301.815 133.536 305.561 137.282 305.561 141.902V162.269C305.561 166.89 301.815 170.636 297.195 170.636H184.095V133.536Z" fill="#F20312"/>
<path d="M204.76 146.59C205.53 146.59 206.188 146.718 206.735 146.975C207.293 147.22 207.711 147.561 207.99 147.996C208.28 148.431 208.425 148.916 208.425 149.451C208.425 150.132 208.23 150.701 207.839 151.158C207.449 151.604 206.908 151.922 206.216 152.112C206.975 152.19 207.594 152.463 208.073 152.932C208.553 153.401 208.793 154.053 208.793 154.89C208.793 155.537 208.626 156.122 208.291 156.647C207.967 157.171 207.488 157.589 206.852 157.902C206.216 158.203 205.463 158.354 204.593 158.354C202.998 158.354 201.748 157.796 200.845 156.68L202.133 155.442C202.512 155.821 202.886 156.095 203.254 156.262C203.622 156.429 204.024 156.513 204.459 156.513C205.039 156.513 205.497 156.357 205.831 156.044C206.177 155.732 206.35 155.297 206.35 154.739C206.35 154.137 206.188 153.702 205.865 153.434C205.541 153.166 205.056 153.032 204.409 153.032H203.489L203.773 151.359H204.392C204.916 151.359 205.335 151.22 205.647 150.941C205.96 150.662 206.116 150.271 206.116 149.769C206.116 149.334 205.971 148.994 205.681 148.749C205.402 148.503 205.017 148.381 204.526 148.381C204.102 148.381 203.712 148.459 203.355 148.615C202.998 148.771 202.646 149.016 202.301 149.351L201.112 148.063C202.15 147.081 203.366 146.59 204.76 146.59ZM217.19 154.354C217.346 155.124 217.63 155.687 218.043 156.044C218.467 156.401 219.03 156.58 219.733 156.58C220.48 156.58 221.284 156.346 222.143 155.877V157.718C221.685 157.93 221.25 158.086 220.837 158.186C220.425 158.298 219.973 158.354 219.482 158.354C218.221 158.354 217.184 158.008 216.37 157.316C215.566 156.613 215.037 155.626 214.78 154.354H213.324L213.659 153.066H214.713V151.811H213.324L213.659 150.506H214.797C215.109 149.29 215.689 148.336 216.537 147.644C217.396 146.942 218.405 146.59 219.566 146.59C220.726 146.59 221.774 146.908 222.711 147.544L221.858 149.016C221.501 148.782 221.15 148.615 220.804 148.514C220.458 148.403 220.073 148.347 219.649 148.347C219.069 148.347 218.573 148.526 218.16 148.883C217.747 149.24 217.441 149.781 217.24 150.506H221.339L221.005 151.811H217.123V153.066H220.737L220.419 154.354H217.19ZM231.882 144.465L233.94 144.934L230.025 159.926L227.95 159.441L231.882 144.465ZM242.887 146.59C243.657 146.59 244.315 146.718 244.862 146.975C245.419 147.22 245.838 147.561 246.117 147.996C246.407 148.431 246.552 148.916 246.552 149.451C246.552 150.132 246.356 150.701 245.966 151.158C245.576 151.604 245.035 151.922 244.343 152.112C245.101 152.19 245.721 152.463 246.2 152.932C246.68 153.401 246.92 154.053 246.92 154.89C246.92 155.537 246.752 156.122 246.418 156.647C246.094 157.171 245.615 157.589 244.979 157.902C244.343 158.203 243.59 158.354 242.72 158.354C241.125 158.354 239.875 157.796 238.972 156.68L240.26 155.442C240.639 155.821 241.013 156.095 241.381 156.262C241.749 156.429 242.151 156.513 242.586 156.513C243.166 156.513 243.623 156.357 243.958 156.044C244.304 155.732 244.477 155.297 244.477 154.739C244.477 154.137 244.315 153.702 243.991 153.434C243.668 153.166 243.183 153.032 242.536 153.032H241.615L241.9 151.359H242.519C243.043 151.359 243.462 151.22 243.774 150.941C244.086 150.662 244.242 150.271 244.242 149.769C244.242 149.334 244.097 148.994 243.807 148.749C243.529 148.503 243.144 148.381 242.653 148.381C242.229 148.381 241.838 148.459 241.482 148.615C241.125 148.771 240.773 149.016 240.427 149.351L239.239 148.063C240.277 147.081 241.493 146.59 242.887 146.59ZM254.781 145.419V158.086H252.405V145.687L254.781 145.419ZM260.169 149.217L257.341 153.116L260.42 158.086H257.726L254.865 153.233L257.709 149.217H260.169ZM268.396 158.086H266.338L266.221 156.898C265.909 157.389 265.529 157.757 265.083 158.002C264.637 158.236 264.118 158.354 263.527 158.354C262.724 158.354 262.11 158.114 261.686 157.634C261.262 157.143 261.05 156.463 261.05 155.593V149.217H263.427V155.291C263.427 155.76 263.505 156.095 263.661 156.295C263.817 156.485 264.062 156.58 264.397 156.58C265.033 156.58 265.574 156.195 266.02 155.425V149.217H268.396V158.086ZM277.796 158.086H275.737L275.62 156.898C275.308 157.389 274.929 157.757 274.482 158.002C274.036 158.236 273.518 158.354 272.926 158.354C272.123 158.354 271.51 158.114 271.086 157.634C270.662 157.143 270.45 156.463 270.45 155.593V149.217H272.826V155.291C272.826 155.76 272.904 156.095 273.06 156.295C273.216 156.485 273.462 156.58 273.796 156.58C274.432 156.58 274.973 156.195 275.42 155.425V149.217H277.796V158.086ZM287.613 145.687V158.086H285.522L285.388 156.998C284.763 157.902 283.915 158.354 282.844 158.354C281.751 158.354 280.914 157.935 280.334 157.099C279.765 156.251 279.481 155.102 279.481 153.652C279.481 152.737 279.626 151.928 279.916 151.225C280.217 150.511 280.641 149.953 281.188 149.552C281.734 149.15 282.365 148.95 283.079 148.95C283.904 148.95 284.624 149.245 285.237 149.836V145.419L287.613 145.687ZM283.547 156.58C283.893 156.58 284.2 156.496 284.467 156.329C284.735 156.15 284.992 155.877 285.237 155.509V151.543C285.003 151.264 284.763 151.058 284.518 150.924C284.283 150.779 284.01 150.706 283.698 150.706C283.151 150.706 282.722 150.946 282.409 151.426C282.108 151.906 281.957 152.648 281.957 153.652C281.957 154.711 282.091 155.464 282.359 155.911C282.638 156.357 283.034 156.58 283.547 156.58Z" fill="white"/>
</svg>
