<svg width="770" height="100" viewBox="0 0 770 100" fill="none" xmlns="http://www.w3.org/2000/svg">
<rect width="770" height="100" fill="#330B6A"/>
<path d="M264 20C264 16.6863 266.686 14 270 14H500C503.314 14 506 16.6863 506 20V81C506 84.3137 503.314 87 500 87H270C266.686 87 264 84.3137 264 81V20Z" fill="#D7FF00"/>
<path d="M317.496 38.088L316.92 41.94H307.92V48.42H315.768V52.236H307.92V59.112H317.568V63H302.628V38.088H317.496ZM339.99 63H333.186L325.266 43.236C325.482 44.94 325.65 46.548 325.77 48.06C325.914 49.548 325.986 51.3 325.986 53.316V63H321.198V38.088H327.858L335.922 57.888C335.442 54.672 335.202 51.72 335.202 49.032V38.088H339.99V63ZM363.586 63H356.782L348.862 43.236C349.078 44.94 349.246 46.548 349.366 48.06C349.51 49.548 349.582 51.3 349.582 53.316V63H344.794V38.088H351.454L359.518 57.888C359.038 54.672 358.798 51.72 358.798 49.032V38.088H363.586V63ZM387.003 54.792C387.003 56.496 386.643 58.008 385.923 59.328C385.203 60.648 384.123 61.692 382.683 62.46C381.267 63.204 379.539 63.576 377.499 63.576C374.427 63.576 372.075 62.784 370.443 61.2C368.835 59.592 368.031 57.456 368.031 54.792V38.088H373.323V54.54C373.323 56.22 373.659 57.48 374.331 58.32C375.003 59.136 376.059 59.544 377.499 59.544C378.939 59.544 379.995 59.136 380.667 58.32C381.363 57.48 381.711 56.22 381.711 54.54V38.088H387.003V54.792ZM398.881 37.512C400.681 37.512 402.241 37.776 403.561 38.304C404.905 38.808 406.141 39.588 407.269 40.644L404.749 43.56C403.861 42.84 402.973 42.312 402.085 41.976C401.197 41.64 400.249 41.472 399.241 41.472C398.137 41.472 397.249 41.712 396.577 42.192C395.929 42.648 395.605 43.308 395.605 44.172C395.605 44.772 395.737 45.264 396.001 45.648C396.289 46.032 396.781 46.392 397.477 46.728C398.173 47.064 399.217 47.448 400.609 47.88C403.081 48.672 404.929 49.656 406.153 50.832C407.377 51.984 407.989 53.64 407.989 55.8C407.989 57.336 407.605 58.692 406.837 59.868C406.069 61.02 404.953 61.932 403.489 62.604C402.025 63.252 400.309 63.576 398.341 63.576C396.373 63.576 394.621 63.264 393.085 62.64C391.549 62.016 390.229 61.164 389.125 60.084L391.825 57.096C392.785 57.912 393.781 58.536 394.813 58.968C395.845 59.376 396.973 59.58 398.197 59.58C399.493 59.58 400.525 59.28 401.293 58.68C402.085 58.08 402.481 57.24 402.481 56.16C402.481 55.488 402.337 54.936 402.049 54.504C401.785 54.048 401.317 53.64 400.645 53.28C399.973 52.92 399.001 52.548 397.729 52.164C395.017 51.324 393.073 50.316 391.897 49.14C390.745 47.964 390.169 46.428 390.169 44.532C390.169 43.14 390.541 41.916 391.285 40.86C392.029 39.78 393.061 38.952 394.381 38.376C395.701 37.8 397.201 37.512 398.881 37.512ZM426.941 38.088L426.365 42.228H420.065V63H414.773V42.228H408.149V38.088H426.941ZM440.581 63L439.177 57.42H431.365L429.961 63H424.453L432.121 38.088H438.565L446.197 63H440.581ZM432.373 53.496H438.169L435.253 42.012L432.373 53.496ZM466.84 63H460.036L452.116 43.236C452.332 44.94 452.5 46.548 452.62 48.06C452.764 49.548 452.836 51.3 452.836 53.316V63H448.048V38.088H454.708L462.772 57.888C462.292 54.672 462.052 51.72 462.052 49.032V38.088H466.84V63Z" fill="black"/>
</svg>
