<svg width="770" height="100" viewBox="0 0 770 100" fill="none" xmlns="http://www.w3.org/2000/svg">
<rect width="770" height="100" fill="#330B6A"/>
<path d="M138.05 20.7V17.0727H159.663V20.7H150.95V45H146.75V20.7H138.05ZM169.622 45.4227C167.558 45.4227 165.781 44.9818 164.29 44.1C162.808 43.2091 161.663 41.9591 160.854 40.35C160.054 38.7318 159.654 36.8364 159.654 34.6636C159.654 32.5182 160.054 30.6273 160.854 28.9909C161.663 27.3545 162.79 26.0773 164.236 25.1591C165.69 24.2409 167.39 23.7818 169.336 23.7818C170.517 23.7818 171.663 23.9773 172.772 24.3682C173.881 24.7591 174.876 25.3727 175.758 26.2091C176.64 27.0455 177.336 28.1318 177.845 29.4682C178.354 30.7955 178.608 32.4091 178.608 34.3091V35.7545H161.958V32.7H174.613C174.613 31.6273 174.395 30.6773 173.958 29.85C173.522 29.0136 172.908 28.3545 172.117 27.8727C171.336 27.3909 170.417 27.15 169.363 27.15C168.217 27.15 167.217 27.4318 166.363 27.9955C165.517 28.55 164.863 29.2773 164.399 30.1773C163.945 31.0682 163.717 32.0364 163.717 33.0818V35.4682C163.717 36.8682 163.963 38.0591 164.454 39.0409C164.954 40.0227 165.649 40.7727 166.54 41.2909C167.431 41.8 168.472 42.0545 169.663 42.0545C170.436 42.0545 171.14 41.9455 171.776 41.7273C172.413 41.5 172.963 41.1636 173.426 40.7182C173.89 40.2727 174.245 39.7227 174.49 39.0682L178.349 39.7636C178.04 40.9 177.486 41.8955 176.686 42.75C175.895 43.5955 174.899 44.2545 173.699 44.7273C172.508 45.1909 171.149 45.4227 169.622 45.4227ZM191.679 45.4227C189.616 45.4227 187.839 44.9818 186.348 44.1C184.866 43.2091 183.72 41.9591 182.911 40.35C182.111 38.7318 181.711 36.8364 181.711 34.6636C181.711 32.5182 182.111 30.6273 182.911 28.9909C183.72 27.3545 184.848 26.0773 186.293 25.1591C187.748 24.2409 189.448 23.7818 191.393 23.7818C192.575 23.7818 193.72 23.9773 194.829 24.3682C195.939 24.7591 196.934 25.3727 197.816 26.2091C198.698 27.0455 199.393 28.1318 199.902 29.4682C200.411 30.7955 200.666 32.4091 200.666 34.3091V35.7545H184.016V32.7H196.67C196.67 31.6273 196.452 30.6773 196.016 29.85C195.579 29.0136 194.966 28.3545 194.175 27.8727C193.393 27.3909 192.475 27.15 191.42 27.15C190.275 27.15 189.275 27.4318 188.42 27.9955C187.575 28.55 186.92 29.2773 186.457 30.1773C186.002 31.0682 185.775 32.0364 185.775 33.0818V35.4682C185.775 36.8682 186.02 38.0591 186.511 39.0409C187.011 40.0227 187.707 40.7727 188.598 41.2909C189.489 41.8 190.529 42.0545 191.72 42.0545C192.493 42.0545 193.198 41.9455 193.834 41.7273C194.47 41.5 195.02 41.1636 195.484 40.7182C195.948 40.2727 196.302 39.7227 196.548 39.0682L200.407 39.7636C200.098 40.9 199.543 41.8955 198.743 42.75C197.952 43.5955 196.957 44.2545 195.757 44.7273C194.566 45.1909 193.207 45.4227 191.679 45.4227ZM223.215 45.4227C221.251 45.4227 219.538 44.9727 218.074 44.0727C216.61 43.1727 215.474 41.9136 214.665 40.2955C213.856 38.6773 213.451 36.7864 213.451 34.6227C213.451 32.45 213.856 30.55 214.665 28.9227C215.474 27.2955 216.61 26.0318 218.074 25.1318C219.538 24.2318 221.251 23.7818 223.215 23.7818C225.179 23.7818 226.892 24.2318 228.356 25.1318C229.819 26.0318 230.956 27.2955 231.765 28.9227C232.574 30.55 232.979 32.45 232.979 34.6227C232.979 36.7864 232.574 38.6773 231.765 40.2955C230.956 41.9136 229.819 43.1727 228.356 44.0727C226.892 44.9727 225.179 45.4227 223.215 45.4227ZM223.229 42C224.501 42 225.556 41.6636 226.392 40.9909C227.229 40.3182 227.847 39.4227 228.247 38.3045C228.656 37.1864 228.86 35.9545 228.86 34.6091C228.86 33.2727 228.656 32.0455 228.247 30.9273C227.847 29.8 227.229 28.8955 226.392 28.2136C225.556 27.5318 224.501 27.1909 223.229 27.1909C221.947 27.1909 220.883 27.5318 220.038 28.2136C219.201 28.8955 218.579 29.8 218.169 30.9273C217.769 32.0455 217.569 33.2727 217.569 34.6091C217.569 35.9545 217.769 37.1864 218.169 38.3045C218.579 39.4227 219.201 40.3182 220.038 40.9909C220.883 41.6636 221.947 42 223.229 42ZM237.05 45V24.0545H240.963V27.4636H241.222C241.659 26.3091 242.372 25.4091 243.363 24.7636C244.354 24.1091 245.541 23.7818 246.922 23.7818C248.322 23.7818 249.495 24.1091 250.441 24.7636C251.395 25.4182 252.1 26.3182 252.554 27.4636H252.772C253.272 26.3455 254.068 25.4545 255.159 24.7909C256.25 24.1182 257.55 23.7818 259.059 23.7818C260.959 23.7818 262.509 24.3773 263.709 25.5682C264.918 26.7591 265.522 28.5545 265.522 30.9545V45H261.445V31.3364C261.445 29.9182 261.059 28.8909 260.286 28.2545C259.513 27.6182 258.591 27.3 257.518 27.3C256.191 27.3 255.159 27.7091 254.422 28.5273C253.686 29.3364 253.318 30.3773 253.318 31.65V45H249.254V31.0773C249.254 29.9409 248.9 29.0273 248.191 28.3364C247.481 27.6455 246.559 27.3 245.422 27.3C244.65 27.3 243.936 27.5045 243.281 27.9136C242.636 28.3136 242.113 28.8727 241.713 29.5909C241.322 30.3091 241.127 31.1409 241.127 32.0864V45H237.05ZM276.603 45.4636C275.275 45.4636 274.075 45.2182 273.003 44.7273C271.93 44.2273 271.08 43.5045 270.453 42.5591C269.834 41.6136 269.525 40.4545 269.525 39.0818C269.525 37.9 269.753 36.9273 270.207 36.1636C270.662 35.4 271.275 34.7955 272.048 34.35C272.821 33.9045 273.684 33.5682 274.639 33.3409C275.594 33.1136 276.566 32.9409 277.557 32.8227C278.812 32.6773 279.83 32.5591 280.612 32.4682C281.394 32.3682 281.962 32.2091 282.316 31.9909C282.671 31.7727 282.848 31.4182 282.848 30.9273V30.8318C282.848 29.6409 282.512 28.7182 281.839 28.0636C281.175 27.4091 280.184 27.0818 278.866 27.0818C277.494 27.0818 276.412 27.3864 275.621 27.9955C274.839 28.5955 274.298 29.2636 273.998 30L270.166 29.1273C270.621 27.8545 271.284 26.8273 272.157 26.0455C273.039 25.2545 274.053 24.6818 275.198 24.3273C276.344 23.9636 277.548 23.7818 278.812 23.7818C279.648 23.7818 280.534 23.8818 281.471 24.0818C282.416 24.2727 283.298 24.6273 284.116 25.1455C284.944 25.6636 285.621 26.4045 286.148 27.3682C286.675 28.3227 286.939 29.5636 286.939 31.0909V45H282.957V42.1364H282.794C282.53 42.6636 282.134 43.1818 281.607 43.6909C281.08 44.2 280.403 44.6227 279.575 44.9591C278.748 45.2955 277.757 45.4636 276.603 45.4636ZM277.489 42.1909C278.616 42.1909 279.58 41.9682 280.38 41.5227C281.189 41.0773 281.803 40.4955 282.221 39.7773C282.648 39.05 282.862 38.2727 282.862 37.4455V34.7455C282.716 34.8909 282.434 35.0273 282.016 35.1545C281.607 35.2727 281.139 35.3773 280.612 35.4682C280.084 35.55 279.571 35.6273 279.071 35.7C278.571 35.7636 278.153 35.8182 277.816 35.8636C277.025 35.9636 276.303 36.1318 275.648 36.3682C275.003 36.6045 274.484 36.9455 274.094 37.3909C273.712 37.8273 273.521 38.4091 273.521 39.1364C273.521 40.1455 273.894 40.9091 274.639 41.4273C275.384 41.9364 276.334 42.1909 277.489 42.1909ZM310.599 45.4227C308.536 45.4227 306.759 44.9818 305.268 44.1C303.786 43.2091 302.64 41.9591 301.831 40.35C301.031 38.7318 300.631 36.8364 300.631 34.6636C300.631 32.5182 301.031 30.6273 301.831 28.9909C302.64 27.3545 303.768 26.0773 305.213 25.1591C306.668 24.2409 308.368 23.7818 310.313 23.7818C311.495 23.7818 312.64 23.9773 313.749 24.3682C314.859 24.7591 315.854 25.3727 316.736 26.2091C317.618 27.0455 318.313 28.1318 318.822 29.4682C319.331 30.7955 319.586 32.4091 319.586 34.3091V35.7545H302.936V32.7H315.59C315.59 31.6273 315.372 30.6773 314.936 29.85C314.499 29.0136 313.886 28.3545 313.095 27.8727C312.313 27.3909 311.395 27.15 310.34 27.15C309.195 27.15 308.195 27.4318 307.34 27.9955C306.495 28.55 305.84 29.2773 305.377 30.1773C304.922 31.0682 304.695 32.0364 304.695 33.0818V35.4682C304.695 36.8682 304.94 38.0591 305.431 39.0409C305.931 40.0227 306.627 40.7727 307.518 41.2909C308.409 41.8 309.449 42.0545 310.64 42.0545C311.413 42.0545 312.118 41.9455 312.754 41.7273C313.39 41.5 313.94 41.1636 314.404 40.7182C314.868 40.2727 315.222 39.7227 315.468 39.0682L319.327 39.7636C319.018 40.9 318.463 41.8955 317.663 42.75C316.872 43.5955 315.877 44.2545 314.677 44.7273C313.486 45.1909 312.127 45.4227 310.599 45.4227ZM327.707 32.5636V45H323.63V24.0545H327.543V27.4636H327.802C328.284 26.3545 329.039 25.4636 330.066 24.7909C331.102 24.1182 332.407 23.7818 333.98 23.7818C335.407 23.7818 336.657 24.0818 337.73 24.6818C338.802 25.2727 339.634 26.1545 340.225 27.3273C340.816 28.5 341.111 29.95 341.111 31.6773V45H337.034V32.1682C337.034 30.65 336.639 29.4636 335.848 28.6091C335.057 27.7455 333.971 27.3136 332.589 27.3136C331.643 27.3136 330.802 27.5182 330.066 27.9273C329.339 28.3364 328.761 28.9364 328.334 29.7273C327.916 30.5091 327.707 31.4545 327.707 32.5636ZM350.177 32.5636V45H346.1V24.0545H350.013V27.4636H350.272C350.754 26.3545 351.509 25.4636 352.536 24.7909C353.572 24.1182 354.877 23.7818 356.45 23.7818C357.877 23.7818 359.127 24.0818 360.2 24.6818C361.272 25.2727 362.104 26.1545 362.695 27.3273C363.286 28.5 363.581 29.95 363.581 31.6773V45H359.504V32.1682C359.504 30.65 359.109 29.4636 358.318 28.6091C357.527 27.7455 356.441 27.3136 355.059 27.3136C354.113 27.3136 353.272 27.5182 352.536 27.9273C351.809 28.3364 351.231 28.9364 350.804 29.7273C350.386 30.5091 350.177 31.4545 350.177 32.5636ZM381.838 36.3136V24.0545H385.929V45H381.92V41.3727H381.701C381.22 42.4909 380.447 43.4227 379.383 44.1682C378.329 44.9045 377.015 45.2727 375.442 45.2727C374.097 45.2727 372.906 44.9773 371.87 44.3864C370.842 43.7864 370.033 42.9 369.442 41.7273C368.861 40.5545 368.57 39.1045 368.57 37.3773V24.0545H372.647V36.8864C372.647 38.3136 373.042 39.45 373.833 40.2955C374.624 41.1409 375.651 41.5636 376.915 41.5636C377.679 41.5636 378.438 41.3727 379.192 40.9909C379.956 40.6091 380.588 40.0318 381.088 39.2591C381.597 38.4864 381.847 37.5045 381.838 36.3136ZM406.623 29.1682L402.927 29.8227C402.773 29.35 402.527 28.9 402.191 28.4727C401.864 28.0455 401.418 27.6955 400.854 27.4227C400.291 27.15 399.586 27.0136 398.741 27.0136C397.586 27.0136 396.623 27.2727 395.85 27.7909C395.077 28.3 394.691 28.9591 394.691 29.7682C394.691 30.4682 394.95 31.0318 395.468 31.4591C395.986 31.8864 396.823 32.2364 397.977 32.5091L401.304 33.2727C403.232 33.7182 404.668 34.4045 405.614 35.3318C406.559 36.2591 407.032 37.4636 407.032 38.9455C407.032 40.2 406.668 41.3182 405.941 42.3C405.223 43.2727 404.218 44.0364 402.927 44.5909C401.645 45.1455 400.159 45.4227 398.468 45.4227C396.123 45.4227 394.209 44.9227 392.727 43.9227C391.245 42.9136 390.336 41.4818 390 39.6273L393.941 39.0273C394.186 40.0545 394.691 40.8318 395.454 41.3591C396.218 41.8773 397.214 42.1364 398.441 42.1364C399.777 42.1364 400.845 41.8591 401.645 41.3045C402.445 40.7409 402.845 40.0545 402.845 39.2455C402.845 38.5909 402.6 38.0409 402.109 37.5955C401.627 37.15 400.886 36.8136 399.886 36.5864L396.341 35.8091C394.386 35.3636 392.941 34.6545 392.004 33.6818C391.077 32.7091 390.614 31.4773 390.614 29.9864C390.614 28.75 390.959 27.6682 391.65 26.7409C392.341 25.8136 393.295 25.0909 394.514 24.5727C395.732 24.0455 397.127 23.7818 398.7 23.7818C400.964 23.7818 402.745 24.2727 404.045 25.2545C405.345 26.2273 406.204 27.5318 406.623 29.1682ZM420.812 24.0545V27.3273H409.371V24.0545H420.812ZM412.439 19.0364H416.516V38.85C416.516 39.6409 416.635 40.2364 416.871 40.6364C417.107 41.0273 417.412 41.2955 417.785 41.4409C418.166 41.5773 418.58 41.6455 419.026 41.6455C419.353 41.6455 419.639 41.6227 419.885 41.5773C420.13 41.5318 420.321 41.4955 420.457 41.4682L421.194 44.8364C420.957 44.9273 420.621 45.0182 420.185 45.1091C419.748 45.2091 419.203 45.2636 418.548 45.2727C417.476 45.2909 416.476 45.1 415.548 44.7C414.621 44.3 413.871 43.6818 413.298 42.8455C412.726 42.0091 412.439 40.9591 412.439 39.6955V19.0364ZM438.11 36.3136V24.0545H442.201V45H438.192V41.3727H437.974C437.492 42.4909 436.719 43.4227 435.656 44.1682C434.601 44.9045 433.288 45.2727 431.715 45.2727C430.369 45.2727 429.179 44.9773 428.142 44.3864C427.115 43.7864 426.306 42.9 425.715 41.7273C425.133 40.5545 424.842 39.1045 424.842 37.3773V24.0545H428.919V36.8864C428.919 38.3136 429.315 39.45 430.106 40.2955C430.897 41.1409 431.924 41.5636 433.188 41.5636C433.951 41.5636 434.71 41.3727 435.465 40.9909C436.229 40.6091 436.86 40.0318 437.36 39.2591C437.869 38.4864 438.119 37.5045 438.11 36.3136ZM462.895 29.1682L459.2 29.8227C459.045 29.35 458.8 28.9 458.463 28.4727C458.136 28.0455 457.691 27.6955 457.127 27.4227C456.563 27.15 455.859 27.0136 455.013 27.0136C453.859 27.0136 452.895 27.2727 452.122 27.7909C451.35 28.3 450.963 28.9591 450.963 29.7682C450.963 30.4682 451.222 31.0318 451.741 31.4591C452.259 31.8864 453.095 32.2364 454.25 32.5091L457.577 33.2727C459.504 33.7182 460.941 34.4045 461.886 35.3318C462.831 36.2591 463.304 37.4636 463.304 38.9455C463.304 40.2 462.941 41.3182 462.213 42.3C461.495 43.2727 460.491 44.0364 459.2 44.5909C457.918 45.1455 456.431 45.4227 454.741 45.4227C452.395 45.4227 450.481 44.9227 449 43.9227C447.518 42.9136 446.609 41.4818 446.272 39.6273L450.213 39.0273C450.459 40.0545 450.963 40.8318 451.727 41.3591C452.491 41.8773 453.486 42.1364 454.713 42.1364C456.05 42.1364 457.118 41.8591 457.918 41.3045C458.718 40.7409 459.118 40.0545 459.118 39.2455C459.118 38.5909 458.872 38.0409 458.381 37.5955C457.9 37.15 457.159 36.8136 456.159 36.5864L452.613 35.8091C450.659 35.3636 449.213 34.6545 448.277 33.6818C447.35 32.7091 446.886 31.4773 446.886 29.9864C446.886 28.75 447.231 27.6682 447.922 26.7409C448.613 25.8136 449.568 25.0909 450.786 24.5727C452.004 24.0455 453.4 23.7818 454.972 23.7818C457.236 23.7818 459.018 24.2727 460.318 25.2545C461.618 26.2273 462.477 27.5318 462.895 29.1682ZM476.99 24.0545H481.067V46.3636C481.067 47.7636 480.812 48.9455 480.303 49.9091C479.803 50.8727 479.058 51.6045 478.067 52.1045C477.085 52.6045 475.872 52.8545 474.426 52.8545C474.281 52.8545 474.144 52.8545 474.017 52.8545C473.881 52.8545 473.74 52.85 473.594 52.8409V49.3364C473.722 49.3364 473.835 49.3364 473.935 49.3364C474.026 49.3364 474.131 49.3364 474.249 49.3364C475.212 49.3364 475.908 49.0773 476.335 48.5591C476.772 48.05 476.99 47.3091 476.99 46.3364V24.0545ZM479.008 20.8227C478.299 20.8227 477.69 20.5864 477.181 20.1136C476.681 19.6318 476.431 19.0591 476.431 18.3955C476.431 17.7227 476.681 17.15 477.181 16.6773C477.69 16.1955 478.299 15.9545 479.008 15.9545C479.717 15.9545 480.322 16.1955 480.822 16.6773C481.331 17.15 481.585 17.7227 481.585 18.3955C481.585 19.0591 481.331 19.6318 480.822 20.1136C480.322 20.5864 479.717 20.8227 479.008 20.8227ZM492.168 45.4636C490.84 45.4636 489.64 45.2182 488.568 44.7273C487.495 44.2273 486.645 43.5045 486.018 42.5591C485.399 41.6136 485.09 40.4545 485.09 39.0818C485.09 37.9 485.318 36.9273 485.772 36.1636C486.227 35.4 486.84 34.7955 487.613 34.35C488.386 33.9045 489.249 33.5682 490.204 33.3409C491.159 33.1136 492.131 32.9409 493.122 32.8227C494.377 32.6773 495.395 32.5591 496.177 32.4682C496.959 32.3682 497.527 32.2091 497.881 31.9909C498.236 31.7727 498.413 31.4182 498.413 30.9273V30.8318C498.413 29.6409 498.077 28.7182 497.404 28.0636C496.74 27.4091 495.749 27.0818 494.431 27.0818C493.059 27.0818 491.977 27.3864 491.186 27.9955C490.404 28.5955 489.863 29.2636 489.563 30L485.731 29.1273C486.186 27.8545 486.849 26.8273 487.722 26.0455C488.604 25.2545 489.618 24.6818 490.763 24.3273C491.909 23.9636 493.113 23.7818 494.377 23.7818C495.213 23.7818 496.099 23.8818 497.036 24.0818C497.981 24.2727 498.863 24.6273 499.681 25.1455C500.509 25.6636 501.186 26.4045 501.713 27.3682C502.24 28.3227 502.504 29.5636 502.504 31.0909V45H498.522V42.1364H498.359C498.095 42.6636 497.699 43.1818 497.172 43.6909C496.645 44.2 495.968 44.6227 495.14 44.9591C494.313 45.2955 493.322 45.4636 492.168 45.4636ZM493.054 42.1909C494.181 42.1909 495.145 41.9682 495.945 41.5227C496.754 41.0773 497.368 40.4955 497.786 39.7773C498.213 39.05 498.427 38.2727 498.427 37.4455V34.7455C498.281 34.8909 497.999 35.0273 497.581 35.1545C497.172 35.2727 496.704 35.3773 496.177 35.4682C495.649 35.55 495.136 35.6273 494.636 35.7C494.136 35.7636 493.718 35.8182 493.381 35.8636C492.59 35.9636 491.868 36.1318 491.213 36.3682C490.568 36.6045 490.049 36.9455 489.659 37.3909C489.277 37.8273 489.086 38.4091 489.086 39.1364C489.086 40.1455 489.459 40.9091 490.204 41.4273C490.949 41.9364 491.899 42.1909 493.054 42.1909ZM525.96 45.4227C523.996 45.4227 522.283 44.9727 520.819 44.0727C519.355 43.1727 518.219 41.9136 517.41 40.2955C516.601 38.6773 516.196 36.7864 516.196 34.6227C516.196 32.45 516.601 30.55 517.41 28.9227C518.219 27.2955 519.355 26.0318 520.819 25.1318C522.283 24.2318 523.996 23.7818 525.96 23.7818C527.924 23.7818 529.637 24.2318 531.101 25.1318C532.564 26.0318 533.701 27.2955 534.51 28.9227C535.319 30.55 535.724 32.45 535.724 34.6227C535.724 36.7864 535.319 38.6773 534.51 40.2955C533.701 41.9136 532.564 43.1727 531.101 44.0727C529.637 44.9727 527.924 45.4227 525.96 45.4227ZM525.974 42C527.246 42 528.301 41.6636 529.137 40.9909C529.974 40.3182 530.592 39.4227 530.992 38.3045C531.401 37.1864 531.605 35.9545 531.605 34.6091C531.605 33.2727 531.401 32.0455 530.992 30.9273C530.592 29.8 529.974 28.8955 529.137 28.2136C528.301 27.5318 527.246 27.1909 525.974 27.1909C524.692 27.1909 523.628 27.5318 522.783 28.2136C521.946 28.8955 521.324 29.8 520.914 30.9273C520.514 32.0455 520.314 33.2727 520.314 34.6091C520.314 35.9545 520.514 37.1864 520.914 38.3045C521.324 39.4227 521.946 40.3182 522.783 40.9909C523.628 41.6636 524.692 42 525.974 42ZM555.49 29.1682L551.795 29.8227C551.64 29.35 551.395 28.9 551.058 28.4727C550.731 28.0455 550.286 27.6955 549.722 27.4227C549.158 27.15 548.454 27.0136 547.608 27.0136C546.454 27.0136 545.49 27.2727 544.717 27.7909C543.945 28.3 543.558 28.9591 543.558 29.7682C543.558 30.4682 543.817 31.0318 544.336 31.4591C544.854 31.8864 545.69 32.2364 546.845 32.5091L550.172 33.2727C552.099 33.7182 553.536 34.4045 554.481 35.3318C555.427 36.2591 555.899 37.4636 555.899 38.9455C555.899 40.2 555.536 41.3182 554.808 42.3C554.09 43.2727 553.086 44.0364 551.795 44.5909C550.513 45.1455 549.027 45.4227 547.336 45.4227C544.99 45.4227 543.076 44.9227 541.595 43.9227C540.113 42.9136 539.204 41.4818 538.867 39.6273L542.808 39.0273C543.054 40.0545 543.558 40.8318 544.322 41.3591C545.086 41.8773 546.081 42.1364 547.308 42.1364C548.645 42.1364 549.713 41.8591 550.513 41.3045C551.313 40.7409 551.713 40.0545 551.713 39.2455C551.713 38.5909 551.467 38.0409 550.977 37.5955C550.495 37.15 549.754 36.8136 548.754 36.5864L545.208 35.8091C543.254 35.3636 541.808 34.6545 540.872 33.6818C539.945 32.7091 539.481 31.4773 539.481 29.9864C539.481 28.75 539.826 27.6682 540.517 26.7409C541.208 25.8136 542.163 25.0909 543.381 24.5727C544.599 24.0455 545.995 23.7818 547.567 23.7818C549.831 23.7818 551.613 24.2727 552.913 25.2545C554.213 26.2273 555.072 27.5318 555.49 29.1682ZM565.998 45.4636C564.67 45.4636 563.47 45.2182 562.398 44.7273C561.325 44.2273 560.475 43.5045 559.848 42.5591C559.229 41.6136 558.92 40.4545 558.92 39.0818C558.92 37.9 559.148 36.9273 559.602 36.1636C560.057 35.4 560.67 34.7955 561.443 34.35C562.216 33.9045 563.079 33.5682 564.034 33.3409C564.989 33.1136 565.961 32.9409 566.952 32.8227C568.207 32.6773 569.225 32.5591 570.007 32.4682C570.789 32.3682 571.357 32.2091 571.711 31.9909C572.066 31.7727 572.243 31.4182 572.243 30.9273V30.8318C572.243 29.6409 571.907 28.7182 571.234 28.0636C570.57 27.4091 569.579 27.0818 568.261 27.0818C566.889 27.0818 565.807 27.3864 565.016 27.9955C564.234 28.5955 563.693 29.2636 563.393 30L559.561 29.1273C560.016 27.8545 560.679 26.8273 561.552 26.0455C562.434 25.2545 563.448 24.6818 564.593 24.3273C565.739 23.9636 566.943 23.7818 568.207 23.7818C569.043 23.7818 569.929 23.8818 570.866 24.0818C571.811 24.2727 572.693 24.6273 573.511 25.1455C574.339 25.6636 575.016 26.4045 575.543 27.3682C576.07 28.3227 576.334 29.5636 576.334 31.0909V45H572.352V42.1364H572.189C571.925 42.6636 571.529 43.1818 571.002 43.6909C570.475 44.2 569.798 44.6227 568.97 44.9591C568.143 45.2955 567.152 45.4636 565.998 45.4636ZM566.884 42.1909C568.011 42.1909 568.975 41.9682 569.775 41.5227C570.584 41.0773 571.198 40.4955 571.616 39.7773C572.043 39.05 572.257 38.2727 572.257 37.4455V34.7455C572.111 34.8909 571.829 35.0273 571.411 35.1545C571.002 35.2727 570.534 35.3773 570.007 35.4682C569.479 35.55 568.966 35.6273 568.466 35.7C567.966 35.7636 567.548 35.8182 567.211 35.8636C566.42 35.9636 565.698 36.1318 565.043 36.3682C564.398 36.6045 563.879 36.9455 563.489 37.3909C563.107 37.8273 562.916 38.4091 562.916 39.1364C562.916 40.1455 563.289 40.9091 564.034 41.4273C564.779 41.9364 565.729 42.1909 566.884 42.1909ZM585.362 17.0727V45H581.285V17.0727H585.362ZM599.394 45.4227C597.331 45.4227 595.554 44.9818 594.063 44.1C592.581 43.2091 591.435 41.9591 590.626 40.35C589.826 38.7318 589.426 36.8364 589.426 34.6636C589.426 32.5182 589.826 30.6273 590.626 28.9909C591.435 27.3545 592.563 26.0773 594.008 25.1591C595.463 24.2409 597.163 23.7818 599.108 23.7818C600.29 23.7818 601.435 23.9773 602.544 24.3682C603.654 24.7591 604.649 25.3727 605.531 26.2091C606.413 27.0455 607.108 28.1318 607.617 29.4682C608.126 30.7955 608.381 32.4091 608.381 34.3091V35.7545H591.731V32.7H604.385C604.385 31.6273 604.167 30.6773 603.731 29.85C603.294 29.0136 602.681 28.3545 601.89 27.8727C601.108 27.3909 600.19 27.15 599.135 27.15C597.99 27.15 596.99 27.4318 596.135 27.9955C595.29 28.55 594.635 29.2773 594.172 30.1773C593.717 31.0682 593.49 32.0364 593.49 33.0818V35.4682C593.49 36.8682 593.735 38.0591 594.226 39.0409C594.726 40.0227 595.422 40.7727 596.313 41.2909C597.204 41.8 598.244 42.0545 599.435 42.0545C600.208 42.0545 600.913 41.9455 601.549 41.7273C602.185 41.5 602.735 41.1636 603.199 40.7182C603.663 40.2727 604.017 39.7227 604.263 39.0682L608.122 39.7636C607.813 40.9 607.258 41.8955 606.458 42.75C605.667 43.5955 604.672 44.2545 603.472 44.7273C602.281 45.1909 600.922 45.4227 599.394 45.4227ZM620.266 45.4091C618.575 45.4091 617.066 44.9773 615.738 44.1136C614.42 43.2409 613.384 42 612.629 40.3909C611.884 38.7727 611.511 36.8318 611.511 34.5682C611.511 32.3045 611.888 30.3682 612.643 28.7591C613.407 27.15 614.452 25.9182 615.779 25.0636C617.107 24.2091 618.611 23.7818 620.293 23.7818C621.593 23.7818 622.638 24 623.429 24.4364C624.229 24.8636 624.847 25.3636 625.284 25.9364C625.729 26.5091 626.075 27.0136 626.32 27.45H626.566V17.0727H630.643V45H626.661V41.7409H626.32C626.075 42.1864 625.72 42.6955 625.257 43.2682C624.802 43.8409 624.175 44.3409 623.375 44.7682C622.575 45.1955 621.538 45.4091 620.266 45.4091ZM621.166 41.9318C622.338 41.9318 623.329 41.6227 624.138 41.0045C624.957 40.3773 625.575 39.5091 625.993 38.4C626.42 37.2909 626.634 36 626.634 34.5273C626.634 33.0727 626.425 31.8 626.007 30.7091C625.588 29.6182 624.975 28.7682 624.166 28.1591C623.357 27.55 622.357 27.2455 621.166 27.2455C619.938 27.2455 618.916 27.5636 618.097 28.2C617.279 28.8364 616.661 29.7045 616.243 30.8045C615.834 31.9045 615.629 33.1455 615.629 34.5273C615.629 35.9273 615.838 37.1864 616.257 38.3045C616.675 39.4227 617.293 40.3091 618.111 40.9636C618.938 41.6091 619.957 41.9318 621.166 41.9318Z" fill="#F5FCC4"/>
<path d="M247.091 83.3818C245.164 83.3818 243.446 83.0273 241.937 82.3182C240.437 81.6091 239.246 80.6318 238.364 79.3864C237.482 78.1409 237.023 76.7136 236.987 75.1045H242.714C242.778 76.1864 243.232 77.0636 244.078 77.7364C244.923 78.4091 245.928 78.7455 247.091 78.7455C248.018 78.7455 248.837 78.5409 249.546 78.1318C250.264 77.7136 250.823 77.1364 251.223 76.4C251.632 75.6545 251.837 74.8 251.837 73.8364C251.837 72.8545 251.628 71.9909 251.209 71.2455C250.8 70.5 250.232 69.9182 249.505 69.5C248.778 69.0818 247.946 68.8682 247.009 68.8591C246.191 68.8591 245.396 69.0273 244.623 69.3636C243.859 69.7 243.264 70.1591 242.837 70.7409L237.587 69.8L238.909 55.0727H255.982V59.9H243.778L243.055 66.8955H243.218C243.709 66.2045 244.45 65.6318 245.441 65.1773C246.432 64.7227 247.541 64.4955 248.768 64.4955C250.45 64.4955 251.95 64.8909 253.268 65.6818C254.587 66.4727 255.628 67.5591 256.391 68.9409C257.155 70.3136 257.532 71.8955 257.523 73.6864C257.532 75.5682 257.096 77.2409 256.214 78.7045C255.341 80.1591 254.118 81.3045 252.546 82.1409C250.982 82.9682 249.164 83.3818 247.091 83.3818ZM286.71 79.1273L270.414 62.8591L273.987 59.2455L290.296 75.5545L286.71 79.1273ZM273.987 79.1273L270.414 75.5545L286.71 59.2455L290.296 62.8591L273.987 79.1273ZM315.746 55.0727V83H309.842V60.6773H309.678L303.283 64.6864V59.45L310.196 55.0727H315.746ZM332.854 83.6136C330.508 83.6045 328.49 83.0273 326.799 81.8818C325.117 80.7364 323.822 79.0773 322.913 76.9045C322.013 74.7318 321.567 72.1182 321.576 69.0636C321.576 66.0182 322.026 63.4227 322.926 61.2773C323.835 59.1318 325.131 57.5 326.813 56.3818C328.504 55.2545 330.517 54.6909 332.854 54.6909C335.19 54.6909 337.199 55.2545 338.881 56.3818C340.572 57.5091 341.872 59.1455 342.781 61.2909C343.69 63.4273 344.14 66.0182 344.131 69.0636C344.131 72.1273 343.676 74.7455 342.767 76.9182C341.867 79.0909 340.576 80.75 338.895 81.8955C337.213 83.0409 335.199 83.6136 332.854 83.6136ZM332.854 78.7182C334.454 78.7182 335.731 77.9136 336.685 76.3045C337.64 74.6955 338.113 72.2818 338.104 69.0636C338.104 66.9455 337.885 65.1818 337.449 63.7727C337.022 62.3636 336.413 61.3045 335.622 60.5955C334.84 59.8864 333.917 59.5318 332.854 59.5318C331.263 59.5318 329.99 60.3273 329.035 61.9182C328.081 63.5091 327.599 65.8909 327.59 69.0636C327.59 71.2091 327.804 73 328.231 74.4364C328.667 75.8636 329.281 76.9364 330.072 77.6545C330.863 78.3636 331.79 78.7182 332.854 78.7182ZM358.811 83.6136C356.466 83.6045 354.448 83.0273 352.757 81.8818C351.075 80.7364 349.779 79.0773 348.87 76.9045C347.97 74.7318 347.525 72.1182 347.534 69.0636C347.534 66.0182 347.984 63.4227 348.884 61.2773C349.793 59.1318 351.088 57.5 352.77 56.3818C354.461 55.2545 356.475 54.6909 358.811 54.6909C361.148 54.6909 363.157 55.2545 364.838 56.3818C366.529 57.5091 367.829 59.1455 368.738 61.2909C369.648 63.4273 370.098 66.0182 370.088 69.0636C370.088 72.1273 369.634 74.7455 368.725 76.9182C367.825 79.0909 366.534 80.75 364.852 81.8955C363.17 83.0409 361.157 83.6136 358.811 83.6136ZM358.811 78.7182C360.411 78.7182 361.688 77.9136 362.643 76.3045C363.598 74.6955 364.07 72.2818 364.061 69.0636C364.061 66.9455 363.843 65.1818 363.407 63.7727C362.979 62.3636 362.37 61.3045 361.579 60.5955C360.798 59.8864 359.875 59.5318 358.811 59.5318C357.22 59.5318 355.948 60.3273 354.993 61.9182C354.038 63.5091 353.557 65.8909 353.548 69.0636C353.548 71.2091 353.761 73 354.188 74.4364C354.625 75.8636 355.238 76.9364 356.029 77.6545C356.82 78.3636 357.748 78.7182 358.811 78.7182ZM400.663 64.6864L399.313 67.6727H381.081L382.185 64.6864H400.663ZM398.058 70.4L396.572 73.4545H381.081L382.185 70.4H398.058ZM404.208 57.2273L402.026 61.8909C401.663 61.6364 401.222 61.3591 400.703 61.0591C400.194 60.75 399.608 60.4909 398.944 60.2818C398.29 60.0636 397.563 59.9545 396.763 59.9545C395.499 59.9545 394.399 60.2727 393.463 60.9091C392.526 61.5455 391.799 62.5364 391.281 63.8818C390.772 65.2273 390.517 66.9545 390.517 69.0636C390.517 71.1909 390.772 72.9227 391.281 74.2591C391.799 75.5864 392.526 76.5636 393.463 77.1909C394.399 77.8091 395.499 78.1182 396.763 78.1182C397.563 78.1182 398.29 78.0136 398.944 77.8045C399.599 77.5955 400.172 77.3455 400.663 77.0545C401.163 76.7636 401.581 76.4955 401.917 76.25L404.126 80.9136C403.135 81.7318 402.013 82.35 400.758 82.7682C399.503 83.1773 398.172 83.3818 396.763 83.3818C394.381 83.3818 392.272 82.8182 390.435 81.6909C388.608 80.5545 387.176 78.9227 386.14 76.7955C385.103 74.6591 384.585 72.0818 384.585 69.0636C384.585 66.0545 385.103 63.4773 386.14 61.3318C387.176 59.1864 388.608 57.5455 390.435 56.4091C392.272 55.2636 394.381 54.6909 396.763 54.6909C398.226 54.6909 399.581 54.9091 400.826 55.3455C402.072 55.7818 403.199 56.4091 404.208 57.2273ZM422.38 55.0727V83H416.571V55.0727H422.38ZM436.017 83.4091C433.899 83.4091 432.067 82.9591 430.521 82.0591C428.985 81.15 427.799 79.8864 426.962 78.2682C426.126 76.6409 425.708 74.7545 425.708 72.6091C425.708 70.4455 426.126 68.5545 426.962 66.9364C427.799 65.3091 428.985 64.0455 430.521 63.1455C432.067 62.2364 433.899 61.7818 436.017 61.7818C438.135 61.7818 439.962 62.2364 441.499 63.1455C443.044 64.0455 444.235 65.3091 445.071 66.9364C445.908 68.5545 446.326 70.4455 446.326 72.6091C446.326 74.7545 445.908 76.6409 445.071 78.2682C444.235 79.8864 443.044 81.15 441.499 82.0591C439.962 82.9591 438.135 83.4091 436.017 83.4091ZM436.044 78.9091C437.008 78.9091 437.812 78.6364 438.458 78.0909C439.103 77.5364 439.59 76.7818 439.917 75.8273C440.253 74.8727 440.421 73.7864 440.421 72.5682C440.421 71.35 440.253 70.2636 439.917 69.3091C439.59 68.3545 439.103 67.6 438.458 67.0455C437.812 66.4909 437.008 66.2136 436.044 66.2136C435.071 66.2136 434.253 66.4909 433.59 67.0455C432.935 67.6 432.44 68.3545 432.103 69.3091C431.776 70.2636 431.612 71.35 431.612 72.5682C431.612 73.7864 431.776 74.8727 432.103 75.8273C432.44 76.7818 432.935 77.5364 433.59 78.0909C434.253 78.6364 435.071 78.9091 436.044 78.9091ZM459.087 83.4091C456.969 83.4091 455.137 82.9591 453.591 82.0591C452.055 81.15 450.869 79.8864 450.032 78.2682C449.196 76.6409 448.778 74.7545 448.778 72.6091C448.778 70.4455 449.196 68.5545 450.032 66.9364C450.869 65.3091 452.055 64.0455 453.591 63.1455C455.137 62.2364 456.969 61.7818 459.087 61.7818C461.205 61.7818 463.032 62.2364 464.569 63.1455C466.114 64.0455 467.305 65.3091 468.141 66.9364C468.978 68.5545 469.396 70.4455 469.396 72.6091C469.396 74.7545 468.978 76.6409 468.141 78.2682C467.305 79.8864 466.114 81.15 464.569 82.0591C463.032 82.9591 461.205 83.4091 459.087 83.4091ZM459.114 78.9091C460.078 78.9091 460.882 78.6364 461.528 78.0909C462.173 77.5364 462.66 76.7818 462.987 75.8273C463.323 74.8727 463.491 73.7864 463.491 72.5682C463.491 71.35 463.323 70.2636 462.987 69.3091C462.66 68.3545 462.173 67.6 461.528 67.0455C460.882 66.4909 460.078 66.2136 459.114 66.2136C458.141 66.2136 457.323 66.4909 456.66 67.0455C456.005 67.6 455.51 68.3545 455.173 69.3091C454.846 70.2636 454.682 71.35 454.682 72.5682C454.682 73.7864 454.846 74.8727 455.173 75.8273C455.51 76.7818 456.005 77.5364 456.66 78.0909C457.323 78.6364 458.141 78.9091 459.114 78.9091ZM490.12 68.0273L484.802 68.3545C484.711 67.9 484.516 67.4909 484.216 67.1273C483.916 66.7545 483.52 66.4591 483.03 66.2409C482.548 66.0136 481.97 65.9 481.298 65.9C480.398 65.9 479.639 66.0909 479.02 66.4727C478.402 66.8455 478.093 67.3455 478.093 67.9727C478.093 68.4727 478.293 68.8955 478.693 69.2409C479.093 69.5864 479.78 69.8636 480.752 70.0727L484.543 70.8364C486.58 71.2545 488.098 71.9273 489.098 72.8545C490.098 73.7818 490.598 75 490.598 76.5091C490.598 77.8818 490.193 79.0864 489.384 80.1227C488.584 81.1591 487.484 81.9682 486.084 82.55C484.693 83.1227 483.089 83.4091 481.27 83.4091C478.498 83.4091 476.289 82.8318 474.643 81.6773C473.007 80.5136 472.048 78.9318 471.766 76.9318L477.48 76.6318C477.652 77.4773 478.07 78.1227 478.734 78.5682C479.398 79.0045 480.248 79.2227 481.284 79.2227C482.302 79.2227 483.12 79.0273 483.739 78.6364C484.366 78.2364 484.684 77.7227 484.693 77.0955C484.684 76.5682 484.461 76.1364 484.025 75.8C483.589 75.4545 482.916 75.1909 482.007 75.0091L478.38 74.2864C476.334 73.8773 474.811 73.1682 473.811 72.1591C472.82 71.15 472.325 69.8636 472.325 68.3C472.325 66.9545 472.689 65.7955 473.416 64.8227C474.152 63.85 475.184 63.1 476.511 62.5727C477.848 62.0455 479.411 61.7818 481.202 61.7818C483.848 61.7818 485.93 62.3409 487.448 63.4591C488.975 64.5773 489.866 66.1 490.12 68.0273ZM493.776 83V62.0545H499.585V83H493.776ZM496.694 59.3545C495.83 59.3545 495.089 59.0682 494.471 58.4955C493.862 57.9136 493.558 57.2182 493.558 56.4091C493.558 55.6091 493.862 54.9227 494.471 54.35C495.089 53.7682 495.83 53.4773 496.694 53.4773C497.558 53.4773 498.294 53.7682 498.903 54.35C499.521 54.9227 499.83 55.6091 499.83 56.4091C499.83 57.2182 499.521 57.9136 498.903 58.4955C498.294 59.0682 497.558 59.3545 496.694 59.3545ZM521.185 68.0273L515.867 68.3545C515.776 67.9 515.581 67.4909 515.281 67.1273C514.981 66.7545 514.585 66.4591 514.095 66.2409C513.613 66.0136 513.035 65.9 512.363 65.9C511.463 65.9 510.704 66.0909 510.085 66.4727C509.467 66.8455 509.158 67.3455 509.158 67.9727C509.158 68.4727 509.358 68.8955 509.758 69.2409C510.158 69.5864 510.845 69.8636 511.817 70.0727L515.608 70.8364C517.645 71.2545 519.163 71.9273 520.163 72.8545C521.163 73.7818 521.663 75 521.663 76.5091C521.663 77.8818 521.258 79.0864 520.449 80.1227C519.649 81.1591 518.549 81.9682 517.149 82.55C515.758 83.1227 514.154 83.4091 512.335 83.4091C509.563 83.4091 507.354 82.8318 505.708 81.6773C504.072 80.5136 503.113 78.9318 502.831 76.9318L508.545 76.6318C508.717 77.4773 509.135 78.1227 509.799 78.5682C510.463 79.0045 511.313 79.2227 512.349 79.2227C513.367 79.2227 514.185 79.0273 514.804 78.6364C515.431 78.2364 515.749 77.7227 515.758 77.0955C515.749 76.5682 515.526 76.1364 515.09 75.8C514.654 75.4545 513.981 75.1909 513.072 75.0091L509.445 74.2864C507.399 73.8773 505.876 73.1682 504.876 72.1591C503.885 71.15 503.39 69.8636 503.39 68.3C503.39 66.9545 503.754 65.7955 504.481 64.8227C505.217 63.85 506.249 63.1 507.576 62.5727C508.913 62.0455 510.476 61.7818 512.267 61.7818C514.913 61.7818 516.995 62.3409 518.513 63.4591C520.04 64.5773 520.931 66.1 521.185 68.0273ZM531.782 55.0727L531.25 74.6273H526.259L525.713 55.0727H531.782ZM528.754 83.3545C527.854 83.3545 527.082 83.0364 526.436 82.4C525.791 81.7545 525.473 80.9818 525.482 80.0818C525.473 79.1909 525.791 78.4273 526.436 77.7909C527.082 77.1545 527.854 76.8364 528.754 76.8364C529.618 76.8364 530.377 77.1545 531.032 77.7909C531.686 78.4273 532.018 79.1909 532.027 80.0818C532.018 80.6818 531.859 81.2318 531.55 81.7318C531.25 82.2227 530.854 82.6182 530.363 82.9182C529.873 83.2091 529.336 83.3545 528.754 83.3545Z" fill="#D7FF00"/>
</svg>
