<svg width="770" height="100" viewBox="0 0 770 100" fill="none" xmlns="http://www.w3.org/2000/svg">
<rect width="770" height="100" fill="#330B6A"/>
<path d="M54.7387 33.9598V66.228H47.1024V33.9598H54.7387ZM73.2708 33.9598L62.9804 48.4409L74.1089 66.228H65.262L54.9715 48.9997L65.2154 33.9598H73.2708ZM97.7506 53.3766C97.7506 54.401 97.704 55.2857 97.6109 56.0307H82.2917C82.54 58.1105 83.1298 59.5695 84.0611 60.4076C84.9923 61.2458 86.2806 61.6648 87.9258 61.6648C88.9191 61.6648 89.8814 61.4941 90.8127 61.1527C91.744 60.7802 92.7528 60.2214 93.8393 59.4764L96.8659 63.5739C93.979 65.871 90.7661 67.0196 87.2273 67.0196C83.2229 67.0196 80.1498 65.84 78.0079 63.4808C75.866 61.1216 74.795 57.9553 74.795 53.9819C74.795 51.4675 75.2451 49.217 76.1453 47.2303C77.0456 45.2126 78.3648 43.6294 80.1032 42.4809C81.8416 41.3013 83.9214 40.7115 86.3427 40.7115C89.9125 40.7115 92.7063 41.829 94.724 44.064C96.7417 46.299 97.7506 49.4032 97.7506 53.3766ZM90.5333 51.2813C90.4712 47.4942 89.1364 45.6006 86.5289 45.6006C85.2562 45.6006 84.2628 46.0662 83.5489 46.9975C82.8659 47.9288 82.4469 49.4653 82.2917 51.6072H90.5333V51.2813ZM111.173 40.7115C112.942 40.7115 114.603 40.9753 116.155 41.5031C117.707 42.0308 119.073 42.7758 120.253 43.7381L117.552 47.8822C115.534 46.6095 113.501 45.9731 111.452 45.9731C110.49 45.9731 109.745 46.1438 109.217 46.4853C108.72 46.7957 108.472 47.2458 108.472 47.8356C108.472 48.3013 108.581 48.6893 108.798 48.9997C109.046 49.2791 109.528 49.574 110.241 49.8844C110.955 50.1948 112.057 50.5673 113.547 51.0019C116.124 51.7469 118.033 52.7247 119.275 53.9354C120.547 55.115 121.184 56.7602 121.184 58.8711C121.184 60.5473 120.703 62.0063 119.74 63.248C118.778 64.4586 117.459 65.3899 115.782 66.0418C114.106 66.6937 112.244 67.0196 110.195 67.0196C108.115 67.0196 106.175 66.6937 104.375 66.0418C102.605 65.3899 101.1 64.4897 99.8579 63.3411L103.443 59.3367C105.523 60.9509 107.712 61.758 110.009 61.758C111.126 61.758 111.995 61.5562 112.616 61.1527C113.268 60.7491 113.594 60.1748 113.594 59.4298C113.594 58.84 113.47 58.3744 113.222 58.0329C112.973 57.6915 112.492 57.381 111.778 57.1017C111.064 56.7913 109.931 56.4187 108.379 55.9842C105.927 55.2702 104.095 54.2768 102.885 53.0041C101.674 51.7314 101.069 50.1483 101.069 48.2547C101.069 46.8268 101.472 45.554 102.279 44.4365C103.117 43.288 104.297 42.3877 105.818 41.7359C107.37 41.0529 109.155 40.7115 111.173 40.7115ZM152.693 65.064C151.793 65.6848 150.738 66.1659 149.527 66.5074C148.347 66.8489 147.168 67.0196 145.988 67.0196C140.587 66.9886 137.886 64.0085 137.886 58.0795V46.625H134.394V41.5031H137.886V36.1483L145.243 35.3102V41.5031H150.924L150.132 46.625H145.243V57.9864C145.243 59.1349 145.429 59.9575 145.802 60.4542C146.174 60.9509 146.764 61.1992 147.571 61.1992C148.409 61.1992 149.294 60.9354 150.225 60.4076L152.693 65.064ZM165.622 40.7115C169.409 40.7115 172.374 41.8756 174.516 44.2037C176.657 46.5008 177.728 49.7292 177.728 53.8888C177.728 56.5274 177.232 58.84 176.238 60.8267C175.276 62.7824 173.879 64.3034 172.048 65.3899C170.247 66.4764 168.105 67.0196 165.622 67.0196C161.866 67.0196 158.901 65.871 156.729 63.5739C154.587 61.2458 153.516 58.0019 153.516 53.8423C153.516 51.2037 153.997 48.9066 154.959 46.9509C155.952 44.9642 157.349 43.4277 159.15 42.3412C160.981 41.2547 163.139 40.7115 165.622 40.7115ZM165.622 46.1128C164.132 46.1128 163.015 46.7492 162.27 48.0219C161.525 49.2636 161.152 51.2037 161.152 53.8423C161.152 56.5429 161.509 58.5141 162.223 59.7558C162.968 60.9974 164.101 61.6183 165.622 61.6183C167.112 61.6183 168.23 60.9974 168.975 59.7558C169.72 58.483 170.092 56.5274 170.092 53.8888C170.092 51.1882 169.72 49.217 168.975 47.9753C168.261 46.7336 167.143 46.1128 165.622 46.1128ZM168.323 36.6605C167.64 36.6605 167.05 36.5518 166.553 36.3346C166.057 36.1173 165.513 35.8068 164.924 35.4033C164.148 34.8445 163.511 34.5652 163.015 34.5652C162.487 34.5652 162.037 34.7359 161.664 35.0774C161.323 35.3878 160.95 35.9 160.547 36.6139L156.868 34.8445C157.489 33.2304 158.312 31.9111 159.336 30.8867C160.391 29.8623 161.571 29.3501 162.875 29.3501C163.589 29.3501 164.194 29.4743 164.691 29.7226C165.219 29.9399 165.793 30.2503 166.414 30.6539C166.848 30.9332 167.19 31.135 167.438 31.2592C167.717 31.3833 167.997 31.4454 168.276 31.4454C168.773 31.4454 169.192 31.2902 169.533 30.9798C169.906 30.6383 170.294 30.1106 170.697 29.3967L174.376 31.2126C173.724 32.8578 172.87 34.1771 171.815 35.1705C170.791 36.1638 169.626 36.6605 168.323 36.6605ZM191.394 40.7115C193.163 40.7115 194.824 40.9753 196.376 41.5031C197.928 42.0308 199.294 42.7758 200.474 43.7381L197.773 47.8822C195.755 46.6095 193.722 45.9731 191.673 45.9731C190.711 45.9731 189.966 46.1438 189.438 46.4853C188.942 46.7957 188.693 47.2458 188.693 47.8356C188.693 48.3013 188.802 48.6893 189.019 48.9997C189.268 49.2791 189.749 49.574 190.463 49.8844C191.177 50.1948 192.279 50.5673 193.769 51.0019C196.345 51.7469 198.254 52.7247 199.496 53.9354C200.769 55.115 201.405 56.7602 201.405 58.8711C201.405 60.5473 200.924 62.0063 199.962 63.248C198.999 64.4586 197.68 65.3899 196.004 66.0418C194.327 66.6937 192.465 67.0196 190.416 67.0196C188.336 67.0196 186.396 66.6937 184.596 66.0418C182.826 65.3899 181.321 64.4897 180.079 63.3411L183.665 59.3367C185.744 60.9509 187.933 61.758 190.23 61.758C191.347 61.758 192.217 61.5562 192.837 61.1527C193.489 60.7491 193.815 60.1748 193.815 59.4298C193.815 58.84 193.691 58.3744 193.443 58.0329C193.194 57.6915 192.713 57.381 191.999 57.1017C191.285 56.7913 190.152 56.4187 188.6 55.9842C186.148 55.2702 184.316 54.2768 183.106 53.0041C181.895 51.7314 181.29 50.1483 181.29 48.2547C181.29 46.8268 181.693 45.554 182.5 44.4365C183.339 43.288 184.518 42.3877 186.039 41.7359C187.591 41.0529 189.376 40.7115 191.394 40.7115ZM221.283 65.064C220.382 65.6848 219.327 66.1659 218.116 66.5074C216.937 66.8489 215.757 67.0196 214.578 67.0196C209.176 66.9886 206.476 64.0085 206.476 58.0795V46.625H202.983V41.5031H206.476V36.1483L213.833 35.3102V41.5031H219.513L218.722 46.625H213.833V57.9864C213.833 59.1349 214.019 59.9575 214.391 60.4542C214.764 60.9509 215.354 61.1992 216.161 61.1992C216.999 61.1992 217.884 60.9354 218.815 60.4076L221.283 65.064ZM243.425 59.0573C243.425 59.9886 243.549 60.6715 243.797 61.1061C244.076 61.5407 244.511 61.8666 245.101 62.0839L243.564 66.8799C242.043 66.7557 240.801 66.4298 239.839 65.9021C238.877 65.3433 238.132 64.4742 237.604 63.2946C235.99 65.7779 233.507 67.0196 230.154 67.0196C227.702 67.0196 225.746 66.3056 224.287 64.8777C222.828 63.4498 222.099 61.5872 222.099 59.2901C222.099 56.5895 223.092 54.5252 225.079 53.0972C227.065 51.6693 229.937 50.9553 233.693 50.9553H236.207V49.8844C236.207 48.4254 235.897 47.4321 235.276 46.9044C234.655 46.3456 233.569 46.0662 232.017 46.0662C231.209 46.0662 230.232 46.1904 229.083 46.4387C227.935 46.656 226.755 46.9664 225.544 47.37L223.868 42.5274C225.42 41.9376 227.003 41.4875 228.617 41.1771C230.263 40.8667 231.784 40.7115 233.181 40.7115C236.719 40.7115 239.311 41.441 240.957 42.8999C242.602 44.3589 243.425 46.5474 243.425 49.4653V59.0573ZM232.296 61.758C233.972 61.758 235.276 60.9664 236.207 59.3833V55.0063H234.391C232.715 55.0063 231.458 55.3012 230.62 55.891C229.813 56.4808 229.409 57.3966 229.409 58.6383C229.409 59.6316 229.657 60.4076 230.154 60.9664C230.682 61.4941 231.396 61.758 232.296 61.758ZM263.882 40.7115C266.831 40.7115 269.097 41.8756 270.68 44.2037C272.263 46.5008 273.055 49.7292 273.055 53.8888C273.055 56.4343 272.651 58.7003 271.844 60.687C271.068 62.6737 269.935 64.2258 268.445 65.3433C266.986 66.4608 265.248 67.0196 263.23 67.0196C261.895 67.0196 260.669 66.7402 259.552 66.1815C258.465 65.6227 257.534 64.8467 256.758 63.8533L256.385 66.228H249.867V31.6782L257.224 30.8867V44.0175C257.969 42.9931 258.915 42.186 260.064 41.5962C261.244 41.0064 262.516 40.7115 263.882 40.7115ZM261.088 61.6648C263.975 61.6648 265.419 59.0728 265.419 53.8888C265.419 50.9398 265.077 48.9066 264.394 47.7891C263.711 46.6715 262.718 46.1128 261.414 46.1128C259.769 46.1128 258.372 47.0751 257.224 48.9997V59.2901C257.689 60.0351 258.248 60.6249 258.9 61.0595C259.583 61.4631 260.312 61.6648 261.088 61.6648ZM297.174 63.4342C297.174 66.0107 296.755 68.1371 295.917 69.8134C295.11 71.4897 293.992 72.8245 292.564 73.8178C291.167 74.8422 289.398 75.7424 287.256 76.5185L284.788 71.1637C285.999 70.605 286.946 70.0617 287.628 69.534C288.311 69.0063 288.839 68.2923 289.212 67.3921C289.615 66.5229 289.817 65.3589 289.817 63.8999V41.5031H297.174V63.4342ZM293.495 28.4654C294.768 28.4654 295.808 28.8689 296.615 29.676C297.453 30.4521 297.872 31.4454 297.872 32.6561C297.872 33.8667 297.453 34.8756 296.615 35.6827C295.808 36.4587 294.768 36.8467 293.495 36.8467C292.223 36.8467 291.183 36.4587 290.376 35.6827C289.569 34.8756 289.165 33.8667 289.165 32.6561C289.165 31.4454 289.569 30.4521 290.376 29.676C291.183 28.8689 292.223 28.4654 293.495 28.4654ZM323.191 59.0573C323.191 59.9886 323.315 60.6715 323.564 61.1061C323.843 61.5407 324.277 61.8666 324.867 62.0839L323.331 66.8799C321.81 66.7557 320.568 66.4298 319.606 65.9021C318.643 65.3433 317.898 64.4742 317.371 63.2946C315.756 65.7779 313.273 67.0196 309.921 67.0196C307.468 67.0196 305.513 66.3056 304.054 64.8777C302.595 63.4498 301.865 61.5872 301.865 59.2901C301.865 56.5895 302.858 54.5252 304.845 53.0972C306.832 51.6693 309.703 50.9553 313.459 50.9553H315.974V49.8844C315.974 48.4254 315.663 47.4321 315.042 46.9044C314.422 46.3456 313.335 46.0662 311.783 46.0662C310.976 46.0662 309.998 46.1904 308.85 46.4387C307.701 46.656 306.521 46.9664 305.311 47.37L303.635 42.5274C305.187 41.9376 306.77 41.4875 308.384 41.1771C310.029 40.8667 311.55 40.7115 312.947 40.7115C316.486 40.7115 319.078 41.441 320.723 42.8999C322.368 44.3589 323.191 46.5474 323.191 49.4653V59.0573ZM312.062 61.758C313.739 61.758 315.042 60.9664 315.974 59.3833V55.0063H314.158C312.482 55.0063 311.224 55.3012 310.386 55.891C309.579 56.4808 309.176 57.3966 309.176 58.6383C309.176 59.6316 309.424 60.4076 309.921 60.9664C310.448 61.4941 311.162 61.758 312.062 61.758ZM335.744 67.0196C333.602 67.0196 331.926 66.4143 330.715 65.2036C329.535 63.962 328.946 62.2081 328.946 59.942V31.6782L336.303 30.8867V59.6626C336.303 60.687 336.722 61.1992 337.56 61.1992C337.994 61.1992 338.398 61.1216 338.77 60.9664L340.214 66.1815C338.879 66.7402 337.389 67.0196 335.744 67.0196ZM366.353 42.9465C364.739 43.5984 362.364 43.9243 359.229 43.9243C360.843 44.6073 362.023 45.4454 362.768 46.4387C363.513 47.4321 363.885 48.7203 363.885 50.3035C363.885 51.8866 363.466 53.3145 362.628 54.5873C361.79 55.8289 360.579 56.8068 358.996 57.5207C357.444 58.2347 355.613 58.5917 353.502 58.5917C352.508 58.5917 351.562 58.4986 350.661 58.3123C350.413 58.4365 350.211 58.6383 350.056 58.9176C349.932 59.166 349.87 59.4298 349.87 59.7092C349.87 60.1748 350.041 60.5473 350.382 60.8267C350.755 61.0751 351.484 61.1992 352.57 61.1992H356.296C358.189 61.1992 359.85 61.5096 361.278 62.1305C362.706 62.7513 363.808 63.605 364.584 64.6914C365.36 65.7779 365.748 67.0041 365.748 68.3699C365.748 70.9464 364.63 72.9486 362.395 74.3766C360.191 75.8355 356.994 76.565 352.803 76.565C349.792 76.565 347.417 76.2391 345.679 75.5872C343.941 74.9664 342.715 74.0817 342.001 72.9331C341.318 71.7846 340.976 70.3411 340.976 68.6027H347.588C347.588 69.3478 347.728 69.9375 348.007 70.3721C348.318 70.8067 348.861 71.1327 349.637 71.35C350.413 71.5673 351.531 71.6759 352.99 71.6759C355.007 71.6759 356.404 71.4276 357.18 70.9309C357.956 70.4653 358.344 69.7823 358.344 68.8821C358.344 68.1371 358.049 67.5473 357.46 67.1127C356.87 66.6781 355.985 66.4608 354.806 66.4608H351.22C348.675 66.4608 346.766 66.0107 345.493 65.1105C344.251 64.1793 343.63 62.9997 343.63 61.5717C343.63 60.6715 343.894 59.8023 344.422 58.9642C344.95 58.095 345.664 57.381 346.564 56.8223C345.012 55.9842 343.879 55.0063 343.165 53.8888C342.482 52.7403 342.14 51.3589 342.14 49.7447C342.14 46.982 343.134 44.7935 345.12 43.1793C347.107 41.5341 349.73 40.7115 352.99 40.7115C355.473 40.7736 357.568 40.5252 359.276 39.9665C361.014 39.4077 362.799 38.5851 364.63 37.4986L366.353 42.9465ZM353.176 45.554C352.027 45.554 351.112 45.9265 350.429 46.6715C349.777 47.3855 349.451 48.3789 349.451 49.6516C349.451 50.9864 349.777 52.0263 350.429 52.7713C351.112 53.4853 352.027 53.8423 353.176 53.8423C354.386 53.8423 355.302 53.4853 355.923 52.7713C356.575 52.0573 356.901 50.9864 356.901 49.5585C356.901 46.8888 355.659 45.554 353.176 45.554ZM383.781 40.7115C386.885 40.7115 389.198 41.86 390.719 44.1571C392.24 46.4543 393 49.6671 393 53.7957C393 56.3411 392.597 58.6227 391.79 60.6405C391.014 62.6272 389.881 64.1948 388.391 65.3433C386.901 66.4608 385.162 67.0196 383.175 67.0196C380.692 67.0196 378.69 66.1659 377.169 64.4586V75.7735L369.812 76.565V41.5031H376.284L376.657 44.2503C377.619 43.0396 378.721 42.1549 379.963 41.5962C381.204 41.0064 382.477 40.7115 383.781 40.7115ZM380.94 61.6183C383.889 61.6183 385.364 59.0418 385.364 53.8888C385.364 50.9709 385.038 48.9531 384.386 47.8356C383.734 46.6871 382.756 46.1128 381.453 46.1128C380.615 46.1128 379.823 46.3611 379.078 46.8578C378.364 47.3545 377.728 48.0684 377.169 48.9997V59.4298C378.162 60.8888 379.419 61.6183 380.94 61.6183ZM417.372 59.0573C417.372 59.9886 417.496 60.6715 417.745 61.1061C418.024 61.5407 418.459 61.8666 419.048 62.0839L417.512 66.8799C415.991 66.7557 414.749 66.4298 413.787 65.9021C412.824 65.3433 412.079 64.4742 411.552 63.2946C409.937 65.7779 407.454 67.0196 404.102 67.0196C401.649 67.0196 399.694 66.3056 398.235 64.8777C396.776 63.4498 396.046 61.5872 396.046 59.2901C396.046 56.5895 397.04 54.5252 399.026 53.0972C401.013 51.6693 403.884 50.9553 407.64 50.9553H410.155V49.8844C410.155 48.4254 409.844 47.4321 409.224 46.9044C408.603 46.3456 407.516 46.0662 405.964 46.0662C405.157 46.0662 404.179 46.1904 403.031 46.4387C401.882 46.656 400.702 46.9664 399.492 47.37L397.816 42.5274C399.368 41.9376 400.951 41.4875 402.565 41.1771C404.21 40.8667 405.731 40.7115 407.128 40.7115C410.667 40.7115 413.259 41.441 414.904 42.8999C416.549 44.3589 417.372 46.5474 417.372 49.4653V59.0573ZM406.243 61.758C407.92 61.758 409.224 60.9664 410.155 59.3833V55.0063H408.339C406.663 55.0063 405.405 55.3012 404.567 55.891C403.76 56.4808 403.357 57.3966 403.357 58.6383C403.357 59.6316 403.605 60.4076 404.102 60.9664C404.629 61.4941 405.343 61.758 406.243 61.758ZM429.925 67.0196C427.783 67.0196 426.107 66.4143 424.896 65.2036C423.716 63.962 423.127 62.2081 423.127 59.942V31.6782L430.484 30.8867V59.6626C430.484 60.687 430.903 61.1992 431.741 61.1992C432.175 61.1992 432.579 61.1216 432.951 60.9664L434.395 66.1815C433.06 66.7402 431.57 67.0196 429.925 67.0196ZM444.33 67.0196C442.188 67.0196 440.512 66.4143 439.301 65.2036C438.122 63.962 437.532 62.2081 437.532 59.942V31.6782L444.889 30.8867V59.6626C444.889 60.687 445.308 61.1992 446.146 61.1992C446.581 61.1992 446.984 61.1216 447.357 60.9664L448.8 66.1815C447.465 66.7402 445.975 67.0196 444.33 67.0196ZM459.527 41.5031V66.228H452.17V41.5031H459.527ZM455.802 28.4654C457.075 28.4654 458.115 28.8689 458.922 29.676C459.76 30.4521 460.179 31.4454 460.179 32.6561C460.179 33.8667 459.76 34.8756 458.922 35.6827C458.115 36.4587 457.075 36.8467 455.802 36.8467C454.529 36.8467 453.49 36.4587 452.682 35.6827C451.875 34.8756 451.472 33.8667 451.472 32.6561C451.472 31.4454 451.875 30.4521 452.682 29.676C453.49 28.8689 454.529 28.4654 455.802 28.4654ZM509.7 66.228H502.204L501.645 53.6094C501.49 50.5984 501.412 47.9132 501.412 45.554C501.412 43.7536 501.459 42.0463 501.552 40.4321L496.57 62.8289H489.352L484.044 40.4321C484.23 43.1328 484.324 45.6782 484.324 48.0684C484.324 49.8689 484.277 51.7469 484.184 53.7026L483.625 66.228H476.175L478.596 33.9598H488.235L493.077 55.8445L497.594 33.9598H507.279L509.7 66.228ZM546.887 66.228H539.39L538.832 53.6094C538.677 50.5984 538.599 47.9132 538.599 45.554C538.599 43.7536 538.645 42.0463 538.739 40.4321L533.756 62.8289H526.539L521.231 40.4321C521.417 43.1328 521.51 45.6782 521.51 48.0684C521.51 49.8689 521.464 51.7469 521.371 53.7026L520.812 66.228H513.362L515.783 33.9598H525.422L530.264 55.8445L534.781 33.9598H544.466L546.887 66.228ZM551.061 54.4941V48.8134H565.914V54.4941H551.061ZM578.8 30.8867V66.228H571.443V31.6782L578.8 30.8867ZM594.072 41.5031L586.576 52.3522L594.678 66.228H586.389L579.032 52.7247L586.576 41.5031H594.072ZM616.684 59.0573C616.684 59.9886 616.808 60.6715 617.056 61.1061C617.336 61.5407 617.77 61.8666 618.36 62.0839L616.823 66.8799C615.302 66.7557 614.061 66.4298 613.098 65.9021C612.136 65.3433 611.391 64.4742 610.863 63.2946C609.249 65.7779 606.766 67.0196 603.413 67.0196C600.961 67.0196 599.005 66.3056 597.546 64.8777C596.087 63.4498 595.358 61.5872 595.358 59.2901C595.358 56.5895 596.351 54.5252 598.338 53.0972C600.325 51.6693 603.196 50.9553 606.952 50.9553H609.466V49.8844C609.466 48.4254 609.156 47.4321 608.535 46.9044C607.914 46.3456 606.828 46.0662 605.276 46.0662C604.469 46.0662 603.491 46.1904 602.342 46.4387C601.194 46.656 600.014 46.9664 598.804 47.37L597.127 42.5274C598.679 41.9376 600.262 41.4875 601.877 41.1771C603.522 40.8667 605.043 40.7115 606.44 40.7115C609.979 40.7115 612.571 41.441 614.216 42.8999C615.861 44.3589 616.684 46.5474 616.684 49.4653V59.0573ZM605.555 61.758C607.231 61.758 608.535 60.9664 609.466 59.3833V55.0063H607.65C605.974 55.0063 604.717 55.3012 603.879 55.891C603.072 56.4808 602.668 57.3966 602.668 58.6383C602.668 59.6316 602.917 60.4076 603.413 60.9664C603.941 61.4941 604.655 61.758 605.555 61.758ZM636.536 40.8046C637.436 40.8046 638.259 40.9133 639.004 41.1305L637.84 48.2547C636.908 48.0374 636.163 47.9288 635.605 47.9288C634.146 47.9288 633.028 48.4409 632.252 49.4653C631.507 50.4587 630.917 51.9642 630.483 53.9819V66.228H623.126V41.5031H629.552L630.157 46.299C630.716 44.5917 631.554 43.2569 632.671 42.2946C633.82 41.3013 635.108 40.8046 636.536 40.8046ZM649.754 41.5031V66.228H642.397V41.5031H649.754ZM646.029 28.4654C647.301 28.4654 648.341 28.8689 649.148 29.676C649.986 30.4521 650.406 31.4454 650.406 32.6561C650.406 33.8667 649.986 34.8756 649.148 35.6827C648.341 36.4587 647.301 36.8467 646.029 36.8467C644.756 36.8467 643.716 36.4587 642.909 35.6827C642.102 34.8756 641.698 33.8667 641.698 32.6561C641.698 31.4454 642.102 30.4521 642.909 29.676C643.716 28.8689 644.756 28.4654 646.029 28.4654ZM663.477 30.8867V66.228H656.12V31.6782L663.477 30.8867ZM678.75 41.5031L671.253 52.3522L679.355 66.228H671.067L663.71 52.7247L671.253 41.5031H678.75ZM701.361 59.0573C701.361 59.9886 701.485 60.6715 701.734 61.1061C702.013 61.5407 702.448 61.8666 703.037 62.0839L701.501 66.8799C699.98 66.7557 698.738 66.4298 697.776 65.9021C696.813 65.3433 696.068 64.4742 695.541 63.2946C693.927 65.7779 691.443 67.0196 688.091 67.0196C685.638 67.0196 683.683 66.3056 682.224 64.8777C680.765 63.4498 680.035 61.5872 680.035 59.2901C680.035 56.5895 681.029 54.5252 683.015 53.0972C685.002 51.6693 687.873 50.9553 691.629 50.9553H694.144V49.8844C694.144 48.4254 693.833 47.4321 693.213 46.9044C692.592 46.3456 691.505 46.0662 689.953 46.0662C689.146 46.0662 688.168 46.1904 687.02 46.4387C685.871 46.656 684.692 46.9664 683.481 47.37L681.805 42.5274C683.357 41.9376 684.94 41.4875 686.554 41.1771C688.199 40.8667 689.72 40.7115 691.117 40.7115C694.656 40.7115 697.248 41.441 698.893 42.8999C700.538 44.3589 701.361 46.5474 701.361 49.4653V59.0573ZM690.233 61.758C691.909 61.758 693.213 60.9664 694.144 59.3833V55.0063H692.328C690.652 55.0063 689.394 55.3012 688.556 55.891C687.749 56.4808 687.346 57.3966 687.346 58.6383C687.346 59.6316 687.594 60.4076 688.091 60.9664C688.618 61.4941 689.332 61.758 690.233 61.758ZM715.054 33.1683C717.227 33.1683 719.074 33.5252 720.595 34.2392C722.147 34.9221 723.312 35.8534 724.088 37.033C724.864 38.2126 725.252 39.5164 725.252 40.9443C725.252 42.217 725.019 43.3035 724.553 44.2037C724.119 45.1039 723.591 45.8334 722.97 46.3922C722.349 46.9509 721.527 47.6028 720.502 48.3478C719.261 49.186 718.345 49.9465 717.755 50.6294C717.165 51.2813 716.87 52.1349 716.87 53.1904V54.3545H710.165V52.911C710.165 51.452 710.383 50.2259 710.817 49.2325C711.283 48.2081 711.826 47.4166 712.447 46.8578C713.099 46.268 713.906 45.6316 714.868 44.9487C715.799 44.3279 716.482 43.7846 716.917 43.319C717.351 42.8534 717.569 42.2791 717.569 41.5962C717.569 40.758 717.274 40.1062 716.684 39.6405C716.125 39.1749 715.334 38.9421 714.309 38.9421C712.354 38.9421 710.538 39.8889 708.861 41.7824L704.159 38.1505C706.983 34.829 710.615 33.1683 715.054 33.1683ZM713.611 58.5917C714.759 58.5917 715.737 59.0108 716.544 59.8489C717.383 60.656 717.802 61.6338 717.802 62.7824C717.802 63.962 717.383 64.9708 716.544 65.809C715.737 66.6161 714.759 67.0196 713.611 67.0196C712.462 67.0196 711.469 66.6161 710.631 65.809C709.824 64.9708 709.42 63.962 709.42 62.7824C709.42 61.6338 709.824 60.656 710.631 59.8489C711.469 59.0108 712.462 58.5917 713.611 58.5917Z" fill="#D7FF00"/>
</svg>
