<svg width="682" height="100" viewBox="0 0 682 100" fill="none" xmlns="http://www.w3.org/2000/svg">
<path d="M64 16C64 9.37259 69.3726 4 76 4H606C612.627 4 618 9.37258 618 16V84C618 90.6274 612.627 96 606 96H76C69.3726 96 64 90.6274 64 84V16Z" fill="#013216" fill-opacity="0.75"/>
<path d="M160.829 31.8636C160.829 34.3485 160.374 36.4848 159.465 38.2727C158.556 40.053 157.31 41.4242 155.727 42.3864C154.151 43.3409 152.359 43.8182 150.352 43.8182C148.337 43.8182 146.537 43.3409 144.954 42.3864C143.378 41.4242 142.136 40.0492 141.227 38.2614C140.318 36.4735 139.863 34.3409 139.863 31.8636C139.863 29.3788 140.318 27.2462 141.227 25.4659C142.136 23.678 143.378 22.3068 144.954 21.3523C146.537 20.3902 148.337 19.9091 150.352 19.9091C152.359 19.9091 154.151 20.3902 155.727 21.3523C157.31 22.3068 158.556 23.678 159.465 25.4659C160.374 27.2462 160.829 29.3788 160.829 31.8636ZM157.352 31.8636C157.352 29.9697 157.045 28.375 156.431 27.0795C155.825 25.7765 154.992 24.7917 153.931 24.125C152.878 23.4508 151.685 23.1136 150.352 23.1136C149.011 23.1136 147.814 23.4508 146.761 24.125C145.708 24.7917 144.874 25.7765 144.261 27.0795C143.655 28.375 143.352 29.9697 143.352 31.8636C143.352 33.7576 143.655 35.3561 144.261 36.6591C144.874 37.9545 145.708 38.9394 146.761 39.6136C147.814 40.2803 149.011 40.6136 150.352 40.6136C151.685 40.6136 152.878 40.2803 153.931 39.6136C154.992 38.9394 155.825 37.9545 156.431 36.6591C157.045 35.3561 157.352 33.7576 157.352 31.8636ZM146.931 17.9205L144.636 17.8409C144.636 16.5909 144.977 15.5909 145.659 14.8409C146.34 14.0909 147.177 13.7121 148.17 13.7045C148.64 13.7045 149.049 13.7841 149.397 13.9432C149.746 14.0947 150.071 14.2727 150.374 14.4773C150.677 14.6818 150.984 14.8636 151.295 15.0227C151.605 15.1742 151.95 15.25 152.329 15.25C152.761 15.2424 153.113 15.0758 153.386 14.75C153.666 14.4167 153.806 14.0038 153.806 13.5114L156.056 13.6591C156.049 14.9242 155.704 15.9205 155.022 16.6477C154.348 17.3674 153.515 17.7273 152.522 17.7273C151.984 17.7273 151.537 17.6515 151.181 17.5C150.825 17.3409 150.511 17.1629 150.238 16.9659C149.965 16.7614 149.685 16.5833 149.397 16.4318C149.109 16.2727 148.765 16.1932 148.363 16.1932C147.946 16.1932 147.602 16.3561 147.329 16.6818C147.064 17.0076 146.931 17.4205 146.931 17.9205ZM167.932 33.1364V43.5H164.534V20.2273H167.886V28.8864H168.102C168.511 27.947 169.136 27.2008 169.977 26.6477C170.818 26.0947 171.917 25.8182 173.273 25.8182C174.47 25.8182 175.515 26.0644 176.409 26.5568C177.311 27.0492 178.008 27.7841 178.5 28.7614C179 29.7311 179.25 30.9432 179.25 32.3977V43.5H175.852V32.8068C175.852 31.5265 175.523 30.5341 174.864 29.8295C174.205 29.1174 173.288 28.7614 172.114 28.7614C171.311 28.7614 170.591 28.9318 169.955 29.2727C169.326 29.6136 168.83 30.1136 168.466 30.7727C168.11 31.4242 167.932 32.2121 167.932 33.1364ZM191.532 26.0455V28.7727H181.998V26.0455H191.532ZM184.555 21.8636H187.952V38.375C187.952 39.0341 188.051 39.5303 188.248 39.8636C188.445 40.1894 188.698 40.4129 189.009 40.5341C189.327 40.6477 189.672 40.7045 190.043 40.7045C190.316 40.7045 190.555 40.6856 190.759 40.6477C190.964 40.6098 191.123 40.5795 191.236 40.5568L191.85 43.3636C191.653 43.4394 191.373 43.5152 191.009 43.5909C190.645 43.6742 190.191 43.7197 189.645 43.7273C188.752 43.7424 187.918 43.5833 187.145 43.25C186.373 42.9167 185.748 42.4015 185.27 41.7045C184.793 41.0076 184.555 40.1326 184.555 39.0795V21.8636ZM205.947 36.2614V26.0455H209.356V43.5H206.015V40.4773H205.834C205.432 41.4091 204.788 42.1856 203.902 42.8068C203.023 43.4205 201.928 43.7273 200.618 43.7273C199.496 43.7273 198.504 43.4811 197.64 42.9886C196.784 42.4886 196.11 41.75 195.618 40.7727C195.133 39.7955 194.89 38.5871 194.89 37.1477V26.0455H198.288V36.7386C198.288 37.928 198.618 38.875 199.277 39.5795C199.936 40.2841 200.792 40.6364 201.845 40.6364C202.481 40.6364 203.114 40.4773 203.743 40.1591C204.379 39.8409 204.905 39.3598 205.322 38.7159C205.746 38.072 205.955 37.2538 205.947 36.2614ZM216.919 20.2273V43.5H213.522V20.2273H216.919ZM228.613 43.8523C226.893 43.8523 225.412 43.4848 224.17 42.75C222.935 42.0076 221.98 40.9659 221.306 39.625C220.64 38.2765 220.306 36.697 220.306 34.8864C220.306 33.0985 220.64 31.5227 221.306 30.1591C221.98 28.7955 222.92 27.7311 224.124 26.9659C225.337 26.2008 226.753 25.8182 228.374 25.8182C229.359 25.8182 230.314 25.9811 231.238 26.3068C232.162 26.6326 232.992 27.1439 233.727 27.8409C234.462 28.5379 235.041 29.4432 235.465 30.5568C235.89 31.6629 236.102 33.0076 236.102 34.5909V35.7955H222.227V33.25H232.772C232.772 32.3561 232.59 31.5644 232.227 30.875C231.863 30.178 231.352 29.6288 230.693 29.2273C230.041 28.8258 229.276 28.625 228.397 28.625C227.443 28.625 226.609 28.8598 225.897 29.3295C225.193 29.7917 224.647 30.3977 224.261 31.1477C223.882 31.8902 223.693 32.697 223.693 33.5682V35.5568C223.693 36.7235 223.897 37.7159 224.306 38.5341C224.723 39.3523 225.302 39.9773 226.045 40.4091C226.787 40.8333 227.655 41.0455 228.647 41.0455C229.291 41.0455 229.878 40.9545 230.409 40.7727C230.939 40.5833 231.397 40.303 231.784 39.9318C232.17 39.5606 232.465 39.1023 232.67 38.5568L235.886 39.1364C235.628 40.0833 235.166 40.9129 234.499 41.625C233.84 42.3295 233.011 42.8788 232.011 43.2727C231.018 43.6591 229.886 43.8523 228.613 43.8523ZM242.869 33.1364V43.5H239.472V20.2273H242.824V28.8864H243.04C243.449 27.947 244.074 27.2008 244.915 26.6477C245.756 26.0947 246.854 25.8182 248.21 25.8182C249.407 25.8182 250.453 26.0644 251.347 26.5568C252.248 27.0492 252.945 27.7841 253.437 28.7614C253.937 29.7311 254.187 30.9432 254.187 32.3977V43.5H250.79V32.8068C250.79 31.5265 250.46 30.5341 249.801 29.8295C249.142 29.1174 248.225 28.7614 247.051 28.7614C246.248 28.7614 245.528 28.9318 244.892 29.2727C244.263 29.6136 243.767 30.1136 243.403 30.7727C243.047 31.4242 242.869 32.2121 242.869 33.1364ZM266.469 26.0455V28.7727H256.935V26.0455H266.469ZM259.492 21.8636H262.89V38.375C262.89 39.0341 262.988 39.5303 263.185 39.8636C263.382 40.1894 263.636 40.4129 263.947 40.5341C264.265 40.6477 264.609 40.7045 264.981 40.7045C265.253 40.7045 265.492 40.6856 265.697 40.6477C265.901 40.6098 266.06 40.5795 266.174 40.5568L266.787 43.3636C266.591 43.4394 266.31 43.5152 265.947 43.5909C265.583 43.6742 265.128 43.7197 264.583 43.7273C263.689 43.7424 262.856 43.5833 262.083 43.25C261.31 42.9167 260.685 42.4015 260.208 41.7045C259.731 41.0076 259.492 40.1326 259.492 39.0795V21.8636ZM292.828 26.0455L286.499 43.5H282.862L276.522 26.0455H280.169L284.59 39.4773H284.772L289.181 26.0455H292.828ZM300.201 43.8864C299.095 43.8864 298.095 43.6818 297.201 43.2727C296.307 42.8561 295.599 42.2538 295.076 41.4659C294.561 40.678 294.303 39.7121 294.303 38.5682C294.303 37.5833 294.493 36.7727 294.872 36.1364C295.25 35.5 295.762 34.9962 296.406 34.625C297.05 34.2538 297.769 33.9735 298.565 33.7841C299.36 33.5947 300.171 33.4508 300.997 33.3523C302.042 33.2311 302.891 33.1326 303.542 33.0568C304.194 32.9735 304.667 32.8409 304.962 32.6591C305.258 32.4773 305.406 32.1818 305.406 31.7727V31.6932C305.406 30.7008 305.125 29.9318 304.565 29.3864C304.012 28.8409 303.186 28.5682 302.087 28.5682C300.944 28.5682 300.042 28.822 299.383 29.3295C298.731 29.8295 298.281 30.3864 298.031 31L294.837 30.2727C295.216 29.2121 295.769 28.3561 296.497 27.7045C297.231 27.0455 298.076 26.5682 299.031 26.2727C299.985 25.9697 300.989 25.8182 302.042 25.8182C302.739 25.8182 303.478 25.9015 304.258 26.0682C305.046 26.2273 305.781 26.5227 306.462 26.9545C307.152 27.3864 307.716 28.0038 308.156 28.8068C308.595 29.6023 308.815 30.6364 308.815 31.9091V43.5H305.497V41.1136H305.36C305.141 41.553 304.811 41.9848 304.372 42.4091C303.932 42.8333 303.368 43.1856 302.678 43.4659C301.989 43.7462 301.163 43.8864 300.201 43.8864ZM300.94 41.1591C301.879 41.1591 302.682 40.9735 303.349 40.6023C304.023 40.2311 304.534 39.7462 304.883 39.1477C305.239 38.5417 305.417 37.8939 305.417 37.2045V34.9545C305.296 35.0758 305.061 35.1894 304.712 35.2955C304.372 35.3939 303.981 35.4811 303.542 35.5568C303.103 35.625 302.675 35.6894 302.258 35.75C301.841 35.803 301.493 35.8485 301.212 35.8864C300.553 35.9697 299.951 36.1098 299.406 36.3068C298.868 36.5038 298.436 36.7879 298.11 37.1591C297.792 37.5227 297.633 38.0076 297.633 38.6136C297.633 39.4545 297.944 40.0909 298.565 40.5227C299.186 40.947 299.978 41.1591 300.94 41.1591ZM316.338 33.1364V43.5H312.94V20.2273H316.293V28.8864H316.509C316.918 27.947 317.543 27.2008 318.384 26.6477C319.224 26.0947 320.323 25.8182 321.679 25.8182C322.876 25.8182 323.921 26.0644 324.815 26.5568C325.717 27.0492 326.414 27.7841 326.906 28.7614C327.406 29.7311 327.656 30.9432 327.656 32.3977V43.5H324.259V32.8068C324.259 31.5265 323.929 30.5341 323.27 29.8295C322.611 29.1174 321.694 28.7614 320.52 28.7614C319.717 28.7614 318.997 28.9318 318.361 29.2727C317.732 29.6136 317.236 30.1136 316.872 30.7727C316.516 31.4242 316.338 32.2121 316.338 33.1364ZM339.313 43.8523C337.593 43.8523 336.112 43.4848 334.87 42.75C333.635 42.0076 332.68 40.9659 332.006 39.625C331.34 38.2765 331.006 36.697 331.006 34.8864C331.006 33.0985 331.34 31.5227 332.006 30.1591C332.68 28.7955 333.62 27.7311 334.824 26.9659C336.037 26.2008 337.453 25.8182 339.074 25.8182C340.059 25.8182 341.014 25.9811 341.938 26.3068C342.862 26.6326 343.692 27.1439 344.427 27.8409C345.162 28.5379 345.741 29.4432 346.165 30.5568C346.59 31.6629 346.802 33.0076 346.802 34.5909V35.7955H332.927V33.25H343.472C343.472 32.3561 343.29 31.5644 342.927 30.875C342.563 30.178 342.052 29.6288 341.393 29.2273C340.741 28.8258 339.976 28.625 339.097 28.625C338.143 28.625 337.309 28.8598 336.597 29.3295C335.893 29.7917 335.347 30.3977 334.961 31.1477C334.582 31.8902 334.393 32.697 334.393 33.5682V35.5568C334.393 36.7235 334.597 37.7159 335.006 38.5341C335.423 39.3523 336.002 39.9773 336.745 40.4091C337.487 40.8333 338.355 41.0455 339.347 41.0455C339.991 41.0455 340.578 40.9545 341.109 40.7727C341.639 40.5833 342.097 40.303 342.484 39.9318C342.87 39.5606 343.165 39.1023 343.37 38.5568L346.586 39.1364C346.328 40.0833 345.866 40.9129 345.199 41.625C344.54 42.3295 343.711 42.8788 342.711 43.2727C341.718 43.6591 340.586 43.8523 339.313 43.8523ZM353.569 33.1364V43.5H350.172V26.0455H353.433V28.8864H353.649C354.05 27.9621 354.679 27.2197 355.535 26.6591C356.399 26.0985 357.486 25.8182 358.797 25.8182C359.986 25.8182 361.028 26.0682 361.922 26.5682C362.816 27.0606 363.509 27.7955 364.001 28.7727C364.494 29.75 364.74 30.9583 364.74 32.3977V43.5H361.342V32.8068C361.342 31.5417 361.012 30.553 360.353 29.8409C359.694 29.1212 358.789 28.7614 357.637 28.7614C356.85 28.7614 356.149 28.9318 355.535 29.2727C354.929 29.6136 354.448 30.1136 354.092 30.7727C353.744 31.4242 353.569 32.2121 353.569 33.1364ZM375.431 43.8409C374.022 43.8409 372.764 43.4811 371.658 42.7614C370.559 42.0341 369.696 41 369.067 39.6591C368.446 38.3106 368.135 36.6932 368.135 34.8068C368.135 32.9205 368.45 31.3068 369.078 29.9659C369.715 28.625 370.586 27.5985 371.692 26.8864C372.798 26.1742 374.052 25.8182 375.453 25.8182C376.537 25.8182 377.408 26 378.067 26.3636C378.734 26.7197 379.249 27.1364 379.612 27.6136C379.984 28.0909 380.272 28.5114 380.476 28.875H380.681V20.2273H384.078V43.5H380.76V40.7841H380.476C380.272 41.1553 379.976 41.5795 379.59 42.0568C379.211 42.5341 378.688 42.9508 378.022 43.3068C377.355 43.6629 376.491 43.8409 375.431 43.8409ZM376.181 40.9432C377.158 40.9432 377.984 40.6856 378.658 40.1705C379.34 39.6477 379.855 38.9242 380.203 38C380.559 37.0758 380.737 36 380.737 34.7727C380.737 33.5606 380.563 32.5 380.215 31.5909C379.866 30.6818 379.355 29.9735 378.681 29.4659C378.006 28.9583 377.173 28.7045 376.181 28.7045C375.158 28.7045 374.306 28.9697 373.624 29.5C372.942 30.0303 372.427 30.7538 372.078 31.6705C371.737 32.5871 371.567 33.6212 371.567 34.7727C371.567 35.9394 371.741 36.9886 372.09 37.9205C372.438 38.8523 372.953 39.5909 373.635 40.1364C374.325 40.6742 375.173 40.9432 376.181 40.9432ZM393.607 43.8864C392.501 43.8864 391.501 43.6818 390.607 43.2727C389.713 42.8561 389.005 42.2538 388.482 41.4659C387.967 40.678 387.71 39.7121 387.71 38.5682C387.71 37.5833 387.899 36.7727 388.278 36.1364C388.657 35.5 389.168 34.9962 389.812 34.625C390.456 34.2538 391.176 33.9735 391.971 33.7841C392.766 33.5947 393.577 33.4508 394.403 33.3523C395.448 33.2311 396.297 33.1326 396.948 33.0568C397.6 32.9735 398.073 32.8409 398.369 32.6591C398.664 32.4773 398.812 32.1818 398.812 31.7727V31.6932C398.812 30.7008 398.532 29.9318 397.971 29.3864C397.418 28.8409 396.592 28.5682 395.494 28.5682C394.35 28.5682 393.448 28.822 392.789 29.3295C392.138 29.8295 391.687 30.3864 391.437 31L388.244 30.2727C388.623 29.2121 389.176 28.3561 389.903 27.7045C390.638 27.0455 391.482 26.5682 392.437 26.2727C393.391 25.9697 394.395 25.8182 395.448 25.8182C396.145 25.8182 396.884 25.9015 397.664 26.0682C398.452 26.2273 399.187 26.5227 399.869 26.9545C400.558 27.3864 401.123 28.0038 401.562 28.8068C402.001 29.6023 402.221 30.6364 402.221 31.9091V43.5H398.903V41.1136H398.766C398.547 41.553 398.217 41.9848 397.778 42.4091C397.338 42.8333 396.774 43.1856 396.085 43.4659C395.395 43.7462 394.57 43.8864 393.607 43.8864ZM394.346 41.1591C395.285 41.1591 396.088 40.9735 396.755 40.6023C397.429 40.2311 397.941 39.7462 398.289 39.1477C398.645 38.5417 398.823 37.8939 398.823 37.2045V34.9545C398.702 35.0758 398.467 35.1894 398.119 35.2955C397.778 35.3939 397.388 35.4811 396.948 35.5568C396.509 35.625 396.081 35.6894 395.664 35.75C395.248 35.803 394.899 35.8485 394.619 35.8864C393.96 35.9697 393.357 36.1098 392.812 36.3068C392.274 36.5038 391.842 36.7879 391.516 37.1591C391.198 37.5227 391.039 38.0076 391.039 38.6136C391.039 39.4545 391.35 40.0909 391.971 40.5227C392.592 40.947 393.384 41.1591 394.346 41.1591ZM406.619 43.5V20.2273H410.017V28.875H410.222C410.419 28.5114 410.703 28.0909 411.074 27.6136C411.445 27.1364 411.96 26.7197 412.619 26.3636C413.278 26 414.15 25.8182 415.233 25.8182C416.642 25.8182 417.9 26.1742 419.006 26.8864C420.112 27.5985 420.979 28.625 421.608 29.9659C422.244 31.3068 422.562 32.9205 422.562 34.8068C422.562 36.6932 422.248 38.3106 421.619 39.6591C420.991 41 420.127 42.0341 419.028 42.7614C417.93 43.4811 416.676 43.8409 415.267 43.8409C414.206 43.8409 413.339 43.6629 412.665 43.3068C411.998 42.9508 411.475 42.5341 411.097 42.0568C410.718 41.5795 410.426 41.1553 410.222 40.7841H409.938V43.5H406.619ZM409.949 34.7727C409.949 36 410.127 37.0758 410.483 38C410.839 38.9242 411.354 39.6477 412.028 40.1705C412.703 40.6856 413.528 40.9432 414.506 40.9432C415.521 40.9432 416.369 40.6742 417.051 40.1364C417.733 39.5909 418.248 38.8523 418.597 37.9205C418.953 36.9886 419.131 35.9394 419.131 34.7727C419.131 33.6212 418.956 32.5871 418.608 31.6705C418.267 30.7538 417.752 30.0303 417.062 29.5C416.381 28.9697 415.528 28.7045 414.506 28.7045C413.521 28.7045 412.688 28.9583 412.006 29.4659C411.331 29.9735 410.82 30.6818 410.472 31.5909C410.123 32.5 409.949 33.5606 409.949 34.7727ZM434.047 26.0455H437.444V44.6364C437.444 45.803 437.232 46.7879 436.808 47.5909C436.391 48.3939 435.77 49.0038 434.944 49.4205C434.126 49.8371 433.115 50.0455 431.91 50.0455C431.789 50.0455 431.675 50.0455 431.569 50.0455C431.456 50.0455 431.338 50.0417 431.217 50.0341V47.1136C431.323 47.1136 431.418 47.1136 431.501 47.1136C431.577 47.1136 431.664 47.1136 431.762 47.1136C432.566 47.1136 433.145 46.8977 433.501 46.4659C433.865 46.0417 434.047 45.4242 434.047 44.6136V26.0455ZM435.728 23.3523C435.137 23.3523 434.63 23.1553 434.206 22.7614C433.789 22.3598 433.581 21.8826 433.581 21.3295C433.581 20.7689 433.789 20.2917 434.206 19.8977C434.63 19.4962 435.137 19.2955 435.728 19.2955C436.319 19.2955 436.823 19.4962 437.24 19.8977C437.664 20.2917 437.876 20.7689 437.876 21.3295C437.876 21.8826 437.664 22.3598 437.24 22.7614C436.823 23.1553 436.319 23.3523 435.728 23.3523ZM446.695 43.8864C445.589 43.8864 444.589 43.6818 443.695 43.2727C442.801 42.8561 442.093 42.2538 441.57 41.4659C441.055 40.678 440.797 39.7121 440.797 38.5682C440.797 37.5833 440.987 36.7727 441.365 36.1364C441.744 35.5 442.255 34.9962 442.899 34.625C443.543 34.2538 444.263 33.9735 445.059 33.7841C445.854 33.5947 446.665 33.4508 447.49 33.3523C448.536 33.2311 449.384 33.1326 450.036 33.0568C450.687 32.9735 451.161 32.8409 451.456 32.6591C451.752 32.4773 451.899 32.1818 451.899 31.7727V31.6932C451.899 30.7008 451.619 29.9318 451.059 29.3864C450.505 28.8409 449.68 28.5682 448.581 28.5682C447.437 28.5682 446.536 28.822 445.877 29.3295C445.225 29.8295 444.774 30.3864 444.524 31L441.331 30.2727C441.71 29.2121 442.263 28.3561 442.99 27.7045C443.725 27.0455 444.57 26.5682 445.524 26.2727C446.479 25.9697 447.483 25.8182 448.536 25.8182C449.233 25.8182 449.971 25.9015 450.752 26.0682C451.54 26.2273 452.274 26.5227 452.956 26.9545C453.646 27.3864 454.21 28.0038 454.649 28.8068C455.089 29.6023 455.309 30.6364 455.309 31.9091V43.5H451.99V41.1136H451.854C451.634 41.553 451.305 41.9848 450.865 42.4091C450.426 42.8333 449.862 43.1856 449.172 43.4659C448.483 43.7462 447.657 43.8864 446.695 43.8864ZM447.434 41.1591C448.373 41.1591 449.176 40.9735 449.843 40.6023C450.517 40.2311 451.028 39.7462 451.377 39.1477C451.733 38.5417 451.911 37.8939 451.911 37.2045V34.9545C451.79 35.0758 451.555 35.1894 451.206 35.2955C450.865 35.3939 450.475 35.4811 450.036 35.5568C449.596 35.625 449.168 35.6894 448.752 35.75C448.335 35.803 447.987 35.8485 447.706 35.8864C447.047 35.9697 446.445 36.1098 445.899 36.3068C445.362 36.5038 444.93 36.7879 444.604 37.1591C444.286 37.5227 444.127 38.0076 444.127 38.6136C444.127 39.4545 444.437 40.0909 445.059 40.5227C445.68 40.947 446.471 41.1591 447.434 41.1591ZM462.832 20.2273V43.5H459.434V20.2273H462.832ZM474.321 50.4091C472.935 50.4091 471.741 50.2273 470.741 49.8636C469.749 49.5 468.938 49.0189 468.31 48.4205C467.681 47.822 467.211 47.1667 466.901 46.4545L469.821 45.25C470.026 45.5833 470.298 45.9356 470.639 46.3068C470.988 46.6856 471.457 47.0076 472.048 47.2727C472.647 47.5379 473.416 47.6705 474.355 47.6705C475.643 47.6705 476.707 47.3561 477.548 46.7273C478.389 46.1061 478.81 45.1136 478.81 43.75V40.3182H478.594C478.389 40.6894 478.094 41.1023 477.707 41.5568C477.329 42.0114 476.806 42.4053 476.139 42.7386C475.473 43.072 474.605 43.2386 473.537 43.2386C472.158 43.2386 470.916 42.9167 469.81 42.2727C468.711 41.6212 467.84 40.6629 467.196 39.3977C466.56 38.125 466.241 36.5606 466.241 34.7045C466.241 32.8485 466.556 31.2576 467.185 29.9318C467.821 28.6061 468.692 27.5909 469.798 26.8864C470.904 26.1742 472.158 25.8182 473.56 25.8182C474.643 25.8182 475.518 26 476.185 26.3636C476.851 26.7197 477.37 27.1364 477.741 27.6136C478.12 28.0909 478.412 28.5114 478.616 28.875H478.866V26.0455H482.196V43.8864C482.196 45.3864 481.848 46.6174 481.151 47.5795C480.454 48.5417 479.51 49.2538 478.321 49.7159C477.139 50.178 475.806 50.4091 474.321 50.4091ZM474.287 40.4205C475.264 40.4205 476.09 40.1932 476.764 39.7386C477.446 39.2765 477.961 38.6174 478.31 37.7614C478.666 36.8977 478.844 35.8636 478.844 34.6591C478.844 33.4848 478.67 32.4508 478.321 31.5568C477.973 30.6629 477.461 29.9659 476.787 29.4659C476.113 28.9583 475.279 28.7045 474.287 28.7045C473.264 28.7045 472.412 28.9697 471.73 29.5C471.048 30.0227 470.533 30.7348 470.185 31.6364C469.844 32.5379 469.673 33.5455 469.673 34.6591C469.673 35.803 469.848 36.8068 470.196 37.6705C470.545 38.5341 471.06 39.2083 471.741 39.6932C472.431 40.178 473.279 40.4205 474.287 40.4205ZM486.353 50.0455V26.0455H489.671V28.875H489.955C490.152 28.5114 490.436 28.0909 490.807 27.6136C491.179 27.1364 491.694 26.7197 492.353 26.3636C493.012 26 493.883 25.8182 494.966 25.8182C496.376 25.8182 497.633 26.1742 498.739 26.8864C499.845 27.5985 500.713 28.625 501.341 29.9659C501.978 31.3068 502.296 32.9205 502.296 34.8068C502.296 36.6932 501.982 38.3106 501.353 39.6591C500.724 41 499.86 42.0341 498.762 42.7614C497.663 43.4811 496.41 43.8409 495.001 43.8409C493.94 43.8409 493.073 43.6629 492.398 43.3068C491.732 42.9508 491.209 42.5341 490.83 42.0568C490.451 41.5795 490.16 41.1553 489.955 40.7841H489.751V50.0455H486.353ZM489.682 34.7727C489.682 36 489.86 37.0758 490.216 38C490.573 38.9242 491.088 39.6477 491.762 40.1705C492.436 40.6856 493.262 40.9432 494.239 40.9432C495.254 40.9432 496.103 40.6742 496.785 40.1364C497.466 39.5909 497.982 38.8523 498.33 37.9205C498.686 36.9886 498.864 35.9394 498.864 34.7727C498.864 33.6212 498.69 32.5871 498.341 31.6705C498.001 30.7538 497.485 30.0303 496.796 29.5C496.114 28.9697 495.262 28.7045 494.239 28.7045C493.254 28.7045 492.421 28.9583 491.739 29.4659C491.065 29.9735 490.554 30.6818 490.205 31.5909C489.857 32.5 489.682 33.5606 489.682 34.7727ZM510.782 43.8864C509.676 43.8864 508.676 43.6818 507.782 43.2727C506.888 42.8561 506.18 42.2538 505.657 41.4659C505.142 40.678 504.885 39.7121 504.885 38.5682C504.885 37.5833 505.074 36.7727 505.453 36.1364C505.832 35.5 506.343 34.9962 506.987 34.625C507.631 34.2538 508.351 33.9735 509.146 33.7841C509.941 33.5947 510.752 33.4508 511.578 33.3523C512.623 33.2311 513.472 33.1326 514.123 33.0568C514.775 32.9735 515.248 32.8409 515.544 32.6591C515.839 32.4773 515.987 32.1818 515.987 31.7727V31.6932C515.987 30.7008 515.707 29.9318 515.146 29.3864C514.593 28.8409 513.767 28.5682 512.669 28.5682C511.525 28.5682 510.623 28.822 509.964 29.3295C509.313 29.8295 508.862 30.3864 508.612 31L505.419 30.2727C505.798 29.2121 506.351 28.3561 507.078 27.7045C507.813 27.0455 508.657 26.5682 509.612 26.2727C510.566 25.9697 511.57 25.8182 512.623 25.8182C513.32 25.8182 514.059 25.9015 514.839 26.0682C515.627 26.2273 516.362 26.5227 517.044 26.9545C517.733 27.3864 518.298 28.0038 518.737 28.8068C519.176 29.6023 519.396 30.6364 519.396 31.9091V43.5H516.078V41.1136H515.941C515.722 41.553 515.392 41.9848 514.953 42.4091C514.513 42.8333 513.949 43.1856 513.26 43.4659C512.57 43.7462 511.744 43.8864 510.782 43.8864ZM511.521 41.1591C512.46 41.1591 513.263 40.9735 513.93 40.6023C514.604 40.2311 515.116 39.7462 515.464 39.1477C515.82 38.5417 515.998 37.8939 515.998 37.2045V34.9545C515.877 35.0758 515.642 35.1894 515.294 35.2955C514.953 35.3939 514.563 35.4811 514.123 35.5568C513.684 35.625 513.256 35.6894 512.839 35.75C512.423 35.803 512.074 35.8485 511.794 35.8864C511.135 35.9697 510.532 36.1098 509.987 36.3068C509.449 36.5038 509.017 36.7879 508.691 37.1591C508.373 37.5227 508.214 38.0076 508.214 38.6136C508.214 39.4545 508.525 40.0909 509.146 40.5227C509.767 40.947 510.559 41.1591 511.521 41.1591ZM526.919 20.2273V43.5H523.522V20.2273H526.919ZM534.488 20.2273V43.5H531.09V20.2273H534.488ZM538.659 43.5V26.0455H542.057V43.5H538.659ZM540.375 23.3523C539.784 23.3523 539.277 23.1553 538.852 22.7614C538.436 22.3598 538.227 21.8826 538.227 21.3295C538.227 20.7689 538.436 20.2917 538.852 19.8977C539.277 19.4962 539.784 19.2955 540.375 19.2955C540.966 19.2955 541.47 19.4962 541.886 19.8977C542.311 20.2917 542.523 20.7689 542.523 21.3295C542.523 21.8826 542.311 22.3598 541.886 22.7614C541.47 23.1553 540.966 23.3523 540.375 23.3523ZM167.013 56.2273H171.274L178.684 74.3182H178.956L186.365 56.2273H190.627V79.5H187.286V62.6591H187.07L180.206 79.4659H177.434L170.57 62.6477H170.354V79.5H167.013V56.2273ZM195.332 56.2273H199.593L207.002 74.3182H207.275L214.684 56.2273H218.945V79.5H215.605V62.6591H215.389L208.525 79.4659H205.752L198.889 62.6477H198.673V79.5H195.332V56.2273ZM223.378 79.5V62.0455H226.776V79.5H223.378ZM225.094 59.3523C224.503 59.3523 223.995 59.1553 223.571 58.7614C223.154 58.3598 222.946 57.8826 222.946 57.3295C222.946 56.7689 223.154 56.2917 223.571 55.8977C223.995 55.4962 224.503 55.2955 225.094 55.2955C225.685 55.2955 226.188 55.4962 226.605 55.8977C227.029 56.2917 227.241 56.7689 227.241 57.3295C227.241 57.8826 227.029 58.3598 226.605 58.7614C226.188 59.1553 225.685 59.3523 225.094 59.3523ZM234.344 56.2273V79.5H230.947V56.2273H234.344ZM246.663 62.0455V64.7727H237.129V62.0455H246.663ZM239.686 57.8636H243.084V74.375C243.084 75.0341 243.182 75.5303 243.379 75.8636C243.576 76.1894 243.83 76.4129 244.14 76.5341C244.459 76.6477 244.803 76.7045 245.174 76.7045C245.447 76.7045 245.686 76.6856 245.89 76.6477C246.095 76.6098 246.254 76.5795 246.368 76.5568L246.981 79.3636C246.784 79.4394 246.504 79.5152 246.14 79.5909C245.777 79.6742 245.322 79.7197 244.777 79.7273C243.883 79.7424 243.049 79.5833 242.277 79.25C241.504 78.9167 240.879 78.4015 240.402 77.7045C239.924 77.0076 239.686 76.1326 239.686 75.0795V57.8636ZM261.215 73.5795L261.193 69.4318H261.784L268.738 62.0455H272.806L264.874 70.4545H264.34L261.215 73.5795ZM258.09 79.5V56.2273H261.488V79.5H258.09ZM269.113 79.5L262.863 71.2045L265.204 68.8295L273.284 79.5H269.113ZM282.136 79.8523C280.5 79.8523 279.072 79.4773 277.852 78.7273C276.633 77.9773 275.686 76.928 275.011 75.5795C274.337 74.2311 274 72.6553 274 70.8523C274 69.0417 274.337 67.4583 275.011 66.1023C275.686 64.7462 276.633 63.6932 277.852 62.9432C279.072 62.1932 280.5 61.8182 282.136 61.8182C283.773 61.8182 285.201 62.1932 286.42 62.9432C287.64 63.6932 288.587 64.7462 289.261 66.1023C289.936 67.4583 290.273 69.0417 290.273 70.8523C290.273 72.6553 289.936 74.2311 289.261 75.5795C288.587 76.928 287.64 77.9773 286.42 78.7273C285.201 79.4773 283.773 79.8523 282.136 79.8523ZM282.148 77C283.208 77 284.087 76.7197 284.784 76.1591C285.481 75.5985 285.996 74.8523 286.33 73.9205C286.67 72.9886 286.841 71.9621 286.841 70.8409C286.841 69.7273 286.67 68.7045 286.33 67.7727C285.996 66.8333 285.481 66.0795 284.784 65.5114C284.087 64.9432 283.208 64.6591 282.148 64.6591C281.08 64.6591 280.193 64.9432 279.489 65.5114C278.792 66.0795 278.273 66.8333 277.932 67.7727C277.598 68.7045 277.432 69.7273 277.432 70.8409C277.432 71.9621 277.598 72.9886 277.932 73.9205C278.273 74.8523 278.792 75.5985 279.489 76.1591C280.193 76.7197 281.08 77 282.148 77ZM278.716 59.9318L276.432 59.8636C276.432 58.6061 276.769 57.6023 277.443 56.8523C278.125 56.1023 278.966 55.7273 279.966 55.7273C280.428 55.7273 280.833 55.8068 281.182 55.9659C281.53 56.1174 281.856 56.2955 282.159 56.5C282.47 56.697 282.777 56.875 283.08 57.0341C283.39 57.1856 283.735 57.2614 284.114 57.2614C284.553 57.2614 284.909 57.0947 285.182 56.7614C285.462 56.428 285.602 56.0152 285.602 55.5227L287.841 55.6705C287.841 56.9356 287.5 57.9318 286.818 58.6591C286.136 59.3788 285.299 59.7424 284.307 59.75C283.769 59.75 283.322 59.6742 282.966 59.5227C282.617 59.3636 282.307 59.1856 282.034 58.9886C281.761 58.7841 281.481 58.6023 281.193 58.4432C280.905 58.2841 280.561 58.2045 280.159 58.2045C279.735 58.2045 279.386 58.3712 279.114 58.7045C278.848 59.0303 278.716 59.4394 278.716 59.9318ZM293.665 79.5V62.0455H297.063V79.5H293.665ZM295.381 59.3523C294.79 59.3523 294.283 59.1553 293.859 58.7614C293.442 58.3598 293.234 57.8826 293.234 57.3295C293.234 56.7689 293.442 56.2917 293.859 55.8977C294.283 55.4962 294.79 55.2955 295.381 55.2955C295.972 55.2955 296.476 55.4962 296.893 55.8977C297.317 56.2917 297.529 56.7689 297.529 57.3295C297.529 57.8826 297.317 58.3598 296.893 58.7614C296.476 59.1553 295.972 59.3523 295.381 59.3523ZM304.359 73.5795L304.336 69.4318H304.927L311.882 62.0455H315.95L308.018 70.4545H307.484L304.359 73.5795ZM301.234 79.5V56.2273H304.632V79.5H301.234ZM312.257 79.5L306.007 71.2045L308.348 68.8295L316.427 79.5H312.257ZM325.451 79.8523C323.731 79.8523 322.25 79.4848 321.007 78.75C319.773 78.0076 318.818 76.9659 318.144 75.625C317.477 74.2765 317.144 72.697 317.144 70.8864C317.144 69.0985 317.477 67.5227 318.144 66.1591C318.818 64.7955 319.757 63.7311 320.962 62.9659C322.174 62.2008 323.591 61.8182 325.212 61.8182C326.197 61.8182 327.151 61.9811 328.076 62.3068C329 62.6326 329.829 63.1439 330.564 63.8409C331.299 64.5379 331.879 65.4432 332.303 66.5568C332.727 67.6629 332.939 69.0076 332.939 70.5909V71.7955H319.064V69.25H329.61C329.61 68.3561 329.428 67.5644 329.064 66.875C328.701 66.178 328.189 65.6288 327.53 65.2273C326.879 64.8258 326.113 64.625 325.235 64.625C324.28 64.625 323.447 64.8598 322.735 65.3295C322.03 65.7917 321.485 66.3977 321.098 67.1477C320.72 67.8902 320.53 68.697 320.53 69.5682V71.5568C320.53 72.7235 320.735 73.7159 321.144 74.5341C321.56 75.3523 322.14 75.9773 322.882 76.4091C323.625 76.8333 324.492 77.0455 325.485 77.0455C326.129 77.0455 326.716 76.9545 327.246 76.7727C327.776 76.5833 328.235 76.303 328.621 75.9318C329.007 75.5606 329.303 75.1023 329.507 74.5568L332.723 75.1364C332.466 76.0833 332.004 76.9129 331.337 77.625C330.678 78.3295 329.848 78.8788 328.848 79.2727C327.856 79.6591 326.723 79.8523 325.451 79.8523ZM340.73 76.3182L340.559 77.5568C340.445 78.4659 340.252 79.4129 339.98 80.3977C339.714 81.3902 339.438 82.3106 339.15 83.1591C338.87 84.0076 338.639 84.6818 338.457 85.1818H336.048C336.146 84.7121 336.283 84.0758 336.457 83.2727C336.631 82.4773 336.802 81.5871 336.968 80.6023C337.135 79.6174 337.26 78.6136 337.343 77.5909L337.457 76.3182H340.73ZM352.822 79.5V62.0455H356.083V64.8864H356.299C356.663 63.9242 357.257 63.1742 358.083 62.6364C358.909 62.0909 359.897 61.8182 361.049 61.8182C362.216 61.8182 363.193 62.0909 363.981 62.6364C364.776 63.1818 365.363 63.9318 365.742 64.8864H365.924C366.341 63.9545 367.003 63.2121 367.913 62.6591C368.822 62.0985 369.905 61.8182 371.163 61.8182C372.746 61.8182 374.038 62.3144 375.038 63.3068C376.045 64.2992 376.549 65.7955 376.549 67.7955V79.5H373.151V68.1136C373.151 66.9318 372.829 66.0758 372.185 65.5455C371.541 65.0152 370.772 64.75 369.878 64.75C368.772 64.75 367.913 65.0909 367.299 65.7727C366.685 66.447 366.378 67.3144 366.378 68.375V79.5H362.992V67.8977C362.992 66.9508 362.697 66.1894 362.106 65.6136C361.515 65.0379 360.746 64.75 359.799 64.75C359.155 64.75 358.56 64.9205 358.015 65.2614C357.477 65.5947 357.041 66.0606 356.708 66.6591C356.382 67.2576 356.219 67.9508 356.219 68.7386V79.5H352.822ZM380.703 79.5V62.0455H384.101V79.5H380.703ZM382.419 59.3523C381.828 59.3523 381.32 59.1553 380.896 58.7614C380.479 58.3598 380.271 57.8826 380.271 57.3295C380.271 56.7689 380.479 56.2917 380.896 55.8977C381.32 55.4962 381.828 55.2955 382.419 55.2955C383.01 55.2955 383.513 55.4962 383.93 55.8977C384.354 56.2917 384.566 56.7689 384.566 57.3295C384.566 57.8826 384.354 58.3598 383.93 58.7614C383.513 59.1553 383.01 59.3523 382.419 59.3523ZM401.351 66.3068L398.272 66.8523C398.143 66.4583 397.938 66.0833 397.658 65.7273C397.385 65.3712 397.014 65.0795 396.544 64.8523C396.075 64.625 395.487 64.5114 394.783 64.5114C393.821 64.5114 393.018 64.7273 392.374 65.1591C391.73 65.5833 391.408 66.1326 391.408 66.8068C391.408 67.3902 391.624 67.8598 392.056 68.2159C392.487 68.572 393.184 68.8636 394.147 69.0909L396.919 69.7273C398.525 70.0985 399.722 70.6705 400.51 71.4432C401.298 72.2159 401.692 73.2197 401.692 74.4545C401.692 75.5 401.389 76.4318 400.783 77.25C400.184 78.0606 399.347 78.697 398.272 79.1591C397.203 79.6212 395.965 79.8523 394.556 79.8523C392.601 79.8523 391.006 79.4356 389.772 78.6023C388.537 77.7614 387.779 76.5682 387.499 75.0227L390.783 74.5227C390.987 75.3788 391.408 76.0265 392.044 76.4659C392.681 76.8977 393.51 77.1136 394.533 77.1136C395.647 77.1136 396.537 76.8826 397.203 76.4205C397.87 75.9508 398.203 75.3788 398.203 74.7045C398.203 74.1591 397.999 73.7008 397.59 73.3295C397.188 72.9583 396.571 72.678 395.737 72.4886L392.783 71.8409C391.154 71.4697 389.95 70.8788 389.169 70.0682C388.397 69.2576 388.01 68.2311 388.01 66.9886C388.01 65.9583 388.298 65.0568 388.874 64.2841C389.45 63.5114 390.245 62.9091 391.26 62.4773C392.275 62.0379 393.438 61.8182 394.749 61.8182C396.635 61.8182 398.12 62.2273 399.203 63.0455C400.287 63.8561 401.003 64.9432 401.351 66.3068ZM420.449 79.8523C418.813 79.8523 417.384 79.4773 416.165 78.7273C414.945 77.9773 413.998 76.928 413.324 75.5795C412.65 74.2311 412.312 72.6553 412.312 70.8523C412.312 69.0417 412.65 67.4583 413.324 66.1023C413.998 64.7462 414.945 63.6932 416.165 62.9432C417.384 62.1932 418.813 61.8182 420.449 61.8182C422.085 61.8182 423.513 62.1932 424.733 62.9432C425.953 63.6932 426.9 64.7462 427.574 66.1023C428.248 67.4583 428.585 69.0417 428.585 70.8523C428.585 72.6553 428.248 74.2311 427.574 75.5795C426.9 76.928 425.953 77.9773 424.733 78.7273C423.513 79.4773 422.085 79.8523 420.449 79.8523ZM420.46 77C421.521 77 422.4 76.7197 423.097 76.1591C423.794 75.5985 424.309 74.8523 424.642 73.9205C424.983 72.9886 425.153 71.9621 425.153 70.8409C425.153 69.7273 424.983 68.7045 424.642 67.7727C424.309 66.8333 423.794 66.0795 423.097 65.5114C422.4 64.9432 421.521 64.6591 420.46 64.6591C419.392 64.6591 418.506 64.9432 417.801 65.5114C417.104 66.0795 416.585 66.8333 416.244 67.7727C415.911 68.7045 415.744 69.7273 415.744 70.8409C415.744 71.9621 415.911 72.9886 416.244 73.9205C416.585 74.8523 417.104 75.5985 417.801 76.1591C418.506 76.7197 419.392 77 420.46 77ZM435.376 56.2273V79.5H431.978V56.2273H435.376ZM450.603 72.2614V62.0455H454.013V79.5H450.672V76.4773H450.49C450.088 77.4091 449.444 78.1856 448.558 78.8068C447.679 79.4205 446.584 79.7273 445.274 79.7273C444.153 79.7273 443.16 79.4811 442.297 78.9886C441.441 78.4886 440.766 77.75 440.274 76.7727C439.789 75.7955 439.547 74.5871 439.547 73.1477V62.0455H442.944V72.7386C442.944 73.928 443.274 74.875 443.933 75.5795C444.592 76.2841 445.448 76.6364 446.501 76.6364C447.138 76.6364 447.77 76.4773 448.399 76.1591C449.035 75.8409 449.562 75.3598 449.978 74.7159C450.403 74.072 450.611 73.2538 450.603 72.2614ZM461.576 56.2273V79.5H458.178V56.2273H461.576ZM465.747 79.5V62.0455H469.144V79.5H465.747ZM467.463 59.3523C466.872 59.3523 466.364 59.1553 465.94 58.7614C465.523 58.3598 465.315 57.8826 465.315 57.3295C465.315 56.7689 465.523 56.2917 465.94 55.8977C466.364 55.4962 466.872 55.2955 467.463 55.2955C468.053 55.2955 468.557 55.4962 468.974 55.8977C469.398 56.2917 469.61 56.7689 469.61 57.3295C469.61 57.8826 469.398 58.3598 468.974 58.7614C468.557 59.1553 468.053 59.3523 467.463 59.3523ZM476.713 69.1364V79.5H473.315V62.0455H476.577V64.8864H476.793C477.194 63.9621 477.823 63.2197 478.679 62.6591C479.543 62.0985 480.63 61.8182 481.94 61.8182C483.13 61.8182 484.171 62.0682 485.065 62.5682C485.959 63.0606 486.652 63.7955 487.145 64.7727C487.637 65.75 487.884 66.9583 487.884 68.3977V79.5H484.486V68.8068C484.486 67.5417 484.156 66.553 483.497 65.8409C482.838 65.1212 481.933 64.7614 480.781 64.7614C479.993 64.7614 479.293 64.9318 478.679 65.2727C478.073 65.6136 477.592 66.1136 477.236 66.7727C476.887 67.4242 476.713 68.2121 476.713 69.1364ZM499.563 79.8523C497.843 79.8523 496.362 79.4848 495.12 78.75C493.885 78.0076 492.93 76.9659 492.256 75.625C491.59 74.2765 491.256 72.697 491.256 70.8864C491.256 69.0985 491.59 67.5227 492.256 66.1591C492.93 64.7955 493.87 63.7311 495.074 62.9659C496.287 62.2008 497.703 61.8182 499.324 61.8182C500.309 61.8182 501.264 61.9811 502.188 62.3068C503.112 62.6326 503.942 63.1439 504.677 63.8409C505.412 64.5379 505.991 65.4432 506.415 66.5568C506.84 67.6629 507.052 69.0076 507.052 70.5909V71.7955H493.177V69.25H503.722C503.722 68.3561 503.54 67.5644 503.177 66.875C502.813 66.178 502.302 65.6288 501.643 65.2273C500.991 64.8258 500.226 64.625 499.347 64.625C498.393 64.625 497.559 64.8598 496.847 65.3295C496.143 65.7917 495.597 66.3977 495.211 67.1477C494.832 67.8902 494.643 68.697 494.643 69.5682V71.5568C494.643 72.7235 494.847 73.7159 495.256 74.5341C495.673 75.3523 496.252 75.9773 496.995 76.4091C497.737 76.8333 498.605 77.0455 499.597 77.0455C500.241 77.0455 500.828 76.9545 501.358 76.7727C501.889 76.5833 502.347 76.303 502.733 75.9318C503.12 75.5606 503.415 75.1023 503.62 74.5568L506.836 75.1364C506.578 76.0833 506.116 76.9129 505.449 77.625C504.79 78.3295 503.961 78.8788 502.961 79.2727C501.968 79.6591 500.836 79.8523 499.563 79.8523ZM514.706 56.2273L514.41 72.8068H511.263L510.967 56.2273H514.706ZM512.842 79.7159C512.213 79.7159 511.675 79.4962 511.228 79.0568C510.781 78.6098 510.562 78.072 510.569 77.4432C510.562 76.822 510.781 76.2917 511.228 75.8523C511.675 75.4053 512.213 75.1818 512.842 75.1818C513.456 75.1818 513.986 75.4053 514.433 75.8523C514.88 76.2917 515.107 76.822 515.115 77.4432C515.107 77.8598 514.997 78.2424 514.785 78.5909C514.581 78.9318 514.308 79.2045 513.967 79.4091C513.626 79.6136 513.251 79.7159 512.842 79.7159Z" fill="#F3FFAD"/>
</svg>
