<svg width="682" height="100" viewBox="0 0 682 100" fill="none" xmlns="http://www.w3.org/2000/svg">
<path d="M64 16C64 9.37259 69.3726 4 76 4H606C612.627 4 618 9.37258 618 16V84C618 90.6274 612.627 96 606 96H76C69.3726 96 64 90.6274 64 84V16Z" fill="#013216" fill-opacity="0.75"/>
<path d="M462.365 49.024L465.896 38.4199L450.695 41.6807C449.984 43.8321 449.099 46.4797 448.251 49.024H441.75C441.594 49.3956 441.528 49.7779 441.528 50.1887C441.528 52.1818 442.875 53.8442 445.15 54.5288C445.463 54.6231 445.863 54.7066 446.331 54.7795L445.717 56.6268C444.184 61.2177 443.546 64.5266 443.546 66.3953C443.546 71.1694 446.494 73.9964 451.147 73.9964C453.45 73.9964 455.582 73.2924 458.746 70.7391C458.006 69.242 457.658 67.7076 457.658 65.3125C457.658 63.9061 458.051 61.968 458.746 59.8806C459.162 58.6466 459.724 56.9434 460.379 54.9982H465.007L467 49.024H462.365Z" fill="white"/>
<path d="M433.968 48.4764C429.446 48.4764 423.358 52.6014 422.967 53.3108L429.46 33.8183L414.537 37.0756L402.593 72.9099H416.438L420.782 59.8805C421.918 56.4596 422.946 55.5403 424.571 55.5386H424.581C426.159 55.5386 426.745 57.0091 425.711 60.0993C425.497 60.7482 424.768 62.9334 424.148 64.8004C423.532 66.6513 423.376 67.5349 423.376 68.7672C423.376 71.6493 425.426 73.9998 429.548 73.9998C431.961 73.9998 435.444 72.8157 437.858 70.858C437.353 69.8304 437.086 68.472 437.086 66.95C437.086 66.0966 437.41 64.4821 438.431 61.4149C439.705 57.5923 439.94 56.0596 439.94 54.4558C439.94 50.354 438.129 48.4764 433.968 48.4764Z" fill="white"/>
<path d="M389.568 69.6491C386.062 69.6491 384.822 68.4027 385.465 64.7703H387.757C398.599 64.7703 405.501 61.1662 405.501 54.8863C405.501 51.1844 402.312 47.9342 393.546 47.9342C378.984 47.9342 372.381 55.4001 372.381 64.7703C372.381 70.2643 376.404 73.9964 384.864 73.9964C391.157 73.9964 396.393 72.4513 399.988 69.6385L399.179 67.416C395.289 69.1905 392.99 69.6491 389.568 69.6491ZM386.493 60.9706C389.106 53.2568 390.132 52.2778 392.1 52.2778C393.729 52.2778 394.195 54.1234 393.004 57.7097C392.209 60.0886 388.996 62.0551 386.146 62.0551C386.253 61.7067 386.367 61.3429 386.493 60.9706Z" fill="white"/>
<path d="M378.138 33.8183L362.937 37.0756L356.423 56.6267C354.891 61.2176 354.252 64.5265 354.252 66.3952C354.252 71.1693 357.2 73.9963 361.851 73.9963C364.15 73.9963 366.296 73.2923 369.452 70.7391C368.712 69.2419 368.369 67.7075 368.369 65.3125C368.369 63.9061 368.754 61.9679 369.452 59.8805L378.138 33.8183Z" fill="white"/>
<path d="M354.536 49.024H340.97L337.714 58.796C335.031 66.8291 334.318 67.4782 332.284 67.4782C330.853 67.4782 330.252 65.9793 332.284 59.8806C333.082 57.4838 334.423 53.3269 335.858 49.024H322.3L319.768 56.6268C318.239 61.2177 317.626 64.5266 317.626 66.3953C317.626 71.1694 320.578 73.9964 325.227 73.9964C328.449 73.9964 332.339 71.8131 335.013 70.1809C336.08 72.5527 338.059 74 341.193 74C343.487 74 347.408 73.2924 350.553 70.7392C349.949 69.514 349.581 68.2321 349.581 66.1287C349.581 64.2565 350.007 62.7309 350.592 60.9707C351.394 58.5686 353.117 53.3268 354.536 49.024Z" fill="white"/>
<path d="M319.872 49.024H315.237L318.772 38.4199L303.574 41.6807L301.123 49.024H294.622C294.472 49.3956 294.4 49.7779 294.4 50.1887C294.407 52.1818 295.751 53.8442 298.021 54.5288C298.335 54.6231 298.735 54.7066 299.206 54.7795C298.969 55.4836 298.762 56.1094 298.594 56.6268C297.056 61.2177 296.425 64.5266 296.425 66.3953C296.425 71.1694 299.366 73.9964 304.023 73.9964C306.322 73.9964 308.461 73.2924 311.622 70.7391C310.879 69.242 310.534 67.7076 310.534 65.3125C310.534 63.9061 310.927 61.968 311.622 59.8806C312.034 58.6466 312.596 56.9434 313.251 54.9982H317.878L319.872 49.024Z" fill="white"/>
<path d="M286.683 48.4764C282.158 48.4764 276.068 52.6014 275.686 53.3108L282.18 33.8183L267.248 37.0756L255.308 72.9099H269.147L273.49 59.8805C274.634 56.4596 275.658 55.5403 277.283 55.5386C278.864 55.5369 279.461 57.0091 278.43 60.0993C278.211 60.7482 277.48 62.9334 276.86 64.8004C276.237 66.6513 276.088 67.5349 276.088 68.7672C276.088 71.6493 278.142 73.9998 282.256 73.9998C284.672 73.9998 288.156 72.8157 290.566 70.858C290.06 69.8304 289.791 68.472 289.791 66.95C289.791 66.0966 290.122 64.4821 291.146 61.4149C292.414 57.5923 292.657 56.0596 292.657 54.4558C292.657 50.354 290.844 48.4764 286.683 48.4764Z" fill="white"/>
<path d="M242.796 35.991C228.679 35.991 215 44.5417 215 60.8284C215 68.8295 222.331 73.9999 230.131 73.9999C244.247 73.9999 257.929 65.4476 257.929 49.1645C257.929 41.1598 250.595 35.991 242.796 35.991ZM239.871 54.9982C235.761 67.3288 234.599 68.7192 231.888 68.7192C229.61 68.7192 228.926 67.3288 233.04 54.9982C237.153 42.6586 238.326 41.2665 241.034 41.2665C243.317 41.2665 243.984 42.6586 239.871 54.9982Z" fill="white"/>
<path d="M242.796 32.3352C247.417 32.3352 251.811 33.8481 255.178 36.5916C255.331 36.7233 255.481 36.8603 255.637 36.9882C258.067 35.7685 259.787 33.6687 259.787 29.8903C259.787 28.5906 259.006 26.7948 258.027 26C257.239 26.5903 256.426 27.001 255.169 27.3798C254.426 27.5984 253.407 27.7176 252.307 27.7176H235.576C233.152 27.7176 231.404 27.938 230.426 28.2296C227.477 29.1186 226.397 30.6637 226.397 32.6088C226.397 33.8979 226.835 34.9879 227.534 35.6724C232.085 33.4978 237.32 32.3352 242.796 32.3352Z" fill="white"/>
</svg>
