<svg width="682" height="100" viewBox="0 0 682 100" fill="none" xmlns="http://www.w3.org/2000/svg">
<path d="M64 16C64 9.37259 69.3726 4 76 4H606C612.627 4 618 9.37258 618 16V84C618 90.6274 612.627 96 606 96H76C69.3726 96 64 90.6274 64 84V16Z" fill="#013216" fill-opacity="0.75"/>
<path d="M167.57 25.104C174.146 25.104 179.258 26.472 182.906 29.208C186.554 31.944 188.378 36 188.378 41.376C188.378 46.992 186.578 51.24 182.978 54.12C179.426 56.952 174.65 58.368 168.65 58.368H163.25V75H151.442V25.104H167.57ZM167.642 49.872C170.426 49.872 172.538 49.224 173.978 47.928C175.466 46.584 176.21 44.4 176.21 41.376C176.21 36.144 173.282 33.528 167.426 33.528H163.25V49.872H167.642ZM207.322 25.104V75H195.514V25.104H207.322ZM229.315 25.104V65.64H248.755L247.531 75H217.507V25.104H229.315ZM267.129 25.104V75H255.321V25.104H267.129ZM295.785 25.104L279.873 47.496L297.081 75H283.401L267.489 48.36L283.329 25.104H295.785ZM335.898 25.104C342.474 25.104 347.586 26.472 351.234 29.208C354.882 31.944 356.706 36 356.706 41.376C356.706 46.992 354.906 51.24 351.306 54.12C347.754 56.952 342.978 58.368 336.978 58.368H331.578V75H319.77V25.104H335.898ZM335.97 49.872C338.754 49.872 340.866 49.224 342.306 47.928C343.794 46.584 344.538 44.4 344.538 41.376C344.538 36.144 341.61 33.528 335.754 33.528H331.578V49.872H335.97ZM394.442 25.104L393.218 33.528H375.65V45.48H390.986V53.76H375.65V66.504H394.442V75H363.842V25.104H394.442ZM428.92 75L426.328 64.272H411.784L409.264 75H397.024L412.072 25.104H426.4L441.448 75H428.92ZM413.8 55.704H424.312L419.056 33.672L413.8 55.704ZM457.817 25.104V65.64H477.257L476.033 75H446.009V25.104H457.817ZM514.423 25.104L513.199 33.528H495.631V45.48H510.967V53.76H495.631V66.504H514.423V75H483.823V25.104H514.423ZM532.629 25.104L531.189 56.64H521.973L520.533 25.104H532.629ZM526.581 63.192C528.405 63.192 529.941 63.84 531.189 65.136C532.485 66.384 533.133 67.896 533.133 69.672C533.133 71.496 532.485 73.056 531.189 74.352C529.941 75.6 528.405 76.224 526.581 76.224C524.805 76.224 523.269 75.6 521.973 74.352C520.725 73.056 520.101 71.496 520.101 69.672C520.101 67.896 520.725 66.384 521.973 65.136C523.269 63.84 524.805 63.192 526.581 63.192Z" fill="#C5F000"/>
</svg>
