<svg width="300" height="320" viewBox="0 0 300 320" fill="none" xmlns="http://www.w3.org/2000/svg">
<path d="M34.16 51.528C34.16 52.664 33.92 53.672 33.44 54.552C32.96 55.432 32.24 56.128 31.28 56.64C30.336 57.136 29.184 57.384 27.824 57.384C25.776 57.384 24.208 56.856 23.12 55.8C22.048 54.728 21.512 53.304 21.512 51.528V40.392H25.04V51.36C25.04 52.48 25.264 53.32 25.712 53.88C26.16 54.424 26.864 54.696 27.824 54.696C28.784 54.696 29.488 54.424 29.936 53.88C30.4 53.32 30.632 52.48 30.632 51.36V40.392H34.16V51.528ZM47.7991 57H44.8471L44.6791 55.296C44.2311 56 43.6871 56.528 43.0471 56.88C42.4071 57.216 41.6631 57.384 40.8151 57.384C39.6631 57.384 38.7831 57.04 38.1751 56.352C37.5671 55.648 37.2631 54.672 37.2631 53.424V44.28H40.6711V52.992C40.6711 53.664 40.7831 54.144 41.0071 54.432C41.2311 54.704 41.5831 54.84 42.0631 54.84C42.9751 54.84 43.7511 54.288 44.3911 53.184V44.28H47.7991V57ZM61.9164 50.352C61.9164 50.512 61.8924 50.952 61.8444 51.672H53.9004C54.0124 52.824 54.3244 53.64 54.8364 54.12C55.3484 54.6 56.0444 54.84 56.9244 54.84C57.4684 54.84 57.9804 54.752 58.4604 54.576C58.9404 54.4 59.4604 54.12 60.0204 53.736L61.4364 55.656C60.0124 56.808 58.4044 57.384 56.6124 57.384C54.6124 57.384 53.0764 56.784 52.0044 55.584C50.9324 54.384 50.3964 52.76 50.3964 50.712C50.3964 49.416 50.6204 48.256 51.0684 47.232C51.5324 46.192 52.1964 45.376 53.0604 44.784C53.9404 44.192 54.9804 43.896 56.1804 43.896C57.9884 43.896 59.3964 44.464 60.4044 45.6C61.4124 46.736 61.9164 48.32 61.9164 50.352ZM58.5324 49.392C58.5324 47.28 57.7724 46.224 56.2524 46.224C55.5484 46.224 54.9964 46.488 54.5964 47.016C54.2124 47.528 53.9804 48.368 53.9004 49.536H58.5324V49.392ZM67.5511 57.384C66.5111 57.384 65.7031 57.088 65.1271 56.496C64.5511 55.888 64.2631 55.032 64.2631 53.928V39.216L67.6711 38.832V53.832C67.6711 54.392 67.9031 54.672 68.3671 54.672C68.6231 54.672 68.8471 54.624 69.0391 54.528L69.7351 56.952C69.0791 57.24 68.3511 57.384 67.5511 57.384ZM87.0641 53.472C87.0641 53.968 87.1361 54.336 87.2801 54.576C87.4241 54.8 87.6641 54.968 88.0001 55.08L87.2801 57.336C86.5281 57.272 85.9121 57.096 85.4321 56.808C84.9681 56.52 84.6081 56.072 84.3521 55.464C83.5201 56.744 82.2481 57.384 80.5361 57.384C79.2721 57.384 78.2641 57.024 77.5121 56.304C76.7761 55.568 76.4081 54.616 76.4081 53.448C76.4081 52.056 76.9121 50.992 77.9201 50.256C78.9281 49.52 80.3761 49.152 82.2641 49.152H83.7281V48.528C83.7281 47.744 83.5521 47.2 83.2001 46.896C82.8481 46.592 82.2641 46.44 81.4481 46.44C80.5521 46.44 79.4321 46.664 78.0881 47.112L77.3201 44.832C78.9041 44.208 80.4721 43.896 82.0241 43.896C83.7521 43.896 85.0241 44.272 85.8401 45.024C86.6561 45.76 87.0641 46.864 87.0641 48.336V53.472ZM81.4721 54.936C82.4321 54.936 83.1841 54.464 83.7281 53.52V51.096H82.6001C80.7601 51.096 79.8401 51.784 79.8401 53.16C79.8401 53.72 79.9761 54.16 80.2481 54.48C80.5361 54.784 80.9441 54.936 81.4721 54.936ZM100.072 53.472C100.072 53.968 100.144 54.336 100.288 54.576C100.432 54.8 100.672 54.968 101.008 55.08L100.288 57.336C99.5359 57.272 98.9199 57.096 98.4399 56.808C97.9759 56.52 97.6159 56.072 97.3599 55.464C96.5279 56.744 95.2559 57.384 93.5439 57.384C92.2799 57.384 91.2719 57.024 90.5199 56.304C89.7839 55.568 89.4159 54.616 89.4159 53.448C89.4159 52.056 89.9199 50.992 90.9279 50.256C91.9359 49.52 93.3839 49.152 95.2719 49.152H96.7359V48.528C96.7359 47.744 96.5599 47.2 96.2079 46.896C95.8559 46.592 95.2719 46.44 94.4559 46.44C93.5599 46.44 92.4399 46.664 91.0959 47.112L90.3279 44.832C91.9119 44.208 93.4799 43.896 95.0319 43.896C96.7599 43.896 98.0319 44.272 98.8479 45.024C99.6639 45.76 100.072 46.864 100.072 48.336V53.472ZM94.4799 54.936C95.4399 54.936 96.1919 54.464 96.7359 53.52V51.096H95.6079C93.7679 51.096 92.8479 51.784 92.8479 53.16C92.8479 53.72 92.9839 54.16 93.2559 54.48C93.5439 54.784 93.9519 54.936 94.4799 54.936ZM107.467 43.896C109.259 43.896 110.795 44.408 112.075 45.432L110.779 47.376C109.707 46.704 108.651 46.368 107.611 46.368C107.051 46.368 106.619 46.472 106.315 46.68C106.011 46.888 105.859 47.168 105.859 47.52C105.859 47.776 105.923 47.992 106.051 48.168C106.195 48.344 106.451 48.512 106.819 48.672C107.203 48.832 107.771 49.024 108.523 49.248C109.867 49.616 110.867 50.112 111.523 50.736C112.179 51.344 112.507 52.184 112.507 53.256C112.507 54.104 112.259 54.84 111.763 55.464C111.283 56.088 110.627 56.568 109.795 56.904C108.963 57.224 108.035 57.384 107.011 57.384C105.939 57.384 104.963 57.224 104.083 56.904C103.203 56.568 102.451 56.112 101.827 55.536L103.507 53.664C104.579 54.496 105.715 54.912 106.915 54.912C107.555 54.912 108.059 54.792 108.427 54.552C108.811 54.296 109.003 53.952 109.003 53.52C109.003 53.184 108.931 52.92 108.787 52.728C108.643 52.536 108.379 52.36 107.995 52.2C107.611 52.024 107.011 51.824 106.195 51.6C104.915 51.248 103.963 50.752 103.339 50.112C102.731 49.456 102.427 48.648 102.427 47.688C102.427 46.968 102.635 46.32 103.051 45.744C103.467 45.168 104.051 44.72 104.803 44.4C105.571 44.064 106.459 43.896 107.467 43.896ZM122.335 56.4C121.871 56.72 121.343 56.96 120.751 57.12C120.175 57.296 119.599 57.384 119.023 57.384C117.711 57.368 116.719 56.992 116.047 56.256C115.375 55.52 115.039 54.44 115.039 53.016V46.68H113.143V44.28H115.039V41.496L118.447 41.088V44.28H121.375L121.039 46.68H118.447V52.944C118.447 53.552 118.551 53.992 118.759 54.264C118.967 54.536 119.287 54.672 119.719 54.672C120.151 54.672 120.631 54.528 121.159 54.24L122.335 56.4ZM133.306 53.472C133.306 53.968 133.378 54.336 133.522 54.576C133.666 54.8 133.906 54.968 134.242 55.08L133.522 57.336C132.77 57.272 132.154 57.096 131.674 56.808C131.21 56.52 130.85 56.072 130.594 55.464C129.762 56.744 128.49 57.384 126.778 57.384C125.514 57.384 124.506 57.024 123.754 56.304C123.018 55.568 122.65 54.616 122.65 53.448C122.65 52.056 123.154 50.992 124.162 50.256C125.17 49.52 126.618 49.152 128.506 49.152H129.97V48.528C129.97 47.744 129.794 47.2 129.442 46.896C129.09 46.592 128.506 46.44 127.69 46.44C126.794 46.44 125.674 46.664 124.33 47.112L123.562 44.832C125.146 44.208 126.714 43.896 128.266 43.896C129.994 43.896 131.266 44.272 132.082 45.024C132.898 45.76 133.306 46.864 133.306 48.336V53.472ZM127.714 54.936C128.674 54.936 129.426 54.464 129.97 53.52V51.096H128.842C127.002 51.096 126.082 51.784 126.082 53.16C126.082 53.72 126.218 54.16 126.49 54.48C126.778 54.784 127.186 54.936 127.714 54.936ZM139.645 57.384C138.605 57.384 137.797 57.088 137.221 56.496C136.645 55.888 136.357 55.032 136.357 53.928V39.216L139.765 38.832V53.832C139.765 54.392 139.997 54.672 140.461 54.672C140.717 54.672 140.941 54.624 141.133 54.528L141.829 56.952C141.173 57.24 140.445 57.384 139.645 57.384ZM156.542 43.896C157.646 43.896 158.51 44.24 159.134 44.928C159.774 45.6 160.094 46.536 160.094 47.736V57H156.686V48.312C156.686 47.624 156.566 47.144 156.326 46.872C156.086 46.584 155.742 46.44 155.294 46.44C154.398 46.44 153.582 47.024 152.846 48.192V57H149.438V39.216L152.846 38.856V45.72C153.358 45.112 153.91 44.656 154.502 44.352C155.11 44.048 155.79 43.896 156.542 43.896ZM173.056 53.472C173.056 53.968 173.128 54.336 173.272 54.576C173.416 54.8 173.656 54.968 173.992 55.08L173.272 57.336C172.52 57.272 171.904 57.096 171.424 56.808C170.96 56.52 170.6 56.072 170.344 55.464C169.512 56.744 168.24 57.384 166.528 57.384C165.264 57.384 164.256 57.024 163.504 56.304C162.768 55.568 162.4 54.616 162.4 53.448C162.4 52.056 162.904 50.992 163.912 50.256C164.92 49.52 166.368 49.152 168.256 49.152H169.72V48.528C169.72 47.744 169.544 47.2 169.192 46.896C168.84 46.592 168.256 46.44 167.44 46.44C166.544 46.44 165.424 46.664 164.08 47.112L163.312 44.832C164.896 44.208 166.464 43.896 168.016 43.896C169.744 43.896 171.016 44.272 171.832 45.024C172.648 45.76 173.056 46.864 173.056 48.336V53.472ZM167.464 54.936C168.424 54.936 169.176 54.464 169.72 53.52V51.096H168.592C166.752 51.096 165.832 51.784 165.832 53.16C165.832 53.72 165.968 54.16 166.24 54.48C166.528 54.784 166.936 54.936 167.464 54.936ZM179.869 38.832V57H176.461V39.216L179.869 38.832ZM187.597 44.28L183.541 49.872L187.957 57H184.093L179.989 50.04L184.069 44.28H187.597ZM192.877 38.832V57H189.469V39.216L192.877 38.832ZM200.605 44.28L196.549 49.872L200.965 57H197.101L192.997 50.04L197.077 44.28H200.605ZM211.845 53.472C211.845 53.968 211.917 54.336 212.061 54.576C212.205 54.8 212.445 54.968 212.781 55.08L212.061 57.336C211.309 57.272 210.693 57.096 210.213 56.808C209.749 56.52 209.389 56.072 209.133 55.464C208.301 56.744 207.029 57.384 205.317 57.384C204.053 57.384 203.045 57.024 202.293 56.304C201.557 55.568 201.189 54.616 201.189 53.448C201.189 52.056 201.693 50.992 202.701 50.256C203.709 49.52 205.157 49.152 207.045 49.152H208.509V48.528C208.509 47.744 208.333 47.2 207.981 46.896C207.629 46.592 207.045 46.44 206.229 46.44C205.333 46.44 204.213 46.664 202.869 47.112L202.101 44.832C203.685 44.208 205.253 43.896 206.805 43.896C208.533 43.896 209.805 44.272 210.621 45.024C211.437 45.76 211.845 46.864 211.845 48.336V53.472ZM206.253 54.936C207.213 54.936 207.965 54.464 208.509 53.52V51.096H207.381C205.541 51.096 204.621 51.784 204.621 53.16C204.621 53.72 204.757 54.16 205.029 54.48C205.317 54.784 205.725 54.936 206.253 54.936ZM222.354 43.896C223.474 43.896 224.346 44.24 224.97 44.928C225.594 45.6 225.906 46.536 225.906 47.736V57H222.498V48.312C222.498 47.624 222.378 47.144 222.138 46.872C221.914 46.584 221.57 46.44 221.106 46.44C220.626 46.44 220.186 46.592 219.786 46.896C219.402 47.184 219.026 47.624 218.658 48.216V57H215.25V44.28H218.202L218.466 45.888C218.994 45.232 219.57 44.736 220.194 44.4C220.834 44.064 221.554 43.896 222.354 43.896ZM28.256 69.92C28.64 69.92 29.064 69.984 29.528 70.112L28.952 73.4C28.504 73.288 28.128 73.232 27.824 73.232C27.072 73.232 26.488 73.496 26.072 74.024C25.656 74.552 25.328 75.352 25.088 76.424V83H21.68V70.28H24.632L24.944 72.752C25.248 71.856 25.688 71.16 26.264 70.664C26.856 70.168 27.52 69.92 28.256 69.92ZM41.2445 76.352C41.2445 76.512 41.2205 76.952 41.1725 77.672H33.2285C33.3405 78.824 33.6525 79.64 34.1645 80.12C34.6765 80.6 35.3725 80.84 36.2525 80.84C36.7965 80.84 37.3085 80.752 37.7885 80.576C38.2685 80.4 38.7885 80.12 39.3485 79.736L40.7645 81.656C39.3405 82.808 37.7325 83.384 35.9405 83.384C33.9405 83.384 32.4045 82.784 31.3325 81.584C30.2605 80.384 29.7245 78.76 29.7245 76.712C29.7245 75.416 29.9485 74.256 30.3965 73.232C30.8605 72.192 31.5245 71.376 32.3885 70.784C33.2685 70.192 34.3085 69.896 35.5085 69.896C37.3165 69.896 38.7245 70.464 39.7325 71.6C40.7405 72.736 41.2445 74.32 41.2445 76.352ZM37.8605 75.392C37.8605 73.28 37.1005 72.224 35.5805 72.224C34.8765 72.224 34.3245 72.488 33.9245 73.016C33.5405 73.528 33.3085 74.368 33.2285 75.536H37.8605V75.392ZM55.0873 70.976C54.2553 71.296 53.0313 71.456 51.4153 71.456C52.2153 71.808 52.8073 72.248 53.1913 72.776C53.5753 73.288 53.7673 73.936 53.7673 74.72C53.7673 75.536 53.5513 76.272 53.1193 76.928C52.7033 77.568 52.0953 78.072 51.2953 78.44C50.5113 78.808 49.5913 78.992 48.5353 78.992C47.9753 78.992 47.4793 78.936 47.0473 78.824C46.7273 79.032 46.5673 79.312 46.5673 79.664C46.5673 79.92 46.6633 80.128 46.8553 80.288C47.0633 80.432 47.4553 80.504 48.0312 80.504H49.9753C50.9193 80.504 51.7433 80.664 52.4473 80.984C53.1673 81.288 53.7193 81.72 54.1033 82.28C54.5033 82.824 54.7032 83.448 54.7032 84.152C54.7032 85.448 54.1433 86.456 53.0233 87.176C51.9193 87.912 50.3193 88.28 48.2233 88.28C46.7193 88.28 45.5273 88.12 44.6473 87.8C43.7833 87.496 43.1753 87.048 42.8232 86.456C42.4713 85.864 42.2953 85.12 42.2953 84.224H45.3433C45.3433 84.64 45.4233 84.968 45.5833 85.208C45.7433 85.464 46.0313 85.648 46.4473 85.76C46.8793 85.888 47.4953 85.952 48.2953 85.952C49.3993 85.952 50.1673 85.816 50.5993 85.544C51.0473 85.272 51.2713 84.888 51.2713 84.392C51.2713 83.944 51.1033 83.6 50.7673 83.36C50.4313 83.12 49.9353 83 49.2793 83H47.4073C46.1433 83 45.1993 82.768 44.5753 82.304C43.9513 81.824 43.6393 81.224 43.6393 80.504C43.6393 80.056 43.7673 79.624 44.0233 79.208C44.2953 78.776 44.6633 78.416 45.1273 78.128C44.3433 77.696 43.7673 77.192 43.3993 76.616C43.0473 76.024 42.8713 75.32 42.8713 74.504C42.8713 73.576 43.0953 72.768 43.5433 72.08C44.0073 71.376 44.6473 70.84 45.4633 70.472C46.2953 70.088 47.2393 69.896 48.2953 69.896C49.6073 69.928 50.6873 69.816 51.5353 69.56C52.3833 69.304 53.2873 68.904 54.2473 68.36L55.0873 70.976ZM48.3672 72.176C47.7273 72.176 47.2153 72.384 46.8313 72.8C46.4633 73.2 46.2793 73.752 46.2793 74.456C46.2793 75.176 46.4633 75.744 46.8313 76.16C47.2153 76.576 47.7353 76.784 48.3913 76.784C49.0793 76.784 49.5993 76.584 49.9513 76.184C50.3033 75.784 50.4793 75.192 50.4793 74.408C50.4793 72.92 49.7753 72.176 48.3672 72.176ZM66.9476 83H63.9956L63.8276 81.296C63.3796 82 62.8356 82.528 62.1956 82.88C61.5556 83.216 60.8116 83.384 59.9636 83.384C58.8116 83.384 57.9316 83.04 57.3236 82.352C56.7156 81.648 56.4116 80.672 56.4116 79.424V70.28H59.8196V78.992C59.8196 79.664 59.9316 80.144 60.1556 80.432C60.3796 80.704 60.7316 80.84 61.2116 80.84C62.1236 80.84 62.8996 80.288 63.5396 79.184V70.28H66.9476V83ZM73.4808 83.384C72.4408 83.384 71.6328 83.088 71.0568 82.496C70.4808 81.888 70.1928 81.032 70.1928 79.928V65.216L73.6008 64.832V79.832C73.6008 80.392 73.8328 80.672 74.2968 80.672C74.5528 80.672 74.7768 80.624 74.9688 80.528L75.6648 82.952C75.0088 83.24 74.2808 83.384 73.4808 83.384ZM87.0172 79.472C87.0172 79.968 87.0892 80.336 87.2332 80.576C87.3772 80.8 87.6172 80.968 87.9532 81.08L87.2332 83.336C86.4812 83.272 85.8652 83.096 85.3852 82.808C84.9212 82.52 84.5612 82.072 84.3052 81.464C83.4732 82.744 82.2012 83.384 80.4892 83.384C79.2252 83.384 78.2172 83.024 77.4652 82.304C76.7292 81.568 76.3612 80.616 76.3612 79.448C76.3612 78.056 76.8652 76.992 77.8732 76.256C78.8812 75.52 80.3292 75.152 82.2172 75.152H83.6812V74.528C83.6812 73.744 83.5052 73.2 83.1532 72.896C82.8012 72.592 82.2172 72.44 81.4012 72.44C80.5052 72.44 79.3852 72.664 78.0412 73.112L77.2732 70.832C78.8572 70.208 80.4252 69.896 81.9772 69.896C83.7052 69.896 84.9772 70.272 85.7932 71.024C86.6092 71.76 87.0172 72.864 87.0172 74.336V79.472ZM81.4252 80.936C82.3852 80.936 83.1372 80.464 83.6812 79.52V77.096H82.5532C80.7132 77.096 79.7932 77.784 79.7932 79.16C79.7932 79.72 79.9292 80.16 80.2012 80.48C80.4892 80.784 80.8972 80.936 81.4252 80.936ZM100.025 79.472C100.025 79.968 100.097 80.336 100.241 80.576C100.385 80.8 100.625 80.968 100.961 81.08L100.241 83.336C99.489 83.272 98.873 83.096 98.393 82.808C97.929 82.52 97.569 82.072 97.313 81.464C96.481 82.744 95.209 83.384 93.497 83.384C92.233 83.384 91.225 83.024 90.473 82.304C89.737 81.568 89.369 80.616 89.369 79.448C89.369 78.056 89.873 76.992 90.881 76.256C91.889 75.52 93.337 75.152 95.225 75.152H96.689V74.528C96.689 73.744 96.513 73.2 96.161 72.896C95.809 72.592 95.225 72.44 94.409 72.44C93.513 72.44 92.393 72.664 91.049 73.112L90.281 70.832C91.865 70.208 93.433 69.896 94.985 69.896C96.713 69.896 97.985 70.272 98.801 71.024C99.617 71.76 100.025 72.864 100.025 74.336V79.472ZM94.433 80.936C95.393 80.936 96.145 80.464 96.689 79.52V77.096H95.561C93.721 77.096 92.801 77.784 92.801 79.16C92.801 79.72 92.937 80.16 93.209 80.48C93.497 80.784 93.905 80.936 94.433 80.936ZM110.006 69.92C110.39 69.92 110.814 69.984 111.278 70.112L110.702 73.4C110.254 73.288 109.878 73.232 109.574 73.232C108.822 73.232 108.238 73.496 107.822 74.024C107.406 74.552 107.078 75.352 106.838 76.424V83H103.43V70.28H106.382L106.694 72.752C106.998 71.856 107.438 71.16 108.014 70.664C108.606 70.168 109.27 69.92 110.006 69.92ZM116.888 69.896C118.68 69.896 120.216 70.408 121.496 71.432L120.2 73.376C119.128 72.704 118.072 72.368 117.032 72.368C116.472 72.368 116.04 72.472 115.736 72.68C115.432 72.888 115.28 73.168 115.28 73.52C115.28 73.776 115.344 73.992 115.472 74.168C115.616 74.344 115.872 74.512 116.24 74.672C116.624 74.832 117.192 75.024 117.944 75.248C119.288 75.616 120.288 76.112 120.944 76.736C121.6 77.344 121.928 78.184 121.928 79.256C121.928 80.104 121.68 80.84 121.184 81.464C120.704 82.088 120.048 82.568 119.216 82.904C118.384 83.224 117.456 83.384 116.432 83.384C115.36 83.384 114.384 83.224 113.504 82.904C112.624 82.568 111.872 82.112 111.248 81.536L112.928 79.664C114 80.496 115.136 80.912 116.336 80.912C116.976 80.912 117.48 80.792 117.848 80.552C118.232 80.296 118.424 79.952 118.424 79.52C118.424 79.184 118.352 78.92 118.208 78.728C118.064 78.536 117.8 78.36 117.416 78.2C117.032 78.024 116.432 77.824 115.616 77.6C114.336 77.248 113.384 76.752 112.76 76.112C112.152 75.456 111.848 74.648 111.848 73.688C111.848 72.968 112.056 72.32 112.472 71.744C112.888 71.168 113.472 70.72 114.224 70.4C114.992 70.064 115.88 69.896 116.888 69.896ZM134.901 76.352C134.901 76.512 134.877 76.952 134.829 77.672H126.885C126.997 78.824 127.309 79.64 127.821 80.12C128.333 80.6 129.029 80.84 129.909 80.84C130.453 80.84 130.965 80.752 131.445 80.576C131.925 80.4 132.445 80.12 133.005 79.736L134.421 81.656C132.997 82.808 131.389 83.384 129.597 83.384C127.597 83.384 126.061 82.784 124.989 81.584C123.917 80.384 123.381 78.76 123.381 76.712C123.381 75.416 123.605 74.256 124.053 73.232C124.517 72.192 125.181 71.376 126.045 70.784C126.925 70.192 127.965 69.896 129.165 69.896C130.973 69.896 132.381 70.464 133.389 71.6C134.397 72.736 134.901 74.32 134.901 76.352ZM131.517 75.392C131.517 73.28 130.757 72.224 129.237 72.224C128.533 72.224 127.981 72.488 127.581 73.016C127.197 73.528 126.965 74.368 126.885 75.536H131.517V75.392ZM140.536 83.384C139.496 83.384 138.688 83.088 138.112 82.496C137.536 81.888 137.248 81.032 137.248 79.928V65.216L140.656 64.832V79.832C140.656 80.392 140.888 80.672 141.352 80.672C141.608 80.672 141.832 80.624 142.023 80.528L142.72 82.952C142.064 83.24 141.336 83.384 140.536 83.384ZM152.077 82.4C151.613 82.72 151.085 82.96 150.493 83.12C149.917 83.296 149.341 83.384 148.765 83.384C147.453 83.368 146.461 82.992 145.789 82.256C145.117 81.52 144.781 80.44 144.781 79.016V72.68H142.885V70.28H144.781V67.496L148.189 67.088V70.28H151.117L150.781 72.68H148.189V78.944C148.189 79.552 148.293 79.992 148.501 80.264C148.709 80.536 149.029 80.672 149.461 80.672C149.893 80.672 150.373 80.528 150.901 80.24L152.077 82.4ZM163.67 69.896C165.462 69.896 166.998 70.408 168.278 71.432L166.982 73.376C165.91 72.704 164.854 72.368 163.814 72.368C163.254 72.368 162.822 72.472 162.518 72.68C162.214 72.888 162.062 73.168 162.062 73.52C162.062 73.776 162.126 73.992 162.254 74.168C162.398 74.344 162.654 74.512 163.022 74.672C163.406 74.832 163.974 75.024 164.726 75.248C166.07 75.616 167.07 76.112 167.726 76.736C168.382 77.344 168.71 78.184 168.71 79.256C168.71 80.104 168.462 80.84 167.966 81.464C167.486 82.088 166.83 82.568 165.998 82.904C165.166 83.224 164.238 83.384 163.214 83.384C162.142 83.384 161.166 83.224 160.286 82.904C159.406 82.568 158.654 82.112 158.03 81.536L159.71 79.664C160.782 80.496 161.918 80.912 163.118 80.912C163.758 80.912 164.262 80.792 164.63 80.552C165.014 80.296 165.206 79.952 165.206 79.52C165.206 79.184 165.134 78.92 164.99 78.728C164.846 78.536 164.582 78.36 164.198 78.2C163.814 78.024 163.214 77.824 162.398 77.6C161.118 77.248 160.166 76.752 159.542 76.112C158.934 75.456 158.63 74.648 158.63 73.688C158.63 72.968 158.838 72.32 159.254 71.744C159.67 71.168 160.254 70.72 161.006 70.4C161.774 70.064 162.662 69.896 163.67 69.896ZM177.794 69.896C179.394 69.896 180.578 70.488 181.346 71.672C182.13 72.84 182.522 74.488 182.522 76.616C182.522 77.912 182.322 79.072 181.922 80.096C181.522 81.12 180.938 81.928 180.17 82.52C179.418 83.096 178.522 83.384 177.482 83.384C176.186 83.384 175.138 82.928 174.338 82.016V87.896L170.93 88.28V70.28H173.93L174.098 71.768C174.578 71.144 175.138 70.68 175.778 70.376C176.434 70.056 177.106 69.896 177.794 69.896ZM176.474 80.84C178.138 80.84 178.97 79.44 178.97 76.64C178.97 75.104 178.786 74.016 178.418 73.376C178.05 72.736 177.49 72.416 176.738 72.416C176.258 72.416 175.81 72.568 175.394 72.872C174.994 73.16 174.642 73.552 174.338 74.048V79.592C174.882 80.424 175.594 80.84 176.474 80.84ZM190.579 69.896C192.483 69.896 193.971 70.496 195.043 71.696C196.115 72.88 196.651 74.528 196.651 76.64C196.651 77.984 196.403 79.168 195.907 80.192C195.427 81.2 194.723 81.984 193.795 82.544C192.883 83.104 191.803 83.384 190.555 83.384C188.651 83.384 187.155 82.792 186.067 81.608C184.995 80.408 184.459 78.752 184.459 76.64C184.459 75.296 184.699 74.12 185.179 73.112C185.675 72.088 186.379 71.296 187.291 70.736C188.219 70.176 189.315 69.896 190.579 69.896ZM190.579 72.44C189.715 72.44 189.067 72.784 188.635 73.472C188.219 74.144 188.011 75.2 188.011 76.64C188.011 78.08 188.219 79.144 188.635 79.832C189.067 80.504 189.707 80.84 190.555 80.84C191.403 80.84 192.035 80.504 192.451 79.832C192.883 79.144 193.099 78.08 193.099 76.64C193.099 75.2 192.891 74.144 192.475 73.472C192.059 72.784 191.427 72.44 190.579 72.44ZM205.819 69.92C206.203 69.92 206.627 69.984 207.091 70.112L206.515 73.4C206.067 73.288 205.691 73.232 205.387 73.232C204.635 73.232 204.051 73.496 203.635 74.024C203.219 74.552 202.891 75.352 202.651 76.424V83H199.243V70.28H202.195L202.507 72.752C202.811 71.856 203.251 71.16 203.827 70.664C204.419 70.168 205.083 69.92 205.819 69.92ZM216.39 82.4C215.926 82.72 215.398 82.96 214.806 83.12C214.23 83.296 213.654 83.384 213.078 83.384C211.766 83.368 210.774 82.992 210.102 82.256C209.43 81.52 209.094 80.44 209.094 79.016V72.68H207.198V70.28H209.094V67.496L212.502 67.088V70.28H215.43L215.094 72.68H212.502V78.944C212.502 79.552 212.606 79.992 212.814 80.264C213.022 80.536 213.342 80.672 213.774 80.672C214.206 80.672 214.686 80.528 215.214 80.24L216.39 82.4ZM221.307 70.28V83H217.899V70.28H221.307ZM219.579 63.728C220.187 63.728 220.683 63.92 221.067 64.304C221.467 64.672 221.667 65.144 221.667 65.72C221.667 66.296 221.467 66.776 221.067 67.16C220.683 67.528 220.187 67.712 219.579 67.712C218.971 67.712 218.475 67.528 218.091 67.16C217.707 66.776 217.515 66.296 217.515 65.72C217.515 65.144 217.707 64.672 218.091 64.304C218.475 63.92 218.971 63.728 219.579 63.728ZM238.424 69.896C239.432 69.896 240.24 70.24 240.848 70.928C241.472 71.616 241.784 72.552 241.784 73.736V83H238.376V74.312C238.376 73.064 237.96 72.44 237.128 72.44C236.68 72.44 236.288 72.584 235.952 72.872C235.616 73.16 235.272 73.608 234.92 74.216V83H231.512V74.312C231.512 73.064 231.096 72.44 230.264 72.44C229.816 72.44 229.424 72.592 229.088 72.896C228.752 73.184 228.416 73.624 228.08 74.216V83H224.672V70.28H227.624L227.888 71.864C228.368 71.224 228.904 70.736 229.496 70.4C230.104 70.064 230.8 69.896 231.584 69.896C232.304 69.896 232.928 70.08 233.456 70.448C233.984 70.8 234.368 71.304 234.608 71.96C235.136 71.272 235.704 70.76 236.312 70.424C236.936 70.072 237.64 69.896 238.424 69.896ZM254.736 79.472C254.736 79.968 254.808 80.336 254.952 80.576C255.096 80.8 255.336 80.968 255.672 81.08L254.952 83.336C254.2 83.272 253.584 83.096 253.104 82.808C252.64 82.52 252.28 82.072 252.024 81.464C251.192 82.744 249.92 83.384 248.208 83.384C246.944 83.384 245.936 83.024 245.184 82.304C244.448 81.568 244.08 80.616 244.08 79.448C244.08 78.056 244.584 76.992 245.592 76.256C246.6 75.52 248.048 75.152 249.936 75.152H251.4V74.528C251.4 73.744 251.224 73.2 250.872 72.896C250.52 72.592 249.936 72.44 249.12 72.44C248.224 72.44 247.104 72.664 245.76 73.112L244.992 70.832C246.576 70.208 248.144 69.896 249.696 69.896C251.424 69.896 252.696 70.272 253.512 71.024C254.328 71.76 254.736 72.864 254.736 74.336V79.472ZM249.144 80.936C250.104 80.936 250.856 80.464 251.4 79.52V77.096H250.272C248.432 77.096 247.512 77.784 247.512 79.16C247.512 79.72 247.648 80.16 247.92 80.48C248.208 80.784 248.616 80.936 249.144 80.936ZM259.317 79.28C259.893 79.28 260.381 79.48 260.781 79.88C261.181 80.28 261.381 80.76 261.381 81.32C261.381 81.88 261.181 82.368 260.781 82.784C260.381 83.184 259.893 83.384 259.317 83.384C258.757 83.384 258.277 83.184 257.877 82.784C257.477 82.368 257.277 81.88 257.277 81.32C257.277 80.76 257.477 80.28 257.877 79.88C258.277 79.48 258.757 79.28 259.317 79.28Z" fill="#E3000F"/>
<path d="M24.0625 98.7812V113H21.6113V98.7812H24.0625ZM32.8027 110.139C32.8027 109.904 32.7441 109.693 32.627 109.504C32.5098 109.309 32.2852 109.133 31.9531 108.977C31.6276 108.82 31.1458 108.677 30.5078 108.547C29.9479 108.423 29.4336 108.277 28.9648 108.107C28.5026 107.932 28.1055 107.72 27.7734 107.473C27.4414 107.225 27.1842 106.932 27.002 106.594C26.8197 106.255 26.7285 105.865 26.7285 105.422C26.7285 104.992 26.8229 104.585 27.0117 104.201C27.2005 103.817 27.4707 103.479 27.8223 103.186C28.1738 102.893 28.6003 102.661 29.1016 102.492C29.6094 102.323 30.1758 102.238 30.8008 102.238C31.6862 102.238 32.4447 102.388 33.0762 102.688C33.7142 102.98 34.2025 103.381 34.541 103.889C34.8796 104.39 35.0488 104.956 35.0488 105.588H32.6953C32.6953 105.308 32.6237 105.048 32.4805 104.807C32.3438 104.559 32.1354 104.361 31.8555 104.211C31.5755 104.055 31.224 103.977 30.8008 103.977C30.3971 103.977 30.0618 104.042 29.7949 104.172C29.5345 104.296 29.3392 104.458 29.209 104.66C29.0853 104.862 29.0234 105.083 29.0234 105.324C29.0234 105.5 29.056 105.66 29.1211 105.803C29.1927 105.939 29.3099 106.066 29.4727 106.184C29.6354 106.294 29.8568 106.398 30.1367 106.496C30.4232 106.594 30.7812 106.688 31.2109 106.779C32.0182 106.949 32.7116 107.167 33.291 107.434C33.877 107.694 34.3262 108.033 34.6387 108.449C34.9512 108.859 35.1074 109.38 35.1074 110.012C35.1074 110.48 35.0065 110.91 34.8047 111.301C34.6094 111.685 34.3229 112.02 33.9453 112.307C33.5677 112.587 33.1152 112.805 32.5879 112.961C32.0671 113.117 31.4811 113.195 30.8301 113.195C29.873 113.195 29.0625 113.026 28.3984 112.688C27.7344 112.342 27.2298 111.903 26.8848 111.369C26.5462 110.829 26.377 110.269 26.377 109.689H28.6523C28.6784 110.126 28.7988 110.474 29.0137 110.734C29.235 110.988 29.5085 111.174 29.834 111.291C30.166 111.402 30.5078 111.457 30.8594 111.457C31.2826 111.457 31.6374 111.402 31.9238 111.291C32.2103 111.174 32.4284 111.018 32.5781 110.822C32.7279 110.62 32.8027 110.393 32.8027 110.139ZM41.8262 113.195C41.0449 113.195 40.3385 113.068 39.707 112.814C39.082 112.554 38.5482 112.193 38.1055 111.73C37.6693 111.268 37.334 110.725 37.0996 110.1C36.8652 109.475 36.748 108.801 36.748 108.078V107.688C36.748 106.861 36.8685 106.112 37.1094 105.441C37.3503 104.771 37.6855 104.198 38.1152 103.723C38.5449 103.241 39.0527 102.873 39.6387 102.619C40.2246 102.365 40.8594 102.238 41.543 102.238C42.2982 102.238 42.959 102.365 43.5254 102.619C44.0918 102.873 44.5605 103.231 44.9316 103.693C45.3092 104.149 45.5892 104.693 45.7715 105.324C45.9603 105.956 46.0547 106.652 46.0547 107.414V108.42H37.8906V106.73H43.7305V106.545C43.7174 106.122 43.6328 105.725 43.4766 105.354C43.3268 104.982 43.0957 104.683 42.7832 104.455C42.4707 104.227 42.054 104.113 41.5332 104.113C41.1426 104.113 40.7943 104.198 40.4883 104.367C40.1888 104.53 39.9382 104.768 39.7363 105.08C39.5345 105.393 39.3783 105.77 39.2676 106.213C39.1634 106.649 39.1113 107.141 39.1113 107.688V108.078C39.1113 108.54 39.1732 108.97 39.2969 109.367C39.4271 109.758 39.6159 110.1 39.8633 110.393C40.1107 110.686 40.4102 110.917 40.7617 111.086C41.1133 111.249 41.5137 111.33 41.9629 111.33C42.5293 111.33 43.0339 111.216 43.4766 110.988C43.9193 110.76 44.3034 110.438 44.6289 110.021L45.8691 111.223C45.6413 111.555 45.3451 111.874 44.9805 112.18C44.6159 112.479 44.1699 112.723 43.6426 112.912C43.1217 113.101 42.5163 113.195 41.8262 113.195ZM54.6582 102.434H56.7969V112.707C56.7969 113.658 56.5951 114.465 56.1914 115.129C55.7878 115.793 55.2246 116.298 54.502 116.643C53.7793 116.994 52.9427 117.17 51.9922 117.17C51.5885 117.17 51.1393 117.111 50.6445 116.994C50.1562 116.877 49.681 116.688 49.2188 116.428C48.763 116.174 48.3822 115.839 48.0762 115.422L49.1797 114.035C49.5573 114.484 49.974 114.813 50.4297 115.021C50.8854 115.23 51.3639 115.334 51.8652 115.334C52.4056 115.334 52.8646 115.233 53.2422 115.031C53.6263 114.836 53.9225 114.546 54.1309 114.162C54.3392 113.778 54.4434 113.309 54.4434 112.756V104.826L54.6582 102.434ZM47.4805 107.834V107.629C47.4805 106.828 47.5781 106.099 47.7734 105.441C47.9688 104.777 48.2487 104.208 48.6133 103.732C48.9779 103.251 49.4206 102.883 49.9414 102.629C50.4622 102.368 51.0514 102.238 51.709 102.238C52.3926 102.238 52.9753 102.362 53.457 102.609C53.9453 102.857 54.3522 103.212 54.6777 103.674C55.0033 104.13 55.2572 104.676 55.4395 105.314C55.6283 105.946 55.7682 106.649 55.8594 107.424V108.078C55.7747 108.833 55.6315 109.523 55.4297 110.148C55.2279 110.773 54.9609 111.314 54.6289 111.77C54.2969 112.225 53.8867 112.577 53.3984 112.824C52.9167 113.072 52.347 113.195 51.6895 113.195C51.0449 113.195 50.4622 113.062 49.9414 112.795C49.4271 112.528 48.9844 112.154 48.6133 111.672C48.2487 111.19 47.9688 110.624 47.7734 109.973C47.5781 109.315 47.4805 108.602 47.4805 107.834ZM49.834 107.629V107.834C49.834 108.316 49.8796 108.765 49.9707 109.182C50.0684 109.598 50.2148 109.966 50.4102 110.285C50.612 110.598 50.8659 110.845 51.1719 111.027C51.4844 111.203 51.8522 111.291 52.2754 111.291C52.8288 111.291 53.2812 111.174 53.6328 110.939C53.9909 110.705 54.2643 110.389 54.4531 109.992C54.6484 109.589 54.7852 109.139 54.8633 108.645V106.877C54.8242 106.493 54.7428 106.135 54.6191 105.803C54.502 105.471 54.3424 105.181 54.1406 104.934C53.9388 104.68 53.6849 104.484 53.3789 104.348C53.0729 104.204 52.7116 104.133 52.2949 104.133C51.8717 104.133 51.5039 104.224 51.1914 104.406C50.8789 104.589 50.6217 104.839 50.4199 105.158C50.2246 105.477 50.0781 105.848 49.9805 106.271C49.8828 106.695 49.834 107.147 49.834 107.629ZM61.7578 102.434V113H59.3945V102.434H61.7578ZM59.2383 99.6602C59.2383 99.3021 59.3555 99.0059 59.5898 98.7715C59.8307 98.5306 60.1628 98.4102 60.5859 98.4102C61.0026 98.4102 61.3314 98.5306 61.5723 98.7715C61.8132 99.0059 61.9336 99.3021 61.9336 99.6602C61.9336 100.012 61.8132 100.305 61.5723 100.539C61.3314 100.773 61.0026 100.891 60.5859 100.891C60.1628 100.891 59.8307 100.773 59.5898 100.539C59.3555 100.305 59.2383 100.012 59.2383 99.6602ZM71.6895 98V113H69.3262V98H71.6895ZM78.252 102.434L73.6523 107.531L71.1328 110.109L70.5176 108.117L72.4219 105.764L75.4102 102.434H78.252ZM75.918 113L72.4902 108.039L73.9746 106.389L78.6426 113H75.918ZM86.1035 110.51V102.434H88.4668V113H86.2402L86.1035 110.51ZM86.4355 108.312L87.2266 108.293C87.2266 109.003 87.1484 109.657 86.9922 110.256C86.8359 110.848 86.5951 111.366 86.2695 111.809C85.944 112.245 85.5273 112.587 85.0195 112.834C84.5117 113.075 83.903 113.195 83.1934 113.195C82.679 113.195 82.207 113.12 81.7773 112.971C81.3477 112.821 80.9766 112.59 80.6641 112.277C80.3581 111.965 80.1204 111.558 79.9512 111.057C79.7819 110.555 79.6973 109.956 79.6973 109.26V102.434H82.0508V109.279C82.0508 109.663 82.0964 109.986 82.1875 110.246C82.2786 110.5 82.4023 110.705 82.5586 110.861C82.7148 111.018 82.8971 111.128 83.1055 111.193C83.3138 111.258 83.5352 111.291 83.7695 111.291C84.4401 111.291 84.9674 111.161 85.3516 110.9C85.7422 110.633 86.0189 110.275 86.1816 109.826C86.3509 109.377 86.4355 108.872 86.4355 108.312ZM93.3984 102.434V113H91.0352V102.434H93.3984ZM90.8789 99.6602C90.8789 99.3021 90.9961 99.0059 91.2305 98.7715C91.4714 98.5306 91.8034 98.4102 92.2266 98.4102C92.6432 98.4102 92.972 98.5306 93.2129 98.7715C93.4538 99.0059 93.5742 99.3021 93.5742 99.6602C93.5742 100.012 93.4538 100.305 93.2129 100.539C92.972 100.773 92.6432 100.891 92.2266 100.891C91.8034 100.891 91.4714 100.773 91.2305 100.539C90.9961 100.305 90.8789 100.012 90.8789 99.6602ZM106.885 110.139C106.885 109.904 106.826 109.693 106.709 109.504C106.592 109.309 106.367 109.133 106.035 108.977C105.71 108.82 105.228 108.677 104.59 108.547C104.03 108.423 103.516 108.277 103.047 108.107C102.585 107.932 102.188 107.72 101.855 107.473C101.523 107.225 101.266 106.932 101.084 106.594C100.902 106.255 100.811 105.865 100.811 105.422C100.811 104.992 100.905 104.585 101.094 104.201C101.283 103.817 101.553 103.479 101.904 103.186C102.256 102.893 102.682 102.661 103.184 102.492C103.691 102.323 104.258 102.238 104.883 102.238C105.768 102.238 106.527 102.388 107.158 102.688C107.796 102.98 108.285 103.381 108.623 103.889C108.962 104.39 109.131 104.956 109.131 105.588H106.777C106.777 105.308 106.706 105.048 106.562 104.807C106.426 104.559 106.217 104.361 105.938 104.211C105.658 104.055 105.306 103.977 104.883 103.977C104.479 103.977 104.144 104.042 103.877 104.172C103.617 104.296 103.421 104.458 103.291 104.66C103.167 104.862 103.105 105.083 103.105 105.324C103.105 105.5 103.138 105.66 103.203 105.803C103.275 105.939 103.392 106.066 103.555 106.184C103.717 106.294 103.939 106.398 104.219 106.496C104.505 106.594 104.863 106.688 105.293 106.779C106.1 106.949 106.794 107.167 107.373 107.434C107.959 107.694 108.408 108.033 108.721 108.449C109.033 108.859 109.189 109.38 109.189 110.012C109.189 110.48 109.089 110.91 108.887 111.301C108.691 111.685 108.405 112.02 108.027 112.307C107.65 112.587 107.197 112.805 106.67 112.961C106.149 113.117 105.563 113.195 104.912 113.195C103.955 113.195 103.145 113.026 102.48 112.688C101.816 112.342 101.312 111.903 100.967 111.369C100.628 110.829 100.459 110.269 100.459 109.689H102.734C102.76 110.126 102.881 110.474 103.096 110.734C103.317 110.988 103.59 111.174 103.916 111.291C104.248 111.402 104.59 111.457 104.941 111.457C105.365 111.457 105.719 111.402 106.006 111.291C106.292 111.174 106.51 111.018 106.66 110.822C106.81 110.62 106.885 110.393 106.885 110.139ZM115.908 113.195C115.127 113.195 114.421 113.068 113.789 112.814C113.164 112.554 112.63 112.193 112.188 111.73C111.751 111.268 111.416 110.725 111.182 110.1C110.947 109.475 110.83 108.801 110.83 108.078V107.688C110.83 106.861 110.951 106.112 111.191 105.441C111.432 104.771 111.768 104.198 112.197 103.723C112.627 103.241 113.135 102.873 113.721 102.619C114.307 102.365 114.941 102.238 115.625 102.238C116.38 102.238 117.041 102.365 117.607 102.619C118.174 102.873 118.643 103.231 119.014 103.693C119.391 104.149 119.671 104.693 119.854 105.324C120.042 105.956 120.137 106.652 120.137 107.414V108.42H111.973V106.73H117.812V106.545C117.799 106.122 117.715 105.725 117.559 105.354C117.409 104.982 117.178 104.683 116.865 104.455C116.553 104.227 116.136 104.113 115.615 104.113C115.225 104.113 114.876 104.198 114.57 104.367C114.271 104.53 114.02 104.768 113.818 105.08C113.617 105.393 113.46 105.77 113.35 106.213C113.245 106.649 113.193 107.141 113.193 107.688V108.078C113.193 108.54 113.255 108.97 113.379 109.367C113.509 109.758 113.698 110.1 113.945 110.393C114.193 110.686 114.492 110.917 114.844 111.086C115.195 111.249 115.596 111.33 116.045 111.33C116.611 111.33 117.116 111.216 117.559 110.988C118.001 110.76 118.385 110.438 118.711 110.021L119.951 111.223C119.723 111.555 119.427 111.874 119.062 112.18C118.698 112.479 118.252 112.723 117.725 112.912C117.204 113.101 116.598 113.195 115.908 113.195ZM126.631 113.195C125.85 113.195 125.143 113.068 124.512 112.814C123.887 112.554 123.353 112.193 122.91 111.73C122.474 111.268 122.139 110.725 121.904 110.1C121.67 109.475 121.553 108.801 121.553 108.078V107.688C121.553 106.861 121.673 106.112 121.914 105.441C122.155 104.771 122.49 104.198 122.92 103.723C123.35 103.241 123.857 102.873 124.443 102.619C125.029 102.365 125.664 102.238 126.348 102.238C127.103 102.238 127.764 102.365 128.33 102.619C128.896 102.873 129.365 103.231 129.736 103.693C130.114 104.149 130.394 104.693 130.576 105.324C130.765 105.956 130.859 106.652 130.859 107.414V108.42H122.695V106.73H128.535V106.545C128.522 106.122 128.438 105.725 128.281 105.354C128.132 104.982 127.9 104.683 127.588 104.455C127.275 104.227 126.859 104.113 126.338 104.113C125.947 104.113 125.599 104.198 125.293 104.367C124.993 104.53 124.743 104.768 124.541 105.08C124.339 105.393 124.183 105.77 124.072 106.213C123.968 106.649 123.916 107.141 123.916 107.688V108.078C123.916 108.54 123.978 108.97 124.102 109.367C124.232 109.758 124.421 110.1 124.668 110.393C124.915 110.686 125.215 110.917 125.566 111.086C125.918 111.249 126.318 111.33 126.768 111.33C127.334 111.33 127.839 111.216 128.281 110.988C128.724 110.76 129.108 110.438 129.434 110.021L130.674 111.223C130.446 111.555 130.15 111.874 129.785 112.18C129.421 112.479 128.975 112.723 128.447 112.912C127.926 113.101 127.321 113.195 126.631 113.195ZM137.793 102.434H140.156V113.918C140.156 114.641 140.033 115.249 139.785 115.744C139.538 116.245 139.173 116.623 138.691 116.877C138.21 117.137 137.62 117.268 136.924 117.268C136.715 117.268 136.501 117.251 136.279 117.219C136.051 117.193 135.837 117.154 135.635 117.102L135.645 115.266C135.781 115.292 135.928 115.311 136.084 115.324C136.234 115.344 136.377 115.354 136.514 115.354C136.794 115.354 137.028 115.305 137.217 115.207C137.406 115.109 137.549 114.956 137.646 114.748C137.744 114.54 137.793 114.263 137.793 113.918V102.434ZM137.588 99.6602C137.588 99.3021 137.708 99.0059 137.949 98.7715C138.19 98.5306 138.519 98.4102 138.936 98.4102C139.359 98.4102 139.688 98.5306 139.922 98.7715C140.163 99.0059 140.283 99.3021 140.283 99.6602C140.283 100.012 140.163 100.305 139.922 100.539C139.688 100.773 139.359 100.891 138.936 100.891C138.519 100.891 138.19 100.773 137.949 100.539C137.708 100.305 137.588 100.012 137.588 99.6602ZM148.652 110.881V105.842C148.652 105.464 148.584 105.139 148.447 104.865C148.311 104.592 148.102 104.38 147.822 104.23C147.549 104.081 147.204 104.006 146.787 104.006C146.403 104.006 146.071 104.071 145.791 104.201C145.511 104.331 145.293 104.507 145.137 104.729C144.98 104.95 144.902 105.201 144.902 105.48H142.559C142.559 105.064 142.66 104.66 142.861 104.27C143.063 103.879 143.356 103.531 143.74 103.225C144.124 102.919 144.583 102.678 145.117 102.502C145.651 102.326 146.25 102.238 146.914 102.238C147.708 102.238 148.411 102.372 149.023 102.639C149.642 102.906 150.127 103.309 150.479 103.85C150.837 104.383 151.016 105.054 151.016 105.861V110.559C151.016 111.04 151.048 111.473 151.113 111.857C151.185 112.235 151.286 112.564 151.416 112.844V113H149.004C148.893 112.746 148.805 112.424 148.74 112.033C148.682 111.636 148.652 111.252 148.652 110.881ZM148.994 106.574L149.014 108.029H147.324C146.888 108.029 146.504 108.072 146.172 108.156C145.84 108.234 145.563 108.352 145.342 108.508C145.12 108.664 144.954 108.853 144.844 109.074C144.733 109.296 144.678 109.546 144.678 109.826C144.678 110.106 144.743 110.363 144.873 110.598C145.003 110.826 145.192 111.005 145.439 111.135C145.693 111.265 145.999 111.33 146.357 111.33C146.839 111.33 147.259 111.232 147.617 111.037C147.982 110.835 148.268 110.591 148.477 110.305C148.685 110.012 148.796 109.735 148.809 109.475L149.57 110.52C149.492 110.786 149.359 111.073 149.17 111.379C148.981 111.685 148.734 111.978 148.428 112.258C148.128 112.531 147.767 112.756 147.344 112.932C146.927 113.107 146.445 113.195 145.898 113.195C145.208 113.195 144.593 113.059 144.053 112.785C143.512 112.505 143.089 112.131 142.783 111.662C142.477 111.187 142.324 110.65 142.324 110.051C142.324 109.491 142.428 108.996 142.637 108.566C142.852 108.13 143.164 107.766 143.574 107.473C143.991 107.18 144.499 106.958 145.098 106.809C145.697 106.652 146.38 106.574 147.148 106.574H148.994ZM143.535 99.6309C143.535 99.3118 143.646 99.0449 143.867 98.8301C144.089 98.6087 144.382 98.498 144.746 98.498C145.117 98.498 145.413 98.6087 145.635 98.8301C145.856 99.0449 145.967 99.3118 145.967 99.6309C145.967 99.9434 145.856 100.21 145.635 100.432C145.413 100.646 145.117 100.754 144.746 100.754C144.382 100.754 144.089 100.646 143.867 100.432C143.646 100.21 143.535 99.9434 143.535 99.6309ZM148.057 99.6406C148.057 99.3216 148.167 99.0547 148.389 98.8398C148.61 98.6185 148.906 98.5078 149.277 98.5078C149.642 98.5078 149.935 98.6185 150.156 98.8398C150.384 99.0547 150.498 99.3216 150.498 99.6406C150.498 99.9531 150.384 100.22 150.156 100.441C149.935 100.656 149.642 100.764 149.277 100.764C148.906 100.764 148.61 100.656 148.389 100.441C148.167 100.22 148.057 99.9531 148.057 99.6406ZM159.434 110.881V105.842C159.434 105.464 159.365 105.139 159.229 104.865C159.092 104.592 158.883 104.38 158.604 104.23C158.33 104.081 157.985 104.006 157.568 104.006C157.184 104.006 156.852 104.071 156.572 104.201C156.292 104.331 156.074 104.507 155.918 104.729C155.762 104.95 155.684 105.201 155.684 105.48H153.34C153.34 105.064 153.441 104.66 153.643 104.27C153.844 103.879 154.137 103.531 154.521 103.225C154.906 102.919 155.365 102.678 155.898 102.502C156.432 102.326 157.031 102.238 157.695 102.238C158.49 102.238 159.193 102.372 159.805 102.639C160.423 102.906 160.908 103.309 161.26 103.85C161.618 104.383 161.797 105.054 161.797 105.861V110.559C161.797 111.04 161.829 111.473 161.895 111.857C161.966 112.235 162.067 112.564 162.197 112.844V113H159.785C159.674 112.746 159.587 112.424 159.521 112.033C159.463 111.636 159.434 111.252 159.434 110.881ZM159.775 106.574L159.795 108.029H158.105C157.669 108.029 157.285 108.072 156.953 108.156C156.621 108.234 156.344 108.352 156.123 108.508C155.902 108.664 155.736 108.853 155.625 109.074C155.514 109.296 155.459 109.546 155.459 109.826C155.459 110.106 155.524 110.363 155.654 110.598C155.785 110.826 155.973 111.005 156.221 111.135C156.475 111.265 156.781 111.33 157.139 111.33C157.62 111.33 158.04 111.232 158.398 111.037C158.763 110.835 159.049 110.591 159.258 110.305C159.466 110.012 159.577 109.735 159.59 109.475L160.352 110.52C160.273 110.786 160.14 111.073 159.951 111.379C159.762 111.685 159.515 111.978 159.209 112.258C158.91 112.531 158.548 112.756 158.125 112.932C157.708 113.107 157.227 113.195 156.68 113.195C155.99 113.195 155.374 113.059 154.834 112.785C154.294 112.505 153.87 112.131 153.564 111.662C153.258 111.187 153.105 110.65 153.105 110.051C153.105 109.491 153.21 108.996 153.418 108.566C153.633 108.13 153.945 107.766 154.355 107.473C154.772 107.18 155.28 106.958 155.879 106.809C156.478 106.652 157.161 106.574 157.93 106.574H159.775ZM154.316 99.6309C154.316 99.3118 154.427 99.0449 154.648 98.8301C154.87 98.6087 155.163 98.498 155.527 98.498C155.898 98.498 156.195 98.6087 156.416 98.8301C156.637 99.0449 156.748 99.3118 156.748 99.6309C156.748 99.9434 156.637 100.21 156.416 100.432C156.195 100.646 155.898 100.754 155.527 100.754C155.163 100.754 154.87 100.646 154.648 100.432C154.427 100.21 154.316 99.9434 154.316 99.6309ZM158.838 99.6406C158.838 99.3216 158.949 99.0547 159.17 98.8398C159.391 98.6185 159.688 98.5078 160.059 98.5078C160.423 98.5078 160.716 98.6185 160.938 98.8398C161.165 99.0547 161.279 99.3216 161.279 99.6406C161.279 99.9531 161.165 100.22 160.938 100.441C160.716 100.656 160.423 100.764 160.059 100.764C159.688 100.764 159.391 100.656 159.17 100.441C158.949 100.22 158.838 99.9531 158.838 99.6406ZM164.268 98H166.621V110.744L166.396 113H164.268V98ZM173.516 107.619V107.824C173.516 108.605 173.428 109.325 173.252 109.982C173.083 110.633 172.822 111.2 172.471 111.682C172.126 112.163 171.696 112.538 171.182 112.805C170.674 113.065 170.085 113.195 169.414 113.195C168.757 113.195 168.184 113.072 167.695 112.824C167.207 112.577 166.797 112.225 166.465 111.77C166.139 111.314 165.876 110.77 165.674 110.139C165.472 109.507 165.329 108.811 165.244 108.049V107.395C165.329 106.626 165.472 105.93 165.674 105.305C165.876 104.673 166.139 104.13 166.465 103.674C166.797 103.212 167.204 102.857 167.686 102.609C168.174 102.362 168.743 102.238 169.395 102.238C170.072 102.238 170.667 102.368 171.182 102.629C171.702 102.889 172.135 103.26 172.48 103.742C172.826 104.217 173.083 104.784 173.252 105.441C173.428 106.099 173.516 106.825 173.516 107.619ZM171.162 107.824V107.619C171.162 107.144 171.123 106.698 171.045 106.281C170.967 105.858 170.837 105.487 170.654 105.168C170.479 104.849 170.238 104.598 169.932 104.416C169.632 104.227 169.258 104.133 168.809 104.133C168.392 104.133 168.034 104.204 167.734 104.348C167.435 104.491 167.184 104.686 166.982 104.934C166.781 105.181 166.621 105.467 166.504 105.793C166.393 106.118 166.318 106.47 166.279 106.848V108.615C166.338 109.104 166.462 109.553 166.65 109.963C166.846 110.367 167.119 110.692 167.471 110.939C167.822 111.18 168.275 111.301 168.828 111.301C169.264 111.301 169.632 111.213 169.932 111.037C170.231 110.861 170.469 110.617 170.645 110.305C170.827 109.986 170.957 109.615 171.035 109.191C171.12 108.768 171.162 108.312 171.162 107.824ZM182.852 104.465V117.062H180.498V102.434H182.666L182.852 104.465ZM189.736 107.619V107.824C189.736 108.592 189.645 109.305 189.463 109.963C189.287 110.614 189.023 111.184 188.672 111.672C188.327 112.154 187.9 112.528 187.393 112.795C186.885 113.062 186.299 113.195 185.635 113.195C184.977 113.195 184.401 113.075 183.906 112.834C183.418 112.587 183.005 112.238 182.666 111.789C182.327 111.34 182.054 110.812 181.846 110.207C181.644 109.595 181.501 108.924 181.416 108.195V107.404C181.501 106.63 181.644 105.926 181.846 105.295C182.054 104.663 182.327 104.12 182.666 103.664C183.005 103.208 183.418 102.857 183.906 102.609C184.395 102.362 184.964 102.238 185.615 102.238C186.279 102.238 186.868 102.368 187.383 102.629C187.897 102.883 188.33 103.247 188.682 103.723C189.033 104.191 189.297 104.758 189.473 105.422C189.648 106.079 189.736 106.812 189.736 107.619ZM187.383 107.824V107.619C187.383 107.131 187.337 106.678 187.246 106.262C187.155 105.839 187.012 105.467 186.816 105.148C186.621 104.829 186.37 104.582 186.064 104.406C185.765 104.224 185.404 104.133 184.98 104.133C184.564 104.133 184.206 104.204 183.906 104.348C183.607 104.484 183.356 104.676 183.154 104.924C182.952 105.171 182.796 105.461 182.686 105.793C182.575 106.118 182.497 106.473 182.451 106.857V108.752C182.529 109.221 182.663 109.65 182.852 110.041C183.04 110.432 183.307 110.744 183.652 110.979C184.004 111.206 184.453 111.32 185 111.32C185.423 111.32 185.785 111.229 186.084 111.047C186.383 110.865 186.628 110.614 186.816 110.295C187.012 109.969 187.155 109.595 187.246 109.172C187.337 108.749 187.383 108.299 187.383 107.824ZM194.258 98V113H191.895V98H194.258ZM202.793 110.881V105.842C202.793 105.464 202.725 105.139 202.588 104.865C202.451 104.592 202.243 104.38 201.963 104.23C201.689 104.081 201.344 104.006 200.928 104.006C200.544 104.006 200.212 104.071 199.932 104.201C199.652 104.331 199.434 104.507 199.277 104.729C199.121 104.95 199.043 105.201 199.043 105.48H196.699C196.699 105.064 196.8 104.66 197.002 104.27C197.204 103.879 197.497 103.531 197.881 103.225C198.265 102.919 198.724 102.678 199.258 102.502C199.792 102.326 200.391 102.238 201.055 102.238C201.849 102.238 202.552 102.372 203.164 102.639C203.783 102.906 204.268 103.309 204.619 103.85C204.977 104.383 205.156 105.054 205.156 105.861V110.559C205.156 111.04 205.189 111.473 205.254 111.857C205.326 112.235 205.426 112.564 205.557 112.844V113H203.145C203.034 112.746 202.946 112.424 202.881 112.033C202.822 111.636 202.793 111.252 202.793 110.881ZM203.135 106.574L203.154 108.029H201.465C201.029 108.029 200.645 108.072 200.312 108.156C199.98 108.234 199.704 108.352 199.482 108.508C199.261 108.664 199.095 108.853 198.984 109.074C198.874 109.296 198.818 109.546 198.818 109.826C198.818 110.106 198.883 110.363 199.014 110.598C199.144 110.826 199.333 111.005 199.58 111.135C199.834 111.265 200.14 111.33 200.498 111.33C200.98 111.33 201.4 111.232 201.758 111.037C202.122 110.835 202.409 110.591 202.617 110.305C202.826 110.012 202.936 109.735 202.949 109.475L203.711 110.52C203.633 110.786 203.499 111.073 203.311 111.379C203.122 111.685 202.874 111.978 202.568 112.258C202.269 112.531 201.908 112.756 201.484 112.932C201.068 113.107 200.586 113.195 200.039 113.195C199.349 113.195 198.734 113.059 198.193 112.785C197.653 112.505 197.23 112.131 196.924 111.662C196.618 111.187 196.465 110.65 196.465 110.051C196.465 109.491 196.569 108.996 196.777 108.566C196.992 108.13 197.305 107.766 197.715 107.473C198.132 107.18 198.639 106.958 199.238 106.809C199.837 106.652 200.521 106.574 201.289 106.574H203.135ZM213.574 110.881V105.842C213.574 105.464 213.506 105.139 213.369 104.865C213.232 104.592 213.024 104.38 212.744 104.23C212.471 104.081 212.126 104.006 211.709 104.006C211.325 104.006 210.993 104.071 210.713 104.201C210.433 104.331 210.215 104.507 210.059 104.729C209.902 104.95 209.824 105.201 209.824 105.48H207.48C207.48 105.064 207.581 104.66 207.783 104.27C207.985 103.879 208.278 103.531 208.662 103.225C209.046 102.919 209.505 102.678 210.039 102.502C210.573 102.326 211.172 102.238 211.836 102.238C212.63 102.238 213.333 102.372 213.945 102.639C214.564 102.906 215.049 103.309 215.4 103.85C215.758 104.383 215.938 105.054 215.938 105.861V110.559C215.938 111.04 215.97 111.473 216.035 111.857C216.107 112.235 216.208 112.564 216.338 112.844V113H213.926C213.815 112.746 213.727 112.424 213.662 112.033C213.604 111.636 213.574 111.252 213.574 110.881ZM213.916 106.574L213.936 108.029H212.246C211.81 108.029 211.426 108.072 211.094 108.156C210.762 108.234 210.485 108.352 210.264 108.508C210.042 108.664 209.876 108.853 209.766 109.074C209.655 109.296 209.6 109.546 209.6 109.826C209.6 110.106 209.665 110.363 209.795 110.598C209.925 110.826 210.114 111.005 210.361 111.135C210.615 111.265 210.921 111.33 211.279 111.33C211.761 111.33 212.181 111.232 212.539 111.037C212.904 110.835 213.19 110.591 213.398 110.305C213.607 110.012 213.717 109.735 213.73 109.475L214.492 110.52C214.414 110.786 214.281 111.073 214.092 111.379C213.903 111.685 213.656 111.978 213.35 112.258C213.05 112.531 212.689 112.756 212.266 112.932C211.849 113.107 211.367 113.195 210.82 113.195C210.13 113.195 209.515 113.059 208.975 112.785C208.434 112.505 208.011 112.131 207.705 111.662C207.399 111.187 207.246 110.65 207.246 110.051C207.246 109.491 207.35 108.996 207.559 108.566C207.773 108.13 208.086 107.766 208.496 107.473C208.913 107.18 209.421 106.958 210.02 106.809C210.618 106.652 211.302 106.574 212.07 106.574H213.916ZM220.732 104.689V113H218.379V102.434H220.596L220.732 104.689ZM220.312 107.326L219.551 107.316C219.557 106.568 219.661 105.881 219.863 105.256C220.072 104.631 220.358 104.094 220.723 103.645C221.094 103.195 221.536 102.85 222.051 102.609C222.565 102.362 223.138 102.238 223.77 102.238C224.277 102.238 224.736 102.31 225.146 102.453C225.563 102.59 225.918 102.814 226.211 103.127C226.51 103.439 226.738 103.846 226.895 104.348C227.051 104.842 227.129 105.451 227.129 106.174V113H224.766V106.164C224.766 105.656 224.691 105.256 224.541 104.963C224.398 104.663 224.186 104.452 223.906 104.328C223.633 104.198 223.291 104.133 222.881 104.133C222.477 104.133 222.116 104.217 221.797 104.387C221.478 104.556 221.208 104.787 220.986 105.08C220.771 105.373 220.605 105.712 220.488 106.096C220.371 106.48 220.312 106.89 220.312 107.326ZM232.051 102.434V113H229.688V102.434H232.051ZM229.531 99.6602C229.531 99.3021 229.648 99.0059 229.883 98.7715C230.124 98.5306 230.456 98.4102 230.879 98.4102C231.296 98.4102 231.624 98.5306 231.865 98.7715C232.106 99.0059 232.227 99.3021 232.227 99.6602C232.227 100.012 232.106 100.305 231.865 100.539C231.624 100.773 231.296 100.891 230.879 100.891C230.456 100.891 230.124 100.773 229.883 100.539C229.648 100.305 229.531 100.012 229.531 99.6602ZM237.002 98V113H234.639V98H237.002ZM243.564 102.434L238.965 107.531L236.445 110.109L235.83 108.117L237.734 105.764L240.723 102.434H243.564ZM241.23 113L237.803 108.039L239.287 106.389L243.955 113H241.23ZM250.986 110.139C250.986 109.904 250.928 109.693 250.811 109.504C250.693 109.309 250.469 109.133 250.137 108.977C249.811 108.82 249.329 108.677 248.691 108.547C248.132 108.423 247.617 108.277 247.148 108.107C246.686 107.932 246.289 107.72 245.957 107.473C245.625 107.225 245.368 106.932 245.186 106.594C245.003 106.255 244.912 105.865 244.912 105.422C244.912 104.992 245.007 104.585 245.195 104.201C245.384 103.817 245.654 103.479 246.006 103.186C246.357 102.893 246.784 102.661 247.285 102.492C247.793 102.323 248.359 102.238 248.984 102.238C249.87 102.238 250.628 102.388 251.26 102.688C251.898 102.98 252.386 103.381 252.725 103.889C253.063 104.39 253.232 104.956 253.232 105.588H250.879C250.879 105.308 250.807 105.048 250.664 104.807C250.527 104.559 250.319 104.361 250.039 104.211C249.759 104.055 249.408 103.977 248.984 103.977C248.581 103.977 248.245 104.042 247.979 104.172C247.718 104.296 247.523 104.458 247.393 104.66C247.269 104.862 247.207 105.083 247.207 105.324C247.207 105.5 247.24 105.66 247.305 105.803C247.376 105.939 247.493 106.066 247.656 106.184C247.819 106.294 248.04 106.398 248.32 106.496C248.607 106.594 248.965 106.688 249.395 106.779C250.202 106.949 250.895 107.167 251.475 107.434C252.061 107.694 252.51 108.033 252.822 108.449C253.135 108.859 253.291 109.38 253.291 110.012C253.291 110.48 253.19 110.91 252.988 111.301C252.793 111.685 252.507 112.02 252.129 112.307C251.751 112.587 251.299 112.805 250.771 112.961C250.251 113.117 249.665 113.195 249.014 113.195C248.057 113.195 247.246 113.026 246.582 112.688C245.918 112.342 245.413 111.903 245.068 111.369C244.73 110.829 244.561 110.269 244.561 109.689H246.836C246.862 110.126 246.982 110.474 247.197 110.734C247.419 110.988 247.692 111.174 248.018 111.291C248.35 111.402 248.691 111.457 249.043 111.457C249.466 111.457 249.821 111.402 250.107 111.291C250.394 111.174 250.612 111.018 250.762 110.822C250.911 110.62 250.986 110.393 250.986 110.139ZM257.559 110.734L257.549 112.414C257.549 113.078 257.383 113.762 257.051 114.465C256.719 115.168 256.279 115.747 255.732 116.203L254.473 115.471C254.655 115.178 254.821 114.882 254.971 114.582C255.12 114.283 255.241 113.964 255.332 113.625C255.423 113.286 255.469 112.912 255.469 112.502V110.734H257.559ZM27.1387 135.139C27.1387 134.904 27.0801 134.693 26.9629 134.504C26.8457 134.309 26.6211 134.133 26.2891 133.977C25.9635 133.82 25.4818 133.677 24.8438 133.547C24.2839 133.423 23.7695 133.277 23.3008 133.107C22.8385 132.932 22.4414 132.72 22.1094 132.473C21.7773 132.225 21.5202 131.932 21.3379 131.594C21.1556 131.255 21.0645 130.865 21.0645 130.422C21.0645 129.992 21.1589 129.585 21.3477 129.201C21.5365 128.817 21.8066 128.479 22.1582 128.186C22.5098 127.893 22.9362 127.661 23.4375 127.492C23.9453 127.323 24.5117 127.238 25.1367 127.238C26.0221 127.238 26.7806 127.388 27.4121 127.688C28.0501 127.98 28.5384 128.381 28.877 128.889C29.2155 129.39 29.3848 129.956 29.3848 130.588H27.0312C27.0312 130.308 26.9596 130.048 26.8164 129.807C26.6797 129.559 26.4714 129.361 26.1914 129.211C25.9115 129.055 25.5599 128.977 25.1367 128.977C24.7331 128.977 24.3978 129.042 24.1309 129.172C23.8704 129.296 23.6751 129.458 23.5449 129.66C23.4212 129.862 23.3594 130.083 23.3594 130.324C23.3594 130.5 23.3919 130.66 23.457 130.803C23.5286 130.939 23.6458 131.066 23.8086 131.184C23.9714 131.294 24.1927 131.398 24.4727 131.496C24.7591 131.594 25.1172 131.688 25.5469 131.779C26.3542 131.949 27.0475 132.167 27.627 132.434C28.2129 132.694 28.6621 133.033 28.9746 133.449C29.2871 133.859 29.4434 134.38 29.4434 135.012C29.4434 135.48 29.3424 135.91 29.1406 136.301C28.9453 136.685 28.6589 137.02 28.2812 137.307C27.9036 137.587 27.4512 137.805 26.9238 137.961C26.403 138.117 25.8171 138.195 25.166 138.195C24.209 138.195 23.3984 138.026 22.7344 137.688C22.0703 137.342 21.5658 136.903 21.2207 136.369C20.8822 135.829 20.7129 135.269 20.7129 134.689H22.9883C23.0143 135.126 23.1348 135.474 23.3496 135.734C23.571 135.988 23.8444 136.174 24.1699 136.291C24.502 136.402 24.8438 136.457 25.1953 136.457C25.6185 136.457 25.9733 136.402 26.2598 136.291C26.5462 136.174 26.7643 136.018 26.9141 135.822C27.0638 135.62 27.1387 135.393 27.1387 135.139ZM33.8672 129.465V142.062H31.5137V127.434H33.6816L33.8672 129.465ZM40.752 132.619V132.824C40.752 133.592 40.6608 134.305 40.4785 134.963C40.3027 135.614 40.0391 136.184 39.6875 136.672C39.3424 137.154 38.916 137.528 38.4082 137.795C37.9004 138.062 37.3145 138.195 36.6504 138.195C35.9928 138.195 35.4167 138.075 34.9219 137.834C34.4336 137.587 34.0202 137.238 33.6816 136.789C33.3431 136.34 33.0697 135.812 32.8613 135.207C32.6595 134.595 32.5163 133.924 32.4316 133.195V132.404C32.5163 131.63 32.6595 130.926 32.8613 130.295C33.0697 129.663 33.3431 129.12 33.6816 128.664C34.0202 128.208 34.4336 127.857 34.9219 127.609C35.4102 127.362 35.9798 127.238 36.6309 127.238C37.2949 127.238 37.8841 127.368 38.3984 127.629C38.9128 127.883 39.3457 128.247 39.6973 128.723C40.0488 129.191 40.3125 129.758 40.4883 130.422C40.6641 131.079 40.752 131.812 40.752 132.619ZM38.3984 132.824V132.619C38.3984 132.131 38.3529 131.678 38.2617 131.262C38.1706 130.839 38.0273 130.467 37.832 130.148C37.6367 129.829 37.3861 129.582 37.0801 129.406C36.7806 129.224 36.4193 129.133 35.9961 129.133C35.5794 129.133 35.2214 129.204 34.9219 129.348C34.6224 129.484 34.3717 129.676 34.1699 129.924C33.9681 130.171 33.8118 130.461 33.7012 130.793C33.5905 131.118 33.5124 131.473 33.4668 131.857V133.752C33.5449 134.221 33.6784 134.65 33.8672 135.041C34.056 135.432 34.3229 135.744 34.668 135.979C35.0195 136.206 35.4688 136.32 36.0156 136.32C36.4388 136.32 36.8001 136.229 37.0996 136.047C37.3991 135.865 37.6432 135.614 37.832 135.295C38.0273 134.969 38.1706 134.595 38.2617 134.172C38.3529 133.749 38.3984 133.299 38.3984 132.824ZM42.3047 132.834V132.609C42.3047 131.848 42.4154 131.141 42.6367 130.49C42.8581 129.833 43.1771 129.263 43.5938 128.781C44.0169 128.293 44.5312 127.915 45.1367 127.648C45.7487 127.375 46.4388 127.238 47.207 127.238C47.9818 127.238 48.6719 127.375 49.2773 127.648C49.8893 127.915 50.4069 128.293 50.8301 128.781C51.2533 129.263 51.5755 129.833 51.7969 130.49C52.0182 131.141 52.1289 131.848 52.1289 132.609V132.834C52.1289 133.596 52.0182 134.302 51.7969 134.953C51.5755 135.604 51.2533 136.174 50.8301 136.662C50.4069 137.144 49.8926 137.521 49.2871 137.795C48.6816 138.062 47.9948 138.195 47.2266 138.195C46.4518 138.195 45.7585 138.062 45.1465 137.795C44.541 137.521 44.0267 137.144 43.6035 136.662C43.1803 136.174 42.8581 135.604 42.6367 134.953C42.4154 134.302 42.3047 133.596 42.3047 132.834ZM44.6582 132.609V132.834C44.6582 133.309 44.707 133.758 44.8047 134.182C44.9023 134.605 45.0553 134.976 45.2637 135.295C45.472 135.614 45.7389 135.865 46.0645 136.047C46.39 136.229 46.7773 136.32 47.2266 136.32C47.6628 136.32 48.0404 136.229 48.3594 136.047C48.6849 135.865 48.9518 135.614 49.1602 135.295C49.3685 134.976 49.5215 134.605 49.6191 134.182C49.7233 133.758 49.7754 133.309 49.7754 132.834V132.609C49.7754 132.141 49.7233 131.698 49.6191 131.281C49.5215 130.858 49.3652 130.484 49.1504 130.158C48.9421 129.833 48.6751 129.579 48.3496 129.396C48.0306 129.208 47.6497 129.113 47.207 129.113C46.7643 129.113 46.3802 129.208 46.0547 129.396C45.7357 129.579 45.472 129.833 45.2637 130.158C45.0553 130.484 44.9023 130.858 44.8047 131.281C44.707 131.698 44.6582 132.141 44.6582 132.609ZM56.4648 129.445V138H54.1113V127.434H56.3574L56.4648 129.445ZM59.6973 127.365L59.6777 129.553C59.5345 129.527 59.3783 129.507 59.209 129.494C59.0462 129.481 58.8835 129.475 58.7207 129.475C58.3171 129.475 57.9622 129.533 57.6562 129.65C57.3503 129.761 57.0931 129.924 56.8848 130.139C56.6829 130.347 56.5267 130.601 56.416 130.9C56.3053 131.2 56.2402 131.535 56.2207 131.906L55.6836 131.945C55.6836 131.281 55.7487 130.666 55.8789 130.1C56.0091 129.533 56.2044 129.035 56.4648 128.605C56.7318 128.176 57.0638 127.84 57.4609 127.6C57.8646 127.359 58.3301 127.238 58.8574 127.238C59.0007 127.238 59.1536 127.251 59.3164 127.277C59.4857 127.303 59.6126 127.333 59.6973 127.365ZM67.4219 135.812V123H69.7852V138H67.6465L67.4219 135.812ZM60.5469 132.834V132.629C60.5469 131.828 60.6413 131.099 60.8301 130.441C61.0189 129.777 61.2923 129.208 61.6504 128.732C62.0085 128.251 62.4447 127.883 62.959 127.629C63.4733 127.368 64.0527 127.238 64.6973 127.238C65.3353 127.238 65.8952 127.362 66.377 127.609C66.8587 127.857 67.2689 128.212 67.6074 128.674C67.946 129.13 68.2161 129.676 68.418 130.314C68.6198 130.946 68.763 131.649 68.8477 132.424V133.078C68.763 133.833 68.6198 134.523 68.418 135.148C68.2161 135.773 67.946 136.314 67.6074 136.77C67.2689 137.225 66.8555 137.577 66.3672 137.824C65.8854 138.072 65.3223 138.195 64.6777 138.195C64.0397 138.195 63.4635 138.062 62.9492 137.795C62.4414 137.528 62.0085 137.154 61.6504 136.672C61.2923 136.19 61.0189 135.624 60.8301 134.973C60.6413 134.315 60.5469 133.602 60.5469 132.834ZM62.9004 132.629V132.834C62.9004 133.316 62.9427 133.765 63.0273 134.182C63.1185 134.598 63.2585 134.966 63.4473 135.285C63.6361 135.598 63.8802 135.845 64.1797 136.027C64.4857 136.203 64.8503 136.291 65.2734 136.291C65.8073 136.291 66.2467 136.174 66.5918 135.939C66.9368 135.705 67.207 135.389 67.4023 134.992C67.6042 134.589 67.7409 134.139 67.8125 133.645V131.877C67.7734 131.493 67.6921 131.135 67.5684 130.803C67.4512 130.471 67.2917 130.181 67.0898 129.934C66.888 129.68 66.6374 129.484 66.3379 129.348C66.0449 129.204 65.6966 129.133 65.293 129.133C64.8633 129.133 64.4987 129.224 64.1992 129.406C63.8997 129.589 63.6523 129.839 63.457 130.158C63.2682 130.477 63.1283 130.848 63.0371 131.271C62.946 131.695 62.9004 132.147 62.9004 132.629ZM74.7656 127.434V138H72.4023V127.434H74.7656ZM72.2461 124.66C72.2461 124.302 72.3633 124.006 72.5977 123.771C72.8385 123.531 73.1706 123.41 73.5938 123.41C74.0104 123.41 74.3392 123.531 74.5801 123.771C74.821 124.006 74.9414 124.302 74.9414 124.66C74.9414 125.012 74.821 125.305 74.5801 125.539C74.3392 125.773 74.0104 125.891 73.5938 125.891C73.1706 125.891 72.8385 125.773 72.5977 125.539C72.3633 125.305 72.2461 125.012 72.2461 124.66ZM83.7012 135.51V127.434H86.0645V138H83.8379L83.7012 135.51ZM84.0332 133.312L84.8242 133.293C84.8242 134.003 84.7461 134.657 84.5898 135.256C84.4336 135.848 84.1927 136.366 83.8672 136.809C83.5417 137.245 83.125 137.587 82.6172 137.834C82.1094 138.075 81.5007 138.195 80.791 138.195C80.2767 138.195 79.8047 138.12 79.375 137.971C78.9453 137.821 78.5742 137.59 78.2617 137.277C77.9557 136.965 77.7181 136.558 77.5488 136.057C77.3796 135.555 77.2949 134.956 77.2949 134.26V127.434H79.6484V134.279C79.6484 134.663 79.694 134.986 79.7852 135.246C79.8763 135.5 80 135.705 80.1562 135.861C80.3125 136.018 80.4948 136.128 80.7031 136.193C80.9115 136.258 81.1328 136.291 81.3672 136.291C82.0378 136.291 82.5651 136.161 82.9492 135.9C83.3398 135.633 83.6165 135.275 83.7793 134.826C83.9486 134.377 84.0332 133.872 84.0332 133.312ZM94.834 135.51V127.434H97.1973V138H94.9707L94.834 135.51ZM95.166 133.312L95.957 133.293C95.957 134.003 95.8789 134.657 95.7227 135.256C95.5664 135.848 95.3255 136.366 95 136.809C94.6745 137.245 94.2578 137.587 93.75 137.834C93.2422 138.075 92.6335 138.195 91.9238 138.195C91.4095 138.195 90.9375 138.12 90.5078 137.971C90.0781 137.821 89.707 137.59 89.3945 137.277C89.0885 136.965 88.8509 136.558 88.6816 136.057C88.5124 135.555 88.4277 134.956 88.4277 134.26V127.434H90.7812V134.279C90.7812 134.663 90.8268 134.986 90.918 135.246C91.0091 135.5 91.1328 135.705 91.2891 135.861C91.4453 136.018 91.6276 136.128 91.8359 136.193C92.0443 136.258 92.2656 136.291 92.5 136.291C93.1706 136.291 93.6979 136.161 94.082 135.9C94.4727 135.633 94.7493 135.275 94.9121 134.826C95.0814 134.377 95.166 133.872 95.166 133.312ZM106.055 135.812V123H108.418V138H106.279L106.055 135.812ZM99.1797 132.834V132.629C99.1797 131.828 99.2741 131.099 99.4629 130.441C99.6517 129.777 99.9251 129.208 100.283 128.732C100.641 128.251 101.077 127.883 101.592 127.629C102.106 127.368 102.686 127.238 103.33 127.238C103.968 127.238 104.528 127.362 105.01 127.609C105.492 127.857 105.902 128.212 106.24 128.674C106.579 129.13 106.849 129.676 107.051 130.314C107.253 130.946 107.396 131.649 107.48 132.424V133.078C107.396 133.833 107.253 134.523 107.051 135.148C106.849 135.773 106.579 136.314 106.24 136.77C105.902 137.225 105.488 137.577 105 137.824C104.518 138.072 103.955 138.195 103.311 138.195C102.673 138.195 102.096 138.062 101.582 137.795C101.074 137.528 100.641 137.154 100.283 136.672C99.9251 136.19 99.6517 135.624 99.4629 134.973C99.2741 134.315 99.1797 133.602 99.1797 132.834ZM101.533 132.629V132.834C101.533 133.316 101.576 133.765 101.66 134.182C101.751 134.598 101.891 134.966 102.08 135.285C102.269 135.598 102.513 135.845 102.812 136.027C103.118 136.203 103.483 136.291 103.906 136.291C104.44 136.291 104.88 136.174 105.225 135.939C105.57 135.705 105.84 135.389 106.035 134.992C106.237 134.589 106.374 134.139 106.445 133.645V131.877C106.406 131.493 106.325 131.135 106.201 130.803C106.084 130.471 105.924 130.181 105.723 129.934C105.521 129.68 105.27 129.484 104.971 129.348C104.678 129.204 104.329 129.133 103.926 129.133C103.496 129.133 103.132 129.224 102.832 129.406C102.533 129.589 102.285 129.839 102.09 130.158C101.901 130.477 101.761 130.848 101.67 131.271C101.579 131.695 101.533 132.147 101.533 132.629ZM113.398 127.434V138H111.035V127.434H113.398ZM110.879 124.66C110.879 124.302 110.996 124.006 111.23 123.771C111.471 123.531 111.803 123.41 112.227 123.41C112.643 123.41 112.972 123.531 113.213 123.771C113.454 124.006 113.574 124.302 113.574 124.66C113.574 125.012 113.454 125.305 113.213 125.539C112.972 125.773 112.643 125.891 112.227 125.891C111.803 125.891 111.471 125.773 111.23 125.539C110.996 125.305 110.879 125.012 110.879 124.66ZM121.904 135.139C121.904 134.904 121.846 134.693 121.729 134.504C121.611 134.309 121.387 134.133 121.055 133.977C120.729 133.82 120.247 133.677 119.609 133.547C119.049 133.423 118.535 133.277 118.066 133.107C117.604 132.932 117.207 132.72 116.875 132.473C116.543 132.225 116.286 131.932 116.104 131.594C115.921 131.255 115.83 130.865 115.83 130.422C115.83 129.992 115.924 129.585 116.113 129.201C116.302 128.817 116.572 128.479 116.924 128.186C117.275 127.893 117.702 127.661 118.203 127.492C118.711 127.323 119.277 127.238 119.902 127.238C120.788 127.238 121.546 127.388 122.178 127.688C122.816 127.98 123.304 128.381 123.643 128.889C123.981 129.39 124.15 129.956 124.15 130.588H121.797C121.797 130.308 121.725 130.048 121.582 129.807C121.445 129.559 121.237 129.361 120.957 129.211C120.677 129.055 120.326 128.977 119.902 128.977C119.499 128.977 119.163 129.042 118.896 129.172C118.636 129.296 118.441 129.458 118.311 129.66C118.187 129.862 118.125 130.083 118.125 130.324C118.125 130.5 118.158 130.66 118.223 130.803C118.294 130.939 118.411 131.066 118.574 131.184C118.737 131.294 118.958 131.398 119.238 131.496C119.525 131.594 119.883 131.688 120.312 131.779C121.12 131.949 121.813 132.167 122.393 132.434C122.979 132.694 123.428 133.033 123.74 133.449C124.053 133.859 124.209 134.38 124.209 135.012C124.209 135.48 124.108 135.91 123.906 136.301C123.711 136.685 123.424 137.02 123.047 137.307C122.669 137.587 122.217 137.805 121.689 137.961C121.169 138.117 120.583 138.195 119.932 138.195C118.975 138.195 118.164 138.026 117.5 137.688C116.836 137.342 116.331 136.903 115.986 136.369C115.648 135.829 115.479 135.269 115.479 134.689H117.754C117.78 135.126 117.9 135.474 118.115 135.734C118.337 135.988 118.61 136.174 118.936 136.291C119.268 136.402 119.609 136.457 119.961 136.457C120.384 136.457 120.739 136.402 121.025 136.291C121.312 136.174 121.53 136.018 121.68 135.822C121.829 135.62 121.904 135.393 121.904 135.139ZM130.928 138.195C130.146 138.195 129.44 138.068 128.809 137.814C128.184 137.554 127.65 137.193 127.207 136.73C126.771 136.268 126.436 135.725 126.201 135.1C125.967 134.475 125.85 133.801 125.85 133.078V132.688C125.85 131.861 125.97 131.112 126.211 130.441C126.452 129.771 126.787 129.198 127.217 128.723C127.646 128.241 128.154 127.873 128.74 127.619C129.326 127.365 129.961 127.238 130.645 127.238C131.4 127.238 132.061 127.365 132.627 127.619C133.193 127.873 133.662 128.231 134.033 128.693C134.411 129.149 134.691 129.693 134.873 130.324C135.062 130.956 135.156 131.652 135.156 132.414V133.42H126.992V131.73H132.832V131.545C132.819 131.122 132.734 130.725 132.578 130.354C132.428 129.982 132.197 129.683 131.885 129.455C131.572 129.227 131.156 129.113 130.635 129.113C130.244 129.113 129.896 129.198 129.59 129.367C129.29 129.53 129.04 129.768 128.838 130.08C128.636 130.393 128.48 130.77 128.369 131.213C128.265 131.649 128.213 132.141 128.213 132.688V133.078C128.213 133.54 128.275 133.97 128.398 134.367C128.529 134.758 128.717 135.1 128.965 135.393C129.212 135.686 129.512 135.917 129.863 136.086C130.215 136.249 130.615 136.33 131.064 136.33C131.631 136.33 132.135 136.216 132.578 135.988C133.021 135.76 133.405 135.438 133.73 135.021L134.971 136.223C134.743 136.555 134.447 136.874 134.082 137.18C133.717 137.479 133.271 137.723 132.744 137.912C132.223 138.101 131.618 138.195 130.928 138.195ZM139.512 127.434V138H137.148V127.434H139.512ZM136.992 124.66C136.992 124.302 137.109 124.006 137.344 123.771C137.585 123.531 137.917 123.41 138.34 123.41C138.757 123.41 139.085 123.531 139.326 123.771C139.567 124.006 139.688 124.302 139.688 124.66C139.688 125.012 139.567 125.305 139.326 125.539C139.085 125.773 138.757 125.891 138.34 125.891C137.917 125.891 137.585 125.773 137.344 125.539C137.109 125.305 136.992 125.012 136.992 124.66ZM148.535 135.812V123H150.898V138H148.76L148.535 135.812ZM141.66 132.834V132.629C141.66 131.828 141.755 131.099 141.943 130.441C142.132 129.777 142.406 129.208 142.764 128.732C143.122 128.251 143.558 127.883 144.072 127.629C144.587 127.368 145.166 127.238 145.811 127.238C146.449 127.238 147.008 127.362 147.49 127.609C147.972 127.857 148.382 128.212 148.721 128.674C149.059 129.13 149.329 129.676 149.531 130.314C149.733 130.946 149.876 131.649 149.961 132.424V133.078C149.876 133.833 149.733 134.523 149.531 135.148C149.329 135.773 149.059 136.314 148.721 136.77C148.382 137.225 147.969 137.577 147.48 137.824C146.999 138.072 146.436 138.195 145.791 138.195C145.153 138.195 144.577 138.062 144.062 137.795C143.555 137.528 143.122 137.154 142.764 136.672C142.406 136.19 142.132 135.624 141.943 134.973C141.755 134.315 141.66 133.602 141.66 132.834ZM144.014 132.629V132.834C144.014 133.316 144.056 133.765 144.141 134.182C144.232 134.598 144.372 134.966 144.561 135.285C144.749 135.598 144.993 135.845 145.293 136.027C145.599 136.203 145.964 136.291 146.387 136.291C146.921 136.291 147.36 136.174 147.705 135.939C148.05 135.705 148.32 135.389 148.516 134.992C148.717 134.589 148.854 134.139 148.926 133.645V131.877C148.887 131.493 148.805 131.135 148.682 130.803C148.564 130.471 148.405 130.181 148.203 129.934C148.001 129.68 147.751 129.484 147.451 129.348C147.158 129.204 146.81 129.133 146.406 129.133C145.977 129.133 145.612 129.224 145.312 129.406C145.013 129.589 144.766 129.839 144.57 130.158C144.382 130.477 144.242 130.848 144.15 131.271C144.059 131.695 144.014 132.147 144.014 132.629ZM164.268 135.139C164.268 134.904 164.209 134.693 164.092 134.504C163.975 134.309 163.75 134.133 163.418 133.977C163.092 133.82 162.611 133.677 161.973 133.547C161.413 133.423 160.898 133.277 160.43 133.107C159.967 132.932 159.57 132.72 159.238 132.473C158.906 132.225 158.649 131.932 158.467 131.594C158.285 131.255 158.193 130.865 158.193 130.422C158.193 129.992 158.288 129.585 158.477 129.201C158.665 128.817 158.936 128.479 159.287 128.186C159.639 127.893 160.065 127.661 160.566 127.492C161.074 127.323 161.641 127.238 162.266 127.238C163.151 127.238 163.91 127.388 164.541 127.688C165.179 127.98 165.667 128.381 166.006 128.889C166.344 129.39 166.514 129.956 166.514 130.588H164.16C164.16 130.308 164.089 130.048 163.945 129.807C163.809 129.559 163.6 129.361 163.32 129.211C163.04 129.055 162.689 128.977 162.266 128.977C161.862 128.977 161.527 129.042 161.26 129.172C160.999 129.296 160.804 129.458 160.674 129.66C160.55 129.862 160.488 130.083 160.488 130.324C160.488 130.5 160.521 130.66 160.586 130.803C160.658 130.939 160.775 131.066 160.938 131.184C161.1 131.294 161.322 131.398 161.602 131.496C161.888 131.594 162.246 131.688 162.676 131.779C163.483 131.949 164.176 132.167 164.756 132.434C165.342 132.694 165.791 133.033 166.104 133.449C166.416 133.859 166.572 134.38 166.572 135.012C166.572 135.48 166.471 135.91 166.27 136.301C166.074 136.685 165.788 137.02 165.41 137.307C165.033 137.587 164.58 137.805 164.053 137.961C163.532 138.117 162.946 138.195 162.295 138.195C161.338 138.195 160.527 138.026 159.863 137.688C159.199 137.342 158.695 136.903 158.35 136.369C158.011 135.829 157.842 135.269 157.842 134.689H160.117C160.143 135.126 160.264 135.474 160.479 135.734C160.7 135.988 160.973 136.174 161.299 136.291C161.631 136.402 161.973 136.457 162.324 136.457C162.747 136.457 163.102 136.402 163.389 136.291C163.675 136.174 163.893 136.018 164.043 135.822C164.193 135.62 164.268 135.393 164.268 135.139ZM174.59 135.881V130.842C174.59 130.464 174.521 130.139 174.385 129.865C174.248 129.592 174.04 129.38 173.76 129.23C173.486 129.081 173.141 129.006 172.725 129.006C172.34 129.006 172.008 129.071 171.729 129.201C171.449 129.331 171.23 129.507 171.074 129.729C170.918 129.95 170.84 130.201 170.84 130.48H168.496C168.496 130.064 168.597 129.66 168.799 129.27C169.001 128.879 169.294 128.531 169.678 128.225C170.062 127.919 170.521 127.678 171.055 127.502C171.589 127.326 172.188 127.238 172.852 127.238C173.646 127.238 174.349 127.372 174.961 127.639C175.579 127.906 176.064 128.309 176.416 128.85C176.774 129.383 176.953 130.054 176.953 130.861V135.559C176.953 136.04 176.986 136.473 177.051 136.857C177.122 137.235 177.223 137.564 177.354 137.844V138H174.941C174.831 137.746 174.743 137.424 174.678 137.033C174.619 136.636 174.59 136.252 174.59 135.881ZM174.932 131.574L174.951 133.029H173.262C172.826 133.029 172.441 133.072 172.109 133.156C171.777 133.234 171.501 133.352 171.279 133.508C171.058 133.664 170.892 133.853 170.781 134.074C170.671 134.296 170.615 134.546 170.615 134.826C170.615 135.106 170.68 135.363 170.811 135.598C170.941 135.826 171.13 136.005 171.377 136.135C171.631 136.265 171.937 136.33 172.295 136.33C172.777 136.33 173.197 136.232 173.555 136.037C173.919 135.835 174.206 135.591 174.414 135.305C174.622 135.012 174.733 134.735 174.746 134.475L175.508 135.52C175.43 135.786 175.296 136.073 175.107 136.379C174.919 136.685 174.671 136.978 174.365 137.258C174.066 137.531 173.704 137.756 173.281 137.932C172.865 138.107 172.383 138.195 171.836 138.195C171.146 138.195 170.531 138.059 169.99 137.785C169.45 137.505 169.027 137.131 168.721 136.662C168.415 136.187 168.262 135.65 168.262 135.051C168.262 134.491 168.366 133.996 168.574 133.566C168.789 133.13 169.102 132.766 169.512 132.473C169.928 132.18 170.436 131.958 171.035 131.809C171.634 131.652 172.318 131.574 173.086 131.574H174.932ZM185.371 135.881V130.842C185.371 130.464 185.303 130.139 185.166 129.865C185.029 129.592 184.821 129.38 184.541 129.23C184.268 129.081 183.923 129.006 183.506 129.006C183.122 129.006 182.79 129.071 182.51 129.201C182.23 129.331 182.012 129.507 181.855 129.729C181.699 129.95 181.621 130.201 181.621 130.48H179.277C179.277 130.064 179.378 129.66 179.58 129.27C179.782 128.879 180.075 128.531 180.459 128.225C180.843 127.919 181.302 127.678 181.836 127.502C182.37 127.326 182.969 127.238 183.633 127.238C184.427 127.238 185.13 127.372 185.742 127.639C186.361 127.906 186.846 128.309 187.197 128.85C187.555 129.383 187.734 130.054 187.734 130.861V135.559C187.734 136.04 187.767 136.473 187.832 136.857C187.904 137.235 188.005 137.564 188.135 137.844V138H185.723C185.612 137.746 185.524 137.424 185.459 137.033C185.4 136.636 185.371 136.252 185.371 135.881ZM185.713 131.574L185.732 133.029H184.043C183.607 133.029 183.223 133.072 182.891 133.156C182.559 133.234 182.282 133.352 182.061 133.508C181.839 133.664 181.673 133.853 181.562 134.074C181.452 134.296 181.396 134.546 181.396 134.826C181.396 135.106 181.462 135.363 181.592 135.598C181.722 135.826 181.911 136.005 182.158 136.135C182.412 136.265 182.718 136.33 183.076 136.33C183.558 136.33 183.978 136.232 184.336 136.037C184.701 135.835 184.987 135.591 185.195 135.305C185.404 135.012 185.514 134.735 185.527 134.475L186.289 135.52C186.211 135.786 186.077 136.073 185.889 136.379C185.7 136.685 185.452 136.978 185.146 137.258C184.847 137.531 184.486 137.756 184.062 137.932C183.646 138.107 183.164 138.195 182.617 138.195C181.927 138.195 181.312 138.059 180.771 137.785C180.231 137.505 179.808 137.131 179.502 136.662C179.196 136.187 179.043 135.65 179.043 135.051C179.043 134.491 179.147 133.996 179.355 133.566C179.57 133.13 179.883 132.766 180.293 132.473C180.71 132.18 181.217 131.958 181.816 131.809C182.415 131.652 183.099 131.574 183.867 131.574H185.713ZM196.641 135.812V123H199.004V138H196.865L196.641 135.812ZM189.766 132.834V132.629C189.766 131.828 189.86 131.099 190.049 130.441C190.238 129.777 190.511 129.208 190.869 128.732C191.227 128.251 191.663 127.883 192.178 127.629C192.692 127.368 193.271 127.238 193.916 127.238C194.554 127.238 195.114 127.362 195.596 127.609C196.077 127.857 196.488 128.212 196.826 128.674C197.165 129.13 197.435 129.676 197.637 130.314C197.839 130.946 197.982 131.649 198.066 132.424V133.078C197.982 133.833 197.839 134.523 197.637 135.148C197.435 135.773 197.165 136.314 196.826 136.77C196.488 137.225 196.074 137.577 195.586 137.824C195.104 138.072 194.541 138.195 193.896 138.195C193.258 138.195 192.682 138.062 192.168 137.795C191.66 137.528 191.227 137.154 190.869 136.672C190.511 136.19 190.238 135.624 190.049 134.973C189.86 134.315 189.766 133.602 189.766 132.834ZM192.119 132.629V132.834C192.119 133.316 192.161 133.765 192.246 134.182C192.337 134.598 192.477 134.966 192.666 135.285C192.855 135.598 193.099 135.845 193.398 136.027C193.704 136.203 194.069 136.291 194.492 136.291C195.026 136.291 195.465 136.174 195.811 135.939C196.156 135.705 196.426 135.389 196.621 134.992C196.823 134.589 196.96 134.139 197.031 133.645V131.877C196.992 131.493 196.911 131.135 196.787 130.803C196.67 130.471 196.51 130.181 196.309 129.934C196.107 129.68 195.856 129.484 195.557 129.348C195.264 129.204 194.915 129.133 194.512 129.133C194.082 129.133 193.717 129.224 193.418 129.406C193.118 129.589 192.871 129.839 192.676 130.158C192.487 130.477 192.347 130.848 192.256 131.271C192.165 131.695 192.119 132.147 192.119 132.629ZM208.965 127.434V138H206.602V127.434H208.965ZM206.445 124.66C206.445 124.302 206.562 124.006 206.797 123.771C207.038 123.531 207.37 123.41 207.793 123.41C208.21 123.41 208.538 123.531 208.779 123.771C209.02 124.006 209.141 124.302 209.141 124.66C209.141 125.012 209.02 125.305 208.779 125.539C208.538 125.773 208.21 125.891 207.793 125.891C207.37 125.891 207.038 125.773 206.797 125.539C206.562 125.305 206.445 125.012 206.445 124.66ZM213.916 123V138H211.553V123H213.916ZM220.479 127.434L215.879 132.531L213.359 135.109L212.744 133.117L214.648 130.764L217.637 127.434H220.479ZM218.145 138L214.717 133.039L216.201 131.389L220.869 138H218.145ZM224.346 123V138H221.982V123H224.346ZM230.908 127.434L226.309 132.531L223.789 135.109L223.174 133.117L225.078 130.764L228.066 127.434H230.908ZM228.574 138L225.146 133.039L226.631 131.389L231.299 138H228.574ZM238.359 135.881V130.842C238.359 130.464 238.291 130.139 238.154 129.865C238.018 129.592 237.809 129.38 237.529 129.23C237.256 129.081 236.911 129.006 236.494 129.006C236.11 129.006 235.778 129.071 235.498 129.201C235.218 129.331 235 129.507 234.844 129.729C234.688 129.95 234.609 130.201 234.609 130.48H232.266C232.266 130.064 232.367 129.66 232.568 129.27C232.77 128.879 233.063 128.531 233.447 128.225C233.831 127.919 234.29 127.678 234.824 127.502C235.358 127.326 235.957 127.238 236.621 127.238C237.415 127.238 238.118 127.372 238.73 127.639C239.349 127.906 239.834 128.309 240.186 128.85C240.544 129.383 240.723 130.054 240.723 130.861V135.559C240.723 136.04 240.755 136.473 240.82 136.857C240.892 137.235 240.993 137.564 241.123 137.844V138H238.711C238.6 137.746 238.512 137.424 238.447 137.033C238.389 136.636 238.359 136.252 238.359 135.881ZM238.701 131.574L238.721 133.029H237.031C236.595 133.029 236.211 133.072 235.879 133.156C235.547 133.234 235.27 133.352 235.049 133.508C234.827 133.664 234.661 133.853 234.551 134.074C234.44 134.296 234.385 134.546 234.385 134.826C234.385 135.106 234.45 135.363 234.58 135.598C234.71 135.826 234.899 136.005 235.146 136.135C235.4 136.265 235.706 136.33 236.064 136.33C236.546 136.33 236.966 136.232 237.324 136.037C237.689 135.835 237.975 135.591 238.184 135.305C238.392 135.012 238.503 134.735 238.516 134.475L239.277 135.52C239.199 135.786 239.066 136.073 238.877 136.379C238.688 136.685 238.441 136.978 238.135 137.258C237.835 137.531 237.474 137.756 237.051 137.932C236.634 138.107 236.152 138.195 235.605 138.195C234.915 138.195 234.3 138.059 233.76 137.785C233.219 137.505 232.796 137.131 232.49 136.662C232.184 136.187 232.031 135.65 232.031 135.051C232.031 134.491 232.135 133.996 232.344 133.566C232.559 133.13 232.871 132.766 233.281 132.473C233.698 132.18 234.206 131.958 234.805 131.809C235.404 131.652 236.087 131.574 236.855 131.574H238.701ZM23.7305 148V163H21.3672V148H23.7305ZM32.666 160.51V152.434H35.0293V163H32.8027L32.666 160.51ZM32.998 158.312L33.7891 158.293C33.7891 159.003 33.7109 159.657 33.5547 160.256C33.3984 160.848 33.1576 161.366 32.832 161.809C32.5065 162.245 32.0898 162.587 31.582 162.834C31.0742 163.075 30.4655 163.195 29.7559 163.195C29.2415 163.195 28.7695 163.12 28.3398 162.971C27.9102 162.821 27.5391 162.59 27.2266 162.277C26.9206 161.965 26.6829 161.558 26.5137 161.057C26.3444 160.555 26.2598 159.956 26.2598 159.26V152.434H28.6133V159.279C28.6133 159.663 28.6589 159.986 28.75 160.246C28.8411 160.5 28.9648 160.705 29.1211 160.861C29.2773 161.018 29.4596 161.128 29.668 161.193C29.8763 161.258 30.0977 161.291 30.332 161.291C31.0026 161.291 31.5299 161.161 31.9141 160.9C32.3047 160.633 32.5814 160.275 32.7441 159.826C32.9134 159.377 32.998 158.872 32.998 158.312ZM44.209 152.434H46.3477V162.707C46.3477 163.658 46.1458 164.465 45.7422 165.129C45.3385 165.793 44.7754 166.298 44.0527 166.643C43.3301 166.994 42.4935 167.17 41.543 167.17C41.1393 167.17 40.6901 167.111 40.1953 166.994C39.707 166.877 39.2318 166.688 38.7695 166.428C38.3138 166.174 37.9329 165.839 37.627 165.422L38.7305 164.035C39.1081 164.484 39.5247 164.813 39.9805 165.021C40.4362 165.23 40.9147 165.334 41.416 165.334C41.9564 165.334 42.4154 165.233 42.793 165.031C43.1771 164.836 43.4733 164.546 43.6816 164.162C43.89 163.778 43.9941 163.309 43.9941 162.756V154.826L44.209 152.434ZM37.0312 157.834V157.629C37.0312 156.828 37.1289 156.099 37.3242 155.441C37.5195 154.777 37.7995 154.208 38.1641 153.732C38.5286 153.251 38.9714 152.883 39.4922 152.629C40.013 152.368 40.6022 152.238 41.2598 152.238C41.9434 152.238 42.526 152.362 43.0078 152.609C43.4961 152.857 43.903 153.212 44.2285 153.674C44.554 154.13 44.8079 154.676 44.9902 155.314C45.179 155.946 45.319 156.649 45.4102 157.424V158.078C45.3255 158.833 45.1823 159.523 44.9805 160.148C44.7786 160.773 44.5117 161.314 44.1797 161.77C43.8477 162.225 43.4375 162.577 42.9492 162.824C42.4674 163.072 41.8978 163.195 41.2402 163.195C40.5957 163.195 40.013 163.062 39.4922 162.795C38.9779 162.528 38.5352 162.154 38.1641 161.672C37.7995 161.19 37.5195 160.624 37.3242 159.973C37.1289 159.315 37.0312 158.602 37.0312 157.834ZM39.3848 157.629V157.834C39.3848 158.316 39.4303 158.765 39.5215 159.182C39.6191 159.598 39.7656 159.966 39.9609 160.285C40.1628 160.598 40.4167 160.845 40.7227 161.027C41.0352 161.203 41.403 161.291 41.8262 161.291C42.3796 161.291 42.832 161.174 43.1836 160.939C43.5417 160.705 43.8151 160.389 44.0039 159.992C44.1992 159.589 44.3359 159.139 44.4141 158.645V156.877C44.375 156.493 44.2936 156.135 44.1699 155.803C44.0527 155.471 43.8932 155.181 43.6914 154.934C43.4896 154.68 43.2357 154.484 42.9297 154.348C42.6237 154.204 42.2624 154.133 41.8457 154.133C41.4225 154.133 41.0547 154.224 40.7422 154.406C40.4297 154.589 40.1725 154.839 39.9707 155.158C39.7754 155.477 39.6289 155.848 39.5312 156.271C39.4336 156.695 39.3848 157.147 39.3848 157.629ZM53.4473 163.195C52.666 163.195 51.9596 163.068 51.3281 162.814C50.7031 162.554 50.1693 162.193 49.7266 161.73C49.2904 161.268 48.9551 160.725 48.7207 160.1C48.4863 159.475 48.3691 158.801 48.3691 158.078V157.688C48.3691 156.861 48.4896 156.112 48.7305 155.441C48.9714 154.771 49.3066 154.198 49.7363 153.723C50.166 153.241 50.6738 152.873 51.2598 152.619C51.8457 152.365 52.4805 152.238 53.1641 152.238C53.9193 152.238 54.5801 152.365 55.1465 152.619C55.7129 152.873 56.1816 153.231 56.5527 153.693C56.9303 154.149 57.2103 154.693 57.3926 155.324C57.5814 155.956 57.6758 156.652 57.6758 157.414V158.42H49.5117V156.73H55.3516V156.545C55.3385 156.122 55.2539 155.725 55.0977 155.354C54.9479 154.982 54.7168 154.683 54.4043 154.455C54.0918 154.227 53.6751 154.113 53.1543 154.113C52.7637 154.113 52.4154 154.198 52.1094 154.367C51.8099 154.53 51.5592 154.768 51.3574 155.08C51.1556 155.393 50.9993 155.77 50.8887 156.213C50.7845 156.649 50.7324 157.141 50.7324 157.688V158.078C50.7324 158.54 50.7943 158.97 50.918 159.367C51.0482 159.758 51.237 160.1 51.4844 160.393C51.7318 160.686 52.0312 160.917 52.3828 161.086C52.7344 161.249 53.1348 161.33 53.584 161.33C54.1504 161.33 54.6549 161.216 55.0977 160.988C55.5404 160.76 55.9245 160.438 56.25 160.021L57.4902 161.223C57.2624 161.555 56.9661 161.874 56.6016 162.18C56.237 162.479 55.791 162.723 55.2637 162.912C54.7428 163.101 54.1374 163.195 53.4473 163.195ZM65.957 160.812V148H68.3203V163H66.1816L65.957 160.812ZM59.082 157.834V157.629C59.082 156.828 59.1764 156.099 59.3652 155.441C59.554 154.777 59.8275 154.208 60.1855 153.732C60.5436 153.251 60.9798 152.883 61.4941 152.629C62.0085 152.368 62.5879 152.238 63.2324 152.238C63.8704 152.238 64.4303 152.362 64.9121 152.609C65.3939 152.857 65.804 153.212 66.1426 153.674C66.4811 154.13 66.7513 154.676 66.9531 155.314C67.1549 155.946 67.2982 156.649 67.3828 157.424V158.078C67.2982 158.833 67.1549 159.523 66.9531 160.148C66.7513 160.773 66.4811 161.314 66.1426 161.77C65.804 162.225 65.3906 162.577 64.9023 162.824C64.4206 163.072 63.8574 163.195 63.2129 163.195C62.5749 163.195 61.9987 163.062 61.4844 162.795C60.9766 162.528 60.5436 162.154 60.1855 161.672C59.8275 161.19 59.554 160.624 59.3652 159.973C59.1764 159.315 59.082 158.602 59.082 157.834ZM61.4355 157.629V157.834C61.4355 158.316 61.4779 158.765 61.5625 159.182C61.6536 159.598 61.7936 159.966 61.9824 160.285C62.1712 160.598 62.4154 160.845 62.7148 161.027C63.0208 161.203 63.3854 161.291 63.8086 161.291C64.3424 161.291 64.7819 161.174 65.127 160.939C65.472 160.705 65.7422 160.389 65.9375 159.992C66.1393 159.589 66.276 159.139 66.3477 158.645V156.877C66.3086 156.493 66.2272 156.135 66.1035 155.803C65.9863 155.471 65.8268 155.181 65.625 154.934C65.4232 154.68 65.1725 154.484 64.873 154.348C64.5801 154.204 64.2318 154.133 63.8281 154.133C63.3984 154.133 63.0339 154.224 62.7344 154.406C62.4349 154.589 62.1875 154.839 61.9922 155.158C61.8034 155.477 61.6634 155.848 61.5723 156.271C61.4811 156.695 61.4355 157.147 61.4355 157.629ZM76.7383 160.881V155.842C76.7383 155.464 76.6699 155.139 76.5332 154.865C76.3965 154.592 76.1882 154.38 75.9082 154.23C75.6348 154.081 75.2897 154.006 74.873 154.006C74.4889 154.006 74.1569 154.071 73.877 154.201C73.597 154.331 73.3789 154.507 73.2227 154.729C73.0664 154.95 72.9883 155.201 72.9883 155.48H70.6445C70.6445 155.064 70.7454 154.66 70.9473 154.27C71.1491 153.879 71.4421 153.531 71.8262 153.225C72.2103 152.919 72.6693 152.678 73.2031 152.502C73.737 152.326 74.3359 152.238 75 152.238C75.7943 152.238 76.4974 152.372 77.1094 152.639C77.7279 152.906 78.2129 153.309 78.5645 153.85C78.9225 154.383 79.1016 155.054 79.1016 155.861V160.559C79.1016 161.04 79.1341 161.473 79.1992 161.857C79.2708 162.235 79.3717 162.564 79.502 162.844V163H77.0898C76.9792 162.746 76.8913 162.424 76.8262 162.033C76.7676 161.636 76.7383 161.252 76.7383 160.881ZM77.0801 156.574L77.0996 158.029H75.4102C74.974 158.029 74.5898 158.072 74.2578 158.156C73.9258 158.234 73.6491 158.352 73.4277 158.508C73.2064 158.664 73.0404 158.853 72.9297 159.074C72.819 159.296 72.7637 159.546 72.7637 159.826C72.7637 160.106 72.8288 160.363 72.959 160.598C73.0892 160.826 73.278 161.005 73.5254 161.135C73.7793 161.265 74.0853 161.33 74.4434 161.33C74.9251 161.33 75.3451 161.232 75.7031 161.037C76.0677 160.835 76.3542 160.591 76.5625 160.305C76.7708 160.012 76.8815 159.735 76.8945 159.475L77.6562 160.52C77.5781 160.786 77.4447 161.073 77.2559 161.379C77.0671 161.685 76.8197 161.978 76.5137 162.258C76.2142 162.531 75.8529 162.756 75.4297 162.932C75.013 163.107 74.5312 163.195 73.9844 163.195C73.2943 163.195 72.679 163.059 72.1387 162.785C71.5983 162.505 71.1751 162.131 70.8691 161.662C70.5632 161.187 70.4102 160.65 70.4102 160.051C70.4102 159.491 70.5143 158.996 70.7227 158.566C70.9375 158.13 71.25 157.766 71.6602 157.473C72.0768 157.18 72.5846 156.958 73.1836 156.809C73.7826 156.652 74.4661 156.574 75.2344 156.574H77.0801ZM81.6602 161.828C81.6602 161.464 81.7839 161.158 82.0312 160.91C82.2786 160.656 82.6139 160.529 83.0371 160.529C83.4668 160.529 83.8021 160.656 84.043 160.91C84.2904 161.158 84.4141 161.464 84.4141 161.828C84.4141 162.193 84.2904 162.499 84.043 162.746C83.8021 162.993 83.4668 163.117 83.0371 163.117C82.6139 163.117 82.2786 162.993 82.0312 162.746C81.7839 162.499 81.6602 162.193 81.6602 161.828Z" fill="#461102"/>
<path d="M31.328 191.024C33.568 191.024 35.504 191.44 37.136 192.272C38.768 193.072 40 194.176 40.832 195.584C41.696 196.96 42.128 198.496 42.128 200.192C42.128 201.952 41.744 203.648 40.976 205.28C40.24 206.912 38.96 208.752 37.136 210.8C35.344 212.848 32.72 215.488 29.264 218.72H42.848L42.08 224H21.488V219.056C25.52 215.024 28.432 212.016 30.224 210.032C32.016 208.048 33.28 206.368 34.016 204.992C34.752 203.616 35.12 202.208 35.12 200.768C35.12 199.392 34.72 198.304 33.92 197.504C33.12 196.704 32.048 196.304 30.704 196.304C29.52 196.304 28.464 196.576 27.536 197.12C26.608 197.632 25.632 198.496 24.608 199.712L20.528 196.448C23.28 192.832 26.88 191.024 31.328 191.024ZM67.9933 213.296C68.4413 215.504 69.2573 217.12 70.4413 218.144C71.6573 219.168 73.2733 219.68 75.2893 219.68C77.4333 219.68 79.7373 219.008 82.2013 217.664V222.944C80.8893 223.552 79.6413 224 78.4573 224.288C77.2733 224.608 75.9773 224.768 74.5693 224.768C70.9533 224.768 67.9773 223.776 65.6413 221.792C63.3373 219.776 61.8173 216.944 61.0813 213.296H56.9053L57.8652 209.6H60.8893V206H56.9053L57.8652 202.256H61.1293C62.0253 198.768 63.6893 196.032 66.1213 194.048C68.5853 192.032 71.4813 191.024 74.8093 191.024C78.1373 191.024 81.1453 191.936 83.8333 193.76L81.3853 197.984C80.3613 197.312 79.3533 196.832 78.3613 196.544C77.3693 196.224 76.2653 196.064 75.0493 196.064C73.3853 196.064 71.9613 196.576 70.7773 197.6C69.5933 198.624 68.7133 200.176 68.1373 202.256H79.8973L78.9373 206H67.8013V209.6H78.1693L77.2573 213.296H67.9933Z" fill="#E3000F"/>
<path d="M107.654 212.469V214.5H98.0254V212.762L102.645 207.771C103.126 207.225 103.507 206.749 103.787 206.346C104.067 205.942 104.266 205.577 104.383 205.252C104.507 204.92 104.568 204.604 104.568 204.305C104.568 203.868 104.49 203.488 104.334 203.162C104.178 202.83 103.95 202.573 103.65 202.391C103.357 202.208 102.996 202.117 102.566 202.117C102.091 202.117 101.684 202.228 101.346 202.449C101.014 202.664 100.76 202.964 100.584 203.348C100.415 203.732 100.33 204.171 100.33 204.666H97.7422C97.7422 203.826 97.9375 203.061 98.3281 202.371C98.7188 201.674 99.2786 201.118 100.008 200.701C100.737 200.285 101.603 200.076 102.605 200.076C103.582 200.076 104.409 200.239 105.086 200.564C105.763 200.883 106.277 201.339 106.629 201.932C106.98 202.524 107.156 203.23 107.156 204.051C107.156 204.507 107.081 204.956 106.932 205.398C106.782 205.841 106.57 206.281 106.297 206.717C106.03 207.146 105.711 207.583 105.34 208.025C104.969 208.468 104.555 208.921 104.1 209.383L101.326 212.469H107.654ZM117.146 199.49V214.5H114.568V199.49H117.146ZM123.768 203.934L119.168 209.1L116.678 211.629L115.857 209.627L117.781 207.205L120.652 203.934H123.768ZM121.131 214.5L117.859 209.578L119.578 207.908L124.119 214.5H121.131ZM131.424 211.99V203.934H134.021V214.5H131.58L131.424 211.99ZM131.756 209.803L132.557 209.783C132.557 210.493 132.479 211.147 132.322 211.746C132.166 212.345 131.922 212.866 131.59 213.309C131.264 213.745 130.851 214.087 130.35 214.334C129.848 214.575 129.256 214.695 128.572 214.695C128.051 214.695 127.576 214.624 127.146 214.48C126.717 214.331 126.346 214.1 126.033 213.787C125.727 213.468 125.49 213.061 125.32 212.566C125.151 212.065 125.066 211.463 125.066 210.76V203.934H127.645V210.779C127.645 211.131 127.684 211.424 127.762 211.658C127.846 211.893 127.96 212.085 128.104 212.234C128.253 212.378 128.426 212.482 128.621 212.547C128.823 212.605 129.038 212.635 129.266 212.635C129.891 212.635 130.382 212.511 130.74 212.264C131.105 212.01 131.365 211.671 131.521 211.248C131.678 210.818 131.756 210.337 131.756 209.803ZM142.596 211.99V203.934H145.193V214.5H142.752L142.596 211.99ZM142.928 209.803L143.729 209.783C143.729 210.493 143.65 211.147 143.494 211.746C143.338 212.345 143.094 212.866 142.762 213.309C142.436 213.745 142.023 214.087 141.521 214.334C141.02 214.575 140.428 214.695 139.744 214.695C139.223 214.695 138.748 214.624 138.318 214.48C137.889 214.331 137.518 214.1 137.205 213.787C136.899 213.468 136.661 213.061 136.492 212.566C136.323 212.065 136.238 211.463 136.238 210.76V203.934H138.816V210.779C138.816 211.131 138.855 211.424 138.934 211.658C139.018 211.893 139.132 212.085 139.275 212.234C139.425 212.378 139.598 212.482 139.793 212.547C139.995 212.605 140.21 212.635 140.438 212.635C141.062 212.635 141.554 212.511 141.912 212.264C142.277 212.01 142.537 211.671 142.693 211.248C142.85 210.818 142.928 210.337 142.928 209.803ZM153.816 212.254V199.5H156.414V214.5H154.07L153.816 212.254ZM147.029 209.344V209.139C147.029 208.331 147.12 207.599 147.303 206.941C147.492 206.277 147.765 205.708 148.123 205.232C148.481 204.757 148.914 204.389 149.422 204.129C149.936 203.868 150.519 203.738 151.17 203.738C151.801 203.738 152.352 203.865 152.82 204.119C153.296 204.373 153.699 204.734 154.031 205.203C154.37 205.672 154.64 206.229 154.842 206.873C155.044 207.511 155.19 208.214 155.281 208.982V209.539C155.19 210.288 155.044 210.975 154.842 211.6C154.64 212.225 154.37 212.771 154.031 213.24C153.699 213.702 153.296 214.061 152.82 214.314C152.345 214.568 151.788 214.695 151.15 214.695C150.506 214.695 149.926 214.562 149.412 214.295C148.904 214.028 148.471 213.654 148.113 213.172C147.762 212.69 147.492 212.124 147.303 211.473C147.12 210.822 147.029 210.112 147.029 209.344ZM149.617 209.139V209.344C149.617 209.799 149.656 210.226 149.734 210.623C149.812 211.02 149.939 211.372 150.115 211.678C150.291 211.977 150.516 212.212 150.789 212.381C151.069 212.55 151.408 212.635 151.805 212.635C152.312 212.635 152.729 212.524 153.055 212.303C153.387 212.075 153.644 211.766 153.826 211.375C154.008 210.978 154.126 210.532 154.178 210.037V208.504C154.152 208.113 154.083 207.752 153.973 207.42C153.868 207.088 153.719 206.801 153.523 206.561C153.335 206.32 153.1 206.131 152.82 205.994C152.54 205.857 152.208 205.789 151.824 205.789C151.427 205.789 151.089 205.877 150.809 206.053C150.529 206.222 150.301 206.46 150.125 206.766C149.949 207.072 149.819 207.426 149.734 207.83C149.656 208.234 149.617 208.67 149.617 209.139Z" fill="#461102"/>
<rect x="20" y="240" width="198" height="40" rx="10" fill="#E3000F"/>
<path d="M50.78 253.14L50.46 255.66H47.04V267H43.76V255.66H40.18V253.14H50.78ZM60.6008 253.14L60.2608 255.48H55.3808V258.8H59.6408V261.1H55.3808V264.64H60.6008V267H52.1008V253.14H60.6008ZM65.9081 253.14V264.4H71.3081L70.9681 267H62.6281V253.14H65.9081ZM76.162 253.14V264.4H81.562L81.222 267H72.882V253.14H76.162ZM86.4159 253.14V267H83.1359V253.14H86.4159ZM97.6014 253.14C99.7747 253.14 101.515 253.633 102.821 254.62C104.141 255.593 104.801 257.387 104.801 260C104.801 262.573 104.161 264.387 102.881 265.44C101.601 266.48 99.9414 267 97.9014 267H93.7414V253.14H97.6014ZM97.0214 255.52V264.62H98.1014C99.1814 264.62 100.001 264.287 100.561 263.62C101.121 262.94 101.401 261.733 101.401 260C101.401 258.813 101.261 257.893 100.981 257.24C100.701 256.587 100.321 256.14 99.8414 255.9C99.3614 255.647 98.7681 255.52 98.0614 255.52H97.0214ZM110.049 253.14V267H106.769V253.14H110.049ZM118.628 252.8C120.415 252.8 121.955 253.367 123.248 254.5L121.588 256.24C121.095 255.867 120.635 255.6 120.208 255.44C119.795 255.267 119.315 255.18 118.768 255.18C117.741 255.18 116.921 255.587 116.308 256.4C115.695 257.2 115.388 258.42 115.388 260.06C115.388 261.833 115.621 263.093 116.088 263.84C116.555 264.573 117.281 264.94 118.268 264.94C118.961 264.94 119.588 264.787 120.148 264.48V261.34H118.348L118.028 259.02H123.328V265.88C122.608 266.347 121.815 266.707 120.948 266.96C120.081 267.213 119.215 267.34 118.348 267.34C116.241 267.34 114.655 266.727 113.588 265.5C112.521 264.26 111.988 262.447 111.988 260.06C111.988 258.54 112.275 257.233 112.848 256.14C113.435 255.047 114.228 254.22 115.228 253.66C116.241 253.087 117.375 252.8 118.628 252.8ZM128.799 253.14V267H125.519V253.14H128.799ZM135.858 253.14C137.685 253.14 139.105 253.52 140.118 254.28C141.131 255.04 141.638 256.167 141.638 257.66C141.638 259.22 141.138 260.4 140.138 261.2C139.151 261.987 137.825 262.38 136.158 262.38H134.658V267H131.378V253.14H135.858ZM135.878 260.02C136.651 260.02 137.238 259.84 137.638 259.48C138.051 259.107 138.258 258.5 138.258 257.66C138.258 256.207 137.445 255.48 135.818 255.48H134.658V260.02H135.878ZM149.479 267L148.759 264.02H144.719L144.019 267H140.619L144.799 253.14H148.779L152.959 267H149.479ZM145.279 261.64H148.199L146.739 255.52L145.279 261.64ZM157.256 253.14V267H153.976V253.14H157.256ZM165.216 253.14L160.796 259.36L165.576 267H161.776L157.356 259.6L161.756 253.14H165.216ZM175.132 253.14L174.792 255.48H169.912V258.8H174.172V261.1H169.912V264.64H175.132V267H166.632V253.14H175.132ZM186.639 253.14L186.319 255.66H182.899V267H179.619V255.66H176.039V253.14H186.639ZM197.44 253.14L197.12 255.66H193.7V267H190.42V255.66H186.84V253.14H197.44Z" fill="#FFE80D"/>
</svg>
