<svg width="300" height="320" viewBox="0 0 300 320" fill="none" xmlns="http://www.w3.org/2000/svg">
<path d="M34.16 51.528C34.16 52.664 33.92 53.672 33.44 54.552C32.96 55.432 32.24 56.128 31.28 56.64C30.336 57.136 29.184 57.384 27.824 57.384C25.776 57.384 24.208 56.856 23.12 55.8C22.048 54.728 21.512 53.304 21.512 51.528V40.392H25.04V51.36C25.04 52.48 25.264 53.32 25.712 53.88C26.16 54.424 26.864 54.696 27.824 54.696C28.784 54.696 29.488 54.424 29.936 53.88C30.4 53.32 30.632 52.48 30.632 51.36V40.392H34.16V51.528ZM47.7991 57H44.8471L44.6791 55.296C44.2311 56 43.6871 56.528 43.0471 56.88C42.4071 57.216 41.6631 57.384 40.8151 57.384C39.6631 57.384 38.7831 57.04 38.1751 56.352C37.5671 55.648 37.2631 54.672 37.2631 53.424V44.28H40.6711V52.992C40.6711 53.664 40.7831 54.144 41.0071 54.432C41.2311 54.704 41.5831 54.84 42.0631 54.84C42.9751 54.84 43.7511 54.288 44.3911 53.184V44.28H47.7991V57ZM61.9164 50.352C61.9164 50.512 61.8924 50.952 61.8444 51.672H53.9004C54.0124 52.824 54.3244 53.64 54.8364 54.12C55.3484 54.6 56.0444 54.84 56.9244 54.84C57.4684 54.84 57.9804 54.752 58.4604 54.576C58.9404 54.4 59.4604 54.12 60.0204 53.736L61.4364 55.656C60.0124 56.808 58.4044 57.384 56.6124 57.384C54.6124 57.384 53.0764 56.784 52.0044 55.584C50.9324 54.384 50.3964 52.76 50.3964 50.712C50.3964 49.416 50.6204 48.256 51.0684 47.232C51.5324 46.192 52.1964 45.376 53.0604 44.784C53.9404 44.192 54.9804 43.896 56.1804 43.896C57.9884 43.896 59.3964 44.464 60.4044 45.6C61.4124 46.736 61.9164 48.32 61.9164 50.352ZM58.5324 49.392C58.5324 47.28 57.7724 46.224 56.2524 46.224C55.5484 46.224 54.9964 46.488 54.5964 47.016C54.2124 47.528 53.9804 48.368 53.9004 49.536H58.5324V49.392ZM67.5511 57.384C66.5111 57.384 65.7031 57.088 65.1271 56.496C64.5511 55.888 64.2631 55.032 64.2631 53.928V39.216L67.6711 38.832V53.832C67.6711 54.392 67.9031 54.672 68.3671 54.672C68.6231 54.672 68.8471 54.624 69.0391 54.528L69.7351 56.952C69.0791 57.24 68.3511 57.384 67.5511 57.384ZM87.0641 53.472C87.0641 53.968 87.1361 54.336 87.2801 54.576C87.4241 54.8 87.6641 54.968 88.0001 55.08L87.2801 57.336C86.5281 57.272 85.9121 57.096 85.4321 56.808C84.9681 56.52 84.6081 56.072 84.3521 55.464C83.5201 56.744 82.2481 57.384 80.5361 57.384C79.2721 57.384 78.2641 57.024 77.5121 56.304C76.7761 55.568 76.4081 54.616 76.4081 53.448C76.4081 52.056 76.9121 50.992 77.9201 50.256C78.9281 49.52 80.3761 49.152 82.2641 49.152H83.7281V48.528C83.7281 47.744 83.5521 47.2 83.2001 46.896C82.8481 46.592 82.2641 46.44 81.4481 46.44C80.5521 46.44 79.4321 46.664 78.0881 47.112L77.3201 44.832C78.9041 44.208 80.4721 43.896 82.0241 43.896C83.7521 43.896 85.0241 44.272 85.8401 45.024C86.6561 45.76 87.0641 46.864 87.0641 48.336V53.472ZM81.4721 54.936C82.4321 54.936 83.1841 54.464 83.7281 53.52V51.096H82.6001C80.7601 51.096 79.8401 51.784 79.8401 53.16C79.8401 53.72 79.9761 54.16 80.2481 54.48C80.5361 54.784 80.9441 54.936 81.4721 54.936ZM100.072 53.472C100.072 53.968 100.144 54.336 100.288 54.576C100.432 54.8 100.672 54.968 101.008 55.08L100.288 57.336C99.5359 57.272 98.9199 57.096 98.4399 56.808C97.9759 56.52 97.6159 56.072 97.3599 55.464C96.5279 56.744 95.2559 57.384 93.5439 57.384C92.2799 57.384 91.2719 57.024 90.5199 56.304C89.7839 55.568 89.4159 54.616 89.4159 53.448C89.4159 52.056 89.9199 50.992 90.9279 50.256C91.9359 49.52 93.3839 49.152 95.2719 49.152H96.7359V48.528C96.7359 47.744 96.5599 47.2 96.2079 46.896C95.8559 46.592 95.2719 46.44 94.4559 46.44C93.5599 46.44 92.4399 46.664 91.0959 47.112L90.3279 44.832C91.9119 44.208 93.4799 43.896 95.0319 43.896C96.7599 43.896 98.0319 44.272 98.8479 45.024C99.6639 45.76 100.072 46.864 100.072 48.336V53.472ZM94.4799 54.936C95.4399 54.936 96.1919 54.464 96.7359 53.52V51.096H95.6079C93.7679 51.096 92.8479 51.784 92.8479 53.16C92.8479 53.72 92.9839 54.16 93.2559 54.48C93.5439 54.784 93.9519 54.936 94.4799 54.936ZM107.467 43.896C109.259 43.896 110.795 44.408 112.075 45.432L110.779 47.376C109.707 46.704 108.651 46.368 107.611 46.368C107.051 46.368 106.619 46.472 106.315 46.68C106.011 46.888 105.859 47.168 105.859 47.52C105.859 47.776 105.923 47.992 106.051 48.168C106.195 48.344 106.451 48.512 106.819 48.672C107.203 48.832 107.771 49.024 108.523 49.248C109.867 49.616 110.867 50.112 111.523 50.736C112.179 51.344 112.507 52.184 112.507 53.256C112.507 54.104 112.259 54.84 111.763 55.464C111.283 56.088 110.627 56.568 109.795 56.904C108.963 57.224 108.035 57.384 107.011 57.384C105.939 57.384 104.963 57.224 104.083 56.904C103.203 56.568 102.451 56.112 101.827 55.536L103.507 53.664C104.579 54.496 105.715 54.912 106.915 54.912C107.555 54.912 108.059 54.792 108.427 54.552C108.811 54.296 109.003 53.952 109.003 53.52C109.003 53.184 108.931 52.92 108.787 52.728C108.643 52.536 108.379 52.36 107.995 52.2C107.611 52.024 107.011 51.824 106.195 51.6C104.915 51.248 103.963 50.752 103.339 50.112C102.731 49.456 102.427 48.648 102.427 47.688C102.427 46.968 102.635 46.32 103.051 45.744C103.467 45.168 104.051 44.72 104.803 44.4C105.571 44.064 106.459 43.896 107.467 43.896ZM122.335 56.4C121.871 56.72 121.343 56.96 120.751 57.12C120.175 57.296 119.599 57.384 119.023 57.384C117.711 57.368 116.719 56.992 116.047 56.256C115.375 55.52 115.039 54.44 115.039 53.016V46.68H113.143V44.28H115.039V41.496L118.447 41.088V44.28H121.375L121.039 46.68H118.447V52.944C118.447 53.552 118.551 53.992 118.759 54.264C118.967 54.536 119.287 54.672 119.719 54.672C120.151 54.672 120.631 54.528 121.159 54.24L122.335 56.4ZM133.306 53.472C133.306 53.968 133.378 54.336 133.522 54.576C133.666 54.8 133.906 54.968 134.242 55.08L133.522 57.336C132.77 57.272 132.154 57.096 131.674 56.808C131.21 56.52 130.85 56.072 130.594 55.464C129.762 56.744 128.49 57.384 126.778 57.384C125.514 57.384 124.506 57.024 123.754 56.304C123.018 55.568 122.65 54.616 122.65 53.448C122.65 52.056 123.154 50.992 124.162 50.256C125.17 49.52 126.618 49.152 128.506 49.152H129.97V48.528C129.97 47.744 129.794 47.2 129.442 46.896C129.09 46.592 128.506 46.44 127.69 46.44C126.794 46.44 125.674 46.664 124.33 47.112L123.562 44.832C125.146 44.208 126.714 43.896 128.266 43.896C129.994 43.896 131.266 44.272 132.082 45.024C132.898 45.76 133.306 46.864 133.306 48.336V53.472ZM127.714 54.936C128.674 54.936 129.426 54.464 129.97 53.52V51.096H128.842C127.002 51.096 126.082 51.784 126.082 53.16C126.082 53.72 126.218 54.16 126.49 54.48C126.778 54.784 127.186 54.936 127.714 54.936ZM139.645 57.384C138.605 57.384 137.797 57.088 137.221 56.496C136.645 55.888 136.357 55.032 136.357 53.928V39.216L139.765 38.832V53.832C139.765 54.392 139.997 54.672 140.461 54.672C140.717 54.672 140.941 54.624 141.133 54.528L141.829 56.952C141.173 57.24 140.445 57.384 139.645 57.384ZM152.846 38.832V57H149.438V39.216L152.846 38.832ZM160.574 44.28L156.518 49.872L160.934 57H157.07L152.966 50.04L157.046 44.28H160.574ZM171.814 53.472C171.814 53.968 171.886 54.336 172.03 54.576C172.174 54.8 172.414 54.968 172.75 55.08L172.03 57.336C171.278 57.272 170.662 57.096 170.182 56.808C169.718 56.52 169.358 56.072 169.102 55.464C168.27 56.744 166.998 57.384 165.286 57.384C164.022 57.384 163.014 57.024 162.262 56.304C161.526 55.568 161.158 54.616 161.158 53.448C161.158 52.056 161.662 50.992 162.67 50.256C163.678 49.52 165.126 49.152 167.014 49.152H168.478V48.528C168.478 47.744 168.302 47.2 167.95 46.896C167.598 46.592 167.014 46.44 166.198 46.44C165.302 46.44 164.182 46.664 162.838 47.112L162.07 44.832C163.654 44.208 165.222 43.896 166.774 43.896C168.502 43.896 169.774 44.272 170.59 45.024C171.406 45.76 171.814 46.864 171.814 48.336V53.472ZM166.222 54.936C167.182 54.936 167.934 54.464 168.478 53.52V51.096H167.35C165.51 51.096 164.59 51.784 164.59 53.16C164.59 53.72 164.726 54.16 164.998 54.48C165.286 54.784 165.694 54.936 166.222 54.936ZM164.134 37.992C164.646 37.992 165.07 38.168 165.406 38.52C165.758 38.856 165.934 39.272 165.934 39.768C165.934 40.264 165.758 40.688 165.406 41.04C165.07 41.376 164.646 41.544 164.134 41.544C163.638 41.544 163.214 41.376 162.862 41.04C162.51 40.688 162.334 40.264 162.334 39.768C162.334 39.272 162.51 38.856 162.862 38.52C163.214 38.168 163.638 37.992 164.134 37.992ZM169.558 37.992C170.07 37.992 170.502 38.168 170.854 38.52C171.206 38.856 171.382 39.272 171.382 39.768C171.382 40.264 171.206 40.688 170.854 41.04C170.502 41.376 170.07 41.544 169.558 41.544C169.062 41.544 168.638 41.376 168.286 41.04C167.95 40.688 167.782 40.264 167.782 39.768C167.782 39.272 167.95 38.856 168.286 38.52C168.638 38.168 169.062 37.992 169.558 37.992ZM178.627 44.28V57H175.219V44.28H178.627ZM176.899 37.728C177.507 37.728 178.003 37.92 178.387 38.304C178.787 38.672 178.987 39.144 178.987 39.72C178.987 40.296 178.787 40.776 178.387 41.16C178.003 41.528 177.507 41.712 176.899 41.712C176.291 41.712 175.795 41.528 175.411 41.16C175.027 40.776 174.835 40.296 174.835 39.72C174.835 39.144 175.027 38.672 175.411 38.304C175.795 37.92 176.291 37.728 176.899 37.728ZM189.097 43.896C190.217 43.896 191.089 44.24 191.713 44.928C192.337 45.6 192.648 46.536 192.648 47.736V57H189.241V48.312C189.241 47.624 189.121 47.144 188.881 46.872C188.657 46.584 188.313 46.44 187.849 46.44C187.369 46.44 186.929 46.592 186.529 46.896C186.145 47.184 185.769 47.624 185.401 48.216V57H181.993V44.28H184.945L185.209 45.888C185.737 45.232 186.313 44.736 186.937 44.4C187.577 44.064 188.297 43.896 189.097 43.896ZM25.904 69.896C27.696 69.896 29.232 70.408 30.512 71.432L29.216 73.376C28.144 72.704 27.088 72.368 26.048 72.368C25.488 72.368 25.056 72.472 24.752 72.68C24.448 72.888 24.296 73.168 24.296 73.52C24.296 73.776 24.36 73.992 24.488 74.168C24.632 74.344 24.888 74.512 25.256 74.672C25.64 74.832 26.208 75.024 26.96 75.248C28.304 75.616 29.304 76.112 29.96 76.736C30.616 77.344 30.944 78.184 30.944 79.256C30.944 80.104 30.696 80.84 30.2 81.464C29.72 82.088 29.064 82.568 28.232 82.904C27.4 83.224 26.472 83.384 25.448 83.384C24.376 83.384 23.4 83.224 22.52 82.904C21.64 82.568 20.888 82.112 20.264 81.536L21.944 79.664C23.016 80.496 24.152 80.912 25.352 80.912C25.992 80.912 26.496 80.792 26.864 80.552C27.248 80.296 27.44 79.952 27.44 79.52C27.44 79.184 27.368 78.92 27.224 78.728C27.08 78.536 26.816 78.36 26.432 78.2C26.048 78.024 25.448 77.824 24.632 77.6C23.352 77.248 22.4 76.752 21.776 76.112C21.168 75.456 20.864 74.648 20.864 73.688C20.864 72.968 21.072 72.32 21.488 71.744C21.904 71.168 22.488 70.72 23.24 70.4C24.008 70.064 24.896 69.896 25.904 69.896ZM38.5164 69.896C40.4204 69.896 41.9084 70.496 42.9804 71.696C44.0524 72.88 44.5884 74.528 44.5884 76.64C44.5884 77.984 44.3404 79.168 43.8444 80.192C43.3644 81.2 42.6604 81.984 41.7324 82.544C40.8204 83.104 39.7404 83.384 38.4924 83.384C36.5884 83.384 35.0924 82.792 34.0044 81.608C32.9324 80.408 32.3964 78.752 32.3964 76.64C32.3964 75.296 32.6364 74.12 33.1164 73.112C33.6124 72.088 34.3164 71.296 35.2284 70.736C36.1564 70.176 37.2524 69.896 38.5164 69.896ZM38.5164 72.44C37.6524 72.44 37.0044 72.784 36.5724 73.472C36.1564 74.144 35.9484 75.2 35.9484 76.64C35.9484 78.08 36.1564 79.144 36.5724 79.832C37.0044 80.504 37.6444 80.84 38.4924 80.84C39.3404 80.84 39.9724 80.504 40.3884 79.832C40.8204 79.144 41.0364 78.08 41.0364 76.64C41.0364 75.2 40.8284 74.144 40.4124 73.472C39.9964 72.784 39.3644 72.44 38.5164 72.44ZM39.8844 67.64C39.5484 67.64 39.2524 67.584 38.9964 67.472C38.7564 67.36 38.4684 67.2 38.1324 66.992C37.9244 66.832 37.7404 66.72 37.5804 66.656C37.4364 66.576 37.2844 66.536 37.1244 66.536C36.8684 66.536 36.6444 66.624 36.4524 66.8C36.2604 66.976 36.0604 67.248 35.8524 67.616L34.1004 66.752C34.4204 65.968 34.8364 65.328 35.3484 64.832C35.8604 64.336 36.4364 64.088 37.0764 64.088C37.4444 64.088 37.7564 64.152 38.0124 64.28C38.2684 64.392 38.5564 64.552 38.8764 64.76C39.0844 64.904 39.2604 65.016 39.4044 65.096C39.5484 65.16 39.7004 65.192 39.8604 65.192C40.1164 65.192 40.3324 65.112 40.5084 64.952C40.7004 64.776 40.9084 64.504 41.1324 64.136L42.8844 65C42.5644 65.816 42.1484 66.464 41.6364 66.944C41.1244 67.408 40.5404 67.64 39.8844 67.64ZM54.068 69.896C55.556 69.896 56.708 70.488 57.524 71.672C58.356 72.856 58.772 74.512 58.772 76.64C58.772 77.952 58.564 79.12 58.148 80.144C57.748 81.152 57.164 81.944 56.396 82.52C55.644 83.096 54.756 83.384 53.732 83.384C52.34 83.384 51.228 82.84 50.396 81.752L50.204 83H47.18V65.216L50.588 64.832V71.648C50.988 71.104 51.492 70.68 52.1 70.376C52.708 70.056 53.364 69.896 54.068 69.896ZM52.772 80.864C54.404 80.864 55.22 79.456 55.22 76.64C55.22 75.088 55.02 74 54.62 73.376C54.236 72.736 53.676 72.416 52.94 72.416C52.028 72.416 51.244 72.96 50.588 74.048V79.496C51.148 80.408 51.876 80.864 52.772 80.864ZM68.0529 69.92C68.4369 69.92 68.8609 69.984 69.3249 70.112L68.7489 73.4C68.3009 73.288 67.9249 73.232 67.6209 73.232C66.8689 73.232 66.2849 73.496 65.8689 74.024C65.4529 74.552 65.1249 75.352 64.8849 76.424V83H61.4769V70.28H64.4289L64.7409 72.752C65.0449 71.856 65.4849 71.16 66.0609 70.664C66.6529 70.168 67.3169 69.92 68.0529 69.92ZM79.8922 79.472C79.8922 79.968 79.9642 80.336 80.1082 80.576C80.2522 80.8 80.4922 80.968 80.8282 81.08L80.1082 83.336C79.3562 83.272 78.7402 83.096 78.2602 82.808C77.7962 82.52 77.4362 82.072 77.1802 81.464C76.3482 82.744 75.0762 83.384 73.3642 83.384C72.1002 83.384 71.0922 83.024 70.3402 82.304C69.6042 81.568 69.2362 80.616 69.2362 79.448C69.2362 78.056 69.7402 76.992 70.7482 76.256C71.7562 75.52 73.2042 75.152 75.0922 75.152H76.5562V74.528C76.5562 73.744 76.3802 73.2 76.0282 72.896C75.6762 72.592 75.0922 72.44 74.2762 72.44C73.3802 72.44 72.2602 72.664 70.9162 73.112L70.1482 70.832C71.7322 70.208 73.3002 69.896 74.8522 69.896C76.5802 69.896 77.8522 70.272 78.6682 71.024C79.4842 71.76 79.8922 72.864 79.8922 74.336V79.472ZM74.3002 80.936C75.2602 80.936 76.0122 80.464 76.5562 79.52V77.096H75.4282C73.5882 77.096 72.6682 77.784 72.6682 79.16C72.6682 79.72 72.8042 80.16 73.0762 80.48C73.3642 80.784 73.7722 80.936 74.3002 80.936ZM90.4012 69.896C91.5212 69.896 92.3932 70.24 93.0172 70.928C93.6412 71.6 93.9532 72.536 93.9532 73.736V83H90.5452V74.312C90.5452 73.624 90.4252 73.144 90.1852 72.872C89.9612 72.584 89.6172 72.44 89.1532 72.44C88.6732 72.44 88.2332 72.592 87.8332 72.896C87.4492 73.184 87.0732 73.624 86.7052 74.216V83H83.2972V70.28H86.2492L86.5132 71.888C87.0412 71.232 87.6172 70.736 88.2412 70.4C88.8812 70.064 89.6012 69.896 90.4012 69.896ZM104.3 69.896C105.42 69.896 106.292 70.24 106.916 70.928C107.54 71.6 107.852 72.536 107.852 73.736V83H104.444V74.312C104.444 73.624 104.324 73.144 104.084 72.872C103.86 72.584 103.516 72.44 103.052 72.44C102.572 72.44 102.132 72.592 101.732 72.896C101.348 73.184 100.972 73.624 100.604 74.216V83H97.1956V70.28H100.148L100.412 71.888C100.94 71.232 101.516 70.736 102.14 70.4C102.78 70.064 103.5 69.896 104.3 69.896ZM120.814 79.472C120.814 79.968 120.886 80.336 121.03 80.576C121.174 80.8 121.414 80.968 121.75 81.08L121.03 83.336C120.278 83.272 119.662 83.096 119.182 82.808C118.718 82.52 118.358 82.072 118.102 81.464C117.27 82.744 115.998 83.384 114.286 83.384C113.022 83.384 112.014 83.024 111.262 82.304C110.526 81.568 110.158 80.616 110.158 79.448C110.158 78.056 110.662 76.992 111.67 76.256C112.678 75.52 114.126 75.152 116.014 75.152H117.478V74.528C117.478 73.744 117.302 73.2 116.95 72.896C116.598 72.592 116.014 72.44 115.198 72.44C114.302 72.44 113.182 72.664 111.838 73.112L111.07 70.832C112.654 70.208 114.222 69.896 115.774 69.896C117.502 69.896 118.774 70.272 119.59 71.024C120.406 71.76 120.814 72.864 120.814 74.336V79.472ZM115.222 80.936C116.182 80.936 116.934 80.464 117.478 79.52V77.096H116.35C114.51 77.096 113.59 77.784 113.59 79.16C113.59 79.72 113.726 80.16 113.998 80.48C114.286 80.784 114.694 80.936 115.222 80.936ZM135.235 65.216V83H132.235L132.043 81.44C131.147 82.736 129.931 83.384 128.395 83.384C126.827 83.384 125.627 82.784 124.795 81.584C123.979 80.368 123.571 78.72 123.571 76.64C123.571 75.328 123.779 74.168 124.195 73.16C124.627 72.136 125.235 71.336 126.019 70.76C126.803 70.184 127.707 69.896 128.731 69.896C129.915 69.896 130.947 70.32 131.827 71.168V64.832L135.235 65.216ZM129.403 80.84C129.899 80.84 130.339 80.72 130.723 80.48C131.107 80.224 131.475 79.832 131.827 79.304V73.616C131.491 73.216 131.147 72.92 130.795 72.728C130.459 72.52 130.067 72.416 129.619 72.416C128.835 72.416 128.219 72.76 127.771 73.448C127.339 74.136 127.123 75.2 127.123 76.64C127.123 78.16 127.315 79.24 127.699 79.88C128.099 80.52 128.667 80.84 129.403 80.84ZM149.338 76.352C149.338 76.512 149.314 76.952 149.266 77.672H141.322C141.434 78.824 141.746 79.64 142.258 80.12C142.77 80.6 143.466 80.84 144.346 80.84C144.89 80.84 145.402 80.752 145.882 80.576C146.362 80.4 146.882 80.12 147.442 79.736L148.858 81.656C147.434 82.808 145.826 83.384 144.034 83.384C142.034 83.384 140.498 82.784 139.426 81.584C138.354 80.384 137.818 78.76 137.818 76.712C137.818 75.416 138.042 74.256 138.49 73.232C138.954 72.192 139.618 71.376 140.482 70.784C141.362 70.192 142.402 69.896 143.602 69.896C145.41 69.896 146.818 70.464 147.826 71.6C148.834 72.736 149.338 74.32 149.338 76.352ZM145.954 75.392C145.954 73.28 145.194 72.224 143.674 72.224C142.97 72.224 142.418 72.488 142.018 73.016C141.634 73.528 141.402 74.368 141.322 75.536H145.954V75.392ZM163.181 70.976C162.349 71.296 161.125 71.456 159.509 71.456C160.309 71.808 160.901 72.248 161.285 72.776C161.669 73.288 161.861 73.936 161.861 74.72C161.861 75.536 161.645 76.272 161.213 76.928C160.797 77.568 160.189 78.072 159.389 78.44C158.605 78.808 157.685 78.992 156.629 78.992C156.069 78.992 155.573 78.936 155.141 78.824C154.821 79.032 154.661 79.312 154.661 79.664C154.661 79.92 154.757 80.128 154.949 80.288C155.157 80.432 155.549 80.504 156.125 80.504H158.069C159.013 80.504 159.837 80.664 160.541 80.984C161.261 81.288 161.813 81.72 162.197 82.28C162.597 82.824 162.797 83.448 162.797 84.152C162.797 85.448 162.237 86.456 161.117 87.176C160.013 87.912 158.413 88.28 156.317 88.28C154.813 88.28 153.621 88.12 152.741 87.8C151.877 87.496 151.269 87.048 150.917 86.456C150.565 85.864 150.389 85.12 150.389 84.224H153.437C153.437 84.64 153.517 84.968 153.677 85.208C153.837 85.464 154.125 85.648 154.541 85.76C154.973 85.888 155.589 85.952 156.389 85.952C157.493 85.952 158.261 85.816 158.693 85.544C159.141 85.272 159.365 84.888 159.365 84.392C159.365 83.944 159.197 83.6 158.861 83.36C158.525 83.12 158.029 83 157.373 83H155.501C154.237 83 153.293 82.768 152.669 82.304C152.045 81.824 151.733 81.224 151.733 80.504C151.733 80.056 151.861 79.624 152.117 79.208C152.389 78.776 152.757 78.416 153.221 78.128C152.437 77.696 151.861 77.192 151.493 76.616C151.141 76.024 150.965 75.32 150.965 74.504C150.965 73.576 151.189 72.768 151.637 72.08C152.101 71.376 152.741 70.84 153.557 70.472C154.389 70.088 155.333 69.896 156.389 69.896C157.701 69.928 158.781 69.816 159.629 69.56C160.477 69.304 161.381 68.904 162.341 68.36L163.181 70.976ZM156.461 72.176C155.821 72.176 155.309 72.384 154.925 72.8C154.557 73.2 154.373 73.752 154.373 74.456C154.373 75.176 154.557 75.744 154.925 76.16C155.309 76.576 155.829 76.784 156.485 76.784C157.173 76.784 157.693 76.584 158.045 76.184C158.397 75.784 158.573 75.192 158.573 74.408C158.573 72.92 157.869 72.176 156.461 72.176ZM174.041 79.472C174.041 79.968 174.113 80.336 174.257 80.576C174.401 80.8 174.641 80.968 174.977 81.08L174.257 83.336C173.505 83.272 172.889 83.096 172.409 82.808C171.945 82.52 171.585 82.072 171.329 81.464C170.497 82.744 169.225 83.384 167.513 83.384C166.249 83.384 165.241 83.024 164.489 82.304C163.753 81.568 163.385 80.616 163.385 79.448C163.385 78.056 163.889 76.992 164.897 76.256C165.905 75.52 167.353 75.152 169.241 75.152H170.705V74.528C170.705 73.744 170.529 73.2 170.177 72.896C169.825 72.592 169.241 72.44 168.425 72.44C167.529 72.44 166.409 72.664 165.065 73.112L164.297 70.832C165.881 70.208 167.449 69.896 169.001 69.896C170.729 69.896 172.001 70.272 172.817 71.024C173.633 71.76 174.041 72.864 174.041 74.336V79.472ZM168.449 80.936C169.409 80.936 170.161 80.464 170.705 79.52V77.096H169.577C167.737 77.096 166.817 77.784 166.817 79.16C166.817 79.72 166.953 80.16 167.225 80.48C167.513 80.784 167.921 80.936 168.449 80.936ZM189.881 69.92C190.265 69.92 190.689 69.984 191.153 70.112L190.577 73.4C190.129 73.288 189.753 73.232 189.449 73.232C188.697 73.232 188.113 73.496 187.697 74.024C187.281 74.552 186.953 75.352 186.713 76.424V83H183.305V70.28H186.257L186.569 72.752C186.873 71.856 187.313 71.16 187.889 70.664C188.481 70.168 189.145 69.92 189.881 69.92ZM197.47 69.896C199.374 69.896 200.862 70.496 201.934 71.696C203.006 72.88 203.542 74.528 203.542 76.64C203.542 77.984 203.294 79.168 202.798 80.192C202.318 81.2 201.614 81.984 200.686 82.544C199.774 83.104 198.694 83.384 197.446 83.384C195.542 83.384 194.046 82.792 192.958 81.608C191.886 80.408 191.35 78.752 191.35 76.64C191.35 75.296 191.59 74.12 192.07 73.112C192.566 72.088 193.27 71.296 194.182 70.736C195.11 70.176 196.206 69.896 197.47 69.896ZM197.47 72.44C196.606 72.44 195.958 72.784 195.526 73.472C195.11 74.144 194.902 75.2 194.902 76.64C194.902 78.08 195.11 79.144 195.526 79.832C195.958 80.504 196.598 80.84 197.446 80.84C198.294 80.84 198.926 80.504 199.342 79.832C199.774 79.144 199.99 78.08 199.99 76.64C199.99 75.2 199.782 74.144 199.366 73.472C198.95 72.784 198.318 72.44 197.47 72.44ZM213.237 69.896C214.341 69.896 215.205 70.24 215.829 70.928C216.469 71.6 216.789 72.536 216.789 73.736V83H213.381V74.312C213.381 73.624 213.261 73.144 213.021 72.872C212.781 72.584 212.437 72.44 211.989 72.44C211.093 72.44 210.277 73.024 209.541 74.192V83H206.133V65.216L209.541 64.856V71.72C210.053 71.112 210.605 70.656 211.197 70.352C211.805 70.048 212.485 69.896 213.237 69.896ZM223.44 64.832V83H220.032V65.216L223.44 64.832ZM231.168 70.28L227.112 75.872L231.528 83H227.664L223.56 76.04L227.64 70.28H231.168ZM243.51 76.352C243.51 76.512 243.486 76.952 243.438 77.672H235.494C235.606 78.824 235.918 79.64 236.43 80.12C236.942 80.6 237.638 80.84 238.518 80.84C239.062 80.84 239.574 80.752 240.054 80.576C240.534 80.4 241.054 80.12 241.614 79.736L243.03 81.656C241.606 82.808 239.998 83.384 238.206 83.384C236.206 83.384 234.67 82.784 233.598 81.584C232.526 80.384 231.99 78.76 231.99 76.712C231.99 75.416 232.214 74.256 232.662 73.232C233.126 72.192 233.79 71.376 234.654 70.784C235.534 70.192 236.574 69.896 237.774 69.896C239.582 69.896 240.99 70.464 241.998 71.6C243.006 72.736 243.51 74.32 243.51 76.352ZM240.126 75.392C240.126 73.28 239.366 72.224 237.846 72.224C237.142 72.224 236.59 72.488 236.19 73.016C235.806 73.528 235.574 74.368 235.494 75.536H240.126V75.392ZM259.729 69.896C260.737 69.896 261.545 70.24 262.153 70.928C262.777 71.616 263.089 72.552 263.089 73.736V83H259.681V74.312C259.681 73.064 259.265 72.44 258.433 72.44C257.985 72.44 257.593 72.584 257.257 72.872C256.921 73.16 256.577 73.608 256.225 74.216V83H252.817V74.312C252.817 73.064 252.401 72.44 251.569 72.44C251.121 72.44 250.729 72.592 250.393 72.896C250.057 73.184 249.721 73.624 249.385 74.216V83H245.977V70.28H248.929L249.193 71.864C249.673 71.224 250.209 70.736 250.801 70.4C251.409 70.064 252.105 69.896 252.889 69.896C253.609 69.896 254.233 70.08 254.761 70.448C255.289 70.8 255.673 71.304 255.913 71.96C256.441 71.272 257.009 70.76 257.617 70.424C258.241 70.072 258.945 69.896 259.729 69.896ZM25.088 90.832V109H21.68V91.216L25.088 90.832ZM32.816 96.28L28.76 101.872L33.176 109H29.312L25.208 102.04L29.288 96.28H32.816ZM39.7586 95.896C41.6626 95.896 43.1506 96.496 44.2226 97.696C45.2946 98.88 45.8306 100.528 45.8306 102.64C45.8306 103.984 45.5826 105.168 45.0866 106.192C44.6066 107.2 43.9026 107.984 42.9746 108.544C42.0626 109.104 40.9826 109.384 39.7346 109.384C37.8306 109.384 36.3346 108.792 35.2466 107.608C34.1746 106.408 33.6386 104.752 33.6386 102.64C33.6386 101.296 33.8786 100.12 34.3586 99.112C34.8546 98.088 35.5586 97.296 36.4706 96.736C37.3986 96.176 38.4946 95.896 39.7586 95.896ZM39.7586 98.44C38.8946 98.44 38.2466 98.784 37.8146 99.472C37.3986 100.144 37.1906 101.2 37.1906 102.64C37.1906 104.08 37.3986 105.144 37.8146 105.832C38.2466 106.504 38.8866 106.84 39.7346 106.84C40.5826 106.84 41.2146 106.504 41.6306 105.832C42.0626 105.144 42.2786 104.08 42.2786 102.64C42.2786 101.2 42.0706 100.144 41.6546 99.472C41.2386 98.784 40.6066 98.44 39.7586 98.44ZM55.5262 95.896C56.6302 95.896 57.4942 96.24 58.1182 96.928C58.7582 97.6 59.0782 98.536 59.0782 99.736V109H55.6702V100.312C55.6702 99.624 55.5502 99.144 55.3102 98.872C55.0702 98.584 54.7262 98.44 54.2782 98.44C53.3822 98.44 52.5662 99.024 51.8302 100.192V109H48.4222V91.216L51.8302 90.856V97.72C52.3422 97.112 52.8942 96.656 53.4862 96.352C54.0942 96.048 54.7742 95.896 55.5262 95.896ZM72.74 96.28L68.66 109H64.604L60.452 96.28H64.148L66.668 106.336L69.236 96.28H72.74ZM77.7755 96.28V109H74.3675V96.28H77.7755ZM76.0475 89.728C76.6555 89.728 77.1515 89.92 77.5355 90.304C77.9355 90.672 78.1355 91.144 78.1355 91.72C78.1355 92.296 77.9355 92.776 77.5355 93.16C77.1515 93.528 76.6555 93.712 76.0475 93.712C75.4395 93.712 74.9435 93.528 74.5595 93.16C74.1755 92.776 73.9835 92.296 73.9835 91.72C73.9835 91.144 74.1755 90.672 74.5595 90.304C74.9435 89.92 75.4395 89.728 76.0475 89.728ZM88.7489 108.4C88.2849 108.72 87.7569 108.96 87.1649 109.12C86.5889 109.296 86.0129 109.384 85.4369 109.384C84.1249 109.368 83.1329 108.992 82.4609 108.256C81.7889 107.52 81.4529 106.44 81.4529 105.016V98.68H79.5569V96.28H81.4529V93.496L84.8609 93.088V96.28H87.7889L87.4529 98.68H84.8609V104.944C84.8609 105.552 84.9649 105.992 85.1729 106.264C85.3809 106.536 85.7009 106.672 86.1329 106.672C86.5649 106.672 87.0449 106.528 87.5729 106.24L88.7489 108.4ZM99.7203 105.472C99.7203 105.968 99.7923 106.336 99.9363 106.576C100.08 106.8 100.32 106.968 100.656 107.08L99.9363 109.336C99.1843 109.272 98.5683 109.096 98.0883 108.808C97.6243 108.52 97.2643 108.072 97.0083 107.464C96.1763 108.744 94.9043 109.384 93.1923 109.384C91.9283 109.384 90.9203 109.024 90.1683 108.304C89.4323 107.568 89.0643 106.616 89.0643 105.448C89.0643 104.056 89.5683 102.992 90.5763 102.256C91.5843 101.52 93.0323 101.152 94.9203 101.152H96.3843V100.528C96.3843 99.744 96.2083 99.2 95.8563 98.896C95.5043 98.592 94.9203 98.44 94.1043 98.44C93.2083 98.44 92.0883 98.664 90.7443 99.112L89.9763 96.832C91.5603 96.208 93.1283 95.896 94.6803 95.896C96.4083 95.896 97.6803 96.272 98.4963 97.024C99.3123 97.76 99.7203 98.864 99.7203 100.336V105.472ZM94.1283 106.936C95.0883 106.936 95.8403 106.464 96.3843 105.52V103.096H95.2563C93.4163 103.096 92.4963 103.784 92.4963 105.16C92.4963 105.72 92.6323 106.16 92.9043 106.48C93.1923 106.784 93.6003 106.936 94.1283 106.936ZM116.877 95.896C117.885 95.896 118.693 96.24 119.301 96.928C119.925 97.616 120.237 98.552 120.237 99.736V109H116.829V100.312C116.829 99.064 116.413 98.44 115.581 98.44C115.133 98.44 114.741 98.584 114.405 98.872C114.069 99.16 113.725 99.608 113.373 100.216V109H109.965V100.312C109.965 99.064 109.549 98.44 108.717 98.44C108.269 98.44 107.877 98.592 107.541 98.896C107.205 99.184 106.869 99.624 106.533 100.216V109H103.125V96.28H106.077L106.341 97.864C106.821 97.224 107.357 96.736 107.949 96.4C108.557 96.064 109.253 95.896 110.037 95.896C110.757 95.896 111.381 96.08 111.909 96.448C112.437 96.8 112.821 97.304 113.061 97.96C113.589 97.272 114.157 96.76 114.765 96.424C115.389 96.072 116.093 95.896 116.877 95.896ZM133.189 105.472C133.189 105.968 133.261 106.336 133.405 106.576C133.549 106.8 133.789 106.968 134.125 107.08L133.405 109.336C132.653 109.272 132.037 109.096 131.557 108.808C131.093 108.52 130.733 108.072 130.477 107.464C129.645 108.744 128.373 109.384 126.661 109.384C125.397 109.384 124.389 109.024 123.637 108.304C122.901 107.568 122.533 106.616 122.533 105.448C122.533 104.056 123.037 102.992 124.045 102.256C125.053 101.52 126.501 101.152 128.389 101.152H129.853V100.528C129.853 99.744 129.677 99.2 129.325 98.896C128.973 98.592 128.389 98.44 127.573 98.44C126.677 98.44 125.557 98.664 124.213 99.112L123.445 96.832C125.029 96.208 126.597 95.896 128.149 95.896C129.877 95.896 131.149 96.272 131.965 97.024C132.781 97.76 133.189 98.864 133.189 100.336V105.472ZM127.597 106.936C128.557 106.936 129.309 106.464 129.853 105.52V103.096H128.725C126.885 103.096 125.965 103.784 125.965 105.16C125.965 105.72 126.101 106.16 126.373 106.48C126.661 106.784 127.069 106.936 127.597 106.936ZM140.584 95.896C142.376 95.896 143.912 96.408 145.192 97.432L143.896 99.376C142.824 98.704 141.768 98.368 140.728 98.368C140.168 98.368 139.736 98.472 139.432 98.68C139.128 98.888 138.976 99.168 138.976 99.52C138.976 99.776 139.04 99.992 139.168 100.168C139.312 100.344 139.568 100.512 139.936 100.672C140.32 100.832 140.888 101.024 141.64 101.248C142.984 101.616 143.984 102.112 144.64 102.736C145.296 103.344 145.624 104.184 145.624 105.256C145.624 106.104 145.376 106.84 144.88 107.464C144.4 108.088 143.744 108.568 142.912 108.904C142.08 109.224 141.152 109.384 140.128 109.384C139.056 109.384 138.08 109.224 137.2 108.904C136.32 108.568 135.568 108.112 134.944 107.536L136.624 105.664C137.696 106.496 138.832 106.912 140.032 106.912C140.672 106.912 141.176 106.792 141.544 106.552C141.928 106.296 142.12 105.952 142.12 105.52C142.12 105.184 142.048 104.92 141.904 104.728C141.76 104.536 141.496 104.36 141.112 104.2C140.728 104.024 140.128 103.824 139.312 103.6C138.032 103.248 137.08 102.752 136.456 102.112C135.848 101.456 135.544 100.648 135.544 99.688C135.544 98.968 135.752 98.32 136.168 97.744C136.584 97.168 137.168 96.72 137.92 96.4C138.688 96.064 139.576 95.896 140.584 95.896ZM149.02 105.28C149.596 105.28 150.084 105.48 150.484 105.88C150.884 106.28 151.084 106.76 151.084 107.32C151.084 107.88 150.884 108.368 150.484 108.784C150.084 109.184 149.596 109.384 149.02 109.384C148.46 109.384 147.98 109.184 147.58 108.784C147.18 108.368 146.98 107.88 146.98 107.32C146.98 106.76 147.18 106.28 147.58 105.88C147.98 105.48 148.46 105.28 149.02 105.28Z" fill="#E3000F"/>
<path d="M23.8965 124.781V139H21.4453V124.781H23.8965ZM32.4414 124.781L26.6797 131.627L23.3984 135.104L22.9688 132.672L25.3125 129.781L29.4531 124.781H32.4414ZM29.8047 139L25.127 132.262L26.8164 130.592L32.7148 139H29.8047ZM39.9707 136.51V128.434H42.334V139H40.1074L39.9707 136.51ZM40.3027 134.312L41.0938 134.293C41.0938 135.003 41.0156 135.657 40.8594 136.256C40.7031 136.848 40.4622 137.366 40.1367 137.809C39.8112 138.245 39.3945 138.587 38.8867 138.834C38.3789 139.075 37.7702 139.195 37.0605 139.195C36.5462 139.195 36.0742 139.12 35.6445 138.971C35.2148 138.821 34.8438 138.59 34.5312 138.277C34.2253 137.965 33.9876 137.558 33.8184 137.057C33.6491 136.555 33.5645 135.956 33.5645 135.26V128.434H35.918V135.279C35.918 135.663 35.9635 135.986 36.0547 136.246C36.1458 136.5 36.2695 136.705 36.4258 136.861C36.582 137.018 36.7643 137.128 36.9727 137.193C37.181 137.258 37.4023 137.291 37.6367 137.291C38.3073 137.291 38.8346 137.161 39.2188 136.9C39.6094 136.633 39.8861 136.275 40.0488 135.826C40.2181 135.377 40.3027 134.872 40.3027 134.312ZM47.2656 128.434V139H44.9023V128.434H47.2656ZM44.7461 125.66C44.7461 125.302 44.8633 125.006 45.0977 124.771C45.3385 124.531 45.6706 124.41 46.0938 124.41C46.5104 124.41 46.8392 124.531 47.0801 124.771C47.321 125.006 47.4414 125.302 47.4414 125.66C47.4414 126.012 47.321 126.305 47.0801 126.539C46.8392 126.773 46.5104 126.891 46.0938 126.891C45.6706 126.891 45.3385 126.773 45.0977 126.539C44.8633 126.305 44.7461 126.012 44.7461 125.66ZM59.4824 139.195C58.7012 139.195 57.9948 139.068 57.3633 138.814C56.7383 138.554 56.2044 138.193 55.7617 137.73C55.3255 137.268 54.9902 136.725 54.7559 136.1C54.5215 135.475 54.4043 134.801 54.4043 134.078V133.688C54.4043 132.861 54.5247 132.112 54.7656 131.441C55.0065 130.771 55.3418 130.198 55.7715 129.723C56.2012 129.241 56.709 128.873 57.2949 128.619C57.8809 128.365 58.5156 128.238 59.1992 128.238C59.9544 128.238 60.6152 128.365 61.1816 128.619C61.748 128.873 62.2168 129.231 62.5879 129.693C62.9655 130.149 63.2454 130.693 63.4277 131.324C63.6165 131.956 63.7109 132.652 63.7109 133.414V134.42H55.5469V132.73H61.3867V132.545C61.3737 132.122 61.2891 131.725 61.1328 131.354C60.9831 130.982 60.752 130.683 60.4395 130.455C60.127 130.227 59.7103 130.113 59.1895 130.113C58.7988 130.113 58.4505 130.198 58.1445 130.367C57.8451 130.53 57.5944 130.768 57.3926 131.08C57.1908 131.393 57.0345 131.77 56.9238 132.213C56.8197 132.649 56.7676 133.141 56.7676 133.688V134.078C56.7676 134.54 56.8294 134.97 56.9531 135.367C57.0833 135.758 57.2721 136.1 57.5195 136.393C57.7669 136.686 58.0664 136.917 58.418 137.086C58.7695 137.249 59.1699 137.33 59.6191 137.33C60.1855 137.33 60.6901 137.216 61.1328 136.988C61.5755 136.76 61.9596 136.438 62.2852 136.021L63.5254 137.223C63.2975 137.555 63.0013 137.874 62.6367 138.18C62.2721 138.479 61.8262 138.723 61.2988 138.912C60.778 139.101 60.1725 139.195 59.4824 139.195ZM68.0664 128.434V139H65.7031V128.434H68.0664ZM65.5469 125.66C65.5469 125.302 65.6641 125.006 65.8984 124.771C66.1393 124.531 66.4714 124.41 66.8945 124.41C67.3112 124.41 67.64 124.531 67.8809 124.771C68.1217 125.006 68.2422 125.302 68.2422 125.66C68.2422 126.012 68.1217 126.305 67.8809 126.539C67.64 126.773 67.3112 126.891 66.8945 126.891C66.4714 126.891 66.1393 126.773 65.8984 126.539C65.6641 126.305 65.5469 126.012 65.5469 125.66ZM75.7422 128.434H78.1055V139.918C78.1055 140.641 77.9818 141.249 77.7344 141.744C77.487 142.245 77.1224 142.623 76.6406 142.877C76.1589 143.137 75.5697 143.268 74.873 143.268C74.6647 143.268 74.4499 143.251 74.2285 143.219C74.0007 143.193 73.7858 143.154 73.584 143.102L73.5938 141.266C73.7305 141.292 73.877 141.311 74.0332 141.324C74.1829 141.344 74.3262 141.354 74.4629 141.354C74.7428 141.354 74.9772 141.305 75.166 141.207C75.3548 141.109 75.498 140.956 75.5957 140.748C75.6934 140.54 75.7422 140.263 75.7422 139.918V128.434ZM75.5371 125.66C75.5371 125.302 75.6576 125.006 75.8984 124.771C76.1393 124.531 76.4681 124.41 76.8848 124.41C77.3079 124.41 77.6367 124.531 77.8711 124.771C78.112 125.006 78.2324 125.302 78.2324 125.66C78.2324 126.012 78.112 126.305 77.8711 126.539C77.6367 126.773 77.3079 126.891 76.8848 126.891C76.4681 126.891 76.1393 126.773 75.8984 126.539C75.6576 126.305 75.5371 126.012 75.5371 125.66ZM80.1953 133.834V133.609C80.1953 132.848 80.306 132.141 80.5273 131.49C80.7487 130.833 81.0677 130.263 81.4844 129.781C81.9076 129.293 82.4219 128.915 83.0273 128.648C83.6393 128.375 84.3294 128.238 85.0977 128.238C85.8724 128.238 86.5625 128.375 87.168 128.648C87.7799 128.915 88.2975 129.293 88.7207 129.781C89.1439 130.263 89.4661 130.833 89.6875 131.49C89.9089 132.141 90.0195 132.848 90.0195 133.609V133.834C90.0195 134.596 89.9089 135.302 89.6875 135.953C89.4661 136.604 89.1439 137.174 88.7207 137.662C88.2975 138.144 87.7832 138.521 87.1777 138.795C86.5723 139.062 85.8854 139.195 85.1172 139.195C84.3424 139.195 83.6491 139.062 83.0371 138.795C82.4316 138.521 81.9173 138.144 81.4941 137.662C81.071 137.174 80.7487 136.604 80.5273 135.953C80.306 135.302 80.1953 134.596 80.1953 133.834ZM82.5488 133.609V133.834C82.5488 134.309 82.5977 134.758 82.6953 135.182C82.793 135.605 82.946 135.976 83.1543 136.295C83.3626 136.614 83.6296 136.865 83.9551 137.047C84.2806 137.229 84.668 137.32 85.1172 137.32C85.5534 137.32 85.931 137.229 86.25 137.047C86.5755 136.865 86.8424 136.614 87.0508 136.295C87.2591 135.976 87.4121 135.605 87.5098 135.182C87.6139 134.758 87.666 134.309 87.666 133.834V133.609C87.666 133.141 87.6139 132.698 87.5098 132.281C87.4121 131.858 87.2559 131.484 87.041 131.158C86.8327 130.833 86.5658 130.579 86.2402 130.396C85.9212 130.208 85.5404 130.113 85.0977 130.113C84.6549 130.113 84.2708 130.208 83.9453 130.396C83.6263 130.579 83.3626 130.833 83.1543 131.158C82.946 131.484 82.793 131.858 82.6953 132.281C82.5977 132.698 82.5488 133.141 82.5488 133.609ZM87.1973 124.117L88.6328 124.225C88.6328 124.7 88.5384 125.126 88.3496 125.504C88.1608 125.875 87.9036 126.168 87.5781 126.383C87.2526 126.598 86.8848 126.705 86.4746 126.705C86.1556 126.705 85.8854 126.66 85.6641 126.568C85.4427 126.477 85.2409 126.373 85.0586 126.256C84.8763 126.139 84.6875 126.038 84.4922 125.953C84.3034 125.862 84.0788 125.816 83.8184 125.816C83.571 125.816 83.3594 125.908 83.1836 126.09C83.0143 126.272 82.9297 126.516 82.9297 126.822L81.4844 126.744C81.4844 126.275 81.5788 125.852 81.7676 125.475C81.9564 125.097 82.2135 124.798 82.5391 124.576C82.8646 124.355 83.2324 124.244 83.6426 124.244C83.9095 124.244 84.1504 124.29 84.3652 124.381C84.5866 124.465 84.7949 124.566 84.9902 124.684C85.1921 124.801 85.3971 124.905 85.6055 124.996C85.8138 125.087 86.0449 125.133 86.2988 125.133C86.5462 125.133 86.7578 125.038 86.9336 124.85C87.1094 124.661 87.1973 124.417 87.1973 124.117ZM98.3496 136.51V128.434H100.713V139H98.4863L98.3496 136.51ZM98.6816 134.312L99.4727 134.293C99.4727 135.003 99.3945 135.657 99.2383 136.256C99.082 136.848 98.8411 137.366 98.5156 137.809C98.1901 138.245 97.7734 138.587 97.2656 138.834C96.7578 139.075 96.1491 139.195 95.4395 139.195C94.9251 139.195 94.4531 139.12 94.0234 138.971C93.5938 138.821 93.2227 138.59 92.9102 138.277C92.6042 137.965 92.3665 137.558 92.1973 137.057C92.028 136.555 91.9434 135.956 91.9434 135.26V128.434H94.2969V135.279C94.2969 135.663 94.3424 135.986 94.4336 136.246C94.5247 136.5 94.6484 136.705 94.8047 136.861C94.9609 137.018 95.1432 137.128 95.3516 137.193C95.5599 137.258 95.7812 137.291 96.0156 137.291C96.6862 137.291 97.2135 137.161 97.5977 136.9C97.9883 136.633 98.265 136.275 98.4277 135.826C98.597 135.377 98.6816 134.872 98.6816 134.312ZM109.082 136.881V131.842C109.082 131.464 109.014 131.139 108.877 130.865C108.74 130.592 108.532 130.38 108.252 130.23C107.979 130.081 107.633 130.006 107.217 130.006C106.833 130.006 106.501 130.071 106.221 130.201C105.941 130.331 105.723 130.507 105.566 130.729C105.41 130.95 105.332 131.201 105.332 131.48H102.988C102.988 131.064 103.089 130.66 103.291 130.27C103.493 129.879 103.786 129.531 104.17 129.225C104.554 128.919 105.013 128.678 105.547 128.502C106.081 128.326 106.68 128.238 107.344 128.238C108.138 128.238 108.841 128.372 109.453 128.639C110.072 128.906 110.557 129.309 110.908 129.85C111.266 130.383 111.445 131.054 111.445 131.861V136.559C111.445 137.04 111.478 137.473 111.543 137.857C111.615 138.235 111.715 138.564 111.846 138.844V139H109.434C109.323 138.746 109.235 138.424 109.17 138.033C109.111 137.636 109.082 137.252 109.082 136.881ZM109.424 132.574L109.443 134.029H107.754C107.318 134.029 106.934 134.072 106.602 134.156C106.27 134.234 105.993 134.352 105.771 134.508C105.55 134.664 105.384 134.853 105.273 135.074C105.163 135.296 105.107 135.546 105.107 135.826C105.107 136.106 105.173 136.363 105.303 136.598C105.433 136.826 105.622 137.005 105.869 137.135C106.123 137.265 106.429 137.33 106.787 137.33C107.269 137.33 107.689 137.232 108.047 137.037C108.411 136.835 108.698 136.591 108.906 136.305C109.115 136.012 109.225 135.735 109.238 135.475L110 136.52C109.922 136.786 109.788 137.073 109.6 137.379C109.411 137.685 109.163 137.978 108.857 138.258C108.558 138.531 108.197 138.756 107.773 138.932C107.357 139.107 106.875 139.195 106.328 139.195C105.638 139.195 105.023 139.059 104.482 138.785C103.942 138.505 103.519 138.131 103.213 137.662C102.907 137.187 102.754 136.65 102.754 136.051C102.754 135.491 102.858 134.996 103.066 134.566C103.281 134.13 103.594 133.766 104.004 133.473C104.421 133.18 104.928 132.958 105.527 132.809C106.126 132.652 106.81 132.574 107.578 132.574H109.424ZM116.113 136.734L116.104 138.414C116.104 139.078 115.938 139.762 115.605 140.465C115.273 141.168 114.834 141.747 114.287 142.203L113.027 141.471C113.21 141.178 113.376 140.882 113.525 140.582C113.675 140.283 113.796 139.964 113.887 139.625C113.978 139.286 114.023 138.912 114.023 138.502V136.734H116.113ZM122.91 133.834V133.609C122.91 132.848 123.021 132.141 123.242 131.49C123.464 130.833 123.783 130.263 124.199 129.781C124.622 129.293 125.137 128.915 125.742 128.648C126.354 128.375 127.044 128.238 127.812 128.238C128.587 128.238 129.277 128.375 129.883 128.648C130.495 128.915 131.012 129.293 131.436 129.781C131.859 130.263 132.181 130.833 132.402 131.49C132.624 132.141 132.734 132.848 132.734 133.609V133.834C132.734 134.596 132.624 135.302 132.402 135.953C132.181 136.604 131.859 137.174 131.436 137.662C131.012 138.144 130.498 138.521 129.893 138.795C129.287 139.062 128.6 139.195 127.832 139.195C127.057 139.195 126.364 139.062 125.752 138.795C125.146 138.521 124.632 138.144 124.209 137.662C123.786 137.174 123.464 136.604 123.242 135.953C123.021 135.302 122.91 134.596 122.91 133.834ZM125.264 133.609V133.834C125.264 134.309 125.312 134.758 125.41 135.182C125.508 135.605 125.661 135.976 125.869 136.295C126.077 136.614 126.344 136.865 126.67 137.047C126.995 137.229 127.383 137.32 127.832 137.32C128.268 137.32 128.646 137.229 128.965 137.047C129.29 136.865 129.557 136.614 129.766 136.295C129.974 135.976 130.127 135.605 130.225 135.182C130.329 134.758 130.381 134.309 130.381 133.834V133.609C130.381 133.141 130.329 132.698 130.225 132.281C130.127 131.858 129.971 131.484 129.756 131.158C129.548 130.833 129.281 130.579 128.955 130.396C128.636 130.208 128.255 130.113 127.812 130.113C127.37 130.113 126.986 130.208 126.66 130.396C126.341 130.579 126.077 130.833 125.869 131.158C125.661 131.484 125.508 131.858 125.41 132.281C125.312 132.698 125.264 133.141 125.264 133.609ZM137.041 130.689V139H134.688V128.434H136.904L137.041 130.689ZM136.621 133.326L135.859 133.316C135.866 132.568 135.97 131.881 136.172 131.256C136.38 130.631 136.667 130.094 137.031 129.645C137.402 129.195 137.845 128.85 138.359 128.609C138.874 128.362 139.447 128.238 140.078 128.238C140.586 128.238 141.045 128.31 141.455 128.453C141.872 128.59 142.227 128.814 142.52 129.127C142.819 129.439 143.047 129.846 143.203 130.348C143.359 130.842 143.438 131.451 143.438 132.174V139H141.074V132.164C141.074 131.656 140.999 131.256 140.85 130.963C140.706 130.663 140.495 130.452 140.215 130.328C139.941 130.198 139.6 130.133 139.189 130.133C138.786 130.133 138.424 130.217 138.105 130.387C137.786 130.556 137.516 130.787 137.295 131.08C137.08 131.373 136.914 131.712 136.797 132.096C136.68 132.48 136.621 132.89 136.621 133.326ZM156.436 124.781V139H154.004V124.781H156.436ZM160.898 124.781V126.734H149.58V124.781H160.898ZM165.059 128.434V139H162.695V128.434H165.059ZM162.539 125.66C162.539 125.302 162.656 125.006 162.891 124.771C163.132 124.531 163.464 124.41 163.887 124.41C164.303 124.41 164.632 124.531 164.873 124.771C165.114 125.006 165.234 125.302 165.234 125.66C165.234 126.012 165.114 126.305 164.873 126.539C164.632 126.773 164.303 126.891 163.887 126.891C163.464 126.891 163.132 126.773 162.891 126.539C162.656 126.305 162.539 126.012 162.539 125.66ZM170.156 128.434V139H167.793V128.434H170.156ZM167.637 125.66C167.637 125.302 167.754 125.006 167.988 124.771C168.229 124.531 168.561 124.41 168.984 124.41C169.401 124.41 169.73 124.531 169.971 124.771C170.212 125.006 170.332 125.302 170.332 125.66C170.332 126.012 170.212 126.305 169.971 126.539C169.73 126.773 169.401 126.891 168.984 126.891C168.561 126.891 168.229 126.773 167.988 126.539C167.754 126.305 167.637 126.012 167.637 125.66ZM179.092 136.51V128.434H181.455V139H179.229L179.092 136.51ZM179.424 134.312L180.215 134.293C180.215 135.003 180.137 135.657 179.98 136.256C179.824 136.848 179.583 137.366 179.258 137.809C178.932 138.245 178.516 138.587 178.008 138.834C177.5 139.075 176.891 139.195 176.182 139.195C175.667 139.195 175.195 139.12 174.766 138.971C174.336 138.821 173.965 138.59 173.652 138.277C173.346 137.965 173.109 137.558 172.939 137.057C172.77 136.555 172.686 135.956 172.686 135.26V128.434H175.039V135.279C175.039 135.663 175.085 135.986 175.176 136.246C175.267 136.5 175.391 136.705 175.547 136.861C175.703 137.018 175.885 137.128 176.094 137.193C176.302 137.258 176.523 137.291 176.758 137.291C177.428 137.291 177.956 137.161 178.34 136.9C178.73 136.633 179.007 136.275 179.17 135.826C179.339 135.377 179.424 134.872 179.424 134.312ZM24.6484 162.135L27.2363 153.434H29.6777L26.0059 164H24.4824L24.6484 162.135ZM22.666 153.434L25.3027 162.174L25.4297 164H23.9062L20.2148 153.434H22.666ZM35.6543 164.195C34.873 164.195 34.1667 164.068 33.5352 163.814C32.9102 163.554 32.3763 163.193 31.9336 162.73C31.4974 162.268 31.1621 161.725 30.9277 161.1C30.6934 160.475 30.5762 159.801 30.5762 159.078V158.688C30.5762 157.861 30.6966 157.112 30.9375 156.441C31.1784 155.771 31.5137 155.198 31.9434 154.723C32.373 154.241 32.8809 153.873 33.4668 153.619C34.0527 153.365 34.6875 153.238 35.3711 153.238C36.1263 153.238 36.7871 153.365 37.3535 153.619C37.9199 153.873 38.3887 154.231 38.7598 154.693C39.1374 155.149 39.4173 155.693 39.5996 156.324C39.7884 156.956 39.8828 157.652 39.8828 158.414V159.42H31.7188V157.73H37.5586V157.545C37.5456 157.122 37.4609 156.725 37.3047 156.354C37.1549 155.982 36.9238 155.683 36.6113 155.455C36.2988 155.227 35.8822 155.113 35.3613 155.113C34.9707 155.113 34.6224 155.198 34.3164 155.367C34.0169 155.53 33.7663 155.768 33.5645 156.08C33.3626 156.393 33.2064 156.77 33.0957 157.213C32.9915 157.649 32.9395 158.141 32.9395 158.688V159.078C32.9395 159.54 33.0013 159.97 33.125 160.367C33.2552 160.758 33.444 161.1 33.6914 161.393C33.9388 161.686 34.2383 161.917 34.5898 162.086C34.9414 162.249 35.3418 162.33 35.791 162.33C36.3574 162.33 36.862 162.216 37.3047 161.988C37.7474 161.76 38.1315 161.438 38.457 161.021L39.6973 162.223C39.4694 162.555 39.1732 162.874 38.8086 163.18C38.444 163.479 37.998 163.723 37.4707 163.912C36.9499 164.101 36.3444 164.195 35.6543 164.195ZM46.377 164.195C45.5957 164.195 44.8893 164.068 44.2578 163.814C43.6328 163.554 43.099 163.193 42.6562 162.73C42.2201 162.268 41.8848 161.725 41.6504 161.1C41.416 160.475 41.2988 159.801 41.2988 159.078V158.688C41.2988 157.861 41.4193 157.112 41.6602 156.441C41.901 155.771 42.2363 155.198 42.666 154.723C43.0957 154.241 43.6035 153.873 44.1895 153.619C44.7754 153.365 45.4102 153.238 46.0938 153.238C46.849 153.238 47.5098 153.365 48.0762 153.619C48.6426 153.873 49.1113 154.231 49.4824 154.693C49.86 155.149 50.14 155.693 50.3223 156.324C50.5111 156.956 50.6055 157.652 50.6055 158.414V159.42H42.4414V157.73H48.2812V157.545C48.2682 157.122 48.1836 156.725 48.0273 156.354C47.8776 155.982 47.6465 155.683 47.334 155.455C47.0215 155.227 46.6048 155.113 46.084 155.113C45.6934 155.113 45.3451 155.198 45.0391 155.367C44.7396 155.53 44.4889 155.768 44.2871 156.08C44.0853 156.393 43.929 156.77 43.8184 157.213C43.7142 157.649 43.6621 158.141 43.6621 158.688V159.078C43.6621 159.54 43.724 159.97 43.8477 160.367C43.9779 160.758 44.1667 161.1 44.4141 161.393C44.6615 161.686 44.9609 161.917 45.3125 162.086C45.6641 162.249 46.0645 162.33 46.5137 162.33C47.0801 162.33 47.5846 162.216 48.0273 161.988C48.4701 161.76 48.8542 161.438 49.1797 161.021L50.4199 162.223C50.1921 162.555 49.8958 162.874 49.5312 163.18C49.1667 163.479 48.7207 163.723 48.1934 163.912C47.6725 164.101 47.0671 164.195 46.377 164.195ZM52.4512 149H54.8047V161.744L54.5801 164H52.4512V149ZM61.6992 158.619V158.824C61.6992 159.605 61.6113 160.325 61.4355 160.982C61.2663 161.633 61.0059 162.2 60.6543 162.682C60.3092 163.163 59.8796 163.538 59.3652 163.805C58.8574 164.065 58.2682 164.195 57.5977 164.195C56.9401 164.195 56.3672 164.072 55.8789 163.824C55.3906 163.577 54.9805 163.225 54.6484 162.77C54.3229 162.314 54.0592 161.77 53.8574 161.139C53.6556 160.507 53.5124 159.811 53.4277 159.049V158.395C53.5124 157.626 53.6556 156.93 53.8574 156.305C54.0592 155.673 54.3229 155.13 54.6484 154.674C54.9805 154.212 55.3874 153.857 55.8691 153.609C56.3574 153.362 56.9271 153.238 57.5781 153.238C58.2552 153.238 58.8509 153.368 59.3652 153.629C59.8861 153.889 60.319 154.26 60.6641 154.742C61.0091 155.217 61.2663 155.784 61.4355 156.441C61.6113 157.099 61.6992 157.825 61.6992 158.619ZM59.3457 158.824V158.619C59.3457 158.144 59.3066 157.698 59.2285 157.281C59.1504 156.858 59.0202 156.487 58.8379 156.168C58.6621 155.849 58.4212 155.598 58.1152 155.416C57.8158 155.227 57.4414 155.133 56.9922 155.133C56.5755 155.133 56.2174 155.204 55.918 155.348C55.6185 155.491 55.3678 155.686 55.166 155.934C54.9642 156.181 54.8047 156.467 54.6875 156.793C54.5768 157.118 54.502 157.47 54.4629 157.848V159.615C54.5215 160.104 54.6452 160.553 54.834 160.963C55.0293 161.367 55.3027 161.692 55.6543 161.939C56.0059 162.18 56.4583 162.301 57.0117 162.301C57.4479 162.301 57.8158 162.213 58.1152 162.037C58.4147 161.861 58.6523 161.617 58.8281 161.305C59.0104 160.986 59.1406 160.615 59.2188 160.191C59.3034 159.768 59.3457 159.312 59.3457 158.824ZM66.2109 153.434V164H63.8477V153.434H66.2109ZM63.6914 150.66C63.6914 150.302 63.8086 150.006 64.043 149.771C64.2839 149.531 64.6159 149.41 65.0391 149.41C65.4557 149.41 65.7845 149.531 66.0254 149.771C66.2663 150.006 66.3867 150.302 66.3867 150.66C66.3867 151.012 66.2663 151.305 66.0254 151.539C65.7845 151.773 65.4557 151.891 65.0391 151.891C64.6159 151.891 64.2839 151.773 64.043 151.539C63.8086 151.305 63.6914 151.012 63.6914 150.66ZM71.1523 155.465V168.062H68.7988V153.434H70.9668L71.1523 155.465ZM78.0371 158.619V158.824C78.0371 159.592 77.946 160.305 77.7637 160.963C77.5879 161.614 77.3242 162.184 76.9727 162.672C76.6276 163.154 76.2012 163.528 75.6934 163.795C75.1855 164.062 74.5996 164.195 73.9355 164.195C73.278 164.195 72.7018 164.075 72.207 163.834C71.7188 163.587 71.3053 163.238 70.9668 162.789C70.6283 162.34 70.3548 161.812 70.1465 161.207C69.9447 160.595 69.8014 159.924 69.7168 159.195V158.404C69.8014 157.63 69.9447 156.926 70.1465 156.295C70.3548 155.663 70.6283 155.12 70.9668 154.664C71.3053 154.208 71.7188 153.857 72.207 153.609C72.6953 153.362 73.265 153.238 73.916 153.238C74.5801 153.238 75.1693 153.368 75.6836 153.629C76.1979 153.883 76.6309 154.247 76.9824 154.723C77.334 155.191 77.5977 155.758 77.7734 156.422C77.9492 157.079 78.0371 157.812 78.0371 158.619ZM75.6836 158.824V158.619C75.6836 158.131 75.638 157.678 75.5469 157.262C75.4557 156.839 75.3125 156.467 75.1172 156.148C74.9219 155.829 74.6712 155.582 74.3652 155.406C74.0658 155.224 73.7044 155.133 73.2812 155.133C72.8646 155.133 72.5065 155.204 72.207 155.348C71.9076 155.484 71.6569 155.676 71.4551 155.924C71.2533 156.171 71.097 156.461 70.9863 156.793C70.8757 157.118 70.7975 157.473 70.752 157.857V159.752C70.8301 160.221 70.9635 160.65 71.1523 161.041C71.3411 161.432 71.6081 161.744 71.9531 161.979C72.3047 162.206 72.7539 162.32 73.3008 162.32C73.724 162.32 74.0853 162.229 74.3848 162.047C74.6842 161.865 74.9284 161.614 75.1172 161.295C75.3125 160.969 75.4557 160.595 75.5469 160.172C75.638 159.749 75.6836 159.299 75.6836 158.824ZM79.5898 158.834V158.609C79.5898 157.848 79.7005 157.141 79.9219 156.49C80.1432 155.833 80.4622 155.263 80.8789 154.781C81.3021 154.293 81.8164 153.915 82.4219 153.648C83.0339 153.375 83.724 153.238 84.4922 153.238C85.2669 153.238 85.957 153.375 86.5625 153.648C87.1745 153.915 87.6921 154.293 88.1152 154.781C88.5384 155.263 88.8607 155.833 89.082 156.49C89.3034 157.141 89.4141 157.848 89.4141 158.609V158.834C89.4141 159.596 89.3034 160.302 89.082 160.953C88.8607 161.604 88.5384 162.174 88.1152 162.662C87.6921 163.144 87.1777 163.521 86.5723 163.795C85.9668 164.062 85.2799 164.195 84.5117 164.195C83.737 164.195 83.0436 164.062 82.4316 163.795C81.8262 163.521 81.3118 163.144 80.8887 162.662C80.4655 162.174 80.1432 161.604 79.9219 160.953C79.7005 160.302 79.5898 159.596 79.5898 158.834ZM81.9434 158.609V158.834C81.9434 159.309 81.9922 159.758 82.0898 160.182C82.1875 160.605 82.3405 160.976 82.5488 161.295C82.7572 161.614 83.0241 161.865 83.3496 162.047C83.6751 162.229 84.0625 162.32 84.5117 162.32C84.9479 162.32 85.3255 162.229 85.6445 162.047C85.9701 161.865 86.237 161.614 86.4453 161.295C86.6536 160.976 86.8066 160.605 86.9043 160.182C87.0085 159.758 87.0605 159.309 87.0605 158.834V158.609C87.0605 158.141 87.0085 157.698 86.9043 157.281C86.8066 156.858 86.6504 156.484 86.4355 156.158C86.2272 155.833 85.9603 155.579 85.6348 155.396C85.3158 155.208 84.9349 155.113 84.4922 155.113C84.0495 155.113 83.6654 155.208 83.3398 155.396C83.0208 155.579 82.7572 155.833 82.5488 156.158C82.3405 156.484 82.1875 156.858 82.0898 157.281C81.9922 157.698 81.9434 158.141 81.9434 158.609ZM93.75 155.445V164H91.3965V153.434H93.6426L93.75 155.445ZM96.9824 153.365L96.9629 155.553C96.8197 155.527 96.6634 155.507 96.4941 155.494C96.3314 155.481 96.1686 155.475 96.0059 155.475C95.6022 155.475 95.2474 155.533 94.9414 155.65C94.6354 155.761 94.3783 155.924 94.1699 156.139C93.9681 156.347 93.8118 156.601 93.7012 156.9C93.5905 157.2 93.5254 157.535 93.5059 157.906L92.9688 157.945C92.9688 157.281 93.0339 156.666 93.1641 156.1C93.2943 155.533 93.4896 155.035 93.75 154.605C94.0169 154.176 94.349 153.84 94.7461 153.6C95.1497 153.359 95.6152 153.238 96.1426 153.238C96.2858 153.238 96.4388 153.251 96.6016 153.277C96.7708 153.303 96.8978 153.333 96.9824 153.365ZM103.789 153.434V155.152H97.832V153.434H103.789ZM99.5508 150.846H101.904V161.08C101.904 161.406 101.95 161.656 102.041 161.832C102.139 162.001 102.272 162.115 102.441 162.174C102.611 162.232 102.809 162.262 103.037 162.262C103.2 162.262 103.356 162.252 103.506 162.232C103.656 162.213 103.776 162.193 103.867 162.174L103.877 163.971C103.682 164.029 103.454 164.081 103.193 164.127C102.939 164.173 102.646 164.195 102.314 164.195C101.774 164.195 101.296 164.101 100.879 163.912C100.462 163.717 100.137 163.401 99.9023 162.965C99.668 162.529 99.5508 161.949 99.5508 161.227V150.846ZM111.562 161.881V156.842C111.562 156.464 111.494 156.139 111.357 155.865C111.221 155.592 111.012 155.38 110.732 155.23C110.459 155.081 110.114 155.006 109.697 155.006C109.313 155.006 108.981 155.071 108.701 155.201C108.421 155.331 108.203 155.507 108.047 155.729C107.891 155.95 107.812 156.201 107.812 156.48H105.469C105.469 156.064 105.57 155.66 105.771 155.27C105.973 154.879 106.266 154.531 106.65 154.225C107.035 153.919 107.493 153.678 108.027 153.502C108.561 153.326 109.16 153.238 109.824 153.238C110.618 153.238 111.322 153.372 111.934 153.639C112.552 153.906 113.037 154.309 113.389 154.85C113.747 155.383 113.926 156.054 113.926 156.861V161.559C113.926 162.04 113.958 162.473 114.023 162.857C114.095 163.235 114.196 163.564 114.326 163.844V164H111.914C111.803 163.746 111.715 163.424 111.65 163.033C111.592 162.636 111.562 162.252 111.562 161.881ZM111.904 157.574L111.924 159.029H110.234C109.798 159.029 109.414 159.072 109.082 159.156C108.75 159.234 108.473 159.352 108.252 159.508C108.031 159.664 107.865 159.853 107.754 160.074C107.643 160.296 107.588 160.546 107.588 160.826C107.588 161.106 107.653 161.363 107.783 161.598C107.913 161.826 108.102 162.005 108.35 162.135C108.604 162.265 108.91 162.33 109.268 162.33C109.749 162.33 110.169 162.232 110.527 162.037C110.892 161.835 111.178 161.591 111.387 161.305C111.595 161.012 111.706 160.735 111.719 160.475L112.48 161.52C112.402 161.786 112.269 162.073 112.08 162.379C111.891 162.685 111.644 162.978 111.338 163.258C111.038 163.531 110.677 163.756 110.254 163.932C109.837 164.107 109.355 164.195 108.809 164.195C108.118 164.195 107.503 164.059 106.963 163.785C106.423 163.505 105.999 163.131 105.693 162.662C105.387 162.187 105.234 161.65 105.234 161.051C105.234 160.491 105.339 159.996 105.547 159.566C105.762 159.13 106.074 158.766 106.484 158.473C106.901 158.18 107.409 157.958 108.008 157.809C108.607 157.652 109.29 157.574 110.059 157.574H111.904ZM122.344 161.881V156.842C122.344 156.464 122.275 156.139 122.139 155.865C122.002 155.592 121.794 155.38 121.514 155.23C121.24 155.081 120.895 155.006 120.479 155.006C120.094 155.006 119.762 155.071 119.482 155.201C119.202 155.331 118.984 155.507 118.828 155.729C118.672 155.95 118.594 156.201 118.594 156.48H116.25C116.25 156.064 116.351 155.66 116.553 155.27C116.755 154.879 117.048 154.531 117.432 154.225C117.816 153.919 118.275 153.678 118.809 153.502C119.342 153.326 119.941 153.238 120.605 153.238C121.4 153.238 122.103 153.372 122.715 153.639C123.333 153.906 123.818 154.309 124.17 154.85C124.528 155.383 124.707 156.054 124.707 156.861V161.559C124.707 162.04 124.74 162.473 124.805 162.857C124.876 163.235 124.977 163.564 125.107 163.844V164H122.695C122.585 163.746 122.497 163.424 122.432 163.033C122.373 162.636 122.344 162.252 122.344 161.881ZM122.686 157.574L122.705 159.029H121.016C120.579 159.029 120.195 159.072 119.863 159.156C119.531 159.234 119.255 159.352 119.033 159.508C118.812 159.664 118.646 159.853 118.535 160.074C118.424 160.296 118.369 160.546 118.369 160.826C118.369 161.106 118.434 161.363 118.564 161.598C118.695 161.826 118.883 162.005 119.131 162.135C119.385 162.265 119.691 162.33 120.049 162.33C120.531 162.33 120.951 162.232 121.309 162.037C121.673 161.835 121.96 161.591 122.168 161.305C122.376 161.012 122.487 160.735 122.5 160.475L123.262 161.52C123.184 161.786 123.05 162.073 122.861 162.379C122.673 162.685 122.425 162.978 122.119 163.258C121.82 163.531 121.458 163.756 121.035 163.932C120.618 164.107 120.137 164.195 119.59 164.195C118.9 164.195 118.285 164.059 117.744 163.785C117.204 163.505 116.781 163.131 116.475 162.662C116.169 162.187 116.016 161.65 116.016 161.051C116.016 160.491 116.12 159.996 116.328 159.566C116.543 159.13 116.855 158.766 117.266 158.473C117.682 158.18 118.19 157.958 118.789 157.809C119.388 157.652 120.072 157.574 120.84 157.574H122.686ZM129.688 149V164H127.324V149H129.688ZM143.203 161.881V156.842C143.203 156.464 143.135 156.139 142.998 155.865C142.861 155.592 142.653 155.38 142.373 155.23C142.1 155.081 141.755 155.006 141.338 155.006C140.954 155.006 140.622 155.071 140.342 155.201C140.062 155.331 139.844 155.507 139.688 155.729C139.531 155.95 139.453 156.201 139.453 156.48H137.109C137.109 156.064 137.21 155.66 137.412 155.27C137.614 154.879 137.907 154.531 138.291 154.225C138.675 153.919 139.134 153.678 139.668 153.502C140.202 153.326 140.801 153.238 141.465 153.238C142.259 153.238 142.962 153.372 143.574 153.639C144.193 153.906 144.678 154.309 145.029 154.85C145.387 155.383 145.566 156.054 145.566 156.861V161.559C145.566 162.04 145.599 162.473 145.664 162.857C145.736 163.235 145.837 163.564 145.967 163.844V164H143.555C143.444 163.746 143.356 163.424 143.291 163.033C143.232 162.636 143.203 162.252 143.203 161.881ZM143.545 157.574L143.564 159.029H141.875C141.439 159.029 141.055 159.072 140.723 159.156C140.391 159.234 140.114 159.352 139.893 159.508C139.671 159.664 139.505 159.853 139.395 160.074C139.284 160.296 139.229 160.546 139.229 160.826C139.229 161.106 139.294 161.363 139.424 161.598C139.554 161.826 139.743 162.005 139.99 162.135C140.244 162.265 140.55 162.33 140.908 162.33C141.39 162.33 141.81 162.232 142.168 162.037C142.533 161.835 142.819 161.591 143.027 161.305C143.236 161.012 143.346 160.735 143.359 160.475L144.121 161.52C144.043 161.786 143.91 162.073 143.721 162.379C143.532 162.685 143.285 162.978 142.979 163.258C142.679 163.531 142.318 163.756 141.895 163.932C141.478 164.107 140.996 164.195 140.449 164.195C139.759 164.195 139.144 164.059 138.604 163.785C138.063 163.505 137.64 163.131 137.334 162.662C137.028 162.187 136.875 161.65 136.875 161.051C136.875 160.491 136.979 159.996 137.188 159.566C137.402 159.13 137.715 158.766 138.125 158.473C138.542 158.18 139.049 157.958 139.648 157.809C140.247 157.652 140.931 157.574 141.699 157.574H143.545ZM150.547 149V164H148.184V149H150.547ZM159.082 161.881V156.842C159.082 156.464 159.014 156.139 158.877 155.865C158.74 155.592 158.532 155.38 158.252 155.23C157.979 155.081 157.633 155.006 157.217 155.006C156.833 155.006 156.501 155.071 156.221 155.201C155.941 155.331 155.723 155.507 155.566 155.729C155.41 155.95 155.332 156.201 155.332 156.48H152.988C152.988 156.064 153.089 155.66 153.291 155.27C153.493 154.879 153.786 154.531 154.17 154.225C154.554 153.919 155.013 153.678 155.547 153.502C156.081 153.326 156.68 153.238 157.344 153.238C158.138 153.238 158.841 153.372 159.453 153.639C160.072 153.906 160.557 154.309 160.908 154.85C161.266 155.383 161.445 156.054 161.445 156.861V161.559C161.445 162.04 161.478 162.473 161.543 162.857C161.615 163.235 161.715 163.564 161.846 163.844V164H159.434C159.323 163.746 159.235 163.424 159.17 163.033C159.111 162.636 159.082 162.252 159.082 161.881ZM159.424 157.574L159.443 159.029H157.754C157.318 159.029 156.934 159.072 156.602 159.156C156.27 159.234 155.993 159.352 155.771 159.508C155.55 159.664 155.384 159.853 155.273 160.074C155.163 160.296 155.107 160.546 155.107 160.826C155.107 161.106 155.173 161.363 155.303 161.598C155.433 161.826 155.622 162.005 155.869 162.135C156.123 162.265 156.429 162.33 156.787 162.33C157.269 162.33 157.689 162.232 158.047 162.037C158.411 161.835 158.698 161.591 158.906 161.305C159.115 161.012 159.225 160.735 159.238 160.475L160 161.52C159.922 161.786 159.788 162.073 159.6 162.379C159.411 162.685 159.163 162.978 158.857 163.258C158.558 163.531 158.197 163.756 157.773 163.932C157.357 164.107 156.875 164.195 156.328 164.195C155.638 164.195 155.023 164.059 154.482 163.785C153.942 163.505 153.519 163.131 153.213 162.662C152.907 162.187 152.754 161.65 152.754 161.051C152.754 160.491 152.858 159.996 153.066 159.566C153.281 159.13 153.594 158.766 154.004 158.473C154.421 158.18 154.928 157.958 155.527 157.809C156.126 157.652 156.81 157.574 157.578 157.574H159.424ZM168.75 153.434V155.152H162.793V153.434H168.75ZM164.512 150.846H166.865V161.08C166.865 161.406 166.911 161.656 167.002 161.832C167.1 162.001 167.233 162.115 167.402 162.174C167.572 162.232 167.77 162.262 167.998 162.262C168.161 162.262 168.317 162.252 168.467 162.232C168.617 162.213 168.737 162.193 168.828 162.174L168.838 163.971C168.643 164.029 168.415 164.081 168.154 164.127C167.9 164.173 167.607 164.195 167.275 164.195C166.735 164.195 166.257 164.101 165.84 163.912C165.423 163.717 165.098 163.401 164.863 162.965C164.629 162.529 164.512 161.949 164.512 161.227V150.846ZM173.086 153.434V164H170.723V153.434H173.086ZM170.566 150.66C170.566 150.302 170.684 150.006 170.918 149.771C171.159 149.531 171.491 149.41 171.914 149.41C172.331 149.41 172.66 149.531 172.9 149.771C173.141 150.006 173.262 150.302 173.262 150.66C173.262 151.012 173.141 151.305 172.9 151.539C172.66 151.773 172.331 151.891 171.914 151.891C171.491 151.891 171.159 151.773 170.918 151.539C170.684 151.305 170.566 151.012 170.566 150.66ZM180.195 158.834V158.609C180.195 157.848 180.306 157.141 180.527 156.49C180.749 155.833 181.068 155.263 181.484 154.781C181.908 154.293 182.422 153.915 183.027 153.648C183.639 153.375 184.329 153.238 185.098 153.238C185.872 153.238 186.562 153.375 187.168 153.648C187.78 153.915 188.298 154.293 188.721 154.781C189.144 155.263 189.466 155.833 189.688 156.49C189.909 157.141 190.02 157.848 190.02 158.609V158.834C190.02 159.596 189.909 160.302 189.688 160.953C189.466 161.604 189.144 162.174 188.721 162.662C188.298 163.144 187.783 163.521 187.178 163.795C186.572 164.062 185.885 164.195 185.117 164.195C184.342 164.195 183.649 164.062 183.037 163.795C182.432 163.521 181.917 163.144 181.494 162.662C181.071 162.174 180.749 161.604 180.527 160.953C180.306 160.302 180.195 159.596 180.195 158.834ZM182.549 158.609V158.834C182.549 159.309 182.598 159.758 182.695 160.182C182.793 160.605 182.946 160.976 183.154 161.295C183.363 161.614 183.63 161.865 183.955 162.047C184.281 162.229 184.668 162.32 185.117 162.32C185.553 162.32 185.931 162.229 186.25 162.047C186.576 161.865 186.842 161.614 187.051 161.295C187.259 160.976 187.412 160.605 187.51 160.182C187.614 159.758 187.666 159.309 187.666 158.834V158.609C187.666 158.141 187.614 157.698 187.51 157.281C187.412 156.858 187.256 156.484 187.041 156.158C186.833 155.833 186.566 155.579 186.24 155.396C185.921 155.208 185.54 155.113 185.098 155.113C184.655 155.113 184.271 155.208 183.945 155.396C183.626 155.579 183.363 155.833 183.154 156.158C182.946 156.484 182.793 156.858 182.695 157.281C182.598 157.698 182.549 158.141 182.549 158.609ZM194.512 149V164H192.148V149H194.512ZM201.748 164.195C200.967 164.195 200.26 164.068 199.629 163.814C199.004 163.554 198.47 163.193 198.027 162.73C197.591 162.268 197.256 161.725 197.021 161.1C196.787 160.475 196.67 159.801 196.67 159.078V158.688C196.67 157.861 196.79 157.112 197.031 156.441C197.272 155.771 197.607 155.198 198.037 154.723C198.467 154.241 198.975 153.873 199.561 153.619C200.146 153.365 200.781 153.238 201.465 153.238C202.22 153.238 202.881 153.365 203.447 153.619C204.014 153.873 204.482 154.231 204.854 154.693C205.231 155.149 205.511 155.693 205.693 156.324C205.882 156.956 205.977 157.652 205.977 158.414V159.42H197.812V157.73H203.652V157.545C203.639 157.122 203.555 156.725 203.398 156.354C203.249 155.982 203.018 155.683 202.705 155.455C202.393 155.227 201.976 155.113 201.455 155.113C201.064 155.113 200.716 155.198 200.41 155.367C200.111 155.53 199.86 155.768 199.658 156.08C199.456 156.393 199.3 156.77 199.189 157.213C199.085 157.649 199.033 158.141 199.033 158.688V159.078C199.033 159.54 199.095 159.97 199.219 160.367C199.349 160.758 199.538 161.1 199.785 161.393C200.033 161.686 200.332 161.917 200.684 162.086C201.035 162.249 201.436 162.33 201.885 162.33C202.451 162.33 202.956 162.216 203.398 161.988C203.841 161.76 204.225 161.438 204.551 161.021L205.791 162.223C205.563 162.555 205.267 162.874 204.902 163.18C204.538 163.479 204.092 163.723 203.564 163.912C203.044 164.101 202.438 164.195 201.748 164.195ZM210.166 155.582V164H207.812V153.434H210.029L210.166 155.582ZM209.785 158.326L208.984 158.316C208.984 157.587 209.076 156.913 209.258 156.295C209.44 155.676 209.707 155.139 210.059 154.684C210.41 154.221 210.846 153.867 211.367 153.619C211.895 153.365 212.503 153.238 213.193 153.238C213.675 153.238 214.115 153.31 214.512 153.453C214.915 153.59 215.264 153.808 215.557 154.107C215.856 154.407 216.084 154.791 216.24 155.26C216.403 155.729 216.484 156.295 216.484 156.959V164H214.131V157.164C214.131 156.65 214.053 156.246 213.896 155.953C213.747 155.66 213.529 155.452 213.242 155.328C212.962 155.198 212.627 155.133 212.236 155.133C211.794 155.133 211.416 155.217 211.104 155.387C210.798 155.556 210.547 155.787 210.352 156.08C210.156 156.373 210.013 156.712 209.922 157.096C209.831 157.48 209.785 157.89 209.785 158.326ZM216.338 157.701L215.234 157.945C215.234 157.307 215.322 156.705 215.498 156.139C215.68 155.566 215.944 155.064 216.289 154.635C216.641 154.199 217.074 153.857 217.588 153.609C218.102 153.362 218.691 153.238 219.355 153.238C219.896 153.238 220.378 153.313 220.801 153.463C221.23 153.606 221.595 153.834 221.895 154.146C222.194 154.459 222.422 154.866 222.578 155.367C222.734 155.862 222.812 156.461 222.812 157.164V164H220.449V157.154C220.449 156.62 220.371 156.207 220.215 155.914C220.065 155.621 219.85 155.419 219.57 155.309C219.29 155.191 218.955 155.133 218.564 155.133C218.2 155.133 217.878 155.201 217.598 155.338C217.324 155.468 217.093 155.654 216.904 155.895C216.715 156.129 216.572 156.399 216.475 156.705C216.383 157.011 216.338 157.343 216.338 157.701ZM231.191 161.881V156.842C231.191 156.464 231.123 156.139 230.986 155.865C230.85 155.592 230.641 155.38 230.361 155.23C230.088 155.081 229.743 155.006 229.326 155.006C228.942 155.006 228.61 155.071 228.33 155.201C228.05 155.331 227.832 155.507 227.676 155.729C227.52 155.95 227.441 156.201 227.441 156.48H225.098C225.098 156.064 225.199 155.66 225.4 155.27C225.602 154.879 225.895 154.531 226.279 154.225C226.663 153.919 227.122 153.678 227.656 153.502C228.19 153.326 228.789 153.238 229.453 153.238C230.247 153.238 230.951 153.372 231.562 153.639C232.181 153.906 232.666 154.309 233.018 154.85C233.376 155.383 233.555 156.054 233.555 156.861V161.559C233.555 162.04 233.587 162.473 233.652 162.857C233.724 163.235 233.825 163.564 233.955 163.844V164H231.543C231.432 163.746 231.344 163.424 231.279 163.033C231.221 162.636 231.191 162.252 231.191 161.881ZM231.533 157.574L231.553 159.029H229.863C229.427 159.029 229.043 159.072 228.711 159.156C228.379 159.234 228.102 159.352 227.881 159.508C227.66 159.664 227.493 159.853 227.383 160.074C227.272 160.296 227.217 160.546 227.217 160.826C227.217 161.106 227.282 161.363 227.412 161.598C227.542 161.826 227.731 162.005 227.979 162.135C228.232 162.265 228.538 162.33 228.896 162.33C229.378 162.33 229.798 162.232 230.156 162.037C230.521 161.835 230.807 161.591 231.016 161.305C231.224 161.012 231.335 160.735 231.348 160.475L232.109 161.52C232.031 161.786 231.898 162.073 231.709 162.379C231.52 162.685 231.273 162.978 230.967 163.258C230.667 163.531 230.306 163.756 229.883 163.932C229.466 164.107 228.984 164.195 228.438 164.195C227.747 164.195 227.132 164.059 226.592 163.785C226.051 163.505 225.628 163.131 225.322 162.662C225.016 162.187 224.863 161.65 224.863 161.051C224.863 160.491 224.967 159.996 225.176 159.566C225.391 159.13 225.703 158.766 226.113 158.473C226.53 158.18 227.038 157.958 227.637 157.809C228.236 157.652 228.919 157.574 229.688 157.574H231.533ZM241.943 161.139C241.943 160.904 241.885 160.693 241.768 160.504C241.65 160.309 241.426 160.133 241.094 159.977C240.768 159.82 240.286 159.677 239.648 159.547C239.089 159.423 238.574 159.277 238.105 159.107C237.643 158.932 237.246 158.72 236.914 158.473C236.582 158.225 236.325 157.932 236.143 157.594C235.96 157.255 235.869 156.865 235.869 156.422C235.869 155.992 235.964 155.585 236.152 155.201C236.341 154.817 236.611 154.479 236.963 154.186C237.314 153.893 237.741 153.661 238.242 153.492C238.75 153.323 239.316 153.238 239.941 153.238C240.827 153.238 241.585 153.388 242.217 153.688C242.855 153.98 243.343 154.381 243.682 154.889C244.02 155.39 244.189 155.956 244.189 156.588H241.836C241.836 156.308 241.764 156.048 241.621 155.807C241.484 155.559 241.276 155.361 240.996 155.211C240.716 155.055 240.365 154.977 239.941 154.977C239.538 154.977 239.202 155.042 238.936 155.172C238.675 155.296 238.48 155.458 238.35 155.66C238.226 155.862 238.164 156.083 238.164 156.324C238.164 156.5 238.197 156.66 238.262 156.803C238.333 156.939 238.451 157.066 238.613 157.184C238.776 157.294 238.997 157.398 239.277 157.496C239.564 157.594 239.922 157.688 240.352 157.779C241.159 157.949 241.852 158.167 242.432 158.434C243.018 158.694 243.467 159.033 243.779 159.449C244.092 159.859 244.248 160.38 244.248 161.012C244.248 161.48 244.147 161.91 243.945 162.301C243.75 162.685 243.464 163.02 243.086 163.307C242.708 163.587 242.256 163.805 241.729 163.961C241.208 164.117 240.622 164.195 239.971 164.195C239.014 164.195 238.203 164.026 237.539 163.688C236.875 163.342 236.37 162.903 236.025 162.369C235.687 161.829 235.518 161.269 235.518 160.689H237.793C237.819 161.126 237.939 161.474 238.154 161.734C238.376 161.988 238.649 162.174 238.975 162.291C239.307 162.402 239.648 162.457 240 162.457C240.423 162.457 240.778 162.402 241.064 162.291C241.351 162.174 241.569 162.018 241.719 161.822C241.868 161.62 241.943 161.393 241.943 161.139ZM246.406 162.828C246.406 162.464 246.53 162.158 246.777 161.91C247.025 161.656 247.36 161.529 247.783 161.529C248.213 161.529 248.548 161.656 248.789 161.91C249.036 162.158 249.16 162.464 249.16 162.828C249.16 163.193 249.036 163.499 248.789 163.746C248.548 163.993 248.213 164.117 247.783 164.117C247.36 164.117 247.025 163.993 246.777 163.746C246.53 163.499 246.406 163.193 246.406 162.828Z" fill="#461102"/>
<path d="M31.328 191.024C33.568 191.024 35.504 191.44 37.136 192.272C38.768 193.072 40 194.176 40.832 195.584C41.696 196.96 42.128 198.496 42.128 200.192C42.128 201.952 41.744 203.648 40.976 205.28C40.24 206.912 38.96 208.752 37.136 210.8C35.344 212.848 32.72 215.488 29.264 218.72H42.848L42.08 224H21.488V219.056C25.52 215.024 28.432 212.016 30.224 210.032C32.016 208.048 33.28 206.368 34.016 204.992C34.752 203.616 35.12 202.208 35.12 200.768C35.12 199.392 34.72 198.304 33.92 197.504C33.12 196.704 32.048 196.304 30.704 196.304C29.52 196.304 28.464 196.576 27.536 197.12C26.608 197.632 25.632 198.496 24.608 199.712L20.528 196.448C23.28 192.832 26.88 191.024 31.328 191.024ZM67.9933 213.296C68.4413 215.504 69.2573 217.12 70.4413 218.144C71.6573 219.168 73.2733 219.68 75.2893 219.68C77.4333 219.68 79.7373 219.008 82.2013 217.664V222.944C80.8893 223.552 79.6413 224 78.4573 224.288C77.2733 224.608 75.9773 224.768 74.5693 224.768C70.9533 224.768 67.9773 223.776 65.6413 221.792C63.3373 219.776 61.8173 216.944 61.0813 213.296H56.9053L57.8652 209.6H60.8893V206H56.9053L57.8652 202.256H61.1293C62.0253 198.768 63.6893 196.032 66.1213 194.048C68.5853 192.032 71.4813 191.024 74.8093 191.024C78.1373 191.024 81.1453 191.936 83.8333 193.76L81.3853 197.984C80.3613 197.312 79.3533 196.832 78.3613 196.544C77.3693 196.224 76.2653 196.064 75.0493 196.064C73.3853 196.064 71.9613 196.576 70.7773 197.6C69.5933 198.624 68.7133 200.176 68.1373 202.256H79.8973L78.9373 206H67.8013V209.6H78.1693L77.2573 213.296H67.9933Z" fill="#E3000F"/>
<path d="M107.654 212.469V214.5H98.0254V212.762L102.645 207.771C103.126 207.225 103.507 206.749 103.787 206.346C104.067 205.942 104.266 205.577 104.383 205.252C104.507 204.92 104.568 204.604 104.568 204.305C104.568 203.868 104.49 203.488 104.334 203.162C104.178 202.83 103.95 202.573 103.65 202.391C103.357 202.208 102.996 202.117 102.566 202.117C102.091 202.117 101.684 202.228 101.346 202.449C101.014 202.664 100.76 202.964 100.584 203.348C100.415 203.732 100.33 204.171 100.33 204.666H97.7422C97.7422 203.826 97.9375 203.061 98.3281 202.371C98.7188 201.674 99.2786 201.118 100.008 200.701C100.737 200.285 101.603 200.076 102.605 200.076C103.582 200.076 104.409 200.239 105.086 200.564C105.763 200.883 106.277 201.339 106.629 201.932C106.98 202.524 107.156 203.23 107.156 204.051C107.156 204.507 107.081 204.956 106.932 205.398C106.782 205.841 106.57 206.281 106.297 206.717C106.03 207.146 105.711 207.583 105.34 208.025C104.969 208.468 104.555 208.921 104.1 209.383L101.326 212.469H107.654ZM117.146 199.49V214.5H114.568V199.49H117.146ZM123.768 203.934L119.168 209.1L116.678 211.629L115.857 209.627L117.781 207.205L120.652 203.934H123.768ZM121.131 214.5L117.859 209.578L119.578 207.908L124.119 214.5H121.131ZM131.424 211.99V203.934H134.021V214.5H131.58L131.424 211.99ZM131.756 209.803L132.557 209.783C132.557 210.493 132.479 211.147 132.322 211.746C132.166 212.345 131.922 212.866 131.59 213.309C131.264 213.745 130.851 214.087 130.35 214.334C129.848 214.575 129.256 214.695 128.572 214.695C128.051 214.695 127.576 214.624 127.146 214.48C126.717 214.331 126.346 214.1 126.033 213.787C125.727 213.468 125.49 213.061 125.32 212.566C125.151 212.065 125.066 211.463 125.066 210.76V203.934H127.645V210.779C127.645 211.131 127.684 211.424 127.762 211.658C127.846 211.893 127.96 212.085 128.104 212.234C128.253 212.378 128.426 212.482 128.621 212.547C128.823 212.605 129.038 212.635 129.266 212.635C129.891 212.635 130.382 212.511 130.74 212.264C131.105 212.01 131.365 211.671 131.521 211.248C131.678 210.818 131.756 210.337 131.756 209.803ZM142.596 211.99V203.934H145.193V214.5H142.752L142.596 211.99ZM142.928 209.803L143.729 209.783C143.729 210.493 143.65 211.147 143.494 211.746C143.338 212.345 143.094 212.866 142.762 213.309C142.436 213.745 142.023 214.087 141.521 214.334C141.02 214.575 140.428 214.695 139.744 214.695C139.223 214.695 138.748 214.624 138.318 214.48C137.889 214.331 137.518 214.1 137.205 213.787C136.899 213.468 136.661 213.061 136.492 212.566C136.323 212.065 136.238 211.463 136.238 210.76V203.934H138.816V210.779C138.816 211.131 138.855 211.424 138.934 211.658C139.018 211.893 139.132 212.085 139.275 212.234C139.425 212.378 139.598 212.482 139.793 212.547C139.995 212.605 140.21 212.635 140.438 212.635C141.062 212.635 141.554 212.511 141.912 212.264C142.277 212.01 142.537 211.671 142.693 211.248C142.85 210.818 142.928 210.337 142.928 209.803ZM153.816 212.254V199.5H156.414V214.5H154.07L153.816 212.254ZM147.029 209.344V209.139C147.029 208.331 147.12 207.599 147.303 206.941C147.492 206.277 147.765 205.708 148.123 205.232C148.481 204.757 148.914 204.389 149.422 204.129C149.936 203.868 150.519 203.738 151.17 203.738C151.801 203.738 152.352 203.865 152.82 204.119C153.296 204.373 153.699 204.734 154.031 205.203C154.37 205.672 154.64 206.229 154.842 206.873C155.044 207.511 155.19 208.214 155.281 208.982V209.539C155.19 210.288 155.044 210.975 154.842 211.6C154.64 212.225 154.37 212.771 154.031 213.24C153.699 213.702 153.296 214.061 152.82 214.314C152.345 214.568 151.788 214.695 151.15 214.695C150.506 214.695 149.926 214.562 149.412 214.295C148.904 214.028 148.471 213.654 148.113 213.172C147.762 212.69 147.492 212.124 147.303 211.473C147.12 210.822 147.029 210.112 147.029 209.344ZM149.617 209.139V209.344C149.617 209.799 149.656 210.226 149.734 210.623C149.812 211.02 149.939 211.372 150.115 211.678C150.291 211.977 150.516 212.212 150.789 212.381C151.069 212.55 151.408 212.635 151.805 212.635C152.312 212.635 152.729 212.524 153.055 212.303C153.387 212.075 153.644 211.766 153.826 211.375C154.008 210.978 154.126 210.532 154.178 210.037V208.504C154.152 208.113 154.083 207.752 153.973 207.42C153.868 207.088 153.719 206.801 153.523 206.561C153.335 206.32 153.1 206.131 152.82 205.994C152.54 205.857 152.208 205.789 151.824 205.789C151.427 205.789 151.089 205.877 150.809 206.053C150.529 206.222 150.301 206.46 150.125 206.766C149.949 207.072 149.819 207.426 149.734 207.83C149.656 208.234 149.617 208.67 149.617 209.139Z" fill="#461102"/>
<rect x="20" y="240" width="198" height="40" rx="10" fill="#E3000F"/>
<path d="M50.78 253.14L50.46 255.66H47.04V267H43.76V255.66H40.18V253.14H50.78ZM60.6008 253.14L60.2608 255.48H55.3808V258.8H59.6408V261.1H55.3808V264.64H60.6008V267H52.1008V253.14H60.6008ZM65.9081 253.14V264.4H71.3081L70.9681 267H62.6281V253.14H65.9081ZM76.162 253.14V264.4H81.562L81.222 267H72.882V253.14H76.162ZM86.4159 253.14V267H83.1359V253.14H86.4159ZM97.6014 253.14C99.7747 253.14 101.515 253.633 102.821 254.62C104.141 255.593 104.801 257.387 104.801 260C104.801 262.573 104.161 264.387 102.881 265.44C101.601 266.48 99.9414 267 97.9014 267H93.7414V253.14H97.6014ZM97.0214 255.52V264.62H98.1014C99.1814 264.62 100.001 264.287 100.561 263.62C101.121 262.94 101.401 261.733 101.401 260C101.401 258.813 101.261 257.893 100.981 257.24C100.701 256.587 100.321 256.14 99.8414 255.9C99.3614 255.647 98.7681 255.52 98.0614 255.52H97.0214ZM110.049 253.14V267H106.769V253.14H110.049ZM118.628 252.8C120.415 252.8 121.955 253.367 123.248 254.5L121.588 256.24C121.095 255.867 120.635 255.6 120.208 255.44C119.795 255.267 119.315 255.18 118.768 255.18C117.741 255.18 116.921 255.587 116.308 256.4C115.695 257.2 115.388 258.42 115.388 260.06C115.388 261.833 115.621 263.093 116.088 263.84C116.555 264.573 117.281 264.94 118.268 264.94C118.961 264.94 119.588 264.787 120.148 264.48V261.34H118.348L118.028 259.02H123.328V265.88C122.608 266.347 121.815 266.707 120.948 266.96C120.081 267.213 119.215 267.34 118.348 267.34C116.241 267.34 114.655 266.727 113.588 265.5C112.521 264.26 111.988 262.447 111.988 260.06C111.988 258.54 112.275 257.233 112.848 256.14C113.435 255.047 114.228 254.22 115.228 253.66C116.241 253.087 117.375 252.8 118.628 252.8ZM128.799 253.14V267H125.519V253.14H128.799ZM135.858 253.14C137.685 253.14 139.105 253.52 140.118 254.28C141.131 255.04 141.638 256.167 141.638 257.66C141.638 259.22 141.138 260.4 140.138 261.2C139.151 261.987 137.825 262.38 136.158 262.38H134.658V267H131.378V253.14H135.858ZM135.878 260.02C136.651 260.02 137.238 259.84 137.638 259.48C138.051 259.107 138.258 258.5 138.258 257.66C138.258 256.207 137.445 255.48 135.818 255.48H134.658V260.02H135.878ZM149.479 267L148.759 264.02H144.719L144.019 267H140.619L144.799 253.14H148.779L152.959 267H149.479ZM145.279 261.64H148.199L146.739 255.52L145.279 261.64ZM157.256 253.14V267H153.976V253.14H157.256ZM165.216 253.14L160.796 259.36L165.576 267H161.776L157.356 259.6L161.756 253.14H165.216ZM175.132 253.14L174.792 255.48H169.912V258.8H174.172V261.1H169.912V264.64H175.132V267H166.632V253.14H175.132ZM186.639 253.14L186.319 255.66H182.899V267H179.619V255.66H176.039V253.14H186.639ZM197.44 253.14L197.12 255.66H193.7V267H190.42V255.66H186.84V253.14H197.44Z" fill="#FFE80D"/>
</svg>
