<svg width="300" height="320" viewBox="0 0 300 320" fill="none" xmlns="http://www.w3.org/2000/svg">
<path d="M34.16 51.528C34.16 52.664 33.92 53.672 33.44 54.552C32.96 55.432 32.24 56.128 31.28 56.64C30.336 57.136 29.184 57.384 27.824 57.384C25.776 57.384 24.208 56.856 23.12 55.8C22.048 54.728 21.512 53.304 21.512 51.528V40.392H25.04V51.36C25.04 52.48 25.264 53.32 25.712 53.88C26.16 54.424 26.864 54.696 27.824 54.696C28.784 54.696 29.488 54.424 29.936 53.88C30.4 53.32 30.632 52.48 30.632 51.36V40.392H34.16V51.528ZM47.7991 57H44.8471L44.6791 55.296C44.2311 56 43.6871 56.528 43.0471 56.88C42.4071 57.216 41.6631 57.384 40.8151 57.384C39.6631 57.384 38.7831 57.04 38.1751 56.352C37.5671 55.648 37.2631 54.672 37.2631 53.424V44.28H40.6711V52.992C40.6711 53.664 40.7831 54.144 41.0071 54.432C41.2311 54.704 41.5831 54.84 42.0631 54.84C42.9751 54.84 43.7511 54.288 44.3911 53.184V44.28H47.7991V57ZM61.9164 50.352C61.9164 50.512 61.8924 50.952 61.8444 51.672H53.9004C54.0124 52.824 54.3244 53.64 54.8364 54.12C55.3484 54.6 56.0444 54.84 56.9244 54.84C57.4684 54.84 57.9804 54.752 58.4604 54.576C58.9404 54.4 59.4604 54.12 60.0204 53.736L61.4364 55.656C60.0124 56.808 58.4044 57.384 56.6124 57.384C54.6124 57.384 53.0764 56.784 52.0044 55.584C50.9324 54.384 50.3964 52.76 50.3964 50.712C50.3964 49.416 50.6204 48.256 51.0684 47.232C51.5324 46.192 52.1964 45.376 53.0604 44.784C53.9404 44.192 54.9804 43.896 56.1804 43.896C57.9884 43.896 59.3964 44.464 60.4044 45.6C61.4124 46.736 61.9164 48.32 61.9164 50.352ZM58.5324 49.392C58.5324 47.28 57.7724 46.224 56.2524 46.224C55.5484 46.224 54.9964 46.488 54.5964 47.016C54.2124 47.528 53.9804 48.368 53.9004 49.536H58.5324V49.392ZM67.5511 57.384C66.5111 57.384 65.7031 57.088 65.1271 56.496C64.5511 55.888 64.2631 55.032 64.2631 53.928V39.216L67.6711 38.832V53.832C67.6711 54.392 67.9031 54.672 68.3671 54.672C68.6231 54.672 68.8471 54.624 69.0391 54.528L69.7351 56.952C69.0791 57.24 68.3511 57.384 67.5511 57.384ZM87.0641 53.472C87.0641 53.968 87.1361 54.336 87.2801 54.576C87.4241 54.8 87.6641 54.968 88.0001 55.08L87.2801 57.336C86.5281 57.272 85.9121 57.096 85.4321 56.808C84.9681 56.52 84.6081 56.072 84.3521 55.464C83.5201 56.744 82.2481 57.384 80.5361 57.384C79.2721 57.384 78.2641 57.024 77.5121 56.304C76.7761 55.568 76.4081 54.616 76.4081 53.448C76.4081 52.056 76.9121 50.992 77.9201 50.256C78.9281 49.52 80.3761 49.152 82.2641 49.152H83.7281V48.528C83.7281 47.744 83.5521 47.2 83.2001 46.896C82.8481 46.592 82.2641 46.44 81.4481 46.44C80.5521 46.44 79.4321 46.664 78.0881 47.112L77.3201 44.832C78.9041 44.208 80.4721 43.896 82.0241 43.896C83.7521 43.896 85.0241 44.272 85.8401 45.024C86.6561 45.76 87.0641 46.864 87.0641 48.336V53.472ZM81.4721 54.936C82.4321 54.936 83.1841 54.464 83.7281 53.52V51.096H82.6001C80.7601 51.096 79.8401 51.784 79.8401 53.16C79.8401 53.72 79.9761 54.16 80.2481 54.48C80.5361 54.784 80.9441 54.936 81.4721 54.936ZM100.072 53.472C100.072 53.968 100.144 54.336 100.288 54.576C100.432 54.8 100.672 54.968 101.008 55.08L100.288 57.336C99.5359 57.272 98.9199 57.096 98.4399 56.808C97.9759 56.52 97.6159 56.072 97.3599 55.464C96.5279 56.744 95.2559 57.384 93.5439 57.384C92.2799 57.384 91.2719 57.024 90.5199 56.304C89.7839 55.568 89.4159 54.616 89.4159 53.448C89.4159 52.056 89.9199 50.992 90.9279 50.256C91.9359 49.52 93.3839 49.152 95.2719 49.152H96.7359V48.528C96.7359 47.744 96.5599 47.2 96.2079 46.896C95.8559 46.592 95.2719 46.44 94.4559 46.44C93.5599 46.44 92.4399 46.664 91.0959 47.112L90.3279 44.832C91.9119 44.208 93.4799 43.896 95.0319 43.896C96.7599 43.896 98.0319 44.272 98.8479 45.024C99.6639 45.76 100.072 46.864 100.072 48.336V53.472ZM94.4799 54.936C95.4399 54.936 96.1919 54.464 96.7359 53.52V51.096H95.6079C93.7679 51.096 92.8479 51.784 92.8479 53.16C92.8479 53.72 92.9839 54.16 93.2559 54.48C93.5439 54.784 93.9519 54.936 94.4799 54.936ZM107.467 43.896C109.259 43.896 110.795 44.408 112.075 45.432L110.779 47.376C109.707 46.704 108.651 46.368 107.611 46.368C107.051 46.368 106.619 46.472 106.315 46.68C106.011 46.888 105.859 47.168 105.859 47.52C105.859 47.776 105.923 47.992 106.051 48.168C106.195 48.344 106.451 48.512 106.819 48.672C107.203 48.832 107.771 49.024 108.523 49.248C109.867 49.616 110.867 50.112 111.523 50.736C112.179 51.344 112.507 52.184 112.507 53.256C112.507 54.104 112.259 54.84 111.763 55.464C111.283 56.088 110.627 56.568 109.795 56.904C108.963 57.224 108.035 57.384 107.011 57.384C105.939 57.384 104.963 57.224 104.083 56.904C103.203 56.568 102.451 56.112 101.827 55.536L103.507 53.664C104.579 54.496 105.715 54.912 106.915 54.912C107.555 54.912 108.059 54.792 108.427 54.552C108.811 54.296 109.003 53.952 109.003 53.52C109.003 53.184 108.931 52.92 108.787 52.728C108.643 52.536 108.379 52.36 107.995 52.2C107.611 52.024 107.011 51.824 106.195 51.6C104.915 51.248 103.963 50.752 103.339 50.112C102.731 49.456 102.427 48.648 102.427 47.688C102.427 46.968 102.635 46.32 103.051 45.744C103.467 45.168 104.051 44.72 104.803 44.4C105.571 44.064 106.459 43.896 107.467 43.896ZM122.335 56.4C121.871 56.72 121.343 56.96 120.751 57.12C120.175 57.296 119.599 57.384 119.023 57.384C117.711 57.368 116.719 56.992 116.047 56.256C115.375 55.52 115.039 54.44 115.039 53.016V46.68H113.143V44.28H115.039V41.496L118.447 41.088V44.28H121.375L121.039 46.68H118.447V52.944C118.447 53.552 118.551 53.992 118.759 54.264C118.967 54.536 119.287 54.672 119.719 54.672C120.151 54.672 120.631 54.528 121.159 54.24L122.335 56.4ZM133.306 53.472C133.306 53.968 133.378 54.336 133.522 54.576C133.666 54.8 133.906 54.968 134.242 55.08L133.522 57.336C132.77 57.272 132.154 57.096 131.674 56.808C131.21 56.52 130.85 56.072 130.594 55.464C129.762 56.744 128.49 57.384 126.778 57.384C125.514 57.384 124.506 57.024 123.754 56.304C123.018 55.568 122.65 54.616 122.65 53.448C122.65 52.056 123.154 50.992 124.162 50.256C125.17 49.52 126.618 49.152 128.506 49.152H129.97V48.528C129.97 47.744 129.794 47.2 129.442 46.896C129.09 46.592 128.506 46.44 127.69 46.44C126.794 46.44 125.674 46.664 124.33 47.112L123.562 44.832C125.146 44.208 126.714 43.896 128.266 43.896C129.994 43.896 131.266 44.272 132.082 45.024C132.898 45.76 133.306 46.864 133.306 48.336V53.472ZM127.714 54.936C128.674 54.936 129.426 54.464 129.97 53.52V51.096H128.842C127.002 51.096 126.082 51.784 126.082 53.16C126.082 53.72 126.218 54.16 126.49 54.48C126.778 54.784 127.186 54.936 127.714 54.936ZM139.645 57.384C138.605 57.384 137.797 57.088 137.221 56.496C136.645 55.888 136.357 55.032 136.357 53.928V39.216L139.765 38.832V53.832C139.765 54.392 139.997 54.672 140.461 54.672C140.717 54.672 140.941 54.624 141.133 54.528L141.829 56.952C141.173 57.24 140.445 57.384 139.645 57.384ZM152.822 55.728C152.822 57.008 152.622 58.056 152.222 58.872C151.838 59.704 151.302 60.368 150.614 60.864C149.926 61.376 149.046 61.84 147.974 62.256L146.846 59.784C147.47 59.496 147.958 59.208 148.31 58.92C148.662 58.648 148.934 58.272 149.126 57.792C149.318 57.328 149.414 56.712 149.414 55.944V44.28H152.822V55.728ZM151.094 37.728C151.702 37.728 152.198 37.92 152.582 38.304C152.982 38.672 153.182 39.144 153.182 39.72C153.182 40.296 152.982 40.776 152.582 41.16C152.198 41.528 151.702 41.712 151.094 41.712C150.486 41.712 149.99 41.528 149.606 41.16C149.222 40.776 149.03 40.296 149.03 39.72C149.03 39.144 149.222 38.672 149.606 38.304C149.99 37.92 150.486 37.728 151.094 37.728ZM165.908 53.472C165.908 53.968 165.98 54.336 166.124 54.576C166.268 54.8 166.508 54.968 166.844 55.08L166.124 57.336C165.372 57.272 164.756 57.096 164.276 56.808C163.812 56.52 163.452 56.072 163.196 55.464C162.364 56.744 161.092 57.384 159.38 57.384C158.116 57.384 157.108 57.024 156.356 56.304C155.62 55.568 155.252 54.616 155.252 53.448C155.252 52.056 155.756 50.992 156.764 50.256C157.772 49.52 159.22 49.152 161.108 49.152H162.572V48.528C162.572 47.744 162.396 47.2 162.044 46.896C161.692 46.592 161.108 46.44 160.292 46.44C159.396 46.44 158.276 46.664 156.932 47.112L156.164 44.832C157.748 44.208 159.316 43.896 160.868 43.896C162.596 43.896 163.868 44.272 164.684 45.024C165.5 45.76 165.908 46.864 165.908 48.336V53.472ZM160.316 54.936C161.276 54.936 162.028 54.464 162.572 53.52V51.096H161.444C159.604 51.096 158.684 51.784 158.684 53.16C158.684 53.72 158.82 54.16 159.092 54.48C159.38 54.784 159.788 54.936 160.316 54.936ZM158.228 37.992C158.74 37.992 159.164 38.168 159.5 38.52C159.852 38.856 160.028 39.272 160.028 39.768C160.028 40.264 159.852 40.688 159.5 41.04C159.164 41.376 158.74 41.544 158.228 41.544C157.732 41.544 157.308 41.376 156.956 41.04C156.604 40.688 156.428 40.264 156.428 39.768C156.428 39.272 156.604 38.856 156.956 38.52C157.308 38.168 157.732 37.992 158.228 37.992ZM163.652 37.992C164.164 37.992 164.596 38.168 164.948 38.52C165.3 38.856 165.476 39.272 165.476 39.768C165.476 40.264 165.3 40.688 164.948 41.04C164.596 41.376 164.164 41.544 163.652 41.544C163.156 41.544 162.732 41.376 162.38 41.04C162.044 40.688 161.876 40.264 161.876 39.768C161.876 39.272 162.044 38.856 162.38 38.52C162.732 38.168 163.156 37.992 163.652 37.992ZM175.889 43.92C176.273 43.92 176.697 43.984 177.161 44.112L176.585 47.4C176.137 47.288 175.761 47.232 175.457 47.232C174.705 47.232 174.121 47.496 173.705 48.024C173.289 48.552 172.961 49.352 172.721 50.424V57H169.313V44.28H172.265L172.577 46.752C172.881 45.856 173.321 45.16 173.897 44.664C174.489 44.168 175.153 43.92 175.889 43.92ZM189.923 44.976C189.091 45.296 187.867 45.456 186.251 45.456C187.051 45.808 187.643 46.248 188.027 46.776C188.411 47.288 188.603 47.936 188.603 48.72C188.603 49.536 188.387 50.272 187.955 50.928C187.539 51.568 186.931 52.072 186.131 52.44C185.347 52.808 184.427 52.992 183.371 52.992C182.811 52.992 182.315 52.936 181.883 52.824C181.563 53.032 181.403 53.312 181.403 53.664C181.403 53.92 181.499 54.128 181.691 54.288C181.899 54.432 182.291 54.504 182.867 54.504H184.811C185.755 54.504 186.579 54.664 187.283 54.984C188.003 55.288 188.555 55.72 188.939 56.28C189.339 56.824 189.539 57.448 189.539 58.152C189.539 59.448 188.979 60.456 187.859 61.176C186.755 61.912 185.155 62.28 183.059 62.28C181.555 62.28 180.363 62.12 179.483 61.8C178.619 61.496 178.011 61.048 177.659 60.456C177.307 59.864 177.131 59.12 177.131 58.224H180.179C180.179 58.64 180.259 58.968 180.419 59.208C180.579 59.464 180.867 59.648 181.283 59.76C181.715 59.888 182.331 59.952 183.131 59.952C184.235 59.952 185.003 59.816 185.435 59.544C185.883 59.272 186.107 58.888 186.107 58.392C186.107 57.944 185.939 57.6 185.603 57.36C185.267 57.12 184.771 57 184.115 57H182.243C180.979 57 180.035 56.768 179.411 56.304C178.787 55.824 178.475 55.224 178.475 54.504C178.475 54.056 178.603 53.624 178.859 53.208C179.131 52.776 179.499 52.416 179.963 52.128C179.179 51.696 178.603 51.192 178.235 50.616C177.883 50.024 177.707 49.32 177.707 48.504C177.707 47.576 177.931 46.768 178.379 46.08C178.843 45.376 179.483 44.84 180.299 44.472C181.131 44.088 182.075 43.896 183.131 43.896C184.443 43.928 185.523 43.816 186.371 43.56C187.219 43.304 188.123 42.904 189.083 42.36L189.923 44.976ZM183.203 46.176C182.563 46.176 182.051 46.384 181.667 46.8C181.299 47.2 181.115 47.752 181.115 48.456C181.115 49.176 181.299 49.744 181.667 50.16C182.051 50.576 182.571 50.784 183.227 50.784C183.915 50.784 184.435 50.584 184.787 50.184C185.139 49.784 185.315 49.192 185.315 48.408C185.315 46.92 184.611 46.176 183.203 46.176ZM195.01 44.28V57H191.602V44.28H195.01ZM193.282 37.728C193.89 37.728 194.386 37.92 194.77 38.304C195.17 38.672 195.37 39.144 195.37 39.72C195.37 40.296 195.17 40.776 194.77 41.16C194.386 41.528 193.89 41.712 193.282 41.712C192.674 41.712 192.178 41.528 191.794 41.16C191.41 40.776 191.218 40.296 191.218 39.72C191.218 39.144 191.41 38.672 191.794 38.304C192.178 37.92 192.674 37.728 193.282 37.728ZM205.479 43.896C206.599 43.896 207.471 44.24 208.095 44.928C208.719 45.6 209.031 46.536 209.031 47.736V57H205.623V48.312C205.623 47.624 205.503 47.144 205.263 46.872C205.039 46.584 204.695 46.44 204.231 46.44C203.751 46.44 203.311 46.592 202.911 46.896C202.527 47.184 202.151 47.624 201.783 48.216V57H198.375V44.28H201.327L201.591 45.888C202.119 45.232 202.695 44.736 203.319 44.4C203.959 44.064 204.679 43.896 205.479 43.896ZM221.541 38.832V57H218.133V39.216L221.541 38.832ZM229.269 44.28L225.213 49.872L229.629 57H225.765L221.661 50.04L225.741 44.28H229.269ZM236.212 43.896C238.116 43.896 239.604 44.496 240.676 45.696C241.748 46.88 242.284 48.528 242.284 50.64C242.284 51.984 242.036 53.168 241.54 54.192C241.06 55.2 240.356 55.984 239.428 56.544C238.516 57.104 237.436 57.384 236.188 57.384C234.284 57.384 232.788 56.792 231.7 55.608C230.628 54.408 230.092 52.752 230.092 50.64C230.092 49.296 230.332 48.12 230.812 47.112C231.308 46.088 232.012 45.296 232.924 44.736C233.852 44.176 234.948 43.896 236.212 43.896ZM236.212 46.44C235.348 46.44 234.7 46.784 234.268 47.472C233.852 48.144 233.644 49.2 233.644 50.64C233.644 52.08 233.852 53.144 234.268 53.832C234.7 54.504 235.34 54.84 236.188 54.84C237.036 54.84 237.668 54.504 238.084 53.832C238.516 53.144 238.732 52.08 238.732 50.64C238.732 49.2 238.524 48.144 238.108 47.472C237.692 46.784 237.06 46.44 236.212 46.44ZM237.58 41.64C237.244 41.64 236.948 41.584 236.692 41.472C236.452 41.36 236.164 41.2 235.828 40.992C235.62 40.832 235.436 40.72 235.276 40.656C235.132 40.576 234.98 40.536 234.82 40.536C234.564 40.536 234.34 40.624 234.148 40.8C233.956 40.976 233.756 41.248 233.548 41.616L231.796 40.752C232.116 39.968 232.532 39.328 233.044 38.832C233.556 38.336 234.132 38.088 234.772 38.088C235.14 38.088 235.452 38.152 235.708 38.28C235.964 38.392 236.252 38.552 236.572 38.76C236.78 38.904 236.956 39.016 237.1 39.096C237.244 39.16 237.396 39.192 237.556 39.192C237.812 39.192 238.028 39.112 238.204 38.952C238.396 38.776 238.604 38.504 238.828 38.136L240.58 39C240.26 39.816 239.844 40.464 239.332 40.944C238.82 41.408 238.236 41.64 237.58 41.64ZM248.283 44.28V57H244.875V44.28H248.283ZM246.555 37.728C247.163 37.728 247.659 37.92 248.043 38.304C248.443 38.672 248.643 39.144 248.643 39.72C248.643 40.296 248.443 40.776 248.043 41.16C247.659 41.528 247.163 41.712 246.555 41.712C245.947 41.712 245.451 41.528 245.067 41.16C244.683 40.776 244.491 40.296 244.491 39.72C244.491 39.144 244.683 38.672 245.067 38.304C245.451 37.92 245.947 37.728 246.555 37.728ZM255.057 38.832V57H251.649V39.216L255.057 38.832ZM262.785 44.28L258.729 49.872L263.145 57H259.281L255.177 50.04L259.257 44.28H262.785ZM268.065 44.28V57H264.657V44.28H268.065ZM266.337 37.728C266.945 37.728 267.441 37.92 267.825 38.304C268.225 38.672 268.425 39.144 268.425 39.72C268.425 40.296 268.225 40.776 267.825 41.16C267.441 41.528 266.945 41.712 266.337 41.712C265.729 41.712 265.233 41.528 264.849 41.16C264.465 40.776 264.273 40.296 264.273 39.72C264.273 39.144 264.465 38.672 264.849 38.304C265.233 37.92 265.729 37.728 266.337 37.728ZM35.432 69.896C36.44 69.896 37.248 70.24 37.856 70.928C38.48 71.616 38.792 72.552 38.792 73.736V83H35.384V74.312C35.384 73.064 34.968 72.44 34.136 72.44C33.688 72.44 33.296 72.584 32.96 72.872C32.624 73.16 32.28 73.608 31.928 74.216V83H28.52V74.312C28.52 73.064 28.104 72.44 27.272 72.44C26.824 72.44 26.432 72.592 26.096 72.896C25.76 73.184 25.424 73.624 25.088 74.216V83H21.68V70.28H24.632L24.896 71.864C25.376 71.224 25.912 70.736 26.504 70.4C27.112 70.064 27.808 69.896 28.592 69.896C29.312 69.896 29.936 70.08 30.464 70.448C30.992 70.8 31.376 71.304 31.616 71.96C32.144 71.272 32.712 70.76 33.32 70.424C33.944 70.072 34.648 69.896 35.432 69.896ZM47.3758 69.896C49.2798 69.896 50.7678 70.496 51.8398 71.696C52.9118 72.88 53.4478 74.528 53.4478 76.64C53.4478 77.984 53.1998 79.168 52.7038 80.192C52.2238 81.2 51.5198 81.984 50.5918 82.544C49.6798 83.104 48.5998 83.384 47.3518 83.384C45.4478 83.384 43.9518 82.792 42.8638 81.608C41.7918 80.408 41.2558 78.752 41.2558 76.64C41.2558 75.296 41.4958 74.12 41.9758 73.112C42.4718 72.088 43.1758 71.296 44.0878 70.736C45.0158 70.176 46.1118 69.896 47.3758 69.896ZM47.3758 72.44C46.5118 72.44 45.8638 72.784 45.4318 73.472C45.0158 74.144 44.8078 75.2 44.8078 76.64C44.8078 78.08 45.0158 79.144 45.4318 79.832C45.8638 80.504 46.5038 80.84 47.3518 80.84C48.1998 80.84 48.8318 80.504 49.2478 79.832C49.6798 79.144 49.8958 78.08 49.8958 76.64C49.8958 75.2 49.6878 74.144 49.2718 73.472C48.8558 72.784 48.2238 72.44 47.3758 72.44ZM66.7914 76.352C66.7914 76.512 66.7674 76.952 66.7194 77.672H58.7754C58.8874 78.824 59.1994 79.64 59.7114 80.12C60.2234 80.6 60.9194 80.84 61.7994 80.84C62.3434 80.84 62.8554 80.752 63.3354 80.576C63.8154 80.4 64.3354 80.12 64.8954 79.736L66.3114 81.656C64.8874 82.808 63.2794 83.384 61.4874 83.384C59.4874 83.384 57.9514 82.784 56.8794 81.584C55.8074 80.384 55.2714 78.76 55.2714 76.712C55.2714 75.416 55.4954 74.256 55.9434 73.232C56.4074 72.192 57.0714 71.376 57.9354 70.784C58.8154 70.192 59.8554 69.896 61.0554 69.896C62.8634 69.896 64.2714 70.464 65.2794 71.6C66.2874 72.736 66.7914 74.32 66.7914 76.352ZM63.4074 75.392C63.4074 73.28 62.6474 72.224 61.1274 72.224C60.4234 72.224 59.8714 72.488 59.4714 73.016C59.0874 73.528 58.8554 74.368 58.7754 75.536H63.4074V75.392ZM76.8661 82.4C76.4021 82.72 75.8741 82.96 75.2821 83.12C74.7061 83.296 74.1301 83.384 73.5541 83.384C72.2421 83.368 71.2501 82.992 70.5781 82.256C69.9061 81.52 69.5701 80.44 69.5701 79.016V72.68H67.6741V70.28H69.5701V67.496L72.9781 67.088V70.28H75.9061L75.5701 72.68H72.9781V78.944C72.9781 79.552 73.0821 79.992 73.2901 80.264C73.4981 80.536 73.8181 80.672 74.2501 80.672C74.6821 80.672 75.1621 80.528 75.6901 80.24L76.8661 82.4ZM84.9513 69.92C85.3353 69.92 85.7593 69.984 86.2233 70.112L85.6473 73.4C85.1993 73.288 84.8233 73.232 84.5193 73.232C83.7673 73.232 83.1833 73.496 82.7673 74.024C82.3513 74.552 82.0233 75.352 81.7833 76.424V83H78.3753V70.28H81.3273L81.6393 72.752C81.9433 71.856 82.3833 71.16 82.9593 70.664C83.5513 70.168 84.2153 69.92 84.9513 69.92ZM97.9398 76.352C97.9398 76.512 97.9158 76.952 97.8678 77.672H89.9238C90.0358 78.824 90.3478 79.64 90.8598 80.12C91.3718 80.6 92.0678 80.84 92.9478 80.84C93.4918 80.84 94.0038 80.752 94.4838 80.576C94.9638 80.4 95.4838 80.12 96.0438 79.736L97.4598 81.656C96.0358 82.808 94.4278 83.384 92.6358 83.384C90.6358 83.384 89.0998 82.784 88.0278 81.584C86.9558 80.384 86.4198 78.76 86.4198 76.712C86.4198 75.416 86.6438 74.256 87.0918 73.232C87.5558 72.192 88.2198 71.376 89.0838 70.784C89.9638 70.192 91.0038 69.896 92.2038 69.896C94.0118 69.896 95.4198 70.464 96.4278 71.6C97.4358 72.736 97.9398 74.32 97.9398 76.352ZM94.5558 75.392C94.5558 73.28 93.7958 72.224 92.2758 72.224C91.5718 72.224 91.0198 72.488 90.6198 73.016C90.2358 73.528 90.0038 74.368 89.9238 75.536H94.5558V75.392ZM107.511 69.896C108.631 69.896 109.503 70.24 110.127 70.928C110.751 71.6 111.063 72.536 111.063 73.736V83H107.655V74.312C107.655 73.624 107.535 73.144 107.295 72.872C107.071 72.584 106.727 72.44 106.263 72.44C105.783 72.44 105.343 72.592 104.943 72.896C104.559 73.184 104.183 73.624 103.815 74.216V83H100.407V70.28H103.359L103.623 71.888C104.151 71.232 104.727 70.736 105.351 70.4C105.991 70.064 106.711 69.896 107.511 69.896ZM125.321 65.216V83H122.321L122.129 81.44C121.233 82.736 120.017 83.384 118.481 83.384C116.913 83.384 115.713 82.784 114.881 81.584C114.065 80.368 113.657 78.72 113.657 76.64C113.657 75.328 113.865 74.168 114.281 73.16C114.713 72.136 115.321 71.336 116.105 70.76C116.889 70.184 117.793 69.896 118.817 69.896C120.001 69.896 121.033 70.32 121.913 71.168V64.832L125.321 65.216ZM119.489 80.84C119.985 80.84 120.425 80.72 120.809 80.48C121.193 80.224 121.561 79.832 121.913 79.304V73.616C121.577 73.216 121.233 72.92 120.881 72.728C120.545 72.52 120.153 72.416 119.705 72.416C118.921 72.416 118.305 72.76 117.857 73.448C117.425 74.136 117.209 75.2 117.209 76.64C117.209 78.16 117.401 79.24 117.785 79.88C118.185 80.52 118.753 80.84 119.489 80.84ZM139.424 76.352C139.424 76.512 139.4 76.952 139.352 77.672H131.408C131.52 78.824 131.832 79.64 132.344 80.12C132.856 80.6 133.552 80.84 134.432 80.84C134.976 80.84 135.488 80.752 135.968 80.576C136.448 80.4 136.968 80.12 137.528 79.736L138.944 81.656C137.52 82.808 135.912 83.384 134.12 83.384C132.12 83.384 130.584 82.784 129.512 81.584C128.44 80.384 127.904 78.76 127.904 76.712C127.904 75.416 128.128 74.256 128.576 73.232C129.04 72.192 129.704 71.376 130.568 70.784C131.448 70.192 132.488 69.896 133.688 69.896C135.496 69.896 136.904 70.464 137.912 71.6C138.92 72.736 139.424 74.32 139.424 76.352ZM136.04 75.392C136.04 73.28 135.28 72.224 133.76 72.224C133.056 72.224 132.504 72.488 132.104 73.016C131.72 73.528 131.488 74.368 131.408 75.536H136.04V75.392ZM142.833 79.28C143.409 79.28 143.897 79.48 144.297 79.88C144.697 80.28 144.897 80.76 144.897 81.32C144.897 81.88 144.697 82.368 144.297 82.784C143.897 83.184 143.409 83.384 142.833 83.384C142.273 83.384 141.793 83.184 141.393 82.784C140.993 82.368 140.793 81.88 140.793 81.32C140.793 80.76 140.993 80.28 141.393 79.88C141.793 79.48 142.273 79.28 142.833 79.28Z" fill="#E3000F"/>
<path d="M32.7246 98.7812V113H30.2734L23.8965 102.814V113H21.4453V98.7812H23.8965L30.293 108.986V98.7812H32.7246ZM41.3672 110.881V105.842C41.3672 105.464 41.2988 105.139 41.1621 104.865C41.0254 104.592 40.8171 104.38 40.5371 104.23C40.2637 104.081 39.9186 104.006 39.502 104.006C39.1178 104.006 38.7858 104.071 38.5059 104.201C38.2259 104.331 38.0078 104.507 37.8516 104.729C37.6953 104.95 37.6172 105.201 37.6172 105.48H35.2734C35.2734 105.064 35.3743 104.66 35.5762 104.27C35.778 103.879 36.071 103.531 36.4551 103.225C36.8392 102.919 37.2982 102.678 37.832 102.502C38.3659 102.326 38.9648 102.238 39.6289 102.238C40.4232 102.238 41.1263 102.372 41.7383 102.639C42.3568 102.906 42.8418 103.309 43.1934 103.85C43.5514 104.383 43.7305 105.054 43.7305 105.861V110.559C43.7305 111.04 43.763 111.473 43.8281 111.857C43.8997 112.235 44.0007 112.564 44.1309 112.844V113H41.7188C41.6081 112.746 41.5202 112.424 41.4551 112.033C41.3965 111.636 41.3672 111.252 41.3672 110.881ZM41.709 106.574L41.7285 108.029H40.0391C39.6029 108.029 39.2188 108.072 38.8867 108.156C38.5547 108.234 38.278 108.352 38.0566 108.508C37.8353 108.664 37.6693 108.853 37.5586 109.074C37.4479 109.296 37.3926 109.546 37.3926 109.826C37.3926 110.106 37.4577 110.363 37.5879 110.598C37.7181 110.826 37.9069 111.005 38.1543 111.135C38.4082 111.265 38.7142 111.33 39.0723 111.33C39.554 111.33 39.974 111.232 40.332 111.037C40.6966 110.835 40.9831 110.591 41.1914 110.305C41.3997 110.012 41.5104 109.735 41.5234 109.475L42.2852 110.52C42.207 110.786 42.0736 111.073 41.8848 111.379C41.696 111.685 41.4486 111.978 41.1426 112.258C40.8431 112.531 40.4818 112.756 40.0586 112.932C39.6419 113.107 39.1602 113.195 38.6133 113.195C37.9232 113.195 37.3079 113.059 36.7676 112.785C36.2272 112.505 35.804 112.131 35.498 111.662C35.1921 111.187 35.0391 110.65 35.0391 110.051C35.0391 109.491 35.1432 108.996 35.3516 108.566C35.5664 108.13 35.8789 107.766 36.2891 107.473C36.7057 107.18 37.2135 106.958 37.8125 106.809C38.4115 106.652 39.0951 106.574 39.8633 106.574H41.709ZM48.7109 102.434V113H46.3477V102.434H48.7109ZM46.1914 99.6602C46.1914 99.3021 46.3086 99.0059 46.543 98.7715C46.7839 98.5306 47.1159 98.4102 47.5391 98.4102C47.9557 98.4102 48.2845 98.5306 48.5254 98.7715C48.7663 99.0059 48.8867 99.3021 48.8867 99.6602C48.8867 100.012 48.7663 100.305 48.5254 100.539C48.2845 100.773 47.9557 100.891 47.5391 100.891C47.1159 100.891 46.7839 100.773 46.543 100.539C46.3086 100.305 46.1914 100.012 46.1914 99.6602ZM57.2168 110.139C57.2168 109.904 57.1582 109.693 57.041 109.504C56.9238 109.309 56.6992 109.133 56.3672 108.977C56.0417 108.82 55.5599 108.677 54.9219 108.547C54.362 108.423 53.8477 108.277 53.3789 108.107C52.9167 107.932 52.5195 107.72 52.1875 107.473C51.8555 107.225 51.5983 106.932 51.416 106.594C51.2337 106.255 51.1426 105.865 51.1426 105.422C51.1426 104.992 51.237 104.585 51.4258 104.201C51.6146 103.817 51.8848 103.479 52.2363 103.186C52.5879 102.893 53.0143 102.661 53.5156 102.492C54.0234 102.323 54.5898 102.238 55.2148 102.238C56.1003 102.238 56.8587 102.388 57.4902 102.688C58.1283 102.98 58.6165 103.381 58.9551 103.889C59.2936 104.39 59.4629 104.956 59.4629 105.588H57.1094C57.1094 105.308 57.0378 105.048 56.8945 104.807C56.7578 104.559 56.5495 104.361 56.2695 104.211C55.9896 104.055 55.638 103.977 55.2148 103.977C54.8112 103.977 54.4759 104.042 54.209 104.172C53.9486 104.296 53.7533 104.458 53.623 104.66C53.4993 104.862 53.4375 105.083 53.4375 105.324C53.4375 105.5 53.4701 105.66 53.5352 105.803C53.6068 105.939 53.724 106.066 53.8867 106.184C54.0495 106.294 54.2708 106.398 54.5508 106.496C54.8372 106.594 55.1953 106.688 55.625 106.779C56.4323 106.949 57.1257 107.167 57.7051 107.434C58.291 107.694 58.7402 108.033 59.0527 108.449C59.3652 108.859 59.5215 109.38 59.5215 110.012C59.5215 110.48 59.4206 110.91 59.2188 111.301C59.0234 111.685 58.737 112.02 58.3594 112.307C57.9818 112.587 57.5293 112.805 57.002 112.961C56.4811 113.117 55.8952 113.195 55.2441 113.195C54.2871 113.195 53.4766 113.026 52.8125 112.688C52.1484 112.342 51.6439 111.903 51.2988 111.369C50.9603 110.829 50.791 110.269 50.791 109.689H53.0664C53.0924 110.126 53.2129 110.474 53.4277 110.734C53.6491 110.988 53.9225 111.174 54.248 111.291C54.5801 111.402 54.9219 111.457 55.2734 111.457C55.6966 111.457 56.0514 111.402 56.3379 111.291C56.6243 111.174 56.8424 111.018 56.9922 110.822C57.1419 110.62 57.2168 110.393 57.2168 110.139ZM66.4258 102.434V104.152H60.4688V102.434H66.4258ZM62.1875 99.8457H64.541V110.08C64.541 110.406 64.5866 110.656 64.6777 110.832C64.7754 111.001 64.9089 111.115 65.0781 111.174C65.2474 111.232 65.446 111.262 65.6738 111.262C65.8366 111.262 65.9928 111.252 66.1426 111.232C66.2923 111.213 66.4128 111.193 66.5039 111.174L66.5137 112.971C66.3184 113.029 66.0905 113.081 65.8301 113.127C65.5762 113.173 65.2832 113.195 64.9512 113.195C64.4108 113.195 63.9323 113.101 63.5156 112.912C63.099 112.717 62.7734 112.401 62.5391 111.965C62.3047 111.529 62.1875 110.949 62.1875 110.227V99.8457ZM72.9004 113.195C72.1191 113.195 71.4128 113.068 70.7812 112.814C70.1562 112.554 69.6224 112.193 69.1797 111.73C68.7435 111.268 68.4082 110.725 68.1738 110.1C67.9395 109.475 67.8223 108.801 67.8223 108.078V107.688C67.8223 106.861 67.9427 106.112 68.1836 105.441C68.4245 104.771 68.7598 104.198 69.1895 103.723C69.6191 103.241 70.127 102.873 70.7129 102.619C71.2988 102.365 71.9336 102.238 72.6172 102.238C73.3724 102.238 74.0332 102.365 74.5996 102.619C75.166 102.873 75.6348 103.231 76.0059 103.693C76.3835 104.149 76.6634 104.693 76.8457 105.324C77.0345 105.956 77.1289 106.652 77.1289 107.414V108.42H68.9648V106.73H74.8047V106.545C74.7917 106.122 74.707 105.725 74.5508 105.354C74.401 104.982 74.1699 104.683 73.8574 104.455C73.5449 104.227 73.1283 104.113 72.6074 104.113C72.2168 104.113 71.8685 104.198 71.5625 104.367C71.263 104.53 71.0124 104.768 70.8105 105.08C70.6087 105.393 70.4525 105.77 70.3418 106.213C70.2376 106.649 70.1855 107.141 70.1855 107.688V108.078C70.1855 108.54 70.2474 108.97 70.3711 109.367C70.5013 109.758 70.6901 110.1 70.9375 110.393C71.1849 110.686 71.4844 110.917 71.8359 111.086C72.1875 111.249 72.5879 111.33 73.0371 111.33C73.6035 111.33 74.1081 111.216 74.5508 110.988C74.9935 110.76 75.3776 110.438 75.7031 110.021L76.9434 111.223C76.7155 111.555 76.4193 111.874 76.0547 112.18C75.6901 112.479 75.2441 112.723 74.7168 112.912C74.196 113.101 73.5905 113.195 72.9004 113.195ZM81.4844 98V113H79.1211V98H81.4844ZM88.7207 113.195C87.9395 113.195 87.2331 113.068 86.6016 112.814C85.9766 112.554 85.4427 112.193 85 111.73C84.5638 111.268 84.2285 110.725 83.9941 110.1C83.7598 109.475 83.6426 108.801 83.6426 108.078V107.688C83.6426 106.861 83.763 106.112 84.0039 105.441C84.2448 104.771 84.5801 104.198 85.0098 103.723C85.4395 103.241 85.9473 102.873 86.5332 102.619C87.1191 102.365 87.7539 102.238 88.4375 102.238C89.1927 102.238 89.8535 102.365 90.4199 102.619C90.9863 102.873 91.4551 103.231 91.8262 103.693C92.2038 104.149 92.4837 104.693 92.666 105.324C92.8548 105.956 92.9492 106.652 92.9492 107.414V108.42H84.7852V106.73H90.625V106.545C90.612 106.122 90.5273 105.725 90.3711 105.354C90.2214 104.982 89.9902 104.683 89.6777 104.455C89.3652 104.227 88.9486 104.113 88.4277 104.113C88.0371 104.113 87.6888 104.198 87.3828 104.367C87.0833 104.53 86.8327 104.768 86.6309 105.08C86.429 105.393 86.2728 105.77 86.1621 106.213C86.0579 106.649 86.0059 107.141 86.0059 107.688V108.078C86.0059 108.54 86.0677 108.97 86.1914 109.367C86.3216 109.758 86.5104 110.1 86.7578 110.393C87.0052 110.686 87.3047 110.917 87.6562 111.086C88.0078 111.249 88.4082 111.33 88.8574 111.33C89.4238 111.33 89.9284 111.216 90.3711 110.988C90.8138 110.76 91.1979 110.438 91.5234 110.021L92.7637 111.223C92.5358 111.555 92.2396 111.874 91.875 112.18C91.5104 112.479 91.0645 112.723 90.5371 112.912C90.0163 113.101 89.4108 113.195 88.7207 113.195ZM97.1094 98V113H94.7656V98H97.1094ZM96.6992 107.326L95.9375 107.316C95.944 106.587 96.0449 105.913 96.2402 105.295C96.4421 104.676 96.722 104.139 97.0801 103.684C97.4447 103.221 97.8809 102.867 98.3887 102.619C98.8965 102.365 99.4596 102.238 100.078 102.238C100.599 102.238 101.068 102.31 101.484 102.453C101.908 102.596 102.272 102.827 102.578 103.146C102.884 103.459 103.115 103.869 103.271 104.377C103.434 104.878 103.516 105.49 103.516 106.213V113H101.152V106.193C101.152 105.686 101.077 105.282 100.928 104.982C100.785 104.683 100.573 104.468 100.293 104.338C100.013 104.201 99.6712 104.133 99.2676 104.133C98.8444 104.133 98.4701 104.217 98.1445 104.387C97.8255 104.556 97.5586 104.787 97.3438 105.08C97.1289 105.373 96.9661 105.712 96.8555 106.096C96.7513 106.48 96.6992 106.89 96.6992 107.326ZM110.557 113.195C109.775 113.195 109.069 113.068 108.438 112.814C107.812 112.554 107.279 112.193 106.836 111.73C106.4 111.268 106.064 110.725 105.83 110.1C105.596 109.475 105.479 108.801 105.479 108.078V107.688C105.479 106.861 105.599 106.112 105.84 105.441C106.081 104.771 106.416 104.198 106.846 103.723C107.275 103.241 107.783 102.873 108.369 102.619C108.955 102.365 109.59 102.238 110.273 102.238C111.029 102.238 111.689 102.365 112.256 102.619C112.822 102.873 113.291 103.231 113.662 103.693C114.04 104.149 114.32 104.693 114.502 105.324C114.691 105.956 114.785 106.652 114.785 107.414V108.42H106.621V106.73H112.461V106.545C112.448 106.122 112.363 105.725 112.207 105.354C112.057 104.982 111.826 104.683 111.514 104.455C111.201 104.227 110.785 104.113 110.264 104.113C109.873 104.113 109.525 104.198 109.219 104.367C108.919 104.53 108.669 104.768 108.467 105.08C108.265 105.393 108.109 105.77 107.998 106.213C107.894 106.649 107.842 107.141 107.842 107.688V108.078C107.842 108.54 107.904 108.97 108.027 109.367C108.158 109.758 108.346 110.1 108.594 110.393C108.841 110.686 109.141 110.917 109.492 111.086C109.844 111.249 110.244 111.33 110.693 111.33C111.26 111.33 111.764 111.216 112.207 110.988C112.65 110.76 113.034 110.438 113.359 110.021L114.6 111.223C114.372 111.555 114.076 111.874 113.711 112.18C113.346 112.479 112.9 112.723 112.373 112.912C111.852 113.101 111.247 113.195 110.557 113.195ZM125.039 111.135L127.627 102.434H130.068L126.396 113H124.873L125.039 111.135ZM123.057 102.434L125.693 111.174L125.82 113H124.297L120.605 102.434H123.057ZM136.045 113.195C135.264 113.195 134.557 113.068 133.926 112.814C133.301 112.554 132.767 112.193 132.324 111.73C131.888 111.268 131.553 110.725 131.318 110.1C131.084 109.475 130.967 108.801 130.967 108.078V107.688C130.967 106.861 131.087 106.112 131.328 105.441C131.569 104.771 131.904 104.198 132.334 103.723C132.764 103.241 133.271 102.873 133.857 102.619C134.443 102.365 135.078 102.238 135.762 102.238C136.517 102.238 137.178 102.365 137.744 102.619C138.311 102.873 138.779 103.231 139.15 103.693C139.528 104.149 139.808 104.693 139.99 105.324C140.179 105.956 140.273 106.652 140.273 107.414V108.42H132.109V106.73H137.949V106.545C137.936 106.122 137.852 105.725 137.695 105.354C137.546 104.982 137.314 104.683 137.002 104.455C136.689 104.227 136.273 104.113 135.752 104.113C135.361 104.113 135.013 104.198 134.707 104.367C134.408 104.53 134.157 104.768 133.955 105.08C133.753 105.393 133.597 105.77 133.486 106.213C133.382 106.649 133.33 107.141 133.33 107.688V108.078C133.33 108.54 133.392 108.97 133.516 109.367C133.646 109.758 133.835 110.1 134.082 110.393C134.329 110.686 134.629 110.917 134.98 111.086C135.332 111.249 135.732 111.33 136.182 111.33C136.748 111.33 137.253 111.216 137.695 110.988C138.138 110.76 138.522 110.438 138.848 110.021L140.088 111.223C139.86 111.555 139.564 111.874 139.199 112.18C138.835 112.479 138.389 112.723 137.861 112.912C137.34 113.101 136.735 113.195 136.045 113.195ZM146.768 113.195C145.986 113.195 145.28 113.068 144.648 112.814C144.023 112.554 143.49 112.193 143.047 111.73C142.611 111.268 142.275 110.725 142.041 110.1C141.807 109.475 141.689 108.801 141.689 108.078V107.688C141.689 106.861 141.81 106.112 142.051 105.441C142.292 104.771 142.627 104.198 143.057 103.723C143.486 103.241 143.994 102.873 144.58 102.619C145.166 102.365 145.801 102.238 146.484 102.238C147.24 102.238 147.9 102.365 148.467 102.619C149.033 102.873 149.502 103.231 149.873 103.693C150.251 104.149 150.531 104.693 150.713 105.324C150.902 105.956 150.996 106.652 150.996 107.414V108.42H142.832V106.73H148.672V106.545C148.659 106.122 148.574 105.725 148.418 105.354C148.268 104.982 148.037 104.683 147.725 104.455C147.412 104.227 146.995 104.113 146.475 104.113C146.084 104.113 145.736 104.198 145.43 104.367C145.13 104.53 144.88 104.768 144.678 105.08C144.476 105.393 144.32 105.77 144.209 106.213C144.105 106.649 144.053 107.141 144.053 107.688V108.078C144.053 108.54 144.115 108.97 144.238 109.367C144.368 109.758 144.557 110.1 144.805 110.393C145.052 110.686 145.352 110.917 145.703 111.086C146.055 111.249 146.455 111.33 146.904 111.33C147.471 111.33 147.975 111.216 148.418 110.988C148.861 110.76 149.245 110.438 149.57 110.021L150.811 111.223C150.583 111.555 150.286 111.874 149.922 112.18C149.557 112.479 149.111 112.723 148.584 112.912C148.063 113.101 147.458 113.195 146.768 113.195ZM152.842 98H155.195V110.744L154.971 113H152.842V98ZM162.09 107.619V107.824C162.09 108.605 162.002 109.325 161.826 109.982C161.657 110.633 161.396 111.2 161.045 111.682C160.7 112.163 160.27 112.538 159.756 112.805C159.248 113.065 158.659 113.195 157.988 113.195C157.331 113.195 156.758 113.072 156.27 112.824C155.781 112.577 155.371 112.225 155.039 111.77C154.714 111.314 154.45 110.77 154.248 110.139C154.046 109.507 153.903 108.811 153.818 108.049V107.395C153.903 106.626 154.046 105.93 154.248 105.305C154.45 104.673 154.714 104.13 155.039 103.674C155.371 103.212 155.778 102.857 156.26 102.609C156.748 102.362 157.318 102.238 157.969 102.238C158.646 102.238 159.242 102.368 159.756 102.629C160.277 102.889 160.71 103.26 161.055 103.742C161.4 104.217 161.657 104.784 161.826 105.441C162.002 106.099 162.09 106.825 162.09 107.619ZM159.736 107.824V107.619C159.736 107.144 159.697 106.698 159.619 106.281C159.541 105.858 159.411 105.487 159.229 105.168C159.053 104.849 158.812 104.598 158.506 104.416C158.206 104.227 157.832 104.133 157.383 104.133C156.966 104.133 156.608 104.204 156.309 104.348C156.009 104.491 155.758 104.686 155.557 104.934C155.355 105.181 155.195 105.467 155.078 105.793C154.967 106.118 154.893 106.47 154.854 106.848V108.615C154.912 109.104 155.036 109.553 155.225 109.963C155.42 110.367 155.693 110.692 156.045 110.939C156.396 111.18 156.849 111.301 157.402 111.301C157.839 111.301 158.206 111.213 158.506 111.037C158.805 110.861 159.043 110.617 159.219 110.305C159.401 109.986 159.531 109.615 159.609 109.191C159.694 108.768 159.736 108.312 159.736 107.824ZM166.602 102.434V113H164.238V102.434H166.602ZM164.082 99.6602C164.082 99.3021 164.199 99.0059 164.434 98.7715C164.674 98.5306 165.007 98.4102 165.43 98.4102C165.846 98.4102 166.175 98.5306 166.416 98.7715C166.657 99.0059 166.777 99.3021 166.777 99.6602C166.777 100.012 166.657 100.305 166.416 100.539C166.175 100.773 165.846 100.891 165.43 100.891C165.007 100.891 164.674 100.773 164.434 100.539C164.199 100.305 164.082 100.012 164.082 99.6602ZM171.543 104.465V117.062H169.189V102.434H171.357L171.543 104.465ZM178.428 107.619V107.824C178.428 108.592 178.337 109.305 178.154 109.963C177.979 110.614 177.715 111.184 177.363 111.672C177.018 112.154 176.592 112.528 176.084 112.795C175.576 113.062 174.99 113.195 174.326 113.195C173.669 113.195 173.092 113.075 172.598 112.834C172.109 112.587 171.696 112.238 171.357 111.789C171.019 111.34 170.745 110.812 170.537 110.207C170.335 109.595 170.192 108.924 170.107 108.195V107.404C170.192 106.63 170.335 105.926 170.537 105.295C170.745 104.663 171.019 104.12 171.357 103.664C171.696 103.208 172.109 102.857 172.598 102.609C173.086 102.362 173.656 102.238 174.307 102.238C174.971 102.238 175.56 102.368 176.074 102.629C176.589 102.883 177.021 103.247 177.373 103.723C177.725 104.191 177.988 104.758 178.164 105.422C178.34 106.079 178.428 106.812 178.428 107.619ZM176.074 107.824V107.619C176.074 107.131 176.029 106.678 175.938 106.262C175.846 105.839 175.703 105.467 175.508 105.148C175.312 104.829 175.062 104.582 174.756 104.406C174.456 104.224 174.095 104.133 173.672 104.133C173.255 104.133 172.897 104.204 172.598 104.348C172.298 104.484 172.048 104.676 171.846 104.924C171.644 105.171 171.488 105.461 171.377 105.793C171.266 106.118 171.188 106.473 171.143 106.857V108.752C171.221 109.221 171.354 109.65 171.543 110.041C171.732 110.432 171.999 110.744 172.344 110.979C172.695 111.206 173.145 111.32 173.691 111.32C174.115 111.32 174.476 111.229 174.775 111.047C175.075 110.865 175.319 110.614 175.508 110.295C175.703 109.969 175.846 109.595 175.938 109.172C176.029 108.749 176.074 108.299 176.074 107.824ZM179.98 107.834V107.609C179.98 106.848 180.091 106.141 180.312 105.49C180.534 104.833 180.853 104.263 181.27 103.781C181.693 103.293 182.207 102.915 182.812 102.648C183.424 102.375 184.115 102.238 184.883 102.238C185.658 102.238 186.348 102.375 186.953 102.648C187.565 102.915 188.083 103.293 188.506 103.781C188.929 104.263 189.251 104.833 189.473 105.49C189.694 106.141 189.805 106.848 189.805 107.609V107.834C189.805 108.596 189.694 109.302 189.473 109.953C189.251 110.604 188.929 111.174 188.506 111.662C188.083 112.144 187.568 112.521 186.963 112.795C186.357 113.062 185.671 113.195 184.902 113.195C184.128 113.195 183.434 113.062 182.822 112.795C182.217 112.521 181.702 112.144 181.279 111.662C180.856 111.174 180.534 110.604 180.312 109.953C180.091 109.302 179.98 108.596 179.98 107.834ZM182.334 107.609V107.834C182.334 108.309 182.383 108.758 182.48 109.182C182.578 109.605 182.731 109.976 182.939 110.295C183.148 110.614 183.415 110.865 183.74 111.047C184.066 111.229 184.453 111.32 184.902 111.32C185.339 111.32 185.716 111.229 186.035 111.047C186.361 110.865 186.628 110.614 186.836 110.295C187.044 109.976 187.197 109.605 187.295 109.182C187.399 108.758 187.451 108.309 187.451 107.834V107.609C187.451 107.141 187.399 106.698 187.295 106.281C187.197 105.858 187.041 105.484 186.826 105.158C186.618 104.833 186.351 104.579 186.025 104.396C185.706 104.208 185.326 104.113 184.883 104.113C184.44 104.113 184.056 104.208 183.73 104.396C183.411 104.579 183.148 104.833 182.939 105.158C182.731 105.484 182.578 105.858 182.48 106.281C182.383 106.698 182.334 107.141 182.334 107.609ZM194.141 104.445V113H191.787V102.434H194.033L194.141 104.445ZM197.373 102.365L197.354 104.553C197.21 104.527 197.054 104.507 196.885 104.494C196.722 104.481 196.559 104.475 196.396 104.475C195.993 104.475 195.638 104.533 195.332 104.65C195.026 104.761 194.769 104.924 194.561 105.139C194.359 105.347 194.202 105.601 194.092 105.9C193.981 106.2 193.916 106.535 193.896 106.906L193.359 106.945C193.359 106.281 193.424 105.666 193.555 105.1C193.685 104.533 193.88 104.035 194.141 103.605C194.408 103.176 194.74 102.84 195.137 102.6C195.54 102.359 196.006 102.238 196.533 102.238C196.676 102.238 196.829 102.251 196.992 102.277C197.161 102.303 197.288 102.333 197.373 102.365ZM204.18 102.434V104.152H198.223V102.434H204.18ZM199.941 99.8457H202.295V110.08C202.295 110.406 202.34 110.656 202.432 110.832C202.529 111.001 202.663 111.115 202.832 111.174C203.001 111.232 203.2 111.262 203.428 111.262C203.59 111.262 203.747 111.252 203.896 111.232C204.046 111.213 204.167 111.193 204.258 111.174L204.268 112.971C204.072 113.029 203.844 113.081 203.584 113.127C203.33 113.173 203.037 113.195 202.705 113.195C202.165 113.195 201.686 113.101 201.27 112.912C200.853 112.717 200.527 112.401 200.293 111.965C200.059 111.529 199.941 110.949 199.941 110.227V99.8457ZM211.953 110.881V105.842C211.953 105.464 211.885 105.139 211.748 104.865C211.611 104.592 211.403 104.38 211.123 104.23C210.85 104.081 210.505 104.006 210.088 104.006C209.704 104.006 209.372 104.071 209.092 104.201C208.812 104.331 208.594 104.507 208.438 104.729C208.281 104.95 208.203 105.201 208.203 105.48H205.859C205.859 105.064 205.96 104.66 206.162 104.27C206.364 103.879 206.657 103.531 207.041 103.225C207.425 102.919 207.884 102.678 208.418 102.502C208.952 102.326 209.551 102.238 210.215 102.238C211.009 102.238 211.712 102.372 212.324 102.639C212.943 102.906 213.428 103.309 213.779 103.85C214.137 104.383 214.316 105.054 214.316 105.861V110.559C214.316 111.04 214.349 111.473 214.414 111.857C214.486 112.235 214.587 112.564 214.717 112.844V113H212.305C212.194 112.746 212.106 112.424 212.041 112.033C211.982 111.636 211.953 111.252 211.953 110.881ZM212.295 106.574L212.314 108.029H210.625C210.189 108.029 209.805 108.072 209.473 108.156C209.141 108.234 208.864 108.352 208.643 108.508C208.421 108.664 208.255 108.853 208.145 109.074C208.034 109.296 207.979 109.546 207.979 109.826C207.979 110.106 208.044 110.363 208.174 110.598C208.304 110.826 208.493 111.005 208.74 111.135C208.994 111.265 209.3 111.33 209.658 111.33C210.14 111.33 210.56 111.232 210.918 111.037C211.283 110.835 211.569 110.591 211.777 110.305C211.986 110.012 212.096 109.735 212.109 109.475L212.871 110.52C212.793 110.786 212.66 111.073 212.471 111.379C212.282 111.685 212.035 111.978 211.729 112.258C211.429 112.531 211.068 112.756 210.645 112.932C210.228 113.107 209.746 113.195 209.199 113.195C208.509 113.195 207.894 113.059 207.354 112.785C206.813 112.505 206.39 112.131 206.084 111.662C205.778 111.187 205.625 110.65 205.625 110.051C205.625 109.491 205.729 108.996 205.938 108.566C206.152 108.13 206.465 107.766 206.875 107.473C207.292 107.18 207.799 106.958 208.398 106.809C208.997 106.652 209.681 106.574 210.449 106.574H212.295ZM222.734 110.881V105.842C222.734 105.464 222.666 105.139 222.529 104.865C222.393 104.592 222.184 104.38 221.904 104.23C221.631 104.081 221.286 104.006 220.869 104.006C220.485 104.006 220.153 104.071 219.873 104.201C219.593 104.331 219.375 104.507 219.219 104.729C219.062 104.95 218.984 105.201 218.984 105.48H216.641C216.641 105.064 216.742 104.66 216.943 104.27C217.145 103.879 217.438 103.531 217.822 103.225C218.206 102.919 218.665 102.678 219.199 102.502C219.733 102.326 220.332 102.238 220.996 102.238C221.79 102.238 222.493 102.372 223.105 102.639C223.724 102.906 224.209 103.309 224.561 103.85C224.919 104.383 225.098 105.054 225.098 105.861V110.559C225.098 111.04 225.13 111.473 225.195 111.857C225.267 112.235 225.368 112.564 225.498 112.844V113H223.086C222.975 112.746 222.887 112.424 222.822 112.033C222.764 111.636 222.734 111.252 222.734 110.881ZM223.076 106.574L223.096 108.029H221.406C220.97 108.029 220.586 108.072 220.254 108.156C219.922 108.234 219.645 108.352 219.424 108.508C219.202 108.664 219.036 108.853 218.926 109.074C218.815 109.296 218.76 109.546 218.76 109.826C218.76 110.106 218.825 110.363 218.955 110.598C219.085 110.826 219.274 111.005 219.521 111.135C219.775 111.265 220.081 111.33 220.439 111.33C220.921 111.33 221.341 111.232 221.699 111.037C222.064 110.835 222.35 110.591 222.559 110.305C222.767 110.012 222.878 109.735 222.891 109.475L223.652 110.52C223.574 110.786 223.441 111.073 223.252 111.379C223.063 111.685 222.816 111.978 222.51 112.258C222.21 112.531 221.849 112.756 221.426 112.932C221.009 113.107 220.527 113.195 219.98 113.195C219.29 113.195 218.675 113.059 218.135 112.785C217.594 112.505 217.171 112.131 216.865 111.662C216.559 111.187 216.406 110.65 216.406 110.051C216.406 109.491 216.51 108.996 216.719 108.566C216.934 108.13 217.246 107.766 217.656 107.473C218.073 107.18 218.581 106.958 219.18 106.809C219.779 106.652 220.462 106.574 221.23 106.574H223.076ZM230.078 98V113H227.715V98H230.078ZM27.168 135.881V130.842C27.168 130.464 27.0996 130.139 26.9629 129.865C26.8262 129.592 26.6178 129.38 26.3379 129.23C26.0645 129.081 25.7194 129.006 25.3027 129.006C24.9186 129.006 24.5866 129.071 24.3066 129.201C24.0267 129.331 23.8086 129.507 23.6523 129.729C23.4961 129.95 23.418 130.201 23.418 130.48H21.0742C21.0742 130.064 21.1751 129.66 21.377 129.27C21.5788 128.879 21.8717 128.531 22.2559 128.225C22.64 127.919 23.099 127.678 23.6328 127.502C24.1667 127.326 24.7656 127.238 25.4297 127.238C26.224 127.238 26.9271 127.372 27.5391 127.639C28.1576 127.906 28.6426 128.309 28.9941 128.85C29.3522 129.383 29.5312 130.054 29.5312 130.861V135.559C29.5312 136.04 29.5638 136.473 29.6289 136.857C29.7005 137.235 29.8014 137.564 29.9316 137.844V138H27.5195C27.4089 137.746 27.321 137.424 27.2559 137.033C27.1973 136.636 27.168 136.252 27.168 135.881ZM27.5098 131.574L27.5293 133.029H25.8398C25.4036 133.029 25.0195 133.072 24.6875 133.156C24.3555 133.234 24.0788 133.352 23.8574 133.508C23.6361 133.664 23.4701 133.853 23.3594 134.074C23.2487 134.296 23.1934 134.546 23.1934 134.826C23.1934 135.106 23.2585 135.363 23.3887 135.598C23.5189 135.826 23.7077 136.005 23.9551 136.135C24.209 136.265 24.515 136.33 24.873 136.33C25.3548 136.33 25.7747 136.232 26.1328 136.037C26.4974 135.835 26.7839 135.591 26.9922 135.305C27.2005 135.012 27.3112 134.735 27.3242 134.475L28.0859 135.52C28.0078 135.786 27.8743 136.073 27.6855 136.379C27.4967 136.685 27.2493 136.978 26.9434 137.258C26.6439 137.531 26.2826 137.756 25.8594 137.932C25.4427 138.107 24.9609 138.195 24.4141 138.195C23.724 138.195 23.1087 138.059 22.5684 137.785C22.028 137.505 21.6048 137.131 21.2988 136.662C20.9928 136.187 20.8398 135.65 20.8398 135.051C20.8398 134.491 20.944 133.996 21.1523 133.566C21.3672 133.13 21.6797 132.766 22.0898 132.473C22.5065 132.18 23.0143 131.958 23.6133 131.809C24.2122 131.652 24.8958 131.574 25.6641 131.574H27.5098ZM34.5117 127.434V138H32.1484V127.434H34.5117ZM31.9922 124.66C31.9922 124.302 32.1094 124.006 32.3438 123.771C32.5846 123.531 32.9167 123.41 33.3398 123.41C33.7565 123.41 34.0853 123.531 34.3262 123.771C34.5671 124.006 34.6875 124.302 34.6875 124.66C34.6875 125.012 34.5671 125.305 34.3262 125.539C34.0853 125.773 33.7565 125.891 33.3398 125.891C32.9167 125.891 32.5846 125.773 32.3438 125.539C32.1094 125.305 31.9922 125.012 31.9922 124.66ZM41.9336 127.434V129.152H35.9766V127.434H41.9336ZM37.6953 124.846H40.0488V135.08C40.0488 135.406 40.0944 135.656 40.1855 135.832C40.2832 136.001 40.4167 136.115 40.5859 136.174C40.7552 136.232 40.9538 136.262 41.1816 136.262C41.3444 136.262 41.5007 136.252 41.6504 136.232C41.8001 136.213 41.9206 136.193 42.0117 136.174L42.0215 137.971C41.8262 138.029 41.5983 138.081 41.3379 138.127C41.084 138.173 40.791 138.195 40.459 138.195C39.9186 138.195 39.4401 138.101 39.0234 137.912C38.6068 137.717 38.2812 137.401 38.0469 136.965C37.8125 136.529 37.6953 135.949 37.6953 135.227V124.846ZM49.707 135.881V130.842C49.707 130.464 49.6387 130.139 49.502 129.865C49.3652 129.592 49.1569 129.38 48.877 129.23C48.6035 129.081 48.2585 129.006 47.8418 129.006C47.4577 129.006 47.1257 129.071 46.8457 129.201C46.5658 129.331 46.3477 129.507 46.1914 129.729C46.0352 129.95 45.957 130.201 45.957 130.48H43.6133C43.6133 130.064 43.7142 129.66 43.916 129.27C44.1178 128.879 44.4108 128.531 44.7949 128.225C45.179 127.919 45.638 127.678 46.1719 127.502C46.7057 127.326 47.3047 127.238 47.9688 127.238C48.763 127.238 49.4661 127.372 50.0781 127.639C50.6966 127.906 51.1816 128.309 51.5332 128.85C51.8913 129.383 52.0703 130.054 52.0703 130.861V135.559C52.0703 136.04 52.1029 136.473 52.168 136.857C52.2396 137.235 52.3405 137.564 52.4707 137.844V138H50.0586C49.9479 137.746 49.86 137.424 49.7949 137.033C49.7363 136.636 49.707 136.252 49.707 135.881ZM50.0488 131.574L50.0684 133.029H48.3789C47.9427 133.029 47.5586 133.072 47.2266 133.156C46.8945 133.234 46.6178 133.352 46.3965 133.508C46.1751 133.664 46.0091 133.853 45.8984 134.074C45.7878 134.296 45.7324 134.546 45.7324 134.826C45.7324 135.106 45.7975 135.363 45.9277 135.598C46.0579 135.826 46.2467 136.005 46.4941 136.135C46.748 136.265 47.054 136.33 47.4121 136.33C47.8939 136.33 48.3138 136.232 48.6719 136.037C49.0365 135.835 49.3229 135.591 49.5312 135.305C49.7396 135.012 49.8503 134.735 49.8633 134.475L50.625 135.52C50.5469 135.786 50.4134 136.073 50.2246 136.379C50.0358 136.685 49.7884 136.978 49.4824 137.258C49.1829 137.531 48.8216 137.756 48.3984 137.932C47.9818 138.107 47.5 138.195 46.9531 138.195C46.263 138.195 45.6478 138.059 45.1074 137.785C44.5671 137.505 44.1439 137.131 43.8379 136.662C43.5319 136.187 43.3789 135.65 43.3789 135.051C43.3789 134.491 43.4831 133.996 43.6914 133.566C43.9062 133.13 44.2188 132.766 44.6289 132.473C45.0456 132.18 45.5534 131.958 46.1523 131.809C46.7513 131.652 47.4349 131.574 48.2031 131.574H50.0488ZM54.541 123H56.8945V135.744L56.6699 138H54.541V123ZM63.7891 132.619V132.824C63.7891 133.605 63.7012 134.325 63.5254 134.982C63.3561 135.633 63.0957 136.2 62.7441 136.682C62.3991 137.163 61.9694 137.538 61.4551 137.805C60.9473 138.065 60.3581 138.195 59.6875 138.195C59.0299 138.195 58.457 138.072 57.9688 137.824C57.4805 137.577 57.0703 137.225 56.7383 136.77C56.4128 136.314 56.1491 135.77 55.9473 135.139C55.7454 134.507 55.6022 133.811 55.5176 133.049V132.395C55.6022 131.626 55.7454 130.93 55.9473 130.305C56.1491 129.673 56.4128 129.13 56.7383 128.674C57.0703 128.212 57.4772 127.857 57.959 127.609C58.4473 127.362 59.0169 127.238 59.668 127.238C60.3451 127.238 60.9408 127.368 61.4551 127.629C61.9759 127.889 62.4089 128.26 62.7539 128.742C63.099 129.217 63.3561 129.784 63.5254 130.441C63.7012 131.099 63.7891 131.825 63.7891 132.619ZM61.4355 132.824V132.619C61.4355 132.144 61.3965 131.698 61.3184 131.281C61.2402 130.858 61.11 130.487 60.9277 130.168C60.752 129.849 60.5111 129.598 60.2051 129.416C59.9056 129.227 59.5312 129.133 59.082 129.133C58.6654 129.133 58.3073 129.204 58.0078 129.348C57.7083 129.491 57.4577 129.686 57.2559 129.934C57.054 130.181 56.8945 130.467 56.7773 130.793C56.6667 131.118 56.5918 131.47 56.5527 131.848V133.615C56.6113 134.104 56.735 134.553 56.9238 134.963C57.1191 135.367 57.3926 135.692 57.7441 135.939C58.0957 136.18 58.5482 136.301 59.1016 136.301C59.5378 136.301 59.9056 136.213 60.2051 136.037C60.5046 135.861 60.7422 135.617 60.918 135.305C61.1003 134.986 61.2305 134.615 61.3086 134.191C61.3932 133.768 61.4355 133.312 61.4355 132.824ZM75.6055 127.434V129.152H69.6484V127.434H75.6055ZM71.3672 124.846H73.7207V135.08C73.7207 135.406 73.7663 135.656 73.8574 135.832C73.9551 136.001 74.0885 136.115 74.2578 136.174C74.4271 136.232 74.6257 136.262 74.8535 136.262C75.0163 136.262 75.1725 136.252 75.3223 136.232C75.472 136.213 75.5924 136.193 75.6836 136.174L75.6934 137.971C75.498 138.029 75.2702 138.081 75.0098 138.127C74.7559 138.173 74.4629 138.195 74.1309 138.195C73.5905 138.195 73.112 138.101 72.6953 137.912C72.2786 137.717 71.9531 137.401 71.7188 136.965C71.4844 136.529 71.3672 135.949 71.3672 135.227V124.846ZM82.0801 138.195C81.2988 138.195 80.5924 138.068 79.9609 137.814C79.3359 137.554 78.8021 137.193 78.3594 136.73C77.9232 136.268 77.5879 135.725 77.3535 135.1C77.1191 134.475 77.002 133.801 77.002 133.078V132.688C77.002 131.861 77.1224 131.112 77.3633 130.441C77.6042 129.771 77.9395 129.198 78.3691 128.723C78.7988 128.241 79.3066 127.873 79.8926 127.619C80.4785 127.365 81.1133 127.238 81.7969 127.238C82.5521 127.238 83.2129 127.365 83.7793 127.619C84.3457 127.873 84.8145 128.231 85.1855 128.693C85.5632 129.149 85.8431 129.693 86.0254 130.324C86.2142 130.956 86.3086 131.652 86.3086 132.414V133.42H78.1445V131.73H83.9844V131.545C83.9714 131.122 83.8867 130.725 83.7305 130.354C83.5807 129.982 83.3496 129.683 83.0371 129.455C82.7246 129.227 82.3079 129.113 81.7871 129.113C81.3965 129.113 81.0482 129.198 80.7422 129.367C80.4427 129.53 80.1921 129.768 79.9902 130.08C79.7884 130.393 79.6322 130.77 79.5215 131.213C79.4173 131.649 79.3652 132.141 79.3652 132.688V133.078C79.3652 133.54 79.4271 133.97 79.5508 134.367C79.681 134.758 79.8698 135.1 80.1172 135.393C80.3646 135.686 80.6641 135.917 81.0156 136.086C81.3672 136.249 81.7676 136.33 82.2168 136.33C82.7832 136.33 83.2878 136.216 83.7305 135.988C84.1732 135.76 84.5573 135.438 84.8828 135.021L86.123 136.223C85.8952 136.555 85.599 136.874 85.2344 137.18C84.8698 137.479 84.4238 137.723 83.8965 137.912C83.3757 138.101 82.7702 138.195 82.0801 138.195ZM90.4688 123V138H88.125V123H90.4688ZM90.0586 132.326L89.2969 132.316C89.3034 131.587 89.4043 130.913 89.5996 130.295C89.8014 129.676 90.0814 129.139 90.4395 128.684C90.804 128.221 91.2402 127.867 91.748 127.619C92.2559 127.365 92.819 127.238 93.4375 127.238C93.9583 127.238 94.4271 127.31 94.8438 127.453C95.2669 127.596 95.6315 127.827 95.9375 128.146C96.2435 128.459 96.4746 128.869 96.6309 129.377C96.7936 129.878 96.875 130.49 96.875 131.213V138H94.5117V131.193C94.5117 130.686 94.4368 130.282 94.2871 129.982C94.1439 129.683 93.9323 129.468 93.6523 129.338C93.3724 129.201 93.0306 129.133 92.627 129.133C92.2038 129.133 91.8294 129.217 91.5039 129.387C91.1849 129.556 90.918 129.787 90.7031 130.08C90.4883 130.373 90.3255 130.712 90.2148 131.096C90.1107 131.48 90.0586 131.89 90.0586 132.326ZM105.215 135.881V130.842C105.215 130.464 105.146 130.139 105.01 129.865C104.873 129.592 104.665 129.38 104.385 129.23C104.111 129.081 103.766 129.006 103.35 129.006C102.965 129.006 102.633 129.071 102.354 129.201C102.074 129.331 101.855 129.507 101.699 129.729C101.543 129.95 101.465 130.201 101.465 130.48H99.1211C99.1211 130.064 99.222 129.66 99.4238 129.27C99.6257 128.879 99.9186 128.531 100.303 128.225C100.687 127.919 101.146 127.678 101.68 127.502C102.214 127.326 102.812 127.238 103.477 127.238C104.271 127.238 104.974 127.372 105.586 127.639C106.204 127.906 106.689 128.309 107.041 128.85C107.399 129.383 107.578 130.054 107.578 130.861V135.559C107.578 136.04 107.611 136.473 107.676 136.857C107.747 137.235 107.848 137.564 107.979 137.844V138H105.566C105.456 137.746 105.368 137.424 105.303 137.033C105.244 136.636 105.215 136.252 105.215 135.881ZM105.557 131.574L105.576 133.029H103.887C103.451 133.029 103.066 133.072 102.734 133.156C102.402 133.234 102.126 133.352 101.904 133.508C101.683 133.664 101.517 133.853 101.406 134.074C101.296 134.296 101.24 134.546 101.24 134.826C101.24 135.106 101.305 135.363 101.436 135.598C101.566 135.826 101.755 136.005 102.002 136.135C102.256 136.265 102.562 136.33 102.92 136.33C103.402 136.33 103.822 136.232 104.18 136.037C104.544 135.835 104.831 135.591 105.039 135.305C105.247 135.012 105.358 134.735 105.371 134.475L106.133 135.52C106.055 135.786 105.921 136.073 105.732 136.379C105.544 136.685 105.296 136.978 104.99 137.258C104.691 137.531 104.329 137.756 103.906 137.932C103.49 138.107 103.008 138.195 102.461 138.195C101.771 138.195 101.156 138.059 100.615 137.785C100.075 137.505 99.6517 137.131 99.3457 136.662C99.0397 136.187 98.8867 135.65 98.8867 135.051C98.8867 134.491 98.9909 133.996 99.1992 133.566C99.4141 133.13 99.7266 132.766 100.137 132.473C100.553 132.18 101.061 131.958 101.66 131.809C102.259 131.652 102.943 131.574 103.711 131.574H105.557ZM120.947 135.139C120.947 134.904 120.889 134.693 120.771 134.504C120.654 134.309 120.43 134.133 120.098 133.977C119.772 133.82 119.29 133.677 118.652 133.547C118.092 133.423 117.578 133.277 117.109 133.107C116.647 132.932 116.25 132.72 115.918 132.473C115.586 132.225 115.329 131.932 115.146 131.594C114.964 131.255 114.873 130.865 114.873 130.422C114.873 129.992 114.967 129.585 115.156 129.201C115.345 128.817 115.615 128.479 115.967 128.186C116.318 127.893 116.745 127.661 117.246 127.492C117.754 127.323 118.32 127.238 118.945 127.238C119.831 127.238 120.589 127.388 121.221 127.688C121.859 127.98 122.347 128.381 122.686 128.889C123.024 129.39 123.193 129.956 123.193 130.588H120.84C120.84 130.308 120.768 130.048 120.625 129.807C120.488 129.559 120.28 129.361 120 129.211C119.72 129.055 119.368 128.977 118.945 128.977C118.542 128.977 118.206 129.042 117.939 129.172C117.679 129.296 117.484 129.458 117.354 129.66C117.23 129.862 117.168 130.083 117.168 130.324C117.168 130.5 117.201 130.66 117.266 130.803C117.337 130.939 117.454 131.066 117.617 131.184C117.78 131.294 118.001 131.398 118.281 131.496C118.568 131.594 118.926 131.688 119.355 131.779C120.163 131.949 120.856 132.167 121.436 132.434C122.021 132.694 122.471 133.033 122.783 133.449C123.096 133.859 123.252 134.38 123.252 135.012C123.252 135.48 123.151 135.91 122.949 136.301C122.754 136.685 122.467 137.02 122.09 137.307C121.712 137.587 121.26 137.805 120.732 137.961C120.212 138.117 119.626 138.195 118.975 138.195C118.018 138.195 117.207 138.026 116.543 137.688C115.879 137.342 115.374 136.903 115.029 136.369C114.691 135.829 114.521 135.269 114.521 134.689H116.797C116.823 135.126 116.943 135.474 117.158 135.734C117.38 135.988 117.653 136.174 117.979 136.291C118.311 136.402 118.652 136.457 119.004 136.457C119.427 136.457 119.782 136.402 120.068 136.291C120.355 136.174 120.573 136.018 120.723 135.822C120.872 135.62 120.947 135.393 120.947 135.139ZM130.156 127.434V129.152H124.199V127.434H130.156ZM125.918 124.846H128.271V135.08C128.271 135.406 128.317 135.656 128.408 135.832C128.506 136.001 128.639 136.115 128.809 136.174C128.978 136.232 129.176 136.262 129.404 136.262C129.567 136.262 129.723 136.252 129.873 136.232C130.023 136.213 130.143 136.193 130.234 136.174L130.244 137.971C130.049 138.029 129.821 138.081 129.561 138.127C129.307 138.173 129.014 138.195 128.682 138.195C128.141 138.195 127.663 138.101 127.246 137.912C126.829 137.717 126.504 137.401 126.27 136.965C126.035 136.529 125.918 135.949 125.918 135.227V124.846ZM134.492 127.434V138H132.129V127.434H134.492ZM131.973 124.66C131.973 124.302 132.09 124.006 132.324 123.771C132.565 123.531 132.897 123.41 133.32 123.41C133.737 123.41 134.066 123.531 134.307 123.771C134.548 124.006 134.668 124.302 134.668 124.66C134.668 125.012 134.548 125.305 134.307 125.539C134.066 125.773 133.737 125.891 133.32 125.891C132.897 125.891 132.565 125.773 132.324 125.539C132.09 125.305 131.973 125.012 131.973 124.66ZM139.59 127.434V138H137.227V127.434H139.59ZM137.07 124.66C137.07 124.302 137.188 124.006 137.422 123.771C137.663 123.531 137.995 123.41 138.418 123.41C138.835 123.41 139.163 123.531 139.404 123.771C139.645 124.006 139.766 124.302 139.766 124.66C139.766 125.012 139.645 125.305 139.404 125.539C139.163 125.773 138.835 125.891 138.418 125.891C137.995 125.891 137.663 125.773 137.422 125.539C137.188 125.305 137.07 125.012 137.07 124.66ZM144.688 123V138H142.324V123H144.688ZM153.193 135.139C153.193 134.904 153.135 134.693 153.018 134.504C152.9 134.309 152.676 134.133 152.344 133.977C152.018 133.82 151.536 133.677 150.898 133.547C150.339 133.423 149.824 133.277 149.355 133.107C148.893 132.932 148.496 132.72 148.164 132.473C147.832 132.225 147.575 131.932 147.393 131.594C147.21 131.255 147.119 130.865 147.119 130.422C147.119 129.992 147.214 129.585 147.402 129.201C147.591 128.817 147.861 128.479 148.213 128.186C148.564 127.893 148.991 127.661 149.492 127.492C150 127.323 150.566 127.238 151.191 127.238C152.077 127.238 152.835 127.388 153.467 127.688C154.105 127.98 154.593 128.381 154.932 128.889C155.27 129.39 155.439 129.956 155.439 130.588H153.086C153.086 130.308 153.014 130.048 152.871 129.807C152.734 129.559 152.526 129.361 152.246 129.211C151.966 129.055 151.615 128.977 151.191 128.977C150.788 128.977 150.452 129.042 150.186 129.172C149.925 129.296 149.73 129.458 149.6 129.66C149.476 129.862 149.414 130.083 149.414 130.324C149.414 130.5 149.447 130.66 149.512 130.803C149.583 130.939 149.701 131.066 149.863 131.184C150.026 131.294 150.247 131.398 150.527 131.496C150.814 131.594 151.172 131.688 151.602 131.779C152.409 131.949 153.102 132.167 153.682 132.434C154.268 132.694 154.717 133.033 155.029 133.449C155.342 133.859 155.498 134.38 155.498 135.012C155.498 135.48 155.397 135.91 155.195 136.301C155 136.685 154.714 137.02 154.336 137.307C153.958 137.587 153.506 137.805 152.979 137.961C152.458 138.117 151.872 138.195 151.221 138.195C150.264 138.195 149.453 138.026 148.789 137.688C148.125 137.342 147.62 136.903 147.275 136.369C146.937 135.829 146.768 135.269 146.768 134.689H149.043C149.069 135.126 149.189 135.474 149.404 135.734C149.626 135.988 149.899 136.174 150.225 136.291C150.557 136.402 150.898 136.457 151.25 136.457C151.673 136.457 152.028 136.402 152.314 136.291C152.601 136.174 152.819 136.018 152.969 135.822C153.118 135.62 153.193 135.393 153.193 135.139ZM162.217 138.195C161.436 138.195 160.729 138.068 160.098 137.814C159.473 137.554 158.939 137.193 158.496 136.73C158.06 136.268 157.725 135.725 157.49 135.1C157.256 134.475 157.139 133.801 157.139 133.078V132.688C157.139 131.861 157.259 131.112 157.5 130.441C157.741 129.771 158.076 129.198 158.506 128.723C158.936 128.241 159.443 127.873 160.029 127.619C160.615 127.365 161.25 127.238 161.934 127.238C162.689 127.238 163.35 127.365 163.916 127.619C164.482 127.873 164.951 128.231 165.322 128.693C165.7 129.149 165.98 129.693 166.162 130.324C166.351 130.956 166.445 131.652 166.445 132.414V133.42H158.281V131.73H164.121V131.545C164.108 131.122 164.023 130.725 163.867 130.354C163.717 129.982 163.486 129.683 163.174 129.455C162.861 129.227 162.445 129.113 161.924 129.113C161.533 129.113 161.185 129.198 160.879 129.367C160.579 129.53 160.329 129.768 160.127 130.08C159.925 130.393 159.769 130.77 159.658 131.213C159.554 131.649 159.502 132.141 159.502 132.688V133.078C159.502 133.54 159.564 133.97 159.688 134.367C159.818 134.758 160.007 135.1 160.254 135.393C160.501 135.686 160.801 135.917 161.152 136.086C161.504 136.249 161.904 136.33 162.354 136.33C162.92 136.33 163.424 136.216 163.867 135.988C164.31 135.76 164.694 135.438 165.02 135.021L166.26 136.223C166.032 136.555 165.736 136.874 165.371 137.18C165.007 137.479 164.561 137.723 164.033 137.912C163.512 138.101 162.907 138.195 162.217 138.195ZM170.801 127.434V138H168.438V127.434H170.801ZM168.281 124.66C168.281 124.302 168.398 124.006 168.633 123.771C168.874 123.531 169.206 123.41 169.629 123.41C170.046 123.41 170.374 123.531 170.615 123.771C170.856 124.006 170.977 124.302 170.977 124.66C170.977 125.012 170.856 125.305 170.615 125.539C170.374 125.773 170.046 125.891 169.629 125.891C169.206 125.891 168.874 125.773 168.633 125.539C168.398 125.305 168.281 125.012 168.281 124.66ZM179.824 135.812V123H182.188V138H180.049L179.824 135.812ZM172.949 132.834V132.629C172.949 131.828 173.044 131.099 173.232 130.441C173.421 129.777 173.695 129.208 174.053 128.732C174.411 128.251 174.847 127.883 175.361 127.629C175.876 127.368 176.455 127.238 177.1 127.238C177.738 127.238 178.298 127.362 178.779 127.609C179.261 127.857 179.671 128.212 180.01 128.674C180.348 129.13 180.618 129.676 180.82 130.314C181.022 130.946 181.165 131.649 181.25 132.424V133.078C181.165 133.833 181.022 134.523 180.82 135.148C180.618 135.773 180.348 136.314 180.01 136.77C179.671 137.225 179.258 137.577 178.77 137.824C178.288 138.072 177.725 138.195 177.08 138.195C176.442 138.195 175.866 138.062 175.352 137.795C174.844 137.528 174.411 137.154 174.053 136.672C173.695 136.19 173.421 135.624 173.232 134.973C173.044 134.315 172.949 133.602 172.949 132.834ZM175.303 132.629V132.834C175.303 133.316 175.345 133.765 175.43 134.182C175.521 134.598 175.661 134.966 175.85 135.285C176.038 135.598 176.283 135.845 176.582 136.027C176.888 136.203 177.253 136.291 177.676 136.291C178.21 136.291 178.649 136.174 178.994 135.939C179.339 135.705 179.609 135.389 179.805 134.992C180.007 134.589 180.143 134.139 180.215 133.645V131.877C180.176 131.493 180.094 131.135 179.971 130.803C179.854 130.471 179.694 130.181 179.492 129.934C179.29 129.68 179.04 129.484 178.74 129.348C178.447 129.204 178.099 129.133 177.695 129.133C177.266 129.133 176.901 129.224 176.602 129.406C176.302 129.589 176.055 129.839 175.859 130.158C175.671 130.477 175.531 130.848 175.439 131.271C175.348 131.695 175.303 132.147 175.303 132.629ZM193.066 136.135L195.654 127.434H198.096L194.424 138H192.9L193.066 136.135ZM191.084 127.434L193.721 136.174L193.848 138H192.324L188.633 127.434H191.084ZM205.352 135.881V130.842C205.352 130.464 205.283 130.139 205.146 129.865C205.01 129.592 204.801 129.38 204.521 129.23C204.248 129.081 203.903 129.006 203.486 129.006C203.102 129.006 202.77 129.071 202.49 129.201C202.21 129.331 201.992 129.507 201.836 129.729C201.68 129.95 201.602 130.201 201.602 130.48H199.258C199.258 130.064 199.359 129.66 199.561 129.27C199.762 128.879 200.055 128.531 200.439 128.225C200.824 127.919 201.283 127.678 201.816 127.502C202.35 127.326 202.949 127.238 203.613 127.238C204.408 127.238 205.111 127.372 205.723 127.639C206.341 127.906 206.826 128.309 207.178 128.85C207.536 129.383 207.715 130.054 207.715 130.861V135.559C207.715 136.04 207.747 136.473 207.812 136.857C207.884 137.235 207.985 137.564 208.115 137.844V138H205.703C205.592 137.746 205.505 137.424 205.439 137.033C205.381 136.636 205.352 136.252 205.352 135.881ZM205.693 131.574L205.713 133.029H204.023C203.587 133.029 203.203 133.072 202.871 133.156C202.539 133.234 202.262 133.352 202.041 133.508C201.82 133.664 201.654 133.853 201.543 134.074C201.432 134.296 201.377 134.546 201.377 134.826C201.377 135.106 201.442 135.363 201.572 135.598C201.702 135.826 201.891 136.005 202.139 136.135C202.393 136.265 202.699 136.33 203.057 136.33C203.538 136.33 203.958 136.232 204.316 136.037C204.681 135.835 204.967 135.591 205.176 135.305C205.384 135.012 205.495 134.735 205.508 134.475L206.27 135.52C206.191 135.786 206.058 136.073 205.869 136.379C205.68 136.685 205.433 136.978 205.127 137.258C204.827 137.531 204.466 137.756 204.043 137.932C203.626 138.107 203.145 138.195 202.598 138.195C201.908 138.195 201.292 138.059 200.752 137.785C200.212 137.505 199.788 137.131 199.482 136.662C199.176 136.187 199.023 135.65 199.023 135.051C199.023 134.491 199.128 133.996 199.336 133.566C199.551 133.13 199.863 132.766 200.273 132.473C200.69 132.18 201.198 131.958 201.797 131.809C202.396 131.652 203.079 131.574 203.848 131.574H205.693ZM212.695 123V138H210.332V123H212.695ZM217.793 127.434V138H215.43V127.434H217.793ZM215.273 124.66C215.273 124.302 215.391 124.006 215.625 123.771C215.866 123.531 216.198 123.41 216.621 123.41C217.038 123.41 217.367 123.531 217.607 123.771C217.848 124.006 217.969 124.302 217.969 124.66C217.969 125.012 217.848 125.305 217.607 125.539C217.367 125.773 217.038 125.891 216.621 125.891C216.198 125.891 215.866 125.773 215.625 125.539C215.391 125.305 215.273 125.012 215.273 124.66ZM222.744 123V138H220.381V123H222.744ZM229.307 127.434L224.707 132.531L222.188 135.109L221.572 133.117L223.477 130.764L226.465 127.434H229.307ZM226.973 138L223.545 133.039L225.029 131.389L229.697 138H226.973ZM237.158 135.51V127.434H239.521V138H237.295L237.158 135.51ZM237.49 133.312L238.281 133.293C238.281 134.003 238.203 134.657 238.047 135.256C237.891 135.848 237.65 136.366 237.324 136.809C236.999 137.245 236.582 137.587 236.074 137.834C235.566 138.075 234.958 138.195 234.248 138.195C233.734 138.195 233.262 138.12 232.832 137.971C232.402 137.821 232.031 137.59 231.719 137.277C231.413 136.965 231.175 136.558 231.006 136.057C230.837 135.555 230.752 134.956 230.752 134.26V127.434H233.105V134.279C233.105 134.663 233.151 134.986 233.242 135.246C233.333 135.5 233.457 135.705 233.613 135.861C233.77 136.018 233.952 136.128 234.16 136.193C234.368 136.258 234.59 136.291 234.824 136.291C235.495 136.291 236.022 136.161 236.406 135.9C236.797 135.633 237.074 135.275 237.236 134.826C237.406 134.377 237.49 133.872 237.49 133.312ZM244.453 127.434V138H242.09V127.434H244.453ZM241.934 124.66C241.934 124.302 242.051 124.006 242.285 123.771C242.526 123.531 242.858 123.41 243.281 123.41C243.698 123.41 244.027 123.531 244.268 123.771C244.508 124.006 244.629 124.302 244.629 124.66C244.629 125.012 244.508 125.305 244.268 125.539C244.027 125.773 243.698 125.891 243.281 125.891C242.858 125.891 242.526 125.773 242.285 125.539C242.051 125.305 241.934 125.012 241.934 124.66ZM253.477 135.812V123H255.84V138H253.701L253.477 135.812ZM246.602 132.834V132.629C246.602 131.828 246.696 131.099 246.885 130.441C247.074 129.777 247.347 129.208 247.705 128.732C248.063 128.251 248.499 127.883 249.014 127.629C249.528 127.368 250.107 127.238 250.752 127.238C251.39 127.238 251.95 127.362 252.432 127.609C252.913 127.857 253.324 128.212 253.662 128.674C254.001 129.13 254.271 129.676 254.473 130.314C254.674 130.946 254.818 131.649 254.902 132.424V133.078C254.818 133.833 254.674 134.523 254.473 135.148C254.271 135.773 254.001 136.314 253.662 136.77C253.324 137.225 252.91 137.577 252.422 137.824C251.94 138.072 251.377 138.195 250.732 138.195C250.094 138.195 249.518 138.062 249.004 137.795C248.496 137.528 248.063 137.154 247.705 136.672C247.347 136.19 247.074 135.624 246.885 134.973C246.696 134.315 246.602 133.602 246.602 132.834ZM248.955 132.629V132.834C248.955 133.316 248.997 133.765 249.082 134.182C249.173 134.598 249.313 134.966 249.502 135.285C249.691 135.598 249.935 135.845 250.234 136.027C250.54 136.203 250.905 136.291 251.328 136.291C251.862 136.291 252.301 136.174 252.646 135.939C252.992 135.705 253.262 135.389 253.457 134.992C253.659 134.589 253.796 134.139 253.867 133.645V131.877C253.828 131.493 253.747 131.135 253.623 130.803C253.506 130.471 253.346 130.181 253.145 129.934C252.943 129.68 252.692 129.484 252.393 129.348C252.1 129.204 251.751 129.133 251.348 129.133C250.918 129.133 250.553 129.224 250.254 129.406C249.954 129.589 249.707 129.839 249.512 130.158C249.323 130.477 249.183 130.848 249.092 131.271C249.001 131.695 248.955 132.147 248.955 132.629ZM258.398 136.828C258.398 136.464 258.522 136.158 258.77 135.91C259.017 135.656 259.352 135.529 259.775 135.529C260.205 135.529 260.54 135.656 260.781 135.91C261.029 136.158 261.152 136.464 261.152 136.828C261.152 137.193 261.029 137.499 260.781 137.746C260.54 137.993 260.205 138.117 259.775 138.117C259.352 138.117 259.017 137.993 258.77 137.746C258.522 137.499 258.398 137.193 258.398 136.828Z" fill="#461102"/>
<path d="M31.328 191.024C33.568 191.024 35.504 191.44 37.136 192.272C38.768 193.072 40 194.176 40.832 195.584C41.696 196.96 42.128 198.496 42.128 200.192C42.128 201.952 41.744 203.648 40.976 205.28C40.24 206.912 38.96 208.752 37.136 210.8C35.344 212.848 32.72 215.488 29.264 218.72H42.848L42.08 224H21.488V219.056C25.52 215.024 28.432 212.016 30.224 210.032C32.016 208.048 33.28 206.368 34.016 204.992C34.752 203.616 35.12 202.208 35.12 200.768C35.12 199.392 34.72 198.304 33.92 197.504C33.12 196.704 32.048 196.304 30.704 196.304C29.52 196.304 28.464 196.576 27.536 197.12C26.608 197.632 25.632 198.496 24.608 199.712L20.528 196.448C23.28 192.832 26.88 191.024 31.328 191.024ZM67.9933 213.296C68.4413 215.504 69.2573 217.12 70.4413 218.144C71.6573 219.168 73.2733 219.68 75.2893 219.68C77.4333 219.68 79.7373 219.008 82.2013 217.664V222.944C80.8893 223.552 79.6413 224 78.4573 224.288C77.2733 224.608 75.9773 224.768 74.5693 224.768C70.9533 224.768 67.9773 223.776 65.6413 221.792C63.3373 219.776 61.8173 216.944 61.0813 213.296H56.9053L57.8652 209.6H60.8893V206H56.9053L57.8652 202.256H61.1293C62.0253 198.768 63.6893 196.032 66.1213 194.048C68.5853 192.032 71.4813 191.024 74.8093 191.024C78.1373 191.024 81.1453 191.936 83.8333 193.76L81.3853 197.984C80.3613 197.312 79.3533 196.832 78.3613 196.544C77.3693 196.224 76.2653 196.064 75.0493 196.064C73.3853 196.064 71.9613 196.576 70.7773 197.6C69.5933 198.624 68.7133 200.176 68.1373 202.256H79.8973L78.9373 206H67.8013V209.6H78.1693L77.2573 213.296H67.9933Z" fill="#E3000F"/>
<path d="M107.654 212.469V214.5H98.0254V212.762L102.645 207.771C103.126 207.225 103.507 206.749 103.787 206.346C104.067 205.942 104.266 205.577 104.383 205.252C104.507 204.92 104.568 204.604 104.568 204.305C104.568 203.868 104.49 203.488 104.334 203.162C104.178 202.83 103.95 202.573 103.65 202.391C103.357 202.208 102.996 202.117 102.566 202.117C102.091 202.117 101.684 202.228 101.346 202.449C101.014 202.664 100.76 202.964 100.584 203.348C100.415 203.732 100.33 204.171 100.33 204.666H97.7422C97.7422 203.826 97.9375 203.061 98.3281 202.371C98.7188 201.674 99.2786 201.118 100.008 200.701C100.737 200.285 101.603 200.076 102.605 200.076C103.582 200.076 104.409 200.239 105.086 200.564C105.763 200.883 106.277 201.339 106.629 201.932C106.98 202.524 107.156 203.23 107.156 204.051C107.156 204.507 107.081 204.956 106.932 205.398C106.782 205.841 106.57 206.281 106.297 206.717C106.03 207.146 105.711 207.583 105.34 208.025C104.969 208.468 104.555 208.921 104.1 209.383L101.326 212.469H107.654ZM117.146 199.49V214.5H114.568V199.49H117.146ZM123.768 203.934L119.168 209.1L116.678 211.629L115.857 209.627L117.781 207.205L120.652 203.934H123.768ZM121.131 214.5L117.859 209.578L119.578 207.908L124.119 214.5H121.131ZM131.424 211.99V203.934H134.021V214.5H131.58L131.424 211.99ZM131.756 209.803L132.557 209.783C132.557 210.493 132.479 211.147 132.322 211.746C132.166 212.345 131.922 212.866 131.59 213.309C131.264 213.745 130.851 214.087 130.35 214.334C129.848 214.575 129.256 214.695 128.572 214.695C128.051 214.695 127.576 214.624 127.146 214.48C126.717 214.331 126.346 214.1 126.033 213.787C125.727 213.468 125.49 213.061 125.32 212.566C125.151 212.065 125.066 211.463 125.066 210.76V203.934H127.645V210.779C127.645 211.131 127.684 211.424 127.762 211.658C127.846 211.893 127.96 212.085 128.104 212.234C128.253 212.378 128.426 212.482 128.621 212.547C128.823 212.605 129.038 212.635 129.266 212.635C129.891 212.635 130.382 212.511 130.74 212.264C131.105 212.01 131.365 211.671 131.521 211.248C131.678 210.818 131.756 210.337 131.756 209.803ZM142.596 211.99V203.934H145.193V214.5H142.752L142.596 211.99ZM142.928 209.803L143.729 209.783C143.729 210.493 143.65 211.147 143.494 211.746C143.338 212.345 143.094 212.866 142.762 213.309C142.436 213.745 142.023 214.087 141.521 214.334C141.02 214.575 140.428 214.695 139.744 214.695C139.223 214.695 138.748 214.624 138.318 214.48C137.889 214.331 137.518 214.1 137.205 213.787C136.899 213.468 136.661 213.061 136.492 212.566C136.323 212.065 136.238 211.463 136.238 210.76V203.934H138.816V210.779C138.816 211.131 138.855 211.424 138.934 211.658C139.018 211.893 139.132 212.085 139.275 212.234C139.425 212.378 139.598 212.482 139.793 212.547C139.995 212.605 140.21 212.635 140.438 212.635C141.062 212.635 141.554 212.511 141.912 212.264C142.277 212.01 142.537 211.671 142.693 211.248C142.85 210.818 142.928 210.337 142.928 209.803ZM153.816 212.254V199.5H156.414V214.5H154.07L153.816 212.254ZM147.029 209.344V209.139C147.029 208.331 147.12 207.599 147.303 206.941C147.492 206.277 147.765 205.708 148.123 205.232C148.481 204.757 148.914 204.389 149.422 204.129C149.936 203.868 150.519 203.738 151.17 203.738C151.801 203.738 152.352 203.865 152.82 204.119C153.296 204.373 153.699 204.734 154.031 205.203C154.37 205.672 154.64 206.229 154.842 206.873C155.044 207.511 155.19 208.214 155.281 208.982V209.539C155.19 210.288 155.044 210.975 154.842 211.6C154.64 212.225 154.37 212.771 154.031 213.24C153.699 213.702 153.296 214.061 152.82 214.314C152.345 214.568 151.788 214.695 151.15 214.695C150.506 214.695 149.926 214.562 149.412 214.295C148.904 214.028 148.471 213.654 148.113 213.172C147.762 212.69 147.492 212.124 147.303 211.473C147.12 210.822 147.029 210.112 147.029 209.344ZM149.617 209.139V209.344C149.617 209.799 149.656 210.226 149.734 210.623C149.812 211.02 149.939 211.372 150.115 211.678C150.291 211.977 150.516 212.212 150.789 212.381C151.069 212.55 151.408 212.635 151.805 212.635C152.312 212.635 152.729 212.524 153.055 212.303C153.387 212.075 153.644 211.766 153.826 211.375C154.008 210.978 154.126 210.532 154.178 210.037V208.504C154.152 208.113 154.083 207.752 153.973 207.42C153.868 207.088 153.719 206.801 153.523 206.561C153.335 206.32 153.1 206.131 152.82 205.994C152.54 205.857 152.208 205.789 151.824 205.789C151.427 205.789 151.089 205.877 150.809 206.053C150.529 206.222 150.301 206.46 150.125 206.766C149.949 207.072 149.819 207.426 149.734 207.83C149.656 208.234 149.617 208.67 149.617 209.139Z" fill="#461102"/>
<rect x="20" y="240" width="198" height="40" rx="10" fill="#E3000F"/>
<path d="M50.78 253.14L50.46 255.66H47.04V267H43.76V255.66H40.18V253.14H50.78ZM60.6008 253.14L60.2608 255.48H55.3808V258.8H59.6408V261.1H55.3808V264.64H60.6008V267H52.1008V253.14H60.6008ZM65.9081 253.14V264.4H71.3081L70.9681 267H62.6281V253.14H65.9081ZM76.162 253.14V264.4H81.562L81.222 267H72.882V253.14H76.162ZM86.4159 253.14V267H83.1359V253.14H86.4159ZM97.6014 253.14C99.7747 253.14 101.515 253.633 102.821 254.62C104.141 255.593 104.801 257.387 104.801 260C104.801 262.573 104.161 264.387 102.881 265.44C101.601 266.48 99.9414 267 97.9014 267H93.7414V253.14H97.6014ZM97.0214 255.52V264.62H98.1014C99.1814 264.62 100.001 264.287 100.561 263.62C101.121 262.94 101.401 261.733 101.401 260C101.401 258.813 101.261 257.893 100.981 257.24C100.701 256.587 100.321 256.14 99.8414 255.9C99.3614 255.647 98.7681 255.52 98.0614 255.52H97.0214ZM110.049 253.14V267H106.769V253.14H110.049ZM118.628 252.8C120.415 252.8 121.955 253.367 123.248 254.5L121.588 256.24C121.095 255.867 120.635 255.6 120.208 255.44C119.795 255.267 119.315 255.18 118.768 255.18C117.741 255.18 116.921 255.587 116.308 256.4C115.695 257.2 115.388 258.42 115.388 260.06C115.388 261.833 115.621 263.093 116.088 263.84C116.555 264.573 117.281 264.94 118.268 264.94C118.961 264.94 119.588 264.787 120.148 264.48V261.34H118.348L118.028 259.02H123.328V265.88C122.608 266.347 121.815 266.707 120.948 266.96C120.081 267.213 119.215 267.34 118.348 267.34C116.241 267.34 114.655 266.727 113.588 265.5C112.521 264.26 111.988 262.447 111.988 260.06C111.988 258.54 112.275 257.233 112.848 256.14C113.435 255.047 114.228 254.22 115.228 253.66C116.241 253.087 117.375 252.8 118.628 252.8ZM128.799 253.14V267H125.519V253.14H128.799ZM135.858 253.14C137.685 253.14 139.105 253.52 140.118 254.28C141.131 255.04 141.638 256.167 141.638 257.66C141.638 259.22 141.138 260.4 140.138 261.2C139.151 261.987 137.825 262.38 136.158 262.38H134.658V267H131.378V253.14H135.858ZM135.878 260.02C136.651 260.02 137.238 259.84 137.638 259.48C138.051 259.107 138.258 258.5 138.258 257.66C138.258 256.207 137.445 255.48 135.818 255.48H134.658V260.02H135.878ZM149.479 267L148.759 264.02H144.719L144.019 267H140.619L144.799 253.14H148.779L152.959 267H149.479ZM145.279 261.64H148.199L146.739 255.52L145.279 261.64ZM157.256 253.14V267H153.976V253.14H157.256ZM165.216 253.14L160.796 259.36L165.576 267H161.776L157.356 259.6L161.756 253.14H165.216ZM175.132 253.14L174.792 255.48H169.912V258.8H174.172V261.1H169.912V264.64H175.132V267H166.632V253.14H175.132ZM186.639 253.14L186.319 255.66H182.899V267H179.619V255.66H176.039V253.14H186.639ZM197.44 253.14L197.12 255.66H193.7V267H190.42V255.66H186.84V253.14H197.44Z" fill="#FFE80D"/>
</svg>
