<svg width="350" height="100" viewBox="0 0 350 100" fill="none" xmlns="http://www.w3.org/2000/svg">
<rect width="350" height="100" fill="#330B6A"/>
<path d="M41.9369 27.4313V24.7864H57.6968V27.4313H51.3431V45.15H48.2806V27.4313H41.9369ZM64.9583 45.4583C63.4536 45.4583 62.1576 45.1368 61.0705 44.4938C59.99 43.8442 59.1548 42.9327 58.5648 41.7594C57.9815 40.5795 57.6898 39.1974 57.6898 37.6131C57.6898 36.0487 57.9815 34.6699 58.5648 33.4767C59.1548 32.2835 59.9768 31.3522 61.0308 30.6827C62.0914 30.0132 63.3309 29.6784 64.7495 29.6784C65.6112 29.6784 66.4465 29.821 67.2552 30.106C68.0639 30.391 68.7897 30.8385 69.4327 31.4483C70.0757 32.0582 70.5828 32.8503 70.954 33.8247C71.3253 34.7925 71.5109 35.9692 71.5109 37.3546V38.4085H59.3702V36.1813H68.5975C68.5975 35.3991 68.4384 34.7064 68.1202 34.1031C67.8021 33.4933 67.3546 33.0127 66.7779 32.6614C66.2078 32.3101 65.5383 32.1344 64.7694 32.1344C63.9342 32.1344 63.205 32.3399 62.5819 32.7509C61.9654 33.1552 61.4881 33.6855 61.1501 34.3418C60.8186 34.9914 60.6529 35.6974 60.6529 36.4597V38.1997C60.6529 39.2206 60.8319 40.0889 61.1898 40.8049C61.5544 41.5208 62.0615 42.0676 62.7111 42.4455C63.3608 42.8167 64.1198 43.0023 64.9881 43.0023C65.5516 43.0023 66.0653 42.9228 66.5293 42.7637C66.9933 42.5979 67.3944 42.3527 67.7325 42.0279C68.0705 41.7031 68.329 41.302 68.508 40.8247L71.3219 41.3318C71.0966 42.1604 70.6922 42.8863 70.1089 43.5094C69.5322 44.1259 68.8063 44.6065 67.9313 44.9512C67.0629 45.2892 66.0719 45.4583 64.9583 45.4583ZM81.0419 45.4583C79.5372 45.4583 78.2412 45.1368 77.1541 44.4938C76.0736 43.8442 75.2384 42.9327 74.6484 41.7594C74.0651 40.5795 73.7734 39.1974 73.7734 37.6131C73.7734 36.0487 74.0651 34.6699 74.6484 33.4767C75.2384 32.2835 76.0604 31.3522 77.1143 30.6827C78.1749 30.0132 79.4145 29.6784 80.8331 29.6784C81.6948 29.6784 82.5301 29.821 83.3388 30.106C84.1475 30.391 84.8733 30.8385 85.5163 31.4483C86.1593 32.0582 86.6664 32.8503 87.0376 33.8247C87.4089 34.7925 87.5945 35.9692 87.5945 37.3546V38.4085H75.4538V36.1813H84.6811C84.6811 35.3991 84.522 34.7064 84.2038 34.1031C83.8856 33.4933 83.4382 33.0127 82.8615 32.6614C82.2914 32.3101 81.6219 32.1344 80.853 32.1344C80.0178 32.1344 79.2886 32.3399 78.6655 32.7509C78.049 33.1552 77.5717 33.6855 77.2337 34.3418C76.9022 34.9914 76.7365 35.6974 76.7365 36.4597V38.1997C76.7365 39.2206 76.9155 40.0889 77.2734 40.8049C77.638 41.5208 78.1451 42.0676 78.7947 42.4455C79.4444 42.8167 80.2034 43.0023 81.0717 43.0023C81.6352 43.0023 82.1489 42.9228 82.6129 42.7637C83.0769 42.5979 83.478 42.3527 83.816 42.0279C84.1541 41.7031 84.4126 41.302 84.5916 40.8247L87.4055 41.3318C87.1802 42.1604 86.7758 42.8863 86.1925 43.5094C85.6158 44.1259 84.8899 44.6065 84.0149 44.9512C83.1465 45.2892 82.1555 45.4583 81.0419 45.4583ZM104.037 45.4583C102.605 45.4583 101.355 45.1301 100.288 44.4739C99.2207 43.8176 98.3921 42.8996 97.8021 41.7196C97.2122 40.5397 96.9172 39.1609 96.9172 37.5833C96.9172 35.999 97.2122 34.6136 97.8021 33.427C98.3921 32.2405 99.2207 31.3191 100.288 30.6628C101.355 30.0066 102.605 29.6784 104.037 29.6784C105.468 29.6784 106.718 30.0066 107.785 30.6628C108.852 31.3191 109.681 32.2405 110.271 33.427C110.861 34.6136 111.156 35.999 111.156 37.5833C111.156 39.1609 110.861 40.5397 110.271 41.7196C109.681 42.8996 108.852 43.8176 107.785 44.4739C106.718 45.1301 105.468 45.4583 104.037 45.4583ZM104.046 42.9625C104.974 42.9625 105.743 42.7173 106.353 42.2267C106.963 41.7362 107.414 41.0833 107.706 40.2679C108.004 39.4526 108.153 38.5544 108.153 37.5733C108.153 36.5989 108.004 35.704 107.706 34.8887C107.414 34.0667 106.963 33.4071 106.353 32.91C105.743 32.4128 104.974 32.1642 104.046 32.1642C103.112 32.1642 102.336 32.4128 101.72 32.91C101.11 33.4071 100.656 34.0667 100.358 34.8887C100.066 35.704 99.92 36.5989 99.92 37.5733C99.92 38.5544 100.066 39.4526 100.358 40.2679C100.656 41.0833 101.11 41.7362 101.72 42.2267C102.336 42.7173 103.112 42.9625 104.046 42.9625ZM114.124 45.15V29.8773H116.978V32.3631H117.167C117.485 31.5212 118.006 30.865 118.728 30.3943C119.451 29.9171 120.316 29.6784 121.323 29.6784C122.344 29.6784 123.199 29.9171 123.889 30.3943C124.585 30.8716 125.098 31.5279 125.43 32.3631H125.589C125.953 31.5478 126.533 30.8981 127.329 30.4142C128.124 29.9237 129.072 29.6784 130.173 29.6784C131.558 29.6784 132.688 30.1126 133.563 30.981C134.445 31.8494 134.886 33.1585 134.886 34.9085V45.15H131.913V35.187C131.913 34.1529 131.631 33.4038 131.068 32.9398C130.504 32.4758 129.831 32.2438 129.049 32.2438C128.081 32.2438 127.329 32.5421 126.792 33.1387C126.255 33.7286 125.987 34.4876 125.987 35.4156V45.15H123.024V34.998C123.024 34.1694 122.765 33.5032 122.248 32.9995C121.731 32.4957 121.058 32.2438 120.229 32.2438C119.666 32.2438 119.146 32.3929 118.668 32.6912C118.198 32.9829 117.817 33.3906 117.525 33.9142C117.24 34.4379 117.097 35.0444 117.097 35.7338V45.15H114.124ZM142.965 45.4881C141.997 45.4881 141.122 45.3091 140.34 44.9512C139.558 44.5866 138.938 44.0596 138.481 43.3702C138.03 42.6808 137.805 41.8356 137.805 40.8347C137.805 39.9729 137.97 39.2637 138.302 38.7068C138.633 38.15 139.081 37.7092 139.644 37.3844C140.207 37.0596 140.837 36.8143 141.533 36.6486C142.229 36.4829 142.939 36.3569 143.661 36.2708C144.576 36.1647 145.318 36.0785 145.888 36.0122C146.458 35.9393 146.873 35.8233 147.131 35.6642C147.39 35.5051 147.519 35.2466 147.519 34.8887V34.8191C147.519 33.9507 147.274 33.2779 146.783 32.8006C146.299 32.3233 145.577 32.0847 144.616 32.0847C143.615 32.0847 142.826 32.3067 142.249 32.7509C141.679 33.1884 141.285 33.6756 141.066 34.2125L138.272 33.5762C138.603 32.6481 139.087 31.8991 139.724 31.329C140.367 30.7523 141.106 30.3347 141.941 30.0762C142.776 29.811 143.654 29.6784 144.576 29.6784C145.186 29.6784 145.832 29.7514 146.515 29.8972C147.204 30.0364 147.847 30.2949 148.444 30.6728C149.047 31.0506 149.541 31.5908 149.925 32.2935C150.31 32.9895 150.502 33.8943 150.502 35.008V45.15H147.599V43.062H147.479C147.287 43.4464 146.999 43.8243 146.614 44.1955C146.23 44.5667 145.736 44.8749 145.133 45.1202C144.529 45.3655 143.807 45.4881 142.965 45.4881ZM143.611 43.1017C144.433 43.1017 145.136 42.9393 145.719 42.6145C146.309 42.2897 146.757 41.8655 147.062 41.3418C147.373 40.8115 147.529 40.2447 147.529 39.6415V37.6728C147.423 37.7788 147.217 37.8782 146.912 37.971C146.614 38.0572 146.273 38.1335 145.888 38.1997C145.504 38.2594 145.129 38.3157 144.765 38.3688C144.4 38.4152 144.095 38.4549 143.85 38.4881C143.273 38.561 142.746 38.6836 142.269 38.856C141.798 39.0283 141.421 39.2769 141.136 39.6017C140.857 39.9199 140.718 40.3442 140.718 40.8745C140.718 41.6103 140.99 42.1671 141.533 42.5449C142.077 42.9161 142.77 43.1017 143.611 43.1017ZM167.754 45.4583C166.25 45.4583 164.954 45.1368 163.867 44.4938C162.786 43.8442 161.951 42.9327 161.361 41.7594C160.778 40.5795 160.486 39.1974 160.486 37.6131C160.486 36.0487 160.778 34.6699 161.361 33.4767C161.951 32.2835 162.773 31.3522 163.827 30.6827C164.887 30.0132 166.127 29.6784 167.546 29.6784C168.407 29.6784 169.243 29.821 170.051 30.106C170.86 30.391 171.586 30.8385 172.229 31.4483C172.872 32.0582 173.379 32.8503 173.75 33.8247C174.121 34.7925 174.307 35.9692 174.307 37.3546V38.4085H162.166V36.1813H171.394C171.394 35.3991 171.235 34.7064 170.916 34.1031C170.598 33.4933 170.151 33.0127 169.574 32.6614C169.004 32.3101 168.334 32.1344 167.565 32.1344C166.73 32.1344 166.001 32.3399 165.378 32.7509C164.761 33.1552 164.284 33.6855 163.946 34.3418C163.615 34.9914 163.449 35.6974 163.449 36.4597V38.1997C163.449 39.2206 163.628 40.0889 163.986 40.8049C164.351 41.5208 164.858 42.0676 165.507 42.4455C166.157 42.8167 166.916 43.0023 167.784 43.0023C168.348 43.0023 168.861 42.9228 169.325 42.7637C169.789 42.5979 170.19 42.3527 170.529 42.0279C170.867 41.7031 171.125 41.302 171.304 40.8247L174.118 41.3318C173.893 42.1604 173.488 42.8863 172.905 43.5094C172.328 44.1259 171.602 44.6065 170.727 44.9512C169.859 45.2892 168.868 45.4583 167.754 45.4583ZM180.229 36.0818V45.15H177.256V29.8773H180.109V32.3631H180.298C180.65 31.5544 181.2 30.9048 181.949 30.4142C182.704 29.9237 183.656 29.6784 184.802 29.6784C185.843 29.6784 186.755 29.8972 187.537 30.3347C188.319 30.7656 188.926 31.4085 189.356 32.2637C189.787 33.1188 190.003 34.1761 190.003 35.4355V45.15H187.03V35.7935C187.03 34.6865 186.741 33.8214 186.165 33.1983C185.588 32.5686 184.796 32.2537 183.788 32.2537C183.099 32.2537 182.486 32.4029 181.949 32.7012C181.418 32.9995 180.998 33.437 180.686 34.0137C180.381 34.5837 180.229 35.2731 180.229 36.0818ZM196.613 36.0818V45.15H193.64V29.8773H196.494V32.3631H196.683C197.034 31.5544 197.584 30.9048 198.333 30.4142C199.089 29.9237 200.04 29.6784 201.187 29.6784C202.228 29.6784 203.139 29.8972 203.921 30.3347C204.703 30.7656 205.31 31.4085 205.741 32.2637C206.172 33.1188 206.387 34.1761 206.387 35.4355V45.15H203.414V35.7935C203.414 34.6865 203.126 33.8214 202.549 33.1983C201.972 32.5686 201.18 32.2537 200.173 32.2537C199.483 32.2537 198.87 32.4029 198.333 32.7012C197.803 32.9995 197.382 33.437 197.07 34.0137C196.765 34.5837 196.613 35.2731 196.613 36.0818ZM219.699 38.8162V29.8773H222.682V45.15H219.759V42.5051H219.6C219.248 43.3205 218.685 43.9999 217.909 44.5435C217.14 45.0804 216.182 45.3489 215.036 45.3489C214.055 45.3489 213.186 45.1335 212.431 44.7026C211.682 44.2651 211.092 43.6188 210.661 42.7637C210.236 41.9085 210.024 40.8513 210.024 39.5918V29.8773H212.997V39.2338C212.997 40.2746 213.286 41.1031 213.862 41.7196C214.439 42.3361 215.188 42.6443 216.11 42.6443C216.666 42.6443 217.22 42.5051 217.77 42.2267C218.327 41.9483 218.788 41.5274 219.152 40.9639C219.523 40.4005 219.706 39.6846 219.699 38.8162ZM237.771 33.606L235.077 34.0833C234.964 33.7386 234.785 33.4104 234.54 33.0989C234.301 32.7873 233.976 32.5321 233.565 32.3333C233.154 32.1344 232.641 32.035 232.024 32.035C231.182 32.035 230.48 32.2239 229.916 32.6017C229.353 32.9729 229.071 33.4535 229.071 34.0435C229.071 34.5539 229.26 34.9649 229.638 35.2764C230.016 35.588 230.625 35.8432 231.467 36.0421L233.893 36.5989C235.299 36.9237 236.346 37.4242 237.036 38.1003C237.725 38.7764 238.07 39.6548 238.07 40.7353C238.07 41.65 237.804 42.4654 237.274 43.1813C236.75 43.8906 236.018 44.4474 235.077 44.8517C234.142 45.2561 233.058 45.4583 231.825 45.4583C230.115 45.4583 228.72 45.0937 227.639 44.3645C226.559 43.6287 225.896 42.5847 225.651 41.2324L228.524 40.7949C228.703 41.544 229.071 42.1107 229.628 42.4952C230.185 42.873 230.911 43.062 231.805 43.062C232.78 43.062 233.559 42.8598 234.142 42.4554C234.725 42.0444 235.017 41.544 235.017 40.954C235.017 40.4767 234.838 40.0757 234.48 39.7509C234.129 39.4261 233.589 39.1808 232.859 39.0151L230.274 38.4483C228.849 38.1235 227.795 37.6065 227.112 36.8972C226.436 36.1879 226.098 35.2897 226.098 34.2026C226.098 33.3011 226.35 32.5122 226.854 31.8361C227.357 31.16 228.054 30.633 228.942 30.2551C229.83 29.8707 230.848 29.6784 231.994 29.6784C233.645 29.6784 234.944 30.0364 235.892 30.7523C236.84 31.4616 237.466 32.4128 237.771 33.606ZM248.118 29.8773V32.2637H239.775V29.8773H248.118ZM242.013 26.2182H244.986V40.6656C244.986 41.2424 245.072 41.6765 245.244 41.9682C245.416 42.2532 245.639 42.4488 245.91 42.5549C246.189 42.6543 246.49 42.704 246.815 42.704C247.054 42.704 247.263 42.6874 247.442 42.6543C247.621 42.6211 247.76 42.5946 247.859 42.5747L248.396 45.0307C248.224 45.097 247.978 45.1633 247.66 45.2296C247.342 45.3025 246.944 45.3423 246.467 45.3489C245.685 45.3621 244.956 45.2229 244.28 44.9313C243.603 44.6396 243.057 44.1889 242.639 43.579C242.221 42.9692 242.013 42.2035 242.013 41.2821V26.2182ZM260.731 38.8162V29.8773H263.714V45.15H260.791V42.5051H260.632C260.28 43.3205 259.717 43.9999 258.941 44.5435C258.172 45.0804 257.215 45.3489 256.068 45.3489C255.087 45.3489 254.218 45.1335 253.463 44.7026C252.714 44.2651 252.124 43.6188 251.693 42.7637C251.269 41.9085 251.056 40.8513 251.056 39.5918V29.8773H254.029V39.2338C254.029 40.2746 254.318 41.1031 254.894 41.7196C255.471 42.3361 256.22 42.6443 257.142 42.6443C257.698 42.6443 258.252 42.5051 258.802 42.2267C259.359 41.9483 259.82 41.5274 260.184 40.9639C260.555 40.4005 260.738 39.6846 260.731 38.8162ZM278.803 33.606L276.109 34.0833C275.996 33.7386 275.817 33.4104 275.572 33.0989C275.333 32.7873 275.008 32.5321 274.597 32.3333C274.186 32.1344 273.673 32.035 273.056 32.035C272.214 32.035 271.512 32.2239 270.948 32.6017C270.385 32.9729 270.103 33.4535 270.103 34.0435C270.103 34.5539 270.292 34.9649 270.67 35.2764C271.048 35.588 271.658 35.8432 272.499 36.0421L274.925 36.5989C276.331 36.9237 277.378 37.4242 278.068 38.1003C278.757 38.7764 279.102 39.6548 279.102 40.7353C279.102 41.65 278.836 42.4654 278.306 43.1813C277.783 43.8906 277.05 44.4474 276.109 44.8517C275.174 45.2561 274.09 45.4583 272.857 45.4583C271.147 45.4583 269.752 45.0937 268.671 44.3645C267.591 43.6287 266.928 42.5847 266.683 41.2324L269.556 40.7949C269.735 41.544 270.103 42.1107 270.66 42.4952C271.217 42.873 271.943 43.062 272.837 43.062C273.812 43.062 274.591 42.8598 275.174 42.4554C275.757 42.0444 276.049 41.544 276.049 40.954C276.049 40.4767 275.87 40.0757 275.512 39.7509C275.161 39.4261 274.621 39.1808 273.891 39.0151L271.306 38.4483C269.881 38.1235 268.827 37.6065 268.144 36.8972C267.468 36.1879 267.13 35.2897 267.13 34.2026C267.13 33.3011 267.382 32.5122 267.886 31.8361C268.39 31.16 269.086 30.633 269.974 30.2551C270.862 29.8707 271.88 29.6784 273.026 29.6784C274.677 29.6784 275.976 30.0364 276.924 30.7523C277.872 31.4616 278.498 32.4128 278.803 33.606ZM289.081 29.8773H292.054V46.1443C292.054 47.1652 291.868 48.0269 291.497 48.7296C291.132 49.4322 290.589 49.9658 289.866 50.3304C289.15 50.695 288.265 50.8773 287.211 50.8773C287.105 50.8773 287.006 50.8773 286.913 50.8773C286.814 50.8773 286.711 50.874 286.605 50.8674V48.312C286.698 48.312 286.78 48.312 286.853 48.312C286.92 48.312 286.996 48.312 287.082 48.312C287.785 48.312 288.292 48.123 288.603 47.7452C288.922 47.374 289.081 46.8337 289.081 46.1245V29.8773ZM290.552 27.5208C290.035 27.5208 289.591 27.3484 289.22 27.0037C288.855 26.6524 288.673 26.2348 288.673 25.7509C288.673 25.2603 288.855 24.8427 289.22 24.498C289.591 24.1467 290.035 23.971 290.552 23.971C291.069 23.971 291.51 24.1467 291.875 24.498C292.246 24.8427 292.431 25.2603 292.431 25.7509C292.431 26.2348 292.246 26.6524 291.875 27.0037C291.51 27.3484 291.069 27.5208 290.552 27.5208ZM300.148 45.4881C299.18 45.4881 298.305 45.3091 297.523 44.9512C296.741 44.5866 296.121 44.0596 295.663 43.3702C295.213 42.6808 294.987 41.8356 294.987 40.8347C294.987 39.9729 295.153 39.2637 295.485 38.7068C295.816 38.15 296.263 37.7092 296.827 37.3844C297.39 37.0596 298.02 36.8143 298.716 36.6486C299.412 36.4829 300.121 36.3569 300.844 36.2708C301.759 36.1647 302.501 36.0785 303.071 36.0122C303.641 35.9393 304.056 35.8233 304.314 35.6642C304.573 35.5051 304.702 35.2466 304.702 34.8887V34.8191C304.702 33.9507 304.457 33.2779 303.966 32.8006C303.482 32.3233 302.76 32.0847 301.798 32.0847C300.797 32.0847 300.009 32.3067 299.432 32.7509C298.862 33.1884 298.467 33.6756 298.249 34.2125L295.455 33.5762C295.786 32.6481 296.27 31.8991 296.906 31.329C297.549 30.7523 298.288 30.3347 299.124 30.0762C299.959 29.811 300.837 29.6784 301.759 29.6784C302.369 29.6784 303.015 29.7514 303.698 29.8972C304.387 30.0364 305.03 30.2949 305.627 30.6728C306.23 31.0506 306.724 31.5908 307.108 32.2935C307.493 32.9895 307.685 33.8943 307.685 35.008V45.15H304.781V43.062H304.662C304.47 43.4464 304.181 43.8243 303.797 44.1955C303.413 44.5667 302.919 44.8749 302.315 45.1202C301.712 45.3655 300.99 45.4881 300.148 45.4881ZM300.794 43.1017C301.616 43.1017 302.319 42.9393 302.902 42.6145C303.492 42.2897 303.94 41.8655 304.244 41.3418C304.556 40.8115 304.712 40.2447 304.712 39.6415V37.6728C304.606 37.7788 304.4 37.8782 304.095 37.971C303.797 38.0572 303.456 38.1335 303.071 38.1997C302.687 38.2594 302.312 38.3157 301.948 38.3688C301.583 38.4152 301.278 38.4549 301.033 38.4881C300.456 38.561 299.929 38.6836 299.452 38.856C298.981 39.0283 298.603 39.2769 298.318 39.6017C298.04 39.9199 297.901 40.3442 297.901 40.8745C297.901 41.6103 298.172 42.1671 298.716 42.5449C299.26 42.9161 299.952 43.1017 300.794 43.1017ZM27.072 74.4583C25.6402 74.4583 24.3907 74.1301 23.3235 73.4739C22.2562 72.8176 21.4276 71.8996 20.8377 70.7196C20.2477 69.5397 19.9527 68.1609 19.9527 66.5833C19.9527 64.999 20.2477 63.6136 20.8377 62.427C21.4276 61.2405 22.2562 60.3191 23.3235 59.6628C24.3907 59.0066 25.6402 58.6784 27.072 58.6784C28.5039 58.6784 29.7534 59.0066 30.8206 59.6628C31.8879 60.3191 32.7165 61.2405 33.3064 62.427C33.8964 63.6136 34.1914 64.999 34.1914 66.5833C34.1914 68.1609 33.8964 69.5397 33.3064 70.7196C32.7165 71.8996 31.8879 72.8176 30.8206 73.4739C29.7534 74.1301 28.5039 74.4583 27.072 74.4583ZM27.082 71.9625C28.01 71.9625 28.779 71.7173 29.3888 71.2267C29.9987 70.7362 30.4494 70.0833 30.7411 69.2679C31.0394 68.4526 31.1885 67.5544 31.1885 66.5733C31.1885 65.5989 31.0394 64.704 30.7411 63.8887C30.4494 63.0667 29.9987 62.4071 29.3888 61.91C28.779 61.4128 28.01 61.1642 27.082 61.1642C26.1473 61.1642 25.3718 61.4128 24.7553 61.91C24.1454 62.4071 23.6914 63.0667 23.3931 63.8887C23.1014 64.704 22.9556 65.5989 22.9556 66.5733C22.9556 67.5544 23.1014 68.4526 23.3931 69.2679C23.6914 70.0833 24.1454 70.7362 24.7553 71.2267C25.3718 71.7173 26.1473 71.9625 27.082 71.9625ZM48.6045 62.606L45.9099 63.0833C45.7972 62.7386 45.6182 62.4104 45.373 62.0989C45.1343 61.7873 44.8095 61.5321 44.3985 61.3333C43.9876 61.1344 43.4738 61.035 42.8573 61.035C42.0155 61.035 41.3128 61.2239 40.7494 61.6017C40.1859 61.9729 39.9042 62.4535 39.9042 63.0435C39.9042 63.5539 40.0931 63.9649 40.471 64.2764C40.8488 64.588 41.4587 64.8432 42.3005 65.0421L44.7267 65.5989C46.132 65.9237 47.1793 66.4242 47.8687 67.1003C48.5581 67.7764 48.9028 68.6548 48.9028 69.7353C48.9028 70.65 48.6376 71.4654 48.1073 72.1813C47.5837 72.8906 46.8512 73.4474 45.9099 73.8517C44.9752 74.2561 43.8914 74.4583 42.6585 74.4583C40.9483 74.4583 39.5529 74.0937 38.4724 73.3645C37.3919 72.6287 36.729 71.5847 36.4838 70.2324L39.3573 69.7949C39.5363 70.544 39.9042 71.1107 40.461 71.4952C41.0179 71.873 41.7437 72.062 42.6386 72.062C43.613 72.062 44.3919 71.8598 44.9752 71.4554C45.5586 71.0444 45.8502 70.544 45.8502 69.954C45.8502 69.4767 45.6713 69.0757 45.3133 68.7509C44.962 68.4261 44.4217 68.1808 43.6926 68.0151L41.1073 67.4483C39.6822 67.1235 38.6282 66.6065 37.9454 65.8972C37.2693 65.1879 36.9312 64.2897 36.9312 63.2026C36.9312 62.3011 37.1831 61.5122 37.6869 60.8361C38.1907 60.16 38.8867 59.633 39.775 59.2551C40.6632 58.8707 41.6807 58.6784 42.8275 58.6784C44.4781 58.6784 45.7773 59.0364 46.7252 59.7523C47.6732 60.4616 48.2996 61.4128 48.6045 62.606ZM56.2662 74.4881C55.2984 74.4881 54.4234 74.3091 53.6412 73.9512C52.859 73.5866 52.2392 73.0596 51.7818 72.3702C51.3311 71.6808 51.1057 70.8356 51.1057 69.8347C51.1057 68.9729 51.2714 68.2637 51.6029 67.7068C51.9343 67.15 52.3818 66.7092 52.9452 66.3844C53.5086 66.0596 54.1384 65.8143 54.8344 65.6486C55.5304 65.4829 56.2397 65.3569 56.9622 65.2708C57.877 65.1647 58.6194 65.0785 59.1895 65.0122C59.7596 64.9393 60.1739 64.8233 60.4324 64.6642C60.6909 64.5051 60.8202 64.2466 60.8202 63.8887V63.8191C60.8202 62.9507 60.5749 62.2779 60.0844 61.8006C59.6005 61.3233 58.878 61.0847 57.9168 61.0847C56.9158 61.0847 56.127 61.3067 55.5503 61.7509C54.9802 62.1884 54.5858 62.6756 54.3671 63.2125L51.573 62.5762C51.9045 61.6481 52.3884 60.8991 53.0247 60.329C53.6677 59.7523 54.4068 59.3347 55.2421 59.0762C56.0773 58.811 56.9556 58.6784 57.877 58.6784C58.4869 58.6784 59.1332 58.7514 59.8159 58.8972C60.5053 59.0364 61.1483 59.2949 61.7449 59.6728C62.3481 60.0506 62.842 60.5908 63.2264 61.2935C63.6109 61.9895 63.8032 62.8943 63.8032 64.008V74.15H60.8997V72.062H60.7804C60.5882 72.4464 60.2998 72.8243 59.9154 73.1955C59.5309 73.5667 59.0371 73.8749 58.4338 74.1202C57.8306 74.3655 57.1081 74.4881 56.2662 74.4881ZM56.9125 72.1017C57.7345 72.1017 58.4372 71.9393 59.0205 71.6145C59.6104 71.2897 60.0579 70.8655 60.3628 70.3418C60.6744 69.8115 60.8301 69.2447 60.8301 68.6415V66.6728C60.7241 66.7788 60.5186 66.8782 60.2137 66.971C59.9154 67.0572 59.574 67.1335 59.1895 67.1997C58.805 67.2594 58.4305 67.3157 58.0659 67.3688C57.7014 67.4152 57.3964 67.4549 57.1512 67.4881C56.5745 67.561 56.0475 67.6836 55.5702 67.856C55.0996 68.0283 54.7217 68.2769 54.4367 68.6017C54.1583 68.9199 54.0191 69.3442 54.0191 69.8745C54.0191 70.6103 54.2908 71.1671 54.8344 71.5449C55.378 71.9161 56.0707 72.1017 56.9125 72.1017ZM70.386 53.7864V74.15H67.413V53.7864H70.386ZM80.6181 74.4583C79.1133 74.4583 77.8174 74.1368 76.7303 73.4938C75.6498 72.8442 74.8146 71.9327 74.2246 70.7594C73.6413 69.5795 73.3496 68.1974 73.3496 66.6131C73.3496 65.0487 73.6413 63.6699 74.2246 62.4767C74.8146 61.2835 75.6365 60.3522 76.6905 59.6827C77.7511 59.0132 78.9907 58.6784 80.4093 58.6784C81.271 58.6784 82.1062 58.821 82.9149 59.106C83.7237 59.391 84.4495 59.8385 85.0925 60.4483C85.7355 61.0582 86.2426 61.8503 86.6138 62.8247C86.985 63.7925 87.1706 64.9692 87.1706 66.3546V67.4085H75.03V65.1813H84.2573C84.2573 64.3991 84.0982 63.7064 83.78 63.1031C83.4618 62.4933 83.0144 62.0127 82.4377 61.6614C81.8676 61.3101 81.1981 61.1344 80.4291 61.1344C79.5939 61.1344 78.8648 61.3399 78.2416 61.7509C77.6252 62.1552 77.1479 62.6855 76.8098 63.3418C76.4784 63.9914 76.3127 64.6974 76.3127 65.4597V67.1997C76.3127 68.2206 76.4916 69.0889 76.8496 69.8049C77.2142 70.5208 77.7213 71.0676 78.3709 71.4455C79.0205 71.8167 79.7795 72.0023 80.6479 72.0023C81.2113 72.0023 81.7251 71.9228 82.1891 71.7637C82.6531 71.5979 83.0541 71.3527 83.3922 71.0279C83.7303 70.7031 83.9888 70.302 84.1678 69.8247L86.9817 70.3318C86.7563 71.1604 86.352 71.8863 85.7686 72.5094C85.1919 73.1259 84.4661 73.6065 83.5911 73.9512C82.7227 74.2892 81.7317 74.4583 80.6181 74.4583ZM95.8366 74.4483C94.6037 74.4483 93.5033 74.1335 92.5355 73.5037C91.5743 72.8674 90.8186 71.9625 90.2684 70.7892C89.7249 69.6093 89.4531 68.1941 89.4531 66.5435C89.4531 64.8929 89.7282 63.481 90.2784 62.3077C90.8352 61.1344 91.5975 60.2362 92.5653 59.6131C93.5331 58.99 94.6302 58.6784 95.8565 58.6784C96.8044 58.6784 97.5667 58.8375 98.1434 59.1557C98.7268 59.4673 99.1775 59.8318 99.4957 60.2495C99.8205 60.6671 100.072 61.035 100.251 61.3531H100.43V53.7864H103.403V74.15H100.5V71.7736H100.251C100.072 72.0984 99.8139 72.4696 99.4758 72.8872C99.1444 73.3049 98.687 73.6694 98.1037 73.981C97.5203 74.2925 96.7646 74.4483 95.8366 74.4483ZM96.4929 71.9128C97.348 71.9128 98.0705 71.6874 98.6605 71.2367C99.2571 70.7793 99.7078 70.1462 100.013 69.3375C100.324 68.5288 100.48 67.5875 100.48 66.5137C100.48 65.4531 100.328 64.525 100.023 63.7296C99.7178 62.9341 99.2703 62.3143 98.6804 61.8702C98.0904 61.4261 97.3612 61.204 96.4929 61.204C95.598 61.204 94.8522 61.436 94.2556 61.9C93.659 62.364 93.2083 62.9971 92.9034 63.7992C92.6051 64.6013 92.4559 65.5061 92.4559 66.5137C92.4559 67.5345 92.6084 68.4526 92.9133 69.2679C93.2182 70.0833 93.669 70.7296 94.2656 71.2068C94.8688 71.6775 95.6112 71.9128 96.4929 71.9128Z" fill="#F5FCC4"/>
<path d="M121.446 74.4284C120.041 74.4284 118.788 74.1699 117.688 73.6529C116.594 73.1358 115.726 72.4232 115.083 71.5151C114.44 70.6069 114.105 69.5662 114.078 68.3929H118.255C118.301 69.1817 118.632 69.8214 119.249 70.312C119.865 70.8025 120.598 71.0478 121.446 71.0478C122.122 71.0478 122.719 70.8986 123.236 70.6003C123.76 70.2954 124.167 69.8745 124.459 69.3375C124.757 68.794 124.906 68.1709 124.906 67.4682C124.906 66.7523 124.754 66.1226 124.449 65.579C124.151 65.0354 123.737 64.6112 123.206 64.3063C122.676 64.0013 122.069 63.8456 121.387 63.8389C120.79 63.8389 120.21 63.9616 119.647 64.2068C119.09 64.4521 118.656 64.7869 118.344 65.2111L114.516 64.525L115.48 53.7864H127.929V57.3063H119.03L118.503 62.4071H118.622C118.98 61.9033 119.521 61.4857 120.243 61.1543C120.966 60.8228 121.774 60.6571 122.669 60.6571C123.896 60.6571 124.989 60.9455 125.951 61.5222C126.912 62.0989 127.671 62.891 128.228 63.8986C128.784 64.8996 129.059 66.053 129.053 67.3588C129.059 68.731 128.741 69.9507 128.098 71.0179C127.462 72.0785 126.57 72.9138 125.424 73.5236C124.283 74.1268 122.958 74.4284 121.446 74.4284ZM150.335 71.3262L138.453 59.4639L141.058 56.829L152.95 68.721L150.335 71.3262ZM141.058 71.3262L138.453 68.721L150.335 56.829L152.95 59.4639L141.058 71.3262ZM171.507 53.7864V74.15H167.202V57.873H167.082L162.419 60.7963V56.9781L167.46 53.7864H171.507ZM183.981 74.5975C182.271 74.5908 180.8 74.1699 179.567 73.3347C178.34 72.4995 177.396 71.2897 176.733 69.7054C176.077 68.1211 175.752 66.2154 175.758 63.9881C175.758 61.7674 176.087 59.8749 176.743 58.3105C177.406 56.7461 178.35 55.5563 179.577 54.7409C180.81 53.919 182.278 53.508 183.981 53.508C185.685 53.508 187.15 53.919 188.376 54.7409C189.609 55.5629 190.557 56.7561 191.22 58.3205C191.883 59.8782 192.211 61.7674 192.204 63.9881C192.204 66.222 191.873 68.1311 191.21 69.7154C190.554 71.2996 189.613 72.5094 188.386 73.3446C187.16 74.1799 185.692 74.5975 183.981 74.5975ZM183.981 71.0279C185.148 71.0279 186.079 70.4412 186.775 69.2679C187.471 68.0946 187.816 66.3347 187.81 63.9881C187.81 62.4436 187.65 61.1576 187.332 60.1301C187.021 59.1027 186.577 58.3304 186 57.8134C185.43 57.2963 184.757 57.0378 183.981 57.0378C182.821 57.0378 181.893 57.6178 181.197 58.7779C180.501 59.9379 180.15 61.6746 180.143 63.9881C180.143 65.5525 180.299 66.8584 180.611 67.9057C180.929 68.9464 181.376 69.7286 181.953 70.2523C182.53 70.7693 183.206 71.0279 183.981 71.0279ZM202.909 74.5975C201.199 74.5908 199.727 74.1699 198.494 73.3347C197.268 72.4995 196.323 71.2897 195.66 69.7054C195.004 68.1211 194.679 66.2154 194.686 63.9881C194.686 61.7674 195.014 59.8749 195.67 58.3105C196.333 56.7461 197.278 55.5563 198.504 54.7409C199.737 53.919 201.205 53.508 202.909 53.508C204.612 53.508 206.077 53.919 207.304 54.7409C208.537 55.5629 209.485 56.7561 210.147 58.3205C210.81 59.8782 211.138 61.7674 211.132 63.9881C211.132 66.222 210.8 68.1311 210.137 69.7154C209.481 71.2996 208.54 72.5094 207.314 73.3446C206.087 74.1799 204.619 74.5975 202.909 74.5975ZM202.909 71.0279C204.075 71.0279 205.007 70.4412 205.703 69.2679C206.399 68.0946 206.744 66.3347 206.737 63.9881C206.737 62.4436 206.578 61.1576 206.26 60.1301C205.948 59.1027 205.504 58.3304 204.927 57.8134C204.357 57.2963 203.684 57.0378 202.909 57.0378C201.749 57.0378 200.821 57.6178 200.125 58.7779C199.429 59.9379 199.077 61.6746 199.071 63.9881C199.071 65.5525 199.226 66.8584 199.538 67.9057C199.856 68.9464 200.304 69.7286 200.88 70.2523C201.457 70.7693 202.133 71.0279 202.909 71.0279ZM233.425 60.7963L232.441 62.9739H219.147L219.952 60.7963H233.425ZM231.526 64.9625L230.442 67.1898H219.147L219.952 64.9625H231.526ZM236.011 55.3574L234.42 58.758C234.155 58.5724 233.833 58.3702 233.455 58.1514C233.084 57.9261 232.656 57.7371 232.173 57.5847C231.695 57.4256 231.165 57.346 230.582 57.346C229.66 57.346 228.858 57.5781 228.175 58.0421C227.493 58.5061 226.962 59.2286 226.584 60.2097C226.213 61.1907 226.028 62.4502 226.028 63.9881C226.028 65.5392 226.213 66.802 226.584 67.7764C226.962 68.7442 227.493 69.4568 228.175 69.9142C228.858 70.365 229.66 70.5904 230.582 70.5904C231.165 70.5904 231.695 70.5141 232.173 70.3617C232.65 70.2092 233.067 70.0269 233.425 69.8148C233.79 69.6027 234.095 69.4071 234.34 69.2281L235.951 72.6287C235.228 73.2253 234.41 73.6761 233.495 73.981C232.58 74.2793 231.609 74.4284 230.582 74.4284C228.845 74.4284 227.307 74.0174 225.968 73.1955C224.636 72.3669 223.592 71.177 222.836 69.6259C222.08 68.0681 221.702 66.1888 221.702 63.9881C221.702 61.794 222.08 59.9147 222.836 58.3503C223.592 56.7859 224.636 55.5894 225.968 54.7608C227.307 53.9256 228.845 53.508 230.582 53.508C231.649 53.508 232.637 53.6671 233.545 53.9853C234.453 54.3034 235.275 54.7608 236.011 55.3574ZM249.261 53.7864V74.15H245.025V53.7864H249.261ZM259.205 74.4483C257.66 74.4483 256.324 74.1202 255.197 73.4639C254.077 72.8011 253.212 71.8797 252.602 70.6997C251.992 69.5132 251.688 68.1377 251.688 66.5733C251.688 64.9957 251.992 63.6169 252.602 62.437C253.212 61.2504 254.077 60.329 255.197 59.6728C256.324 59.0099 257.66 58.6784 259.205 58.6784C260.749 58.6784 262.081 59.0099 263.202 59.6728C264.329 60.329 265.197 61.2504 265.807 62.437C266.417 63.6169 266.722 64.9957 266.722 66.5733C266.722 68.1377 266.417 69.5132 265.807 70.6997C265.197 71.8797 264.329 72.8011 263.202 73.4639C262.081 74.1202 260.749 74.4483 259.205 74.4483ZM259.224 71.1671C259.927 71.1671 260.514 70.9682 260.984 70.5705C261.455 70.1661 261.81 69.6159 262.048 68.9199C262.294 68.2239 262.416 67.4317 262.416 66.5435C262.416 65.6552 262.294 64.8631 262.048 64.1671C261.81 63.471 261.455 62.9209 260.984 62.5165C260.514 62.1121 259.927 61.91 259.224 61.91C258.515 61.91 257.919 62.1121 257.435 62.5165C256.957 62.9209 256.596 63.471 256.351 64.1671C256.112 64.8631 255.993 65.6552 255.993 66.5435C255.993 67.4317 256.112 68.2239 256.351 68.9199C256.596 69.6159 256.957 70.1661 257.435 70.5705C257.919 70.9682 258.515 71.1671 259.224 71.1671ZM276.026 74.4483C274.482 74.4483 273.146 74.1202 272.019 73.4639C270.899 72.8011 270.034 71.8797 269.424 70.6997C268.814 69.5132 268.509 68.1377 268.509 66.5733C268.509 64.9957 268.814 63.6169 269.424 62.437C270.034 61.2504 270.899 60.329 272.019 59.6728C273.146 59.0099 274.482 58.6784 276.026 58.6784C277.571 58.6784 278.903 59.0099 280.024 59.6728C281.151 60.329 282.019 61.2504 282.629 62.437C283.239 63.6169 283.544 64.9957 283.544 66.5733C283.544 68.1377 283.239 69.5132 282.629 70.6997C282.019 71.8797 281.151 72.8011 280.024 73.4639C278.903 74.1202 277.571 74.4483 276.026 74.4483ZM276.046 71.1671C276.749 71.1671 277.336 70.9682 277.806 70.5705C278.277 70.1661 278.632 69.6159 278.87 68.9199C279.115 68.2239 279.238 67.4317 279.238 66.5435C279.238 65.6552 279.115 64.8631 278.87 64.1671C278.632 63.471 278.277 62.9209 277.806 62.5165C277.336 62.1121 276.749 61.91 276.046 61.91C275.337 61.91 274.74 62.1121 274.257 62.5165C273.779 62.9209 273.418 63.471 273.173 64.1671C272.934 64.8631 272.815 65.6552 272.815 66.5435C272.815 67.4317 272.934 68.2239 273.173 68.9199C273.418 69.6159 273.779 70.1661 274.257 70.5705C274.74 70.9682 275.337 71.1671 276.046 71.1671ZM298.655 63.2324L294.777 63.471C294.711 63.1396 294.568 62.8413 294.35 62.5762C294.131 62.3044 293.843 62.0889 293.485 61.9299C293.133 61.7641 292.712 61.6813 292.222 61.6813C291.566 61.6813 291.012 61.8205 290.561 62.0989C290.111 62.3707 289.885 62.7353 289.885 63.1926C289.885 63.5572 290.031 63.8655 290.323 64.1174C290.614 64.3692 291.115 64.5714 291.824 64.7239L294.588 65.2807C296.073 65.5856 297.18 66.0762 297.909 66.7523C298.639 67.4284 299.003 68.3167 299.003 69.4171C299.003 70.418 298.708 71.2963 298.118 72.052C297.535 72.8077 296.733 73.3977 295.712 73.8219C294.698 74.2395 293.528 74.4483 292.202 74.4483C290.18 74.4483 288.569 74.0274 287.37 73.1855C286.176 72.3371 285.477 71.1836 285.272 69.7253L289.438 69.5066C289.564 70.123 289.869 70.5937 290.353 70.9185C290.836 71.2367 291.456 71.3958 292.212 71.3958C292.954 71.3958 293.551 71.2532 294.002 70.9682C294.459 70.6765 294.691 70.302 294.698 69.8446C294.691 69.4602 294.529 69.1453 294.211 68.9C293.892 68.6481 293.402 68.4559 292.739 68.3233L290.094 67.7963C288.603 67.498 287.492 66.981 286.763 66.2452C286.041 65.5094 285.679 64.5714 285.679 63.4313C285.679 62.4502 285.944 61.605 286.475 60.8958C287.012 60.1865 287.764 59.6396 288.732 59.2551C289.706 58.8707 290.846 58.6784 292.152 58.6784C294.081 58.6784 295.599 59.0861 296.706 59.9014C297.82 60.7168 298.47 61.8271 298.655 63.2324ZM301.32 74.15V58.8773H305.556V74.15H301.32ZM303.448 56.9085C302.819 56.9085 302.278 56.6997 301.828 56.2821C301.383 55.8579 301.161 55.3508 301.161 54.7608C301.161 54.1775 301.383 53.677 301.828 53.2594C302.278 52.8352 302.819 52.623 303.448 52.623C304.078 52.623 304.615 52.8352 305.059 53.2594C305.51 53.677 305.735 54.1775 305.735 54.7608C305.735 55.3508 305.51 55.8579 305.059 56.2821C304.615 56.6997 304.078 56.9085 303.448 56.9085ZM321.307 63.2324L317.429 63.471C317.363 63.1396 317.22 62.8413 317.001 62.5762C316.783 62.3044 316.494 62.0889 316.136 61.9299C315.785 61.7641 315.364 61.6813 314.873 61.6813C314.217 61.6813 313.664 61.8205 313.213 62.0989C312.762 62.3707 312.537 62.7353 312.537 63.1926C312.537 63.5572 312.683 63.8655 312.974 64.1174C313.266 64.3692 313.766 64.5714 314.476 64.7239L317.24 65.2807C318.725 65.5856 319.832 66.0762 320.561 66.7523C321.29 67.4284 321.655 68.3167 321.655 69.4171C321.655 70.418 321.36 71.2963 320.77 72.052C320.186 72.8077 319.384 73.3977 318.364 73.8219C317.349 74.2395 316.179 74.4483 314.854 74.4483C312.832 74.4483 311.221 74.0274 310.021 73.1855C308.828 72.3371 308.129 71.1836 307.923 69.7253L312.089 69.5066C312.215 70.123 312.52 70.5937 313.004 70.9185C313.488 71.2367 314.108 71.3958 314.864 71.3958C315.606 71.3958 316.203 71.2532 316.653 70.9682C317.111 70.6765 317.343 70.302 317.349 69.8446C317.343 69.4602 317.18 69.1453 316.862 68.9C316.544 68.6481 316.053 68.4559 315.391 68.3233L312.746 67.7963C311.254 67.498 310.144 66.981 309.415 66.2452C308.692 65.5094 308.331 64.5714 308.331 63.4313C308.331 62.4502 308.596 61.605 309.126 60.8958C309.663 60.1865 310.416 59.6396 311.383 59.2551C312.358 58.8707 313.498 58.6784 314.804 58.6784C316.733 58.6784 318.251 59.0861 319.358 59.9014C320.471 60.7168 321.121 61.8271 321.307 63.2324ZM329.033 53.7864L328.645 68.0449H325.006L324.608 53.7864H329.033ZM326.826 74.4085C326.169 74.4085 325.606 74.1765 325.135 73.7125C324.665 73.2419 324.433 72.6784 324.439 72.0222C324.433 71.3726 324.665 70.8157 325.135 70.3517C325.606 69.8877 326.169 69.6557 326.826 69.6557C327.455 69.6557 328.009 69.8877 328.486 70.3517C328.963 70.8157 329.205 71.3726 329.212 72.0222C329.205 72.4597 329.089 72.8607 328.864 73.2253C328.645 73.5833 328.357 73.8716 327.999 74.0904C327.641 74.3025 327.25 74.4085 326.826 74.4085Z" fill="#D7FF00"/>
</svg>
