<svg width="350" height="100" viewBox="0 0 350 100" fill="none" xmlns="http://www.w3.org/2000/svg">
<rect width="350" height="100" fill="#330B6A"/>
<path d="M74.5 25C74.5 22.2386 76.7386 20 79.5 20H271.5C274.261 20 276.5 22.2386 276.5 25V76C276.5 78.7614 274.261 81 271.5 81H79.5C76.7386 81 74.5 78.7614 74.5 76V25Z" fill="#D7FF00"/>
<path d="M119.08 40.24L118.6 43.45H111.1V48.85H117.64V52.03H111.1V57.76H119.14V61H106.69V40.24H119.08ZM137.825 61H132.155L125.555 44.53C125.735 45.95 125.875 47.29 125.975 48.55C126.095 49.79 126.155 51.25 126.155 52.93V61H122.165V40.24H127.715L134.435 56.74C134.035 54.06 133.835 51.6 133.835 49.36V40.24H137.825V61ZM157.489 61H151.819L145.219 44.53C145.399 45.95 145.539 47.29 145.639 48.55C145.759 49.79 145.819 51.25 145.819 52.93V61H141.829V40.24H147.379L154.099 56.74C153.699 54.06 153.499 51.6 153.499 49.36V40.24H157.489V61ZM177.003 54.16C177.003 55.58 176.703 56.84 176.103 57.94C175.503 59.04 174.603 59.91 173.403 60.55C172.223 61.17 170.783 61.48 169.083 61.48C166.523 61.48 164.563 60.82 163.203 59.5C161.863 58.16 161.193 56.38 161.193 54.16V40.24H165.603V53.95C165.603 55.35 165.883 56.4 166.443 57.1C167.003 57.78 167.883 58.12 169.083 58.12C170.283 58.12 171.163 57.78 171.723 57.1C172.303 56.4 172.593 55.35 172.593 53.95V40.24H177.003V54.16ZM186.901 39.76C188.401 39.76 189.701 39.98 190.801 40.42C191.921 40.84 192.951 41.49 193.891 42.37L191.791 44.8C191.051 44.2 190.311 43.76 189.571 43.48C188.831 43.2 188.041 43.06 187.201 43.06C186.281 43.06 185.541 43.26 184.981 43.66C184.441 44.04 184.171 44.59 184.171 45.31C184.171 45.81 184.281 46.22 184.501 46.54C184.741 46.86 185.151 47.16 185.731 47.44C186.311 47.72 187.181 48.04 188.341 48.4C190.401 49.06 191.941 49.88 192.961 50.86C193.981 51.82 194.491 53.2 194.491 55C194.491 56.28 194.171 57.41 193.531 58.39C192.891 59.35 191.961 60.11 190.741 60.67C189.521 61.21 188.091 61.48 186.451 61.48C184.811 61.48 183.351 61.22 182.071 60.7C180.791 60.18 179.691 59.47 178.771 58.57L181.021 56.08C181.821 56.76 182.651 57.28 183.511 57.64C184.371 57.98 185.311 58.15 186.331 58.15C187.411 58.15 188.271 57.9 188.911 57.4C189.571 56.9 189.901 56.2 189.901 55.3C189.901 54.74 189.781 54.28 189.541 53.92C189.321 53.54 188.931 53.2 188.371 52.9C187.811 52.6 187.001 52.29 185.941 51.97C183.681 51.27 182.061 50.43 181.081 49.45C180.121 48.47 179.641 47.19 179.641 45.61C179.641 44.45 179.951 43.43 180.571 42.55C181.191 41.65 182.051 40.96 183.151 40.48C184.251 40 185.501 39.76 186.901 39.76ZM210.284 40.24L209.804 43.69H204.554V61H200.144V43.69H194.624V40.24H210.284ZM221.65 61L220.48 56.35H213.97L212.8 61H208.21L214.6 40.24H219.97L226.33 61H221.65ZM214.81 53.08H219.64L217.21 43.51L214.81 53.08ZM243.534 61H237.864L231.264 44.53C231.444 45.95 231.584 47.29 231.684 48.55C231.804 49.79 231.864 51.25 231.864 52.93V61H227.874V40.24H233.424L240.144 56.74C239.744 54.06 239.544 51.6 239.544 49.36V40.24H243.534V61Z" fill="black"/>
</svg>
