<svg width="350" height="100" viewBox="0 0 350 100" fill="none" xmlns="http://www.w3.org/2000/svg">
<rect width="350" height="100" fill="#330B6A"/>
<path d="M30.3358 20.438V44H24.7598V20.438H30.3358ZM43.8678 20.438L36.3538 31.012L44.4798 44H38.0198L30.5058 31.42L37.9858 20.438H43.8678ZM61.7428 34.616C61.7428 35.364 61.7088 36.01 61.6408 36.554H50.4548C50.6361 38.0727 51.0668 39.138 51.7468 39.75C52.4268 40.362 53.3674 40.668 54.5688 40.668C55.2941 40.668 55.9968 40.5433 56.6768 40.294C57.3568 40.022 58.0934 39.614 58.8868 39.07L61.0968 42.062C58.9888 43.7393 56.6428 44.578 54.0588 44.578C51.1348 44.578 48.8908 43.7167 47.3268 41.994C45.7628 40.2713 44.9808 37.9593 44.9808 35.058C44.9808 33.222 45.3094 31.5787 45.9668 30.128C46.6241 28.6547 47.5874 27.4987 48.8568 26.66C50.1261 25.7987 51.6448 25.368 53.4128 25.368C56.0194 25.368 58.0594 26.184 59.5328 27.816C61.0061 29.448 61.7428 31.7147 61.7428 34.616ZM56.4728 33.086C56.4274 30.3207 55.4528 28.938 53.5488 28.938C52.6194 28.938 51.8941 29.278 51.3728 29.958C50.8741 30.638 50.5681 31.76 50.4548 33.324H56.4728V33.086ZM71.5435 25.368C72.8355 25.368 74.0482 25.5607 75.1815 25.946C76.3149 26.3313 77.3122 26.8753 78.1735 27.578L76.2015 30.604C74.7282 29.6747 73.2435 29.21 71.7475 29.21C71.0449 29.21 70.5009 29.3347 70.1155 29.584C69.7529 29.8107 69.5715 30.1393 69.5715 30.57C69.5715 30.91 69.6509 31.1933 69.8095 31.42C69.9909 31.624 70.3422 31.8393 70.8635 32.066C71.3849 32.2927 72.1895 32.5647 73.2775 32.882C75.1589 33.426 76.5529 34.14 77.4595 35.024C78.3889 35.8853 78.8535 37.0867 78.8535 38.628C78.8535 39.852 78.5022 40.9173 77.7995 41.824C77.0969 42.708 76.1335 43.388 74.9095 43.864C73.6855 44.34 72.3255 44.578 70.8295 44.578C69.3109 44.578 67.8942 44.34 66.5795 43.864C65.2875 43.388 64.1882 42.7307 63.2815 41.892L65.8995 38.968C67.4182 40.1467 69.0162 40.736 70.6935 40.736C71.5095 40.736 72.1442 40.5887 72.5975 40.294C73.0735 39.9993 73.3115 39.58 73.3115 39.036C73.3115 38.6053 73.2209 38.2653 73.0395 38.016C72.8582 37.7667 72.5069 37.54 71.9855 37.336C71.4642 37.1093 70.6369 36.8373 69.5035 36.52C67.7129 35.9987 66.3755 35.2733 65.4915 34.344C64.6075 33.4147 64.1655 32.2587 64.1655 30.876C64.1655 29.8333 64.4602 28.904 65.0495 28.088C65.6615 27.2493 66.5229 26.592 67.6335 26.116C68.7669 25.6173 70.0702 25.368 71.5435 25.368ZM101.861 43.15C101.204 43.6033 100.433 43.9547 99.5494 44.204C98.6881 44.4533 97.8268 44.578 96.9654 44.578C93.0214 44.5553 91.0494 42.3793 91.0494 38.05V29.686H88.4994V25.946H91.0494V22.036L96.4214 21.424V25.946H100.569L99.9914 29.686H96.4214V37.982C96.4214 38.8207 96.5574 39.4213 96.8294 39.784C97.1014 40.1467 97.5321 40.328 98.1214 40.328C98.7334 40.328 99.3794 40.1353 100.059 39.75L101.861 43.15ZM111.302 25.368C114.067 25.368 116.232 26.218 117.796 27.918C119.36 29.5953 120.142 31.9527 120.142 34.99C120.142 36.9167 119.779 38.6053 119.054 40.056C118.351 41.484 117.331 42.5947 115.994 43.388C114.679 44.1813 113.115 44.578 111.302 44.578C108.559 44.578 106.395 43.7393 104.808 42.062C103.244 40.362 102.462 37.9933 102.462 34.956C102.462 33.0293 102.813 31.352 103.516 29.924C104.241 28.4733 105.261 27.3513 106.576 26.558C107.913 25.7647 109.489 25.368 111.302 25.368ZM111.302 29.312C110.214 29.312 109.398 29.7767 108.854 30.706C108.31 31.6127 108.038 33.0293 108.038 34.956C108.038 36.928 108.299 38.3673 108.82 39.274C109.364 40.1807 110.191 40.634 111.302 40.634C112.39 40.634 113.206 40.1807 113.75 39.274C114.294 38.3447 114.566 36.9167 114.566 34.99C114.566 33.018 114.294 31.5787 113.75 30.672C113.229 29.7653 112.413 29.312 111.302 29.312ZM113.274 22.41C112.775 22.41 112.345 22.3307 111.982 22.172C111.619 22.0133 111.223 21.7867 110.792 21.492C110.225 21.084 109.761 20.88 109.398 20.88C109.013 20.88 108.684 21.0047 108.412 21.254C108.163 21.4807 107.891 21.8547 107.596 22.376L104.91 21.084C105.363 19.9053 105.964 18.942 106.712 18.194C107.483 17.446 108.344 17.072 109.296 17.072C109.817 17.072 110.259 17.1627 110.622 17.344C111.007 17.5027 111.427 17.7293 111.88 18.024C112.197 18.228 112.447 18.3753 112.628 18.466C112.832 18.5567 113.036 18.602 113.24 18.602C113.603 18.602 113.909 18.4887 114.158 18.262C114.43 18.0127 114.713 17.6273 115.008 17.106L117.694 18.432C117.218 19.6333 116.595 20.5967 115.824 21.322C115.076 22.0473 114.226 22.41 113.274 22.41ZM130.12 25.368C131.412 25.368 132.625 25.5607 133.758 25.946C134.892 26.3313 135.889 26.8753 136.75 27.578L134.778 30.604C133.305 29.6747 131.82 29.21 130.324 29.21C129.622 29.21 129.078 29.3347 128.692 29.584C128.33 29.8107 128.148 30.1393 128.148 30.57C128.148 30.91 128.228 31.1933 128.386 31.42C128.568 31.624 128.919 31.8393 129.44 32.066C129.962 32.2927 130.766 32.5647 131.854 32.882C133.736 33.426 135.13 34.14 136.036 35.024C136.966 35.8853 137.43 37.0867 137.43 38.628C137.43 39.852 137.079 40.9173 136.376 41.824C135.674 42.708 134.71 43.388 133.486 43.864C132.262 44.34 130.902 44.578 129.406 44.578C127.888 44.578 126.471 44.34 125.156 43.864C123.864 43.388 122.765 42.7307 121.858 41.892L124.476 38.968C125.995 40.1467 127.593 40.736 129.27 40.736C130.086 40.736 130.721 40.5887 131.174 40.294C131.65 39.9993 131.888 39.58 131.888 39.036C131.888 38.6053 131.798 38.2653 131.616 38.016C131.435 37.7667 131.084 37.54 130.562 37.336C130.041 37.1093 129.214 36.8373 128.08 36.52C126.29 35.9987 124.952 35.2733 124.068 34.344C123.184 33.4147 122.742 32.2587 122.742 30.876C122.742 29.8333 123.037 28.904 123.626 28.088C124.238 27.2493 125.1 26.592 126.21 26.116C127.344 25.6173 128.647 25.368 130.12 25.368ZM151.945 43.15C151.288 43.6033 150.517 43.9547 149.633 44.204C148.772 44.4533 147.91 44.578 147.049 44.578C143.105 44.5553 141.133 42.3793 141.133 38.05V29.686H138.583V25.946H141.133V22.036L146.505 21.424V25.946H150.653L150.075 29.686H146.505V37.982C146.505 38.8207 146.641 39.4213 146.913 39.784C147.185 40.1467 147.616 40.328 148.205 40.328C148.817 40.328 149.463 40.1353 150.143 39.75L151.945 43.15ZM168.113 38.764C168.113 39.444 168.203 39.9427 168.385 40.26C168.589 40.5773 168.906 40.8153 169.337 40.974L168.215 44.476C167.104 44.3853 166.197 44.1473 165.495 43.762C164.792 43.354 164.248 42.7193 163.863 41.858C162.684 43.6713 160.871 44.578 158.423 44.578C156.632 44.578 155.204 44.0567 154.139 43.014C153.073 41.9713 152.541 40.6113 152.541 38.934C152.541 36.962 153.266 35.4547 154.717 34.412C156.167 33.3693 158.264 32.848 161.007 32.848H162.843V32.066C162.843 31.0007 162.616 30.2753 162.163 29.89C161.709 29.482 160.916 29.278 159.783 29.278C159.193 29.278 158.479 29.3687 157.641 29.55C156.802 29.7087 155.941 29.9353 155.057 30.23L153.833 26.694C154.966 26.2633 156.122 25.9347 157.301 25.708C158.502 25.4813 159.613 25.368 160.633 25.368C163.217 25.368 165.109 25.9007 166.311 26.966C167.512 28.0313 168.113 29.6293 168.113 31.76V38.764ZM159.987 40.736C161.211 40.736 162.163 40.158 162.843 39.002V35.806H161.517C160.293 35.806 159.375 36.0213 158.763 36.452C158.173 36.8827 157.879 37.5513 157.879 38.458C157.879 39.1833 158.06 39.75 158.423 40.158C158.808 40.5433 159.329 40.736 159.987 40.736ZM183.051 25.368C185.204 25.368 186.859 26.218 188.015 27.918C189.171 29.5953 189.749 31.9527 189.749 34.99C189.749 36.8487 189.454 38.5033 188.865 39.954C188.298 41.4047 187.471 42.538 186.383 43.354C185.317 44.17 184.048 44.578 182.575 44.578C181.6 44.578 180.705 44.374 179.889 43.966C179.095 43.558 178.415 42.9913 177.849 42.266L177.577 44H172.817V18.772L178.189 18.194V27.782C178.733 27.034 179.424 26.4447 180.263 26.014C181.124 25.5833 182.053 25.368 183.051 25.368ZM181.011 40.668C183.119 40.668 184.173 38.7753 184.173 34.99C184.173 32.8367 183.923 31.352 183.425 30.536C182.926 29.72 182.201 29.312 181.249 29.312C180.047 29.312 179.027 30.0147 178.189 31.42V38.934C178.529 39.478 178.937 39.9087 179.413 40.226C179.911 40.5207 180.444 40.668 181.011 40.668ZM207.36 41.96C207.36 43.8413 207.054 45.394 206.442 46.618C205.853 47.842 205.037 48.8167 203.994 49.542C202.974 50.29 201.682 50.9473 200.118 51.514L198.316 47.604C199.2 47.196 199.892 46.7993 200.39 46.414C200.889 46.0287 201.274 45.5073 201.546 44.85C201.841 44.2153 201.988 43.3653 201.988 42.3V25.946H207.36V41.96ZM204.674 16.426C205.604 16.426 206.363 16.7207 206.952 17.31C207.564 17.8767 207.87 18.602 207.87 19.486C207.87 20.37 207.564 21.1067 206.952 21.696C206.363 22.2627 205.604 22.546 204.674 22.546C203.745 22.546 202.986 22.2627 202.396 21.696C201.807 21.1067 201.512 20.37 201.512 19.486C201.512 18.602 201.807 17.8767 202.396 17.31C202.986 16.7207 203.745 16.426 204.674 16.426ZM226.358 38.764C226.358 39.444 226.448 39.9427 226.63 40.26C226.834 40.5773 227.151 40.8153 227.582 40.974L226.46 44.476C225.349 44.3853 224.442 44.1473 223.74 43.762C223.037 43.354 222.493 42.7193 222.108 41.858C220.929 43.6713 219.116 44.578 216.668 44.578C214.877 44.578 213.449 44.0567 212.384 43.014C211.318 41.9713 210.786 40.6113 210.786 38.934C210.786 36.962 211.511 35.4547 212.962 34.412C214.412 33.3693 216.509 32.848 219.252 32.848H221.088V32.066C221.088 31.0007 220.861 30.2753 220.408 29.89C219.954 29.482 219.161 29.278 218.028 29.278C217.438 29.278 216.724 29.3687 215.886 29.55C215.047 29.7087 214.186 29.9353 213.302 30.23L212.078 26.694C213.211 26.2633 214.367 25.9347 215.546 25.708C216.747 25.4813 217.858 25.368 218.878 25.368C221.462 25.368 223.354 25.9007 224.556 26.966C225.757 28.0313 226.358 29.6293 226.358 31.76V38.764ZM218.232 40.736C219.456 40.736 220.408 40.158 221.088 39.002V35.806H219.762C218.538 35.806 217.62 36.0213 217.008 36.452C216.418 36.8827 216.124 37.5513 216.124 38.458C216.124 39.1833 216.305 39.75 216.668 40.158C217.053 40.5433 217.574 40.736 218.232 40.736ZM235.524 44.578C233.96 44.578 232.736 44.136 231.852 43.252C230.99 42.3453 230.56 41.0647 230.56 39.41V18.772L235.932 18.194V39.206C235.932 39.954 236.238 40.328 236.85 40.328C237.167 40.328 237.462 40.2713 237.734 40.158L238.788 43.966C237.813 44.374 236.725 44.578 235.524 44.578ZM257.874 27C256.696 27.476 254.962 27.714 252.672 27.714C253.851 28.2127 254.712 28.8247 255.256 29.55C255.8 30.2753 256.072 31.216 256.072 32.372C256.072 33.528 255.766 34.5707 255.154 35.5C254.542 36.4067 253.658 37.1207 252.502 37.642C251.369 38.1633 250.032 38.424 248.49 38.424C247.765 38.424 247.074 38.356 246.416 38.22C246.235 38.3107 246.088 38.458 245.974 38.662C245.884 38.8433 245.838 39.036 245.838 39.24C245.838 39.58 245.963 39.852 246.212 40.056C246.484 40.2373 247.017 40.328 247.81 40.328H250.53C251.913 40.328 253.126 40.5547 254.168 41.008C255.211 41.4613 256.016 42.0847 256.582 42.878C257.149 43.6713 257.432 44.5667 257.432 45.564C257.432 47.4453 256.616 48.9073 254.984 49.95C253.375 51.0153 251.04 51.548 247.98 51.548C245.782 51.548 244.048 51.31 242.778 50.834C241.509 50.3807 240.614 49.7347 240.092 48.896C239.594 48.0573 239.344 47.0033 239.344 45.734H244.172C244.172 46.278 244.274 46.7087 244.478 47.026C244.705 47.3433 245.102 47.5813 245.668 47.74C246.235 47.8987 247.051 47.978 248.116 47.978C249.59 47.978 250.61 47.7967 251.176 47.434C251.743 47.094 252.026 46.5953 252.026 45.938C252.026 45.394 251.811 44.9633 251.38 44.646C250.95 44.3287 250.304 44.17 249.442 44.17H246.824C244.966 44.17 243.572 43.8413 242.642 43.184C241.736 42.504 241.282 41.6427 241.282 40.6C241.282 39.9427 241.475 39.308 241.86 38.696C242.246 38.0613 242.767 37.54 243.424 37.132C242.291 36.52 241.464 35.806 240.942 34.99C240.444 34.1513 240.194 33.1427 240.194 31.964C240.194 29.9467 240.92 28.3487 242.37 27.17C243.821 25.9687 245.736 25.368 248.116 25.368C249.93 25.4133 251.46 25.232 252.706 24.824C253.976 24.416 255.279 23.8153 256.616 23.022L257.874 27ZM248.252 28.904C247.414 28.904 246.745 29.176 246.246 29.72C245.77 30.2413 245.532 30.9667 245.532 31.896C245.532 32.8707 245.77 33.63 246.246 34.174C246.745 34.6953 247.414 34.956 248.252 34.956C249.136 34.956 249.805 34.6953 250.258 34.174C250.734 33.6527 250.972 32.8707 250.972 31.828C250.972 29.8787 250.066 28.904 248.252 28.904ZM270.6 25.368C272.867 25.368 274.555 26.2067 275.666 27.884C276.777 29.5613 277.332 31.9073 277.332 34.922C277.332 36.7807 277.037 38.4467 276.448 39.92C275.881 41.3707 275.054 42.5153 273.966 43.354C272.878 44.17 271.609 44.578 270.158 44.578C268.345 44.578 266.883 43.9547 265.772 42.708V50.97L260.4 51.548V25.946H265.126L265.398 27.952C266.101 27.068 266.905 26.422 267.812 26.014C268.719 25.5833 269.648 25.368 270.6 25.368ZM268.526 40.634C270.679 40.634 271.756 38.7527 271.756 34.99C271.756 32.8593 271.518 31.386 271.042 30.57C270.566 29.7313 269.852 29.312 268.9 29.312C268.288 29.312 267.71 29.4933 267.166 29.856C266.645 30.2187 266.18 30.74 265.772 31.42V39.036C266.497 40.1013 267.415 40.634 268.526 40.634ZM295.128 38.764C295.128 39.444 295.219 39.9427 295.4 40.26C295.604 40.5773 295.921 40.8153 296.352 40.974L295.23 44.476C294.119 44.3853 293.213 44.1473 292.51 43.762C291.807 43.354 291.263 42.7193 290.878 41.858C289.699 43.6713 287.886 44.578 285.438 44.578C283.647 44.578 282.219 44.0567 281.154 43.014C280.089 41.9713 279.556 40.6113 279.556 38.934C279.556 36.962 280.281 35.4547 281.732 34.412C283.183 33.3693 285.279 32.848 288.022 32.848H289.858V32.066C289.858 31.0007 289.631 30.2753 289.178 29.89C288.725 29.482 287.931 29.278 286.798 29.278C286.209 29.278 285.495 29.3687 284.656 29.55C283.817 29.7087 282.956 29.9353 282.072 30.23L280.848 26.694C281.981 26.2633 283.137 25.9347 284.316 25.708C285.517 25.4813 286.628 25.368 287.648 25.368C290.232 25.368 292.125 25.9007 293.326 26.966C294.527 28.0313 295.128 29.6293 295.128 31.76V38.764ZM287.002 40.736C288.226 40.736 289.178 40.158 289.858 39.002V35.806H288.532C287.308 35.806 286.39 36.0213 285.778 36.452C285.189 36.8827 284.894 37.5513 284.894 38.458C284.894 39.1833 285.075 39.75 285.438 40.158C285.823 40.5433 286.345 40.736 287.002 40.736ZM304.294 44.578C302.73 44.578 301.506 44.136 300.622 43.252C299.761 42.3453 299.33 41.0647 299.33 39.41V18.772L304.702 18.194V39.206C304.702 39.954 305.008 40.328 305.62 40.328C305.937 40.328 306.232 40.2713 306.504 40.158L307.558 43.966C306.583 44.374 305.495 44.578 304.294 44.578ZM314.813 44.578C313.249 44.578 312.025 44.136 311.141 43.252C310.279 42.3453 309.849 41.0647 309.849 39.41V18.772L315.221 18.194V39.206C315.221 39.954 315.527 40.328 316.139 40.328C316.456 40.328 316.751 40.2713 317.023 40.158L318.077 43.966C317.102 44.374 316.014 44.578 314.813 44.578ZM325.91 25.946V44H320.538V25.946H325.91ZM323.19 16.426C324.119 16.426 324.878 16.7207 325.468 17.31C326.08 17.8767 326.386 18.602 326.386 19.486C326.386 20.37 326.08 21.1067 325.468 21.696C324.878 22.2627 324.119 22.546 323.19 22.546C322.26 22.546 321.501 22.2627 320.912 21.696C320.322 21.1067 320.028 20.37 320.028 19.486C320.028 18.602 320.322 17.8767 320.912 17.31C321.501 16.7207 322.26 16.426 323.19 16.426ZM109.358 80H103.884L103.476 70.786C103.363 68.5873 103.306 66.6267 103.306 64.904C103.306 63.5893 103.34 62.3427 103.408 61.164L99.7704 77.518H94.5004L90.6244 61.164C90.7604 63.136 90.8284 64.9947 90.8284 66.74C90.8284 68.0547 90.7944 69.426 90.7264 70.854L90.3184 80H84.8784L86.6464 56.438H93.6844L97.2204 72.418L100.518 56.438H107.59L109.358 80ZM136.512 80H131.038L130.63 70.786C130.517 68.5873 130.46 66.6267 130.46 64.904C130.46 63.5893 130.494 62.3427 130.562 61.164L126.924 77.518H121.654L117.778 61.164C117.914 63.136 117.982 64.9947 117.982 66.74C117.982 68.0547 117.948 69.426 117.88 70.854L117.472 80H112.032L113.8 56.438H120.838L124.374 72.418L127.672 56.438H134.744L136.512 80ZM139.559 71.432V67.284H150.405V71.432H139.559ZM159.814 54.194V80H154.442V54.772L159.814 54.194ZM170.966 61.946L165.492 69.868L171.408 80H165.356L159.984 70.14L165.492 61.946H170.966ZM187.477 74.764C187.477 75.444 187.568 75.9427 187.749 76.26C187.953 76.5773 188.27 76.8153 188.701 76.974L187.579 80.476C186.468 80.3853 185.562 80.1473 184.859 79.762C184.156 79.354 183.612 78.7193 183.227 77.858C182.048 79.6713 180.235 80.578 177.787 80.578C175.996 80.578 174.568 80.0567 173.503 79.014C172.438 77.9713 171.905 76.6113 171.905 74.934C171.905 72.962 172.63 71.4547 174.081 70.412C175.532 69.3693 177.628 68.848 180.371 68.848H182.207V68.066C182.207 67.0007 181.98 66.2753 181.527 65.89C181.074 65.482 180.28 65.278 179.147 65.278C178.558 65.278 177.844 65.3687 177.005 65.55C176.166 65.7087 175.305 65.9353 174.421 66.23L173.197 62.694C174.33 62.2633 175.486 61.9347 176.665 61.708C177.866 61.4813 178.977 61.368 179.997 61.368C182.581 61.368 184.474 61.9007 185.675 62.966C186.876 64.0313 187.477 65.6293 187.477 67.76V74.764ZM179.351 76.736C180.575 76.736 181.527 76.158 182.207 75.002V71.806H180.881C179.657 71.806 178.739 72.0213 178.127 72.452C177.538 72.8827 177.243 73.5513 177.243 74.458C177.243 75.1833 177.424 75.75 177.787 76.158C178.172 76.5433 178.694 76.736 179.351 76.736ZM201.973 61.436C202.63 61.436 203.231 61.5153 203.775 61.674L202.925 66.876C202.245 66.7173 201.701 66.638 201.293 66.638C200.228 66.638 199.412 67.012 198.845 67.76C198.301 68.4853 197.87 69.5847 197.553 71.058V80H192.181V61.946H196.873L197.315 65.448C197.723 64.2013 198.335 63.2267 199.151 62.524C199.99 61.7987 200.93 61.436 201.973 61.436ZM211.624 61.946V80H206.252V61.946H211.624ZM208.904 52.426C209.834 52.426 210.593 52.7207 211.182 53.31C211.794 53.8767 212.1 54.602 212.1 55.486C212.1 56.37 211.794 57.1067 211.182 57.696C210.593 58.2627 209.834 58.546 208.904 58.546C207.975 58.546 207.216 58.2627 206.626 57.696C206.037 57.1067 205.742 56.37 205.742 55.486C205.742 54.602 206.037 53.8767 206.626 53.31C207.216 52.7207 207.975 52.426 208.904 52.426ZM221.645 54.194V80H216.273V54.772L221.645 54.194ZM232.797 61.946L227.323 69.868L233.239 80H227.187L221.815 70.14L227.323 61.946H232.797ZM249.308 74.764C249.308 75.444 249.398 75.9427 249.58 76.26C249.784 76.5773 250.101 76.8153 250.532 76.974L249.41 80.476C248.299 80.3853 247.392 80.1473 246.69 79.762C245.987 79.354 245.443 78.7193 245.058 77.858C243.879 79.6713 242.066 80.578 239.618 80.578C237.827 80.578 236.399 80.0567 235.334 79.014C234.268 77.9713 233.736 76.6113 233.736 74.934C233.736 72.962 234.461 71.4547 235.912 70.412C237.362 69.3693 239.459 68.848 242.202 68.848H244.038V68.066C244.038 67.0007 243.811 66.2753 243.358 65.89C242.904 65.482 242.111 65.278 240.978 65.278C240.388 65.278 239.674 65.3687 238.836 65.55C237.997 65.7087 237.136 65.9353 236.252 66.23L235.028 62.694C236.161 62.2633 237.317 61.9347 238.496 61.708C239.697 61.4813 240.808 61.368 241.828 61.368C244.412 61.368 246.304 61.9007 247.506 62.966C248.707 64.0313 249.308 65.6293 249.308 67.76V74.764ZM241.182 76.736C242.406 76.736 243.358 76.158 244.038 75.002V71.806H242.712C241.488 71.806 240.57 72.0213 239.958 72.452C239.368 72.8827 239.074 73.5513 239.074 74.458C239.074 75.1833 239.255 75.75 239.618 76.158C240.003 76.5433 240.524 76.736 241.182 76.736ZM259.306 55.86C260.893 55.86 262.242 56.1207 263.352 56.642C264.486 57.1407 265.336 57.8207 265.902 58.682C266.469 59.5433 266.752 60.4953 266.752 61.538C266.752 62.4673 266.582 63.2607 266.242 63.918C265.925 64.5753 265.54 65.108 265.086 65.516C264.633 65.924 264.032 66.4 263.284 66.944C262.378 67.556 261.709 68.1113 261.278 68.61C260.848 69.086 260.632 69.7093 260.632 70.48V71.33H255.736V70.276C255.736 69.2107 255.895 68.3153 256.212 67.59C256.552 66.842 256.949 66.264 257.402 65.856C257.878 65.4253 258.468 64.9607 259.17 64.462C259.85 64.0087 260.349 63.612 260.666 63.272C260.984 62.932 261.142 62.5127 261.142 62.014C261.142 61.402 260.927 60.926 260.496 60.586C260.088 60.246 259.51 60.076 258.762 60.076C257.334 60.076 256.008 60.7673 254.784 62.15L251.35 59.498C253.413 57.0727 256.065 55.86 259.306 55.86ZM258.252 74.424C259.091 74.424 259.805 74.73 260.394 75.342C261.006 75.9313 261.312 76.6453 261.312 77.484C261.312 78.3453 261.006 79.082 260.394 79.694C259.805 80.2833 259.091 80.578 258.252 80.578C257.414 80.578 256.688 80.2833 256.076 79.694C255.487 79.082 255.192 78.3453 255.192 77.484C255.192 76.6453 255.487 75.9313 256.076 75.342C256.688 74.73 257.414 74.424 258.252 74.424Z" fill="#D7FF00"/>
</svg>
