<svg width="236" height="20" viewBox="0 0 236 20" fill="none" xmlns="http://www.w3.org/2000/svg">
<path d="M82.6828 5.37199H78.7878C78.2298 5.37199 78.0767 5.52516 77.9782 5.98468L74.9476 15.4486C74.7506 16.105 74.3896 17.0678 72.5734 17.0678C70.604 17.0678 70.9541 15.9081 71.2058 15.2516L74.1926 5.94092C74.5519 4.92289 70.399 5.38293 69.7944 5.38293C69.4443 5.38293 69.0832 5.38293 68.8863 5.88621L65.8557 15.4486C65.046 17.9322 65.604 20 71.5231 20C74.4115 20 76.7856 19.3982 77.9454 18.7856C79.3568 18.0744 79.6193 17.3195 79.9694 16.2035L83.3064 5.88621C83.4596 5.4267 83.1533 5.38293 82.7047 5.38293L82.6828 5.37199Z" fill="white"/>
<path d="M49.3896 17.6149C47.2123 17.5164 47.7156 15.9956 47.9673 15.0875L50.4946 7.19913H52.7266C53.2298 7.19913 53.4815 7.14442 53.6347 6.69584L53.9848 5.68928C53.9301 5.38293 53.7878 5.38293 53.3283 5.38293H51.0964L52.1576 2.19912C52.2123 2.00219 52.3546 1.4442 51.8075 1.4442C51.6106 1.4442 51.348 1.49891 51.2058 1.59737L47.3546 3.00875C46.6434 3.3151 46.5996 3.41357 46.3918 3.97155L45.9323 5.38293H44.1598C43.8899 5.44858 43.6201 5.88621 43.3502 6.69584C43.2955 6.94748 43.2517 7.15536 43.5471 7.19913H45.3633L42.5843 15.7987C42.2342 16.7615 41.9826 17.8228 42.7375 18.7856C43.6456 19.9015 45.3196 20 46.0745 20C48.0001 20 50.1664 19.3435 50.4727 18.4354C50.7791 17.6258 49.9147 17.6258 49.3568 17.6258L49.3896 17.6149Z" fill="white"/>
<path d="M67.1467 7.54923C67.9563 4.96718 64.4662 4.96718 63.6018 4.96718C62.0811 4.96718 58.8972 5.16411 56.7747 5.97374C55.8666 6.32385 55.615 6.6302 55.3086 7.53829L51.6106 18.9716C51.4137 19.4748 51.6106 19.5733 52.1686 19.5733H56.0088C56.5121 19.5733 56.7638 19.4748 56.9169 18.9716L60.2539 8.50109C60.4509 7.89934 60.7572 7.13348 62.0701 7.13348C62.8797 7.13348 63.0767 7.53829 63.1861 7.94311C63.3393 8.65427 63.4377 9.31072 64.6522 9.31072C65.8666 9.31072 66.8294 8.44639 67.1358 7.53829L67.1467 7.54923Z" fill="white"/>
<path d="M7.95632 3.8512C9.26923 3.8512 10.7353 3.24945 11.0964 1.9256C11.4465 0.864333 10.9432 0 9.17076 0C7.39834 0 6.12919 0.864333 5.83378 1.96937C5.42897 3.18381 6.43553 3.84026 7.95632 3.84026V3.8512Z" fill="white"/>
<path d="M104.685 4.96718C103.569 4.96718 102.464 5.06565 101.392 5.27352C99.7178 5.62363 98.9082 6.08315 98.2517 6.43326C97.6937 5.97374 96.7309 4.96718 93.4487 4.96718C92.1357 4.96718 88.8425 5.27352 86.9716 6.23632C85.9104 6.73961 85.7572 7.14442 85.4071 8.26039L81.9716 18.9825C81.7747 19.4858 81.9716 19.5842 82.5734 19.5842H86.162C86.8732 19.5842 87.0701 19.3873 87.2233 18.9278L90.2102 9.67177C90.4071 9.01532 90.615 8.45733 91.3261 7.95405C91.7856 7.70241 92.3874 7.49453 93.0001 7.49453C93.6128 7.49453 94.5209 7.74617 94.5209 8.65427C94.4662 8.96061 94.4224 9.21225 94.2692 9.77024L91.2824 18.9278C91.0854 19.5295 91.3808 19.5842 91.9935 19.5842H95.5821C96.1839 19.5842 96.3918 19.4311 96.5449 18.9825L99.4771 9.82495C99.7835 8.96061 99.9366 8.45733 100.593 8.05252C100.943 7.80088 101.501 7.54923 102.366 7.54923C104.291 7.54923 103.886 8.86214 103.525 9.82495L100.593 18.9825C100.495 19.3873 100.593 19.5842 101.151 19.5842H104.991C105.549 19.5842 105.746 19.3873 105.899 18.9278L108.886 9.61707C109.236 8.30416 110.199 4.96718 104.685 4.96718Z" fill="white"/>
<path d="M190.538 3.8512C191.851 3.8512 193.274 3.24945 193.678 1.9256C193.985 0.864333 193.525 0 191.753 0C189.98 0 188.711 0.864333 188.416 1.96937C188.011 3.18381 189.018 3.84026 190.538 3.84026V3.8512Z" fill="white"/>
<path d="M9.32394 5.37199H5.42897C4.82722 5.37199 4.67405 5.57987 4.52087 5.98468L0.374265 18.9278C0.221092 19.3326 0.177329 19.5842 0.833784 19.5842H4.67405C5.2758 19.5842 5.58214 19.4858 5.79002 18.9278L9.93663 5.97374C10.0898 5.47046 9.99133 5.36105 9.33488 5.36105L9.32394 5.37199Z" fill="white"/>
<path d="M25.9651 5.87527C25.5603 5.62363 24.5975 4.96718 20.9541 4.96718C19.6412 4.96718 17.8141 5.12035 16.3042 5.4267C12.9126 6.08315 12.5624 6.99125 12.2561 7.95405L8.71125 18.9278C8.61278 19.3873 8.71125 19.5842 9.26923 19.5842H12.9673C13.5253 19.5295 13.8316 19.5295 14.0285 18.9825L17.0592 9.5733C17.3108 8.76368 17.8141 7.3523 19.8929 7.3523C20.4946 7.3523 21.162 7.50547 21.4574 7.81182C21.8075 8.27133 21.6544 8.67615 21.3589 9.58425L18.3721 18.9387C18.2189 19.442 18.3721 19.5952 18.8754 19.5952H22.5734C23.2298 19.5952 23.4815 19.442 23.6347 18.9387L26.8732 8.92779C27.1248 8.11816 27.4749 6.80525 25.9651 5.89716V5.87527Z" fill="white"/>
<path d="M37.0482 4.96718C31.3261 4.96718 29.8163 8.26039 29.5099 9.21225C28.6456 11.8381 30.7791 12.8556 31.8403 13.3042L33.0548 13.8621C34.5209 14.5186 35.2867 14.9234 34.9257 16.0394C34.7288 16.9037 33.7659 17.407 33.0001 17.407C32.1358 17.407 31.7856 16.7505 31.6325 16.4989C31.5778 16.3457 31.2277 15.744 31.173 15.6346C30.7134 14.7702 29.9585 14.628 29.5099 14.628C28.197 14.628 27.1358 15.4923 26.8294 16.4989C26.4246 17.7681 27.4312 19.9891 32.1905 19.9891C36.9498 19.9891 39.3239 17.3523 39.8819 15.4814C40.79 12.7462 38.6128 11.7396 37.5077 11.2363L35.9432 10.5252C35.0351 10.1203 33.8644 9.66083 34.2692 8.44639C34.4662 7.8884 35.1336 7.17724 36.1401 7.17724C37.1467 7.17724 37.3546 7.8884 37.5515 8.39168C37.8031 8.99344 38.0548 9.70459 39.3239 9.70459C40.5931 9.70459 41.5449 8.84026 41.7528 8.03063C42.1576 6.77243 41.2933 4.9453 37.0482 4.9453V4.96718Z" fill="white"/>
<path d="M209.204 5.37199H205.309C204.751 5.37199 204.597 5.52516 204.499 5.98468L201.468 15.4486C201.217 16.105 200.91 17.0678 199.094 17.0678C197.125 17.0678 197.475 15.9081 197.683 15.2516L200.713 5.94092C200.867 5.38293 200.516 5.38293 200.057 5.38293H196.359C195.954 5.38293 195.604 5.38293 195.396 5.88621L192.311 15.4486C191.556 17.9322 192.114 20 198.022 20C200.91 20 203.285 19.3982 204.444 18.7856C205.856 18.0744 206.118 17.3195 206.468 16.2035L209.805 5.88621C209.958 5.4267 209.652 5.38293 209.204 5.38293V5.37199Z" fill="white"/>
<path d="M191.895 5.37199H188C187.344 5.37199 187.19 5.57987 187.092 5.98468L182.945 18.9387C182.748 19.3435 182.748 19.5952 183.35 19.5952H187.3C187.858 19.5952 188.11 19.4967 188.306 18.9387L192.453 5.98468C192.65 5.4814 192.508 5.37199 191.895 5.37199Z" fill="white"/>
<path d="M123.099 14.1794C122.595 14.1794 122.387 14.3326 121.479 14.9344C120.67 15.4923 119.302 16.1488 117.737 16.1488C116.173 16.1488 115.002 15.4376 114.652 14.2232C114.499 13.7199 114.554 13.1619 114.597 12.7571L123.449 11.7396C124.007 11.6411 124.871 11.5427 125.276 10.372C125.735 9.00438 125.735 4.95624 120.418 4.95624C116.829 4.95624 112.015 6.9256 110.298 12.3414C109.083 16.1379 109.794 19.9781 115.659 19.9781C120.965 19.9781 123.503 16.0284 123.755 15.1751C124.007 14.5186 123.602 14.1685 123.099 14.1685V14.1794ZM118.744 7.54923C119.094 7.54923 120.823 7.54923 120.265 10.0328L114.948 10.6346C115.451 9.07002 116.775 7.54923 118.744 7.54923Z" fill="white"/>
<path d="M185.32 7.54923C186.184 4.96718 182.694 4.96718 181.829 4.96718C180.21 4.96718 177.07 5.16411 174.948 5.97374C174.083 6.32385 173.788 6.6302 173.481 7.53829L169.838 18.9716C169.641 19.4748 169.783 19.5733 170.396 19.5733H174.193C174.696 19.5733 174.948 19.4748 175.101 18.9716L178.492 8.50109C178.689 7.89934 178.952 7.13348 180.309 7.13348C181.118 7.13348 181.271 7.53829 181.425 7.94311C181.523 8.65427 181.676 9.31072 182.836 9.31072C183.996 9.31072 185.013 8.44639 185.32 7.53829V7.54923Z" fill="white"/>
<path d="M231.206 4.96718C230.09 4.96718 228.985 5.06565 227.913 5.27352C226.239 5.62363 225.429 6.08315 224.773 6.43326C224.215 5.97374 223.252 4.96718 219.969 4.96718C218.657 4.96718 215.418 5.27352 213.492 6.23632C212.486 6.73961 212.278 7.14442 211.928 8.26039L208.492 18.9825C208.296 19.4858 208.492 19.5842 209.094 19.5842H212.683C213.394 19.5842 213.591 19.3873 213.744 18.9278L216.731 9.67177C216.928 9.01532 217.136 8.45733 217.847 7.95405C218.306 7.70241 218.908 7.49453 219.521 7.49453C220.177 7.49453 221.085 7.74617 221.042 8.65427C220.987 8.96061 220.943 9.21225 220.735 9.77024L217.803 18.9278C217.606 19.5295 217.902 19.5842 218.514 19.5842H222.103C222.759 19.5842 222.913 19.4311 223.066 18.9825L226.053 9.82495C226.304 8.96061 226.457 8.45733 227.169 8.05252C227.519 7.80088 228.077 7.54923 228.843 7.54923C230.812 7.54923 230.407 8.86214 230.112 9.82495L227.18 18.9825C227.026 19.3873 227.125 19.5842 227.738 19.5842H231.578C232.136 19.5842 232.289 19.3873 232.442 18.9278L235.429 9.61707C235.779 8.30416 236.742 4.96718 231.228 4.96718H231.206Z" fill="white"/>
<path d="M142.07 5.87527C141.72 5.62363 140.702 4.96718 137.059 4.96718C135.746 4.96718 133.974 5.12035 132.409 5.4267C129.018 6.08315 128.711 6.99125 128.416 7.95405L124.871 18.9278C124.773 19.3873 124.816 19.5842 125.374 19.5842H129.072C129.63 19.5295 129.937 19.5295 130.134 18.9825L133.164 9.5733C133.416 8.76368 133.919 7.3523 136.053 7.3523C136.654 7.3523 137.267 7.50547 137.573 7.81182C137.923 8.27133 137.825 8.67615 137.519 9.58425L134.488 18.9387C134.335 19.442 134.488 19.5952 134.991 19.5952H138.689C139.346 19.5952 139.597 19.442 139.751 18.9387L142.989 8.92779C143.241 8.11816 143.646 6.80525 142.081 5.89716L142.07 5.87527Z" fill="white"/>
<path d="M169.182 5.62363C168.274 5.12035 166.808 4.96718 165.637 4.96718C160.582 4.96718 157.792 6.78337 157.289 8.35886C157.037 9.26696 157.541 10.1313 159.007 10.1313C160.473 10.1313 161.129 9.32166 161.742 8.56674C162.092 8.10722 162.748 7.29759 163.963 7.29759C165.484 7.29759 165.177 8.45733 164.926 9.32166L164.422 10.744C159.871 11.5536 155.21 12.3632 154.05 16.0066C152.781 19.9562 158.449 20 159.816 20C163.405 20 165.582 19.1357 166.348 18.4792C167.004 17.9759 167.311 17.2648 167.464 16.663L169.893 9.02626C170.243 8.11816 170.702 6.59737 169.182 5.63457V5.62363ZM162.759 15.9956C162.562 16.6083 162.201 17.7133 160.681 17.7133C159.674 17.7133 158.755 17.1116 159.269 15.5908C159.871 13.6214 161.851 13.1072 163.875 12.6586L162.759 15.9956Z" fill="white"/>
<path d="M151.02 17.6149C148.843 17.5164 149.346 15.9956 149.597 15.0875L152.125 7.19913H154.346C154.849 7.19913 155.101 7.14442 155.21 6.69584L155.615 5.68928C155.56 5.38293 155.363 5.38293 154.959 5.38293H152.727L153.733 2.19912C153.788 2.00219 153.93 1.4442 153.383 1.4442C153.23 1.4442 152.978 1.49891 152.781 1.59737L148.985 3.00875C148.274 3.3151 148.175 3.41357 148.022 3.97155L147.562 5.38293H145.746C145.513 5.44858 145.261 5.88621 144.991 6.69584C144.937 6.94748 144.893 7.15536 145.188 7.19913H146.961L144.225 15.7987C143.875 16.7615 143.569 17.8228 144.379 18.7856C145.287 19.9015 146.961 20 147.716 20C149.641 20 151.808 19.3435 152.114 18.4354C152.366 17.6258 151.556 17.6258 150.998 17.6258L151.02 17.6149Z" fill="white"/>
</svg>
