<svg width="125" height="36" viewBox="0 0 125 36" fill="none" xmlns="http://www.w3.org/2000/svg">
<path d="M117.848 0H0V29.728V29.8912L11.2602 36H124.027V13.6352L117.848 0ZM121.984 33.9859H11.7694L4.1255 29.8963H117.844V4.93088L121.979 14.0583V33.9859H121.984Z" fill="#FA3944"/>
<path d="M11.065 15.0579L15.8798 20.0397H17.5259L12.4899 14.7978L17.1606 9.85156H15.5608L11.065 14.6346V9.85156H9.79443V20.0397H11.065V15.0579Z" fill="white"/>
<path d="M19.9383 9.85156H18.6677V20.0397H19.9383V9.85156Z" fill="white"/>
<path d="M33.2921 12.0697L38.6521 20.0397H39.9381V9.85156H38.6521V17.8114L33.2921 9.85156H32.0061V20.0397H33.2921V12.0697Z" fill="white"/>
<path d="M43.3486 9.85156H42.0781V20.0397H43.3486V9.85156Z" fill="white"/>
<path d="M23.3641 12.0697L28.7241 20.0397H30.005V9.85156H28.7241V17.8114L23.3641 9.85156H22.0781V20.0397H23.3641V12.0697Z" fill="white"/>
<path d="M52.0265 15.1955C51.7487 15.0017 51.4658 14.8487 51.1726 14.7365C50.8794 14.6294 50.6222 14.5427 50.3959 14.4816L48.4411 13.9206C48.1891 13.8492 47.9319 13.7575 47.6644 13.6504C47.402 13.5382 47.1757 13.3903 46.9957 13.1966C46.8157 13.0079 46.723 12.7529 46.723 12.4419C46.723 12.1257 46.8208 11.8453 47.0214 11.6056C47.222 11.3609 47.4895 11.1722 47.829 11.0345C48.1685 10.8969 48.544 10.8306 48.9658 10.8357C49.4031 10.8407 49.8043 10.9224 50.1747 11.0855C50.5399 11.2487 50.8485 11.4782 51.0903 11.779C51.3372 12.0798 51.4915 12.4368 51.5636 12.8498L52.9113 12.6153C52.7878 11.9983 52.546 11.468 52.1859 11.0243C51.8259 10.5807 51.3732 10.2391 50.828 9.9994C50.2827 9.75971 49.6654 9.63737 48.9761 9.63737C48.2971 9.63226 47.685 9.74443 47.1397 9.96878C46.5996 10.1932 46.1675 10.5195 45.8537 10.9479C45.5348 11.3762 45.3805 11.8912 45.3805 12.4929C45.3805 12.8702 45.4422 13.1966 45.5656 13.4719C45.6891 13.7473 45.8537 13.9818 46.0646 14.1807C46.2755 14.3744 46.5121 14.5376 46.7796 14.6702C47.0471 14.7977 47.3198 14.9048 47.6078 14.9914L50.2261 15.7614C50.4113 15.8125 50.5913 15.8787 50.7611 15.9603C50.9308 16.0419 51.0852 16.1387 51.224 16.256C51.3578 16.3733 51.4658 16.511 51.543 16.6742C51.6201 16.8374 51.6612 17.0312 51.6612 17.2555C51.6612 17.6226 51.5533 17.9439 51.3321 18.209C51.1109 18.4793 50.8177 18.6833 50.4421 18.826C50.0666 18.9688 49.65 19.0402 49.187 19.0402C48.472 19.0402 47.8547 18.8617 47.3301 18.4997C46.8054 18.1376 46.4555 17.6379 46.291 16.9954L44.9792 17.1994C45.0924 17.8215 45.3393 18.362 45.7199 18.8158C46.1006 19.2697 46.579 19.6215 47.1603 19.8663C47.7416 20.111 48.4 20.2334 49.1253 20.2334C49.6603 20.2334 50.1592 20.1671 50.6222 20.0294C51.0903 19.8969 51.4967 19.698 51.8516 19.443C52.2014 19.1881 52.4792 18.8669 52.6746 18.4844C52.8701 18.102 52.973 17.6634 52.973 17.1739C52.973 16.6844 52.8804 16.2764 52.7004 15.9552C52.5306 15.6493 52.3043 15.3892 52.0265 15.1955Z" fill="white"/>
<path d="M60.4781 9.85156L57.4585 18.6986L54.4699 9.85156H53.1479L56.5893 20.0397H58.3588L61.8 9.85156H60.4781Z" fill="white"/>
<path d="M64.516 9.85156L61.0747 20.0397H62.3964L63.1989 17.6533H67.5921L68.405 20.0397H69.7267L66.2855 9.85156H64.516ZM63.6001 16.4703L65.3906 11.1723L67.1961 16.4703H63.6001Z" fill="white"/>
<path d="M77.4374 15.109C77.8491 14.5327 78.0602 13.8495 78.0602 13.0591C78.0602 12.5186 77.9625 12.024 77.7718 11.5752C77.5816 11.1317 77.2991 10.7594 76.9182 10.4688C76.5373 10.1781 76.0744 9.98941 75.5139 9.90273C75.3854 9.87723 75.2516 9.86195 75.1126 9.85684C74.9736 9.85173 74.8556 9.84668 74.7579 9.84668H70.6938V20.0348H71.9644V16.2716H74.9684L76.81 20.0348H78.2661L76.2803 15.9911C76.7641 15.8025 77.1496 15.5118 77.4374 15.109ZM71.9697 15.0784V11.0449H74.7166C74.8091 11.0449 74.912 11.05 75.0254 11.0552C75.1434 11.0603 75.2516 11.0807 75.3598 11.1062C75.6889 11.1776 75.9564 11.3152 76.1622 11.5141C76.3675 11.718 76.5222 11.9526 76.6146 12.2229C76.7123 12.4931 76.7589 12.7736 76.7589 13.054C76.7589 13.3395 76.7123 13.6149 76.6146 13.8852C76.5169 14.1554 76.3675 14.39 76.1622 14.594C75.9564 14.7928 75.6889 14.9305 75.3598 15.007C75.2569 15.0325 75.1434 15.0478 75.0254 15.058C74.9068 15.0682 74.8038 15.0733 74.7166 15.0733H71.9697V15.0784Z" fill="white"/>
<path d="M82.4791 9.85156L79.0378 20.0397H80.3595L81.162 17.6533H85.5552L86.3675 20.0397H87.6899L84.2486 9.85156H82.4791ZM81.5632 16.4703L83.353 11.1723L85.1586 16.4703H81.5632Z" fill="white"/>
<path d="M99.0835 15.0883C99.3306 14.8078 99.5155 14.507 99.6388 14.1858C99.7627 13.8594 99.8243 13.4668 99.8243 12.9976C99.8243 12.3501 99.6748 11.7789 99.3765 11.2741C99.0782 10.7693 98.6717 10.3716 98.163 10.0809C97.6483 9.79025 97.0668 9.64746 96.4243 9.64746C95.7451 9.64746 95.138 9.78514 94.6135 10.0656C94.0838 10.3461 93.6721 10.7336 93.3685 11.2333C93.065 11.733 92.9162 12.3092 92.9162 12.9671H94.4437C94.4385 12.6254 94.5204 12.3143 94.6857 12.0186C94.8502 11.728 95.0817 11.4934 95.38 11.3149C95.6783 11.1364 96.0179 11.0497 96.3981 11.0497C96.7685 11.0497 97.0976 11.1364 97.3809 11.3047C97.6634 11.473 97.8903 11.7025 98.0496 11.9931C98.2089 12.2837 98.2915 12.6101 98.2915 12.9721C98.2915 13.2577 98.2246 13.5483 98.0961 13.8339C97.967 14.1194 97.7205 14.4254 97.3553 14.7415L92.8847 18.7138L92.8801 20.0294H99.8295V18.622H95.1892L98.163 15.9908C98.5282 15.6696 98.8363 15.3687 99.0835 15.0883Z" fill="white"/>
<path d="M106.933 16.8627V14.104H105.421V16.8627H102.494L105.827 9.85645H104.124L100.786 16.8627V18.265H105.421V20.0394H106.933V18.265H107.957V16.8627H106.933Z" fill="white"/>
</svg>
