<svg width="350" height="250" viewBox="0 0 350 250" fill="none" xmlns="http://www.w3.org/2000/svg">
<rect width="350" height="250" fill="#330B6A"/>
<path d="M27.786 24.438V48H22.21V24.438H27.786ZM41.318 24.438L33.804 35.012L41.93 48H35.47L27.956 35.42L35.436 24.438H41.318ZM59.193 38.616C59.193 39.364 59.159 40.01 59.091 40.554H47.905C48.0863 42.0727 48.517 43.138 49.197 43.75C49.877 44.362 50.8176 44.668 52.019 44.668C52.7443 44.668 53.447 44.5433 54.127 44.294C54.807 44.022 55.5436 43.614 56.337 43.07L58.547 46.062C56.439 47.7393 54.093 48.578 51.509 48.578C48.585 48.578 46.341 47.7167 44.777 45.994C43.213 44.2713 42.431 41.9593 42.431 39.058C42.431 37.222 42.7596 35.5787 43.417 34.128C44.0743 32.6547 45.0376 31.4987 46.307 30.66C47.5763 29.7987 49.095 29.368 50.863 29.368C53.4696 29.368 55.5096 30.184 56.983 31.816C58.4563 33.448 59.193 35.7147 59.193 38.616ZM53.923 37.086C53.8776 34.3207 52.903 32.938 50.999 32.938C50.0696 32.938 49.3443 33.278 48.823 33.958C48.3243 34.638 48.0183 35.76 47.905 37.324H53.923V37.086ZM68.9937 29.368C70.2857 29.368 71.4984 29.5607 72.6317 29.946C73.7651 30.3313 74.7624 30.8753 75.6237 31.578L73.6517 34.604C72.1784 33.6747 70.6937 33.21 69.1977 33.21C68.4951 33.21 67.9511 33.3347 67.5657 33.584C67.2031 33.8107 67.0217 34.1393 67.0217 34.57C67.0217 34.91 67.1011 35.1933 67.2597 35.42C67.4411 35.624 67.7924 35.8393 68.3137 36.066C68.8351 36.2927 69.6397 36.5647 70.7277 36.882C72.6091 37.426 74.0031 38.14 74.9097 39.024C75.8391 39.8853 76.3037 41.0867 76.3037 42.628C76.3037 43.852 75.9524 44.9173 75.2497 45.824C74.5471 46.708 73.5837 47.388 72.3597 47.864C71.1357 48.34 69.7757 48.578 68.2797 48.578C66.7611 48.578 65.3444 48.34 64.0297 47.864C62.7377 47.388 61.6384 46.7307 60.7317 45.892L63.3497 42.968C64.8684 44.1467 66.4664 44.736 68.1437 44.736C68.9597 44.736 69.5944 44.5887 70.0477 44.294C70.5237 43.9993 70.7617 43.58 70.7617 43.036C70.7617 42.6053 70.6711 42.2653 70.4897 42.016C70.3084 41.7667 69.9571 41.54 69.4357 41.336C68.9144 41.1093 68.0871 40.8373 66.9537 40.52C65.1631 39.9987 63.8257 39.2733 62.9417 38.344C62.0577 37.4147 61.6157 36.2587 61.6157 34.876C61.6157 33.8333 61.9104 32.904 62.4997 32.088C63.1117 31.2493 63.9731 30.592 65.0837 30.116C66.2171 29.6173 67.5204 29.368 68.9937 29.368ZM99.3116 47.15C98.6543 47.6033 97.8836 47.9547 96.9996 48.204C96.1383 48.4533 95.277 48.578 94.4156 48.578C90.4716 48.5553 88.4996 46.3793 88.4996 42.05V33.686H85.9496V29.946H88.4996V26.036L93.8716 25.424V29.946H98.0196L97.4416 33.686H93.8716V41.982C93.8716 42.8207 94.0076 43.4213 94.2796 43.784C94.5516 44.1467 94.9823 44.328 95.5716 44.328C96.1836 44.328 96.8296 44.1353 97.5096 43.75L99.3116 47.15ZM108.752 29.368C111.518 29.368 113.682 30.218 115.246 31.918C116.81 33.5953 117.592 35.9527 117.592 38.99C117.592 40.9167 117.23 42.6053 116.504 44.056C115.802 45.484 114.782 46.5947 113.444 47.388C112.13 48.1813 110.566 48.578 108.752 48.578C106.01 48.578 103.845 47.7393 102.258 46.062C100.694 44.362 99.9122 41.9933 99.9122 38.956C99.9122 37.0293 100.264 35.352 100.966 33.924C101.692 32.4733 102.712 31.3513 104.026 30.558C105.364 29.7647 106.939 29.368 108.752 29.368ZM108.752 33.312C107.664 33.312 106.848 33.7767 106.304 34.706C105.76 35.6127 105.488 37.0293 105.488 38.956C105.488 40.928 105.749 42.3673 106.27 43.274C106.814 44.1807 107.642 44.634 108.752 44.634C109.84 44.634 110.656 44.1807 111.2 43.274C111.744 42.3447 112.016 40.9167 112.016 38.99C112.016 37.018 111.744 35.5787 111.2 34.672C110.679 33.7653 109.863 33.312 108.752 33.312ZM110.724 26.41C110.226 26.41 109.795 26.3307 109.432 26.172C109.07 26.0133 108.673 25.7867 108.242 25.492C107.676 25.084 107.211 24.88 106.848 24.88C106.463 24.88 106.134 25.0047 105.862 25.254C105.613 25.4807 105.341 25.8547 105.046 26.376L102.36 25.084C102.814 23.9053 103.414 22.942 104.162 22.194C104.933 21.446 105.794 21.072 106.746 21.072C107.268 21.072 107.71 21.1627 108.072 21.344C108.458 21.5027 108.877 21.7293 109.33 22.024C109.648 22.228 109.897 22.3753 110.078 22.466C110.282 22.5567 110.486 22.602 110.69 22.602C111.053 22.602 111.359 22.4887 111.608 22.262C111.88 22.0127 112.164 21.6273 112.458 21.106L115.144 22.432C114.668 23.6333 114.045 24.5967 113.274 25.322C112.526 26.0473 111.676 26.41 110.724 26.41ZM127.571 29.368C128.863 29.368 130.075 29.5607 131.209 29.946C132.342 30.3313 133.339 30.8753 134.201 31.578L132.229 34.604C130.755 33.6747 129.271 33.21 127.775 33.21C127.072 33.21 126.528 33.3347 126.143 33.584C125.78 33.8107 125.599 34.1393 125.599 34.57C125.599 34.91 125.678 35.1933 125.837 35.42C126.018 35.624 126.369 35.8393 126.891 36.066C127.412 36.2927 128.217 36.5647 129.305 36.882C131.186 37.426 132.58 38.14 133.487 39.024C134.416 39.8853 134.881 41.0867 134.881 42.628C134.881 43.852 134.529 44.9173 133.827 45.824C133.124 46.708 132.161 47.388 130.937 47.864C129.713 48.34 128.353 48.578 126.857 48.578C125.338 48.578 123.921 48.34 122.607 47.864C121.315 47.388 120.215 46.7307 119.309 45.892L121.927 42.968C123.445 44.1467 125.043 44.736 126.721 44.736C127.537 44.736 128.171 44.5887 128.625 44.294C129.101 43.9993 129.339 43.58 129.339 43.036C129.339 42.6053 129.248 42.2653 129.067 42.016C128.885 41.7667 128.534 41.54 128.013 41.336C127.491 41.1093 126.664 40.8373 125.531 40.52C123.74 39.9987 122.403 39.2733 121.519 38.344C120.635 37.4147 120.193 36.2587 120.193 34.876C120.193 33.8333 120.487 32.904 121.077 32.088C121.689 31.2493 122.55 30.592 123.661 30.116C124.794 29.6173 126.097 29.368 127.571 29.368ZM149.395 47.15C148.738 47.6033 147.967 47.9547 147.083 48.204C146.222 48.4533 145.361 48.578 144.499 48.578C140.555 48.5553 138.583 46.3793 138.583 42.05V33.686H136.033V29.946H138.583V26.036L143.955 25.424V29.946H148.103L147.525 33.686H143.955V41.982C143.955 42.8207 144.091 43.4213 144.363 43.784C144.635 44.1467 145.066 44.328 145.655 44.328C146.267 44.328 146.913 44.1353 147.593 43.75L149.395 47.15ZM165.563 42.764C165.563 43.444 165.654 43.9427 165.835 44.26C166.039 44.5773 166.356 44.8153 166.787 44.974L165.665 48.476C164.554 48.3853 163.648 48.1473 162.945 47.762C162.242 47.354 161.698 46.7193 161.313 45.858C160.134 47.6713 158.321 48.578 155.873 48.578C154.082 48.578 152.654 48.0567 151.589 47.014C150.524 45.9713 149.991 44.6113 149.991 42.934C149.991 40.962 150.716 39.4547 152.167 38.412C153.618 37.3693 155.714 36.848 158.457 36.848H160.293V36.066C160.293 35.0007 160.066 34.2753 159.613 33.89C159.16 33.482 158.366 33.278 157.233 33.278C156.644 33.278 155.93 33.3687 155.091 33.55C154.252 33.7087 153.391 33.9353 152.507 34.23L151.283 30.694C152.416 30.2633 153.572 29.9347 154.751 29.708C155.952 29.4813 157.063 29.368 158.083 29.368C160.667 29.368 162.56 29.9007 163.761 30.966C164.962 32.0313 165.563 33.6293 165.563 35.76V42.764ZM157.437 44.736C158.661 44.736 159.613 44.158 160.293 43.002V39.806H158.967C157.743 39.806 156.825 40.0213 156.213 40.452C155.624 40.8827 155.329 41.5513 155.329 42.458C155.329 43.1833 155.51 43.75 155.873 44.158C156.258 44.5433 156.78 44.736 157.437 44.736ZM180.501 29.368C182.654 29.368 184.309 30.218 185.465 31.918C186.621 33.5953 187.199 35.9527 187.199 38.99C187.199 40.8487 186.904 42.5033 186.315 43.954C185.748 45.4047 184.921 46.538 183.833 47.354C182.768 48.17 181.498 48.578 180.025 48.578C179.05 48.578 178.155 48.374 177.339 47.966C176.546 47.558 175.866 46.9913 175.299 46.266L175.027 48H170.267V22.772L175.639 22.194V31.782C176.183 31.034 176.874 30.4447 177.713 30.014C178.574 29.5833 179.504 29.368 180.501 29.368ZM178.461 44.668C180.569 44.668 181.623 42.7753 181.623 38.99C181.623 36.8367 181.374 35.352 180.875 34.536C180.376 33.72 179.651 33.312 178.699 33.312C177.498 33.312 176.478 34.0147 175.639 35.42V42.934C175.979 43.478 176.387 43.9087 176.863 44.226C177.362 44.5207 177.894 44.668 178.461 44.668ZM204.81 45.96C204.81 47.8413 204.504 49.394 203.892 50.618C203.303 51.842 202.487 52.8167 201.444 53.542C200.424 54.29 199.132 54.9473 197.568 55.514L195.766 51.604C196.65 51.196 197.342 50.7993 197.84 50.414C198.339 50.0287 198.724 49.5073 198.996 48.85C199.291 48.2153 199.438 47.3653 199.438 46.3V29.946H204.81V45.96ZM202.124 20.426C203.054 20.426 203.813 20.7207 204.402 21.31C205.014 21.8767 205.32 22.602 205.32 23.486C205.32 24.37 205.014 25.1067 204.402 25.696C203.813 26.2627 203.054 26.546 202.124 26.546C201.195 26.546 200.436 26.2627 199.846 25.696C199.257 25.1067 198.962 24.37 198.962 23.486C198.962 22.602 199.257 21.8767 199.846 21.31C200.436 20.7207 201.195 20.426 202.124 20.426ZM223.808 42.764C223.808 43.444 223.899 43.9427 224.08 44.26C224.284 44.5773 224.601 44.8153 225.032 44.974L223.91 48.476C222.799 48.3853 221.893 48.1473 221.19 47.762C220.487 47.354 219.943 46.7193 219.558 45.858C218.379 47.6713 216.566 48.578 214.118 48.578C212.327 48.578 210.899 48.0567 209.834 47.014C208.769 45.9713 208.236 44.6113 208.236 42.934C208.236 40.962 208.961 39.4547 210.412 38.412C211.863 37.3693 213.959 36.848 216.702 36.848H218.538V36.066C218.538 35.0007 218.311 34.2753 217.858 33.89C217.405 33.482 216.611 33.278 215.478 33.278C214.889 33.278 214.175 33.3687 213.336 33.55C212.497 33.7087 211.636 33.9353 210.752 34.23L209.528 30.694C210.661 30.2633 211.817 29.9347 212.996 29.708C214.197 29.4813 215.308 29.368 216.328 29.368C218.912 29.368 220.805 29.9007 222.006 30.966C223.207 32.0313 223.808 33.6293 223.808 35.76V42.764ZM215.682 44.736C216.906 44.736 217.858 44.158 218.538 43.002V39.806H217.212C215.988 39.806 215.07 40.0213 214.458 40.452C213.869 40.8827 213.574 41.5513 213.574 42.458C213.574 43.1833 213.755 43.75 214.118 44.158C214.503 44.5433 215.025 44.736 215.682 44.736ZM232.974 48.578C231.41 48.578 230.186 48.136 229.302 47.252C228.441 46.3453 228.01 45.0647 228.01 43.41V22.772L233.382 22.194V43.206C233.382 43.954 233.688 44.328 234.3 44.328C234.617 44.328 234.912 44.2713 235.184 44.158L236.238 47.966C235.263 48.374 234.175 48.578 232.974 48.578ZM255.325 31C254.146 31.476 252.412 31.714 250.123 31.714C251.301 32.2127 252.163 32.8247 252.707 33.55C253.251 34.2753 253.523 35.216 253.523 36.372C253.523 37.528 253.217 38.5707 252.605 39.5C251.993 40.4067 251.109 41.1207 249.953 41.642C248.819 42.1633 247.482 42.424 245.941 42.424C245.215 42.424 244.524 42.356 243.867 42.22C243.685 42.3107 243.538 42.458 243.425 42.662C243.334 42.8433 243.289 43.036 243.289 43.24C243.289 43.58 243.413 43.852 243.663 44.056C243.935 44.2373 244.467 44.328 245.261 44.328H247.981C249.363 44.328 250.576 44.5547 251.619 45.008C252.661 45.4613 253.466 46.0847 254.033 46.878C254.599 47.6713 254.883 48.5667 254.883 49.564C254.883 51.4453 254.067 52.9073 252.435 53.95C250.825 55.0153 248.491 55.548 245.431 55.548C243.232 55.548 241.498 55.31 240.229 54.834C238.959 54.3807 238.064 53.7347 237.543 52.896C237.044 52.0573 236.795 51.0033 236.795 49.734H241.623C241.623 50.278 241.725 50.7087 241.929 51.026C242.155 51.3433 242.552 51.5813 243.119 51.74C243.685 51.8987 244.501 51.978 245.567 51.978C247.04 51.978 248.06 51.7967 248.627 51.434C249.193 51.094 249.477 50.5953 249.477 49.938C249.477 49.394 249.261 48.9633 248.831 48.646C248.4 48.3287 247.754 48.17 246.893 48.17H244.275C242.416 48.17 241.022 47.8413 240.093 47.184C239.186 46.504 238.733 45.6427 238.733 44.6C238.733 43.9427 238.925 43.308 239.311 42.696C239.696 42.0613 240.217 41.54 240.875 41.132C239.741 40.52 238.914 39.806 238.393 38.99C237.894 38.1513 237.645 37.1427 237.645 35.964C237.645 33.9467 238.37 32.3487 239.821 31.17C241.271 29.9687 243.187 29.368 245.567 29.368C247.38 29.4133 248.91 29.232 250.157 28.824C251.426 28.416 252.729 27.8153 254.067 27.022L255.325 31ZM245.703 32.904C244.864 32.904 244.195 33.176 243.697 33.72C243.221 34.2413 242.983 34.9667 242.983 35.896C242.983 36.8707 243.221 37.63 243.697 38.174C244.195 38.6953 244.864 38.956 245.703 38.956C246.587 38.956 247.255 38.6953 247.709 38.174C248.185 37.6527 248.423 36.8707 248.423 35.828C248.423 33.8787 247.516 32.904 245.703 32.904ZM268.05 29.368C270.317 29.368 272.006 30.2067 273.116 31.884C274.227 33.5613 274.782 35.9073 274.782 38.922C274.782 40.7807 274.488 42.4467 273.898 43.92C273.332 45.3707 272.504 46.5153 271.416 47.354C270.328 48.17 269.059 48.578 267.608 48.578C265.795 48.578 264.333 47.9547 263.222 46.708V54.97L257.85 55.548V29.946H262.576L262.848 31.952C263.551 31.068 264.356 30.422 265.262 30.014C266.169 29.5833 267.098 29.368 268.05 29.368ZM265.976 44.634C268.13 44.634 269.206 42.7527 269.206 38.99C269.206 36.8593 268.968 35.386 268.492 34.57C268.016 33.7313 267.302 33.312 266.35 33.312C265.738 33.312 265.16 33.4933 264.616 33.856C264.095 34.2187 263.63 34.74 263.222 35.42V43.036C263.948 44.1013 264.866 44.634 265.976 44.634ZM292.578 42.764C292.578 43.444 292.669 43.9427 292.85 44.26C293.054 44.5773 293.372 44.8153 293.802 44.974L292.68 48.476C291.57 48.3853 290.663 48.1473 289.96 47.762C289.258 47.354 288.714 46.7193 288.328 45.858C287.15 47.6713 285.336 48.578 282.888 48.578C281.098 48.578 279.67 48.0567 278.604 47.014C277.539 45.9713 277.006 44.6113 277.006 42.934C277.006 40.962 277.732 39.4547 279.182 38.412C280.633 37.3693 282.73 36.848 285.472 36.848H287.308V36.066C287.308 35.0007 287.082 34.2753 286.628 33.89C286.175 33.482 285.382 33.278 284.248 33.278C283.659 33.278 282.945 33.3687 282.106 33.55C281.268 33.7087 280.406 33.9353 279.522 34.23L278.298 30.694C279.432 30.2633 280.588 29.9347 281.766 29.708C282.968 29.4813 284.078 29.368 285.098 29.368C287.682 29.368 289.575 29.9007 290.776 30.966C291.978 32.0313 292.578 33.6293 292.578 35.76V42.764ZM284.452 44.736C285.676 44.736 286.628 44.158 287.308 43.002V39.806H285.982C284.758 39.806 283.84 40.0213 283.228 40.452C282.639 40.8827 282.344 41.5513 282.344 42.458C282.344 43.1833 282.526 43.75 282.888 44.158C283.274 44.5433 283.795 44.736 284.452 44.736ZM301.744 48.578C300.18 48.578 298.956 48.136 298.072 47.252C297.211 46.3453 296.78 45.0647 296.78 43.41V22.772L302.152 22.194V43.206C302.152 43.954 302.458 44.328 303.07 44.328C303.388 44.328 303.682 44.2713 303.954 44.158L305.008 47.966C304.034 48.374 302.946 48.578 301.744 48.578ZM312.263 48.578C310.699 48.578 309.475 48.136 308.591 47.252C307.73 46.3453 307.299 45.0647 307.299 43.41V22.772L312.671 22.194V43.206C312.671 43.954 312.977 44.328 313.589 44.328C313.906 44.328 314.201 44.2713 314.473 44.158L315.527 47.966C314.552 48.374 313.464 48.578 312.263 48.578ZM323.36 29.946V48H317.988V29.946H323.36ZM320.64 20.426C321.569 20.426 322.328 20.7207 322.918 21.31C323.53 21.8767 323.836 22.602 323.836 23.486C323.836 24.37 323.53 25.1067 322.918 25.696C322.328 26.2627 321.569 26.546 320.64 26.546C319.71 26.546 318.951 26.2627 318.362 25.696C317.772 25.1067 317.478 24.37 317.478 23.486C317.478 22.602 317.772 21.8767 318.362 21.31C318.951 20.7207 319.71 20.426 320.64 20.426ZM45.602 91H40.128L39.72 81.786C39.6067 79.5873 39.55 77.6267 39.55 75.904C39.55 74.5893 39.584 73.3427 39.652 72.164L36.014 88.518H30.744L26.868 72.164C27.004 74.136 27.072 75.9947 27.072 77.74C27.072 79.0547 27.038 80.426 26.97 81.854L26.562 91H21.122L22.89 67.438H29.928L33.464 83.418L36.762 67.438H43.834L45.602 91ZM72.7555 91H67.2815L66.8735 81.786C66.7602 79.5873 66.7035 77.6267 66.7035 75.904C66.7035 74.5893 66.7375 73.3427 66.8055 72.164L63.1675 88.518H57.8975L54.0215 72.164C54.1575 74.136 54.2255 75.9947 54.2255 77.74C54.2255 79.0547 54.1915 80.426 54.1235 81.854L53.7155 91H48.2755L50.0435 67.438H57.0815L60.6175 83.418L63.9155 67.438H70.9875L72.7555 91ZM75.803 82.432V78.284H86.649V82.432H75.803ZM96.0577 65.194V91H90.6857V65.772L96.0577 65.194ZM107.21 72.946L101.736 80.868L107.652 91H101.6L96.2277 81.14L101.736 72.946H107.21ZM123.72 85.764C123.72 86.444 123.811 86.9427 123.992 87.26C124.196 87.5773 124.514 87.8153 124.944 87.974L123.822 91.476C122.712 91.3853 121.805 91.1473 121.102 90.762C120.4 90.354 119.856 89.7193 119.47 88.858C118.292 90.6713 116.478 91.578 114.03 91.578C112.24 91.578 110.812 91.0567 109.746 90.014C108.681 88.9713 108.148 87.6113 108.148 85.934C108.148 83.962 108.874 82.4547 110.324 81.412C111.775 80.3693 113.872 79.848 116.614 79.848H118.45V79.066C118.45 78.0007 118.224 77.2753 117.77 76.89C117.317 76.482 116.524 76.278 115.39 76.278C114.801 76.278 114.087 76.3687 113.248 76.55C112.41 76.7087 111.548 76.9353 110.664 77.23L109.44 73.694C110.574 73.2633 111.73 72.9347 112.908 72.708C114.11 72.4813 115.22 72.368 116.24 72.368C118.824 72.368 120.717 72.9007 121.918 73.966C123.12 75.0313 123.72 76.6293 123.72 78.76V85.764ZM115.594 87.736C116.818 87.736 117.77 87.158 118.45 86.002V82.806H117.124C115.9 82.806 114.982 83.0213 114.37 83.452C113.781 83.8827 113.486 84.5513 113.486 85.458C113.486 86.1833 113.668 86.75 114.03 87.158C114.416 87.5433 114.937 87.736 115.594 87.736ZM138.216 72.436C138.874 72.436 139.474 72.5153 140.018 72.674L139.168 77.876C138.488 77.7173 137.944 77.638 137.536 77.638C136.471 77.638 135.655 78.012 135.088 78.76C134.544 79.4853 134.114 80.5847 133.796 82.058V91H128.424V72.946H133.116L133.558 76.448C133.966 75.2013 134.578 74.2267 135.394 73.524C136.233 72.7987 137.174 72.436 138.216 72.436ZM147.868 72.946V91H142.496V72.946H147.868ZM145.148 63.426C146.077 63.426 146.837 63.7207 147.426 64.31C148.038 64.8767 148.344 65.602 148.344 66.486C148.344 67.37 148.038 68.1067 147.426 68.696C146.837 69.2627 146.077 69.546 145.148 69.546C144.219 69.546 143.459 69.2627 142.87 68.696C142.281 68.1067 141.986 67.37 141.986 66.486C141.986 65.602 142.281 64.8767 142.87 64.31C143.459 63.7207 144.219 63.426 145.148 63.426ZM157.889 65.194V91H152.517V65.772L157.889 65.194ZM169.041 72.946L163.567 80.868L169.483 91H163.431L158.059 81.14L163.567 72.946H169.041ZM185.551 85.764C185.551 86.444 185.642 86.9427 185.823 87.26C186.027 87.5773 186.345 87.8153 186.775 87.974L185.653 91.476C184.543 91.3853 183.636 91.1473 182.933 90.762C182.231 90.354 181.687 89.7193 181.301 88.858C180.123 90.6713 178.309 91.578 175.861 91.578C174.071 91.578 172.643 91.0567 171.577 90.014C170.512 88.9713 169.979 87.6113 169.979 85.934C169.979 83.962 170.705 82.4547 172.155 81.412C173.606 80.3693 175.703 79.848 178.445 79.848H180.281V79.066C180.281 78.0007 180.055 77.2753 179.601 76.89C179.148 76.482 178.355 76.278 177.221 76.278C176.632 76.278 175.918 76.3687 175.079 76.55C174.241 76.7087 173.379 76.9353 172.495 77.23L171.271 73.694C172.405 73.2633 173.561 72.9347 174.739 72.708C175.941 72.4813 177.051 72.368 178.071 72.368C180.655 72.368 182.548 72.9007 183.749 73.966C184.951 75.0313 185.551 76.6293 185.551 78.76V85.764ZM177.425 87.736C178.649 87.736 179.601 87.158 180.281 86.002V82.806H178.955C177.731 82.806 176.813 83.0213 176.201 83.452C175.612 83.8827 175.317 84.5513 175.317 85.458C175.317 86.1833 175.499 86.75 175.861 87.158C176.247 87.5433 176.768 87.736 177.425 87.736ZM195.55 66.86C197.137 66.86 198.485 67.1207 199.596 67.642C200.729 68.1407 201.579 68.8207 202.146 69.682C202.713 70.5433 202.996 71.4953 202.996 72.538C202.996 73.4673 202.826 74.2607 202.486 74.918C202.169 75.5753 201.783 76.108 201.33 76.516C200.877 76.924 200.276 77.4 199.528 77.944C198.621 78.556 197.953 79.1113 197.522 79.61C197.091 80.086 196.876 80.7093 196.876 81.48V82.33H191.98V81.276C191.98 80.2107 192.139 79.3153 192.456 78.59C192.796 77.842 193.193 77.264 193.646 76.856C194.122 76.4253 194.711 75.9607 195.414 75.462C196.094 75.0087 196.593 74.612 196.91 74.272C197.227 73.932 197.386 73.5127 197.386 73.014C197.386 72.402 197.171 71.926 196.74 71.586C196.332 71.246 195.754 71.076 195.006 71.076C193.578 71.076 192.252 71.7673 191.028 73.15L187.594 70.498C189.657 68.0727 192.309 66.86 195.55 66.86ZM194.496 85.424C195.335 85.424 196.049 85.73 196.638 86.342C197.25 86.9313 197.556 87.6453 197.556 88.484C197.556 89.3453 197.25 90.082 196.638 90.694C196.049 91.2833 195.335 91.578 194.496 91.578C193.657 91.578 192.932 91.2833 192.32 90.694C191.731 90.082 191.436 89.3453 191.436 88.484C191.436 87.6453 191.731 86.9313 192.32 86.342C192.932 85.73 193.657 85.424 194.496 85.424Z" fill="#D7FF00"/>
<path d="M21.0568 112.812V110.545H34.5653V112.812H29.1193V128H26.4943V112.812H21.0568ZM40.7895 128.264C39.4997 128.264 38.3889 127.989 37.4571 127.438C36.531 126.881 35.8151 126.099 35.3094 125.094C34.8094 124.082 34.5594 122.898 34.5594 121.54C34.5594 120.199 34.8094 119.017 35.3094 117.994C35.8151 116.972 36.5196 116.173 37.423 115.599C38.3321 115.026 39.3946 114.739 40.6105 114.739C41.3491 114.739 42.0651 114.861 42.7582 115.105C43.4514 115.349 44.0736 115.733 44.6247 116.256C45.1759 116.778 45.6105 117.457 45.9287 118.293C46.2469 119.122 46.406 120.131 46.406 121.318V122.222H35.9997V120.312H43.9088C43.9088 119.642 43.7724 119.048 43.4997 118.531C43.227 118.009 42.8435 117.597 42.3491 117.295C41.8605 116.994 41.2866 116.844 40.6276 116.844C39.9116 116.844 39.2866 117.02 38.7526 117.372C38.2241 117.719 37.8151 118.173 37.5253 118.736C37.2412 119.293 37.0991 119.898 37.0991 120.551V122.043C37.0991 122.918 37.2526 123.662 37.5594 124.276C37.8719 124.889 38.3065 125.358 38.8634 125.682C39.4202 126 40.0707 126.159 40.8151 126.159C41.298 126.159 41.7384 126.091 42.1361 125.955C42.5338 125.812 42.8776 125.602 43.1673 125.324C43.4571 125.045 43.6787 124.702 43.8321 124.293L46.244 124.727C46.0509 125.437 45.7043 126.06 45.2043 126.594C44.7099 127.122 44.0878 127.534 43.3378 127.83C42.5935 128.119 41.744 128.264 40.7895 128.264ZM54.5754 128.264C53.2857 128.264 52.1749 127.989 51.243 127.438C50.3169 126.881 49.601 126.099 49.0953 125.094C48.5953 124.082 48.3453 122.898 48.3453 121.54C48.3453 120.199 48.5953 119.017 49.0953 117.994C49.601 116.972 50.3055 116.173 51.2089 115.599C52.118 115.026 53.1805 114.739 54.3964 114.739C55.1351 114.739 55.851 114.861 56.5442 115.105C57.2374 115.349 57.8595 115.733 58.4107 116.256C58.9618 116.778 59.3964 117.457 59.7146 118.293C60.0328 119.122 60.1919 120.131 60.1919 121.318V122.222H49.7857V120.312H57.6947C57.6947 119.642 57.5584 119.048 57.2857 118.531C57.0129 118.009 56.6294 117.597 56.1351 117.295C55.6464 116.994 55.0726 116.844 54.4135 116.844C53.6976 116.844 53.0726 117.02 52.5385 117.372C52.0101 117.719 51.601 118.173 51.3112 118.736C51.0271 119.293 50.8851 119.898 50.8851 120.551V122.043C50.8851 122.918 51.0385 123.662 51.3453 124.276C51.6578 124.889 52.0925 125.358 52.6493 125.682C53.2061 126 53.8567 126.159 54.601 126.159C55.0839 126.159 55.5243 126.091 55.922 125.955C56.3197 125.812 56.6635 125.602 56.9533 125.324C57.243 125.045 57.4646 124.702 57.618 124.293L60.03 124.727C59.8368 125.437 59.4902 126.06 58.9902 126.594C58.4959 127.122 57.8737 127.534 57.1237 127.83C56.3794 128.119 55.53 128.264 54.5754 128.264ZM74.2851 128.264C73.0578 128.264 71.9868 127.983 71.072 127.42C70.1572 126.858 69.447 126.071 68.9413 125.06C68.4357 124.048 68.1828 122.866 68.1828 121.514C68.1828 120.156 68.4357 118.969 68.9413 117.952C69.447 116.935 70.1572 116.145 71.072 115.582C71.9868 115.02 73.0578 114.739 74.2851 114.739C75.5124 114.739 76.5834 115.02 77.4982 115.582C78.4129 116.145 79.1232 116.935 79.6288 117.952C80.1345 118.969 80.3874 120.156 80.3874 121.514C80.3874 122.866 80.1345 124.048 79.6288 125.06C79.1232 126.071 78.4129 126.858 77.4982 127.42C76.5834 127.983 75.5124 128.264 74.2851 128.264ZM74.2936 126.125C75.0891 126.125 75.7482 125.915 76.2709 125.494C76.7936 125.074 77.18 124.514 77.43 123.815C77.6857 123.116 77.8135 122.347 77.8135 121.506C77.8135 120.67 77.6857 119.903 77.43 119.205C77.18 118.5 76.7936 117.935 76.2709 117.509C75.7482 117.082 75.0891 116.869 74.2936 116.869C73.4925 116.869 72.8277 117.082 72.2993 117.509C71.7766 117.935 71.3874 118.5 71.1317 119.205C70.8817 119.903 70.7567 120.67 70.7567 121.506C70.7567 122.347 70.8817 123.116 71.1317 123.815C71.3874 124.514 71.7766 125.074 72.2993 125.494C72.8277 125.915 73.4925 126.125 74.2936 126.125ZM82.9318 128V114.909H85.3778V117.04H85.5398C85.8125 116.318 86.2585 115.756 86.8778 115.352C87.4972 114.943 88.2386 114.739 89.1023 114.739C89.9773 114.739 90.7102 114.943 91.3011 115.352C91.8977 115.761 92.3381 116.324 92.6222 117.04H92.7585C93.071 116.341 93.5682 115.784 94.25 115.369C94.9318 114.949 95.7443 114.739 96.6875 114.739C97.875 114.739 98.8438 115.111 99.5938 115.855C100.349 116.599 100.727 117.722 100.727 119.222V128H98.179V119.46C98.179 118.574 97.9375 117.932 97.4545 117.534C96.9716 117.136 96.3949 116.938 95.7244 116.938C94.8949 116.938 94.25 117.193 93.7898 117.705C93.3295 118.21 93.0994 118.861 93.0994 119.656V128H90.5597V119.298C90.5597 118.588 90.3381 118.017 89.8949 117.585C89.4517 117.153 88.875 116.938 88.1648 116.938C87.6818 116.938 87.2358 117.065 86.8267 117.321C86.4233 117.571 86.0966 117.92 85.8466 118.369C85.6023 118.818 85.4801 119.338 85.4801 119.929V128H82.9318ZM107.652 128.29C106.823 128.29 106.073 128.136 105.402 127.83C104.732 127.517 104.201 127.065 103.809 126.474C103.422 125.884 103.229 125.159 103.229 124.301C103.229 123.562 103.371 122.955 103.655 122.477C103.939 122 104.323 121.622 104.806 121.344C105.289 121.065 105.829 120.855 106.425 120.713C107.022 120.571 107.63 120.463 108.249 120.389C109.033 120.298 109.669 120.224 110.158 120.168C110.647 120.105 111.002 120.006 111.223 119.869C111.445 119.733 111.556 119.511 111.556 119.205V119.145C111.556 118.401 111.346 117.824 110.925 117.415C110.51 117.006 109.891 116.801 109.067 116.801C108.209 116.801 107.533 116.991 107.039 117.372C106.55 117.747 106.212 118.165 106.025 118.625L103.63 118.08C103.914 117.284 104.329 116.642 104.874 116.153C105.425 115.659 106.059 115.301 106.775 115.08C107.49 114.852 108.243 114.739 109.033 114.739C109.556 114.739 110.11 114.801 110.695 114.926C111.286 115.045 111.837 115.267 112.348 115.591C112.865 115.915 113.289 116.378 113.618 116.98C113.948 117.577 114.113 118.352 114.113 119.307V128H111.624V126.21H111.522C111.357 126.54 111.11 126.864 110.78 127.182C110.451 127.5 110.027 127.764 109.51 127.974C108.993 128.185 108.374 128.29 107.652 128.29ZM108.206 126.244C108.911 126.244 109.513 126.105 110.013 125.827C110.519 125.548 110.902 125.185 111.164 124.736C111.431 124.281 111.564 123.795 111.564 123.278V121.591C111.473 121.682 111.297 121.767 111.036 121.847C110.78 121.92 110.488 121.986 110.158 122.043C109.829 122.094 109.508 122.142 109.195 122.188C108.883 122.227 108.621 122.261 108.411 122.29C107.917 122.352 107.465 122.457 107.056 122.605C106.652 122.753 106.329 122.966 106.084 123.244C105.846 123.517 105.726 123.881 105.726 124.335C105.726 124.966 105.959 125.443 106.425 125.767C106.891 126.085 107.485 126.244 108.206 126.244ZM128.9 128.264C127.611 128.264 126.5 127.989 125.568 127.438C124.642 126.881 123.926 126.099 123.42 125.094C122.92 124.082 122.67 122.898 122.67 121.54C122.67 120.199 122.92 119.017 123.42 117.994C123.926 116.972 124.631 116.173 125.534 115.599C126.443 115.026 127.506 114.739 128.721 114.739C129.46 114.739 130.176 114.861 130.869 115.105C131.562 115.349 132.185 115.733 132.736 116.256C133.287 116.778 133.721 117.457 134.04 118.293C134.358 119.122 134.517 120.131 134.517 121.318V122.222H124.111V120.312H132.02C132.02 119.642 131.883 119.048 131.611 118.531C131.338 118.009 130.954 117.597 130.46 117.295C129.971 116.994 129.398 116.844 128.738 116.844C128.023 116.844 127.398 117.02 126.863 117.372C126.335 117.719 125.926 118.173 125.636 118.736C125.352 119.293 125.21 119.898 125.21 120.551V122.043C125.21 122.918 125.363 123.662 125.67 124.276C125.983 124.889 126.417 125.358 126.974 125.682C127.531 126 128.182 126.159 128.926 126.159C129.409 126.159 129.849 126.091 130.247 125.955C130.645 125.812 130.988 125.602 131.278 125.324C131.568 125.045 131.79 124.702 131.943 124.293L134.355 124.727C134.162 125.437 133.815 126.06 133.315 126.594C132.821 127.122 132.199 127.534 131.449 127.83C130.704 128.119 129.855 128.264 128.9 128.264ZM139.593 120.227V128H137.044V114.909H139.49V117.04H139.652C139.953 116.347 140.425 115.79 141.067 115.369C141.715 114.949 142.53 114.739 143.513 114.739C144.405 114.739 145.186 114.926 145.857 115.301C146.527 115.67 147.047 116.222 147.416 116.955C147.786 117.687 147.97 118.594 147.97 119.673V128H145.422V119.98C145.422 119.031 145.175 118.29 144.681 117.756C144.186 117.216 143.507 116.946 142.644 116.946C142.053 116.946 141.527 117.074 141.067 117.33C140.613 117.585 140.252 117.96 139.985 118.455C139.723 118.943 139.593 119.534 139.593 120.227ZM153.636 120.227V128H151.088V114.909H153.534V117.04H153.696C153.997 116.347 154.469 115.79 155.111 115.369C155.759 114.949 156.574 114.739 157.557 114.739C158.449 114.739 159.23 114.926 159.901 115.301C160.571 115.67 161.091 116.222 161.46 116.955C161.83 117.687 162.014 118.594 162.014 119.673V128H159.466V119.98C159.466 119.031 159.219 118.29 158.724 117.756C158.23 117.216 157.551 116.946 156.688 116.946C156.097 116.946 155.571 117.074 155.111 117.33C154.656 117.585 154.295 117.96 154.028 118.455C153.767 118.943 153.636 119.534 153.636 120.227ZM173.424 122.571V114.909H175.981V128H173.476V125.733H173.339C173.038 126.432 172.555 127.014 171.89 127.48C171.231 127.94 170.41 128.17 169.427 128.17C168.586 128.17 167.842 127.986 167.194 127.616C166.552 127.241 166.047 126.688 165.677 125.955C165.314 125.222 165.132 124.315 165.132 123.236V114.909H167.68V122.929C167.68 123.821 167.927 124.531 168.422 125.06C168.916 125.588 169.558 125.852 170.348 125.852C170.825 125.852 171.299 125.733 171.771 125.494C172.248 125.256 172.643 124.895 172.956 124.412C173.274 123.929 173.43 123.315 173.424 122.571ZM188.915 118.105L186.605 118.514C186.509 118.219 186.355 117.937 186.145 117.67C185.94 117.403 185.662 117.185 185.31 117.014C184.958 116.844 184.517 116.759 183.989 116.759C183.267 116.759 182.665 116.92 182.182 117.244C181.699 117.562 181.458 117.974 181.458 118.48C181.458 118.918 181.619 119.27 181.943 119.537C182.267 119.804 182.79 120.023 183.511 120.193L185.591 120.67C186.796 120.949 187.693 121.378 188.284 121.957C188.875 122.537 189.171 123.29 189.171 124.216C189.171 125 188.943 125.699 188.489 126.312C188.04 126.92 187.412 127.398 186.605 127.744C185.804 128.091 184.875 128.264 183.818 128.264C182.352 128.264 181.156 127.952 180.23 127.327C179.304 126.696 178.736 125.801 178.526 124.642L180.989 124.267C181.142 124.909 181.458 125.395 181.935 125.724C182.412 126.048 183.034 126.21 183.801 126.21C184.636 126.21 185.304 126.037 185.804 125.69C186.304 125.338 186.554 124.909 186.554 124.403C186.554 123.994 186.401 123.651 186.094 123.372C185.793 123.094 185.33 122.884 184.705 122.741L182.489 122.256C181.267 121.977 180.364 121.534 179.779 120.926C179.199 120.318 178.909 119.548 178.909 118.616C178.909 117.844 179.125 117.168 179.557 116.588C179.989 116.009 180.585 115.557 181.347 115.233C182.108 114.903 182.98 114.739 183.963 114.739C185.378 114.739 186.492 115.045 187.304 115.659C188.117 116.267 188.654 117.082 188.915 118.105ZM197.783 114.909V116.955H190.633V114.909H197.783ZM192.55 111.773H195.099V124.156C195.099 124.651 195.172 125.023 195.32 125.273C195.468 125.517 195.658 125.685 195.891 125.776C196.13 125.861 196.388 125.903 196.667 125.903C196.871 125.903 197.05 125.889 197.204 125.861C197.357 125.832 197.476 125.81 197.562 125.793L198.022 127.898C197.874 127.955 197.664 128.011 197.391 128.068C197.118 128.131 196.778 128.165 196.368 128.17C195.698 128.182 195.073 128.062 194.493 127.812C193.914 127.562 193.445 127.176 193.087 126.653C192.729 126.131 192.55 125.474 192.55 124.685V111.773ZM208.595 122.571V114.909H211.152V128H208.646V125.733H208.51C208.208 126.432 207.725 127.014 207.061 127.48C206.402 127.94 205.581 128.17 204.598 128.17C203.757 128.17 203.012 127.986 202.365 127.616C201.723 127.241 201.217 126.688 200.848 125.955C200.484 125.222 200.302 124.315 200.302 123.236V114.909H202.85V122.929C202.85 123.821 203.098 124.531 203.592 125.06C204.086 125.588 204.728 125.852 205.518 125.852C205.995 125.852 206.47 125.733 206.941 125.494C207.419 125.256 207.813 124.895 208.126 124.412C208.444 123.929 208.6 123.315 208.595 122.571ZM224.085 118.105L221.776 118.514C221.679 118.219 221.526 117.937 221.315 117.67C221.111 117.403 220.832 117.185 220.48 117.014C220.128 116.844 219.688 116.759 219.159 116.759C218.438 116.759 217.835 116.92 217.352 117.244C216.869 117.562 216.628 117.974 216.628 118.48C216.628 118.918 216.79 119.27 217.114 119.537C217.438 119.804 217.96 120.023 218.682 120.193L220.761 120.67C221.966 120.949 222.864 121.378 223.455 121.957C224.045 122.537 224.341 123.29 224.341 124.216C224.341 125 224.114 125.699 223.659 126.312C223.21 126.92 222.582 127.398 221.776 127.744C220.974 128.091 220.045 128.264 218.989 128.264C217.523 128.264 216.327 127.952 215.401 127.327C214.474 126.696 213.906 125.801 213.696 124.642L216.159 124.267C216.313 124.909 216.628 125.395 217.105 125.724C217.582 126.048 218.205 126.21 218.972 126.21C219.807 126.21 220.474 126.037 220.974 125.69C221.474 125.338 221.724 124.909 221.724 124.403C221.724 123.994 221.571 123.651 221.264 123.372C220.963 123.094 220.5 122.884 219.875 122.741L217.659 122.256C216.438 121.977 215.534 121.534 214.949 120.926C214.369 120.318 214.08 119.548 214.08 118.616C214.08 117.844 214.295 117.168 214.727 116.588C215.159 116.009 215.756 115.557 216.517 115.233C217.278 114.903 218.151 114.739 219.134 114.739C220.548 114.739 221.662 115.045 222.474 115.659C223.287 116.267 223.824 117.082 224.085 118.105ZM232.894 114.909H235.443V128.852C235.443 129.727 235.284 130.466 234.965 131.068C234.653 131.67 234.187 132.128 233.568 132.44C232.954 132.753 232.195 132.909 231.292 132.909C231.201 132.909 231.116 132.909 231.036 132.909C230.951 132.909 230.863 132.906 230.772 132.901V130.71C230.852 130.71 230.923 130.71 230.985 130.71C231.042 130.71 231.107 130.71 231.181 130.71C231.784 130.71 232.218 130.548 232.485 130.224C232.758 129.906 232.894 129.443 232.894 128.835V114.909ZM234.156 112.889C233.712 112.889 233.332 112.741 233.014 112.446C232.701 112.145 232.545 111.787 232.545 111.372C232.545 110.952 232.701 110.594 233.014 110.298C233.332 109.997 233.712 109.847 234.156 109.847C234.599 109.847 234.977 109.997 235.289 110.298C235.607 110.594 235.766 110.952 235.766 111.372C235.766 111.787 235.607 112.145 235.289 112.446C234.977 112.741 234.599 112.889 234.156 112.889ZM242.381 128.29C241.551 128.29 240.801 128.136 240.131 127.83C239.46 127.517 238.929 127.065 238.537 126.474C238.15 125.884 237.957 125.159 237.957 124.301C237.957 123.562 238.099 122.955 238.383 122.477C238.667 122 239.051 121.622 239.534 121.344C240.017 121.065 240.557 120.855 241.153 120.713C241.75 120.571 242.358 120.463 242.977 120.389C243.761 120.298 244.398 120.224 244.886 120.168C245.375 120.105 245.73 120.006 245.952 119.869C246.173 119.733 246.284 119.511 246.284 119.205V119.145C246.284 118.401 246.074 117.824 245.653 117.415C245.239 117.006 244.619 116.801 243.795 116.801C242.937 116.801 242.261 116.991 241.767 117.372C241.278 117.747 240.94 118.165 240.753 118.625L238.358 118.08C238.642 117.284 239.057 116.642 239.602 116.153C240.153 115.659 240.787 115.301 241.503 115.08C242.219 114.852 242.971 114.739 243.761 114.739C244.284 114.739 244.838 114.801 245.423 114.926C246.014 115.045 246.565 115.267 247.077 115.591C247.594 115.915 248.017 116.378 248.346 116.98C248.676 117.577 248.841 118.352 248.841 119.307V128H246.352V126.21H246.25C246.085 126.54 245.838 126.864 245.508 127.182C245.179 127.5 244.756 127.764 244.239 127.974C243.721 128.185 243.102 128.29 242.381 128.29ZM242.935 126.244C243.639 126.244 244.241 126.105 244.741 125.827C245.247 125.548 245.631 125.185 245.892 124.736C246.159 124.281 246.292 123.795 246.292 123.278V121.591C246.202 121.682 246.025 121.767 245.764 121.847C245.508 121.92 245.216 121.986 244.886 122.043C244.557 122.094 244.236 122.142 243.923 122.188C243.611 122.227 243.349 122.261 243.139 122.29C242.645 122.352 242.193 122.457 241.784 122.605C241.381 122.753 241.057 122.966 240.812 123.244C240.574 123.517 240.454 123.881 240.454 124.335C240.454 124.966 240.687 125.443 241.153 125.767C241.619 126.085 242.213 126.244 242.935 126.244ZM263.501 128.264C262.273 128.264 261.202 127.983 260.288 127.42C259.373 126.858 258.663 126.071 258.157 125.06C257.651 124.048 257.398 122.866 257.398 121.514C257.398 120.156 257.651 118.969 258.157 117.952C258.663 116.935 259.373 116.145 260.288 115.582C261.202 115.02 262.273 114.739 263.501 114.739C264.728 114.739 265.799 115.02 266.714 115.582C267.629 116.145 268.339 116.935 268.844 117.952C269.35 118.969 269.603 120.156 269.603 121.514C269.603 122.866 269.35 124.048 268.844 125.06C268.339 126.071 267.629 126.858 266.714 127.42C265.799 127.983 264.728 128.264 263.501 128.264ZM263.509 126.125C264.305 126.125 264.964 125.915 265.487 125.494C266.009 125.074 266.396 124.514 266.646 123.815C266.901 123.116 267.029 122.347 267.029 121.506C267.029 120.67 266.901 119.903 266.646 119.205C266.396 118.5 266.009 117.935 265.487 117.509C264.964 117.082 264.305 116.869 263.509 116.869C262.708 116.869 262.043 117.082 261.515 117.509C260.992 117.935 260.603 118.5 260.347 119.205C260.097 119.903 259.972 120.67 259.972 121.506C259.972 122.347 260.097 123.116 260.347 123.815C260.603 124.514 260.992 125.074 261.515 125.494C262.043 125.915 262.708 126.125 263.509 126.125ZM281.957 118.105L279.647 118.514C279.551 118.219 279.397 117.937 279.187 117.67C278.983 117.403 278.704 117.185 278.352 117.014C278 116.844 277.559 116.759 277.031 116.759C276.309 116.759 275.707 116.92 275.224 117.244C274.741 117.562 274.5 117.974 274.5 118.48C274.5 118.918 274.662 119.27 274.986 119.537C275.309 119.804 275.832 120.023 276.554 120.193L278.633 120.67C279.838 120.949 280.736 121.378 281.326 121.957C281.917 122.537 282.213 123.29 282.213 124.216C282.213 125 281.986 125.699 281.531 126.312C281.082 126.92 280.454 127.398 279.647 127.744C278.846 128.091 277.917 128.264 276.861 128.264C275.395 128.264 274.199 127.952 273.272 127.327C272.346 126.696 271.778 125.801 271.568 124.642L274.031 124.267C274.184 124.909 274.5 125.395 274.977 125.724C275.454 126.048 276.076 126.21 276.843 126.21C277.679 126.21 278.346 126.037 278.846 125.69C279.346 125.338 279.596 124.909 279.596 124.403C279.596 123.994 279.443 123.651 279.136 123.372C278.835 123.094 278.372 122.884 277.747 122.741L275.531 122.256C274.309 121.977 273.406 121.534 272.821 120.926C272.241 120.318 271.951 119.548 271.951 118.616C271.951 117.844 272.167 117.168 272.599 116.588C273.031 116.009 273.628 115.557 274.389 115.233C275.15 114.903 276.022 114.739 277.005 114.739C278.42 114.739 279.534 115.045 280.346 115.659C281.159 116.267 281.696 117.082 281.957 118.105ZM288.524 128.29C287.695 128.29 286.945 128.136 286.274 127.83C285.604 127.517 285.073 127.065 284.681 126.474C284.294 125.884 284.101 125.159 284.101 124.301C284.101 123.562 284.243 122.955 284.527 122.477C284.811 122 285.195 121.622 285.678 121.344C286.161 121.065 286.7 120.855 287.297 120.713C287.894 120.571 288.502 120.463 289.121 120.389C289.905 120.298 290.541 120.224 291.03 120.168C291.519 120.105 291.874 120.006 292.095 119.869C292.317 119.733 292.428 119.511 292.428 119.205V119.145C292.428 118.401 292.217 117.824 291.797 117.415C291.382 117.006 290.763 116.801 289.939 116.801C289.081 116.801 288.405 116.991 287.911 117.372C287.422 117.747 287.084 118.165 286.896 118.625L284.502 118.08C284.786 117.284 285.2 116.642 285.746 116.153C286.297 115.659 286.931 115.301 287.646 115.08C288.362 114.852 289.115 114.739 289.905 114.739C290.428 114.739 290.982 114.801 291.567 114.926C292.158 115.045 292.709 115.267 293.22 115.591C293.737 115.915 294.161 116.378 294.49 116.98C294.82 117.577 294.985 118.352 294.985 119.307V128H292.496V126.21H292.394C292.229 126.54 291.982 126.864 291.652 127.182C291.323 127.5 290.899 127.764 290.382 127.974C289.865 128.185 289.246 128.29 288.524 128.29ZM289.078 126.244C289.783 126.244 290.385 126.105 290.885 125.827C291.391 125.548 291.774 125.185 292.036 124.736C292.303 124.281 292.436 123.795 292.436 123.278V121.591C292.345 121.682 292.169 121.767 291.908 121.847C291.652 121.92 291.36 121.986 291.03 122.043C290.7 122.094 290.379 122.142 290.067 122.188C289.754 122.227 289.493 122.261 289.283 122.29C288.788 122.352 288.337 122.457 287.928 122.605C287.524 122.753 287.2 122.966 286.956 123.244C286.717 123.517 286.598 123.881 286.598 124.335C286.598 124.966 286.831 125.443 287.297 125.767C287.763 126.085 288.357 126.244 289.078 126.244ZM300.627 110.545V128H298.079V110.545H300.627ZM309.397 128.264C308.108 128.264 306.997 127.989 306.065 127.438C305.139 126.881 304.423 126.099 303.917 125.094C303.417 124.082 303.167 122.898 303.167 121.54C303.167 120.199 303.417 119.017 303.917 117.994C304.423 116.972 305.127 116.173 306.031 115.599C306.94 115.026 308.002 114.739 309.218 114.739C309.957 114.739 310.673 114.861 311.366 115.105C312.059 115.349 312.681 115.733 313.233 116.256C313.784 116.778 314.218 117.457 314.536 118.293C314.855 119.122 315.014 120.131 315.014 121.318V122.222H304.608V120.312H312.517C312.517 119.642 312.38 119.048 312.108 118.531C311.835 118.009 311.451 117.597 310.957 117.295C310.468 116.994 309.894 116.844 309.235 116.844C308.519 116.844 307.894 117.02 307.36 117.372C306.832 117.719 306.423 118.173 306.133 118.736C305.849 119.293 305.707 119.898 305.707 120.551V122.043C305.707 122.918 305.86 123.662 306.167 124.276C306.48 124.889 306.914 125.358 307.471 125.682C308.028 126 308.679 126.159 309.423 126.159C309.906 126.159 310.346 126.091 310.744 125.955C311.142 125.812 311.485 125.602 311.775 125.324C312.065 125.045 312.286 124.702 312.44 124.293L314.852 124.727C314.659 125.437 314.312 126.06 313.812 126.594C313.318 127.122 312.696 127.534 311.946 127.83C311.201 128.119 310.352 128.264 309.397 128.264ZM322.442 128.256C321.385 128.256 320.442 127.986 319.612 127.446C318.788 126.901 318.141 126.125 317.669 125.119C317.203 124.108 316.97 122.895 316.97 121.48C316.97 120.065 317.206 118.855 317.678 117.849C318.155 116.844 318.808 116.074 319.638 115.54C320.467 115.006 321.408 114.739 322.459 114.739C323.271 114.739 323.925 114.875 324.419 115.148C324.919 115.415 325.305 115.727 325.578 116.085C325.857 116.443 326.072 116.759 326.226 117.031H326.379V110.545H328.928V128H326.439V125.963H326.226C326.072 126.241 325.851 126.56 325.561 126.918C325.277 127.276 324.885 127.588 324.385 127.855C323.885 128.122 323.237 128.256 322.442 128.256ZM323.004 126.082C323.737 126.082 324.357 125.889 324.862 125.503C325.374 125.111 325.76 124.568 326.021 123.875C326.288 123.182 326.422 122.375 326.422 121.455C326.422 120.545 326.291 119.75 326.03 119.068C325.768 118.386 325.385 117.855 324.879 117.474C324.374 117.094 323.749 116.903 323.004 116.903C322.237 116.903 321.598 117.102 321.087 117.5C320.575 117.898 320.189 118.44 319.928 119.128C319.672 119.815 319.544 120.591 319.544 121.455C319.544 122.33 319.675 123.116 319.936 123.815C320.197 124.514 320.584 125.068 321.095 125.477C321.612 125.881 322.249 126.082 323.004 126.082Z" fill="#F5FCC4"/>
<path d="M27.7898 158.239C26.5852 158.239 25.5114 158.017 24.5682 157.574C23.6307 157.131 22.8864 156.52 22.3352 155.741C21.7841 154.963 21.4972 154.071 21.4744 153.065H25.054C25.0938 153.741 25.3778 154.29 25.9062 154.71C26.4347 155.131 27.0625 155.341 27.7898 155.341C28.3693 155.341 28.8807 155.213 29.3239 154.957C29.7727 154.696 30.1222 154.335 30.3722 153.875C30.6278 153.409 30.7557 152.875 30.7557 152.273C30.7557 151.659 30.625 151.119 30.3636 150.653C30.108 150.187 29.7528 149.824 29.2983 149.562C28.8438 149.301 28.3239 149.168 27.7386 149.162C27.2273 149.162 26.7301 149.267 26.2472 149.477C25.7699 149.687 25.3977 149.974 25.1307 150.338L21.8494 149.75L22.6761 140.545H33.3466V143.562H25.7188L25.267 147.935H25.3693C25.6761 147.503 26.1392 147.145 26.7585 146.861C27.3778 146.577 28.071 146.435 28.8381 146.435C29.8892 146.435 30.8267 146.682 31.6506 147.176C32.4744 147.67 33.125 148.349 33.6023 149.213C34.0795 150.071 34.3153 151.06 34.3097 152.179C34.3153 153.355 34.0426 154.401 33.4915 155.315C32.946 156.224 32.1818 156.94 31.1989 157.463C30.2216 157.98 29.0852 158.239 27.7898 158.239ZM52.5513 155.58L42.3666 145.412L44.5996 143.153L54.7928 153.347L52.5513 155.58ZM44.5996 155.58L42.3666 153.347L52.5513 143.153L54.7928 145.412L44.5996 155.58ZM70.6991 140.545V158H67.0088V144.048H66.9065L62.9094 146.554V143.281L67.2304 140.545H70.6991ZM81.3913 158.384C79.9254 158.378 78.6641 158.017 77.6072 157.301C76.5561 156.585 75.7464 155.548 75.1783 154.19C74.6158 152.832 74.3374 151.199 74.343 149.29C74.343 147.386 74.6243 145.764 75.1868 144.423C75.755 143.082 76.5646 142.062 77.6158 141.364C78.6726 140.659 79.9311 140.307 81.3913 140.307C82.8516 140.307 84.1072 140.659 85.1584 141.364C86.2152 142.068 87.0277 143.091 87.5959 144.432C88.1641 145.767 88.4453 147.386 88.4396 149.29C88.4396 151.205 88.1555 152.841 87.5874 154.199C87.0249 155.557 86.218 156.594 85.1669 157.31C84.1158 158.026 82.8572 158.384 81.3913 158.384ZM81.3913 155.324C82.3913 155.324 83.1896 154.821 83.7862 153.815C84.3828 152.81 84.6783 151.301 84.6726 149.29C84.6726 147.966 84.5362 146.864 84.2635 145.983C83.9964 145.102 83.6158 144.44 83.1214 143.997C82.6328 143.554 82.0561 143.332 81.3913 143.332C80.397 143.332 79.6016 143.83 79.005 144.824C78.4084 145.818 78.1072 147.307 78.1016 149.29C78.1016 150.631 78.2351 151.75 78.5021 152.648C78.7749 153.54 79.1584 154.21 79.6527 154.659C80.147 155.102 80.7266 155.324 81.3913 155.324ZM97.6148 158.384C96.1489 158.378 94.8875 158.017 93.8307 157.301C92.7795 156.585 91.9699 155.548 91.4017 154.19C90.8392 152.832 90.5608 151.199 90.5665 149.29C90.5665 147.386 90.8477 145.764 91.4102 144.423C91.9784 143.082 92.7881 142.062 93.8392 141.364C94.896 140.659 96.1545 140.307 97.6148 140.307C99.075 140.307 100.331 140.659 101.382 141.364C102.439 142.068 103.251 143.091 103.819 144.432C104.387 145.767 104.669 147.386 104.663 149.29C104.663 151.205 104.379 152.841 103.811 154.199C103.248 155.557 102.441 156.594 101.39 157.31C100.339 158.026 99.0807 158.384 97.6148 158.384ZM97.6148 155.324C98.6148 155.324 99.4131 154.821 100.01 153.815C100.606 152.81 100.902 151.301 100.896 149.29C100.896 147.966 100.76 146.864 100.487 145.983C100.22 145.102 99.8392 144.44 99.3449 143.997C98.8562 143.554 98.2795 143.332 97.6148 143.332C96.6205 143.332 95.825 143.83 95.2284 144.824C94.6318 145.818 94.3307 147.307 94.325 149.29C94.325 150.631 94.4585 151.75 94.7256 152.648C94.9983 153.54 95.3818 154.21 95.8761 154.659C96.3705 155.102 96.95 155.324 97.6148 155.324ZM123.772 146.554L122.928 148.42H111.533L112.224 146.554H123.772ZM122.144 150.125L121.215 152.034H111.533L112.224 150.125H122.144ZM125.988 141.892L124.624 144.807C124.397 144.648 124.121 144.474 123.797 144.287C123.479 144.094 123.113 143.932 122.698 143.801C122.289 143.665 121.834 143.597 121.334 143.597C120.545 143.597 119.857 143.795 119.272 144.193C118.687 144.591 118.232 145.21 117.908 146.051C117.59 146.892 117.431 147.972 117.431 149.29C117.431 150.619 117.59 151.702 117.908 152.537C118.232 153.366 118.687 153.977 119.272 154.369C119.857 154.756 120.545 154.949 121.334 154.949C121.834 154.949 122.289 154.884 122.698 154.753C123.107 154.622 123.465 154.466 123.772 154.284C124.084 154.102 124.346 153.935 124.556 153.781L125.937 156.696C125.317 157.207 124.616 157.594 123.832 157.855C123.047 158.111 122.215 158.239 121.334 158.239C119.846 158.239 118.528 157.886 117.38 157.182C116.238 156.472 115.343 155.452 114.695 154.122C114.047 152.787 113.724 151.176 113.724 149.29C113.724 147.409 114.047 145.798 114.695 144.457C115.343 143.116 116.238 142.091 117.38 141.381C118.528 140.665 119.846 140.307 121.334 140.307C122.249 140.307 123.096 140.443 123.874 140.716C124.653 140.989 125.357 141.381 125.988 141.892ZM137.345 140.545V158H133.714V140.545H137.345ZM145.868 158.256C144.544 158.256 143.4 157.974 142.434 157.412C141.473 156.844 140.732 156.054 140.209 155.043C139.687 154.026 139.425 152.847 139.425 151.506C139.425 150.153 139.687 148.972 140.209 147.96C140.732 146.943 141.473 146.153 142.434 145.591C143.4 145.023 144.544 144.739 145.868 144.739C147.192 144.739 148.334 145.023 149.294 145.591C150.26 146.153 151.005 146.943 151.527 147.96C152.05 148.972 152.312 150.153 152.312 151.506C152.312 152.847 152.05 154.026 151.527 155.043C151.005 156.054 150.26 156.844 149.294 157.412C148.334 157.974 147.192 158.256 145.868 158.256ZM145.885 155.443C146.488 155.443 146.99 155.273 147.394 154.932C147.797 154.585 148.101 154.114 148.306 153.517C148.516 152.92 148.621 152.241 148.621 151.48C148.621 150.719 148.516 150.04 148.306 149.443C148.101 148.847 147.797 148.375 147.394 148.028C146.99 147.682 146.488 147.509 145.885 147.509C145.277 147.509 144.766 147.682 144.351 148.028C143.942 148.375 143.633 148.847 143.422 149.443C143.218 150.04 143.115 150.719 143.115 151.48C143.115 152.241 143.218 152.92 143.422 153.517C143.633 154.114 143.942 154.585 144.351 154.932C144.766 155.273 145.277 155.443 145.885 155.443ZM160.287 158.256C158.963 158.256 157.818 157.974 156.852 157.412C155.892 156.844 155.151 156.054 154.628 155.043C154.105 154.026 153.844 152.847 153.844 151.506C153.844 150.153 154.105 148.972 154.628 147.96C155.151 146.943 155.892 146.153 156.852 145.591C157.818 145.023 158.963 144.739 160.287 144.739C161.611 144.739 162.753 145.023 163.713 145.591C164.679 146.153 165.423 146.943 165.946 147.96C166.469 148.972 166.73 150.153 166.73 151.506C166.73 152.847 166.469 154.026 165.946 155.043C165.423 156.054 164.679 156.844 163.713 157.412C162.753 157.974 161.611 158.256 160.287 158.256ZM160.304 155.443C160.906 155.443 161.409 155.273 161.813 154.932C162.216 154.585 162.52 154.114 162.725 153.517C162.935 152.92 163.04 152.241 163.04 151.48C163.04 150.719 162.935 150.04 162.725 149.443C162.52 148.847 162.216 148.375 161.813 148.028C161.409 147.682 160.906 147.509 160.304 147.509C159.696 147.509 159.185 147.682 158.77 148.028C158.361 148.375 158.051 148.847 157.841 149.443C157.636 150.04 157.534 150.719 157.534 151.48C157.534 152.241 157.636 152.92 157.841 153.517C158.051 154.114 158.361 154.585 158.77 154.932C159.185 155.273 159.696 155.443 160.304 155.443ZM179.683 148.642L176.359 148.847C176.302 148.562 176.18 148.307 175.993 148.08C175.805 147.847 175.558 147.662 175.251 147.526C174.95 147.384 174.589 147.312 174.169 147.312C173.606 147.312 173.132 147.432 172.746 147.67C172.359 147.903 172.166 148.216 172.166 148.608C172.166 148.92 172.291 149.185 172.541 149.401C172.791 149.616 173.22 149.79 173.828 149.92L176.197 150.398C177.47 150.659 178.419 151.08 179.044 151.659C179.669 152.239 179.981 153 179.981 153.943C179.981 154.801 179.729 155.554 179.223 156.202C178.723 156.849 178.035 157.355 177.16 157.719C176.291 158.077 175.288 158.256 174.152 158.256C172.419 158.256 171.038 157.895 170.01 157.173C168.987 156.446 168.388 155.457 168.212 154.207L171.783 154.02C171.89 154.548 172.152 154.952 172.567 155.23C172.981 155.503 173.513 155.639 174.16 155.639C174.797 155.639 175.308 155.517 175.694 155.273C176.087 155.023 176.285 154.702 176.291 154.31C176.285 153.98 176.146 153.71 175.873 153.5C175.601 153.284 175.18 153.119 174.612 153.006L172.345 152.554C171.067 152.298 170.115 151.855 169.49 151.224C168.871 150.594 168.561 149.79 168.561 148.812C168.561 147.972 168.788 147.247 169.243 146.639C169.703 146.031 170.348 145.562 171.177 145.233C172.013 144.903 172.99 144.739 174.109 144.739C175.763 144.739 177.064 145.088 178.013 145.787C178.967 146.486 179.524 147.437 179.683 148.642ZM181.968 158V144.909H185.598V158H181.968ZM183.791 143.222C183.252 143.222 182.789 143.043 182.402 142.685C182.022 142.321 181.831 141.886 181.831 141.381C181.831 140.881 182.022 140.452 182.402 140.094C182.789 139.73 183.252 139.548 183.791 139.548C184.331 139.548 184.791 139.73 185.172 140.094C185.559 140.452 185.752 140.881 185.752 141.381C185.752 141.886 185.559 142.321 185.172 142.685C184.791 143.043 184.331 143.222 183.791 143.222ZM199.099 148.642L195.775 148.847C195.718 148.562 195.596 148.307 195.408 148.08C195.221 147.847 194.974 147.662 194.667 147.526C194.366 147.384 194.005 147.312 193.585 147.312C193.022 147.312 192.548 147.432 192.161 147.67C191.775 147.903 191.582 148.216 191.582 148.608C191.582 148.92 191.707 149.185 191.957 149.401C192.207 149.616 192.636 149.79 193.244 149.92L195.613 150.398C196.886 150.659 197.835 151.08 198.46 151.659C199.085 152.239 199.397 153 199.397 153.943C199.397 154.801 199.144 155.554 198.638 156.202C198.138 156.849 197.451 157.355 196.576 157.719C195.707 158.077 194.704 158.256 193.567 158.256C191.835 158.256 190.454 157.895 189.425 157.173C188.403 156.446 187.803 155.457 187.627 154.207L191.198 154.02C191.306 154.548 191.567 154.952 191.982 155.23C192.397 155.503 192.928 155.639 193.576 155.639C194.212 155.639 194.724 155.517 195.11 155.273C195.502 155.023 195.701 154.702 195.707 154.31C195.701 153.98 195.562 153.71 195.289 153.5C195.016 153.284 194.596 153.119 194.028 153.006L191.761 152.554C190.482 152.298 189.531 151.855 188.906 151.224C188.286 150.594 187.977 149.79 187.977 148.812C187.977 147.972 188.204 147.247 188.658 146.639C189.119 146.031 189.763 145.562 190.593 145.233C191.428 144.903 192.406 144.739 193.525 144.739C195.178 144.739 196.479 145.088 197.428 145.787C198.383 146.486 198.94 147.437 199.099 148.642ZM205.721 140.545L205.389 152.767H202.27L201.929 140.545H205.721ZM203.829 158.222C203.267 158.222 202.784 158.023 202.38 157.625C201.977 157.222 201.778 156.739 201.784 156.176C201.778 155.619 201.977 155.142 202.38 154.744C202.784 154.347 203.267 154.148 203.829 154.148C204.369 154.148 204.843 154.347 205.253 154.744C205.662 155.142 205.869 155.619 205.875 156.176C205.869 156.551 205.77 156.895 205.576 157.207C205.389 157.514 205.142 157.761 204.835 157.949C204.528 158.131 204.193 158.222 203.829 158.222Z" fill="#D7FF00"/>
<path d="M20 182C20 179.791 21.7909 178 24 178H177C179.209 178 181 179.791 181 182V223C181 225.209 179.209 227 177 227H24C21.7909 227 20 225.209 20 223V182Z" fill="#D7FF00"/>
<path d="M55.664 194.392L55.28 196.96H49.28V201.28H54.512V203.824H49.28V208.408H55.712V211H45.752V194.392H55.664ZM70.6597 211H66.1237L60.8437 197.824C60.9877 198.96 61.0997 200.032 61.1797 201.04C61.2757 202.032 61.3237 203.2 61.3237 204.544V211H58.1317V194.392H62.5717L67.9477 207.592C67.6277 205.448 67.4677 203.48 67.4677 201.688V194.392H70.6597V211ZM86.3909 211H81.8549L76.5749 197.824C76.7189 198.96 76.8309 200.032 76.9109 201.04C77.0069 202.032 77.0549 203.2 77.0549 204.544V211H73.8629V194.392H78.3029L83.6789 207.592C83.3589 205.448 83.1989 203.48 83.1989 201.688V194.392H86.3909V211ZM102.002 205.528C102.002 206.664 101.762 207.672 101.282 208.552C100.802 209.432 100.082 210.128 99.1222 210.64C98.1782 211.136 97.0262 211.384 95.6662 211.384C93.6182 211.384 92.0502 210.856 90.9622 209.8C89.8902 208.728 89.3542 207.304 89.3542 205.528V194.392H92.8822V205.36C92.8822 206.48 93.1062 207.32 93.5542 207.88C94.0022 208.424 94.7062 208.696 95.6662 208.696C96.6262 208.696 97.3302 208.424 97.7782 207.88C98.2422 207.32 98.4742 206.48 98.4742 205.36V194.392H102.002V205.528ZM109.921 194.008C111.121 194.008 112.161 194.184 113.041 194.536C113.937 194.872 114.761 195.392 115.513 196.096L113.833 198.04C113.241 197.56 112.649 197.208 112.057 196.984C111.465 196.76 110.833 196.648 110.161 196.648C109.425 196.648 108.833 196.808 108.385 197.128C107.953 197.432 107.737 197.872 107.737 198.448C107.737 198.848 107.825 199.176 108.001 199.432C108.193 199.688 108.521 199.928 108.985 200.152C109.449 200.376 110.145 200.632 111.073 200.92C112.721 201.448 113.953 202.104 114.769 202.888C115.585 203.656 115.993 204.76 115.993 206.2C115.993 207.224 115.737 208.128 115.225 208.912C114.713 209.68 113.969 210.288 112.993 210.736C112.017 211.168 110.873 211.384 109.561 211.384C108.249 211.384 107.081 211.176 106.057 210.76C105.033 210.344 104.153 209.776 103.417 209.056L105.217 207.064C105.857 207.608 106.521 208.024 107.209 208.312C107.897 208.584 108.649 208.72 109.465 208.72C110.329 208.72 111.017 208.52 111.529 208.12C112.057 207.72 112.321 207.16 112.321 206.44C112.321 205.992 112.225 205.624 112.033 205.336C111.857 205.032 111.545 204.76 111.097 204.52C110.649 204.28 110.001 204.032 109.153 203.776C107.345 203.216 106.049 202.544 105.265 201.76C104.497 200.976 104.113 199.952 104.113 198.688C104.113 197.76 104.361 196.944 104.857 196.24C105.353 195.52 106.041 194.968 106.921 194.584C107.801 194.2 108.801 194.008 109.921 194.008ZM128.627 194.392L128.243 197.152H124.043V211H120.515V197.152H116.099V194.392H128.627ZM137.72 211L136.784 207.28H131.576L130.64 211H126.968L132.08 194.392H136.376L141.464 211H137.72ZM132.248 204.664H136.112L134.168 197.008L132.248 204.664ZM155.227 211H150.691L145.411 197.824C145.555 198.96 145.667 200.032 145.747 201.04C145.843 202.032 145.891 203.2 145.891 204.544V211H142.699V194.392H147.139L152.515 207.592C152.195 205.448 152.035 203.48 152.035 201.688V194.392H155.227V211Z" fill="black"/>
</svg>
