<svg width="300" height="320" viewBox="0 0 300 320" fill="none" xmlns="http://www.w3.org/2000/svg">
<rect width="300" height="320" fill="#FFEBC4"/>
<path d="M34.792 31.596C36.692 31.596 38.3387 31.8747 39.732 32.432C41.1507 32.964 42.4553 33.7873 43.646 34.902L40.986 37.98C40.0487 37.22 39.1113 36.6627 38.174 36.308C37.2367 35.9533 36.236 35.776 35.172 35.776C34.0067 35.776 33.0693 36.0293 32.36 36.536C31.676 37.0173 31.334 37.714 31.334 38.626C31.334 39.2593 31.4733 39.7787 31.752 40.184C32.056 40.5893 32.5753 40.9693 33.31 41.324C34.0447 41.6787 35.1467 42.084 36.616 42.54C39.2253 43.376 41.176 44.4147 42.468 45.656C43.76 46.872 44.406 48.62 44.406 50.9C44.406 52.5213 44.0007 53.9527 43.19 55.194C42.3793 56.41 41.2013 57.3727 39.656 58.082C38.1107 58.766 36.2993 59.108 34.222 59.108C32.1447 59.108 30.2953 58.7787 28.674 58.12C27.0527 57.4613 25.6593 56.562 24.494 55.422L27.344 52.268C28.3573 53.1293 29.4087 53.788 30.498 54.244C31.5873 54.6747 32.778 54.89 34.07 54.89C35.438 54.89 36.5273 54.5733 37.338 53.94C38.174 53.3067 38.592 52.42 38.592 51.28C38.592 50.5707 38.44 49.988 38.136 49.532C37.8573 49.0507 37.3633 48.62 36.654 48.24C35.9447 47.86 34.9187 47.4673 33.576 47.062C30.7133 46.1753 28.6613 45.1113 27.42 43.87C26.204 42.6287 25.596 41.0073 25.596 39.006C25.596 37.5367 25.9887 36.2447 26.774 35.13C27.5593 33.99 28.6487 33.116 30.042 32.508C31.4353 31.9 33.0187 31.596 34.792 31.596ZM55.6703 37.752C58.685 37.752 61.041 38.702 62.7383 40.602C64.4357 42.4767 65.2843 45.086 65.2843 48.43C65.2843 50.558 64.8917 52.4327 64.1063 54.054C63.3463 55.65 62.2317 56.8913 60.7623 57.778C59.3183 58.6647 57.6083 59.108 55.6323 59.108C52.6177 59.108 50.249 58.1707 48.5263 56.296C46.829 54.396 45.9803 51.774 45.9803 48.43C45.9803 46.302 46.3603 44.44 47.1203 42.844C47.9057 41.2227 49.0203 39.9687 50.4643 39.082C51.9337 38.1953 53.669 37.752 55.6703 37.752ZM55.6703 41.78C54.3023 41.78 53.2763 42.3247 52.5923 43.414C51.9337 44.478 51.6043 46.15 51.6043 48.43C51.6043 50.71 51.9337 52.3947 52.5923 53.484C53.2763 54.548 54.2897 55.08 55.6323 55.08C56.975 55.08 57.9757 54.548 58.6343 53.484C59.3183 52.3947 59.6603 50.71 59.6603 48.43C59.6603 46.15 59.331 44.478 58.6723 43.414C58.0137 42.3247 57.013 41.78 55.6703 41.78ZM57.8363 34.18C57.3043 34.18 56.8357 34.0913 56.4303 33.914C56.0503 33.7367 55.5943 33.4833 55.0623 33.154C54.733 32.9007 54.4417 32.7233 54.1883 32.622C53.9603 32.4953 53.7197 32.432 53.4663 32.432C53.061 32.432 52.7063 32.5713 52.4023 32.85C52.0983 33.1287 51.7817 33.5593 51.4523 34.142L48.6783 32.774C49.185 31.5327 49.8437 30.5193 50.6543 29.734C51.465 28.9487 52.377 28.556 53.3903 28.556C53.973 28.556 54.467 28.6573 54.8723 28.86C55.2777 29.0373 55.7337 29.2907 56.2403 29.62C56.5697 29.848 56.8483 30.0253 57.0763 30.152C57.3043 30.2533 57.545 30.304 57.7983 30.304C58.2037 30.304 58.5457 30.1773 58.8243 29.924C59.1283 29.6453 59.4577 29.2147 59.8123 28.632L62.5863 30C62.0797 31.292 61.421 32.318 60.6103 33.078C59.7997 33.8127 58.875 34.18 57.8363 34.18ZM79.3437 37.752C81.6997 37.752 83.5237 38.6893 84.8157 40.564C86.1331 42.4387 86.7917 45.0607 86.7917 48.43C86.7917 50.5073 86.4624 52.3567 85.8037 53.978C85.1704 55.574 84.2457 56.828 83.0297 57.74C81.8391 58.652 80.4331 59.108 78.8117 59.108C76.6077 59.108 74.8471 58.2467 73.5297 56.524L73.2257 58.5H68.4377V30.342L73.8337 29.734V40.526C74.4671 39.6647 75.2651 38.9933 76.2277 38.512C77.1904 38.0053 78.2291 37.752 79.3437 37.752ZM77.2917 55.118C79.8757 55.118 81.1677 52.8887 81.1677 48.43C81.1677 45.9727 80.8511 44.25 80.2177 43.262C79.6097 42.2487 78.7231 41.742 77.5577 41.742C76.1137 41.742 74.8724 42.6033 73.8337 44.326V52.952C74.7204 54.396 75.8731 55.118 77.2917 55.118ZM100.536 37.79C101.144 37.79 101.816 37.8913 102.55 38.094L101.638 43.3C100.929 43.1227 100.334 43.034 99.8525 43.034C98.6618 43.034 97.7371 43.452 97.0785 44.288C96.4198 45.124 95.9005 46.3907 95.5205 48.088V58.5H90.1245V38.36H94.7985L95.2925 42.274C95.7738 40.8553 96.4705 39.7533 97.3825 38.968C98.3198 38.1827 99.3711 37.79 100.536 37.79ZM118.332 52.914C118.332 53.6993 118.446 54.282 118.674 54.662C118.902 55.0167 119.282 55.2827 119.814 55.46L118.674 59.032C117.483 58.9307 116.508 58.652 115.748 58.196C115.013 57.74 114.443 57.0307 114.038 56.068C112.721 58.0947 110.707 59.108 107.996 59.108C105.995 59.108 104.399 58.538 103.208 57.398C102.043 56.2327 101.46 54.7253 101.46 52.876C101.46 50.672 102.258 48.9873 103.854 47.822C105.45 46.6567 107.743 46.074 110.732 46.074H113.05V45.086C113.05 43.8447 112.771 42.9833 112.214 42.502C111.657 42.0207 110.732 41.78 109.44 41.78C108.021 41.78 106.248 42.1347 104.12 42.844L102.904 39.234C105.412 38.246 107.895 37.752 110.352 37.752C113.088 37.752 115.102 38.3473 116.394 39.538C117.686 40.7033 118.332 42.4513 118.332 44.782V52.914ZM109.478 55.232C110.998 55.232 112.189 54.4847 113.05 52.99V49.152H111.264C108.351 49.152 106.894 50.2413 106.894 52.42C106.894 53.3067 107.109 54.0033 107.54 54.51C107.996 54.9913 108.642 55.232 109.478 55.232ZM140.215 30.342V58.5H135.465L135.161 56.03C133.743 58.082 131.817 59.108 129.385 59.108C126.903 59.108 125.003 58.158 123.685 56.258C122.393 54.3327 121.747 51.7233 121.747 48.43C121.747 46.3527 122.077 44.516 122.735 42.92C123.419 41.2987 124.382 40.032 125.623 39.12C126.865 38.208 128.296 37.752 129.917 37.752C131.792 37.752 133.426 38.4233 134.819 39.766V29.734L140.215 30.342ZM130.981 55.08C131.767 55.08 132.463 54.89 133.071 54.51C133.679 54.1047 134.262 53.484 134.819 52.648V43.642C134.287 43.0087 133.743 42.54 133.185 42.236C132.653 41.9067 132.033 41.742 131.323 41.742C130.082 41.742 129.107 42.2867 128.397 43.376C127.713 44.4653 127.371 46.15 127.371 48.43C127.371 50.8367 127.675 52.5467 128.283 53.56C128.917 54.5733 129.816 55.08 130.981 55.08ZM157.915 59.108C156.268 59.108 154.989 58.6393 154.077 57.702C153.165 56.7393 152.709 55.384 152.709 53.636V30.342L158.105 29.734V53.484C158.105 54.3707 158.472 54.814 159.207 54.814C159.612 54.814 159.967 54.738 160.271 54.586L161.373 58.424C160.334 58.88 159.181 59.108 157.915 59.108ZM171.481 37.752C174.496 37.752 176.852 38.702 178.549 40.602C180.247 42.4767 181.095 45.086 181.095 48.43C181.095 50.558 180.703 52.4327 179.917 54.054C179.157 55.65 178.043 56.8913 176.573 57.778C175.129 58.6647 173.419 59.108 171.443 59.108C168.429 59.108 166.06 58.1707 164.337 56.296C162.64 54.396 161.791 51.774 161.791 48.43C161.791 46.302 162.171 44.44 162.931 42.844C163.717 41.2227 164.831 39.9687 166.275 39.082C167.745 38.1953 169.48 37.752 171.481 37.752ZM171.481 41.78C170.113 41.78 169.087 42.3247 168.403 43.414C167.745 44.478 167.415 46.15 167.415 48.43C167.415 50.71 167.745 52.3947 168.403 53.484C169.087 54.548 170.101 55.08 171.443 55.08C172.786 55.08 173.787 54.548 174.445 53.484C175.129 52.3947 175.471 50.71 175.471 48.43C175.471 46.15 175.142 44.478 174.483 43.414C173.825 42.3247 172.824 41.78 171.481 41.78ZM201.273 47.974C201.273 48.2273 201.235 48.924 201.159 50.064H188.581C188.758 51.888 189.252 53.18 190.063 53.94C190.873 54.7 191.975 55.08 193.369 55.08C194.23 55.08 195.041 54.9407 195.801 54.662C196.561 54.3833 197.384 53.94 198.271 53.332L200.513 56.372C198.258 58.196 195.712 59.108 192.875 59.108C189.708 59.108 187.276 58.158 185.579 56.258C183.881 54.358 183.033 51.7867 183.033 48.544C183.033 46.492 183.387 44.6553 184.097 43.034C184.831 41.3873 185.883 40.0953 187.251 39.158C188.644 38.2207 190.291 37.752 192.191 37.752C195.053 37.752 197.283 38.6513 198.879 40.45C200.475 42.2487 201.273 44.7567 201.273 47.974ZM195.915 46.454C195.915 43.11 194.711 41.438 192.305 41.438C191.19 41.438 190.316 41.856 189.683 42.692C189.075 43.5027 188.707 44.8327 188.581 46.682H195.915V46.454ZM220.689 38.36L214.229 58.5H207.807L201.233 38.36H207.085L211.075 54.282L215.141 38.36H220.689ZM236.963 52.914C236.963 53.6993 237.077 54.282 237.305 54.662C237.533 55.0167 237.913 55.2827 238.445 55.46L237.305 59.032C236.115 58.9307 235.139 58.652 234.379 58.196C233.645 57.74 233.075 57.0307 232.669 56.068C231.352 58.0947 229.338 59.108 226.627 59.108C224.626 59.108 223.03 58.538 221.839 57.398C220.674 56.2327 220.091 54.7253 220.091 52.876C220.091 50.672 220.889 48.9873 222.485 47.822C224.081 46.6567 226.374 46.074 229.363 46.074H231.681V45.086C231.681 43.8447 231.403 42.9833 230.845 42.502C230.288 42.0207 229.363 41.78 228.071 41.78C226.653 41.78 224.879 42.1347 222.751 42.844L221.535 39.234C224.043 38.246 226.526 37.752 228.983 37.752C231.719 37.752 233.733 38.3473 235.025 39.538C236.317 40.7033 236.963 42.4513 236.963 44.782V52.914ZM228.109 55.232C229.629 55.232 230.82 54.4847 231.681 52.99V49.152H229.895C226.982 49.152 225.525 50.2413 225.525 52.42C225.525 53.3067 225.741 54.0033 226.171 54.51C226.627 54.9913 227.273 55.232 228.109 55.232ZM258.847 30.342V58.5H254.097L253.793 56.03C252.374 58.082 250.449 59.108 248.017 59.108C245.534 59.108 243.634 58.158 242.317 56.258C241.025 54.3327 240.379 51.7233 240.379 48.43C240.379 46.3527 240.708 44.516 241.367 42.92C242.051 41.2987 243.013 40.032 244.255 39.12C245.496 38.208 246.927 37.752 248.549 37.752C250.423 37.752 252.057 38.4233 253.451 39.766V29.734L258.847 30.342ZM249.613 55.08C250.398 55.08 251.095 54.89 251.703 54.51C252.311 54.1047 252.893 53.484 253.451 52.648V43.642C252.919 43.0087 252.374 42.54 251.817 42.236C251.285 41.9067 250.664 41.742 249.955 41.742C248.713 41.742 247.738 42.2867 247.029 43.376C246.345 44.4653 246.003 46.15 246.003 48.43C246.003 50.8367 246.307 52.5467 246.915 53.56C247.548 54.5733 248.447 55.08 249.613 55.08ZM267.953 32.204L267.307 49.038H262.899L262.177 32.204H267.953ZM265.103 52.61C266.015 52.61 266.787 52.9267 267.421 53.56C268.054 54.1933 268.371 54.9533 268.371 55.84C268.371 56.7267 268.054 57.4993 267.421 58.158C266.787 58.7913 266.015 59.108 265.103 59.108C264.216 59.108 263.456 58.7913 262.823 58.158C262.189 57.4993 261.873 56.7267 261.873 55.84C261.873 54.9533 262.189 54.1933 262.823 53.56C263.456 52.9267 264.216 52.61 265.103 52.61Z" fill="#E3000F"/>
<path d="M39.6563 86.5C39.6563 88.2083 39.3438 89.6771 38.7188 90.9062C38.0938 92.1302 37.237 93.0729 36.1484 93.7344C35.0651 94.3906 33.8333 94.7187 32.4531 94.7187C31.0677 94.7187 29.8307 94.3906 28.7422 93.7344C27.6589 93.0729 26.8047 92.1276 26.1797 90.8984C25.5547 89.6693 25.2422 88.2031 25.2422 86.5C25.2422 84.7917 25.5547 83.3255 26.1797 82.1016C26.8047 80.8724 27.6589 79.9297 28.7422 79.2734C29.8307 78.612 31.0677 78.2812 32.4531 78.2812C33.8333 78.2812 35.0651 78.612 36.1484 79.2734C37.237 79.9297 38.0938 80.8724 38.7188 82.1016C39.3438 83.3255 39.6563 84.7917 39.6563 86.5ZM37.2656 86.5C37.2656 85.1979 37.0547 84.1016 36.6328 83.2109C36.2161 82.3151 35.6432 81.638 34.9141 81.1797C34.1901 80.7161 33.3698 80.4844 32.4531 80.4844C31.5313 80.4844 30.7083 80.7161 29.9844 81.1797C29.2604 81.638 28.6875 82.3151 28.2656 83.2109C27.849 84.1016 27.6406 85.1979 27.6406 86.5C27.6406 87.8021 27.849 88.901 28.2656 89.7969C28.6875 90.6875 29.2604 91.3646 29.9844 91.8281C30.7083 92.2865 31.5313 92.5156 32.4531 92.5156C33.3698 92.5156 34.1901 92.2865 34.9141 91.8281C35.6432 91.3646 36.2161 90.6875 36.6328 89.7969C37.0547 88.901 37.2656 87.8021 37.2656 86.5ZM30.1016 76.9141L28.5234 76.8594C28.5234 76 28.7578 75.3125 29.2266 74.7969C29.6953 74.2812 30.2708 74.0208 30.9531 74.0156C31.276 74.0156 31.5573 74.0703 31.7969 74.1797C32.0365 74.2839 32.2604 74.4062 32.4688 74.5469C32.6771 74.6875 32.888 74.8125 33.1016 74.9219C33.3151 75.026 33.5521 75.0781 33.8125 75.0781C34.1094 75.0729 34.3516 74.9583 34.5391 74.7344C34.7318 74.5052 34.8281 74.2214 34.8281 73.8828L36.375 73.9844C36.3698 74.8542 36.1328 75.5391 35.6641 76.0391C35.2005 76.5339 34.6276 76.7812 33.9453 76.7812C33.5755 76.7812 33.2682 76.7292 33.0234 76.625C32.7786 76.5156 32.5625 76.3932 32.375 76.2578C32.1875 76.1172 31.9948 75.9948 31.7969 75.8906C31.599 75.7812 31.362 75.7266 31.0859 75.7266C30.7995 75.7266 30.5625 75.8385 30.375 76.0625C30.1927 76.2865 30.1016 76.5703 30.1016 76.9141ZM44.2645 87.375V94.5H41.9285V78.5H44.2332V84.4531H44.3816C44.6629 83.8073 45.0926 83.2943 45.6707 82.9141C46.2488 82.5339 47.004 82.3438 47.9363 82.3438C48.7592 82.3438 49.478 82.513 50.0926 82.8516C50.7124 83.1901 51.1915 83.6953 51.5301 84.3672C51.8738 85.0339 52.0457 85.8672 52.0457 86.8672V94.5H49.7098V87.1484C49.7098 86.2682 49.4832 85.5859 49.0301 85.1016C48.577 84.612 47.9467 84.3672 47.1395 84.3672C46.5874 84.3672 46.0926 84.4844 45.6551 84.7187C45.2228 84.9531 44.8816 85.2969 44.6316 85.75C44.3868 86.1979 44.2645 86.7396 44.2645 87.375ZM60.2145 82.5V84.375H53.6598V82.5H60.2145ZM55.4176 79.625H57.7535V90.9766C57.7535 91.4297 57.8212 91.7708 57.9566 92C58.0921 92.224 58.2665 92.3776 58.4801 92.4609C58.6988 92.5391 58.9358 92.5781 59.191 92.5781C59.3785 92.5781 59.5426 92.5651 59.6832 92.5391C59.8238 92.513 59.9332 92.4922 60.0113 92.4766L60.4332 94.4062C60.2978 94.4583 60.1051 94.5104 59.8551 94.5625C59.6051 94.6198 59.2926 94.651 58.9176 94.6563C58.303 94.6667 57.7301 94.5573 57.1988 94.3281C56.6676 94.099 56.2379 93.7448 55.9098 93.2656C55.5816 92.7865 55.4176 92.1849 55.4176 91.4609V79.625ZM69.85 89.5234V82.5H72.1937V94.5H69.8969V92.4219H69.7719C69.4958 93.0625 69.0531 93.5964 68.4437 94.0234C67.8396 94.4453 67.087 94.6563 66.1859 94.6563C65.4151 94.6563 64.7328 94.487 64.1391 94.1484C63.5505 93.8047 63.087 93.2969 62.7484 92.625C62.4151 91.9531 62.2484 91.1224 62.2484 90.1328V82.5H64.5844V89.8516C64.5844 90.6693 64.8109 91.3203 65.2641 91.8047C65.7172 92.2891 66.3057 92.5312 67.0297 92.5312C67.4672 92.5312 67.9021 92.4219 68.3344 92.2031C68.7719 91.9844 69.1339 91.6536 69.4203 91.2109C69.712 90.7682 69.8552 90.2057 69.85 89.5234ZM77.1184 78.5V94.5H74.7824V78.5H77.1184ZM84.8828 94.7422C83.7005 94.7422 82.6823 94.4896 81.8281 93.9844C80.9792 93.474 80.3229 92.7578 79.8594 91.8359C79.401 90.9089 79.1719 89.8229 79.1719 88.5781C79.1719 87.349 79.401 86.2656 79.8594 85.3281C80.3229 84.3906 80.9688 83.6589 81.7969 83.1328C82.6302 82.6068 83.6042 82.3438 84.7188 82.3438C85.3958 82.3438 86.0521 82.4557 86.6875 82.6797C87.3229 82.9036 87.8932 83.2552 88.3984 83.7344C88.9036 84.2135 89.3021 84.8359 89.5938 85.6016C89.8854 86.362 90.0313 87.2865 90.0313 88.375V89.2031H80.4922V87.4531H87.7422C87.7422 86.8385 87.6172 86.2943 87.3672 85.8203C87.1172 85.3411 86.7656 84.9635 86.3125 84.6875C85.8646 84.4115 85.3385 84.2734 84.7344 84.2734C84.0781 84.2734 83.5052 84.4349 83.0156 84.7578C82.5313 85.0755 82.1563 85.4922 81.8906 86.0078C81.6302 86.5182 81.5 87.0729 81.5 87.6719V89.0391C81.5 89.8411 81.6406 90.5234 81.9219 91.0859C82.2083 91.6484 82.6068 92.0781 83.1172 92.375C83.6276 92.6667 84.224 92.8125 84.9062 92.8125C85.349 92.8125 85.7526 92.75 86.1172 92.625C86.4818 92.4948 86.7969 92.3021 87.0625 92.0469C87.3281 91.7917 87.5313 91.4766 87.6719 91.1016L89.8828 91.5C89.7057 92.151 89.388 92.7214 88.9297 93.2109C88.4766 93.6953 87.9063 94.0729 87.2188 94.3437C86.5365 94.6094 85.7578 94.7422 84.8828 94.7422ZM94.409 87.375V94.5H92.073V78.5H94.3777V84.4531H94.5262C94.8074 83.8073 95.2371 83.2943 95.8152 82.9141C96.3934 82.5339 97.1486 82.3438 98.0809 82.3438C98.9038 82.3438 99.6225 82.513 100.237 82.8516C100.857 83.1901 101.336 83.6953 101.675 84.3672C102.018 85.0339 102.19 85.8672 102.19 86.8672V94.5H99.8543V87.1484C99.8543 86.2682 99.6277 85.5859 99.1746 85.1016C98.7215 84.612 98.0913 84.3672 97.284 84.3672C96.7319 84.3672 96.2371 84.4844 95.7996 84.7187C95.3673 84.9531 95.0262 85.2969 94.7762 85.75C94.5314 86.1979 94.409 86.7396 94.409 87.375ZM110.359 82.5V84.375H103.804V82.5H110.359ZM105.562 79.625H107.898V90.9766C107.898 91.4297 107.966 91.7708 108.101 92C108.237 92.224 108.411 92.3776 108.625 92.4609C108.843 92.5391 109.08 92.5781 109.336 92.5781C109.523 92.5781 109.687 92.5651 109.828 92.5391C109.968 92.513 110.078 92.4922 110.156 92.4766L110.578 94.4062C110.442 94.4583 110.25 94.5104 110 94.5625C109.75 94.6198 109.437 94.651 109.062 94.6563C108.448 94.6667 107.875 94.5573 107.343 94.3281C106.812 94.099 106.382 93.7448 106.054 93.2656C105.726 92.7865 105.562 92.1849 105.562 91.4609V79.625ZM117.853 94.5V78.5H120.267V86.1406H120.462L127.173 78.5H130.212L123.759 85.7031L130.236 94.5H127.329L122.157 87.3516L120.267 89.5234V94.5H117.853ZM132.477 94.5V82.5H134.813V94.5H132.477ZM133.656 80.6484C133.25 80.6484 132.901 80.513 132.609 80.2422C132.323 79.9661 132.18 79.638 132.18 79.2578C132.18 78.8724 132.323 78.5443 132.609 78.2734C132.901 77.9974 133.25 77.8594 133.656 77.8594C134.063 77.8594 134.409 77.9974 134.695 78.2734C134.987 78.5443 135.133 78.8724 135.133 79.2578C135.133 79.638 134.987 79.9661 134.695 80.2422C134.409 80.513 134.063 80.6484 133.656 80.6484ZM137.405 94.5V82.5H139.663V84.4062H139.788C140.007 83.7604 140.392 83.2526 140.944 82.8828C141.501 82.5078 142.132 82.3203 142.835 82.3203C142.981 82.3203 143.152 82.3255 143.35 82.3359C143.554 82.3464 143.712 82.3594 143.827 82.375V84.6094C143.733 84.5833 143.567 84.5547 143.327 84.5234C143.087 84.487 142.848 84.4687 142.608 84.4687C142.056 84.4687 141.564 84.5859 141.132 84.8203C140.705 85.0495 140.366 85.3698 140.116 85.7812C139.866 86.1875 139.741 86.651 139.741 87.1719V94.5H137.405ZM145.298 82.5H147.634V95.2812C147.634 96.0833 147.489 96.7604 147.197 97.3125C146.91 97.8646 146.483 98.2839 145.916 98.5703C145.353 98.8568 144.658 99 143.83 99C143.746 99 143.668 99 143.595 99C143.517 99 143.436 98.9974 143.353 98.9922V96.9844C143.426 96.9844 143.491 96.9844 143.548 96.9844C143.601 96.9844 143.66 96.9844 143.728 96.9844C144.28 96.9844 144.679 96.8359 144.923 96.5391C145.173 96.2474 145.298 95.8229 145.298 95.2656V82.5ZM146.455 80.6484C146.048 80.6484 145.699 80.513 145.408 80.2422C145.121 79.9661 144.978 79.638 144.978 79.2578C144.978 78.8724 145.121 78.5443 145.408 78.2734C145.699 77.9974 146.048 77.8594 146.455 77.8594C146.861 77.8594 147.207 77.9974 147.494 78.2734C147.785 78.5443 147.931 78.8724 147.931 79.2578C147.931 79.638 147.785 79.9661 147.494 80.2422C147.207 80.513 146.861 80.6484 146.455 80.6484ZM153.719 94.7656C152.959 94.7656 152.271 94.625 151.657 94.3437C151.042 94.0573 150.555 93.6432 150.196 93.1016C149.842 92.5599 149.664 91.8958 149.664 91.1094C149.664 90.4323 149.795 89.875 150.055 89.4375C150.315 89 150.667 88.6536 151.11 88.3984C151.552 88.1432 152.047 87.9505 152.594 87.8203C153.141 87.6901 153.698 87.5911 154.266 87.5234C154.985 87.4401 155.568 87.3724 156.016 87.3203C156.464 87.263 156.789 87.1719 156.993 87.0469C157.196 86.9219 157.297 86.7187 157.297 86.4375V86.3828C157.297 85.7005 157.105 85.1719 156.719 84.7969C156.339 84.4219 155.771 84.2344 155.016 84.2344C154.23 84.2344 153.61 84.4089 153.157 84.7578C152.709 85.1016 152.399 85.4844 152.227 85.9062L150.032 85.4062C150.292 84.6771 150.672 84.0885 151.172 83.6406C151.677 83.1875 152.258 82.8594 152.914 82.6562C153.571 82.4479 154.261 82.3438 154.985 82.3438C155.464 82.3438 155.972 82.401 156.508 82.5156C157.05 82.625 157.555 82.8281 158.024 83.125C158.498 83.4219 158.886 83.8464 159.188 84.3984C159.49 84.9453 159.641 85.6563 159.641 86.5313V94.5H157.36V92.8594H157.266C157.115 93.1615 156.888 93.4583 156.586 93.75C156.284 94.0417 155.896 94.2839 155.422 94.4766C154.948 94.6693 154.381 94.7656 153.719 94.7656ZM154.227 92.8906C154.873 92.8906 155.425 92.763 155.883 92.5078C156.347 92.2526 156.698 91.9193 156.938 91.5078C157.183 91.0911 157.305 90.6458 157.305 90.1719V88.625C157.222 88.7083 157.06 88.7865 156.821 88.8594C156.586 88.9271 156.318 88.987 156.016 89.0391C155.714 89.0859 155.42 89.1302 155.133 89.1719C154.847 89.2083 154.607 89.2396 154.414 89.2656C153.961 89.3229 153.547 89.4193 153.172 89.5547C152.802 89.6901 152.506 89.8854 152.282 90.1406C152.063 90.3906 151.954 90.724 151.954 91.1406C151.954 91.7187 152.167 92.1562 152.594 92.4531C153.021 92.7448 153.565 92.8906 154.227 92.8906ZM171.195 85.4297L169.077 85.8047C168.989 85.5339 168.848 85.276 168.655 85.0312C168.468 84.7865 168.213 84.5859 167.89 84.4297C167.567 84.2734 167.163 84.1953 166.679 84.1953C166.017 84.1953 165.465 84.3437 165.023 84.6406C164.58 84.9323 164.359 85.3099 164.359 85.7734C164.359 86.1745 164.507 86.4974 164.804 86.7422C165.101 86.987 165.58 87.1875 166.241 87.3437L168.148 87.7812C169.252 88.0365 170.075 88.4297 170.616 88.9609C171.158 89.4922 171.429 90.1823 171.429 91.0313C171.429 91.75 171.221 92.3906 170.804 92.9531C170.392 93.5104 169.817 93.9479 169.077 94.2656C168.343 94.5833 167.491 94.7422 166.523 94.7422C165.179 94.7422 164.083 94.4557 163.234 93.8828C162.385 93.3047 161.864 92.4844 161.671 91.4219L163.929 91.0781C164.07 91.6667 164.359 92.112 164.796 92.4141C165.234 92.7109 165.804 92.8594 166.507 92.8594C167.273 92.8594 167.885 92.7005 168.343 92.3828C168.801 92.0599 169.03 91.6667 169.03 91.2031C169.03 90.8281 168.89 90.513 168.609 90.2578C168.333 90.0026 167.908 89.8099 167.335 89.6797L165.304 89.2344C164.184 88.9792 163.356 88.5729 162.82 88.0156C162.288 87.4583 162.023 86.7526 162.023 85.8984C162.023 85.1901 162.221 84.5703 162.616 84.0391C163.012 83.5078 163.559 83.0937 164.257 82.7969C164.955 82.4948 165.754 82.3438 166.655 82.3438C167.952 82.3438 168.973 82.625 169.718 83.1875C170.463 83.7448 170.955 84.4922 171.195 85.4297ZM179.049 82.5V84.375H172.494V82.5H179.049ZM174.252 79.625H176.588V90.9766C176.588 91.4297 176.656 91.7708 176.791 92C176.926 92.224 177.101 92.3776 177.314 92.4609C177.533 92.5391 177.77 92.5781 178.025 92.5781C178.213 92.5781 178.377 92.5651 178.518 92.5391C178.658 92.513 178.768 92.4922 178.846 92.4766L179.268 94.4062C179.132 94.4583 178.939 94.5104 178.689 94.5625C178.439 94.6198 178.127 94.651 177.752 94.6563C177.137 94.6667 176.564 94.5573 176.033 94.3281C175.502 94.099 175.072 93.7448 174.744 93.2656C174.416 92.7865 174.252 92.1849 174.252 91.4609V79.625ZM188.684 89.5234V82.5H191.028V94.5H188.731V92.4219H188.606C188.33 93.0625 187.887 93.5964 187.278 94.0234C186.674 94.4453 185.921 94.6563 185.02 94.6563C184.249 94.6563 183.567 94.487 182.973 94.1484C182.385 93.8047 181.921 93.2969 181.583 92.625C181.249 91.9531 181.083 91.1224 181.083 90.1328V82.5H183.419V89.8516C183.419 90.6693 183.645 91.3203 184.098 91.8047C184.552 92.2891 185.14 92.5312 185.864 92.5312C186.302 92.5312 186.736 92.4219 187.169 92.2031C187.606 91.9844 187.968 91.6536 188.255 91.2109C188.546 90.7682 188.69 90.2057 188.684 89.5234ZM202.609 85.4297L200.492 85.8047C200.403 85.5339 200.263 85.276 200.07 85.0312C199.882 84.7865 199.627 84.5859 199.304 84.4297C198.981 84.2734 198.578 84.1953 198.093 84.1953C197.432 84.1953 196.88 84.3437 196.437 84.6406C195.994 84.9323 195.773 85.3099 195.773 85.7734C195.773 86.1745 195.921 86.4974 196.218 86.7422C196.515 86.987 196.994 87.1875 197.656 87.3437L199.562 87.7812C200.666 88.0365 201.489 88.4297 202.031 88.9609C202.573 89.4922 202.843 90.1823 202.843 91.0313C202.843 91.75 202.635 92.3906 202.218 92.9531C201.807 93.5104 201.231 93.9479 200.492 94.2656C199.757 94.5833 198.906 94.7422 197.937 94.7422C196.593 94.7422 195.497 94.4557 194.648 93.8828C193.799 93.3047 193.278 92.4844 193.086 91.4219L195.343 91.0781C195.484 91.6667 195.773 92.112 196.211 92.4141C196.648 92.7109 197.218 92.8594 197.921 92.8594C198.687 92.8594 199.299 92.7005 199.757 92.3828C200.216 92.0599 200.445 91.6667 200.445 91.2031C200.445 90.8281 200.304 90.513 200.023 90.2578C199.747 90.0026 199.323 89.8099 198.75 89.6797L196.718 89.2344C195.599 88.9792 194.77 88.5729 194.234 88.0156C193.703 87.4583 193.437 86.7526 193.437 85.8984C193.437 85.1901 193.635 84.5703 194.031 84.0391C194.427 83.5078 194.974 83.0937 195.671 82.7969C196.369 82.4948 197.169 82.3438 198.07 82.3438C199.367 82.3438 200.388 82.625 201.132 83.1875C201.877 83.7448 202.369 84.4922 202.609 85.4297ZM210.034 94.7422C208.851 94.7422 207.833 94.4896 206.979 93.9844C206.13 93.474 205.474 92.7578 205.01 91.8359C204.552 90.9089 204.323 89.8229 204.323 88.5781C204.323 87.349 204.552 86.2656 205.01 85.3281C205.474 84.3906 206.12 83.6589 206.948 83.1328C207.781 82.6068 208.755 82.3438 209.87 82.3438C210.547 82.3438 211.203 82.4557 211.838 82.6797C212.474 82.9036 213.044 83.2552 213.549 83.7344C214.054 84.2135 214.453 84.8359 214.745 85.6016C215.036 86.362 215.182 87.2865 215.182 88.375V89.2031H205.643V87.4531H212.893C212.893 86.8385 212.768 86.2943 212.518 85.8203C212.268 85.3411 211.916 84.9635 211.463 84.6875C211.015 84.4115 210.489 84.2734 209.885 84.2734C209.229 84.2734 208.656 84.4349 208.166 84.7578C207.682 85.0755 207.307 85.4922 207.041 86.0078C206.781 86.5182 206.651 87.0729 206.651 87.6719V89.0391C206.651 89.8411 206.791 90.5234 207.073 91.0859C207.359 91.6484 207.758 92.0781 208.268 92.375C208.778 92.6667 209.375 92.8125 210.057 92.8125C210.5 92.8125 210.903 92.75 211.268 92.625C211.633 92.4948 211.948 92.3021 212.213 92.0469C212.479 91.7917 212.682 91.4766 212.823 91.1016L215.034 91.5C214.857 92.151 214.539 92.7214 214.08 93.2109C213.627 93.6953 213.057 94.0729 212.37 94.3437C211.687 94.6094 210.909 94.7422 210.034 94.7422ZM30.0625 122.734C29.0938 122.734 28.2292 122.487 27.4687 121.992C26.7135 121.492 26.1198 120.781 25.6875 119.859C25.2604 118.932 25.0469 117.82 25.0469 116.523C25.0469 115.227 25.263 114.117 25.6953 113.195C26.1328 112.273 26.7318 111.568 27.4922 111.078C28.2526 110.589 29.1146 110.344 30.0781 110.344C30.8229 110.344 31.4219 110.469 31.875 110.719C32.3333 110.964 32.6875 111.25 32.9375 111.578C33.1927 111.906 33.3906 112.195 33.5313 112.445H33.6719V106.5H36.0078V122.5H33.7266V120.633H33.5313C33.3906 120.888 33.1875 121.18 32.9219 121.508C32.6615 121.836 32.3021 122.122 31.8438 122.367C31.3854 122.612 30.7917 122.734 30.0625 122.734ZM30.5781 120.742C31.25 120.742 31.8177 120.565 32.2813 120.211C32.75 119.852 33.1042 119.354 33.3438 118.719C33.5885 118.083 33.7109 117.344 33.7109 116.5C33.7109 115.667 33.5911 114.937 33.3516 114.312C33.112 113.687 32.7604 113.201 32.2969 112.852C31.8333 112.503 31.2604 112.328 30.5781 112.328C29.875 112.328 29.2891 112.51 28.8203 112.875C28.3516 113.24 27.9974 113.737 27.7578 114.367C27.5234 114.997 27.4063 115.708 27.4063 116.5C27.4063 117.302 27.526 118.023 27.7656 118.664C28.0052 119.305 28.3594 119.812 28.8281 120.187C29.3021 120.557 29.8854 120.742 30.5781 120.742ZM38.7918 122.5V110.5H41.1277V122.5H38.7918ZM39.9715 108.648C39.5652 108.648 39.2163 108.513 38.9246 108.242C38.6382 107.966 38.4949 107.638 38.4949 107.258C38.4949 106.872 38.6382 106.544 38.9246 106.273C39.2163 105.997 39.5652 105.859 39.9715 105.859C40.3777 105.859 40.7241 105.997 41.0105 106.273C41.3022 106.544 41.448 106.872 41.448 107.258C41.448 107.638 41.3022 107.966 41.0105 108.242C40.7241 108.513 40.3777 108.648 39.9715 108.648ZM48.7516 127.25C47.7984 127.25 46.9781 127.125 46.2906 126.875C45.6083 126.625 45.051 126.294 44.6187 125.883C44.1865 125.471 43.8635 125.021 43.65 124.531L45.6578 123.703C45.7984 123.932 45.9859 124.174 46.2203 124.43C46.4599 124.69 46.7828 124.911 47.1891 125.094C47.6005 125.276 48.1292 125.367 48.775 125.367C49.6604 125.367 50.3922 125.151 50.9703 124.719C51.5484 124.292 51.8375 123.609 51.8375 122.672V120.312H51.6891C51.5484 120.568 51.3453 120.852 51.0797 121.164C50.8193 121.477 50.4599 121.747 50.0016 121.977C49.5432 122.206 48.9469 122.32 48.2125 122.32C47.2646 122.32 46.4104 122.099 45.65 121.656C44.8948 121.208 44.2958 120.549 43.8531 119.68C43.4156 118.805 43.1969 117.729 43.1969 116.453C43.1969 115.177 43.413 114.083 43.8453 113.172C44.2828 112.26 44.8818 111.562 45.6422 111.078C46.4026 110.589 47.2646 110.344 48.2281 110.344C48.9729 110.344 49.5745 110.469 50.0328 110.719C50.4911 110.964 50.8479 111.25 51.1031 111.578C51.3635 111.906 51.5641 112.195 51.7047 112.445H51.8766V110.5H54.1656V122.766C54.1656 123.797 53.926 124.643 53.4469 125.305C52.9677 125.966 52.3193 126.456 51.5016 126.773C50.6891 127.091 49.7724 127.25 48.7516 127.25ZM48.7281 120.383C49.4 120.383 49.9677 120.227 50.4312 119.914C50.9 119.596 51.2542 119.143 51.4938 118.555C51.7385 117.961 51.8609 117.25 51.8609 116.422C51.8609 115.615 51.7411 114.904 51.5016 114.289C51.262 113.674 50.9104 113.195 50.4469 112.852C49.9833 112.503 49.4104 112.328 48.7281 112.328C48.025 112.328 47.4391 112.51 46.9703 112.875C46.5016 113.234 46.1474 113.724 45.9078 114.344C45.6734 114.964 45.5562 115.656 45.5562 116.422C45.5562 117.208 45.676 117.898 45.9156 118.492C46.1552 119.086 46.5094 119.549 46.9781 119.883C47.4521 120.216 48.0354 120.383 48.7281 120.383ZM56.7484 122.5V110.5H59.0844V122.5H56.7484ZM57.9281 108.648C57.5219 108.648 57.1729 108.513 56.8813 108.242C56.5948 107.966 56.4516 107.638 56.4516 107.258C56.4516 106.872 56.5948 106.544 56.8813 106.273C57.1729 105.997 57.5219 105.859 57.9281 105.859C58.3344 105.859 58.6807 105.997 58.9672 106.273C59.2589 106.544 59.4047 106.872 59.4047 107.258C59.4047 107.638 59.2589 107.966 58.9672 108.242C58.6807 108.513 58.3344 108.648 57.9281 108.648ZM61.677 127V110.5H63.9582V112.445H64.1535C64.2889 112.195 64.4842 111.906 64.7395 111.578C64.9947 111.25 65.3488 110.964 65.802 110.719C66.2551 110.469 66.854 110.344 67.5988 110.344C68.5676 110.344 69.4322 110.589 70.1926 111.078C70.953 111.568 71.5493 112.273 71.9816 113.195C72.4191 114.117 72.6379 115.227 72.6379 116.523C72.6379 117.82 72.4217 118.932 71.9895 119.859C71.5572 120.781 70.9634 121.492 70.2082 121.992C69.453 122.487 68.591 122.734 67.6223 122.734C66.8931 122.734 66.2967 122.612 65.8332 122.367C65.3749 122.122 65.0155 121.836 64.7551 121.508C64.4947 121.18 64.2941 120.888 64.1535 120.633H64.0129V127H61.677ZM63.966 116.5C63.966 117.344 64.0884 118.083 64.3332 118.719C64.578 119.354 64.9322 119.852 65.3957 120.211C65.8592 120.565 66.427 120.742 67.0988 120.742C67.7967 120.742 68.3801 120.557 68.8488 120.187C69.3176 119.812 69.6717 119.305 69.9113 118.664C70.1561 118.023 70.2785 117.302 70.2785 116.5C70.2785 115.708 70.1587 114.997 69.9191 114.367C69.6848 113.737 69.3306 113.24 68.8566 112.875C68.3879 112.51 67.802 112.328 67.0988 112.328C66.4217 112.328 65.8488 112.503 65.3801 112.852C64.9165 113.201 64.565 113.687 64.3254 114.312C64.0858 114.937 63.966 115.667 63.966 116.5ZM78.1973 122.766C77.4368 122.766 76.7493 122.625 76.1348 122.344C75.5202 122.057 75.0332 121.643 74.6738 121.102C74.3197 120.56 74.1426 119.896 74.1426 119.109C74.1426 118.432 74.2728 117.875 74.5332 117.437C74.7936 117 75.1452 116.654 75.5879 116.398C76.0306 116.143 76.5254 115.951 77.0723 115.82C77.6191 115.69 78.1764 115.591 78.7441 115.523C79.4629 115.44 80.0462 115.372 80.4941 115.32C80.9421 115.263 81.2676 115.172 81.4707 115.047C81.6738 114.922 81.7754 114.719 81.7754 114.437V114.383C81.7754 113.701 81.5827 113.172 81.1973 112.797C80.8171 112.422 80.2493 112.234 79.4941 112.234C78.7077 112.234 78.0879 112.409 77.6348 112.758C77.1868 113.102 76.877 113.484 76.7051 113.906L74.5098 113.406C74.7702 112.677 75.1504 112.089 75.6504 111.641C76.1556 111.187 76.7363 110.859 77.3926 110.656C78.0488 110.448 78.7389 110.344 79.4629 110.344C79.9421 110.344 80.4499 110.401 80.9863 110.516C81.528 110.625 82.0332 110.828 82.502 111.125C82.9759 111.422 83.3639 111.846 83.666 112.398C83.9681 112.945 84.1191 113.656 84.1191 114.531V122.5H81.8379V120.859H81.7441C81.5931 121.161 81.3665 121.458 81.0645 121.75C80.7624 122.042 80.3743 122.284 79.9004 122.477C79.4264 122.669 78.8587 122.766 78.1973 122.766ZM78.7051 120.891C79.3509 120.891 79.903 120.763 80.3613 120.508C80.8249 120.253 81.1764 119.919 81.416 119.508C81.6608 119.091 81.7832 118.646 81.7832 118.172V116.625C81.6999 116.708 81.5384 116.786 81.2988 116.859C81.0645 116.927 80.7962 116.987 80.4941 117.039C80.1921 117.086 79.8978 117.13 79.6113 117.172C79.3249 117.208 79.0853 117.24 78.8926 117.266C78.4395 117.323 78.0254 117.419 77.6504 117.555C77.2806 117.69 76.9837 117.885 76.7598 118.141C76.541 118.391 76.4316 118.724 76.4316 119.141C76.4316 119.719 76.6452 120.156 77.0723 120.453C77.4993 120.745 78.0436 120.891 78.7051 120.891ZM88.8289 118.43L88.8133 115.578H89.2195L94.0008 110.5H96.7977L91.3445 116.281H90.9773L88.8289 118.43ZM86.6805 122.5V106.5H89.0164V122.5H86.6805ZM94.2586 122.5L89.9617 116.797L91.5711 115.164L97.1258 122.5H94.2586ZM103.054 122.742C101.872 122.742 100.854 122.49 99.9996 121.984C99.1507 121.474 98.4944 120.758 98.0309 119.836C97.5725 118.909 97.3434 117.823 97.3434 116.578C97.3434 115.349 97.5725 114.266 98.0309 113.328C98.4944 112.391 99.1402 111.659 99.9684 111.133C100.802 110.607 101.776 110.344 102.89 110.344C103.567 110.344 104.224 110.456 104.859 110.68C105.494 110.904 106.065 111.255 106.57 111.734C107.075 112.214 107.474 112.836 107.765 113.602C108.057 114.362 108.203 115.286 108.203 116.375V117.203H98.6637V115.453H105.914C105.914 114.839 105.789 114.294 105.539 113.82C105.289 113.341 104.937 112.964 104.484 112.687C104.036 112.411 103.51 112.273 102.906 112.273C102.25 112.273 101.677 112.435 101.187 112.758C100.703 113.076 100.328 113.492 100.062 114.008C99.8017 114.518 99.6715 115.073 99.6715 115.672V117.039C99.6715 117.841 99.8121 118.523 100.093 119.086C100.38 119.648 100.778 120.078 101.289 120.375C101.799 120.667 102.395 120.812 103.078 120.812C103.52 120.812 103.924 120.75 104.289 120.625C104.653 120.495 104.968 120.302 105.234 120.047C105.5 119.792 105.703 119.477 105.843 119.102L108.054 119.5C107.877 120.151 107.56 120.721 107.101 121.211C106.648 121.695 106.078 122.073 105.39 122.344C104.708 122.609 103.929 122.742 103.054 122.742ZM115.846 110.5V112.375H109.291V110.5H115.846ZM111.049 107.625H113.385V118.977C113.385 119.43 113.453 119.771 113.588 120C113.724 120.224 113.898 120.378 114.112 120.461C114.33 120.539 114.567 120.578 114.823 120.578C115.01 120.578 115.174 120.565 115.315 120.539C115.455 120.513 115.565 120.492 115.643 120.477L116.065 122.406C115.929 122.458 115.737 122.51 115.487 122.563C115.237 122.62 114.924 122.651 114.549 122.656C113.935 122.667 113.362 122.557 112.83 122.328C112.299 122.099 111.87 121.745 111.541 121.266C111.213 120.786 111.049 120.185 111.049 119.461V107.625ZM117.88 122.5V110.5H120.216V122.5H117.88ZM119.06 108.648C118.654 108.648 118.305 108.513 118.013 108.242C117.726 107.966 117.583 107.638 117.583 107.258C117.583 106.872 117.726 106.544 118.013 106.273C118.305 105.997 118.654 105.859 119.06 105.859C119.466 105.859 119.812 105.997 120.099 106.273C120.39 106.544 120.536 106.872 120.536 107.258C120.536 107.638 120.39 107.966 120.099 108.242C119.812 108.513 119.466 108.648 119.06 108.648ZM130.417 106.5V122.5H128.081V106.5H130.417ZM133.009 122.5V110.5H135.345V122.5H133.009ZM134.189 108.648C133.783 108.648 133.434 108.513 133.142 108.242C132.856 107.966 132.713 107.638 132.713 107.258C132.713 106.872 132.856 106.544 133.142 106.273C133.434 105.997 133.783 105.859 134.189 105.859C134.595 105.859 134.942 105.997 135.228 106.273C135.52 106.544 135.666 106.872 135.666 107.258C135.666 107.638 135.52 107.966 135.228 108.242C134.942 108.513 134.595 108.648 134.189 108.648ZM142.969 127.25C142.016 127.25 141.196 127.125 140.508 126.875C139.826 126.625 139.269 126.294 138.836 125.883C138.404 125.471 138.081 125.021 137.868 124.531L139.875 123.703C140.016 123.932 140.204 124.174 140.438 124.43C140.677 124.69 141 124.911 141.407 125.094C141.818 125.276 142.347 125.367 142.993 125.367C143.878 125.367 144.61 125.151 145.188 124.719C145.766 124.292 146.055 123.609 146.055 122.672V120.312H145.907C145.766 120.568 145.563 120.852 145.297 121.164C145.037 121.477 144.677 121.747 144.219 121.977C143.761 122.206 143.164 122.32 142.43 122.32C141.482 122.32 140.628 122.099 139.868 121.656C139.112 121.208 138.513 120.549 138.071 119.68C137.633 118.805 137.414 117.729 137.414 116.453C137.414 115.177 137.631 114.083 138.063 113.172C138.5 112.26 139.099 111.562 139.86 111.078C140.62 110.589 141.482 110.344 142.446 110.344C143.19 110.344 143.792 110.469 144.25 110.719C144.709 110.964 145.065 111.25 145.321 111.578C145.581 111.906 145.782 112.195 145.922 112.445H146.094V110.5H148.383V122.766C148.383 123.797 148.144 124.643 147.664 125.305C147.185 125.966 146.537 126.456 145.719 126.773C144.907 127.091 143.99 127.25 142.969 127.25ZM142.946 120.383C143.618 120.383 144.185 120.227 144.649 119.914C145.118 119.596 145.472 119.143 145.711 118.555C145.956 117.961 146.079 117.25 146.079 116.422C146.079 115.615 145.959 114.904 145.719 114.289C145.48 113.674 145.128 113.195 144.664 112.852C144.201 112.503 143.628 112.328 142.946 112.328C142.243 112.328 141.657 112.51 141.188 112.875C140.719 113.234 140.365 113.724 140.125 114.344C139.891 114.964 139.774 115.656 139.774 116.422C139.774 117.208 139.894 117.898 140.133 118.492C140.373 119.086 140.727 119.549 141.196 119.883C141.67 120.216 142.253 120.383 142.946 120.383ZM150.966 122.5V110.5H153.302V122.5H150.966ZM152.146 108.648C151.739 108.648 151.39 108.513 151.099 108.242C150.812 107.966 150.669 107.638 150.669 107.258C150.669 106.872 150.812 106.544 151.099 106.273C151.39 105.997 151.739 105.859 152.146 105.859C152.552 105.859 152.898 105.997 153.185 106.273C153.476 106.544 153.622 106.872 153.622 107.258C153.622 107.638 153.476 107.966 153.185 108.242C152.898 108.513 152.552 108.648 152.146 108.648ZM155.895 127V110.5H158.176V112.445H158.371C158.507 112.195 158.702 111.906 158.957 111.578C159.212 111.25 159.566 110.964 160.02 110.719C160.473 110.469 161.072 110.344 161.816 110.344C162.785 110.344 163.65 110.589 164.41 111.078C165.171 111.568 165.767 112.273 166.199 113.195C166.637 114.117 166.855 115.227 166.855 116.523C166.855 117.82 166.639 118.932 166.207 119.859C165.775 120.781 165.181 121.492 164.426 121.992C163.671 122.487 162.809 122.734 161.84 122.734C161.111 122.734 160.514 122.612 160.051 122.367C159.592 122.122 159.233 121.836 158.973 121.508C158.712 121.18 158.512 120.888 158.371 120.633H158.23V127H155.895ZM158.184 116.5C158.184 117.344 158.306 118.083 158.551 118.719C158.796 119.354 159.15 119.852 159.613 120.211C160.077 120.565 160.645 120.742 161.316 120.742C162.014 120.742 162.598 120.557 163.066 120.187C163.535 119.812 163.889 119.305 164.129 118.664C164.374 118.023 164.496 117.302 164.496 116.5C164.496 115.708 164.376 114.997 164.137 114.367C163.902 113.737 163.548 113.24 163.074 112.875C162.605 112.51 162.02 112.328 161.316 112.328C160.639 112.328 160.066 112.503 159.598 112.852C159.134 113.201 158.783 113.687 158.543 114.312C158.303 114.937 158.184 115.667 158.184 116.5ZM172.415 122.766C171.654 122.766 170.967 122.625 170.352 122.344C169.738 122.057 169.251 121.643 168.891 121.102C168.537 120.56 168.36 119.896 168.36 119.109C168.36 118.432 168.49 117.875 168.751 117.437C169.011 117 169.363 116.654 169.805 116.398C170.248 116.143 170.743 115.951 171.29 115.82C171.837 115.69 172.394 115.591 172.962 115.523C173.68 115.44 174.264 115.372 174.712 115.32C175.16 115.263 175.485 115.172 175.688 115.047C175.891 114.922 175.993 114.719 175.993 114.437V114.383C175.993 113.701 175.8 113.172 175.415 112.797C175.035 112.422 174.467 112.234 173.712 112.234C172.925 112.234 172.305 112.409 171.852 112.758C171.404 113.102 171.095 113.484 170.923 113.906L168.727 113.406C168.988 112.677 169.368 112.089 169.868 111.641C170.373 111.187 170.954 110.859 171.61 110.656C172.266 110.448 172.957 110.344 173.68 110.344C174.16 110.344 174.667 110.401 175.204 110.516C175.746 110.625 176.251 110.828 176.72 111.125C177.193 111.422 177.582 111.846 177.884 112.398C178.186 112.945 178.337 113.656 178.337 114.531V122.5H176.055V120.859H175.962C175.811 121.161 175.584 121.458 175.282 121.75C174.98 122.042 174.592 122.284 174.118 122.477C173.644 122.669 173.076 122.766 172.415 122.766ZM172.923 120.891C173.568 120.891 174.121 120.763 174.579 120.508C175.042 120.253 175.394 119.919 175.634 119.508C175.878 119.091 176.001 118.646 176.001 118.172V116.625C175.917 116.708 175.756 116.786 175.516 116.859C175.282 116.927 175.014 116.987 174.712 117.039C174.41 117.086 174.115 117.13 173.829 117.172C173.542 117.208 173.303 117.24 173.11 117.266C172.657 117.323 172.243 117.419 171.868 117.555C171.498 117.69 171.201 117.885 170.977 118.141C170.759 118.391 170.649 118.724 170.649 119.141C170.649 119.719 170.863 120.156 171.29 120.453C171.717 120.745 172.261 120.891 172.923 120.891ZM171.509 108.617C171.139 108.617 170.816 108.482 170.54 108.211C170.264 107.935 170.126 107.617 170.126 107.258C170.126 106.867 170.264 106.542 170.54 106.281C170.816 106.021 171.139 105.891 171.509 105.891C171.899 105.891 172.225 106.021 172.485 106.281C172.751 106.542 172.884 106.867 172.884 107.258C172.884 107.617 172.751 107.935 172.485 108.211C172.225 108.482 171.899 108.617 171.509 108.617ZM176.102 108.617C175.733 108.617 175.41 108.482 175.134 108.211C174.858 107.935 174.72 107.617 174.72 107.258C174.72 106.867 174.858 106.542 175.134 106.281C175.41 106.021 175.733 105.891 176.102 105.891C176.493 105.891 176.818 106.021 177.079 106.281C177.345 106.542 177.477 106.867 177.477 107.258C177.477 107.617 177.345 107.935 177.079 108.211C176.818 108.482 176.493 108.617 176.102 108.617ZM184.39 122.766C183.63 122.766 182.942 122.625 182.328 122.344C181.713 122.057 181.226 121.643 180.867 121.102C180.513 120.56 180.336 119.896 180.336 119.109C180.336 118.432 180.466 117.875 180.726 117.437C180.987 117 181.338 116.654 181.781 116.398C182.224 116.143 182.718 115.951 183.265 115.82C183.812 115.69 184.369 115.591 184.937 115.523C185.656 115.44 186.239 115.372 186.687 115.32C187.135 115.263 187.461 115.172 187.664 115.047C187.867 114.922 187.968 114.719 187.968 114.437V114.383C187.968 113.701 187.776 113.172 187.39 112.797C187.01 112.422 186.442 112.234 185.687 112.234C184.901 112.234 184.281 112.409 183.828 112.758C183.38 113.102 183.07 113.484 182.898 113.906L180.703 113.406C180.963 112.677 181.343 112.089 181.843 111.641C182.349 111.187 182.929 110.859 183.586 110.656C184.242 110.448 184.932 110.344 185.656 110.344C186.135 110.344 186.643 110.401 187.179 110.516C187.721 110.625 188.226 110.828 188.695 111.125C189.169 111.422 189.557 111.846 189.859 112.398C190.161 112.945 190.312 113.656 190.312 114.531V122.5H188.031V120.859H187.937C187.786 121.161 187.559 121.458 187.257 121.75C186.955 122.042 186.567 122.284 186.093 122.477C185.619 122.669 185.052 122.766 184.39 122.766ZM184.898 120.891C185.544 120.891 186.096 120.763 186.554 120.508C187.018 120.253 187.369 119.919 187.609 119.508C187.854 119.091 187.976 118.646 187.976 118.172V116.625C187.893 116.708 187.731 116.786 187.492 116.859C187.257 116.927 186.989 116.987 186.687 117.039C186.385 117.086 186.091 117.13 185.804 117.172C185.518 117.208 185.278 117.24 185.086 117.266C184.632 117.323 184.218 117.419 183.843 117.555C183.474 117.69 183.177 117.885 182.953 118.141C182.734 118.391 182.625 118.724 182.625 119.141C182.625 119.719 182.838 120.156 183.265 120.453C183.692 120.745 184.237 120.891 184.898 120.891ZM183.484 108.617C183.114 108.617 182.791 108.482 182.515 108.211C182.239 107.935 182.101 107.617 182.101 107.258C182.101 106.867 182.239 106.542 182.515 106.281C182.791 106.021 183.114 105.891 183.484 105.891C183.875 105.891 184.2 106.021 184.461 106.281C184.726 106.542 184.859 106.867 184.859 107.258C184.859 107.617 184.726 107.935 184.461 108.211C184.2 108.482 183.875 108.617 183.484 108.617ZM188.078 108.617C187.708 108.617 187.385 108.482 187.109 108.211C186.833 107.935 186.695 107.617 186.695 107.258C186.695 106.867 186.833 106.542 187.109 106.281C187.385 106.021 187.708 105.891 188.078 105.891C188.468 105.891 188.794 106.021 189.054 106.281C189.32 106.542 189.453 106.867 189.453 107.258C189.453 107.617 189.32 107.935 189.054 108.211C188.794 108.482 188.468 108.617 188.078 108.617ZM201.866 113.43L199.748 113.805C199.66 113.534 199.519 113.276 199.327 113.031C199.139 112.786 198.884 112.586 198.561 112.43C198.238 112.273 197.834 112.195 197.35 112.195C196.689 112.195 196.136 112.344 195.694 112.641C195.251 112.932 195.03 113.31 195.03 113.773C195.03 114.174 195.178 114.497 195.475 114.742C195.772 114.987 196.251 115.187 196.913 115.344L198.819 115.781C199.923 116.036 200.746 116.43 201.288 116.961C201.829 117.492 202.1 118.182 202.1 119.031C202.1 119.75 201.892 120.391 201.475 120.953C201.064 121.51 200.488 121.948 199.748 122.266C199.014 122.583 198.163 122.742 197.194 122.742C195.85 122.742 194.754 122.456 193.905 121.883C193.056 121.305 192.535 120.484 192.342 119.422L194.6 119.078C194.741 119.667 195.03 120.112 195.467 120.414C195.905 120.711 196.475 120.859 197.178 120.859C197.944 120.859 198.556 120.701 199.014 120.383C199.472 120.06 199.702 119.667 199.702 119.203C199.702 118.828 199.561 118.513 199.28 118.258C199.004 118.003 198.579 117.81 198.006 117.68L195.975 117.234C194.855 116.979 194.027 116.573 193.491 116.016C192.959 115.458 192.694 114.753 192.694 113.898C192.694 113.19 192.892 112.57 193.288 112.039C193.683 111.508 194.23 111.094 194.928 110.797C195.626 110.495 196.426 110.344 197.327 110.344C198.623 110.344 199.644 110.625 200.389 111.187C201.134 111.745 201.626 112.492 201.866 113.43ZM211.72 117.523V110.5H214.064V122.5H211.767V120.422H211.642C211.366 121.063 210.923 121.596 210.314 122.023C209.71 122.445 208.957 122.656 208.056 122.656C207.285 122.656 206.603 122.487 206.009 122.148C205.42 121.805 204.957 121.297 204.618 120.625C204.285 119.953 204.118 119.122 204.118 118.133V110.5H206.454V117.852C206.454 118.669 206.681 119.32 207.134 119.805C207.587 120.289 208.176 120.531 208.9 120.531C209.337 120.531 209.772 120.422 210.204 120.203C210.642 119.984 211.004 119.654 211.29 119.211C211.582 118.768 211.725 118.206 211.72 117.523ZM230.917 113.43L228.8 113.805C228.711 113.534 228.57 113.276 228.378 113.031C228.19 112.786 227.935 112.586 227.612 112.43C227.289 112.273 226.886 112.195 226.401 112.195C225.74 112.195 225.188 112.344 224.745 112.641C224.302 112.932 224.081 113.31 224.081 113.773C224.081 114.174 224.229 114.497 224.526 114.742C224.823 114.987 225.302 115.187 225.964 115.344L227.87 115.781C228.974 116.036 229.797 116.43 230.339 116.961C230.88 117.492 231.151 118.182 231.151 119.031C231.151 119.75 230.943 120.391 230.526 120.953C230.115 121.51 229.539 121.948 228.8 122.266C228.065 122.583 227.214 122.742 226.245 122.742C224.901 122.742 223.805 122.456 222.956 121.883C222.107 121.305 221.586 120.484 221.393 119.422L223.651 119.078C223.792 119.667 224.081 120.112 224.518 120.414C224.956 120.711 225.526 120.859 226.229 120.859C226.995 120.859 227.607 120.701 228.065 120.383C228.524 120.06 228.753 119.667 228.753 119.203C228.753 118.828 228.612 118.513 228.331 118.258C228.055 118.003 227.63 117.81 227.057 117.68L225.026 117.234C223.906 116.979 223.078 116.573 222.542 116.016C222.011 115.458 221.745 114.753 221.745 113.898C221.745 113.19 221.943 112.57 222.339 112.039C222.735 111.508 223.281 111.094 223.979 110.797C224.677 110.495 225.477 110.344 226.378 110.344C227.675 110.344 228.695 110.625 229.44 111.187C230.185 111.745 230.677 112.492 230.917 113.43ZM236.662 122.766C235.901 122.766 235.214 122.625 234.599 122.344C233.985 122.057 233.498 121.643 233.138 121.102C232.784 120.56 232.607 119.896 232.607 119.109C232.607 118.432 232.737 117.875 232.998 117.437C233.258 117 233.61 116.654 234.052 116.398C234.495 116.143 234.99 115.951 235.537 115.82C236.084 115.69 236.641 115.591 237.209 115.523C237.927 115.44 238.511 115.372 238.959 115.32C239.407 115.263 239.732 115.172 239.935 115.047C240.138 114.922 240.24 114.719 240.24 114.437V114.383C240.24 113.701 240.047 113.172 239.662 112.797C239.282 112.422 238.714 112.234 237.959 112.234C237.172 112.234 236.552 112.409 236.099 112.758C235.651 113.102 235.341 113.484 235.17 113.906L232.974 113.406C233.235 112.677 233.615 112.089 234.115 111.641C234.62 111.187 235.201 110.859 235.857 110.656C236.513 110.448 237.203 110.344 237.927 110.344C238.407 110.344 238.914 110.401 239.451 110.516C239.992 110.625 240.498 110.828 240.966 111.125C241.44 111.422 241.828 111.846 242.13 112.398C242.433 112.945 242.584 113.656 242.584 114.531V122.5H240.302V120.859H240.209C240.058 121.161 239.831 121.458 239.529 121.75C239.227 122.042 238.839 122.284 238.365 122.477C237.891 122.669 237.323 122.766 236.662 122.766ZM237.17 120.891C237.815 120.891 238.367 120.763 238.826 120.508C239.289 120.253 239.641 119.919 239.88 119.508C240.125 119.091 240.248 118.646 240.248 118.172V116.625C240.164 116.708 240.003 116.786 239.763 116.859C239.529 116.927 239.261 116.987 238.959 117.039C238.657 117.086 238.362 117.13 238.076 117.172C237.789 117.208 237.55 117.24 237.357 117.266C236.904 117.323 236.49 117.419 236.115 117.555C235.745 117.69 235.448 117.885 235.224 118.141C235.005 118.391 234.896 118.724 234.896 119.141C234.896 119.719 235.11 120.156 235.537 120.453C235.964 120.745 236.508 120.891 237.17 120.891ZM248.637 122.766C247.877 122.766 247.189 122.625 246.575 122.344C245.96 122.057 245.473 121.643 245.114 121.102C244.76 120.56 244.582 119.896 244.582 119.109C244.582 118.432 244.713 117.875 244.973 117.437C245.233 117 245.585 116.654 246.028 116.398C246.47 116.143 246.965 115.951 247.512 115.82C248.059 115.69 248.616 115.591 249.184 115.523C249.903 115.44 250.486 115.372 250.934 115.32C251.382 115.263 251.707 115.172 251.911 115.047C252.114 114.922 252.215 114.719 252.215 114.437V114.383C252.215 113.701 252.023 113.172 251.637 112.797C251.257 112.422 250.689 112.234 249.934 112.234C249.148 112.234 248.528 112.409 248.075 112.758C247.627 113.102 247.317 113.484 247.145 113.906L244.95 113.406C245.21 112.677 245.59 112.089 246.09 111.641C246.595 111.187 247.176 110.859 247.832 110.656C248.489 110.448 249.179 110.344 249.903 110.344C250.382 110.344 250.89 110.401 251.426 110.516C251.968 110.625 252.473 110.828 252.942 111.125C253.416 111.422 253.804 111.846 254.106 112.398C254.408 112.945 254.559 113.656 254.559 114.531V122.5H252.278V120.859H252.184C252.033 121.161 251.806 121.458 251.504 121.75C251.202 122.042 250.814 122.284 250.34 122.477C249.866 122.669 249.299 122.766 248.637 122.766ZM249.145 120.891C249.791 120.891 250.343 120.763 250.801 120.508C251.265 120.253 251.616 119.919 251.856 119.508C252.101 119.091 252.223 118.646 252.223 118.172V116.625C252.14 116.708 251.978 116.786 251.739 116.859C251.504 116.927 251.236 116.987 250.934 117.039C250.632 117.086 250.338 117.13 250.051 117.172C249.765 117.208 249.525 117.24 249.332 117.266C248.879 117.323 248.465 117.419 248.09 117.555C247.72 117.69 247.424 117.885 247.2 118.141C246.981 118.391 246.871 118.724 246.871 119.141C246.871 119.719 247.085 120.156 247.512 120.453C247.939 120.745 248.483 120.891 249.145 120.891ZM261.613 122.734C260.644 122.734 259.779 122.487 259.019 121.992C258.264 121.492 257.67 120.781 257.238 119.859C256.81 118.932 256.597 117.82 256.597 116.523C256.597 115.227 256.813 114.117 257.245 113.195C257.683 112.273 258.282 111.568 259.042 111.078C259.803 110.589 260.665 110.344 261.628 110.344C262.373 110.344 262.972 110.469 263.425 110.719C263.883 110.964 264.238 111.25 264.488 111.578C264.743 111.906 264.941 112.195 265.081 112.445H265.222V106.5H267.558V122.5H265.277V120.633H265.081C264.941 120.888 264.738 121.18 264.472 121.508C264.211 121.836 263.852 122.122 263.394 122.367C262.935 122.612 262.342 122.734 261.613 122.734ZM262.128 120.742C262.8 120.742 263.368 120.565 263.831 120.211C264.3 119.852 264.654 119.354 264.894 118.719C265.139 118.083 265.261 117.344 265.261 116.5C265.261 115.667 265.141 114.937 264.902 114.312C264.662 113.687 264.31 113.201 263.847 112.852C263.383 112.503 262.81 112.328 262.128 112.328C261.425 112.328 260.839 112.51 260.37 112.875C259.902 113.24 259.547 113.737 259.308 114.367C259.073 114.997 258.956 115.708 258.956 116.5C258.956 117.302 259.076 118.023 259.316 118.664C259.555 119.305 259.909 119.812 260.378 120.187C260.852 120.557 261.435 120.742 262.128 120.742ZM25.5703 138.5H27.9063V151.281C27.9063 152.083 27.7604 152.76 27.4687 153.312C27.1823 153.865 26.7552 154.284 26.1875 154.57C25.625 154.857 24.9297 155 24.1016 155C24.0182 155 23.9401 155 23.8672 155C23.7891 155 23.7083 154.997 23.625 154.992V152.984C23.6979 152.984 23.763 152.984 23.8203 152.984C23.8724 152.984 23.9323 152.984 24 152.984C24.5521 152.984 24.9505 152.836 25.1953 152.539C25.4453 152.247 25.5703 151.823 25.5703 151.266V138.5ZM26.7266 136.648C26.3203 136.648 25.9714 136.513 25.6797 136.242C25.3932 135.966 25.25 135.638 25.25 135.258C25.25 134.872 25.3932 134.544 25.6797 134.273C25.9714 133.997 26.3203 133.859 26.7266 133.859C27.1328 133.859 27.4792 133.997 27.7656 134.273C28.0573 134.544 28.2031 134.872 28.2031 135.258C28.2031 135.638 28.0573 135.966 27.7656 136.242C27.4792 136.513 27.1328 136.648 26.7266 136.648ZM33.991 150.766C33.2306 150.766 32.5431 150.625 31.9285 150.344C31.3139 150.057 30.827 149.643 30.4676 149.102C30.1134 148.56 29.9363 147.896 29.9363 147.109C29.9363 146.432 30.0665 145.875 30.327 145.437C30.5874 145 30.9389 144.654 31.3816 144.398C31.8243 144.143 32.3191 143.951 32.866 143.82C33.4129 143.69 33.9702 143.591 34.5379 143.523C35.2566 143.44 35.84 143.372 36.2879 143.32C36.7358 143.263 37.0613 143.172 37.2645 143.047C37.4676 142.922 37.5691 142.719 37.5691 142.437V142.383C37.5691 141.701 37.3764 141.172 36.991 140.797C36.6108 140.422 36.0431 140.234 35.2879 140.234C34.5014 140.234 33.8816 140.409 33.4285 140.758C32.9806 141.102 32.6707 141.484 32.4988 141.906L30.3035 141.406C30.5639 140.677 30.9441 140.089 31.4441 139.641C31.9493 139.187 32.5301 138.859 33.1863 138.656C33.8426 138.448 34.5327 138.344 35.2566 138.344C35.7358 138.344 36.2436 138.401 36.7801 138.516C37.3217 138.625 37.827 138.828 38.2957 139.125C38.7697 139.422 39.1577 139.846 39.4598 140.398C39.7618 140.945 39.9129 141.656 39.9129 142.531V150.5H37.6316V148.859H37.5379C37.3868 149.161 37.1603 149.458 36.8582 149.75C36.5561 150.042 36.1681 150.284 35.6941 150.477C35.2202 150.669 34.6525 150.766 33.991 150.766ZM34.4988 148.891C35.1447 148.891 35.6967 148.763 36.1551 148.508C36.6186 148.253 36.9702 147.919 37.2098 147.508C37.4546 147.091 37.577 146.646 37.577 146.172V144.625C37.4936 144.708 37.3322 144.786 37.0926 144.859C36.8582 144.927 36.59 144.987 36.2879 145.039C35.9858 145.086 35.6915 145.13 35.4051 145.172C35.1186 145.208 34.879 145.24 34.6863 145.266C34.2332 145.323 33.8191 145.419 33.4441 145.555C33.0743 145.69 32.7775 145.885 32.5535 146.141C32.3348 146.391 32.2254 146.724 32.2254 147.141C32.2254 147.719 32.4389 148.156 32.866 148.453C33.2931 148.745 33.8374 148.891 34.4988 148.891ZM47.5055 155.25C46.5523 155.25 45.732 155.125 45.0445 154.875C44.3622 154.625 43.8049 154.294 43.3727 153.883C42.9404 153.471 42.6174 153.021 42.4039 152.531L44.4117 151.703C44.5523 151.932 44.7398 152.174 44.9742 152.43C45.2138 152.69 45.5367 152.911 45.943 153.094C46.3544 153.276 46.8831 153.367 47.5289 153.367C48.4143 153.367 49.1461 153.151 49.7242 152.719C50.3023 152.292 50.5914 151.609 50.5914 150.672V148.312H50.443C50.3023 148.568 50.0992 148.852 49.8336 149.164C49.5732 149.477 49.2138 149.747 48.7555 149.977C48.2971 150.206 47.7008 150.32 46.9664 150.32C46.0185 150.32 45.1643 150.099 44.4039 149.656C43.6487 149.208 43.0497 148.549 42.607 147.68C42.1695 146.805 41.9508 145.729 41.9508 144.453C41.9508 143.177 42.1669 142.083 42.5992 141.172C43.0367 140.26 43.6357 139.562 44.3961 139.078C45.1565 138.589 46.0185 138.344 46.982 138.344C47.7268 138.344 48.3284 138.469 48.7867 138.719C49.2451 138.964 49.6018 139.25 49.857 139.578C50.1174 139.906 50.318 140.195 50.4586 140.445H50.6305V138.5H52.9195V150.766C52.9195 151.797 52.6799 152.643 52.2008 153.305C51.7216 153.966 51.0732 154.456 50.2555 154.773C49.443 155.091 48.5263 155.25 47.5055 155.25ZM47.482 148.383C48.1539 148.383 48.7216 148.227 49.1852 147.914C49.6539 147.596 50.0081 147.143 50.2477 146.555C50.4924 145.961 50.6148 145.25 50.6148 144.422C50.6148 143.615 50.4951 142.904 50.2555 142.289C50.0159 141.674 49.6643 141.195 49.2008 140.852C48.7372 140.503 48.1643 140.328 47.482 140.328C46.7789 140.328 46.193 140.51 45.7242 140.875C45.2555 141.234 44.9013 141.724 44.6617 142.344C44.4273 142.964 44.3102 143.656 44.3102 144.422C44.3102 145.208 44.4299 145.898 44.6695 146.492C44.9091 147.086 45.2633 147.549 45.732 147.883C46.206 148.216 46.7893 148.383 47.482 148.383ZM58.9945 150.766C58.2341 150.766 57.5466 150.625 56.932 150.344C56.3174 150.057 55.8305 149.643 55.4711 149.102C55.1169 148.56 54.9398 147.896 54.9398 147.109C54.9398 146.432 55.0701 145.875 55.3305 145.437C55.5909 145 55.9424 144.654 56.3852 144.398C56.8279 144.143 57.3227 143.951 57.8695 143.82C58.4164 143.69 58.9737 143.591 59.5414 143.523C60.2602 143.44 60.8435 143.372 61.2914 143.32C61.7393 143.263 62.0648 143.172 62.268 143.047C62.4711 142.922 62.5727 142.719 62.5727 142.437V142.383C62.5727 141.701 62.3799 141.172 61.9945 140.797C61.6143 140.422 61.0466 140.234 60.2914 140.234C59.5049 140.234 58.8852 140.409 58.432 140.758C57.9841 141.102 57.6742 141.484 57.5023 141.906L55.307 141.406C55.5674 140.677 55.9477 140.089 56.4477 139.641C56.9529 139.187 57.5336 138.859 58.1898 138.656C58.8461 138.448 59.5362 138.344 60.2602 138.344C60.7393 138.344 61.2471 138.401 61.7836 138.516C62.3253 138.625 62.8305 138.828 63.2992 139.125C63.7732 139.422 64.1612 139.846 64.4633 140.398C64.7654 140.945 64.9164 141.656 64.9164 142.531V150.5H62.6352V148.859H62.5414C62.3904 149.161 62.1638 149.458 61.8617 149.75C61.5596 150.042 61.1716 150.284 60.6977 150.477C60.2237 150.669 59.656 150.766 58.9945 150.766ZM59.5023 148.891C60.1482 148.891 60.7003 148.763 61.1586 148.508C61.6221 148.253 61.9737 147.919 62.2133 147.508C62.4581 147.091 62.5805 146.646 62.5805 146.172V144.625C62.4971 144.708 62.3357 144.786 62.0961 144.859C61.8617 144.927 61.5935 144.987 61.2914 145.039C60.9893 145.086 60.6951 145.13 60.4086 145.172C60.1221 145.208 59.8826 145.24 59.6898 145.266C59.2367 145.323 58.8227 145.419 58.4477 145.555C58.0779 145.69 57.781 145.885 57.557 146.141C57.3383 146.391 57.2289 146.724 57.2289 147.141C57.2289 147.719 57.4424 148.156 57.8695 148.453C58.2966 148.745 58.8409 148.891 59.5023 148.891ZM71.9699 150.734C71.0012 150.734 70.1366 150.487 69.3762 149.992C68.621 149.492 68.0272 148.781 67.5949 147.859C67.1678 146.932 66.9543 145.82 66.9543 144.523C66.9543 143.227 67.1704 142.117 67.6027 141.195C68.0402 140.273 68.6392 139.568 69.3996 139.078C70.16 138.589 71.022 138.344 71.9855 138.344C72.7303 138.344 73.3293 138.469 73.7824 138.719C74.2408 138.964 74.5949 139.25 74.8449 139.578C75.1001 139.906 75.298 140.195 75.4387 140.445H75.5793V134.5H77.9152V150.5H75.634V148.633H75.4387C75.298 148.888 75.0949 149.18 74.8293 149.508C74.5689 149.836 74.2095 150.122 73.7512 150.367C73.2928 150.612 72.6991 150.734 71.9699 150.734ZM72.4855 148.742C73.1574 148.742 73.7251 148.565 74.1887 148.211C74.6574 147.852 75.0116 147.354 75.2512 146.719C75.496 146.083 75.6184 145.344 75.6184 144.5C75.6184 143.667 75.4986 142.937 75.259 142.312C75.0194 141.687 74.6678 141.201 74.2043 140.852C73.7408 140.503 73.1678 140.328 72.4855 140.328C71.7824 140.328 71.1965 140.51 70.7277 140.875C70.259 141.24 69.9048 141.737 69.6652 142.367C69.4309 142.997 69.3137 143.708 69.3137 144.5C69.3137 145.302 69.4335 146.023 69.673 146.664C69.9126 147.305 70.2668 147.812 70.7355 148.187C71.2095 148.557 71.7928 148.742 72.4855 148.742ZM84.1914 150.766C83.431 150.766 82.7435 150.625 82.1289 150.344C81.5143 150.057 81.0273 149.643 80.668 149.102C80.3138 148.56 80.1367 147.896 80.1367 147.109C80.1367 146.432 80.2669 145.875 80.5273 145.437C80.7878 145 81.1393 144.654 81.582 144.398C82.0247 144.143 82.5195 143.951 83.0664 143.82C83.6133 143.69 84.1706 143.591 84.7383 143.523C85.457 143.44 86.0404 143.372 86.4883 143.32C86.9362 143.263 87.2617 143.172 87.4648 143.047C87.668 142.922 87.7695 142.719 87.7695 142.437V142.383C87.7695 141.701 87.5768 141.172 87.1914 140.797C86.8112 140.422 86.2435 140.234 85.4883 140.234C84.7018 140.234 84.082 140.409 83.6289 140.758C83.181 141.102 82.8711 141.484 82.6992 141.906L80.5039 141.406C80.7643 140.677 81.1445 140.089 81.6445 139.641C82.1497 139.187 82.7305 138.859 83.3867 138.656C84.043 138.448 84.7331 138.344 85.457 138.344C85.9362 138.344 86.444 138.401 86.9805 138.516C87.5221 138.625 88.0273 138.828 88.4961 139.125C88.9701 139.422 89.3581 139.846 89.6602 140.398C89.9622 140.945 90.1133 141.656 90.1133 142.531V150.5H87.832V148.859H87.7383C87.5872 149.161 87.3607 149.458 87.0586 149.75C86.7565 150.042 86.3685 150.284 85.8945 150.477C85.4206 150.669 84.8529 150.766 84.1914 150.766ZM84.6992 148.891C85.3451 148.891 85.8971 148.763 86.3555 148.508C86.819 148.253 87.1706 147.919 87.4102 147.508C87.6549 147.091 87.7773 146.646 87.7773 146.172V144.625C87.694 144.708 87.5326 144.786 87.293 144.859C87.0586 144.927 86.7904 144.987 86.4883 145.039C86.1862 145.086 85.8919 145.13 85.6055 145.172C85.319 145.208 85.0794 145.24 84.8867 145.266C84.4336 145.323 84.0195 145.419 83.6445 145.555C83.2747 145.69 82.9779 145.885 82.7539 146.141C82.5352 146.391 82.4258 146.724 82.4258 147.141C82.4258 147.719 82.6393 148.156 83.0664 148.453C83.4935 148.745 84.0378 148.891 84.6992 148.891ZM100.283 143.375V150.5H97.9469V138.5H100.189V140.453H100.338C100.614 139.818 101.046 139.307 101.634 138.922C102.228 138.536 102.976 138.344 103.877 138.344C104.694 138.344 105.41 138.516 106.025 138.859C106.64 139.198 107.116 139.703 107.455 140.375C107.793 141.047 107.963 141.878 107.963 142.867V150.5H105.627V143.148C105.627 142.279 105.4 141.599 104.947 141.109C104.494 140.615 103.871 140.367 103.08 140.367C102.538 140.367 102.056 140.484 101.634 140.719C101.218 140.953 100.887 141.297 100.642 141.75C100.403 142.198 100.283 142.74 100.283 143.375ZM115.717 150.742C114.535 150.742 113.517 150.49 112.662 149.984C111.814 149.474 111.157 148.758 110.694 147.836C110.235 146.909 110.006 145.823 110.006 144.578C110.006 143.349 110.235 142.266 110.694 141.328C111.157 140.391 111.803 139.659 112.631 139.133C113.465 138.607 114.439 138.344 115.553 138.344C116.23 138.344 116.886 138.456 117.522 138.68C118.157 138.904 118.728 139.255 119.233 139.734C119.738 140.214 120.136 140.836 120.428 141.602C120.72 142.362 120.866 143.286 120.866 144.375V145.203H111.327V143.453H118.577C118.577 142.839 118.452 142.294 118.202 141.82C117.952 141.341 117.6 140.964 117.147 140.687C116.699 140.411 116.173 140.273 115.569 140.273C114.912 140.273 114.34 140.435 113.85 140.758C113.366 141.076 112.991 141.492 112.725 142.008C112.465 142.518 112.334 143.073 112.334 143.672V145.039C112.334 145.841 112.475 146.523 112.756 147.086C113.043 147.648 113.441 148.078 113.952 148.375C114.462 148.667 115.058 148.812 115.741 148.812C116.183 148.812 116.587 148.75 116.952 148.625C117.316 148.495 117.631 148.302 117.897 148.047C118.162 147.792 118.366 147.477 118.506 147.102L120.717 147.5C120.54 148.151 120.222 148.721 119.764 149.211C119.311 149.695 118.741 150.073 118.053 150.344C117.371 150.609 116.592 150.742 115.717 150.742ZM125.243 134.5V150.5H122.907V134.5H125.243ZM127.836 138.5H130.172V151.281C130.172 152.083 130.026 152.76 129.734 153.312C129.448 153.865 129.021 154.284 128.453 154.57C127.891 154.857 127.195 155 126.367 155C126.284 155 126.206 155 126.133 155C126.055 155 125.974 154.997 125.891 154.992V152.984C125.964 152.984 126.029 152.984 126.086 152.984C126.138 152.984 126.198 152.984 126.266 152.984C126.818 152.984 127.216 152.836 127.461 152.539C127.711 152.247 127.836 151.823 127.836 151.266V138.5ZM128.992 136.648C128.586 136.648 128.237 136.513 127.945 136.242C127.659 135.966 127.516 135.638 127.516 135.258C127.516 134.872 127.659 134.544 127.945 134.273C128.237 133.997 128.586 133.859 128.992 133.859C129.398 133.859 129.745 133.997 130.031 134.273C130.323 134.544 130.469 134.872 130.469 135.258C130.469 135.638 130.323 135.966 130.031 136.242C129.745 136.513 129.398 136.648 128.992 136.648ZM136.257 150.766C135.496 150.766 134.809 150.625 134.194 150.344C133.58 150.057 133.093 149.643 132.733 149.102C132.379 148.56 132.202 147.896 132.202 147.109C132.202 146.432 132.332 145.875 132.593 145.437C132.853 145 133.205 144.654 133.647 144.398C134.09 144.143 134.585 143.951 135.132 143.82C135.679 143.69 136.236 143.591 136.804 143.523C137.522 143.44 138.106 143.372 138.554 143.32C139.001 143.263 139.327 143.172 139.53 143.047C139.733 142.922 139.835 142.719 139.835 142.437V142.383C139.835 141.701 139.642 141.172 139.257 140.797C138.876 140.422 138.309 140.234 137.554 140.234C136.767 140.234 136.147 140.409 135.694 140.758C135.246 141.102 134.936 141.484 134.764 141.906L132.569 141.406C132.83 140.677 133.21 140.089 133.71 139.641C134.215 139.187 134.796 138.859 135.452 138.656C136.108 138.448 136.798 138.344 137.522 138.344C138.001 138.344 138.509 138.401 139.046 138.516C139.587 138.625 140.093 138.828 140.561 139.125C141.035 139.422 141.423 139.846 141.725 140.398C142.027 140.945 142.179 141.656 142.179 142.531V150.5H139.897V148.859H139.804C139.652 149.161 139.426 149.458 139.124 149.75C138.822 150.042 138.434 150.284 137.96 150.477C137.486 150.669 136.918 150.766 136.257 150.766ZM136.764 148.891C137.41 148.891 137.962 148.763 138.421 148.508C138.884 148.253 139.236 147.919 139.475 147.508C139.72 147.091 139.843 146.646 139.843 146.172V144.625C139.759 144.708 139.598 144.786 139.358 144.859C139.124 144.927 138.856 144.987 138.554 145.039C138.251 145.086 137.957 145.13 137.671 145.172C137.384 145.208 137.145 145.24 136.952 145.266C136.499 145.323 136.085 145.419 135.71 145.555C135.34 145.69 135.043 145.885 134.819 146.141C134.6 146.391 134.491 146.724 134.491 147.141C134.491 147.719 134.705 148.156 135.132 148.453C135.559 148.745 136.103 148.891 136.764 148.891ZM159.004 141.43L156.887 141.805C156.799 141.534 156.658 141.276 156.465 141.031C156.278 140.786 156.023 140.586 155.7 140.43C155.377 140.273 154.973 140.195 154.489 140.195C153.827 140.195 153.275 140.344 152.832 140.641C152.39 140.932 152.168 141.31 152.168 141.773C152.168 142.174 152.317 142.497 152.614 142.742C152.911 142.987 153.39 143.187 154.051 143.344L155.957 143.781C157.062 144.036 157.885 144.43 158.426 144.961C158.968 145.492 159.239 146.182 159.239 147.031C159.239 147.75 159.03 148.391 158.614 148.953C158.202 149.51 157.627 149.948 156.887 150.266C156.153 150.583 155.301 150.742 154.332 150.742C152.989 150.742 151.892 150.456 151.043 149.883C150.194 149.305 149.674 148.484 149.481 147.422L151.739 147.078C151.879 147.667 152.168 148.112 152.606 148.414C153.043 148.711 153.614 148.859 154.317 148.859C155.082 148.859 155.694 148.701 156.153 148.383C156.611 148.06 156.84 147.667 156.84 147.203C156.84 146.828 156.7 146.513 156.418 146.258C156.142 146.003 155.718 145.81 155.145 145.68L153.114 145.234C151.994 144.979 151.166 144.573 150.629 144.016C150.098 143.458 149.832 142.753 149.832 141.898C149.832 141.19 150.03 140.57 150.426 140.039C150.822 139.508 151.369 139.094 152.067 138.797C152.765 138.495 153.564 138.344 154.465 138.344C155.762 138.344 156.783 138.625 157.528 139.187C158.273 139.745 158.765 140.492 159.004 141.43ZM166.312 150.742C165.187 150.742 164.205 150.484 163.366 149.969C162.528 149.453 161.877 148.732 161.413 147.805C160.95 146.878 160.718 145.794 160.718 144.555C160.718 143.31 160.95 142.221 161.413 141.289C161.877 140.357 162.528 139.633 163.366 139.117C164.205 138.602 165.187 138.344 166.312 138.344C167.437 138.344 168.418 138.602 169.257 139.117C170.096 139.633 170.747 140.357 171.21 141.289C171.674 142.221 171.905 143.31 171.905 144.555C171.905 145.794 171.674 146.878 171.21 147.805C170.747 148.732 170.096 149.453 169.257 149.969C168.418 150.484 167.437 150.742 166.312 150.742ZM166.32 148.781C167.049 148.781 167.653 148.589 168.132 148.203C168.611 147.818 168.965 147.305 169.195 146.664C169.429 146.023 169.546 145.318 169.546 144.547C169.546 143.781 169.429 143.078 169.195 142.437C168.965 141.792 168.611 141.273 168.132 140.883C167.653 140.492 167.049 140.297 166.32 140.297C165.585 140.297 164.976 140.492 164.491 140.883C164.012 141.273 163.655 141.792 163.421 142.437C163.192 143.078 163.077 143.781 163.077 144.547C163.077 145.318 163.192 146.023 163.421 146.664C163.655 147.305 164.012 147.818 164.491 148.203C164.976 148.589 165.585 148.781 166.32 148.781ZM163.96 137.047L162.39 137C162.39 136.135 162.622 135.445 163.085 134.93C163.554 134.414 164.132 134.156 164.82 134.156C165.137 134.156 165.416 134.211 165.655 134.32C165.895 134.424 166.119 134.547 166.327 134.688C166.541 134.823 166.752 134.945 166.96 135.055C167.174 135.159 167.411 135.211 167.671 135.211C167.973 135.211 168.218 135.096 168.405 134.867C168.598 134.638 168.695 134.354 168.695 134.016L170.234 134.117C170.234 134.987 169.999 135.672 169.53 136.172C169.062 136.667 168.486 136.917 167.804 136.922C167.434 136.922 167.127 136.87 166.882 136.766C166.642 136.656 166.429 136.534 166.241 136.398C166.054 136.258 165.861 136.133 165.663 136.023C165.465 135.914 165.228 135.859 164.952 135.859C164.661 135.859 164.421 135.974 164.234 136.203C164.051 136.427 163.96 136.708 163.96 137.047ZM174.15 150.5V134.5H176.486V140.445H176.627C176.762 140.195 176.958 139.906 177.213 139.578C177.468 139.25 177.822 138.964 178.275 138.719C178.729 138.469 179.327 138.344 180.072 138.344C181.041 138.344 181.906 138.589 182.666 139.078C183.426 139.568 184.023 140.273 184.455 141.195C184.893 142.117 185.111 143.227 185.111 144.523C185.111 145.82 184.895 146.932 184.463 147.859C184.031 148.781 183.437 149.492 182.682 149.992C181.926 150.487 181.064 150.734 180.096 150.734C179.367 150.734 178.77 150.612 178.307 150.367C177.848 150.122 177.489 149.836 177.229 149.508C176.968 149.18 176.768 148.888 176.627 148.633H176.432V150.5H174.15ZM176.439 144.5C176.439 145.344 176.562 146.083 176.807 146.719C177.051 147.354 177.406 147.852 177.869 148.211C178.333 148.565 178.9 148.742 179.572 148.742C180.27 148.742 180.854 148.557 181.322 148.187C181.791 147.812 182.145 147.305 182.385 146.664C182.63 146.023 182.752 145.302 182.752 144.5C182.752 143.708 182.632 142.997 182.393 142.367C182.158 141.737 181.804 141.24 181.33 140.875C180.861 140.51 180.275 140.328 179.572 140.328C178.895 140.328 178.322 140.503 177.854 140.852C177.39 141.201 177.038 141.687 176.799 142.312C176.559 142.937 176.439 143.667 176.439 144.5ZM187.184 150.5V138.5H189.442V140.406H189.567C189.786 139.76 190.171 139.253 190.723 138.883C191.281 138.508 191.911 138.32 192.614 138.32C192.76 138.32 192.932 138.326 193.13 138.336C193.333 138.346 193.492 138.359 193.606 138.375V140.609C193.512 140.583 193.346 140.555 193.106 140.523C192.867 140.487 192.627 140.469 192.387 140.469C191.835 140.469 191.343 140.586 190.911 140.82C190.484 141.049 190.145 141.37 189.895 141.781C189.645 142.187 189.52 142.651 189.52 143.172V150.5H187.184ZM198.462 150.766C197.702 150.766 197.015 150.625 196.4 150.344C195.785 150.057 195.298 149.643 194.939 149.102C194.585 148.56 194.408 147.896 194.408 147.109C194.408 146.432 194.538 145.875 194.798 145.437C195.059 145 195.41 144.654 195.853 144.398C196.296 144.143 196.791 143.951 197.337 143.82C197.884 143.69 198.442 143.591 199.009 143.523C199.728 143.44 200.311 143.372 200.759 143.32C201.207 143.263 201.533 143.172 201.736 143.047C201.939 142.922 202.041 142.719 202.041 142.437V142.383C202.041 141.701 201.848 141.172 201.462 140.797C201.082 140.422 200.515 140.234 199.759 140.234C198.973 140.234 198.353 140.409 197.9 140.758C197.452 141.102 197.142 141.484 196.97 141.906L194.775 141.406C195.035 140.677 195.416 140.089 195.916 139.641C196.421 139.187 197.002 138.859 197.658 138.656C198.314 138.448 199.004 138.344 199.728 138.344C200.207 138.344 200.715 138.401 201.252 138.516C201.793 138.625 202.298 138.828 202.767 139.125C203.241 139.422 203.629 139.846 203.931 140.398C204.233 140.945 204.384 141.656 204.384 142.531V150.5H202.103V148.859H202.009C201.858 149.161 201.632 149.458 201.33 149.75C201.028 150.042 200.64 150.284 200.166 150.477C199.692 150.669 199.124 150.766 198.462 150.766ZM198.97 148.891C199.616 148.891 200.168 148.763 200.627 148.508C201.09 148.253 201.442 147.919 201.681 147.508C201.926 147.091 202.048 146.646 202.048 146.172V144.625C201.965 144.708 201.804 144.786 201.564 144.859C201.33 144.927 201.061 144.987 200.759 145.039C200.457 145.086 200.163 145.13 199.877 145.172C199.59 145.208 199.351 145.24 199.158 145.266C198.705 145.323 198.291 145.419 197.916 145.555C197.546 145.69 197.249 145.885 197.025 146.141C196.806 146.391 196.697 146.724 196.697 147.141C196.697 147.719 196.91 148.156 197.337 148.453C197.765 148.745 198.309 148.891 198.97 148.891ZM211.977 155.25C211.024 155.25 210.204 155.125 209.516 154.875C208.834 154.625 208.276 154.294 207.844 153.883C207.412 153.471 207.089 153.021 206.875 152.531L208.883 151.703C209.024 151.932 209.211 152.174 209.446 152.43C209.685 152.69 210.008 152.911 210.414 153.094C210.826 153.276 211.355 153.367 212 153.367C212.886 153.367 213.618 153.151 214.196 152.719C214.774 152.292 215.063 151.609 215.063 150.672V148.312H214.914C214.774 148.568 214.571 148.852 214.305 149.164C214.045 149.477 213.685 149.747 213.227 149.977C212.769 150.206 212.172 150.32 211.438 150.32C210.49 150.32 209.636 150.099 208.875 149.656C208.12 149.208 207.521 148.549 207.079 147.68C206.641 146.805 206.422 145.729 206.422 144.453C206.422 143.177 206.638 142.083 207.071 141.172C207.508 140.26 208.107 139.562 208.868 139.078C209.628 138.589 210.49 138.344 211.454 138.344C212.198 138.344 212.8 138.469 213.258 138.719C213.717 138.964 214.073 139.25 214.329 139.578C214.589 139.906 214.789 140.195 214.93 140.445H215.102V138.5H217.391V150.766C217.391 151.797 217.151 152.643 216.672 153.305C216.193 153.966 215.545 154.456 214.727 154.773C213.914 155.091 212.998 155.25 211.977 155.25ZM211.954 148.383C212.625 148.383 213.193 148.227 213.657 147.914C214.125 147.596 214.48 147.143 214.719 146.555C214.964 145.961 215.086 145.25 215.086 144.422C215.086 143.615 214.967 142.904 214.727 142.289C214.487 141.674 214.136 141.195 213.672 140.852C213.209 140.503 212.636 140.328 211.954 140.328C211.25 140.328 210.664 140.51 210.196 140.875C209.727 141.234 209.373 141.724 209.133 142.344C208.899 142.964 208.782 143.656 208.782 144.422C208.782 145.208 208.901 145.898 209.141 146.492C209.381 147.086 209.735 147.549 210.204 147.883C210.677 148.216 211.261 148.383 211.954 148.383ZM223.466 150.766C222.706 150.766 222.018 150.625 221.404 150.344C220.789 150.057 220.302 149.643 219.943 149.102C219.588 148.56 219.411 147.896 219.411 147.109C219.411 146.432 219.542 145.875 219.802 145.437C220.062 145 220.414 144.654 220.857 144.398C221.299 144.143 221.794 143.951 222.341 143.82C222.888 143.69 223.445 143.591 224.013 143.523C224.732 143.44 225.315 143.372 225.763 143.32C226.211 143.263 226.536 143.172 226.739 143.047C226.943 142.922 227.044 142.719 227.044 142.437V142.383C227.044 141.701 226.851 141.172 226.466 140.797C226.086 140.422 225.518 140.234 224.763 140.234C223.976 140.234 223.357 140.409 222.904 140.758C222.456 141.102 222.146 141.484 221.974 141.906L219.779 141.406C220.039 140.677 220.419 140.089 220.919 139.641C221.424 139.187 222.005 138.859 222.661 138.656C223.318 138.448 224.008 138.344 224.732 138.344C225.211 138.344 225.719 138.401 226.255 138.516C226.797 138.625 227.302 138.828 227.771 139.125C228.245 139.422 228.633 139.846 228.935 140.398C229.237 140.945 229.388 141.656 229.388 142.531V150.5H227.107V148.859H227.013C226.862 149.161 226.635 149.458 226.333 149.75C226.031 150.042 225.643 150.284 225.169 150.477C224.695 150.669 224.127 150.766 223.466 150.766ZM223.974 148.891C224.62 148.891 225.172 148.763 225.63 148.508C226.094 148.253 226.445 147.919 226.685 147.508C226.93 147.091 227.052 146.646 227.052 146.172V144.625C226.969 144.708 226.807 144.786 226.568 144.859C226.333 144.927 226.065 144.987 225.763 145.039C225.461 145.086 225.167 145.13 224.88 145.172C224.594 145.208 224.354 145.24 224.161 145.266C223.708 145.323 223.294 145.419 222.919 145.555C222.549 145.69 222.252 145.885 222.029 146.141C221.81 146.391 221.7 146.724 221.7 147.141C221.7 147.719 221.914 148.156 222.341 148.453C222.768 148.745 223.312 148.891 223.974 148.891ZM234.895 134.5L234.691 145.898H232.527L232.324 134.5H234.895ZM233.613 150.648C233.181 150.648 232.811 150.497 232.504 150.195C232.197 149.888 232.046 149.518 232.051 149.086C232.046 148.659 232.197 148.294 232.504 147.992C232.811 147.685 233.181 147.531 233.613 147.531C234.035 147.531 234.4 147.685 234.707 147.992C235.014 148.294 235.171 148.659 235.176 149.086C235.171 149.372 235.095 149.635 234.949 149.875C234.809 150.109 234.621 150.297 234.387 150.437C234.152 150.578 233.895 150.648 233.613 150.648Z" fill="#442604"/>
<rect x="24" y="182.5" width="252" height="53" rx="9" fill="#E3000F"/>
<path d="M96.912 194.646C98.872 194.646 100.566 195.01 101.994 195.738C103.422 196.438 104.5 197.404 105.228 198.636C105.984 199.84 106.362 201.184 106.362 202.668C106.362 204.208 106.026 205.692 105.354 207.12C104.71 208.548 103.59 210.158 101.994 211.95C100.426 213.742 98.13 216.052 95.106 218.88H106.992L106.32 223.5H88.302V219.174C91.83 215.646 94.378 213.014 95.946 211.278C97.514 209.542 98.62 208.072 99.264 206.868C99.908 205.664 100.23 204.432 100.23 203.172C100.23 201.968 99.88 201.016 99.18 200.316C98.48 199.616 97.542 199.266 96.366 199.266C95.33 199.266 94.406 199.504 93.594 199.98C92.782 200.428 91.928 201.184 91.032 202.248L87.462 199.392C89.87 196.228 93.02 194.646 96.912 194.646ZM126.894 214.134C127.286 216.066 128 217.48 129.036 218.376C130.1 219.272 131.514 219.72 133.278 219.72C135.154 219.72 137.17 219.132 139.326 217.956V222.576C138.178 223.108 137.086 223.5 136.05 223.752C135.014 224.032 133.88 224.172 132.648 224.172C129.484 224.172 126.88 223.304 124.836 221.568C122.82 219.804 121.49 217.326 120.846 214.134H117.192L118.032 210.9H120.678V207.75H117.192L118.032 204.474H120.888C121.672 201.422 123.128 199.028 125.256 197.292C127.412 195.528 129.946 194.646 132.858 194.646C135.77 194.646 138.402 195.444 140.754 197.04L138.612 200.736C137.716 200.148 136.834 199.728 135.966 199.476C135.098 199.196 134.132 199.056 133.068 199.056C131.612 199.056 130.366 199.504 129.33 200.4C128.294 201.296 127.524 202.654 127.02 204.474H137.31L136.47 207.75H126.726V210.9H135.798L135 214.134H126.894Z" fill="#FFE80D"/>
<path d="M151.399 216.5V214.909L156.321 209.81C156.847 209.256 157.28 208.77 157.621 208.354C157.966 207.932 158.224 207.532 158.395 207.153C158.565 206.775 158.651 206.372 158.651 205.946C158.651 205.463 158.537 205.046 158.31 204.696C158.082 204.341 157.772 204.069 157.379 203.879C156.986 203.685 156.544 203.588 156.051 203.588C155.53 203.588 155.076 203.695 154.688 203.908C154.299 204.121 154.001 204.421 153.793 204.81C153.584 205.198 153.48 205.652 153.48 206.173H151.385C151.385 205.288 151.589 204.514 151.996 203.851C152.403 203.188 152.962 202.674 153.672 202.31C154.382 201.94 155.189 201.756 156.094 201.756C157.008 201.756 157.813 201.938 158.509 202.303C159.209 202.662 159.756 203.155 160.149 203.78C160.542 204.4 160.739 205.101 160.739 205.882C160.739 206.422 160.637 206.95 160.433 207.466C160.234 207.982 159.886 208.557 159.389 209.192C158.892 209.821 158.201 210.586 157.315 211.486L154.425 214.511V214.618H160.973V216.5H151.399ZM169.939 212.8L169.925 210.207H170.294L174.641 205.591H177.184L172.226 210.847H171.892L169.939 212.8ZM167.986 216.5V201.955H170.11V216.5H167.986ZM174.875 216.5L170.969 211.315L172.432 209.831L177.482 216.5H174.875ZM185.529 211.976V205.591H187.66V216.5H185.572V214.611H185.458C185.208 215.193 184.805 215.679 184.251 216.067C183.702 216.45 183.018 216.642 182.199 216.642C181.498 216.642 180.877 216.488 180.338 216.18C179.803 215.868 179.381 215.406 179.074 214.795C178.77 214.185 178.619 213.429 178.619 212.53V205.591H180.743V212.274C180.743 213.018 180.949 213.609 181.36 214.05C181.772 214.49 182.307 214.71 182.966 214.71C183.363 214.71 183.759 214.611 184.152 214.412C184.549 214.213 184.878 213.912 185.139 213.51C185.404 213.107 185.534 212.596 185.529 211.976ZM196.924 211.976V205.591H199.055V216.5H196.967V214.611H196.853C196.602 215.193 196.2 215.679 195.646 216.067C195.096 216.45 194.412 216.642 193.593 216.642C192.892 216.642 192.272 216.488 191.732 216.18C191.197 215.868 190.776 215.406 190.468 214.795C190.165 214.185 190.013 213.429 190.013 212.53V205.591H192.137V212.274C192.137 213.018 192.343 213.609 192.755 214.05C193.167 214.49 193.702 214.71 194.36 214.71C194.758 214.71 195.153 214.611 195.546 214.412C195.944 214.213 196.273 213.912 196.533 213.51C196.799 213.107 196.929 212.596 196.924 211.976ZM205.492 216.713C204.611 216.713 203.825 216.488 203.134 216.038C202.447 215.584 201.908 214.937 201.515 214.099C201.126 213.257 200.932 212.246 200.932 211.067C200.932 209.888 201.129 208.879 201.522 208.041C201.919 207.203 202.464 206.562 203.155 206.116C203.846 205.671 204.63 205.449 205.506 205.449C206.183 205.449 206.728 205.562 207.14 205.79C207.556 206.012 207.878 206.273 208.105 206.571C208.337 206.869 208.517 207.132 208.645 207.359H208.773V201.955H210.897V216.5H208.823V214.803H208.645C208.517 215.035 208.333 215.3 208.091 215.598C207.855 215.896 207.528 216.157 207.111 216.379C206.694 216.602 206.155 216.713 205.492 216.713ZM205.961 214.902C206.571 214.902 207.087 214.741 207.509 214.419C207.935 214.092 208.257 213.64 208.475 213.062C208.697 212.485 208.809 211.812 208.809 211.045C208.809 210.288 208.7 209.625 208.482 209.057C208.264 208.489 207.944 208.046 207.523 207.729C207.102 207.411 206.581 207.253 205.961 207.253C205.321 207.253 204.789 207.419 204.363 207.75C203.936 208.081 203.614 208.534 203.397 209.107C203.184 209.679 203.077 210.326 203.077 211.045C203.077 211.775 203.186 212.43 203.404 213.013C203.622 213.595 203.944 214.057 204.37 214.398C204.801 214.734 205.331 214.902 205.961 214.902Z" fill="white"/>
<rect x="25.5" y="241" width="249" height="45" rx="10.5" stroke="#E3000F" stroke-width="3"/>
<path d="M132.936 255.368L132.552 258.392H128.448V272H124.512V258.392H120.216V255.368H132.936ZM144.248 265.376C144.248 265.904 144.224 266.36 144.176 266.744H136.28C136.408 267.816 136.712 268.568 137.192 269C137.672 269.432 138.336 269.648 139.184 269.648C139.696 269.648 140.192 269.56 140.672 269.384C141.152 269.192 141.672 268.904 142.232 268.52L143.792 270.632C142.304 271.816 140.648 272.408 138.824 272.408C136.76 272.408 135.176 271.8 134.072 270.584C132.968 269.368 132.416 267.736 132.416 265.688C132.416 264.392 132.648 263.232 133.112 262.208C133.576 261.168 134.256 260.352 135.152 259.76C136.048 259.152 137.12 258.848 138.368 258.848C140.208 258.848 141.648 259.424 142.688 260.576C143.728 261.728 144.248 263.328 144.248 265.376ZM140.528 264.296C140.496 262.344 139.808 261.368 138.464 261.368C137.808 261.368 137.296 261.608 136.928 262.088C136.576 262.568 136.36 263.36 136.28 264.464H140.528V264.296ZM149.763 272.408C148.659 272.408 147.795 272.096 147.171 271.472C146.563 270.832 146.259 269.928 146.259 268.76V254.192L150.051 253.784V268.616C150.051 269.144 150.267 269.408 150.699 269.408C150.923 269.408 151.131 269.368 151.323 269.288L152.067 271.976C151.379 272.264 150.611 272.408 149.763 272.408ZM156.888 272.408C155.784 272.408 154.92 272.096 154.296 271.472C153.688 270.832 153.384 269.928 153.384 268.76V254.192L157.176 253.784V268.616C157.176 269.144 157.392 269.408 157.824 269.408C158.048 269.408 158.256 269.368 158.448 269.288L159.192 271.976C158.504 272.264 157.736 272.408 156.888 272.408ZM164.421 259.256V272H160.629V259.256H164.421ZM162.501 252.536C163.157 252.536 163.693 252.744 164.109 253.16C164.541 253.56 164.757 254.072 164.757 254.696C164.757 255.32 164.541 255.84 164.109 256.256C163.693 256.656 163.157 256.856 162.501 256.856C161.845 256.856 161.309 256.656 160.893 256.256C160.477 255.84 160.269 255.32 160.269 254.696C160.269 254.072 160.477 253.56 160.893 253.16C161.309 252.744 161.845 252.536 162.501 252.536ZM174.866 258.848C175.97 258.848 176.834 259.184 177.458 259.856C178.082 260.528 178.394 261.472 178.394 262.688V272H174.602V263.336C174.602 262.696 174.498 262.256 174.29 262.016C174.098 261.76 173.802 261.632 173.402 261.632C172.634 261.632 171.898 262.184 171.194 263.288V272H167.402V259.256H170.714L170.978 260.768C171.522 260.128 172.106 259.648 172.73 259.328C173.37 259.008 174.082 258.848 174.866 258.848Z" fill="#E3000F"/>
</svg>
