<svg width="700" height="100" viewBox="0 0 700 100" fill="none" xmlns="http://www.w3.org/2000/svg">
<path d="M69.824 21.292C73.744 21.292 77.132 22.02 79.988 23.476C82.844 24.876 85 26.808 86.456 29.272C87.968 31.68 88.724 34.368 88.724 37.336C88.724 40.416 88.052 43.384 86.708 46.24C85.42 49.096 83.18 52.316 79.988 55.9C76.852 59.484 72.26 64.104 66.212 69.76H89.984L88.64 79H52.604V70.348C59.66 63.292 64.756 58.028 67.892 54.556C71.028 51.084 73.24 48.144 74.528 45.736C75.816 43.328 76.46 40.864 76.46 38.344C76.46 35.936 75.76 34.032 74.36 32.632C72.96 31.232 71.084 30.532 68.732 30.532C66.66 30.532 64.812 31.008 63.188 31.96C61.564 32.856 59.856 34.368 58.064 36.496L50.924 30.784C55.74 24.456 62.04 21.292 69.824 21.292ZM133.988 60.268C134.772 64.132 136.2 66.96 138.272 68.752C140.4 70.544 143.228 71.44 146.756 71.44C150.508 71.44 154.54 70.264 158.852 67.912V77.152C156.556 78.216 154.372 79 152.3 79.504C150.228 80.064 147.96 80.344 145.496 80.344C139.168 80.344 133.96 78.608 129.872 75.136C125.84 71.608 123.18 66.652 121.892 60.268H114.584L116.264 53.8H121.556V47.5H114.584L116.264 40.948H121.976C123.544 34.844 126.456 30.056 130.712 26.584C135.024 23.056 140.092 21.292 145.916 21.292C151.74 21.292 157.004 22.888 161.708 26.08L157.424 33.472C155.632 32.296 153.868 31.456 152.132 30.952C150.396 30.392 148.464 30.112 146.336 30.112C143.424 30.112 140.932 31.008 138.86 32.8C136.788 34.592 135.248 37.308 134.24 40.948H154.82L153.14 47.5H133.652V53.8H151.796L150.2 60.268H133.988Z" fill="#E3000F"/>
<path d="M196.047 58.25V61.5H180.641V58.7188L188.031 50.7344C188.802 49.8594 189.411 49.099 189.859 48.4531C190.307 47.8073 190.625 47.224 190.812 46.7031C191.01 46.1719 191.109 45.6667 191.109 45.1875C191.109 44.4896 190.984 43.8802 190.734 43.3594C190.484 42.8281 190.12 42.4167 189.641 42.125C189.172 41.8333 188.594 41.6875 187.906 41.6875C187.146 41.6875 186.495 41.8646 185.953 42.2188C185.422 42.5625 185.016 43.0417 184.734 43.6562C184.464 44.2708 184.328 44.974 184.328 45.7656H180.188C180.188 44.4219 180.5 43.1979 181.125 42.0938C181.75 40.9792 182.646 40.0885 183.812 39.4219C184.979 38.7552 186.365 38.4219 187.969 38.4219C189.531 38.4219 190.854 38.6823 191.938 39.2031C193.021 39.7135 193.844 40.4427 194.406 41.3906C194.969 42.3385 195.25 43.4688 195.25 44.7812C195.25 45.5104 195.13 46.2292 194.891 46.9375C194.651 47.6458 194.312 48.349 193.875 49.0469C193.448 49.7344 192.938 50.4323 192.344 51.1406C191.75 51.849 191.089 52.5729 190.359 53.3125L185.922 58.25H196.047ZM211.234 37.4844V61.5H207.109V37.4844H211.234ZM221.828 44.5938L214.469 52.8594L210.484 56.9062L209.172 53.7031L212.25 49.8281L216.844 44.5938H221.828ZM217.609 61.5L212.375 53.625L215.125 50.9531L222.391 61.5H217.609ZM234.078 57.4844V44.5938H238.234V61.5H234.328L234.078 57.4844ZM234.609 53.9844L235.891 53.9531C235.891 55.0885 235.766 56.1354 235.516 57.0938C235.266 58.0521 234.875 58.8854 234.344 59.5938C233.823 60.2917 233.161 60.8385 232.359 61.2344C231.557 61.6198 230.609 61.8125 229.516 61.8125C228.682 61.8125 227.922 61.6979 227.234 61.4688C226.547 61.2292 225.953 60.8594 225.453 60.3594C224.964 59.849 224.583 59.1979 224.312 58.4062C224.042 57.6042 223.906 56.6406 223.906 55.5156V44.5938H228.031V55.5469C228.031 56.1094 228.094 56.5781 228.219 56.9531C228.354 57.3281 228.536 57.6354 228.766 57.875C229.005 58.1042 229.281 58.2708 229.594 58.375C229.917 58.4688 230.26 58.5156 230.625 58.5156C231.625 58.5156 232.411 58.3177 232.984 57.9219C233.568 57.5156 233.984 56.974 234.234 56.2969C234.484 55.6094 234.609 54.8385 234.609 53.9844ZM251.953 57.4844V44.5938H256.109V61.5H252.203L251.953 57.4844ZM252.484 53.9844L253.766 53.9531C253.766 55.0885 253.641 56.1354 253.391 57.0938C253.141 58.0521 252.75 58.8854 252.219 59.5938C251.698 60.2917 251.036 60.8385 250.234 61.2344C249.432 61.6198 248.484 61.8125 247.391 61.8125C246.557 61.8125 245.797 61.6979 245.109 61.4688C244.422 61.2292 243.828 60.8594 243.328 60.3594C242.839 59.849 242.458 59.1979 242.188 58.4062C241.917 57.6042 241.781 56.6406 241.781 55.5156V44.5938H245.906V55.5469C245.906 56.1094 245.969 56.5781 246.094 56.9531C246.229 57.3281 246.411 57.6354 246.641 57.875C246.88 58.1042 247.156 58.2708 247.469 58.375C247.792 58.4688 248.135 58.5156 248.5 58.5156C249.5 58.5156 250.286 58.3177 250.859 57.9219C251.443 57.5156 251.859 56.974 252.109 56.2969C252.359 55.6094 252.484 54.8385 252.484 53.9844ZM269.906 57.9062V37.5H274.062V61.5H270.312L269.906 57.9062ZM259.047 53.25V52.9219C259.047 51.6302 259.193 50.4583 259.484 49.4062C259.786 48.3438 260.224 47.4323 260.797 46.6719C261.37 45.9115 262.062 45.3229 262.875 44.9062C263.698 44.4896 264.63 44.2812 265.672 44.2812C266.682 44.2812 267.562 44.4844 268.312 44.8906C269.073 45.2969 269.719 45.875 270.25 46.625C270.792 47.375 271.224 48.2656 271.547 49.2969C271.87 50.3177 272.104 51.4427 272.25 52.6719V53.5625C272.104 54.7604 271.87 55.8594 271.547 56.8594C271.224 57.8594 270.792 58.7344 270.25 59.4844C269.719 60.224 269.073 60.7969 268.312 61.2031C267.552 61.6094 266.661 61.8125 265.641 61.8125C264.609 61.8125 263.682 61.599 262.859 61.1719C262.047 60.7448 261.354 60.1458 260.781 59.375C260.219 58.6042 259.786 57.6979 259.484 56.6562C259.193 55.6146 259.047 54.4792 259.047 53.25ZM263.188 52.9219V53.25C263.188 53.9792 263.25 54.6615 263.375 55.2969C263.5 55.9323 263.703 56.4948 263.984 56.9844C264.266 57.4635 264.625 57.8385 265.062 58.1094C265.51 58.3802 266.052 58.5156 266.688 58.5156C267.5 58.5156 268.167 58.3385 268.688 57.9844C269.219 57.6198 269.63 57.125 269.922 56.5C270.214 55.8646 270.401 55.151 270.484 54.3594V51.9062C270.443 51.2812 270.333 50.7031 270.156 50.1719C269.99 49.6406 269.75 49.1823 269.438 48.7969C269.135 48.4115 268.76 48.1094 268.312 47.8906C267.865 47.6719 267.333 47.5625 266.719 47.5625C266.083 47.5625 265.542 47.7031 265.094 47.9844C264.646 48.2552 264.281 48.6354 264 49.125C263.719 49.6146 263.51 50.1823 263.375 50.8281C263.25 51.474 263.188 52.1719 263.188 52.9219Z" fill="#461102"/>
<rect x="334" y="18" width="316" height="64" rx="16" fill="#E3000F"/>
<path d="M383.248 38.824L382.736 42.856H377.264V61H372.016V42.856H366.288V38.824H383.248ZM398.961 38.824L398.417 42.568H390.609V47.88H397.425V51.56H390.609V57.224H398.961V61H385.361V38.824H398.961ZM407.453 38.824V56.84H416.093L415.549 61H402.205V38.824H407.453ZM423.859 38.824V56.84H432.499L431.955 61H418.611V38.824H423.859ZM440.266 38.824V61H435.018V38.824H440.266ZM458.162 38.824C461.64 38.824 464.424 39.6133 466.514 41.192C468.626 42.7493 469.682 45.6187 469.682 49.8C469.682 53.9173 468.658 56.8187 466.61 58.504C464.562 60.168 461.906 61 458.642 61H451.986V38.824H458.162ZM457.234 42.632V57.192H458.962C460.69 57.192 462.002 56.6587 462.898 55.592C463.794 54.504 464.242 52.5733 464.242 49.8C464.242 47.9013 464.018 46.4293 463.57 45.384C463.122 44.3387 462.514 43.624 461.746 43.24C460.978 42.8347 460.029 42.632 458.898 42.632H457.234ZM478.078 38.824V61H472.83V38.824H478.078ZM491.805 38.28C494.664 38.28 497.128 39.1867 499.197 41L496.541 43.784C495.752 43.1867 495.016 42.76 494.333 42.504C493.672 42.2267 492.904 42.088 492.029 42.088C490.386 42.088 489.074 42.7387 488.093 44.04C487.112 45.32 486.621 47.272 486.621 49.896C486.621 52.7333 486.994 54.7493 487.741 55.944C488.488 57.1173 489.65 57.704 491.229 57.704C492.338 57.704 493.341 57.4587 494.237 56.968V51.944H491.357L490.845 48.232H499.325V59.208C498.173 59.9547 496.904 60.5307 495.517 60.936C494.13 61.3413 492.744 61.544 491.357 61.544C487.986 61.544 485.448 60.5627 483.741 58.6C482.034 56.616 481.181 53.7147 481.181 49.896C481.181 47.464 481.64 45.3733 482.557 43.624C483.496 41.8747 484.765 40.552 486.365 39.656C487.986 38.7387 489.8 38.28 491.805 38.28ZM508.078 38.824V61H502.83V38.824H508.078ZM519.373 38.824C522.296 38.824 524.568 39.432 526.189 40.648C527.81 41.864 528.621 43.6667 528.621 46.056C528.621 48.552 527.821 50.44 526.221 51.72C524.642 52.9787 522.52 53.608 519.853 53.608H517.453V61H512.205V38.824H519.373ZM519.405 49.832C520.642 49.832 521.581 49.544 522.221 48.968C522.882 48.3707 523.213 47.4 523.213 46.056C523.213 43.7307 521.912 42.568 519.309 42.568H517.453V49.832H519.405ZM541.166 61L540.014 56.232H533.55L532.43 61H526.99L533.678 38.824H540.046L546.734 61H541.166ZM534.446 52.424H539.118L536.782 42.632L534.446 52.424ZM553.609 38.824V61H548.361V38.824H553.609ZM566.345 38.824L559.273 48.776L566.921 61H560.841L553.769 49.16L560.809 38.824H566.345ZM582.211 38.824L581.667 42.568H573.859V47.88H580.675V51.56H573.859V57.224H582.211V61H568.611V38.824H582.211ZM600.623 38.824L600.111 42.856H594.639V61H589.391V42.856H583.663V38.824H600.623ZM617.904 38.824L617.392 42.856H611.92V61H606.672V42.856H600.944V38.824H617.904Z" fill="#FFE80D"/>
</svg>
