<svg width="700" height="100" viewBox="0 0 700 100" fill="none" xmlns="http://www.w3.org/2000/svg">
<path d="M66.4688 21.25V44H62.5469L52.3438 27.7031V44H48.4219V21.25H52.3438L62.5781 37.5781V21.25H66.4688ZM80.2969 40.6094V32.5469C80.2969 31.9427 80.1875 31.4219 79.9688 30.9844C79.75 30.5469 79.4167 30.2083 78.9688 29.9688C78.5312 29.7292 77.9792 29.6094 77.3125 29.6094C76.6979 29.6094 76.1667 29.7135 75.7188 29.9219C75.2708 30.1302 74.9219 30.4115 74.6719 30.7656C74.4219 31.1198 74.2969 31.5208 74.2969 31.9688H70.5469C70.5469 31.3021 70.7083 30.6562 71.0312 30.0312C71.3542 29.4062 71.8229 28.849 72.4375 28.3594C73.0521 27.8698 73.7865 27.4844 74.6406 27.2031C75.4948 26.9219 76.4531 26.7812 77.5156 26.7812C78.7865 26.7812 79.9115 26.9948 80.8906 27.4219C81.8802 27.849 82.6562 28.4948 83.2188 29.3594C83.7917 30.2135 84.0781 31.2865 84.0781 32.5781V40.0938C84.0781 40.8646 84.1302 41.5573 84.2344 42.1719C84.349 42.776 84.5104 43.3021 84.7188 43.75V44H80.8594C80.6823 43.5938 80.5417 43.0781 80.4375 42.4531C80.3438 41.8177 80.2969 41.2031 80.2969 40.6094ZM80.8438 33.7188L80.875 36.0469H78.1719C77.474 36.0469 76.8594 36.1146 76.3281 36.25C75.7969 36.375 75.3542 36.5625 75 36.8125C74.6458 37.0625 74.3802 37.3646 74.2031 37.7188C74.026 38.0729 73.9375 38.474 73.9375 38.9219C73.9375 39.3698 74.0417 39.7812 74.25 40.1562C74.4583 40.5208 74.7604 40.8073 75.1562 41.0156C75.5625 41.224 76.0521 41.3281 76.625 41.3281C77.3958 41.3281 78.0677 41.1719 78.6406 40.8594C79.224 40.5365 79.6823 40.1458 80.0156 39.6875C80.349 39.2188 80.526 38.776 80.5469 38.3594L81.7656 40.0312C81.6406 40.4583 81.4271 40.9167 81.125 41.4062C80.8229 41.8958 80.4271 42.3646 79.9375 42.8125C79.4583 43.25 78.8802 43.6094 78.2031 43.8906C77.5365 44.1719 76.7656 44.3125 75.8906 44.3125C74.7865 44.3125 73.8021 44.0938 72.9375 43.6562C72.0729 43.2083 71.3958 42.6094 70.9062 41.8594C70.4167 41.099 70.1719 40.2396 70.1719 39.2812C70.1719 38.3854 70.3385 37.5938 70.6719 36.9062C71.0156 36.2083 71.5156 35.625 72.1719 35.1562C72.8385 34.6875 73.651 34.3333 74.6094 34.0938C75.5677 33.8438 76.6615 33.7188 77.8906 33.7188H80.8438ZM92.0469 27.0938V44H88.2656V27.0938H92.0469ZM88.0156 22.6562C88.0156 22.0833 88.2031 21.6094 88.5781 21.2344C88.9635 20.849 89.4948 20.6562 90.1719 20.6562C90.8385 20.6562 91.3646 20.849 91.75 21.2344C92.1354 21.6094 92.3281 22.0833 92.3281 22.6562C92.3281 23.2188 92.1354 23.6875 91.75 24.0625C91.3646 24.4375 90.8385 24.625 90.1719 24.625C89.4948 24.625 88.9635 24.4375 88.5781 24.0625C88.2031 23.6875 88.0156 23.2188 88.0156 22.6562ZM105.656 39.4219C105.656 39.0469 105.562 38.7083 105.375 38.4062C105.188 38.0938 104.828 37.8125 104.297 37.5625C103.776 37.3125 103.005 37.0833 101.984 36.875C101.089 36.6771 100.266 36.4427 99.5156 36.1719C98.776 35.8906 98.1406 35.5521 97.6094 35.1562C97.0781 34.7604 96.6667 34.2917 96.375 33.75C96.0833 33.2083 95.9375 32.5833 95.9375 31.875C95.9375 31.1875 96.0885 30.5365 96.3906 29.9219C96.6927 29.3073 97.125 28.7656 97.6875 28.2969C98.25 27.8281 98.9323 27.4583 99.7344 27.1875C100.547 26.9167 101.453 26.7812 102.453 26.7812C103.87 26.7812 105.083 27.0208 106.094 27.5C107.115 27.9688 107.896 28.6094 108.438 29.4219C108.979 30.224 109.25 31.1302 109.25 32.1406H105.484C105.484 31.6927 105.37 31.276 105.141 30.8906C104.922 30.4948 104.589 30.1771 104.141 29.9375C103.693 29.6875 103.13 29.5625 102.453 29.5625C101.807 29.5625 101.271 29.6667 100.844 29.875C100.427 30.0729 100.115 30.3333 99.9062 30.6562C99.7083 30.9792 99.6094 31.3333 99.6094 31.7188C99.6094 32 99.6615 32.2552 99.7656 32.4844C99.8802 32.7031 100.068 32.9062 100.328 33.0938C100.589 33.2708 100.943 33.4375 101.391 33.5938C101.849 33.75 102.422 33.901 103.109 34.0469C104.401 34.3177 105.51 34.6667 106.438 35.0938C107.375 35.5104 108.094 36.0521 108.594 36.7188C109.094 37.375 109.344 38.2083 109.344 39.2188C109.344 39.9688 109.182 40.6562 108.859 41.2812C108.547 41.8958 108.089 42.4323 107.484 42.8906C106.88 43.3385 106.156 43.6875 105.312 43.9375C104.479 44.1875 103.542 44.3125 102.5 44.3125C100.969 44.3125 99.6719 44.0417 98.6094 43.5C97.5469 42.9479 96.7396 42.2448 96.1875 41.3906C95.6458 40.526 95.375 39.6302 95.375 38.7031H99.0156C99.0573 39.401 99.25 39.9583 99.5938 40.375C99.9479 40.7812 100.385 41.0781 100.906 41.2656C101.438 41.4427 101.984 41.5312 102.547 41.5312C103.224 41.5312 103.792 41.4427 104.25 41.2656C104.708 41.0781 105.057 40.8281 105.297 40.5156C105.536 40.1927 105.656 39.8281 105.656 39.4219ZM120.391 27.0938V29.8438H110.859V27.0938H120.391ZM113.609 22.9531H117.375V39.3281C117.375 39.849 117.448 40.25 117.594 40.5312C117.75 40.8021 117.964 40.9844 118.234 41.0781C118.505 41.1719 118.823 41.2188 119.188 41.2188C119.448 41.2188 119.698 41.2031 119.938 41.1719C120.177 41.1406 120.37 41.1094 120.516 41.0781L120.531 43.9531C120.219 44.0469 119.854 44.1302 119.438 44.2031C119.031 44.276 118.562 44.3125 118.031 44.3125C117.167 44.3125 116.401 44.1615 115.734 43.8594C115.068 43.5469 114.547 43.0417 114.172 42.3438C113.797 41.6458 113.609 40.7188 113.609 39.5625V22.9531ZM130.75 44.3125C129.5 44.3125 128.37 44.1094 127.359 43.7031C126.359 43.2865 125.505 42.7083 124.797 41.9688C124.099 41.2292 123.562 40.3594 123.188 39.3594C122.812 38.3594 122.625 37.2812 122.625 36.125V35.5C122.625 34.1771 122.818 32.9792 123.203 31.9062C123.589 30.8333 124.125 29.9167 124.812 29.1562C125.5 28.3854 126.312 27.7969 127.25 27.3906C128.188 26.9844 129.203 26.7812 130.297 26.7812C131.505 26.7812 132.562 26.9844 133.469 27.3906C134.375 27.7969 135.125 28.3698 135.719 29.1094C136.323 29.8385 136.771 30.7083 137.062 31.7188C137.365 32.7292 137.516 33.8438 137.516 35.0625V36.6719H124.453V33.9688H133.797V33.6719C133.776 32.9948 133.641 32.3594 133.391 31.7656C133.151 31.1719 132.781 30.6927 132.281 30.3281C131.781 29.9635 131.115 29.7812 130.281 29.7812C129.656 29.7812 129.099 29.9167 128.609 30.1875C128.13 30.4479 127.729 30.8281 127.406 31.3281C127.083 31.8281 126.833 32.4323 126.656 33.1406C126.49 33.8385 126.406 34.625 126.406 35.5V36.125C126.406 36.8646 126.505 37.5521 126.703 38.1875C126.911 38.8125 127.214 39.3594 127.609 39.8281C128.005 40.2969 128.484 40.6667 129.047 40.9375C129.609 41.1979 130.25 41.3281 130.969 41.3281C131.875 41.3281 132.682 41.1458 133.391 40.7812C134.099 40.4167 134.714 39.901 135.234 39.2344L137.219 41.1562C136.854 41.6875 136.38 42.1979 135.797 42.6875C135.214 43.1667 134.5 43.5573 133.656 43.8594C132.823 44.1615 131.854 44.3125 130.75 44.3125ZM144.484 20V44H140.703V20H144.484ZM156.062 44.3125C154.812 44.3125 153.682 44.1094 152.672 43.7031C151.672 43.2865 150.818 42.7083 150.109 41.9688C149.411 41.2292 148.875 40.3594 148.5 39.3594C148.125 38.3594 147.938 37.2812 147.938 36.125V35.5C147.938 34.1771 148.13 32.9792 148.516 31.9062C148.901 30.8333 149.438 29.9167 150.125 29.1562C150.812 28.3854 151.625 27.7969 152.562 27.3906C153.5 26.9844 154.516 26.7812 155.609 26.7812C156.818 26.7812 157.875 26.9844 158.781 27.3906C159.688 27.7969 160.438 28.3698 161.031 29.1094C161.635 29.8385 162.083 30.7083 162.375 31.7188C162.677 32.7292 162.828 33.8438 162.828 35.0625V36.6719H149.766V33.9688H159.109V33.6719C159.089 32.9948 158.953 32.3594 158.703 31.7656C158.464 31.1719 158.094 30.6927 157.594 30.3281C157.094 29.9635 156.427 29.7812 155.594 29.7812C154.969 29.7812 154.411 29.9167 153.922 30.1875C153.443 30.4479 153.042 30.8281 152.719 31.3281C152.396 31.8281 152.146 32.4323 151.969 33.1406C151.802 33.8385 151.719 34.625 151.719 35.5V36.125C151.719 36.8646 151.818 37.5521 152.016 38.1875C152.224 38.8125 152.526 39.3594 152.922 39.8281C153.318 40.2969 153.797 40.6667 154.359 40.9375C154.922 41.1979 155.562 41.3281 156.281 41.3281C157.188 41.3281 157.995 41.1458 158.703 40.7812C159.411 40.4167 160.026 39.901 160.547 39.2344L162.531 41.1562C162.167 41.6875 161.693 42.1979 161.109 42.6875C160.526 43.1667 159.812 43.5573 158.969 43.8594C158.135 44.1615 157.167 44.3125 156.062 44.3125ZM169.484 20V44H165.734V20H169.484ZM168.828 34.9219L167.609 34.9062C167.62 33.7396 167.781 32.6615 168.094 31.6719C168.417 30.6823 168.865 29.8229 169.438 29.0938C170.021 28.3542 170.719 27.7865 171.531 27.3906C172.344 26.9844 173.245 26.7812 174.234 26.7812C175.068 26.7812 175.818 26.8958 176.484 27.125C177.161 27.3542 177.745 27.724 178.234 28.2344C178.724 28.7344 179.094 29.3906 179.344 30.2031C179.604 31.0052 179.734 31.9844 179.734 33.1406V44H175.953V33.1094C175.953 32.2969 175.833 31.651 175.594 31.1719C175.365 30.6927 175.026 30.349 174.578 30.1406C174.13 29.9219 173.583 29.8125 172.938 29.8125C172.26 29.8125 171.661 29.9479 171.141 30.2188C170.63 30.4896 170.203 30.8594 169.859 31.3281C169.516 31.7969 169.255 32.3385 169.078 32.9531C168.911 33.5677 168.828 34.224 168.828 34.9219ZM191 44.3125C189.75 44.3125 188.62 44.1094 187.609 43.7031C186.609 43.2865 185.755 42.7083 185.047 41.9688C184.349 41.2292 183.812 40.3594 183.438 39.3594C183.062 38.3594 182.875 37.2812 182.875 36.125V35.5C182.875 34.1771 183.068 32.9792 183.453 31.9062C183.839 30.8333 184.375 29.9167 185.062 29.1562C185.75 28.3854 186.562 27.7969 187.5 27.3906C188.438 26.9844 189.453 26.7812 190.547 26.7812C191.755 26.7812 192.812 26.9844 193.719 27.3906C194.625 27.7969 195.375 28.3698 195.969 29.1094C196.573 29.8385 197.021 30.7083 197.312 31.7188C197.615 32.7292 197.766 33.8438 197.766 35.0625V36.6719H184.703V33.9688H194.047V33.6719C194.026 32.9948 193.891 32.3594 193.641 31.7656C193.401 31.1719 193.031 30.6927 192.531 30.3281C192.031 29.9635 191.365 29.7812 190.531 29.7812C189.906 29.7812 189.349 29.9167 188.859 30.1875C188.38 30.4479 187.979 30.8281 187.656 31.3281C187.333 31.8281 187.083 32.4323 186.906 33.1406C186.74 33.8385 186.656 34.625 186.656 35.5V36.125C186.656 36.8646 186.755 37.5521 186.953 38.1875C187.161 38.8125 187.464 39.3594 187.859 39.8281C188.255 40.2969 188.734 40.6667 189.297 40.9375C189.859 41.1979 190.5 41.3281 191.219 41.3281C192.125 41.3281 192.932 41.1458 193.641 40.7812C194.349 40.4167 194.964 39.901 195.484 39.2344L197.469 41.1562C197.104 41.6875 196.63 42.1979 196.047 42.6875C195.464 43.1667 194.75 43.5573 193.906 43.8594C193.073 44.1615 192.104 44.3125 191 44.3125ZM214.172 41.0156L218.312 27.0938H222.219L216.344 44H213.906L214.172 41.0156ZM211 27.0938L215.219 41.0781L215.422 44H212.984L207.078 27.0938H211ZM231.781 44.3125C230.531 44.3125 229.401 44.1094 228.391 43.7031C227.391 43.2865 226.536 42.7083 225.828 41.9688C225.13 41.2292 224.594 40.3594 224.219 39.3594C223.844 38.3594 223.656 37.2812 223.656 36.125V35.5C223.656 34.1771 223.849 32.9792 224.234 31.9062C224.62 30.8333 225.156 29.9167 225.844 29.1562C226.531 28.3854 227.344 27.7969 228.281 27.3906C229.219 26.9844 230.234 26.7812 231.328 26.7812C232.536 26.7812 233.594 26.9844 234.5 27.3906C235.406 27.7969 236.156 28.3698 236.75 29.1094C237.354 29.8385 237.802 30.7083 238.094 31.7188C238.396 32.7292 238.547 33.8438 238.547 35.0625V36.6719H225.484V33.9688H234.828V33.6719C234.807 32.9948 234.672 32.3594 234.422 31.7656C234.182 31.1719 233.812 30.6927 233.312 30.3281C232.812 29.9635 232.146 29.7812 231.312 29.7812C230.688 29.7812 230.13 29.9167 229.641 30.1875C229.161 30.4479 228.76 30.8281 228.438 31.3281C228.115 31.8281 227.865 32.4323 227.688 33.1406C227.521 33.8385 227.438 34.625 227.438 35.5V36.125C227.438 36.8646 227.536 37.5521 227.734 38.1875C227.943 38.8125 228.245 39.3594 228.641 39.8281C229.036 40.2969 229.516 40.6667 230.078 40.9375C230.641 41.1979 231.281 41.3281 232 41.3281C232.906 41.3281 233.714 41.1458 234.422 40.7812C235.13 40.4167 235.745 39.901 236.266 39.2344L238.25 41.1562C237.885 41.6875 237.411 42.1979 236.828 42.6875C236.245 43.1667 235.531 43.5573 234.688 43.8594C233.854 44.1615 232.885 44.3125 231.781 44.3125ZM248.938 44.3125C247.688 44.3125 246.557 44.1094 245.547 43.7031C244.547 43.2865 243.693 42.7083 242.984 41.9688C242.286 41.2292 241.75 40.3594 241.375 39.3594C241 38.3594 240.812 37.2812 240.812 36.125V35.5C240.812 34.1771 241.005 32.9792 241.391 31.9062C241.776 30.8333 242.312 29.9167 243 29.1562C243.688 28.3854 244.5 27.7969 245.438 27.3906C246.375 26.9844 247.391 26.7812 248.484 26.7812C249.693 26.7812 250.75 26.9844 251.656 27.3906C252.562 27.7969 253.312 28.3698 253.906 29.1094C254.51 29.8385 254.958 30.7083 255.25 31.7188C255.552 32.7292 255.703 33.8438 255.703 35.0625V36.6719H242.641V33.9688H251.984V33.6719C251.964 32.9948 251.828 32.3594 251.578 31.7656C251.339 31.1719 250.969 30.6927 250.469 30.3281C249.969 29.9635 249.302 29.7812 248.469 29.7812C247.844 29.7812 247.286 29.9167 246.797 30.1875C246.318 30.4479 245.917 30.8281 245.594 31.3281C245.271 31.8281 245.021 32.4323 244.844 33.1406C244.677 33.8385 244.594 34.625 244.594 35.5V36.125C244.594 36.8646 244.693 37.5521 244.891 38.1875C245.099 38.8125 245.401 39.3594 245.797 39.8281C246.193 40.2969 246.672 40.6667 247.234 40.9375C247.797 41.1979 248.438 41.3281 249.156 41.3281C250.062 41.3281 250.87 41.1458 251.578 40.7812C252.286 40.4167 252.901 39.901 253.422 39.2344L255.406 41.1562C255.042 41.6875 254.568 42.1979 253.984 42.6875C253.401 43.1667 252.688 43.5573 251.844 43.8594C251.01 44.1615 250.042 44.3125 248.938 44.3125ZM258.656 20H262.422V40.3906L262.062 44H258.656V20ZM273.453 35.3906V35.7188C273.453 36.9688 273.312 38.1198 273.031 39.1719C272.76 40.2135 272.344 41.1198 271.781 41.8906C271.229 42.6615 270.542 43.2604 269.719 43.6875C268.906 44.1042 267.964 44.3125 266.891 44.3125C265.839 44.3125 264.922 44.1146 264.141 43.7188C263.359 43.3229 262.703 42.7604 262.172 42.0312C261.651 41.3021 261.229 40.4323 260.906 39.4219C260.583 38.4115 260.354 37.2969 260.219 36.0781V35.0312C260.354 33.8021 260.583 32.6875 260.906 31.6875C261.229 30.6771 261.651 29.8073 262.172 29.0781C262.703 28.3385 263.354 27.7708 264.125 27.375C264.906 26.9792 265.818 26.7812 266.859 26.7812C267.943 26.7812 268.896 26.9896 269.719 27.4062C270.552 27.8229 271.245 28.4167 271.797 29.1875C272.349 29.9479 272.76 30.8542 273.031 31.9062C273.312 32.9583 273.453 34.1198 273.453 35.3906ZM269.688 35.7188V35.3906C269.688 34.6302 269.625 33.9167 269.5 33.25C269.375 32.5729 269.167 31.9792 268.875 31.4688C268.594 30.9583 268.208 30.5573 267.719 30.2656C267.24 29.9635 266.641 29.8125 265.922 29.8125C265.255 29.8125 264.682 29.9271 264.203 30.1562C263.724 30.3854 263.323 30.6979 263 31.0938C262.677 31.4896 262.422 31.9479 262.234 32.4688C262.057 32.9896 261.938 33.5521 261.875 34.1562V36.9844C261.969 37.7656 262.167 38.4844 262.469 39.1406C262.781 39.7865 263.219 40.3073 263.781 40.7031C264.344 41.0885 265.068 41.2812 265.953 41.2812C266.651 41.2812 267.24 41.1406 267.719 40.8594C268.198 40.5781 268.578 40.1875 268.859 39.6875C269.151 39.1771 269.359 38.5833 269.484 37.9062C269.62 37.2292 269.688 36.5 269.688 35.7188ZM280.672 27.0938V44H276.891V27.0938H280.672ZM276.641 22.6562C276.641 22.0833 276.828 21.6094 277.203 21.2344C277.589 20.849 278.12 20.6562 278.797 20.6562C279.464 20.6562 279.99 20.849 280.375 21.2344C280.76 21.6094 280.953 22.0833 280.953 22.6562C280.953 23.2188 280.76 23.6875 280.375 24.0625C279.99 24.4375 279.464 24.625 278.797 24.625C278.12 24.625 277.589 24.4375 277.203 24.0625C276.828 23.6875 276.641 23.2188 276.641 22.6562ZM288.578 30.3438V50.5H284.812V27.0938H288.281L288.578 30.3438ZM299.594 35.3906V35.7188C299.594 36.9479 299.448 38.0885 299.156 39.1406C298.875 40.1823 298.453 41.0938 297.891 41.875C297.339 42.6458 296.656 43.2448 295.844 43.6719C295.031 44.099 294.094 44.3125 293.031 44.3125C291.979 44.3125 291.057 44.1198 290.266 43.7344C289.484 43.3385 288.823 42.7812 288.281 42.0625C287.74 41.3438 287.302 40.5 286.969 39.5312C286.646 38.5521 286.417 37.4792 286.281 36.3125V35.0469C286.417 33.8073 286.646 32.6823 286.969 31.6719C287.302 30.6615 287.74 29.7917 288.281 29.0625C288.823 28.3333 289.484 27.7708 290.266 27.375C291.047 26.9792 291.958 26.7812 293 26.7812C294.062 26.7812 295.005 26.9896 295.828 27.4062C296.651 27.8125 297.344 28.3958 297.906 29.1562C298.469 29.9062 298.891 30.8125 299.172 31.875C299.453 32.9271 299.594 34.099 299.594 35.3906ZM295.828 35.7188V35.3906C295.828 34.6094 295.755 33.8854 295.609 33.2188C295.464 32.5417 295.234 31.9479 294.922 31.4375C294.609 30.9271 294.208 30.5312 293.719 30.25C293.24 29.9583 292.661 29.8125 291.984 29.8125C291.318 29.8125 290.745 29.9271 290.266 30.1562C289.786 30.375 289.385 30.6823 289.062 31.0781C288.74 31.474 288.49 31.9375 288.312 32.4688C288.135 32.9896 288.01 33.5573 287.938 34.1719V37.2031C288.062 37.9531 288.276 38.6406 288.578 39.2656C288.88 39.8906 289.307 40.3906 289.859 40.7656C290.422 41.1302 291.141 41.3125 292.016 41.3125C292.693 41.3125 293.271 41.1667 293.75 40.875C294.229 40.5833 294.62 40.1823 294.922 39.6719C295.234 39.151 295.464 38.5521 295.609 37.875C295.755 37.1979 295.828 36.4792 295.828 35.7188ZM302.078 35.7344V35.375C302.078 34.1562 302.255 33.026 302.609 31.9844C302.964 30.9323 303.474 30.0208 304.141 29.25C304.818 28.4688 305.641 27.8646 306.609 27.4375C307.589 27 308.693 26.7812 309.922 26.7812C311.161 26.7812 312.266 27 313.234 27.4375C314.214 27.8646 315.042 28.4688 315.719 29.25C316.396 30.0208 316.911 30.9323 317.266 31.9844C317.62 33.026 317.797 34.1562 317.797 35.375V35.7344C317.797 36.9531 317.62 38.0833 317.266 39.125C316.911 40.1667 316.396 41.0781 315.719 41.8594C315.042 42.6302 314.219 43.2344 313.25 43.6719C312.281 44.099 311.182 44.3125 309.953 44.3125C308.714 44.3125 307.604 44.099 306.625 43.6719C305.656 43.2344 304.833 42.6302 304.156 41.8594C303.479 41.0781 302.964 40.1667 302.609 39.125C302.255 38.0833 302.078 36.9531 302.078 35.7344ZM305.844 35.375V35.7344C305.844 36.4948 305.922 37.2135 306.078 37.8906C306.234 38.5677 306.479 39.1615 306.812 39.6719C307.146 40.1823 307.573 40.5833 308.094 40.875C308.615 41.1667 309.234 41.3125 309.953 41.3125C310.651 41.3125 311.255 41.1667 311.766 40.875C312.286 40.5833 312.714 40.1823 313.047 39.6719C313.38 39.1615 313.625 38.5677 313.781 37.8906C313.948 37.2135 314.031 36.4948 314.031 35.7344V35.375C314.031 34.625 313.948 33.9167 313.781 33.25C313.625 32.5729 313.375 31.974 313.031 31.4531C312.698 30.9323 312.271 30.526 311.75 30.2344C311.24 29.9323 310.63 29.7812 309.922 29.7812C309.214 29.7812 308.599 29.9323 308.078 30.2344C307.568 30.526 307.146 30.9323 306.812 31.4531C306.479 31.974 306.234 32.5729 306.078 33.25C305.922 33.9167 305.844 34.625 305.844 35.375ZM324.734 30.3125V44H320.969V27.0938H324.562L324.734 30.3125ZM329.906 26.9844L329.875 30.4844C329.646 30.4427 329.396 30.4115 329.125 30.3906C328.865 30.3698 328.604 30.3594 328.344 30.3594C327.698 30.3594 327.13 30.4531 326.641 30.6406C326.151 30.8177 325.74 31.0781 325.406 31.4219C325.083 31.7552 324.833 32.1615 324.656 32.6406C324.479 33.1198 324.375 33.6562 324.344 34.25L323.484 34.3125C323.484 33.25 323.589 32.2656 323.797 31.3594C324.005 30.4531 324.318 29.6562 324.734 28.9688C325.161 28.2812 325.693 27.7448 326.328 27.3594C326.974 26.974 327.719 26.7812 328.562 26.7812C328.792 26.7812 329.036 26.8021 329.297 26.8438C329.568 26.8854 329.771 26.9323 329.906 26.9844ZM340.797 27.0938V29.8438H331.266V27.0938H340.797ZM334.016 22.9531H337.781V39.3281C337.781 39.849 337.854 40.25 338 40.5312C338.156 40.8021 338.37 40.9844 338.641 41.0781C338.911 41.1719 339.229 41.2188 339.594 41.2188C339.854 41.2188 340.104 41.2031 340.344 41.1719C340.583 41.1406 340.776 41.1094 340.922 41.0781L340.938 43.9531C340.625 44.0469 340.26 44.1302 339.844 44.2031C339.438 44.276 338.969 44.3125 338.438 44.3125C337.573 44.3125 336.807 44.1615 336.141 43.8594C335.474 43.5469 334.953 43.0417 334.578 42.3438C334.203 41.6458 334.016 40.7188 334.016 39.5625V22.9531ZM353.234 40.6094V32.5469C353.234 31.9427 353.125 31.4219 352.906 30.9844C352.688 30.5469 352.354 30.2083 351.906 29.9688C351.469 29.7292 350.917 29.6094 350.25 29.6094C349.635 29.6094 349.104 29.7135 348.656 29.9219C348.208 30.1302 347.859 30.4115 347.609 30.7656C347.359 31.1198 347.234 31.5208 347.234 31.9688H343.484C343.484 31.3021 343.646 30.6562 343.969 30.0312C344.292 29.4062 344.76 28.849 345.375 28.3594C345.99 27.8698 346.724 27.4844 347.578 27.2031C348.432 26.9219 349.391 26.7812 350.453 26.7812C351.724 26.7812 352.849 26.9948 353.828 27.4219C354.818 27.849 355.594 28.4948 356.156 29.3594C356.729 30.2135 357.016 31.2865 357.016 32.5781V40.0938C357.016 40.8646 357.068 41.5573 357.172 42.1719C357.286 42.776 357.448 43.3021 357.656 43.75V44H353.797C353.62 43.5938 353.479 43.0781 353.375 42.4531C353.281 41.8177 353.234 41.2031 353.234 40.6094ZM353.781 33.7188L353.812 36.0469H351.109C350.411 36.0469 349.797 36.1146 349.266 36.25C348.734 36.375 348.292 36.5625 347.938 36.8125C347.583 37.0625 347.318 37.3646 347.141 37.7188C346.964 38.0729 346.875 38.474 346.875 38.9219C346.875 39.3698 346.979 39.7812 347.188 40.1562C347.396 40.5208 347.698 40.8073 348.094 41.0156C348.5 41.224 348.99 41.3281 349.562 41.3281C350.333 41.3281 351.005 41.1719 351.578 40.8594C352.161 40.5365 352.62 40.1458 352.953 39.6875C353.286 39.2188 353.464 38.776 353.484 38.3594L354.703 40.0312C354.578 40.4583 354.365 40.9167 354.062 41.4062C353.76 41.8958 353.365 42.3646 352.875 42.8125C352.396 43.25 351.818 43.6094 351.141 43.8906C350.474 44.1719 349.703 44.3125 348.828 44.3125C347.724 44.3125 346.74 44.0938 345.875 43.6562C345.01 43.2083 344.333 42.6094 343.844 41.8594C343.354 41.099 343.109 40.2396 343.109 39.2812C343.109 38.3854 343.276 37.5938 343.609 36.9062C343.953 36.2083 344.453 35.625 345.109 35.1562C345.776 34.6875 346.589 34.3333 347.547 34.0938C348.505 33.8438 349.599 33.7188 350.828 33.7188H353.781ZM370.484 40.6094V32.5469C370.484 31.9427 370.375 31.4219 370.156 30.9844C369.938 30.5469 369.604 30.2083 369.156 29.9688C368.719 29.7292 368.167 29.6094 367.5 29.6094C366.885 29.6094 366.354 29.7135 365.906 29.9219C365.458 30.1302 365.109 30.4115 364.859 30.7656C364.609 31.1198 364.484 31.5208 364.484 31.9688H360.734C360.734 31.3021 360.896 30.6562 361.219 30.0312C361.542 29.4062 362.01 28.849 362.625 28.3594C363.24 27.8698 363.974 27.4844 364.828 27.2031C365.682 26.9219 366.641 26.7812 367.703 26.7812C368.974 26.7812 370.099 26.9948 371.078 27.4219C372.068 27.849 372.844 28.4948 373.406 29.3594C373.979 30.2135 374.266 31.2865 374.266 32.5781V40.0938C374.266 40.8646 374.318 41.5573 374.422 42.1719C374.536 42.776 374.698 43.3021 374.906 43.75V44H371.047C370.87 43.5938 370.729 43.0781 370.625 42.4531C370.531 41.8177 370.484 41.2031 370.484 40.6094ZM371.031 33.7188L371.062 36.0469H368.359C367.661 36.0469 367.047 36.1146 366.516 36.25C365.984 36.375 365.542 36.5625 365.188 36.8125C364.833 37.0625 364.568 37.3646 364.391 37.7188C364.214 38.0729 364.125 38.474 364.125 38.9219C364.125 39.3698 364.229 39.7812 364.438 40.1562C364.646 40.5208 364.948 40.8073 365.344 41.0156C365.75 41.224 366.24 41.3281 366.812 41.3281C367.583 41.3281 368.255 41.1719 368.828 40.8594C369.411 40.5365 369.87 40.1458 370.203 39.6875C370.536 39.2188 370.714 38.776 370.734 38.3594L371.953 40.0312C371.828 40.4583 371.615 40.9167 371.312 41.4062C371.01 41.8958 370.615 42.3646 370.125 42.8125C369.646 43.25 369.068 43.6094 368.391 43.8906C367.724 44.1719 366.953 44.3125 366.078 44.3125C364.974 44.3125 363.99 44.0938 363.125 43.6562C362.26 43.2083 361.583 42.6094 361.094 41.8594C360.604 41.099 360.359 40.2396 360.359 39.2812C360.359 38.3854 360.526 37.5938 360.859 36.9062C361.203 36.2083 361.703 35.625 362.359 35.1562C363.026 34.6875 363.839 34.3333 364.797 34.0938C365.755 33.8438 366.849 33.7188 368.078 33.7188H371.031ZM382.234 20V44H378.453V20H382.234ZM403.859 40.6094V32.5469C403.859 31.9427 403.75 31.4219 403.531 30.9844C403.312 30.5469 402.979 30.2083 402.531 29.9688C402.094 29.7292 401.542 29.6094 400.875 29.6094C400.26 29.6094 399.729 29.7135 399.281 29.9219C398.833 30.1302 398.484 30.4115 398.234 30.7656C397.984 31.1198 397.859 31.5208 397.859 31.9688H394.109C394.109 31.3021 394.271 30.6562 394.594 30.0312C394.917 29.4062 395.385 28.849 396 28.3594C396.615 27.8698 397.349 27.4844 398.203 27.2031C399.057 26.9219 400.016 26.7812 401.078 26.7812C402.349 26.7812 403.474 26.9948 404.453 27.4219C405.443 27.849 406.219 28.4948 406.781 29.3594C407.354 30.2135 407.641 31.2865 407.641 32.5781V40.0938C407.641 40.8646 407.693 41.5573 407.797 42.1719C407.911 42.776 408.073 43.3021 408.281 43.75V44H404.422C404.245 43.5938 404.104 43.0781 404 42.4531C403.906 41.8177 403.859 41.2031 403.859 40.6094ZM404.406 33.7188L404.438 36.0469H401.734C401.036 36.0469 400.422 36.1146 399.891 36.25C399.359 36.375 398.917 36.5625 398.562 36.8125C398.208 37.0625 397.943 37.3646 397.766 37.7188C397.589 38.0729 397.5 38.474 397.5 38.9219C397.5 39.3698 397.604 39.7812 397.812 40.1562C398.021 40.5208 398.323 40.8073 398.719 41.0156C399.125 41.224 399.615 41.3281 400.188 41.3281C400.958 41.3281 401.63 41.1719 402.203 40.8594C402.786 40.5365 403.245 40.1458 403.578 39.6875C403.911 39.2188 404.089 38.776 404.109 38.3594L405.328 40.0312C405.203 40.4583 404.99 40.9167 404.688 41.4062C404.385 41.8958 403.99 42.3646 403.5 42.8125C403.021 43.25 402.443 43.6094 401.766 43.8906C401.099 44.1719 400.328 44.3125 399.453 44.3125C398.349 44.3125 397.365 44.0938 396.5 43.6562C395.635 43.2083 394.958 42.6094 394.469 41.8594C393.979 41.099 393.734 40.2396 393.734 39.2812C393.734 38.3854 393.901 37.5938 394.234 36.9062C394.578 36.2083 395.078 35.625 395.734 35.1562C396.401 34.6875 397.214 34.3333 398.172 34.0938C399.13 33.8438 400.224 33.7188 401.453 33.7188H404.406ZM415.609 27.0938V44H411.828V27.0938H415.609ZM411.578 22.6562C411.578 22.0833 411.766 21.6094 412.141 21.2344C412.526 20.849 413.057 20.6562 413.734 20.6562C414.401 20.6562 414.927 20.849 415.312 21.2344C415.698 21.6094 415.891 22.0833 415.891 22.6562C415.891 23.2188 415.698 23.6875 415.312 24.0625C414.927 24.4375 414.401 24.625 413.734 24.625C413.057 24.625 412.526 24.4375 412.141 24.0625C411.766 23.6875 411.578 23.2188 411.578 22.6562ZM427.484 27.0938V29.8438H417.953V27.0938H427.484ZM420.703 22.9531H424.469V39.3281C424.469 39.849 424.542 40.25 424.688 40.5312C424.844 40.8021 425.057 40.9844 425.328 41.0781C425.599 41.1719 425.917 41.2188 426.281 41.2188C426.542 41.2188 426.792 41.2031 427.031 41.1719C427.271 41.1406 427.464 41.1094 427.609 41.0781L427.625 43.9531C427.312 44.0469 426.948 44.1302 426.531 44.2031C426.125 44.276 425.656 44.3125 425.125 44.3125C424.26 44.3125 423.495 44.1615 422.828 43.8594C422.161 43.5469 421.641 43.0417 421.266 42.3438C420.891 41.6458 420.703 40.7188 420.703 39.5625V22.9531ZM439.922 40.6094V32.5469C439.922 31.9427 439.812 31.4219 439.594 30.9844C439.375 30.5469 439.042 30.2083 438.594 29.9688C438.156 29.7292 437.604 29.6094 436.938 29.6094C436.323 29.6094 435.792 29.7135 435.344 29.9219C434.896 30.1302 434.547 30.4115 434.297 30.7656C434.047 31.1198 433.922 31.5208 433.922 31.9688H430.172C430.172 31.3021 430.333 30.6562 430.656 30.0312C430.979 29.4062 431.448 28.849 432.062 28.3594C432.677 27.8698 433.411 27.4844 434.266 27.2031C435.12 26.9219 436.078 26.7812 437.141 26.7812C438.411 26.7812 439.536 26.9948 440.516 27.4219C441.505 27.849 442.281 28.4948 442.844 29.3594C443.417 30.2135 443.703 31.2865 443.703 32.5781V40.0938C443.703 40.8646 443.755 41.5573 443.859 42.1719C443.974 42.776 444.135 43.3021 444.344 43.75V44H440.484C440.307 43.5938 440.167 43.0781 440.062 42.4531C439.969 41.8177 439.922 41.2031 439.922 40.6094ZM440.469 33.7188L440.5 36.0469H437.797C437.099 36.0469 436.484 36.1146 435.953 36.25C435.422 36.375 434.979 36.5625 434.625 36.8125C434.271 37.0625 434.005 37.3646 433.828 37.7188C433.651 38.0729 433.562 38.474 433.562 38.9219C433.562 39.3698 433.667 39.7812 433.875 40.1562C434.083 40.5208 434.385 40.8073 434.781 41.0156C435.188 41.224 435.677 41.3281 436.25 41.3281C437.021 41.3281 437.693 41.1719 438.266 40.8594C438.849 40.5365 439.307 40.1458 439.641 39.6875C439.974 39.2188 440.151 38.776 440.172 38.3594L441.391 40.0312C441.266 40.4583 441.052 40.9167 440.75 41.4062C440.448 41.8958 440.052 42.3646 439.562 42.8125C439.083 43.25 438.505 43.6094 437.828 43.8906C437.161 44.1719 436.391 44.3125 435.516 44.3125C434.411 44.3125 433.427 44.0938 432.562 43.6562C431.698 43.2083 431.021 42.6094 430.531 41.8594C430.042 41.099 429.797 40.2396 429.797 39.2812C429.797 38.3854 429.964 37.5938 430.297 36.9062C430.641 36.2083 431.141 35.625 431.797 35.1562C432.464 34.6875 433.276 34.3333 434.234 34.0938C435.193 33.8438 436.286 33.7188 437.516 33.7188H440.469ZM447.656 20H451.422V40.3906L451.062 44H447.656V20ZM462.453 35.3906V35.7188C462.453 36.9688 462.312 38.1198 462.031 39.1719C461.76 40.2135 461.344 41.1198 460.781 41.8906C460.229 42.6615 459.542 43.2604 458.719 43.6875C457.906 44.1042 456.964 44.3125 455.891 44.3125C454.839 44.3125 453.922 44.1146 453.141 43.7188C452.359 43.3229 451.703 42.7604 451.172 42.0312C450.651 41.3021 450.229 40.4323 449.906 39.4219C449.583 38.4115 449.354 37.2969 449.219 36.0781V35.0312C449.354 33.8021 449.583 32.6875 449.906 31.6875C450.229 30.6771 450.651 29.8073 451.172 29.0781C451.703 28.3385 452.354 27.7708 453.125 27.375C453.906 26.9792 454.818 26.7812 455.859 26.7812C456.943 26.7812 457.896 26.9896 458.719 27.4062C459.552 27.8229 460.245 28.4167 460.797 29.1875C461.349 29.9479 461.76 30.8542 462.031 31.9062C462.312 32.9583 462.453 34.1198 462.453 35.3906ZM458.688 35.7188V35.3906C458.688 34.6302 458.625 33.9167 458.5 33.25C458.375 32.5729 458.167 31.9792 457.875 31.4688C457.594 30.9583 457.208 30.5573 456.719 30.2656C456.24 29.9635 455.641 29.8125 454.922 29.8125C454.255 29.8125 453.682 29.9271 453.203 30.1562C452.724 30.3854 452.323 30.6979 452 31.0938C451.677 31.4896 451.422 31.9479 451.234 32.4688C451.057 32.9896 450.938 33.5521 450.875 34.1562V36.9844C450.969 37.7656 451.167 38.4844 451.469 39.1406C451.781 39.7865 452.219 40.3073 452.781 40.7031C453.344 41.0885 454.068 41.2812 454.953 41.2812C455.651 41.2812 456.24 41.1406 456.719 40.8594C457.198 40.5781 457.578 40.1875 457.859 39.6875C458.151 39.1771 458.359 38.5833 458.484 37.9062C458.62 37.2292 458.688 36.5 458.688 35.7188ZM481.359 27.0938V29.8438H471.828V27.0938H481.359ZM474.578 22.9531H478.344V39.3281C478.344 39.849 478.417 40.25 478.562 40.5312C478.719 40.8021 478.932 40.9844 479.203 41.0781C479.474 41.1719 479.792 41.2188 480.156 41.2188C480.417 41.2188 480.667 41.2031 480.906 41.1719C481.146 41.1406 481.339 41.1094 481.484 41.0781L481.5 43.9531C481.188 44.0469 480.823 44.1302 480.406 44.2031C480 44.276 479.531 44.3125 479 44.3125C478.135 44.3125 477.37 44.1615 476.703 43.8594C476.036 43.5469 475.516 43.0417 475.141 42.3438C474.766 41.6458 474.578 40.7188 474.578 39.5625V22.9531ZM491.719 44.3125C490.469 44.3125 489.339 44.1094 488.328 43.7031C487.328 43.2865 486.474 42.7083 485.766 41.9688C485.068 41.2292 484.531 40.3594 484.156 39.3594C483.781 38.3594 483.594 37.2812 483.594 36.125V35.5C483.594 34.1771 483.786 32.9792 484.172 31.9062C484.557 30.8333 485.094 29.9167 485.781 29.1562C486.469 28.3854 487.281 27.7969 488.219 27.3906C489.156 26.9844 490.172 26.7812 491.266 26.7812C492.474 26.7812 493.531 26.9844 494.438 27.3906C495.344 27.7969 496.094 28.3698 496.688 29.1094C497.292 29.8385 497.74 30.7083 498.031 31.7188C498.333 32.7292 498.484 33.8438 498.484 35.0625V36.6719H485.422V33.9688H494.766V33.6719C494.745 32.9948 494.609 32.3594 494.359 31.7656C494.12 31.1719 493.75 30.6927 493.25 30.3281C492.75 29.9635 492.083 29.7812 491.25 29.7812C490.625 29.7812 490.068 29.9167 489.578 30.1875C489.099 30.4479 488.698 30.8281 488.375 31.3281C488.052 31.8281 487.802 32.4323 487.625 33.1406C487.458 33.8385 487.375 34.625 487.375 35.5V36.125C487.375 36.8646 487.474 37.5521 487.672 38.1875C487.88 38.8125 488.182 39.3594 488.578 39.8281C488.974 40.2969 489.453 40.6667 490.016 40.9375C490.578 41.1979 491.219 41.3281 491.938 41.3281C492.844 41.3281 493.651 41.1458 494.359 40.7812C495.068 40.4167 495.682 39.901 496.203 39.2344L498.188 41.1562C497.823 41.6875 497.349 42.1979 496.766 42.6875C496.182 43.1667 495.469 43.5573 494.625 43.8594C493.792 44.1615 492.823 44.3125 491.719 44.3125ZM505.141 20V44H501.391V20H505.141ZM504.484 34.9219L503.266 34.9062C503.276 33.7396 503.438 32.6615 503.75 31.6719C504.073 30.6823 504.521 29.8229 505.094 29.0938C505.677 28.3542 506.375 27.7865 507.188 27.3906C508 26.9844 508.901 26.7812 509.891 26.7812C510.724 26.7812 511.474 26.8958 512.141 27.125C512.818 27.3542 513.401 27.724 513.891 28.2344C514.38 28.7344 514.75 29.3906 515 30.2031C515.26 31.0052 515.391 31.9844 515.391 33.1406V44H511.609V33.1094C511.609 32.2969 511.49 31.651 511.25 31.1719C511.021 30.6927 510.682 30.349 510.234 30.1406C509.786 29.9219 509.24 29.8125 508.594 29.8125C507.917 29.8125 507.318 29.9479 506.797 30.2188C506.286 30.4896 505.859 30.8594 505.516 31.3281C505.172 31.7969 504.911 32.3385 504.734 32.9531C504.568 33.5677 504.484 34.224 504.484 34.9219ZM528.734 40.6094V32.5469C528.734 31.9427 528.625 31.4219 528.406 30.9844C528.188 30.5469 527.854 30.2083 527.406 29.9688C526.969 29.7292 526.417 29.6094 525.75 29.6094C525.135 29.6094 524.604 29.7135 524.156 29.9219C523.708 30.1302 523.359 30.4115 523.109 30.7656C522.859 31.1198 522.734 31.5208 522.734 31.9688H518.984C518.984 31.3021 519.146 30.6562 519.469 30.0312C519.792 29.4062 520.26 28.849 520.875 28.3594C521.49 27.8698 522.224 27.4844 523.078 27.2031C523.932 26.9219 524.891 26.7812 525.953 26.7812C527.224 26.7812 528.349 26.9948 529.328 27.4219C530.318 27.849 531.094 28.4948 531.656 29.3594C532.229 30.2135 532.516 31.2865 532.516 32.5781V40.0938C532.516 40.8646 532.568 41.5573 532.672 42.1719C532.786 42.776 532.948 43.3021 533.156 43.75V44H529.297C529.12 43.5938 528.979 43.0781 528.875 42.4531C528.781 41.8177 528.734 41.2031 528.734 40.6094ZM529.281 33.7188L529.312 36.0469H526.609C525.911 36.0469 525.297 36.1146 524.766 36.25C524.234 36.375 523.792 36.5625 523.438 36.8125C523.083 37.0625 522.818 37.3646 522.641 37.7188C522.464 38.0729 522.375 38.474 522.375 38.9219C522.375 39.3698 522.479 39.7812 522.688 40.1562C522.896 40.5208 523.198 40.8073 523.594 41.0156C524 41.224 524.49 41.3281 525.062 41.3281C525.833 41.3281 526.505 41.1719 527.078 40.8594C527.661 40.5365 528.12 40.1458 528.453 39.6875C528.786 39.2188 528.964 38.776 528.984 38.3594L530.203 40.0312C530.078 40.4583 529.865 40.9167 529.562 41.4062C529.26 41.8958 528.865 42.3646 528.375 42.8125C527.896 43.25 527.318 43.6094 526.641 43.8906C525.974 44.1719 525.203 44.3125 524.328 44.3125C523.224 44.3125 522.24 44.0938 521.375 43.6562C520.51 43.2083 519.833 42.6094 519.344 41.8594C518.854 41.099 518.609 40.2396 518.609 39.2812C518.609 38.3854 518.776 37.5938 519.109 36.9062C519.453 36.2083 519.953 35.625 520.609 35.1562C521.276 34.6875 522.089 34.3333 523.047 34.0938C524.005 33.8438 525.099 33.7188 526.328 33.7188H529.281ZM553.906 39.4219C553.906 39.0469 553.812 38.7083 553.625 38.4062C553.438 38.0938 553.078 37.8125 552.547 37.5625C552.026 37.3125 551.255 37.0833 550.234 36.875C549.339 36.6771 548.516 36.4427 547.766 36.1719C547.026 35.8906 546.391 35.5521 545.859 35.1562C545.328 34.7604 544.917 34.2917 544.625 33.75C544.333 33.2083 544.188 32.5833 544.188 31.875C544.188 31.1875 544.339 30.5365 544.641 29.9219C544.943 29.3073 545.375 28.7656 545.938 28.2969C546.5 27.8281 547.182 27.4583 547.984 27.1875C548.797 26.9167 549.703 26.7812 550.703 26.7812C552.12 26.7812 553.333 27.0208 554.344 27.5C555.365 27.9688 556.146 28.6094 556.688 29.4219C557.229 30.224 557.5 31.1302 557.5 32.1406H553.734C553.734 31.6927 553.62 31.276 553.391 30.8906C553.172 30.4948 552.839 30.1771 552.391 29.9375C551.943 29.6875 551.38 29.5625 550.703 29.5625C550.057 29.5625 549.521 29.6667 549.094 29.875C548.677 30.0729 548.365 30.3333 548.156 30.6562C547.958 30.9792 547.859 31.3333 547.859 31.7188C547.859 32 547.911 32.2552 548.016 32.4844C548.13 32.7031 548.318 32.9062 548.578 33.0938C548.839 33.2708 549.193 33.4375 549.641 33.5938C550.099 33.75 550.672 33.901 551.359 34.0469C552.651 34.3177 553.76 34.6667 554.688 35.0938C555.625 35.5104 556.344 36.0521 556.844 36.7188C557.344 37.375 557.594 38.2083 557.594 39.2188C557.594 39.9688 557.432 40.6562 557.109 41.2812C556.797 41.8958 556.339 42.4323 555.734 42.8906C555.13 43.3385 554.406 43.6875 553.562 43.9375C552.729 44.1875 551.792 44.3125 550.75 44.3125C549.219 44.3125 547.922 44.0417 546.859 43.5C545.797 42.9479 544.99 42.2448 544.438 41.3906C543.896 40.526 543.625 39.6302 543.625 38.7031H547.266C547.307 39.401 547.5 39.9583 547.844 40.375C548.198 40.7812 548.635 41.0781 549.156 41.2656C549.688 41.4427 550.234 41.5312 550.797 41.5312C551.474 41.5312 552.042 41.4427 552.5 41.2656C552.958 41.0781 553.307 40.8281 553.547 40.5156C553.786 40.1927 553.906 39.8281 553.906 39.4219ZM568.641 27.0938V29.8438H559.109V27.0938H568.641ZM561.859 22.9531H565.625V39.3281C565.625 39.849 565.698 40.25 565.844 40.5312C566 40.8021 566.214 40.9844 566.484 41.0781C566.755 41.1719 567.073 41.2188 567.438 41.2188C567.698 41.2188 567.948 41.2031 568.188 41.1719C568.427 41.1406 568.62 41.1094 568.766 41.0781L568.781 43.9531C568.469 44.0469 568.104 44.1302 567.688 44.2031C567.281 44.276 566.812 44.3125 566.281 44.3125C565.417 44.3125 564.651 44.1615 563.984 43.8594C563.318 43.5469 562.797 43.0417 562.422 42.3438C562.047 41.6458 561.859 40.7188 561.859 39.5625V22.9531ZM575.578 27.0938V44H571.797V27.0938H575.578ZM571.547 22.6562C571.547 22.0833 571.734 21.6094 572.109 21.2344C572.495 20.849 573.026 20.6562 573.703 20.6562C574.37 20.6562 574.896 20.849 575.281 21.2344C575.667 21.6094 575.859 22.0833 575.859 22.6562C575.859 23.2188 575.667 23.6875 575.281 24.0625C574.896 24.4375 574.37 24.625 573.703 24.625C573.026 24.625 572.495 24.4375 572.109 24.0625C571.734 23.6875 571.547 23.2188 571.547 22.6562ZM583.734 27.0938V44H579.953V27.0938H583.734ZM579.703 22.6562C579.703 22.0833 579.891 21.6094 580.266 21.2344C580.651 20.849 581.182 20.6562 581.859 20.6562C582.526 20.6562 583.052 20.849 583.438 21.2344C583.823 21.6094 584.016 22.0833 584.016 22.6562C584.016 23.2188 583.823 23.6875 583.438 24.0625C583.052 24.4375 582.526 24.625 581.859 24.625C581.182 24.625 580.651 24.4375 580.266 24.0625C579.891 23.6875 579.703 23.2188 579.703 22.6562ZM591.891 20V44H588.109V20H591.891ZM605.5 39.4219C605.5 39.0469 605.406 38.7083 605.219 38.4062C605.031 38.0938 604.672 37.8125 604.141 37.5625C603.62 37.3125 602.849 37.0833 601.828 36.875C600.932 36.6771 600.109 36.4427 599.359 36.1719C598.62 35.8906 597.984 35.5521 597.453 35.1562C596.922 34.7604 596.51 34.2917 596.219 33.75C595.927 33.2083 595.781 32.5833 595.781 31.875C595.781 31.1875 595.932 30.5365 596.234 29.9219C596.536 29.3073 596.969 28.7656 597.531 28.2969C598.094 27.8281 598.776 27.4583 599.578 27.1875C600.391 26.9167 601.297 26.7812 602.297 26.7812C603.714 26.7812 604.927 27.0208 605.938 27.5C606.958 27.9688 607.74 28.6094 608.281 29.4219C608.823 30.224 609.094 31.1302 609.094 32.1406H605.328C605.328 31.6927 605.214 31.276 604.984 30.8906C604.766 30.4948 604.432 30.1771 603.984 29.9375C603.536 29.6875 602.974 29.5625 602.297 29.5625C601.651 29.5625 601.115 29.6667 600.688 29.875C600.271 30.0729 599.958 30.3333 599.75 30.6562C599.552 30.9792 599.453 31.3333 599.453 31.7188C599.453 32 599.505 32.2552 599.609 32.4844C599.724 32.7031 599.911 32.9062 600.172 33.0938C600.432 33.2708 600.786 33.4375 601.234 33.5938C601.693 33.75 602.266 33.901 602.953 34.0469C604.245 34.3177 605.354 34.6667 606.281 35.0938C607.219 35.5104 607.938 36.0521 608.438 36.7188C608.938 37.375 609.188 38.2083 609.188 39.2188C609.188 39.9688 609.026 40.6562 608.703 41.2812C608.391 41.8958 607.932 42.4323 607.328 42.8906C606.724 43.3385 606 43.6875 605.156 43.9375C604.323 44.1875 603.385 44.3125 602.344 44.3125C600.812 44.3125 599.516 44.0417 598.453 43.5C597.391 42.9479 596.583 42.2448 596.031 41.3906C595.49 40.526 595.219 39.6302 595.219 38.7031H598.859C598.901 39.401 599.094 39.9583 599.438 40.375C599.792 40.7812 600.229 41.0781 600.75 41.2656C601.281 41.4427 601.828 41.5312 602.391 41.5312C603.068 41.5312 603.635 41.4427 604.094 41.2656C604.552 41.0781 604.901 40.8281 605.141 40.5156C605.38 40.1927 605.5 39.8281 605.5 39.4219ZM619.938 44.3125C618.688 44.3125 617.557 44.1094 616.547 43.7031C615.547 43.2865 614.693 42.7083 613.984 41.9688C613.286 41.2292 612.75 40.3594 612.375 39.3594C612 38.3594 611.812 37.2812 611.812 36.125V35.5C611.812 34.1771 612.005 32.9792 612.391 31.9062C612.776 30.8333 613.312 29.9167 614 29.1562C614.688 28.3854 615.5 27.7969 616.438 27.3906C617.375 26.9844 618.391 26.7812 619.484 26.7812C620.693 26.7812 621.75 26.9844 622.656 27.3906C623.562 27.7969 624.312 28.3698 624.906 29.1094C625.51 29.8385 625.958 30.7083 626.25 31.7188C626.552 32.7292 626.703 33.8438 626.703 35.0625V36.6719H613.641V33.9688H622.984V33.6719C622.964 32.9948 622.828 32.3594 622.578 31.7656C622.339 31.1719 621.969 30.6927 621.469 30.3281C620.969 29.9635 620.302 29.7812 619.469 29.7812C618.844 29.7812 618.286 29.9167 617.797 30.1875C617.318 30.4479 616.917 30.8281 616.594 31.3281C616.271 31.8281 616.021 32.4323 615.844 33.1406C615.677 33.8385 615.594 34.625 615.594 35.5V36.125C615.594 36.8646 615.693 37.5521 615.891 38.1875C616.099 38.8125 616.401 39.3594 616.797 39.8281C617.193 40.2969 617.672 40.6667 618.234 40.9375C618.797 41.1979 619.438 41.3281 620.156 41.3281C621.062 41.3281 621.87 41.1458 622.578 40.7812C623.286 40.4167 623.901 39.901 624.422 39.2344L626.406 41.1562C626.042 41.6875 625.568 42.1979 624.984 42.6875C624.401 43.1667 623.688 43.5573 622.844 43.8594C622.01 44.1615 621.042 44.3125 619.938 44.3125ZM633.672 27.0938V44H629.891V27.0938H633.672ZM629.641 22.6562C629.641 22.0833 629.828 21.6094 630.203 21.2344C630.589 20.849 631.12 20.6562 631.797 20.6562C632.464 20.6562 632.99 20.849 633.375 21.2344C633.76 21.6094 633.953 22.0833 633.953 22.6562C633.953 23.2188 633.76 23.6875 633.375 24.0625C632.99 24.4375 632.464 24.625 631.797 24.625C631.12 24.625 630.589 24.4375 630.203 24.0625C629.828 23.6875 629.641 23.2188 629.641 22.6562ZM648.109 40.5V20H651.891V44H648.469L648.109 40.5ZM637.109 35.7344V35.4062C637.109 34.125 637.26 32.9583 637.562 31.9062C637.865 30.8438 638.302 29.9323 638.875 29.1719C639.448 28.401 640.146 27.8125 640.969 27.4062C641.792 26.9896 642.719 26.7812 643.75 26.7812C644.771 26.7812 645.667 26.9792 646.438 27.375C647.208 27.7708 647.865 28.3385 648.406 29.0781C648.948 29.8073 649.38 30.6823 649.703 31.7031C650.026 32.7135 650.255 33.8385 650.391 35.0781V36.125C650.255 37.3333 650.026 38.4375 649.703 39.4375C649.38 40.4375 648.948 41.3021 648.406 42.0312C647.865 42.7604 647.203 43.3229 646.422 43.7188C645.651 44.1146 644.75 44.3125 643.719 44.3125C642.698 44.3125 641.776 44.099 640.953 43.6719C640.141 43.2448 639.448 42.6458 638.875 41.875C638.302 41.1042 637.865 40.1979 637.562 39.1562C637.26 38.1042 637.109 36.9635 637.109 35.7344ZM640.875 35.4062V35.7344C640.875 36.5052 640.943 37.224 641.078 37.8906C641.224 38.5573 641.448 39.1458 641.75 39.6562C642.052 40.1562 642.443 40.5521 642.922 40.8438C643.411 41.125 643.995 41.2656 644.672 41.2656C645.526 41.2656 646.229 41.0781 646.781 40.7031C647.333 40.3281 647.766 39.8229 648.078 39.1875C648.401 38.5417 648.62 37.8229 648.734 37.0312V34.2031C648.672 33.5885 648.542 33.0156 648.344 32.4844C648.156 31.9531 647.901 31.4896 647.578 31.0938C647.255 30.6875 646.854 30.375 646.375 30.1562C645.906 29.9271 645.349 29.8125 644.703 29.8125C644.016 29.8125 643.432 29.9583 642.953 30.25C642.474 30.5417 642.078 30.9427 641.766 31.4531C641.464 31.9635 641.24 32.5573 641.094 33.2344C640.948 33.9115 640.875 34.6354 640.875 35.4062ZM298.047 76.0156L302.188 62.0938H306.094L300.219 79H297.781L298.047 76.0156ZM294.875 62.0938L299.094 76.0781L299.297 79H296.859L290.953 62.0938H294.875ZM317.703 75.6094V67.5469C317.703 66.9427 317.594 66.4219 317.375 65.9844C317.156 65.5469 316.823 65.2083 316.375 64.9688C315.938 64.7292 315.385 64.6094 314.719 64.6094C314.104 64.6094 313.573 64.7135 313.125 64.9219C312.677 65.1302 312.328 65.4115 312.078 65.7656C311.828 66.1198 311.703 66.5208 311.703 66.9688H307.953C307.953 66.3021 308.115 65.6562 308.438 65.0312C308.76 64.4062 309.229 63.849 309.844 63.3594C310.458 62.8698 311.193 62.4844 312.047 62.2031C312.901 61.9219 313.859 61.7812 314.922 61.7812C316.193 61.7812 317.318 61.9948 318.297 62.4219C319.286 62.849 320.062 63.4948 320.625 64.3594C321.198 65.2135 321.484 66.2865 321.484 67.5781V75.0938C321.484 75.8646 321.536 76.5573 321.641 77.1719C321.755 77.776 321.917 78.3021 322.125 78.75V79H318.266C318.089 78.5938 317.948 78.0781 317.844 77.4531C317.75 76.8177 317.703 76.2031 317.703 75.6094ZM318.25 68.7188L318.281 71.0469H315.578C314.88 71.0469 314.266 71.1146 313.734 71.25C313.203 71.375 312.76 71.5625 312.406 71.8125C312.052 72.0625 311.786 72.3646 311.609 72.7188C311.432 73.0729 311.344 73.474 311.344 73.9219C311.344 74.3698 311.448 74.7812 311.656 75.1562C311.865 75.5208 312.167 75.8073 312.562 76.0156C312.969 76.224 313.458 76.3281 314.031 76.3281C314.802 76.3281 315.474 76.1719 316.047 75.8594C316.63 75.5365 317.089 75.1458 317.422 74.6875C317.755 74.2188 317.932 73.776 317.953 73.3594L319.172 75.0312C319.047 75.4583 318.833 75.9167 318.531 76.4062C318.229 76.8958 317.833 77.3646 317.344 77.8125C316.865 78.25 316.286 78.6094 315.609 78.8906C314.943 79.1719 314.172 79.3125 313.297 79.3125C312.193 79.3125 311.208 79.0938 310.344 78.6562C309.479 78.2083 308.802 77.6094 308.312 76.8594C307.823 76.099 307.578 75.2396 307.578 74.2812C307.578 73.3854 307.745 72.5938 308.078 71.9062C308.422 71.2083 308.922 70.625 309.578 70.1562C310.245 69.6875 311.057 69.3333 312.016 69.0938C312.974 68.8438 314.068 68.7188 315.297 68.7188H318.25ZM329.453 55V79H325.672V55H329.453ZM337.609 62.0938V79H333.828V62.0938H337.609ZM333.578 57.6562C333.578 57.0833 333.766 56.6094 334.141 56.2344C334.526 55.849 335.057 55.6562 335.734 55.6562C336.401 55.6562 336.927 55.849 337.312 56.2344C337.698 56.6094 337.891 57.0833 337.891 57.6562C337.891 58.2188 337.698 58.6875 337.312 59.0625C336.927 59.4375 336.401 59.625 335.734 59.625C335.057 59.625 334.526 59.4375 334.141 59.0625C333.766 58.6875 333.578 58.2188 333.578 57.6562ZM345.531 55V79H341.75V55H345.531ZM356.031 62.0938L348.672 70.25L344.641 74.375L343.656 71.1875L346.703 67.4219L351.484 62.0938H356.031ZM352.297 79L346.812 71.0625L349.188 68.4219L356.656 79H352.297ZM368.594 75.0156V62.0938H372.375V79H368.812L368.594 75.0156ZM369.125 71.5L370.391 71.4688C370.391 72.6042 370.266 73.651 370.016 74.6094C369.766 75.5573 369.38 76.3854 368.859 77.0938C368.339 77.7917 367.672 78.3385 366.859 78.7344C366.047 79.1198 365.073 79.3125 363.938 79.3125C363.115 79.3125 362.359 79.1927 361.672 78.9531C360.984 78.7135 360.391 78.3438 359.891 77.8438C359.401 77.3438 359.021 76.6927 358.75 75.8906C358.479 75.0885 358.344 74.1302 358.344 73.0156V62.0938H362.109V73.0469C362.109 73.6615 362.182 74.1771 362.328 74.5938C362.474 75 362.672 75.3281 362.922 75.5781C363.172 75.8281 363.464 76.0052 363.797 76.1094C364.13 76.2135 364.484 76.2656 364.859 76.2656C365.932 76.2656 366.776 76.0573 367.391 75.6406C368.016 75.2135 368.458 74.6406 368.719 73.9219C368.99 73.2031 369.125 72.3958 369.125 71.5ZM380.266 62.0938V79H376.484V62.0938H380.266ZM376.234 57.6562C376.234 57.0833 376.422 56.6094 376.797 56.2344C377.182 55.849 377.714 55.6562 378.391 55.6562C379.057 55.6562 379.583 55.849 379.969 56.2344C380.354 56.6094 380.547 57.0833 380.547 57.6562C380.547 58.2188 380.354 58.6875 379.969 59.0625C379.583 59.4375 379.057 59.625 378.391 59.625C377.714 59.625 377.182 59.4375 376.797 59.0625C376.422 58.6875 376.234 58.2188 376.234 57.6562ZM394.703 75.5V55H398.484V79H395.062L394.703 75.5ZM383.703 70.7344V70.4062C383.703 69.125 383.854 67.9583 384.156 66.9062C384.458 65.8438 384.896 64.9323 385.469 64.1719C386.042 63.401 386.74 62.8125 387.562 62.4062C388.385 61.9896 389.312 61.7812 390.344 61.7812C391.365 61.7812 392.26 61.9792 393.031 62.375C393.802 62.7708 394.458 63.3385 395 64.0781C395.542 64.8073 395.974 65.6823 396.297 66.7031C396.62 67.7135 396.849 68.8385 396.984 70.0781V71.125C396.849 72.3333 396.62 73.4375 396.297 74.4375C395.974 75.4375 395.542 76.3021 395 77.0312C394.458 77.7604 393.797 78.3229 393.016 78.7188C392.245 79.1146 391.344 79.3125 390.312 79.3125C389.292 79.3125 388.37 79.099 387.547 78.6719C386.734 78.2448 386.042 77.6458 385.469 76.875C384.896 76.1042 384.458 75.1979 384.156 74.1562C383.854 73.1042 383.703 71.9635 383.703 70.7344ZM387.469 70.4062V70.7344C387.469 71.5052 387.536 72.224 387.672 72.8906C387.818 73.5573 388.042 74.1458 388.344 74.6562C388.646 75.1562 389.036 75.5521 389.516 75.8438C390.005 76.125 390.589 76.2656 391.266 76.2656C392.12 76.2656 392.823 76.0781 393.375 75.7031C393.927 75.3281 394.359 74.8229 394.672 74.1875C394.995 73.5417 395.214 72.8229 395.328 72.0312V69.2031C395.266 68.5885 395.135 68.0156 394.938 67.4844C394.75 66.9531 394.495 66.4896 394.172 66.0938C393.849 65.6875 393.448 65.375 392.969 65.1562C392.5 64.9271 391.943 64.8125 391.297 64.8125C390.609 64.8125 390.026 64.9583 389.547 65.25C389.068 65.5417 388.672 65.9427 388.359 66.4531C388.057 66.9635 387.833 67.5573 387.688 68.2344C387.542 68.9115 387.469 69.6354 387.469 70.4062ZM402.578 77.125C402.578 76.5417 402.776 76.0521 403.172 75.6562C403.568 75.25 404.104 75.0469 404.781 75.0469C405.469 75.0469 406.005 75.25 406.391 75.6562C406.786 76.0521 406.984 76.5417 406.984 77.125C406.984 77.7083 406.786 78.1979 406.391 78.5938C406.005 78.9896 405.469 79.1875 404.781 79.1875C404.104 79.1875 403.568 78.9896 403.172 78.5938C402.776 78.1979 402.578 77.7083 402.578 77.125Z" fill="#461102"/>
</svg>
