<svg width="700" height="100" viewBox="0 0 700 100" fill="none" xmlns="http://www.w3.org/2000/svg">
<path d="M55.807 54.88C55.807 56.7733 55.407 58.4533 54.607 59.92C53.807 61.3867 52.607 62.5467 51.007 63.4C49.4337 64.2267 47.5137 64.64 45.247 64.64C41.8337 64.64 39.2204 63.76 37.407 62C35.6204 60.2133 34.727 57.84 34.727 54.88V36.32H40.607V54.6C40.607 56.4667 40.9804 57.8667 41.727 58.8C42.4737 59.7067 43.647 60.16 45.247 60.16C46.847 60.16 48.0204 59.7067 48.767 58.8C49.5404 57.8667 49.927 56.4667 49.927 54.6V36.32H55.807V54.88ZM78.5389 64H73.6189L73.3389 61.16C72.5922 62.3333 71.6856 63.2133 70.6189 63.8C69.5522 64.36 68.3122 64.64 66.8989 64.64C64.9789 64.64 63.5122 64.0667 62.4989 62.92C61.4856 61.7467 60.9789 60.12 60.9789 58.04V42.8H66.6589V57.32C66.6589 58.44 66.8456 59.24 67.2189 59.72C67.5922 60.1733 68.1789 60.4 68.9789 60.4C70.4989 60.4 71.7922 59.48 72.8589 57.64V42.8H78.5389V64ZM102.068 52.92C102.068 53.1867 102.028 53.92 101.948 55.12H88.7077C88.8943 57.04 89.4143 58.4 90.2677 59.2C91.121 60 92.281 60.4 93.7477 60.4C94.6543 60.4 95.5077 60.2533 96.3077 59.96C97.1077 59.6667 97.9743 59.2 98.9077 58.56L101.268 61.76C98.8943 63.68 96.2143 64.64 93.2277 64.64C89.8943 64.64 87.3343 63.64 85.5477 61.64C83.761 59.64 82.8677 56.9333 82.8677 53.52C82.8677 51.36 83.241 49.4267 83.9877 47.72C84.761 45.9867 85.8677 44.6267 87.3077 43.64C88.7743 42.6533 90.5077 42.16 92.5077 42.16C95.521 42.16 97.8677 43.1067 99.5477 45C101.228 46.8933 102.068 49.5333 102.068 52.92ZM96.4277 51.32C96.4277 47.8 95.161 46.04 92.6277 46.04C91.4543 46.04 90.5343 46.48 89.8677 47.36C89.2277 48.2133 88.841 49.6133 88.7077 51.56H96.4277V51.32ZM111.459 64.64C109.726 64.64 108.379 64.1467 107.419 63.16C106.459 62.1467 105.979 60.72 105.979 58.88V34.36L111.659 33.72V58.72C111.659 59.6533 112.046 60.12 112.819 60.12C113.246 60.12 113.619 60.04 113.939 59.88L115.099 63.92C114.006 64.4 112.792 64.64 111.459 64.64ZM143.98 58.12C143.98 58.9467 144.1 59.56 144.34 59.96C144.58 60.3333 144.98 60.6133 145.54 60.8L144.34 64.56C143.087 64.4533 142.06 64.16 141.26 63.68C140.487 63.2 139.887 62.4533 139.46 61.44C138.074 63.5733 135.954 64.64 133.1 64.64C130.994 64.64 129.314 64.04 128.06 62.84C126.834 61.6133 126.22 60.0267 126.22 58.08C126.22 55.76 127.06 53.9867 128.74 52.76C130.42 51.5333 132.834 50.92 135.98 50.92H138.42V49.88C138.42 48.5733 138.127 47.6667 137.54 47.16C136.954 46.6533 135.98 46.4 134.62 46.4C133.127 46.4 131.26 46.7733 129.02 47.52L127.74 43.72C130.38 42.68 132.994 42.16 135.58 42.16C138.46 42.16 140.58 42.7867 141.94 44.04C143.3 45.2667 143.98 47.1067 143.98 49.56V58.12ZM134.66 60.56C136.26 60.56 137.514 59.7733 138.42 58.2V54.16H136.54C133.474 54.16 131.94 55.3067 131.94 57.6C131.94 58.5333 132.167 59.2667 132.62 59.8C133.1 60.3067 133.78 60.56 134.66 60.56ZM165.66 58.12C165.66 58.9467 165.78 59.56 166.02 59.96C166.26 60.3333 166.66 60.6133 167.22 60.8L166.02 64.56C164.767 64.4533 163.74 64.16 162.94 63.68C162.167 63.2 161.567 62.4533 161.14 61.44C159.753 63.5733 157.633 64.64 154.78 64.64C152.673 64.64 150.993 64.04 149.74 62.84C148.513 61.6133 147.9 60.0267 147.9 58.08C147.9 55.76 148.74 53.9867 150.42 52.76C152.1 51.5333 154.513 50.92 157.66 50.92H160.1V49.88C160.1 48.5733 159.807 47.6667 159.22 47.16C158.633 46.6533 157.66 46.4 156.3 46.4C154.807 46.4 152.94 46.7733 150.7 47.52L149.42 43.72C152.06 42.68 154.673 42.16 157.26 42.16C160.14 42.16 162.26 42.7867 163.62 44.04C164.98 45.2667 165.66 47.1067 165.66 49.56V58.12ZM156.34 60.56C157.94 60.56 159.193 59.7733 160.1 58.2V54.16H158.22C155.153 54.16 153.62 55.3067 153.62 57.6C153.62 58.5333 153.847 59.2667 154.3 59.8C154.78 60.3067 155.46 60.56 156.34 60.56ZM177.985 42.16C180.971 42.16 183.531 43.0133 185.665 44.72L183.505 47.96C181.718 46.84 179.958 46.28 178.225 46.28C177.291 46.28 176.571 46.4533 176.065 46.8C175.558 47.1467 175.305 47.6133 175.305 48.2C175.305 48.6267 175.411 48.9867 175.625 49.28C175.865 49.5733 176.291 49.8533 176.905 50.12C177.545 50.3867 178.491 50.7067 179.745 51.08C181.985 51.6933 183.651 52.52 184.745 53.56C185.838 54.5733 186.385 55.9733 186.385 57.76C186.385 59.1733 185.971 60.4 185.145 61.44C184.345 62.48 183.251 63.28 181.865 63.84C180.478 64.3733 178.931 64.64 177.225 64.64C175.438 64.64 173.811 64.3733 172.345 63.84C170.878 63.28 169.625 62.52 168.585 61.56L171.385 58.44C173.171 59.8267 175.065 60.52 177.065 60.52C178.131 60.52 178.971 60.32 179.585 59.92C180.225 59.4933 180.545 58.92 180.545 58.2C180.545 57.64 180.425 57.2 180.185 56.88C179.945 56.56 179.505 56.2667 178.865 56C178.225 55.7067 177.225 55.3733 175.865 55C173.731 54.4133 172.145 53.5867 171.105 52.52C170.091 51.4267 169.585 50.08 169.585 48.48C169.585 47.28 169.931 46.2 170.625 45.24C171.318 44.28 172.291 43.5333 173.545 43C174.825 42.44 176.305 42.16 177.985 42.16ZM202.765 63C201.992 63.5333 201.112 63.9333 200.125 64.2C199.165 64.4933 198.205 64.64 197.245 64.64C195.058 64.6133 193.405 63.9867 192.285 62.76C191.165 61.5333 190.605 59.7333 190.605 57.36V46.8H187.445V42.8H190.605V38.16L196.285 37.48V42.8H201.165L200.605 46.8H196.285V57.24C196.285 58.2533 196.458 58.9867 196.805 59.44C197.152 59.8933 197.685 60.12 198.405 60.12C199.125 60.12 199.925 59.88 200.805 59.4L202.765 63ZM221.051 58.12C221.051 58.9467 221.171 59.56 221.411 59.96C221.651 60.3333 222.051 60.6133 222.611 60.8L221.411 64.56C220.157 64.4533 219.131 64.16 218.331 63.68C217.557 63.2 216.957 62.4533 216.531 61.44C215.144 63.5733 213.024 64.64 210.171 64.64C208.064 64.64 206.384 64.04 205.131 62.84C203.904 61.6133 203.291 60.0267 203.291 58.08C203.291 55.76 204.131 53.9867 205.811 52.76C207.491 51.5333 209.904 50.92 213.051 50.92H215.491V49.88C215.491 48.5733 215.197 47.6667 214.611 47.16C214.024 46.6533 213.051 46.4 211.691 46.4C210.197 46.4 208.331 46.7733 206.091 47.52L204.811 43.72C207.451 42.68 210.064 42.16 212.651 42.16C215.531 42.16 217.651 42.7867 219.011 44.04C220.371 45.2667 221.051 47.1067 221.051 49.56V58.12ZM211.731 60.56C213.331 60.56 214.584 59.7733 215.491 58.2V54.16H213.611C210.544 54.16 209.011 55.3067 209.011 57.6C209.011 58.5333 209.237 59.2667 209.691 59.8C210.171 60.3067 210.851 60.56 211.731 60.56ZM231.615 64.64C229.882 64.64 228.535 64.1467 227.575 63.16C226.615 62.1467 226.135 60.72 226.135 58.88V34.36L231.815 33.72V58.72C231.815 59.6533 232.202 60.12 232.975 60.12C233.402 60.12 233.775 60.04 234.095 59.88L235.255 63.92C234.162 64.4 232.948 64.64 231.615 64.64ZM253.577 61.88C253.577 64.0133 253.243 65.76 252.577 67.12C251.937 68.5067 251.043 69.6133 249.897 70.44C248.75 71.2933 247.283 72.0667 245.497 72.76L243.617 68.64C244.657 68.16 245.47 67.68 246.057 67.2C246.643 66.7467 247.097 66.12 247.417 65.32C247.737 64.5467 247.897 63.52 247.897 62.24V42.8H253.577V61.88ZM250.697 31.88C251.71 31.88 252.537 32.2 253.177 32.84C253.843 33.4533 254.177 34.24 254.177 35.2C254.177 36.16 253.843 36.96 253.177 37.6C252.537 38.2133 251.71 38.52 250.697 38.52C249.683 38.52 248.857 38.2133 248.217 37.6C247.577 36.96 247.257 36.16 247.257 35.2C247.257 34.24 247.577 33.4533 248.217 32.84C248.857 32.2 249.683 31.88 250.697 31.88ZM275.387 58.12C275.387 58.9467 275.507 59.56 275.747 59.96C275.987 60.3333 276.387 60.6133 276.947 60.8L275.747 64.56C274.493 64.4533 273.467 64.16 272.667 63.68C271.893 63.2 271.293 62.4533 270.867 61.44C269.48 63.5733 267.36 64.64 264.507 64.64C262.4 64.64 260.72 64.04 259.467 62.84C258.24 61.6133 257.627 60.0267 257.627 58.08C257.627 55.76 258.467 53.9867 260.147 52.76C261.827 51.5333 264.24 50.92 267.387 50.92H269.827V49.88C269.827 48.5733 269.533 47.6667 268.947 47.16C268.36 46.6533 267.387 46.4 266.027 46.4C264.533 46.4 262.667 46.7733 260.427 47.52L259.147 43.72C261.787 42.68 264.4 42.16 266.987 42.16C269.867 42.16 271.987 42.7867 273.347 44.04C274.707 45.2667 275.387 47.1067 275.387 49.56V58.12ZM266.067 60.56C267.667 60.56 268.92 59.7733 269.827 58.2V54.16H267.947C264.88 54.16 263.347 55.3067 263.347 57.6C263.347 58.5333 263.573 59.2667 264.027 59.8C264.507 60.3067 265.187 60.56 266.067 60.56ZM262.587 32.32C263.44 32.32 264.147 32.6133 264.707 33.2C265.293 33.76 265.587 34.4533 265.587 35.28C265.587 36.1067 265.293 36.8133 264.707 37.4C264.147 37.96 263.44 38.24 262.587 38.24C261.76 38.24 261.053 37.96 260.467 37.4C259.88 36.8133 259.587 36.1067 259.587 35.28C259.587 34.4533 259.88 33.76 260.467 33.2C261.053 32.6133 261.76 32.32 262.587 32.32ZM271.627 32.32C272.48 32.32 273.2 32.6133 273.787 33.2C274.373 33.76 274.667 34.4533 274.667 35.28C274.667 36.1067 274.373 36.8133 273.787 37.4C273.2 37.96 272.48 38.24 271.627 38.24C270.8 38.24 270.093 37.96 269.507 37.4C268.947 36.8133 268.667 36.1067 268.667 35.28C268.667 34.4533 268.947 33.76 269.507 33.2C270.093 32.6133 270.8 32.32 271.627 32.32ZM292.022 42.2C292.662 42.2 293.368 42.3067 294.142 42.52L293.182 48C292.435 47.8133 291.808 47.72 291.302 47.72C290.048 47.72 289.075 48.16 288.382 49.04C287.688 49.92 287.142 51.2533 286.742 53.04V64H281.062V42.8H285.982L286.502 46.92C287.008 45.4267 287.742 44.2667 288.702 43.44C289.688 42.6133 290.795 42.2 292.022 42.2ZM315.412 43.96C314.026 44.4933 311.986 44.76 309.292 44.76C310.626 45.3467 311.612 46.08 312.252 46.96C312.892 47.8133 313.212 48.8933 313.212 50.2C313.212 51.56 312.852 52.7867 312.132 53.88C311.439 54.9467 310.426 55.7867 309.092 56.4C307.786 57.0133 306.252 57.32 304.492 57.32C303.559 57.32 302.732 57.2267 302.012 57.04C301.479 57.3867 301.212 57.8533 301.212 58.44C301.212 58.8667 301.372 59.2133 301.692 59.48C302.039 59.72 302.692 59.84 303.652 59.84H306.892C308.466 59.84 309.839 60.1067 311.012 60.64C312.212 61.1467 313.132 61.8667 313.772 62.8C314.439 63.7067 314.772 64.7467 314.772 65.92C314.772 68.08 313.839 69.76 311.972 70.96C310.132 72.1867 307.466 72.8 303.972 72.8C301.466 72.8 299.479 72.5333 298.012 72C296.572 71.4933 295.559 70.7467 294.972 69.76C294.386 68.7733 294.092 67.5333 294.092 66.04H299.172C299.172 66.7333 299.306 67.28 299.572 67.68C299.839 68.1067 300.319 68.4133 301.012 68.6C301.732 68.8133 302.759 68.92 304.092 68.92C305.932 68.92 307.212 68.6933 307.932 68.24C308.679 67.7867 309.052 67.1467 309.052 66.32C309.052 65.5733 308.772 65 308.212 64.6C307.652 64.2 306.826 64 305.732 64H302.612C300.506 64 298.932 63.6133 297.892 62.84C296.852 62.04 296.332 61.04 296.332 59.84C296.332 59.0933 296.546 58.3733 296.972 57.68C297.426 56.96 298.039 56.36 298.812 55.88C297.506 55.16 296.546 54.32 295.932 53.36C295.346 52.3733 295.052 51.2 295.052 49.84C295.052 48.2933 295.426 46.9467 296.172 45.8C296.946 44.6267 298.012 43.7333 299.372 43.12C300.759 42.48 302.332 42.16 304.092 42.16C306.279 42.2133 308.079 42.0267 309.492 41.6C310.906 41.1733 312.412 40.5067 314.012 39.6L315.412 43.96ZM304.212 45.96C303.146 45.96 302.292 46.3067 301.652 47C301.039 47.6667 300.732 48.5867 300.732 49.76C300.732 50.96 301.039 51.9067 301.652 52.6C302.292 53.2933 303.159 53.64 304.252 53.64C305.399 53.64 306.266 53.3067 306.852 52.64C307.439 51.9733 307.732 50.9867 307.732 49.68C307.732 47.2 306.559 45.96 304.212 45.96ZM323.89 42.8V64H318.21V42.8H323.89ZM321.01 31.88C322.023 31.88 322.85 32.2 323.49 32.84C324.157 33.4533 324.49 34.24 324.49 35.2C324.49 36.16 324.157 36.96 323.49 37.6C322.85 38.2133 322.023 38.52 321.01 38.52C319.997 38.52 319.17 38.2133 318.53 37.6C317.89 36.96 317.57 36.16 317.57 35.2C317.57 34.24 317.89 33.4533 318.53 32.84C319.17 32.2 319.997 31.88 321.01 31.88ZM341.339 42.16C343.206 42.16 344.659 42.7333 345.699 43.88C346.739 45 347.259 46.56 347.259 48.56V64H341.579V49.52C341.579 48.3733 341.379 47.5733 340.979 47.12C340.606 46.64 340.033 46.4 339.259 46.4C338.459 46.4 337.726 46.6533 337.059 47.16C336.419 47.64 335.793 48.3733 335.179 49.36V64H329.499V42.8H334.419L334.859 45.48C335.739 44.3867 336.699 43.56 337.739 43C338.806 42.44 340.006 42.16 341.339 42.16ZM368.109 33.72V64H362.429V34.36L368.109 33.72ZM380.989 42.8L374.229 52.12L381.589 64H375.149L368.309 52.4L375.109 42.8H380.989ZM392.56 42.16C395.733 42.16 398.213 43.16 400 45.16C401.787 47.1333 402.68 49.88 402.68 53.4C402.68 55.64 402.267 57.6133 401.44 59.32C400.64 61 399.467 62.3067 397.92 63.24C396.4 64.1733 394.6 64.64 392.52 64.64C389.347 64.64 386.853 63.6533 385.04 61.68C383.253 59.68 382.36 56.92 382.36 53.4C382.36 51.16 382.76 49.2 383.56 47.52C384.387 45.8133 385.56 44.4933 387.08 43.56C388.627 42.6267 390.453 42.16 392.56 42.16ZM392.56 46.4C391.12 46.4 390.04 46.9733 389.32 48.12C388.627 49.24 388.28 51 388.28 53.4C388.28 55.8 388.627 57.5733 389.32 58.72C390.04 59.84 391.107 60.4 392.52 60.4C393.933 60.4 394.987 59.84 395.68 58.72C396.4 57.5733 396.76 55.8 396.76 53.4C396.76 51 396.413 49.24 395.72 48.12C395.027 46.9733 393.973 46.4 392.56 46.4ZM394.84 38.4C394.28 38.4 393.787 38.3067 393.36 38.12C392.96 37.9333 392.48 37.6667 391.92 37.32C391.573 37.0533 391.267 36.8667 391 36.76C390.76 36.6267 390.507 36.56 390.24 36.56C389.813 36.56 389.44 36.7067 389.12 37C388.8 37.2933 388.467 37.7467 388.12 38.36L385.2 36.92C385.733 35.6133 386.427 34.5467 387.28 33.72C388.133 32.8933 389.093 32.48 390.16 32.48C390.773 32.48 391.293 32.5867 391.72 32.8C392.147 32.9867 392.627 33.2533 393.16 33.6C393.507 33.84 393.8 34.0267 394.04 34.16C394.28 34.2667 394.533 34.32 394.8 34.32C395.227 34.32 395.587 34.1867 395.88 33.92C396.2 33.6267 396.547 33.1733 396.92 32.56L399.84 34C399.307 35.36 398.613 36.44 397.76 37.24C396.907 38.0133 395.933 38.4 394.84 38.4ZM412.679 42.8V64H406.999V42.8H412.679ZM409.799 31.88C410.813 31.88 411.639 32.2 412.279 32.84C412.946 33.4533 413.279 34.24 413.279 35.2C413.279 36.16 412.946 36.96 412.279 37.6C411.639 38.2133 410.813 38.52 409.799 38.52C408.786 38.52 407.959 38.2133 407.319 37.6C406.679 36.96 406.359 36.16 406.359 35.2C406.359 34.24 406.679 33.4533 407.319 32.84C407.959 32.2 408.786 31.88 409.799 31.88ZM423.968 33.72V64H418.288V34.36L423.968 33.72ZM436.848 42.8L430.088 52.12L437.448 64H431.008L424.168 52.4L430.968 42.8H436.848ZM445.648 42.8V64H439.968V42.8H445.648ZM442.768 31.88C443.781 31.88 444.608 32.2 445.248 32.84C445.915 33.4533 446.248 34.24 446.248 35.2C446.248 36.16 445.915 36.96 445.248 37.6C444.608 38.2133 443.781 38.52 442.768 38.52C441.755 38.52 440.928 38.2133 440.288 37.6C439.648 36.96 439.328 36.16 439.328 35.2C439.328 34.24 439.648 33.4533 440.288 32.84C440.928 32.2 441.755 31.88 442.768 31.88ZM483.943 42.16C485.623 42.16 486.969 42.7333 487.983 43.88C489.023 45.0267 489.543 46.5867 489.543 48.56V64H483.863V49.52C483.863 47.44 483.169 46.4 481.783 46.4C481.036 46.4 480.383 46.64 479.823 47.12C479.263 47.6 478.689 48.3467 478.103 49.36V64H472.423V49.52C472.423 47.44 471.729 46.4 470.343 46.4C469.596 46.4 468.943 46.6533 468.383 47.16C467.823 47.64 467.263 48.3733 466.703 49.36V64H461.023V42.8H465.943L466.383 45.44C467.183 44.3733 468.076 43.56 469.063 43C470.076 42.44 471.236 42.16 472.543 42.16C473.743 42.16 474.783 42.4667 475.663 43.08C476.543 43.6667 477.183 44.5067 477.583 45.6C478.463 44.4533 479.409 43.6 480.423 43.04C481.463 42.4533 482.636 42.16 483.943 42.16ZM503.849 42.16C507.022 42.16 509.502 43.16 511.289 45.16C513.076 47.1333 513.969 49.88 513.969 53.4C513.969 55.64 513.556 57.6133 512.729 59.32C511.929 61 510.756 62.3067 509.209 63.24C507.689 64.1733 505.889 64.64 503.809 64.64C500.636 64.64 498.142 63.6533 496.329 61.68C494.542 59.68 493.649 56.92 493.649 53.4C493.649 51.16 494.049 49.2 494.849 47.52C495.676 45.8133 496.849 44.4933 498.369 43.56C499.916 42.6267 501.742 42.16 503.849 42.16ZM503.849 46.4C502.409 46.4 501.329 46.9733 500.609 48.12C499.916 49.24 499.569 51 499.569 53.4C499.569 55.8 499.916 57.5733 500.609 58.72C501.329 59.84 502.396 60.4 503.809 60.4C505.222 60.4 506.276 59.84 506.969 58.72C507.689 57.5733 508.049 55.8 508.049 53.4C508.049 51 507.702 49.24 507.009 48.12C506.316 46.9733 505.262 46.4 503.849 46.4ZM536.208 52.92C536.208 53.1867 536.168 53.92 536.088 55.12H522.848C523.035 57.04 523.555 58.4 524.408 59.2C525.262 60 526.422 60.4 527.888 60.4C528.795 60.4 529.648 60.2533 530.448 59.96C531.248 59.6667 532.115 59.2 533.048 58.56L535.408 61.76C533.035 63.68 530.355 64.64 527.368 64.64C524.035 64.64 521.475 63.64 519.688 61.64C517.902 59.64 517.008 56.9333 517.008 53.52C517.008 51.36 517.382 49.4267 518.128 47.72C518.902 45.9867 520.008 44.6267 521.448 43.64C522.915 42.6533 524.648 42.16 526.648 42.16C529.662 42.16 532.008 43.1067 533.688 45C535.368 46.8933 536.208 49.5333 536.208 52.92ZM530.568 51.32C530.568 47.8 529.302 46.04 526.768 46.04C525.595 46.04 524.675 46.48 524.008 47.36C523.368 48.2133 522.982 49.6133 522.848 51.56H530.568V51.32ZM553 63C552.226 63.5333 551.346 63.9333 550.36 64.2C549.4 64.4933 548.44 64.64 547.48 64.64C545.293 64.6133 543.64 63.9867 542.52 62.76C541.4 61.5333 540.84 59.7333 540.84 57.36V46.8H537.68V42.8H540.84V38.16L546.52 37.48V42.8H551.4L550.84 46.8H546.52V57.24C546.52 58.2533 546.693 58.9867 547.04 59.44C547.386 59.8933 547.92 60.12 548.64 60.12C549.36 60.12 550.16 59.88 551.04 59.4L553 63ZM566.475 42.2C567.115 42.2 567.822 42.3067 568.595 42.52L567.635 48C566.888 47.8133 566.262 47.72 565.755 47.72C564.502 47.72 563.528 48.16 562.835 49.04C562.142 49.92 561.595 51.2533 561.195 53.04V64H555.515V42.8H560.435L560.955 46.92C561.462 45.4267 562.195 44.2667 563.155 43.44C564.142 42.6133 565.248 42.2 566.475 42.2ZM588.122 52.92C588.122 53.1867 588.082 53.92 588.002 55.12H574.762C574.949 57.04 575.469 58.4 576.322 59.2C577.176 60 578.336 60.4 579.802 60.4C580.709 60.4 581.562 60.2533 582.362 59.96C583.162 59.6667 584.029 59.2 584.962 58.56L587.322 61.76C584.949 63.68 582.269 64.64 579.282 64.64C575.949 64.64 573.389 63.64 571.602 61.64C569.816 59.64 568.922 56.9333 568.922 53.52C568.922 51.36 569.296 49.4267 570.042 47.72C570.816 45.9867 571.922 44.6267 573.362 43.64C574.829 42.6533 576.562 42.16 578.562 42.16C581.576 42.16 583.922 43.1067 585.602 45C587.282 46.8933 588.122 49.5333 588.122 52.92ZM582.482 51.32C582.482 47.8 581.216 46.04 578.682 46.04C577.509 46.04 576.589 46.48 575.922 47.36C575.282 48.2133 574.896 49.6133 574.762 51.56H582.482V51.32ZM604.074 42.16C605.94 42.16 607.394 42.7333 608.434 43.88C609.474 45 609.994 46.56 609.994 48.56V64H604.314V49.52C604.314 48.3733 604.114 47.5733 603.714 47.12C603.34 46.64 602.767 46.4 601.994 46.4C601.194 46.4 600.46 46.6533 599.794 47.16C599.154 47.64 598.527 48.3733 597.914 49.36V64H592.234V42.8H597.154L597.594 45.48C598.474 44.3867 599.434 43.56 600.474 43C601.54 42.44 602.74 42.16 604.074 42.16ZM633.758 34.36V64H628.758L628.438 61.4C626.944 63.56 624.918 64.64 622.358 64.64C619.744 64.64 617.744 63.64 616.358 61.64C614.998 59.6133 614.318 56.8667 614.318 53.4C614.318 51.2133 614.664 49.28 615.358 47.6C616.078 45.8933 617.091 44.56 618.398 43.6C619.704 42.64 621.211 42.16 622.918 42.16C624.891 42.16 626.611 42.8667 628.078 44.28V33.72L633.758 34.36ZM624.038 60.4C624.864 60.4 625.598 60.2 626.238 59.8C626.878 59.3733 627.491 58.72 628.078 57.84V48.36C627.518 47.6933 626.944 47.2 626.358 46.88C625.798 46.5333 625.144 46.36 624.398 46.36C623.091 46.36 622.064 46.9333 621.318 48.08C620.598 49.2267 620.238 51 620.238 53.4C620.238 55.9333 620.558 57.7333 621.198 58.8C621.864 59.8667 622.811 60.4 624.038 60.4ZM657.263 52.92C657.263 53.1867 657.223 53.92 657.143 55.12H643.903C644.09 57.04 644.61 58.4 645.463 59.2C646.316 60 647.476 60.4 648.943 60.4C649.85 60.4 650.703 60.2533 651.503 59.96C652.303 59.6667 653.17 59.2 654.103 58.56L656.463 61.76C654.09 63.68 651.41 64.64 648.423 64.64C645.09 64.64 642.53 63.64 640.743 61.64C638.956 59.64 638.063 56.9333 638.063 53.52C638.063 51.36 638.436 49.4267 639.183 47.72C639.956 45.9867 641.063 44.6267 642.503 43.64C643.97 42.6533 645.703 42.16 647.703 42.16C650.716 42.16 653.063 43.1067 654.743 45C656.423 46.8933 657.263 49.5333 657.263 52.92ZM651.623 51.32C651.623 47.8 650.356 46.04 647.823 46.04C646.65 46.04 645.73 46.48 645.063 47.36C644.423 48.2133 644.036 49.6133 643.903 51.56H651.623V51.32ZM662.944 57.8C663.904 57.8 664.717 58.1333 665.384 58.8C666.05 59.4667 666.384 60.2667 666.384 61.2C666.384 62.1333 666.05 62.9467 665.384 63.64C664.717 64.3067 663.904 64.64 662.944 64.64C662.01 64.64 661.21 64.3067 660.544 63.64C659.877 62.9467 659.544 62.1333 659.544 61.2C659.544 60.2667 659.877 59.4667 660.544 58.8C661.21 58.1333 662.01 57.8 662.944 57.8Z" fill="#E3000F"/>
</svg>
