<svg width="700" height="100" viewBox="0 0 700 100" fill="none" xmlns="http://www.w3.org/2000/svg">
<path d="M37.5938 38.75V61.5H33.6719V38.75H37.5938ZM51.2656 38.75L42.0469 49.7031L36.7969 55.2656L36.1094 51.375L39.8594 46.75L46.4844 38.75H51.2656ZM47.0469 61.5L39.5625 50.7188L42.2656 48.0469L51.7031 61.5H47.0469ZM63.3125 57.5156V44.5938H67.0938V61.5H63.5312L63.3125 57.5156ZM63.8438 54L65.1094 53.9688C65.1094 55.1042 64.9844 56.151 64.7344 57.1094C64.4844 58.0573 64.099 58.8854 63.5781 59.5938C63.0573 60.2917 62.3906 60.8385 61.5781 61.2344C60.7656 61.6198 59.7917 61.8125 58.6562 61.8125C57.8333 61.8125 57.0781 61.6927 56.3906 61.4531C55.7031 61.2135 55.1094 60.8438 54.6094 60.3438C54.1198 59.8438 53.7396 59.1927 53.4688 58.3906C53.1979 57.5885 53.0625 56.6302 53.0625 55.5156V44.5938H56.8281V55.5469C56.8281 56.1615 56.901 56.6771 57.0469 57.0938C57.1927 57.5 57.3906 57.8281 57.6406 58.0781C57.8906 58.3281 58.1823 58.5052 58.5156 58.6094C58.849 58.7135 59.2031 58.7656 59.5781 58.7656C60.651 58.7656 61.4948 58.5573 62.1094 58.1406C62.7344 57.7135 63.1771 57.1406 63.4375 56.4219C63.7083 55.7031 63.8438 54.8958 63.8438 54ZM74.9844 44.5938V61.5H71.2031V44.5938H74.9844ZM70.9531 40.1562C70.9531 39.5833 71.1406 39.1094 71.5156 38.7344C71.901 38.349 72.4323 38.1562 73.1094 38.1562C73.776 38.1562 74.3021 38.349 74.6875 38.7344C75.0729 39.1094 75.2656 39.5833 75.2656 40.1562C75.2656 40.7188 75.0729 41.1875 74.6875 41.5625C74.3021 41.9375 73.776 42.125 73.1094 42.125C72.4323 42.125 71.901 41.9375 71.5156 41.5625C71.1406 41.1875 70.9531 40.7188 70.9531 40.1562ZM94.5312 61.8125C93.2812 61.8125 92.151 61.6094 91.1406 61.2031C90.1406 60.7865 89.2865 60.2083 88.5781 59.4688C87.8802 58.7292 87.3438 57.8594 86.9688 56.8594C86.5938 55.8594 86.4062 54.7812 86.4062 53.625V53C86.4062 51.6771 86.599 50.4792 86.9844 49.4062C87.3698 48.3333 87.9062 47.4167 88.5938 46.6562C89.2812 45.8854 90.0938 45.2969 91.0312 44.8906C91.9688 44.4844 92.9844 44.2812 94.0781 44.2812C95.2865 44.2812 96.3438 44.4844 97.25 44.8906C98.1562 45.2969 98.9062 45.8698 99.5 46.6094C100.104 47.3385 100.552 48.2083 100.844 49.2188C101.146 50.2292 101.297 51.3438 101.297 52.5625V54.1719H88.2344V51.4688H97.5781V51.1719C97.5573 50.4948 97.4219 49.8594 97.1719 49.2656C96.9323 48.6719 96.5625 48.1927 96.0625 47.8281C95.5625 47.4635 94.8958 47.2812 94.0625 47.2812C93.4375 47.2812 92.8802 47.4167 92.3906 47.6875C91.9115 47.9479 91.5104 48.3281 91.1875 48.8281C90.8646 49.3281 90.6146 49.9323 90.4375 50.6406C90.2708 51.3385 90.1875 52.125 90.1875 53V53.625C90.1875 54.3646 90.2865 55.0521 90.4844 55.6875C90.6927 56.3125 90.9948 56.8594 91.3906 57.3281C91.7865 57.7969 92.2656 58.1667 92.8281 58.4375C93.3906 58.6979 94.0312 58.8281 94.75 58.8281C95.6562 58.8281 96.4635 58.6458 97.1719 58.2812C97.8802 57.9167 98.4948 57.401 99.0156 56.7344L101 58.6562C100.635 59.1875 100.161 59.6979 99.5781 60.1875C98.9948 60.6667 98.2812 61.0573 97.4375 61.3594C96.6042 61.6615 95.6354 61.8125 94.5312 61.8125ZM108.266 44.5938V61.5H104.484V44.5938H108.266ZM104.234 40.1562C104.234 39.5833 104.422 39.1094 104.797 38.7344C105.182 38.349 105.714 38.1562 106.391 38.1562C107.057 38.1562 107.583 38.349 107.969 38.7344C108.354 39.1094 108.547 39.5833 108.547 40.1562C108.547 40.7188 108.354 41.1875 107.969 41.5625C107.583 41.9375 107.057 42.125 106.391 42.125C105.714 42.125 105.182 41.9375 104.797 41.5625C104.422 41.1875 104.234 40.7188 104.234 40.1562ZM120.547 44.5938H124.328V62.9688C124.328 64.125 124.13 65.099 123.734 65.8906C123.339 66.6927 122.755 67.2969 121.984 67.7031C121.214 68.1198 120.271 68.3281 119.156 68.3281C118.823 68.3281 118.479 68.3021 118.125 68.25C117.76 68.2083 117.417 68.1458 117.094 68.0625L117.109 65.125C117.328 65.1667 117.562 65.1979 117.812 65.2188C118.052 65.25 118.281 65.2656 118.5 65.2656C118.948 65.2656 119.323 65.1875 119.625 65.0312C119.927 64.875 120.156 64.6302 120.312 64.2969C120.469 63.9635 120.547 63.5208 120.547 62.9688V44.5938ZM120.219 40.1562C120.219 39.5833 120.411 39.1094 120.797 38.7344C121.182 38.349 121.708 38.1562 122.375 38.1562C123.052 38.1562 123.578 38.349 123.953 38.7344C124.339 39.1094 124.531 39.5833 124.531 40.1562C124.531 40.7188 124.339 41.1875 123.953 41.5625C123.578 41.9375 123.052 42.125 122.375 42.125C121.708 42.125 121.182 41.9375 120.797 41.5625C120.411 41.1875 120.219 40.7188 120.219 40.1562ZM127.672 53.2344V52.875C127.672 51.6562 127.849 50.526 128.203 49.4844C128.557 48.4323 129.068 47.5208 129.734 46.75C130.411 45.9688 131.234 45.3646 132.203 44.9375C133.182 44.5 134.286 44.2812 135.516 44.2812C136.755 44.2812 137.859 44.5 138.828 44.9375C139.807 45.3646 140.635 45.9688 141.312 46.75C141.99 47.5208 142.505 48.4323 142.859 49.4844C143.214 50.526 143.391 51.6562 143.391 52.875V53.2344C143.391 54.4531 143.214 55.5833 142.859 56.625C142.505 57.6667 141.99 58.5781 141.312 59.3594C140.635 60.1302 139.812 60.7344 138.844 61.1719C137.875 61.599 136.776 61.8125 135.547 61.8125C134.307 61.8125 133.198 61.599 132.219 61.1719C131.25 60.7344 130.427 60.1302 129.75 59.3594C129.073 58.5781 128.557 57.6667 128.203 56.625C127.849 55.5833 127.672 54.4531 127.672 53.2344ZM131.438 52.875V53.2344C131.438 53.9948 131.516 54.7135 131.672 55.3906C131.828 56.0677 132.073 56.6615 132.406 57.1719C132.74 57.6823 133.167 58.0833 133.688 58.375C134.208 58.6667 134.828 58.8125 135.547 58.8125C136.245 58.8125 136.849 58.6667 137.359 58.375C137.88 58.0833 138.307 57.6823 138.641 57.1719C138.974 56.6615 139.219 56.0677 139.375 55.3906C139.542 54.7135 139.625 53.9948 139.625 53.2344V52.875C139.625 52.125 139.542 51.4167 139.375 50.75C139.219 50.0729 138.969 49.474 138.625 48.9531C138.292 48.4323 137.865 48.026 137.344 47.7344C136.833 47.4323 136.224 47.2812 135.516 47.2812C134.807 47.2812 134.193 47.4323 133.672 47.7344C133.161 48.026 132.74 48.4323 132.406 48.9531C132.073 49.474 131.828 50.0729 131.672 50.75C131.516 51.4167 131.438 52.125 131.438 52.875ZM138.875 37.6875L141.172 37.8594C141.172 38.6198 141.021 39.3021 140.719 39.9062C140.417 40.5 140.005 40.9688 139.484 41.3125C138.964 41.6562 138.375 41.8281 137.719 41.8281C137.208 41.8281 136.776 41.7552 136.422 41.6094C136.068 41.4635 135.745 41.2969 135.453 41.1094C135.161 40.9219 134.859 40.7604 134.547 40.625C134.245 40.4792 133.885 40.4062 133.469 40.4062C133.073 40.4062 132.734 40.5521 132.453 40.8438C132.182 41.1354 132.047 41.526 132.047 42.0156L129.734 41.8906C129.734 41.1406 129.885 40.4635 130.188 39.8594C130.49 39.2552 130.901 38.776 131.422 38.4219C131.943 38.0677 132.531 37.8906 133.188 37.8906C133.615 37.8906 134 37.9635 134.344 38.1094C134.698 38.2448 135.031 38.4062 135.344 38.5938C135.667 38.7812 135.995 38.9479 136.328 39.0938C136.661 39.2396 137.031 39.3125 137.438 39.3125C137.833 39.3125 138.172 39.1615 138.453 38.8594C138.734 38.5573 138.875 38.1667 138.875 37.6875ZM156.719 57.5156V44.5938H160.5V61.5H156.938L156.719 57.5156ZM157.25 54L158.516 53.9688C158.516 55.1042 158.391 56.151 158.141 57.1094C157.891 58.0573 157.505 58.8854 156.984 59.5938C156.464 60.2917 155.797 60.8385 154.984 61.2344C154.172 61.6198 153.198 61.8125 152.062 61.8125C151.24 61.8125 150.484 61.6927 149.797 61.4531C149.109 61.2135 148.516 60.8438 148.016 60.3438C147.526 59.8438 147.146 59.1927 146.875 58.3906C146.604 57.5885 146.469 56.6302 146.469 55.5156V44.5938H150.234V55.5469C150.234 56.1615 150.307 56.6771 150.453 57.0938C150.599 57.5 150.797 57.8281 151.047 58.0781C151.297 58.3281 151.589 58.5052 151.922 58.6094C152.255 58.7135 152.609 58.7656 152.984 58.7656C154.057 58.7656 154.901 58.5573 155.516 58.1406C156.141 57.7135 156.583 57.1406 156.844 56.4219C157.115 55.7031 157.25 54.8958 157.25 54ZM173.891 58.1094V50.0469C173.891 49.4427 173.781 48.9219 173.562 48.4844C173.344 48.0469 173.01 47.7083 172.562 47.4688C172.125 47.2292 171.573 47.1094 170.906 47.1094C170.292 47.1094 169.76 47.2135 169.312 47.4219C168.865 47.6302 168.516 47.9115 168.266 48.2656C168.016 48.6198 167.891 49.0208 167.891 49.4688H164.141C164.141 48.8021 164.302 48.1562 164.625 47.5312C164.948 46.9062 165.417 46.349 166.031 45.8594C166.646 45.3698 167.38 44.9844 168.234 44.7031C169.089 44.4219 170.047 44.2812 171.109 44.2812C172.38 44.2812 173.505 44.4948 174.484 44.9219C175.474 45.349 176.25 45.9948 176.812 46.8594C177.385 47.7135 177.672 48.7865 177.672 50.0781V57.5938C177.672 58.3646 177.724 59.0573 177.828 59.6719C177.943 60.276 178.104 60.8021 178.312 61.25V61.5H174.453C174.276 61.0938 174.135 60.5781 174.031 59.9531C173.938 59.3177 173.891 58.7031 173.891 58.1094ZM174.438 51.2188L174.469 53.5469H171.766C171.068 53.5469 170.453 53.6146 169.922 53.75C169.391 53.875 168.948 54.0625 168.594 54.3125C168.24 54.5625 167.974 54.8646 167.797 55.2188C167.62 55.5729 167.531 55.974 167.531 56.4219C167.531 56.8698 167.635 57.2812 167.844 57.6562C168.052 58.0208 168.354 58.3073 168.75 58.5156C169.156 58.724 169.646 58.8281 170.219 58.8281C170.99 58.8281 171.661 58.6719 172.234 58.3594C172.818 58.0365 173.276 57.6458 173.609 57.1875C173.943 56.7188 174.12 56.276 174.141 55.8594L175.359 57.5312C175.234 57.9583 175.021 58.4167 174.719 58.9062C174.417 59.3958 174.021 59.8646 173.531 60.3125C173.052 60.75 172.474 61.1094 171.797 61.3906C171.13 61.6719 170.359 61.8125 169.484 61.8125C168.38 61.8125 167.396 61.5938 166.531 61.1562C165.667 60.7083 164.99 60.1094 164.5 59.3594C164.01 58.599 163.766 57.7396 163.766 56.7812C163.766 55.8854 163.932 55.0938 164.266 54.4062C164.609 53.7083 165.109 53.125 165.766 52.6562C166.432 52.1875 167.245 51.8333 168.203 51.5938C169.161 51.3438 170.255 51.2188 171.484 51.2188H174.438ZM185.141 57.875L185.125 60.5625C185.125 61.625 184.859 62.7188 184.328 63.8438C183.797 64.9688 183.094 65.8958 182.219 66.625L180.203 65.4531C180.495 64.9844 180.76 64.5104 181 64.0312C181.24 63.5521 181.432 63.0417 181.578 62.5C181.724 61.9583 181.797 61.3594 181.797 60.7031V57.875H185.141ZM196.016 53.2344V52.875C196.016 51.6562 196.193 50.526 196.547 49.4844C196.901 48.4323 197.411 47.5208 198.078 46.75C198.755 45.9688 199.578 45.3646 200.547 44.9375C201.526 44.5 202.63 44.2812 203.859 44.2812C205.099 44.2812 206.203 44.5 207.172 44.9375C208.151 45.3646 208.979 45.9688 209.656 46.75C210.333 47.5208 210.849 48.4323 211.203 49.4844C211.557 50.526 211.734 51.6562 211.734 52.875V53.2344C211.734 54.4531 211.557 55.5833 211.203 56.625C210.849 57.6667 210.333 58.5781 209.656 59.3594C208.979 60.1302 208.156 60.7344 207.188 61.1719C206.219 61.599 205.12 61.8125 203.891 61.8125C202.651 61.8125 201.542 61.599 200.562 61.1719C199.594 60.7344 198.771 60.1302 198.094 59.3594C197.417 58.5781 196.901 57.6667 196.547 56.625C196.193 55.5833 196.016 54.4531 196.016 53.2344ZM199.781 52.875V53.2344C199.781 53.9948 199.859 54.7135 200.016 55.3906C200.172 56.0677 200.417 56.6615 200.75 57.1719C201.083 57.6823 201.51 58.0833 202.031 58.375C202.552 58.6667 203.172 58.8125 203.891 58.8125C204.589 58.8125 205.193 58.6667 205.703 58.375C206.224 58.0833 206.651 57.6823 206.984 57.1719C207.318 56.6615 207.562 56.0677 207.719 55.3906C207.885 54.7135 207.969 53.9948 207.969 53.2344V52.875C207.969 52.125 207.885 51.4167 207.719 50.75C207.562 50.0729 207.312 49.474 206.969 48.9531C206.635 48.4323 206.208 48.026 205.688 47.7344C205.177 47.4323 204.568 47.2812 203.859 47.2812C203.151 47.2812 202.536 47.4323 202.016 47.7344C201.505 48.026 201.083 48.4323 200.75 48.9531C200.417 49.474 200.172 50.0729 200.016 50.75C199.859 51.4167 199.781 52.125 199.781 52.875ZM218.625 48.2031V61.5H214.859V44.5938H218.406L218.625 48.2031ZM217.953 52.4219L216.734 52.4062C216.745 51.2083 216.911 50.1094 217.234 49.1094C217.568 48.1094 218.026 47.25 218.609 46.5312C219.203 45.8125 219.911 45.2604 220.734 44.875C221.557 44.4792 222.474 44.2812 223.484 44.2812C224.297 44.2812 225.031 44.3958 225.688 44.625C226.354 44.8438 226.922 45.2031 227.391 45.7031C227.87 46.2031 228.234 46.8542 228.484 47.6562C228.734 48.4479 228.859 49.4219 228.859 50.5781V61.5H225.078V50.5625C225.078 49.75 224.958 49.1094 224.719 48.6406C224.49 48.1615 224.151 47.8229 223.703 47.625C223.266 47.4167 222.719 47.3125 222.062 47.3125C221.417 47.3125 220.839 47.4479 220.328 47.7188C219.818 47.9896 219.385 48.3594 219.031 48.8281C218.688 49.2969 218.422 49.8385 218.234 50.4531C218.047 51.0677 217.953 51.724 217.953 52.4219ZM249.656 38.75V61.5H245.766V38.75H249.656ZM256.797 38.75V41.875H238.688V38.75H256.797ZM263.453 44.5938V61.5H259.672V44.5938H263.453ZM259.422 40.1562C259.422 39.5833 259.609 39.1094 259.984 38.7344C260.37 38.349 260.901 38.1562 261.578 38.1562C262.245 38.1562 262.771 38.349 263.156 38.7344C263.542 39.1094 263.734 39.5833 263.734 40.1562C263.734 40.7188 263.542 41.1875 263.156 41.5625C262.771 41.9375 262.245 42.125 261.578 42.125C260.901 42.125 260.37 41.9375 259.984 41.5625C259.609 41.1875 259.422 40.7188 259.422 40.1562ZM271.609 44.5938V61.5H267.828V44.5938H271.609ZM267.578 40.1562C267.578 39.5833 267.766 39.1094 268.141 38.7344C268.526 38.349 269.057 38.1562 269.734 38.1562C270.401 38.1562 270.927 38.349 271.312 38.7344C271.698 39.1094 271.891 39.5833 271.891 40.1562C271.891 40.7188 271.698 41.1875 271.312 41.5625C270.927 41.9375 270.401 42.125 269.734 42.125C269.057 42.125 268.526 41.9375 268.141 41.5625C267.766 41.1875 267.578 40.7188 267.578 40.1562ZM285.906 57.5156V44.5938H289.688V61.5H286.125L285.906 57.5156ZM286.438 54L287.703 53.9688C287.703 55.1042 287.578 56.151 287.328 57.1094C287.078 58.0573 286.693 58.8854 286.172 59.5938C285.651 60.2917 284.984 60.8385 284.172 61.2344C283.359 61.6198 282.385 61.8125 281.25 61.8125C280.427 61.8125 279.672 61.6927 278.984 61.4531C278.297 61.2135 277.703 60.8438 277.203 60.3438C276.714 59.8438 276.333 59.1927 276.062 58.3906C275.792 57.5885 275.656 56.6302 275.656 55.5156V44.5938H279.422V55.5469C279.422 56.1615 279.495 56.6771 279.641 57.0938C279.786 57.5 279.984 57.8281 280.234 58.0781C280.484 58.3281 280.776 58.5052 281.109 58.6094C281.443 58.7135 281.797 58.7656 282.172 58.7656C283.245 58.7656 284.089 58.5573 284.703 58.1406C285.328 57.7135 285.771 57.1406 286.031 56.4219C286.302 55.7031 286.438 54.8958 286.438 54ZM307.016 58.5156L311.156 44.5938H315.062L309.188 61.5H306.75L307.016 58.5156ZM303.844 44.5938L308.062 58.5781L308.266 61.5H305.828L299.922 44.5938H303.844ZM324.625 61.8125C323.375 61.8125 322.245 61.6094 321.234 61.2031C320.234 60.7865 319.38 60.2083 318.672 59.4688C317.974 58.7292 317.438 57.8594 317.062 56.8594C316.688 55.8594 316.5 54.7812 316.5 53.625V53C316.5 51.6771 316.693 50.4792 317.078 49.4062C317.464 48.3333 318 47.4167 318.688 46.6562C319.375 45.8854 320.188 45.2969 321.125 44.8906C322.062 44.4844 323.078 44.2812 324.172 44.2812C325.38 44.2812 326.438 44.4844 327.344 44.8906C328.25 45.2969 329 45.8698 329.594 46.6094C330.198 47.3385 330.646 48.2083 330.938 49.2188C331.24 50.2292 331.391 51.3438 331.391 52.5625V54.1719H318.328V51.4688H327.672V51.1719C327.651 50.4948 327.516 49.8594 327.266 49.2656C327.026 48.6719 326.656 48.1927 326.156 47.8281C325.656 47.4635 324.99 47.2812 324.156 47.2812C323.531 47.2812 322.974 47.4167 322.484 47.6875C322.005 47.9479 321.604 48.3281 321.281 48.8281C320.958 49.3281 320.708 49.9323 320.531 50.6406C320.365 51.3385 320.281 52.125 320.281 53V53.625C320.281 54.3646 320.38 55.0521 320.578 55.6875C320.786 56.3125 321.089 56.8594 321.484 57.3281C321.88 57.7969 322.359 58.1667 322.922 58.4375C323.484 58.6979 324.125 58.8281 324.844 58.8281C325.75 58.8281 326.557 58.6458 327.266 58.2812C327.974 57.9167 328.589 57.401 329.109 56.7344L331.094 58.6562C330.729 59.1875 330.255 59.6979 329.672 60.1875C329.089 60.6667 328.375 61.0573 327.531 61.3594C326.698 61.6615 325.729 61.8125 324.625 61.8125ZM341.781 61.8125C340.531 61.8125 339.401 61.6094 338.391 61.2031C337.391 60.7865 336.536 60.2083 335.828 59.4688C335.13 58.7292 334.594 57.8594 334.219 56.8594C333.844 55.8594 333.656 54.7812 333.656 53.625V53C333.656 51.6771 333.849 50.4792 334.234 49.4062C334.62 48.3333 335.156 47.4167 335.844 46.6562C336.531 45.8854 337.344 45.2969 338.281 44.8906C339.219 44.4844 340.234 44.2812 341.328 44.2812C342.536 44.2812 343.594 44.4844 344.5 44.8906C345.406 45.2969 346.156 45.8698 346.75 46.6094C347.354 47.3385 347.802 48.2083 348.094 49.2188C348.396 50.2292 348.547 51.3438 348.547 52.5625V54.1719H335.484V51.4688H344.828V51.1719C344.807 50.4948 344.672 49.8594 344.422 49.2656C344.182 48.6719 343.812 48.1927 343.312 47.8281C342.812 47.4635 342.146 47.2812 341.312 47.2812C340.688 47.2812 340.13 47.4167 339.641 47.6875C339.161 47.9479 338.76 48.3281 338.438 48.8281C338.115 49.3281 337.865 49.9323 337.688 50.6406C337.521 51.3385 337.438 52.125 337.438 53V53.625C337.438 54.3646 337.536 55.0521 337.734 55.6875C337.943 56.3125 338.245 56.8594 338.641 57.3281C339.036 57.7969 339.516 58.1667 340.078 58.4375C340.641 58.6979 341.281 58.8281 342 58.8281C342.906 58.8281 343.714 58.6458 344.422 58.2812C345.13 57.9167 345.745 57.401 346.266 56.7344L348.25 58.6562C347.885 59.1875 347.411 59.6979 346.828 60.1875C346.245 60.6667 345.531 61.0573 344.688 61.3594C343.854 61.6615 342.885 61.8125 341.781 61.8125ZM351.5 37.5H355.266V57.8906L354.906 61.5H351.5V37.5ZM366.297 52.8906V53.2188C366.297 54.4688 366.156 55.6198 365.875 56.6719C365.604 57.7135 365.188 58.6198 364.625 59.3906C364.073 60.1615 363.385 60.7604 362.562 61.1875C361.75 61.6042 360.807 61.8125 359.734 61.8125C358.682 61.8125 357.766 61.6146 356.984 61.2188C356.203 60.8229 355.547 60.2604 355.016 59.5312C354.495 58.8021 354.073 57.9323 353.75 56.9219C353.427 55.9115 353.198 54.7969 353.062 53.5781V52.5312C353.198 51.3021 353.427 50.1875 353.75 49.1875C354.073 48.1771 354.495 47.3073 355.016 46.5781C355.547 45.8385 356.198 45.2708 356.969 44.875C357.75 44.4792 358.661 44.2812 359.703 44.2812C360.786 44.2812 361.74 44.4896 362.562 44.9062C363.396 45.3229 364.089 45.9167 364.641 46.6875C365.193 47.4479 365.604 48.3542 365.875 49.4062C366.156 50.4583 366.297 51.6198 366.297 52.8906ZM362.531 53.2188V52.8906C362.531 52.1302 362.469 51.4167 362.344 50.75C362.219 50.0729 362.01 49.4792 361.719 48.9688C361.438 48.4583 361.052 48.0573 360.562 47.7656C360.083 47.4635 359.484 47.3125 358.766 47.3125C358.099 47.3125 357.526 47.4271 357.047 47.6562C356.568 47.8854 356.167 48.1979 355.844 48.5938C355.521 48.9896 355.266 49.4479 355.078 49.9688C354.901 50.4896 354.781 51.0521 354.719 51.6562V54.4844C354.812 55.2656 355.01 55.9844 355.312 56.6406C355.625 57.2865 356.062 57.8073 356.625 58.2031C357.188 58.5885 357.911 58.7812 358.797 58.7812C359.495 58.7812 360.083 58.6406 360.562 58.3594C361.042 58.0781 361.422 57.6875 361.703 57.1875C361.995 56.6771 362.203 56.0833 362.328 55.4062C362.464 54.7292 362.531 54 362.531 53.2188ZM373.516 44.5938V61.5H369.734V44.5938H373.516ZM369.484 40.1562C369.484 39.5833 369.672 39.1094 370.047 38.7344C370.432 38.349 370.964 38.1562 371.641 38.1562C372.307 38.1562 372.833 38.349 373.219 38.7344C373.604 39.1094 373.797 39.5833 373.797 40.1562C373.797 40.7188 373.604 41.1875 373.219 41.5625C372.833 41.9375 372.307 42.125 371.641 42.125C370.964 42.125 370.432 41.9375 370.047 41.5625C369.672 41.1875 369.484 40.7188 369.484 40.1562ZM381.422 47.8438V68H377.656V44.5938H381.125L381.422 47.8438ZM392.438 52.8906V53.2188C392.438 54.4479 392.292 55.5885 392 56.6406C391.719 57.6823 391.297 58.5938 390.734 59.375C390.182 60.1458 389.5 60.7448 388.688 61.1719C387.875 61.599 386.938 61.8125 385.875 61.8125C384.823 61.8125 383.901 61.6198 383.109 61.2344C382.328 60.8385 381.667 60.2812 381.125 59.5625C380.583 58.8438 380.146 58 379.812 57.0312C379.49 56.0521 379.26 54.9792 379.125 53.8125V52.5469C379.26 51.3073 379.49 50.1823 379.812 49.1719C380.146 48.1615 380.583 47.2917 381.125 46.5625C381.667 45.8333 382.328 45.2708 383.109 44.875C383.891 44.4792 384.802 44.2812 385.844 44.2812C386.906 44.2812 387.849 44.4896 388.672 44.9062C389.495 45.3125 390.188 45.8958 390.75 46.6562C391.312 47.4062 391.734 48.3125 392.016 49.375C392.297 50.4271 392.438 51.599 392.438 52.8906ZM388.672 53.2188V52.8906C388.672 52.1094 388.599 51.3854 388.453 50.7188C388.307 50.0417 388.078 49.4479 387.766 48.9375C387.453 48.4271 387.052 48.0312 386.562 47.75C386.083 47.4583 385.505 47.3125 384.828 47.3125C384.161 47.3125 383.589 47.4271 383.109 47.6562C382.63 47.875 382.229 48.1823 381.906 48.5781C381.583 48.974 381.333 49.4375 381.156 49.9688C380.979 50.4896 380.854 51.0573 380.781 51.6719V54.7031C380.906 55.4531 381.12 56.1406 381.422 56.7656C381.724 57.3906 382.151 57.8906 382.703 58.2656C383.266 58.6302 383.984 58.8125 384.859 58.8125C385.536 58.8125 386.115 58.6667 386.594 58.375C387.073 58.0833 387.464 57.6823 387.766 57.1719C388.078 56.651 388.307 56.0521 388.453 55.375C388.599 54.6979 388.672 53.9792 388.672 53.2188ZM394.922 53.2344V52.875C394.922 51.6562 395.099 50.526 395.453 49.4844C395.807 48.4323 396.318 47.5208 396.984 46.75C397.661 45.9688 398.484 45.3646 399.453 44.9375C400.432 44.5 401.536 44.2812 402.766 44.2812C404.005 44.2812 405.109 44.5 406.078 44.9375C407.057 45.3646 407.885 45.9688 408.562 46.75C409.24 47.5208 409.755 48.4323 410.109 49.4844C410.464 50.526 410.641 51.6562 410.641 52.875V53.2344C410.641 54.4531 410.464 55.5833 410.109 56.625C409.755 57.6667 409.24 58.5781 408.562 59.3594C407.885 60.1302 407.062 60.7344 406.094 61.1719C405.125 61.599 404.026 61.8125 402.797 61.8125C401.557 61.8125 400.448 61.599 399.469 61.1719C398.5 60.7344 397.677 60.1302 397 59.3594C396.323 58.5781 395.807 57.6667 395.453 56.625C395.099 55.5833 394.922 54.4531 394.922 53.2344ZM398.688 52.875V53.2344C398.688 53.9948 398.766 54.7135 398.922 55.3906C399.078 56.0677 399.323 56.6615 399.656 57.1719C399.99 57.6823 400.417 58.0833 400.938 58.375C401.458 58.6667 402.078 58.8125 402.797 58.8125C403.495 58.8125 404.099 58.6667 404.609 58.375C405.13 58.0833 405.557 57.6823 405.891 57.1719C406.224 56.6615 406.469 56.0677 406.625 55.3906C406.792 54.7135 406.875 53.9948 406.875 53.2344V52.875C406.875 52.125 406.792 51.4167 406.625 50.75C406.469 50.0729 406.219 49.474 405.875 48.9531C405.542 48.4323 405.115 48.026 404.594 47.7344C404.083 47.4323 403.474 47.2812 402.766 47.2812C402.057 47.2812 401.443 47.4323 400.922 47.7344C400.411 48.026 399.99 48.4323 399.656 48.9531C399.323 49.474 399.078 50.0729 398.922 50.75C398.766 51.4167 398.688 52.125 398.688 52.875ZM417.578 47.8125V61.5H413.812V44.5938H417.406L417.578 47.8125ZM422.75 44.4844L422.719 47.9844C422.49 47.9427 422.24 47.9115 421.969 47.8906C421.708 47.8698 421.448 47.8594 421.188 47.8594C420.542 47.8594 419.974 47.9531 419.484 48.1406C418.995 48.3177 418.583 48.5781 418.25 48.9219C417.927 49.2552 417.677 49.6615 417.5 50.1406C417.323 50.6198 417.219 51.1562 417.188 51.75L416.328 51.8125C416.328 50.75 416.432 49.7656 416.641 48.8594C416.849 47.9531 417.161 47.1562 417.578 46.4688C418.005 45.7812 418.536 45.2448 419.172 44.8594C419.818 44.474 420.562 44.2812 421.406 44.2812C421.635 44.2812 421.88 44.3021 422.141 44.3438C422.411 44.3854 422.615 44.4323 422.75 44.4844ZM433.641 44.5938V47.3438H424.109V44.5938H433.641ZM426.859 40.4531H430.625V56.8281C430.625 57.349 430.698 57.75 430.844 58.0312C431 58.3021 431.214 58.4844 431.484 58.5781C431.755 58.6719 432.073 58.7188 432.438 58.7188C432.698 58.7188 432.948 58.7031 433.188 58.6719C433.427 58.6406 433.62 58.6094 433.766 58.5781L433.781 61.4531C433.469 61.5469 433.104 61.6302 432.688 61.7031C432.281 61.776 431.812 61.8125 431.281 61.8125C430.417 61.8125 429.651 61.6615 428.984 61.3594C428.318 61.0469 427.797 60.5417 427.422 59.8438C427.047 59.1458 426.859 58.2188 426.859 57.0625V40.4531ZM446.078 58.1094V50.0469C446.078 49.4427 445.969 48.9219 445.75 48.4844C445.531 48.0469 445.198 47.7083 444.75 47.4688C444.312 47.2292 443.76 47.1094 443.094 47.1094C442.479 47.1094 441.948 47.2135 441.5 47.4219C441.052 47.6302 440.703 47.9115 440.453 48.2656C440.203 48.6198 440.078 49.0208 440.078 49.4688H436.328C436.328 48.8021 436.49 48.1562 436.812 47.5312C437.135 46.9062 437.604 46.349 438.219 45.8594C438.833 45.3698 439.568 44.9844 440.422 44.7031C441.276 44.4219 442.234 44.2812 443.297 44.2812C444.568 44.2812 445.693 44.4948 446.672 44.9219C447.661 45.349 448.438 45.9948 449 46.8594C449.573 47.7135 449.859 48.7865 449.859 50.0781V57.5938C449.859 58.3646 449.911 59.0573 450.016 59.6719C450.13 60.276 450.292 60.8021 450.5 61.25V61.5H446.641C446.464 61.0938 446.323 60.5781 446.219 59.9531C446.125 59.3177 446.078 58.7031 446.078 58.1094ZM446.625 51.2188L446.656 53.5469H443.953C443.255 53.5469 442.641 53.6146 442.109 53.75C441.578 53.875 441.135 54.0625 440.781 54.3125C440.427 54.5625 440.161 54.8646 439.984 55.2188C439.807 55.5729 439.719 55.974 439.719 56.4219C439.719 56.8698 439.823 57.2812 440.031 57.6562C440.24 58.0208 440.542 58.3073 440.938 58.5156C441.344 58.724 441.833 58.8281 442.406 58.8281C443.177 58.8281 443.849 58.6719 444.422 58.3594C445.005 58.0365 445.464 57.6458 445.797 57.1875C446.13 56.7188 446.307 56.276 446.328 55.8594L447.547 57.5312C447.422 57.9583 447.208 58.4167 446.906 58.9062C446.604 59.3958 446.208 59.8646 445.719 60.3125C445.24 60.75 444.661 61.1094 443.984 61.3906C443.318 61.6719 442.547 61.8125 441.672 61.8125C440.568 61.8125 439.583 61.5938 438.719 61.1562C437.854 60.7083 437.177 60.1094 436.688 59.3594C436.198 58.599 435.953 57.7396 435.953 56.7812C435.953 55.8854 436.12 55.0938 436.453 54.4062C436.797 53.7083 437.297 53.125 437.953 52.6562C438.62 52.1875 439.432 51.8333 440.391 51.5938C441.349 51.3438 442.443 51.2188 443.672 51.2188H446.625ZM463.328 58.1094V50.0469C463.328 49.4427 463.219 48.9219 463 48.4844C462.781 48.0469 462.448 47.7083 462 47.4688C461.562 47.2292 461.01 47.1094 460.344 47.1094C459.729 47.1094 459.198 47.2135 458.75 47.4219C458.302 47.6302 457.953 47.9115 457.703 48.2656C457.453 48.6198 457.328 49.0208 457.328 49.4688H453.578C453.578 48.8021 453.74 48.1562 454.062 47.5312C454.385 46.9062 454.854 46.349 455.469 45.8594C456.083 45.3698 456.818 44.9844 457.672 44.7031C458.526 44.4219 459.484 44.2812 460.547 44.2812C461.818 44.2812 462.943 44.4948 463.922 44.9219C464.911 45.349 465.688 45.9948 466.25 46.8594C466.823 47.7135 467.109 48.7865 467.109 50.0781V57.5938C467.109 58.3646 467.161 59.0573 467.266 59.6719C467.38 60.276 467.542 60.8021 467.75 61.25V61.5H463.891C463.714 61.0938 463.573 60.5781 463.469 59.9531C463.375 59.3177 463.328 58.7031 463.328 58.1094ZM463.875 51.2188L463.906 53.5469H461.203C460.505 53.5469 459.891 53.6146 459.359 53.75C458.828 53.875 458.385 54.0625 458.031 54.3125C457.677 54.5625 457.411 54.8646 457.234 55.2188C457.057 55.5729 456.969 55.974 456.969 56.4219C456.969 56.8698 457.073 57.2812 457.281 57.6562C457.49 58.0208 457.792 58.3073 458.188 58.5156C458.594 58.724 459.083 58.8281 459.656 58.8281C460.427 58.8281 461.099 58.6719 461.672 58.3594C462.255 58.0365 462.714 57.6458 463.047 57.1875C463.38 56.7188 463.557 56.276 463.578 55.8594L464.797 57.5312C464.672 57.9583 464.458 58.4167 464.156 58.9062C463.854 59.3958 463.458 59.8646 462.969 60.3125C462.49 60.75 461.911 61.1094 461.234 61.3906C460.568 61.6719 459.797 61.8125 458.922 61.8125C457.818 61.8125 456.833 61.5938 455.969 61.1562C455.104 60.7083 454.427 60.1094 453.938 59.3594C453.448 58.599 453.203 57.7396 453.203 56.7812C453.203 55.8854 453.37 55.0938 453.703 54.4062C454.047 53.7083 454.547 53.125 455.203 52.6562C455.87 52.1875 456.682 51.8333 457.641 51.5938C458.599 51.3438 459.693 51.2188 460.922 51.2188H463.875ZM475.078 37.5V61.5H471.297V37.5H475.078ZM496.703 58.1094V50.0469C496.703 49.4427 496.594 48.9219 496.375 48.4844C496.156 48.0469 495.823 47.7083 495.375 47.4688C494.938 47.2292 494.385 47.1094 493.719 47.1094C493.104 47.1094 492.573 47.2135 492.125 47.4219C491.677 47.6302 491.328 47.9115 491.078 48.2656C490.828 48.6198 490.703 49.0208 490.703 49.4688H486.953C486.953 48.8021 487.115 48.1562 487.438 47.5312C487.76 46.9062 488.229 46.349 488.844 45.8594C489.458 45.3698 490.193 44.9844 491.047 44.7031C491.901 44.4219 492.859 44.2812 493.922 44.2812C495.193 44.2812 496.318 44.4948 497.297 44.9219C498.286 45.349 499.062 45.9948 499.625 46.8594C500.198 47.7135 500.484 48.7865 500.484 50.0781V57.5938C500.484 58.3646 500.536 59.0573 500.641 59.6719C500.755 60.276 500.917 60.8021 501.125 61.25V61.5H497.266C497.089 61.0938 496.948 60.5781 496.844 59.9531C496.75 59.3177 496.703 58.7031 496.703 58.1094ZM497.25 51.2188L497.281 53.5469H494.578C493.88 53.5469 493.266 53.6146 492.734 53.75C492.203 53.875 491.76 54.0625 491.406 54.3125C491.052 54.5625 490.786 54.8646 490.609 55.2188C490.432 55.5729 490.344 55.974 490.344 56.4219C490.344 56.8698 490.448 57.2812 490.656 57.6562C490.865 58.0208 491.167 58.3073 491.562 58.5156C491.969 58.724 492.458 58.8281 493.031 58.8281C493.802 58.8281 494.474 58.6719 495.047 58.3594C495.63 58.0365 496.089 57.6458 496.422 57.1875C496.755 56.7188 496.932 56.276 496.953 55.8594L498.172 57.5312C498.047 57.9583 497.833 58.4167 497.531 58.9062C497.229 59.3958 496.833 59.8646 496.344 60.3125C495.865 60.75 495.286 61.1094 494.609 61.3906C493.943 61.6719 493.172 61.8125 492.297 61.8125C491.193 61.8125 490.208 61.5938 489.344 61.1562C488.479 60.7083 487.802 60.1094 487.312 59.3594C486.823 58.599 486.578 57.7396 486.578 56.7812C486.578 55.8854 486.745 55.0938 487.078 54.4062C487.422 53.7083 487.922 53.125 488.578 52.6562C489.245 52.1875 490.057 51.8333 491.016 51.5938C491.974 51.3438 493.068 51.2188 494.297 51.2188H497.25ZM508.453 37.5V61.5H504.672V37.5H508.453ZM522.109 58.1094V50.0469C522.109 49.4427 522 48.9219 521.781 48.4844C521.562 48.0469 521.229 47.7083 520.781 47.4688C520.344 47.2292 519.792 47.1094 519.125 47.1094C518.51 47.1094 517.979 47.2135 517.531 47.4219C517.083 47.6302 516.734 47.9115 516.484 48.2656C516.234 48.6198 516.109 49.0208 516.109 49.4688H512.359C512.359 48.8021 512.521 48.1562 512.844 47.5312C513.167 46.9062 513.635 46.349 514.25 45.8594C514.865 45.3698 515.599 44.9844 516.453 44.7031C517.307 44.4219 518.266 44.2812 519.328 44.2812C520.599 44.2812 521.724 44.4948 522.703 44.9219C523.693 45.349 524.469 45.9948 525.031 46.8594C525.604 47.7135 525.891 48.7865 525.891 50.0781V57.5938C525.891 58.3646 525.943 59.0573 526.047 59.6719C526.161 60.276 526.323 60.8021 526.531 61.25V61.5H522.672C522.495 61.0938 522.354 60.5781 522.25 59.9531C522.156 59.3177 522.109 58.7031 522.109 58.1094ZM522.656 51.2188L522.688 53.5469H519.984C519.286 53.5469 518.672 53.6146 518.141 53.75C517.609 53.875 517.167 54.0625 516.812 54.3125C516.458 54.5625 516.193 54.8646 516.016 55.2188C515.839 55.5729 515.75 55.974 515.75 56.4219C515.75 56.8698 515.854 57.2812 516.062 57.6562C516.271 58.0208 516.573 58.3073 516.969 58.5156C517.375 58.724 517.865 58.8281 518.438 58.8281C519.208 58.8281 519.88 58.6719 520.453 58.3594C521.036 58.0365 521.495 57.6458 521.828 57.1875C522.161 56.7188 522.339 56.276 522.359 55.8594L523.578 57.5312C523.453 57.9583 523.24 58.4167 522.938 58.9062C522.635 59.3958 522.24 59.8646 521.75 60.3125C521.271 60.75 520.693 61.1094 520.016 61.3906C519.349 61.6719 518.578 61.8125 517.703 61.8125C516.599 61.8125 515.615 61.5938 514.75 61.1562C513.885 60.7083 513.208 60.1094 512.719 59.3594C512.229 58.599 511.984 57.7396 511.984 56.7812C511.984 55.8854 512.151 55.0938 512.484 54.4062C512.828 53.7083 513.328 53.125 513.984 52.6562C514.651 52.1875 515.464 51.8333 516.422 51.5938C517.38 51.3438 518.474 51.2188 519.703 51.2188H522.656ZM537.578 44.5938V47.3438H528.047V44.5938H537.578ZM530.797 40.4531H534.562V56.8281C534.562 57.349 534.635 57.75 534.781 58.0312C534.938 58.3021 535.151 58.4844 535.422 58.5781C535.693 58.6719 536.01 58.7188 536.375 58.7188C536.635 58.7188 536.885 58.7031 537.125 58.6719C537.365 58.6406 537.557 58.6094 537.703 58.5781L537.719 61.4531C537.406 61.5469 537.042 61.6302 536.625 61.7031C536.219 61.776 535.75 61.8125 535.219 61.8125C534.354 61.8125 533.589 61.6615 532.922 61.3594C532.255 61.0469 531.734 60.5417 531.359 59.8438C530.984 59.1458 530.797 58.2188 530.797 57.0625V40.4531ZM544.516 44.5938V61.5H540.734V44.5938H544.516ZM540.484 40.1562C540.484 39.5833 540.672 39.1094 541.047 38.7344C541.432 38.349 541.964 38.1562 542.641 38.1562C543.307 38.1562 543.833 38.349 544.219 38.7344C544.604 39.1094 544.797 39.5833 544.797 40.1562C544.797 40.7188 544.604 41.1875 544.219 41.5625C543.833 41.9375 543.307 42.125 542.641 42.125C541.964 42.125 541.432 41.9375 541.047 41.5625C540.672 41.1875 540.484 40.7188 540.484 40.1562ZM555.891 53.2344V52.875C555.891 51.6562 556.068 50.526 556.422 49.4844C556.776 48.4323 557.286 47.5208 557.953 46.75C558.63 45.9688 559.453 45.3646 560.422 44.9375C561.401 44.5 562.505 44.2812 563.734 44.2812C564.974 44.2812 566.078 44.5 567.047 44.9375C568.026 45.3646 568.854 45.9688 569.531 46.75C570.208 47.5208 570.724 48.4323 571.078 49.4844C571.432 50.526 571.609 51.6562 571.609 52.875V53.2344C571.609 54.4531 571.432 55.5833 571.078 56.625C570.724 57.6667 570.208 58.5781 569.531 59.3594C568.854 60.1302 568.031 60.7344 567.062 61.1719C566.094 61.599 564.995 61.8125 563.766 61.8125C562.526 61.8125 561.417 61.599 560.438 61.1719C559.469 60.7344 558.646 60.1302 557.969 59.3594C557.292 58.5781 556.776 57.6667 556.422 56.625C556.068 55.5833 555.891 54.4531 555.891 53.2344ZM559.656 52.875V53.2344C559.656 53.9948 559.734 54.7135 559.891 55.3906C560.047 56.0677 560.292 56.6615 560.625 57.1719C560.958 57.6823 561.385 58.0833 561.906 58.375C562.427 58.6667 563.047 58.8125 563.766 58.8125C564.464 58.8125 565.068 58.6667 565.578 58.375C566.099 58.0833 566.526 57.6823 566.859 57.1719C567.193 56.6615 567.438 56.0677 567.594 55.3906C567.76 54.7135 567.844 53.9948 567.844 53.2344V52.875C567.844 52.125 567.76 51.4167 567.594 50.75C567.438 50.0729 567.188 49.474 566.844 48.9531C566.51 48.4323 566.083 48.026 565.562 47.7344C565.052 47.4323 564.443 47.2812 563.734 47.2812C563.026 47.2812 562.411 47.4323 561.891 47.7344C561.38 48.026 560.958 48.4323 560.625 48.9531C560.292 49.474 560.047 50.0729 559.891 50.75C559.734 51.4167 559.656 52.125 559.656 52.875ZM578.797 37.5V61.5H575.016V37.5H578.797ZM590.375 61.8125C589.125 61.8125 587.995 61.6094 586.984 61.2031C585.984 60.7865 585.13 60.2083 584.422 59.4688C583.724 58.7292 583.188 57.8594 582.812 56.8594C582.438 55.8594 582.25 54.7812 582.25 53.625V53C582.25 51.6771 582.443 50.4792 582.828 49.4062C583.214 48.3333 583.75 47.4167 584.438 46.6562C585.125 45.8854 585.938 45.2969 586.875 44.8906C587.812 44.4844 588.828 44.2812 589.922 44.2812C591.13 44.2812 592.188 44.4844 593.094 44.8906C594 45.2969 594.75 45.8698 595.344 46.6094C595.948 47.3385 596.396 48.2083 596.688 49.2188C596.99 50.2292 597.141 51.3438 597.141 52.5625V54.1719H584.078V51.4688H593.422V51.1719C593.401 50.4948 593.266 49.8594 593.016 49.2656C592.776 48.6719 592.406 48.1927 591.906 47.8281C591.406 47.4635 590.74 47.2812 589.906 47.2812C589.281 47.2812 588.724 47.4167 588.234 47.6875C587.755 47.9479 587.354 48.3281 587.031 48.8281C586.708 49.3281 586.458 49.9323 586.281 50.6406C586.115 51.3385 586.031 52.125 586.031 53V53.625C586.031 54.3646 586.13 55.0521 586.328 55.6875C586.536 56.3125 586.839 56.8594 587.234 57.3281C587.63 57.7969 588.109 58.1667 588.672 58.4375C589.234 58.6979 589.875 58.8281 590.594 58.8281C591.5 58.8281 592.307 58.6458 593.016 58.2812C593.724 57.9167 594.339 57.401 594.859 56.7344L596.844 58.6562C596.479 59.1875 596.005 59.6979 595.422 60.1875C594.839 60.6667 594.125 61.0573 593.281 61.3594C592.448 61.6615 591.479 61.8125 590.375 61.8125ZM603.844 48.0312V61.5H600.078V44.5938H603.625L603.844 48.0312ZM603.234 52.4219L601.953 52.4062C601.953 51.2396 602.099 50.1615 602.391 49.1719C602.682 48.1823 603.109 47.3229 603.672 46.5938C604.234 45.8542 604.932 45.2865 605.766 44.8906C606.609 44.4844 607.583 44.2812 608.688 44.2812C609.458 44.2812 610.161 44.3958 610.797 44.625C611.443 44.8438 612 45.1927 612.469 45.6719C612.948 46.151 613.312 46.7656 613.562 47.5156C613.823 48.2656 613.953 49.1719 613.953 50.2344V61.5H610.188V50.5625C610.188 49.7396 610.062 49.0938 609.812 48.625C609.573 48.1562 609.224 47.8229 608.766 47.625C608.318 47.4167 607.781 47.3125 607.156 47.3125C606.448 47.3125 605.844 47.4479 605.344 47.7188C604.854 47.9896 604.453 48.3594 604.141 48.8281C603.828 49.2969 603.599 49.8385 603.453 50.4531C603.307 51.0677 603.234 51.724 603.234 52.4219ZM613.719 51.4219L611.953 51.8125C611.953 50.7917 612.094 49.8281 612.375 48.9219C612.667 48.0052 613.089 47.2031 613.641 46.5156C614.203 45.8177 614.896 45.2708 615.719 44.875C616.542 44.4792 617.484 44.2812 618.547 44.2812C619.411 44.2812 620.182 44.401 620.859 44.6406C621.547 44.8698 622.13 45.2344 622.609 45.7344C623.089 46.2344 623.453 46.8854 623.703 47.6875C623.953 48.4792 624.078 49.4375 624.078 50.5625V61.5H620.297V50.5469C620.297 49.6927 620.172 49.0312 619.922 48.5625C619.682 48.0938 619.339 47.7708 618.891 47.5938C618.443 47.4062 617.906 47.3125 617.281 47.3125C616.698 47.3125 616.182 47.4219 615.734 47.6406C615.297 47.849 614.927 48.1458 614.625 48.5312C614.323 48.9062 614.094 49.3385 613.938 49.8281C613.792 50.3177 613.719 50.849 613.719 51.4219ZM637.484 58.1094V50.0469C637.484 49.4427 637.375 48.9219 637.156 48.4844C636.938 48.0469 636.604 47.7083 636.156 47.4688C635.719 47.2292 635.167 47.1094 634.5 47.1094C633.885 47.1094 633.354 47.2135 632.906 47.4219C632.458 47.6302 632.109 47.9115 631.859 48.2656C631.609 48.6198 631.484 49.0208 631.484 49.4688H627.734C627.734 48.8021 627.896 48.1562 628.219 47.5312C628.542 46.9062 629.01 46.349 629.625 45.8594C630.24 45.3698 630.974 44.9844 631.828 44.7031C632.682 44.4219 633.641 44.2812 634.703 44.2812C635.974 44.2812 637.099 44.4948 638.078 44.9219C639.068 45.349 639.844 45.9948 640.406 46.8594C640.979 47.7135 641.266 48.7865 641.266 50.0781V57.5938C641.266 58.3646 641.318 59.0573 641.422 59.6719C641.536 60.276 641.698 60.8021 641.906 61.25V61.5H638.047C637.87 61.0938 637.729 60.5781 637.625 59.9531C637.531 59.3177 637.484 58.7031 637.484 58.1094ZM638.031 51.2188L638.062 53.5469H635.359C634.661 53.5469 634.047 53.6146 633.516 53.75C632.984 53.875 632.542 54.0625 632.188 54.3125C631.833 54.5625 631.568 54.8646 631.391 55.2188C631.214 55.5729 631.125 55.974 631.125 56.4219C631.125 56.8698 631.229 57.2812 631.438 57.6562C631.646 58.0208 631.948 58.3073 632.344 58.5156C632.75 58.724 633.24 58.8281 633.812 58.8281C634.583 58.8281 635.255 58.6719 635.828 58.3594C636.411 58.0365 636.87 57.6458 637.203 57.1875C637.536 56.7188 637.714 56.276 637.734 55.8594L638.953 57.5312C638.828 57.9583 638.615 58.4167 638.312 58.9062C638.01 59.3958 637.615 59.8646 637.125 60.3125C636.646 60.75 636.068 61.1094 635.391 61.3906C634.724 61.6719 633.953 61.8125 633.078 61.8125C631.974 61.8125 630.99 61.5938 630.125 61.1562C629.26 60.7083 628.583 60.1094 628.094 59.3594C627.604 58.599 627.359 57.7396 627.359 56.7812C627.359 55.8854 627.526 55.0938 627.859 54.4062C628.203 53.7083 628.703 53.125 629.359 52.6562C630.026 52.1875 630.839 51.8333 631.797 51.5938C632.755 51.3438 633.849 51.2188 635.078 51.2188H638.031ZM654.688 56.9219C654.688 56.5469 654.594 56.2083 654.406 55.9062C654.219 55.5938 653.859 55.3125 653.328 55.0625C652.807 54.8125 652.036 54.5833 651.016 54.375C650.12 54.1771 649.297 53.9427 648.547 53.6719C647.807 53.3906 647.172 53.0521 646.641 52.6562C646.109 52.2604 645.698 51.7917 645.406 51.25C645.115 50.7083 644.969 50.0833 644.969 49.375C644.969 48.6875 645.12 48.0365 645.422 47.4219C645.724 46.8073 646.156 46.2656 646.719 45.7969C647.281 45.3281 647.964 44.9583 648.766 44.6875C649.578 44.4167 650.484 44.2812 651.484 44.2812C652.901 44.2812 654.115 44.5208 655.125 45C656.146 45.4688 656.927 46.1094 657.469 46.9219C658.01 47.724 658.281 48.6302 658.281 49.6406H654.516C654.516 49.1927 654.401 48.776 654.172 48.3906C653.953 47.9948 653.62 47.6771 653.172 47.4375C652.724 47.1875 652.161 47.0625 651.484 47.0625C650.839 47.0625 650.302 47.1667 649.875 47.375C649.458 47.5729 649.146 47.8333 648.938 48.1562C648.74 48.4792 648.641 48.8333 648.641 49.2188C648.641 49.5 648.693 49.7552 648.797 49.9844C648.911 50.2031 649.099 50.4062 649.359 50.5938C649.62 50.7708 649.974 50.9375 650.422 51.0938C650.88 51.25 651.453 51.401 652.141 51.5469C653.432 51.8177 654.542 52.1667 655.469 52.5938C656.406 53.0104 657.125 53.5521 657.625 54.2188C658.125 54.875 658.375 55.7083 658.375 56.7188C658.375 57.4688 658.214 58.1562 657.891 58.7812C657.578 59.3958 657.12 59.9323 656.516 60.3906C655.911 60.8385 655.188 61.1875 654.344 61.4375C653.51 61.6875 652.573 61.8125 651.531 61.8125C650 61.8125 648.703 61.5417 647.641 61C646.578 60.4479 645.771 59.7448 645.219 58.8906C644.677 58.026 644.406 57.1302 644.406 56.2031H648.047C648.089 56.901 648.281 57.4583 648.625 57.875C648.979 58.2812 649.417 58.5781 649.938 58.7656C650.469 58.9427 651.016 59.0312 651.578 59.0312C652.255 59.0312 652.823 58.9427 653.281 58.7656C653.74 58.5781 654.089 58.3281 654.328 58.0156C654.568 57.6927 654.688 57.3281 654.688 56.9219ZM661.828 59.625C661.828 59.0417 662.026 58.5521 662.422 58.1562C662.818 57.75 663.354 57.5469 664.031 57.5469C664.719 57.5469 665.255 57.75 665.641 58.1562C666.036 58.5521 666.234 59.0417 666.234 59.625C666.234 60.2083 666.036 60.6979 665.641 61.0938C665.255 61.4896 664.719 61.6875 664.031 61.6875C663.354 61.6875 662.818 61.4896 662.422 61.0938C662.026 60.6979 661.828 60.2083 661.828 59.625Z" fill="#461102"/>
</svg>
