<svg width="700" height="100" viewBox="0 0 700 100" fill="none" xmlns="http://www.w3.org/2000/svg">
<path d="M55.9062 21.25V44H51.9844V21.25H55.9062ZM69.8906 39.4219C69.8906 39.0469 69.7969 38.7083 69.6094 38.4062C69.4219 38.0938 69.0625 37.8125 68.5312 37.5625C68.0104 37.3125 67.2396 37.0833 66.2188 36.875C65.3229 36.6771 64.5 36.4427 63.75 36.1719C63.0104 35.8906 62.375 35.5521 61.8438 35.1562C61.3125 34.7604 60.901 34.2917 60.6094 33.75C60.3177 33.2083 60.1719 32.5833 60.1719 31.875C60.1719 31.1875 60.3229 30.5365 60.625 29.9219C60.9271 29.3073 61.3594 28.7656 61.9219 28.2969C62.4844 27.8281 63.1667 27.4583 63.9688 27.1875C64.7812 26.9167 65.6875 26.7812 66.6875 26.7812C68.1042 26.7812 69.3177 27.0208 70.3281 27.5C71.349 27.9688 72.1302 28.6094 72.6719 29.4219C73.2135 30.224 73.4844 31.1302 73.4844 32.1406H69.7188C69.7188 31.6927 69.6042 31.276 69.375 30.8906C69.1562 30.4948 68.8229 30.1771 68.375 29.9375C67.9271 29.6875 67.3646 29.5625 66.6875 29.5625C66.0417 29.5625 65.5052 29.6667 65.0781 29.875C64.6615 30.0729 64.349 30.3333 64.1406 30.6562C63.9427 30.9792 63.8438 31.3333 63.8438 31.7188C63.8438 32 63.8958 32.2552 64 32.4844C64.1146 32.7031 64.3021 32.9062 64.5625 33.0938C64.8229 33.2708 65.1771 33.4375 65.625 33.5938C66.0833 33.75 66.6562 33.901 67.3438 34.0469C68.6354 34.3177 69.7448 34.6667 70.6719 35.0938C71.6094 35.5104 72.3281 36.0521 72.8281 36.7188C73.3281 37.375 73.5781 38.2083 73.5781 39.2188C73.5781 39.9688 73.4167 40.6562 73.0938 41.2812C72.7812 41.8958 72.3229 42.4323 71.7188 42.8906C71.1146 43.3385 70.3906 43.6875 69.5469 43.9375C68.7135 44.1875 67.776 44.3125 66.7344 44.3125C65.2031 44.3125 63.9062 44.0417 62.8438 43.5C61.7812 42.9479 60.974 42.2448 60.4219 41.3906C59.8802 40.526 59.6094 39.6302 59.6094 38.7031H63.25C63.2917 39.401 63.4844 39.9583 63.8281 40.375C64.1823 40.7812 64.6198 41.0781 65.1406 41.2656C65.6719 41.4427 66.2188 41.5312 66.7812 41.5312C67.4583 41.5312 68.026 41.4427 68.4844 41.2656C68.9427 41.0781 69.2917 40.8281 69.5312 40.5156C69.7708 40.1927 69.8906 39.8281 69.8906 39.4219ZM84.3281 44.3125C83.0781 44.3125 81.9479 44.1094 80.9375 43.7031C79.9375 43.2865 79.0833 42.7083 78.375 41.9688C77.6771 41.2292 77.1406 40.3594 76.7656 39.3594C76.3906 38.3594 76.2031 37.2812 76.2031 36.125V35.5C76.2031 34.1771 76.3958 32.9792 76.7812 31.9062C77.1667 30.8333 77.7031 29.9167 78.3906 29.1562C79.0781 28.3854 79.8906 27.7969 80.8281 27.3906C81.7656 26.9844 82.7812 26.7812 83.875 26.7812C85.0833 26.7812 86.1406 26.9844 87.0469 27.3906C87.9531 27.7969 88.7031 28.3698 89.2969 29.1094C89.901 29.8385 90.349 30.7083 90.6406 31.7188C90.9427 32.7292 91.0938 33.8438 91.0938 35.0625V36.6719H78.0312V33.9688H87.375V33.6719C87.3542 32.9948 87.2188 32.3594 86.9688 31.7656C86.7292 31.1719 86.3594 30.6927 85.8594 30.3281C85.3594 29.9635 84.6927 29.7812 83.8594 29.7812C83.2344 29.7812 82.6771 29.9167 82.1875 30.1875C81.7083 30.4479 81.3073 30.8281 80.9844 31.3281C80.6615 31.8281 80.4115 32.4323 80.2344 33.1406C80.0677 33.8385 79.9844 34.625 79.9844 35.5V36.125C79.9844 36.8646 80.0833 37.5521 80.2812 38.1875C80.4896 38.8125 80.7917 39.3594 81.1875 39.8281C81.5833 40.2969 82.0625 40.6667 82.625 40.9375C83.1875 41.1979 83.8281 41.3281 84.5469 41.3281C85.4531 41.3281 86.2604 41.1458 86.9688 40.7812C87.6771 40.4167 88.2917 39.901 88.8125 39.2344L90.7969 41.1562C90.4323 41.6875 89.9583 42.1979 89.375 42.6875C88.7917 43.1667 88.0781 43.5573 87.2344 43.8594C86.401 44.1615 85.4323 44.3125 84.3281 44.3125ZM104.859 27.0938H108.281V43.5312C108.281 45.0521 107.958 46.3438 107.312 47.4062C106.667 48.4688 105.766 49.276 104.609 49.8281C103.453 50.3906 102.115 50.6719 100.594 50.6719C99.9479 50.6719 99.2292 50.5781 98.4375 50.3906C97.6562 50.2031 96.8958 49.901 96.1562 49.4844C95.4271 49.0781 94.8177 48.5417 94.3281 47.875L96.0938 45.6562C96.6979 46.375 97.3646 46.901 98.0938 47.2344C98.8229 47.5677 99.5885 47.7344 100.391 47.7344C101.255 47.7344 101.99 47.5729 102.594 47.25C103.208 46.9375 103.682 46.474 104.016 45.8594C104.349 45.2448 104.516 44.4948 104.516 43.6094V30.9219L104.859 27.0938ZM93.375 35.7344V35.4062C93.375 34.125 93.5312 32.9583 93.8438 31.9062C94.1562 30.8438 94.6042 29.9323 95.1875 29.1719C95.7708 28.401 96.4792 27.8125 97.3125 27.4062C98.1458 26.9896 99.0885 26.7812 100.141 26.7812C101.234 26.7812 102.167 26.9792 102.938 27.375C103.719 27.7708 104.37 28.3385 104.891 29.0781C105.411 29.8073 105.818 30.6823 106.109 31.7031C106.411 32.7135 106.635 33.8385 106.781 35.0781V36.125C106.646 37.3333 106.417 38.4375 106.094 39.4375C105.771 40.4375 105.344 41.3021 104.812 42.0312C104.281 42.7604 103.625 43.3229 102.844 43.7188C102.073 44.1146 101.161 44.3125 100.109 44.3125C99.0781 44.3125 98.1458 44.099 97.3125 43.6719C96.4896 43.2448 95.7812 42.6458 95.1875 41.875C94.6042 41.1042 94.1562 40.1979 93.8438 39.1562C93.5312 38.1042 93.375 36.9635 93.375 35.7344ZM97.1406 35.4062V35.7344C97.1406 36.5052 97.2135 37.224 97.3594 37.8906C97.5156 38.5573 97.75 39.1458 98.0625 39.6562C98.3854 40.1562 98.7917 40.5521 99.2812 40.8438C99.7812 41.125 100.37 41.2656 101.047 41.2656C101.932 41.2656 102.656 41.0781 103.219 40.7031C103.792 40.3281 104.229 39.8229 104.531 39.1875C104.844 38.5417 105.062 37.8229 105.188 37.0312V34.2031C105.125 33.5885 104.995 33.0156 104.797 32.4844C104.609 31.9531 104.354 31.4896 104.031 31.0938C103.708 30.6875 103.302 30.375 102.812 30.1562C102.323 29.9271 101.745 29.8125 101.078 29.8125C100.401 29.8125 99.8125 29.9583 99.3125 30.25C98.8125 30.5417 98.401 30.9427 98.0781 31.4531C97.7656 31.9635 97.5312 32.5573 97.375 33.2344C97.2188 33.9115 97.1406 34.6354 97.1406 35.4062ZM116.219 27.0938V44H112.438V27.0938H116.219ZM112.188 22.6562C112.188 22.0833 112.375 21.6094 112.75 21.2344C113.135 20.849 113.667 20.6562 114.344 20.6562C115.01 20.6562 115.536 20.849 115.922 21.2344C116.307 21.6094 116.5 22.0833 116.5 22.6562C116.5 23.2188 116.307 23.6875 115.922 24.0625C115.536 24.4375 115.01 24.625 114.344 24.625C113.667 24.625 113.135 24.4375 112.75 24.0625C112.375 23.6875 112.188 23.2188 112.188 22.6562ZM132.109 20V44H128.328V20H132.109ZM142.609 27.0938L135.25 35.25L131.219 39.375L130.234 36.1875L133.281 32.4219L138.062 27.0938H142.609ZM138.875 44L133.391 36.0625L135.766 33.4219L143.234 44H138.875ZM155.172 40.0156V27.0938H158.953V44H155.391L155.172 40.0156ZM155.703 36.5L156.969 36.4688C156.969 37.6042 156.844 38.651 156.594 39.6094C156.344 40.5573 155.958 41.3854 155.438 42.0938C154.917 42.7917 154.25 43.3385 153.438 43.7344C152.625 44.1198 151.651 44.3125 150.516 44.3125C149.693 44.3125 148.938 44.1927 148.25 43.9531C147.562 43.7135 146.969 43.3438 146.469 42.8438C145.979 42.3438 145.599 41.6927 145.328 40.8906C145.057 40.0885 144.922 39.1302 144.922 38.0156V27.0938H148.688V38.0469C148.688 38.6615 148.76 39.1771 148.906 39.5938C149.052 40 149.25 40.3281 149.5 40.5781C149.75 40.8281 150.042 41.0052 150.375 41.1094C150.708 41.2135 151.062 41.2656 151.438 41.2656C152.51 41.2656 153.354 41.0573 153.969 40.6406C154.594 40.2135 155.036 39.6406 155.297 38.9219C155.568 38.2031 155.703 37.3958 155.703 36.5ZM166.844 27.0938V44H163.062V27.0938H166.844ZM162.812 22.6562C162.812 22.0833 163 21.6094 163.375 21.2344C163.76 20.849 164.292 20.6562 164.969 20.6562C165.635 20.6562 166.161 20.849 166.547 21.2344C166.932 21.6094 167.125 22.0833 167.125 22.6562C167.125 23.2188 166.932 23.6875 166.547 24.0625C166.161 24.4375 165.635 24.625 164.969 24.625C164.292 24.625 163.76 24.4375 163.375 24.0625C163 23.6875 162.812 23.2188 162.812 22.6562ZM188.422 39.4219C188.422 39.0469 188.328 38.7083 188.141 38.4062C187.953 38.0938 187.594 37.8125 187.062 37.5625C186.542 37.3125 185.771 37.0833 184.75 36.875C183.854 36.6771 183.031 36.4427 182.281 36.1719C181.542 35.8906 180.906 35.5521 180.375 35.1562C179.844 34.7604 179.432 34.2917 179.141 33.75C178.849 33.2083 178.703 32.5833 178.703 31.875C178.703 31.1875 178.854 30.5365 179.156 29.9219C179.458 29.3073 179.891 28.7656 180.453 28.2969C181.016 27.8281 181.698 27.4583 182.5 27.1875C183.312 26.9167 184.219 26.7812 185.219 26.7812C186.635 26.7812 187.849 27.0208 188.859 27.5C189.88 27.9688 190.661 28.6094 191.203 29.4219C191.745 30.224 192.016 31.1302 192.016 32.1406H188.25C188.25 31.6927 188.135 31.276 187.906 30.8906C187.688 30.4948 187.354 30.1771 186.906 29.9375C186.458 29.6875 185.896 29.5625 185.219 29.5625C184.573 29.5625 184.036 29.6667 183.609 29.875C183.193 30.0729 182.88 30.3333 182.672 30.6562C182.474 30.9792 182.375 31.3333 182.375 31.7188C182.375 32 182.427 32.2552 182.531 32.4844C182.646 32.7031 182.833 32.9062 183.094 33.0938C183.354 33.2708 183.708 33.4375 184.156 33.5938C184.615 33.75 185.188 33.901 185.875 34.0469C187.167 34.3177 188.276 34.6667 189.203 35.0938C190.141 35.5104 190.859 36.0521 191.359 36.7188C191.859 37.375 192.109 38.2083 192.109 39.2188C192.109 39.9688 191.948 40.6562 191.625 41.2812C191.312 41.8958 190.854 42.4323 190.25 42.8906C189.646 43.3385 188.922 43.6875 188.078 43.9375C187.245 44.1875 186.307 44.3125 185.266 44.3125C183.734 44.3125 182.438 44.0417 181.375 43.5C180.312 42.9479 179.505 42.2448 178.953 41.3906C178.411 40.526 178.141 39.6302 178.141 38.7031H181.781C181.823 39.401 182.016 39.9583 182.359 40.375C182.714 40.7812 183.151 41.0781 183.672 41.2656C184.203 41.4427 184.75 41.5312 185.312 41.5312C185.99 41.5312 186.557 41.4427 187.016 41.2656C187.474 41.0781 187.823 40.8281 188.062 40.5156C188.302 40.1927 188.422 39.8281 188.422 39.4219ZM202.859 44.3125C201.609 44.3125 200.479 44.1094 199.469 43.7031C198.469 43.2865 197.615 42.7083 196.906 41.9688C196.208 41.2292 195.672 40.3594 195.297 39.3594C194.922 38.3594 194.734 37.2812 194.734 36.125V35.5C194.734 34.1771 194.927 32.9792 195.312 31.9062C195.698 30.8333 196.234 29.9167 196.922 29.1562C197.609 28.3854 198.422 27.7969 199.359 27.3906C200.297 26.9844 201.312 26.7812 202.406 26.7812C203.615 26.7812 204.672 26.9844 205.578 27.3906C206.484 27.7969 207.234 28.3698 207.828 29.1094C208.432 29.8385 208.88 30.7083 209.172 31.7188C209.474 32.7292 209.625 33.8438 209.625 35.0625V36.6719H196.562V33.9688H205.906V33.6719C205.885 32.9948 205.75 32.3594 205.5 31.7656C205.26 31.1719 204.891 30.6927 204.391 30.3281C203.891 29.9635 203.224 29.7812 202.391 29.7812C201.766 29.7812 201.208 29.9167 200.719 30.1875C200.24 30.4479 199.839 30.8281 199.516 31.3281C199.193 31.8281 198.943 32.4323 198.766 33.1406C198.599 33.8385 198.516 34.625 198.516 35.5V36.125C198.516 36.8646 198.615 37.5521 198.812 38.1875C199.021 38.8125 199.323 39.3594 199.719 39.8281C200.115 40.2969 200.594 40.6667 201.156 40.9375C201.719 41.1979 202.359 41.3281 203.078 41.3281C203.984 41.3281 204.792 41.1458 205.5 40.7812C206.208 40.4167 206.823 39.901 207.344 39.2344L209.328 41.1562C208.964 41.6875 208.49 42.1979 207.906 42.6875C207.323 43.1667 206.609 43.5573 205.766 43.8594C204.932 44.1615 203.964 44.3125 202.859 44.3125ZM220.016 44.3125C218.766 44.3125 217.635 44.1094 216.625 43.7031C215.625 43.2865 214.771 42.7083 214.062 41.9688C213.365 41.2292 212.828 40.3594 212.453 39.3594C212.078 38.3594 211.891 37.2812 211.891 36.125V35.5C211.891 34.1771 212.083 32.9792 212.469 31.9062C212.854 30.8333 213.391 29.9167 214.078 29.1562C214.766 28.3854 215.578 27.7969 216.516 27.3906C217.453 26.9844 218.469 26.7812 219.562 26.7812C220.771 26.7812 221.828 26.9844 222.734 27.3906C223.641 27.7969 224.391 28.3698 224.984 29.1094C225.589 29.8385 226.036 30.7083 226.328 31.7188C226.63 32.7292 226.781 33.8438 226.781 35.0625V36.6719H213.719V33.9688H223.062V33.6719C223.042 32.9948 222.906 32.3594 222.656 31.7656C222.417 31.1719 222.047 30.6927 221.547 30.3281C221.047 29.9635 220.38 29.7812 219.547 29.7812C218.922 29.7812 218.365 29.9167 217.875 30.1875C217.396 30.4479 216.995 30.8281 216.672 31.3281C216.349 31.8281 216.099 32.4323 215.922 33.1406C215.755 33.8385 215.672 34.625 215.672 35.5V36.125C215.672 36.8646 215.771 37.5521 215.969 38.1875C216.177 38.8125 216.479 39.3594 216.875 39.8281C217.271 40.2969 217.75 40.6667 218.312 40.9375C218.875 41.1979 219.516 41.3281 220.234 41.3281C221.141 41.3281 221.948 41.1458 222.656 40.7812C223.365 40.4167 223.979 39.901 224.5 39.2344L226.484 41.1562C226.12 41.6875 225.646 42.1979 225.062 42.6875C224.479 43.1667 223.766 43.5573 222.922 43.8594C222.089 44.1615 221.12 44.3125 220.016 44.3125ZM237.875 27.0938H241.656V45.4688C241.656 46.625 241.458 47.599 241.062 48.3906C240.667 49.1927 240.083 49.7969 239.312 50.2031C238.542 50.6198 237.599 50.8281 236.484 50.8281C236.151 50.8281 235.807 50.8021 235.453 50.75C235.089 50.7083 234.745 50.6458 234.422 50.5625L234.438 47.625C234.656 47.6667 234.891 47.6979 235.141 47.7188C235.38 47.75 235.609 47.7656 235.828 47.7656C236.276 47.7656 236.651 47.6875 236.953 47.5312C237.255 47.375 237.484 47.1302 237.641 46.7969C237.797 46.4635 237.875 46.0208 237.875 45.4688V27.0938ZM237.547 22.6562C237.547 22.0833 237.74 21.6094 238.125 21.2344C238.51 20.849 239.036 20.6562 239.703 20.6562C240.38 20.6562 240.906 20.849 241.281 21.2344C241.667 21.6094 241.859 22.0833 241.859 22.6562C241.859 23.2188 241.667 23.6875 241.281 24.0625C240.906 24.4375 240.38 24.625 239.703 24.625C239.036 24.625 238.51 24.4375 238.125 24.0625C237.74 23.6875 237.547 23.2188 237.547 22.6562ZM255.25 40.6094V32.5469C255.25 31.9427 255.141 31.4219 254.922 30.9844C254.703 30.5469 254.37 30.2083 253.922 29.9688C253.484 29.7292 252.932 29.6094 252.266 29.6094C251.651 29.6094 251.12 29.7135 250.672 29.9219C250.224 30.1302 249.875 30.4115 249.625 30.7656C249.375 31.1198 249.25 31.5208 249.25 31.9688H245.5C245.5 31.3021 245.661 30.6562 245.984 30.0312C246.307 29.4062 246.776 28.849 247.391 28.3594C248.005 27.8698 248.74 27.4844 249.594 27.2031C250.448 26.9219 251.406 26.7812 252.469 26.7812C253.74 26.7812 254.865 26.9948 255.844 27.4219C256.833 27.849 257.609 28.4948 258.172 29.3594C258.745 30.2135 259.031 31.2865 259.031 32.5781V40.0938C259.031 40.8646 259.083 41.5573 259.188 42.1719C259.302 42.776 259.464 43.3021 259.672 43.75V44H255.812C255.635 43.5938 255.495 43.0781 255.391 42.4531C255.297 41.8177 255.25 41.2031 255.25 40.6094ZM255.797 33.7188L255.828 36.0469H253.125C252.427 36.0469 251.812 36.1146 251.281 36.25C250.75 36.375 250.307 36.5625 249.953 36.8125C249.599 37.0625 249.333 37.3646 249.156 37.7188C248.979 38.0729 248.891 38.474 248.891 38.9219C248.891 39.3698 248.995 39.7812 249.203 40.1562C249.411 40.5208 249.714 40.8073 250.109 41.0156C250.516 41.224 251.005 41.3281 251.578 41.3281C252.349 41.3281 253.021 41.1719 253.594 40.8594C254.177 40.5365 254.635 40.1458 254.969 39.6875C255.302 39.2188 255.479 38.776 255.5 38.3594L256.719 40.0312C256.594 40.4583 256.38 40.9167 256.078 41.4062C255.776 41.8958 255.38 42.3646 254.891 42.8125C254.411 43.25 253.833 43.6094 253.156 43.8906C252.49 44.1719 251.719 44.3125 250.844 44.3125C249.74 44.3125 248.755 44.0938 247.891 43.6562C247.026 43.2083 246.349 42.6094 245.859 41.8594C245.37 41.099 245.125 40.2396 245.125 39.2812C245.125 38.3854 245.292 37.5938 245.625 36.9062C245.969 36.2083 246.469 35.625 247.125 35.1562C247.792 34.6875 248.604 34.3333 249.562 34.0938C250.521 33.8438 251.615 33.7188 252.844 33.7188H255.797ZM247.062 22.6094C247.062 22.099 247.24 21.6719 247.594 21.3281C247.948 20.974 248.417 20.7969 249 20.7969C249.594 20.7969 250.068 20.974 250.422 21.3281C250.776 21.6719 250.953 22.099 250.953 22.6094C250.953 23.1094 250.776 23.5365 250.422 23.8906C250.068 24.2344 249.594 24.4062 249 24.4062C248.417 24.4062 247.948 24.2344 247.594 23.8906C247.24 23.5365 247.062 23.1094 247.062 22.6094ZM254.297 22.625C254.297 22.1146 254.474 21.6875 254.828 21.3438C255.182 20.9896 255.656 20.8125 256.25 20.8125C256.833 20.8125 257.302 20.9896 257.656 21.3438C258.021 21.6875 258.203 22.1146 258.203 22.625C258.203 23.125 258.021 23.5521 257.656 23.9062C257.302 24.25 256.833 24.4219 256.25 24.4219C255.656 24.4219 255.182 24.25 254.828 23.9062C254.474 23.5521 254.297 23.125 254.297 22.625ZM272.5 40.6094V32.5469C272.5 31.9427 272.391 31.4219 272.172 30.9844C271.953 30.5469 271.62 30.2083 271.172 29.9688C270.734 29.7292 270.182 29.6094 269.516 29.6094C268.901 29.6094 268.37 29.7135 267.922 29.9219C267.474 30.1302 267.125 30.4115 266.875 30.7656C266.625 31.1198 266.5 31.5208 266.5 31.9688H262.75C262.75 31.3021 262.911 30.6562 263.234 30.0312C263.557 29.4062 264.026 28.849 264.641 28.3594C265.255 27.8698 265.99 27.4844 266.844 27.2031C267.698 26.9219 268.656 26.7812 269.719 26.7812C270.99 26.7812 272.115 26.9948 273.094 27.4219C274.083 27.849 274.859 28.4948 275.422 29.3594C275.995 30.2135 276.281 31.2865 276.281 32.5781V40.0938C276.281 40.8646 276.333 41.5573 276.438 42.1719C276.552 42.776 276.714 43.3021 276.922 43.75V44H273.062C272.885 43.5938 272.745 43.0781 272.641 42.4531C272.547 41.8177 272.5 41.2031 272.5 40.6094ZM273.047 33.7188L273.078 36.0469H270.375C269.677 36.0469 269.062 36.1146 268.531 36.25C268 36.375 267.557 36.5625 267.203 36.8125C266.849 37.0625 266.583 37.3646 266.406 37.7188C266.229 38.0729 266.141 38.474 266.141 38.9219C266.141 39.3698 266.245 39.7812 266.453 40.1562C266.661 40.5208 266.964 40.8073 267.359 41.0156C267.766 41.224 268.255 41.3281 268.828 41.3281C269.599 41.3281 270.271 41.1719 270.844 40.8594C271.427 40.5365 271.885 40.1458 272.219 39.6875C272.552 39.2188 272.729 38.776 272.75 38.3594L273.969 40.0312C273.844 40.4583 273.63 40.9167 273.328 41.4062C273.026 41.8958 272.63 42.3646 272.141 42.8125C271.661 43.25 271.083 43.6094 270.406 43.8906C269.74 44.1719 268.969 44.3125 268.094 44.3125C266.99 44.3125 266.005 44.0938 265.141 43.6562C264.276 43.2083 263.599 42.6094 263.109 41.8594C262.62 41.099 262.375 40.2396 262.375 39.2812C262.375 38.3854 262.542 37.5938 262.875 36.9062C263.219 36.2083 263.719 35.625 264.375 35.1562C265.042 34.6875 265.854 34.3333 266.812 34.0938C267.771 33.8438 268.865 33.7188 270.094 33.7188H273.047ZM264.312 22.6094C264.312 22.099 264.49 21.6719 264.844 21.3281C265.198 20.974 265.667 20.7969 266.25 20.7969C266.844 20.7969 267.318 20.974 267.672 21.3281C268.026 21.6719 268.203 22.099 268.203 22.6094C268.203 23.1094 268.026 23.5365 267.672 23.8906C267.318 24.2344 266.844 24.4062 266.25 24.4062C265.667 24.4062 265.198 24.2344 264.844 23.8906C264.49 23.5365 264.312 23.1094 264.312 22.6094ZM271.547 22.625C271.547 22.1146 271.724 21.6875 272.078 21.3438C272.432 20.9896 272.906 20.8125 273.5 20.8125C274.083 20.8125 274.552 20.9896 274.906 21.3438C275.271 21.6875 275.453 22.1146 275.453 22.625C275.453 23.125 275.271 23.5521 274.906 23.9062C274.552 24.25 274.083 24.4219 273.5 24.4219C272.906 24.4219 272.432 24.25 272.078 23.9062C271.724 23.5521 271.547 23.125 271.547 22.625ZM280.234 20H284V40.3906L283.641 44H280.234V20ZM295.031 35.3906V35.7188C295.031 36.9688 294.891 38.1198 294.609 39.1719C294.339 40.2135 293.922 41.1198 293.359 41.8906C292.807 42.6615 292.12 43.2604 291.297 43.6875C290.484 44.1042 289.542 44.3125 288.469 44.3125C287.417 44.3125 286.5 44.1146 285.719 43.7188C284.938 43.3229 284.281 42.7604 283.75 42.0312C283.229 41.3021 282.807 40.4323 282.484 39.4219C282.161 38.4115 281.932 37.2969 281.797 36.0781V35.0312C281.932 33.8021 282.161 32.6875 282.484 31.6875C282.807 30.6771 283.229 29.8073 283.75 29.0781C284.281 28.3385 284.932 27.7708 285.703 27.375C286.484 26.9792 287.396 26.7812 288.438 26.7812C289.521 26.7812 290.474 26.9896 291.297 27.4062C292.13 27.8229 292.823 28.4167 293.375 29.1875C293.927 29.9479 294.339 30.8542 294.609 31.9062C294.891 32.9583 295.031 34.1198 295.031 35.3906ZM291.266 35.7188V35.3906C291.266 34.6302 291.203 33.9167 291.078 33.25C290.953 32.5729 290.745 31.9792 290.453 31.4688C290.172 30.9583 289.786 30.5573 289.297 30.2656C288.818 29.9635 288.219 29.8125 287.5 29.8125C286.833 29.8125 286.26 29.9271 285.781 30.1562C285.302 30.3854 284.901 30.6979 284.578 31.0938C284.255 31.4896 284 31.9479 283.812 32.4688C283.635 32.9896 283.516 33.5521 283.453 34.1562V36.9844C283.547 37.7656 283.745 38.4844 284.047 39.1406C284.359 39.7865 284.797 40.3073 285.359 40.7031C285.922 41.0885 286.646 41.2812 287.531 41.2812C288.229 41.2812 288.818 41.1406 289.297 40.8594C289.776 40.5781 290.156 40.1875 290.438 39.6875C290.729 39.1771 290.938 38.5833 291.062 37.9062C291.198 37.2292 291.266 36.5 291.266 35.7188ZM309.969 30.3438V50.5H306.203V27.0938H309.672L309.969 30.3438ZM320.984 35.3906V35.7188C320.984 36.9479 320.839 38.0885 320.547 39.1406C320.266 40.1823 319.844 41.0938 319.281 41.875C318.729 42.6458 318.047 43.2448 317.234 43.6719C316.422 44.099 315.484 44.3125 314.422 44.3125C313.37 44.3125 312.448 44.1198 311.656 43.7344C310.875 43.3385 310.214 42.7812 309.672 42.0625C309.13 41.3438 308.693 40.5 308.359 39.5312C308.036 38.5521 307.807 37.4792 307.672 36.3125V35.0469C307.807 33.8073 308.036 32.6823 308.359 31.6719C308.693 30.6615 309.13 29.7917 309.672 29.0625C310.214 28.3333 310.875 27.7708 311.656 27.375C312.438 26.9792 313.349 26.7812 314.391 26.7812C315.453 26.7812 316.396 26.9896 317.219 27.4062C318.042 27.8125 318.734 28.3958 319.297 29.1562C319.859 29.9062 320.281 30.8125 320.562 31.875C320.844 32.9271 320.984 34.099 320.984 35.3906ZM317.219 35.7188V35.3906C317.219 34.6094 317.146 33.8854 317 33.2188C316.854 32.5417 316.625 31.9479 316.312 31.4375C316 30.9271 315.599 30.5312 315.109 30.25C314.63 29.9583 314.052 29.8125 313.375 29.8125C312.708 29.8125 312.135 29.9271 311.656 30.1562C311.177 30.375 310.776 30.6823 310.453 31.0781C310.13 31.474 309.88 31.9375 309.703 32.4688C309.526 32.9896 309.401 33.5573 309.328 34.1719V37.2031C309.453 37.9531 309.667 38.6406 309.969 39.2656C310.271 39.8906 310.698 40.3906 311.25 40.7656C311.812 41.1302 312.531 41.3125 313.406 41.3125C314.083 41.3125 314.661 41.1667 315.141 40.875C315.62 40.5833 316.01 40.1823 316.312 39.6719C316.625 39.151 316.854 38.5521 317 37.875C317.146 37.1979 317.219 36.4792 317.219 35.7188ZM328.219 20V44H324.438V20H328.219ZM341.875 40.6094V32.5469C341.875 31.9427 341.766 31.4219 341.547 30.9844C341.328 30.5469 340.995 30.2083 340.547 29.9688C340.109 29.7292 339.557 29.6094 338.891 29.6094C338.276 29.6094 337.745 29.7135 337.297 29.9219C336.849 30.1302 336.5 30.4115 336.25 30.7656C336 31.1198 335.875 31.5208 335.875 31.9688H332.125C332.125 31.3021 332.286 30.6562 332.609 30.0312C332.932 29.4062 333.401 28.849 334.016 28.3594C334.63 27.8698 335.365 27.4844 336.219 27.2031C337.073 26.9219 338.031 26.7812 339.094 26.7812C340.365 26.7812 341.49 26.9948 342.469 27.4219C343.458 27.849 344.234 28.4948 344.797 29.3594C345.37 30.2135 345.656 31.2865 345.656 32.5781V40.0938C345.656 40.8646 345.708 41.5573 345.812 42.1719C345.927 42.776 346.089 43.3021 346.297 43.75V44H342.438C342.26 43.5938 342.12 43.0781 342.016 42.4531C341.922 41.8177 341.875 41.2031 341.875 40.6094ZM342.422 33.7188L342.453 36.0469H339.75C339.052 36.0469 338.438 36.1146 337.906 36.25C337.375 36.375 336.932 36.5625 336.578 36.8125C336.224 37.0625 335.958 37.3646 335.781 37.7188C335.604 38.0729 335.516 38.474 335.516 38.9219C335.516 39.3698 335.62 39.7812 335.828 40.1562C336.036 40.5208 336.339 40.8073 336.734 41.0156C337.141 41.224 337.63 41.3281 338.203 41.3281C338.974 41.3281 339.646 41.1719 340.219 40.8594C340.802 40.5365 341.26 40.1458 341.594 39.6875C341.927 39.2188 342.104 38.776 342.125 38.3594L343.344 40.0312C343.219 40.4583 343.005 40.9167 342.703 41.4062C342.401 41.8958 342.005 42.3646 341.516 42.8125C341.036 43.25 340.458 43.6094 339.781 43.8906C339.115 44.1719 338.344 44.3125 337.469 44.3125C336.365 44.3125 335.38 44.0938 334.516 43.6562C333.651 43.2083 332.974 42.6094 332.484 41.8594C331.995 41.099 331.75 40.2396 331.75 39.2812C331.75 38.3854 331.917 37.5938 332.25 36.9062C332.594 36.2083 333.094 35.625 333.75 35.1562C334.417 34.6875 335.229 34.3333 336.188 34.0938C337.146 33.8438 338.24 33.7188 339.469 33.7188H342.422ZM359.125 40.6094V32.5469C359.125 31.9427 359.016 31.4219 358.797 30.9844C358.578 30.5469 358.245 30.2083 357.797 29.9688C357.359 29.7292 356.807 29.6094 356.141 29.6094C355.526 29.6094 354.995 29.7135 354.547 29.9219C354.099 30.1302 353.75 30.4115 353.5 30.7656C353.25 31.1198 353.125 31.5208 353.125 31.9688H349.375C349.375 31.3021 349.536 30.6562 349.859 30.0312C350.182 29.4062 350.651 28.849 351.266 28.3594C351.88 27.8698 352.615 27.4844 353.469 27.2031C354.323 26.9219 355.281 26.7812 356.344 26.7812C357.615 26.7812 358.74 26.9948 359.719 27.4219C360.708 27.849 361.484 28.4948 362.047 29.3594C362.62 30.2135 362.906 31.2865 362.906 32.5781V40.0938C362.906 40.8646 362.958 41.5573 363.062 42.1719C363.177 42.776 363.339 43.3021 363.547 43.75V44H359.688C359.51 43.5938 359.37 43.0781 359.266 42.4531C359.172 41.8177 359.125 41.2031 359.125 40.6094ZM359.672 33.7188L359.703 36.0469H357C356.302 36.0469 355.688 36.1146 355.156 36.25C354.625 36.375 354.182 36.5625 353.828 36.8125C353.474 37.0625 353.208 37.3646 353.031 37.7188C352.854 38.0729 352.766 38.474 352.766 38.9219C352.766 39.3698 352.87 39.7812 353.078 40.1562C353.286 40.5208 353.589 40.8073 353.984 41.0156C354.391 41.224 354.88 41.3281 355.453 41.3281C356.224 41.3281 356.896 41.1719 357.469 40.8594C358.052 40.5365 358.51 40.1458 358.844 39.6875C359.177 39.2188 359.354 38.776 359.375 38.3594L360.594 40.0312C360.469 40.4583 360.255 40.9167 359.953 41.4062C359.651 41.8958 359.255 42.3646 358.766 42.8125C358.286 43.25 357.708 43.6094 357.031 43.8906C356.365 44.1719 355.594 44.3125 354.719 44.3125C353.615 44.3125 352.63 44.0938 351.766 43.6562C350.901 43.2083 350.224 42.6094 349.734 41.8594C349.245 41.099 349 40.2396 349 39.2812C349 38.3854 349.167 37.5938 349.5 36.9062C349.844 36.2083 350.344 35.625 351 35.1562C351.667 34.6875 352.479 34.3333 353.438 34.0938C354.396 33.8438 355.49 33.7188 356.719 33.7188H359.672ZM370.578 30.7031V44H366.812V27.0938H370.359L370.578 30.7031ZM369.906 34.9219L368.688 34.9062C368.698 33.7083 368.865 32.6094 369.188 31.6094C369.521 30.6094 369.979 29.75 370.562 29.0312C371.156 28.3125 371.865 27.7604 372.688 27.375C373.51 26.9792 374.427 26.7812 375.438 26.7812C376.25 26.7812 376.984 26.8958 377.641 27.125C378.307 27.3438 378.875 27.7031 379.344 28.2031C379.823 28.7031 380.188 29.3542 380.438 30.1562C380.688 30.9479 380.812 31.9219 380.812 33.0781V44H377.031V33.0625C377.031 32.25 376.911 31.6094 376.672 31.1406C376.443 30.6615 376.104 30.3229 375.656 30.125C375.219 29.9167 374.672 29.8125 374.016 29.8125C373.37 29.8125 372.792 29.9479 372.281 30.2188C371.771 30.4896 371.339 30.8594 370.984 31.3281C370.641 31.7969 370.375 32.3385 370.188 32.9531C370 33.5677 369.906 34.224 369.906 34.9219ZM388.688 27.0938V44H384.906V27.0938H388.688ZM384.656 22.6562C384.656 22.0833 384.844 21.6094 385.219 21.2344C385.604 20.849 386.135 20.6562 386.812 20.6562C387.479 20.6562 388.005 20.849 388.391 21.2344C388.776 21.6094 388.969 22.0833 388.969 22.6562C388.969 23.2188 388.776 23.6875 388.391 24.0625C388.005 24.4375 387.479 24.625 386.812 24.625C386.135 24.625 385.604 24.4375 385.219 24.0625C384.844 23.6875 384.656 23.2188 384.656 22.6562ZM396.609 20V44H392.828V20H396.609ZM407.109 27.0938L399.75 35.25L395.719 39.375L394.734 36.1875L397.781 32.4219L402.562 27.0938H407.109ZM403.375 44L397.891 36.0625L400.266 33.4219L407.734 44H403.375ZM418.984 39.4219C418.984 39.0469 418.891 38.7083 418.703 38.4062C418.516 38.0938 418.156 37.8125 417.625 37.5625C417.104 37.3125 416.333 37.0833 415.312 36.875C414.417 36.6771 413.594 36.4427 412.844 36.1719C412.104 35.8906 411.469 35.5521 410.938 35.1562C410.406 34.7604 409.995 34.2917 409.703 33.75C409.411 33.2083 409.266 32.5833 409.266 31.875C409.266 31.1875 409.417 30.5365 409.719 29.9219C410.021 29.3073 410.453 28.7656 411.016 28.2969C411.578 27.8281 412.26 27.4583 413.062 27.1875C413.875 26.9167 414.781 26.7812 415.781 26.7812C417.198 26.7812 418.411 27.0208 419.422 27.5C420.443 27.9688 421.224 28.6094 421.766 29.4219C422.307 30.224 422.578 31.1302 422.578 32.1406H418.812C418.812 31.6927 418.698 31.276 418.469 30.8906C418.25 30.4948 417.917 30.1771 417.469 29.9375C417.021 29.6875 416.458 29.5625 415.781 29.5625C415.135 29.5625 414.599 29.6667 414.172 29.875C413.755 30.0729 413.443 30.3333 413.234 30.6562C413.036 30.9792 412.938 31.3333 412.938 31.7188C412.938 32 412.99 32.2552 413.094 32.4844C413.208 32.7031 413.396 32.9062 413.656 33.0938C413.917 33.2708 414.271 33.4375 414.719 33.5938C415.177 33.75 415.75 33.901 416.438 34.0469C417.729 34.3177 418.839 34.6667 419.766 35.0938C420.703 35.5104 421.422 36.0521 421.922 36.7188C422.422 37.375 422.672 38.2083 422.672 39.2188C422.672 39.9688 422.51 40.6562 422.188 41.2812C421.875 41.8958 421.417 42.4323 420.812 42.8906C420.208 43.3385 419.484 43.6875 418.641 43.9375C417.807 44.1875 416.87 44.3125 415.828 44.3125C414.297 44.3125 413 44.0417 411.938 43.5C410.875 42.9479 410.068 42.2448 409.516 41.3906C408.974 40.526 408.703 39.6302 408.703 38.7031H412.344C412.385 39.401 412.578 39.9583 412.922 40.375C413.276 40.7812 413.714 41.0781 414.234 41.2656C414.766 41.4427 415.312 41.5312 415.875 41.5312C416.552 41.5312 417.12 41.4427 417.578 41.2656C418.036 41.0781 418.385 40.8281 418.625 40.5156C418.865 40.1927 418.984 39.8281 418.984 39.4219ZM429.5 40.375L429.484 43.0625C429.484 44.125 429.219 45.2188 428.688 46.3438C428.156 47.4688 427.453 48.3958 426.578 49.125L424.562 47.9531C424.854 47.4844 425.12 47.0104 425.359 46.5312C425.599 46.0521 425.792 45.5417 425.938 45C426.083 44.4583 426.156 43.8594 426.156 43.2031V40.375H429.5ZM450.578 39.4219C450.578 39.0469 450.484 38.7083 450.297 38.4062C450.109 38.0938 449.75 37.8125 449.219 37.5625C448.698 37.3125 447.927 37.0833 446.906 36.875C446.01 36.6771 445.188 36.4427 444.438 36.1719C443.698 35.8906 443.062 35.5521 442.531 35.1562C442 34.7604 441.589 34.2917 441.297 33.75C441.005 33.2083 440.859 32.5833 440.859 31.875C440.859 31.1875 441.01 30.5365 441.312 29.9219C441.615 29.3073 442.047 28.7656 442.609 28.2969C443.172 27.8281 443.854 27.4583 444.656 27.1875C445.469 26.9167 446.375 26.7812 447.375 26.7812C448.792 26.7812 450.005 27.0208 451.016 27.5C452.036 27.9688 452.818 28.6094 453.359 29.4219C453.901 30.224 454.172 31.1302 454.172 32.1406H450.406C450.406 31.6927 450.292 31.276 450.062 30.8906C449.844 30.4948 449.51 30.1771 449.062 29.9375C448.615 29.6875 448.052 29.5625 447.375 29.5625C446.729 29.5625 446.193 29.6667 445.766 29.875C445.349 30.0729 445.036 30.3333 444.828 30.6562C444.63 30.9792 444.531 31.3333 444.531 31.7188C444.531 32 444.583 32.2552 444.688 32.4844C444.802 32.7031 444.99 32.9062 445.25 33.0938C445.51 33.2708 445.865 33.4375 446.312 33.5938C446.771 33.75 447.344 33.901 448.031 34.0469C449.323 34.3177 450.432 34.6667 451.359 35.0938C452.297 35.5104 453.016 36.0521 453.516 36.7188C454.016 37.375 454.266 38.2083 454.266 39.2188C454.266 39.9688 454.104 40.6562 453.781 41.2812C453.469 41.8958 453.01 42.4323 452.406 42.8906C451.802 43.3385 451.078 43.6875 450.234 43.9375C449.401 44.1875 448.464 44.3125 447.422 44.3125C445.891 44.3125 444.594 44.0417 443.531 43.5C442.469 42.9479 441.661 42.2448 441.109 41.3906C440.568 40.526 440.297 39.6302 440.297 38.7031H443.938C443.979 39.401 444.172 39.9583 444.516 40.375C444.87 40.7812 445.307 41.0781 445.828 41.2656C446.359 41.4427 446.906 41.5312 447.469 41.5312C448.146 41.5312 448.714 41.4427 449.172 41.2656C449.63 41.0781 449.979 40.8281 450.219 40.5156C450.458 40.1927 450.578 39.8281 450.578 39.4219ZM461.344 30.3438V50.5H457.578V27.0938H461.047L461.344 30.3438ZM472.359 35.3906V35.7188C472.359 36.9479 472.214 38.0885 471.922 39.1406C471.641 40.1823 471.219 41.0938 470.656 41.875C470.104 42.6458 469.422 43.2448 468.609 43.6719C467.797 44.099 466.859 44.3125 465.797 44.3125C464.745 44.3125 463.823 44.1198 463.031 43.7344C462.25 43.3385 461.589 42.7812 461.047 42.0625C460.505 41.3438 460.068 40.5 459.734 39.5312C459.411 38.5521 459.182 37.4792 459.047 36.3125V35.0469C459.182 33.8073 459.411 32.6823 459.734 31.6719C460.068 30.6615 460.505 29.7917 461.047 29.0625C461.589 28.3333 462.25 27.7708 463.031 27.375C463.812 26.9792 464.724 26.7812 465.766 26.7812C466.828 26.7812 467.771 26.9896 468.594 27.4062C469.417 27.8125 470.109 28.3958 470.672 29.1562C471.234 29.9062 471.656 30.8125 471.938 31.875C472.219 32.9271 472.359 34.099 472.359 35.3906ZM468.594 35.7188V35.3906C468.594 34.6094 468.521 33.8854 468.375 33.2188C468.229 32.5417 468 31.9479 467.688 31.4375C467.375 30.9271 466.974 30.5312 466.484 30.25C466.005 29.9583 465.427 29.8125 464.75 29.8125C464.083 29.8125 463.51 29.9271 463.031 30.1562C462.552 30.375 462.151 30.6823 461.828 31.0781C461.505 31.474 461.255 31.9375 461.078 32.4688C460.901 32.9896 460.776 33.5573 460.703 34.1719V37.2031C460.828 37.9531 461.042 38.6406 461.344 39.2656C461.646 39.8906 462.073 40.3906 462.625 40.7656C463.188 41.1302 463.906 41.3125 464.781 41.3125C465.458 41.3125 466.036 41.1667 466.516 40.875C466.995 40.5833 467.385 40.1823 467.688 39.6719C468 39.151 468.229 38.5521 468.375 37.875C468.521 37.1979 468.594 36.4792 468.594 35.7188ZM474.844 35.7344V35.375C474.844 34.1562 475.021 33.026 475.375 31.9844C475.729 30.9323 476.24 30.0208 476.906 29.25C477.583 28.4688 478.406 27.8646 479.375 27.4375C480.354 27 481.458 26.7812 482.688 26.7812C483.927 26.7812 485.031 27 486 27.4375C486.979 27.8646 487.807 28.4688 488.484 29.25C489.161 30.0208 489.677 30.9323 490.031 31.9844C490.385 33.026 490.562 34.1562 490.562 35.375V35.7344C490.562 36.9531 490.385 38.0833 490.031 39.125C489.677 40.1667 489.161 41.0781 488.484 41.8594C487.807 42.6302 486.984 43.2344 486.016 43.6719C485.047 44.099 483.948 44.3125 482.719 44.3125C481.479 44.3125 480.37 44.099 479.391 43.6719C478.422 43.2344 477.599 42.6302 476.922 41.8594C476.245 41.0781 475.729 40.1667 475.375 39.125C475.021 38.0833 474.844 36.9531 474.844 35.7344ZM478.609 35.375V35.7344C478.609 36.4948 478.688 37.2135 478.844 37.8906C479 38.5677 479.245 39.1615 479.578 39.6719C479.911 40.1823 480.339 40.5833 480.859 40.875C481.38 41.1667 482 41.3125 482.719 41.3125C483.417 41.3125 484.021 41.1667 484.531 40.875C485.052 40.5833 485.479 40.1823 485.812 39.6719C486.146 39.1615 486.391 38.5677 486.547 37.8906C486.714 37.2135 486.797 36.4948 486.797 35.7344V35.375C486.797 34.625 486.714 33.9167 486.547 33.25C486.391 32.5729 486.141 31.974 485.797 31.4531C485.464 30.9323 485.036 30.526 484.516 30.2344C484.005 29.9323 483.396 29.7812 482.688 29.7812C481.979 29.7812 481.365 29.9323 480.844 30.2344C480.333 30.526 479.911 30.9323 479.578 31.4531C479.245 31.974 479 32.5729 478.844 33.25C478.688 33.9167 478.609 34.625 478.609 35.375ZM497.5 30.3125V44H493.734V27.0938H497.328L497.5 30.3125ZM502.672 26.9844L502.641 30.4844C502.411 30.4427 502.161 30.4115 501.891 30.3906C501.63 30.3698 501.37 30.3594 501.109 30.3594C500.464 30.3594 499.896 30.4531 499.406 30.6406C498.917 30.8177 498.505 31.0781 498.172 31.4219C497.849 31.7552 497.599 32.1615 497.422 32.6406C497.245 33.1198 497.141 33.6562 497.109 34.25L496.25 34.3125C496.25 33.25 496.354 32.2656 496.562 31.3594C496.771 30.4531 497.083 29.6562 497.5 28.9688C497.927 28.2812 498.458 27.7448 499.094 27.3594C499.74 26.974 500.484 26.7812 501.328 26.7812C501.557 26.7812 501.802 26.8021 502.062 26.8438C502.333 26.8854 502.536 26.9323 502.672 26.9844ZM515.031 40.5V20H518.812V44H515.391L515.031 40.5ZM504.031 35.7344V35.4062C504.031 34.125 504.182 32.9583 504.484 31.9062C504.786 30.8438 505.224 29.9323 505.797 29.1719C506.37 28.401 507.068 27.8125 507.891 27.4062C508.714 26.9896 509.641 26.7812 510.672 26.7812C511.693 26.7812 512.589 26.9792 513.359 27.375C514.13 27.7708 514.786 28.3385 515.328 29.0781C515.87 29.8073 516.302 30.6823 516.625 31.7031C516.948 32.7135 517.177 33.8385 517.312 35.0781V36.125C517.177 37.3333 516.948 38.4375 516.625 39.4375C516.302 40.4375 515.87 41.3021 515.328 42.0312C514.786 42.7604 514.125 43.3229 513.344 43.7188C512.573 44.1146 511.672 44.3125 510.641 44.3125C509.62 44.3125 508.698 44.099 507.875 43.6719C507.062 43.2448 506.37 42.6458 505.797 41.875C505.224 41.1042 504.786 40.1979 504.484 39.1562C504.182 38.1042 504.031 36.9635 504.031 35.7344ZM507.797 35.4062V35.7344C507.797 36.5052 507.865 37.224 508 37.8906C508.146 38.5573 508.37 39.1458 508.672 39.6562C508.974 40.1562 509.365 40.5521 509.844 40.8438C510.333 41.125 510.917 41.2656 511.594 41.2656C512.448 41.2656 513.151 41.0781 513.703 40.7031C514.255 40.3281 514.688 39.8229 515 39.1875C515.323 38.5417 515.542 37.8229 515.656 37.0312V34.2031C515.594 33.5885 515.464 33.0156 515.266 32.4844C515.078 31.9531 514.823 31.4896 514.5 31.0938C514.177 30.6875 513.776 30.375 513.297 30.1562C512.828 29.9271 512.271 29.8125 511.625 29.8125C510.938 29.8125 510.354 29.9583 509.875 30.25C509.396 30.5417 509 30.9427 508.688 31.4531C508.385 31.9635 508.161 32.5573 508.016 33.2344C507.87 33.9115 507.797 34.6354 507.797 35.4062ZM526.781 27.0938V44H523V27.0938H526.781ZM522.75 22.6562C522.75 22.0833 522.938 21.6094 523.312 21.2344C523.698 20.849 524.229 20.6562 524.906 20.6562C525.573 20.6562 526.099 20.849 526.484 21.2344C526.87 21.6094 527.062 22.0833 527.062 22.6562C527.062 23.2188 526.87 23.6875 526.484 24.0625C526.099 24.4375 525.573 24.625 524.906 24.625C524.229 24.625 523.698 24.4375 523.312 24.0625C522.938 23.6875 522.75 23.2188 522.75 22.6562ZM541.078 40.0156V27.0938H544.859V44H541.297L541.078 40.0156ZM541.609 36.5L542.875 36.4688C542.875 37.6042 542.75 38.651 542.5 39.6094C542.25 40.5573 541.865 41.3854 541.344 42.0938C540.823 42.7917 540.156 43.3385 539.344 43.7344C538.531 44.1198 537.557 44.3125 536.422 44.3125C535.599 44.3125 534.844 44.1927 534.156 43.9531C533.469 43.7135 532.875 43.3438 532.375 42.8438C531.885 42.3438 531.505 41.6927 531.234 40.8906C530.964 40.0885 530.828 39.1302 530.828 38.0156V27.0938H534.594V38.0469C534.594 38.6615 534.667 39.1771 534.812 39.5938C534.958 40 535.156 40.3281 535.406 40.5781C535.656 40.8281 535.948 41.0052 536.281 41.1094C536.615 41.2135 536.969 41.2656 537.344 41.2656C538.417 41.2656 539.26 41.0573 539.875 40.6406C540.5 40.2135 540.943 39.6406 541.203 38.9219C541.474 38.2031 541.609 37.3958 541.609 36.5ZM558.891 40.0156V27.0938H562.672V44H559.109L558.891 40.0156ZM559.422 36.5L560.688 36.4688C560.688 37.6042 560.562 38.651 560.312 39.6094C560.062 40.5573 559.677 41.3854 559.156 42.0938C558.635 42.7917 557.969 43.3385 557.156 43.7344C556.344 44.1198 555.37 44.3125 554.234 44.3125C553.411 44.3125 552.656 44.1927 551.969 43.9531C551.281 43.7135 550.688 43.3438 550.188 42.8438C549.698 42.3438 549.318 41.6927 549.047 40.8906C548.776 40.0885 548.641 39.1302 548.641 38.0156V27.0938H552.406V38.0469C552.406 38.6615 552.479 39.1771 552.625 39.5938C552.771 40 552.969 40.3281 553.219 40.5781C553.469 40.8281 553.76 41.0052 554.094 41.1094C554.427 41.2135 554.781 41.2656 555.156 41.2656C556.229 41.2656 557.073 41.0573 557.688 40.6406C558.312 40.2135 558.755 39.6406 559.016 38.9219C559.286 38.2031 559.422 37.3958 559.422 36.5ZM576.844 40.5V20H580.625V44H577.203L576.844 40.5ZM565.844 35.7344V35.4062C565.844 34.125 565.995 32.9583 566.297 31.9062C566.599 30.8438 567.036 29.9323 567.609 29.1719C568.182 28.401 568.88 27.8125 569.703 27.4062C570.526 26.9896 571.453 26.7812 572.484 26.7812C573.505 26.7812 574.401 26.9792 575.172 27.375C575.943 27.7708 576.599 28.3385 577.141 29.0781C577.682 29.8073 578.115 30.6823 578.438 31.7031C578.76 32.7135 578.99 33.8385 579.125 35.0781V36.125C578.99 37.3333 578.76 38.4375 578.438 39.4375C578.115 40.4375 577.682 41.3021 577.141 42.0312C576.599 42.7604 575.938 43.3229 575.156 43.7188C574.385 44.1146 573.484 44.3125 572.453 44.3125C571.432 44.3125 570.51 44.099 569.688 43.6719C568.875 43.2448 568.182 42.6458 567.609 41.875C567.036 41.1042 566.599 40.1979 566.297 39.1562C565.995 38.1042 565.844 36.9635 565.844 35.7344ZM569.609 35.4062V35.7344C569.609 36.5052 569.677 37.224 569.812 37.8906C569.958 38.5573 570.182 39.1458 570.484 39.6562C570.786 40.1562 571.177 40.5521 571.656 40.8438C572.146 41.125 572.729 41.2656 573.406 41.2656C574.26 41.2656 574.964 41.0781 575.516 40.7031C576.068 40.3281 576.5 39.8229 576.812 39.1875C577.135 38.5417 577.354 37.8229 577.469 37.0312V34.2031C577.406 33.5885 577.276 33.0156 577.078 32.4844C576.891 31.9531 576.635 31.4896 576.312 31.0938C575.99 30.6875 575.589 30.375 575.109 30.1562C574.641 29.9271 574.083 29.8125 573.438 29.8125C572.75 29.8125 572.167 29.9583 571.688 30.25C571.208 30.5417 570.812 30.9427 570.5 31.4531C570.198 31.9635 569.974 32.5573 569.828 33.2344C569.682 33.9115 569.609 34.6354 569.609 35.4062ZM588.594 27.0938V44H584.812V27.0938H588.594ZM584.562 22.6562C584.562 22.0833 584.75 21.6094 585.125 21.2344C585.51 20.849 586.042 20.6562 586.719 20.6562C587.385 20.6562 587.911 20.849 588.297 21.2344C588.682 21.6094 588.875 22.0833 588.875 22.6562C588.875 23.2188 588.682 23.6875 588.297 24.0625C587.911 24.4375 587.385 24.625 586.719 24.625C586.042 24.625 585.51 24.4375 585.125 24.0625C584.75 23.6875 584.562 23.2188 584.562 22.6562ZM602.203 39.4219C602.203 39.0469 602.109 38.7083 601.922 38.4062C601.734 38.0938 601.375 37.8125 600.844 37.5625C600.323 37.3125 599.552 37.0833 598.531 36.875C597.635 36.6771 596.812 36.4427 596.062 36.1719C595.323 35.8906 594.688 35.5521 594.156 35.1562C593.625 34.7604 593.214 34.2917 592.922 33.75C592.63 33.2083 592.484 32.5833 592.484 31.875C592.484 31.1875 592.635 30.5365 592.938 29.9219C593.24 29.3073 593.672 28.7656 594.234 28.2969C594.797 27.8281 595.479 27.4583 596.281 27.1875C597.094 26.9167 598 26.7812 599 26.7812C600.417 26.7812 601.63 27.0208 602.641 27.5C603.661 27.9688 604.443 28.6094 604.984 29.4219C605.526 30.224 605.797 31.1302 605.797 32.1406H602.031C602.031 31.6927 601.917 31.276 601.688 30.8906C601.469 30.4948 601.135 30.1771 600.688 29.9375C600.24 29.6875 599.677 29.5625 599 29.5625C598.354 29.5625 597.818 29.6667 597.391 29.875C596.974 30.0729 596.661 30.3333 596.453 30.6562C596.255 30.9792 596.156 31.3333 596.156 31.7188C596.156 32 596.208 32.2552 596.312 32.4844C596.427 32.7031 596.615 32.9062 596.875 33.0938C597.135 33.2708 597.49 33.4375 597.938 33.5938C598.396 33.75 598.969 33.901 599.656 34.0469C600.948 34.3177 602.057 34.6667 602.984 35.0938C603.922 35.5104 604.641 36.0521 605.141 36.7188C605.641 37.375 605.891 38.2083 605.891 39.2188C605.891 39.9688 605.729 40.6562 605.406 41.2812C605.094 41.8958 604.635 42.4323 604.031 42.8906C603.427 43.3385 602.703 43.6875 601.859 43.9375C601.026 44.1875 600.089 44.3125 599.047 44.3125C597.516 44.3125 596.219 44.0417 595.156 43.5C594.094 42.9479 593.286 42.2448 592.734 41.3906C592.193 40.526 591.922 39.6302 591.922 38.7031H595.562C595.604 39.401 595.797 39.9583 596.141 40.375C596.495 40.7812 596.932 41.0781 597.453 41.2656C597.984 41.4427 598.531 41.5312 599.094 41.5312C599.771 41.5312 600.339 41.4427 600.797 41.2656C601.255 41.0781 601.604 40.8281 601.844 40.5156C602.083 40.1927 602.203 39.8281 602.203 39.4219ZM616.641 44.3125C615.391 44.3125 614.26 44.1094 613.25 43.7031C612.25 43.2865 611.396 42.7083 610.688 41.9688C609.99 41.2292 609.453 40.3594 609.078 39.3594C608.703 38.3594 608.516 37.2812 608.516 36.125V35.5C608.516 34.1771 608.708 32.9792 609.094 31.9062C609.479 30.8333 610.016 29.9167 610.703 29.1562C611.391 28.3854 612.203 27.7969 613.141 27.3906C614.078 26.9844 615.094 26.7812 616.188 26.7812C617.396 26.7812 618.453 26.9844 619.359 27.3906C620.266 27.7969 621.016 28.3698 621.609 29.1094C622.214 29.8385 622.661 30.7083 622.953 31.7188C623.255 32.7292 623.406 33.8438 623.406 35.0625V36.6719H610.344V33.9688H619.688V33.6719C619.667 32.9948 619.531 32.3594 619.281 31.7656C619.042 31.1719 618.672 30.6927 618.172 30.3281C617.672 29.9635 617.005 29.7812 616.172 29.7812C615.547 29.7812 614.99 29.9167 614.5 30.1875C614.021 30.4479 613.62 30.8281 613.297 31.3281C612.974 31.8281 612.724 32.4323 612.547 33.1406C612.38 33.8385 612.297 34.625 612.297 35.5V36.125C612.297 36.8646 612.396 37.5521 612.594 38.1875C612.802 38.8125 613.104 39.3594 613.5 39.8281C613.896 40.2969 614.375 40.6667 614.938 40.9375C615.5 41.1979 616.141 41.3281 616.859 41.3281C617.766 41.3281 618.573 41.1458 619.281 40.7812C619.99 40.4167 620.604 39.901 621.125 39.2344L623.109 41.1562C622.745 41.6875 622.271 42.1979 621.688 42.6875C621.104 43.1667 620.391 43.5573 619.547 43.8594C618.714 44.1615 617.745 44.3125 616.641 44.3125ZM630.375 27.0938V44H626.594V27.0938H630.375ZM626.344 22.6562C626.344 22.0833 626.531 21.6094 626.906 21.2344C627.292 20.849 627.823 20.6562 628.5 20.6562C629.167 20.6562 629.693 20.849 630.078 21.2344C630.464 21.6094 630.656 22.0833 630.656 22.6562C630.656 23.2188 630.464 23.6875 630.078 24.0625C629.693 24.4375 629.167 24.625 628.5 24.625C627.823 24.625 627.292 24.4375 626.906 24.0625C626.531 23.6875 626.344 23.2188 626.344 22.6562ZM644.812 40.5V20H648.594V44H645.172L644.812 40.5ZM633.812 35.7344V35.4062C633.812 34.125 633.964 32.9583 634.266 31.9062C634.568 30.8438 635.005 29.9323 635.578 29.1719C636.151 28.401 636.849 27.8125 637.672 27.4062C638.495 26.9896 639.422 26.7812 640.453 26.7812C641.474 26.7812 642.37 26.9792 643.141 27.375C643.911 27.7708 644.568 28.3385 645.109 29.0781C645.651 29.8073 646.083 30.6823 646.406 31.7031C646.729 32.7135 646.958 33.8385 647.094 35.0781V36.125C646.958 37.3333 646.729 38.4375 646.406 39.4375C646.083 40.4375 645.651 41.3021 645.109 42.0312C644.568 42.7604 643.906 43.3229 643.125 43.7188C642.354 44.1146 641.453 44.3125 640.422 44.3125C639.401 44.3125 638.479 44.099 637.656 43.6719C636.844 43.2448 636.151 42.6458 635.578 41.875C635.005 41.1042 634.568 40.1979 634.266 39.1562C633.964 38.1042 633.812 36.9635 633.812 35.7344ZM637.578 35.4062V35.7344C637.578 36.5052 637.646 37.224 637.781 37.8906C637.927 38.5573 638.151 39.1458 638.453 39.6562C638.755 40.1562 639.146 40.5521 639.625 40.8438C640.115 41.125 640.698 41.2656 641.375 41.2656C642.229 41.2656 642.932 41.0781 643.484 40.7031C644.036 40.3281 644.469 39.8229 644.781 39.1875C645.104 38.5417 645.323 37.8229 645.438 37.0312V34.2031C645.375 33.5885 645.245 33.0156 645.047 32.4844C644.859 31.9531 644.604 31.4896 644.281 31.0938C643.958 30.6875 643.557 30.375 643.078 30.1562C642.609 29.9271 642.052 29.8125 641.406 29.8125C640.719 29.8125 640.135 29.9583 639.656 30.25C639.177 30.5417 638.781 30.9427 638.469 31.4531C638.167 31.9635 637.943 32.5573 637.797 33.2344C637.651 33.9115 637.578 34.6354 637.578 35.4062ZM236.828 74.4219C236.828 74.0469 236.734 73.7083 236.547 73.4062C236.359 73.0938 236 72.8125 235.469 72.5625C234.948 72.3125 234.177 72.0833 233.156 71.875C232.26 71.6771 231.438 71.4427 230.688 71.1719C229.948 70.8906 229.312 70.5521 228.781 70.1562C228.25 69.7604 227.839 69.2917 227.547 68.75C227.255 68.2083 227.109 67.5833 227.109 66.875C227.109 66.1875 227.26 65.5365 227.562 64.9219C227.865 64.3073 228.297 63.7656 228.859 63.2969C229.422 62.8281 230.104 62.4583 230.906 62.1875C231.719 61.9167 232.625 61.7812 233.625 61.7812C235.042 61.7812 236.255 62.0208 237.266 62.5C238.286 62.9688 239.068 63.6094 239.609 64.4219C240.151 65.224 240.422 66.1302 240.422 67.1406H236.656C236.656 66.6927 236.542 66.276 236.312 65.8906C236.094 65.4948 235.76 65.1771 235.312 64.9375C234.865 64.6875 234.302 64.5625 233.625 64.5625C232.979 64.5625 232.443 64.6667 232.016 64.875C231.599 65.0729 231.286 65.3333 231.078 65.6562C230.88 65.9792 230.781 66.3333 230.781 66.7188C230.781 67 230.833 67.2552 230.938 67.4844C231.052 67.7031 231.24 67.9062 231.5 68.0938C231.76 68.2708 232.115 68.4375 232.562 68.5938C233.021 68.75 233.594 68.901 234.281 69.0469C235.573 69.3177 236.682 69.6667 237.609 70.0938C238.547 70.5104 239.266 71.0521 239.766 71.7188C240.266 72.375 240.516 73.2083 240.516 74.2188C240.516 74.9688 240.354 75.6562 240.031 76.2812C239.719 76.8958 239.26 77.4323 238.656 77.8906C238.052 78.3385 237.328 78.6875 236.484 78.9375C235.651 79.1875 234.714 79.3125 233.672 79.3125C232.141 79.3125 230.844 79.0417 229.781 78.5C228.719 77.9479 227.911 77.2448 227.359 76.3906C226.818 75.526 226.547 74.6302 226.547 73.7031H230.188C230.229 74.401 230.422 74.9583 230.766 75.375C231.12 75.7812 231.557 76.0781 232.078 76.2656C232.609 76.4427 233.156 76.5312 233.719 76.5312C234.396 76.5312 234.964 76.4427 235.422 76.2656C235.88 76.0781 236.229 75.8281 236.469 75.5156C236.708 75.1927 236.828 74.8281 236.828 74.4219ZM253.344 75.6094V67.5469C253.344 66.9427 253.234 66.4219 253.016 65.9844C252.797 65.5469 252.464 65.2083 252.016 64.9688C251.578 64.7292 251.026 64.6094 250.359 64.6094C249.745 64.6094 249.214 64.7135 248.766 64.9219C248.318 65.1302 247.969 65.4115 247.719 65.7656C247.469 66.1198 247.344 66.5208 247.344 66.9688H243.594C243.594 66.3021 243.755 65.6562 244.078 65.0312C244.401 64.4062 244.87 63.849 245.484 63.3594C246.099 62.8698 246.833 62.4844 247.688 62.2031C248.542 61.9219 249.5 61.7812 250.562 61.7812C251.833 61.7812 252.958 61.9948 253.938 62.4219C254.927 62.849 255.703 63.4948 256.266 64.3594C256.839 65.2135 257.125 66.2865 257.125 67.5781V75.0938C257.125 75.8646 257.177 76.5573 257.281 77.1719C257.396 77.776 257.557 78.3021 257.766 78.75V79H253.906C253.729 78.5938 253.589 78.0781 253.484 77.4531C253.391 76.8177 253.344 76.2031 253.344 75.6094ZM253.891 68.7188L253.922 71.0469H251.219C250.521 71.0469 249.906 71.1146 249.375 71.25C248.844 71.375 248.401 71.5625 248.047 71.8125C247.693 72.0625 247.427 72.3646 247.25 72.7188C247.073 73.0729 246.984 73.474 246.984 73.9219C246.984 74.3698 247.089 74.7812 247.297 75.1562C247.505 75.5208 247.807 75.8073 248.203 76.0156C248.609 76.224 249.099 76.3281 249.672 76.3281C250.443 76.3281 251.115 76.1719 251.688 75.8594C252.271 75.5365 252.729 75.1458 253.062 74.6875C253.396 74.2188 253.573 73.776 253.594 73.3594L254.812 75.0312C254.688 75.4583 254.474 75.9167 254.172 76.4062C253.87 76.8958 253.474 77.3646 252.984 77.8125C252.505 78.25 251.927 78.6094 251.25 78.8906C250.583 79.1719 249.812 79.3125 248.938 79.3125C247.833 79.3125 246.849 79.0938 245.984 78.6562C245.12 78.2083 244.443 77.6094 243.953 76.8594C243.464 76.099 243.219 75.2396 243.219 74.2812C243.219 73.3854 243.385 72.5938 243.719 71.9062C244.062 71.2083 244.562 70.625 245.219 70.1562C245.885 69.6875 246.698 69.3333 247.656 69.0938C248.615 68.8438 249.708 68.7188 250.938 68.7188H253.891ZM270.594 75.6094V67.5469C270.594 66.9427 270.484 66.4219 270.266 65.9844C270.047 65.5469 269.714 65.2083 269.266 64.9688C268.828 64.7292 268.276 64.6094 267.609 64.6094C266.995 64.6094 266.464 64.7135 266.016 64.9219C265.568 65.1302 265.219 65.4115 264.969 65.7656C264.719 66.1198 264.594 66.5208 264.594 66.9688H260.844C260.844 66.3021 261.005 65.6562 261.328 65.0312C261.651 64.4062 262.12 63.849 262.734 63.3594C263.349 62.8698 264.083 62.4844 264.938 62.2031C265.792 61.9219 266.75 61.7812 267.812 61.7812C269.083 61.7812 270.208 61.9948 271.188 62.4219C272.177 62.849 272.953 63.4948 273.516 64.3594C274.089 65.2135 274.375 66.2865 274.375 67.5781V75.0938C274.375 75.8646 274.427 76.5573 274.531 77.1719C274.646 77.776 274.807 78.3021 275.016 78.75V79H271.156C270.979 78.5938 270.839 78.0781 270.734 77.4531C270.641 76.8177 270.594 76.2031 270.594 75.6094ZM271.141 68.7188L271.172 71.0469H268.469C267.771 71.0469 267.156 71.1146 266.625 71.25C266.094 71.375 265.651 71.5625 265.297 71.8125C264.943 72.0625 264.677 72.3646 264.5 72.7188C264.323 73.0729 264.234 73.474 264.234 73.9219C264.234 74.3698 264.339 74.7812 264.547 75.1562C264.755 75.5208 265.057 75.8073 265.453 76.0156C265.859 76.224 266.349 76.3281 266.922 76.3281C267.693 76.3281 268.365 76.1719 268.938 75.8594C269.521 75.5365 269.979 75.1458 270.312 74.6875C270.646 74.2188 270.823 73.776 270.844 73.3594L272.062 75.0312C271.938 75.4583 271.724 75.9167 271.422 76.4062C271.12 76.8958 270.724 77.3646 270.234 77.8125C269.755 78.25 269.177 78.6094 268.5 78.8906C267.833 79.1719 267.062 79.3125 266.188 79.3125C265.083 79.3125 264.099 79.0938 263.234 78.6562C262.37 78.2083 261.693 77.6094 261.203 76.8594C260.714 76.099 260.469 75.2396 260.469 74.2812C260.469 73.3854 260.635 72.5938 260.969 71.9062C261.312 71.2083 261.812 70.625 262.469 70.1562C263.135 69.6875 263.948 69.3333 264.906 69.0938C265.865 68.8438 266.958 68.7188 268.188 68.7188H271.141ZM288.625 75.5V55H292.406V79H288.984L288.625 75.5ZM277.625 70.7344V70.4062C277.625 69.125 277.776 67.9583 278.078 66.9062C278.38 65.8438 278.818 64.9323 279.391 64.1719C279.964 63.401 280.661 62.8125 281.484 62.4062C282.307 61.9896 283.234 61.7812 284.266 61.7812C285.286 61.7812 286.182 61.9792 286.953 62.375C287.724 62.7708 288.38 63.3385 288.922 64.0781C289.464 64.8073 289.896 65.6823 290.219 66.7031C290.542 67.7135 290.771 68.8385 290.906 70.0781V71.125C290.771 72.3333 290.542 73.4375 290.219 74.4375C289.896 75.4375 289.464 76.3021 288.922 77.0312C288.38 77.7604 287.719 78.3229 286.938 78.7188C286.167 79.1146 285.266 79.3125 284.234 79.3125C283.214 79.3125 282.292 79.099 281.469 78.6719C280.656 78.2448 279.964 77.6458 279.391 76.875C278.818 76.1042 278.38 75.1979 278.078 74.1562C277.776 73.1042 277.625 71.9635 277.625 70.7344ZM281.391 70.4062V70.7344C281.391 71.5052 281.458 72.224 281.594 72.8906C281.74 73.5573 281.964 74.1458 282.266 74.6562C282.568 75.1562 282.958 75.5521 283.438 75.8438C283.927 76.125 284.51 76.2656 285.188 76.2656C286.042 76.2656 286.745 76.0781 287.297 75.7031C287.849 75.3281 288.281 74.8229 288.594 74.1875C288.917 73.5417 289.135 72.8229 289.25 72.0312V69.2031C289.188 68.5885 289.057 68.0156 288.859 67.4844C288.672 66.9531 288.417 66.4896 288.094 66.0938C287.771 65.6875 287.37 65.375 286.891 65.1562C286.422 64.9271 285.865 64.8125 285.219 64.8125C284.531 64.8125 283.948 64.9583 283.469 65.25C282.99 65.5417 282.594 65.9427 282.281 66.4531C281.979 66.9635 281.755 67.5573 281.609 68.2344C281.464 68.9115 281.391 69.6354 281.391 70.4062ZM308.344 62.0938V79H304.562V62.0938H308.344ZM304.312 57.6562C304.312 57.0833 304.5 56.6094 304.875 56.2344C305.26 55.849 305.792 55.6562 306.469 55.6562C307.135 55.6562 307.661 55.849 308.047 56.2344C308.432 56.6094 308.625 57.0833 308.625 57.6562C308.625 58.2188 308.432 58.6875 308.047 59.0625C307.661 59.4375 307.135 59.625 306.469 59.625C305.792 59.625 305.26 59.4375 304.875 59.0625C304.5 58.6875 304.312 58.2188 304.312 57.6562ZM316.266 55V79H312.484V55H316.266ZM326.766 62.0938L319.406 70.25L315.375 74.375L314.391 71.1875L317.438 67.4219L322.219 62.0938H326.766ZM323.031 79L317.547 71.0625L319.922 68.4219L327.391 79H323.031ZM332.953 55V79H329.172V55H332.953ZM343.453 62.0938L336.094 70.25L332.062 74.375L331.078 71.1875L334.125 67.4219L338.906 62.0938H343.453ZM339.719 79L334.234 71.0625L336.609 68.4219L344.078 79H339.719ZM355.375 75.6094V67.5469C355.375 66.9427 355.266 66.4219 355.047 65.9844C354.828 65.5469 354.495 65.2083 354.047 64.9688C353.609 64.7292 353.057 64.6094 352.391 64.6094C351.776 64.6094 351.245 64.7135 350.797 64.9219C350.349 65.1302 350 65.4115 349.75 65.7656C349.5 66.1198 349.375 66.5208 349.375 66.9688H345.625C345.625 66.3021 345.786 65.6562 346.109 65.0312C346.432 64.4062 346.901 63.849 347.516 63.3594C348.13 62.8698 348.865 62.4844 349.719 62.2031C350.573 61.9219 351.531 61.7812 352.594 61.7812C353.865 61.7812 354.99 61.9948 355.969 62.4219C356.958 62.849 357.734 63.4948 358.297 64.3594C358.87 65.2135 359.156 66.2865 359.156 67.5781V75.0938C359.156 75.8646 359.208 76.5573 359.312 77.1719C359.427 77.776 359.589 78.3021 359.797 78.75V79H355.938C355.76 78.5938 355.62 78.0781 355.516 77.4531C355.422 76.8177 355.375 76.2031 355.375 75.6094ZM355.922 68.7188L355.953 71.0469H353.25C352.552 71.0469 351.938 71.1146 351.406 71.25C350.875 71.375 350.432 71.5625 350.078 71.8125C349.724 72.0625 349.458 72.3646 349.281 72.7188C349.104 73.0729 349.016 73.474 349.016 73.9219C349.016 74.3698 349.12 74.7812 349.328 75.1562C349.536 75.5208 349.839 75.8073 350.234 76.0156C350.641 76.224 351.13 76.3281 351.703 76.3281C352.474 76.3281 353.146 76.1719 353.719 75.8594C354.302 75.5365 354.76 75.1458 355.094 74.6875C355.427 74.2188 355.604 73.776 355.625 73.3594L356.844 75.0312C356.719 75.4583 356.505 75.9167 356.203 76.4062C355.901 76.8958 355.505 77.3646 355.016 77.8125C354.536 78.25 353.958 78.6094 353.281 78.8906C352.615 79.1719 351.844 79.3125 350.969 79.3125C349.865 79.3125 348.88 79.0938 348.016 78.6562C347.151 78.2083 346.474 77.6094 345.984 76.8594C345.495 76.099 345.25 75.2396 345.25 74.2812C345.25 73.3854 345.417 72.5938 345.75 71.9062C346.094 71.2083 346.594 70.625 347.25 70.1562C347.917 69.6875 348.729 69.3333 349.688 69.0938C350.646 68.8438 351.74 68.7188 352.969 68.7188H355.922ZM375.094 55V79H371.312V55H375.094ZM389.391 75.0156V62.0938H393.172V79H389.609L389.391 75.0156ZM389.922 71.5L391.188 71.4688C391.188 72.6042 391.062 73.651 390.812 74.6094C390.562 75.5573 390.177 76.3854 389.656 77.0938C389.135 77.7917 388.469 78.3385 387.656 78.7344C386.844 79.1198 385.87 79.3125 384.734 79.3125C383.911 79.3125 383.156 79.1927 382.469 78.9531C381.781 78.7135 381.188 78.3438 380.688 77.8438C380.198 77.3438 379.818 76.6927 379.547 75.8906C379.276 75.0885 379.141 74.1302 379.141 73.0156V62.0938H382.906V73.0469C382.906 73.6615 382.979 74.1771 383.125 74.5938C383.271 75 383.469 75.3281 383.719 75.5781C383.969 75.8281 384.26 76.0052 384.594 76.1094C384.927 76.2135 385.281 76.2656 385.656 76.2656C386.729 76.2656 387.573 76.0573 388.188 75.6406C388.812 75.2135 389.255 74.6406 389.516 73.9219C389.786 73.2031 389.922 72.3958 389.922 71.5ZM407.859 62.0938H411.281V78.5312C411.281 80.0521 410.958 81.3438 410.312 82.4062C409.667 83.4688 408.766 84.276 407.609 84.8281C406.453 85.3906 405.115 85.6719 403.594 85.6719C402.948 85.6719 402.229 85.5781 401.438 85.3906C400.656 85.2031 399.896 84.901 399.156 84.4844C398.427 84.0781 397.818 83.5417 397.328 82.875L399.094 80.6562C399.698 81.375 400.365 81.901 401.094 82.2344C401.823 82.5677 402.589 82.7344 403.391 82.7344C404.255 82.7344 404.99 82.5729 405.594 82.25C406.208 81.9375 406.682 81.474 407.016 80.8594C407.349 80.2448 407.516 79.4948 407.516 78.6094V65.9219L407.859 62.0938ZM396.375 70.7344V70.4062C396.375 69.125 396.531 67.9583 396.844 66.9062C397.156 65.8438 397.604 64.9323 398.188 64.1719C398.771 63.401 399.479 62.8125 400.312 62.4062C401.146 61.9896 402.089 61.7812 403.141 61.7812C404.234 61.7812 405.167 61.9792 405.938 62.375C406.719 62.7708 407.37 63.3385 407.891 64.0781C408.411 64.8073 408.818 65.6823 409.109 66.7031C409.411 67.7135 409.635 68.8385 409.781 70.0781V71.125C409.646 72.3333 409.417 73.4375 409.094 74.4375C408.771 75.4375 408.344 76.3021 407.812 77.0312C407.281 77.7604 406.625 78.3229 405.844 78.7188C405.073 79.1146 404.161 79.3125 403.109 79.3125C402.078 79.3125 401.146 79.099 400.312 78.6719C399.49 78.2448 398.781 77.6458 398.188 76.875C397.604 76.1042 397.156 75.1979 396.844 74.1562C396.531 73.1042 396.375 71.9635 396.375 70.7344ZM400.141 70.4062V70.7344C400.141 71.5052 400.214 72.224 400.359 72.8906C400.516 73.5573 400.75 74.1458 401.062 74.6562C401.385 75.1562 401.792 75.5521 402.281 75.8438C402.781 76.125 403.37 76.2656 404.047 76.2656C404.932 76.2656 405.656 76.0781 406.219 75.7031C406.792 75.3281 407.229 74.8229 407.531 74.1875C407.844 73.5417 408.062 72.8229 408.188 72.0312V69.2031C408.125 68.5885 407.995 68.0156 407.797 67.4844C407.609 66.9531 407.354 66.4896 407.031 66.0938C406.708 65.6875 406.302 65.375 405.812 65.1562C405.323 64.9271 404.745 64.8125 404.078 64.8125C403.401 64.8125 402.812 64.9583 402.312 65.25C401.812 65.5417 401.401 65.9427 401.078 66.4531C400.766 66.9635 400.531 67.5573 400.375 68.2344C400.219 68.9115 400.141 69.6354 400.141 70.4062ZM422.641 79.3125C421.391 79.3125 420.26 79.1094 419.25 78.7031C418.25 78.2865 417.396 77.7083 416.688 76.9688C415.99 76.2292 415.453 75.3594 415.078 74.3594C414.703 73.3594 414.516 72.2812 414.516 71.125V70.5C414.516 69.1771 414.708 67.9792 415.094 66.9062C415.479 65.8333 416.016 64.9167 416.703 64.1562C417.391 63.3854 418.203 62.7969 419.141 62.3906C420.078 61.9844 421.094 61.7812 422.188 61.7812C423.396 61.7812 424.453 61.9844 425.359 62.3906C426.266 62.7969 427.016 63.3698 427.609 64.1094C428.214 64.8385 428.661 65.7083 428.953 66.7188C429.255 67.7292 429.406 68.8438 429.406 70.0625V71.6719H416.344V68.9688H425.688V68.6719C425.667 67.9948 425.531 67.3594 425.281 66.7656C425.042 66.1719 424.672 65.6927 424.172 65.3281C423.672 64.9635 423.005 64.7812 422.172 64.7812C421.547 64.7812 420.99 64.9167 420.5 65.1875C420.021 65.4479 419.62 65.8281 419.297 66.3281C418.974 66.8281 418.724 67.4323 418.547 68.1406C418.38 68.8385 418.297 69.625 418.297 70.5V71.125C418.297 71.8646 418.396 72.5521 418.594 73.1875C418.802 73.8125 419.104 74.3594 419.5 74.8281C419.896 75.2969 420.375 75.6667 420.938 75.9375C421.5 76.1979 422.141 76.3281 422.859 76.3281C423.766 76.3281 424.573 76.1458 425.281 75.7812C425.99 75.4167 426.604 74.901 427.125 74.2344L429.109 76.1562C428.745 76.6875 428.271 77.1979 427.688 77.6875C427.104 78.1667 426.391 78.5573 425.547 78.8594C424.714 79.1615 423.745 79.3125 422.641 79.3125ZM442.656 75.5V55H446.438V79H443.016L442.656 75.5ZM431.656 70.7344V70.4062C431.656 69.125 431.807 67.9583 432.109 66.9062C432.411 65.8438 432.849 64.9323 433.422 64.1719C433.995 63.401 434.693 62.8125 435.516 62.4062C436.339 61.9896 437.266 61.7812 438.297 61.7812C439.318 61.7812 440.214 61.9792 440.984 62.375C441.755 62.7708 442.411 63.3385 442.953 64.0781C443.495 64.8073 443.927 65.6823 444.25 66.7031C444.573 67.7135 444.802 68.8385 444.938 70.0781V71.125C444.802 72.3333 444.573 73.4375 444.25 74.4375C443.927 75.4375 443.495 76.3021 442.953 77.0312C442.411 77.7604 441.75 78.3229 440.969 78.7188C440.198 79.1146 439.297 79.3125 438.266 79.3125C437.245 79.3125 436.323 79.099 435.5 78.6719C434.688 78.2448 433.995 77.6458 433.422 76.875C432.849 76.1042 432.411 75.1979 432.109 74.1562C431.807 73.1042 431.656 71.9635 431.656 70.7344ZM435.422 70.4062V70.7344C435.422 71.5052 435.49 72.224 435.625 72.8906C435.771 73.5573 435.995 74.1458 436.297 74.6562C436.599 75.1562 436.99 75.5521 437.469 75.8438C437.958 76.125 438.542 76.2656 439.219 76.2656C440.073 76.2656 440.776 76.0781 441.328 75.7031C441.88 75.3281 442.312 74.8229 442.625 74.1875C442.948 73.5417 443.167 72.8229 443.281 72.0312V69.2031C443.219 68.5885 443.089 68.0156 442.891 67.4844C442.703 66.9531 442.448 66.4896 442.125 66.0938C441.802 65.6875 441.401 65.375 440.922 65.1562C440.453 64.9271 439.896 64.8125 439.25 64.8125C438.562 64.8125 437.979 64.9583 437.5 65.25C437.021 65.5417 436.625 65.9427 436.312 66.4531C436.01 66.9635 435.786 67.5573 435.641 68.2344C435.495 68.9115 435.422 69.6354 435.422 70.4062ZM459.906 75.6094V67.5469C459.906 66.9427 459.797 66.4219 459.578 65.9844C459.359 65.5469 459.026 65.2083 458.578 64.9688C458.141 64.7292 457.589 64.6094 456.922 64.6094C456.307 64.6094 455.776 64.7135 455.328 64.9219C454.88 65.1302 454.531 65.4115 454.281 65.7656C454.031 66.1198 453.906 66.5208 453.906 66.9688H450.156C450.156 66.3021 450.318 65.6562 450.641 65.0312C450.964 64.4062 451.432 63.849 452.047 63.3594C452.661 62.8698 453.396 62.4844 454.25 62.2031C455.104 61.9219 456.062 61.7812 457.125 61.7812C458.396 61.7812 459.521 61.9948 460.5 62.4219C461.49 62.849 462.266 63.4948 462.828 64.3594C463.401 65.2135 463.688 66.2865 463.688 67.5781V75.0938C463.688 75.8646 463.74 76.5573 463.844 77.1719C463.958 77.776 464.12 78.3021 464.328 78.75V79H460.469C460.292 78.5938 460.151 78.0781 460.047 77.4531C459.953 76.8177 459.906 76.2031 459.906 75.6094ZM460.453 68.7188L460.484 71.0469H457.781C457.083 71.0469 456.469 71.1146 455.938 71.25C455.406 71.375 454.964 71.5625 454.609 71.8125C454.255 72.0625 453.99 72.3646 453.812 72.7188C453.635 73.0729 453.547 73.474 453.547 73.9219C453.547 74.3698 453.651 74.7812 453.859 75.1562C454.068 75.5208 454.37 75.8073 454.766 76.0156C455.172 76.224 455.661 76.3281 456.234 76.3281C457.005 76.3281 457.677 76.1719 458.25 75.8594C458.833 75.5365 459.292 75.1458 459.625 74.6875C459.958 74.2188 460.135 73.776 460.156 73.3594L461.375 75.0312C461.25 75.4583 461.036 75.9167 460.734 76.4062C460.432 76.8958 460.036 77.3646 459.547 77.8125C459.068 78.25 458.49 78.6094 457.812 78.8906C457.146 79.1719 456.375 79.3125 455.5 79.3125C454.396 79.3125 453.411 79.0938 452.547 78.6562C451.682 78.2083 451.005 77.6094 450.516 76.8594C450.026 76.099 449.781 75.2396 449.781 74.2812C449.781 73.3854 449.948 72.5938 450.281 71.9062C450.625 71.2083 451.125 70.625 451.781 70.1562C452.448 69.6875 453.26 69.3333 454.219 69.0938C455.177 68.8438 456.271 68.7188 457.5 68.7188H460.453ZM467.781 77.125C467.781 76.5417 467.979 76.0521 468.375 75.6562C468.771 75.25 469.307 75.0469 469.984 75.0469C470.672 75.0469 471.208 75.25 471.594 75.6562C471.99 76.0521 472.188 76.5417 472.188 77.125C472.188 77.7083 471.99 78.1979 471.594 78.5938C471.208 78.9896 470.672 79.1875 469.984 79.1875C469.307 79.1875 468.771 78.9896 468.375 78.5938C467.979 78.1979 467.781 77.7083 467.781 77.125Z" fill="#461102"/>
</svg>
