<svg width="700" height="100" viewBox="0 0 700 100" fill="none" xmlns="http://www.w3.org/2000/svg">
<path d="M39.4062 21.25V44H35.4844V21.25H39.4062ZM53.3906 39.4219C53.3906 39.0469 53.2969 38.7083 53.1094 38.4062C52.9219 38.0938 52.5625 37.8125 52.0312 37.5625C51.5104 37.3125 50.7396 37.0833 49.7188 36.875C48.8229 36.6771 48 36.4427 47.25 36.1719C46.5104 35.8906 45.875 35.5521 45.3438 35.1562C44.8125 34.7604 44.401 34.2917 44.1094 33.75C43.8177 33.2083 43.6719 32.5833 43.6719 31.875C43.6719 31.1875 43.8229 30.5365 44.125 29.9219C44.4271 29.3073 44.8594 28.7656 45.4219 28.2969C45.9844 27.8281 46.6667 27.4583 47.4688 27.1875C48.2812 26.9167 49.1875 26.7812 50.1875 26.7812C51.6042 26.7812 52.8177 27.0208 53.8281 27.5C54.849 27.9688 55.6302 28.6094 56.1719 29.4219C56.7135 30.224 56.9844 31.1302 56.9844 32.1406H53.2188C53.2188 31.6927 53.1042 31.276 52.875 30.8906C52.6562 30.4948 52.3229 30.1771 51.875 29.9375C51.4271 29.6875 50.8646 29.5625 50.1875 29.5625C49.5417 29.5625 49.0052 29.6667 48.5781 29.875C48.1615 30.0729 47.849 30.3333 47.6406 30.6562C47.4427 30.9792 47.3438 31.3333 47.3438 31.7188C47.3438 32 47.3958 32.2552 47.5 32.4844C47.6146 32.7031 47.8021 32.9062 48.0625 33.0938C48.3229 33.2708 48.6771 33.4375 49.125 33.5938C49.5833 33.75 50.1562 33.901 50.8438 34.0469C52.1354 34.3177 53.2448 34.6667 54.1719 35.0938C55.1094 35.5104 55.8281 36.0521 56.3281 36.7188C56.8281 37.375 57.0781 38.2083 57.0781 39.2188C57.0781 39.9688 56.9167 40.6562 56.5938 41.2812C56.2812 41.8958 55.8229 42.4323 55.2188 42.8906C54.6146 43.3385 53.8906 43.6875 53.0469 43.9375C52.2135 44.1875 51.276 44.3125 50.2344 44.3125C48.7031 44.3125 47.4062 44.0417 46.3438 43.5C45.2812 42.9479 44.474 42.2448 43.9219 41.3906C43.3802 40.526 43.1094 39.6302 43.1094 38.7031H46.75C46.7917 39.401 46.9844 39.9583 47.3281 40.375C47.6823 40.7812 48.1198 41.0781 48.6406 41.2656C49.1719 41.4427 49.7188 41.5312 50.2812 41.5312C50.9583 41.5312 51.526 41.4427 51.9844 41.2656C52.4427 41.0781 52.7917 40.8281 53.0312 40.5156C53.2708 40.1927 53.3906 39.8281 53.3906 39.4219ZM67.8281 44.3125C66.5781 44.3125 65.4479 44.1094 64.4375 43.7031C63.4375 43.2865 62.5833 42.7083 61.875 41.9688C61.1771 41.2292 60.6406 40.3594 60.2656 39.3594C59.8906 38.3594 59.7031 37.2812 59.7031 36.125V35.5C59.7031 34.1771 59.8958 32.9792 60.2812 31.9062C60.6667 30.8333 61.2031 29.9167 61.8906 29.1562C62.5781 28.3854 63.3906 27.7969 64.3281 27.3906C65.2656 26.9844 66.2812 26.7812 67.375 26.7812C68.5833 26.7812 69.6406 26.9844 70.5469 27.3906C71.4531 27.7969 72.2031 28.3698 72.7969 29.1094C73.401 29.8385 73.849 30.7083 74.1406 31.7188C74.4427 32.7292 74.5938 33.8438 74.5938 35.0625V36.6719H61.5312V33.9688H70.875V33.6719C70.8542 32.9948 70.7188 32.3594 70.4688 31.7656C70.2292 31.1719 69.8594 30.6927 69.3594 30.3281C68.8594 29.9635 68.1927 29.7812 67.3594 29.7812C66.7344 29.7812 66.1771 29.9167 65.6875 30.1875C65.2083 30.4479 64.8073 30.8281 64.4844 31.3281C64.1615 31.8281 63.9115 32.4323 63.7344 33.1406C63.5677 33.8385 63.4844 34.625 63.4844 35.5V36.125C63.4844 36.8646 63.5833 37.5521 63.7812 38.1875C63.9896 38.8125 64.2917 39.3594 64.6875 39.8281C65.0833 40.2969 65.5625 40.6667 66.125 40.9375C66.6875 41.1979 67.3281 41.3281 68.0469 41.3281C68.9531 41.3281 69.7604 41.1458 70.4688 40.7812C71.1771 40.4167 71.7917 39.901 72.3125 39.2344L74.2969 41.1562C73.9323 41.6875 73.4583 42.1979 72.875 42.6875C72.2917 43.1667 71.5781 43.5573 70.7344 43.8594C69.901 44.1615 68.9323 44.3125 67.8281 44.3125ZM88.3594 27.0938H91.7812V43.5312C91.7812 45.0521 91.4583 46.3438 90.8125 47.4062C90.1667 48.4688 89.2656 49.276 88.1094 49.8281C86.9531 50.3906 85.6146 50.6719 84.0938 50.6719C83.4479 50.6719 82.7292 50.5781 81.9375 50.3906C81.1562 50.2031 80.3958 49.901 79.6562 49.4844C78.9271 49.0781 78.3177 48.5417 77.8281 47.875L79.5938 45.6562C80.1979 46.375 80.8646 46.901 81.5938 47.2344C82.3229 47.5677 83.0885 47.7344 83.8906 47.7344C84.7552 47.7344 85.4896 47.5729 86.0938 47.25C86.7083 46.9375 87.1823 46.474 87.5156 45.8594C87.849 45.2448 88.0156 44.4948 88.0156 43.6094V30.9219L88.3594 27.0938ZM76.875 35.7344V35.4062C76.875 34.125 77.0312 32.9583 77.3438 31.9062C77.6562 30.8438 78.1042 29.9323 78.6875 29.1719C79.2708 28.401 79.9792 27.8125 80.8125 27.4062C81.6458 26.9896 82.5885 26.7812 83.6406 26.7812C84.7344 26.7812 85.6667 26.9792 86.4375 27.375C87.2188 27.7708 87.8698 28.3385 88.3906 29.0781C88.9115 29.8073 89.3177 30.6823 89.6094 31.7031C89.9115 32.7135 90.1354 33.8385 90.2812 35.0781V36.125C90.1458 37.3333 89.9167 38.4375 89.5938 39.4375C89.2708 40.4375 88.8438 41.3021 88.3125 42.0312C87.7812 42.7604 87.125 43.3229 86.3438 43.7188C85.5729 44.1146 84.6615 44.3125 83.6094 44.3125C82.5781 44.3125 81.6458 44.099 80.8125 43.6719C79.9896 43.2448 79.2812 42.6458 78.6875 41.875C78.1042 41.1042 77.6562 40.1979 77.3438 39.1562C77.0312 38.1042 76.875 36.9635 76.875 35.7344ZM80.6406 35.4062V35.7344C80.6406 36.5052 80.7135 37.224 80.8594 37.8906C81.0156 38.5573 81.25 39.1458 81.5625 39.6562C81.8854 40.1562 82.2917 40.5521 82.7812 40.8438C83.2812 41.125 83.8698 41.2656 84.5469 41.2656C85.4323 41.2656 86.1562 41.0781 86.7188 40.7031C87.2917 40.3281 87.7292 39.8229 88.0312 39.1875C88.3438 38.5417 88.5625 37.8229 88.6875 37.0312V34.2031C88.625 33.5885 88.4948 33.0156 88.2969 32.4844C88.1094 31.9531 87.8542 31.4896 87.5312 31.0938C87.2083 30.6875 86.8021 30.375 86.3125 30.1562C85.8229 29.9271 85.2448 29.8125 84.5781 29.8125C83.901 29.8125 83.3125 29.9583 82.8125 30.25C82.3125 30.5417 81.901 30.9427 81.5781 31.4531C81.2656 31.9635 81.0312 32.5573 80.875 33.2344C80.7188 33.9115 80.6406 34.6354 80.6406 35.4062ZM99.7188 27.0938V44H95.9375V27.0938H99.7188ZM95.6875 22.6562C95.6875 22.0833 95.875 21.6094 96.25 21.2344C96.6354 20.849 97.1667 20.6562 97.8438 20.6562C98.5104 20.6562 99.0365 20.849 99.4219 21.2344C99.8073 21.6094 100 22.0833 100 22.6562C100 23.2188 99.8073 23.6875 99.4219 24.0625C99.0365 24.4375 98.5104 24.625 97.8438 24.625C97.1667 24.625 96.6354 24.4375 96.25 24.0625C95.875 23.6875 95.6875 23.2188 95.6875 22.6562ZM115.609 20V44H111.828V20H115.609ZM126.109 27.0938L118.75 35.25L114.719 39.375L113.734 36.1875L116.781 32.4219L121.562 27.0938H126.109ZM122.375 44L116.891 36.0625L119.266 33.4219L126.734 44H122.375ZM138.672 40.0156V27.0938H142.453V44H138.891L138.672 40.0156ZM139.203 36.5L140.469 36.4688C140.469 37.6042 140.344 38.651 140.094 39.6094C139.844 40.5573 139.458 41.3854 138.938 42.0938C138.417 42.7917 137.75 43.3385 136.938 43.7344C136.125 44.1198 135.151 44.3125 134.016 44.3125C133.193 44.3125 132.438 44.1927 131.75 43.9531C131.062 43.7135 130.469 43.3438 129.969 42.8438C129.479 42.3438 129.099 41.6927 128.828 40.8906C128.557 40.0885 128.422 39.1302 128.422 38.0156V27.0938H132.188V38.0469C132.188 38.6615 132.26 39.1771 132.406 39.5938C132.552 40 132.75 40.3281 133 40.5781C133.25 40.8281 133.542 41.0052 133.875 41.1094C134.208 41.2135 134.562 41.2656 134.938 41.2656C136.01 41.2656 136.854 41.0573 137.469 40.6406C138.094 40.2135 138.536 39.6406 138.797 38.9219C139.068 38.2031 139.203 37.3958 139.203 36.5ZM150.344 27.0938V44H146.562V27.0938H150.344ZM146.312 22.6562C146.312 22.0833 146.5 21.6094 146.875 21.2344C147.26 20.849 147.792 20.6562 148.469 20.6562C149.135 20.6562 149.661 20.849 150.047 21.2344C150.432 21.6094 150.625 22.0833 150.625 22.6562C150.625 23.2188 150.432 23.6875 150.047 24.0625C149.661 24.4375 149.135 24.625 148.469 24.625C147.792 24.625 147.26 24.4375 146.875 24.0625C146.5 23.6875 146.312 23.2188 146.312 22.6562ZM171.922 39.4219C171.922 39.0469 171.828 38.7083 171.641 38.4062C171.453 38.0938 171.094 37.8125 170.562 37.5625C170.042 37.3125 169.271 37.0833 168.25 36.875C167.354 36.6771 166.531 36.4427 165.781 36.1719C165.042 35.8906 164.406 35.5521 163.875 35.1562C163.344 34.7604 162.932 34.2917 162.641 33.75C162.349 33.2083 162.203 32.5833 162.203 31.875C162.203 31.1875 162.354 30.5365 162.656 29.9219C162.958 29.3073 163.391 28.7656 163.953 28.2969C164.516 27.8281 165.198 27.4583 166 27.1875C166.812 26.9167 167.719 26.7812 168.719 26.7812C170.135 26.7812 171.349 27.0208 172.359 27.5C173.38 27.9688 174.161 28.6094 174.703 29.4219C175.245 30.224 175.516 31.1302 175.516 32.1406H171.75C171.75 31.6927 171.635 31.276 171.406 30.8906C171.188 30.4948 170.854 30.1771 170.406 29.9375C169.958 29.6875 169.396 29.5625 168.719 29.5625C168.073 29.5625 167.536 29.6667 167.109 29.875C166.693 30.0729 166.38 30.3333 166.172 30.6562C165.974 30.9792 165.875 31.3333 165.875 31.7188C165.875 32 165.927 32.2552 166.031 32.4844C166.146 32.7031 166.333 32.9062 166.594 33.0938C166.854 33.2708 167.208 33.4375 167.656 33.5938C168.115 33.75 168.688 33.901 169.375 34.0469C170.667 34.3177 171.776 34.6667 172.703 35.0938C173.641 35.5104 174.359 36.0521 174.859 36.7188C175.359 37.375 175.609 38.2083 175.609 39.2188C175.609 39.9688 175.448 40.6562 175.125 41.2812C174.812 41.8958 174.354 42.4323 173.75 42.8906C173.146 43.3385 172.422 43.6875 171.578 43.9375C170.745 44.1875 169.807 44.3125 168.766 44.3125C167.234 44.3125 165.938 44.0417 164.875 43.5C163.812 42.9479 163.005 42.2448 162.453 41.3906C161.911 40.526 161.641 39.6302 161.641 38.7031H165.281C165.323 39.401 165.516 39.9583 165.859 40.375C166.214 40.7812 166.651 41.0781 167.172 41.2656C167.703 41.4427 168.25 41.5312 168.812 41.5312C169.49 41.5312 170.057 41.4427 170.516 41.2656C170.974 41.0781 171.323 40.8281 171.562 40.5156C171.802 40.1927 171.922 39.8281 171.922 39.4219ZM186.359 44.3125C185.109 44.3125 183.979 44.1094 182.969 43.7031C181.969 43.2865 181.115 42.7083 180.406 41.9688C179.708 41.2292 179.172 40.3594 178.797 39.3594C178.422 38.3594 178.234 37.2812 178.234 36.125V35.5C178.234 34.1771 178.427 32.9792 178.812 31.9062C179.198 30.8333 179.734 29.9167 180.422 29.1562C181.109 28.3854 181.922 27.7969 182.859 27.3906C183.797 26.9844 184.812 26.7812 185.906 26.7812C187.115 26.7812 188.172 26.9844 189.078 27.3906C189.984 27.7969 190.734 28.3698 191.328 29.1094C191.932 29.8385 192.38 30.7083 192.672 31.7188C192.974 32.7292 193.125 33.8438 193.125 35.0625V36.6719H180.062V33.9688H189.406V33.6719C189.385 32.9948 189.25 32.3594 189 31.7656C188.76 31.1719 188.391 30.6927 187.891 30.3281C187.391 29.9635 186.724 29.7812 185.891 29.7812C185.266 29.7812 184.708 29.9167 184.219 30.1875C183.74 30.4479 183.339 30.8281 183.016 31.3281C182.693 31.8281 182.443 32.4323 182.266 33.1406C182.099 33.8385 182.016 34.625 182.016 35.5V36.125C182.016 36.8646 182.115 37.5521 182.312 38.1875C182.521 38.8125 182.823 39.3594 183.219 39.8281C183.615 40.2969 184.094 40.6667 184.656 40.9375C185.219 41.1979 185.859 41.3281 186.578 41.3281C187.484 41.3281 188.292 41.1458 189 40.7812C189.708 40.4167 190.323 39.901 190.844 39.2344L192.828 41.1562C192.464 41.6875 191.99 42.1979 191.406 42.6875C190.823 43.1667 190.109 43.5573 189.266 43.8594C188.432 44.1615 187.464 44.3125 186.359 44.3125ZM203.516 44.3125C202.266 44.3125 201.135 44.1094 200.125 43.7031C199.125 43.2865 198.271 42.7083 197.562 41.9688C196.865 41.2292 196.328 40.3594 195.953 39.3594C195.578 38.3594 195.391 37.2812 195.391 36.125V35.5C195.391 34.1771 195.583 32.9792 195.969 31.9062C196.354 30.8333 196.891 29.9167 197.578 29.1562C198.266 28.3854 199.078 27.7969 200.016 27.3906C200.953 26.9844 201.969 26.7812 203.062 26.7812C204.271 26.7812 205.328 26.9844 206.234 27.3906C207.141 27.7969 207.891 28.3698 208.484 29.1094C209.089 29.8385 209.536 30.7083 209.828 31.7188C210.13 32.7292 210.281 33.8438 210.281 35.0625V36.6719H197.219V33.9688H206.562V33.6719C206.542 32.9948 206.406 32.3594 206.156 31.7656C205.917 31.1719 205.547 30.6927 205.047 30.3281C204.547 29.9635 203.88 29.7812 203.047 29.7812C202.422 29.7812 201.865 29.9167 201.375 30.1875C200.896 30.4479 200.495 30.8281 200.172 31.3281C199.849 31.8281 199.599 32.4323 199.422 33.1406C199.255 33.8385 199.172 34.625 199.172 35.5V36.125C199.172 36.8646 199.271 37.5521 199.469 38.1875C199.677 38.8125 199.979 39.3594 200.375 39.8281C200.771 40.2969 201.25 40.6667 201.812 40.9375C202.375 41.1979 203.016 41.3281 203.734 41.3281C204.641 41.3281 205.448 41.1458 206.156 40.7812C206.865 40.4167 207.479 39.901 208 39.2344L209.984 41.1562C209.62 41.6875 209.146 42.1979 208.562 42.6875C207.979 43.1667 207.266 43.5573 206.422 43.8594C205.589 44.1615 204.62 44.3125 203.516 44.3125ZM224.922 30.7031V44H221.156V27.0938H224.703L224.922 30.7031ZM224.25 34.9219L223.031 34.9062C223.042 33.7083 223.208 32.6094 223.531 31.6094C223.865 30.6094 224.323 29.75 224.906 29.0312C225.5 28.3125 226.208 27.7604 227.031 27.375C227.854 26.9792 228.771 26.7812 229.781 26.7812C230.594 26.7812 231.328 26.8958 231.984 27.125C232.651 27.3438 233.219 27.7031 233.688 28.2031C234.167 28.7031 234.531 29.3542 234.781 30.1562C235.031 30.9479 235.156 31.9219 235.156 33.0781V44H231.375V33.0625C231.375 32.25 231.255 31.6094 231.016 31.1406C230.786 30.6615 230.448 30.3229 230 30.125C229.562 29.9167 229.016 29.8125 228.359 29.8125C227.714 29.8125 227.135 29.9479 226.625 30.2188C226.115 30.4896 225.682 30.8594 225.328 31.3281C224.984 31.7969 224.719 32.3385 224.531 32.9531C224.344 33.5677 224.25 34.224 224.25 34.9219ZM243.031 27.0938V44H239.25V27.0938H243.031ZM239 22.6562C239 22.0833 239.188 21.6094 239.562 21.2344C239.948 20.849 240.479 20.6562 241.156 20.6562C241.823 20.6562 242.349 20.849 242.734 21.2344C243.12 21.6094 243.312 22.0833 243.312 22.6562C243.312 23.2188 243.12 23.6875 242.734 24.0625C242.349 24.4375 241.823 24.625 241.156 24.625C240.479 24.625 239.948 24.4375 239.562 24.0625C239.188 23.6875 239 23.2188 239 22.6562ZM251.188 27.0938V44H247.406V27.0938H251.188ZM247.156 22.6562C247.156 22.0833 247.344 21.6094 247.719 21.2344C248.104 20.849 248.635 20.6562 249.312 20.6562C249.979 20.6562 250.505 20.849 250.891 21.2344C251.276 21.6094 251.469 22.0833 251.469 22.6562C251.469 23.2188 251.276 23.6875 250.891 24.0625C250.505 24.4375 249.979 24.625 249.312 24.625C248.635 24.625 248.104 24.4375 247.719 24.0625C247.344 23.6875 247.156 23.2188 247.156 22.6562ZM270.734 44.3125C269.484 44.3125 268.354 44.1094 267.344 43.7031C266.344 43.2865 265.49 42.7083 264.781 41.9688C264.083 41.2292 263.547 40.3594 263.172 39.3594C262.797 38.3594 262.609 37.2812 262.609 36.125V35.5C262.609 34.1771 262.802 32.9792 263.188 31.9062C263.573 30.8333 264.109 29.9167 264.797 29.1562C265.484 28.3854 266.297 27.7969 267.234 27.3906C268.172 26.9844 269.188 26.7812 270.281 26.7812C271.49 26.7812 272.547 26.9844 273.453 27.3906C274.359 27.7969 275.109 28.3698 275.703 29.1094C276.307 29.8385 276.755 30.7083 277.047 31.7188C277.349 32.7292 277.5 33.8438 277.5 35.0625V36.6719H264.438V33.9688H273.781V33.6719C273.76 32.9948 273.625 32.3594 273.375 31.7656C273.135 31.1719 272.766 30.6927 272.266 30.3281C271.766 29.9635 271.099 29.7812 270.266 29.7812C269.641 29.7812 269.083 29.9167 268.594 30.1875C268.115 30.4479 267.714 30.8281 267.391 31.3281C267.068 31.8281 266.818 32.4323 266.641 33.1406C266.474 33.8385 266.391 34.625 266.391 35.5V36.125C266.391 36.8646 266.49 37.5521 266.688 38.1875C266.896 38.8125 267.198 39.3594 267.594 39.8281C267.99 40.2969 268.469 40.6667 269.031 40.9375C269.594 41.1979 270.234 41.3281 270.953 41.3281C271.859 41.3281 272.667 41.1458 273.375 40.7812C274.083 40.4167 274.698 39.901 275.219 39.2344L277.203 41.1562C276.839 41.6875 276.365 42.1979 275.781 42.6875C275.198 43.1667 274.484 43.5573 273.641 43.8594C272.807 44.1615 271.839 44.3125 270.734 44.3125ZM284.469 27.0938V44H280.688V27.0938H284.469ZM280.438 22.6562C280.438 22.0833 280.625 21.6094 281 21.2344C281.385 20.849 281.917 20.6562 282.594 20.6562C283.26 20.6562 283.786 20.849 284.172 21.2344C284.557 21.6094 284.75 22.0833 284.75 22.6562C284.75 23.2188 284.557 23.6875 284.172 24.0625C283.786 24.4375 283.26 24.625 282.594 24.625C281.917 24.625 281.385 24.4375 281 24.0625C280.625 23.6875 280.438 23.2188 280.438 22.6562ZM300.594 20V44H296.812V20H300.594ZM314.25 40.6094V32.5469C314.25 31.9427 314.141 31.4219 313.922 30.9844C313.703 30.5469 313.37 30.2083 312.922 29.9688C312.484 29.7292 311.932 29.6094 311.266 29.6094C310.651 29.6094 310.12 29.7135 309.672 29.9219C309.224 30.1302 308.875 30.4115 308.625 30.7656C308.375 31.1198 308.25 31.5208 308.25 31.9688H304.5C304.5 31.3021 304.661 30.6562 304.984 30.0312C305.307 29.4062 305.776 28.849 306.391 28.3594C307.005 27.8698 307.74 27.4844 308.594 27.2031C309.448 26.9219 310.406 26.7812 311.469 26.7812C312.74 26.7812 313.865 26.9948 314.844 27.4219C315.833 27.849 316.609 28.4948 317.172 29.3594C317.745 30.2135 318.031 31.2865 318.031 32.5781V40.0938C318.031 40.8646 318.083 41.5573 318.188 42.1719C318.302 42.776 318.464 43.3021 318.672 43.75V44H314.812C314.635 43.5938 314.495 43.0781 314.391 42.4531C314.297 41.8177 314.25 41.2031 314.25 40.6094ZM314.797 33.7188L314.828 36.0469H312.125C311.427 36.0469 310.812 36.1146 310.281 36.25C309.75 36.375 309.307 36.5625 308.953 36.8125C308.599 37.0625 308.333 37.3646 308.156 37.7188C307.979 38.0729 307.891 38.474 307.891 38.9219C307.891 39.3698 307.995 39.7812 308.203 40.1562C308.411 40.5208 308.714 40.8073 309.109 41.0156C309.516 41.224 310.005 41.3281 310.578 41.3281C311.349 41.3281 312.021 41.1719 312.594 40.8594C313.177 40.5365 313.635 40.1458 313.969 39.6875C314.302 39.2188 314.479 38.776 314.5 38.3594L315.719 40.0312C315.594 40.4583 315.38 40.9167 315.078 41.4062C314.776 41.8958 314.38 42.3646 313.891 42.8125C313.411 43.25 312.833 43.6094 312.156 43.8906C311.49 44.1719 310.719 44.3125 309.844 44.3125C308.74 44.3125 307.755 44.0938 306.891 43.6562C306.026 43.2083 305.349 42.6094 304.859 41.8594C304.37 41.099 304.125 40.2396 304.125 39.2812C304.125 38.3854 304.292 37.5938 304.625 36.9062C304.969 36.2083 305.469 35.625 306.125 35.1562C306.792 34.6875 307.604 34.3333 308.562 34.0938C309.521 33.8438 310.615 33.7188 311.844 33.7188H314.797ZM306.062 22.6094C306.062 22.099 306.24 21.6719 306.594 21.3281C306.948 20.974 307.417 20.7969 308 20.7969C308.594 20.7969 309.068 20.974 309.422 21.3281C309.776 21.6719 309.953 22.099 309.953 22.6094C309.953 23.1094 309.776 23.5365 309.422 23.8906C309.068 24.2344 308.594 24.4062 308 24.4062C307.417 24.4062 306.948 24.2344 306.594 23.8906C306.24 23.5365 306.062 23.1094 306.062 22.6094ZM313.297 22.625C313.297 22.1146 313.474 21.6875 313.828 21.3438C314.182 20.9896 314.656 20.8125 315.25 20.8125C315.833 20.8125 316.302 20.9896 316.656 21.3438C317.021 21.6875 317.203 22.1146 317.203 22.625C317.203 23.125 317.021 23.5521 316.656 23.9062C316.302 24.25 315.833 24.4219 315.25 24.4219C314.656 24.4219 314.182 24.25 313.828 23.9062C313.474 23.5521 313.297 23.125 313.297 22.625ZM325.688 20V44H321.938V20H325.688ZM325.031 34.9219L323.812 34.9062C323.823 33.7396 323.984 32.6615 324.297 31.6719C324.62 30.6823 325.068 29.8229 325.641 29.0938C326.224 28.3542 326.922 27.7865 327.734 27.3906C328.547 26.9844 329.448 26.7812 330.438 26.7812C331.271 26.7812 332.021 26.8958 332.688 27.125C333.365 27.3542 333.948 27.724 334.438 28.2344C334.927 28.7344 335.297 29.3906 335.547 30.2031C335.807 31.0052 335.938 31.9844 335.938 33.1406V44H332.156V33.1094C332.156 32.2969 332.036 31.651 331.797 31.1719C331.568 30.6927 331.229 30.349 330.781 30.1406C330.333 29.9219 329.786 29.8125 329.141 29.8125C328.464 29.8125 327.865 29.9479 327.344 30.2188C326.833 30.4896 326.406 30.8594 326.062 31.3281C325.719 31.7969 325.458 32.3385 325.281 32.9531C325.115 33.5677 325.031 34.224 325.031 34.9219ZM347.203 44.3125C345.953 44.3125 344.823 44.1094 343.812 43.7031C342.812 43.2865 341.958 42.7083 341.25 41.9688C340.552 41.2292 340.016 40.3594 339.641 39.3594C339.266 38.3594 339.078 37.2812 339.078 36.125V35.5C339.078 34.1771 339.271 32.9792 339.656 31.9062C340.042 30.8333 340.578 29.9167 341.266 29.1562C341.953 28.3854 342.766 27.7969 343.703 27.3906C344.641 26.9844 345.656 26.7812 346.75 26.7812C347.958 26.7812 349.016 26.9844 349.922 27.3906C350.828 27.7969 351.578 28.3698 352.172 29.1094C352.776 29.8385 353.224 30.7083 353.516 31.7188C353.818 32.7292 353.969 33.8438 353.969 35.0625V36.6719H340.906V33.9688H350.25V33.6719C350.229 32.9948 350.094 32.3594 349.844 31.7656C349.604 31.1719 349.234 30.6927 348.734 30.3281C348.234 29.9635 347.568 29.7812 346.734 29.7812C346.109 29.7812 345.552 29.9167 345.062 30.1875C344.583 30.4479 344.182 30.8281 343.859 31.3281C343.536 31.8281 343.286 32.4323 343.109 33.1406C342.943 33.8385 342.859 34.625 342.859 35.5V36.125C342.859 36.8646 342.958 37.5521 343.156 38.1875C343.365 38.8125 343.667 39.3594 344.062 39.8281C344.458 40.2969 344.938 40.6667 345.5 40.9375C346.062 41.1979 346.703 41.3281 347.422 41.3281C348.328 41.3281 349.135 41.1458 349.844 40.7812C350.552 40.4167 351.167 39.901 351.688 39.2344L353.672 41.1562C353.307 41.6875 352.833 42.1979 352.25 42.6875C351.667 43.1667 350.953 43.5573 350.109 43.8594C349.276 44.1615 348.307 44.3125 347.203 44.3125ZM360.438 40.375L360.422 43.0625C360.422 44.125 360.156 45.2188 359.625 46.3438C359.094 47.4688 358.391 48.3958 357.516 49.125L355.5 47.9531C355.792 47.4844 356.057 47.0104 356.297 46.5312C356.536 46.0521 356.729 45.5417 356.875 45C357.021 44.4583 357.094 43.8594 357.094 43.2031V40.375H360.438ZM381.516 39.4219C381.516 39.0469 381.422 38.7083 381.234 38.4062C381.047 38.0938 380.688 37.8125 380.156 37.5625C379.635 37.3125 378.865 37.0833 377.844 36.875C376.948 36.6771 376.125 36.4427 375.375 36.1719C374.635 35.8906 374 35.5521 373.469 35.1562C372.938 34.7604 372.526 34.2917 372.234 33.75C371.943 33.2083 371.797 32.5833 371.797 31.875C371.797 31.1875 371.948 30.5365 372.25 29.9219C372.552 29.3073 372.984 28.7656 373.547 28.2969C374.109 27.8281 374.792 27.4583 375.594 27.1875C376.406 26.9167 377.312 26.7812 378.312 26.7812C379.729 26.7812 380.943 27.0208 381.953 27.5C382.974 27.9688 383.755 28.6094 384.297 29.4219C384.839 30.224 385.109 31.1302 385.109 32.1406H381.344C381.344 31.6927 381.229 31.276 381 30.8906C380.781 30.4948 380.448 30.1771 380 29.9375C379.552 29.6875 378.99 29.5625 378.312 29.5625C377.667 29.5625 377.13 29.6667 376.703 29.875C376.286 30.0729 375.974 30.3333 375.766 30.6562C375.568 30.9792 375.469 31.3333 375.469 31.7188C375.469 32 375.521 32.2552 375.625 32.4844C375.74 32.7031 375.927 32.9062 376.188 33.0938C376.448 33.2708 376.802 33.4375 377.25 33.5938C377.708 33.75 378.281 33.901 378.969 34.0469C380.26 34.3177 381.37 34.6667 382.297 35.0938C383.234 35.5104 383.953 36.0521 384.453 36.7188C384.953 37.375 385.203 38.2083 385.203 39.2188C385.203 39.9688 385.042 40.6562 384.719 41.2812C384.406 41.8958 383.948 42.4323 383.344 42.8906C382.74 43.3385 382.016 43.6875 381.172 43.9375C380.339 44.1875 379.401 44.3125 378.359 44.3125C376.828 44.3125 375.531 44.0417 374.469 43.5C373.406 42.9479 372.599 42.2448 372.047 41.3906C371.505 40.526 371.234 39.6302 371.234 38.7031H374.875C374.917 39.401 375.109 39.9583 375.453 40.375C375.807 40.7812 376.245 41.0781 376.766 41.2656C377.297 41.4427 377.844 41.5312 378.406 41.5312C379.083 41.5312 379.651 41.4427 380.109 41.2656C380.568 41.0781 380.917 40.8281 381.156 40.5156C381.396 40.1927 381.516 39.8281 381.516 39.4219ZM392.531 27.0938V44H388.75V27.0938H392.531ZM388.5 22.6562C388.5 22.0833 388.688 21.6094 389.062 21.2344C389.448 20.849 389.979 20.6562 390.656 20.6562C391.323 20.6562 391.849 20.849 392.234 21.2344C392.62 21.6094 392.812 22.0833 392.812 22.6562C392.812 23.2188 392.62 23.6875 392.234 24.0625C391.849 24.4375 391.323 24.625 390.656 24.625C389.979 24.625 389.448 24.4375 389.062 24.0625C388.688 23.6875 388.5 23.2188 388.5 22.6562ZM400.688 27.0938V44H396.906V27.0938H400.688ZM396.656 22.6562C396.656 22.0833 396.844 21.6094 397.219 21.2344C397.604 20.849 398.135 20.6562 398.812 20.6562C399.479 20.6562 400.005 20.849 400.391 21.2344C400.776 21.6094 400.969 22.0833 400.969 22.6562C400.969 23.2188 400.776 23.6875 400.391 24.0625C400.005 24.4375 399.479 24.625 398.812 24.625C398.135 24.625 397.604 24.4375 397.219 24.0625C396.844 23.6875 396.656 23.2188 396.656 22.6562ZM414.297 39.4219C414.297 39.0469 414.203 38.7083 414.016 38.4062C413.828 38.0938 413.469 37.8125 412.938 37.5625C412.417 37.3125 411.646 37.0833 410.625 36.875C409.729 36.6771 408.906 36.4427 408.156 36.1719C407.417 35.8906 406.781 35.5521 406.25 35.1562C405.719 34.7604 405.307 34.2917 405.016 33.75C404.724 33.2083 404.578 32.5833 404.578 31.875C404.578 31.1875 404.729 30.5365 405.031 29.9219C405.333 29.3073 405.766 28.7656 406.328 28.2969C406.891 27.8281 407.573 27.4583 408.375 27.1875C409.188 26.9167 410.094 26.7812 411.094 26.7812C412.51 26.7812 413.724 27.0208 414.734 27.5C415.755 27.9688 416.536 28.6094 417.078 29.4219C417.62 30.224 417.891 31.1302 417.891 32.1406H414.125C414.125 31.6927 414.01 31.276 413.781 30.8906C413.562 30.4948 413.229 30.1771 412.781 29.9375C412.333 29.6875 411.771 29.5625 411.094 29.5625C410.448 29.5625 409.911 29.6667 409.484 29.875C409.068 30.0729 408.755 30.3333 408.547 30.6562C408.349 30.9792 408.25 31.3333 408.25 31.7188C408.25 32 408.302 32.2552 408.406 32.4844C408.521 32.7031 408.708 32.9062 408.969 33.0938C409.229 33.2708 409.583 33.4375 410.031 33.5938C410.49 33.75 411.062 33.901 411.75 34.0469C413.042 34.3177 414.151 34.6667 415.078 35.0938C416.016 35.5104 416.734 36.0521 417.234 36.7188C417.734 37.375 417.984 38.2083 417.984 39.2188C417.984 39.9688 417.823 40.6562 417.5 41.2812C417.188 41.8958 416.729 42.4323 416.125 42.8906C415.521 43.3385 414.797 43.6875 413.953 43.9375C413.12 44.1875 412.182 44.3125 411.141 44.3125C409.609 44.3125 408.312 44.0417 407.25 43.5C406.188 42.9479 405.38 42.2448 404.828 41.3906C404.286 40.526 404.016 39.6302 404.016 38.7031H407.656C407.698 39.401 407.891 39.9583 408.234 40.375C408.589 40.7812 409.026 41.0781 409.547 41.2656C410.078 41.4427 410.625 41.5312 411.188 41.5312C411.865 41.5312 412.432 41.4427 412.891 41.2656C413.349 41.0781 413.698 40.8281 413.938 40.5156C414.177 40.1927 414.297 39.8281 414.297 39.4219ZM447.766 32V33.25C447.766 34.9688 447.542 36.5104 447.094 37.875C446.646 39.2396 446.005 40.401 445.172 41.3594C444.349 42.3177 443.359 43.0521 442.203 43.5625C441.047 44.0625 439.766 44.3125 438.359 44.3125C436.964 44.3125 435.688 44.0625 434.531 43.5625C433.385 43.0521 432.391 42.3177 431.547 41.3594C430.703 40.401 430.047 39.2396 429.578 37.875C429.12 36.5104 428.891 34.9688 428.891 33.25V32C428.891 30.2812 429.12 28.7448 429.578 27.3906C430.036 26.026 430.682 24.8646 431.516 23.9062C432.359 22.9375 433.354 22.2031 434.5 21.7031C435.656 21.1927 436.932 20.9375 438.328 20.9375C439.734 20.9375 441.016 21.1927 442.172 21.7031C443.328 22.2031 444.323 22.9375 445.156 23.9062C445.99 24.8646 446.63 26.026 447.078 27.3906C447.536 28.7448 447.766 30.2812 447.766 32ZM443.844 33.25V31.9688C443.844 30.6979 443.719 29.5781 443.469 28.6094C443.229 27.6302 442.87 26.8125 442.391 26.1562C441.922 25.4896 441.344 24.9896 440.656 24.6562C439.969 24.3125 439.193 24.1406 438.328 24.1406C437.464 24.1406 436.693 24.3125 436.016 24.6562C435.339 24.9896 434.76 25.4896 434.281 26.1562C433.812 26.8125 433.453 27.6302 433.203 28.6094C432.953 29.5781 432.828 30.6979 432.828 31.9688V33.25C432.828 34.5208 432.953 35.6458 433.203 36.625C433.453 37.6042 433.818 38.4323 434.297 39.1094C434.786 39.776 435.37 40.2812 436.047 40.625C436.724 40.9583 437.495 41.125 438.359 41.125C439.234 41.125 440.01 40.9583 440.688 40.625C441.365 40.2812 441.938 39.776 442.406 39.1094C442.875 38.4323 443.229 37.6042 443.469 36.625C443.719 35.6458 443.844 34.5208 443.844 33.25ZM441.766 15.3125L444.062 15.4844C444.062 16.2448 443.911 16.9271 443.609 17.5312C443.307 18.125 442.896 18.5938 442.375 18.9375C441.854 19.2812 441.266 19.4531 440.609 19.4531C440.099 19.4531 439.667 19.3802 439.312 19.2344C438.958 19.0885 438.635 18.9219 438.344 18.7344C438.052 18.5469 437.75 18.3854 437.438 18.25C437.135 18.1042 436.776 18.0312 436.359 18.0312C435.964 18.0312 435.625 18.1771 435.344 18.4688C435.073 18.7604 434.938 19.151 434.938 19.6406L432.625 19.5156C432.625 18.7656 432.776 18.0885 433.078 17.4844C433.38 16.8802 433.792 16.401 434.312 16.0469C434.833 15.6927 435.422 15.5156 436.078 15.5156C436.505 15.5156 436.891 15.5885 437.234 15.7344C437.589 15.8698 437.922 16.0312 438.234 16.2188C438.557 16.4062 438.885 16.5729 439.219 16.7188C439.552 16.8646 439.922 16.9375 440.328 16.9375C440.724 16.9375 441.062 16.7865 441.344 16.4844C441.625 16.1823 441.766 15.7917 441.766 15.3125ZM455.031 20V44H451.281V20H455.031ZM454.375 34.9219L453.156 34.9062C453.167 33.7396 453.328 32.6615 453.641 31.6719C453.964 30.6823 454.411 29.8229 454.984 29.0938C455.568 28.3542 456.266 27.7865 457.078 27.3906C457.891 26.9844 458.792 26.7812 459.781 26.7812C460.615 26.7812 461.365 26.8958 462.031 27.125C462.708 27.3542 463.292 27.724 463.781 28.2344C464.271 28.7344 464.641 29.3906 464.891 30.2031C465.151 31.0052 465.281 31.9844 465.281 33.1406V44H461.5V33.1094C461.5 32.2969 461.38 31.651 461.141 31.1719C460.911 30.6927 460.573 30.349 460.125 30.1406C459.677 29.9219 459.13 29.8125 458.484 29.8125C457.807 29.8125 457.208 29.9479 456.688 30.2188C456.177 30.4896 455.75 30.8594 455.406 31.3281C455.062 31.7969 454.802 32.3385 454.625 32.9531C454.458 33.5677 454.375 34.224 454.375 34.9219ZM476.844 27.0938V29.8438H467.312V27.0938H476.844ZM470.062 22.9531H473.828V39.3281C473.828 39.849 473.901 40.25 474.047 40.5312C474.203 40.8021 474.417 40.9844 474.688 41.0781C474.958 41.1719 475.276 41.2188 475.641 41.2188C475.901 41.2188 476.151 41.2031 476.391 41.1719C476.63 41.1406 476.823 41.1094 476.969 41.0781L476.984 43.9531C476.672 44.0469 476.307 44.1302 475.891 44.2031C475.484 44.276 475.016 44.3125 474.484 44.3125C473.62 44.3125 472.854 44.1615 472.188 43.8594C471.521 43.5469 471 43.0417 470.625 42.3438C470.25 41.6458 470.062 40.7188 470.062 39.5625V22.9531ZM489.922 40.0156V27.0938H493.703V44H490.141L489.922 40.0156ZM490.453 36.5L491.719 36.4688C491.719 37.6042 491.594 38.651 491.344 39.6094C491.094 40.5573 490.708 41.3854 490.188 42.0938C489.667 42.7917 489 43.3385 488.188 43.7344C487.375 44.1198 486.401 44.3125 485.266 44.3125C484.443 44.3125 483.688 44.1927 483 43.9531C482.312 43.7135 481.719 43.3438 481.219 42.8438C480.729 42.3438 480.349 41.6927 480.078 40.8906C479.807 40.0885 479.672 39.1302 479.672 38.0156V27.0938H483.438V38.0469C483.438 38.6615 483.51 39.1771 483.656 39.5938C483.802 40 484 40.3281 484.25 40.5781C484.5 40.8281 484.792 41.0052 485.125 41.1094C485.458 41.2135 485.812 41.2656 486.188 41.2656C487.26 41.2656 488.104 41.0573 488.719 40.6406C489.344 40.2135 489.786 39.6406 490.047 38.9219C490.318 38.2031 490.453 37.3958 490.453 36.5ZM501.594 20V44H497.812V20H501.594ZM513.172 44.3125C511.922 44.3125 510.792 44.1094 509.781 43.7031C508.781 43.2865 507.927 42.7083 507.219 41.9688C506.521 41.2292 505.984 40.3594 505.609 39.3594C505.234 38.3594 505.047 37.2812 505.047 36.125V35.5C505.047 34.1771 505.24 32.9792 505.625 31.9062C506.01 30.8333 506.547 29.9167 507.234 29.1562C507.922 28.3854 508.734 27.7969 509.672 27.3906C510.609 26.9844 511.625 26.7812 512.719 26.7812C513.927 26.7812 514.984 26.9844 515.891 27.3906C516.797 27.7969 517.547 28.3698 518.141 29.1094C518.745 29.8385 519.193 30.7083 519.484 31.7188C519.786 32.7292 519.938 33.8438 519.938 35.0625V36.6719H506.875V33.9688H516.219V33.6719C516.198 32.9948 516.062 32.3594 515.812 31.7656C515.573 31.1719 515.203 30.6927 514.703 30.3281C514.203 29.9635 513.536 29.7812 512.703 29.7812C512.078 29.7812 511.521 29.9167 511.031 30.1875C510.552 30.4479 510.151 30.8281 509.828 31.3281C509.505 31.8281 509.255 32.4323 509.078 33.1406C508.911 33.8385 508.828 34.625 508.828 35.5V36.125C508.828 36.8646 508.927 37.5521 509.125 38.1875C509.333 38.8125 509.635 39.3594 510.031 39.8281C510.427 40.2969 510.906 40.6667 511.469 40.9375C512.031 41.1979 512.672 41.3281 513.391 41.3281C514.297 41.3281 515.104 41.1458 515.812 40.7812C516.521 40.4167 517.135 39.901 517.656 39.2344L519.641 41.1562C519.276 41.6875 518.802 42.1979 518.219 42.6875C517.635 43.1667 516.922 43.5573 516.078 43.8594C515.245 44.1615 514.276 44.3125 513.172 44.3125ZM526.594 20V44H522.844V20H526.594ZM525.938 34.9219L524.719 34.9062C524.729 33.7396 524.891 32.6615 525.203 31.6719C525.526 30.6823 525.974 29.8229 526.547 29.0938C527.13 28.3542 527.828 27.7865 528.641 27.3906C529.453 26.9844 530.354 26.7812 531.344 26.7812C532.177 26.7812 532.927 26.8958 533.594 27.125C534.271 27.3542 534.854 27.724 535.344 28.2344C535.833 28.7344 536.203 29.3906 536.453 30.2031C536.714 31.0052 536.844 31.9844 536.844 33.1406V44H533.062V33.1094C533.062 32.2969 532.943 31.651 532.703 31.1719C532.474 30.6927 532.135 30.349 531.688 30.1406C531.24 29.9219 530.693 29.8125 530.047 29.8125C529.37 29.8125 528.771 29.9479 528.25 30.2188C527.74 30.4896 527.312 30.8594 526.969 31.3281C526.625 31.7969 526.365 32.3385 526.188 32.9531C526.021 33.5677 525.938 34.224 525.938 34.9219ZM548.109 44.3125C546.859 44.3125 545.729 44.1094 544.719 43.7031C543.719 43.2865 542.865 42.7083 542.156 41.9688C541.458 41.2292 540.922 40.3594 540.547 39.3594C540.172 38.3594 539.984 37.2812 539.984 36.125V35.5C539.984 34.1771 540.177 32.9792 540.562 31.9062C540.948 30.8333 541.484 29.9167 542.172 29.1562C542.859 28.3854 543.672 27.7969 544.609 27.3906C545.547 26.9844 546.562 26.7812 547.656 26.7812C548.865 26.7812 549.922 26.9844 550.828 27.3906C551.734 27.7969 552.484 28.3698 553.078 29.1094C553.682 29.8385 554.13 30.7083 554.422 31.7188C554.724 32.7292 554.875 33.8438 554.875 35.0625V36.6719H541.812V33.9688H551.156V33.6719C551.135 32.9948 551 32.3594 550.75 31.7656C550.51 31.1719 550.141 30.6927 549.641 30.3281C549.141 29.9635 548.474 29.7812 547.641 29.7812C547.016 29.7812 546.458 29.9167 545.969 30.1875C545.49 30.4479 545.089 30.8281 544.766 31.3281C544.443 31.8281 544.193 32.4323 544.016 33.1406C543.849 33.8385 543.766 34.625 543.766 35.5V36.125C543.766 36.8646 543.865 37.5521 544.062 38.1875C544.271 38.8125 544.573 39.3594 544.969 39.8281C545.365 40.2969 545.844 40.6667 546.406 40.9375C546.969 41.1979 547.609 41.3281 548.328 41.3281C549.234 41.3281 550.042 41.1458 550.75 40.7812C551.458 40.4167 552.073 39.901 552.594 39.2344L554.578 41.1562C554.214 41.6875 553.74 42.1979 553.156 42.6875C552.573 43.1667 551.859 43.5573 551.016 43.8594C550.182 44.1615 549.214 44.3125 548.109 44.3125ZM571.281 41.0156L575.422 27.0938H579.328L573.453 44H571.016L571.281 41.0156ZM568.109 27.0938L572.328 41.0781L572.531 44H570.094L564.188 27.0938H568.109ZM588.891 44.3125C587.641 44.3125 586.51 44.1094 585.5 43.7031C584.5 43.2865 583.646 42.7083 582.938 41.9688C582.24 41.2292 581.703 40.3594 581.328 39.3594C580.953 38.3594 580.766 37.2812 580.766 36.125V35.5C580.766 34.1771 580.958 32.9792 581.344 31.9062C581.729 30.8333 582.266 29.9167 582.953 29.1562C583.641 28.3854 584.453 27.7969 585.391 27.3906C586.328 26.9844 587.344 26.7812 588.438 26.7812C589.646 26.7812 590.703 26.9844 591.609 27.3906C592.516 27.7969 593.266 28.3698 593.859 29.1094C594.464 29.8385 594.911 30.7083 595.203 31.7188C595.505 32.7292 595.656 33.8438 595.656 35.0625V36.6719H582.594V33.9688H591.938V33.6719C591.917 32.9948 591.781 32.3594 591.531 31.7656C591.292 31.1719 590.922 30.6927 590.422 30.3281C589.922 29.9635 589.255 29.7812 588.422 29.7812C587.797 29.7812 587.24 29.9167 586.75 30.1875C586.271 30.4479 585.87 30.8281 585.547 31.3281C585.224 31.8281 584.974 32.4323 584.797 33.1406C584.63 33.8385 584.547 34.625 584.547 35.5V36.125C584.547 36.8646 584.646 37.5521 584.844 38.1875C585.052 38.8125 585.354 39.3594 585.75 39.8281C586.146 40.2969 586.625 40.6667 587.188 40.9375C587.75 41.1979 588.391 41.3281 589.109 41.3281C590.016 41.3281 590.823 41.1458 591.531 40.7812C592.24 40.4167 592.854 39.901 593.375 39.2344L595.359 41.1562C594.995 41.6875 594.521 42.1979 593.938 42.6875C593.354 43.1667 592.641 43.5573 591.797 43.8594C590.964 44.1615 589.995 44.3125 588.891 44.3125ZM606.047 44.3125C604.797 44.3125 603.667 44.1094 602.656 43.7031C601.656 43.2865 600.802 42.7083 600.094 41.9688C599.396 41.2292 598.859 40.3594 598.484 39.3594C598.109 38.3594 597.922 37.2812 597.922 36.125V35.5C597.922 34.1771 598.115 32.9792 598.5 31.9062C598.885 30.8333 599.422 29.9167 600.109 29.1562C600.797 28.3854 601.609 27.7969 602.547 27.3906C603.484 26.9844 604.5 26.7812 605.594 26.7812C606.802 26.7812 607.859 26.9844 608.766 27.3906C609.672 27.7969 610.422 28.3698 611.016 29.1094C611.62 29.8385 612.068 30.7083 612.359 31.7188C612.661 32.7292 612.812 33.8438 612.812 35.0625V36.6719H599.75V33.9688H609.094V33.6719C609.073 32.9948 608.938 32.3594 608.688 31.7656C608.448 31.1719 608.078 30.6927 607.578 30.3281C607.078 29.9635 606.411 29.7812 605.578 29.7812C604.953 29.7812 604.396 29.9167 603.906 30.1875C603.427 30.4479 603.026 30.8281 602.703 31.3281C602.38 31.8281 602.13 32.4323 601.953 33.1406C601.786 33.8385 601.703 34.625 601.703 35.5V36.125C601.703 36.8646 601.802 37.5521 602 38.1875C602.208 38.8125 602.51 39.3594 602.906 39.8281C603.302 40.2969 603.781 40.6667 604.344 40.9375C604.906 41.1979 605.547 41.3281 606.266 41.3281C607.172 41.3281 607.979 41.1458 608.688 40.7812C609.396 40.4167 610.01 39.901 610.531 39.2344L612.516 41.1562C612.151 41.6875 611.677 42.1979 611.094 42.6875C610.51 43.1667 609.797 43.5573 608.953 43.8594C608.12 44.1615 607.151 44.3125 606.047 44.3125ZM615.766 20H619.531V40.3906L619.172 44H615.766V20ZM630.562 35.3906V35.7188C630.562 36.9688 630.422 38.1198 630.141 39.1719C629.87 40.2135 629.453 41.1198 628.891 41.8906C628.339 42.6615 627.651 43.2604 626.828 43.6875C626.016 44.1042 625.073 44.3125 624 44.3125C622.948 44.3125 622.031 44.1146 621.25 43.7188C620.469 43.3229 619.812 42.7604 619.281 42.0312C618.76 41.3021 618.339 40.4323 618.016 39.4219C617.693 38.4115 617.464 37.2969 617.328 36.0781V35.0312C617.464 33.8021 617.693 32.6875 618.016 31.6875C618.339 30.6771 618.76 29.8073 619.281 29.0781C619.812 28.3385 620.464 27.7708 621.234 27.375C622.016 26.9792 622.927 26.7812 623.969 26.7812C625.052 26.7812 626.005 26.9896 626.828 27.4062C627.661 27.8229 628.354 28.4167 628.906 29.1875C629.458 29.9479 629.87 30.8542 630.141 31.9062C630.422 32.9583 630.562 34.1198 630.562 35.3906ZM626.797 35.7188V35.3906C626.797 34.6302 626.734 33.9167 626.609 33.25C626.484 32.5729 626.276 31.9792 625.984 31.4688C625.703 30.9583 625.318 30.5573 624.828 30.2656C624.349 29.9635 623.75 29.8125 623.031 29.8125C622.365 29.8125 621.792 29.9271 621.312 30.1562C620.833 30.3854 620.432 30.6979 620.109 31.0938C619.786 31.4896 619.531 31.9479 619.344 32.4688C619.167 32.9896 619.047 33.5521 618.984 34.1562V36.9844C619.078 37.7656 619.276 38.4844 619.578 39.1406C619.891 39.7865 620.328 40.3073 620.891 40.7031C621.453 41.0885 622.177 41.2812 623.062 41.2812C623.76 41.2812 624.349 41.1406 624.828 40.8594C625.307 40.5781 625.688 40.1875 625.969 39.6875C626.26 39.1771 626.469 38.5833 626.594 37.9062C626.729 37.2292 626.797 36.5 626.797 35.7188ZM637.781 27.0938V44H634V27.0938H637.781ZM633.75 22.6562C633.75 22.0833 633.938 21.6094 634.312 21.2344C634.698 20.849 635.229 20.6562 635.906 20.6562C636.573 20.6562 637.099 20.849 637.484 21.2344C637.87 21.6094 638.062 22.0833 638.062 22.6562C638.062 23.2188 637.87 23.6875 637.484 24.0625C637.099 24.4375 636.573 24.625 635.906 24.625C635.229 24.625 634.698 24.4375 634.312 24.0625C633.938 23.6875 633.75 23.2188 633.75 22.6562ZM651.391 39.4219C651.391 39.0469 651.297 38.7083 651.109 38.4062C650.922 38.0938 650.562 37.8125 650.031 37.5625C649.51 37.3125 648.74 37.0833 647.719 36.875C646.823 36.6771 646 36.4427 645.25 36.1719C644.51 35.8906 643.875 35.5521 643.344 35.1562C642.812 34.7604 642.401 34.2917 642.109 33.75C641.818 33.2083 641.672 32.5833 641.672 31.875C641.672 31.1875 641.823 30.5365 642.125 29.9219C642.427 29.3073 642.859 28.7656 643.422 28.2969C643.984 27.8281 644.667 27.4583 645.469 27.1875C646.281 26.9167 647.188 26.7812 648.188 26.7812C649.604 26.7812 650.818 27.0208 651.828 27.5C652.849 27.9688 653.63 28.6094 654.172 29.4219C654.714 30.224 654.984 31.1302 654.984 32.1406H651.219C651.219 31.6927 651.104 31.276 650.875 30.8906C650.656 30.4948 650.323 30.1771 649.875 29.9375C649.427 29.6875 648.865 29.5625 648.188 29.5625C647.542 29.5625 647.005 29.6667 646.578 29.875C646.161 30.0729 645.849 30.3333 645.641 30.6562C645.443 30.9792 645.344 31.3333 645.344 31.7188C645.344 32 645.396 32.2552 645.5 32.4844C645.615 32.7031 645.802 32.9062 646.062 33.0938C646.323 33.2708 646.677 33.4375 647.125 33.5938C647.583 33.75 648.156 33.901 648.844 34.0469C650.135 34.3177 651.245 34.6667 652.172 35.0938C653.109 35.5104 653.828 36.0521 654.328 36.7188C654.828 37.375 655.078 38.2083 655.078 39.2188C655.078 39.9688 654.917 40.6562 654.594 41.2812C654.281 41.8958 653.823 42.4323 653.219 42.8906C652.615 43.3385 651.891 43.6875 651.047 43.9375C650.214 44.1875 649.276 44.3125 648.234 44.3125C646.703 44.3125 645.406 44.0417 644.344 43.5C643.281 42.9479 642.474 42.2448 641.922 41.3906C641.38 40.526 641.109 39.6302 641.109 38.7031H644.75C644.792 39.401 644.984 39.9583 645.328 40.375C645.682 40.7812 646.12 41.0781 646.641 41.2656C647.172 41.4427 647.719 41.5312 648.281 41.5312C648.958 41.5312 649.526 41.4427 649.984 41.2656C650.443 41.0781 650.792 40.8281 651.031 40.5156C651.271 40.1927 651.391 39.8281 651.391 39.4219ZM666.125 27.0938V29.8438H656.594V27.0938H666.125ZM659.344 22.9531H663.109V39.3281C663.109 39.849 663.182 40.25 663.328 40.5312C663.484 40.8021 663.698 40.9844 663.969 41.0781C664.24 41.1719 664.557 41.2188 664.922 41.2188C665.182 41.2188 665.432 41.2031 665.672 41.1719C665.911 41.1406 666.104 41.1094 666.25 41.0781L666.266 43.9531C665.953 44.0469 665.589 44.1302 665.172 44.2031C664.766 44.276 664.297 44.3125 663.766 44.3125C662.901 44.3125 662.135 44.1615 661.469 43.8594C660.802 43.5469 660.281 43.0417 659.906 42.3438C659.531 41.6458 659.344 40.7188 659.344 39.5625V22.9531ZM161.812 74.4219C161.812 74.0469 161.719 73.7083 161.531 73.4062C161.344 73.0938 160.984 72.8125 160.453 72.5625C159.932 72.3125 159.161 72.0833 158.141 71.875C157.245 71.6771 156.422 71.4427 155.672 71.1719C154.932 70.8906 154.297 70.5521 153.766 70.1562C153.234 69.7604 152.823 69.2917 152.531 68.75C152.24 68.2083 152.094 67.5833 152.094 66.875C152.094 66.1875 152.245 65.5365 152.547 64.9219C152.849 64.3073 153.281 63.7656 153.844 63.2969C154.406 62.8281 155.089 62.4583 155.891 62.1875C156.703 61.9167 157.609 61.7812 158.609 61.7812C160.026 61.7812 161.24 62.0208 162.25 62.5C163.271 62.9688 164.052 63.6094 164.594 64.4219C165.135 65.224 165.406 66.1302 165.406 67.1406H161.641C161.641 66.6927 161.526 66.276 161.297 65.8906C161.078 65.4948 160.745 65.1771 160.297 64.9375C159.849 64.6875 159.286 64.5625 158.609 64.5625C157.964 64.5625 157.427 64.6667 157 64.875C156.583 65.0729 156.271 65.3333 156.062 65.6562C155.865 65.9792 155.766 66.3333 155.766 66.7188C155.766 67 155.818 67.2552 155.922 67.4844C156.036 67.7031 156.224 67.9062 156.484 68.0938C156.745 68.2708 157.099 68.4375 157.547 68.5938C158.005 68.75 158.578 68.901 159.266 69.0469C160.557 69.3177 161.667 69.6667 162.594 70.0938C163.531 70.5104 164.25 71.0521 164.75 71.7188C165.25 72.375 165.5 73.2083 165.5 74.2188C165.5 74.9688 165.339 75.6562 165.016 76.2812C164.703 76.8958 164.245 77.4323 163.641 77.8906C163.036 78.3385 162.312 78.6875 161.469 78.9375C160.635 79.1875 159.698 79.3125 158.656 79.3125C157.125 79.3125 155.828 79.0417 154.766 78.5C153.703 77.9479 152.896 77.2448 152.344 76.3906C151.802 75.526 151.531 74.6302 151.531 73.7031H155.172C155.214 74.401 155.406 74.9583 155.75 75.375C156.104 75.7812 156.542 76.0781 157.062 76.2656C157.594 76.4427 158.141 76.5312 158.703 76.5312C159.38 76.5312 159.948 76.4427 160.406 76.2656C160.865 76.0781 161.214 75.8281 161.453 75.5156C161.693 75.1927 161.812 74.8281 161.812 74.4219ZM178.328 75.6094V67.5469C178.328 66.9427 178.219 66.4219 178 65.9844C177.781 65.5469 177.448 65.2083 177 64.9688C176.562 64.7292 176.01 64.6094 175.344 64.6094C174.729 64.6094 174.198 64.7135 173.75 64.9219C173.302 65.1302 172.953 65.4115 172.703 65.7656C172.453 66.1198 172.328 66.5208 172.328 66.9688H168.578C168.578 66.3021 168.74 65.6562 169.062 65.0312C169.385 64.4062 169.854 63.849 170.469 63.3594C171.083 62.8698 171.818 62.4844 172.672 62.2031C173.526 61.9219 174.484 61.7812 175.547 61.7812C176.818 61.7812 177.943 61.9948 178.922 62.4219C179.911 62.849 180.688 63.4948 181.25 64.3594C181.823 65.2135 182.109 66.2865 182.109 67.5781V75.0938C182.109 75.8646 182.161 76.5573 182.266 77.1719C182.38 77.776 182.542 78.3021 182.75 78.75V79H178.891C178.714 78.5938 178.573 78.0781 178.469 77.4531C178.375 76.8177 178.328 76.2031 178.328 75.6094ZM178.875 68.7188L178.906 71.0469H176.203C175.505 71.0469 174.891 71.1146 174.359 71.25C173.828 71.375 173.385 71.5625 173.031 71.8125C172.677 72.0625 172.411 72.3646 172.234 72.7188C172.057 73.0729 171.969 73.474 171.969 73.9219C171.969 74.3698 172.073 74.7812 172.281 75.1562C172.49 75.5208 172.792 75.8073 173.188 76.0156C173.594 76.224 174.083 76.3281 174.656 76.3281C175.427 76.3281 176.099 76.1719 176.672 75.8594C177.255 75.5365 177.714 75.1458 178.047 74.6875C178.38 74.2188 178.557 73.776 178.578 73.3594L179.797 75.0312C179.672 75.4583 179.458 75.9167 179.156 76.4062C178.854 76.8958 178.458 77.3646 177.969 77.8125C177.49 78.25 176.911 78.6094 176.234 78.8906C175.568 79.1719 174.797 79.3125 173.922 79.3125C172.818 79.3125 171.833 79.0938 170.969 78.6562C170.104 78.2083 169.427 77.6094 168.938 76.8594C168.448 76.099 168.203 75.2396 168.203 74.2812C168.203 73.3854 168.37 72.5938 168.703 71.9062C169.047 71.2083 169.547 70.625 170.203 70.1562C170.87 69.6875 171.682 69.3333 172.641 69.0938C173.599 68.8438 174.693 68.7188 175.922 68.7188H178.875ZM195.578 75.6094V67.5469C195.578 66.9427 195.469 66.4219 195.25 65.9844C195.031 65.5469 194.698 65.2083 194.25 64.9688C193.812 64.7292 193.26 64.6094 192.594 64.6094C191.979 64.6094 191.448 64.7135 191 64.9219C190.552 65.1302 190.203 65.4115 189.953 65.7656C189.703 66.1198 189.578 66.5208 189.578 66.9688H185.828C185.828 66.3021 185.99 65.6562 186.312 65.0312C186.635 64.4062 187.104 63.849 187.719 63.3594C188.333 62.8698 189.068 62.4844 189.922 62.2031C190.776 61.9219 191.734 61.7812 192.797 61.7812C194.068 61.7812 195.193 61.9948 196.172 62.4219C197.161 62.849 197.938 63.4948 198.5 64.3594C199.073 65.2135 199.359 66.2865 199.359 67.5781V75.0938C199.359 75.8646 199.411 76.5573 199.516 77.1719C199.63 77.776 199.792 78.3021 200 78.75V79H196.141C195.964 78.5938 195.823 78.0781 195.719 77.4531C195.625 76.8177 195.578 76.2031 195.578 75.6094ZM196.125 68.7188L196.156 71.0469H193.453C192.755 71.0469 192.141 71.1146 191.609 71.25C191.078 71.375 190.635 71.5625 190.281 71.8125C189.927 72.0625 189.661 72.3646 189.484 72.7188C189.307 73.0729 189.219 73.474 189.219 73.9219C189.219 74.3698 189.323 74.7812 189.531 75.1562C189.74 75.5208 190.042 75.8073 190.438 76.0156C190.844 76.224 191.333 76.3281 191.906 76.3281C192.677 76.3281 193.349 76.1719 193.922 75.8594C194.505 75.5365 194.964 75.1458 195.297 74.6875C195.63 74.2188 195.807 73.776 195.828 73.3594L197.047 75.0312C196.922 75.4583 196.708 75.9167 196.406 76.4062C196.104 76.8958 195.708 77.3646 195.219 77.8125C194.74 78.25 194.161 78.6094 193.484 78.8906C192.818 79.1719 192.047 79.3125 191.172 79.3125C190.068 79.3125 189.083 79.0938 188.219 78.6562C187.354 78.2083 186.677 77.6094 186.188 76.8594C185.698 76.099 185.453 75.2396 185.453 74.2812C185.453 73.3854 185.62 72.5938 185.953 71.9062C186.297 71.2083 186.797 70.625 187.453 70.1562C188.12 69.6875 188.932 69.3333 189.891 69.0938C190.849 68.8438 191.943 68.7188 193.172 68.7188H196.125ZM213.609 75.5V55H217.391V79H213.969L213.609 75.5ZM202.609 70.7344V70.4062C202.609 69.125 202.76 67.9583 203.062 66.9062C203.365 65.8438 203.802 64.9323 204.375 64.1719C204.948 63.401 205.646 62.8125 206.469 62.4062C207.292 61.9896 208.219 61.7812 209.25 61.7812C210.271 61.7812 211.167 61.9792 211.938 62.375C212.708 62.7708 213.365 63.3385 213.906 64.0781C214.448 64.8073 214.88 65.6823 215.203 66.7031C215.526 67.7135 215.755 68.8385 215.891 70.0781V71.125C215.755 72.3333 215.526 73.4375 215.203 74.4375C214.88 75.4375 214.448 76.3021 213.906 77.0312C213.365 77.7604 212.703 78.3229 211.922 78.7188C211.151 79.1146 210.25 79.3125 209.219 79.3125C208.198 79.3125 207.276 79.099 206.453 78.6719C205.641 78.2448 204.948 77.6458 204.375 76.875C203.802 76.1042 203.365 75.1979 203.062 74.1562C202.76 73.1042 202.609 71.9635 202.609 70.7344ZM206.375 70.4062V70.7344C206.375 71.5052 206.443 72.224 206.578 72.8906C206.724 73.5573 206.948 74.1458 207.25 74.6562C207.552 75.1562 207.943 75.5521 208.422 75.8438C208.911 76.125 209.495 76.2656 210.172 76.2656C211.026 76.2656 211.729 76.0781 212.281 75.7031C212.833 75.3281 213.266 74.8229 213.578 74.1875C213.901 73.5417 214.12 72.8229 214.234 72.0312V69.2031C214.172 68.5885 214.042 68.0156 213.844 67.4844C213.656 66.9531 213.401 66.4896 213.078 66.0938C212.755 65.6875 212.354 65.375 211.875 65.1562C211.406 64.9271 210.849 64.8125 210.203 64.8125C209.516 64.8125 208.932 64.9583 208.453 65.25C207.974 65.5417 207.578 65.9427 207.266 66.4531C206.964 66.9635 206.74 67.5573 206.594 68.2344C206.448 68.9115 206.375 69.6354 206.375 70.4062ZM238.828 75.6094V67.5469C238.828 66.9427 238.719 66.4219 238.5 65.9844C238.281 65.5469 237.948 65.2083 237.5 64.9688C237.062 64.7292 236.51 64.6094 235.844 64.6094C235.229 64.6094 234.698 64.7135 234.25 64.9219C233.802 65.1302 233.453 65.4115 233.203 65.7656C232.953 66.1198 232.828 66.5208 232.828 66.9688H229.078C229.078 66.3021 229.24 65.6562 229.562 65.0312C229.885 64.4062 230.354 63.849 230.969 63.3594C231.583 62.8698 232.318 62.4844 233.172 62.2031C234.026 61.9219 234.984 61.7812 236.047 61.7812C237.318 61.7812 238.443 61.9948 239.422 62.4219C240.411 62.849 241.188 63.4948 241.75 64.3594C242.323 65.2135 242.609 66.2865 242.609 67.5781V75.0938C242.609 75.8646 242.661 76.5573 242.766 77.1719C242.88 77.776 243.042 78.3021 243.25 78.75V79H239.391C239.214 78.5938 239.073 78.0781 238.969 77.4531C238.875 76.8177 238.828 76.2031 238.828 75.6094ZM239.375 68.7188L239.406 71.0469H236.703C236.005 71.0469 235.391 71.1146 234.859 71.25C234.328 71.375 233.885 71.5625 233.531 71.8125C233.177 72.0625 232.911 72.3646 232.734 72.7188C232.557 73.0729 232.469 73.474 232.469 73.9219C232.469 74.3698 232.573 74.7812 232.781 75.1562C232.99 75.5208 233.292 75.8073 233.688 76.0156C234.094 76.224 234.583 76.3281 235.156 76.3281C235.927 76.3281 236.599 76.1719 237.172 75.8594C237.755 75.5365 238.214 75.1458 238.547 74.6875C238.88 74.2188 239.057 73.776 239.078 73.3594L240.297 75.0312C240.172 75.4583 239.958 75.9167 239.656 76.4062C239.354 76.8958 238.958 77.3646 238.469 77.8125C237.99 78.25 237.411 78.6094 236.734 78.8906C236.068 79.1719 235.297 79.3125 234.422 79.3125C233.318 79.3125 232.333 79.0938 231.469 78.6562C230.604 78.2083 229.927 77.6094 229.438 76.8594C228.948 76.099 228.703 75.2396 228.703 74.2812C228.703 73.3854 228.87 72.5938 229.203 71.9062C229.547 71.2083 230.047 70.625 230.703 70.1562C231.37 69.6875 232.182 69.3333 233.141 69.0938C234.099 68.8438 235.193 68.7188 236.422 68.7188H239.375ZM250.578 55V79H246.797V55H250.578ZM264.234 75.6094V67.5469C264.234 66.9427 264.125 66.4219 263.906 65.9844C263.688 65.5469 263.354 65.2083 262.906 64.9688C262.469 64.7292 261.917 64.6094 261.25 64.6094C260.635 64.6094 260.104 64.7135 259.656 64.9219C259.208 65.1302 258.859 65.4115 258.609 65.7656C258.359 66.1198 258.234 66.5208 258.234 66.9688H254.484C254.484 66.3021 254.646 65.6562 254.969 65.0312C255.292 64.4062 255.76 63.849 256.375 63.3594C256.99 62.8698 257.724 62.4844 258.578 62.2031C259.432 61.9219 260.391 61.7812 261.453 61.7812C262.724 61.7812 263.849 61.9948 264.828 62.4219C265.818 62.849 266.594 63.4948 267.156 64.3594C267.729 65.2135 268.016 66.2865 268.016 67.5781V75.0938C268.016 75.8646 268.068 76.5573 268.172 77.1719C268.286 77.776 268.448 78.3021 268.656 78.75V79H264.797C264.62 78.5938 264.479 78.0781 264.375 77.4531C264.281 76.8177 264.234 76.2031 264.234 75.6094ZM264.781 68.7188L264.812 71.0469H262.109C261.411 71.0469 260.797 71.1146 260.266 71.25C259.734 71.375 259.292 71.5625 258.938 71.8125C258.583 72.0625 258.318 72.3646 258.141 72.7188C257.964 73.0729 257.875 73.474 257.875 73.9219C257.875 74.3698 257.979 74.7812 258.188 75.1562C258.396 75.5208 258.698 75.8073 259.094 76.0156C259.5 76.224 259.99 76.3281 260.562 76.3281C261.333 76.3281 262.005 76.1719 262.578 75.8594C263.161 75.5365 263.62 75.1458 263.953 74.6875C264.286 74.2188 264.464 73.776 264.484 73.3594L265.703 75.0312C265.578 75.4583 265.365 75.9167 265.062 76.4062C264.76 76.8958 264.365 77.3646 263.875 77.8125C263.396 78.25 262.818 78.6094 262.141 78.8906C261.474 79.1719 260.703 79.3125 259.828 79.3125C258.724 79.3125 257.74 79.0938 256.875 78.6562C256.01 78.2083 255.333 77.6094 254.844 76.8594C254.354 76.099 254.109 75.2396 254.109 74.2812C254.109 73.3854 254.276 72.5938 254.609 71.9062C254.953 71.2083 255.453 70.625 256.109 70.1562C256.776 69.6875 257.589 69.3333 258.547 69.0938C259.505 68.8438 260.599 68.7188 261.828 68.7188H264.781ZM279.703 62.0938V64.8438H270.172V62.0938H279.703ZM272.922 57.9531H276.688V74.3281C276.688 74.849 276.76 75.25 276.906 75.5312C277.062 75.8021 277.276 75.9844 277.547 76.0781C277.818 76.1719 278.135 76.2188 278.5 76.2188C278.76 76.2188 279.01 76.2031 279.25 76.1719C279.49 76.1406 279.682 76.1094 279.828 76.0781L279.844 78.9531C279.531 79.0469 279.167 79.1302 278.75 79.2031C278.344 79.276 277.875 79.3125 277.344 79.3125C276.479 79.3125 275.714 79.1615 275.047 78.8594C274.38 78.5469 273.859 78.0417 273.484 77.3438C273.109 76.6458 272.922 75.7188 272.922 74.5625V57.9531ZM286.641 62.0938V79H282.859V62.0938H286.641ZM282.609 57.6562C282.609 57.0833 282.797 56.6094 283.172 56.2344C283.557 55.849 284.089 55.6562 284.766 55.6562C285.432 55.6562 285.958 55.849 286.344 56.2344C286.729 56.6094 286.922 57.0833 286.922 57.6562C286.922 58.2188 286.729 58.6875 286.344 59.0625C285.958 59.4375 285.432 59.625 284.766 59.625C284.089 59.625 283.557 59.4375 283.172 59.0625C282.797 58.6875 282.609 58.2188 282.609 57.6562ZM302.469 65.7031V79H298.703V62.0938H302.25L302.469 65.7031ZM301.797 69.9219L300.578 69.9062C300.589 68.7083 300.755 67.6094 301.078 66.6094C301.411 65.6094 301.87 64.75 302.453 64.0312C303.047 63.3125 303.755 62.7604 304.578 62.375C305.401 61.9792 306.318 61.7812 307.328 61.7812C308.141 61.7812 308.875 61.8958 309.531 62.125C310.198 62.3438 310.766 62.7031 311.234 63.2031C311.714 63.7031 312.078 64.3542 312.328 65.1562C312.578 65.9479 312.703 66.9219 312.703 68.0781V79H308.922V68.0625C308.922 67.25 308.802 66.6094 308.562 66.1406C308.333 65.6615 307.995 65.3229 307.547 65.125C307.109 64.9167 306.562 64.8125 305.906 64.8125C305.26 64.8125 304.682 64.9479 304.172 65.2188C303.661 65.4896 303.229 65.8594 302.875 66.3281C302.531 66.7969 302.266 67.3385 302.078 67.9531C301.891 68.5677 301.797 69.224 301.797 69.9219ZM324 79.3125C322.75 79.3125 321.62 79.1094 320.609 78.7031C319.609 78.2865 318.755 77.7083 318.047 76.9688C317.349 76.2292 316.812 75.3594 316.438 74.3594C316.062 73.3594 315.875 72.2812 315.875 71.125V70.5C315.875 69.1771 316.068 67.9792 316.453 66.9062C316.839 65.8333 317.375 64.9167 318.062 64.1562C318.75 63.3854 319.562 62.7969 320.5 62.3906C321.438 61.9844 322.453 61.7812 323.547 61.7812C324.755 61.7812 325.812 61.9844 326.719 62.3906C327.625 62.7969 328.375 63.3698 328.969 64.1094C329.573 64.8385 330.021 65.7083 330.312 66.7188C330.615 67.7292 330.766 68.8438 330.766 70.0625V71.6719H317.703V68.9688H327.047V68.6719C327.026 67.9948 326.891 67.3594 326.641 66.7656C326.401 66.1719 326.031 65.6927 325.531 65.3281C325.031 64.9635 324.365 64.7812 323.531 64.7812C322.906 64.7812 322.349 64.9167 321.859 65.1875C321.38 65.4479 320.979 65.8281 320.656 66.3281C320.333 66.8281 320.083 67.4323 319.906 68.1406C319.74 68.8385 319.656 69.625 319.656 70.5V71.125C319.656 71.8646 319.755 72.5521 319.953 73.1875C320.161 73.8125 320.464 74.3594 320.859 74.8281C321.255 75.2969 321.734 75.6667 322.297 75.9375C322.859 76.1979 323.5 76.3281 324.219 76.3281C325.125 76.3281 325.932 76.1458 326.641 75.7812C327.349 75.4167 327.964 74.901 328.484 74.2344L330.469 76.1562C330.104 76.6875 329.63 77.1979 329.047 77.6875C328.464 78.1667 327.75 78.5573 326.906 78.8594C326.073 79.1615 325.104 79.3125 324 79.3125ZM337.438 65.7031V79H333.672V62.0938H337.219L337.438 65.7031ZM336.766 69.9219L335.547 69.9062C335.557 68.7083 335.724 67.6094 336.047 66.6094C336.38 65.6094 336.839 64.75 337.422 64.0312C338.016 63.3125 338.724 62.7604 339.547 62.375C340.37 61.9792 341.286 61.7812 342.297 61.7812C343.109 61.7812 343.844 61.8958 344.5 62.125C345.167 62.3438 345.734 62.7031 346.203 63.2031C346.682 63.7031 347.047 64.3542 347.297 65.1562C347.547 65.9479 347.672 66.9219 347.672 68.0781V79H343.891V68.0625C343.891 67.25 343.771 66.6094 343.531 66.1406C343.302 65.6615 342.964 65.3229 342.516 65.125C342.078 64.9167 341.531 64.8125 340.875 64.8125C340.229 64.8125 339.651 64.9479 339.141 65.2188C338.63 65.4896 338.198 65.8594 337.844 66.3281C337.5 66.7969 337.234 67.3385 337.047 67.9531C336.859 68.5677 336.766 69.224 336.766 69.9219ZM361.828 75.5V55H365.609V79H362.188L361.828 75.5ZM350.828 70.7344V70.4062C350.828 69.125 350.979 67.9583 351.281 66.9062C351.583 65.8438 352.021 64.9323 352.594 64.1719C353.167 63.401 353.865 62.8125 354.688 62.4062C355.51 61.9896 356.438 61.7812 357.469 61.7812C358.49 61.7812 359.385 61.9792 360.156 62.375C360.927 62.7708 361.583 63.3385 362.125 64.0781C362.667 64.8073 363.099 65.6823 363.422 66.7031C363.745 67.7135 363.974 68.8385 364.109 70.0781V71.125C363.974 72.3333 363.745 73.4375 363.422 74.4375C363.099 75.4375 362.667 76.3021 362.125 77.0312C361.583 77.7604 360.922 78.3229 360.141 78.7188C359.37 79.1146 358.469 79.3125 357.438 79.3125C356.417 79.3125 355.495 79.099 354.672 78.6719C353.859 78.2448 353.167 77.6458 352.594 76.875C352.021 76.1042 351.583 75.1979 351.281 74.1562C350.979 73.1042 350.828 71.9635 350.828 70.7344ZM354.594 70.4062V70.7344C354.594 71.5052 354.661 72.224 354.797 72.8906C354.943 73.5573 355.167 74.1458 355.469 74.6562C355.771 75.1562 356.161 75.5521 356.641 75.8438C357.13 76.125 357.714 76.2656 358.391 76.2656C359.245 76.2656 359.948 76.0781 360.5 75.7031C361.052 75.3281 361.484 74.8229 361.797 74.1875C362.12 73.5417 362.339 72.8229 362.453 72.0312V69.2031C362.391 68.5885 362.26 68.0156 362.062 67.4844C361.875 66.9531 361.62 66.4896 361.297 66.0938C360.974 65.6875 360.573 65.375 360.094 65.1562C359.625 64.9271 359.068 64.8125 358.422 64.8125C357.734 64.8125 357.151 64.9583 356.672 65.25C356.193 65.5417 355.797 65.9427 355.484 66.4531C355.182 66.9635 354.958 67.5573 354.812 68.2344C354.667 68.9115 354.594 69.6354 354.594 70.4062ZM377 79.3125C375.75 79.3125 374.62 79.1094 373.609 78.7031C372.609 78.2865 371.755 77.7083 371.047 76.9688C370.349 76.2292 369.812 75.3594 369.438 74.3594C369.062 73.3594 368.875 72.2812 368.875 71.125V70.5C368.875 69.1771 369.068 67.9792 369.453 66.9062C369.839 65.8333 370.375 64.9167 371.062 64.1562C371.75 63.3854 372.562 62.7969 373.5 62.3906C374.438 61.9844 375.453 61.7812 376.547 61.7812C377.755 61.7812 378.812 61.9844 379.719 62.3906C380.625 62.7969 381.375 63.3698 381.969 64.1094C382.573 64.8385 383.021 65.7083 383.312 66.7188C383.615 67.7292 383.766 68.8438 383.766 70.0625V71.6719H370.703V68.9688H380.047V68.6719C380.026 67.9948 379.891 67.3594 379.641 66.7656C379.401 66.1719 379.031 65.6927 378.531 65.3281C378.031 64.9635 377.365 64.7812 376.531 64.7812C375.906 64.7812 375.349 64.9167 374.859 65.1875C374.38 65.4479 373.979 65.8281 373.656 66.3281C373.333 66.8281 373.083 67.4323 372.906 68.1406C372.74 68.8385 372.656 69.625 372.656 70.5V71.125C372.656 71.8646 372.755 72.5521 372.953 73.1875C373.161 73.8125 373.464 74.3594 373.859 74.8281C374.255 75.2969 374.734 75.6667 375.297 75.9375C375.859 76.1979 376.5 76.3281 377.219 76.3281C378.125 76.3281 378.932 76.1458 379.641 75.7812C380.349 75.4167 380.964 74.901 381.484 74.2344L383.469 76.1562C383.104 76.6875 382.63 77.1979 382.047 77.6875C381.464 78.1667 380.75 78.5573 379.906 78.8594C379.073 79.1615 378.104 79.3125 377 79.3125ZM396.188 74.4219C396.188 74.0469 396.094 73.7083 395.906 73.4062C395.719 73.0938 395.359 72.8125 394.828 72.5625C394.307 72.3125 393.536 72.0833 392.516 71.875C391.62 71.6771 390.797 71.4427 390.047 71.1719C389.307 70.8906 388.672 70.5521 388.141 70.1562C387.609 69.7604 387.198 69.2917 386.906 68.75C386.615 68.2083 386.469 67.5833 386.469 66.875C386.469 66.1875 386.62 65.5365 386.922 64.9219C387.224 64.3073 387.656 63.7656 388.219 63.2969C388.781 62.8281 389.464 62.4583 390.266 62.1875C391.078 61.9167 391.984 61.7812 392.984 61.7812C394.401 61.7812 395.615 62.0208 396.625 62.5C397.646 62.9688 398.427 63.6094 398.969 64.4219C399.51 65.224 399.781 66.1302 399.781 67.1406H396.016C396.016 66.6927 395.901 66.276 395.672 65.8906C395.453 65.4948 395.12 65.1771 394.672 64.9375C394.224 64.6875 393.661 64.5625 392.984 64.5625C392.339 64.5625 391.802 64.6667 391.375 64.875C390.958 65.0729 390.646 65.3333 390.438 65.6562C390.24 65.9792 390.141 66.3333 390.141 66.7188C390.141 67 390.193 67.2552 390.297 67.4844C390.411 67.7031 390.599 67.9062 390.859 68.0938C391.12 68.2708 391.474 68.4375 391.922 68.5938C392.38 68.75 392.953 68.901 393.641 69.0469C394.932 69.3177 396.042 69.6667 396.969 70.0938C397.906 70.5104 398.625 71.0521 399.125 71.7188C399.625 72.375 399.875 73.2083 399.875 74.2188C399.875 74.9688 399.714 75.6562 399.391 76.2812C399.078 76.8958 398.62 77.4323 398.016 77.8906C397.411 78.3385 396.688 78.6875 395.844 78.9375C395.01 79.1875 394.073 79.3125 393.031 79.3125C391.5 79.3125 390.203 79.0417 389.141 78.5C388.078 77.9479 387.271 77.2448 386.719 76.3906C386.177 75.526 385.906 74.6302 385.906 73.7031H389.547C389.589 74.401 389.781 74.9583 390.125 75.375C390.479 75.7812 390.917 76.0781 391.438 76.2656C391.969 76.4427 392.516 76.5312 393.078 76.5312C393.755 76.5312 394.323 76.4427 394.781 76.2656C395.24 76.0781 395.589 75.8281 395.828 75.5156C396.068 75.1927 396.188 74.8281 396.188 74.4219ZM410.922 62.0938V64.8438H401.391V62.0938H410.922ZM404.141 57.9531H407.906V74.3281C407.906 74.849 407.979 75.25 408.125 75.5312C408.281 75.8021 408.495 75.9844 408.766 76.0781C409.036 76.1719 409.354 76.2188 409.719 76.2188C409.979 76.2188 410.229 76.2031 410.469 76.1719C410.708 76.1406 410.901 76.1094 411.047 76.0781L411.062 78.9531C410.75 79.0469 410.385 79.1302 409.969 79.2031C409.562 79.276 409.094 79.3125 408.562 79.3125C407.698 79.3125 406.932 79.1615 406.266 78.8594C405.599 78.5469 405.078 78.0417 404.703 77.3438C404.328 76.6458 404.141 75.7188 404.141 74.5625V57.9531ZM431.969 75.0156V62.0938H435.75V79H432.188L431.969 75.0156ZM432.5 71.5L433.766 71.4688C433.766 72.6042 433.641 73.651 433.391 74.6094C433.141 75.5573 432.755 76.3854 432.234 77.0938C431.714 77.7917 431.047 78.3385 430.234 78.7344C429.422 79.1198 428.448 79.3125 427.312 79.3125C426.49 79.3125 425.734 79.1927 425.047 78.9531C424.359 78.7135 423.766 78.3438 423.266 77.8438C422.776 77.3438 422.396 76.6927 422.125 75.8906C421.854 75.0885 421.719 74.1302 421.719 73.0156V62.0938H425.484V73.0469C425.484 73.6615 425.557 74.1771 425.703 74.5938C425.849 75 426.047 75.3281 426.297 75.5781C426.547 75.8281 426.839 76.0052 427.172 76.1094C427.505 76.2135 427.859 76.2656 428.234 76.2656C429.307 76.2656 430.151 76.0573 430.766 75.6406C431.391 75.2135 431.833 74.6406 432.094 73.9219C432.365 73.2031 432.5 72.3958 432.5 71.5ZM423.219 57.6094C423.219 57.099 423.396 56.6719 423.75 56.3281C424.104 55.974 424.573 55.7969 425.156 55.7969C425.75 55.7969 426.224 55.974 426.578 56.3281C426.932 56.6719 427.109 57.099 427.109 57.6094C427.109 58.1094 426.932 58.5365 426.578 58.8906C426.224 59.2344 425.75 59.4062 425.156 59.4062C424.573 59.4062 424.104 59.2344 423.75 58.8906C423.396 58.5365 423.219 58.1094 423.219 57.6094ZM430.453 57.625C430.453 57.1146 430.63 56.6875 430.984 56.3438C431.339 55.9896 431.812 55.8125 432.406 55.8125C432.99 55.8125 433.458 55.9896 433.812 56.3438C434.177 56.6875 434.359 57.1146 434.359 57.625C434.359 58.125 434.177 58.5521 433.812 58.9062C433.458 59.25 432.99 59.4219 432.406 59.4219C431.812 59.4219 431.339 59.25 430.984 58.9062C430.63 58.5521 430.453 58.125 430.453 57.625ZM443.641 55V79H439.859V55H443.641ZM455.219 79.3125C453.969 79.3125 452.839 79.1094 451.828 78.7031C450.828 78.2865 449.974 77.7083 449.266 76.9688C448.568 76.2292 448.031 75.3594 447.656 74.3594C447.281 73.3594 447.094 72.2812 447.094 71.125V70.5C447.094 69.1771 447.286 67.9792 447.672 66.9062C448.057 65.8333 448.594 64.9167 449.281 64.1562C449.969 63.3854 450.781 62.7969 451.719 62.3906C452.656 61.9844 453.672 61.7812 454.766 61.7812C455.974 61.7812 457.031 61.9844 457.938 62.3906C458.844 62.7969 459.594 63.3698 460.188 64.1094C460.792 64.8385 461.24 65.7083 461.531 66.7188C461.833 67.7292 461.984 68.8438 461.984 70.0625V71.6719H448.922V68.9688H458.266V68.6719C458.245 67.9948 458.109 67.3594 457.859 66.7656C457.62 66.1719 457.25 65.6927 456.75 65.3281C456.25 64.9635 455.583 64.7812 454.75 64.7812C454.125 64.7812 453.568 64.9167 453.078 65.1875C452.599 65.4479 452.198 65.8281 451.875 66.3281C451.552 66.8281 451.302 67.4323 451.125 68.1406C450.958 68.8385 450.875 69.625 450.875 70.5V71.125C450.875 71.8646 450.974 72.5521 451.172 73.1875C451.38 73.8125 451.682 74.3594 452.078 74.8281C452.474 75.2969 452.953 75.6667 453.516 75.9375C454.078 76.1979 454.719 76.3281 455.438 76.3281C456.344 76.3281 457.151 76.1458 457.859 75.7812C458.568 75.4167 459.182 74.901 459.703 74.2344L461.688 76.1562C461.323 76.6875 460.849 77.1979 460.266 77.6875C459.682 78.1667 458.969 78.5573 458.125 78.8594C457.292 79.1615 456.323 79.3125 455.219 79.3125ZM470.203 76.0156L474.344 62.0938H478.25L472.375 79H469.938L470.203 76.0156ZM467.031 62.0938L471.25 76.0781L471.453 79H469.016L463.109 62.0938H467.031ZM489.859 75.6094V67.5469C489.859 66.9427 489.75 66.4219 489.531 65.9844C489.312 65.5469 488.979 65.2083 488.531 64.9688C488.094 64.7292 487.542 64.6094 486.875 64.6094C486.26 64.6094 485.729 64.7135 485.281 64.9219C484.833 65.1302 484.484 65.4115 484.234 65.7656C483.984 66.1198 483.859 66.5208 483.859 66.9688H480.109C480.109 66.3021 480.271 65.6562 480.594 65.0312C480.917 64.4062 481.385 63.849 482 63.3594C482.615 62.8698 483.349 62.4844 484.203 62.2031C485.057 61.9219 486.016 61.7812 487.078 61.7812C488.349 61.7812 489.474 61.9948 490.453 62.4219C491.443 62.849 492.219 63.4948 492.781 64.3594C493.354 65.2135 493.641 66.2865 493.641 67.5781V75.0938C493.641 75.8646 493.693 76.5573 493.797 77.1719C493.911 77.776 494.073 78.3021 494.281 78.75V79H490.422C490.245 78.5938 490.104 78.0781 490 77.4531C489.906 76.8177 489.859 76.2031 489.859 75.6094ZM490.406 68.7188L490.438 71.0469H487.734C487.036 71.0469 486.422 71.1146 485.891 71.25C485.359 71.375 484.917 71.5625 484.562 71.8125C484.208 72.0625 483.943 72.3646 483.766 72.7188C483.589 73.0729 483.5 73.474 483.5 73.9219C483.5 74.3698 483.604 74.7812 483.812 75.1562C484.021 75.5208 484.323 75.8073 484.719 76.0156C485.125 76.224 485.615 76.3281 486.188 76.3281C486.958 76.3281 487.63 76.1719 488.203 75.8594C488.786 75.5365 489.245 75.1458 489.578 74.6875C489.911 74.2188 490.089 73.776 490.109 73.3594L491.328 75.0312C491.203 75.4583 490.99 75.9167 490.688 76.4062C490.385 76.8958 489.99 77.3646 489.5 77.8125C489.021 78.25 488.443 78.6094 487.766 78.8906C487.099 79.1719 486.328 79.3125 485.453 79.3125C484.349 79.3125 483.365 79.0938 482.5 78.6562C481.635 78.2083 480.958 77.6094 480.469 76.8594C479.979 76.099 479.734 75.2396 479.734 74.2812C479.734 73.3854 479.901 72.5938 480.234 71.9062C480.578 71.2083 481.078 70.625 481.734 70.1562C482.401 69.6875 483.214 69.3333 484.172 69.0938C485.13 68.8438 486.224 68.7188 487.453 68.7188H490.406ZM507.109 75.6094V67.5469C507.109 66.9427 507 66.4219 506.781 65.9844C506.562 65.5469 506.229 65.2083 505.781 64.9688C505.344 64.7292 504.792 64.6094 504.125 64.6094C503.51 64.6094 502.979 64.7135 502.531 64.9219C502.083 65.1302 501.734 65.4115 501.484 65.7656C501.234 66.1198 501.109 66.5208 501.109 66.9688H497.359C497.359 66.3021 497.521 65.6562 497.844 65.0312C498.167 64.4062 498.635 63.849 499.25 63.3594C499.865 62.8698 500.599 62.4844 501.453 62.2031C502.307 61.9219 503.266 61.7812 504.328 61.7812C505.599 61.7812 506.724 61.9948 507.703 62.4219C508.693 62.849 509.469 63.4948 510.031 64.3594C510.604 65.2135 510.891 66.2865 510.891 67.5781V75.0938C510.891 75.8646 510.943 76.5573 511.047 77.1719C511.161 77.776 511.323 78.3021 511.531 78.75V79H507.672C507.495 78.5938 507.354 78.0781 507.25 77.4531C507.156 76.8177 507.109 76.2031 507.109 75.6094ZM507.656 68.7188L507.688 71.0469H504.984C504.286 71.0469 503.672 71.1146 503.141 71.25C502.609 71.375 502.167 71.5625 501.812 71.8125C501.458 72.0625 501.193 72.3646 501.016 72.7188C500.839 73.0729 500.75 73.474 500.75 73.9219C500.75 74.3698 500.854 74.7812 501.062 75.1562C501.271 75.5208 501.573 75.8073 501.969 76.0156C502.375 76.224 502.865 76.3281 503.438 76.3281C504.208 76.3281 504.88 76.1719 505.453 75.8594C506.036 75.5365 506.495 75.1458 506.828 74.6875C507.161 74.2188 507.339 73.776 507.359 73.3594L508.578 75.0312C508.453 75.4583 508.24 75.9167 507.938 76.4062C507.635 76.8958 507.24 77.3646 506.75 77.8125C506.271 78.25 505.693 78.6094 505.016 78.8906C504.349 79.1719 503.578 79.3125 502.703 79.3125C501.599 79.3125 500.615 79.0938 499.75 78.6562C498.885 78.2083 498.208 77.6094 497.719 76.8594C497.229 76.099 496.984 75.2396 496.984 74.2812C496.984 73.3854 497.151 72.5938 497.484 71.9062C497.828 71.2083 498.328 70.625 498.984 70.1562C499.651 69.6875 500.464 69.3333 501.422 69.0938C502.38 68.8438 503.474 68.7188 504.703 68.7188H507.656ZM522.578 62.0938V64.8438H513.047V62.0938H522.578ZM515.797 57.9531H519.562V74.3281C519.562 74.849 519.635 75.25 519.781 75.5312C519.938 75.8021 520.151 75.9844 520.422 76.0781C520.693 76.1719 521.01 76.2188 521.375 76.2188C521.635 76.2188 521.885 76.2031 522.125 76.1719C522.365 76.1406 522.557 76.1094 522.703 76.0781L522.719 78.9531C522.406 79.0469 522.042 79.1302 521.625 79.2031C521.219 79.276 520.75 79.3125 520.219 79.3125C519.354 79.3125 518.589 79.1615 517.922 78.8594C517.255 78.5469 516.734 78.0417 516.359 77.3438C515.984 76.6458 515.797 75.7188 515.797 74.5625V57.9531ZM532.938 79.3125C531.688 79.3125 530.557 79.1094 529.547 78.7031C528.547 78.2865 527.693 77.7083 526.984 76.9688C526.286 76.2292 525.75 75.3594 525.375 74.3594C525 73.3594 524.812 72.2812 524.812 71.125V70.5C524.812 69.1771 525.005 67.9792 525.391 66.9062C525.776 65.8333 526.312 64.9167 527 64.1562C527.688 63.3854 528.5 62.7969 529.438 62.3906C530.375 61.9844 531.391 61.7812 532.484 61.7812C533.693 61.7812 534.75 61.9844 535.656 62.3906C536.562 62.7969 537.312 63.3698 537.906 64.1094C538.51 64.8385 538.958 65.7083 539.25 66.7188C539.552 67.7292 539.703 68.8438 539.703 70.0625V71.6719H526.641V68.9688H535.984V68.6719C535.964 67.9948 535.828 67.3594 535.578 66.7656C535.339 66.1719 534.969 65.6927 534.469 65.3281C533.969 64.9635 533.302 64.7812 532.469 64.7812C531.844 64.7812 531.286 64.9167 530.797 65.1875C530.318 65.4479 529.917 65.8281 529.594 66.3281C529.271 66.8281 529.021 67.4323 528.844 68.1406C528.677 68.8385 528.594 69.625 528.594 70.5V71.125C528.594 71.8646 528.693 72.5521 528.891 73.1875C529.099 73.8125 529.401 74.3594 529.797 74.8281C530.193 75.2969 530.672 75.6667 531.234 75.9375C531.797 76.1979 532.438 76.3281 533.156 76.3281C534.062 76.3281 534.87 76.1458 535.578 75.7812C536.286 75.4167 536.901 74.901 537.422 74.2344L539.406 76.1562C539.042 76.6875 538.568 77.1979 537.984 77.6875C537.401 78.1667 536.688 78.5573 535.844 78.8594C535.01 79.1615 534.042 79.3125 532.938 79.3125ZM542.797 77.125C542.797 76.5417 542.995 76.0521 543.391 75.6562C543.786 75.25 544.323 75.0469 545 75.0469C545.688 75.0469 546.224 75.25 546.609 75.6562C547.005 76.0521 547.203 76.5417 547.203 77.125C547.203 77.7083 547.005 78.1979 546.609 78.5938C546.224 78.9896 545.688 79.1875 545 79.1875C544.323 79.1875 543.786 78.9896 543.391 78.5938C542.995 78.1979 542.797 77.7083 542.797 77.125Z" fill="#461102"/>
</svg>
