<svg width="700" height="100" viewBox="0 0 700 100" fill="none" xmlns="http://www.w3.org/2000/svg">
<path d="M137.858 34.88C137.858 36.7733 137.458 38.4533 136.658 39.92C135.858 41.3867 134.658 42.5467 133.058 43.4C131.484 44.2267 129.564 44.64 127.298 44.64C123.884 44.64 121.271 43.76 119.458 42C117.671 40.2133 116.778 37.84 116.778 34.88V16.32H122.658V34.6C122.658 36.4667 123.031 37.8667 123.778 38.8C124.524 39.7067 125.698 40.16 127.298 40.16C128.898 40.16 130.071 39.7067 130.818 38.8C131.591 37.8667 131.978 36.4667 131.978 34.6V16.32H137.858V34.88ZM160.59 44H155.67L155.39 41.16C154.643 42.3333 153.736 43.2133 152.67 43.8C151.603 44.36 150.363 44.64 148.95 44.64C147.03 44.64 145.563 44.0667 144.55 42.92C143.536 41.7467 143.03 40.12 143.03 38.04V22.8H148.71V37.32C148.71 38.44 148.896 39.24 149.27 39.72C149.643 40.1733 150.23 40.4 151.03 40.4C152.55 40.4 153.843 39.48 154.91 37.64V22.8H160.59V44ZM184.118 32.92C184.118 33.1867 184.078 33.92 183.998 35.12H170.758C170.945 37.04 171.465 38.4 172.318 39.2C173.172 40 174.332 40.4 175.798 40.4C176.705 40.4 177.558 40.2533 178.358 39.96C179.158 39.6667 180.025 39.2 180.958 38.56L183.318 41.76C180.945 43.68 178.265 44.64 175.278 44.64C171.945 44.64 169.385 43.64 167.598 41.64C165.812 39.64 164.918 36.9333 164.918 33.52C164.918 31.36 165.292 29.4267 166.038 27.72C166.812 25.9867 167.918 24.6267 169.358 23.64C170.825 22.6533 172.558 22.16 174.558 22.16C177.572 22.16 179.918 23.1067 181.598 25C183.278 26.8933 184.118 29.5333 184.118 32.92ZM178.478 31.32C178.478 27.8 177.212 26.04 174.678 26.04C173.505 26.04 172.585 26.48 171.918 27.36C171.278 28.2133 170.892 29.6133 170.758 31.56H178.478V31.32ZM193.51 44.64C191.776 44.64 190.43 44.1467 189.47 43.16C188.51 42.1467 188.03 40.72 188.03 38.88V14.36L193.71 13.72V38.72C193.71 39.6533 194.096 40.12 194.87 40.12C195.296 40.12 195.67 40.04 195.99 39.88L197.15 43.92C196.056 44.4 194.843 44.64 193.51 44.64ZM226.031 38.12C226.031 38.9467 226.151 39.56 226.391 39.96C226.631 40.3333 227.031 40.6133 227.591 40.8L226.391 44.56C225.138 44.4533 224.111 44.16 223.311 43.68C222.538 43.2 221.938 42.4533 221.511 41.44C220.125 43.5733 218.005 44.64 215.151 44.64C213.045 44.64 211.365 44.04 210.111 42.84C208.885 41.6133 208.271 40.0267 208.271 38.08C208.271 35.76 209.111 33.9867 210.791 32.76C212.471 31.5333 214.885 30.92 218.031 30.92H220.471V29.88C220.471 28.5733 220.178 27.6667 219.591 27.16C219.005 26.6533 218.031 26.4 216.671 26.4C215.178 26.4 213.311 26.7733 211.071 27.52L209.791 23.72C212.431 22.68 215.045 22.16 217.631 22.16C220.511 22.16 222.631 22.7867 223.991 24.04C225.351 25.2667 226.031 27.1067 226.031 29.56V38.12ZM216.711 40.56C218.311 40.56 219.565 39.7733 220.471 38.2V34.16H218.591C215.525 34.16 213.991 35.3067 213.991 37.6C213.991 38.5333 214.218 39.2667 214.671 39.8C215.151 40.3067 215.831 40.56 216.711 40.56ZM247.711 38.12C247.711 38.9467 247.831 39.56 248.071 39.96C248.311 40.3333 248.711 40.6133 249.271 40.8L248.071 44.56C246.818 44.4533 245.791 44.16 244.991 43.68C244.218 43.2 243.618 42.4533 243.191 41.44C241.804 43.5733 239.684 44.64 236.831 44.64C234.724 44.64 233.044 44.04 231.791 42.84C230.564 41.6133 229.951 40.0267 229.951 38.08C229.951 35.76 230.791 33.9867 232.471 32.76C234.151 31.5333 236.564 30.92 239.711 30.92H242.151V29.88C242.151 28.5733 241.858 27.6667 241.271 27.16C240.684 26.6533 239.711 26.4 238.351 26.4C236.858 26.4 234.991 26.7733 232.751 27.52L231.471 23.72C234.111 22.68 236.724 22.16 239.311 22.16C242.191 22.16 244.311 22.7867 245.671 24.04C247.031 25.2667 247.711 27.1067 247.711 29.56V38.12ZM238.391 40.56C239.991 40.56 241.244 39.7733 242.151 38.2V34.16H240.271C237.204 34.16 235.671 35.3067 235.671 37.6C235.671 38.5333 235.898 39.2667 236.351 39.8C236.831 40.3067 237.511 40.56 238.391 40.56ZM260.035 22.16C263.022 22.16 265.582 23.0133 267.715 24.72L265.555 27.96C263.769 26.84 262.009 26.28 260.275 26.28C259.342 26.28 258.622 26.4533 258.115 26.8C257.609 27.1467 257.355 27.6133 257.355 28.2C257.355 28.6267 257.462 28.9867 257.675 29.28C257.915 29.5733 258.342 29.8533 258.955 30.12C259.595 30.3867 260.542 30.7067 261.795 31.08C264.035 31.6933 265.702 32.52 266.795 33.56C267.889 34.5733 268.435 35.9733 268.435 37.76C268.435 39.1733 268.022 40.4 267.195 41.44C266.395 42.48 265.302 43.28 263.915 43.84C262.529 44.3733 260.982 44.64 259.275 44.64C257.489 44.64 255.862 44.3733 254.395 43.84C252.929 43.28 251.675 42.52 250.635 41.56L253.435 38.44C255.222 39.8267 257.115 40.52 259.115 40.52C260.182 40.52 261.022 40.32 261.635 39.92C262.275 39.4933 262.595 38.92 262.595 38.2C262.595 37.64 262.475 37.2 262.235 36.88C261.995 36.56 261.555 36.2667 260.915 36C260.275 35.7067 259.275 35.3733 257.915 35C255.782 34.4133 254.195 33.5867 253.155 32.52C252.142 31.4267 251.635 30.08 251.635 28.48C251.635 27.28 251.982 26.2 252.675 25.24C253.369 24.28 254.342 23.5333 255.595 23C256.875 22.44 258.355 22.16 260.035 22.16ZM284.816 43C284.043 43.5333 283.163 43.9333 282.176 44.2C281.216 44.4933 280.256 44.64 279.296 44.64C277.109 44.6133 275.456 43.9867 274.336 42.76C273.216 41.5333 272.656 39.7333 272.656 37.36V26.8H269.496V22.8H272.656V18.16L278.336 17.48V22.8H283.216L282.656 26.8H278.336V37.24C278.336 38.2533 278.509 38.9867 278.856 39.44C279.203 39.8933 279.736 40.12 280.456 40.12C281.176 40.12 281.976 39.88 282.856 39.4L284.816 43ZM303.102 38.12C303.102 38.9467 303.222 39.56 303.462 39.96C303.702 40.3333 304.102 40.6133 304.662 40.8L303.462 44.56C302.208 44.4533 301.182 44.16 300.382 43.68C299.608 43.2 299.008 42.4533 298.582 41.44C297.195 43.5733 295.075 44.64 292.222 44.64C290.115 44.64 288.435 44.04 287.182 42.84C285.955 41.6133 285.342 40.0267 285.342 38.08C285.342 35.76 286.182 33.9867 287.862 32.76C289.542 31.5333 291.955 30.92 295.102 30.92H297.542V29.88C297.542 28.5733 297.248 27.6667 296.662 27.16C296.075 26.6533 295.102 26.4 293.742 26.4C292.248 26.4 290.382 26.7733 288.142 27.52L286.862 23.72C289.502 22.68 292.115 22.16 294.702 22.16C297.582 22.16 299.702 22.7867 301.062 24.04C302.422 25.2667 303.102 27.1067 303.102 29.56V38.12ZM293.782 40.56C295.382 40.56 296.635 39.7733 297.542 38.2V34.16H295.662C292.595 34.16 291.062 35.3067 291.062 37.6C291.062 38.5333 291.288 39.2667 291.742 39.8C292.222 40.3067 292.902 40.56 293.782 40.56ZM313.666 44.64C311.933 44.64 310.586 44.1467 309.626 43.16C308.666 42.1467 308.186 40.72 308.186 38.88V14.36L313.866 13.72V38.72C313.866 39.6533 314.253 40.12 315.026 40.12C315.453 40.12 315.826 40.04 316.146 39.88L317.306 43.92C316.213 44.4 314.999 44.64 313.666 44.64ZM342.668 43C341.894 43.5333 341.014 43.9333 340.028 44.2C339.068 44.4933 338.108 44.64 337.148 44.64C334.961 44.6133 333.308 43.9867 332.188 42.76C331.068 41.5333 330.508 39.7333 330.508 37.36V26.8H327.348V22.8H330.508V18.16L336.188 17.48V22.8H341.068L340.508 26.8H336.188V37.24C336.188 38.2533 336.361 38.9867 336.708 39.44C337.054 39.8933 337.588 40.12 338.308 40.12C339.028 40.12 339.828 39.88 340.708 39.4L342.668 43ZM360.953 38.12C360.953 38.9467 361.073 39.56 361.313 39.96C361.553 40.3333 361.953 40.6133 362.513 40.8L361.313 44.56C360.06 44.4533 359.033 44.16 358.233 43.68C357.46 43.2 356.86 42.4533 356.433 41.44C355.046 43.5733 352.926 44.64 350.073 44.64C347.966 44.64 346.286 44.04 345.033 42.84C343.806 41.6133 343.193 40.0267 343.193 38.08C343.193 35.76 344.033 33.9867 345.713 32.76C347.393 31.5333 349.806 30.92 352.953 30.92H355.393V29.88C355.393 28.5733 355.1 27.6667 354.513 27.16C353.926 26.6533 352.953 26.4 351.593 26.4C350.1 26.4 348.233 26.7733 345.993 27.52L344.713 23.72C347.353 22.68 349.966 22.16 352.553 22.16C355.433 22.16 357.553 22.7867 358.913 24.04C360.273 25.2667 360.953 27.1067 360.953 29.56V38.12ZM351.633 40.56C353.233 40.56 354.486 39.7733 355.393 38.2V34.16H353.513C350.446 34.16 348.913 35.3067 348.913 37.6C348.913 38.5333 349.14 39.2667 349.593 39.8C350.073 40.3067 350.753 40.56 351.633 40.56ZM378.468 22.16C380.308 22.16 381.748 22.7333 382.788 23.88C383.855 25 384.388 26.56 384.388 28.56V44H378.708V29.52C378.708 28.3733 378.508 27.5733 378.108 27.12C377.708 26.64 377.135 26.4 376.388 26.4C374.895 26.4 373.535 27.3733 372.308 29.32V44H366.628V14.36L372.308 13.76V25.2C373.161 24.1867 374.081 23.4267 375.068 22.92C376.081 22.4133 377.215 22.16 378.468 22.16ZM405.992 38.12C405.992 38.9467 406.112 39.56 406.352 39.96C406.592 40.3333 406.992 40.6133 407.552 40.8L406.352 44.56C405.099 44.4533 404.072 44.16 403.272 43.68C402.499 43.2 401.899 42.4533 401.472 41.44C400.086 43.5733 397.966 44.64 395.112 44.64C393.006 44.64 391.326 44.04 390.072 42.84C388.846 41.6133 388.232 40.0267 388.232 38.08C388.232 35.76 389.072 33.9867 390.752 32.76C392.432 31.5333 394.846 30.92 397.992 30.92H400.432V29.88C400.432 28.5733 400.139 27.6667 399.552 27.16C398.966 26.6533 397.992 26.4 396.632 26.4C395.139 26.4 393.272 26.7733 391.032 27.52L389.752 23.72C392.392 22.68 395.006 22.16 397.592 22.16C400.472 22.16 402.592 22.7867 403.952 24.04C405.312 25.2667 405.992 27.1067 405.992 29.56V38.12ZM396.672 40.56C398.272 40.56 399.526 39.7733 400.432 38.2V34.16H398.552C395.486 34.16 393.952 35.3067 393.952 37.6C393.952 38.5333 394.179 39.2667 394.632 39.8C395.112 40.3067 395.792 40.56 396.672 40.56ZM423.507 22.16C425.374 22.16 426.827 22.7333 427.867 23.88C428.907 25 429.427 26.56 429.427 28.56V44H423.747V29.52C423.747 28.3733 423.547 27.5733 423.147 27.12C422.774 26.64 422.201 26.4 421.427 26.4C420.627 26.4 419.894 26.6533 419.227 27.16C418.587 27.64 417.961 28.3733 417.347 29.36V44H411.667V22.8H416.587L417.027 25.48C417.907 24.3867 418.867 23.56 419.907 23C420.974 22.44 422.174 22.16 423.507 22.16ZM453.517 22.16C456.69 22.16 459.17 23.16 460.957 25.16C462.744 27.1333 463.637 29.88 463.637 33.4C463.637 35.64 463.224 37.6133 462.397 39.32C461.597 41 460.424 42.3067 458.877 43.24C457.357 44.1733 455.557 44.64 453.477 44.64C450.304 44.64 447.81 43.6533 445.997 41.68C444.21 39.68 443.317 36.92 443.317 33.4C443.317 31.16 443.717 29.2 444.517 27.52C445.344 25.8133 446.517 24.4933 448.037 23.56C449.584 22.6267 451.41 22.16 453.517 22.16ZM453.517 26.4C452.077 26.4 450.997 26.9733 450.277 28.12C449.584 29.24 449.237 31 449.237 33.4C449.237 35.8 449.584 37.5733 450.277 38.72C450.997 39.84 452.064 40.4 453.477 40.4C454.89 40.4 455.944 39.84 456.637 38.72C457.357 37.5733 457.717 35.8 457.717 33.4C457.717 31 457.37 29.24 456.677 28.12C455.984 26.9733 454.93 26.4 453.517 26.4ZM473.236 44.64C471.503 44.64 470.156 44.1467 469.196 43.16C468.236 42.1467 467.756 40.72 467.756 38.88V14.36L473.436 13.72V38.72C473.436 39.6533 473.823 40.12 474.596 40.12C475.023 40.12 475.396 40.04 475.716 39.88L476.876 43.92C475.783 44.4 474.57 44.64 473.236 44.64ZM485.072 44.64C483.339 44.64 481.992 44.1467 481.032 43.16C480.072 42.1467 479.592 40.72 479.592 38.88V14.36L485.272 13.72V38.72C485.272 39.6533 485.659 40.12 486.432 40.12C486.859 40.12 487.232 40.04 487.552 39.88L488.712 43.92C487.619 44.4 486.406 44.64 485.072 44.64ZM507.633 38.12C507.633 38.9467 507.753 39.56 507.993 39.96C508.233 40.3333 508.633 40.6133 509.193 40.8L507.993 44.56C506.739 44.4533 505.713 44.16 504.913 43.68C504.139 43.2 503.539 42.4533 503.113 41.44C501.726 43.5733 499.606 44.64 496.753 44.64C494.646 44.64 492.966 44.04 491.713 42.84C490.486 41.6133 489.873 40.0267 489.873 38.08C489.873 35.76 490.713 33.9867 492.393 32.76C494.073 31.5333 496.486 30.92 499.633 30.92H502.073V29.88C502.073 28.5733 501.779 27.6667 501.193 27.16C500.606 26.6533 499.633 26.4 498.273 26.4C496.779 26.4 494.913 26.7733 492.673 27.52L491.393 23.72C494.033 22.68 496.646 22.16 499.233 22.16C502.113 22.16 504.233 22.7867 505.593 24.04C506.953 25.2667 507.633 27.1067 507.633 29.56V38.12ZM498.313 40.56C499.913 40.56 501.166 39.7733 502.073 38.2V34.16H500.193C497.126 34.16 495.593 35.3067 495.593 37.6C495.593 38.5333 495.819 39.2667 496.273 39.8C496.753 40.3067 497.433 40.56 498.313 40.56ZM528.753 22.8V44H523.073V22.8H528.753ZM525.873 11.88C526.887 11.88 527.713 12.2 528.353 12.84C529.02 13.4533 529.353 14.24 529.353 15.2C529.353 16.16 529.02 16.96 528.353 17.6C527.713 18.2133 526.887 18.52 525.873 18.52C524.86 18.52 524.033 18.2133 523.393 17.6C522.753 16.96 522.433 16.16 522.433 15.2C522.433 14.24 522.753 13.4533 523.393 12.84C524.033 12.2 524.86 11.88 525.873 11.88ZM553.323 23.96C551.936 24.4933 549.896 24.76 547.203 24.76C548.536 25.3467 549.523 26.08 550.163 26.96C550.803 27.8133 551.123 28.8933 551.123 30.2C551.123 31.56 550.763 32.7867 550.043 33.88C549.349 34.9467 548.336 35.7867 547.003 36.4C545.696 37.0133 544.163 37.32 542.403 37.32C541.469 37.32 540.643 37.2267 539.923 37.04C539.389 37.3867 539.123 37.8533 539.123 38.44C539.123 38.8667 539.283 39.2133 539.603 39.48C539.949 39.72 540.603 39.84 541.562 39.84H544.803C546.376 39.84 547.749 40.1067 548.923 40.64C550.123 41.1467 551.043 41.8667 551.683 42.8C552.349 43.7067 552.682 44.7467 552.682 45.92C552.682 48.08 551.749 49.76 549.883 50.96C548.043 52.1867 545.376 52.8 541.883 52.8C539.376 52.8 537.389 52.5333 535.923 52C534.483 51.4933 533.469 50.7467 532.882 49.76C532.296 48.7733 532.003 47.5333 532.003 46.04H537.083C537.083 46.7333 537.216 47.28 537.483 47.68C537.749 48.1067 538.229 48.4133 538.923 48.6C539.643 48.8133 540.669 48.92 542.003 48.92C543.843 48.92 545.123 48.6933 545.843 48.24C546.589 47.7867 546.963 47.1467 546.963 46.32C546.963 45.5733 546.683 45 546.123 44.6C545.563 44.2 544.736 44 543.643 44H540.523C538.416 44 536.843 43.6133 535.803 42.84C534.763 42.04 534.243 41.04 534.243 39.84C534.243 39.0933 534.456 38.3733 534.883 37.68C535.336 36.96 535.949 36.36 536.723 35.88C535.416 35.16 534.456 34.32 533.843 33.36C533.256 32.3733 532.963 31.2 532.963 29.84C532.963 28.2933 533.336 26.9467 534.083 25.8C534.856 24.6267 535.923 23.7333 537.283 23.12C538.669 22.48 540.243 22.16 542.003 22.16C544.189 22.2133 545.989 22.0267 547.403 21.6C548.816 21.1733 550.323 20.5067 551.923 19.6L553.323 23.96ZM542.122 25.96C541.056 25.96 540.203 26.3067 539.563 27C538.949 27.6667 538.643 28.5867 538.643 29.76C538.643 30.96 538.949 31.9067 539.563 32.6C540.203 33.2933 541.069 33.64 542.163 33.64C543.309 33.64 544.176 33.3067 544.763 32.64C545.349 31.9733 545.643 30.9867 545.643 29.68C545.643 27.2 544.469 25.96 542.122 25.96ZM571.422 38.12C571.422 38.9467 571.542 39.56 571.782 39.96C572.022 40.3333 572.422 40.6133 572.982 40.8L571.782 44.56C570.529 44.4533 569.502 44.16 568.702 43.68C567.929 43.2 567.329 42.4533 566.902 41.44C565.515 43.5733 563.395 44.64 560.542 44.64C558.435 44.64 556.755 44.04 555.502 42.84C554.275 41.6133 553.662 40.0267 553.662 38.08C553.662 35.76 554.502 33.9867 556.182 32.76C557.862 31.5333 560.275 30.92 563.422 30.92H565.862V29.88C565.862 28.5733 565.569 27.6667 564.982 27.16C564.395 26.6533 563.422 26.4 562.062 26.4C560.569 26.4 558.702 26.7733 556.462 27.52L555.182 23.72C557.822 22.68 560.435 22.16 563.022 22.16C565.902 22.16 568.022 22.7867 569.382 24.04C570.742 25.2667 571.422 27.1067 571.422 29.56V38.12ZM562.102 40.56C563.702 40.56 564.955 39.7733 565.862 38.2V34.16H563.982C560.915 34.16 559.382 35.3067 559.382 37.6C559.382 38.5333 559.609 39.2667 560.062 39.8C560.542 40.3067 561.222 40.56 562.102 40.56ZM581.986 44.64C580.253 44.64 578.906 44.1467 577.946 43.16C576.986 42.1467 576.506 40.72 576.506 38.88V14.36L582.186 13.72V38.72C582.186 39.6533 582.573 40.12 583.346 40.12C583.773 40.12 584.146 40.04 584.466 39.88L585.626 43.92C584.533 44.4 583.32 44.64 581.986 44.64ZM239.144 84H234.224L233.944 81.16C233.198 82.3333 232.291 83.2133 231.224 83.8C230.158 84.36 228.918 84.64 227.504 84.64C225.584 84.64 224.118 84.0667 223.104 82.92C222.091 81.7467 221.584 80.12 221.584 78.04V62.8H227.264V77.32C227.264 78.44 227.451 79.24 227.824 79.72C228.198 80.1733 228.784 80.4 229.584 80.4C231.104 80.4 232.398 79.48 233.464 77.64V62.8H239.144V84ZM225.824 52.32C226.678 52.32 227.384 52.6133 227.944 53.2C228.531 53.76 228.824 54.4533 228.824 55.28C228.824 56.1067 228.531 56.8133 227.944 57.4C227.384 57.96 226.678 58.24 225.824 58.24C224.998 58.24 224.291 57.96 223.704 57.4C223.118 56.8133 222.824 56.1067 222.824 55.28C222.824 54.4533 223.118 53.76 223.704 53.2C224.291 52.6133 224.998 52.32 225.824 52.32ZM234.864 52.32C235.718 52.32 236.438 52.6133 237.024 53.2C237.611 53.76 237.904 54.4533 237.904 55.28C237.904 56.1067 237.611 56.8133 237.024 57.4C236.438 57.96 235.718 58.24 234.864 58.24C234.038 58.24 233.331 57.96 232.744 57.4C232.184 56.8133 231.904 56.1067 231.904 55.28C231.904 54.4533 232.184 53.76 232.744 53.2C233.331 52.6133 234.038 52.32 234.864 52.32ZM255.713 62.2C256.353 62.2 257.06 62.3067 257.833 62.52L256.873 68C256.126 67.8133 255.5 67.72 254.993 67.72C253.74 67.72 252.766 68.16 252.073 69.04C251.38 69.92 250.833 71.2533 250.433 73.04V84H244.753V62.8H249.673L250.193 66.92C250.7 65.4267 251.433 64.2667 252.393 63.44C253.38 62.6133 254.486 62.2 255.713 62.2ZM266.332 62.8V84H260.652V62.8H266.332ZM263.452 51.88C264.465 51.88 265.292 52.2 265.932 52.84C266.598 53.4533 266.932 54.24 266.932 55.2C266.932 56.16 266.598 56.96 265.932 57.6C265.292 58.2133 264.465 58.52 263.452 58.52C262.438 58.52 261.612 58.2133 260.972 57.6C260.332 56.96 260.012 56.16 260.012 55.2C260.012 54.24 260.332 53.4533 260.972 52.84C261.612 52.2 262.438 51.88 263.452 51.88ZM284.621 83C283.847 83.5333 282.967 83.9333 281.981 84.2C281.021 84.4933 280.061 84.64 279.101 84.64C276.914 84.6133 275.261 83.9867 274.141 82.76C273.021 81.5333 272.461 79.7333 272.461 77.36V66.8H269.301V62.8H272.461V58.16L278.141 57.48V62.8H283.021L282.461 66.8H278.141V77.24C278.141 78.2533 278.314 78.9867 278.661 79.44C279.007 79.8933 279.541 80.12 280.261 80.12C280.981 80.12 281.781 79.88 282.661 79.4L284.621 83ZM304.496 84H299.576L299.296 81.16C298.549 82.3333 297.643 83.2133 296.576 83.8C295.509 84.36 294.269 84.64 292.856 84.64C290.936 84.64 289.469 84.0667 288.456 82.92C287.443 81.7467 286.936 80.12 286.936 78.04V62.8H292.616V77.32C292.616 78.44 292.803 79.24 293.176 79.72C293.549 80.1733 294.136 80.4 294.936 80.4C296.456 80.4 297.749 79.48 298.816 77.64V62.8H304.496V84ZM317.145 62.16C320.131 62.16 322.691 63.0133 324.825 64.72L322.665 67.96C320.878 66.84 319.118 66.28 317.385 66.28C316.451 66.28 315.731 66.4533 315.225 66.8C314.718 67.1467 314.465 67.6133 314.465 68.2C314.465 68.6267 314.571 68.9867 314.785 69.28C315.025 69.5733 315.451 69.8533 316.065 70.12C316.705 70.3867 317.651 70.7067 318.905 71.08C321.145 71.6933 322.811 72.52 323.905 73.56C324.998 74.5733 325.545 75.9733 325.545 77.76C325.545 79.1733 325.131 80.4 324.305 81.44C323.505 82.48 322.411 83.28 321.025 83.84C319.638 84.3733 318.091 84.64 316.385 84.64C314.598 84.64 312.971 84.3733 311.505 83.84C310.038 83.28 308.785 82.52 307.745 81.56L310.545 78.44C312.331 79.8267 314.225 80.52 316.225 80.52C317.291 80.52 318.131 80.32 318.745 79.92C319.385 79.4933 319.705 78.92 319.705 78.2C319.705 77.64 319.585 77.2 319.345 76.88C319.105 76.56 318.665 76.2667 318.025 76C317.385 75.7067 316.385 75.3733 315.025 75C312.891 74.4133 311.305 73.5867 310.265 72.52C309.251 71.4267 308.745 70.08 308.745 68.48C308.745 67.28 309.091 66.2 309.785 65.24C310.478 64.28 311.451 63.5333 312.705 63C313.985 62.44 315.465 62.16 317.145 62.16ZM347.165 72.92C347.165 73.1867 347.125 73.92 347.045 75.12H333.805C333.992 77.04 334.512 78.4 335.365 79.2C336.219 80 337.379 80.4 338.845 80.4C339.752 80.4 340.605 80.2533 341.405 79.96C342.205 79.6667 343.072 79.2 344.005 78.56L346.365 81.76C343.992 83.68 341.312 84.64 338.325 84.64C334.992 84.64 332.432 83.64 330.645 81.64C328.859 79.64 327.965 76.9333 327.965 73.52C327.965 71.36 328.339 69.4267 329.085 67.72C329.859 65.9867 330.965 64.6267 332.405 63.64C333.872 62.6533 335.605 62.16 337.605 62.16C340.619 62.16 342.965 63.1067 344.645 65C346.325 66.8933 347.165 69.5333 347.165 72.92ZM341.525 71.32C341.525 67.8 340.259 66.04 337.725 66.04C336.552 66.04 335.632 66.48 334.965 67.36C334.325 68.2133 333.939 69.6133 333.805 71.56H341.525V71.32ZM356.557 84.64C354.823 84.64 353.477 84.1467 352.517 83.16C351.557 82.1467 351.077 80.72 351.077 78.88V54.36L356.757 53.72V78.72C356.757 79.6533 357.143 80.12 357.917 80.12C358.343 80.12 358.717 80.04 359.037 79.88L360.197 83.92C359.103 84.4 357.89 84.64 356.557 84.64ZM378.558 53.72V84H372.878V54.36L378.558 53.72ZM391.438 62.8L384.678 72.12L392.038 84H385.598L378.758 72.4L385.558 62.8H391.438ZM403.009 62.16C406.182 62.16 408.662 63.16 410.449 65.16C412.236 67.1333 413.129 69.88 413.129 73.4C413.129 75.64 412.716 77.6133 411.889 79.32C411.089 81 409.916 82.3067 408.369 83.24C406.849 84.1733 405.049 84.64 402.969 84.64C399.796 84.64 397.302 83.6533 395.489 81.68C393.702 79.68 392.809 76.92 392.809 73.4C392.809 71.16 393.209 69.2 394.009 67.52C394.836 65.8133 396.009 64.4933 397.529 63.56C399.076 62.6267 400.902 62.16 403.009 62.16ZM403.009 66.4C401.569 66.4 400.489 66.9733 399.769 68.12C399.076 69.24 398.729 71 398.729 73.4C398.729 75.8 399.076 77.5733 399.769 78.72C400.489 79.84 401.556 80.4 402.969 80.4C404.382 80.4 405.436 79.84 406.129 78.72C406.849 77.5733 407.209 75.8 407.209 73.4C407.209 71 406.862 69.24 406.169 68.12C405.476 66.9733 404.422 66.4 403.009 66.4ZM429.288 62.16C431.128 62.16 432.568 62.7333 433.608 63.88C434.675 65 435.208 66.56 435.208 68.56V84H429.528V69.52C429.528 68.3733 429.328 67.5733 428.928 67.12C428.528 66.64 427.955 66.4 427.208 66.4C425.715 66.4 424.355 67.3733 423.128 69.32V84H417.448V54.36L423.128 53.76V65.2C423.982 64.1867 424.902 63.4267 425.888 62.92C426.902 62.4133 428.035 62.16 429.288 62.16ZM456.813 78.12C456.813 78.9467 456.933 79.56 457.173 79.96C457.413 80.3333 457.813 80.6133 458.372 80.8L457.173 84.56C455.919 84.4533 454.893 84.16 454.093 83.68C453.319 83.2 452.719 82.4533 452.293 81.44C450.906 83.5733 448.786 84.64 445.933 84.64C443.826 84.64 442.146 84.04 440.893 82.84C439.666 81.6133 439.053 80.0267 439.053 78.08C439.053 75.76 439.893 73.9867 441.573 72.76C443.253 71.5333 445.666 70.92 448.813 70.92H451.253V69.88C451.253 68.5733 450.959 67.6667 450.373 67.16C449.786 66.6533 448.813 66.4 447.453 66.4C445.959 66.4 444.093 66.7733 441.853 67.52L440.573 63.72C443.213 62.68 445.826 62.16 448.413 62.16C451.293 62.16 453.413 62.7867 454.773 64.04C456.133 65.2667 456.813 67.1067 456.813 69.56V78.12ZM447.493 80.56C449.093 80.56 450.346 79.7733 451.253 78.2V74.16H449.373C446.306 74.16 444.773 75.3067 444.773 77.6C444.773 78.5333 444.999 79.2667 445.453 79.8C445.933 80.3067 446.613 80.56 447.493 80.56ZM467.377 84.64C465.644 84.64 464.297 84.1467 463.337 83.16C462.377 82.1467 461.897 80.72 461.897 78.88V54.36L467.577 53.72V78.72C467.577 79.6533 467.964 80.12 468.737 80.12C469.164 80.12 469.537 80.04 469.857 79.88L471.017 83.92C469.924 84.4 468.71 84.64 467.377 84.64ZM476.166 77.8C477.126 77.8 477.94 78.1333 478.606 78.8C479.273 79.4667 479.606 80.2667 479.606 81.2C479.606 82.1333 479.273 82.9467 478.606 83.64C477.94 84.3067 477.126 84.64 476.166 84.64C475.233 84.64 474.433 84.3067 473.766 83.64C473.1 82.9467 472.766 82.1333 472.766 81.2C472.766 80.2667 473.1 79.4667 473.766 78.8C474.433 78.1333 475.233 77.8 476.166 77.8Z" fill="#E3000F"/>
</svg>
