<svg width="700" height="100" viewBox="0 0 700 100" fill="none" xmlns="http://www.w3.org/2000/svg">
<path d="M85.9047 34.88C85.9047 36.7733 85.5047 38.4533 84.7047 39.92C83.9047 41.3867 82.7047 42.5467 81.1047 43.4C79.5314 44.2267 77.6114 44.64 75.3447 44.64C71.9314 44.64 69.318 43.76 67.5047 42C65.718 40.2133 64.8247 37.84 64.8247 34.88V16.32H70.7047V34.6C70.7047 36.4667 71.078 37.8667 71.8247 38.8C72.5714 39.7067 73.7447 40.16 75.3447 40.16C76.9447 40.16 78.118 39.7067 78.8647 38.8C79.638 37.8667 80.0247 36.4667 80.0247 34.6V16.32H85.9047V34.88ZM108.637 44H103.717L103.437 41.16C102.69 42.3333 101.783 43.2133 100.717 43.8C99.6499 44.36 98.4099 44.64 96.9966 44.64C95.0766 44.64 93.6099 44.0667 92.5966 42.92C91.5832 41.7467 91.0766 40.12 91.0766 38.04V22.8H96.7566V37.32C96.7566 38.44 96.9432 39.24 97.3166 39.72C97.6899 40.1733 98.2766 40.4 99.0766 40.4C100.597 40.4 101.89 39.48 102.957 37.64V22.8H108.637V44ZM132.165 32.92C132.165 33.1867 132.125 33.92 132.045 35.12H118.805C118.992 37.04 119.512 38.4 120.365 39.2C121.219 40 122.379 40.4 123.845 40.4C124.752 40.4 125.605 40.2533 126.405 39.96C127.205 39.6667 128.072 39.2 129.005 38.56L131.365 41.76C128.992 43.68 126.312 44.64 123.325 44.64C119.992 44.64 117.432 43.64 115.645 41.64C113.859 39.64 112.965 36.9333 112.965 33.52C112.965 31.36 113.339 29.4267 114.085 27.72C114.859 25.9867 115.965 24.6267 117.405 23.64C118.872 22.6533 120.605 22.16 122.605 22.16C125.619 22.16 127.965 23.1067 129.645 25C131.325 26.8933 132.165 29.5333 132.165 32.92ZM126.525 31.32C126.525 27.8 125.259 26.04 122.725 26.04C121.552 26.04 120.632 26.48 119.965 27.36C119.325 28.2133 118.939 29.6133 118.805 31.56H126.525V31.32ZM141.557 44.64C139.823 44.64 138.477 44.1467 137.517 43.16C136.557 42.1467 136.077 40.72 136.077 38.88V14.36L141.757 13.72V38.72C141.757 39.6533 142.143 40.12 142.917 40.12C143.343 40.12 143.717 40.04 144.037 39.88L145.197 43.92C144.103 44.4 142.89 44.64 141.557 44.64ZM174.078 38.12C174.078 38.9467 174.198 39.56 174.438 39.96C174.678 40.3333 175.078 40.6133 175.638 40.8L174.438 44.56C173.185 44.4533 172.158 44.16 171.358 43.68C170.585 43.2 169.985 42.4533 169.558 41.44C168.171 43.5733 166.051 44.64 163.198 44.64C161.091 44.64 159.411 44.04 158.158 42.84C156.931 41.6133 156.318 40.0267 156.318 38.08C156.318 35.76 157.158 33.9867 158.838 32.76C160.518 31.5333 162.931 30.92 166.078 30.92H168.518V29.88C168.518 28.5733 168.225 27.6667 167.638 27.16C167.051 26.6533 166.078 26.4 164.718 26.4C163.225 26.4 161.358 26.7733 159.118 27.52L157.838 23.72C160.478 22.68 163.091 22.16 165.678 22.16C168.558 22.16 170.678 22.7867 172.038 24.04C173.398 25.2667 174.078 27.1067 174.078 29.56V38.12ZM164.758 40.56C166.358 40.56 167.611 39.7733 168.518 38.2V34.16H166.638C163.571 34.16 162.038 35.3067 162.038 37.6C162.038 38.5333 162.265 39.2667 162.718 39.8C163.198 40.3067 163.878 40.56 164.758 40.56ZM195.758 38.12C195.758 38.9467 195.878 39.56 196.118 39.96C196.358 40.3333 196.758 40.6133 197.318 40.8L196.118 44.56C194.864 44.4533 193.838 44.16 193.038 43.68C192.264 43.2 191.664 42.4533 191.238 41.44C189.851 43.5733 187.731 44.64 184.878 44.64C182.771 44.64 181.091 44.04 179.838 42.84C178.611 41.6133 177.998 40.0267 177.998 38.08C177.998 35.76 178.838 33.9867 180.518 32.76C182.198 31.5333 184.611 30.92 187.758 30.92H190.198V29.88C190.198 28.5733 189.904 27.6667 189.318 27.16C188.731 26.6533 187.758 26.4 186.398 26.4C184.904 26.4 183.038 26.7733 180.798 27.52L179.518 23.72C182.158 22.68 184.771 22.16 187.358 22.16C190.238 22.16 192.358 22.7867 193.718 24.04C195.078 25.2667 195.758 27.1067 195.758 29.56V38.12ZM186.438 40.56C188.038 40.56 189.291 39.7733 190.198 38.2V34.16H188.318C185.251 34.16 183.718 35.3067 183.718 37.6C183.718 38.5333 183.944 39.2667 184.398 39.8C184.878 40.3067 185.558 40.56 186.438 40.56ZM208.082 22.16C211.069 22.16 213.629 23.0133 215.762 24.72L213.602 27.96C211.816 26.84 210.056 26.28 208.322 26.28C207.389 26.28 206.669 26.4533 206.162 26.8C205.656 27.1467 205.402 27.6133 205.402 28.2C205.402 28.6267 205.509 28.9867 205.722 29.28C205.962 29.5733 206.389 29.8533 207.002 30.12C207.642 30.3867 208.589 30.7067 209.842 31.08C212.082 31.6933 213.749 32.52 214.842 33.56C215.936 34.5733 216.482 35.9733 216.482 37.76C216.482 39.1733 216.069 40.4 215.242 41.44C214.442 42.48 213.349 43.28 211.962 43.84C210.576 44.3733 209.029 44.64 207.322 44.64C205.536 44.64 203.909 44.3733 202.442 43.84C200.976 43.28 199.722 42.52 198.682 41.56L201.482 38.44C203.269 39.8267 205.162 40.52 207.162 40.52C208.229 40.52 209.069 40.32 209.682 39.92C210.322 39.4933 210.642 38.92 210.642 38.2C210.642 37.64 210.522 37.2 210.282 36.88C210.042 36.56 209.602 36.2667 208.962 36C208.322 35.7067 207.322 35.3733 205.962 35C203.829 34.4133 202.242 33.5867 201.202 32.52C200.189 31.4267 199.682 30.08 199.682 28.48C199.682 27.28 200.029 26.2 200.722 25.24C201.416 24.28 202.389 23.5333 203.642 23C204.922 22.44 206.402 22.16 208.082 22.16ZM232.863 43C232.089 43.5333 231.209 43.9333 230.223 44.2C229.263 44.4933 228.303 44.64 227.343 44.64C225.156 44.6133 223.503 43.9867 222.383 42.76C221.263 41.5333 220.703 39.7333 220.703 37.36V26.8H217.543V22.8H220.703V18.16L226.383 17.48V22.8H231.263L230.703 26.8H226.383V37.24C226.383 38.2533 226.556 38.9867 226.903 39.44C227.249 39.8933 227.783 40.12 228.503 40.12C229.223 40.12 230.023 39.88 230.903 39.4L232.863 43ZM251.148 38.12C251.148 38.9467 251.268 39.56 251.508 39.96C251.748 40.3333 252.148 40.6133 252.708 40.8L251.508 44.56C250.255 44.4533 249.228 44.16 248.428 43.68C247.655 43.2 247.055 42.4533 246.628 41.44C245.242 43.5733 243.122 44.64 240.268 44.64C238.162 44.64 236.482 44.04 235.228 42.84C234.002 41.6133 233.388 40.0267 233.388 38.08C233.388 35.76 234.228 33.9867 235.908 32.76C237.588 31.5333 240.002 30.92 243.148 30.92H245.588V29.88C245.588 28.5733 245.295 27.6667 244.708 27.16C244.122 26.6533 243.148 26.4 241.788 26.4C240.295 26.4 238.428 26.7733 236.188 27.52L234.908 23.72C237.548 22.68 240.162 22.16 242.748 22.16C245.628 22.16 247.748 22.7867 249.108 24.04C250.468 25.2667 251.148 27.1067 251.148 29.56V38.12ZM241.828 40.56C243.428 40.56 244.682 39.7733 245.588 38.2V34.16H243.708C240.642 34.16 239.108 35.3067 239.108 37.6C239.108 38.5333 239.335 39.2667 239.788 39.8C240.268 40.3067 240.948 40.56 241.828 40.56ZM261.713 44.64C259.979 44.64 258.633 44.1467 257.673 43.16C256.713 42.1467 256.233 40.72 256.233 38.88V14.36L261.913 13.72V38.72C261.913 39.6533 262.299 40.12 263.073 40.12C263.499 40.12 263.873 40.04 264.193 39.88L265.353 43.92C264.259 44.4 263.046 44.64 261.713 44.64ZM289.874 22.16C291.714 22.16 293.154 22.7333 294.194 23.88C295.261 25 295.794 26.56 295.794 28.56V44H290.114V29.52C290.114 28.3733 289.914 27.5733 289.514 27.12C289.114 26.64 288.541 26.4 287.794 26.4C286.301 26.4 284.941 27.3733 283.714 29.32V44H278.034V14.36L283.714 13.76V25.2C284.568 24.1867 285.488 23.4267 286.474 22.92C287.488 22.4133 288.621 22.16 289.874 22.16ZM317.398 38.12C317.398 38.9467 317.518 39.56 317.758 39.96C317.998 40.3333 318.398 40.6133 318.958 40.8L317.758 44.56C316.505 44.4533 315.478 44.16 314.678 43.68C313.905 43.2 313.305 42.4533 312.878 41.44C311.492 43.5733 309.372 44.64 306.518 44.64C304.412 44.64 302.732 44.04 301.478 42.84C300.252 41.6133 299.638 40.0267 299.638 38.08C299.638 35.76 300.478 33.9867 302.158 32.76C303.838 31.5333 306.252 30.92 309.398 30.92H311.838V29.88C311.838 28.5733 311.545 27.6667 310.958 27.16C310.372 26.6533 309.398 26.4 308.038 26.4C306.545 26.4 304.678 26.7733 302.438 27.52L301.158 23.72C303.798 22.68 306.412 22.16 308.998 22.16C311.878 22.16 313.998 22.7867 315.358 24.04C316.718 25.2667 317.398 27.1067 317.398 29.56V38.12ZM308.078 40.56C309.678 40.56 310.932 39.7733 311.838 38.2V34.16H309.958C306.892 34.16 305.358 35.3067 305.358 37.6C305.358 38.5333 305.585 39.2667 306.038 39.8C306.518 40.3067 307.198 40.56 308.078 40.56ZM328.753 13.72V44H323.073V14.36L328.753 13.72ZM341.633 22.8L334.873 32.12L342.233 44H335.793L328.953 32.4L335.753 22.8H341.633ZM350.433 13.72V44H344.753V14.36L350.433 13.72ZM363.313 22.8L356.553 32.12L363.913 44H357.473L350.633 32.4L357.433 22.8H363.313ZM382.047 38.12C382.047 38.9467 382.167 39.56 382.407 39.96C382.647 40.3333 383.047 40.6133 383.607 40.8L382.407 44.56C381.154 44.4533 380.127 44.16 379.327 43.68C378.554 43.2 377.954 42.4533 377.527 41.44C376.14 43.5733 374.02 44.64 371.167 44.64C369.06 44.64 367.38 44.04 366.127 42.84C364.9 41.6133 364.287 40.0267 364.287 38.08C364.287 35.76 365.127 33.9867 366.807 32.76C368.487 31.5333 370.9 30.92 374.047 30.92H376.487V29.88C376.487 28.5733 376.194 27.6667 375.607 27.16C375.02 26.6533 374.047 26.4 372.687 26.4C371.194 26.4 369.327 26.7733 367.087 27.52L365.807 23.72C368.447 22.68 371.06 22.16 373.647 22.16C376.527 22.16 378.647 22.7867 380.007 24.04C381.367 25.2667 382.047 27.1067 382.047 29.56V38.12ZM372.727 40.56C374.327 40.56 375.58 39.7733 376.487 38.2V34.16H374.607C371.54 34.16 370.007 35.3067 370.007 37.6C370.007 38.5333 370.234 39.2667 370.687 39.8C371.167 40.3067 371.847 40.56 372.727 40.56ZM399.562 22.16C401.429 22.16 402.882 22.7333 403.922 23.88C404.962 25 405.482 26.56 405.482 28.56V44H399.802V29.52C399.802 28.3733 399.602 27.5733 399.202 27.12C398.829 26.64 398.255 26.4 397.482 26.4C396.682 26.4 395.949 26.6533 395.282 27.16C394.642 27.64 394.015 28.3733 393.402 29.36V44H387.722V22.8H392.642L393.082 25.48C393.962 24.3867 394.922 23.56 395.962 23C397.029 22.44 398.229 22.16 399.562 22.16ZM431.612 22.2C432.252 22.2 432.958 22.3067 433.732 22.52L432.772 28C432.025 27.8133 431.398 27.72 430.892 27.72C429.638 27.72 428.665 28.16 427.972 29.04C427.278 29.92 426.732 31.2533 426.332 33.04V44H420.652V22.8H425.572L426.092 26.92C426.598 25.4267 427.332 24.2667 428.292 23.44C429.278 22.6133 430.385 22.2 431.612 22.2ZM453.259 32.92C453.259 33.1867 453.219 33.92 453.139 35.12H439.899C440.086 37.04 440.606 38.4 441.459 39.2C442.312 40 443.472 40.4 444.939 40.4C445.846 40.4 446.699 40.2533 447.499 39.96C448.299 39.6667 449.166 39.2 450.099 38.56L452.459 41.76C450.086 43.68 447.406 44.64 444.419 44.64C441.086 44.64 438.526 43.64 436.739 41.64C434.952 39.64 434.059 36.9333 434.059 33.52C434.059 31.36 434.432 29.4267 435.179 27.72C435.952 25.9867 437.059 24.6267 438.499 23.64C439.966 22.6533 441.699 22.16 443.699 22.16C446.712 22.16 449.059 23.1067 450.739 25C452.419 26.8933 453.259 29.5333 453.259 32.92ZM447.619 31.32C447.619 27.8 446.352 26.04 443.819 26.04C442.646 26.04 441.726 26.48 441.059 27.36C440.419 28.2133 440.032 29.6133 439.899 31.56H447.619V31.32ZM476.33 23.96C474.944 24.4933 472.904 24.76 470.21 24.76C471.544 25.3467 472.53 26.08 473.17 26.96C473.81 27.8133 474.13 28.8933 474.13 30.2C474.13 31.56 473.77 32.7867 473.05 33.88C472.357 34.9467 471.344 35.7867 470.01 36.4C468.704 37.0133 467.17 37.32 465.41 37.32C464.477 37.32 463.65 37.2267 462.93 37.04C462.397 37.3867 462.13 37.8533 462.13 38.44C462.13 38.8667 462.29 39.2133 462.61 39.48C462.957 39.72 463.61 39.84 464.57 39.84H467.81C469.384 39.84 470.757 40.1067 471.93 40.64C473.13 41.1467 474.05 41.8667 474.69 42.8C475.357 43.7067 475.69 44.7467 475.69 45.92C475.69 48.08 474.757 49.76 472.89 50.96C471.05 52.1867 468.384 52.8 464.89 52.8C462.384 52.8 460.397 52.5333 458.93 52C457.49 51.4933 456.477 50.7467 455.89 49.76C455.304 48.7733 455.01 47.5333 455.01 46.04H460.09C460.09 46.7333 460.224 47.28 460.49 47.68C460.757 48.1067 461.237 48.4133 461.93 48.6C462.65 48.8133 463.677 48.92 465.01 48.92C466.85 48.92 468.13 48.6933 468.85 48.24C469.597 47.7867 469.97 47.1467 469.97 46.32C469.97 45.5733 469.69 45 469.13 44.6C468.57 44.2 467.744 44 466.65 44H463.53C461.424 44 459.85 43.6133 458.81 42.84C457.77 42.04 457.25 41.04 457.25 39.84C457.25 39.0933 457.464 38.3733 457.89 37.68C458.344 36.96 458.957 36.36 459.73 35.88C458.424 35.16 457.464 34.32 456.85 33.36C456.264 32.3733 455.97 31.2 455.97 29.84C455.97 28.2933 456.344 26.9467 457.09 25.8C457.864 24.6267 458.93 23.7333 460.29 23.12C461.677 22.48 463.25 22.16 465.01 22.16C467.197 22.2133 468.997 22.0267 470.41 21.6C471.824 21.1733 473.33 20.5067 474.93 19.6L476.33 23.96ZM465.13 25.96C464.064 25.96 463.21 26.3067 462.57 27C461.957 27.6667 461.65 28.5867 461.65 29.76C461.65 30.96 461.957 31.9067 462.57 32.6C463.21 33.2933 464.077 33.64 465.17 33.64C466.317 33.64 467.184 33.3067 467.77 32.64C468.357 31.9733 468.65 30.9867 468.65 29.68C468.65 27.2 467.477 25.96 465.13 25.96ZM496.098 44H491.178L490.898 41.16C490.151 42.3333 489.244 43.2133 488.178 43.8C487.111 44.36 485.871 44.64 484.458 44.64C482.538 44.64 481.071 44.0667 480.058 42.92C479.044 41.7467 478.538 40.12 478.538 38.04V22.8H484.218V37.32C484.218 38.44 484.404 39.24 484.778 39.72C485.151 40.1733 485.738 40.4 486.538 40.4C488.058 40.4 489.351 39.48 490.418 37.64V22.8H496.098V44ZM506.986 44.64C505.253 44.64 503.906 44.1467 502.946 43.16C501.986 42.1467 501.506 40.72 501.506 38.88V14.36L507.186 13.72V38.72C507.186 39.6533 507.573 40.12 508.346 40.12C508.773 40.12 509.146 40.04 509.466 39.88L510.626 43.92C509.533 44.4 508.32 44.64 506.986 44.64ZM529.547 38.12C529.547 38.9467 529.667 39.56 529.907 39.96C530.147 40.3333 530.547 40.6133 531.107 40.8L529.907 44.56C528.654 44.4533 527.627 44.16 526.827 43.68C526.054 43.2 525.454 42.4533 525.027 41.44C523.64 43.5733 521.52 44.64 518.667 44.64C516.56 44.64 514.88 44.04 513.627 42.84C512.4 41.6133 511.787 40.0267 511.787 38.08C511.787 35.76 512.627 33.9867 514.307 32.76C515.987 31.5333 518.4 30.92 521.547 30.92H523.987V29.88C523.987 28.5733 523.694 27.6667 523.107 27.16C522.52 26.6533 521.547 26.4 520.187 26.4C518.694 26.4 516.827 26.7733 514.587 27.52L513.307 23.72C515.947 22.68 518.56 22.16 521.147 22.16C524.027 22.16 526.147 22.7867 527.507 24.04C528.867 25.2667 529.547 27.1067 529.547 29.56V38.12ZM520.227 40.56C521.827 40.56 523.08 39.7733 523.987 38.2V34.16H522.107C519.04 34.16 517.507 35.3067 517.507 37.6C517.507 38.5333 517.734 39.2667 518.187 39.8C518.667 40.3067 519.347 40.56 520.227 40.56ZM551.227 38.12C551.227 38.9467 551.347 39.56 551.587 39.96C551.827 40.3333 552.227 40.6133 552.787 40.8L551.587 44.56C550.333 44.4533 549.307 44.16 548.507 43.68C547.733 43.2 547.133 42.4533 546.707 41.44C545.32 43.5733 543.2 44.64 540.347 44.64C538.24 44.64 536.56 44.04 535.307 42.84C534.08 41.6133 533.467 40.0267 533.467 38.08C533.467 35.76 534.307 33.9867 535.987 32.76C537.667 31.5333 540.08 30.92 543.227 30.92H545.667V29.88C545.667 28.5733 545.373 27.6667 544.787 27.16C544.2 26.6533 543.227 26.4 541.867 26.4C540.373 26.4 538.507 26.7733 536.267 27.52L534.987 23.72C537.627 22.68 540.24 22.16 542.827 22.16C545.707 22.16 547.827 22.7867 549.187 24.04C550.547 25.2667 551.227 27.1067 551.227 29.56V38.12ZM541.907 40.56C543.507 40.56 544.76 39.7733 545.667 38.2V34.16H543.787C540.72 34.16 539.187 35.3067 539.187 37.6C539.187 38.5333 539.413 39.2667 539.867 39.8C540.347 40.3067 541.027 40.56 541.907 40.56ZM567.862 22.2C568.502 22.2 569.208 22.3067 569.982 22.52L569.022 28C568.275 27.8133 567.648 27.72 567.142 27.72C565.888 27.72 564.915 28.16 564.222 29.04C563.528 29.92 562.982 31.2533 562.582 33.04V44H556.902V22.8H561.822L562.342 26.92C562.848 25.4267 563.582 24.2667 564.542 23.44C565.528 22.6133 566.635 22.2 567.862 22.2ZM579.332 22.16C582.319 22.16 584.879 23.0133 587.012 24.72L584.852 27.96C583.066 26.84 581.306 26.28 579.572 26.28C578.639 26.28 577.919 26.4533 577.412 26.8C576.906 27.1467 576.652 27.6133 576.652 28.2C576.652 28.6267 576.759 28.9867 576.972 29.28C577.212 29.5733 577.639 29.8533 578.252 30.12C578.892 30.3867 579.839 30.7067 581.092 31.08C583.332 31.6933 584.999 32.52 586.092 33.56C587.186 34.5733 587.732 35.9733 587.732 37.76C587.732 39.1733 587.319 40.4 586.492 41.44C585.692 42.48 584.599 43.28 583.212 43.84C581.826 44.3733 580.279 44.64 578.572 44.64C576.786 44.64 575.159 44.3733 573.692 43.84C572.226 43.28 570.972 42.52 569.932 41.56L572.732 38.44C574.519 39.8267 576.412 40.52 578.412 40.52C579.479 40.52 580.319 40.32 580.932 39.92C581.572 39.4933 581.892 38.92 581.892 38.2C581.892 37.64 581.772 37.2 581.532 36.88C581.292 36.56 580.852 36.2667 580.212 36C579.572 35.7067 578.572 35.3733 577.212 35C575.079 34.4133 573.492 33.5867 572.452 32.52C571.439 31.4267 570.932 30.08 570.932 28.48C570.932 27.28 571.279 26.2 571.972 25.24C572.666 24.28 573.639 23.5333 574.892 23C576.172 22.44 577.652 22.16 579.332 22.16ZM609.353 32.92C609.353 33.1867 609.313 33.92 609.233 35.12H595.993C596.179 37.04 596.699 38.4 597.553 39.2C598.406 40 599.566 40.4 601.033 40.4C601.939 40.4 602.793 40.2533 603.593 39.96C604.393 39.6667 605.259 39.2 606.193 38.56L608.553 41.76C606.179 43.68 603.499 44.64 600.513 44.64C597.179 44.64 594.619 43.64 592.833 41.64C591.046 39.64 590.153 36.9333 590.153 33.52C590.153 31.36 590.526 29.4267 591.273 27.72C592.046 25.9867 593.153 24.6267 594.593 23.64C596.059 22.6533 597.793 22.16 599.793 22.16C602.806 22.16 605.153 23.1067 606.833 25C608.513 26.8933 609.353 29.5333 609.353 32.92ZM603.713 31.32C603.713 27.8 602.446 26.04 599.913 26.04C598.739 26.04 597.819 26.48 597.153 27.36C596.513 28.2133 596.126 29.6133 595.993 31.56H603.713V31.32ZM618.744 44.64C617.011 44.64 615.664 44.1467 614.704 43.16C613.744 42.1467 613.264 40.72 613.264 38.88V14.36L618.944 13.72V38.72C618.944 39.6533 619.331 40.12 620.104 40.12C620.531 40.12 620.904 40.04 621.224 39.88L622.384 43.92C621.291 44.4 620.077 44.64 618.744 44.64ZM637.98 43C637.207 43.5333 636.327 43.9333 635.34 44.2C634.38 44.4933 633.42 44.64 632.46 44.64C630.273 44.6133 628.62 43.9867 627.5 42.76C626.38 41.5333 625.82 39.7333 625.82 37.36V26.8H622.66V22.8H625.82V18.16L631.5 17.48V22.8H636.38L635.82 26.8H631.5V37.24C631.5 38.2533 631.673 38.9867 632.02 39.44C632.367 39.8933 632.9 40.12 633.62 40.12C634.34 40.12 635.14 39.88 636.02 39.4L637.98 43ZM272.789 62.16C275.776 62.16 278.336 63.0133 280.469 64.72L278.309 67.96C276.523 66.84 274.763 66.28 273.029 66.28C272.096 66.28 271.376 66.4533 270.869 66.8C270.363 67.1467 270.109 67.6133 270.109 68.2C270.109 68.6267 270.216 68.9867 270.429 69.28C270.669 69.5733 271.096 69.8533 271.709 70.12C272.349 70.3867 273.296 70.7067 274.549 71.08C276.789 71.6933 278.456 72.52 279.549 73.56C280.643 74.5733 281.189 75.9733 281.189 77.76C281.189 79.1733 280.776 80.4 279.949 81.44C279.149 82.48 278.056 83.28 276.669 83.84C275.283 84.3733 273.736 84.64 272.029 84.64C270.243 84.64 268.616 84.3733 267.149 83.84C265.683 83.28 264.429 82.52 263.389 81.56L266.189 78.44C267.976 79.8267 269.869 80.52 271.869 80.52C272.936 80.52 273.776 80.32 274.389 79.92C275.029 79.4933 275.349 78.92 275.349 78.2C275.349 77.64 275.229 77.2 274.989 76.88C274.749 76.56 274.309 76.2667 273.669 76C273.029 75.7067 272.029 75.3733 270.669 75C268.536 74.4133 266.949 73.5867 265.909 72.52C264.896 71.4267 264.389 70.08 264.389 68.48C264.389 67.28 264.736 66.2 265.429 65.24C266.123 64.28 267.096 63.5333 268.349 63C269.629 62.44 271.109 62.16 272.789 62.16ZM296.33 62.16C298.997 62.16 300.97 63.1467 302.25 65.12C303.557 67.0667 304.21 69.8133 304.21 73.36C304.21 75.52 303.877 77.4533 303.21 79.16C302.543 80.8667 301.57 82.2133 300.29 83.2C299.037 84.16 297.543 84.64 295.81 84.64C293.65 84.64 291.903 83.88 290.57 82.36V92.16L284.89 92.8V62.8H289.89L290.17 65.28C290.97 64.24 291.903 63.4667 292.97 62.96C294.063 62.4267 295.183 62.16 296.33 62.16ZM294.13 80.4C296.903 80.4 298.29 78.0667 298.29 73.4C298.29 70.84 297.983 69.0267 297.37 67.96C296.757 66.8933 295.823 66.36 294.57 66.36C293.77 66.36 293.023 66.6133 292.33 67.12C291.663 67.6 291.077 68.2533 290.57 69.08V78.32C291.477 79.7067 292.663 80.4 294.13 80.4ZM317.638 62.16C320.811 62.16 323.291 63.16 325.078 65.16C326.865 67.1333 327.758 69.88 327.758 73.4C327.758 75.64 327.345 77.6133 326.518 79.32C325.718 81 324.545 82.3067 322.998 83.24C321.478 84.1733 319.678 84.64 317.598 84.64C314.425 84.64 311.931 83.6533 310.118 81.68C308.331 79.68 307.438 76.92 307.438 73.4C307.438 71.16 307.838 69.2 308.638 67.52C309.465 65.8133 310.638 64.4933 312.158 63.56C313.705 62.6267 315.531 62.16 317.638 62.16ZM317.638 66.4C316.198 66.4 315.118 66.9733 314.398 68.12C313.705 69.24 313.358 71 313.358 73.4C313.358 75.8 313.705 77.5733 314.398 78.72C315.118 79.84 316.185 80.4 317.598 80.4C319.011 80.4 320.065 79.84 320.758 78.72C321.478 77.5733 321.838 75.8 321.838 73.4C321.838 71 321.491 69.24 320.798 68.12C320.105 66.9733 319.051 66.4 317.638 66.4ZM343.037 62.2C343.677 62.2 344.384 62.3067 345.157 62.52L344.197 68C343.451 67.8133 342.824 67.72 342.317 67.72C341.064 67.72 340.091 68.16 339.397 69.04C338.704 69.92 338.157 71.2533 337.757 73.04V84H332.077V62.8H336.997L337.517 66.92C338.024 65.4267 338.757 64.2667 339.717 63.44C340.704 62.6133 341.811 62.2 343.037 62.2ZM360.656 83C359.882 83.5333 359.002 83.9333 358.016 84.2C357.056 84.4933 356.096 84.64 355.136 84.64C352.949 84.6133 351.296 83.9867 350.176 82.76C349.056 81.5333 348.496 79.7333 348.496 77.36V66.8H345.336V62.8H348.496V58.16L354.176 57.48V62.8H359.056L358.496 66.8H354.176V77.24C354.176 78.2533 354.349 78.9867 354.696 79.44C355.042 79.8933 355.576 80.12 356.296 80.12C357.016 80.12 357.816 79.88 358.696 79.4L360.656 83ZM368.851 62.8V84H363.171V62.8H368.851ZM365.971 51.88C366.984 51.88 367.811 52.2 368.451 52.84C369.118 53.4533 369.451 54.24 369.451 55.2C369.451 56.16 369.118 56.96 368.451 57.6C367.811 58.2133 366.984 58.52 365.971 58.52C364.958 58.52 364.131 58.2133 363.491 57.6C362.851 56.96 362.531 56.16 362.531 55.2C362.531 54.24 362.851 53.4533 363.491 52.84C364.131 52.2 364.958 51.88 365.971 51.88ZM397.38 62.16C399.06 62.16 400.407 62.7333 401.42 63.88C402.46 65.0267 402.98 66.5867 402.98 68.56V84H397.3V69.52C397.3 67.44 396.607 66.4 395.22 66.4C394.473 66.4 393.82 66.64 393.26 67.12C392.7 67.6 392.127 68.3467 391.54 69.36V84H385.86V69.52C385.86 67.44 385.167 66.4 383.78 66.4C383.033 66.4 382.38 66.6533 381.82 67.16C381.26 67.64 380.7 68.3733 380.14 69.36V84H374.46V62.8H379.38L379.82 65.44C380.62 64.3733 381.513 63.56 382.5 63C383.513 62.44 384.673 62.16 385.98 62.16C387.18 62.16 388.22 62.4667 389.1 63.08C389.98 63.6667 390.62 64.5067 391.02 65.6C391.9 64.4533 392.847 63.6 393.86 63.04C394.9 62.4533 396.073 62.16 397.38 62.16ZM424.566 78.12C424.566 78.9467 424.686 79.56 424.926 79.96C425.166 80.3333 425.566 80.6133 426.126 80.8L424.926 84.56C423.673 84.4533 422.646 84.16 421.846 83.68C421.073 83.2 420.473 82.4533 420.046 81.44C418.66 83.5733 416.54 84.64 413.686 84.64C411.58 84.64 409.9 84.04 408.646 82.84C407.42 81.6133 406.806 80.0267 406.806 78.08C406.806 75.76 407.646 73.9867 409.326 72.76C411.006 71.5333 413.42 70.92 416.566 70.92H419.006V69.88C419.006 68.5733 418.713 67.6667 418.126 67.16C417.54 66.6533 416.566 66.4 415.206 66.4C413.713 66.4 411.846 66.7733 409.606 67.52L408.326 63.72C410.966 62.68 413.58 62.16 416.166 62.16C419.046 62.16 421.166 62.7867 422.526 64.04C423.886 65.2667 424.566 67.1067 424.566 69.56V78.12ZM415.246 80.56C416.846 80.56 418.1 79.7733 419.006 78.2V74.16H417.126C414.06 74.16 412.526 75.3067 412.526 77.6C412.526 78.5333 412.753 79.2667 413.206 79.8C413.686 80.3067 414.366 80.56 415.246 80.56ZM432.201 77.8C433.161 77.8 433.975 78.1333 434.641 78.8C435.308 79.4667 435.641 80.2667 435.641 81.2C435.641 82.1333 435.308 82.9467 434.641 83.64C433.975 84.3067 433.161 84.64 432.201 84.64C431.268 84.64 430.468 84.3067 429.801 83.64C429.135 82.9467 428.801 82.1333 428.801 81.2C428.801 80.2667 429.135 79.4667 429.801 78.8C430.468 78.1333 431.268 77.8 432.201 77.8Z" fill="#E3000F"/>
</svg>
