<svg width="700" height="100" viewBox="0 0 700 100" fill="none" xmlns="http://www.w3.org/2000/svg">
<path d="M93.7367 34.88C93.7367 36.7733 93.3367 38.4533 92.5367 39.92C91.7367 41.3867 90.5367 42.5467 88.9367 43.4C87.3634 44.2267 85.4434 44.64 83.1767 44.64C79.7634 44.64 77.1501 43.76 75.3367 42C73.5501 40.2133 72.6567 37.84 72.6567 34.88V16.32H78.5367V34.6C78.5367 36.4667 78.9101 37.8667 79.6567 38.8C80.4034 39.7067 81.5767 40.16 83.1767 40.16C84.7767 40.16 85.9501 39.7067 86.6967 38.8C87.4701 37.8667 87.8567 36.4667 87.8567 34.6V16.32H93.7367V34.88ZM116.469 44H111.549L111.269 41.16C110.522 42.3333 109.615 43.2133 108.549 43.8C107.482 44.36 106.242 44.64 104.829 44.64C102.909 44.64 101.442 44.0667 100.429 42.92C99.4153 41.7467 98.9086 40.12 98.9086 38.04V22.8H104.589V37.32C104.589 38.44 104.775 39.24 105.149 39.72C105.522 40.1733 106.109 40.4 106.909 40.4C108.429 40.4 109.722 39.48 110.789 37.64V22.8H116.469V44ZM139.997 32.92C139.997 33.1867 139.957 33.92 139.877 35.12H126.637C126.824 37.04 127.344 38.4 128.197 39.2C129.051 40 130.211 40.4 131.677 40.4C132.584 40.4 133.437 40.2533 134.237 39.96C135.037 39.6667 135.904 39.2 136.837 38.56L139.197 41.76C136.824 43.68 134.144 44.64 131.157 44.64C127.824 44.64 125.264 43.64 123.477 41.64C121.691 39.64 120.797 36.9333 120.797 33.52C120.797 31.36 121.171 29.4267 121.917 27.72C122.691 25.9867 123.797 24.6267 125.237 23.64C126.704 22.6533 128.437 22.16 130.437 22.16C133.451 22.16 135.797 23.1067 137.477 25C139.157 26.8933 139.997 29.5333 139.997 32.92ZM134.357 31.32C134.357 27.8 133.091 26.04 130.557 26.04C129.384 26.04 128.464 26.48 127.797 27.36C127.157 28.2133 126.771 29.6133 126.637 31.56H134.357V31.32ZM149.389 44.64C147.655 44.64 146.309 44.1467 145.349 43.16C144.389 42.1467 143.909 40.72 143.909 38.88V14.36L149.589 13.72V38.72C149.589 39.6533 149.975 40.12 150.749 40.12C151.175 40.12 151.549 40.04 151.869 39.88L153.029 43.92C151.935 44.4 150.722 44.64 149.389 44.64ZM181.91 38.12C181.91 38.9467 182.03 39.56 182.27 39.96C182.51 40.3333 182.91 40.6133 183.47 40.8L182.27 44.56C181.017 44.4533 179.99 44.16 179.19 43.68C178.417 43.2 177.817 42.4533 177.39 41.44C176.003 43.5733 173.883 44.64 171.03 44.64C168.923 44.64 167.243 44.04 165.99 42.84C164.763 41.6133 164.15 40.0267 164.15 38.08C164.15 35.76 164.99 33.9867 166.67 32.76C168.35 31.5333 170.763 30.92 173.91 30.92H176.35V29.88C176.35 28.5733 176.057 27.6667 175.47 27.16C174.883 26.6533 173.91 26.4 172.55 26.4C171.057 26.4 169.19 26.7733 166.95 27.52L165.67 23.72C168.31 22.68 170.923 22.16 173.51 22.16C176.39 22.16 178.51 22.7867 179.87 24.04C181.23 25.2667 181.91 27.1067 181.91 29.56V38.12ZM172.59 40.56C174.19 40.56 175.443 39.7733 176.35 38.2V34.16H174.47C171.403 34.16 169.87 35.3067 169.87 37.6C169.87 38.5333 170.097 39.2667 170.55 39.8C171.03 40.3067 171.71 40.56 172.59 40.56ZM203.59 38.12C203.59 38.9467 203.71 39.56 203.95 39.96C204.19 40.3333 204.59 40.6133 205.15 40.8L203.95 44.56C202.697 44.4533 201.67 44.16 200.87 43.68C200.097 43.2 199.497 42.4533 199.07 41.44C197.683 43.5733 195.563 44.64 192.71 44.64C190.603 44.64 188.923 44.04 187.67 42.84C186.443 41.6133 185.83 40.0267 185.83 38.08C185.83 35.76 186.67 33.9867 188.35 32.76C190.03 31.5333 192.443 30.92 195.59 30.92H198.03V29.88C198.03 28.5733 197.737 27.6667 197.15 27.16C196.563 26.6533 195.59 26.4 194.23 26.4C192.737 26.4 190.87 26.7733 188.63 27.52L187.35 23.72C189.99 22.68 192.603 22.16 195.19 22.16C198.07 22.16 200.19 22.7867 201.55 24.04C202.91 25.2667 203.59 27.1067 203.59 29.56V38.12ZM194.27 40.56C195.87 40.56 197.123 39.7733 198.03 38.2V34.16H196.15C193.083 34.16 191.55 35.3067 191.55 37.6C191.55 38.5333 191.777 39.2667 192.23 39.8C192.71 40.3067 193.39 40.56 194.27 40.56ZM215.914 22.16C218.901 22.16 221.461 23.0133 223.594 24.72L221.434 27.96C219.648 26.84 217.888 26.28 216.154 26.28C215.221 26.28 214.501 26.4533 213.994 26.8C213.488 27.1467 213.234 27.6133 213.234 28.2C213.234 28.6267 213.341 28.9867 213.554 29.28C213.794 29.5733 214.221 29.8533 214.834 30.12C215.474 30.3867 216.421 30.7067 217.674 31.08C219.914 31.6933 221.581 32.52 222.674 33.56C223.768 34.5733 224.314 35.9733 224.314 37.76C224.314 39.1733 223.901 40.4 223.074 41.44C222.274 42.48 221.181 43.28 219.794 43.84C218.408 44.3733 216.861 44.64 215.154 44.64C213.368 44.64 211.741 44.3733 210.274 43.84C208.808 43.28 207.554 42.52 206.514 41.56L209.314 38.44C211.101 39.8267 212.994 40.52 214.994 40.52C216.061 40.52 216.901 40.32 217.514 39.92C218.154 39.4933 218.474 38.92 218.474 38.2C218.474 37.64 218.354 37.2 218.114 36.88C217.874 36.56 217.434 36.2667 216.794 36C216.154 35.7067 215.154 35.3733 213.794 35C211.661 34.4133 210.074 33.5867 209.034 32.52C208.021 31.4267 207.514 30.08 207.514 28.48C207.514 27.28 207.861 26.2 208.554 25.24C209.248 24.28 210.221 23.5333 211.474 23C212.754 22.44 214.234 22.16 215.914 22.16ZM240.695 43C239.922 43.5333 239.042 43.9333 238.055 44.2C237.095 44.4933 236.135 44.64 235.175 44.64C232.988 44.6133 231.335 43.9867 230.215 42.76C229.095 41.5333 228.535 39.7333 228.535 37.36V26.8H225.375V22.8H228.535V18.16L234.215 17.48V22.8H239.095L238.535 26.8H234.215V37.24C234.215 38.2533 234.388 38.9867 234.735 39.44C235.082 39.8933 235.615 40.12 236.335 40.12C237.055 40.12 237.855 39.88 238.735 39.4L240.695 43ZM258.98 38.12C258.98 38.9467 259.1 39.56 259.34 39.96C259.58 40.3333 259.98 40.6133 260.54 40.8L259.34 44.56C258.087 44.4533 257.06 44.16 256.26 43.68C255.487 43.2 254.887 42.4533 254.46 41.44C253.074 43.5733 250.954 44.64 248.1 44.64C245.994 44.64 244.314 44.04 243.06 42.84C241.834 41.6133 241.22 40.0267 241.22 38.08C241.22 35.76 242.06 33.9867 243.74 32.76C245.42 31.5333 247.834 30.92 250.98 30.92H253.42V29.88C253.42 28.5733 253.127 27.6667 252.54 27.16C251.954 26.6533 250.98 26.4 249.62 26.4C248.127 26.4 246.26 26.7733 244.02 27.52L242.74 23.72C245.38 22.68 247.994 22.16 250.58 22.16C253.46 22.16 255.58 22.7867 256.94 24.04C258.3 25.2667 258.98 27.1067 258.98 29.56V38.12ZM249.66 40.56C251.26 40.56 252.514 39.7733 253.42 38.2V34.16H251.54C248.474 34.16 246.94 35.3067 246.94 37.6C246.94 38.5333 247.167 39.2667 247.62 39.8C248.1 40.3067 248.78 40.56 249.66 40.56ZM269.545 44.64C267.812 44.64 266.465 44.1467 265.505 43.16C264.545 42.1467 264.065 40.72 264.065 38.88V14.36L269.745 13.72V38.72C269.745 39.6533 270.132 40.12 270.905 40.12C271.332 40.12 271.705 40.04 272.025 39.88L273.185 43.92C272.092 44.4 270.878 44.64 269.545 44.64ZM291.546 13.72V44H285.866V14.36L291.546 13.72ZM304.426 22.8L297.666 32.12L305.026 44H298.586L291.746 32.4L298.546 22.8H304.426ZM323.16 38.12C323.16 38.9467 323.28 39.56 323.52 39.96C323.76 40.3333 324.16 40.6133 324.72 40.8L323.52 44.56C322.267 44.4533 321.24 44.16 320.44 43.68C319.667 43.2 319.067 42.4533 318.64 41.44C317.253 43.5733 315.133 44.64 312.28 44.64C310.173 44.64 308.493 44.04 307.24 42.84C306.013 41.6133 305.4 40.0267 305.4 38.08C305.4 35.76 306.24 33.9867 307.92 32.76C309.6 31.5333 312.013 30.92 315.16 30.92H317.6V29.88C317.6 28.5733 317.307 27.6667 316.72 27.16C316.133 26.6533 315.16 26.4 313.8 26.4C312.307 26.4 310.44 26.7733 308.2 27.52L306.92 23.72C309.56 22.68 312.173 22.16 314.76 22.16C317.64 22.16 319.76 22.7867 321.12 24.04C322.48 25.2667 323.16 27.1067 323.16 29.56V38.12ZM313.84 40.56C315.44 40.56 316.693 39.7733 317.6 38.2V34.16H315.72C312.653 34.16 311.12 35.3067 311.12 37.6C311.12 38.5333 311.347 39.2667 311.8 39.8C312.28 40.3067 312.96 40.56 313.84 40.56ZM310.36 12.32C311.213 12.32 311.92 12.6133 312.48 13.2C313.067 13.76 313.36 14.4533 313.36 15.28C313.36 16.1067 313.067 16.8133 312.48 17.4C311.92 17.96 311.213 18.24 310.36 18.24C309.533 18.24 308.827 17.96 308.24 17.4C307.653 16.8133 307.36 16.1067 307.36 15.28C307.36 14.4533 307.653 13.76 308.24 13.2C308.827 12.6133 309.533 12.32 310.36 12.32ZM319.4 12.32C320.253 12.32 320.973 12.6133 321.56 13.2C322.147 13.76 322.44 14.4533 322.44 15.28C322.44 16.1067 322.147 16.8133 321.56 17.4C320.973 17.96 320.253 18.24 319.4 18.24C318.573 18.24 317.867 17.96 317.28 17.4C316.72 16.8133 316.44 16.1067 316.44 15.28C316.44 14.4533 316.72 13.76 317.28 13.2C317.867 12.6133 318.573 12.32 319.4 12.32ZM334.515 22.8V44H328.835V22.8H334.515ZM331.635 11.88C332.648 11.88 333.475 12.2 334.115 12.84C334.782 13.4533 335.115 14.24 335.115 15.2C335.115 16.16 334.782 16.96 334.115 17.6C333.475 18.2133 332.648 18.52 331.635 18.52C330.622 18.52 329.795 18.2133 329.155 17.6C328.515 16.96 328.195 16.16 328.195 15.2C328.195 14.24 328.515 13.4533 329.155 12.84C329.795 12.2 330.622 11.88 331.635 11.88ZM351.964 22.16C353.831 22.16 355.284 22.7333 356.324 23.88C357.364 25 357.884 26.56 357.884 28.56V44H352.204V29.52C352.204 28.3733 352.004 27.5733 351.604 27.12C351.231 26.64 350.658 26.4 349.884 26.4C349.084 26.4 348.351 26.6533 347.684 27.16C347.044 27.64 346.418 28.3733 345.804 29.36V44H340.124V22.8H345.044L345.484 25.48C346.364 24.3867 347.324 23.56 348.364 23C349.431 22.44 350.631 22.16 351.964 22.16ZM380.094 22.16C383.081 22.16 385.641 23.0133 387.774 24.72L385.614 27.96C383.827 26.84 382.067 26.28 380.334 26.28C379.401 26.28 378.681 26.4533 378.174 26.8C377.667 27.1467 377.414 27.6133 377.414 28.2C377.414 28.6267 377.521 28.9867 377.734 29.28C377.974 29.5733 378.401 29.8533 379.014 30.12C379.654 30.3867 380.601 30.7067 381.854 31.08C384.094 31.6933 385.761 32.52 386.854 33.56C387.947 34.5733 388.494 35.9733 388.494 37.76C388.494 39.1733 388.081 40.4 387.254 41.44C386.454 42.48 385.361 43.28 383.974 43.84C382.587 44.3733 381.041 44.64 379.334 44.64C377.547 44.64 375.921 44.3733 374.454 43.84C372.987 43.28 371.734 42.52 370.694 41.56L373.494 38.44C375.281 39.8267 377.174 40.52 379.174 40.52C380.241 40.52 381.081 40.32 381.694 39.92C382.334 39.4933 382.654 38.92 382.654 38.2C382.654 37.64 382.534 37.2 382.294 36.88C382.054 36.56 381.614 36.2667 380.974 36C380.334 35.7067 379.334 35.3733 377.974 35C375.841 34.4133 374.254 33.5867 373.214 32.52C372.201 31.4267 371.694 30.08 371.694 28.48C371.694 27.28 372.041 26.2 372.734 25.24C373.427 24.28 374.401 23.5333 375.654 23C376.934 22.44 378.414 22.16 380.094 22.16ZM401.115 22.16C404.288 22.16 406.768 23.16 408.555 25.16C410.341 27.1333 411.235 29.88 411.235 33.4C411.235 35.64 410.821 37.6133 409.995 39.32C409.195 41 408.021 42.3067 406.475 43.24C404.955 44.1733 403.155 44.64 401.075 44.64C397.901 44.64 395.408 43.6533 393.595 41.68C391.808 39.68 390.915 36.92 390.915 33.4C390.915 31.16 391.315 29.2 392.115 27.52C392.941 25.8133 394.115 24.4933 395.635 23.56C397.181 22.6267 399.008 22.16 401.115 22.16ZM401.115 26.4C399.675 26.4 398.595 26.9733 397.875 28.12C397.181 29.24 396.835 31 396.835 33.4C396.835 35.8 397.181 37.5733 397.875 38.72C398.595 39.84 399.661 40.4 401.075 40.4C402.488 40.4 403.541 39.84 404.235 38.72C404.955 37.5733 405.315 35.8 405.315 33.4C405.315 31 404.968 29.24 404.275 28.12C403.581 26.9733 402.528 26.4 401.115 26.4ZM403.395 18.4C402.835 18.4 402.341 18.3067 401.915 18.12C401.515 17.9333 401.035 17.6667 400.475 17.32C400.128 17.0533 399.821 16.8667 399.555 16.76C399.315 16.6267 399.061 16.56 398.795 16.56C398.368 16.56 397.995 16.7067 397.675 17C397.355 17.2933 397.021 17.7467 396.675 18.36L393.755 16.92C394.288 15.6133 394.981 14.5467 395.835 13.72C396.688 12.8933 397.648 12.48 398.715 12.48C399.328 12.48 399.848 12.5867 400.275 12.8C400.701 12.9867 401.181 13.2533 401.715 13.6C402.061 13.84 402.355 14.0267 402.595 14.16C402.835 14.2667 403.088 14.32 403.355 14.32C403.781 14.32 404.141 14.1867 404.435 13.92C404.755 13.6267 405.101 13.1733 405.475 12.56L408.395 14C407.861 15.36 407.168 16.44 406.315 17.24C405.461 18.0133 404.488 18.4 403.395 18.4ZM427.034 22.16C429.514 22.16 431.434 23.1467 432.794 25.12C434.181 27.0933 434.874 29.8533 434.874 33.4C434.874 35.5867 434.527 37.5333 433.834 39.24C433.167 40.92 432.194 42.24 430.914 43.2C429.661 44.16 428.181 44.64 426.474 44.64C424.154 44.64 422.301 43.7333 420.914 41.92L420.594 44H415.554V14.36L421.234 13.72V25.08C421.901 24.1733 422.741 23.4667 423.754 22.96C424.767 22.4267 425.861 22.16 427.034 22.16ZM424.874 40.44C427.594 40.44 428.954 38.0933 428.954 33.4C428.954 30.8133 428.621 29 427.954 27.96C427.314 26.8933 426.381 26.36 425.154 26.36C423.634 26.36 422.327 27.2667 421.234 29.08V38.16C422.167 39.68 423.381 40.44 424.874 40.44ZM450.342 22.2C450.982 22.2 451.689 22.3067 452.462 22.52L451.502 28C450.755 27.8133 450.129 27.72 449.622 27.72C448.369 27.72 447.395 28.16 446.702 29.04C446.009 29.92 445.462 31.2533 445.062 33.04V44H439.382V22.8H444.302L444.822 26.92C445.329 25.4267 446.062 24.2667 447.022 23.44C448.009 22.6133 449.115 22.2 450.342 22.2ZM470.074 38.12C470.074 38.9467 470.194 39.56 470.434 39.96C470.674 40.3333 471.074 40.6133 471.634 40.8L470.434 44.56C469.181 44.4533 468.154 44.16 467.354 43.68C466.581 43.2 465.981 42.4533 465.554 41.44C464.168 43.5733 462.048 44.64 459.194 44.64C457.088 44.64 455.408 44.04 454.154 42.84C452.928 41.6133 452.314 40.0267 452.314 38.08C452.314 35.76 453.154 33.9867 454.834 32.76C456.514 31.5333 458.928 30.92 462.074 30.92H464.514V29.88C464.514 28.5733 464.221 27.6667 463.634 27.16C463.048 26.6533 462.074 26.4 460.714 26.4C459.221 26.4 457.354 26.7733 455.114 27.52L453.834 23.72C456.474 22.68 459.088 22.16 461.674 22.16C464.554 22.16 466.674 22.7867 468.034 24.04C469.394 25.2667 470.074 27.1067 470.074 29.56V38.12ZM460.754 40.56C462.354 40.56 463.608 39.7733 464.514 38.2V34.16H462.634C459.568 34.16 458.034 35.3067 458.034 37.6C458.034 38.5333 458.261 39.2667 458.714 39.8C459.194 40.3067 459.874 40.56 460.754 40.56ZM487.589 22.16C489.456 22.16 490.909 22.7333 491.949 23.88C492.989 25 493.509 26.56 493.509 28.56V44H487.829V29.52C487.829 28.3733 487.629 27.5733 487.229 27.12C486.856 26.64 486.283 26.4 485.509 26.4C484.709 26.4 483.976 26.6533 483.309 27.16C482.669 27.64 482.043 28.3733 481.429 29.36V44H475.749V22.8H480.669L481.109 25.48C481.989 24.3867 482.949 23.56 483.989 23C485.056 22.44 486.256 22.16 487.589 22.16ZM510.753 22.16C512.62 22.16 514.073 22.7333 515.113 23.88C516.153 25 516.673 26.56 516.673 28.56V44H510.993V29.52C510.993 28.3733 510.793 27.5733 510.393 27.12C510.02 26.64 509.447 26.4 508.673 26.4C507.873 26.4 507.14 26.6533 506.473 27.16C505.833 27.64 505.207 28.3733 504.593 29.36V44H498.913V22.8H503.833L504.273 25.48C505.153 24.3867 506.113 23.56 507.153 23C508.22 22.44 509.42 22.16 510.753 22.16ZM538.277 38.12C538.277 38.9467 538.397 39.56 538.637 39.96C538.877 40.3333 539.277 40.6133 539.837 40.8L538.637 44.56C537.384 44.4533 536.357 44.16 535.557 43.68C534.784 43.2 534.184 42.4533 533.757 41.44C532.371 43.5733 530.251 44.64 527.397 44.64C525.291 44.64 523.611 44.04 522.357 42.84C521.131 41.6133 520.517 40.0267 520.517 38.08C520.517 35.76 521.357 33.9867 523.037 32.76C524.717 31.5333 527.131 30.92 530.277 30.92H532.717V29.88C532.717 28.5733 532.424 27.6667 531.837 27.16C531.251 26.6533 530.277 26.4 528.917 26.4C527.424 26.4 525.557 26.7733 523.317 27.52L522.037 23.72C524.677 22.68 527.291 22.16 529.877 22.16C532.757 22.16 534.877 22.7867 536.237 24.04C537.597 25.2667 538.277 27.1067 538.277 29.56V38.12ZM528.957 40.56C530.557 40.56 531.811 39.7733 532.717 38.2V34.16H530.837C527.771 34.16 526.237 35.3067 526.237 37.6C526.237 38.5333 526.464 39.2667 526.917 39.8C527.397 40.3067 528.077 40.56 528.957 40.56ZM562.312 14.36V44H557.312L556.992 41.4C555.499 43.56 553.472 44.64 550.912 44.64C548.299 44.64 546.299 43.64 544.912 41.64C543.552 39.6133 542.872 36.8667 542.872 33.4C542.872 31.2133 543.219 29.28 543.912 27.6C544.632 25.8933 545.646 24.56 546.952 23.6C548.259 22.64 549.766 22.16 551.472 22.16C553.446 22.16 555.166 22.8667 556.632 24.28V13.72L562.312 14.36ZM552.592 40.4C553.419 40.4 554.152 40.2 554.792 39.8C555.432 39.3733 556.046 38.72 556.632 37.84V28.36C556.072 27.6933 555.499 27.2 554.912 26.88C554.352 26.5333 553.699 26.36 552.952 26.36C551.646 26.36 550.619 26.9333 549.872 28.08C549.152 29.2267 548.792 31 548.792 33.4C548.792 35.9333 549.112 37.7333 549.752 38.8C550.419 39.8667 551.366 40.4 552.592 40.4ZM585.818 32.92C585.818 33.1867 585.778 33.92 585.698 35.12H572.458C572.644 37.04 573.164 38.4 574.018 39.2C574.871 40 576.031 40.4 577.498 40.4C578.404 40.4 579.258 40.2533 580.058 39.96C580.858 39.6667 581.724 39.2 582.658 38.56L585.018 41.76C582.644 43.68 579.964 44.64 576.978 44.64C573.644 44.64 571.084 43.64 569.298 41.64C567.511 39.64 566.618 36.9333 566.618 33.52C566.618 31.36 566.991 29.4267 567.738 27.72C568.511 25.9867 569.618 24.6267 571.058 23.64C572.524 22.6533 574.258 22.16 576.258 22.16C579.271 22.16 581.618 23.1067 583.298 25C584.978 26.8933 585.818 29.5333 585.818 32.92ZM580.178 31.32C580.178 27.8 578.911 26.04 576.378 26.04C575.204 26.04 574.284 26.48 573.618 27.36C572.978 28.2133 572.591 29.6133 572.458 31.56H580.178V31.32ZM608.889 23.96C607.502 24.4933 605.462 24.76 602.769 24.76C604.102 25.3467 605.089 26.08 605.729 26.96C606.369 27.8133 606.689 28.8933 606.689 30.2C606.689 31.56 606.329 32.7867 605.609 33.88C604.916 34.9467 603.902 35.7867 602.569 36.4C601.262 37.0133 599.729 37.32 597.969 37.32C597.036 37.32 596.209 37.2267 595.489 37.04C594.956 37.3867 594.689 37.8533 594.689 38.44C594.689 38.8667 594.849 39.2133 595.169 39.48C595.516 39.72 596.169 39.84 597.129 39.84H600.369C601.942 39.84 603.316 40.1067 604.489 40.64C605.689 41.1467 606.609 41.8667 607.249 42.8C607.916 43.7067 608.249 44.7467 608.249 45.92C608.249 48.08 607.316 49.76 605.449 50.96C603.609 52.1867 600.942 52.8 597.449 52.8C594.942 52.8 592.956 52.5333 591.489 52C590.049 51.4933 589.036 50.7467 588.449 49.76C587.862 48.7733 587.569 47.5333 587.569 46.04H592.649C592.649 46.7333 592.782 47.28 593.049 47.68C593.316 48.1067 593.796 48.4133 594.489 48.6C595.209 48.8133 596.236 48.92 597.569 48.92C599.409 48.92 600.689 48.6933 601.409 48.24C602.156 47.7867 602.529 47.1467 602.529 46.32C602.529 45.5733 602.249 45 601.689 44.6C601.129 44.2 600.302 44 599.209 44H596.089C593.982 44 592.409 43.6133 591.369 42.84C590.329 42.04 589.809 41.04 589.809 39.84C589.809 39.0933 590.022 38.3733 590.449 37.68C590.902 36.96 591.516 36.36 592.289 35.88C590.982 35.16 590.022 34.32 589.409 33.36C588.822 32.3733 588.529 31.2 588.529 29.84C588.529 28.2933 588.902 26.9467 589.649 25.8C590.422 24.6267 591.489 23.7333 592.849 23.12C594.236 22.48 595.809 22.16 597.569 22.16C599.756 22.2133 601.556 22.0267 602.969 21.6C604.382 21.1733 605.889 20.5067 607.489 19.6L608.889 23.96ZM597.689 25.96C596.622 25.96 595.769 26.3067 595.129 27C594.516 27.6667 594.209 28.5867 594.209 29.76C594.209 30.96 594.516 31.9067 595.129 32.6C595.769 33.2933 596.636 33.64 597.729 33.64C598.876 33.64 599.742 33.3067 600.329 32.64C600.916 31.9733 601.209 30.9867 601.209 29.68C601.209 27.2 600.036 25.96 597.689 25.96ZM626.988 38.12C626.988 38.9467 627.108 39.56 627.348 39.96C627.588 40.3333 627.988 40.6133 628.548 40.8L627.348 44.56C626.095 44.4533 625.068 44.16 624.268 43.68C623.495 43.2 622.895 42.4533 622.468 41.44C621.082 43.5733 618.962 44.64 616.108 44.64C614.002 44.64 612.322 44.04 611.068 42.84C609.842 41.6133 609.228 40.0267 609.228 38.08C609.228 35.76 610.068 33.9867 611.748 32.76C613.428 31.5333 615.842 30.92 618.988 30.92H621.428V29.88C621.428 28.5733 621.135 27.6667 620.548 27.16C619.962 26.6533 618.988 26.4 617.628 26.4C616.135 26.4 614.268 26.7733 612.028 27.52L610.748 23.72C613.388 22.68 616.002 22.16 618.588 22.16C621.468 22.16 623.588 22.7867 624.948 24.04C626.308 25.2667 626.988 27.1067 626.988 29.56V38.12ZM617.668 40.56C619.268 40.56 620.522 39.7733 621.428 38.2V34.16H619.548C616.482 34.16 614.948 35.3067 614.948 37.6C614.948 38.5333 615.175 39.2667 615.628 39.8C616.108 40.3067 616.788 40.56 617.668 40.56ZM179.756 62.2C180.396 62.2 181.103 62.3067 181.876 62.52L180.916 68C180.169 67.8133 179.543 67.72 179.036 67.72C177.783 67.72 176.809 68.16 176.116 69.04C175.423 69.92 174.876 71.2533 174.476 73.04V84H168.796V62.8H173.716L174.236 66.92C174.743 65.4267 175.476 64.2667 176.436 63.44C177.423 62.6133 178.529 62.2 179.756 62.2ZM192.404 62.16C195.577 62.16 198.057 63.16 199.844 65.16C201.63 67.1333 202.524 69.88 202.524 73.4C202.524 75.64 202.11 77.6133 201.284 79.32C200.484 81 199.31 82.3067 197.764 83.24C196.244 84.1733 194.444 84.64 192.364 84.64C189.19 84.64 186.697 83.6533 184.884 81.68C183.097 79.68 182.204 76.92 182.204 73.4C182.204 71.16 182.604 69.2 183.404 67.52C184.23 65.8133 185.404 64.4933 186.924 63.56C188.47 62.6267 190.297 62.16 192.404 62.16ZM192.404 66.4C190.964 66.4 189.884 66.9733 189.164 68.12C188.47 69.24 188.124 71 188.124 73.4C188.124 75.8 188.47 77.5733 189.164 78.72C189.884 79.84 190.95 80.4 192.364 80.4C193.777 80.4 194.83 79.84 195.524 78.72C196.244 77.5733 196.604 75.8 196.604 73.4C196.604 71 196.257 69.24 195.564 68.12C194.87 66.9733 193.817 66.4 192.404 66.4ZM218.683 62.16C220.523 62.16 221.963 62.7333 223.003 63.88C224.07 65 224.603 66.56 224.603 68.56V84H218.923V69.52C218.923 68.3733 218.723 67.5733 218.323 67.12C217.923 66.64 217.35 66.4 216.603 66.4C215.11 66.4 213.75 67.3733 212.523 69.32V84H206.843V54.36L212.523 53.76V65.2C213.376 64.1867 214.296 63.4267 215.283 62.92C216.296 62.4133 217.43 62.16 218.683 62.16ZM235.687 53.72V84H230.007V54.36L235.687 53.72ZM248.567 62.8L241.807 72.12L249.167 84H242.727L235.887 72.4L242.687 62.8H248.567ZM269.138 72.92C269.138 73.1867 269.098 73.92 269.018 75.12H255.778C255.965 77.04 256.485 78.4 257.338 79.2C258.191 80 259.351 80.4 260.818 80.4C261.725 80.4 262.578 80.2533 263.378 79.96C264.178 79.6667 265.045 79.2 265.978 78.56L268.338 81.76C265.965 83.68 263.285 84.64 260.298 84.64C256.965 84.64 254.405 83.64 252.618 81.64C250.831 79.64 249.938 76.9333 249.938 73.52C249.938 71.36 250.311 69.4267 251.058 67.72C251.831 65.9867 252.938 64.6267 254.378 63.64C255.845 62.6533 257.578 62.16 259.578 62.16C262.591 62.16 264.938 63.1067 266.618 65C268.298 66.8933 269.138 69.5333 269.138 72.92ZM263.498 71.32C263.498 67.8 262.231 66.04 259.698 66.04C258.525 66.04 257.605 66.48 256.938 67.36C256.298 68.2133 255.911 69.6133 255.778 71.56H263.498V71.32ZM296.169 62.16C297.849 62.16 299.196 62.7333 300.209 63.88C301.249 65.0267 301.769 66.5867 301.769 68.56V84H296.089V69.52C296.089 67.44 295.396 66.4 294.009 66.4C293.263 66.4 292.609 66.64 292.049 67.12C291.489 67.6 290.916 68.3467 290.329 69.36V84H284.649V69.52C284.649 67.44 283.956 66.4 282.569 66.4C281.823 66.4 281.169 66.6533 280.609 67.16C280.049 67.64 279.489 68.3733 278.929 69.36V84H273.249V62.8H278.169L278.609 65.44C279.409 64.3733 280.303 63.56 281.289 63C282.303 62.44 283.463 62.16 284.769 62.16C285.969 62.16 287.009 62.4667 287.889 63.08C288.769 63.6667 289.409 64.5067 289.809 65.6C290.689 64.4533 291.636 63.6 292.649 63.04C293.689 62.4533 294.863 62.16 296.169 62.16ZM322.601 53.72V84H316.921V54.36L322.601 53.72ZM335.481 62.8L328.721 72.12L336.081 84H329.641L322.801 72.4L329.601 62.8H335.481ZM347.052 62.16C350.225 62.16 352.705 63.16 354.492 65.16C356.279 67.1333 357.172 69.88 357.172 73.4C357.172 75.64 356.759 77.6133 355.932 79.32C355.132 81 353.959 82.3067 352.412 83.24C350.892 84.1733 349.092 84.64 347.012 84.64C343.839 84.64 341.345 83.6533 339.532 81.68C337.745 79.68 336.852 76.92 336.852 73.4C336.852 71.16 337.252 69.2 338.052 67.52C338.879 65.8133 340.052 64.4933 341.572 63.56C343.119 62.6267 344.945 62.16 347.052 62.16ZM347.052 66.4C345.612 66.4 344.532 66.9733 343.812 68.12C343.119 69.24 342.772 71 342.772 73.4C342.772 75.8 343.119 77.5733 343.812 78.72C344.532 79.84 345.599 80.4 347.012 80.4C348.425 80.4 349.479 79.84 350.172 78.72C350.892 77.5733 351.252 75.8 351.252 73.4C351.252 71 350.905 69.24 350.212 68.12C349.519 66.9733 348.465 66.4 347.052 66.4ZM373.331 62.16C375.171 62.16 376.611 62.7333 377.651 63.88C378.718 65 379.251 66.56 379.251 68.56V84H373.571V69.52C373.571 68.3733 373.371 67.5733 372.971 67.12C372.571 66.64 371.998 66.4 371.251 66.4C369.758 66.4 368.398 67.3733 367.171 69.32V84H361.491V54.36L367.171 53.76V65.2C368.025 64.1867 368.945 63.4267 369.931 62.92C370.945 62.4133 372.078 62.16 373.331 62.16ZM402.021 62.8L395.221 84H388.461L381.541 62.8H387.701L391.901 79.56L396.181 62.8H402.021ZM410.414 62.8V84H404.734V62.8H410.414ZM407.534 51.88C408.547 51.88 409.374 52.2 410.014 52.84C410.68 53.4533 411.014 54.24 411.014 55.2C411.014 56.16 410.68 56.96 410.014 57.6C409.374 58.2133 408.547 58.52 407.534 58.52C406.52 58.52 405.694 58.2133 405.054 57.6C404.414 56.96 404.094 56.16 404.094 55.2C404.094 54.24 404.414 53.4533 405.054 52.84C405.694 52.2 406.52 51.88 407.534 51.88ZM428.703 83C427.929 83.5333 427.049 83.9333 426.063 84.2C425.103 84.4933 424.143 84.64 423.183 84.64C420.996 84.6133 419.343 83.9867 418.223 82.76C417.103 81.5333 416.543 79.7333 416.543 77.36V66.8H413.383V62.8H416.543V58.16L422.223 57.48V62.8H427.103L426.543 66.8H422.223V77.24C422.223 78.2533 422.396 78.9867 422.743 79.44C423.089 79.8933 423.623 80.12 424.343 80.12C425.063 80.12 425.863 79.88 426.743 79.4L428.703 83ZM446.988 78.12C446.988 78.9467 447.108 79.56 447.348 79.96C447.588 80.3333 447.988 80.6133 448.548 80.8L447.348 84.56C446.095 84.4533 445.068 84.16 444.268 83.68C443.495 83.2 442.895 82.4533 442.468 81.44C441.082 83.5733 438.962 84.64 436.108 84.64C434.002 84.64 432.322 84.04 431.068 82.84C429.842 81.6133 429.228 80.0267 429.228 78.08C429.228 75.76 430.068 73.9867 431.748 72.76C433.428 71.5333 435.842 70.92 438.988 70.92H441.428V69.88C441.428 68.5733 441.135 67.6667 440.548 67.16C439.962 66.6533 438.988 66.4 437.628 66.4C436.135 66.4 434.268 66.7733 432.028 67.52L430.748 63.72C433.388 62.68 436.002 62.16 438.588 62.16C441.468 62.16 443.588 62.7867 444.948 64.04C446.308 65.2667 446.988 67.1067 446.988 69.56V78.12ZM437.668 80.56C439.268 80.56 440.522 79.7733 441.428 78.2V74.16H439.548C436.482 74.16 434.948 75.3067 434.948 77.6C434.948 78.5333 435.175 79.2667 435.628 79.8C436.108 80.3067 436.788 80.56 437.668 80.56ZM475.583 62.16C477.263 62.16 478.61 62.7333 479.623 63.88C480.663 65.0267 481.183 66.5867 481.183 68.56V84H475.503V69.52C475.503 67.44 474.81 66.4 473.423 66.4C472.677 66.4 472.023 66.64 471.463 67.12C470.903 67.6 470.33 68.3467 469.743 69.36V84H464.063V69.52C464.063 67.44 463.37 66.4 461.983 66.4C461.237 66.4 460.583 66.6533 460.023 67.16C459.463 67.64 458.903 68.3733 458.343 69.36V84H452.663V62.8H457.583L458.023 65.44C458.823 64.3733 459.717 63.56 460.703 63C461.717 62.44 462.877 62.16 464.183 62.16C465.383 62.16 466.423 62.4667 467.303 63.08C468.183 63.6667 468.823 64.5067 469.223 65.6C470.103 64.4533 471.05 63.6 472.063 63.04C473.103 62.4533 474.277 62.16 475.583 62.16ZM502.77 78.12C502.77 78.9467 502.89 79.56 503.13 79.96C503.37 80.3333 503.77 80.6133 504.33 80.8L503.13 84.56C501.876 84.4533 500.85 84.16 500.05 83.68C499.276 83.2 498.676 82.4533 498.25 81.44C496.863 83.5733 494.743 84.64 491.89 84.64C489.783 84.64 488.103 84.04 486.85 82.84C485.623 81.6133 485.01 80.0267 485.01 78.08C485.01 75.76 485.85 73.9867 487.53 72.76C489.21 71.5333 491.623 70.92 494.77 70.92H497.21V69.88C497.21 68.5733 496.916 67.6667 496.33 67.16C495.743 66.6533 494.77 66.4 493.41 66.4C491.916 66.4 490.05 66.7733 487.81 67.52L486.53 63.72C489.17 62.68 491.783 62.16 494.37 62.16C497.25 62.16 499.37 62.7867 500.73 64.04C502.09 65.2667 502.77 67.1067 502.77 69.56V78.12ZM493.45 80.56C495.05 80.56 496.303 79.7733 497.21 78.2V74.16H495.33C492.263 74.16 490.73 75.3067 490.73 77.6C490.73 78.5333 490.956 79.2667 491.41 79.8C491.89 80.3067 492.57 80.56 493.45 80.56ZM515.094 62.16C518.081 62.16 520.641 63.0133 522.774 64.72L520.614 67.96C518.827 66.84 517.067 66.28 515.334 66.28C514.401 66.28 513.681 66.4533 513.174 66.8C512.667 67.1467 512.414 67.6133 512.414 68.2C512.414 68.6267 512.521 68.9867 512.734 69.28C512.974 69.5733 513.401 69.8533 514.014 70.12C514.654 70.3867 515.601 70.7067 516.854 71.08C519.094 71.6933 520.761 72.52 521.854 73.56C522.947 74.5733 523.494 75.9733 523.494 77.76C523.494 79.1733 523.081 80.4 522.254 81.44C521.454 82.48 520.361 83.28 518.974 83.84C517.587 84.3733 516.041 84.64 514.334 84.64C512.547 84.64 510.921 84.3733 509.454 83.84C507.987 83.28 506.734 82.52 505.694 81.56L508.494 78.44C510.281 79.8267 512.174 80.52 514.174 80.52C515.241 80.52 516.081 80.32 516.694 79.92C517.334 79.4933 517.654 78.92 517.654 78.2C517.654 77.64 517.534 77.2 517.294 76.88C517.054 76.56 516.614 76.2667 515.974 76C515.334 75.7067 514.334 75.3733 512.974 75C510.841 74.4133 509.254 73.5867 508.214 72.52C507.201 71.4267 506.694 70.08 506.694 68.48C506.694 67.28 507.041 66.2 507.734 65.24C508.427 64.28 509.401 63.5333 510.654 63C511.934 62.44 513.414 62.16 515.094 62.16ZM529.155 77.8C530.115 77.8 530.928 78.1333 531.595 78.8C532.261 79.4667 532.595 80.2667 532.595 81.2C532.595 82.1333 532.261 82.9467 531.595 83.64C530.928 84.3067 530.115 84.64 529.155 84.64C528.221 84.64 527.421 84.3067 526.755 83.64C526.088 82.9467 525.755 82.1333 525.755 81.2C525.755 80.2667 526.088 79.4667 526.755 78.8C527.421 78.1333 528.221 77.8 529.155 77.8Z" fill="#E3000F"/>
</svg>
