<svg width="770" height="100" viewBox="0 0 770 100" fill="none" xmlns="http://www.w3.org/2000/svg">
<path d="M74.88 22.54C78.6133 22.54 81.84 23.2333 84.56 24.62C87.28 25.9533 89.3333 27.7933 90.72 30.14C92.16 32.4333 92.88 34.9933 92.88 37.82C92.88 40.7533 92.24 43.58 90.96 46.3C89.7333 49.02 87.6 52.0867 84.56 55.5C81.5733 58.9133 77.2 63.3133 71.44 68.7H94.08L92.8 77.5H58.48V69.26C65.2 62.54 70.0533 57.5267 73.04 54.22C76.0267 50.9133 78.1333 48.1133 79.36 45.82C80.5867 43.5267 81.2 41.18 81.2 38.78C81.2 36.4867 80.5333 34.6733 79.2 33.34C77.8667 32.0067 76.08 31.34 73.84 31.34C71.8667 31.34 70.1067 31.7933 68.56 32.7C67.0133 33.5533 65.3867 34.9933 63.68 37.02L56.88 31.58C61.4667 25.5533 67.4667 22.54 74.88 22.54ZM135.989 59.66C136.735 63.34 138.095 66.0333 140.069 67.74C142.095 69.4467 144.789 70.3 148.149 70.3C151.722 70.3 155.562 69.18 159.669 66.94V75.74C157.482 76.7533 155.402 77.5 153.429 77.98C151.455 78.5133 149.295 78.78 146.949 78.78C140.922 78.78 135.962 77.1267 132.069 73.82C128.229 70.46 125.695 65.74 124.469 59.66H117.509L119.109 53.5H124.149V47.5H117.509L119.109 41.26H124.549C126.042 35.4467 128.815 30.8867 132.869 27.58C136.975 24.22 141.802 22.54 147.349 22.54C152.895 22.54 157.909 24.06 162.389 27.1L158.309 34.14C156.602 33.02 154.922 32.22 153.269 31.74C151.615 31.2067 149.775 30.94 147.749 30.94C144.975 30.94 142.602 31.7933 140.629 33.5C138.655 35.2067 137.189 37.7933 136.229 41.26H155.829L154.229 47.5H135.669V53.5H152.949L151.429 59.66H135.989Z" fill="#FFE80D"/>
<path d="M191.08 39.89C192.48 39.89 193.69 40.15 194.71 40.67C195.73 41.17 196.5 41.86 197.02 42.74C197.56 43.6 197.83 44.56 197.83 45.62C197.83 46.72 197.59 47.78 197.11 48.8C196.65 49.82 195.85 50.97 194.71 52.25C193.59 53.53 191.95 55.18 189.79 57.2H198.28L197.8 60.5H184.93V57.41C187.45 54.89 189.27 53.01 190.39 51.77C191.51 50.53 192.3 49.48 192.76 48.62C193.22 47.76 193.45 46.88 193.45 45.98C193.45 45.12 193.2 44.44 192.7 43.94C192.2 43.44 191.53 43.19 190.69 43.19C189.95 43.19 189.29 43.36 188.71 43.7C188.13 44.02 187.52 44.56 186.88 45.32L184.33 43.28C186.05 41.02 188.3 39.89 191.08 39.89ZM213.036 37.79V60.5H208.776V38.27L213.036 37.79ZM222.696 44.6L217.626 51.59L223.146 60.5H218.316L213.186 51.8L218.286 44.6H222.696ZM237.821 60.5H234.131L233.921 58.37C233.361 59.25 232.681 59.91 231.881 60.35C231.081 60.77 230.151 60.98 229.091 60.98C227.651 60.98 226.551 60.55 225.791 59.69C225.031 58.81 224.651 57.59 224.651 56.03V44.6H228.911V55.49C228.911 56.33 229.051 56.93 229.331 57.29C229.611 57.63 230.051 57.8 230.651 57.8C231.791 57.8 232.761 57.11 233.561 55.73V44.6H237.821V60.5ZM255.048 60.5H251.358L251.148 58.37C250.588 59.25 249.908 59.91 249.108 60.35C248.308 60.77 247.378 60.98 246.318 60.98C244.878 60.98 243.778 60.55 243.018 59.69C242.258 58.81 241.878 57.59 241.878 56.03V44.6H246.138V55.49C246.138 56.33 246.278 56.93 246.558 57.29C246.838 57.63 247.278 57.8 247.878 57.8C249.018 57.8 249.988 57.11 250.788 55.73V44.6H255.048V60.5ZM273.024 38.27V60.5H269.274L269.034 58.55C267.914 60.17 266.394 60.98 264.474 60.98C262.514 60.98 261.014 60.23 259.974 58.73C258.954 57.21 258.444 55.15 258.444 52.55C258.444 50.91 258.704 49.46 259.224 48.2C259.764 46.92 260.524 45.92 261.504 45.2C262.484 44.48 263.614 44.12 264.894 44.12C266.374 44.12 267.664 44.65 268.764 45.71V37.79L273.024 38.27ZM265.734 57.8C266.354 57.8 266.904 57.65 267.384 57.35C267.864 57.03 268.324 56.54 268.764 55.88V48.77C268.344 48.27 267.914 47.9 267.474 47.66C267.054 47.4 266.564 47.27 266.004 47.27C265.024 47.27 264.254 47.7 263.694 48.56C263.154 49.42 262.884 50.75 262.884 52.55C262.884 54.45 263.124 55.8 263.604 56.6C264.104 57.4 264.814 57.8 265.734 57.8Z" fill="white"/>
<rect x="552" y="18" width="162" height="64" rx="16" fill="#AF0510"/>
<path d="M601.248 38.824L600.736 42.856H595.264V61H590.016V42.856H584.288V38.824H601.248ZM616.961 38.824L616.417 42.568H608.609V47.88H615.425V51.56H608.609V57.224H616.961V61H603.361V38.824H616.961ZM625.453 38.824V56.84H634.093L633.549 61H620.205V38.824H625.453ZM641.859 38.824V56.84H650.499L649.955 61H636.611V38.824H641.859ZM658.266 38.824V61H653.018V38.824H658.266ZM679.481 61H672.793L666.393 43.816C666.606 45.5013 666.766 46.9947 666.873 48.296C667.001 49.576 667.065 51.1013 667.065 52.872V61H662.393V38.824H668.921L675.481 56.04C675.011 53.1173 674.777 50.3653 674.777 47.784V38.824H679.481V61Z" fill="#FFE80D"/>
</svg>
