<svg width="740" height="400" viewBox="0 0 740 400" fill="none" xmlns="http://www.w3.org/2000/svg">
<rect width="740" height="400" fill="#330B6A"/>
<path d="M133.458 39.3008V77H124.536V39.3008H133.458ZM155.109 39.3008L143.086 56.2192L156.088 77H145.752L133.73 56.872L145.698 39.3008H155.109ZM183.709 61.9856C183.709 63.1824 183.654 64.216 183.546 65.0864H165.648C165.938 67.5163 166.627 69.2208 167.715 70.2C168.803 71.1792 170.308 71.6688 172.23 71.6688C173.391 71.6688 174.515 71.4693 175.603 71.0704C176.691 70.6352 177.87 69.9824 179.139 69.112L182.675 73.8992C179.302 76.5829 175.549 77.9248 171.414 77.9248C166.736 77.9248 163.146 76.5467 160.643 73.7904C158.141 71.0341 156.89 67.3349 156.89 62.6928C156.89 59.7552 157.415 57.1259 158.467 54.8048C159.519 52.4475 161.06 50.5979 163.091 49.256C165.122 47.8779 167.552 47.1888 170.381 47.1888C174.551 47.1888 177.815 48.4944 180.173 51.1056C182.53 53.7168 183.709 57.3435 183.709 61.9856ZM175.277 59.5376C175.204 55.1131 173.645 52.9008 170.598 52.9008C169.111 52.9008 167.951 53.4448 167.117 54.5328C166.319 55.6208 165.829 57.416 165.648 59.9184H175.277V59.5376ZM199.39 47.1888C201.457 47.1888 203.397 47.4971 205.211 48.1136C207.024 48.7301 208.62 49.6005 209.998 50.7248L206.843 55.5664C204.485 54.0795 202.11 53.336 199.716 53.336C198.592 53.336 197.722 53.5355 197.105 53.9344C196.525 54.2971 196.235 54.8229 196.235 55.512C196.235 56.056 196.362 56.5093 196.616 56.872C196.906 57.1984 197.468 57.5429 198.302 57.9056C199.136 58.2683 200.424 58.7035 202.164 59.2112C205.175 60.0816 207.405 61.224 208.856 62.6384C210.343 64.0165 211.086 65.9387 211.086 68.4048C211.086 70.3632 210.524 72.0677 209.4 73.5184C208.275 74.9328 206.734 76.0208 204.776 76.7824C202.817 77.544 200.641 77.9248 198.248 77.9248C195.818 77.9248 193.551 77.544 191.448 76.7824C189.38 76.0208 187.621 74.9691 186.171 73.6272L190.36 68.9488C192.789 70.8347 195.346 71.7776 198.03 71.7776C199.336 71.7776 200.351 71.5419 201.076 71.0704C201.838 70.5989 202.219 69.928 202.219 69.0576C202.219 68.3685 202.074 67.8245 201.784 67.4256C201.493 67.0267 200.931 66.664 200.097 66.3376C199.263 65.9749 197.939 65.5397 196.126 65.032C193.261 64.1979 191.121 63.0373 189.707 61.5504C188.292 60.0635 187.585 58.2139 187.585 56.0016C187.585 54.3333 188.057 52.8464 189 51.5408C189.979 50.1989 191.357 49.1472 193.134 48.3856C194.947 47.5877 197.033 47.1888 199.39 47.1888ZM247.899 75.64C246.847 76.3653 245.614 76.9275 244.199 77.3264C242.821 77.7253 241.443 77.9248 240.065 77.9248C233.755 77.8885 230.599 74.4069 230.599 67.48V54.0976H226.519V48.1136H230.599V41.8576L239.195 40.8784V48.1136H245.831L244.907 54.0976H239.195V67.3712C239.195 68.7131 239.412 69.6741 239.847 70.2544C240.283 70.8347 240.972 71.1248 241.915 71.1248C242.894 71.1248 243.927 70.8165 245.015 70.2L247.899 75.64ZM263.004 47.1888C267.428 47.1888 270.892 48.5488 273.394 51.2688C275.896 53.9525 277.148 57.7243 277.148 62.584C277.148 65.6667 276.567 68.3685 275.407 70.6896C274.282 72.9744 272.65 74.7515 270.511 76.0208C268.407 77.2901 265.905 77.9248 263.004 77.9248C258.615 77.9248 255.152 76.5829 252.613 73.8992C250.111 71.1792 248.86 67.3893 248.86 62.5296C248.86 59.4469 249.422 56.7632 250.546 54.4784C251.706 52.1573 253.338 50.3621 255.442 49.0928C257.582 47.8235 260.102 47.1888 263.004 47.1888ZM263.004 53.4992C261.263 53.4992 259.957 54.2427 259.087 55.7296C258.216 57.1803 257.781 59.4469 257.781 62.5296C257.781 65.6848 258.198 67.9877 259.032 69.4384C259.903 70.8891 261.226 71.6144 263.004 71.6144C264.744 71.6144 266.05 70.8891 266.92 69.4384C267.791 67.9515 268.226 65.6667 268.226 62.584C268.226 59.4288 267.791 57.1259 266.92 55.6752C266.086 54.2245 264.781 53.4992 263.004 53.4992ZM266.159 42.456C265.361 42.456 264.672 42.3291 264.092 42.0752C263.511 41.8213 262.877 41.4587 262.188 40.9872C261.281 40.3344 260.537 40.008 259.957 40.008C259.341 40.008 258.815 40.2075 258.38 40.6064C257.981 40.9691 257.545 41.5675 257.074 42.4016L252.776 40.3344C253.502 38.4485 254.463 36.9072 255.66 35.7104C256.893 34.5136 258.271 33.9152 259.794 33.9152C260.628 33.9152 261.335 34.0603 261.916 34.3504C262.532 34.6043 263.203 34.9669 263.928 35.4384C264.436 35.7648 264.835 36.0005 265.125 36.1456C265.452 36.2907 265.778 36.3632 266.104 36.3632C266.685 36.3632 267.174 36.1819 267.573 35.8192C268.008 35.4203 268.462 34.8037 268.933 33.9696L273.231 36.0912C272.469 38.0133 271.472 39.5547 270.239 40.7152C269.042 41.8757 267.682 42.456 266.159 42.456ZM293.113 47.1888C295.18 47.1888 297.121 47.4971 298.934 48.1136C300.747 48.7301 302.343 49.6005 303.721 50.7248L300.566 55.5664C298.209 54.0795 295.833 53.336 293.44 53.336C292.315 53.336 291.445 53.5355 290.828 53.9344C290.248 54.2971 289.958 54.8229 289.958 55.512C289.958 56.056 290.085 56.5093 290.339 56.872C290.629 57.1984 291.191 57.5429 292.025 57.9056C292.859 58.2683 294.147 58.7035 295.888 59.2112C298.898 60.0816 301.128 61.224 302.579 62.6384C304.066 64.0165 304.809 65.9387 304.809 68.4048C304.809 70.3632 304.247 72.0677 303.123 73.5184C301.998 74.9328 300.457 76.0208 298.499 76.7824C296.54 77.544 294.364 77.9248 291.971 77.9248C289.541 77.9248 287.274 77.544 285.171 76.7824C283.104 76.0208 281.345 74.9691 279.894 73.6272L284.083 68.9488C286.513 70.8347 289.069 71.7776 291.753 71.7776C293.059 71.7776 294.074 71.5419 294.8 71.0704C295.561 70.5989 295.942 69.928 295.942 69.0576C295.942 68.3685 295.797 67.8245 295.507 67.4256C295.217 67.0267 294.654 66.664 293.82 66.3376C292.986 65.9749 291.662 65.5397 289.849 65.032C286.984 64.1979 284.844 63.0373 283.43 61.5504C282.016 60.0635 281.308 58.2139 281.308 56.0016C281.308 54.3333 281.78 52.8464 282.723 51.5408C283.702 50.1989 285.08 49.1472 286.857 48.3856C288.67 47.5877 290.756 47.1888 293.113 47.1888ZM328.032 75.64C326.981 76.3653 325.748 76.9275 324.333 77.3264C322.955 77.7253 321.577 77.9248 320.199 77.9248C313.888 77.8885 310.733 74.4069 310.733 67.48V54.0976H306.653V48.1136H310.733V41.8576L319.328 40.8784V48.1136H325.965L325.04 54.0976H319.328V67.3712C319.328 68.7131 319.546 69.6741 319.981 70.2544C320.416 70.8347 321.105 71.1248 322.048 71.1248C323.028 71.1248 324.061 70.8165 325.149 70.2L328.032 75.64ZM353.901 68.6224C353.901 69.7104 354.046 70.5083 354.336 71.016C354.662 71.5237 355.17 71.9045 355.859 72.1584L354.064 77.7616C352.287 77.6165 350.836 77.2357 349.712 76.6192C348.588 75.9664 347.717 74.9509 347.101 73.5728C345.215 76.4741 342.314 77.9248 338.397 77.9248C335.532 77.9248 333.247 77.0907 331.542 75.4224C329.838 73.7541 328.986 71.5781 328.986 68.8944C328.986 65.7392 330.146 63.3275 332.467 61.6592C334.788 59.9909 338.143 59.1568 342.531 59.1568H345.469V57.9056C345.469 56.2011 345.106 55.0405 344.381 54.424C343.656 53.7712 342.386 53.4448 340.573 53.4448C339.63 53.4448 338.488 53.5899 337.146 53.88C335.804 54.1339 334.426 54.4965 333.011 54.968L331.053 49.3104C332.866 48.6213 334.716 48.0955 336.602 47.7328C338.524 47.3701 340.301 47.1888 341.933 47.1888C346.067 47.1888 349.096 48.0411 351.018 49.7456C352.94 51.4501 353.901 54.0069 353.901 57.416V68.6224ZM340.899 71.7776C342.858 71.7776 344.381 70.8528 345.469 69.0032V63.8896H343.347C341.389 63.8896 339.92 64.2341 338.941 64.9232C337.998 65.6123 337.526 66.6821 337.526 68.1328C337.526 69.2933 337.817 70.2 338.397 70.8528C339.013 71.4693 339.848 71.7776 340.899 71.7776ZM377.802 47.1888C381.247 47.1888 383.894 48.5488 385.744 51.2688C387.594 53.9525 388.518 57.7243 388.518 62.584C388.518 65.5579 388.047 68.2053 387.104 70.5264C386.197 72.8475 384.874 74.6608 383.133 75.9664C381.428 77.272 379.397 77.9248 377.04 77.9248C375.481 77.9248 374.048 77.5984 372.742 76.9456C371.473 76.2928 370.385 75.3861 369.478 74.2256L369.043 77H361.427V36.6352L370.022 35.7104V51.0512C370.893 49.8544 371.999 48.9115 373.341 48.2224C374.719 47.5333 376.206 47.1888 377.802 47.1888ZM374.538 71.6688C377.91 71.6688 379.597 68.6405 379.597 62.584C379.597 59.1387 379.198 56.7632 378.4 55.4576C377.602 54.152 376.442 53.4992 374.918 53.4992C372.996 53.4992 371.364 54.6235 370.022 56.872V68.8944C370.566 69.7648 371.219 70.4539 371.981 70.9616C372.779 71.4331 373.631 71.6688 374.538 71.6688ZM416.697 73.736C416.697 76.7461 416.207 79.2304 415.228 81.1888C414.285 83.1472 412.979 84.7067 411.311 85.8672C409.679 87.064 407.612 88.1157 405.11 89.0224L402.226 82.7664C403.641 82.1136 404.747 81.4789 405.545 80.8624C406.343 80.2459 406.959 79.4117 407.394 78.36C407.866 77.3445 408.102 75.9845 408.102 74.28V48.1136H416.697V73.736ZM412.399 32.8816C413.886 32.8816 415.101 33.3531 416.044 34.296C417.023 35.2027 417.513 36.3632 417.513 37.7776C417.513 39.192 417.023 40.3707 416.044 41.3136C415.101 42.2203 413.886 42.6736 412.399 42.6736C410.912 42.6736 409.697 42.2203 408.754 41.3136C407.811 40.3707 407.34 39.192 407.34 37.7776C407.34 36.3632 407.811 35.2027 408.754 34.296C409.697 33.3531 410.912 32.8816 412.399 32.8816ZM447.093 68.6224C447.093 69.7104 447.238 70.5083 447.528 71.016C447.854 71.5237 448.362 71.9045 449.051 72.1584L447.256 77.7616C445.479 77.6165 444.028 77.2357 442.904 76.6192C441.78 75.9664 440.909 74.9509 440.293 73.5728C438.407 76.4741 435.506 77.9248 431.589 77.9248C428.724 77.9248 426.439 77.0907 424.734 75.4224C423.03 73.7541 422.178 71.5781 422.178 68.8944C422.178 65.7392 423.338 63.3275 425.659 61.6592C427.98 59.9909 431.335 59.1568 435.723 59.1568H438.661V57.9056C438.661 56.2011 438.298 55.0405 437.573 54.424C436.847 53.7712 435.578 53.4448 433.765 53.4448C432.822 53.4448 431.679 53.5899 430.338 53.88C428.996 54.1339 427.618 54.4965 426.203 54.968L424.245 49.3104C426.058 48.6213 427.908 48.0955 429.794 47.7328C431.716 47.3701 433.493 47.1888 435.125 47.1888C439.259 47.1888 442.287 48.0411 444.21 49.7456C446.132 51.4501 447.093 54.0069 447.093 57.416V68.6224ZM434.091 71.7776C436.05 71.7776 437.573 70.8528 438.661 69.0032V63.8896H436.539C434.581 63.8896 433.112 64.2341 432.133 64.9232C431.19 65.6123 430.718 66.6821 430.718 68.1328C430.718 69.2933 431.008 70.2 431.589 70.8528C432.205 71.4693 433.039 71.7776 434.091 71.7776ZM461.758 77.9248C459.256 77.9248 457.297 77.2176 455.883 75.8032C454.505 74.3525 453.816 72.3035 453.816 69.656V36.6352L462.411 35.7104V69.3296C462.411 70.5264 462.901 71.1248 463.88 71.1248C464.388 71.1248 464.859 71.0341 465.294 70.8528L466.981 76.9456C465.421 77.5984 463.68 77.9248 461.758 77.9248ZM497.519 49.8C495.634 50.5616 492.859 50.9424 489.196 50.9424C491.082 51.7403 492.46 52.7195 493.331 53.88C494.201 55.0405 494.636 56.5456 494.636 58.3952C494.636 60.2448 494.147 61.9131 493.167 63.4C492.188 64.8507 490.774 65.9931 488.924 66.8272C487.111 67.6613 484.971 68.0784 482.505 68.0784C481.344 68.0784 480.238 67.9696 479.187 67.752C478.896 67.8971 478.661 68.1328 478.479 68.4592C478.334 68.7493 478.262 69.0576 478.262 69.384C478.262 69.928 478.461 70.3632 478.86 70.6896C479.295 70.9797 480.148 71.1248 481.417 71.1248H485.769C487.981 71.1248 489.922 71.4875 491.59 72.2128C493.258 72.9381 494.546 73.9355 495.452 75.2048C496.359 76.4741 496.812 77.9067 496.812 79.5024C496.812 82.5125 495.507 84.8517 492.895 86.52C490.32 88.2245 486.585 89.0768 481.689 89.0768C478.171 89.0768 475.397 88.696 473.366 87.9344C471.335 87.2091 469.902 86.1755 469.068 84.8336C468.27 83.4917 467.871 81.8053 467.871 79.7744H475.596C475.596 80.6448 475.759 81.3339 476.086 81.8416C476.448 82.3493 477.083 82.7301 477.99 82.984C478.896 83.2379 480.202 83.3648 481.907 83.3648C484.264 83.3648 485.896 83.0747 486.803 82.4944C487.709 81.9504 488.163 81.1525 488.163 80.1008C488.163 79.2304 487.818 78.5413 487.129 78.0336C486.44 77.5259 485.406 77.272 484.028 77.272H479.839C476.866 77.272 474.635 76.7461 473.148 75.6944C471.698 74.6064 470.972 73.2283 470.972 71.56C470.972 70.5083 471.28 69.4928 471.897 68.5136C472.514 67.4981 473.348 66.664 474.399 66.0112C472.586 65.032 471.262 63.8896 470.428 62.584C469.63 61.2421 469.231 59.6283 469.231 57.7424C469.231 54.5147 470.392 51.9579 472.713 50.072C475.034 48.1499 478.099 47.1888 481.907 47.1888C484.808 47.2613 487.256 46.9712 489.251 46.3184C491.282 45.6656 493.367 44.7045 495.507 43.4352L497.519 49.8ZM482.124 52.8464C480.782 52.8464 479.712 53.2816 478.915 54.152C478.153 54.9861 477.772 56.1467 477.772 57.6336C477.772 59.1931 478.153 60.408 478.915 61.2784C479.712 62.1125 480.782 62.5296 482.124 62.5296C483.539 62.5296 484.608 62.1125 485.334 61.2784C486.095 60.4443 486.476 59.1931 486.476 57.5248C486.476 54.4059 485.026 52.8464 482.124 52.8464ZM517.88 47.1888C521.507 47.1888 524.209 48.5307 525.986 51.2144C527.763 53.8981 528.652 57.6517 528.652 62.4752C528.652 65.4491 528.18 68.1147 527.237 70.472C526.33 72.7931 525.007 74.6245 523.266 75.9664C521.525 77.272 519.494 77.9248 517.173 77.9248C514.272 77.9248 511.933 76.9275 510.156 74.9328V88.152L501.56 89.0768V48.1136H509.122L509.557 51.3232C510.681 49.9088 511.969 48.8752 513.42 48.2224C514.87 47.5333 516.357 47.1888 517.88 47.1888ZM514.562 71.6144C518.007 71.6144 519.73 68.6043 519.73 62.584C519.73 59.1749 519.349 56.8176 518.588 55.512C517.826 54.1701 516.684 53.4992 515.16 53.4992C514.181 53.4992 513.256 53.7893 512.386 54.3696C511.552 54.9499 510.808 55.784 510.156 56.872V69.0576C511.316 70.7621 512.785 71.6144 514.562 71.6144ZM557.125 68.6224C557.125 69.7104 557.27 70.5083 557.56 71.016C557.887 71.5237 558.395 71.9045 559.084 72.1584L557.288 77.7616C555.511 77.6165 554.061 77.2357 552.936 76.6192C551.812 75.9664 550.942 74.9509 550.325 73.5728C548.439 76.4741 545.538 77.9248 541.621 77.9248C538.756 77.9248 536.471 77.0907 534.767 75.4224C533.062 73.7541 532.21 71.5781 532.21 68.8944C532.21 65.7392 533.371 63.3275 535.692 61.6592C538.013 59.9909 541.367 59.1568 545.756 59.1568H548.693V57.9056C548.693 56.2011 548.331 55.0405 547.605 54.424C546.88 53.7712 545.611 53.4448 543.797 53.4448C542.854 53.4448 541.712 53.5899 540.37 53.88C539.028 54.1339 537.65 54.4965 536.236 54.968L534.277 49.3104C536.091 48.6213 537.94 48.0955 539.826 47.7328C541.748 47.3701 543.525 47.1888 545.157 47.1888C549.292 47.1888 552.32 48.0411 554.242 49.7456C556.164 51.4501 557.125 54.0069 557.125 57.416V68.6224ZM544.124 71.7776C546.082 71.7776 547.605 70.8528 548.693 69.0032V63.8896H546.572C544.613 63.8896 543.144 64.2341 542.165 64.9232C541.222 65.6123 540.751 66.6821 540.751 68.1328C540.751 69.2933 541.041 70.2 541.621 70.8528C542.238 71.4693 543.072 71.7776 544.124 71.7776ZM571.791 77.9248C569.288 77.9248 567.33 77.2176 565.915 75.8032C564.537 74.3525 563.848 72.3035 563.848 69.656V36.6352L572.443 35.7104V69.3296C572.443 70.5264 572.933 71.1248 573.912 71.1248C574.42 71.1248 574.891 71.0341 575.327 70.8528L577.013 76.9456C575.454 77.5984 573.713 77.9248 571.791 77.9248ZM588.621 77.9248C586.118 77.9248 584.16 77.2176 582.746 75.8032C581.367 74.3525 580.678 72.3035 580.678 69.656V36.6352L589.274 35.7104V69.3296C589.274 70.5264 589.763 71.1248 590.742 71.1248C591.25 71.1248 591.722 71.0341 592.157 70.8528L593.843 76.9456C592.284 77.5984 590.543 77.9248 588.621 77.9248ZM606.376 48.1136V77H597.78V48.1136H606.376ZM602.024 32.8816C603.51 32.8816 604.725 33.3531 605.668 34.296C606.648 35.2027 607.137 36.3632 607.137 37.7776C607.137 39.192 606.648 40.3707 605.668 41.3136C604.725 42.2203 603.51 42.6736 602.024 42.6736C600.537 42.6736 599.322 42.2203 598.379 41.3136C597.436 40.3707 596.964 39.192 596.964 37.7776C596.964 36.3632 597.436 35.2027 598.379 34.296C599.322 33.3531 600.537 32.8816 602.024 32.8816ZM161.963 145H153.205L152.552 130.258C152.371 126.74 152.28 123.603 152.28 120.846C152.28 118.743 152.334 116.748 152.443 114.862L146.622 141.029H138.19L131.989 114.862C132.206 118.018 132.315 120.991 132.315 123.784C132.315 125.887 132.261 128.082 132.152 130.366L131.499 145H122.795L125.624 107.301H136.885L142.542 132.869L147.819 107.301H159.134L161.963 145ZM205.409 145H196.65L195.998 130.258C195.816 126.74 195.726 123.603 195.726 120.846C195.726 118.743 195.78 116.748 195.889 114.862L190.068 141.029H181.636L175.434 114.862C175.652 118.018 175.761 120.991 175.761 123.784C175.761 125.887 175.706 128.082 175.598 130.366L174.945 145H166.241L169.07 107.301H180.33L185.988 132.869L191.265 107.301H202.58L205.409 145ZM210.285 131.291V124.654H227.638V131.291H210.285ZM242.692 103.71V145H234.097V104.635L242.692 103.71ZM260.536 116.114L251.777 128.789L261.243 145H251.56L242.964 129.224L251.777 116.114H260.536ZM286.953 136.622C286.953 137.71 287.098 138.508 287.388 139.016C287.714 139.524 288.222 139.905 288.911 140.158L287.116 145.762C285.339 145.617 283.888 145.236 282.764 144.619C281.64 143.966 280.769 142.951 280.153 141.573C278.267 144.474 275.366 145.925 271.449 145.925C268.584 145.925 266.299 145.091 264.594 143.422C262.89 141.754 262.038 139.578 262.038 136.894C262.038 133.739 263.198 131.327 265.519 129.659C267.84 127.991 271.195 127.157 275.583 127.157H278.521V125.906C278.521 124.201 278.158 123.041 277.433 122.424C276.707 121.771 275.438 121.445 273.625 121.445C272.682 121.445 271.539 121.59 270.198 121.88C268.856 122.134 267.478 122.497 266.063 122.968L264.105 117.31C265.918 116.621 267.768 116.095 269.654 115.733C271.576 115.37 273.353 115.189 274.985 115.189C279.119 115.189 282.147 116.041 284.07 117.746C285.992 119.45 286.953 122.007 286.953 125.416V136.622ZM273.951 139.778C275.91 139.778 277.433 138.853 278.521 137.003V131.89H276.399C274.441 131.89 272.972 132.234 271.993 132.923C271.05 133.612 270.578 134.682 270.578 136.133C270.578 137.293 270.868 138.2 271.449 138.853C272.065 139.469 272.899 139.778 273.951 139.778ZM310.146 115.298C311.198 115.298 312.159 115.425 313.029 115.678L311.669 124.002C310.581 123.748 309.711 123.621 309.058 123.621C307.354 123.621 306.048 124.219 305.141 125.416C304.271 126.577 303.582 128.335 303.074 130.693V145H294.479V116.114H301.986L302.693 121.717C303.346 119.722 304.325 118.163 305.631 117.038C306.973 115.878 308.478 115.298 310.146 115.298ZM325.589 116.114V145H316.993V116.114H325.589ZM321.237 100.882C322.724 100.882 323.938 101.353 324.881 102.296C325.861 103.203 326.35 104.363 326.35 105.778C326.35 107.192 325.861 108.371 324.881 109.314C323.938 110.22 322.724 110.674 321.237 110.674C319.75 110.674 318.535 110.22 317.592 109.314C316.649 108.371 316.177 107.192 316.177 105.778C316.177 104.363 316.649 103.203 317.592 102.296C318.535 101.353 319.75 100.882 321.237 100.882ZM341.622 103.71V145H333.027V104.635L341.622 103.71ZM359.465 116.114L350.707 128.789L360.172 145H350.489L341.894 129.224L350.707 116.114H359.465ZM385.882 136.622C385.882 137.71 386.027 138.508 386.317 139.016C386.644 139.524 387.151 139.905 387.841 140.158L386.045 145.762C384.268 145.617 382.818 145.236 381.693 144.619C380.569 143.966 379.699 142.951 379.082 141.573C377.196 144.474 374.295 145.925 370.378 145.925C367.513 145.925 365.228 145.091 363.524 143.422C361.819 141.754 360.967 139.578 360.967 136.894C360.967 133.739 362.127 131.327 364.449 129.659C366.77 127.991 370.124 127.157 374.513 127.157H377.45V125.906C377.45 124.201 377.087 123.041 376.362 122.424C375.637 121.771 374.367 121.445 372.554 121.445C371.611 121.445 370.469 121.59 369.127 121.88C367.785 122.134 366.407 122.497 364.993 122.968L363.034 117.31C364.847 116.621 366.697 116.095 368.583 115.733C370.505 115.37 372.282 115.189 373.914 115.189C378.049 115.189 381.077 116.041 382.999 117.746C384.921 119.45 385.882 122.007 385.882 125.416V136.622ZM372.881 139.778C374.839 139.778 376.362 138.853 377.45 137.003V131.89H375.329C373.37 131.89 371.901 132.234 370.922 132.923C369.979 133.612 369.508 134.682 369.508 136.133C369.508 137.293 369.798 138.2 370.378 138.853C370.995 139.469 371.829 139.778 372.881 139.778ZM401.88 106.376C404.419 106.376 406.576 106.793 408.354 107.627C410.167 108.425 411.527 109.513 412.434 110.891C413.34 112.269 413.794 113.793 413.794 115.461C413.794 116.948 413.522 118.217 412.978 119.269C412.47 120.321 411.853 121.173 411.128 121.826C410.403 122.478 409.442 123.24 408.245 124.11C406.794 125.09 405.724 125.978 405.035 126.776C404.346 127.538 404.002 128.535 404.002 129.768V131.128H396.168V129.442C396.168 127.737 396.422 126.305 396.93 125.144C397.474 123.947 398.108 123.022 398.834 122.37C399.595 121.681 400.538 120.937 401.662 120.139C402.75 119.414 403.548 118.779 404.056 118.235C404.564 117.691 404.818 117.02 404.818 116.222C404.818 115.243 404.473 114.482 403.784 113.938C403.131 113.394 402.206 113.122 401.01 113.122C398.725 113.122 396.603 114.228 394.645 116.44L389.15 112.197C392.451 108.316 396.694 106.376 401.88 106.376ZM400.194 136.078C401.535 136.078 402.678 136.568 403.621 137.547C404.6 138.49 405.09 139.633 405.09 140.974C405.09 142.353 404.6 143.531 403.621 144.51C402.678 145.453 401.535 145.925 400.194 145.925C398.852 145.925 397.691 145.453 396.712 144.51C395.769 143.531 395.298 142.353 395.298 140.974C395.298 139.633 395.769 138.49 396.712 137.547C397.691 136.568 398.852 136.078 400.194 136.078Z" fill="#D7FF00"/>
<path d="M122.691 180.7V177.073H144.305V180.7H135.591V205H131.391V180.7H122.691ZM154.263 205.423C152.2 205.423 150.422 204.982 148.931 204.1C147.45 203.209 146.304 201.959 145.495 200.35C144.695 198.732 144.295 196.836 144.295 194.664C144.295 192.518 144.695 190.627 145.495 188.991C146.304 187.355 147.431 186.077 148.877 185.159C150.331 184.241 152.031 183.782 153.977 183.782C155.159 183.782 156.304 183.977 157.413 184.368C158.522 184.759 159.518 185.373 160.4 186.209C161.281 187.045 161.977 188.132 162.486 189.468C162.995 190.795 163.25 192.409 163.25 194.309V195.755H146.6V192.7H159.254C159.254 191.627 159.036 190.677 158.6 189.85C158.163 189.014 157.55 188.355 156.759 187.873C155.977 187.391 155.059 187.15 154.004 187.15C152.859 187.15 151.859 187.432 151.004 187.995C150.159 188.55 149.504 189.277 149.04 190.177C148.586 191.068 148.359 192.036 148.359 193.082V195.468C148.359 196.868 148.604 198.059 149.095 199.041C149.595 200.023 150.29 200.773 151.181 201.291C152.072 201.8 153.113 202.055 154.304 202.055C155.077 202.055 155.781 201.945 156.418 201.727C157.054 201.5 157.604 201.164 158.068 200.718C158.531 200.273 158.886 199.723 159.131 199.068L162.99 199.764C162.681 200.9 162.127 201.895 161.327 202.75C160.536 203.595 159.54 204.255 158.34 204.727C157.15 205.191 155.79 205.423 154.263 205.423ZM176.321 205.423C174.257 205.423 172.48 204.982 170.989 204.1C169.507 203.209 168.362 201.959 167.553 200.35C166.753 198.732 166.353 196.836 166.353 194.664C166.353 192.518 166.753 190.627 167.553 188.991C168.362 187.355 169.489 186.077 170.934 185.159C172.389 184.241 174.089 183.782 176.034 183.782C177.216 183.782 178.362 183.977 179.471 184.368C180.58 184.759 181.575 185.373 182.457 186.209C183.339 187.045 184.034 188.132 184.543 189.468C185.053 190.795 185.307 192.409 185.307 194.309V195.755H168.657V192.7H181.312C181.312 191.627 181.093 190.677 180.657 189.85C180.221 189.014 179.607 188.355 178.816 187.873C178.034 187.391 177.116 187.15 176.062 187.15C174.916 187.15 173.916 187.432 173.062 187.995C172.216 188.55 171.562 189.277 171.098 190.177C170.643 191.068 170.416 192.036 170.416 193.082V195.468C170.416 196.868 170.662 198.059 171.153 199.041C171.653 200.023 172.348 200.773 173.239 201.291C174.13 201.8 175.171 202.055 176.362 202.055C177.134 202.055 177.839 201.945 178.475 201.727C179.112 201.5 179.662 201.164 180.125 200.718C180.589 200.273 180.943 199.723 181.189 199.068L185.048 199.764C184.739 200.9 184.184 201.895 183.384 202.75C182.593 203.595 181.598 204.255 180.398 204.727C179.207 205.191 177.848 205.423 176.321 205.423ZM207.856 205.423C205.893 205.423 204.179 204.973 202.715 204.073C201.252 203.173 200.115 201.914 199.306 200.295C198.497 198.677 198.093 196.786 198.093 194.623C198.093 192.45 198.497 190.55 199.306 188.923C200.115 187.295 201.252 186.032 202.715 185.132C204.179 184.232 205.893 183.782 207.856 183.782C209.82 183.782 211.533 184.232 212.997 185.132C214.461 186.032 215.597 187.295 216.406 188.923C217.215 190.55 217.62 192.45 217.62 194.623C217.62 196.786 217.215 198.677 216.406 200.295C215.597 201.914 214.461 203.173 212.997 204.073C211.533 204.973 209.82 205.423 207.856 205.423ZM207.87 202C209.143 202 210.197 201.664 211.033 200.991C211.87 200.318 212.488 199.423 212.888 198.305C213.297 197.186 213.502 195.955 213.502 194.609C213.502 193.273 213.297 192.045 212.888 190.927C212.488 189.8 211.87 188.895 211.033 188.214C210.197 187.532 209.143 187.191 207.87 187.191C206.588 187.191 205.524 187.532 204.679 188.214C203.843 188.895 203.22 189.8 202.811 190.927C202.411 192.045 202.211 193.273 202.211 194.609C202.211 195.955 202.411 197.186 202.811 198.305C203.22 199.423 203.843 200.318 204.679 200.991C205.524 201.664 206.588 202 207.87 202ZM221.691 205V184.055H225.605V187.464H225.864C226.3 186.309 227.014 185.409 228.005 184.764C228.995 184.109 230.182 183.782 231.564 183.782C232.964 183.782 234.136 184.109 235.082 184.764C236.036 185.418 236.741 186.318 237.195 187.464H237.414C237.914 186.345 238.709 185.455 239.8 184.791C240.891 184.118 242.191 183.782 243.7 183.782C245.6 183.782 247.15 184.377 248.35 185.568C249.559 186.759 250.164 188.555 250.164 190.955V205H246.086V191.336C246.086 189.918 245.7 188.891 244.927 188.255C244.155 187.618 243.232 187.3 242.159 187.3C240.832 187.3 239.8 187.709 239.064 188.527C238.327 189.336 237.959 190.377 237.959 191.65V205H233.895V191.077C233.895 189.941 233.541 189.027 232.832 188.336C232.123 187.645 231.2 187.3 230.064 187.3C229.291 187.3 228.577 187.505 227.923 187.914C227.277 188.314 226.755 188.873 226.355 189.591C225.964 190.309 225.768 191.141 225.768 192.086V205H221.691ZM261.244 205.464C259.917 205.464 258.717 205.218 257.644 204.727C256.571 204.227 255.721 203.505 255.094 202.559C254.476 201.614 254.167 200.455 254.167 199.082C254.167 197.9 254.394 196.927 254.848 196.164C255.303 195.4 255.917 194.795 256.689 194.35C257.462 193.905 258.326 193.568 259.28 193.341C260.235 193.114 261.208 192.941 262.198 192.823C263.453 192.677 264.471 192.559 265.253 192.468C266.035 192.368 266.603 192.209 266.958 191.991C267.312 191.773 267.489 191.418 267.489 190.927V190.832C267.489 189.641 267.153 188.718 266.48 188.064C265.817 187.409 264.826 187.082 263.508 187.082C262.135 187.082 261.053 187.386 260.262 187.995C259.48 188.595 258.939 189.264 258.639 190L254.808 189.127C255.262 187.855 255.926 186.827 256.798 186.045C257.68 185.255 258.694 184.682 259.839 184.327C260.985 183.964 262.189 183.782 263.453 183.782C264.289 183.782 265.176 183.882 266.112 184.082C267.058 184.273 267.939 184.627 268.758 185.145C269.585 185.664 270.262 186.405 270.789 187.368C271.317 188.323 271.58 189.564 271.58 191.091V205H267.598V202.136H267.435C267.171 202.664 266.776 203.182 266.248 203.691C265.721 204.2 265.044 204.623 264.217 204.959C263.389 205.295 262.398 205.464 261.244 205.464ZM262.13 202.191C263.258 202.191 264.221 201.968 265.021 201.523C265.83 201.077 266.444 200.495 266.862 199.777C267.289 199.05 267.503 198.273 267.503 197.445V194.745C267.358 194.891 267.076 195.027 266.658 195.155C266.248 195.273 265.78 195.377 265.253 195.468C264.726 195.55 264.212 195.627 263.712 195.7C263.212 195.764 262.794 195.818 262.458 195.864C261.667 195.964 260.944 196.132 260.289 196.368C259.644 196.605 259.126 196.945 258.735 197.391C258.353 197.827 258.162 198.409 258.162 199.136C258.162 200.145 258.535 200.909 259.28 201.427C260.026 201.936 260.976 202.191 262.13 202.191ZM295.241 205.423C293.177 205.423 291.4 204.982 289.909 204.1C288.427 203.209 287.282 201.959 286.473 200.35C285.673 198.732 285.273 196.836 285.273 194.664C285.273 192.518 285.673 190.627 286.473 188.991C287.282 187.355 288.409 186.077 289.854 185.159C291.309 184.241 293.009 183.782 294.954 183.782C296.136 183.782 297.282 183.977 298.391 184.368C299.5 184.759 300.495 185.373 301.377 186.209C302.259 187.045 302.954 188.132 303.463 189.468C303.973 190.795 304.227 192.409 304.227 194.309V195.755H287.577V192.7H300.232C300.232 191.627 300.013 190.677 299.577 189.85C299.141 189.014 298.527 188.355 297.736 187.873C296.954 187.391 296.036 187.15 294.982 187.15C293.836 187.15 292.836 187.432 291.982 187.995C291.136 188.55 290.482 189.277 290.018 190.177C289.563 191.068 289.336 192.036 289.336 193.082V195.468C289.336 196.868 289.582 198.059 290.073 199.041C290.573 200.023 291.268 200.773 292.159 201.291C293.05 201.8 294.091 202.055 295.282 202.055C296.054 202.055 296.759 201.945 297.395 201.727C298.032 201.5 298.582 201.164 299.045 200.718C299.509 200.273 299.863 199.723 300.109 199.068L303.968 199.764C303.659 200.9 303.104 201.895 302.304 202.75C301.513 203.595 300.518 204.255 299.318 204.727C298.127 205.191 296.768 205.423 295.241 205.423ZM312.348 192.564V205H308.271V184.055H312.185V187.464H312.444C312.925 186.355 313.68 185.464 314.707 184.791C315.744 184.118 317.048 183.782 318.621 183.782C320.048 183.782 321.298 184.082 322.371 184.682C323.444 185.273 324.275 186.155 324.866 187.327C325.457 188.5 325.753 189.95 325.753 191.677V205H321.675V192.168C321.675 190.65 321.28 189.464 320.489 188.609C319.698 187.745 318.612 187.314 317.23 187.314C316.285 187.314 315.444 187.518 314.707 187.927C313.98 188.336 313.403 188.936 312.975 189.727C312.557 190.509 312.348 191.455 312.348 192.564ZM334.818 192.564V205H330.741V184.055H334.655V187.464H334.914C335.395 186.355 336.15 185.464 337.177 184.791C338.214 184.118 339.518 183.782 341.091 183.782C342.518 183.782 343.768 184.082 344.841 184.682C345.914 185.273 346.745 186.155 347.336 187.327C347.927 188.5 348.223 189.95 348.223 191.677V205H344.145V192.168C344.145 190.65 343.75 189.464 342.959 188.609C342.168 187.745 341.082 187.314 339.7 187.314C338.755 187.314 337.914 187.518 337.177 187.927C336.45 188.336 335.873 188.936 335.445 189.727C335.027 190.509 334.818 191.455 334.818 192.564ZM366.479 196.314V184.055H370.57V205H366.561V201.373H366.343C365.861 202.491 365.088 203.423 364.025 204.168C362.97 204.905 361.656 205.273 360.084 205.273C358.738 205.273 357.547 204.977 356.511 204.386C355.484 203.786 354.675 202.9 354.084 201.727C353.502 200.555 353.211 199.105 353.211 197.377V184.055H357.288V196.886C357.288 198.314 357.684 199.45 358.475 200.295C359.265 201.141 360.293 201.564 361.556 201.564C362.32 201.564 363.079 201.373 363.834 200.991C364.597 200.609 365.229 200.032 365.729 199.259C366.238 198.486 366.488 197.505 366.479 196.314ZM391.264 189.168L387.568 189.823C387.414 189.35 387.168 188.9 386.832 188.473C386.505 188.045 386.059 187.695 385.496 187.423C384.932 187.15 384.228 187.014 383.382 187.014C382.228 187.014 381.264 187.273 380.491 187.791C379.718 188.3 379.332 188.959 379.332 189.768C379.332 190.468 379.591 191.032 380.109 191.459C380.628 191.886 381.464 192.236 382.618 192.509L385.946 193.273C387.873 193.718 389.309 194.405 390.255 195.332C391.2 196.259 391.673 197.464 391.673 198.945C391.673 200.2 391.309 201.318 390.582 202.3C389.864 203.273 388.859 204.036 387.568 204.591C386.287 205.145 384.8 205.423 383.109 205.423C380.764 205.423 378.85 204.923 377.368 203.923C375.887 202.914 374.978 201.482 374.641 199.627L378.582 199.027C378.828 200.055 379.332 200.832 380.096 201.359C380.859 201.877 381.855 202.136 383.082 202.136C384.418 202.136 385.487 201.859 386.287 201.305C387.087 200.741 387.487 200.055 387.487 199.245C387.487 198.591 387.241 198.041 386.75 197.595C386.268 197.15 385.528 196.814 384.528 196.586L380.982 195.809C379.028 195.364 377.582 194.655 376.646 193.682C375.718 192.709 375.255 191.477 375.255 189.986C375.255 188.75 375.6 187.668 376.291 186.741C376.982 185.814 377.937 185.091 379.155 184.573C380.373 184.045 381.768 183.782 383.341 183.782C385.605 183.782 387.387 184.273 388.687 185.255C389.987 186.227 390.846 187.532 391.264 189.168ZM405.453 184.055V187.327H394.012V184.055H405.453ZM397.08 179.036H401.158V198.85C401.158 199.641 401.276 200.236 401.512 200.636C401.749 201.027 402.053 201.295 402.426 201.441C402.808 201.577 403.221 201.645 403.667 201.645C403.994 201.645 404.28 201.623 404.526 201.577C404.771 201.532 404.962 201.495 405.099 201.468L405.835 204.836C405.599 204.927 405.262 205.018 404.826 205.109C404.39 205.209 403.844 205.264 403.19 205.273C402.117 205.291 401.117 205.1 400.19 204.7C399.262 204.3 398.512 203.682 397.94 202.845C397.367 202.009 397.08 200.959 397.08 199.695V179.036ZM422.752 196.314V184.055H426.843V205H422.833V201.373H422.615C422.133 202.491 421.361 203.423 420.297 204.168C419.243 204.905 417.929 205.273 416.356 205.273C415.011 205.273 413.82 204.977 412.783 204.386C411.756 203.786 410.947 202.9 410.356 201.727C409.774 200.555 409.483 199.105 409.483 197.377V184.055H413.561V196.886C413.561 198.314 413.956 199.45 414.747 200.295C415.538 201.141 416.565 201.564 417.829 201.564C418.593 201.564 419.352 201.373 420.106 200.991C420.87 200.609 421.502 200.032 422.002 199.259C422.511 198.486 422.761 197.505 422.752 196.314ZM447.536 189.168L443.841 189.823C443.686 189.35 443.441 188.9 443.105 188.473C442.777 188.045 442.332 187.695 441.768 187.423C441.205 187.15 440.5 187.014 439.655 187.014C438.5 187.014 437.536 187.273 436.764 187.791C435.991 188.3 435.605 188.959 435.605 189.768C435.605 190.468 435.864 191.032 436.382 191.459C436.9 191.886 437.736 192.236 438.891 192.509L442.218 193.273C444.145 193.718 445.582 194.405 446.527 195.332C447.473 196.259 447.945 197.464 447.945 198.945C447.945 200.2 447.582 201.318 446.855 202.3C446.136 203.273 445.132 204.036 443.841 204.591C442.559 205.145 441.073 205.423 439.382 205.423C437.036 205.423 435.123 204.923 433.641 203.923C432.159 202.914 431.25 201.482 430.914 199.627L434.855 199.027C435.1 200.055 435.605 200.832 436.368 201.359C437.132 201.877 438.127 202.136 439.355 202.136C440.691 202.136 441.759 201.859 442.559 201.305C443.359 200.741 443.759 200.055 443.759 199.245C443.759 198.591 443.514 198.041 443.023 197.595C442.541 197.15 441.8 196.814 440.8 196.586L437.255 195.809C435.3 195.364 433.855 194.655 432.918 193.682C431.991 192.709 431.527 191.477 431.527 189.986C431.527 188.75 431.873 187.668 432.564 186.741C433.255 185.814 434.209 185.091 435.427 184.573C436.645 184.045 438.041 183.782 439.614 183.782C441.877 183.782 443.659 184.273 444.959 185.255C446.259 186.227 447.118 187.532 447.536 189.168ZM461.631 184.055H465.708V206.364C465.708 207.764 465.454 208.945 464.945 209.909C464.445 210.873 463.699 211.605 462.708 212.105C461.726 212.605 460.513 212.855 459.067 212.855C458.922 212.855 458.785 212.855 458.658 212.855C458.522 212.855 458.381 212.85 458.235 212.841V209.336C458.363 209.336 458.476 209.336 458.576 209.336C458.667 209.336 458.772 209.336 458.89 209.336C459.854 209.336 460.549 209.077 460.976 208.559C461.413 208.05 461.631 207.309 461.631 206.336V184.055ZM463.649 180.823C462.94 180.823 462.331 180.586 461.822 180.114C461.322 179.632 461.072 179.059 461.072 178.395C461.072 177.723 461.322 177.15 461.822 176.677C462.331 176.195 462.94 175.955 463.649 175.955C464.358 175.955 464.963 176.195 465.463 176.677C465.972 177.15 466.226 177.723 466.226 178.395C466.226 179.059 465.972 179.632 465.463 180.114C464.963 180.586 464.358 180.823 463.649 180.823ZM476.809 205.464C475.482 205.464 474.282 205.218 473.209 204.727C472.136 204.227 471.286 203.505 470.659 202.559C470.041 201.614 469.732 200.455 469.732 199.082C469.732 197.9 469.959 196.927 470.413 196.164C470.868 195.4 471.482 194.795 472.254 194.35C473.027 193.905 473.891 193.568 474.845 193.341C475.8 193.114 476.773 192.941 477.763 192.823C479.018 192.677 480.036 192.559 480.818 192.468C481.6 192.368 482.168 192.209 482.523 191.991C482.877 191.773 483.054 191.418 483.054 190.927V190.832C483.054 189.641 482.718 188.718 482.045 188.064C481.382 187.409 480.391 187.082 479.073 187.082C477.7 187.082 476.618 187.386 475.827 187.995C475.045 188.595 474.504 189.264 474.204 190L470.373 189.127C470.827 187.855 471.491 186.827 472.363 186.045C473.245 185.255 474.259 184.682 475.404 184.327C476.55 183.964 477.754 183.782 479.018 183.782C479.854 183.782 480.741 183.882 481.677 184.082C482.623 184.273 483.504 184.627 484.323 185.145C485.15 185.664 485.827 186.405 486.354 187.368C486.882 188.323 487.145 189.564 487.145 191.091V205H483.163V202.136H483C482.736 202.664 482.341 203.182 481.813 203.691C481.286 204.2 480.609 204.623 479.782 204.959C478.954 205.295 477.963 205.464 476.809 205.464ZM477.695 202.191C478.823 202.191 479.786 201.968 480.586 201.523C481.395 201.077 482.009 200.495 482.427 199.777C482.854 199.05 483.068 198.273 483.068 197.445V194.745C482.923 194.891 482.641 195.027 482.223 195.155C481.813 195.273 481.345 195.377 480.818 195.468C480.291 195.55 479.777 195.627 479.277 195.7C478.777 195.764 478.359 195.818 478.023 195.864C477.232 195.964 476.509 196.132 475.854 196.368C475.209 196.605 474.691 196.945 474.3 197.391C473.918 197.827 473.727 198.409 473.727 199.136C473.727 200.145 474.1 200.909 474.845 201.427C475.591 201.936 476.541 202.191 477.695 202.191ZM510.601 205.423C508.638 205.423 506.924 204.973 505.46 204.073C503.997 203.173 502.86 201.914 502.051 200.295C501.242 198.677 500.838 196.786 500.838 194.623C500.838 192.45 501.242 190.55 502.051 188.923C502.86 187.295 503.997 186.032 505.46 185.132C506.924 184.232 508.638 183.782 510.601 183.782C512.565 183.782 514.278 184.232 515.742 185.132C517.206 186.032 518.342 187.295 519.151 188.923C519.96 190.55 520.365 192.45 520.365 194.623C520.365 196.786 519.96 198.677 519.151 200.295C518.342 201.914 517.206 203.173 515.742 204.073C514.278 204.973 512.565 205.423 510.601 205.423ZM510.615 202C511.888 202 512.942 201.664 513.778 200.991C514.615 200.318 515.233 199.423 515.633 198.305C516.042 197.186 516.247 195.955 516.247 194.609C516.247 193.273 516.042 192.045 515.633 190.927C515.233 189.8 514.615 188.895 513.778 188.214C512.942 187.532 511.888 187.191 510.615 187.191C509.333 187.191 508.269 187.532 507.424 188.214C506.588 188.895 505.965 189.8 505.556 190.927C505.156 192.045 504.956 193.273 504.956 194.609C504.956 195.955 505.156 197.186 505.556 198.305C505.965 199.423 506.588 200.318 507.424 200.991C508.269 201.664 509.333 202 510.615 202ZM540.131 189.168L536.436 189.823C536.281 189.35 536.036 188.9 535.7 188.473C535.372 188.045 534.927 187.695 534.363 187.423C533.8 187.15 533.095 187.014 532.25 187.014C531.095 187.014 530.131 187.273 529.359 187.791C528.586 188.3 528.2 188.959 528.2 189.768C528.2 190.468 528.459 191.032 528.977 191.459C529.495 191.886 530.331 192.236 531.486 192.509L534.813 193.273C536.74 193.718 538.177 194.405 539.122 195.332C540.068 196.259 540.54 197.464 540.54 198.945C540.54 200.2 540.177 201.318 539.45 202.3C538.731 203.273 537.727 204.036 536.436 204.591C535.154 205.145 533.668 205.423 531.977 205.423C529.631 205.423 527.718 204.923 526.236 203.923C524.754 202.914 523.845 201.482 523.509 199.627L527.45 199.027C527.695 200.055 528.2 200.832 528.963 201.359C529.727 201.877 530.722 202.136 531.95 202.136C533.286 202.136 534.354 201.859 535.154 201.305C535.954 200.741 536.354 200.055 536.354 199.245C536.354 198.591 536.109 198.041 535.618 197.595C535.136 197.15 534.395 196.814 533.395 196.586L529.85 195.809C527.895 195.364 526.45 194.655 525.513 193.682C524.586 192.709 524.122 191.477 524.122 189.986C524.122 188.75 524.468 187.668 525.159 186.741C525.85 185.814 526.804 185.091 528.022 184.573C529.24 184.045 530.636 183.782 532.209 183.782C534.472 183.782 536.254 184.273 537.554 185.255C538.854 186.227 539.713 187.532 540.131 189.168ZM550.639 205.464C549.312 205.464 548.112 205.218 547.039 204.727C545.966 204.227 545.116 203.505 544.489 202.559C543.871 201.614 543.562 200.455 543.562 199.082C543.562 197.9 543.789 196.927 544.243 196.164C544.698 195.4 545.312 194.795 546.084 194.35C546.857 193.905 547.721 193.568 548.675 193.341C549.63 193.114 550.603 192.941 551.593 192.823C552.848 192.677 553.866 192.559 554.648 192.468C555.43 192.368 555.998 192.209 556.353 191.991C556.707 191.773 556.884 191.418 556.884 190.927V190.832C556.884 189.641 556.548 188.718 555.875 188.064C555.212 187.409 554.221 187.082 552.903 187.082C551.53 187.082 550.448 187.386 549.657 187.995C548.875 188.595 548.334 189.264 548.034 190L544.203 189.127C544.657 187.855 545.321 186.827 546.193 186.045C547.075 185.255 548.089 184.682 549.234 184.327C550.38 183.964 551.584 183.782 552.848 183.782C553.684 183.782 554.571 183.882 555.507 184.082C556.453 184.273 557.334 184.627 558.153 185.145C558.98 185.664 559.657 186.405 560.184 187.368C560.712 188.323 560.975 189.564 560.975 191.091V205H556.993V202.136H556.83C556.566 202.664 556.171 203.182 555.643 203.691C555.116 204.2 554.439 204.623 553.612 204.959C552.784 205.295 551.793 205.464 550.639 205.464ZM551.525 202.191C552.653 202.191 553.616 201.968 554.416 201.523C555.225 201.077 555.839 200.495 556.257 199.777C556.684 199.05 556.898 198.273 556.898 197.445V194.745C556.753 194.891 556.471 195.027 556.053 195.155C555.643 195.273 555.175 195.377 554.648 195.468C554.121 195.55 553.607 195.627 553.107 195.7C552.607 195.764 552.189 195.818 551.853 195.864C551.062 195.964 550.339 196.132 549.684 196.368C549.039 196.605 548.521 196.945 548.13 197.391C547.748 197.827 547.557 198.409 547.557 199.136C547.557 200.145 547.93 200.909 548.675 201.427C549.421 201.936 550.371 202.191 551.525 202.191ZM570.003 177.073V205H565.926V177.073H570.003ZM584.036 205.423C581.972 205.423 580.195 204.982 578.704 204.1C577.222 203.209 576.077 201.959 575.268 200.35C574.468 198.732 574.068 196.836 574.068 194.664C574.068 192.518 574.468 190.627 575.268 188.991C576.077 187.355 577.204 186.077 578.649 185.159C580.104 184.241 581.804 183.782 583.749 183.782C584.931 183.782 586.077 183.977 587.186 184.368C588.295 184.759 589.29 185.373 590.172 186.209C591.054 187.045 591.749 188.132 592.258 189.468C592.768 190.795 593.022 192.409 593.022 194.309V195.755H576.372V192.7H589.027C589.027 191.627 588.808 190.677 588.372 189.85C587.936 189.014 587.322 188.355 586.531 187.873C585.749 187.391 584.831 187.15 583.777 187.15C582.631 187.15 581.631 187.432 580.777 187.995C579.931 188.55 579.277 189.277 578.813 190.177C578.358 191.068 578.131 192.036 578.131 193.082V195.468C578.131 196.868 578.377 198.059 578.868 199.041C579.368 200.023 580.063 200.773 580.954 201.291C581.845 201.8 582.886 202.055 584.077 202.055C584.849 202.055 585.554 201.945 586.19 201.727C586.827 201.5 587.377 201.164 587.84 200.718C588.304 200.273 588.658 199.723 588.904 199.068L592.763 199.764C592.454 200.9 591.899 201.895 591.099 202.75C590.308 203.595 589.313 204.255 588.113 204.727C586.922 205.191 585.563 205.423 584.036 205.423ZM604.907 205.409C603.216 205.409 601.707 204.977 600.38 204.114C599.061 203.241 598.025 202 597.27 200.391C596.525 198.773 596.152 196.832 596.152 194.568C596.152 192.305 596.53 190.368 597.284 188.759C598.048 187.15 599.093 185.918 600.42 185.064C601.748 184.209 603.252 183.782 604.934 183.782C606.234 183.782 607.28 184 608.07 184.436C608.87 184.864 609.489 185.364 609.925 185.936C610.37 186.509 610.716 187.014 610.961 187.45H611.207V177.073H615.284V205H611.302V201.741H610.961C610.716 202.186 610.361 202.695 609.898 203.268C609.443 203.841 608.816 204.341 608.016 204.768C607.216 205.195 606.18 205.409 604.907 205.409ZM605.807 201.932C606.98 201.932 607.97 201.623 608.78 201.005C609.598 200.377 610.216 199.509 610.634 198.4C611.061 197.291 611.275 196 611.275 194.527C611.275 193.073 611.066 191.8 610.648 190.709C610.23 189.618 609.616 188.768 608.807 188.159C607.998 187.55 606.998 187.245 605.807 187.245C604.58 187.245 603.557 187.564 602.739 188.2C601.92 188.836 601.302 189.705 600.884 190.805C600.475 191.905 600.27 193.145 600.27 194.527C600.27 195.927 600.48 197.186 600.898 198.305C601.316 199.423 601.934 200.309 602.752 200.964C603.58 201.609 604.598 201.932 605.807 201.932Z" fill="#F5FCC4"/>
<path d="M133.464 253.382C131.536 253.382 129.818 253.027 128.309 252.318C126.809 251.609 125.618 250.632 124.736 249.386C123.855 248.141 123.395 246.714 123.359 245.105H129.086C129.15 246.186 129.605 247.064 130.45 247.736C131.295 248.409 132.3 248.745 133.464 248.745C134.391 248.745 135.209 248.541 135.918 248.132C136.636 247.714 137.195 247.136 137.595 246.4C138.005 245.655 138.209 244.8 138.209 243.836C138.209 242.855 138 241.991 137.582 241.245C137.173 240.5 136.605 239.918 135.877 239.5C135.15 239.082 134.318 238.868 133.382 238.859C132.564 238.859 131.768 239.027 130.995 239.364C130.232 239.7 129.636 240.159 129.209 240.741L123.959 239.8L125.282 225.073H142.355V229.9H130.15L129.427 236.895H129.591C130.082 236.205 130.823 235.632 131.814 235.177C132.805 234.723 133.914 234.495 135.141 234.495C136.823 234.495 138.323 234.891 139.641 235.682C140.959 236.473 142 237.559 142.764 238.941C143.527 240.314 143.905 241.895 143.895 243.686C143.905 245.568 143.468 247.241 142.586 248.705C141.714 250.159 140.491 251.305 138.918 252.141C137.355 252.968 135.536 253.382 133.464 253.382ZM173.082 249.127L156.787 232.859L160.359 229.245L176.668 245.555L173.082 249.127ZM160.359 249.127L156.787 245.555L173.082 229.245L176.668 232.859L160.359 249.127ZM202.119 225.073V253H196.214V230.677H196.05L189.655 234.686V229.45L196.569 225.073H202.119ZM219.226 253.614C216.881 253.605 214.863 253.027 213.172 251.882C211.49 250.736 210.194 249.077 209.285 246.905C208.385 244.732 207.94 242.118 207.949 239.064C207.949 236.018 208.399 233.423 209.299 231.277C210.208 229.132 211.503 227.5 213.185 226.382C214.876 225.255 216.89 224.691 219.226 224.691C221.563 224.691 223.572 225.255 225.253 226.382C226.944 227.509 228.244 229.145 229.153 231.291C230.063 233.427 230.513 236.018 230.503 239.064C230.503 242.127 230.049 244.745 229.14 246.918C228.24 249.091 226.949 250.75 225.267 251.895C223.585 253.041 221.572 253.614 219.226 253.614ZM219.226 248.718C220.826 248.718 222.103 247.914 223.058 246.305C224.013 244.695 224.485 242.282 224.476 239.064C224.476 236.945 224.258 235.182 223.822 233.773C223.394 232.364 222.785 231.305 221.994 230.595C221.213 229.886 220.29 229.532 219.226 229.532C217.635 229.532 216.363 230.327 215.408 231.918C214.453 233.509 213.972 235.891 213.963 239.064C213.963 241.209 214.176 243 214.603 244.436C215.04 245.864 215.653 246.936 216.444 247.655C217.235 248.364 218.163 248.718 219.226 248.718ZM245.184 253.614C242.838 253.605 240.82 253.027 239.129 251.882C237.447 250.736 236.152 249.077 235.243 246.905C234.343 244.732 233.897 242.118 233.906 239.064C233.906 236.018 234.356 233.423 235.256 231.277C236.165 229.132 237.461 227.5 239.143 226.382C240.834 225.255 242.847 224.691 245.184 224.691C247.52 224.691 249.529 225.255 251.211 226.382C252.902 227.509 254.202 229.145 255.111 231.291C256.02 233.427 256.47 236.018 256.461 239.064C256.461 242.127 256.006 244.745 255.097 246.918C254.197 249.091 252.906 250.75 251.225 251.895C249.543 253.041 247.529 253.614 245.184 253.614ZM245.184 248.718C246.784 248.718 248.061 247.914 249.015 246.305C249.97 244.695 250.443 242.282 250.434 239.064C250.434 236.945 250.215 235.182 249.779 233.773C249.352 232.364 248.743 231.305 247.952 230.595C247.17 229.886 246.247 229.532 245.184 229.532C243.593 229.532 242.32 230.327 241.365 231.918C240.411 233.509 239.929 235.891 239.92 239.064C239.92 241.209 240.134 243 240.561 244.436C240.997 245.864 241.611 246.936 242.402 247.655C243.193 248.364 244.12 248.718 245.184 248.718ZM287.035 234.686L285.685 237.673H267.453L268.558 234.686H287.035ZM284.43 240.4L282.944 243.455H267.453L268.558 240.4H284.43ZM290.58 227.227L288.399 231.891C288.035 231.636 287.594 231.359 287.076 231.059C286.567 230.75 285.98 230.491 285.317 230.282C284.662 230.064 283.935 229.955 283.135 229.955C281.871 229.955 280.771 230.273 279.835 230.909C278.899 231.545 278.171 232.536 277.653 233.882C277.144 235.227 276.89 236.955 276.89 239.064C276.89 241.191 277.144 242.923 277.653 244.259C278.171 245.586 278.899 246.564 279.835 247.191C280.771 247.809 281.871 248.118 283.135 248.118C283.935 248.118 284.662 248.014 285.317 247.805C285.971 247.595 286.544 247.345 287.035 247.055C287.535 246.764 287.953 246.495 288.29 246.25L290.499 250.914C289.508 251.732 288.385 252.35 287.13 252.768C285.876 253.177 284.544 253.382 283.135 253.382C280.753 253.382 278.644 252.818 276.808 251.691C274.98 250.555 273.549 248.923 272.512 246.795C271.476 244.659 270.958 242.082 270.958 239.064C270.958 236.055 271.476 233.477 272.512 231.332C273.549 229.186 274.98 227.545 276.808 226.409C278.644 225.264 280.753 224.691 283.135 224.691C284.599 224.691 285.953 224.909 287.199 225.345C288.444 225.782 289.571 226.409 290.58 227.227ZM308.752 225.073V253H302.943V225.073H308.752ZM322.389 253.409C320.271 253.409 318.439 252.959 316.894 252.059C315.358 251.15 314.171 249.886 313.335 248.268C312.498 246.641 312.08 244.755 312.08 242.609C312.08 240.445 312.498 238.555 313.335 236.936C314.171 235.309 315.358 234.045 316.894 233.145C318.439 232.236 320.271 231.782 322.389 231.782C324.508 231.782 326.335 232.236 327.871 233.145C329.417 234.045 330.608 235.309 331.444 236.936C332.28 238.555 332.698 240.445 332.698 242.609C332.698 244.755 332.28 246.641 331.444 248.268C330.608 249.886 329.417 251.15 327.871 252.059C326.335 252.959 324.508 253.409 322.389 253.409ZM322.417 248.909C323.38 248.909 324.185 248.636 324.83 248.091C325.476 247.536 325.962 246.782 326.289 245.827C326.626 244.873 326.794 243.786 326.794 242.568C326.794 241.35 326.626 240.264 326.289 239.309C325.962 238.355 325.476 237.6 324.83 237.045C324.185 236.491 323.38 236.214 322.417 236.214C321.444 236.214 320.626 236.491 319.962 237.045C319.308 237.6 318.812 238.355 318.476 239.309C318.148 240.264 317.985 241.35 317.985 242.568C317.985 243.786 318.148 244.873 318.476 245.827C318.812 246.782 319.308 247.536 319.962 248.091C320.626 248.636 321.444 248.909 322.417 248.909ZM345.459 253.409C343.341 253.409 341.509 252.959 339.964 252.059C338.428 251.15 337.241 249.886 336.405 248.268C335.568 246.641 335.15 244.755 335.15 242.609C335.15 240.445 335.568 238.555 336.405 236.936C337.241 235.309 338.428 234.045 339.964 233.145C341.509 232.236 343.341 231.782 345.459 231.782C347.578 231.782 349.405 232.236 350.941 233.145C352.487 234.045 353.678 235.309 354.514 236.936C355.35 238.555 355.768 240.445 355.768 242.609C355.768 244.755 355.35 246.641 354.514 248.268C353.678 249.886 352.487 251.15 350.941 252.059C349.405 252.959 347.578 253.409 345.459 253.409ZM345.487 248.909C346.45 248.909 347.255 248.636 347.9 248.091C348.546 247.536 349.032 246.782 349.359 245.827C349.696 244.873 349.864 243.786 349.864 242.568C349.864 241.35 349.696 240.264 349.359 239.309C349.032 238.355 348.546 237.6 347.9 237.045C347.255 236.491 346.45 236.214 345.487 236.214C344.514 236.214 343.696 236.491 343.032 237.045C342.378 237.6 341.882 238.355 341.546 239.309C341.218 240.264 341.055 241.35 341.055 242.568C341.055 243.786 341.218 244.873 341.546 245.827C341.882 246.782 342.378 247.536 343.032 248.091C343.696 248.636 344.514 248.909 345.487 248.909ZM376.493 238.027L371.175 238.355C371.084 237.9 370.888 237.491 370.588 237.127C370.288 236.755 369.893 236.459 369.402 236.241C368.92 236.014 368.343 235.9 367.67 235.9C366.77 235.9 366.011 236.091 365.393 236.473C364.775 236.845 364.466 237.345 364.466 237.973C364.466 238.473 364.666 238.895 365.066 239.241C365.466 239.586 366.152 239.864 367.125 240.073L370.916 240.836C372.952 241.255 374.47 241.927 375.47 242.855C376.47 243.782 376.97 245 376.97 246.509C376.97 247.882 376.566 249.086 375.757 250.123C374.957 251.159 373.857 251.968 372.457 252.55C371.066 253.123 369.461 253.409 367.643 253.409C364.87 253.409 362.661 252.832 361.016 251.677C359.379 250.514 358.42 248.932 358.138 246.932L363.852 246.632C364.025 247.477 364.443 248.123 365.107 248.568C365.77 249.005 366.62 249.223 367.657 249.223C368.675 249.223 369.493 249.027 370.111 248.636C370.738 248.236 371.057 247.723 371.066 247.095C371.057 246.568 370.834 246.136 370.398 245.8C369.961 245.455 369.288 245.191 368.379 245.009L364.752 244.286C362.707 243.877 361.184 243.168 360.184 242.159C359.193 241.15 358.698 239.864 358.698 238.3C358.698 236.955 359.061 235.795 359.788 234.823C360.525 233.85 361.557 233.1 362.884 232.573C364.22 232.045 365.784 231.782 367.575 231.782C370.22 231.782 372.302 232.341 373.82 233.459C375.348 234.577 376.238 236.1 376.493 238.027ZM380.148 253V232.055H385.957V253H380.148ZM383.066 229.355C382.203 229.355 381.462 229.068 380.844 228.495C380.235 227.914 379.93 227.218 379.93 226.409C379.93 225.609 380.235 224.923 380.844 224.35C381.462 223.768 382.203 223.477 383.066 223.477C383.93 223.477 384.666 223.768 385.275 224.35C385.894 224.923 386.203 225.609 386.203 226.409C386.203 227.218 385.894 227.914 385.275 228.495C384.666 229.068 383.93 229.355 383.066 229.355ZM407.558 238.027L402.24 238.355C402.149 237.9 401.953 237.491 401.653 237.127C401.353 236.755 400.958 236.459 400.467 236.241C399.985 236.014 399.408 235.9 398.735 235.9C397.835 235.9 397.076 236.091 396.458 236.473C395.84 236.845 395.531 237.345 395.531 237.973C395.531 238.473 395.731 238.895 396.131 239.241C396.531 239.586 397.217 239.864 398.19 240.073L401.981 240.836C404.017 241.255 405.535 241.927 406.535 242.855C407.535 243.782 408.035 245 408.035 246.509C408.035 247.882 407.631 249.086 406.822 250.123C406.022 251.159 404.922 251.968 403.522 252.55C402.131 253.123 400.526 253.409 398.708 253.409C395.935 253.409 393.726 252.832 392.081 251.677C390.444 250.514 389.485 248.932 389.203 246.932L394.917 246.632C395.09 247.477 395.508 248.123 396.172 248.568C396.835 249.005 397.685 249.223 398.722 249.223C399.74 249.223 400.558 249.027 401.176 248.636C401.803 248.236 402.122 247.723 402.131 247.095C402.122 246.568 401.899 246.136 401.463 245.8C401.026 245.455 400.353 245.191 399.444 245.009L395.817 244.286C393.772 243.877 392.249 243.168 391.249 242.159C390.258 241.15 389.763 239.864 389.763 238.3C389.763 236.955 390.126 235.795 390.853 234.823C391.59 233.85 392.622 233.1 393.949 232.573C395.285 232.045 396.849 231.782 398.64 231.782C401.285 231.782 403.367 232.341 404.885 233.459C406.413 234.577 407.303 236.1 407.558 238.027ZM418.154 225.073L417.622 244.627H412.631L412.086 225.073H418.154ZM415.127 253.355C414.227 253.355 413.454 253.036 412.809 252.4C412.163 251.755 411.845 250.982 411.854 250.082C411.845 249.191 412.163 248.427 412.809 247.791C413.454 247.155 414.227 246.836 415.127 246.836C415.99 246.836 416.75 247.155 417.404 247.791C418.059 248.427 418.39 249.191 418.4 250.082C418.39 250.682 418.231 251.232 417.922 251.732C417.622 252.223 417.227 252.618 416.736 252.918C416.245 253.209 415.709 253.355 415.127 253.355Z" fill="#D7FF00"/>
<path d="M121 292C121 288.465 123.865 285.6 127.4 285.6H372.4C375.935 285.6 378.8 288.465 378.8 292V357.4C378.8 360.935 375.935 363.8 372.4 363.8H127.4C123.865 363.8 121 360.935 121 357.4V292Z" fill="#D7FF00"/>
<path d="M178.063 311.627L177.448 315.736H167.848V322.648H176.219V326.719H167.848V334.053H178.139V338.2H162.203V311.627H178.063ZM202.056 338.2H194.798L186.35 317.119C186.58 318.936 186.76 320.651 186.888 322.264C187.041 323.851 187.118 325.72 187.118 327.871V338.2H182.011V311.627H189.115L197.716 332.747C197.204 329.317 196.948 326.168 196.948 323.301V311.627H202.056V338.2ZM227.226 338.2H219.968L211.52 317.119C211.75 318.936 211.93 320.651 212.058 322.264C212.211 323.851 212.288 325.72 212.288 327.871V338.2H207.181V311.627H214.285L222.886 332.747C222.374 329.317 222.118 326.168 222.118 323.301V311.627H227.226V338.2ZM252.204 329.445C252.204 331.263 251.82 332.875 251.052 334.283C250.284 335.691 249.132 336.805 247.596 337.624C246.085 338.418 244.242 338.815 242.066 338.815C238.789 338.815 236.28 337.97 234.54 336.28C232.824 334.565 231.967 332.287 231.967 329.445V311.627H237.612V329.176C237.612 330.968 237.97 332.312 238.687 333.208C239.404 334.079 240.53 334.514 242.066 334.514C243.602 334.514 244.728 334.079 245.445 333.208C246.188 332.312 246.559 330.968 246.559 329.176V311.627H252.204V329.445ZM264.873 311.013C266.793 311.013 268.457 311.295 269.865 311.858C271.299 312.395 272.617 313.227 273.82 314.354L271.132 317.464C270.185 316.696 269.238 316.133 268.291 315.775C267.344 315.416 266.332 315.237 265.257 315.237C264.08 315.237 263.132 315.493 262.416 316.005C261.724 316.491 261.379 317.195 261.379 318.117C261.379 318.757 261.52 319.282 261.801 319.691C262.108 320.101 262.633 320.485 263.376 320.843C264.118 321.202 265.232 321.611 266.716 322.072C269.353 322.917 271.324 323.967 272.63 325.221C273.936 326.45 274.588 328.216 274.588 330.52C274.588 332.159 274.179 333.605 273.36 334.859C272.54 336.088 271.35 337.061 269.788 337.778C268.227 338.469 266.396 338.815 264.297 338.815C262.198 338.815 260.329 338.482 258.691 337.816C257.052 337.151 255.644 336.242 254.467 335.09L257.347 331.903C258.371 332.773 259.433 333.439 260.534 333.899C261.635 334.335 262.838 334.552 264.144 334.552C265.526 334.552 266.627 334.232 267.446 333.592C268.291 332.952 268.713 332.056 268.713 330.904C268.713 330.187 268.56 329.599 268.252 329.138C267.971 328.651 267.472 328.216 266.755 327.832C266.038 327.448 265.001 327.051 263.644 326.642C260.752 325.746 258.678 324.671 257.424 323.416C256.195 322.162 255.58 320.523 255.58 318.501C255.58 317.016 255.977 315.711 256.771 314.584C257.564 313.432 258.665 312.549 260.073 311.935C261.481 311.32 263.081 311.013 264.873 311.013ZM294.804 311.627L294.19 316.043H287.47V338.2H281.825V316.043H274.759V311.627H294.804ZM309.353 338.2L307.855 332.248H299.522L298.025 338.2H292.15L300.329 311.627H307.202L315.343 338.2H309.353ZM300.598 328.063H306.78L303.67 315.813L300.598 328.063ZM337.363 338.2H330.106L321.658 317.119C321.888 318.936 322.067 320.651 322.195 322.264C322.349 323.851 322.426 325.72 322.426 327.871V338.2H317.318V311.627H324.422L333.024 332.747C332.512 329.317 332.256 326.168 332.256 323.301V311.627H337.363V338.2Z" fill="black"/>
</svg>
