<svg width="252" height="48" viewBox="0 0 252 48" fill="none" xmlns="http://www.w3.org/2000/svg">
<path d="M247.365 23.024L250.896 12.4199L235.696 15.6808C234.985 17.8322 234.099 20.4797 233.251 23.024H226.751C226.594 23.3957 226.529 23.7779 226.529 24.1887C226.529 26.1818 227.876 27.8443 230.15 28.5289C230.463 28.6232 230.863 28.7067 231.331 28.7795L230.717 30.6269C229.184 35.2178 228.546 38.5267 228.546 40.3954C228.546 45.1695 231.494 47.9965 236.147 47.9965C238.45 47.9965 240.582 47.2925 243.746 44.7392C243.007 43.2421 242.659 41.7077 242.659 39.3126C242.659 37.9062 243.051 35.968 243.746 33.8806C244.162 32.6467 244.724 30.9434 245.379 28.9982H250.007L252 23.024H247.365Z" fill="white"/>
<path d="M218.968 22.4764C214.446 22.4764 208.358 26.6014 207.968 27.3108L214.46 7.8183L199.538 11.0756L187.593 46.91H201.438L205.782 33.8806C206.918 30.4597 207.946 29.5404 209.571 29.5387H209.581C211.159 29.5387 211.745 31.0091 210.711 34.0993C210.497 34.7482 209.768 36.9334 209.148 38.8004C208.532 40.6513 208.376 41.535 208.376 42.7673C208.376 45.6494 210.426 47.9999 214.548 47.9999C216.961 47.9999 220.444 46.8158 222.858 44.8581C222.353 43.8305 222.086 42.4721 222.086 40.9501C222.086 40.0967 222.41 38.4822 223.431 35.415C224.705 31.5923 224.94 30.0597 224.94 28.4559C224.94 24.354 223.129 22.4764 218.968 22.4764Z" fill="white"/>
<path d="M174.568 43.6492C171.062 43.6492 169.822 42.4028 170.465 38.7704H172.757C183.599 38.7704 190.501 35.1663 190.501 28.8863C190.501 25.1845 187.312 21.9342 178.546 21.9342C163.984 21.9342 157.381 29.4002 157.381 38.7704C157.381 44.2644 161.405 47.9965 169.865 47.9965C176.157 47.9965 181.393 46.4514 184.988 43.6386L184.179 41.416C180.289 43.1905 177.99 43.6492 174.568 43.6492ZM171.493 34.9707C174.106 27.2568 175.132 26.2778 177.1 26.2778C178.729 26.2778 179.195 28.1234 178.004 31.7098C177.209 34.0887 173.996 36.0552 171.146 36.0552C171.253 35.7068 171.367 35.3429 171.493 34.9707Z" fill="white"/>
<path d="M163.138 7.8183L147.938 11.0756L141.423 30.6268C139.892 35.2177 139.252 38.5266 139.252 40.3953C139.252 45.1694 142.2 47.9964 146.851 47.9964C149.15 47.9964 151.296 47.2924 154.452 44.7392C153.712 43.242 153.369 41.7076 153.369 39.3125C153.369 37.9061 153.754 35.968 154.452 33.8806L163.138 7.8183Z" fill="white"/>
<path d="M139.536 23.024H125.97L122.714 32.7961C120.031 40.8292 119.318 41.4782 117.284 41.4782C115.853 41.4782 115.252 39.9794 117.284 33.8806C118.082 31.4839 119.423 27.3269 120.858 23.024H107.3L104.768 30.6269C103.239 35.2178 102.626 38.5267 102.626 40.3954C102.626 45.1695 105.577 47.9965 110.227 47.9965C113.449 47.9965 117.339 45.8132 120.014 44.1809C121.08 46.5528 123.059 48.0001 126.193 48.0001C128.487 48.0001 132.408 47.2925 135.554 44.7392C134.949 43.5141 134.581 42.2321 134.581 40.1287C134.581 38.2565 135.007 36.731 135.592 34.9708C136.394 32.5686 138.117 27.3268 139.536 23.024Z" fill="white"/>
<path d="M104.872 23.024H100.237L103.771 12.4199L88.5742 15.6808L86.1225 23.024H79.6223C79.4723 23.3957 79.3995 23.7779 79.3995 24.1887C79.407 26.1818 80.751 27.8443 83.0212 28.5289C83.3347 28.6232 83.7345 28.7067 84.2055 28.7795C83.9693 29.4836 83.7615 30.1095 83.5943 30.6269C82.056 35.2178 81.4252 38.5267 81.4252 40.3954C81.4252 45.1695 84.366 47.9965 89.0228 47.9965C91.3215 47.9965 93.4605 47.2925 96.6217 44.7392C95.8785 43.2421 95.5335 41.7077 95.5335 39.3126C95.5335 37.9062 95.9265 35.968 96.6217 33.8806C97.0342 32.6467 97.596 30.9434 98.2508 28.9982H102.878L104.872 23.024Z" fill="white"/>
<path d="M71.6832 22.4764C67.1581 22.4764 61.0683 26.6014 60.6861 27.3108L67.1794 7.8183L52.2475 11.0756L40.3081 46.91H54.1465L58.4902 33.8806C59.6335 30.4597 60.6576 29.5404 62.2828 29.5387C63.8634 29.5369 64.4608 31.0091 63.4296 34.0993C63.211 34.7482 62.4802 36.9334 61.8596 38.8004C61.2373 40.6513 61.088 41.535 61.088 42.7673C61.088 45.6494 63.1416 47.9999 67.256 47.9999C69.6722 47.9999 73.1554 46.8158 75.5662 44.8581C75.06 43.8305 74.7912 42.4721 74.7912 40.9501C74.7912 40.0967 75.1223 38.4822 76.146 35.415C77.4135 31.5923 77.6572 30.0597 77.6572 28.4559C77.6572 24.354 75.8437 22.4764 71.6832 22.4764Z" fill="white"/>
<path d="M27.796 9.99105C13.6784 9.99105 0 18.5417 0 34.8284C0 42.8296 7.3308 48 15.1311 48C29.2468 48 42.9287 39.4477 42.9287 23.1645C42.9287 15.1598 35.5944 9.99105 27.796 9.99105ZM24.871 28.9982C20.7603 41.3288 19.5992 42.7193 16.8878 42.7193C14.6101 42.7193 13.9256 41.3288 18.04 28.9982C22.1525 16.6586 23.3261 15.2665 26.034 15.2665C28.3169 15.2665 28.9837 16.6586 24.871 28.9982Z" fill="white"/>
<path d="M27.7959 6.33518C32.4169 6.33518 36.8105 7.84815 40.178 10.5917C40.3309 10.7233 40.4803 10.8603 40.6368 10.9882C43.0673 9.76852 44.7867 7.66867 44.7867 3.89033C44.7867 2.59065 44.0061 0.794775 43.0264 0C42.2388 0.590325 41.4263 1.00103 40.1692 1.37978C39.4261 1.5984 38.4071 1.71758 37.3066 1.71758H20.5753C18.1519 1.71758 16.404 1.938 15.4261 2.2296C12.4764 3.11865 11.3972 4.66373 11.3972 6.60885C11.3972 7.89795 11.8346 8.98792 12.5334 9.67237C17.085 7.49782 22.3195 6.33518 27.7959 6.33518Z" fill="white"/>
</svg>
