<svg width="600" height="260" viewBox="0 0 600 260" fill="none" xmlns="http://www.w3.org/2000/svg">
<rect width="600" height="260" fill="#FFEBC4"/>
<path d="M42.744 29.022C46.044 29.022 48.904 29.506 51.324 30.474C53.788 31.398 56.054 32.828 58.122 34.764L53.502 40.11C51.874 38.79 50.246 37.822 48.618 37.206C46.99 36.59 45.252 36.282 43.404 36.282C41.38 36.282 39.752 36.722 38.52 37.602C37.332 38.438 36.738 39.648 36.738 41.232C36.738 42.332 36.98 43.234 37.464 43.938C37.992 44.642 38.894 45.302 40.17 45.918C41.446 46.534 43.36 47.238 45.912 48.03C50.444 49.482 53.832 51.286 56.076 53.442C58.32 55.554 59.442 58.59 59.442 62.55C59.442 65.366 58.738 67.852 57.33 70.008C55.922 72.12 53.876 73.792 51.192 75.024C48.508 76.212 45.362 76.806 41.754 76.806C38.146 76.806 34.934 76.234 32.118 75.09C29.302 73.946 26.882 72.384 24.858 70.404L29.808 64.926C31.568 66.422 33.394 67.566 35.286 68.358C37.178 69.106 39.246 69.48 41.49 69.48C43.866 69.48 45.758 68.93 47.166 67.83C48.618 66.73 49.344 65.19 49.344 63.21C49.344 61.978 49.08 60.966 48.552 60.174C48.068 59.338 47.21 58.59 45.978 57.93C44.746 57.27 42.964 56.588 40.632 55.884C35.66 54.344 32.096 52.496 29.94 50.34C27.828 48.184 26.772 45.368 26.772 41.892C26.772 39.34 27.454 37.096 28.818 35.16C30.182 33.18 32.074 31.662 34.494 30.606C36.914 29.55 39.664 29.022 42.744 29.022ZM79.0064 39.714C84.2424 39.714 88.3344 41.364 91.2824 44.664C94.2304 47.92 95.7044 52.452 95.7044 58.26C95.7044 61.956 95.0224 65.212 93.6584 68.028C92.3384 70.8 90.4024 72.956 87.8504 74.496C85.3424 76.036 82.3724 76.806 78.9404 76.806C73.7044 76.806 69.5904 75.178 66.5984 71.922C63.6504 68.622 62.1764 64.068 62.1764 58.26C62.1764 54.564 62.8364 51.33 64.1564 48.558C65.5204 45.742 67.4564 43.564 69.9644 42.024C72.5164 40.484 75.5304 39.714 79.0064 39.714ZM79.0064 46.71C76.6304 46.71 74.8484 47.656 73.6604 49.548C72.5164 51.396 71.9444 54.3 71.9444 58.26C71.9444 62.22 72.5164 65.146 73.6604 67.038C74.8484 68.886 76.6084 69.81 78.9404 69.81C81.2724 69.81 83.0104 68.886 84.1544 67.038C85.3424 65.146 85.9364 62.22 85.9364 58.26C85.9364 54.3 85.3644 51.396 84.2204 49.548C83.0764 47.656 81.3384 46.71 79.0064 46.71ZM82.7684 33.51C81.8444 33.51 81.0304 33.356 80.3264 33.048C79.6664 32.74 78.8744 32.3 77.9504 31.728C77.3784 31.288 76.8724 30.98 76.4324 30.804C76.0364 30.584 75.6184 30.474 75.1784 30.474C74.4744 30.474 73.8584 30.716 73.3304 31.2C72.8024 31.684 72.2524 32.432 71.6804 33.444L66.8624 31.068C67.7424 28.912 68.8864 27.152 70.2944 25.788C71.7024 24.424 73.2864 23.742 75.0464 23.742C76.0584 23.742 76.9164 23.918 77.6204 24.27C78.3244 24.578 79.1164 25.018 79.9964 25.59C80.5684 25.986 81.0524 26.294 81.4484 26.514C81.8444 26.69 82.2624 26.778 82.7024 26.778C83.4064 26.778 84.0004 26.558 84.4844 26.118C85.0124 25.634 85.5844 24.886 86.2004 23.874L91.0184 26.25C90.1384 28.494 88.9944 30.276 87.5864 31.596C86.1784 32.872 84.5724 33.51 82.7684 33.51ZM120.123 39.714C124.215 39.714 127.383 41.342 129.627 44.598C131.915 47.854 133.059 52.408 133.059 58.26C133.059 61.868 132.487 65.08 131.343 67.896C130.243 70.668 128.637 72.846 126.525 74.43C124.457 76.014 122.015 76.806 119.199 76.806C115.371 76.806 112.313 75.31 110.025 72.318L109.497 75.75H101.181V26.844L110.553 25.788V44.532C111.653 43.036 113.039 41.87 114.711 41.034C116.383 40.154 118.187 39.714 120.123 39.714ZM116.559 69.876C121.047 69.876 123.291 66.004 123.291 58.26C123.291 53.992 122.741 51 121.641 49.284C120.585 47.524 119.045 46.644 117.021 46.644C114.513 46.644 112.357 48.14 110.553 51.132V66.114C112.093 68.622 114.095 69.876 116.559 69.876ZM156.932 39.78C157.988 39.78 159.154 39.956 160.43 40.308L158.846 49.35C157.614 49.042 156.58 48.888 155.744 48.888C153.676 48.888 152.07 49.614 150.926 51.066C149.782 52.518 148.88 54.718 148.22 57.666V75.75H138.848V40.77H146.966L147.824 47.568C148.66 45.104 149.87 43.19 151.454 41.826C153.082 40.462 154.908 39.78 156.932 39.78ZM187.84 66.048C187.84 67.412 188.038 68.424 188.434 69.084C188.83 69.7 189.49 70.162 190.414 70.47L188.434 76.674C186.366 76.498 184.672 76.014 183.352 75.222C182.076 74.43 181.086 73.198 180.382 71.526C178.094 75.046 174.596 76.806 169.888 76.806C166.412 76.806 163.64 75.816 161.572 73.836C159.548 71.812 158.536 69.194 158.536 65.982C158.536 62.154 159.922 59.228 162.694 57.204C165.466 55.18 169.448 54.168 174.64 54.168H178.666V52.452C178.666 50.296 178.182 48.8 177.214 47.964C176.246 47.128 174.64 46.71 172.396 46.71C169.932 46.71 166.852 47.326 163.156 48.558L161.044 42.288C165.4 40.572 169.712 39.714 173.98 39.714C178.732 39.714 182.23 40.748 184.474 42.816C186.718 44.84 187.84 47.876 187.84 51.924V66.048ZM172.462 70.074C175.102 70.074 177.17 68.776 178.666 66.18V59.514H175.564C170.504 59.514 167.974 61.406 167.974 65.19C167.974 66.73 168.348 67.94 169.096 68.82C169.888 69.656 171.01 70.074 172.462 70.074ZM225.848 26.844V75.75H217.598L217.07 71.46C214.606 75.024 211.262 76.806 207.038 76.806C202.726 76.806 199.426 75.156 197.138 71.856C194.894 68.512 193.772 63.98 193.772 58.26C193.772 54.652 194.344 51.462 195.488 48.69C196.676 45.874 198.348 43.674 200.504 42.09C202.66 40.506 205.146 39.714 207.962 39.714C211.218 39.714 214.056 40.88 216.476 43.212V25.788L225.848 26.844ZM209.81 69.81C211.174 69.81 212.384 69.48 213.44 68.82C214.496 68.116 215.508 67.038 216.476 65.586V49.944C215.552 48.844 214.606 48.03 213.638 47.502C212.714 46.93 211.636 46.644 210.404 46.644C208.248 46.644 206.554 47.59 205.322 49.482C204.134 51.374 203.54 54.3 203.54 58.26C203.54 62.44 204.068 65.41 205.124 67.17C206.224 68.93 207.786 69.81 209.81 69.81ZM256.589 76.806C253.729 76.806 251.507 75.992 249.923 74.364C248.339 72.692 247.547 70.338 247.547 67.302V26.844L256.919 25.788V67.038C256.919 68.578 257.557 69.348 258.833 69.348C259.537 69.348 260.153 69.216 260.681 68.952L262.595 75.618C260.791 76.41 258.789 76.806 256.589 76.806ZM280.152 39.714C285.388 39.714 289.48 41.364 292.428 44.664C295.376 47.92 296.85 52.452 296.85 58.26C296.85 61.956 296.168 65.212 294.804 68.028C293.484 70.8 291.548 72.956 288.996 74.496C286.488 76.036 283.518 76.806 280.086 76.806C274.85 76.806 270.736 75.178 267.744 71.922C264.796 68.622 263.322 64.068 263.322 58.26C263.322 54.564 263.982 51.33 265.302 48.558C266.666 45.742 268.602 43.564 271.11 42.024C273.662 40.484 276.676 39.714 280.152 39.714ZM280.152 46.71C277.776 46.71 275.994 47.656 274.806 49.548C273.662 51.396 273.09 54.3 273.09 58.26C273.09 62.22 273.662 65.146 274.806 67.038C275.994 68.886 277.754 69.81 280.086 69.81C282.418 69.81 284.156 68.886 285.3 67.038C286.488 65.146 287.082 62.22 287.082 58.26C287.082 54.3 286.51 51.396 285.366 49.548C284.222 47.656 282.484 46.71 280.152 46.71ZM331.895 57.468C331.895 57.908 331.829 59.118 331.697 61.098H309.851C310.159 64.266 311.017 66.51 312.425 67.83C313.833 69.15 315.747 69.81 318.167 69.81C319.663 69.81 321.071 69.568 322.391 69.084C323.711 68.6 325.141 67.83 326.681 66.774L330.575 72.054C326.659 75.222 322.237 76.806 317.309 76.806C311.809 76.806 307.585 75.156 304.637 71.856C301.689 68.556 300.215 64.09 300.215 58.458C300.215 54.894 300.831 51.704 302.063 48.888C303.339 46.028 305.165 43.784 307.541 42.156C309.961 40.528 312.821 39.714 316.121 39.714C321.093 39.714 324.965 41.276 327.737 44.4C330.509 47.524 331.895 51.88 331.895 57.468ZM322.589 54.828C322.589 49.02 320.499 46.116 316.319 46.116C314.383 46.116 312.865 46.842 311.765 48.294C310.709 49.702 310.071 52.012 309.851 55.224H322.589V54.828ZM365.617 40.77L354.397 75.75H343.243L331.825 40.77H341.989L348.919 68.424L355.981 40.77H365.617ZM393.884 66.048C393.884 67.412 394.082 68.424 394.478 69.084C394.874 69.7 395.534 70.162 396.458 70.47L394.478 76.674C392.41 76.498 390.716 76.014 389.396 75.222C388.12 74.43 387.13 73.198 386.426 71.526C384.138 75.046 380.64 76.806 375.932 76.806C372.456 76.806 369.684 75.816 367.616 73.836C365.592 71.812 364.58 69.194 364.58 65.982C364.58 62.154 365.966 59.228 368.738 57.204C371.51 55.18 375.492 54.168 380.684 54.168H384.71V52.452C384.71 50.296 384.226 48.8 383.258 47.964C382.29 47.128 380.684 46.71 378.44 46.71C375.976 46.71 372.896 47.326 369.2 48.558L367.088 42.288C371.444 40.572 375.756 39.714 380.024 39.714C384.776 39.714 388.274 40.748 390.518 42.816C392.762 44.84 393.884 47.876 393.884 51.924V66.048ZM378.506 70.074C381.146 70.074 383.214 68.776 384.71 66.18V59.514H381.608C376.548 59.514 374.018 61.406 374.018 65.19C374.018 66.73 374.392 67.94 375.14 68.82C375.932 69.656 377.054 70.074 378.506 70.074ZM431.891 26.844V75.75H423.641L423.113 71.46C420.649 75.024 417.305 76.806 413.081 76.806C408.769 76.806 405.469 75.156 403.181 71.856C400.937 68.512 399.815 63.98 399.815 58.26C399.815 54.652 400.387 51.462 401.531 48.69C402.719 45.874 404.391 43.674 406.547 42.09C408.703 40.506 411.189 39.714 414.005 39.714C417.261 39.714 420.099 40.88 422.519 43.212V25.788L431.891 26.844ZM415.853 69.81C417.217 69.81 418.427 69.48 419.483 68.82C420.539 68.116 421.551 67.038 422.519 65.586V49.944C421.595 48.844 420.649 48.03 419.681 47.502C418.757 46.93 417.679 46.644 416.447 46.644C414.291 46.644 412.597 47.59 411.365 49.482C410.177 51.374 409.583 54.3 409.583 58.26C409.583 62.44 410.111 65.41 411.167 67.17C412.267 68.93 413.829 69.81 415.853 69.81ZM447.707 30.078L446.585 59.316H438.929L437.675 30.078H447.707ZM442.757 65.52C444.341 65.52 445.683 66.07 446.783 67.17C447.883 68.27 448.433 69.59 448.433 71.13C448.433 72.67 447.883 74.012 446.783 75.156C445.683 76.256 444.341 76.806 442.757 76.806C441.217 76.806 439.897 76.256 438.797 75.156C437.697 74.012 437.147 72.67 437.147 71.13C437.147 69.59 437.697 68.27 438.797 67.17C439.897 66.07 441.217 65.52 442.757 65.52Z" fill="#E3000F"/>
<path d="M42.5028 101.295C42.5028 103.314 42.1335 105.05 41.3949 106.503C40.6563 107.949 39.6437 109.063 38.3572 109.845C37.0769 110.621 35.6212 111.009 33.9901 111.009C32.3527 111.009 30.8909 110.621 29.6044 109.845C28.3241 109.063 27.3146 107.946 26.576 106.494C25.8374 105.041 25.468 103.308 25.468 101.295C25.468 99.2765 25.8374 97.5438 26.576 96.0973C27.3146 94.6446 28.3241 93.5305 29.6044 92.755C30.8909 91.9732 32.3527 91.5824 33.9901 91.5824C35.6212 91.5824 37.0769 91.9732 38.3572 92.755C39.6437 93.5305 40.6563 94.6446 41.3949 96.0973C42.1335 97.5438 42.5028 99.2765 42.5028 101.295ZM39.6776 101.295C39.6776 99.7566 39.4283 98.4609 38.9297 97.4084C38.4373 96.3497 37.7602 95.5495 36.8984 95.0078C36.0429 94.46 35.0734 94.1861 33.9901 94.1861C32.9006 94.1861 31.928 94.46 31.0724 95.0078C30.2169 95.5495 29.5398 96.3497 29.0412 97.4084C28.5488 98.4609 28.3026 99.7566 28.3026 101.295C28.3026 102.834 28.5488 104.133 29.0412 105.192C29.5398 106.244 30.2169 107.045 31.0724 107.592C31.928 108.134 32.9006 108.405 33.9901 108.405C35.0734 108.405 36.0429 108.134 36.8984 107.592C37.7602 107.045 38.4373 106.244 38.9297 105.192C39.4283 104.133 39.6776 102.834 39.6776 101.295ZM31.2109 89.9666L29.3459 89.902C29.3459 88.8864 29.6229 88.0739 30.1768 87.4645C30.7308 86.8551 31.411 86.5473 32.2173 86.5412C32.599 86.5412 32.9313 86.6058 33.2145 86.7351C33.4976 86.8582 33.7623 87.0028 34.0085 87.169C34.2547 87.3352 34.504 87.483 34.7564 87.6122C35.0088 87.7353 35.2888 87.7969 35.5966 87.7969C35.9474 87.7907 36.2337 87.6553 36.4553 87.3906C36.683 87.1198 36.7969 86.7843 36.7969 86.3842L38.625 86.5043C38.6188 87.5322 38.3388 88.3416 37.7848 88.9325C37.237 89.5173 36.5599 89.8097 35.7536 89.8097C35.3165 89.8097 34.9534 89.7481 34.6641 89.625C34.3748 89.4957 34.1193 89.3511 33.8977 89.191C33.6761 89.0249 33.4484 88.8802 33.2145 88.7571C32.9806 88.6278 32.7005 88.5632 32.3743 88.5632C32.0357 88.5632 31.7557 88.6955 31.5341 88.9602C31.3187 89.2249 31.2109 89.5604 31.2109 89.9666ZM47.9489 102.33V110.75H45.1882V91.8409H47.912V98.8764H48.0874C48.4198 98.1132 48.9276 97.5069 49.6108 97.0575C50.2941 96.6082 51.1866 96.3835 52.2884 96.3835C53.2609 96.3835 54.1104 96.5836 54.8367 96.9837C55.5692 97.3838 56.1355 97.9808 56.5356 98.7749C56.9418 99.5627 57.1449 100.548 57.1449 101.729V110.75H54.3843V102.062C54.3843 101.022 54.1165 100.215 53.581 99.6428C53.0455 99.0642 52.3007 98.7749 51.3466 98.7749C50.6942 98.7749 50.1094 98.9134 49.5924 99.1903C49.0815 99.4673 48.6783 99.8736 48.3829 100.409C48.0936 100.938 47.9489 101.579 47.9489 102.33ZM66.7989 96.5682V98.7841H59.0525V96.5682H66.7989ZM61.1299 93.1705H63.8905V106.586C63.8905 107.121 63.9705 107.525 64.1306 107.795C64.2906 108.06 64.4968 108.242 64.7492 108.34C65.0077 108.433 65.2878 108.479 65.5894 108.479C65.811 108.479 66.0049 108.463 66.1711 108.433C66.3373 108.402 66.4665 108.377 66.5588 108.359L67.0574 110.639C66.8974 110.701 66.6696 110.762 66.3742 110.824C66.0787 110.892 65.7094 110.929 65.2662 110.935C64.5399 110.947 63.8628 110.818 63.235 110.547C62.6071 110.276 62.0993 109.857 61.7115 109.291C61.3238 108.725 61.1299 108.014 61.1299 107.158V93.1705ZM78.1864 104.869V96.5682H80.9563V110.75H78.2418V108.294H78.094C77.7678 109.051 77.2446 109.682 76.5244 110.187C75.8104 110.685 74.921 110.935 73.8561 110.935C72.9451 110.935 72.1388 110.735 71.4371 110.335C70.7415 109.928 70.1937 109.328 69.7936 108.534C69.3997 107.74 69.2027 106.758 69.2027 105.589V96.5682H71.9634V105.256C71.9634 106.223 72.2311 106.992 72.7666 107.565C73.3021 108.137 73.9977 108.423 74.8533 108.423C75.3703 108.423 75.8843 108.294 76.3952 108.036C76.9122 107.777 77.34 107.386 77.6786 106.863C78.0233 106.34 78.1925 105.675 78.1864 104.869ZM86.7762 91.8409V110.75H84.0156V91.8409H86.7762ZM95.9524 111.036C94.5552 111.036 93.3518 110.738 92.3423 110.141C91.339 109.537 90.5635 108.691 90.0156 107.602C89.474 106.506 89.2031 105.223 89.2031 103.751C89.2031 102.299 89.474 101.018 90.0156 99.9105C90.5635 98.8026 91.3267 97.9377 92.3054 97.316C93.2903 96.6944 94.4413 96.3835 95.7585 96.3835C96.5587 96.3835 97.3343 96.5159 98.0852 96.7805C98.8362 97.0452 99.5102 97.4607 100.107 98.027C100.704 98.5933 101.175 99.3288 101.52 100.234C101.865 101.132 102.037 102.225 102.037 103.511V104.49H90.7635V102.422H99.3317C99.3317 101.696 99.184 101.052 98.8885 100.492C98.593 99.9259 98.1776 99.4796 97.6421 99.1534C97.1127 98.8272 96.491 98.6641 95.777 98.6641C95.0014 98.6641 94.3243 98.8549 93.7457 99.2365C93.1733 99.612 92.7301 100.104 92.4162 100.714C92.1084 101.317 91.9545 101.973 91.9545 102.68V104.296C91.9545 105.244 92.1207 106.05 92.4531 106.715C92.7917 107.38 93.2626 107.888 93.8658 108.239C94.469 108.583 95.1738 108.756 95.9801 108.756C96.5033 108.756 96.9804 108.682 97.4112 108.534C97.8421 108.38 98.2145 108.152 98.5284 107.851C98.8423 107.549 99.0824 107.177 99.2486 106.734L101.862 107.205C101.652 107.974 101.277 108.648 100.735 109.227C100.2 109.799 99.5256 110.245 98.7131 110.565C97.9067 110.879 96.9865 111.036 95.9524 111.036ZM107.211 102.33V110.75H104.45V91.8409H107.174V98.8764H107.349C107.682 98.1132 108.189 97.5069 108.873 97.0575C109.556 96.6082 110.448 96.3835 111.55 96.3835C112.523 96.3835 113.372 96.5836 114.098 96.9837C114.831 97.3838 115.397 97.9808 115.797 98.7749C116.204 99.5627 116.407 100.548 116.407 101.729V110.75H113.646V102.062C113.646 101.022 113.378 100.215 112.843 99.6428C112.307 99.0642 111.562 98.7749 110.608 98.7749C109.956 98.7749 109.371 98.9134 108.854 99.1903C108.343 99.4673 107.94 99.8736 107.645 100.409C107.355 100.938 107.211 101.579 107.211 102.33ZM126.061 96.5682V98.7841H118.314V96.5682H126.061ZM120.392 93.1705H123.152V106.586C123.152 107.121 123.232 107.525 123.392 107.795C123.552 108.06 123.759 108.242 124.011 108.34C124.269 108.433 124.549 108.479 124.851 108.479C125.073 108.479 125.267 108.463 125.433 108.433C125.599 108.402 125.728 108.377 125.821 108.359L126.319 110.639C126.159 110.701 125.931 110.762 125.636 110.824C125.34 110.892 124.971 110.929 124.528 110.935C123.802 110.947 123.125 110.818 122.497 110.547C121.869 110.276 121.361 109.857 120.973 109.291C120.585 108.725 120.392 108.014 120.392 107.158V93.1705ZM134.917 110.75V91.8409H137.77V100.871H138.001L145.932 91.8409H149.523L141.897 100.354L149.551 110.75H146.116L140.004 102.302L137.77 104.869V110.75H134.917ZM152.2 110.75V96.5682H154.96V110.75H152.2ZM153.594 94.38C153.114 94.38 152.701 94.2199 152.357 93.8999C152.018 93.5736 151.849 93.1858 151.849 92.7365C151.849 92.281 152.018 91.8932 152.357 91.5732C152.701 91.2469 153.114 91.0838 153.594 91.0838C154.074 91.0838 154.483 91.2469 154.822 91.5732C155.166 91.8932 155.339 92.281 155.339 92.7365C155.339 93.1858 155.166 93.5736 154.822 93.8999C154.483 94.2199 154.074 94.38 153.594 94.38ZM158.024 110.75V96.5682H160.693V98.821H160.84C161.099 98.0578 161.554 97.4576 162.207 97.0206C162.865 96.5774 163.61 96.3558 164.441 96.3558C164.613 96.3558 164.817 96.362 165.05 96.3743C165.291 96.3866 165.478 96.402 165.614 96.4205V99.0611C165.503 99.0303 165.306 98.9964 165.023 98.9595C164.74 98.9164 164.456 98.8949 164.173 98.8949C163.521 98.8949 162.939 99.0334 162.428 99.3104C161.924 99.5812 161.523 99.9598 161.228 100.446C160.933 100.926 160.785 101.474 160.785 102.089V110.75H158.024ZM167.353 96.5682H170.113V111.673C170.113 112.621 169.941 113.421 169.596 114.074C169.258 114.726 168.753 115.222 168.082 115.56C167.417 115.899 166.596 116.068 165.617 116.068C165.518 116.068 165.426 116.068 165.34 116.068C165.248 116.068 165.152 116.065 165.054 116.059V113.686C165.14 113.686 165.217 113.686 165.285 113.686C165.346 113.686 165.417 113.686 165.497 113.686C166.149 113.686 166.62 113.511 166.91 113.16C167.205 112.815 167.353 112.313 167.353 111.655V96.5682ZM168.719 94.38C168.239 94.38 167.827 94.2199 167.482 93.8999C167.143 93.5736 166.974 93.1858 166.974 92.7365C166.974 92.281 167.143 91.8932 167.482 91.5732C167.827 91.2469 168.239 91.0838 168.719 91.0838C169.199 91.0838 169.609 91.2469 169.947 91.5732C170.292 91.8932 170.464 92.281 170.464 92.7365C170.464 93.1858 170.292 93.5736 169.947 93.8999C169.609 94.2199 169.199 94.38 168.719 94.38ZM177.304 111.064C176.406 111.064 175.593 110.898 174.867 110.565C174.141 110.227 173.565 109.737 173.14 109.097C172.722 108.457 172.513 107.672 172.513 106.743C172.513 105.943 172.666 105.284 172.974 104.767C173.282 104.25 173.697 103.841 174.221 103.539C174.744 103.237 175.329 103.01 175.975 102.856C176.621 102.702 177.28 102.585 177.951 102.505C178.8 102.406 179.49 102.326 180.019 102.265C180.548 102.197 180.933 102.089 181.173 101.942C181.413 101.794 181.533 101.554 181.533 101.222V101.157C181.533 100.351 181.305 99.7259 180.85 99.2827C180.401 98.8395 179.73 98.6179 178.837 98.6179C177.908 98.6179 177.175 98.8241 176.64 99.2365C176.11 99.6428 175.744 100.095 175.541 100.594L172.947 100.003C173.254 99.1411 173.704 98.4455 174.295 97.9162C174.892 97.3807 175.578 96.9929 176.353 96.7528C177.129 96.5066 177.945 96.3835 178.8 96.3835C179.366 96.3835 179.967 96.4512 180.601 96.5866C181.241 96.7159 181.838 96.956 182.392 97.3068C182.952 97.6577 183.411 98.1593 183.768 98.8118C184.125 99.4581 184.303 100.298 184.303 101.332V110.75H181.607V108.811H181.496C181.318 109.168 181.05 109.519 180.693 109.864C180.336 110.208 179.877 110.495 179.317 110.722C178.757 110.95 178.086 111.064 177.304 111.064ZM177.905 108.848C178.668 108.848 179.32 108.697 179.862 108.396C180.41 108.094 180.825 107.7 181.108 107.214C181.398 106.721 181.542 106.195 181.542 105.635V103.807C181.444 103.905 181.253 103.998 180.97 104.084C180.693 104.164 180.376 104.235 180.019 104.296C179.662 104.352 179.314 104.404 178.976 104.453C178.637 104.496 178.354 104.533 178.126 104.564C177.591 104.632 177.101 104.746 176.658 104.906C176.221 105.066 175.87 105.296 175.606 105.598C175.347 105.893 175.218 106.287 175.218 106.78C175.218 107.463 175.47 107.98 175.975 108.331C176.48 108.676 177.123 108.848 177.905 108.848ZM197.957 100.031L195.455 100.474C195.35 100.154 195.184 99.849 194.956 99.5597C194.735 99.2704 194.433 99.0334 194.052 98.8487C193.67 98.6641 193.193 98.5717 192.621 98.5717C191.839 98.5717 191.186 98.7472 190.663 99.098C190.14 99.4427 189.878 99.889 189.878 100.437C189.878 100.911 190.054 101.292 190.405 101.582C190.755 101.871 191.322 102.108 192.103 102.293L194.356 102.81C195.661 103.111 196.634 103.576 197.274 104.204C197.914 104.832 198.234 105.647 198.234 106.651C198.234 107.5 197.988 108.257 197.496 108.922C197.009 109.58 196.329 110.098 195.455 110.473C194.587 110.848 193.581 111.036 192.436 111.036C190.848 111.036 189.552 110.698 188.549 110.021C187.545 109.337 186.93 108.368 186.702 107.112L189.371 106.706C189.537 107.402 189.878 107.928 190.395 108.285C190.912 108.636 191.586 108.811 192.417 108.811C193.322 108.811 194.045 108.623 194.587 108.248C195.129 107.866 195.4 107.402 195.4 106.854C195.4 106.411 195.233 106.038 194.901 105.737C194.575 105.435 194.073 105.207 193.396 105.053L190.996 104.527C189.672 104.225 188.693 103.745 188.059 103.087C187.432 102.428 187.118 101.594 187.118 100.585C187.118 99.7474 187.352 99.0149 187.819 98.3871C188.287 97.7592 188.934 97.2699 189.758 96.919C190.583 96.562 191.528 96.3835 192.593 96.3835C194.126 96.3835 195.332 96.7159 196.212 97.3807C197.092 98.0393 197.674 98.9226 197.957 100.031ZM207.24 96.5682V98.7841H199.493V96.5682H207.24ZM201.571 93.1705H204.331V106.586C204.331 107.121 204.411 107.525 204.571 107.795C204.731 108.06 204.937 108.242 205.19 108.34C205.448 108.433 205.728 108.479 206.03 108.479C206.252 108.479 206.446 108.463 206.612 108.433C206.778 108.402 206.907 108.377 206.999 108.359L207.498 110.639C207.338 110.701 207.11 110.762 206.815 110.824C206.519 110.892 206.15 110.929 205.707 110.935C204.981 110.947 204.303 110.818 203.676 110.547C203.048 110.276 202.54 109.857 202.152 109.291C201.764 108.725 201.571 108.014 201.571 107.158V93.1705ZM218.627 104.869V96.5682H221.397V110.75H218.682V108.294H218.535C218.208 109.051 217.685 109.682 216.965 110.187C216.251 110.685 215.362 110.935 214.297 110.935C213.386 110.935 212.579 110.735 211.878 110.335C211.182 109.928 210.634 109.328 210.234 108.534C209.84 107.74 209.643 106.758 209.643 105.589V96.5682H212.404V105.256C212.404 106.223 212.672 106.992 213.207 107.565C213.743 108.137 214.438 108.423 215.294 108.423C215.811 108.423 216.325 108.294 216.836 108.036C217.353 107.777 217.781 107.386 218.119 106.863C218.464 106.34 218.633 105.675 218.627 104.869ZM235.083 100.031L232.581 100.474C232.477 100.154 232.31 99.849 232.083 99.5597C231.861 99.2704 231.559 99.0334 231.178 98.8487C230.796 98.6641 230.319 98.5717 229.747 98.5717C228.965 98.5717 228.313 98.7472 227.789 99.098C227.266 99.4427 227.005 99.889 227.005 100.437C227.005 100.911 227.18 101.292 227.531 101.582C227.882 101.871 228.448 102.108 229.23 102.293L231.483 102.81C232.787 103.111 233.76 103.576 234.4 104.204C235.04 104.832 235.36 105.647 235.36 106.651C235.36 107.5 235.114 108.257 234.622 108.922C234.135 109.58 233.455 110.098 232.581 110.473C231.713 110.848 230.707 111.036 229.562 111.036C227.974 111.036 226.678 110.698 225.675 110.021C224.672 109.337 224.056 108.368 223.828 107.112L226.497 106.706C226.663 107.402 227.005 107.928 227.522 108.285C228.039 108.636 228.713 108.811 229.544 108.811C230.448 108.811 231.172 108.623 231.713 108.248C232.255 107.866 232.526 107.402 232.526 106.854C232.526 106.411 232.36 106.038 232.027 105.737C231.701 105.435 231.199 105.207 230.522 105.053L228.122 104.527C226.798 104.225 225.82 103.745 225.186 103.087C224.558 102.428 224.244 101.594 224.244 100.585C224.244 99.7474 224.478 99.0149 224.946 98.3871C225.413 97.7592 226.06 97.2699 226.884 96.919C227.709 96.562 228.654 96.3835 229.719 96.3835C231.252 96.3835 232.458 96.7159 233.338 97.3807C234.219 98.0393 234.8 98.9226 235.083 100.031ZM243.858 111.036C242.461 111.036 241.257 110.738 240.248 110.141C239.245 109.537 238.469 108.691 237.921 107.602C237.379 106.506 237.109 105.223 237.109 103.751C237.109 102.299 237.379 101.018 237.921 99.9105C238.469 98.8026 239.232 97.9377 240.211 97.316C241.196 96.6944 242.347 96.3835 243.664 96.3835C244.464 96.3835 245.24 96.5159 245.991 96.7805C246.742 97.0452 247.416 97.4607 248.013 98.027C248.61 98.5933 249.081 99.3288 249.425 100.234C249.77 101.132 249.942 102.225 249.942 103.511V104.49H238.669V102.422H247.237C247.237 101.696 247.089 101.052 246.794 100.492C246.499 99.9259 246.083 99.4796 245.548 99.1534C245.018 98.8272 244.396 98.6641 243.682 98.6641C242.907 98.6641 242.23 98.8549 241.651 99.2365C241.079 99.612 240.636 100.104 240.322 100.714C240.014 101.317 239.86 101.973 239.86 102.68V104.296C239.86 105.244 240.026 106.05 240.359 106.715C240.697 107.38 241.168 107.888 241.771 108.239C242.374 108.583 243.079 108.756 243.886 108.756C244.409 108.756 244.886 108.682 245.317 108.534C245.748 108.38 246.12 108.152 246.434 107.851C246.748 107.549 246.988 107.177 247.154 106.734L249.767 107.205C249.558 107.974 249.182 108.648 248.641 109.227C248.105 109.799 247.431 110.245 246.619 110.565C245.812 110.879 244.892 111.036 243.858 111.036ZM263.895 111.027C262.75 111.027 261.729 110.735 260.83 110.15C259.937 109.559 259.236 108.719 258.725 107.629C258.22 106.534 257.968 105.219 257.968 103.687C257.968 102.154 258.223 100.843 258.734 99.7536C259.251 98.6641 259.959 97.83 260.858 97.2514C261.756 96.6728 262.775 96.3835 263.914 96.3835C264.794 96.3835 265.502 96.5312 266.037 96.8267C266.579 97.116 266.998 97.4545 267.293 97.8423C267.595 98.2301 267.828 98.5717 267.995 98.8672H268.161V91.8409H270.922V110.75H268.226V108.543H267.995C267.828 108.845 267.588 109.19 267.275 109.577C266.967 109.965 266.542 110.304 266 110.593C265.459 110.882 264.757 111.027 263.895 111.027ZM264.505 108.673C265.299 108.673 265.97 108.463 266.517 108.045C267.071 107.62 267.49 107.032 267.773 106.281C268.062 105.53 268.207 104.656 268.207 103.659C268.207 102.674 268.065 101.812 267.782 101.074C267.499 100.335 267.084 99.7597 266.536 99.3473C265.988 98.9349 265.311 98.7287 264.505 98.7287C263.674 98.7287 262.981 98.9441 262.427 99.375C261.873 99.8059 261.455 100.394 261.172 101.138C260.895 101.883 260.756 102.723 260.756 103.659C260.756 104.607 260.898 105.46 261.181 106.217C261.464 106.974 261.882 107.574 262.436 108.017C262.997 108.454 263.686 108.673 264.505 108.673ZM274.212 110.75V96.5682H276.972V110.75H274.212ZM275.606 94.38C275.126 94.38 274.713 94.2199 274.369 93.8999C274.03 93.5736 273.861 93.1858 273.861 92.7365C273.861 92.281 274.03 91.8932 274.369 91.5732C274.713 91.2469 275.126 91.0838 275.606 91.0838C276.086 91.0838 276.495 91.2469 276.834 91.5732C277.179 91.8932 277.351 92.281 277.351 92.7365C277.351 93.1858 277.179 93.5736 276.834 93.8999C276.495 94.2199 276.086 94.38 275.606 94.38ZM285.982 116.364C284.856 116.364 283.886 116.216 283.074 115.92C282.268 115.625 281.609 115.234 281.098 114.748C280.587 114.262 280.206 113.729 279.953 113.151L282.326 112.172C282.492 112.443 282.714 112.729 282.991 113.031C283.274 113.338 283.656 113.6 284.136 113.815C284.622 114.031 285.247 114.138 286.01 114.138C287.056 114.138 287.921 113.883 288.605 113.372C289.288 112.867 289.629 112.061 289.629 110.953V108.165H289.454C289.288 108.466 289.048 108.802 288.734 109.171C288.426 109.54 288.001 109.861 287.46 110.131C286.918 110.402 286.213 110.538 285.345 110.538C284.225 110.538 283.216 110.276 282.317 109.753C281.424 109.223 280.716 108.445 280.193 107.417C279.676 106.383 279.418 105.112 279.418 103.604C279.418 102.096 279.673 100.803 280.184 99.7259C280.701 98.6487 281.409 97.8239 282.308 97.2514C283.206 96.6728 284.225 96.3835 285.364 96.3835C286.244 96.3835 286.955 96.5312 287.497 96.8267C288.038 97.116 288.46 97.4545 288.761 97.8423C289.069 98.2301 289.306 98.5717 289.472 98.8672H289.676V96.5682H292.381V111.064C292.381 112.283 292.098 113.283 291.531 114.065C290.965 114.846 290.199 115.425 289.232 115.8C288.272 116.176 287.189 116.364 285.982 116.364ZM285.955 108.248C286.749 108.248 287.42 108.063 287.967 107.694C288.521 107.318 288.94 106.783 289.223 106.087C289.512 105.386 289.657 104.545 289.657 103.567C289.657 102.613 289.515 101.772 289.232 101.046C288.949 100.32 288.534 99.7536 287.986 99.3473C287.438 98.9349 286.761 98.7287 285.955 98.7287C285.124 98.7287 284.431 98.9441 283.877 99.375C283.323 99.7997 282.905 100.378 282.622 101.111C282.345 101.843 282.206 102.662 282.206 103.567C282.206 104.496 282.348 105.312 282.631 106.013C282.914 106.715 283.332 107.263 283.886 107.657C284.447 108.051 285.136 108.248 285.955 108.248ZM295.433 110.75V96.5682H298.194V110.75H295.433ZM296.827 94.38C296.347 94.38 295.935 94.2199 295.59 93.8999C295.252 93.5736 295.082 93.1858 295.082 92.7365C295.082 92.281 295.252 91.8932 295.59 91.5732C295.935 91.2469 296.347 91.0838 296.827 91.0838C297.307 91.0838 297.717 91.2469 298.055 91.5732C298.4 91.8932 298.572 92.281 298.572 92.7365C298.572 93.1858 298.4 93.5736 298.055 93.8999C297.717 94.2199 297.307 94.38 296.827 94.38ZM301.258 116.068V96.5682H303.954V98.8672H304.185C304.345 98.5717 304.576 98.2301 304.877 97.8423C305.179 97.4545 305.597 97.116 306.133 96.8267C306.668 96.5312 307.376 96.3835 308.256 96.3835C309.401 96.3835 310.423 96.6728 311.322 97.2514C312.22 97.83 312.925 98.6641 313.436 99.7536C313.953 100.843 314.212 102.154 314.212 103.687C314.212 105.219 313.956 106.534 313.445 107.629C312.934 108.719 312.233 109.559 311.34 110.15C310.448 110.735 309.429 111.027 308.284 111.027C307.422 111.027 306.718 110.882 306.17 110.593C305.628 110.304 305.203 109.965 304.896 109.577C304.588 109.19 304.351 108.845 304.185 108.543H304.018V116.068H301.258ZM303.963 103.659C303.963 104.656 304.108 105.53 304.397 106.281C304.686 107.032 305.105 107.62 305.653 108.045C306.201 108.463 306.871 108.673 307.665 108.673C308.49 108.673 309.18 108.454 309.734 108.017C310.288 107.574 310.706 106.974 310.989 106.217C311.279 105.46 311.423 104.607 311.423 103.659C311.423 102.723 311.282 101.883 310.999 101.138C310.722 100.394 310.303 99.8059 309.743 99.375C309.189 98.9441 308.496 98.7287 307.665 98.7287C306.865 98.7287 306.188 98.9349 305.634 99.3473C305.086 99.7597 304.671 100.335 304.388 101.074C304.105 101.812 303.963 102.674 303.963 103.659ZM320.782 111.064C319.883 111.064 319.071 110.898 318.344 110.565C317.618 110.227 317.042 109.737 316.618 109.097C316.199 108.457 315.99 107.672 315.99 106.743C315.99 105.943 316.144 105.284 316.452 104.767C316.759 104.25 317.175 103.841 317.698 103.539C318.221 103.237 318.806 103.01 319.452 102.856C320.099 102.702 320.757 102.585 321.428 102.505C322.278 102.406 322.967 102.326 323.496 102.265C324.026 102.197 324.41 102.089 324.65 101.942C324.89 101.794 325.011 101.554 325.011 101.222V101.157C325.011 100.351 324.783 99.7259 324.327 99.2827C323.878 98.8395 323.207 98.6179 322.314 98.6179C321.385 98.6179 320.653 98.8241 320.117 99.2365C319.588 99.6428 319.221 100.095 319.018 100.594L316.424 100.003C316.732 99.1411 317.181 98.4455 317.772 97.9162C318.369 97.3807 319.055 96.9929 319.831 96.7528C320.606 96.5066 321.422 96.3835 322.278 96.3835C322.844 96.3835 323.444 96.4512 324.078 96.5866C324.718 96.7159 325.315 96.956 325.869 97.3068C326.429 97.6577 326.888 98.1593 327.245 98.8118C327.602 99.4581 327.78 100.298 327.78 101.332V110.75H325.084V108.811H324.974C324.795 109.168 324.527 109.519 324.17 109.864C323.813 110.208 323.355 110.495 322.795 110.722C322.234 110.95 321.564 111.064 320.782 111.064ZM321.382 108.848C322.145 108.848 322.798 108.697 323.339 108.396C323.887 108.094 324.303 107.7 324.586 107.214C324.875 106.721 325.02 106.195 325.02 105.635V103.807C324.921 103.905 324.73 103.998 324.447 104.084C324.17 104.164 323.853 104.235 323.496 104.296C323.139 104.352 322.792 104.404 322.453 104.453C322.114 104.496 321.831 104.533 321.604 104.564C321.068 104.632 320.579 104.746 320.136 104.906C319.698 105.066 319.348 105.296 319.083 105.598C318.824 105.893 318.695 106.287 318.695 106.78C318.695 107.463 318.948 107.98 319.452 108.331C319.957 108.676 320.6 108.848 321.382 108.848ZM333.346 105.94L333.328 102.57H333.808L339.459 96.5682H342.764L336.319 103.401H335.886L333.346 105.94ZM330.807 110.75V91.8409H333.568V110.75H330.807ZM339.763 110.75L334.685 104.01L336.587 102.08L343.152 110.75H339.763ZM350.158 111.036C348.761 111.036 347.558 110.738 346.548 110.141C345.545 109.537 344.769 108.691 344.221 107.602C343.68 106.506 343.409 105.223 343.409 103.751C343.409 102.299 343.68 101.018 344.221 99.9105C344.769 98.8026 345.533 97.9377 346.511 97.316C347.496 96.6944 348.647 96.3835 349.964 96.3835C350.765 96.3835 351.54 96.5159 352.291 96.7805C353.042 97.0452 353.716 97.4607 354.313 98.027C354.91 98.5933 355.381 99.3288 355.726 100.234C356.07 101.132 356.243 102.225 356.243 103.511V104.49H344.969V102.422H353.538C353.538 101.696 353.39 101.052 353.094 100.492C352.799 99.9259 352.383 99.4796 351.848 99.1534C351.319 98.8272 350.697 98.6641 349.983 98.6641C349.207 98.6641 348.53 98.8549 347.952 99.2365C347.379 99.612 346.936 100.104 346.622 100.714C346.314 101.317 346.16 101.973 346.16 102.68V104.296C346.16 105.244 346.327 106.05 346.659 106.715C346.998 107.38 347.468 107.888 348.072 108.239C348.675 108.583 349.38 108.756 350.186 108.756C350.709 108.756 351.186 108.682 351.617 108.534C352.048 108.38 352.42 108.152 352.734 107.851C353.048 107.549 353.288 107.177 353.454 106.734L356.067 107.205C355.858 107.974 355.483 108.648 354.941 109.227C354.405 109.799 353.731 110.245 352.919 110.565C352.113 110.879 351.192 111.036 350.158 111.036ZM365.276 96.5682V98.7841H357.529V96.5682H365.276ZM359.607 93.1705H362.367V106.586C362.367 107.121 362.448 107.525 362.608 107.795C362.768 108.06 362.974 108.242 363.226 108.34C363.485 108.433 363.765 108.479 364.066 108.479C364.288 108.479 364.482 108.463 364.648 108.433C364.814 108.402 364.943 108.377 365.036 108.359L365.534 110.639C365.374 110.701 365.147 110.762 364.851 110.824C364.556 110.892 364.186 110.929 363.743 110.935C363.017 110.947 362.34 110.818 361.712 110.547C361.084 110.276 360.576 109.857 360.189 109.291C359.801 108.725 359.607 108.014 359.607 107.158V93.1705ZM367.68 110.75V96.5682H370.44V110.75H367.68ZM369.074 94.38C368.594 94.38 368.181 94.2199 367.837 93.8999C367.498 93.5736 367.329 93.1858 367.329 92.7365C367.329 92.281 367.498 91.8932 367.837 91.5732C368.181 91.2469 368.594 91.0838 369.074 91.0838C369.554 91.0838 369.963 91.2469 370.302 91.5732C370.647 91.8932 370.819 92.281 370.819 92.7365C370.819 93.1858 370.647 93.5736 370.302 93.8999C369.963 94.2199 369.554 94.38 369.074 94.38ZM382.496 91.8409V110.75H379.735V91.8409H382.496ZM385.56 110.75V96.5682H388.32V110.75H385.56ZM386.954 94.38C386.474 94.38 386.061 94.2199 385.717 93.8999C385.378 93.5736 385.209 93.1858 385.209 92.7365C385.209 92.281 385.378 91.8932 385.717 91.5732C386.061 91.2469 386.474 91.0838 386.954 91.0838C387.434 91.0838 387.843 91.2469 388.182 91.5732C388.527 91.8932 388.699 92.281 388.699 92.7365C388.699 93.1858 388.527 93.5736 388.182 93.8999C387.843 94.2199 387.434 94.38 386.954 94.38ZM397.33 116.364C396.204 116.364 395.235 116.216 394.422 115.92C393.616 115.625 392.957 115.234 392.446 114.748C391.935 114.262 391.554 113.729 391.301 113.151L393.674 112.172C393.84 112.443 394.062 112.729 394.339 113.031C394.622 113.338 395.004 113.6 395.484 113.815C395.97 114.031 396.595 114.138 397.358 114.138C398.404 114.138 399.269 113.883 399.953 113.372C400.636 112.867 400.977 112.061 400.977 110.953V108.165H400.802C400.636 108.466 400.396 108.802 400.082 109.171C399.774 109.54 399.349 109.861 398.808 110.131C398.266 110.402 397.561 110.538 396.693 110.538C395.573 110.538 394.564 110.276 393.665 109.753C392.772 109.223 392.065 108.445 391.541 107.417C391.024 106.383 390.766 105.112 390.766 103.604C390.766 102.096 391.021 100.803 391.532 99.7259C392.049 98.6487 392.757 97.8239 393.656 97.2514C394.554 96.6728 395.573 96.3835 396.712 96.3835C397.592 96.3835 398.303 96.5312 398.845 96.8267C399.386 97.116 399.808 97.4545 400.11 97.8423C400.417 98.2301 400.654 98.5717 400.82 98.8672H401.024V96.5682H403.729V111.064C403.729 112.283 403.446 113.283 402.879 114.065C402.313 114.846 401.547 115.425 400.58 115.8C399.62 116.176 398.537 116.364 397.33 116.364ZM397.303 108.248C398.097 108.248 398.768 108.063 399.315 107.694C399.869 107.318 400.288 106.783 400.571 106.087C400.86 105.386 401.005 104.545 401.005 103.567C401.005 102.613 400.864 101.772 400.58 101.046C400.297 100.32 399.882 99.7536 399.334 99.3473C398.786 98.9349 398.109 98.7287 397.303 98.7287C396.472 98.7287 395.779 98.9441 395.225 99.375C394.671 99.7997 394.253 100.378 393.97 101.111C393.693 101.843 393.554 102.662 393.554 103.567C393.554 104.496 393.696 105.312 393.979 106.013C394.262 106.715 394.681 107.263 395.235 107.657C395.795 108.051 396.484 108.248 397.303 108.248ZM406.781 110.75V96.5682H409.542V110.75H406.781ZM408.175 94.38C407.695 94.38 407.283 94.2199 406.938 93.8999C406.6 93.5736 406.43 93.1858 406.43 92.7365C406.43 92.281 406.6 91.8932 406.938 91.5732C407.283 91.2469 407.695 91.0838 408.175 91.0838C408.656 91.0838 409.065 91.2469 409.403 91.5732C409.748 91.8932 409.92 92.281 409.92 92.7365C409.92 93.1858 409.748 93.5736 409.403 93.8999C409.065 94.2199 408.656 94.38 408.175 94.38ZM412.606 116.068V96.5682H415.302V98.8672H415.533C415.693 98.5717 415.924 98.2301 416.225 97.8423C416.527 97.4545 416.945 97.116 417.481 96.8267C418.016 96.5312 418.724 96.3835 419.604 96.3835C420.749 96.3835 421.771 96.6728 422.67 97.2514C423.568 97.83 424.273 98.6641 424.784 99.7536C425.301 100.843 425.56 102.154 425.56 103.687C425.56 105.219 425.304 106.534 424.793 107.629C424.282 108.719 423.581 109.559 422.688 110.15C421.796 110.735 420.777 111.027 419.632 111.027C418.77 111.027 418.066 110.882 417.518 110.593C416.976 110.304 416.551 109.965 416.244 109.577C415.936 109.19 415.699 108.845 415.533 108.543H415.367V116.068H412.606ZM415.311 103.659C415.311 104.656 415.456 105.53 415.745 106.281C416.034 107.032 416.453 107.62 417.001 108.045C417.549 108.463 418.219 108.673 419.014 108.673C419.838 108.673 420.528 108.454 421.082 108.017C421.636 107.574 422.054 106.974 422.337 106.217C422.627 105.46 422.771 104.607 422.771 103.659C422.771 102.723 422.63 101.883 422.347 101.138C422.07 100.394 421.651 99.8059 421.091 99.375C420.537 98.9441 419.844 98.7287 419.014 98.7287C418.213 98.7287 417.536 98.9349 416.982 99.3473C416.434 99.7597 416.019 100.335 415.736 101.074C415.453 101.812 415.311 102.674 415.311 103.659ZM432.13 111.064C431.231 111.064 430.419 110.898 429.692 110.565C428.966 110.227 428.391 109.737 427.966 109.097C427.547 108.457 427.338 107.672 427.338 106.743C427.338 105.943 427.492 105.284 427.8 104.767C428.107 104.25 428.523 103.841 429.046 103.539C429.569 103.237 430.154 103.01 430.8 102.856C431.447 102.702 432.105 102.585 432.776 102.505C433.626 102.406 434.315 102.326 434.844 102.265C435.374 102.197 435.758 102.089 435.998 101.942C436.239 101.794 436.359 101.554 436.359 101.222V101.157C436.359 100.351 436.131 99.7259 435.675 99.2827C435.226 98.8395 434.555 98.6179 433.663 98.6179C432.733 98.6179 432.001 98.8241 431.465 99.2365C430.936 99.6428 430.569 100.095 430.366 100.594L427.772 100.003C428.08 99.1411 428.529 98.4455 429.12 97.9162C429.717 97.3807 430.403 96.9929 431.179 96.7528C431.954 96.5066 432.77 96.3835 433.626 96.3835C434.192 96.3835 434.792 96.4512 435.426 96.5866C436.066 96.7159 436.663 96.956 437.217 97.3068C437.777 97.6577 438.236 98.1593 438.593 98.8118C438.95 99.4581 439.128 100.298 439.128 101.332V110.75H436.432V108.811H436.322C436.143 109.168 435.875 109.519 435.518 109.864C435.161 110.208 434.703 110.495 434.143 110.722C433.583 110.95 432.912 111.064 432.13 111.064ZM432.73 108.848C433.493 108.848 434.146 108.697 434.687 108.396C435.235 108.094 435.651 107.7 435.934 107.214C436.223 106.721 436.368 106.195 436.368 105.635V103.807C436.269 103.905 436.078 103.998 435.795 104.084C435.518 104.164 435.201 104.235 434.844 104.296C434.487 104.352 434.14 104.404 433.801 104.453C433.462 104.496 433.179 104.533 432.952 104.564C432.416 104.632 431.927 104.746 431.484 104.906C431.047 105.066 430.696 105.296 430.431 105.598C430.172 105.893 430.043 106.287 430.043 106.78C430.043 107.463 430.296 107.98 430.8 108.331C431.305 108.676 431.948 108.848 432.73 108.848ZM431.059 94.343C430.622 94.343 430.24 94.183 429.914 93.8629C429.588 93.5367 429.425 93.1612 429.425 92.7365C429.425 92.2749 429.588 91.8901 429.914 91.5824C430.24 91.2746 430.622 91.1207 431.059 91.1207C431.52 91.1207 431.905 91.2746 432.213 91.5824C432.527 91.8901 432.684 92.2749 432.684 92.7365C432.684 93.1612 432.527 93.5367 432.213 93.8629C431.905 94.183 431.52 94.343 431.059 94.343ZM436.488 94.343C436.051 94.343 435.669 94.183 435.343 93.8629C435.017 93.5367 434.854 93.1612 434.854 92.7365C434.854 92.2749 435.017 91.8901 435.343 91.5824C435.669 91.2746 436.051 91.1207 436.488 91.1207C436.949 91.1207 437.334 91.2746 437.642 91.5824C437.956 91.8901 438.113 92.2749 438.113 92.7365C438.113 93.1612 437.956 93.5367 437.642 93.8629C437.334 94.183 436.949 94.343 436.488 94.343ZM446.283 111.064C445.384 111.064 444.571 110.898 443.845 110.565C443.119 110.227 442.543 109.737 442.119 109.097C441.7 108.457 441.491 107.672 441.491 106.743C441.491 105.943 441.645 105.284 441.952 104.767C442.26 104.25 442.676 103.841 443.199 103.539C443.722 103.237 444.307 103.01 444.953 102.856C445.599 102.702 446.258 102.585 446.929 102.505C447.778 102.406 448.468 102.326 448.997 102.265C449.526 102.197 449.911 102.089 450.151 101.942C450.391 101.794 450.511 101.554 450.511 101.222V101.157C450.511 100.351 450.284 99.7259 449.828 99.2827C449.379 98.8395 448.708 98.6179 447.815 98.6179C446.886 98.6179 446.153 98.8241 445.618 99.2365C445.088 99.6428 444.722 100.095 444.519 100.594L441.925 100.003C442.232 99.1411 442.682 98.4455 443.273 97.9162C443.87 97.3807 444.556 96.9929 445.332 96.7528C446.107 96.5066 446.923 96.3835 447.778 96.3835C448.345 96.3835 448.945 96.4512 449.579 96.5866C450.219 96.7159 450.816 96.956 451.37 97.3068C451.93 97.6577 452.389 98.1593 452.746 98.8118C453.103 99.4581 453.281 100.298 453.281 101.332V110.75H450.585V108.811H450.474C450.296 109.168 450.028 109.519 449.671 109.864C449.314 110.208 448.856 110.495 448.295 110.722C447.735 110.95 447.064 111.064 446.283 111.064ZM446.883 108.848C447.646 108.848 448.298 108.697 448.84 108.396C449.388 108.094 449.803 107.7 450.087 107.214C450.376 106.721 450.521 106.195 450.521 105.635V103.807C450.422 103.905 450.231 103.998 449.948 104.084C449.671 104.164 449.354 104.235 448.997 104.296C448.64 104.352 448.292 104.404 447.954 104.453C447.615 104.496 447.332 104.533 447.104 104.564C446.569 104.632 446.079 104.746 445.636 104.906C445.199 105.066 444.848 105.296 444.584 105.598C444.325 105.893 444.196 106.287 444.196 106.78C444.196 107.463 444.448 107.98 444.953 108.331C445.458 108.676 446.101 108.848 446.883 108.848ZM445.212 94.343C444.775 94.343 444.393 94.183 444.067 93.8629C443.74 93.5367 443.577 93.1612 443.577 92.7365C443.577 92.2749 443.74 91.8901 444.067 91.5824C444.393 91.2746 444.775 91.1207 445.212 91.1207C445.673 91.1207 446.058 91.2746 446.366 91.5824C446.68 91.8901 446.837 92.2749 446.837 92.7365C446.837 93.1612 446.68 93.5367 446.366 93.8629C446.058 94.183 445.673 94.343 445.212 94.343ZM450.641 94.343C450.204 94.343 449.822 94.183 449.496 93.8629C449.169 93.5367 449.006 93.1612 449.006 92.7365C449.006 92.2749 449.169 91.8901 449.496 91.5824C449.822 91.2746 450.204 91.1207 450.641 91.1207C451.102 91.1207 451.487 91.2746 451.795 91.5824C452.109 91.8901 452.266 92.2749 452.266 92.7365C452.266 93.1612 452.109 93.5367 451.795 93.8629C451.487 94.183 451.102 94.343 450.641 94.343ZM466.935 100.031L464.433 100.474C464.329 100.154 464.162 99.849 463.935 99.5597C463.713 99.2704 463.411 99.0334 463.03 98.8487C462.648 98.6641 462.171 98.5717 461.599 98.5717C460.817 98.5717 460.165 98.7472 459.641 99.098C459.118 99.4427 458.857 99.889 458.857 100.437C458.857 100.911 459.032 101.292 459.383 101.582C459.734 101.871 460.3 102.108 461.082 102.293L463.334 102.81C464.639 103.111 465.612 103.576 466.252 104.204C466.892 104.832 467.212 105.647 467.212 106.651C467.212 107.5 466.966 108.257 466.474 108.922C465.987 109.58 465.307 110.098 464.433 110.473C463.565 110.848 462.559 111.036 461.414 111.036C459.826 111.036 458.53 110.698 457.527 110.021C456.524 109.337 455.908 108.368 455.68 107.112L458.349 106.706C458.515 107.402 458.857 107.928 459.374 108.285C459.891 108.636 460.565 108.811 461.396 108.811C462.3 108.811 463.024 108.623 463.565 108.248C464.107 107.866 464.378 107.402 464.378 106.854C464.378 106.411 464.212 106.038 463.879 105.737C463.553 105.435 463.051 105.207 462.374 105.053L459.974 104.527C458.65 104.225 457.672 103.745 457.038 103.087C456.41 102.428 456.096 101.594 456.096 100.585C456.096 99.7474 456.33 99.0149 456.798 98.3871C457.265 97.7592 457.912 97.2699 458.736 96.919C459.561 96.562 460.506 96.3835 461.571 96.3835C463.104 96.3835 464.31 96.7159 465.19 97.3807C466.071 98.0393 466.652 98.9226 466.935 100.031ZM478.581 104.869V96.5682H481.351V110.75H478.637V108.294H478.489C478.163 109.051 477.64 109.682 476.919 110.187C476.205 110.685 475.316 110.935 474.251 110.935C473.34 110.935 472.534 110.735 471.832 110.335C471.136 109.928 470.589 109.328 470.189 108.534C469.795 107.74 469.598 106.758 469.598 105.589V96.5682H472.358V105.256C472.358 106.223 472.626 106.992 473.162 107.565C473.697 108.137 474.393 108.423 475.248 108.423C475.765 108.423 476.279 108.294 476.79 108.036C477.307 107.777 477.735 107.386 478.073 106.863C478.418 106.34 478.587 105.675 478.581 104.869ZM501.269 100.031L498.766 100.474C498.662 100.154 498.496 99.849 498.268 99.5597C498.046 99.2704 497.745 99.0334 497.363 98.8487C496.981 98.6641 496.504 98.5717 495.932 98.5717C495.15 98.5717 494.498 98.7472 493.975 99.098C493.451 99.4427 493.19 99.889 493.19 100.437C493.19 100.911 493.365 101.292 493.716 101.582C494.067 101.871 494.633 102.108 495.415 102.293L497.668 102.81C498.973 103.111 499.945 103.576 500.585 104.204C501.225 104.832 501.546 105.647 501.546 106.651C501.546 107.5 501.299 108.257 500.807 108.922C500.321 109.58 499.64 110.098 498.766 110.473C497.899 110.848 496.892 111.036 495.747 111.036C494.159 111.036 492.863 110.698 491.86 110.021C490.857 109.337 490.241 108.368 490.014 107.112L492.682 106.706C492.848 107.402 493.19 107.928 493.707 108.285C494.224 108.636 494.898 108.811 495.729 108.811C496.634 108.811 497.357 108.623 497.899 108.248C498.44 107.866 498.711 107.402 498.711 106.854C498.711 106.411 498.545 106.038 498.212 105.737C497.886 105.435 497.385 105.207 496.707 105.053L494.307 104.527C492.984 104.225 492.005 103.745 491.371 103.087C490.743 102.428 490.429 101.594 490.429 100.585C490.429 99.7474 490.663 99.0149 491.131 98.3871C491.599 97.7592 492.245 97.2699 493.07 96.919C493.894 96.562 494.839 96.3835 495.904 96.3835C497.437 96.3835 498.643 96.7159 499.524 97.3807C500.404 98.0393 500.985 98.9226 501.269 100.031ZM508.058 111.064C507.159 111.064 506.347 110.898 505.62 110.565C504.894 110.227 504.319 109.737 503.894 109.097C503.475 108.457 503.266 107.672 503.266 106.743C503.266 105.943 503.42 105.284 503.728 104.767C504.036 104.25 504.451 103.841 504.974 103.539C505.497 103.237 506.082 103.01 506.728 102.856C507.375 102.702 508.033 102.585 508.704 102.505C509.554 102.406 510.243 102.326 510.772 102.265C511.302 102.197 511.687 102.089 511.927 101.942C512.167 101.794 512.287 101.554 512.287 101.222V101.157C512.287 100.351 512.059 99.7259 511.603 99.2827C511.154 98.8395 510.483 98.6179 509.591 98.6179C508.661 98.6179 507.929 98.8241 507.393 99.2365C506.864 99.6428 506.498 100.095 506.295 100.594L503.7 100.003C504.008 99.1411 504.457 98.4455 505.048 97.9162C505.645 97.3807 506.331 96.9929 507.107 96.7528C507.883 96.5066 508.698 96.3835 509.554 96.3835C510.12 96.3835 510.72 96.4512 511.354 96.5866C511.994 96.7159 512.591 96.956 513.145 97.3068C513.705 97.6577 514.164 98.1593 514.521 98.8118C514.878 99.4581 515.057 100.298 515.057 101.332V110.75H512.361V108.811H512.25C512.071 109.168 511.803 109.519 511.446 109.864C511.089 110.208 510.631 110.495 510.071 110.722C509.511 110.95 508.84 111.064 508.058 111.064ZM508.658 108.848C509.421 108.848 510.074 108.697 510.616 108.396C511.163 108.094 511.579 107.7 511.862 107.214C512.151 106.721 512.296 106.195 512.296 105.635V103.807C512.197 103.905 512.007 103.998 511.723 104.084C511.446 104.164 511.129 104.235 510.772 104.296C510.415 104.352 510.068 104.404 509.729 104.453C509.391 104.496 509.107 104.533 508.88 104.564C508.344 104.632 507.855 104.746 507.412 104.906C506.975 105.066 506.624 105.296 506.359 105.598C506.101 105.893 505.971 106.287 505.971 106.78C505.971 107.463 506.224 107.98 506.728 108.331C507.233 108.676 507.876 108.848 508.658 108.848ZM522.211 111.064C521.312 111.064 520.5 110.898 519.773 110.565C519.047 110.227 518.471 109.737 518.047 109.097C517.628 108.457 517.419 107.672 517.419 106.743C517.419 105.943 517.573 105.284 517.88 104.767C518.188 104.25 518.604 103.841 519.127 103.539C519.65 103.237 520.235 103.01 520.881 102.856C521.527 102.702 522.186 102.585 522.857 102.505C523.706 102.406 524.396 102.326 524.925 102.265C525.455 102.197 525.839 102.089 526.079 101.942C526.319 101.794 526.439 101.554 526.439 101.222V101.157C526.439 100.351 526.212 99.7259 525.756 99.2827C525.307 98.8395 524.636 98.6179 523.743 98.6179C522.814 98.6179 522.081 98.8241 521.546 99.2365C521.017 99.6428 520.65 100.095 520.447 100.594L517.853 100.003C518.161 99.1411 518.61 98.4455 519.201 97.9162C519.798 97.3807 520.484 96.9929 521.26 96.7528C522.035 96.5066 522.851 96.3835 523.706 96.3835C524.273 96.3835 524.873 96.4512 525.507 96.5866C526.147 96.7159 526.744 96.956 527.298 97.3068C527.858 97.6577 528.317 98.1593 528.674 98.8118C529.031 99.4581 529.209 100.298 529.209 101.332V110.75H526.513V108.811H526.403C526.224 109.168 525.956 109.519 525.599 109.864C525.242 110.208 524.784 110.495 524.224 110.722C523.663 110.95 522.992 111.064 522.211 111.064ZM522.811 108.848C523.574 108.848 524.227 108.697 524.768 108.396C525.316 108.094 525.732 107.7 526.015 107.214C526.304 106.721 526.449 106.195 526.449 105.635V103.807C526.35 103.905 526.159 103.998 525.876 104.084C525.599 104.164 525.282 104.235 524.925 104.296C524.568 104.352 524.22 104.404 523.882 104.453C523.543 104.496 523.26 104.533 523.032 104.564C522.497 104.632 522.008 104.746 521.564 104.906C521.127 105.066 520.777 105.296 520.512 105.598C520.253 105.893 520.124 106.287 520.124 106.78C520.124 107.463 520.376 107.98 520.881 108.331C521.386 108.676 522.029 108.848 522.811 108.848ZM537.545 111.027C536.4 111.027 535.379 110.735 534.48 110.15C533.587 109.559 532.886 108.719 532.375 107.629C531.87 106.534 531.618 105.219 531.618 103.687C531.618 102.154 531.873 100.843 532.384 99.7536C532.901 98.6641 533.609 97.83 534.508 97.2514C535.406 96.6728 536.425 96.3835 537.564 96.3835C538.444 96.3835 539.152 96.5312 539.687 96.8267C540.229 97.116 540.648 97.4545 540.943 97.8423C541.245 98.2301 541.479 98.5717 541.645 98.8672H541.811V91.8409H544.572V110.75H541.876V108.543H541.645C541.479 108.845 541.238 109.19 540.925 109.577C540.617 109.965 540.192 110.304 539.65 110.593C539.109 110.882 538.407 111.027 537.545 111.027ZM538.155 108.673C538.949 108.673 539.62 108.463 540.167 108.045C540.721 107.62 541.14 107.032 541.423 106.281C541.712 105.53 541.857 104.656 541.857 103.659C541.857 102.674 541.716 101.812 541.432 101.074C541.149 100.335 540.734 99.7597 540.186 99.3473C539.638 98.9349 538.961 98.7287 538.155 98.7287C537.324 98.7287 536.631 98.9441 536.077 99.375C535.523 99.8059 535.105 100.394 534.822 101.138C534.545 101.883 534.406 102.723 534.406 103.659C534.406 104.607 534.548 105.46 534.831 106.217C535.114 106.974 535.533 107.574 536.086 108.017C536.647 108.454 537.336 108.673 538.155 108.673ZM25.8558 129.568H28.6165V144.673C28.6165 145.621 28.4441 146.421 28.0994 147.074C27.7609 147.726 27.2562 148.222 26.5852 148.56C25.9205 148.899 25.0987 149.068 24.12 149.068C24.0215 149.068 23.9292 149.068 23.843 149.068C23.7507 149.068 23.6553 149.065 23.5568 149.059V146.686C23.643 146.686 23.7199 146.686 23.7876 146.686C23.8492 146.686 23.92 146.686 24 146.686C24.6525 146.686 25.1233 146.511 25.4126 146.16C25.7081 145.815 25.8558 145.313 25.8558 144.655V129.568ZM27.2223 127.38C26.7422 127.38 26.3298 127.22 25.9851 126.9C25.6465 126.574 25.4773 126.186 25.4773 125.737C25.4773 125.281 25.6465 124.893 25.9851 124.573C26.3298 124.247 26.7422 124.084 27.2223 124.084C27.7024 124.084 28.1117 124.247 28.4503 124.573C28.795 124.893 28.9673 125.281 28.9673 125.737C28.9673 126.186 28.795 126.574 28.4503 126.9C28.1117 127.22 27.7024 127.38 27.2223 127.38ZM35.8076 144.064C34.9089 144.064 34.0964 143.898 33.3701 143.565C32.6437 143.227 32.0682 142.737 31.6435 142.097C31.2249 141.457 31.0157 140.672 31.0157 139.743C31.0157 138.943 31.1695 138.284 31.4773 137.767C31.7851 137.25 32.2006 136.841 32.7238 136.539C33.247 136.237 33.8317 136.01 34.478 135.856C35.1243 135.702 35.7829 135.585 36.4539 135.505C37.3033 135.406 37.9927 135.326 38.5221 135.265C39.0514 135.197 39.4361 135.089 39.6762 134.942C39.9162 134.794 40.0363 134.554 40.0363 134.222V134.157C40.0363 133.351 39.8085 132.726 39.353 132.283C38.9037 131.839 38.2328 131.618 37.3402 131.618C36.4108 131.618 35.6783 131.824 35.1428 132.237C34.6134 132.643 34.2472 133.095 34.0441 133.594L31.4496 133.003C31.7574 132.141 32.2067 131.446 32.7976 130.916C33.3947 130.381 34.081 129.993 34.8566 129.753C35.6321 129.507 36.4477 129.384 37.3033 129.384C37.8696 129.384 38.4697 129.451 39.1037 129.587C39.7439 129.716 40.3409 129.956 40.8949 130.307C41.4551 130.658 41.9136 131.159 42.2706 131.812C42.6276 132.458 42.8061 133.298 42.8061 134.332V143.75H40.1101V141.811H39.9993C39.8208 142.168 39.5531 142.519 39.1961 142.864C38.8391 143.208 38.3805 143.495 37.8203 143.722C37.2602 143.95 36.5893 144.064 35.8076 144.064ZM36.4077 141.848C37.171 141.848 37.8234 141.697 38.3651 141.396C38.9129 141.094 39.3284 140.7 39.6115 140.214C39.9008 139.721 40.0455 139.195 40.0455 138.635V136.807C39.947 136.905 39.7562 136.998 39.473 137.084C39.1961 137.164 38.8791 137.235 38.5221 137.296C38.165 137.352 37.8173 137.404 37.4787 137.453C37.1402 137.496 36.857 137.533 36.6293 137.564C36.0938 137.632 35.6044 137.746 35.1613 137.906C34.7242 138.066 34.3734 138.296 34.1087 138.598C33.8502 138.893 33.7209 139.287 33.7209 139.78C33.7209 140.463 33.9733 140.98 34.478 141.331C34.9828 141.676 35.626 141.848 36.4077 141.848ZM51.7792 149.364C50.6528 149.364 49.6833 149.216 48.8708 148.92C48.0645 148.625 47.4058 148.234 46.895 147.748C46.3841 147.262 46.0024 146.729 45.7501 146.151L48.1229 145.172C48.2891 145.443 48.5107 145.729 48.7877 146.031C49.0709 146.338 49.4525 146.6 49.9326 146.815C50.4189 147.031 51.0436 147.138 51.8069 147.138C52.8533 147.138 53.7181 146.883 54.4014 146.372C55.0846 145.867 55.4262 145.061 55.4262 143.953V141.165H55.2508C55.0846 141.466 54.8445 141.802 54.5306 142.171C54.2228 142.54 53.7981 142.861 53.2565 143.131C52.7148 143.402 52.01 143.538 51.1421 143.538C50.0219 143.538 49.0124 143.276 48.1137 142.753C47.2212 142.223 46.5133 141.445 45.9901 140.417C45.4731 139.383 45.2146 138.112 45.2146 136.604C45.2146 135.096 45.47 133.803 45.9809 132.726C46.4979 131.649 47.2058 130.824 48.1045 130.251C49.0031 129.673 50.0219 129.384 51.1606 129.384C52.0408 129.384 52.7517 129.531 53.2934 129.827C53.8351 130.116 54.2567 130.455 54.5583 130.842C54.8661 131.23 55.1031 131.572 55.2692 131.867H55.4724V129.568H58.1776V144.064C58.1776 145.283 57.8945 146.283 57.3282 147.065C56.7619 147.846 55.9956 148.425 55.0292 148.8C54.069 149.176 52.9856 149.364 51.7792 149.364ZM51.7515 141.248C52.5455 141.248 53.2165 141.063 53.7643 140.694C54.3183 140.318 54.7368 139.783 55.02 139.087C55.3093 138.386 55.4539 137.545 55.4539 136.567C55.4539 135.613 55.3123 134.772 55.0292 134.046C54.746 133.32 54.3306 132.754 53.7827 132.347C53.2349 131.935 52.5578 131.729 51.7515 131.729C50.9205 131.729 50.2281 131.944 49.6741 132.375C49.1201 132.8 48.7015 133.378 48.4184 134.111C48.1414 134.843 48.0029 135.662 48.0029 136.567C48.0029 137.496 48.1445 138.312 48.4276 139.013C48.7108 139.715 49.1293 140.263 49.6833 140.657C50.2434 141.051 50.9328 141.248 51.7515 141.248ZM65.3572 144.064C64.4585 144.064 63.646 143.898 62.9197 143.565C62.1934 143.227 61.6178 142.737 61.1931 142.097C60.7746 141.457 60.5653 140.672 60.5653 139.743C60.5653 138.943 60.7192 138.284 61.0269 137.767C61.3347 137.25 61.7502 136.841 62.2734 136.539C62.7966 136.237 63.3813 136.01 64.0276 135.856C64.6739 135.702 65.3326 135.585 66.0035 135.505C66.8529 135.406 67.5423 135.326 68.0717 135.265C68.601 135.197 68.9857 135.089 69.2258 134.942C69.4658 134.794 69.5859 134.554 69.5859 134.222V134.157C69.5859 133.351 69.3581 132.726 68.9026 132.283C68.4533 131.839 67.7824 131.618 66.8898 131.618C65.9604 131.618 65.2279 131.824 64.6924 132.237C64.163 132.643 63.7968 133.095 63.5937 133.594L60.9992 133.003C61.307 132.141 61.7563 131.446 62.3472 130.916C62.9443 130.381 63.6306 129.993 64.4062 129.753C65.1818 129.507 65.9973 129.384 66.8529 129.384C67.4192 129.384 68.0193 129.451 68.6533 129.587C69.2935 129.716 69.8906 129.956 70.4445 130.307C71.0047 130.658 71.4632 131.159 71.8202 131.812C72.1773 132.458 72.3558 133.298 72.3558 134.332V143.75H69.6597V141.811H69.5489C69.3704 142.168 69.1027 142.519 68.7457 142.864C68.3887 143.208 67.9301 143.495 67.37 143.722C66.8098 143.95 66.1389 144.064 65.3572 144.064ZM65.9573 141.848C66.7206 141.848 67.373 141.697 67.9147 141.396C68.4625 141.094 68.878 140.7 69.1612 140.214C69.4505 139.721 69.5951 139.195 69.5951 138.635V136.807C69.4966 136.905 69.3058 136.998 69.0227 137.084C68.7457 137.164 68.4287 137.235 68.0717 137.296C67.7147 137.352 67.3669 137.404 67.0283 137.453C66.6898 137.496 66.4067 137.533 66.1789 137.564C65.6434 137.632 65.1541 137.746 64.7109 137.906C64.2738 138.066 63.923 138.296 63.6583 138.598C63.3998 138.893 63.2705 139.287 63.2705 139.78C63.2705 140.463 63.5229 140.98 64.0276 141.331C64.5324 141.676 65.1756 141.848 65.9573 141.848ZM80.6917 144.027C79.5468 144.027 78.5251 143.735 77.6264 143.15C76.7339 142.559 76.0322 141.719 75.5213 140.629C75.0165 139.534 74.7642 138.219 74.7642 136.687C74.7642 135.154 75.0196 133.843 75.5305 132.754C76.0476 131.664 76.7554 130.83 77.6541 130.251C78.5528 129.673 79.5715 129.384 80.7102 129.384C81.5904 129.384 82.2983 129.531 82.8338 129.827C83.3754 130.116 83.794 130.455 84.0895 130.842C84.3911 131.23 84.625 131.572 84.7912 131.867H84.9574V124.841H87.718V143.75H85.022V141.543H84.7912C84.625 141.845 84.3849 142.19 84.071 142.577C83.7632 142.965 83.3385 143.304 82.7968 143.593C82.2552 143.882 81.5535 144.027 80.6917 144.027ZM81.3011 141.673C82.0951 141.673 82.7661 141.463 83.3139 141.045C83.8679 140.62 84.2864 140.032 84.5696 139.281C84.8589 138.53 85.0035 137.656 85.0035 136.659C85.0035 135.674 84.8619 134.812 84.5788 134.074C84.2957 133.335 83.8802 132.76 83.3324 132.347C82.7845 131.935 82.1075 131.729 81.3011 131.729C80.4701 131.729 79.7777 131.944 79.2237 132.375C78.6697 132.806 78.2512 133.394 77.968 134.138C77.691 134.883 77.5525 135.723 77.5525 136.659C77.5525 137.607 77.6941 138.46 77.9772 139.217C78.2604 139.974 78.6789 140.574 79.2329 141.017C79.7931 141.454 80.4825 141.673 81.3011 141.673ZM95.1353 144.064C94.2366 144.064 93.4241 143.898 92.6978 143.565C91.9715 143.227 91.396 142.737 90.9712 142.097C90.5527 141.457 90.3434 140.672 90.3434 139.743C90.3434 138.943 90.4973 138.284 90.8051 137.767C91.1128 137.25 91.5283 136.841 92.0515 136.539C92.5747 136.237 93.1595 136.01 93.8058 135.856C94.4521 135.702 95.1107 135.585 95.7816 135.505C96.631 135.406 97.3204 135.326 97.8498 135.265C98.3792 135.197 98.7639 135.089 99.0039 134.942C99.244 134.794 99.364 134.554 99.364 134.222V134.157C99.364 133.351 99.1363 132.726 98.6808 132.283C98.2314 131.839 97.5605 131.618 96.668 131.618C95.7385 131.618 95.006 131.824 94.4705 132.237C93.9412 132.643 93.5749 133.095 93.3718 133.594L90.7774 133.003C91.0851 132.141 91.5345 131.446 92.1254 130.916C92.7224 130.381 93.4087 129.993 94.1843 129.753C94.9599 129.507 95.7755 129.384 96.631 129.384C97.1973 129.384 97.7975 129.451 98.4315 129.587C99.0716 129.716 99.6687 129.956 100.223 130.307C100.783 130.658 101.241 131.159 101.598 131.812C101.955 132.458 102.134 133.298 102.134 134.332V143.75H99.4379V141.811H99.3271C99.1486 142.168 98.8808 142.519 98.5238 142.864C98.1668 143.208 97.7082 143.495 97.1481 143.722C96.588 143.95 95.917 144.064 95.1353 144.064ZM95.7354 141.848C96.4987 141.848 97.1512 141.697 97.6928 141.396C98.2407 141.094 98.6561 140.7 98.9393 140.214C99.2286 139.721 99.3732 139.195 99.3732 138.635V136.807C99.2747 136.905 99.0839 136.998 98.8008 137.084C98.5238 137.164 98.2068 137.235 97.8498 137.296C97.4928 137.352 97.145 137.404 96.8065 137.453C96.4679 137.496 96.1848 137.533 95.957 137.564C95.4215 137.632 94.9322 137.746 94.489 137.906C94.052 138.066 93.7011 138.296 93.4364 138.598C93.1779 138.893 93.0487 139.287 93.0487 139.78C93.0487 140.463 93.301 140.98 93.8058 141.331C94.3105 141.676 94.9537 141.848 95.7354 141.848ZM114.152 135.33V143.75H111.392V129.568H114.042V131.876H114.217C114.543 131.125 115.054 130.522 115.75 130.067C116.451 129.611 117.335 129.384 118.4 129.384C119.366 129.384 120.212 129.587 120.939 129.993C121.665 130.393 122.228 130.99 122.628 131.784C123.028 132.578 123.228 133.56 123.228 134.729V143.75H120.468V135.062C120.468 134.034 120.2 133.231 119.664 132.652C119.129 132.067 118.393 131.775 117.458 131.775C116.818 131.775 116.248 131.913 115.75 132.19C115.257 132.467 114.866 132.874 114.577 133.409C114.294 133.938 114.152 134.579 114.152 135.33ZM132.393 144.036C130.996 144.036 129.792 143.738 128.783 143.141C127.78 142.537 127.004 141.691 126.456 140.602C125.915 139.506 125.644 138.223 125.644 136.751C125.644 135.299 125.915 134.018 126.456 132.911C127.004 131.803 127.767 130.938 128.746 130.316C129.731 129.694 130.882 129.384 132.199 129.384C132.999 129.384 133.775 129.516 134.526 129.781C135.277 130.045 135.951 130.461 136.548 131.027C137.145 131.593 137.616 132.329 137.961 133.234C138.305 134.132 138.478 135.225 138.478 136.511V137.49H127.204V135.422H135.772C135.772 134.696 135.625 134.052 135.329 133.492C135.034 132.926 134.618 132.48 134.083 132.153C133.553 131.827 132.932 131.664 132.218 131.664C131.442 131.664 130.765 131.855 130.186 132.237C129.614 132.612 129.171 133.104 128.857 133.714C128.549 134.317 128.395 134.973 128.395 135.68V137.296C128.395 138.244 128.561 139.05 128.894 139.715C129.232 140.38 129.703 140.888 130.306 141.239C130.91 141.583 131.614 141.756 132.421 141.756C132.944 141.756 133.421 141.682 133.852 141.534C134.283 141.38 134.655 141.152 134.969 140.851C135.283 140.549 135.523 140.177 135.689 139.734L138.302 140.205C138.093 140.974 137.717 141.648 137.176 142.227C136.64 142.799 135.966 143.245 135.154 143.565C134.347 143.879 133.427 144.036 132.393 144.036ZM143.651 124.841V143.75H140.891V124.841H143.651ZM146.715 129.568H149.476V144.673C149.476 145.621 149.304 146.421 148.959 147.074C148.62 147.726 148.116 148.222 147.445 148.56C146.78 148.899 145.958 149.068 144.979 149.068C144.881 149.068 144.789 149.068 144.702 149.068C144.61 149.068 144.515 149.065 144.416 149.059V146.686C144.502 146.686 144.579 146.686 144.647 146.686C144.709 146.686 144.779 146.686 144.859 146.686C145.512 146.686 145.983 146.511 146.272 146.16C146.567 145.815 146.715 145.313 146.715 144.655V129.568ZM148.082 127.38C147.602 127.38 147.189 127.22 146.844 126.9C146.506 126.574 146.337 126.186 146.337 125.737C146.337 125.281 146.506 124.893 146.844 124.573C147.189 124.247 147.602 124.084 148.082 124.084C148.562 124.084 148.971 124.247 149.31 124.573C149.654 124.893 149.827 125.281 149.827 125.737C149.827 126.186 149.654 126.574 149.31 126.9C148.971 127.22 148.562 127.38 148.082 127.38ZM156.667 144.064C155.768 144.064 154.956 143.898 154.229 143.565C153.503 143.227 152.928 142.737 152.503 142.097C152.084 141.457 151.875 140.672 151.875 139.743C151.875 138.943 152.029 138.284 152.337 137.767C152.644 137.25 153.06 136.841 153.583 136.539C154.106 136.237 154.691 136.01 155.337 135.856C155.984 135.702 156.642 135.585 157.313 135.505C158.163 135.406 158.852 135.326 159.381 135.265C159.911 135.197 160.296 135.089 160.536 134.942C160.776 134.794 160.896 134.554 160.896 134.222V134.157C160.896 133.351 160.668 132.726 160.212 132.283C159.763 131.839 159.092 131.618 158.2 131.618C157.27 131.618 156.538 131.824 156.002 132.237C155.473 132.643 155.107 133.095 154.903 133.594L152.309 133.003C152.617 132.141 153.066 131.446 153.657 130.916C154.254 130.381 154.94 129.993 155.716 129.753C156.492 129.507 157.307 129.384 158.163 129.384C158.729 129.384 159.329 129.451 159.963 129.587C160.603 129.716 161.2 129.956 161.754 130.307C162.314 130.658 162.773 131.159 163.13 131.812C163.487 132.458 163.666 133.298 163.666 134.332V143.75H160.97V141.811H160.859C160.68 142.168 160.412 142.519 160.055 142.864C159.698 143.208 159.24 143.495 158.68 143.722C158.12 143.95 157.449 144.064 156.667 144.064ZM157.267 141.848C158.03 141.848 158.683 141.697 159.224 141.396C159.772 141.094 160.188 140.7 160.471 140.214C160.76 139.721 160.905 139.195 160.905 138.635V136.807C160.806 136.905 160.616 136.998 160.332 137.084C160.055 137.164 159.738 137.235 159.381 137.296C159.024 137.352 158.677 137.404 158.338 137.453C158 137.496 157.716 137.533 157.489 137.564C156.953 137.632 156.464 137.746 156.021 137.906C155.584 138.066 155.233 138.296 154.968 138.598C154.71 138.893 154.58 139.287 154.58 139.78C154.58 140.463 154.833 140.98 155.337 141.331C155.842 141.676 156.485 141.848 157.267 141.848ZM183.551 133.031L181.048 133.474C180.944 133.154 180.778 132.849 180.55 132.56C180.328 132.27 180.027 132.033 179.645 131.849C179.263 131.664 178.786 131.572 178.214 131.572C177.432 131.572 176.78 131.747 176.257 132.098C175.733 132.443 175.472 132.889 175.472 133.437C175.472 133.911 175.647 134.292 175.998 134.582C176.349 134.871 176.915 135.108 177.697 135.293L179.95 135.81C181.255 136.111 182.227 136.576 182.867 137.204C183.507 137.832 183.828 138.647 183.828 139.651C183.828 140.5 183.581 141.257 183.089 141.922C182.603 142.58 181.922 143.098 181.048 143.473C180.181 143.848 179.174 144.036 178.029 144.036C176.441 144.036 175.145 143.698 174.142 143.021C173.139 142.337 172.523 141.368 172.296 140.112L174.964 139.706C175.13 140.402 175.472 140.928 175.989 141.285C176.506 141.636 177.18 141.811 178.011 141.811C178.916 141.811 179.639 141.623 180.181 141.248C180.722 140.866 180.993 140.402 180.993 139.854C180.993 139.411 180.827 139.038 180.494 138.737C180.168 138.435 179.667 138.207 178.989 138.053L176.589 137.527C175.266 137.225 174.287 136.745 173.653 136.087C173.025 135.428 172.711 134.594 172.711 133.585C172.711 132.747 172.945 132.015 173.413 131.387C173.881 130.759 174.527 130.27 175.352 129.919C176.176 129.562 177.121 129.384 178.186 129.384C179.719 129.384 180.925 129.716 181.806 130.381C182.686 131.039 183.267 131.923 183.551 133.031ZM192.187 144.036C190.857 144.036 189.697 143.732 188.706 143.122C187.715 142.513 186.945 141.66 186.398 140.565C185.85 139.469 185.576 138.189 185.576 136.724C185.576 135.253 185.85 133.966 186.398 132.864C186.945 131.763 187.715 130.907 188.706 130.298C189.697 129.688 190.857 129.384 192.187 129.384C193.516 129.384 194.676 129.688 195.667 130.298C196.658 130.907 197.428 131.763 197.976 132.864C198.523 133.966 198.797 135.253 198.797 136.724C198.797 138.189 198.523 139.469 197.976 140.565C197.428 141.66 196.658 142.513 195.667 143.122C194.676 143.732 193.516 144.036 192.187 144.036ZM192.196 141.719C193.058 141.719 193.772 141.491 194.338 141.036C194.904 140.58 195.323 139.974 195.594 139.217C195.871 138.46 196.009 137.625 196.009 136.714C196.009 135.81 195.871 134.979 195.594 134.222C195.323 133.458 194.904 132.846 194.338 132.384C193.772 131.923 193.058 131.692 192.196 131.692C191.328 131.692 190.608 131.923 190.035 132.384C189.469 132.846 189.047 133.458 188.77 134.222C188.5 134.979 188.364 135.81 188.364 136.714C188.364 137.625 188.5 138.46 188.77 139.217C189.047 139.974 189.469 140.58 190.035 141.036C190.608 141.491 191.328 141.719 192.196 141.719ZM189.407 127.851L187.552 127.795C187.552 126.774 187.826 125.958 188.373 125.349C188.927 124.739 189.611 124.435 190.423 124.435C190.799 124.435 191.128 124.499 191.411 124.629C191.694 124.752 191.959 124.896 192.205 125.062C192.457 125.223 192.707 125.367 192.953 125.496C193.205 125.62 193.485 125.681 193.793 125.681C194.15 125.681 194.439 125.546 194.661 125.275C194.889 125.004 195.003 124.669 195.003 124.268L196.822 124.388C196.822 125.416 196.545 126.226 195.991 126.817C195.437 127.402 194.756 127.697 193.95 127.703C193.513 127.703 193.15 127.642 192.861 127.518C192.577 127.389 192.325 127.245 192.103 127.085C191.882 126.918 191.654 126.771 191.42 126.641C191.186 126.512 190.906 126.447 190.58 126.447C190.235 126.447 189.952 126.583 189.731 126.854C189.515 127.118 189.407 127.451 189.407 127.851ZM201.45 143.75V124.841H204.211V131.867H204.377C204.537 131.572 204.768 131.23 205.07 130.842C205.371 130.455 205.79 130.116 206.325 129.827C206.861 129.531 207.569 129.384 208.449 129.384C209.594 129.384 210.616 129.673 211.514 130.251C212.413 130.83 213.118 131.664 213.629 132.754C214.146 133.843 214.404 135.154 214.404 136.687C214.404 138.219 214.149 139.534 213.638 140.629C213.127 141.719 212.425 142.559 211.533 143.15C210.64 143.735 209.622 144.027 208.477 144.027C207.615 144.027 206.91 143.882 206.362 143.593C205.821 143.304 205.396 142.965 205.088 142.577C204.78 142.19 204.544 141.845 204.377 141.543H204.146V143.75H201.45ZM204.156 136.659C204.156 137.656 204.3 138.53 204.59 139.281C204.879 140.032 205.298 140.62 205.845 141.045C206.393 141.463 207.064 141.673 207.858 141.673C208.683 141.673 209.372 141.454 209.926 141.017C210.48 140.574 210.899 139.974 211.182 139.217C211.471 138.46 211.616 137.607 211.616 136.659C211.616 135.723 211.474 134.883 211.191 134.138C210.914 133.394 210.496 132.806 209.936 132.375C209.382 131.944 208.689 131.729 207.858 131.729C207.058 131.729 206.381 131.935 205.827 132.347C205.279 132.76 204.864 133.335 204.58 134.074C204.297 134.812 204.156 135.674 204.156 136.659ZM216.854 143.75V129.568H219.523V131.821H219.67C219.929 131.058 220.384 130.458 221.037 130.021C221.695 129.577 222.44 129.356 223.271 129.356C223.444 129.356 223.647 129.362 223.881 129.374C224.121 129.387 224.308 129.402 224.444 129.42V132.061C224.333 132.03 224.136 131.996 223.853 131.96C223.57 131.916 223.287 131.895 223.003 131.895C222.351 131.895 221.769 132.033 221.258 132.31C220.754 132.581 220.354 132.96 220.058 133.446C219.763 133.926 219.615 134.474 219.615 135.089V143.75H216.854ZM230.183 144.064C229.284 144.064 228.472 143.898 227.745 143.565C227.019 143.227 226.444 142.737 226.019 142.097C225.6 141.457 225.391 140.672 225.391 139.743C225.391 138.943 225.545 138.284 225.853 137.767C226.16 137.25 226.576 136.841 227.099 136.539C227.622 136.237 228.207 136.01 228.853 135.856C229.5 135.702 230.158 135.585 230.829 135.505C231.679 135.406 232.368 135.326 232.897 135.265C233.427 135.197 233.812 135.089 234.052 134.942C234.292 134.794 234.412 134.554 234.412 134.222V134.157C234.412 133.351 234.184 132.726 233.728 132.283C233.279 131.839 232.608 131.618 231.716 131.618C230.786 131.618 230.054 131.824 229.518 132.237C228.989 132.643 228.623 133.095 228.419 133.594L225.825 133.003C226.133 132.141 226.582 131.446 227.173 130.916C227.77 130.381 228.456 129.993 229.232 129.753C230.008 129.507 230.823 129.384 231.679 129.384C232.245 129.384 232.845 129.451 233.479 129.587C234.119 129.716 234.716 129.956 235.27 130.307C235.83 130.658 236.289 131.159 236.646 131.812C237.003 132.458 237.182 133.298 237.182 134.332V143.75H234.486V141.811H234.375C234.196 142.168 233.928 142.519 233.571 142.864C233.214 143.208 232.756 143.495 232.196 143.722C231.636 143.95 230.965 144.064 230.183 144.064ZM230.783 141.848C231.546 141.848 232.199 141.697 232.74 141.396C233.288 141.094 233.704 140.7 233.987 140.214C234.276 139.721 234.421 139.195 234.421 138.635V136.807C234.322 136.905 234.132 136.998 233.848 137.084C233.571 137.164 233.254 137.235 232.897 137.296C232.54 137.352 232.193 137.404 231.854 137.453C231.516 137.496 231.232 137.533 231.005 137.564C230.469 137.632 229.98 137.746 229.537 137.906C229.1 138.066 228.749 138.296 228.484 138.598C228.226 138.893 228.096 139.287 228.096 139.78C228.096 140.463 228.349 140.98 228.853 141.331C229.358 141.676 230.001 141.848 230.783 141.848ZM246.155 149.364C245.028 149.364 244.059 149.216 243.246 148.92C242.44 148.625 241.781 148.234 241.27 147.748C240.759 147.262 240.378 146.729 240.125 146.151L242.498 145.172C242.665 145.443 242.886 145.729 243.163 146.031C243.446 146.338 243.828 146.6 244.308 146.815C244.794 147.031 245.419 147.138 246.182 147.138C247.229 147.138 248.094 146.883 248.777 146.372C249.46 145.867 249.802 145.061 249.802 143.953V141.165H249.626C249.46 141.466 249.22 141.802 248.906 142.171C248.598 142.54 248.174 142.861 247.632 143.131C247.09 143.402 246.385 143.538 245.518 143.538C244.397 143.538 243.388 143.276 242.489 142.753C241.597 142.223 240.889 141.445 240.366 140.417C239.848 139.383 239.59 138.112 239.59 136.604C239.59 135.096 239.845 133.803 240.356 132.726C240.873 131.649 241.581 130.824 242.48 130.251C243.379 129.673 244.397 129.384 245.536 129.384C246.416 129.384 247.127 129.531 247.669 129.827C248.21 130.116 248.632 130.455 248.934 130.842C249.241 131.23 249.478 131.572 249.645 131.867H249.848V129.568H252.553V144.064C252.553 145.283 252.27 146.283 251.704 147.065C251.137 147.846 250.371 148.425 249.405 148.8C248.444 149.176 247.361 149.364 246.155 149.364ZM246.127 141.248C246.921 141.248 247.592 141.063 248.14 140.694C248.694 140.318 249.112 139.783 249.395 139.087C249.685 138.386 249.829 137.545 249.829 136.567C249.829 135.613 249.688 134.772 249.405 134.046C249.121 133.32 248.706 132.754 248.158 132.347C247.61 131.935 246.933 131.729 246.127 131.729C245.296 131.729 244.603 131.944 244.049 132.375C243.496 132.8 243.077 133.378 242.794 134.111C242.517 134.843 242.378 135.662 242.378 136.567C242.378 137.496 242.52 138.312 242.803 139.013C243.086 139.715 243.505 140.263 244.059 140.657C244.619 141.051 245.308 141.248 246.127 141.248ZM259.733 144.064C258.834 144.064 258.021 143.898 257.295 143.565C256.569 143.227 255.993 142.737 255.569 142.097C255.15 141.457 254.941 140.672 254.941 139.743C254.941 138.943 255.095 138.284 255.402 137.767C255.71 137.25 256.126 136.841 256.649 136.539C257.172 136.237 257.757 136.01 258.403 135.856C259.049 135.702 259.708 135.585 260.379 135.505C261.228 135.406 261.918 135.326 262.447 135.265C262.976 135.197 263.361 135.089 263.601 134.942C263.841 134.794 263.961 134.554 263.961 134.222V134.157C263.961 133.351 263.734 132.726 263.278 132.283C262.829 131.839 262.158 131.618 261.265 131.618C260.336 131.618 259.603 131.824 259.068 132.237C258.538 132.643 258.172 133.095 257.969 133.594L255.375 133.003C255.682 132.141 256.132 131.446 256.723 130.916C257.32 130.381 258.006 129.993 258.782 129.753C259.557 129.507 260.373 129.384 261.228 129.384C261.795 129.384 262.395 129.451 263.029 129.587C263.669 129.716 264.266 129.956 264.82 130.307C265.38 130.658 265.839 131.159 266.196 131.812C266.553 132.458 266.731 133.298 266.731 134.332V143.75H264.035V141.811H263.924C263.746 142.168 263.478 142.519 263.121 142.864C262.764 143.208 262.306 143.495 261.745 143.722C261.185 143.95 260.514 144.064 259.733 144.064ZM260.333 141.848C261.096 141.848 261.748 141.697 262.29 141.396C262.838 141.094 263.253 140.7 263.537 140.214C263.826 139.721 263.971 139.195 263.971 138.635V136.807C263.872 136.905 263.681 136.998 263.398 137.084C263.121 137.164 262.804 137.235 262.447 137.296C262.09 137.352 261.742 137.404 261.404 137.453C261.065 137.496 260.782 137.533 260.554 137.564C260.019 137.632 259.529 137.746 259.086 137.906C258.649 138.066 258.298 138.296 258.034 138.598C257.775 138.893 257.646 139.287 257.646 139.78C257.646 140.463 257.898 140.98 258.403 141.331C258.908 141.676 259.551 141.848 260.333 141.848ZM273.239 124.841L272.999 138.312H270.441L270.201 124.841H273.239ZM271.725 143.925C271.214 143.925 270.777 143.747 270.414 143.39C270.051 143.027 269.872 142.59 269.878 142.079C269.872 141.574 270.051 141.143 270.414 140.786C270.777 140.423 271.214 140.241 271.725 140.241C272.223 140.241 272.654 140.423 273.017 140.786C273.381 141.143 273.565 141.574 273.571 142.079C273.565 142.417 273.476 142.728 273.304 143.011C273.137 143.288 272.916 143.51 272.639 143.676C272.362 143.842 272.057 143.925 271.725 143.925Z" fill="#442604"/>
<rect x="24" y="171.75" width="192.75" height="58.5" rx="10.9688" fill="#E3000F"/>
<path d="M55.5803 183.334C57.969 183.334 60.0336 183.778 61.7739 184.665C63.5143 185.518 64.8281 186.695 65.7154 188.197C66.6368 189.664 67.0974 191.302 67.0974 193.111C67.0974 194.988 66.6879 196.796 65.8689 198.537C65.0841 200.277 63.7191 202.239 61.7739 204.423C59.8629 206.607 57.0647 209.423 53.3792 212.869H67.8653L67.0463 218.5H45.0868V213.228C49.3866 208.928 52.4919 205.72 54.4029 203.604C56.3139 201.489 57.6619 199.697 58.4468 198.23C59.2316 196.762 59.6241 195.261 59.6241 193.725C59.6241 192.258 59.1975 191.098 58.3444 190.244C57.4913 189.391 56.3481 188.965 54.9148 188.965C53.6522 188.965 52.5261 189.255 51.5364 189.835C50.5468 190.381 49.506 191.302 48.414 192.599L44.0631 189.118C46.9978 185.262 50.8369 183.334 55.5803 183.334ZM92.1209 207.085C92.5987 209.44 93.4689 211.163 94.7315 212.255C96.0282 213.347 97.7516 213.893 99.9014 213.893C102.188 213.893 104.645 213.176 107.272 211.743V217.374C105.873 218.022 104.542 218.5 103.28 218.807C102.017 219.148 100.635 219.319 99.1336 219.319C95.2775 219.319 92.1039 218.261 89.6127 216.145C87.1557 213.995 85.5348 210.975 84.7499 207.085H80.2966L81.3204 203.144H84.5452V199.305H80.2966L81.3204 195.312H84.8011C85.7566 191.592 87.5311 188.675 90.1246 186.559C92.7522 184.409 95.8406 183.334 99.3896 183.334C102.939 183.334 106.146 184.307 109.013 186.252L106.402 190.756C105.31 190.04 104.235 189.528 103.177 189.221C102.12 188.879 100.942 188.709 99.6455 188.709C97.871 188.709 96.3524 189.255 95.0898 190.347C93.8272 191.439 92.8887 193.094 92.2745 195.312H104.815L103.792 199.305H91.9162V203.144H102.973L102 207.085H92.1209Z" fill="#FFE80D"/>
<path d="M121.955 210V208.061L127.954 201.846C128.594 201.171 129.122 200.58 129.538 200.072C129.959 199.558 130.274 199.07 130.481 198.609C130.689 198.147 130.793 197.657 130.793 197.137C130.793 196.549 130.654 196.041 130.377 195.614C130.1 195.181 129.722 194.849 129.243 194.618C128.765 194.382 128.225 194.264 127.625 194.264C126.99 194.264 126.436 194.393 125.963 194.653C125.49 194.913 125.126 195.279 124.872 195.752C124.618 196.226 124.491 196.78 124.491 197.414H121.938C121.938 196.335 122.186 195.392 122.682 194.584C123.179 193.776 123.86 193.15 124.725 192.706C125.591 192.255 126.575 192.03 127.677 192.03C128.79 192.03 129.771 192.253 130.62 192.697C131.474 193.135 132.14 193.736 132.619 194.497C133.098 195.253 133.338 196.107 133.338 197.059C133.338 197.717 133.214 198.361 132.966 198.99C132.723 199.619 132.299 200.32 131.693 201.093C131.087 201.861 130.245 202.793 129.166 203.889L125.643 207.576V207.706H133.623V210H121.955ZM144.551 205.49L144.534 202.331H144.984L150.281 196.705H153.38L147.338 203.11H146.931L144.551 205.49ZM142.171 210V192.273H144.759V210H142.171ZM150.567 210L145.806 203.681L147.589 201.872L153.744 210H150.567ZM163.552 204.486V196.705H166.148V210H163.603V207.698H163.465C163.159 208.407 162.669 208.999 161.993 209.472C161.324 209.939 160.49 210.173 159.492 210.173C158.638 210.173 157.882 209.986 157.224 209.61C156.572 209.23 156.058 208.667 155.683 207.923C155.314 207.178 155.129 206.258 155.129 205.161V196.705H157.717V204.85C157.717 205.756 157.968 206.477 158.471 207.014C158.973 207.55 159.625 207.819 160.427 207.819C160.912 207.819 161.393 207.698 161.872 207.455C162.357 207.213 162.758 206.846 163.075 206.356C163.399 205.865 163.557 205.242 163.552 204.486ZM177.439 204.486V196.705H180.035V210H177.491V207.698H177.352C177.046 208.407 176.556 208.999 175.881 209.472C175.211 209.939 174.377 210.173 173.379 210.173C172.525 210.173 171.769 209.986 171.111 209.61C170.459 209.23 169.946 208.667 169.57 207.923C169.201 207.178 169.016 206.258 169.016 205.161V196.705H171.605V204.85C171.605 205.756 171.856 206.477 172.358 207.014C172.86 207.55 173.512 207.819 174.314 207.819C174.799 207.819 175.28 207.698 175.759 207.455C176.244 207.213 176.645 206.846 176.963 206.356C177.286 205.865 177.444 205.242 177.439 204.486ZM187.881 210.26C186.807 210.26 185.849 209.986 185.007 209.437C184.17 208.883 183.512 208.096 183.033 207.074C182.56 206.047 182.324 204.815 182.324 203.378C182.324 201.941 182.563 200.712 183.042 199.691C183.527 198.669 184.19 197.888 185.033 197.345C185.875 196.803 186.83 196.531 187.898 196.531C188.723 196.531 189.387 196.67 189.889 196.947C190.397 197.218 190.789 197.536 191.066 197.899C191.349 198.263 191.568 198.583 191.724 198.86H191.88V192.273H194.468V210H191.94V207.931H191.724C191.568 208.214 191.343 208.537 191.049 208.901C190.76 209.264 190.362 209.582 189.854 209.853C189.346 210.124 188.689 210.26 187.881 210.26ZM188.452 208.052C189.196 208.052 189.825 207.856 190.339 207.464C190.858 207.066 191.251 206.515 191.516 205.811C191.787 205.107 191.923 204.287 191.923 203.352C191.923 202.429 191.79 201.621 191.525 200.929C191.259 200.236 190.87 199.697 190.356 199.31C189.843 198.923 189.208 198.73 188.452 198.73C187.673 198.73 187.024 198.932 186.504 199.336C185.985 199.74 185.593 200.291 185.327 200.989C185.068 201.687 184.938 202.475 184.938 203.352C184.938 204.241 185.07 205.04 185.336 205.75C185.601 206.46 185.994 207.022 186.513 207.438C187.038 207.848 187.684 208.052 188.452 208.052Z" fill="white"/>
<rect x="223.453" y="173.578" width="170.625" height="54.8438" rx="12.7969" stroke="#E3000F" stroke-width="3.65625"/>
<path d="M288.031 190.73L287.563 194.415H282.562V211H277.765V194.415H272.529V190.73H288.031ZM301.818 202.927C301.818 203.57 301.789 204.126 301.731 204.594H292.107C292.263 205.901 292.634 206.817 293.219 207.344C293.804 207.87 294.613 208.133 295.647 208.133C296.271 208.133 296.875 208.026 297.46 207.812C298.045 207.578 298.679 207.227 299.361 206.759L301.263 209.333C299.449 210.776 297.431 211.497 295.208 211.497C292.692 211.497 290.762 210.756 289.416 209.274C288.071 207.792 287.398 205.803 287.398 203.307C287.398 201.728 287.681 200.314 288.246 199.066C288.812 197.798 289.641 196.804 290.733 196.082C291.825 195.341 293.131 194.971 294.652 194.971C296.895 194.971 298.65 195.673 299.917 197.077C301.185 198.481 301.818 200.431 301.818 202.927ZM297.285 201.611C297.246 199.232 296.407 198.042 294.769 198.042C293.97 198.042 293.346 198.335 292.897 198.92C292.468 199.505 292.205 200.47 292.107 201.815H297.285V201.611ZM308.539 211.497C307.193 211.497 306.14 211.117 305.38 210.356C304.639 209.576 304.268 208.475 304.268 207.051V189.296L308.89 188.799V206.876C308.89 207.519 309.153 207.841 309.68 207.841C309.953 207.841 310.206 207.792 310.44 207.695L311.347 210.971C310.508 211.322 309.572 211.497 308.539 211.497ZM317.222 211.497C315.877 211.497 314.824 211.117 314.063 210.356C313.322 209.576 312.952 208.475 312.952 207.051V189.296L317.573 188.799V206.876C317.573 207.519 317.837 207.841 318.363 207.841C318.636 207.841 318.89 207.792 319.124 207.695L320.03 210.971C319.192 211.322 318.256 211.497 317.222 211.497ZM326.403 195.468V211H321.782V195.468H326.403ZM324.063 187.278C324.863 187.278 325.516 187.532 326.023 188.039C326.55 188.526 326.813 189.15 326.813 189.911C326.813 190.671 326.55 191.305 326.023 191.812C325.516 192.299 324.863 192.543 324.063 192.543C323.264 192.543 322.611 192.299 322.104 191.812C321.597 191.305 321.343 190.671 321.343 189.911C321.343 189.15 321.597 188.526 322.104 188.039C322.611 187.532 323.264 187.278 324.063 187.278ZM339.134 194.971C340.479 194.971 341.532 195.38 342.293 196.199C343.053 197.018 343.433 198.169 343.433 199.651V211H338.812V200.441C338.812 199.661 338.685 199.124 338.432 198.832C338.198 198.52 337.837 198.364 337.349 198.364C336.413 198.364 335.516 199.037 334.658 200.382V211H330.037V195.468H334.073L334.395 197.311C335.058 196.531 335.77 195.946 336.53 195.556C337.31 195.166 338.178 194.971 339.134 194.971Z" fill="#E3000F"/>
</svg>
