<svg width="682" height="400" viewBox="0 0 682 400" fill="none" xmlns="http://www.w3.org/2000/svg">
<path d="M64 44C64 37.3726 69.3726 32 76 32H606C612.627 32 618 37.3726 618 44V356C618 362.627 612.627 368 606 368H76C69.3726 368 64 362.627 64 356V44Z" fill="#013216" fill-opacity="0.75"/>
<path d="M132.808 83.604C139.384 83.604 144.496 84.972 148.144 87.708C151.792 90.444 153.616 94.5 153.616 99.876C153.616 105.492 151.816 109.74 148.216 112.62C144.664 115.452 139.888 116.868 133.888 116.868H128.488V133.5H116.68V83.604H132.808ZM132.88 108.372C135.664 108.372 137.776 107.724 139.216 106.428C140.704 105.084 141.448 102.9 141.448 99.876C141.448 94.644 138.52 92.028 132.664 92.028H128.488V108.372H132.88ZM172.56 83.604V133.5H160.752V83.604H172.56ZM194.554 83.604V124.14H213.994L212.77 133.5H182.746V83.604H194.554ZM232.368 83.604V133.5H220.56V83.604H232.368ZM261.024 83.604L245.112 105.996L262.32 133.5H248.64L232.728 106.86L248.568 83.604H261.024ZM301.136 83.604C307.712 83.604 312.824 84.972 316.472 87.708C320.12 90.444 321.944 94.5 321.944 99.876C321.944 105.492 320.144 109.74 316.544 112.62C312.992 115.452 308.216 116.868 302.216 116.868H296.816V133.5H285.008V83.604H301.136ZM301.208 108.372C303.992 108.372 306.104 107.724 307.544 106.428C309.032 105.084 309.776 102.9 309.776 99.876C309.776 94.644 306.848 92.028 300.992 92.028H296.816V108.372H301.208ZM359.68 83.604L358.456 92.028H340.888V103.98H356.224V112.26H340.888V125.004H359.68V133.5H329.08V83.604H359.68ZM394.158 133.5L391.566 122.772H377.022L374.502 133.5H362.262L377.31 83.604H391.638L406.686 133.5H394.158ZM379.038 114.204H389.55L384.294 92.172L379.038 114.204ZM423.055 83.604V124.14H442.495L441.271 133.5H411.247V83.604H423.055ZM479.661 83.604L478.437 92.028H460.869V103.98H476.205V112.26H460.869V125.004H479.661V133.5H449.061V83.604H479.661ZM497.868 83.604L496.428 115.14H487.212L485.772 83.604H497.868ZM491.82 121.692C493.644 121.692 495.18 122.34 496.428 123.636C497.724 124.884 498.372 126.396 498.372 128.172C498.372 129.996 497.724 131.556 496.428 132.852C495.18 134.1 493.644 134.724 491.82 134.724C490.044 134.724 488.508 134.1 487.212 132.852C485.964 131.556 485.34 129.996 485.34 128.172C485.34 126.396 485.964 124.884 487.212 123.636C488.508 122.34 490.044 121.692 491.82 121.692Z" fill="#C5F000"/>
<path d="M137.619 178.409C137.619 181.205 137.108 183.608 136.085 185.619C135.063 187.622 133.661 189.165 131.879 190.247C130.107 191.321 128.091 191.858 125.832 191.858C123.565 191.858 121.541 191.321 119.76 190.247C117.987 189.165 116.589 187.618 115.567 185.607C114.544 183.595 114.033 181.196 114.033 178.409C114.033 175.614 114.544 173.214 115.567 171.212C116.589 169.2 117.987 167.658 119.76 166.584C121.541 165.501 123.565 164.96 125.832 164.96C128.091 164.96 130.107 165.501 131.879 166.584C133.661 167.658 135.063 169.2 136.085 171.212C137.108 173.214 137.619 175.614 137.619 178.409ZM133.707 178.409C133.707 176.278 133.362 174.484 132.672 173.027C131.99 171.561 131.053 170.453 129.859 169.703C128.675 168.945 127.332 168.565 125.832 168.565C124.324 168.565 122.977 168.945 121.793 169.703C120.608 170.453 119.67 171.561 118.98 173.027C118.298 174.484 117.957 176.278 117.957 178.409C117.957 180.54 118.298 182.338 118.98 183.804C119.67 185.261 120.608 186.369 121.793 187.128C122.977 187.878 124.324 188.253 125.832 188.253C127.332 188.253 128.675 187.878 129.859 187.128C131.053 186.369 131.99 185.261 132.672 183.804C133.362 182.338 133.707 180.54 133.707 178.409ZM121.984 162.723L119.402 162.634C119.402 161.227 119.786 160.102 120.553 159.259C121.32 158.415 122.261 157.989 123.378 157.98C123.906 157.98 124.366 158.07 124.759 158.249C125.151 158.419 125.517 158.619 125.858 158.849C126.199 159.08 126.544 159.284 126.893 159.463C127.243 159.634 127.631 159.719 128.057 159.719C128.543 159.71 128.939 159.523 129.246 159.156C129.561 158.781 129.719 158.317 129.719 157.763L132.25 157.929C132.241 159.352 131.854 160.473 131.087 161.291C130.328 162.101 129.391 162.506 128.274 162.506C127.669 162.506 127.166 162.42 126.766 162.25C126.365 162.071 126.011 161.871 125.705 161.649C125.398 161.419 125.082 161.219 124.759 161.048C124.435 160.869 124.047 160.78 123.595 160.78C123.126 160.78 122.739 160.963 122.432 161.33C122.134 161.696 121.984 162.161 121.984 162.723ZM145.61 179.841V191.5H141.788V165.318H145.559V175.06H145.802C146.262 174.003 146.965 173.163 147.911 172.541C148.857 171.919 150.093 171.608 151.619 171.608C152.965 171.608 154.141 171.885 155.147 172.439C156.161 172.993 156.945 173.82 157.499 174.919C158.062 176.01 158.343 177.374 158.343 179.01V191.5H154.521V179.47C154.521 178.03 154.15 176.913 153.408 176.121C152.667 175.32 151.636 174.919 150.315 174.919C149.411 174.919 148.601 175.111 147.886 175.494C147.178 175.878 146.62 176.44 146.211 177.182C145.81 177.915 145.61 178.801 145.61 179.841ZM172.16 171.864V174.932H161.434V171.864H172.16ZM164.311 167.159H168.133V185.734C168.133 186.476 168.244 187.034 168.465 187.409C168.687 187.776 168.973 188.027 169.322 188.163C169.68 188.291 170.068 188.355 170.485 188.355C170.792 188.355 171.061 188.334 171.291 188.291C171.521 188.249 171.7 188.214 171.828 188.189L172.518 191.347C172.296 191.432 171.981 191.517 171.572 191.602C171.163 191.696 170.651 191.747 170.038 191.756C169.032 191.773 168.095 191.594 167.225 191.219C166.356 190.844 165.653 190.264 165.116 189.48C164.579 188.696 164.311 187.712 164.311 186.527V167.159ZM188.377 183.357V171.864H192.213V191.5H188.454V188.099H188.249C187.798 189.148 187.073 190.021 186.076 190.72C185.088 191.411 183.856 191.756 182.382 191.756C181.12 191.756 180.004 191.479 179.032 190.925C178.069 190.362 177.311 189.531 176.757 188.432C176.211 187.332 175.938 185.973 175.938 184.354V171.864H179.761V183.893C179.761 185.232 180.132 186.297 180.873 187.089C181.614 187.882 182.578 188.278 183.762 188.278C184.478 188.278 185.19 188.099 185.897 187.741C186.613 187.384 187.205 186.842 187.674 186.118C188.151 185.393 188.386 184.473 188.377 183.357ZM200.721 165.318V191.5H196.899V165.318H200.721ZM213.876 191.896C211.942 191.896 210.276 191.483 208.878 190.656C207.489 189.821 206.415 188.649 205.656 187.141C204.906 185.624 204.531 183.847 204.531 181.81C204.531 179.798 204.906 178.026 205.656 176.491C206.415 174.957 207.472 173.76 208.827 172.899C210.19 172.038 211.784 171.608 213.608 171.608C214.716 171.608 215.79 171.791 216.83 172.158C217.869 172.524 218.803 173.099 219.629 173.884C220.456 174.668 221.108 175.686 221.585 176.939C222.063 178.183 222.301 179.696 222.301 181.477V182.832H206.692V179.969H218.555C218.555 178.963 218.351 178.072 217.942 177.297C217.533 176.513 216.957 175.895 216.216 175.443C215.483 174.991 214.622 174.766 213.634 174.766C212.56 174.766 211.622 175.03 210.821 175.558C210.028 176.078 209.415 176.76 208.98 177.604C208.554 178.439 208.341 179.347 208.341 180.327V182.564C208.341 183.876 208.571 184.993 209.031 185.913C209.5 186.834 210.152 187.537 210.987 188.023C211.822 188.5 212.798 188.739 213.915 188.739C214.639 188.739 215.3 188.636 215.896 188.432C216.493 188.219 217.009 187.903 217.443 187.486C217.878 187.068 218.21 186.553 218.44 185.939L222.058 186.591C221.768 187.656 221.249 188.589 220.499 189.391C219.757 190.183 218.824 190.801 217.699 191.244C216.582 191.679 215.308 191.896 213.876 191.896ZM229.915 179.841V191.5H226.092V165.318H229.864V175.06H230.106C230.567 174.003 231.27 173.163 232.216 172.541C233.162 171.919 234.398 171.608 235.923 171.608C237.27 171.608 238.446 171.885 239.452 172.439C240.466 172.993 241.25 173.82 241.804 174.919C242.366 176.01 242.648 177.374 242.648 179.01V191.5H238.825V179.47C238.825 178.03 238.454 176.913 237.713 176.121C236.972 175.32 235.94 174.919 234.619 174.919C233.716 174.919 232.906 175.111 232.19 175.494C231.483 175.878 230.925 176.44 230.516 177.182C230.115 177.915 229.915 178.801 229.915 179.841ZM256.465 171.864V174.932H245.739V171.864H256.465ZM248.615 167.159H252.438V185.734C252.438 186.476 252.549 187.034 252.77 187.409C252.992 187.776 253.277 188.027 253.627 188.163C253.985 188.291 254.372 188.355 254.79 188.355C255.097 188.355 255.365 188.334 255.595 188.291C255.826 188.249 256.004 188.214 256.132 188.189L256.823 191.347C256.601 191.432 256.286 191.517 255.877 191.602C255.468 191.696 254.956 191.747 254.343 191.756C253.337 191.773 252.399 191.594 251.53 191.219C250.661 190.844 249.958 190.264 249.421 189.48C248.884 188.696 248.615 187.712 248.615 186.527V167.159ZM286.119 171.864L278.998 191.5H274.907L267.774 171.864H271.877L276.85 186.974H277.055L282.015 171.864H286.119ZM294.413 191.935C293.169 191.935 292.044 191.705 291.038 191.244C290.032 190.776 289.235 190.098 288.647 189.212C288.068 188.325 287.778 187.239 287.778 185.952C287.778 184.844 287.991 183.932 288.417 183.216C288.843 182.5 289.419 181.933 290.143 181.516C290.868 181.098 291.677 180.783 292.572 180.57C293.467 180.357 294.379 180.195 295.308 180.084C296.484 179.947 297.439 179.837 298.172 179.751C298.904 179.658 299.437 179.509 299.77 179.304C300.102 179.099 300.268 178.767 300.268 178.307V178.217C300.268 177.101 299.953 176.236 299.322 175.622C298.7 175.009 297.771 174.702 296.535 174.702C295.248 174.702 294.234 174.987 293.493 175.558C292.76 176.121 292.252 176.747 291.971 177.438L288.379 176.619C288.805 175.426 289.427 174.463 290.245 173.73C291.072 172.989 292.022 172.452 293.096 172.119C294.17 171.778 295.299 171.608 296.484 171.608C297.268 171.608 298.099 171.702 298.977 171.889C299.863 172.068 300.69 172.401 301.457 172.886C302.233 173.372 302.868 174.067 303.362 174.97C303.856 175.865 304.103 177.028 304.103 178.46V191.5H300.37V188.815H300.217C299.97 189.31 299.599 189.795 299.105 190.273C298.61 190.75 297.975 191.146 297.2 191.462C296.424 191.777 295.495 191.935 294.413 191.935ZM295.244 188.866C296.301 188.866 297.204 188.658 297.954 188.24C298.713 187.822 299.288 187.277 299.68 186.604C300.081 185.922 300.281 185.193 300.281 184.418V181.886C300.145 182.023 299.88 182.151 299.488 182.27C299.105 182.381 298.666 182.479 298.172 182.564C297.677 182.641 297.196 182.713 296.727 182.781C296.258 182.841 295.866 182.892 295.551 182.935C294.809 183.028 294.132 183.186 293.518 183.408C292.913 183.629 292.427 183.949 292.061 184.366C291.703 184.776 291.524 185.321 291.524 186.003C291.524 186.949 291.873 187.665 292.572 188.151C293.271 188.628 294.162 188.866 295.244 188.866ZM312.567 179.841V191.5H308.745V165.318H312.516V175.06H312.759C313.219 174.003 313.922 173.163 314.868 172.541C315.814 171.919 317.05 171.608 318.576 171.608C319.922 171.608 321.098 171.885 322.104 172.439C323.118 172.993 323.902 173.82 324.456 174.919C325.019 176.01 325.3 177.374 325.3 179.01V191.5H321.478V179.47C321.478 178.03 321.107 176.913 320.365 176.121C319.624 175.32 318.593 174.919 317.272 174.919C316.368 174.919 315.559 175.111 314.843 175.494C314.135 175.878 313.577 176.44 313.168 177.182C312.767 177.915 312.567 178.801 312.567 179.841ZM338.414 191.896C336.479 191.896 334.813 191.483 333.415 190.656C332.026 189.821 330.952 188.649 330.194 187.141C329.444 185.624 329.069 183.847 329.069 181.81C329.069 179.798 329.444 178.026 330.194 176.491C330.952 174.957 332.009 173.76 333.364 172.899C334.728 172.038 336.322 171.608 338.145 171.608C339.253 171.608 340.327 171.791 341.367 172.158C342.407 172.524 343.34 173.099 344.167 173.884C344.993 174.668 345.645 175.686 346.123 176.939C346.6 178.183 346.839 179.696 346.839 181.477V182.832H331.229V179.969H343.093C343.093 178.963 342.888 178.072 342.479 177.297C342.07 176.513 341.495 175.895 340.753 175.443C340.02 174.991 339.16 174.766 338.171 174.766C337.097 174.766 336.16 175.03 335.359 175.558C334.566 176.078 333.952 176.76 333.518 177.604C333.091 178.439 332.878 179.347 332.878 180.327V182.564C332.878 183.876 333.109 184.993 333.569 185.913C334.038 186.834 334.689 187.537 335.525 188.023C336.36 188.5 337.336 188.739 338.452 188.739C339.177 188.739 339.837 188.636 340.434 188.432C341.03 188.219 341.546 187.903 341.981 187.486C342.415 187.068 342.748 186.553 342.978 185.939L346.596 186.591C346.306 187.656 345.786 188.589 345.036 189.391C344.295 190.183 343.361 190.801 342.236 191.244C341.12 191.679 339.846 191.896 338.414 191.896ZM354.452 179.841V191.5H350.63V171.864H354.299V175.06H354.542C354.993 174.02 355.701 173.185 356.664 172.554C357.635 171.923 358.858 171.608 360.333 171.608C361.671 171.608 362.843 171.889 363.849 172.452C364.854 173.006 365.634 173.832 366.188 174.932C366.742 176.031 367.019 177.391 367.019 179.01V191.5H363.197V179.47C363.197 178.047 362.826 176.935 362.084 176.134C361.343 175.324 360.324 174.919 359.029 174.919C358.143 174.919 357.354 175.111 356.664 175.494C355.982 175.878 355.441 176.44 355.04 177.182C354.648 177.915 354.452 178.801 354.452 179.841ZM379.046 191.884C377.461 191.884 376.046 191.479 374.802 190.669C373.566 189.851 372.595 188.687 371.887 187.179C371.188 185.662 370.839 183.842 370.839 181.72C370.839 179.598 371.193 177.783 371.9 176.274C372.616 174.766 373.596 173.611 374.84 172.81C376.085 172.009 377.495 171.608 379.072 171.608C380.291 171.608 381.271 171.812 382.012 172.222C382.762 172.622 383.342 173.091 383.751 173.628C384.168 174.165 384.492 174.638 384.722 175.047H384.952V165.318H388.775V191.5H385.042V188.445H384.722C384.492 188.862 384.16 189.339 383.725 189.876C383.299 190.413 382.711 190.882 381.961 191.283C381.211 191.683 380.239 191.884 379.046 191.884ZM379.89 188.624C380.989 188.624 381.918 188.334 382.677 187.754C383.444 187.166 384.024 186.352 384.416 185.312C384.816 184.273 385.016 183.062 385.016 181.682C385.016 180.318 384.82 179.125 384.428 178.102C384.036 177.08 383.461 176.283 382.702 175.712C381.944 175.141 381.006 174.855 379.89 174.855C378.739 174.855 377.781 175.153 377.014 175.75C376.247 176.347 375.667 177.161 375.275 178.192C374.891 179.223 374.7 180.386 374.7 181.682C374.7 182.994 374.896 184.175 375.288 185.223C375.68 186.271 376.259 187.102 377.026 187.716C377.802 188.321 378.756 188.624 379.89 188.624ZM399.495 191.935C398.251 191.935 397.126 191.705 396.12 191.244C395.114 190.776 394.317 190.098 393.729 189.212C393.15 188.325 392.86 187.239 392.86 185.952C392.86 184.844 393.073 183.932 393.499 183.216C393.925 182.5 394.501 181.933 395.225 181.516C395.95 181.098 396.759 180.783 397.654 180.57C398.549 180.357 399.461 180.195 400.39 180.084C401.566 179.947 402.521 179.837 403.254 179.751C403.987 179.658 404.519 179.509 404.852 179.304C405.184 179.099 405.35 178.767 405.35 178.307V178.217C405.35 177.101 405.035 176.236 404.404 175.622C403.782 175.009 402.853 174.702 401.617 174.702C400.33 174.702 399.316 174.987 398.575 175.558C397.842 176.121 397.335 176.747 397.053 177.438L393.461 176.619C393.887 175.426 394.509 174.463 395.327 173.73C396.154 172.989 397.104 172.452 398.178 172.119C399.252 171.778 400.381 171.608 401.566 171.608C402.35 171.608 403.181 171.702 404.059 171.889C404.945 172.068 405.772 172.401 406.539 172.886C407.315 173.372 407.95 174.067 408.444 174.97C408.938 175.865 409.185 177.028 409.185 178.46V191.5H405.452V188.815H405.299C405.052 189.31 404.681 189.795 404.187 190.273C403.692 190.75 403.058 191.146 402.282 191.462C401.506 191.777 400.577 191.935 399.495 191.935ZM400.326 188.866C401.383 188.866 402.286 188.658 403.036 188.24C403.795 187.822 404.37 187.277 404.762 186.604C405.163 185.922 405.363 185.193 405.363 184.418V181.886C405.227 182.023 404.962 182.151 404.57 182.27C404.187 182.381 403.748 182.479 403.254 182.564C402.759 182.641 402.278 182.713 401.809 182.781C401.34 182.841 400.948 182.892 400.633 182.935C399.891 183.028 399.214 183.186 398.6 183.408C397.995 183.629 397.509 183.949 397.143 184.366C396.785 184.776 396.606 185.321 396.606 186.003C396.606 186.949 396.955 187.665 397.654 188.151C398.353 188.628 399.244 188.866 400.326 188.866ZM414.133 191.5V165.318H417.956V175.047H418.186C418.408 174.638 418.727 174.165 419.145 173.628C419.562 173.091 420.142 172.622 420.883 172.222C421.625 171.812 422.605 171.608 423.824 171.608C425.409 171.608 426.824 172.009 428.068 172.81C429.312 173.611 430.288 174.766 430.996 176.274C431.712 177.783 432.07 179.598 432.07 181.72C432.07 183.842 431.716 185.662 431.008 187.179C430.301 188.687 429.329 189.851 428.094 190.669C426.858 191.479 425.447 191.884 423.862 191.884C422.669 191.884 421.693 191.683 420.935 191.283C420.185 190.882 419.597 190.413 419.17 189.876C418.744 189.339 418.416 188.862 418.186 188.445H417.866V191.5H414.133ZM417.879 181.682C417.879 183.062 418.079 184.273 418.48 185.312C418.881 186.352 419.46 187.166 420.219 187.754C420.977 188.334 421.906 188.624 423.006 188.624C424.148 188.624 425.102 188.321 425.869 187.716C426.636 187.102 427.216 186.271 427.608 185.223C428.008 184.175 428.209 182.994 428.209 181.682C428.209 180.386 428.013 179.223 427.621 178.192C427.237 177.161 426.658 176.347 425.882 175.75C425.115 175.153 424.156 174.855 423.006 174.855C421.898 174.855 420.96 175.141 420.193 175.712C419.435 176.283 418.859 177.08 418.467 178.102C418.075 179.125 417.879 180.318 417.879 181.682ZM444.989 171.864H448.812V192.778C448.812 194.091 448.573 195.199 448.096 196.102C447.627 197.006 446.928 197.692 445.999 198.161C445.079 198.629 443.941 198.864 442.586 198.864C442.449 198.864 442.322 198.864 442.202 198.864C442.074 198.864 441.942 198.859 441.806 198.851V195.565C441.925 195.565 442.032 195.565 442.125 195.565C442.211 195.565 442.309 195.565 442.42 195.565C443.323 195.565 443.975 195.322 444.375 194.837C444.785 194.359 444.989 193.665 444.989 192.753V171.864ZM446.881 168.834C446.216 168.834 445.645 168.612 445.168 168.169C444.699 167.717 444.465 167.18 444.465 166.558C444.465 165.928 444.699 165.391 445.168 164.947C445.645 164.496 446.216 164.27 446.881 164.27C447.546 164.27 448.113 164.496 448.581 164.947C449.059 165.391 449.297 165.928 449.297 166.558C449.297 167.18 449.059 167.717 448.581 168.169C448.113 168.612 447.546 168.834 446.881 168.834ZM459.218 191.935C457.974 191.935 456.849 191.705 455.843 191.244C454.838 190.776 454.041 190.098 453.453 189.212C452.873 188.325 452.584 187.239 452.584 185.952C452.584 184.844 452.797 183.932 453.223 183.216C453.649 182.5 454.224 181.933 454.949 181.516C455.673 181.098 456.483 180.783 457.378 180.57C458.272 180.357 459.184 180.195 460.113 180.084C461.29 179.947 462.244 179.837 462.977 179.751C463.71 179.658 464.243 179.509 464.575 179.304C464.907 179.099 465.074 178.767 465.074 178.307V178.217C465.074 177.101 464.758 176.236 464.128 175.622C463.505 175.009 462.576 174.702 461.341 174.702C460.054 174.702 459.04 174.987 458.298 175.558C457.565 176.121 457.058 176.747 456.777 177.438L453.184 176.619C453.611 175.426 454.233 174.463 455.051 173.73C455.878 172.989 456.828 172.452 457.902 172.119C458.976 171.778 460.105 171.608 461.29 171.608C462.074 171.608 462.905 171.702 463.782 171.889C464.669 172.068 465.495 172.401 466.263 172.886C467.038 173.372 467.673 174.067 468.167 174.97C468.662 175.865 468.909 177.028 468.909 178.46V191.5H465.176V188.815H465.022C464.775 189.31 464.405 189.795 463.91 190.273C463.416 190.75 462.781 191.146 462.005 191.462C461.23 191.777 460.301 191.935 459.218 191.935ZM460.049 188.866C461.106 188.866 462.01 188.658 462.76 188.24C463.518 187.822 464.093 187.277 464.486 186.604C464.886 185.922 465.086 185.193 465.086 184.418V181.886C464.95 182.023 464.686 182.151 464.294 182.27C463.91 182.381 463.471 182.479 462.977 182.564C462.483 182.641 462.001 182.713 461.532 182.781C461.064 182.841 460.672 182.892 460.356 182.935C459.615 183.028 458.937 183.186 458.324 183.408C457.718 183.629 457.233 183.949 456.866 184.366C456.508 184.776 456.329 185.321 456.329 186.003C456.329 186.949 456.679 187.665 457.378 188.151C458.076 188.628 458.967 188.866 460.049 188.866ZM477.373 165.318V191.5H473.55V165.318H477.373ZM490.298 199.273C488.738 199.273 487.396 199.068 486.271 198.659C485.154 198.25 484.242 197.709 483.535 197.036C482.828 196.362 482.299 195.625 481.95 194.824L485.235 193.469C485.465 193.844 485.772 194.24 486.156 194.658C486.548 195.084 487.076 195.446 487.741 195.744C488.414 196.043 489.279 196.192 490.336 196.192C491.785 196.192 492.983 195.838 493.929 195.131C494.875 194.432 495.348 193.315 495.348 191.781V187.92H495.105C494.875 188.338 494.542 188.803 494.108 189.314C493.681 189.825 493.093 190.268 492.343 190.643C491.593 191.018 490.617 191.206 489.416 191.206C487.865 191.206 486.467 190.844 485.223 190.119C483.987 189.386 483.007 188.308 482.282 186.885C481.566 185.453 481.208 183.693 481.208 181.605C481.208 179.517 481.562 177.727 482.269 176.236C482.985 174.744 483.965 173.602 485.21 172.81C486.454 172.009 487.865 171.608 489.441 171.608C490.66 171.608 491.644 171.812 492.394 172.222C493.144 172.622 493.728 173.091 494.146 173.628C494.572 174.165 494.9 174.638 495.13 175.047H495.411V171.864H499.157V191.935C499.157 193.622 498.765 195.007 497.981 196.089C497.197 197.172 496.136 197.973 494.798 198.493C493.468 199.013 491.968 199.273 490.298 199.273ZM490.26 188.036C491.359 188.036 492.288 187.78 493.046 187.268C493.813 186.749 494.393 186.007 494.785 185.044C495.186 184.072 495.386 182.909 495.386 181.554C495.386 180.233 495.19 179.07 494.798 178.064C494.406 177.058 493.831 176.274 493.072 175.712C492.313 175.141 491.376 174.855 490.26 174.855C489.109 174.855 488.15 175.153 487.383 175.75C486.616 176.338 486.036 177.139 485.644 178.153C485.261 179.168 485.069 180.301 485.069 181.554C485.069 182.841 485.265 183.97 485.657 184.942C486.049 185.913 486.629 186.672 487.396 187.217C488.171 187.763 489.126 188.036 490.26 188.036ZM503.834 198.864V171.864H507.567V175.047H507.886C508.108 174.638 508.427 174.165 508.845 173.628C509.263 173.091 509.842 172.622 510.584 172.222C511.325 171.812 512.305 171.608 513.524 171.608C515.109 171.608 516.524 172.009 517.768 172.81C519.013 173.611 519.989 174.766 520.696 176.274C521.412 177.783 521.77 179.598 521.77 181.72C521.77 183.842 521.416 185.662 520.709 187.179C520.001 188.687 519.03 189.851 517.794 190.669C516.558 191.479 515.148 191.884 513.562 191.884C512.369 191.884 511.393 191.683 510.635 191.283C509.885 190.882 509.297 190.413 508.871 189.876C508.444 189.339 508.116 188.862 507.886 188.445H507.656V198.864H503.834ZM507.579 181.682C507.579 183.062 507.78 184.273 508.18 185.312C508.581 186.352 509.16 187.166 509.919 187.754C510.677 188.334 511.606 188.624 512.706 188.624C513.848 188.624 514.802 188.321 515.569 187.716C516.337 187.102 516.916 186.271 517.308 185.223C517.709 184.175 517.909 182.994 517.909 181.682C517.909 180.386 517.713 179.223 517.321 178.192C516.937 177.161 516.358 176.347 515.582 175.75C514.815 175.153 513.856 174.855 512.706 174.855C511.598 174.855 510.66 175.141 509.893 175.712C509.135 176.283 508.56 177.08 508.167 178.102C507.775 179.125 507.579 180.318 507.579 181.682ZM531.317 191.935C530.073 191.935 528.948 191.705 527.942 191.244C526.936 190.776 526.139 190.098 525.551 189.212C524.972 188.325 524.682 187.239 524.682 185.952C524.682 184.844 524.895 183.932 525.321 183.216C525.747 182.5 526.323 181.933 527.047 181.516C527.771 181.098 528.581 180.783 529.476 180.57C530.371 180.357 531.283 180.195 532.212 180.084C533.388 179.947 534.342 179.837 535.075 179.751C535.808 179.658 536.341 179.509 536.673 179.304C537.006 179.099 537.172 178.767 537.172 178.307V178.217C537.172 177.101 536.857 176.236 536.226 175.622C535.604 175.009 534.675 174.702 533.439 174.702C532.152 174.702 531.138 174.987 530.396 175.558C529.663 176.121 529.156 176.747 528.875 177.438L525.283 176.619C525.709 175.426 526.331 174.463 527.149 173.73C527.976 172.989 528.926 172.452 530 172.119C531.074 171.778 532.203 171.608 533.388 171.608C534.172 171.608 535.003 171.702 535.881 171.889C536.767 172.068 537.594 172.401 538.361 172.886C539.136 173.372 539.771 174.067 540.266 174.97C540.76 175.865 541.007 177.028 541.007 178.46V191.5H537.274V188.815H537.121C536.874 189.31 536.503 189.795 536.009 190.273C535.514 190.75 534.879 191.146 534.104 191.462C533.328 191.777 532.399 191.935 531.317 191.935ZM532.148 188.866C533.205 188.866 534.108 188.658 534.858 188.24C535.617 187.822 536.192 187.277 536.584 186.604C536.985 185.922 537.185 185.193 537.185 184.418V181.886C537.048 182.023 536.784 182.151 536.392 182.27C536.009 182.381 535.57 182.479 535.075 182.564C534.581 182.641 534.1 182.713 533.631 182.781C533.162 182.841 532.77 182.892 532.455 182.935C531.713 183.028 531.036 183.186 530.422 183.408C529.817 183.629 529.331 183.949 528.965 184.366C528.607 184.776 528.428 185.321 528.428 186.003C528.428 186.949 528.777 187.665 529.476 188.151C530.175 188.628 531.065 188.866 532.148 188.866ZM549.471 165.318V191.5H545.649V165.318H549.471ZM557.986 165.318V191.5H554.163V165.318H557.986ZM562.678 191.5V171.864H566.501V191.5H562.678ZM564.609 168.834C563.944 168.834 563.373 168.612 562.896 168.169C562.427 167.717 562.192 167.18 562.192 166.558C562.192 165.928 562.427 165.391 562.896 164.947C563.373 164.496 563.944 164.27 564.609 164.27C565.273 164.27 565.84 164.496 566.309 164.947C566.786 165.391 567.025 165.928 567.025 166.558C567.025 167.18 566.786 167.717 566.309 168.169C565.84 168.612 565.273 168.834 564.609 168.834ZM114.876 210.318H119.67L128.006 230.67H128.312L136.648 210.318H141.442V236.5H137.683V217.554H137.44L129.719 236.462H126.599L118.878 217.541H118.635V236.5H114.876V210.318ZM146.735 210.318H151.529L159.864 230.67H160.171L168.506 210.318H173.3V236.5H169.542V217.554H169.299L161.577 236.462H158.458L150.736 217.541H150.494V236.5H146.735V210.318ZM178.287 236.5V216.864H182.109V236.5H178.287ZM180.217 213.834C179.552 213.834 178.981 213.612 178.504 213.169C178.035 212.717 177.801 212.18 177.801 211.558C177.801 210.928 178.035 210.391 178.504 209.947C178.981 209.496 179.552 209.27 180.217 209.27C180.882 209.27 181.449 209.496 181.917 209.947C182.395 210.391 182.633 210.928 182.633 211.558C182.633 212.18 182.395 212.717 181.917 213.169C181.449 213.612 180.882 213.834 180.217 213.834ZM190.624 210.318V236.5H186.802V210.318H190.624ZM204.483 216.864V219.932H193.757V216.864H204.483ZM196.633 212.159H200.456V230.734C200.456 231.476 200.566 232.034 200.788 232.409C201.01 232.776 201.295 233.027 201.645 233.163C202.003 233.291 202.39 233.355 202.808 233.355C203.115 233.355 203.383 233.334 203.613 233.291C203.843 233.249 204.022 233.214 204.15 233.189L204.841 236.347C204.619 236.432 204.304 236.517 203.895 236.602C203.486 236.696 202.974 236.747 202.361 236.756C201.355 236.773 200.417 236.594 199.548 236.219C198.679 235.844 197.976 235.264 197.439 234.48C196.902 233.696 196.633 232.712 196.633 231.527V212.159ZM220.854 229.839L220.828 225.173H221.493L229.317 216.864H233.894L224.97 226.324H224.37L220.854 229.839ZM217.338 236.5V210.318H221.161V236.5H217.338ZM229.739 236.5L222.708 227.168L225.341 224.496L234.431 236.5H229.739ZM244.39 236.896C242.549 236.896 240.943 236.474 239.571 235.631C238.198 234.787 237.133 233.607 236.375 232.089C235.616 230.572 235.237 228.8 235.237 226.771C235.237 224.734 235.616 222.953 236.375 221.428C237.133 219.902 238.198 218.717 239.571 217.874C240.943 217.03 242.549 216.608 244.39 216.608C246.231 216.608 247.838 217.03 249.21 217.874C250.582 218.717 251.647 219.902 252.406 221.428C253.164 222.953 253.544 224.734 253.544 226.771C253.544 228.8 253.164 230.572 252.406 232.089C251.647 233.607 250.582 234.787 249.21 235.631C247.838 236.474 246.231 236.896 244.39 236.896ZM244.403 233.688C245.596 233.688 246.585 233.372 247.369 232.741C248.153 232.111 248.732 231.271 249.107 230.223C249.491 229.175 249.683 228.02 249.683 226.759C249.683 225.506 249.491 224.355 249.107 223.307C248.732 222.25 248.153 221.402 247.369 220.763C246.585 220.124 245.596 219.804 244.403 219.804C243.201 219.804 242.204 220.124 241.411 220.763C240.627 221.402 240.044 222.25 239.66 223.307C239.285 224.355 239.098 225.506 239.098 226.759C239.098 228.02 239.285 229.175 239.66 230.223C240.044 231.271 240.627 232.111 241.411 232.741C242.204 233.372 243.201 233.688 244.403 233.688ZM240.542 214.486L237.973 214.409C237.973 212.994 238.352 211.865 239.11 211.021C239.877 210.178 240.823 209.756 241.948 209.756C242.468 209.756 242.924 209.845 243.316 210.024C243.708 210.195 244.075 210.395 244.416 210.625C244.765 210.847 245.11 211.047 245.451 211.226C245.801 211.396 246.188 211.482 246.615 211.482C247.109 211.482 247.509 211.294 247.816 210.919C248.132 210.544 248.289 210.08 248.289 209.526L250.808 209.692C250.808 211.115 250.424 212.236 249.657 213.054C248.89 213.864 247.948 214.273 246.832 214.281C246.227 214.281 245.724 214.196 245.323 214.026C244.931 213.847 244.582 213.646 244.275 213.425C243.968 213.195 243.653 212.99 243.329 212.811C243.005 212.632 242.617 212.543 242.166 212.543C241.688 212.543 241.296 212.73 240.99 213.105C240.691 213.472 240.542 213.932 240.542 214.486ZM257.36 236.5V216.864H261.183V236.5H257.36ZM259.291 213.834C258.626 213.834 258.055 213.612 257.578 213.169C257.109 212.717 256.874 212.18 256.874 211.558C256.874 210.928 257.109 210.391 257.578 209.947C258.055 209.496 258.626 209.27 259.291 209.27C259.955 209.27 260.522 209.496 260.991 209.947C261.468 210.391 261.707 210.928 261.707 211.558C261.707 212.18 261.468 212.717 260.991 213.169C260.522 213.612 259.955 213.834 259.291 213.834ZM269.391 229.839L269.365 225.173H270.03L277.854 216.864H282.43L273.507 226.324H272.906L269.391 229.839ZM265.875 236.5V210.318H269.698V236.5H265.875ZM278.276 236.5L271.244 227.168L273.878 224.496L282.967 236.5H278.276ZM293.119 236.896C291.184 236.896 289.518 236.483 288.12 235.656C286.731 234.821 285.657 233.649 284.898 232.141C284.148 230.624 283.773 228.847 283.773 226.81C283.773 224.798 284.148 223.026 284.898 221.491C285.657 219.957 286.714 218.76 288.069 217.899C289.433 217.038 291.026 216.608 292.85 216.608C293.958 216.608 295.032 216.791 296.072 217.158C297.112 217.524 298.045 218.099 298.871 218.884C299.698 219.668 300.35 220.686 300.827 221.939C301.305 223.183 301.543 224.696 301.543 226.477V227.832H285.934V224.969H297.798C297.798 223.963 297.593 223.072 297.184 222.297C296.775 221.513 296.2 220.895 295.458 220.443C294.725 219.991 293.864 219.766 292.876 219.766C291.802 219.766 290.864 220.03 290.063 220.558C289.271 221.078 288.657 221.76 288.222 222.604C287.796 223.439 287.583 224.347 287.583 225.327V227.564C287.583 228.876 287.813 229.993 288.273 230.913C288.742 231.834 289.394 232.537 290.229 233.023C291.065 233.5 292.04 233.739 293.157 233.739C293.881 233.739 294.542 233.636 295.138 233.432C295.735 233.219 296.251 232.903 296.685 232.486C297.12 232.068 297.452 231.553 297.683 230.939L301.3 231.591C301.011 232.656 300.491 233.589 299.741 234.391C298.999 235.183 298.066 235.801 296.941 236.244C295.825 236.679 294.55 236.896 293.119 236.896ZM310.307 232.92L310.116 234.314C309.988 235.337 309.771 236.402 309.464 237.51C309.165 238.626 308.854 239.662 308.53 240.616C308.215 241.571 307.955 242.33 307.751 242.892H305.04C305.151 242.364 305.305 241.648 305.501 240.744C305.697 239.849 305.888 238.848 306.076 237.74C306.263 236.632 306.404 235.503 306.498 234.352L306.626 232.92H310.307ZM323.911 236.5V216.864H327.58V220.06H327.823C328.232 218.977 328.901 218.134 329.83 217.528C330.759 216.915 331.871 216.608 333.167 216.608C334.479 216.608 335.579 216.915 336.465 217.528C337.36 218.142 338.02 218.986 338.447 220.06H338.651C339.12 219.011 339.866 218.176 340.888 217.554C341.911 216.923 343.13 216.608 344.545 216.608C346.326 216.608 347.779 217.166 348.904 218.283C350.037 219.399 350.604 221.082 350.604 223.332V236.5H346.782V223.69C346.782 222.361 346.42 221.398 345.695 220.801C344.971 220.205 344.106 219.906 343.1 219.906C341.856 219.906 340.888 220.29 340.198 221.057C339.508 221.815 339.162 222.791 339.162 223.984V236.5H335.353V223.447C335.353 222.382 335.02 221.526 334.356 220.878C333.691 220.23 332.826 219.906 331.76 219.906C331.036 219.906 330.367 220.098 329.753 220.482C329.148 220.857 328.658 221.381 328.283 222.054C327.917 222.727 327.733 223.507 327.733 224.393V236.5H323.911ZM355.277 236.5V216.864H359.1V236.5H355.277ZM357.208 213.834C356.543 213.834 355.972 213.612 355.495 213.169C355.026 212.717 354.792 212.18 354.792 211.558C354.792 210.928 355.026 210.391 355.495 209.947C355.972 209.496 356.543 209.27 357.208 209.27C357.873 209.27 358.439 209.496 358.908 209.947C359.385 210.391 359.624 210.928 359.624 211.558C359.624 212.18 359.385 212.717 358.908 213.169C358.439 213.612 357.873 213.834 357.208 213.834ZM378.507 221.658L375.042 222.271C374.897 221.828 374.667 221.406 374.352 221.006C374.045 220.605 373.627 220.277 373.099 220.021C372.571 219.766 371.91 219.638 371.118 219.638C370.035 219.638 369.132 219.881 368.407 220.366C367.683 220.844 367.321 221.462 367.321 222.22C367.321 222.876 367.564 223.405 368.049 223.805C368.535 224.206 369.319 224.534 370.402 224.79L373.521 225.506C375.328 225.923 376.674 226.567 377.561 227.436C378.447 228.305 378.89 229.435 378.89 230.824C378.89 232 378.549 233.048 377.868 233.969C377.194 234.881 376.252 235.597 375.042 236.116C373.841 236.636 372.447 236.896 370.862 236.896C368.663 236.896 366.869 236.428 365.48 235.49C364.091 234.544 363.238 233.202 362.923 231.463L366.618 230.901C366.848 231.864 367.321 232.592 368.037 233.087C368.752 233.572 369.686 233.815 370.836 233.815C372.089 233.815 373.091 233.555 373.841 233.036C374.591 232.507 374.966 231.864 374.966 231.105C374.966 230.491 374.735 229.976 374.275 229.558C373.824 229.141 373.129 228.825 372.191 228.612L368.868 227.884C367.035 227.466 365.68 226.801 364.802 225.889C363.933 224.977 363.498 223.822 363.498 222.425C363.498 221.266 363.822 220.251 364.47 219.382C365.118 218.513 366.012 217.835 367.154 217.349C368.297 216.855 369.605 216.608 371.079 216.608C373.201 216.608 374.872 217.068 376.091 217.989C377.309 218.901 378.115 220.124 378.507 221.658ZM399.992 236.896C398.151 236.896 396.544 236.474 395.172 235.631C393.8 234.787 392.735 233.607 391.976 232.089C391.218 230.572 390.838 228.8 390.838 226.771C390.838 224.734 391.218 222.953 391.976 221.428C392.735 219.902 393.8 218.717 395.172 217.874C396.544 217.03 398.151 216.608 399.992 216.608C401.833 216.608 403.439 217.03 404.811 217.874C406.183 218.717 407.249 219.902 408.007 221.428C408.766 222.953 409.145 224.734 409.145 226.771C409.145 228.8 408.766 230.572 408.007 232.089C407.249 233.607 406.183 234.787 404.811 235.631C403.439 236.474 401.833 236.896 399.992 236.896ZM400.004 233.688C401.198 233.688 402.186 233.372 402.97 232.741C403.754 232.111 404.334 231.271 404.709 230.223C405.093 229.175 405.284 228.02 405.284 226.759C405.284 225.506 405.093 224.355 404.709 223.307C404.334 222.25 403.754 221.402 402.97 220.763C402.186 220.124 401.198 219.804 400.004 219.804C398.803 219.804 397.806 220.124 397.013 220.763C396.229 221.402 395.645 222.25 395.262 223.307C394.887 224.355 394.699 225.506 394.699 226.759C394.699 228.02 394.887 229.175 395.262 230.223C395.645 231.271 396.229 232.111 397.013 232.741C397.806 233.372 398.803 233.688 400.004 233.688ZM416.784 210.318V236.5H412.962V210.318H416.784ZM433.916 228.357V216.864H437.751V236.5H433.992V233.099H433.788C433.336 234.148 432.612 235.021 431.614 235.72C430.626 236.411 429.394 236.756 427.92 236.756C426.658 236.756 425.542 236.479 424.57 235.925C423.607 235.362 422.849 234.531 422.295 233.432C421.749 232.332 421.477 230.973 421.477 229.354V216.864H425.299V228.893C425.299 230.232 425.67 231.297 426.411 232.089C427.153 232.882 428.116 233.278 429.301 233.278C430.016 233.278 430.728 233.099 431.435 232.741C432.151 232.384 432.744 231.842 433.212 231.118C433.69 230.393 433.924 229.473 433.916 228.357ZM446.259 210.318V236.5H442.437V210.318H446.259ZM450.952 236.5V216.864H454.774V236.5H450.952ZM452.882 213.834C452.217 213.834 451.646 213.612 451.169 213.169C450.7 212.717 450.466 212.18 450.466 211.558C450.466 210.928 450.7 210.391 451.169 209.947C451.646 209.496 452.217 209.27 452.882 209.27C453.547 209.27 454.114 209.496 454.582 209.947C455.06 210.391 455.298 210.928 455.298 211.558C455.298 212.18 455.06 212.717 454.582 213.169C454.114 213.612 453.547 213.834 452.882 213.834ZM463.289 224.841V236.5H459.466V216.864H463.136V220.06H463.378C463.83 219.02 464.538 218.185 465.501 217.554C466.472 216.923 467.695 216.608 469.17 216.608C470.508 216.608 471.68 216.889 472.685 217.452C473.691 218.006 474.471 218.832 475.025 219.932C475.579 221.031 475.856 222.391 475.856 224.01V236.5H472.033V224.47C472.033 223.047 471.663 221.935 470.921 221.134C470.18 220.324 469.161 219.919 467.866 219.919C466.979 219.919 466.191 220.111 465.501 220.494C464.819 220.878 464.278 221.44 463.877 222.182C463.485 222.915 463.289 223.801 463.289 224.841ZM488.995 236.896C487.061 236.896 485.394 236.483 483.997 235.656C482.607 234.821 481.534 233.649 480.775 232.141C480.025 230.624 479.65 228.847 479.65 226.81C479.65 224.798 480.025 223.026 480.775 221.491C481.534 219.957 482.59 218.76 483.945 217.899C485.309 217.038 486.903 216.608 488.727 216.608C489.835 216.608 490.909 216.791 491.948 217.158C492.988 217.524 493.921 218.099 494.748 218.884C495.575 219.668 496.227 220.686 496.704 221.939C497.181 223.183 497.42 224.696 497.42 226.477V227.832H481.811V224.969H493.674C493.674 223.963 493.47 223.072 493.061 222.297C492.651 221.513 492.076 220.895 491.335 220.443C490.602 219.991 489.741 219.766 488.752 219.766C487.678 219.766 486.741 220.03 485.94 220.558C485.147 221.078 484.534 221.76 484.099 222.604C483.673 223.439 483.46 224.347 483.46 225.327V227.564C483.46 228.876 483.69 229.993 484.15 230.913C484.619 231.834 485.271 232.537 486.106 233.023C486.941 233.5 487.917 233.739 489.034 233.739C489.758 233.739 490.418 233.636 491.015 233.432C491.612 233.219 492.127 232.903 492.562 232.486C492.997 232.068 493.329 231.553 493.559 230.939L497.177 231.591C496.887 232.656 496.367 233.589 495.617 234.391C494.876 235.183 493.943 235.801 492.818 236.244C491.701 236.679 490.427 236.896 488.995 236.896ZM506.031 210.318L505.698 228.97H502.157L501.825 210.318H506.031ZM503.934 236.743C503.227 236.743 502.622 236.496 502.119 236.001C501.616 235.499 501.369 234.893 501.377 234.186C501.369 233.487 501.616 232.891 502.119 232.396C502.622 231.893 503.227 231.642 503.934 231.642C504.624 231.642 505.221 231.893 505.724 232.396C506.227 232.891 506.482 233.487 506.491 234.186C506.482 234.655 506.359 235.085 506.12 235.477C505.89 235.861 505.583 236.168 505.2 236.398C504.816 236.628 504.394 236.743 503.934 236.743Z" fill="#F3FFAD"/>
<path d="M276.91 299.849L279.264 292.78L269.13 294.954C268.656 296.388 268.066 298.153 267.5 299.849H263.167C263.062 300.097 263.019 300.352 263.019 300.626C263.019 301.955 263.917 303.063 265.433 303.519C265.642 303.582 265.908 303.638 266.22 303.686L265.811 304.918C264.789 307.978 264.364 310.184 264.364 311.43C264.364 314.613 266.329 316.498 269.431 316.498C270.966 316.498 272.388 316.028 274.497 314.326C274.004 313.328 273.772 312.305 273.772 310.708C273.772 309.771 274.034 308.479 274.497 307.087C274.775 306.264 275.149 305.129 275.586 303.832H278.671L280 299.849H276.91Z" fill="white"/>
<path d="M257.978 299.484C254.964 299.484 250.905 302.234 250.645 302.707L254.973 289.712L245.025 291.884L237.062 315.773H246.292L249.188 307.087C249.945 304.806 250.63 304.194 251.714 304.192H251.721C252.772 304.192 253.163 305.173 252.474 307.233C252.331 307.665 251.845 309.122 251.432 310.367C251.021 311.601 250.917 312.19 250.917 313.011C250.917 314.933 252.284 316.5 255.032 316.5C256.64 316.5 258.962 315.71 260.572 314.405C260.235 313.72 260.057 312.815 260.057 311.8C260.057 311.231 260.273 310.155 260.954 308.11C261.803 305.562 261.96 304.54 261.96 303.471C261.96 300.736 260.752 299.484 257.978 299.484Z" fill="white"/>
<path d="M228.379 313.599C226.041 313.599 225.214 312.768 225.643 310.347H227.171C234.399 310.347 239.001 307.944 239.001 303.758C239.001 301.29 236.874 299.123 231.031 299.123C221.323 299.123 216.92 304.1 216.92 310.347C216.92 314.01 219.603 316.498 225.243 316.498C229.438 316.498 232.928 315.468 235.325 313.592L234.786 312.111C232.192 313.294 230.66 313.599 228.379 313.599ZM226.328 307.814C228.07 302.671 228.755 302.019 230.067 302.019C231.153 302.019 231.463 303.249 230.669 305.64C230.139 307.226 227.997 308.537 226.097 308.537C226.168 308.304 226.244 308.062 226.328 307.814Z" fill="white"/>
<path d="M220.758 289.712L210.625 291.884L206.282 304.918C205.261 307.978 204.834 310.184 204.834 311.43C204.834 314.613 206.8 316.498 209.9 316.498C211.433 316.498 212.864 316.028 214.968 314.326C214.475 313.328 214.246 312.305 214.246 310.708C214.246 309.771 214.502 308.479 214.968 307.087L220.758 289.712Z" fill="white"/>
<path d="M205.024 299.849H195.98L193.809 306.364C192.02 311.719 191.545 312.152 190.189 312.152C189.235 312.152 188.834 311.153 190.189 307.087C190.721 305.489 191.615 302.718 192.572 299.849H183.533L181.845 304.918C180.826 307.978 180.417 310.184 180.417 311.43C180.417 314.613 182.385 316.498 185.484 316.498C187.632 316.498 190.226 315.042 192.009 313.954C192.72 315.535 194.039 316.5 196.129 316.5C197.658 316.5 200.272 316.028 202.369 314.326C201.966 313.509 201.72 312.655 201.72 311.252C201.72 310.004 202.005 308.987 202.395 307.814C202.929 306.212 204.078 302.718 205.024 299.849Z" fill="white"/>
<path d="M181.914 299.849H178.824L181.181 292.78L171.049 294.954L169.415 299.849H165.081C164.981 300.097 164.933 300.352 164.933 300.626C164.938 301.955 165.834 303.063 167.347 303.519C167.556 303.582 167.823 303.638 168.137 303.686C167.979 304.156 167.841 304.573 167.729 304.918C166.704 307.978 166.283 310.184 166.283 311.43C166.283 314.613 168.244 316.498 171.348 316.498C172.881 316.498 174.307 316.028 176.414 314.326C175.919 313.328 175.689 312.305 175.689 310.708C175.689 309.771 175.951 308.479 176.414 307.087C176.689 306.264 177.064 305.129 177.5 303.832H180.585L181.914 299.849Z" fill="white"/>
<path d="M159.789 299.484C156.772 299.484 152.712 302.234 152.457 302.707L156.786 289.712L146.832 291.884L138.872 315.773H148.098L150.993 307.087C151.756 304.806 152.438 304.194 153.522 304.192C154.576 304.191 154.974 305.173 154.286 307.233C154.141 307.665 153.653 309.122 153.24 310.367C152.825 311.601 152.725 312.19 152.725 313.011C152.725 314.933 154.094 316.5 156.837 316.5C158.448 316.5 160.77 315.71 162.377 314.405C162.04 313.72 161.861 312.815 161.861 311.8C161.861 311.231 162.081 310.155 162.764 308.11C163.609 305.562 163.771 304.54 163.771 303.471C163.771 300.736 162.562 299.484 159.789 299.484Z" fill="white"/>
<path d="M130.531 291.161C121.119 291.161 112 296.861 112 307.719C112 313.053 116.887 316.5 122.087 316.5C131.498 316.5 140.619 310.798 140.619 299.943C140.619 294.607 135.73 291.161 130.531 291.161ZM128.581 303.832C125.84 312.052 125.066 312.979 123.258 312.979C121.74 312.979 121.284 312.052 124.027 303.832C126.768 295.606 127.551 294.678 129.356 294.678C130.878 294.678 131.322 295.606 128.581 303.832Z" fill="white"/>
<path d="M130.531 288.723C133.611 288.723 136.54 289.732 138.785 291.561C138.887 291.649 138.987 291.74 139.091 291.825C140.711 291.012 141.858 289.612 141.858 287.094C141.858 286.227 141.337 285.03 140.684 284.5C140.159 284.894 139.617 285.167 138.779 285.42C138.284 285.566 137.605 285.645 136.871 285.645H125.717C124.101 285.645 122.936 285.792 122.284 285.986C120.318 286.579 119.598 287.609 119.598 288.906C119.598 289.765 119.89 290.492 120.356 290.948C123.39 289.499 126.88 288.723 130.531 288.723Z" fill="white"/>
</svg>
