<svg width="770" height="100" viewBox="0 0 770 100" fill="none" xmlns="http://www.w3.org/2000/svg">
<path d="M116.775 37.4062V63H112.398V37.4062H116.775ZM124.809 37.4062V40.9219H104.436V37.4062H124.809ZM134.459 63.3516C133.053 63.3516 131.781 63.123 130.645 62.666C129.52 62.1973 128.559 61.5469 127.762 60.7148C126.977 59.8828 126.373 58.9043 125.951 57.7793C125.529 56.6543 125.318 55.4414 125.318 54.1406V53.4375C125.318 51.9492 125.535 50.6016 125.969 49.3945C126.402 48.1875 127.006 47.1562 127.779 46.3008C128.553 45.4336 129.467 44.7715 130.521 44.3145C131.576 43.8574 132.719 43.6289 133.949 43.6289C135.309 43.6289 136.498 43.8574 137.518 44.3145C138.537 44.7715 139.381 45.416 140.049 46.248C140.729 47.0684 141.232 48.0469 141.561 49.1836C141.9 50.3203 142.07 51.5742 142.07 52.9453V54.7559H127.375V51.7148H137.887V51.3809C137.863 50.6191 137.711 49.9043 137.43 49.2363C137.16 48.5684 136.744 48.0293 136.182 47.6191C135.619 47.209 134.869 47.0039 133.932 47.0039C133.229 47.0039 132.602 47.1562 132.051 47.4609C131.512 47.7539 131.061 48.1816 130.697 48.7441C130.334 49.3066 130.053 49.9863 129.854 50.7832C129.666 51.5684 129.572 52.4531 129.572 53.4375V54.1406C129.572 54.9727 129.684 55.7461 129.906 56.4609C130.141 57.1641 130.48 57.7793 130.926 58.3066C131.371 58.834 131.91 59.25 132.543 59.5547C133.176 59.8477 133.896 59.9941 134.705 59.9941C135.725 59.9941 136.633 59.7891 137.43 59.3789C138.227 58.9688 138.918 58.3887 139.504 57.6387L141.736 59.8008C141.326 60.3984 140.793 60.9727 140.137 61.5234C139.48 62.0625 138.678 62.502 137.729 62.8418C136.791 63.1816 135.701 63.3516 134.459 63.3516ZM149.91 36V63H145.656V36H149.91ZM159.086 36V63H154.832V36H159.086ZM168.262 43.9805V63H164.008V43.9805H168.262ZM163.727 38.9883C163.727 38.3438 163.938 37.8105 164.359 37.3887C164.793 36.9551 165.391 36.7383 166.152 36.7383C166.902 36.7383 167.494 36.9551 167.928 37.3887C168.361 37.8105 168.578 38.3438 168.578 38.9883C168.578 39.6211 168.361 40.1484 167.928 40.5703C167.494 40.9922 166.902 41.2031 166.152 41.2031C165.391 41.2031 164.793 40.9922 164.359 40.5703C163.938 40.1484 163.727 39.6211 163.727 38.9883ZM202.697 49.5V50.9062C202.697 52.8398 202.445 54.5742 201.941 56.1094C201.438 57.6445 200.717 58.9512 199.779 60.0293C198.854 61.1074 197.74 61.9336 196.439 62.5078C195.139 63.0703 193.697 63.3516 192.115 63.3516C190.545 63.3516 189.109 63.0703 187.809 62.5078C186.52 61.9336 185.4 61.1074 184.451 60.0293C183.502 58.9512 182.764 57.6445 182.236 56.1094C181.721 54.5742 181.463 52.8398 181.463 50.9062V49.5C181.463 47.5664 181.721 45.8379 182.236 44.3145C182.752 42.7793 183.479 41.4727 184.416 40.3945C185.365 39.3047 186.484 38.4785 187.773 37.916C189.074 37.3418 190.51 37.0547 192.08 37.0547C193.662 37.0547 195.104 37.3418 196.404 37.916C197.705 38.4785 198.824 39.3047 199.762 40.3945C200.699 41.4727 201.42 42.7793 201.924 44.3145C202.439 45.8379 202.697 47.5664 202.697 49.5ZM198.285 50.9062V49.4648C198.285 48.0352 198.145 46.7754 197.863 45.6855C197.594 44.584 197.189 43.6641 196.65 42.9258C196.123 42.1758 195.473 41.6133 194.699 41.2383C193.926 40.8516 193.053 40.6582 192.08 40.6582C191.107 40.6582 190.24 40.8516 189.479 41.2383C188.717 41.6133 188.066 42.1758 187.527 42.9258C187 43.6641 186.596 44.584 186.314 45.6855C186.033 46.7754 185.893 48.0352 185.893 49.4648V50.9062C185.893 52.3359 186.033 53.6016 186.314 54.7031C186.596 55.8047 187.006 56.7363 187.545 57.498C188.096 58.248 188.752 58.8164 189.514 59.2031C190.275 59.5781 191.143 59.7656 192.115 59.7656C193.1 59.7656 193.973 59.5781 194.734 59.2031C195.496 58.8164 196.141 58.248 196.668 57.498C197.195 56.7363 197.594 55.8047 197.863 54.7031C198.145 53.6016 198.285 52.3359 198.285 50.9062ZM195.947 30.7266L198.531 30.9199C198.531 31.7754 198.361 32.543 198.021 33.2227C197.682 33.8906 197.219 34.418 196.633 34.8047C196.047 35.1914 195.385 35.3848 194.646 35.3848C194.072 35.3848 193.586 35.3027 193.188 35.1387C192.789 34.9746 192.426 34.7871 192.098 34.5762C191.77 34.3652 191.43 34.1836 191.078 34.0312C190.738 33.8672 190.334 33.7852 189.865 33.7852C189.42 33.7852 189.039 33.9492 188.723 34.2773C188.418 34.6055 188.266 35.0449 188.266 35.5957L185.664 35.4551C185.664 34.6113 185.834 33.8496 186.174 33.1699C186.514 32.4902 186.977 31.9512 187.562 31.5527C188.148 31.1543 188.811 30.9551 189.549 30.9551C190.029 30.9551 190.463 31.0371 190.85 31.2012C191.248 31.3535 191.623 31.5352 191.975 31.7461C192.338 31.957 192.707 32.1445 193.082 32.3086C193.457 32.4727 193.873 32.5547 194.33 32.5547C194.775 32.5547 195.156 32.3848 195.473 32.0449C195.789 31.7051 195.947 31.2656 195.947 30.7266ZM210.871 36V63H206.652V36H210.871ZM210.133 52.7871L208.762 52.7695C208.773 51.457 208.955 50.2441 209.307 49.1309C209.67 48.0176 210.174 47.0508 210.818 46.2305C211.475 45.3984 212.26 44.7598 213.174 44.3145C214.088 43.8574 215.102 43.6289 216.215 43.6289C217.152 43.6289 217.996 43.7578 218.746 44.0156C219.508 44.2734 220.164 44.6895 220.715 45.2637C221.266 45.8262 221.682 46.5645 221.963 47.4785C222.256 48.3809 222.402 49.4824 222.402 50.7832V63H218.148V50.748C218.148 49.834 218.014 49.1074 217.744 48.5684C217.486 48.0293 217.105 47.6426 216.602 47.4082C216.098 47.1621 215.482 47.0391 214.756 47.0391C213.994 47.0391 213.32 47.1914 212.734 47.4961C212.16 47.8008 211.68 48.2168 211.293 48.7441C210.906 49.2715 210.613 49.8809 210.414 50.5723C210.227 51.2637 210.133 52.002 210.133 52.7871ZM235.41 43.9805V47.0742H224.688V43.9805H235.41ZM227.781 39.3223H232.018V57.7441C232.018 58.3301 232.1 58.7812 232.264 59.0977C232.439 59.4023 232.68 59.6074 232.984 59.7129C233.289 59.8184 233.646 59.8711 234.057 59.8711C234.35 59.8711 234.631 59.8535 234.9 59.8184C235.17 59.7832 235.387 59.748 235.551 59.7129L235.568 62.9473C235.217 63.0527 234.807 63.1465 234.338 63.2285C233.881 63.3105 233.354 63.3516 232.756 63.3516C231.783 63.3516 230.922 63.1816 230.172 62.8418C229.422 62.4902 228.836 61.9219 228.414 61.1367C227.992 60.3516 227.781 59.3086 227.781 58.0078V39.3223ZM250.123 58.5176V43.9805H254.377V63H250.369L250.123 58.5176ZM250.721 54.5625L252.145 54.5273C252.145 55.8047 252.004 56.9824 251.723 58.0605C251.441 59.127 251.008 60.0586 250.422 60.8555C249.836 61.6406 249.086 62.2559 248.172 62.7012C247.258 63.1348 246.162 63.3516 244.885 63.3516C243.959 63.3516 243.109 63.2168 242.336 62.9473C241.562 62.6777 240.895 62.2617 240.332 61.6992C239.781 61.1367 239.354 60.4043 239.049 59.502C238.744 58.5996 238.592 57.5215 238.592 56.2676V43.9805H242.828V56.3027C242.828 56.9941 242.91 57.5742 243.074 58.043C243.238 58.5 243.461 58.8691 243.742 59.1504C244.023 59.4316 244.352 59.6309 244.727 59.748C245.102 59.8652 245.5 59.9238 245.922 59.9238C247.129 59.9238 248.078 59.6895 248.77 59.2207C249.473 58.7402 249.971 58.0957 250.264 57.2871C250.568 56.4785 250.721 55.5703 250.721 54.5625ZM263.254 36V63H259V36H263.254ZM276.279 63.3516C274.873 63.3516 273.602 63.123 272.465 62.666C271.34 62.1973 270.379 61.5469 269.582 60.7148C268.797 59.8828 268.193 58.9043 267.771 57.7793C267.35 56.6543 267.139 55.4414 267.139 54.1406V53.4375C267.139 51.9492 267.355 50.6016 267.789 49.3945C268.223 48.1875 268.826 47.1562 269.6 46.3008C270.373 45.4336 271.287 44.7715 272.342 44.3145C273.396 43.8574 274.539 43.6289 275.77 43.6289C277.129 43.6289 278.318 43.8574 279.338 44.3145C280.357 44.7715 281.201 45.416 281.869 46.248C282.549 47.0684 283.053 48.0469 283.381 49.1836C283.721 50.3203 283.891 51.5742 283.891 52.9453V54.7559H269.195V51.7148H279.707V51.3809C279.684 50.6191 279.531 49.9043 279.25 49.2363C278.98 48.5684 278.564 48.0293 278.002 47.6191C277.439 47.209 276.689 47.0039 275.752 47.0039C275.049 47.0039 274.422 47.1562 273.871 47.4609C273.332 47.7539 272.881 48.1816 272.518 48.7441C272.154 49.3066 271.873 49.9863 271.674 50.7832C271.486 51.5684 271.393 52.4531 271.393 53.4375V54.1406C271.393 54.9727 271.504 55.7461 271.727 56.4609C271.961 57.1641 272.301 57.7793 272.746 58.3066C273.191 58.834 273.73 59.25 274.363 59.5547C274.996 59.8477 275.717 59.9941 276.525 59.9941C277.545 59.9941 278.453 59.7891 279.25 59.3789C280.047 58.9688 280.738 58.3887 281.324 57.6387L283.557 59.8008C283.146 60.3984 282.613 60.9727 281.957 61.5234C281.301 62.0625 280.498 62.502 279.549 62.8418C278.611 63.1816 277.521 63.3516 276.279 63.3516ZM291.379 36V63H287.16V36H291.379ZM290.641 52.7871L289.27 52.7695C289.281 51.457 289.463 50.2441 289.814 49.1309C290.178 48.0176 290.682 47.0508 291.326 46.2305C291.982 45.3984 292.768 44.7598 293.682 44.3145C294.596 43.8574 295.609 43.6289 296.723 43.6289C297.66 43.6289 298.504 43.7578 299.254 44.0156C300.016 44.2734 300.672 44.6895 301.223 45.2637C301.773 45.8262 302.189 46.5645 302.471 47.4785C302.764 48.3809 302.91 49.4824 302.91 50.7832V63H298.656V50.748C298.656 49.834 298.521 49.1074 298.252 48.5684C297.994 48.0293 297.613 47.6426 297.109 47.4082C296.605 47.1621 295.99 47.0391 295.264 47.0391C294.502 47.0391 293.828 47.1914 293.242 47.4961C292.668 47.8008 292.188 48.2168 291.801 48.7441C291.414 49.2715 291.121 49.8809 290.922 50.5723C290.734 51.2637 290.641 52.002 290.641 52.7871ZM315.918 43.9805V47.0742H305.195V43.9805H315.918ZM308.289 39.3223H312.525V57.7441C312.525 58.3301 312.607 58.7812 312.771 59.0977C312.947 59.4023 313.188 59.6074 313.492 59.7129C313.797 59.8184 314.154 59.8711 314.564 59.8711C314.857 59.8711 315.139 59.8535 315.408 59.8184C315.678 59.7832 315.895 59.748 316.059 59.7129L316.076 62.9473C315.725 63.0527 315.314 63.1465 314.846 63.2285C314.389 63.3105 313.861 63.3516 313.264 63.3516C312.291 63.3516 311.43 63.1816 310.68 62.8418C309.93 62.4902 309.344 61.9219 308.922 61.1367C308.5 60.3516 308.289 59.3086 308.289 58.0078V39.3223ZM332.986 37.4062V63H328.574V37.4062H332.986ZM348.367 37.4062L337.996 49.7285L332.09 55.9863L331.316 51.6094L335.535 46.4062L342.988 37.4062H348.367ZM343.621 63L335.201 50.8711L338.242 47.8652L348.859 63H343.621ZM355.434 43.9805V63H351.18V43.9805H355.434ZM350.898 38.9883C350.898 38.3438 351.109 37.8105 351.531 37.3887C351.965 36.9551 352.562 36.7383 353.324 36.7383C354.074 36.7383 354.666 36.9551 355.1 37.3887C355.533 37.8105 355.75 38.3438 355.75 38.9883C355.75 39.6211 355.533 40.1484 355.1 40.5703C354.666 40.9922 354.074 41.2031 353.324 41.2031C352.562 41.2031 351.965 40.9922 351.531 40.5703C351.109 40.1484 350.898 39.6211 350.898 38.9883ZM364.328 47.6016V63H360.092V43.9805H364.135L364.328 47.6016ZM370.146 43.8574L370.111 47.7949C369.854 47.748 369.572 47.7129 369.268 47.6895C368.975 47.666 368.682 47.6543 368.389 47.6543C367.662 47.6543 367.023 47.7598 366.473 47.9707C365.922 48.1699 365.459 48.4629 365.084 48.8496C364.721 49.2246 364.439 49.6816 364.24 50.2207C364.041 50.7598 363.924 51.3633 363.889 52.0312L362.922 52.1016C362.922 50.9062 363.039 49.7988 363.273 48.7793C363.508 47.7598 363.859 46.8633 364.328 46.0898C364.809 45.3164 365.406 44.7129 366.121 44.2793C366.848 43.8457 367.686 43.6289 368.635 43.6289C368.893 43.6289 369.168 43.6523 369.461 43.6992C369.766 43.7461 369.994 43.7988 370.146 43.8574ZM373.012 43.9805H377.266V64.6523C377.266 65.9531 377.043 67.0488 376.598 67.9395C376.152 68.8418 375.496 69.5215 374.629 69.9785C373.762 70.4473 372.701 70.6816 371.447 70.6816C371.072 70.6816 370.686 70.6523 370.287 70.5938C369.877 70.5469 369.49 70.4766 369.127 70.3828L369.145 67.0781C369.391 67.125 369.654 67.1602 369.936 67.1836C370.205 67.2188 370.463 67.2363 370.709 67.2363C371.213 67.2363 371.635 67.1484 371.975 66.9727C372.314 66.7969 372.572 66.5215 372.748 66.1465C372.924 65.7715 373.012 65.2734 373.012 64.6523V43.9805ZM372.643 38.9883C372.643 38.3438 372.859 37.8105 373.293 37.3887C373.727 36.9551 374.318 36.7383 375.068 36.7383C375.83 36.7383 376.422 36.9551 376.844 37.3887C377.277 37.8105 377.494 38.3438 377.494 38.9883C377.494 39.6211 377.277 40.1484 376.844 40.5703C376.422 40.9922 375.83 41.2031 375.068 41.2031C374.318 41.2031 373.727 40.9922 373.293 40.5703C372.859 40.1484 372.643 39.6211 372.643 38.9883ZM392.559 59.1855V50.1152C392.559 49.4355 392.436 48.8496 392.189 48.3574C391.943 47.8652 391.568 47.4844 391.064 47.2148C390.572 46.9453 389.951 46.8105 389.201 46.8105C388.51 46.8105 387.912 46.9277 387.408 47.1621C386.904 47.3965 386.512 47.7129 386.23 48.1113C385.949 48.5098 385.809 48.9609 385.809 49.4648H381.59C381.59 48.7148 381.771 47.9883 382.135 47.2852C382.498 46.582 383.025 45.9551 383.717 45.4043C384.408 44.8535 385.234 44.4199 386.195 44.1035C387.156 43.7871 388.234 43.6289 389.43 43.6289C390.859 43.6289 392.125 43.8691 393.227 44.3496C394.34 44.8301 395.213 45.5566 395.846 46.5293C396.49 47.4902 396.812 48.6973 396.812 50.1504V58.6055C396.812 59.4727 396.871 60.252 396.988 60.9434C397.117 61.623 397.299 62.2148 397.533 62.7188V63H393.191C392.992 62.543 392.834 61.9629 392.717 61.2598C392.611 60.5449 392.559 59.8535 392.559 59.1855ZM393.174 51.4336L393.209 54.0527H390.168C389.383 54.0527 388.691 54.1289 388.094 54.2812C387.496 54.4219 386.998 54.6328 386.6 54.9141C386.201 55.1953 385.902 55.5352 385.703 55.9336C385.504 56.332 385.404 56.7832 385.404 57.2871C385.404 57.791 385.521 58.2539 385.756 58.6758C385.99 59.0859 386.33 59.4082 386.775 59.6426C387.232 59.877 387.783 59.9941 388.428 59.9941C389.295 59.9941 390.051 59.8184 390.695 59.4668C391.352 59.1035 391.867 58.6641 392.242 58.1484C392.617 57.6211 392.816 57.123 392.84 56.6543L394.211 58.5352C394.07 59.0156 393.83 59.5312 393.49 60.082C393.15 60.6328 392.705 61.1602 392.154 61.6641C391.615 62.1562 390.965 62.5605 390.203 62.877C389.453 63.1934 388.586 63.3516 387.602 63.3516C386.359 63.3516 385.252 63.1055 384.279 62.6133C383.307 62.1094 382.545 61.4355 381.994 60.5918C381.443 59.7363 381.168 58.7695 381.168 57.6914C381.168 56.6836 381.355 55.793 381.73 55.0195C382.117 54.2344 382.68 53.5781 383.418 53.0508C384.168 52.5234 385.082 52.125 386.16 51.8555C387.238 51.5742 388.469 51.4336 389.852 51.4336H393.174ZM411.912 57.8496C411.912 57.4277 411.807 57.0469 411.596 56.707C411.385 56.3555 410.98 56.0391 410.383 55.7578C409.797 55.4766 408.93 55.2188 407.781 54.9844C406.773 54.7617 405.848 54.498 405.004 54.1934C404.172 53.877 403.457 53.4961 402.859 53.0508C402.262 52.6055 401.799 52.0781 401.471 51.4688C401.143 50.8594 400.979 50.1562 400.979 49.3594C400.979 48.5859 401.148 47.8535 401.488 47.1621C401.828 46.4707 402.314 45.8613 402.947 45.334C403.58 44.8066 404.348 44.3906 405.25 44.0859C406.164 43.7812 407.184 43.6289 408.309 43.6289C409.902 43.6289 411.268 43.8984 412.404 44.4375C413.553 44.9648 414.432 45.6855 415.041 46.5996C415.65 47.502 415.955 48.5215 415.955 49.6582H411.719C411.719 49.1543 411.59 48.6855 411.332 48.252C411.086 47.8066 410.711 47.4492 410.207 47.1797C409.703 46.8984 409.07 46.7578 408.309 46.7578C407.582 46.7578 406.979 46.875 406.498 47.1094C406.029 47.332 405.678 47.625 405.443 47.9883C405.221 48.3516 405.109 48.75 405.109 49.1836C405.109 49.5 405.168 49.7871 405.285 50.0449C405.414 50.291 405.625 50.5195 405.918 50.7305C406.211 50.9297 406.609 51.1172 407.113 51.293C407.629 51.4688 408.273 51.6387 409.047 51.8027C410.5 52.1074 411.748 52.5 412.791 52.9805C413.846 53.4492 414.654 54.0586 415.217 54.8086C415.779 55.5469 416.061 56.4844 416.061 57.6211C416.061 58.4648 415.879 59.2383 415.516 59.9414C415.164 60.6328 414.648 61.2363 413.969 61.752C413.289 62.2559 412.475 62.6484 411.525 62.9297C410.588 63.2109 409.533 63.3516 408.361 63.3516C406.639 63.3516 405.18 63.0469 403.984 62.4375C402.789 61.8164 401.881 61.0254 401.26 60.0645C400.65 59.0918 400.346 58.084 400.346 57.041H404.441C404.488 57.8262 404.705 58.4531 405.092 58.9219C405.49 59.3789 405.982 59.7129 406.568 59.9238C407.166 60.123 407.781 60.2227 408.414 60.2227C409.176 60.2227 409.814 60.123 410.33 59.9238C410.846 59.7129 411.238 59.4316 411.508 59.0801C411.777 58.7168 411.912 58.3066 411.912 57.8496ZM428.488 43.9805V47.0742H417.766V43.9805H428.488ZM420.859 39.3223H425.096V57.7441C425.096 58.3301 425.178 58.7812 425.342 59.0977C425.518 59.4023 425.758 59.6074 426.062 59.7129C426.367 59.8184 426.725 59.8711 427.135 59.8711C427.428 59.8711 427.709 59.8535 427.979 59.8184C428.248 59.7832 428.465 59.748 428.629 59.7129L428.646 62.9473C428.295 63.0527 427.885 63.1465 427.416 63.2285C426.959 63.3105 426.432 63.3516 425.834 63.3516C424.861 63.3516 424 63.1816 423.25 62.8418C422.5 62.4902 421.914 61.9219 421.492 61.1367C421.07 60.3516 420.859 59.3086 420.859 58.0078V39.3223ZM443.201 58.5176V43.9805H447.455V63H443.447L443.201 58.5176ZM443.799 54.5625L445.223 54.5273C445.223 55.8047 445.082 56.9824 444.801 58.0605C444.52 59.127 444.086 60.0586 443.5 60.8555C442.914 61.6406 442.164 62.2559 441.25 62.7012C440.336 63.1348 439.24 63.3516 437.963 63.3516C437.037 63.3516 436.188 63.2168 435.414 62.9473C434.641 62.6777 433.973 62.2617 433.41 61.6992C432.859 61.1367 432.432 60.4043 432.127 59.502C431.822 58.5996 431.67 57.5215 431.67 56.2676V43.9805H435.906V56.3027C435.906 56.9941 435.988 57.5742 436.152 58.043C436.316 58.5 436.539 58.8691 436.82 59.1504C437.102 59.4316 437.43 59.6309 437.805 59.748C438.18 59.8652 438.578 59.9238 439 59.9238C440.207 59.9238 441.156 59.6895 441.848 59.2207C442.551 58.7402 443.049 58.0957 443.342 57.2871C443.646 56.4785 443.799 55.5703 443.799 54.5625ZM462.467 57.8496C462.467 57.4277 462.361 57.0469 462.15 56.707C461.939 56.3555 461.535 56.0391 460.938 55.7578C460.352 55.4766 459.484 55.2188 458.336 54.9844C457.328 54.7617 456.402 54.498 455.559 54.1934C454.727 53.877 454.012 53.4961 453.414 53.0508C452.816 52.6055 452.354 52.0781 452.025 51.4688C451.697 50.8594 451.533 50.1562 451.533 49.3594C451.533 48.5859 451.703 47.8535 452.043 47.1621C452.383 46.4707 452.869 45.8613 453.502 45.334C454.135 44.8066 454.902 44.3906 455.805 44.0859C456.719 43.7812 457.738 43.6289 458.863 43.6289C460.457 43.6289 461.822 43.8984 462.959 44.4375C464.107 44.9648 464.986 45.6855 465.596 46.5996C466.205 47.502 466.51 48.5215 466.51 49.6582H462.273C462.273 49.1543 462.145 48.6855 461.887 48.252C461.641 47.8066 461.266 47.4492 460.762 47.1797C460.258 46.8984 459.625 46.7578 458.863 46.7578C458.137 46.7578 457.533 46.875 457.053 47.1094C456.584 47.332 456.232 47.625 455.998 47.9883C455.775 48.3516 455.664 48.75 455.664 49.1836C455.664 49.5 455.723 49.7871 455.84 50.0449C455.969 50.291 456.18 50.5195 456.473 50.7305C456.766 50.9297 457.164 51.1172 457.668 51.293C458.184 51.4688 458.828 51.6387 459.602 51.8027C461.055 52.1074 462.303 52.5 463.346 52.9805C464.4 53.4492 465.209 54.0586 465.771 54.8086C466.334 55.5469 466.615 56.4844 466.615 57.6211C466.615 58.4648 466.434 59.2383 466.07 59.9414C465.719 60.6328 465.203 61.2363 464.523 61.752C463.844 62.2559 463.029 62.6484 462.08 62.9297C461.143 63.2109 460.088 63.3516 458.916 63.3516C457.193 63.3516 455.734 63.0469 454.539 62.4375C453.344 61.8164 452.436 61.0254 451.814 60.0645C451.205 59.0918 450.9 58.084 450.9 57.041H454.996C455.043 57.8262 455.26 58.4531 455.646 58.9219C456.045 59.3789 456.537 59.7129 457.123 59.9238C457.721 60.123 458.336 60.2227 458.969 60.2227C459.73 60.2227 460.369 60.123 460.885 59.9238C461.4 59.7129 461.793 59.4316 462.062 59.0801C462.332 58.7168 462.467 58.3066 462.467 57.8496ZM478.709 63.3516C477.303 63.3516 476.031 63.123 474.895 62.666C473.77 62.1973 472.809 61.5469 472.012 60.7148C471.227 59.8828 470.623 58.9043 470.201 57.7793C469.779 56.6543 469.568 55.4414 469.568 54.1406V53.4375C469.568 51.9492 469.785 50.6016 470.219 49.3945C470.652 48.1875 471.256 47.1562 472.029 46.3008C472.803 45.4336 473.717 44.7715 474.771 44.3145C475.826 43.8574 476.969 43.6289 478.199 43.6289C479.559 43.6289 480.748 43.8574 481.768 44.3145C482.787 44.7715 483.631 45.416 484.299 46.248C484.979 47.0684 485.482 48.0469 485.811 49.1836C486.15 50.3203 486.32 51.5742 486.32 52.9453V54.7559H471.625V51.7148H482.137V51.3809C482.113 50.6191 481.961 49.9043 481.68 49.2363C481.41 48.5684 480.994 48.0293 480.432 47.6191C479.869 47.209 479.119 47.0039 478.182 47.0039C477.479 47.0039 476.852 47.1562 476.301 47.4609C475.762 47.7539 475.311 48.1816 474.947 48.7441C474.584 49.3066 474.303 49.9863 474.104 50.7832C473.916 51.5684 473.822 52.4531 473.822 53.4375V54.1406C473.822 54.9727 473.934 55.7461 474.156 56.4609C474.391 57.1641 474.73 57.7793 475.176 58.3066C475.621 58.834 476.16 59.25 476.793 59.5547C477.426 59.8477 478.146 59.9941 478.955 59.9941C479.975 59.9941 480.883 59.7891 481.68 59.3789C482.477 58.9688 483.168 58.3887 483.754 57.6387L485.986 59.8008C485.576 60.3984 485.043 60.9727 484.387 61.5234C483.73 62.0625 482.928 62.502 481.979 62.8418C481.041 63.1816 479.951 63.3516 478.709 63.3516ZM510.191 59.0625V36H514.445V63H510.596L510.191 59.0625ZM497.816 53.7012V53.332C497.816 51.8906 497.986 50.5781 498.326 49.3945C498.666 48.1992 499.158 47.1738 499.803 46.3184C500.447 45.4512 501.232 44.7891 502.158 44.332C503.084 43.8633 504.127 43.6289 505.287 43.6289C506.436 43.6289 507.443 43.8516 508.311 44.2969C509.178 44.7422 509.916 45.3809 510.525 46.2129C511.135 47.0332 511.621 48.0176 511.984 49.166C512.348 50.3027 512.605 51.5684 512.758 52.9629V54.1406C512.605 55.5 512.348 56.7422 511.984 57.8672C511.621 58.9922 511.135 59.9648 510.525 60.7852C509.916 61.6055 509.172 62.2383 508.293 62.6836C507.426 63.1289 506.412 63.3516 505.252 63.3516C504.104 63.3516 503.066 63.1113 502.141 62.6309C501.227 62.1504 500.447 61.4766 499.803 60.6094C499.158 59.7422 498.666 58.7227 498.326 57.5508C497.986 56.3672 497.816 55.084 497.816 53.7012ZM502.053 53.332V53.7012C502.053 54.5684 502.129 55.377 502.281 56.127C502.445 56.877 502.697 57.5391 503.037 58.1133C503.377 58.6758 503.816 59.1211 504.355 59.4492C504.906 59.7656 505.562 59.9238 506.324 59.9238C507.285 59.9238 508.076 59.7129 508.697 59.291C509.318 58.8691 509.805 58.3008 510.156 57.5859C510.52 56.8594 510.766 56.0508 510.895 55.1602V51.9785C510.824 51.2871 510.678 50.6426 510.455 50.0449C510.244 49.4473 509.957 48.9258 509.594 48.4805C509.23 48.0234 508.779 47.6719 508.24 47.4258C507.713 47.168 507.086 47.0391 506.359 47.0391C505.586 47.0391 504.93 47.2031 504.391 47.5312C503.852 47.8594 503.406 48.3105 503.055 48.8848C502.715 49.459 502.463 50.127 502.299 50.8887C502.135 51.6504 502.053 52.4648 502.053 53.332ZM523.41 43.9805V63H519.156V43.9805H523.41ZM518.875 38.9883C518.875 38.3438 519.086 37.8105 519.508 37.3887C519.941 36.9551 520.539 36.7383 521.301 36.7383C522.051 36.7383 522.643 36.9551 523.076 37.3887C523.51 37.8105 523.727 38.3438 523.727 38.9883C523.727 39.6211 523.51 40.1484 523.076 40.5703C522.643 40.9922 522.051 41.2031 521.301 41.2031C520.539 41.2031 519.941 40.9922 519.508 40.5703C519.086 40.1484 518.875 39.6211 518.875 38.9883ZM540.232 43.9805H544.082V62.4727C544.082 64.1836 543.719 65.6367 542.992 66.832C542.266 68.0273 541.252 68.9355 539.951 69.5566C538.65 70.1895 537.145 70.5059 535.434 70.5059C534.707 70.5059 533.898 70.4004 533.008 70.1895C532.129 69.9785 531.273 69.6387 530.441 69.1699C529.621 68.7129 528.936 68.1094 528.385 67.3594L530.371 64.8633C531.051 65.6719 531.801 66.2637 532.621 66.6387C533.441 67.0137 534.303 67.2012 535.205 67.2012C536.178 67.2012 537.004 67.0195 537.684 66.6562C538.375 66.3047 538.908 65.7832 539.283 65.0918C539.658 64.4004 539.846 63.5566 539.846 62.5605V48.2871L540.232 43.9805ZM527.312 53.7012V53.332C527.312 51.8906 527.488 50.5781 527.84 49.3945C528.191 48.1992 528.695 47.1738 529.352 46.3184C530.008 45.4512 530.805 44.7891 531.742 44.332C532.68 43.8633 533.74 43.6289 534.924 43.6289C536.154 43.6289 537.203 43.8516 538.07 44.2969C538.949 44.7422 539.682 45.3809 540.268 46.2129C540.854 47.0332 541.311 48.0176 541.639 49.166C541.979 50.3027 542.23 51.5684 542.395 52.9629V54.1406C542.242 55.5 541.984 56.7422 541.621 57.8672C541.258 58.9922 540.777 59.9648 540.18 60.7852C539.582 61.6055 538.844 62.2383 537.965 62.6836C537.098 63.1289 536.072 63.3516 534.889 63.3516C533.729 63.3516 532.68 63.1113 531.742 62.6309C530.816 62.1504 530.02 61.4766 529.352 60.6094C528.695 59.7422 528.191 58.7227 527.84 57.5508C527.488 56.3672 527.312 55.084 527.312 53.7012ZM531.549 53.332V53.7012C531.549 54.5684 531.631 55.377 531.795 56.127C531.971 56.877 532.234 57.5391 532.586 58.1133C532.949 58.6758 533.406 59.1211 533.957 59.4492C534.52 59.7656 535.182 59.9238 535.943 59.9238C536.939 59.9238 537.754 59.7129 538.387 59.291C539.031 58.8691 539.523 58.3008 539.863 57.5859C540.215 56.8594 540.461 56.0508 540.602 55.1602V51.9785C540.531 51.2871 540.385 50.6426 540.162 50.0449C539.951 49.4473 539.664 48.9258 539.301 48.4805C538.938 48.0234 538.48 47.6719 537.93 47.4258C537.379 47.168 536.729 47.0391 535.979 47.0391C535.217 47.0391 534.555 47.2031 533.992 47.5312C533.43 47.8594 532.967 48.3105 532.604 48.8848C532.252 49.459 531.988 50.127 531.812 50.8887C531.637 51.6504 531.549 52.4648 531.549 53.332ZM553.012 43.9805V63H548.758V43.9805H553.012ZM548.477 38.9883C548.477 38.3438 548.688 37.8105 549.109 37.3887C549.543 36.9551 550.141 36.7383 550.902 36.7383C551.652 36.7383 552.244 36.9551 552.678 37.3887C553.111 37.8105 553.328 38.3438 553.328 38.9883C553.328 39.6211 553.111 40.1484 552.678 40.5703C552.244 40.9922 551.652 41.2031 550.902 41.2031C550.141 41.2031 549.543 40.9922 549.109 40.5703C548.688 40.1484 548.477 39.6211 548.477 38.9883ZM561.906 47.6367V70.3125H557.67V43.9805H561.572L561.906 47.6367ZM574.299 53.3145V53.6836C574.299 55.0664 574.135 56.3496 573.807 57.5332C573.49 58.7051 573.016 59.7305 572.383 60.6094C571.762 61.4766 570.994 62.1504 570.08 62.6309C569.166 63.1113 568.111 63.3516 566.916 63.3516C565.732 63.3516 564.695 63.1348 563.805 62.7012C562.926 62.2559 562.182 61.6289 561.572 60.8203C560.963 60.0117 560.471 59.0625 560.096 57.9727C559.732 56.8711 559.475 55.6641 559.322 54.3516V52.9277C559.475 51.5332 559.732 50.2676 560.096 49.1309C560.471 47.9941 560.963 47.0156 561.572 46.1953C562.182 45.375 562.926 44.7422 563.805 44.2969C564.684 43.8516 565.709 43.6289 566.881 43.6289C568.076 43.6289 569.137 43.8633 570.062 44.332C570.988 44.7891 571.768 45.4453 572.4 46.3008C573.033 47.1445 573.508 48.1641 573.824 49.3594C574.141 50.543 574.299 51.8613 574.299 53.3145ZM570.062 53.6836V53.3145C570.062 52.4355 569.98 51.6211 569.816 50.8711C569.652 50.1094 569.395 49.4414 569.043 48.8672C568.691 48.293 568.24 47.8477 567.689 47.5312C567.15 47.2031 566.5 47.0391 565.738 47.0391C564.988 47.0391 564.344 47.168 563.805 47.4258C563.266 47.6719 562.814 48.0176 562.451 48.4629C562.088 48.9082 561.807 49.4297 561.607 50.0273C561.408 50.6133 561.268 51.252 561.186 51.9434V55.3535C561.326 56.1973 561.566 56.9707 561.906 57.6738C562.246 58.377 562.727 58.9395 563.348 59.3613C563.98 59.7715 564.789 59.9766 565.773 59.9766C566.535 59.9766 567.186 59.8125 567.725 59.4844C568.264 59.1562 568.703 58.7051 569.043 58.1309C569.395 57.5449 569.652 56.8711 569.816 56.1094C569.98 55.3477 570.062 54.5391 570.062 53.6836ZM588.625 59.1855V50.1152C588.625 49.4355 588.502 48.8496 588.256 48.3574C588.01 47.8652 587.635 47.4844 587.131 47.2148C586.639 46.9453 586.018 46.8105 585.268 46.8105C584.576 46.8105 583.979 46.9277 583.475 47.1621C582.971 47.3965 582.578 47.7129 582.297 48.1113C582.016 48.5098 581.875 48.9609 581.875 49.4648H577.656C577.656 48.7148 577.838 47.9883 578.201 47.2852C578.564 46.582 579.092 45.9551 579.783 45.4043C580.475 44.8535 581.301 44.4199 582.262 44.1035C583.223 43.7871 584.301 43.6289 585.496 43.6289C586.926 43.6289 588.191 43.8691 589.293 44.3496C590.406 44.8301 591.279 45.5566 591.912 46.5293C592.557 47.4902 592.879 48.6973 592.879 50.1504V58.6055C592.879 59.4727 592.938 60.252 593.055 60.9434C593.184 61.623 593.365 62.2148 593.6 62.7188V63H589.258C589.059 62.543 588.9 61.9629 588.783 61.2598C588.678 60.5449 588.625 59.8535 588.625 59.1855ZM589.24 51.4336L589.275 54.0527H586.234C585.449 54.0527 584.758 54.1289 584.16 54.2812C583.562 54.4219 583.064 54.6328 582.666 54.9141C582.268 55.1953 581.969 55.5352 581.77 55.9336C581.57 56.332 581.471 56.7832 581.471 57.2871C581.471 57.791 581.588 58.2539 581.822 58.6758C582.057 59.0859 582.396 59.4082 582.842 59.6426C583.299 59.877 583.85 59.9941 584.494 59.9941C585.361 59.9941 586.117 59.8184 586.762 59.4668C587.418 59.1035 587.934 58.6641 588.309 58.1484C588.684 57.6211 588.883 57.123 588.906 56.6543L590.277 58.5352C590.137 59.0156 589.896 59.5312 589.557 60.082C589.217 60.6328 588.771 61.1602 588.221 61.6641C587.682 62.1562 587.031 62.5605 586.27 62.877C585.52 63.1934 584.652 63.3516 583.668 63.3516C582.426 63.3516 581.318 63.1055 580.346 62.6133C579.373 62.1094 578.611 61.4355 578.061 60.5918C577.51 59.7363 577.234 58.7695 577.234 57.6914C577.234 56.6836 577.422 55.793 577.797 55.0195C578.184 54.2344 578.746 53.5781 579.484 53.0508C580.234 52.5234 581.148 52.125 582.227 51.8555C583.305 51.5742 584.535 51.4336 585.918 51.4336H589.24ZM601.58 36V63H597.326V36H601.58ZM613.393 43.9805L605.113 53.1562L600.578 57.7969L599.471 54.2109L602.898 49.9746L608.277 43.9805H613.393ZM609.191 63L603.021 54.0703L605.693 51.0996L614.096 63H609.191ZM624.115 63.3516C622.709 63.3516 621.438 63.123 620.301 62.666C619.176 62.1973 618.215 61.5469 617.418 60.7148C616.633 59.8828 616.029 58.9043 615.607 57.7793C615.186 56.6543 614.975 55.4414 614.975 54.1406V53.4375C614.975 51.9492 615.191 50.6016 615.625 49.3945C616.059 48.1875 616.662 47.1562 617.436 46.3008C618.209 45.4336 619.123 44.7715 620.178 44.3145C621.232 43.8574 622.375 43.6289 623.605 43.6289C624.965 43.6289 626.154 43.8574 627.174 44.3145C628.193 44.7715 629.037 45.416 629.705 46.248C630.385 47.0684 630.889 48.0469 631.217 49.1836C631.557 50.3203 631.727 51.5742 631.727 52.9453V54.7559H617.031V51.7148H627.543V51.3809C627.52 50.6191 627.367 49.9043 627.086 49.2363C626.816 48.5684 626.4 48.0293 625.838 47.6191C625.275 47.209 624.525 47.0039 623.588 47.0039C622.885 47.0039 622.258 47.1562 621.707 47.4609C621.168 47.7539 620.717 48.1816 620.354 48.7441C619.99 49.3066 619.709 49.9863 619.51 50.7832C619.322 51.5684 619.229 52.4531 619.229 53.4375V54.1406C619.229 54.9727 619.34 55.7461 619.562 56.4609C619.797 57.1641 620.137 57.7793 620.582 58.3066C621.027 58.834 621.566 59.25 622.199 59.5547C622.832 59.8477 623.553 59.9941 624.361 59.9941C625.381 59.9941 626.289 59.7891 627.086 59.3789C627.883 58.9688 628.574 58.3887 629.16 57.6387L631.393 59.8008C630.982 60.3984 630.449 60.9727 629.793 61.5234C629.137 62.0625 628.334 62.502 627.385 62.8418C626.447 63.1816 625.357 63.3516 624.115 63.3516ZM643.75 43.9805V47.0742H633.027V43.9805H643.75ZM636.121 39.3223H640.357V57.7441C640.357 58.3301 640.439 58.7812 640.604 59.0977C640.779 59.4023 641.02 59.6074 641.324 59.7129C641.629 59.8184 641.986 59.8711 642.396 59.8711C642.689 59.8711 642.971 59.8535 643.24 59.8184C643.51 59.7832 643.727 59.748 643.891 59.7129L643.908 62.9473C643.557 63.0527 643.146 63.1465 642.678 63.2285C642.221 63.3105 641.693 63.3516 641.096 63.3516C640.123 63.3516 639.262 63.1816 638.512 62.8418C637.762 62.4902 637.176 61.9219 636.754 61.1367C636.332 60.3516 636.121 59.3086 636.121 58.0078V39.3223ZM655.738 43.9805V47.0742H645.016V43.9805H655.738ZM648.109 39.3223H652.346V57.7441C652.346 58.3301 652.428 58.7812 652.592 59.0977C652.768 59.4023 653.008 59.6074 653.312 59.7129C653.617 59.8184 653.975 59.8711 654.385 59.8711C654.678 59.8711 654.959 59.8535 655.229 59.8184C655.498 59.7832 655.715 59.748 655.879 59.7129L655.896 62.9473C655.545 63.0527 655.135 63.1465 654.666 63.2285C654.209 63.3105 653.682 63.3516 653.084 63.3516C652.111 63.3516 651.25 63.1816 650.5 62.8418C649.75 62.4902 649.164 61.9219 648.742 61.1367C648.32 60.3516 648.109 59.3086 648.109 58.0078V39.3223ZM663.895 37.4062L663.473 55.459H659.852L659.412 37.4062H663.895ZM659.289 60.9961C659.289 60.3516 659.5 59.8125 659.922 59.3789C660.355 58.9336 660.953 58.7109 661.715 58.7109C662.465 58.7109 663.057 58.9336 663.49 59.3789C663.924 59.8125 664.141 60.3516 664.141 60.9961C664.141 61.6172 663.924 62.1504 663.49 62.5957C663.057 63.0293 662.465 63.2461 661.715 63.2461C660.953 63.2461 660.355 63.0293 659.922 62.5957C659.5 62.1504 659.289 61.6172 659.289 60.9961Z" fill="white"/>
</svg>
