<svg width="770" height="100" viewBox="0 0 770 100" fill="none" xmlns="http://www.w3.org/2000/svg">
<path d="M247.489 26.688C250.689 26.688 253.462 27.1573 255.809 28.096C258.198 28.992 260.395 30.3787 262.401 32.256L257.921 37.44C256.342 36.16 254.763 35.2213 253.185 34.624C251.606 34.0267 249.921 33.728 248.128 33.728C246.166 33.728 244.587 34.1547 243.393 35.008C242.241 35.8187 241.665 36.992 241.665 38.528C241.665 39.5947 241.899 40.4693 242.369 41.152C242.881 41.8347 243.755 42.4747 244.993 43.072C246.23 43.6693 248.086 44.352 250.561 45.12C254.955 46.528 258.241 48.2773 260.417 50.368C262.593 52.416 263.681 55.36 263.681 59.2C263.681 61.9307 262.998 64.3413 261.632 66.432C260.267 68.48 258.283 70.1013 255.681 71.296C253.078 72.448 250.027 73.024 246.529 73.024C243.03 73.024 239.915 72.4693 237.185 71.36C234.454 70.2507 232.107 68.736 230.145 66.816L234.945 61.504C236.651 62.9547 238.422 64.064 240.257 64.832C242.091 65.5573 244.097 65.92 246.273 65.92C248.577 65.92 250.411 65.3867 251.777 64.32C253.185 63.2533 253.889 61.76 253.889 59.84C253.889 58.6453 253.633 57.664 253.121 56.896C252.651 56.0853 251.819 55.36 250.625 54.72C249.43 54.08 247.702 53.4187 245.441 52.736C240.619 51.2427 237.163 49.4507 235.073 47.36C233.025 45.2693 232.001 42.5387 232.001 39.168C232.001 36.6933 232.662 34.5173 233.985 32.64C235.307 30.72 237.142 29.248 239.489 28.224C241.835 27.2 244.502 26.688 247.489 26.688ZM279.58 27.712V72H270.172V27.712H279.58ZM302.489 26.688C305.689 26.688 308.462 27.1573 310.809 28.096C313.198 28.992 315.395 30.3787 317.401 32.256L312.921 37.44C311.342 36.16 309.763 35.2213 308.185 34.624C306.606 34.0267 304.921 33.728 303.128 33.728C301.166 33.728 299.587 34.1547 298.393 35.008C297.241 35.8187 296.665 36.992 296.665 38.528C296.665 39.5947 296.899 40.4693 297.369 41.152C297.881 41.8347 298.755 42.4747 299.993 43.072C301.23 43.6693 303.086 44.352 305.561 45.12C309.955 46.528 313.241 48.2773 315.417 50.368C317.593 52.416 318.681 55.36 318.681 59.2C318.681 61.9307 317.998 64.3413 316.632 66.432C315.267 68.48 313.283 70.1013 310.681 71.296C308.078 72.448 305.027 73.024 301.529 73.024C298.03 73.024 294.915 72.4693 292.185 71.36C289.454 70.2507 287.107 68.736 285.145 66.816L289.945 61.504C291.651 62.9547 293.422 64.064 295.257 64.832C297.091 65.5573 299.097 65.92 301.273 65.92C303.577 65.92 305.411 65.3867 306.777 64.32C308.185 63.2533 308.889 61.76 308.889 59.84C308.889 58.6453 308.633 57.664 308.121 56.896C307.651 56.0853 306.819 55.36 305.625 54.72C304.43 54.08 302.702 53.4187 300.441 52.736C295.619 51.2427 292.163 49.4507 290.073 47.36C288.025 45.2693 287.001 42.5387 287.001 39.168C287.001 36.6933 287.662 34.5173 288.985 32.64C290.307 30.72 292.142 29.248 294.489 28.224C296.835 27.2 299.502 26.688 302.489 26.688ZM358.26 57.408C358.26 60.4373 357.62 63.1253 356.34 65.472C355.06 67.8187 353.14 69.6747 350.58 71.04C348.063 72.3627 344.991 73.024 341.364 73.024C335.903 73.024 331.721 71.616 328.82 68.8C325.961 65.9413 324.532 62.144 324.532 57.408V27.712H333.94V56.96C333.94 59.9467 334.537 62.1867 335.732 63.68C336.927 65.1307 338.804 65.856 341.364 65.856C343.924 65.856 345.801 65.1307 346.996 63.68C348.233 62.1867 348.852 59.9467 348.852 56.96V27.712H358.26V57.408ZM392.08 27.712V64.448H409.616L408.592 72H382.672V27.712H392.08ZM429.957 26.688C434.01 26.688 437.509 27.6053 440.453 29.44C443.397 31.232 445.658 33.856 447.237 37.312C448.815 40.768 449.605 44.9493 449.605 49.856C449.605 54.6773 448.815 58.8373 447.237 62.336C445.658 65.792 443.397 68.4373 440.453 70.272C437.509 72.1067 434.01 73.024 429.957 73.024C425.903 73.024 422.383 72.128 419.397 70.336C416.453 68.5013 414.191 65.856 412.613 62.4C411.034 58.9013 410.245 54.72 410.245 49.856C410.245 45.0773 411.034 40.96 412.613 37.504C414.234 34.0053 416.517 31.3387 419.461 29.504C422.447 27.6267 425.946 26.688 429.957 26.688ZM429.957 33.728C426.714 33.728 424.261 35.008 422.597 37.568C420.975 40.128 420.165 44.224 420.165 49.856C420.165 55.488 420.997 59.584 422.661 62.144C424.325 64.704 426.757 65.984 429.957 65.984C433.199 65.984 435.631 64.7253 437.253 62.208C438.874 59.648 439.685 55.5307 439.685 49.856C439.685 44.1813 438.874 40.0853 437.253 37.568C435.631 35.008 433.199 33.728 429.957 33.728ZM483.167 27.712L482.143 34.56H466.143V46.08H480.095V52.864H466.143V65.088H483.295V72H456.735V27.712H483.167ZM513.203 48.576C516.19 49.1307 518.6 50.2187 520.435 51.84C522.312 53.4187 523.251 55.8507 523.251 59.136C523.251 63.7867 521.587 67.0933 518.259 69.056C514.931 71.0187 510.302 72 504.371 72H490.547V27.712H502.643C508.702 27.712 513.331 28.608 516.531 30.4C519.731 32.192 521.331 35.072 521.331 39.04C521.331 41.6427 520.542 43.7547 518.963 45.376C517.427 46.9547 515.507 48.0213 513.203 48.576ZM499.955 34.496V45.696H504.563C506.867 45.696 508.638 45.2267 509.875 44.288C511.112 43.3067 511.731 41.8347 511.731 39.872C511.731 37.9093 511.07 36.5227 509.747 35.712C508.424 34.9013 506.355 34.496 503.539 34.496H499.955ZM504.435 65.024C507.379 65.024 509.619 64.5973 511.155 63.744C512.691 62.848 513.459 61.184 513.459 58.752C513.459 54.3147 510.728 52.096 505.267 52.096H499.955V65.024H504.435ZM537.73 27.712L536.642 56.064H529.218L528.002 27.712H537.73ZM532.93 62.08C534.466 62.08 535.767 62.6133 536.834 63.68C537.901 64.7467 538.434 66.0267 538.434 67.52C538.434 69.0133 537.901 70.3147 536.834 71.424C535.767 72.4907 534.466 73.024 532.93 73.024C531.437 73.024 530.157 72.4907 529.09 71.424C528.023 70.3147 527.49 69.0133 527.49 67.52C527.49 66.0267 528.023 64.7467 529.09 63.68C530.157 62.6133 531.437 62.08 532.93 62.08Z" fill="#FFE80D"/>
<path d="M348.695 79.5373C356.179 79.6627 363.377 80.7646 370.943 80.8039C380.027 80.8507 389.316 79.9338 398.52 80.2214C398.81 80.2305 399.104 80.2406 399.403 80.2516C408.702 80.5875 418.121 80.8525 427.497 81.1559C436.889 81.4543 446.269 81.7727 455.675 82.0924C458.163 82.1768 460.655 82.261 463.135 82.3428C469.978 82.5634 476.787 82.5704 483.541 81.971C488.227 81.6093 492.766 80.6248 497.713 80.0183L497.675 80.0247C499.251 79.8227 500.823 79.5934 502.395 79.3389C505.148 78.9059 507.871 78.3326 510.701 77.9418C510.949 77.9096 511.202 77.8793 511.452 77.8534C513.279 77.685 515.064 77.3878 516.863 76.9952C517.148 76.9341 517.429 76.9229 517.657 76.9655C517.879 77.0101 518.03 77.1043 518.068 77.236C518.105 77.3676 518.026 77.5285 517.858 77.6832C517.684 77.8394 517.434 77.976 517.153 78.0687C515.396 78.6546 513.541 79.1684 511.718 79.534C511.472 79.587 511.219 79.6451 510.972 79.7055C508.767 80.2519 506.523 80.9636 504.252 81.5937C503.768 81.127 503.179 80.8242 502.213 80.8396C501.719 80.8477 501.019 80.9534 500.532 81.1582C500.092 81.3429 499.779 81.575 499.481 81.7951C499.167 82.0258 498.869 82.2439 498.46 82.3768C498.349 82.4129 498.239 82.4523 498.129 82.4947C498.122 82.4956 498.103 82.4993 498.097 82.5001C497.542 82.7027 497.024 83.0021 496.486 83.3231C496.256 83.4614 496.015 83.6053 495.772 83.7461C493.66 84.3101 491.475 84.9408 489.258 85.4784C488.373 85.5884 487.582 85.6806 486.902 85.8194C486.304 85.9418 485.754 86.1502 485.228 86.3797C484.878 86.4507 484.532 86.5192 484.186 86.5859C481.926 87.02 479.695 87.3769 477.426 87.6838C475.646 87.688 473.788 87.6772 471.383 87.7367C470.342 87.7621 469.306 87.7249 468.341 87.6816C466.878 87.6191 465.51 87.545 464.34 87.6475C463.976 87.679 463.598 87.682 463.211 87.669C462.778 87.6533 462.33 87.6167 461.874 87.58C460.766 87.4889 459.647 87.397 458.646 87.6252C457.998 87.769 457.443 87.9406 456.899 88.1001C456.025 88.3538 455.31 88.5749 454.618 88.5969C453.353 88.6377 452.24 88.8263 451.276 88.9921C450.094 89.1917 449.137 89.3583 448.263 89.1954C448.133 89.1706 447.984 89.1376 447.817 89.0999C446.931 88.9016 445.51 88.5843 443.475 88.7796C442.756 88.8492 442.065 89.0213 441.406 89.1898C440.44 89.4352 439.495 89.6731 438.487 89.5755C438.336 89.5609 438.179 89.497 438.035 89.4386C437.852 89.3644 437.692 89.2996 437.597 89.3572C437.321 89.5263 436.885 89.7137 436.409 89.9177C436.06 90.0675 435.688 90.2263 435.346 90.3927C432.732 90.4981 430.116 90.5966 427.498 90.6867C426.301 90.7281 425.097 90.7677 423.901 90.8056C423.284 90.5538 422.656 90.3269 421.996 90.1551C421.124 89.9305 420.013 89.8614 418.556 89.7703C417.496 89.7032 416.248 89.6241 414.805 89.4622C412.128 89.1628 409.394 89.2117 407.618 89.3533C407.252 89.3834 406.87 89.4154 406.467 89.4502C404.959 89.5808 403.053 89.7488 399.426 89.8888C399.049 89.903 398.685 89.9153 398.333 89.926C395.418 90.0131 392.927 90.024 391.001 90.0362C389.899 90.0432 388.979 90.0503 388.278 90.074C387.073 90.1146 385.597 90.1497 384.112 90.1868C381.788 90.2447 379.447 90.3073 378.12 90.3967C377.648 90.4285 377.152 90.4683 376.617 90.5107C375.132 90.6282 373.339 90.7706 370.862 90.8437C368.262 90.9201 366.649 90.8464 364.971 90.6978C364.293 90.6374 363.688 90.4171 363.074 90.1891C362.198 89.8654 361.288 89.5269 360.042 89.6065C359.753 89.6251 359.444 89.6715 359.119 89.7199C358.521 89.8088 357.88 89.9047 357.221 89.846C356.992 89.8255 356.788 89.7636 356.592 89.7029C356.376 89.6361 356.164 89.5708 355.922 89.5625C355.015 89.5317 354.14 89.5271 353.353 89.5215C352.348 89.5147 351.492 89.5061 350.974 89.4413C350.041 89.3254 349.018 89.3768 347.975 89.4263C347.183 89.4643 346.379 89.5015 345.605 89.4622C345.11 89.437 344.571 89.4192 343.994 89.4077C342.032 89.3691 339.678 89.4218 337.265 89.5414C336.087 89.5996 335.096 89.4347 333.827 89.2245C333.037 89.0938 332.139 88.9453 331.02 88.8237C330.386 88.7549 329.843 88.8578 329.342 88.9531C328.879 89.0408 328.45 89.122 328.015 89.0572C327.629 88.9999 327.392 88.7941 327.165 88.5985C326.912 88.3809 326.675 88.1763 326.268 88.2038C326.051 88.2184 325.785 88.3108 325.469 88.4206C325.344 88.464 325.211 88.51 325.07 88.5552C325.078 88.515 325.081 88.4789 325.082 88.4516C325.087 88.2584 324.675 88.1454 324.271 88.0347C324.109 87.9905 323.948 87.9468 323.817 87.8983C323.331 87.7199 322.406 87.6679 321.697 87.6561C321.397 87.6511 321.127 87.5837 320.812 87.5051C320.726 87.4837 320.637 87.4615 320.543 87.4394C320.334 87.3896 320.101 87.3408 319.823 87.3053C319.595 87.276 319.421 87.2155 319.276 87.1651C319.171 87.1285 319.081 87.0974 318.997 87.0877C318.925 87.0793 318.865 87.1333 318.797 87.194C318.749 87.2377 318.696 87.2851 318.632 87.3153C318.476 87.3874 318.287 87.4058 318.153 87.3783C318.091 87.3656 318.042 87.3429 317.994 87.3203C317.938 87.294 317.882 87.2675 317.804 87.2569C317.447 87.2083 317.095 87.2638 316.727 87.3216C316.319 87.3851 315.911 87.4517 315.448 87.3868C315.302 87.3664 315.147 87.323 314.997 87.281C314.84 87.2371 314.687 87.1947 314.556 87.1818C314.021 87.1293 313.532 87.2593 313.07 87.379C312.765 87.4586 312.476 87.5337 312.207 87.5479C311.716 87.5739 311.456 87.7363 311.261 87.8561C311.16 87.9182 311.078 87.9692 310.992 87.9838C310.914 87.9782 310.834 87.9716 310.756 87.9646C310.685 87.9515 310.611 87.9379 310.542 87.9411C310.536 87.9413 310.531 87.942 310.526 87.9422C310.089 87.8964 309.658 87.8342 309.235 87.7725C308.282 87.6341 307.332 87.4985 306.334 87.5619C306.118 87.5756 305.898 87.6424 305.673 87.7104C305.398 87.7937 305.117 87.8791 304.833 87.871C304.155 87.8518 303.468 87.7354 302.792 87.6213C301.777 87.4498 300.782 87.284 299.869 87.4626C299.567 87.5216 299.273 87.6201 298.978 87.7196C298.814 87.775 298.648 87.8309 298.482 87.8799C298.517 87.7891 298.536 87.7039 298.553 87.6245C298.59 87.4608 298.621 87.3206 298.781 87.2015C299.159 86.9201 299.588 86.5331 299.541 86.2507C299.528 86.174 299.539 86.0887 299.55 86.0027C299.579 85.7871 299.608 85.5668 299.256 85.4671C299.019 85.3999 298.41 85.2459 298.021 85.4112C297.937 85.4472 297.885 85.5185 297.828 85.5978C297.725 85.7401 297.603 85.9086 297.236 85.9485C297.174 85.9552 297.106 85.9613 297.037 85.967C296.76 85.9896 296.45 86.0148 296.334 86.1295C296.201 86.2615 296.23 86.4123 296.264 86.5881C296.308 86.817 296.36 87.0889 296.074 87.4176C296.017 87.4826 295.908 87.5052 295.826 87.5223C295.768 87.5344 295.724 87.544 295.72 87.5635C295.715 87.586 295.733 87.6325 295.757 87.6914C295.841 87.8993 295.986 88.2622 295.384 88.2798C295.222 88.2846 295.036 88.268 294.869 88.2531C294.623 88.2311 294.42 88.213 294.393 88.2726C294.383 88.2953 294.375 88.3198 294.37 88.3451C294.174 88.3389 293.979 88.3328 293.784 88.3267C293.532 88.2571 293.179 88.2652 292.739 88.2759C292.633 88.2785 292.52 88.281 292.404 88.2828C292.017 88.2708 291.637 88.2591 291.247 88.2473C290.94 88.2197 290.613 88.1735 290.269 88.0989C289.581 87.9494 288.979 87.6986 288.389 87.4539C288.14 87.3508 287.895 87.2485 287.646 87.1556C287.742 87.1426 287.829 87.1277 287.896 87.1077C288.353 86.971 288.536 86.7108 288.703 86.4712C288.815 86.3118 288.921 86.1616 289.097 86.0635C289.421 85.8839 289.384 85.6782 289.359 85.526C289.346 85.447 289.336 85.3824 289.379 85.3435C289.413 85.3123 289.492 85.297 289.575 85.2812C289.646 85.2674 289.72 85.253 289.768 85.2277C290.342 84.9204 290.167 84.747 289.912 84.4944C289.771 84.3552 289.607 84.1918 289.53 83.9687C289.464 83.7323 289.484 83.6627 289.786 83.5654C289.548 83.4506 289.315 83.3359 289.074 83.2213C288.981 83.2299 288.911 83.3038 288.813 83.4265C288.637 83.6455 288.061 83.7313 287.615 83.7987C287.408 83.83 287.228 83.8573 287.127 83.8919C286.584 84.076 286.745 84.3206 286.888 84.5357C286.967 84.6541 287.04 84.7638 286.985 84.8495C286.962 84.8861 286.996 84.9218 287.031 84.9581C287.057 84.9863 287.084 85.0148 287.086 85.0446C287.097 85.2605 286.774 85.4251 286.477 85.578C286.307 85.6656 286.145 85.7497 286.057 85.8371C286.03 85.8638 286.008 85.8909 285.988 85.9172C285.959 85.9556 285.93 85.9922 285.885 86.0239C285.783 86.096 285.57 86.1467 285.339 86.202C285.22 86.2304 285.096 86.2601 284.979 86.2946C284.829 86.3393 284.772 86.4256 284.715 86.5158C284.674 86.5796 284.632 86.6452 284.553 86.7C284.41 86.7991 284.119 86.8387 283.85 86.8756C283.733 86.8917 283.621 86.9077 283.526 86.9274C283.487 86.9354 283.469 86.9504 283.465 86.9707C283.027 87.0458 282.609 87.1225 282.195 87.198C280.16 87.5766 278.368 87.9092 275.715 87.7724C275.214 87.7468 274.685 87.771 274.133 87.8212C272.408 87.7925 270.647 87.7715 268.917 87.7629C268.558 87.5849 268.165 87.4401 267.639 87.339C266.693 87.1473 265.747 87.1491 264.608 87.1672C263.816 87.1778 262.835 87.2015 261.806 87.1733C261.542 87.169 261.294 87.1659 261.065 87.1639C260.807 87.1655 260.554 87.1709 260.342 87.1757C258.969 87.2453 257.55 87.3388 256.023 87.4974C253.906 87.7158 251.512 88.0178 249.825 88.2917C248.908 88.4386 247.921 88.4451 246.991 88.4627C245.687 88.4862 244.521 88.5272 243.894 88.9685C243.697 89.1088 243.521 89.3165 243.348 89.519C243.222 89.6638 243.107 89.8037 242.985 89.9163C242.609 89.9755 242.213 90.0411 241.84 90.1021C241.127 90.0665 240.028 90.1145 239.089 90.5789C238.686 90.6527 238.306 90.7221 237.922 90.7931C237.087 90.9499 236.267 91.1074 235.46 91.2655C235.194 91.3175 234.915 91.3736 234.646 91.4272C234.644 91.4277 234.641 91.4282 234.639 91.4286C234.108 91.5338 233.536 91.6519 233.007 91.7596C232.779 91.8063 232.548 91.854 232.315 91.9026C231.71 92.03 231.146 92.1472 230.551 92.2746C230.233 92.343 229.936 92.4058 229.624 92.473C229.124 92.5806 228.596 92.697 228.103 92.8042C227.284 92.9839 226.472 93.1637 225.653 93.3477C225.518 93.3779 225.382 93.3854 225.273 93.3665C225.165 93.3475 225.093 93.3041 225.074 93.2424C225.056 93.1807 225.091 93.1043 225.171 93.0278C225.25 92.9516 225.368 92.882 225.497 92.832C226.281 92.5281 227.06 92.229 227.846 91.9311C228.319 91.751 228.826 91.5614 229.307 91.3816C229.607 91.2697 229.892 91.1631 230.199 91.0503C230.772 90.8395 231.315 90.639 231.901 90.429C232.126 90.3478 232.349 90.2676 232.569 90.1882C233.082 90.0036 233.637 89.8091 234.153 89.6278C234.156 89.6267 234.159 89.6256 234.162 89.6245C234.422 89.5337 234.691 89.4408 234.947 89.3519C235.731 89.0806 236.529 88.8102 237.346 88.5413C237.766 88.4015 238.196 88.2613 238.637 88.1197C238.881 88.0414 239.116 87.9658 239.355 87.8898C239.487 87.8481 239.62 87.8064 239.753 87.7648C242.798 86.8069 245.856 85.9481 248.984 85.1995C252.095 84.4503 255.227 83.819 258.3 83.167C258.758 83.0702 259.202 82.9749 259.661 82.8765C262.528 82.3165 265.202 82.0575 267.937 81.7715C285.507 80.1323 303.066 79.3814 320.768 79.2821C323.363 79.2763 325.959 79.2726 328.561 79.2779C331.441 79.283 334.402 79.3034 337.292 79.3384C339.669 79.3675 342.007 79.4059 344.371 79.4558C344.913 79.4672 345.452 79.478 345.99 79.4884C346.872 79.5052 347.764 79.5214 348.695 79.5373Z" fill="#FFE80D"/>
</svg>
