<svg width="350" height="100" viewBox="0 0 350 100" fill="none" xmlns="http://www.w3.org/2000/svg">
<path d="M14 29.73C14 20.4903 21.4903 13 30.73 13H320.197C329.438 13 336.93 20.4917 336.93 29.7332V69.4663C336.93 78.7078 329.438 86.1995 320.197 86.1995H30.73C21.4903 86.1995 14 78.7092 14 69.4695V29.73Z" fill="#F20312"/>
<path d="M95.3296 38.1085C96.869 38.1085 98.1854 38.365 99.2786 38.8782C100.394 39.369 101.231 40.0495 101.789 40.9196C102.369 41.7898 102.659 42.7603 102.659 43.8312C102.659 45.1922 102.268 46.33 101.487 47.2448C100.707 48.1372 99.6244 48.7731 98.2412 49.1524C99.7583 49.3085 100.997 49.8552 101.956 50.7922C102.915 51.7293 103.395 53.0345 103.395 54.7078C103.395 56.0018 103.06 57.1731 102.391 58.2217C101.744 59.2704 100.785 60.107 99.5129 60.7317C98.2412 61.3341 96.7352 61.6353 94.9949 61.6353C91.8045 61.6353 89.3056 60.5198 87.4985 58.2887L90.0754 55.8122C90.8339 56.5707 91.5814 57.1174 92.3176 57.452C93.0539 57.7867 93.8571 57.954 94.7272 57.954C95.8874 57.954 96.8021 57.6417 97.4714 57.017C98.1631 56.3923 98.5089 55.5221 98.5089 54.4066C98.5089 53.2018 98.1854 52.3317 97.5384 51.7962C96.8914 51.2607 95.9208 50.993 94.6268 50.993H92.7861L93.3551 47.6464H94.5933C95.6419 47.6464 96.4786 47.3675 97.1033 46.8097C97.728 46.2519 98.0404 45.4711 98.0404 44.4671C98.0404 43.597 97.7503 42.9165 97.1702 42.4256C96.6125 41.9348 95.8427 41.6894 94.8611 41.6894C94.0132 41.6894 93.2324 41.8455 92.5184 42.1579C91.8045 42.4703 91.1017 42.9611 90.41 43.6304L88.0339 41.0535C90.1088 39.0901 92.5407 38.1085 95.3296 38.1085ZM120.188 53.6369C120.5 55.1763 121.069 56.303 121.895 57.017C122.743 57.7309 123.869 58.0879 125.275 58.0879C126.77 58.0879 128.376 57.6194 130.094 56.6823V60.3636C129.179 60.7875 128.309 61.0999 127.484 61.3007C126.658 61.5238 125.755 61.6353 124.773 61.6353C122.252 61.6353 120.177 60.9437 118.548 59.5604C116.942 58.1548 115.882 56.1803 115.369 53.6369H112.457L113.127 51.0599H115.235V48.55H112.457L113.127 45.9396H115.402C116.027 43.5077 117.187 41.6001 118.883 40.2169C120.601 38.8113 122.62 38.1085 124.94 38.1085C127.261 38.1085 129.358 38.7443 131.232 40.0161L129.525 42.9611C128.811 42.4926 128.108 42.1579 127.417 41.9571C126.725 41.734 125.955 41.6224 125.108 41.6224C123.947 41.6224 122.955 41.9794 122.129 42.6934C121.304 43.4073 120.69 44.4894 120.288 45.9396H128.488L127.818 48.55H120.054V51.0599H127.283L126.647 53.6369H120.188ZM149.573 33.8582L153.69 34.7953L145.859 64.7812L141.709 63.8106L149.573 33.8582ZM171.583 38.1085C173.123 38.1085 174.439 38.365 175.532 38.8782C176.648 39.369 177.484 40.0495 178.042 40.9196C178.622 41.7898 178.912 42.7603 178.912 43.8312C178.912 45.1922 178.522 46.33 177.741 47.2448C176.96 48.1372 175.878 48.7731 174.495 49.1524C176.012 49.3085 177.25 49.8552 178.21 50.7922C179.169 51.7293 179.649 53.0345 179.649 54.7078C179.649 56.0018 179.314 57.1731 178.645 58.2217C177.998 59.2704 177.038 60.107 175.766 60.7317C174.495 61.3341 172.989 61.6353 171.249 61.6353C168.058 61.6353 165.559 60.5198 163.752 58.2887L166.329 55.8122C167.088 56.5707 167.835 57.1174 168.571 57.452C169.307 57.7867 170.111 57.954 170.981 57.954C172.141 57.954 173.056 57.6417 173.725 57.017C174.417 56.3923 174.762 55.5221 174.762 54.4066C174.762 53.2018 174.439 52.3317 173.792 51.7962C173.145 51.2607 172.174 50.993 170.88 50.993H169.04L169.609 47.6464H170.847C171.896 47.6464 172.732 47.3675 173.357 46.8097C173.982 46.2519 174.294 45.4711 174.294 44.4671C174.294 43.597 174.004 42.9165 173.424 42.4256C172.866 41.9348 172.096 41.6894 171.115 41.6894C170.267 41.6894 169.486 41.8455 168.772 42.1579C168.058 42.4703 167.355 42.9611 166.664 43.6304L164.288 41.0535C166.362 39.0901 168.794 38.1085 171.583 38.1085ZM195.371 35.7658V61.0999H190.618V36.3013L195.371 35.7658ZM206.147 43.3627L200.491 51.1603L206.649 61.0999H201.261L195.538 51.3946L201.227 43.3627H206.147ZM222.602 61.0999H218.485L218.251 58.7237C217.626 59.7054 216.868 60.4417 215.975 60.9325C215.083 61.4011 214.045 61.6353 212.863 61.6353C211.257 61.6353 210.029 61.1556 209.182 60.1963C208.334 59.2146 207.91 57.8536 207.91 56.1134V43.3627H212.662V55.511C212.662 56.448 212.818 57.1174 213.131 57.519C213.443 57.8982 213.934 58.0879 214.603 58.0879C215.875 58.0879 216.957 57.3182 217.849 55.7787V43.3627H222.602V61.0999ZM241.4 61.0999H237.284L237.05 58.7237C236.425 59.7054 235.666 60.4417 234.774 60.9325C233.882 61.4011 232.844 61.6353 231.662 61.6353C230.055 61.6353 228.828 61.1556 227.98 60.1963C227.132 59.2146 226.709 57.8536 226.709 56.1134V43.3627H231.461V55.511C231.461 56.448 231.617 57.1174 231.929 57.519C232.242 57.8982 232.732 58.0879 233.402 58.0879C234.674 58.0879 235.756 57.3182 236.648 55.7787V43.3627H241.4V61.0999ZM261.036 36.3013V61.0999H256.852L256.585 58.9245C255.335 60.7317 253.64 61.6353 251.498 61.6353C249.311 61.6353 247.638 60.7987 246.478 59.1253C245.34 57.4297 244.771 55.1317 244.771 52.2313C244.771 50.4018 245.061 48.7842 245.641 47.3786C246.243 45.9508 247.091 44.8352 248.185 44.032C249.278 43.2288 250.538 42.8272 251.966 42.8272C253.617 42.8272 255.056 43.4185 256.283 44.6009V35.7658L261.036 36.3013ZM252.903 58.0879C253.595 58.0879 254.208 57.9206 254.744 57.5859C255.279 57.2289 255.793 56.6823 256.283 55.946V48.0145C255.815 47.4567 255.335 47.044 254.844 46.7763C254.376 46.4862 253.829 46.3412 253.204 46.3412C252.111 46.3412 251.252 46.8209 250.628 47.7802C250.025 48.7396 249.724 50.2233 249.724 52.2313C249.724 54.3508 249.992 55.8568 250.527 56.7492C251.085 57.6417 251.877 58.0879 252.903 58.0879Z" fill="white"/>
</svg>
