<svg width="350" height="100" viewBox="0 0 350 100" fill="none" xmlns="http://www.w3.org/2000/svg">
<path d="M49.6943 44L48.0563 37.49H38.9423L37.3043 44H30.8783L39.8243 14.936H47.3423L56.2463 44H49.6943ZM40.1183 32.912H46.8803L43.4783 19.514L40.1183 32.912ZM70.7126 21.068C72.6726 21.068 74.1986 21.67 75.2906 22.874C76.3826 24.05 76.9286 25.688 76.9286 27.788V44H70.9646V28.796C70.9646 27.592 70.7546 26.752 70.3346 26.276C69.9426 25.772 69.3406 25.52 68.5286 25.52C67.6886 25.52 66.9186 25.786 66.2186 26.318C65.5466 26.822 64.8886 27.592 64.2446 28.628V44H58.2806V21.74H63.4466L63.9086 24.554C64.8326 23.406 65.8406 22.538 66.9326 21.95C68.0526 21.362 69.3126 21.068 70.7126 21.068ZM94.5099 21.068C96.4699 21.068 97.9959 21.67 99.0879 22.874C100.18 24.05 100.726 25.688 100.726 27.788V44H94.7619V28.796C94.7619 27.592 94.5519 26.752 94.1319 26.276C93.7399 25.772 93.1379 25.52 92.3259 25.52C91.4859 25.52 90.7159 25.786 90.0159 26.318C89.3439 26.822 88.6859 27.592 88.0419 28.628V44H82.0779V21.74H87.2439L87.7059 24.554C88.6299 23.406 89.6379 22.538 90.7299 21.95C91.8499 21.362 93.1099 21.068 94.5099 21.068ZM122.885 37.826C122.885 38.694 123.011 39.338 123.263 39.758C123.515 40.15 123.935 40.444 124.523 40.64L123.263 44.588C121.947 44.476 120.869 44.168 120.029 43.664C119.217 43.16 118.587 42.376 118.139 41.312C116.683 43.552 114.457 44.672 111.461 44.672C109.249 44.672 107.485 44.042 106.169 42.782C104.881 41.494 104.237 39.828 104.237 37.784C104.237 35.348 105.119 33.486 106.883 32.198C108.647 30.91 111.181 30.266 114.485 30.266H117.047V29.174C117.047 27.802 116.739 26.85 116.123 26.318C115.507 25.786 114.485 25.52 113.057 25.52C111.489 25.52 109.529 25.912 107.177 26.696L105.833 22.706C108.605 21.614 111.349 21.068 114.065 21.068C117.089 21.068 119.315 21.726 120.743 23.042C122.171 24.33 122.885 26.262 122.885 28.838V37.826ZM113.099 40.388C114.779 40.388 116.095 39.562 117.047 37.91V33.668H115.073C111.853 33.668 110.243 34.872 110.243 37.28C110.243 38.26 110.481 39.03 110.957 39.59C111.461 40.122 112.175 40.388 113.099 40.388ZM143.592 44.672C141.772 44.672 140.358 44.154 139.35 43.118C138.342 42.054 137.838 40.556 137.838 38.624V12.878L143.802 12.206V38.456C143.802 39.436 144.208 39.926 145.02 39.926C145.468 39.926 145.86 39.842 146.196 39.674L147.414 43.916C146.266 44.42 144.992 44.672 143.592 44.672ZM168.561 32.366C168.561 32.646 168.519 33.416 168.435 34.676H154.533C154.729 36.692 155.275 38.12 156.171 38.96C157.067 39.8 158.285 40.22 159.825 40.22C160.777 40.22 161.673 40.066 162.513 39.758C163.353 39.45 164.263 38.96 165.243 38.288L167.721 41.648C165.229 43.664 162.415 44.672 159.279 44.672C155.779 44.672 153.091 43.622 151.215 41.522C149.339 39.422 148.401 36.58 148.401 32.996C148.401 30.728 148.793 28.698 149.577 26.906C150.389 25.086 151.551 23.658 153.063 22.622C154.603 21.586 156.423 21.068 158.523 21.068C161.687 21.068 164.151 22.062 165.915 24.05C167.679 26.038 168.561 28.81 168.561 32.366ZM162.639 30.686C162.639 26.99 161.309 25.142 158.649 25.142C157.417 25.142 156.451 25.604 155.751 26.528C155.079 27.424 154.673 28.894 154.533 30.938H162.639V30.686ZM184.785 21.068C186.717 21.068 188.229 21.67 189.321 22.874C190.441 24.05 191.001 25.688 191.001 27.788V44H185.037V28.796C185.037 27.592 184.827 26.752 184.407 26.276C183.987 25.772 183.385 25.52 182.601 25.52C181.033 25.52 179.605 26.542 178.317 28.586V44H172.353V12.878L178.317 12.248V24.26C179.213 23.196 180.179 22.398 181.215 21.866C182.279 21.334 183.469 21.068 184.785 21.068ZM214.967 32.366C214.967 32.646 214.925 33.416 214.841 34.676H200.939C201.135 36.692 201.681 38.12 202.577 38.96C203.473 39.8 204.691 40.22 206.231 40.22C207.183 40.22 208.079 40.066 208.919 39.758C209.759 39.45 210.669 38.96 211.649 38.288L214.127 41.648C211.635 43.664 208.821 44.672 205.685 44.672C202.185 44.672 199.497 43.622 197.621 41.522C195.745 39.422 194.807 36.58 194.807 32.996C194.807 30.728 195.199 28.698 195.983 26.906C196.795 25.086 197.957 23.658 199.469 22.622C201.009 21.586 202.829 21.068 204.929 21.068C208.093 21.068 210.557 22.062 212.321 24.05C214.085 26.038 214.967 28.81 214.967 32.366ZM209.045 30.686C209.045 26.99 207.715 25.142 205.055 25.142C203.823 25.142 202.857 25.604 202.157 26.528C201.485 27.424 201.079 28.894 200.939 30.938H209.045V30.686ZM224.722 12.206V44H218.758V12.878L224.722 12.206ZM238.246 21.74L231.148 31.526L238.876 44H232.114L224.932 31.82L232.072 21.74H238.246ZM258.897 44H253.731L253.437 41.018C252.653 42.25 251.701 43.174 250.581 43.79C249.461 44.378 248.159 44.672 246.675 44.672C244.659 44.672 243.119 44.07 242.055 42.866C240.991 41.634 240.459 39.926 240.459 37.742V21.74H246.423V36.986C246.423 38.162 246.619 39.002 247.011 39.506C247.403 39.982 248.019 40.22 248.859 40.22C250.455 40.22 251.813 39.254 252.933 37.322V21.74H258.897V44ZM282.489 44H277.323L277.029 41.018C276.245 42.25 275.293 43.174 274.173 43.79C273.053 44.378 271.751 44.672 270.267 44.672C268.251 44.672 266.711 44.07 265.647 42.866C264.583 41.634 264.051 39.926 264.051 37.742V21.74H270.015V36.986C270.015 38.162 270.211 39.002 270.603 39.506C270.995 39.982 271.611 40.22 272.451 40.22C274.047 40.22 275.405 39.254 276.525 37.322V21.74H282.489V44ZM293.397 44.672C291.577 44.672 290.163 44.154 289.155 43.118C288.147 42.054 287.643 40.556 287.643 38.624V12.878L293.607 12.206V38.456C293.607 39.436 294.013 39.926 294.825 39.926C295.273 39.926 295.665 39.842 296.001 39.674L297.219 43.916C296.071 44.42 294.797 44.672 293.397 44.672ZM318.367 32.366C318.367 32.646 318.325 33.416 318.241 34.676H304.339C304.535 36.692 305.081 38.12 305.977 38.96C306.873 39.8 308.091 40.22 309.631 40.22C310.583 40.22 311.479 40.066 312.319 39.758C313.159 39.45 314.069 38.96 315.049 38.288L317.527 41.648C315.035 43.664 312.221 44.672 309.085 44.672C305.585 44.672 302.897 43.622 301.021 41.522C299.145 39.422 298.207 36.58 298.207 32.996C298.207 30.728 298.599 28.698 299.383 26.906C300.195 25.086 301.357 23.658 302.869 22.622C304.409 21.586 306.229 21.068 308.329 21.068C311.493 21.068 313.957 22.062 315.721 24.05C317.485 26.038 318.367 28.81 318.367 32.366ZM312.445 30.686C312.445 26.99 311.115 25.142 308.455 25.142C307.223 25.142 306.257 25.604 305.557 26.528C304.885 27.424 304.479 28.894 304.339 30.938H312.445V30.686ZM71.9214 63.11C72.5934 63.11 73.3354 63.222 74.1474 63.446L73.1394 69.2C72.3554 69.004 71.6974 68.906 71.1654 68.906C69.8494 68.906 68.8274 69.368 68.0994 70.292C67.3714 71.216 66.7974 72.616 66.3774 74.492V86H60.4134V63.74H65.5794L66.1254 68.066C66.6574 66.498 67.4274 65.28 68.4354 64.412C69.4714 63.544 70.6334 63.11 71.9214 63.11ZM84.6763 63.068C88.0083 63.068 90.6123 64.118 92.4883 66.218C94.3643 68.29 95.3023 71.174 95.3023 74.87C95.3023 77.222 94.8683 79.294 94.0003 81.086C93.1603 82.85 91.9283 84.222 90.3043 85.202C88.7083 86.182 86.8183 86.672 84.6343 86.672C81.3023 86.672 78.6843 85.636 76.7803 83.564C74.9043 81.464 73.9663 78.566 73.9663 74.87C73.9663 72.518 74.3863 70.46 75.2263 68.696C76.0943 66.904 77.3263 65.518 78.9223 64.538C80.5463 63.558 82.4643 63.068 84.6763 63.068ZM84.6763 67.52C83.1643 67.52 82.0303 68.122 81.2743 69.326C80.5463 70.502 80.1823 72.35 80.1823 74.87C80.1823 77.39 80.5463 79.252 81.2743 80.456C82.0303 81.632 83.1503 82.22 84.6343 82.22C86.1183 82.22 87.2243 81.632 87.9523 80.456C88.7083 79.252 89.0863 77.39 89.0863 74.87C89.0863 72.35 88.7223 70.502 87.9943 69.326C87.2663 68.122 86.1603 67.52 84.6763 67.52ZM111.745 63.068C113.677 63.068 115.189 63.67 116.281 64.874C117.401 66.05 117.961 67.688 117.961 69.788V86H111.997V70.796C111.997 69.592 111.787 68.752 111.367 68.276C110.947 67.772 110.345 67.52 109.561 67.52C107.993 67.52 106.565 68.542 105.277 70.586V86H99.3127V54.878L105.277 54.248V66.26C106.173 65.196 107.139 64.398 108.175 63.866C109.239 63.334 110.429 63.068 111.745 63.068ZM129.074 54.206V86H123.11V54.878L129.074 54.206ZM142.598 63.74L135.5 73.526L143.228 86H136.466L129.284 73.82L136.424 63.74H142.598ZM163.672 74.366C163.672 74.646 163.63 75.416 163.546 76.676H149.644C149.84 78.692 150.386 80.12 151.282 80.96C152.178 81.8 153.396 82.22 154.936 82.22C155.888 82.22 156.784 82.066 157.624 81.758C158.464 81.45 159.374 80.96 160.354 80.288L162.832 83.648C160.34 85.664 157.526 86.672 154.39 86.672C150.89 86.672 148.202 85.622 146.326 83.522C144.45 81.422 143.512 78.58 143.512 74.996C143.512 72.728 143.904 70.698 144.688 68.906C145.5 67.086 146.662 65.658 148.174 64.622C149.714 63.586 151.534 63.068 153.634 63.068C156.798 63.068 159.262 64.062 161.026 66.05C162.79 68.038 163.672 70.81 163.672 74.366ZM157.75 72.686C157.75 68.99 156.42 67.142 153.76 67.142C152.528 67.142 151.562 67.604 150.862 68.528C150.19 69.424 149.784 70.894 149.644 72.938H157.75V72.686ZM191.53 63.068C193.294 63.068 194.708 63.67 195.772 64.874C196.864 66.078 197.41 67.716 197.41 69.788V86H191.446V70.796C191.446 68.612 190.718 67.52 189.262 67.52C188.478 67.52 187.792 67.772 187.204 68.276C186.616 68.78 186.014 69.564 185.398 70.628V86H179.434V70.796C179.434 68.612 178.706 67.52 177.25 67.52C176.466 67.52 175.78 67.786 175.192 68.318C174.604 68.822 174.016 69.592 173.428 70.628V86H167.464V63.74H172.63L173.092 66.512C173.932 65.392 174.87 64.538 175.906 63.95C176.97 63.362 178.188 63.068 179.56 63.068C180.82 63.068 181.912 63.39 182.836 64.034C183.76 64.65 184.432 65.532 184.852 66.68C185.776 65.476 186.77 64.58 187.834 63.992C188.926 63.376 190.158 63.068 191.53 63.068ZM219.662 63.068C222.798 63.068 225.486 63.964 227.726 65.756L225.458 69.158C223.582 67.982 221.734 67.394 219.914 67.394C218.934 67.394 218.178 67.576 217.646 67.94C217.114 68.304 216.848 68.794 216.848 69.41C216.848 69.858 216.96 70.236 217.184 70.544C217.436 70.852 217.884 71.146 218.528 71.426C219.2 71.706 220.194 72.042 221.51 72.434C223.862 73.078 225.612 73.946 226.76 75.038C227.908 76.102 228.482 77.572 228.482 79.448C228.482 80.932 228.048 82.22 227.18 83.312C226.34 84.404 225.192 85.244 223.736 85.832C222.28 86.392 220.656 86.672 218.864 86.672C216.988 86.672 215.28 86.392 213.74 85.832C212.2 85.244 210.884 84.446 209.792 83.438L212.732 80.162C214.608 81.618 216.596 82.346 218.696 82.346C219.816 82.346 220.698 82.136 221.342 81.716C222.014 81.268 222.35 80.666 222.35 79.91C222.35 79.322 222.224 78.86 221.972 78.524C221.72 78.188 221.258 77.88 220.586 77.6C219.914 77.292 218.864 76.942 217.436 76.55C215.196 75.934 213.53 75.066 212.438 73.946C211.374 72.798 210.842 71.384 210.842 69.704C210.842 68.444 211.206 67.31 211.934 66.302C212.662 65.294 213.684 64.51 215 63.95C216.344 63.362 217.898 63.068 219.662 63.068ZM237.806 63.74V86H231.842V63.74H237.806ZM234.782 52.274C235.846 52.274 236.714 52.61 237.386 53.282C238.086 53.926 238.436 54.752 238.436 55.76C238.436 56.768 238.086 57.608 237.386 58.28C236.714 58.924 235.846 59.246 234.782 59.246C233.718 59.246 232.85 58.924 232.178 58.28C231.506 57.608 231.17 56.768 231.17 55.76C231.17 54.752 231.506 53.926 232.178 53.282C232.85 52.61 233.718 52.274 234.782 52.274ZM250.563 63.068C253.699 63.068 256.387 63.964 258.627 65.756L256.359 69.158C254.483 67.982 252.635 67.394 250.815 67.394C249.835 67.394 249.079 67.576 248.547 67.94C248.015 68.304 247.749 68.794 247.749 69.41C247.749 69.858 247.861 70.236 248.085 70.544C248.337 70.852 248.785 71.146 249.429 71.426C250.101 71.706 251.095 72.042 252.411 72.434C254.763 73.078 256.513 73.946 257.661 75.038C258.809 76.102 259.383 77.572 259.383 79.448C259.383 80.932 258.949 82.22 258.081 83.312C257.241 84.404 256.093 85.244 254.637 85.832C253.181 86.392 251.557 86.672 249.765 86.672C247.889 86.672 246.181 86.392 244.641 85.832C243.101 85.244 241.785 84.446 240.693 83.438L243.633 80.162C245.509 81.618 247.497 82.346 249.597 82.346C250.717 82.346 251.599 82.136 252.243 81.716C252.915 81.268 253.251 80.666 253.251 79.91C253.251 79.322 253.125 78.86 252.873 78.524C252.621 78.188 252.159 77.88 251.487 77.6C250.815 77.292 249.765 76.942 248.337 76.55C246.097 75.934 244.431 75.066 243.339 73.946C242.275 72.798 241.743 71.384 241.743 69.704C241.743 68.444 242.107 67.31 242.835 66.302C243.563 65.294 244.585 64.51 245.901 63.95C247.245 63.362 248.799 63.068 250.563 63.068ZM280.972 86H275.806L275.512 83.018C274.728 84.25 273.776 85.174 272.656 85.79C271.536 86.378 270.234 86.672 268.75 86.672C266.734 86.672 265.194 86.07 264.13 84.866C263.066 83.634 262.534 81.926 262.534 79.742V63.74H268.498V78.986C268.498 80.162 268.694 81.002 269.086 81.506C269.478 81.982 270.094 82.22 270.934 82.22C272.53 82.22 273.888 81.254 275.008 79.322V63.74H280.972V86ZM291.586 56.936L290.872 75.542H286L285.202 56.936H291.586ZM288.436 79.49C289.444 79.49 290.298 79.84 290.998 80.54C291.698 81.24 292.048 82.08 292.048 83.06C292.048 84.04 291.698 84.894 290.998 85.622C290.298 86.322 289.444 86.672 288.436 86.672C287.456 86.672 286.616 86.322 285.916 85.622C285.216 84.894 284.866 84.04 284.866 83.06C284.866 82.08 285.216 81.24 285.916 80.54C286.616 79.84 287.456 79.49 288.436 79.49Z" fill="#F20312"/>
</svg>
