<svg width="350" height="100" viewBox="0 0 350 100" fill="none" xmlns="http://www.w3.org/2000/svg">
<path d="M14 29.7332C14 20.4917 21.4917 13 30.7332 13H320.203C329.442 13 336.933 20.4903 336.933 29.73V69.4695C336.933 78.7092 329.442 86.1995 320.203 86.1995H30.7332C21.4917 86.1995 14 78.7078 14 69.4663V29.7332Z" fill="#FFDF38"/>
<path d="M65.2705 37.9411L64.735 41.7898H58.8784V61.0999H53.9588V41.7898H47.801V37.9411H65.2705ZM81.1897 37.9411L80.6543 41.522H72.2877V47.546H79.5833V51.0934H72.2877V57.4855H81.2567V61.0999H67.3681V37.9411H81.1897ZM89.5503 37.9411V57.1508H98.7201L98.1846 61.0999H84.6307V37.9411H89.5503ZM106.159 37.9411V57.1508H115.329L114.794 61.0999H101.24V37.9411H106.159ZM122.768 37.9411V61.0999H117.849V37.9411H122.768ZM141.077 37.9411C144.692 37.9411 147.581 38.7666 149.745 40.4176C151.931 42.0463 153.025 45.0472 153.025 49.4201C153.025 53.7038 151.954 56.7269 149.812 58.4895C147.692 60.2297 144.97 61.0999 141.646 61.0999H135.02V37.9411H141.077ZM139.939 41.5555V57.4855H141.947C143.844 57.4855 145.305 56.9054 146.331 55.7452C147.38 54.5628 147.904 52.4544 147.904 49.4201C147.904 47.3229 147.637 45.6942 147.101 44.534C146.588 43.3738 145.896 42.593 145.026 42.1914C144.156 41.7675 143.096 41.5555 141.847 41.5555H139.939ZM161.287 37.9411V61.0999H156.368V37.9411H161.287ZM175.458 37.4057C177.02 37.4057 178.403 37.6511 179.608 38.1419C180.835 38.6105 181.973 39.2909 183.022 40.1834L180.445 42.8607C179.619 42.236 178.839 41.7786 178.102 41.4886C177.388 41.1985 176.574 41.0535 175.659 41.0535C173.897 41.0535 172.469 41.7563 171.376 43.1619C170.305 44.5452 169.769 46.6647 169.769 49.5205C169.769 52.5325 170.182 54.6966 171.007 56.013C171.855 57.307 173.16 57.954 174.923 57.954C176.195 57.954 177.344 57.6751 178.37 57.1174V51.4615H175.124L174.622 47.8806H183.156V59.2927C181.951 60.0289 180.646 60.609 179.24 61.0329C177.857 61.4345 176.451 61.6353 175.023 61.6353C171.61 61.6353 169.022 60.609 167.259 58.5564C165.497 56.5038 164.615 53.4807 164.615 49.487C164.615 46.9659 165.095 44.7906 166.054 42.9611C167.014 41.1316 168.308 39.7483 169.936 38.8113C171.587 37.8742 173.428 37.4057 175.458 37.4057ZM191.727 37.9411V61.0999H186.808V37.9411H191.727ZM203.388 37.9411C206.4 37.9411 208.732 38.5658 210.383 39.8153C212.056 41.0647 212.893 42.9276 212.893 45.4041C212.893 47.9922 212.067 49.9444 210.416 51.2607C208.765 52.5548 206.557 53.2018 203.79 53.2018H201.146V61.0999H196.227V37.9411H203.388ZM203.388 49.5874C204.816 49.5874 205.91 49.2639 206.668 48.6169C207.427 47.9699 207.806 46.899 207.806 45.4041C207.806 42.7938 206.311 41.4886 203.321 41.4886H201.146V49.5874H203.388ZM225.967 61.0999L224.662 55.9126H217.399L216.094 61.0999H210.974L218.102 37.9411H224.093L231.187 61.0999H225.967ZM218.336 52.2647H223.724L221.014 41.589L218.336 52.2647ZM237.828 37.9411V61.0999H232.909V37.9411H237.828ZM250.981 37.9411L243.25 48.3826L251.583 61.0999H245.827L238.029 48.7508L245.727 37.9411H250.981ZM267.131 37.9411L266.595 41.522H258.229V47.546H265.524V51.0934H258.229V57.4855H267.198V61.0999H253.309V37.9411H267.131ZM285.933 37.9411L285.397 41.7898H279.541V61.0999H274.621V41.7898H268.463V37.9411H285.933ZM303.391 37.9411L302.856 41.7898H296.999V61.0999H292.08V41.7898H285.922V37.9411H303.391Z" fill="#451D02"/>
</svg>
