<svg width="440" height="90" viewBox="0 0 440 90" fill="none" xmlns="http://www.w3.org/2000/svg">
<rect width="440" height="90" rx="27" fill="white"/>
<path d="M128.44 41V22.1H132.058L140.104 35.438H138.187L146.098 22.1H149.689L149.743 41H145.639L145.612 28.391H146.368L140.05 39.002H138.079L131.626 28.391H132.544V41H128.44ZM151.743 41L160.167 22.1H164.487L172.938 41H168.348L161.436 24.314H163.164L156.225 41H151.743ZM155.955 36.95L157.116 33.629H166.836L168.024 36.95H155.955ZM165.054 20.426C164.532 20.426 164.091 20.255 163.731 19.913C163.371 19.571 163.191 19.121 163.191 18.563C163.191 18.005 163.371 17.555 163.731 17.213C164.091 16.871 164.532 16.7 165.054 16.7C165.576 16.7 166.017 16.871 166.377 17.213C166.755 17.555 166.944 18.005 166.944 18.563C166.944 19.121 166.755 19.571 166.377 19.913C166.017 20.255 165.576 20.426 165.054 20.426ZM159.6 20.426C159.078 20.426 158.628 20.255 158.25 19.913C157.89 19.571 157.71 19.121 157.71 18.563C157.71 18.005 157.89 17.555 158.25 17.213C158.628 16.871 159.078 16.7 159.6 16.7C160.122 16.7 160.563 16.871 160.923 17.213C161.283 17.555 161.463 18.005 161.463 18.563C161.463 19.121 161.283 19.571 160.923 19.913C160.563 20.255 160.122 20.426 159.6 20.426ZM174.899 41V22.1H178.517L189.668 35.708H187.913V22.1H192.233V41H188.642L177.464 27.392H179.219V41H174.899ZM205.83 41.324C204.336 41.324 202.959 41.09 201.699 40.622C200.457 40.136 199.368 39.452 198.432 38.57C197.514 37.688 196.794 36.653 196.272 35.465C195.768 34.277 195.516 32.972 195.516 31.55C195.516 30.128 195.768 28.823 196.272 27.635C196.794 26.447 197.523 25.412 198.459 24.53C199.395 23.648 200.493 22.973 201.753 22.505C203.013 22.019 204.399 21.776 205.911 21.776C207.585 21.776 209.088 22.055 210.42 22.613C211.77 23.171 212.904 23.981 213.822 25.043L211.014 27.635C210.33 26.915 209.583 26.384 208.773 26.042C207.963 25.682 207.081 25.502 206.127 25.502C205.209 25.502 204.372 25.646 203.616 25.934C202.86 26.222 202.203 26.636 201.645 27.176C201.105 27.716 200.682 28.355 200.376 29.093C200.088 29.831 199.944 30.65 199.944 31.55C199.944 32.432 200.088 33.242 200.376 33.98C200.682 34.718 201.105 35.366 201.645 35.924C202.203 36.464 202.851 36.878 203.589 37.166C204.345 37.454 205.173 37.598 206.073 37.598C206.937 37.598 207.774 37.463 208.584 37.193C209.412 36.905 210.213 36.428 210.987 35.762L213.471 38.921C212.445 39.695 211.248 40.289 209.88 40.703C208.53 41.117 207.18 41.324 205.83 41.324ZM209.475 38.354V31.253H213.471V38.921L209.475 38.354ZM217.534 41V22.1H221.908V41H217.534ZM237.955 36.68L237.712 31.631L246.757 22.1H251.617L243.463 30.875L241.033 33.467L237.955 36.68ZM234.04 41V22.1H238.387V41H234.04ZM246.973 41L240.25 32.765L243.112 29.66L252.076 41H246.973ZM262.521 41.324C261.027 41.324 259.641 41.081 258.363 40.595C257.103 40.109 256.005 39.425 255.069 38.543C254.151 37.661 253.431 36.626 252.909 35.438C252.405 34.25 252.153 32.954 252.153 31.55C252.153 30.146 252.405 28.85 252.909 27.662C253.431 26.474 254.16 25.439 255.096 24.557C256.032 23.675 257.13 22.991 258.39 22.505C259.65 22.019 261.018 21.776 262.494 21.776C263.988 21.776 265.356 22.019 266.598 22.505C267.858 22.991 268.947 23.675 269.865 24.557C270.801 25.439 271.53 26.474 272.052 27.662C272.574 28.832 272.835 30.128 272.835 31.55C272.835 32.954 272.574 34.259 272.052 35.465C271.53 36.653 270.801 37.688 269.865 38.57C268.947 39.434 267.858 40.109 266.598 40.595C265.356 41.081 263.997 41.324 262.521 41.324ZM262.494 37.598C263.34 37.598 264.114 37.454 264.816 37.166C265.536 36.878 266.166 36.464 266.706 35.924C267.246 35.384 267.66 34.745 267.948 34.007C268.254 33.269 268.407 32.45 268.407 31.55C268.407 30.65 268.254 29.831 267.948 29.093C267.66 28.355 267.246 27.716 266.706 27.176C266.184 26.636 265.563 26.222 264.843 25.934C264.123 25.646 263.34 25.502 262.494 25.502C261.648 25.502 260.865 25.646 260.145 25.934C259.443 26.222 258.822 26.636 258.282 27.176C257.742 27.716 257.319 28.355 257.013 29.093C256.725 29.831 256.581 30.65 256.581 31.55C256.581 32.432 256.725 33.251 257.013 34.007C257.319 34.745 257.733 35.384 258.255 35.924C258.795 36.464 259.425 36.878 260.145 37.166C260.865 37.454 261.648 37.598 262.494 37.598ZM289.082 22.1H293.456V41H289.082V22.1ZM280.496 41H276.122V22.1H280.496V41ZM289.406 33.251H280.172V29.552H289.406V33.251ZM301.951 29.714H311.05V33.116H301.951V29.714ZM302.275 37.49H312.562V41H297.928V22.1H312.211V25.61H302.275V37.49ZM96.7753 68.324C95.4973 68.324 94.3183 68.09 93.2383 67.622C92.1763 67.136 91.3033 66.452 90.6193 65.57L93.0493 62.654C93.5713 63.338 94.1203 63.86 94.6963 64.22C95.2723 64.562 95.8933 64.733 96.5593 64.733C98.3413 64.733 99.2323 63.689 99.2323 61.601V52.61H92.5903V49.1H103.579V61.358C103.579 63.698 103.003 65.444 101.851 66.596C100.699 67.748 99.0073 68.324 96.7753 68.324ZM105.02 68L113.444 49.1H117.764L126.215 68H121.625L114.713 51.314H116.441L109.502 68H105.02ZM109.232 63.95L110.393 60.629H120.113L121.301 63.95H109.232ZM145.003 68.324C143.509 68.324 142.123 68.081 140.845 67.595C139.585 67.109 138.487 66.425 137.551 65.543C136.633 64.661 135.913 63.626 135.391 62.438C134.887 61.25 134.635 59.954 134.635 58.55C134.635 57.146 134.887 55.85 135.391 54.662C135.913 53.474 136.642 52.439 137.578 51.557C138.514 50.675 139.612 49.991 140.872 49.505C142.132 49.019 143.5 48.776 144.976 48.776C146.47 48.776 147.838 49.019 149.08 49.505C150.34 49.991 151.429 50.675 152.347 51.557C153.283 52.439 154.012 53.474 154.534 54.662C155.056 55.832 155.317 57.128 155.317 58.55C155.317 59.954 155.056 61.259 154.534 62.465C154.012 63.653 153.283 64.688 152.347 65.57C151.429 66.434 150.34 67.109 149.08 67.595C147.838 68.081 146.479 68.324 145.003 68.324ZM144.976 64.598C145.822 64.598 146.596 64.454 147.298 64.166C148.018 63.878 148.648 63.464 149.188 62.924C149.728 62.384 150.142 61.745 150.43 61.007C150.736 60.269 150.889 59.45 150.889 58.55C150.889 57.65 150.736 56.831 150.43 56.093C150.142 55.355 149.728 54.716 149.188 54.176C148.666 53.636 148.045 53.222 147.325 52.934C146.605 52.646 145.822 52.502 144.976 52.502C144.13 52.502 143.347 52.646 142.627 52.934C141.925 53.222 141.304 53.636 140.764 54.176C140.224 54.716 139.801 55.355 139.495 56.093C139.207 56.831 139.063 57.65 139.063 58.55C139.063 59.432 139.207 60.251 139.495 61.007C139.801 61.745 140.215 62.384 140.737 62.924C141.277 63.464 141.907 63.878 142.627 64.166C143.347 64.454 144.13 64.598 144.976 64.598ZM164.814 68.324C163.302 68.324 161.853 68.126 160.467 67.73C159.081 67.316 157.965 66.785 157.119 66.137L158.604 62.843C159.414 63.419 160.368 63.896 161.466 64.274C162.582 64.634 163.707 64.814 164.841 64.814C165.705 64.814 166.398 64.733 166.92 64.571C167.46 64.391 167.856 64.148 168.108 63.842C168.36 63.536 168.486 63.185 168.486 62.789C168.486 62.285 168.288 61.889 167.892 61.601C167.496 61.295 166.974 61.052 166.326 60.872C165.678 60.674 164.958 60.494 164.166 60.332C163.392 60.152 162.609 59.936 161.817 59.684C161.043 59.432 160.332 59.108 159.684 58.712C159.036 58.316 158.505 57.794 158.091 57.146C157.695 56.498 157.497 55.67 157.497 54.662C157.497 53.582 157.785 52.601 158.361 51.719C158.955 50.819 159.837 50.108 161.007 49.586C162.195 49.046 163.68 48.776 165.462 48.776C166.65 48.776 167.82 48.92 168.972 49.208C170.124 49.478 171.141 49.892 172.023 50.45L170.673 53.771C169.791 53.267 168.909 52.898 168.027 52.664C167.145 52.412 166.281 52.286 165.435 52.286C164.589 52.286 163.896 52.385 163.356 52.583C162.816 52.781 162.429 53.042 162.195 53.366C161.961 53.672 161.844 54.032 161.844 54.446C161.844 54.932 162.042 55.328 162.438 55.634C162.834 55.922 163.356 56.156 164.004 56.336C164.652 56.516 165.363 56.696 166.137 56.876C166.929 57.056 167.712 57.263 168.486 57.497C169.278 57.731 169.998 58.046 170.646 58.442C171.294 58.838 171.816 59.36 172.212 60.008C172.626 60.656 172.833 61.475 172.833 62.465C172.833 63.527 172.536 64.499 171.942 65.381C171.348 66.263 170.457 66.974 169.269 67.514C168.099 68.054 166.614 68.324 164.814 68.324ZM173.338 68L181.762 49.1H186.082L194.533 68H189.943L183.031 51.314H184.759L177.82 68H173.338ZM177.55 63.95L178.711 60.629H188.431L189.619 63.95H177.55ZM196.493 68V49.1H200.867V64.436H210.344V68H196.493ZM216.811 56.714H225.91V60.116H216.811V56.714ZM217.135 64.49H227.422V68H212.788V49.1H227.071V52.61H217.135V64.49ZM238.549 68V49.1H242.923V64.436H252.4V68H238.549ZM263.708 68.324C262.214 68.324 260.828 68.081 259.55 67.595C258.29 67.109 257.192 66.425 256.256 65.543C255.338 64.661 254.618 63.626 254.096 62.438C253.592 61.25 253.34 59.954 253.34 58.55C253.34 57.146 253.592 55.85 254.096 54.662C254.618 53.474 255.347 52.439 256.283 51.557C257.219 50.675 258.317 49.991 259.577 49.505C260.837 49.019 262.205 48.776 263.681 48.776C265.175 48.776 266.543 49.019 267.785 49.505C269.045 49.991 270.134 50.675 271.052 51.557C271.988 52.439 272.717 53.474 273.239 54.662C273.761 55.832 274.022 57.128 274.022 58.55C274.022 59.954 273.761 61.259 273.239 62.465C272.717 63.653 271.988 64.688 271.052 65.57C270.134 66.434 269.045 67.109 267.785 67.595C266.543 68.081 265.184 68.324 263.708 68.324ZM263.681 64.598C264.527 64.598 265.301 64.454 266.003 64.166C266.723 63.878 267.353 63.464 267.893 62.924C268.433 62.384 268.847 61.745 269.135 61.007C269.441 60.269 269.594 59.45 269.594 58.55C269.594 57.65 269.441 56.831 269.135 56.093C268.847 55.355 268.433 54.716 267.893 54.176C267.371 53.636 266.75 53.222 266.03 52.934C265.31 52.646 264.527 52.502 263.681 52.502C262.835 52.502 262.052 52.646 261.332 52.934C260.63 53.222 260.009 53.636 259.469 54.176C258.929 54.716 258.506 55.355 258.2 56.093C257.912 56.831 257.768 57.65 257.768 58.55C257.768 59.432 257.912 60.251 258.2 61.007C258.506 61.745 258.92 62.384 259.442 62.924C259.982 63.464 260.612 63.878 261.332 64.166C262.052 64.454 262.835 64.598 263.681 64.598ZM286.489 68.324C284.995 68.324 283.609 68.081 282.331 67.595C281.071 67.109 279.973 66.425 279.037 65.543C278.119 64.661 277.399 63.626 276.877 62.438C276.373 61.25 276.121 59.954 276.121 58.55C276.121 57.146 276.373 55.85 276.877 54.662C277.399 53.474 278.128 52.439 279.064 51.557C280 50.675 281.098 49.991 282.358 49.505C283.618 49.019 284.986 48.776 286.462 48.776C287.956 48.776 289.324 49.019 290.566 49.505C291.826 49.991 292.915 50.675 293.833 51.557C294.769 52.439 295.498 53.474 296.02 54.662C296.542 55.832 296.803 57.128 296.803 58.55C296.803 59.954 296.542 61.259 296.02 62.465C295.498 63.653 294.769 64.688 293.833 65.57C292.915 66.434 291.826 67.109 290.566 67.595C289.324 68.081 287.965 68.324 286.489 68.324ZM286.462 64.598C287.308 64.598 288.082 64.454 288.784 64.166C289.504 63.878 290.134 63.464 290.674 62.924C291.214 62.384 291.628 61.745 291.916 61.007C292.222 60.269 292.375 59.45 292.375 58.55C292.375 57.65 292.222 56.831 291.916 56.093C291.628 55.355 291.214 54.716 290.674 54.176C290.152 53.636 289.531 53.222 288.811 52.934C288.091 52.646 287.308 52.502 286.462 52.502C285.616 52.502 284.833 52.646 284.113 52.934C283.411 53.222 282.79 53.636 282.25 54.176C281.71 54.716 281.287 55.355 280.981 56.093C280.693 56.831 280.549 57.65 280.549 58.55C280.549 59.432 280.693 60.251 280.981 61.007C281.287 61.745 281.701 62.384 282.223 62.924C282.763 63.464 283.393 63.878 284.113 64.166C284.833 64.454 285.616 64.598 286.462 64.598ZM306.3 68.324C304.788 68.324 303.339 68.126 301.953 67.73C300.567 67.316 299.451 66.785 298.605 66.137L300.09 62.843C300.9 63.419 301.854 63.896 302.952 64.274C304.068 64.634 305.193 64.814 306.327 64.814C307.191 64.814 307.884 64.733 308.406 64.571C308.946 64.391 309.342 64.148 309.594 63.842C309.846 63.536 309.972 63.185 309.972 62.789C309.972 62.285 309.774 61.889 309.378 61.601C308.982 61.295 308.46 61.052 307.812 60.872C307.164 60.674 306.444 60.494 305.652 60.332C304.878 60.152 304.095 59.936 303.303 59.684C302.529 59.432 301.818 59.108 301.17 58.712C300.522 58.316 299.991 57.794 299.577 57.146C299.181 56.498 298.983 55.67 298.983 54.662C298.983 53.582 299.271 52.601 299.847 51.719C300.441 50.819 301.323 50.108 302.493 49.586C303.681 49.046 305.166 48.776 306.948 48.776C308.136 48.776 309.306 48.92 310.458 49.208C311.61 49.478 312.627 49.892 313.509 50.45L312.159 53.771C311.277 53.267 310.395 52.898 309.513 52.664C308.631 52.412 307.767 52.286 306.921 52.286C306.075 52.286 305.382 52.385 304.842 52.583C304.302 52.781 303.915 53.042 303.681 53.366C303.447 53.672 303.33 54.032 303.33 54.446C303.33 54.932 303.528 55.328 303.924 55.634C304.32 55.922 304.842 56.156 305.49 56.336C306.138 56.516 306.849 56.696 307.623 56.876C308.415 57.056 309.198 57.263 309.972 57.497C310.764 57.731 311.484 58.046 312.132 58.442C312.78 58.838 313.302 59.36 313.698 60.008C314.112 60.656 314.319 61.475 314.319 62.465C314.319 63.527 314.022 64.499 313.428 65.381C312.834 66.263 311.943 66.974 310.755 67.514C309.585 68.054 308.1 68.324 306.3 68.324ZM317.308 68V49.1H321.682V68H317.308ZM332.377 68.324C330.865 68.324 329.416 68.126 328.03 67.73C326.644 67.316 325.528 66.785 324.682 66.137L326.167 62.843C326.977 63.419 327.931 63.896 329.029 64.274C330.145 64.634 331.27 64.814 332.404 64.814C333.268 64.814 333.961 64.733 334.483 64.571C335.023 64.391 335.419 64.148 335.671 63.842C335.923 63.536 336.049 63.185 336.049 62.789C336.049 62.285 335.851 61.889 335.455 61.601C335.059 61.295 334.537 61.052 333.889 60.872C333.241 60.674 332.521 60.494 331.729 60.332C330.955 60.152 330.172 59.936 329.38 59.684C328.606 59.432 327.895 59.108 327.247 58.712C326.599 58.316 326.068 57.794 325.654 57.146C325.258 56.498 325.06 55.67 325.06 54.662C325.06 53.582 325.348 52.601 325.924 51.719C326.518 50.819 327.4 50.108 328.57 49.586C329.758 49.046 331.243 48.776 333.025 48.776C334.213 48.776 335.383 48.92 336.535 49.208C337.687 49.478 338.704 49.892 339.586 50.45L338.236 53.771C337.354 53.267 336.472 52.898 335.59 52.664C334.708 52.412 333.844 52.286 332.998 52.286C332.152 52.286 331.459 52.385 330.919 52.583C330.379 52.781 329.992 53.042 329.758 53.366C329.524 53.672 329.407 54.032 329.407 54.446C329.407 54.932 329.605 55.328 330.001 55.634C330.397 55.922 330.919 56.156 331.567 56.336C332.215 56.516 332.926 56.696 333.7 56.876C334.492 57.056 335.275 57.263 336.049 57.497C336.841 57.731 337.561 58.046 338.209 58.442C338.857 58.838 339.379 59.36 339.775 60.008C340.189 60.656 340.396 61.475 340.396 62.465C340.396 63.527 340.099 64.499 339.505 65.381C338.911 66.263 338.02 66.974 336.832 67.514C335.662 68.054 334.177 68.324 332.377 68.324ZM343.385 61.439L342.548 49.1H347.57L346.733 61.439H343.385ZM345.059 68.216C344.303 68.216 343.682 67.973 343.196 67.487C342.71 67.001 342.467 66.425 342.467 65.759C342.467 65.075 342.71 64.508 343.196 64.058C343.682 63.59 344.303 63.356 345.059 63.356C345.833 63.356 346.454 63.59 346.922 64.058C347.408 64.508 347.651 65.075 347.651 65.759C347.651 66.425 347.408 67.001 346.922 67.487C346.454 67.973 345.833 68.216 345.059 68.216Z" fill="#F73535"/>
</svg>
