<svg width="184" height="184" viewBox="0 0 184 184" fill="none" xmlns="http://www.w3.org/2000/svg">
<path d="M132.717 82.6486C130.265 82.6486 127.998 83.3846 126.073 84.6135C124.305 79.9346 119.81 76.5766 114.52 76.5766C112.069 76.5766 109.802 77.3126 107.877 78.5481C106.109 73.8692 101.614 70.5178 96.324 70.5178C94.2146 70.5178 92.2497 71.0961 90.5083 72.0358V62.0472C99.8003 57.4078 105.8 47.8135 105.8 37.4044C105.8 22.2112 93.4392 9.85693 78.2526 9.85693C63.066 9.85693 50.7052 22.2178 50.7052 37.4044C50.7052 47.7149 56.5997 57.2172 65.7406 61.9026V119.12L64.7943 119.514L55.1343 109.848C49.2857 103.999 40.7692 102.001 32.9295 104.604C30.176 105.53 28.0469 107.633 27.1072 110.38C26.1609 113.127 26.5486 116.091 28.1586 118.502L48.0963 148.409C51.3163 153.232 54.832 157.681 58.5646 161.617C66.102 169.575 76.9909 174.136 88.4252 174.136H103.566C120.789 174.136 136.048 163.806 142.449 147.811C144.217 143.395 145.11 138.736 145.11 133.978V95.0292C145.11 88.2015 139.551 82.6486 132.723 82.6486H132.717ZM57.2766 37.4044C57.2766 25.8386 66.6869 16.4284 78.2526 16.4284C89.8183 16.4284 99.2286 25.8386 99.2286 37.4044C99.2286 44.1664 95.8837 50.4684 90.5083 54.3783V40.4404C90.5083 33.6126 84.9489 28.0532 78.1212 28.0532C71.2935 28.0532 65.7406 33.6126 65.7406 40.4404V54.1812C60.5163 50.2646 57.2766 44.0612 57.2766 37.4044Z" fill="#0178E3"/>
</svg>
