<svg width="754" height="104" viewBox="0 0 754 104" fill="none" xmlns="http://www.w3.org/2000/svg">
<g clip-path="url(#clip0_2515_428)">
<mask id="mask0_2515_428" style="mask-type:luminance" maskUnits="userSpaceOnUse" x="0" y="0" width="754" height="104">
<path d="M754 0H0V104H754V0Z" fill="white"/>
</mask>
<g mask="url(#mask0_2515_428)">
<path d="M37.5159 14.2703C45.4619 14.2703 52.4256 16.1818 58.2114 19.949C59.9053 21.0535 61.4194 22.2939 62.8309 23.6069C62.9533 23.515 63.0755 23.4145 63.197 23.3365C67.0923 20.7824 69.8202 16.2768 69.8202 8.2537C69.8202 5.48567 68.5725 1.68724 67.0223 0C65.7621 1.24735 64.4712 2.11689 62.4526 2.91265C61.2696 3.39089 59.6518 3.63805 57.8968 3.63805H31.193C27.3317 3.63805 24.5573 4.11824 22.9789 4.73346C18.2801 6.62155 16.5626 9.89284 16.5626 14.0197C16.5626 15.7693 16.8689 17.3131 17.3641 18.6059C23.2963 15.7328 30.0321 14.2703 37.5159 14.2703Z" fill="white"/>
<path d="M465.41 19.1576C459.266 19.1576 453.312 22.8717 453.312 29.9466C453.312 33.4256 456.502 35.671 459.896 35.671C466.039 35.671 471.991 31.9545 471.991 24.8804C471.991 21.4047 468.803 19.1576 465.41 19.1576Z" fill="white"/>
<path d="M524.81 19.1576C518.668 19.1576 512.714 22.8717 512.714 29.9466C512.714 33.4256 515.905 35.671 519.3 35.671C525.439 35.671 531.393 31.9545 531.393 24.8804C531.393 21.4047 528.203 19.1576 524.81 19.1576Z" fill="white"/>
<path d="M54.5197 25.5795C49.8238 22.521 44.1522 20.9918 37.5006 20.9918C27.4121 20.9918 19.0677 23.9621 12.4789 29.9042C5.88612 35.8483 1.89139 43.1854 0.490641 51.9222C-0.968121 61.1271 0.826204 68.9018 5.87069 75.2549C10.9179 81.602 18.5716 84.779 28.8384 84.779C38.93 84.779 47.2708 81.8064 53.8624 75.8651C60.4552 69.9233 64.4511 62.5807 65.8518 53.845C66.7839 47.9635 66.3013 42.5427 64.4085 37.5939C62.5123 32.6422 59.2156 28.6387 54.5197 25.5795ZM49.4886 52.3622C48.6697 57.6581 46.5272 61.9119 43.0578 65.1144C39.5876 68.3205 35.1674 69.9226 29.801 69.9226C24.8453 69.9226 21.2556 68.3774 19.0388 65.2919C16.8218 62.2071 16.0944 58.2429 16.8529 53.4089C17.7273 48.1094 19.8864 43.8558 23.327 40.6526C26.767 37.4494 31.1716 35.8485 36.5376 35.8485C41.4963 35.8485 45.0856 37.3906 47.3007 40.4755C49.5183 43.5671 50.2479 47.5252 49.4886 52.3622Z" fill="white"/>
<path d="M146.255 26.2328L130.856 29.7308L128.93 41.5256H122.282L120.356 53.7604H127.007L124.468 69.9226C123.652 75.049 124.644 78.8062 127.445 81.1952C130.245 83.5843 133.948 84.779 138.556 84.779C143.107 84.779 146.752 84.221 149.492 83.1181L151.33 71.409C149.055 72.1646 146.663 72.5449 144.156 72.5449C142.23 72.5449 140.919 72.1799 140.219 71.4517C139.519 70.7234 139.315 69.5155 139.607 67.8254L141.882 53.7602H153.255L155.181 41.5254H143.807L146.255 26.2328Z" fill="white"/>
<path d="M186.15 68.0877C183.818 70.7658 180.988 72.105 177.666 72.105C173.873 72.105 172.299 70.0702 172.941 65.9914L176.789 41.5256H161.915L157.889 67.1262C157.133 72.0782 158.067 76.2598 160.689 79.6663C163.316 83.0721 167.281 84.7792 172.588 84.7792C177.955 84.7792 182.505 82.7379 186.24 78.6619L185.45 83.4659H198.575L205.224 41.5257H190.351L186.15 68.0877Z" fill="white"/>
<path d="M217.737 19.6826L207.584 83.4665H222.462L232.611 19.6826H217.737Z" fill="white"/>
<path d="M272.114 46.0246C270.626 44.2489 268.6 42.8386 266.032 41.7883C263.466 40.7378 260.491 40.2127 257.106 40.2127C254.54 40.2127 252.003 40.6073 249.496 41.3944C246.989 42.1824 244.553 43.3607 242.19 44.9324C239.827 46.5078 237.799 48.7183 236.108 51.5744C234.416 54.4281 233.308 57.6919 232.785 61.3603C231.733 68.4694 233.337 74.1465 237.596 78.3996C241.855 82.6529 247.57 84.7792 254.746 84.7792C260.928 84.7792 266.003 83.9621 269.968 82.3301L271.72 70.9688C268.336 72.6037 263.962 73.417 258.594 73.417C251.596 73.417 247.658 71.2647 246.784 66.9528H274.432C275.364 64.3892 275.92 61.8394 276.094 59.3066C276.27 56.7729 276.023 54.3702 275.351 52.0993C274.682 49.8288 273.601 47.8007 272.114 46.0246ZM262.269 58.0395H248.095C248.448 56.0019 249.425 54.3114 251.027 52.9722C252.631 51.6331 254.514 50.9634 256.669 50.9634C259.181 50.9634 260.871 51.7473 261.747 53.32C262.623 54.8943 262.795 56.4673 262.269 58.0395Z" fill="white"/>
<path d="M311.873 40.2135C307.848 40.2135 303.882 41.6707 299.973 44.585L303.563 22.3013H288.689L278.974 83.4665H293.849L298.048 56.9896C300.792 54.2526 303.648 52.8869 306.625 52.8869C310.357 52.8869 311.903 54.9219 311.262 59.0007L307.409 83.4663H322.286L326.398 57.8658C327.158 52.9129 326.255 48.7323 323.687 45.3256C321.121 41.9198 317.181 40.2135 311.873 40.2135Z" fill="white"/>
<path d="M357.459 26.2328L342.059 29.7308L340.135 41.5256H333.486L331.56 53.7604H338.211L335.671 69.9226C334.856 75.049 335.848 78.8062 338.648 81.1952C341.448 83.5843 345.152 84.779 349.76 84.779C354.31 84.779 357.955 84.221 360.696 83.1181L362.533 71.409C360.259 72.1646 357.867 72.5449 355.36 72.5449C353.434 72.5449 352.123 72.1799 351.422 71.4517C350.722 70.7234 350.519 69.5155 350.811 67.8254L353.085 53.7602H364.46L366.385 41.5254H355.01L357.459 26.2328Z" fill="white"/>
<path d="M446.108 83.4665H460.982L467.633 41.5259H452.757L446.108 83.4665Z" fill="white"/>
<path d="M504.38 54.9809L506.659 40.7386C498.548 39.9243 492.599 42.0514 488.806 47.118L489.681 41.5261H476.56L469.908 83.4667H484.781L488.46 60.2256C490.149 57.8953 492.398 56.2352 495.196 55.2438C497.996 54.2527 501.059 54.1669 504.38 54.9809Z" fill="white"/>
<path d="M505.346 85.4743C505.053 87.5158 504.426 88.957 503.467 89.7999C502.504 90.6469 501.117 91.0671 499.309 91.0671C497.676 91.0671 496.306 90.8628 495.194 90.4567L493.272 102.514C495.779 103.505 498.638 104 501.845 104C506.92 104 510.932 102.967 513.877 100.899C516.821 98.8317 518.734 95.1164 519.608 89.7577L527.22 41.5257H512.346L505.346 85.4743Z" fill="white"/>
<path d="M567.554 48.3394C566.561 46.0679 564.897 44.1446 562.565 42.5753C560.23 41.0007 557.343 40.2132 553.902 40.2132C547.489 40.2132 542.279 42.3262 538.286 46.5494C534.29 50.7738 531.825 55.7682 530.892 61.534C529.9 67.7077 530.892 73.1286 533.866 77.7894C536.84 82.4486 541.624 84.7792 548.213 84.7792C554.746 84.7792 559.619 82.4486 562.827 77.7894L561.953 83.4667H575.076L581.727 41.5257H568.602L567.554 48.3394ZM562.829 66.9528C560.261 70.681 556.905 72.545 552.765 72.545C550.025 72.545 548.083 71.5673 546.944 69.6174C545.807 67.6692 545.443 65.4365 545.854 62.9324C546.32 60.0215 547.56 57.5471 549.572 55.5059C551.585 53.4654 554.166 52.4472 557.313 52.4472C559.179 52.4472 560.74 52.9134 561.997 53.8454C563.251 54.7776 564.052 55.9726 564.402 57.4298L562.829 66.9528Z" fill="white"/>
<path d="M607.274 51.1344C612.228 51.1344 616.925 52.6245 621.359 55.5916L623.196 43.7968C618.239 41.4076 612.844 40.2126 607.011 40.2126C604.792 40.2126 602.693 40.4032 600.71 40.7834C598.726 41.1611 596.745 41.7749 594.76 42.6187C592.777 43.4616 591.116 44.7426 589.774 46.4614C588.43 48.1822 587.556 50.2621 587.148 52.7103C586.682 55.5058 587.077 57.8952 588.328 59.8778C589.584 61.8524 591.23 63.3427 593.274 64.3303C595.315 65.3209 597.399 66.1515 599.527 66.8215C601.658 67.4908 603.437 68.1897 604.864 68.9182C606.294 69.647 606.921 70.5029 606.747 71.4943C606.513 72.8921 604.558 73.5951 600.884 73.5951C594.584 73.5951 589.451 72.1047 585.486 69.1379L583.648 80.9326C587.73 83.4959 593.39 84.7792 600.623 84.7792C603.481 84.7792 606.018 84.6021 608.233 84.254C610.452 83.9023 612.581 83.2889 614.622 82.4161C616.663 81.5428 618.312 80.2339 619.564 78.4846C620.82 76.739 621.65 74.6125 622.058 72.1048C622.524 69.1967 622.147 66.7487 620.922 64.767C619.695 62.7853 618.049 61.3317 615.979 60.399C613.907 59.467 611.821 58.6669 609.721 57.9967C607.622 57.3242 605.857 56.6285 604.427 55.9C602.998 55.1709 602.373 54.2852 602.548 53.2357C602.781 51.8375 604.355 51.1344 607.274 51.1344Z" fill="white"/>
<path d="M653.554 26.2328L638.154 29.7308L636.228 41.5256H629.577L627.655 53.7604H634.302L631.766 69.9226C630.947 75.049 631.94 78.8062 634.74 81.1952C637.539 83.5843 641.243 84.779 645.853 84.779C650.401 84.779 654.046 84.221 656.789 83.1181L658.627 71.409C656.352 72.1646 653.96 72.5449 651.453 72.5449C649.527 72.5449 648.212 72.1799 647.512 71.4517C646.813 70.7234 646.609 69.5155 646.901 67.8254L649.174 53.7602H660.553L662.475 41.5254H651.102L653.554 26.2328Z" fill="white"/>
<path d="M693.456 68.0877C691.122 70.7658 688.293 72.105 684.972 72.105C681.179 72.105 679.604 70.0702 680.245 65.9914L684.093 41.5256H669.219L665.194 67.1262C664.438 72.0782 665.373 76.2598 667.994 79.6663C670.62 83.0721 674.586 84.7792 679.892 84.7792C685.259 84.7792 689.811 82.7379 693.544 78.6619L692.755 83.4659H705.881L712.53 41.5257H697.655L693.456 68.0877Z" fill="white"/>
<path d="M746.78 60.3988C744.71 59.4669 742.627 58.6667 740.527 57.9966C738.428 57.324 736.663 56.6283 735.233 55.8998C733.803 55.1707 733.176 54.2851 733.349 53.2355C733.582 51.8373 735.16 51.1344 738.075 51.1344C743.034 51.1344 747.729 52.6245 752.162 55.5916L754 43.7968C749.04 41.4076 743.645 40.2126 737.812 40.2126C735.598 40.2126 733.497 40.4032 731.513 40.7834C729.531 41.1611 727.547 41.7749 725.564 42.6187C723.578 43.4616 721.918 44.7416 720.575 46.4614C719.235 48.1811 718.36 50.2621 717.949 52.7103C717.483 55.5058 717.878 57.8952 719.132 59.8778C720.385 61.8524 722.035 63.3427 724.076 64.3303C726.117 65.3209 728.203 66.1515 730.332 66.8215C732.462 67.4908 734.24 68.1897 735.67 68.9182C737.1 69.647 737.727 70.5029 737.55 71.4943C737.316 72.8921 735.364 73.5951 731.685 73.5951C725.387 73.5951 720.254 72.1047 716.287 69.1379L714.451 80.9326C718.536 83.4959 724.194 84.7792 731.427 84.7792C734.284 84.7792 736.819 84.6021 739.039 84.254C741.253 83.9023 743.382 83.2889 745.426 82.4161C747.467 81.5428 749.114 80.2339 750.37 78.4846C751.624 76.739 752.453 74.6125 752.864 72.1048C753.33 69.1967 752.949 66.7487 751.727 64.767C750.501 62.7853 748.85 61.3316 746.78 60.3988Z" fill="white"/>
<path d="M100.671 40.2135C96.6466 40.2135 92.6804 41.6707 88.772 44.585L92.3575 22.3013H77.4844L67.7731 83.4665H82.6469L86.8462 56.9896C89.5872 54.2526 92.4459 52.8869 95.4203 52.8869C99.1539 52.8869 100.701 54.9219 100.057 59.0007L96.2094 83.4663H111.083L115.194 57.8658C115.953 52.9129 115.049 48.7323 112.482 45.3256C109.916 41.9198 105.98 40.2135 100.671 40.2135Z" fill="white"/>
<path d="M451.188 22.3013H433.427L415.927 45.4576H407.791L411.463 22.3013H395.28L385.565 83.4665H401.754L405.516 59.8778H413.654L424.762 83.4665H442L427.3 53.4981L451.188 22.3013Z" fill="white"/>
</g>
</g>
<defs>
<clipPath id="clip0_2515_428">
<rect width="754" height="104" fill="white"/>
</clipPath>
</defs>
</svg>
