<svg width="301" height="320" viewBox="0 0 301 320" fill="none" xmlns="http://www.w3.org/2000/svg">
<path d="M43.755 74.5L42 67.525H32.235L30.48 74.5H23.595L33.18 43.36H41.235L50.775 74.5H43.755ZM33.495 62.62H40.74L37.095 48.265L33.495 62.62ZM66.2747 49.93C68.3747 49.93 70.0097 50.575 71.1797 51.865C72.3497 53.125 72.9347 54.88 72.9347 57.13V74.5H66.5447V58.21C66.5447 56.92 66.3197 56.02 65.8697 55.51C65.4497 54.97 64.8047 54.7 63.9347 54.7C63.0347 54.7 62.2097 54.985 61.4597 55.555C60.7397 56.095 60.0347 56.92 59.3447 58.03V74.5H52.9547V50.65H58.4897L58.9847 53.665C59.9747 52.435 61.0547 51.505 62.2247 50.875C63.4247 50.245 64.7747 49.93 66.2747 49.93ZM91.7718 49.93C93.8718 49.93 95.5068 50.575 96.6768 51.865C97.8468 53.125 98.4318 54.88 98.4318 57.13V74.5H92.0418V58.21C92.0418 56.92 91.8168 56.02 91.3668 55.51C90.9468 54.97 90.3018 54.7 89.4318 54.7C88.5318 54.7 87.7068 54.985 86.9568 55.555C86.2368 56.095 85.5318 56.92 84.8418 58.03V74.5H78.4518V50.65H83.9868L84.4818 53.665C85.4718 52.435 86.5518 51.505 87.7218 50.875C88.9218 50.245 90.2718 49.93 91.7718 49.93ZM122.174 67.885C122.174 68.815 122.309 69.505 122.579 69.955C122.849 70.375 123.299 70.69 123.929 70.9L122.579 75.13C121.169 75.01 120.014 74.68 119.114 74.14C118.244 73.6 117.569 72.76 117.089 71.62C115.529 74.02 113.144 75.22 109.934 75.22C107.564 75.22 105.674 74.545 104.264 73.195C102.884 71.815 102.194 70.03 102.194 67.84C102.194 65.23 103.139 63.235 105.029 61.855C106.919 60.475 109.634 59.785 113.174 59.785H115.919V58.615C115.919 57.145 115.589 56.125 114.929 55.555C114.269 54.985 113.174 54.7 111.644 54.7C109.964 54.7 107.864 55.12 105.344 55.96L103.904 51.685C106.874 50.515 109.814 49.93 112.724 49.93C115.964 49.93 118.349 50.635 119.879 52.045C121.409 53.425 122.174 55.495 122.174 58.255V67.885ZM111.689 70.63C113.489 70.63 114.899 69.745 115.919 67.975V63.43H113.804C110.354 63.43 108.629 64.72 108.629 67.3C108.629 68.35 108.884 69.175 109.394 69.775C109.934 70.345 110.699 70.63 111.689 70.63ZM144.36 75.22C142.41 75.22 140.895 74.665 139.815 73.555C138.735 72.415 138.195 70.81 138.195 68.74V41.155L144.585 40.435V68.56C144.585 69.61 145.02 70.135 145.89 70.135C146.37 70.135 146.79 70.045 147.15 69.865L148.455 74.41C147.225 74.95 145.86 75.22 144.36 75.22ZM171.113 62.035C171.113 62.335 171.068 63.16 170.978 64.51H156.083C156.293 66.67 156.878 68.2 157.838 69.1C158.798 70 160.103 70.45 161.753 70.45C162.773 70.45 163.733 70.285 164.633 69.955C165.533 69.625 166.508 69.1 167.558 68.38L170.213 71.98C167.543 74.14 164.528 75.22 161.168 75.22C157.418 75.22 154.538 74.095 152.528 71.845C150.518 69.595 149.513 66.55 149.513 62.71C149.513 60.28 149.933 58.105 150.773 56.185C151.643 54.235 152.888 52.705 154.508 51.595C156.158 50.485 158.108 49.93 160.358 49.93C163.748 49.93 166.388 50.995 168.278 53.125C170.168 55.255 171.113 58.225 171.113 62.035ZM164.768 60.235C164.768 56.275 163.343 54.295 160.493 54.295C159.173 54.295 158.138 54.79 157.388 55.78C156.668 56.74 156.233 58.315 156.083 60.505H164.768V60.235ZM188.495 49.93C190.565 49.93 192.185 50.575 193.355 51.865C194.555 53.125 195.155 54.88 195.155 57.13V74.5H188.765V58.21C188.765 56.92 188.54 56.02 188.09 55.51C187.64 54.97 186.995 54.7 186.155 54.7C184.475 54.7 182.945 55.795 181.565 57.985V74.5H175.175V41.155L181.565 40.48V53.35C182.525 52.21 183.56 51.355 184.67 50.785C185.81 50.215 187.085 49.93 188.495 49.93ZM220.832 62.035C220.832 62.335 220.787 63.16 220.697 64.51H205.802C206.012 66.67 206.597 68.2 207.557 69.1C208.517 70 209.822 70.45 211.472 70.45C212.492 70.45 213.452 70.285 214.352 69.955C215.252 69.625 216.227 69.1 217.277 68.38L219.932 71.98C217.262 74.14 214.247 75.22 210.887 75.22C207.137 75.22 204.257 74.095 202.247 71.845C200.237 69.595 199.232 66.55 199.232 62.71C199.232 60.28 199.652 58.105 200.492 56.185C201.362 54.235 202.607 52.705 204.227 51.595C205.877 50.485 207.827 49.93 210.077 49.93C213.467 49.93 216.107 50.995 217.997 53.125C219.887 55.255 220.832 58.225 220.832 62.035ZM214.487 60.235C214.487 56.275 213.062 54.295 210.212 54.295C208.892 54.295 207.857 54.79 207.107 55.78C206.387 56.74 205.952 58.315 205.802 60.505H214.487V60.235ZM223.905 62.935V57.895H237.855V62.935H223.905ZM33.54 94.435V128.5H27.15V95.155L33.54 94.435ZM48.03 104.65L40.425 115.135L48.705 128.5H41.46L33.765 115.45L41.415 104.65H48.03ZM70.1556 128.5H64.6206L64.3056 125.305C63.4656 126.625 62.4456 127.615 61.2456 128.275C60.0456 128.905 58.6506 129.22 57.0606 129.22C54.9006 129.22 53.2506 128.575 52.1106 127.285C50.9706 125.965 50.4006 124.135 50.4006 121.795V104.65H56.7906V120.985C56.7906 122.245 57.0006 123.145 57.4206 123.685C57.8406 124.195 58.5006 124.45 59.4006 124.45C61.1106 124.45 62.5656 123.415 63.7656 121.345V104.65H70.1556V128.5ZM95.4329 128.5H89.8979L89.5829 125.305C88.7429 126.625 87.7229 127.615 86.5229 128.275C85.3229 128.905 83.9279 129.22 82.3379 129.22C80.1779 129.22 78.5279 128.575 77.3879 127.285C76.2479 125.965 75.6779 124.135 75.6779 121.795V104.65H82.0679V120.985C82.0679 122.245 82.2779 123.145 82.6979 123.685C83.1179 124.195 83.7779 124.45 84.6779 124.45C86.3879 124.45 87.8429 123.415 89.0429 121.345V104.65H95.4329V128.5ZM107.12 129.22C105.17 129.22 103.655 128.665 102.575 127.555C101.495 126.415 100.955 124.81 100.955 122.74V95.155L107.345 94.435V122.56C107.345 123.61 107.78 124.135 108.65 124.135C109.13 124.135 109.55 124.045 109.91 123.865L111.215 128.41C109.985 128.95 108.62 129.22 107.12 129.22ZM133.873 116.035C133.873 116.335 133.828 117.16 133.738 118.51H118.843C119.053 120.67 119.638 122.2 120.598 123.1C121.558 124 122.863 124.45 124.513 124.45C125.533 124.45 126.493 124.285 127.393 123.955C128.293 123.625 129.268 123.1 130.318 122.38L132.973 125.98C130.303 128.14 127.288 129.22 123.928 129.22C120.178 129.22 117.298 128.095 115.288 125.845C113.278 123.595 112.273 120.55 112.273 116.71C112.273 114.28 112.693 112.105 113.533 110.185C114.403 108.235 115.648 106.705 117.268 105.595C118.918 104.485 120.868 103.93 123.118 103.93C126.508 103.93 129.148 104.995 131.038 107.125C132.928 109.255 133.873 112.225 133.873 116.035ZM127.528 114.235C127.528 110.275 126.103 108.295 123.253 108.295C121.933 108.295 120.898 108.79 120.148 109.78C119.428 110.74 118.993 112.315 118.843 114.505H127.528V114.235ZM39.48 157.975C40.2 157.975 40.995 158.095 41.865 158.335L40.785 164.5C39.945 164.29 39.24 164.185 38.67 164.185C37.26 164.185 36.165 164.68 35.385 165.67C34.605 166.66 33.99 168.16 33.54 170.17V182.5H27.15V158.65H32.685L33.27 163.285C33.84 161.605 34.665 160.3 35.745 159.37C36.855 158.44 38.1 157.975 39.48 157.975ZM53.1459 157.93C56.7159 157.93 59.5059 159.055 61.5159 161.305C63.5259 163.525 64.5309 166.615 64.5309 170.575C64.5309 173.095 64.0659 175.315 63.1359 177.235C62.2359 179.125 60.9159 180.595 59.1759 181.645C57.4659 182.695 55.4409 183.22 53.1009 183.22C49.5309 183.22 46.7259 182.11 44.6859 179.89C42.6759 177.64 41.6709 174.535 41.6709 170.575C41.6709 168.055 42.1209 165.85 43.0209 163.96C43.9509 162.04 45.2709 160.555 46.9809 159.505C48.7209 158.455 50.7759 157.93 53.1459 157.93ZM53.1459 162.7C51.5259 162.7 50.3109 163.345 49.5009 164.635C48.7209 165.895 48.3309 167.875 48.3309 170.575C48.3309 173.275 48.7209 175.27 49.5009 176.56C50.3109 177.82 51.5109 178.45 53.1009 178.45C54.6909 178.45 55.8759 177.82 56.6559 176.56C57.4659 175.27 57.8709 173.275 57.8709 170.575C57.8709 167.875 57.4809 165.895 56.7009 164.635C55.9209 163.345 54.7359 162.7 53.1459 162.7ZM82.1477 157.93C84.2177 157.93 85.8377 158.575 87.0077 159.865C88.2077 161.125 88.8077 162.88 88.8077 165.13V182.5H82.4177V166.21C82.4177 164.92 82.1927 164.02 81.7427 163.51C81.2927 162.97 80.6477 162.7 79.8077 162.7C78.1277 162.7 76.5977 163.795 75.2177 165.985V182.5H68.8277V149.155L75.2177 148.48V161.35C76.1777 160.21 77.2127 159.355 78.3227 158.785C79.4627 158.215 80.7377 157.93 82.1477 157.93ZM100.715 148.435V182.5H94.3248V149.155L100.715 148.435ZM115.205 158.65L107.6 169.135L115.88 182.5H108.635L100.94 169.45L108.59 158.65H115.205ZM137.785 170.035C137.785 170.335 137.74 171.16 137.65 172.51H122.755C122.965 174.67 123.55 176.2 124.51 177.1C125.47 178 126.775 178.45 128.425 178.45C129.445 178.45 130.405 178.285 131.305 177.955C132.205 177.625 133.18 177.1 134.23 176.38L136.885 179.98C134.215 182.14 131.2 183.22 127.84 183.22C124.09 183.22 121.21 182.095 119.2 179.845C117.19 177.595 116.185 174.55 116.185 170.71C116.185 168.28 116.605 166.105 117.445 164.185C118.315 162.235 119.56 160.705 121.18 159.595C122.83 158.485 124.78 157.93 127.03 157.93C130.42 157.93 133.06 158.995 134.95 161.125C136.84 163.255 137.785 166.225 137.785 170.035ZM131.44 168.235C131.44 164.275 130.015 162.295 127.165 162.295C125.845 162.295 124.81 162.79 124.06 163.78C123.34 164.74 122.905 166.315 122.755 168.505H131.44V168.235ZM167.632 157.93C169.522 157.93 171.037 158.575 172.177 159.865C173.347 161.155 173.932 162.91 173.932 165.13V182.5H167.542V166.21C167.542 163.87 166.762 162.7 165.202 162.7C164.362 162.7 163.627 162.97 162.997 163.51C162.367 164.05 161.722 164.89 161.062 166.03V182.5H154.672V166.21C154.672 163.87 153.892 162.7 152.332 162.7C151.492 162.7 150.757 162.985 150.127 163.555C149.497 164.095 148.867 164.92 148.237 166.03V182.5H141.847V158.65H147.382L147.877 161.62C148.777 160.42 149.782 159.505 150.892 158.875C152.032 158.245 153.337 157.93 154.807 157.93C156.157 157.93 157.327 158.275 158.317 158.965C159.307 159.625 160.027 160.57 160.477 161.8C161.467 160.51 162.532 159.55 163.672 158.92C164.842 158.26 166.162 157.93 167.632 157.93ZM197.773 157.93C201.133 157.93 204.013 158.89 206.413 160.81L203.983 164.455C201.973 163.195 199.993 162.565 198.043 162.565C196.993 162.565 196.183 162.76 195.613 163.15C195.043 163.54 194.758 164.065 194.758 164.725C194.758 165.205 194.878 165.61 195.118 165.94C195.388 166.27 195.868 166.585 196.558 166.885C197.278 167.185 198.343 167.545 199.753 167.965C202.273 168.655 204.148 169.585 205.378 170.755C206.608 171.895 207.223 173.47 207.223 175.48C207.223 177.07 206.758 178.45 205.828 179.62C204.928 180.79 203.698 181.69 202.138 182.32C200.578 182.92 198.838 183.22 196.918 183.22C194.908 183.22 193.078 182.92 191.428 182.32C189.778 181.69 188.368 180.835 187.198 179.755L190.348 176.245C192.358 177.805 194.488 178.585 196.738 178.585C197.938 178.585 198.883 178.36 199.573 177.91C200.293 177.43 200.653 176.785 200.653 175.975C200.653 175.345 200.518 174.85 200.248 174.49C199.978 174.13 199.483 173.8 198.763 173.5C198.043 173.17 196.918 172.795 195.388 172.375C192.988 171.715 191.203 170.785 190.033 169.585C188.893 168.355 188.323 166.84 188.323 165.04C188.323 163.69 188.713 162.475 189.493 161.395C190.273 160.315 191.368 159.475 192.778 158.875C194.218 158.245 195.883 157.93 197.773 157.93ZM217.214 158.65V182.5H210.824V158.65H217.214ZM213.974 146.365C215.114 146.365 216.044 146.725 216.764 147.445C217.514 148.135 217.889 149.02 217.889 150.1C217.889 151.18 217.514 152.08 216.764 152.8C216.044 153.49 215.114 153.835 213.974 153.835C212.834 153.835 211.904 153.49 211.184 152.8C210.464 152.08 210.104 151.18 210.104 150.1C210.104 149.02 210.464 148.135 211.184 147.445C211.904 146.725 212.834 146.365 213.974 146.365ZM230.882 157.93C234.242 157.93 237.122 158.89 239.522 160.81L237.092 164.455C235.082 163.195 233.102 162.565 231.152 162.565C230.102 162.565 229.292 162.76 228.722 163.15C228.152 163.54 227.867 164.065 227.867 164.725C227.867 165.205 227.987 165.61 228.227 165.94C228.497 166.27 228.977 166.585 229.667 166.885C230.387 167.185 231.452 167.545 232.862 167.965C235.382 168.655 237.257 169.585 238.487 170.755C239.717 171.895 240.332 173.47 240.332 175.48C240.332 177.07 239.867 178.45 238.937 179.62C238.037 180.79 236.807 181.69 235.247 182.32C233.687 182.92 231.947 183.22 230.027 183.22C228.017 183.22 226.187 182.92 224.537 182.32C222.887 181.69 221.477 180.835 220.307 179.755L223.457 176.245C225.467 177.805 227.597 178.585 229.847 178.585C231.047 178.585 231.992 178.36 232.682 177.91C233.402 177.43 233.762 176.785 233.762 175.975C233.762 175.345 233.627 174.85 233.357 174.49C233.087 174.13 232.592 173.8 231.872 173.5C231.152 173.17 230.027 172.795 228.497 172.375C226.097 171.715 224.312 170.785 223.142 169.585C222.002 168.355 221.432 166.84 221.432 165.04C221.432 163.69 221.822 162.475 222.602 161.395C223.382 160.315 224.477 159.475 225.887 158.875C227.327 158.245 228.992 157.93 230.882 157.93ZM263.462 182.5H257.927L257.612 179.305C256.772 180.625 255.752 181.615 254.552 182.275C253.352 182.905 251.957 183.22 250.367 183.22C248.207 183.22 246.557 182.575 245.417 181.285C244.277 179.965 243.707 178.135 243.707 175.795V158.65H250.097V174.985C250.097 176.245 250.307 177.145 250.727 177.685C251.147 178.195 251.807 178.45 252.707 178.45C254.417 178.45 255.872 177.415 257.072 175.345V158.65H263.462V182.5ZM274.835 151.36L274.07 171.295H268.85L267.995 151.36H274.835ZM271.46 175.525C272.54 175.525 273.455 175.9 274.205 176.65C274.955 177.4 275.33 178.3 275.33 179.35C275.33 180.4 274.955 181.315 274.205 182.095C273.455 182.845 272.54 183.22 271.46 183.22C270.41 183.22 269.51 182.845 268.76 182.095C268.01 181.315 267.635 180.4 267.635 179.35C267.635 178.3 268.01 177.4 268.76 176.65C269.51 175.9 270.41 175.525 271.46 175.525Z" fill="#F20312"/>
<path d="M24 214.5C24 210.082 27.5817 206.5 32 206.5H171C175.418 206.5 179 210.082 179 214.5V241.5H24V214.5Z" fill="#FFDF38"/>
<path d="M48.512 218.428L48.256 220.268H45.456V229.5H43.104V220.268H40.16V218.428H48.512ZM56.1229 218.428L55.8669 220.14H51.8669V223.02H55.3549V224.716H51.8669V227.772H56.1549V229.5H49.5149V218.428H56.1229ZM60.12 218.428V227.612H64.504L64.248 229.5H57.768V218.428H60.12ZM68.0606 218.428V227.612H72.4446L72.1886 229.5H65.7086V218.428H68.0606ZM76.0013 218.428V229.5H73.6493V218.428H76.0013ZM84.7546 218.428C86.4826 218.428 87.864 218.823 88.8986 219.612C89.944 220.391 90.4666 221.825 90.4666 223.916C90.4666 225.964 89.9546 227.409 88.9306 228.252C87.9173 229.084 86.616 229.5 85.0266 229.5H81.8586V218.428H84.7546ZM84.2106 220.156V227.772H85.1706C86.0773 227.772 86.776 227.495 87.2666 226.94C87.768 226.375 88.0186 225.367 88.0186 223.916C88.0186 222.913 87.8906 222.135 87.6346 221.58C87.3893 221.025 87.0586 220.652 86.6426 220.46C86.2266 220.257 85.72 220.156 85.1226 220.156H84.2106ZM94.4169 218.428V229.5H92.0649V218.428H94.4169ZM101.192 218.172C101.939 218.172 102.6 218.289 103.176 218.524C103.763 218.748 104.307 219.073 104.808 219.5L103.576 220.78C103.181 220.481 102.808 220.263 102.456 220.124C102.115 219.985 101.725 219.916 101.288 219.916C100.445 219.916 99.7627 220.252 99.24 220.924C98.728 221.585 98.472 222.599 98.472 223.964C98.472 225.404 98.6693 226.439 99.064 227.068C99.4693 227.687 100.093 227.996 100.936 227.996C101.544 227.996 102.093 227.863 102.584 227.596V224.892H101.032L100.792 223.18H104.872V228.636C104.296 228.988 103.672 229.265 103 229.468C102.339 229.66 101.667 229.756 100.984 229.756C99.352 229.756 98.1147 229.265 97.272 228.284C96.4293 227.303 96.008 225.857 96.008 223.948C96.008 222.743 96.2373 221.703 96.696 220.828C97.1547 219.953 97.7733 219.292 98.552 218.844C99.3413 218.396 100.221 218.172 101.192 218.172ZM108.97 218.428V229.5H106.618V218.428H108.97ZM114.545 218.428C115.985 218.428 117.1 218.727 117.889 219.324C118.689 219.921 119.089 220.812 119.089 221.996C119.089 223.233 118.694 224.167 117.905 224.796C117.116 225.415 116.06 225.724 114.737 225.724H113.473V229.5H111.121V218.428H114.545ZM114.545 223.996C115.228 223.996 115.75 223.841 116.113 223.532C116.476 223.223 116.657 222.711 116.657 221.996C116.657 220.748 115.942 220.124 114.513 220.124H113.473V223.996H114.545ZM125.34 229.5L124.716 227.02H121.244L120.62 229.5H118.172L121.58 218.428H124.444L127.836 229.5H125.34ZM121.692 225.276H124.268L122.972 220.172L121.692 225.276ZM131.011 218.428V229.5H128.659V218.428H131.011ZM137.299 218.428L133.603 223.42L137.587 229.5H134.835L131.107 223.596L134.787 218.428H137.299ZM145.02 218.428L144.764 220.14H140.764V223.02H144.252V224.716H140.764V227.772H145.052V229.5H138.412V218.428H145.02ZM154.009 218.428L153.753 220.268H150.953V229.5H148.601V220.268H145.657V218.428H154.009ZM162.356 218.428L162.1 220.268H159.3V229.5H156.948V220.268H154.004V218.428H162.356Z" fill="#451D02"/>
<path d="M24 241.5H179V268.5C179 272.918 175.418 276.5 171 276.5H32C27.5817 276.5 24 272.918 24 268.5V241.5Z" fill="#F20312"/>
<path d="M62.76 253.508C63.496 253.508 64.1253 253.631 64.648 253.876C65.1813 254.111 65.5813 254.436 65.848 254.852C66.1253 255.268 66.264 255.732 66.264 256.244C66.264 256.895 66.0773 257.439 65.704 257.876C65.3307 258.303 64.8133 258.607 64.152 258.788C64.8773 258.863 65.4693 259.124 65.928 259.572C66.3867 260.02 66.616 260.644 66.616 261.444C66.616 262.063 66.456 262.623 66.136 263.124C65.8267 263.625 65.368 264.025 64.76 264.324C64.152 264.612 63.432 264.756 62.6 264.756C61.0747 264.756 59.88 264.223 59.016 263.156L60.248 261.972C60.6107 262.335 60.968 262.596 61.32 262.756C61.672 262.916 62.056 262.996 62.472 262.996C63.0267 262.996 63.464 262.847 63.784 262.548C64.1147 262.249 64.28 261.833 64.28 261.3C64.28 260.724 64.1253 260.308 63.816 260.052C63.5067 259.796 63.0427 259.668 62.424 259.668H61.544L61.816 258.068H62.408C62.9093 258.068 63.3093 257.935 63.608 257.668C63.9067 257.401 64.056 257.028 64.056 256.548C64.056 256.132 63.9173 255.807 63.64 255.572C63.3733 255.337 63.0053 255.22 62.536 255.22C62.1307 255.22 61.7573 255.295 61.416 255.444C61.0747 255.593 60.7387 255.828 60.408 256.148L59.272 254.916C60.264 253.977 61.4267 253.508 62.76 253.508ZM74.6446 260.932C74.794 261.668 75.066 262.207 75.4606 262.548C75.866 262.889 76.4046 263.06 77.0766 263.06C77.7913 263.06 78.5593 262.836 79.3806 262.388V264.148C78.9433 264.351 78.5273 264.5 78.1326 264.596C77.738 264.703 77.306 264.756 76.8366 264.756C75.6313 264.756 74.6393 264.425 73.8606 263.764C73.0926 263.092 72.586 262.148 72.3406 260.932H70.9486L71.2686 259.7H72.2766V258.5H70.9486L71.2686 257.252H72.3566C72.6553 256.089 73.21 255.177 74.0206 254.516C74.842 253.844 75.8073 253.508 76.9166 253.508C78.026 253.508 79.0286 253.812 79.9246 254.42L79.1086 255.828C78.7673 255.604 78.4313 255.444 78.1006 255.348C77.77 255.241 77.402 255.188 76.9966 255.188C76.442 255.188 75.9673 255.359 75.5726 255.7C75.178 256.041 74.8846 256.559 74.6926 257.252H78.6126L78.2926 258.5H74.5806V259.7H78.0366L77.7326 260.932H74.6446ZM88.6935 251.476L90.6615 251.924L86.9175 266.26L84.9335 265.796L88.6935 251.476ZM99.2162 253.508C99.9522 253.508 100.582 253.631 101.104 253.876C101.638 254.111 102.038 254.436 102.304 254.852C102.582 255.268 102.72 255.732 102.72 256.244C102.72 256.895 102.534 257.439 102.16 257.876C101.787 258.303 101.27 258.607 100.608 258.788C101.334 258.863 101.926 259.124 102.384 259.572C102.843 260.02 103.072 260.644 103.072 261.444C103.072 262.063 102.912 262.623 102.592 263.124C102.283 263.625 101.824 264.025 101.216 264.324C100.608 264.612 99.8882 264.756 99.0562 264.756C97.5309 264.756 96.3362 264.223 95.4722 263.156L96.7042 261.972C97.0669 262.335 97.4242 262.596 97.7762 262.756C98.1282 262.916 98.5122 262.996 98.9282 262.996C99.4829 262.996 99.9202 262.847 100.24 262.548C100.571 262.249 100.736 261.833 100.736 261.3C100.736 260.724 100.582 260.308 100.272 260.052C99.9629 259.796 99.4989 259.668 98.8802 259.668H98.0002L98.2722 258.068H98.8642C99.3656 258.068 99.7656 257.935 100.064 257.668C100.363 257.401 100.512 257.028 100.512 256.548C100.512 256.132 100.374 255.807 100.096 255.572C99.8296 255.337 99.4616 255.22 98.9922 255.22C98.5869 255.22 98.2136 255.295 97.8722 255.444C97.5309 255.593 97.1949 255.828 96.8642 256.148L95.7282 254.916C96.7202 253.977 97.8829 253.508 99.2162 253.508ZM110.589 252.388V264.5H108.317V252.644L110.589 252.388ZM115.741 256.02L113.037 259.748L115.981 264.5H113.405L110.669 259.86L113.389 256.02H115.741ZM123.608 264.5H121.64L121.528 263.364C121.229 263.833 120.866 264.185 120.44 264.42C120.013 264.644 119.517 264.756 118.952 264.756C118.184 264.756 117.597 264.527 117.192 264.068C116.786 263.599 116.584 262.948 116.584 262.116V256.02H118.856V261.828C118.856 262.276 118.93 262.596 119.08 262.788C119.229 262.969 119.464 263.06 119.784 263.06C120.392 263.06 120.909 262.692 121.336 261.956V256.02H123.608V264.5ZM132.595 264.5H130.627L130.515 263.364C130.217 263.833 129.854 264.185 129.427 264.42C129.001 264.644 128.505 264.756 127.939 264.756C127.171 264.756 126.585 264.527 126.179 264.068C125.774 263.599 125.571 262.948 125.571 262.116V256.02H127.843V261.828C127.843 262.276 127.918 262.596 128.067 262.788C128.217 262.969 128.451 263.06 128.771 263.06C129.379 263.06 129.897 262.692 130.323 261.956V256.02H132.595V264.5ZM141.983 252.644V264.5H139.983L139.855 263.46C139.257 264.324 138.447 264.756 137.423 264.756C136.377 264.756 135.577 264.356 135.023 263.556C134.479 262.745 134.207 261.647 134.207 260.26C134.207 259.385 134.345 258.612 134.623 257.94C134.911 257.257 135.316 256.724 135.839 256.34C136.361 255.956 136.964 255.764 137.647 255.764C138.436 255.764 139.124 256.047 139.711 256.612V252.388L141.983 252.644ZM138.095 263.06C138.425 263.06 138.719 262.98 138.975 262.82C139.231 262.649 139.476 262.388 139.711 262.036V258.244C139.487 257.977 139.257 257.78 139.023 257.652C138.799 257.513 138.537 257.444 138.239 257.444C137.716 257.444 137.305 257.673 137.007 258.132C136.719 258.591 136.575 259.3 136.575 260.26C136.575 261.273 136.703 261.993 136.959 262.42C137.225 262.847 137.604 263.06 138.095 263.06Z" fill="white"/>
</svg>
