<svg width="350" height="100" viewBox="0 0 350 100" fill="none" xmlns="http://www.w3.org/2000/svg">
<path d="M70.4966 39.116C70.4966 40.4413 70.2166 41.6173 69.6566 42.644C69.0966 43.6707 68.2566 44.4827 67.1366 45.08C66.0352 45.6587 64.6912 45.948 63.1046 45.948C60.7152 45.948 58.8859 45.332 57.6166 44.1C56.3659 42.8493 55.7406 41.188 55.7406 39.116V26.124H59.8566V38.92C59.8566 40.2267 60.1179 41.2067 60.6406 41.86C61.1632 42.4947 61.9846 42.812 63.1046 42.812C64.2246 42.812 65.0459 42.4947 65.5686 41.86C66.1099 41.2067 66.3806 40.2267 66.3806 38.92V26.124H70.4966V39.116ZM86.4089 45.5H82.9649L82.7689 43.512C82.2462 44.3333 81.6115 44.9493 80.8649 45.36C80.1182 45.752 79.2502 45.948 78.2609 45.948C76.9169 45.948 75.8902 45.5467 75.1809 44.744C74.4715 43.9227 74.1169 42.784 74.1169 41.328V30.66H78.0929V40.824C78.0929 41.608 78.2235 42.168 78.4849 42.504C78.7462 42.8213 79.1569 42.98 79.7169 42.98C80.7809 42.98 81.6862 42.336 82.4329 41.048V30.66H86.4089V45.5ZM102.879 37.744C102.879 37.9307 102.851 38.444 102.795 39.284H93.527C93.6577 40.628 94.0217 41.58 94.619 42.14C95.2163 42.7 96.0283 42.98 97.055 42.98C97.6897 42.98 98.287 42.8773 98.847 42.672C99.407 42.4667 100.014 42.14 100.667 41.692L102.319 43.932C100.658 45.276 98.7817 45.948 96.691 45.948C94.3577 45.948 92.5657 45.248 91.315 43.848C90.0643 42.448 89.439 40.5533 89.439 38.164C89.439 36.652 89.7003 35.2987 90.223 34.104C90.7643 32.8907 91.539 31.9387 92.547 31.248C93.5737 30.5573 94.787 30.212 96.187 30.212C98.2963 30.212 99.939 30.8747 101.115 32.2C102.291 33.5253 102.879 35.3733 102.879 37.744ZM98.931 36.624C98.931 34.16 98.0443 32.928 96.271 32.928C95.4497 32.928 94.8057 33.236 94.339 33.852C93.891 34.4493 93.6203 35.4293 93.527 36.792H98.931V36.624ZM109.453 45.948C108.24 45.948 107.297 45.6027 106.625 44.912C105.953 44.2027 105.617 43.204 105.617 41.916V24.752L109.593 24.304V41.804C109.593 42.4573 109.864 42.784 110.405 42.784C110.704 42.784 110.965 42.728 111.189 42.616L112.001 45.444C111.236 45.78 110.386 45.948 109.453 45.948ZM132.218 41.384C132.218 41.9627 132.302 42.392 132.47 42.672C132.638 42.9333 132.918 43.1293 133.31 43.26L132.47 45.892C131.593 45.8173 130.874 45.612 130.314 45.276C129.773 44.94 129.353 44.4173 129.054 43.708C128.083 45.2013 126.599 45.948 124.602 45.948C123.127 45.948 121.951 45.528 121.074 44.688C120.215 43.8293 119.786 42.7187 119.786 41.356C119.786 39.732 120.374 38.4907 121.55 37.632C122.726 36.7733 124.415 36.344 126.618 36.344H128.326V35.616C128.326 34.7013 128.121 34.0667 127.71 33.712C127.299 33.3573 126.618 33.18 125.666 33.18C124.621 33.18 123.314 33.4413 121.746 33.964L120.85 31.304C122.698 30.576 124.527 30.212 126.338 30.212C128.354 30.212 129.838 30.6507 130.79 31.528C131.742 32.3867 132.218 33.6747 132.218 35.392V41.384ZM125.694 43.092C126.814 43.092 127.691 42.5413 128.326 41.44V38.612H127.01C124.863 38.612 123.79 39.4147 123.79 41.02C123.79 41.6733 123.949 42.1867 124.266 42.56C124.602 42.9147 125.078 43.092 125.694 43.092ZM147.394 41.384C147.394 41.9627 147.478 42.392 147.646 42.672C147.814 42.9333 148.094 43.1293 148.486 43.26L147.646 45.892C146.768 45.8173 146.05 45.612 145.49 45.276C144.948 44.94 144.528 44.4173 144.23 43.708C143.259 45.2013 141.775 45.948 139.778 45.948C138.303 45.948 137.127 45.528 136.25 44.688C135.391 43.8293 134.962 42.7187 134.962 41.356C134.962 39.732 135.55 38.4907 136.726 37.632C137.902 36.7733 139.591 36.344 141.794 36.344H143.502V35.616C143.502 34.7013 143.296 34.0667 142.886 33.712C142.475 33.3573 141.794 33.18 140.842 33.18C139.796 33.18 138.49 33.4413 136.922 33.964L136.026 31.304C137.874 30.576 139.703 30.212 141.514 30.212C143.53 30.212 145.014 30.6507 145.966 31.528C146.918 32.3867 147.394 33.6747 147.394 35.392V41.384ZM140.87 43.092C141.99 43.092 142.867 42.5413 143.502 41.44V38.612H142.186C140.039 38.612 138.966 39.4147 138.966 41.02C138.966 41.6733 139.124 42.1867 139.442 42.56C139.778 42.9147 140.254 43.092 140.87 43.092ZM156.021 30.212C158.111 30.212 159.903 30.8093 161.397 32.004L159.885 34.272C158.634 33.488 157.402 33.096 156.189 33.096C155.535 33.096 155.031 33.2173 154.677 33.46C154.322 33.7027 154.145 34.0293 154.145 34.44C154.145 34.7387 154.219 34.9907 154.369 35.196C154.537 35.4013 154.835 35.5973 155.265 35.784C155.713 35.9707 156.375 36.1947 157.253 36.456C158.821 36.8853 159.987 37.464 160.753 38.192C161.518 38.9013 161.901 39.8813 161.901 41.132C161.901 42.1213 161.611 42.98 161.033 43.708C160.473 44.436 159.707 44.996 158.737 45.388C157.766 45.7613 156.683 45.948 155.489 45.948C154.238 45.948 153.099 45.7613 152.073 45.388C151.046 44.996 150.169 44.464 149.441 43.792L151.401 41.608C152.651 42.5787 153.977 43.064 155.377 43.064C156.123 43.064 156.711 42.924 157.141 42.644C157.589 42.3453 157.813 41.944 157.813 41.44C157.813 41.048 157.729 40.74 157.561 40.516C157.393 40.292 157.085 40.0867 156.637 39.9C156.189 39.6947 155.489 39.4613 154.537 39.2C153.043 38.7893 151.933 38.2107 151.205 37.464C150.495 36.6987 150.141 35.756 150.141 34.636C150.141 33.796 150.383 33.04 150.869 32.368C151.354 31.696 152.035 31.1733 152.913 30.8C153.809 30.408 154.845 30.212 156.021 30.212ZM173.367 44.8C172.826 45.1733 172.21 45.4533 171.519 45.64C170.847 45.8453 170.175 45.948 169.503 45.948C167.973 45.9293 166.815 45.4907 166.031 44.632C165.247 43.7733 164.855 42.5133 164.855 40.852V33.46H162.643V30.66H164.855V27.412L168.831 26.936V30.66H172.247L171.855 33.46H168.831V40.768C168.831 41.4773 168.953 41.9907 169.195 42.308C169.438 42.6253 169.811 42.784 170.315 42.784C170.819 42.784 171.379 42.616 171.995 42.28L173.367 44.8ZM186.167 41.384C186.167 41.9627 186.251 42.392 186.419 42.672C186.587 42.9333 186.867 43.1293 187.259 43.26L186.419 45.892C185.542 45.8173 184.823 45.612 184.263 45.276C183.722 44.94 183.302 44.4173 183.003 43.708C182.033 45.2013 180.549 45.948 178.551 45.948C177.077 45.948 175.901 45.528 175.023 44.688C174.165 43.8293 173.735 42.7187 173.735 41.356C173.735 39.732 174.323 38.4907 175.499 37.632C176.675 36.7733 178.365 36.344 180.567 36.344H182.275V35.616C182.275 34.7013 182.07 34.0667 181.659 33.712C181.249 33.3573 180.567 33.18 179.615 33.18C178.57 33.18 177.263 33.4413 175.695 33.964L174.799 31.304C176.647 30.576 178.477 30.212 180.287 30.212C182.303 30.212 183.787 30.6507 184.739 31.528C185.691 32.3867 186.167 33.6747 186.167 35.392V41.384ZM179.643 43.092C180.763 43.092 181.641 42.5413 182.275 41.44V38.612H180.959C178.813 38.612 177.739 39.4147 177.739 41.02C177.739 41.6733 177.898 42.1867 178.215 42.56C178.551 42.9147 179.027 43.092 179.643 43.092ZM193.562 45.948C192.349 45.948 191.406 45.6027 190.734 44.912C190.062 44.2027 189.726 43.204 189.726 41.916V24.752L193.702 24.304V41.804C193.702 42.4573 193.973 42.784 194.514 42.784C194.813 42.784 195.074 42.728 195.298 42.616L196.11 45.444C195.345 45.78 194.496 45.948 193.562 45.948ZM213.275 30.212C214.563 30.212 215.571 30.6133 216.299 31.416C217.046 32.2 217.419 33.292 217.419 34.692V45.5H213.443V35.364C213.443 34.5613 213.303 34.0013 213.023 33.684C212.743 33.348 212.342 33.18 211.819 33.18C210.774 33.18 209.822 33.8613 208.963 35.224V45.5H204.987V24.752L208.963 24.332V32.34C209.561 31.6307 210.205 31.0987 210.895 30.744C211.605 30.3893 212.398 30.212 213.275 30.212ZM232.542 41.384C232.542 41.9627 232.626 42.392 232.794 42.672C232.962 42.9333 233.242 43.1293 233.634 43.26L232.794 45.892C231.917 45.8173 231.198 45.612 230.638 45.276C230.097 44.94 229.677 44.4173 229.378 43.708C228.408 45.2013 226.924 45.948 224.926 45.948C223.452 45.948 222.276 45.528 221.398 44.688C220.54 43.8293 220.11 42.7187 220.11 41.356C220.11 39.732 220.698 38.4907 221.874 37.632C223.05 36.7733 224.74 36.344 226.942 36.344H228.65V35.616C228.65 34.7013 228.445 34.0667 228.034 33.712C227.624 33.3573 226.942 33.18 225.99 33.18C224.945 33.18 223.638 33.4413 222.07 33.964L221.174 31.304C223.022 30.576 224.852 30.212 226.662 30.212C228.678 30.212 230.162 30.6507 231.114 31.528C232.066 32.3867 232.542 33.6747 232.542 35.392V41.384ZM226.018 43.092C227.138 43.092 228.016 42.5413 228.65 41.44V38.612H227.334C225.188 38.612 224.114 39.4147 224.114 41.02C224.114 41.6733 224.273 42.1867 224.59 42.56C224.926 42.9147 225.402 43.092 226.018 43.092ZM240.491 24.304V45.5H236.515V24.752L240.491 24.304ZM249.507 30.66L244.775 37.184L249.927 45.5H245.419L240.631 37.38L245.391 30.66H249.507ZM255.666 24.304V45.5H251.69V24.752L255.666 24.304ZM264.682 30.66L259.95 37.184L265.102 45.5H260.594L255.806 37.38L260.566 30.66H264.682ZM277.796 41.384C277.796 41.9627 277.88 42.392 278.048 42.672C278.216 42.9333 278.496 43.1293 278.888 43.26L278.048 45.892C277.171 45.8173 276.452 45.612 275.892 45.276C275.351 44.94 274.931 44.4173 274.632 43.708C273.661 45.2013 272.177 45.948 270.18 45.948C268.705 45.948 267.529 45.528 266.652 44.688C265.793 43.8293 265.364 42.7187 265.364 41.356C265.364 39.732 265.952 38.4907 267.128 37.632C268.304 36.7733 269.993 36.344 272.196 36.344H273.904V35.616C273.904 34.7013 273.699 34.0667 273.288 33.712C272.877 33.3573 272.196 33.18 271.244 33.18C270.199 33.18 268.892 33.4413 267.324 33.964L266.428 31.304C268.276 30.576 270.105 30.212 271.916 30.212C273.932 30.212 275.416 30.6507 276.368 31.528C277.32 32.3867 277.796 33.6747 277.796 35.392V41.384ZM271.272 43.092C272.392 43.092 273.269 42.5413 273.904 41.44V38.612H272.588C270.441 38.612 269.368 39.4147 269.368 41.02C269.368 41.6733 269.527 42.1867 269.844 42.56C270.18 42.9147 270.656 43.092 271.272 43.092ZM290.057 30.212C291.363 30.212 292.381 30.6133 293.109 31.416C293.837 32.2 294.201 33.292 294.201 34.692V45.5H290.225V35.364C290.225 34.5613 290.085 34.0013 289.805 33.684C289.543 33.348 289.142 33.18 288.601 33.18C288.041 33.18 287.527 33.3573 287.061 33.712C286.613 34.048 286.174 34.5613 285.745 35.252V45.5H281.769V30.66H285.213L285.521 32.536C286.137 31.7707 286.809 31.192 287.537 30.8C288.283 30.408 289.123 30.212 290.057 30.212ZM43.3332 58.24C43.7812 58.24 44.2758 58.3147 44.8172 58.464L44.1452 62.3C43.6225 62.1693 43.1838 62.104 42.8292 62.104C41.9518 62.104 41.2705 62.412 40.7852 63.028C40.2998 63.644 39.9172 64.5773 39.6372 65.828V73.5H35.6612V58.66H39.1052L39.4692 61.544C39.8238 60.4987 40.3372 59.6867 41.0092 59.108C41.6998 58.5293 42.4745 58.24 43.3332 58.24ZM58.4864 65.744C58.4864 65.9307 58.4584 66.444 58.4024 67.284H49.1344C49.2651 68.628 49.6291 69.58 50.2264 70.14C50.8238 70.7 51.6358 70.98 52.6624 70.98C53.2971 70.98 53.8944 70.8773 54.4544 70.672C55.0144 70.4667 55.6211 70.14 56.2744 69.692L57.9264 71.932C56.2651 73.276 54.3891 73.948 52.2984 73.948C49.9651 73.948 48.1731 73.248 46.9224 71.848C45.6718 70.448 45.0464 68.5533 45.0464 66.164C45.0464 64.652 45.3078 63.2987 45.8304 62.104C46.3718 60.8907 47.1464 59.9387 48.1544 59.248C49.1811 58.5573 50.3944 58.212 51.7944 58.212C53.9038 58.212 55.5464 58.8747 56.7224 60.2C57.8984 61.5253 58.4864 63.3733 58.4864 65.744ZM54.5384 64.624C54.5384 62.16 53.6518 60.928 51.8784 60.928C51.0571 60.928 50.4131 61.236 49.9464 61.852C49.4984 62.4493 49.2278 63.4293 49.1344 64.792H54.5384V64.624ZM74.6363 59.472C73.6656 59.8453 72.2376 60.032 70.3523 60.032C71.2856 60.4427 71.9763 60.956 72.4243 61.572C72.8723 62.1693 73.0963 62.9253 73.0963 63.84C73.0963 64.792 72.8443 65.6507 72.3403 66.416C71.855 67.1627 71.1456 67.7507 70.2123 68.18C69.2976 68.6093 68.2243 68.824 66.9923 68.824C66.339 68.824 65.7603 68.7587 65.2563 68.628C64.883 68.8707 64.6963 69.1973 64.6963 69.608C64.6963 69.9067 64.8083 70.1493 65.0323 70.336C65.275 70.504 65.7323 70.588 66.4043 70.588H68.6723C69.7736 70.588 70.735 70.7747 71.5563 71.148C72.3963 71.5027 73.0403 72.0067 73.4883 72.66C73.955 73.2947 74.1883 74.0227 74.1883 74.844C74.1883 76.356 73.535 77.532 72.2283 78.372C70.9403 79.2307 69.0736 79.66 66.6283 79.66C64.8736 79.66 63.483 79.4733 62.4563 79.1C61.4483 78.7453 60.739 78.2227 60.3283 77.532C59.9176 76.8413 59.7123 75.9733 59.7123 74.928H63.2683C63.2683 75.4133 63.3616 75.796 63.5483 76.076C63.735 76.3747 64.071 76.5893 64.5563 76.72C65.0603 76.8693 65.779 76.944 66.7123 76.944C68.0003 76.944 68.8963 76.7853 69.4003 76.468C69.923 76.1507 70.1843 75.7027 70.1843 75.124C70.1843 74.6013 69.9883 74.2 69.5963 73.92C69.2043 73.64 68.6256 73.5 67.8603 73.5H65.6763C64.2016 73.5 63.1003 73.2293 62.3723 72.688C61.6443 72.128 61.2803 71.428 61.2803 70.588C61.2803 70.0653 61.4296 69.5613 61.7283 69.076C62.0456 68.572 62.475 68.152 63.0163 67.816C62.1016 67.312 61.4296 66.724 61.0003 66.052C60.5896 65.3613 60.3843 64.54 60.3843 63.588C60.3843 62.5053 60.6456 61.5627 61.1683 60.76C61.7096 59.9387 62.4563 59.3133 63.4083 58.884C64.379 58.436 65.4803 58.212 66.7123 58.212C68.243 58.2493 69.503 58.1187 70.4923 57.82C71.4816 57.5213 72.5363 57.0547 73.6563 56.42L74.6363 59.472ZM66.7963 60.872C66.0496 60.872 65.4523 61.1147 65.0043 61.6C64.575 62.0667 64.3603 62.7107 64.3603 63.532C64.3603 64.372 64.575 65.0347 65.0043 65.52C65.4523 66.0053 66.059 66.248 66.8243 66.248C67.627 66.248 68.2336 66.0147 68.6443 65.548C69.055 65.0813 69.2603 64.3907 69.2603 63.476C69.2603 61.74 68.439 60.872 66.7963 60.872ZM88.4733 73.5H85.0293L84.8333 71.512C84.3107 72.3333 83.676 72.9493 82.9293 73.36C82.1827 73.752 81.3147 73.948 80.3253 73.948C78.9813 73.948 77.9547 73.5467 77.2453 72.744C76.536 71.9227 76.1813 70.784 76.1813 69.328V58.66H80.1573V68.824C80.1573 69.608 80.288 70.168 80.5493 70.504C80.8107 70.8213 81.2213 70.98 81.7813 70.98C82.8453 70.98 83.7507 70.336 84.4973 69.048V58.66H88.4733V73.5ZM96.0955 73.948C94.8821 73.948 93.9395 73.6027 93.2675 72.912C92.5955 72.2027 92.2595 71.204 92.2595 69.916V52.752L96.2355 52.304V69.804C96.2355 70.4573 96.5061 70.784 97.0475 70.784C97.3461 70.784 97.6075 70.728 97.8315 70.616L98.6435 73.444C97.8781 73.78 97.0288 73.948 96.0955 73.948ZM111.888 69.384C111.888 69.9627 111.972 70.392 112.14 70.672C112.308 70.9333 112.588 71.1293 112.98 71.26L112.14 73.892C111.263 73.8173 110.544 73.612 109.984 73.276C109.443 72.94 109.023 72.4173 108.724 71.708C107.753 73.2013 106.269 73.948 104.272 73.948C102.797 73.948 101.621 73.528 100.744 72.688C99.8852 71.8293 99.4559 70.7187 99.4559 69.356C99.4559 67.732 100.044 66.4907 101.22 65.632C102.396 64.7733 104.085 64.344 106.288 64.344H107.996V63.616C107.996 62.7013 107.791 62.0667 107.38 61.712C106.969 61.3573 106.288 61.18 105.336 61.18C104.291 61.18 102.984 61.4413 101.416 61.964L100.52 59.304C102.368 58.576 104.197 58.212 106.008 58.212C108.024 58.212 109.508 58.6507 110.46 59.528C111.412 60.3867 111.888 61.6747 111.888 63.392V69.384ZM105.364 71.092C106.484 71.092 107.361 70.5413 107.996 69.44V66.612H106.68C104.533 66.612 103.46 67.4147 103.46 69.02C103.46 69.6733 103.619 70.1867 103.936 70.56C104.272 70.9147 104.748 71.092 105.364 71.092ZM127.064 69.384C127.064 69.9627 127.148 70.392 127.316 70.672C127.484 70.9333 127.764 71.1293 128.156 71.26L127.316 73.892C126.438 73.8173 125.72 73.612 125.16 73.276C124.618 72.94 124.198 72.4173 123.9 71.708C122.929 73.2013 121.445 73.948 119.448 73.948C117.973 73.948 116.797 73.528 115.92 72.688C115.061 71.8293 114.632 70.7187 114.632 69.356C114.632 67.732 115.22 66.4907 116.396 65.632C117.572 64.7733 119.261 64.344 121.464 64.344H123.172V63.616C123.172 62.7013 122.966 62.0667 122.556 61.712C122.145 61.3573 121.464 61.18 120.512 61.18C119.466 61.18 118.16 61.4413 116.592 61.964L115.696 59.304C117.544 58.576 119.373 58.212 121.184 58.212C123.2 58.212 124.684 58.6507 125.636 59.528C126.588 60.3867 127.064 61.6747 127.064 63.392V69.384ZM120.54 71.092C121.66 71.092 122.537 70.5413 123.172 69.44V66.612H121.856C119.709 66.612 118.636 67.4147 118.636 69.02C118.636 69.6733 118.794 70.1867 119.112 70.56C119.448 70.9147 119.924 71.092 120.54 71.092ZM138.708 58.24C139.156 58.24 139.651 58.3147 140.192 58.464L139.52 62.3C138.998 62.1693 138.559 62.104 138.204 62.104C137.327 62.104 136.646 62.412 136.16 63.028C135.675 63.644 135.292 64.5773 135.012 65.828V73.5H131.036V58.66H134.48L134.844 61.544C135.199 60.4987 135.712 59.6867 136.384 59.108C137.075 58.5293 137.85 58.24 138.708 58.24ZM146.738 58.212C148.828 58.212 150.62 58.8093 152.114 60.004L150.602 62.272C149.351 61.488 148.119 61.096 146.906 61.096C146.252 61.096 145.748 61.2173 145.394 61.46C145.039 61.7027 144.862 62.0293 144.862 62.44C144.862 62.7387 144.936 62.9907 145.086 63.196C145.254 63.4013 145.552 63.5973 145.982 63.784C146.43 63.9707 147.092 64.1947 147.97 64.456C149.538 64.8853 150.704 65.464 151.47 66.192C152.235 66.9013 152.618 67.8813 152.618 69.132C152.618 70.1213 152.328 70.98 151.75 71.708C151.19 72.436 150.424 72.996 149.454 73.388C148.483 73.7613 147.4 73.948 146.206 73.948C144.955 73.948 143.816 73.7613 142.79 73.388C141.763 72.996 140.886 72.464 140.158 71.792L142.118 69.608C143.368 70.5787 144.694 71.064 146.094 71.064C146.84 71.064 147.428 70.924 147.858 70.644C148.306 70.3453 148.53 69.944 148.53 69.44C148.53 69.048 148.446 68.74 148.278 68.516C148.11 68.292 147.802 68.0867 147.354 67.9C146.906 67.6947 146.206 67.4613 145.254 67.2C143.76 66.7893 142.65 66.2107 141.922 65.464C141.212 64.6987 140.858 63.756 140.858 62.636C140.858 61.796 141.1 61.04 141.586 60.368C142.071 59.696 142.752 59.1733 143.63 58.8C144.526 58.408 145.562 58.212 146.738 58.212ZM167.752 65.744C167.752 65.9307 167.724 66.444 167.668 67.284H158.4C158.531 68.628 158.895 69.58 159.492 70.14C160.089 70.7 160.901 70.98 161.928 70.98C162.563 70.98 163.16 70.8773 163.72 70.672C164.28 70.4667 164.887 70.14 165.54 69.692L167.192 71.932C165.531 73.276 163.655 73.948 161.564 73.948C159.231 73.948 157.439 73.248 156.188 71.848C154.937 70.448 154.312 68.5533 154.312 66.164C154.312 64.652 154.573 63.2987 155.096 62.104C155.637 60.8907 156.412 59.9387 157.42 59.248C158.447 58.5573 159.66 58.212 161.06 58.212C163.169 58.212 164.812 58.8747 165.988 60.2C167.164 61.5253 167.752 63.3733 167.752 65.744ZM163.804 64.624C163.804 62.16 162.917 60.928 161.144 60.928C160.323 60.928 159.679 61.236 159.212 61.852C158.764 62.4493 158.493 63.4293 158.4 64.792H163.804V64.624ZM174.326 73.948C173.113 73.948 172.17 73.6027 171.498 72.912C170.826 72.2027 170.49 71.204 170.49 69.916V52.752L174.466 52.304V69.804C174.466 70.4573 174.737 70.784 175.278 70.784C175.577 70.784 175.838 70.728 176.062 70.616L176.874 73.444C176.109 73.78 175.259 73.948 174.326 73.948ZM187.791 72.8C187.25 73.1733 186.634 73.4533 185.943 73.64C185.271 73.8453 184.599 73.948 183.927 73.948C182.396 73.9293 181.239 73.4907 180.455 72.632C179.671 71.7733 179.279 70.5133 179.279 68.852V61.46H177.067V58.66H179.279V55.412L183.255 54.936V58.66H186.671L186.279 61.46H183.255V68.768C183.255 69.4773 183.376 69.9907 183.619 70.308C183.862 70.6253 184.235 70.784 184.739 70.784C185.243 70.784 185.803 70.616 186.419 70.28L187.791 72.8ZM201.316 58.212C203.406 58.212 205.198 58.8093 206.692 60.004L205.18 62.272C203.929 61.488 202.697 61.096 201.484 61.096C200.83 61.096 200.326 61.2173 199.972 61.46C199.617 61.7027 199.44 62.0293 199.44 62.44C199.44 62.7387 199.514 62.9907 199.664 63.196C199.832 63.4013 200.13 63.5973 200.56 63.784C201.008 63.9707 201.67 64.1947 202.548 64.456C204.116 64.8853 205.282 65.464 206.048 66.192C206.813 66.9013 207.196 67.8813 207.196 69.132C207.196 70.1213 206.906 70.98 206.328 71.708C205.768 72.436 205.002 72.996 204.032 73.388C203.061 73.7613 201.978 73.948 200.784 73.948C199.533 73.948 198.394 73.7613 197.368 73.388C196.341 72.996 195.464 72.464 194.736 71.792L196.696 69.608C197.946 70.5787 199.272 71.064 200.672 71.064C201.418 71.064 202.006 70.924 202.436 70.644C202.884 70.3453 203.108 69.944 203.108 69.44C203.108 69.048 203.024 68.74 202.856 68.516C202.688 68.292 202.38 68.0867 201.932 67.9C201.484 67.6947 200.784 67.4613 199.832 67.2C198.338 66.7893 197.228 66.2107 196.5 65.464C195.79 64.6987 195.436 63.756 195.436 62.636C195.436 61.796 195.678 61.04 196.164 60.368C196.649 59.696 197.33 59.1733 198.208 58.8C199.104 58.408 200.14 58.212 201.316 58.212ZM217.794 58.212C219.661 58.212 221.042 58.9027 221.938 60.284C222.853 61.6467 223.31 63.5693 223.31 66.052C223.31 67.564 223.077 68.9173 222.61 70.112C222.144 71.3067 221.462 72.2493 220.566 72.94C219.689 73.612 218.644 73.948 217.43 73.948C215.918 73.948 214.696 73.416 213.762 72.352V79.212L209.786 79.66V58.66H213.286L213.482 60.396C214.042 59.668 214.696 59.1267 215.442 58.772C216.208 58.3987 216.992 58.212 217.794 58.212ZM216.254 70.98C218.196 70.98 219.166 69.3467 219.166 66.08C219.166 64.288 218.952 63.0187 218.522 62.272C218.093 61.5253 217.44 61.152 216.562 61.152C216.002 61.152 215.48 61.3293 214.994 61.684C214.528 62.02 214.117 62.4773 213.762 63.056V69.524C214.397 70.4947 215.228 70.98 216.254 70.98ZM232.71 58.212C234.931 58.212 236.667 58.912 237.918 60.312C239.169 61.6933 239.794 63.616 239.794 66.08C239.794 67.648 239.505 69.0293 238.926 70.224C238.366 71.4 237.545 72.3147 236.462 72.968C235.398 73.6213 234.138 73.948 232.682 73.948C230.461 73.948 228.715 73.2573 227.446 71.876C226.195 70.476 225.57 68.544 225.57 66.08C225.57 64.512 225.85 63.14 226.41 61.964C226.989 60.7693 227.81 59.8453 228.874 59.192C229.957 58.5387 231.235 58.212 232.71 58.212ZM232.71 61.18C231.702 61.18 230.946 61.5813 230.442 62.384C229.957 63.168 229.714 64.4 229.714 66.08C229.714 67.76 229.957 69.0013 230.442 69.804C230.946 70.588 231.693 70.98 232.682 70.98C233.671 70.98 234.409 70.588 234.894 69.804C235.398 69.0013 235.65 67.76 235.65 66.08C235.65 64.4 235.407 63.168 234.922 62.384C234.437 61.5813 233.699 61.18 232.71 61.18ZM250.489 58.24C250.937 58.24 251.432 58.3147 251.973 58.464L251.301 62.3C250.779 62.1693 250.34 62.104 249.985 62.104C249.108 62.104 248.427 62.412 247.941 63.028C247.456 63.644 247.073 64.5773 246.793 65.828V73.5H242.817V58.66H246.261L246.625 61.544C246.98 60.4987 247.493 59.6867 248.165 59.108C248.856 58.5293 249.631 58.24 250.489 58.24ZM262.822 72.8C262.281 73.1733 261.665 73.4533 260.974 73.64C260.302 73.8453 259.63 73.948 258.958 73.948C257.428 73.9293 256.27 73.4907 255.486 72.632C254.702 71.7733 254.31 70.5133 254.31 68.852V61.46H252.098V58.66H254.31V55.412L258.286 54.936V58.66H261.702L261.31 61.46H258.286V68.768C258.286 69.4773 258.408 69.9907 258.65 70.308C258.893 70.6253 259.266 70.784 259.77 70.784C260.274 70.784 260.834 70.616 261.45 70.28L262.822 72.8ZM268.559 58.66V73.5H264.583V58.66H268.559ZM266.543 51.016C267.252 51.016 267.831 51.24 268.279 51.688C268.746 52.1173 268.979 52.668 268.979 53.34C268.979 54.012 268.746 54.572 268.279 55.02C267.831 55.4493 267.252 55.664 266.543 55.664C265.834 55.664 265.255 55.4493 264.807 55.02C264.359 54.572 264.135 54.012 264.135 53.34C264.135 52.668 264.359 52.1173 264.807 51.688C265.255 51.24 265.834 51.016 266.543 51.016ZM288.529 58.212C289.705 58.212 290.648 58.6133 291.357 59.416C292.085 60.2187 292.449 61.3107 292.449 62.692V73.5H288.473V63.364C288.473 61.908 287.988 61.18 287.017 61.18C286.495 61.18 286.037 61.348 285.645 61.684C285.253 62.02 284.852 62.5427 284.441 63.252V73.5H280.465V63.364C280.465 61.908 279.98 61.18 279.009 61.18C278.487 61.18 278.029 61.3573 277.637 61.712C277.245 62.048 276.853 62.5613 276.461 63.252V73.5H272.485V58.66H275.929L276.237 60.508C276.797 59.7613 277.423 59.192 278.113 58.8C278.823 58.408 279.635 58.212 280.549 58.212C281.389 58.212 282.117 58.4267 282.733 58.856C283.349 59.2667 283.797 59.8547 284.077 60.62C284.693 59.8173 285.356 59.22 286.065 58.828C286.793 58.4173 287.615 58.212 288.529 58.212ZM307.56 69.384C307.56 69.9627 307.644 70.392 307.812 70.672C307.98 70.9333 308.26 71.1293 308.652 71.26L307.812 73.892C306.934 73.8173 306.216 73.612 305.656 73.276C305.114 72.94 304.694 72.4173 304.396 71.708C303.425 73.2013 301.941 73.948 299.944 73.948C298.469 73.948 297.293 73.528 296.416 72.688C295.557 71.8293 295.128 70.7187 295.128 69.356C295.128 67.732 295.716 66.4907 296.892 65.632C298.068 64.7733 299.757 64.344 301.96 64.344H303.668V63.616C303.668 62.7013 303.462 62.0667 303.052 61.712C302.641 61.3573 301.96 61.18 301.008 61.18C299.962 61.18 298.656 61.4413 297.088 61.964L296.192 59.304C298.04 58.576 299.869 58.212 301.68 58.212C303.696 58.212 305.18 58.6507 306.132 59.528C307.084 60.3867 307.56 61.6747 307.56 63.392V69.384ZM301.036 71.092C302.156 71.092 303.033 70.5413 303.668 69.44V66.612H302.352C300.205 66.612 299.132 67.4147 299.132 69.02C299.132 69.6733 299.29 70.1867 299.608 70.56C299.944 70.9147 300.42 71.092 301.036 71.092ZM312.904 69.16C313.576 69.16 314.146 69.3933 314.612 69.86C315.079 70.3267 315.312 70.8867 315.312 71.54C315.312 72.1933 315.079 72.7627 314.612 73.248C314.146 73.7147 313.576 73.948 312.904 73.948C312.251 73.948 311.691 73.7147 311.224 73.248C310.758 72.7627 310.524 72.1933 310.524 71.54C310.524 70.8867 310.758 70.3267 311.224 69.86C311.691 69.3933 312.251 69.16 312.904 69.16Z" fill="#E3000F"/>
</svg>
