<svg width="350" height="100" viewBox="0 0 350 100" fill="none" xmlns="http://www.w3.org/2000/svg">
<path d="M36.707 15.4375V32.5H33.7656V15.4375H36.707ZM47.1953 29.0664C47.1953 28.7852 47.125 28.5312 46.9844 28.3047C46.8438 28.0703 46.5742 27.8594 46.1758 27.6719C45.7852 27.4844 45.207 27.3125 44.4414 27.1562C43.7695 27.0078 43.1523 26.832 42.5898 26.6289C42.0352 26.418 41.5586 26.1641 41.1602 25.8672C40.7617 25.5703 40.4531 25.2188 40.2344 24.8125C40.0156 24.4062 39.9062 23.9375 39.9062 23.4062C39.9062 22.8906 40.0195 22.4023 40.2461 21.9414C40.4727 21.4805 40.7969 21.0742 41.2188 20.7227C41.6406 20.3711 42.1523 20.0938 42.7539 19.8906C43.3633 19.6875 44.043 19.5859 44.793 19.5859C45.8555 19.5859 46.7656 19.7656 47.5234 20.125C48.2891 20.4766 48.875 20.957 49.2812 21.5664C49.6875 22.168 49.8906 22.8477 49.8906 23.6055H47.0664C47.0664 23.2695 46.9805 22.957 46.8086 22.668C46.6445 22.3711 46.3945 22.1328 46.0586 21.9531C45.7227 21.7656 45.3008 21.6719 44.793 21.6719C44.3086 21.6719 43.9062 21.75 43.5859 21.9062C43.2734 22.0547 43.0391 22.25 42.8828 22.4922C42.7344 22.7344 42.6602 23 42.6602 23.2891C42.6602 23.5 42.6992 23.6914 42.7773 23.8633C42.8633 24.0273 43.0039 24.1797 43.1992 24.3203C43.3945 24.4531 43.6602 24.5781 43.9961 24.6953C44.3398 24.8125 44.7695 24.9258 45.2852 25.0352C46.2539 25.2383 47.0859 25.5 47.7812 25.8203C48.4844 26.1328 49.0234 26.5391 49.3984 27.0391C49.7734 27.5312 49.9609 28.1562 49.9609 28.9141C49.9609 29.4766 49.8398 29.9922 49.5977 30.4609C49.3633 30.9219 49.0195 31.3242 48.5664 31.668C48.1133 32.0039 47.5703 32.2656 46.9375 32.4531C46.3125 32.6406 45.6094 32.7344 44.8281 32.7344C43.6797 32.7344 42.707 32.5312 41.9102 32.125C41.1133 31.7109 40.5078 31.1836 40.0938 30.543C39.6875 29.8945 39.4844 29.2227 39.4844 28.5273H42.2148C42.2461 29.0508 42.3906 29.4688 42.6484 29.7812C42.9141 30.0859 43.2422 30.3086 43.6328 30.4492C44.0312 30.582 44.4414 30.6484 44.8633 30.6484C45.3711 30.6484 45.7969 30.582 46.1406 30.4492C46.4844 30.3086 46.7461 30.1211 46.9258 29.8867C47.1055 29.6445 47.1953 29.3711 47.1953 29.0664ZM58.0234 32.7344C57.0859 32.7344 56.2383 32.582 55.4805 32.2773C54.7305 31.9648 54.0898 31.5312 53.5586 30.9766C53.0352 30.4219 52.6328 29.7695 52.3516 29.0195C52.0703 28.2695 51.9297 27.4609 51.9297 26.5938V26.125C51.9297 25.1328 52.0742 24.2344 52.3633 23.4297C52.6523 22.625 53.0547 21.9375 53.5703 21.3672C54.0859 20.7891 54.6953 20.3477 55.3984 20.043C56.1016 19.7383 56.8633 19.5859 57.6836 19.5859C58.5898 19.5859 59.3828 19.7383 60.0625 20.043C60.7422 20.3477 61.3047 20.7773 61.75 21.332C62.2031 21.8789 62.5391 22.5312 62.7578 23.2891C62.9844 24.0469 63.0977 24.8828 63.0977 25.7969V27.0039H53.3008V24.9766H60.3086V24.7539C60.293 24.2461 60.1914 23.7695 60.0039 23.3242C59.8242 22.8789 59.5469 22.5195 59.1719 22.2461C58.7969 21.9727 58.2969 21.8359 57.6719 21.8359C57.2031 21.8359 56.7852 21.9375 56.418 22.1406C56.0586 22.3359 55.7578 22.6211 55.5156 22.9961C55.2734 23.3711 55.0859 23.8242 54.9531 24.3555C54.8281 24.8789 54.7656 25.4688 54.7656 26.125V26.5938C54.7656 27.1484 54.8398 27.6641 54.9883 28.1406C55.1445 28.6094 55.3711 29.0195 55.668 29.3711C55.9648 29.7227 56.3242 30 56.7461 30.2031C57.168 30.3984 57.6484 30.4961 58.1875 30.4961C58.8672 30.4961 59.4727 30.3594 60.0039 30.0859C60.5352 29.8125 60.9961 29.4258 61.3867 28.9258L62.875 30.3672C62.6016 30.7656 62.2461 31.1484 61.8086 31.5156C61.3711 31.875 60.8359 32.168 60.2031 32.3945C59.5781 32.6211 58.8516 32.7344 58.0234 32.7344ZM73.4219 19.8203H75.9883V32.1484C75.9883 33.2891 75.7461 34.2578 75.2617 35.0547C74.7773 35.8516 74.1016 36.457 73.2344 36.8711C72.3672 37.293 71.3633 37.5039 70.2227 37.5039C69.7383 37.5039 69.1992 37.4336 68.6055 37.293C68.0195 37.1523 67.4492 36.9258 66.8945 36.6133C66.3477 36.3086 65.8906 35.9062 65.5234 35.4062L66.8477 33.7422C67.3008 34.2812 67.8008 34.6758 68.3477 34.9258C68.8945 35.1758 69.4688 35.3008 70.0703 35.3008C70.7188 35.3008 71.2695 35.1797 71.7227 34.9375C72.1836 34.7031 72.5391 34.3555 72.7891 33.8945C73.0391 33.4336 73.1641 32.8711 73.1641 32.207V22.6914L73.4219 19.8203ZM64.8086 26.3008V26.0547C64.8086 25.0938 64.9258 24.2188 65.1602 23.4297C65.3945 22.6328 65.7305 21.9492 66.168 21.3789C66.6055 20.8008 67.1367 20.3594 67.7617 20.0547C68.3867 19.7422 69.0938 19.5859 69.8828 19.5859C70.7031 19.5859 71.4023 19.7344 71.9805 20.0312C72.5664 20.3281 73.0547 20.7539 73.4453 21.3086C73.8359 21.8555 74.1406 22.5117 74.3594 23.2773C74.5859 24.0352 74.7539 24.8789 74.8633 25.8086V26.5938C74.7617 27.5 74.5898 28.3281 74.3477 29.0781C74.1055 29.8281 73.7852 30.4766 73.3867 31.0234C72.9883 31.5703 72.4961 31.9922 71.9102 32.2891C71.332 32.5859 70.6484 32.7344 69.8594 32.7344C69.0859 32.7344 68.3867 32.5742 67.7617 32.2539C67.1445 31.9336 66.6133 31.4844 66.168 30.9062C65.7305 30.3281 65.3945 29.6484 65.1602 28.8672C64.9258 28.0781 64.8086 27.2227 64.8086 26.3008ZM67.6328 26.0547V26.3008C67.6328 26.8789 67.6875 27.418 67.7969 27.918C67.9141 28.418 68.0898 28.8594 68.3242 29.2422C68.5664 29.6172 68.8711 29.9141 69.2383 30.1328C69.6133 30.3438 70.0547 30.4492 70.5625 30.4492C71.2266 30.4492 71.7695 30.3086 72.1914 30.0273C72.6211 29.7461 72.9492 29.3672 73.1758 28.8906C73.4102 28.4062 73.5742 27.8672 73.668 27.2734V25.1523C73.6211 24.6914 73.5234 24.2617 73.375 23.8633C73.2344 23.4648 73.043 23.1172 72.8008 22.8203C72.5586 22.5156 72.2539 22.2812 71.8867 22.1172C71.5195 21.9453 71.0859 21.8594 70.5859 21.8594C70.0781 21.8594 69.6367 21.9688 69.2617 22.1875C68.8867 22.4062 68.5781 22.707 68.3359 23.0898C68.1016 23.4727 67.9258 23.918 67.8086 24.4258C67.6914 24.9336 67.6328 25.4766 67.6328 26.0547ZM81.9414 19.8203V32.5H79.1055V19.8203H81.9414ZM78.918 16.4922C78.918 16.0625 79.0586 15.707 79.3398 15.4258C79.6289 15.1367 80.0273 14.9922 80.5352 14.9922C81.0352 14.9922 81.4297 15.1367 81.7188 15.4258C82.0078 15.707 82.1523 16.0625 82.1523 16.4922C82.1523 16.9141 82.0078 17.2656 81.7188 17.5469C81.4297 17.8281 81.0352 17.9688 80.5352 17.9688C80.0273 17.9688 79.6289 17.8281 79.3398 17.5469C79.0586 17.2656 78.918 16.9141 78.918 16.4922ZM93.8594 14.5V32.5H91.0234V14.5H93.8594ZM101.734 19.8203L96.2148 25.9375L93.1914 29.0312L92.4531 26.6406L94.7383 23.8164L98.3242 19.8203H101.734ZM98.9336 32.5L94.8203 26.5469L96.6016 24.5664L102.203 32.5H98.9336ZM111.156 29.5117V19.8203H113.992V32.5H111.32L111.156 29.5117ZM111.555 26.875L112.504 26.8516C112.504 27.7031 112.41 28.4883 112.223 29.207C112.035 29.918 111.746 30.5391 111.355 31.0703C110.965 31.5938 110.465 32.0039 109.855 32.3008C109.246 32.5898 108.516 32.7344 107.664 32.7344C107.047 32.7344 106.48 32.6445 105.965 32.4648C105.449 32.2852 105.004 32.0078 104.629 31.6328C104.262 31.2578 103.977 30.7695 103.773 30.168C103.57 29.5664 103.469 28.8477 103.469 28.0117V19.8203H106.293V28.0352C106.293 28.4961 106.348 28.8828 106.457 29.1953C106.566 29.5 106.715 29.7461 106.902 29.9336C107.09 30.1211 107.309 30.2539 107.559 30.332C107.809 30.4102 108.074 30.4492 108.355 30.4492C109.16 30.4492 109.793 30.293 110.254 29.9805C110.723 29.6602 111.055 29.2305 111.25 28.6914C111.453 28.1523 111.555 27.5469 111.555 26.875ZM119.91 19.8203V32.5H117.074V19.8203H119.91ZM116.887 16.4922C116.887 16.0625 117.027 15.707 117.309 15.4258C117.598 15.1367 117.996 14.9922 118.504 14.9922C119.004 14.9922 119.398 15.1367 119.688 15.4258C119.977 15.707 120.121 16.0625 120.121 16.4922C120.121 16.9141 119.977 17.2656 119.688 17.5469C119.398 17.8281 119.004 17.9688 118.504 17.9688C117.996 17.9688 117.598 17.8281 117.309 17.5469C117.027 17.2656 116.887 16.9141 116.887 16.4922ZM136.094 29.0664C136.094 28.7852 136.023 28.5312 135.883 28.3047C135.742 28.0703 135.473 27.8594 135.074 27.6719C134.684 27.4844 134.105 27.3125 133.34 27.1562C132.668 27.0078 132.051 26.832 131.488 26.6289C130.934 26.418 130.457 26.1641 130.059 25.8672C129.66 25.5703 129.352 25.2188 129.133 24.8125C128.914 24.4062 128.805 23.9375 128.805 23.4062C128.805 22.8906 128.918 22.4023 129.145 21.9414C129.371 21.4805 129.695 21.0742 130.117 20.7227C130.539 20.3711 131.051 20.0938 131.652 19.8906C132.262 19.6875 132.941 19.5859 133.691 19.5859C134.754 19.5859 135.664 19.7656 136.422 20.125C137.188 20.4766 137.773 20.957 138.18 21.5664C138.586 22.168 138.789 22.8477 138.789 23.6055H135.965C135.965 23.2695 135.879 22.957 135.707 22.668C135.543 22.3711 135.293 22.1328 134.957 21.9531C134.621 21.7656 134.199 21.6719 133.691 21.6719C133.207 21.6719 132.805 21.75 132.484 21.9062C132.172 22.0547 131.938 22.25 131.781 22.4922C131.633 22.7344 131.559 23 131.559 23.2891C131.559 23.5 131.598 23.6914 131.676 23.8633C131.762 24.0273 131.902 24.1797 132.098 24.3203C132.293 24.4531 132.559 24.5781 132.895 24.6953C133.238 24.8125 133.668 24.9258 134.184 25.0352C135.152 25.2383 135.984 25.5 136.68 25.8203C137.383 26.1328 137.922 26.5391 138.297 27.0391C138.672 27.5312 138.859 28.1562 138.859 28.9141C138.859 29.4766 138.738 29.9922 138.496 30.4609C138.262 30.9219 137.918 31.3242 137.465 31.668C137.012 32.0039 136.469 32.2656 135.836 32.4531C135.211 32.6406 134.508 32.7344 133.727 32.7344C132.578 32.7344 131.605 32.5312 130.809 32.125C130.012 31.7109 129.406 31.1836 128.992 30.543C128.586 29.8945 128.383 29.2227 128.383 28.5273H131.113C131.145 29.0508 131.289 29.4688 131.547 29.7812C131.812 30.0859 132.141 30.3086 132.531 30.4492C132.93 30.582 133.34 30.6484 133.762 30.6484C134.27 30.6484 134.695 30.582 135.039 30.4492C135.383 30.3086 135.645 30.1211 135.824 29.8867C136.004 29.6445 136.094 29.3711 136.094 29.0664ZM146.922 32.7344C145.984 32.7344 145.137 32.582 144.379 32.2773C143.629 31.9648 142.988 31.5312 142.457 30.9766C141.934 30.4219 141.531 29.7695 141.25 29.0195C140.969 28.2695 140.828 27.4609 140.828 26.5938V26.125C140.828 25.1328 140.973 24.2344 141.262 23.4297C141.551 22.625 141.953 21.9375 142.469 21.3672C142.984 20.7891 143.594 20.3477 144.297 20.043C145 19.7383 145.762 19.5859 146.582 19.5859C147.488 19.5859 148.281 19.7383 148.961 20.043C149.641 20.3477 150.203 20.7773 150.648 21.332C151.102 21.8789 151.438 22.5312 151.656 23.2891C151.883 24.0469 151.996 24.8828 151.996 25.7969V27.0039H142.199V24.9766H149.207V24.7539C149.191 24.2461 149.09 23.7695 148.902 23.3242C148.723 22.8789 148.445 22.5195 148.07 22.2461C147.695 21.9727 147.195 21.8359 146.57 21.8359C146.102 21.8359 145.684 21.9375 145.316 22.1406C144.957 22.3359 144.656 22.6211 144.414 22.9961C144.172 23.3711 143.984 23.8242 143.852 24.3555C143.727 24.8789 143.664 25.4688 143.664 26.125V26.5938C143.664 27.1484 143.738 27.6641 143.887 28.1406C144.043 28.6094 144.27 29.0195 144.566 29.3711C144.863 29.7227 145.223 30 145.645 30.2031C146.066 30.3984 146.547 30.4961 147.086 30.4961C147.766 30.4961 148.371 30.3594 148.902 30.0859C149.434 29.8125 149.895 29.4258 150.285 28.9258L151.773 30.3672C151.5 30.7656 151.145 31.1484 150.707 31.5156C150.27 31.875 149.734 32.168 149.102 32.3945C148.477 32.6211 147.75 32.7344 146.922 32.7344ZM159.789 32.7344C158.852 32.7344 158.004 32.582 157.246 32.2773C156.496 31.9648 155.855 31.5312 155.324 30.9766C154.801 30.4219 154.398 29.7695 154.117 29.0195C153.836 28.2695 153.695 27.4609 153.695 26.5938V26.125C153.695 25.1328 153.84 24.2344 154.129 23.4297C154.418 22.625 154.82 21.9375 155.336 21.3672C155.852 20.7891 156.461 20.3477 157.164 20.043C157.867 19.7383 158.629 19.5859 159.449 19.5859C160.355 19.5859 161.148 19.7383 161.828 20.043C162.508 20.3477 163.07 20.7773 163.516 21.332C163.969 21.8789 164.305 22.5312 164.523 23.2891C164.75 24.0469 164.863 24.8828 164.863 25.7969V27.0039H155.066V24.9766H162.074V24.7539C162.059 24.2461 161.957 23.7695 161.77 23.3242C161.59 22.8789 161.312 22.5195 160.938 22.2461C160.562 21.9727 160.062 21.8359 159.438 21.8359C158.969 21.8359 158.551 21.9375 158.184 22.1406C157.824 22.3359 157.523 22.6211 157.281 22.9961C157.039 23.3711 156.852 23.8242 156.719 24.3555C156.594 24.8789 156.531 25.4688 156.531 26.125V26.5938C156.531 27.1484 156.605 27.6641 156.754 28.1406C156.91 28.6094 157.137 29.0195 157.434 29.3711C157.73 29.7227 158.09 30 158.512 30.2031C158.934 30.3984 159.414 30.4961 159.953 30.4961C160.633 30.4961 161.238 30.3594 161.77 30.0859C162.301 29.8125 162.762 29.4258 163.152 28.9258L164.641 30.3672C164.367 30.7656 164.012 31.1484 163.574 31.5156C163.137 31.875 162.602 32.168 161.969 32.3945C161.344 32.6211 160.617 32.7344 159.789 32.7344ZM173.184 19.8203H176.02V33.6016C176.02 34.4688 175.871 35.1992 175.574 35.793C175.277 36.3945 174.84 36.8477 174.262 37.1523C173.684 37.4648 172.977 37.6211 172.141 37.6211C171.891 37.6211 171.633 37.6016 171.367 37.5625C171.094 37.5312 170.836 37.4844 170.594 37.4219L170.605 35.2188C170.77 35.25 170.945 35.2734 171.133 35.2891C171.312 35.3125 171.484 35.3242 171.648 35.3242C171.984 35.3242 172.266 35.2656 172.492 35.1484C172.719 35.0312 172.891 34.8477 173.008 34.5977C173.125 34.3477 173.184 34.0156 173.184 33.6016V19.8203ZM172.938 16.4922C172.938 16.0625 173.082 15.707 173.371 15.4258C173.66 15.1367 174.055 14.9922 174.555 14.9922C175.062 14.9922 175.457 15.1367 175.738 15.4258C176.027 15.707 176.172 16.0625 176.172 16.4922C176.172 16.9141 176.027 17.2656 175.738 17.5469C175.457 17.8281 175.062 17.9688 174.555 17.9688C174.055 17.9688 173.66 17.8281 173.371 17.5469C173.082 17.2656 172.938 16.9141 172.938 16.4922ZM186.215 29.957V23.9102C186.215 23.457 186.133 23.0664 185.969 22.7383C185.805 22.4102 185.555 22.1562 185.219 21.9766C184.891 21.7969 184.477 21.707 183.977 21.707C183.516 21.707 183.117 21.7852 182.781 21.9414C182.445 22.0977 182.184 22.3086 181.996 22.5742C181.809 22.8398 181.715 23.1406 181.715 23.4766H178.902C178.902 22.9766 179.023 22.4922 179.266 22.0234C179.508 21.5547 179.859 21.1367 180.32 20.7695C180.781 20.4023 181.332 20.1133 181.973 19.9023C182.613 19.6914 183.332 19.5859 184.129 19.5859C185.082 19.5859 185.926 19.7461 186.66 20.0664C187.402 20.3867 187.984 20.8711 188.406 21.5195C188.836 22.1602 189.051 22.9648 189.051 23.9336V29.5703C189.051 30.1484 189.09 30.668 189.168 31.1289C189.254 31.582 189.375 31.9766 189.531 32.3125V32.5H186.637C186.504 32.1953 186.398 31.8086 186.32 31.3398C186.25 30.8633 186.215 30.4023 186.215 29.957ZM186.625 24.7891L186.648 26.5352H184.621C184.098 26.5352 183.637 26.5859 183.238 26.6875C182.84 26.7812 182.508 26.9219 182.242 27.1094C181.977 27.2969 181.777 27.5234 181.645 27.7891C181.512 28.0547 181.445 28.3555 181.445 28.6914C181.445 29.0273 181.523 29.3359 181.68 29.6172C181.836 29.8906 182.062 30.1055 182.359 30.2617C182.664 30.418 183.031 30.4961 183.461 30.4961C184.039 30.4961 184.543 30.3789 184.973 30.1445C185.41 29.9023 185.754 29.6094 186.004 29.2656C186.254 28.9141 186.387 28.582 186.402 28.2695L187.316 29.5234C187.223 29.8438 187.062 30.1875 186.836 30.5547C186.609 30.9219 186.312 31.2734 185.945 31.6094C185.586 31.9375 185.152 32.207 184.645 32.418C184.145 32.6289 183.566 32.7344 182.91 32.7344C182.082 32.7344 181.344 32.5703 180.695 32.2422C180.047 31.9062 179.539 31.457 179.172 30.8945C178.805 30.3242 178.621 29.6797 178.621 28.9609C178.621 28.2891 178.746 27.6953 178.996 27.1797C179.254 26.6562 179.629 26.2188 180.121 25.8672C180.621 25.5156 181.23 25.25 181.949 25.0703C182.668 24.8828 183.488 24.7891 184.41 24.7891H186.625ZM180.074 16.457C180.074 16.0742 180.207 15.7539 180.473 15.4961C180.738 15.2305 181.09 15.0977 181.527 15.0977C181.973 15.0977 182.328 15.2305 182.594 15.4961C182.859 15.7539 182.992 16.0742 182.992 16.457C182.992 16.832 182.859 17.1523 182.594 17.418C182.328 17.6758 181.973 17.8047 181.527 17.8047C181.09 17.8047 180.738 17.6758 180.473 17.418C180.207 17.1523 180.074 16.832 180.074 16.457ZM185.5 16.4688C185.5 16.0859 185.633 15.7656 185.898 15.5078C186.164 15.2422 186.52 15.1094 186.965 15.1094C187.402 15.1094 187.754 15.2422 188.02 15.5078C188.293 15.7656 188.43 16.0859 188.43 16.4688C188.43 16.8438 188.293 17.1641 188.02 17.4297C187.754 17.6875 187.402 17.8164 186.965 17.8164C186.52 17.8164 186.164 17.6875 185.898 17.4297C185.633 17.1641 185.5 16.8438 185.5 16.4688ZM199.152 29.957V23.9102C199.152 23.457 199.07 23.0664 198.906 22.7383C198.742 22.4102 198.492 22.1562 198.156 21.9766C197.828 21.7969 197.414 21.707 196.914 21.707C196.453 21.707 196.055 21.7852 195.719 21.9414C195.383 22.0977 195.121 22.3086 194.934 22.5742C194.746 22.8398 194.652 23.1406 194.652 23.4766H191.84C191.84 22.9766 191.961 22.4922 192.203 22.0234C192.445 21.5547 192.797 21.1367 193.258 20.7695C193.719 20.4023 194.27 20.1133 194.91 19.9023C195.551 19.6914 196.27 19.5859 197.066 19.5859C198.02 19.5859 198.863 19.7461 199.598 20.0664C200.34 20.3867 200.922 20.8711 201.344 21.5195C201.773 22.1602 201.988 22.9648 201.988 23.9336V29.5703C201.988 30.1484 202.027 30.668 202.105 31.1289C202.191 31.582 202.312 31.9766 202.469 32.3125V32.5H199.574C199.441 32.1953 199.336 31.8086 199.258 31.3398C199.188 30.8633 199.152 30.4023 199.152 29.957ZM199.562 24.7891L199.586 26.5352H197.559C197.035 26.5352 196.574 26.5859 196.176 26.6875C195.777 26.7812 195.445 26.9219 195.18 27.1094C194.914 27.2969 194.715 27.5234 194.582 27.7891C194.449 28.0547 194.383 28.3555 194.383 28.6914C194.383 29.0273 194.461 29.3359 194.617 29.6172C194.773 29.8906 195 30.1055 195.297 30.2617C195.602 30.418 195.969 30.4961 196.398 30.4961C196.977 30.4961 197.48 30.3789 197.91 30.1445C198.348 29.9023 198.691 29.6094 198.941 29.2656C199.191 28.9141 199.324 28.582 199.34 28.2695L200.254 29.5234C200.16 29.8438 200 30.1875 199.773 30.5547C199.547 30.9219 199.25 31.2734 198.883 31.6094C198.523 31.9375 198.09 32.207 197.582 32.418C197.082 32.6289 196.504 32.7344 195.848 32.7344C195.02 32.7344 194.281 32.5703 193.633 32.2422C192.984 31.9062 192.477 31.457 192.109 30.8945C191.742 30.3242 191.559 29.6797 191.559 28.9609C191.559 28.2891 191.684 27.6953 191.934 27.1797C192.191 26.6562 192.566 26.2188 193.059 25.8672C193.559 25.5156 194.168 25.25 194.887 25.0703C195.605 24.8828 196.426 24.7891 197.348 24.7891H199.562ZM193.012 16.457C193.012 16.0742 193.145 15.7539 193.41 15.4961C193.676 15.2305 194.027 15.0977 194.465 15.0977C194.91 15.0977 195.266 15.2305 195.531 15.4961C195.797 15.7539 195.93 16.0742 195.93 16.457C195.93 16.832 195.797 17.1523 195.531 17.418C195.266 17.6758 194.91 17.8047 194.465 17.8047C194.027 17.8047 193.676 17.6758 193.41 17.418C193.145 17.1523 193.012 16.832 193.012 16.457ZM198.438 16.4688C198.438 16.0859 198.57 15.7656 198.836 15.5078C199.102 15.2422 199.457 15.1094 199.902 15.1094C200.34 15.1094 200.691 15.2422 200.957 15.5078C201.23 15.7656 201.367 16.0859 201.367 16.4688C201.367 16.8438 201.23 17.1641 200.957 17.4297C200.691 17.6875 200.34 17.8164 199.902 17.8164C199.457 17.8164 199.102 17.6875 198.836 17.4297C198.57 17.1641 198.438 16.8438 198.438 16.4688ZM204.953 14.5H207.777V29.793L207.508 32.5H204.953V14.5ZM216.051 26.043V26.2891C216.051 27.2266 215.945 28.0898 215.734 28.8789C215.531 29.6602 215.219 30.3398 214.797 30.918C214.383 31.4961 213.867 31.9453 213.25 32.2656C212.641 32.5781 211.934 32.7344 211.129 32.7344C210.34 32.7344 209.652 32.5859 209.066 32.2891C208.48 31.9922 207.988 31.5703 207.59 31.0234C207.199 30.4766 206.883 29.8242 206.641 29.0664C206.398 28.3086 206.227 27.4727 206.125 26.5586V25.7734C206.227 24.8516 206.398 24.0156 206.641 23.2656C206.883 22.5078 207.199 21.8555 207.59 21.3086C207.988 20.7539 208.477 20.3281 209.055 20.0312C209.641 19.7344 210.324 19.5859 211.105 19.5859C211.918 19.5859 212.633 19.7422 213.25 20.0547C213.875 20.3672 214.395 20.8125 214.809 21.3906C215.223 21.9609 215.531 22.6406 215.734 23.4297C215.945 24.2188 216.051 25.0898 216.051 26.043ZM213.227 26.2891V26.043C213.227 25.4727 213.18 24.9375 213.086 24.4375C212.992 23.9297 212.836 23.4844 212.617 23.1016C212.406 22.7188 212.117 22.418 211.75 22.1992C211.391 21.9727 210.941 21.8594 210.402 21.8594C209.902 21.8594 209.473 21.9453 209.113 22.1172C208.754 22.2891 208.453 22.5234 208.211 22.8203C207.969 23.1172 207.777 23.4609 207.637 23.8516C207.504 24.2422 207.414 24.6641 207.367 25.1172V27.2383C207.438 27.8242 207.586 28.3633 207.812 28.8555C208.047 29.3398 208.375 29.7305 208.797 30.0273C209.219 30.3164 209.762 30.4609 210.426 30.4609C210.949 30.4609 211.391 30.3555 211.75 30.1445C212.109 29.9336 212.395 29.6406 212.605 29.2656C212.824 28.8828 212.98 28.4375 213.074 27.9297C213.176 27.4219 213.227 26.875 213.227 26.2891ZM227.254 22.2578V37.375H224.43V19.8203H227.031L227.254 22.2578ZM235.516 26.043V26.2891C235.516 27.2109 235.406 28.0664 235.188 28.8555C234.977 29.6367 234.66 30.3203 234.238 30.9062C233.824 31.4844 233.312 31.9336 232.703 32.2539C232.094 32.5742 231.391 32.7344 230.594 32.7344C229.805 32.7344 229.113 32.5898 228.52 32.3008C227.934 32.0039 227.438 31.5859 227.031 31.0469C226.625 30.5078 226.297 29.875 226.047 29.1484C225.805 28.4141 225.633 27.6094 225.531 26.7344V25.7852C225.633 24.8555 225.805 24.0117 226.047 23.2539C226.297 22.4961 226.625 21.8438 227.031 21.2969C227.438 20.75 227.934 20.3281 228.52 20.0312C229.105 19.7344 229.789 19.5859 230.57 19.5859C231.367 19.5859 232.074 19.7422 232.691 20.0547C233.309 20.3594 233.828 20.7969 234.25 21.3672C234.672 21.9297 234.988 22.6094 235.199 23.4062C235.41 24.1953 235.516 25.0742 235.516 26.043ZM232.691 26.2891V26.043C232.691 25.457 232.637 24.9141 232.527 24.4141C232.418 23.9062 232.246 23.4609 232.012 23.0781C231.777 22.6953 231.477 22.3984 231.109 22.1875C230.75 21.9688 230.316 21.8594 229.809 21.8594C229.309 21.8594 228.879 21.9453 228.52 22.1172C228.16 22.2812 227.859 22.5117 227.617 22.8086C227.375 23.1055 227.188 23.4531 227.055 23.8516C226.922 24.2422 226.828 24.668 226.773 25.1289V27.4023C226.867 27.9648 227.027 28.4805 227.254 28.9492C227.48 29.418 227.801 29.793 228.215 30.0742C228.637 30.3477 229.176 30.4844 229.832 30.4844C230.34 30.4844 230.773 30.375 231.133 30.1562C231.492 29.9375 231.785 29.6367 232.012 29.2539C232.246 28.8633 232.418 28.4141 232.527 27.9062C232.637 27.3984 232.691 26.8594 232.691 26.2891ZM240.941 14.5V32.5H238.105V14.5H240.941ZM251.184 29.957V23.9102C251.184 23.457 251.102 23.0664 250.938 22.7383C250.773 22.4102 250.523 22.1562 250.188 21.9766C249.859 21.7969 249.445 21.707 248.945 21.707C248.484 21.707 248.086 21.7852 247.75 21.9414C247.414 22.0977 247.152 22.3086 246.965 22.5742C246.777 22.8398 246.684 23.1406 246.684 23.4766H243.871C243.871 22.9766 243.992 22.4922 244.234 22.0234C244.477 21.5547 244.828 21.1367 245.289 20.7695C245.75 20.4023 246.301 20.1133 246.941 19.9023C247.582 19.6914 248.301 19.5859 249.098 19.5859C250.051 19.5859 250.895 19.7461 251.629 20.0664C252.371 20.3867 252.953 20.8711 253.375 21.5195C253.805 22.1602 254.02 22.9648 254.02 23.9336V29.5703C254.02 30.1484 254.059 30.668 254.137 31.1289C254.223 31.582 254.344 31.9766 254.5 32.3125V32.5H251.605C251.473 32.1953 251.367 31.8086 251.289 31.3398C251.219 30.8633 251.184 30.4023 251.184 29.957ZM251.594 24.7891L251.617 26.5352H249.59C249.066 26.5352 248.605 26.5859 248.207 26.6875C247.809 26.7812 247.477 26.9219 247.211 27.1094C246.945 27.2969 246.746 27.5234 246.613 27.7891C246.48 28.0547 246.414 28.3555 246.414 28.6914C246.414 29.0273 246.492 29.3359 246.648 29.6172C246.805 29.8906 247.031 30.1055 247.328 30.2617C247.633 30.418 248 30.4961 248.43 30.4961C249.008 30.4961 249.512 30.3789 249.941 30.1445C250.379 29.9023 250.723 29.6094 250.973 29.2656C251.223 28.9141 251.355 28.582 251.371 28.2695L252.285 29.5234C252.191 29.8438 252.031 30.1875 251.805 30.5547C251.578 30.9219 251.281 31.2734 250.914 31.6094C250.555 31.9375 250.121 32.207 249.613 32.418C249.113 32.6289 248.535 32.7344 247.879 32.7344C247.051 32.7344 246.312 32.5703 245.664 32.2422C245.016 31.9062 244.508 31.457 244.141 30.8945C243.773 30.3242 243.59 29.6797 243.59 28.9609C243.59 28.2891 243.715 27.6953 243.965 27.1797C244.223 26.6562 244.598 26.2188 245.09 25.8672C245.59 25.5156 246.199 25.25 246.918 25.0703C247.637 24.8828 248.457 24.7891 249.379 24.7891H251.594ZM264.121 29.957V23.9102C264.121 23.457 264.039 23.0664 263.875 22.7383C263.711 22.4102 263.461 22.1562 263.125 21.9766C262.797 21.7969 262.383 21.707 261.883 21.707C261.422 21.707 261.023 21.7852 260.688 21.9414C260.352 22.0977 260.09 22.3086 259.902 22.5742C259.715 22.8398 259.621 23.1406 259.621 23.4766H256.809C256.809 22.9766 256.93 22.4922 257.172 22.0234C257.414 21.5547 257.766 21.1367 258.227 20.7695C258.688 20.4023 259.238 20.1133 259.879 19.9023C260.52 19.6914 261.238 19.5859 262.035 19.5859C262.988 19.5859 263.832 19.7461 264.566 20.0664C265.309 20.3867 265.891 20.8711 266.312 21.5195C266.742 22.1602 266.957 22.9648 266.957 23.9336V29.5703C266.957 30.1484 266.996 30.668 267.074 31.1289C267.16 31.582 267.281 31.9766 267.438 32.3125V32.5H264.543C264.41 32.1953 264.305 31.8086 264.227 31.3398C264.156 30.8633 264.121 30.4023 264.121 29.957ZM264.531 24.7891L264.555 26.5352H262.527C262.004 26.5352 261.543 26.5859 261.145 26.6875C260.746 26.7812 260.414 26.9219 260.148 27.1094C259.883 27.2969 259.684 27.5234 259.551 27.7891C259.418 28.0547 259.352 28.3555 259.352 28.6914C259.352 29.0273 259.43 29.3359 259.586 29.6172C259.742 29.8906 259.969 30.1055 260.266 30.2617C260.57 30.418 260.938 30.4961 261.367 30.4961C261.945 30.4961 262.449 30.3789 262.879 30.1445C263.316 29.9023 263.66 29.6094 263.91 29.2656C264.16 28.9141 264.293 28.582 264.309 28.2695L265.223 29.5234C265.129 29.8438 264.969 30.1875 264.742 30.5547C264.516 30.9219 264.219 31.2734 263.852 31.6094C263.492 31.9375 263.059 32.207 262.551 32.418C262.051 32.6289 261.473 32.7344 260.816 32.7344C259.988 32.7344 259.25 32.5703 258.602 32.2422C257.953 31.9062 257.445 31.457 257.078 30.8945C256.711 30.3242 256.527 29.6797 256.527 28.9609C256.527 28.2891 256.652 27.6953 256.902 27.1797C257.16 26.6562 257.535 26.2188 258.027 25.8672C258.527 25.5156 259.137 25.25 259.855 25.0703C260.574 24.8828 261.395 24.7891 262.316 24.7891H264.531ZM272.711 22.5273V32.5H269.887V19.8203H272.547L272.711 22.5273ZM272.207 25.6914L271.293 25.6797C271.301 24.7812 271.426 23.957 271.668 23.207C271.918 22.457 272.262 21.8125 272.699 21.2734C273.145 20.7344 273.676 20.3203 274.293 20.0312C274.91 19.7344 275.598 19.5859 276.355 19.5859C276.965 19.5859 277.516 19.6719 278.008 19.8438C278.508 20.0078 278.934 20.2773 279.285 20.6523C279.645 21.0273 279.918 21.5156 280.105 22.1172C280.293 22.7109 280.387 23.4414 280.387 24.3086V32.5H277.551V24.2969C277.551 23.6875 277.461 23.207 277.281 22.8555C277.109 22.4961 276.855 22.2422 276.52 22.0938C276.191 21.9375 275.781 21.8594 275.289 21.8594C274.805 21.8594 274.371 21.9609 273.988 22.1641C273.605 22.3672 273.281 22.6445 273.016 22.9961C272.758 23.3477 272.559 23.7539 272.418 24.2148C272.277 24.6758 272.207 25.168 272.207 25.6914ZM286.293 19.8203V32.5H283.457V19.8203H286.293ZM283.27 16.4922C283.27 16.0625 283.41 15.707 283.691 15.4258C283.98 15.1367 284.379 14.9922 284.887 14.9922C285.387 14.9922 285.781 15.1367 286.07 15.4258C286.359 15.707 286.504 16.0625 286.504 16.4922C286.504 16.9141 286.359 17.2656 286.07 17.5469C285.781 17.8281 285.387 17.9688 284.887 17.9688C284.379 17.9688 283.98 17.8281 283.691 17.5469C283.41 17.2656 283.27 16.9141 283.27 16.4922ZM292.234 14.5V32.5H289.398V14.5H292.234ZM300.109 19.8203L294.59 25.9375L291.566 29.0312L290.828 26.6406L293.113 23.8164L296.699 19.8203H300.109ZM297.309 32.5L293.195 26.5469L294.977 24.5664L300.578 32.5H297.309ZM309.016 29.0664C309.016 28.7852 308.945 28.5312 308.805 28.3047C308.664 28.0703 308.395 27.8594 307.996 27.6719C307.605 27.4844 307.027 27.3125 306.262 27.1562C305.59 27.0078 304.973 26.832 304.41 26.6289C303.855 26.418 303.379 26.1641 302.98 25.8672C302.582 25.5703 302.273 25.2188 302.055 24.8125C301.836 24.4062 301.727 23.9375 301.727 23.4062C301.727 22.8906 301.84 22.4023 302.066 21.9414C302.293 21.4805 302.617 21.0742 303.039 20.7227C303.461 20.3711 303.973 20.0938 304.574 19.8906C305.184 19.6875 305.863 19.5859 306.613 19.5859C307.676 19.5859 308.586 19.7656 309.344 20.125C310.109 20.4766 310.695 20.957 311.102 21.5664C311.508 22.168 311.711 22.8477 311.711 23.6055H308.887C308.887 23.2695 308.801 22.957 308.629 22.668C308.465 22.3711 308.215 22.1328 307.879 21.9531C307.543 21.7656 307.121 21.6719 306.613 21.6719C306.129 21.6719 305.727 21.75 305.406 21.9062C305.094 22.0547 304.859 22.25 304.703 22.4922C304.555 22.7344 304.48 23 304.48 23.2891C304.48 23.5 304.52 23.6914 304.598 23.8633C304.684 24.0273 304.824 24.1797 305.02 24.3203C305.215 24.4531 305.48 24.5781 305.816 24.6953C306.16 24.8125 306.59 24.9258 307.105 25.0352C308.074 25.2383 308.906 25.5 309.602 25.8203C310.305 26.1328 310.844 26.5391 311.219 27.0391C311.594 27.5312 311.781 28.1562 311.781 28.9141C311.781 29.4766 311.66 29.9922 311.418 30.4609C311.184 30.9219 310.84 31.3242 310.387 31.668C309.934 32.0039 309.391 32.2656 308.758 32.4531C308.133 32.6406 307.43 32.7344 306.648 32.7344C305.5 32.7344 304.527 32.5312 303.73 32.125C302.934 31.7109 302.328 31.1836 301.914 30.543C301.508 29.8945 301.305 29.2227 301.305 28.5273H304.035C304.066 29.0508 304.211 29.4688 304.469 29.7812C304.734 30.0859 305.062 30.3086 305.453 30.4492C305.852 30.582 306.262 30.6484 306.684 30.6484C307.191 30.6484 307.617 30.582 307.961 30.4492C308.305 30.3086 308.566 30.1211 308.746 29.8867C308.926 29.6445 309.016 29.3711 309.016 29.0664ZM316.902 29.7812L316.891 31.7969C316.891 32.5938 316.691 33.4141 316.293 34.2578C315.895 35.1016 315.367 35.7969 314.711 36.3438L313.199 35.4648C313.418 35.1133 313.617 34.7578 313.797 34.3984C313.977 34.0391 314.121 33.6562 314.23 33.25C314.34 32.8438 314.395 32.3945 314.395 31.9023V29.7812H316.902ZM50.3828 55.0664C50.3828 54.7852 50.3125 54.5312 50.1719 54.3047C50.0312 54.0703 49.7617 53.8594 49.3633 53.6719C48.9727 53.4844 48.3945 53.3125 47.6289 53.1562C46.957 53.0078 46.3398 52.832 45.7773 52.6289C45.2227 52.418 44.7461 52.1641 44.3477 51.8672C43.9492 51.5703 43.6406 51.2188 43.4219 50.8125C43.2031 50.4062 43.0938 49.9375 43.0938 49.4062C43.0938 48.8906 43.207 48.4023 43.4336 47.9414C43.6602 47.4805 43.9844 47.0742 44.4062 46.7227C44.8281 46.3711 45.3398 46.0938 45.9414 45.8906C46.5508 45.6875 47.2305 45.5859 47.9805 45.5859C49.043 45.5859 49.9531 45.7656 50.7109 46.125C51.4766 46.4766 52.0625 46.957 52.4688 47.5664C52.875 48.168 53.0781 48.8477 53.0781 49.6055H50.2539C50.2539 49.2695 50.168 48.957 49.9961 48.668C49.832 48.3711 49.582 48.1328 49.2461 47.9531C48.9102 47.7656 48.4883 47.6719 47.9805 47.6719C47.4961 47.6719 47.0938 47.75 46.7734 47.9062C46.4609 48.0547 46.2266 48.25 46.0703 48.4922C45.9219 48.7344 45.8477 49 45.8477 49.2891C45.8477 49.5 45.8867 49.6914 45.9648 49.8633C46.0508 50.0273 46.1914 50.1797 46.3867 50.3203C46.582 50.4531 46.8477 50.5781 47.1836 50.6953C47.5273 50.8125 47.957 50.9258 48.4727 51.0352C49.4414 51.2383 50.2734 51.5 50.9688 51.8203C51.6719 52.1328 52.2109 52.5391 52.5859 53.0391C52.9609 53.5312 53.1484 54.1562 53.1484 54.9141C53.1484 55.4766 53.0273 55.9922 52.7852 56.4609C52.5508 56.9219 52.207 57.3242 51.7539 57.668C51.3008 58.0039 50.7578 58.2656 50.125 58.4531C49.5 58.6406 48.7969 58.7344 48.0156 58.7344C46.8672 58.7344 45.8945 58.5312 45.0977 58.125C44.3008 57.7109 43.6953 57.1836 43.2812 56.543C42.875 55.8945 42.6719 55.2227 42.6719 54.5273H45.4023C45.4336 55.0508 45.5781 55.4688 45.8359 55.7812C46.1016 56.0859 46.4297 56.3086 46.8203 56.4492C47.2188 56.582 47.6289 56.6484 48.0508 56.6484C48.5586 56.6484 48.9844 56.582 49.3281 56.4492C49.6719 56.3086 49.9336 56.1211 50.1133 55.8867C50.293 55.6445 50.3828 55.3711 50.3828 55.0664ZM58.457 48.2578V63.375H55.6328V45.8203H58.2344L58.457 48.2578ZM66.7188 52.043V52.2891C66.7188 53.2109 66.6094 54.0664 66.3906 54.8555C66.1797 55.6367 65.8633 56.3203 65.4414 56.9062C65.0273 57.4844 64.5156 57.9336 63.9062 58.2539C63.2969 58.5742 62.5938 58.7344 61.7969 58.7344C61.0078 58.7344 60.3164 58.5898 59.7227 58.3008C59.1367 58.0039 58.6406 57.5859 58.2344 57.0469C57.8281 56.5078 57.5 55.875 57.25 55.1484C57.0078 54.4141 56.8359 53.6094 56.7344 52.7344V51.7852C56.8359 50.8555 57.0078 50.0117 57.25 49.2539C57.5 48.4961 57.8281 47.8438 58.2344 47.2969C58.6406 46.75 59.1367 46.3281 59.7227 46.0312C60.3086 45.7344 60.9922 45.5859 61.7734 45.5859C62.5703 45.5859 63.2773 45.7422 63.8945 46.0547C64.5117 46.3594 65.0312 46.7969 65.4531 47.3672C65.875 47.9297 66.1914 48.6094 66.4023 49.4062C66.6133 50.1953 66.7188 51.0742 66.7188 52.043ZM63.8945 52.2891V52.043C63.8945 51.457 63.8398 50.9141 63.7305 50.4141C63.6211 49.9062 63.4492 49.4609 63.2148 49.0781C62.9805 48.6953 62.6797 48.3984 62.3125 48.1875C61.9531 47.9688 61.5195 47.8594 61.0117 47.8594C60.5117 47.8594 60.082 47.9453 59.7227 48.1172C59.3633 48.2812 59.0625 48.5117 58.8203 48.8086C58.5781 49.1055 58.3906 49.4531 58.2578 49.8516C58.125 50.2422 58.0312 50.668 57.9766 51.1289V53.4023C58.0703 53.9648 58.2305 54.4805 58.457 54.9492C58.6836 55.418 59.0039 55.793 59.418 56.0742C59.8398 56.3477 60.3789 56.4844 61.0352 56.4844C61.543 56.4844 61.9766 56.375 62.3359 56.1562C62.6953 55.9375 62.9883 55.6367 63.2148 55.2539C63.4492 54.8633 63.6211 54.4141 63.7305 53.9062C63.8398 53.3984 63.8945 52.8594 63.8945 52.2891ZM68.582 52.3008V52.0312C68.582 51.1172 68.7148 50.2695 68.9805 49.4883C69.2461 48.6992 69.6289 48.0156 70.1289 47.4375C70.6367 46.8516 71.2539 46.3984 71.9805 46.0781C72.7148 45.75 73.543 45.5859 74.4648 45.5859C75.3945 45.5859 76.2227 45.75 76.9492 46.0781C77.6836 46.3984 78.3047 46.8516 78.8125 47.4375C79.3203 48.0156 79.707 48.6992 79.9727 49.4883C80.2383 50.2695 80.3711 51.1172 80.3711 52.0312V52.3008C80.3711 53.2148 80.2383 54.0625 79.9727 54.8438C79.707 55.625 79.3203 56.3086 78.8125 56.8945C78.3047 57.4727 77.6875 57.9258 76.9609 58.2539C76.2344 58.5742 75.4102 58.7344 74.4883 58.7344C73.5586 58.7344 72.7266 58.5742 71.9922 58.2539C71.2656 57.9258 70.6484 57.4727 70.1406 56.8945C69.6328 56.3086 69.2461 55.625 68.9805 54.8438C68.7148 54.0625 68.582 53.2148 68.582 52.3008ZM71.4062 52.0312V52.3008C71.4062 52.8711 71.4648 53.4102 71.582 53.918C71.6992 54.4258 71.8828 54.8711 72.1328 55.2539C72.3828 55.6367 72.7031 55.9375 73.0938 56.1562C73.4844 56.375 73.9492 56.4844 74.4883 56.4844C75.0117 56.4844 75.4648 56.375 75.8477 56.1562C76.2383 55.9375 76.5586 55.6367 76.8086 55.2539C77.0586 54.8711 77.2422 54.4258 77.3594 53.918C77.4844 53.4102 77.5469 52.8711 77.5469 52.3008V52.0312C77.5469 51.4688 77.4844 50.9375 77.3594 50.4375C77.2422 49.9297 77.0547 49.4805 76.7969 49.0898C76.5469 48.6992 76.2266 48.3945 75.8359 48.1758C75.4531 47.9492 74.9961 47.8359 74.4648 47.8359C73.9336 47.8359 73.4727 47.9492 73.082 48.1758C72.6992 48.3945 72.3828 48.6992 72.1328 49.0898C71.8828 49.4805 71.6992 49.9297 71.582 50.4375C71.4648 50.9375 71.4062 51.4688 71.4062 52.0312ZM85.5742 48.2344V58.5H82.75V45.8203H85.4453L85.5742 48.2344ZM89.4531 45.7383L89.4297 48.3633C89.2578 48.332 89.0703 48.3086 88.8672 48.293C88.6719 48.2773 88.4766 48.2695 88.2812 48.2695C87.7969 48.2695 87.3711 48.3398 87.0039 48.4805C86.6367 48.6133 86.3281 48.8086 86.0781 49.0664C85.8359 49.3164 85.6484 49.6211 85.5156 49.9805C85.3828 50.3398 85.3047 50.7422 85.2812 51.1875L84.6367 51.2344C84.6367 50.4375 84.7148 49.6992 84.8711 49.0195C85.0273 48.3398 85.2617 47.7422 85.5742 47.2266C85.8945 46.7109 86.293 46.3086 86.7695 46.0195C87.2539 45.7305 87.8125 45.5859 88.4453 45.5859C88.6172 45.5859 88.8008 45.6016 88.9961 45.6328C89.1992 45.6641 89.3516 45.6992 89.4531 45.7383ZM98.7227 55.875V40.5H101.559V58.5H98.9922L98.7227 55.875ZM90.4727 52.3008V52.0547C90.4727 51.0938 90.5859 50.2188 90.8125 49.4297C91.0391 48.6328 91.3672 47.9492 91.7969 47.3789C92.2266 46.8008 92.75 46.3594 93.3672 46.0547C93.9844 45.7422 94.6797 45.5859 95.4531 45.5859C96.2188 45.5859 96.8906 45.7344 97.4688 46.0312C98.0469 46.3281 98.5391 46.7539 98.9453 47.3086C99.3516 47.8555 99.6758 48.5117 99.918 49.2773C100.16 50.0352 100.332 50.8789 100.434 51.8086V52.5938C100.332 53.5 100.16 54.3281 99.918 55.0781C99.6758 55.8281 99.3516 56.4766 98.9453 57.0234C98.5391 57.5703 98.043 57.9922 97.457 58.2891C96.8789 58.5859 96.2031 58.7344 95.4297 58.7344C94.6641 58.7344 93.9727 58.5742 93.3555 58.2539C92.7461 57.9336 92.2266 57.4844 91.7969 56.9062C91.3672 56.3281 91.0391 55.6484 90.8125 54.8672C90.5859 54.0781 90.4727 53.2227 90.4727 52.3008ZM93.2969 52.0547V52.3008C93.2969 52.8789 93.3477 53.418 93.4492 53.918C93.5586 54.418 93.7266 54.8594 93.9531 55.2422C94.1797 55.6172 94.4727 55.9141 94.832 56.1328C95.1992 56.3438 95.6367 56.4492 96.1445 56.4492C96.7852 56.4492 97.3125 56.3086 97.7266 56.0273C98.1406 55.7461 98.4648 55.3672 98.6992 54.8906C98.9414 54.4062 99.1055 53.8672 99.1914 53.2734V51.1523C99.1445 50.6914 99.0469 50.2617 98.8984 49.8633C98.7578 49.4648 98.5664 49.1172 98.3242 48.8203C98.082 48.5156 97.7812 48.2812 97.4219 48.1172C97.0703 47.9453 96.6523 47.8594 96.168 47.8594C95.6523 47.8594 95.2148 47.9688 94.8555 48.1875C94.4961 48.4062 94.1992 48.707 93.9648 49.0898C93.7383 49.4727 93.5703 49.918 93.4609 50.4258C93.3516 50.9336 93.2969 51.4766 93.2969 52.0547ZM107.535 45.8203V58.5H104.699V45.8203H107.535ZM104.512 42.4922C104.512 42.0625 104.652 41.707 104.934 41.4258C105.223 41.1367 105.621 40.9922 106.129 40.9922C106.629 40.9922 107.023 41.1367 107.312 41.4258C107.602 41.707 107.746 42.0625 107.746 42.4922C107.746 42.9141 107.602 43.2656 107.312 43.5469C107.023 43.8281 106.629 43.9688 106.129 43.9688C105.621 43.9688 105.223 43.8281 104.934 43.5469C104.652 43.2656 104.512 42.9141 104.512 42.4922ZM118.258 55.5117V45.8203H121.094V58.5H118.422L118.258 55.5117ZM118.656 52.875L119.605 52.8516C119.605 53.7031 119.512 54.4883 119.324 55.207C119.137 55.918 118.848 56.5391 118.457 57.0703C118.066 57.5938 117.566 58.0039 116.957 58.3008C116.348 58.5898 115.617 58.7344 114.766 58.7344C114.148 58.7344 113.582 58.6445 113.066 58.4648C112.551 58.2852 112.105 58.0078 111.73 57.6328C111.363 57.2578 111.078 56.7695 110.875 56.168C110.672 55.5664 110.57 54.8477 110.57 54.0117V45.8203H113.395V54.0352C113.395 54.4961 113.449 54.8828 113.559 55.1953C113.668 55.5 113.816 55.7461 114.004 55.9336C114.191 56.1211 114.41 56.2539 114.66 56.332C114.91 56.4102 115.176 56.4492 115.457 56.4492C116.262 56.4492 116.895 56.293 117.355 55.9805C117.824 55.6602 118.156 55.2305 118.352 54.6914C118.555 54.1523 118.656 53.5469 118.656 52.875ZM131.617 55.5117V45.8203H134.453V58.5H131.781L131.617 55.5117ZM132.016 52.875L132.965 52.8516C132.965 53.7031 132.871 54.4883 132.684 55.207C132.496 55.918 132.207 56.5391 131.816 57.0703C131.426 57.5938 130.926 58.0039 130.316 58.3008C129.707 58.5898 128.977 58.7344 128.125 58.7344C127.508 58.7344 126.941 58.6445 126.426 58.4648C125.91 58.2852 125.465 58.0078 125.09 57.6328C124.723 57.2578 124.438 56.7695 124.234 56.168C124.031 55.5664 123.93 54.8477 123.93 54.0117V45.8203H126.754V54.0352C126.754 54.4961 126.809 54.8828 126.918 55.1953C127.027 55.5 127.176 55.7461 127.363 55.9336C127.551 56.1211 127.77 56.2539 128.02 56.332C128.27 56.4102 128.535 56.4492 128.816 56.4492C129.621 56.4492 130.254 56.293 130.715 55.9805C131.184 55.6602 131.516 55.2305 131.711 54.6914C131.914 54.1523 132.016 53.5469 132.016 52.875ZM145.082 55.875V40.5H147.918V58.5H145.352L145.082 55.875ZM136.832 52.3008V52.0547C136.832 51.0938 136.945 50.2188 137.172 49.4297C137.398 48.6328 137.727 47.9492 138.156 47.3789C138.586 46.8008 139.109 46.3594 139.727 46.0547C140.344 45.7422 141.039 45.5859 141.812 45.5859C142.578 45.5859 143.25 45.7344 143.828 46.0312C144.406 46.3281 144.898 46.7539 145.305 47.3086C145.711 47.8555 146.035 48.5117 146.277 49.2773C146.52 50.0352 146.691 50.8789 146.793 51.8086V52.5938C146.691 53.5 146.52 54.3281 146.277 55.0781C146.035 55.8281 145.711 56.4766 145.305 57.0234C144.898 57.5703 144.402 57.9922 143.816 58.2891C143.238 58.5859 142.562 58.7344 141.789 58.7344C141.023 58.7344 140.332 58.5742 139.715 58.2539C139.105 57.9336 138.586 57.4844 138.156 56.9062C137.727 56.3281 137.398 55.6484 137.172 54.8672C136.945 54.0781 136.832 53.2227 136.832 52.3008ZM139.656 52.0547V52.3008C139.656 52.8789 139.707 53.418 139.809 53.918C139.918 54.418 140.086 54.8594 140.312 55.2422C140.539 55.6172 140.832 55.9141 141.191 56.1328C141.559 56.3438 141.996 56.4492 142.504 56.4492C143.145 56.4492 143.672 56.3086 144.086 56.0273C144.5 55.7461 144.824 55.3672 145.059 54.8906C145.301 54.4062 145.465 53.8672 145.551 53.2734V51.1523C145.504 50.6914 145.406 50.2617 145.258 49.8633C145.117 49.4648 144.926 49.1172 144.684 48.8203C144.441 48.5156 144.141 48.2812 143.781 48.1172C143.43 47.9453 143.012 47.8594 142.527 47.8594C142.012 47.8594 141.574 47.9688 141.215 48.1875C140.855 48.4062 140.559 48.707 140.324 49.0898C140.098 49.4727 139.93 49.918 139.82 50.4258C139.711 50.9336 139.656 51.4766 139.656 52.0547ZM153.895 45.8203V58.5H151.059V45.8203H153.895ZM150.871 42.4922C150.871 42.0625 151.012 41.707 151.293 41.4258C151.582 41.1367 151.98 40.9922 152.488 40.9922C152.988 40.9922 153.383 41.1367 153.672 41.4258C153.961 41.707 154.105 42.0625 154.105 42.4922C154.105 42.9141 153.961 43.2656 153.672 43.5469C153.383 43.8281 152.988 43.9688 152.488 43.9688C151.98 43.9688 151.582 43.8281 151.293 43.5469C151.012 43.2656 150.871 42.9141 150.871 42.4922ZM164.102 55.0664C164.102 54.7852 164.031 54.5312 163.891 54.3047C163.75 54.0703 163.48 53.8594 163.082 53.6719C162.691 53.4844 162.113 53.3125 161.348 53.1562C160.676 53.0078 160.059 52.832 159.496 52.6289C158.941 52.418 158.465 52.1641 158.066 51.8672C157.668 51.5703 157.359 51.2188 157.141 50.8125C156.922 50.4062 156.812 49.9375 156.812 49.4062C156.812 48.8906 156.926 48.4023 157.152 47.9414C157.379 47.4805 157.703 47.0742 158.125 46.7227C158.547 46.3711 159.059 46.0938 159.66 45.8906C160.27 45.6875 160.949 45.5859 161.699 45.5859C162.762 45.5859 163.672 45.7656 164.43 46.125C165.195 46.4766 165.781 46.957 166.188 47.5664C166.594 48.168 166.797 48.8477 166.797 49.6055H163.973C163.973 49.2695 163.887 48.957 163.715 48.668C163.551 48.3711 163.301 48.1328 162.965 47.9531C162.629 47.7656 162.207 47.6719 161.699 47.6719C161.215 47.6719 160.812 47.75 160.492 47.9062C160.18 48.0547 159.945 48.25 159.789 48.4922C159.641 48.7344 159.566 49 159.566 49.2891C159.566 49.5 159.605 49.6914 159.684 49.8633C159.77 50.0273 159.91 50.1797 160.105 50.3203C160.301 50.4531 160.566 50.5781 160.902 50.6953C161.246 50.8125 161.676 50.9258 162.191 51.0352C163.16 51.2383 163.992 51.5 164.688 51.8203C165.391 52.1328 165.93 52.5391 166.305 53.0391C166.68 53.5312 166.867 54.1562 166.867 54.9141C166.867 55.4766 166.746 55.9922 166.504 56.4609C166.27 56.9219 165.926 57.3242 165.473 57.668C165.02 58.0039 164.477 58.2656 163.844 58.4531C163.219 58.6406 162.516 58.7344 161.734 58.7344C160.586 58.7344 159.613 58.5312 158.816 58.125C158.02 57.7109 157.414 57.1836 157 56.543C156.594 55.8945 156.391 55.2227 156.391 54.5273H159.121C159.152 55.0508 159.297 55.4688 159.555 55.7812C159.82 56.0859 160.148 56.3086 160.539 56.4492C160.938 56.582 161.348 56.6484 161.77 56.6484C162.277 56.6484 162.703 56.582 163.047 56.4492C163.391 56.3086 163.652 56.1211 163.832 55.8867C164.012 55.6445 164.102 55.3711 164.102 55.0664ZM174.93 58.7344C173.992 58.7344 173.145 58.582 172.387 58.2773C171.637 57.9648 170.996 57.5312 170.465 56.9766C169.941 56.4219 169.539 55.7695 169.258 55.0195C168.977 54.2695 168.836 53.4609 168.836 52.5938V52.125C168.836 51.1328 168.98 50.2344 169.27 49.4297C169.559 48.625 169.961 47.9375 170.477 47.3672C170.992 46.7891 171.602 46.3477 172.305 46.043C173.008 45.7383 173.77 45.5859 174.59 45.5859C175.496 45.5859 176.289 45.7383 176.969 46.043C177.648 46.3477 178.211 46.7773 178.656 47.332C179.109 47.8789 179.445 48.5312 179.664 49.2891C179.891 50.0469 180.004 50.8828 180.004 51.7969V53.0039H170.207V50.9766H177.215V50.7539C177.199 50.2461 177.098 49.7695 176.91 49.3242C176.73 48.8789 176.453 48.5195 176.078 48.2461C175.703 47.9727 175.203 47.8359 174.578 47.8359C174.109 47.8359 173.691 47.9375 173.324 48.1406C172.965 48.3359 172.664 48.6211 172.422 48.9961C172.18 49.3711 171.992 49.8242 171.859 50.3555C171.734 50.8789 171.672 51.4688 171.672 52.125V52.5938C171.672 53.1484 171.746 53.6641 171.895 54.1406C172.051 54.6094 172.277 55.0195 172.574 55.3711C172.871 55.7227 173.23 56 173.652 56.2031C174.074 56.3984 174.555 56.4961 175.094 56.4961C175.773 56.4961 176.379 56.3594 176.91 56.0859C177.441 55.8125 177.902 55.4258 178.293 54.9258L179.781 56.3672C179.508 56.7656 179.152 57.1484 178.715 57.5156C178.277 57.875 177.742 58.168 177.109 58.3945C176.484 58.6211 175.758 58.7344 174.93 58.7344ZM185.23 45.8203V58.5H182.395V45.8203H185.23ZM182.207 42.4922C182.207 42.0625 182.348 41.707 182.629 41.4258C182.918 41.1367 183.316 40.9922 183.824 40.9922C184.324 40.9922 184.719 41.1367 185.008 41.4258C185.297 41.707 185.441 42.0625 185.441 42.4922C185.441 42.9141 185.297 43.2656 185.008 43.5469C184.719 43.8281 184.324 43.9688 183.824 43.9688C183.316 43.9688 182.918 43.8281 182.629 43.5469C182.348 43.2656 182.207 42.9141 182.207 42.4922ZM196.059 55.875V40.5H198.895V58.5H196.328L196.059 55.875ZM187.809 52.3008V52.0547C187.809 51.0938 187.922 50.2188 188.148 49.4297C188.375 48.6328 188.703 47.9492 189.133 47.3789C189.562 46.8008 190.086 46.3594 190.703 46.0547C191.32 45.7422 192.016 45.5859 192.789 45.5859C193.555 45.5859 194.227 45.7344 194.805 46.0312C195.383 46.3281 195.875 46.7539 196.281 47.3086C196.688 47.8555 197.012 48.5117 197.254 49.2773C197.496 50.0352 197.668 50.8789 197.77 51.8086V52.5938C197.668 53.5 197.496 54.3281 197.254 55.0781C197.012 55.8281 196.688 56.4766 196.281 57.0234C195.875 57.5703 195.379 57.9922 194.793 58.2891C194.215 58.5859 193.539 58.7344 192.766 58.7344C192 58.7344 191.309 58.5742 190.691 58.2539C190.082 57.9336 189.562 57.4844 189.133 56.9062C188.703 56.3281 188.375 55.6484 188.148 54.8672C187.922 54.0781 187.809 53.2227 187.809 52.3008ZM190.633 52.0547V52.3008C190.633 52.8789 190.684 53.418 190.785 53.918C190.895 54.418 191.062 54.8594 191.289 55.2422C191.516 55.6172 191.809 55.9141 192.168 56.1328C192.535 56.3438 192.973 56.4492 193.48 56.4492C194.121 56.4492 194.648 56.3086 195.062 56.0273C195.477 55.7461 195.801 55.3672 196.035 54.8906C196.277 54.4062 196.441 53.8672 196.527 53.2734V51.1523C196.48 50.6914 196.383 50.2617 196.234 49.8633C196.094 49.4648 195.902 49.1172 195.66 48.8203C195.418 48.5156 195.117 48.2812 194.758 48.1172C194.406 47.9453 193.988 47.8594 193.504 47.8594C192.988 47.8594 192.551 47.9688 192.191 48.1875C191.832 48.4062 191.535 48.707 191.301 49.0898C191.074 49.4727 190.906 49.918 190.797 50.4258C190.688 50.9336 190.633 51.4766 190.633 52.0547ZM214.938 55.0664C214.938 54.7852 214.867 54.5312 214.727 54.3047C214.586 54.0703 214.316 53.8594 213.918 53.6719C213.527 53.4844 212.949 53.3125 212.184 53.1562C211.512 53.0078 210.895 52.832 210.332 52.6289C209.777 52.418 209.301 52.1641 208.902 51.8672C208.504 51.5703 208.195 51.2188 207.977 50.8125C207.758 50.4062 207.648 49.9375 207.648 49.4062C207.648 48.8906 207.762 48.4023 207.988 47.9414C208.215 47.4805 208.539 47.0742 208.961 46.7227C209.383 46.3711 209.895 46.0938 210.496 45.8906C211.105 45.6875 211.785 45.5859 212.535 45.5859C213.598 45.5859 214.508 45.7656 215.266 46.125C216.031 46.4766 216.617 46.957 217.023 47.5664C217.43 48.168 217.633 48.8477 217.633 49.6055H214.809C214.809 49.2695 214.723 48.957 214.551 48.668C214.387 48.3711 214.137 48.1328 213.801 47.9531C213.465 47.7656 213.043 47.6719 212.535 47.6719C212.051 47.6719 211.648 47.75 211.328 47.9062C211.016 48.0547 210.781 48.25 210.625 48.4922C210.477 48.7344 210.402 49 210.402 49.2891C210.402 49.5 210.441 49.6914 210.52 49.8633C210.605 50.0273 210.746 50.1797 210.941 50.3203C211.137 50.4531 211.402 50.5781 211.738 50.6953C212.082 50.8125 212.512 50.9258 213.027 51.0352C213.996 51.2383 214.828 51.5 215.523 51.8203C216.227 52.1328 216.766 52.5391 217.141 53.0391C217.516 53.5312 217.703 54.1562 217.703 54.9141C217.703 55.4766 217.582 55.9922 217.34 56.4609C217.105 56.9219 216.762 57.3242 216.309 57.668C215.855 58.0039 215.312 58.2656 214.68 58.4531C214.055 58.6406 213.352 58.7344 212.57 58.7344C211.422 58.7344 210.449 58.5312 209.652 58.125C208.855 57.7109 208.25 57.1836 207.836 56.543C207.43 55.8945 207.227 55.2227 207.227 54.5273H209.957C209.988 55.0508 210.133 55.4688 210.391 55.7812C210.656 56.0859 210.984 56.3086 211.375 56.4492C211.773 56.582 212.184 56.6484 212.605 56.6484C213.113 56.6484 213.539 56.582 213.883 56.4492C214.227 56.3086 214.488 56.1211 214.668 55.8867C214.848 55.6445 214.938 55.3711 214.938 55.0664ZM227.324 55.957V49.9102C227.324 49.457 227.242 49.0664 227.078 48.7383C226.914 48.4102 226.664 48.1562 226.328 47.9766C226 47.7969 225.586 47.707 225.086 47.707C224.625 47.707 224.227 47.7852 223.891 47.9414C223.555 48.0977 223.293 48.3086 223.105 48.5742C222.918 48.8398 222.824 49.1406 222.824 49.4766H220.012C220.012 48.9766 220.133 48.4922 220.375 48.0234C220.617 47.5547 220.969 47.1367 221.43 46.7695C221.891 46.4023 222.441 46.1133 223.082 45.9023C223.723 45.6914 224.441 45.5859 225.238 45.5859C226.191 45.5859 227.035 45.7461 227.77 46.0664C228.512 46.3867 229.094 46.8711 229.516 47.5195C229.945 48.1602 230.16 48.9648 230.16 49.9336V55.5703C230.16 56.1484 230.199 56.668 230.277 57.1289C230.363 57.582 230.484 57.9766 230.641 58.3125V58.5H227.746C227.613 58.1953 227.508 57.8086 227.43 57.3398C227.359 56.8633 227.324 56.4023 227.324 55.957ZM227.734 50.7891L227.758 52.5352H225.73C225.207 52.5352 224.746 52.5859 224.348 52.6875C223.949 52.7812 223.617 52.9219 223.352 53.1094C223.086 53.2969 222.887 53.5234 222.754 53.7891C222.621 54.0547 222.555 54.3555 222.555 54.6914C222.555 55.0273 222.633 55.3359 222.789 55.6172C222.945 55.8906 223.172 56.1055 223.469 56.2617C223.773 56.418 224.141 56.4961 224.57 56.4961C225.148 56.4961 225.652 56.3789 226.082 56.1445C226.52 55.9023 226.863 55.6094 227.113 55.2656C227.363 54.9141 227.496 54.582 227.512 54.2695L228.426 55.5234C228.332 55.8438 228.172 56.1875 227.945 56.5547C227.719 56.9219 227.422 57.2734 227.055 57.6094C226.695 57.9375 226.262 58.207 225.754 58.418C225.254 58.6289 224.676 58.7344 224.02 58.7344C223.191 58.7344 222.453 58.5703 221.805 58.2422C221.156 57.9062 220.648 57.457 220.281 56.8945C219.914 56.3242 219.73 55.6797 219.73 54.9609C219.73 54.2891 219.855 53.6953 220.105 53.1797C220.363 52.6562 220.738 52.2188 221.23 51.8672C221.73 51.5156 222.34 51.25 223.059 51.0703C223.777 50.8828 224.598 50.7891 225.52 50.7891H227.734ZM240.262 55.957V49.9102C240.262 49.457 240.18 49.0664 240.016 48.7383C239.852 48.4102 239.602 48.1562 239.266 47.9766C238.938 47.7969 238.523 47.707 238.023 47.707C237.562 47.707 237.164 47.7852 236.828 47.9414C236.492 48.0977 236.23 48.3086 236.043 48.5742C235.855 48.8398 235.762 49.1406 235.762 49.4766H232.949C232.949 48.9766 233.07 48.4922 233.312 48.0234C233.555 47.5547 233.906 47.1367 234.367 46.7695C234.828 46.4023 235.379 46.1133 236.02 45.9023C236.66 45.6914 237.379 45.5859 238.176 45.5859C239.129 45.5859 239.973 45.7461 240.707 46.0664C241.449 46.3867 242.031 46.8711 242.453 47.5195C242.883 48.1602 243.098 48.9648 243.098 49.9336V55.5703C243.098 56.1484 243.137 56.668 243.215 57.1289C243.301 57.582 243.422 57.9766 243.578 58.3125V58.5H240.684C240.551 58.1953 240.445 57.8086 240.367 57.3398C240.297 56.8633 240.262 56.4023 240.262 55.957ZM240.672 50.7891L240.695 52.5352H238.668C238.145 52.5352 237.684 52.5859 237.285 52.6875C236.887 52.7812 236.555 52.9219 236.289 53.1094C236.023 53.2969 235.824 53.5234 235.691 53.7891C235.559 54.0547 235.492 54.3555 235.492 54.6914C235.492 55.0273 235.57 55.3359 235.727 55.6172C235.883 55.8906 236.109 56.1055 236.406 56.2617C236.711 56.418 237.078 56.4961 237.508 56.4961C238.086 56.4961 238.59 56.3789 239.02 56.1445C239.457 55.9023 239.801 55.6094 240.051 55.2656C240.301 54.9141 240.434 54.582 240.449 54.2695L241.363 55.5234C241.27 55.8438 241.109 56.1875 240.883 56.5547C240.656 56.9219 240.359 57.2734 239.992 57.6094C239.633 57.9375 239.199 58.207 238.691 58.418C238.191 58.6289 237.613 58.7344 236.957 58.7344C236.129 58.7344 235.391 58.5703 234.742 58.2422C234.094 57.9062 233.586 57.457 233.219 56.8945C232.852 56.3242 232.668 55.6797 232.668 54.9609C232.668 54.2891 232.793 53.6953 233.043 53.1797C233.301 52.6562 233.676 52.2188 234.168 51.8672C234.668 51.5156 235.277 51.25 235.996 51.0703C236.715 50.8828 237.535 50.7891 238.457 50.7891H240.672ZM253.785 55.875V40.5H256.621V58.5H254.055L253.785 55.875ZM245.535 52.3008V52.0547C245.535 51.0938 245.648 50.2188 245.875 49.4297C246.102 48.6328 246.43 47.9492 246.859 47.3789C247.289 46.8008 247.812 46.3594 248.43 46.0547C249.047 45.7422 249.742 45.5859 250.516 45.5859C251.281 45.5859 251.953 45.7344 252.531 46.0312C253.109 46.3281 253.602 46.7539 254.008 47.3086C254.414 47.8555 254.738 48.5117 254.98 49.2773C255.223 50.0352 255.395 50.8789 255.496 51.8086V52.5938C255.395 53.5 255.223 54.3281 254.98 55.0781C254.738 55.8281 254.414 56.4766 254.008 57.0234C253.602 57.5703 253.105 57.9922 252.52 58.2891C251.941 58.5859 251.266 58.7344 250.492 58.7344C249.727 58.7344 249.035 58.5742 248.418 58.2539C247.809 57.9336 247.289 57.4844 246.859 56.9062C246.43 56.3281 246.102 55.6484 245.875 54.8672C245.648 54.0781 245.535 53.2227 245.535 52.3008ZM248.359 52.0547V52.3008C248.359 52.8789 248.41 53.418 248.512 53.918C248.621 54.418 248.789 54.8594 249.016 55.2422C249.242 55.6172 249.535 55.9141 249.895 56.1328C250.262 56.3438 250.699 56.4492 251.207 56.4492C251.848 56.4492 252.375 56.3086 252.789 56.0273C253.203 55.7461 253.527 55.3672 253.762 54.8906C254.004 54.4062 254.168 53.8672 254.254 53.2734V51.1523C254.207 50.6914 254.109 50.2617 253.961 49.8633C253.82 49.4648 253.629 49.1172 253.387 48.8203C253.145 48.5156 252.844 48.2812 252.484 48.1172C252.133 47.9453 251.715 47.8594 251.23 47.8594C250.715 47.8594 250.277 47.9688 249.918 48.1875C249.559 48.4062 249.262 48.707 249.027 49.0898C248.801 49.4727 248.633 49.918 248.523 50.4258C248.414 50.9336 248.359 51.4766 248.359 52.0547ZM268.574 45.8203V58.5H265.738V45.8203H268.574ZM265.551 42.4922C265.551 42.0625 265.691 41.707 265.973 41.4258C266.262 41.1367 266.66 40.9922 267.168 40.9922C267.668 40.9922 268.062 41.1367 268.352 41.4258C268.641 41.707 268.785 42.0625 268.785 42.4922C268.785 42.9141 268.641 43.2656 268.352 43.5469C268.062 43.8281 267.668 43.9688 267.168 43.9688C266.66 43.9688 266.262 43.8281 265.973 43.5469C265.691 43.2656 265.551 42.9141 265.551 42.4922ZM274.516 40.5V58.5H271.68V40.5H274.516ZM282.391 45.8203L276.871 51.9375L273.848 55.0312L273.109 52.6406L275.395 49.8164L278.98 45.8203H282.391ZM279.59 58.5L275.477 52.5469L277.258 50.5664L282.859 58.5H279.59ZM287.031 40.5V58.5H284.195V40.5H287.031ZM294.906 45.8203L289.387 51.9375L286.363 55.0312L285.625 52.6406L287.91 49.8164L291.496 45.8203H294.906ZM292.105 58.5L287.992 52.5469L289.773 50.5664L295.375 58.5H292.105ZM303.848 55.957V49.9102C303.848 49.457 303.766 49.0664 303.602 48.7383C303.438 48.4102 303.188 48.1562 302.852 47.9766C302.523 47.7969 302.109 47.707 301.609 47.707C301.148 47.707 300.75 47.7852 300.414 47.9414C300.078 48.0977 299.816 48.3086 299.629 48.5742C299.441 48.8398 299.348 49.1406 299.348 49.4766H296.535C296.535 48.9766 296.656 48.4922 296.898 48.0234C297.141 47.5547 297.492 47.1367 297.953 46.7695C298.414 46.4023 298.965 46.1133 299.605 45.9023C300.246 45.6914 300.965 45.5859 301.762 45.5859C302.715 45.5859 303.559 45.7461 304.293 46.0664C305.035 46.3867 305.617 46.8711 306.039 47.5195C306.469 48.1602 306.684 48.9648 306.684 49.9336V55.5703C306.684 56.1484 306.723 56.668 306.801 57.1289C306.887 57.582 307.008 57.9766 307.164 58.3125V58.5H304.27C304.137 58.1953 304.031 57.8086 303.953 57.3398C303.883 56.8633 303.848 56.4023 303.848 55.957ZM304.258 50.7891L304.281 52.5352H302.254C301.73 52.5352 301.27 52.5859 300.871 52.6875C300.473 52.7812 300.141 52.9219 299.875 53.1094C299.609 53.2969 299.41 53.5234 299.277 53.7891C299.145 54.0547 299.078 54.3555 299.078 54.6914C299.078 55.0273 299.156 55.3359 299.312 55.6172C299.469 55.8906 299.695 56.1055 299.992 56.2617C300.297 56.418 300.664 56.4961 301.094 56.4961C301.672 56.4961 302.176 56.3789 302.605 56.1445C303.043 55.9023 303.387 55.6094 303.637 55.2656C303.887 54.9141 304.02 54.582 304.035 54.2695L304.949 55.5234C304.855 55.8438 304.695 56.1875 304.469 56.5547C304.242 56.9219 303.945 57.2734 303.578 57.6094C303.219 57.9375 302.785 58.207 302.277 58.418C301.777 58.6289 301.199 58.7344 300.543 58.7344C299.715 58.7344 298.977 58.5703 298.328 58.2422C297.68 57.9062 297.172 57.457 296.805 56.8945C296.438 56.3242 296.254 55.6797 296.254 54.9609C296.254 54.2891 296.379 53.6953 296.629 53.1797C296.887 52.6562 297.262 52.2188 297.754 51.8672C298.254 51.5156 298.863 51.25 299.582 51.0703C300.301 50.8828 301.121 50.7891 302.043 50.7891H304.258ZM139.926 66.5V84.5H137.09V66.5H139.926ZM150.648 81.5117V71.8203H153.484V84.5H150.812L150.648 81.5117ZM151.047 78.875L151.996 78.8516C151.996 79.7031 151.902 80.4883 151.715 81.207C151.527 81.918 151.238 82.5391 150.848 83.0703C150.457 83.5938 149.957 84.0039 149.348 84.3008C148.738 84.5898 148.008 84.7344 147.156 84.7344C146.539 84.7344 145.973 84.6445 145.457 84.4648C144.941 84.2852 144.496 84.0078 144.121 83.6328C143.754 83.2578 143.469 82.7695 143.266 82.168C143.062 81.5664 142.961 80.8477 142.961 80.0117V71.8203H145.785V80.0352C145.785 80.4961 145.84 80.8828 145.949 81.1953C146.059 81.5 146.207 81.7461 146.395 81.9336C146.582 82.1211 146.801 82.2539 147.051 82.332C147.301 82.4102 147.566 82.4492 147.848 82.4492C148.652 82.4492 149.285 82.293 149.746 81.9805C150.215 81.6602 150.547 81.2305 150.742 80.6914C150.945 80.1523 151.047 79.5469 151.047 78.875ZM164.5 71.8203H167.066V84.1484C167.066 85.2891 166.824 86.2578 166.34 87.0547C165.855 87.8516 165.18 88.457 164.312 88.8711C163.445 89.293 162.441 89.5039 161.301 89.5039C160.816 89.5039 160.277 89.4336 159.684 89.293C159.098 89.1523 158.527 88.9258 157.973 88.6133C157.426 88.3086 156.969 87.9062 156.602 87.4062L157.926 85.7422C158.379 86.2812 158.879 86.6758 159.426 86.9258C159.973 87.1758 160.547 87.3008 161.148 87.3008C161.797 87.3008 162.348 87.1797 162.801 86.9375C163.262 86.7031 163.617 86.3555 163.867 85.8945C164.117 85.4336 164.242 84.8711 164.242 84.207V74.6914L164.5 71.8203ZM155.887 78.3008V78.0547C155.887 77.0938 156.004 76.2188 156.238 75.4297C156.473 74.6328 156.809 73.9492 157.246 73.3789C157.684 72.8008 158.215 72.3594 158.84 72.0547C159.465 71.7422 160.172 71.5859 160.961 71.5859C161.781 71.5859 162.48 71.7344 163.059 72.0312C163.645 72.3281 164.133 72.7539 164.523 73.3086C164.914 73.8555 165.219 74.5117 165.438 75.2773C165.664 76.0352 165.832 76.8789 165.941 77.8086V78.5938C165.84 79.5 165.668 80.3281 165.426 81.0781C165.184 81.8281 164.863 82.4766 164.465 83.0234C164.066 83.5703 163.574 83.9922 162.988 84.2891C162.41 84.5859 161.727 84.7344 160.938 84.7344C160.164 84.7344 159.465 84.5742 158.84 84.2539C158.223 83.9336 157.691 83.4844 157.246 82.9062C156.809 82.3281 156.473 81.6484 156.238 80.8672C156.004 80.0781 155.887 79.2227 155.887 78.3008ZM158.711 78.0547V78.3008C158.711 78.8789 158.766 79.418 158.875 79.918C158.992 80.418 159.168 80.8594 159.402 81.2422C159.645 81.6172 159.949 81.9141 160.316 82.1328C160.691 82.3438 161.133 82.4492 161.641 82.4492C162.305 82.4492 162.848 82.3086 163.27 82.0273C163.699 81.7461 164.027 81.3672 164.254 80.8906C164.488 80.4062 164.652 79.8672 164.746 79.2734V77.1523C164.699 76.6914 164.602 76.2617 164.453 75.8633C164.312 75.4648 164.121 75.1172 163.879 74.8203C163.637 74.5156 163.332 74.2812 162.965 74.1172C162.598 73.9453 162.164 73.8594 161.664 73.8594C161.156 73.8594 160.715 73.9688 160.34 74.1875C159.965 74.4062 159.656 74.707 159.414 75.0898C159.18 75.4727 159.004 75.918 158.887 76.4258C158.77 76.9336 158.711 77.4766 158.711 78.0547ZM175.586 84.7344C174.648 84.7344 173.801 84.582 173.043 84.2773C172.293 83.9648 171.652 83.5312 171.121 82.9766C170.598 82.4219 170.195 81.7695 169.914 81.0195C169.633 80.2695 169.492 79.4609 169.492 78.5938V78.125C169.492 77.1328 169.637 76.2344 169.926 75.4297C170.215 74.625 170.617 73.9375 171.133 73.3672C171.648 72.7891 172.258 72.3477 172.961 72.043C173.664 71.7383 174.426 71.5859 175.246 71.5859C176.152 71.5859 176.945 71.7383 177.625 72.043C178.305 72.3477 178.867 72.7773 179.312 73.332C179.766 73.8789 180.102 74.5312 180.32 75.2891C180.547 76.0469 180.66 76.8828 180.66 77.7969V79.0039H170.863V76.9766H177.871V76.7539C177.855 76.2461 177.754 75.7695 177.566 75.3242C177.387 74.8789 177.109 74.5195 176.734 74.2461C176.359 73.9727 175.859 73.8359 175.234 73.8359C174.766 73.8359 174.348 73.9375 173.98 74.1406C173.621 74.3359 173.32 74.6211 173.078 74.9961C172.836 75.3711 172.648 75.8242 172.516 76.3555C172.391 76.8789 172.328 77.4688 172.328 78.125V78.5938C172.328 79.1484 172.402 79.6641 172.551 80.1406C172.707 80.6094 172.934 81.0195 173.23 81.3711C173.527 81.7227 173.887 82 174.309 82.2031C174.73 82.3984 175.211 82.4961 175.75 82.4961C176.43 82.4961 177.035 82.3594 177.566 82.0859C178.098 81.8125 178.559 81.4258 178.949 80.9258L180.438 82.3672C180.164 82.7656 179.809 83.1484 179.371 83.5156C178.934 83.875 178.398 84.168 177.766 84.3945C177.141 84.6211 176.414 84.7344 175.586 84.7344ZM190.598 81.875V66.5H193.434V84.5H190.867L190.598 81.875ZM182.348 78.3008V78.0547C182.348 77.0938 182.461 76.2188 182.688 75.4297C182.914 74.6328 183.242 73.9492 183.672 73.3789C184.102 72.8008 184.625 72.3594 185.242 72.0547C185.859 71.7422 186.555 71.5859 187.328 71.5859C188.094 71.5859 188.766 71.7344 189.344 72.0312C189.922 72.3281 190.414 72.7539 190.82 73.3086C191.227 73.8555 191.551 74.5117 191.793 75.2773C192.035 76.0352 192.207 76.8789 192.309 77.8086V78.5938C192.207 79.5 192.035 80.3281 191.793 81.0781C191.551 81.8281 191.227 82.4766 190.82 83.0234C190.414 83.5703 189.918 83.9922 189.332 84.2891C188.754 84.5859 188.078 84.7344 187.305 84.7344C186.539 84.7344 185.848 84.5742 185.23 84.2539C184.621 83.9336 184.102 83.4844 183.672 82.9062C183.242 82.3281 182.914 81.6484 182.688 80.8672C182.461 80.0781 182.348 79.2227 182.348 78.3008ZM185.172 78.0547V78.3008C185.172 78.8789 185.223 79.418 185.324 79.918C185.434 80.418 185.602 80.8594 185.828 81.2422C186.055 81.6172 186.348 81.9141 186.707 82.1328C187.074 82.3438 187.512 82.4492 188.02 82.4492C188.66 82.4492 189.188 82.3086 189.602 82.0273C190.016 81.7461 190.34 81.3672 190.574 80.8906C190.816 80.4062 190.98 79.8672 191.066 79.2734V77.1523C191.02 76.6914 190.922 76.2617 190.773 75.8633C190.633 75.4648 190.441 75.1172 190.199 74.8203C189.957 74.5156 189.656 74.2812 189.297 74.1172C188.945 73.9453 188.527 73.8594 188.043 73.8594C187.527 73.8594 187.09 73.9688 186.73 74.1875C186.371 74.4062 186.074 74.707 185.84 75.0898C185.613 75.4727 185.445 75.918 185.336 76.4258C185.227 76.9336 185.172 77.4766 185.172 78.0547ZM203.535 81.957V75.9102C203.535 75.457 203.453 75.0664 203.289 74.7383C203.125 74.4102 202.875 74.1562 202.539 73.9766C202.211 73.7969 201.797 73.707 201.297 73.707C200.836 73.707 200.438 73.7852 200.102 73.9414C199.766 74.0977 199.504 74.3086 199.316 74.5742C199.129 74.8398 199.035 75.1406 199.035 75.4766H196.223C196.223 74.9766 196.344 74.4922 196.586 74.0234C196.828 73.5547 197.18 73.1367 197.641 72.7695C198.102 72.4023 198.652 72.1133 199.293 71.9023C199.934 71.6914 200.652 71.5859 201.449 71.5859C202.402 71.5859 203.246 71.7461 203.98 72.0664C204.723 72.3867 205.305 72.8711 205.727 73.5195C206.156 74.1602 206.371 74.9648 206.371 75.9336V81.5703C206.371 82.1484 206.41 82.668 206.488 83.1289C206.574 83.582 206.695 83.9766 206.852 84.3125V84.5H203.957C203.824 84.1953 203.719 83.8086 203.641 83.3398C203.57 82.8633 203.535 82.4023 203.535 81.957ZM203.945 76.7891L203.969 78.5352H201.941C201.418 78.5352 200.957 78.5859 200.559 78.6875C200.16 78.7812 199.828 78.9219 199.562 79.1094C199.297 79.2969 199.098 79.5234 198.965 79.7891C198.832 80.0547 198.766 80.3555 198.766 80.6914C198.766 81.0273 198.844 81.3359 199 81.6172C199.156 81.8906 199.383 82.1055 199.68 82.2617C199.984 82.418 200.352 82.4961 200.781 82.4961C201.359 82.4961 201.863 82.3789 202.293 82.1445C202.73 81.9023 203.074 81.6094 203.324 81.2656C203.574 80.9141 203.707 80.582 203.723 80.2695L204.637 81.5234C204.543 81.8438 204.383 82.1875 204.156 82.5547C203.93 82.9219 203.633 83.2734 203.266 83.6094C202.906 83.9375 202.473 84.207 201.965 84.418C201.465 84.6289 200.887 84.7344 200.23 84.7344C199.402 84.7344 198.664 84.5703 198.016 84.2422C197.367 83.9062 196.859 83.457 196.492 82.8945C196.125 82.3242 195.941 81.6797 195.941 80.9609C195.941 80.2891 196.066 79.6953 196.316 79.1797C196.574 78.6562 196.949 78.2188 197.441 77.8672C197.941 77.5156 198.551 77.25 199.27 77.0703C199.988 76.8828 200.809 76.7891 201.73 76.7891H203.945ZM209.441 83.0938C209.441 82.6562 209.59 82.2891 209.887 81.9922C210.184 81.6875 210.586 81.5352 211.094 81.5352C211.609 81.5352 212.012 81.6875 212.301 81.9922C212.598 82.2891 212.746 82.6562 212.746 83.0938C212.746 83.5312 212.598 83.8984 212.301 84.1953C212.012 84.4922 211.609 84.6406 211.094 84.6406C210.586 84.6406 210.184 84.4922 209.887 84.1953C209.59 83.8984 209.441 83.5312 209.441 83.0938Z" fill="#461102"/>
</svg>
