<svg width="350" height="100" viewBox="0 0 350 100" fill="none" xmlns="http://www.w3.org/2000/svg">
<path d="M89.897 25.116C89.897 26.4413 89.617 27.6173 89.057 28.644C88.497 29.6707 87.657 30.4827 86.537 31.08C85.4356 31.6587 84.0916 31.948 82.505 31.948C80.1156 31.948 78.2863 31.332 77.017 30.1C75.7663 28.8493 75.141 27.188 75.141 25.116V12.124H79.257V24.92C79.257 26.2267 79.5183 27.2067 80.041 27.86C80.5636 28.4947 81.385 28.812 82.505 28.812C83.625 28.812 84.4463 28.4947 84.969 27.86C85.5103 27.2067 85.781 26.2267 85.781 24.92V12.124H89.897V25.116ZM105.809 31.5H102.365L102.169 29.512C101.647 30.3333 101.012 30.9493 100.265 31.36C99.5186 31.752 98.6506 31.948 97.6613 31.948C96.3173 31.948 95.2906 31.5467 94.5813 30.744C93.8719 29.9227 93.5173 28.784 93.5173 27.328V16.66H97.4933V26.824C97.4933 27.608 97.6239 28.168 97.8853 28.504C98.1466 28.8213 98.5573 28.98 99.1173 28.98C100.181 28.98 101.087 28.336 101.833 27.048V16.66H105.809V31.5ZM122.279 23.744C122.279 23.9307 122.251 24.444 122.195 25.284H112.927C113.058 26.628 113.422 27.58 114.019 28.14C114.617 28.7 115.429 28.98 116.455 28.98C117.09 28.98 117.687 28.8773 118.247 28.672C118.807 28.4667 119.414 28.14 120.067 27.692L121.719 29.932C120.058 31.276 118.182 31.948 116.091 31.948C113.758 31.948 111.966 31.248 110.715 29.848C109.465 28.448 108.839 26.5533 108.839 24.164C108.839 22.652 109.101 21.2987 109.623 20.104C110.165 18.8907 110.939 17.9387 111.947 17.248C112.974 16.5573 114.187 16.212 115.587 16.212C117.697 16.212 119.339 16.8747 120.515 18.2C121.691 19.5253 122.279 21.3733 122.279 23.744ZM118.331 22.624C118.331 20.16 117.445 18.928 115.671 18.928C114.85 18.928 114.206 19.236 113.739 19.852C113.291 20.4493 113.021 21.4293 112.927 22.792H118.331V22.624ZM128.853 31.948C127.64 31.948 126.697 31.6027 126.025 30.912C125.353 30.2027 125.017 29.204 125.017 27.916V10.752L128.993 10.304V27.804C128.993 28.4573 129.264 28.784 129.805 28.784C130.104 28.784 130.365 28.728 130.589 28.616L131.401 31.444C130.636 31.78 129.787 31.948 128.853 31.948ZM151.618 27.384C151.618 27.9627 151.702 28.392 151.87 28.672C152.038 28.9333 152.318 29.1293 152.71 29.26L151.87 31.892C150.993 31.8173 150.274 31.612 149.714 31.276C149.173 30.94 148.753 30.4173 148.454 29.708C147.484 31.2013 146 31.948 144.002 31.948C142.528 31.948 141.352 31.528 140.474 30.688C139.616 29.8293 139.186 28.7187 139.186 27.356C139.186 25.732 139.774 24.4907 140.95 23.632C142.126 22.7733 143.816 22.344 146.018 22.344H147.726V21.616C147.726 20.7013 147.521 20.0667 147.11 19.712C146.7 19.3573 146.018 19.18 145.066 19.18C144.021 19.18 142.714 19.4413 141.146 19.964L140.25 17.304C142.098 16.576 143.928 16.212 145.738 16.212C147.754 16.212 149.238 16.6507 150.19 17.528C151.142 18.3867 151.618 19.6747 151.618 21.392V27.384ZM145.094 29.092C146.214 29.092 147.092 28.5413 147.726 27.44V24.612H146.41C144.264 24.612 143.19 25.4147 143.19 27.02C143.19 27.6733 143.349 28.1867 143.666 28.56C144.002 28.9147 144.478 29.092 145.094 29.092ZM166.794 27.384C166.794 27.9627 166.878 28.392 167.046 28.672C167.214 28.9333 167.494 29.1293 167.886 29.26L167.046 31.892C166.169 31.8173 165.45 31.612 164.89 31.276C164.349 30.94 163.929 30.4173 163.63 29.708C162.659 31.2013 161.175 31.948 159.178 31.948C157.703 31.948 156.527 31.528 155.65 30.688C154.791 29.8293 154.362 28.7187 154.362 27.356C154.362 25.732 154.95 24.4907 156.126 23.632C157.302 22.7733 158.991 22.344 161.194 22.344H162.902V21.616C162.902 20.7013 162.697 20.0667 162.286 19.712C161.875 19.3573 161.194 19.18 160.242 19.18C159.197 19.18 157.89 19.4413 156.322 19.964L155.426 17.304C157.274 16.576 159.103 16.212 160.914 16.212C162.93 16.212 164.414 16.6507 165.366 17.528C166.318 18.3867 166.794 19.6747 166.794 21.392V27.384ZM160.27 29.092C161.39 29.092 162.267 28.5413 162.902 27.44V24.612H161.586C159.439 24.612 158.366 25.4147 158.366 27.02C158.366 27.6733 158.525 28.1867 158.842 28.56C159.178 28.9147 159.654 29.092 160.27 29.092ZM175.421 16.212C177.512 16.212 179.304 16.8093 180.797 18.004L179.285 20.272C178.035 19.488 176.803 19.096 175.589 19.096C174.936 19.096 174.432 19.2173 174.077 19.46C173.723 19.7027 173.545 20.0293 173.545 20.44C173.545 20.7387 173.62 20.9907 173.769 21.196C173.937 21.4013 174.236 21.5973 174.665 21.784C175.113 21.9707 175.776 22.1947 176.653 22.456C178.221 22.8853 179.388 23.464 180.153 24.192C180.919 24.9013 181.301 25.8813 181.301 27.132C181.301 28.1213 181.012 28.98 180.433 29.708C179.873 30.436 179.108 30.996 178.137 31.388C177.167 31.7613 176.084 31.948 174.889 31.948C173.639 31.948 172.5 31.7613 171.473 31.388C170.447 30.996 169.569 30.464 168.841 29.792L170.801 27.608C172.052 28.5787 173.377 29.064 174.777 29.064C175.524 29.064 176.112 28.924 176.541 28.644C176.989 28.3453 177.213 27.944 177.213 27.44C177.213 27.048 177.129 26.74 176.961 26.516C176.793 26.292 176.485 26.0867 176.037 25.9C175.589 25.6947 174.889 25.4613 173.937 25.2C172.444 24.7893 171.333 24.2107 170.605 23.464C169.896 22.6987 169.541 21.756 169.541 20.636C169.541 19.796 169.784 19.04 170.269 18.368C170.755 17.696 171.436 17.1733 172.313 16.8C173.209 16.408 174.245 16.212 175.421 16.212ZM192.768 30.8C192.226 31.1733 191.61 31.4533 190.92 31.64C190.248 31.8453 189.576 31.948 188.904 31.948C187.373 31.9293 186.216 31.4907 185.432 30.632C184.648 29.7733 184.256 28.5133 184.256 26.852V19.46H182.044V16.66H184.256V13.412L188.232 12.936V16.66H191.648L191.256 19.46H188.232V26.768C188.232 27.4773 188.353 27.9907 188.596 28.308C188.838 28.6253 189.212 28.784 189.716 28.784C190.22 28.784 190.78 28.616 191.396 28.28L192.768 30.8ZM205.568 27.384C205.568 27.9627 205.652 28.392 205.82 28.672C205.988 28.9333 206.268 29.1293 206.66 29.26L205.82 31.892C204.942 31.8173 204.224 31.612 203.664 31.276C203.122 30.94 202.702 30.4173 202.404 29.708C201.433 31.2013 199.949 31.948 197.952 31.948C196.477 31.948 195.301 31.528 194.424 30.688C193.565 29.8293 193.136 28.7187 193.136 27.356C193.136 25.732 193.724 24.4907 194.9 23.632C196.076 22.7733 197.765 22.344 199.968 22.344H201.676V21.616C201.676 20.7013 201.47 20.0667 201.06 19.712C200.649 19.3573 199.968 19.18 199.016 19.18C197.97 19.18 196.664 19.4413 195.096 19.964L194.2 17.304C196.048 16.576 197.877 16.212 199.688 16.212C201.704 16.212 203.188 16.6507 204.14 17.528C205.092 18.3867 205.568 19.6747 205.568 21.392V27.384ZM199.044 29.092C200.164 29.092 201.041 28.5413 201.676 27.44V24.612H200.36C198.213 24.612 197.14 25.4147 197.14 27.02C197.14 27.6733 197.298 28.1867 197.616 28.56C197.952 28.9147 198.428 29.092 199.044 29.092ZM212.963 31.948C211.749 31.948 210.807 31.6027 210.135 30.912C209.463 30.2027 209.127 29.204 209.127 27.916V10.752L213.103 10.304V27.804C213.103 28.4573 213.373 28.784 213.915 28.784C214.213 28.784 214.475 28.728 214.699 28.616L215.511 31.444C214.745 31.78 213.896 31.948 212.963 31.948ZM228.364 10.304V31.5H224.388V10.752L228.364 10.304ZM237.38 16.66L232.648 23.184L237.8 31.5H233.292L228.504 23.38L233.264 16.66H237.38ZM250.493 27.384C250.493 27.9627 250.577 28.392 250.745 28.672C250.913 28.9333 251.193 29.1293 251.585 29.26L250.745 31.892C249.868 31.8173 249.149 31.612 248.589 31.276C248.048 30.94 247.628 30.4173 247.329 29.708C246.359 31.2013 244.875 31.948 242.877 31.948C241.403 31.948 240.227 31.528 239.349 30.688C238.491 29.8293 238.061 28.7187 238.061 27.356C238.061 25.732 238.649 24.4907 239.825 23.632C241.001 22.7733 242.691 22.344 244.893 22.344H246.601V21.616C246.601 20.7013 246.396 20.0667 245.985 19.712C245.575 19.3573 244.893 19.18 243.941 19.18C242.896 19.18 241.589 19.4413 240.021 19.964L239.125 17.304C240.973 16.576 242.803 16.212 244.613 16.212C246.629 16.212 248.113 16.6507 249.065 17.528C250.017 18.3867 250.493 19.6747 250.493 21.392V27.384ZM243.969 29.092C245.089 29.092 245.967 28.5413 246.601 27.44V24.612H245.285C243.139 24.612 242.065 25.4147 242.065 27.02C242.065 27.6733 242.224 28.1867 242.541 28.56C242.877 28.9147 243.353 29.092 243.969 29.092ZM241.533 9.324C242.131 9.324 242.625 9.52933 243.017 9.94C243.428 10.332 243.633 10.8173 243.633 11.396C243.633 11.9747 243.428 12.4693 243.017 12.88C242.625 13.272 242.131 13.468 241.533 13.468C240.955 13.468 240.46 13.272 240.049 12.88C239.639 12.4693 239.433 11.9747 239.433 11.396C239.433 10.8173 239.639 10.332 240.049 9.94C240.46 9.52933 240.955 9.324 241.533 9.324ZM247.861 9.324C248.459 9.324 248.963 9.52933 249.373 9.94C249.784 10.332 249.989 10.8173 249.989 11.396C249.989 11.9747 249.784 12.4693 249.373 12.88C248.963 13.272 248.459 13.468 247.861 13.468C247.283 13.468 246.788 13.272 246.377 12.88C245.985 12.4693 245.789 11.9747 245.789 11.396C245.789 10.8173 245.985 10.332 246.377 9.94C246.788 9.52933 247.283 9.324 247.861 9.324ZM258.442 16.66V31.5H254.466V16.66H258.442ZM256.426 9.016C257.135 9.016 257.714 9.24 258.162 9.688C258.629 10.1173 258.862 10.668 258.862 11.34C258.862 12.012 258.629 12.572 258.162 13.02C257.714 13.4493 257.135 13.664 256.426 13.664C255.717 13.664 255.138 13.4493 254.69 13.02C254.242 12.572 254.018 12.012 254.018 11.34C254.018 10.668 254.242 10.1173 254.69 9.688C255.138 9.24 255.717 9.016 256.426 9.016ZM270.656 16.212C271.963 16.212 272.98 16.6133 273.708 17.416C274.436 18.2 274.8 19.292 274.8 20.692V31.5H270.824V21.364C270.824 20.5613 270.684 20.0013 270.404 19.684C270.143 19.348 269.742 19.18 269.2 19.18C268.64 19.18 268.127 19.3573 267.66 19.712C267.212 20.048 266.774 20.5613 266.344 21.252V31.5H262.368V16.66H265.812L266.12 18.536C266.736 17.7707 267.408 17.192 268.136 16.8C268.883 16.408 269.723 16.212 270.656 16.212ZM39.181 44.212C41.2716 44.212 43.0636 44.8093 44.557 46.004L43.045 48.272C41.7943 47.488 40.5623 47.096 39.349 47.096C38.6956 47.096 38.1916 47.2173 37.837 47.46C37.4823 47.7027 37.305 48.0293 37.305 48.44C37.305 48.7387 37.3796 48.9907 37.529 49.196C37.697 49.4013 37.9956 49.5973 38.425 49.784C38.873 49.9707 39.5356 50.1947 40.413 50.456C41.981 50.8853 43.1476 51.464 43.913 52.192C44.6783 52.9013 45.061 53.8813 45.061 55.132C45.061 56.1213 44.7716 56.98 44.193 57.708C43.633 58.436 42.8676 58.996 41.897 59.388C40.9263 59.7613 39.8436 59.948 38.649 59.948C37.3983 59.948 36.2596 59.7613 35.233 59.388C34.2063 58.996 33.329 58.464 32.601 57.792L34.561 55.608C35.8116 56.5787 37.137 57.064 38.537 57.064C39.2836 57.064 39.8716 56.924 40.301 56.644C40.749 56.3453 40.973 55.944 40.973 55.44C40.973 55.048 40.889 54.74 40.721 54.516C40.553 54.292 40.245 54.0867 39.797 53.9C39.349 53.6947 38.649 53.4613 37.697 53.2C36.2036 52.7893 35.093 52.2107 34.365 51.464C33.6556 50.6987 33.301 49.756 33.301 48.636C33.301 47.796 33.5436 47.04 34.029 46.368C34.5143 45.696 35.1956 45.1733 36.073 44.8C36.969 44.408 38.005 44.212 39.181 44.212ZM53.8954 44.212C56.1167 44.212 57.8527 44.912 59.1034 46.312C60.3541 47.6933 60.9794 49.616 60.9794 52.08C60.9794 53.648 60.6901 55.0293 60.1114 56.224C59.5514 57.4 58.7301 58.3147 57.6474 58.968C56.5834 59.6213 55.3234 59.948 53.8674 59.948C51.6461 59.948 49.9007 59.2573 48.6314 57.876C47.3807 56.476 46.7554 54.544 46.7554 52.08C46.7554 50.512 47.0354 49.14 47.5954 47.964C48.1741 46.7693 48.9954 45.8453 50.0594 45.192C51.1421 44.5387 52.4207 44.212 53.8954 44.212ZM53.8954 47.18C52.8874 47.18 52.1314 47.5813 51.6274 48.384C51.1421 49.168 50.8994 50.4 50.8994 52.08C50.8994 53.76 51.1421 55.0013 51.6274 55.804C52.1314 56.588 52.8781 56.98 53.8674 56.98C54.8567 56.98 55.5941 56.588 56.0794 55.804C56.5834 55.0013 56.8354 53.76 56.8354 52.08C56.8354 50.4 56.5927 49.168 56.1074 48.384C55.6221 47.5813 54.8847 47.18 53.8954 47.18ZM55.4914 41.58C55.0994 41.58 54.7541 41.5147 54.4554 41.384C54.1754 41.2533 53.8394 41.0667 53.4474 40.824C53.2047 40.6373 52.9901 40.5067 52.8034 40.432C52.6354 40.3387 52.4581 40.292 52.2714 40.292C51.9727 40.292 51.7114 40.3947 51.4874 40.6C51.2634 40.8053 51.0301 41.1227 50.7874 41.552L48.7434 40.544C49.1167 39.6293 49.6021 38.8827 50.1994 38.304C50.7967 37.7253 51.4687 37.436 52.2154 37.436C52.6447 37.436 53.0087 37.5107 53.3074 37.66C53.6061 37.7907 53.9421 37.9773 54.3154 38.22C54.5581 38.388 54.7634 38.5187 54.9314 38.612C55.0994 38.6867 55.2767 38.724 55.4634 38.724C55.7621 38.724 56.0141 38.6307 56.2194 38.444C56.4434 38.2387 56.6861 37.9213 56.9474 37.492L58.9914 38.5C58.6181 39.452 58.1327 40.208 57.5354 40.768C56.9381 41.3093 56.2567 41.58 55.4914 41.58ZM72.039 44.212C73.775 44.212 75.119 44.9027 76.071 46.284C77.0416 47.6653 77.527 49.5973 77.527 52.08C77.527 53.6107 77.2843 54.9733 76.799 56.168C76.3323 57.344 75.651 58.268 74.755 58.94C73.8776 59.612 72.8416 59.948 71.647 59.948C70.023 59.948 68.7256 59.3133 67.755 58.044L67.531 59.5H64.003V38.752L67.979 38.304V46.256C68.4456 45.6213 69.0336 45.1267 69.743 44.772C70.4523 44.3987 71.2176 44.212 72.039 44.212ZM70.527 57.008C72.431 57.008 73.383 55.3653 73.383 52.08C73.383 50.2693 73.1496 49 72.683 48.272C72.235 47.5253 71.5816 47.152 70.723 47.152C69.659 47.152 68.7443 47.7867 67.979 49.056V55.412C68.6323 56.476 69.4816 57.008 70.527 57.008ZM88.3547 44.24C88.8027 44.24 89.2973 44.3147 89.8387 44.464L89.1667 48.3C88.644 48.1693 88.2053 48.104 87.8507 48.104C86.9733 48.104 86.292 48.412 85.8067 49.028C85.3213 49.644 84.9387 50.5773 84.6587 51.828V59.5H80.6827V44.66H84.1267L84.4907 47.544C84.8453 46.4987 85.3587 45.6867 86.0307 45.108C86.7213 44.5293 87.496 44.24 88.3547 44.24ZM102.167 55.384C102.167 55.9627 102.251 56.392 102.419 56.672C102.587 56.9333 102.867 57.1293 103.259 57.26L102.419 59.892C101.542 59.8173 100.823 59.612 100.263 59.276C99.7219 58.94 99.3019 58.4173 99.0032 57.708C98.0325 59.2013 96.5485 59.948 94.5512 59.948C93.0765 59.948 91.9005 59.528 91.0232 58.688C90.1645 57.8293 89.7352 56.7187 89.7352 55.356C89.7352 53.732 90.3232 52.4907 91.4992 51.632C92.6752 50.7733 94.3645 50.344 96.5672 50.344H98.2752V49.616C98.2752 48.7013 98.0699 48.0667 97.6592 47.712C97.2485 47.3573 96.5672 47.18 95.6152 47.18C94.5699 47.18 93.2632 47.4413 91.6952 47.964L90.7992 45.304C92.6472 44.576 94.4765 44.212 96.2872 44.212C98.3032 44.212 99.7872 44.6507 100.739 45.528C101.691 46.3867 102.167 47.6747 102.167 49.392V55.384ZM95.6432 57.092C96.7632 57.092 97.6405 56.5413 98.2752 55.44V52.612H96.9592C94.8125 52.612 93.7392 53.4147 93.7392 55.02C93.7392 55.6733 93.8979 56.1867 94.2152 56.56C94.5512 56.9147 95.0272 57.092 95.6432 57.092ZM114.428 44.212C115.734 44.212 116.752 44.6133 117.48 45.416C118.208 46.2 118.572 47.292 118.572 48.692V59.5H114.596V49.364C114.596 48.5613 114.456 48.0013 114.176 47.684C113.914 47.348 113.513 47.18 112.972 47.18C112.412 47.18 111.898 47.3573 111.432 47.712C110.984 48.048 110.545 48.5613 110.116 49.252V59.5H106.14V44.66H109.584L109.892 46.536C110.508 45.7707 111.18 45.192 111.908 44.8C112.654 44.408 113.494 44.212 114.428 44.212ZM130.643 44.212C131.949 44.212 132.967 44.6133 133.695 45.416C134.423 46.2 134.787 47.292 134.787 48.692V59.5H130.811V49.364C130.811 48.5613 130.671 48.0013 130.391 47.684C130.129 47.348 129.728 47.18 129.187 47.18C128.627 47.18 128.113 47.3573 127.647 47.712C127.199 48.048 126.76 48.5613 126.331 49.252V59.5H122.355V44.66H125.799L126.107 46.536C126.723 45.7707 127.395 45.192 128.123 44.8C128.869 44.408 129.709 44.212 130.643 44.212ZM149.909 55.384C149.909 55.9627 149.993 56.392 150.161 56.672C150.329 56.9333 150.609 57.1293 151.001 57.26L150.161 59.892C149.284 59.8173 148.565 59.612 148.005 59.276C147.464 58.94 147.044 58.4173 146.745 57.708C145.775 59.2013 144.291 59.948 142.293 59.948C140.819 59.948 139.643 59.528 138.765 58.688C137.907 57.8293 137.477 56.7187 137.477 55.356C137.477 53.732 138.065 52.4907 139.241 51.632C140.417 50.7733 142.107 50.344 144.309 50.344H146.017V49.616C146.017 48.7013 145.812 48.0667 145.401 47.712C144.991 47.3573 144.309 47.18 143.357 47.18C142.312 47.18 141.005 47.4413 139.437 47.964L138.541 45.304C140.389 44.576 142.219 44.212 144.029 44.212C146.045 44.212 147.529 44.6507 148.481 45.528C149.433 46.3867 149.909 47.6747 149.909 49.392V55.384ZM143.385 57.092C144.505 57.092 145.383 56.5413 146.017 55.44V52.612H144.701C142.555 52.612 141.481 53.4147 141.481 55.02C141.481 55.6733 141.64 56.1867 141.957 56.56C142.293 56.9147 142.769 57.092 143.385 57.092ZM166.734 38.752V59.5H163.234L163.01 57.68C161.965 59.192 160.546 59.948 158.754 59.948C156.925 59.948 155.525 59.248 154.554 57.848C153.602 56.4293 153.126 54.5067 153.126 52.08C153.126 50.5493 153.369 49.196 153.854 48.02C154.358 46.8253 155.067 45.892 155.982 45.22C156.897 44.548 157.951 44.212 159.146 44.212C160.527 44.212 161.731 44.7067 162.758 45.696V38.304L166.734 38.752ZM159.93 56.98C160.509 56.98 161.022 56.84 161.47 56.56C161.918 56.2613 162.347 55.804 162.758 55.188V48.552C162.366 48.0853 161.965 47.74 161.554 47.516C161.162 47.2733 160.705 47.152 160.182 47.152C159.267 47.152 158.549 47.5533 158.026 48.356C157.522 49.1587 157.27 50.4 157.27 52.08C157.27 53.8533 157.494 55.1133 157.942 55.86C158.409 56.6067 159.071 56.98 159.93 56.98ZM183.188 51.744C183.188 51.9307 183.16 52.444 183.104 53.284H173.836C173.966 54.628 174.33 55.58 174.928 56.14C175.525 56.7 176.337 56.98 177.364 56.98C177.998 56.98 178.596 56.8773 179.156 56.672C179.716 56.4667 180.322 56.14 180.976 55.692L182.628 57.932C180.966 59.276 179.09 59.948 177 59.948C174.666 59.948 172.874 59.248 171.624 57.848C170.373 56.448 169.748 54.5533 169.748 52.164C169.748 50.652 170.009 49.2987 170.532 48.104C171.073 46.8907 171.848 45.9387 172.856 45.248C173.882 44.5573 175.096 44.212 176.496 44.212C178.605 44.212 180.248 44.8747 181.424 46.2C182.6 47.5253 183.188 49.3733 183.188 51.744ZM179.24 50.624C179.24 48.16 178.353 46.928 176.58 46.928C175.758 46.928 175.114 47.236 174.648 47.852C174.2 48.4493 173.929 49.4293 173.836 50.792H179.24V50.624ZM199.337 45.472C198.367 45.8453 196.939 46.032 195.053 46.032C195.987 46.4427 196.677 46.956 197.125 47.572C197.573 48.1693 197.797 48.9253 197.797 49.84C197.797 50.792 197.545 51.6507 197.041 52.416C196.556 53.1627 195.847 53.7507 194.913 54.18C193.999 54.6093 192.925 54.824 191.693 54.824C191.04 54.824 190.461 54.7587 189.957 54.628C189.584 54.8707 189.397 55.1973 189.397 55.608C189.397 55.9067 189.509 56.1493 189.733 56.336C189.976 56.504 190.433 56.588 191.105 56.588H193.373C194.475 56.588 195.436 56.7747 196.257 57.148C197.097 57.5027 197.741 58.0067 198.189 58.66C198.656 59.2947 198.889 60.0227 198.889 60.844C198.889 62.356 198.236 63.532 196.929 64.372C195.641 65.2307 193.775 65.66 191.329 65.66C189.575 65.66 188.184 65.4733 187.157 65.1C186.149 64.7453 185.44 64.2227 185.029 63.532C184.619 62.8413 184.413 61.9733 184.413 60.928H187.969C187.969 61.4133 188.063 61.796 188.249 62.076C188.436 62.3747 188.772 62.5893 189.257 62.72C189.761 62.8693 190.48 62.944 191.413 62.944C192.701 62.944 193.597 62.7853 194.101 62.468C194.624 62.1507 194.885 61.7027 194.885 61.124C194.885 60.6013 194.689 60.2 194.297 59.92C193.905 59.64 193.327 59.5 192.561 59.5H190.377C188.903 59.5 187.801 59.2293 187.073 58.688C186.345 58.128 185.981 57.428 185.981 56.588C185.981 56.0653 186.131 55.5613 186.429 55.076C186.747 54.572 187.176 54.152 187.717 53.816C186.803 53.312 186.131 52.724 185.701 52.052C185.291 51.3613 185.085 50.54 185.085 49.588C185.085 48.5053 185.347 47.5627 185.869 46.76C186.411 45.9387 187.157 45.3133 188.109 44.884C189.08 44.436 190.181 44.212 191.413 44.212C192.944 44.2493 194.204 44.1187 195.193 43.82C196.183 43.5213 197.237 43.0547 198.357 42.42L199.337 45.472ZM191.497 46.872C190.751 46.872 190.153 47.1147 189.705 47.6C189.276 48.0667 189.061 48.7107 189.061 49.532C189.061 50.372 189.276 51.0347 189.705 51.52C190.153 52.0053 190.76 52.248 191.525 52.248C192.328 52.248 192.935 52.0147 193.345 51.548C193.756 51.0813 193.961 50.3907 193.961 49.476C193.961 47.74 193.14 46.872 191.497 46.872ZM212.007 55.384C212.007 55.9627 212.091 56.392 212.259 56.672C212.427 56.9333 212.707 57.1293 213.099 57.26L212.259 59.892C211.382 59.8173 210.663 59.612 210.103 59.276C209.562 58.94 209.142 58.4173 208.843 57.708C207.872 59.2013 206.388 59.948 204.391 59.948C202.916 59.948 201.74 59.528 200.863 58.688C200.004 57.8293 199.575 56.7187 199.575 55.356C199.575 53.732 200.163 52.4907 201.339 51.632C202.515 50.7733 204.204 50.344 206.407 50.344H208.115V49.616C208.115 48.7013 207.91 48.0667 207.499 47.712C207.088 47.3573 206.407 47.18 205.455 47.18C204.41 47.18 203.103 47.4413 201.535 47.964L200.639 45.304C202.487 44.576 204.316 44.212 206.127 44.212C208.143 44.212 209.627 44.6507 210.579 45.528C211.531 46.3867 212.007 47.6747 212.007 49.392V55.384ZM205.483 57.092C206.603 57.092 207.48 56.5413 208.115 55.44V52.612H206.799C204.652 52.612 203.579 53.4147 203.579 55.02C203.579 55.6733 203.738 56.1867 204.055 56.56C204.391 56.9147 204.867 57.092 205.483 57.092ZM230.487 44.24C230.935 44.24 231.43 44.3147 231.971 44.464L231.299 48.3C230.777 48.1693 230.338 48.104 229.983 48.104C229.106 48.104 228.425 48.412 227.939 49.028C227.454 49.644 227.071 50.5773 226.791 51.828V59.5H222.815V44.66H226.259L226.623 47.544C226.978 46.4987 227.491 45.6867 228.163 45.108C228.854 44.5293 229.629 44.24 230.487 44.24ZM239.341 44.212C241.562 44.212 243.298 44.912 244.549 46.312C245.799 47.6933 246.425 49.616 246.425 52.08C246.425 53.648 246.135 55.0293 245.557 56.224C244.997 57.4 244.175 58.3147 243.093 58.968C242.029 59.6213 240.769 59.948 239.313 59.948C237.091 59.948 235.346 59.2573 234.077 57.876C232.826 56.476 232.201 54.544 232.201 52.08C232.201 50.512 232.481 49.14 233.041 47.964C233.619 46.7693 234.441 45.8453 235.505 45.192C236.587 44.5387 237.866 44.212 239.341 44.212ZM239.341 47.18C238.333 47.18 237.577 47.5813 237.073 48.384C236.587 49.168 236.345 50.4 236.345 52.08C236.345 53.76 236.587 55.0013 237.073 55.804C237.577 56.588 238.323 56.98 239.313 56.98C240.302 56.98 241.039 56.588 241.525 55.804C242.029 55.0013 242.281 53.76 242.281 52.08C242.281 50.4 242.038 49.168 241.553 48.384C241.067 47.5813 240.33 47.18 239.341 47.18ZM257.736 44.212C259.024 44.212 260.032 44.6133 260.76 45.416C261.507 46.2 261.88 47.292 261.88 48.692V59.5H257.904V49.364C257.904 48.5613 257.764 48.0013 257.484 47.684C257.204 47.348 256.803 47.18 256.28 47.18C255.235 47.18 254.283 47.8613 253.424 49.224V59.5H249.448V38.752L253.424 38.332V46.34C254.022 45.6307 254.666 45.0987 255.356 44.744C256.066 44.3893 256.859 44.212 257.736 44.212ZM269.639 38.304V59.5H265.663V38.752L269.639 38.304ZM278.655 44.66L273.923 51.184L279.075 59.5H274.567L269.779 51.38L274.539 44.66H278.655ZM293.055 51.744C293.055 51.9307 293.027 52.444 292.971 53.284H283.703C283.833 54.628 284.197 55.58 284.795 56.14C285.392 56.7 286.204 56.98 287.231 56.98C287.865 56.98 288.463 56.8773 289.023 56.672C289.583 56.4667 290.189 56.14 290.843 55.692L292.495 57.932C290.833 59.276 288.957 59.948 286.867 59.948C284.533 59.948 282.741 59.248 281.491 57.848C280.24 56.448 279.615 54.5533 279.615 52.164C279.615 50.652 279.876 49.2987 280.399 48.104C280.94 46.8907 281.715 45.9387 282.723 45.248C283.749 44.5573 284.963 44.212 286.363 44.212C288.472 44.212 290.115 44.8747 291.291 46.2C292.467 47.5253 293.055 49.3733 293.055 51.744ZM289.107 50.624C289.107 48.16 288.22 46.928 286.447 46.928C285.625 46.928 284.981 47.236 284.515 47.852C284.067 48.4493 283.796 49.4293 283.703 50.792H289.107V50.624ZM311.977 44.212C313.153 44.212 314.095 44.6133 314.805 45.416C315.533 46.2187 315.897 47.3107 315.897 48.692V59.5H311.921V49.364C311.921 47.908 311.435 47.18 310.465 47.18C309.942 47.18 309.485 47.348 309.093 47.684C308.701 48.02 308.299 48.5427 307.889 49.252V59.5H303.913V49.364C303.913 47.908 303.427 47.18 302.457 47.18C301.934 47.18 301.477 47.3573 301.085 47.712C300.693 48.048 300.301 48.5613 299.909 49.252V59.5H295.933V44.66H299.377L299.685 46.508C300.245 45.7613 300.87 45.192 301.561 44.8C302.27 44.408 303.082 44.212 303.997 44.212C304.837 44.212 305.565 44.4267 306.181 44.856C306.797 45.2667 307.245 45.8547 307.525 46.62C308.141 45.8173 308.803 45.22 309.513 44.828C310.241 44.4173 311.062 44.212 311.977 44.212ZM103.977 66.304V87.5H100.001V66.752L103.977 66.304ZM112.993 72.66L108.261 79.184L113.413 87.5H108.905L104.117 79.38L108.877 72.66H112.993ZM121.093 72.212C123.314 72.212 125.05 72.912 126.301 74.312C127.551 75.6933 128.177 77.616 128.177 80.08C128.177 81.648 127.887 83.0293 127.309 84.224C126.749 85.4 125.927 86.3147 124.845 86.968C123.781 87.6213 122.521 87.948 121.065 87.948C118.843 87.948 117.098 87.2573 115.829 85.876C114.578 84.476 113.953 82.544 113.953 80.08C113.953 78.512 114.233 77.14 114.793 75.964C115.371 74.7693 116.193 73.8453 117.257 73.192C118.339 72.5387 119.618 72.212 121.093 72.212ZM121.093 75.18C120.085 75.18 119.329 75.5813 118.825 76.384C118.339 77.168 118.097 78.4 118.097 80.08C118.097 81.76 118.339 83.0013 118.825 83.804C119.329 84.588 120.075 84.98 121.065 84.98C122.054 84.98 122.791 84.588 123.277 83.804C123.781 83.0013 124.033 81.76 124.033 80.08C124.033 78.4 123.79 77.168 123.305 76.384C122.819 75.5813 122.082 75.18 121.093 75.18ZM139.488 72.212C140.776 72.212 141.784 72.6133 142.512 73.416C143.259 74.2 143.632 75.292 143.632 76.692V87.5H139.656V77.364C139.656 76.5613 139.516 76.0013 139.236 75.684C138.956 75.348 138.555 75.18 138.032 75.18C136.987 75.18 136.035 75.8613 135.176 77.224V87.5H131.2V66.752L135.176 66.332V74.34C135.774 73.6307 136.418 73.0987 137.108 72.744C137.818 72.3893 138.611 72.212 139.488 72.212ZM159.571 72.66L154.811 87.5H150.079L145.235 72.66H149.547L152.487 84.392L155.483 72.66H159.571ZM165.446 72.66V87.5H161.47V72.66H165.446ZM163.43 65.016C164.139 65.016 164.718 65.24 165.166 65.688C165.632 66.1173 165.866 66.668 165.866 67.34C165.866 68.012 165.632 68.572 165.166 69.02C164.718 69.4493 164.139 69.664 163.43 69.664C162.72 69.664 162.142 69.4493 161.694 69.02C161.246 68.572 161.022 68.012 161.022 67.34C161.022 66.668 161.246 66.1173 161.694 65.688C162.142 65.24 162.72 65.016 163.43 65.016ZM178.248 86.8C177.707 87.1733 177.091 87.4533 176.4 87.64C175.728 87.8453 175.056 87.948 174.384 87.948C172.853 87.9293 171.696 87.4907 170.912 86.632C170.128 85.7733 169.736 84.5133 169.736 82.852V75.46H167.524V72.66H169.736V69.412L173.712 68.936V72.66H177.128L176.736 75.46H173.712V82.768C173.712 83.4773 173.833 83.9907 174.076 84.308C174.319 84.6253 174.692 84.784 175.196 84.784C175.7 84.784 176.26 84.616 176.876 84.28L178.248 86.8ZM191.048 83.384C191.048 83.9627 191.132 84.392 191.3 84.672C191.468 84.9333 191.748 85.1293 192.14 85.26L191.3 87.892C190.423 87.8173 189.704 87.612 189.144 87.276C188.603 86.94 188.183 86.4173 187.884 85.708C186.913 87.2013 185.429 87.948 183.432 87.948C181.957 87.948 180.781 87.528 179.904 86.688C179.045 85.8293 178.616 84.7187 178.616 83.356C178.616 81.732 179.204 80.4907 180.38 79.632C181.556 78.7733 183.245 78.344 185.448 78.344H187.156V77.616C187.156 76.7013 186.951 76.0667 186.54 75.712C186.129 75.3573 185.448 75.18 184.496 75.18C183.451 75.18 182.144 75.4413 180.576 75.964L179.68 73.304C181.528 72.576 183.357 72.212 185.168 72.212C187.184 72.212 188.668 72.6507 189.62 73.528C190.572 74.3867 191.048 75.6747 191.048 77.392V83.384ZM184.524 85.092C185.644 85.092 186.521 84.5413 187.156 83.44V80.612H185.84C183.693 80.612 182.62 81.4147 182.62 83.02C182.62 83.6733 182.779 84.1867 183.096 84.56C183.432 84.9147 183.908 85.092 184.524 85.092ZM211.065 72.212C212.241 72.212 213.183 72.6133 213.893 73.416C214.621 74.2187 214.985 75.3107 214.985 76.692V87.5H211.009V77.364C211.009 75.908 210.523 75.18 209.553 75.18C209.03 75.18 208.573 75.348 208.181 75.684C207.789 76.02 207.387 76.5427 206.977 77.252V87.5H203.001V77.364C203.001 75.908 202.515 75.18 201.545 75.18C201.022 75.18 200.565 75.3573 200.173 75.712C199.781 76.048 199.389 76.5613 198.997 77.252V87.5H195.021V72.66H198.465L198.773 74.508C199.333 73.7613 199.958 73.192 200.649 72.8C201.358 72.408 202.17 72.212 203.085 72.212C203.925 72.212 204.653 72.4267 205.269 72.856C205.885 73.2667 206.333 73.8547 206.613 74.62C207.229 73.8173 207.891 73.22 208.601 72.828C209.329 72.4173 210.15 72.212 211.065 72.212ZM230.095 83.384C230.095 83.9627 230.179 84.392 230.347 84.672C230.515 84.9333 230.795 85.1293 231.187 85.26L230.347 87.892C229.47 87.8173 228.751 87.612 228.191 87.276C227.65 86.94 227.23 86.4173 226.931 85.708C225.96 87.2013 224.476 87.948 222.479 87.948C221.004 87.948 219.828 87.528 218.951 86.688C218.092 85.8293 217.663 84.7187 217.663 83.356C217.663 81.732 218.251 80.4907 219.427 79.632C220.603 78.7733 222.292 78.344 224.495 78.344H226.203V77.616C226.203 76.7013 225.998 76.0667 225.587 75.712C225.176 75.3573 224.495 75.18 223.543 75.18C222.498 75.18 221.191 75.4413 219.623 75.964L218.727 73.304C220.575 72.576 222.404 72.212 224.215 72.212C226.231 72.212 227.715 72.6507 228.667 73.528C229.619 74.3867 230.095 75.6747 230.095 77.392V83.384ZM223.571 85.092C224.691 85.092 225.568 84.5413 226.203 83.44V80.612H224.887C222.74 80.612 221.667 81.4147 221.667 83.02C221.667 83.6733 221.826 84.1867 222.143 84.56C222.479 84.9147 222.955 85.092 223.571 85.092ZM238.722 72.212C240.813 72.212 242.605 72.8093 244.098 74.004L242.586 76.272C241.335 75.488 240.103 75.096 238.89 75.096C238.237 75.096 237.733 75.2173 237.378 75.46C237.023 75.7027 236.846 76.0293 236.846 76.44C236.846 76.7387 236.921 76.9907 237.07 77.196C237.238 77.4013 237.537 77.5973 237.966 77.784C238.414 77.9707 239.077 78.1947 239.954 78.456C241.522 78.8853 242.689 79.464 243.454 80.192C244.219 80.9013 244.602 81.8813 244.602 83.132C244.602 84.1213 244.313 84.98 243.734 85.708C243.174 86.436 242.409 86.996 241.438 87.388C240.467 87.7613 239.385 87.948 238.19 87.948C236.939 87.948 235.801 87.7613 234.774 87.388C233.747 86.996 232.87 86.464 232.142 85.792L234.102 83.608C235.353 84.5787 236.678 85.064 238.078 85.064C238.825 85.064 239.413 84.924 239.842 84.644C240.29 84.3453 240.514 83.944 240.514 83.44C240.514 83.048 240.43 82.74 240.262 82.516C240.094 82.292 239.786 82.0867 239.338 81.9C238.89 81.6947 238.19 81.4613 237.238 81.2C235.745 80.7893 234.634 80.2107 233.906 79.464C233.197 78.6987 232.842 77.756 232.842 76.636C232.842 75.796 233.085 75.04 233.57 74.368C234.055 73.696 234.737 73.1733 235.614 72.8C236.51 72.408 237.546 72.212 238.722 72.212ZM248.564 83.16C249.236 83.16 249.806 83.3933 250.272 83.86C250.739 84.3267 250.972 84.8867 250.972 85.54C250.972 86.1933 250.739 86.7627 250.272 87.248C249.806 87.7147 249.236 87.948 248.564 87.948C247.911 87.948 247.351 87.7147 246.884 87.248C246.418 86.7627 246.184 86.1933 246.184 85.54C246.184 84.8867 246.418 84.3267 246.884 83.86C247.351 83.3933 247.911 83.16 248.564 83.16Z" fill="#E3000F"/>
</svg>
