<svg width="350" height="100" viewBox="0 0 350 100" fill="none" xmlns="http://www.w3.org/2000/svg">
<path d="M34.9609 15.4375V32.5H32.0195V15.4375H34.9609ZM45.4492 29.0664C45.4492 28.7852 45.3789 28.5312 45.2383 28.3047C45.0977 28.0703 44.8281 27.8594 44.4297 27.6719C44.0391 27.4844 43.4609 27.3125 42.6953 27.1562C42.0234 27.0078 41.4062 26.832 40.8438 26.6289C40.2891 26.418 39.8125 26.1641 39.4141 25.8672C39.0156 25.5703 38.707 25.2188 38.4883 24.8125C38.2695 24.4062 38.1602 23.9375 38.1602 23.4062C38.1602 22.8906 38.2734 22.4023 38.5 21.9414C38.7266 21.4805 39.0508 21.0742 39.4727 20.7227C39.8945 20.3711 40.4062 20.0938 41.0078 19.8906C41.6172 19.6875 42.2969 19.5859 43.0469 19.5859C44.1094 19.5859 45.0195 19.7656 45.7773 20.125C46.543 20.4766 47.1289 20.957 47.5352 21.5664C47.9414 22.168 48.1445 22.8477 48.1445 23.6055H45.3203C45.3203 23.2695 45.2344 22.957 45.0625 22.668C44.8984 22.3711 44.6484 22.1328 44.3125 21.9531C43.9766 21.7656 43.5547 21.6719 43.0469 21.6719C42.5625 21.6719 42.1602 21.75 41.8398 21.9062C41.5273 22.0547 41.293 22.25 41.1367 22.4922C40.9883 22.7344 40.9141 23 40.9141 23.2891C40.9141 23.5 40.9531 23.6914 41.0312 23.8633C41.1172 24.0273 41.2578 24.1797 41.4531 24.3203C41.6484 24.4531 41.9141 24.5781 42.25 24.6953C42.5938 24.8125 43.0234 24.9258 43.5391 25.0352C44.5078 25.2383 45.3398 25.5 46.0352 25.8203C46.7383 26.1328 47.2773 26.5391 47.6523 27.0391C48.0273 27.5312 48.2148 28.1562 48.2148 28.9141C48.2148 29.4766 48.0938 29.9922 47.8516 30.4609C47.6172 30.9219 47.2734 31.3242 46.8203 31.668C46.3672 32.0039 45.8242 32.2656 45.1914 32.4531C44.5664 32.6406 43.8633 32.7344 43.082 32.7344C41.9336 32.7344 40.9609 32.5312 40.1641 32.125C39.3672 31.7109 38.7617 31.1836 38.3477 30.543C37.9414 29.8945 37.7383 29.2227 37.7383 28.5273H40.4688C40.5 29.0508 40.6445 29.4688 40.9023 29.7812C41.168 30.0859 41.4961 30.3086 41.8867 30.4492C42.2852 30.582 42.6953 30.6484 43.1172 30.6484C43.625 30.6484 44.0508 30.582 44.3945 30.4492C44.7383 30.3086 45 30.1211 45.1797 29.8867C45.3594 29.6445 45.4492 29.3711 45.4492 29.0664ZM56.2773 32.7344C55.3398 32.7344 54.4922 32.582 53.7344 32.2773C52.9844 31.9648 52.3438 31.5312 51.8125 30.9766C51.2891 30.4219 50.8867 29.7695 50.6055 29.0195C50.3242 28.2695 50.1836 27.4609 50.1836 26.5938V26.125C50.1836 25.1328 50.3281 24.2344 50.6172 23.4297C50.9062 22.625 51.3086 21.9375 51.8242 21.3672C52.3398 20.7891 52.9492 20.3477 53.6523 20.043C54.3555 19.7383 55.1172 19.5859 55.9375 19.5859C56.8438 19.5859 57.6367 19.7383 58.3164 20.043C58.9961 20.3477 59.5586 20.7773 60.0039 21.332C60.457 21.8789 60.793 22.5312 61.0117 23.2891C61.2383 24.0469 61.3516 24.8828 61.3516 25.7969V27.0039H51.5547V24.9766H58.5625V24.7539C58.5469 24.2461 58.4453 23.7695 58.2578 23.3242C58.0781 22.8789 57.8008 22.5195 57.4258 22.2461C57.0508 21.9727 56.5508 21.8359 55.9258 21.8359C55.457 21.8359 55.0391 21.9375 54.6719 22.1406C54.3125 22.3359 54.0117 22.6211 53.7695 22.9961C53.5273 23.3711 53.3398 23.8242 53.207 24.3555C53.082 24.8789 53.0195 25.4688 53.0195 26.125V26.5938C53.0195 27.1484 53.0938 27.6641 53.2422 28.1406C53.3984 28.6094 53.625 29.0195 53.9219 29.3711C54.2188 29.7227 54.5781 30 55 30.2031C55.4219 30.3984 55.9023 30.4961 56.4414 30.4961C57.1211 30.4961 57.7266 30.3594 58.2578 30.0859C58.7891 29.8125 59.25 29.4258 59.6406 28.9258L61.1289 30.3672C60.8555 30.7656 60.5 31.1484 60.0625 31.5156C59.625 31.875 59.0898 32.168 58.457 32.3945C57.832 32.6211 57.1055 32.7344 56.2773 32.7344ZM71.6758 19.8203H74.2422V32.1484C74.2422 33.2891 74 34.2578 73.5156 35.0547C73.0312 35.8516 72.3555 36.457 71.4883 36.8711C70.6211 37.293 69.6172 37.5039 68.4766 37.5039C67.9922 37.5039 67.4531 37.4336 66.8594 37.293C66.2734 37.1523 65.7031 36.9258 65.1484 36.6133C64.6016 36.3086 64.1445 35.9062 63.7773 35.4062L65.1016 33.7422C65.5547 34.2812 66.0547 34.6758 66.6016 34.9258C67.1484 35.1758 67.7227 35.3008 68.3242 35.3008C68.9727 35.3008 69.5234 35.1797 69.9766 34.9375C70.4375 34.7031 70.793 34.3555 71.043 33.8945C71.293 33.4336 71.418 32.8711 71.418 32.207V22.6914L71.6758 19.8203ZM63.0625 26.3008V26.0547C63.0625 25.0938 63.1797 24.2188 63.4141 23.4297C63.6484 22.6328 63.9844 21.9492 64.4219 21.3789C64.8594 20.8008 65.3906 20.3594 66.0156 20.0547C66.6406 19.7422 67.3477 19.5859 68.1367 19.5859C68.957 19.5859 69.6562 19.7344 70.2344 20.0312C70.8203 20.3281 71.3086 20.7539 71.6992 21.3086C72.0898 21.8555 72.3945 22.5117 72.6133 23.2773C72.8398 24.0352 73.0078 24.8789 73.1172 25.8086V26.5938C73.0156 27.5 72.8438 28.3281 72.6016 29.0781C72.3594 29.8281 72.0391 30.4766 71.6406 31.0234C71.2422 31.5703 70.75 31.9922 70.1641 32.2891C69.5859 32.5859 68.9023 32.7344 68.1133 32.7344C67.3398 32.7344 66.6406 32.5742 66.0156 32.2539C65.3984 31.9336 64.8672 31.4844 64.4219 30.9062C63.9844 30.3281 63.6484 29.6484 63.4141 28.8672C63.1797 28.0781 63.0625 27.2227 63.0625 26.3008ZM65.8867 26.0547V26.3008C65.8867 26.8789 65.9414 27.418 66.0508 27.918C66.168 28.418 66.3438 28.8594 66.5781 29.2422C66.8203 29.6172 67.125 29.9141 67.4922 30.1328C67.8672 30.3438 68.3086 30.4492 68.8164 30.4492C69.4805 30.4492 70.0234 30.3086 70.4453 30.0273C70.875 29.7461 71.2031 29.3672 71.4297 28.8906C71.6641 28.4062 71.8281 27.8672 71.9219 27.2734V25.1523C71.875 24.6914 71.7773 24.2617 71.6289 23.8633C71.4883 23.4648 71.2969 23.1172 71.0547 22.8203C70.8125 22.5156 70.5078 22.2812 70.1406 22.1172C69.7734 21.9453 69.3398 21.8594 68.8398 21.8594C68.332 21.8594 67.8906 21.9688 67.5156 22.1875C67.1406 22.4062 66.832 22.707 66.5898 23.0898C66.3555 23.4727 66.1797 23.918 66.0625 24.4258C65.9453 24.9336 65.8867 25.4766 65.8867 26.0547ZM80.1953 19.8203V32.5H77.3594V19.8203H80.1953ZM77.1719 16.4922C77.1719 16.0625 77.3125 15.707 77.5938 15.4258C77.8828 15.1367 78.2812 14.9922 78.7891 14.9922C79.2891 14.9922 79.6836 15.1367 79.9727 15.4258C80.2617 15.707 80.4062 16.0625 80.4062 16.4922C80.4062 16.9141 80.2617 17.2656 79.9727 17.5469C79.6836 17.8281 79.2891 17.9688 78.7891 17.9688C78.2812 17.9688 77.8828 17.8281 77.5938 17.5469C77.3125 17.2656 77.1719 16.9141 77.1719 16.4922ZM92.1133 14.5V32.5H89.2773V14.5H92.1133ZM99.9883 19.8203L94.4688 25.9375L91.4453 29.0312L90.707 26.6406L92.9922 23.8164L96.5781 19.8203H99.9883ZM97.1875 32.5L93.0742 26.5469L94.8555 24.5664L100.457 32.5H97.1875ZM109.41 29.5117V19.8203H112.246V32.5H109.574L109.41 29.5117ZM109.809 26.875L110.758 26.8516C110.758 27.7031 110.664 28.4883 110.477 29.207C110.289 29.918 110 30.5391 109.609 31.0703C109.219 31.5938 108.719 32.0039 108.109 32.3008C107.5 32.5898 106.77 32.7344 105.918 32.7344C105.301 32.7344 104.734 32.6445 104.219 32.4648C103.703 32.2852 103.258 32.0078 102.883 31.6328C102.516 31.2578 102.23 30.7695 102.027 30.168C101.824 29.5664 101.723 28.8477 101.723 28.0117V19.8203H104.547V28.0352C104.547 28.4961 104.602 28.8828 104.711 29.1953C104.82 29.5 104.969 29.7461 105.156 29.9336C105.344 30.1211 105.562 30.2539 105.812 30.332C106.062 30.4102 106.328 30.4492 106.609 30.4492C107.414 30.4492 108.047 30.293 108.508 29.9805C108.977 29.6602 109.309 29.2305 109.504 28.6914C109.707 28.1523 109.809 27.5469 109.809 26.875ZM118.164 19.8203V32.5H115.328V19.8203H118.164ZM115.141 16.4922C115.141 16.0625 115.281 15.707 115.562 15.4258C115.852 15.1367 116.25 14.9922 116.758 14.9922C117.258 14.9922 117.652 15.1367 117.941 15.4258C118.23 15.707 118.375 16.0625 118.375 16.4922C118.375 16.9141 118.23 17.2656 117.941 17.5469C117.652 17.8281 117.258 17.9688 116.758 17.9688C116.25 17.9688 115.852 17.8281 115.562 17.5469C115.281 17.2656 115.141 16.9141 115.141 16.4922ZM134.348 29.0664C134.348 28.7852 134.277 28.5312 134.137 28.3047C133.996 28.0703 133.727 27.8594 133.328 27.6719C132.938 27.4844 132.359 27.3125 131.594 27.1562C130.922 27.0078 130.305 26.832 129.742 26.6289C129.188 26.418 128.711 26.1641 128.312 25.8672C127.914 25.5703 127.605 25.2188 127.387 24.8125C127.168 24.4062 127.059 23.9375 127.059 23.4062C127.059 22.8906 127.172 22.4023 127.398 21.9414C127.625 21.4805 127.949 21.0742 128.371 20.7227C128.793 20.3711 129.305 20.0938 129.906 19.8906C130.516 19.6875 131.195 19.5859 131.945 19.5859C133.008 19.5859 133.918 19.7656 134.676 20.125C135.441 20.4766 136.027 20.957 136.434 21.5664C136.84 22.168 137.043 22.8477 137.043 23.6055H134.219C134.219 23.2695 134.133 22.957 133.961 22.668C133.797 22.3711 133.547 22.1328 133.211 21.9531C132.875 21.7656 132.453 21.6719 131.945 21.6719C131.461 21.6719 131.059 21.75 130.738 21.9062C130.426 22.0547 130.191 22.25 130.035 22.4922C129.887 22.7344 129.812 23 129.812 23.2891C129.812 23.5 129.852 23.6914 129.93 23.8633C130.016 24.0273 130.156 24.1797 130.352 24.3203C130.547 24.4531 130.812 24.5781 131.148 24.6953C131.492 24.8125 131.922 24.9258 132.438 25.0352C133.406 25.2383 134.238 25.5 134.934 25.8203C135.637 26.1328 136.176 26.5391 136.551 27.0391C136.926 27.5312 137.113 28.1562 137.113 28.9141C137.113 29.4766 136.992 29.9922 136.75 30.4609C136.516 30.9219 136.172 31.3242 135.719 31.668C135.266 32.0039 134.723 32.2656 134.09 32.4531C133.465 32.6406 132.762 32.7344 131.98 32.7344C130.832 32.7344 129.859 32.5312 129.062 32.125C128.266 31.7109 127.66 31.1836 127.246 30.543C126.84 29.8945 126.637 29.2227 126.637 28.5273H129.367C129.398 29.0508 129.543 29.4688 129.801 29.7812C130.066 30.0859 130.395 30.3086 130.785 30.4492C131.184 30.582 131.594 30.6484 132.016 30.6484C132.523 30.6484 132.949 30.582 133.293 30.4492C133.637 30.3086 133.898 30.1211 134.078 29.8867C134.258 29.6445 134.348 29.3711 134.348 29.0664ZM145.176 32.7344C144.238 32.7344 143.391 32.582 142.633 32.2773C141.883 31.9648 141.242 31.5312 140.711 30.9766C140.188 30.4219 139.785 29.7695 139.504 29.0195C139.223 28.2695 139.082 27.4609 139.082 26.5938V26.125C139.082 25.1328 139.227 24.2344 139.516 23.4297C139.805 22.625 140.207 21.9375 140.723 21.3672C141.238 20.7891 141.848 20.3477 142.551 20.043C143.254 19.7383 144.016 19.5859 144.836 19.5859C145.742 19.5859 146.535 19.7383 147.215 20.043C147.895 20.3477 148.457 20.7773 148.902 21.332C149.355 21.8789 149.691 22.5312 149.91 23.2891C150.137 24.0469 150.25 24.8828 150.25 25.7969V27.0039H140.453V24.9766H147.461V24.7539C147.445 24.2461 147.344 23.7695 147.156 23.3242C146.977 22.8789 146.699 22.5195 146.324 22.2461C145.949 21.9727 145.449 21.8359 144.824 21.8359C144.355 21.8359 143.938 21.9375 143.57 22.1406C143.211 22.3359 142.91 22.6211 142.668 22.9961C142.426 23.3711 142.238 23.8242 142.105 24.3555C141.98 24.8789 141.918 25.4688 141.918 26.125V26.5938C141.918 27.1484 141.992 27.6641 142.141 28.1406C142.297 28.6094 142.523 29.0195 142.82 29.3711C143.117 29.7227 143.477 30 143.898 30.2031C144.32 30.3984 144.801 30.4961 145.34 30.4961C146.02 30.4961 146.625 30.3594 147.156 30.0859C147.688 29.8125 148.148 29.4258 148.539 28.9258L150.027 30.3672C149.754 30.7656 149.398 31.1484 148.961 31.5156C148.523 31.875 147.988 32.168 147.355 32.3945C146.73 32.6211 146.004 32.7344 145.176 32.7344ZM158.043 32.7344C157.105 32.7344 156.258 32.582 155.5 32.2773C154.75 31.9648 154.109 31.5312 153.578 30.9766C153.055 30.4219 152.652 29.7695 152.371 29.0195C152.09 28.2695 151.949 27.4609 151.949 26.5938V26.125C151.949 25.1328 152.094 24.2344 152.383 23.4297C152.672 22.625 153.074 21.9375 153.59 21.3672C154.105 20.7891 154.715 20.3477 155.418 20.043C156.121 19.7383 156.883 19.5859 157.703 19.5859C158.609 19.5859 159.402 19.7383 160.082 20.043C160.762 20.3477 161.324 20.7773 161.77 21.332C162.223 21.8789 162.559 22.5312 162.777 23.2891C163.004 24.0469 163.117 24.8828 163.117 25.7969V27.0039H153.32V24.9766H160.328V24.7539C160.312 24.2461 160.211 23.7695 160.023 23.3242C159.844 22.8789 159.566 22.5195 159.191 22.2461C158.816 21.9727 158.316 21.8359 157.691 21.8359C157.223 21.8359 156.805 21.9375 156.438 22.1406C156.078 22.3359 155.777 22.6211 155.535 22.9961C155.293 23.3711 155.105 23.8242 154.973 24.3555C154.848 24.8789 154.785 25.4688 154.785 26.125V26.5938C154.785 27.1484 154.859 27.6641 155.008 28.1406C155.164 28.6094 155.391 29.0195 155.688 29.3711C155.984 29.7227 156.344 30 156.766 30.2031C157.188 30.3984 157.668 30.4961 158.207 30.4961C158.887 30.4961 159.492 30.3594 160.023 30.0859C160.555 29.8125 161.016 29.4258 161.406 28.9258L162.895 30.3672C162.621 30.7656 162.266 31.1484 161.828 31.5156C161.391 31.875 160.855 32.168 160.223 32.3945C159.598 32.6211 158.871 32.7344 158.043 32.7344ZM174.098 22.5273V32.5H171.273V19.8203H173.934L174.098 22.5273ZM173.594 25.6914L172.68 25.6797C172.688 24.7812 172.812 23.957 173.055 23.207C173.305 22.457 173.648 21.8125 174.086 21.2734C174.531 20.7344 175.062 20.3203 175.68 20.0312C176.297 19.7344 176.984 19.5859 177.742 19.5859C178.352 19.5859 178.902 19.6719 179.395 19.8438C179.895 20.0078 180.32 20.2773 180.672 20.6523C181.031 21.0273 181.305 21.5156 181.492 22.1172C181.68 22.7109 181.773 23.4414 181.773 24.3086V32.5H178.938V24.2969C178.938 23.6875 178.848 23.207 178.668 22.8555C178.496 22.4961 178.242 22.2422 177.906 22.0938C177.578 21.9375 177.168 21.8594 176.676 21.8594C176.191 21.8594 175.758 21.9609 175.375 22.1641C174.992 22.3672 174.668 22.6445 174.402 22.9961C174.145 23.3477 173.945 23.7539 173.805 24.2148C173.664 24.6758 173.594 25.168 173.594 25.6914ZM187.68 19.8203V32.5H184.844V19.8203H187.68ZM184.656 16.4922C184.656 16.0625 184.797 15.707 185.078 15.4258C185.367 15.1367 185.766 14.9922 186.273 14.9922C186.773 14.9922 187.168 15.1367 187.457 15.4258C187.746 15.707 187.891 16.0625 187.891 16.4922C187.891 16.9141 187.746 17.2656 187.457 17.5469C187.168 17.8281 186.773 17.9688 186.273 17.9688C185.766 17.9688 185.367 17.8281 185.078 17.5469C184.797 17.2656 184.656 16.9141 184.656 16.4922ZM193.797 19.8203V32.5H190.961V19.8203H193.797ZM190.773 16.4922C190.773 16.0625 190.914 15.707 191.195 15.4258C191.484 15.1367 191.883 14.9922 192.391 14.9922C192.891 14.9922 193.285 15.1367 193.574 15.4258C193.863 15.707 194.008 16.0625 194.008 16.4922C194.008 16.9141 193.863 17.2656 193.574 17.5469C193.285 17.8281 192.891 17.9688 192.391 17.9688C191.883 17.9688 191.484 17.8281 191.195 17.5469C190.914 17.2656 190.773 16.9141 190.773 16.4922ZM208.457 32.7344C207.52 32.7344 206.672 32.582 205.914 32.2773C205.164 31.9648 204.523 31.5312 203.992 30.9766C203.469 30.4219 203.066 29.7695 202.785 29.0195C202.504 28.2695 202.363 27.4609 202.363 26.5938V26.125C202.363 25.1328 202.508 24.2344 202.797 23.4297C203.086 22.625 203.488 21.9375 204.004 21.3672C204.52 20.7891 205.129 20.3477 205.832 20.043C206.535 19.7383 207.297 19.5859 208.117 19.5859C209.023 19.5859 209.816 19.7383 210.496 20.043C211.176 20.3477 211.738 20.7773 212.184 21.332C212.637 21.8789 212.973 22.5312 213.191 23.2891C213.418 24.0469 213.531 24.8828 213.531 25.7969V27.0039H203.734V24.9766H210.742V24.7539C210.727 24.2461 210.625 23.7695 210.438 23.3242C210.258 22.8789 209.98 22.5195 209.605 22.2461C209.23 21.9727 208.73 21.8359 208.105 21.8359C207.637 21.8359 207.219 21.9375 206.852 22.1406C206.492 22.3359 206.191 22.6211 205.949 22.9961C205.707 23.3711 205.52 23.8242 205.387 24.3555C205.262 24.8789 205.199 25.4688 205.199 26.125V26.5938C205.199 27.1484 205.273 27.6641 205.422 28.1406C205.578 28.6094 205.805 29.0195 206.102 29.3711C206.398 29.7227 206.758 30 207.18 30.2031C207.602 30.3984 208.082 30.4961 208.621 30.4961C209.301 30.4961 209.906 30.3594 210.438 30.0859C210.969 29.8125 211.43 29.4258 211.82 28.9258L213.309 30.3672C213.035 30.7656 212.68 31.1484 212.242 31.5156C211.805 31.875 211.27 32.168 210.637 32.3945C210.012 32.6211 209.285 32.7344 208.457 32.7344ZM218.758 19.8203V32.5H215.922V19.8203H218.758ZM215.734 16.4922C215.734 16.0625 215.875 15.707 216.156 15.4258C216.445 15.1367 216.844 14.9922 217.352 14.9922C217.852 14.9922 218.246 15.1367 218.535 15.4258C218.824 15.707 218.969 16.0625 218.969 16.4922C218.969 16.9141 218.824 17.2656 218.535 17.5469C218.246 17.8281 217.852 17.9688 217.352 17.9688C216.844 17.9688 216.445 17.8281 216.156 17.5469C215.875 17.2656 215.734 16.9141 215.734 16.4922ZM230.852 14.5V32.5H228.016V14.5H230.852ZM241.094 29.957V23.9102C241.094 23.457 241.012 23.0664 240.848 22.7383C240.684 22.4102 240.434 22.1562 240.098 21.9766C239.77 21.7969 239.355 21.707 238.855 21.707C238.395 21.707 237.996 21.7852 237.66 21.9414C237.324 22.0977 237.062 22.3086 236.875 22.5742C236.688 22.8398 236.594 23.1406 236.594 23.4766H233.781C233.781 22.9766 233.902 22.4922 234.145 22.0234C234.387 21.5547 234.738 21.1367 235.199 20.7695C235.66 20.4023 236.211 20.1133 236.852 19.9023C237.492 19.6914 238.211 19.5859 239.008 19.5859C239.961 19.5859 240.805 19.7461 241.539 20.0664C242.281 20.3867 242.863 20.8711 243.285 21.5195C243.715 22.1602 243.93 22.9648 243.93 23.9336V29.5703C243.93 30.1484 243.969 30.668 244.047 31.1289C244.133 31.582 244.254 31.9766 244.41 32.3125V32.5H241.516C241.383 32.1953 241.277 31.8086 241.199 31.3398C241.129 30.8633 241.094 30.4023 241.094 29.957ZM241.504 24.7891L241.527 26.5352H239.5C238.977 26.5352 238.516 26.5859 238.117 26.6875C237.719 26.7812 237.387 26.9219 237.121 27.1094C236.855 27.2969 236.656 27.5234 236.523 27.7891C236.391 28.0547 236.324 28.3555 236.324 28.6914C236.324 29.0273 236.402 29.3359 236.559 29.6172C236.715 29.8906 236.941 30.1055 237.238 30.2617C237.543 30.418 237.91 30.4961 238.34 30.4961C238.918 30.4961 239.422 30.3789 239.852 30.1445C240.289 29.9023 240.633 29.6094 240.883 29.2656C241.133 28.9141 241.266 28.582 241.281 28.2695L242.195 29.5234C242.102 29.8438 241.941 30.1875 241.715 30.5547C241.488 30.9219 241.191 31.2734 240.824 31.6094C240.465 31.9375 240.031 32.207 239.523 32.418C239.023 32.6289 238.445 32.7344 237.789 32.7344C236.961 32.7344 236.223 32.5703 235.574 32.2422C234.926 31.9062 234.418 31.457 234.051 30.8945C233.684 30.3242 233.5 29.6797 233.5 28.9609C233.5 28.2891 233.625 27.6953 233.875 27.1797C234.133 26.6562 234.508 26.2188 235 25.8672C235.5 25.5156 236.109 25.25 236.828 25.0703C237.547 24.8828 238.367 24.7891 239.289 24.7891H241.504ZM234.953 16.457C234.953 16.0742 235.086 15.7539 235.352 15.4961C235.617 15.2305 235.969 15.0977 236.406 15.0977C236.852 15.0977 237.207 15.2305 237.473 15.4961C237.738 15.7539 237.871 16.0742 237.871 16.457C237.871 16.832 237.738 17.1523 237.473 17.418C237.207 17.6758 236.852 17.8047 236.406 17.8047C235.969 17.8047 235.617 17.6758 235.352 17.418C235.086 17.1523 234.953 16.832 234.953 16.457ZM240.379 16.4688C240.379 16.0859 240.512 15.7656 240.777 15.5078C241.043 15.2422 241.398 15.1094 241.844 15.1094C242.281 15.1094 242.633 15.2422 242.898 15.5078C243.172 15.7656 243.309 16.0859 243.309 16.4688C243.309 16.8438 243.172 17.1641 242.898 17.4297C242.633 17.6875 242.281 17.8164 241.844 17.8164C241.398 17.8164 241.043 17.6875 240.777 17.4297C240.512 17.1641 240.379 16.8438 240.379 16.4688ZM249.672 14.5V32.5H246.859V14.5H249.672ZM249.18 25.6914L248.266 25.6797C248.273 24.8047 248.395 23.9961 248.629 23.2539C248.871 22.5117 249.207 21.8672 249.637 21.3203C250.074 20.7656 250.598 20.3398 251.207 20.043C251.816 19.7383 252.492 19.5859 253.234 19.5859C253.859 19.5859 254.422 19.6719 254.922 19.8438C255.43 20.0156 255.867 20.293 256.234 20.6758C256.602 21.0508 256.879 21.543 257.066 22.1523C257.262 22.7539 257.359 23.4883 257.359 24.3555V32.5H254.523V24.332C254.523 23.7227 254.434 23.2383 254.254 22.8789C254.082 22.5195 253.828 22.2617 253.492 22.1055C253.156 21.9414 252.746 21.8594 252.262 21.8594C251.754 21.8594 251.305 21.9609 250.914 22.1641C250.531 22.3672 250.211 22.6445 249.953 22.9961C249.695 23.3477 249.5 23.7539 249.367 24.2148C249.242 24.6758 249.18 25.168 249.18 25.6914ZM265.809 32.7344C264.871 32.7344 264.023 32.582 263.266 32.2773C262.516 31.9648 261.875 31.5312 261.344 30.9766C260.82 30.4219 260.418 29.7695 260.137 29.0195C259.855 28.2695 259.715 27.4609 259.715 26.5938V26.125C259.715 25.1328 259.859 24.2344 260.148 23.4297C260.438 22.625 260.84 21.9375 261.355 21.3672C261.871 20.7891 262.48 20.3477 263.184 20.043C263.887 19.7383 264.648 19.5859 265.469 19.5859C266.375 19.5859 267.168 19.7383 267.848 20.043C268.527 20.3477 269.09 20.7773 269.535 21.332C269.988 21.8789 270.324 22.5312 270.543 23.2891C270.77 24.0469 270.883 24.8828 270.883 25.7969V27.0039H261.086V24.9766H268.094V24.7539C268.078 24.2461 267.977 23.7695 267.789 23.3242C267.609 22.8789 267.332 22.5195 266.957 22.2461C266.582 21.9727 266.082 21.8359 265.457 21.8359C264.988 21.8359 264.57 21.9375 264.203 22.1406C263.844 22.3359 263.543 22.6211 263.301 22.9961C263.059 23.3711 262.871 23.8242 262.738 24.3555C262.613 24.8789 262.551 25.4688 262.551 26.125V26.5938C262.551 27.1484 262.625 27.6641 262.773 28.1406C262.93 28.6094 263.156 29.0195 263.453 29.3711C263.75 29.7227 264.109 30 264.531 30.2031C264.953 30.3984 265.434 30.4961 265.973 30.4961C266.652 30.4961 267.258 30.3594 267.789 30.0859C268.32 29.8125 268.781 29.4258 269.172 28.9258L270.66 30.3672C270.387 30.7656 270.031 31.1484 269.594 31.5156C269.156 31.875 268.621 32.168 267.988 32.3945C267.363 32.6211 266.637 32.7344 265.809 32.7344ZM275.734 29.7812L275.723 31.7969C275.723 32.5938 275.523 33.4141 275.125 34.2578C274.727 35.1016 274.199 35.7969 273.543 36.3438L272.031 35.4648C272.25 35.1133 272.449 34.7578 272.629 34.3984C272.809 34.0391 272.953 33.6562 273.062 33.25C273.172 32.8438 273.227 32.3945 273.227 31.9023V29.7812H275.734ZM291.543 29.0664C291.543 28.7852 291.473 28.5312 291.332 28.3047C291.191 28.0703 290.922 27.8594 290.523 27.6719C290.133 27.4844 289.555 27.3125 288.789 27.1562C288.117 27.0078 287.5 26.832 286.938 26.6289C286.383 26.418 285.906 26.1641 285.508 25.8672C285.109 25.5703 284.801 25.2188 284.582 24.8125C284.363 24.4062 284.254 23.9375 284.254 23.4062C284.254 22.8906 284.367 22.4023 284.594 21.9414C284.82 21.4805 285.145 21.0742 285.566 20.7227C285.988 20.3711 286.5 20.0938 287.102 19.8906C287.711 19.6875 288.391 19.5859 289.141 19.5859C290.203 19.5859 291.113 19.7656 291.871 20.125C292.637 20.4766 293.223 20.957 293.629 21.5664C294.035 22.168 294.238 22.8477 294.238 23.6055H291.414C291.414 23.2695 291.328 22.957 291.156 22.668C290.992 22.3711 290.742 22.1328 290.406 21.9531C290.07 21.7656 289.648 21.6719 289.141 21.6719C288.656 21.6719 288.254 21.75 287.934 21.9062C287.621 22.0547 287.387 22.25 287.23 22.4922C287.082 22.7344 287.008 23 287.008 23.2891C287.008 23.5 287.047 23.6914 287.125 23.8633C287.211 24.0273 287.352 24.1797 287.547 24.3203C287.742 24.4531 288.008 24.5781 288.344 24.6953C288.688 24.8125 289.117 24.9258 289.633 25.0352C290.602 25.2383 291.434 25.5 292.129 25.8203C292.832 26.1328 293.371 26.5391 293.746 27.0391C294.121 27.5312 294.309 28.1562 294.309 28.9141C294.309 29.4766 294.188 29.9922 293.945 30.4609C293.711 30.9219 293.367 31.3242 292.914 31.668C292.461 32.0039 291.918 32.2656 291.285 32.4531C290.66 32.6406 289.957 32.7344 289.176 32.7344C288.027 32.7344 287.055 32.5312 286.258 32.125C285.461 31.7109 284.855 31.1836 284.441 30.543C284.035 29.8945 283.832 29.2227 283.832 28.5273H286.562C286.594 29.0508 286.738 29.4688 286.996 29.7812C287.262 30.0859 287.59 30.3086 287.98 30.4492C288.379 30.582 288.789 30.6484 289.211 30.6484C289.719 30.6484 290.145 30.582 290.488 30.4492C290.832 30.3086 291.094 30.1211 291.273 29.8867C291.453 29.6445 291.543 29.3711 291.543 29.0664ZM299.805 19.8203V32.5H296.969V19.8203H299.805ZM296.781 16.4922C296.781 16.0625 296.922 15.707 297.203 15.4258C297.492 15.1367 297.891 14.9922 298.398 14.9922C298.898 14.9922 299.293 15.1367 299.582 15.4258C299.871 15.707 300.016 16.0625 300.016 16.4922C300.016 16.9141 299.871 17.2656 299.582 17.5469C299.293 17.8281 298.898 17.9688 298.398 17.9688C297.891 17.9688 297.492 17.8281 297.203 17.5469C296.922 17.2656 296.781 16.9141 296.781 16.4922ZM305.922 19.8203V32.5H303.086V19.8203H305.922ZM302.898 16.4922C302.898 16.0625 303.039 15.707 303.32 15.4258C303.609 15.1367 304.008 14.9922 304.516 14.9922C305.016 14.9922 305.41 15.1367 305.699 15.4258C305.988 15.707 306.133 16.0625 306.133 16.4922C306.133 16.9141 305.988 17.2656 305.699 17.5469C305.41 17.8281 305.016 17.9688 304.516 17.9688C304.008 17.9688 303.609 17.8281 303.32 17.5469C303.039 17.2656 302.898 16.9141 302.898 16.4922ZM316.129 29.0664C316.129 28.7852 316.059 28.5312 315.918 28.3047C315.777 28.0703 315.508 27.8594 315.109 27.6719C314.719 27.4844 314.141 27.3125 313.375 27.1562C312.703 27.0078 312.086 26.832 311.523 26.6289C310.969 26.418 310.492 26.1641 310.094 25.8672C309.695 25.5703 309.387 25.2188 309.168 24.8125C308.949 24.4062 308.84 23.9375 308.84 23.4062C308.84 22.8906 308.953 22.4023 309.18 21.9414C309.406 21.4805 309.73 21.0742 310.152 20.7227C310.574 20.3711 311.086 20.0938 311.688 19.8906C312.297 19.6875 312.977 19.5859 313.727 19.5859C314.789 19.5859 315.699 19.7656 316.457 20.125C317.223 20.4766 317.809 20.957 318.215 21.5664C318.621 22.168 318.824 22.8477 318.824 23.6055H316C316 23.2695 315.914 22.957 315.742 22.668C315.578 22.3711 315.328 22.1328 314.992 21.9531C314.656 21.7656 314.234 21.6719 313.727 21.6719C313.242 21.6719 312.84 21.75 312.52 21.9062C312.207 22.0547 311.973 22.25 311.816 22.4922C311.668 22.7344 311.594 23 311.594 23.2891C311.594 23.5 311.633 23.6914 311.711 23.8633C311.797 24.0273 311.938 24.1797 312.133 24.3203C312.328 24.4531 312.594 24.5781 312.93 24.6953C313.273 24.8125 313.703 24.9258 314.219 25.0352C315.188 25.2383 316.02 25.5 316.715 25.8203C317.418 26.1328 317.957 26.5391 318.332 27.0391C318.707 27.5312 318.895 28.1562 318.895 28.9141C318.895 29.4766 318.773 29.9922 318.531 30.4609C318.297 30.9219 317.953 31.3242 317.5 31.668C317.047 32.0039 316.504 32.2656 315.871 32.4531C315.246 32.6406 314.543 32.7344 313.762 32.7344C312.613 32.7344 311.641 32.5312 310.844 32.125C310.047 31.7109 309.441 31.1836 309.027 30.543C308.621 29.8945 308.418 29.2227 308.418 28.5273H311.148C311.18 29.0508 311.324 29.4688 311.582 29.7812C311.848 30.0859 312.176 30.3086 312.566 30.4492C312.965 30.582 313.375 30.6484 313.797 30.6484C314.305 30.6484 314.73 30.582 315.074 30.4492C315.418 30.3086 315.68 30.1211 315.859 29.8867C316.039 29.6445 316.129 29.3711 316.129 29.0664ZM45.5195 49.5V50.4375C45.5195 51.7266 45.3516 52.8828 45.0156 53.9062C44.6797 54.9297 44.1992 55.8008 43.5742 56.5195C42.957 57.2383 42.2148 57.7891 41.3477 58.1719C40.4805 58.5469 39.5195 58.7344 38.4648 58.7344C37.418 58.7344 36.4609 58.5469 35.5938 58.1719C34.7344 57.7891 33.9883 57.2383 33.3555 56.5195C32.7227 55.8008 32.2305 54.9297 31.8789 53.9062C31.5352 52.8828 31.3633 51.7266 31.3633 50.4375V49.5C31.3633 48.2109 31.5352 47.0586 31.8789 46.043C32.2227 45.0195 32.707 44.1484 33.332 43.4297C33.9648 42.7031 34.7109 42.1523 35.5703 41.7773C36.4375 41.3945 37.3945 41.2031 38.4414 41.2031C39.4961 41.2031 40.457 41.3945 41.3242 41.7773C42.1914 42.1523 42.9375 42.7031 43.5625 43.4297C44.1875 44.1484 44.668 45.0195 45.0039 46.043C45.3477 47.0586 45.5195 48.2109 45.5195 49.5ZM42.5781 50.4375V49.4766C42.5781 48.5234 42.4844 47.6836 42.2969 46.957C42.1172 46.2227 41.8477 45.6094 41.4883 45.1172C41.1367 44.6172 40.7031 44.2422 40.1875 43.9922C39.6719 43.7344 39.0898 43.6055 38.4414 43.6055C37.793 43.6055 37.2148 43.7344 36.707 43.9922C36.1992 44.2422 35.7656 44.6172 35.4062 45.1172C35.0547 45.6094 34.7852 46.2227 34.5977 46.957C34.4102 47.6836 34.3164 48.5234 34.3164 49.4766V50.4375C34.3164 51.3906 34.4102 52.2344 34.5977 52.9688C34.7852 53.7031 35.0586 54.3242 35.418 54.832C35.7852 55.332 36.2227 55.7109 36.7305 55.9688C37.2383 56.2188 37.8164 56.3438 38.4648 56.3438C39.1211 56.3438 39.7031 56.2188 40.2109 55.9688C40.7188 55.7109 41.1484 55.332 41.5 54.832C41.8516 54.3242 42.1172 53.7031 42.2969 52.9688C42.4844 52.2344 42.5781 51.3906 42.5781 50.4375ZM41.0195 36.9844L42.7422 37.1133C42.7422 37.6836 42.6289 38.1953 42.4023 38.6484C42.1758 39.0938 41.8672 39.4453 41.4766 39.7031C41.0859 39.9609 40.6445 40.0898 40.1523 40.0898C39.7695 40.0898 39.4453 40.0352 39.1797 39.9258C38.9141 39.8164 38.6719 39.6914 38.4531 39.5508C38.2344 39.4102 38.0078 39.2891 37.7734 39.1875C37.5469 39.0781 37.2773 39.0234 36.9648 39.0234C36.668 39.0234 36.4141 39.1328 36.2031 39.3516C36 39.5703 35.8984 39.8633 35.8984 40.2305L34.1641 40.1367C34.1641 39.5742 34.2773 39.0664 34.5039 38.6133C34.7305 38.1602 35.0391 37.8008 35.4297 37.5352C35.8203 37.2695 36.2617 37.1367 36.7539 37.1367C37.0742 37.1367 37.3633 37.1914 37.6211 37.3008C37.8867 37.4023 38.1367 37.5234 38.3711 37.6641C38.6133 37.8047 38.8594 37.9297 39.1094 38.0391C39.3594 38.1484 39.6367 38.2031 39.9414 38.2031C40.2383 38.2031 40.4922 38.0898 40.7031 37.8633C40.9141 37.6367 41.0195 37.3438 41.0195 36.9844ZM50.9688 40.5V58.5H48.1562V40.5H50.9688ZM50.4766 51.6914L49.5625 51.6797C49.5703 50.8047 49.6914 49.9961 49.9258 49.2539C50.168 48.5117 50.5039 47.8672 50.9336 47.3203C51.3711 46.7656 51.8945 46.3398 52.5039 46.043C53.1133 45.7383 53.7891 45.5859 54.5312 45.5859C55.1562 45.5859 55.7188 45.6719 56.2188 45.8438C56.7266 46.0156 57.1641 46.293 57.5312 46.6758C57.8984 47.0508 58.1758 47.543 58.3633 48.1523C58.5586 48.7539 58.6562 49.4883 58.6562 50.3555V58.5H55.8203V50.332C55.8203 49.7227 55.7305 49.2383 55.5508 48.8789C55.3789 48.5195 55.125 48.2617 54.7891 48.1055C54.4531 47.9414 54.043 47.8594 53.5586 47.8594C53.0508 47.8594 52.6016 47.9609 52.2109 48.1641C51.8281 48.3672 51.5078 48.6445 51.25 48.9961C50.9922 49.3477 50.7969 49.7539 50.6641 50.2148C50.5391 50.6758 50.4766 51.168 50.4766 51.6914ZM67.3281 45.8203V47.8828H60.1797V45.8203H67.3281ZM62.2422 42.7148H65.0664V54.9961C65.0664 55.3867 65.1211 55.6875 65.2305 55.8984C65.3477 56.1016 65.5078 56.2383 65.7109 56.3086C65.9141 56.3789 66.1523 56.4141 66.4258 56.4141C66.6211 56.4141 66.8086 56.4023 66.9883 56.3789C67.168 56.3555 67.3125 56.332 67.4219 56.3086L67.4336 58.4648C67.1992 58.5352 66.9258 58.5977 66.6133 58.6523C66.3086 58.707 65.957 58.7344 65.5586 58.7344C64.9102 58.7344 64.3359 58.6211 63.8359 58.3945C63.3359 58.1602 62.9453 57.7812 62.6641 57.2578C62.3828 56.7344 62.2422 56.0391 62.2422 55.1719V42.7148ZM77.1367 55.5117V45.8203H79.9727V58.5H77.3008L77.1367 55.5117ZM77.5352 52.875L78.4844 52.8516C78.4844 53.7031 78.3906 54.4883 78.2031 55.207C78.0156 55.918 77.7266 56.5391 77.3359 57.0703C76.9453 57.5938 76.4453 58.0039 75.8359 58.3008C75.2266 58.5898 74.4961 58.7344 73.6445 58.7344C73.0273 58.7344 72.4609 58.6445 71.9453 58.4648C71.4297 58.2852 70.9844 58.0078 70.6094 57.6328C70.2422 57.2578 69.957 56.7695 69.7539 56.168C69.5508 55.5664 69.4492 54.8477 69.4492 54.0117V45.8203H72.2734V54.0352C72.2734 54.4961 72.3281 54.8828 72.4375 55.1953C72.5469 55.5 72.6953 55.7461 72.8828 55.9336C73.0703 56.1211 73.2891 56.2539 73.5391 56.332C73.7891 56.4102 74.0547 56.4492 74.3359 56.4492C75.1406 56.4492 75.7734 56.293 76.2344 55.9805C76.7031 55.6602 77.0352 55.2305 77.2305 54.6914C77.4336 54.1523 77.5352 53.5469 77.5352 52.875ZM85.8906 40.5V58.5H83.0547V40.5H85.8906ZM94.5742 58.7344C93.6367 58.7344 92.7891 58.582 92.0312 58.2773C91.2812 57.9648 90.6406 57.5312 90.1094 56.9766C89.5859 56.4219 89.1836 55.7695 88.9023 55.0195C88.6211 54.2695 88.4805 53.4609 88.4805 52.5938V52.125C88.4805 51.1328 88.625 50.2344 88.9141 49.4297C89.2031 48.625 89.6055 47.9375 90.1211 47.3672C90.6367 46.7891 91.2461 46.3477 91.9492 46.043C92.6523 45.7383 93.4141 45.5859 94.2344 45.5859C95.1406 45.5859 95.9336 45.7383 96.6133 46.043C97.293 46.3477 97.8555 46.7773 98.3008 47.332C98.7539 47.8789 99.0898 48.5312 99.3086 49.2891C99.5352 50.0469 99.6484 50.8828 99.6484 51.7969V53.0039H89.8516V50.9766H96.8594V50.7539C96.8438 50.2461 96.7422 49.7695 96.5547 49.3242C96.375 48.8789 96.0977 48.5195 95.7227 48.2461C95.3477 47.9727 94.8477 47.8359 94.2227 47.8359C93.7539 47.8359 93.3359 47.9375 92.9688 48.1406C92.6094 48.3359 92.3086 48.6211 92.0664 48.9961C91.8242 49.3711 91.6367 49.8242 91.5039 50.3555C91.3789 50.8789 91.3164 51.4688 91.3164 52.125V52.5938C91.3164 53.1484 91.3906 53.6641 91.5391 54.1406C91.6953 54.6094 91.9219 55.0195 92.2188 55.3711C92.5156 55.7227 92.875 56 93.2969 56.2031C93.7188 56.3984 94.1992 56.4961 94.7383 56.4961C95.418 56.4961 96.0234 56.3594 96.5547 56.0859C97.0859 55.8125 97.5469 55.4258 97.9375 54.9258L99.4258 56.3672C99.1523 56.7656 98.7969 57.1484 98.3594 57.5156C97.9219 57.875 97.3867 58.168 96.7539 58.3945C96.1289 58.6211 95.4023 58.7344 94.5742 58.7344ZM104.641 40.5V58.5H101.828V40.5H104.641ZM104.148 51.6914L103.234 51.6797C103.242 50.8047 103.363 49.9961 103.598 49.2539C103.84 48.5117 104.176 47.8672 104.605 47.3203C105.043 46.7656 105.566 46.3398 106.176 46.043C106.785 45.7383 107.461 45.5859 108.203 45.5859C108.828 45.5859 109.391 45.6719 109.891 45.8438C110.398 46.0156 110.836 46.293 111.203 46.6758C111.57 47.0508 111.848 47.543 112.035 48.1523C112.23 48.7539 112.328 49.4883 112.328 50.3555V58.5H109.492V50.332C109.492 49.7227 109.402 49.2383 109.223 48.8789C109.051 48.5195 108.797 48.2617 108.461 48.1055C108.125 47.9414 107.715 47.8594 107.23 47.8594C106.723 47.8594 106.273 47.9609 105.883 48.1641C105.5 48.3672 105.18 48.6445 104.922 48.9961C104.664 49.3477 104.469 49.7539 104.336 50.2148C104.211 50.6758 104.148 51.168 104.148 51.6914ZM120.777 58.7344C119.84 58.7344 118.992 58.582 118.234 58.2773C117.484 57.9648 116.844 57.5312 116.312 56.9766C115.789 56.4219 115.387 55.7695 115.105 55.0195C114.824 54.2695 114.684 53.4609 114.684 52.5938V52.125C114.684 51.1328 114.828 50.2344 115.117 49.4297C115.406 48.625 115.809 47.9375 116.324 47.3672C116.84 46.7891 117.449 46.3477 118.152 46.043C118.855 45.7383 119.617 45.5859 120.438 45.5859C121.344 45.5859 122.137 45.7383 122.816 46.043C123.496 46.3477 124.059 46.7773 124.504 47.332C124.957 47.8789 125.293 48.5312 125.512 49.2891C125.738 50.0469 125.852 50.8828 125.852 51.7969V53.0039H116.055V50.9766H123.062V50.7539C123.047 50.2461 122.945 49.7695 122.758 49.3242C122.578 48.8789 122.301 48.5195 121.926 48.2461C121.551 47.9727 121.051 47.8359 120.426 47.8359C119.957 47.8359 119.539 47.9375 119.172 48.1406C118.812 48.3359 118.512 48.6211 118.27 48.9961C118.027 49.3711 117.84 49.8242 117.707 50.3555C117.582 50.8789 117.52 51.4688 117.52 52.125V52.5938C117.52 53.1484 117.594 53.6641 117.742 54.1406C117.898 54.6094 118.125 55.0195 118.422 55.3711C118.719 55.7227 119.078 56 119.5 56.2031C119.922 56.3984 120.402 56.4961 120.941 56.4961C121.621 56.4961 122.227 56.3594 122.758 56.0859C123.289 55.8125 123.75 55.4258 124.141 54.9258L125.629 56.3672C125.355 56.7656 125 57.1484 124.562 57.5156C124.125 57.875 123.59 58.168 122.957 58.3945C122.332 58.6211 121.605 58.7344 120.777 58.7344ZM138.156 56.2617L141.262 45.8203H144.191L139.785 58.5H137.957L138.156 56.2617ZM135.777 45.8203L138.941 56.3086L139.094 58.5H137.266L132.836 45.8203H135.777ZM151.363 58.7344C150.426 58.7344 149.578 58.582 148.82 58.2773C148.07 57.9648 147.43 57.5312 146.898 56.9766C146.375 56.4219 145.973 55.7695 145.691 55.0195C145.41 54.2695 145.27 53.4609 145.27 52.5938V52.125C145.27 51.1328 145.414 50.2344 145.703 49.4297C145.992 48.625 146.395 47.9375 146.91 47.3672C147.426 46.7891 148.035 46.3477 148.738 46.043C149.441 45.7383 150.203 45.5859 151.023 45.5859C151.93 45.5859 152.723 45.7383 153.402 46.043C154.082 46.3477 154.645 46.7773 155.09 47.332C155.543 47.8789 155.879 48.5312 156.098 49.2891C156.324 50.0469 156.438 50.8828 156.438 51.7969V53.0039H146.641V50.9766H153.648V50.7539C153.633 50.2461 153.531 49.7695 153.344 49.3242C153.164 48.8789 152.887 48.5195 152.512 48.2461C152.137 47.9727 151.637 47.8359 151.012 47.8359C150.543 47.8359 150.125 47.9375 149.758 48.1406C149.398 48.3359 149.098 48.6211 148.855 48.9961C148.613 49.3711 148.426 49.8242 148.293 50.3555C148.168 50.8789 148.105 51.4688 148.105 52.125V52.5938C148.105 53.1484 148.18 53.6641 148.328 54.1406C148.484 54.6094 148.711 55.0195 149.008 55.3711C149.305 55.7227 149.664 56 150.086 56.2031C150.508 56.3984 150.988 56.4961 151.527 56.4961C152.207 56.4961 152.812 56.3594 153.344 56.0859C153.875 55.8125 154.336 55.4258 154.727 54.9258L156.215 56.3672C155.941 56.7656 155.586 57.1484 155.148 57.5156C154.711 57.875 154.176 58.168 153.543 58.3945C152.918 58.6211 152.191 58.7344 151.363 58.7344ZM164.23 58.7344C163.293 58.7344 162.445 58.582 161.688 58.2773C160.938 57.9648 160.297 57.5312 159.766 56.9766C159.242 56.4219 158.84 55.7695 158.559 55.0195C158.277 54.2695 158.137 53.4609 158.137 52.5938V52.125C158.137 51.1328 158.281 50.2344 158.57 49.4297C158.859 48.625 159.262 47.9375 159.777 47.3672C160.293 46.7891 160.902 46.3477 161.605 46.043C162.309 45.7383 163.07 45.5859 163.891 45.5859C164.797 45.5859 165.59 45.7383 166.27 46.043C166.949 46.3477 167.512 46.7773 167.957 47.332C168.41 47.8789 168.746 48.5312 168.965 49.2891C169.191 50.0469 169.305 50.8828 169.305 51.7969V53.0039H159.508V50.9766H166.516V50.7539C166.5 50.2461 166.398 49.7695 166.211 49.3242C166.031 48.8789 165.754 48.5195 165.379 48.2461C165.004 47.9727 164.504 47.8359 163.879 47.8359C163.41 47.8359 162.992 47.9375 162.625 48.1406C162.266 48.3359 161.965 48.6211 161.723 48.9961C161.48 49.3711 161.293 49.8242 161.16 50.3555C161.035 50.8789 160.973 51.4688 160.973 52.125V52.5938C160.973 53.1484 161.047 53.6641 161.195 54.1406C161.352 54.6094 161.578 55.0195 161.875 55.3711C162.172 55.7227 162.531 56 162.953 56.2031C163.375 56.3984 163.855 56.4961 164.395 56.4961C165.074 56.4961 165.68 56.3594 166.211 56.0859C166.742 55.8125 167.203 55.4258 167.594 54.9258L169.082 56.3672C168.809 56.7656 168.453 57.1484 168.016 57.5156C167.578 57.875 167.043 58.168 166.41 58.3945C165.785 58.6211 165.059 58.7344 164.23 58.7344ZM171.52 40.5H174.344V55.793L174.074 58.5H171.52V40.5ZM182.617 52.043V52.2891C182.617 53.2266 182.512 54.0898 182.301 54.8789C182.098 55.6602 181.785 56.3398 181.363 56.918C180.949 57.4961 180.434 57.9453 179.816 58.2656C179.207 58.5781 178.5 58.7344 177.695 58.7344C176.906 58.7344 176.219 58.5859 175.633 58.2891C175.047 57.9922 174.555 57.5703 174.156 57.0234C173.766 56.4766 173.449 55.8242 173.207 55.0664C172.965 54.3086 172.793 53.4727 172.691 52.5586V51.7734C172.793 50.8516 172.965 50.0156 173.207 49.2656C173.449 48.5078 173.766 47.8555 174.156 47.3086C174.555 46.7539 175.043 46.3281 175.621 46.0312C176.207 45.7344 176.891 45.5859 177.672 45.5859C178.484 45.5859 179.199 45.7422 179.816 46.0547C180.441 46.3672 180.961 46.8125 181.375 47.3906C181.789 47.9609 182.098 48.6406 182.301 49.4297C182.512 50.2188 182.617 51.0898 182.617 52.043ZM179.793 52.2891V52.043C179.793 51.4727 179.746 50.9375 179.652 50.4375C179.559 49.9297 179.402 49.4844 179.184 49.1016C178.973 48.7188 178.684 48.418 178.316 48.1992C177.957 47.9727 177.508 47.8594 176.969 47.8594C176.469 47.8594 176.039 47.9453 175.68 48.1172C175.32 48.2891 175.02 48.5234 174.777 48.8203C174.535 49.1172 174.344 49.4609 174.203 49.8516C174.07 50.2422 173.98 50.6641 173.934 51.1172V53.2383C174.004 53.8242 174.152 54.3633 174.379 54.8555C174.613 55.3398 174.941 55.7305 175.363 56.0273C175.785 56.3164 176.328 56.4609 176.992 56.4609C177.516 56.4609 177.957 56.3555 178.316 56.1445C178.676 55.9336 178.961 55.6406 179.172 55.2656C179.391 54.8828 179.547 54.4375 179.641 53.9297C179.742 53.4219 179.793 52.875 179.793 52.2891ZM188.031 45.8203V58.5H185.195V45.8203H188.031ZM185.008 42.4922C185.008 42.0625 185.148 41.707 185.43 41.4258C185.719 41.1367 186.117 40.9922 186.625 40.9922C187.125 40.9922 187.52 41.1367 187.809 41.4258C188.098 41.707 188.242 42.0625 188.242 42.4922C188.242 42.9141 188.098 43.2656 187.809 43.5469C187.52 43.8281 187.125 43.9688 186.625 43.9688C186.117 43.9688 185.719 43.8281 185.43 43.5469C185.148 43.2656 185.008 42.9141 185.008 42.4922ZM198.238 55.0664C198.238 54.7852 198.168 54.5312 198.027 54.3047C197.887 54.0703 197.617 53.8594 197.219 53.6719C196.828 53.4844 196.25 53.3125 195.484 53.1562C194.812 53.0078 194.195 52.832 193.633 52.6289C193.078 52.418 192.602 52.1641 192.203 51.8672C191.805 51.5703 191.496 51.2188 191.277 50.8125C191.059 50.4062 190.949 49.9375 190.949 49.4062C190.949 48.8906 191.062 48.4023 191.289 47.9414C191.516 47.4805 191.84 47.0742 192.262 46.7227C192.684 46.3711 193.195 46.0938 193.797 45.8906C194.406 45.6875 195.086 45.5859 195.836 45.5859C196.898 45.5859 197.809 45.7656 198.566 46.125C199.332 46.4766 199.918 46.957 200.324 47.5664C200.73 48.168 200.934 48.8477 200.934 49.6055H198.109C198.109 49.2695 198.023 48.957 197.852 48.668C197.688 48.3711 197.438 48.1328 197.102 47.9531C196.766 47.7656 196.344 47.6719 195.836 47.6719C195.352 47.6719 194.949 47.75 194.629 47.9062C194.316 48.0547 194.082 48.25 193.926 48.4922C193.777 48.7344 193.703 49 193.703 49.2891C193.703 49.5 193.742 49.6914 193.82 49.8633C193.906 50.0273 194.047 50.1797 194.242 50.3203C194.438 50.4531 194.703 50.5781 195.039 50.6953C195.383 50.8125 195.812 50.9258 196.328 51.0352C197.297 51.2383 198.129 51.5 198.824 51.8203C199.527 52.1328 200.066 52.5391 200.441 53.0391C200.816 53.5312 201.004 54.1562 201.004 54.9141C201.004 55.4766 200.883 55.9922 200.641 56.4609C200.406 56.9219 200.062 57.3242 199.609 57.668C199.156 58.0039 198.613 58.2656 197.98 58.4531C197.355 58.6406 196.652 58.7344 195.871 58.7344C194.723 58.7344 193.75 58.5312 192.953 58.125C192.156 57.7109 191.551 57.1836 191.137 56.543C190.73 55.8945 190.527 55.2227 190.527 54.5273H193.258C193.289 55.0508 193.434 55.4688 193.691 55.7812C193.957 56.0859 194.285 56.3086 194.676 56.4492C195.074 56.582 195.484 56.6484 195.906 56.6484C196.414 56.6484 196.84 56.582 197.184 56.4492C197.527 56.3086 197.789 56.1211 197.969 55.8867C198.148 55.6445 198.238 55.3711 198.238 55.0664ZM209.289 45.8203V47.8828H202.141V45.8203H209.289ZM204.203 42.7148H207.027V54.9961C207.027 55.3867 207.082 55.6875 207.191 55.8984C207.309 56.1016 207.469 56.2383 207.672 56.3086C207.875 56.3789 208.113 56.4141 208.387 56.4141C208.582 56.4141 208.77 56.4023 208.949 56.3789C209.129 56.3555 209.273 56.332 209.383 56.3086L209.395 58.4648C209.16 58.5352 208.887 58.5977 208.574 58.6523C208.27 58.707 207.918 58.7344 207.52 58.7344C206.871 58.7344 206.297 58.6211 205.797 58.3945C205.297 58.1602 204.906 57.7812 204.625 57.2578C204.344 56.7344 204.203 56.0391 204.203 55.1719V42.7148ZM224.559 55.0664C224.559 54.7852 224.488 54.5312 224.348 54.3047C224.207 54.0703 223.938 53.8594 223.539 53.6719C223.148 53.4844 222.57 53.3125 221.805 53.1562C221.133 53.0078 220.516 52.832 219.953 52.6289C219.398 52.418 218.922 52.1641 218.523 51.8672C218.125 51.5703 217.816 51.2188 217.598 50.8125C217.379 50.4062 217.27 49.9375 217.27 49.4062C217.27 48.8906 217.383 48.4023 217.609 47.9414C217.836 47.4805 218.16 47.0742 218.582 46.7227C219.004 46.3711 219.516 46.0938 220.117 45.8906C220.727 45.6875 221.406 45.5859 222.156 45.5859C223.219 45.5859 224.129 45.7656 224.887 46.125C225.652 46.4766 226.238 46.957 226.645 47.5664C227.051 48.168 227.254 48.8477 227.254 49.6055H224.43C224.43 49.2695 224.344 48.957 224.172 48.668C224.008 48.3711 223.758 48.1328 223.422 47.9531C223.086 47.7656 222.664 47.6719 222.156 47.6719C221.672 47.6719 221.27 47.75 220.949 47.9062C220.637 48.0547 220.402 48.25 220.246 48.4922C220.098 48.7344 220.023 49 220.023 49.2891C220.023 49.5 220.062 49.6914 220.141 49.8633C220.227 50.0273 220.367 50.1797 220.562 50.3203C220.758 50.4531 221.023 50.5781 221.359 50.6953C221.703 50.8125 222.133 50.9258 222.648 51.0352C223.617 51.2383 224.449 51.5 225.145 51.8203C225.848 52.1328 226.387 52.5391 226.762 53.0391C227.137 53.5312 227.324 54.1562 227.324 54.9141C227.324 55.4766 227.203 55.9922 226.961 56.4609C226.727 56.9219 226.383 57.3242 225.93 57.668C225.477 58.0039 224.934 58.2656 224.301 58.4531C223.676 58.6406 222.973 58.7344 222.191 58.7344C221.043 58.7344 220.07 58.5312 219.273 58.125C218.477 57.7109 217.871 57.1836 217.457 56.543C217.051 55.8945 216.848 55.2227 216.848 54.5273H219.578C219.609 55.0508 219.754 55.4688 220.012 55.7812C220.277 56.0859 220.605 56.3086 220.996 56.4492C221.395 56.582 221.805 56.6484 222.227 56.6484C222.734 56.6484 223.16 56.582 223.504 56.4492C223.848 56.3086 224.109 56.1211 224.289 55.8867C224.469 55.6445 224.559 55.3711 224.559 55.0664ZM236.945 55.957V49.9102C236.945 49.457 236.863 49.0664 236.699 48.7383C236.535 48.4102 236.285 48.1562 235.949 47.9766C235.621 47.7969 235.207 47.707 234.707 47.707C234.246 47.707 233.848 47.7852 233.512 47.9414C233.176 48.0977 232.914 48.3086 232.727 48.5742C232.539 48.8398 232.445 49.1406 232.445 49.4766H229.633C229.633 48.9766 229.754 48.4922 229.996 48.0234C230.238 47.5547 230.59 47.1367 231.051 46.7695C231.512 46.4023 232.062 46.1133 232.703 45.9023C233.344 45.6914 234.062 45.5859 234.859 45.5859C235.812 45.5859 236.656 45.7461 237.391 46.0664C238.133 46.3867 238.715 46.8711 239.137 47.5195C239.566 48.1602 239.781 48.9648 239.781 49.9336V55.5703C239.781 56.1484 239.82 56.668 239.898 57.1289C239.984 57.582 240.105 57.9766 240.262 58.3125V58.5H237.367C237.234 58.1953 237.129 57.8086 237.051 57.3398C236.98 56.8633 236.945 56.4023 236.945 55.957ZM237.355 50.7891L237.379 52.5352H235.352C234.828 52.5352 234.367 52.5859 233.969 52.6875C233.57 52.7812 233.238 52.9219 232.973 53.1094C232.707 53.2969 232.508 53.5234 232.375 53.7891C232.242 54.0547 232.176 54.3555 232.176 54.6914C232.176 55.0273 232.254 55.3359 232.41 55.6172C232.566 55.8906 232.793 56.1055 233.09 56.2617C233.395 56.418 233.762 56.4961 234.191 56.4961C234.77 56.4961 235.273 56.3789 235.703 56.1445C236.141 55.9023 236.484 55.6094 236.734 55.2656C236.984 54.9141 237.117 54.582 237.133 54.2695L238.047 55.5234C237.953 55.8438 237.793 56.1875 237.566 56.5547C237.34 56.9219 237.043 57.2734 236.676 57.6094C236.316 57.9375 235.883 58.207 235.375 58.418C234.875 58.6289 234.297 58.7344 233.641 58.7344C232.812 58.7344 232.074 58.5703 231.426 58.2422C230.777 57.9062 230.27 57.457 229.902 56.8945C229.535 56.3242 229.352 55.6797 229.352 54.9609C229.352 54.2891 229.477 53.6953 229.727 53.1797C229.984 52.6562 230.359 52.2188 230.852 51.8672C231.352 51.5156 231.961 51.25 232.68 51.0703C233.398 50.8828 234.219 50.7891 235.141 50.7891H237.355ZM249.883 55.957V49.9102C249.883 49.457 249.801 49.0664 249.637 48.7383C249.473 48.4102 249.223 48.1562 248.887 47.9766C248.559 47.7969 248.145 47.707 247.645 47.707C247.184 47.707 246.785 47.7852 246.449 47.9414C246.113 48.0977 245.852 48.3086 245.664 48.5742C245.477 48.8398 245.383 49.1406 245.383 49.4766H242.57C242.57 48.9766 242.691 48.4922 242.934 48.0234C243.176 47.5547 243.527 47.1367 243.988 46.7695C244.449 46.4023 245 46.1133 245.641 45.9023C246.281 45.6914 247 45.5859 247.797 45.5859C248.75 45.5859 249.594 45.7461 250.328 46.0664C251.07 46.3867 251.652 46.8711 252.074 47.5195C252.504 48.1602 252.719 48.9648 252.719 49.9336V55.5703C252.719 56.1484 252.758 56.668 252.836 57.1289C252.922 57.582 253.043 57.9766 253.199 58.3125V58.5H250.305C250.172 58.1953 250.066 57.8086 249.988 57.3398C249.918 56.8633 249.883 56.4023 249.883 55.957ZM250.293 50.7891L250.316 52.5352H248.289C247.766 52.5352 247.305 52.5859 246.906 52.6875C246.508 52.7812 246.176 52.9219 245.91 53.1094C245.645 53.2969 245.445 53.5234 245.312 53.7891C245.18 54.0547 245.113 54.3555 245.113 54.6914C245.113 55.0273 245.191 55.3359 245.348 55.6172C245.504 55.8906 245.73 56.1055 246.027 56.2617C246.332 56.418 246.699 56.4961 247.129 56.4961C247.707 56.4961 248.211 56.3789 248.641 56.1445C249.078 55.9023 249.422 55.6094 249.672 55.2656C249.922 54.9141 250.055 54.582 250.07 54.2695L250.984 55.5234C250.891 55.8438 250.73 56.1875 250.504 56.5547C250.277 56.9219 249.98 57.2734 249.613 57.6094C249.254 57.9375 248.82 58.207 248.312 58.418C247.812 58.6289 247.234 58.7344 246.578 58.7344C245.75 58.7344 245.012 58.5703 244.363 58.2422C243.715 57.9062 243.207 57.457 242.84 56.8945C242.473 56.3242 242.289 55.6797 242.289 54.9609C242.289 54.2891 242.414 53.6953 242.664 53.1797C242.922 52.6562 243.297 52.2188 243.789 51.8672C244.289 51.5156 244.898 51.25 245.617 51.0703C246.336 50.8828 247.156 50.7891 248.078 50.7891H250.293ZM263.406 55.875V40.5H266.242V58.5H263.676L263.406 55.875ZM255.156 52.3008V52.0547C255.156 51.0938 255.27 50.2188 255.496 49.4297C255.723 48.6328 256.051 47.9492 256.48 47.3789C256.91 46.8008 257.434 46.3594 258.051 46.0547C258.668 45.7422 259.363 45.5859 260.137 45.5859C260.902 45.5859 261.574 45.7344 262.152 46.0312C262.73 46.3281 263.223 46.7539 263.629 47.3086C264.035 47.8555 264.359 48.5117 264.602 49.2773C264.844 50.0352 265.016 50.8789 265.117 51.8086V52.5938C265.016 53.5 264.844 54.3281 264.602 55.0781C264.359 55.8281 264.035 56.4766 263.629 57.0234C263.223 57.5703 262.727 57.9922 262.141 58.2891C261.562 58.5859 260.887 58.7344 260.113 58.7344C259.348 58.7344 258.656 58.5742 258.039 58.2539C257.43 57.9336 256.91 57.4844 256.48 56.9062C256.051 56.3281 255.723 55.6484 255.496 54.8672C255.27 54.0781 255.156 53.2227 255.156 52.3008ZM257.98 52.0547V52.3008C257.98 52.8789 258.031 53.418 258.133 53.918C258.242 54.418 258.41 54.8594 258.637 55.2422C258.863 55.6172 259.156 55.9141 259.516 56.1328C259.883 56.3438 260.32 56.4492 260.828 56.4492C261.469 56.4492 261.996 56.3086 262.41 56.0273C262.824 55.7461 263.148 55.3672 263.383 54.8906C263.625 54.4062 263.789 53.8672 263.875 53.2734V51.1523C263.828 50.6914 263.73 50.2617 263.582 49.8633C263.441 49.4648 263.25 49.1172 263.008 48.8203C262.766 48.5156 262.465 48.2812 262.105 48.1172C261.754 47.9453 261.336 47.8594 260.852 47.8594C260.336 47.8594 259.898 47.9688 259.539 48.1875C259.18 48.4062 258.883 48.707 258.648 49.0898C258.422 49.4727 258.254 49.918 258.145 50.4258C258.035 50.9336 257.98 51.4766 257.98 52.0547ZM282.32 55.957V49.9102C282.32 49.457 282.238 49.0664 282.074 48.7383C281.91 48.4102 281.66 48.1562 281.324 47.9766C280.996 47.7969 280.582 47.707 280.082 47.707C279.621 47.707 279.223 47.7852 278.887 47.9414C278.551 48.0977 278.289 48.3086 278.102 48.5742C277.914 48.8398 277.82 49.1406 277.82 49.4766H275.008C275.008 48.9766 275.129 48.4922 275.371 48.0234C275.613 47.5547 275.965 47.1367 276.426 46.7695C276.887 46.4023 277.438 46.1133 278.078 45.9023C278.719 45.6914 279.438 45.5859 280.234 45.5859C281.188 45.5859 282.031 45.7461 282.766 46.0664C283.508 46.3867 284.09 46.8711 284.512 47.5195C284.941 48.1602 285.156 48.9648 285.156 49.9336V55.5703C285.156 56.1484 285.195 56.668 285.273 57.1289C285.359 57.582 285.48 57.9766 285.637 58.3125V58.5H282.742C282.609 58.1953 282.504 57.8086 282.426 57.3398C282.355 56.8633 282.32 56.4023 282.32 55.957ZM282.73 50.7891L282.754 52.5352H280.727C280.203 52.5352 279.742 52.5859 279.344 52.6875C278.945 52.7812 278.613 52.9219 278.348 53.1094C278.082 53.2969 277.883 53.5234 277.75 53.7891C277.617 54.0547 277.551 54.3555 277.551 54.6914C277.551 55.0273 277.629 55.3359 277.785 55.6172C277.941 55.8906 278.168 56.1055 278.465 56.2617C278.77 56.418 279.137 56.4961 279.566 56.4961C280.145 56.4961 280.648 56.3789 281.078 56.1445C281.516 55.9023 281.859 55.6094 282.109 55.2656C282.359 54.9141 282.492 54.582 282.508 54.2695L283.422 55.5234C283.328 55.8438 283.168 56.1875 282.941 56.5547C282.715 56.9219 282.418 57.2734 282.051 57.6094C281.691 57.9375 281.258 58.207 280.75 58.418C280.25 58.6289 279.672 58.7344 279.016 58.7344C278.188 58.7344 277.449 58.5703 276.801 58.2422C276.152 57.9062 275.645 57.457 275.277 56.8945C274.91 56.3242 274.727 55.6797 274.727 54.9609C274.727 54.2891 274.852 53.6953 275.102 53.1797C275.359 52.6562 275.734 52.2188 276.227 51.8672C276.727 51.5156 277.336 51.25 278.055 51.0703C278.773 50.8828 279.594 50.7891 280.516 50.7891H282.73ZM291.133 40.5V58.5H288.297V40.5H291.133ZM301.375 55.957V49.9102C301.375 49.457 301.293 49.0664 301.129 48.7383C300.965 48.4102 300.715 48.1562 300.379 47.9766C300.051 47.7969 299.637 47.707 299.137 47.707C298.676 47.707 298.277 47.7852 297.941 47.9414C297.605 48.0977 297.344 48.3086 297.156 48.5742C296.969 48.8398 296.875 49.1406 296.875 49.4766H294.062C294.062 48.9766 294.184 48.4922 294.426 48.0234C294.668 47.5547 295.02 47.1367 295.48 46.7695C295.941 46.4023 296.492 46.1133 297.133 45.9023C297.773 45.6914 298.492 45.5859 299.289 45.5859C300.242 45.5859 301.086 45.7461 301.82 46.0664C302.562 46.3867 303.145 46.8711 303.566 47.5195C303.996 48.1602 304.211 48.9648 304.211 49.9336V55.5703C304.211 56.1484 304.25 56.668 304.328 57.1289C304.414 57.582 304.535 57.9766 304.691 58.3125V58.5H301.797C301.664 58.1953 301.559 57.8086 301.48 57.3398C301.41 56.8633 301.375 56.4023 301.375 55.957ZM301.785 50.7891L301.809 52.5352H299.781C299.258 52.5352 298.797 52.5859 298.398 52.6875C298 52.7812 297.668 52.9219 297.402 53.1094C297.137 53.2969 296.938 53.5234 296.805 53.7891C296.672 54.0547 296.605 54.3555 296.605 54.6914C296.605 55.0273 296.684 55.3359 296.84 55.6172C296.996 55.8906 297.223 56.1055 297.52 56.2617C297.824 56.418 298.191 56.4961 298.621 56.4961C299.199 56.4961 299.703 56.3789 300.133 56.1445C300.57 55.9023 300.914 55.6094 301.164 55.2656C301.414 54.9141 301.547 54.582 301.562 54.2695L302.477 55.5234C302.383 55.8438 302.223 56.1875 301.996 56.5547C301.77 56.9219 301.473 57.2734 301.105 57.6094C300.746 57.9375 300.312 58.207 299.805 58.418C299.305 58.6289 298.727 58.7344 298.07 58.7344C297.242 58.7344 296.504 58.5703 295.855 58.2422C295.207 57.9062 294.699 57.457 294.332 56.8945C293.965 56.3242 293.781 55.6797 293.781 54.9609C293.781 54.2891 293.906 53.6953 294.156 53.1797C294.414 52.6562 294.789 52.2188 295.281 51.8672C295.781 51.5156 296.391 51.25 297.109 51.0703C297.828 50.8828 298.648 50.7891 299.57 50.7891H301.785ZM312.977 45.8203V47.8828H305.828V45.8203H312.977ZM307.891 42.7148H310.715V54.9961C310.715 55.3867 310.77 55.6875 310.879 55.8984C310.996 56.1016 311.156 56.2383 311.359 56.3086C311.562 56.3789 311.801 56.4141 312.074 56.4141C312.27 56.4141 312.457 56.4023 312.637 56.3789C312.816 56.3555 312.961 56.332 313.07 56.3086L313.082 58.4648C312.848 58.5352 312.574 58.5977 312.262 58.6523C311.957 58.707 311.605 58.7344 311.207 58.7344C310.559 58.7344 309.984 58.6211 309.484 58.3945C308.984 58.1602 308.594 57.7812 308.312 57.2578C308.031 56.7344 307.891 56.0391 307.891 55.1719V42.7148ZM318.18 45.8203V58.5H315.344V45.8203H318.18ZM315.156 42.4922C315.156 42.0625 315.297 41.707 315.578 41.4258C315.867 41.1367 316.266 40.9922 316.773 40.9922C317.273 40.9922 317.668 41.1367 317.957 41.4258C318.246 41.707 318.391 42.0625 318.391 42.4922C318.391 42.9141 318.246 43.2656 317.957 43.5469C317.668 43.8281 317.273 43.9688 316.773 43.9688C316.266 43.9688 315.867 43.8281 315.578 43.5469C315.297 43.2656 315.156 42.9141 315.156 42.4922ZM84.4492 74.5273V84.5H81.625V71.8203H84.2852L84.4492 74.5273ZM83.9453 77.6914L83.0312 77.6797C83.0391 76.7812 83.1641 75.957 83.4062 75.207C83.6562 74.457 84 73.8125 84.4375 73.2734C84.8828 72.7344 85.4141 72.3203 86.0312 72.0312C86.6484 71.7344 87.3359 71.5859 88.0938 71.5859C88.7031 71.5859 89.2539 71.6719 89.7461 71.8438C90.2461 72.0078 90.6719 72.2773 91.0234 72.6523C91.3828 73.0273 91.6562 73.5156 91.8438 74.1172C92.0312 74.7109 92.125 75.4414 92.125 76.3086V84.5H89.2891V76.2969C89.2891 75.6875 89.1992 75.207 89.0195 74.8555C88.8477 74.4961 88.5938 74.2422 88.2578 74.0938C87.9297 73.9375 87.5195 73.8594 87.0273 73.8594C86.543 73.8594 86.1094 73.9609 85.7266 74.1641C85.3438 74.3672 85.0195 74.6445 84.7539 74.9961C84.4961 75.3477 84.2969 75.7539 84.1562 76.2148C84.0156 76.6758 83.9453 77.168 83.9453 77.6914ZM100.598 84.7344C99.6602 84.7344 98.8125 84.582 98.0547 84.2773C97.3047 83.9648 96.6641 83.5312 96.1328 82.9766C95.6094 82.4219 95.207 81.7695 94.9258 81.0195C94.6445 80.2695 94.5039 79.4609 94.5039 78.5938V78.125C94.5039 77.1328 94.6484 76.2344 94.9375 75.4297C95.2266 74.625 95.6289 73.9375 96.1445 73.3672C96.6602 72.7891 97.2695 72.3477 97.9727 72.043C98.6758 71.7383 99.4375 71.5859 100.258 71.5859C101.164 71.5859 101.957 71.7383 102.637 72.043C103.316 72.3477 103.879 72.7773 104.324 73.332C104.777 73.8789 105.113 74.5312 105.332 75.2891C105.559 76.0469 105.672 76.8828 105.672 77.7969V79.0039H95.875V76.9766H102.883V76.7539C102.867 76.2461 102.766 75.7695 102.578 75.3242C102.398 74.8789 102.121 74.5195 101.746 74.2461C101.371 73.9727 100.871 73.8359 100.246 73.8359C99.7773 73.8359 99.3594 73.9375 98.9922 74.1406C98.6328 74.3359 98.332 74.6211 98.0898 74.9961C97.8477 75.3711 97.6602 75.8242 97.5273 76.3555C97.4023 76.8789 97.3398 77.4688 97.3398 78.125V78.5938C97.3398 79.1484 97.4141 79.6641 97.5625 80.1406C97.7188 80.6094 97.9453 81.0195 98.2422 81.3711C98.5391 81.7227 98.8984 82 99.3203 82.2031C99.7422 82.3984 100.223 82.4961 100.762 82.4961C101.441 82.4961 102.047 82.3594 102.578 82.0859C103.109 81.8125 103.57 81.4258 103.961 80.9258L105.449 82.3672C105.176 82.7656 104.82 83.1484 104.383 83.5156C103.945 83.875 103.41 84.168 102.777 84.3945C102.152 84.6211 101.426 84.7344 100.598 84.7344ZM110.676 74.5273V84.5H107.852V71.8203H110.512L110.676 74.5273ZM110.172 77.6914L109.258 77.6797C109.266 76.7812 109.391 75.957 109.633 75.207C109.883 74.457 110.227 73.8125 110.664 73.2734C111.109 72.7344 111.641 72.3203 112.258 72.0312C112.875 71.7344 113.562 71.5859 114.32 71.5859C114.93 71.5859 115.48 71.6719 115.973 71.8438C116.473 72.0078 116.898 72.2773 117.25 72.6523C117.609 73.0273 117.883 73.5156 118.07 74.1172C118.258 74.7109 118.352 75.4414 118.352 76.3086V84.5H115.516V76.2969C115.516 75.6875 115.426 75.207 115.246 74.8555C115.074 74.4961 114.82 74.2422 114.484 74.0938C114.156 73.9375 113.746 73.8594 113.254 73.8594C112.77 73.8594 112.336 73.9609 111.953 74.1641C111.57 74.3672 111.246 74.6445 110.98 74.9961C110.723 75.3477 110.523 75.7539 110.383 76.2148C110.242 76.6758 110.172 77.168 110.172 77.6914ZM128.969 81.875V66.5H131.805V84.5H129.238L128.969 81.875ZM120.719 78.3008V78.0547C120.719 77.0938 120.832 76.2188 121.059 75.4297C121.285 74.6328 121.613 73.9492 122.043 73.3789C122.473 72.8008 122.996 72.3594 123.613 72.0547C124.23 71.7422 124.926 71.5859 125.699 71.5859C126.465 71.5859 127.137 71.7344 127.715 72.0312C128.293 72.3281 128.785 72.7539 129.191 73.3086C129.598 73.8555 129.922 74.5117 130.164 75.2773C130.406 76.0352 130.578 76.8789 130.68 77.8086V78.5938C130.578 79.5 130.406 80.3281 130.164 81.0781C129.922 81.8281 129.598 82.4766 129.191 83.0234C128.785 83.5703 128.289 83.9922 127.703 84.2891C127.125 84.5859 126.449 84.7344 125.676 84.7344C124.91 84.7344 124.219 84.5742 123.602 84.2539C122.992 83.9336 122.473 83.4844 122.043 82.9062C121.613 82.3281 121.285 81.6484 121.059 80.8672C120.832 80.0781 120.719 79.2227 120.719 78.3008ZM123.543 78.0547V78.3008C123.543 78.8789 123.594 79.418 123.695 79.918C123.805 80.418 123.973 80.8594 124.199 81.2422C124.426 81.6172 124.719 81.9141 125.078 82.1328C125.445 82.3438 125.883 82.4492 126.391 82.4492C127.031 82.4492 127.559 82.3086 127.973 82.0273C128.387 81.7461 128.711 81.3672 128.945 80.8906C129.188 80.4062 129.352 79.8672 129.438 79.2734V77.1523C129.391 76.6914 129.293 76.2617 129.145 75.8633C129.004 75.4648 128.812 75.1172 128.57 74.8203C128.328 74.5156 128.027 74.2812 127.668 74.1172C127.316 73.9453 126.898 73.8594 126.414 73.8594C125.898 73.8594 125.461 73.9688 125.102 74.1875C124.742 74.4062 124.445 74.707 124.211 75.0898C123.984 75.4727 123.816 75.918 123.707 76.4258C123.598 76.9336 123.543 77.4766 123.543 78.0547ZM140.348 84.7344C139.41 84.7344 138.562 84.582 137.805 84.2773C137.055 83.9648 136.414 83.5312 135.883 82.9766C135.359 82.4219 134.957 81.7695 134.676 81.0195C134.395 80.2695 134.254 79.4609 134.254 78.5938V78.125C134.254 77.1328 134.398 76.2344 134.688 75.4297C134.977 74.625 135.379 73.9375 135.895 73.3672C136.41 72.7891 137.02 72.3477 137.723 72.043C138.426 71.7383 139.188 71.5859 140.008 71.5859C140.914 71.5859 141.707 71.7383 142.387 72.043C143.066 72.3477 143.629 72.7773 144.074 73.332C144.527 73.8789 144.863 74.5312 145.082 75.2891C145.309 76.0469 145.422 76.8828 145.422 77.7969V79.0039H135.625V76.9766H142.633V76.7539C142.617 76.2461 142.516 75.7695 142.328 75.3242C142.148 74.8789 141.871 74.5195 141.496 74.2461C141.121 73.9727 140.621 73.8359 139.996 73.8359C139.527 73.8359 139.109 73.9375 138.742 74.1406C138.383 74.3359 138.082 74.6211 137.84 74.9961C137.598 75.3711 137.41 75.8242 137.277 76.3555C137.152 76.8789 137.09 77.4688 137.09 78.125V78.5938C137.09 79.1484 137.164 79.6641 137.312 80.1406C137.469 80.6094 137.695 81.0195 137.992 81.3711C138.289 81.7227 138.648 82 139.07 82.2031C139.492 82.3984 139.973 82.4961 140.512 82.4961C141.191 82.4961 141.797 82.3594 142.328 82.0859C142.859 81.8125 143.32 81.4258 143.711 80.9258L145.199 82.3672C144.926 82.7656 144.57 83.1484 144.133 83.5156C143.695 83.875 143.16 84.168 142.527 84.3945C141.902 84.6211 141.176 84.7344 140.348 84.7344ZM154.738 81.0664C154.738 80.7852 154.668 80.5312 154.527 80.3047C154.387 80.0703 154.117 79.8594 153.719 79.6719C153.328 79.4844 152.75 79.3125 151.984 79.1562C151.312 79.0078 150.695 78.832 150.133 78.6289C149.578 78.418 149.102 78.1641 148.703 77.8672C148.305 77.5703 147.996 77.2188 147.777 76.8125C147.559 76.4062 147.449 75.9375 147.449 75.4062C147.449 74.8906 147.562 74.4023 147.789 73.9414C148.016 73.4805 148.34 73.0742 148.762 72.7227C149.184 72.3711 149.695 72.0938 150.297 71.8906C150.906 71.6875 151.586 71.5859 152.336 71.5859C153.398 71.5859 154.309 71.7656 155.066 72.125C155.832 72.4766 156.418 72.957 156.824 73.5664C157.23 74.168 157.434 74.8477 157.434 75.6055H154.609C154.609 75.2695 154.523 74.957 154.352 74.668C154.188 74.3711 153.938 74.1328 153.602 73.9531C153.266 73.7656 152.844 73.6719 152.336 73.6719C151.852 73.6719 151.449 73.75 151.129 73.9062C150.816 74.0547 150.582 74.25 150.426 74.4922C150.277 74.7344 150.203 75 150.203 75.2891C150.203 75.5 150.242 75.6914 150.32 75.8633C150.406 76.0273 150.547 76.1797 150.742 76.3203C150.938 76.4531 151.203 76.5781 151.539 76.6953C151.883 76.8125 152.312 76.9258 152.828 77.0352C153.797 77.2383 154.629 77.5 155.324 77.8203C156.027 78.1328 156.566 78.5391 156.941 79.0391C157.316 79.5312 157.504 80.1562 157.504 80.9141C157.504 81.4766 157.383 81.9922 157.141 82.4609C156.906 82.9219 156.562 83.3242 156.109 83.668C155.656 84.0039 155.113 84.2656 154.48 84.4531C153.855 84.6406 153.152 84.7344 152.371 84.7344C151.223 84.7344 150.25 84.5312 149.453 84.125C148.656 83.7109 148.051 83.1836 147.637 82.543C147.23 81.8945 147.027 81.2227 147.027 80.5273H149.758C149.789 81.0508 149.934 81.4688 150.191 81.7812C150.457 82.0859 150.785 82.3086 151.176 82.4492C151.574 82.582 151.984 82.6484 152.406 82.6484C152.914 82.6484 153.34 82.582 153.684 82.4492C154.027 82.3086 154.289 82.1211 154.469 81.8867C154.648 81.6445 154.738 81.3711 154.738 81.0664ZM165.789 71.8203V73.8828H158.641V71.8203H165.789ZM160.703 68.7148H163.527V80.9961C163.527 81.3867 163.582 81.6875 163.691 81.8984C163.809 82.1016 163.969 82.2383 164.172 82.3086C164.375 82.3789 164.613 82.4141 164.887 82.4141C165.082 82.4141 165.27 82.4023 165.449 82.3789C165.629 82.3555 165.773 82.332 165.883 82.3086L165.895 84.4648C165.66 84.5352 165.387 84.5977 165.074 84.6523C164.77 84.707 164.418 84.7344 164.02 84.7344C163.371 84.7344 162.797 84.6211 162.297 84.3945C161.797 84.1602 161.406 83.7812 161.125 83.2578C160.844 82.7344 160.703 82.0391 160.703 81.1719V68.7148ZM181.574 81.5117V71.8203H184.41V84.5H181.738L181.574 81.5117ZM181.973 78.875L182.922 78.8516C182.922 79.7031 182.828 80.4883 182.641 81.207C182.453 81.918 182.164 82.5391 181.773 83.0703C181.383 83.5938 180.883 84.0039 180.273 84.3008C179.664 84.5898 178.934 84.7344 178.082 84.7344C177.465 84.7344 176.898 84.6445 176.383 84.4648C175.867 84.2852 175.422 84.0078 175.047 83.6328C174.68 83.2578 174.395 82.7695 174.191 82.168C173.988 81.5664 173.887 80.8477 173.887 80.0117V71.8203H176.711V80.0352C176.711 80.4961 176.766 80.8828 176.875 81.1953C176.984 81.5 177.133 81.7461 177.32 81.9336C177.508 82.1211 177.727 82.2539 177.977 82.332C178.227 82.4102 178.492 82.4492 178.773 82.4492C179.578 82.4492 180.211 82.293 180.672 81.9805C181.141 81.6602 181.473 81.2305 181.668 80.6914C181.871 80.1523 181.973 79.5469 181.973 78.875ZM175.012 68.457C175.012 68.0742 175.145 67.7539 175.41 67.4961C175.676 67.2305 176.027 67.0977 176.465 67.0977C176.91 67.0977 177.266 67.2305 177.531 67.4961C177.797 67.7539 177.93 68.0742 177.93 68.457C177.93 68.832 177.797 69.1523 177.531 69.418C177.266 69.6758 176.91 69.8047 176.465 69.8047C176.027 69.8047 175.676 69.6758 175.41 69.418C175.145 69.1523 175.012 68.832 175.012 68.457ZM180.438 68.4688C180.438 68.0859 180.57 67.7656 180.836 67.5078C181.102 67.2422 181.457 67.1094 181.902 67.1094C182.34 67.1094 182.691 67.2422 182.957 67.5078C183.23 67.7656 183.367 68.0859 183.367 68.4688C183.367 68.8438 183.23 69.1641 182.957 69.4297C182.691 69.6875 182.34 69.8164 181.902 69.8164C181.457 69.8164 181.102 69.6875 180.836 69.4297C180.57 69.1641 180.438 68.8438 180.438 68.4688ZM190.328 66.5V84.5H187.492V66.5H190.328ZM199.012 84.7344C198.074 84.7344 197.227 84.582 196.469 84.2773C195.719 83.9648 195.078 83.5312 194.547 82.9766C194.023 82.4219 193.621 81.7695 193.34 81.0195C193.059 80.2695 192.918 79.4609 192.918 78.5938V78.125C192.918 77.1328 193.062 76.2344 193.352 75.4297C193.641 74.625 194.043 73.9375 194.559 73.3672C195.074 72.7891 195.684 72.3477 196.387 72.043C197.09 71.7383 197.852 71.5859 198.672 71.5859C199.578 71.5859 200.371 71.7383 201.051 72.043C201.73 72.3477 202.293 72.7773 202.738 73.332C203.191 73.8789 203.527 74.5312 203.746 75.2891C203.973 76.0469 204.086 76.8828 204.086 77.7969V79.0039H194.289V76.9766H201.297V76.7539C201.281 76.2461 201.18 75.7695 200.992 75.3242C200.812 74.8789 200.535 74.5195 200.16 74.2461C199.785 73.9727 199.285 73.8359 198.66 73.8359C198.191 73.8359 197.773 73.9375 197.406 74.1406C197.047 74.3359 196.746 74.6211 196.504 74.9961C196.262 75.3711 196.074 75.8242 195.941 76.3555C195.816 76.8789 195.754 77.4688 195.754 78.125V78.5938C195.754 79.1484 195.828 79.6641 195.977 80.1406C196.133 80.6094 196.359 81.0195 196.656 81.3711C196.953 81.7227 197.312 82 197.734 82.2031C198.156 82.3984 198.637 82.4961 199.176 82.4961C199.855 82.4961 200.461 82.3594 200.992 82.0859C201.523 81.8125 201.984 81.4258 202.375 80.9258L203.863 82.3672C203.59 82.7656 203.234 83.1484 202.797 83.5156C202.359 83.875 201.824 84.168 201.191 84.3945C200.566 84.6211 199.84 84.7344 199.012 84.7344ZM210.25 82.2617L213.355 71.8203H216.285L211.879 84.5H210.051L210.25 82.2617ZM207.871 71.8203L211.035 82.3086L211.188 84.5H209.359L204.93 71.8203H207.871ZM224.992 81.957V75.9102C224.992 75.457 224.91 75.0664 224.746 74.7383C224.582 74.4102 224.332 74.1562 223.996 73.9766C223.668 73.7969 223.254 73.707 222.754 73.707C222.293 73.707 221.895 73.7852 221.559 73.9414C221.223 74.0977 220.961 74.3086 220.773 74.5742C220.586 74.8398 220.492 75.1406 220.492 75.4766H217.68C217.68 74.9766 217.801 74.4922 218.043 74.0234C218.285 73.5547 218.637 73.1367 219.098 72.7695C219.559 72.4023 220.109 72.1133 220.75 71.9023C221.391 71.6914 222.109 71.5859 222.906 71.5859C223.859 71.5859 224.703 71.7461 225.438 72.0664C226.18 72.3867 226.762 72.8711 227.184 73.5195C227.613 74.1602 227.828 74.9648 227.828 75.9336V81.5703C227.828 82.1484 227.867 82.668 227.945 83.1289C228.031 83.582 228.152 83.9766 228.309 84.3125V84.5H225.414C225.281 84.1953 225.176 83.8086 225.098 83.3398C225.027 82.8633 224.992 82.4023 224.992 81.957ZM225.402 76.7891L225.426 78.5352H223.398C222.875 78.5352 222.414 78.5859 222.016 78.6875C221.617 78.7812 221.285 78.9219 221.02 79.1094C220.754 79.2969 220.555 79.5234 220.422 79.7891C220.289 80.0547 220.223 80.3555 220.223 80.6914C220.223 81.0273 220.301 81.3359 220.457 81.6172C220.613 81.8906 220.84 82.1055 221.137 82.2617C221.441 82.418 221.809 82.4961 222.238 82.4961C222.816 82.4961 223.32 82.3789 223.75 82.1445C224.188 81.9023 224.531 81.6094 224.781 81.2656C225.031 80.9141 225.164 80.582 225.18 80.2695L226.094 81.5234C226 81.8438 225.84 82.1875 225.613 82.5547C225.387 82.9219 225.09 83.2734 224.723 83.6094C224.363 83.9375 223.93 84.207 223.422 84.418C222.922 84.6289 222.344 84.7344 221.688 84.7344C220.859 84.7344 220.121 84.5703 219.473 84.2422C218.824 83.9062 218.316 83.457 217.949 82.8945C217.582 82.3242 217.398 81.6797 217.398 80.9609C217.398 80.2891 217.523 79.6953 217.773 79.1797C218.031 78.6562 218.406 78.2188 218.898 77.8672C219.398 77.5156 220.008 77.25 220.727 77.0703C221.445 76.8828 222.266 76.7891 223.188 76.7891H225.402ZM237.93 81.957V75.9102C237.93 75.457 237.848 75.0664 237.684 74.7383C237.52 74.4102 237.27 74.1562 236.934 73.9766C236.605 73.7969 236.191 73.707 235.691 73.707C235.23 73.707 234.832 73.7852 234.496 73.9414C234.16 74.0977 233.898 74.3086 233.711 74.5742C233.523 74.8398 233.43 75.1406 233.43 75.4766H230.617C230.617 74.9766 230.738 74.4922 230.98 74.0234C231.223 73.5547 231.574 73.1367 232.035 72.7695C232.496 72.4023 233.047 72.1133 233.688 71.9023C234.328 71.6914 235.047 71.5859 235.844 71.5859C236.797 71.5859 237.641 71.7461 238.375 72.0664C239.117 72.3867 239.699 72.8711 240.121 73.5195C240.551 74.1602 240.766 74.9648 240.766 75.9336V81.5703C240.766 82.1484 240.805 82.668 240.883 83.1289C240.969 83.582 241.09 83.9766 241.246 84.3125V84.5H238.352C238.219 84.1953 238.113 83.8086 238.035 83.3398C237.965 82.8633 237.93 82.4023 237.93 81.957ZM238.34 76.7891L238.363 78.5352H236.336C235.812 78.5352 235.352 78.5859 234.953 78.6875C234.555 78.7812 234.223 78.9219 233.957 79.1094C233.691 79.2969 233.492 79.5234 233.359 79.7891C233.227 80.0547 233.16 80.3555 233.16 80.6914C233.16 81.0273 233.238 81.3359 233.395 81.6172C233.551 81.8906 233.777 82.1055 234.074 82.2617C234.379 82.418 234.746 82.4961 235.176 82.4961C235.754 82.4961 236.258 82.3789 236.688 82.1445C237.125 81.9023 237.469 81.6094 237.719 81.2656C237.969 80.9141 238.102 80.582 238.117 80.2695L239.031 81.5234C238.938 81.8438 238.777 82.1875 238.551 82.5547C238.324 82.9219 238.027 83.2734 237.66 83.6094C237.301 83.9375 236.867 84.207 236.359 84.418C235.859 84.6289 235.281 84.7344 234.625 84.7344C233.797 84.7344 233.059 84.5703 232.41 84.2422C231.762 83.9062 231.254 83.457 230.887 82.8945C230.52 82.3242 230.336 81.6797 230.336 80.9609C230.336 80.2891 230.461 79.6953 230.711 79.1797C230.969 78.6562 231.344 78.2188 231.836 77.8672C232.336 77.5156 232.945 77.25 233.664 77.0703C234.383 76.8828 235.203 76.7891 236.125 76.7891H238.34ZM249.531 71.8203V73.8828H242.383V71.8203H249.531ZM244.445 68.7148H247.27V80.9961C247.27 81.3867 247.324 81.6875 247.434 81.8984C247.551 82.1016 247.711 82.2383 247.914 82.3086C248.117 82.3789 248.355 82.4141 248.629 82.4141C248.824 82.4141 249.012 82.4023 249.191 82.3789C249.371 82.3555 249.516 82.332 249.625 82.3086L249.637 84.4648C249.402 84.5352 249.129 84.5977 248.816 84.6523C248.512 84.707 248.16 84.7344 247.762 84.7344C247.113 84.7344 246.539 84.6211 246.039 84.3945C245.539 84.1602 245.148 83.7812 244.867 83.2578C244.586 82.7344 244.445 82.0391 244.445 81.1719V68.7148ZM257.301 84.7344C256.363 84.7344 255.516 84.582 254.758 84.2773C254.008 83.9648 253.367 83.5312 252.836 82.9766C252.312 82.4219 251.91 81.7695 251.629 81.0195C251.348 80.2695 251.207 79.4609 251.207 78.5938V78.125C251.207 77.1328 251.352 76.2344 251.641 75.4297C251.93 74.625 252.332 73.9375 252.848 73.3672C253.363 72.7891 253.973 72.3477 254.676 72.043C255.379 71.7383 256.141 71.5859 256.961 71.5859C257.867 71.5859 258.66 71.7383 259.34 72.043C260.02 72.3477 260.582 72.7773 261.027 73.332C261.48 73.8789 261.816 74.5312 262.035 75.2891C262.262 76.0469 262.375 76.8828 262.375 77.7969V79.0039H252.578V76.9766H259.586V76.7539C259.57 76.2461 259.469 75.7695 259.281 75.3242C259.102 74.8789 258.824 74.5195 258.449 74.2461C258.074 73.9727 257.574 73.8359 256.949 73.8359C256.48 73.8359 256.062 73.9375 255.695 74.1406C255.336 74.3359 255.035 74.6211 254.793 74.9961C254.551 75.3711 254.363 75.8242 254.23 76.3555C254.105 76.8789 254.043 77.4688 254.043 78.125V78.5938C254.043 79.1484 254.117 79.6641 254.266 80.1406C254.422 80.6094 254.648 81.0195 254.945 81.3711C255.242 81.7227 255.602 82 256.023 82.2031C256.445 82.3984 256.926 82.4961 257.465 82.4961C258.145 82.4961 258.75 82.3594 259.281 82.0859C259.812 81.8125 260.273 81.4258 260.664 80.9258L262.152 82.3672C261.879 82.7656 261.523 83.1484 261.086 83.5156C260.648 83.875 260.113 84.168 259.48 84.3945C258.855 84.6211 258.129 84.7344 257.301 84.7344ZM264.695 83.0938C264.695 82.6562 264.844 82.2891 265.141 81.9922C265.438 81.6875 265.84 81.5352 266.348 81.5352C266.863 81.5352 267.266 81.6875 267.555 81.9922C267.852 82.2891 268 82.6562 268 83.0938C268 83.5312 267.852 83.8984 267.555 84.1953C267.266 84.4922 266.863 84.6406 266.348 84.6406C265.84 84.6406 265.438 84.4922 265.141 84.1953C264.844 83.8984 264.695 83.5312 264.695 83.0938Z" fill="#461102"/>
</svg>
