<svg width="350" height="100" viewBox="0 0 350 100" fill="none" xmlns="http://www.w3.org/2000/svg">
<path d="M52.8325 39.116C52.8325 40.4413 52.5525 41.6173 51.9925 42.644C51.4325 43.6707 50.5925 44.4827 49.4725 45.08C48.3712 45.6587 47.0272 45.948 45.4405 45.948C43.0512 45.948 41.2218 45.332 39.9525 44.1C38.7018 42.8493 38.0765 41.188 38.0765 39.116V26.124H42.1925V38.92C42.1925 40.2267 42.4538 41.2067 42.9765 41.86C43.4992 42.4947 44.3205 42.812 45.4405 42.812C46.5605 42.812 47.3818 42.4947 47.9045 41.86C48.4458 41.2067 48.7165 40.2267 48.7165 38.92V26.124H52.8325V39.116ZM68.7448 45.5H65.3008L65.1048 43.512C64.5821 44.3333 63.9475 44.9493 63.2008 45.36C62.4541 45.752 61.5861 45.948 60.5968 45.948C59.2528 45.948 58.2261 45.5467 57.5168 44.744C56.8075 43.9227 56.4528 42.784 56.4528 41.328V30.66H60.4288V40.824C60.4288 41.608 60.5595 42.168 60.8208 42.504C61.0821 42.8213 61.4928 42.98 62.0528 42.98C63.1168 42.98 64.0221 42.336 64.7688 41.048V30.66H68.7448V45.5ZM85.2149 37.744C85.2149 37.9307 85.1869 38.444 85.1309 39.284H75.8629C75.9936 40.628 76.3576 41.58 76.9549 42.14C77.5523 42.7 78.3643 42.98 79.3909 42.98C80.0256 42.98 80.6229 42.8773 81.1829 42.672C81.7429 42.4667 82.3496 42.14 83.0029 41.692L84.6549 43.932C82.9936 45.276 81.1176 45.948 79.0269 45.948C76.6936 45.948 74.9016 45.248 73.6509 43.848C72.4003 42.448 71.7749 40.5533 71.7749 38.164C71.7749 36.652 72.0363 35.2987 72.5589 34.104C73.1003 32.8907 73.8749 31.9387 74.8829 31.248C75.9096 30.5573 77.1229 30.212 78.5229 30.212C80.6323 30.212 82.2749 30.8747 83.4509 32.2C84.6269 33.5253 85.2149 35.3733 85.2149 37.744ZM81.2669 36.624C81.2669 34.16 80.3803 32.928 78.6069 32.928C77.7856 32.928 77.1416 33.236 76.6749 33.852C76.2269 34.4493 75.9563 35.4293 75.8629 36.792H81.2669V36.624ZM91.7888 45.948C90.5755 45.948 89.6328 45.6027 88.9608 44.912C88.2888 44.2027 87.9528 43.204 87.9528 41.916V24.752L91.9288 24.304V41.804C91.9288 42.4573 92.1995 42.784 92.7408 42.784C93.0395 42.784 93.3008 42.728 93.5248 42.616L94.3368 45.444C93.5715 45.78 92.7221 45.948 91.7888 45.948ZM114.554 41.384C114.554 41.9627 114.638 42.392 114.806 42.672C114.974 42.9333 115.254 43.1293 115.646 43.26L114.806 45.892C113.929 45.8173 113.21 45.612 112.65 45.276C112.109 44.94 111.689 44.4173 111.39 43.708C110.419 45.2013 108.935 45.948 106.938 45.948C105.463 45.948 104.287 45.528 103.41 44.688C102.551 43.8293 102.122 42.7187 102.122 41.356C102.122 39.732 102.71 38.4907 103.886 37.632C105.062 36.7733 106.751 36.344 108.954 36.344H110.662V35.616C110.662 34.7013 110.457 34.0667 110.046 33.712C109.635 33.3573 108.954 33.18 108.002 33.18C106.957 33.18 105.65 33.4413 104.082 33.964L103.186 31.304C105.034 30.576 106.863 30.212 108.674 30.212C110.69 30.212 112.174 30.6507 113.126 31.528C114.078 32.3867 114.554 33.6747 114.554 35.392V41.384ZM108.03 43.092C109.15 43.092 110.027 42.5413 110.662 41.44V38.612H109.346C107.199 38.612 106.126 39.4147 106.126 41.02C106.126 41.6733 106.285 42.1867 106.602 42.56C106.938 42.9147 107.414 43.092 108.03 43.092ZM129.73 41.384C129.73 41.9627 129.814 42.392 129.982 42.672C130.15 42.9333 130.43 43.1293 130.822 43.26L129.982 45.892C129.104 45.8173 128.386 45.612 127.826 45.276C127.284 44.94 126.864 44.4173 126.566 43.708C125.595 45.2013 124.111 45.948 122.114 45.948C120.639 45.948 119.463 45.528 118.586 44.688C117.727 43.8293 117.298 42.7187 117.298 41.356C117.298 39.732 117.886 38.4907 119.062 37.632C120.238 36.7733 121.927 36.344 124.13 36.344H125.838V35.616C125.838 34.7013 125.632 34.0667 125.222 33.712C124.811 33.3573 124.13 33.18 123.178 33.18C122.132 33.18 120.826 33.4413 119.258 33.964L118.362 31.304C120.21 30.576 122.039 30.212 123.85 30.212C125.866 30.212 127.35 30.6507 128.302 31.528C129.254 32.3867 129.73 33.6747 129.73 35.392V41.384ZM123.206 43.092C124.326 43.092 125.203 42.5413 125.838 41.44V38.612H124.522C122.375 38.612 121.302 39.4147 121.302 41.02C121.302 41.6733 121.46 42.1867 121.778 42.56C122.114 42.9147 122.59 43.092 123.206 43.092ZM138.357 30.212C140.447 30.212 142.239 30.8093 143.733 32.004L142.221 34.272C140.97 33.488 139.738 33.096 138.525 33.096C137.871 33.096 137.367 33.2173 137.013 33.46C136.658 33.7027 136.481 34.0293 136.481 34.44C136.481 34.7387 136.555 34.9907 136.705 35.196C136.873 35.4013 137.171 35.5973 137.601 35.784C138.049 35.9707 138.711 36.1947 139.589 36.456C141.157 36.8853 142.323 37.464 143.089 38.192C143.854 38.9013 144.237 39.8813 144.237 41.132C144.237 42.1213 143.947 42.98 143.369 43.708C142.809 44.436 142.043 44.996 141.073 45.388C140.102 45.7613 139.019 45.948 137.825 45.948C136.574 45.948 135.435 45.7613 134.409 45.388C133.382 44.996 132.505 44.464 131.777 43.792L133.737 41.608C134.987 42.5787 136.313 43.064 137.713 43.064C138.459 43.064 139.047 42.924 139.477 42.644C139.925 42.3453 140.149 41.944 140.149 41.44C140.149 41.048 140.065 40.74 139.897 40.516C139.729 40.292 139.421 40.0867 138.973 39.9C138.525 39.6947 137.825 39.4613 136.873 39.2C135.379 38.7893 134.269 38.2107 133.541 37.464C132.831 36.6987 132.477 35.756 132.477 34.636C132.477 33.796 132.719 33.04 133.205 32.368C133.69 31.696 134.371 31.1733 135.249 30.8C136.145 30.408 137.181 30.212 138.357 30.212ZM155.703 44.8C155.162 45.1733 154.546 45.4533 153.855 45.64C153.183 45.8453 152.511 45.948 151.839 45.948C150.309 45.9293 149.151 45.4907 148.367 44.632C147.583 43.7733 147.191 42.5133 147.191 40.852V33.46H144.979V30.66H147.191V27.412L151.167 26.936V30.66H154.583L154.191 33.46H151.167V40.768C151.167 41.4773 151.289 41.9907 151.531 42.308C151.774 42.6253 152.147 42.784 152.651 42.784C153.155 42.784 153.715 42.616 154.331 42.28L155.703 44.8ZM168.503 41.384C168.503 41.9627 168.587 42.392 168.755 42.672C168.923 42.9333 169.203 43.1293 169.595 43.26L168.755 45.892C167.878 45.8173 167.159 45.612 166.599 45.276C166.058 44.94 165.638 44.4173 165.339 43.708C164.368 45.2013 162.884 45.948 160.887 45.948C159.412 45.948 158.236 45.528 157.359 44.688C156.5 43.8293 156.071 42.7187 156.071 41.356C156.071 39.732 156.659 38.4907 157.835 37.632C159.011 36.7733 160.7 36.344 162.903 36.344H164.611V35.616C164.611 34.7013 164.406 34.0667 163.995 33.712C163.584 33.3573 162.903 33.18 161.951 33.18C160.906 33.18 159.599 33.4413 158.031 33.964L157.135 31.304C158.983 30.576 160.812 30.212 162.623 30.212C164.639 30.212 166.123 30.6507 167.075 31.528C168.027 32.3867 168.503 33.6747 168.503 35.392V41.384ZM161.979 43.092C163.099 43.092 163.976 42.5413 164.611 41.44V38.612H163.295C161.148 38.612 160.075 39.4147 160.075 41.02C160.075 41.6733 160.234 42.1867 160.551 42.56C160.887 42.9147 161.363 43.092 161.979 43.092ZM175.898 45.948C174.685 45.948 173.742 45.6027 173.07 44.912C172.398 44.2027 172.062 43.204 172.062 41.916V24.752L176.038 24.304V41.804C176.038 42.4573 176.309 42.784 176.85 42.784C177.149 42.784 177.41 42.728 177.634 42.616L178.446 45.444C177.681 45.78 176.832 45.948 175.898 45.948ZM196.199 44.8C195.658 45.1733 195.042 45.4533 194.351 45.64C193.679 45.8453 193.007 45.948 192.335 45.948C190.805 45.9293 189.647 45.4907 188.863 44.632C188.079 43.7733 187.687 42.5133 187.687 40.852V33.46H185.475V30.66H187.687V27.412L191.663 26.936V30.66H195.079L194.687 33.46H191.663V40.768C191.663 41.4773 191.785 41.9907 192.027 42.308C192.27 42.6253 192.643 42.784 193.147 42.784C193.651 42.784 194.211 42.616 194.827 42.28L196.199 44.8ZM208.999 41.384C208.999 41.9627 209.083 42.392 209.251 42.672C209.419 42.9333 209.699 43.1293 210.091 43.26L209.251 45.892C208.374 45.8173 207.655 45.612 207.095 45.276C206.554 44.94 206.134 44.4173 205.835 43.708C204.865 45.2013 203.381 45.948 201.383 45.948C199.909 45.948 198.733 45.528 197.855 44.688C196.997 43.8293 196.567 42.7187 196.567 41.356C196.567 39.732 197.155 38.4907 198.331 37.632C199.507 36.7733 201.197 36.344 203.399 36.344H205.107V35.616C205.107 34.7013 204.902 34.0667 204.491 33.712C204.081 33.3573 203.399 33.18 202.447 33.18C201.402 33.18 200.095 33.4413 198.527 33.964L197.631 31.304C199.479 30.576 201.309 30.212 203.119 30.212C205.135 30.212 206.619 30.6507 207.571 31.528C208.523 32.3867 208.999 33.6747 208.999 35.392V41.384ZM202.475 43.092C203.595 43.092 204.473 42.5413 205.107 41.44V38.612H203.791C201.645 38.612 200.571 39.4147 200.571 41.02C200.571 41.6733 200.73 42.1867 201.047 42.56C201.383 42.9147 201.859 43.092 202.475 43.092ZM221.26 30.212C222.548 30.212 223.556 30.6133 224.284 31.416C225.03 32.2 225.404 33.292 225.404 34.692V45.5H221.428V35.364C221.428 34.5613 221.288 34.0013 221.008 33.684C220.728 33.348 220.326 33.18 219.804 33.18C218.758 33.18 217.806 33.8613 216.948 35.224V45.5H212.972V24.752L216.948 24.332V32.34C217.545 31.6307 218.189 31.0987 218.88 30.744C219.589 30.3893 220.382 30.212 221.26 30.212ZM240.527 41.384C240.527 41.9627 240.611 42.392 240.779 42.672C240.947 42.9333 241.227 43.1293 241.619 43.26L240.779 45.892C239.901 45.8173 239.183 45.612 238.623 45.276C238.081 44.94 237.661 44.4173 237.363 43.708C236.392 45.2013 234.908 45.948 232.911 45.948C231.436 45.948 230.26 45.528 229.383 44.688C228.524 43.8293 228.095 42.7187 228.095 41.356C228.095 39.732 228.683 38.4907 229.859 37.632C231.035 36.7733 232.724 36.344 234.927 36.344H236.635V35.616C236.635 34.7013 236.429 34.0667 236.019 33.712C235.608 33.3573 234.927 33.18 233.975 33.18C232.929 33.18 231.623 33.4413 230.055 33.964L229.159 31.304C231.007 30.576 232.836 30.212 234.647 30.212C236.663 30.212 238.147 30.6507 239.099 31.528C240.051 32.3867 240.527 33.6747 240.527 35.392V41.384ZM234.003 43.092C235.123 43.092 236 42.5413 236.635 41.44V38.612H235.319C233.172 38.612 232.099 39.4147 232.099 41.02C232.099 41.6733 232.257 42.1867 232.575 42.56C232.911 42.9147 233.387 43.092 234.003 43.092ZM252.787 30.212C254.094 30.212 255.111 30.6133 255.839 31.416C256.567 32.2 256.931 33.292 256.931 34.692V45.5H252.955V35.364C252.955 34.5613 252.815 34.0013 252.535 33.684C252.274 33.348 251.872 33.18 251.331 33.18C250.771 33.18 250.258 33.3573 249.791 33.712C249.343 34.048 248.904 34.5613 248.475 35.252V45.5H244.499V30.66H247.943L248.251 32.536C248.867 31.7707 249.539 31.192 250.267 30.8C251.014 30.408 251.854 30.212 252.787 30.212ZM273.794 30.212C276.015 30.212 277.751 30.912 279.002 32.312C280.253 33.6933 280.878 35.616 280.878 38.08C280.878 39.648 280.589 41.0293 280.01 42.224C279.45 43.4 278.629 44.3147 277.546 44.968C276.482 45.6213 275.222 45.948 273.766 45.948C271.545 45.948 269.799 45.2573 268.53 43.876C267.279 42.476 266.654 40.544 266.654 38.08C266.654 36.512 266.934 35.14 267.494 33.964C268.073 32.7693 268.894 31.8453 269.958 31.192C271.041 30.5387 272.319 30.212 273.794 30.212ZM273.794 33.18C272.786 33.18 272.03 33.5813 271.526 34.384C271.041 35.168 270.798 36.4 270.798 38.08C270.798 39.76 271.041 41.0013 271.526 41.804C272.03 42.588 272.777 42.98 273.766 42.98C274.755 42.98 275.493 42.588 275.978 41.804C276.482 41.0013 276.734 39.76 276.734 38.08C276.734 36.4 276.491 35.168 276.006 34.384C275.521 33.5813 274.783 33.18 273.794 33.18ZM287.597 45.948C286.384 45.948 285.441 45.6027 284.769 44.912C284.097 44.2027 283.761 43.204 283.761 41.916V24.752L287.737 24.304V41.804C287.737 42.4573 288.008 42.784 288.549 42.784C288.848 42.784 289.109 42.728 289.333 42.616L290.145 45.444C289.38 45.78 288.531 45.948 287.597 45.948ZM295.883 45.948C294.669 45.948 293.727 45.6027 293.055 44.912C292.383 44.2027 292.047 43.204 292.047 41.916V24.752L296.023 24.304V41.804C296.023 42.4573 296.293 42.784 296.835 42.784C297.133 42.784 297.395 42.728 297.619 42.616L298.431 45.444C297.665 45.78 296.816 45.948 295.883 45.948ZM311.675 41.384C311.675 41.9627 311.759 42.392 311.927 42.672C312.095 42.9333 312.375 43.1293 312.767 43.26L311.927 45.892C311.05 45.8173 310.331 45.612 309.771 45.276C309.23 44.94 308.81 44.4173 308.511 43.708C307.54 45.2013 306.056 45.948 304.059 45.948C302.584 45.948 301.408 45.528 300.531 44.688C299.672 43.8293 299.243 42.7187 299.243 41.356C299.243 39.732 299.831 38.4907 301.007 37.632C302.183 36.7733 303.872 36.344 306.075 36.344H307.783V35.616C307.783 34.7013 307.578 34.0667 307.167 33.712C306.756 33.3573 306.075 33.18 305.123 33.18C304.078 33.18 302.771 33.4413 301.203 33.964L300.307 31.304C302.155 30.576 303.984 30.212 305.795 30.212C307.811 30.212 309.295 30.6507 310.247 31.528C311.199 32.3867 311.675 33.6747 311.675 35.392V41.384ZM305.151 43.092C306.271 43.092 307.148 42.5413 307.783 41.44V38.612H306.467C304.32 38.612 303.247 39.4147 303.247 41.02C303.247 41.6733 303.406 42.1867 303.723 42.56C304.059 42.9147 304.535 43.092 305.151 43.092ZM62.893 58.66V73.5H58.917V58.66H62.893ZM60.877 51.016C61.5864 51.016 62.165 51.24 62.613 51.688C63.0797 52.1173 63.313 52.668 63.313 53.34C63.313 54.012 63.0797 54.572 62.613 55.02C62.165 55.4493 61.5864 55.664 60.877 55.664C60.1677 55.664 59.589 55.4493 59.141 55.02C58.693 54.572 58.469 54.012 58.469 53.34C58.469 52.668 58.693 52.1173 59.141 51.688C59.589 51.24 60.1677 51.016 60.877 51.016ZM80.0914 59.472C79.1207 59.8453 77.6927 60.032 75.8074 60.032C76.7407 60.4427 77.4314 60.956 77.8794 61.572C78.3274 62.1693 78.5514 62.9253 78.5514 63.84C78.5514 64.792 78.2994 65.6507 77.7954 66.416C77.31 67.1627 76.6007 67.7507 75.6674 68.18C74.7527 68.6093 73.6794 68.824 72.4474 68.824C71.794 68.824 71.2154 68.7587 70.7114 68.628C70.338 68.8707 70.1514 69.1973 70.1514 69.608C70.1514 69.9067 70.2634 70.1493 70.4874 70.336C70.73 70.504 71.1874 70.588 71.8594 70.588H74.1274C75.2287 70.588 76.19 70.7747 77.0114 71.148C77.8514 71.5027 78.4954 72.0067 78.9434 72.66C79.41 73.2947 79.6434 74.0227 79.6434 74.844C79.6434 76.356 78.99 77.532 77.6834 78.372C76.3954 79.2307 74.5287 79.66 72.0834 79.66C70.3287 79.66 68.938 79.4733 67.9114 79.1C66.9034 78.7453 66.194 78.2227 65.7834 77.532C65.3727 76.8413 65.1674 75.9733 65.1674 74.928H68.7234C68.7234 75.4133 68.8167 75.796 69.0034 76.076C69.19 76.3747 69.526 76.5893 70.0114 76.72C70.5154 76.8693 71.234 76.944 72.1674 76.944C73.4554 76.944 74.3514 76.7853 74.8554 76.468C75.378 76.1507 75.6394 75.7027 75.6394 75.124C75.6394 74.6013 75.4434 74.2 75.0514 73.92C74.6594 73.64 74.0807 73.5 73.3154 73.5H71.1314C69.6567 73.5 68.5554 73.2293 67.8274 72.688C67.0994 72.128 66.7354 71.428 66.7354 70.588C66.7354 70.0653 66.8847 69.5613 67.1834 69.076C67.5007 68.572 67.93 68.152 68.4714 67.816C67.5567 67.312 66.8847 66.724 66.4554 66.052C66.0447 65.3613 65.8394 64.54 65.8394 63.588C65.8394 62.5053 66.1007 61.5627 66.6234 60.76C67.1647 59.9387 67.9114 59.3133 68.8634 58.884C69.834 58.436 70.9354 58.212 72.1674 58.212C73.698 58.2493 74.958 58.1187 75.9474 57.82C76.9367 57.5213 77.9914 57.0547 79.1114 56.42L80.0914 59.472ZM72.2514 60.872C71.5047 60.872 70.9074 61.1147 70.4594 61.6C70.03 62.0667 69.8154 62.7107 69.8154 63.532C69.8154 64.372 70.03 65.0347 70.4594 65.52C70.9074 66.0053 71.514 66.248 72.2794 66.248C73.082 66.248 73.6887 66.0147 74.0994 65.548C74.51 65.0813 74.7154 64.3907 74.7154 63.476C74.7154 61.74 73.894 60.872 72.2514 60.872ZM92.7609 69.384C92.7609 69.9627 92.8449 70.392 93.0129 70.672C93.1809 70.9333 93.4609 71.1293 93.8529 71.26L93.0129 73.892C92.1356 73.8173 91.4169 73.612 90.8569 73.276C90.3156 72.94 89.8956 72.4173 89.5969 71.708C88.6263 73.2013 87.1423 73.948 85.1449 73.948C83.6703 73.948 82.4943 73.528 81.6169 72.688C80.7583 71.8293 80.3289 70.7187 80.3289 69.356C80.3289 67.732 80.9169 66.4907 82.0929 65.632C83.2689 64.7733 84.9583 64.344 87.1609 64.344H88.8689V63.616C88.8689 62.7013 88.6636 62.0667 88.2529 61.712C87.8423 61.3573 87.1609 61.18 86.2089 61.18C85.1636 61.18 83.8569 61.4413 82.2889 61.964L81.3929 59.304C83.2409 58.576 85.0703 58.212 86.8809 58.212C88.8969 58.212 90.3809 58.6507 91.3329 59.528C92.2849 60.3867 92.7609 61.6747 92.7609 63.392V69.384ZM86.2369 71.092C87.3569 71.092 88.2343 70.5413 88.8689 69.44V66.612H87.5529C85.4063 66.612 84.3329 67.4147 84.3329 69.02C84.3329 69.6733 84.4916 70.1867 84.8089 70.56C85.1449 70.9147 85.6209 71.092 86.2369 71.092ZM100.156 73.948C98.9427 73.948 98 73.6027 97.328 72.912C96.656 72.2027 96.32 71.204 96.32 69.916V52.752L100.296 52.304V69.804C100.296 70.4573 100.567 70.784 101.108 70.784C101.407 70.784 101.668 70.728 101.892 70.616L102.704 73.444C101.939 73.78 101.089 73.948 100.156 73.948ZM123.733 73.5H120.289L120.093 71.512C119.57 72.3333 118.936 72.9493 118.189 73.36C117.442 73.752 116.574 73.948 115.585 73.948C114.241 73.948 113.214 73.5467 112.505 72.744C111.796 71.9227 111.441 70.784 111.441 69.328V58.66H115.417V68.824C115.417 69.608 115.548 70.168 115.809 70.504C116.07 70.8213 116.481 70.98 117.041 70.98C118.105 70.98 119.01 70.336 119.757 69.048V58.66H123.733V73.5ZM114.409 51.324C115.006 51.324 115.501 51.5293 115.893 51.94C116.304 52.332 116.509 52.8173 116.509 53.396C116.509 53.9747 116.304 54.4693 115.893 54.88C115.501 55.272 115.006 55.468 114.409 55.468C113.83 55.468 113.336 55.272 112.925 54.88C112.514 54.4693 112.309 53.9747 112.309 53.396C112.309 52.8173 112.514 52.332 112.925 51.94C113.336 51.5293 113.83 51.324 114.409 51.324ZM120.737 51.324C121.334 51.324 121.838 51.5293 122.249 51.94C122.66 52.332 122.865 52.8173 122.865 53.396C122.865 53.9747 122.66 54.4693 122.249 54.88C121.838 55.272 121.334 55.468 120.737 55.468C120.158 55.468 119.664 55.272 119.253 54.88C118.861 54.4693 118.665 53.9747 118.665 53.396C118.665 52.8173 118.861 52.332 119.253 51.94C119.664 51.5293 120.158 51.324 120.737 51.324ZM135.331 58.24C135.779 58.24 136.274 58.3147 136.815 58.464L136.143 62.3C135.621 62.1693 135.182 62.104 134.827 62.104C133.95 62.104 133.269 62.412 132.783 63.028C132.298 63.644 131.915 64.5773 131.635 65.828V73.5H127.659V58.66H131.103L131.467 61.544C131.822 60.4987 132.335 59.6867 133.007 59.108C133.698 58.5293 134.473 58.24 135.331 58.24ZM142.764 58.66V73.5H138.788V58.66H142.764ZM140.748 51.016C141.457 51.016 142.036 51.24 142.484 51.688C142.951 52.1173 143.184 52.668 143.184 53.34C143.184 54.012 142.951 54.572 142.484 55.02C142.036 55.4493 141.457 55.664 140.748 55.664C140.039 55.664 139.46 55.4493 139.012 55.02C138.564 54.572 138.34 54.012 138.34 53.34C138.34 52.668 138.564 52.1173 139.012 51.688C139.46 51.24 140.039 51.016 140.748 51.016ZM155.566 72.8C155.025 73.1733 154.409 73.4533 153.718 73.64C153.046 73.8453 152.374 73.948 151.702 73.948C150.172 73.9293 149.014 73.4907 148.23 72.632C147.446 71.7733 147.054 70.5133 147.054 68.852V61.46H144.842V58.66H147.054V55.412L151.03 54.936V58.66H154.446L154.054 61.46H151.03V68.768C151.03 69.4773 151.152 69.9907 151.394 70.308C151.637 70.6253 152.01 70.784 152.514 70.784C153.018 70.784 153.578 70.616 154.194 70.28L155.566 72.8ZM169.479 73.5H166.035L165.839 71.512C165.317 72.3333 164.682 72.9493 163.935 73.36C163.189 73.752 162.321 73.948 161.331 73.948C159.987 73.948 158.961 73.5467 158.251 72.744C157.542 71.9227 157.187 70.784 157.187 69.328V58.66H161.163V68.824C161.163 69.608 161.294 70.168 161.555 70.504C161.817 70.8213 162.227 70.98 162.787 70.98C163.851 70.98 164.757 70.336 165.503 69.048V58.66H169.479V73.5ZM178.333 58.212C180.424 58.212 182.216 58.8093 183.709 60.004L182.197 62.272C180.947 61.488 179.715 61.096 178.501 61.096C177.848 61.096 177.344 61.2173 176.989 61.46C176.635 61.7027 176.457 62.0293 176.457 62.44C176.457 62.7387 176.532 62.9907 176.681 63.196C176.849 63.4013 177.148 63.5973 177.577 63.784C178.025 63.9707 178.688 64.1947 179.565 64.456C181.133 64.8853 182.3 65.464 183.065 66.192C183.831 66.9013 184.213 67.8813 184.213 69.132C184.213 70.1213 183.924 70.98 183.345 71.708C182.785 72.436 182.02 72.996 181.049 73.388C180.079 73.7613 178.996 73.948 177.801 73.948C176.551 73.948 175.412 73.7613 174.385 73.388C173.359 72.996 172.481 72.464 171.753 71.792L173.713 69.608C174.964 70.5787 176.289 71.064 177.689 71.064C178.436 71.064 179.024 70.924 179.453 70.644C179.901 70.3453 180.125 69.944 180.125 69.44C180.125 69.048 180.041 68.74 179.873 68.516C179.705 68.292 179.397 68.0867 178.949 67.9C178.501 67.6947 177.801 67.4613 176.849 67.2C175.356 66.7893 174.245 66.2107 173.517 65.464C172.808 64.6987 172.453 63.756 172.453 62.636C172.453 61.796 172.696 61.04 173.181 60.368C173.667 59.696 174.348 59.1733 175.225 58.8C176.121 58.408 177.157 58.212 178.333 58.212ZM199.348 65.744C199.348 65.9307 199.32 66.444 199.264 67.284H189.996C190.126 68.628 190.49 69.58 191.088 70.14C191.685 70.7 192.497 70.98 193.524 70.98C194.158 70.98 194.756 70.8773 195.316 70.672C195.876 70.4667 196.482 70.14 197.136 69.692L198.788 71.932C197.126 73.276 195.25 73.948 193.16 73.948C190.826 73.948 189.034 73.248 187.784 71.848C186.533 70.448 185.908 68.5533 185.908 66.164C185.908 64.652 186.169 63.2987 186.692 62.104C187.233 60.8907 188.008 59.9387 189.016 59.248C190.042 58.5573 191.256 58.212 192.656 58.212C194.765 58.212 196.408 58.8747 197.584 60.2C198.76 61.5253 199.348 63.3733 199.348 65.744ZM195.4 64.624C195.4 62.16 194.513 60.928 192.74 60.928C191.918 60.928 191.274 61.236 190.808 61.852C190.36 62.4493 190.089 63.4293 189.996 64.792H195.4V64.624ZM205.922 73.948C204.708 73.948 203.766 73.6027 203.094 72.912C202.422 72.2027 202.086 71.204 202.086 69.916V52.752L206.062 52.304V69.804C206.062 70.4573 206.332 70.784 206.874 70.784C207.172 70.784 207.434 70.728 207.658 70.616L208.47 73.444C207.704 73.78 206.855 73.948 205.922 73.948ZM221.323 52.304V73.5H217.347V52.752L221.323 52.304ZM230.339 58.66L225.607 65.184L230.759 73.5H226.251L221.463 65.38L226.223 58.66H230.339ZM238.438 58.212C240.66 58.212 242.396 58.912 243.646 60.312C244.897 61.6933 245.522 63.616 245.522 66.08C245.522 67.648 245.233 69.0293 244.654 70.224C244.094 71.4 243.273 72.3147 242.19 72.968C241.126 73.6213 239.866 73.948 238.41 73.948C236.189 73.948 234.444 73.2573 233.174 71.876C231.924 70.476 231.298 68.544 231.298 66.08C231.298 64.512 231.578 63.14 232.138 61.964C232.717 60.7693 233.538 59.8453 234.602 59.192C235.685 58.5387 236.964 58.212 238.438 58.212ZM238.438 61.18C237.43 61.18 236.674 61.5813 236.17 62.384C235.685 63.168 235.442 64.4 235.442 66.08C235.442 67.76 235.685 69.0013 236.17 69.804C236.674 70.588 237.421 70.98 238.41 70.98C239.4 70.98 240.137 70.588 240.622 69.804C241.126 69.0013 241.378 67.76 241.378 66.08C241.378 64.4 241.136 63.168 240.65 62.384C240.165 61.5813 239.428 61.18 238.438 61.18ZM256.834 58.212C258.122 58.212 259.13 58.6133 259.858 59.416C260.605 60.2 260.978 61.292 260.978 62.692V73.5H257.002V63.364C257.002 62.5613 256.862 62.0013 256.582 61.684C256.302 61.348 255.901 61.18 255.378 61.18C254.333 61.18 253.381 61.8613 252.522 63.224V73.5H248.546V52.752L252.522 52.332V60.34C253.119 59.6307 253.763 59.0987 254.454 58.744C255.163 58.3893 255.957 58.212 256.834 58.212ZM276.101 69.384C276.101 69.9627 276.185 70.392 276.353 70.672C276.521 70.9333 276.801 71.1293 277.193 71.26L276.353 73.892C275.475 73.8173 274.757 73.612 274.197 73.276C273.655 72.94 273.235 72.4173 272.937 71.708C271.966 73.2013 270.482 73.948 268.485 73.948C267.01 73.948 265.834 73.528 264.957 72.688C264.098 71.8293 263.669 70.7187 263.669 69.356C263.669 67.732 264.257 66.4907 265.433 65.632C266.609 64.7733 268.298 64.344 270.501 64.344H272.209V63.616C272.209 62.7013 272.003 62.0667 271.593 61.712C271.182 61.3573 270.501 61.18 269.549 61.18C268.503 61.18 267.197 61.4413 265.629 61.964L264.733 59.304C266.581 58.576 268.41 58.212 270.221 58.212C272.237 58.212 273.721 58.6507 274.673 59.528C275.625 60.3867 276.101 61.6747 276.101 63.392V69.384ZM269.577 71.092C270.697 71.092 271.574 70.5413 272.209 69.44V66.612H270.893C268.746 66.612 267.673 67.4147 267.673 69.02C267.673 69.6733 267.831 70.1867 268.149 70.56C268.485 70.9147 268.961 71.092 269.577 71.092ZM283.496 73.948C282.283 73.948 281.34 73.6027 280.668 72.912C279.996 72.2027 279.66 71.204 279.66 69.916V52.752L283.636 52.304V69.804C283.636 70.4573 283.907 70.784 284.448 70.784C284.747 70.784 285.008 70.728 285.232 70.616L286.044 73.444C285.279 73.78 284.429 73.948 283.496 73.948ZM289.648 69.16C290.32 69.16 290.89 69.3933 291.356 69.86C291.823 70.3267 292.056 70.8867 292.056 71.54C292.056 72.1933 291.823 72.7627 291.356 73.248C290.89 73.7147 290.32 73.948 289.648 73.948C288.995 73.948 288.435 73.7147 287.968 73.248C287.502 72.7627 287.268 72.1933 287.268 71.54C287.268 70.8867 287.502 70.3267 287.968 69.86C288.435 69.3933 288.995 69.16 289.648 69.16Z" fill="#E3000F"/>
</svg>
