<svg width="350" height="100" viewBox="0 0 350 100" fill="none" xmlns="http://www.w3.org/2000/svg">
<path d="M45.8325 39.116C45.8325 40.4413 45.5525 41.6173 44.9925 42.644C44.4325 43.6707 43.5925 44.4827 42.4725 45.08C41.3712 45.6587 40.0272 45.948 38.4405 45.948C36.0512 45.948 34.2218 45.332 32.9525 44.1C31.7018 42.8493 31.0765 41.188 31.0765 39.116V26.124H35.1925V38.92C35.1925 40.2267 35.4538 41.2067 35.9765 41.86C36.4992 42.4947 37.3205 42.812 38.4405 42.812C39.5605 42.812 40.3818 42.4947 40.9045 41.86C41.4458 41.2067 41.7165 40.2267 41.7165 38.92V26.124H45.8325V39.116ZM61.7448 45.5H58.3008L58.1048 43.512C57.5821 44.3333 56.9475 44.9493 56.2008 45.36C55.4541 45.752 54.5861 45.948 53.5968 45.948C52.2528 45.948 51.2261 45.5467 50.5168 44.744C49.8075 43.9227 49.4528 42.784 49.4528 41.328V30.66H53.4288V40.824C53.4288 41.608 53.5595 42.168 53.8208 42.504C54.0821 42.8213 54.4928 42.98 55.0528 42.98C56.1168 42.98 57.0221 42.336 57.7688 41.048V30.66H61.7448V45.5ZM78.2149 37.744C78.2149 37.9307 78.1869 38.444 78.1309 39.284H68.8629C68.9936 40.628 69.3576 41.58 69.9549 42.14C70.5523 42.7 71.3643 42.98 72.3909 42.98C73.0256 42.98 73.6229 42.8773 74.1829 42.672C74.7429 42.4667 75.3496 42.14 76.0029 41.692L77.6549 43.932C75.9936 45.276 74.1176 45.948 72.0269 45.948C69.6936 45.948 67.9016 45.248 66.6509 43.848C65.4003 42.448 64.7749 40.5533 64.7749 38.164C64.7749 36.652 65.0363 35.2987 65.5589 34.104C66.1003 32.8907 66.8749 31.9387 67.8829 31.248C68.9096 30.5573 70.1229 30.212 71.5229 30.212C73.6323 30.212 75.2749 30.8747 76.4509 32.2C77.6269 33.5253 78.2149 35.3733 78.2149 37.744ZM74.2669 36.624C74.2669 34.16 73.3803 32.928 71.6069 32.928C70.7856 32.928 70.1416 33.236 69.6749 33.852C69.2269 34.4493 68.9563 35.4293 68.8629 36.792H74.2669V36.624ZM84.7888 45.948C83.5755 45.948 82.6328 45.6027 81.9608 44.912C81.2888 44.2027 80.9528 43.204 80.9528 41.916V24.752L84.9288 24.304V41.804C84.9288 42.4573 85.1995 42.784 85.7408 42.784C86.0395 42.784 86.3008 42.728 86.5248 42.616L87.3368 45.444C86.5715 45.78 85.7221 45.948 84.7888 45.948ZM107.554 41.384C107.554 41.9627 107.638 42.392 107.806 42.672C107.974 42.9333 108.254 43.1293 108.646 43.26L107.806 45.892C106.929 45.8173 106.21 45.612 105.65 45.276C105.109 44.94 104.689 44.4173 104.39 43.708C103.419 45.2013 101.935 45.948 99.9379 45.948C98.4632 45.948 97.2872 45.528 96.4099 44.688C95.5512 43.8293 95.1219 42.7187 95.1219 41.356C95.1219 39.732 95.7099 38.4907 96.8859 37.632C98.0619 36.7733 99.7512 36.344 101.954 36.344H103.662V35.616C103.662 34.7013 103.457 34.0667 103.046 33.712C102.635 33.3573 101.954 33.18 101.002 33.18C99.9566 33.18 98.6499 33.4413 97.0819 33.964L96.1859 31.304C98.0339 30.576 99.8632 30.212 101.674 30.212C103.69 30.212 105.174 30.6507 106.126 31.528C107.078 32.3867 107.554 33.6747 107.554 35.392V41.384ZM101.03 43.092C102.15 43.092 103.027 42.5413 103.662 41.44V38.612H102.346C100.199 38.612 99.1259 39.4147 99.1259 41.02C99.1259 41.6733 99.2846 42.1867 99.6019 42.56C99.9379 42.9147 100.414 43.092 101.03 43.092ZM122.73 41.384C122.73 41.9627 122.814 42.392 122.982 42.672C123.15 42.9333 123.43 43.1293 123.822 43.26L122.982 45.892C122.104 45.8173 121.386 45.612 120.826 45.276C120.284 44.94 119.864 44.4173 119.566 43.708C118.595 45.2013 117.111 45.948 115.114 45.948C113.639 45.948 112.463 45.528 111.586 44.688C110.727 43.8293 110.298 42.7187 110.298 41.356C110.298 39.732 110.886 38.4907 112.062 37.632C113.238 36.7733 114.927 36.344 117.13 36.344H118.838V35.616C118.838 34.7013 118.632 34.0667 118.222 33.712C117.811 33.3573 117.13 33.18 116.178 33.18C115.132 33.18 113.826 33.4413 112.258 33.964L111.362 31.304C113.21 30.576 115.039 30.212 116.85 30.212C118.866 30.212 120.35 30.6507 121.302 31.528C122.254 32.3867 122.73 33.6747 122.73 35.392V41.384ZM116.206 43.092C117.326 43.092 118.203 42.5413 118.838 41.44V38.612H117.522C115.375 38.612 114.302 39.4147 114.302 41.02C114.302 41.6733 114.46 42.1867 114.778 42.56C115.114 42.9147 115.59 43.092 116.206 43.092ZM131.357 30.212C133.447 30.212 135.239 30.8093 136.733 32.004L135.221 34.272C133.97 33.488 132.738 33.096 131.525 33.096C130.871 33.096 130.367 33.2173 130.013 33.46C129.658 33.7027 129.481 34.0293 129.481 34.44C129.481 34.7387 129.555 34.9907 129.705 35.196C129.873 35.4013 130.171 35.5973 130.601 35.784C131.049 35.9707 131.711 36.1947 132.589 36.456C134.157 36.8853 135.323 37.464 136.089 38.192C136.854 38.9013 137.237 39.8813 137.237 41.132C137.237 42.1213 136.947 42.98 136.369 43.708C135.809 44.436 135.043 44.996 134.073 45.388C133.102 45.7613 132.019 45.948 130.825 45.948C129.574 45.948 128.435 45.7613 127.409 45.388C126.382 44.996 125.505 44.464 124.777 43.792L126.737 41.608C127.987 42.5787 129.313 43.064 130.713 43.064C131.459 43.064 132.047 42.924 132.477 42.644C132.925 42.3453 133.149 41.944 133.149 41.44C133.149 41.048 133.065 40.74 132.897 40.516C132.729 40.292 132.421 40.0867 131.973 39.9C131.525 39.6947 130.825 39.4613 129.873 39.2C128.379 38.7893 127.269 38.2107 126.541 37.464C125.831 36.6987 125.477 35.756 125.477 34.636C125.477 33.796 125.719 33.04 126.205 32.368C126.69 31.696 127.371 31.1733 128.249 30.8C129.145 30.408 130.181 30.212 131.357 30.212ZM148.703 44.8C148.162 45.1733 147.546 45.4533 146.855 45.64C146.183 45.8453 145.511 45.948 144.839 45.948C143.309 45.9293 142.151 45.4907 141.367 44.632C140.583 43.7733 140.191 42.5133 140.191 40.852V33.46H137.979V30.66H140.191V27.412L144.167 26.936V30.66H147.583L147.191 33.46H144.167V40.768C144.167 41.4773 144.289 41.9907 144.531 42.308C144.774 42.6253 145.147 42.784 145.651 42.784C146.155 42.784 146.715 42.616 147.331 42.28L148.703 44.8ZM161.503 41.384C161.503 41.9627 161.587 42.392 161.755 42.672C161.923 42.9333 162.203 43.1293 162.595 43.26L161.755 45.892C160.878 45.8173 160.159 45.612 159.599 45.276C159.058 44.94 158.638 44.4173 158.339 43.708C157.368 45.2013 155.884 45.948 153.887 45.948C152.412 45.948 151.236 45.528 150.359 44.688C149.5 43.8293 149.071 42.7187 149.071 41.356C149.071 39.732 149.659 38.4907 150.835 37.632C152.011 36.7733 153.7 36.344 155.903 36.344H157.611V35.616C157.611 34.7013 157.406 34.0667 156.995 33.712C156.584 33.3573 155.903 33.18 154.951 33.18C153.906 33.18 152.599 33.4413 151.031 33.964L150.135 31.304C151.983 30.576 153.812 30.212 155.623 30.212C157.639 30.212 159.123 30.6507 160.075 31.528C161.027 32.3867 161.503 33.6747 161.503 35.392V41.384ZM154.979 43.092C156.099 43.092 156.976 42.5413 157.611 41.44V38.612H156.295C154.148 38.612 153.075 39.4147 153.075 41.02C153.075 41.6733 153.234 42.1867 153.551 42.56C153.887 42.9147 154.363 43.092 154.979 43.092ZM168.898 45.948C167.685 45.948 166.742 45.6027 166.07 44.912C165.398 44.2027 165.062 43.204 165.062 41.916V24.752L169.038 24.304V41.804C169.038 42.4573 169.309 42.784 169.85 42.784C170.149 42.784 170.41 42.728 170.634 42.616L171.446 45.444C170.681 45.78 169.832 45.948 168.898 45.948ZM184.271 44.016C184.271 45.5093 184.038 46.732 183.571 47.684C183.123 48.6547 182.498 49.4293 181.695 50.008C180.893 50.6053 179.866 51.1467 178.615 51.632L177.299 48.748C178.027 48.412 178.597 48.076 179.007 47.74C179.418 47.4227 179.735 46.984 179.959 46.424C180.183 45.8827 180.295 45.164 180.295 44.268V30.66H184.271V44.016ZM182.255 23.016C182.965 23.016 183.543 23.24 183.991 23.688C184.458 24.1173 184.691 24.668 184.691 25.34C184.691 26.012 184.458 26.572 183.991 27.02C183.543 27.4493 182.965 27.664 182.255 27.664C181.546 27.664 180.967 27.4493 180.519 27.02C180.071 26.572 179.847 26.012 179.847 25.34C179.847 24.668 180.071 24.1173 180.519 23.688C180.967 23.24 181.546 23.016 182.255 23.016ZM199.538 41.384C199.538 41.9627 199.622 42.392 199.79 42.672C199.958 42.9333 200.238 43.1293 200.63 43.26L199.79 45.892C198.913 45.8173 198.194 45.612 197.634 45.276C197.093 44.94 196.673 44.4173 196.374 43.708C195.404 45.2013 193.92 45.948 191.922 45.948C190.448 45.948 189.272 45.528 188.394 44.688C187.536 43.8293 187.106 42.7187 187.106 41.356C187.106 39.732 187.694 38.4907 188.87 37.632C190.046 36.7733 191.736 36.344 193.938 36.344H195.646V35.616C195.646 34.7013 195.441 34.0667 195.03 33.712C194.62 33.3573 193.938 33.18 192.986 33.18C191.941 33.18 190.634 33.4413 189.066 33.964L188.17 31.304C190.018 30.576 191.848 30.212 193.658 30.212C195.674 30.212 197.158 30.6507 198.11 31.528C199.062 32.3867 199.538 33.6747 199.538 35.392V41.384ZM193.014 43.092C194.134 43.092 195.012 42.5413 195.646 41.44V38.612H194.33C192.184 38.612 191.11 39.4147 191.11 41.02C191.11 41.6733 191.269 42.1867 191.586 42.56C191.922 42.9147 192.398 43.092 193.014 43.092ZM190.578 23.324C191.176 23.324 191.67 23.5293 192.062 23.94C192.473 24.332 192.678 24.8173 192.678 25.396C192.678 25.9747 192.473 26.4693 192.062 26.88C191.67 27.272 191.176 27.468 190.578 27.468C190 27.468 189.505 27.272 189.094 26.88C188.684 26.4693 188.478 25.9747 188.478 25.396C188.478 24.8173 188.684 24.332 189.094 23.94C189.505 23.5293 190 23.324 190.578 23.324ZM196.906 23.324C197.504 23.324 198.008 23.5293 198.418 23.94C198.829 24.332 199.034 24.8173 199.034 25.396C199.034 25.9747 198.829 26.4693 198.418 26.88C198.008 27.272 197.504 27.468 196.906 27.468C196.328 27.468 195.833 27.272 195.422 26.88C195.03 26.4693 194.834 25.9747 194.834 25.396C194.834 24.8173 195.03 24.332 195.422 23.94C195.833 23.5293 196.328 23.324 196.906 23.324ZM211.183 30.24C211.631 30.24 212.125 30.3147 212.667 30.464L211.995 34.3C211.472 34.1693 211.033 34.104 210.679 34.104C209.801 34.104 209.12 34.412 208.635 35.028C208.149 35.644 207.767 36.5773 207.487 37.828V45.5H203.511V30.66H206.955L207.319 33.544C207.673 32.4987 208.187 31.6867 208.859 31.108C209.549 30.5293 210.324 30.24 211.183 30.24ZM227.556 31.472C226.586 31.8453 225.158 32.032 223.272 32.032C224.206 32.4427 224.896 32.956 225.344 33.572C225.792 34.1693 226.016 34.9253 226.016 35.84C226.016 36.792 225.764 37.6507 225.26 38.416C224.775 39.1627 224.066 39.7507 223.132 40.18C222.218 40.6093 221.144 40.824 219.912 40.824C219.259 40.824 218.68 40.7587 218.176 40.628C217.803 40.8707 217.616 41.1973 217.616 41.608C217.616 41.9067 217.728 42.1493 217.952 42.336C218.195 42.504 218.652 42.588 219.324 42.588H221.592C222.694 42.588 223.655 42.7747 224.476 43.148C225.316 43.5027 225.96 44.0067 226.408 44.66C226.875 45.2947 227.108 46.0227 227.108 46.844C227.108 48.356 226.455 49.532 225.148 50.372C223.86 51.2307 221.994 51.66 219.548 51.66C217.794 51.66 216.403 51.4733 215.376 51.1C214.368 50.7453 213.659 50.2227 213.248 49.532C212.838 48.8413 212.632 47.9733 212.632 46.928H216.188C216.188 47.4133 216.282 47.796 216.468 48.076C216.655 48.3747 216.991 48.5893 217.476 48.72C217.98 48.8693 218.699 48.944 219.632 48.944C220.92 48.944 221.816 48.7853 222.32 48.468C222.843 48.1507 223.104 47.7027 223.104 47.124C223.104 46.6013 222.908 46.2 222.516 45.92C222.124 45.64 221.546 45.5 220.78 45.5H218.596C217.122 45.5 216.02 45.2293 215.292 44.688C214.564 44.128 214.2 43.428 214.2 42.588C214.2 42.0653 214.35 41.5613 214.648 41.076C214.966 40.572 215.395 40.152 215.936 39.816C215.022 39.312 214.35 38.724 213.92 38.052C213.51 37.3613 213.304 36.54 213.304 35.588C213.304 34.5053 213.566 33.5627 214.088 32.76C214.63 31.9387 215.376 31.3133 216.328 30.884C217.299 30.436 218.4 30.212 219.632 30.212C221.163 30.2493 222.423 30.1187 223.412 29.82C224.402 29.5213 225.456 29.0547 226.576 28.42L227.556 31.472ZM219.716 32.872C218.97 32.872 218.372 33.1147 217.924 33.6C217.495 34.0667 217.28 34.7107 217.28 35.532C217.28 36.372 217.495 37.0347 217.924 37.52C218.372 38.0053 218.979 38.248 219.744 38.248C220.547 38.248 221.154 38.0147 221.564 37.548C221.975 37.0813 222.18 36.3907 222.18 35.476C222.18 33.74 221.359 32.872 219.716 32.872ZM233.491 30.66V45.5H229.515V30.66H233.491ZM231.475 23.016C232.184 23.016 232.763 23.24 233.211 23.688C233.677 24.1173 233.911 24.668 233.911 25.34C233.911 26.012 233.677 26.572 233.211 27.02C232.763 27.4493 232.184 27.664 231.475 27.664C230.765 27.664 230.187 27.4493 229.739 27.02C229.291 26.572 229.067 26.012 229.067 25.34C229.067 24.668 229.291 24.1173 229.739 23.688C230.187 23.24 230.765 23.016 231.475 23.016ZM245.705 30.212C247.012 30.212 248.029 30.6133 248.757 31.416C249.485 32.2 249.849 33.292 249.849 34.692V45.5H245.873V35.364C245.873 34.5613 245.733 34.0013 245.453 33.684C245.192 33.348 244.79 33.18 244.249 33.18C243.689 33.18 243.176 33.3573 242.709 33.712C242.261 34.048 241.822 34.5613 241.393 35.252V45.5H237.417V30.66H240.861L241.169 32.536C241.785 31.7707 242.457 31.192 243.185 30.8C243.932 30.408 244.772 30.212 245.705 30.212ZM264.444 24.304V45.5H260.468V24.752L264.444 24.304ZM273.46 30.66L268.728 37.184L273.88 45.5H269.372L264.584 37.38L269.344 30.66H273.46ZM281.559 30.212C283.781 30.212 285.517 30.912 286.767 32.312C288.018 33.6933 288.643 35.616 288.643 38.08C288.643 39.648 288.354 41.0293 287.775 42.224C287.215 43.4 286.394 44.3147 285.311 44.968C284.247 45.6213 282.987 45.948 281.531 45.948C279.31 45.948 277.565 45.2573 276.295 43.876C275.045 42.476 274.419 40.544 274.419 38.08C274.419 36.512 274.699 35.14 275.259 33.964C275.838 32.7693 276.659 31.8453 277.723 31.192C278.806 30.5387 280.085 30.212 281.559 30.212ZM281.559 33.18C280.551 33.18 279.795 33.5813 279.291 34.384C278.806 35.168 278.563 36.4 278.563 38.08C278.563 39.76 278.806 41.0013 279.291 41.804C279.795 42.588 280.542 42.98 281.531 42.98C282.521 42.98 283.258 42.588 283.743 41.804C284.247 41.0013 284.499 39.76 284.499 38.08C284.499 36.4 284.257 35.168 283.771 34.384C283.286 33.5813 282.549 33.18 281.559 33.18ZM283.155 27.58C282.763 27.58 282.418 27.5147 282.119 27.384C281.839 27.2533 281.503 27.0667 281.111 26.824C280.869 26.6373 280.654 26.5067 280.467 26.432C280.299 26.3387 280.122 26.292 279.935 26.292C279.637 26.292 279.375 26.3947 279.151 26.6C278.927 26.8053 278.694 27.1227 278.451 27.552L276.407 26.544C276.781 25.6293 277.266 24.8827 277.863 24.304C278.461 23.7253 279.133 23.436 279.879 23.436C280.309 23.436 280.673 23.5107 280.971 23.66C281.27 23.7907 281.606 23.9773 281.979 24.22C282.222 24.388 282.427 24.5187 282.595 24.612C282.763 24.6867 282.941 24.724 283.127 24.724C283.426 24.724 283.678 24.6307 283.883 24.444C284.107 24.2387 284.35 23.9213 284.611 23.492L286.655 24.5C286.282 25.452 285.797 26.208 285.199 26.768C284.602 27.3093 283.921 27.58 283.155 27.58ZM295.643 30.66V45.5H291.667V30.66H295.643ZM293.627 23.016C294.336 23.016 294.915 23.24 295.363 23.688C295.83 24.1173 296.063 24.668 296.063 25.34C296.063 26.012 295.83 26.572 295.363 27.02C294.915 27.4493 294.336 27.664 293.627 27.664C292.918 27.664 292.339 27.4493 291.891 27.02C291.443 26.572 291.219 26.012 291.219 25.34C291.219 24.668 291.443 24.1173 291.891 23.688C292.339 23.24 292.918 23.016 293.627 23.016ZM303.545 24.304V45.5H299.569V24.752L303.545 24.304ZM312.561 30.66L307.829 37.184L312.981 45.5H308.473L303.685 37.38L308.445 30.66H312.561ZM318.721 30.66V45.5H314.745V30.66H318.721ZM316.705 23.016C317.414 23.016 317.993 23.24 318.441 23.688C318.908 24.1173 319.141 24.668 319.141 25.34C319.141 26.012 318.908 26.572 318.441 27.02C317.993 27.4493 317.414 27.664 316.705 27.664C315.996 27.664 315.417 27.4493 314.969 27.02C314.521 26.572 314.297 26.012 314.297 25.34C314.297 24.668 314.521 24.1173 314.969 23.688C315.417 23.24 315.996 23.016 316.705 23.016ZM119.654 58.212C120.83 58.212 121.773 58.6133 122.482 59.416C123.21 60.2187 123.574 61.3107 123.574 62.692V73.5H119.598V63.364C119.598 61.908 119.113 61.18 118.142 61.18C117.62 61.18 117.162 61.348 116.77 61.684C116.378 62.02 115.977 62.5427 115.566 63.252V73.5H111.59V63.364C111.59 61.908 111.105 61.18 110.134 61.18C109.612 61.18 109.154 61.3573 108.762 61.712C108.37 62.048 107.978 62.5613 107.586 63.252V73.5H103.61V58.66H107.054L107.362 60.508C107.922 59.7613 108.548 59.192 109.238 58.8C109.948 58.408 110.76 58.212 111.674 58.212C112.514 58.212 113.242 58.4267 113.858 58.856C114.474 59.2667 114.922 59.8547 115.202 60.62C115.818 59.8173 116.481 59.22 117.19 58.828C117.918 58.4173 118.74 58.212 119.654 58.212ZM133.589 58.212C135.81 58.212 137.546 58.912 138.797 60.312C140.047 61.6933 140.673 63.616 140.673 66.08C140.673 67.648 140.383 69.0293 139.805 70.224C139.245 71.4 138.423 72.3147 137.341 72.968C136.277 73.6213 135.017 73.948 133.561 73.948C131.339 73.948 129.594 73.2573 128.325 71.876C127.074 70.476 126.449 68.544 126.449 66.08C126.449 64.512 126.729 63.14 127.289 61.964C127.867 60.7693 128.689 59.8453 129.753 59.192C130.835 58.5387 132.114 58.212 133.589 58.212ZM133.589 61.18C132.581 61.18 131.825 61.5813 131.321 62.384C130.835 63.168 130.593 64.4 130.593 66.08C130.593 67.76 130.835 69.0013 131.321 69.804C131.825 70.588 132.571 70.98 133.561 70.98C134.55 70.98 135.287 70.588 135.773 69.804C136.277 69.0013 136.529 67.76 136.529 66.08C136.529 64.4 136.286 63.168 135.801 62.384C135.315 61.5813 134.578 61.18 133.589 61.18ZM156.24 65.744C156.24 65.9307 156.212 66.444 156.156 67.284H146.888C147.019 68.628 147.383 69.58 147.98 70.14C148.578 70.7 149.39 70.98 150.416 70.98C151.051 70.98 151.648 70.8773 152.208 70.672C152.768 70.4667 153.375 70.14 154.028 69.692L155.68 71.932C154.019 73.276 152.143 73.948 150.052 73.948C147.719 73.948 145.927 73.248 144.676 71.848C143.426 70.448 142.8 68.5533 142.8 66.164C142.8 64.652 143.062 63.2987 143.584 62.104C144.126 60.8907 144.9 59.9387 145.908 59.248C146.935 58.5573 148.148 58.212 149.548 58.212C151.658 58.212 153.3 58.8747 154.476 60.2C155.652 61.5253 156.24 63.3733 156.24 65.744ZM152.292 64.624C152.292 62.16 151.406 60.928 149.632 60.928C148.811 60.928 148.167 61.236 147.7 61.852C147.252 62.4493 146.982 63.4293 146.888 64.792H152.292V64.624ZM167.994 72.8C167.453 73.1733 166.837 73.4533 166.146 73.64C165.474 73.8453 164.802 73.948 164.13 73.948C162.6 73.9293 161.442 73.4907 160.658 72.632C159.874 71.7733 159.482 70.5133 159.482 68.852V61.46H157.27V58.66H159.482V55.412L163.458 54.936V58.66H166.874L166.482 61.46H163.458V68.768C163.458 69.4773 163.58 69.9907 163.822 70.308C164.065 70.6253 164.438 70.784 164.942 70.784C165.446 70.784 166.006 70.616 166.622 70.28L167.994 72.8ZM177.427 58.24C177.875 58.24 178.37 58.3147 178.911 58.464L178.239 62.3C177.716 62.1693 177.278 62.104 176.923 62.104C176.046 62.104 175.364 62.412 174.879 63.028C174.394 63.644 174.011 64.5773 173.731 65.828V73.5H169.755V58.66H173.199L173.563 61.544C173.918 60.4987 174.431 59.6867 175.103 59.108C175.794 58.5293 176.568 58.24 177.427 58.24ZM192.58 65.744C192.58 65.9307 192.552 66.444 192.496 67.284H183.228C183.359 68.628 183.723 69.58 184.32 70.14C184.918 70.7 185.73 70.98 186.756 70.98C187.391 70.98 187.988 70.8773 188.548 70.672C189.108 70.4667 189.715 70.14 190.368 69.692L192.02 71.932C190.359 73.276 188.483 73.948 186.392 73.948C184.059 73.948 182.267 73.248 181.016 71.848C179.766 70.448 179.14 68.5533 179.14 66.164C179.14 64.652 179.402 63.2987 179.924 62.104C180.466 60.8907 181.24 59.9387 182.248 59.248C183.275 58.5573 184.488 58.212 185.888 58.212C187.998 58.212 189.64 58.8747 190.816 60.2C191.992 61.5253 192.58 63.3733 192.58 65.744ZM188.632 64.624C188.632 62.16 187.746 60.928 185.972 60.928C185.151 60.928 184.507 61.236 184.04 61.852C183.592 62.4493 183.322 63.4293 183.228 64.792H188.632V64.624ZM203.746 58.212C205.053 58.212 206.07 58.6133 206.798 59.416C207.526 60.2 207.89 61.292 207.89 62.692V73.5H203.914V63.364C203.914 62.5613 203.774 62.0013 203.494 61.684C203.233 61.348 202.831 61.18 202.29 61.18C201.73 61.18 201.217 61.3573 200.75 61.712C200.302 62.048 199.863 62.5613 199.434 63.252V73.5H195.458V58.66H198.902L199.21 60.536C199.826 59.7707 200.498 59.192 201.226 58.8C201.973 58.408 202.813 58.212 203.746 58.212ZM224.525 52.752V73.5H221.025L220.801 71.68C219.756 73.192 218.337 73.948 216.545 73.948C214.716 73.948 213.316 73.248 212.345 71.848C211.393 70.4293 210.917 68.5067 210.917 66.08C210.917 64.5493 211.16 63.196 211.645 62.02C212.149 60.8253 212.858 59.892 213.773 59.22C214.688 58.548 215.742 58.212 216.937 58.212C218.318 58.212 219.522 58.7067 220.549 59.696V52.304L224.525 52.752ZM217.721 70.98C218.3 70.98 218.813 70.84 219.261 70.56C219.709 70.2613 220.138 69.804 220.549 69.188V62.552C220.157 62.0853 219.756 61.74 219.345 61.516C218.953 61.2733 218.496 61.152 217.973 61.152C217.058 61.152 216.34 61.5533 215.817 62.356C215.313 63.1587 215.061 64.4 215.061 66.08C215.061 67.8533 215.285 69.1133 215.733 69.86C216.2 70.6067 216.862 70.98 217.721 70.98ZM240.979 65.744C240.979 65.9307 240.951 66.444 240.895 67.284H231.627C231.757 68.628 232.121 69.58 232.719 70.14C233.316 70.7 234.128 70.98 235.155 70.98C235.789 70.98 236.387 70.8773 236.947 70.672C237.507 70.4667 238.113 70.14 238.767 69.692L240.419 71.932C238.757 73.276 236.881 73.948 234.791 73.948C232.457 73.948 230.665 73.248 229.415 71.848C228.164 70.448 227.539 68.5533 227.539 66.164C227.539 64.652 227.8 63.2987 228.323 62.104C228.864 60.8907 229.639 59.9387 230.647 59.248C231.673 58.5573 232.887 58.212 234.287 58.212C236.396 58.212 238.039 58.8747 239.215 60.2C240.391 61.5253 240.979 63.3733 240.979 65.744ZM237.031 64.624C237.031 62.16 236.144 60.928 234.371 60.928C233.549 60.928 232.905 61.236 232.439 61.852C231.991 62.4493 231.72 63.4293 231.627 64.792H237.031V64.624ZM244.955 69.16C245.627 69.16 246.196 69.3933 246.663 69.86C247.13 70.3267 247.363 70.8867 247.363 71.54C247.363 72.1933 247.13 72.7627 246.663 73.248C246.196 73.7147 245.627 73.948 244.955 73.948C244.302 73.948 243.742 73.7147 243.275 73.248C242.808 72.7627 242.575 72.1933 242.575 71.54C242.575 70.8867 242.808 70.3267 243.275 69.86C243.742 69.3933 244.302 69.16 244.955 69.16Z" fill="#E3000F"/>
</svg>
