<svg width="350" height="100" viewBox="0 0 350 100" fill="none" xmlns="http://www.w3.org/2000/svg">
<path d="M112.944 8.402C115.464 8.402 117.642 8.87 119.478 9.806C121.314 10.706 122.7 11.948 123.636 13.532C124.608 15.08 125.094 16.808 125.094 18.716C125.094 20.696 124.662 22.604 123.798 24.44C122.97 26.276 121.53 28.346 119.478 30.65C117.462 32.954 114.51 35.924 110.622 39.56H125.904L125.04 45.5H101.874V39.938C106.41 35.402 109.686 32.018 111.702 29.786C113.718 27.554 115.14 25.664 115.968 24.116C116.796 22.568 117.21 20.984 117.21 19.364C117.21 17.816 116.76 16.592 115.86 15.692C114.96 14.792 113.754 14.342 112.242 14.342C110.91 14.342 109.722 14.648 108.678 15.26C107.634 15.836 106.536 16.808 105.384 18.176L100.794 14.504C103.89 10.436 107.94 8.402 112.944 8.402ZM154.192 33.458C154.696 35.942 155.614 37.76 156.946 38.912C158.314 40.064 160.132 40.64 162.4 40.64C164.812 40.64 167.404 39.884 170.176 38.372V44.312C168.7 44.996 167.296 45.5 165.964 45.824C164.632 46.184 163.174 46.364 161.59 46.364C157.522 46.364 154.174 45.248 151.546 43.016C148.954 40.748 147.244 37.562 146.416 33.458H141.718L142.798 29.3H146.2V25.25H141.718L142.798 21.038H146.47C147.478 17.114 149.35 14.036 152.086 11.804C154.858 9.536 158.116 8.402 161.86 8.402C165.604 8.402 168.988 9.428 172.012 11.48L169.258 16.232C168.106 15.476 166.972 14.936 165.856 14.612C164.74 14.252 163.498 14.072 162.13 14.072C160.258 14.072 158.656 14.648 157.324 15.8C155.992 16.952 155.002 18.698 154.354 21.038H167.584L166.504 25.25H153.976V29.3H165.64L164.614 33.458H154.192Z" fill="#E3000F"/>
<path d="M194.52 32.7656V35H183.928V33.0879L189.009 27.5986C189.539 26.9971 189.958 26.4743 190.266 26.0303C190.574 25.5863 190.792 25.1852 190.921 24.8271C191.057 24.4619 191.125 24.1146 191.125 23.7852C191.125 23.3053 191.039 22.8864 190.867 22.5283C190.696 22.1631 190.445 21.8802 190.115 21.6797C189.793 21.4792 189.396 21.3789 188.923 21.3789C188.4 21.3789 187.953 21.5007 187.58 21.7441C187.215 21.9805 186.936 22.3099 186.742 22.7324C186.556 23.1549 186.463 23.6383 186.463 24.1826H183.616C183.616 23.2588 183.831 22.4173 184.261 21.6582C184.691 20.8919 185.307 20.2796 186.109 19.8213C186.911 19.363 187.863 19.1338 188.966 19.1338C190.04 19.1338 190.95 19.3128 191.695 19.6709C192.439 20.0218 193.005 20.5231 193.392 21.1748C193.779 21.8265 193.972 22.6035 193.972 23.5059C193.972 24.0072 193.89 24.5013 193.725 24.9883C193.56 25.4753 193.327 25.9587 193.027 26.4385C192.733 26.9111 192.382 27.391 191.974 27.8779C191.566 28.3649 191.111 28.8626 190.61 29.3711L187.559 32.7656H194.52ZM204.961 18.4893V35H202.125V18.4893H204.961ZM212.244 23.377L207.185 29.0596L204.446 31.8418L203.543 29.6396L205.659 26.9756L208.818 23.377H212.244ZM209.344 35L205.745 29.5859L207.636 27.749L212.631 35H209.344ZM220.666 32.2393V23.377H223.524V35H220.838L220.666 32.2393ZM221.031 29.833L221.912 29.8115C221.912 30.5921 221.826 31.3118 221.655 31.9707C221.483 32.6296 221.214 33.2025 220.849 33.6895C220.491 34.1693 220.036 34.5452 219.485 34.8174C218.933 35.0824 218.281 35.2148 217.53 35.2148C216.957 35.2148 216.434 35.1361 215.961 34.9785C215.489 34.8138 215.08 34.5596 214.737 34.2158C214.4 33.8649 214.139 33.4173 213.952 32.873C213.766 32.3216 213.673 31.6592 213.673 30.8857V23.377H216.509V30.9072C216.509 31.2939 216.552 31.6162 216.638 31.874C216.731 32.1318 216.856 32.3431 217.014 32.5078C217.179 32.6654 217.368 32.7799 217.583 32.8516C217.805 32.916 218.042 32.9482 218.292 32.9482C218.98 32.9482 219.52 32.8122 219.914 32.54C220.315 32.2607 220.602 31.8883 220.774 31.4229C220.946 30.9502 221.031 30.4202 221.031 29.833ZM232.955 32.2393V23.377H235.813V35H233.127L232.955 32.2393ZM233.321 29.833L234.201 29.8115C234.201 30.5921 234.115 31.3118 233.944 31.9707C233.772 32.6296 233.503 33.2025 233.138 33.6895C232.78 34.1693 232.325 34.5452 231.774 34.8174C231.222 35.0824 230.571 35.2148 229.819 35.2148C229.246 35.2148 228.723 35.1361 228.25 34.9785C227.778 34.8138 227.369 34.5596 227.026 34.2158C226.689 33.8649 226.428 33.4173 226.241 32.873C226.055 32.3216 225.962 31.6592 225.962 30.8857V23.377H228.798V30.9072C228.798 31.2939 228.841 31.6162 228.927 31.874C229.02 32.1318 229.145 32.3431 229.303 32.5078C229.468 32.6654 229.657 32.7799 229.872 32.8516C230.094 32.916 230.331 32.9482 230.581 32.9482C231.269 32.9482 231.809 32.8122 232.203 32.54C232.604 32.2607 232.891 31.8883 233.063 31.4229C233.235 30.9502 233.321 30.4202 233.321 29.833ZM245.298 32.5293V18.5H248.156V35H245.577L245.298 32.5293ZM237.832 29.3281V29.1025C237.832 28.2145 237.933 27.4089 238.133 26.6855C238.341 25.9551 238.642 25.3285 239.035 24.8057C239.429 24.2829 239.906 23.8783 240.464 23.5918C241.03 23.3053 241.671 23.1621 242.387 23.1621C243.082 23.1621 243.687 23.3018 244.202 23.5811C244.725 23.8604 245.169 24.2578 245.534 24.7734C245.907 25.2891 246.204 25.9014 246.426 26.6104C246.648 27.3122 246.809 28.0856 246.909 28.9307V29.543C246.809 30.3665 246.648 31.1221 246.426 31.8096C246.204 32.4971 245.907 33.0986 245.534 33.6143C245.169 34.1227 244.725 34.5166 244.202 34.7959C243.68 35.0752 243.067 35.2148 242.365 35.2148C241.656 35.2148 241.019 35.068 240.453 34.7744C239.895 34.4808 239.419 34.069 239.025 33.5391C238.638 33.0091 238.341 32.3861 238.133 31.6699C237.933 30.9538 237.832 30.1732 237.832 29.3281ZM240.679 29.1025V29.3281C240.679 29.8294 240.722 30.2985 240.808 30.7354C240.894 31.1722 241.033 31.5589 241.227 31.8955C241.42 32.2249 241.667 32.4827 241.968 32.6689C242.276 32.8551 242.648 32.9482 243.085 32.9482C243.644 32.9482 244.102 32.8265 244.46 32.583C244.825 32.3324 245.108 31.9922 245.309 31.5625C245.509 31.1257 245.638 30.6351 245.696 30.0908V28.4043C245.667 27.9746 245.592 27.5771 245.47 27.2119C245.355 26.8467 245.191 26.5316 244.976 26.2666C244.768 26.0016 244.51 25.7939 244.202 25.6436C243.894 25.4932 243.529 25.418 243.107 25.418C242.67 25.418 242.297 25.5146 241.99 25.708C241.682 25.8942 241.431 26.1556 241.238 26.4922C241.044 26.8288 240.901 27.2191 240.808 27.6631C240.722 28.1071 240.679 28.5869 240.679 29.1025Z" fill="#461102"/>
<rect x="86" y="55.5" width="178" height="36" rx="9" fill="#E3000F"/>
<path d="M113.702 67.026L113.414 69.294H110.336V79.5H107.384V69.294H104.162V67.026H113.702ZM122.541 67.026L122.235 69.132H117.843V72.12H121.677V74.19H117.843V77.376H122.541V79.5H114.891V67.026H122.541ZM127.317 67.026V77.16H132.177L131.871 79.5H124.365V67.026H127.317ZM136.546 67.026V77.16H141.406L141.1 79.5H133.594V67.026H136.546ZM145.774 67.026V79.5H142.822V67.026H145.774ZM155.841 67.026C157.797 67.026 159.363 67.47 160.539 68.358C161.727 69.234 162.321 70.848 162.321 73.2C162.321 75.516 161.745 77.148 160.593 78.096C159.441 79.032 157.947 79.5 156.111 79.5H152.367V67.026H155.841ZM155.319 69.168V77.358H156.291C157.263 77.358 158.001 77.058 158.505 76.458C159.009 75.846 159.261 74.76 159.261 73.2C159.261 72.132 159.135 71.304 158.883 70.716C158.631 70.128 158.289 69.726 157.857 69.51C157.425 69.282 156.891 69.168 156.255 69.168H155.319ZM167.044 67.026V79.5H164.092V67.026H167.044ZM174.765 66.72C176.373 66.72 177.759 67.23 178.923 68.25L177.429 69.816C176.985 69.48 176.571 69.24 176.187 69.096C175.815 68.94 175.383 68.862 174.891 68.862C173.967 68.862 173.229 69.228 172.677 69.96C172.125 70.68 171.849 71.778 171.849 73.254C171.849 74.85 172.059 75.984 172.479 76.656C172.899 77.316 173.553 77.646 174.441 77.646C175.065 77.646 175.629 77.508 176.133 77.232V74.406H174.513L174.225 72.318H178.995V78.492C178.347 78.912 177.633 79.236 176.853 79.464C176.073 79.692 175.293 79.806 174.513 79.806C172.617 79.806 171.189 79.254 170.229 78.15C169.269 77.034 168.789 75.402 168.789 73.254C168.789 71.886 169.047 70.71 169.563 69.726C170.091 68.742 170.805 67.998 171.705 67.494C172.617 66.978 173.637 66.72 174.765 66.72ZM183.919 67.026V79.5H180.967V67.026H183.919ZM190.272 67.026C191.916 67.026 193.194 67.368 194.106 68.052C195.018 68.736 195.474 69.75 195.474 71.094C195.474 72.498 195.024 73.56 194.124 74.28C193.236 74.988 192.042 75.342 190.542 75.342H189.192V79.5H186.24V67.026H190.272ZM190.29 73.218C190.986 73.218 191.514 73.056 191.874 72.732C192.246 72.396 192.432 71.85 192.432 71.094C192.432 69.786 191.7 69.132 190.236 69.132H189.192V73.218H190.29ZM202.531 79.5L201.883 76.818H198.247L197.617 79.5H194.557L198.319 67.026H201.901L205.663 79.5H202.531ZM198.751 74.676H201.379L200.065 69.168L198.751 74.676ZM209.53 67.026V79.5H206.578V67.026H209.53ZM216.694 67.026L212.716 72.624L217.018 79.5H213.598L209.62 72.84L213.58 67.026H216.694ZM225.619 67.026L225.313 69.132H220.921V72.12H224.755V74.19H220.921V77.376H225.619V79.5H217.969V67.026H225.619ZM235.975 67.026L235.687 69.294H232.609V79.5H229.657V69.294H226.435V67.026H235.975ZM245.696 67.026L245.408 69.294H242.33V79.5H239.378V69.294H236.156V67.026H245.696Z" fill="#FFE80D"/>
</svg>
