<svg width="350" height="100" viewBox="0 0 350 100" fill="none" xmlns="http://www.w3.org/2000/svg">
<path d="M82.082 28.4375V45.5H79.1406V28.4375H82.082ZM92.3359 28.4375L85.4219 36.6523L81.4844 40.8242L80.9688 37.9062L83.7812 34.4375L88.75 28.4375H92.3359ZM89.1719 45.5L83.5586 37.4141L85.5859 35.4102L92.6641 45.5H89.1719ZM101.371 42.5117V32.8203H104.207V45.5H101.535L101.371 42.5117ZM101.77 39.875L102.719 39.8516C102.719 40.7031 102.625 41.4883 102.438 42.207C102.25 42.918 101.961 43.5391 101.57 44.0703C101.18 44.5938 100.68 45.0039 100.07 45.3008C99.4609 45.5898 98.7305 45.7344 97.8789 45.7344C97.2617 45.7344 96.6953 45.6445 96.1797 45.4648C95.6641 45.2852 95.2188 45.0078 94.8438 44.6328C94.4766 44.2578 94.1914 43.7695 93.9883 43.168C93.7852 42.5664 93.6836 41.8477 93.6836 41.0117V32.8203H96.5078V41.0352C96.5078 41.4961 96.5625 41.8828 96.6719 42.1953C96.7812 42.5 96.9297 42.7461 97.1172 42.9336C97.3047 43.1211 97.5234 43.2539 97.7734 43.332C98.0234 43.4102 98.2891 43.4492 98.5703 43.4492C99.375 43.4492 100.008 43.293 100.469 42.9805C100.938 42.6602 101.27 42.2305 101.465 41.6914C101.668 41.1523 101.77 40.5469 101.77 39.875ZM110.125 32.8203V45.5H107.289V32.8203H110.125ZM107.102 29.4922C107.102 29.0625 107.242 28.707 107.523 28.4258C107.812 28.1367 108.211 27.9922 108.719 27.9922C109.219 27.9922 109.613 28.1367 109.902 28.4258C110.191 28.707 110.336 29.0625 110.336 29.4922C110.336 29.9141 110.191 30.2656 109.902 30.5469C109.613 30.8281 109.219 30.9688 108.719 30.9688C108.211 30.9688 107.812 30.8281 107.523 30.5469C107.242 30.2656 107.102 29.9141 107.102 29.4922ZM124.785 45.7344C123.848 45.7344 123 45.582 122.242 45.2773C121.492 44.9648 120.852 44.5312 120.32 43.9766C119.797 43.4219 119.395 42.7695 119.113 42.0195C118.832 41.2695 118.691 40.4609 118.691 39.5938V39.125C118.691 38.1328 118.836 37.2344 119.125 36.4297C119.414 35.625 119.816 34.9375 120.332 34.3672C120.848 33.7891 121.457 33.3477 122.16 33.043C122.863 32.7383 123.625 32.5859 124.445 32.5859C125.352 32.5859 126.145 32.7383 126.824 33.043C127.504 33.3477 128.066 33.7773 128.512 34.332C128.965 34.8789 129.301 35.5312 129.52 36.2891C129.746 37.0469 129.859 37.8828 129.859 38.7969V40.0039H120.062V37.9766H127.07V37.7539C127.055 37.2461 126.953 36.7695 126.766 36.3242C126.586 35.8789 126.309 35.5195 125.934 35.2461C125.559 34.9727 125.059 34.8359 124.434 34.8359C123.965 34.8359 123.547 34.9375 123.18 35.1406C122.82 35.3359 122.52 35.6211 122.277 35.9961C122.035 36.3711 121.848 36.8242 121.715 37.3555C121.59 37.8789 121.527 38.4688 121.527 39.125V39.5938C121.527 40.1484 121.602 40.6641 121.75 41.1406C121.906 41.6094 122.133 42.0195 122.43 42.3711C122.727 42.7227 123.086 43 123.508 43.2031C123.93 43.3984 124.41 43.4961 124.949 43.4961C125.629 43.4961 126.234 43.3594 126.766 43.0859C127.297 42.8125 127.758 42.4258 128.148 41.9258L129.637 43.3672C129.363 43.7656 129.008 44.1484 128.57 44.5156C128.133 44.875 127.598 45.168 126.965 45.3945C126.34 45.6211 125.613 45.7344 124.785 45.7344ZM135.086 32.8203V45.5H132.25V32.8203H135.086ZM132.062 29.4922C132.062 29.0625 132.203 28.707 132.484 28.4258C132.773 28.1367 133.172 27.9922 133.68 27.9922C134.18 27.9922 134.574 28.1367 134.863 28.4258C135.152 28.707 135.297 29.0625 135.297 29.4922C135.297 29.9141 135.152 30.2656 134.863 30.5469C134.574 30.8281 134.18 30.9688 133.68 30.9688C133.172 30.9688 132.773 30.8281 132.484 30.5469C132.203 30.2656 132.062 29.9141 132.062 29.4922ZM144.297 32.8203H147.133V46.6016C147.133 47.4688 146.984 48.1992 146.688 48.793C146.391 49.3945 145.953 49.8477 145.375 50.1523C144.797 50.4648 144.09 50.6211 143.254 50.6211C143.004 50.6211 142.746 50.6016 142.48 50.5625C142.207 50.5312 141.949 50.4844 141.707 50.4219L141.719 48.2188C141.883 48.25 142.059 48.2734 142.246 48.2891C142.426 48.3125 142.598 48.3242 142.762 48.3242C143.098 48.3242 143.379 48.2656 143.605 48.1484C143.832 48.0312 144.004 47.8477 144.121 47.5977C144.238 47.3477 144.297 47.0156 144.297 46.6016V32.8203ZM144.051 29.4922C144.051 29.0625 144.195 28.707 144.484 28.4258C144.773 28.1367 145.168 27.9922 145.668 27.9922C146.176 27.9922 146.57 28.1367 146.852 28.4258C147.141 28.707 147.285 29.0625 147.285 29.4922C147.285 29.9141 147.141 30.2656 146.852 30.5469C146.57 30.8281 146.176 30.9688 145.668 30.9688C145.168 30.9688 144.773 30.8281 144.484 30.5469C144.195 30.2656 144.051 29.9141 144.051 29.4922ZM149.641 39.3008V39.0312C149.641 38.1172 149.773 37.2695 150.039 36.4883C150.305 35.6992 150.688 35.0156 151.188 34.4375C151.695 33.8516 152.312 33.3984 153.039 33.0781C153.773 32.75 154.602 32.5859 155.523 32.5859C156.453 32.5859 157.281 32.75 158.008 33.0781C158.742 33.3984 159.363 33.8516 159.871 34.4375C160.379 35.0156 160.766 35.6992 161.031 36.4883C161.297 37.2695 161.43 38.1172 161.43 39.0312V39.3008C161.43 40.2148 161.297 41.0625 161.031 41.8438C160.766 42.625 160.379 43.3086 159.871 43.8945C159.363 44.4727 158.746 44.9258 158.02 45.2539C157.293 45.5742 156.469 45.7344 155.547 45.7344C154.617 45.7344 153.785 45.5742 153.051 45.2539C152.324 44.9258 151.707 44.4727 151.199 43.8945C150.691 43.3086 150.305 42.625 150.039 41.8438C149.773 41.0625 149.641 40.2148 149.641 39.3008ZM152.465 39.0312V39.3008C152.465 39.8711 152.523 40.4102 152.641 40.918C152.758 41.4258 152.941 41.8711 153.191 42.2539C153.441 42.6367 153.762 42.9375 154.152 43.1562C154.543 43.375 155.008 43.4844 155.547 43.4844C156.07 43.4844 156.523 43.375 156.906 43.1562C157.297 42.9375 157.617 42.6367 157.867 42.2539C158.117 41.8711 158.301 41.4258 158.418 40.918C158.543 40.4102 158.605 39.8711 158.605 39.3008V39.0312C158.605 38.4688 158.543 37.9375 158.418 37.4375C158.301 36.9297 158.113 36.4805 157.855 36.0898C157.605 35.6992 157.285 35.3945 156.895 35.1758C156.512 34.9492 156.055 34.8359 155.523 34.8359C154.992 34.8359 154.531 34.9492 154.141 35.1758C153.758 35.3945 153.441 35.6992 153.191 36.0898C152.941 36.4805 152.758 36.9297 152.641 37.4375C152.523 37.9375 152.465 38.4688 152.465 39.0312ZM158.043 27.6406L159.766 27.7695C159.766 28.3398 159.652 28.8516 159.426 29.3047C159.199 29.75 158.891 30.1016 158.5 30.3594C158.109 30.6172 157.668 30.7461 157.176 30.7461C156.793 30.7461 156.469 30.6914 156.203 30.582C155.938 30.4727 155.695 30.3477 155.477 30.207C155.258 30.0664 155.031 29.9453 154.797 29.8438C154.57 29.7344 154.301 29.6797 153.988 29.6797C153.691 29.6797 153.438 29.7891 153.227 30.0078C153.023 30.2266 152.922 30.5195 152.922 30.8867L151.188 30.793C151.188 30.2305 151.301 29.7227 151.527 29.2695C151.754 28.8164 152.062 28.457 152.453 28.1914C152.844 27.9258 153.285 27.793 153.777 27.793C154.098 27.793 154.387 27.8477 154.645 27.957C154.91 28.0586 155.16 28.1797 155.395 28.3203C155.637 28.4609 155.883 28.5859 156.133 28.6953C156.383 28.8047 156.66 28.8594 156.965 28.8594C157.262 28.8594 157.516 28.7461 157.727 28.5195C157.938 28.293 158.043 28 158.043 27.6406ZM171.426 42.5117V32.8203H174.262V45.5H171.59L171.426 42.5117ZM171.824 39.875L172.773 39.8516C172.773 40.7031 172.68 41.4883 172.492 42.207C172.305 42.918 172.016 43.5391 171.625 44.0703C171.234 44.5938 170.734 45.0039 170.125 45.3008C169.516 45.5898 168.785 45.7344 167.934 45.7344C167.316 45.7344 166.75 45.6445 166.234 45.4648C165.719 45.2852 165.273 45.0078 164.898 44.6328C164.531 44.2578 164.246 43.7695 164.043 43.168C163.84 42.5664 163.738 41.8477 163.738 41.0117V32.8203H166.562V41.0352C166.562 41.4961 166.617 41.8828 166.727 42.1953C166.836 42.5 166.984 42.7461 167.172 42.9336C167.359 43.1211 167.578 43.2539 167.828 43.332C168.078 43.4102 168.344 43.4492 168.625 43.4492C169.43 43.4492 170.062 43.293 170.523 42.9805C170.992 42.6602 171.324 42.2305 171.52 41.6914C171.723 41.1523 171.824 40.5469 171.824 39.875ZM184.305 42.957V36.9102C184.305 36.457 184.223 36.0664 184.059 35.7383C183.895 35.4102 183.645 35.1562 183.309 34.9766C182.98 34.7969 182.566 34.707 182.066 34.707C181.605 34.707 181.207 34.7852 180.871 34.9414C180.535 35.0977 180.273 35.3086 180.086 35.5742C179.898 35.8398 179.805 36.1406 179.805 36.4766H176.992C176.992 35.9766 177.113 35.4922 177.355 35.0234C177.598 34.5547 177.949 34.1367 178.41 33.7695C178.871 33.4023 179.422 33.1133 180.062 32.9023C180.703 32.6914 181.422 32.5859 182.219 32.5859C183.172 32.5859 184.016 32.7461 184.75 33.0664C185.492 33.3867 186.074 33.8711 186.496 34.5195C186.926 35.1602 187.141 35.9648 187.141 36.9336V42.5703C187.141 43.1484 187.18 43.668 187.258 44.1289C187.344 44.582 187.465 44.9766 187.621 45.3125V45.5H184.727C184.594 45.1953 184.488 44.8086 184.41 44.3398C184.34 43.8633 184.305 43.4023 184.305 42.957ZM184.715 37.7891L184.738 39.5352H182.711C182.188 39.5352 181.727 39.5859 181.328 39.6875C180.93 39.7812 180.598 39.9219 180.332 40.1094C180.066 40.2969 179.867 40.5234 179.734 40.7891C179.602 41.0547 179.535 41.3555 179.535 41.6914C179.535 42.0273 179.613 42.3359 179.77 42.6172C179.926 42.8906 180.152 43.1055 180.449 43.2617C180.754 43.418 181.121 43.4961 181.551 43.4961C182.129 43.4961 182.633 43.3789 183.062 43.1445C183.5 42.9023 183.844 42.6094 184.094 42.2656C184.344 41.9141 184.477 41.582 184.492 41.2695L185.406 42.5234C185.312 42.8438 185.152 43.1875 184.926 43.5547C184.699 43.9219 184.402 44.2734 184.035 44.6094C183.676 44.9375 183.242 45.207 182.734 45.418C182.234 45.6289 181.656 45.7344 181 45.7344C180.172 45.7344 179.434 45.5703 178.785 45.2422C178.137 44.9062 177.629 44.457 177.262 43.8945C176.895 43.3242 176.711 42.6797 176.711 41.9609C176.711 41.2891 176.836 40.6953 177.086 40.1797C177.344 39.6562 177.719 39.2188 178.211 38.8672C178.711 38.5156 179.32 38.25 180.039 38.0703C180.758 37.8828 181.578 37.7891 182.5 37.7891H184.715ZM192.742 42.7812L192.73 44.7969C192.73 45.5938 192.531 46.4141 192.133 47.2578C191.734 48.1016 191.207 48.7969 190.551 49.3438L189.039 48.4648C189.258 48.1133 189.457 47.7578 189.637 47.3984C189.816 47.0391 189.961 46.6562 190.07 46.25C190.18 45.8438 190.234 45.3945 190.234 44.9023V42.7812H192.742ZM200.898 39.3008V39.0312C200.898 38.1172 201.031 37.2695 201.297 36.4883C201.562 35.6992 201.945 35.0156 202.445 34.4375C202.953 33.8516 203.57 33.3984 204.297 33.0781C205.031 32.75 205.859 32.5859 206.781 32.5859C207.711 32.5859 208.539 32.75 209.266 33.0781C210 33.3984 210.621 33.8516 211.129 34.4375C211.637 35.0156 212.023 35.6992 212.289 36.4883C212.555 37.2695 212.688 38.1172 212.688 39.0312V39.3008C212.688 40.2148 212.555 41.0625 212.289 41.8438C212.023 42.625 211.637 43.3086 211.129 43.8945C210.621 44.4727 210.004 44.9258 209.277 45.2539C208.551 45.5742 207.727 45.7344 206.805 45.7344C205.875 45.7344 205.043 45.5742 204.309 45.2539C203.582 44.9258 202.965 44.4727 202.457 43.8945C201.949 43.3086 201.562 42.625 201.297 41.8438C201.031 41.0625 200.898 40.2148 200.898 39.3008ZM203.723 39.0312V39.3008C203.723 39.8711 203.781 40.4102 203.898 40.918C204.016 41.4258 204.199 41.8711 204.449 42.2539C204.699 42.6367 205.02 42.9375 205.41 43.1562C205.801 43.375 206.266 43.4844 206.805 43.4844C207.328 43.4844 207.781 43.375 208.164 43.1562C208.555 42.9375 208.875 42.6367 209.125 42.2539C209.375 41.8711 209.559 41.4258 209.676 40.918C209.801 40.4102 209.863 39.8711 209.863 39.3008V39.0312C209.863 38.4688 209.801 37.9375 209.676 37.4375C209.559 36.9297 209.371 36.4805 209.113 36.0898C208.863 35.6992 208.543 35.3945 208.152 35.1758C207.77 34.9492 207.312 34.8359 206.781 34.8359C206.25 34.8359 205.789 34.9492 205.398 35.1758C205.016 35.3945 204.699 35.6992 204.449 36.0898C204.199 36.4805 204.016 36.9297 203.898 37.4375C203.781 37.9375 203.723 38.4688 203.723 39.0312ZM217.855 35.5273V45.5H215.031V32.8203H217.691L217.855 35.5273ZM217.352 38.6914L216.438 38.6797C216.445 37.7812 216.57 36.957 216.812 36.207C217.062 35.457 217.406 34.8125 217.844 34.2734C218.289 33.7344 218.82 33.3203 219.438 33.0312C220.055 32.7344 220.742 32.5859 221.5 32.5859C222.109 32.5859 222.66 32.6719 223.152 32.8438C223.652 33.0078 224.078 33.2773 224.43 33.6523C224.789 34.0273 225.062 34.5156 225.25 35.1172C225.438 35.7109 225.531 36.4414 225.531 37.3086V45.5H222.695V37.2969C222.695 36.6875 222.605 36.207 222.426 35.8555C222.254 35.4961 222 35.2422 221.664 35.0938C221.336 34.9375 220.926 34.8594 220.434 34.8594C219.949 34.8594 219.516 34.9609 219.133 35.1641C218.75 35.3672 218.426 35.6445 218.16 35.9961C217.902 36.3477 217.703 36.7539 217.562 37.2148C217.422 37.6758 217.352 38.168 217.352 38.6914ZM241.129 28.4375V45.5H238.211V28.4375H241.129ZM246.484 28.4375V30.7812H232.902V28.4375H246.484ZM251.477 32.8203V45.5H248.641V32.8203H251.477ZM248.453 29.4922C248.453 29.0625 248.594 28.707 248.875 28.4258C249.164 28.1367 249.562 27.9922 250.07 27.9922C250.57 27.9922 250.965 28.1367 251.254 28.4258C251.543 28.707 251.688 29.0625 251.688 29.4922C251.688 29.9141 251.543 30.2656 251.254 30.5469C250.965 30.8281 250.57 30.9688 250.07 30.9688C249.562 30.9688 249.164 30.8281 248.875 30.5469C248.594 30.2656 248.453 29.9141 248.453 29.4922ZM257.594 32.8203V45.5H254.758V32.8203H257.594ZM254.57 29.4922C254.57 29.0625 254.711 28.707 254.992 28.4258C255.281 28.1367 255.68 27.9922 256.188 27.9922C256.688 27.9922 257.082 28.1367 257.371 28.4258C257.66 28.707 257.805 29.0625 257.805 29.4922C257.805 29.9141 257.66 30.2656 257.371 30.5469C257.082 30.8281 256.688 30.9688 256.188 30.9688C255.68 30.9688 255.281 30.8281 254.992 30.5469C254.711 30.2656 254.57 29.9141 254.57 29.4922ZM268.316 42.5117V32.8203H271.152V45.5H268.48L268.316 42.5117ZM268.715 39.875L269.664 39.8516C269.664 40.7031 269.57 41.4883 269.383 42.207C269.195 42.918 268.906 43.5391 268.516 44.0703C268.125 44.5938 267.625 45.0039 267.016 45.3008C266.406 45.5898 265.676 45.7344 264.824 45.7344C264.207 45.7344 263.641 45.6445 263.125 45.4648C262.609 45.2852 262.164 45.0078 261.789 44.6328C261.422 44.2578 261.137 43.7695 260.934 43.168C260.73 42.5664 260.629 41.8477 260.629 41.0117V32.8203H263.453V41.0352C263.453 41.4961 263.508 41.8828 263.617 42.1953C263.727 42.5 263.875 42.7461 264.062 42.9336C264.25 43.1211 264.469 43.2539 264.719 43.332C264.969 43.4102 265.234 43.4492 265.516 43.4492C266.32 43.4492 266.953 43.293 267.414 42.9805C267.883 42.6602 268.215 42.2305 268.41 41.6914C268.613 41.1523 268.715 40.5469 268.715 39.875ZM42.1797 69.2617L45.2852 58.8203H48.2148L43.8086 71.5H41.9805L42.1797 69.2617ZM39.8008 58.8203L42.9648 69.3086L43.1172 71.5H41.2891L36.8594 58.8203H39.8008ZM55.3867 71.7344C54.4492 71.7344 53.6016 71.582 52.8438 71.2773C52.0938 70.9648 51.4531 70.5312 50.9219 69.9766C50.3984 69.4219 49.9961 68.7695 49.7148 68.0195C49.4336 67.2695 49.293 66.4609 49.293 65.5938V65.125C49.293 64.1328 49.4375 63.2344 49.7266 62.4297C50.0156 61.625 50.418 60.9375 50.9336 60.3672C51.4492 59.7891 52.0586 59.3477 52.7617 59.043C53.4648 58.7383 54.2266 58.5859 55.0469 58.5859C55.9531 58.5859 56.7461 58.7383 57.4258 59.043C58.1055 59.3477 58.668 59.7773 59.1133 60.332C59.5664 60.8789 59.9023 61.5312 60.1211 62.2891C60.3477 63.0469 60.4609 63.8828 60.4609 64.7969V66.0039H50.6641V63.9766H57.6719V63.7539C57.6562 63.2461 57.5547 62.7695 57.3672 62.3242C57.1875 61.8789 56.9102 61.5195 56.5352 61.2461C56.1602 60.9727 55.6602 60.8359 55.0352 60.8359C54.5664 60.8359 54.1484 60.9375 53.7812 61.1406C53.4219 61.3359 53.1211 61.6211 52.8789 61.9961C52.6367 62.3711 52.4492 62.8242 52.3164 63.3555C52.1914 63.8789 52.1289 64.4688 52.1289 65.125V65.5938C52.1289 66.1484 52.2031 66.6641 52.3516 67.1406C52.5078 67.6094 52.7344 68.0195 53.0312 68.3711C53.3281 68.7227 53.6875 69 54.1094 69.2031C54.5312 69.3984 55.0117 69.4961 55.5508 69.4961C56.2305 69.4961 56.8359 69.3594 57.3672 69.0859C57.8984 68.8125 58.3594 68.4258 58.75 67.9258L60.2383 69.3672C59.9648 69.7656 59.6094 70.1484 59.1719 70.5156C58.7344 70.875 58.1992 71.168 57.5664 71.3945C56.9414 71.6211 56.2148 71.7344 55.3867 71.7344ZM68.2539 71.7344C67.3164 71.7344 66.4688 71.582 65.7109 71.2773C64.9609 70.9648 64.3203 70.5312 63.7891 69.9766C63.2656 69.4219 62.8633 68.7695 62.582 68.0195C62.3008 67.2695 62.1602 66.4609 62.1602 65.5938V65.125C62.1602 64.1328 62.3047 63.2344 62.5938 62.4297C62.8828 61.625 63.2852 60.9375 63.8008 60.3672C64.3164 59.7891 64.9258 59.3477 65.6289 59.043C66.332 58.7383 67.0938 58.5859 67.9141 58.5859C68.8203 58.5859 69.6133 58.7383 70.293 59.043C70.9727 59.3477 71.5352 59.7773 71.9805 60.332C72.4336 60.8789 72.7695 61.5312 72.9883 62.2891C73.2148 63.0469 73.3281 63.8828 73.3281 64.7969V66.0039H63.5312V63.9766H70.5391V63.7539C70.5234 63.2461 70.4219 62.7695 70.2344 62.3242C70.0547 61.8789 69.7773 61.5195 69.4023 61.2461C69.0273 60.9727 68.5273 60.8359 67.9023 60.8359C67.4336 60.8359 67.0156 60.9375 66.6484 61.1406C66.2891 61.3359 65.9883 61.6211 65.7461 61.9961C65.5039 62.3711 65.3164 62.8242 65.1836 63.3555C65.0586 63.8789 64.9961 64.4688 64.9961 65.125V65.5938C64.9961 66.1484 65.0703 66.6641 65.2188 67.1406C65.375 67.6094 65.6016 68.0195 65.8984 68.3711C66.1953 68.7227 66.5547 69 66.9766 69.2031C67.3984 69.3984 67.8789 69.4961 68.418 69.4961C69.0977 69.4961 69.7031 69.3594 70.2344 69.0859C70.7656 68.8125 71.2266 68.4258 71.6172 67.9258L73.1055 69.3672C72.832 69.7656 72.4766 70.1484 72.0391 70.5156C71.6016 70.875 71.0664 71.168 70.4336 71.3945C69.8086 71.6211 69.082 71.7344 68.2539 71.7344ZM75.543 53.5H78.3672V68.793L78.0977 71.5H75.543V53.5ZM86.6406 65.043V65.2891C86.6406 66.2266 86.5352 67.0898 86.3242 67.8789C86.1211 68.6602 85.8086 69.3398 85.3867 69.918C84.9727 70.4961 84.457 70.9453 83.8398 71.2656C83.2305 71.5781 82.5234 71.7344 81.7188 71.7344C80.9297 71.7344 80.2422 71.5859 79.6562 71.2891C79.0703 70.9922 78.5781 70.5703 78.1797 70.0234C77.7891 69.4766 77.4727 68.8242 77.2305 68.0664C76.9883 67.3086 76.8164 66.4727 76.7148 65.5586V64.7734C76.8164 63.8516 76.9883 63.0156 77.2305 62.2656C77.4727 61.5078 77.7891 60.8555 78.1797 60.3086C78.5781 59.7539 79.0664 59.3281 79.6445 59.0312C80.2305 58.7344 80.9141 58.5859 81.6953 58.5859C82.5078 58.5859 83.2227 58.7422 83.8398 59.0547C84.4648 59.3672 84.9844 59.8125 85.3984 60.3906C85.8125 60.9609 86.1211 61.6406 86.3242 62.4297C86.5352 63.2188 86.6406 64.0898 86.6406 65.043ZM83.8164 65.2891V65.043C83.8164 64.4727 83.7695 63.9375 83.6758 63.4375C83.582 62.9297 83.4258 62.4844 83.207 62.1016C82.9961 61.7188 82.707 61.418 82.3398 61.1992C81.9805 60.9727 81.5312 60.8594 80.9922 60.8594C80.4922 60.8594 80.0625 60.9453 79.7031 61.1172C79.3438 61.2891 79.043 61.5234 78.8008 61.8203C78.5586 62.1172 78.3672 62.4609 78.2266 62.8516C78.0938 63.2422 78.0039 63.6641 77.957 64.1172V66.2383C78.0273 66.8242 78.1758 67.3633 78.4023 67.8555C78.6367 68.3398 78.9648 68.7305 79.3867 69.0273C79.8086 69.3164 80.3516 69.4609 81.0156 69.4609C81.5391 69.4609 81.9805 69.3555 82.3398 69.1445C82.6992 68.9336 82.9844 68.6406 83.1953 68.2656C83.4141 67.8828 83.5703 67.4375 83.6641 66.9297C83.7656 66.4219 83.8164 65.875 83.8164 65.2891ZM92.0547 58.8203V71.5H89.2188V58.8203H92.0547ZM89.0312 55.4922C89.0312 55.0625 89.1719 54.707 89.4531 54.4258C89.7422 54.1367 90.1406 53.9922 90.6484 53.9922C91.1484 53.9922 91.543 54.1367 91.832 54.4258C92.1211 54.707 92.2656 55.0625 92.2656 55.4922C92.2656 55.9141 92.1211 56.2656 91.832 56.5469C91.543 56.8281 91.1484 56.9688 90.6484 56.9688C90.1406 56.9688 89.7422 56.8281 89.4531 56.5469C89.1719 56.2656 89.0312 55.9141 89.0312 55.4922ZM97.9844 61.2578V76.375H95.1602V58.8203H97.7617L97.9844 61.2578ZM106.246 65.043V65.2891C106.246 66.2109 106.137 67.0664 105.918 67.8555C105.707 68.6367 105.391 69.3203 104.969 69.9062C104.555 70.4844 104.043 70.9336 103.434 71.2539C102.824 71.5742 102.121 71.7344 101.324 71.7344C100.535 71.7344 99.8438 71.5898 99.25 71.3008C98.6641 71.0039 98.168 70.5859 97.7617 70.0469C97.3555 69.5078 97.0273 68.875 96.7773 68.1484C96.5352 67.4141 96.3633 66.6094 96.2617 65.7344V64.7852C96.3633 63.8555 96.5352 63.0117 96.7773 62.2539C97.0273 61.4961 97.3555 60.8438 97.7617 60.2969C98.168 59.75 98.6641 59.3281 99.25 59.0312C99.8359 58.7344 100.52 58.5859 101.301 58.5859C102.098 58.5859 102.805 58.7422 103.422 59.0547C104.039 59.3594 104.559 59.7969 104.98 60.3672C105.402 60.9297 105.719 61.6094 105.93 62.4062C106.141 63.1953 106.246 64.0742 106.246 65.043ZM103.422 65.2891V65.043C103.422 64.457 103.367 63.9141 103.258 63.4141C103.148 62.9062 102.977 62.4609 102.742 62.0781C102.508 61.6953 102.207 61.3984 101.84 61.1875C101.48 60.9688 101.047 60.8594 100.539 60.8594C100.039 60.8594 99.6094 60.9453 99.25 61.1172C98.8906 61.2812 98.5898 61.5117 98.3477 61.8086C98.1055 62.1055 97.918 62.4531 97.7852 62.8516C97.6523 63.2422 97.5586 63.668 97.5039 64.1289V66.4023C97.5977 66.9648 97.7578 67.4805 97.9844 67.9492C98.2109 68.418 98.5312 68.793 98.9453 69.0742C99.3672 69.3477 99.9062 69.4844 100.562 69.4844C101.07 69.4844 101.504 69.375 101.863 69.1562C102.223 68.9375 102.516 68.6367 102.742 68.2539C102.977 67.8633 103.148 67.4141 103.258 66.9062C103.367 66.3984 103.422 65.8594 103.422 65.2891ZM108.109 65.3008V65.0312C108.109 64.1172 108.242 63.2695 108.508 62.4883C108.773 61.6992 109.156 61.0156 109.656 60.4375C110.164 59.8516 110.781 59.3984 111.508 59.0781C112.242 58.75 113.07 58.5859 113.992 58.5859C114.922 58.5859 115.75 58.75 116.477 59.0781C117.211 59.3984 117.832 59.8516 118.34 60.4375C118.848 61.0156 119.234 61.6992 119.5 62.4883C119.766 63.2695 119.898 64.1172 119.898 65.0312V65.3008C119.898 66.2148 119.766 67.0625 119.5 67.8438C119.234 68.625 118.848 69.3086 118.34 69.8945C117.832 70.4727 117.215 70.9258 116.488 71.2539C115.762 71.5742 114.938 71.7344 114.016 71.7344C113.086 71.7344 112.254 71.5742 111.52 71.2539C110.793 70.9258 110.176 70.4727 109.668 69.8945C109.16 69.3086 108.773 68.625 108.508 67.8438C108.242 67.0625 108.109 66.2148 108.109 65.3008ZM110.934 65.0312V65.3008C110.934 65.8711 110.992 66.4102 111.109 66.918C111.227 67.4258 111.41 67.8711 111.66 68.2539C111.91 68.6367 112.23 68.9375 112.621 69.1562C113.012 69.375 113.477 69.4844 114.016 69.4844C114.539 69.4844 114.992 69.375 115.375 69.1562C115.766 68.9375 116.086 68.6367 116.336 68.2539C116.586 67.8711 116.77 67.4258 116.887 66.918C117.012 66.4102 117.074 65.8711 117.074 65.3008V65.0312C117.074 64.4688 117.012 63.9375 116.887 63.4375C116.77 62.9297 116.582 62.4805 116.324 62.0898C116.074 61.6992 115.754 61.3945 115.363 61.1758C114.98 60.9492 114.523 60.8359 113.992 60.8359C113.461 60.8359 113 60.9492 112.609 61.1758C112.227 61.3945 111.91 61.6992 111.66 62.0898C111.41 62.4805 111.227 62.9297 111.109 63.4375C110.992 63.9375 110.934 64.4688 110.934 65.0312ZM125.102 61.2344V71.5H122.277V58.8203H124.973L125.102 61.2344ZM128.98 58.7383L128.957 61.3633C128.785 61.332 128.598 61.3086 128.395 61.293C128.199 61.2773 128.004 61.2695 127.809 61.2695C127.324 61.2695 126.898 61.3398 126.531 61.4805C126.164 61.6133 125.855 61.8086 125.605 62.0664C125.363 62.3164 125.176 62.6211 125.043 62.9805C124.91 63.3398 124.832 63.7422 124.809 64.1875L124.164 64.2344C124.164 63.4375 124.242 62.6992 124.398 62.0195C124.555 61.3398 124.789 60.7422 125.102 60.2266C125.422 59.7109 125.82 59.3086 126.297 59.0195C126.781 58.7305 127.34 58.5859 127.973 58.5859C128.145 58.5859 128.328 58.6016 128.523 58.6328C128.727 58.6641 128.879 58.6992 128.98 58.7383ZM137.148 58.8203V60.8828H130V58.8203H137.148ZM132.062 55.7148H134.887V67.9961C134.887 68.3867 134.941 68.6875 135.051 68.8984C135.168 69.1016 135.328 69.2383 135.531 69.3086C135.734 69.3789 135.973 69.4141 136.246 69.4141C136.441 69.4141 136.629 69.4023 136.809 69.3789C136.988 69.3555 137.133 69.332 137.242 69.3086L137.254 71.4648C137.02 71.5352 136.746 71.5977 136.434 71.6523C136.129 71.707 135.777 71.7344 135.379 71.7344C134.73 71.7344 134.156 71.6211 133.656 71.3945C133.156 71.1602 132.766 70.7812 132.484 70.2578C132.203 69.7344 132.062 69.0391 132.062 68.1719V55.7148ZM146.477 68.957V62.9102C146.477 62.457 146.395 62.0664 146.23 61.7383C146.066 61.4102 145.816 61.1562 145.48 60.9766C145.152 60.7969 144.738 60.707 144.238 60.707C143.777 60.707 143.379 60.7852 143.043 60.9414C142.707 61.0977 142.445 61.3086 142.258 61.5742C142.07 61.8398 141.977 62.1406 141.977 62.4766H139.164C139.164 61.9766 139.285 61.4922 139.527 61.0234C139.77 60.5547 140.121 60.1367 140.582 59.7695C141.043 59.4023 141.594 59.1133 142.234 58.9023C142.875 58.6914 143.594 58.5859 144.391 58.5859C145.344 58.5859 146.188 58.7461 146.922 59.0664C147.664 59.3867 148.246 59.8711 148.668 60.5195C149.098 61.1602 149.312 61.9648 149.312 62.9336V68.5703C149.312 69.1484 149.352 69.668 149.43 70.1289C149.516 70.582 149.637 70.9766 149.793 71.3125V71.5H146.898C146.766 71.1953 146.66 70.8086 146.582 70.3398C146.512 69.8633 146.477 69.4023 146.477 68.957ZM146.887 63.7891L146.91 65.5352H144.883C144.359 65.5352 143.898 65.5859 143.5 65.6875C143.102 65.7812 142.77 65.9219 142.504 66.1094C142.238 66.2969 142.039 66.5234 141.906 66.7891C141.773 67.0547 141.707 67.3555 141.707 67.6914C141.707 68.0273 141.785 68.3359 141.941 68.6172C142.098 68.8906 142.324 69.1055 142.621 69.2617C142.926 69.418 143.293 69.4961 143.723 69.4961C144.301 69.4961 144.805 69.3789 145.234 69.1445C145.672 68.9023 146.016 68.6094 146.266 68.2656C146.516 67.9141 146.648 67.582 146.664 67.2695L147.578 68.5234C147.484 68.8438 147.324 69.1875 147.098 69.5547C146.871 69.9219 146.574 70.2734 146.207 70.6094C145.848 70.9375 145.414 71.207 144.906 71.418C144.406 71.6289 143.828 71.7344 143.172 71.7344C142.344 71.7344 141.605 71.5703 140.957 71.2422C140.309 70.9062 139.801 70.457 139.434 69.8945C139.066 69.3242 138.883 68.6797 138.883 67.9609C138.883 67.2891 139.008 66.6953 139.258 66.1797C139.516 65.6562 139.891 65.2188 140.383 64.8672C140.883 64.5156 141.492 64.25 142.211 64.0703C142.93 63.8828 143.75 63.7891 144.672 63.7891H146.887ZM159.414 68.957V62.9102C159.414 62.457 159.332 62.0664 159.168 61.7383C159.004 61.4102 158.754 61.1562 158.418 60.9766C158.09 60.7969 157.676 60.707 157.176 60.707C156.715 60.707 156.316 60.7852 155.98 60.9414C155.645 61.0977 155.383 61.3086 155.195 61.5742C155.008 61.8398 154.914 62.1406 154.914 62.4766H152.102C152.102 61.9766 152.223 61.4922 152.465 61.0234C152.707 60.5547 153.059 60.1367 153.52 59.7695C153.98 59.4023 154.531 59.1133 155.172 58.9023C155.812 58.6914 156.531 58.5859 157.328 58.5859C158.281 58.5859 159.125 58.7461 159.859 59.0664C160.602 59.3867 161.184 59.8711 161.605 60.5195C162.035 61.1602 162.25 61.9648 162.25 62.9336V68.5703C162.25 69.1484 162.289 69.668 162.367 70.1289C162.453 70.582 162.574 70.9766 162.73 71.3125V71.5H159.836C159.703 71.1953 159.598 70.8086 159.52 70.3398C159.449 69.8633 159.414 69.4023 159.414 68.957ZM159.824 63.7891L159.848 65.5352H157.82C157.297 65.5352 156.836 65.5859 156.438 65.6875C156.039 65.7812 155.707 65.9219 155.441 66.1094C155.176 66.2969 154.977 66.5234 154.844 66.7891C154.711 67.0547 154.645 67.3555 154.645 67.6914C154.645 68.0273 154.723 68.3359 154.879 68.6172C155.035 68.8906 155.262 69.1055 155.559 69.2617C155.863 69.418 156.23 69.4961 156.66 69.4961C157.238 69.4961 157.742 69.3789 158.172 69.1445C158.609 68.9023 158.953 68.6094 159.203 68.2656C159.453 67.9141 159.586 67.582 159.602 67.2695L160.516 68.5234C160.422 68.8438 160.262 69.1875 160.035 69.5547C159.809 69.9219 159.512 70.2734 159.145 70.6094C158.785 70.9375 158.352 71.207 157.844 71.418C157.344 71.6289 156.766 71.7344 156.109 71.7344C155.281 71.7344 154.543 71.5703 153.895 71.2422C153.246 70.9062 152.738 70.457 152.371 69.8945C152.004 69.3242 151.82 68.6797 151.82 67.9609C151.82 67.2891 151.945 66.6953 152.195 66.1797C152.453 65.6562 152.828 65.2188 153.32 64.8672C153.82 64.5156 154.43 64.25 155.148 64.0703C155.867 63.8828 156.688 63.7891 157.609 63.7891H159.824ZM168.227 53.5V71.5H165.391V53.5H168.227ZM184.445 68.957V62.9102C184.445 62.457 184.363 62.0664 184.199 61.7383C184.035 61.4102 183.785 61.1562 183.449 60.9766C183.121 60.7969 182.707 60.707 182.207 60.707C181.746 60.707 181.348 60.7852 181.012 60.9414C180.676 61.0977 180.414 61.3086 180.227 61.5742C180.039 61.8398 179.945 62.1406 179.945 62.4766H177.133C177.133 61.9766 177.254 61.4922 177.496 61.0234C177.738 60.5547 178.09 60.1367 178.551 59.7695C179.012 59.4023 179.562 59.1133 180.203 58.9023C180.844 58.6914 181.562 58.5859 182.359 58.5859C183.312 58.5859 184.156 58.7461 184.891 59.0664C185.633 59.3867 186.215 59.8711 186.637 60.5195C187.066 61.1602 187.281 61.9648 187.281 62.9336V68.5703C187.281 69.1484 187.32 69.668 187.398 70.1289C187.484 70.582 187.605 70.9766 187.762 71.3125V71.5H184.867C184.734 71.1953 184.629 70.8086 184.551 70.3398C184.48 69.8633 184.445 69.4023 184.445 68.957ZM184.855 63.7891L184.879 65.5352H182.852C182.328 65.5352 181.867 65.5859 181.469 65.6875C181.07 65.7812 180.738 65.9219 180.473 66.1094C180.207 66.2969 180.008 66.5234 179.875 66.7891C179.742 67.0547 179.676 67.3555 179.676 67.6914C179.676 68.0273 179.754 68.3359 179.91 68.6172C180.066 68.8906 180.293 69.1055 180.59 69.2617C180.895 69.418 181.262 69.4961 181.691 69.4961C182.27 69.4961 182.773 69.3789 183.203 69.1445C183.641 68.9023 183.984 68.6094 184.234 68.2656C184.484 67.9141 184.617 67.582 184.633 67.2695L185.547 68.5234C185.453 68.8438 185.293 69.1875 185.066 69.5547C184.84 69.9219 184.543 70.2734 184.176 70.6094C183.816 70.9375 183.383 71.207 182.875 71.418C182.375 71.6289 181.797 71.7344 181.141 71.7344C180.312 71.7344 179.574 71.5703 178.926 71.2422C178.277 70.9062 177.77 70.457 177.402 69.8945C177.035 69.3242 176.852 68.6797 176.852 67.9609C176.852 67.2891 176.977 66.6953 177.227 66.1797C177.484 65.6562 177.859 65.2188 178.352 64.8672C178.852 64.5156 179.461 64.25 180.18 64.0703C180.898 63.8828 181.719 63.7891 182.641 63.7891H184.855ZM193.258 53.5V71.5H190.422V53.5H193.258ZM203.5 68.957V62.9102C203.5 62.457 203.418 62.0664 203.254 61.7383C203.09 61.4102 202.84 61.1562 202.504 60.9766C202.176 60.7969 201.762 60.707 201.262 60.707C200.801 60.707 200.402 60.7852 200.066 60.9414C199.73 61.0977 199.469 61.3086 199.281 61.5742C199.094 61.8398 199 62.1406 199 62.4766H196.188C196.188 61.9766 196.309 61.4922 196.551 61.0234C196.793 60.5547 197.145 60.1367 197.605 59.7695C198.066 59.4023 198.617 59.1133 199.258 58.9023C199.898 58.6914 200.617 58.5859 201.414 58.5859C202.367 58.5859 203.211 58.7461 203.945 59.0664C204.688 59.3867 205.27 59.8711 205.691 60.5195C206.121 61.1602 206.336 61.9648 206.336 62.9336V68.5703C206.336 69.1484 206.375 69.668 206.453 70.1289C206.539 70.582 206.66 70.9766 206.816 71.3125V71.5H203.922C203.789 71.1953 203.684 70.8086 203.605 70.3398C203.535 69.8633 203.5 69.4023 203.5 68.957ZM203.91 63.7891L203.934 65.5352H201.906C201.383 65.5352 200.922 65.5859 200.523 65.6875C200.125 65.7812 199.793 65.9219 199.527 66.1094C199.262 66.2969 199.062 66.5234 198.93 66.7891C198.797 67.0547 198.73 67.3555 198.73 67.6914C198.73 68.0273 198.809 68.3359 198.965 68.6172C199.121 68.8906 199.348 69.1055 199.645 69.2617C199.949 69.418 200.316 69.4961 200.746 69.4961C201.324 69.4961 201.828 69.3789 202.258 69.1445C202.695 68.9023 203.039 68.6094 203.289 68.2656C203.539 67.9141 203.672 67.582 203.688 67.2695L204.602 68.5234C204.508 68.8438 204.348 69.1875 204.121 69.5547C203.895 69.9219 203.598 70.2734 203.23 70.6094C202.871 70.9375 202.438 71.207 201.93 71.418C201.43 71.6289 200.852 71.7344 200.195 71.7344C199.367 71.7344 198.629 71.5703 197.98 71.2422C197.332 70.9062 196.824 70.457 196.457 69.8945C196.09 69.3242 195.906 68.6797 195.906 67.9609C195.906 67.2891 196.031 66.6953 196.281 66.1797C196.539 65.6562 196.914 65.2188 197.406 64.8672C197.906 64.5156 198.516 64.25 199.234 64.0703C199.953 63.8828 200.773 63.7891 201.695 63.7891H203.91ZM215.102 58.8203V60.8828H207.953V58.8203H215.102ZM210.016 55.7148H212.84V67.9961C212.84 68.3867 212.895 68.6875 213.004 68.8984C213.121 69.1016 213.281 69.2383 213.484 69.3086C213.688 69.3789 213.926 69.4141 214.199 69.4141C214.395 69.4141 214.582 69.4023 214.762 69.3789C214.941 69.3555 215.086 69.332 215.195 69.3086L215.207 71.4648C214.973 71.5352 214.699 71.5977 214.387 71.6523C214.082 71.707 213.73 71.7344 213.332 71.7344C212.684 71.7344 212.109 71.6211 211.609 71.3945C211.109 71.1602 210.719 70.7812 210.438 70.2578C210.156 69.7344 210.016 69.0391 210.016 68.1719V55.7148ZM220.305 58.8203V71.5H217.469V58.8203H220.305ZM217.281 55.4922C217.281 55.0625 217.422 54.707 217.703 54.4258C217.992 54.1367 218.391 53.9922 218.898 53.9922C219.398 53.9922 219.793 54.1367 220.082 54.4258C220.371 54.707 220.516 55.0625 220.516 55.4922C220.516 55.9141 220.371 56.2656 220.082 56.5469C219.793 56.8281 219.398 56.9688 218.898 56.9688C218.391 56.9688 217.992 56.8281 217.703 56.5469C217.422 56.2656 217.281 55.9141 217.281 55.4922ZM228.836 65.3008V65.0312C228.836 64.1172 228.969 63.2695 229.234 62.4883C229.5 61.6992 229.883 61.0156 230.383 60.4375C230.891 59.8516 231.508 59.3984 232.234 59.0781C232.969 58.75 233.797 58.5859 234.719 58.5859C235.648 58.5859 236.477 58.75 237.203 59.0781C237.938 59.3984 238.559 59.8516 239.066 60.4375C239.574 61.0156 239.961 61.6992 240.227 62.4883C240.492 63.2695 240.625 64.1172 240.625 65.0312V65.3008C240.625 66.2148 240.492 67.0625 240.227 67.8438C239.961 68.625 239.574 69.3086 239.066 69.8945C238.559 70.4727 237.941 70.9258 237.215 71.2539C236.488 71.5742 235.664 71.7344 234.742 71.7344C233.812 71.7344 232.98 71.5742 232.246 71.2539C231.52 70.9258 230.902 70.4727 230.395 69.8945C229.887 69.3086 229.5 68.625 229.234 67.8438C228.969 67.0625 228.836 66.2148 228.836 65.3008ZM231.66 65.0312V65.3008C231.66 65.8711 231.719 66.4102 231.836 66.918C231.953 67.4258 232.137 67.8711 232.387 68.2539C232.637 68.6367 232.957 68.9375 233.348 69.1562C233.738 69.375 234.203 69.4844 234.742 69.4844C235.266 69.4844 235.719 69.375 236.102 69.1562C236.492 68.9375 236.812 68.6367 237.062 68.2539C237.312 67.8711 237.496 67.4258 237.613 66.918C237.738 66.4102 237.801 65.8711 237.801 65.3008V65.0312C237.801 64.4688 237.738 63.9375 237.613 63.4375C237.496 62.9297 237.309 62.4805 237.051 62.0898C236.801 61.6992 236.48 61.3945 236.09 61.1758C235.707 60.9492 235.25 60.8359 234.719 60.8359C234.188 60.8359 233.727 60.9492 233.336 61.1758C232.953 61.3945 232.637 61.6992 232.387 62.0898C232.137 62.4805 231.953 62.9297 231.836 63.4375C231.719 63.9375 231.66 64.4688 231.66 65.0312ZM246.016 53.5V71.5H243.18V53.5H246.016ZM254.699 71.7344C253.762 71.7344 252.914 71.582 252.156 71.2773C251.406 70.9648 250.766 70.5312 250.234 69.9766C249.711 69.4219 249.309 68.7695 249.027 68.0195C248.746 67.2695 248.605 66.4609 248.605 65.5938V65.125C248.605 64.1328 248.75 63.2344 249.039 62.4297C249.328 61.625 249.73 60.9375 250.246 60.3672C250.762 59.7891 251.371 59.3477 252.074 59.043C252.777 58.7383 253.539 58.5859 254.359 58.5859C255.266 58.5859 256.059 58.7383 256.738 59.043C257.418 59.3477 257.98 59.7773 258.426 60.332C258.879 60.8789 259.215 61.5312 259.434 62.2891C259.66 63.0469 259.773 63.8828 259.773 64.7969V66.0039H249.977V63.9766H256.984V63.7539C256.969 63.2461 256.867 62.7695 256.68 62.3242C256.5 61.8789 256.223 61.5195 255.848 61.2461C255.473 60.9727 254.973 60.8359 254.348 60.8359C253.879 60.8359 253.461 60.9375 253.094 61.1406C252.734 61.3359 252.434 61.6211 252.191 61.9961C251.949 62.3711 251.762 62.8242 251.629 63.3555C251.504 63.8789 251.441 64.4688 251.441 65.125V65.5938C251.441 66.1484 251.516 66.6641 251.664 67.1406C251.82 67.6094 252.047 68.0195 252.344 68.3711C252.641 68.7227 253 69 253.422 69.2031C253.844 69.3984 254.324 69.4961 254.863 69.4961C255.543 69.4961 256.148 69.3594 256.68 69.0859C257.211 68.8125 257.672 68.4258 258.062 67.9258L259.551 69.3672C259.277 69.7656 258.922 70.1484 258.484 70.5156C258.047 70.875 257.512 71.168 256.879 71.3945C256.254 71.6211 255.527 71.7344 254.699 71.7344ZM264.801 61.3984V71.5H261.977V58.8203H264.637L264.801 61.3984ZM264.344 64.6914L263.383 64.6797C263.383 63.8047 263.492 62.9961 263.711 62.2539C263.93 61.5117 264.25 60.8672 264.672 60.3203C265.094 59.7656 265.617 59.3398 266.242 59.043C266.875 58.7383 267.605 58.5859 268.434 58.5859C269.012 58.5859 269.539 58.6719 270.016 58.8438C270.5 59.0078 270.918 59.2695 271.27 59.6289C271.629 59.9883 271.902 60.4492 272.09 61.0117C272.285 61.5742 272.383 62.2539 272.383 63.0508V71.5H269.559V63.2969C269.559 62.6797 269.465 62.1953 269.277 61.8438C269.098 61.4922 268.836 61.2422 268.492 61.0938C268.156 60.9375 267.754 60.8594 267.285 60.8594C266.754 60.8594 266.301 60.9609 265.926 61.1641C265.559 61.3672 265.258 61.6445 265.023 61.9961C264.789 62.3477 264.617 62.7539 264.508 63.2148C264.398 63.6758 264.344 64.168 264.344 64.6914ZM272.207 63.9414L270.883 64.2344C270.883 63.4688 270.988 62.7461 271.199 62.0664C271.418 61.3789 271.734 60.7773 272.148 60.2617C272.57 59.7383 273.09 59.3281 273.707 59.0312C274.324 58.7344 275.031 58.5859 275.828 58.5859C276.477 58.5859 277.055 58.6758 277.562 58.8555C278.078 59.0273 278.516 59.3008 278.875 59.6758C279.234 60.0508 279.508 60.5391 279.695 61.1406C279.883 61.7344 279.977 62.4531 279.977 63.2969V71.5H277.141V63.2852C277.141 62.6445 277.047 62.1484 276.859 61.7969C276.68 61.4453 276.422 61.2031 276.086 61.0703C275.75 60.9297 275.348 60.8594 274.879 60.8594C274.441 60.8594 274.055 60.9414 273.719 61.1055C273.391 61.2617 273.113 61.4844 272.887 61.7734C272.66 62.0547 272.488 62.3789 272.371 62.7461C272.262 63.1133 272.207 63.5117 272.207 63.9414ZM290.031 68.957V62.9102C290.031 62.457 289.949 62.0664 289.785 61.7383C289.621 61.4102 289.371 61.1562 289.035 60.9766C288.707 60.7969 288.293 60.707 287.793 60.707C287.332 60.707 286.934 60.7852 286.598 60.9414C286.262 61.0977 286 61.3086 285.812 61.5742C285.625 61.8398 285.531 62.1406 285.531 62.4766H282.719C282.719 61.9766 282.84 61.4922 283.082 61.0234C283.324 60.5547 283.676 60.1367 284.137 59.7695C284.598 59.4023 285.148 59.1133 285.789 58.9023C286.43 58.6914 287.148 58.5859 287.945 58.5859C288.898 58.5859 289.742 58.7461 290.477 59.0664C291.219 59.3867 291.801 59.8711 292.223 60.5195C292.652 61.1602 292.867 61.9648 292.867 62.9336V68.5703C292.867 69.1484 292.906 69.668 292.984 70.1289C293.07 70.582 293.191 70.9766 293.348 71.3125V71.5H290.453C290.32 71.1953 290.215 70.8086 290.137 70.3398C290.066 69.8633 290.031 69.4023 290.031 68.957ZM290.441 63.7891L290.465 65.5352H288.438C287.914 65.5352 287.453 65.5859 287.055 65.6875C286.656 65.7812 286.324 65.9219 286.059 66.1094C285.793 66.2969 285.594 66.5234 285.461 66.7891C285.328 67.0547 285.262 67.3555 285.262 67.6914C285.262 68.0273 285.34 68.3359 285.496 68.6172C285.652 68.8906 285.879 69.1055 286.176 69.2617C286.48 69.418 286.848 69.4961 287.277 69.4961C287.855 69.4961 288.359 69.3789 288.789 69.1445C289.227 68.9023 289.57 68.6094 289.82 68.2656C290.07 67.9141 290.203 67.582 290.219 67.2695L291.133 68.5234C291.039 68.8438 290.879 69.1875 290.652 69.5547C290.426 69.9219 290.129 70.2734 289.762 70.6094C289.402 70.9375 288.969 71.207 288.461 71.418C287.961 71.6289 287.383 71.7344 286.727 71.7344C285.898 71.7344 285.16 71.5703 284.512 71.2422C283.863 70.9062 283.355 70.457 282.988 69.8945C282.621 69.3242 282.438 68.6797 282.438 67.9609C282.438 67.2891 282.562 66.6953 282.812 66.1797C283.07 65.6562 283.445 65.2188 283.938 64.8672C284.438 64.5156 285.047 64.25 285.766 64.0703C286.484 63.8828 287.305 63.7891 288.227 63.7891H290.441ZM302.934 68.0664C302.934 67.7852 302.863 67.5312 302.723 67.3047C302.582 67.0703 302.312 66.8594 301.914 66.6719C301.523 66.4844 300.945 66.3125 300.18 66.1562C299.508 66.0078 298.891 65.832 298.328 65.6289C297.773 65.418 297.297 65.1641 296.898 64.8672C296.5 64.5703 296.191 64.2188 295.973 63.8125C295.754 63.4062 295.645 62.9375 295.645 62.4062C295.645 61.8906 295.758 61.4023 295.984 60.9414C296.211 60.4805 296.535 60.0742 296.957 59.7227C297.379 59.3711 297.891 59.0938 298.492 58.8906C299.102 58.6875 299.781 58.5859 300.531 58.5859C301.594 58.5859 302.504 58.7656 303.262 59.125C304.027 59.4766 304.613 59.957 305.02 60.5664C305.426 61.168 305.629 61.8477 305.629 62.6055H302.805C302.805 62.2695 302.719 61.957 302.547 61.668C302.383 61.3711 302.133 61.1328 301.797 60.9531C301.461 60.7656 301.039 60.6719 300.531 60.6719C300.047 60.6719 299.645 60.75 299.324 60.9062C299.012 61.0547 298.777 61.25 298.621 61.4922C298.473 61.7344 298.398 62 298.398 62.2891C298.398 62.5 298.438 62.6914 298.516 62.8633C298.602 63.0273 298.742 63.1797 298.938 63.3203C299.133 63.4531 299.398 63.5781 299.734 63.6953C300.078 63.8125 300.508 63.9258 301.023 64.0352C301.992 64.2383 302.824 64.5 303.52 64.8203C304.223 65.1328 304.762 65.5391 305.137 66.0391C305.512 66.5312 305.699 67.1562 305.699 67.9141C305.699 68.4766 305.578 68.9922 305.336 69.4609C305.102 69.9219 304.758 70.3242 304.305 70.668C303.852 71.0039 303.309 71.2656 302.676 71.4531C302.051 71.6406 301.348 71.7344 300.566 71.7344C299.418 71.7344 298.445 71.5312 297.648 71.125C296.852 70.7109 296.246 70.1836 295.832 69.543C295.426 68.8945 295.223 68.2227 295.223 67.5273H297.953C297.984 68.0508 298.129 68.4688 298.387 68.7812C298.652 69.0859 298.98 69.3086 299.371 69.4492C299.77 69.582 300.18 69.6484 300.602 69.6484C301.109 69.6484 301.535 69.582 301.879 69.4492C302.223 69.3086 302.484 69.1211 302.664 68.8867C302.844 68.6445 302.934 68.3711 302.934 68.0664ZM308.289 70.0938C308.289 69.6562 308.438 69.2891 308.734 68.9922C309.031 68.6875 309.434 68.5352 309.941 68.5352C310.457 68.5352 310.859 68.6875 311.148 68.9922C311.445 69.2891 311.594 69.6562 311.594 70.0938C311.594 70.5312 311.445 70.8984 311.148 71.1953C310.859 71.4922 310.457 71.6406 309.941 71.6406C309.434 71.6406 309.031 71.4922 308.734 71.1953C308.438 70.8984 308.289 70.5312 308.289 70.0938Z" fill="#461102"/>
</svg>
