<svg width="350" height="100" viewBox="0 0 350 100" fill="none" xmlns="http://www.w3.org/2000/svg">
<path d="M33.6719 28.4375V45.5H30.7305L23.0781 33.2773V45.5H20.1367V28.4375H23.0781L30.7539 40.6836V28.4375H33.6719ZM44.043 42.957V36.9102C44.043 36.457 43.9609 36.0664 43.7969 35.7383C43.6328 35.4102 43.3828 35.1562 43.0469 34.9766C42.7188 34.7969 42.3047 34.707 41.8047 34.707C41.3438 34.707 40.9453 34.7852 40.6094 34.9414C40.2734 35.0977 40.0117 35.3086 39.8242 35.5742C39.6367 35.8398 39.543 36.1406 39.543 36.4766H36.7305C36.7305 35.9766 36.8516 35.4922 37.0938 35.0234C37.3359 34.5547 37.6875 34.1367 38.1484 33.7695C38.6094 33.4023 39.1602 33.1133 39.8008 32.9023C40.4414 32.6914 41.1602 32.5859 41.957 32.5859C42.9102 32.5859 43.7539 32.7461 44.4883 33.0664C45.2305 33.3867 45.8125 33.8711 46.2344 34.5195C46.6641 35.1602 46.8789 35.9648 46.8789 36.9336V42.5703C46.8789 43.1484 46.918 43.668 46.9961 44.1289C47.082 44.582 47.2031 44.9766 47.3594 45.3125V45.5H44.4648C44.332 45.1953 44.2266 44.8086 44.1484 44.3398C44.0781 43.8633 44.043 43.4023 44.043 42.957ZM44.4531 37.7891L44.4766 39.5352H42.4492C41.9258 39.5352 41.4648 39.5859 41.0664 39.6875C40.668 39.7812 40.3359 39.9219 40.0703 40.1094C39.8047 40.2969 39.6055 40.5234 39.4727 40.7891C39.3398 41.0547 39.2734 41.3555 39.2734 41.6914C39.2734 42.0273 39.3516 42.3359 39.5078 42.6172C39.6641 42.8906 39.8906 43.1055 40.1875 43.2617C40.4922 43.418 40.8594 43.4961 41.2891 43.4961C41.8672 43.4961 42.3711 43.3789 42.8008 43.1445C43.2383 42.9023 43.582 42.6094 43.832 42.2656C44.082 41.9141 44.2148 41.582 44.2305 41.2695L45.1445 42.5234C45.0508 42.8438 44.8906 43.1875 44.6641 43.5547C44.4375 43.9219 44.1406 44.2734 43.7734 44.6094C43.4141 44.9375 42.9805 45.207 42.4727 45.418C41.9727 45.6289 41.3945 45.7344 40.7383 45.7344C39.9102 45.7344 39.1719 45.5703 38.5234 45.2422C37.875 44.9062 37.3672 44.457 37 43.8945C36.6328 43.3242 36.4492 42.6797 36.4492 41.9609C36.4492 41.2891 36.5742 40.6953 36.8242 40.1797C37.082 39.6562 37.457 39.2188 37.9492 38.8672C38.4492 38.5156 39.0586 38.25 39.7773 38.0703C40.4961 37.8828 41.3164 37.7891 42.2383 37.7891H44.4531ZM52.8555 32.8203V45.5H50.0195V32.8203H52.8555ZM49.832 29.4922C49.832 29.0625 49.9727 28.707 50.2539 28.4258C50.543 28.1367 50.9414 27.9922 51.4492 27.9922C51.9492 27.9922 52.3438 28.1367 52.6328 28.4258C52.9219 28.707 53.0664 29.0625 53.0664 29.4922C53.0664 29.9141 52.9219 30.2656 52.6328 30.5469C52.3438 30.8281 51.9492 30.9688 51.4492 30.9688C50.9414 30.9688 50.543 30.8281 50.2539 30.5469C49.9727 30.2656 49.832 29.9141 49.832 29.4922ZM63.0625 42.0664C63.0625 41.7852 62.9922 41.5312 62.8516 41.3047C62.7109 41.0703 62.4414 40.8594 62.043 40.6719C61.6523 40.4844 61.0742 40.3125 60.3086 40.1562C59.6367 40.0078 59.0195 39.832 58.457 39.6289C57.9023 39.418 57.4258 39.1641 57.0273 38.8672C56.6289 38.5703 56.3203 38.2188 56.1016 37.8125C55.8828 37.4062 55.7734 36.9375 55.7734 36.4062C55.7734 35.8906 55.8867 35.4023 56.1133 34.9414C56.3398 34.4805 56.6641 34.0742 57.0859 33.7227C57.5078 33.3711 58.0195 33.0938 58.6211 32.8906C59.2305 32.6875 59.9102 32.5859 60.6602 32.5859C61.7227 32.5859 62.6328 32.7656 63.3906 33.125C64.1562 33.4766 64.7422 33.957 65.1484 34.5664C65.5547 35.168 65.7578 35.8477 65.7578 36.6055H62.9336C62.9336 36.2695 62.8477 35.957 62.6758 35.668C62.5117 35.3711 62.2617 35.1328 61.9258 34.9531C61.5898 34.7656 61.168 34.6719 60.6602 34.6719C60.1758 34.6719 59.7734 34.75 59.4531 34.9062C59.1406 35.0547 58.9062 35.25 58.75 35.4922C58.6016 35.7344 58.5273 36 58.5273 36.2891C58.5273 36.5 58.5664 36.6914 58.6445 36.8633C58.7305 37.0273 58.8711 37.1797 59.0664 37.3203C59.2617 37.4531 59.5273 37.5781 59.8633 37.6953C60.207 37.8125 60.6367 37.9258 61.1523 38.0352C62.1211 38.2383 62.9531 38.5 63.6484 38.8203C64.3516 39.1328 64.8906 39.5391 65.2656 40.0391C65.6406 40.5312 65.8281 41.1562 65.8281 41.9141C65.8281 42.4766 65.707 42.9922 65.4648 43.4609C65.2305 43.9219 64.8867 44.3242 64.4336 44.668C63.9805 45.0039 63.4375 45.2656 62.8047 45.4531C62.1797 45.6406 61.4766 45.7344 60.6953 45.7344C59.5469 45.7344 58.5742 45.5312 57.7773 45.125C56.9805 44.7109 56.375 44.1836 55.9609 43.543C55.5547 42.8945 55.3516 42.2227 55.3516 41.5273H58.082C58.1133 42.0508 58.2578 42.4688 58.5156 42.7812C58.7812 43.0859 59.1094 43.3086 59.5 43.4492C59.8984 43.582 60.3086 43.6484 60.7305 43.6484C61.2383 43.6484 61.6641 43.582 62.0078 43.4492C62.3516 43.3086 62.6133 43.1211 62.793 42.8867C62.9727 42.6445 63.0625 42.3711 63.0625 42.0664ZM74.1133 32.8203V34.8828H66.9648V32.8203H74.1133ZM69.0273 29.7148H71.8516V41.9961C71.8516 42.3867 71.9062 42.6875 72.0156 42.8984C72.1328 43.1016 72.293 43.2383 72.4961 43.3086C72.6992 43.3789 72.9375 43.4141 73.2109 43.4141C73.4062 43.4141 73.5938 43.4023 73.7734 43.3789C73.9531 43.3555 74.0977 43.332 74.207 43.3086L74.2188 45.4648C73.9844 45.5352 73.7109 45.5977 73.3984 45.6523C73.0938 45.707 72.7422 45.7344 72.3438 45.7344C71.6953 45.7344 71.1211 45.6211 70.6211 45.3945C70.1211 45.1602 69.7305 44.7812 69.4492 44.2578C69.168 43.7344 69.0273 43.0391 69.0273 42.1719V29.7148ZM81.8828 45.7344C80.9453 45.7344 80.0977 45.582 79.3398 45.2773C78.5898 44.9648 77.9492 44.5312 77.418 43.9766C76.8945 43.4219 76.4922 42.7695 76.2109 42.0195C75.9297 41.2695 75.7891 40.4609 75.7891 39.5938V39.125C75.7891 38.1328 75.9336 37.2344 76.2227 36.4297C76.5117 35.625 76.9141 34.9375 77.4297 34.3672C77.9453 33.7891 78.5547 33.3477 79.2578 33.043C79.9609 32.7383 80.7227 32.5859 81.543 32.5859C82.4492 32.5859 83.2422 32.7383 83.9219 33.043C84.6016 33.3477 85.1641 33.7773 85.6094 34.332C86.0625 34.8789 86.3984 35.5312 86.6172 36.2891C86.8438 37.0469 86.957 37.8828 86.957 38.7969V40.0039H77.1602V37.9766H84.168V37.7539C84.1523 37.2461 84.0508 36.7695 83.8633 36.3242C83.6836 35.8789 83.4062 35.5195 83.0312 35.2461C82.6562 34.9727 82.1562 34.8359 81.5312 34.8359C81.0625 34.8359 80.6445 34.9375 80.2773 35.1406C79.918 35.3359 79.6172 35.6211 79.375 35.9961C79.1328 36.3711 78.9453 36.8242 78.8125 37.3555C78.6875 37.8789 78.625 38.4688 78.625 39.125V39.5938C78.625 40.1484 78.6992 40.6641 78.8477 41.1406C79.0039 41.6094 79.2305 42.0195 79.5273 42.3711C79.8242 42.7227 80.1836 43 80.6055 43.2031C81.0273 43.3984 81.5078 43.4961 82.0469 43.4961C82.7266 43.4961 83.332 43.3594 83.8633 43.0859C84.3945 42.8125 84.8555 42.4258 85.2461 41.9258L86.7344 43.3672C86.4609 43.7656 86.1055 44.1484 85.668 44.5156C85.2305 44.875 84.6953 45.168 84.0625 45.3945C83.4375 45.6211 82.7109 45.7344 81.8828 45.7344ZM92.1836 27.5V45.5H89.3477V27.5H92.1836ZM100.867 45.7344C99.9297 45.7344 99.082 45.582 98.3242 45.2773C97.5742 44.9648 96.9336 44.5312 96.4023 43.9766C95.8789 43.4219 95.4766 42.7695 95.1953 42.0195C94.9141 41.2695 94.7734 40.4609 94.7734 39.5938V39.125C94.7734 38.1328 94.918 37.2344 95.207 36.4297C95.4961 35.625 95.8984 34.9375 96.4141 34.3672C96.9297 33.7891 97.5391 33.3477 98.2422 33.043C98.9453 32.7383 99.707 32.5859 100.527 32.5859C101.434 32.5859 102.227 32.7383 102.906 33.043C103.586 33.3477 104.148 33.7773 104.594 34.332C105.047 34.8789 105.383 35.5312 105.602 36.2891C105.828 37.0469 105.941 37.8828 105.941 38.7969V40.0039H96.1445V37.9766H103.152V37.7539C103.137 37.2461 103.035 36.7695 102.848 36.3242C102.668 35.8789 102.391 35.5195 102.016 35.2461C101.641 34.9727 101.141 34.8359 100.516 34.8359C100.047 34.8359 99.6289 34.9375 99.2617 35.1406C98.9023 35.3359 98.6016 35.6211 98.3594 35.9961C98.1172 36.3711 97.9297 36.8242 97.7969 37.3555C97.6719 37.8789 97.6094 38.4688 97.6094 39.125V39.5938C97.6094 40.1484 97.6836 40.6641 97.832 41.1406C97.9883 41.6094 98.2148 42.0195 98.5117 42.3711C98.8086 42.7227 99.168 43 99.5898 43.2031C100.012 43.3984 100.492 43.4961 101.031 43.4961C101.711 43.4961 102.316 43.3594 102.848 43.0859C103.379 42.8125 103.84 42.4258 104.23 41.9258L105.719 43.3672C105.445 43.7656 105.09 44.1484 104.652 44.5156C104.215 44.875 103.68 45.168 103.047 45.3945C102.422 45.6211 101.695 45.7344 100.867 45.7344ZM110.934 27.5V45.5H108.121V27.5H110.934ZM110.441 38.6914L109.527 38.6797C109.535 37.8047 109.656 36.9961 109.891 36.2539C110.133 35.5117 110.469 34.8672 110.898 34.3203C111.336 33.7656 111.859 33.3398 112.469 33.043C113.078 32.7383 113.754 32.5859 114.496 32.5859C115.121 32.5859 115.684 32.6719 116.184 32.8438C116.691 33.0156 117.129 33.293 117.496 33.6758C117.863 34.0508 118.141 34.543 118.328 35.1523C118.523 35.7539 118.621 36.4883 118.621 37.3555V45.5H115.785V37.332C115.785 36.7227 115.695 36.2383 115.516 35.8789C115.344 35.5195 115.09 35.2617 114.754 35.1055C114.418 34.9414 114.008 34.8594 113.523 34.8594C113.016 34.8594 112.566 34.9609 112.176 35.1641C111.793 35.3672 111.473 35.6445 111.215 35.9961C110.957 36.3477 110.762 36.7539 110.629 37.2148C110.504 37.6758 110.441 38.168 110.441 38.6914ZM127.07 45.7344C126.133 45.7344 125.285 45.582 124.527 45.2773C123.777 44.9648 123.137 44.5312 122.605 43.9766C122.082 43.4219 121.68 42.7695 121.398 42.0195C121.117 41.2695 120.977 40.4609 120.977 39.5938V39.125C120.977 38.1328 121.121 37.2344 121.41 36.4297C121.699 35.625 122.102 34.9375 122.617 34.3672C123.133 33.7891 123.742 33.3477 124.445 33.043C125.148 32.7383 125.91 32.5859 126.73 32.5859C127.637 32.5859 128.43 32.7383 129.109 33.043C129.789 33.3477 130.352 33.7773 130.797 34.332C131.25 34.8789 131.586 35.5312 131.805 36.2891C132.031 37.0469 132.145 37.8828 132.145 38.7969V40.0039H122.348V37.9766H129.355V37.7539C129.34 37.2461 129.238 36.7695 129.051 36.3242C128.871 35.8789 128.594 35.5195 128.219 35.2461C127.844 34.9727 127.344 34.8359 126.719 34.8359C126.25 34.8359 125.832 34.9375 125.465 35.1406C125.105 35.3359 124.805 35.6211 124.562 35.9961C124.32 36.3711 124.133 36.8242 124 37.3555C123.875 37.8789 123.812 38.4688 123.812 39.125V39.5938C123.812 40.1484 123.887 40.6641 124.035 41.1406C124.191 41.6094 124.418 42.0195 124.715 42.3711C125.012 42.7227 125.371 43 125.793 43.2031C126.215 43.3984 126.695 43.4961 127.234 43.4961C127.914 43.4961 128.52 43.3594 129.051 43.0859C129.582 42.8125 130.043 42.4258 130.434 41.9258L131.922 43.3672C131.648 43.7656 131.293 44.1484 130.855 44.5156C130.418 44.875 129.883 45.168 129.25 45.3945C128.625 45.6211 127.898 45.7344 127.07 45.7344ZM144.449 43.2617L147.555 32.8203H150.484L146.078 45.5H144.25L144.449 43.2617ZM142.07 32.8203L145.234 43.3086L145.387 45.5H143.559L139.129 32.8203H142.07ZM157.656 45.7344C156.719 45.7344 155.871 45.582 155.113 45.2773C154.363 44.9648 153.723 44.5312 153.191 43.9766C152.668 43.4219 152.266 42.7695 151.984 42.0195C151.703 41.2695 151.562 40.4609 151.562 39.5938V39.125C151.562 38.1328 151.707 37.2344 151.996 36.4297C152.285 35.625 152.688 34.9375 153.203 34.3672C153.719 33.7891 154.328 33.3477 155.031 33.043C155.734 32.7383 156.496 32.5859 157.316 32.5859C158.223 32.5859 159.016 32.7383 159.695 33.043C160.375 33.3477 160.938 33.7773 161.383 34.332C161.836 34.8789 162.172 35.5312 162.391 36.2891C162.617 37.0469 162.73 37.8828 162.73 38.7969V40.0039H152.934V37.9766H159.941V37.7539C159.926 37.2461 159.824 36.7695 159.637 36.3242C159.457 35.8789 159.18 35.5195 158.805 35.2461C158.43 34.9727 157.93 34.8359 157.305 34.8359C156.836 34.8359 156.418 34.9375 156.051 35.1406C155.691 35.3359 155.391 35.6211 155.148 35.9961C154.906 36.3711 154.719 36.8242 154.586 37.3555C154.461 37.8789 154.398 38.4688 154.398 39.125V39.5938C154.398 40.1484 154.473 40.6641 154.621 41.1406C154.777 41.6094 155.004 42.0195 155.301 42.3711C155.598 42.7227 155.957 43 156.379 43.2031C156.801 43.3984 157.281 43.4961 157.82 43.4961C158.5 43.4961 159.105 43.3594 159.637 43.0859C160.168 42.8125 160.629 42.4258 161.02 41.9258L162.508 43.3672C162.234 43.7656 161.879 44.1484 161.441 44.5156C161.004 44.875 160.469 45.168 159.836 45.3945C159.211 45.6211 158.484 45.7344 157.656 45.7344ZM170.523 45.7344C169.586 45.7344 168.738 45.582 167.98 45.2773C167.23 44.9648 166.59 44.5312 166.059 43.9766C165.535 43.4219 165.133 42.7695 164.852 42.0195C164.57 41.2695 164.43 40.4609 164.43 39.5938V39.125C164.43 38.1328 164.574 37.2344 164.863 36.4297C165.152 35.625 165.555 34.9375 166.07 34.3672C166.586 33.7891 167.195 33.3477 167.898 33.043C168.602 32.7383 169.363 32.5859 170.184 32.5859C171.09 32.5859 171.883 32.7383 172.562 33.043C173.242 33.3477 173.805 33.7773 174.25 34.332C174.703 34.8789 175.039 35.5312 175.258 36.2891C175.484 37.0469 175.598 37.8828 175.598 38.7969V40.0039H165.801V37.9766H172.809V37.7539C172.793 37.2461 172.691 36.7695 172.504 36.3242C172.324 35.8789 172.047 35.5195 171.672 35.2461C171.297 34.9727 170.797 34.8359 170.172 34.8359C169.703 34.8359 169.285 34.9375 168.918 35.1406C168.559 35.3359 168.258 35.6211 168.016 35.9961C167.773 36.3711 167.586 36.8242 167.453 37.3555C167.328 37.8789 167.266 38.4688 167.266 39.125V39.5938C167.266 40.1484 167.34 40.6641 167.488 41.1406C167.645 41.6094 167.871 42.0195 168.168 42.3711C168.465 42.7227 168.824 43 169.246 43.2031C169.668 43.3984 170.148 43.4961 170.688 43.4961C171.367 43.4961 171.973 43.3594 172.504 43.0859C173.035 42.8125 173.496 42.4258 173.887 41.9258L175.375 43.3672C175.102 43.7656 174.746 44.1484 174.309 44.5156C173.871 44.875 173.336 45.168 172.703 45.3945C172.078 45.6211 171.352 45.7344 170.523 45.7344ZM177.812 27.5H180.637V42.793L180.367 45.5H177.812V27.5ZM188.91 39.043V39.2891C188.91 40.2266 188.805 41.0898 188.594 41.8789C188.391 42.6602 188.078 43.3398 187.656 43.918C187.242 44.4961 186.727 44.9453 186.109 45.2656C185.5 45.5781 184.793 45.7344 183.988 45.7344C183.199 45.7344 182.512 45.5859 181.926 45.2891C181.34 44.9922 180.848 44.5703 180.449 44.0234C180.059 43.4766 179.742 42.8242 179.5 42.0664C179.258 41.3086 179.086 40.4727 178.984 39.5586V38.7734C179.086 37.8516 179.258 37.0156 179.5 36.2656C179.742 35.5078 180.059 34.8555 180.449 34.3086C180.848 33.7539 181.336 33.3281 181.914 33.0312C182.5 32.7344 183.184 32.5859 183.965 32.5859C184.777 32.5859 185.492 32.7422 186.109 33.0547C186.734 33.3672 187.254 33.8125 187.668 34.3906C188.082 34.9609 188.391 35.6406 188.594 36.4297C188.805 37.2188 188.91 38.0898 188.91 39.043ZM186.086 39.2891V39.043C186.086 38.4727 186.039 37.9375 185.945 37.4375C185.852 36.9297 185.695 36.4844 185.477 36.1016C185.266 35.7188 184.977 35.418 184.609 35.1992C184.25 34.9727 183.801 34.8594 183.262 34.8594C182.762 34.8594 182.332 34.9453 181.973 35.1172C181.613 35.2891 181.312 35.5234 181.07 35.8203C180.828 36.1172 180.637 36.4609 180.496 36.8516C180.363 37.2422 180.273 37.6641 180.227 38.1172V40.2383C180.297 40.8242 180.445 41.3633 180.672 41.8555C180.906 42.3398 181.234 42.7305 181.656 43.0273C182.078 43.3164 182.621 43.4609 183.285 43.4609C183.809 43.4609 184.25 43.3555 184.609 43.1445C184.969 42.9336 185.254 42.6406 185.465 42.2656C185.684 41.8828 185.84 41.4375 185.934 40.9297C186.035 40.4219 186.086 39.875 186.086 39.2891ZM194.324 32.8203V45.5H191.488V32.8203H194.324ZM191.301 29.4922C191.301 29.0625 191.441 28.707 191.723 28.4258C192.012 28.1367 192.41 27.9922 192.918 27.9922C193.418 27.9922 193.812 28.1367 194.102 28.4258C194.391 28.707 194.535 29.0625 194.535 29.4922C194.535 29.9141 194.391 30.2656 194.102 30.5469C193.812 30.8281 193.418 30.9688 192.918 30.9688C192.41 30.9688 192.012 30.8281 191.723 30.5469C191.441 30.2656 191.301 29.9141 191.301 29.4922ZM200.254 35.2578V50.375H197.43V32.8203H200.031L200.254 35.2578ZM208.516 39.043V39.2891C208.516 40.2109 208.406 41.0664 208.188 41.8555C207.977 42.6367 207.66 43.3203 207.238 43.9062C206.824 44.4844 206.312 44.9336 205.703 45.2539C205.094 45.5742 204.391 45.7344 203.594 45.7344C202.805 45.7344 202.113 45.5898 201.52 45.3008C200.934 45.0039 200.438 44.5859 200.031 44.0469C199.625 43.5078 199.297 42.875 199.047 42.1484C198.805 41.4141 198.633 40.6094 198.531 39.7344V38.7852C198.633 37.8555 198.805 37.0117 199.047 36.2539C199.297 35.4961 199.625 34.8438 200.031 34.2969C200.438 33.75 200.934 33.3281 201.52 33.0312C202.105 32.7344 202.789 32.5859 203.57 32.5859C204.367 32.5859 205.074 32.7422 205.691 33.0547C206.309 33.3594 206.828 33.7969 207.25 34.3672C207.672 34.9297 207.988 35.6094 208.199 36.4062C208.41 37.1953 208.516 38.0742 208.516 39.043ZM205.691 39.2891V39.043C205.691 38.457 205.637 37.9141 205.527 37.4141C205.418 36.9062 205.246 36.4609 205.012 36.0781C204.777 35.6953 204.477 35.3984 204.109 35.1875C203.75 34.9688 203.316 34.8594 202.809 34.8594C202.309 34.8594 201.879 34.9453 201.52 35.1172C201.16 35.2812 200.859 35.5117 200.617 35.8086C200.375 36.1055 200.188 36.4531 200.055 36.8516C199.922 37.2422 199.828 37.668 199.773 38.1289V40.4023C199.867 40.9648 200.027 41.4805 200.254 41.9492C200.48 42.418 200.801 42.793 201.215 43.0742C201.637 43.3477 202.176 43.4844 202.832 43.4844C203.34 43.4844 203.773 43.375 204.133 43.1562C204.492 42.9375 204.785 42.6367 205.012 42.2539C205.246 41.8633 205.418 41.4141 205.527 40.9062C205.637 40.3984 205.691 39.8594 205.691 39.2891ZM210.379 39.3008V39.0312C210.379 38.1172 210.512 37.2695 210.777 36.4883C211.043 35.6992 211.426 35.0156 211.926 34.4375C212.434 33.8516 213.051 33.3984 213.777 33.0781C214.512 32.75 215.34 32.5859 216.262 32.5859C217.191 32.5859 218.02 32.75 218.746 33.0781C219.48 33.3984 220.102 33.8516 220.609 34.4375C221.117 35.0156 221.504 35.6992 221.77 36.4883C222.035 37.2695 222.168 38.1172 222.168 39.0312V39.3008C222.168 40.2148 222.035 41.0625 221.77 41.8438C221.504 42.625 221.117 43.3086 220.609 43.8945C220.102 44.4727 219.484 44.9258 218.758 45.2539C218.031 45.5742 217.207 45.7344 216.285 45.7344C215.355 45.7344 214.523 45.5742 213.789 45.2539C213.062 44.9258 212.445 44.4727 211.938 43.8945C211.43 43.3086 211.043 42.625 210.777 41.8438C210.512 41.0625 210.379 40.2148 210.379 39.3008ZM213.203 39.0312V39.3008C213.203 39.8711 213.262 40.4102 213.379 40.918C213.496 41.4258 213.68 41.8711 213.93 42.2539C214.18 42.6367 214.5 42.9375 214.891 43.1562C215.281 43.375 215.746 43.4844 216.285 43.4844C216.809 43.4844 217.262 43.375 217.645 43.1562C218.035 42.9375 218.355 42.6367 218.605 42.2539C218.855 41.8711 219.039 41.4258 219.156 40.918C219.281 40.4102 219.344 39.8711 219.344 39.3008V39.0312C219.344 38.4688 219.281 37.9375 219.156 37.4375C219.039 36.9297 218.852 36.4805 218.594 36.0898C218.344 35.6992 218.023 35.3945 217.633 35.1758C217.25 34.9492 216.793 34.8359 216.262 34.8359C215.73 34.8359 215.27 34.9492 214.879 35.1758C214.496 35.3945 214.18 35.6992 213.93 36.0898C213.68 36.4805 213.496 36.9297 213.379 37.4375C213.262 37.9375 213.203 38.4688 213.203 39.0312ZM227.371 35.2344V45.5H224.547V32.8203H227.242L227.371 35.2344ZM231.25 32.7383L231.227 35.3633C231.055 35.332 230.867 35.3086 230.664 35.293C230.469 35.2773 230.273 35.2695 230.078 35.2695C229.594 35.2695 229.168 35.3398 228.801 35.4805C228.434 35.6133 228.125 35.8086 227.875 36.0664C227.633 36.3164 227.445 36.6211 227.312 36.9805C227.18 37.3398 227.102 37.7422 227.078 38.1875L226.434 38.2344C226.434 37.4375 226.512 36.6992 226.668 36.0195C226.824 35.3398 227.059 34.7422 227.371 34.2266C227.691 33.7109 228.09 33.3086 228.566 33.0195C229.051 32.7305 229.609 32.5859 230.242 32.5859C230.414 32.5859 230.598 32.6016 230.793 32.6328C230.996 32.6641 231.148 32.6992 231.25 32.7383ZM239.418 32.8203V34.8828H232.27V32.8203H239.418ZM234.332 29.7148H237.156V41.9961C237.156 42.3867 237.211 42.6875 237.32 42.8984C237.438 43.1016 237.598 43.2383 237.801 43.3086C238.004 43.3789 238.242 43.4141 238.516 43.4141C238.711 43.4141 238.898 43.4023 239.078 43.3789C239.258 43.3555 239.402 43.332 239.512 43.3086L239.523 45.4648C239.289 45.5352 239.016 45.5977 238.703 45.6523C238.398 45.707 238.047 45.7344 237.648 45.7344C237 45.7344 236.426 45.6211 235.926 45.3945C235.426 45.1602 235.035 44.7812 234.754 44.2578C234.473 43.7344 234.332 43.0391 234.332 42.1719V29.7148ZM248.746 42.957V36.9102C248.746 36.457 248.664 36.0664 248.5 35.7383C248.336 35.4102 248.086 35.1562 247.75 34.9766C247.422 34.7969 247.008 34.707 246.508 34.707C246.047 34.707 245.648 34.7852 245.312 34.9414C244.977 35.0977 244.715 35.3086 244.527 35.5742C244.34 35.8398 244.246 36.1406 244.246 36.4766H241.434C241.434 35.9766 241.555 35.4922 241.797 35.0234C242.039 34.5547 242.391 34.1367 242.852 33.7695C243.312 33.4023 243.863 33.1133 244.504 32.9023C245.145 32.6914 245.863 32.5859 246.66 32.5859C247.613 32.5859 248.457 32.7461 249.191 33.0664C249.934 33.3867 250.516 33.8711 250.938 34.5195C251.367 35.1602 251.582 35.9648 251.582 36.9336V42.5703C251.582 43.1484 251.621 43.668 251.699 44.1289C251.785 44.582 251.906 44.9766 252.062 45.3125V45.5H249.168C249.035 45.1953 248.93 44.8086 248.852 44.3398C248.781 43.8633 248.746 43.4023 248.746 42.957ZM249.156 37.7891L249.18 39.5352H247.152C246.629 39.5352 246.168 39.5859 245.77 39.6875C245.371 39.7812 245.039 39.9219 244.773 40.1094C244.508 40.2969 244.309 40.5234 244.176 40.7891C244.043 41.0547 243.977 41.3555 243.977 41.6914C243.977 42.0273 244.055 42.3359 244.211 42.6172C244.367 42.8906 244.594 43.1055 244.891 43.2617C245.195 43.418 245.562 43.4961 245.992 43.4961C246.57 43.4961 247.074 43.3789 247.504 43.1445C247.941 42.9023 248.285 42.6094 248.535 42.2656C248.785 41.9141 248.918 41.582 248.934 41.2695L249.848 42.5234C249.754 42.8438 249.594 43.1875 249.367 43.5547C249.141 43.9219 248.844 44.2734 248.477 44.6094C248.117 44.9375 247.684 45.207 247.176 45.418C246.676 45.6289 246.098 45.7344 245.441 45.7344C244.613 45.7344 243.875 45.5703 243.227 45.2422C242.578 44.9062 242.07 44.457 241.703 43.8945C241.336 43.3242 241.152 42.6797 241.152 41.9609C241.152 41.2891 241.277 40.6953 241.527 40.1797C241.785 39.6562 242.16 39.2188 242.652 38.8672C243.152 38.5156 243.762 38.25 244.48 38.0703C245.199 37.8828 246.02 37.7891 246.941 37.7891H249.156ZM261.684 42.957V36.9102C261.684 36.457 261.602 36.0664 261.438 35.7383C261.273 35.4102 261.023 35.1562 260.688 34.9766C260.359 34.7969 259.945 34.707 259.445 34.707C258.984 34.707 258.586 34.7852 258.25 34.9414C257.914 35.0977 257.652 35.3086 257.465 35.5742C257.277 35.8398 257.184 36.1406 257.184 36.4766H254.371C254.371 35.9766 254.492 35.4922 254.734 35.0234C254.977 34.5547 255.328 34.1367 255.789 33.7695C256.25 33.4023 256.801 33.1133 257.441 32.9023C258.082 32.6914 258.801 32.5859 259.598 32.5859C260.551 32.5859 261.395 32.7461 262.129 33.0664C262.871 33.3867 263.453 33.8711 263.875 34.5195C264.305 35.1602 264.52 35.9648 264.52 36.9336V42.5703C264.52 43.1484 264.559 43.668 264.637 44.1289C264.723 44.582 264.844 44.9766 265 45.3125V45.5H262.105C261.973 45.1953 261.867 44.8086 261.789 44.3398C261.719 43.8633 261.684 43.4023 261.684 42.957ZM262.094 37.7891L262.117 39.5352H260.09C259.566 39.5352 259.105 39.5859 258.707 39.6875C258.309 39.7812 257.977 39.9219 257.711 40.1094C257.445 40.2969 257.246 40.5234 257.113 40.7891C256.98 41.0547 256.914 41.3555 256.914 41.6914C256.914 42.0273 256.992 42.3359 257.148 42.6172C257.305 42.8906 257.531 43.1055 257.828 43.2617C258.133 43.418 258.5 43.4961 258.93 43.4961C259.508 43.4961 260.012 43.3789 260.441 43.1445C260.879 42.9023 261.223 42.6094 261.473 42.2656C261.723 41.9141 261.855 41.582 261.871 41.2695L262.785 42.5234C262.691 42.8438 262.531 43.1875 262.305 43.5547C262.078 43.9219 261.781 44.2734 261.414 44.6094C261.055 44.9375 260.621 45.207 260.113 45.418C259.613 45.6289 259.035 45.7344 258.379 45.7344C257.551 45.7344 256.812 45.5703 256.164 45.2422C255.516 44.9062 255.008 44.457 254.641 43.8945C254.273 43.3242 254.09 42.6797 254.09 41.9609C254.09 41.2891 254.215 40.6953 254.465 40.1797C254.723 39.6562 255.098 39.2188 255.59 38.8672C256.09 38.5156 256.699 38.25 257.418 38.0703C258.137 37.8828 258.957 37.7891 259.879 37.7891H262.094ZM270.496 27.5V45.5H267.66V27.5H270.496ZM286.715 42.957V36.9102C286.715 36.457 286.633 36.0664 286.469 35.7383C286.305 35.4102 286.055 35.1562 285.719 34.9766C285.391 34.7969 284.977 34.707 284.477 34.707C284.016 34.707 283.617 34.7852 283.281 34.9414C282.945 35.0977 282.684 35.3086 282.496 35.5742C282.309 35.8398 282.215 36.1406 282.215 36.4766H279.402C279.402 35.9766 279.523 35.4922 279.766 35.0234C280.008 34.5547 280.359 34.1367 280.82 33.7695C281.281 33.4023 281.832 33.1133 282.473 32.9023C283.113 32.6914 283.832 32.5859 284.629 32.5859C285.582 32.5859 286.426 32.7461 287.16 33.0664C287.902 33.3867 288.484 33.8711 288.906 34.5195C289.336 35.1602 289.551 35.9648 289.551 36.9336V42.5703C289.551 43.1484 289.59 43.668 289.668 44.1289C289.754 44.582 289.875 44.9766 290.031 45.3125V45.5H287.137C287.004 45.1953 286.898 44.8086 286.82 44.3398C286.75 43.8633 286.715 43.4023 286.715 42.957ZM287.125 37.7891L287.148 39.5352H285.121C284.598 39.5352 284.137 39.5859 283.738 39.6875C283.34 39.7812 283.008 39.9219 282.742 40.1094C282.477 40.2969 282.277 40.5234 282.145 40.7891C282.012 41.0547 281.945 41.3555 281.945 41.6914C281.945 42.0273 282.023 42.3359 282.18 42.6172C282.336 42.8906 282.562 43.1055 282.859 43.2617C283.164 43.418 283.531 43.4961 283.961 43.4961C284.539 43.4961 285.043 43.3789 285.473 43.1445C285.91 42.9023 286.254 42.6094 286.504 42.2656C286.754 41.9141 286.887 41.582 286.902 41.2695L287.816 42.5234C287.723 42.8438 287.562 43.1875 287.336 43.5547C287.109 43.9219 286.812 44.2734 286.445 44.6094C286.086 44.9375 285.652 45.207 285.145 45.418C284.645 45.6289 284.066 45.7344 283.41 45.7344C282.582 45.7344 281.844 45.5703 281.195 45.2422C280.547 44.9062 280.039 44.457 279.672 43.8945C279.305 43.3242 279.121 42.6797 279.121 41.9609C279.121 41.2891 279.246 40.6953 279.496 40.1797C279.754 39.6562 280.129 39.2188 280.621 38.8672C281.121 38.5156 281.73 38.25 282.449 38.0703C283.168 37.8828 283.988 37.7891 284.91 37.7891H287.125ZM295.527 32.8203V45.5H292.691V32.8203H295.527ZM292.504 29.4922C292.504 29.0625 292.645 28.707 292.926 28.4258C293.215 28.1367 293.613 27.9922 294.121 27.9922C294.621 27.9922 295.016 28.1367 295.305 28.4258C295.594 28.707 295.738 29.0625 295.738 29.4922C295.738 29.9141 295.594 30.2656 295.305 30.5469C295.016 30.8281 294.621 30.9688 294.121 30.9688C293.613 30.9688 293.215 30.8281 292.926 30.5469C292.645 30.2656 292.504 29.9141 292.504 29.4922ZM304.434 32.8203V34.8828H297.285V32.8203H304.434ZM299.348 29.7148H302.172V41.9961C302.172 42.3867 302.227 42.6875 302.336 42.8984C302.453 43.1016 302.613 43.2383 302.816 43.3086C303.02 43.3789 303.258 43.4141 303.531 43.4141C303.727 43.4141 303.914 43.4023 304.094 43.3789C304.273 43.3555 304.418 43.332 304.527 43.3086L304.539 45.4648C304.305 45.5352 304.031 45.5977 303.719 45.6523C303.414 45.707 303.062 45.7344 302.664 45.7344C302.016 45.7344 301.441 45.6211 300.941 45.3945C300.441 45.1602 300.051 44.7812 299.77 44.2578C299.488 43.7344 299.348 43.0391 299.348 42.1719V29.7148ZM313.762 42.957V36.9102C313.762 36.457 313.68 36.0664 313.516 35.7383C313.352 35.4102 313.102 35.1562 312.766 34.9766C312.438 34.7969 312.023 34.707 311.523 34.707C311.062 34.707 310.664 34.7852 310.328 34.9414C309.992 35.0977 309.73 35.3086 309.543 35.5742C309.355 35.8398 309.262 36.1406 309.262 36.4766H306.449C306.449 35.9766 306.57 35.4922 306.812 35.0234C307.055 34.5547 307.406 34.1367 307.867 33.7695C308.328 33.4023 308.879 33.1133 309.52 32.9023C310.16 32.6914 310.879 32.5859 311.676 32.5859C312.629 32.5859 313.473 32.7461 314.207 33.0664C314.949 33.3867 315.531 33.8711 315.953 34.5195C316.383 35.1602 316.598 35.9648 316.598 36.9336V42.5703C316.598 43.1484 316.637 43.668 316.715 44.1289C316.801 44.582 316.922 44.9766 317.078 45.3125V45.5H314.184C314.051 45.1953 313.945 44.8086 313.867 44.3398C313.797 43.8633 313.762 43.4023 313.762 42.957ZM314.172 37.7891L314.195 39.5352H312.168C311.645 39.5352 311.184 39.5859 310.785 39.6875C310.387 39.7812 310.055 39.9219 309.789 40.1094C309.523 40.2969 309.324 40.5234 309.191 40.7891C309.059 41.0547 308.992 41.3555 308.992 41.6914C308.992 42.0273 309.07 42.3359 309.227 42.6172C309.383 42.8906 309.609 43.1055 309.906 43.2617C310.211 43.418 310.578 43.4961 311.008 43.4961C311.586 43.4961 312.09 43.3789 312.52 43.1445C312.957 42.9023 313.301 42.6094 313.551 42.2656C313.801 41.9141 313.934 41.582 313.949 41.2695L314.863 42.5234C314.77 42.8438 314.609 43.1875 314.383 43.5547C314.156 43.9219 313.859 44.2734 313.492 44.6094C313.133 44.9375 312.699 45.207 312.191 45.418C311.691 45.6289 311.113 45.7344 310.457 45.7344C309.629 45.7344 308.891 45.5703 308.242 45.2422C307.594 44.9062 307.086 44.457 306.719 43.8945C306.352 43.3242 306.168 42.6797 306.168 41.9609C306.168 41.2891 306.293 40.6953 306.543 40.1797C306.801 39.6562 307.176 39.2188 307.668 38.8672C308.168 38.5156 308.777 38.25 309.496 38.0703C310.215 37.8828 311.035 37.7891 311.957 37.7891H314.172ZM319.562 27.5H322.387V42.793L322.117 45.5H319.562V27.5ZM330.66 39.043V39.2891C330.66 40.2266 330.555 41.0898 330.344 41.8789C330.141 42.6602 329.828 43.3398 329.406 43.918C328.992 44.4961 328.477 44.9453 327.859 45.2656C327.25 45.5781 326.543 45.7344 325.738 45.7344C324.949 45.7344 324.262 45.5859 323.676 45.2891C323.09 44.9922 322.598 44.5703 322.199 44.0234C321.809 43.4766 321.492 42.8242 321.25 42.0664C321.008 41.3086 320.836 40.4727 320.734 39.5586V38.7734C320.836 37.8516 321.008 37.0156 321.25 36.2656C321.492 35.5078 321.809 34.8555 322.199 34.3086C322.598 33.7539 323.086 33.3281 323.664 33.0312C324.25 32.7344 324.934 32.5859 325.715 32.5859C326.527 32.5859 327.242 32.7422 327.859 33.0547C328.484 33.3672 329.004 33.8125 329.418 34.3906C329.832 34.9609 330.141 35.6406 330.344 36.4297C330.555 37.2188 330.66 38.0898 330.66 39.043ZM327.836 39.2891V39.043C327.836 38.4727 327.789 37.9375 327.695 37.4375C327.602 36.9297 327.445 36.4844 327.227 36.1016C327.016 35.7188 326.727 35.418 326.359 35.1992C326 34.9727 325.551 34.8594 325.012 34.8594C324.512 34.8594 324.082 34.9453 323.723 35.1172C323.363 35.2891 323.062 35.5234 322.82 35.8203C322.578 36.1172 322.387 36.4609 322.246 36.8516C322.113 37.2422 322.023 37.6641 321.977 38.1172V40.2383C322.047 40.8242 322.195 41.3633 322.422 41.8555C322.656 42.3398 322.984 42.7305 323.406 43.0273C323.828 43.3164 324.371 43.4609 325.035 43.4609C325.559 43.4609 326 43.3555 326.359 43.1445C326.719 42.9336 327.004 42.6406 327.215 42.2656C327.434 41.8828 327.59 41.4375 327.684 40.9297C327.785 40.4219 327.836 39.875 327.836 39.2891ZM66.4023 58.8203V60.8828H59.2539V58.8203H66.4023ZM61.3164 55.7148H64.1406V67.9961C64.1406 68.3867 64.1953 68.6875 64.3047 68.8984C64.4219 69.1016 64.582 69.2383 64.7852 69.3086C64.9883 69.3789 65.2266 69.4141 65.5 69.4141C65.6953 69.4141 65.8828 69.4023 66.0625 69.3789C66.2422 69.3555 66.3867 69.332 66.4961 69.3086L66.5078 71.4648C66.2734 71.5352 66 71.5977 65.6875 71.6523C65.3828 71.707 65.0312 71.7344 64.6328 71.7344C63.9844 71.7344 63.4102 71.6211 62.9102 71.3945C62.4102 71.1602 62.0195 70.7812 61.7383 70.2578C61.457 69.7344 61.3164 69.0391 61.3164 68.1719V55.7148ZM74.1719 71.7344C73.2344 71.7344 72.3867 71.582 71.6289 71.2773C70.8789 70.9648 70.2383 70.5312 69.707 69.9766C69.1836 69.4219 68.7812 68.7695 68.5 68.0195C68.2188 67.2695 68.0781 66.4609 68.0781 65.5938V65.125C68.0781 64.1328 68.2227 63.2344 68.5117 62.4297C68.8008 61.625 69.2031 60.9375 69.7188 60.3672C70.2344 59.7891 70.8438 59.3477 71.5469 59.043C72.25 58.7383 73.0117 58.5859 73.832 58.5859C74.7383 58.5859 75.5312 58.7383 76.2109 59.043C76.8906 59.3477 77.4531 59.7773 77.8984 60.332C78.3516 60.8789 78.6875 61.5312 78.9062 62.2891C79.1328 63.0469 79.2461 63.8828 79.2461 64.7969V66.0039H69.4492V63.9766H76.457V63.7539C76.4414 63.2461 76.3398 62.7695 76.1523 62.3242C75.9727 61.8789 75.6953 61.5195 75.3203 61.2461C74.9453 60.9727 74.4453 60.8359 73.8203 60.8359C73.3516 60.8359 72.9336 60.9375 72.5664 61.1406C72.207 61.3359 71.9062 61.6211 71.6641 61.9961C71.4219 62.3711 71.2344 62.8242 71.1016 63.3555C70.9766 63.8789 70.9141 64.4688 70.9141 65.125V65.5938C70.9141 66.1484 70.9883 66.6641 71.1367 67.1406C71.293 67.6094 71.5195 68.0195 71.8164 68.3711C72.1133 68.7227 72.4727 69 72.8945 69.2031C73.3164 69.3984 73.7969 69.4961 74.3359 69.4961C75.0156 69.4961 75.6211 69.3594 76.1523 69.0859C76.6836 68.8125 77.1445 68.4258 77.5352 67.9258L79.0234 69.3672C78.75 69.7656 78.3945 70.1484 77.957 70.5156C77.5195 70.875 76.9844 71.168 76.3516 71.3945C75.7266 71.6211 75 71.7344 74.1719 71.7344ZM84.2383 53.5V71.5H81.4258V53.5H84.2383ZM83.7461 64.6914L82.832 64.6797C82.8398 63.8047 82.9609 62.9961 83.1953 62.2539C83.4375 61.5117 83.7734 60.8672 84.2031 60.3203C84.6406 59.7656 85.1641 59.3398 85.7734 59.043C86.3828 58.7383 87.0586 58.5859 87.8008 58.5859C88.4258 58.5859 88.9883 58.6719 89.4883 58.8438C89.9961 59.0156 90.4336 59.293 90.8008 59.6758C91.168 60.0508 91.4453 60.543 91.6328 61.1523C91.8281 61.7539 91.9258 62.4883 91.9258 63.3555V71.5H89.0898V63.332C89.0898 62.7227 89 62.2383 88.8203 61.8789C88.6484 61.5195 88.3945 61.2617 88.0586 61.1055C87.7227 60.9414 87.3125 60.8594 86.8281 60.8594C86.3203 60.8594 85.8711 60.9609 85.4805 61.1641C85.0977 61.3672 84.7773 61.6445 84.5195 61.9961C84.2617 62.3477 84.0664 62.7539 83.9336 63.2148C83.8086 63.6758 83.7461 64.168 83.7461 64.6914ZM101.934 68.957V62.9102C101.934 62.457 101.852 62.0664 101.688 61.7383C101.523 61.4102 101.273 61.1562 100.938 60.9766C100.609 60.7969 100.195 60.707 99.6953 60.707C99.2344 60.707 98.8359 60.7852 98.5 60.9414C98.1641 61.0977 97.9023 61.3086 97.7148 61.5742C97.5273 61.8398 97.4336 62.1406 97.4336 62.4766H94.6211C94.6211 61.9766 94.7422 61.4922 94.9844 61.0234C95.2266 60.5547 95.5781 60.1367 96.0391 59.7695C96.5 59.4023 97.0508 59.1133 97.6914 58.9023C98.332 58.6914 99.0508 58.5859 99.8477 58.5859C100.801 58.5859 101.645 58.7461 102.379 59.0664C103.121 59.3867 103.703 59.8711 104.125 60.5195C104.555 61.1602 104.77 61.9648 104.77 62.9336V68.5703C104.77 69.1484 104.809 69.668 104.887 70.1289C104.973 70.582 105.094 70.9766 105.25 71.3125V71.5H102.355C102.223 71.1953 102.117 70.8086 102.039 70.3398C101.969 69.8633 101.934 69.4023 101.934 68.957ZM102.344 63.7891L102.367 65.5352H100.34C99.8164 65.5352 99.3555 65.5859 98.957 65.6875C98.5586 65.7812 98.2266 65.9219 97.9609 66.1094C97.6953 66.2969 97.4961 66.5234 97.3633 66.7891C97.2305 67.0547 97.1641 67.3555 97.1641 67.6914C97.1641 68.0273 97.2422 68.3359 97.3984 68.6172C97.5547 68.8906 97.7812 69.1055 98.0781 69.2617C98.3828 69.418 98.75 69.4961 99.1797 69.4961C99.7578 69.4961 100.262 69.3789 100.691 69.1445C101.129 68.9023 101.473 68.6094 101.723 68.2656C101.973 67.9141 102.105 67.582 102.121 67.2695L103.035 68.5234C102.941 68.8438 102.781 69.1875 102.555 69.5547C102.328 69.9219 102.031 70.2734 101.664 70.6094C101.305 70.9375 100.871 71.207 100.363 71.418C99.8633 71.6289 99.2852 71.7344 98.6289 71.7344C97.8008 71.7344 97.0625 71.5703 96.4141 71.2422C95.7656 70.9062 95.2578 70.457 94.8906 69.8945C94.5234 69.3242 94.3398 68.6797 94.3398 67.9609C94.3398 67.2891 94.4648 66.6953 94.7148 66.1797C94.9727 65.6562 95.3477 65.2188 95.8398 64.8672C96.3398 64.5156 96.9492 64.25 97.668 64.0703C98.3867 63.8828 99.207 63.7891 100.129 63.7891H102.344ZM120.812 68.0664C120.812 67.7852 120.742 67.5312 120.602 67.3047C120.461 67.0703 120.191 66.8594 119.793 66.6719C119.402 66.4844 118.824 66.3125 118.059 66.1562C117.387 66.0078 116.77 65.832 116.207 65.6289C115.652 65.418 115.176 65.1641 114.777 64.8672C114.379 64.5703 114.07 64.2188 113.852 63.8125C113.633 63.4062 113.523 62.9375 113.523 62.4062C113.523 61.8906 113.637 61.4023 113.863 60.9414C114.09 60.4805 114.414 60.0742 114.836 59.7227C115.258 59.3711 115.77 59.0938 116.371 58.8906C116.98 58.6875 117.66 58.5859 118.41 58.5859C119.473 58.5859 120.383 58.7656 121.141 59.125C121.906 59.4766 122.492 59.957 122.898 60.5664C123.305 61.168 123.508 61.8477 123.508 62.6055H120.684C120.684 62.2695 120.598 61.957 120.426 61.668C120.262 61.3711 120.012 61.1328 119.676 60.9531C119.34 60.7656 118.918 60.6719 118.41 60.6719C117.926 60.6719 117.523 60.75 117.203 60.9062C116.891 61.0547 116.656 61.25 116.5 61.4922C116.352 61.7344 116.277 62 116.277 62.2891C116.277 62.5 116.316 62.6914 116.395 62.8633C116.48 63.0273 116.621 63.1797 116.816 63.3203C117.012 63.4531 117.277 63.5781 117.613 63.6953C117.957 63.8125 118.387 63.9258 118.902 64.0352C119.871 64.2383 120.703 64.5 121.398 64.8203C122.102 65.1328 122.641 65.5391 123.016 66.0391C123.391 66.5312 123.578 67.1562 123.578 67.9141C123.578 68.4766 123.457 68.9922 123.215 69.4609C122.98 69.9219 122.637 70.3242 122.184 70.668C121.73 71.0039 121.188 71.2656 120.555 71.4531C119.93 71.6406 119.227 71.7344 118.445 71.7344C117.297 71.7344 116.324 71.5312 115.527 71.125C114.73 70.7109 114.125 70.1836 113.711 69.543C113.305 68.8945 113.102 68.2227 113.102 67.5273H115.832C115.863 68.0508 116.008 68.4688 116.266 68.7812C116.531 69.0859 116.859 69.3086 117.25 69.4492C117.648 69.582 118.059 69.6484 118.48 69.6484C118.988 69.6484 119.414 69.582 119.758 69.4492C120.102 69.3086 120.363 69.1211 120.543 68.8867C120.723 68.6445 120.812 68.3711 120.812 68.0664ZM131.863 58.8203V60.8828H124.715V58.8203H131.863ZM126.777 55.7148H129.602V67.9961C129.602 68.3867 129.656 68.6875 129.766 68.8984C129.883 69.1016 130.043 69.2383 130.246 69.3086C130.449 69.3789 130.688 69.4141 130.961 69.4141C131.156 69.4141 131.344 69.4023 131.523 69.3789C131.703 69.3555 131.848 69.332 131.957 69.3086L131.969 71.4648C131.734 71.5352 131.461 71.5977 131.148 71.6523C130.844 71.707 130.492 71.7344 130.094 71.7344C129.445 71.7344 128.871 71.6211 128.371 71.3945C127.871 71.1602 127.48 70.7812 127.199 70.2578C126.918 69.7344 126.777 69.0391 126.777 68.1719V55.7148ZM137.066 58.8203V71.5H134.23V58.8203H137.066ZM134.043 55.4922C134.043 55.0625 134.184 54.707 134.465 54.4258C134.754 54.1367 135.152 53.9922 135.66 53.9922C136.16 53.9922 136.555 54.1367 136.844 54.4258C137.133 54.707 137.277 55.0625 137.277 55.4922C137.277 55.9141 137.133 56.2656 136.844 56.5469C136.555 56.8281 136.16 56.9688 135.66 56.9688C135.152 56.9688 134.754 56.8281 134.465 56.5469C134.184 56.2656 134.043 55.9141 134.043 55.4922ZM143.184 58.8203V71.5H140.348V58.8203H143.184ZM140.16 55.4922C140.16 55.0625 140.301 54.707 140.582 54.4258C140.871 54.1367 141.27 53.9922 141.777 53.9922C142.277 53.9922 142.672 54.1367 142.961 54.4258C143.25 54.707 143.395 55.0625 143.395 55.4922C143.395 55.9141 143.25 56.2656 142.961 56.5469C142.672 56.8281 142.277 56.9688 141.777 56.9688C141.27 56.9688 140.871 56.8281 140.582 56.5469C140.301 56.2656 140.16 55.9141 140.16 55.4922ZM149.301 53.5V71.5H146.465V53.5H149.301ZM159.508 68.0664C159.508 67.7852 159.438 67.5312 159.297 67.3047C159.156 67.0703 158.887 66.8594 158.488 66.6719C158.098 66.4844 157.52 66.3125 156.754 66.1562C156.082 66.0078 155.465 65.832 154.902 65.6289C154.348 65.418 153.871 65.1641 153.473 64.8672C153.074 64.5703 152.766 64.2188 152.547 63.8125C152.328 63.4062 152.219 62.9375 152.219 62.4062C152.219 61.8906 152.332 61.4023 152.559 60.9414C152.785 60.4805 153.109 60.0742 153.531 59.7227C153.953 59.3711 154.465 59.0938 155.066 58.8906C155.676 58.6875 156.355 58.5859 157.105 58.5859C158.168 58.5859 159.078 58.7656 159.836 59.125C160.602 59.4766 161.188 59.957 161.594 60.5664C162 61.168 162.203 61.8477 162.203 62.6055H159.379C159.379 62.2695 159.293 61.957 159.121 61.668C158.957 61.3711 158.707 61.1328 158.371 60.9531C158.035 60.7656 157.613 60.6719 157.105 60.6719C156.621 60.6719 156.219 60.75 155.898 60.9062C155.586 61.0547 155.352 61.25 155.195 61.4922C155.047 61.7344 154.973 62 154.973 62.2891C154.973 62.5 155.012 62.6914 155.09 62.8633C155.176 63.0273 155.316 63.1797 155.512 63.3203C155.707 63.4531 155.973 63.5781 156.309 63.6953C156.652 63.8125 157.082 63.9258 157.598 64.0352C158.566 64.2383 159.398 64.5 160.094 64.8203C160.797 65.1328 161.336 65.5391 161.711 66.0391C162.086 66.5312 162.273 67.1562 162.273 67.9141C162.273 68.4766 162.152 68.9922 161.91 69.4609C161.676 69.9219 161.332 70.3242 160.879 70.668C160.426 71.0039 159.883 71.2656 159.25 71.4531C158.625 71.6406 157.922 71.7344 157.141 71.7344C155.992 71.7344 155.02 71.5312 154.223 71.125C153.426 70.7109 152.82 70.1836 152.406 69.543C152 68.8945 151.797 68.2227 151.797 67.5273H154.527C154.559 68.0508 154.703 68.4688 154.961 68.7812C155.227 69.0859 155.555 69.3086 155.945 69.4492C156.344 69.582 156.754 69.6484 157.176 69.6484C157.684 69.6484 158.109 69.582 158.453 69.4492C158.797 69.3086 159.059 69.1211 159.238 68.8867C159.418 68.6445 159.508 68.3711 159.508 68.0664ZM170.336 71.7344C169.398 71.7344 168.551 71.582 167.793 71.2773C167.043 70.9648 166.402 70.5312 165.871 69.9766C165.348 69.4219 164.945 68.7695 164.664 68.0195C164.383 67.2695 164.242 66.4609 164.242 65.5938V65.125C164.242 64.1328 164.387 63.2344 164.676 62.4297C164.965 61.625 165.367 60.9375 165.883 60.3672C166.398 59.7891 167.008 59.3477 167.711 59.043C168.414 58.7383 169.176 58.5859 169.996 58.5859C170.902 58.5859 171.695 58.7383 172.375 59.043C173.055 59.3477 173.617 59.7773 174.062 60.332C174.516 60.8789 174.852 61.5312 175.07 62.2891C175.297 63.0469 175.41 63.8828 175.41 64.7969V66.0039H165.613V63.9766H172.621V63.7539C172.605 63.2461 172.504 62.7695 172.316 62.3242C172.137 61.8789 171.859 61.5195 171.484 61.2461C171.109 60.9727 170.609 60.8359 169.984 60.8359C169.516 60.8359 169.098 60.9375 168.73 61.1406C168.371 61.3359 168.07 61.6211 167.828 61.9961C167.586 62.3711 167.398 62.8242 167.266 63.3555C167.141 63.8789 167.078 64.4688 167.078 65.125V65.5938C167.078 66.1484 167.152 66.6641 167.301 67.1406C167.457 67.6094 167.684 68.0195 167.98 68.3711C168.277 68.7227 168.637 69 169.059 69.2031C169.48 69.3984 169.961 69.4961 170.5 69.4961C171.18 69.4961 171.785 69.3594 172.316 69.0859C172.848 68.8125 173.309 68.4258 173.699 67.9258L175.188 69.3672C174.914 69.7656 174.559 70.1484 174.121 70.5156C173.684 70.875 173.148 71.168 172.516 71.3945C171.891 71.6211 171.164 71.7344 170.336 71.7344ZM180.637 58.8203V71.5H177.801V58.8203H180.637ZM177.613 55.4922C177.613 55.0625 177.754 54.707 178.035 54.4258C178.324 54.1367 178.723 53.9922 179.23 53.9922C179.73 53.9922 180.125 54.1367 180.414 54.4258C180.703 54.707 180.848 55.0625 180.848 55.4922C180.848 55.9141 180.703 56.2656 180.414 56.5469C180.125 56.8281 179.73 56.9688 179.23 56.9688C178.723 56.9688 178.324 56.8281 178.035 56.5469C177.754 56.2656 177.613 55.9141 177.613 55.4922ZM191.465 68.875V53.5H194.301V71.5H191.734L191.465 68.875ZM183.215 65.3008V65.0547C183.215 64.0938 183.328 63.2188 183.555 62.4297C183.781 61.6328 184.109 60.9492 184.539 60.3789C184.969 59.8008 185.492 59.3594 186.109 59.0547C186.727 58.7422 187.422 58.5859 188.195 58.5859C188.961 58.5859 189.633 58.7344 190.211 59.0312C190.789 59.3281 191.281 59.7539 191.688 60.3086C192.094 60.8555 192.418 61.5117 192.66 62.2773C192.902 63.0352 193.074 63.8789 193.176 64.8086V65.5938C193.074 66.5 192.902 67.3281 192.66 68.0781C192.418 68.8281 192.094 69.4766 191.688 70.0234C191.281 70.5703 190.785 70.9922 190.199 71.2891C189.621 71.5859 188.945 71.7344 188.172 71.7344C187.406 71.7344 186.715 71.5742 186.098 71.2539C185.488 70.9336 184.969 70.4844 184.539 69.9062C184.109 69.3281 183.781 68.6484 183.555 67.8672C183.328 67.0781 183.215 66.2227 183.215 65.3008ZM186.039 65.0547V65.3008C186.039 65.8789 186.09 66.418 186.191 66.918C186.301 67.418 186.469 67.8594 186.695 68.2422C186.922 68.6172 187.215 68.9141 187.574 69.1328C187.941 69.3438 188.379 69.4492 188.887 69.4492C189.527 69.4492 190.055 69.3086 190.469 69.0273C190.883 68.7461 191.207 68.3672 191.441 67.8906C191.684 67.4062 191.848 66.8672 191.934 66.2734V64.1523C191.887 63.6914 191.789 63.2617 191.641 62.8633C191.5 62.4648 191.309 62.1172 191.066 61.8203C190.824 61.5156 190.523 61.2812 190.164 61.1172C189.812 60.9453 189.395 60.8594 188.91 60.8594C188.395 60.8594 187.957 60.9688 187.598 61.1875C187.238 61.4062 186.941 61.707 186.707 62.0898C186.48 62.4727 186.312 62.918 186.203 63.4258C186.094 63.9336 186.039 64.4766 186.039 65.0547ZM207.355 69.2617L210.461 58.8203H213.391L208.984 71.5H207.156L207.355 69.2617ZM204.977 58.8203L208.141 69.3086L208.293 71.5H206.465L202.035 58.8203H204.977ZM222.098 68.957V62.9102C222.098 62.457 222.016 62.0664 221.852 61.7383C221.688 61.4102 221.438 61.1562 221.102 60.9766C220.773 60.7969 220.359 60.707 219.859 60.707C219.398 60.707 219 60.7852 218.664 60.9414C218.328 61.0977 218.066 61.3086 217.879 61.5742C217.691 61.8398 217.598 62.1406 217.598 62.4766H214.785C214.785 61.9766 214.906 61.4922 215.148 61.0234C215.391 60.5547 215.742 60.1367 216.203 59.7695C216.664 59.4023 217.215 59.1133 217.855 58.9023C218.496 58.6914 219.215 58.5859 220.012 58.5859C220.965 58.5859 221.809 58.7461 222.543 59.0664C223.285 59.3867 223.867 59.8711 224.289 60.5195C224.719 61.1602 224.934 61.9648 224.934 62.9336V68.5703C224.934 69.1484 224.973 69.668 225.051 70.1289C225.137 70.582 225.258 70.9766 225.414 71.3125V71.5H222.52C222.387 71.1953 222.281 70.8086 222.203 70.3398C222.133 69.8633 222.098 69.4023 222.098 68.957ZM222.508 63.7891L222.531 65.5352H220.504C219.98 65.5352 219.52 65.5859 219.121 65.6875C218.723 65.7812 218.391 65.9219 218.125 66.1094C217.859 66.2969 217.66 66.5234 217.527 66.7891C217.395 67.0547 217.328 67.3555 217.328 67.6914C217.328 68.0273 217.406 68.3359 217.562 68.6172C217.719 68.8906 217.945 69.1055 218.242 69.2617C218.547 69.418 218.914 69.4961 219.344 69.4961C219.922 69.4961 220.426 69.3789 220.855 69.1445C221.293 68.9023 221.637 68.6094 221.887 68.2656C222.137 67.9141 222.27 67.582 222.285 67.2695L223.199 68.5234C223.105 68.8438 222.945 69.1875 222.719 69.5547C222.492 69.9219 222.195 70.2734 221.828 70.6094C221.469 70.9375 221.035 71.207 220.527 71.418C220.027 71.6289 219.449 71.7344 218.793 71.7344C217.965 71.7344 217.227 71.5703 216.578 71.2422C215.93 70.9062 215.422 70.457 215.055 69.8945C214.688 69.3242 214.504 68.6797 214.504 67.9609C214.504 67.2891 214.629 66.6953 214.879 66.1797C215.137 65.6562 215.512 65.2188 216.004 64.8672C216.504 64.5156 217.113 64.25 217.832 64.0703C218.551 63.8828 219.371 63.7891 220.293 63.7891H222.508ZM230.91 53.5V71.5H228.074V53.5H230.91ZM237.027 58.8203V71.5H234.191V58.8203H237.027ZM234.004 55.4922C234.004 55.0625 234.145 54.707 234.426 54.4258C234.715 54.1367 235.113 53.9922 235.621 53.9922C236.121 53.9922 236.516 54.1367 236.805 54.4258C237.094 54.707 237.238 55.0625 237.238 55.4922C237.238 55.9141 237.094 56.2656 236.805 56.5469C236.516 56.8281 236.121 56.9688 235.621 56.9688C235.113 56.9688 234.715 56.8281 234.426 56.5469C234.145 56.2656 234.004 55.9141 234.004 55.4922ZM242.969 53.5V71.5H240.133V53.5H242.969ZM250.844 58.8203L245.324 64.9375L242.301 68.0312L241.562 65.6406L243.848 62.8164L247.434 58.8203H250.844ZM248.043 71.5L243.93 65.5469L245.711 63.5664L251.312 71.5H248.043ZM260.266 68.5117V58.8203H263.102V71.5H260.43L260.266 68.5117ZM260.664 65.875L261.613 65.8516C261.613 66.7031 261.52 67.4883 261.332 68.207C261.145 68.918 260.855 69.5391 260.465 70.0703C260.074 70.5938 259.574 71.0039 258.965 71.3008C258.355 71.5898 257.625 71.7344 256.773 71.7344C256.156 71.7344 255.59 71.6445 255.074 71.4648C254.559 71.2852 254.113 71.0078 253.738 70.6328C253.371 70.2578 253.086 69.7695 252.883 69.168C252.68 68.5664 252.578 67.8477 252.578 67.0117V58.8203H255.402V67.0352C255.402 67.4961 255.457 67.8828 255.566 68.1953C255.676 68.5 255.824 68.7461 256.012 68.9336C256.199 69.1211 256.418 69.2539 256.668 69.332C256.918 69.4102 257.184 69.4492 257.465 69.4492C258.27 69.4492 258.902 69.293 259.363 68.9805C259.832 68.6602 260.164 68.2305 260.359 67.6914C260.562 67.1523 260.664 66.5469 260.664 65.875ZM269.02 58.8203V71.5H266.184V58.8203H269.02ZM265.996 55.4922C265.996 55.0625 266.137 54.707 266.418 54.4258C266.707 54.1367 267.105 53.9922 267.613 53.9922C268.113 53.9922 268.508 54.1367 268.797 54.4258C269.086 54.707 269.23 55.0625 269.23 55.4922C269.23 55.9141 269.086 56.2656 268.797 56.5469C268.508 56.8281 268.113 56.9688 267.613 56.9688C267.105 56.9688 266.707 56.8281 266.418 56.5469C266.137 56.2656 265.996 55.9141 265.996 55.4922ZM279.848 68.875V53.5H282.684V71.5H280.117L279.848 68.875ZM271.598 65.3008V65.0547C271.598 64.0938 271.711 63.2188 271.938 62.4297C272.164 61.6328 272.492 60.9492 272.922 60.3789C273.352 59.8008 273.875 59.3594 274.492 59.0547C275.109 58.7422 275.805 58.5859 276.578 58.5859C277.344 58.5859 278.016 58.7344 278.594 59.0312C279.172 59.3281 279.664 59.7539 280.07 60.3086C280.477 60.8555 280.801 61.5117 281.043 62.2773C281.285 63.0352 281.457 63.8789 281.559 64.8086V65.5938C281.457 66.5 281.285 67.3281 281.043 68.0781C280.801 68.8281 280.477 69.4766 280.07 70.0234C279.664 70.5703 279.168 70.9922 278.582 71.2891C278.004 71.5859 277.328 71.7344 276.555 71.7344C275.789 71.7344 275.098 71.5742 274.48 71.2539C273.871 70.9336 273.352 70.4844 272.922 69.9062C272.492 69.3281 272.164 68.6484 271.938 67.8672C271.711 67.0781 271.598 66.2227 271.598 65.3008ZM274.422 65.0547V65.3008C274.422 65.8789 274.473 66.418 274.574 66.918C274.684 67.418 274.852 67.8594 275.078 68.2422C275.305 68.6172 275.598 68.9141 275.957 69.1328C276.324 69.3438 276.762 69.4492 277.27 69.4492C277.91 69.4492 278.438 69.3086 278.852 69.0273C279.266 68.7461 279.59 68.3672 279.824 67.8906C280.066 67.4062 280.23 66.8672 280.316 66.2734V64.1523C280.27 63.6914 280.172 63.2617 280.023 62.8633C279.883 62.4648 279.691 62.1172 279.449 61.8203C279.207 61.5156 278.906 61.2812 278.547 61.1172C278.195 60.9453 277.777 60.8594 277.293 60.8594C276.777 60.8594 276.34 60.9688 275.98 61.1875C275.621 61.4062 275.324 61.707 275.09 62.0898C274.863 62.4727 274.695 62.918 274.586 63.4258C274.477 63.9336 274.422 64.4766 274.422 65.0547ZM285.754 70.0938C285.754 69.6562 285.902 69.2891 286.199 68.9922C286.496 68.6875 286.898 68.5352 287.406 68.5352C287.922 68.5352 288.324 68.6875 288.613 68.9922C288.91 69.2891 289.059 69.6562 289.059 70.0938C289.059 70.5312 288.91 70.8984 288.613 71.1953C288.324 71.4922 287.922 71.6406 287.406 71.6406C286.898 71.6406 286.496 71.4922 286.199 71.1953C285.902 70.8984 285.754 70.5312 285.754 70.0938Z" fill="#461102"/>
</svg>
