<svg width="350" height="100" viewBox="0 0 350 100" fill="none" xmlns="http://www.w3.org/2000/svg">
<path d="M65.752 29.8594V45.5H63.0771V29.8594H65.752ZM70.6611 29.8594V32.0078H58.2109V29.8594H70.6611ZM76.5586 45.7148C75.6992 45.7148 74.9222 45.5752 74.2275 45.2959C73.54 45.0094 72.9528 44.612 72.4658 44.1035C71.986 43.5951 71.6172 42.9971 71.3594 42.3096C71.1016 41.6221 70.9727 40.8809 70.9727 40.0859V39.6562C70.9727 38.7467 71.1051 37.9232 71.3701 37.1855C71.6351 36.4479 72.0039 35.8177 72.4766 35.2949C72.9492 34.765 73.5078 34.3604 74.1523 34.0811C74.7969 33.8018 75.4951 33.6621 76.2471 33.6621C77.0778 33.6621 77.8047 33.8018 78.4277 34.0811C79.0508 34.3604 79.5664 34.7542 79.9746 35.2627C80.39 35.764 80.6979 36.362 80.8984 37.0566C81.1061 37.7513 81.21 38.5176 81.21 39.3555V40.4619H72.2295V38.6035H78.6533V38.3994C78.639 37.9339 78.5459 37.4971 78.374 37.0889C78.2093 36.6807 77.9551 36.3512 77.6113 36.1006C77.2676 35.8499 76.8092 35.7246 76.2363 35.7246C75.8066 35.7246 75.4235 35.8177 75.0869 36.0039C74.7575 36.1829 74.4818 36.4443 74.2598 36.7881C74.0378 37.1318 73.8659 37.5472 73.7441 38.0342C73.6296 38.514 73.5723 39.0547 73.5723 39.6562V40.0859C73.5723 40.5944 73.6403 41.0671 73.7764 41.5039C73.9196 41.9336 74.1273 42.3096 74.3994 42.6318C74.6715 42.9541 75.001 43.2083 75.3877 43.3945C75.7744 43.5736 76.2148 43.6631 76.709 43.6631C77.332 43.6631 77.887 43.5378 78.374 43.2871C78.861 43.0365 79.2835 42.682 79.6416 42.2236L81.0059 43.5449C80.7552 43.9102 80.4294 44.2611 80.0283 44.5977C79.6273 44.9271 79.1367 45.1956 78.5566 45.4033C77.9837 45.611 77.3177 45.7148 76.5586 45.7148ZM86.001 29V45.5H83.4014V29H86.001ZM91.6084 29V45.5H89.0088V29H91.6084ZM97.2158 33.877V45.5H94.6162V33.877H97.2158ZM94.4443 30.8262C94.4443 30.4323 94.5732 30.1064 94.8311 29.8486C95.096 29.5837 95.4613 29.4512 95.9268 29.4512C96.3851 29.4512 96.7467 29.5837 97.0117 29.8486C97.2767 30.1064 97.4092 30.4323 97.4092 30.8262C97.4092 31.2129 97.2767 31.5352 97.0117 31.793C96.7467 32.0508 96.3851 32.1797 95.9268 32.1797C95.4613 32.1797 95.096 32.0508 94.8311 31.793C94.5732 31.5352 94.4443 31.2129 94.4443 30.8262ZM118.26 37.25V38.1094C118.26 39.291 118.106 40.3509 117.798 41.2891C117.49 42.2272 117.049 43.0257 116.477 43.6846C115.911 44.3434 115.23 44.8483 114.436 45.1992C113.641 45.543 112.76 45.7148 111.793 45.7148C110.833 45.7148 109.956 45.543 109.161 45.1992C108.373 44.8483 107.689 44.3434 107.109 43.6846C106.529 43.0257 106.078 42.2272 105.756 41.2891C105.441 40.3509 105.283 39.291 105.283 38.1094V37.25C105.283 36.0684 105.441 35.012 105.756 34.0811C106.071 33.1429 106.515 32.3444 107.088 31.6855C107.668 31.0195 108.352 30.5146 109.14 30.1709C109.935 29.82 110.812 29.6445 111.771 29.6445C112.738 29.6445 113.619 29.82 114.414 30.1709C115.209 30.5146 115.893 31.0195 116.466 31.6855C117.039 32.3444 117.479 33.1429 117.787 34.0811C118.102 35.012 118.26 36.0684 118.26 37.25ZM115.563 38.1094V37.2285C115.563 36.3548 115.478 35.585 115.306 34.9189C115.141 34.2458 114.894 33.6836 114.564 33.2324C114.242 32.7741 113.845 32.4303 113.372 32.2012C112.899 31.9648 112.366 31.8467 111.771 31.8467C111.177 31.8467 110.647 31.9648 110.182 32.2012C109.716 32.4303 109.319 32.7741 108.989 33.2324C108.667 33.6836 108.42 34.2458 108.248 34.9189C108.076 35.585 107.99 36.3548 107.99 37.2285V38.1094C107.99 38.9831 108.076 39.7565 108.248 40.4297C108.42 41.1029 108.671 41.6722 109 42.1377C109.337 42.596 109.738 42.9434 110.203 43.1797C110.669 43.4089 111.199 43.5234 111.793 43.5234C112.395 43.5234 112.928 43.4089 113.394 43.1797C113.859 42.9434 114.253 42.596 114.575 42.1377C114.897 41.6722 115.141 41.1029 115.306 40.4297C115.478 39.7565 115.563 38.9831 115.563 38.1094ZM114.135 25.7773L115.714 25.8955C115.714 26.4183 115.61 26.8874 115.402 27.3027C115.195 27.7109 114.912 28.0332 114.554 28.2695C114.196 28.5059 113.791 28.624 113.34 28.624C112.989 28.624 112.692 28.5739 112.448 28.4736C112.205 28.3734 111.983 28.2588 111.782 28.1299C111.582 28.001 111.374 27.89 111.159 27.7969C110.951 27.6966 110.704 27.6465 110.418 27.6465C110.146 27.6465 109.913 27.7467 109.72 27.9473C109.534 28.1478 109.44 28.4163 109.44 28.7529L107.851 28.667C107.851 28.1514 107.954 27.6859 108.162 27.2705C108.37 26.8551 108.653 26.5257 109.011 26.2822C109.369 26.0387 109.773 25.917 110.225 25.917C110.518 25.917 110.783 25.9671 111.02 26.0674C111.263 26.1605 111.492 26.2715 111.707 26.4004C111.929 26.5293 112.155 26.6439 112.384 26.7441C112.613 26.8444 112.867 26.8945 113.146 26.8945C113.419 26.8945 113.651 26.7907 113.845 26.583C114.038 26.3753 114.135 26.1068 114.135 25.7773ZM123.255 29V45.5H120.677V29H123.255ZM122.804 39.2588L121.966 39.248C121.973 38.446 122.084 37.7048 122.299 37.0244C122.521 36.3441 122.829 35.7533 123.223 35.252C123.624 34.7435 124.104 34.3532 124.662 34.0811C125.221 33.8018 125.84 33.6621 126.521 33.6621C127.093 33.6621 127.609 33.7409 128.067 33.8984C128.533 34.056 128.934 34.3102 129.271 34.6611C129.607 35.0049 129.861 35.4561 130.033 36.0146C130.212 36.5661 130.302 37.2393 130.302 38.0342V45.5H127.702V38.0127C127.702 37.4541 127.62 37.0101 127.455 36.6807C127.298 36.3512 127.065 36.1149 126.757 35.9717C126.449 35.8213 126.073 35.7461 125.629 35.7461C125.163 35.7461 124.752 35.8392 124.394 36.0254C124.043 36.2116 123.749 36.4658 123.513 36.7881C123.276 37.1104 123.097 37.4827 122.976 37.9053C122.861 38.3278 122.804 38.779 122.804 39.2588ZM138.251 33.877V35.7676H131.698V33.877H138.251ZM133.589 31.0303H136.178V42.2881C136.178 42.6462 136.228 42.9219 136.328 43.1152C136.436 43.3014 136.582 43.4268 136.769 43.4912C136.955 43.5557 137.173 43.5879 137.424 43.5879C137.603 43.5879 137.775 43.5771 137.939 43.5557C138.104 43.5342 138.237 43.5127 138.337 43.4912L138.348 45.4678C138.133 45.5322 137.882 45.5895 137.596 45.6396C137.316 45.6898 136.994 45.7148 136.629 45.7148C136.035 45.7148 135.508 45.611 135.05 45.4033C134.591 45.1885 134.233 44.8411 133.976 44.3613C133.718 43.8815 133.589 43.2441 133.589 42.4492V31.0303ZM147.242 42.7607V33.877H149.842V45.5H147.393L147.242 42.7607ZM147.607 40.3438L148.478 40.3223C148.478 41.1029 148.392 41.8226 148.22 42.4814C148.048 43.1331 147.783 43.7025 147.425 44.1895C147.067 44.6693 146.608 45.0452 146.05 45.3174C145.491 45.5824 144.822 45.7148 144.041 45.7148C143.475 45.7148 142.956 45.6325 142.483 45.4678C142.011 45.3031 141.603 45.0488 141.259 44.7051C140.922 44.3613 140.661 43.9137 140.475 43.3623C140.288 42.8109 140.195 42.152 140.195 41.3857V33.877H142.784V41.4072C142.784 41.8298 142.834 42.1842 142.935 42.4707C143.035 42.75 143.171 42.9756 143.343 43.1475C143.515 43.3193 143.715 43.4411 143.944 43.5127C144.174 43.5843 144.417 43.6201 144.675 43.6201C145.412 43.6201 145.993 43.4769 146.415 43.1904C146.845 42.8968 147.149 42.5029 147.328 42.0088C147.514 41.5146 147.607 40.9596 147.607 40.3438ZM155.267 29V45.5H152.667V29H155.267ZM163.227 45.7148C162.367 45.7148 161.59 45.5752 160.896 45.2959C160.208 45.0094 159.621 44.612 159.134 44.1035C158.654 43.5951 158.285 42.9971 158.027 42.3096C157.77 41.6221 157.641 40.8809 157.641 40.0859V39.6562C157.641 38.7467 157.773 37.9232 158.038 37.1855C158.303 36.4479 158.672 35.8177 159.145 35.2949C159.617 34.765 160.176 34.3604 160.82 34.0811C161.465 33.8018 162.163 33.6621 162.915 33.6621C163.746 33.6621 164.473 33.8018 165.096 34.0811C165.719 34.3604 166.234 34.7542 166.643 35.2627C167.058 35.764 167.366 36.362 167.566 37.0566C167.774 37.7513 167.878 38.5176 167.878 39.3555V40.4619H158.897V38.6035H165.321V38.3994C165.307 37.9339 165.214 37.4971 165.042 37.0889C164.877 36.6807 164.623 36.3512 164.279 36.1006C163.936 35.8499 163.477 35.7246 162.904 35.7246C162.475 35.7246 162.091 35.8177 161.755 36.0039C161.425 36.1829 161.15 36.4443 160.928 36.7881C160.706 37.1318 160.534 37.5472 160.412 38.0342C160.298 38.514 160.24 39.0547 160.24 39.6562V40.0859C160.24 40.5944 160.308 41.0671 160.444 41.5039C160.588 41.9336 160.795 42.3096 161.067 42.6318C161.34 42.9541 161.669 43.2083 162.056 43.3945C162.442 43.5736 162.883 43.6631 163.377 43.6631C164 43.6631 164.555 43.5378 165.042 43.2871C165.529 43.0365 165.951 42.682 166.31 42.2236L167.674 43.5449C167.423 43.9102 167.097 44.2611 166.696 44.5977C166.295 44.9271 165.805 45.1956 165.225 45.4033C164.652 45.611 163.986 45.7148 163.227 45.7148ZM172.454 29V45.5H169.876V29H172.454ZM172.003 39.2588L171.165 39.248C171.172 38.446 171.283 37.7048 171.498 37.0244C171.72 36.3441 172.028 35.7533 172.422 35.252C172.823 34.7435 173.303 34.3532 173.861 34.0811C174.42 33.8018 175.039 33.6621 175.72 33.6621C176.293 33.6621 176.808 33.7409 177.267 33.8984C177.732 34.056 178.133 34.3102 178.47 34.6611C178.806 35.0049 179.061 35.4561 179.232 36.0146C179.411 36.5661 179.501 37.2393 179.501 38.0342V45.5H176.901V38.0127C176.901 37.4541 176.819 37.0101 176.654 36.6807C176.497 36.3512 176.264 36.1149 175.956 35.9717C175.648 35.8213 175.272 35.7461 174.828 35.7461C174.363 35.7461 173.951 35.8392 173.593 36.0254C173.242 36.2116 172.948 36.4658 172.712 36.7881C172.476 37.1104 172.297 37.4827 172.175 37.9053C172.06 38.3278 172.003 38.779 172.003 39.2588ZM187.45 33.877V35.7676H180.897V33.877H187.45ZM182.788 31.0303H185.377V42.2881C185.377 42.6462 185.427 42.9219 185.527 43.1152C185.635 43.3014 185.782 43.4268 185.968 43.4912C186.154 43.5557 186.372 43.5879 186.623 43.5879C186.802 43.5879 186.974 43.5771 187.139 43.5557C187.303 43.5342 187.436 43.5127 187.536 43.4912L187.547 45.4678C187.332 45.5322 187.081 45.5895 186.795 45.6396C186.516 45.6898 186.193 45.7148 185.828 45.7148C185.234 45.7148 184.707 45.611 184.249 45.4033C183.791 45.1885 183.433 44.8411 183.175 44.3613C182.917 43.8815 182.788 43.2441 182.788 42.4492V31.0303ZM197.881 29.8594V45.5H195.185V29.8594H197.881ZM207.28 29.8594L200.942 37.3896L197.333 41.2139L196.86 38.5391L199.438 35.3594L203.993 29.8594H207.28ZM204.38 45.5L199.234 38.0879L201.093 36.251L207.581 45.5H204.38ZM211.599 33.877V45.5H208.999V33.877H211.599ZM208.827 30.8262C208.827 30.4323 208.956 30.1064 209.214 29.8486C209.479 29.5837 209.844 29.4512 210.31 29.4512C210.768 29.4512 211.13 29.5837 211.395 29.8486C211.66 30.1064 211.792 30.4323 211.792 30.8262C211.792 31.2129 211.66 31.5352 211.395 31.793C211.13 32.0508 210.768 32.1797 210.31 32.1797C209.844 32.1797 209.479 32.0508 209.214 31.793C208.956 31.5352 208.827 31.2129 208.827 30.8262ZM217.034 36.0898V45.5H214.445V33.877H216.916L217.034 36.0898ZM220.59 33.8018L220.568 36.208C220.411 36.1794 220.239 36.1579 220.053 36.1436C219.874 36.1292 219.695 36.1221 219.516 36.1221C219.072 36.1221 218.681 36.1865 218.345 36.3154C218.008 36.4372 217.725 36.6162 217.496 36.8525C217.274 37.0817 217.102 37.361 216.98 37.6904C216.859 38.0199 216.787 38.3887 216.766 38.7969L216.175 38.8398C216.175 38.1094 216.246 37.4326 216.39 36.8096C216.533 36.1865 216.748 35.6387 217.034 35.166C217.328 34.6934 217.693 34.3245 218.13 34.0596C218.574 33.7946 219.086 33.6621 219.666 33.6621C219.824 33.6621 219.992 33.6764 220.171 33.7051C220.357 33.7337 220.497 33.766 220.59 33.8018ZM222.341 33.877H224.94V46.5098C224.94 47.3047 224.804 47.9743 224.532 48.5186C224.26 49.07 223.859 49.4854 223.329 49.7646C222.799 50.0511 222.151 50.1943 221.385 50.1943C221.156 50.1943 220.919 50.1764 220.676 50.1406C220.425 50.112 220.189 50.069 219.967 50.0117L219.978 47.9922C220.128 48.0208 220.289 48.0423 220.461 48.0566C220.626 48.0781 220.783 48.0889 220.934 48.0889C221.242 48.0889 221.499 48.0352 221.707 47.9277C221.915 47.8203 222.072 47.652 222.18 47.4229C222.287 47.1937 222.341 46.8893 222.341 46.5098V33.877ZM222.115 30.8262C222.115 30.4323 222.248 30.1064 222.513 29.8486C222.778 29.5837 223.139 29.4512 223.598 29.4512C224.063 29.4512 224.425 29.5837 224.683 29.8486C224.948 30.1064 225.08 30.4323 225.08 30.8262C225.08 31.2129 224.948 31.5352 224.683 31.793C224.425 32.0508 224.063 32.1797 223.598 32.1797C223.139 32.1797 222.778 32.0508 222.513 31.793C222.248 31.5352 222.115 31.2129 222.115 30.8262ZM234.286 43.1689V37.626C234.286 37.2106 234.211 36.8525 234.061 36.5518C233.91 36.251 233.681 36.0182 233.373 35.8535C233.072 35.6888 232.693 35.6064 232.234 35.6064C231.812 35.6064 231.447 35.6781 231.139 35.8213C230.831 35.9645 230.591 36.1579 230.419 36.4014C230.247 36.6449 230.161 36.9206 230.161 37.2285H227.583C227.583 36.7702 227.694 36.3262 227.916 35.8965C228.138 35.4668 228.46 35.0837 228.883 34.7471C229.305 34.4105 229.81 34.1455 230.397 33.9521C230.985 33.7588 231.644 33.6621 232.374 33.6621C233.248 33.6621 234.021 33.8089 234.694 34.1025C235.375 34.3962 235.908 34.8402 236.295 35.4346C236.689 36.0218 236.886 36.7594 236.886 37.6475V42.8145C236.886 43.3444 236.922 43.8206 236.993 44.2432C237.072 44.6585 237.183 45.0202 237.326 45.3281V45.5H234.673C234.551 45.2207 234.454 44.8662 234.383 44.4365C234.318 43.9997 234.286 43.5771 234.286 43.1689ZM234.662 38.4316L234.684 40.0322H232.825C232.345 40.0322 231.923 40.0788 231.558 40.1719C231.192 40.2578 230.888 40.3867 230.645 40.5586C230.401 40.7305 230.218 40.9382 230.097 41.1816C229.975 41.4251 229.914 41.7008 229.914 42.0088C229.914 42.3167 229.986 42.5996 230.129 42.8574C230.272 43.1081 230.48 43.305 230.752 43.4482C231.031 43.5915 231.368 43.6631 231.762 43.6631C232.292 43.6631 232.754 43.5557 233.147 43.3408C233.549 43.1188 233.864 42.8503 234.093 42.5352C234.322 42.2129 234.444 41.9085 234.458 41.6221L235.296 42.7715C235.21 43.0651 235.063 43.3802 234.855 43.7168C234.648 44.0534 234.376 44.3757 234.039 44.6836C233.71 44.9844 233.312 45.2314 232.847 45.4248C232.388 45.6182 231.858 45.7148 231.257 45.7148C230.498 45.7148 229.821 45.5645 229.227 45.2637C228.632 44.9557 228.167 44.5439 227.83 44.0283C227.493 43.5055 227.325 42.9147 227.325 42.2559C227.325 41.64 227.44 41.0957 227.669 40.623C227.905 40.1432 228.249 39.7422 228.7 39.4199C229.159 39.0977 229.717 38.8542 230.376 38.6895C231.035 38.5176 231.787 38.4316 232.632 38.4316H234.662ZM246.113 42.3525C246.113 42.0947 246.049 41.862 245.92 41.6543C245.791 41.4395 245.544 41.2461 245.179 41.0742C244.821 40.9023 244.291 40.7448 243.589 40.6016C242.973 40.4655 242.407 40.3044 241.892 40.1182C241.383 39.9248 240.946 39.6921 240.581 39.4199C240.216 39.1478 239.933 38.8255 239.732 38.4531C239.532 38.0807 239.432 37.651 239.432 37.1641C239.432 36.6914 239.535 36.2438 239.743 35.8213C239.951 35.3988 240.248 35.0264 240.635 34.7041C241.021 34.3818 241.491 34.1276 242.042 33.9414C242.601 33.7552 243.224 33.6621 243.911 33.6621C244.885 33.6621 245.719 33.8268 246.414 34.1562C247.116 34.4785 247.653 34.9189 248.025 35.4775C248.398 36.029 248.584 36.652 248.584 37.3467H245.995C245.995 37.0387 245.916 36.7523 245.759 36.4873C245.608 36.2152 245.379 35.9967 245.071 35.832C244.763 35.6602 244.377 35.5742 243.911 35.5742C243.467 35.5742 243.098 35.6458 242.805 35.7891C242.518 35.9251 242.303 36.1042 242.16 36.3262C242.024 36.5482 241.956 36.7917 241.956 37.0566C241.956 37.25 241.992 37.4255 242.063 37.583C242.142 37.7334 242.271 37.873 242.45 38.002C242.629 38.1237 242.873 38.2383 243.181 38.3457C243.496 38.4531 243.89 38.557 244.362 38.6572C245.25 38.8434 246.013 39.0833 246.65 39.377C247.295 39.6634 247.789 40.0358 248.133 40.4941C248.477 40.9453 248.648 41.5182 248.648 42.2129C248.648 42.7285 248.537 43.2012 248.315 43.6309C248.101 44.0534 247.785 44.4222 247.37 44.7373C246.955 45.0452 246.457 45.2852 245.877 45.457C245.304 45.6289 244.66 45.7148 243.943 45.7148C242.891 45.7148 241.999 45.5286 241.269 45.1562C240.538 44.7767 239.983 44.2933 239.604 43.7061C239.231 43.1117 239.045 42.4958 239.045 41.8584H241.548C241.576 42.3382 241.709 42.7214 241.945 43.0078C242.189 43.2871 242.49 43.4912 242.848 43.6201C243.213 43.7419 243.589 43.8027 243.976 43.8027C244.441 43.8027 244.831 43.7419 245.146 43.6201C245.462 43.4912 245.701 43.3193 245.866 43.1045C246.031 42.8825 246.113 42.6318 246.113 42.3525ZM256.243 33.877V35.7676H249.69V33.877H256.243ZM251.581 31.0303H254.17V42.2881C254.17 42.6462 254.22 42.9219 254.32 43.1152C254.428 43.3014 254.575 43.4268 254.761 43.4912C254.947 43.5557 255.165 43.5879 255.416 43.5879C255.595 43.5879 255.767 43.5771 255.932 43.5557C256.096 43.5342 256.229 43.5127 256.329 43.4912L256.34 45.4678C256.125 45.5322 255.874 45.5895 255.588 45.6396C255.309 45.6898 254.986 45.7148 254.621 45.7148C254.027 45.7148 253.5 45.611 253.042 45.4033C252.584 45.1885 252.226 44.8411 251.968 44.3613C251.71 43.8815 251.581 43.2441 251.581 42.4492V31.0303ZM265.234 42.7607V33.877H267.834V45.5H265.385L265.234 42.7607ZM265.6 40.3438L266.47 40.3223C266.47 41.1029 266.384 41.8226 266.212 42.4814C266.04 43.1331 265.775 43.7025 265.417 44.1895C265.059 44.6693 264.601 45.0452 264.042 45.3174C263.483 45.5824 262.814 45.7148 262.033 45.7148C261.467 45.7148 260.948 45.6325 260.476 45.4678C260.003 45.3031 259.595 45.0488 259.251 44.7051C258.914 44.3613 258.653 43.9137 258.467 43.3623C258.281 42.8109 258.188 42.152 258.188 41.3857V33.877H260.776V41.4072C260.776 41.8298 260.826 42.1842 260.927 42.4707C261.027 42.75 261.163 42.9756 261.335 43.1475C261.507 43.3193 261.707 43.4411 261.937 43.5127C262.166 43.5843 262.409 43.6201 262.667 43.6201C263.405 43.6201 263.985 43.4769 264.407 43.1904C264.837 42.8968 265.141 42.5029 265.32 42.0088C265.507 41.5146 265.6 40.9596 265.6 40.3438ZM277.008 42.3525C277.008 42.0947 276.943 41.862 276.814 41.6543C276.686 41.4395 276.438 41.2461 276.073 41.0742C275.715 40.9023 275.185 40.7448 274.483 40.6016C273.868 40.4655 273.302 40.3044 272.786 40.1182C272.278 39.9248 271.841 39.6921 271.476 39.4199C271.11 39.1478 270.827 38.8255 270.627 38.4531C270.426 38.0807 270.326 37.651 270.326 37.1641C270.326 36.6914 270.43 36.2438 270.638 35.8213C270.845 35.3988 271.143 35.0264 271.529 34.7041C271.916 34.3818 272.385 34.1276 272.937 33.9414C273.495 33.7552 274.118 33.6621 274.806 33.6621C275.78 33.6621 276.614 33.8268 277.309 34.1562C278.01 34.4785 278.548 34.9189 278.92 35.4775C279.292 36.029 279.479 36.652 279.479 37.3467H276.89C276.89 37.0387 276.811 36.7523 276.653 36.4873C276.503 36.2152 276.274 35.9967 275.966 35.832C275.658 35.6602 275.271 35.5742 274.806 35.5742C274.362 35.5742 273.993 35.6458 273.699 35.7891C273.413 35.9251 273.198 36.1042 273.055 36.3262C272.919 36.5482 272.851 36.7917 272.851 37.0566C272.851 37.25 272.886 37.4255 272.958 37.583C273.037 37.7334 273.166 37.873 273.345 38.002C273.524 38.1237 273.767 38.2383 274.075 38.3457C274.39 38.4531 274.784 38.557 275.257 38.6572C276.145 38.8434 276.908 39.0833 277.545 39.377C278.189 39.6634 278.684 40.0358 279.027 40.4941C279.371 40.9453 279.543 41.5182 279.543 42.2129C279.543 42.7285 279.432 43.2012 279.21 43.6309C278.995 44.0534 278.68 44.4222 278.265 44.7373C277.849 45.0452 277.352 45.2852 276.771 45.457C276.199 45.6289 275.554 45.7148 274.838 45.7148C273.785 45.7148 272.894 45.5286 272.163 45.1562C271.433 44.7767 270.878 44.2933 270.498 43.7061C270.126 43.1117 269.939 42.4958 269.939 41.8584H272.442C272.471 42.3382 272.604 42.7214 272.84 43.0078C273.083 43.2871 273.384 43.4912 273.742 43.6201C274.107 43.7419 274.483 43.8027 274.87 43.8027C275.336 43.8027 275.726 43.7419 276.041 43.6201C276.356 43.4912 276.596 43.3193 276.761 43.1045C276.925 42.8825 277.008 42.6318 277.008 42.3525ZM286.934 45.7148C286.074 45.7148 285.297 45.5752 284.603 45.2959C283.915 45.0094 283.328 44.612 282.841 44.1035C282.361 43.5951 281.992 42.9971 281.734 42.3096C281.477 41.6221 281.348 40.8809 281.348 40.0859V39.6562C281.348 38.7467 281.48 37.9232 281.745 37.1855C282.01 36.4479 282.379 35.8177 282.852 35.2949C283.324 34.765 283.883 34.3604 284.527 34.0811C285.172 33.8018 285.87 33.6621 286.622 33.6621C287.453 33.6621 288.18 33.8018 288.803 34.0811C289.426 34.3604 289.941 34.7542 290.35 35.2627C290.765 35.764 291.073 36.362 291.273 37.0566C291.481 37.7513 291.585 38.5176 291.585 39.3555V40.4619H282.604V38.6035H289.028V38.3994C289.014 37.9339 288.921 37.4971 288.749 37.0889C288.584 36.6807 288.33 36.3512 287.986 36.1006C287.643 35.8499 287.184 35.7246 286.611 35.7246C286.182 35.7246 285.799 35.8177 285.462 36.0039C285.132 36.1829 284.857 36.4443 284.635 36.7881C284.413 37.1318 284.241 37.5472 284.119 38.0342C284.005 38.514 283.947 39.0547 283.947 39.6562V40.0859C283.947 40.5944 284.015 41.0671 284.151 41.5039C284.295 41.9336 284.502 42.3096 284.774 42.6318C285.047 42.9541 285.376 43.2083 285.763 43.3945C286.149 43.5736 286.59 43.6631 287.084 43.6631C287.707 43.6631 288.262 43.5378 288.749 43.2871C289.236 43.0365 289.659 42.682 290.017 42.2236L291.381 43.5449C291.13 43.9102 290.804 44.2611 290.403 44.5977C290.002 44.9271 289.512 45.1956 288.932 45.4033C288.359 45.611 287.693 45.7148 286.934 45.7148ZM131.494 68.0938V54H134.094V70.5H131.741L131.494 68.0938ZM123.932 64.8174V64.5918C123.932 63.7109 124.035 62.9089 124.243 62.1855C124.451 61.4551 124.752 60.8285 125.146 60.3057C125.539 59.7757 126.019 59.3711 126.585 59.0918C127.151 58.8053 127.788 58.6621 128.497 58.6621C129.199 58.6621 129.815 58.7982 130.345 59.0703C130.875 59.3424 131.326 59.7327 131.698 60.2412C132.071 60.7425 132.368 61.3441 132.59 62.0459C132.812 62.7406 132.969 63.514 133.062 64.3662V65.0859C132.969 65.9167 132.812 66.6758 132.59 67.3633C132.368 68.0508 132.071 68.6452 131.698 69.1465C131.326 69.6478 130.871 70.0345 130.334 70.3066C129.804 70.5788 129.185 70.7148 128.476 70.7148C127.774 70.7148 127.14 70.568 126.574 70.2744C126.016 69.9808 125.539 69.569 125.146 69.0391C124.752 68.5091 124.451 67.8861 124.243 67.1699C124.035 66.4466 123.932 65.6624 123.932 64.8174ZM126.521 64.5918V64.8174C126.521 65.3473 126.567 65.8415 126.66 66.2998C126.76 66.7581 126.914 67.1628 127.122 67.5137C127.33 67.8574 127.598 68.1296 127.928 68.3301C128.264 68.5234 128.665 68.6201 129.131 68.6201C129.718 68.6201 130.201 68.4912 130.581 68.2334C130.961 67.9756 131.258 67.6283 131.473 67.1914C131.695 66.7474 131.845 66.2533 131.924 65.709V63.7646C131.881 63.3421 131.791 62.9482 131.655 62.583C131.526 62.2178 131.351 61.8991 131.129 61.627C130.907 61.3477 130.631 61.1328 130.302 60.9824C129.979 60.8249 129.596 60.7461 129.152 60.7461C128.68 60.7461 128.279 60.8464 127.949 61.0469C127.62 61.2474 127.348 61.5231 127.133 61.874C126.925 62.2249 126.771 62.6331 126.671 63.0986C126.571 63.5641 126.521 64.0618 126.521 64.5918ZM139.572 58.877V70.5H136.973V58.877H139.572ZM136.801 55.8262C136.801 55.4323 136.93 55.1064 137.188 54.8486C137.452 54.5837 137.818 54.4512 138.283 54.4512C138.742 54.4512 139.103 54.5837 139.368 54.8486C139.633 55.1064 139.766 55.4323 139.766 55.8262C139.766 56.2129 139.633 56.5352 139.368 56.793C139.103 57.0508 138.742 57.1797 138.283 57.1797C137.818 57.1797 137.452 57.0508 137.188 56.793C136.93 56.5352 136.801 56.2129 136.801 55.8262ZM149.853 58.877H152.205V70.1777C152.205 71.2233 151.983 72.1113 151.539 72.8418C151.095 73.5723 150.476 74.1273 149.681 74.5068C148.886 74.8936 147.965 75.0869 146.92 75.0869C146.476 75.0869 145.982 75.0225 145.438 74.8936C144.9 74.7646 144.378 74.557 143.869 74.2705C143.368 73.9912 142.949 73.6224 142.612 73.1641L143.826 71.6387C144.242 72.1328 144.7 72.4945 145.201 72.7236C145.702 72.9528 146.229 73.0674 146.78 73.0674C147.375 73.0674 147.88 72.9564 148.295 72.7344C148.717 72.5195 149.043 72.2008 149.272 71.7783C149.502 71.3558 149.616 70.8402 149.616 70.2314V61.5088L149.853 58.877ZM141.957 64.8174V64.5918C141.957 63.7109 142.064 62.9089 142.279 62.1855C142.494 61.4551 142.802 60.8285 143.203 60.3057C143.604 59.7757 144.091 59.3711 144.664 59.0918C145.237 58.8053 145.885 58.6621 146.608 58.6621C147.36 58.6621 148.001 58.7982 148.531 59.0703C149.068 59.3424 149.516 59.7327 149.874 60.2412C150.232 60.7425 150.511 61.3441 150.712 62.0459C150.92 62.7406 151.074 63.514 151.174 64.3662V65.0859C151.081 65.9167 150.923 66.6758 150.701 67.3633C150.479 68.0508 150.186 68.6452 149.82 69.1465C149.455 69.6478 149.004 70.0345 148.467 70.3066C147.937 70.5788 147.31 70.7148 146.587 70.7148C145.878 70.7148 145.237 70.568 144.664 70.2744C144.098 69.9808 143.611 69.569 143.203 69.0391C142.802 68.5091 142.494 67.8861 142.279 67.1699C142.064 66.4466 141.957 65.6624 141.957 64.8174ZM144.546 64.5918V64.8174C144.546 65.3473 144.596 65.8415 144.696 66.2998C144.804 66.7581 144.965 67.1628 145.18 67.5137C145.402 67.8574 145.681 68.1296 146.018 68.3301C146.361 68.5234 146.766 68.6201 147.231 68.6201C147.84 68.6201 148.338 68.4912 148.725 68.2334C149.118 67.9756 149.419 67.6283 149.627 67.1914C149.842 66.7474 149.992 66.2533 150.078 65.709V63.7646C150.035 63.3421 149.946 62.9482 149.81 62.583C149.681 62.2178 149.505 61.8991 149.283 61.627C149.061 61.3477 148.782 61.1328 148.445 60.9824C148.109 60.8249 147.711 60.7461 147.253 60.7461C146.787 60.7461 146.383 60.8464 146.039 61.0469C145.695 61.2474 145.412 61.5231 145.19 61.874C144.976 62.2249 144.814 62.6331 144.707 63.0986C144.6 63.5641 144.546 64.0618 144.546 64.5918ZM157.662 58.877V70.5H155.062V58.877H157.662ZM154.891 55.8262C154.891 55.4323 155.02 55.1064 155.277 54.8486C155.542 54.5837 155.908 54.4512 156.373 54.4512C156.831 54.4512 157.193 54.5837 157.458 54.8486C157.723 55.1064 157.855 55.4323 157.855 55.8262C157.855 56.2129 157.723 56.5352 157.458 56.793C157.193 57.0508 156.831 57.1797 156.373 57.1797C155.908 57.1797 155.542 57.0508 155.277 56.793C155.02 56.5352 154.891 56.2129 154.891 55.8262ZM163.098 61.1113V74.9688H160.509V58.877H162.894L163.098 61.1113ZM170.671 64.5811V64.8066C170.671 65.6517 170.571 66.4359 170.37 67.1592C170.177 67.8753 169.887 68.502 169.5 69.0391C169.12 69.569 168.651 69.9808 168.093 70.2744C167.534 70.568 166.89 70.7148 166.159 70.7148C165.436 70.7148 164.802 70.5824 164.258 70.3174C163.721 70.0452 163.266 69.6621 162.894 69.168C162.521 68.6738 162.22 68.0938 161.991 67.4277C161.769 66.7546 161.612 66.0169 161.519 65.2148V64.3447C161.612 63.4925 161.769 62.7191 161.991 62.0244C162.22 61.3298 162.521 60.7318 162.894 60.2305C163.266 59.7292 163.721 59.3424 164.258 59.0703C164.795 58.7982 165.422 58.6621 166.138 58.6621C166.868 58.6621 167.516 58.8053 168.082 59.0918C168.648 59.3711 169.124 59.7721 169.511 60.2949C169.897 60.8105 170.188 61.4336 170.381 62.1641C170.574 62.8874 170.671 63.693 170.671 64.5811ZM168.082 64.8066V64.5811C168.082 64.0439 168.032 63.5462 167.932 63.0879C167.831 62.6224 167.674 62.2142 167.459 61.8633C167.244 61.5124 166.968 61.2402 166.632 61.0469C166.302 60.8464 165.905 60.7461 165.439 60.7461C164.981 60.7461 164.587 60.8249 164.258 60.9824C163.928 61.1328 163.653 61.3441 163.431 61.6162C163.209 61.8883 163.037 62.207 162.915 62.5723C162.793 62.9303 162.707 63.3206 162.657 63.7432V65.8271C162.743 66.3428 162.89 66.8154 163.098 67.2451C163.305 67.6748 163.599 68.0186 163.979 68.2764C164.365 68.527 164.859 68.6523 165.461 68.6523C165.926 68.6523 166.324 68.5521 166.653 68.3516C166.983 68.151 167.251 67.8753 167.459 67.5244C167.674 67.1663 167.831 66.7546 167.932 66.2891C168.032 65.8236 168.082 65.3294 168.082 64.8066ZM179.426 68.1689V62.626C179.426 62.2106 179.351 61.8525 179.2 61.5518C179.05 61.251 178.821 61.0182 178.513 60.8535C178.212 60.6888 177.832 60.6064 177.374 60.6064C176.951 60.6064 176.586 60.6781 176.278 60.8213C175.97 60.9645 175.73 61.1579 175.559 61.4014C175.387 61.6449 175.301 61.9206 175.301 62.2285H172.723C172.723 61.7702 172.834 61.3262 173.056 60.8965C173.278 60.4668 173.6 60.0837 174.022 59.7471C174.445 59.4105 174.95 59.1455 175.537 58.9521C176.124 58.7588 176.783 58.6621 177.514 58.6621C178.387 58.6621 179.161 58.8089 179.834 59.1025C180.514 59.3962 181.048 59.8402 181.435 60.4346C181.828 61.0218 182.025 61.7594 182.025 62.6475V67.8145C182.025 68.3444 182.061 68.8206 182.133 69.2432C182.212 69.6585 182.323 70.0202 182.466 70.3281V70.5H179.812C179.691 70.2207 179.594 69.8662 179.522 69.4365C179.458 68.9997 179.426 68.5771 179.426 68.1689ZM179.802 63.4316L179.823 65.0322H177.965C177.485 65.0322 177.062 65.0788 176.697 65.1719C176.332 65.2578 176.028 65.3867 175.784 65.5586C175.541 65.7305 175.358 65.9382 175.236 66.1816C175.115 66.4251 175.054 66.7008 175.054 67.0088C175.054 67.3167 175.125 67.5996 175.269 67.8574C175.412 68.1081 175.619 68.305 175.892 68.4482C176.171 68.5915 176.507 68.6631 176.901 68.6631C177.431 68.6631 177.893 68.5557 178.287 68.3408C178.688 68.1188 179.003 67.8503 179.232 67.5352C179.462 67.2129 179.583 66.9085 179.598 66.6221L180.436 67.7715C180.35 68.0651 180.203 68.3802 179.995 68.7168C179.787 69.0534 179.515 69.3757 179.179 69.6836C178.849 69.9844 178.452 70.2314 177.986 70.4248C177.528 70.6182 176.998 70.7148 176.396 70.7148C175.637 70.7148 174.961 70.5645 174.366 70.2637C173.772 69.9557 173.306 69.5439 172.97 69.0283C172.633 68.5055 172.465 67.9147 172.465 67.2559C172.465 66.64 172.579 66.0957 172.809 65.623C173.045 65.1432 173.389 64.7422 173.84 64.4199C174.298 64.0977 174.857 63.8542 175.516 63.6895C176.174 63.5176 176.926 63.4316 177.771 63.4316H179.802ZM187.343 54V70.5H184.743V54H187.343ZM194.562 58.877L189.502 64.4844L186.73 67.3203L186.054 65.1289L188.148 62.54L191.436 58.877H194.562ZM191.994 70.5L188.224 65.043L189.856 63.2275L194.991 70.5H191.994ZM201.114 70.7148C200.255 70.7148 199.478 70.5752 198.783 70.2959C198.096 70.0094 197.508 69.612 197.021 69.1035C196.542 68.5951 196.173 67.9971 195.915 67.3096C195.657 66.6221 195.528 65.8809 195.528 65.0859V64.6562C195.528 63.7467 195.661 62.9232 195.926 62.1855C196.191 61.4479 196.56 60.8177 197.032 60.2949C197.505 59.765 198.063 59.3604 198.708 59.0811C199.353 58.8018 200.051 58.6621 200.803 58.6621C201.633 58.6621 202.36 58.8018 202.983 59.0811C203.606 59.3604 204.122 59.7542 204.53 60.2627C204.946 60.764 205.254 61.362 205.454 62.0566C205.662 62.7513 205.766 63.5176 205.766 64.3555V65.4619H196.785V63.6035H203.209V63.3994C203.195 62.9339 203.102 62.4971 202.93 62.0889C202.765 61.6807 202.511 61.3512 202.167 61.1006C201.823 60.8499 201.365 60.7246 200.792 60.7246C200.362 60.7246 199.979 60.8177 199.643 61.0039C199.313 61.1829 199.037 61.4443 198.815 61.7881C198.593 62.1318 198.422 62.5472 198.3 63.0342C198.185 63.514 198.128 64.0547 198.128 64.6562V65.0859C198.128 65.5944 198.196 66.0671 198.332 66.5039C198.475 66.9336 198.683 67.3096 198.955 67.6318C199.227 67.9541 199.557 68.2083 199.943 68.3945C200.33 68.5736 200.771 68.6631 201.265 68.6631C201.888 68.6631 202.443 68.5378 202.93 68.2871C203.417 68.0365 203.839 67.682 204.197 67.2236L205.562 68.5449C205.311 68.9102 204.985 69.2611 204.584 69.5977C204.183 69.9271 203.692 70.1956 203.112 70.4033C202.539 70.611 201.873 70.7148 201.114 70.7148ZM213.113 58.877V60.7676H206.561V58.877H213.113ZM208.451 56.0303H211.04V67.2881C211.04 67.6462 211.09 67.9219 211.19 68.1152C211.298 68.3014 211.445 68.4268 211.631 68.4912C211.817 68.5557 212.035 68.5879 212.286 68.5879C212.465 68.5879 212.637 68.5771 212.802 68.5557C212.966 68.5342 213.099 68.5127 213.199 68.4912L213.21 70.4678C212.995 70.5322 212.744 70.5895 212.458 70.6396C212.179 70.6898 211.856 70.7148 211.491 70.7148C210.897 70.7148 210.37 70.611 209.912 70.4033C209.454 70.1885 209.096 69.8411 208.838 69.3613C208.58 68.8815 208.451 68.2441 208.451 67.4492V56.0303ZM220.439 58.877V60.7676H213.887V58.877H220.439ZM215.777 56.0303H218.366V67.2881C218.366 67.6462 218.416 67.9219 218.517 68.1152C218.624 68.3014 218.771 68.4268 218.957 68.4912C219.143 68.5557 219.362 68.5879 219.612 68.5879C219.791 68.5879 219.963 68.5771 220.128 68.5557C220.293 68.5342 220.425 68.5127 220.525 68.4912L220.536 70.4678C220.321 70.5322 220.071 70.5895 219.784 70.6396C219.505 70.6898 219.183 70.7148 218.817 70.7148C218.223 70.7148 217.697 70.611 217.238 70.4033C216.78 70.1885 216.422 69.8411 216.164 69.3613C215.906 68.8815 215.777 68.2441 215.777 67.4492V56.0303ZM225.424 54.8594L225.166 65.8916H222.953L222.685 54.8594H225.424ZM222.609 69.2754C222.609 68.8815 222.738 68.5521 222.996 68.2871C223.261 68.015 223.626 67.8789 224.092 67.8789C224.55 67.8789 224.912 68.015 225.177 68.2871C225.442 68.5521 225.574 68.8815 225.574 69.2754C225.574 69.6549 225.442 69.9808 225.177 70.2529C224.912 70.5179 224.55 70.6504 224.092 70.6504C223.626 70.6504 223.261 70.5179 222.996 70.2529C222.738 69.9808 222.609 69.6549 222.609 69.2754Z" fill="white"/>
</svg>
