<svg width="228" height="57" viewBox="0 0 228 57" fill="none" xmlns="http://www.w3.org/2000/svg">
<rect width="228" height="57" fill="#009A9A"/>
<g filter="url(#filter0_d_4_98)">
<path d="M24.8539 15.8H28.8499L31.4419 35.348H31.5139L34.1059 15.8H37.7419L33.9259 41H28.6699L24.8539 15.8ZM41.6844 15.8H47.0484L51.1524 41H47.1924L46.4724 35.996V36.068H41.9724L41.2524 41H37.5804L41.6844 15.8ZM46.0044 32.648L44.2404 20.192H44.1684L42.4404 32.648H46.0044ZM56.3094 15.8H61.6734L65.7774 41H61.8174L61.0974 35.996V36.068H56.5974L55.8774 41H52.2054L56.3094 15.8ZM60.6294 32.648L58.8654 20.192H58.7934L57.0654 32.648H60.6294ZM69.1423 19.4H65.0023V15.8H77.2423V19.4H73.1023V41H69.1423V19.4ZM80.5673 15.8H85.9313L90.0353 41H86.0753L85.3553 35.996V36.068H80.8553L80.1353 41H76.4633L80.5673 15.8ZM84.8873 32.648L83.1233 20.192H83.0513L81.3232 32.648H84.8873ZM97.7221 15.8H103.59C105.63 15.8 107.118 16.28 108.054 17.24C108.99 18.176 109.458 19.628 109.458 21.596V23.144C109.458 25.76 108.594 27.416 106.866 28.112V28.184C107.826 28.472 108.498 29.06 108.882 29.948C109.29 30.836 109.494 32.024 109.494 33.512V37.94C109.494 38.66 109.518 39.248 109.566 39.704C109.614 40.136 109.734 40.568 109.926 41H105.894C105.75 40.592 105.654 40.208 105.606 39.848C105.558 39.488 105.534 38.84 105.534 37.904V33.296C105.534 32.144 105.342 31.34 104.958 30.884C104.598 30.428 103.962 30.2 103.05 30.2H101.682V41H97.7221V15.8ZM103.122 26.6C103.914 26.6 104.502 26.396 104.886 25.988C105.294 25.58 105.498 24.896 105.498 23.936V21.992C105.498 21.08 105.33 20.42 104.994 20.012C104.682 19.604 104.178 19.4 103.482 19.4H101.682V26.6H103.122ZM112.242 15.8H123.042V19.4H116.202V26.06H121.638V29.66H116.202V37.4H123.042V41H112.242V15.8ZM128.416 19.4H124.276V15.8H136.516V19.4H132.376V41H128.416V19.4ZM143.581 41.36C141.661 41.36 140.209 40.82 139.225 39.74C138.241 38.636 137.749 37.064 137.749 35.024V33.584H141.493V35.312C141.493 36.944 142.177 37.76 143.545 37.76C144.217 37.76 144.721 37.568 145.057 37.184C145.417 36.776 145.597 36.128 145.597 35.24C145.597 34.184 145.357 33.26 144.877 32.468C144.397 31.652 143.509 30.68 142.213 29.552C140.581 28.112 139.441 26.816 138.793 25.664C138.145 24.488 137.821 23.168 137.821 21.704C137.821 19.712 138.325 18.176 139.333 17.096C140.341 15.992 141.805 15.44 143.725 15.44C145.621 15.44 147.049 15.992 148.009 17.096C148.993 18.176 149.485 19.736 149.485 21.776V22.82H145.741V21.524C145.741 20.66 145.573 20.036 145.237 19.652C144.901 19.244 144.409 19.04 143.761 19.04C142.441 19.04 141.781 19.844 141.781 21.452C141.781 22.364 142.021 23.216 142.501 24.008C143.005 24.8 143.905 25.76 145.201 26.888C146.857 28.328 147.997 29.636 148.621 30.812C149.245 31.988 149.557 33.368 149.557 34.952C149.557 37.016 149.041 38.6 148.009 39.704C147.001 40.808 145.525 41.36 143.581 41.36ZM151.828 15.8H162.628V19.4H155.788V26.06H161.224V29.66H155.788V37.4H162.628V41H151.828V15.8ZM164.906 15.8H170.738C172.706 15.8 174.182 16.328 175.166 17.384C176.15 18.44 176.642 19.988 176.642 22.028V24.512C176.642 26.552 176.15 28.1 175.166 29.156C174.182 30.212 172.706 30.74 170.738 30.74H168.866V41H164.906V15.8ZM170.738 27.14C171.386 27.14 171.866 26.96 172.178 26.6C172.514 26.24 172.682 25.628 172.682 24.764V21.776C172.682 20.912 172.514 20.3 172.178 19.94C171.866 19.58 171.386 19.4 170.738 19.4H168.866V27.14H170.738ZM181.959 19.4H177.819V15.8H190.059V19.4H185.919V41H181.959V19.4ZM191.976 15.8H202.776V19.4H195.936V26.06H201.372V29.66H195.936V37.4H202.776V41H191.976V15.8Z" fill="white"/>
</g>
<defs>
<filter id="filter0_d_4_98" x="20.8539" y="13.44" width="185.922" height="33.92" filterUnits="userSpaceOnUse" color-interpolation-filters="sRGB">
<feFlood flood-opacity="0" result="BackgroundImageFix"/>
<feColorMatrix in="SourceAlpha" type="matrix" values="0 0 0 0 0 0 0 0 0 0 0 0 0 0 0 0 0 0 127 0" result="hardAlpha"/>
<feOffset dy="2"/>
<feGaussianBlur stdDeviation="2"/>
<feComposite in2="hardAlpha" operator="out"/>
<feColorMatrix type="matrix" values="0 0 0 0 0 0 0 0 0 0.5 0 0 0 0 0.5 0 0 0 1 0"/>
<feBlend mode="normal" in2="BackgroundImageFix" result="effect1_dropShadow_4_98"/>
<feBlend mode="normal" in="SourceGraphic" in2="effect1_dropShadow_4_98" result="shape"/>
</filter>
</defs>
</svg>
