<svg width="131" height="64" viewBox="0 0 131 64" fill="none" xmlns="http://www.w3.org/2000/svg">
<path d="M120.064 4.77216H26.0913C17.7538 4.77216 10.6832 10.917 9.52238 19.1807L4.82395 52.6915C4.34029 56.1417 7.02116 59.2233 10.5081 59.2233H104.481C112.819 59.2233 119.889 53.0785 121.05 44.8194L125.749 11.3085C126.232 7.85377 123.551 4.77216 120.064 4.77216ZM74.3055 13.1556C76.1802 10.7051 78.4742 9.46137 81.0998 9.47519H89.732C91.8278 9.48441 93.8869 9.44756 95.7847 8.95468C95.8538 8.93626 95.9044 9.01456 95.863 9.06984C93.9882 11.5204 91.6943 12.7917 89.0687 12.7733H80.4411C78.3406 12.7641 76.2816 12.7779 74.3838 13.2754C74.3147 13.2938 74.264 13.2109 74.3055 13.1602V13.1556ZM36.1791 49.0341H26.1005C26.0498 49.0341 26.0083 49.0019 26.0037 48.9558C25.7734 47.4173 22.4339 24.1877 22.4339 24.1877C22.07 22.078 21.4619 18.6371 19.0528 16.8084C18.9745 16.7532 19.0114 16.6334 19.1081 16.6334H30.1632C30.2093 16.6334 30.2554 16.6656 30.26 16.7117C30.7436 19.7196 33.5581 40.0795 33.5581 40.0795C33.5673 40.1716 33.7009 40.1946 33.7423 40.1071C34.788 37.9514 41.3243 24.4917 41.3243 24.4917C42.8997 21.037 42.8121 19.3972 41.1032 16.7854C41.0618 16.7209 41.1032 16.6334 41.1815 16.6334H52.5775C52.6604 16.6334 52.7065 16.7255 52.6558 16.79C49.5051 20.8343 36.3311 48.942 36.3311 48.942C36.2988 49.0019 36.2389 49.0341 36.1745 49.0341H36.1791ZM64.4157 23.1006L61.7348 41.5996C61.242 44.7687 61.2512 46.7448 63.4392 48.8637C63.4991 48.9236 63.4622 49.0295 63.3793 49.0295H49.7492C49.6617 49.0295 49.6203 48.919 49.6894 48.8591C51.6148 47.0442 52.4762 45.8788 53.0197 43.0367L55.6868 24.4871C56.152 21.1798 56.3178 18.8674 54.1621 16.79C54.0976 16.7301 54.1344 16.6242 54.222 16.6242H67.7645C67.8566 16.6242 67.8935 16.7393 67.8244 16.7992C65.5212 18.8214 64.8717 20.4013 64.4203 23.096L64.4157 23.1006ZM92.8689 44.4555C92.8182 44.8286 92.6432 45.1741 92.3714 45.4366C88.0645 49.6237 80.5562 50.7984 74.7799 48.6564C65.9266 45.3537 65.6318 33.5155 69.1879 26.1823C72.8913 18.6602 80.7128 15.4496 89.0226 16.5597C91.1599 16.8361 92.8136 16.7393 94.8173 16.0254C94.8864 15.9977 94.9509 16.053 94.9463 16.1221C94.6377 18.135 93.7256 24.6944 93.4124 26.9239C93.4032 27.0114 93.2926 27.039 93.242 26.9653C89.9991 22.5663 84.8631 20.8988 80.395 24.349C80.395 24.349 80.3904 24.3536 80.3858 24.3536C77.2028 27.1542 75.9315 31.7467 76.2401 35.8279C76.6731 45.2385 87.3413 44.6858 93.2742 40.3559C93.3433 40.3006 93.4354 40.3559 93.4216 40.4434L92.8689 44.4509V44.4555ZM111.999 16.8038C109.696 18.826 109.042 20.406 108.595 23.1006L105.914 41.5996C105.421 44.7687 105.43 46.7448 107.614 48.8637C107.674 48.9236 107.641 49.0295 107.549 49.0295H93.9191C93.8316 49.0295 93.7947 48.919 93.8592 48.8591C95.7847 47.0442 96.646 45.8788 97.1896 43.0367L99.8566 24.4871C100.322 21.1798 100.488 18.8674 98.3319 16.79C98.2721 16.7301 98.3089 16.6242 98.3918 16.6242H111.934C112.026 16.6242 112.063 16.7393 111.994 16.7992L111.999 16.8038Z" fill="white"/>
<path d="M52.6604 16.79C49.5097 20.8343 36.3357 48.942 36.3357 48.942C36.3034 49.0019 36.2436 49.0387 36.1791 49.0387H26.1051C26.0544 49.0387 26.013 49.0065 26.0083 48.9604C25.7734 47.4219 22.4385 24.1923 22.4385 24.1923C22.0746 22.0826 21.4665 18.6417 19.0528 16.8084C18.9791 16.7531 19.016 16.6334 19.1081 16.6334H30.1678C30.2139 16.6334 30.2554 16.6656 30.2646 16.7117C30.7482 19.7196 33.5627 40.0795 33.5627 40.0795C33.5765 40.1762 33.7055 40.1946 33.7469 40.1071C34.7926 37.9513 41.3335 24.4917 41.3335 24.4917C42.9089 21.037 42.8214 19.3971 41.1124 16.7854C41.071 16.7209 41.1124 16.6334 41.1907 16.6334H52.5867C52.665 16.6334 52.7111 16.7255 52.665 16.79H52.6604Z" fill="#E61717"/>
<path d="M67.8198 16.8038C65.5166 18.826 64.8625 20.4106 64.4157 23.1006L61.7349 41.5996C61.242 44.7687 61.2512 46.7448 63.4392 48.8637C63.5037 48.9236 63.4622 49.0295 63.3747 49.0295H49.7446C49.6571 49.0295 49.6203 48.919 49.6801 48.8591C51.6056 47.0396 52.467 45.8788 53.0105 43.0413L55.6776 24.4917C56.1428 21.189 56.3086 18.8767 54.1529 16.7946C54.0884 16.7347 54.1252 16.6288 54.2174 16.6288H67.7599C67.852 16.6288 67.8843 16.7393 67.8198 16.8038Z" fill="#E61717"/>
<path d="M93.4216 40.4433L92.8689 44.4554C92.8182 44.8286 92.6432 45.1694 92.3714 45.4366C88.0691 49.6237 80.5562 50.7983 74.7845 48.6564C65.9312 45.3537 65.6318 33.5201 69.1925 26.1822C72.8959 18.6601 80.7174 15.4449 89.0318 16.5597C91.1691 16.8314 92.8228 16.7393 94.8265 16.0253C94.8956 16.0023 94.9647 16.0576 94.9555 16.1267C94.6469 18.1396 93.7395 24.699 93.4216 26.9284C93.4124 27.016 93.3019 27.039 93.2512 26.9699C90.0084 22.5709 84.8723 20.9034 80.4042 24.3535C80.4042 24.3535 80.3996 24.3535 80.395 24.3581C77.2074 27.1588 75.9407 31.7513 76.2493 35.8324C76.6823 45.2431 87.3505 44.6904 93.2788 40.3558C93.3479 40.3052 93.4401 40.3558 93.4262 40.4433H93.4216Z" fill="#E61717"/>
<path d="M111.999 16.8038C109.696 18.826 109.042 20.4106 108.595 23.1006L105.914 41.5996C105.421 44.7687 105.43 46.7448 107.618 48.8637C107.678 48.9236 107.641 49.0295 107.554 49.0295H93.9237C93.8362 49.0295 93.7993 48.919 93.8592 48.8591C95.7846 47.0396 96.646 45.8788 97.1896 43.0413L99.8566 24.4917C100.317 21.189 100.488 18.8767 98.3319 16.7946C98.2674 16.7347 98.3089 16.6288 98.3964 16.6288H111.939C112.031 16.6288 112.068 16.7393 111.999 16.8038Z" fill="#E61717"/>
<path d="M127.997 3.61595C126.002 1.3174 123.109 0 120.064 0H26.0913C15.4323 0 6.27954 7.95969 4.80092 18.5173L0.102489 52.0282C-0.321291 55.0407 0.581545 58.0855 2.58068 60.384C4.57982 62.6826 7.46797 64 10.5127 64H104.486C115.145 64 124.298 56.0403 125.776 45.4827L130.47 11.9718C130.894 8.95926 129.991 5.91449 127.992 3.61595H127.997ZM125.749 11.3039L121.05 44.8147C119.894 53.0784 112.823 59.2233 104.481 59.2233H10.5081C7.02116 59.2233 4.34029 56.1416 4.82395 52.6869L9.51778 19.176C10.674 10.9123 17.7446 4.76753 26.0867 4.76753H120.06C123.547 4.76753 126.228 7.84914 125.744 11.3039H125.749Z" fill="#E61717"/>
<path d="M52.6604 16.79C49.5097 20.8343 36.3357 48.942 36.3357 48.942C36.3034 49.0019 36.2436 49.0387 36.1791 49.0387H26.1051C26.0544 49.0387 26.013 49.0065 26.0083 48.9604C25.7734 47.4219 22.4385 24.1923 22.4385 24.1923C22.0746 22.0826 21.4665 18.6417 19.0528 16.8084C18.9791 16.7531 19.016 16.6334 19.1081 16.6334H30.1678C30.2139 16.6334 30.2554 16.6656 30.2646 16.7117C30.7482 19.7196 33.5627 40.0795 33.5627 40.0795C33.5765 40.1762 33.7055 40.1946 33.7469 40.1071C34.7926 37.9513 41.3335 24.4917 41.3335 24.4917C42.9089 21.037 42.8214 19.3971 41.1124 16.7854C41.071 16.7209 41.1124 16.6334 41.1907 16.6334H52.5867C52.665 16.6334 52.7111 16.7255 52.665 16.79H52.6604Z" fill="#E61717"/>
<path d="M67.8198 16.8038C65.5166 18.826 64.8625 20.4106 64.4157 23.1006L61.7349 41.5996C61.242 44.7687 61.2512 46.7448 63.4392 48.8637C63.5037 48.9236 63.4622 49.0295 63.3747 49.0295H49.7446C49.6571 49.0295 49.6203 48.919 49.6801 48.8591C51.6056 47.0396 52.467 45.8788 53.0105 43.0413L55.6776 24.4917C56.1428 21.189 56.3086 18.8767 54.1529 16.7946C54.0884 16.7347 54.1252 16.6288 54.2174 16.6288H67.7599C67.852 16.6288 67.8843 16.7393 67.8198 16.8038Z" fill="#E61717"/>
<path d="M93.4216 40.4433L92.8689 44.4554C92.8182 44.8286 92.6432 45.1694 92.3714 45.4366C88.0691 49.6237 80.5562 50.7983 74.7845 48.6564C65.9312 45.3537 65.6318 33.5201 69.1925 26.1822C72.8959 18.6601 80.7174 15.4449 89.0318 16.5597C91.1691 16.8314 92.8228 16.7393 94.8265 16.0253C94.8956 16.0023 94.9647 16.0576 94.9555 16.1267C94.6469 18.1396 93.7395 24.699 93.4216 26.9284C93.4124 27.016 93.3019 27.039 93.2512 26.9699C90.0084 22.5709 84.8723 20.9034 80.4042 24.3535C80.4042 24.3535 80.3996 24.3535 80.395 24.3581C77.2074 27.1588 75.9407 31.7513 76.2493 35.8324C76.6823 45.2431 87.3505 44.6904 93.2788 40.3558C93.3479 40.3052 93.4401 40.3558 93.4262 40.4433H93.4216Z" fill="#E61717"/>
<path d="M111.999 16.8038C109.696 18.826 109.042 20.4106 108.595 23.1006L105.914 41.5996C105.421 44.7687 105.43 46.7448 107.618 48.8637C107.678 48.9236 107.641 49.0295 107.554 49.0295H93.9237C93.8362 49.0295 93.7993 48.919 93.8592 48.8591C95.7846 47.0396 96.646 45.8788 97.1896 43.0413L99.8566 24.4917C100.317 21.189 100.488 18.8767 98.3319 16.7946C98.2674 16.7347 98.3089 16.6288 98.3964 16.6288H111.939C112.031 16.6288 112.068 16.7393 111.999 16.8038Z" fill="#E61717"/>
<path d="M95.7847 8.95468C95.8537 8.93625 95.9044 9.01456 95.863 9.06984C93.9882 11.5204 91.6943 12.7917 89.0687 12.7733H80.4364C78.3406 12.7641 76.2769 12.7779 74.3838 13.2708C74.3147 13.2892 74.264 13.2109 74.3055 13.1556C76.1802 10.7051 78.4788 9.45677 81.0998 9.47519H89.732C91.8278 9.4844 93.8869 9.44755 95.7847 8.95007V8.95468Z" fill="#00B1EB"/>
</svg>
