<svg width="770" height="100" viewBox="0 0 770 100" fill="none" xmlns="http://www.w3.org/2000/svg">
<rect width="770" height="100" fill="#FFEBC4"/>
<rect x="183" y="14" width="236" height="72" rx="13.5" fill="#E3000F"/>
<path d="M221.868 28.719C224.808 28.719 227.349 29.265 229.491 30.357C231.633 31.407 233.25 32.856 234.342 34.704C235.476 36.51 236.043 38.526 236.043 40.752C236.043 43.062 235.539 45.288 234.531 47.43C233.565 49.572 231.885 51.987 229.491 54.675C227.139 57.363 223.695 60.828 219.159 65.07H236.988L235.98 72H208.953V65.511C214.245 60.219 218.067 56.271 220.419 53.667C222.771 51.063 224.43 48.858 225.396 47.052C226.362 45.246 226.845 43.398 226.845 41.508C226.845 39.702 226.32 38.274 225.27 37.224C224.22 36.174 222.813 35.649 221.049 35.649C219.495 35.649 218.109 36.006 216.891 36.72C215.673 37.392 214.392 38.526 213.048 40.122L207.693 35.838C211.305 31.092 216.03 28.719 221.868 28.719ZM266.841 57.951C267.429 60.849 268.5 62.97 270.054 64.314C271.65 65.658 273.771 66.33 276.417 66.33C279.231 66.33 282.255 65.448 285.489 63.684V70.614C283.767 71.412 282.129 72 280.575 72.378C279.021 72.798 277.32 73.008 275.472 73.008C270.726 73.008 266.82 71.706 263.754 69.102C260.73 66.456 258.735 62.739 257.769 57.951H252.288L253.548 53.1H257.517V48.375H252.288L253.548 43.461H257.832C259.008 38.883 261.192 35.292 264.384 32.688C267.618 30.042 271.419 28.719 275.787 28.719C280.155 28.719 284.103 29.916 287.631 32.31L284.418 37.854C283.074 36.972 281.751 36.342 280.449 35.964C279.147 35.544 277.698 35.334 276.102 35.334C273.918 35.334 272.049 36.006 270.495 37.35C268.941 38.694 267.786 40.731 267.03 43.461H282.465L281.205 48.375H266.589V53.1H280.197L279 57.951H266.841Z" fill="#FFE80D"/>
<path d="M303.099 61V58.6136L310.482 50.9645C311.27 50.1335 311.92 49.4055 312.431 48.7805C312.95 48.1484 313.337 47.5483 313.592 46.9801C313.848 46.4119 313.976 45.8082 313.976 45.169C313.976 44.4446 313.805 43.8196 313.464 43.294C313.124 42.7614 312.658 42.353 312.069 42.0689C311.479 41.7777 310.815 41.6321 310.077 41.6321C309.295 41.6321 308.614 41.7919 308.031 42.1115C307.449 42.4311 307.001 42.8821 306.689 43.4645C306.376 44.0469 306.22 44.7287 306.22 45.5099H303.077C303.077 44.1818 303.383 43.0206 303.994 42.0263C304.604 41.032 305.442 40.2614 306.508 39.7145C307.573 39.1605 308.784 38.8835 310.141 38.8835C311.511 38.8835 312.719 39.157 313.763 39.7038C314.814 40.2436 315.634 40.9822 316.224 41.9197C316.813 42.8501 317.108 43.9013 317.108 45.0732C317.108 45.8828 316.955 46.6747 316.65 47.4489C316.352 48.223 315.83 49.0859 315.084 50.0376C314.338 50.9822 313.301 52.1293 311.973 53.4787L307.637 58.017V58.1768H317.46V61H303.099ZM330.909 55.4496L330.888 51.5611H331.442L337.961 44.6364H341.775L334.339 52.5199H333.839L330.909 55.4496ZM327.979 61V39.1818H331.165V61H327.979ZM338.313 61L332.454 53.223L334.648 50.9964L342.223 61H338.313ZM354.294 54.2138V44.6364H357.49V61H354.358V58.1662H354.188C353.811 59.0398 353.208 59.7678 352.377 60.3501C351.553 60.9254 350.526 61.2131 349.298 61.2131C348.247 61.2131 347.316 60.9822 346.507 60.5206C345.704 60.0518 345.072 59.3594 344.61 58.4432C344.156 57.527 343.928 56.3942 343.928 55.0447V44.6364H347.114V54.6612C347.114 55.7763 347.423 56.6641 348.041 57.3246C348.659 57.9851 349.461 58.3153 350.448 58.3153C351.045 58.3153 351.638 58.1662 352.227 57.8679C352.824 57.5696 353.318 57.1186 353.708 56.5149C354.106 55.9112 354.301 55.1442 354.294 54.2138ZM371.386 54.2138V44.6364H374.582V61H371.45V58.1662H371.279C370.903 59.0398 370.299 59.7678 369.468 60.3501C368.645 60.9254 367.618 61.2131 366.39 61.2131C365.338 61.2131 364.408 60.9822 363.598 60.5206C362.796 60.0518 362.164 59.3594 361.702 58.4432C361.248 57.527 361.02 56.3942 361.02 55.0447V44.6364H364.206V54.6612C364.206 55.7763 364.515 56.6641 365.132 57.3246C365.75 57.9851 366.553 58.3153 367.54 58.3153C368.137 58.3153 368.73 58.1662 369.319 57.8679C369.916 57.5696 370.409 57.1186 370.8 56.5149C371.198 55.9112 371.393 55.1442 371.386 54.2138ZM384.238 61.3196C382.917 61.3196 381.738 60.9822 380.701 60.3075C379.671 59.6257 378.861 58.6562 378.272 57.3991C377.689 56.1349 377.398 54.6186 377.398 52.8501C377.398 51.0817 377.693 49.5689 378.282 48.3118C378.879 47.0547 379.696 46.0923 380.733 45.4247C381.77 44.7571 382.945 44.4233 384.259 44.4233C385.275 44.4233 386.091 44.5938 386.709 44.9347C387.334 45.2685 387.817 45.6591 388.158 46.1065C388.506 46.554 388.776 46.9482 388.968 47.2891H389.16V39.1818H392.345V61H389.234V58.4538H388.968C388.776 58.8018 388.499 59.1996 388.137 59.647C387.782 60.0945 387.292 60.4851 386.667 60.8189C386.042 61.1527 385.232 61.3196 384.238 61.3196ZM384.941 58.603C385.857 58.603 386.631 58.3615 387.263 57.8786C387.903 57.3885 388.385 56.7102 388.712 55.8438C389.046 54.9773 389.213 53.9687 389.213 52.8182C389.213 51.6818 389.05 50.6875 388.723 49.8352C388.396 48.983 387.917 48.3189 387.285 47.843C386.653 47.3672 385.871 47.1293 384.941 47.1293C383.982 47.1293 383.183 47.3778 382.544 47.875C381.905 48.3722 381.422 49.0504 381.095 49.9098C380.775 50.7692 380.616 51.7386 380.616 52.8182C380.616 53.9119 380.779 54.8956 381.106 55.7692C381.432 56.6428 381.915 57.3352 382.555 57.8466C383.201 58.3509 383.996 58.603 384.941 58.603Z" fill="white"/>
<rect x="427.25" y="16.25" width="157.5" height="67.5" rx="15.75" stroke="#E3000F" stroke-width="4.5"/>
<path d="M480.404 37.552L479.828 42.088H473.672V62.5H467.768V42.088H461.324V37.552H480.404ZM497.373 52.564C497.373 53.356 497.337 54.04 497.265 54.616H485.421C485.613 56.224 486.069 57.352 486.789 58C487.509 58.648 488.505 58.972 489.777 58.972C490.545 58.972 491.289 58.84 492.009 58.576C492.729 58.288 493.509 57.856 494.349 57.28L496.689 60.448C494.457 62.224 491.973 63.112 489.237 63.112C486.141 63.112 483.765 62.2 482.109 60.376C480.453 58.552 479.625 56.104 479.625 53.032C479.625 51.088 479.973 49.348 480.669 47.812C481.365 46.252 482.385 45.028 483.729 44.14C485.073 43.228 486.681 42.772 488.553 42.772C491.313 42.772 493.473 43.636 495.033 45.364C496.593 47.092 497.373 49.492 497.373 52.564ZM491.793 50.944C491.745 48.016 490.713 46.552 488.697 46.552C487.713 46.552 486.945 46.912 486.393 47.632C485.865 48.352 485.541 49.54 485.421 51.196H491.793V50.944ZM505.644 63.112C503.988 63.112 502.692 62.644 501.756 61.708C500.844 60.748 500.388 59.392 500.388 57.64V35.788L506.076 35.176V57.424C506.076 58.216 506.4 58.612 507.048 58.612C507.384 58.612 507.696 58.552 507.984 58.432L509.1 62.464C508.068 62.896 506.916 63.112 505.644 63.112ZM516.331 63.112C514.675 63.112 513.379 62.644 512.443 61.708C511.531 60.748 511.075 59.392 511.075 57.64V35.788L516.763 35.176V57.424C516.763 58.216 517.087 58.612 517.735 58.612C518.071 58.612 518.383 58.552 518.671 58.432L519.787 62.464C518.755 62.896 517.603 63.112 516.331 63.112ZM527.631 43.384V62.5H521.943V43.384H527.631ZM524.751 33.304C525.735 33.304 526.539 33.616 527.163 34.24C527.811 34.84 528.135 35.608 528.135 36.544C528.135 37.48 527.811 38.26 527.163 38.884C526.539 39.484 525.735 39.784 524.751 39.784C523.767 39.784 522.963 39.484 522.339 38.884C521.715 38.26 521.403 37.48 521.403 36.544C521.403 35.608 521.715 34.84 522.339 34.24C522.963 33.616 523.767 33.304 524.751 33.304ZM543.299 42.772C544.955 42.772 546.251 43.276 547.187 44.284C548.123 45.292 548.591 46.708 548.591 48.532V62.5H542.903V49.504C542.903 48.544 542.747 47.884 542.435 47.524C542.147 47.14 541.703 46.948 541.103 46.948C539.951 46.948 538.847 47.776 537.791 49.432V62.5H532.103V43.384H537.071L537.467 45.652C538.283 44.692 539.159 43.972 540.095 43.492C541.055 43.012 542.123 42.772 543.299 42.772Z" fill="#E3000F"/>
</svg>
