<svg width="770" height="100" viewBox="0 0 770 100" fill="none" xmlns="http://www.w3.org/2000/svg">
<rect width="770" height="100" fill="#FFEBC4"/>
<path d="M93.1584 31.9091C93.1584 34.7045 92.647 37.108 91.6243 39.1193C90.6016 41.1222 89.1996 42.6648 87.4183 43.7472C85.6456 44.821 83.63 45.358 81.3714 45.358C79.1044 45.358 77.0803 44.821 75.299 43.7472C73.5263 42.6648 72.1286 41.1179 71.1058 39.1065C70.0831 37.0952 69.5717 34.696 69.5717 31.9091C69.5717 29.1136 70.0831 26.7145 71.1058 24.7116C72.1286 22.7003 73.5263 21.1577 75.299 20.0838C77.0803 19.0014 79.1044 18.4602 81.3714 18.4602C83.63 18.4602 85.6456 19.0014 87.4183 20.0838C89.1996 21.1577 90.6016 22.7003 91.6243 24.7116C92.647 26.7145 93.1584 29.1136 93.1584 31.9091ZM89.2465 31.9091C89.2465 29.7784 88.9013 27.9844 88.2109 26.527C87.5291 25.0611 86.5916 23.9531 85.3984 23.2031C84.2138 22.4446 82.8714 22.0653 81.3714 22.0653C79.8629 22.0653 78.5163 22.4446 77.3317 23.2031C76.147 23.9531 75.2095 25.0611 74.5192 26.527C73.8374 27.9844 73.4964 29.7784 73.4964 31.9091C73.4964 34.0398 73.8374 35.8381 74.5192 37.304C75.2095 38.7614 76.147 39.8693 77.3317 40.6278C78.5163 41.3778 79.8629 41.7528 81.3714 41.7528C82.8714 41.7528 84.2138 41.3778 85.3984 40.6278C86.5916 39.8693 87.5291 38.7614 88.2109 37.304C88.9013 35.8381 89.2465 34.0398 89.2465 31.9091ZM77.5234 16.223L74.9411 16.1335C74.9411 14.7273 75.3246 13.6023 76.0916 12.7585C76.8587 11.9148 77.8004 11.4886 78.9169 11.4801C79.4453 11.4801 79.9055 11.5696 80.2976 11.7486C80.6896 11.919 81.0561 12.1193 81.397 12.3494C81.7379 12.5795 82.0831 12.7841 82.4325 12.9631C82.782 13.1335 83.1697 13.2188 83.5959 13.2188C84.0817 13.2102 84.478 13.0227 84.7848 12.6562C85.1001 12.2813 85.2578 11.8168 85.2578 11.2628L87.7891 11.429C87.7805 12.8523 87.3928 13.973 86.6257 14.7912C85.8672 15.6009 84.9297 16.0057 83.8132 16.0057C83.2081 16.0057 82.7053 15.9205 82.3047 15.75C81.9041 15.571 81.5504 15.3707 81.2436 15.1491C80.9368 14.919 80.6214 14.7187 80.2976 14.5483C79.9737 14.3693 79.5859 14.2798 79.1342 14.2798C78.6655 14.2798 78.2777 14.4631 77.9709 14.8295C77.6726 15.196 77.5234 15.6605 77.5234 16.223ZM100.699 33.3409V45H96.8766V18.8182H100.648V28.5597H100.891C101.351 27.5028 102.054 26.6634 103 26.0412C103.946 25.419 105.182 25.108 106.708 25.108C108.054 25.108 109.23 25.3849 110.236 25.9389C111.25 26.4929 112.034 27.3196 112.588 28.419C113.151 29.5099 113.432 30.8736 113.432 32.5099V45H109.61V32.9702C109.61 31.5298 109.239 30.4134 108.497 29.6207C107.756 28.8196 106.725 28.419 105.404 28.419C104.5 28.419 103.691 28.6108 102.975 28.9943C102.267 29.3778 101.709 29.9403 101.3 30.6818C100.899 31.4148 100.699 32.3011 100.699 33.3409ZM126.799 25.3636V28.4318H116.073V25.3636H126.799ZM118.95 20.6591H122.772V39.2344C122.772 39.9759 122.883 40.5341 123.104 40.9091C123.326 41.2756 123.612 41.527 123.961 41.6634C124.319 41.7912 124.707 41.8551 125.124 41.8551C125.431 41.8551 125.7 41.8338 125.93 41.7912C126.16 41.7486 126.339 41.7145 126.467 41.6889L127.157 44.8466C126.935 44.9318 126.62 45.017 126.211 45.1023C125.802 45.196 125.291 45.2472 124.677 45.2557C123.671 45.2727 122.734 45.0938 121.864 44.7188C120.995 44.3438 120.292 43.7642 119.755 42.9801C119.218 42.196 118.95 41.2116 118.95 40.027V20.6591ZM142.566 36.8565V25.3636H146.402V45H142.643V41.5994H142.438C141.987 42.6477 141.262 43.5213 140.265 44.2202C139.277 44.9105 138.045 45.2557 136.571 45.2557C135.309 45.2557 134.193 44.9787 133.221 44.4247C132.258 43.8622 131.5 43.0312 130.946 41.9318C130.4 40.8324 130.127 39.473 130.127 37.8537V25.3636H133.95V37.3935C133.95 38.7315 134.321 39.7969 135.062 40.5895C135.804 41.3821 136.767 41.7784 137.951 41.7784C138.667 41.7784 139.379 41.5994 140.086 41.2415C140.802 40.8835 141.394 40.3423 141.863 39.6179C142.34 38.8935 142.575 37.973 142.566 36.8565ZM154.46 18.8182V45H150.638V18.8182H154.46ZM167.165 45.3963C165.231 45.3963 163.565 44.983 162.167 44.1562C160.778 43.321 159.704 42.1491 158.945 40.6406C158.195 39.1236 157.82 37.3466 157.82 35.3097C157.82 33.2983 158.195 31.5256 158.945 29.9915C159.704 28.4574 160.761 27.2599 162.116 26.3991C163.479 25.5384 165.073 25.108 166.897 25.108C168.005 25.108 169.079 25.2912 170.119 25.6577C171.158 26.0241 172.092 26.5994 172.918 27.3835C173.745 28.1676 174.397 29.1861 174.874 30.4389C175.352 31.6832 175.59 33.196 175.59 34.9773V36.3324H159.981V33.4688H171.844C171.844 32.4631 171.64 31.5724 171.231 30.7969C170.822 30.0128 170.246 29.3949 169.505 28.9432C168.772 28.4915 167.911 28.2656 166.923 28.2656C165.849 28.2656 164.911 28.5298 164.11 29.0582C163.317 29.5781 162.704 30.2599 162.269 31.1037C161.843 31.9389 161.63 32.8466 161.63 33.8267V36.0639C161.63 37.3764 161.86 38.4929 162.32 39.4134C162.789 40.3338 163.441 41.0369 164.276 41.5227C165.112 42 166.087 42.2386 167.204 42.2386C167.928 42.2386 168.589 42.1364 169.185 41.9318C169.782 41.7187 170.298 41.4034 170.732 40.9858C171.167 40.5682 171.499 40.0526 171.729 39.4389L175.347 40.0909C175.058 41.1562 174.538 42.0895 173.788 42.8906C173.046 43.6832 172.113 44.3011 170.988 44.7443C169.871 45.179 168.597 45.3963 167.165 45.3963ZM182.754 33.3409V45H178.931V18.8182H182.703V28.5597H182.946C183.406 27.5028 184.109 26.6634 185.055 26.0412C186.001 25.419 187.237 25.108 188.762 25.108C190.109 25.108 191.285 25.3849 192.291 25.9389C193.305 26.4929 194.089 27.3196 194.643 28.419C195.205 29.5099 195.487 30.8736 195.487 32.5099V45H191.664V32.9702C191.664 31.5298 191.294 30.4134 190.552 29.6207C189.811 28.8196 188.779 28.419 187.458 28.419C186.555 28.419 185.745 28.6108 185.029 28.9943C184.322 29.3778 183.764 29.9403 183.355 30.6818C182.954 31.4148 182.754 32.3011 182.754 33.3409ZM208.854 25.3636V28.4318H198.128V25.3636H208.854ZM201.004 20.6591H204.827V39.2344C204.827 39.9759 204.938 40.5341 205.159 40.9091C205.381 41.2756 205.666 41.527 206.016 41.6634C206.374 41.7912 206.761 41.8551 207.179 41.8551C207.486 41.8551 207.754 41.8338 207.984 41.7912C208.215 41.7486 208.394 41.7145 208.521 41.6889L209.212 44.8466C208.99 44.9318 208.675 45.017 208.266 45.1023C207.857 45.196 207.345 45.2472 206.732 45.2557C205.726 45.2727 204.788 45.0938 203.919 44.7188C203.05 44.3438 202.347 43.7642 201.81 42.9801C201.273 42.196 201.004 41.2116 201.004 40.027V20.6591ZM221.116 45V18.8182H225.067V31.321H225.386L236.368 18.8182H241.341L230.781 30.6051L241.379 45H236.623L228.16 33.3026L225.067 36.8565V45H221.116ZM245.046 45V25.3636H248.869V45H245.046ZM246.977 22.3338C246.312 22.3338 245.741 22.1122 245.263 21.669C244.795 21.2173 244.56 20.6804 244.56 20.0582C244.56 19.4276 244.795 18.8906 245.263 18.4474C245.741 17.9957 246.312 17.7699 246.977 17.7699C247.641 17.7699 248.208 17.9957 248.677 18.4474C249.154 18.8906 249.393 19.4276 249.393 20.0582C249.393 20.6804 249.154 21.2173 248.677 21.669C248.208 22.1122 247.641 22.3338 246.977 22.3338ZM253.111 45V25.3636H256.806V28.483H257.01C257.368 27.4261 257.999 26.5952 258.902 25.9901C259.814 25.3764 260.845 25.0696 261.996 25.0696C262.235 25.0696 262.516 25.0781 262.84 25.0952C263.172 25.1122 263.432 25.1335 263.62 25.1591V28.8153C263.466 28.7727 263.193 28.7259 262.801 28.6747C262.409 28.6151 262.017 28.5852 261.625 28.5852C260.722 28.5852 259.916 28.777 259.209 29.1605C258.51 29.5355 257.956 30.0597 257.547 30.733C257.138 31.3977 256.933 32.1562 256.933 33.0085V45H253.111ZM266.027 25.3636H269.85V46.2784C269.85 47.5909 269.611 48.6989 269.134 49.6023C268.665 50.5057 267.966 51.1918 267.037 51.6605C266.117 52.1293 264.979 52.3636 263.624 52.3636C263.488 52.3636 263.36 52.3636 263.24 52.3636C263.113 52.3636 262.981 52.3594 262.844 52.3509V49.0653C262.963 49.0653 263.07 49.0653 263.164 49.0653C263.249 49.0653 263.347 49.0653 263.458 49.0653C264.361 49.0653 265.013 48.8224 265.414 48.3366C265.823 47.8594 266.027 47.1648 266.027 46.2528V25.3636ZM267.919 22.3338C267.255 22.3338 266.684 22.1122 266.206 21.669C265.738 21.2173 265.503 20.6804 265.503 20.0582C265.503 19.4276 265.738 18.8906 266.206 18.4474C266.684 17.9957 267.255 17.7699 267.919 17.7699C268.584 17.7699 269.151 17.9957 269.62 18.4474C270.097 18.8906 270.336 19.4276 270.336 20.0582C270.336 20.6804 270.097 21.2173 269.62 21.669C269.151 22.1122 268.584 22.3338 267.919 22.3338ZM279.807 45.4347C278.562 45.4347 277.437 45.2045 276.432 44.7443C275.426 44.2756 274.629 43.598 274.041 42.7116C273.462 41.8253 273.172 40.7386 273.172 39.4517C273.172 38.3437 273.385 37.4318 273.811 36.7159C274.237 36 274.812 35.4332 275.537 35.0156C276.261 34.598 277.071 34.2827 277.966 34.0696C278.861 33.8565 279.773 33.6946 280.702 33.5838C281.878 33.4474 282.832 33.3366 283.565 33.2514C284.298 33.1577 284.831 33.0085 285.163 32.804C285.496 32.5994 285.662 32.267 285.662 31.8068V31.7173C285.662 30.6009 285.347 29.7358 284.716 29.1222C284.094 28.5085 283.165 28.2017 281.929 28.2017C280.642 28.2017 279.628 28.4872 278.886 29.0582C278.153 29.6207 277.646 30.2472 277.365 30.9375L273.773 30.1193C274.199 28.9261 274.821 27.9631 275.639 27.2301C276.466 26.4886 277.416 25.9517 278.49 25.6193C279.564 25.2784 280.693 25.108 281.878 25.108C282.662 25.108 283.493 25.2017 284.371 25.3892C285.257 25.5682 286.084 25.9006 286.851 26.3864C287.626 26.8722 288.261 27.5668 288.756 28.4702C289.25 29.3651 289.497 30.5284 289.497 31.9602V45H285.764V42.3153H285.611C285.364 42.8097 284.993 43.2955 284.499 43.7727C284.004 44.25 283.369 44.6463 282.594 44.9616C281.818 45.277 280.889 45.4347 279.807 45.4347ZM280.638 42.3665C281.695 42.3665 282.598 42.1577 283.348 41.7401C284.106 41.3224 284.682 40.777 285.074 40.1037C285.474 39.4219 285.675 38.6932 285.675 37.9176V35.3864C285.538 35.5227 285.274 35.6506 284.882 35.7699C284.499 35.8807 284.06 35.9787 283.565 36.0639C283.071 36.1406 282.589 36.2131 282.121 36.2812C281.652 36.3409 281.26 36.392 280.945 36.4347C280.203 36.5284 279.526 36.6861 278.912 36.9077C278.307 37.1293 277.821 37.4489 277.454 37.8665C277.097 38.2756 276.918 38.821 276.918 39.5028C276.918 40.4489 277.267 41.1648 277.966 41.6506C278.665 42.1278 279.555 42.3665 280.638 42.3665ZM308.403 30.1577L304.938 30.7713C304.793 30.3281 304.563 29.9062 304.248 29.5057C303.941 29.1051 303.524 28.777 302.995 28.5213C302.467 28.2656 301.806 28.1378 301.014 28.1378C299.931 28.1378 299.028 28.3807 298.303 28.8665C297.579 29.3437 297.217 29.9616 297.217 30.7202C297.217 31.3764 297.46 31.9048 297.945 32.3054C298.431 32.706 299.215 33.0341 300.298 33.2898L303.417 34.0057C305.224 34.4233 306.57 35.0668 307.457 35.9361C308.343 36.8054 308.786 37.9347 308.786 39.3239C308.786 40.5 308.445 41.5483 307.764 42.4688C307.09 43.3807 306.149 44.0966 304.938 44.6165C303.737 45.1364 302.343 45.3963 300.758 45.3963C298.559 45.3963 296.765 44.9276 295.376 43.9901C293.987 43.044 293.134 41.7017 292.819 39.9631L296.514 39.4006C296.744 40.3636 297.217 41.0923 297.933 41.5866C298.649 42.0724 299.582 42.3153 300.732 42.3153C301.985 42.3153 302.987 42.0554 303.737 41.5355C304.487 41.0071 304.862 40.3636 304.862 39.6051C304.862 38.9915 304.632 38.4759 304.171 38.0582C303.72 37.6406 303.025 37.3253 302.087 37.1122L298.764 36.3835C296.931 35.9659 295.576 35.3011 294.698 34.3892C293.829 33.4773 293.394 32.3224 293.394 30.9247C293.394 29.7656 293.718 28.7514 294.366 27.8821C295.014 27.0128 295.909 26.3352 297.051 25.8494C298.193 25.3551 299.501 25.108 300.975 25.108C303.097 25.108 304.768 25.5682 305.987 26.4886C307.205 27.4006 308.011 28.6236 308.403 30.1577ZM321.255 25.3636V28.4318H310.529V25.3636H321.255ZM313.406 20.6591H317.228V39.2344C317.228 39.9759 317.339 40.5341 317.561 40.9091C317.782 41.2756 318.068 41.527 318.417 41.6634C318.775 41.7912 319.163 41.8551 319.581 41.8551C319.887 41.8551 320.156 41.8338 320.386 41.7912C320.616 41.7486 320.795 41.7145 320.923 41.6889L321.613 44.8466C321.392 44.9318 321.076 45.017 320.667 45.1023C320.258 45.196 319.747 45.2472 319.133 45.2557C318.127 45.2727 317.19 45.0938 316.321 44.7188C315.451 44.3438 314.748 43.7642 314.211 42.9801C313.674 42.196 313.406 41.2116 313.406 40.027V20.6591ZM337.023 36.8565V25.3636H340.858V45H337.099V41.5994H336.895C336.443 42.6477 335.719 43.5213 334.721 44.2202C333.733 44.9105 332.501 45.2557 331.027 45.2557C329.765 45.2557 328.649 44.9787 327.677 44.4247C326.714 43.8622 325.956 43.0312 325.402 41.9318C324.856 40.8324 324.584 39.473 324.584 37.8537V25.3636H328.406V37.3935C328.406 38.7315 328.777 39.7969 329.518 40.5895C330.26 41.3821 331.223 41.7784 332.408 41.7784C333.123 41.7784 333.835 41.5994 334.542 41.2415C335.258 40.8835 335.851 40.3423 336.319 39.6179C336.797 38.8935 337.031 37.973 337.023 36.8565ZM359.808 30.1577L356.344 30.7713C356.199 30.3281 355.969 29.9062 355.653 29.5057C355.347 29.1051 354.929 28.777 354.401 28.5213C353.872 28.2656 353.212 28.1378 352.419 28.1378C351.337 28.1378 350.433 28.3807 349.709 28.8665C348.984 29.3437 348.622 29.9616 348.622 30.7202C348.622 31.3764 348.865 31.9048 349.351 32.3054C349.837 32.706 350.621 33.0341 351.703 33.2898L354.823 34.0057C356.629 34.4233 357.976 35.0668 358.862 35.9361C359.749 36.8054 360.192 37.9347 360.192 39.3239C360.192 40.5 359.851 41.5483 359.169 42.4688C358.496 43.3807 357.554 44.0966 356.344 44.6165C355.142 45.1364 353.749 45.3963 352.163 45.3963C349.965 45.3963 348.171 44.9276 346.781 43.9901C345.392 43.044 344.54 41.7017 344.225 39.9631L347.919 39.4006C348.149 40.3636 348.622 41.0923 349.338 41.5866C350.054 42.0724 350.987 42.3153 352.138 42.3153C353.391 42.3153 354.392 42.0554 355.142 41.5355C355.892 41.0071 356.267 40.3636 356.267 39.6051C356.267 38.9915 356.037 38.4759 355.577 38.0582C355.125 37.6406 354.43 37.3253 353.493 37.1122L350.169 36.3835C348.337 35.9659 346.982 35.3011 346.104 34.3892C345.234 33.4773 344.8 32.3224 344.8 30.9247C344.8 29.7656 345.124 28.7514 345.771 27.8821C346.419 27.0128 347.314 26.3352 348.456 25.8494C349.598 25.3551 350.906 25.108 352.381 25.108C354.503 25.108 356.173 25.5682 357.392 26.4886C358.611 27.4006 359.416 28.6236 359.808 30.1577ZM371.958 45.3963C370.023 45.3963 368.357 44.983 366.959 44.1562C365.57 43.321 364.496 42.1491 363.737 40.6406C362.987 39.1236 362.612 37.3466 362.612 35.3097C362.612 33.2983 362.987 31.5256 363.737 29.9915C364.496 28.4574 365.553 27.2599 366.908 26.3991C368.272 25.5384 369.865 25.108 371.689 25.108C372.797 25.108 373.871 25.2912 374.911 25.6577C375.951 26.0241 376.884 26.5994 377.71 27.3835C378.537 28.1676 379.189 29.1861 379.666 30.4389C380.144 31.6832 380.382 33.196 380.382 34.9773V36.3324H364.773V33.4688H376.637C376.637 32.4631 376.432 31.5724 376.023 30.7969C375.614 30.0128 375.039 29.3949 374.297 28.9432C373.564 28.4915 372.703 28.2656 371.715 28.2656C370.641 28.2656 369.703 28.5298 368.902 29.0582C368.11 29.5781 367.496 30.2599 367.061 31.1037C366.635 31.9389 366.422 32.8466 366.422 33.8267V36.0639C366.422 37.3764 366.652 38.4929 367.112 39.4134C367.581 40.3338 368.233 41.0369 369.068 41.5227C369.904 42 370.88 42.2386 371.996 42.2386C372.72 42.2386 373.381 42.1364 373.978 41.9318C374.574 41.7187 375.09 41.4034 375.524 40.9858C375.959 40.5682 376.291 40.0526 376.522 39.4389L380.139 40.0909C379.85 41.1562 379.33 42.0895 378.58 42.8906C377.838 43.6832 376.905 44.3011 375.78 44.7443C374.664 45.179 373.389 45.3963 371.958 45.3963ZM399.702 45.3835C398.116 45.3835 396.702 44.9787 395.457 44.169C394.222 43.3509 393.25 42.1875 392.543 40.679C391.844 39.1619 391.494 37.3423 391.494 35.2202C391.494 33.098 391.848 31.2827 392.555 29.7741C393.271 28.2656 394.251 27.1108 395.496 26.3097C396.74 25.5085 398.151 25.108 399.727 25.108C400.946 25.108 401.926 25.3125 402.668 25.7216C403.418 26.1222 403.997 26.5909 404.406 27.1278C404.824 27.6648 405.148 28.1378 405.378 28.5469H405.608V18.8182H409.43V45H405.697V41.9446H405.378C405.148 42.3622 404.815 42.8395 404.381 43.3764C403.955 43.9134 403.366 44.3821 402.616 44.7827C401.866 45.1832 400.895 45.3835 399.702 45.3835ZM400.545 42.1236C401.645 42.1236 402.574 41.8338 403.332 41.2543C404.099 40.6662 404.679 39.8523 405.071 38.8125C405.472 37.7727 405.672 36.5625 405.672 35.1818C405.672 33.8182 405.476 32.625 405.084 31.6023C404.692 30.5795 404.116 29.7827 403.358 29.2116C402.599 28.6406 401.662 28.3551 400.545 28.3551C399.395 28.3551 398.436 28.6534 397.669 29.25C396.902 29.8466 396.322 30.6605 395.93 31.6918C395.547 32.723 395.355 33.8864 395.355 35.1818C395.355 36.4943 395.551 37.6747 395.943 38.723C396.335 39.7713 396.915 40.6023 397.682 41.2159C398.457 41.821 399.412 42.1236 400.545 42.1236ZM413.986 45V25.3636H417.808V45H413.986ZM415.916 22.3338C415.252 22.3338 414.681 22.1122 414.203 21.669C413.735 21.2173 413.5 20.6804 413.5 20.0582C413.5 19.4276 413.735 18.8906 414.203 18.4474C414.681 17.9957 415.252 17.7699 415.916 17.7699C416.581 17.7699 417.148 17.9957 417.617 18.4474C418.094 18.8906 418.333 19.4276 418.333 20.0582C418.333 20.6804 418.094 21.2173 417.617 21.669C417.148 22.1122 416.581 22.3338 415.916 22.3338ZM430.284 52.7727C428.724 52.7727 427.382 52.5682 426.257 52.1591C425.14 51.75 424.228 51.2088 423.521 50.5355C422.814 49.8622 422.285 49.125 421.936 48.3239L425.221 46.9688C425.451 47.3438 425.758 47.7401 426.142 48.1577C426.534 48.5838 427.062 48.946 427.727 49.2443C428.4 49.5426 429.265 49.6918 430.322 49.6918C431.771 49.6918 432.968 49.3381 433.915 48.6307C434.861 47.9318 435.334 46.8153 435.334 45.2812V41.4205H435.091C434.861 41.8381 434.528 42.3026 434.093 42.8139C433.667 43.3253 433.079 43.7685 432.329 44.1435C431.579 44.5185 430.603 44.706 429.402 44.706C427.851 44.706 426.453 44.3437 425.209 43.6193C423.973 42.8864 422.993 41.8082 422.268 40.3849C421.552 38.9531 421.194 37.1932 421.194 35.1051C421.194 33.017 421.548 31.2273 422.255 29.7358C422.971 28.2443 423.951 27.1023 425.196 26.3097C426.44 25.5085 427.851 25.108 429.427 25.108C430.646 25.108 431.63 25.3125 432.38 25.7216C433.13 26.1222 433.714 26.5909 434.132 27.1278C434.558 27.6648 434.886 28.1378 435.116 28.5469H435.397V25.3636H439.143V45.4347C439.143 47.1222 438.751 48.5071 437.967 49.5895C437.183 50.6719 436.122 51.473 434.784 51.9929C433.454 52.5128 431.954 52.7727 430.284 52.7727ZM430.245 41.5355C431.345 41.5355 432.274 41.2798 433.032 40.7685C433.799 40.2486 434.379 39.5071 434.771 38.544C435.172 37.5724 435.372 36.4091 435.372 35.054C435.372 33.733 435.176 32.5696 434.784 31.5639C434.392 30.5582 433.816 29.7741 433.058 29.2116C432.299 28.6406 431.362 28.3551 430.245 28.3551C429.095 28.3551 428.136 28.6534 427.369 29.25C426.602 29.8381 426.022 30.6392 425.63 31.6534C425.247 32.6676 425.055 33.8011 425.055 35.054C425.055 36.3409 425.251 37.4702 425.643 38.4418C426.035 39.4134 426.615 40.1719 427.382 40.7173C428.157 41.2628 429.112 41.5355 430.245 41.5355ZM443.37 45V25.3636H447.192V45H443.37ZM445.3 22.3338C444.635 22.3338 444.064 22.1122 443.587 21.669C443.118 21.2173 442.884 20.6804 442.884 20.0582C442.884 19.4276 443.118 18.8906 443.587 18.4474C444.064 17.9957 444.635 17.7699 445.3 17.7699C445.965 17.7699 446.532 17.9957 447 18.4474C447.478 18.8906 447.716 19.4276 447.716 20.0582C447.716 20.6804 447.478 21.2173 447 21.669C446.532 22.1122 445.965 22.3338 445.3 22.3338ZM451.434 52.3636V25.3636H455.167V28.5469H455.487C455.709 28.1378 456.028 27.6648 456.446 27.1278C456.863 26.5909 457.443 26.1222 458.184 25.7216C458.926 25.3125 459.906 25.108 461.125 25.108C462.71 25.108 464.125 25.5085 465.369 26.3097C466.613 27.1108 467.589 28.2656 468.297 29.7741C469.013 31.2827 469.371 33.098 469.371 35.2202C469.371 37.3423 469.017 39.1619 468.309 40.679C467.602 42.1875 466.63 43.3509 465.395 44.169C464.159 44.9787 462.748 45.3835 461.163 45.3835C459.97 45.3835 458.994 45.1832 458.236 44.7827C457.486 44.3821 456.898 43.9134 456.471 43.3764C456.045 42.8395 455.717 42.3622 455.487 41.9446H455.257V52.3636H451.434ZM455.18 35.1818C455.18 36.5625 455.38 37.7727 455.781 38.8125C456.182 39.8523 456.761 40.6662 457.52 41.2543C458.278 41.8338 459.207 42.1236 460.307 42.1236C461.449 42.1236 462.403 41.821 463.17 41.2159C463.937 40.6023 464.517 39.7713 464.909 38.723C465.309 37.6747 465.51 36.4943 465.51 35.1818C465.51 33.8864 465.314 32.723 464.922 31.6918C464.538 30.6605 463.959 29.8466 463.183 29.25C462.416 28.6534 461.457 28.3551 460.307 28.3551C459.199 28.3551 458.261 28.6406 457.494 29.2116C456.736 29.7827 456.16 30.5795 455.768 31.6023C455.376 32.625 455.18 33.8182 455.18 35.1818ZM478.468 45.4347C477.223 45.4347 476.098 45.2045 475.093 44.7443C474.087 44.2756 473.29 43.598 472.702 42.7116C472.123 41.8253 471.833 40.7386 471.833 39.4517C471.833 38.3437 472.046 37.4318 472.472 36.7159C472.898 36 473.473 35.4332 474.198 35.0156C474.922 34.598 475.732 34.2827 476.627 34.0696C477.522 33.8565 478.434 33.6946 479.363 33.5838C480.539 33.4474 481.493 33.3366 482.226 33.2514C482.959 33.1577 483.492 33.0085 483.824 32.804C484.157 32.5994 484.323 32.267 484.323 31.8068V31.7173C484.323 30.6009 484.007 29.7358 483.377 29.1222C482.755 28.5085 481.826 28.2017 480.59 28.2017C479.303 28.2017 478.289 28.4872 477.547 29.0582C476.814 29.6207 476.307 30.2472 476.026 30.9375L472.434 30.1193C472.86 28.9261 473.482 27.9631 474.3 27.2301C475.127 26.4886 476.077 25.9517 477.151 25.6193C478.225 25.2784 479.354 25.108 480.539 25.108C481.323 25.108 482.154 25.2017 483.032 25.3892C483.918 25.5682 484.745 25.9006 485.512 26.3864C486.287 26.8722 486.922 27.5668 487.417 28.4702C487.911 29.3651 488.158 30.5284 488.158 31.9602V45H484.425V42.3153H484.272C484.025 42.8097 483.654 43.2955 483.159 43.7727C482.665 44.25 482.03 44.6463 481.255 44.9616C480.479 45.277 479.55 45.4347 478.468 45.4347ZM479.299 42.3665C480.355 42.3665 481.259 42.1577 482.009 41.7401C482.767 41.3224 483.343 40.777 483.735 40.1037C484.135 39.4219 484.336 38.6932 484.336 37.9176V35.3864C484.199 35.5227 483.935 35.6506 483.543 35.7699C483.159 35.8807 482.721 35.9787 482.226 36.0639C481.732 36.1406 481.25 36.2131 480.782 36.2812C480.313 36.3409 479.921 36.392 479.605 36.4347C478.864 36.5284 478.186 36.6861 477.573 36.9077C476.968 37.1293 476.482 37.4489 476.115 37.8665C475.757 38.2756 475.578 38.821 475.578 39.5028C475.578 40.4489 475.928 41.1648 476.627 41.6506C477.326 42.1278 478.216 42.3665 479.299 42.3665ZM495.865 38.3395L495.839 33.6733H496.504L504.328 25.3636H508.905L499.981 34.8239H499.381L495.865 38.3395ZM492.349 45V18.8182H496.172V45H492.349ZM504.75 45L497.719 35.6676L500.352 32.9957L509.442 45H504.75ZM519.143 45.3963C517.208 45.3963 515.542 44.983 514.144 44.1562C512.755 43.321 511.681 42.1491 510.923 40.6406C510.173 39.1236 509.798 37.3466 509.798 35.3097C509.798 33.2983 510.173 31.5256 510.923 29.9915C511.681 28.4574 512.738 27.2599 514.093 26.3991C515.457 25.5384 517.051 25.108 518.874 25.108C519.982 25.108 521.056 25.2912 522.096 25.6577C523.136 26.0241 524.069 26.5994 524.896 27.3835C525.722 28.1676 526.374 29.1861 526.852 30.4389C527.329 31.6832 527.568 33.196 527.568 34.9773V36.3324H511.958V33.4688H523.822C523.822 32.4631 523.617 31.5724 523.208 30.7969C522.799 30.0128 522.224 29.3949 521.482 28.9432C520.749 28.4915 519.889 28.2656 518.9 28.2656C517.826 28.2656 516.889 28.5298 516.087 29.0582C515.295 29.5781 514.681 30.2599 514.247 31.1037C513.82 31.9389 513.607 32.8466 513.607 33.8267V36.0639C513.607 37.3764 513.837 38.4929 514.298 39.4134C514.766 40.3338 515.418 41.0369 516.254 41.5227C517.089 42 518.065 42.2386 519.181 42.2386C519.906 42.2386 520.566 42.1364 521.163 41.9318C521.759 41.7187 522.275 41.4034 522.71 40.9858C523.144 40.5682 523.477 40.0526 523.707 39.4389L527.325 40.0909C527.035 41.1562 526.515 42.0895 525.765 42.8906C525.024 43.6832 524.09 44.3011 522.965 44.7443C521.849 45.179 520.575 45.3963 519.143 45.3963ZM540.075 25.3636V28.4318H529.349V25.3636H540.075ZM532.225 20.6591H536.048V39.2344C536.048 39.9759 536.159 40.5341 536.38 40.9091C536.602 41.2756 536.887 41.527 537.237 41.6634C537.595 41.7912 537.983 41.8551 538.4 41.8551C538.707 41.8551 538.975 41.8338 539.206 41.7912C539.436 41.7486 539.615 41.7145 539.742 41.6889L540.433 44.8466C540.211 44.9318 539.896 45.017 539.487 45.1023C539.078 45.196 538.566 45.2472 537.953 45.2557C536.947 45.2727 536.01 45.0938 535.14 44.7188C534.271 44.3438 533.568 43.7642 533.031 42.9801C532.494 42.196 532.225 41.2116 532.225 40.027V20.6591ZM543.403 45V25.3636H547.226V45H543.403ZM545.334 22.3338C544.669 22.3338 544.098 22.1122 543.621 21.669C543.152 21.2173 542.917 20.6804 542.917 20.0582C542.917 19.4276 543.152 18.8906 543.621 18.4474C544.098 17.9957 544.669 17.7699 545.334 17.7699C545.998 17.7699 546.565 17.9957 547.034 18.4474C547.511 18.8906 547.75 19.4276 547.75 20.0582C547.75 20.6804 547.511 21.2173 547.034 21.669C546.565 22.1122 545.998 22.3338 545.334 22.3338ZM563.918 18.8182V45H560.095V18.8182H563.918ZM568.16 45V25.3636H571.983V45H568.16ZM570.091 22.3338C569.426 22.3338 568.855 22.1122 568.378 21.669C567.909 21.2173 567.674 20.6804 567.674 20.0582C567.674 19.4276 567.909 18.8906 568.378 18.4474C568.855 17.9957 569.426 17.7699 570.091 17.7699C570.755 17.7699 571.322 17.9957 571.791 18.4474C572.268 18.8906 572.507 19.4276 572.507 20.0582C572.507 20.6804 572.268 21.2173 571.791 21.669C571.322 22.1122 570.755 22.3338 570.091 22.3338ZM584.458 52.7727C582.898 52.7727 581.556 52.5682 580.431 52.1591C579.315 51.75 578.403 51.2088 577.695 50.5355C576.988 49.8622 576.459 49.125 576.11 48.3239L579.396 46.9688C579.626 47.3438 579.932 47.7401 580.316 48.1577C580.708 48.5838 581.236 48.946 581.901 49.2443C582.574 49.5426 583.44 49.6918 584.496 49.6918C585.945 49.6918 587.143 49.3381 588.089 48.6307C589.035 47.9318 589.508 46.8153 589.508 45.2812V41.4205H589.265C589.035 41.8381 588.702 42.3026 588.268 42.8139C587.842 43.3253 587.253 43.7685 586.503 44.1435C585.753 44.5185 584.778 44.706 583.576 44.706C582.025 44.706 580.627 44.3437 579.383 43.6193C578.147 42.8864 577.167 41.8082 576.442 40.3849C575.726 38.9531 575.369 37.1932 575.369 35.1051C575.369 33.017 575.722 31.2273 576.43 29.7358C577.146 28.2443 578.126 27.1023 579.37 26.3097C580.614 25.5085 582.025 25.108 583.601 25.108C584.82 25.108 585.805 25.3125 586.555 25.7216C587.305 26.1222 587.888 26.5909 588.306 27.1278C588.732 27.6648 589.06 28.1378 589.29 28.5469H589.572V25.3636H593.317V45.4347C593.317 47.1222 592.925 48.5071 592.141 49.5895C591.357 50.6719 590.296 51.473 588.958 51.9929C587.628 52.5128 586.128 52.7727 584.458 52.7727ZM584.42 41.5355C585.519 41.5355 586.448 41.2798 587.207 40.7685C587.974 40.2486 588.553 39.5071 588.945 38.544C589.346 37.5724 589.546 36.4091 589.546 35.054C589.546 33.733 589.35 32.5696 588.958 31.5639C588.566 30.5582 587.991 29.7741 587.232 29.2116C586.474 28.6406 585.536 28.3551 584.42 28.3551C583.269 28.3551 582.31 28.6534 581.543 29.25C580.776 29.8381 580.197 30.6392 579.805 31.6534C579.421 32.6676 579.229 33.8011 579.229 35.054C579.229 36.3409 579.425 37.4702 579.817 38.4418C580.209 39.4134 580.789 40.1719 581.556 40.7173C582.332 41.2628 583.286 41.5355 584.42 41.5355ZM597.544 45V25.3636H601.366V45H597.544ZM599.474 22.3338C598.809 22.3338 598.238 22.1122 597.761 21.669C597.292 21.2173 597.058 20.6804 597.058 20.0582C597.058 19.4276 597.292 18.8906 597.761 18.4474C598.238 17.9957 598.809 17.7699 599.474 17.7699C600.139 17.7699 600.706 17.9957 601.175 18.4474C601.652 18.8906 601.89 19.4276 601.89 20.0582C601.89 20.6804 601.652 21.2173 601.175 21.669C600.706 22.1122 600.139 22.3338 599.474 22.3338ZM605.609 52.3636V25.3636H609.342V28.5469H609.661C609.883 28.1378 610.202 27.6648 610.62 27.1278C611.038 26.5909 611.617 26.1222 612.359 25.7216C613.1 25.3125 614.08 25.108 615.299 25.108C616.884 25.108 618.299 25.5085 619.543 26.3097C620.788 27.1108 621.763 28.2656 622.471 29.7741C623.187 31.2827 623.545 33.098 623.545 35.2202C623.545 37.3423 623.191 39.1619 622.484 40.679C621.776 42.1875 620.805 43.3509 619.569 44.169C618.333 44.9787 616.923 45.3835 615.337 45.3835C614.144 45.3835 613.168 45.1832 612.41 44.7827C611.66 44.3821 611.072 43.9134 610.646 43.3764C610.219 42.8395 609.891 42.3622 609.661 41.9446H609.431V52.3636H605.609ZM609.354 35.1818C609.354 36.5625 609.555 37.7727 609.955 38.8125C610.356 39.8523 610.935 40.6662 611.694 41.2543C612.452 41.8338 613.381 42.1236 614.481 42.1236C615.623 42.1236 616.577 41.821 617.344 41.2159C618.112 40.6023 618.691 39.7713 619.083 38.723C619.484 37.6747 619.684 36.4943 619.684 35.1818C619.684 33.8864 619.488 32.723 619.096 31.6918C618.712 30.6605 618.133 29.8466 617.357 29.25C616.59 28.6534 615.631 28.3551 614.481 28.3551C613.373 28.3551 612.435 28.6406 611.668 29.2116C610.91 29.7827 610.335 30.5795 609.942 31.6023C609.55 32.625 609.354 33.8182 609.354 35.1818ZM632.642 45.4347C631.398 45.4347 630.273 45.2045 629.267 44.7443C628.261 44.2756 627.464 43.598 626.876 42.7116C626.297 41.8253 626.007 40.7386 626.007 39.4517C626.007 38.3437 626.22 37.4318 626.646 36.7159C627.072 36 627.648 35.4332 628.372 35.0156C629.096 34.598 629.906 34.2827 630.801 34.0696C631.696 33.8565 632.608 33.6946 633.537 33.5838C634.713 33.4474 635.667 33.3366 636.4 33.2514C637.133 33.1577 637.666 33.0085 637.998 32.804C638.331 32.5994 638.497 32.267 638.497 31.8068V31.7173C638.497 30.6009 638.182 29.7358 637.551 29.1222C636.929 28.5085 636 28.2017 634.764 28.2017C633.477 28.2017 632.463 28.4872 631.721 29.0582C630.988 29.6207 630.481 30.2472 630.2 30.9375L626.608 30.1193C627.034 28.9261 627.656 27.9631 628.474 27.2301C629.301 26.4886 630.251 25.9517 631.325 25.6193C632.399 25.2784 633.528 25.108 634.713 25.108C635.497 25.108 636.328 25.2017 637.206 25.3892C638.092 25.5682 638.919 25.9006 639.686 26.3864C640.461 26.8722 641.096 27.5668 641.591 28.4702C642.085 29.3651 642.332 30.5284 642.332 31.9602V45H638.599V42.3153H638.446C638.199 42.8097 637.828 43.2955 637.334 43.7727C636.839 44.25 636.204 44.6463 635.429 44.9616C634.653 45.277 633.724 45.4347 632.642 45.4347ZM633.473 42.3665C634.53 42.3665 635.433 42.1577 636.183 41.7401C636.942 41.3224 637.517 40.777 637.909 40.1037C638.309 39.4219 638.51 38.6932 638.51 37.9176V35.3864C638.373 35.5227 638.109 35.6506 637.717 35.7699C637.334 35.8807 636.895 35.9787 636.4 36.0639C635.906 36.1406 635.425 36.2131 634.956 36.2812C634.487 36.3409 634.095 36.392 633.78 36.4347C633.038 36.5284 632.361 36.6861 631.747 36.9077C631.142 37.1293 630.656 37.4489 630.29 37.8665C629.932 38.2756 629.753 38.821 629.753 39.5028C629.753 40.4489 630.102 41.1648 630.801 41.6506C631.5 42.1278 632.39 42.3665 633.473 42.3665ZM631.159 22.2827C630.554 22.2827 630.025 22.0611 629.574 21.6179C629.122 21.1662 628.896 20.6463 628.896 20.0582C628.896 19.419 629.122 18.8864 629.574 18.4602C630.025 18.0341 630.554 17.821 631.159 17.821C631.798 17.821 632.331 18.0341 632.757 18.4602C633.192 18.8864 633.409 19.419 633.409 20.0582C633.409 20.6463 633.192 21.1662 632.757 21.6179C632.331 22.0611 631.798 22.2827 631.159 22.2827ZM638.676 22.2827C638.071 22.2827 637.542 22.0611 637.091 21.6179C636.639 21.1662 636.413 20.6463 636.413 20.0582C636.413 19.419 636.639 18.8864 637.091 18.4602C637.542 18.0341 638.071 17.821 638.676 17.821C639.315 17.821 639.848 18.0341 640.274 18.4602C640.709 18.8864 640.926 19.419 640.926 20.0582C640.926 20.6463 640.709 21.1662 640.274 21.6179C639.848 22.0611 639.315 22.2827 638.676 22.2827ZM652.238 45.4347C650.994 45.4347 649.869 45.2045 648.863 44.7443C647.857 44.2756 647.06 43.598 646.472 42.7116C645.893 41.8253 645.603 40.7386 645.603 39.4517C645.603 38.3437 645.816 37.4318 646.242 36.7159C646.668 36 647.244 35.4332 647.968 35.0156C648.693 34.598 649.502 34.2827 650.397 34.0696C651.292 33.8565 652.204 33.6946 653.133 33.5838C654.309 33.4474 655.264 33.3366 655.997 33.2514C656.729 33.1577 657.262 33.0085 657.595 32.804C657.927 32.5994 658.093 32.267 658.093 31.8068V31.7173C658.093 30.6009 657.778 29.7358 657.147 29.1222C656.525 28.5085 655.596 28.2017 654.36 28.2017C653.073 28.2017 652.059 28.4872 651.318 29.0582C650.585 29.6207 650.077 30.2472 649.796 30.9375L646.204 30.1193C646.63 28.9261 647.252 27.9631 648.07 27.2301C648.897 26.4886 649.847 25.9517 650.921 25.6193C651.995 25.2784 653.124 25.108 654.309 25.108C655.093 25.108 655.924 25.2017 656.802 25.3892C657.688 25.5682 658.515 25.9006 659.282 26.3864C660.058 26.8722 660.693 27.5668 661.187 28.4702C661.681 29.3651 661.928 30.5284 661.928 31.9602V45H658.195V42.3153H658.042C657.795 42.8097 657.424 43.2955 656.93 43.7727C656.435 44.25 655.801 44.6463 655.025 44.9616C654.249 45.277 653.32 45.4347 652.238 45.4347ZM653.069 42.3665C654.126 42.3665 655.029 42.1577 655.779 41.7401C656.538 41.3224 657.113 40.777 657.505 40.1037C657.906 39.4219 658.106 38.6932 658.106 37.9176V35.3864C657.97 35.5227 657.705 35.6506 657.313 35.7699C656.93 35.8807 656.491 35.9787 655.997 36.0639C655.502 36.1406 655.021 36.2131 654.552 36.2812C654.083 36.3409 653.691 36.392 653.376 36.4347C652.634 36.5284 651.957 36.6861 651.343 36.9077C650.738 37.1293 650.252 37.4489 649.886 37.8665C649.528 38.2756 649.349 38.821 649.349 39.5028C649.349 40.4489 649.698 41.1648 650.397 41.6506C651.096 42.1278 651.987 42.3665 653.069 42.3665ZM650.755 22.2827C650.15 22.2827 649.622 22.0611 649.17 21.6179C648.718 21.1662 648.492 20.6463 648.492 20.0582C648.492 19.419 648.718 18.8864 649.17 18.4602C649.622 18.0341 650.15 17.821 650.755 17.821C651.394 17.821 651.927 18.0341 652.353 18.4602C652.788 18.8864 653.005 19.419 653.005 20.0582C653.005 20.6463 652.788 21.1662 652.353 21.6179C651.927 22.0611 651.394 22.2827 650.755 22.2827ZM658.272 22.2827C657.667 22.2827 657.139 22.0611 656.687 21.6179C656.235 21.1662 656.009 20.6463 656.009 20.0582C656.009 19.419 656.235 18.8864 656.687 18.4602C657.139 18.0341 657.667 17.821 658.272 17.821C658.911 17.821 659.444 18.0341 659.87 18.4602C660.305 18.8864 660.522 19.419 660.522 20.0582C660.522 20.6463 660.305 21.1662 659.87 21.6179C659.444 22.0611 658.911 22.2827 658.272 22.2827ZM680.834 30.1577L677.37 30.7713C677.225 30.3281 676.995 29.9062 676.679 29.5057C676.372 29.1051 675.955 28.777 675.426 28.5213C674.898 28.2656 674.237 28.1378 673.445 28.1378C672.362 28.1378 671.459 28.3807 670.735 28.8665C670.01 29.3437 669.648 29.9616 669.648 30.7202C669.648 31.3764 669.891 31.9048 670.377 32.3054C670.862 32.706 671.647 33.0341 672.729 33.2898L675.848 34.0057C677.655 34.4233 679.002 35.0668 679.888 35.9361C680.774 36.8054 681.218 37.9347 681.218 39.3239C681.218 40.5 680.877 41.5483 680.195 42.4688C679.522 43.3807 678.58 44.0966 677.37 44.6165C676.168 45.1364 674.774 45.3963 673.189 45.3963C670.99 45.3963 669.196 44.9276 667.807 43.9901C666.418 43.044 665.566 41.7017 665.25 39.9631L668.945 39.4006C669.175 40.3636 669.648 41.0923 670.364 41.5866C671.08 42.0724 672.013 42.3153 673.164 42.3153C674.416 42.3153 675.418 42.0554 676.168 41.5355C676.918 41.0071 677.293 40.3636 677.293 39.6051C677.293 38.9915 677.063 38.4759 676.603 38.0582C676.151 37.6406 675.456 37.3253 674.519 37.1122L671.195 36.3835C669.362 35.9659 668.007 35.3011 667.13 34.3892C666.26 33.4773 665.826 32.3224 665.826 30.9247C665.826 29.7656 666.149 28.7514 666.797 27.8821C667.445 27.0128 668.34 26.3352 669.482 25.8494C670.624 25.3551 671.932 25.108 673.407 25.108C675.529 25.108 677.199 25.5682 678.418 26.4886C679.637 27.4006 680.442 28.6236 680.834 30.1577ZM696.959 36.8565V25.3636H700.795V45H697.036V41.5994H696.831C696.38 42.6477 695.655 43.5213 694.658 44.2202C693.67 44.9105 692.438 45.2557 690.964 45.2557C689.702 45.2557 688.586 44.9787 687.614 44.4247C686.651 43.8622 685.893 43.0312 685.339 41.9318C684.793 40.8324 684.52 39.473 684.52 37.8537V25.3636H688.343V37.3935C688.343 38.7315 688.714 39.7969 689.455 40.5895C690.197 41.3821 691.16 41.7784 692.344 41.7784C693.06 41.7784 693.772 41.5994 694.479 41.2415C695.195 40.8835 695.787 40.3423 696.256 39.6179C696.733 38.8935 696.968 37.973 696.959 36.8565ZM184.21 66.1577L180.745 66.7713C180.6 66.3281 180.37 65.9062 180.055 65.5057C179.748 65.1051 179.331 64.777 178.802 64.5213C178.274 64.2656 177.613 64.1378 176.821 64.1378C175.738 64.1378 174.835 64.3807 174.11 64.8665C173.386 65.3437 173.024 65.9616 173.024 66.7202C173.024 67.3764 173.267 67.9048 173.752 68.3054C174.238 68.706 175.022 69.0341 176.105 69.2898L179.224 70.0057C181.031 70.4233 182.377 71.0668 183.264 71.9361C184.15 72.8054 184.593 73.9347 184.593 75.3239C184.593 76.5 184.252 77.5483 183.571 78.4688C182.897 79.3807 181.956 80.0966 180.745 80.6165C179.544 81.1364 178.15 81.3963 176.565 81.3963C174.366 81.3963 172.572 80.9276 171.183 79.9901C169.794 79.044 168.941 77.7017 168.626 75.9631L172.321 75.4006C172.551 76.3636 173.024 77.0923 173.74 77.5866C174.456 78.0724 175.389 78.3153 176.539 78.3153C177.792 78.3153 178.794 78.0554 179.544 77.5355C180.294 77.0071 180.669 76.3636 180.669 75.6051C180.669 74.9915 180.439 74.4759 179.978 74.0582C179.527 73.6406 178.832 73.3253 177.895 73.1122L174.571 72.3835C172.738 71.9659 171.383 71.3011 170.505 70.3892C169.636 69.4773 169.201 68.3224 169.201 66.9247C169.201 65.7656 169.525 64.7514 170.173 63.8821C170.821 63.0128 171.716 62.3352 172.858 61.8494C174 61.3551 175.308 61.108 176.782 61.108C178.904 61.108 180.575 61.5682 181.794 62.4886C183.012 63.4006 183.818 64.6236 184.21 66.1577ZM193.611 81.4347C192.366 81.4347 191.241 81.2045 190.236 80.7443C189.23 80.2756 188.433 79.598 187.845 78.7116C187.265 77.8253 186.976 76.7386 186.976 75.4517C186.976 74.3437 187.189 73.4318 187.615 72.7159C188.041 72 188.616 71.4332 189.341 71.0156C190.065 70.598 190.875 70.2827 191.77 70.0696C192.665 69.8565 193.577 69.6946 194.506 69.5838C195.682 69.4474 196.636 69.3366 197.369 69.2514C198.102 69.1577 198.635 69.0085 198.967 68.804C199.3 68.5994 199.466 68.267 199.466 67.8068V67.7173C199.466 66.6009 199.15 65.7358 198.52 65.1222C197.898 64.5085 196.969 64.2017 195.733 64.2017C194.446 64.2017 193.432 64.4872 192.69 65.0582C191.957 65.6207 191.45 66.2472 191.169 66.9375L187.577 66.1193C188.003 64.9261 188.625 63.9631 189.443 63.2301C190.27 62.4886 191.22 61.9517 192.294 61.6193C193.368 61.2784 194.497 61.108 195.682 61.108C196.466 61.108 197.297 61.2017 198.175 61.3892C199.061 61.5682 199.888 61.9006 200.655 62.3864C201.43 62.8722 202.065 63.5668 202.56 64.4702C203.054 65.3651 203.301 66.5284 203.301 67.9602V81H199.568V78.3153H199.415C199.167 78.8097 198.797 79.2955 198.302 79.7727C197.808 80.25 197.173 80.6463 196.398 80.9616C195.622 81.277 194.693 81.4347 193.611 81.4347ZM194.442 78.3665C195.498 78.3665 196.402 78.1577 197.152 77.7401C197.91 77.3224 198.486 76.777 198.878 76.1037C199.278 75.4219 199.479 74.6932 199.479 73.9176V71.3864C199.342 71.5227 199.078 71.6506 198.686 71.7699C198.302 71.8807 197.864 71.9787 197.369 72.0639C196.875 72.1406 196.393 72.2131 195.925 72.2812C195.456 72.3409 195.064 72.392 194.748 72.4347C194.007 72.5284 193.329 72.6861 192.716 72.9077C192.111 73.1293 191.625 73.4489 191.258 73.8665C190.9 74.2756 190.721 74.821 190.721 75.5028C190.721 76.4489 191.071 77.1648 191.77 77.6506C192.469 78.1278 193.359 78.3665 194.442 78.3665ZM213.207 81.4347C211.962 81.4347 210.837 81.2045 209.832 80.7443C208.826 80.2756 208.029 79.598 207.441 78.7116C206.862 77.8253 206.572 76.7386 206.572 75.4517C206.572 74.3437 206.785 73.4318 207.211 72.7159C207.637 72 208.212 71.4332 208.937 71.0156C209.661 70.598 210.471 70.2827 211.366 70.0696C212.261 69.8565 213.173 69.6946 214.102 69.5838C215.278 69.4474 216.232 69.3366 216.965 69.2514C217.698 69.1577 218.231 69.0085 218.563 68.804C218.896 68.5994 219.062 68.267 219.062 67.8068V67.7173C219.062 66.6009 218.747 65.7358 218.116 65.1222C217.494 64.5085 216.565 64.2017 215.329 64.2017C214.042 64.2017 213.028 64.4872 212.286 65.0582C211.553 65.6207 211.046 66.2472 210.765 66.9375L207.173 66.1193C207.599 64.9261 208.221 63.9631 209.039 63.2301C209.866 62.4886 210.816 61.9517 211.89 61.6193C212.964 61.2784 214.093 61.108 215.278 61.108C216.062 61.108 216.893 61.2017 217.771 61.3892C218.657 61.5682 219.484 61.9006 220.251 62.3864C221.026 62.8722 221.661 63.5668 222.156 64.4702C222.65 65.3651 222.897 66.5284 222.897 67.9602V81H219.164V78.3153H219.011C218.764 78.8097 218.393 79.2955 217.899 79.7727C217.404 80.25 216.769 80.6463 215.994 80.9616C215.218 81.277 214.289 81.4347 213.207 81.4347ZM214.038 78.3665C215.095 78.3665 215.998 78.1577 216.748 77.7401C217.506 77.3224 218.082 76.777 218.474 76.1037C218.874 75.4219 219.075 74.6932 219.075 73.9176V71.3864C218.938 71.5227 218.674 71.6506 218.282 71.7699C217.899 71.8807 217.46 71.9787 216.965 72.0639C216.471 72.1406 215.989 72.2131 215.521 72.2812C215.052 72.3409 214.66 72.392 214.345 72.4347C213.603 72.5284 212.925 72.6861 212.312 72.9077C211.707 73.1293 211.221 73.4489 210.854 73.8665C210.497 74.2756 210.318 74.821 210.318 75.5028C210.318 76.4489 210.667 77.1648 211.366 77.6506C212.065 78.1278 212.955 78.3665 214.038 78.3665ZM234.439 81.3835C232.854 81.3835 231.439 80.9787 230.195 80.169C228.959 79.3509 227.988 78.1875 227.28 76.679C226.581 75.1619 226.232 73.3423 226.232 71.2202C226.232 69.098 226.586 67.2827 227.293 65.7741C228.009 64.2656 228.989 63.1108 230.233 62.3097C231.478 61.5085 232.888 61.108 234.465 61.108C235.684 61.108 236.664 61.3125 237.405 61.7216C238.155 62.1222 238.735 62.5909 239.144 63.1278C239.561 63.6648 239.885 64.1378 240.115 64.5469H240.345V54.8182H244.168V81H240.435V77.9446H240.115C239.885 78.3622 239.553 78.8395 239.118 79.3764C238.692 79.9134 238.104 80.3821 237.354 80.7827C236.604 81.1832 235.632 81.3835 234.439 81.3835ZM235.283 78.1236C236.382 78.1236 237.311 77.8338 238.07 77.2543C238.837 76.6662 239.416 75.8523 239.809 74.8125C240.209 73.7727 240.409 72.5625 240.409 71.1818C240.409 69.8182 240.213 68.625 239.821 67.6023C239.429 66.5795 238.854 65.7827 238.095 65.2116C237.337 64.6406 236.399 64.3551 235.283 64.3551C234.132 64.3551 233.174 64.6534 232.407 65.25C231.639 65.8466 231.06 66.6605 230.668 67.6918C230.284 68.723 230.093 69.8864 230.093 71.1818C230.093 72.4943 230.289 73.6747 230.681 74.723C231.073 75.7713 231.652 76.6023 232.419 77.2159C233.195 77.821 234.149 78.1236 235.283 78.1236ZM257.351 61.3636H261.173V82.2784C261.173 83.5909 260.935 84.6989 260.457 85.6023C259.989 86.5057 259.29 87.1918 258.361 87.6605C257.44 88.1293 256.303 88.3636 254.947 88.3636C254.811 88.3636 254.683 88.3636 254.564 88.3636C254.436 88.3636 254.304 88.3594 254.168 88.3509V85.0653C254.287 85.0653 254.393 85.0653 254.487 85.0653C254.572 85.0653 254.67 85.0653 254.781 85.0653C255.685 85.0653 256.337 84.8224 256.737 84.3366C257.146 83.8594 257.351 83.1648 257.351 82.2528V61.3636ZM259.243 58.3338C258.578 58.3338 258.007 58.1122 257.53 57.669C257.061 57.2173 256.827 56.6804 256.827 56.0582C256.827 55.4276 257.061 54.8906 257.53 54.4474C258.007 53.9957 258.578 53.7699 259.243 53.7699C259.908 53.7699 260.474 53.9957 260.943 54.4474C261.42 54.8906 261.659 55.4276 261.659 56.0582C261.659 56.6804 261.42 57.2173 260.943 57.669C260.474 58.1122 259.908 58.3338 259.243 58.3338ZM271.13 81.4347C269.886 81.4347 268.761 81.2045 267.755 80.7443C266.75 80.2756 265.953 79.598 265.365 78.7116C264.785 77.8253 264.495 76.7386 264.495 75.4517C264.495 74.3437 264.708 73.4318 265.134 72.7159C265.561 72 266.136 71.4332 266.86 71.0156C267.585 70.598 268.394 70.2827 269.289 70.0696C270.184 69.8565 271.096 69.6946 272.025 69.5838C273.201 69.4474 274.156 69.3366 274.889 69.2514C275.622 69.1577 276.154 69.0085 276.487 68.804C276.819 68.5994 276.985 68.267 276.985 67.8068V67.7173C276.985 66.6009 276.67 65.7358 276.039 65.1222C275.417 64.5085 274.488 64.2017 273.252 64.2017C271.965 64.2017 270.951 64.4872 270.21 65.0582C269.477 65.6207 268.97 66.2472 268.688 66.9375L265.096 66.1193C265.522 64.9261 266.144 63.9631 266.963 63.2301C267.789 62.4886 268.74 61.9517 269.813 61.6193C270.887 61.2784 272.017 61.108 273.201 61.108C273.985 61.108 274.816 61.2017 275.694 61.3892C276.58 61.5682 277.407 61.9006 278.174 62.3864C278.95 62.8722 279.585 63.5668 280.079 64.4702C280.573 65.3651 280.821 66.5284 280.821 67.9602V81H277.088V78.3153H276.934C276.687 78.8097 276.316 79.2955 275.822 79.7727C275.328 80.25 274.693 80.6463 273.917 80.9616C273.142 81.277 272.213 81.4347 271.13 81.4347ZM271.961 78.3665C273.018 78.3665 273.921 78.1577 274.671 77.7401C275.43 77.3224 276.005 76.777 276.397 76.1037C276.798 75.4219 276.998 74.6932 276.998 73.9176V71.3864C276.862 71.5227 276.598 71.6506 276.205 71.7699C275.822 71.8807 275.383 71.9787 274.889 72.0639C274.394 72.1406 273.913 72.2131 273.444 72.2812C272.975 72.3409 272.583 72.392 272.268 72.4347C271.526 72.5284 270.849 72.6861 270.235 72.9077C269.63 73.1293 269.144 73.4489 268.778 73.8665C268.42 74.2756 268.241 74.821 268.241 75.5028C268.241 76.4489 268.59 77.1648 269.289 77.6506C269.988 78.1278 270.879 78.3665 271.961 78.3665ZM293.245 88.7727C291.685 88.7727 290.343 88.5682 289.218 88.1591C288.101 87.75 287.189 87.2088 286.482 86.5355C285.775 85.8622 285.246 85.125 284.897 84.3239L288.182 82.9688C288.412 83.3438 288.719 83.7401 289.103 84.1577C289.495 84.5838 290.023 84.946 290.688 85.2443C291.361 85.5426 292.226 85.6918 293.283 85.6918C294.732 85.6918 295.929 85.3381 296.875 84.6307C297.821 83.9318 298.294 82.8153 298.294 81.2812V77.4205H298.052C297.821 77.8381 297.489 78.3026 297.054 78.8139C296.628 79.3253 296.04 79.7685 295.29 80.1435C294.54 80.5185 293.564 80.706 292.363 80.706C290.812 80.706 289.414 80.3437 288.169 79.6193C286.934 78.8864 285.954 77.8082 285.229 76.3849C284.513 74.9531 284.155 73.1932 284.155 71.1051C284.155 69.017 284.509 67.2273 285.216 65.7358C285.932 64.2443 286.912 63.1023 288.157 62.3097C289.401 61.5085 290.812 61.108 292.388 61.108C293.607 61.108 294.591 61.3125 295.341 61.7216C296.091 62.1222 296.675 62.5909 297.093 63.1278C297.519 63.6648 297.847 64.1378 298.077 64.5469H298.358V61.3636H302.104V81.4347C302.104 83.1222 301.712 84.5071 300.928 85.5895C300.144 86.6719 299.083 87.473 297.745 87.9929C296.415 88.5128 294.915 88.7727 293.245 88.7727ZM293.206 77.5355C294.306 77.5355 295.235 77.2798 295.993 76.7685C296.76 76.2486 297.34 75.5071 297.732 74.544C298.133 73.5724 298.333 72.4091 298.333 71.054C298.333 69.733 298.137 68.5696 297.745 67.5639C297.353 66.5582 296.777 65.7741 296.019 65.2116C295.26 64.6406 294.323 64.3551 293.206 64.3551C292.056 64.3551 291.097 64.6534 290.33 65.25C289.563 65.8381 288.983 66.6392 288.591 67.6534C288.208 68.6676 288.016 69.8011 288.016 71.054C288.016 72.3409 288.212 73.4702 288.604 74.4418C288.996 75.4134 289.576 76.1719 290.343 76.7173C291.118 77.2628 292.073 77.5355 293.206 77.5355ZM312.045 81.4347C310.801 81.4347 309.676 81.2045 308.67 80.7443C307.664 80.2756 306.867 79.598 306.279 78.7116C305.7 77.8253 305.41 76.7386 305.41 75.4517C305.41 74.3437 305.623 73.4318 306.049 72.7159C306.475 72 307.051 71.4332 307.775 71.0156C308.5 70.598 309.309 70.2827 310.204 70.0696C311.099 69.8565 312.011 69.6946 312.94 69.5838C314.116 69.4474 315.071 69.3366 315.804 69.2514C316.536 69.1577 317.069 69.0085 317.402 68.804C317.734 68.5994 317.9 68.267 317.9 67.8068V67.7173C317.9 66.6009 317.585 65.7358 316.954 65.1222C316.332 64.5085 315.403 64.2017 314.167 64.2017C312.88 64.2017 311.866 64.4872 311.125 65.0582C310.392 65.6207 309.885 66.2472 309.603 66.9375L306.011 66.1193C306.437 64.9261 307.059 63.9631 307.877 63.2301C308.704 62.4886 309.654 61.9517 310.728 61.6193C311.802 61.2784 312.931 61.108 314.116 61.108C314.9 61.108 315.731 61.2017 316.609 61.3892C317.495 61.5682 318.322 61.9006 319.089 62.3864C319.865 62.8722 320.5 63.5668 320.994 64.4702C321.488 65.3651 321.735 66.5284 321.735 67.9602V81H318.002V78.3153H317.849C317.602 78.8097 317.231 79.2955 316.737 79.7727C316.242 80.25 315.608 80.6463 314.832 80.9616C314.056 81.277 313.127 81.4347 312.045 81.4347ZM312.876 78.3665C313.933 78.3665 314.836 78.1577 315.586 77.7401C316.345 77.3224 316.92 76.777 317.312 76.1037C317.713 75.4219 317.913 74.6932 317.913 73.9176V71.3864C317.777 71.5227 317.512 71.6506 317.12 71.7699C316.737 71.8807 316.298 71.9787 315.804 72.0639C315.309 72.1406 314.828 72.2131 314.359 72.2812C313.89 72.3409 313.498 72.392 313.183 72.4347C312.441 72.5284 311.764 72.6861 311.15 72.9077C310.545 73.1293 310.059 73.4489 309.693 73.8665C309.335 74.2756 309.156 74.821 309.156 75.5028C309.156 76.4489 309.505 77.1648 310.204 77.6506C310.903 78.1278 311.794 78.3665 312.876 78.3665ZM333.277 81.3835C331.692 81.3835 330.277 80.9787 329.033 80.169C327.797 79.3509 326.826 78.1875 326.118 76.679C325.42 75.1619 325.07 73.3423 325.07 71.2202C325.07 69.098 325.424 67.2827 326.131 65.7741C326.847 64.2656 327.827 63.1108 329.072 62.3097C330.316 61.5085 331.726 61.108 333.303 61.108C334.522 61.108 335.502 61.3125 336.243 61.7216C336.993 62.1222 337.573 62.5909 337.982 63.1278C338.4 63.6648 338.724 64.1378 338.954 64.5469H339.184V54.8182H343.006V81H339.273V77.9446H338.954C338.724 78.3622 338.391 78.8395 337.956 79.3764C337.53 79.9134 336.942 80.3821 336.192 80.7827C335.442 81.1832 334.471 81.3835 333.277 81.3835ZM334.121 78.1236C335.221 78.1236 336.15 77.8338 336.908 77.2543C337.675 76.6662 338.255 75.8523 338.647 74.8125C339.047 73.7727 339.248 72.5625 339.248 71.1818C339.248 69.8182 339.052 68.625 338.66 67.6023C338.268 66.5795 337.692 65.7827 336.934 65.2116C336.175 64.6406 335.238 64.3551 334.121 64.3551C332.971 64.3551 332.012 64.6534 331.245 65.25C330.478 65.8466 329.898 66.6605 329.506 67.6918C329.123 68.723 328.931 69.8864 328.931 71.1818C328.931 72.4943 329.127 73.6747 329.519 74.723C329.911 75.7713 330.491 76.6023 331.258 77.2159C332.033 77.821 332.988 78.1236 334.121 78.1236ZM353.276 81.4347C352.032 81.4347 350.907 81.2045 349.901 80.7443C348.896 80.2756 348.099 79.598 347.511 78.7116C346.931 77.8253 346.641 76.7386 346.641 75.4517C346.641 74.3437 346.854 73.4318 347.281 72.7159C347.707 72 348.282 71.4332 349.006 71.0156C349.731 70.598 350.54 70.2827 351.435 70.0696C352.33 69.8565 353.242 69.6946 354.171 69.5838C355.347 69.4474 356.302 69.3366 357.035 69.2514C357.768 69.1577 358.3 69.0085 358.633 68.804C358.965 68.5994 359.131 68.267 359.131 67.8068V67.7173C359.131 66.6009 358.816 65.7358 358.185 65.1222C357.563 64.5085 356.634 64.2017 355.398 64.2017C354.112 64.2017 353.097 64.4872 352.356 65.0582C351.623 65.6207 351.116 66.2472 350.835 66.9375L347.242 66.1193C347.668 64.9261 348.29 63.9631 349.109 63.2301C349.935 62.4886 350.886 61.9517 351.96 61.6193C353.033 61.2784 354.163 61.108 355.347 61.108C356.131 61.108 356.962 61.2017 357.84 61.3892C358.727 61.5682 359.553 61.9006 360.32 62.3864C361.096 62.8722 361.731 63.5668 362.225 64.4702C362.719 65.3651 362.967 66.5284 362.967 67.9602V81H359.234V78.3153H359.08C358.833 78.8097 358.462 79.2955 357.968 79.7727C357.474 80.25 356.839 80.6463 356.063 80.9616C355.288 81.277 354.359 81.4347 353.276 81.4347ZM354.107 78.3665C355.164 78.3665 356.067 78.1577 356.817 77.7401C357.576 77.3224 358.151 76.777 358.543 76.1037C358.944 75.4219 359.144 74.6932 359.144 73.9176V71.3864C359.008 71.5227 358.744 71.6506 358.352 71.7699C357.968 71.8807 357.529 71.9787 357.035 72.0639C356.54 72.1406 356.059 72.2131 355.59 72.2812C355.121 72.3409 354.729 72.392 354.414 72.4347C353.673 72.5284 352.995 72.6861 352.381 72.9077C351.776 73.1293 351.29 73.4489 350.924 73.8665C350.566 74.2756 350.387 74.821 350.387 75.5028C350.387 76.4489 350.737 77.1648 351.435 77.6506C352.134 78.1278 353.025 78.3665 354.107 78.3665ZM379.608 69.3409V81H375.785V61.3636H379.454V64.5597H379.697C380.149 63.5199 380.856 62.6847 381.819 62.054C382.791 61.4233 384.014 61.108 385.488 61.108C386.826 61.108 387.998 61.3892 389.004 61.9517C390.01 62.5057 390.79 63.3324 391.343 64.4318C391.897 65.5312 392.174 66.8906 392.174 68.5099V81H388.352V68.9702C388.352 67.5469 387.981 66.4347 387.24 65.6335C386.498 64.8239 385.48 64.419 384.184 64.419C383.298 64.419 382.51 64.6108 381.819 64.9943C381.138 65.3778 380.596 65.9403 380.196 66.6818C379.804 67.4148 379.608 68.3011 379.608 69.3409ZM404.864 81.3963C402.929 81.3963 401.263 80.983 399.865 80.1562C398.476 79.321 397.402 78.1491 396.644 76.6406C395.894 75.1236 395.519 73.3466 395.519 71.3097C395.519 69.2983 395.894 67.5256 396.644 65.9915C397.402 64.4574 398.459 63.2599 399.814 62.3991C401.178 61.5384 402.772 61.108 404.595 61.108C405.703 61.108 406.777 61.2912 407.817 61.6577C408.857 62.0241 409.79 62.5994 410.617 63.3835C411.443 64.1676 412.095 65.1861 412.573 66.4389C413.05 67.6832 413.289 69.196 413.289 70.9773V72.3324H397.679V69.4688H409.543C409.543 68.4631 409.338 67.5724 408.929 66.7969C408.52 66.0128 407.945 65.3949 407.203 64.9432C406.47 64.4915 405.61 64.2656 404.621 64.2656C403.547 64.2656 402.61 64.5298 401.809 65.0582C401.016 65.5781 400.402 66.2599 399.968 67.1037C399.541 67.9389 399.328 68.8466 399.328 69.8267V72.0639C399.328 73.3764 399.559 74.4929 400.019 75.4134C400.487 76.3338 401.139 77.0369 401.975 77.5227C402.81 78 403.786 78.2386 404.902 78.2386C405.627 78.2386 406.287 78.1364 406.884 77.9318C407.48 77.7187 407.996 77.4034 408.431 76.9858C408.865 76.5682 409.198 76.0526 409.428 75.4389L413.046 76.0909C412.756 77.1562 412.236 78.0895 411.486 78.8906C410.745 79.6832 409.811 80.3011 408.686 80.7443C407.57 81.179 406.296 81.3963 404.864 81.3963ZM420.452 54.8182V81H416.63V54.8182H420.452ZM424.695 61.3636H428.517V82.2784C428.517 83.5909 428.278 84.6989 427.801 85.6023C427.332 86.5057 426.634 87.1918 425.705 87.6605C424.784 88.1293 423.646 88.3636 422.291 88.3636C422.155 88.3636 422.027 88.3636 421.908 88.3636C421.78 88.3636 421.648 88.3594 421.511 88.3509V85.0653C421.631 85.0653 421.737 85.0653 421.831 85.0653C421.916 85.0653 422.014 85.0653 422.125 85.0653C423.028 85.0653 423.68 84.8224 424.081 84.3366C424.49 83.8594 424.695 83.1648 424.695 82.2528V61.3636ZM426.587 58.3338C425.922 58.3338 425.351 58.1122 424.874 57.669C424.405 57.2173 424.17 56.6804 424.17 56.0582C424.17 55.4276 424.405 54.8906 424.874 54.4474C425.351 53.9957 425.922 53.7699 426.587 53.7699C427.251 53.7699 427.818 53.9957 428.287 54.4474C428.764 54.8906 429.003 55.4276 429.003 56.0582C429.003 56.6804 428.764 57.2173 428.287 57.669C427.818 58.1122 427.251 58.3338 426.587 58.3338ZM438.474 81.4347C437.23 81.4347 436.105 81.2045 435.099 80.7443C434.093 80.2756 433.296 79.598 432.708 78.7116C432.129 77.8253 431.839 76.7386 431.839 75.4517C431.839 74.3437 432.052 73.4318 432.478 72.7159C432.904 72 433.48 71.4332 434.204 71.0156C434.928 70.598 435.738 70.2827 436.633 70.0696C437.528 69.8565 438.44 69.6946 439.369 69.5838C440.545 69.4474 441.5 69.3366 442.232 69.2514C442.965 69.1577 443.498 69.0085 443.83 68.804C444.163 68.5994 444.329 68.267 444.329 67.8068V67.7173C444.329 66.6009 444.014 65.7358 443.383 65.1222C442.761 64.5085 441.832 64.2017 440.596 64.2017C439.309 64.2017 438.295 64.4872 437.553 65.0582C436.821 65.6207 436.313 66.2472 436.032 66.9375L432.44 66.1193C432.866 64.9261 433.488 63.9631 434.306 63.2301C435.133 62.4886 436.083 61.9517 437.157 61.6193C438.231 61.2784 439.36 61.108 440.545 61.108C441.329 61.108 442.16 61.2017 443.038 61.3892C443.924 61.5682 444.751 61.9006 445.518 62.3864C446.294 62.8722 446.928 63.5668 447.423 64.4702C447.917 65.3651 448.164 66.5284 448.164 67.9602V81H444.431V78.3153H444.278C444.031 78.8097 443.66 79.2955 443.166 79.7727C442.671 80.25 442.036 80.6463 441.261 80.9616C440.485 81.277 439.556 81.4347 438.474 81.4347ZM439.305 78.3665C440.362 78.3665 441.265 78.1577 442.015 77.7401C442.774 77.3224 443.349 76.777 443.741 76.1037C444.142 75.4219 444.342 74.6932 444.342 73.9176V71.3864C444.205 71.5227 443.941 71.6506 443.549 71.7699C443.166 71.8807 442.727 71.9787 442.232 72.0639C441.738 72.1406 441.257 72.2131 440.788 72.2812C440.319 72.3409 439.927 72.392 439.612 72.4347C438.87 72.5284 438.193 72.6861 437.579 72.9077C436.974 73.1293 436.488 73.4489 436.122 73.8665C435.764 74.2756 435.585 74.821 435.585 75.5028C435.585 76.4489 435.934 77.1648 436.633 77.6506C437.332 78.1278 438.223 78.3665 439.305 78.3665ZM475.697 66.1577L472.233 66.7713C472.088 66.3281 471.858 65.9062 471.543 65.5057C471.236 65.1051 470.818 64.777 470.29 64.5213C469.761 64.2656 469.101 64.1378 468.308 64.1378C467.226 64.1378 466.322 64.3807 465.598 64.8665C464.873 65.3437 464.511 65.9616 464.511 66.7202C464.511 67.3764 464.754 67.9048 465.24 68.3054C465.726 68.706 466.51 69.0341 467.592 69.2898L470.712 70.0057C472.518 70.4233 473.865 71.0668 474.751 71.9361C475.638 72.8054 476.081 73.9347 476.081 75.3239C476.081 76.5 475.74 77.5483 475.058 78.4688C474.385 79.3807 473.443 80.0966 472.233 80.6165C471.031 81.1364 469.638 81.3963 468.052 81.3963C465.854 81.3963 464.06 80.9276 462.67 79.9901C461.281 79.044 460.429 77.7017 460.114 75.9631L463.808 75.4006C464.038 76.3636 464.511 77.0923 465.227 77.5866C465.943 78.0724 466.876 78.3153 468.027 78.3153C469.28 78.3153 470.281 78.0554 471.031 77.5355C471.781 77.0071 472.156 76.3636 472.156 75.6051C472.156 74.9915 471.926 74.4759 471.466 74.0582C471.014 73.6406 470.32 73.3253 469.382 73.1122L466.058 72.3835C464.226 71.9659 462.871 71.3011 461.993 70.3892C461.123 69.4773 460.689 68.3224 460.689 66.9247C460.689 65.7656 461.013 64.7514 461.66 63.8821C462.308 63.0128 463.203 62.3352 464.345 61.8494C465.487 61.3551 466.795 61.108 468.27 61.108C470.392 61.108 472.062 61.5682 473.281 62.4886C474.5 63.4006 475.305 64.6236 475.697 66.1577ZM487.655 81.3963C485.814 81.3963 484.208 80.9744 482.835 80.1307C481.463 79.2869 480.398 78.1065 479.639 76.5895C478.881 75.0724 478.502 73.2997 478.502 71.2713C478.502 69.2344 478.881 67.4531 479.639 65.9276C480.398 64.402 481.463 63.2173 482.835 62.3736C484.208 61.5298 485.814 61.108 487.655 61.108C489.496 61.108 491.102 61.5298 492.475 62.3736C493.847 63.2173 494.912 64.402 495.671 65.9276C496.429 67.4531 496.808 69.2344 496.808 71.2713C496.808 73.2997 496.429 75.0724 495.671 76.5895C494.912 78.1065 493.847 79.2869 492.475 80.1307C491.102 80.9744 489.496 81.3963 487.655 81.3963ZM487.668 78.1875C488.861 78.1875 489.85 77.8722 490.634 77.2415C491.418 76.6108 491.997 75.7713 492.372 74.723C492.756 73.6747 492.948 72.5199 492.948 71.2585C492.948 70.0057 492.756 68.8551 492.372 67.8068C491.997 66.75 491.418 65.902 490.634 65.2628C489.85 64.6236 488.861 64.304 487.668 64.304C486.466 64.304 485.469 64.6236 484.676 65.2628C483.892 65.902 483.308 66.75 482.925 67.8068C482.55 68.8551 482.362 70.0057 482.362 71.2585C482.362 72.5199 482.55 73.6747 482.925 74.723C483.308 75.7713 483.892 76.6108 484.676 77.2415C485.469 77.8722 486.466 78.1875 487.668 78.1875ZM483.807 58.9858L481.237 58.9091C481.237 57.4943 481.617 56.3651 482.375 55.5213C483.142 54.6776 484.088 54.2557 485.213 54.2557C485.733 54.2557 486.189 54.3452 486.581 54.5241C486.973 54.6946 487.34 54.8949 487.681 55.125C488.03 55.3466 488.375 55.5469 488.716 55.7259C489.065 55.8963 489.453 55.9815 489.879 55.9815C490.374 55.9815 490.774 55.794 491.081 55.419C491.396 55.044 491.554 54.5795 491.554 54.0256L494.073 54.1918C494.073 55.6151 493.689 56.7358 492.922 57.554C492.155 58.3636 491.213 58.7727 490.097 58.7812C489.492 58.7812 488.989 58.696 488.588 58.5256C488.196 58.3466 487.847 58.1463 487.54 57.9247C487.233 57.6946 486.918 57.4901 486.594 57.3111C486.27 57.1321 485.882 57.0426 485.431 57.0426C484.953 57.0426 484.561 57.2301 484.254 57.6051C483.956 57.9716 483.807 58.4318 483.807 58.9858ZM500.482 81V54.8182H504.304V64.5469H504.534C504.756 64.1378 505.076 63.6648 505.493 63.1278C505.911 62.5909 506.49 62.1222 507.232 61.7216C507.973 61.3125 508.953 61.108 510.172 61.108C511.757 61.108 513.172 61.5085 514.417 62.3097C515.661 63.1108 516.637 64.2656 517.344 65.7741C518.06 67.2827 518.418 69.098 518.418 71.2202C518.418 73.3423 518.064 75.1619 517.357 76.679C516.65 78.1875 515.678 79.3509 514.442 80.169C513.206 80.9787 511.796 81.3835 510.211 81.3835C509.017 81.3835 508.042 81.1832 507.283 80.7827C506.533 80.3821 505.945 79.9134 505.519 79.3764C505.093 78.8395 504.765 78.3622 504.534 77.9446H504.215V81H500.482ZM504.228 71.1818C504.228 72.5625 504.428 73.7727 504.828 74.8125C505.229 75.8523 505.809 76.6662 506.567 77.2543C507.326 77.8338 508.255 78.1236 509.354 78.1236C510.496 78.1236 511.451 77.821 512.218 77.2159C512.985 76.6023 513.564 75.7713 513.956 74.723C514.357 73.6747 514.557 72.4943 514.557 71.1818C514.557 69.8864 514.361 68.723 513.969 67.6918C513.586 66.6605 513.006 65.8466 512.23 65.25C511.463 64.6534 510.505 64.3551 509.354 64.3551C508.246 64.3551 507.309 64.6406 506.542 65.2116C505.783 65.7827 505.208 66.5795 504.816 67.6023C504.424 68.625 504.228 69.8182 504.228 71.1818ZM521.81 81V61.3636H525.505V64.483H525.709C526.067 63.4261 526.698 62.5952 527.601 61.9901C528.513 61.3764 529.545 61.0696 530.695 61.0696C530.934 61.0696 531.215 61.0781 531.539 61.0952C531.871 61.1122 532.131 61.1335 532.319 61.1591V64.8153C532.165 64.7727 531.893 64.7259 531.501 64.6747C531.109 64.6151 530.716 64.5852 530.324 64.5852C529.421 64.5852 528.616 64.777 527.908 65.1605C527.209 65.5355 526.655 66.0597 526.246 66.733C525.837 67.3977 525.633 68.1562 525.633 69.0085V81H521.81ZM540.265 81.4347C539.021 81.4347 537.896 81.2045 536.89 80.7443C535.885 80.2756 535.088 79.598 534.5 78.7116C533.92 77.8253 533.63 76.7386 533.63 75.4517C533.63 74.3437 533.843 73.4318 534.27 72.7159C534.696 72 535.271 71.4332 535.995 71.0156C536.72 70.598 537.53 70.2827 538.424 70.0696C539.319 69.8565 540.231 69.6946 541.16 69.5838C542.336 69.4474 543.291 69.3366 544.024 69.2514C544.757 69.1577 545.29 69.0085 545.622 68.804C545.954 68.5994 546.12 68.267 546.12 67.8068V67.7173C546.12 66.6009 545.805 65.7358 545.174 65.1222C544.552 64.5085 543.623 64.2017 542.388 64.2017C541.101 64.2017 540.086 64.4872 539.345 65.0582C538.612 65.6207 538.105 66.2472 537.824 66.9375L534.231 66.1193C534.657 64.9261 535.28 63.9631 536.098 63.2301C536.924 62.4886 537.875 61.9517 538.949 61.6193C540.022 61.2784 541.152 61.108 542.336 61.108C543.12 61.108 543.951 61.2017 544.829 61.3892C545.716 61.5682 546.542 61.9006 547.309 62.3864C548.085 62.8722 548.72 63.5668 549.214 64.4702C549.709 65.3651 549.956 66.5284 549.956 67.9602V81H546.223V78.3153H546.069C545.822 78.8097 545.451 79.2955 544.957 79.7727C544.463 80.25 543.828 80.6463 543.052 80.9616C542.277 81.277 541.348 81.4347 540.265 81.4347ZM541.096 78.3665C542.153 78.3665 543.057 78.1577 543.807 77.7401C544.565 77.3224 545.14 76.777 545.532 76.1037C545.933 75.4219 546.133 74.6932 546.133 73.9176V71.3864C545.997 71.5227 545.733 71.6506 545.341 71.7699C544.957 71.8807 544.518 71.9787 544.024 72.0639C543.53 72.1406 543.048 72.2131 542.579 72.2812C542.111 72.3409 541.718 72.392 541.403 72.4347C540.662 72.5284 539.984 72.6861 539.37 72.9077C538.765 73.1293 538.28 73.4489 537.913 73.8665C537.555 74.2756 537.376 74.821 537.376 75.5028C537.376 76.4489 537.726 77.1648 538.424 77.6506C539.123 78.1278 540.014 78.3665 541.096 78.3665ZM562.38 88.7727C560.82 88.7727 559.478 88.5682 558.353 88.1591C557.236 87.75 556.324 87.2088 555.617 86.5355C554.91 85.8622 554.381 85.125 554.032 84.3239L557.317 82.9688C557.548 83.3438 557.854 83.7401 558.238 84.1577C558.63 84.5838 559.158 84.946 559.823 85.2443C560.496 85.5426 561.361 85.6918 562.418 85.6918C563.867 85.6918 565.065 85.3381 566.011 84.6307C566.957 83.9318 567.43 82.8153 567.43 81.2812V77.4205H567.187C566.957 77.8381 566.624 78.3026 566.19 78.8139C565.763 79.3253 565.175 79.7685 564.425 80.1435C563.675 80.5185 562.699 80.706 561.498 80.706C559.947 80.706 558.549 80.3437 557.305 79.6193C556.069 78.8864 555.089 77.8082 554.364 76.3849C553.648 74.9531 553.29 73.1932 553.29 71.1051C553.29 69.017 553.644 67.2273 554.351 65.7358C555.067 64.2443 556.048 63.1023 557.292 62.3097C558.536 61.5085 559.947 61.108 561.523 61.108C562.742 61.108 563.726 61.3125 564.476 61.7216C565.226 62.1222 565.81 62.5909 566.228 63.1278C566.654 63.6648 566.982 64.1378 567.212 64.5469H567.494V61.3636H571.239V81.4347C571.239 83.1222 570.847 84.5071 570.063 85.5895C569.279 86.6719 568.218 87.473 566.88 87.9929C565.55 88.5128 564.05 88.7727 562.38 88.7727ZM562.342 77.5355C563.441 77.5355 564.37 77.2798 565.128 76.7685C565.896 76.2486 566.475 75.5071 566.867 74.544C567.268 73.5724 567.468 72.4091 567.468 71.054C567.468 69.733 567.272 68.5696 566.88 67.5639C566.488 66.5582 565.913 65.7741 565.154 65.2116C564.396 64.6406 563.458 64.3551 562.342 64.3551C561.191 64.3551 560.232 64.6534 559.465 65.25C558.698 65.8381 558.119 66.6392 557.726 67.6534C557.343 68.6676 557.151 69.8011 557.151 71.054C557.151 72.3409 557.347 73.4702 557.739 74.4418C558.131 75.4134 558.711 76.1719 559.478 76.7173C560.253 77.2628 561.208 77.5355 562.342 77.5355ZM581.18 81.4347C579.936 81.4347 578.811 81.2045 577.805 80.7443C576.8 80.2756 576.003 79.598 575.415 78.7116C574.835 77.8253 574.545 76.7386 574.545 75.4517C574.545 74.3437 574.758 73.4318 575.184 72.7159C575.611 72 576.186 71.4332 576.91 71.0156C577.635 70.598 578.444 70.2827 579.339 70.0696C580.234 69.8565 581.146 69.6946 582.075 69.5838C583.251 69.4474 584.206 69.3366 584.939 69.2514C585.672 69.1577 586.204 69.0085 586.537 68.804C586.869 68.5994 587.035 68.267 587.035 67.8068V67.7173C587.035 66.6009 586.72 65.7358 586.089 65.1222C585.467 64.5085 584.538 64.2017 583.302 64.2017C582.015 64.2017 581.001 64.4872 580.26 65.0582C579.527 65.6207 579.02 66.2472 578.738 66.9375L575.146 66.1193C575.572 64.9261 576.194 63.9631 577.013 63.2301C577.839 62.4886 578.79 61.9517 579.863 61.6193C580.937 61.2784 582.067 61.108 583.251 61.108C584.035 61.108 584.866 61.2017 585.744 61.3892C586.63 61.5682 587.457 61.9006 588.224 62.3864C589 62.8722 589.635 63.5668 590.129 64.4702C590.623 65.3651 590.871 66.5284 590.871 67.9602V81H587.138V78.3153H586.984C586.737 78.8097 586.366 79.2955 585.872 79.7727C585.378 80.25 584.743 80.6463 583.967 80.9616C583.192 81.277 582.263 81.4347 581.18 81.4347ZM582.011 78.3665C583.068 78.3665 583.971 78.1577 584.721 77.7401C585.48 77.3224 586.055 76.777 586.447 76.1037C586.848 75.4219 587.048 74.6932 587.048 73.9176V71.3864C586.912 71.5227 586.648 71.6506 586.255 71.7699C585.872 71.8807 585.433 71.9787 584.939 72.0639C584.444 72.1406 583.963 72.2131 583.494 72.2812C583.025 72.3409 582.633 72.392 582.318 72.4347C581.577 72.5284 580.899 72.6861 580.285 72.9077C579.68 73.1293 579.194 73.4489 578.828 73.8665C578.47 74.2756 578.291 74.821 578.291 75.5028C578.291 76.4489 578.64 77.1648 579.339 77.6506C580.038 78.1278 580.929 78.3665 582.011 78.3665ZM599.881 54.8182L599.549 73.4702H596.008L595.675 54.8182H599.881ZM597.785 81.2429C597.077 81.2429 596.472 80.9957 595.969 80.5014C595.467 79.9986 595.219 79.3935 595.228 78.6861C595.219 77.9872 595.467 77.3906 595.969 76.8963C596.472 76.3935 597.077 76.142 597.785 76.142C598.475 76.142 599.072 76.3935 599.575 76.8963C600.077 77.3906 600.333 77.9872 600.342 78.6861C600.333 79.1548 600.21 79.5852 599.971 79.9773C599.741 80.3608 599.434 80.6676 599.05 80.8977C598.667 81.1278 598.245 81.2429 597.785 81.2429Z" fill="#442604"/>
</svg>
