<svg width="770" height="100" viewBox="0 0 770 100" fill="none" xmlns="http://www.w3.org/2000/svg">
<rect width="770" height="100" fill="#FFEBC4"/>
<path d="M154.977 21.776C158.877 21.776 162.257 22.348 165.117 23.492C168.029 24.584 170.707 26.274 173.151 28.562L167.691 34.88C165.767 33.32 163.843 32.176 161.919 31.448C159.995 30.72 157.941 30.356 155.757 30.356C153.365 30.356 151.441 30.876 149.985 31.916C148.581 32.904 147.879 34.334 147.879 36.206C147.879 37.506 148.165 38.572 148.737 39.404C149.361 40.236 150.427 41.016 151.935 41.744C153.443 42.472 155.705 43.304 158.721 44.24C164.077 45.956 168.081 48.088 170.733 50.636C173.385 53.132 174.711 56.72 174.711 61.4C174.711 64.728 173.879 67.666 172.215 70.214C170.551 72.71 168.133 74.686 164.961 76.142C161.789 77.546 158.071 78.248 153.807 78.248C149.543 78.248 145.747 77.572 142.419 76.22C139.091 74.868 136.231 73.022 133.839 70.682L139.689 64.208C141.769 65.976 143.927 67.328 146.163 68.264C148.399 69.148 150.843 69.59 153.495 69.59C156.303 69.59 158.539 68.94 160.203 67.64C161.919 66.34 162.777 64.52 162.777 62.18C162.777 60.724 162.465 59.528 161.841 58.592C161.269 57.604 160.255 56.72 158.799 55.94C157.343 55.16 155.237 54.354 152.481 53.522C146.605 51.702 142.393 49.518 139.845 46.97C137.349 44.422 136.101 41.094 136.101 36.986C136.101 33.97 136.907 31.318 138.519 29.03C140.131 26.69 142.367 24.896 145.227 23.648C148.087 22.4 151.337 21.776 154.977 21.776ZM197.833 34.412C204.021 34.412 208.857 36.362 212.341 40.262C215.825 44.11 217.567 49.466 217.567 56.33C217.567 60.698 216.761 64.546 215.149 67.874C213.589 71.15 211.301 73.698 208.285 75.518C205.321 77.338 201.811 78.248 197.755 78.248C191.567 78.248 186.705 76.324 183.169 72.476C179.685 68.576 177.943 63.194 177.943 56.33C177.943 51.962 178.723 48.14 180.283 44.864C181.895 41.536 184.183 38.962 187.147 37.142C190.163 35.322 193.725 34.412 197.833 34.412ZM197.833 42.68C195.025 42.68 192.919 43.798 191.515 46.034C190.163 48.218 189.487 51.65 189.487 56.33C189.487 61.01 190.163 64.468 191.515 66.704C192.919 68.888 194.999 69.98 197.755 69.98C200.511 69.98 202.565 68.888 203.917 66.704C205.321 64.468 206.023 61.01 206.023 56.33C206.023 51.65 205.347 48.218 203.995 46.034C202.643 43.798 200.589 42.68 197.833 42.68ZM202.279 27.08C201.187 27.08 200.225 26.898 199.393 26.534C198.613 26.17 197.677 25.65 196.585 24.974C195.909 24.454 195.311 24.09 194.791 23.882C194.323 23.622 193.829 23.492 193.309 23.492C192.477 23.492 191.749 23.778 191.125 24.35C190.501 24.922 189.851 25.806 189.175 27.002L183.481 24.194C184.521 21.646 185.873 19.566 187.537 17.954C189.201 16.342 191.073 15.536 193.153 15.536C194.349 15.536 195.363 15.744 196.195 16.16C197.027 16.524 197.963 17.044 199.003 17.72C199.679 18.188 200.251 18.552 200.719 18.812C201.187 19.02 201.681 19.124 202.201 19.124C203.033 19.124 203.735 18.864 204.307 18.344C204.931 17.772 205.607 16.888 206.335 15.692L212.029 18.5C210.989 21.152 209.637 23.258 207.973 24.818C206.309 26.326 204.411 27.08 202.279 27.08ZM246.426 34.412C251.262 34.412 255.006 36.336 257.658 40.184C260.362 44.032 261.714 49.414 261.714 56.33C261.714 60.594 261.038 64.39 259.686 67.718C258.386 70.994 256.488 73.568 253.992 75.44C251.548 77.312 248.662 78.248 245.334 78.248C240.81 78.248 237.196 76.48 234.492 72.944L233.868 77H224.04V19.202L235.116 17.954V40.106C236.416 38.338 238.054 36.96 240.03 35.972C242.006 34.932 244.138 34.412 246.426 34.412ZM242.214 70.058C247.518 70.058 250.17 65.482 250.17 56.33C250.17 51.286 249.52 47.75 248.22 45.722C246.972 43.642 245.152 42.602 242.76 42.602C239.796 42.602 237.248 44.37 235.116 47.906V65.612C236.936 68.576 239.302 70.058 242.214 70.058ZM289.927 34.49C291.175 34.49 292.553 34.698 294.061 35.114L292.189 45.8C290.733 45.436 289.511 45.254 288.523 45.254C286.079 45.254 284.181 46.112 282.829 47.828C281.477 49.544 280.411 52.144 279.631 55.628V77H268.555V35.66H278.149L279.163 43.694C280.151 40.782 281.581 38.52 283.453 36.908C285.377 35.296 287.535 34.49 289.927 34.49ZM326.454 65.534C326.454 67.146 326.688 68.342 327.156 69.122C327.624 69.85 328.404 70.396 329.496 70.76L327.156 78.092C324.712 77.884 322.71 77.312 321.15 76.376C319.642 75.44 318.472 73.984 317.64 72.008C314.936 76.168 310.802 78.248 305.238 78.248C301.13 78.248 297.854 77.078 295.41 74.738C293.018 72.346 291.822 69.252 291.822 65.456C291.822 60.932 293.46 57.474 296.736 55.082C300.012 52.69 304.718 51.494 310.854 51.494H315.612V49.466C315.612 46.918 315.04 45.15 313.896 44.162C312.752 43.174 310.854 42.68 308.202 42.68C305.29 42.68 301.65 43.408 297.282 44.864L294.786 37.454C299.934 35.426 305.03 34.412 310.074 34.412C315.69 34.412 319.824 35.634 322.476 38.078C325.128 40.47 326.454 44.058 326.454 48.842V65.534ZM308.28 70.292C311.4 70.292 313.844 68.758 315.612 65.69V57.812H311.946C305.966 57.812 302.976 60.048 302.976 64.52C302.976 66.34 303.418 67.77 304.302 68.81C305.238 69.798 306.564 70.292 308.28 70.292ZM371.373 19.202V77H361.623L360.999 71.93C358.087 76.142 354.135 78.248 349.143 78.248C344.047 78.248 340.147 76.298 337.443 72.398C334.791 68.446 333.465 63.09 333.465 56.33C333.465 52.066 334.141 48.296 335.493 45.02C336.897 41.692 338.873 39.092 341.421 37.22C343.969 35.348 346.907 34.412 350.235 34.412C354.083 34.412 357.437 35.79 360.297 38.546V17.954L371.373 19.202ZM352.419 69.98C354.031 69.98 355.461 69.59 356.709 68.81C357.957 67.978 359.153 66.704 360.297 64.988V46.502C359.205 45.202 358.087 44.24 356.943 43.616C355.851 42.94 354.577 42.602 353.121 42.602C350.573 42.602 348.571 43.72 347.115 45.956C345.711 48.192 345.009 51.65 345.009 56.33C345.009 61.27 345.633 64.78 346.881 66.86C348.181 68.94 350.027 69.98 352.419 69.98ZM407.703 78.248C404.323 78.248 401.697 77.286 399.825 75.362C397.953 73.386 397.017 70.604 397.017 67.016V19.202L408.093 17.954V66.704C408.093 68.524 408.847 69.434 410.355 69.434C411.187 69.434 411.915 69.278 412.539 68.966L414.801 76.844C412.669 77.78 410.303 78.248 407.703 78.248ZM435.55 34.412C441.738 34.412 446.574 36.362 450.058 40.262C453.542 44.11 455.284 49.466 455.284 56.33C455.284 60.698 454.478 64.546 452.866 67.874C451.306 71.15 449.018 73.698 446.002 75.518C443.038 77.338 439.528 78.248 435.472 78.248C429.284 78.248 424.422 76.324 420.886 72.476C417.402 68.576 415.66 63.194 415.66 56.33C415.66 51.962 416.44 48.14 418 44.864C419.612 41.536 421.9 38.962 424.864 37.142C427.88 35.322 431.442 34.412 435.55 34.412ZM435.55 42.68C432.742 42.68 430.636 43.798 429.232 46.034C427.88 48.218 427.204 51.65 427.204 56.33C427.204 61.01 427.88 64.468 429.232 66.704C430.636 68.888 432.716 69.98 435.472 69.98C438.228 69.98 440.282 68.888 441.634 66.704C443.038 64.468 443.74 61.01 443.74 56.33C443.74 51.65 443.064 48.218 441.712 46.034C440.36 43.798 438.306 42.68 435.55 42.68ZM496.701 55.394C496.701 55.914 496.623 57.344 496.467 59.684H470.649C471.013 63.428 472.027 66.08 473.691 67.64C475.355 69.2 477.617 69.98 480.477 69.98C482.245 69.98 483.909 69.694 485.469 69.122C487.029 68.55 488.719 67.64 490.539 66.392L495.141 72.632C490.513 76.376 485.287 78.248 479.463 78.248C472.963 78.248 467.971 76.298 464.487 72.398C461.003 68.498 459.261 63.22 459.261 56.564C459.261 52.352 459.989 48.582 461.445 45.254C462.953 41.874 465.111 39.222 467.919 37.298C470.779 35.374 474.159 34.412 478.059 34.412C483.935 34.412 488.511 36.258 491.787 39.95C495.063 43.642 496.701 48.79 496.701 55.394ZM485.703 52.274C485.703 45.41 483.233 41.978 478.293 41.978C476.005 41.978 474.211 42.836 472.911 44.552C471.663 46.216 470.909 48.946 470.649 52.742H485.703V52.274ZM536.555 35.66L523.295 77H510.113L496.619 35.66H508.631L516.821 68.342L525.167 35.66H536.555ZM569.961 65.534C569.961 67.146 570.195 68.342 570.663 69.122C571.131 69.85 571.911 70.396 573.003 70.76L570.663 78.092C568.219 77.884 566.217 77.312 564.657 76.376C563.149 75.44 561.979 73.984 561.147 72.008C558.443 76.168 554.309 78.248 548.745 78.248C544.637 78.248 541.361 77.078 538.917 74.738C536.525 72.346 535.329 69.252 535.329 65.456C535.329 60.932 536.967 57.474 540.243 55.082C543.519 52.69 548.225 51.494 554.361 51.494H559.119V49.466C559.119 46.918 558.547 45.15 557.403 44.162C556.259 43.174 554.361 42.68 551.709 42.68C548.797 42.68 545.157 43.408 540.789 44.864L538.293 37.454C543.441 35.426 548.537 34.412 553.581 34.412C559.197 34.412 563.331 35.634 565.983 38.078C568.635 40.47 569.961 44.058 569.961 48.842V65.534ZM551.787 70.292C554.907 70.292 557.351 68.758 559.119 65.69V57.812H555.453C549.473 57.812 546.483 60.048 546.483 64.52C546.483 66.34 546.925 67.77 547.809 68.81C548.745 69.798 550.071 70.292 551.787 70.292ZM614.879 19.202V77H605.129L604.505 71.93C601.593 76.142 597.641 78.248 592.649 78.248C587.553 78.248 583.653 76.298 580.949 72.398C578.297 68.446 576.971 63.09 576.971 56.33C576.971 52.066 577.647 48.296 578.999 45.02C580.403 41.692 582.379 39.092 584.927 37.22C587.475 35.348 590.413 34.412 593.741 34.412C597.589 34.412 600.943 35.79 603.803 38.546V17.954L614.879 19.202ZM595.925 69.98C597.537 69.98 598.967 69.59 600.215 68.81C601.463 67.978 602.659 66.704 603.803 64.988V46.502C602.711 45.202 601.593 44.24 600.449 43.616C599.357 42.94 598.083 42.602 596.627 42.602C594.079 42.602 592.077 43.72 590.621 45.956C589.217 48.192 588.515 51.65 588.515 56.33C588.515 61.27 589.139 64.78 590.387 66.86C591.687 68.94 593.533 69.98 595.925 69.98ZM633.57 23.024L632.244 57.578H623.196L621.714 23.024H633.57ZM627.72 64.91C629.592 64.91 631.178 65.56 632.478 66.86C633.778 68.16 634.428 69.72 634.428 71.54C634.428 73.36 633.778 74.946 632.478 76.298C631.178 77.598 629.592 78.248 627.72 78.248C625.9 78.248 624.34 77.598 623.04 76.298C621.74 74.946 621.09 73.36 621.09 71.54C621.09 69.72 621.74 68.16 623.04 66.86C624.34 65.56 625.9 64.91 627.72 64.91Z" fill="#E3000F"/>
</svg>
