<svg width="710" height="400" viewBox="0 0 710 400" fill="none" xmlns="http://www.w3.org/2000/svg">
<rect width="710" height="400" fill="#330B6A"/>
<path d="M133.658 37.9009V75.6001H124.736V37.9009H133.658ZM155.309 37.9009L143.287 54.8193L156.288 75.6001H145.952L133.93 55.4721L145.898 37.9009H155.309ZM183.909 60.5857C183.909 61.7825 183.855 62.8161 183.746 63.6865H165.848C166.138 66.1164 166.827 67.8209 167.915 68.8001C169.003 69.7793 170.508 70.2689 172.431 70.2689C173.591 70.2689 174.715 70.0694 175.803 69.6705C176.891 69.2353 178.07 68.5825 179.339 67.7121L182.875 72.4993C179.503 75.183 175.749 76.5249 171.615 76.5249C166.936 76.5249 163.346 75.1468 160.843 72.3905C158.341 69.6342 157.09 65.935 157.09 61.2929C157.09 58.3553 157.616 55.726 158.667 53.4049C159.719 51.0476 161.26 49.198 163.291 47.8561C165.322 46.478 167.752 45.7889 170.581 45.7889C174.752 45.7889 178.016 47.0945 180.373 49.7057C182.73 52.3169 183.909 55.9436 183.909 60.5857ZM175.477 58.1377C175.404 53.7132 173.845 51.5009 170.799 51.5009C169.312 51.5009 168.151 52.0449 167.317 53.1329C166.519 54.2209 166.029 56.0161 165.848 58.5185H175.477V58.1377ZM199.59 45.7889C201.657 45.7889 203.598 46.0972 205.411 46.7137C207.224 47.3302 208.82 48.2006 210.198 49.3249L207.043 54.1665C204.686 52.6796 202.31 51.9361 199.917 51.9361C198.792 51.9361 197.922 52.1356 197.305 52.5345C196.725 52.8972 196.435 53.423 196.435 54.1121C196.435 54.6561 196.562 55.1094 196.816 55.4721C197.106 55.7985 197.668 56.143 198.502 56.5057C199.336 56.8684 200.624 57.3036 202.365 57.8113C205.375 58.6817 207.605 59.8241 209.056 61.2385C210.543 62.6166 211.286 64.5388 211.286 67.0049C211.286 68.9633 210.724 70.6678 209.6 72.1185C208.476 73.5329 206.934 74.6209 204.976 75.3825C203.017 76.1441 200.841 76.5249 198.448 76.5249C196.018 76.5249 193.751 76.1441 191.648 75.3825C189.581 74.6209 187.822 73.5692 186.371 72.2273L190.56 67.5489C192.99 69.4348 195.546 70.3777 198.23 70.3777C199.536 70.3777 200.551 70.142 201.277 69.6705C202.038 69.199 202.419 68.5281 202.419 67.6577C202.419 66.9686 202.274 66.4246 201.984 66.0257C201.694 65.6268 201.132 65.2641 200.297 64.9377C199.463 64.575 198.14 64.1398 196.326 63.6321C193.461 62.798 191.321 61.6374 189.907 60.1505C188.493 58.6636 187.785 56.814 187.785 54.6017C187.785 52.9334 188.257 51.4465 189.2 50.1409C190.179 48.799 191.557 47.7473 193.334 46.9857C195.148 46.1878 197.233 45.7889 199.59 45.7889ZM248.099 74.2401C247.047 74.9654 245.814 75.5276 244.4 75.9265C243.021 76.3254 241.643 76.5249 240.265 76.5249C233.955 76.4886 230.8 73.007 230.8 66.0801V52.6977H226.72V46.7137H230.8V40.4577L239.395 39.4785V46.7137H246.032L245.107 52.6977H239.395V65.9713C239.395 67.3132 239.612 68.2742 240.048 68.8545C240.483 69.4348 241.172 69.7249 242.115 69.7249C243.094 69.7249 244.128 69.4166 245.216 68.8001L248.099 74.2401ZM263.204 45.7889C267.628 45.7889 271.092 47.1489 273.594 49.8689C276.097 52.5526 277.348 56.3244 277.348 61.1841C277.348 64.2668 276.767 66.9686 275.607 69.2897C274.483 71.5745 272.851 73.3516 270.711 74.6209C268.607 75.8902 266.105 76.5249 263.204 76.5249C258.815 76.5249 255.352 75.183 252.813 72.4993C250.311 69.7793 249.06 65.9894 249.06 61.1297C249.06 58.047 249.622 55.3633 250.746 53.0785C251.907 50.7574 253.539 48.9622 255.642 47.6929C257.782 46.4236 260.302 45.7889 263.204 45.7889ZM263.204 52.0993C261.463 52.0993 260.157 52.8428 259.287 54.3297C258.417 55.7804 257.981 58.047 257.981 61.1297C257.981 64.2849 258.398 66.5878 259.233 68.0385C260.103 69.4892 261.427 70.2145 263.204 70.2145C264.945 70.2145 266.25 69.4892 267.121 68.0385C267.991 66.5516 268.426 64.2668 268.426 61.1841C268.426 58.0289 267.991 55.726 267.121 54.2753C266.286 52.8246 264.981 52.0993 263.204 52.0993ZM266.359 41.0561C265.561 41.0561 264.872 40.9292 264.292 40.6753C263.711 40.4214 263.077 40.0588 262.388 39.5873C261.481 38.9345 260.738 38.6081 260.157 38.6081C259.541 38.6081 259.015 38.8076 258.58 39.2065C258.181 39.5692 257.746 40.1676 257.274 41.0017L252.977 38.9345C253.702 37.0486 254.663 35.5073 255.86 34.3105C257.093 33.1137 258.471 32.5153 259.994 32.5153C260.828 32.5153 261.535 32.6604 262.116 32.9505C262.732 33.2044 263.403 33.567 264.129 34.0385C264.636 34.3649 265.035 34.6006 265.325 34.7457C265.652 34.8908 265.978 34.9633 266.305 34.9633C266.885 34.9633 267.374 34.782 267.773 34.4193C268.209 34.0204 268.662 33.4038 269.133 32.5697L273.431 34.6913C272.669 36.6134 271.672 38.1548 270.439 39.3153C269.242 40.4758 267.882 41.0561 266.359 41.0561ZM293.313 45.7889C295.381 45.7889 297.321 46.0972 299.134 46.7137C300.947 47.3302 302.543 48.2006 303.921 49.3249L300.766 54.1665C298.409 52.6796 296.033 51.9361 293.64 51.9361C292.515 51.9361 291.645 52.1356 291.029 52.5345C290.448 52.8972 290.158 53.423 290.158 54.1121C290.158 54.6561 290.285 55.1094 290.539 55.4721C290.829 55.7985 291.391 56.143 292.225 56.5057C293.059 56.8684 294.347 57.3036 296.088 57.8113C299.098 58.6817 301.328 59.8241 302.779 61.2385C304.266 62.6166 305.009 64.5388 305.009 67.0049C305.009 68.9633 304.447 70.6678 303.323 72.1185C302.199 73.5329 300.657 74.6209 298.699 75.3825C296.741 76.1441 294.565 76.5249 292.171 76.5249C289.741 76.5249 287.474 76.1441 285.371 75.3825C283.304 74.6209 281.545 73.5692 280.094 72.2273L284.283 67.5489C286.713 69.4348 289.27 70.3777 291.953 70.3777C293.259 70.3777 294.274 70.142 295 69.6705C295.761 69.199 296.142 68.5281 296.142 67.6577C296.142 66.9686 295.997 66.4246 295.707 66.0257C295.417 65.6268 294.855 65.2641 294.021 64.9377C293.186 64.575 291.863 64.1398 290.049 63.6321C287.184 62.798 285.045 61.6374 283.63 60.1505C282.216 58.6636 281.509 56.814 281.509 54.6017C281.509 52.9334 281.98 51.4465 282.923 50.1409C283.902 48.799 285.28 47.7473 287.057 46.9857C288.871 46.1878 290.956 45.7889 293.313 45.7889ZM328.233 74.2401C327.181 74.9654 325.948 75.5276 324.533 75.9265C323.155 76.3254 321.777 76.5249 320.399 76.5249C314.089 76.4886 310.933 73.007 310.933 66.0801V52.6977H306.853V46.7137H310.933V40.4577L319.529 39.4785V46.7137H326.165L325.241 52.6977H319.529V65.9713C319.529 67.3132 319.746 68.2742 320.181 68.8545C320.617 69.4348 321.306 69.7249 322.249 69.7249C323.228 69.7249 324.261 69.4166 325.349 68.8001L328.233 74.2401ZM354.101 67.2225C354.101 68.3105 354.246 69.1084 354.536 69.6161C354.863 70.1238 355.37 70.5046 356.059 70.7585L354.264 76.3617C352.487 76.2166 351.037 75.8358 349.912 75.2193C348.788 74.5665 347.918 73.551 347.301 72.1729C345.415 75.0742 342.514 76.5249 338.597 76.5249C335.732 76.5249 333.447 75.6908 331.743 74.0225C330.038 72.3542 329.186 70.1782 329.186 67.4945C329.186 64.3393 330.346 61.9276 332.667 60.2593C334.989 58.591 338.343 57.7569 342.731 57.7569H345.669V56.5057C345.669 54.8012 345.306 53.6406 344.581 53.0241C343.856 52.3713 342.586 52.0449 340.773 52.0449C339.83 52.0449 338.688 52.19 337.346 52.4801C336.004 52.734 334.626 53.0966 333.211 53.5681L331.253 47.9105C333.066 47.2214 334.916 46.6956 336.802 46.3329C338.724 45.9702 340.501 45.7889 342.133 45.7889C346.267 45.7889 349.296 46.6412 351.218 48.3457C353.14 50.0502 354.101 52.607 354.101 56.0161V67.2225ZM341.099 70.3777C343.058 70.3777 344.581 69.4529 345.669 67.6033V62.4897H343.547C341.589 62.4897 340.12 62.8342 339.141 63.5233C338.198 64.2124 337.727 65.2822 337.727 66.7329C337.727 67.8934 338.017 68.8001 338.597 69.4529C339.214 70.0694 340.048 70.3777 341.099 70.3777ZM378.002 45.7889C381.447 45.7889 384.095 47.1489 385.944 49.8689C387.794 52.5526 388.719 56.3244 388.719 61.1841C388.719 64.158 388.247 66.8054 387.304 69.1265C386.398 71.4476 385.074 73.2609 383.333 74.5665C381.628 75.8721 379.598 76.5249 377.24 76.5249C375.681 76.5249 374.248 76.1985 372.943 75.5457C371.673 74.8929 370.585 73.9862 369.679 72.8257L369.243 75.6001H361.627V35.2353L370.223 34.3105V49.6513C371.093 48.4545 372.199 47.5116 373.541 46.8225C374.919 46.1334 376.406 45.7889 378.002 45.7889ZM374.738 70.2689C378.111 70.2689 379.797 67.2406 379.797 61.1841C379.797 57.7388 379.398 55.3633 378.6 54.0577C377.802 52.7521 376.642 52.0993 375.119 52.0993C373.196 52.0993 371.564 53.2236 370.223 55.4721V67.4945C370.767 68.3649 371.419 69.054 372.181 69.5617C372.979 70.0332 373.831 70.2689 374.738 70.2689ZM416.897 72.3361C416.897 75.3462 416.407 77.8305 415.428 79.7889C414.485 81.7473 413.18 83.3068 411.511 84.4673C409.879 85.6641 407.812 86.7158 405.31 87.6225L402.427 81.3665C403.841 80.7137 404.947 80.079 405.745 79.4625C406.543 78.846 407.159 78.0118 407.595 76.9601C408.066 75.9446 408.302 74.5846 408.302 72.8801V46.7137H416.897V72.3361ZM412.599 31.4817C414.086 31.4817 415.301 31.9532 416.244 32.8961C417.223 33.8028 417.713 34.9633 417.713 36.3777C417.713 37.7921 417.223 38.9708 416.244 39.9137C415.301 40.8204 414.086 41.2737 412.599 41.2737C411.112 41.2737 409.897 40.8204 408.955 39.9137C408.012 38.9708 407.54 37.7921 407.54 36.3777C407.54 34.9633 408.012 33.8028 408.955 32.8961C409.897 31.9532 411.112 31.4817 412.599 31.4817ZM447.293 67.2225C447.293 68.3105 447.438 69.1084 447.728 69.6161C448.055 70.1238 448.562 70.5046 449.251 70.7585L447.456 76.3617C445.679 76.2166 444.228 75.8358 443.104 75.2193C441.98 74.5665 441.109 73.551 440.493 72.1729C438.607 75.0742 435.706 76.5249 431.789 76.5249C428.924 76.5249 426.639 75.6908 424.935 74.0225C423.23 72.3542 422.378 70.1782 422.378 67.4945C422.378 64.3393 423.538 61.9276 425.859 60.2593C428.18 58.591 431.535 57.7569 435.923 57.7569H438.861V56.5057C438.861 54.8012 438.498 53.6406 437.773 53.0241C437.048 52.3713 435.778 52.0449 433.965 52.0449C433.022 52.0449 431.88 52.19 430.538 52.4801C429.196 52.734 427.818 53.0966 426.403 53.5681L424.445 47.9105C426.258 47.2214 428.108 46.6956 429.994 46.3329C431.916 45.9702 433.693 45.7889 435.325 45.7889C439.459 45.7889 442.488 46.6412 444.41 48.3457C446.332 50.0502 447.293 52.607 447.293 56.0161V67.2225ZM434.291 70.3777C436.25 70.3777 437.773 69.4529 438.861 67.6033V62.4897H436.739C434.781 62.4897 433.312 62.8342 432.333 63.5233C431.39 64.2124 430.919 65.2822 430.919 66.7329C430.919 67.8934 431.209 68.8001 431.789 69.4529C432.405 70.0694 433.24 70.3777 434.291 70.3777ZM461.958 76.5249C459.456 76.5249 457.498 75.8177 456.083 74.4033C454.705 72.9526 454.016 70.9036 454.016 68.2561V35.2353L462.611 34.3105V67.9297C462.611 69.1265 463.101 69.7249 464.08 69.7249C464.588 69.7249 465.059 69.6342 465.494 69.4529L467.181 75.5457C465.621 76.1985 463.881 76.5249 461.958 76.5249ZM497.72 48.4001C495.834 49.1617 493.059 49.5425 489.396 49.5425C491.282 50.3404 492.66 51.3196 493.531 52.4801C494.401 53.6406 494.836 55.1457 494.836 56.9953C494.836 58.8449 494.347 60.5132 493.368 62.0001C492.388 63.4508 490.974 64.5932 489.124 65.4273C487.311 66.2614 485.171 66.6785 482.705 66.6785C481.545 66.6785 480.439 66.5697 479.387 66.3521C479.097 66.4972 478.861 66.7329 478.68 67.0593C478.535 67.3494 478.462 67.6577 478.462 67.9841C478.462 68.5281 478.661 68.9633 479.06 69.2897C479.496 69.5798 480.348 69.7249 481.617 69.7249H485.969C488.181 69.7249 490.122 70.0876 491.79 70.8129C493.458 71.5382 494.746 72.5356 495.652 73.8049C496.559 75.0742 497.012 76.5068 497.012 78.1025C497.012 81.1126 495.707 83.4518 493.096 85.1201C490.521 86.8246 486.785 87.6769 481.889 87.6769C478.371 87.6769 475.597 87.2961 473.566 86.5345C471.535 85.8092 470.103 84.7756 469.268 83.4337C468.471 82.0918 468.072 80.4054 468.072 78.3745H475.796C475.796 79.2449 475.96 79.934 476.286 80.4417C476.649 80.9494 477.283 81.3302 478.19 81.5841C479.097 81.838 480.402 81.9649 482.107 81.9649C484.464 81.9649 486.096 81.6748 487.003 81.0945C487.909 80.5505 488.363 79.7526 488.363 78.7009C488.363 77.8305 488.018 77.1414 487.329 76.6337C486.64 76.126 485.607 75.8721 484.228 75.8721H480.04C477.066 75.8721 474.835 75.3462 473.348 74.2945C471.898 73.2065 471.172 71.8284 471.172 70.1601C471.172 69.1084 471.481 68.0929 472.097 67.1137C472.714 66.0982 473.548 65.2641 474.6 64.6113C472.786 63.6321 471.463 62.4897 470.628 61.1841C469.831 59.8422 469.432 58.2284 469.432 56.3425C469.432 53.1148 470.592 50.558 472.913 48.6721C475.234 46.75 478.299 45.7889 482.107 45.7889C485.008 45.8614 487.456 45.5713 489.451 44.9185C491.482 44.2657 493.567 43.3046 495.707 42.0353L497.72 48.4001ZM482.324 51.4465C480.983 51.4465 479.913 51.8817 479.115 52.7521C478.353 53.5862 477.972 54.7468 477.972 56.2337C477.972 57.7932 478.353 59.0081 479.115 59.8785C479.913 60.7126 480.983 61.1297 482.324 61.1297C483.739 61.1297 484.809 60.7126 485.534 59.8785C486.296 59.0444 486.676 57.7932 486.676 56.1249C486.676 53.006 485.226 51.4465 482.324 51.4465ZM518.08 45.7889C521.707 45.7889 524.409 47.1308 526.186 49.8145C527.963 52.4982 528.852 56.2518 528.852 61.0753C528.852 64.0492 528.38 66.7148 527.437 69.0721C526.531 71.3932 525.207 73.2246 523.466 74.5665C521.725 75.8721 519.694 76.5249 517.373 76.5249C514.472 76.5249 512.133 75.5276 510.356 73.5329V86.7521L501.76 87.6769V46.7137H509.322L509.757 49.9233C510.882 48.5089 512.169 47.4753 513.62 46.8225C515.07 46.1334 516.557 45.7889 518.08 45.7889ZM514.762 70.2145C518.207 70.2145 519.93 67.2044 519.93 61.1841C519.93 57.775 519.549 55.4177 518.788 54.1121C518.026 52.7702 516.884 52.0993 515.36 52.0993C514.381 52.0993 513.456 52.3894 512.586 52.9697C511.752 53.55 511.008 54.3841 510.356 55.4721V67.6577C511.516 69.3622 512.985 70.2145 514.762 70.2145ZM557.325 67.2225C557.325 68.3105 557.47 69.1084 557.761 69.6161C558.087 70.1238 558.595 70.5046 559.284 70.7585L557.489 76.3617C555.712 76.2166 554.261 75.8358 553.137 75.2193C552.012 74.5665 551.142 73.551 550.525 72.1729C548.64 75.0742 545.738 76.5249 541.821 76.5249C538.956 76.5249 536.672 75.6908 534.967 74.0225C533.262 72.3542 532.41 70.1782 532.41 67.4945C532.41 64.3393 533.571 61.9276 535.892 60.2593C538.213 58.591 541.568 57.7569 545.956 57.7569H548.893V56.5057C548.893 54.8012 548.531 53.6406 547.805 53.0241C547.08 52.3713 545.811 52.0449 543.997 52.0449C543.054 52.0449 541.912 52.19 540.57 52.4801C539.228 52.734 537.85 53.0966 536.436 53.5681L534.477 47.9105C536.291 47.2214 538.14 46.6956 540.026 46.3329C541.948 45.9702 543.725 45.7889 545.357 45.7889C549.492 45.7889 552.52 46.6412 554.442 48.3457C556.364 50.0502 557.325 52.607 557.325 56.0161V67.2225ZM544.324 70.3777C546.282 70.3777 547.805 69.4529 548.893 67.6033V62.4897H546.772C544.813 62.4897 543.345 62.8342 542.365 63.5233C541.422 64.2124 540.951 65.2822 540.951 66.7329C540.951 67.8934 541.241 68.8001 541.821 69.4529C542.438 70.0694 543.272 70.3777 544.324 70.3777ZM571.991 76.5249C569.488 76.5249 567.53 75.8177 566.116 74.4033C564.738 72.9526 564.048 70.9036 564.048 68.2561V35.2353L572.644 34.3105V67.9297C572.644 69.1265 573.133 69.7249 574.112 69.7249C574.62 69.7249 575.092 69.6342 575.527 69.4529L577.213 75.5457C575.654 76.1985 573.913 76.5249 571.991 76.5249ZM588.821 76.5249C586.319 76.5249 584.36 75.8177 582.946 74.4033C581.568 72.9526 580.879 70.9036 580.879 68.2561V35.2353L589.474 34.3105V67.9297C589.474 69.1265 589.963 69.7249 590.943 69.7249C591.45 69.7249 591.922 69.6342 592.357 69.4529L594.043 75.5457C592.484 76.1985 590.743 76.5249 588.821 76.5249ZM606.576 46.7137V75.6001H597.98V46.7137H606.576ZM602.224 31.4817C603.711 31.4817 604.926 31.9532 605.868 32.8961C606.848 33.8028 607.337 34.9633 607.337 36.3777C607.337 37.7921 606.848 38.9708 605.868 39.9137C604.926 40.8204 603.711 41.2737 602.224 41.2737C600.737 41.2737 599.522 40.8204 598.579 39.9137C597.636 38.9708 597.164 37.7921 597.164 36.3777C597.164 34.9633 597.636 33.8028 598.579 32.8961C599.522 31.9532 600.737 31.4817 602.224 31.4817ZM162.163 143.6H153.405L152.752 128.858C152.571 125.34 152.48 122.203 152.48 119.446C152.48 117.343 152.535 115.348 152.643 113.462L146.823 139.629H138.391L132.189 113.462C132.407 116.618 132.515 119.592 132.515 122.384C132.515 124.488 132.461 126.682 132.352 128.966L131.699 143.6H122.995L125.824 105.901H137.085L142.743 131.469L148.019 105.901H159.335L162.163 143.6ZM205.609 143.6H196.851L196.198 128.858C196.016 125.34 195.926 122.203 195.926 119.446C195.926 117.343 195.98 115.348 196.089 113.462L190.268 139.629H181.836L175.635 113.462C175.852 116.618 175.961 119.592 175.961 122.384C175.961 124.488 175.907 126.682 175.798 128.966L175.145 143.6H166.441L169.27 105.901H180.531L186.188 131.469L191.465 105.901H202.78L205.609 143.6ZM210.485 129.891V123.254H227.839V129.891H210.485ZM242.893 102.31V143.6H234.297V103.235L242.893 102.31ZM260.736 114.714L251.977 127.389L261.443 143.6H251.76L243.165 127.824L251.977 114.714H260.736ZM287.153 135.222C287.153 136.31 287.298 137.108 287.588 137.616C287.915 138.124 288.422 138.505 289.111 138.758L287.316 144.362C285.539 144.217 284.088 143.836 282.964 143.219C281.84 142.566 280.969 141.551 280.353 140.173C278.467 143.074 275.566 144.525 271.649 144.525C268.784 144.525 266.499 143.691 264.795 142.022C263.09 140.354 262.238 138.178 262.238 135.494C262.238 132.339 263.398 129.928 265.719 128.259C268.04 126.591 271.395 125.757 275.783 125.757H278.721V124.506C278.721 122.801 278.358 121.641 277.633 121.024C276.908 120.371 275.638 120.045 273.825 120.045C272.882 120.045 271.74 120.19 270.398 120.48C269.056 120.734 267.678 121.097 266.263 121.568L264.305 115.91C266.118 115.221 267.968 114.696 269.854 114.333C271.776 113.97 273.553 113.789 275.185 113.789C279.319 113.789 282.348 114.641 284.27 116.346C286.192 118.05 287.153 120.607 287.153 124.016V135.222ZM274.151 138.378C276.11 138.378 277.633 137.453 278.721 135.603V130.49H276.599C274.641 130.49 273.172 130.834 272.193 131.523C271.25 132.212 270.779 133.282 270.779 134.733C270.779 135.893 271.069 136.8 271.649 137.453C272.265 138.069 273.1 138.378 274.151 138.378ZM310.346 113.898C311.398 113.898 312.359 114.025 313.23 114.278L311.87 122.602C310.782 122.348 309.911 122.221 309.258 122.221C307.554 122.221 306.248 122.819 305.342 124.016C304.471 125.177 303.782 126.936 303.274 129.293V143.6H294.679V114.714H302.186L302.894 120.317C303.546 118.322 304.526 116.763 305.831 115.638C307.173 114.478 308.678 113.898 310.346 113.898ZM325.789 114.714V143.6H317.194V114.714H325.789ZM321.437 99.4817C322.924 99.4817 324.139 99.9532 325.082 100.896C326.061 101.803 326.55 102.963 326.55 104.378C326.55 105.792 326.061 106.971 325.082 107.914C324.139 108.82 322.924 109.274 321.437 109.274C319.95 109.274 318.735 108.82 317.792 107.914C316.849 106.971 316.378 105.792 316.378 104.378C316.378 102.963 316.849 101.803 317.792 100.896C318.735 99.9532 319.95 99.4817 321.437 99.4817ZM341.822 102.31V143.6H333.227V103.235L341.822 102.31ZM359.665 114.714L350.907 127.389L360.372 143.6H350.689L342.094 127.824L350.907 114.714H359.665ZM386.082 135.222C386.082 136.31 386.227 137.108 386.518 137.616C386.844 138.124 387.352 138.505 388.041 138.758L386.246 144.362C384.468 144.217 383.018 143.836 381.894 143.219C380.769 142.566 379.899 141.551 379.282 140.173C377.396 143.074 374.495 144.525 370.578 144.525C367.713 144.525 365.428 143.691 363.724 142.022C362.019 140.354 361.167 138.178 361.167 135.494C361.167 132.339 362.328 129.928 364.649 128.259C366.97 126.591 370.324 125.757 374.713 125.757H377.65V124.506C377.65 122.801 377.288 121.641 376.562 121.024C375.837 120.371 374.568 120.045 372.754 120.045C371.811 120.045 370.669 120.19 369.327 120.48C367.985 120.734 366.607 121.097 365.193 121.568L363.234 115.91C365.048 115.221 366.897 114.696 368.783 114.333C370.705 113.97 372.482 113.789 374.114 113.789C378.249 113.789 381.277 114.641 383.199 116.346C385.121 118.05 386.082 120.607 386.082 124.016V135.222ZM373.081 138.378C375.039 138.378 376.562 137.453 377.65 135.603V130.49H375.529C373.57 130.49 372.102 130.834 371.122 131.523C370.179 132.212 369.708 133.282 369.708 134.733C369.708 135.893 369.998 136.8 370.578 137.453C371.195 138.069 372.029 138.378 373.081 138.378ZM402.08 104.976C404.619 104.976 406.777 105.393 408.554 106.227C410.367 107.025 411.727 108.113 412.634 109.491C413.54 110.869 413.994 112.393 413.994 114.061C413.994 115.548 413.722 116.817 413.178 117.869C412.67 118.921 412.053 119.773 411.328 120.426C410.603 121.078 409.642 121.84 408.445 122.71C406.994 123.69 405.924 124.578 405.235 125.376C404.546 126.138 404.202 127.135 404.202 128.368V129.728H396.368V128.042C396.368 126.337 396.622 124.905 397.13 123.744C397.674 122.547 398.308 121.622 399.034 120.97C399.795 120.281 400.738 119.537 401.863 118.739C402.951 118.014 403.748 117.379 404.256 116.835C404.764 116.291 405.018 115.62 405.018 114.822C405.018 113.843 404.673 113.082 403.984 112.538C403.331 111.994 402.407 111.722 401.21 111.722C398.925 111.722 396.803 112.828 394.845 115.04L389.351 110.797C392.651 106.916 396.894 104.976 402.08 104.976ZM400.394 134.678C401.736 134.678 402.878 135.168 403.821 136.147C404.8 137.09 405.29 138.233 405.29 139.574C405.29 140.953 404.8 142.131 403.821 143.11C402.878 144.053 401.736 144.525 400.394 144.525C399.052 144.525 397.891 144.053 396.912 143.11C395.969 142.131 395.498 140.953 395.498 139.574C395.498 138.233 395.969 137.09 396.912 136.147C397.891 135.168 399.052 134.678 400.394 134.678Z" fill="#D7FF00"/>
<path d="M122.891 179.3V175.673H144.505V179.3H135.791V203.6H131.591V179.3H122.891ZM154.463 204.023C152.4 204.023 150.622 203.582 149.132 202.7C147.65 201.809 146.504 200.559 145.695 198.95C144.895 197.332 144.495 195.436 144.495 193.264C144.495 191.118 144.895 189.227 145.695 187.591C146.504 185.955 147.632 184.677 149.077 183.759C150.532 182.841 152.232 182.382 154.177 182.382C155.359 182.382 156.504 182.577 157.613 182.968C158.722 183.359 159.718 183.973 160.6 184.809C161.482 185.646 162.177 186.732 162.686 188.068C163.195 189.396 163.45 191.009 163.45 192.909V194.355H146.8V191.3H159.454C159.454 190.227 159.236 189.277 158.8 188.45C158.363 187.614 157.75 186.955 156.959 186.473C156.177 185.991 155.259 185.75 154.204 185.75C153.059 185.75 152.059 186.032 151.204 186.596C150.359 187.15 149.704 187.877 149.241 188.777C148.786 189.668 148.559 190.636 148.559 191.682V194.068C148.559 195.468 148.804 196.659 149.295 197.641C149.795 198.623 150.491 199.373 151.382 199.891C152.272 200.4 153.313 200.655 154.504 200.655C155.277 200.655 155.982 200.546 156.618 200.327C157.254 200.1 157.804 199.764 158.268 199.318C158.732 198.873 159.086 198.323 159.332 197.668L163.191 198.364C162.882 199.5 162.327 200.496 161.527 201.35C160.736 202.196 159.741 202.855 158.541 203.327C157.35 203.791 155.991 204.023 154.463 204.023ZM176.521 204.023C174.457 204.023 172.68 203.582 171.189 202.7C169.707 201.809 168.562 200.559 167.753 198.95C166.953 197.332 166.553 195.436 166.553 193.264C166.553 191.118 166.953 189.227 167.753 187.591C168.562 185.955 169.689 184.677 171.135 183.759C172.589 182.841 174.289 182.382 176.235 182.382C177.416 182.382 178.562 182.577 179.671 182.968C180.78 183.359 181.775 183.973 182.657 184.809C183.539 185.646 184.235 186.732 184.744 188.068C185.253 189.396 185.507 191.009 185.507 192.909V194.355H168.857V191.3H181.512C181.512 190.227 181.294 189.277 180.857 188.45C180.421 187.614 179.807 186.955 179.016 186.473C178.235 185.991 177.316 185.75 176.262 185.75C175.116 185.75 174.116 186.032 173.262 186.596C172.416 187.15 171.762 187.877 171.298 188.777C170.844 189.668 170.616 190.636 170.616 191.682V194.068C170.616 195.468 170.862 196.659 171.353 197.641C171.853 198.623 172.548 199.373 173.439 199.891C174.33 200.4 175.371 200.655 176.562 200.655C177.335 200.655 178.039 200.546 178.675 200.327C179.312 200.1 179.862 199.764 180.325 199.318C180.789 198.873 181.144 198.323 181.389 197.668L185.248 198.364C184.939 199.5 184.385 200.496 183.585 201.35C182.794 202.196 181.798 202.855 180.598 203.327C179.407 203.791 178.048 204.023 176.521 204.023ZM208.056 204.023C206.093 204.023 204.379 203.573 202.915 202.673C201.452 201.773 200.315 200.514 199.506 198.896C198.697 197.277 198.293 195.386 198.293 193.223C198.293 191.05 198.697 189.15 199.506 187.523C200.315 185.896 201.452 184.632 202.915 183.732C204.379 182.832 206.093 182.382 208.056 182.382C210.02 182.382 211.734 182.832 213.197 183.732C214.661 184.632 215.797 185.896 216.606 187.523C217.415 189.15 217.82 191.05 217.82 193.223C217.82 195.386 217.415 197.277 216.606 198.896C215.797 200.514 214.661 201.773 213.197 202.673C211.734 203.573 210.02 204.023 208.056 204.023ZM208.07 200.6C209.343 200.6 210.397 200.264 211.234 199.591C212.07 198.918 212.688 198.023 213.088 196.905C213.497 195.786 213.702 194.555 213.702 193.209C213.702 191.873 213.497 190.646 213.088 189.527C212.688 188.4 212.07 187.496 211.234 186.814C210.397 186.132 209.343 185.791 208.07 185.791C206.788 185.791 205.725 186.132 204.879 186.814C204.043 187.496 203.42 188.4 203.011 189.527C202.611 190.646 202.411 191.873 202.411 193.209C202.411 194.555 202.611 195.786 203.011 196.905C203.42 198.023 204.043 198.918 204.879 199.591C205.725 200.264 206.788 200.6 208.07 200.6ZM221.891 203.6V182.655H225.805V186.064H226.064C226.5 184.909 227.214 184.009 228.205 183.364C229.196 182.709 230.382 182.382 231.764 182.382C233.164 182.382 234.337 182.709 235.282 183.364C236.237 184.018 236.941 184.918 237.396 186.064H237.614C238.114 184.946 238.909 184.055 240 183.391C241.091 182.718 242.391 182.382 243.9 182.382C245.8 182.382 247.35 182.977 248.55 184.168C249.759 185.359 250.364 187.155 250.364 189.555V203.6H246.287V189.936C246.287 188.518 245.9 187.491 245.127 186.855C244.355 186.218 243.432 185.9 242.359 185.9C241.032 185.9 240 186.309 239.264 187.127C238.527 187.936 238.159 188.977 238.159 190.25V203.6H234.096V189.677C234.096 188.541 233.741 187.627 233.032 186.936C232.323 186.246 231.4 185.9 230.264 185.9C229.491 185.9 228.777 186.105 228.123 186.514C227.477 186.914 226.955 187.473 226.555 188.191C226.164 188.909 225.968 189.741 225.968 190.686V203.6H221.891ZM261.444 204.064C260.117 204.064 258.917 203.818 257.844 203.327C256.771 202.827 255.921 202.105 255.294 201.159C254.676 200.214 254.367 199.055 254.367 197.682C254.367 196.5 254.594 195.527 255.049 194.764C255.503 194 256.117 193.396 256.89 192.95C257.662 192.505 258.526 192.168 259.48 191.941C260.435 191.714 261.408 191.541 262.399 191.423C263.653 191.277 264.671 191.159 265.453 191.068C266.235 190.968 266.803 190.809 267.158 190.591C267.512 190.373 267.69 190.018 267.69 189.527V189.432C267.69 188.241 267.353 187.318 266.68 186.664C266.017 186.009 265.026 185.682 263.708 185.682C262.335 185.682 261.253 185.986 260.462 186.596C259.68 187.196 259.14 187.864 258.84 188.6L255.008 187.727C255.462 186.455 256.126 185.427 256.999 184.646C257.88 183.855 258.894 183.282 260.04 182.927C261.185 182.564 262.39 182.382 263.653 182.382C264.49 182.382 265.376 182.482 266.312 182.682C267.258 182.873 268.14 183.227 268.958 183.746C269.785 184.264 270.462 185.005 270.99 185.968C271.517 186.923 271.78 188.164 271.78 189.691V203.6H267.799V200.736H267.635C267.371 201.264 266.976 201.782 266.449 202.291C265.921 202.8 265.244 203.223 264.417 203.559C263.59 203.896 262.599 204.064 261.444 204.064ZM262.33 200.791C263.458 200.791 264.421 200.568 265.221 200.123C266.03 199.677 266.644 199.096 267.062 198.377C267.49 197.65 267.703 196.873 267.703 196.046V193.346C267.558 193.491 267.276 193.627 266.858 193.755C266.449 193.873 265.98 193.977 265.453 194.068C264.926 194.15 264.412 194.227 263.912 194.3C263.412 194.364 262.994 194.418 262.658 194.464C261.867 194.564 261.144 194.732 260.49 194.968C259.844 195.205 259.326 195.546 258.935 195.991C258.553 196.427 258.362 197.009 258.362 197.736C258.362 198.746 258.735 199.509 259.48 200.027C260.226 200.536 261.176 200.791 262.33 200.791ZM295.441 204.023C293.377 204.023 291.6 203.582 290.109 202.7C288.627 201.809 287.482 200.559 286.673 198.95C285.873 197.332 285.473 195.436 285.473 193.264C285.473 191.118 285.873 189.227 286.673 187.591C287.482 185.955 288.609 184.677 290.055 183.759C291.509 182.841 293.209 182.382 295.155 182.382C296.336 182.382 297.482 182.577 298.591 182.968C299.7 183.359 300.695 183.973 301.577 184.809C302.459 185.646 303.155 186.732 303.664 188.068C304.173 189.396 304.427 191.009 304.427 192.909V194.355H287.777V191.3H300.432C300.432 190.227 300.214 189.277 299.777 188.45C299.341 187.614 298.727 186.955 297.936 186.473C297.155 185.991 296.236 185.75 295.182 185.75C294.036 185.75 293.036 186.032 292.182 186.596C291.336 187.15 290.682 187.877 290.218 188.777C289.764 189.668 289.536 190.636 289.536 191.682V194.068C289.536 195.468 289.782 196.659 290.273 197.641C290.773 198.623 291.468 199.373 292.359 199.891C293.25 200.4 294.291 200.655 295.482 200.655C296.255 200.655 296.959 200.546 297.595 200.327C298.232 200.1 298.782 199.764 299.245 199.318C299.709 198.873 300.064 198.323 300.309 197.668L304.168 198.364C303.859 199.5 303.305 200.496 302.505 201.35C301.714 202.196 300.718 202.855 299.518 203.327C298.327 203.791 296.968 204.023 295.441 204.023ZM312.548 191.164V203.6H308.471V182.655H312.385V186.064H312.644C313.126 184.955 313.88 184.064 314.907 183.391C315.944 182.718 317.248 182.382 318.821 182.382C320.248 182.382 321.498 182.682 322.571 183.282C323.644 183.873 324.476 184.755 325.067 185.927C325.657 187.1 325.953 188.55 325.953 190.277V203.6H321.876V190.768C321.876 189.25 321.48 188.064 320.689 187.209C319.898 186.346 318.812 185.914 317.43 185.914C316.485 185.914 315.644 186.118 314.907 186.527C314.18 186.936 313.603 187.536 313.176 188.327C312.757 189.109 312.548 190.055 312.548 191.164ZM335.018 191.164V203.6H330.941V182.655H334.855V186.064H335.114C335.596 184.955 336.35 184.064 337.377 183.391C338.414 182.718 339.718 182.382 341.291 182.382C342.718 182.382 343.968 182.682 345.041 183.282C346.114 183.873 346.946 184.755 347.537 185.927C348.127 187.1 348.423 188.55 348.423 190.277V203.6H344.346V190.768C344.346 189.25 343.95 188.064 343.159 187.209C342.368 186.346 341.282 185.914 339.9 185.914C338.955 185.914 338.114 186.118 337.377 186.527C336.65 186.936 336.073 187.536 335.646 188.327C335.227 189.109 335.018 190.055 335.018 191.164ZM366.679 194.914V182.655H370.77V203.6H366.761V199.973H366.543C366.061 201.091 365.288 202.023 364.225 202.768C363.17 203.505 361.857 203.873 360.284 203.873C358.938 203.873 357.747 203.577 356.711 202.986C355.684 202.386 354.875 201.5 354.284 200.327C353.702 199.155 353.411 197.705 353.411 195.977V182.655H357.488V195.486C357.488 196.914 357.884 198.05 358.675 198.896C359.466 199.741 360.493 200.164 361.757 200.164C362.52 200.164 363.279 199.973 364.034 199.591C364.797 199.209 365.429 198.632 365.929 197.859C366.438 197.086 366.688 196.105 366.679 194.914ZM391.464 187.768L387.769 188.423C387.614 187.95 387.369 187.5 387.032 187.073C386.705 186.646 386.26 186.296 385.696 186.023C385.132 185.75 384.428 185.614 383.582 185.614C382.428 185.614 381.464 185.873 380.691 186.391C379.919 186.9 379.532 187.559 379.532 188.368C379.532 189.068 379.791 189.632 380.31 190.059C380.828 190.486 381.664 190.836 382.819 191.109L386.146 191.873C388.073 192.318 389.51 193.005 390.455 193.932C391.4 194.859 391.873 196.064 391.873 197.546C391.873 198.8 391.51 199.918 390.782 200.9C390.064 201.873 389.06 202.636 387.769 203.191C386.487 203.746 385 204.023 383.31 204.023C380.964 204.023 379.05 203.523 377.569 202.523C376.087 201.514 375.178 200.082 374.841 198.227L378.782 197.627C379.028 198.655 379.532 199.432 380.296 199.959C381.06 200.477 382.055 200.736 383.282 200.736C384.619 200.736 385.687 200.459 386.487 199.905C387.287 199.341 387.687 198.655 387.687 197.846C387.687 197.191 387.441 196.641 386.95 196.196C386.469 195.75 385.728 195.414 384.728 195.186L381.182 194.409C379.228 193.964 377.782 193.255 376.846 192.282C375.919 191.309 375.455 190.077 375.455 188.586C375.455 187.35 375.8 186.268 376.491 185.341C377.182 184.414 378.137 183.691 379.355 183.173C380.573 182.646 381.969 182.382 383.541 182.382C385.805 182.382 387.587 182.873 388.887 183.855C390.187 184.827 391.046 186.132 391.464 187.768ZM405.653 182.655V185.927H394.212V182.655H405.653ZM397.281 177.636H401.358V197.45C401.358 198.241 401.476 198.836 401.712 199.236C401.949 199.627 402.253 199.896 402.626 200.041C403.008 200.177 403.422 200.246 403.867 200.246C404.194 200.246 404.481 200.223 404.726 200.177C404.972 200.132 405.162 200.096 405.299 200.068L406.035 203.436C405.799 203.527 405.462 203.618 405.026 203.709C404.59 203.809 404.044 203.864 403.39 203.873C402.317 203.891 401.317 203.7 400.39 203.3C399.462 202.9 398.712 202.282 398.14 201.446C397.567 200.609 397.281 199.559 397.281 198.296V177.636ZM422.952 194.914V182.655H427.043V203.6H423.034V199.973H422.815C422.334 201.091 421.561 202.023 420.497 202.768C419.443 203.505 418.129 203.873 416.556 203.873C415.211 203.873 414.02 203.577 412.984 202.986C411.956 202.386 411.147 201.5 410.556 200.327C409.975 199.155 409.684 197.705 409.684 195.977V182.655H413.761V195.486C413.761 196.914 414.156 198.05 414.947 198.896C415.738 199.741 416.765 200.164 418.029 200.164C418.793 200.164 419.552 199.973 420.306 199.591C421.07 199.209 421.702 198.632 422.202 197.859C422.711 197.086 422.961 196.105 422.952 194.914ZM447.737 187.768L444.041 188.423C443.887 187.95 443.641 187.5 443.305 187.073C442.977 186.646 442.532 186.296 441.968 186.023C441.405 185.75 440.7 185.614 439.855 185.614C438.7 185.614 437.737 185.873 436.964 186.391C436.191 186.9 435.805 187.559 435.805 188.368C435.805 189.068 436.064 189.632 436.582 190.059C437.1 190.486 437.937 190.836 439.091 191.109L442.418 191.873C444.346 192.318 445.782 193.005 446.727 193.932C447.673 194.859 448.146 196.064 448.146 197.546C448.146 198.8 447.782 199.918 447.055 200.9C446.337 201.873 445.332 202.636 444.041 203.191C442.759 203.746 441.273 204.023 439.582 204.023C437.237 204.023 435.323 203.523 433.841 202.523C432.359 201.514 431.45 200.082 431.114 198.227L435.055 197.627C435.3 198.655 435.805 199.432 436.568 199.959C437.332 200.477 438.327 200.736 439.555 200.736C440.891 200.736 441.959 200.459 442.759 199.905C443.559 199.341 443.959 198.655 443.959 197.846C443.959 197.191 443.714 196.641 443.223 196.196C442.741 195.75 442 195.414 441 195.186L437.455 194.409C435.5 193.964 434.055 193.255 433.118 192.282C432.191 191.309 431.727 190.077 431.727 188.586C431.727 187.35 432.073 186.268 432.764 185.341C433.455 184.414 434.409 183.691 435.627 183.173C436.846 182.646 438.241 182.382 439.814 182.382C442.077 182.382 443.859 182.873 445.159 183.855C446.459 184.827 447.318 186.132 447.737 187.768ZM461.831 182.655H465.908V204.964C465.908 206.364 465.654 207.546 465.145 208.509C464.645 209.473 463.899 210.205 462.908 210.705C461.927 211.205 460.713 211.455 459.267 211.455C459.122 211.455 458.986 211.455 458.858 211.455C458.722 211.455 458.581 211.45 458.436 211.441V207.936C458.563 207.936 458.677 207.936 458.777 207.936C458.867 207.936 458.972 207.936 459.09 207.936C460.054 207.936 460.749 207.677 461.177 207.159C461.613 206.65 461.831 205.909 461.831 204.936V182.655ZM463.849 179.423C463.14 179.423 462.531 179.186 462.022 178.714C461.522 178.232 461.272 177.659 461.272 176.996C461.272 176.323 461.522 175.75 462.022 175.277C462.531 174.796 463.14 174.555 463.849 174.555C464.558 174.555 465.163 174.796 465.663 175.277C466.172 175.75 466.427 176.323 466.427 176.996C466.427 177.659 466.172 178.232 465.663 178.714C465.163 179.186 464.558 179.423 463.849 179.423ZM477.009 204.064C475.682 204.064 474.482 203.818 473.409 203.327C472.336 202.827 471.486 202.105 470.859 201.159C470.241 200.214 469.932 199.055 469.932 197.682C469.932 196.5 470.159 195.527 470.614 194.764C471.068 194 471.682 193.396 472.455 192.95C473.227 192.505 474.091 192.168 475.045 191.941C476 191.714 476.973 191.541 477.964 191.423C479.218 191.277 480.236 191.159 481.018 191.068C481.8 190.968 482.368 190.809 482.723 190.591C483.077 190.373 483.255 190.018 483.255 189.527V189.432C483.255 188.241 482.918 187.318 482.245 186.664C481.582 186.009 480.591 185.682 479.273 185.682C477.9 185.682 476.818 185.986 476.027 186.596C475.245 187.196 474.705 187.864 474.405 188.6L470.573 187.727C471.027 186.455 471.691 185.427 472.564 184.646C473.445 183.855 474.459 183.282 475.605 182.927C476.75 182.564 477.955 182.382 479.218 182.382C480.055 182.382 480.941 182.482 481.877 182.682C482.823 182.873 483.705 183.227 484.523 183.746C485.35 184.264 486.027 185.005 486.555 185.968C487.082 186.923 487.345 188.164 487.345 189.691V203.6H483.364V200.736H483.2C482.936 201.264 482.541 201.782 482.014 202.291C481.486 202.8 480.809 203.223 479.982 203.559C479.155 203.896 478.164 204.064 477.009 204.064ZM477.895 200.791C479.023 200.791 479.986 200.568 480.786 200.123C481.595 199.677 482.209 199.096 482.627 198.377C483.055 197.65 483.268 196.873 483.268 196.046V193.346C483.123 193.491 482.841 193.627 482.423 193.755C482.014 193.873 481.545 193.977 481.018 194.068C480.491 194.15 479.977 194.227 479.477 194.3C478.977 194.364 478.559 194.418 478.223 194.464C477.432 194.564 476.709 194.732 476.055 194.968C475.409 195.205 474.891 195.546 474.5 195.991C474.118 196.427 473.927 197.009 473.927 197.736C473.927 198.746 474.3 199.509 475.045 200.027C475.791 200.536 476.741 200.791 477.895 200.791ZM510.801 204.023C508.838 204.023 507.124 203.573 505.66 202.673C504.197 201.773 503.06 200.514 502.251 198.896C501.442 197.277 501.038 195.386 501.038 193.223C501.038 191.05 501.442 189.15 502.251 187.523C503.06 185.896 504.197 184.632 505.66 183.732C507.124 182.832 508.838 182.382 510.801 182.382C512.765 182.382 514.479 182.832 515.942 183.732C517.406 184.632 518.542 185.896 519.351 187.523C520.16 189.15 520.565 191.05 520.565 193.223C520.565 195.386 520.16 197.277 519.351 198.896C518.542 200.514 517.406 201.773 515.942 202.673C514.479 203.573 512.765 204.023 510.801 204.023ZM510.815 200.6C512.088 200.6 513.142 200.264 513.979 199.591C514.815 198.918 515.433 198.023 515.833 196.905C516.242 195.786 516.447 194.555 516.447 193.209C516.447 191.873 516.242 190.646 515.833 189.527C515.433 188.4 514.815 187.496 513.979 186.814C513.142 186.132 512.088 185.791 510.815 185.791C509.533 185.791 508.47 186.132 507.624 186.814C506.788 187.496 506.165 188.4 505.756 189.527C505.356 190.646 505.156 191.873 505.156 193.209C505.156 194.555 505.356 195.786 505.756 196.905C506.165 198.023 506.788 198.918 507.624 199.591C508.47 200.264 509.533 200.6 510.815 200.6ZM540.332 187.768L536.636 188.423C536.482 187.95 536.236 187.5 535.9 187.073C535.572 186.646 535.127 186.296 534.563 186.023C534 185.75 533.295 185.614 532.45 185.614C531.295 185.614 530.332 185.873 529.559 186.391C528.786 186.9 528.4 187.559 528.4 188.368C528.4 189.068 528.659 189.632 529.177 190.059C529.695 190.486 530.532 190.836 531.686 191.109L535.013 191.873C536.941 192.318 538.377 193.005 539.322 193.932C540.268 194.859 540.741 196.064 540.741 197.546C540.741 198.8 540.377 199.918 539.65 200.9C538.932 201.873 537.927 202.636 536.636 203.191C535.354 203.746 533.868 204.023 532.177 204.023C529.832 204.023 527.918 203.523 526.436 202.523C524.954 201.514 524.045 200.082 523.709 198.227L527.65 197.627C527.895 198.655 528.4 199.432 529.163 199.959C529.927 200.477 530.922 200.736 532.15 200.736C533.486 200.736 534.554 200.459 535.354 199.905C536.154 199.341 536.554 198.655 536.554 197.846C536.554 197.191 536.309 196.641 535.818 196.196C535.336 195.75 534.595 195.414 533.595 195.186L530.05 194.409C528.095 193.964 526.65 193.255 525.713 192.282C524.786 191.309 524.322 190.077 524.322 188.586C524.322 187.35 524.668 186.268 525.359 185.341C526.05 184.414 527.004 183.691 528.222 183.173C529.441 182.646 530.836 182.382 532.409 182.382C534.672 182.382 536.454 182.873 537.754 183.855C539.054 184.827 539.913 186.132 540.332 187.768ZM550.839 204.064C549.512 204.064 548.312 203.818 547.239 203.327C546.166 202.827 545.316 202.105 544.689 201.159C544.071 200.214 543.762 199.055 543.762 197.682C543.762 196.5 543.989 195.527 544.444 194.764C544.898 194 545.512 193.396 546.285 192.95C547.057 192.505 547.921 192.168 548.875 191.941C549.83 191.714 550.803 191.541 551.794 191.423C553.048 191.277 554.066 191.159 554.848 191.068C555.63 190.968 556.198 190.809 556.553 190.591C556.907 190.373 557.085 190.018 557.085 189.527V189.432C557.085 188.241 556.748 187.318 556.075 186.664C555.412 186.009 554.421 185.682 553.103 185.682C551.73 185.682 550.648 185.986 549.857 186.596C549.075 187.196 548.535 187.864 548.235 188.6L544.403 187.727C544.857 186.455 545.521 185.427 546.394 184.646C547.275 183.855 548.289 183.282 549.435 182.927C550.58 182.564 551.785 182.382 553.048 182.382C553.885 182.382 554.771 182.482 555.707 182.682C556.653 182.873 557.535 183.227 558.353 183.746C559.18 184.264 559.857 185.005 560.385 185.968C560.912 186.923 561.175 188.164 561.175 189.691V203.6H557.194V200.736H557.03C556.766 201.264 556.371 201.782 555.844 202.291C555.316 202.8 554.639 203.223 553.812 203.559C552.985 203.896 551.994 204.064 550.839 204.064ZM551.725 200.791C552.853 200.791 553.816 200.568 554.616 200.123C555.425 199.677 556.039 199.096 556.457 198.377C556.885 197.65 557.098 196.873 557.098 196.046V193.346C556.953 193.491 556.671 193.627 556.253 193.755C555.844 193.873 555.375 193.977 554.848 194.068C554.321 194.15 553.807 194.227 553.307 194.3C552.807 194.364 552.389 194.418 552.053 194.464C551.262 194.564 550.539 194.732 549.885 194.968C549.239 195.205 548.721 195.546 548.33 195.991C547.948 196.427 547.757 197.009 547.757 197.736C547.757 198.746 548.13 199.509 548.875 200.027C549.621 200.536 550.571 200.791 551.725 200.791ZM570.203 175.673V203.6H566.126V175.673H570.203ZM584.236 204.023C582.172 204.023 580.395 203.582 578.904 202.7C577.422 201.809 576.277 200.559 575.468 198.95C574.668 197.332 574.268 195.436 574.268 193.264C574.268 191.118 574.668 189.227 575.468 187.591C576.277 185.955 577.404 184.677 578.85 183.759C580.304 182.841 582.004 182.382 583.95 182.382C585.131 182.382 586.277 182.577 587.386 182.968C588.495 183.359 589.49 183.973 590.372 184.809C591.254 185.646 591.95 186.732 592.459 188.068C592.968 189.396 593.222 191.009 593.222 192.909V194.355H576.572V191.3H589.227C589.227 190.227 589.009 189.277 588.572 188.45C588.136 187.614 587.522 186.955 586.731 186.473C585.95 185.991 585.031 185.75 583.977 185.75C582.831 185.75 581.831 186.032 580.977 186.596C580.131 187.15 579.477 187.877 579.013 188.777C578.559 189.668 578.331 190.636 578.331 191.682V194.068C578.331 195.468 578.577 196.659 579.068 197.641C579.568 198.623 580.263 199.373 581.154 199.891C582.045 200.4 583.086 200.655 584.277 200.655C585.05 200.655 585.754 200.546 586.39 200.327C587.027 200.1 587.577 199.764 588.04 199.318C588.504 198.873 588.859 198.323 589.104 197.668L592.963 198.364C592.654 199.5 592.1 200.496 591.3 201.35C590.509 202.196 589.513 202.855 588.313 203.327C587.122 203.791 585.763 204.023 584.236 204.023ZM605.107 204.009C603.416 204.009 601.907 203.577 600.58 202.714C599.262 201.841 598.225 200.6 597.471 198.991C596.725 197.373 596.352 195.432 596.352 193.168C596.352 190.905 596.73 188.968 597.484 187.359C598.248 185.75 599.293 184.518 600.621 183.664C601.948 182.809 603.452 182.382 605.134 182.382C606.434 182.382 607.48 182.6 608.271 183.036C609.071 183.464 609.689 183.964 610.125 184.536C610.571 185.109 610.916 185.614 611.162 186.05H611.407V175.673H615.484V203.6H611.502V200.341H611.162C610.916 200.786 610.562 201.296 610.098 201.868C609.643 202.441 609.016 202.941 608.216 203.368C607.416 203.796 606.38 204.009 605.107 204.009ZM606.007 200.532C607.18 200.532 608.171 200.223 608.98 199.605C609.798 198.977 610.416 198.109 610.834 197C611.262 195.891 611.475 194.6 611.475 193.127C611.475 191.673 611.266 190.4 610.848 189.309C610.43 188.218 609.816 187.368 609.007 186.759C608.198 186.15 607.198 185.846 606.007 185.846C604.78 185.846 603.757 186.164 602.939 186.8C602.121 187.436 601.502 188.305 601.084 189.405C600.675 190.505 600.471 191.746 600.471 193.127C600.471 194.527 600.68 195.786 601.098 196.905C601.516 198.023 602.134 198.909 602.952 199.564C603.78 200.209 604.798 200.532 606.007 200.532Z" fill="#F5FCC4"/>
<path d="M133.664 251.982C131.737 251.982 130.018 251.627 128.509 250.918C127.009 250.209 125.818 249.232 124.937 247.986C124.055 246.741 123.596 245.314 123.559 243.705H129.287C129.35 244.786 129.805 245.664 130.65 246.336C131.496 247.009 132.5 247.346 133.664 247.346C134.591 247.346 135.409 247.141 136.118 246.732C136.837 246.314 137.396 245.736 137.796 245C138.205 244.255 138.409 243.4 138.409 242.436C138.409 241.455 138.2 240.591 137.782 239.846C137.373 239.1 136.805 238.518 136.077 238.1C135.35 237.682 134.518 237.468 133.582 237.459C132.764 237.459 131.968 237.627 131.196 237.964C130.432 238.3 129.837 238.759 129.409 239.341L124.159 238.4L125.482 223.673H142.555V228.5H130.35L129.627 235.496H129.791C130.282 234.805 131.023 234.232 132.014 233.777C133.005 233.323 134.114 233.096 135.341 233.096C137.023 233.096 138.523 233.491 139.841 234.282C141.159 235.073 142.2 236.159 142.964 237.541C143.727 238.914 144.105 240.496 144.096 242.286C144.105 244.168 143.668 245.841 142.787 247.305C141.914 248.759 140.691 249.905 139.118 250.741C137.555 251.568 135.737 251.982 133.664 251.982ZM173.282 247.727L156.987 231.459L160.56 227.846L176.869 244.155L173.282 247.727ZM160.56 247.727L156.987 244.155L173.282 227.846L176.869 231.459L160.56 247.727ZM202.319 223.673V251.6H196.414V229.277H196.251L189.855 233.286V228.05L196.769 223.673H202.319ZM219.426 252.214C217.081 252.205 215.063 251.627 213.372 250.482C211.69 249.336 210.395 247.677 209.485 245.505C208.585 243.332 208.14 240.718 208.149 237.664C208.149 234.618 208.599 232.023 209.499 229.877C210.408 227.732 211.704 226.1 213.385 224.982C215.076 223.855 217.09 223.291 219.426 223.291C221.763 223.291 223.772 223.855 225.454 224.982C227.145 226.109 228.445 227.746 229.354 229.891C230.263 232.027 230.713 234.618 230.704 237.664C230.704 240.727 230.249 243.346 229.34 245.518C228.44 247.691 227.149 249.35 225.467 250.496C223.785 251.641 221.772 252.214 219.426 252.214ZM219.426 247.318C221.026 247.318 222.304 246.514 223.258 244.905C224.213 243.296 224.685 240.882 224.676 237.664C224.676 235.546 224.458 233.782 224.022 232.373C223.595 230.964 222.985 229.905 222.195 229.196C221.413 228.486 220.49 228.132 219.426 228.132C217.835 228.132 216.563 228.927 215.608 230.518C214.654 232.109 214.172 234.491 214.163 237.664C214.163 239.809 214.376 241.6 214.804 243.036C215.24 244.464 215.854 245.536 216.645 246.255C217.435 246.964 218.363 247.318 219.426 247.318ZM245.384 252.214C243.038 252.205 241.02 251.627 239.329 250.482C237.647 249.336 236.352 247.677 235.443 245.505C234.543 243.332 234.097 240.718 234.107 237.664C234.107 234.618 234.557 232.023 235.457 229.877C236.366 227.732 237.661 226.1 239.343 224.982C241.034 223.855 243.047 223.291 245.384 223.291C247.72 223.291 249.729 223.855 251.411 224.982C253.102 226.109 254.402 227.746 255.311 229.891C256.22 232.027 256.67 234.618 256.661 237.664C256.661 240.727 256.207 243.346 255.297 245.518C254.397 247.691 253.107 249.35 251.425 250.496C249.743 251.641 247.729 252.214 245.384 252.214ZM245.384 247.318C246.984 247.318 248.261 246.514 249.216 244.905C250.17 243.296 250.643 240.882 250.634 237.664C250.634 235.546 250.416 233.782 249.979 232.373C249.552 230.964 248.943 229.905 248.152 229.196C247.37 228.486 246.447 228.132 245.384 228.132C243.793 228.132 242.52 228.927 241.566 230.518C240.611 232.109 240.129 234.491 240.12 237.664C240.12 239.809 240.334 241.6 240.761 243.036C241.197 244.464 241.811 245.536 242.602 246.255C243.393 246.964 244.32 247.318 245.384 247.318ZM287.235 233.286L285.885 236.273H267.653L268.758 233.286H287.235ZM284.631 239L283.144 242.055H267.653L268.758 239H284.631ZM290.781 225.827L288.599 230.491C288.235 230.236 287.794 229.959 287.276 229.659C286.767 229.35 286.181 229.091 285.517 228.882C284.862 228.664 284.135 228.555 283.335 228.555C282.072 228.555 280.972 228.873 280.035 229.509C279.099 230.146 278.372 231.136 277.853 232.482C277.344 233.827 277.09 235.555 277.09 237.664C277.09 239.791 277.344 241.523 277.853 242.859C278.372 244.186 279.099 245.164 280.035 245.791C280.972 246.409 282.072 246.718 283.335 246.718C284.135 246.718 284.862 246.614 285.517 246.405C286.172 246.196 286.744 245.946 287.235 245.655C287.735 245.364 288.153 245.096 288.49 244.85L290.699 249.514C289.708 250.332 288.585 250.95 287.331 251.368C286.076 251.777 284.744 251.982 283.335 251.982C280.953 251.982 278.844 251.418 277.008 250.291C275.181 249.155 273.749 247.523 272.712 245.396C271.676 243.259 271.158 240.682 271.158 237.664C271.158 234.655 271.676 232.077 272.712 229.932C273.749 227.786 275.181 226.146 277.008 225.009C278.844 223.864 280.953 223.291 283.335 223.291C284.799 223.291 286.153 223.509 287.399 223.946C288.644 224.382 289.772 225.009 290.781 225.827ZM308.952 223.673V251.6H303.143V223.673H308.952ZM322.59 252.009C320.471 252.009 318.64 251.559 317.094 250.659C315.558 249.75 314.371 248.486 313.535 246.868C312.699 245.241 312.28 243.355 312.28 241.209C312.28 239.046 312.699 237.155 313.535 235.536C314.371 233.909 315.558 232.646 317.094 231.746C318.64 230.836 320.471 230.382 322.59 230.382C324.708 230.382 326.535 230.836 328.071 231.746C329.617 232.646 330.808 233.909 331.644 235.536C332.48 237.155 332.899 239.046 332.899 241.209C332.899 243.355 332.48 245.241 331.644 246.868C330.808 248.486 329.617 249.75 328.071 250.659C326.535 251.559 324.708 252.009 322.59 252.009ZM322.617 247.509C323.58 247.509 324.385 247.236 325.03 246.691C325.676 246.136 326.162 245.382 326.49 244.427C326.826 243.473 326.994 242.386 326.994 241.168C326.994 239.95 326.826 238.864 326.49 237.909C326.162 236.955 325.676 236.2 325.03 235.646C324.385 235.091 323.58 234.814 322.617 234.814C321.644 234.814 320.826 235.091 320.162 235.646C319.508 236.2 319.012 236.955 318.676 237.909C318.349 238.864 318.185 239.95 318.185 241.168C318.185 242.386 318.349 243.473 318.676 244.427C319.012 245.382 319.508 246.136 320.162 246.691C320.826 247.236 321.644 247.509 322.617 247.509ZM345.66 252.009C343.541 252.009 341.71 251.559 340.164 250.659C338.628 249.75 337.441 248.486 336.605 246.868C335.769 245.241 335.35 243.355 335.35 241.209C335.35 239.046 335.769 237.155 336.605 235.536C337.441 233.909 338.628 232.646 340.164 231.746C341.71 230.836 343.541 230.382 345.66 230.382C347.778 230.382 349.605 230.836 351.141 231.746C352.687 232.646 353.878 233.909 354.714 235.536C355.55 237.155 355.969 239.046 355.969 241.209C355.969 243.355 355.55 245.241 354.714 246.868C353.878 248.486 352.687 249.75 351.141 250.659C349.605 251.559 347.778 252.009 345.66 252.009ZM345.687 247.509C346.65 247.509 347.455 247.236 348.1 246.691C348.746 246.136 349.232 245.382 349.56 244.427C349.896 243.473 350.064 242.386 350.064 241.168C350.064 239.95 349.896 238.864 349.56 237.909C349.232 236.955 348.746 236.2 348.1 235.646C347.455 235.091 346.65 234.814 345.687 234.814C344.714 234.814 343.896 235.091 343.232 235.646C342.578 236.2 342.082 236.955 341.746 237.909C341.419 238.864 341.255 239.95 341.255 241.168C341.255 242.386 341.419 243.473 341.746 244.427C342.082 245.382 342.578 246.136 343.232 246.691C343.896 247.236 344.714 247.509 345.687 247.509ZM376.693 236.627L371.375 236.955C371.284 236.5 371.089 236.091 370.789 235.727C370.489 235.355 370.093 235.059 369.602 234.841C369.12 234.614 368.543 234.5 367.87 234.5C366.97 234.5 366.211 234.691 365.593 235.073C364.975 235.446 364.666 235.946 364.666 236.573C364.666 237.073 364.866 237.496 365.266 237.841C365.666 238.186 366.352 238.464 367.325 238.673L371.116 239.436C373.152 239.855 374.67 240.527 375.67 241.455C376.67 242.382 377.17 243.6 377.17 245.109C377.17 246.482 376.766 247.686 375.957 248.723C375.157 249.759 374.057 250.568 372.657 251.15C371.266 251.723 369.661 252.009 367.843 252.009C365.07 252.009 362.861 251.432 361.216 250.277C359.58 249.114 358.62 247.532 358.339 245.532L364.052 245.232C364.225 246.077 364.643 246.723 365.307 247.168C365.97 247.605 366.82 247.823 367.857 247.823C368.875 247.823 369.693 247.627 370.311 247.236C370.939 246.836 371.257 246.323 371.266 245.696C371.257 245.168 371.034 244.736 370.598 244.4C370.161 244.055 369.489 243.791 368.58 243.609L364.952 242.886C362.907 242.477 361.384 241.768 360.384 240.759C359.393 239.75 358.898 238.464 358.898 236.9C358.898 235.555 359.261 234.396 359.989 233.423C360.725 232.45 361.757 231.7 363.084 231.173C364.42 230.646 365.984 230.382 367.775 230.382C370.42 230.382 372.502 230.941 374.02 232.059C375.548 233.177 376.439 234.7 376.693 236.627ZM380.348 251.6V230.655H386.157V251.6H380.348ZM383.267 227.955C382.403 227.955 381.662 227.668 381.044 227.096C380.435 226.514 380.13 225.818 380.13 225.009C380.13 224.209 380.435 223.523 381.044 222.95C381.662 222.368 382.403 222.077 383.267 222.077C384.13 222.077 384.867 222.368 385.476 222.95C386.094 223.523 386.403 224.209 386.403 225.009C386.403 225.818 386.094 226.514 385.476 227.096C384.867 227.668 384.13 227.955 383.267 227.955ZM407.758 236.627L402.44 236.955C402.349 236.5 402.154 236.091 401.854 235.727C401.554 235.355 401.158 235.059 400.667 234.841C400.185 234.614 399.608 234.5 398.935 234.5C398.035 234.5 397.276 234.691 396.658 235.073C396.04 235.446 395.731 235.946 395.731 236.573C395.731 237.073 395.931 237.496 396.331 237.841C396.731 238.186 397.417 238.464 398.39 238.673L402.181 239.436C404.217 239.855 405.735 240.527 406.735 241.455C407.735 242.382 408.235 243.6 408.235 245.109C408.235 246.482 407.831 247.686 407.022 248.723C406.222 249.759 405.122 250.568 403.722 251.15C402.331 251.723 400.726 252.009 398.908 252.009C396.135 252.009 393.926 251.432 392.281 250.277C390.645 249.114 389.685 247.532 389.404 245.532L395.117 245.232C395.29 246.077 395.708 246.723 396.372 247.168C397.035 247.605 397.885 247.823 398.922 247.823C399.94 247.823 400.758 247.627 401.376 247.236C402.004 246.836 402.322 246.323 402.331 245.696C402.322 245.168 402.099 244.736 401.663 244.4C401.226 244.055 400.554 243.791 399.645 243.609L396.017 242.886C393.972 242.477 392.449 241.768 391.449 240.759C390.458 239.75 389.963 238.464 389.963 236.9C389.963 235.555 390.326 234.396 391.054 233.423C391.79 232.45 392.822 231.7 394.149 231.173C395.485 230.646 397.049 230.382 398.84 230.382C401.485 230.382 403.567 230.941 405.085 232.059C406.613 233.177 407.504 234.7 407.758 236.627ZM418.354 223.673L417.822 243.227H412.832L412.286 223.673H418.354ZM415.327 251.955C414.427 251.955 413.654 251.636 413.009 251C412.363 250.355 412.045 249.582 412.054 248.682C412.045 247.791 412.363 247.027 413.009 246.391C413.654 245.755 414.427 245.436 415.327 245.436C416.191 245.436 416.95 245.755 417.604 246.391C418.259 247.027 418.591 247.791 418.6 248.682C418.591 249.282 418.432 249.832 418.122 250.332C417.822 250.823 417.427 251.218 416.936 251.518C416.445 251.809 415.909 251.955 415.327 251.955Z" fill="#D7FF00"/>
<path d="M121.2 290.6C121.2 287.066 124.066 284.2 127.6 284.2H372.6C376.135 284.2 379 287.066 379 290.6V356C379 359.535 376.135 362.4 372.6 362.4H127.6C124.066 362.4 121.2 359.535 121.2 356V290.6Z" fill="#D7FF00"/>
<path d="M178.262 310.227L177.648 314.336H168.048V321.248H176.419V325.319H168.048V332.653H178.339V336.8H162.403V310.227H178.262ZM202.256 336.8H194.998L186.55 315.719C186.78 317.536 186.96 319.251 187.088 320.864C187.241 322.451 187.318 324.32 187.318 326.471V336.8H182.211V310.227H189.315L197.916 331.347C197.404 327.917 197.148 324.768 197.148 321.901V310.227H202.256V336.8ZM227.426 336.8H220.168L211.72 315.719C211.95 317.536 212.13 319.251 212.258 320.864C212.411 322.451 212.488 324.32 212.488 326.471V336.8H207.381V310.227H214.485L223.086 331.347C222.574 327.917 222.318 324.768 222.318 321.901V310.227H227.426V336.8ZM252.404 328.045C252.404 329.863 252.02 331.475 251.252 332.883C250.484 334.291 249.332 335.405 247.796 336.224C246.285 337.018 244.442 337.415 242.266 337.415C238.989 337.415 236.48 336.57 234.74 334.88C233.024 333.165 232.167 330.887 232.167 328.045V310.227H237.812V327.776C237.812 329.568 238.17 330.912 238.887 331.808C239.604 332.679 240.73 333.114 242.266 333.114C243.802 333.114 244.928 332.679 245.645 331.808C246.388 330.912 246.759 329.568 246.759 327.776V310.227H252.404V328.045ZM265.073 309.613C266.993 309.613 268.657 309.895 270.065 310.458C271.499 310.995 272.817 311.827 274.02 312.954L271.332 316.064C270.385 315.296 269.438 314.733 268.491 314.375C267.544 314.016 266.532 313.837 265.457 313.837C264.28 313.837 263.332 314.093 262.616 314.605C261.924 315.091 261.579 315.795 261.579 316.717C261.579 317.357 261.72 317.882 262.001 318.291C262.308 318.701 262.833 319.085 263.576 319.443C264.318 319.802 265.432 320.211 266.916 320.672C269.553 321.517 271.524 322.567 272.83 323.821C274.136 325.05 274.788 326.816 274.788 329.12C274.788 330.759 274.379 332.205 273.56 333.459C272.74 334.688 271.55 335.661 269.988 336.378C268.427 337.069 266.596 337.415 264.497 337.415C262.398 337.415 260.529 337.082 258.891 336.416C257.252 335.751 255.844 334.842 254.667 333.69L257.547 330.503C258.571 331.373 259.633 332.039 260.734 332.499C261.835 332.935 263.038 333.152 264.344 333.152C265.726 333.152 266.827 332.832 267.646 332.192C268.491 331.552 268.913 330.656 268.913 329.504C268.913 328.787 268.76 328.199 268.452 327.738C268.171 327.251 267.672 326.816 266.955 326.432C266.238 326.048 265.201 325.651 263.844 325.242C260.952 324.346 258.878 323.271 257.624 322.016C256.395 320.762 255.78 319.123 255.78 317.101C255.78 315.616 256.177 314.311 256.971 313.184C257.764 312.032 258.865 311.149 260.273 310.535C261.681 309.92 263.281 309.613 265.073 309.613ZM295.004 310.227L294.39 314.643H287.67V336.8H282.025V314.643H274.959V310.227H295.004ZM309.553 336.8L308.055 330.848H299.722L298.225 336.8H292.349L300.529 310.227H307.402L315.543 336.8H309.553ZM300.797 326.663H306.98L303.869 314.413L300.797 326.663ZM337.563 336.8H330.306L321.858 315.719C322.088 317.536 322.267 319.251 322.395 320.864C322.549 322.451 322.626 324.32 322.626 326.471V336.8H317.518V310.227H324.622L333.224 331.347C332.712 327.917 332.456 324.768 332.456 321.901V310.227H337.563V336.8Z" fill="black"/>
</svg>
