<svg width="350" height="100" viewBox="0 0 350 100" fill="none" xmlns="http://www.w3.org/2000/svg">
<rect width="350" height="100" fill="#FFEBC4"/>
<rect x="24" y="26" width="149" height="48" rx="9" fill="#E3000F"/>
<path d="M45.412 35.646C47.372 35.646 49.066 36.01 50.494 36.738C51.922 37.438 53 38.404 53.728 39.636C54.484 40.84 54.862 42.184 54.862 43.668C54.862 45.208 54.526 46.692 53.854 48.12C53.21 49.548 52.09 51.158 50.494 52.95C48.926 54.742 46.63 57.052 43.606 59.88H55.492L54.82 64.5H36.802V60.174C40.33 56.646 42.878 54.014 44.446 52.278C46.014 50.542 47.12 49.072 47.764 47.868C48.408 46.664 48.73 45.432 48.73 44.172C48.73 42.968 48.38 42.016 47.68 41.316C46.98 40.616 46.042 40.266 44.866 40.266C43.83 40.266 42.906 40.504 42.094 40.98C41.282 41.428 40.428 42.184 39.532 43.248L35.962 40.392C38.37 37.228 41.52 35.646 45.412 35.646ZM75.3941 55.134C75.7861 57.066 76.5001 58.48 77.5361 59.376C78.6001 60.272 80.0141 60.72 81.7781 60.72C83.6541 60.72 85.6701 60.132 87.8261 58.956V63.576C86.6781 64.108 85.5861 64.5 84.5501 64.752C83.5141 65.032 82.3801 65.172 81.1481 65.172C77.9841 65.172 75.3801 64.304 73.3361 62.568C71.3201 60.804 69.9901 58.326 69.3461 55.134H65.6921L66.5321 51.9H69.1781V48.75H65.6921L66.5321 45.474H69.3881C70.1721 42.422 71.6281 40.028 73.7561 38.292C75.9121 36.528 78.4461 35.646 81.3581 35.646C84.2701 35.646 86.9021 36.444 89.2541 38.04L87.1121 41.736C86.2161 41.148 85.3341 40.728 84.4661 40.476C83.5981 40.196 82.6321 40.056 81.5681 40.056C80.1121 40.056 78.8661 40.504 77.8301 41.4C76.7941 42.296 76.0241 43.654 75.5201 45.474H85.8101L84.9701 48.75H75.2261V51.9H84.2981L83.5001 55.134H75.3941Z" fill="#FFE80D"/>
<path d="M99.8991 57.5V55.9091L104.821 50.8097C105.347 50.2557 105.78 49.7704 106.121 49.3537C106.466 48.9323 106.724 48.5322 106.895 48.1534C107.065 47.7746 107.151 47.3722 107.151 46.946C107.151 46.4631 107.037 46.0464 106.81 45.696C106.582 45.3409 106.272 45.0687 105.879 44.8793C105.486 44.6851 105.044 44.5881 104.551 44.5881C104.03 44.5881 103.576 44.6946 103.188 44.9077C102.799 45.1207 102.501 45.4214 102.293 45.8097C102.084 46.1979 101.98 46.6525 101.98 47.1733H99.8849C99.8849 46.2879 100.089 45.5137 100.496 44.8509C100.903 44.188 101.462 43.6742 102.172 43.3097C102.882 42.9403 103.689 42.7557 104.594 42.7557C105.508 42.7557 106.313 42.938 107.009 43.3026C107.709 43.6624 108.256 44.1548 108.649 44.7798C109.042 45.4001 109.239 46.1009 109.239 46.8821C109.239 47.4219 109.137 47.9498 108.933 48.4659C108.734 48.982 108.386 49.5573 107.889 50.1918C107.392 50.8215 106.701 51.5862 105.815 52.4858L102.925 55.5114V55.6179H109.473V57.5H99.8991ZM118.439 53.7997L118.425 51.2074H118.794L123.141 46.5909H125.684L120.726 51.8466H120.392L118.439 53.7997ZM116.486 57.5V42.9545H118.61V57.5H116.486ZM123.375 57.5L119.469 52.3153L120.932 50.831L125.982 57.5H123.375ZM134.029 52.9759V46.5909H136.16V57.5H134.072V55.6108H133.958C133.708 56.1932 133.305 56.6785 132.751 57.0668C132.202 57.4503 131.518 57.642 130.699 57.642C129.998 57.642 129.377 57.4882 128.838 57.1804C128.303 56.8679 127.881 56.4062 127.574 55.7955C127.27 55.1847 127.119 54.4295 127.119 53.5298V46.5909H129.243V53.2741C129.243 54.0175 129.449 54.6094 129.86 55.0497C130.272 55.4901 130.807 55.7102 131.466 55.7102C131.863 55.7102 132.259 55.6108 132.652 55.4119C133.049 55.2131 133.378 54.9124 133.639 54.5099C133.904 54.1075 134.034 53.5961 134.029 52.9759ZM145.424 52.9759V46.5909H147.555V57.5H145.467V55.6108H145.353C145.102 56.1932 144.7 56.6785 144.146 57.0668C143.596 57.4503 142.912 57.642 142.093 57.642C141.392 57.642 140.772 57.4882 140.232 57.1804C139.697 56.8679 139.276 56.4062 138.968 55.7955C138.665 55.1847 138.513 54.4295 138.513 53.5298V46.5909H140.637V53.2741C140.637 54.0175 140.843 54.6094 141.255 55.0497C141.667 55.4901 142.202 55.7102 142.86 55.7102C143.258 55.7102 143.653 55.6108 144.046 55.4119C144.444 55.2131 144.773 54.9124 145.033 54.5099C145.299 54.1075 145.429 53.5961 145.424 52.9759ZM153.992 57.7131C153.111 57.7131 152.325 57.4882 151.634 57.0384C150.947 56.5838 150.408 55.9375 150.015 55.0994C149.626 54.2566 149.432 53.2457 149.432 52.0668C149.432 50.8878 149.629 49.8793 150.022 49.0412C150.419 48.2031 150.964 47.5616 151.655 47.1165C152.346 46.6714 153.13 46.4489 154.006 46.4489C154.683 46.4489 155.228 46.5625 155.64 46.7898C156.056 47.0123 156.378 47.2727 156.605 47.571C156.837 47.8693 157.017 48.1321 157.145 48.3594H157.273V42.9545H159.397V57.5H157.323V55.8026H157.145C157.017 56.0346 156.833 56.2997 156.591 56.598C156.355 56.8963 156.028 57.1567 155.611 57.3793C155.194 57.6018 154.655 57.7131 153.992 57.7131ZM154.461 55.902C155.071 55.902 155.587 55.741 156.009 55.419C156.435 55.0923 156.757 54.6402 156.975 54.0625C157.197 53.4848 157.309 52.8125 157.309 52.0455C157.309 51.2879 157.2 50.625 156.982 50.0568C156.764 49.4886 156.444 49.0459 156.023 48.7287C155.602 48.4115 155.081 48.2528 154.461 48.2528C153.821 48.2528 153.289 48.4186 152.863 48.75C152.436 49.0814 152.114 49.5336 151.897 50.1065C151.684 50.6795 151.577 51.3258 151.577 52.0455C151.577 52.7746 151.686 53.4304 151.904 54.0128C152.122 54.5952 152.444 55.0568 152.87 55.3977C153.301 55.7339 153.831 55.902 154.461 55.902Z" fill="white"/>
<rect x="178.5" y="27.5" width="146" height="45" rx="10.5" stroke="#E3000F" stroke-width="3"/>
<path d="M234.436 41.868L234.052 44.892H229.948V58.5H226.012V44.892H221.716V41.868H234.436ZM245.748 51.876C245.748 52.404 245.724 52.86 245.676 53.244H237.78C237.908 54.316 238.212 55.068 238.692 55.5C239.172 55.932 239.836 56.148 240.684 56.148C241.196 56.148 241.692 56.06 242.172 55.884C242.652 55.692 243.172 55.404 243.732 55.02L245.292 57.132C243.804 58.316 242.148 58.908 240.324 58.908C238.26 58.908 236.676 58.3 235.572 57.084C234.468 55.868 233.916 54.236 233.916 52.188C233.916 50.892 234.148 49.732 234.612 48.708C235.076 47.668 235.756 46.852 236.652 46.26C237.548 45.652 238.62 45.348 239.868 45.348C241.708 45.348 243.148 45.924 244.188 47.076C245.228 48.228 245.748 49.828 245.748 51.876ZM242.028 50.796C241.996 48.844 241.308 47.868 239.964 47.868C239.308 47.868 238.796 48.108 238.428 48.588C238.076 49.068 237.86 49.86 237.78 50.964H242.028V50.796ZM251.263 58.908C250.159 58.908 249.295 58.596 248.671 57.972C248.063 57.332 247.759 56.428 247.759 55.26V40.692L251.551 40.284V55.116C251.551 55.644 251.767 55.908 252.199 55.908C252.423 55.908 252.631 55.868 252.823 55.788L253.567 58.476C252.879 58.764 252.111 58.908 251.263 58.908ZM258.388 58.908C257.284 58.908 256.42 58.596 255.796 57.972C255.188 57.332 254.884 56.428 254.884 55.26V40.692L258.676 40.284V55.116C258.676 55.644 258.892 55.908 259.324 55.908C259.548 55.908 259.756 55.868 259.948 55.788L260.692 58.476C260.004 58.764 259.236 58.908 258.388 58.908ZM265.921 45.756V58.5H262.129V45.756H265.921ZM264.001 39.036C264.657 39.036 265.193 39.244 265.609 39.66C266.041 40.06 266.257 40.572 266.257 41.196C266.257 41.82 266.041 42.34 265.609 42.756C265.193 43.156 264.657 43.356 264.001 43.356C263.345 43.356 262.809 43.156 262.393 42.756C261.977 42.34 261.769 41.82 261.769 41.196C261.769 40.572 261.977 40.06 262.393 39.66C262.809 39.244 263.345 39.036 264.001 39.036ZM276.366 45.348C277.47 45.348 278.334 45.684 278.958 46.356C279.582 47.028 279.894 47.972 279.894 49.188V58.5H276.102V49.836C276.102 49.196 275.998 48.756 275.79 48.516C275.598 48.26 275.302 48.132 274.902 48.132C274.134 48.132 273.398 48.684 272.694 49.788V58.5H268.902V45.756H272.214L272.478 47.268C273.022 46.628 273.606 46.148 274.23 45.828C274.87 45.508 275.582 45.348 276.366 45.348Z" fill="#E3000F"/>
</svg>
