<svg width="350" height="100" viewBox="0 0 350 100" fill="none" xmlns="http://www.w3.org/2000/svg">
<rect width="350" height="100" fill="#FFEBC4"/>
<path d="M39.3456 33.432C41.6456 33.432 43.639 33.7693 45.3256 34.444C47.043 35.088 48.6223 36.0847 50.0636 37.434L46.8436 41.16C45.709 40.24 44.5743 39.5653 43.4396 39.136C42.305 38.7067 41.0936 38.492 39.8056 38.492C38.395 38.492 37.2603 38.7987 36.4016 39.412C35.5736 39.9947 35.1596 40.838 35.1596 41.942C35.1596 42.7087 35.3283 43.3373 35.6656 43.828C36.0336 44.3187 36.6623 44.7787 37.5516 45.208C38.441 45.6373 39.775 46.128 41.5536 46.68C44.7123 47.692 47.0736 48.9493 48.6376 50.452C50.2016 51.924 50.9836 54.04 50.9836 56.8C50.9836 58.7627 50.493 60.4953 49.5116 61.998C48.5303 63.47 47.1043 64.6353 45.2336 65.494C43.363 66.322 41.1703 66.736 38.6556 66.736C36.141 66.736 33.9023 66.3373 31.9396 65.54C29.977 64.7427 28.2903 63.654 26.8796 62.274L30.3296 58.456C31.5563 59.4987 32.829 60.296 34.1476 60.848C35.4663 61.3693 36.9076 61.63 38.4716 61.63C40.1276 61.63 41.4463 61.2467 42.4276 60.48C43.4396 59.7133 43.9456 58.64 43.9456 57.26C43.9456 56.4013 43.7616 55.696 43.3936 55.144C43.0563 54.5613 42.4583 54.04 41.5996 53.58C40.741 53.12 39.499 52.6447 37.8736 52.154C34.4083 51.0807 31.9243 49.7927 30.4216 48.29C28.9496 46.7873 28.2136 44.8247 28.2136 42.402C28.2136 40.6233 28.689 39.0593 29.6396 37.71C30.5903 36.33 31.909 35.272 33.5956 34.536C35.2823 33.8 37.199 33.432 39.3456 33.432ZM64.6194 40.884C68.2687 40.884 71.1207 42.034 73.1754 44.334C75.2301 46.6033 76.2574 49.762 76.2574 53.81C76.2574 56.386 75.7821 58.6553 74.8314 60.618C73.9114 62.55 72.5621 64.0527 70.7834 65.126C69.0354 66.1993 66.9654 66.736 64.5734 66.736C60.9241 66.736 58.0567 65.6013 55.9714 63.332C53.9167 61.032 52.8894 57.858 52.8894 53.81C52.8894 51.234 53.3494 48.98 54.2694 47.048C55.2201 45.0853 56.5694 43.5673 58.3174 42.494C60.0961 41.4207 62.1967 40.884 64.6194 40.884ZM64.6194 45.76C62.9634 45.76 61.7214 46.4193 60.8934 47.738C60.0961 49.026 59.6974 51.05 59.6974 53.81C59.6974 56.57 60.0961 58.6093 60.8934 59.928C61.7214 61.216 62.9481 61.86 64.5734 61.86C66.1987 61.86 67.4101 61.216 68.2074 59.928C69.0354 58.6093 69.4494 56.57 69.4494 53.81C69.4494 51.05 69.0507 49.026 68.2534 47.738C67.4561 46.4193 66.2447 45.76 64.6194 45.76ZM67.2414 36.56C66.5974 36.56 66.0301 36.4527 65.5394 36.238C65.0794 36.0233 64.5274 35.7167 63.8834 35.318C63.4847 35.0113 63.1321 34.7967 62.8254 34.674C62.5494 34.5207 62.2581 34.444 61.9514 34.444C61.4607 34.444 61.0314 34.6127 60.6634 34.95C60.2954 35.2873 59.9121 35.8087 59.5134 36.514L56.1554 34.858C56.7687 33.3553 57.5661 32.1287 58.5474 31.178C59.5287 30.2273 60.6327 29.752 61.8594 29.752C62.5647 29.752 63.1627 29.8747 63.6534 30.12C64.1441 30.3347 64.6961 30.6413 65.3094 31.04C65.7081 31.316 66.0454 31.5307 66.3214 31.684C66.5974 31.8067 66.8887 31.868 67.1954 31.868C67.6861 31.868 68.1001 31.7147 68.4374 31.408C68.8054 31.0707 69.2041 30.5493 69.6334 29.844L72.9914 31.5C72.3781 33.064 71.5807 34.306 70.5994 35.226C69.6181 36.1153 68.4987 36.56 67.2414 36.56ZM93.2767 40.884C96.1287 40.884 98.3367 42.0187 99.9007 44.288C101.495 46.5573 102.293 49.7313 102.293 53.81C102.293 56.3247 101.894 58.5633 101.097 60.526C100.33 62.458 99.2107 63.976 97.7387 65.08C96.2974 66.184 94.5954 66.736 92.6327 66.736C89.9647 66.736 87.8334 65.6933 86.2387 63.608L85.8707 66H80.0747V31.914L86.6067 31.178V44.242C87.3734 43.1993 88.3394 42.3867 89.5047 41.804C90.67 41.1907 91.9274 40.884 93.2767 40.884ZM90.7927 61.906C93.9207 61.906 95.4847 59.2073 95.4847 53.81C95.4847 50.8353 95.1014 48.75 94.3347 47.554C93.5987 46.3273 92.5254 45.714 91.1147 45.714C89.3667 45.714 87.864 46.7567 86.6067 48.842V59.284C87.68 61.032 89.0754 61.906 90.7927 61.906ZM118.931 40.93C119.667 40.93 120.48 41.0527 121.369 41.298L120.265 47.6C119.406 47.3853 118.686 47.278 118.103 47.278C116.662 47.278 115.542 47.784 114.745 48.796C113.948 49.808 113.319 51.3413 112.859 53.396V66H106.327V41.62H111.985L112.583 46.358C113.166 44.6407 114.009 43.3067 115.113 42.356C116.248 41.4053 117.52 40.93 118.931 40.93ZM140.473 59.238C140.473 60.1887 140.611 60.894 140.887 61.354C141.163 61.7833 141.623 62.1053 142.267 62.32L140.887 66.644C139.446 66.5213 138.265 66.184 137.345 65.632C136.456 65.08 135.766 64.2213 135.275 63.056C133.68 65.5093 131.242 66.736 127.961 66.736C125.538 66.736 123.606 66.046 122.165 64.666C120.754 63.2553 120.049 61.4307 120.049 59.192C120.049 56.524 121.015 54.4847 122.947 53.074C124.879 51.6633 127.654 50.958 131.273 50.958H134.079V49.762C134.079 48.2593 133.742 47.2167 133.067 46.634C132.392 46.0513 131.273 45.76 129.709 45.76C127.992 45.76 125.845 46.1893 123.269 47.048L121.797 42.678C124.833 41.482 127.838 40.884 130.813 40.884C134.125 40.884 136.563 41.6047 138.127 43.046C139.691 44.4567 140.473 46.5727 140.473 49.394V59.238ZM129.755 62.044C131.595 62.044 133.036 61.1393 134.079 59.33V54.684H131.917C128.39 54.684 126.627 56.0027 126.627 58.64C126.627 59.7133 126.888 60.5567 127.409 61.17C127.961 61.7527 128.743 62.044 129.755 62.044ZM166.963 31.914V66H161.213L160.845 63.01C159.128 65.494 156.797 66.736 153.853 66.736C150.848 66.736 148.548 65.586 146.953 63.286C145.389 60.9553 144.607 57.7967 144.607 53.81C144.607 51.2953 145.006 49.072 145.803 47.14C146.631 45.1773 147.797 43.644 149.299 42.54C150.802 41.436 152.535 40.884 154.497 40.884C156.767 40.884 158.745 41.6967 160.431 43.322V31.178L166.963 31.914ZM155.785 61.86C156.736 61.86 157.579 61.63 158.315 61.17C159.051 60.6793 159.757 59.928 160.431 58.916V48.014C159.787 47.2473 159.128 46.68 158.453 46.312C157.809 45.9133 157.058 45.714 156.199 45.714C154.697 45.714 153.516 46.3733 152.657 47.692C151.829 49.0107 151.415 51.05 151.415 53.81C151.415 56.7233 151.783 58.7933 152.519 60.02C153.286 61.2467 154.375 61.86 155.785 61.86ZM188.389 66.736C186.396 66.736 184.847 66.1687 183.743 65.034C182.639 63.8687 182.087 62.228 182.087 60.112V31.914L188.619 31.178V59.928C188.619 61.0013 189.064 61.538 189.953 61.538C190.444 61.538 190.873 61.446 191.241 61.262L192.575 65.908C191.318 66.46 189.922 66.736 188.389 66.736ZM204.812 40.884C208.461 40.884 211.313 42.034 213.368 44.334C215.422 46.6033 216.45 49.762 216.45 53.81C216.45 56.386 215.974 58.6553 215.024 60.618C214.104 62.55 212.754 64.0527 210.976 65.126C209.228 66.1993 207.158 66.736 204.766 66.736C201.116 66.736 198.249 65.6013 196.164 63.332C194.109 61.032 193.082 57.858 193.082 53.81C193.082 51.234 193.542 48.98 194.462 47.048C195.412 45.0853 196.762 43.5673 198.51 42.494C200.288 41.4207 202.389 40.884 204.812 40.884ZM204.812 45.76C203.156 45.76 201.914 46.4193 201.086 47.738C200.288 49.026 199.89 51.05 199.89 53.81C199.89 56.57 200.288 58.6093 201.086 59.928C201.914 61.216 203.14 61.86 204.766 61.86C206.391 61.86 207.602 61.216 208.4 59.928C209.228 58.6093 209.642 56.57 209.642 53.81C209.642 51.05 209.243 49.026 208.446 47.738C207.648 46.4193 206.437 45.76 204.812 45.76ZM240.875 53.258C240.875 53.5647 240.829 54.408 240.737 55.788H225.511C225.726 57.996 226.324 59.56 227.305 60.48C228.286 61.4 229.62 61.86 231.307 61.86C232.35 61.86 233.331 61.6913 234.251 61.354C235.171 61.0167 236.168 60.48 237.241 59.744L239.955 63.424C237.226 65.632 234.144 66.736 230.709 66.736C226.876 66.736 223.932 65.586 221.877 63.286C219.822 60.986 218.795 57.8733 218.795 53.948C218.795 51.464 219.224 49.2407 220.083 47.278C220.972 45.2847 222.245 43.7207 223.901 42.586C225.588 41.4513 227.581 40.884 229.881 40.884C233.346 40.884 236.045 41.9727 237.977 44.15C239.909 46.3273 240.875 49.3633 240.875 53.258ZM234.389 51.418C234.389 47.37 232.932 45.346 230.019 45.346C228.67 45.346 227.612 45.852 226.845 46.864C226.109 47.8453 225.664 49.4553 225.511 51.694H234.389V51.418ZM264.378 41.62L256.558 66H248.784L240.826 41.62H247.91L252.74 60.894L257.662 41.62H264.378ZM284.079 59.238C284.079 60.1887 284.217 60.894 284.493 61.354C284.769 61.7833 285.229 62.1053 285.873 62.32L284.493 66.644C283.052 66.5213 281.871 66.184 280.951 65.632C280.062 65.08 279.372 64.2213 278.881 63.056C277.287 65.5093 274.849 66.736 271.567 66.736C269.145 66.736 267.213 66.046 265.771 64.666C264.361 63.2553 263.655 61.4307 263.655 59.192C263.655 56.524 264.621 54.4847 266.553 53.074C268.485 51.6633 271.261 50.958 274.879 50.958H277.685V49.762C277.685 48.2593 277.348 47.2167 276.673 46.634C275.999 46.0513 274.879 45.76 273.315 45.76C271.598 45.76 269.451 46.1893 266.875 47.048L265.403 42.678C268.439 41.482 271.445 40.884 274.419 40.884C277.731 40.884 280.169 41.6047 281.733 43.046C283.297 44.4567 284.079 46.5727 284.079 49.394V59.238ZM273.361 62.044C275.201 62.044 276.643 61.1393 277.685 59.33V54.684H275.523C271.997 54.684 270.233 56.0027 270.233 58.64C270.233 59.7133 270.494 60.5567 271.015 61.17C271.567 61.7527 272.349 62.044 273.361 62.044ZM310.57 31.914V66H304.82L304.452 63.01C302.734 65.494 300.404 66.736 297.46 66.736C294.454 66.736 292.154 65.586 290.56 63.286C288.996 60.9553 288.214 57.7967 288.214 53.81C288.214 51.2953 288.612 49.072 289.41 47.14C290.238 45.1773 291.403 43.644 292.906 42.54C294.408 41.436 296.141 40.884 298.104 40.884C300.373 40.884 302.351 41.6967 304.038 43.322V31.178L310.57 31.914ZM299.392 61.86C300.342 61.86 301.186 61.63 301.922 61.17C302.658 60.6793 303.363 59.928 304.038 58.916V48.014C303.394 47.2473 302.734 46.68 302.06 46.312C301.416 45.9133 300.664 45.714 299.806 45.714C298.303 45.714 297.122 46.3733 296.264 47.692C295.436 49.0107 295.022 51.05 295.022 53.81C295.022 56.7233 295.39 58.7933 296.126 60.02C296.892 61.2467 297.981 61.86 299.392 61.86ZM321.593 34.168L320.811 54.546H315.475L314.601 34.168H321.593ZM318.143 58.87C319.247 58.87 320.182 59.2533 320.949 60.02C321.715 60.7867 322.099 61.7067 322.099 62.78C322.099 63.8533 321.715 64.7887 320.949 65.586C320.182 66.3527 319.247 66.736 318.143 66.736C317.069 66.736 316.149 66.3527 315.383 65.586C314.616 64.7887 314.233 63.8533 314.233 62.78C314.233 61.7067 314.616 60.7867 315.383 60.02C316.149 59.2533 317.069 58.87 318.143 58.87Z" fill="#E3000F"/>
</svg>
