<svg width="350" height="100" viewBox="0 0 350 100" fill="none" xmlns="http://www.w3.org/2000/svg">
<rect width="350" height="100" fill="#FFEBC4"/>
<path d="M91.1854 21.1364C91.1854 22.9223 90.8587 24.4579 90.2053 25.7429C89.5519 27.0225 88.6561 28.008 87.5181 28.6996C86.3855 29.3857 85.0978 29.7287 83.6548 29.7287C82.2065 29.7287 80.9132 29.3857 79.7752 28.6996C78.6426 28.008 77.7497 27.0198 77.0962 25.7347C76.4428 24.4497 76.1161 22.9169 76.1161 21.1364C76.1161 19.3504 76.4428 17.8176 77.0962 16.538C77.7497 15.253 78.6426 14.2674 79.7752 13.5813C80.9132 12.8898 82.2065 12.544 83.6548 12.544C85.0978 12.544 86.3855 12.8898 87.5181 13.5813C88.6561 14.2674 89.5519 15.253 90.2053 16.538C90.8587 17.8176 91.1854 19.3504 91.1854 21.1364ZM88.6861 21.1364C88.6861 19.7751 88.4656 18.6289 88.0245 17.6978C87.5889 16.7612 86.9899 16.0534 86.2276 15.5742C85.4708 15.0896 84.6132 14.8473 83.6548 14.8473C82.6911 14.8473 81.8307 15.0896 81.0739 15.5742C80.317 16.0534 79.7181 16.7612 79.277 17.6978C78.8414 18.6289 78.6236 19.7751 78.6236 21.1364C78.6236 22.4976 78.8414 23.6465 79.277 24.5831C79.7181 25.5142 80.317 26.2221 81.0739 26.7067C81.8307 27.1858 82.6911 27.4254 83.6548 27.4254C84.6132 27.4254 85.4708 27.1858 86.2276 26.7067C86.9899 26.2221 87.5889 25.5142 88.0245 24.5831C88.4656 23.6465 88.6861 22.4976 88.6861 21.1364ZM81.1964 11.1147L79.5465 11.0575C79.5465 10.1591 79.7916 9.44034 80.2816 8.90128C80.7717 8.36222 81.3734 8.08996 82.0867 8.08452C82.4243 8.08452 82.7183 8.14169 82.9688 8.25604C83.2192 8.36494 83.4534 8.4929 83.6712 8.63991C83.889 8.78693 84.1095 8.91761 84.3328 9.03196C84.556 9.14086 84.8038 9.19531 85.076 9.19531C85.3864 9.18987 85.6396 9.07008 85.8356 8.83594C86.0371 8.59635 86.1378 8.2996 86.1378 7.94567L87.755 8.05185C87.7495 8.96117 87.5018 9.6772 87.0117 10.1999C86.5271 10.7172 85.9282 10.9759 85.2149 10.9759C84.8283 10.9759 84.507 10.9214 84.2511 10.8125C83.9952 10.6982 83.7692 10.5702 83.5732 10.4286C83.3771 10.2816 83.1757 10.1536 82.9688 10.0447C82.7618 9.9304 82.5141 9.87322 82.2255 9.87322C81.926 9.87322 81.6783 9.99029 81.4823 10.2244C81.2917 10.4586 81.1964 10.7553 81.1964 11.1147ZM96.003 22.0511V29.5H93.5609V12.7727H95.9704V18.9964H96.1256C96.4196 18.3213 96.8688 17.7849 97.4732 17.3874C98.0776 16.9899 98.8672 16.7912 99.8418 16.7912C100.702 16.7912 101.454 16.9682 102.096 17.3221C102.744 17.676 103.245 18.2042 103.599 18.9066C103.958 19.6036 104.138 20.4748 104.138 21.5202V29.5H101.696V21.8143C101.696 20.8941 101.459 20.1808 100.985 19.6744C100.512 19.1625 99.8527 18.9066 99.0087 18.9066C98.4315 18.9066 97.9143 19.0291 97.4569 19.2741C97.0049 19.5192 96.6483 19.8786 96.3869 20.3523C96.131 20.8205 96.003 21.3868 96.003 22.0511ZM112.678 16.9545V18.9148H105.825V16.9545H112.678ZM107.663 13.9489H110.105V25.8164C110.105 26.2901 110.176 26.6468 110.318 26.8864C110.459 27.1205 110.642 27.2811 110.865 27.3683C111.094 27.4499 111.341 27.4908 111.608 27.4908C111.804 27.4908 111.976 27.4772 112.123 27.4499C112.27 27.4227 112.384 27.4009 112.466 27.3846L112.907 29.402C112.765 29.4564 112.564 29.5109 112.302 29.5653C112.041 29.6252 111.714 29.6579 111.322 29.6634C110.68 29.6742 110.081 29.5599 109.525 29.3203C108.97 29.0807 108.521 28.7105 108.178 28.2095C107.835 27.7086 107.663 27.0797 107.663 26.3228V13.9489ZM122.752 24.2972V16.9545H125.202V29.5H122.801V27.3274H122.67C122.381 27.9972 121.918 28.5553 121.281 29.0018C120.65 29.4428 119.863 29.6634 118.921 29.6634C118.115 29.6634 117.402 29.4864 116.781 29.1325C116.166 28.7731 115.681 28.2422 115.327 27.5398C114.979 26.8374 114.804 25.9689 114.804 24.9343V16.9545H117.247V24.6403C117.247 25.4951 117.483 26.1758 117.957 26.6822C118.431 27.1886 119.046 27.4418 119.803 27.4418C120.26 27.4418 120.715 27.3274 121.167 27.0987C121.624 26.87 122.003 26.5243 122.302 26.0614C122.607 25.5986 122.757 25.0105 122.752 24.2972ZM130.35 12.7727V29.5H127.908V12.7727H130.35ZM138.468 29.7532C137.232 29.7532 136.167 29.4891 135.274 28.9609C134.387 28.4273 133.701 27.6786 133.216 26.7148C132.737 25.7456 132.497 24.6103 132.497 23.3089C132.497 22.0239 132.737 20.8913 133.216 19.9112C133.701 18.9311 134.376 18.1661 135.241 17.6161C136.113 17.0662 137.131 16.7912 138.296 16.7912C139.004 16.7912 139.69 16.9083 140.354 17.1424C141.019 17.3765 141.615 17.7441 142.143 18.245C142.671 18.746 143.088 19.3967 143.393 20.1971C143.698 20.9921 143.85 21.9586 143.85 23.0966V23.9624H133.877V22.1328H141.457C141.457 21.4903 141.326 20.9213 141.065 20.4258C140.804 19.9248 140.436 19.5301 139.962 19.2415C139.494 18.9529 138.944 18.8086 138.313 18.8086C137.626 18.8086 137.027 18.9774 136.516 19.315C136.009 19.6471 135.617 20.0827 135.339 20.6218C135.067 21.1554 134.931 21.7353 134.931 22.3615V23.7908C134.931 24.6294 135.078 25.3427 135.372 25.9308C135.672 26.5188 136.088 26.968 136.622 27.2784C137.155 27.5833 137.779 27.7358 138.492 27.7358C138.955 27.7358 139.377 27.6705 139.758 27.5398C140.139 27.4036 140.469 27.2022 140.746 26.9354C141.024 26.6686 141.237 26.3391 141.384 25.9471L143.695 26.3636C143.51 27.0443 143.178 27.6405 142.699 28.1523C142.225 28.6587 141.629 29.0535 140.91 29.3366C140.197 29.6143 139.382 29.7532 138.468 29.7532ZM148.427 22.0511V29.5H145.985V12.7727H148.394V18.9964H148.549C148.843 18.3213 149.293 17.7849 149.897 17.3874C150.501 16.9899 151.291 16.7912 152.266 16.7912C153.126 16.7912 153.877 16.9682 154.52 17.3221C155.168 17.676 155.669 18.2042 156.023 18.9066C156.382 19.6036 156.562 20.4748 156.562 21.5202V29.5H154.12V21.8143C154.12 20.8941 153.883 20.1808 153.409 19.6744C152.935 19.1625 152.277 18.9066 151.433 18.9066C150.855 18.9066 150.338 19.0291 149.881 19.2741C149.429 19.5192 149.072 19.8786 148.811 20.3523C148.555 20.8205 148.427 21.3868 148.427 22.0511ZM165.102 16.9545V18.9148H158.249V16.9545H165.102ZM160.087 13.9489H162.529V25.8164C162.529 26.2901 162.6 26.6468 162.741 26.8864C162.883 27.1205 163.065 27.2811 163.289 27.3683C163.517 27.4499 163.765 27.4908 164.032 27.4908C164.228 27.4908 164.399 27.4772 164.546 27.4499C164.693 27.4227 164.808 27.4009 164.89 27.3846L165.331 29.402C165.189 29.4564 164.988 29.5109 164.726 29.5653C164.465 29.6252 164.138 29.6579 163.746 29.6634C163.104 29.6742 162.505 29.5599 161.949 29.3203C161.394 29.0807 160.945 28.7105 160.602 28.2095C160.258 27.7086 160.087 27.0797 160.087 26.3228V13.9489ZM172.936 29.5V12.7727H175.46V20.7607H175.664L182.68 12.7727H185.857L179.111 20.3033L185.882 29.5H182.844L177.437 22.0266L175.46 24.2972V29.5H172.936ZM188.225 29.5V16.9545H190.667V29.5H188.225ZM189.458 15.0188C189.033 15.0188 188.669 14.8772 188.364 14.5941C188.064 14.3055 187.914 13.9625 187.914 13.565C187.914 13.162 188.064 12.819 188.364 12.5359C188.669 12.2473 189.033 12.103 189.458 12.103C189.883 12.103 190.245 12.2473 190.544 12.5359C190.849 12.819 191.002 13.162 191.002 13.565C191.002 13.9625 190.849 14.3055 190.544 14.5941C190.245 14.8772 189.883 15.0188 189.458 15.0188ZM193.377 29.5V16.9545H195.738V18.9474H195.868C196.097 18.2723 196.5 17.7414 197.077 17.3548C197.66 16.9627 198.319 16.7667 199.054 16.7667C199.206 16.7667 199.386 16.7721 199.593 16.783C199.805 16.7939 199.971 16.8075 200.091 16.8239V19.1598C199.993 19.1326 199.819 19.1026 199.568 19.07C199.318 19.0318 199.067 19.0128 198.817 19.0128C198.24 19.0128 197.725 19.1353 197.273 19.3803C196.827 19.6199 196.473 19.9548 196.212 20.3849C195.95 20.8097 195.819 21.2943 195.819 21.8388V29.5H193.377ZM201.629 16.9545H204.072V30.3168C204.072 31.1553 203.919 31.8632 203.614 32.4403C203.315 33.0175 202.868 33.4558 202.275 33.7553C201.687 34.0548 200.96 34.2045 200.094 34.2045C200.007 34.2045 199.925 34.2045 199.849 34.2045C199.767 34.2045 199.683 34.2018 199.596 34.1964V32.0973C199.672 32.0973 199.74 32.0973 199.8 32.0973C199.854 32.0973 199.917 32.0973 199.988 32.0973C200.565 32.0973 200.982 31.9421 201.237 31.6317C201.499 31.3268 201.629 30.883 201.629 30.3004V16.9545ZM202.838 15.0188C202.414 15.0188 202.049 14.8772 201.744 14.5941C201.444 14.3055 201.295 13.9625 201.295 13.565C201.295 13.162 201.444 12.819 201.744 12.5359C202.049 12.2473 202.414 12.103 202.838 12.103C203.263 12.103 203.625 12.2473 203.925 12.5359C204.23 12.819 204.382 13.162 204.382 13.565C204.382 13.9625 204.23 14.3055 203.925 14.5941C203.625 14.8772 203.263 15.0188 202.838 15.0188ZM210.433 29.7777C209.638 29.7777 208.919 29.6307 208.277 29.3366C207.634 29.0372 207.125 28.6043 206.749 28.038C206.379 27.4717 206.194 26.7775 206.194 25.9553C206.194 25.2474 206.33 24.6648 206.602 24.2074C206.875 23.75 207.242 23.3879 207.705 23.1211C208.168 22.8543 208.685 22.6528 209.257 22.5167C209.829 22.3806 210.411 22.2771 211.005 22.2063C211.756 22.1192 212.366 22.0484 212.834 21.994C213.302 21.9341 213.643 21.8388 213.855 21.7081C214.068 21.5774 214.174 21.3651 214.174 21.071V21.0138C214.174 20.3005 213.972 19.7479 213.569 19.3558C213.172 18.9638 212.578 18.7678 211.789 18.7678C210.967 18.7678 210.319 18.9502 209.845 19.315C209.377 19.6744 209.053 20.0746 208.873 20.5156L206.578 19.9929C206.85 19.2306 207.248 18.6153 207.77 18.147C208.298 17.6733 208.906 17.3303 209.592 17.1179C210.278 16.9001 210.999 16.7912 211.756 16.7912C212.257 16.7912 212.788 16.8511 213.349 16.9709C213.915 17.0852 214.443 17.2976 214.933 17.608C215.429 17.9183 215.834 18.3621 216.15 18.9393C216.466 19.511 216.624 20.2543 216.624 21.169V29.5H214.239V27.7848H214.141C213.983 28.1006 213.746 28.411 213.43 28.7159C213.115 29.0208 212.709 29.274 212.213 29.4755C211.718 29.677 211.124 29.7777 210.433 29.7777ZM210.964 27.8175C211.639 27.8175 212.216 27.6841 212.695 27.4173C213.18 27.1504 213.548 26.802 213.798 26.3718C214.054 25.9362 214.182 25.4706 214.182 24.9751V23.358C214.095 23.4451 213.926 23.5268 213.675 23.603C213.43 23.6738 213.15 23.7364 212.834 23.7908C212.518 23.8398 212.211 23.8861 211.911 23.9297C211.612 23.9678 211.361 24.0005 211.16 24.0277C210.686 24.0876 210.253 24.1883 209.861 24.3299C209.475 24.4715 209.164 24.6757 208.93 24.9425C208.701 25.2038 208.587 25.5523 208.587 25.9879C208.587 26.5923 208.81 27.0497 209.257 27.3601C209.703 27.665 210.272 27.8175 210.964 27.8175ZM228.703 20.0174L226.489 20.4094C226.397 20.1263 226.25 19.8568 226.048 19.6009C225.852 19.3449 225.585 19.1353 225.248 18.9719C224.91 18.8086 224.488 18.7269 223.982 18.7269C223.29 18.7269 222.713 18.8821 222.25 19.1925C221.787 19.4974 221.556 19.8922 221.556 20.3768C221.556 20.796 221.711 21.1336 222.022 21.3896C222.332 21.6455 222.833 21.8551 223.524 22.0185L225.517 22.4759C226.672 22.7427 227.532 23.1538 228.098 23.7092C228.665 24.2646 228.948 24.986 228.948 25.8736C228.948 26.625 228.73 27.2947 228.294 27.8828C227.864 28.4654 227.262 28.9228 226.489 29.255C225.721 29.5871 224.831 29.7532 223.818 29.7532C222.414 29.7532 221.267 29.4537 220.38 28.8548C219.492 28.2504 218.948 27.3928 218.746 26.282L221.107 25.9226C221.254 26.5379 221.556 27.0034 222.013 27.3192C222.471 27.6296 223.067 27.7848 223.802 27.7848C224.603 27.7848 225.242 27.6187 225.721 27.2866C226.201 26.949 226.44 26.5379 226.44 26.0533C226.44 25.6612 226.293 25.3318 225.999 25.065C225.711 24.7982 225.267 24.5967 224.668 24.4606L222.544 23.995C221.374 23.7282 220.508 23.3035 219.947 22.7209C219.392 22.1383 219.114 21.4004 219.114 20.5075C219.114 19.7669 219.321 19.119 219.735 18.5636C220.148 18.0082 220.72 17.5753 221.45 17.2649C222.179 16.9491 223.015 16.7912 223.957 16.7912C225.313 16.7912 226.38 17.0852 227.159 17.6733C227.938 18.2559 228.452 19.0373 228.703 20.0174ZM236.914 16.9545V18.9148H230.061V16.9545H236.914ZM231.899 13.9489H234.341V25.8164C234.341 26.2901 234.412 26.6468 234.554 26.8864C234.695 27.1205 234.878 27.2811 235.101 27.3683C235.329 27.4499 235.577 27.4908 235.844 27.4908C236.04 27.4908 236.212 27.4772 236.359 27.4499C236.506 27.4227 236.62 27.4009 236.702 27.3846L237.143 29.402C237.001 29.4564 236.8 29.5109 236.538 29.5653C236.277 29.6252 235.95 29.6579 235.558 29.6634C234.916 29.6742 234.317 29.5599 233.761 29.3203C233.206 29.0807 232.757 28.7105 232.414 28.2095C232.071 27.7086 231.899 27.0797 231.899 26.3228V13.9489ZM246.988 24.2972V16.9545H249.438V29.5H247.037V27.3274H246.906C246.617 27.9972 246.154 28.5553 245.517 29.0018C244.886 29.4428 244.099 29.6634 243.157 29.6634C242.351 29.6634 241.638 29.4864 241.017 29.1325C240.402 28.7731 239.917 28.2422 239.563 27.5398C239.215 26.8374 239.04 25.9689 239.04 24.9343V16.9545H241.483V24.6403C241.483 25.4951 241.719 26.1758 242.193 26.6822C242.667 27.1886 243.282 27.4418 244.039 27.4418C244.496 27.4418 244.951 27.3274 245.403 27.0987C245.86 26.87 246.239 26.5243 246.538 26.0614C246.843 25.5986 246.993 25.0105 246.988 24.2972ZM261.545 20.0174L259.332 20.4094C259.239 20.1263 259.092 19.8568 258.891 19.6009C258.695 19.3449 258.428 19.1353 258.09 18.9719C257.753 18.8086 257.331 18.7269 256.824 18.7269C256.133 18.7269 255.555 18.8821 255.093 19.1925C254.63 19.4974 254.398 19.8922 254.398 20.3768C254.398 20.796 254.554 21.1336 254.864 21.3896C255.174 21.6455 255.675 21.8551 256.367 22.0185L258.36 22.4759C259.514 22.7427 260.374 23.1538 260.941 23.7092C261.507 24.2646 261.79 24.986 261.79 25.8736C261.79 26.625 261.572 27.2947 261.137 27.8828C260.707 28.4654 260.105 28.9228 259.332 29.255C258.564 29.5871 257.674 29.7532 256.661 29.7532C255.256 29.7532 254.11 29.4537 253.222 28.8548C252.335 28.2504 251.79 27.3928 251.589 26.282L253.949 25.9226C254.096 26.5379 254.398 27.0034 254.856 27.3192C255.313 27.6296 255.909 27.7848 256.644 27.7848C257.445 27.7848 258.085 27.6187 258.564 27.2866C259.043 26.949 259.283 26.5379 259.283 26.0533C259.283 25.6612 259.136 25.3318 258.842 25.065C258.553 24.7982 258.109 24.5967 257.51 24.4606L255.387 23.995C254.216 23.7282 253.35 23.3035 252.789 22.7209C252.234 22.1383 251.956 21.4004 251.956 20.5075C251.956 19.7669 252.163 19.119 252.577 18.5636C252.991 18.0082 253.563 17.5753 254.292 17.2649C255.022 16.9491 255.858 16.7912 256.8 16.7912C258.155 16.7912 259.223 17.0852 260.001 17.6733C260.78 18.2559 261.295 19.0373 261.545 20.0174ZM269.307 29.7532C268.071 29.7532 267.007 29.4891 266.114 28.9609C265.226 28.4273 264.54 27.6786 264.055 26.7148C263.576 25.7456 263.337 24.6103 263.337 23.3089C263.337 22.0239 263.576 20.8913 264.055 19.9112C264.54 18.9311 265.215 18.1661 266.081 17.6161C266.952 17.0662 267.97 16.7912 269.136 16.7912C269.843 16.7912 270.53 16.9083 271.194 17.1424C271.858 17.3765 272.454 17.7441 272.983 18.245C273.511 18.746 273.927 19.3967 274.232 20.1971C274.537 20.9921 274.69 21.9586 274.69 23.0966V23.9624H264.717V22.1328H272.296C272.296 21.4903 272.166 20.9213 271.904 20.4258C271.643 19.9248 271.276 19.5301 270.802 19.2415C270.334 18.9529 269.784 18.8086 269.152 18.8086C268.466 18.8086 267.867 18.9774 267.355 19.315C266.849 19.6471 266.457 20.0827 266.179 20.6218C265.907 21.1554 265.771 21.7353 265.771 22.3615V23.7908C265.771 24.6294 265.918 25.3427 266.212 25.9308C266.511 26.5188 266.928 26.968 267.461 27.2784C267.995 27.5833 268.618 27.7358 269.332 27.7358C269.794 27.7358 270.216 27.6705 270.598 27.5398C270.979 27.4036 271.308 27.2022 271.586 26.9354C271.864 26.6686 272.076 26.3391 272.223 25.9471L274.534 26.3636C274.349 27.0443 274.017 27.6405 273.538 28.1523C273.064 28.6587 272.468 29.0535 271.749 29.3366C271.036 29.6143 270.222 29.7532 269.307 29.7532ZM53.3893 58.745C52.3766 58.745 51.4727 58.4864 50.6777 57.9691C49.8882 57.4464 49.2674 56.7031 48.8155 55.7393C48.369 54.7701 48.1457 53.6076 48.1457 52.2518C48.1457 50.896 48.3717 49.7362 48.8236 48.7724C49.281 47.8086 49.9072 47.0708 50.7022 46.5589C51.4972 46.0471 52.3983 45.7912 53.4057 45.7912C54.1843 45.7912 54.8105 45.9219 55.2842 46.1832C55.7634 46.4392 56.1337 46.7386 56.395 47.0817C56.6618 47.4247 56.8687 47.7269 57.0158 47.9883H57.1628V41.7727H59.6049V58.5H57.2199V56.5479H57.0158C56.8687 56.8147 56.6564 57.1197 56.3787 57.4627C56.1064 57.8058 55.7307 58.1052 55.2516 58.3612C54.7724 58.6171 54.1516 58.745 53.3893 58.745ZM53.9284 56.6623C54.6308 56.6623 55.2243 56.4772 55.7089 56.1069C56.199 55.7312 56.5693 55.2112 56.8197 54.5469C57.0757 53.8826 57.2036 53.1094 57.2036 52.2273C57.2036 51.3561 57.0784 50.5937 56.8279 49.9403C56.5774 49.2869 56.2099 48.7778 55.7253 48.413C55.2407 48.0482 54.6417 47.8658 53.9284 47.8658C53.1933 47.8658 52.5807 48.0563 52.0907 48.4375C51.6006 48.8187 51.2304 49.3387 50.9799 49.9975C50.7349 50.6564 50.6123 51.3996 50.6123 52.2273C50.6123 53.0658 50.7376 53.82 50.9881 54.4897C51.2385 55.1594 51.6088 55.6903 52.0989 56.0824C52.5944 56.469 53.2042 56.6623 53.9284 56.6623ZM62.5154 58.5V45.9545H64.9575V58.5H62.5154ZM63.7487 44.0188C63.324 44.0188 62.9592 43.8772 62.6543 43.5941C62.3548 43.3055 62.2051 42.9625 62.2051 42.565C62.2051 42.162 62.3548 41.819 62.6543 41.5359C62.9592 41.2473 63.324 41.103 63.7487 41.103C64.1734 41.103 64.5355 41.2473 64.835 41.5359C65.1399 41.819 65.2924 42.162 65.2924 42.565C65.2924 42.9625 65.1399 43.3055 64.835 43.5941C64.5355 43.8772 64.1734 44.0188 63.7487 44.0188ZM72.9279 63.4659C71.9315 63.4659 71.0739 63.3352 70.3551 63.0739C69.6418 62.8125 69.0592 62.4667 68.6072 62.0366C68.1553 61.6064 67.8177 61.1354 67.5944 60.6236L69.6935 59.7578C69.8405 59.9974 70.0366 60.2506 70.2816 60.5174C70.5321 60.7897 70.8697 61.0211 71.2944 61.2116C71.7245 61.4022 72.2772 61.4975 72.9524 61.4975C73.8781 61.4975 74.6431 61.2715 75.2475 60.8196C75.8519 60.3731 76.1541 59.6598 76.1541 58.6797V56.2131H75.9989C75.8519 56.4799 75.6395 56.7766 75.3619 57.1033C75.0896 57.43 74.7139 57.7132 74.2347 57.9528C73.7556 58.1924 73.1321 58.3121 72.3643 58.3121C71.3733 58.3121 70.4803 58.0807 69.6854 57.6179C68.8958 57.1496 68.2696 56.4608 67.8068 55.5515C67.3494 54.6367 67.1207 53.5123 67.1207 52.1783C67.1207 50.8442 67.3467 49.7008 67.7986 48.7479C68.256 47.795 68.8822 47.0653 69.6772 46.5589C70.4722 46.0471 71.3733 45.7912 72.3807 45.7912C73.1593 45.7912 73.7882 45.9219 74.2674 46.1832C74.7466 46.4392 75.1195 46.7386 75.3864 47.0817C75.6586 47.4247 75.8682 47.7269 76.0153 47.9883H76.1949V45.9545H78.5881V58.7777C78.5881 59.8558 78.3376 60.7406 77.8366 61.4322C77.3357 62.1237 76.6578 62.6355 75.8029 62.9677C74.9535 63.2998 73.9951 63.4659 72.9279 63.4659ZM72.9034 56.2866C73.6058 56.2866 74.1993 56.1232 74.6839 55.7965C75.174 55.4644 75.5443 54.9906 75.7947 54.3754C76.0507 53.7546 76.1786 53.0114 76.1786 52.1456C76.1786 51.3016 76.0534 50.5584 75.8029 49.9158C75.5524 49.2733 75.1849 48.7724 74.7003 48.413C74.2157 48.0482 73.6167 47.8658 72.9034 47.8658C72.1683 47.8658 71.5557 48.0563 71.0657 48.4375C70.5756 48.8132 70.2054 49.325 69.9549 49.973C69.7099 50.621 69.5873 51.3452 69.5873 52.1456C69.5873 52.9678 69.7126 53.6893 69.9631 54.31C70.2135 54.9308 70.5838 55.4154 71.0739 55.7638C71.5694 56.1123 72.1792 56.2866 72.9034 56.2866ZM81.2883 58.5V45.9545H83.7304V58.5H81.2883ZM82.5216 44.0188C82.0969 44.0188 81.732 43.8772 81.4271 43.5941C81.1276 43.3055 80.9779 42.9625 80.9779 42.565C80.9779 42.162 81.1276 41.819 81.4271 41.5359C81.732 41.2473 82.0969 41.103 82.5216 41.103C82.9463 41.103 83.3084 41.2473 83.6079 41.5359C83.9128 41.819 84.0653 42.162 84.0653 42.565C84.0653 42.9625 83.9128 43.3055 83.6079 43.5941C83.3084 43.8772 82.9463 44.0188 82.5216 44.0188ZM86.4408 63.2045V45.9545H88.8258V47.9883H89.0299C89.1715 47.7269 89.3757 47.4247 89.6425 47.0817C89.9093 46.7386 90.2796 46.4392 90.7533 46.1832C91.227 45.9219 91.8532 45.7912 92.6319 45.7912C93.6446 45.7912 94.5485 46.0471 95.3435 46.5589C96.1385 47.0708 96.762 47.8086 97.2139 48.7724C97.6713 49.7362 97.9 50.896 97.9 52.2518C97.9 53.6076 97.674 54.7701 97.2221 55.7393C96.7701 56.7031 96.1494 57.4464 95.3598 57.9691C94.5703 58.4864 93.6692 58.745 92.6564 58.745C91.8941 58.745 91.2706 58.6171 90.786 58.3612C90.3068 58.1052 89.9311 57.8058 89.6589 57.4627C89.3866 57.1197 89.177 56.8147 89.0299 56.5479H88.8829V63.2045H86.4408ZM88.8339 52.2273C88.8339 53.1094 88.9619 53.8826 89.2178 54.5469C89.4737 55.2112 89.844 55.7312 90.3286 56.1069C90.8132 56.4772 91.4067 56.6623 92.1091 56.6623C92.8388 56.6623 93.4486 56.469 93.9387 56.0824C94.4287 55.6903 94.799 55.1594 95.0495 54.4897C95.3054 53.82 95.4334 53.0658 95.4334 52.2273C95.4334 51.3996 95.3081 50.6564 95.0576 49.9975C94.8126 49.3387 94.4424 48.8187 93.9468 48.4375C93.4568 48.0563 92.8442 47.8658 92.1091 47.8658C91.4013 47.8658 90.8023 48.0482 90.3123 48.413C89.8276 48.7778 89.4601 49.2869 89.2096 49.9403C88.9592 50.5937 88.8339 51.3561 88.8339 52.2273ZM103.712 58.7777C102.917 58.7777 102.198 58.6307 101.556 58.3366C100.913 58.0372 100.404 57.6043 100.028 57.038C99.6582 56.4717 99.4731 55.7775 99.4731 54.9553C99.4731 54.2474 99.6092 53.6648 99.8814 53.2074C100.154 52.75 100.521 52.3879 100.984 52.1211C101.447 51.8543 101.964 51.6528 102.536 51.5167C103.108 51.3806 103.69 51.2771 104.284 51.2063C105.035 51.1192 105.645 51.0484 106.113 50.994C106.582 50.9341 106.922 50.8388 107.134 50.7081C107.347 50.5774 107.453 50.3651 107.453 50.071V50.0138C107.453 49.3005 107.251 48.7479 106.848 48.3558C106.451 47.9638 105.857 47.7678 105.068 47.7678C104.246 47.7678 103.598 47.9502 103.124 48.315C102.656 48.6744 102.332 49.0746 102.152 49.5156L99.8569 48.9929C100.129 48.2306 100.527 47.6153 101.049 47.147C101.578 46.6733 102.185 46.3303 102.871 46.1179C103.557 45.9001 104.278 45.7912 105.035 45.7912C105.536 45.7912 106.067 45.8511 106.628 45.9709C107.194 46.0852 107.722 46.2976 108.212 46.608C108.708 46.9183 109.114 47.3621 109.429 47.9393C109.745 48.511 109.903 49.2543 109.903 50.169V58.5H107.518V56.7848H107.42C107.262 57.1006 107.025 57.411 106.71 57.7159C106.394 58.0208 105.988 58.274 105.493 58.4755C104.997 58.677 104.404 58.7777 103.712 58.7777ZM104.243 56.8175C104.918 56.8175 105.495 56.6841 105.974 56.4173C106.459 56.1504 106.827 55.802 107.077 55.3718C107.333 54.9362 107.461 54.4706 107.461 53.9751V52.358C107.374 52.4451 107.205 52.5268 106.955 52.603C106.71 52.6738 106.429 52.7364 106.113 52.7908C105.798 52.8398 105.49 52.8861 105.19 52.9297C104.891 52.9678 104.64 53.0005 104.439 53.0277C103.965 53.0876 103.532 53.1883 103.14 53.3299C102.754 53.4715 102.443 53.6757 102.209 53.9425C101.981 54.2038 101.866 54.5523 101.866 54.9879C101.866 55.5923 102.089 56.0497 102.536 56.3601C102.982 56.665 103.551 56.8175 104.243 56.8175ZM114.827 54.2447L114.811 51.2635H115.235L120.234 45.9545H123.158L117.457 51.9986H117.073L114.827 54.2447ZM112.581 58.5V41.7727H115.023V58.5H112.581ZM120.503 58.5L116.011 52.5376L117.694 50.8306L123.501 58.5H120.503ZM129.699 58.7532C128.463 58.7532 127.398 58.4891 126.505 57.9609C125.618 57.4273 124.932 56.6786 124.447 55.7148C123.968 54.7456 123.728 53.6103 123.728 52.3089C123.728 51.0239 123.968 49.8913 124.447 48.9112C124.932 47.9311 125.607 47.1661 126.473 46.6161C127.344 46.0662 128.362 45.7912 129.527 45.7912C130.235 45.7912 130.921 45.9083 131.586 46.1424C132.25 46.3765 132.846 46.7441 133.374 47.245C133.903 47.746 134.319 48.3967 134.624 49.1971C134.929 49.9921 135.081 50.9586 135.081 52.0966V52.9624H125.109V51.1328H132.688C132.688 50.4903 132.558 49.9213 132.296 49.4258C132.035 48.9248 131.667 48.5301 131.194 48.2415C130.725 47.9529 130.175 47.8086 129.544 47.8086C128.858 47.8086 128.259 47.9774 127.747 48.315C127.24 48.6471 126.848 49.0827 126.571 49.6218C126.298 50.1554 126.162 50.7353 126.162 51.3615V52.7908C126.162 53.6294 126.309 54.3427 126.603 54.9308C126.903 55.5188 127.319 55.968 127.853 56.2784C128.387 56.5833 129.01 56.7358 129.723 56.7358C130.186 56.7358 130.608 56.6705 130.989 56.5398C131.371 56.4036 131.7 56.2022 131.978 55.9354C132.255 55.6686 132.468 55.3391 132.615 54.9471L134.926 55.3636C134.741 56.0443 134.409 56.6405 133.93 57.1523C133.456 57.6587 132.86 58.0535 132.141 58.3366C131.428 58.6143 130.614 58.7532 129.699 58.7532ZM143.072 45.9545V47.9148H136.22V45.9545H143.072ZM138.057 42.9489H140.499V54.8164C140.499 55.2901 140.57 55.6468 140.712 55.8864C140.853 56.1205 141.036 56.2811 141.259 56.3683C141.488 56.4499 141.735 56.4908 142.002 56.4908C142.198 56.4908 142.37 56.4772 142.517 56.4499C142.664 56.4227 142.778 56.4009 142.86 56.3846L143.301 58.402C143.159 58.4564 142.958 58.5109 142.696 58.5653C142.435 58.6252 142.108 58.6579 141.716 58.6634C141.074 58.6742 140.475 58.5599 139.919 58.3203C139.364 58.0807 138.915 57.7105 138.572 57.2095C138.229 56.7086 138.057 56.0797 138.057 55.3228V42.9489ZM145.199 58.5V45.9545H147.641V58.5H145.199ZM146.432 44.0188C146.007 44.0188 145.642 43.8772 145.337 43.5941C145.038 43.3055 144.888 42.9625 144.888 42.565C144.888 42.162 145.038 41.819 145.337 41.5359C145.642 41.2473 146.007 41.103 146.432 41.103C146.857 41.103 147.219 41.2473 147.518 41.5359C147.823 41.819 147.976 42.162 147.976 42.565C147.976 42.9625 147.823 43.3055 147.518 43.5941C147.219 43.8772 146.857 44.0188 146.432 44.0188ZM158.305 41.7727V58.5H155.863V41.7727H158.305ZM161.016 58.5V45.9545H163.458V58.5H161.016ZM162.249 44.0188C161.824 44.0188 161.459 43.8772 161.154 43.5941C160.855 43.3055 160.705 42.9625 160.705 42.565C160.705 42.162 160.855 41.819 161.154 41.5359C161.459 41.2473 161.824 41.103 162.249 41.103C162.674 41.103 163.036 41.2473 163.335 41.5359C163.64 41.819 163.793 42.162 163.793 42.565C163.793 42.9625 163.64 43.3055 163.335 43.5941C163.036 43.8772 162.674 44.0188 162.249 44.0188ZM171.428 63.4659C170.432 63.4659 169.574 63.3352 168.855 63.0739C168.142 62.8125 167.559 62.4667 167.107 62.0366C166.655 61.6064 166.318 61.1354 166.095 60.6236L168.194 59.7578C168.341 59.9974 168.537 60.2506 168.782 60.5174C169.032 60.7897 169.37 61.0211 169.795 61.2116C170.225 61.4022 170.777 61.4975 171.453 61.4975C172.378 61.4975 173.143 61.2715 173.748 60.8196C174.352 60.3731 174.654 59.6598 174.654 58.6797V56.2131H174.499C174.352 56.4799 174.14 56.7766 173.862 57.1033C173.59 57.43 173.214 57.7132 172.735 57.9528C172.256 58.1924 171.632 58.3121 170.865 58.3121C169.874 58.3121 168.981 58.0807 168.186 57.6179C167.396 57.1496 166.77 56.4608 166.307 55.5515C165.85 54.6367 165.621 53.5123 165.621 52.1783C165.621 50.8442 165.847 49.7008 166.299 48.7479C166.756 47.795 167.382 47.0653 168.177 46.5589C168.972 46.0471 169.874 45.7912 170.881 45.7912C171.66 45.7912 172.288 45.9219 172.768 46.1832C173.247 46.4392 173.62 46.7386 173.887 47.0817C174.159 47.4247 174.368 47.7269 174.515 47.9883H174.695V45.9545H177.088V58.7777C177.088 59.8558 176.838 60.7406 176.337 61.4322C175.836 62.1237 175.158 62.6355 174.303 62.9677C173.454 63.2998 172.495 63.4659 171.428 63.4659ZM171.404 56.2866C172.106 56.2866 172.7 56.1232 173.184 55.7965C173.674 55.4644 174.044 54.9906 174.295 54.3754C174.551 53.7546 174.679 53.0114 174.679 52.1456C174.679 51.3016 174.554 50.5584 174.303 49.9158C174.053 49.2733 173.685 48.7724 173.2 48.413C172.716 48.0482 172.117 47.8658 171.404 47.8658C170.669 47.8658 170.056 48.0563 169.566 48.4375C169.076 48.8132 168.706 49.325 168.455 49.973C168.21 50.621 168.088 51.3452 168.088 52.1456C168.088 52.9678 168.213 53.6893 168.463 54.31C168.714 54.9308 169.084 55.4154 169.574 55.7638C170.07 56.1123 170.679 56.2866 171.404 56.2866ZM179.788 58.5V45.9545H182.231V58.5H179.788ZM181.022 44.0188C180.597 44.0188 180.232 43.8772 179.927 43.5941C179.628 43.3055 179.478 42.9625 179.478 42.565C179.478 42.162 179.628 41.819 179.927 41.5359C180.232 41.2473 180.597 41.103 181.022 41.103C181.446 41.103 181.809 41.2473 182.108 41.5359C182.413 41.819 182.565 42.162 182.565 42.565C182.565 42.9625 182.413 43.3055 182.108 43.5941C181.809 43.8772 181.446 44.0188 181.022 44.0188ZM184.941 63.2045V45.9545H187.326V47.9883H187.53C187.672 47.7269 187.876 47.4247 188.143 47.0817C188.41 46.7386 188.78 46.4392 189.254 46.1832C189.727 45.9219 190.353 45.7912 191.132 45.7912C192.145 45.7912 193.049 46.0471 193.844 46.5589C194.639 47.0708 195.262 47.8086 195.714 48.7724C196.171 49.7362 196.4 50.896 196.4 52.2518C196.4 53.6076 196.174 54.7701 195.722 55.7393C195.27 56.7031 194.65 57.4464 193.86 57.9691C193.071 58.4864 192.169 58.745 191.157 58.745C190.394 58.745 189.771 58.6171 189.286 58.3612C188.807 58.1052 188.431 57.8058 188.159 57.4627C187.887 57.1197 187.677 56.8147 187.53 56.5479H187.383V63.2045H184.941ZM187.334 52.2273C187.334 53.1094 187.462 53.8826 187.718 54.5469C187.974 55.2112 188.344 55.7312 188.829 56.1069C189.313 56.4772 189.907 56.6623 190.609 56.6623C191.339 56.6623 191.949 56.469 192.439 56.0824C192.929 55.6903 193.299 55.1594 193.55 54.4897C193.806 53.82 193.934 53.0658 193.934 52.2273C193.934 51.3996 193.808 50.6564 193.558 49.9975C193.313 49.3387 192.943 48.8187 192.447 48.4375C191.957 48.0563 191.344 47.8658 190.609 47.8658C189.901 47.8658 189.303 48.0482 188.812 48.413C188.328 48.7778 187.96 49.2869 187.71 49.9403C187.459 50.5937 187.334 51.3561 187.334 52.2273ZM202.212 58.7777C201.417 58.7777 200.699 58.6307 200.056 58.3366C199.413 58.0372 198.904 57.6043 198.529 57.038C198.158 56.4717 197.973 55.7775 197.973 54.9553C197.973 54.2474 198.109 53.6648 198.382 53.2074C198.654 52.75 199.021 52.3879 199.484 52.1211C199.947 51.8543 200.464 51.6528 201.036 51.5167C201.608 51.3806 202.19 51.2771 202.784 51.2063C203.535 51.1192 204.145 51.0484 204.614 50.994C205.082 50.9341 205.422 50.8388 205.634 50.7081C205.847 50.5774 205.953 50.3651 205.953 50.071V50.0138C205.953 49.3005 205.752 48.7479 205.349 48.3558C204.951 47.9638 204.358 47.7678 203.568 47.7678C202.746 47.7678 202.098 47.9502 201.624 48.315C201.156 48.6744 200.832 49.0746 200.652 49.5156L198.357 48.9929C198.629 48.2306 199.027 47.6153 199.55 47.147C200.078 46.6733 200.685 46.3303 201.371 46.1179C202.057 45.9001 202.779 45.7912 203.535 45.7912C204.036 45.7912 204.567 45.8511 205.128 45.9709C205.694 46.0852 206.223 46.2976 206.713 46.608C207.208 46.9183 207.614 47.3621 207.93 47.9393C208.245 48.511 208.403 49.2543 208.403 50.169V58.5H206.018V56.7848H205.92C205.762 57.1006 205.526 57.411 205.21 57.7159C204.894 58.0208 204.488 58.274 203.993 58.4755C203.497 58.677 202.904 58.7777 202.212 58.7777ZM202.743 56.8175C203.418 56.8175 203.996 56.6841 204.475 56.4173C204.959 56.1504 205.327 55.802 205.577 55.3718C205.833 54.9362 205.961 54.4706 205.961 53.9751V52.358C205.874 52.4451 205.705 52.5268 205.455 52.603C205.21 52.6738 204.929 52.7364 204.614 52.7908C204.298 52.8398 203.99 52.8861 203.691 52.9297C203.391 52.9678 203.141 53.0005 202.939 53.0277C202.465 53.0876 202.033 53.1883 201.641 53.3299C201.254 53.4715 200.944 53.6757 200.709 53.9425C200.481 54.2038 200.366 54.5523 200.366 54.9879C200.366 55.5923 200.59 56.0497 201.036 56.3601C201.483 56.665 202.052 56.8175 202.743 56.8175ZM201.265 43.9862C200.878 43.9862 200.541 43.8446 200.252 43.5614C199.963 43.2728 199.819 42.9407 199.819 42.565C199.819 42.1566 199.963 41.8163 200.252 41.544C200.541 41.2718 200.878 41.1357 201.265 41.1357C201.673 41.1357 202.014 41.2718 202.286 41.544C202.563 41.8163 202.702 42.1566 202.702 42.565C202.702 42.9407 202.563 43.2728 202.286 43.5614C202.014 43.8446 201.673 43.9862 201.265 43.9862ZM206.067 43.9862C205.681 43.9862 205.343 43.8446 205.055 43.5614C204.766 43.2728 204.622 42.9407 204.622 42.565C204.622 42.1566 204.766 41.8163 205.055 41.544C205.343 41.2718 205.681 41.1357 206.067 41.1357C206.476 41.1357 206.816 41.2718 207.088 41.544C207.366 41.8163 207.505 42.1566 207.505 42.565C207.505 42.9407 207.366 43.2728 207.088 43.5614C206.816 43.8446 206.476 43.9862 206.067 43.9862ZM214.732 58.7777C213.937 58.7777 213.218 58.6307 212.576 58.3366C211.933 58.0372 211.424 57.6043 211.048 57.038C210.678 56.4717 210.493 55.7775 210.493 54.9553C210.493 54.2474 210.629 53.6648 210.901 53.2074C211.174 52.75 211.541 52.3879 212.004 52.1211C212.467 51.8543 212.984 51.6528 213.556 51.5167C214.128 51.3806 214.71 51.2771 215.304 51.2063C216.055 51.1192 216.665 51.0484 217.133 50.994C217.602 50.9341 217.942 50.8388 218.154 50.7081C218.367 50.5774 218.473 50.3651 218.473 50.071V50.0138C218.473 49.3005 218.271 48.7479 217.868 48.3558C217.471 47.9638 216.877 47.7678 216.088 47.7678C215.266 47.7678 214.618 47.9502 214.144 48.315C213.676 48.6744 213.352 49.0746 213.172 49.5156L210.877 48.9929C211.149 48.2306 211.547 47.6153 212.069 47.147C212.598 46.6733 213.205 46.3303 213.891 46.1179C214.577 45.9001 215.298 45.7912 216.055 45.7912C216.556 45.7912 217.087 45.8511 217.648 45.9709C218.214 46.0852 218.742 46.2976 219.232 46.608C219.728 46.9183 220.133 47.3621 220.449 47.9393C220.765 48.511 220.923 49.2543 220.923 50.169V58.5H218.538V56.7848H218.44C218.282 57.1006 218.045 57.411 217.729 57.7159C217.414 58.0208 217.008 58.274 216.513 58.4755C216.017 58.677 215.423 58.7777 214.732 58.7777ZM215.263 56.8175C215.938 56.8175 216.515 56.6841 216.994 56.4173C217.479 56.1504 217.847 55.802 218.097 55.3718C218.353 54.9362 218.481 54.4706 218.481 53.9751V52.358C218.394 52.4451 218.225 52.5268 217.975 52.603C217.729 52.6738 217.449 52.7364 217.133 52.7908C216.817 52.8398 216.51 52.8861 216.21 52.9297C215.911 52.9678 215.66 53.0005 215.459 53.0277C214.985 53.0876 214.552 53.1883 214.16 53.3299C213.774 53.4715 213.463 53.6757 213.229 53.9425C213 54.2038 212.886 54.5523 212.886 54.9879C212.886 55.5923 213.109 56.0497 213.556 56.3601C214.002 56.665 214.571 56.8175 215.263 56.8175ZM213.785 43.9862C213.398 43.9862 213.06 43.8446 212.772 43.5614C212.483 43.2728 212.339 42.9407 212.339 42.565C212.339 42.1566 212.483 41.8163 212.772 41.544C213.06 41.2718 213.398 41.1357 213.785 41.1357C214.193 41.1357 214.533 41.2718 214.805 41.544C215.083 41.8163 215.222 42.1566 215.222 42.565C215.222 42.9407 215.083 43.2728 214.805 43.5614C214.533 43.8446 214.193 43.9862 213.785 43.9862ZM218.587 43.9862C218.2 43.9862 217.863 43.8446 217.574 43.5614C217.286 43.2728 217.141 42.9407 217.141 42.565C217.141 42.1566 217.286 41.8163 217.574 41.544C217.863 41.2718 218.2 41.1357 218.587 41.1357C218.995 41.1357 219.336 41.2718 219.608 41.544C219.886 41.8163 220.025 42.1566 220.025 42.565C220.025 42.9407 219.886 43.2728 219.608 43.5614C219.336 43.8446 218.995 43.9862 218.587 43.9862ZM233.002 49.0174L230.788 49.4094C230.696 49.1263 230.549 48.8568 230.347 48.6009C230.151 48.3449 229.884 48.1353 229.547 47.9719C229.209 47.8086 228.787 47.7269 228.281 47.7269C227.589 47.7269 227.012 47.8821 226.549 48.1925C226.086 48.4974 225.855 48.8922 225.855 49.3768C225.855 49.796 226.01 50.1336 226.321 50.3896C226.631 50.6455 227.132 50.8551 227.823 51.0185L229.816 51.4759C230.971 51.7427 231.831 52.1538 232.397 52.7092C232.964 53.2646 233.247 53.986 233.247 54.8736C233.247 55.625 233.029 56.2947 232.593 56.8828C232.163 57.4654 231.561 57.9228 230.788 58.255C230.021 58.5871 229.13 58.7532 228.117 58.7532C226.713 58.7532 225.566 58.4537 224.679 57.8548C223.791 57.2504 223.247 56.3928 223.045 55.282L225.406 54.9226C225.553 55.5379 225.855 56.0034 226.312 56.3192C226.77 56.6296 227.366 56.7848 228.101 56.7848C228.902 56.7848 229.541 56.6187 230.021 56.2866C230.5 55.949 230.739 55.5379 230.739 55.0533C230.739 54.6612 230.592 54.3318 230.298 54.065C230.01 53.7982 229.566 53.5967 228.967 53.4606L226.843 52.995C225.673 52.7282 224.807 52.3035 224.246 51.7209C223.691 51.1383 223.413 50.4004 223.413 49.5075C223.413 48.7669 223.62 48.119 224.034 47.5636C224.447 47.0082 225.019 46.5753 225.749 46.2649C226.478 45.9491 227.314 45.7912 228.256 45.7912C229.612 45.7912 230.679 46.0852 231.458 46.6733C232.237 47.2559 232.751 48.0373 233.002 49.0174ZM243.304 53.2972V45.9545H245.754V58.5H243.353V56.3274H243.222C242.934 56.9972 242.471 57.5553 241.834 58.0018C241.202 58.4428 240.415 58.6634 239.473 58.6634C238.667 58.6634 237.954 58.4864 237.333 58.1325C236.718 57.7731 236.233 57.2422 235.88 56.5398C235.531 55.8374 235.357 54.9689 235.357 53.9343V45.9545H237.799V53.6403C237.799 54.4951 238.036 55.1758 238.51 55.6822C238.983 56.1886 239.599 56.4418 240.355 56.4418C240.813 56.4418 241.267 56.3274 241.719 56.0987C242.177 55.87 242.555 55.5243 242.855 55.0614C243.16 54.5986 243.309 54.0105 243.304 53.2972ZM263.373 49.0174L261.16 49.4094C261.067 49.1263 260.92 48.8568 260.719 48.6009C260.523 48.3449 260.256 48.1353 259.918 47.9719C259.581 47.8086 259.159 47.7269 258.652 47.7269C257.961 47.7269 257.384 47.8821 256.921 48.1925C256.458 48.4974 256.227 48.8922 256.227 49.3768C256.227 49.796 256.382 50.1336 256.692 50.3896C257.003 50.6455 257.504 50.8551 258.195 51.0185L260.188 51.4759C261.342 51.7427 262.203 52.1538 262.769 52.7092C263.335 53.2646 263.618 53.986 263.618 54.8736C263.618 55.625 263.401 56.2947 262.965 56.8828C262.535 57.4654 261.933 57.9228 261.16 58.255C260.392 58.5871 259.502 58.7532 258.489 58.7532C257.084 58.7532 255.938 58.4537 255.051 57.8548C254.163 57.2504 253.619 56.3928 253.417 55.282L255.777 54.9226C255.925 55.5379 256.227 56.0034 256.684 56.3192C257.141 56.6296 257.738 56.7848 258.473 56.7848C259.273 56.7848 259.913 56.6187 260.392 56.2866C260.871 55.949 261.111 55.5379 261.111 55.0533C261.111 54.6612 260.964 54.3318 260.67 54.065C260.381 53.7982 259.938 53.5967 259.339 53.4606L257.215 52.995C256.044 52.7282 255.179 52.3035 254.618 51.7209C254.062 51.1383 253.785 50.4004 253.785 49.5075C253.785 48.7669 253.992 48.119 254.405 47.5636C254.819 47.0082 255.391 46.5753 256.121 46.2649C256.85 45.9491 257.686 45.7912 258.628 45.7912C259.984 45.7912 261.051 46.0852 261.83 46.6733C262.608 47.2559 263.123 48.0373 263.373 49.0174ZM269.379 58.7777C268.584 58.7777 267.866 58.6307 267.223 58.3366C266.581 58.0372 266.072 57.6043 265.696 57.038C265.326 56.4717 265.14 55.7775 265.14 54.9553C265.14 54.2474 265.277 53.6648 265.549 53.2074C265.821 52.75 266.189 52.3879 266.651 52.1211C267.114 51.8543 267.632 51.6528 268.203 51.5167C268.775 51.3806 269.358 51.2771 269.951 51.2063C270.703 51.1192 271.312 51.0484 271.781 50.994C272.249 50.9341 272.589 50.8388 272.802 50.7081C273.014 50.5774 273.12 50.3651 273.12 50.071V50.0138C273.12 49.3005 272.919 48.7479 272.516 48.3558C272.118 47.9638 271.525 47.7678 270.735 47.7678C269.913 47.7678 269.265 47.9502 268.791 48.315C268.323 48.6744 267.999 49.0746 267.819 49.5156L265.524 48.9929C265.797 48.2306 266.194 47.6153 266.717 47.147C267.245 46.6733 267.852 46.3303 268.538 46.1179C269.224 45.9001 269.946 45.7912 270.703 45.7912C271.204 45.7912 271.734 45.8511 272.295 45.9709C272.862 46.0852 273.39 46.2976 273.88 46.608C274.375 46.9183 274.781 47.3621 275.097 47.9393C275.413 48.511 275.57 49.2543 275.57 50.169V58.5H273.186V56.7848H273.088C272.93 57.1006 272.693 57.411 272.377 57.7159C272.061 58.0208 271.655 58.274 271.16 58.4755C270.664 58.677 270.071 58.7777 269.379 58.7777ZM269.91 56.8175C270.586 56.8175 271.163 56.6841 271.642 56.4173C272.126 56.1504 272.494 55.802 272.744 55.3718C273 54.9362 273.128 54.4706 273.128 53.9751V52.358C273.041 52.4451 272.872 52.5268 272.622 52.603C272.377 52.6738 272.097 52.7364 271.781 52.7908C271.465 52.8398 271.157 52.8861 270.858 52.9297C270.558 52.9678 270.308 53.0005 270.106 53.0277C269.633 53.0876 269.2 53.1883 268.808 53.3299C268.421 53.4715 268.111 53.6757 267.877 53.9425C267.648 54.2038 267.534 54.5523 267.534 54.9879C267.534 55.5923 267.757 56.0497 268.203 56.3601C268.65 56.665 269.219 56.8175 269.91 56.8175ZM281.899 58.7777C281.104 58.7777 280.385 58.6307 279.743 58.3366C279.1 58.0372 278.591 57.6043 278.216 57.038C277.845 56.4717 277.66 55.7775 277.66 54.9553C277.66 54.2474 277.796 53.6648 278.069 53.2074C278.341 52.75 278.708 52.3879 279.171 52.1211C279.634 51.8543 280.151 51.6528 280.723 51.5167C281.295 51.3806 281.877 51.2771 282.471 51.2063C283.222 51.1192 283.832 51.0484 284.3 50.994C284.769 50.9341 285.109 50.8388 285.321 50.7081C285.534 50.5774 285.64 50.3651 285.64 50.071V50.0138C285.64 49.3005 285.438 48.7479 285.036 48.3558C284.638 47.9638 284.045 47.7678 283.255 47.7678C282.433 47.7678 281.785 47.9502 281.311 48.315C280.843 48.6744 280.519 49.0746 280.339 49.5156L278.044 48.9929C278.316 48.2306 278.714 47.6153 279.237 47.147C279.765 46.6733 280.372 46.3303 281.058 46.1179C281.744 45.9001 282.465 45.7912 283.222 45.7912C283.723 45.7912 284.254 45.8511 284.815 45.9709C285.381 46.0852 285.909 46.2976 286.4 46.608C286.895 46.9183 287.301 47.3621 287.616 47.9393C287.932 48.511 288.09 49.2543 288.09 50.169V58.5H285.705V56.7848H285.607C285.449 57.1006 285.212 57.411 284.897 57.7159C284.581 58.0208 284.175 58.274 283.68 58.4755C283.184 58.677 282.591 58.7777 281.899 58.7777ZM282.43 56.8175C283.105 56.8175 283.682 56.6841 284.162 56.4173C284.646 56.1504 285.014 55.802 285.264 55.3718C285.52 54.9362 285.648 54.4706 285.648 53.9751V52.358C285.561 52.4451 285.392 52.5268 285.142 52.603C284.897 52.6738 284.616 52.7364 284.3 52.7908C283.985 52.8398 283.677 52.8861 283.377 52.9297C283.078 52.9678 282.828 53.0005 282.626 53.0277C282.152 53.0876 281.719 53.1883 281.327 53.3299C280.941 53.4715 280.63 53.6757 280.396 53.9425C280.168 54.2038 280.053 54.5523 280.053 54.9879C280.053 55.5923 280.277 56.0497 280.723 56.3601C281.17 56.665 281.739 56.8175 282.43 56.8175ZM295.464 58.745C294.452 58.745 293.548 58.4864 292.753 57.9691C291.963 57.4464 291.342 56.7031 290.89 55.7393C290.444 54.7701 290.221 53.6076 290.221 52.2518C290.221 50.896 290.447 49.7362 290.899 48.7724C291.356 47.8086 291.982 47.0708 292.777 46.5589C293.572 46.0471 294.473 45.7912 295.481 45.7912C296.259 45.7912 296.886 45.9219 297.359 46.1832C297.838 46.4392 298.209 46.7386 298.47 47.0817C298.737 47.4247 298.944 47.7269 299.091 47.9883H299.238V41.7727H301.68V58.5H299.295V56.5479H299.091C298.944 56.8147 298.731 57.1197 298.454 57.4627C298.181 57.8058 297.806 58.1052 297.327 58.3612C296.847 58.6171 296.227 58.745 295.464 58.745ZM296.003 56.6623C296.706 56.6623 297.299 56.4772 297.784 56.1069C298.274 55.7312 298.644 55.2112 298.895 54.5469C299.151 53.8826 299.279 53.1094 299.279 52.2273C299.279 51.3561 299.153 50.5937 298.903 49.9403C298.652 49.2869 298.285 48.7778 297.8 48.413C297.316 48.0482 296.717 47.8658 296.003 47.8658C295.268 47.8658 294.656 48.0563 294.166 48.4375C293.676 48.8187 293.305 49.3387 293.055 49.9975C292.81 50.6564 292.687 51.3996 292.687 52.2273C292.687 53.0658 292.813 53.82 293.063 54.4897C293.314 55.1594 293.684 55.6903 294.174 56.0824C294.669 56.469 295.279 56.6623 296.003 56.6623ZM65.3814 74.9545H67.8236V88.3168C67.8236 89.1553 67.6711 89.8632 67.3662 90.4403C67.0667 91.0175 66.6202 91.4558 66.0267 91.7553C65.4386 92.0548 64.7117 92.2045 63.8459 92.2045C63.7588 92.2045 63.6771 92.2045 63.6009 92.2045C63.5192 92.2045 63.4348 92.2018 63.3477 92.1964V90.0973C63.4239 90.0973 63.492 90.0973 63.5519 90.0973C63.6063 90.0973 63.669 90.0973 63.7397 90.0973C64.3169 90.0973 64.7335 89.9421 64.9894 89.6317C65.2508 89.3268 65.3814 88.883 65.3814 88.3004V74.9545ZM66.5902 73.0188C66.1655 73.0188 65.8007 72.8772 65.4958 72.5941C65.1963 72.3055 65.0466 71.9625 65.0466 71.565C65.0466 71.162 65.1963 70.819 65.4958 70.5359C65.8007 70.2473 66.1655 70.103 66.5902 70.103C67.015 70.103 67.3771 70.2473 67.6765 70.5359C67.9815 70.819 68.1339 71.162 68.1339 71.565C68.1339 71.9625 67.9815 72.3055 67.6765 72.5941C67.3771 72.8772 67.015 73.0188 66.5902 73.0188ZM74.1849 87.7777C73.3899 87.7777 72.6712 87.6307 72.0286 87.3366C71.3861 87.0372 70.877 86.6043 70.5013 86.038C70.131 85.4717 69.9459 84.7775 69.9459 83.9553C69.9459 83.2474 70.082 82.6648 70.3543 82.2074C70.6265 81.75 70.9941 81.3879 71.4569 81.1211C71.9197 80.8543 72.437 80.6528 73.0088 80.5167C73.5805 80.3806 74.1631 80.2771 74.7566 80.2063C75.5081 80.1192 76.1179 80.0484 76.5862 79.994C77.0545 79.9341 77.3948 79.8388 77.6071 79.7081C77.8195 79.5774 77.9257 79.3651 77.9257 79.071V79.0138C77.9257 78.3005 77.7242 77.7479 77.3213 77.3558C76.9238 76.9638 76.3303 76.7678 75.5407 76.7678C74.7185 76.7678 74.0706 76.9502 73.5968 77.315C73.1286 77.6744 72.8046 78.0746 72.6249 78.5156L70.3298 77.9929C70.602 77.2306 70.9995 76.6153 71.5223 76.147C72.0504 75.6733 72.6576 75.3303 73.3436 75.1179C74.0297 74.9001 74.7512 74.7912 75.5081 74.7912C76.009 74.7912 76.5399 74.8511 77.1007 74.9709C77.667 75.0852 78.1952 75.2976 78.6853 75.608C79.1808 75.9183 79.5864 76.3621 79.9022 76.9393C80.218 77.511 80.3759 78.2543 80.3759 79.169V87.5H77.991V85.7848H77.893C77.7351 86.1006 77.4982 86.411 77.1824 86.7159C76.8666 87.0208 76.4609 87.274 75.9654 87.4755C75.4699 87.677 74.8764 87.7777 74.1849 87.7777ZM74.7158 85.8175C75.391 85.8175 75.9682 85.6841 76.4473 85.4173C76.9319 85.1504 77.2995 84.802 77.55 84.3718C77.8059 83.9362 77.9338 83.4706 77.9338 82.9751V81.358C77.8467 81.4451 77.6779 81.5268 77.4274 81.603C77.1824 81.6738 76.902 81.7364 76.5862 81.7908C76.2704 81.8398 75.9627 81.8861 75.6632 81.9297C75.3638 81.9678 75.1133 82.0005 74.9118 82.0277C74.4381 82.0876 74.0052 82.1883 73.6132 82.3299C73.2266 82.4715 72.9162 82.6757 72.6821 82.9425C72.4534 83.2038 72.339 83.5523 72.339 83.9879C72.339 84.5923 72.5623 85.0497 73.0088 85.3601C73.4553 85.665 74.0243 85.8175 74.7158 85.8175ZM88.3136 92.4659C87.3172 92.4659 86.4596 92.3352 85.7408 92.0739C85.0275 91.8125 84.4449 91.4667 83.993 91.0366C83.541 90.6064 83.2034 90.1354 82.9802 89.6236L85.0793 88.7578C85.2263 88.9974 85.4223 89.2506 85.6673 89.5174C85.9178 89.7897 86.2554 90.0211 86.6801 90.2116C87.1103 90.4022 87.663 90.4975 88.3381 90.4975C89.2638 90.4975 90.0288 90.2715 90.6332 89.8196C91.2376 89.3731 91.5399 88.6598 91.5399 87.6797V85.2131H91.3847C91.2376 85.4799 91.0253 85.7766 90.7476 86.1033C90.4753 86.43 90.0996 86.7132 89.6205 86.9528C89.1413 87.1924 88.5178 87.3121 87.7501 87.3121C86.7591 87.3121 85.8661 87.0807 85.0711 86.6179C84.2816 86.1496 83.6554 85.4608 83.1925 84.5515C82.7352 83.6367 82.5065 82.5123 82.5065 81.1783C82.5065 79.8442 82.7324 78.7008 83.1844 77.7479C83.6418 76.795 84.268 76.0653 85.0629 75.5589C85.8579 75.0471 86.7591 74.7912 87.7664 74.7912C88.5451 74.7912 89.174 74.9219 89.6531 75.1832C90.1323 75.4392 90.5053 75.7386 90.7721 76.0817C91.0443 76.4247 91.254 76.7269 91.401 76.9883H91.5807V74.9545H93.9738V87.7777C93.9738 88.8558 93.7233 89.7406 93.2224 90.4322C92.7214 91.1237 92.0435 91.6355 91.1886 91.9677C90.3392 92.2998 89.3809 92.4659 88.3136 92.4659ZM88.2891 85.2866C88.9916 85.2866 89.5851 85.1232 90.0697 84.7965C90.5597 84.4644 90.93 83.9906 91.1805 83.3754C91.4364 82.7546 91.5644 82.0114 91.5644 81.1456C91.5644 80.3016 91.4391 79.5584 91.1886 78.9158C90.9382 78.2733 90.5706 77.7724 90.086 77.413C89.6014 77.0482 89.0024 76.8658 88.2891 76.8658C87.5541 76.8658 86.9415 77.0563 86.4514 77.4375C85.9614 77.8132 85.5911 78.325 85.3406 78.973C85.0956 79.621 84.9731 80.3452 84.9731 81.1456C84.9731 81.9678 85.0983 82.6893 85.3488 83.31C85.5993 83.9308 85.9695 84.4154 86.4596 84.7638C86.9551 85.1123 87.5649 85.2866 88.2891 85.2866ZM100.325 87.7777C99.53 87.7777 98.8112 87.6307 98.1687 87.3366C97.5262 87.0372 97.0171 86.6043 96.6413 86.038C96.2711 85.4717 96.0859 84.7775 96.0859 83.9553C96.0859 83.2474 96.2221 82.6648 96.4943 82.2074C96.7666 81.75 97.1341 81.3879 97.597 81.1211C98.0598 80.8543 98.5771 80.6528 99.1488 80.5167C99.7205 80.3806 100.303 80.2771 100.897 80.2063C101.648 80.1192 102.258 80.0484 102.726 79.994C103.194 79.9341 103.535 79.8388 103.747 79.7081C103.96 79.5774 104.066 79.3651 104.066 79.071V79.0138C104.066 78.3005 103.864 77.7479 103.461 77.3558C103.064 76.9638 102.47 76.7678 101.681 76.7678C100.859 76.7678 100.211 76.9502 99.7369 77.315C99.2686 77.6744 98.9446 78.0746 98.7649 78.5156L96.4698 77.9929C96.7421 77.2306 97.1396 76.6153 97.6623 76.147C98.1905 75.6733 98.7976 75.3303 99.4837 75.1179C100.17 74.9001 100.891 74.7912 101.648 74.7912C102.149 74.7912 102.68 74.8511 103.241 74.9709C103.807 75.0852 104.335 75.2976 104.825 75.608C105.321 75.9183 105.726 76.3621 106.042 76.9393C106.358 77.511 106.516 78.2543 106.516 79.169V87.5H104.131V85.7848H104.033C103.875 86.1006 103.638 86.411 103.322 86.7159C103.007 87.0208 102.601 87.274 102.105 87.4755C101.61 87.677 101.016 87.7777 100.325 87.7777ZM100.856 85.8175C101.531 85.8175 102.108 85.6841 102.587 85.4173C103.072 85.1504 103.44 84.802 103.69 84.3718C103.946 83.9362 104.074 83.4706 104.074 82.9751V81.358C103.987 81.4451 103.818 81.5268 103.567 81.603C103.322 81.6738 103.042 81.7364 102.726 81.7908C102.41 81.8398 102.103 81.8861 101.803 81.9297C101.504 81.9678 101.253 82.0005 101.052 82.0277C100.578 82.0876 100.145 82.1883 99.7532 82.3299C99.3666 82.4715 99.0562 82.6757 98.8221 82.9425C98.5934 83.2038 98.4791 83.5523 98.4791 83.9879C98.4791 84.5923 98.7023 85.0497 99.1488 85.3601C99.5953 85.665 100.164 85.8175 100.856 85.8175ZM113.89 87.745C112.877 87.745 111.973 87.4864 111.178 86.9691C110.389 86.4464 109.768 85.7031 109.316 84.7393C108.87 83.7701 108.647 82.6076 108.647 81.2518C108.647 79.896 108.872 78.7362 109.324 77.7724C109.782 76.8086 110.408 76.0708 111.203 75.5589C111.998 75.0471 112.899 74.7912 113.906 74.7912C114.685 74.7912 115.311 74.9219 115.785 75.1832C116.264 75.4392 116.634 75.7386 116.896 76.0817C117.163 76.4247 117.37 76.7269 117.517 76.9883H117.664V70.7727H120.106V87.5H117.721V85.5479H117.517C117.37 85.8147 117.157 86.1197 116.879 86.4627C116.607 86.8058 116.231 87.1052 115.752 87.3612C115.273 87.6171 114.652 87.745 113.89 87.745ZM114.429 85.6623C115.132 85.6623 115.725 85.4772 116.21 85.1069C116.7 84.7312 117.07 84.2112 117.321 83.5469C117.576 82.8826 117.704 82.1094 117.704 81.2273C117.704 80.3561 117.579 79.5937 117.329 78.9403C117.078 78.2869 116.711 77.7778 116.226 77.413C115.741 77.0482 115.142 76.8658 114.429 76.8658C113.694 76.8658 113.082 77.0563 112.591 77.4375C112.101 77.8187 111.731 78.3387 111.481 78.9975C111.236 79.6564 111.113 80.3996 111.113 81.2273C111.113 82.0658 111.238 82.82 111.489 83.4897C111.739 84.1594 112.11 84.6903 112.6 85.0824C113.095 85.469 113.705 85.6623 114.429 85.6623ZM126.667 87.7777C125.872 87.7777 125.153 87.6307 124.511 87.3366C123.868 87.0372 123.359 86.6043 122.984 86.038C122.613 85.4717 122.428 84.7775 122.428 83.9553C122.428 83.2474 122.564 82.6648 122.837 82.2074C123.109 81.75 123.476 81.3879 123.939 81.1211C124.402 80.8543 124.919 80.6528 125.491 80.5167C126.063 80.3806 126.645 80.2771 127.239 80.2063C127.99 80.1192 128.6 80.0484 129.068 79.994C129.537 79.9341 129.877 79.8388 130.089 79.7081C130.302 79.5774 130.408 79.3651 130.408 79.071V79.0138C130.408 78.3005 130.206 77.7479 129.803 77.3558C129.406 76.9638 128.812 76.7678 128.023 76.7678C127.201 76.7678 126.553 76.9502 126.079 77.315C125.611 77.6744 125.287 78.0746 125.107 78.5156L122.812 77.9929C123.084 77.2306 123.482 76.6153 124.004 76.147C124.533 75.6733 125.14 75.3303 125.826 75.1179C126.512 74.9001 127.233 74.7912 127.99 74.7912C128.491 74.7912 129.022 74.8511 129.583 74.9709C130.149 75.0852 130.677 75.2976 131.167 75.608C131.663 75.9183 132.069 76.3621 132.384 76.9393C132.7 77.511 132.858 78.2543 132.858 79.169V87.5H130.473V85.7848H130.375C130.217 86.1006 129.98 86.411 129.665 86.7159C129.349 87.0208 128.943 87.274 128.448 87.4755C127.952 87.677 127.359 87.7777 126.667 87.7777ZM127.198 85.8175C127.873 85.8175 128.45 85.6841 128.93 85.4173C129.414 85.1504 129.782 84.802 130.032 84.3718C130.288 83.9362 130.416 83.4706 130.416 82.9751V81.358C130.329 81.4451 130.16 81.5268 129.91 81.603C129.665 81.6738 129.384 81.7364 129.068 81.7908C128.753 81.8398 128.445 81.8861 128.145 81.9297C127.846 81.9678 127.596 82.0005 127.394 82.0277C126.92 82.0876 126.487 82.1883 126.095 82.3299C125.709 82.4715 125.398 82.6757 125.164 82.9425C124.936 83.2038 124.821 83.5523 124.821 83.9879C124.821 84.5923 125.044 85.0497 125.491 85.3601C125.937 85.665 126.506 85.8175 127.198 85.8175ZM143.49 80.0511V87.5H141.048V74.9545H143.392V76.9964H143.547C143.836 76.3321 144.288 75.7985 144.903 75.3956C145.524 74.9927 146.305 74.7912 147.247 74.7912C148.102 74.7912 148.851 74.9709 149.493 75.3303C150.136 75.6842 150.634 76.2124 150.988 76.9148C151.342 77.6172 151.519 78.4857 151.519 79.5202V87.5H149.077V79.8143C149.077 78.9049 148.84 78.1944 148.366 77.6825C147.892 77.1652 147.242 76.9066 146.414 76.9066C145.848 76.9066 145.344 77.0291 144.903 77.2741C144.467 77.5192 144.122 77.8786 143.866 78.3523C143.615 78.8205 143.49 79.3868 143.49 80.0511ZM159.626 87.7532C158.39 87.7532 157.325 87.4891 156.432 86.9609C155.545 86.4273 154.859 85.6786 154.374 84.7148C153.895 83.7456 153.655 82.6103 153.655 81.3089C153.655 80.0239 153.895 78.8913 154.374 77.9112C154.859 76.9311 155.534 76.1661 156.4 75.6161C157.271 75.0662 158.289 74.7912 159.454 74.7912C160.162 74.7912 160.848 74.9083 161.513 75.1424C162.177 75.3765 162.773 75.7441 163.301 76.245C163.829 76.746 164.246 77.3967 164.551 78.1971C164.856 78.9921 165.008 79.9586 165.008 81.0966V81.9624H155.036V80.1328H162.615C162.615 79.4903 162.485 78.9213 162.223 78.4258C161.962 77.9248 161.594 77.5301 161.121 77.2415C160.652 76.9529 160.102 76.8086 159.471 76.8086C158.785 76.8086 158.186 76.9774 157.674 77.315C157.167 77.6471 156.775 78.0827 156.498 78.6218C156.225 79.1554 156.089 79.7353 156.089 80.3615V81.7908C156.089 82.6294 156.236 83.3427 156.53 83.9308C156.83 84.5188 157.246 84.968 157.78 85.2784C158.314 85.5833 158.937 85.7358 159.65 85.7358C160.113 85.7358 160.535 85.6705 160.916 85.5398C161.298 85.4036 161.627 85.2022 161.905 84.9354C162.182 84.6686 162.395 84.3391 162.542 83.9471L164.853 84.3636C164.668 85.0443 164.336 85.6405 163.857 86.1523C163.383 86.6587 162.787 87.0535 162.068 87.3366C161.355 87.6143 160.541 87.7532 159.626 87.7532ZM169.585 70.7727V87.5H167.143V70.7727H169.585ZM172.295 74.9545H174.738V88.3168C174.738 89.1553 174.585 89.8632 174.28 90.4403C173.981 91.0175 173.534 91.4558 172.941 91.7553C172.353 92.0548 171.626 92.2045 170.76 92.2045C170.673 92.2045 170.591 92.2045 170.515 92.2045C170.433 92.2045 170.349 92.2018 170.262 92.1964V90.0973C170.338 90.0973 170.406 90.0973 170.466 90.0973C170.52 90.0973 170.583 90.0973 170.654 90.0973C171.231 90.0973 171.648 89.9421 171.903 89.6317C172.165 89.3268 172.295 88.883 172.295 88.3004V74.9545ZM173.504 73.0188C173.08 73.0188 172.715 72.8772 172.41 72.5941C172.11 72.3055 171.961 71.9625 171.961 71.565C171.961 71.162 172.11 70.819 172.41 70.5359C172.715 70.2473 173.08 70.103 173.504 70.103C173.929 70.103 174.291 70.2473 174.591 70.5359C174.896 70.819 175.048 71.162 175.048 71.565C175.048 71.9625 174.896 72.3055 174.591 72.5941C174.291 72.8772 173.929 73.0188 173.504 73.0188ZM181.099 87.7777C180.304 87.7777 179.585 87.6307 178.943 87.3366C178.3 87.0372 177.791 86.6043 177.415 86.038C177.045 85.4717 176.86 84.7775 176.86 83.9553C176.86 83.2474 176.996 82.6648 177.268 82.2074C177.541 81.75 177.908 81.3879 178.371 81.1211C178.834 80.8543 179.351 80.6528 179.923 80.5167C180.495 80.3806 181.077 80.2771 181.671 80.2063C182.422 80.1192 183.032 80.0484 183.5 79.994C183.969 79.9341 184.309 79.8388 184.521 79.7081C184.734 79.5774 184.84 79.3651 184.84 79.071V79.0138C184.84 78.3005 184.638 77.7479 184.235 77.3558C183.838 76.9638 183.244 76.7678 182.455 76.7678C181.633 76.7678 180.985 76.9502 180.511 77.315C180.043 77.6744 179.719 78.0746 179.539 78.5156L177.244 77.9929C177.516 77.2306 177.914 76.6153 178.436 76.147C178.964 75.6733 179.572 75.3303 180.258 75.1179C180.944 74.9001 181.665 74.7912 182.422 74.7912C182.923 74.7912 183.454 74.8511 184.015 74.9709C184.581 75.0852 185.109 75.2976 185.599 75.608C186.095 75.9183 186.5 76.3621 186.816 76.9393C187.132 77.511 187.29 78.2543 187.29 79.169V87.5H184.905V85.7848H184.807C184.649 86.1006 184.412 86.411 184.096 86.7159C183.781 87.0208 183.375 87.274 182.88 87.4755C182.384 87.677 181.79 87.7777 181.099 87.7777ZM181.63 85.8175C182.305 85.8175 182.882 85.6841 183.361 85.4173C183.846 85.1504 184.214 84.802 184.464 84.3718C184.72 83.9362 184.848 83.4706 184.848 82.9751V81.358C184.761 81.4451 184.592 81.5268 184.342 81.603C184.096 81.6738 183.816 81.7364 183.5 81.7908C183.184 81.8398 182.877 81.8861 182.577 81.9297C182.278 81.9678 182.027 82.0005 181.826 82.0277C181.352 82.0876 180.919 82.1883 180.527 82.3299C180.141 82.4715 179.83 82.6757 179.596 82.9425C179.367 83.2038 179.253 83.5523 179.253 83.9879C179.253 84.5923 179.476 85.0497 179.923 85.3601C180.369 85.665 180.938 85.8175 181.63 85.8175ZM204.881 78.0174L202.667 78.4094C202.575 78.1263 202.428 77.8568 202.226 77.6009C202.03 77.3449 201.763 77.1353 201.426 76.9719C201.088 76.8086 200.666 76.7269 200.16 76.7269C199.468 76.7269 198.891 76.8821 198.428 77.1925C197.965 77.4974 197.734 77.8922 197.734 78.3768C197.734 78.796 197.889 79.1336 198.199 79.3896C198.51 79.6455 199.011 79.8551 199.702 80.0185L201.695 80.4759C202.85 80.7427 203.71 81.1538 204.276 81.7092C204.842 82.2646 205.126 82.986 205.126 83.8736C205.126 84.625 204.908 85.2947 204.472 85.8828C204.042 86.4654 203.44 86.9228 202.667 87.255C201.899 87.5871 201.009 87.7532 199.996 87.7532C198.592 87.7532 197.445 87.4537 196.558 86.8548C195.67 86.2504 195.126 85.3928 194.924 84.282L197.285 83.9226C197.432 84.5379 197.734 85.0034 198.191 85.3192C198.649 85.6296 199.245 85.7848 199.98 85.7848C200.78 85.7848 201.42 85.6187 201.899 85.2866C202.379 84.949 202.618 84.5379 202.618 84.0533C202.618 83.6612 202.471 83.3318 202.177 83.065C201.889 82.7982 201.445 82.5967 200.846 82.4606L198.722 81.995C197.552 81.7282 196.686 81.3035 196.125 80.7209C195.57 80.1383 195.292 79.4004 195.292 78.5075C195.292 77.7669 195.499 77.119 195.913 76.5636C196.326 76.0082 196.898 75.5753 197.628 75.2649C198.357 74.9491 199.193 74.7912 200.135 74.7912C201.491 74.7912 202.558 75.0852 203.337 75.6733C204.116 76.2559 204.63 77.0373 204.881 78.0174ZM212.52 87.7532C211.344 87.7532 210.318 87.4837 209.441 86.9446C208.564 86.4055 207.884 85.6514 207.399 84.6822C206.914 83.7129 206.672 82.5804 206.672 81.2844C206.672 79.9831 206.914 78.8451 207.399 77.8704C207.884 76.8957 208.564 76.1388 209.441 75.5998C210.318 75.0607 211.344 74.7912 212.52 74.7912C213.696 74.7912 214.723 75.0607 215.599 75.5998C216.476 76.1388 217.157 76.8957 217.641 77.8704C218.126 78.8451 218.368 79.9831 218.368 81.2844C218.368 82.5804 218.126 83.7129 217.641 84.6822C217.157 85.6514 216.476 86.4055 215.599 86.9446C214.723 87.4837 213.696 87.7532 212.52 87.7532ZM212.528 85.7031C213.291 85.7031 213.922 85.5017 214.423 85.0987C214.924 84.6958 215.294 84.1594 215.534 83.4897C215.779 82.82 215.902 82.0821 215.902 81.2763C215.902 80.4759 215.779 79.7408 215.534 79.071C215.294 78.3958 214.924 77.854 214.423 77.4457C213.922 77.0373 213.291 76.8331 212.528 76.8331C211.761 76.8331 211.124 77.0373 210.617 77.4457C210.116 77.854 209.743 78.3958 209.498 79.071C209.259 79.7408 209.139 80.4759 209.139 81.2763C209.139 82.0821 209.259 82.82 209.498 83.4897C209.743 84.1594 210.116 84.6958 210.617 85.0987C211.124 85.5017 211.761 85.7031 212.528 85.7031ZM210.062 73.4354L208.42 73.3864C208.42 72.4825 208.662 71.761 209.147 71.2219C209.637 70.6829 210.241 70.4134 210.96 70.4134C211.292 70.4134 211.584 70.4705 211.834 70.5849C212.085 70.6938 212.319 70.8217 212.537 70.9688C212.76 71.1103 212.98 71.2383 213.198 71.3526C213.421 71.4615 213.669 71.516 213.941 71.516C214.257 71.516 214.513 71.3962 214.709 71.1566C214.911 70.917 215.011 70.6203 215.011 70.2663L216.62 70.3725C216.62 71.2818 216.375 71.9979 215.885 72.5206C215.395 73.0379 214.793 73.2992 214.08 73.3047C213.694 73.3047 213.372 73.2502 213.116 73.1413C212.866 73.027 212.643 72.899 212.447 72.7575C212.251 72.6104 212.049 72.4798 211.842 72.3654C211.635 72.2511 211.388 72.1939 211.099 72.1939C210.794 72.1939 210.544 72.3137 210.348 72.5533C210.157 72.7874 210.062 73.0814 210.062 73.4354ZM220.715 87.5V70.7727H223.157V76.9883H223.304C223.446 76.7269 223.65 76.4247 223.917 76.0817C224.184 75.7386 224.554 75.4392 225.028 75.1832C225.501 74.9219 226.128 74.7912 226.906 74.7912C227.919 74.7912 228.823 75.0471 229.618 75.5589C230.413 76.0708 231.036 76.8086 231.488 77.7724C231.946 78.7362 232.174 79.896 232.174 81.2518C232.174 82.6076 231.948 83.7701 231.496 84.7393C231.044 85.7031 230.424 86.4464 229.634 86.9691C228.845 87.4864 227.943 87.745 226.931 87.745C226.168 87.745 225.545 87.6171 225.06 87.3612C224.581 87.1052 224.205 86.8058 223.933 86.4627C223.661 86.1197 223.451 85.8147 223.304 85.5479H223.1V87.5H220.715ZM223.108 81.2273C223.108 82.1094 223.236 82.8826 223.492 83.5469C223.748 84.2112 224.118 84.7312 224.603 85.1069C225.088 85.4772 225.681 85.6623 226.383 85.6623C227.113 85.6623 227.723 85.469 228.213 85.0824C228.703 84.6903 229.073 84.1594 229.324 83.4897C229.58 82.82 229.708 82.0658 229.708 81.2273C229.708 80.3996 229.582 79.6564 229.332 78.9975C229.087 78.3387 228.717 77.8187 228.221 77.4375C227.731 77.0563 227.119 76.8658 226.383 76.8658C225.676 76.8658 225.077 77.0482 224.587 77.413C224.102 77.7778 223.734 78.2869 223.484 78.9403C223.234 79.5937 223.108 80.3561 223.108 81.2273ZM234.342 87.5V74.9545H236.702V76.9474H236.833C237.061 76.2723 237.464 75.7414 238.042 75.3548C238.624 74.9627 239.283 74.7667 240.018 74.7667C240.171 74.7667 240.35 74.7721 240.557 74.783C240.77 74.7939 240.936 74.8075 241.055 74.8239V77.1598C240.957 77.1326 240.783 77.1026 240.533 77.07C240.282 77.0318 240.032 77.0128 239.781 77.0128C239.204 77.0128 238.689 77.1353 238.238 77.3803C237.791 77.6199 237.437 77.9548 237.176 78.3849C236.914 78.8097 236.784 79.2943 236.784 79.8388V87.5H234.342ZM246.132 87.7777C245.337 87.7777 244.619 87.6307 243.976 87.3366C243.334 87.0372 242.824 86.6043 242.449 86.038C242.079 85.4717 241.893 84.7775 241.893 83.9553C241.893 83.2474 242.03 82.6648 242.302 82.2074C242.574 81.75 242.942 81.3879 243.404 81.1211C243.867 80.8543 244.384 80.6528 244.956 80.5167C245.528 80.3806 246.111 80.2771 246.704 80.2063C247.456 80.1192 248.065 80.0484 248.534 79.994C249.002 79.9341 249.342 79.8388 249.555 79.7081C249.767 79.5774 249.873 79.3651 249.873 79.071V79.0138C249.873 78.3005 249.672 77.7479 249.269 77.3558C248.871 76.9638 248.278 76.7678 247.488 76.7678C246.666 76.7678 246.018 76.9502 245.544 77.315C245.076 77.6744 244.752 78.0746 244.572 78.5156L242.277 77.9929C242.55 77.2306 242.947 76.6153 243.47 76.147C243.998 75.6733 244.605 75.3303 245.291 75.1179C245.977 74.9001 246.699 74.7912 247.456 74.7912C247.956 74.7912 248.487 74.8511 249.048 74.9709C249.614 75.0852 250.143 75.2976 250.633 75.608C251.128 75.9183 251.534 76.3621 251.85 76.9393C252.166 77.511 252.323 78.2543 252.323 79.169V87.5H249.938V85.7848H249.84C249.683 86.1006 249.446 86.411 249.13 86.7159C248.814 87.0208 248.408 87.274 247.913 87.4755C247.417 87.677 246.824 87.7777 246.132 87.7777ZM246.663 85.8175C247.338 85.8175 247.916 85.6841 248.395 85.4173C248.879 85.1504 249.247 84.802 249.497 84.3718C249.753 83.9362 249.881 83.4706 249.881 82.9751V81.358C249.794 81.4451 249.625 81.5268 249.375 81.603C249.13 81.6738 248.849 81.7364 248.534 81.7908C248.218 81.8398 247.91 81.8861 247.611 81.9297C247.311 81.9678 247.061 82.0005 246.859 82.0277C246.386 82.0876 245.953 82.1883 245.561 82.3299C245.174 82.4715 244.864 82.6757 244.63 82.9425C244.401 83.2038 244.286 83.5523 244.286 83.9879C244.286 84.5923 244.51 85.0497 244.956 85.3601C245.403 85.665 245.972 85.8175 246.663 85.8175ZM260.261 92.4659C259.265 92.4659 258.407 92.3352 257.688 92.0739C256.975 91.8125 256.392 91.4667 255.94 91.0366C255.488 90.6064 255.151 90.1354 254.928 89.6236L257.027 88.7578C257.174 88.9974 257.37 89.2506 257.615 89.5174C257.865 89.7897 258.203 90.0211 258.628 90.2116C259.058 90.4022 259.61 90.4975 260.286 90.4975C261.211 90.4975 261.976 90.2715 262.581 89.8196C263.185 89.3731 263.487 88.6598 263.487 87.6797V85.2131H263.332C263.185 85.4799 262.973 85.7766 262.695 86.1033C262.423 86.43 262.047 86.7132 261.568 86.9528C261.089 87.1924 260.465 87.3121 259.698 87.3121C258.707 87.3121 257.814 87.0807 257.019 86.6179C256.229 86.1496 255.603 85.4608 255.14 84.5515C254.683 83.6367 254.454 82.5123 254.454 81.1783C254.454 79.8442 254.68 78.7008 255.132 77.7479C255.589 76.795 256.215 76.0653 257.01 75.5589C257.805 75.0471 258.707 74.7912 259.714 74.7912C260.493 74.7912 261.121 74.9219 261.601 75.1832C262.08 75.4392 262.453 75.7386 262.72 76.0817C262.992 76.4247 263.201 76.7269 263.348 76.9883H263.528V74.9545H265.921V87.7777C265.921 88.8558 265.671 89.7406 265.17 90.4322C264.669 91.1237 263.991 91.6355 263.136 91.9677C262.287 92.2998 261.328 92.4659 260.261 92.4659ZM260.237 85.2866C260.939 85.2866 261.533 85.1232 262.017 84.7965C262.507 84.4644 262.877 83.9906 263.128 83.3754C263.384 82.7546 263.512 82.0114 263.512 81.1456C263.512 80.3016 263.387 79.5584 263.136 78.9158C262.886 78.2733 262.518 77.7724 262.033 77.413C261.549 77.0482 260.95 76.8658 260.237 76.8658C259.502 76.8658 258.889 77.0563 258.399 77.4375C257.909 77.8132 257.539 78.325 257.288 78.973C257.043 79.621 256.921 80.3452 256.921 81.1456C256.921 81.9678 257.046 82.6893 257.296 83.31C257.547 83.9308 257.917 84.4154 258.407 84.7638C258.903 85.1123 259.512 85.2866 260.237 85.2866ZM272.272 87.7777C271.477 87.7777 270.759 87.6307 270.116 87.3366C269.474 87.0372 268.965 86.6043 268.589 86.038C268.219 85.4717 268.033 84.7775 268.033 83.9553C268.033 83.2474 268.17 82.6648 268.442 82.2074C268.714 81.75 269.082 81.3879 269.544 81.1211C270.007 80.8543 270.525 80.6528 271.096 80.5167C271.668 80.3806 272.251 80.2771 272.844 80.2063C273.596 80.1192 274.205 80.0484 274.674 79.994C275.142 79.9341 275.482 79.8388 275.695 79.7081C275.907 79.5774 276.013 79.3651 276.013 79.071V79.0138C276.013 78.3005 275.812 77.7479 275.409 77.3558C275.011 76.9638 274.418 76.7678 273.628 76.7678C272.806 76.7678 272.158 76.9502 271.684 77.315C271.216 77.6744 270.892 78.0746 270.712 78.5156L268.417 77.9929C268.69 77.2306 269.087 76.6153 269.61 76.147C270.138 75.6733 270.745 75.3303 271.431 75.1179C272.117 74.9001 272.839 74.7912 273.596 74.7912C274.096 74.7912 274.627 74.8511 275.188 74.9709C275.755 75.0852 276.283 75.2976 276.773 75.608C277.268 75.9183 277.674 76.3621 277.99 76.9393C278.306 77.511 278.463 78.2543 278.463 79.169V87.5H276.079V85.7848H275.98C275.823 86.1006 275.586 86.411 275.27 86.7159C274.954 87.0208 274.548 87.274 274.053 87.4755C273.557 87.677 272.964 87.7777 272.272 87.7777ZM272.803 85.8175C273.478 85.8175 274.056 85.6841 274.535 85.4173C275.019 85.1504 275.387 84.802 275.637 84.3718C275.893 83.9362 276.021 83.4706 276.021 82.9751V81.358C275.934 81.4451 275.765 81.5268 275.515 81.603C275.27 81.6738 274.989 81.7364 274.674 81.7908C274.358 81.8398 274.05 81.8861 273.751 81.9297C273.451 81.9678 273.201 82.0005 272.999 82.0277C272.526 82.0876 272.093 82.1883 271.701 82.3299C271.314 82.4715 271.004 82.6757 270.77 82.9425C270.541 83.2038 270.427 83.5523 270.427 83.9879C270.427 84.5923 270.65 85.0497 271.096 85.3601C271.543 85.665 272.112 85.8175 272.803 85.8175ZM284.22 70.7727L284.008 82.6893H281.746L281.533 70.7727H284.22ZM282.881 87.6552C282.429 87.6552 282.042 87.4973 281.721 87.1815C281.4 86.8602 281.242 86.4736 281.247 86.0217C281.242 85.5752 281.4 85.194 281.721 84.8782C282.042 84.5569 282.429 84.3963 282.881 84.3963C283.322 84.3963 283.703 84.5569 284.024 84.8782C284.346 85.194 284.509 85.5752 284.514 86.0217C284.509 86.3211 284.43 86.5961 284.278 86.8466C284.131 87.0916 283.935 87.2876 283.689 87.4347C283.444 87.5817 283.175 87.6552 282.881 87.6552Z" fill="#442604"/>
</svg>
