<svg width="75" height="35" viewBox="0 0 75 35" fill="none" xmlns="http://www.w3.org/2000/svg">
<path d="M18.9757 19.0002C18.0595 18.7384 16.4618 18.7429 15.2975 19.0813C12.9281 19.7719 11.3667 21.5591 11.8088 23.0754C12.2512 24.5918 14.5303 25.2643 16.8997 24.5737C19.0795 23.9419 20.5778 22.3669 20.4425 20.9317V3.72339L7.2417 6.77417V21.708C6.32555 21.4463 4.72783 21.4507 3.56352 21.7892C1.19413 22.4797 -0.367282 24.2669 0.0748736 25.7833C0.517215 27.2997 2.79631 27.9721 5.16571 27.2816C7.34558 26.6497 8.84388 25.0747 8.70853 23.6395V10.1319L18.9758 7.65885L18.9757 19.0002Z" fill="white"/>
<path d="M39.493 25.2018C39.0564 26.5397 38.4415 27.7792 37.6715 28.948C37.5166 29.1781 37.3148 29.4644 37.0236 29.2484C36.7842 29.0747 37.0517 28.8353 37.1504 28.6523C37.8359 27.4083 38.507 26.1502 38.6948 24.723C39.0703 21.864 37.6715 19.484 34.9346 18.24C34.5215 18.0521 34.0802 17.9161 33.6437 17.7939C33.4042 17.7282 33.2259 17.7282 33.0991 17.7846V30.9292C33.2399 32.4174 31.6814 34.0557 29.4141 34.7176C26.9495 35.4358 24.5786 34.7364 24.1186 33.159C23.6586 31.5815 25.2829 29.7226 27.7475 29.0044C28.9587 28.6523 30.6204 28.6428 31.5734 28.9152V12.1701C31.5734 11.6209 31.7565 11.1702 32.3058 11.1702C32.5829 11.1702 32.78 11.2828 32.9115 11.466C33.0382 11.6443 33.0993 11.8933 33.0993 12.1701V13.2311C33.3998 14.1511 33.9678 14.8085 34.8316 15.5876C35.8174 16.4749 36.7892 17.3762 37.7188 18.315C39.6432 20.2586 40.3708 22.5167 39.493 25.2018Z" fill="white"/>
<path d="M74.4522 14.0317C74.0157 15.3695 73.4008 16.609 72.6308 17.7778C72.4759 18.0079 72.2741 18.2942 71.9829 18.0783C71.7435 17.9046 72.011 17.6652 72.1097 17.4822C72.7951 16.2382 73.4663 14.98 73.6541 13.5528C74.0296 10.6938 72.6308 8.31382 69.8939 7.06983C69.4807 6.88198 69.0395 6.74589 68.603 6.62376C68.3635 6.55804 68.1852 6.55804 68.0584 6.61445V19.759C68.1991 21.2473 66.6407 22.8856 64.3733 23.5474C61.9088 24.2657 59.5379 23.5662 59.0779 21.9888C58.6179 20.4114 60.2422 18.5525 62.7067 17.8342C63.918 17.4822 65.5797 17.4727 66.5327 17.745V0.999922C66.5327 0.450719 66.7157 0 67.2651 0C67.5422 0 67.7393 0.112633 67.8707 0.295825C67.9975 0.474176 68.0586 0.723086 68.0586 0.999922V2.06091C68.3591 2.98096 68.9271 3.63833 69.7909 4.41746C70.7767 5.30474 71.7485 6.206 72.678 7.14485C74.6025 9.08847 75.33 11.3465 74.4522 14.0317Z" fill="white"/>
<path d="M48.8234 30.9936C46.3595 31.7128 43.989 31.0136 43.5293 29.4354C43.0697 27.8572 44.6947 25.9992 47.1585 25.2801C48.3705 24.9271 50.0321 24.9204 50.9843 25.1935V8.44558C50.9843 7.89396 51.1683 7.44678 51.7199 7.44678C52.2715 7.44678 52.5126 7.89396 52.5126 8.44558V27.2045C52.6524 28.6963 51.0942 30.3344 48.8234 30.9936Z" fill="white"/>
</svg>
