<svg width="350" height="250" viewBox="0 0 350 250" fill="none" xmlns="http://www.w3.org/2000/svg">
<rect width="350" height="250" fill="#FFEBC4"/>
<path d="M34.792 27.096C36.692 27.096 38.3387 27.3747 39.732 27.932C41.1507 28.464 42.4553 29.2873 43.646 30.402L40.986 33.48C40.0487 32.72 39.1113 32.1627 38.174 31.808C37.2367 31.4533 36.236 31.276 35.172 31.276C34.0067 31.276 33.0693 31.5293 32.36 32.036C31.676 32.5173 31.334 33.214 31.334 34.126C31.334 34.7593 31.4733 35.2787 31.752 35.684C32.056 36.0893 32.5753 36.4693 33.31 36.824C34.0447 37.1787 35.1467 37.584 36.616 38.04C39.2253 38.876 41.176 39.9147 42.468 41.156C43.76 42.372 44.406 44.12 44.406 46.4C44.406 48.0213 44.0007 49.4527 43.19 50.694C42.3793 51.91 41.2013 52.8727 39.656 53.582C38.1107 54.266 36.2993 54.608 34.222 54.608C32.1447 54.608 30.2953 54.2787 28.674 53.62C27.0527 52.9613 25.6593 52.062 24.494 50.922L27.344 47.768C28.3573 48.6293 29.4087 49.288 30.498 49.744C31.5873 50.1747 32.778 50.39 34.07 50.39C35.438 50.39 36.5273 50.0733 37.338 49.44C38.174 48.8067 38.592 47.92 38.592 46.78C38.592 46.0707 38.44 45.488 38.136 45.032C37.8573 44.5507 37.3633 44.12 36.654 43.74C35.9447 43.36 34.9187 42.9673 33.576 42.562C30.7133 41.6753 28.6613 40.6113 27.42 39.37C26.204 38.1287 25.596 36.5073 25.596 34.506C25.596 33.0367 25.9887 31.7447 26.774 30.63C27.5593 29.49 28.6487 28.616 30.042 28.008C31.4353 27.4 33.0187 27.096 34.792 27.096ZM55.6703 33.252C58.685 33.252 61.041 34.202 62.7383 36.102C64.4357 37.9767 65.2843 40.586 65.2843 43.93C65.2843 46.058 64.8917 47.9327 64.1063 49.554C63.3463 51.15 62.2317 52.3913 60.7623 53.278C59.3183 54.1647 57.6083 54.608 55.6323 54.608C52.6177 54.608 50.249 53.6707 48.5263 51.796C46.829 49.896 45.9803 47.274 45.9803 43.93C45.9803 41.802 46.3603 39.94 47.1203 38.344C47.9057 36.7227 49.0203 35.4687 50.4643 34.582C51.9337 33.6953 53.669 33.252 55.6703 33.252ZM55.6703 37.28C54.3023 37.28 53.2763 37.8247 52.5923 38.914C51.9337 39.978 51.6043 41.65 51.6043 43.93C51.6043 46.21 51.9337 47.8947 52.5923 48.984C53.2763 50.048 54.2897 50.58 55.6323 50.58C56.975 50.58 57.9757 50.048 58.6343 48.984C59.3183 47.8947 59.6603 46.21 59.6603 43.93C59.6603 41.65 59.331 39.978 58.6723 38.914C58.0137 37.8247 57.013 37.28 55.6703 37.28ZM57.8363 29.68C57.3043 29.68 56.8357 29.5913 56.4303 29.414C56.0503 29.2367 55.5943 28.9833 55.0623 28.654C54.733 28.4007 54.4417 28.2233 54.1883 28.122C53.9603 27.9953 53.7197 27.932 53.4663 27.932C53.061 27.932 52.7063 28.0713 52.4023 28.35C52.0983 28.6287 51.7817 29.0593 51.4523 29.642L48.6783 28.274C49.185 27.0327 49.8437 26.0193 50.6543 25.234C51.465 24.4487 52.377 24.056 53.3903 24.056C53.973 24.056 54.467 24.1573 54.8723 24.36C55.2777 24.5373 55.7337 24.7907 56.2403 25.12C56.5697 25.348 56.8483 25.5253 57.0763 25.652C57.3043 25.7533 57.545 25.804 57.7983 25.804C58.2037 25.804 58.5457 25.6773 58.8243 25.424C59.1283 25.1453 59.4577 24.7147 59.8123 24.132L62.5863 25.5C62.0797 26.792 61.421 27.818 60.6103 28.578C59.7997 29.3127 58.875 29.68 57.8363 29.68ZM79.3437 33.252C81.6997 33.252 83.5237 34.1893 84.8157 36.064C86.1331 37.9387 86.7917 40.5607 86.7917 43.93C86.7917 46.0073 86.4624 47.8567 85.8037 49.478C85.1704 51.074 84.2457 52.328 83.0297 53.24C81.8391 54.152 80.4331 54.608 78.8117 54.608C76.6077 54.608 74.8471 53.7467 73.5297 52.024L73.2257 54H68.4377V25.842L73.8337 25.234V36.026C74.4671 35.1647 75.2651 34.4933 76.2277 34.012C77.1904 33.5053 78.2291 33.252 79.3437 33.252ZM77.2917 50.618C79.8757 50.618 81.1677 48.3887 81.1677 43.93C81.1677 41.4727 80.8511 39.75 80.2177 38.762C79.6097 37.7487 78.7231 37.242 77.5577 37.242C76.1137 37.242 74.8724 38.1033 73.8337 39.826V48.452C74.7204 49.896 75.8731 50.618 77.2917 50.618ZM100.536 33.29C101.144 33.29 101.816 33.3913 102.55 33.594L101.638 38.8C100.929 38.6227 100.334 38.534 99.8525 38.534C98.6618 38.534 97.7371 38.952 97.0785 39.788C96.4198 40.624 95.9005 41.8907 95.5205 43.588V54H90.1245V33.86H94.7985L95.2925 37.774C95.7738 36.3553 96.4705 35.2533 97.3825 34.468C98.3198 33.6827 99.3711 33.29 100.536 33.29ZM118.332 48.414C118.332 49.1993 118.446 49.782 118.674 50.162C118.902 50.5167 119.282 50.7827 119.814 50.96L118.674 54.532C117.483 54.4307 116.508 54.152 115.748 53.696C115.013 53.24 114.443 52.5307 114.038 51.568C112.721 53.5947 110.707 54.608 107.996 54.608C105.995 54.608 104.399 54.038 103.208 52.898C102.043 51.7327 101.46 50.2253 101.46 48.376C101.46 46.172 102.258 44.4873 103.854 43.322C105.45 42.1567 107.743 41.574 110.732 41.574H113.05V40.586C113.05 39.3447 112.771 38.4833 112.214 38.002C111.657 37.5207 110.732 37.28 109.44 37.28C108.021 37.28 106.248 37.6347 104.12 38.344L102.904 34.734C105.412 33.746 107.895 33.252 110.352 33.252C113.088 33.252 115.102 33.8473 116.394 35.038C117.686 36.2033 118.332 37.9513 118.332 40.282V48.414ZM109.478 50.732C110.998 50.732 112.189 49.9847 113.05 48.49V44.652H111.264C108.351 44.652 106.894 45.7413 106.894 47.92C106.894 48.8067 107.109 49.5033 107.54 50.01C107.996 50.4913 108.642 50.732 109.478 50.732ZM140.215 25.842V54H135.465L135.161 51.53C133.743 53.582 131.817 54.608 129.385 54.608C126.903 54.608 125.003 53.658 123.685 51.758C122.393 49.8327 121.747 47.2233 121.747 43.93C121.747 41.8527 122.077 40.016 122.735 38.42C123.419 36.7987 124.382 35.532 125.623 34.62C126.865 33.708 128.296 33.252 129.917 33.252C131.792 33.252 133.426 33.9233 134.819 35.266V25.234L140.215 25.842ZM130.981 50.58C131.767 50.58 132.463 50.39 133.071 50.01C133.679 49.6047 134.262 48.984 134.819 48.148V39.142C134.287 38.5087 133.743 38.04 133.185 37.736C132.653 37.4067 132.033 37.242 131.323 37.242C130.082 37.242 129.107 37.7867 128.397 38.876C127.713 39.9653 127.371 41.65 127.371 43.93C127.371 46.3367 127.675 48.0467 128.283 49.06C128.917 50.0733 129.816 50.58 130.981 50.58ZM157.915 54.608C156.268 54.608 154.989 54.1393 154.077 53.202C153.165 52.2393 152.709 50.884 152.709 49.136V25.842L158.105 25.234V48.984C158.105 49.8707 158.472 50.314 159.207 50.314C159.612 50.314 159.967 50.238 160.271 50.086L161.373 53.924C160.334 54.38 159.181 54.608 157.915 54.608ZM171.481 33.252C174.496 33.252 176.852 34.202 178.549 36.102C180.247 37.9767 181.095 40.586 181.095 43.93C181.095 46.058 180.703 47.9327 179.917 49.554C179.157 51.15 178.043 52.3913 176.573 53.278C175.129 54.1647 173.419 54.608 171.443 54.608C168.429 54.608 166.06 53.6707 164.337 51.796C162.64 49.896 161.791 47.274 161.791 43.93C161.791 41.802 162.171 39.94 162.931 38.344C163.717 36.7227 164.831 35.4687 166.275 34.582C167.745 33.6953 169.48 33.252 171.481 33.252ZM171.481 37.28C170.113 37.28 169.087 37.8247 168.403 38.914C167.745 39.978 167.415 41.65 167.415 43.93C167.415 46.21 167.745 47.8947 168.403 48.984C169.087 50.048 170.101 50.58 171.443 50.58C172.786 50.58 173.787 50.048 174.445 48.984C175.129 47.8947 175.471 46.21 175.471 43.93C175.471 41.65 175.142 39.978 174.483 38.914C173.825 37.8247 172.824 37.28 171.481 37.28ZM201.273 43.474C201.273 43.7273 201.235 44.424 201.159 45.564H188.581C188.758 47.388 189.252 48.68 190.063 49.44C190.873 50.2 191.975 50.58 193.369 50.58C194.23 50.58 195.041 50.4407 195.801 50.162C196.561 49.8833 197.384 49.44 198.271 48.832L200.513 51.872C198.258 53.696 195.712 54.608 192.875 54.608C189.708 54.608 187.276 53.658 185.579 51.758C183.881 49.858 183.033 47.2867 183.033 44.044C183.033 41.992 183.387 40.1553 184.097 38.534C184.831 36.8873 185.883 35.5953 187.251 34.658C188.644 33.7207 190.291 33.252 192.191 33.252C195.053 33.252 197.283 34.1513 198.879 35.95C200.475 37.7487 201.273 40.2567 201.273 43.474ZM195.915 41.954C195.915 38.61 194.711 36.938 192.305 36.938C191.19 36.938 190.316 37.356 189.683 38.192C189.075 39.0027 188.707 40.3327 188.581 42.182H195.915V41.954ZM220.689 33.86L214.229 54H207.807L201.233 33.86H207.085L211.075 49.782L215.141 33.86H220.689ZM236.963 48.414C236.963 49.1993 237.077 49.782 237.305 50.162C237.533 50.5167 237.913 50.7827 238.445 50.96L237.305 54.532C236.115 54.4307 235.139 54.152 234.379 53.696C233.645 53.24 233.075 52.5307 232.669 51.568C231.352 53.5947 229.338 54.608 226.627 54.608C224.626 54.608 223.03 54.038 221.839 52.898C220.674 51.7327 220.091 50.2253 220.091 48.376C220.091 46.172 220.889 44.4873 222.485 43.322C224.081 42.1567 226.374 41.574 229.363 41.574H231.681V40.586C231.681 39.3447 231.403 38.4833 230.845 38.002C230.288 37.5207 229.363 37.28 228.071 37.28C226.653 37.28 224.879 37.6347 222.751 38.344L221.535 34.734C224.043 33.746 226.526 33.252 228.983 33.252C231.719 33.252 233.733 33.8473 235.025 35.038C236.317 36.2033 236.963 37.9513 236.963 40.282V48.414ZM228.109 50.732C229.629 50.732 230.82 49.9847 231.681 48.49V44.652H229.895C226.982 44.652 225.525 45.7413 225.525 47.92C225.525 48.8067 225.741 49.5033 226.171 50.01C226.627 50.4913 227.273 50.732 228.109 50.732ZM258.847 25.842V54H254.097L253.793 51.53C252.374 53.582 250.449 54.608 248.017 54.608C245.534 54.608 243.634 53.658 242.317 51.758C241.025 49.8327 240.379 47.2233 240.379 43.93C240.379 41.8527 240.708 40.016 241.367 38.42C242.051 36.7987 243.013 35.532 244.255 34.62C245.496 33.708 246.927 33.252 248.549 33.252C250.423 33.252 252.057 33.9233 253.451 35.266V25.234L258.847 25.842ZM249.613 50.58C250.398 50.58 251.095 50.39 251.703 50.01C252.311 49.6047 252.893 48.984 253.451 48.148V39.142C252.919 38.5087 252.374 38.04 251.817 37.736C251.285 37.4067 250.664 37.242 249.955 37.242C248.713 37.242 247.738 37.7867 247.029 38.876C246.345 39.9653 246.003 41.65 246.003 43.93C246.003 46.3367 246.307 48.0467 246.915 49.06C247.548 50.0733 248.447 50.58 249.613 50.58ZM267.953 27.704L267.307 44.538H262.899L262.177 27.704H267.953ZM265.103 48.11C266.015 48.11 266.787 48.4267 267.421 49.06C268.054 49.6933 268.371 50.4533 268.371 51.34C268.371 52.2267 268.054 52.9993 267.421 53.658C266.787 54.2913 266.015 54.608 265.103 54.608C264.216 54.608 263.456 54.2913 262.823 53.658C262.189 52.9993 261.873 52.2267 261.873 51.34C261.873 50.4533 262.189 49.6933 262.823 49.06C263.456 48.4267 264.216 48.11 265.103 48.11Z" fill="#E3000F"/>
<path d="M39.6563 82C39.6563 83.7083 39.3438 85.1771 38.7188 86.4062C38.0938 87.6302 37.237 88.5729 36.1484 89.2344C35.0651 89.8906 33.8333 90.2187 32.4531 90.2187C31.0677 90.2187 29.8307 89.8906 28.7422 89.2344C27.6589 88.5729 26.8047 87.6276 26.1797 86.3984C25.5547 85.1693 25.2422 83.7031 25.2422 82C25.2422 80.2917 25.5547 78.8255 26.1797 77.6016C26.8047 76.3724 27.6589 75.4297 28.7422 74.7734C29.8307 74.112 31.0677 73.7812 32.4531 73.7812C33.8333 73.7812 35.0651 74.112 36.1484 74.7734C37.237 75.4297 38.0938 76.3724 38.7188 77.6016C39.3438 78.8255 39.6563 80.2917 39.6563 82ZM37.2656 82C37.2656 80.6979 37.0547 79.6016 36.6328 78.7109C36.2161 77.8151 35.6432 77.138 34.9141 76.6797C34.1901 76.2161 33.3698 75.9844 32.4531 75.9844C31.5313 75.9844 30.7083 76.2161 29.9844 76.6797C29.2604 77.138 28.6875 77.8151 28.2656 78.7109C27.849 79.6016 27.6406 80.6979 27.6406 82C27.6406 83.3021 27.849 84.401 28.2656 85.2969C28.6875 86.1875 29.2604 86.8646 29.9844 87.3281C30.7083 87.7865 31.5313 88.0156 32.4531 88.0156C33.3698 88.0156 34.1901 87.7865 34.9141 87.3281C35.6432 86.8646 36.2161 86.1875 36.6328 85.2969C37.0547 84.401 37.2656 83.3021 37.2656 82ZM30.1016 72.4141L28.5234 72.3594C28.5234 71.5 28.7578 70.8125 29.2266 70.2969C29.6953 69.7812 30.2708 69.5208 30.9531 69.5156C31.276 69.5156 31.5573 69.5703 31.7969 69.6797C32.0365 69.7839 32.2604 69.9062 32.4688 70.0469C32.6771 70.1875 32.888 70.3125 33.1016 70.4219C33.3151 70.526 33.5521 70.5781 33.8125 70.5781C34.1094 70.5729 34.3516 70.4583 34.5391 70.2344C34.7318 70.0052 34.8281 69.7214 34.8281 69.3828L36.375 69.4844C36.3698 70.3542 36.1328 71.0391 35.6641 71.5391C35.2005 72.0339 34.6276 72.2812 33.9453 72.2812C33.5755 72.2812 33.2682 72.2292 33.0234 72.125C32.7786 72.0156 32.5625 71.8932 32.375 71.7578C32.1875 71.6172 31.9948 71.4948 31.7969 71.3906C31.599 71.2812 31.362 71.2266 31.0859 71.2266C30.7995 71.2266 30.5625 71.3385 30.375 71.5625C30.1927 71.7865 30.1016 72.0703 30.1016 72.4141ZM44.2645 82.875V90H41.9285V74H44.2332V79.9531H44.3816C44.6629 79.3073 45.0926 78.7943 45.6707 78.4141C46.2488 78.0339 47.004 77.8438 47.9363 77.8438C48.7592 77.8438 49.478 78.013 50.0926 78.3516C50.7124 78.6901 51.1915 79.1953 51.5301 79.8672C51.8738 80.5339 52.0457 81.3672 52.0457 82.3672V90H49.7098V82.6484C49.7098 81.7682 49.4832 81.0859 49.0301 80.6016C48.577 80.112 47.9467 79.8672 47.1395 79.8672C46.5874 79.8672 46.0926 79.9844 45.6551 80.2187C45.2228 80.4531 44.8816 80.7969 44.6316 81.25C44.3868 81.6979 44.2645 82.2396 44.2645 82.875ZM60.2145 78V79.875H53.6598V78H60.2145ZM55.4176 75.125H57.7535V86.4766C57.7535 86.9297 57.8212 87.2708 57.9566 87.5C58.0921 87.724 58.2665 87.8776 58.4801 87.9609C58.6988 88.0391 58.9358 88.0781 59.191 88.0781C59.3785 88.0781 59.5426 88.0651 59.6832 88.0391C59.8238 88.013 59.9332 87.9922 60.0113 87.9766L60.4332 89.9062C60.2978 89.9583 60.1051 90.0104 59.8551 90.0625C59.6051 90.1198 59.2926 90.151 58.9176 90.1563C58.303 90.1667 57.7301 90.0573 57.1988 89.8281C56.6676 89.599 56.2379 89.2448 55.9098 88.7656C55.5816 88.2865 55.4176 87.6849 55.4176 86.9609V75.125ZM69.85 85.0234V78H72.1937V90H69.8969V87.9219H69.7719C69.4958 88.5625 69.0531 89.0964 68.4437 89.5234C67.8396 89.9453 67.087 90.1563 66.1859 90.1563C65.4151 90.1563 64.7328 89.987 64.1391 89.6484C63.5505 89.3047 63.087 88.7969 62.7484 88.125C62.4151 87.4531 62.2484 86.6224 62.2484 85.6328V78H64.5844V85.3516C64.5844 86.1693 64.8109 86.8203 65.2641 87.3047C65.7172 87.7891 66.3057 88.0312 67.0297 88.0312C67.4672 88.0312 67.9021 87.9219 68.3344 87.7031C68.7719 87.4844 69.1339 87.1536 69.4203 86.7109C69.712 86.2682 69.8552 85.7057 69.85 85.0234ZM77.1184 74V90H74.7824V74H77.1184ZM84.8828 90.2422C83.7005 90.2422 82.6823 89.9896 81.8281 89.4844C80.9792 88.974 80.3229 88.2578 79.8594 87.3359C79.401 86.4089 79.1719 85.3229 79.1719 84.0781C79.1719 82.849 79.401 81.7656 79.8594 80.8281C80.3229 79.8906 80.9688 79.1589 81.7969 78.6328C82.6302 78.1068 83.6042 77.8438 84.7188 77.8438C85.3958 77.8438 86.0521 77.9557 86.6875 78.1797C87.3229 78.4036 87.8932 78.7552 88.3984 79.2344C88.9036 79.7135 89.3021 80.3359 89.5938 81.1016C89.8854 81.862 90.0313 82.7865 90.0313 83.875V84.7031H80.4922V82.9531H87.7422C87.7422 82.3385 87.6172 81.7943 87.3672 81.3203C87.1172 80.8411 86.7656 80.4635 86.3125 80.1875C85.8646 79.9115 85.3385 79.7734 84.7344 79.7734C84.0781 79.7734 83.5052 79.9349 83.0156 80.2578C82.5313 80.5755 82.1563 80.9922 81.8906 81.5078C81.6302 82.0182 81.5 82.5729 81.5 83.1719V84.5391C81.5 85.3411 81.6406 86.0234 81.9219 86.5859C82.2083 87.1484 82.6068 87.5781 83.1172 87.875C83.6276 88.1667 84.224 88.3125 84.9062 88.3125C85.349 88.3125 85.7526 88.25 86.1172 88.125C86.4818 87.9948 86.7969 87.8021 87.0625 87.5469C87.3281 87.2917 87.5313 86.9766 87.6719 86.6016L89.8828 87C89.7057 87.651 89.388 88.2214 88.9297 88.7109C88.4766 89.1953 87.9063 89.5729 87.2188 89.8437C86.5365 90.1094 85.7578 90.2422 84.8828 90.2422ZM94.409 82.875V90H92.073V74H94.3777V79.9531H94.5262C94.8074 79.3073 95.2371 78.7943 95.8152 78.4141C96.3934 78.0339 97.1486 77.8438 98.0809 77.8438C98.9038 77.8438 99.6225 78.013 100.237 78.3516C100.857 78.6901 101.336 79.1953 101.675 79.8672C102.018 80.5339 102.19 81.3672 102.19 82.3672V90H99.8543V82.6484C99.8543 81.7682 99.6277 81.0859 99.1746 80.6016C98.7215 80.112 98.0913 79.8672 97.284 79.8672C96.7319 79.8672 96.2371 79.9844 95.7996 80.2187C95.3673 80.4531 95.0262 80.7969 94.7762 81.25C94.5314 81.6979 94.409 82.2396 94.409 82.875ZM110.359 78V79.875H103.804V78H110.359ZM105.562 75.125H107.898V86.4766C107.898 86.9297 107.966 87.2708 108.101 87.5C108.237 87.724 108.411 87.8776 108.625 87.9609C108.843 88.0391 109.08 88.0781 109.336 88.0781C109.523 88.0781 109.687 88.0651 109.828 88.0391C109.968 88.013 110.078 87.9922 110.156 87.9766L110.578 89.9062C110.442 89.9583 110.25 90.0104 110 90.0625C109.75 90.1198 109.437 90.151 109.062 90.1563C108.448 90.1667 107.875 90.0573 107.343 89.8281C106.812 89.599 106.382 89.2448 106.054 88.7656C105.726 88.2865 105.562 87.6849 105.562 86.9609V75.125ZM117.853 90V74H120.267V81.6406H120.462L127.173 74H130.212L123.759 81.2031L130.236 90H127.329L122.157 82.8516L120.267 85.0234V90H117.853ZM132.477 90V78H134.813V90H132.477ZM133.656 76.1484C133.25 76.1484 132.901 76.013 132.609 75.7422C132.323 75.4661 132.18 75.138 132.18 74.7578C132.18 74.3724 132.323 74.0443 132.609 73.7734C132.901 73.4974 133.25 73.3594 133.656 73.3594C134.063 73.3594 134.409 73.4974 134.695 73.7734C134.987 74.0443 135.133 74.3724 135.133 74.7578C135.133 75.138 134.987 75.4661 134.695 75.7422C134.409 76.013 134.063 76.1484 133.656 76.1484ZM137.405 90V78H139.663V79.9062H139.788C140.007 79.2604 140.392 78.7526 140.944 78.3828C141.501 78.0078 142.132 77.8203 142.835 77.8203C142.981 77.8203 143.152 77.8255 143.35 77.8359C143.554 77.8464 143.712 77.8594 143.827 77.875V80.1094C143.733 80.0833 143.567 80.0547 143.327 80.0234C143.087 79.987 142.848 79.9687 142.608 79.9687C142.056 79.9687 141.564 80.0859 141.132 80.3203C140.705 80.5495 140.366 80.8698 140.116 81.2812C139.866 81.6875 139.741 82.151 139.741 82.6719V90H137.405ZM145.298 78H147.634V90.7812C147.634 91.5833 147.489 92.2604 147.197 92.8125C146.91 93.3646 146.483 93.7839 145.916 94.0703C145.353 94.3568 144.658 94.5 143.83 94.5C143.746 94.5 143.668 94.5 143.595 94.5C143.517 94.5 143.436 94.4974 143.353 94.4922V92.4844C143.426 92.4844 143.491 92.4844 143.548 92.4844C143.601 92.4844 143.66 92.4844 143.728 92.4844C144.28 92.4844 144.679 92.3359 144.923 92.0391C145.173 91.7474 145.298 91.3229 145.298 90.7656V78ZM146.455 76.1484C146.048 76.1484 145.699 76.013 145.408 75.7422C145.121 75.4661 144.978 75.138 144.978 74.7578C144.978 74.3724 145.121 74.0443 145.408 73.7734C145.699 73.4974 146.048 73.3594 146.455 73.3594C146.861 73.3594 147.207 73.4974 147.494 73.7734C147.785 74.0443 147.931 74.3724 147.931 74.7578C147.931 75.138 147.785 75.4661 147.494 75.7422C147.207 76.013 146.861 76.1484 146.455 76.1484ZM153.719 90.2656C152.959 90.2656 152.271 90.125 151.657 89.8437C151.042 89.5573 150.555 89.1432 150.196 88.6016C149.842 88.0599 149.664 87.3958 149.664 86.6094C149.664 85.9323 149.795 85.375 150.055 84.9375C150.315 84.5 150.667 84.1536 151.11 83.8984C151.552 83.6432 152.047 83.4505 152.594 83.3203C153.141 83.1901 153.698 83.0911 154.266 83.0234C154.985 82.9401 155.568 82.8724 156.016 82.8203C156.464 82.763 156.789 82.6719 156.993 82.5469C157.196 82.4219 157.297 82.2187 157.297 81.9375V81.8828C157.297 81.2005 157.105 80.6719 156.719 80.2969C156.339 79.9219 155.771 79.7344 155.016 79.7344C154.23 79.7344 153.61 79.9089 153.157 80.2578C152.709 80.6016 152.399 80.9844 152.227 81.4062L150.032 80.9062C150.292 80.1771 150.672 79.5885 151.172 79.1406C151.677 78.6875 152.258 78.3594 152.914 78.1562C153.571 77.9479 154.261 77.8438 154.985 77.8438C155.464 77.8438 155.972 77.901 156.508 78.0156C157.05 78.125 157.555 78.3281 158.024 78.625C158.498 78.9219 158.886 79.3464 159.188 79.8984C159.49 80.4453 159.641 81.1563 159.641 82.0313V90H157.36V88.3594H157.266C157.115 88.6615 156.888 88.9583 156.586 89.25C156.284 89.5417 155.896 89.7839 155.422 89.9766C154.948 90.1693 154.381 90.2656 153.719 90.2656ZM154.227 88.3906C154.873 88.3906 155.425 88.263 155.883 88.0078C156.347 87.7526 156.698 87.4193 156.938 87.0078C157.183 86.5911 157.305 86.1458 157.305 85.6719V84.125C157.222 84.2083 157.06 84.2865 156.821 84.3594C156.586 84.4271 156.318 84.487 156.016 84.5391C155.714 84.5859 155.42 84.6302 155.133 84.6719C154.847 84.7083 154.607 84.7396 154.414 84.7656C153.961 84.8229 153.547 84.9193 153.172 85.0547C152.802 85.1901 152.506 85.3854 152.282 85.6406C152.063 85.8906 151.954 86.224 151.954 86.6406C151.954 87.2187 152.167 87.6562 152.594 87.9531C153.021 88.2448 153.565 88.3906 154.227 88.3906ZM171.195 80.9297L169.077 81.3047C168.989 81.0339 168.848 80.776 168.655 80.5312C168.468 80.2865 168.213 80.0859 167.89 79.9297C167.567 79.7734 167.163 79.6953 166.679 79.6953C166.017 79.6953 165.465 79.8437 165.023 80.1406C164.58 80.4323 164.359 80.8099 164.359 81.2734C164.359 81.6745 164.507 81.9974 164.804 82.2422C165.101 82.487 165.58 82.6875 166.241 82.8437L168.148 83.2812C169.252 83.5365 170.075 83.9297 170.616 84.4609C171.158 84.9922 171.429 85.6823 171.429 86.5313C171.429 87.25 171.221 87.8906 170.804 88.4531C170.392 89.0104 169.817 89.4479 169.077 89.7656C168.343 90.0833 167.491 90.2422 166.523 90.2422C165.179 90.2422 164.083 89.9557 163.234 89.3828C162.385 88.8047 161.864 87.9844 161.671 86.9219L163.929 86.5781C164.07 87.1667 164.359 87.612 164.796 87.9141C165.234 88.2109 165.804 88.3594 166.507 88.3594C167.273 88.3594 167.885 88.2005 168.343 87.8828C168.801 87.5599 169.03 87.1667 169.03 86.7031C169.03 86.3281 168.89 86.013 168.609 85.7578C168.333 85.5026 167.908 85.3099 167.335 85.1797L165.304 84.7344C164.184 84.4792 163.356 84.0729 162.82 83.5156C162.288 82.9583 162.023 82.2526 162.023 81.3984C162.023 80.6901 162.221 80.0703 162.616 79.5391C163.012 79.0078 163.559 78.5937 164.257 78.2969C164.955 77.9948 165.754 77.8438 166.655 77.8438C167.952 77.8438 168.973 78.125 169.718 78.6875C170.463 79.2448 170.955 79.9922 171.195 80.9297ZM179.049 78V79.875H172.494V78H179.049ZM174.252 75.125H176.588V86.4766C176.588 86.9297 176.656 87.2708 176.791 87.5C176.926 87.724 177.101 87.8776 177.314 87.9609C177.533 88.0391 177.77 88.0781 178.025 88.0781C178.213 88.0781 178.377 88.0651 178.518 88.0391C178.658 88.013 178.768 87.9922 178.846 87.9766L179.268 89.9062C179.132 89.9583 178.939 90.0104 178.689 90.0625C178.439 90.1198 178.127 90.151 177.752 90.1563C177.137 90.1667 176.564 90.0573 176.033 89.8281C175.502 89.599 175.072 89.2448 174.744 88.7656C174.416 88.2865 174.252 87.6849 174.252 86.9609V75.125ZM188.684 85.0234V78H191.028V90H188.731V87.9219H188.606C188.33 88.5625 187.887 89.0964 187.278 89.5234C186.674 89.9453 185.921 90.1563 185.02 90.1563C184.249 90.1563 183.567 89.987 182.973 89.6484C182.385 89.3047 181.921 88.7969 181.583 88.125C181.249 87.4531 181.083 86.6224 181.083 85.6328V78H183.419V85.3516C183.419 86.1693 183.645 86.8203 184.098 87.3047C184.552 87.7891 185.14 88.0312 185.864 88.0312C186.302 88.0312 186.736 87.9219 187.169 87.7031C187.606 87.4844 187.968 87.1536 188.255 86.7109C188.546 86.2682 188.69 85.7057 188.684 85.0234ZM202.609 80.9297L200.492 81.3047C200.403 81.0339 200.263 80.776 200.07 80.5312C199.882 80.2865 199.627 80.0859 199.304 79.9297C198.981 79.7734 198.578 79.6953 198.093 79.6953C197.432 79.6953 196.88 79.8437 196.437 80.1406C195.994 80.4323 195.773 80.8099 195.773 81.2734C195.773 81.6745 195.921 81.9974 196.218 82.2422C196.515 82.487 196.994 82.6875 197.656 82.8437L199.562 83.2812C200.666 83.5365 201.489 83.9297 202.031 84.4609C202.573 84.9922 202.843 85.6823 202.843 86.5313C202.843 87.25 202.635 87.8906 202.218 88.4531C201.807 89.0104 201.231 89.4479 200.492 89.7656C199.757 90.0833 198.906 90.2422 197.937 90.2422C196.593 90.2422 195.497 89.9557 194.648 89.3828C193.799 88.8047 193.278 87.9844 193.086 86.9219L195.343 86.5781C195.484 87.1667 195.773 87.612 196.211 87.9141C196.648 88.2109 197.218 88.3594 197.921 88.3594C198.687 88.3594 199.299 88.2005 199.757 87.8828C200.216 87.5599 200.445 87.1667 200.445 86.7031C200.445 86.3281 200.304 86.013 200.023 85.7578C199.747 85.5026 199.323 85.3099 198.75 85.1797L196.718 84.7344C195.599 84.4792 194.77 84.0729 194.234 83.5156C193.703 82.9583 193.437 82.2526 193.437 81.3984C193.437 80.6901 193.635 80.0703 194.031 79.5391C194.427 79.0078 194.974 78.5937 195.671 78.2969C196.369 77.9948 197.169 77.8438 198.07 77.8438C199.367 77.8438 200.388 78.125 201.132 78.6875C201.877 79.2448 202.369 79.9922 202.609 80.9297ZM210.034 90.2422C208.851 90.2422 207.833 89.9896 206.979 89.4844C206.13 88.974 205.474 88.2578 205.01 87.3359C204.552 86.4089 204.323 85.3229 204.323 84.0781C204.323 82.849 204.552 81.7656 205.01 80.8281C205.474 79.8906 206.12 79.1589 206.948 78.6328C207.781 78.1068 208.755 77.8438 209.87 77.8438C210.547 77.8438 211.203 77.9557 211.838 78.1797C212.474 78.4036 213.044 78.7552 213.549 79.2344C214.054 79.7135 214.453 80.3359 214.745 81.1016C215.036 81.862 215.182 82.7865 215.182 83.875V84.7031H205.643V82.9531H212.893C212.893 82.3385 212.768 81.7943 212.518 81.3203C212.268 80.8411 211.916 80.4635 211.463 80.1875C211.015 79.9115 210.489 79.7734 209.885 79.7734C209.229 79.7734 208.656 79.9349 208.166 80.2578C207.682 80.5755 207.307 80.9922 207.041 81.5078C206.781 82.0182 206.651 82.5729 206.651 83.1719V84.5391C206.651 85.3411 206.791 86.0234 207.073 86.5859C207.359 87.1484 207.758 87.5781 208.268 87.875C208.778 88.1667 209.375 88.3125 210.057 88.3125C210.5 88.3125 210.903 88.25 211.268 88.125C211.633 87.9948 211.948 87.8021 212.213 87.5469C212.479 87.2917 212.682 86.9766 212.823 86.6016L215.034 87C214.857 87.651 214.539 88.2214 214.08 88.7109C213.627 89.1953 213.057 89.5729 212.37 89.8437C211.687 90.1094 210.909 90.2422 210.034 90.2422ZM226.988 90.2344C226.02 90.2344 225.155 89.987 224.395 89.4922C223.639 88.9922 223.046 88.2812 222.613 87.3594C222.186 86.4323 221.973 85.3203 221.973 84.0234C221.973 82.7266 222.189 81.6172 222.621 80.6953C223.059 79.7734 223.658 79.0677 224.418 78.5781C225.178 78.0885 226.04 77.8438 227.004 77.8438C227.749 77.8438 228.348 77.9688 228.801 78.2187C229.259 78.4635 229.613 78.75 229.863 79.0781C230.118 79.4062 230.316 79.6953 230.457 79.9453H230.598V74H232.934V90H230.652V88.1328H230.457C230.316 88.388 230.113 88.6797 229.848 89.0078C229.587 89.3359 229.228 89.6224 228.77 89.8672C228.311 90.112 227.717 90.2344 226.988 90.2344ZM227.504 88.2422C228.176 88.2422 228.743 88.0651 229.207 87.7109C229.676 87.3516 230.03 86.8542 230.27 86.2188C230.514 85.5833 230.637 84.8437 230.637 84C230.637 83.1667 230.517 82.4375 230.277 81.8125C230.038 81.1875 229.686 80.7005 229.223 80.3516C228.759 80.0026 228.186 79.8281 227.504 79.8281C226.801 79.8281 226.215 80.0104 225.746 80.375C225.277 80.7396 224.923 81.237 224.684 81.8672C224.449 82.4974 224.332 83.2083 224.332 84C224.332 84.8021 224.452 85.5234 224.691 86.1641C224.931 86.8047 225.285 87.3125 225.754 87.6875C226.228 88.0573 226.811 88.2422 227.504 88.2422ZM235.718 90V78H238.054V90H235.718ZM236.897 76.1484C236.491 76.1484 236.142 76.013 235.85 75.7422C235.564 75.4661 235.421 75.138 235.421 74.7578C235.421 74.3724 235.564 74.0443 235.85 73.7734C236.142 73.4974 236.491 73.3594 236.897 73.3594C237.304 73.3594 237.65 73.4974 237.936 73.7734C238.228 74.0443 238.374 74.3724 238.374 74.7578C238.374 75.138 238.228 75.4661 237.936 75.7422C237.65 76.013 237.304 76.1484 236.897 76.1484ZM245.677 94.75C244.724 94.75 243.904 94.625 243.216 94.375C242.534 94.125 241.977 93.7943 241.545 93.3828C241.112 92.9714 240.789 92.5208 240.576 92.0313L242.584 91.2031C242.724 91.4323 242.912 91.6745 243.146 91.9297C243.386 92.1901 243.709 92.4115 244.115 92.5938C244.526 92.776 245.055 92.8672 245.701 92.8672C246.586 92.8672 247.318 92.651 247.896 92.2188C248.474 91.7917 248.763 91.1094 248.763 90.1719V87.8125H248.615C248.474 88.0677 248.271 88.3516 248.005 88.6641C247.745 88.9766 247.386 89.2474 246.927 89.4766C246.469 89.7057 245.873 89.8203 245.138 89.8203C244.19 89.8203 243.336 89.599 242.576 89.1562C241.821 88.7083 241.222 88.0495 240.779 87.1797C240.341 86.3047 240.123 85.2292 240.123 83.9531C240.123 82.6771 240.339 81.5833 240.771 80.6719C241.209 79.7604 241.808 79.0625 242.568 78.5781C243.328 78.0885 244.19 77.8438 245.154 77.8438C245.899 77.8438 246.5 77.9688 246.959 78.2187C247.417 78.4635 247.774 78.75 248.029 79.0781C248.289 79.4062 248.49 79.6953 248.63 79.9453H248.802V78H251.091V90.2656C251.091 91.2969 250.852 92.1432 250.373 92.8047C249.893 93.4661 249.245 93.9557 248.427 94.2734C247.615 94.5911 246.698 94.75 245.677 94.75ZM245.654 87.8828C246.326 87.8828 246.893 87.7266 247.357 87.4141C247.826 87.0964 248.18 86.6432 248.42 86.0547C248.664 85.4609 248.787 84.75 248.787 83.9219C248.787 83.1146 248.667 82.4036 248.427 81.7891C248.188 81.1745 247.836 80.6953 247.373 80.3516C246.909 80.0026 246.336 79.8281 245.654 79.8281C244.951 79.8281 244.365 80.0104 243.896 80.375C243.427 80.7344 243.073 81.224 242.834 81.8437C242.599 82.4635 242.482 83.1562 242.482 83.9219C242.482 84.7083 242.602 85.3984 242.841 85.9922C243.081 86.5859 243.435 87.0495 243.904 87.3828C244.378 87.7161 244.961 87.8828 245.654 87.8828ZM253.674 90V78H256.01V90H253.674ZM254.854 76.1484C254.448 76.1484 254.099 76.013 253.807 75.7422C253.521 75.4661 253.377 75.138 253.377 74.7578C253.377 74.3724 253.521 74.0443 253.807 73.7734C254.099 73.4974 254.448 73.3594 254.854 73.3594C255.26 73.3594 255.607 73.4974 255.893 73.7734C256.185 74.0443 256.33 74.3724 256.33 74.7578C256.33 75.138 256.185 75.4661 255.893 75.7422C255.607 76.013 255.26 76.1484 254.854 76.1484ZM258.603 94.5V78H260.884V79.9453H261.079C261.215 79.6953 261.41 79.4062 261.665 79.0781C261.92 78.75 262.275 78.4635 262.728 78.2187C263.181 77.9688 263.78 77.8438 264.525 77.8438C265.493 77.8438 266.358 78.0885 267.118 78.5781C267.879 79.0677 268.475 79.7734 268.907 80.6953C269.345 81.6172 269.564 82.7266 269.564 84.0234C269.564 85.3203 269.348 86.4323 268.915 87.3594C268.483 88.2812 267.889 88.9922 267.134 89.4922C266.379 89.987 265.517 90.2344 264.548 90.2344C263.819 90.2344 263.223 90.112 262.759 89.8672C262.301 89.6224 261.941 89.3359 261.681 89.0078C261.42 88.6797 261.22 88.388 261.079 88.1328H260.939V94.5H258.603ZM260.892 84C260.892 84.8437 261.014 85.5833 261.259 86.2188C261.504 86.8542 261.858 87.3516 262.321 87.7109C262.785 88.0651 263.353 88.2422 264.025 88.2422C264.723 88.2422 265.306 88.0573 265.775 87.6875C266.243 87.3125 266.598 86.8047 266.837 86.1641C267.082 85.5234 267.204 84.8021 267.204 84C267.204 83.2083 267.085 82.4974 266.845 81.8672C266.611 81.237 266.256 80.7396 265.782 80.375C265.314 80.0104 264.728 79.8281 264.025 79.8281C263.348 79.8281 262.775 80.0026 262.306 80.3516C261.842 80.7005 261.491 81.1875 261.251 81.8125C261.012 82.4375 260.892 83.1667 260.892 84ZM275.123 90.2656C274.363 90.2656 273.675 90.125 273.061 89.8437C272.446 89.5573 271.959 89.1432 271.6 88.6016C271.245 88.0599 271.068 87.3958 271.068 86.6094C271.068 85.9323 271.199 85.375 271.459 84.9375C271.719 84.5 272.071 84.1536 272.514 83.8984C272.956 83.6432 273.451 83.4505 273.998 83.3203C274.545 83.1901 275.102 83.0911 275.67 83.0234C276.389 82.9401 276.972 82.8724 277.42 82.8203C277.868 82.763 278.193 82.6719 278.396 82.5469C278.6 82.4219 278.701 82.2187 278.701 81.9375V81.8828C278.701 81.2005 278.508 80.6719 278.123 80.2969C277.743 79.9219 277.175 79.7344 276.42 79.7344C275.633 79.7344 275.014 79.9089 274.561 80.2578C274.113 80.6016 273.803 80.9844 273.631 81.4062L271.436 80.9062C271.696 80.1771 272.076 79.5885 272.576 79.1406C273.081 78.6875 273.662 78.3594 274.318 78.1562C274.975 77.9479 275.665 77.8438 276.389 77.8438C276.868 77.8438 277.376 77.901 277.912 78.0156C278.454 78.125 278.959 78.3281 279.428 78.625C279.902 78.9219 280.29 79.3464 280.592 79.8984C280.894 80.4453 281.045 81.1563 281.045 82.0313V90H278.764V88.3594H278.67C278.519 88.6615 278.292 88.9583 277.99 89.25C277.688 89.5417 277.3 89.7839 276.826 89.9766C276.352 90.1693 275.785 90.2656 275.123 90.2656ZM275.631 88.3906C276.277 88.3906 276.829 88.263 277.287 88.0078C277.751 87.7526 278.102 87.4193 278.342 87.0078C278.587 86.5911 278.709 86.1458 278.709 85.6719V84.125C278.626 84.2083 278.464 84.2865 278.225 84.3594C277.99 84.4271 277.722 84.487 277.42 84.5391C277.118 84.5859 276.824 84.6302 276.537 84.6719C276.251 84.7083 276.011 84.7396 275.818 84.7656C275.365 84.8229 274.951 84.9193 274.576 85.0547C274.206 85.1901 273.91 85.3854 273.686 85.6406C273.467 85.8906 273.357 86.224 273.357 86.6406C273.357 87.2187 273.571 87.6562 273.998 87.9531C274.425 88.2448 274.969 88.3906 275.631 88.3906ZM285.755 85.9297L285.739 83.0781H286.145L290.927 78H293.723L288.27 83.7812H287.903L285.755 85.9297ZM283.606 90V74H285.942V90H283.606ZM291.184 90L286.888 84.2969L288.497 82.6641L294.052 90H291.184ZM299.98 90.2422C298.798 90.2422 297.78 89.9896 296.925 89.4844C296.076 88.974 295.42 88.2578 294.957 87.3359C294.498 86.4089 294.269 85.3229 294.269 84.0781C294.269 82.849 294.498 81.7656 294.957 80.8281C295.42 79.8906 296.066 79.1589 296.894 78.6328C297.727 78.1068 298.701 77.8438 299.816 77.8438C300.493 77.8438 301.149 77.9557 301.785 78.1797C302.42 78.4036 302.99 78.7552 303.496 79.2344C304.001 79.7135 304.399 80.3359 304.691 81.1016C304.983 81.862 305.129 82.7865 305.129 83.875V84.7031H295.589V82.9531H302.839C302.839 82.3385 302.714 81.7943 302.464 81.3203C302.214 80.8411 301.863 80.4635 301.41 80.1875C300.962 79.9115 300.436 79.7734 299.832 79.7734C299.175 79.7734 298.602 79.9349 298.113 80.2578C297.629 80.5755 297.254 80.9922 296.988 81.5078C296.727 82.0182 296.597 82.5729 296.597 83.1719V84.5391C296.597 85.3411 296.738 86.0234 297.019 86.5859C297.306 87.1484 297.704 87.5781 298.214 87.875C298.725 88.1667 299.321 88.3125 300.004 88.3125C300.446 88.3125 300.85 88.25 301.214 88.125C301.579 87.9948 301.894 87.8021 302.16 87.5469C302.425 87.2917 302.629 86.9766 302.769 86.6016L304.98 87C304.803 87.651 304.485 88.2214 304.027 88.7109C303.574 89.1953 303.004 89.5729 302.316 89.8437C301.634 90.1094 300.855 90.2422 299.98 90.2422ZM312.772 78V79.875H306.217V78H312.772ZM307.975 75.125H310.311V86.4766C310.311 86.9297 310.379 87.2708 310.514 87.5C310.649 87.724 310.824 87.8776 311.038 87.9609C311.256 88.0391 311.493 88.0781 311.748 88.0781C311.936 88.0781 312.1 88.0651 312.241 88.0391C312.381 88.013 312.491 87.9922 312.569 87.9766L312.991 89.9062C312.855 89.9583 312.663 90.0104 312.413 90.0625C312.163 90.1198 311.85 90.151 311.475 90.1563C310.86 90.1667 310.288 90.0573 309.756 89.8281C309.225 89.599 308.795 89.2448 308.467 88.7656C308.139 88.2865 307.975 87.6849 307.975 86.9609V75.125ZM314.806 90V78H317.142V90H314.806ZM315.986 76.1484C315.579 76.1484 315.23 76.013 314.939 75.7422C314.652 75.4661 314.509 75.138 314.509 74.7578C314.509 74.3724 314.652 74.0443 314.939 73.7734C315.23 73.4974 315.579 73.3594 315.986 73.3594C316.392 73.3594 316.738 73.4974 317.025 73.7734C317.316 74.0443 317.462 74.3724 317.462 74.7578C317.462 75.138 317.316 75.4661 317.025 75.7422C316.738 76.013 316.392 76.1484 315.986 76.1484ZM27.9063 102V118H25.5703V102H27.9063ZM30.4988 118V106H32.8348V118H30.4988ZM31.6785 104.148C31.2723 104.148 30.9233 104.013 30.6316 103.742C30.3452 103.466 30.202 103.138 30.202 102.758C30.202 102.372 30.3452 102.044 30.6316 101.773C30.9233 101.497 31.2723 101.359 31.6785 101.359C32.0848 101.359 32.4311 101.497 32.7176 101.773C33.0092 102.044 33.1551 102.372 33.1551 102.758C33.1551 103.138 33.0092 103.466 32.7176 103.742C32.4311 104.013 32.0848 104.148 31.6785 104.148ZM40.4586 122.75C39.5055 122.75 38.6852 122.625 37.9977 122.375C37.3154 122.125 36.7581 121.794 36.3258 121.383C35.8935 120.971 35.5706 120.521 35.357 120.031L37.3648 119.203C37.5055 119.432 37.693 119.674 37.9273 119.93C38.1669 120.19 38.4898 120.411 38.8961 120.594C39.3076 120.776 39.8362 120.867 40.482 120.867C41.3674 120.867 42.0992 120.651 42.6773 120.219C43.2555 119.792 43.5445 119.109 43.5445 118.172V115.812H43.3961C43.2555 116.068 43.0523 116.352 42.7867 116.664C42.5263 116.977 42.1669 117.247 41.7086 117.477C41.2503 117.706 40.6539 117.82 39.9195 117.82C38.9716 117.82 38.1174 117.599 37.357 117.156C36.6018 116.708 36.0029 116.049 35.5602 115.18C35.1227 114.305 34.9039 113.229 34.9039 111.953C34.9039 110.677 35.1201 109.583 35.5523 108.672C35.9898 107.76 36.5888 107.062 37.3492 106.578C38.1096 106.089 38.9716 105.844 39.9352 105.844C40.6799 105.844 41.2815 105.969 41.7398 106.219C42.1982 106.464 42.5549 106.75 42.8102 107.078C43.0706 107.406 43.2711 107.695 43.4117 107.945H43.5836V106H45.8727V118.266C45.8727 119.297 45.6331 120.143 45.1539 120.805C44.6747 121.466 44.0263 121.956 43.2086 122.273C42.3961 122.591 41.4794 122.75 40.4586 122.75ZM40.4352 115.883C41.107 115.883 41.6747 115.727 42.1383 115.414C42.607 115.096 42.9612 114.643 43.2008 114.055C43.4456 113.461 43.568 112.75 43.568 111.922C43.568 111.115 43.4482 110.404 43.2086 109.789C42.969 109.174 42.6174 108.695 42.1539 108.352C41.6904 108.003 41.1174 107.828 40.4352 107.828C39.732 107.828 39.1461 108.01 38.6773 108.375C38.2086 108.734 37.8544 109.224 37.6148 109.844C37.3805 110.464 37.2633 111.156 37.2633 111.922C37.2633 112.708 37.3831 113.398 37.6227 113.992C37.8622 114.586 38.2164 115.049 38.6852 115.383C39.1591 115.716 39.7424 115.883 40.4352 115.883ZM48.4555 118V106H50.7914V118H48.4555ZM49.6352 104.148C49.2289 104.148 48.8799 104.013 48.5883 103.742C48.3018 103.466 48.1586 103.138 48.1586 102.758C48.1586 102.372 48.3018 102.044 48.5883 101.773C48.8799 101.497 49.2289 101.359 49.6352 101.359C50.0414 101.359 50.3878 101.497 50.6742 101.773C50.9659 102.044 51.1117 102.372 51.1117 102.758C51.1117 103.138 50.9659 103.466 50.6742 103.742C50.3878 104.013 50.0414 104.148 49.6352 104.148ZM53.384 122.5V106H55.6652V107.945H55.8605C55.996 107.695 56.1913 107.406 56.4465 107.078C56.7017 106.75 57.0559 106.464 57.509 106.219C57.9621 105.969 58.5611 105.844 59.3059 105.844C60.2746 105.844 61.1392 106.089 61.8996 106.578C62.66 107.068 63.2564 107.773 63.6887 108.695C64.1262 109.617 64.3449 110.727 64.3449 112.023C64.3449 113.32 64.1288 114.432 63.6965 115.359C63.2642 116.281 62.6704 116.992 61.9152 117.492C61.16 117.987 60.298 118.234 59.3293 118.234C58.6001 118.234 58.0038 118.112 57.5402 117.867C57.0819 117.622 56.7225 117.336 56.4621 117.008C56.2017 116.68 56.0012 116.388 55.8605 116.133H55.7199V122.5H53.384ZM55.673 112C55.673 112.844 55.7954 113.583 56.0402 114.219C56.285 114.854 56.6392 115.352 57.1027 115.711C57.5663 116.065 58.134 116.242 58.8059 116.242C59.5038 116.242 60.0871 116.057 60.5559 115.687C61.0246 115.312 61.3788 114.805 61.6184 114.164C61.8632 113.523 61.9855 112.802 61.9855 112C61.9855 111.208 61.8658 110.497 61.6262 109.867C61.3918 109.237 61.0376 108.74 60.5637 108.375C60.0949 108.01 59.509 107.828 58.8059 107.828C58.1288 107.828 57.5559 108.003 57.0871 108.352C56.6236 108.701 56.272 109.187 56.0324 109.812C55.7928 110.437 55.673 111.167 55.673 112ZM69.9043 118.266C69.1439 118.266 68.4564 118.125 67.8418 117.844C67.2272 117.557 66.7402 117.143 66.3809 116.602C66.0267 116.06 65.8496 115.396 65.8496 114.609C65.8496 113.932 65.9798 113.375 66.2402 112.937C66.5007 112.5 66.8522 112.154 67.2949 111.898C67.7376 111.643 68.2324 111.451 68.7793 111.32C69.3262 111.19 69.8835 111.091 70.4512 111.023C71.1699 110.94 71.7533 110.872 72.2012 110.82C72.6491 110.763 72.9746 110.672 73.1777 110.547C73.3809 110.422 73.4824 110.219 73.4824 109.937V109.883C73.4824 109.201 73.2897 108.672 72.9043 108.297C72.5241 107.922 71.9564 107.734 71.2012 107.734C70.4147 107.734 69.7949 107.909 69.3418 108.258C68.8939 108.602 68.584 108.984 68.4121 109.406L66.2168 108.906C66.4772 108.177 66.8574 107.589 67.3574 107.141C67.8626 106.687 68.4434 106.359 69.0996 106.156C69.7559 105.948 70.446 105.844 71.1699 105.844C71.6491 105.844 72.1569 105.901 72.6934 106.016C73.235 106.125 73.7402 106.328 74.209 106.625C74.6829 106.922 75.071 107.346 75.373 107.898C75.6751 108.445 75.8262 109.156 75.8262 110.031V118H73.5449V116.359H73.4512C73.3001 116.661 73.0736 116.958 72.7715 117.25C72.4694 117.542 72.0814 117.784 71.6074 117.977C71.1335 118.169 70.5658 118.266 69.9043 118.266ZM70.4121 116.391C71.0579 116.391 71.61 116.263 72.0684 116.008C72.5319 115.753 72.8835 115.419 73.123 115.008C73.3678 114.591 73.4902 114.146 73.4902 113.672V112.125C73.4069 112.208 73.2454 112.286 73.0059 112.359C72.7715 112.427 72.5033 112.487 72.2012 112.539C71.8991 112.586 71.6048 112.63 71.3184 112.672C71.0319 112.708 70.7923 112.74 70.5996 112.766C70.1465 112.823 69.7324 112.919 69.3574 113.055C68.9876 113.19 68.6908 113.385 68.4668 113.641C68.248 113.891 68.1387 114.224 68.1387 114.641C68.1387 115.219 68.3522 115.656 68.7793 115.953C69.2064 116.245 69.7507 116.391 70.4121 116.391ZM68.998 104.117C68.6283 104.117 68.3053 103.982 68.0293 103.711C67.7533 103.435 67.6152 103.117 67.6152 102.758C67.6152 102.367 67.7533 102.042 68.0293 101.781C68.3053 101.521 68.6283 101.391 68.998 101.391C69.3887 101.391 69.7142 101.521 69.9746 101.781C70.2402 102.042 70.373 102.367 70.373 102.758C70.373 103.117 70.2402 103.435 69.9746 103.711C69.7142 103.982 69.3887 104.117 68.998 104.117ZM73.5918 104.117C73.222 104.117 72.8991 103.982 72.623 103.711C72.347 103.435 72.209 103.117 72.209 102.758C72.209 102.367 72.347 102.042 72.623 101.781C72.8991 101.521 73.222 101.391 73.5918 101.391C73.9824 101.391 74.3079 101.521 74.5684 101.781C74.834 102.042 74.9668 102.367 74.9668 102.758C74.9668 103.117 74.834 103.435 74.5684 103.711C74.3079 103.982 73.9824 104.117 73.5918 104.117ZM81.8797 118.266C81.1193 118.266 80.4318 118.125 79.8172 117.844C79.2026 117.557 78.7156 117.143 78.3563 116.602C78.0021 116.06 77.825 115.396 77.825 114.609C77.825 113.932 77.9552 113.375 78.2156 112.937C78.476 112.5 78.8276 112.154 79.2703 111.898C79.713 111.643 80.2078 111.451 80.7547 111.32C81.3016 111.19 81.8589 111.091 82.4266 111.023C83.1453 110.94 83.7286 110.872 84.1766 110.82C84.6245 110.763 84.95 110.672 85.1531 110.547C85.3563 110.422 85.4578 110.219 85.4578 109.937V109.883C85.4578 109.201 85.2651 108.672 84.8797 108.297C84.4995 107.922 83.9318 107.734 83.1766 107.734C82.3901 107.734 81.7703 107.909 81.3172 108.258C80.8693 108.602 80.5594 108.984 80.3875 109.406L78.1922 108.906C78.4526 108.177 78.8328 107.589 79.3328 107.141C79.838 106.687 80.4188 106.359 81.075 106.156C81.7313 105.948 82.4214 105.844 83.1453 105.844C83.6245 105.844 84.1323 105.901 84.6688 106.016C85.2104 106.125 85.7156 106.328 86.1844 106.625C86.6583 106.922 87.0464 107.346 87.3484 107.898C87.6505 108.445 87.8016 109.156 87.8016 110.031V118H85.5203V116.359H85.4266C85.2755 116.661 85.049 116.958 84.7469 117.25C84.4448 117.542 84.0568 117.784 83.5828 117.977C83.1089 118.169 82.5411 118.266 81.8797 118.266ZM82.3875 116.391C83.0333 116.391 83.5854 116.263 84.0438 116.008C84.5073 115.753 84.8589 115.419 85.0984 115.008C85.3432 114.591 85.4656 114.146 85.4656 113.672V112.125C85.3823 112.208 85.2208 112.286 84.9813 112.359C84.7469 112.427 84.4786 112.487 84.1766 112.539C83.8745 112.586 83.5802 112.63 83.2938 112.672C83.0073 112.708 82.7677 112.74 82.575 112.766C82.1219 112.823 81.7078 112.919 81.3328 113.055C80.963 113.19 80.6661 113.385 80.4422 113.641C80.2234 113.891 80.1141 114.224 80.1141 114.641C80.1141 115.219 80.3276 115.656 80.7547 115.953C81.1818 116.245 81.726 116.391 82.3875 116.391ZM80.9734 104.117C80.6036 104.117 80.2807 103.982 80.0047 103.711C79.7286 103.435 79.5906 103.117 79.5906 102.758C79.5906 102.367 79.7286 102.042 80.0047 101.781C80.2807 101.521 80.6036 101.391 80.9734 101.391C81.3641 101.391 81.6896 101.521 81.95 101.781C82.2156 102.042 82.3484 102.367 82.3484 102.758C82.3484 103.117 82.2156 103.435 81.95 103.711C81.6896 103.982 81.3641 104.117 80.9734 104.117ZM85.5672 104.117C85.1974 104.117 84.8745 103.982 84.5984 103.711C84.3224 103.435 84.1844 103.117 84.1844 102.758C84.1844 102.367 84.3224 102.042 84.5984 101.781C84.8745 101.521 85.1974 101.391 85.5672 101.391C85.9578 101.391 86.2833 101.521 86.5438 101.781C86.8094 102.042 86.9422 102.367 86.9422 102.758C86.9422 103.117 86.8094 103.435 86.5438 103.711C86.2833 103.982 85.9578 104.117 85.5672 104.117ZM99.3551 108.93L97.2379 109.305C97.1494 109.034 97.0087 108.776 96.816 108.531C96.6285 108.286 96.3733 108.086 96.0504 107.93C95.7275 107.773 95.3238 107.695 94.8395 107.695C94.178 107.695 93.6259 107.844 93.1832 108.141C92.7405 108.432 92.5191 108.81 92.5191 109.273C92.5191 109.674 92.6676 109.997 92.9645 110.242C93.2613 110.487 93.7405 110.687 94.402 110.844L96.3082 111.281C97.4124 111.536 98.2353 111.93 98.777 112.461C99.3186 112.992 99.5895 113.682 99.5895 114.531C99.5895 115.25 99.3811 115.891 98.9645 116.453C98.553 117.01 97.9775 117.448 97.2379 117.766C96.5035 118.083 95.652 118.242 94.6832 118.242C93.3395 118.242 92.2431 117.956 91.3941 117.383C90.5452 116.805 90.0244 115.984 89.8316 114.922L92.0895 114.578C92.2301 115.167 92.5191 115.612 92.9566 115.914C93.3941 116.211 93.9645 116.359 94.6676 116.359C95.4332 116.359 96.0452 116.201 96.5035 115.883C96.9619 115.56 97.191 115.167 97.191 114.703C97.191 114.328 97.0504 114.013 96.7691 113.758C96.4931 113.503 96.0686 113.31 95.4957 113.18L93.4645 112.734C92.3447 112.479 91.5165 112.073 90.9801 111.516C90.4488 110.958 90.1832 110.253 90.1832 109.398C90.1832 108.69 90.3811 108.07 90.777 107.539C91.1728 107.008 91.7197 106.594 92.4176 106.297C93.1155 105.995 93.915 105.844 94.816 105.844C96.1129 105.844 97.1337 106.125 97.8785 106.687C98.6233 107.245 99.1155 107.992 99.3551 108.93ZM109.209 113.023V106H111.553V118H109.256V115.922H109.131C108.855 116.563 108.412 117.096 107.803 117.523C107.199 117.945 106.446 118.156 105.545 118.156C104.774 118.156 104.092 117.987 103.498 117.648C102.91 117.305 102.446 116.797 102.108 116.125C101.774 115.453 101.608 114.622 101.608 113.633V106H103.944V113.352C103.944 114.169 104.17 114.82 104.623 115.305C105.077 115.789 105.665 116.031 106.389 116.031C106.827 116.031 107.261 115.922 107.694 115.703C108.131 115.484 108.493 115.154 108.78 114.711C109.071 114.268 109.215 113.706 109.209 113.023ZM128.406 108.93L126.289 109.305C126.201 109.034 126.06 108.776 125.867 108.531C125.68 108.286 125.424 108.086 125.102 107.93C124.779 107.773 124.375 107.695 123.891 107.695C123.229 107.695 122.677 107.844 122.234 108.141C121.792 108.432 121.57 108.81 121.57 109.273C121.57 109.674 121.719 109.997 122.016 110.242C122.313 110.487 122.792 110.687 123.453 110.844L125.359 111.281C126.464 111.536 127.286 111.93 127.828 112.461C128.37 112.992 128.641 113.682 128.641 114.531C128.641 115.25 128.432 115.891 128.016 116.453C127.604 117.01 127.029 117.448 126.289 117.766C125.555 118.083 124.703 118.242 123.734 118.242C122.391 118.242 121.294 117.956 120.445 117.383C119.596 116.805 119.076 115.984 118.883 114.922L121.141 114.578C121.281 115.167 121.57 115.612 122.008 115.914C122.445 116.211 123.016 116.359 123.719 116.359C124.484 116.359 125.096 116.201 125.555 115.883C126.013 115.56 126.242 115.167 126.242 114.703C126.242 114.328 126.102 114.013 125.82 113.758C125.544 113.503 125.12 113.31 124.547 113.18L122.516 112.734C121.396 112.479 120.568 112.073 120.031 111.516C119.5 110.958 119.234 110.253 119.234 109.398C119.234 108.69 119.432 108.07 119.828 107.539C120.224 107.008 120.771 106.594 121.469 106.297C122.167 105.995 122.966 105.844 123.867 105.844C125.164 105.844 126.185 106.125 126.93 106.687C127.674 107.245 128.167 107.992 128.406 108.93ZM134.151 118.266C133.391 118.266 132.703 118.125 132.089 117.844C131.474 117.557 130.987 117.143 130.628 116.602C130.274 116.06 130.096 115.396 130.096 114.609C130.096 113.932 130.227 113.375 130.487 112.937C130.748 112.5 131.099 112.154 131.542 111.898C131.985 111.643 132.479 111.451 133.026 111.32C133.573 111.19 134.13 111.091 134.698 111.023C135.417 110.94 136 110.872 136.448 110.82C136.896 110.763 137.221 110.672 137.425 110.547C137.628 110.422 137.729 110.219 137.729 109.937V109.883C137.729 109.201 137.537 108.672 137.151 108.297C136.771 107.922 136.203 107.734 135.448 107.734C134.662 107.734 134.042 107.909 133.589 108.258C133.141 108.602 132.831 108.984 132.659 109.406L130.464 108.906C130.724 108.177 131.104 107.589 131.604 107.141C132.11 106.687 132.69 106.359 133.346 106.156C134.003 105.948 134.693 105.844 135.417 105.844C135.896 105.844 136.404 105.901 136.94 106.016C137.482 106.125 137.987 106.328 138.456 106.625C138.93 106.922 139.318 107.346 139.62 107.898C139.922 108.445 140.073 109.156 140.073 110.031V118H137.792V116.359H137.698C137.547 116.661 137.32 116.958 137.018 117.25C136.716 117.542 136.328 117.784 135.854 117.977C135.38 118.169 134.813 118.266 134.151 118.266ZM134.659 116.391C135.305 116.391 135.857 116.263 136.315 116.008C136.779 115.753 137.13 115.419 137.37 115.008C137.615 114.591 137.737 114.146 137.737 113.672V112.125C137.654 112.208 137.492 112.286 137.253 112.359C137.018 112.427 136.75 112.487 136.448 112.539C136.146 112.586 135.852 112.63 135.565 112.672C135.279 112.708 135.039 112.74 134.846 112.766C134.393 112.823 133.979 112.919 133.604 113.055C133.235 113.19 132.938 113.385 132.714 113.641C132.495 113.891 132.386 114.224 132.386 114.641C132.386 115.219 132.599 115.656 133.026 115.953C133.453 116.245 133.998 116.391 134.659 116.391ZM146.127 118.266C145.366 118.266 144.679 118.125 144.064 117.844C143.449 117.557 142.963 117.143 142.603 116.602C142.249 116.06 142.072 115.396 142.072 114.609C142.072 113.932 142.202 113.375 142.463 112.937C142.723 112.5 143.074 112.154 143.517 111.898C143.96 111.643 144.455 111.451 145.002 111.32C145.548 111.19 146.106 111.091 146.673 111.023C147.392 110.94 147.976 110.872 148.423 110.82C148.871 110.763 149.197 110.672 149.4 110.547C149.603 110.422 149.705 110.219 149.705 109.937V109.883C149.705 109.201 149.512 108.672 149.127 108.297C148.746 107.922 148.179 107.734 147.423 107.734C146.637 107.734 146.017 107.909 145.564 108.258C145.116 108.602 144.806 108.984 144.634 109.406L142.439 108.906C142.699 108.177 143.08 107.589 143.58 107.141C144.085 106.687 144.666 106.359 145.322 106.156C145.978 105.948 146.668 105.844 147.392 105.844C147.871 105.844 148.379 105.901 148.916 106.016C149.457 106.125 149.963 106.328 150.431 106.625C150.905 106.922 151.293 107.346 151.595 107.898C151.897 108.445 152.048 109.156 152.048 110.031V118H149.767V116.359H149.673C149.522 116.661 149.296 116.958 148.994 117.25C148.692 117.542 148.304 117.784 147.83 117.977C147.356 118.169 146.788 118.266 146.127 118.266ZM146.634 116.391C147.28 116.391 147.832 116.263 148.291 116.008C148.754 115.753 149.106 115.419 149.345 115.008C149.59 114.591 149.713 114.146 149.713 113.672V112.125C149.629 112.208 149.468 112.286 149.228 112.359C148.994 112.427 148.726 112.487 148.423 112.539C148.121 112.586 147.827 112.63 147.541 112.672C147.254 112.708 147.015 112.74 146.822 112.766C146.369 112.823 145.955 112.919 145.58 113.055C145.21 113.19 144.913 113.385 144.689 113.641C144.47 113.891 144.361 114.224 144.361 114.641C144.361 115.219 144.574 115.656 145.002 115.953C145.429 116.245 145.973 116.391 146.634 116.391ZM159.102 118.234C158.133 118.234 157.269 117.987 156.508 117.492C155.753 116.992 155.159 116.281 154.727 115.359C154.3 114.432 154.086 113.32 154.086 112.023C154.086 110.727 154.302 109.617 154.735 108.695C155.172 107.773 155.771 107.068 156.532 106.578C157.292 106.089 158.154 105.844 159.118 105.844C159.862 105.844 160.461 105.969 160.914 106.219C161.373 106.464 161.727 106.75 161.977 107.078C162.232 107.406 162.43 107.695 162.571 107.945H162.711V102H165.047V118H162.766V116.133H162.571C162.43 116.388 162.227 116.68 161.961 117.008C161.701 117.336 161.342 117.622 160.883 117.867C160.425 118.112 159.831 118.234 159.102 118.234ZM159.618 116.242C160.289 116.242 160.857 116.065 161.321 115.711C161.789 115.352 162.144 114.854 162.383 114.219C162.628 113.583 162.75 112.844 162.75 112C162.75 111.167 162.631 110.437 162.391 109.812C162.151 109.187 161.8 108.701 161.336 108.352C160.873 108.003 160.3 107.828 159.618 107.828C158.914 107.828 158.329 108.01 157.86 108.375C157.391 108.74 157.037 109.237 156.797 109.867C156.563 110.497 156.446 111.208 156.446 112C156.446 112.802 156.566 113.523 156.805 114.164C157.045 114.805 157.399 115.312 157.868 115.687C158.342 116.057 158.925 116.242 159.618 116.242ZM173.104 106H175.439V118.781C175.439 119.583 175.294 120.26 175.002 120.812C174.715 121.365 174.288 121.784 173.721 122.07C173.158 122.357 172.463 122.5 171.635 122.5C171.551 122.5 171.473 122.5 171.4 122.5C171.322 122.5 171.242 122.497 171.158 122.492V120.484C171.231 120.484 171.296 120.484 171.354 120.484C171.406 120.484 171.465 120.484 171.533 120.484C172.085 120.484 172.484 120.336 172.729 120.039C172.979 119.747 173.104 119.323 173.104 118.766V106ZM174.26 104.148C173.854 104.148 173.505 104.013 173.213 103.742C172.926 103.466 172.783 103.138 172.783 102.758C172.783 102.372 172.926 102.044 173.213 101.773C173.505 101.497 173.854 101.359 174.26 101.359C174.666 101.359 175.012 101.497 175.299 101.773C175.59 102.044 175.736 102.372 175.736 102.758C175.736 103.138 175.59 103.466 175.299 103.742C175.012 104.013 174.666 104.148 174.26 104.148ZM181.524 118.266C180.764 118.266 180.076 118.125 179.462 117.844C178.847 117.557 178.36 117.143 178.001 116.602C177.647 116.06 177.47 115.396 177.47 114.609C177.47 113.932 177.6 113.375 177.86 112.937C178.121 112.5 178.472 112.154 178.915 111.898C179.358 111.643 179.852 111.451 180.399 111.32C180.946 111.19 181.503 111.091 182.071 111.023C182.79 110.94 183.373 110.872 183.821 110.82C184.269 110.763 184.595 110.672 184.798 110.547C185.001 110.422 185.102 110.219 185.102 109.937V109.883C185.102 109.201 184.91 108.672 184.524 108.297C184.144 107.922 183.576 107.734 182.821 107.734C182.035 107.734 181.415 107.909 180.962 108.258C180.514 108.602 180.204 108.984 180.032 109.406L177.837 108.906C178.097 108.177 178.477 107.589 178.977 107.141C179.483 106.687 180.063 106.359 180.72 106.156C181.376 105.948 182.066 105.844 182.79 105.844C183.269 105.844 183.777 105.901 184.313 106.016C184.855 106.125 185.36 106.328 185.829 106.625C186.303 106.922 186.691 107.346 186.993 107.898C187.295 108.445 187.446 109.156 187.446 110.031V118H185.165V116.359H185.071C184.92 116.661 184.693 116.958 184.391 117.25C184.089 117.542 183.701 117.784 183.227 117.977C182.753 118.169 182.186 118.266 181.524 118.266ZM182.032 116.391C182.678 116.391 183.23 116.263 183.688 116.008C184.152 115.753 184.503 115.419 184.743 115.008C184.988 114.591 185.11 114.146 185.11 113.672V112.125C185.027 112.208 184.865 112.286 184.626 112.359C184.391 112.427 184.123 112.487 183.821 112.539C183.519 112.586 183.225 112.63 182.938 112.672C182.652 112.708 182.412 112.74 182.22 112.766C181.766 112.823 181.352 112.919 180.977 113.055C180.608 113.19 180.311 113.385 180.087 113.641C179.868 113.891 179.759 114.224 179.759 114.641C179.759 115.219 179.972 115.656 180.399 115.953C180.826 116.245 181.371 116.391 182.032 116.391ZM195.039 122.75C194.086 122.75 193.265 122.625 192.578 122.375C191.895 122.125 191.338 121.794 190.906 121.383C190.474 120.971 190.151 120.521 189.937 120.031L191.945 119.203C192.086 119.432 192.273 119.674 192.507 119.93C192.747 120.19 193.07 120.411 193.476 120.594C193.888 120.776 194.416 120.867 195.062 120.867C195.948 120.867 196.679 120.651 197.257 120.219C197.836 119.792 198.125 119.109 198.125 118.172V115.812H197.976C197.836 116.068 197.632 116.352 197.367 116.664C197.106 116.977 196.747 117.247 196.289 117.477C195.83 117.706 195.234 117.82 194.5 117.82C193.552 117.82 192.698 117.599 191.937 117.156C191.182 116.708 190.583 116.049 190.14 115.18C189.703 114.305 189.484 113.229 189.484 111.953C189.484 110.677 189.7 109.583 190.132 108.672C190.57 107.76 191.169 107.062 191.929 106.578C192.69 106.089 193.552 105.844 194.515 105.844C195.26 105.844 195.862 105.969 196.32 106.219C196.778 106.464 197.135 106.75 197.39 107.078C197.651 107.406 197.851 107.695 197.992 107.945H198.164V106H200.453V118.266C200.453 119.297 200.213 120.143 199.734 120.805C199.255 121.466 198.606 121.956 197.789 122.273C196.976 122.591 196.059 122.75 195.039 122.75ZM195.015 115.883C195.687 115.883 196.255 115.727 196.718 115.414C197.187 115.096 197.541 114.643 197.781 114.055C198.026 113.461 198.148 112.75 198.148 111.922C198.148 111.115 198.028 110.404 197.789 109.789C197.549 109.174 197.198 108.695 196.734 108.352C196.27 108.003 195.698 107.828 195.015 107.828C194.312 107.828 193.726 108.01 193.257 108.375C192.789 108.734 192.434 109.224 192.195 109.844C191.961 110.464 191.843 111.156 191.843 111.922C191.843 112.708 191.963 113.398 192.203 113.992C192.442 114.586 192.796 115.049 193.265 115.383C193.739 115.716 194.323 115.883 195.015 115.883ZM206.528 118.266C205.767 118.266 205.08 118.125 204.465 117.844C203.851 117.557 203.364 117.143 203.004 116.602C202.65 116.06 202.473 115.396 202.473 114.609C202.473 113.932 202.603 113.375 202.864 112.937C203.124 112.5 203.476 112.154 203.918 111.898C204.361 111.643 204.856 111.451 205.403 111.32C205.95 111.19 206.507 111.091 207.075 111.023C207.793 110.94 208.377 110.872 208.825 110.82C209.273 110.763 209.598 110.672 209.801 110.547C210.004 110.422 210.106 110.219 210.106 109.937V109.883C210.106 109.201 209.913 108.672 209.528 108.297C209.148 107.922 208.58 107.734 207.825 107.734C207.038 107.734 206.418 107.909 205.965 108.258C205.517 108.602 205.207 108.984 205.036 109.406L202.84 108.906C203.101 108.177 203.481 107.589 203.981 107.141C204.486 106.687 205.067 106.359 205.723 106.156C206.379 105.948 207.069 105.844 207.793 105.844C208.273 105.844 208.78 105.901 209.317 106.016C209.858 106.125 210.364 106.328 210.832 106.625C211.306 106.922 211.694 107.346 211.996 107.898C212.299 108.445 212.45 109.156 212.45 110.031V118H210.168V116.359H210.075C209.924 116.661 209.697 116.958 209.395 117.25C209.093 117.542 208.705 117.784 208.231 117.977C207.757 118.169 207.189 118.266 206.528 118.266ZM207.036 116.391C207.681 116.391 208.233 116.263 208.692 116.008C209.155 115.753 209.507 115.419 209.746 115.008C209.991 114.591 210.114 114.146 210.114 113.672V112.125C210.03 112.208 209.869 112.286 209.629 112.359C209.395 112.427 209.127 112.487 208.825 112.539C208.523 112.586 208.228 112.63 207.942 112.672C207.655 112.708 207.416 112.74 207.223 112.766C206.77 112.823 206.356 112.919 205.981 113.055C205.611 113.19 205.314 113.385 205.09 113.641C204.871 113.891 204.762 114.224 204.762 114.641C204.762 115.219 204.976 115.656 205.403 115.953C205.83 116.245 206.374 116.391 207.036 116.391ZM219.503 118.234C218.534 118.234 217.67 117.987 216.909 117.492C216.154 116.992 215.56 116.281 215.128 115.359C214.701 114.432 214.488 113.32 214.488 112.023C214.488 110.727 214.704 109.617 215.136 108.695C215.573 107.773 216.172 107.068 216.933 106.578C217.693 106.089 218.555 105.844 219.519 105.844C220.264 105.844 220.863 105.969 221.316 106.219C221.774 106.464 222.128 106.75 222.378 107.078C222.633 107.406 222.831 107.695 222.972 107.945H223.113V102H225.448V118H223.167V116.133H222.972C222.831 116.388 222.628 116.68 222.363 117.008C222.102 117.336 221.743 117.622 221.284 117.867C220.826 118.112 220.232 118.234 219.503 118.234ZM220.019 116.242C220.691 116.242 221.258 116.065 221.722 115.711C222.191 115.352 222.545 114.854 222.784 114.219C223.029 113.583 223.152 112.844 223.152 112C223.152 111.167 223.032 110.437 222.792 109.812C222.553 109.187 222.201 108.701 221.738 108.352C221.274 108.003 220.701 107.828 220.019 107.828C219.316 107.828 218.73 108.01 218.261 108.375C217.792 108.74 217.438 109.237 217.198 109.867C216.964 110.497 216.847 111.208 216.847 112C216.847 112.802 216.967 113.523 217.206 114.164C217.446 114.805 217.8 115.312 218.269 115.687C218.743 116.057 219.326 116.242 220.019 116.242ZM231.725 118.266C230.964 118.266 230.277 118.125 229.662 117.844C229.048 117.557 228.561 117.143 228.201 116.602C227.847 116.06 227.67 115.396 227.67 114.609C227.67 113.932 227.8 113.375 228.061 112.937C228.321 112.5 228.673 112.154 229.115 111.898C229.558 111.643 230.053 111.451 230.6 111.32C231.146 111.19 231.704 111.091 232.271 111.023C232.99 110.94 233.574 110.872 234.021 110.82C234.469 110.763 234.795 110.672 234.998 110.547C235.201 110.422 235.303 110.219 235.303 109.937V109.883C235.303 109.201 235.11 108.672 234.725 108.297C234.344 107.922 233.777 107.734 233.021 107.734C232.235 107.734 231.615 107.909 231.162 108.258C230.714 108.602 230.404 108.984 230.232 109.406L228.037 108.906C228.298 108.177 228.678 107.589 229.178 107.141C229.683 106.687 230.264 106.359 230.92 106.156C231.576 105.948 232.266 105.844 232.99 105.844C233.469 105.844 233.977 105.901 234.514 106.016C235.055 106.125 235.561 106.328 236.029 106.625C236.503 106.922 236.891 107.346 237.193 107.898C237.495 108.445 237.646 109.156 237.646 110.031V118H235.365V116.359H235.271C235.12 116.661 234.894 116.958 234.592 117.25C234.29 117.542 233.902 117.784 233.428 117.977C232.954 118.169 232.386 118.266 231.725 118.266ZM232.232 116.391C232.878 116.391 233.43 116.263 233.889 116.008C234.352 115.753 234.704 115.419 234.943 115.008C235.188 114.591 235.311 114.146 235.311 113.672V112.125C235.227 112.208 235.066 112.286 234.826 112.359C234.592 112.427 234.324 112.487 234.021 112.539C233.719 112.586 233.425 112.63 233.139 112.672C232.852 112.708 232.613 112.74 232.42 112.766C231.967 112.823 231.553 112.919 231.178 113.055C230.808 113.19 230.511 113.385 230.287 113.641C230.068 113.891 229.959 114.224 229.959 114.641C229.959 115.219 230.173 115.656 230.6 115.953C231.027 116.245 231.571 116.391 232.232 116.391ZM247.816 110.875V118H245.48V106H247.722V107.953H247.871C248.147 107.318 248.579 106.807 249.168 106.422C249.761 106.036 250.509 105.844 251.41 105.844C252.227 105.844 252.944 106.016 253.558 106.359C254.173 106.698 254.649 107.203 254.988 107.875C255.326 108.547 255.496 109.378 255.496 110.367V118H253.16V110.648C253.16 109.779 252.933 109.099 252.48 108.609C252.027 108.115 251.405 107.867 250.613 107.867C250.071 107.867 249.589 107.984 249.168 108.219C248.751 108.453 248.42 108.797 248.175 109.25C247.936 109.698 247.816 110.24 247.816 110.875ZM263.25 118.242C262.068 118.242 261.05 117.99 260.196 117.484C259.347 116.974 258.691 116.258 258.227 115.336C257.769 114.409 257.539 113.323 257.539 112.078C257.539 110.849 257.769 109.766 258.227 108.828C258.691 107.891 259.336 107.159 260.164 106.633C260.998 106.107 261.972 105.844 263.086 105.844C263.763 105.844 264.42 105.956 265.055 106.18C265.691 106.404 266.261 106.755 266.766 107.234C267.271 107.714 267.67 108.336 267.961 109.102C268.253 109.862 268.399 110.786 268.399 111.875V112.703H258.86V110.953H266.11C266.11 110.339 265.985 109.794 265.735 109.32C265.485 108.841 265.133 108.464 264.68 108.187C264.232 107.911 263.706 107.773 263.102 107.773C262.446 107.773 261.873 107.935 261.383 108.258C260.899 108.576 260.524 108.992 260.258 109.508C259.998 110.018 259.868 110.573 259.868 111.172V112.539C259.868 113.341 260.008 114.023 260.289 114.586C260.576 115.148 260.974 115.578 261.485 115.875C261.995 116.167 262.592 116.312 263.274 116.312C263.717 116.312 264.12 116.25 264.485 116.125C264.849 115.995 265.164 115.802 265.43 115.547C265.696 115.292 265.899 114.977 266.039 114.602L268.25 115C268.073 115.651 267.756 116.221 267.297 116.711C266.844 117.195 266.274 117.573 265.586 117.844C264.904 118.109 264.125 118.242 263.25 118.242ZM272.777 102V118H270.441V102H272.777ZM275.369 106H277.705V118.781C277.705 119.583 277.559 120.26 277.268 120.812C276.981 121.365 276.554 121.784 275.986 122.07C275.424 122.357 274.729 122.5 273.9 122.5C273.817 122.5 273.739 122.5 273.666 122.5C273.588 122.5 273.507 122.497 273.424 122.492V120.484C273.497 120.484 273.562 120.484 273.619 120.484C273.671 120.484 273.731 120.484 273.799 120.484C274.351 120.484 274.749 120.336 274.994 120.039C275.244 119.747 275.369 119.323 275.369 118.766V106ZM276.525 104.148C276.119 104.148 275.77 104.013 275.479 103.742C275.192 103.466 275.049 103.138 275.049 102.758C275.049 102.372 275.192 102.044 275.479 101.773C275.77 101.497 276.119 101.359 276.525 101.359C276.932 101.359 277.278 101.497 277.564 101.773C277.856 102.044 278.002 102.372 278.002 102.758C278.002 103.138 277.856 103.466 277.564 103.742C277.278 104.013 276.932 104.148 276.525 104.148ZM283.79 118.266C283.029 118.266 282.342 118.125 281.727 117.844C281.113 117.557 280.626 117.143 280.266 116.602C279.912 116.06 279.735 115.396 279.735 114.609C279.735 113.932 279.865 113.375 280.126 112.937C280.386 112.5 280.738 112.154 281.18 111.898C281.623 111.643 282.118 111.451 282.665 111.32C283.212 111.19 283.769 111.091 284.337 111.023C285.055 110.94 285.639 110.872 286.087 110.82C286.535 110.763 286.86 110.672 287.063 110.547C287.266 110.422 287.368 110.219 287.368 109.937V109.883C287.368 109.201 287.175 108.672 286.79 108.297C286.41 107.922 285.842 107.734 285.087 107.734C284.3 107.734 283.68 107.909 283.227 108.258C282.779 108.602 282.47 108.984 282.298 109.406L280.102 108.906C280.363 108.177 280.743 107.589 281.243 107.141C281.748 106.687 282.329 106.359 282.985 106.156C283.641 105.948 284.332 105.844 285.055 105.844C285.535 105.844 286.042 105.901 286.579 106.016C287.121 106.125 287.626 106.328 288.095 106.625C288.568 106.922 288.957 107.346 289.259 107.898C289.561 108.445 289.712 109.156 289.712 110.031V118H287.43V116.359H287.337C287.186 116.661 286.959 116.958 286.657 117.25C286.355 117.542 285.967 117.784 285.493 117.977C285.019 118.169 284.451 118.266 283.79 118.266ZM284.298 116.391C284.943 116.391 285.496 116.263 285.954 116.008C286.417 115.753 286.769 115.419 287.009 115.008C287.253 114.591 287.376 114.146 287.376 113.672V112.125C287.292 112.208 287.131 112.286 286.891 112.359C286.657 112.427 286.389 112.487 286.087 112.539C285.785 112.586 285.49 112.63 285.204 112.672C284.917 112.708 284.678 112.74 284.485 112.766C284.032 112.823 283.618 112.919 283.243 113.055C282.873 113.19 282.576 113.385 282.352 113.641C282.134 113.891 282.024 114.224 282.024 114.641C282.024 115.219 282.238 115.656 282.665 115.953C283.092 116.245 283.636 116.391 284.298 116.391ZM34.5625 136.93L32.4453 137.305C32.3568 137.034 32.2161 136.776 32.0234 136.531C31.8359 136.286 31.5807 136.086 31.2578 135.93C30.9349 135.773 30.5313 135.695 30.0469 135.695C29.3854 135.695 28.8333 135.844 28.3906 136.141C27.9479 136.432 27.7266 136.81 27.7266 137.273C27.7266 137.674 27.875 137.997 28.1719 138.242C28.4688 138.487 28.9479 138.687 29.6094 138.844L31.5156 139.281C32.6198 139.536 33.4427 139.93 33.9844 140.461C34.526 140.992 34.7969 141.682 34.7969 142.531C34.7969 143.25 34.5885 143.891 34.1719 144.453C33.7604 145.01 33.1849 145.448 32.4453 145.766C31.7109 146.083 30.8594 146.242 29.8906 146.242C28.5469 146.242 27.4505 145.956 26.6016 145.383C25.7526 144.805 25.2318 143.984 25.0391 142.922L27.2969 142.578C27.4375 143.167 27.7266 143.612 28.1641 143.914C28.6016 144.211 29.1719 144.359 29.875 144.359C30.6406 144.359 31.2526 144.201 31.7109 143.883C32.1693 143.56 32.3984 143.167 32.3984 142.703C32.3984 142.328 32.2578 142.013 31.9766 141.758C31.7005 141.503 31.276 141.31 30.7031 141.18L28.6719 140.734C27.5521 140.479 26.724 140.073 26.1875 139.516C25.6563 138.958 25.3906 138.253 25.3906 137.398C25.3906 136.69 25.5885 136.07 25.9844 135.539C26.3802 135.008 26.9271 134.594 27.625 134.297C28.3229 133.995 29.1224 133.844 30.0234 133.844C31.3203 133.844 32.3411 134.125 33.0859 134.687C33.8307 135.245 34.3229 135.992 34.5625 136.93ZM41.8699 146.242C40.7449 146.242 39.7632 145.984 38.9246 145.469C38.0861 144.953 37.435 144.232 36.9715 143.305C36.5079 142.378 36.2762 141.294 36.2762 140.055C36.2762 138.81 36.5079 137.721 36.9715 136.789C37.435 135.857 38.0861 135.133 38.9246 134.617C39.7632 134.102 40.7449 133.844 41.8699 133.844C42.9949 133.844 43.9767 134.102 44.8152 134.617C45.6538 135.133 46.3048 135.857 46.7684 136.789C47.2319 137.721 47.4637 138.81 47.4637 140.055C47.4637 141.294 47.2319 142.378 46.7684 143.305C46.3048 144.232 45.6538 144.953 44.8152 145.469C43.9767 145.984 42.9949 146.242 41.8699 146.242ZM41.8777 144.281C42.6069 144.281 43.2111 144.089 43.6902 143.703C44.1694 143.318 44.5236 142.805 44.7527 142.164C44.9871 141.523 45.1043 140.818 45.1043 140.047C45.1043 139.281 44.9871 138.578 44.7527 137.937C44.5236 137.292 44.1694 136.773 43.6902 136.383C43.2111 135.992 42.6069 135.797 41.8777 135.797C41.1434 135.797 40.534 135.992 40.0496 136.383C39.5704 136.773 39.2137 137.292 38.9793 137.937C38.7501 138.578 38.6355 139.281 38.6355 140.047C38.6355 140.818 38.7501 141.523 38.9793 142.164C39.2137 142.805 39.5704 143.318 40.0496 143.703C40.534 144.089 41.1434 144.281 41.8777 144.281ZM39.5184 132.547L37.948 132.5C37.948 131.635 38.1798 130.945 38.6434 130.43C39.1121 129.914 39.6902 129.656 40.3777 129.656C40.6954 129.656 40.9741 129.711 41.2137 129.82C41.4533 129.924 41.6772 130.047 41.8855 130.188C42.0991 130.323 42.31 130.445 42.5184 130.555C42.7319 130.659 42.9689 130.711 43.2293 130.711C43.5314 130.711 43.7762 130.596 43.9637 130.367C44.1564 130.138 44.2527 129.854 44.2527 129.516L45.7918 129.617C45.7918 130.487 45.5574 131.172 45.0887 131.672C44.6199 132.167 44.0444 132.417 43.3621 132.422C42.9923 132.422 42.685 132.37 42.4402 132.266C42.2007 132.156 41.9871 132.034 41.7996 131.898C41.6121 131.758 41.4194 131.633 41.2215 131.523C41.0236 131.414 40.7866 131.359 40.5105 131.359C40.2189 131.359 39.9793 131.474 39.7918 131.703C39.6095 131.927 39.5184 132.208 39.5184 132.547ZM49.7086 146V130H52.0445V135.945H52.1852C52.3206 135.695 52.5159 135.406 52.7711 135.078C53.0263 134.75 53.3805 134.464 53.8336 134.219C54.2867 133.969 54.8857 133.844 55.6305 133.844C56.5992 133.844 57.4638 134.089 58.2242 134.578C58.9846 135.068 59.581 135.773 60.0133 136.695C60.4508 137.617 60.6695 138.727 60.6695 140.023C60.6695 141.32 60.4534 142.432 60.0211 143.359C59.5888 144.281 58.9951 144.992 58.2398 145.492C57.4846 145.987 56.6227 146.234 55.6539 146.234C54.9247 146.234 54.3284 146.112 53.8648 145.867C53.4065 145.622 53.0471 145.336 52.7867 145.008C52.5263 144.68 52.3258 144.388 52.1852 144.133H51.9898V146H49.7086ZM51.9977 140C51.9977 140.844 52.1201 141.583 52.3648 142.219C52.6096 142.854 52.9638 143.352 53.4273 143.711C53.8909 144.065 54.4586 144.242 55.1305 144.242C55.8284 144.242 56.4117 144.057 56.8805 143.687C57.3492 143.312 57.7034 142.805 57.943 142.164C58.1878 141.523 58.3102 140.802 58.3102 140C58.3102 139.208 58.1904 138.497 57.9508 137.867C57.7164 137.237 57.3622 136.74 56.8883 136.375C56.4195 136.01 55.8336 135.828 55.1305 135.828C54.4534 135.828 53.8805 136.003 53.4117 136.352C52.9482 136.701 52.5966 137.187 52.357 137.812C52.1174 138.437 51.9977 139.167 51.9977 140ZM62.7426 146V134H65.0004V135.906H65.1254C65.3441 135.26 65.7296 134.753 66.2816 134.383C66.8389 134.008 67.4691 133.82 68.1723 133.82C68.3181 133.82 68.49 133.826 68.6879 133.836C68.891 133.846 69.0499 133.859 69.1645 133.875V136.109C69.0707 136.083 68.904 136.055 68.6645 136.023C68.4249 135.987 68.1853 135.969 67.9457 135.969C67.3936 135.969 66.9014 136.086 66.4691 136.32C66.0421 136.549 65.7035 136.87 65.4535 137.281C65.2035 137.687 65.0785 138.151 65.0785 138.672V146H62.7426ZM74.0207 146.266C73.2603 146.266 72.5728 146.125 71.9582 145.844C71.3436 145.557 70.8566 145.143 70.4973 144.602C70.1431 144.06 69.966 143.396 69.966 142.609C69.966 141.932 70.0962 141.375 70.3566 140.937C70.6171 140.5 70.9686 140.154 71.4113 139.898C71.854 139.643 72.3488 139.451 72.8957 139.32C73.4426 139.19 73.9999 139.091 74.5676 139.023C75.2863 138.94 75.8697 138.872 76.3176 138.82C76.7655 138.763 77.091 138.672 77.2941 138.547C77.4973 138.422 77.5988 138.219 77.5988 137.937V137.883C77.5988 137.201 77.4061 136.672 77.0207 136.297C76.6405 135.922 76.0728 135.734 75.3176 135.734C74.5311 135.734 73.9113 135.909 73.4582 136.258C73.0103 136.602 72.7004 136.984 72.5285 137.406L70.3332 136.906C70.5936 136.177 70.9738 135.589 71.4738 135.141C71.979 134.687 72.5598 134.359 73.216 134.156C73.8723 133.948 74.5624 133.844 75.2863 133.844C75.7655 133.844 76.2733 133.901 76.8098 134.016C77.3514 134.125 77.8566 134.328 78.3254 134.625C78.7993 134.922 79.1874 135.346 79.4895 135.898C79.7915 136.445 79.9426 137.156 79.9426 138.031V146H77.6613V144.359H77.5676C77.4165 144.661 77.19 144.958 76.8879 145.25C76.5858 145.542 76.1978 145.784 75.7238 145.977C75.2499 146.169 74.6822 146.266 74.0207 146.266ZM74.5285 144.391C75.1743 144.391 75.7264 144.263 76.1848 144.008C76.6483 143.753 76.9999 143.419 77.2395 143.008C77.4842 142.591 77.6066 142.146 77.6066 141.672V140.125C77.5233 140.208 77.3618 140.286 77.1223 140.359C76.8879 140.427 76.6197 140.487 76.3176 140.539C76.0155 140.586 75.7212 140.63 75.4348 140.672C75.1483 140.708 74.9087 140.74 74.716 140.766C74.2629 140.823 73.8488 140.919 73.4738 141.055C73.104 141.19 72.8072 141.385 72.5832 141.641C72.3645 141.891 72.2551 142.224 72.2551 142.641C72.2551 143.219 72.4686 143.656 72.8957 143.953C73.3228 144.245 73.8671 144.391 74.5285 144.391ZM87.5352 150.75C86.582 150.75 85.7617 150.625 85.0742 150.375C84.3919 150.125 83.8346 149.794 83.4023 149.383C82.9701 148.971 82.6471 148.521 82.4336 148.031L84.4414 147.203C84.582 147.432 84.7695 147.674 85.0039 147.93C85.2435 148.19 85.5664 148.411 85.9727 148.594C86.3841 148.776 86.9128 148.867 87.5586 148.867C88.444 148.867 89.1758 148.651 89.7539 148.219C90.332 147.792 90.6211 147.109 90.6211 146.172V143.812H90.4727C90.332 144.068 90.1289 144.352 89.8633 144.664C89.6029 144.977 89.2435 145.247 88.7852 145.477C88.3268 145.706 87.7305 145.82 86.9961 145.82C86.0482 145.82 85.194 145.599 84.4336 145.156C83.6784 144.708 83.0794 144.049 82.6367 143.18C82.1992 142.305 81.9805 141.229 81.9805 139.953C81.9805 138.677 82.1966 137.583 82.6289 136.672C83.0664 135.76 83.6654 135.062 84.4258 134.578C85.1862 134.089 86.0482 133.844 87.0117 133.844C87.7565 133.844 88.3581 133.969 88.8164 134.219C89.2747 134.464 89.6315 134.75 89.8867 135.078C90.1471 135.406 90.3477 135.695 90.4883 135.945H90.6602V134H92.9492V146.266C92.9492 147.297 92.7096 148.143 92.2305 148.805C91.7513 149.466 91.1029 149.956 90.2852 150.273C89.4727 150.591 88.556 150.75 87.5352 150.75ZM87.5117 143.883C88.1836 143.883 88.7513 143.727 89.2148 143.414C89.6836 143.096 90.0378 142.643 90.2773 142.055C90.5221 141.461 90.6445 140.75 90.6445 139.922C90.6445 139.115 90.5247 138.404 90.2852 137.789C90.0456 137.174 89.694 136.695 89.2305 136.352C88.7669 136.003 88.194 135.828 87.5117 135.828C86.8086 135.828 86.2227 136.01 85.7539 136.375C85.2852 136.734 84.931 137.224 84.6914 137.844C84.457 138.464 84.3398 139.156 84.3398 139.922C84.3398 140.708 84.4596 141.398 84.6992 141.992C84.9388 142.586 85.293 143.049 85.7617 143.383C86.2357 143.716 86.819 143.883 87.5117 143.883ZM99.0242 146.266C98.2638 146.266 97.5763 146.125 96.9617 145.844C96.3471 145.557 95.8602 145.143 95.5008 144.602C95.1466 144.06 94.9695 143.396 94.9695 142.609C94.9695 141.932 95.0997 141.375 95.3602 140.937C95.6206 140.5 95.9721 140.154 96.4148 139.898C96.8575 139.643 97.3523 139.451 97.8992 139.32C98.4461 139.19 99.0034 139.091 99.5711 139.023C100.29 138.94 100.873 138.872 101.321 138.82C101.769 138.763 102.095 138.672 102.298 138.547C102.501 138.422 102.602 138.219 102.602 137.937V137.883C102.602 137.201 102.41 136.672 102.024 136.297C101.644 135.922 101.076 135.734 100.321 135.734C99.5346 135.734 98.9148 135.909 98.4617 136.258C98.0138 136.602 97.7039 136.984 97.532 137.406L95.3367 136.906C95.5971 136.177 95.9773 135.589 96.4773 135.141C96.9825 134.687 97.5633 134.359 98.2195 134.156C98.8758 133.948 99.5659 133.844 100.29 133.844C100.769 133.844 101.277 133.901 101.813 134.016C102.355 134.125 102.86 134.328 103.329 134.625C103.803 134.922 104.191 135.346 104.493 135.898C104.795 136.445 104.946 137.156 104.946 138.031V146H102.665V144.359H102.571C102.42 144.661 102.193 144.958 101.891 145.25C101.589 145.542 101.201 145.784 100.727 145.977C100.253 146.169 99.6857 146.266 99.0242 146.266ZM99.532 144.391C100.178 144.391 100.73 144.263 101.188 144.008C101.652 143.753 102.003 143.419 102.243 143.008C102.488 142.591 102.61 142.146 102.61 141.672V140.125C102.527 140.208 102.365 140.286 102.126 140.359C101.891 140.427 101.623 140.487 101.321 140.539C101.019 140.586 100.725 140.63 100.438 140.672C100.152 140.708 99.9122 140.74 99.7195 140.766C99.2664 140.823 98.8523 140.919 98.4773 141.055C98.1075 141.19 97.8107 141.385 97.5867 141.641C97.368 141.891 97.2586 142.224 97.2586 142.641C97.2586 143.219 97.4721 143.656 97.8992 143.953C98.3263 144.245 98.8706 144.391 99.532 144.391ZM110.453 130L110.25 141.398H108.086L107.882 130H110.453ZM109.171 146.148C108.739 146.148 108.369 145.997 108.062 145.695C107.755 145.388 107.604 145.018 107.609 144.586C107.604 144.159 107.755 143.794 108.062 143.492C108.369 143.185 108.739 143.031 109.171 143.031C109.593 143.031 109.958 143.185 110.265 143.492C110.573 143.794 110.729 144.159 110.734 144.586C110.729 144.872 110.653 145.135 110.507 145.375C110.367 145.609 110.179 145.797 109.945 145.937C109.711 146.078 109.453 146.148 109.171 146.148Z" fill="#442604"/>
<rect x="24" y="174" width="149" height="48" rx="9" fill="#E3000F"/>
<path d="M45.412 183.646C47.372 183.646 49.066 184.01 50.494 184.738C51.922 185.438 53 186.404 53.728 187.636C54.484 188.84 54.862 190.184 54.862 191.668C54.862 193.208 54.526 194.692 53.854 196.12C53.21 197.548 52.09 199.158 50.494 200.95C48.926 202.742 46.63 205.052 43.606 207.88H55.492L54.82 212.5H36.802V208.174C40.33 204.646 42.878 202.014 44.446 200.278C46.014 198.542 47.12 197.072 47.764 195.868C48.408 194.664 48.73 193.432 48.73 192.172C48.73 190.968 48.38 190.016 47.68 189.316C46.98 188.616 46.042 188.266 44.866 188.266C43.83 188.266 42.906 188.504 42.094 188.98C41.282 189.428 40.428 190.184 39.532 191.248L35.962 188.392C38.37 185.228 41.52 183.646 45.412 183.646ZM75.3941 203.134C75.7861 205.066 76.5001 206.48 77.5361 207.376C78.6001 208.272 80.0141 208.72 81.7781 208.72C83.6541 208.72 85.6701 208.132 87.8261 206.956V211.576C86.6781 212.108 85.5861 212.5 84.5501 212.752C83.5141 213.032 82.3801 213.172 81.1481 213.172C77.9841 213.172 75.3801 212.304 73.3361 210.568C71.3201 208.804 69.9901 206.326 69.3461 203.134H65.6921L66.5321 199.9H69.1781V196.75H65.6921L66.5321 193.474H69.3881C70.1721 190.422 71.6281 188.028 73.7561 186.292C75.9121 184.528 78.4461 183.646 81.3581 183.646C84.2701 183.646 86.9021 184.444 89.2541 186.04L87.1121 189.736C86.2161 189.148 85.3341 188.728 84.4661 188.476C83.5981 188.196 82.6321 188.056 81.5681 188.056C80.1121 188.056 78.8661 188.504 77.8301 189.4C76.7941 190.296 76.0241 191.654 75.5201 193.474H85.8101L84.9701 196.75H75.2261V199.9H84.2981L83.5001 203.134H75.3941Z" fill="#FFE80D"/>
<path d="M99.8991 205.5V203.909L104.821 198.81C105.347 198.256 105.78 197.77 106.121 197.354C106.466 196.932 106.724 196.532 106.895 196.153C107.065 195.775 107.151 195.372 107.151 194.946C107.151 194.463 107.037 194.046 106.81 193.696C106.582 193.341 106.272 193.069 105.879 192.879C105.486 192.685 105.044 192.588 104.551 192.588C104.03 192.588 103.576 192.695 103.188 192.908C102.799 193.121 102.501 193.421 102.293 193.81C102.084 194.198 101.98 194.652 101.98 195.173H99.8849C99.8849 194.288 100.089 193.514 100.496 192.851C100.903 192.188 101.462 191.674 102.172 191.31C102.882 190.94 103.689 190.756 104.594 190.756C105.508 190.756 106.313 190.938 107.009 191.303C107.709 191.662 108.256 192.155 108.649 192.78C109.042 193.4 109.239 194.101 109.239 194.882C109.239 195.422 109.137 195.95 108.933 196.466C108.734 196.982 108.386 197.557 107.889 198.192C107.392 198.821 106.701 199.586 105.815 200.486L102.925 203.511V203.618H109.473V205.5H99.8991ZM118.439 201.8L118.425 199.207H118.794L123.141 194.591H125.684L120.726 199.847H120.392L118.439 201.8ZM116.486 205.5V190.955H118.61V205.5H116.486ZM123.375 205.5L119.469 200.315L120.932 198.831L125.982 205.5H123.375ZM134.029 200.976V194.591H136.16V205.5H134.072V203.611H133.958C133.708 204.193 133.305 204.679 132.751 205.067C132.202 205.45 131.518 205.642 130.699 205.642C129.998 205.642 129.377 205.488 128.838 205.18C128.303 204.868 127.881 204.406 127.574 203.795C127.27 203.185 127.119 202.429 127.119 201.53V194.591H129.243V201.274C129.243 202.018 129.449 202.609 129.86 203.05C130.272 203.49 130.807 203.71 131.466 203.71C131.863 203.71 132.259 203.611 132.652 203.412C133.049 203.213 133.378 202.912 133.639 202.51C133.904 202.107 134.034 201.596 134.029 200.976ZM145.424 200.976V194.591H147.555V205.5H145.467V203.611H145.353C145.102 204.193 144.7 204.679 144.146 205.067C143.596 205.45 142.912 205.642 142.093 205.642C141.392 205.642 140.772 205.488 140.232 205.18C139.697 204.868 139.276 204.406 138.968 203.795C138.665 203.185 138.513 202.429 138.513 201.53V194.591H140.637V201.274C140.637 202.018 140.843 202.609 141.255 203.05C141.667 203.49 142.202 203.71 142.86 203.71C143.258 203.71 143.653 203.611 144.046 203.412C144.444 203.213 144.773 202.912 145.033 202.51C145.299 202.107 145.429 201.596 145.424 200.976ZM153.992 205.713C153.111 205.713 152.325 205.488 151.634 205.038C150.947 204.584 150.408 203.937 150.015 203.099C149.626 202.257 149.432 201.246 149.432 200.067C149.432 198.888 149.629 197.879 150.022 197.041C150.419 196.203 150.964 195.562 151.655 195.116C152.346 194.671 153.13 194.449 154.006 194.449C154.683 194.449 155.228 194.562 155.64 194.79C156.056 195.012 156.378 195.273 156.605 195.571C156.837 195.869 157.017 196.132 157.145 196.359H157.273V190.955H159.397V205.5H157.323V203.803H157.145C157.017 204.035 156.833 204.3 156.591 204.598C156.355 204.896 156.028 205.157 155.611 205.379C155.194 205.602 154.655 205.713 153.992 205.713ZM154.461 203.902C155.071 203.902 155.587 203.741 156.009 203.419C156.435 203.092 156.757 202.64 156.975 202.062C157.197 201.485 157.309 200.812 157.309 200.045C157.309 199.288 157.2 198.625 156.982 198.057C156.764 197.489 156.444 197.046 156.023 196.729C155.602 196.411 155.081 196.253 154.461 196.253C153.821 196.253 153.289 196.419 152.863 196.75C152.436 197.081 152.114 197.534 151.897 198.107C151.684 198.679 151.577 199.326 151.577 200.045C151.577 200.775 151.686 201.43 151.904 202.013C152.122 202.595 152.444 203.057 152.87 203.398C153.301 203.734 153.831 203.902 154.461 203.902Z" fill="white"/>
<rect x="178.5" y="175.5" width="146" height="45" rx="10.5" stroke="#E3000F" stroke-width="3"/>
<path d="M234.436 189.868L234.052 192.892H229.948V206.5H226.012V192.892H221.716V189.868H234.436ZM245.748 199.876C245.748 200.404 245.724 200.86 245.676 201.244H237.78C237.908 202.316 238.212 203.068 238.692 203.5C239.172 203.932 239.836 204.148 240.684 204.148C241.196 204.148 241.692 204.06 242.172 203.884C242.652 203.692 243.172 203.404 243.732 203.02L245.292 205.132C243.804 206.316 242.148 206.908 240.324 206.908C238.26 206.908 236.676 206.3 235.572 205.084C234.468 203.868 233.916 202.236 233.916 200.188C233.916 198.892 234.148 197.732 234.612 196.708C235.076 195.668 235.756 194.852 236.652 194.26C237.548 193.652 238.62 193.348 239.868 193.348C241.708 193.348 243.148 193.924 244.188 195.076C245.228 196.228 245.748 197.828 245.748 199.876ZM242.028 198.796C241.996 196.844 241.308 195.868 239.964 195.868C239.308 195.868 238.796 196.108 238.428 196.588C238.076 197.068 237.86 197.86 237.78 198.964H242.028V198.796ZM251.263 206.908C250.159 206.908 249.295 206.596 248.671 205.972C248.063 205.332 247.759 204.428 247.759 203.26V188.692L251.551 188.284V203.116C251.551 203.644 251.767 203.908 252.199 203.908C252.423 203.908 252.631 203.868 252.823 203.788L253.567 206.476C252.879 206.764 252.111 206.908 251.263 206.908ZM258.388 206.908C257.284 206.908 256.42 206.596 255.796 205.972C255.188 205.332 254.884 204.428 254.884 203.26V188.692L258.676 188.284V203.116C258.676 203.644 258.892 203.908 259.324 203.908C259.548 203.908 259.756 203.868 259.948 203.788L260.692 206.476C260.004 206.764 259.236 206.908 258.388 206.908ZM265.921 193.756V206.5H262.129V193.756H265.921ZM264.001 187.036C264.657 187.036 265.193 187.244 265.609 187.66C266.041 188.06 266.257 188.572 266.257 189.196C266.257 189.82 266.041 190.34 265.609 190.756C265.193 191.156 264.657 191.356 264.001 191.356C263.345 191.356 262.809 191.156 262.393 190.756C261.977 190.34 261.769 189.82 261.769 189.196C261.769 188.572 261.977 188.06 262.393 187.66C262.809 187.244 263.345 187.036 264.001 187.036ZM276.366 193.348C277.47 193.348 278.334 193.684 278.958 194.356C279.582 195.028 279.894 195.972 279.894 197.188V206.5H276.102V197.836C276.102 197.196 275.998 196.756 275.79 196.516C275.598 196.26 275.302 196.132 274.902 196.132C274.134 196.132 273.398 196.684 272.694 197.788V206.5H268.902V193.756H272.214L272.478 195.268C273.022 194.628 273.606 194.148 274.23 193.828C274.87 193.508 275.582 193.348 276.366 193.348Z" fill="#E3000F"/>
</svg>
