<svg width="350" height="250" viewBox="0 0 350 250" fill="none" xmlns="http://www.w3.org/2000/svg">
<path d="M34.52 40.616C34.52 41.9413 34.24 43.1173 33.68 44.144C33.12 45.1707 32.28 45.9827 31.16 46.58C30.0587 47.1587 28.7147 47.448 27.128 47.448C24.7387 47.448 22.9093 46.832 21.64 45.6C20.3893 44.3493 19.764 42.688 19.764 40.616V27.624H23.88V40.42C23.88 41.7267 24.1413 42.7067 24.664 43.36C25.1867 43.9947 26.008 44.312 27.128 44.312C28.248 44.312 29.0693 43.9947 29.592 43.36C30.1333 42.7067 30.404 41.7267 30.404 40.42V27.624H34.52V40.616ZM50.4323 47H46.9883L46.7923 45.012C46.2696 45.8333 45.635 46.4493 44.8883 46.86C44.1416 47.252 43.2736 47.448 42.2843 47.448C40.9403 47.448 39.9136 47.0467 39.2043 46.244C38.495 45.4227 38.1403 44.284 38.1403 42.828V32.16H42.1163V42.324C42.1163 43.108 42.247 43.668 42.5083 44.004C42.7696 44.3213 43.1803 44.48 43.7403 44.48C44.8043 44.48 45.7096 43.836 46.4563 42.548V32.16H50.4323V47ZM66.9024 39.244C66.9024 39.4307 66.8744 39.944 66.8184 40.784H57.5504C57.6811 42.128 58.0451 43.08 58.6424 43.64C59.2398 44.2 60.0518 44.48 61.0784 44.48C61.7131 44.48 62.3104 44.3773 62.8704 44.172C63.4304 43.9667 64.0371 43.64 64.6904 43.192L66.3424 45.432C64.6811 46.776 62.8051 47.448 60.7144 47.448C58.3811 47.448 56.5891 46.748 55.3384 45.348C54.0878 43.948 53.4624 42.0533 53.4624 39.664C53.4624 38.152 53.7238 36.7987 54.2464 35.604C54.7878 34.3907 55.5624 33.4387 56.5704 32.748C57.5971 32.0573 58.8104 31.712 60.2104 31.712C62.3198 31.712 63.9624 32.3747 65.1384 33.7C66.3144 35.0253 66.9024 36.8733 66.9024 39.244ZM62.9544 38.124C62.9544 35.66 62.0678 34.428 60.2944 34.428C59.4731 34.428 58.8291 34.736 58.3624 35.352C57.9144 35.9493 57.6438 36.9293 57.5504 38.292H62.9544V38.124ZM73.4763 47.448C72.263 47.448 71.3203 47.1027 70.6483 46.412C69.9763 45.7027 69.6403 44.704 69.6403 43.416V26.252L73.6163 25.804V43.304C73.6163 43.9573 73.887 44.284 74.4283 44.284C74.727 44.284 74.9883 44.228 75.2123 44.116L76.0243 46.944C75.259 47.28 74.4096 47.448 73.4763 47.448ZM96.2414 42.884C96.2414 43.4627 96.3254 43.892 96.4934 44.172C96.6614 44.4333 96.9414 44.6293 97.3334 44.76L96.4934 47.392C95.6161 47.3173 94.8974 47.112 94.3374 46.776C93.7961 46.44 93.3761 45.9173 93.0774 45.208C92.1067 46.7013 90.6227 47.448 88.6254 47.448C87.1507 47.448 85.9747 47.028 85.0974 46.188C84.2387 45.3293 83.8094 44.2187 83.8094 42.856C83.8094 41.232 84.3974 39.9907 85.5734 39.132C86.7494 38.2733 88.4387 37.844 90.6414 37.844H92.3494V37.116C92.3494 36.2013 92.1441 35.5667 91.7334 35.212C91.3227 34.8573 90.6414 34.68 89.6894 34.68C88.6441 34.68 87.3374 34.9413 85.7694 35.464L84.8734 32.804C86.7214 32.076 88.5507 31.712 90.3614 31.712C92.3774 31.712 93.8614 32.1507 94.8134 33.028C95.7654 33.8867 96.2414 35.1747 96.2414 36.892V42.884ZM89.7174 44.592C90.8374 44.592 91.7147 44.0413 92.3494 42.94V40.112H91.0334C88.8867 40.112 87.8134 40.9147 87.8134 42.52C87.8134 43.1733 87.9721 43.6867 88.2894 44.06C88.6254 44.4147 89.1014 44.592 89.7174 44.592ZM111.417 42.884C111.417 43.4627 111.501 43.892 111.669 44.172C111.837 44.4333 112.117 44.6293 112.509 44.76L111.669 47.392C110.792 47.3173 110.073 47.112 109.513 46.776C108.972 46.44 108.552 45.9173 108.253 45.208C107.283 46.7013 105.799 47.448 103.801 47.448C102.327 47.448 101.151 47.028 100.273 46.188C99.4145 45.3293 98.9852 44.2187 98.9852 42.856C98.9852 41.232 99.5732 39.9907 100.749 39.132C101.925 38.2733 103.615 37.844 105.817 37.844H107.525V37.116C107.525 36.2013 107.32 35.5667 106.909 35.212C106.499 34.8573 105.817 34.68 104.865 34.68C103.82 34.68 102.513 34.9413 100.945 35.464L100.049 32.804C101.897 32.076 103.727 31.712 105.537 31.712C107.553 31.712 109.037 32.1507 109.989 33.028C110.941 33.8867 111.417 35.1747 111.417 36.892V42.884ZM104.893 44.592C106.013 44.592 106.891 44.0413 107.525 42.94V40.112H106.209C104.063 40.112 102.989 40.9147 102.989 42.52C102.989 43.1733 103.148 43.6867 103.465 44.06C103.801 44.4147 104.277 44.592 104.893 44.592ZM120.044 31.712C122.135 31.712 123.927 32.3093 125.42 33.504L123.908 35.772C122.658 34.988 121.426 34.596 120.212 34.596C119.559 34.596 119.055 34.7173 118.7 34.96C118.346 35.2027 118.168 35.5293 118.168 35.94C118.168 36.2387 118.243 36.4907 118.392 36.696C118.56 36.9013 118.859 37.0973 119.288 37.284C119.736 37.4707 120.399 37.6947 121.276 37.956C122.844 38.3853 124.011 38.964 124.776 39.692C125.542 40.4013 125.924 41.3813 125.924 42.632C125.924 43.6213 125.635 44.48 125.056 45.208C124.496 45.936 123.731 46.496 122.76 46.888C121.79 47.2613 120.707 47.448 119.512 47.448C118.262 47.448 117.123 47.2613 116.096 46.888C115.07 46.496 114.192 45.964 113.464 45.292L115.424 43.108C116.675 44.0787 118 44.564 119.4 44.564C120.147 44.564 120.735 44.424 121.164 44.144C121.612 43.8453 121.836 43.444 121.836 42.94C121.836 42.548 121.752 42.24 121.584 42.016C121.416 41.792 121.108 41.5867 120.66 41.4C120.212 41.1947 119.512 40.9613 118.56 40.7C117.067 40.2893 115.956 39.7107 115.228 38.964C114.519 38.1987 114.164 37.256 114.164 36.136C114.164 35.296 114.407 34.54 114.892 33.868C115.378 33.196 116.059 32.6733 116.936 32.3C117.832 31.908 118.868 31.712 120.044 31.712ZM137.391 46.3C136.849 46.6733 136.233 46.9533 135.543 47.14C134.871 47.3453 134.199 47.448 133.527 47.448C131.996 47.4293 130.839 46.9907 130.055 46.132C129.271 45.2733 128.879 44.0133 128.879 42.352V34.96H126.667V32.16H128.879V28.912L132.855 28.436V32.16H136.271L135.879 34.96H132.855V42.268C132.855 42.9773 132.976 43.4907 133.219 43.808C133.461 44.1253 133.835 44.284 134.339 44.284C134.843 44.284 135.403 44.116 136.019 43.78L137.391 46.3ZM150.191 42.884C150.191 43.4627 150.275 43.892 150.443 44.172C150.611 44.4333 150.891 44.6293 151.283 44.76L150.443 47.392C149.565 47.3173 148.847 47.112 148.287 46.776C147.745 46.44 147.325 45.9173 147.027 45.208C146.056 46.7013 144.572 47.448 142.575 47.448C141.1 47.448 139.924 47.028 139.047 46.188C138.188 45.3293 137.759 44.2187 137.759 42.856C137.759 41.232 138.347 39.9907 139.523 39.132C140.699 38.2733 142.388 37.844 144.591 37.844H146.299V37.116C146.299 36.2013 146.093 35.5667 145.683 35.212C145.272 34.8573 144.591 34.68 143.639 34.68C142.593 34.68 141.287 34.9413 139.719 35.464L138.823 32.804C140.671 32.076 142.5 31.712 144.311 31.712C146.327 31.712 147.811 32.1507 148.763 33.028C149.715 33.8867 150.191 35.1747 150.191 36.892V42.884ZM143.667 44.592C144.787 44.592 145.664 44.0413 146.299 42.94V40.112H144.983C142.836 40.112 141.763 40.9147 141.763 42.52C141.763 43.1733 141.921 43.6867 142.239 44.06C142.575 44.4147 143.051 44.592 143.667 44.592ZM157.586 47.448C156.372 47.448 155.43 47.1027 154.758 46.412C154.086 45.7027 153.75 44.704 153.75 43.416V26.252L157.726 25.804V43.304C157.726 43.9573 157.996 44.284 158.538 44.284C158.836 44.284 159.098 44.228 159.322 44.116L160.134 46.944C159.368 47.28 158.519 47.448 157.586 47.448ZM172.987 25.804V47H169.011V26.252L172.987 25.804ZM182.003 32.16L177.271 38.684L182.423 47H177.915L173.127 38.88L177.887 32.16H182.003ZM195.116 42.884C195.116 43.4627 195.2 43.892 195.368 44.172C195.536 44.4333 195.816 44.6293 196.208 44.76L195.368 47.392C194.491 47.3173 193.772 47.112 193.212 46.776C192.671 46.44 192.251 45.9173 191.952 45.208C190.982 46.7013 189.498 47.448 187.5 47.448C186.026 47.448 184.85 47.028 183.972 46.188C183.114 45.3293 182.684 44.2187 182.684 42.856C182.684 41.232 183.272 39.9907 184.448 39.132C185.624 38.2733 187.314 37.844 189.516 37.844H191.224V37.116C191.224 36.2013 191.019 35.5667 190.608 35.212C190.198 34.8573 189.516 34.68 188.564 34.68C187.519 34.68 186.212 34.9413 184.644 35.464L183.748 32.804C185.596 32.076 187.426 31.712 189.236 31.712C191.252 31.712 192.736 32.1507 193.688 33.028C194.64 33.8867 195.116 35.1747 195.116 36.892V42.884ZM188.592 44.592C189.712 44.592 190.59 44.0413 191.224 42.94V40.112H189.908C187.762 40.112 186.688 40.9147 186.688 42.52C186.688 43.1733 186.847 43.6867 187.164 44.06C187.5 44.4147 187.976 44.592 188.592 44.592ZM186.156 24.824C186.754 24.824 187.248 25.0293 187.64 25.44C188.051 25.832 188.256 26.3173 188.256 26.896C188.256 27.4747 188.051 27.9693 187.64 28.38C187.248 28.772 186.754 28.968 186.156 28.968C185.578 28.968 185.083 28.772 184.672 28.38C184.262 27.9693 184.056 27.4747 184.056 26.896C184.056 26.3173 184.262 25.832 184.672 25.44C185.083 25.0293 185.578 24.824 186.156 24.824ZM192.484 24.824C193.082 24.824 193.586 25.0293 193.996 25.44C194.407 25.832 194.612 26.3173 194.612 26.896C194.612 27.4747 194.407 27.9693 193.996 28.38C193.586 28.772 193.082 28.968 192.484 28.968C191.906 28.968 191.411 28.772 191 28.38C190.608 27.9693 190.412 27.4747 190.412 26.896C190.412 26.3173 190.608 25.832 191 25.44C191.411 25.0293 191.906 24.824 192.484 24.824ZM203.065 32.16V47H199.089V32.16H203.065ZM201.049 24.516C201.758 24.516 202.337 24.74 202.785 25.188C203.252 25.6173 203.485 26.168 203.485 26.84C203.485 27.512 203.252 28.072 202.785 28.52C202.337 28.9493 201.758 29.164 201.049 29.164C200.34 29.164 199.761 28.9493 199.313 28.52C198.865 28.072 198.641 27.512 198.641 26.84C198.641 26.168 198.865 25.6173 199.313 25.188C199.761 24.74 200.34 24.516 201.049 24.516ZM215.279 31.712C216.586 31.712 217.603 32.1133 218.331 32.916C219.059 33.7 219.423 34.792 219.423 36.192V47H215.447V36.864C215.447 36.0613 215.307 35.5013 215.027 35.184C214.766 34.848 214.365 34.68 213.823 34.68C213.263 34.68 212.75 34.8573 212.283 35.212C211.835 35.548 211.397 36.0613 210.967 36.752V47H206.991V32.16H210.435L210.743 34.036C211.359 33.2707 212.031 32.692 212.759 32.3C213.506 31.908 214.346 31.712 215.279 31.712ZM24.888 62.712C26.9787 62.712 28.7707 63.3093 30.264 64.504L28.752 66.772C27.5013 65.988 26.2693 65.596 25.056 65.596C24.4027 65.596 23.8987 65.7173 23.544 65.96C23.1893 66.2027 23.012 66.5293 23.012 66.94C23.012 67.2387 23.0867 67.4907 23.236 67.696C23.404 67.9013 23.7027 68.0973 24.132 68.284C24.58 68.4707 25.2427 68.6947 26.12 68.956C27.688 69.3853 28.8547 69.964 29.62 70.692C30.3853 71.4013 30.768 72.3813 30.768 73.632C30.768 74.6213 30.4787 75.48 29.9 76.208C29.34 76.936 28.5747 77.496 27.604 77.888C26.6333 78.2613 25.5507 78.448 24.356 78.448C23.1053 78.448 21.9667 78.2613 20.94 77.888C19.9133 77.496 19.036 76.964 18.308 76.292L20.268 74.108C21.5187 75.0787 22.844 75.564 24.244 75.564C24.9907 75.564 25.5787 75.424 26.008 75.144C26.456 74.8453 26.68 74.444 26.68 73.94C26.68 73.548 26.596 73.24 26.428 73.016C26.26 72.792 25.952 72.5867 25.504 72.4C25.056 72.1947 24.356 71.9613 23.404 71.7C21.9107 71.2893 20.8 70.7107 20.072 69.964C19.3627 69.1987 19.008 68.256 19.008 67.136C19.008 66.296 19.2507 65.54 19.736 64.868C20.2213 64.196 20.9027 63.6733 21.78 63.3C22.676 62.908 23.712 62.712 24.888 62.712ZM39.6024 62.712C41.8238 62.712 43.5598 63.412 44.8104 64.812C46.0611 66.1933 46.6864 68.116 46.6864 70.58C46.6864 72.148 46.3971 73.5293 45.8184 74.724C45.2584 75.9 44.4371 76.8147 43.3544 77.468C42.2904 78.1213 41.0304 78.448 39.5744 78.448C37.3531 78.448 35.6078 77.7573 34.3384 76.376C33.0878 74.976 32.4624 73.044 32.4624 70.58C32.4624 69.012 32.7424 67.64 33.3024 66.464C33.8811 65.2693 34.7024 64.3453 35.7664 63.692C36.8491 63.0387 38.1278 62.712 39.6024 62.712ZM39.6024 65.68C38.5944 65.68 37.8384 66.0813 37.3344 66.884C36.8491 67.668 36.6064 68.9 36.6064 70.58C36.6064 72.26 36.8491 73.5013 37.3344 74.304C37.8384 75.088 38.5851 75.48 39.5744 75.48C40.5638 75.48 41.3011 75.088 41.7864 74.304C42.2904 73.5013 42.5424 72.26 42.5424 70.58C42.5424 68.9 42.2998 67.668 41.8144 66.884C41.3291 66.0813 40.5918 65.68 39.6024 65.68ZM41.1984 60.08C40.8064 60.08 40.4611 60.0147 40.1624 59.884C39.8824 59.7533 39.5464 59.5667 39.1544 59.324C38.9118 59.1373 38.6971 59.0067 38.5104 58.932C38.3424 58.8387 38.1651 58.792 37.9784 58.792C37.6798 58.792 37.4184 58.8947 37.1944 59.1C36.9704 59.3053 36.7371 59.6227 36.4944 60.052L34.4504 59.044C34.8238 58.1293 35.3091 57.3827 35.9064 56.804C36.5038 56.2253 37.1758 55.936 37.9224 55.936C38.3518 55.936 38.7158 56.0107 39.0144 56.16C39.3131 56.2907 39.6491 56.4773 40.0224 56.72C40.2651 56.888 40.4704 57.0187 40.6384 57.112C40.8064 57.1867 40.9838 57.224 41.1704 57.224C41.4691 57.224 41.7211 57.1307 41.9264 56.944C42.1504 56.7387 42.3931 56.4213 42.6544 55.992L44.6984 57C44.3251 57.952 43.8398 58.708 43.2424 59.268C42.6451 59.8093 41.9638 60.08 41.1984 60.08ZM57.746 62.712C59.482 62.712 60.826 63.4027 61.778 64.784C62.7487 66.1653 63.234 68.0973 63.234 70.58C63.234 72.1107 62.9913 73.4733 62.506 74.668C62.0393 75.844 61.358 76.768 60.462 77.44C59.5847 78.112 58.5487 78.448 57.354 78.448C55.73 78.448 54.4327 77.8133 53.462 76.544L53.238 78H49.71V57.252L53.686 56.804V64.756C54.1527 64.1213 54.7407 63.6267 55.45 63.272C56.1593 62.8987 56.9247 62.712 57.746 62.712ZM56.234 75.508C58.138 75.508 59.09 73.8653 59.09 70.58C59.09 68.7693 58.8567 67.5 58.39 66.772C57.942 66.0253 57.2887 65.652 56.43 65.652C55.366 65.652 54.4513 66.2867 53.686 67.556V73.912C54.3393 74.976 55.1887 75.508 56.234 75.508ZM74.0617 62.74C74.5097 62.74 75.0044 62.8147 75.5457 62.964L74.8737 66.8C74.351 66.6693 73.9124 66.604 73.5577 66.604C72.6804 66.604 71.999 66.912 71.5137 67.528C71.0284 68.144 70.6457 69.0773 70.3657 70.328V78H66.3897V63.16H69.8337L70.1977 66.044C70.5524 64.9987 71.0657 64.1867 71.7377 63.608C72.4284 63.0293 73.203 62.74 74.0617 62.74ZM87.8742 73.884C87.8742 74.4627 87.9582 74.892 88.1262 75.172C88.2942 75.4333 88.5742 75.6293 88.9662 75.76L88.1262 78.392C87.2489 78.3173 86.5302 78.112 85.9702 77.776C85.4289 77.44 85.0089 76.9173 84.7102 76.208C83.7396 77.7013 82.2556 78.448 80.2582 78.448C78.7836 78.448 77.6076 78.028 76.7302 77.188C75.8716 76.3293 75.4422 75.2187 75.4422 73.856C75.4422 72.232 76.0302 70.9907 77.2062 70.132C78.3822 69.2733 80.0716 68.844 82.2742 68.844H83.9822V68.116C83.9822 67.2013 83.7769 66.5667 83.3662 66.212C82.9556 65.8573 82.2742 65.68 81.3222 65.68C80.2769 65.68 78.9702 65.9413 77.4022 66.464L76.5062 63.804C78.3542 63.076 80.1836 62.712 81.9942 62.712C84.0102 62.712 85.4942 63.1507 86.4462 64.028C87.3982 64.8867 87.8742 66.1747 87.8742 67.892V73.884ZM81.3502 75.592C82.4702 75.592 83.3476 75.0413 83.9822 73.94V71.112H82.6662C80.5196 71.112 79.4462 71.9147 79.4462 73.52C79.4462 74.1733 79.6049 74.6867 79.9222 75.06C80.2582 75.4147 80.7342 75.592 81.3502 75.592ZM100.135 62.712C101.441 62.712 102.459 63.1133 103.187 63.916C103.915 64.7 104.279 65.792 104.279 67.192V78H100.303V67.864C100.303 67.0613 100.163 66.5013 99.8827 66.184C99.6214 65.848 99.2201 65.68 98.6787 65.68C98.1187 65.68 97.6054 65.8573 97.1387 66.212C96.6907 66.548 96.2521 67.0613 95.8227 67.752V78H91.8467V63.16H95.2907L95.5987 65.036C96.2147 64.2707 96.8867 63.692 97.6147 63.3C98.3614 62.908 99.2014 62.712 100.135 62.712ZM116.35 62.712C117.656 62.712 118.674 63.1133 119.402 63.916C120.13 64.7 120.494 65.792 120.494 67.192V78H116.518V67.864C116.518 67.0613 116.378 66.5013 116.098 66.184C115.836 65.848 115.435 65.68 114.894 65.68C114.334 65.68 113.82 65.8573 113.354 66.212C112.906 66.548 112.467 67.0613 112.038 67.752V78H108.062V63.16H111.506L111.814 65.036C112.43 64.2707 113.102 63.692 113.83 63.3C114.576 62.908 115.416 62.712 116.35 62.712ZM135.616 73.884C135.616 74.4627 135.7 74.892 135.868 75.172C136.036 75.4333 136.316 75.6293 136.708 75.76L135.868 78.392C134.991 78.3173 134.272 78.112 133.712 77.776C133.171 77.44 132.751 76.9173 132.452 76.208C131.482 77.7013 129.998 78.448 128 78.448C126.526 78.448 125.35 78.028 124.472 77.188C123.614 76.3293 123.184 75.2187 123.184 73.856C123.184 72.232 123.772 70.9907 124.948 70.132C126.124 69.2733 127.814 68.844 130.016 68.844H131.724V68.116C131.724 67.2013 131.519 66.5667 131.108 66.212C130.698 65.8573 130.016 65.68 129.064 65.68C128.019 65.68 126.712 65.9413 125.144 66.464L124.248 63.804C126.096 63.076 127.926 62.712 129.736 62.712C131.752 62.712 133.236 63.1507 134.188 64.028C135.14 64.8867 135.616 66.1747 135.616 67.892V73.884ZM129.092 75.592C130.212 75.592 131.09 75.0413 131.724 73.94V71.112H130.408C128.262 71.112 127.188 71.9147 127.188 73.52C127.188 74.1733 127.347 74.6867 127.664 75.06C128 75.4147 128.476 75.592 129.092 75.592ZM152.441 57.252V78H148.941L148.717 76.18C147.672 77.692 146.253 78.448 144.461 78.448C142.632 78.448 141.232 77.748 140.261 76.348C139.309 74.9293 138.833 73.0067 138.833 70.58C138.833 69.0493 139.076 67.696 139.561 66.52C140.065 65.3253 140.774 64.392 141.689 63.72C142.604 63.048 143.658 62.712 144.853 62.712C146.234 62.712 147.438 63.2067 148.465 64.196V56.804L152.441 57.252ZM145.637 75.48C146.216 75.48 146.729 75.34 147.177 75.06C147.625 74.7613 148.054 74.304 148.465 73.688V67.052C148.073 66.5853 147.672 66.24 147.261 66.016C146.869 65.7733 146.412 65.652 145.889 65.652C144.974 65.652 144.256 66.0533 143.733 66.856C143.229 67.6587 142.977 68.9 142.977 70.58C142.977 72.3533 143.201 73.6133 143.649 74.36C144.116 75.1067 144.778 75.48 145.637 75.48ZM168.895 70.244C168.895 70.4307 168.867 70.944 168.811 71.784H159.543C159.673 73.128 160.037 74.08 160.635 74.64C161.232 75.2 162.044 75.48 163.071 75.48C163.705 75.48 164.303 75.3773 164.863 75.172C165.423 74.9667 166.029 74.64 166.683 74.192L168.335 76.432C166.673 77.776 164.797 78.448 162.707 78.448C160.373 78.448 158.581 77.748 157.331 76.348C156.08 74.948 155.455 73.0533 155.455 70.664C155.455 69.152 155.716 67.7987 156.239 66.604C156.78 65.3907 157.555 64.4387 158.563 63.748C159.589 63.0573 160.803 62.712 162.203 62.712C164.312 62.712 165.955 63.3747 167.131 64.7C168.307 66.0253 168.895 67.8733 168.895 70.244ZM164.947 69.124C164.947 66.66 164.06 65.428 162.287 65.428C161.465 65.428 160.821 65.736 160.355 66.352C159.907 66.9493 159.636 67.9293 159.543 69.292H164.947V69.124ZM185.045 63.972C184.074 64.3453 182.646 64.532 180.761 64.532C181.694 64.9427 182.385 65.456 182.833 66.072C183.281 66.6693 183.505 67.4253 183.505 68.34C183.505 69.292 183.253 70.1507 182.749 70.916C182.263 71.6627 181.554 72.2507 180.621 72.68C179.706 73.1093 178.633 73.324 177.401 73.324C176.747 73.324 176.169 73.2587 175.665 73.128C175.291 73.3707 175.105 73.6973 175.105 74.108C175.105 74.4067 175.217 74.6493 175.441 74.836C175.683 75.004 176.141 75.088 176.812 75.088H179.081C180.182 75.088 181.143 75.2747 181.965 75.648C182.805 76.0027 183.449 76.5067 183.897 77.16C184.363 77.7947 184.596 78.5227 184.596 79.344C184.596 80.856 183.943 82.032 182.637 82.872C181.349 83.7307 179.482 84.16 177.037 84.16C175.282 84.16 173.891 83.9733 172.865 83.6C171.857 83.2453 171.147 82.7227 170.736 82.032C170.326 81.3413 170.121 80.4733 170.121 79.428H173.677C173.677 79.9133 173.77 80.296 173.957 80.576C174.143 80.8747 174.479 81.0893 174.965 81.22C175.469 81.3693 176.187 81.444 177.121 81.444C178.409 81.444 179.305 81.2853 179.809 80.968C180.331 80.6507 180.593 80.2027 180.593 79.624C180.593 79.1013 180.397 78.7 180.005 78.42C179.613 78.14 179.034 78 178.269 78H176.085C174.61 78 173.509 77.7293 172.781 77.188C172.053 76.628 171.689 75.928 171.689 75.088C171.689 74.5653 171.838 74.0613 172.137 73.576C172.454 73.072 172.883 72.652 173.425 72.316C172.51 71.812 171.838 71.224 171.409 70.552C170.998 69.8613 170.793 69.04 170.793 68.088C170.793 67.0053 171.054 66.0627 171.577 65.26C172.118 64.4387 172.865 63.8133 173.817 63.384C174.787 62.936 175.889 62.712 177.121 62.712C178.651 62.7493 179.911 62.6187 180.901 62.32C181.89 62.0213 182.945 61.5547 184.065 60.92L185.045 63.972ZM177.204 65.372C176.458 65.372 175.861 65.6147 175.413 66.1C174.983 66.5667 174.769 67.2107 174.769 68.032C174.769 68.872 174.983 69.5347 175.413 70.02C175.861 70.5053 176.467 70.748 177.233 70.748C178.035 70.748 178.642 70.5147 179.053 70.048C179.463 69.5813 179.669 68.8907 179.669 67.976C179.669 66.24 178.847 65.372 177.204 65.372ZM197.714 73.884C197.714 74.4627 197.798 74.892 197.966 75.172C198.134 75.4333 198.414 75.6293 198.806 75.76L197.966 78.392C197.089 78.3173 196.37 78.112 195.81 77.776C195.269 77.44 194.849 76.9173 194.55 76.208C193.579 77.7013 192.095 78.448 190.098 78.448C188.623 78.448 187.447 78.028 186.57 77.188C185.711 76.3293 185.282 75.2187 185.282 73.856C185.282 72.232 185.87 70.9907 187.046 70.132C188.222 69.2733 189.911 68.844 192.114 68.844H193.822V68.116C193.822 67.2013 193.617 66.5667 193.206 66.212C192.795 65.8573 192.114 65.68 191.162 65.68C190.117 65.68 188.81 65.9413 187.242 66.464L186.346 63.804C188.194 63.076 190.023 62.712 191.834 62.712C193.85 62.712 195.334 63.1507 196.286 64.028C197.238 64.8867 197.714 66.1747 197.714 67.892V73.884ZM191.19 75.592C192.31 75.592 193.187 75.0413 193.822 73.94V71.112H192.506C190.359 71.112 189.286 71.9147 189.286 73.52C189.286 74.1733 189.445 74.6867 189.762 75.06C190.098 75.4147 190.574 75.592 191.19 75.592ZM216.195 62.74C216.643 62.74 217.137 62.8147 217.679 62.964L217.007 66.8C216.484 66.6693 216.045 66.604 215.691 66.604C214.813 66.604 214.132 66.912 213.647 67.528C213.161 68.144 212.779 69.0773 212.499 70.328V78H208.523V63.16H211.967L212.331 66.044C212.685 64.9987 213.199 64.1867 213.871 63.608C214.561 63.0293 215.336 62.74 216.195 62.74ZM225.048 62.712C227.269 62.712 229.005 63.412 230.256 64.812C231.506 66.1933 232.132 68.116 232.132 70.58C232.132 72.148 231.842 73.5293 231.264 74.724C230.704 75.9 229.882 76.8147 228.8 77.468C227.736 78.1213 226.476 78.448 225.02 78.448C222.798 78.448 221.053 77.7573 219.784 76.376C218.533 74.976 217.908 73.044 217.908 70.58C217.908 69.012 218.188 67.64 218.748 66.464C219.326 65.2693 220.148 64.3453 221.212 63.692C222.294 63.0387 223.573 62.712 225.048 62.712ZM225.048 65.68C224.04 65.68 223.284 66.0813 222.78 66.884C222.294 67.668 222.052 68.9 222.052 70.58C222.052 72.26 222.294 73.5013 222.78 74.304C223.284 75.088 224.03 75.48 225.02 75.48C226.009 75.48 226.746 75.088 227.232 74.304C227.736 73.5013 227.988 72.26 227.988 70.58C227.988 68.9 227.745 67.668 227.26 66.884C226.774 66.0813 226.037 65.68 225.048 65.68ZM243.443 62.712C244.731 62.712 245.739 63.1133 246.467 63.916C247.214 64.7 247.587 65.792 247.587 67.192V78H243.611V67.864C243.611 67.0613 243.471 66.5013 243.191 66.184C242.911 65.848 242.51 65.68 241.987 65.68C240.942 65.68 239.99 66.3613 239.131 67.724V78H235.155V57.252L239.131 56.832V64.84C239.729 64.1307 240.373 63.5987 241.063 63.244C241.773 62.8893 242.566 62.712 243.443 62.712ZM255.346 56.804V78H251.37V57.252L255.346 56.804ZM264.362 63.16L259.63 69.684L264.782 78H260.274L255.486 69.88L260.246 63.16H264.362ZM278.762 70.244C278.762 70.4307 278.734 70.944 278.678 71.784H269.41C269.54 73.128 269.904 74.08 270.502 74.64C271.099 75.2 271.911 75.48 272.938 75.48C273.572 75.48 274.17 75.3773 274.73 75.172C275.29 74.9667 275.896 74.64 276.55 74.192L278.202 76.432C276.54 77.776 274.664 78.448 272.574 78.448C270.24 78.448 268.448 77.748 267.198 76.348C265.947 74.948 265.322 73.0533 265.322 70.664C265.322 69.152 265.583 67.7987 266.106 66.604C266.647 65.3907 267.422 64.4387 268.43 63.748C269.456 63.0573 270.67 62.712 272.07 62.712C274.179 62.712 275.822 63.3747 276.998 64.7C278.174 66.0253 278.762 67.8733 278.762 70.244ZM274.814 69.124C274.814 66.66 273.927 65.428 272.154 65.428C271.332 65.428 270.688 65.736 270.222 66.352C269.774 66.9493 269.503 67.9293 269.41 69.292H274.814V69.124ZM297.684 62.712C298.86 62.712 299.802 63.1133 300.512 63.916C301.24 64.7187 301.604 65.8107 301.604 67.192V78H297.628V67.864C297.628 66.408 297.142 65.68 296.172 65.68C295.649 65.68 295.192 65.848 294.8 66.184C294.408 66.52 294.006 67.0427 293.596 67.752V78H289.62V67.864C289.62 66.408 289.134 65.68 288.164 65.68C287.641 65.68 287.184 65.8573 286.792 66.212C286.4 66.548 286.008 67.0613 285.616 67.752V78H281.64V63.16H285.084L285.392 65.008C285.952 64.2613 286.577 63.692 287.268 63.3C287.977 62.908 288.789 62.712 289.704 62.712C290.544 62.712 291.272 62.9267 291.888 63.356C292.504 63.7667 292.952 64.3547 293.232 65.12C293.848 64.3173 294.51 63.72 295.22 63.328C295.948 62.9173 296.769 62.712 297.684 62.712ZM23.936 87.804V109H19.96V88.252L23.936 87.804ZM32.952 94.16L28.22 100.684L33.372 109H28.864L24.076 100.88L28.836 94.16H32.952ZM41.0517 93.712C43.273 93.712 45.009 94.412 46.2597 95.812C47.5103 97.1933 48.1357 99.116 48.1357 101.58C48.1357 103.148 47.8463 104.529 47.2677 105.724C46.7077 106.9 45.8863 107.815 44.8037 108.468C43.7397 109.121 42.4797 109.448 41.0237 109.448C38.8023 109.448 37.057 108.757 35.7877 107.376C34.537 105.976 33.9117 104.044 33.9117 101.58C33.9117 100.012 34.1917 98.64 34.7517 97.464C35.3303 96.2693 36.1517 95.3453 37.2157 94.692C38.2983 94.0387 39.577 93.712 41.0517 93.712ZM41.0517 96.68C40.0437 96.68 39.2877 97.0813 38.7837 97.884C38.2983 98.668 38.0557 99.9 38.0557 101.58C38.0557 103.26 38.2983 104.501 38.7837 105.304C39.2877 106.088 40.0343 106.48 41.0237 106.48C42.013 106.48 42.7503 106.088 43.2357 105.304C43.7397 104.501 43.9917 103.26 43.9917 101.58C43.9917 99.9 43.749 98.668 43.2637 97.884C42.7783 97.0813 42.041 96.68 41.0517 96.68ZM59.4472 93.712C60.7352 93.712 61.7432 94.1133 62.4712 94.916C63.2179 95.7 63.5912 96.792 63.5912 98.192V109H59.6152V98.864C59.6152 98.0613 59.4752 97.5013 59.1952 97.184C58.9152 96.848 58.5139 96.68 57.9912 96.68C56.9459 96.68 55.9939 97.3613 55.1352 98.724V109H51.1592V88.252L55.1352 87.832V95.84C55.7326 95.1307 56.3766 94.5987 57.0672 94.244C57.7766 93.8893 58.5699 93.712 59.4472 93.712ZM79.53 94.16L74.77 109H70.038L65.194 94.16H69.506L72.446 105.892L75.442 94.16H79.53ZM85.4048 94.16V109H81.4288V94.16H85.4048ZM83.3888 86.516C84.0981 86.516 84.6768 86.74 85.1248 87.188C85.5914 87.6173 85.8248 88.168 85.8248 88.84C85.8248 89.512 85.5914 90.072 85.1248 90.52C84.6768 90.9493 84.0981 91.164 83.3888 91.164C82.6794 91.164 82.1008 90.9493 81.6528 90.52C81.2048 90.072 80.9808 89.512 80.9808 88.84C80.9808 88.168 81.2048 87.6173 81.6528 87.188C82.1008 86.74 82.6794 86.516 83.3888 86.516ZM98.2071 108.3C97.6658 108.673 97.0498 108.953 96.3591 109.14C95.6871 109.345 95.0151 109.448 94.3431 109.448C92.8124 109.429 91.6551 108.991 90.8711 108.132C90.0871 107.273 89.6951 106.013 89.6951 104.352V96.96H87.4831V94.16H89.6951V90.912L93.6711 90.436V94.16H97.0871L96.6951 96.96H93.6711V104.268C93.6711 104.977 93.7924 105.491 94.0351 105.808C94.2778 106.125 94.6511 106.284 95.1551 106.284C95.6591 106.284 96.2191 106.116 96.8351 105.78L98.2071 108.3ZM111.007 104.884C111.007 105.463 111.091 105.892 111.259 106.172C111.427 106.433 111.707 106.629 112.099 106.76L111.259 109.392C110.382 109.317 109.663 109.112 109.103 108.776C108.562 108.44 108.142 107.917 107.843 107.208C106.872 108.701 105.388 109.448 103.391 109.448C101.916 109.448 100.74 109.028 99.863 108.188C99.0044 107.329 98.575 106.219 98.575 104.856C98.575 103.232 99.163 101.991 100.339 101.132C101.515 100.273 103.204 99.844 105.407 99.844H107.115V99.116C107.115 98.2013 106.91 97.5667 106.499 97.212C106.088 96.8573 105.407 96.68 104.455 96.68C103.41 96.68 102.103 96.9413 100.535 97.464L99.639 94.804C101.487 94.076 103.316 93.712 105.127 93.712C107.143 93.712 108.627 94.1507 109.579 95.028C110.531 95.8867 111.007 97.1747 111.007 98.892V104.884ZM104.483 106.592C105.603 106.592 106.48 106.041 107.115 104.94V102.112H105.799C103.652 102.112 102.579 102.915 102.579 104.52C102.579 105.173 102.738 105.687 103.055 106.06C103.391 106.415 103.867 106.592 104.483 106.592ZM131.024 93.712C132.2 93.712 133.142 94.1133 133.852 94.916C134.58 95.7187 134.944 96.8107 134.944 98.192V109H130.968V98.864C130.968 97.408 130.482 96.68 129.512 96.68C128.989 96.68 128.532 96.848 128.14 97.184C127.748 97.52 127.346 98.0427 126.936 98.752V109H122.96V98.864C122.96 97.408 122.474 96.68 121.504 96.68C120.981 96.68 120.524 96.8573 120.132 97.212C119.74 97.548 119.348 98.0613 118.956 98.752V109H114.98V94.16H118.424L118.732 96.008C119.292 95.2613 119.917 94.692 120.608 94.3C121.317 93.908 122.129 93.712 123.044 93.712C123.884 93.712 124.612 93.9267 125.228 94.356C125.844 94.7667 126.292 95.3547 126.572 96.12C127.188 95.3173 127.85 94.72 128.56 94.328C129.288 93.9173 130.109 93.712 131.024 93.712ZM150.054 104.884C150.054 105.463 150.138 105.892 150.306 106.172C150.474 106.433 150.754 106.629 151.146 106.76L150.306 109.392C149.429 109.317 148.71 109.112 148.15 108.776C147.609 108.44 147.189 107.917 146.89 107.208C145.919 108.701 144.435 109.448 142.438 109.448C140.963 109.448 139.787 109.028 138.91 108.188C138.051 107.329 137.622 106.219 137.622 104.856C137.622 103.232 138.21 101.991 139.386 101.132C140.562 100.273 142.251 99.844 144.454 99.844H146.162V99.116C146.162 98.2013 145.957 97.5667 145.546 97.212C145.135 96.8573 144.454 96.68 143.502 96.68C142.457 96.68 141.15 96.9413 139.582 97.464L138.686 94.804C140.534 94.076 142.363 93.712 144.174 93.712C146.19 93.712 147.674 94.1507 148.626 95.028C149.578 95.8867 150.054 97.1747 150.054 98.892V104.884ZM143.53 106.592C144.65 106.592 145.527 106.041 146.162 104.94V102.112H144.846C142.699 102.112 141.626 102.915 141.626 104.52C141.626 105.173 141.785 105.687 142.102 106.06C142.438 106.415 142.914 106.592 143.53 106.592ZM158.681 93.712C160.772 93.712 162.564 94.3093 164.057 95.504L162.545 97.772C161.294 96.988 160.062 96.596 158.849 96.596C158.196 96.596 157.692 96.7173 157.337 96.96C156.982 97.2027 156.805 97.5293 156.805 97.94C156.805 98.2387 156.88 98.4907 157.029 98.696C157.197 98.9013 157.496 99.0973 157.925 99.284C158.373 99.4707 159.036 99.6947 159.913 99.956C161.481 100.385 162.648 100.964 163.413 101.692C164.178 102.401 164.561 103.381 164.561 104.632C164.561 105.621 164.272 106.48 163.693 107.208C163.133 107.936 162.368 108.496 161.397 108.888C160.426 109.261 159.344 109.448 158.149 109.448C156.898 109.448 155.76 109.261 154.733 108.888C153.706 108.496 152.829 107.964 152.101 107.292L154.061 105.108C155.312 106.079 156.637 106.564 158.037 106.564C158.784 106.564 159.372 106.424 159.801 106.144C160.249 105.845 160.473 105.444 160.473 104.94C160.473 104.548 160.389 104.24 160.221 104.016C160.053 103.792 159.745 103.587 159.297 103.4C158.849 103.195 158.149 102.961 157.197 102.7C155.704 102.289 154.593 101.711 153.865 100.964C153.156 100.199 152.801 99.256 152.801 98.136C152.801 97.296 153.044 96.54 153.529 95.868C154.014 95.196 154.696 94.6733 155.573 94.3C156.469 93.908 157.505 93.712 158.681 93.712ZM168.523 104.66C169.195 104.66 169.765 104.893 170.231 105.36C170.698 105.827 170.931 106.387 170.931 107.04C170.931 107.693 170.698 108.263 170.231 108.748C169.765 109.215 169.195 109.448 168.523 109.448C167.87 109.448 167.31 109.215 166.843 108.748C166.377 108.263 166.143 107.693 166.143 107.04C166.143 106.387 166.377 105.827 166.843 105.36C167.31 104.893 167.87 104.66 168.523 104.66Z" fill="#E3000F"/>
<path d="M22.2861 125.359V141H19.5898V125.359H22.2861ZM31.6855 125.359L25.3477 132.89L21.7383 136.714L21.2656 134.039L23.8438 130.859L28.3984 125.359H31.6855ZM28.7852 141L23.6396 133.588L25.498 131.751L31.9863 141H28.7852ZM39.9678 138.261V129.377H42.5674V141H40.1182L39.9678 138.261ZM40.333 135.844L41.2031 135.822C41.2031 136.603 41.1172 137.323 40.9453 137.981C40.7734 138.633 40.5085 139.202 40.1504 139.689C39.7923 140.169 39.334 140.545 38.7754 140.817C38.2168 141.082 37.5472 141.215 36.7666 141.215C36.2008 141.215 35.6816 141.132 35.209 140.968C34.7363 140.803 34.3281 140.549 33.9844 140.205C33.6478 139.861 33.3864 139.414 33.2002 138.862C33.014 138.311 32.9209 137.652 32.9209 136.886V129.377H35.5098V136.907C35.5098 137.33 35.5599 137.684 35.6602 137.971C35.7604 138.25 35.8965 138.476 36.0684 138.647C36.2402 138.819 36.4408 138.941 36.6699 139.013C36.8991 139.084 37.1426 139.12 37.4004 139.12C38.138 139.12 38.7181 138.977 39.1406 138.69C39.5703 138.397 39.8747 138.003 40.0537 137.509C40.2399 137.015 40.333 136.46 40.333 135.844ZM47.9922 129.377V141H45.3926V129.377H47.9922ZM45.2207 126.326C45.2207 125.932 45.3496 125.606 45.6074 125.349C45.8724 125.084 46.2376 124.951 46.7031 124.951C47.1615 124.951 47.5231 125.084 47.7881 125.349C48.0531 125.606 48.1855 125.932 48.1855 126.326C48.1855 126.713 48.0531 127.035 47.7881 127.293C47.5231 127.551 47.1615 127.68 46.7031 127.68C46.2376 127.68 45.8724 127.551 45.6074 127.293C45.3496 127.035 45.2207 126.713 45.2207 126.326ZM61.4307 141.215C60.5713 141.215 59.7943 141.075 59.0996 140.796C58.4121 140.509 57.8249 140.112 57.3379 139.604C56.8581 139.095 56.4893 138.497 56.2314 137.81C55.9736 137.122 55.8447 136.381 55.8447 135.586V135.156C55.8447 134.247 55.9772 133.423 56.2422 132.686C56.5072 131.948 56.876 131.318 57.3486 130.795C57.8213 130.265 58.3799 129.86 59.0244 129.581C59.6689 129.302 60.3672 129.162 61.1191 129.162C61.9499 129.162 62.6768 129.302 63.2998 129.581C63.9229 129.86 64.4385 130.254 64.8467 130.763C65.262 131.264 65.57 131.862 65.7705 132.557C65.9782 133.251 66.082 134.018 66.082 134.855V135.962H57.1016V134.104H63.5254V133.899C63.5111 133.434 63.418 132.997 63.2461 132.589C63.0814 132.181 62.8271 131.851 62.4834 131.601C62.1396 131.35 61.6813 131.225 61.1084 131.225C60.6787 131.225 60.2956 131.318 59.959 131.504C59.6296 131.683 59.3538 131.944 59.1318 132.288C58.9098 132.632 58.738 133.047 58.6162 133.534C58.5016 134.014 58.4443 134.555 58.4443 135.156V135.586C58.4443 136.094 58.5124 136.567 58.6484 137.004C58.7917 137.434 58.9993 137.81 59.2715 138.132C59.5436 138.454 59.873 138.708 60.2598 138.895C60.6465 139.074 61.0869 139.163 61.5811 139.163C62.2041 139.163 62.7591 139.038 63.2461 138.787C63.7331 138.536 64.1556 138.182 64.5137 137.724L65.8779 139.045C65.6273 139.41 65.3014 139.761 64.9004 140.098C64.4993 140.427 64.0088 140.696 63.4287 140.903C62.8558 141.111 62.1898 141.215 61.4307 141.215ZM70.873 129.377V141H68.2734V129.377H70.873ZM68.1016 126.326C68.1016 125.932 68.2305 125.606 68.4883 125.349C68.7533 125.084 69.1185 124.951 69.584 124.951C70.0423 124.951 70.404 125.084 70.6689 125.349C70.9339 125.606 71.0664 125.932 71.0664 126.326C71.0664 126.713 70.9339 127.035 70.6689 127.293C70.404 127.551 70.0423 127.68 69.584 127.68C69.1185 127.68 68.7533 127.551 68.4883 127.293C68.2305 127.035 68.1016 126.713 68.1016 126.326ZM79.3164 129.377H81.916V142.01C81.916 142.805 81.7799 143.474 81.5078 144.019C81.2357 144.57 80.8346 144.985 80.3047 145.265C79.7747 145.551 79.1266 145.694 78.3604 145.694C78.1312 145.694 77.8949 145.676 77.6514 145.641C77.4007 145.612 77.1644 145.569 76.9424 145.512L76.9531 143.492C77.1035 143.521 77.2646 143.542 77.4365 143.557C77.6012 143.578 77.7588 143.589 77.9092 143.589C78.2171 143.589 78.4749 143.535 78.6826 143.428C78.8903 143.32 79.0479 143.152 79.1553 142.923C79.2627 142.694 79.3164 142.389 79.3164 142.01V129.377ZM79.0908 126.326C79.0908 125.932 79.2233 125.606 79.4883 125.349C79.7533 125.084 80.1149 124.951 80.5732 124.951C81.0387 124.951 81.4004 125.084 81.6582 125.349C81.9232 125.606 82.0557 125.932 82.0557 126.326C82.0557 126.713 81.9232 127.035 81.6582 127.293C81.4004 127.551 81.0387 127.68 80.5732 127.68C80.1149 127.68 79.7533 127.551 79.4883 127.293C79.2233 127.035 79.0908 126.713 79.0908 126.326ZM84.2148 135.317V135.07C84.2148 134.232 84.3366 133.455 84.5801 132.739C84.8236 132.016 85.1745 131.389 85.6328 130.859C86.0983 130.322 86.6641 129.907 87.3301 129.613C88.0033 129.312 88.7624 129.162 89.6074 129.162C90.4596 129.162 91.2188 129.312 91.8848 129.613C92.5579 129.907 93.1273 130.322 93.5928 130.859C94.0583 131.389 94.4128 132.016 94.6562 132.739C94.8997 133.455 95.0215 134.232 95.0215 135.07V135.317C95.0215 136.155 94.8997 136.932 94.6562 137.648C94.4128 138.365 94.0583 138.991 93.5928 139.528C93.1273 140.058 92.5615 140.474 91.8955 140.774C91.2295 141.068 90.474 141.215 89.6289 141.215C88.7767 141.215 88.014 141.068 87.3408 140.774C86.6748 140.474 86.109 140.058 85.6436 139.528C85.1781 138.991 84.8236 138.365 84.5801 137.648C84.3366 136.932 84.2148 136.155 84.2148 135.317ZM86.8037 135.07V135.317C86.8037 135.84 86.8574 136.334 86.9648 136.8C87.0723 137.265 87.2406 137.674 87.4697 138.024C87.6989 138.375 87.9925 138.651 88.3506 138.852C88.7087 139.052 89.1348 139.152 89.6289 139.152C90.1087 139.152 90.5241 139.052 90.875 138.852C91.2331 138.651 91.5267 138.375 91.7559 138.024C91.985 137.674 92.1533 137.265 92.2607 136.8C92.3753 136.334 92.4326 135.84 92.4326 135.317V135.07C92.4326 134.555 92.3753 134.068 92.2607 133.609C92.1533 133.144 91.9814 132.732 91.7451 132.374C91.516 132.016 91.2223 131.737 90.8643 131.536C90.5133 131.328 90.0944 131.225 89.6074 131.225C89.1204 131.225 88.6979 131.328 88.3398 131.536C87.9889 131.737 87.6989 132.016 87.4697 132.374C87.2406 132.732 87.0723 133.144 86.9648 133.609C86.8574 134.068 86.8037 134.555 86.8037 135.07ZM91.917 124.629L93.4961 124.747C93.4961 125.27 93.3923 125.739 93.1846 126.154C92.9769 126.562 92.694 126.885 92.3359 127.121C91.9779 127.357 91.5732 127.476 91.1221 127.476C90.7712 127.476 90.474 127.425 90.2305 127.325C89.987 127.225 89.765 127.11 89.5645 126.981C89.3639 126.853 89.1562 126.742 88.9414 126.648C88.7337 126.548 88.4867 126.498 88.2002 126.498C87.9281 126.498 87.6953 126.598 87.502 126.799C87.3158 126.999 87.2227 127.268 87.2227 127.604L85.6328 127.519C85.6328 127.003 85.7367 126.537 85.9443 126.122C86.152 125.707 86.4349 125.377 86.793 125.134C87.151 124.89 87.5557 124.769 88.0068 124.769C88.3005 124.769 88.5654 124.819 88.8018 124.919C89.0452 125.012 89.2744 125.123 89.4893 125.252C89.7113 125.381 89.9368 125.495 90.166 125.596C90.3952 125.696 90.6494 125.746 90.9287 125.746C91.2008 125.746 91.4336 125.642 91.627 125.435C91.8203 125.227 91.917 124.958 91.917 124.629ZM104.185 138.261V129.377H106.784V141H104.335L104.185 138.261ZM104.55 135.844L105.42 135.822C105.42 136.603 105.334 137.323 105.162 137.981C104.99 138.633 104.725 139.202 104.367 139.689C104.009 140.169 103.551 140.545 102.992 140.817C102.434 141.082 101.764 141.215 100.983 141.215C100.418 141.215 99.8984 141.132 99.4258 140.968C98.9531 140.803 98.5449 140.549 98.2012 140.205C97.8646 139.861 97.6032 139.414 97.417 138.862C97.2308 138.311 97.1377 137.652 97.1377 136.886V129.377H99.7266V136.907C99.7266 137.33 99.7767 137.684 99.877 137.971C99.9772 138.25 100.113 138.476 100.285 138.647C100.457 138.819 100.658 138.941 100.887 139.013C101.116 139.084 101.359 139.12 101.617 139.12C102.355 139.12 102.935 138.977 103.357 138.69C103.787 138.397 104.091 138.003 104.271 137.509C104.457 137.015 104.55 136.46 104.55 135.844ZM115.99 138.669V133.126C115.99 132.711 115.915 132.353 115.765 132.052C115.614 131.751 115.385 131.518 115.077 131.354C114.776 131.189 114.397 131.106 113.938 131.106C113.516 131.106 113.151 131.178 112.843 131.321C112.535 131.465 112.295 131.658 112.123 131.901C111.951 132.145 111.865 132.421 111.865 132.729H109.287C109.287 132.27 109.398 131.826 109.62 131.396C109.842 130.967 110.164 130.584 110.587 130.247C111.009 129.91 111.514 129.646 112.102 129.452C112.689 129.259 113.348 129.162 114.078 129.162C114.952 129.162 115.725 129.309 116.398 129.603C117.079 129.896 117.612 130.34 117.999 130.935C118.393 131.522 118.59 132.259 118.59 133.147V138.314C118.59 138.844 118.626 139.321 118.697 139.743C118.776 140.159 118.887 140.52 119.03 140.828V141H116.377C116.255 140.721 116.159 140.366 116.087 139.937C116.022 139.5 115.99 139.077 115.99 138.669ZM116.366 133.932L116.388 135.532H114.529C114.049 135.532 113.627 135.579 113.262 135.672C112.896 135.758 112.592 135.887 112.349 136.059C112.105 136.23 111.923 136.438 111.801 136.682C111.679 136.925 111.618 137.201 111.618 137.509C111.618 137.817 111.69 138.1 111.833 138.357C111.976 138.608 112.184 138.805 112.456 138.948C112.735 139.091 113.072 139.163 113.466 139.163C113.996 139.163 114.458 139.056 114.852 138.841C115.253 138.619 115.568 138.35 115.797 138.035C116.026 137.713 116.148 137.409 116.162 137.122L117 138.271C116.914 138.565 116.767 138.88 116.56 139.217C116.352 139.553 116.08 139.876 115.743 140.184C115.414 140.484 115.016 140.731 114.551 140.925C114.092 141.118 113.562 141.215 112.961 141.215C112.202 141.215 111.525 141.064 110.931 140.764C110.336 140.456 109.871 140.044 109.534 139.528C109.198 139.006 109.029 138.415 109.029 137.756C109.029 137.14 109.144 136.596 109.373 136.123C109.609 135.643 109.953 135.242 110.404 134.92C110.863 134.598 111.421 134.354 112.08 134.189C112.739 134.018 113.491 133.932 114.336 133.932H116.366ZM123.725 138.508L123.714 140.355C123.714 141.086 123.531 141.838 123.166 142.611C122.801 143.385 122.317 144.022 121.716 144.523L120.33 143.718C120.531 143.396 120.713 143.07 120.878 142.74C121.043 142.411 121.175 142.06 121.275 141.688C121.376 141.315 121.426 140.903 121.426 140.452V138.508H123.725ZM131.201 135.317V135.07C131.201 134.232 131.323 133.455 131.566 132.739C131.81 132.016 132.161 131.389 132.619 130.859C133.085 130.322 133.65 129.907 134.316 129.613C134.99 129.312 135.749 129.162 136.594 129.162C137.446 129.162 138.205 129.312 138.871 129.613C139.544 129.907 140.114 130.322 140.579 130.859C141.045 131.389 141.399 132.016 141.643 132.739C141.886 133.455 142.008 134.232 142.008 135.07V135.317C142.008 136.155 141.886 136.932 141.643 137.648C141.399 138.365 141.045 138.991 140.579 139.528C140.114 140.058 139.548 140.474 138.882 140.774C138.216 141.068 137.46 141.215 136.615 141.215C135.763 141.215 135 141.068 134.327 140.774C133.661 140.474 133.095 140.058 132.63 139.528C132.164 138.991 131.81 138.365 131.566 137.648C131.323 136.932 131.201 136.155 131.201 135.317ZM133.79 135.07V135.317C133.79 135.84 133.844 136.334 133.951 136.8C134.059 137.265 134.227 137.674 134.456 138.024C134.685 138.375 134.979 138.651 135.337 138.852C135.695 139.052 136.121 139.152 136.615 139.152C137.095 139.152 137.51 139.052 137.861 138.852C138.219 138.651 138.513 138.375 138.742 138.024C138.971 137.674 139.14 137.265 139.247 136.8C139.362 136.334 139.419 135.84 139.419 135.317V135.07C139.419 134.555 139.362 134.068 139.247 133.609C139.14 133.144 138.968 132.732 138.731 132.374C138.502 132.016 138.209 131.737 137.851 131.536C137.5 131.328 137.081 131.225 136.594 131.225C136.107 131.225 135.684 131.328 135.326 131.536C134.975 131.737 134.685 132.016 134.456 132.374C134.227 132.732 134.059 133.144 133.951 133.609C133.844 134.068 133.79 134.555 133.79 135.07ZM146.745 131.858V141H144.156V129.377H146.595L146.745 131.858ZM146.283 134.759L145.445 134.748C145.452 133.924 145.567 133.169 145.789 132.481C146.018 131.794 146.333 131.203 146.734 130.709C147.143 130.215 147.63 129.835 148.195 129.57C148.761 129.298 149.391 129.162 150.086 129.162C150.645 129.162 151.149 129.241 151.601 129.398C152.059 129.549 152.449 129.796 152.771 130.14C153.101 130.483 153.352 130.931 153.523 131.482C153.695 132.027 153.781 132.696 153.781 133.491V141H151.182V133.48C151.182 132.922 151.099 132.481 150.935 132.159C150.777 131.83 150.544 131.597 150.236 131.461C149.936 131.318 149.56 131.246 149.108 131.246C148.664 131.246 148.267 131.339 147.916 131.525C147.565 131.712 147.268 131.966 147.024 132.288C146.788 132.61 146.605 132.983 146.477 133.405C146.348 133.828 146.283 134.279 146.283 134.759ZM168.079 125.359V141H165.404V125.359H168.079ZM172.988 125.359V127.508H160.538V125.359H172.988ZM177.564 129.377V141H174.965V129.377H177.564ZM174.793 126.326C174.793 125.932 174.922 125.606 175.18 125.349C175.445 125.084 175.81 124.951 176.275 124.951C176.734 124.951 177.095 125.084 177.36 125.349C177.625 125.606 177.758 125.932 177.758 126.326C177.758 126.713 177.625 127.035 177.36 127.293C177.095 127.551 176.734 127.68 176.275 127.68C175.81 127.68 175.445 127.551 175.18 127.293C174.922 127.035 174.793 126.713 174.793 126.326ZM183.172 129.377V141H180.572V129.377H183.172ZM180.4 126.326C180.4 125.932 180.529 125.606 180.787 125.349C181.052 125.084 181.417 124.951 181.883 124.951C182.341 124.951 182.703 125.084 182.968 125.349C183.233 125.606 183.365 125.932 183.365 126.326C183.365 126.713 183.233 127.035 182.968 127.293C182.703 127.551 182.341 127.68 181.883 127.68C181.417 127.68 181.052 127.551 180.787 127.293C180.529 127.035 180.4 126.713 180.4 126.326ZM193.001 138.261V129.377H195.601V141H193.151L193.001 138.261ZM193.366 135.844L194.236 135.822C194.236 136.603 194.15 137.323 193.979 137.981C193.807 138.633 193.542 139.202 193.184 139.689C192.826 140.169 192.367 140.545 191.809 140.817C191.25 141.082 190.58 141.215 189.8 141.215C189.234 141.215 188.715 141.132 188.242 140.968C187.77 140.803 187.361 140.549 187.018 140.205C186.681 139.861 186.42 139.414 186.233 138.862C186.047 138.311 185.954 137.652 185.954 136.886V129.377H188.543V136.907C188.543 137.33 188.593 137.684 188.693 137.971C188.794 138.25 188.93 138.476 189.102 138.647C189.273 138.819 189.474 138.941 189.703 139.013C189.932 139.084 190.176 139.12 190.434 139.12C191.171 139.12 191.751 138.977 192.174 138.69C192.604 138.397 192.908 138.003 193.087 137.509C193.273 137.015 193.366 136.46 193.366 135.844ZM207.514 138.948L210.36 129.377H213.046L209.007 141H207.331L207.514 138.948ZM205.333 129.377L208.233 138.991L208.373 141H206.697L202.637 129.377H205.333ZM219.62 141.215C218.761 141.215 217.984 141.075 217.289 140.796C216.602 140.509 216.014 140.112 215.527 139.604C215.048 139.095 214.679 138.497 214.421 137.81C214.163 137.122 214.034 136.381 214.034 135.586V135.156C214.034 134.247 214.167 133.423 214.432 132.686C214.697 131.948 215.065 131.318 215.538 130.795C216.011 130.265 216.569 129.86 217.214 129.581C217.858 129.302 218.557 129.162 219.309 129.162C220.139 129.162 220.866 129.302 221.489 129.581C222.112 129.86 222.628 130.254 223.036 130.763C223.451 131.264 223.759 131.862 223.96 132.557C224.168 133.251 224.271 134.018 224.271 134.855V135.962H215.291V134.104H221.715V133.899C221.701 133.434 221.607 132.997 221.436 132.589C221.271 132.181 221.017 131.851 220.673 131.601C220.329 131.35 219.871 131.225 219.298 131.225C218.868 131.225 218.485 131.318 218.148 131.504C217.819 131.683 217.543 131.944 217.321 132.288C217.099 132.632 216.927 133.047 216.806 133.534C216.691 134.014 216.634 134.555 216.634 135.156V135.586C216.634 136.094 216.702 136.567 216.838 137.004C216.981 137.434 217.189 137.81 217.461 138.132C217.733 138.454 218.062 138.708 218.449 138.895C218.836 139.074 219.276 139.163 219.771 139.163C220.394 139.163 220.949 139.038 221.436 138.787C221.923 138.536 222.345 138.182 222.703 137.724L224.067 139.045C223.817 139.41 223.491 139.761 223.09 140.098C222.689 140.427 222.198 140.696 221.618 140.903C221.045 141.111 220.379 141.215 219.62 141.215ZM231.415 141.215C230.556 141.215 229.779 141.075 229.084 140.796C228.396 140.509 227.809 140.112 227.322 139.604C226.842 139.095 226.474 138.497 226.216 137.81C225.958 137.122 225.829 136.381 225.829 135.586V135.156C225.829 134.247 225.962 133.423 226.227 132.686C226.492 131.948 226.86 131.318 227.333 130.795C227.806 130.265 228.364 129.86 229.009 129.581C229.653 129.302 230.352 129.162 231.104 129.162C231.934 129.162 232.661 129.302 233.284 129.581C233.907 129.86 234.423 130.254 234.831 130.763C235.246 131.264 235.554 131.862 235.755 132.557C235.963 133.251 236.066 134.018 236.066 134.855V135.962H227.086V134.104H233.51V133.899C233.495 133.434 233.402 132.997 233.23 132.589C233.066 132.181 232.812 131.851 232.468 131.601C232.124 131.35 231.666 131.225 231.093 131.225C230.663 131.225 230.28 131.318 229.943 131.504C229.614 131.683 229.338 131.944 229.116 132.288C228.894 132.632 228.722 133.047 228.601 133.534C228.486 134.014 228.429 134.555 228.429 135.156V135.586C228.429 136.094 228.497 136.567 228.633 137.004C228.776 137.434 228.984 137.81 229.256 138.132C229.528 138.454 229.857 138.708 230.244 138.895C230.631 139.074 231.071 139.163 231.565 139.163C232.188 139.163 232.743 139.038 233.23 138.787C233.717 138.536 234.14 138.182 234.498 137.724L235.862 139.045C235.612 139.41 235.286 139.761 234.885 140.098C234.484 140.427 233.993 140.696 233.413 140.903C232.84 141.111 232.174 141.215 231.415 141.215ZM238.097 124.5H240.686V138.519L240.438 141H238.097V124.5ZM248.27 135.081V135.307C248.27 136.166 248.173 136.957 247.979 137.681C247.793 138.397 247.507 139.02 247.12 139.55C246.741 140.08 246.268 140.492 245.702 140.785C245.144 141.072 244.495 141.215 243.758 141.215C243.035 141.215 242.404 141.079 241.867 140.807C241.33 140.535 240.879 140.148 240.514 139.646C240.156 139.145 239.866 138.547 239.644 137.853C239.422 137.158 239.264 136.392 239.171 135.554V134.834C239.264 133.989 239.422 133.223 239.644 132.535C239.866 131.84 240.156 131.243 240.514 130.741C240.879 130.233 241.326 129.842 241.856 129.57C242.394 129.298 243.02 129.162 243.736 129.162C244.481 129.162 245.136 129.305 245.702 129.592C246.275 129.878 246.751 130.286 247.131 130.816C247.51 131.339 247.793 131.962 247.979 132.686C248.173 133.409 248.27 134.207 248.27 135.081ZM245.681 135.307V135.081C245.681 134.558 245.638 134.068 245.552 133.609C245.466 133.144 245.323 132.736 245.122 132.385C244.929 132.034 244.664 131.758 244.327 131.558C243.998 131.35 243.586 131.246 243.092 131.246C242.633 131.246 242.24 131.325 241.91 131.482C241.581 131.64 241.305 131.855 241.083 132.127C240.861 132.399 240.686 132.714 240.557 133.072C240.435 133.43 240.353 133.817 240.31 134.232V136.177C240.374 136.714 240.51 137.208 240.718 137.659C240.933 138.103 241.233 138.461 241.62 138.733C242.007 138.998 242.505 139.131 243.113 139.131C243.593 139.131 243.998 139.034 244.327 138.841C244.657 138.647 244.918 138.379 245.111 138.035C245.312 137.684 245.455 137.276 245.541 136.811C245.634 136.345 245.681 135.844 245.681 135.307ZM253.232 129.377V141H250.633V129.377H253.232ZM250.461 126.326C250.461 125.932 250.59 125.606 250.848 125.349C251.113 125.084 251.478 124.951 251.943 124.951C252.402 124.951 252.763 125.084 253.028 125.349C253.293 125.606 253.426 125.932 253.426 126.326C253.426 126.713 253.293 127.035 253.028 127.293C252.763 127.551 252.402 127.68 251.943 127.68C251.478 127.68 251.113 127.551 250.848 127.293C250.59 127.035 250.461 126.713 250.461 126.326ZM258.668 131.611V145.469H256.079V129.377H258.464L258.668 131.611ZM266.241 135.081V135.307C266.241 136.152 266.141 136.936 265.94 137.659C265.747 138.375 265.457 139.002 265.07 139.539C264.691 140.069 264.222 140.481 263.663 140.774C263.104 141.068 262.46 141.215 261.729 141.215C261.006 141.215 260.372 141.082 259.828 140.817C259.291 140.545 258.836 140.162 258.464 139.668C258.091 139.174 257.791 138.594 257.562 137.928C257.34 137.255 257.182 136.517 257.089 135.715V134.845C257.182 133.993 257.34 133.219 257.562 132.524C257.791 131.83 258.091 131.232 258.464 130.73C258.836 130.229 259.291 129.842 259.828 129.57C260.365 129.298 260.992 129.162 261.708 129.162C262.438 129.162 263.087 129.305 263.652 129.592C264.218 129.871 264.694 130.272 265.081 130.795C265.468 131.311 265.758 131.934 265.951 132.664C266.145 133.387 266.241 134.193 266.241 135.081ZM263.652 135.307V135.081C263.652 134.544 263.602 134.046 263.502 133.588C263.402 133.122 263.244 132.714 263.029 132.363C262.814 132.012 262.539 131.74 262.202 131.547C261.873 131.346 261.475 131.246 261.01 131.246C260.551 131.246 260.158 131.325 259.828 131.482C259.499 131.633 259.223 131.844 259.001 132.116C258.779 132.388 258.607 132.707 258.485 133.072C258.364 133.43 258.278 133.821 258.228 134.243V136.327C258.313 136.843 258.46 137.315 258.668 137.745C258.876 138.175 259.169 138.519 259.549 138.776C259.936 139.027 260.43 139.152 261.031 139.152C261.497 139.152 261.894 139.052 262.224 138.852C262.553 138.651 262.822 138.375 263.029 138.024C263.244 137.666 263.402 137.255 263.502 136.789C263.602 136.324 263.652 135.829 263.652 135.307ZM267.949 135.317V135.07C267.949 134.232 268.071 133.455 268.314 132.739C268.558 132.016 268.909 131.389 269.367 130.859C269.833 130.322 270.398 129.907 271.064 129.613C271.738 129.312 272.497 129.162 273.342 129.162C274.194 129.162 274.953 129.312 275.619 129.613C276.292 129.907 276.862 130.322 277.327 130.859C277.793 131.389 278.147 132.016 278.391 132.739C278.634 133.455 278.756 134.232 278.756 135.07V135.317C278.756 136.155 278.634 136.932 278.391 137.648C278.147 138.365 277.793 138.991 277.327 139.528C276.862 140.058 276.296 140.474 275.63 140.774C274.964 141.068 274.208 141.215 273.363 141.215C272.511 141.215 271.748 141.068 271.075 140.774C270.409 140.474 269.843 140.058 269.378 139.528C268.912 138.991 268.558 138.365 268.314 137.648C268.071 136.932 267.949 136.155 267.949 135.317ZM270.538 135.07V135.317C270.538 135.84 270.592 136.334 270.699 136.8C270.807 137.265 270.975 137.674 271.204 138.024C271.433 138.375 271.727 138.651 272.085 138.852C272.443 139.052 272.869 139.152 273.363 139.152C273.843 139.152 274.258 139.052 274.609 138.852C274.967 138.651 275.261 138.375 275.49 138.024C275.719 137.674 275.888 137.265 275.995 136.8C276.11 136.334 276.167 135.84 276.167 135.317V135.07C276.167 134.555 276.11 134.068 275.995 133.609C275.888 133.144 275.716 132.732 275.479 132.374C275.25 132.016 274.957 131.737 274.599 131.536C274.248 131.328 273.829 131.225 273.342 131.225C272.855 131.225 272.432 131.328 272.074 131.536C271.723 131.737 271.433 132.016 271.204 132.374C270.975 132.732 270.807 133.144 270.699 133.609C270.592 134.068 270.538 134.555 270.538 135.07ZM283.525 131.59V141H280.937V129.377H283.407L283.525 131.59ZM287.081 129.302L287.06 131.708C286.902 131.679 286.73 131.658 286.544 131.644C286.365 131.629 286.186 131.622 286.007 131.622C285.563 131.622 285.173 131.687 284.836 131.815C284.499 131.937 284.216 132.116 283.987 132.353C283.765 132.582 283.593 132.861 283.472 133.19C283.35 133.52 283.278 133.889 283.257 134.297L282.666 134.34C282.666 133.609 282.738 132.933 282.881 132.31C283.024 131.687 283.239 131.139 283.525 130.666C283.819 130.193 284.184 129.825 284.621 129.56C285.065 129.295 285.577 129.162 286.157 129.162C286.315 129.162 286.483 129.176 286.662 129.205C286.848 129.234 286.988 129.266 287.081 129.302ZM294.568 129.377V131.268H288.016V129.377H294.568ZM289.906 126.53H292.495V137.788C292.495 138.146 292.545 138.422 292.646 138.615C292.753 138.801 292.9 138.927 293.086 138.991C293.272 139.056 293.491 139.088 293.741 139.088C293.92 139.088 294.092 139.077 294.257 139.056C294.422 139.034 294.554 139.013 294.654 138.991L294.665 140.968C294.45 141.032 294.2 141.09 293.913 141.14C293.634 141.19 293.312 141.215 292.946 141.215C292.352 141.215 291.826 141.111 291.367 140.903C290.909 140.688 290.551 140.341 290.293 139.861C290.035 139.382 289.906 138.744 289.906 137.949V126.53ZM303.119 138.669V133.126C303.119 132.711 303.044 132.353 302.894 132.052C302.743 131.751 302.514 131.518 302.206 131.354C301.905 131.189 301.526 131.106 301.067 131.106C300.645 131.106 300.28 131.178 299.972 131.321C299.664 131.465 299.424 131.658 299.252 131.901C299.08 132.145 298.994 132.421 298.994 132.729H296.416C296.416 132.27 296.527 131.826 296.749 131.396C296.971 130.967 297.293 130.584 297.716 130.247C298.138 129.91 298.643 129.646 299.23 129.452C299.818 129.259 300.477 129.162 301.207 129.162C302.081 129.162 302.854 129.309 303.527 129.603C304.208 129.896 304.741 130.34 305.128 130.935C305.522 131.522 305.719 132.259 305.719 133.147V138.314C305.719 138.844 305.755 139.321 305.826 139.743C305.905 140.159 306.016 140.52 306.159 140.828V141H303.506C303.384 140.721 303.287 140.366 303.216 139.937C303.151 139.5 303.119 139.077 303.119 138.669ZM303.495 133.932L303.517 135.532H301.658C301.178 135.532 300.756 135.579 300.391 135.672C300.025 135.758 299.721 135.887 299.478 136.059C299.234 136.23 299.051 136.438 298.93 136.682C298.808 136.925 298.747 137.201 298.747 137.509C298.747 137.817 298.819 138.1 298.962 138.357C299.105 138.608 299.313 138.805 299.585 138.948C299.864 139.091 300.201 139.163 300.595 139.163C301.125 139.163 301.587 139.056 301.98 138.841C302.382 138.619 302.697 138.35 302.926 138.035C303.155 137.713 303.277 137.409 303.291 137.122L304.129 138.271C304.043 138.565 303.896 138.88 303.688 139.217C303.481 139.553 303.209 139.876 302.872 140.184C302.543 140.484 302.145 140.731 301.68 140.925C301.221 141.118 300.691 141.215 300.09 141.215C299.331 141.215 298.654 141.064 298.06 140.764C297.465 140.456 297 140.044 296.663 139.528C296.326 139.006 296.158 138.415 296.158 137.756C296.158 137.14 296.273 136.596 296.502 136.123C296.738 135.643 297.082 135.242 297.533 134.92C297.992 134.598 298.55 134.354 299.209 134.189C299.868 134.018 300.62 133.932 301.465 133.932H303.495ZM314.979 138.669V133.126C314.979 132.711 314.903 132.353 314.753 132.052C314.603 131.751 314.373 131.518 314.065 131.354C313.765 131.189 313.385 131.106 312.927 131.106C312.504 131.106 312.139 131.178 311.831 131.321C311.523 131.465 311.283 131.658 311.111 131.901C310.939 132.145 310.854 132.421 310.854 132.729H308.275C308.275 132.27 308.386 131.826 308.608 131.396C308.83 130.967 309.153 130.584 309.575 130.247C309.998 129.91 310.503 129.646 311.09 129.452C311.677 129.259 312.336 129.162 313.066 129.162C313.94 129.162 314.714 129.309 315.387 129.603C316.067 129.896 316.601 130.34 316.987 130.935C317.381 131.522 317.578 132.259 317.578 133.147V138.314C317.578 138.844 317.614 139.321 317.686 139.743C317.764 140.159 317.875 140.52 318.019 140.828V141H315.365C315.243 140.721 315.147 140.366 315.075 139.937C315.011 139.5 314.979 139.077 314.979 138.669ZM315.354 133.932L315.376 135.532H313.518C313.038 135.532 312.615 135.579 312.25 135.672C311.885 135.758 311.58 135.887 311.337 136.059C311.093 136.23 310.911 136.438 310.789 136.682C310.667 136.925 310.606 137.201 310.606 137.509C310.606 137.817 310.678 138.1 310.821 138.357C310.965 138.608 311.172 138.805 311.444 138.948C311.724 139.091 312.06 139.163 312.454 139.163C312.984 139.163 313.446 139.056 313.84 138.841C314.241 138.619 314.556 138.35 314.785 138.035C315.014 137.713 315.136 137.409 315.15 137.122L315.988 138.271C315.902 138.565 315.756 138.88 315.548 139.217C315.34 139.553 315.068 139.876 314.731 140.184C314.402 140.484 314.005 140.731 313.539 140.925C313.081 141.118 312.551 141.215 311.949 141.215C311.19 141.215 310.513 141.064 309.919 140.764C309.325 140.456 308.859 140.044 308.522 139.528C308.186 139.006 308.018 138.415 308.018 137.756C308.018 137.14 308.132 136.596 308.361 136.123C308.598 135.643 308.941 135.242 309.393 134.92C309.851 134.598 310.41 134.354 311.068 134.189C311.727 134.018 312.479 133.932 313.324 133.932H315.354ZM323.057 124.5V141H320.457V124.5H323.057ZM25.8848 166.669V161.126C25.8848 160.711 25.8096 160.353 25.6592 160.052C25.5088 159.751 25.2796 159.518 24.9717 159.354C24.6709 159.189 24.2913 159.106 23.833 159.106C23.4105 159.106 23.0452 159.178 22.7373 159.321C22.4294 159.465 22.1895 159.658 22.0176 159.901C21.8457 160.145 21.7598 160.421 21.7598 160.729H19.1816C19.1816 160.27 19.2926 159.826 19.5146 159.396C19.7367 158.967 20.0589 158.584 20.4814 158.247C20.904 157.91 21.4089 157.646 21.9961 157.452C22.5833 157.259 23.2422 157.162 23.9727 157.162C24.8464 157.162 25.6198 157.309 26.293 157.603C26.9733 157.896 27.5068 158.34 27.8936 158.935C28.2874 159.522 28.4844 160.259 28.4844 161.147V166.314C28.4844 166.844 28.5202 167.321 28.5918 167.743C28.6706 168.159 28.7816 168.52 28.9248 168.828V169H26.2715C26.1497 168.721 26.0531 168.366 25.9814 167.937C25.917 167.5 25.8848 167.077 25.8848 166.669ZM26.2607 161.932L26.2822 163.532H24.4238C23.944 163.532 23.5215 163.579 23.1562 163.672C22.791 163.758 22.4867 163.887 22.2432 164.059C21.9997 164.23 21.8171 164.438 21.6953 164.682C21.5736 164.925 21.5127 165.201 21.5127 165.509C21.5127 165.817 21.5843 166.1 21.7275 166.357C21.8708 166.608 22.0785 166.805 22.3506 166.948C22.6299 167.091 22.9665 167.163 23.3604 167.163C23.8903 167.163 24.3522 167.056 24.7461 166.841C25.1471 166.619 25.4622 166.35 25.6914 166.035C25.9206 165.713 26.0423 165.409 26.0566 165.122L26.8945 166.271C26.8086 166.565 26.6618 166.88 26.4541 167.217C26.2464 167.553 25.9743 167.876 25.6377 168.184C25.3083 168.484 24.9108 168.731 24.4453 168.925C23.987 169.118 23.457 169.215 22.8555 169.215C22.0964 169.215 21.4196 169.064 20.8252 168.764C20.2308 168.456 19.7653 168.044 19.4287 167.528C19.0921 167.006 18.9238 166.415 18.9238 165.756C18.9238 165.14 19.0384 164.596 19.2676 164.123C19.5039 163.643 19.8477 163.242 20.2988 162.92C20.7572 162.598 21.3158 162.354 21.9746 162.189C22.6335 162.018 23.3854 161.932 24.2305 161.932H26.2607ZM33.9629 152.5V169H31.3633V152.5H33.9629ZM43.3516 166.669V161.126C43.3516 160.711 43.2764 160.353 43.126 160.052C42.9756 159.751 42.7464 159.518 42.4385 159.354C42.1377 159.189 41.7581 159.106 41.2998 159.106C40.8773 159.106 40.512 159.178 40.2041 159.321C39.8962 159.465 39.6562 159.658 39.4844 159.901C39.3125 160.145 39.2266 160.421 39.2266 160.729H36.6484C36.6484 160.27 36.7594 159.826 36.9814 159.396C37.2035 158.967 37.5257 158.584 37.9482 158.247C38.3708 157.91 38.8757 157.646 39.4629 157.452C40.0501 157.259 40.709 157.162 41.4395 157.162C42.3132 157.162 43.0866 157.309 43.7598 157.603C44.4401 157.896 44.9736 158.34 45.3604 158.935C45.7542 159.522 45.9512 160.259 45.9512 161.147V166.314C45.9512 166.844 45.987 167.321 46.0586 167.743C46.1374 168.159 46.2484 168.52 46.3916 168.828V169H43.7383C43.6165 168.721 43.5199 168.366 43.4482 167.937C43.3838 167.5 43.3516 167.077 43.3516 166.669ZM43.7275 161.932L43.749 163.532H41.8906C41.4108 163.532 40.9883 163.579 40.623 163.672C40.2578 163.758 39.9535 163.887 39.71 164.059C39.4665 164.23 39.2839 164.438 39.1621 164.682C39.0404 164.925 38.9795 165.201 38.9795 165.509C38.9795 165.817 39.0511 166.1 39.1943 166.357C39.3376 166.608 39.5452 166.805 39.8174 166.948C40.0967 167.091 40.4333 167.163 40.8271 167.163C41.3571 167.163 41.819 167.056 42.2129 166.841C42.6139 166.619 42.929 166.35 43.1582 166.035C43.3874 165.713 43.5091 165.409 43.5234 165.122L44.3613 166.271C44.2754 166.565 44.1286 166.88 43.9209 167.217C43.7132 167.553 43.4411 167.876 43.1045 168.184C42.7751 168.484 42.3776 168.731 41.9121 168.925C41.4538 169.118 40.9238 169.215 40.3223 169.215C39.5632 169.215 38.8864 169.064 38.292 168.764C37.6976 168.456 37.2321 168.044 36.8955 167.528C36.5589 167.006 36.3906 166.415 36.3906 165.756C36.3906 165.14 36.5052 164.596 36.7344 164.123C36.9707 163.643 37.3145 163.242 37.7656 162.92C38.224 162.598 38.7826 162.354 39.4414 162.189C40.1003 162.018 40.8522 161.932 41.6973 161.932H43.7275ZM53.9863 157.377V159.268H47.4336V157.377H53.9863ZM49.3242 154.53H51.9131V165.788C51.9131 166.146 51.9632 166.422 52.0635 166.615C52.1709 166.801 52.3177 166.927 52.5039 166.991C52.6901 167.056 52.9085 167.088 53.1592 167.088C53.3382 167.088 53.5101 167.077 53.6748 167.056C53.8395 167.034 53.972 167.013 54.0723 166.991L54.083 168.968C53.8682 169.032 53.6175 169.09 53.3311 169.14C53.0518 169.19 52.7295 169.215 52.3643 169.215C51.7699 169.215 51.2435 169.111 50.7852 168.903C50.3268 168.688 49.9688 168.341 49.7109 167.861C49.4531 167.382 49.3242 166.744 49.3242 165.949V154.53ZM58.7559 157.377V169H56.1562V157.377H58.7559ZM55.9844 154.326C55.9844 153.932 56.1133 153.606 56.3711 153.349C56.6361 153.084 57.0013 152.951 57.4668 152.951C57.9251 152.951 58.2868 153.084 58.5518 153.349C58.8167 153.606 58.9492 153.932 58.9492 154.326C58.9492 154.713 58.8167 155.035 58.5518 155.293C58.2868 155.551 57.9251 155.68 57.4668 155.68C57.0013 155.68 56.6361 155.551 56.3711 155.293C56.1133 155.035 55.9844 154.713 55.9844 154.326ZM66.5762 163.317V163.07C66.5762 162.232 66.6979 161.455 66.9414 160.739C67.1849 160.016 67.5358 159.389 67.9941 158.859C68.4596 158.322 69.0254 157.907 69.6914 157.613C70.3646 157.312 71.1237 157.162 71.9688 157.162C72.821 157.162 73.5801 157.312 74.2461 157.613C74.9193 157.907 75.4886 158.322 75.9541 158.859C76.4196 159.389 76.7741 160.016 77.0176 160.739C77.2611 161.455 77.3828 162.232 77.3828 163.07V163.317C77.3828 164.155 77.2611 164.932 77.0176 165.648C76.7741 166.365 76.4196 166.991 75.9541 167.528C75.4886 168.058 74.9229 168.474 74.2568 168.774C73.5908 169.068 72.8353 169.215 71.9902 169.215C71.138 169.215 70.3753 169.068 69.7021 168.774C69.0361 168.474 68.4704 168.058 68.0049 167.528C67.5394 166.991 67.1849 166.365 66.9414 165.648C66.6979 164.932 66.5762 164.155 66.5762 163.317ZM69.165 163.07V163.317C69.165 163.84 69.2188 164.334 69.3262 164.8C69.4336 165.265 69.6019 165.674 69.8311 166.024C70.0602 166.375 70.3538 166.651 70.7119 166.852C71.07 167.052 71.4961 167.152 71.9902 167.152C72.4701 167.152 72.8854 167.052 73.2363 166.852C73.5944 166.651 73.888 166.375 74.1172 166.024C74.3464 165.674 74.5146 165.265 74.6221 164.8C74.7367 164.334 74.7939 163.84 74.7939 163.317V163.07C74.7939 162.555 74.7367 162.068 74.6221 161.609C74.5146 161.144 74.3428 160.732 74.1064 160.374C73.8773 160.016 73.5837 159.737 73.2256 159.536C72.8747 159.328 72.4557 159.225 71.9688 159.225C71.4818 159.225 71.0592 159.328 70.7012 159.536C70.3503 159.737 70.0602 160.016 69.8311 160.374C69.6019 160.732 69.4336 161.144 69.3262 161.609C69.2188 162.068 69.165 162.555 69.165 163.07ZM82.3242 152.5V169H79.7246V152.5H82.3242ZM90.2842 169.215C89.4248 169.215 88.6478 169.075 87.9531 168.796C87.2656 168.509 86.6784 168.112 86.1914 167.604C85.7116 167.095 85.3428 166.497 85.085 165.81C84.8271 165.122 84.6982 164.381 84.6982 163.586V163.156C84.6982 162.247 84.8307 161.423 85.0957 160.686C85.3607 159.948 85.7295 159.318 86.2021 158.795C86.6748 158.265 87.2334 157.86 87.8779 157.581C88.5225 157.302 89.2207 157.162 89.9727 157.162C90.8034 157.162 91.5303 157.302 92.1533 157.581C92.7764 157.86 93.292 158.254 93.7002 158.763C94.1156 159.264 94.4235 159.862 94.624 160.557C94.8317 161.251 94.9355 162.018 94.9355 162.855V163.962H85.9551V162.104H92.3789V161.899C92.3646 161.434 92.2715 160.997 92.0996 160.589C91.9349 160.181 91.6807 159.851 91.3369 159.601C90.9932 159.35 90.5348 159.225 89.9619 159.225C89.5322 159.225 89.1491 159.318 88.8125 159.504C88.4831 159.683 88.2074 159.944 87.9854 160.288C87.7633 160.632 87.5915 161.047 87.4697 161.534C87.3551 162.014 87.2979 162.555 87.2979 163.156V163.586C87.2979 164.094 87.3659 164.567 87.502 165.004C87.6452 165.434 87.8529 165.81 88.125 166.132C88.3971 166.454 88.7266 166.708 89.1133 166.895C89.5 167.074 89.9404 167.163 90.4346 167.163C91.0576 167.163 91.6126 167.038 92.0996 166.787C92.5866 166.536 93.0091 166.182 93.3672 165.724L94.7314 167.045C94.4808 167.41 94.1549 167.761 93.7539 168.098C93.3529 168.427 92.8623 168.696 92.2822 168.903C91.7093 169.111 91.0433 169.215 90.2842 169.215ZM99.5439 159.74V169H96.9551V157.377H99.3936L99.5439 159.74ZM99.125 162.759L98.2441 162.748C98.2441 161.946 98.3444 161.205 98.5449 160.524C98.7454 159.844 99.0391 159.253 99.4258 158.752C99.8125 158.243 100.292 157.853 100.865 157.581C101.445 157.302 102.115 157.162 102.874 157.162C103.404 157.162 103.887 157.241 104.324 157.398C104.768 157.549 105.151 157.789 105.474 158.118C105.803 158.448 106.054 158.87 106.226 159.386C106.405 159.901 106.494 160.524 106.494 161.255V169H103.905V161.48C103.905 160.915 103.819 160.471 103.647 160.148C103.483 159.826 103.243 159.597 102.928 159.461C102.62 159.318 102.251 159.246 101.821 159.246C101.334 159.246 100.919 159.339 100.575 159.525C100.239 159.712 99.9629 159.966 99.748 160.288C99.5332 160.61 99.3757 160.983 99.2754 161.405C99.1751 161.828 99.125 162.279 99.125 162.759ZM106.333 162.071L105.119 162.34C105.119 161.638 105.216 160.976 105.409 160.353C105.61 159.722 105.9 159.171 106.279 158.698C106.666 158.218 107.142 157.842 107.708 157.57C108.274 157.298 108.922 157.162 109.652 157.162C110.247 157.162 110.777 157.244 111.242 157.409C111.715 157.567 112.116 157.817 112.445 158.161C112.775 158.505 113.025 158.952 113.197 159.504C113.369 160.048 113.455 160.707 113.455 161.48V169H110.855V161.47C110.855 160.882 110.77 160.428 110.598 160.105C110.433 159.783 110.197 159.561 109.889 159.439C109.581 159.311 109.212 159.246 108.782 159.246C108.381 159.246 108.027 159.321 107.719 159.472C107.418 159.615 107.164 159.819 106.956 160.084C106.748 160.342 106.591 160.639 106.483 160.976C106.383 161.312 106.333 161.677 106.333 162.071ZM122.672 166.669V161.126C122.672 160.711 122.597 160.353 122.446 160.052C122.296 159.751 122.067 159.518 121.759 159.354C121.458 159.189 121.078 159.106 120.62 159.106C120.198 159.106 119.832 159.178 119.524 159.321C119.216 159.465 118.977 159.658 118.805 159.901C118.633 160.145 118.547 160.421 118.547 160.729H115.969C115.969 160.27 116.08 159.826 116.302 159.396C116.524 158.967 116.846 158.584 117.269 158.247C117.691 157.91 118.196 157.646 118.783 157.452C119.37 157.259 120.029 157.162 120.76 157.162C121.633 157.162 122.407 157.309 123.08 157.603C123.76 157.896 124.294 158.34 124.681 158.935C125.075 159.522 125.271 160.259 125.271 161.147V166.314C125.271 166.844 125.307 167.321 125.379 167.743C125.458 168.159 125.569 168.52 125.712 168.828V169H123.059C122.937 168.721 122.84 168.366 122.769 167.937C122.704 167.5 122.672 167.077 122.672 166.669ZM123.048 161.932L123.069 163.532H121.211C120.731 163.532 120.309 163.579 119.943 163.672C119.578 163.758 119.274 163.887 119.03 164.059C118.787 164.23 118.604 164.438 118.482 164.682C118.361 164.925 118.3 165.201 118.3 165.509C118.3 165.817 118.371 166.1 118.515 166.357C118.658 166.608 118.866 166.805 119.138 166.948C119.417 167.091 119.754 167.163 120.147 167.163C120.677 167.163 121.139 167.056 121.533 166.841C121.934 166.619 122.249 166.35 122.479 166.035C122.708 165.713 122.829 165.409 122.844 165.122L123.682 166.271C123.596 166.565 123.449 166.88 123.241 167.217C123.034 167.553 122.761 167.876 122.425 168.184C122.095 168.484 121.698 168.731 121.232 168.925C120.774 169.118 120.244 169.215 119.643 169.215C118.883 169.215 118.207 169.064 117.612 168.764C117.018 168.456 116.552 168.044 116.216 167.528C115.879 167.006 115.711 166.415 115.711 165.756C115.711 165.14 115.826 164.596 116.055 164.123C116.291 163.643 116.635 163.242 117.086 162.92C117.544 162.598 118.103 162.354 118.762 162.189C119.421 162.018 120.173 161.932 121.018 161.932H123.048ZM134.499 165.853C134.499 165.595 134.435 165.362 134.306 165.154C134.177 164.939 133.93 164.746 133.564 164.574C133.206 164.402 132.676 164.245 131.975 164.102C131.359 163.965 130.793 163.804 130.277 163.618C129.769 163.425 129.332 163.192 128.967 162.92C128.602 162.648 128.319 162.326 128.118 161.953C127.918 161.581 127.817 161.151 127.817 160.664C127.817 160.191 127.921 159.744 128.129 159.321C128.337 158.899 128.634 158.526 129.021 158.204C129.407 157.882 129.876 157.628 130.428 157.441C130.986 157.255 131.609 157.162 132.297 157.162C133.271 157.162 134.105 157.327 134.8 157.656C135.502 157.979 136.039 158.419 136.411 158.978C136.784 159.529 136.97 160.152 136.97 160.847H134.381C134.381 160.539 134.302 160.252 134.145 159.987C133.994 159.715 133.765 159.497 133.457 159.332C133.149 159.16 132.762 159.074 132.297 159.074C131.853 159.074 131.484 159.146 131.19 159.289C130.904 159.425 130.689 159.604 130.546 159.826C130.41 160.048 130.342 160.292 130.342 160.557C130.342 160.75 130.378 160.925 130.449 161.083C130.528 161.233 130.657 161.373 130.836 161.502C131.015 161.624 131.258 161.738 131.566 161.846C131.882 161.953 132.275 162.057 132.748 162.157C133.636 162.343 134.399 162.583 135.036 162.877C135.681 163.163 136.175 163.536 136.519 163.994C136.862 164.445 137.034 165.018 137.034 165.713C137.034 166.229 136.923 166.701 136.701 167.131C136.486 167.553 136.171 167.922 135.756 168.237C135.34 168.545 134.843 168.785 134.263 168.957C133.69 169.129 133.045 169.215 132.329 169.215C131.276 169.215 130.385 169.029 129.654 168.656C128.924 168.277 128.369 167.793 127.989 167.206C127.617 166.612 127.431 165.996 127.431 165.358H129.934C129.962 165.838 130.095 166.221 130.331 166.508C130.575 166.787 130.875 166.991 131.233 167.12C131.599 167.242 131.975 167.303 132.361 167.303C132.827 167.303 133.217 167.242 133.532 167.12C133.847 166.991 134.087 166.819 134.252 166.604C134.417 166.382 134.499 166.132 134.499 165.853ZM139.408 167.711C139.408 167.31 139.544 166.973 139.816 166.701C140.089 166.422 140.457 166.282 140.923 166.282C141.396 166.282 141.764 166.422 142.029 166.701C142.301 166.973 142.438 167.31 142.438 167.711C142.438 168.112 142.301 168.449 142.029 168.721C141.764 168.993 141.396 169.129 140.923 169.129C140.457 169.129 140.089 168.993 139.816 168.721C139.544 168.449 139.408 168.112 139.408 167.711Z" fill="#461102"/>
<path d="M28.384 189.772C30.4373 189.772 32.212 190.153 33.708 190.916C35.204 191.649 36.3333 192.661 37.096 193.952C37.888 195.213 38.284 196.621 38.284 198.176C38.284 199.789 37.932 201.344 37.228 202.84C36.5533 204.336 35.38 206.023 33.708 207.9C32.0653 209.777 29.66 212.197 26.492 215.16H38.944L38.24 220H19.364V215.468C23.06 211.772 25.7293 209.015 27.372 207.196C29.0147 205.377 30.1733 203.837 30.848 202.576C31.5227 201.315 31.86 200.024 31.86 198.704C31.86 197.443 31.4933 196.445 30.76 195.712C30.0267 194.979 29.044 194.612 27.812 194.612C26.7267 194.612 25.7587 194.861 24.908 195.36C24.0573 195.829 23.1627 196.621 22.224 197.736L18.484 194.744C21.0067 191.429 24.3067 189.772 28.384 189.772ZM61.9938 210.188C62.4045 212.212 63.1525 213.693 64.2378 214.632C65.3525 215.571 66.8338 216.04 68.6818 216.04C70.6471 216.04 72.7591 215.424 75.0178 214.192V219.032C73.8151 219.589 72.6711 220 71.5858 220.264C70.5005 220.557 69.3125 220.704 68.0218 220.704C64.7071 220.704 61.9791 219.795 59.8378 217.976C57.7258 216.128 56.3325 213.532 55.6578 210.188H51.8298L52.7098 206.8H55.4818V203.5H51.8298L52.7098 200.068H55.7018C56.5231 196.871 58.0485 194.363 60.2778 192.544C62.5365 190.696 65.1911 189.772 68.2418 189.772C71.2925 189.772 74.0498 190.608 76.5138 192.28L74.2698 196.152C73.3311 195.536 72.4071 195.096 71.4978 194.832C70.5885 194.539 69.5765 194.392 68.4618 194.392C66.9365 194.392 65.6311 194.861 64.5458 195.8C63.4605 196.739 62.6538 198.161 62.1258 200.068H72.9058L72.0258 203.5H61.8178V206.8H71.3218L70.4858 210.188H61.9938Z" fill="#E3000F"/>
<path d="M95.5889 209.672V211.5H86.9229V209.936L91.0801 205.444C91.5137 204.952 91.8564 204.524 92.1084 204.161C92.3604 203.798 92.5391 203.47 92.6445 203.177C92.7559 202.878 92.8115 202.594 92.8115 202.324C92.8115 201.932 92.7412 201.589 92.6006 201.296C92.46 200.997 92.2549 200.766 91.9854 200.602C91.7217 200.438 91.3965 200.355 91.0098 200.355C90.582 200.355 90.2158 200.455 89.9111 200.654C89.6123 200.848 89.3838 201.117 89.2256 201.463C89.0732 201.809 88.9971 202.204 88.9971 202.649H86.668C86.668 201.894 86.8438 201.205 87.1953 200.584C87.5469 199.957 88.0508 199.456 88.707 199.081C89.3633 198.706 90.1426 198.519 91.0449 198.519C91.9238 198.519 92.668 198.665 93.2773 198.958C93.8867 199.245 94.3496 199.655 94.666 200.188C94.9824 200.722 95.1406 201.357 95.1406 202.096C95.1406 202.506 95.0732 202.91 94.9385 203.309C94.8037 203.707 94.6133 204.103 94.3672 204.495C94.127 204.882 93.8398 205.274 93.5059 205.673C93.1719 206.071 92.7998 206.479 92.3896 206.895L89.8936 209.672H95.5889ZM104.132 197.991V211.5H101.812V197.991H104.132ZM110.091 201.99L105.951 206.64L103.71 208.916L102.972 207.114L104.703 204.935L107.287 201.99H110.091ZM107.718 211.5L104.773 207.07L106.32 205.567L110.407 211.5H107.718ZM116.981 209.241V201.99H119.319V211.5H117.122L116.981 209.241ZM117.28 207.272L118.001 207.255C118.001 207.894 117.931 208.482 117.79 209.021C117.649 209.561 117.43 210.029 117.131 210.428C116.838 210.82 116.466 211.128 116.015 211.351C115.563 211.567 115.03 211.676 114.415 211.676C113.946 211.676 113.519 211.611 113.132 211.482C112.745 211.348 112.411 211.14 112.13 210.858C111.854 210.571 111.641 210.205 111.488 209.76C111.336 209.309 111.26 208.767 111.26 208.134V201.99H113.58V208.151C113.58 208.468 113.615 208.731 113.686 208.942C113.762 209.153 113.864 209.326 113.993 209.461C114.128 209.59 114.283 209.684 114.459 209.742C114.641 209.795 114.834 209.821 115.039 209.821C115.602 209.821 116.044 209.71 116.366 209.487C116.694 209.259 116.929 208.954 117.069 208.573C117.21 208.187 117.28 207.753 117.28 207.272ZM127.036 209.241V201.99H129.374V211.5H127.177L127.036 209.241ZM127.335 207.272L128.056 207.255C128.056 207.894 127.985 208.482 127.845 209.021C127.704 209.561 127.484 210.029 127.186 210.428C126.893 210.82 126.521 211.128 126.069 211.351C125.618 211.567 125.085 211.676 124.47 211.676C124.001 211.676 123.573 211.611 123.187 211.482C122.8 211.348 122.466 211.14 122.185 210.858C121.909 210.571 121.695 210.205 121.543 209.76C121.391 209.309 121.314 208.767 121.314 208.134V201.99H123.635V208.151C123.635 208.468 123.67 208.731 123.74 208.942C123.816 209.153 123.919 209.326 124.048 209.461C124.183 209.59 124.338 209.684 124.514 209.742C124.695 209.795 124.889 209.821 125.094 209.821C125.656 209.821 126.099 209.71 126.421 209.487C126.749 209.259 126.983 208.954 127.124 208.573C127.265 208.187 127.335 207.753 127.335 207.272ZM137.135 209.479V198H139.473V211.5H137.363L137.135 209.479ZM131.026 206.859V206.675C131.026 205.948 131.108 205.289 131.272 204.697C131.442 204.1 131.688 203.587 132.011 203.159C132.333 202.731 132.723 202.4 133.18 202.166C133.643 201.932 134.167 201.814 134.753 201.814C135.321 201.814 135.816 201.929 136.238 202.157C136.666 202.386 137.029 202.711 137.328 203.133C137.633 203.555 137.876 204.056 138.058 204.636C138.239 205.21 138.371 205.843 138.453 206.534V207.035C138.371 207.709 138.239 208.327 138.058 208.89C137.876 209.452 137.633 209.944 137.328 210.366C137.029 210.782 136.666 211.104 136.238 211.333C135.811 211.562 135.31 211.676 134.735 211.676C134.155 211.676 133.634 211.556 133.171 211.315C132.714 211.075 132.324 210.738 132.002 210.305C131.686 209.871 131.442 209.361 131.272 208.775C131.108 208.189 131.026 207.551 131.026 206.859ZM133.355 206.675V206.859C133.355 207.27 133.391 207.653 133.461 208.011C133.531 208.368 133.646 208.685 133.804 208.96C133.962 209.229 134.164 209.44 134.41 209.593C134.662 209.745 134.967 209.821 135.324 209.821C135.781 209.821 136.156 209.722 136.449 209.522C136.748 209.317 136.979 209.039 137.144 208.688C137.308 208.33 137.413 207.929 137.46 207.483V206.104C137.437 205.752 137.375 205.427 137.275 205.128C137.182 204.829 137.047 204.571 136.871 204.354C136.701 204.138 136.49 203.968 136.238 203.845C135.986 203.722 135.688 203.66 135.342 203.66C134.984 203.66 134.68 203.739 134.428 203.897C134.176 204.05 133.971 204.264 133.812 204.539C133.654 204.814 133.537 205.134 133.461 205.497C133.391 205.86 133.355 206.253 133.355 206.675Z" fill="#461102"/>
<rect x="164" y="188" width="168" height="34" rx="8.5" fill="#E3000F"/>
<path d="M190.163 199.219L189.891 201.361H186.984V211H184.196V201.361H181.153V199.219H190.163ZM198.511 199.219L198.222 201.208H194.074V204.03H197.695V205.985H194.074V208.994H198.511V211H191.286V199.219H198.511ZM203.022 199.219V208.79H207.612L207.323 211H200.234V199.219H203.022ZM211.738 199.219V208.79H216.328L216.039 211H208.95V199.219H211.738ZM220.454 199.219V211H217.666V199.219H220.454ZM229.961 199.219C231.809 199.219 233.288 199.638 234.398 200.477C235.52 201.304 236.081 202.829 236.081 205.05C236.081 207.237 235.537 208.779 234.449 209.674C233.361 210.558 231.95 211 230.216 211H226.68V199.219H229.961ZM229.468 201.242V208.977H230.386C231.304 208.977 232.001 208.694 232.477 208.127C232.953 207.549 233.191 206.523 233.191 205.05C233.191 204.041 233.072 203.259 232.834 202.704C232.596 202.149 232.273 201.769 231.865 201.565C231.457 201.35 230.953 201.242 230.352 201.242H229.468ZM240.541 199.219V211H237.753V199.219H240.541ZM247.834 198.93C249.353 198.93 250.662 199.412 251.761 200.375L250.35 201.854C249.931 201.537 249.54 201.31 249.177 201.174C248.826 201.027 248.418 200.953 247.953 200.953C247.08 200.953 246.383 201.299 245.862 201.99C245.341 202.67 245.08 203.707 245.08 205.101C245.08 206.608 245.278 207.679 245.675 208.314C246.072 208.937 246.689 209.249 247.528 209.249C248.117 209.249 248.65 209.119 249.126 208.858V206.189H247.596L247.324 204.217H251.829V210.048C251.217 210.445 250.543 210.751 249.806 210.966C249.069 211.181 248.333 211.289 247.596 211.289C245.805 211.289 244.457 210.768 243.55 209.725C242.643 208.671 242.19 207.13 242.19 205.101C242.19 203.809 242.434 202.698 242.921 201.769C243.42 200.84 244.094 200.137 244.944 199.661C245.805 199.174 246.769 198.93 247.834 198.93ZM256.479 199.219V211H253.691V199.219H256.479ZM262.479 199.219C264.032 199.219 265.239 199.542 266.1 200.188C266.962 200.834 267.392 201.792 267.392 203.061C267.392 204.387 266.967 205.39 266.117 206.07C265.279 206.739 264.151 207.073 262.734 207.073H261.459V211H258.671V199.219H262.479ZM262.496 205.067C263.154 205.067 263.652 204.914 263.992 204.608C264.344 204.291 264.519 203.775 264.519 203.061C264.519 201.826 263.828 201.208 262.445 201.208H261.459V205.067H262.496ZM274.057 211L273.445 208.467H270.011L269.416 211H266.526L270.079 199.219H273.462L277.015 211H274.057ZM270.487 206.444H272.969L271.728 201.242L270.487 206.444ZM280.667 199.219V211H277.879V199.219H280.667ZM287.433 199.219L283.676 204.506L287.739 211H284.509L280.752 204.71L284.492 199.219H287.433ZM295.862 199.219L295.573 201.208H291.425V204.03H295.046V205.985H291.425V208.994H295.862V211H288.637V199.219H295.862ZM305.643 199.219L305.371 201.361H302.464V211H299.676V201.361H296.633V199.219H305.643ZM314.824 199.219L314.552 201.361H311.645V211H308.857V201.361H305.814V199.219H314.824Z" fill="#FFE80D"/>
</svg>
