<svg width="350" height="250" viewBox="0 0 350 250" fill="none" xmlns="http://www.w3.org/2000/svg">
<path d="M34.52 40.616C34.52 41.9413 34.24 43.1173 33.68 44.144C33.12 45.1707 32.28 45.9827 31.16 46.58C30.0587 47.1587 28.7147 47.448 27.128 47.448C24.7387 47.448 22.9093 46.832 21.64 45.6C20.3893 44.3493 19.764 42.688 19.764 40.616V27.624H23.88V40.42C23.88 41.7267 24.1413 42.7067 24.664 43.36C25.1867 43.9947 26.008 44.312 27.128 44.312C28.248 44.312 29.0693 43.9947 29.592 43.36C30.1333 42.7067 30.404 41.7267 30.404 40.42V27.624H34.52V40.616ZM50.4323 47H46.9883L46.7923 45.012C46.2696 45.8333 45.635 46.4493 44.8883 46.86C44.1416 47.252 43.2736 47.448 42.2843 47.448C40.9403 47.448 39.9136 47.0467 39.2043 46.244C38.495 45.4227 38.1403 44.284 38.1403 42.828V32.16H42.1163V42.324C42.1163 43.108 42.247 43.668 42.5083 44.004C42.7696 44.3213 43.1803 44.48 43.7403 44.48C44.8043 44.48 45.7096 43.836 46.4563 42.548V32.16H50.4323V47ZM66.9024 39.244C66.9024 39.4307 66.8744 39.944 66.8184 40.784H57.5504C57.6811 42.128 58.0451 43.08 58.6424 43.64C59.2398 44.2 60.0518 44.48 61.0784 44.48C61.7131 44.48 62.3104 44.3773 62.8704 44.172C63.4304 43.9667 64.0371 43.64 64.6904 43.192L66.3424 45.432C64.6811 46.776 62.8051 47.448 60.7144 47.448C58.3811 47.448 56.5891 46.748 55.3384 45.348C54.0878 43.948 53.4624 42.0533 53.4624 39.664C53.4624 38.152 53.7238 36.7987 54.2464 35.604C54.7878 34.3907 55.5624 33.4387 56.5704 32.748C57.5971 32.0573 58.8104 31.712 60.2104 31.712C62.3198 31.712 63.9624 32.3747 65.1384 33.7C66.3144 35.0253 66.9024 36.8733 66.9024 39.244ZM62.9544 38.124C62.9544 35.66 62.0678 34.428 60.2944 34.428C59.4731 34.428 58.8291 34.736 58.3624 35.352C57.9144 35.9493 57.6438 36.9293 57.5504 38.292H62.9544V38.124ZM73.4763 47.448C72.263 47.448 71.3203 47.1027 70.6483 46.412C69.9763 45.7027 69.6403 44.704 69.6403 43.416V26.252L73.6163 25.804V43.304C73.6163 43.9573 73.887 44.284 74.4283 44.284C74.727 44.284 74.9883 44.228 75.2123 44.116L76.0243 46.944C75.259 47.28 74.4096 47.448 73.4763 47.448ZM96.2414 42.884C96.2414 43.4627 96.3254 43.892 96.4934 44.172C96.6614 44.4333 96.9414 44.6293 97.3334 44.76L96.4934 47.392C95.6161 47.3173 94.8974 47.112 94.3374 46.776C93.7961 46.44 93.3761 45.9173 93.0774 45.208C92.1067 46.7013 90.6227 47.448 88.6254 47.448C87.1507 47.448 85.9747 47.028 85.0974 46.188C84.2387 45.3293 83.8094 44.2187 83.8094 42.856C83.8094 41.232 84.3974 39.9907 85.5734 39.132C86.7494 38.2733 88.4387 37.844 90.6414 37.844H92.3494V37.116C92.3494 36.2013 92.1441 35.5667 91.7334 35.212C91.3227 34.8573 90.6414 34.68 89.6894 34.68C88.6441 34.68 87.3374 34.9413 85.7694 35.464L84.8734 32.804C86.7214 32.076 88.5507 31.712 90.3614 31.712C92.3774 31.712 93.8614 32.1507 94.8134 33.028C95.7654 33.8867 96.2414 35.1747 96.2414 36.892V42.884ZM89.7174 44.592C90.8374 44.592 91.7147 44.0413 92.3494 42.94V40.112H91.0334C88.8867 40.112 87.8134 40.9147 87.8134 42.52C87.8134 43.1733 87.9721 43.6867 88.2894 44.06C88.6254 44.4147 89.1014 44.592 89.7174 44.592ZM111.417 42.884C111.417 43.4627 111.501 43.892 111.669 44.172C111.837 44.4333 112.117 44.6293 112.509 44.76L111.669 47.392C110.792 47.3173 110.073 47.112 109.513 46.776C108.972 46.44 108.552 45.9173 108.253 45.208C107.283 46.7013 105.799 47.448 103.801 47.448C102.327 47.448 101.151 47.028 100.273 46.188C99.4145 45.3293 98.9852 44.2187 98.9852 42.856C98.9852 41.232 99.5732 39.9907 100.749 39.132C101.925 38.2733 103.615 37.844 105.817 37.844H107.525V37.116C107.525 36.2013 107.32 35.5667 106.909 35.212C106.499 34.8573 105.817 34.68 104.865 34.68C103.82 34.68 102.513 34.9413 100.945 35.464L100.049 32.804C101.897 32.076 103.727 31.712 105.537 31.712C107.553 31.712 109.037 32.1507 109.989 33.028C110.941 33.8867 111.417 35.1747 111.417 36.892V42.884ZM104.893 44.592C106.013 44.592 106.891 44.0413 107.525 42.94V40.112H106.209C104.063 40.112 102.989 40.9147 102.989 42.52C102.989 43.1733 103.148 43.6867 103.465 44.06C103.801 44.4147 104.277 44.592 104.893 44.592ZM120.044 31.712C122.135 31.712 123.927 32.3093 125.42 33.504L123.908 35.772C122.658 34.988 121.426 34.596 120.212 34.596C119.559 34.596 119.055 34.7173 118.7 34.96C118.346 35.2027 118.168 35.5293 118.168 35.94C118.168 36.2387 118.243 36.4907 118.392 36.696C118.56 36.9013 118.859 37.0973 119.288 37.284C119.736 37.4707 120.399 37.6947 121.276 37.956C122.844 38.3853 124.011 38.964 124.776 39.692C125.542 40.4013 125.924 41.3813 125.924 42.632C125.924 43.6213 125.635 44.48 125.056 45.208C124.496 45.936 123.731 46.496 122.76 46.888C121.79 47.2613 120.707 47.448 119.512 47.448C118.262 47.448 117.123 47.2613 116.096 46.888C115.07 46.496 114.192 45.964 113.464 45.292L115.424 43.108C116.675 44.0787 118 44.564 119.4 44.564C120.147 44.564 120.735 44.424 121.164 44.144C121.612 43.8453 121.836 43.444 121.836 42.94C121.836 42.548 121.752 42.24 121.584 42.016C121.416 41.792 121.108 41.5867 120.66 41.4C120.212 41.1947 119.512 40.9613 118.56 40.7C117.067 40.2893 115.956 39.7107 115.228 38.964C114.519 38.1987 114.164 37.256 114.164 36.136C114.164 35.296 114.407 34.54 114.892 33.868C115.378 33.196 116.059 32.6733 116.936 32.3C117.832 31.908 118.868 31.712 120.044 31.712ZM137.391 46.3C136.849 46.6733 136.233 46.9533 135.543 47.14C134.871 47.3453 134.199 47.448 133.527 47.448C131.996 47.4293 130.839 46.9907 130.055 46.132C129.271 45.2733 128.879 44.0133 128.879 42.352V34.96H126.667V32.16H128.879V28.912L132.855 28.436V32.16H136.271L135.879 34.96H132.855V42.268C132.855 42.9773 132.976 43.4907 133.219 43.808C133.461 44.1253 133.835 44.284 134.339 44.284C134.843 44.284 135.403 44.116 136.019 43.78L137.391 46.3ZM150.191 42.884C150.191 43.4627 150.275 43.892 150.443 44.172C150.611 44.4333 150.891 44.6293 151.283 44.76L150.443 47.392C149.565 47.3173 148.847 47.112 148.287 46.776C147.745 46.44 147.325 45.9173 147.027 45.208C146.056 46.7013 144.572 47.448 142.575 47.448C141.1 47.448 139.924 47.028 139.047 46.188C138.188 45.3293 137.759 44.2187 137.759 42.856C137.759 41.232 138.347 39.9907 139.523 39.132C140.699 38.2733 142.388 37.844 144.591 37.844H146.299V37.116C146.299 36.2013 146.093 35.5667 145.683 35.212C145.272 34.8573 144.591 34.68 143.639 34.68C142.593 34.68 141.287 34.9413 139.719 35.464L138.823 32.804C140.671 32.076 142.5 31.712 144.311 31.712C146.327 31.712 147.811 32.1507 148.763 33.028C149.715 33.8867 150.191 35.1747 150.191 36.892V42.884ZM143.667 44.592C144.787 44.592 145.664 44.0413 146.299 42.94V40.112H144.983C142.836 40.112 141.763 40.9147 141.763 42.52C141.763 43.1733 141.921 43.6867 142.239 44.06C142.575 44.4147 143.051 44.592 143.667 44.592ZM157.586 47.448C156.372 47.448 155.43 47.1027 154.758 46.412C154.086 45.7027 153.75 44.704 153.75 43.416V26.252L157.726 25.804V43.304C157.726 43.9573 157.996 44.284 158.538 44.284C158.836 44.284 159.098 44.228 159.322 44.116L160.134 46.944C159.368 47.28 158.519 47.448 157.586 47.448ZM172.959 45.516C172.959 47.0093 172.725 48.232 172.259 49.184C171.811 50.1547 171.185 50.9293 170.383 51.508C169.58 52.1053 168.553 52.6467 167.303 53.132L165.987 50.248C166.715 49.912 167.284 49.576 167.695 49.24C168.105 48.9227 168.423 48.484 168.647 47.924C168.871 47.3827 168.983 46.664 168.983 45.768V32.16H172.959V45.516ZM170.943 24.516C171.652 24.516 172.231 24.74 172.679 25.188C173.145 25.6173 173.379 26.168 173.379 26.84C173.379 27.512 173.145 28.072 172.679 28.52C172.231 28.9493 171.652 29.164 170.943 29.164C170.233 29.164 169.655 28.9493 169.207 28.52C168.759 28.072 168.535 27.512 168.535 26.84C168.535 26.168 168.759 25.6173 169.207 25.188C169.655 24.74 170.233 24.516 170.943 24.516ZM188.226 42.884C188.226 43.4627 188.31 43.892 188.478 44.172C188.646 44.4333 188.926 44.6293 189.318 44.76L188.478 47.392C187.6 47.3173 186.882 47.112 186.322 46.776C185.78 46.44 185.36 45.9173 185.062 45.208C184.091 46.7013 182.607 47.448 180.61 47.448C179.135 47.448 177.959 47.028 177.082 46.188C176.223 45.3293 175.794 44.2187 175.794 42.856C175.794 41.232 176.382 39.9907 177.558 39.132C178.734 38.2733 180.423 37.844 182.626 37.844H184.334V37.116C184.334 36.2013 184.128 35.5667 183.718 35.212C183.307 34.8573 182.626 34.68 181.674 34.68C180.628 34.68 179.322 34.9413 177.754 35.464L176.858 32.804C178.706 32.076 180.535 31.712 182.346 31.712C184.362 31.712 185.846 32.1507 186.798 33.028C187.75 33.8867 188.226 35.1747 188.226 36.892V42.884ZM181.702 44.592C182.822 44.592 183.699 44.0413 184.334 42.94V40.112H183.018C180.871 40.112 179.798 40.9147 179.798 42.52C179.798 43.1733 179.956 43.6867 180.274 44.06C180.61 44.4147 181.086 44.592 181.702 44.592ZM179.266 24.824C179.863 24.824 180.358 25.0293 180.75 25.44C181.16 25.832 181.366 26.3173 181.366 26.896C181.366 27.4747 181.16 27.9693 180.75 28.38C180.358 28.772 179.863 28.968 179.266 28.968C178.687 28.968 178.192 28.772 177.782 28.38C177.371 27.9693 177.166 27.4747 177.166 26.896C177.166 26.3173 177.371 25.832 177.782 25.44C178.192 25.0293 178.687 24.824 179.266 24.824ZM185.594 24.824C186.191 24.824 186.695 25.0293 187.106 25.44C187.516 25.832 187.722 26.3173 187.722 26.896C187.722 27.4747 187.516 27.9693 187.106 28.38C186.695 28.772 186.191 28.968 185.594 28.968C185.015 28.968 184.52 28.772 184.11 28.38C183.718 27.9693 183.522 27.4747 183.522 26.896C183.522 26.3173 183.718 25.832 184.11 25.44C184.52 25.0293 185.015 24.824 185.594 24.824ZM199.87 31.74C200.318 31.74 200.813 31.8147 201.354 31.964L200.682 35.8C200.16 35.6693 199.721 35.604 199.366 35.604C198.489 35.604 197.808 35.912 197.322 36.528C196.837 37.144 196.454 38.0773 196.174 39.328V47H192.198V32.16H195.642L196.006 35.044C196.361 33.9987 196.874 33.1867 197.546 32.608C198.237 32.0293 199.012 31.74 199.87 31.74ZM216.244 32.972C215.273 33.3453 213.845 33.532 211.96 33.532C212.893 33.9427 213.584 34.456 214.032 35.072C214.48 35.6693 214.704 36.4253 214.704 37.34C214.704 38.292 214.452 39.1507 213.948 39.916C213.462 40.6627 212.753 41.2507 211.82 41.68C210.905 42.1093 209.832 42.324 208.6 42.324C207.946 42.324 207.368 42.2587 206.864 42.128C206.49 42.3707 206.304 42.6973 206.304 43.108C206.304 43.4067 206.416 43.6493 206.64 43.836C206.882 44.004 207.34 44.088 208.012 44.088H210.28C211.381 44.088 212.342 44.2747 213.164 44.648C214.004 45.0027 214.648 45.5067 215.096 46.16C215.562 46.7947 215.796 47.5227 215.796 48.344C215.796 49.856 215.142 51.032 213.836 51.872C212.548 52.7307 210.681 53.16 208.236 53.16C206.481 53.16 205.09 52.9733 204.064 52.6C203.056 52.2453 202.346 51.7227 201.936 51.032C201.525 50.3413 201.32 49.4733 201.32 48.428H204.876C204.876 48.9133 204.969 49.296 205.156 49.576C205.342 49.8747 205.678 50.0893 206.164 50.22C206.668 50.3693 207.386 50.444 208.32 50.444C209.608 50.444 210.504 50.2853 211.008 49.968C211.53 49.6507 211.792 49.2027 211.792 48.624C211.792 48.1013 211.596 47.7 211.204 47.42C210.812 47.14 210.233 47 209.468 47H207.284C205.809 47 204.708 46.7293 203.98 46.188C203.252 45.628 202.888 44.928 202.888 44.088C202.888 43.5653 203.037 43.0613 203.336 42.576C203.653 42.072 204.082 41.652 204.624 41.316C203.709 40.812 203.037 40.224 202.608 39.552C202.197 38.8613 201.992 38.04 201.992 37.088C201.992 36.0053 202.253 35.0627 202.776 34.26C203.317 33.4387 204.064 32.8133 205.016 32.384C205.986 31.936 207.088 31.712 208.32 31.712C209.85 31.7493 211.11 31.6187 212.1 31.32C213.089 31.0213 214.144 30.5547 215.264 29.92L216.244 32.972ZM208.404 34.372C207.657 34.372 207.06 34.6147 206.612 35.1C206.182 35.5667 205.968 36.2107 205.968 37.032C205.968 37.872 206.182 38.5347 206.612 39.02C207.06 39.5053 207.666 39.748 208.432 39.748C209.234 39.748 209.841 39.5147 210.252 39.048C210.662 38.5813 210.868 37.8907 210.868 36.976C210.868 35.24 210.046 34.372 208.404 34.372ZM222.178 32.16V47H218.202V32.16H222.178ZM220.162 24.516C220.872 24.516 221.45 24.74 221.898 25.188C222.365 25.6173 222.598 26.168 222.598 26.84C222.598 27.512 222.365 28.072 221.898 28.52C221.45 28.9493 220.872 29.164 220.162 29.164C219.453 29.164 218.874 28.9493 218.426 28.52C217.978 28.072 217.754 27.512 217.754 26.84C217.754 26.168 217.978 25.6173 218.426 25.188C218.874 24.74 219.453 24.516 220.162 24.516ZM234.393 31.712C235.699 31.712 236.717 32.1133 237.445 32.916C238.173 33.7 238.537 34.792 238.537 36.192V47H234.561V36.864C234.561 36.0613 234.421 35.5013 234.141 35.184C233.879 34.848 233.478 34.68 232.937 34.68C232.377 34.68 231.863 34.8573 231.397 35.212C230.949 35.548 230.51 36.0613 230.081 36.752V47H226.105V32.16H229.549L229.857 34.036C230.473 33.2707 231.145 32.692 231.873 32.3C232.619 31.908 233.459 31.712 234.393 31.712ZM253.131 25.804V47H249.155V26.252L253.131 25.804ZM262.147 32.16L257.415 38.684L262.567 47H258.059L253.271 38.88L258.031 32.16H262.147ZM270.247 31.712C272.468 31.712 274.204 32.412 275.455 33.812C276.706 35.1933 277.331 37.116 277.331 39.58C277.331 41.148 277.042 42.5293 276.463 43.724C275.903 44.9 275.082 45.8147 273.999 46.468C272.935 47.1213 271.675 47.448 270.219 47.448C267.998 47.448 266.252 46.7573 264.983 45.376C263.732 43.976 263.107 42.044 263.107 39.58C263.107 38.012 263.387 36.64 263.947 35.464C264.526 34.2693 265.347 33.3453 266.411 32.692C267.494 32.0387 268.772 31.712 270.247 31.712ZM270.247 34.68C269.239 34.68 268.483 35.0813 267.979 35.884C267.494 36.668 267.251 37.9 267.251 39.58C267.251 41.26 267.494 42.5013 267.979 43.304C268.483 44.088 269.23 44.48 270.219 44.48C271.208 44.48 271.946 44.088 272.431 43.304C272.935 42.5013 273.187 41.26 273.187 39.58C273.187 37.9 272.944 36.668 272.459 35.884C271.974 35.0813 271.236 34.68 270.247 34.68ZM271.843 29.08C271.451 29.08 271.106 29.0147 270.807 28.884C270.527 28.7533 270.191 28.5667 269.799 28.324C269.556 28.1373 269.342 28.0067 269.155 27.932C268.987 27.8387 268.81 27.792 268.623 27.792C268.324 27.792 268.063 27.8947 267.839 28.1C267.615 28.3053 267.382 28.6227 267.139 29.052L265.095 28.044C265.468 27.1293 265.954 26.3827 266.551 25.804C267.148 25.2253 267.82 24.936 268.567 24.936C268.996 24.936 269.36 25.0107 269.659 25.16C269.958 25.2907 270.294 25.4773 270.667 25.72C270.91 25.888 271.115 26.0187 271.283 26.112C271.451 26.1867 271.628 26.224 271.815 26.224C272.114 26.224 272.366 26.1307 272.571 25.944C272.795 25.7387 273.038 25.4213 273.299 24.992L275.343 26C274.97 26.952 274.484 27.708 273.887 28.268C273.29 28.8093 272.608 29.08 271.843 29.08ZM284.331 32.16V47H280.355V32.16H284.331ZM282.315 24.516C283.024 24.516 283.603 24.74 284.051 25.188C284.517 25.6173 284.751 26.168 284.751 26.84C284.751 27.512 284.517 28.072 284.051 28.52C283.603 28.9493 283.024 29.164 282.315 29.164C281.605 29.164 281.027 28.9493 280.579 28.52C280.131 28.072 279.907 27.512 279.907 26.84C279.907 26.168 280.131 25.6173 280.579 25.188C281.027 24.74 281.605 24.516 282.315 24.516ZM292.233 25.804V47H288.257V26.252L292.233 25.804ZM301.249 32.16L296.517 38.684L301.669 47H297.161L292.373 38.88L297.133 32.16H301.249ZM307.409 32.16V47H303.433V32.16H307.409ZM305.393 24.516C306.102 24.516 306.681 24.74 307.129 25.188C307.595 25.6173 307.829 26.168 307.829 26.84C307.829 27.512 307.595 28.072 307.129 28.52C306.681 28.9493 306.102 29.164 305.393 29.164C304.683 29.164 304.105 28.9493 303.657 28.52C303.209 28.072 302.985 27.512 302.985 26.84C302.985 26.168 303.209 25.6173 303.657 25.188C304.105 24.74 304.683 24.516 305.393 24.516ZM36.004 62.712C37.18 62.712 38.1227 63.1133 38.832 63.916C39.56 64.7187 39.924 65.8107 39.924 67.192V78H35.948V67.864C35.948 66.408 35.4627 65.68 34.492 65.68C33.9693 65.68 33.512 65.848 33.12 66.184C32.728 66.52 32.3267 67.0427 31.916 67.752V78H27.94V67.864C27.94 66.408 27.4547 65.68 26.484 65.68C25.9613 65.68 25.504 65.8573 25.112 66.212C24.72 66.548 24.328 67.0613 23.936 67.752V78H19.96V63.16H23.404L23.712 65.008C24.272 64.2613 24.8973 63.692 25.588 63.3C26.2973 62.908 27.1093 62.712 28.024 62.712C28.864 62.712 29.592 62.9267 30.208 63.356C30.824 63.7667 31.272 64.3547 31.552 65.12C32.168 64.3173 32.8307 63.72 33.54 63.328C34.268 62.9173 35.0893 62.712 36.004 62.712ZM49.9384 62.712C52.1597 62.712 53.8957 63.412 55.1464 64.812C56.397 66.1933 57.0224 68.116 57.0224 70.58C57.0224 72.148 56.733 73.5293 56.1544 74.724C55.5944 75.9 54.773 76.8147 53.6904 77.468C52.6264 78.1213 51.3664 78.448 49.9104 78.448C47.689 78.448 45.9437 77.7573 44.6744 76.376C43.4237 74.976 42.7984 73.044 42.7984 70.58C42.7984 69.012 43.0784 67.64 43.6384 66.464C44.217 65.2693 45.0384 64.3453 46.1024 63.692C47.185 63.0387 48.4637 62.712 49.9384 62.712ZM49.9384 65.68C48.9304 65.68 48.1744 66.0813 47.6704 66.884C47.185 67.668 46.9424 68.9 46.9424 70.58C46.9424 72.26 47.185 73.5013 47.6704 74.304C48.1744 75.088 48.921 75.48 49.9104 75.48C50.8997 75.48 51.637 75.088 52.1224 74.304C52.6264 73.5013 52.8784 72.26 52.8784 70.58C52.8784 68.9 52.6357 67.668 52.1504 66.884C51.665 66.0813 50.9277 65.68 49.9384 65.68ZM72.5899 70.244C72.5899 70.4307 72.5619 70.944 72.5059 71.784H63.2379C63.3686 73.128 63.7326 74.08 64.3299 74.64C64.9273 75.2 65.7393 75.48 66.7659 75.48C67.4006 75.48 67.9979 75.3773 68.5579 75.172C69.1179 74.9667 69.7246 74.64 70.3779 74.192L72.0299 76.432C70.3686 77.776 68.4926 78.448 66.4019 78.448C64.0686 78.448 62.2766 77.748 61.0259 76.348C59.7753 74.948 59.1499 73.0533 59.1499 70.664C59.1499 69.152 59.4113 67.7987 59.9339 66.604C60.4753 65.3907 61.2499 64.4387 62.2579 63.748C63.2846 63.0573 64.4979 62.712 65.8979 62.712C68.0073 62.712 69.6499 63.3747 70.8259 64.7C72.0019 66.0253 72.5899 67.8733 72.5899 70.244ZM68.6419 69.124C68.6419 66.66 67.7553 65.428 65.9819 65.428C65.1606 65.428 64.5166 65.736 64.0499 66.352C63.6019 66.9493 63.3313 67.9293 63.2379 69.292H68.6419V69.124ZM84.3438 77.3C83.8025 77.6733 83.1865 77.9533 82.4958 78.14C81.8238 78.3453 81.1518 78.448 80.4798 78.448C78.9491 78.4293 77.7918 77.9907 77.0078 77.132C76.2238 76.2733 75.8318 75.0133 75.8318 73.352V65.96H73.6198V63.16H75.8318V59.912L79.8078 59.436V63.16H83.2238L82.8318 65.96H79.8078V73.268C79.8078 73.9773 79.9291 74.4907 80.1718 74.808C80.4145 75.1253 80.7878 75.284 81.2918 75.284C81.7958 75.284 82.3558 75.116 82.9718 74.78L84.3438 77.3ZM93.7765 62.74C94.2245 62.74 94.7192 62.8147 95.2605 62.964L94.5885 66.8C94.0659 66.6693 93.6272 66.604 93.2725 66.604C92.3952 66.604 91.7139 66.912 91.2285 67.528C90.7432 68.144 90.3605 69.0773 90.0805 70.328V78H86.1045V63.16H89.5485L89.9125 66.044C90.2672 64.9987 90.7805 64.1867 91.4525 63.608C92.1432 63.0293 92.9179 62.74 93.7765 62.74ZM108.93 70.244C108.93 70.4307 108.902 70.944 108.846 71.784H99.5778C99.7084 73.128 100.072 74.08 100.67 74.64C101.267 75.2 102.079 75.48 103.106 75.48C103.74 75.48 104.338 75.3773 104.898 75.172C105.458 74.9667 106.064 74.64 106.718 74.192L108.37 76.432C106.708 77.776 104.832 78.448 102.742 78.448C100.408 78.448 98.6164 77.748 97.3658 76.348C96.1151 74.948 95.4898 73.0533 95.4898 70.664C95.4898 69.152 95.7511 67.7987 96.2738 66.604C96.8151 65.3907 97.5898 64.4387 98.5978 63.748C99.6244 63.0573 100.838 62.712 102.238 62.712C104.347 62.712 105.99 63.3747 107.166 64.7C108.342 66.0253 108.93 67.8733 108.93 70.244ZM104.982 69.124C104.982 66.66 104.095 65.428 102.322 65.428C101.5 65.428 100.856 65.736 100.39 66.352C99.9418 66.9493 99.6711 67.9293 99.5778 69.292H104.982V69.124ZM120.096 62.712C121.402 62.712 122.42 63.1133 123.148 63.916C123.876 64.7 124.24 65.792 124.24 67.192V78H120.264V67.864C120.264 67.0613 120.124 66.5013 119.844 66.184C119.582 65.848 119.181 65.68 118.64 65.68C118.08 65.68 117.566 65.8573 117.1 66.212C116.652 66.548 116.213 67.0613 115.784 67.752V78H111.808V63.16H115.252L115.56 65.036C116.176 64.2707 116.848 63.692 117.576 63.3C118.322 62.908 119.162 62.712 120.096 62.712ZM140.875 57.252V78H137.375L137.151 76.18C136.105 77.692 134.687 78.448 132.895 78.448C131.065 78.448 129.665 77.748 128.695 76.348C127.743 74.9293 127.267 73.0067 127.267 70.58C127.267 69.0493 127.509 67.696 127.995 66.52C128.499 65.3253 129.208 64.392 130.123 63.72C131.037 63.048 132.092 62.712 133.287 62.712C134.668 62.712 135.872 63.2067 136.899 64.196V56.804L140.875 57.252ZM134.071 75.48C134.649 75.48 135.163 75.34 135.611 75.06C136.059 74.7613 136.488 74.304 136.899 73.688V67.052C136.507 66.5853 136.105 66.24 135.695 66.016C135.303 65.7733 134.845 65.652 134.323 65.652C133.408 65.652 132.689 66.0533 132.167 66.856C131.663 67.6587 131.411 68.9 131.411 70.58C131.411 72.3533 131.635 73.6133 132.083 74.36C132.549 75.1067 133.212 75.48 134.071 75.48ZM157.328 70.244C157.328 70.4307 157.3 70.944 157.244 71.784H147.976C148.107 73.128 148.471 74.08 149.068 74.64C149.666 75.2 150.478 75.48 151.504 75.48C152.139 75.48 152.736 75.3773 153.296 75.172C153.856 74.9667 154.463 74.64 155.116 74.192L156.768 76.432C155.107 77.776 153.231 78.448 151.14 78.448C148.807 78.448 147.015 77.748 145.764 76.348C144.514 74.948 143.888 73.0533 143.888 70.664C143.888 69.152 144.15 67.7987 144.672 66.604C145.214 65.3907 145.988 64.4387 146.996 63.748C148.023 63.0573 149.236 62.712 150.636 62.712C152.746 62.712 154.388 63.3747 155.564 64.7C156.74 66.0253 157.328 67.8733 157.328 70.244ZM153.38 69.124C153.38 66.66 152.494 65.428 150.72 65.428C149.899 65.428 149.255 65.736 148.788 66.352C148.34 66.9493 148.07 67.9293 147.976 69.292H153.38V69.124ZM161.305 73.66C161.977 73.66 162.546 73.8933 163.013 74.36C163.479 74.8267 163.713 75.3867 163.713 76.04C163.713 76.6933 163.479 77.2627 163.013 77.748C162.546 78.2147 161.977 78.448 161.305 78.448C160.651 78.448 160.091 78.2147 159.625 77.748C159.158 77.2627 158.925 76.6933 158.925 76.04C158.925 75.3867 159.158 74.8267 159.625 74.36C160.091 73.8933 160.651 73.66 161.305 73.66Z" fill="#E3000F"/>
<path d="M31.9971 94.3594V110H29.3008L22.2861 98.7959V110H19.5898V94.3594H22.2861L29.3223 105.585V94.3594H31.9971ZM41.5039 107.669V102.126C41.5039 101.711 41.4287 101.353 41.2783 101.052C41.1279 100.751 40.8988 100.518 40.5908 100.354C40.29 100.189 39.9105 100.106 39.4521 100.106C39.0296 100.106 38.6644 100.178 38.3564 100.321C38.0485 100.465 37.8086 100.658 37.6367 100.901C37.4648 101.145 37.3789 101.421 37.3789 101.729H34.8008C34.8008 101.27 34.9118 100.826 35.1338 100.396C35.3558 99.9668 35.6781 99.5837 36.1006 99.2471C36.5231 98.9105 37.028 98.6455 37.6152 98.4521C38.2025 98.2588 38.8613 98.1621 39.5918 98.1621C40.4655 98.1621 41.2389 98.3089 41.9121 98.6025C42.5924 98.8962 43.126 99.3402 43.5127 99.9346C43.9066 100.522 44.1035 101.259 44.1035 102.147V107.314C44.1035 107.844 44.1393 108.321 44.2109 108.743C44.2897 109.159 44.4007 109.52 44.5439 109.828V110H41.8906C41.7689 109.721 41.6722 109.366 41.6006 108.937C41.5361 108.5 41.5039 108.077 41.5039 107.669ZM41.8799 102.932L41.9014 104.532H40.043C39.5632 104.532 39.1406 104.579 38.7754 104.672C38.4102 104.758 38.1058 104.887 37.8623 105.059C37.6188 105.23 37.4362 105.438 37.3145 105.682C37.1927 105.925 37.1318 106.201 37.1318 106.509C37.1318 106.817 37.2035 107.1 37.3467 107.357C37.4899 107.608 37.6976 107.805 37.9697 107.948C38.249 108.091 38.5856 108.163 38.9795 108.163C39.5094 108.163 39.9714 108.056 40.3652 107.841C40.7663 107.619 41.0814 107.35 41.3105 107.035C41.5397 106.713 41.6615 106.409 41.6758 106.122L42.5137 107.271C42.4277 107.565 42.2809 107.88 42.0732 108.217C41.8656 108.553 41.5934 108.876 41.2568 109.184C40.9274 109.484 40.5299 109.731 40.0645 109.925C39.6061 110.118 39.0762 110.215 38.4746 110.215C37.7155 110.215 37.0387 110.064 36.4443 109.764C35.8499 109.456 35.3844 109.044 35.0479 108.528C34.7113 108.006 34.543 107.415 34.543 106.756C34.543 106.14 34.6576 105.596 34.8867 105.123C35.123 104.643 35.4668 104.242 35.918 103.92C36.3763 103.598 36.9349 103.354 37.5938 103.189C38.2526 103.018 39.0046 102.932 39.8496 102.932H41.8799ZM49.582 98.377V110H46.9824V98.377H49.582ZM46.8105 95.3262C46.8105 94.9323 46.9395 94.6064 47.1973 94.3486C47.4622 94.0837 47.8275 93.9512 48.293 93.9512C48.7513 93.9512 49.113 94.0837 49.3779 94.3486C49.6429 94.6064 49.7754 94.9323 49.7754 95.3262C49.7754 95.7129 49.6429 96.0352 49.3779 96.293C49.113 96.5508 48.7513 96.6797 48.293 96.6797C47.8275 96.6797 47.4622 96.5508 47.1973 96.293C46.9395 96.0352 46.8105 95.7129 46.8105 95.3262ZM58.9385 106.853C58.9385 106.595 58.874 106.362 58.7451 106.154C58.6162 105.939 58.3691 105.746 58.0039 105.574C57.6458 105.402 57.1159 105.245 56.4141 105.102C55.7982 104.965 55.2324 104.804 54.7168 104.618C54.2083 104.425 53.7715 104.192 53.4062 103.92C53.041 103.648 52.7581 103.326 52.5576 102.953C52.3571 102.581 52.2568 102.151 52.2568 101.664C52.2568 101.191 52.3607 100.744 52.5684 100.321C52.776 99.8988 53.0732 99.5264 53.46 99.2041C53.8467 98.8818 54.3158 98.6276 54.8672 98.4414C55.4258 98.2552 56.0488 98.1621 56.7363 98.1621C57.7103 98.1621 58.5446 98.3268 59.2393 98.6562C59.9411 98.9785 60.4782 99.4189 60.8506 99.9775C61.223 100.529 61.4092 101.152 61.4092 101.847H58.8203C58.8203 101.539 58.7415 101.252 58.584 100.987C58.4336 100.715 58.2044 100.497 57.8965 100.332C57.5885 100.16 57.2018 100.074 56.7363 100.074C56.2923 100.074 55.9235 100.146 55.6299 100.289C55.3434 100.425 55.1286 100.604 54.9854 100.826C54.8493 101.048 54.7812 101.292 54.7812 101.557C54.7812 101.75 54.8171 101.925 54.8887 102.083C54.9674 102.233 55.0964 102.373 55.2754 102.502C55.4544 102.624 55.6979 102.738 56.0059 102.846C56.321 102.953 56.7148 103.057 57.1875 103.157C58.0755 103.343 58.8382 103.583 59.4756 103.877C60.1201 104.163 60.6143 104.536 60.958 104.994C61.3018 105.445 61.4736 106.018 61.4736 106.713C61.4736 107.229 61.3626 107.701 61.1406 108.131C60.9258 108.553 60.6107 108.922 60.1953 109.237C59.7799 109.545 59.2822 109.785 58.7021 109.957C58.1292 110.129 57.4847 110.215 56.7686 110.215C55.7158 110.215 54.8242 110.029 54.0938 109.656C53.3633 109.277 52.8083 108.793 52.4287 108.206C52.0563 107.612 51.8701 106.996 51.8701 106.358H54.373C54.4017 106.838 54.5342 107.221 54.7705 107.508C55.014 107.787 55.3148 107.991 55.6729 108.12C56.0381 108.242 56.4141 108.303 56.8008 108.303C57.2663 108.303 57.6566 108.242 57.9717 108.12C58.2868 107.991 58.5267 107.819 58.6914 107.604C58.8561 107.382 58.9385 107.132 58.9385 106.853ZM69.0684 98.377V100.268H62.5156V98.377H69.0684ZM64.4062 95.5303H66.9951V106.788C66.9951 107.146 67.0452 107.422 67.1455 107.615C67.2529 107.801 67.3997 107.927 67.5859 107.991C67.7721 108.056 67.9906 108.088 68.2412 108.088C68.4202 108.088 68.5921 108.077 68.7568 108.056C68.9215 108.034 69.054 108.013 69.1543 107.991L69.165 109.968C68.9502 110.032 68.6995 110.09 68.4131 110.14C68.1338 110.19 67.8115 110.215 67.4463 110.215C66.8519 110.215 66.3255 110.111 65.8672 109.903C65.4089 109.688 65.0508 109.341 64.793 108.861C64.5352 108.382 64.4062 107.744 64.4062 106.949V95.5303ZM76.1904 110.215C75.3311 110.215 74.554 110.075 73.8594 109.796C73.1719 109.509 72.5846 109.112 72.0977 108.604C71.6178 108.095 71.249 107.497 70.9912 106.81C70.7334 106.122 70.6045 105.381 70.6045 104.586V104.156C70.6045 103.247 70.737 102.423 71.002 101.686C71.2669 100.948 71.6357 100.318 72.1084 99.7949C72.5811 99.265 73.1396 98.8604 73.7842 98.5811C74.4287 98.3018 75.127 98.1621 75.8789 98.1621C76.7096 98.1621 77.4365 98.3018 78.0596 98.5811C78.6826 98.8604 79.1982 99.2542 79.6064 99.7627C80.0218 100.264 80.3298 100.862 80.5303 101.557C80.738 102.251 80.8418 103.018 80.8418 103.855V104.962H71.8613V103.104H78.2852V102.899C78.2708 102.434 78.1777 101.997 78.0059 101.589C77.8411 101.181 77.5869 100.851 77.2432 100.601C76.8994 100.35 76.4411 100.225 75.8682 100.225C75.4385 100.225 75.0553 100.318 74.7188 100.504C74.3893 100.683 74.1136 100.944 73.8916 101.288C73.6696 101.632 73.4977 102.047 73.376 102.534C73.2614 103.014 73.2041 103.555 73.2041 104.156V104.586C73.2041 105.094 73.2721 105.567 73.4082 106.004C73.5514 106.434 73.7591 106.81 74.0312 107.132C74.3034 107.454 74.6328 107.708 75.0195 107.895C75.4062 108.074 75.8467 108.163 76.3408 108.163C76.9639 108.163 77.5189 108.038 78.0059 107.787C78.4928 107.536 78.9154 107.182 79.2734 106.724L80.6377 108.045C80.387 108.41 80.0612 108.761 79.6602 109.098C79.2591 109.427 78.7686 109.696 78.1885 109.903C77.6156 110.111 76.9495 110.215 76.1904 110.215ZM85.6328 93.5V110H83.0332V93.5H85.6328ZM93.5928 110.215C92.7334 110.215 91.9564 110.075 91.2617 109.796C90.5742 109.509 89.987 109.112 89.5 108.604C89.0202 108.095 88.6514 107.497 88.3936 106.81C88.1357 106.122 88.0068 105.381 88.0068 104.586V104.156C88.0068 103.247 88.1393 102.423 88.4043 101.686C88.6693 100.948 89.0381 100.318 89.5107 99.7949C89.9834 99.265 90.542 98.8604 91.1865 98.5811C91.8311 98.3018 92.5293 98.1621 93.2812 98.1621C94.112 98.1621 94.8389 98.3018 95.4619 98.5811C96.085 98.8604 96.6006 99.2542 97.0088 99.7627C97.4242 100.264 97.7321 100.862 97.9326 101.557C98.1403 102.251 98.2441 103.018 98.2441 103.855V104.962H89.2637V103.104H95.6875V102.899C95.6732 102.434 95.5801 101.997 95.4082 101.589C95.2435 101.181 94.9893 100.851 94.6455 100.601C94.3018 100.35 93.8434 100.225 93.2705 100.225C92.8408 100.225 92.4577 100.318 92.1211 100.504C91.7917 100.683 91.516 100.944 91.2939 101.288C91.0719 101.632 90.9001 102.047 90.7783 102.534C90.6637 103.014 90.6064 103.555 90.6064 104.156V104.586C90.6064 105.094 90.6745 105.567 90.8105 106.004C90.9538 106.434 91.1615 106.81 91.4336 107.132C91.7057 107.454 92.0352 107.708 92.4219 107.895C92.8086 108.074 93.249 108.163 93.7432 108.163C94.3662 108.163 94.9212 108.038 95.4082 107.787C95.8952 107.536 96.3177 107.182 96.6758 106.724L98.04 108.045C97.7894 108.41 97.4635 108.761 97.0625 109.098C96.6615 109.427 96.1709 109.696 95.5908 109.903C95.0179 110.111 94.3519 110.215 93.5928 110.215ZM102.82 93.5V110H100.242V93.5H102.82ZM102.369 103.759L101.531 103.748C101.538 102.946 101.649 102.205 101.864 101.524C102.086 100.844 102.394 100.253 102.788 99.752C103.189 99.2435 103.669 98.8532 104.228 98.5811C104.786 98.3018 105.406 98.1621 106.086 98.1621C106.659 98.1621 107.174 98.2409 107.633 98.3984C108.098 98.556 108.499 98.8102 108.836 99.1611C109.173 99.5049 109.427 99.9561 109.599 100.515C109.778 101.066 109.867 101.739 109.867 102.534V110H107.268V102.513C107.268 101.954 107.185 101.51 107.021 101.181C106.863 100.851 106.63 100.615 106.322 100.472C106.014 100.321 105.638 100.246 105.194 100.246C104.729 100.246 104.317 100.339 103.959 100.525C103.608 100.712 103.314 100.966 103.078 101.288C102.842 101.61 102.663 101.983 102.541 102.405C102.426 102.828 102.369 103.279 102.369 103.759ZM117.612 110.215C116.753 110.215 115.976 110.075 115.281 109.796C114.594 109.509 114.007 109.112 113.52 108.604C113.04 108.095 112.671 107.497 112.413 106.81C112.155 106.122 112.026 105.381 112.026 104.586V104.156C112.026 103.247 112.159 102.423 112.424 101.686C112.689 100.948 113.058 100.318 113.53 99.7949C114.003 99.265 114.562 98.8604 115.206 98.5811C115.851 98.3018 116.549 98.1621 117.301 98.1621C118.132 98.1621 118.858 98.3018 119.481 98.5811C120.104 98.8604 120.62 99.2542 121.028 99.7627C121.444 100.264 121.752 100.862 121.952 101.557C122.16 102.251 122.264 103.018 122.264 103.855V104.962H113.283V103.104H119.707V102.899C119.693 102.434 119.6 101.997 119.428 101.589C119.263 101.181 119.009 100.851 118.665 100.601C118.321 100.35 117.863 100.225 117.29 100.225C116.86 100.225 116.477 100.318 116.141 100.504C115.811 100.683 115.535 100.944 115.313 101.288C115.091 101.632 114.92 102.047 114.798 102.534C114.683 103.014 114.626 103.555 114.626 104.156V104.586C114.626 105.094 114.694 105.567 114.83 106.004C114.973 106.434 115.181 106.81 115.453 107.132C115.725 107.454 116.055 107.708 116.441 107.895C116.828 108.074 117.269 108.163 117.763 108.163C118.386 108.163 118.941 108.038 119.428 107.787C119.915 107.536 120.337 107.182 120.695 106.724L122.06 108.045C121.809 108.41 121.483 108.761 121.082 109.098C120.681 109.427 120.19 109.696 119.61 109.903C119.037 110.111 118.371 110.215 117.612 110.215ZM133.543 107.948L136.39 98.377H139.075L135.036 110H133.36L133.543 107.948ZM131.362 98.377L134.263 107.991L134.402 110H132.727L128.666 98.377H131.362ZM145.649 110.215C144.79 110.215 144.013 110.075 143.318 109.796C142.631 109.509 142.044 109.112 141.557 108.604C141.077 108.095 140.708 107.497 140.45 106.81C140.192 106.122 140.063 105.381 140.063 104.586V104.156C140.063 103.247 140.196 102.423 140.461 101.686C140.726 100.948 141.095 100.318 141.567 99.7949C142.04 99.265 142.599 98.8604 143.243 98.5811C143.888 98.3018 144.586 98.1621 145.338 98.1621C146.169 98.1621 146.896 98.3018 147.519 98.5811C148.142 98.8604 148.657 99.2542 149.065 99.7627C149.481 100.264 149.789 100.862 149.989 101.557C150.197 102.251 150.301 103.018 150.301 103.855V104.962H141.32V103.104H147.744V102.899C147.73 102.434 147.637 101.997 147.465 101.589C147.3 101.181 147.046 100.851 146.702 100.601C146.358 100.35 145.9 100.225 145.327 100.225C144.897 100.225 144.514 100.318 144.178 100.504C143.848 100.683 143.573 100.944 143.351 101.288C143.129 101.632 142.957 102.047 142.835 102.534C142.72 103.014 142.663 103.555 142.663 104.156V104.586C142.663 105.094 142.731 105.567 142.867 106.004C143.01 106.434 143.218 106.81 143.49 107.132C143.762 107.454 144.092 107.708 144.479 107.895C144.865 108.074 145.306 108.163 145.8 108.163C146.423 108.163 146.978 108.038 147.465 107.787C147.952 107.536 148.374 107.182 148.732 106.724L150.097 108.045C149.846 108.41 149.52 108.761 149.119 109.098C148.718 109.427 148.228 109.696 147.647 109.903C147.075 110.111 146.409 110.215 145.649 110.215ZM157.444 110.215C156.585 110.215 155.808 110.075 155.113 109.796C154.426 109.509 153.839 109.112 153.352 108.604C152.872 108.095 152.503 107.497 152.245 106.81C151.987 106.122 151.858 105.381 151.858 104.586V104.156C151.858 103.247 151.991 102.423 152.256 101.686C152.521 100.948 152.89 100.318 153.362 99.7949C153.835 99.265 154.394 98.8604 155.038 98.5811C155.683 98.3018 156.381 98.1621 157.133 98.1621C157.964 98.1621 158.69 98.3018 159.313 98.5811C159.937 98.8604 160.452 99.2542 160.86 99.7627C161.276 100.264 161.584 100.862 161.784 101.557C161.992 102.251 162.096 103.018 162.096 103.855V104.962H153.115V103.104H159.539V102.899C159.525 102.434 159.432 101.997 159.26 101.589C159.095 101.181 158.841 100.851 158.497 100.601C158.153 100.35 157.695 100.225 157.122 100.225C156.692 100.225 156.309 100.318 155.973 100.504C155.643 100.683 155.368 100.944 155.146 101.288C154.924 101.632 154.752 102.047 154.63 102.534C154.515 103.014 154.458 103.555 154.458 104.156V104.586C154.458 105.094 154.526 105.567 154.662 106.004C154.805 106.434 155.013 106.81 155.285 107.132C155.557 107.454 155.887 107.708 156.273 107.895C156.66 108.074 157.101 108.163 157.595 108.163C158.218 108.163 158.773 108.038 159.26 107.787C159.747 107.536 160.169 107.182 160.527 106.724L161.892 108.045C161.641 108.41 161.315 108.761 160.914 109.098C160.513 109.427 160.022 109.696 159.442 109.903C158.869 110.111 158.203 110.215 157.444 110.215ZM164.126 93.5H166.715V107.519L166.468 110H164.126V93.5ZM174.299 104.081V104.307C174.299 105.166 174.202 105.957 174.009 106.681C173.823 107.397 173.536 108.02 173.149 108.55C172.77 109.08 172.297 109.492 171.731 109.785C171.173 110.072 170.525 110.215 169.787 110.215C169.064 110.215 168.434 110.079 167.896 109.807C167.359 109.535 166.908 109.148 166.543 108.646C166.185 108.145 165.895 107.547 165.673 106.853C165.451 106.158 165.293 105.392 165.2 104.554V103.834C165.293 102.989 165.451 102.223 165.673 101.535C165.895 100.84 166.185 100.243 166.543 99.7412C166.908 99.2327 167.356 98.8424 167.886 98.5703C168.423 98.2982 169.049 98.1621 169.766 98.1621C170.51 98.1621 171.166 98.3053 171.731 98.5918C172.304 98.8783 172.781 99.2865 173.16 99.8164C173.54 100.339 173.823 100.962 174.009 101.686C174.202 102.409 174.299 103.207 174.299 104.081ZM171.71 104.307V104.081C171.71 103.558 171.667 103.068 171.581 102.609C171.495 102.144 171.352 101.736 171.151 101.385C170.958 101.034 170.693 100.758 170.356 100.558C170.027 100.35 169.615 100.246 169.121 100.246C168.663 100.246 168.269 100.325 167.939 100.482C167.61 100.64 167.334 100.855 167.112 101.127C166.89 101.399 166.715 101.714 166.586 102.072C166.464 102.43 166.382 102.817 166.339 103.232V105.177C166.403 105.714 166.539 106.208 166.747 106.659C166.962 107.103 167.263 107.461 167.649 107.733C168.036 107.998 168.534 108.131 169.143 108.131C169.622 108.131 170.027 108.034 170.356 107.841C170.686 107.647 170.947 107.379 171.141 107.035C171.341 106.684 171.484 106.276 171.57 105.811C171.663 105.345 171.71 104.844 171.71 104.307ZM179.262 98.377V110H176.662V98.377H179.262ZM176.49 95.3262C176.49 94.9323 176.619 94.6064 176.877 94.3486C177.142 94.0837 177.507 93.9512 177.973 93.9512C178.431 93.9512 178.793 94.0837 179.058 94.3486C179.323 94.6064 179.455 94.9323 179.455 95.3262C179.455 95.7129 179.323 96.0352 179.058 96.293C178.793 96.5508 178.431 96.6797 177.973 96.6797C177.507 96.6797 177.142 96.5508 176.877 96.293C176.619 96.0352 176.49 95.7129 176.49 95.3262ZM184.697 100.611V114.469H182.108V98.377H184.493L184.697 100.611ZM192.271 104.081V104.307C192.271 105.152 192.17 105.936 191.97 106.659C191.776 107.375 191.486 108.002 191.1 108.539C190.72 109.069 190.251 109.481 189.692 109.774C189.134 110.068 188.489 110.215 187.759 110.215C187.035 110.215 186.402 110.082 185.857 109.817C185.32 109.545 184.866 109.162 184.493 108.668C184.121 108.174 183.82 107.594 183.591 106.928C183.369 106.255 183.211 105.517 183.118 104.715V103.845C183.211 102.993 183.369 102.219 183.591 101.524C183.82 100.83 184.121 100.232 184.493 99.7305C184.866 99.2292 185.32 98.8424 185.857 98.5703C186.395 98.2982 187.021 98.1621 187.737 98.1621C188.468 98.1621 189.116 98.3053 189.682 98.5918C190.247 98.8711 190.724 99.2721 191.11 99.7949C191.497 100.311 191.787 100.934 191.98 101.664C192.174 102.387 192.271 103.193 192.271 104.081ZM189.682 104.307V104.081C189.682 103.544 189.632 103.046 189.531 102.588C189.431 102.122 189.273 101.714 189.059 101.363C188.844 101.012 188.568 100.74 188.231 100.547C187.902 100.346 187.505 100.246 187.039 100.246C186.581 100.246 186.187 100.325 185.857 100.482C185.528 100.633 185.252 100.844 185.03 101.116C184.808 101.388 184.636 101.707 184.515 102.072C184.393 102.43 184.307 102.821 184.257 103.243V105.327C184.343 105.843 184.49 106.315 184.697 106.745C184.905 107.175 185.199 107.519 185.578 107.776C185.965 108.027 186.459 108.152 187.061 108.152C187.526 108.152 187.924 108.052 188.253 107.852C188.582 107.651 188.851 107.375 189.059 107.024C189.273 106.666 189.431 106.255 189.531 105.789C189.632 105.324 189.682 104.829 189.682 104.307ZM193.979 104.317V104.07C193.979 103.232 194.1 102.455 194.344 101.739C194.587 101.016 194.938 100.389 195.396 99.8594C195.862 99.3223 196.428 98.9069 197.094 98.6133C197.767 98.3125 198.526 98.1621 199.371 98.1621C200.223 98.1621 200.982 98.3125 201.648 98.6133C202.322 98.9069 202.891 99.3223 203.356 99.8594C203.822 100.389 204.176 101.016 204.42 101.739C204.663 102.455 204.785 103.232 204.785 104.07V104.317C204.785 105.155 204.663 105.932 204.42 106.648C204.176 107.365 203.822 107.991 203.356 108.528C202.891 109.058 202.325 109.474 201.659 109.774C200.993 110.068 200.238 110.215 199.393 110.215C198.54 110.215 197.778 110.068 197.104 109.774C196.438 109.474 195.873 109.058 195.407 108.528C194.942 107.991 194.587 107.365 194.344 106.648C194.1 105.932 193.979 105.155 193.979 104.317ZM196.567 104.07V104.317C196.567 104.84 196.621 105.334 196.729 105.8C196.836 106.265 197.004 106.674 197.233 107.024C197.463 107.375 197.756 107.651 198.114 107.852C198.472 108.052 198.898 108.152 199.393 108.152C199.872 108.152 200.288 108.052 200.639 107.852C200.997 107.651 201.29 107.375 201.52 107.024C201.749 106.674 201.917 106.265 202.024 105.8C202.139 105.334 202.196 104.84 202.196 104.317V104.07C202.196 103.555 202.139 103.068 202.024 102.609C201.917 102.144 201.745 101.732 201.509 101.374C201.28 101.016 200.986 100.737 200.628 100.536C200.277 100.328 199.858 100.225 199.371 100.225C198.884 100.225 198.462 100.328 198.104 100.536C197.753 100.737 197.463 101.016 197.233 101.374C197.004 101.732 196.836 102.144 196.729 102.609C196.621 103.068 196.567 103.555 196.567 104.07ZM209.555 100.59V110H206.966V98.377H209.437L209.555 100.59ZM213.11 98.3018L213.089 100.708C212.931 100.679 212.759 100.658 212.573 100.644C212.394 100.629 212.215 100.622 212.036 100.622C211.592 100.622 211.202 100.687 210.865 100.815C210.529 100.937 210.246 101.116 210.017 101.353C209.795 101.582 209.623 101.861 209.501 102.19C209.379 102.52 209.308 102.889 209.286 103.297L208.695 103.34C208.695 102.609 208.767 101.933 208.91 101.31C209.053 100.687 209.268 100.139 209.555 99.666C209.848 99.1934 210.214 98.8245 210.65 98.5596C211.094 98.2946 211.606 98.1621 212.187 98.1621C212.344 98.1621 212.512 98.1764 212.691 98.2051C212.878 98.2337 213.017 98.266 213.11 98.3018ZM220.598 98.377V100.268H214.045V98.377H220.598ZM215.936 95.5303H218.524V106.788C218.524 107.146 218.575 107.422 218.675 107.615C218.782 107.801 218.929 107.927 219.115 107.991C219.301 108.056 219.52 108.088 219.771 108.088C219.95 108.088 220.121 108.077 220.286 108.056C220.451 108.034 220.583 108.013 220.684 107.991L220.694 109.968C220.479 110.032 220.229 110.09 219.942 110.14C219.663 110.19 219.341 110.215 218.976 110.215C218.381 110.215 217.855 110.111 217.396 109.903C216.938 109.688 216.58 109.341 216.322 108.861C216.064 108.382 215.936 107.744 215.936 106.949V95.5303ZM229.148 107.669V102.126C229.148 101.711 229.073 101.353 228.923 101.052C228.772 100.751 228.543 100.518 228.235 100.354C227.935 100.189 227.555 100.106 227.097 100.106C226.674 100.106 226.309 100.178 226.001 100.321C225.693 100.465 225.453 100.658 225.281 100.901C225.109 101.145 225.023 101.421 225.023 101.729H222.445C222.445 101.27 222.556 100.826 222.778 100.396C223 99.9668 223.323 99.5837 223.745 99.2471C224.168 98.9105 224.673 98.6455 225.26 98.4521C225.847 98.2588 226.506 98.1621 227.236 98.1621C228.11 98.1621 228.883 98.3089 229.557 98.6025C230.237 98.8962 230.771 99.3402 231.157 99.9346C231.551 100.522 231.748 101.259 231.748 102.147V107.314C231.748 107.844 231.784 108.321 231.855 108.743C231.934 109.159 232.045 109.52 232.188 109.828V110H229.535C229.413 109.721 229.317 109.366 229.245 108.937C229.181 108.5 229.148 108.077 229.148 107.669ZM229.524 102.932L229.546 104.532H227.688C227.208 104.532 226.785 104.579 226.42 104.672C226.055 104.758 225.75 104.887 225.507 105.059C225.263 105.23 225.081 105.438 224.959 105.682C224.837 105.925 224.776 106.201 224.776 106.509C224.776 106.817 224.848 107.1 224.991 107.357C225.134 107.608 225.342 107.805 225.614 107.948C225.894 108.091 226.23 108.163 226.624 108.163C227.154 108.163 227.616 108.056 228.01 107.841C228.411 107.619 228.726 107.35 228.955 107.035C229.184 106.713 229.306 106.409 229.32 106.122L230.158 107.271C230.072 107.565 229.925 107.88 229.718 108.217C229.51 108.553 229.238 108.876 228.901 109.184C228.572 109.484 228.174 109.731 227.709 109.925C227.251 110.118 226.721 110.215 226.119 110.215C225.36 110.215 224.683 110.064 224.089 109.764C223.494 109.456 223.029 109.044 222.692 108.528C222.356 108.006 222.188 107.415 222.188 106.756C222.188 106.14 222.302 105.596 222.531 105.123C222.768 104.643 223.111 104.242 223.562 103.92C224.021 103.598 224.579 103.354 225.238 103.189C225.897 103.018 226.649 102.932 227.494 102.932H229.524ZM241.008 107.669V102.126C241.008 101.711 240.933 101.353 240.782 101.052C240.632 100.751 240.403 100.518 240.095 100.354C239.794 100.189 239.414 100.106 238.956 100.106C238.534 100.106 238.168 100.178 237.86 100.321C237.552 100.465 237.312 100.658 237.141 100.901C236.969 101.145 236.883 101.421 236.883 101.729H234.305C234.305 101.27 234.416 100.826 234.638 100.396C234.86 99.9668 235.182 99.5837 235.604 99.2471C236.027 98.9105 236.532 98.6455 237.119 98.4521C237.706 98.2588 238.365 98.1621 239.096 98.1621C239.969 98.1621 240.743 98.3089 241.416 98.6025C242.096 98.8962 242.63 99.3402 243.017 99.9346C243.41 100.522 243.607 101.259 243.607 102.147V107.314C243.607 107.844 243.643 108.321 243.715 108.743C243.794 109.159 243.905 109.52 244.048 109.828V110H241.395C241.273 109.721 241.176 109.366 241.104 108.937C241.04 108.5 241.008 108.077 241.008 107.669ZM241.384 102.932L241.405 104.532H239.547C239.067 104.532 238.645 104.579 238.279 104.672C237.914 104.758 237.61 104.887 237.366 105.059C237.123 105.23 236.94 105.438 236.818 105.682C236.697 105.925 236.636 106.201 236.636 106.509C236.636 106.817 236.707 107.1 236.851 107.357C236.994 107.608 237.201 107.805 237.474 107.948C237.753 108.091 238.09 108.163 238.483 108.163C239.013 108.163 239.475 108.056 239.869 107.841C240.27 107.619 240.585 107.35 240.814 107.035C241.044 106.713 241.165 106.409 241.18 106.122L242.018 107.271C241.932 107.565 241.785 107.88 241.577 108.217C241.369 108.553 241.097 108.876 240.761 109.184C240.431 109.484 240.034 109.731 239.568 109.925C239.11 110.118 238.58 110.215 237.979 110.215C237.219 110.215 236.543 110.064 235.948 109.764C235.354 109.456 234.888 109.044 234.552 108.528C234.215 108.006 234.047 107.415 234.047 106.756C234.047 106.14 234.161 105.596 234.391 105.123C234.627 104.643 234.971 104.242 235.422 103.92C235.88 103.598 236.439 103.354 237.098 103.189C237.757 103.018 238.508 102.932 239.354 102.932H241.384ZM249.086 93.5V110H246.486V93.5H249.086ZM263.953 107.669V102.126C263.953 101.711 263.878 101.353 263.728 101.052C263.577 100.751 263.348 100.518 263.04 100.354C262.739 100.189 262.36 100.106 261.901 100.106C261.479 100.106 261.114 100.178 260.806 100.321C260.498 100.465 260.258 100.658 260.086 100.901C259.914 101.145 259.828 101.421 259.828 101.729H257.25C257.25 101.27 257.361 100.826 257.583 100.396C257.805 99.9668 258.127 99.5837 258.55 99.2471C258.972 98.9105 259.477 98.6455 260.064 98.4521C260.652 98.2588 261.311 98.1621 262.041 98.1621C262.915 98.1621 263.688 98.3089 264.361 98.6025C265.042 98.8962 265.575 99.3402 265.962 99.9346C266.356 100.522 266.553 101.259 266.553 102.147V107.314C266.553 107.844 266.589 108.321 266.66 108.743C266.739 109.159 266.85 109.52 266.993 109.828V110H264.34C264.218 109.721 264.121 109.366 264.05 108.937C263.985 108.5 263.953 108.077 263.953 107.669ZM264.329 102.932L264.351 104.532H262.492C262.012 104.532 261.59 104.579 261.225 104.672C260.859 104.758 260.555 104.887 260.312 105.059C260.068 105.23 259.885 105.438 259.764 105.682C259.642 105.925 259.581 106.201 259.581 106.509C259.581 106.817 259.653 107.1 259.796 107.357C259.939 107.608 260.147 107.805 260.419 107.948C260.698 108.091 261.035 108.163 261.429 108.163C261.959 108.163 262.421 108.056 262.814 107.841C263.215 107.619 263.531 107.35 263.76 107.035C263.989 106.713 264.111 106.409 264.125 106.122L264.963 107.271C264.877 107.565 264.73 107.88 264.522 108.217C264.315 108.553 264.043 108.876 263.706 109.184C263.377 109.484 262.979 109.731 262.514 109.925C262.055 110.118 261.525 110.215 260.924 110.215C260.165 110.215 259.488 110.064 258.894 109.764C258.299 109.456 257.834 109.044 257.497 108.528C257.16 108.006 256.992 107.415 256.992 106.756C256.992 106.14 257.107 105.596 257.336 105.123C257.572 104.643 257.916 104.242 258.367 103.92C258.826 103.598 259.384 103.354 260.043 103.189C260.702 103.018 261.454 102.932 262.299 102.932H264.329ZM272.031 98.377V110H269.432V98.377H272.031ZM269.26 95.3262C269.26 94.9323 269.389 94.6064 269.646 94.3486C269.911 94.0837 270.277 93.9512 270.742 93.9512C271.201 93.9512 271.562 94.0837 271.827 94.3486C272.092 94.6064 272.225 94.9323 272.225 95.3262C272.225 95.7129 272.092 96.0352 271.827 96.293C271.562 96.5508 271.201 96.6797 270.742 96.6797C270.277 96.6797 269.911 96.5508 269.646 96.293C269.389 96.0352 269.26 95.7129 269.26 95.3262ZM280.195 98.377V100.268H273.643V98.377H280.195ZM275.533 95.5303H278.122V106.788C278.122 107.146 278.172 107.422 278.272 107.615C278.38 107.801 278.527 107.927 278.713 107.991C278.899 108.056 279.118 108.088 279.368 108.088C279.547 108.088 279.719 108.077 279.884 108.056C280.049 108.034 280.181 108.013 280.281 107.991L280.292 109.968C280.077 110.032 279.826 110.09 279.54 110.14C279.261 110.19 278.938 110.215 278.573 110.215C277.979 110.215 277.452 110.111 276.994 109.903C276.536 109.688 276.178 109.341 275.92 108.861C275.662 108.382 275.533 107.744 275.533 106.949V95.5303ZM288.746 107.669V102.126C288.746 101.711 288.671 101.353 288.521 101.052C288.37 100.751 288.141 100.518 287.833 100.354C287.532 100.189 287.153 100.106 286.694 100.106C286.272 100.106 285.907 100.178 285.599 100.321C285.291 100.465 285.051 100.658 284.879 100.901C284.707 101.145 284.621 101.421 284.621 101.729H282.043C282.043 101.27 282.154 100.826 282.376 100.396C282.598 99.9668 282.92 99.5837 283.343 99.2471C283.765 98.9105 284.27 98.6455 284.857 98.4521C285.445 98.2588 286.104 98.1621 286.834 98.1621C287.708 98.1621 288.481 98.3089 289.154 98.6025C289.835 98.8962 290.368 99.3402 290.755 99.9346C291.149 100.522 291.346 101.259 291.346 102.147V107.314C291.346 107.844 291.382 108.321 291.453 108.743C291.532 109.159 291.643 109.52 291.786 109.828V110H289.133C289.011 109.721 288.914 109.366 288.843 108.937C288.778 108.5 288.746 108.077 288.746 107.669ZM289.122 102.932L289.144 104.532H287.285C286.805 104.532 286.383 104.579 286.018 104.672C285.652 104.758 285.348 104.887 285.104 105.059C284.861 105.23 284.678 105.438 284.557 105.682C284.435 105.925 284.374 106.201 284.374 106.509C284.374 106.817 284.446 107.1 284.589 107.357C284.732 107.608 284.94 107.805 285.212 107.948C285.491 108.091 285.828 108.163 286.222 108.163C286.752 108.163 287.214 108.056 287.607 107.841C288.008 107.619 288.324 107.35 288.553 107.035C288.782 106.713 288.904 106.409 288.918 106.122L289.756 107.271C289.67 107.565 289.523 107.88 289.315 108.217C289.108 108.553 288.836 108.876 288.499 109.184C288.17 109.484 287.772 109.731 287.307 109.925C286.848 110.118 286.318 110.215 285.717 110.215C284.958 110.215 284.281 110.064 283.687 109.764C283.092 109.456 282.627 109.044 282.29 108.528C281.953 108.006 281.785 107.415 281.785 106.756C281.785 106.14 281.9 105.596 282.129 105.123C282.365 104.643 282.709 104.242 283.16 103.92C283.618 103.598 284.177 103.354 284.836 103.189C285.495 103.018 286.247 102.932 287.092 102.932H289.122ZM294.063 93.5H296.652V107.519L296.405 110H294.063V93.5ZM304.236 104.081V104.307C304.236 105.166 304.14 105.957 303.946 106.681C303.76 107.397 303.474 108.02 303.087 108.55C302.707 109.08 302.235 109.492 301.669 109.785C301.11 110.072 300.462 110.215 299.725 110.215C299.001 110.215 298.371 110.079 297.834 109.807C297.297 109.535 296.846 109.148 296.48 108.646C296.122 108.145 295.832 107.547 295.61 106.853C295.388 106.158 295.231 105.392 295.138 104.554V103.834C295.231 102.989 295.388 102.223 295.61 101.535C295.832 100.84 296.122 100.243 296.48 99.7412C296.846 99.2327 297.293 98.8424 297.823 98.5703C298.36 98.2982 298.987 98.1621 299.703 98.1621C300.448 98.1621 301.103 98.3053 301.669 98.5918C302.242 98.8783 302.718 99.2865 303.098 99.8164C303.477 100.339 303.76 100.962 303.946 101.686C304.14 102.409 304.236 103.207 304.236 104.081ZM301.647 104.307V104.081C301.647 103.558 301.604 103.068 301.519 102.609C301.433 102.144 301.289 101.736 301.089 101.385C300.896 101.034 300.631 100.758 300.294 100.558C299.965 100.35 299.553 100.246 299.059 100.246C298.6 100.246 298.206 100.325 297.877 100.482C297.548 100.64 297.272 100.855 297.05 101.127C296.828 101.399 296.652 101.714 296.523 102.072C296.402 102.43 296.319 102.817 296.276 103.232V105.177C296.341 105.714 296.477 106.208 296.685 106.659C296.899 107.103 297.2 107.461 297.587 107.733C297.974 107.998 298.471 108.131 299.08 108.131C299.56 108.131 299.965 108.034 300.294 107.841C300.623 107.647 300.885 107.379 301.078 107.035C301.279 106.684 301.422 106.276 301.508 105.811C301.601 105.345 301.647 104.844 301.647 104.307ZM24.6602 126.377V128.268H18.1074V126.377H24.6602ZM19.998 123.53H22.5869V134.788C22.5869 135.146 22.637 135.422 22.7373 135.615C22.8447 135.801 22.9915 135.927 23.1777 135.991C23.3639 136.056 23.5824 136.088 23.833 136.088C24.012 136.088 24.1839 136.077 24.3486 136.056C24.5133 136.034 24.6458 136.013 24.7461 135.991L24.7568 137.968C24.542 138.032 24.2913 138.09 24.0049 138.14C23.7256 138.19 23.4033 138.215 23.0381 138.215C22.4437 138.215 21.9173 138.111 21.459 137.903C21.0007 137.688 20.6426 137.341 20.3848 136.861C20.127 136.382 19.998 135.744 19.998 134.949V123.53ZM31.7822 138.215C30.9229 138.215 30.1458 138.075 29.4512 137.796C28.7637 137.509 28.1764 137.112 27.6895 136.604C27.2096 136.095 26.8408 135.497 26.583 134.81C26.3252 134.122 26.1963 133.381 26.1963 132.586V132.156C26.1963 131.247 26.3288 130.423 26.5938 129.686C26.8587 128.948 27.2275 128.318 27.7002 127.795C28.1729 127.265 28.7314 126.86 29.376 126.581C30.0205 126.302 30.7188 126.162 31.4707 126.162C32.3014 126.162 33.0283 126.302 33.6514 126.581C34.2744 126.86 34.79 127.254 35.1982 127.763C35.6136 128.264 35.9215 128.862 36.1221 129.557C36.3298 130.251 36.4336 131.018 36.4336 131.855V132.962H27.4531V131.104H33.877V130.899C33.8626 130.434 33.7695 129.997 33.5977 129.589C33.4329 129.181 33.1787 128.851 32.835 128.601C32.4912 128.35 32.0329 128.225 31.46 128.225C31.0303 128.225 30.6471 128.318 30.3105 128.504C29.9811 128.683 29.7054 128.944 29.4834 129.288C29.2614 129.632 29.0895 130.047 28.9678 130.534C28.8532 131.014 28.7959 131.555 28.7959 132.156V132.586C28.7959 133.094 28.8639 133.567 29 134.004C29.1432 134.434 29.3509 134.81 29.623 135.132C29.8952 135.454 30.2246 135.708 30.6113 135.895C30.998 136.074 31.4385 136.163 31.9326 136.163C32.5557 136.163 33.1107 136.038 33.5977 135.787C34.0846 135.536 34.5072 135.182 34.8652 134.724L36.2295 136.045C35.9788 136.41 35.653 136.761 35.252 137.098C34.8509 137.427 34.3604 137.696 33.7803 137.903C33.2074 138.111 32.5413 138.215 31.7822 138.215ZM41.0098 121.5V138H38.4316V121.5H41.0098ZM40.5586 131.759L39.7207 131.748C39.7279 130.946 39.8389 130.205 40.0537 129.524C40.2757 128.844 40.5837 128.253 40.9775 127.752C41.3786 127.243 41.8584 126.853 42.417 126.581C42.9756 126.302 43.5951 126.162 44.2754 126.162C44.8483 126.162 45.3639 126.241 45.8223 126.398C46.2878 126.556 46.6888 126.81 47.0254 127.161C47.362 127.505 47.6162 127.956 47.7881 128.515C47.9671 129.066 48.0566 129.739 48.0566 130.534V138H45.457V130.513C45.457 129.954 45.3747 129.51 45.21 129.181C45.0524 128.851 44.8197 128.615 44.5117 128.472C44.2038 128.321 43.8278 128.246 43.3838 128.246C42.9183 128.246 42.5065 128.339 42.1484 128.525C41.7975 128.712 41.5039 128.966 41.2676 129.288C41.0312 129.61 40.8522 129.983 40.7305 130.405C40.6159 130.828 40.5586 131.279 40.5586 131.759ZM57.2305 135.669V130.126C57.2305 129.711 57.1553 129.353 57.0049 129.052C56.8545 128.751 56.6253 128.518 56.3174 128.354C56.0166 128.189 55.637 128.106 55.1787 128.106C54.7562 128.106 54.391 128.178 54.083 128.321C53.7751 128.465 53.5352 128.658 53.3633 128.901C53.1914 129.145 53.1055 129.421 53.1055 129.729H50.5273C50.5273 129.27 50.6383 128.826 50.8604 128.396C51.0824 127.967 51.4046 127.584 51.8271 127.247C52.2497 126.91 52.7546 126.646 53.3418 126.452C53.929 126.259 54.5879 126.162 55.3184 126.162C56.1921 126.162 56.9655 126.309 57.6387 126.603C58.319 126.896 58.8525 127.34 59.2393 127.935C59.6331 128.522 59.8301 129.259 59.8301 130.147V135.314C59.8301 135.844 59.8659 136.321 59.9375 136.743C60.0163 137.159 60.1273 137.52 60.2705 137.828V138H57.6172C57.4954 137.721 57.3988 137.366 57.3271 136.937C57.2627 136.5 57.2305 136.077 57.2305 135.669ZM57.6064 130.932L57.6279 132.532H55.7695C55.2897 132.532 54.8672 132.579 54.502 132.672C54.1367 132.758 53.8324 132.887 53.5889 133.059C53.3454 133.23 53.1628 133.438 53.041 133.682C52.9193 133.925 52.8584 134.201 52.8584 134.509C52.8584 134.817 52.93 135.1 53.0732 135.357C53.2165 135.608 53.4242 135.805 53.6963 135.948C53.9756 136.091 54.3122 136.163 54.7061 136.163C55.236 136.163 55.6979 136.056 56.0918 135.841C56.4928 135.619 56.8079 135.35 57.0371 135.035C57.2663 134.713 57.388 134.409 57.4023 134.122L58.2402 135.271C58.1543 135.565 58.0075 135.88 57.7998 136.217C57.5921 136.553 57.32 136.876 56.9834 137.184C56.654 137.484 56.2565 137.731 55.791 137.925C55.3327 138.118 54.8027 138.215 54.2012 138.215C53.4421 138.215 52.7653 138.064 52.1709 137.764C51.5765 137.456 51.111 137.044 50.7744 136.528C50.4378 136.006 50.2695 135.415 50.2695 134.756C50.2695 134.14 50.3841 133.596 50.6133 133.123C50.8496 132.643 51.1934 132.242 51.6445 131.92C52.1029 131.598 52.6615 131.354 53.3203 131.189C53.9792 131.018 54.7311 130.932 55.5762 130.932H57.6064ZM74.5361 134.853C74.5361 134.595 74.4717 134.362 74.3428 134.154C74.2139 133.939 73.9668 133.746 73.6016 133.574C73.2435 133.402 72.7135 133.245 72.0117 133.102C71.3958 132.965 70.8301 132.804 70.3145 132.618C69.806 132.425 69.3691 132.192 69.0039 131.92C68.6387 131.648 68.3558 131.326 68.1553 130.953C67.9548 130.581 67.8545 130.151 67.8545 129.664C67.8545 129.191 67.9583 128.744 68.166 128.321C68.3737 127.899 68.6709 127.526 69.0576 127.204C69.4443 126.882 69.9134 126.628 70.4648 126.441C71.0234 126.255 71.6465 126.162 72.334 126.162C73.3079 126.162 74.1423 126.327 74.8369 126.656C75.5387 126.979 76.0758 127.419 76.4482 127.978C76.8206 128.529 77.0068 129.152 77.0068 129.847H74.418C74.418 129.539 74.3392 129.252 74.1816 128.987C74.0312 128.715 73.8021 128.497 73.4941 128.332C73.1862 128.16 72.7995 128.074 72.334 128.074C71.89 128.074 71.5212 128.146 71.2275 128.289C70.9411 128.425 70.7262 128.604 70.583 128.826C70.4469 129.048 70.3789 129.292 70.3789 129.557C70.3789 129.75 70.4147 129.925 70.4863 130.083C70.5651 130.233 70.694 130.373 70.873 130.502C71.0521 130.624 71.2956 130.738 71.6035 130.846C71.9186 130.953 72.3125 131.057 72.7852 131.157C73.6732 131.343 74.4359 131.583 75.0732 131.877C75.7178 132.163 76.2119 132.536 76.5557 132.994C76.8994 133.445 77.0713 134.018 77.0713 134.713C77.0713 135.229 76.9603 135.701 76.7383 136.131C76.5234 136.553 76.2083 136.922 75.793 137.237C75.3776 137.545 74.8799 137.785 74.2998 137.957C73.7269 138.129 73.0824 138.215 72.3662 138.215C71.3135 138.215 70.4219 138.029 69.6914 137.656C68.9609 137.277 68.4059 136.793 68.0264 136.206C67.654 135.612 67.4678 134.996 67.4678 134.358H69.9707C69.9993 134.838 70.1318 135.221 70.3682 135.508C70.6117 135.787 70.9124 135.991 71.2705 136.12C71.6357 136.242 72.0117 136.303 72.3984 136.303C72.8639 136.303 73.2542 136.242 73.5693 136.12C73.8844 135.991 74.1243 135.819 74.2891 135.604C74.4538 135.382 74.5361 135.132 74.5361 134.853ZM84.666 126.377V128.268H78.1133V126.377H84.666ZM80.0039 123.53H82.5928V134.788C82.5928 135.146 82.6429 135.422 82.7432 135.615C82.8506 135.801 82.9974 135.927 83.1836 135.991C83.3698 136.056 83.5882 136.088 83.8389 136.088C84.0179 136.088 84.1898 136.077 84.3545 136.056C84.5192 136.034 84.6517 136.013 84.752 135.991L84.7627 137.968C84.5479 138.032 84.2972 138.09 84.0107 138.14C83.7314 138.19 83.4092 138.215 83.0439 138.215C82.4495 138.215 81.9232 138.111 81.4648 137.903C81.0065 137.688 80.6484 137.341 80.3906 136.861C80.1328 136.382 80.0039 135.744 80.0039 134.949V123.53ZM89.4355 126.377V138H86.8359V126.377H89.4355ZM86.6641 123.326C86.6641 122.932 86.793 122.606 87.0508 122.349C87.3158 122.084 87.681 121.951 88.1465 121.951C88.6048 121.951 88.9665 122.084 89.2314 122.349C89.4964 122.606 89.6289 122.932 89.6289 123.326C89.6289 123.713 89.4964 124.035 89.2314 124.293C88.9665 124.551 88.6048 124.68 88.1465 124.68C87.681 124.68 87.3158 124.551 87.0508 124.293C86.793 124.035 86.6641 123.713 86.6641 123.326ZM95.043 126.377V138H92.4434V126.377H95.043ZM92.2715 123.326C92.2715 122.932 92.4004 122.606 92.6582 122.349C92.9232 122.084 93.2884 121.951 93.7539 121.951C94.2122 121.951 94.5739 122.084 94.8389 122.349C95.1038 122.606 95.2363 122.932 95.2363 123.326C95.2363 123.713 95.1038 124.035 94.8389 124.293C94.5739 124.551 94.2122 124.68 93.7539 124.68C93.2884 124.68 92.9232 124.551 92.6582 124.293C92.4004 124.035 92.2715 123.713 92.2715 123.326ZM100.65 121.5V138H98.0508V121.5H100.65ZM110.007 134.853C110.007 134.595 109.942 134.362 109.813 134.154C109.685 133.939 109.438 133.746 109.072 133.574C108.714 133.402 108.184 133.245 107.482 133.102C106.867 132.965 106.301 132.804 105.785 132.618C105.277 132.425 104.84 132.192 104.475 131.92C104.109 131.648 103.826 131.326 103.626 130.953C103.425 130.581 103.325 130.151 103.325 129.664C103.325 129.191 103.429 128.744 103.637 128.321C103.844 127.899 104.142 127.526 104.528 127.204C104.915 126.882 105.384 126.628 105.936 126.441C106.494 126.255 107.117 126.162 107.805 126.162C108.779 126.162 109.613 126.327 110.308 126.656C111.009 126.979 111.547 127.419 111.919 127.978C112.291 128.529 112.478 129.152 112.478 129.847H109.889C109.889 129.539 109.81 129.252 109.652 128.987C109.502 128.715 109.273 128.497 108.965 128.332C108.657 128.16 108.27 128.074 107.805 128.074C107.361 128.074 106.992 128.146 106.698 128.289C106.412 128.425 106.197 128.604 106.054 128.826C105.918 129.048 105.85 129.292 105.85 129.557C105.85 129.75 105.885 129.925 105.957 130.083C106.036 130.233 106.165 130.373 106.344 130.502C106.523 130.624 106.766 130.738 107.074 130.846C107.389 130.953 107.783 131.057 108.256 131.157C109.144 131.343 109.907 131.583 110.544 131.877C111.188 132.163 111.683 132.536 112.026 132.994C112.37 133.445 112.542 134.018 112.542 134.713C112.542 135.229 112.431 135.701 112.209 136.131C111.994 136.553 111.679 136.922 111.264 137.237C110.848 137.545 110.351 137.785 109.771 137.957C109.198 138.129 108.553 138.215 107.837 138.215C106.784 138.215 105.893 138.029 105.162 137.656C104.432 137.277 103.877 136.793 103.497 136.206C103.125 135.612 102.938 134.996 102.938 134.358H105.441C105.47 134.838 105.603 135.221 105.839 135.508C106.082 135.787 106.383 135.991 106.741 136.12C107.106 136.242 107.482 136.303 107.869 136.303C108.335 136.303 108.725 136.242 109.04 136.12C109.355 135.991 109.595 135.819 109.76 135.604C109.924 135.382 110.007 135.132 110.007 134.853ZM119.933 138.215C119.073 138.215 118.296 138.075 117.602 137.796C116.914 137.509 116.327 137.112 115.84 136.604C115.36 136.095 114.991 135.497 114.733 134.81C114.476 134.122 114.347 133.381 114.347 132.586V132.156C114.347 131.247 114.479 130.423 114.744 129.686C115.009 128.948 115.378 128.318 115.851 127.795C116.323 127.265 116.882 126.86 117.526 126.581C118.171 126.302 118.869 126.162 119.621 126.162C120.452 126.162 121.179 126.302 121.802 126.581C122.425 126.86 122.94 127.254 123.349 127.763C123.764 128.264 124.072 128.862 124.272 129.557C124.48 130.251 124.584 131.018 124.584 131.855V132.962H115.604V131.104H122.027V130.899C122.013 130.434 121.92 129.997 121.748 129.589C121.583 129.181 121.329 128.851 120.985 128.601C120.642 128.35 120.183 128.225 119.61 128.225C119.181 128.225 118.798 128.318 118.461 128.504C118.132 128.683 117.856 128.944 117.634 129.288C117.412 129.632 117.24 130.047 117.118 130.534C117.004 131.014 116.946 131.555 116.946 132.156V132.586C116.946 133.094 117.014 133.567 117.15 134.004C117.294 134.434 117.501 134.81 117.773 135.132C118.046 135.454 118.375 135.708 118.762 135.895C119.148 136.074 119.589 136.163 120.083 136.163C120.706 136.163 121.261 136.038 121.748 135.787C122.235 135.536 122.658 135.182 123.016 134.724L124.38 136.045C124.129 136.41 123.803 136.761 123.402 137.098C123.001 137.427 122.511 137.696 121.931 137.903C121.358 138.111 120.692 138.215 119.933 138.215ZM129.375 126.377V138H126.775V126.377H129.375ZM126.604 123.326C126.604 122.932 126.732 122.606 126.99 122.349C127.255 122.084 127.62 121.951 128.086 121.951C128.544 121.951 128.906 122.084 129.171 122.349C129.436 122.606 129.568 122.932 129.568 123.326C129.568 123.713 129.436 124.035 129.171 124.293C128.906 124.551 128.544 124.68 128.086 124.68C127.62 124.68 127.255 124.551 126.99 124.293C126.732 124.035 126.604 123.713 126.604 123.326ZM139.301 135.594V121.5H141.9V138H139.548L139.301 135.594ZM131.738 132.317V132.092C131.738 131.211 131.842 130.409 132.05 129.686C132.257 128.955 132.558 128.328 132.952 127.806C133.346 127.276 133.826 126.871 134.392 126.592C134.957 126.305 135.595 126.162 136.304 126.162C137.006 126.162 137.621 126.298 138.151 126.57C138.681 126.842 139.132 127.233 139.505 127.741C139.877 128.243 140.174 128.844 140.396 129.546C140.618 130.241 140.776 131.014 140.869 131.866V132.586C140.776 133.417 140.618 134.176 140.396 134.863C140.174 135.551 139.877 136.145 139.505 136.646C139.132 137.148 138.678 137.535 138.141 137.807C137.611 138.079 136.991 138.215 136.282 138.215C135.58 138.215 134.947 138.068 134.381 137.774C133.822 137.481 133.346 137.069 132.952 136.539C132.558 136.009 132.257 135.386 132.05 134.67C131.842 133.947 131.738 133.162 131.738 132.317ZM134.327 132.092V132.317C134.327 132.847 134.374 133.341 134.467 133.8C134.567 134.258 134.721 134.663 134.929 135.014C135.136 135.357 135.405 135.63 135.734 135.83C136.071 136.023 136.472 136.12 136.938 136.12C137.525 136.12 138.008 135.991 138.388 135.733C138.767 135.476 139.064 135.128 139.279 134.691C139.501 134.247 139.652 133.753 139.73 133.209V131.265C139.688 130.842 139.598 130.448 139.462 130.083C139.333 129.718 139.158 129.399 138.936 129.127C138.714 128.848 138.438 128.633 138.108 128.482C137.786 128.325 137.403 128.246 136.959 128.246C136.486 128.246 136.085 128.346 135.756 128.547C135.426 128.747 135.154 129.023 134.939 129.374C134.732 129.725 134.578 130.133 134.478 130.599C134.377 131.064 134.327 131.562 134.327 132.092ZM153.867 135.948L156.714 126.377H159.399L155.36 138H153.685L153.867 135.948ZM151.687 126.377L154.587 135.991L154.727 138H153.051L148.99 126.377H151.687ZM167.381 135.669V130.126C167.381 129.711 167.306 129.353 167.155 129.052C167.005 128.751 166.776 128.518 166.468 128.354C166.167 128.189 165.787 128.106 165.329 128.106C164.907 128.106 164.541 128.178 164.233 128.321C163.925 128.465 163.686 128.658 163.514 128.901C163.342 129.145 163.256 129.421 163.256 129.729H160.678C160.678 129.27 160.789 128.826 161.011 128.396C161.233 127.967 161.555 127.584 161.978 127.247C162.4 126.91 162.905 126.646 163.492 126.452C164.079 126.259 164.738 126.162 165.469 126.162C166.342 126.162 167.116 126.309 167.789 126.603C168.469 126.896 169.003 127.34 169.39 127.935C169.784 128.522 169.98 129.259 169.98 130.147V135.314C169.98 135.844 170.016 136.321 170.088 136.743C170.167 137.159 170.278 137.52 170.421 137.828V138H167.768C167.646 137.721 167.549 137.366 167.478 136.937C167.413 136.5 167.381 136.077 167.381 135.669ZM167.757 130.932L167.778 132.532H165.92C165.44 132.532 165.018 132.579 164.652 132.672C164.287 132.758 163.983 132.887 163.739 133.059C163.496 133.23 163.313 133.438 163.191 133.682C163.07 133.925 163.009 134.201 163.009 134.509C163.009 134.817 163.08 135.1 163.224 135.357C163.367 135.608 163.575 135.805 163.847 135.948C164.126 136.091 164.463 136.163 164.856 136.163C165.386 136.163 165.848 136.056 166.242 135.841C166.643 135.619 166.958 135.35 167.188 135.035C167.417 134.713 167.538 134.409 167.553 134.122L168.391 135.271C168.305 135.565 168.158 135.88 167.95 136.217C167.743 136.553 167.47 136.876 167.134 137.184C166.804 137.484 166.407 137.731 165.941 137.925C165.483 138.118 164.953 138.215 164.352 138.215C163.592 138.215 162.916 138.064 162.321 137.764C161.727 137.456 161.261 137.044 160.925 136.528C160.588 136.006 160.42 135.415 160.42 134.756C160.42 134.14 160.535 133.596 160.764 133.123C161 132.643 161.344 132.242 161.795 131.92C162.253 131.598 162.812 131.354 163.471 131.189C164.13 131.018 164.882 130.932 165.727 130.932H167.757ZM175.459 121.5V138H172.859V121.5H175.459ZM181.066 126.377V138H178.467V126.377H181.066ZM178.295 123.326C178.295 122.932 178.424 122.606 178.682 122.349C178.947 122.084 179.312 121.951 179.777 121.951C180.236 121.951 180.597 122.084 180.862 122.349C181.127 122.606 181.26 122.932 181.26 123.326C181.26 123.713 181.127 124.035 180.862 124.293C180.597 124.551 180.236 124.68 179.777 124.68C179.312 124.68 178.947 124.551 178.682 124.293C178.424 124.035 178.295 123.713 178.295 123.326ZM186.513 121.5V138H183.913V121.5H186.513ZM193.731 126.377L188.672 131.984L185.9 134.82L185.224 132.629L187.318 130.04L190.605 126.377H193.731ZM191.164 138L187.394 132.543L189.026 130.728L194.161 138H191.164ZM202.368 135.261V126.377H204.968V138H202.519L202.368 135.261ZM202.733 132.844L203.604 132.822C203.604 133.603 203.518 134.323 203.346 134.981C203.174 135.633 202.909 136.202 202.551 136.689C202.193 137.169 201.734 137.545 201.176 137.817C200.617 138.082 199.948 138.215 199.167 138.215C198.601 138.215 198.082 138.132 197.609 137.968C197.137 137.803 196.729 137.549 196.385 137.205C196.048 136.861 195.787 136.414 195.601 135.862C195.414 135.311 195.321 134.652 195.321 133.886V126.377H197.91V133.907C197.91 134.33 197.96 134.684 198.061 134.971C198.161 135.25 198.297 135.476 198.469 135.647C198.641 135.819 198.841 135.941 199.07 136.013C199.299 136.084 199.543 136.12 199.801 136.12C200.538 136.12 201.118 135.977 201.541 135.69C201.971 135.397 202.275 135.003 202.454 134.509C202.64 134.015 202.733 133.46 202.733 132.844ZM210.393 126.377V138H207.793V126.377H210.393ZM207.621 123.326C207.621 122.932 207.75 122.606 208.008 122.349C208.273 122.084 208.638 121.951 209.104 121.951C209.562 121.951 209.924 122.084 210.188 122.349C210.453 122.606 210.586 122.932 210.586 123.326C210.586 123.713 210.453 124.035 210.188 124.293C209.924 124.551 209.562 124.68 209.104 124.68C208.638 124.68 208.273 124.551 208.008 124.293C207.75 124.035 207.621 123.713 207.621 123.326ZM220.318 135.594V121.5H222.918V138H220.565L220.318 135.594ZM212.756 132.317V132.092C212.756 131.211 212.86 130.409 213.067 129.686C213.275 128.955 213.576 128.328 213.97 127.806C214.364 127.276 214.843 126.871 215.409 126.592C215.975 126.305 216.612 126.162 217.321 126.162C218.023 126.162 218.639 126.298 219.169 126.57C219.699 126.842 220.15 127.233 220.522 127.741C220.895 128.243 221.192 128.844 221.414 129.546C221.636 130.241 221.794 131.014 221.887 131.866V132.586C221.794 133.417 221.636 134.176 221.414 134.863C221.192 135.551 220.895 136.145 220.522 136.646C220.15 137.148 219.695 137.535 219.158 137.807C218.628 138.079 218.009 138.215 217.3 138.215C216.598 138.215 215.964 138.068 215.398 137.774C214.84 137.481 214.364 137.069 213.97 136.539C213.576 136.009 213.275 135.386 213.067 134.67C212.86 133.947 212.756 133.162 212.756 132.317ZM215.345 132.092V132.317C215.345 132.847 215.391 133.341 215.484 133.8C215.585 134.258 215.739 134.663 215.946 135.014C216.154 135.357 216.423 135.63 216.752 135.83C217.089 136.023 217.49 136.12 217.955 136.12C218.542 136.12 219.026 135.991 219.405 135.733C219.785 135.476 220.082 135.128 220.297 134.691C220.519 134.247 220.669 133.753 220.748 133.209V131.265C220.705 130.842 220.616 130.448 220.479 130.083C220.351 129.718 220.175 129.399 219.953 129.127C219.731 128.848 219.455 128.633 219.126 128.482C218.804 128.325 218.421 128.246 217.977 128.246C217.504 128.246 217.103 128.346 216.773 128.547C216.444 128.747 216.172 129.023 215.957 129.374C215.749 129.725 215.595 130.133 215.495 130.599C215.395 131.064 215.345 131.562 215.345 132.092ZM225.732 136.711C225.732 136.31 225.868 135.973 226.141 135.701C226.413 135.422 226.782 135.282 227.247 135.282C227.72 135.282 228.089 135.422 228.354 135.701C228.626 135.973 228.762 136.31 228.762 136.711C228.762 137.112 228.626 137.449 228.354 137.721C228.089 137.993 227.72 138.129 227.247 138.129C226.782 138.129 226.413 137.993 226.141 137.721C225.868 137.449 225.732 137.112 225.732 136.711Z" fill="#461102"/>
<path d="M28.384 189.772C30.4373 189.772 32.212 190.153 33.708 190.916C35.204 191.649 36.3333 192.661 37.096 193.952C37.888 195.213 38.284 196.621 38.284 198.176C38.284 199.789 37.932 201.344 37.228 202.84C36.5533 204.336 35.38 206.023 33.708 207.9C32.0653 209.777 29.66 212.197 26.492 215.16H38.944L38.24 220H19.364V215.468C23.06 211.772 25.7293 209.015 27.372 207.196C29.0147 205.377 30.1733 203.837 30.848 202.576C31.5227 201.315 31.86 200.024 31.86 198.704C31.86 197.443 31.4933 196.445 30.76 195.712C30.0267 194.979 29.044 194.612 27.812 194.612C26.7267 194.612 25.7587 194.861 24.908 195.36C24.0573 195.829 23.1627 196.621 22.224 197.736L18.484 194.744C21.0067 191.429 24.3067 189.772 28.384 189.772ZM61.9938 210.188C62.4045 212.212 63.1525 213.693 64.2378 214.632C65.3525 215.571 66.8338 216.04 68.6818 216.04C70.6471 216.04 72.7591 215.424 75.0178 214.192V219.032C73.8151 219.589 72.6711 220 71.5858 220.264C70.5005 220.557 69.3125 220.704 68.0218 220.704C64.7071 220.704 61.9791 219.795 59.8378 217.976C57.7258 216.128 56.3325 213.532 55.6578 210.188H51.8298L52.7098 206.8H55.4818V203.5H51.8298L52.7098 200.068H55.7018C56.5231 196.871 58.0485 194.363 60.2778 192.544C62.5365 190.696 65.1911 189.772 68.2418 189.772C71.2925 189.772 74.0498 190.608 76.5138 192.28L74.2698 196.152C73.3311 195.536 72.4071 195.096 71.4978 194.832C70.5885 194.539 69.5765 194.392 68.4618 194.392C66.9365 194.392 65.6311 194.861 64.5458 195.8C63.4605 196.739 62.6538 198.161 62.1258 200.068H72.9058L72.0258 203.5H61.8178V206.8H71.3218L70.4858 210.188H61.9938Z" fill="#E3000F"/>
<path d="M95.5889 209.672V211.5H86.9229V209.936L91.0801 205.444C91.5137 204.952 91.8564 204.524 92.1084 204.161C92.3604 203.798 92.5391 203.47 92.6445 203.177C92.7559 202.878 92.8115 202.594 92.8115 202.324C92.8115 201.932 92.7412 201.589 92.6006 201.296C92.46 200.997 92.2549 200.766 91.9854 200.602C91.7217 200.438 91.3965 200.355 91.0098 200.355C90.582 200.355 90.2158 200.455 89.9111 200.654C89.6123 200.848 89.3838 201.117 89.2256 201.463C89.0732 201.809 88.9971 202.204 88.9971 202.649H86.668C86.668 201.894 86.8438 201.205 87.1953 200.584C87.5469 199.957 88.0508 199.456 88.707 199.081C89.3633 198.706 90.1426 198.519 91.0449 198.519C91.9238 198.519 92.668 198.665 93.2773 198.958C93.8867 199.245 94.3496 199.655 94.666 200.188C94.9824 200.722 95.1406 201.357 95.1406 202.096C95.1406 202.506 95.0732 202.91 94.9385 203.309C94.8037 203.707 94.6133 204.103 94.3672 204.495C94.127 204.882 93.8398 205.274 93.5059 205.673C93.1719 206.071 92.7998 206.479 92.3896 206.895L89.8936 209.672H95.5889ZM104.132 197.991V211.5H101.812V197.991H104.132ZM110.091 201.99L105.951 206.64L103.71 208.916L102.972 207.114L104.703 204.935L107.287 201.99H110.091ZM107.718 211.5L104.773 207.07L106.32 205.567L110.407 211.5H107.718ZM116.981 209.241V201.99H119.319V211.5H117.122L116.981 209.241ZM117.28 207.272L118.001 207.255C118.001 207.894 117.931 208.482 117.79 209.021C117.649 209.561 117.43 210.029 117.131 210.428C116.838 210.82 116.466 211.128 116.015 211.351C115.563 211.567 115.03 211.676 114.415 211.676C113.946 211.676 113.519 211.611 113.132 211.482C112.745 211.348 112.411 211.14 112.13 210.858C111.854 210.571 111.641 210.205 111.488 209.76C111.336 209.309 111.26 208.767 111.26 208.134V201.99H113.58V208.151C113.58 208.468 113.615 208.731 113.686 208.942C113.762 209.153 113.864 209.326 113.993 209.461C114.128 209.59 114.283 209.684 114.459 209.742C114.641 209.795 114.834 209.821 115.039 209.821C115.602 209.821 116.044 209.71 116.366 209.487C116.694 209.259 116.929 208.954 117.069 208.573C117.21 208.187 117.28 207.753 117.28 207.272ZM127.036 209.241V201.99H129.374V211.5H127.177L127.036 209.241ZM127.335 207.272L128.056 207.255C128.056 207.894 127.985 208.482 127.845 209.021C127.704 209.561 127.484 210.029 127.186 210.428C126.893 210.82 126.521 211.128 126.069 211.351C125.618 211.567 125.085 211.676 124.47 211.676C124.001 211.676 123.573 211.611 123.187 211.482C122.8 211.348 122.466 211.14 122.185 210.858C121.909 210.571 121.695 210.205 121.543 209.76C121.391 209.309 121.314 208.767 121.314 208.134V201.99H123.635V208.151C123.635 208.468 123.67 208.731 123.74 208.942C123.816 209.153 123.919 209.326 124.048 209.461C124.183 209.59 124.338 209.684 124.514 209.742C124.695 209.795 124.889 209.821 125.094 209.821C125.656 209.821 126.099 209.71 126.421 209.487C126.749 209.259 126.983 208.954 127.124 208.573C127.265 208.187 127.335 207.753 127.335 207.272ZM137.135 209.479V198H139.473V211.5H137.363L137.135 209.479ZM131.026 206.859V206.675C131.026 205.948 131.108 205.289 131.272 204.697C131.442 204.1 131.688 203.587 132.011 203.159C132.333 202.731 132.723 202.4 133.18 202.166C133.643 201.932 134.167 201.814 134.753 201.814C135.321 201.814 135.816 201.929 136.238 202.157C136.666 202.386 137.029 202.711 137.328 203.133C137.633 203.555 137.876 204.056 138.058 204.636C138.239 205.21 138.371 205.843 138.453 206.534V207.035C138.371 207.709 138.239 208.327 138.058 208.89C137.876 209.452 137.633 209.944 137.328 210.366C137.029 210.782 136.666 211.104 136.238 211.333C135.811 211.562 135.31 211.676 134.735 211.676C134.155 211.676 133.634 211.556 133.171 211.315C132.714 211.075 132.324 210.738 132.002 210.305C131.686 209.871 131.442 209.361 131.272 208.775C131.108 208.189 131.026 207.551 131.026 206.859ZM133.355 206.675V206.859C133.355 207.27 133.391 207.653 133.461 208.011C133.531 208.368 133.646 208.685 133.804 208.96C133.962 209.229 134.164 209.44 134.41 209.593C134.662 209.745 134.967 209.821 135.324 209.821C135.781 209.821 136.156 209.722 136.449 209.522C136.748 209.317 136.979 209.039 137.144 208.688C137.308 208.33 137.413 207.929 137.46 207.483V206.104C137.437 205.752 137.375 205.427 137.275 205.128C137.182 204.829 137.047 204.571 136.871 204.354C136.701 204.138 136.49 203.968 136.238 203.845C135.986 203.722 135.688 203.66 135.342 203.66C134.984 203.66 134.68 203.739 134.428 203.897C134.176 204.05 133.971 204.264 133.812 204.539C133.654 204.814 133.537 205.134 133.461 205.497C133.391 205.86 133.355 206.253 133.355 206.675Z" fill="#461102"/>
<rect x="164" y="188" width="168" height="34" rx="8.5" fill="#E3000F"/>
<path d="M190.163 199.219L189.891 201.361H186.984V211H184.196V201.361H181.153V199.219H190.163ZM198.511 199.219L198.222 201.208H194.074V204.03H197.695V205.985H194.074V208.994H198.511V211H191.286V199.219H198.511ZM203.022 199.219V208.79H207.612L207.323 211H200.234V199.219H203.022ZM211.738 199.219V208.79H216.328L216.039 211H208.95V199.219H211.738ZM220.454 199.219V211H217.666V199.219H220.454ZM229.961 199.219C231.809 199.219 233.288 199.638 234.398 200.477C235.52 201.304 236.081 202.829 236.081 205.05C236.081 207.237 235.537 208.779 234.449 209.674C233.361 210.558 231.95 211 230.216 211H226.68V199.219H229.961ZM229.468 201.242V208.977H230.386C231.304 208.977 232.001 208.694 232.477 208.127C232.953 207.549 233.191 206.523 233.191 205.05C233.191 204.041 233.072 203.259 232.834 202.704C232.596 202.149 232.273 201.769 231.865 201.565C231.457 201.35 230.953 201.242 230.352 201.242H229.468ZM240.541 199.219V211H237.753V199.219H240.541ZM247.834 198.93C249.353 198.93 250.662 199.412 251.761 200.375L250.35 201.854C249.931 201.537 249.54 201.31 249.177 201.174C248.826 201.027 248.418 200.953 247.953 200.953C247.08 200.953 246.383 201.299 245.862 201.99C245.341 202.67 245.08 203.707 245.08 205.101C245.08 206.608 245.278 207.679 245.675 208.314C246.072 208.937 246.689 209.249 247.528 209.249C248.117 209.249 248.65 209.119 249.126 208.858V206.189H247.596L247.324 204.217H251.829V210.048C251.217 210.445 250.543 210.751 249.806 210.966C249.069 211.181 248.333 211.289 247.596 211.289C245.805 211.289 244.457 210.768 243.55 209.725C242.643 208.671 242.19 207.13 242.19 205.101C242.19 203.809 242.434 202.698 242.921 201.769C243.42 200.84 244.094 200.137 244.944 199.661C245.805 199.174 246.769 198.93 247.834 198.93ZM256.479 199.219V211H253.691V199.219H256.479ZM262.479 199.219C264.032 199.219 265.239 199.542 266.1 200.188C266.962 200.834 267.392 201.792 267.392 203.061C267.392 204.387 266.967 205.39 266.117 206.07C265.279 206.739 264.151 207.073 262.734 207.073H261.459V211H258.671V199.219H262.479ZM262.496 205.067C263.154 205.067 263.652 204.914 263.992 204.608C264.344 204.291 264.519 203.775 264.519 203.061C264.519 201.826 263.828 201.208 262.445 201.208H261.459V205.067H262.496ZM274.057 211L273.445 208.467H270.011L269.416 211H266.526L270.079 199.219H273.462L277.015 211H274.057ZM270.487 206.444H272.969L271.728 201.242L270.487 206.444ZM280.667 199.219V211H277.879V199.219H280.667ZM287.433 199.219L283.676 204.506L287.739 211H284.509L280.752 204.71L284.492 199.219H287.433ZM295.862 199.219L295.573 201.208H291.425V204.03H295.046V205.985H291.425V208.994H295.862V211H288.637V199.219H295.862ZM305.643 199.219L305.371 201.361H302.464V211H299.676V201.361H296.633V199.219H305.643ZM314.824 199.219L314.552 201.361H311.645V211H308.857V201.361H305.814V199.219H314.824Z" fill="#FFE80D"/>
</svg>
