<svg width="350" height="250" viewBox="0 0 350 250" fill="none" xmlns="http://www.w3.org/2000/svg">
<path d="M34.52 40.616C34.52 41.9413 34.24 43.1173 33.68 44.144C33.12 45.1707 32.28 45.9827 31.16 46.58C30.0587 47.1587 28.7147 47.448 27.128 47.448C24.7387 47.448 22.9093 46.832 21.64 45.6C20.3893 44.3493 19.764 42.688 19.764 40.616V27.624H23.88V40.42C23.88 41.7267 24.1413 42.7067 24.664 43.36C25.1867 43.9947 26.008 44.312 27.128 44.312C28.248 44.312 29.0693 43.9947 29.592 43.36C30.1333 42.7067 30.404 41.7267 30.404 40.42V27.624H34.52V40.616ZM50.4323 47H46.9883L46.7923 45.012C46.2696 45.8333 45.635 46.4493 44.8883 46.86C44.1416 47.252 43.2736 47.448 42.2843 47.448C40.9403 47.448 39.9136 47.0467 39.2043 46.244C38.495 45.4227 38.1403 44.284 38.1403 42.828V32.16H42.1163V42.324C42.1163 43.108 42.247 43.668 42.5083 44.004C42.7696 44.3213 43.1803 44.48 43.7403 44.48C44.8043 44.48 45.7096 43.836 46.4563 42.548V32.16H50.4323V47ZM66.9024 39.244C66.9024 39.4307 66.8744 39.944 66.8184 40.784H57.5504C57.6811 42.128 58.0451 43.08 58.6424 43.64C59.2398 44.2 60.0518 44.48 61.0784 44.48C61.7131 44.48 62.3104 44.3773 62.8704 44.172C63.4304 43.9667 64.0371 43.64 64.6904 43.192L66.3424 45.432C64.6811 46.776 62.8051 47.448 60.7144 47.448C58.3811 47.448 56.5891 46.748 55.3384 45.348C54.0878 43.948 53.4624 42.0533 53.4624 39.664C53.4624 38.152 53.7238 36.7987 54.2464 35.604C54.7878 34.3907 55.5624 33.4387 56.5704 32.748C57.5971 32.0573 58.8104 31.712 60.2104 31.712C62.3198 31.712 63.9624 32.3747 65.1384 33.7C66.3144 35.0253 66.9024 36.8733 66.9024 39.244ZM62.9544 38.124C62.9544 35.66 62.0678 34.428 60.2944 34.428C59.4731 34.428 58.8291 34.736 58.3624 35.352C57.9144 35.9493 57.6438 36.9293 57.5504 38.292H62.9544V38.124ZM73.4763 47.448C72.263 47.448 71.3203 47.1027 70.6483 46.412C69.9763 45.7027 69.6403 44.704 69.6403 43.416V26.252L73.6163 25.804V43.304C73.6163 43.9573 73.887 44.284 74.4283 44.284C74.727 44.284 74.9883 44.228 75.2123 44.116L76.0243 46.944C75.259 47.28 74.4096 47.448 73.4763 47.448ZM96.2414 42.884C96.2414 43.4627 96.3254 43.892 96.4934 44.172C96.6614 44.4333 96.9414 44.6293 97.3334 44.76L96.4934 47.392C95.6161 47.3173 94.8974 47.112 94.3374 46.776C93.7961 46.44 93.3761 45.9173 93.0774 45.208C92.1067 46.7013 90.6227 47.448 88.6254 47.448C87.1507 47.448 85.9747 47.028 85.0974 46.188C84.2387 45.3293 83.8094 44.2187 83.8094 42.856C83.8094 41.232 84.3974 39.9907 85.5734 39.132C86.7494 38.2733 88.4387 37.844 90.6414 37.844H92.3494V37.116C92.3494 36.2013 92.1441 35.5667 91.7334 35.212C91.3227 34.8573 90.6414 34.68 89.6894 34.68C88.6441 34.68 87.3374 34.9413 85.7694 35.464L84.8734 32.804C86.7214 32.076 88.5507 31.712 90.3614 31.712C92.3774 31.712 93.8614 32.1507 94.8134 33.028C95.7654 33.8867 96.2414 35.1747 96.2414 36.892V42.884ZM89.7174 44.592C90.8374 44.592 91.7147 44.0413 92.3494 42.94V40.112H91.0334C88.8867 40.112 87.8134 40.9147 87.8134 42.52C87.8134 43.1733 87.9721 43.6867 88.2894 44.06C88.6254 44.4147 89.1014 44.592 89.7174 44.592ZM111.417 42.884C111.417 43.4627 111.501 43.892 111.669 44.172C111.837 44.4333 112.117 44.6293 112.509 44.76L111.669 47.392C110.792 47.3173 110.073 47.112 109.513 46.776C108.972 46.44 108.552 45.9173 108.253 45.208C107.283 46.7013 105.799 47.448 103.801 47.448C102.327 47.448 101.151 47.028 100.273 46.188C99.4145 45.3293 98.9852 44.2187 98.9852 42.856C98.9852 41.232 99.5732 39.9907 100.749 39.132C101.925 38.2733 103.615 37.844 105.817 37.844H107.525V37.116C107.525 36.2013 107.32 35.5667 106.909 35.212C106.499 34.8573 105.817 34.68 104.865 34.68C103.82 34.68 102.513 34.9413 100.945 35.464L100.049 32.804C101.897 32.076 103.727 31.712 105.537 31.712C107.553 31.712 109.037 32.1507 109.989 33.028C110.941 33.8867 111.417 35.1747 111.417 36.892V42.884ZM104.893 44.592C106.013 44.592 106.891 44.0413 107.525 42.94V40.112H106.209C104.063 40.112 102.989 40.9147 102.989 42.52C102.989 43.1733 103.148 43.6867 103.465 44.06C103.801 44.4147 104.277 44.592 104.893 44.592ZM120.044 31.712C122.135 31.712 123.927 32.3093 125.42 33.504L123.908 35.772C122.658 34.988 121.426 34.596 120.212 34.596C119.559 34.596 119.055 34.7173 118.7 34.96C118.346 35.2027 118.168 35.5293 118.168 35.94C118.168 36.2387 118.243 36.4907 118.392 36.696C118.56 36.9013 118.859 37.0973 119.288 37.284C119.736 37.4707 120.399 37.6947 121.276 37.956C122.844 38.3853 124.011 38.964 124.776 39.692C125.542 40.4013 125.924 41.3813 125.924 42.632C125.924 43.6213 125.635 44.48 125.056 45.208C124.496 45.936 123.731 46.496 122.76 46.888C121.79 47.2613 120.707 47.448 119.512 47.448C118.262 47.448 117.123 47.2613 116.096 46.888C115.07 46.496 114.192 45.964 113.464 45.292L115.424 43.108C116.675 44.0787 118 44.564 119.4 44.564C120.147 44.564 120.735 44.424 121.164 44.144C121.612 43.8453 121.836 43.444 121.836 42.94C121.836 42.548 121.752 42.24 121.584 42.016C121.416 41.792 121.108 41.5867 120.66 41.4C120.212 41.1947 119.512 40.9613 118.56 40.7C117.067 40.2893 115.956 39.7107 115.228 38.964C114.519 38.1987 114.164 37.256 114.164 36.136C114.164 35.296 114.407 34.54 114.892 33.868C115.378 33.196 116.059 32.6733 116.936 32.3C117.832 31.908 118.868 31.712 120.044 31.712ZM137.391 46.3C136.849 46.6733 136.233 46.9533 135.543 47.14C134.871 47.3453 134.199 47.448 133.527 47.448C131.996 47.4293 130.839 46.9907 130.055 46.132C129.271 45.2733 128.879 44.0133 128.879 42.352V34.96H126.667V32.16H128.879V28.912L132.855 28.436V32.16H136.271L135.879 34.96H132.855V42.268C132.855 42.9773 132.976 43.4907 133.219 43.808C133.461 44.1253 133.835 44.284 134.339 44.284C134.843 44.284 135.403 44.116 136.019 43.78L137.391 46.3ZM150.191 42.884C150.191 43.4627 150.275 43.892 150.443 44.172C150.611 44.4333 150.891 44.6293 151.283 44.76L150.443 47.392C149.565 47.3173 148.847 47.112 148.287 46.776C147.745 46.44 147.325 45.9173 147.027 45.208C146.056 46.7013 144.572 47.448 142.575 47.448C141.1 47.448 139.924 47.028 139.047 46.188C138.188 45.3293 137.759 44.2187 137.759 42.856C137.759 41.232 138.347 39.9907 139.523 39.132C140.699 38.2733 142.388 37.844 144.591 37.844H146.299V37.116C146.299 36.2013 146.093 35.5667 145.683 35.212C145.272 34.8573 144.591 34.68 143.639 34.68C142.593 34.68 141.287 34.9413 139.719 35.464L138.823 32.804C140.671 32.076 142.5 31.712 144.311 31.712C146.327 31.712 147.811 32.1507 148.763 33.028C149.715 33.8867 150.191 35.1747 150.191 36.892V42.884ZM143.667 44.592C144.787 44.592 145.664 44.0413 146.299 42.94V40.112H144.983C142.836 40.112 141.763 40.9147 141.763 42.52C141.763 43.1733 141.921 43.6867 142.239 44.06C142.575 44.4147 143.051 44.592 143.667 44.592ZM157.586 47.448C156.372 47.448 155.43 47.1027 154.758 46.412C154.086 45.7027 153.75 44.704 153.75 43.416V26.252L157.726 25.804V43.304C157.726 43.9573 157.996 44.284 158.538 44.284C158.836 44.284 159.098 44.228 159.322 44.116L160.134 46.944C159.368 47.28 158.519 47.448 157.586 47.448ZM177.299 31.712C178.587 31.712 179.595 32.1133 180.323 32.916C181.069 33.7 181.443 34.792 181.443 36.192V47H177.467V36.864C177.467 36.0613 177.327 35.5013 177.047 35.184C176.767 34.848 176.365 34.68 175.843 34.68C174.797 34.68 173.845 35.3613 172.987 36.724V47H169.011V26.252L172.987 25.832V33.84C173.584 33.1307 174.228 32.5987 174.919 32.244C175.628 31.8893 176.421 31.712 177.299 31.712ZM196.566 42.884C196.566 43.4627 196.65 43.892 196.818 44.172C196.986 44.4333 197.266 44.6293 197.658 44.76L196.818 47.392C195.94 47.3173 195.222 47.112 194.662 46.776C194.12 46.44 193.7 45.9173 193.402 45.208C192.431 46.7013 190.947 47.448 188.95 47.448C187.475 47.448 186.299 47.028 185.422 46.188C184.563 45.3293 184.134 44.2187 184.134 42.856C184.134 41.232 184.722 39.9907 185.898 39.132C187.074 38.2733 188.763 37.844 190.966 37.844H192.674V37.116C192.674 36.2013 192.468 35.5667 192.058 35.212C191.647 34.8573 190.966 34.68 190.014 34.68C188.968 34.68 187.662 34.9413 186.094 35.464L185.198 32.804C187.046 32.076 188.875 31.712 190.686 31.712C192.702 31.712 194.186 32.1507 195.138 33.028C196.09 33.8867 196.566 35.1747 196.566 36.892V42.884ZM190.042 44.592C191.162 44.592 192.039 44.0413 192.674 42.94V40.112H191.358C189.211 40.112 188.138 40.9147 188.138 42.52C188.138 43.1733 188.296 43.6867 188.614 44.06C188.95 44.4147 189.426 44.592 190.042 44.592ZM204.514 25.804V47H200.538V26.252L204.514 25.804ZM213.53 32.16L208.798 38.684L213.95 47H209.442L204.654 38.88L209.414 32.16H213.53ZM219.69 25.804V47H215.714V26.252L219.69 25.804ZM228.706 32.16L223.974 38.684L229.126 47H224.618L219.83 38.88L224.59 32.16H228.706ZM241.82 42.884C241.82 43.4627 241.904 43.892 242.072 44.172C242.24 44.4333 242.52 44.6293 242.912 44.76L242.072 47.392C241.194 47.3173 240.476 47.112 239.916 46.776C239.374 46.44 238.954 45.9173 238.656 45.208C237.685 46.7013 236.201 47.448 234.204 47.448C232.729 47.448 231.553 47.028 230.676 46.188C229.817 45.3293 229.388 44.2187 229.388 42.856C229.388 41.232 229.976 39.9907 231.152 39.132C232.328 38.2733 234.017 37.844 236.22 37.844H237.928V37.116C237.928 36.2013 237.722 35.5667 237.312 35.212C236.901 34.8573 236.22 34.68 235.268 34.68C234.222 34.68 232.916 34.9413 231.348 35.464L230.452 32.804C232.3 32.076 234.129 31.712 235.94 31.712C237.956 31.712 239.44 32.1507 240.392 33.028C241.344 33.8867 241.82 35.1747 241.82 36.892V42.884ZM235.296 44.592C236.416 44.592 237.293 44.0413 237.928 42.94V40.112H236.612C234.465 40.112 233.392 40.9147 233.392 42.52C233.392 43.1733 233.55 43.6867 233.868 44.06C234.204 44.4147 234.68 44.592 235.296 44.592ZM254.08 31.712C255.387 31.712 256.404 32.1133 257.132 32.916C257.86 33.7 258.224 34.792 258.224 36.192V47H254.248V36.864C254.248 36.0613 254.108 35.5013 253.828 35.184C253.567 34.848 253.165 34.68 252.624 34.68C252.064 34.68 251.551 34.8573 251.084 35.212C250.636 35.548 250.197 36.0613 249.768 36.752V47H245.792V32.16H249.236L249.544 34.036C250.16 33.2707 250.832 32.692 251.56 32.3C252.307 31.908 253.147 31.712 254.08 31.712ZM27.632 62.74C28.08 62.74 28.5747 62.8147 29.116 62.964L28.444 66.8C27.9213 66.6693 27.4827 66.604 27.128 66.604C26.2507 66.604 25.5693 66.912 25.084 67.528C24.5987 68.144 24.216 69.0773 23.936 70.328V78H19.96V63.16H23.404L23.768 66.044C24.1227 64.9987 24.636 64.1867 25.308 63.608C25.9987 63.0293 26.7733 62.74 27.632 62.74ZM42.7853 70.244C42.7853 70.4307 42.7573 70.944 42.7013 71.784H33.4333C33.5639 73.128 33.9279 74.08 34.5253 74.64C35.1226 75.2 35.9346 75.48 36.9613 75.48C37.5959 75.48 38.1933 75.3773 38.7533 75.172C39.3133 74.9667 39.9199 74.64 40.5733 74.192L42.2253 76.432C40.5639 77.776 38.6879 78.448 36.5973 78.448C34.2639 78.448 32.4719 77.748 31.2213 76.348C29.9706 74.948 29.3453 73.0533 29.3453 70.664C29.3453 69.152 29.6066 67.7987 30.1292 66.604C30.6706 65.3907 31.4453 64.4387 32.4533 63.748C33.4799 63.0573 34.6933 62.712 36.0933 62.712C38.2026 62.712 39.8453 63.3747 41.0213 64.7C42.1973 66.0253 42.7853 67.8733 42.7853 70.244ZM38.8373 69.124C38.8373 66.66 37.9506 65.428 36.1773 65.428C35.3559 65.428 34.7119 65.736 34.2453 66.352C33.7973 66.9493 33.5266 67.9293 33.4333 69.292H38.8373V69.124ZM58.9351 63.972C57.9645 64.3453 56.5365 64.532 54.6511 64.532C55.5845 64.9427 56.2751 65.456 56.7231 66.072C57.1711 66.6693 57.3951 67.4253 57.3951 68.34C57.3951 69.292 57.1431 70.1507 56.6391 70.916C56.1538 71.6627 55.4445 72.2507 54.5111 72.68C53.5965 73.1093 52.5231 73.324 51.2911 73.324C50.6378 73.324 50.0591 73.2587 49.5551 73.128C49.1818 73.3707 48.9951 73.6973 48.9951 74.108C48.9951 74.4067 49.1071 74.6493 49.3311 74.836C49.5738 75.004 50.0311 75.088 50.7031 75.088H52.9711C54.0725 75.088 55.0338 75.2747 55.8551 75.648C56.6951 76.0027 57.3391 76.5067 57.7871 77.16C58.2538 77.7947 58.4871 78.5227 58.4871 79.344C58.4871 80.856 57.8338 82.032 56.5271 82.872C55.2391 83.7307 53.3725 84.16 50.9271 84.16C49.1725 84.16 47.7818 83.9733 46.7551 83.6C45.7471 83.2453 45.0378 82.7227 44.6271 82.032C44.2165 81.3413 44.0111 80.4733 44.0111 79.428H47.5671C47.5671 79.9133 47.6605 80.296 47.8471 80.576C48.0338 80.8747 48.3698 81.0893 48.8551 81.22C49.3591 81.3693 50.0778 81.444 51.0111 81.444C52.2991 81.444 53.1951 81.2853 53.6991 80.968C54.2218 80.6507 54.4831 80.2027 54.4831 79.624C54.4831 79.1013 54.2871 78.7 53.8951 78.42C53.5031 78.14 52.9245 78 52.1591 78H49.9751C48.5005 78 47.3991 77.7293 46.6711 77.188C45.9431 76.628 45.5791 75.928 45.5791 75.088C45.5791 74.5653 45.7285 74.0613 46.0271 73.576C46.3445 73.072 46.7738 72.652 47.3151 72.316C46.4005 71.812 45.7285 71.224 45.2991 70.552C44.8885 69.8613 44.6831 69.04 44.6831 68.088C44.6831 67.0053 44.9445 66.0627 45.4671 65.26C46.0085 64.4387 46.7551 63.8133 47.7071 63.384C48.6778 62.936 49.7791 62.712 51.0111 62.712C52.5418 62.7493 53.8018 62.6187 54.7911 62.32C55.7805 62.0213 56.8351 61.5547 57.9551 60.92L58.9351 63.972ZM51.0951 65.372C50.3485 65.372 49.7511 65.6147 49.3031 66.1C48.8738 66.5667 48.6591 67.2107 48.6591 68.032C48.6591 68.872 48.8738 69.5347 49.3031 70.02C49.7511 70.5053 50.3578 70.748 51.1231 70.748C51.9258 70.748 52.5325 70.5147 52.9431 70.048C53.3538 69.5813 53.5591 68.8907 53.5591 67.976C53.5591 66.24 52.7378 65.372 51.0951 65.372ZM72.7722 78H69.3282L69.1322 76.012C68.6095 76.8333 67.9748 77.4493 67.2282 77.86C66.4815 78.252 65.6135 78.448 64.6242 78.448C63.2802 78.448 62.2535 78.0467 61.5442 77.244C60.8348 76.4227 60.4802 75.284 60.4802 73.828V63.16H64.4562V73.324C64.4562 74.108 64.5868 74.668 64.8482 75.004C65.1095 75.3213 65.5202 75.48 66.0802 75.48C67.1442 75.48 68.0495 74.836 68.7962 73.548V63.16H72.7722V78ZM80.3943 78.448C79.1809 78.448 78.2383 78.1027 77.5663 77.412C76.8943 76.7027 76.5583 75.704 76.5583 74.416V57.252L80.5343 56.804V74.304C80.5343 74.9573 80.8049 75.284 81.3463 75.284C81.6449 75.284 81.9063 75.228 82.1303 75.116L82.9423 77.944C82.1769 78.28 81.3276 78.448 80.3943 78.448ZM96.1867 73.884C96.1867 74.4627 96.2707 74.892 96.4387 75.172C96.6067 75.4333 96.8867 75.6293 97.2787 75.76L96.4387 78.392C95.5614 78.3173 94.8427 78.112 94.2827 77.776C93.7414 77.44 93.3214 76.9173 93.0227 76.208C92.0521 77.7013 90.5681 78.448 88.5707 78.448C87.0961 78.448 85.9201 78.028 85.0427 77.188C84.1841 76.3293 83.7547 75.2187 83.7547 73.856C83.7547 72.232 84.3427 70.9907 85.5187 70.132C86.6947 69.2733 88.3841 68.844 90.5867 68.844H92.2947V68.116C92.2947 67.2013 92.0894 66.5667 91.6787 66.212C91.2681 65.8573 90.5867 65.68 89.6347 65.68C88.5894 65.68 87.2827 65.9413 85.7147 66.464L84.8187 63.804C86.6667 63.076 88.4961 62.712 90.3067 62.712C92.3227 62.712 93.8067 63.1507 94.7587 64.028C95.7107 64.8867 96.1867 66.1747 96.1867 67.892V73.884ZM89.6627 75.592C90.7827 75.592 91.6601 75.0413 92.2947 73.94V71.112H90.9787C88.8321 71.112 87.7587 71.9147 87.7587 73.52C87.7587 74.1733 87.9174 74.6867 88.2347 75.06C88.5707 75.4147 89.0467 75.592 89.6627 75.592ZM111.363 73.884C111.363 74.4627 111.447 74.892 111.615 75.172C111.783 75.4333 112.063 75.6293 112.454 75.76L111.615 78.392C110.737 78.3173 110.019 78.112 109.459 77.776C108.917 77.44 108.497 76.9173 108.199 76.208C107.228 77.7013 105.744 78.448 103.747 78.448C102.272 78.448 101.096 78.028 100.219 77.188C99.3598 76.3293 98.9305 75.2187 98.9305 73.856C98.9305 72.232 99.5185 70.9907 100.695 70.132C101.871 69.2733 103.56 68.844 105.763 68.844H107.471V68.116C107.471 67.2013 107.265 66.5667 106.855 66.212C106.444 65.8573 105.763 65.68 104.811 65.68C103.765 65.68 102.459 65.9413 100.891 66.464L99.9945 63.804C101.843 63.076 103.672 62.712 105.483 62.712C107.499 62.712 108.983 63.1507 109.935 64.028C110.887 64.8867 111.363 66.1747 111.363 67.892V73.884ZM104.839 75.592C105.959 75.592 106.836 75.0413 107.471 73.94V71.112H106.155C104.008 71.112 102.935 71.9147 102.935 73.52C102.935 74.1733 103.093 74.6867 103.411 75.06C103.747 75.4147 104.223 75.592 104.839 75.592ZM123.007 62.74C123.455 62.74 123.95 62.8147 124.491 62.964L123.819 66.8C123.296 66.6693 122.858 66.604 122.503 66.604C121.626 66.604 120.944 66.912 120.459 67.528C119.974 68.144 119.591 69.0773 119.311 70.328V78H115.335V63.16H118.779L119.143 66.044C119.498 64.9987 120.011 64.1867 120.683 63.608C121.374 63.0293 122.148 62.74 123.007 62.74ZM131.036 62.712C133.127 62.712 134.919 63.3093 136.412 64.504L134.9 66.772C133.65 65.988 132.418 65.596 131.204 65.596C130.551 65.596 130.047 65.7173 129.692 65.96C129.338 66.2027 129.16 66.5293 129.16 66.94C129.16 67.2387 129.235 67.4907 129.384 67.696C129.552 67.9013 129.851 68.0973 130.28 68.284C130.728 68.4707 131.391 68.6947 132.268 68.956C133.836 69.3853 135.003 69.964 135.768 70.692C136.534 71.4013 136.916 72.3813 136.916 73.632C136.916 74.6213 136.627 75.48 136.048 76.208C135.488 76.936 134.723 77.496 133.752 77.888C132.782 78.2613 131.699 78.448 130.504 78.448C129.254 78.448 128.115 78.2613 127.088 77.888C126.062 77.496 125.184 76.964 124.456 76.292L126.416 74.108C127.667 75.0787 128.992 75.564 130.392 75.564C131.139 75.564 131.727 75.424 132.156 75.144C132.604 74.8453 132.828 74.444 132.828 73.94C132.828 73.548 132.744 73.24 132.576 73.016C132.408 72.792 132.1 72.5867 131.652 72.4C131.204 72.1947 130.504 71.9613 129.552 71.7C128.059 71.2893 126.948 70.7107 126.22 69.964C125.511 69.1987 125.156 68.256 125.156 67.136C125.156 66.296 125.399 65.54 125.884 64.868C126.37 64.196 127.051 63.6733 127.928 63.3C128.824 62.908 129.86 62.712 131.036 62.712ZM152.051 70.244C152.051 70.4307 152.023 70.944 151.967 71.784H142.699C142.83 73.128 143.194 74.08 143.791 74.64C144.388 75.2 145.2 75.48 146.227 75.48C146.862 75.48 147.459 75.3773 148.019 75.172C148.579 74.9667 149.186 74.64 149.839 74.192L151.491 76.432C149.83 77.776 147.954 78.448 145.863 78.448C143.53 78.448 141.738 77.748 140.487 76.348C139.236 74.948 138.611 73.0533 138.611 70.664C138.611 69.152 138.872 67.7987 139.395 66.604C139.936 65.3907 140.711 64.4387 141.719 63.748C142.746 63.0573 143.959 62.712 145.359 62.712C147.468 62.712 149.111 63.3747 150.287 64.7C151.463 66.0253 152.051 67.8733 152.051 70.244ZM148.103 69.124C148.103 66.66 147.216 65.428 145.443 65.428C144.622 65.428 143.978 65.736 143.511 66.352C143.063 66.9493 142.792 67.9293 142.699 69.292H148.103V69.124ZM158.625 78.448C157.411 78.448 156.469 78.1027 155.797 77.412C155.125 76.7027 154.789 75.704 154.789 74.416V57.252L158.765 56.804V74.304C158.765 74.9573 159.035 75.284 159.577 75.284C159.875 75.284 160.137 75.228 160.361 75.116L161.173 77.944C160.407 78.28 159.558 78.448 158.625 78.448ZM172.09 77.3C171.549 77.6733 170.933 77.9533 170.242 78.14C169.57 78.3453 168.898 78.448 168.226 78.448C166.695 78.4293 165.538 77.9907 164.754 77.132C163.97 76.2733 163.578 75.0133 163.578 73.352V65.96H161.366V63.16H163.578V59.912L167.554 59.436V63.16H170.97L170.578 65.96H167.554V73.268C167.554 73.9773 167.675 74.4907 167.918 74.808C168.161 75.1253 168.534 75.284 169.038 75.284C169.542 75.284 170.102 75.116 170.718 74.78L172.09 77.3ZM185.615 62.712C187.705 62.712 189.497 63.3093 190.991 64.504L189.479 66.772C188.228 65.988 186.996 65.596 185.783 65.596C185.129 65.596 184.625 65.7173 184.271 65.96C183.916 66.2027 183.739 66.5293 183.739 66.94C183.739 67.2387 183.813 67.4907 183.963 67.696C184.131 67.9013 184.429 68.0973 184.859 68.284C185.307 68.4707 185.969 68.6947 186.847 68.956C188.415 69.3853 189.581 69.964 190.347 70.692C191.112 71.4013 191.495 72.3813 191.495 73.632C191.495 74.6213 191.205 75.48 190.627 76.208C190.067 76.936 189.301 77.496 188.331 77.888C187.36 78.2613 186.277 78.448 185.083 78.448C183.832 78.448 182.693 78.2613 181.667 77.888C180.64 77.496 179.763 76.964 179.035 76.292L180.995 74.108C182.245 75.0787 183.571 75.564 184.971 75.564C185.717 75.564 186.305 75.424 186.735 75.144C187.183 74.8453 187.407 74.444 187.407 73.94C187.407 73.548 187.323 73.24 187.155 73.016C186.987 72.792 186.679 72.5867 186.231 72.4C185.783 72.1947 185.083 71.9613 184.131 71.7C182.637 71.2893 181.527 70.7107 180.799 69.964C180.089 69.1987 179.735 68.256 179.735 67.136C179.735 66.296 179.977 65.54 180.463 64.868C180.948 64.196 181.629 63.6733 182.507 63.3C183.403 62.908 184.439 62.712 185.615 62.712ZM202.093 62.712C203.96 62.712 205.341 63.4027 206.237 64.784C207.152 66.1467 207.609 68.0693 207.609 70.552C207.609 72.064 207.376 73.4173 206.909 74.612C206.442 75.8067 205.761 76.7493 204.865 77.44C203.988 78.112 202.942 78.448 201.729 78.448C200.217 78.448 198.994 77.916 198.061 76.852V83.712L194.085 84.16V63.16H197.585L197.781 64.896C198.341 64.168 198.994 63.6267 199.741 63.272C200.506 62.8987 201.29 62.712 202.093 62.712ZM200.553 75.48C202.494 75.48 203.465 73.8467 203.465 70.58C203.465 68.788 203.25 67.5187 202.821 66.772C202.392 66.0253 201.738 65.652 200.861 65.652C200.301 65.652 199.778 65.8293 199.293 66.184C198.826 66.52 198.416 66.9773 198.061 67.556V74.024C198.696 74.9947 199.526 75.48 200.553 75.48ZM217.009 62.712C219.23 62.712 220.966 63.412 222.217 64.812C223.467 66.1933 224.093 68.116 224.093 70.58C224.093 72.148 223.803 73.5293 223.225 74.724C222.665 75.9 221.843 76.8147 220.761 77.468C219.697 78.1213 218.437 78.448 216.981 78.448C214.759 78.448 213.014 77.7573 211.745 76.376C210.494 74.976 209.869 73.044 209.869 70.58C209.869 69.012 210.149 67.64 210.709 66.464C211.287 65.2693 212.109 64.3453 213.173 63.692C214.255 63.0387 215.534 62.712 217.009 62.712ZM217.009 65.68C216.001 65.68 215.245 66.0813 214.741 66.884C214.255 67.668 214.013 68.9 214.013 70.58C214.013 72.26 214.255 73.5013 214.741 74.304C215.245 75.088 215.991 75.48 216.981 75.48C217.97 75.48 218.707 75.088 219.193 74.304C219.697 73.5013 219.949 72.26 219.949 70.58C219.949 68.9 219.706 67.668 219.221 66.884C218.735 66.0813 217.998 65.68 217.009 65.68ZM234.788 62.74C235.236 62.74 235.731 62.8147 236.272 62.964L235.6 66.8C235.078 66.6693 234.639 66.604 234.284 66.604C233.407 66.604 232.726 66.912 232.24 67.528C231.755 68.144 231.372 69.0773 231.092 70.328V78H227.116V63.16H230.56L230.924 66.044C231.279 64.9987 231.792 64.1867 232.464 63.608C233.155 63.0293 233.93 62.74 234.788 62.74ZM247.121 77.3C246.58 77.6733 245.964 77.9533 245.273 78.14C244.601 78.3453 243.929 78.448 243.257 78.448C241.726 78.4293 240.569 77.9907 239.785 77.132C239.001 76.2733 238.609 75.0133 238.609 73.352V65.96H236.397V63.16H238.609V59.912L242.585 59.436V63.16H246.001L245.609 65.96H242.585V73.268C242.585 73.9773 242.706 74.4907 242.949 74.808C243.192 75.1253 243.565 75.284 244.069 75.284C244.573 75.284 245.133 75.116 245.749 74.78L247.121 77.3ZM252.858 63.16V78H248.882V63.16H252.858ZM250.842 55.516C251.551 55.516 252.13 55.74 252.578 56.188C253.045 56.6173 253.278 57.168 253.278 57.84C253.278 58.512 253.045 59.072 252.578 59.52C252.13 59.9493 251.551 60.164 250.842 60.164C250.133 60.164 249.554 59.9493 249.106 59.52C248.658 59.072 248.434 58.512 248.434 57.84C248.434 57.168 248.658 56.6173 249.106 56.188C249.554 55.74 250.133 55.516 250.842 55.516ZM272.828 62.712C274.004 62.712 274.947 63.1133 275.656 63.916C276.384 64.7187 276.748 65.8107 276.748 67.192V78H272.772V67.864C272.772 66.408 272.287 65.68 271.316 65.68C270.794 65.68 270.336 65.848 269.944 66.184C269.552 66.52 269.151 67.0427 268.74 67.752V78H264.764V67.864C264.764 66.408 264.279 65.68 263.308 65.68C262.786 65.68 262.328 65.8573 261.936 66.212C261.544 66.548 261.152 67.0613 260.76 67.752V78H256.784V63.16H260.228L260.536 65.008C261.096 64.2613 261.722 63.692 262.412 63.3C263.122 62.908 263.934 62.712 264.848 62.712C265.688 62.712 266.416 62.9267 267.032 63.356C267.648 63.7667 268.096 64.3547 268.376 65.12C268.992 64.3173 269.655 63.72 270.364 63.328C271.092 62.9173 271.914 62.712 272.828 62.712ZM291.859 73.884C291.859 74.4627 291.943 74.892 292.111 75.172C292.279 75.4333 292.559 75.6293 292.951 75.76L292.111 78.392C291.233 78.3173 290.515 78.112 289.955 77.776C289.413 77.44 288.993 76.9173 288.695 76.208C287.724 77.7013 286.24 78.448 284.243 78.448C282.768 78.448 281.592 78.028 280.715 77.188C279.856 76.3293 279.427 75.2187 279.427 73.856C279.427 72.232 280.015 70.9907 281.191 70.132C282.367 69.2733 284.056 68.844 286.259 68.844H287.967V68.116C287.967 67.2013 287.761 66.5667 287.351 66.212C286.94 65.8573 286.259 65.68 285.307 65.68C284.261 65.68 282.955 65.9413 281.387 66.464L280.491 63.804C282.339 63.076 284.168 62.712 285.979 62.712C287.995 62.712 289.479 63.1507 290.431 64.028C291.383 64.8867 291.859 66.1747 291.859 67.892V73.884ZM285.335 75.592C286.455 75.592 287.332 75.0413 287.967 73.94V71.112H286.651C284.504 71.112 283.431 71.9147 283.431 73.52C283.431 74.1733 283.589 74.6867 283.907 75.06C284.243 75.4147 284.719 75.592 285.335 75.592ZM297.203 73.66C297.875 73.66 298.444 73.8933 298.911 74.36C299.378 74.8267 299.611 75.3867 299.611 76.04C299.611 76.6933 299.378 77.2627 298.911 77.748C298.444 78.2147 297.875 78.448 297.203 78.448C296.55 78.448 295.99 78.2147 295.523 77.748C295.056 77.2627 294.823 76.6933 294.823 76.04C294.823 75.3867 295.056 74.8267 295.523 74.36C295.99 73.8933 296.55 73.66 297.203 73.66Z" fill="#E3000F"/>
<path d="M22.4688 94.3594V110H19.7725V94.3594H22.4688ZM32.083 106.853C32.083 106.595 32.0186 106.362 31.8896 106.154C31.7607 105.939 31.5137 105.746 31.1484 105.574C30.7904 105.402 30.2604 105.245 29.5586 105.102C28.9427 104.965 28.377 104.804 27.8613 104.618C27.3529 104.425 26.916 104.192 26.5508 103.92C26.1855 103.648 25.9027 103.326 25.7021 102.953C25.5016 102.581 25.4014 102.151 25.4014 101.664C25.4014 101.191 25.5052 100.744 25.7129 100.321C25.9206 99.8988 26.2178 99.5264 26.6045 99.2041C26.9912 98.8818 27.4603 98.6276 28.0117 98.4414C28.5703 98.2552 29.1934 98.1621 29.8809 98.1621C30.8548 98.1621 31.6891 98.3268 32.3838 98.6562C33.0856 98.9785 33.6227 99.4189 33.9951 99.9775C34.3675 100.529 34.5537 101.152 34.5537 101.847H31.9648C31.9648 101.539 31.8861 101.252 31.7285 100.987C31.5781 100.715 31.349 100.497 31.041 100.332C30.7331 100.16 30.3464 100.074 29.8809 100.074C29.4368 100.074 29.068 100.146 28.7744 100.289C28.488 100.425 28.2731 100.604 28.1299 100.826C27.9938 101.048 27.9258 101.292 27.9258 101.557C27.9258 101.75 27.9616 101.925 28.0332 102.083C28.112 102.233 28.2409 102.373 28.4199 102.502C28.599 102.624 28.8424 102.738 29.1504 102.846C29.4655 102.953 29.8594 103.057 30.332 103.157C31.2201 103.343 31.9827 103.583 32.6201 103.877C33.2646 104.163 33.7588 104.536 34.1025 104.994C34.4463 105.445 34.6182 106.018 34.6182 106.713C34.6182 107.229 34.5072 107.701 34.2852 108.131C34.0703 108.553 33.7552 108.922 33.3398 109.237C32.9245 109.545 32.4268 109.785 31.8467 109.957C31.2738 110.129 30.6292 110.215 29.9131 110.215C28.8604 110.215 27.9688 110.029 27.2383 109.656C26.5078 109.277 25.9528 108.793 25.5732 108.206C25.2008 107.612 25.0146 106.996 25.0146 106.358H27.5176C27.5462 106.838 27.6787 107.221 27.915 107.508C28.1585 107.787 28.4593 107.991 28.8174 108.12C29.1826 108.242 29.5586 108.303 29.9453 108.303C30.4108 108.303 30.8011 108.242 31.1162 108.12C31.4313 107.991 31.6712 107.819 31.8359 107.604C32.0007 107.382 32.083 107.132 32.083 106.853ZM42.0088 110.215C41.1494 110.215 40.3724 110.075 39.6777 109.796C38.9902 109.509 38.403 109.112 37.916 108.604C37.4362 108.095 37.0674 107.497 36.8096 106.81C36.5518 106.122 36.4229 105.381 36.4229 104.586V104.156C36.4229 103.247 36.5553 102.423 36.8203 101.686C37.0853 100.948 37.4541 100.318 37.9268 99.7949C38.3994 99.265 38.958 98.8604 39.6025 98.5811C40.2471 98.3018 40.9453 98.1621 41.6973 98.1621C42.528 98.1621 43.2549 98.3018 43.8779 98.5811C44.501 98.8604 45.0166 99.2542 45.4248 99.7627C45.8402 100.264 46.1481 100.862 46.3486 101.557C46.5563 102.251 46.6602 103.018 46.6602 103.855V104.962H37.6797V103.104H44.1035V102.899C44.0892 102.434 43.9961 101.997 43.8242 101.589C43.6595 101.181 43.4053 100.851 43.0615 100.601C42.7178 100.35 42.2594 100.225 41.6865 100.225C41.2568 100.225 40.8737 100.318 40.5371 100.504C40.2077 100.683 39.932 100.944 39.71 101.288C39.488 101.632 39.3161 102.047 39.1943 102.534C39.0798 103.014 39.0225 103.555 39.0225 104.156V104.586C39.0225 105.094 39.0905 105.567 39.2266 106.004C39.3698 106.434 39.5775 106.81 39.8496 107.132C40.1217 107.454 40.4512 107.708 40.8379 107.895C41.2246 108.074 41.665 108.163 42.1592 108.163C42.7822 108.163 43.3372 108.038 43.8242 107.787C44.3112 107.536 44.7337 107.182 45.0918 106.724L46.4561 108.045C46.2054 108.41 45.8796 108.761 45.4785 109.098C45.0775 109.427 44.5869 109.696 44.0068 109.903C43.4339 110.111 42.7679 110.215 42.0088 110.215ZM56.124 98.377H58.4766V109.678C58.4766 110.723 58.2546 111.611 57.8105 112.342C57.3665 113.072 56.7471 113.627 55.9521 114.007C55.1572 114.394 54.237 114.587 53.1914 114.587C52.7474 114.587 52.2533 114.522 51.709 114.394C51.1719 114.265 50.6491 114.057 50.1406 113.771C49.6393 113.491 49.2204 113.122 48.8838 112.664L50.0977 111.139C50.513 111.633 50.9714 111.994 51.4727 112.224C51.974 112.453 52.5003 112.567 53.0518 112.567C53.6462 112.567 54.151 112.456 54.5664 112.234C54.9889 112.02 55.3148 111.701 55.5439 111.278C55.7731 110.856 55.8877 110.34 55.8877 109.731V101.009L56.124 98.377ZM48.2285 104.317V104.092C48.2285 103.211 48.3359 102.409 48.5508 101.686C48.7656 100.955 49.0736 100.328 49.4746 99.8057C49.8757 99.2757 50.3626 98.8711 50.9355 98.5918C51.5085 98.3053 52.1566 98.1621 52.8799 98.1621C53.6318 98.1621 54.2728 98.2982 54.8027 98.5703C55.3398 98.8424 55.7874 99.2327 56.1455 99.7412C56.5036 100.243 56.7829 100.844 56.9834 101.546C57.1911 102.241 57.3451 103.014 57.4453 103.866V104.586C57.3522 105.417 57.1947 106.176 56.9727 106.863C56.7507 107.551 56.457 108.145 56.0918 108.646C55.7266 109.148 55.2754 109.535 54.7383 109.807C54.2083 110.079 53.5817 110.215 52.8584 110.215C52.1494 110.215 51.5085 110.068 50.9355 109.774C50.3698 109.481 49.8828 109.069 49.4746 108.539C49.0736 108.009 48.7656 107.386 48.5508 106.67C48.3359 105.947 48.2285 105.162 48.2285 104.317ZM50.8174 104.092V104.317C50.8174 104.847 50.8675 105.341 50.9678 105.8C51.0752 106.258 51.2363 106.663 51.4512 107.014C51.6732 107.357 51.9525 107.63 52.2891 107.83C52.6328 108.023 53.0374 108.12 53.5029 108.12C54.1117 108.12 54.6094 107.991 54.9961 107.733C55.39 107.476 55.6908 107.128 55.8984 106.691C56.1133 106.247 56.2637 105.753 56.3496 105.209V103.265C56.3066 102.842 56.2171 102.448 56.0811 102.083C55.9521 101.718 55.7767 101.399 55.5547 101.127C55.3327 100.848 55.0534 100.633 54.7168 100.482C54.3802 100.325 53.9827 100.246 53.5244 100.246C53.0589 100.246 52.6543 100.346 52.3105 100.547C51.9668 100.747 51.6839 101.023 51.4619 101.374C51.2471 101.725 51.0859 102.133 50.9785 102.599C50.8711 103.064 50.8174 103.562 50.8174 104.092ZM63.9336 98.377V110H61.334V98.377H63.9336ZM61.1621 95.3262C61.1621 94.9323 61.291 94.6064 61.5488 94.3486C61.8138 94.0837 62.179 93.9512 62.6445 93.9512C63.1029 93.9512 63.4645 94.0837 63.7295 94.3486C63.9945 94.6064 64.127 94.9323 64.127 95.3262C64.127 95.7129 63.9945 96.0352 63.7295 96.293C63.4645 96.5508 63.1029 96.6797 62.6445 96.6797C62.179 96.6797 61.8138 96.5508 61.5488 96.293C61.291 96.0352 61.1621 95.7129 61.1621 95.3262ZM74.8584 93.5V110H72.2588V93.5H74.8584ZM82.0771 98.377L77.0176 103.984L74.2461 106.82L73.5693 104.629L75.6641 102.04L78.9512 98.377H82.0771ZM79.5098 110L75.7393 104.543L77.3721 102.728L82.5068 110H79.5098ZM90.7139 107.261V98.377H93.3135V110H90.8643L90.7139 107.261ZM91.0791 104.844L91.9492 104.822C91.9492 105.603 91.8633 106.323 91.6914 106.981C91.5195 107.633 91.2546 108.202 90.8965 108.689C90.5384 109.169 90.0801 109.545 89.5215 109.817C88.9629 110.082 88.2933 110.215 87.5127 110.215C86.9469 110.215 86.4277 110.132 85.9551 109.968C85.4824 109.803 85.0742 109.549 84.7305 109.205C84.3939 108.861 84.1325 108.414 83.9463 107.862C83.7601 107.311 83.667 106.652 83.667 105.886V98.377H86.2559V105.907C86.2559 106.33 86.306 106.684 86.4062 106.971C86.5065 107.25 86.6426 107.476 86.8145 107.647C86.9863 107.819 87.1868 107.941 87.416 108.013C87.6452 108.084 87.8887 108.12 88.1465 108.12C88.8841 108.12 89.4642 107.977 89.8867 107.69C90.3164 107.397 90.6208 107.003 90.7998 106.509C90.986 106.015 91.0791 105.46 91.0791 104.844ZM98.7383 98.377V110H96.1387V98.377H98.7383ZM95.9668 95.3262C95.9668 94.9323 96.0957 94.6064 96.3535 94.3486C96.6185 94.0837 96.9837 93.9512 97.4492 93.9512C97.9076 93.9512 98.2692 94.0837 98.5342 94.3486C98.7992 94.6064 98.9316 94.9323 98.9316 95.3262C98.9316 95.7129 98.7992 96.0352 98.5342 96.293C98.2692 96.5508 97.9076 96.6797 97.4492 96.6797C96.9837 96.6797 96.6185 96.5508 96.3535 96.293C96.0957 96.0352 95.9668 95.7129 95.9668 95.3262ZM113.573 106.853C113.573 106.595 113.509 106.362 113.38 106.154C113.251 105.939 113.004 105.746 112.639 105.574C112.281 105.402 111.751 105.245 111.049 105.102C110.433 104.965 109.867 104.804 109.352 104.618C108.843 104.425 108.406 104.192 108.041 103.92C107.676 103.648 107.393 103.326 107.192 102.953C106.992 102.581 106.892 102.151 106.892 101.664C106.892 101.191 106.995 100.744 107.203 100.321C107.411 99.8988 107.708 99.5264 108.095 99.2041C108.481 98.8818 108.951 98.6276 109.502 98.4414C110.061 98.2552 110.684 98.1621 111.371 98.1621C112.345 98.1621 113.179 98.3268 113.874 98.6562C114.576 98.9785 115.113 99.4189 115.485 99.9775C115.858 100.529 116.044 101.152 116.044 101.847H113.455C113.455 101.539 113.376 101.252 113.219 100.987C113.068 100.715 112.839 100.497 112.531 100.332C112.223 100.16 111.837 100.074 111.371 100.074C110.927 100.074 110.558 100.146 110.265 100.289C109.978 100.425 109.763 100.604 109.62 100.826C109.484 101.048 109.416 101.292 109.416 101.557C109.416 101.75 109.452 101.925 109.523 102.083C109.602 102.233 109.731 102.373 109.91 102.502C110.089 102.624 110.333 102.738 110.641 102.846C110.956 102.953 111.35 103.057 111.822 103.157C112.71 103.343 113.473 103.583 114.11 103.877C114.755 104.163 115.249 104.536 115.593 104.994C115.937 105.445 116.108 106.018 116.108 106.713C116.108 107.229 115.997 107.701 115.775 108.131C115.561 108.553 115.245 108.922 114.83 109.237C114.415 109.545 113.917 109.785 113.337 109.957C112.764 110.129 112.119 110.215 111.403 110.215C110.351 110.215 109.459 110.029 108.729 109.656C107.998 109.277 107.443 108.793 107.063 108.206C106.691 107.612 106.505 106.996 106.505 106.358H109.008C109.036 106.838 109.169 107.221 109.405 107.508C109.649 107.787 109.95 107.991 110.308 108.12C110.673 108.242 111.049 108.303 111.436 108.303C111.901 108.303 112.291 108.242 112.606 108.12C112.922 107.991 113.161 107.819 113.326 107.604C113.491 107.382 113.573 107.132 113.573 106.853ZM123.499 110.215C122.64 110.215 121.863 110.075 121.168 109.796C120.48 109.509 119.893 109.112 119.406 108.604C118.926 108.095 118.558 107.497 118.3 106.81C118.042 106.122 117.913 105.381 117.913 104.586V104.156C117.913 103.247 118.046 102.423 118.311 101.686C118.576 100.948 118.944 100.318 119.417 99.7949C119.89 99.265 120.448 98.8604 121.093 98.5811C121.737 98.3018 122.436 98.1621 123.188 98.1621C124.018 98.1621 124.745 98.3018 125.368 98.5811C125.991 98.8604 126.507 99.2542 126.915 99.7627C127.33 100.264 127.638 100.862 127.839 101.557C128.047 102.251 128.15 103.018 128.15 103.855V104.962H119.17V103.104H125.594V102.899C125.579 102.434 125.486 101.997 125.314 101.589C125.15 101.181 124.896 100.851 124.552 100.601C124.208 100.35 123.75 100.225 123.177 100.225C122.747 100.225 122.364 100.318 122.027 100.504C121.698 100.683 121.422 100.944 121.2 101.288C120.978 101.632 120.806 102.047 120.685 102.534C120.57 103.014 120.513 103.555 120.513 104.156V104.586C120.513 105.094 120.581 105.567 120.717 106.004C120.86 106.434 121.068 106.81 121.34 107.132C121.612 107.454 121.941 107.708 122.328 107.895C122.715 108.074 123.155 108.163 123.649 108.163C124.272 108.163 124.827 108.038 125.314 107.787C125.801 107.536 126.224 107.182 126.582 106.724L127.946 108.045C127.696 108.41 127.37 108.761 126.969 109.098C126.568 109.427 126.077 109.696 125.497 109.903C124.924 110.111 124.258 110.215 123.499 110.215ZM135.294 110.215C134.435 110.215 133.658 110.075 132.963 109.796C132.275 109.509 131.688 109.112 131.201 108.604C130.721 108.095 130.353 107.497 130.095 106.81C129.837 106.122 129.708 105.381 129.708 104.586V104.156C129.708 103.247 129.84 102.423 130.105 101.686C130.37 100.948 130.739 100.318 131.212 99.7949C131.685 99.265 132.243 98.8604 132.888 98.5811C133.532 98.3018 134.23 98.1621 134.982 98.1621C135.813 98.1621 136.54 98.3018 137.163 98.5811C137.786 98.8604 138.302 99.2542 138.71 99.7627C139.125 100.264 139.433 100.862 139.634 101.557C139.841 102.251 139.945 103.018 139.945 103.855V104.962H130.965V103.104H137.389V102.899C137.374 102.434 137.281 101.997 137.109 101.589C136.945 101.181 136.69 100.851 136.347 100.601C136.003 100.35 135.545 100.225 134.972 100.225C134.542 100.225 134.159 100.318 133.822 100.504C133.493 100.683 133.217 100.944 132.995 101.288C132.773 101.632 132.601 102.047 132.479 102.534C132.365 103.014 132.308 103.555 132.308 104.156V104.586C132.308 105.094 132.376 105.567 132.512 106.004C132.655 106.434 132.863 106.81 133.135 107.132C133.407 107.454 133.736 107.708 134.123 107.895C134.51 108.074 134.95 108.163 135.444 108.163C136.067 108.163 136.622 108.038 137.109 107.787C137.596 107.536 138.019 107.182 138.377 106.724L139.741 108.045C139.491 108.41 139.165 108.761 138.764 109.098C138.363 109.427 137.872 109.696 137.292 109.903C136.719 110.111 136.053 110.215 135.294 110.215ZM147.572 98.377H150.172V111.01C150.172 111.805 150.036 112.474 149.764 113.019C149.492 113.57 149.09 113.985 148.561 114.265C148.031 114.551 147.382 114.694 146.616 114.694C146.387 114.694 146.151 114.676 145.907 114.641C145.657 114.612 145.42 114.569 145.198 114.512L145.209 112.492C145.359 112.521 145.521 112.542 145.692 112.557C145.857 112.578 146.015 112.589 146.165 112.589C146.473 112.589 146.731 112.535 146.938 112.428C147.146 112.32 147.304 112.152 147.411 111.923C147.519 111.694 147.572 111.389 147.572 111.01V98.377ZM147.347 95.3262C147.347 94.9323 147.479 94.6064 147.744 94.3486C148.009 94.0837 148.371 93.9512 148.829 93.9512C149.295 93.9512 149.656 94.0837 149.914 94.3486C150.179 94.6064 150.312 94.9323 150.312 95.3262C150.312 95.7129 150.179 96.0352 149.914 96.293C149.656 96.5508 149.295 96.6797 148.829 96.6797C148.371 96.6797 148.009 96.5508 147.744 96.293C147.479 96.0352 147.347 95.7129 147.347 95.3262ZM159.518 107.669V102.126C159.518 101.711 159.442 101.353 159.292 101.052C159.142 100.751 158.912 100.518 158.604 100.354C158.304 100.189 157.924 100.106 157.466 100.106C157.043 100.106 156.678 100.178 156.37 100.321C156.062 100.465 155.822 100.658 155.65 100.901C155.479 101.145 155.393 101.421 155.393 101.729H152.814C152.814 101.27 152.925 100.826 153.147 100.396C153.369 99.9668 153.692 99.5837 154.114 99.2471C154.537 98.9105 155.042 98.6455 155.629 98.4521C156.216 98.2588 156.875 98.1621 157.605 98.1621C158.479 98.1621 159.253 98.3089 159.926 98.6025C160.606 98.8962 161.14 99.3402 161.526 99.9346C161.92 100.522 162.117 101.259 162.117 102.147V107.314C162.117 107.844 162.153 108.321 162.225 108.743C162.303 109.159 162.414 109.52 162.558 109.828V110H159.904C159.783 109.721 159.686 109.366 159.614 108.937C159.55 108.5 159.518 108.077 159.518 107.669ZM159.894 102.932L159.915 104.532H158.057C157.577 104.532 157.154 104.579 156.789 104.672C156.424 104.758 156.119 104.887 155.876 105.059C155.632 105.23 155.45 105.438 155.328 105.682C155.206 105.925 155.146 106.201 155.146 106.509C155.146 106.817 155.217 107.1 155.36 107.357C155.504 107.608 155.711 107.805 155.983 107.948C156.263 108.091 156.599 108.163 156.993 108.163C157.523 108.163 157.985 108.056 158.379 107.841C158.78 107.619 159.095 107.35 159.324 107.035C159.553 106.713 159.675 106.409 159.689 106.122L160.527 107.271C160.441 107.565 160.295 107.88 160.087 108.217C159.879 108.553 159.607 108.876 159.271 109.184C158.941 109.484 158.544 109.731 158.078 109.925C157.62 110.118 157.09 110.215 156.488 110.215C155.729 110.215 155.052 110.064 154.458 109.764C153.864 109.456 153.398 109.044 153.062 108.528C152.725 108.006 152.557 107.415 152.557 106.756C152.557 106.14 152.671 105.596 152.9 105.123C153.137 104.643 153.48 104.242 153.932 103.92C154.39 103.598 154.949 103.354 155.607 103.189C156.266 103.018 157.018 102.932 157.863 102.932H159.894ZM153.889 95.2939C153.889 94.943 154.01 94.6494 154.254 94.4131C154.497 94.1696 154.82 94.0479 155.221 94.0479C155.629 94.0479 155.955 94.1696 156.198 94.4131C156.442 94.6494 156.563 94.943 156.563 95.2939C156.563 95.6377 156.442 95.9313 156.198 96.1748C155.955 96.4111 155.629 96.5293 155.221 96.5293C154.82 96.5293 154.497 96.4111 154.254 96.1748C154.01 95.9313 153.889 95.6377 153.889 95.2939ZM158.862 95.3047C158.862 94.9538 158.984 94.6602 159.228 94.4238C159.471 94.1803 159.797 94.0586 160.205 94.0586C160.606 94.0586 160.928 94.1803 161.172 94.4238C161.423 94.6602 161.548 94.9538 161.548 95.3047C161.548 95.6484 161.423 95.9421 161.172 96.1855C160.928 96.4219 160.606 96.54 160.205 96.54C159.797 96.54 159.471 96.4219 159.228 96.1855C158.984 95.9421 158.862 95.6484 158.862 95.3047ZM171.377 107.669V102.126C171.377 101.711 171.302 101.353 171.151 101.052C171.001 100.751 170.772 100.518 170.464 100.354C170.163 100.189 169.784 100.106 169.325 100.106C168.903 100.106 168.537 100.178 168.229 100.321C167.922 100.465 167.682 100.658 167.51 100.901C167.338 101.145 167.252 101.421 167.252 101.729H164.674C164.674 101.27 164.785 100.826 165.007 100.396C165.229 99.9668 165.551 99.5837 165.974 99.2471C166.396 98.9105 166.901 98.6455 167.488 98.4521C168.076 98.2588 168.734 98.1621 169.465 98.1621C170.339 98.1621 171.112 98.3089 171.785 98.6025C172.465 98.8962 172.999 99.3402 173.386 99.9346C173.78 100.522 173.977 101.259 173.977 102.147V107.314C173.977 107.844 174.012 108.321 174.084 108.743C174.163 109.159 174.274 109.52 174.417 109.828V110H171.764C171.642 109.721 171.545 109.366 171.474 108.937C171.409 108.5 171.377 108.077 171.377 107.669ZM171.753 102.932L171.774 104.532H169.916C169.436 104.532 169.014 104.579 168.648 104.672C168.283 104.758 167.979 104.887 167.735 105.059C167.492 105.23 167.309 105.438 167.188 105.682C167.066 105.925 167.005 106.201 167.005 106.509C167.005 106.817 167.076 107.1 167.22 107.357C167.363 107.608 167.571 107.805 167.843 107.948C168.122 108.091 168.459 108.163 168.853 108.163C169.382 108.163 169.844 108.056 170.238 107.841C170.639 107.619 170.954 107.35 171.184 107.035C171.413 106.713 171.535 106.409 171.549 106.122L172.387 107.271C172.301 107.565 172.154 107.88 171.946 108.217C171.739 108.553 171.466 108.876 171.13 109.184C170.8 109.484 170.403 109.731 169.938 109.925C169.479 110.118 168.949 110.215 168.348 110.215C167.589 110.215 166.912 110.064 166.317 109.764C165.723 109.456 165.257 109.044 164.921 108.528C164.584 108.006 164.416 107.415 164.416 106.756C164.416 106.14 164.531 105.596 164.76 105.123C164.996 104.643 165.34 104.242 165.791 103.92C166.249 103.598 166.808 103.354 167.467 103.189C168.126 103.018 168.878 102.932 169.723 102.932H171.753ZM165.748 95.2939C165.748 94.943 165.87 94.6494 166.113 94.4131C166.357 94.1696 166.679 94.0479 167.08 94.0479C167.488 94.0479 167.814 94.1696 168.058 94.4131C168.301 94.6494 168.423 94.943 168.423 95.2939C168.423 95.6377 168.301 95.9313 168.058 96.1748C167.814 96.4111 167.488 96.5293 167.08 96.5293C166.679 96.5293 166.357 96.4111 166.113 96.1748C165.87 95.9313 165.748 95.6377 165.748 95.2939ZM170.722 95.3047C170.722 94.9538 170.843 94.6602 171.087 94.4238C171.33 94.1803 171.656 94.0586 172.064 94.0586C172.465 94.0586 172.788 94.1803 173.031 94.4238C173.282 94.6602 173.407 94.9538 173.407 95.3047C173.407 95.6484 173.282 95.9421 173.031 96.1855C172.788 96.4219 172.465 96.54 172.064 96.54C171.656 96.54 171.33 96.4219 171.087 96.1855C170.843 95.9421 170.722 95.6484 170.722 95.3047ZM176.694 93.5H179.283V107.519L179.036 110H176.694V93.5ZM186.867 104.081V104.307C186.867 105.166 186.771 105.957 186.577 106.681C186.391 107.397 186.104 108.02 185.718 108.55C185.338 109.08 184.866 109.492 184.3 109.785C183.741 110.072 183.093 110.215 182.355 110.215C181.632 110.215 181.002 110.079 180.465 109.807C179.928 109.535 179.477 109.148 179.111 108.646C178.753 108.145 178.463 107.547 178.241 106.853C178.019 106.158 177.862 105.392 177.769 104.554V103.834C177.862 102.989 178.019 102.223 178.241 101.535C178.463 100.84 178.753 100.243 179.111 99.7412C179.477 99.2327 179.924 98.8424 180.454 98.5703C180.991 98.2982 181.618 98.1621 182.334 98.1621C183.079 98.1621 183.734 98.3053 184.3 98.5918C184.873 98.8783 185.349 99.2865 185.729 99.8164C186.108 100.339 186.391 100.962 186.577 101.686C186.771 102.409 186.867 103.207 186.867 104.081ZM184.278 104.307V104.081C184.278 103.558 184.235 103.068 184.149 102.609C184.063 102.144 183.92 101.736 183.72 101.385C183.526 101.034 183.261 100.758 182.925 100.558C182.595 100.35 182.184 100.246 181.689 100.246C181.231 100.246 180.837 100.325 180.508 100.482C180.178 100.64 179.903 100.855 179.681 101.127C179.459 101.399 179.283 101.714 179.154 102.072C179.033 102.43 178.95 102.817 178.907 103.232V105.177C178.972 105.714 179.108 106.208 179.315 106.659C179.53 107.103 179.831 107.461 180.218 107.733C180.604 107.998 181.102 108.131 181.711 108.131C182.191 108.131 182.595 108.034 182.925 107.841C183.254 107.647 183.516 107.379 183.709 107.035C183.91 106.684 184.053 106.276 184.139 105.811C184.232 105.345 184.278 104.844 184.278 104.307ZM197.137 100.611V114.469H194.548V98.377H196.933L197.137 100.611ZM204.71 104.081V104.307C204.71 105.152 204.61 105.936 204.409 106.659C204.216 107.375 203.926 108.002 203.539 108.539C203.16 109.069 202.69 109.481 202.132 109.774C201.573 110.068 200.929 110.215 200.198 110.215C199.475 110.215 198.841 110.082 198.297 109.817C197.76 109.545 197.305 109.162 196.933 108.668C196.56 108.174 196.259 107.594 196.03 106.928C195.808 106.255 195.651 105.517 195.558 104.715V103.845C195.651 102.993 195.808 102.219 196.03 101.524C196.259 100.83 196.56 100.232 196.933 99.7305C197.305 99.2292 197.76 98.8424 198.297 98.5703C198.834 98.2982 199.461 98.1621 200.177 98.1621C200.907 98.1621 201.555 98.3053 202.121 98.5918C202.687 98.8711 203.163 99.2721 203.55 99.7949C203.937 100.311 204.227 100.934 204.42 101.664C204.613 102.387 204.71 103.193 204.71 104.081ZM202.121 104.307V104.081C202.121 103.544 202.071 103.046 201.971 102.588C201.87 102.122 201.713 101.714 201.498 101.363C201.283 101.012 201.007 100.74 200.671 100.547C200.341 100.346 199.944 100.246 199.479 100.246C199.02 100.246 198.626 100.325 198.297 100.482C197.967 100.633 197.692 100.844 197.47 101.116C197.248 101.388 197.076 101.707 196.954 102.072C196.832 102.43 196.746 102.821 196.696 103.243V105.327C196.782 105.843 196.929 106.315 197.137 106.745C197.344 107.175 197.638 107.519 198.018 107.776C198.404 108.027 198.898 108.152 199.5 108.152C199.965 108.152 200.363 108.052 200.692 107.852C201.022 107.651 201.29 107.375 201.498 107.024C201.713 106.666 201.87 106.255 201.971 105.789C202.071 105.324 202.121 104.829 202.121 104.307ZM209.684 93.5V110H207.084V93.5H209.684ZM219.072 107.669V102.126C219.072 101.711 218.997 101.353 218.847 101.052C218.696 100.751 218.467 100.518 218.159 100.354C217.858 100.189 217.479 100.106 217.021 100.106C216.598 100.106 216.233 100.178 215.925 100.321C215.617 100.465 215.377 100.658 215.205 100.901C215.033 101.145 214.947 101.421 214.947 101.729H212.369C212.369 101.27 212.48 100.826 212.702 100.396C212.924 99.9668 213.246 99.5837 213.669 99.2471C214.091 98.9105 214.596 98.6455 215.184 98.4521C215.771 98.2588 216.43 98.1621 217.16 98.1621C218.034 98.1621 218.807 98.3089 219.48 98.6025C220.161 98.8962 220.694 99.3402 221.081 99.9346C221.475 100.522 221.672 101.259 221.672 102.147V107.314C221.672 107.844 221.708 108.321 221.779 108.743C221.858 109.159 221.969 109.52 222.112 109.828V110H219.459C219.337 109.721 219.241 109.366 219.169 108.937C219.104 108.5 219.072 108.077 219.072 107.669ZM219.448 102.932L219.47 104.532H217.611C217.132 104.532 216.709 104.579 216.344 104.672C215.979 104.758 215.674 104.887 215.431 105.059C215.187 105.23 215.005 105.438 214.883 105.682C214.761 105.925 214.7 106.201 214.7 106.509C214.7 106.817 214.772 107.1 214.915 107.357C215.058 107.608 215.266 107.805 215.538 107.948C215.817 108.091 216.154 108.163 216.548 108.163C217.078 108.163 217.54 108.056 217.934 107.841C218.335 107.619 218.65 107.35 218.879 107.035C219.108 106.713 219.23 106.409 219.244 106.122L220.082 107.271C219.996 107.565 219.849 107.88 219.642 108.217C219.434 108.553 219.162 108.876 218.825 109.184C218.496 109.484 218.098 109.731 217.633 109.925C217.174 110.118 216.645 110.215 216.043 110.215C215.284 110.215 214.607 110.064 214.013 109.764C213.418 109.456 212.953 109.044 212.616 108.528C212.28 108.006 212.111 107.415 212.111 106.756C212.111 106.14 212.226 105.596 212.455 105.123C212.691 104.643 213.035 104.242 213.486 103.92C213.945 103.598 214.503 103.354 215.162 103.189C215.821 103.018 216.573 102.932 217.418 102.932H219.448ZM230.932 107.669V102.126C230.932 101.711 230.856 101.353 230.706 101.052C230.556 100.751 230.326 100.518 230.019 100.354C229.718 100.189 229.338 100.106 228.88 100.106C228.457 100.106 228.092 100.178 227.784 100.321C227.476 100.465 227.236 100.658 227.064 100.901C226.893 101.145 226.807 101.421 226.807 101.729H224.229C224.229 101.27 224.34 100.826 224.562 100.396C224.784 99.9668 225.106 99.5837 225.528 99.2471C225.951 98.9105 226.456 98.6455 227.043 98.4521C227.63 98.2588 228.289 98.1621 229.02 98.1621C229.893 98.1621 230.667 98.3089 231.34 98.6025C232.02 98.8962 232.554 99.3402 232.94 99.9346C233.334 100.522 233.531 101.259 233.531 102.147V107.314C233.531 107.844 233.567 108.321 233.639 108.743C233.717 109.159 233.828 109.52 233.972 109.828V110H231.318C231.197 109.721 231.1 109.366 231.028 108.937C230.964 108.5 230.932 108.077 230.932 107.669ZM231.308 102.932L231.329 104.532H229.471C228.991 104.532 228.568 104.579 228.203 104.672C227.838 104.758 227.534 104.887 227.29 105.059C227.047 105.23 226.864 105.438 226.742 105.682C226.62 105.925 226.56 106.201 226.56 106.509C226.56 106.817 226.631 107.1 226.774 107.357C226.918 107.608 227.125 107.805 227.397 107.948C227.677 108.091 228.013 108.163 228.407 108.163C228.937 108.163 229.399 108.056 229.793 107.841C230.194 107.619 230.509 107.35 230.738 107.035C230.967 106.713 231.089 106.409 231.104 106.122L231.941 107.271C231.855 107.565 231.709 107.88 231.501 108.217C231.293 108.553 231.021 108.876 230.685 109.184C230.355 109.484 229.958 109.731 229.492 109.925C229.034 110.118 228.504 110.215 227.902 110.215C227.143 110.215 226.466 110.064 225.872 109.764C225.278 109.456 224.812 109.044 224.476 108.528C224.139 108.006 223.971 107.415 223.971 106.756C223.971 106.14 224.085 105.596 224.314 105.123C224.551 104.643 224.895 104.242 225.346 103.92C225.804 103.598 226.363 103.354 227.021 103.189C227.68 103.018 228.432 102.932 229.277 102.932H231.308ZM238.806 100.858V110H236.217V98.377H238.655L238.806 100.858ZM238.344 103.759L237.506 103.748C237.513 102.924 237.628 102.169 237.85 101.481C238.079 100.794 238.394 100.203 238.795 99.709C239.203 99.2148 239.69 98.8353 240.256 98.5703C240.822 98.2982 241.452 98.1621 242.146 98.1621C242.705 98.1621 243.21 98.2409 243.661 98.3984C244.119 98.5488 244.51 98.7959 244.832 99.1396C245.161 99.4834 245.412 99.931 245.584 100.482C245.756 101.027 245.842 101.696 245.842 102.491V110H243.242V102.48C243.242 101.922 243.16 101.481 242.995 101.159C242.838 100.83 242.605 100.597 242.297 100.461C241.996 100.318 241.62 100.246 241.169 100.246C240.725 100.246 240.327 100.339 239.977 100.525C239.626 100.712 239.328 100.966 239.085 101.288C238.849 101.61 238.666 101.983 238.537 102.405C238.408 102.828 238.344 103.279 238.344 103.759ZM251.256 98.377V110H248.656V98.377H251.256ZM248.484 95.3262C248.484 94.9323 248.613 94.6064 248.871 94.3486C249.136 94.0837 249.501 93.9512 249.967 93.9512C250.425 93.9512 250.787 94.0837 251.052 94.3486C251.317 94.6064 251.449 94.9323 251.449 95.3262C251.449 95.7129 251.317 96.0352 251.052 96.293C250.787 96.5508 250.425 96.6797 249.967 96.6797C249.501 96.6797 249.136 96.5508 248.871 96.293C248.613 96.0352 248.484 95.7129 248.484 95.3262ZM256.702 93.5V110H254.103V93.5H256.702ZM263.921 98.377L258.861 103.984L256.09 106.82L255.413 104.629L257.508 102.04L260.795 98.377H263.921ZM261.354 110L257.583 104.543L259.216 102.728L264.351 110H261.354ZM272.085 106.853C272.085 106.595 272.021 106.362 271.892 106.154C271.763 105.939 271.516 105.746 271.15 105.574C270.792 105.402 270.262 105.245 269.561 105.102C268.945 104.965 268.379 104.804 267.863 104.618C267.355 104.425 266.918 104.192 266.553 103.92C266.188 103.648 265.905 103.326 265.704 102.953C265.504 102.581 265.403 102.151 265.403 101.664C265.403 101.191 265.507 100.744 265.715 100.321C265.923 99.8988 266.22 99.5264 266.606 99.2041C266.993 98.8818 267.462 98.6276 268.014 98.4414C268.572 98.2552 269.195 98.1621 269.883 98.1621C270.857 98.1621 271.691 98.3268 272.386 98.6562C273.088 98.9785 273.625 99.4189 273.997 99.9775C274.369 100.529 274.556 101.152 274.556 101.847H271.967C271.967 101.539 271.888 101.252 271.73 100.987C271.58 100.715 271.351 100.497 271.043 100.332C270.735 100.16 270.348 100.074 269.883 100.074C269.439 100.074 269.07 100.146 268.776 100.289C268.49 100.425 268.275 100.604 268.132 100.826C267.996 101.048 267.928 101.292 267.928 101.557C267.928 101.75 267.964 101.925 268.035 102.083C268.114 102.233 268.243 102.373 268.422 102.502C268.601 102.624 268.844 102.738 269.152 102.846C269.467 102.953 269.861 103.057 270.334 103.157C271.222 103.343 271.985 103.583 272.622 103.877C273.267 104.163 273.761 104.536 274.104 104.994C274.448 105.445 274.62 106.018 274.62 106.713C274.62 107.229 274.509 107.701 274.287 108.131C274.072 108.553 273.757 108.922 273.342 109.237C272.926 109.545 272.429 109.785 271.849 109.957C271.276 110.129 270.631 110.215 269.915 110.215C268.862 110.215 267.971 110.029 267.24 109.656C266.51 109.277 265.955 108.793 265.575 108.206C265.203 107.612 265.017 106.996 265.017 106.358H267.52C267.548 106.838 267.681 107.221 267.917 107.508C268.16 107.787 268.461 107.991 268.819 108.12C269.185 108.242 269.561 108.303 269.947 108.303C270.413 108.303 270.803 108.242 271.118 108.12C271.433 107.991 271.673 107.819 271.838 107.604C272.003 107.382 272.085 107.132 272.085 106.853ZM279.314 107.508L279.304 109.355C279.304 110.086 279.121 110.838 278.756 111.611C278.391 112.385 277.907 113.022 277.306 113.523L275.92 112.718C276.12 112.396 276.303 112.07 276.468 111.74C276.632 111.411 276.765 111.06 276.865 110.688C276.965 110.315 277.016 109.903 277.016 109.452V107.508H279.314ZM25.8525 134.853C25.8525 134.595 25.7881 134.362 25.6592 134.154C25.5303 133.939 25.2832 133.746 24.918 133.574C24.5599 133.402 24.0299 133.245 23.3281 133.102C22.7122 132.965 22.1465 132.804 21.6309 132.618C21.1224 132.425 20.6855 132.192 20.3203 131.92C19.9551 131.648 19.6722 131.326 19.4717 130.953C19.2712 130.581 19.1709 130.151 19.1709 129.664C19.1709 129.191 19.2747 128.744 19.4824 128.321C19.6901 127.899 19.9873 127.526 20.374 127.204C20.7607 126.882 21.2298 126.628 21.7812 126.441C22.3398 126.255 22.9629 126.162 23.6504 126.162C24.6243 126.162 25.4587 126.327 26.1533 126.656C26.8551 126.979 27.3923 127.419 27.7646 127.978C28.137 128.529 28.3232 129.152 28.3232 129.847H25.7344C25.7344 129.539 25.6556 129.252 25.498 128.987C25.3477 128.715 25.1185 128.497 24.8105 128.332C24.5026 128.16 24.1159 128.074 23.6504 128.074C23.2064 128.074 22.8376 128.146 22.5439 128.289C22.2575 128.425 22.0426 128.604 21.8994 128.826C21.7633 129.048 21.6953 129.292 21.6953 129.557C21.6953 129.75 21.7311 129.925 21.8027 130.083C21.8815 130.233 22.0104 130.373 22.1895 130.502C22.3685 130.624 22.612 130.738 22.9199 130.846C23.235 130.953 23.6289 131.057 24.1016 131.157C24.9896 131.343 25.7523 131.583 26.3896 131.877C27.0342 132.163 27.5283 132.536 27.8721 132.994C28.2158 133.445 28.3877 134.018 28.3877 134.713C28.3877 135.229 28.2767 135.701 28.0547 136.131C27.8398 136.553 27.5247 136.922 27.1094 137.237C26.694 137.545 26.1963 137.785 25.6162 137.957C25.0433 138.129 24.3988 138.215 23.6826 138.215C22.6299 138.215 21.7383 138.029 21.0078 137.656C20.2773 137.277 19.7223 136.793 19.3428 136.206C18.9704 135.612 18.7842 134.996 18.7842 134.358H21.2871C21.3158 134.838 21.4482 135.221 21.6846 135.508C21.9281 135.787 22.2288 135.991 22.5869 136.12C22.9521 136.242 23.3281 136.303 23.7148 136.303C24.1803 136.303 24.5706 136.242 24.8857 136.12C25.2008 135.991 25.4408 135.819 25.6055 135.604C25.7702 135.382 25.8525 135.132 25.8525 134.853ZM33.2539 128.611V142.469H30.665V126.377H33.0498L33.2539 128.611ZM40.8271 132.081V132.307C40.8271 133.152 40.7269 133.936 40.5264 134.659C40.333 135.375 40.043 136.002 39.6562 136.539C39.2767 137.069 38.8076 137.481 38.249 137.774C37.6904 138.068 37.0459 138.215 36.3154 138.215C35.5921 138.215 34.9583 138.082 34.4141 137.817C33.877 137.545 33.4222 137.162 33.0498 136.668C32.6774 136.174 32.3766 135.594 32.1475 134.928C31.9255 134.255 31.7679 133.517 31.6748 132.715V131.845C31.7679 130.993 31.9255 130.219 32.1475 129.524C32.3766 128.83 32.6774 128.232 33.0498 127.73C33.4222 127.229 33.877 126.842 34.4141 126.57C34.9512 126.298 35.5778 126.162 36.2939 126.162C37.0244 126.162 37.6725 126.305 38.2383 126.592C38.804 126.871 39.2803 127.272 39.667 127.795C40.0537 128.311 40.3438 128.934 40.5371 129.664C40.7305 130.387 40.8271 131.193 40.8271 132.081ZM38.2383 132.307V132.081C38.2383 131.544 38.1882 131.046 38.0879 130.588C37.9876 130.122 37.8301 129.714 37.6152 129.363C37.4004 129.012 37.1247 128.74 36.7881 128.547C36.4587 128.346 36.0612 128.246 35.5957 128.246C35.1374 128.246 34.7435 128.325 34.4141 128.482C34.0846 128.633 33.8089 128.844 33.5869 129.116C33.3649 129.388 33.193 129.707 33.0713 130.072C32.9495 130.43 32.8636 130.821 32.8135 131.243V133.327C32.8994 133.843 33.0462 134.315 33.2539 134.745C33.4616 135.175 33.7552 135.519 34.1348 135.776C34.5215 136.027 35.0156 136.152 35.6172 136.152C36.0827 136.152 36.4801 136.052 36.8096 135.852C37.139 135.651 37.4076 135.375 37.6152 135.024C37.8301 134.666 37.9876 134.255 38.0879 133.789C38.1882 133.324 38.2383 132.829 38.2383 132.307ZM42.5352 132.317V132.07C42.5352 131.232 42.6569 130.455 42.9004 129.739C43.1439 129.016 43.4948 128.389 43.9531 127.859C44.4186 127.322 44.9844 126.907 45.6504 126.613C46.3236 126.312 47.0827 126.162 47.9277 126.162C48.7799 126.162 49.5391 126.312 50.2051 126.613C50.8783 126.907 51.4476 127.322 51.9131 127.859C52.3786 128.389 52.7331 129.016 52.9766 129.739C53.2201 130.455 53.3418 131.232 53.3418 132.07V132.317C53.3418 133.155 53.2201 133.932 52.9766 134.648C52.7331 135.365 52.3786 135.991 51.9131 136.528C51.4476 137.058 50.8818 137.474 50.2158 137.774C49.5498 138.068 48.7943 138.215 47.9492 138.215C47.097 138.215 46.3343 138.068 45.6611 137.774C44.9951 137.474 44.4294 137.058 43.9639 136.528C43.4984 135.991 43.1439 135.365 42.9004 134.648C42.6569 133.932 42.5352 133.155 42.5352 132.317ZM45.124 132.07V132.317C45.124 132.84 45.1777 133.334 45.2852 133.8C45.3926 134.265 45.5609 134.674 45.79 135.024C46.0192 135.375 46.3128 135.651 46.6709 135.852C47.029 136.052 47.4551 136.152 47.9492 136.152C48.429 136.152 48.8444 136.052 49.1953 135.852C49.5534 135.651 49.847 135.375 50.0762 135.024C50.3053 134.674 50.4736 134.265 50.5811 133.8C50.6956 133.334 50.7529 132.84 50.7529 132.317V132.07C50.7529 131.555 50.6956 131.068 50.5811 130.609C50.4736 130.144 50.3018 129.732 50.0654 129.374C49.8363 129.016 49.5426 128.737 49.1846 128.536C48.8337 128.328 48.4147 128.225 47.9277 128.225C47.4408 128.225 47.0182 128.328 46.6602 128.536C46.3092 128.737 46.0192 129.016 45.79 129.374C45.5609 129.732 45.3926 130.144 45.2852 130.609C45.1777 131.068 45.124 131.555 45.124 132.07ZM58.1113 128.59V138H55.5225V126.377H57.9932L58.1113 128.59ZM61.667 126.302L61.6455 128.708C61.488 128.679 61.3161 128.658 61.1299 128.644C60.9508 128.629 60.7718 128.622 60.5928 128.622C60.1488 128.622 59.7585 128.687 59.4219 128.815C59.0853 128.937 58.8024 129.116 58.5732 129.353C58.3512 129.582 58.1794 129.861 58.0576 130.19C57.9359 130.52 57.8643 130.889 57.8428 131.297L57.252 131.34C57.252 130.609 57.3236 129.933 57.4668 129.31C57.61 128.687 57.8249 128.139 58.1113 127.666C58.4049 127.193 58.7702 126.825 59.207 126.56C59.651 126.295 60.1631 126.162 60.7432 126.162C60.9007 126.162 61.069 126.176 61.248 126.205C61.4342 126.234 61.5739 126.266 61.667 126.302ZM70.1641 135.594V121.5H72.7637V138H70.4111L70.1641 135.594ZM62.6016 132.317V132.092C62.6016 131.211 62.7054 130.409 62.9131 129.686C63.1208 128.955 63.4215 128.328 63.8154 127.806C64.2093 127.276 64.6891 126.871 65.2549 126.592C65.8206 126.305 66.458 126.162 67.167 126.162C67.8688 126.162 68.4847 126.298 69.0146 126.57C69.5446 126.842 69.9958 127.233 70.3682 127.741C70.7406 128.243 71.0378 128.844 71.2598 129.546C71.4818 130.241 71.6393 131.014 71.7324 131.866V132.586C71.6393 133.417 71.4818 134.176 71.2598 134.863C71.0378 135.551 70.7406 136.145 70.3682 136.646C69.9958 137.148 69.541 137.535 69.0039 137.807C68.474 138.079 67.8545 138.215 67.1455 138.215C66.4437 138.215 65.8099 138.068 65.2441 137.774C64.6855 137.481 64.2093 137.069 63.8154 136.539C63.4215 136.009 63.1208 135.386 62.9131 134.67C62.7054 133.947 62.6016 133.162 62.6016 132.317ZM65.1904 132.092V132.317C65.1904 132.847 65.237 133.341 65.3301 133.8C65.4303 134.258 65.5843 134.663 65.792 135.014C65.9997 135.357 66.2682 135.63 66.5977 135.83C66.9342 136.023 67.3353 136.12 67.8008 136.12C68.388 136.12 68.8714 135.991 69.251 135.733C69.6305 135.476 69.9277 135.128 70.1426 134.691C70.3646 134.247 70.515 133.753 70.5938 133.209V131.265C70.5508 130.842 70.4613 130.448 70.3252 130.083C70.1963 129.718 70.0208 129.399 69.7988 129.127C69.5768 128.848 69.3011 128.633 68.9717 128.482C68.6494 128.325 68.2663 128.246 67.8223 128.246C67.3496 128.246 66.9486 128.346 66.6191 128.547C66.2897 128.747 66.0176 129.023 65.8027 129.374C65.5951 129.725 65.4411 130.133 65.3408 130.599C65.2406 131.064 65.1904 131.562 65.1904 132.092ZM78.2422 126.377V138H75.6426V126.377H78.2422ZM75.4707 123.326C75.4707 122.932 75.5996 122.606 75.8574 122.349C76.1224 122.084 76.4876 121.951 76.9531 121.951C77.4115 121.951 77.7731 122.084 78.0381 122.349C78.3031 122.606 78.4355 122.932 78.4355 123.326C78.4355 123.713 78.3031 124.035 78.0381 124.293C77.7731 124.551 77.4115 124.68 76.9531 124.68C76.4876 124.68 76.1224 124.551 75.8574 124.293C75.5996 124.035 75.4707 123.713 75.4707 123.326ZM88.0713 135.261V126.377H90.6709V138H88.2217L88.0713 135.261ZM88.4365 132.844L89.3066 132.822C89.3066 133.603 89.2207 134.323 89.0488 134.981C88.877 135.633 88.612 136.202 88.2539 136.689C87.8958 137.169 87.4375 137.545 86.8789 137.817C86.3203 138.082 85.6507 138.215 84.8701 138.215C84.3044 138.215 83.7852 138.132 83.3125 137.968C82.8398 137.803 82.4316 137.549 82.0879 137.205C81.7513 136.861 81.4899 136.414 81.3037 135.862C81.1175 135.311 81.0244 134.652 81.0244 133.886V126.377H83.6133V133.907C83.6133 134.33 83.6634 134.684 83.7637 134.971C83.8639 135.25 84 135.476 84.1719 135.647C84.3438 135.819 84.5443 135.941 84.7734 136.013C85.0026 136.084 85.2461 136.12 85.5039 136.12C86.2415 136.12 86.8216 135.977 87.2441 135.69C87.6738 135.397 87.9782 135.003 88.1572 134.509C88.3434 134.015 88.4365 133.46 88.4365 132.844ZM100.317 135.261V126.377H102.917V138H100.468L100.317 135.261ZM100.683 132.844L101.553 132.822C101.553 133.603 101.467 134.323 101.295 134.981C101.123 135.633 100.858 136.202 100.5 136.689C100.142 137.169 99.6836 137.545 99.125 137.817C98.5664 138.082 97.8968 138.215 97.1162 138.215C96.5505 138.215 96.0312 138.132 95.5586 137.968C95.0859 137.803 94.6777 137.549 94.334 137.205C93.9974 136.861 93.736 136.414 93.5498 135.862C93.3636 135.311 93.2705 134.652 93.2705 133.886V126.377H95.8594V133.907C95.8594 134.33 95.9095 134.684 96.0098 134.971C96.11 135.25 96.2461 135.476 96.418 135.647C96.5898 135.819 96.7904 135.941 97.0195 136.013C97.2487 136.084 97.4922 136.12 97.75 136.12C98.4876 136.12 99.0677 135.977 99.4902 135.69C99.9199 135.397 100.224 135.003 100.403 134.509C100.59 134.015 100.683 133.46 100.683 132.844ZM112.66 135.594V121.5H115.26V138H112.907L112.66 135.594ZM105.098 132.317V132.092C105.098 131.211 105.201 130.409 105.409 129.686C105.617 128.955 105.918 128.328 106.312 127.806C106.705 127.276 107.185 126.871 107.751 126.592C108.317 126.305 108.954 126.162 109.663 126.162C110.365 126.162 110.981 126.298 111.511 126.57C112.041 126.842 112.492 127.233 112.864 127.741C113.237 128.243 113.534 128.844 113.756 129.546C113.978 130.241 114.135 131.014 114.229 131.866V132.586C114.135 133.417 113.978 134.176 113.756 134.863C113.534 135.551 113.237 136.145 112.864 136.646C112.492 137.148 112.037 137.535 111.5 137.807C110.97 138.079 110.351 138.215 109.642 138.215C108.94 138.215 108.306 138.068 107.74 137.774C107.182 137.481 106.705 137.069 106.312 136.539C105.918 136.009 105.617 135.386 105.409 134.67C105.201 133.947 105.098 133.162 105.098 132.317ZM107.687 132.092V132.317C107.687 132.847 107.733 133.341 107.826 133.8C107.926 134.258 108.08 134.663 108.288 135.014C108.496 135.357 108.764 135.63 109.094 135.83C109.43 136.023 109.831 136.12 110.297 136.12C110.884 136.12 111.368 135.991 111.747 135.733C112.127 135.476 112.424 135.128 112.639 134.691C112.861 134.247 113.011 133.753 113.09 133.209V131.265C113.047 130.842 112.957 130.448 112.821 130.083C112.692 129.718 112.517 129.399 112.295 129.127C112.073 128.848 111.797 128.633 111.468 128.482C111.146 128.325 110.762 128.246 110.318 128.246C109.846 128.246 109.445 128.346 109.115 128.547C108.786 128.747 108.514 129.023 108.299 129.374C108.091 129.725 107.937 130.133 107.837 130.599C107.737 131.064 107.687 131.562 107.687 132.092ZM120.738 126.377V138H118.139V126.377H120.738ZM117.967 123.326C117.967 122.932 118.096 122.606 118.354 122.349C118.618 122.084 118.984 121.951 119.449 121.951C119.908 121.951 120.269 122.084 120.534 122.349C120.799 122.606 120.932 122.932 120.932 123.326C120.932 123.713 120.799 124.035 120.534 124.293C120.269 124.551 119.908 124.68 119.449 124.68C118.984 124.68 118.618 124.551 118.354 124.293C118.096 124.035 117.967 123.713 117.967 123.326ZM130.095 134.853C130.095 134.595 130.03 134.362 129.901 134.154C129.772 133.939 129.525 133.746 129.16 133.574C128.802 133.402 128.272 133.245 127.57 133.102C126.954 132.965 126.389 132.804 125.873 132.618C125.365 132.425 124.928 132.192 124.562 131.92C124.197 131.648 123.914 131.326 123.714 130.953C123.513 130.581 123.413 130.151 123.413 129.664C123.413 129.191 123.517 128.744 123.725 128.321C123.932 127.899 124.229 127.526 124.616 127.204C125.003 126.882 125.472 126.628 126.023 126.441C126.582 126.255 127.205 126.162 127.893 126.162C128.867 126.162 129.701 126.327 130.396 126.656C131.097 126.979 131.634 127.419 132.007 127.978C132.379 128.529 132.565 129.152 132.565 129.847H129.977C129.977 129.539 129.898 129.252 129.74 128.987C129.59 128.715 129.361 128.497 129.053 128.332C128.745 128.16 128.358 128.074 127.893 128.074C127.449 128.074 127.08 128.146 126.786 128.289C126.5 128.425 126.285 128.604 126.142 128.826C126.006 129.048 125.938 129.292 125.938 129.557C125.938 129.75 125.973 129.925 126.045 130.083C126.124 130.233 126.253 130.373 126.432 130.502C126.611 130.624 126.854 130.738 127.162 130.846C127.477 130.953 127.871 131.057 128.344 131.157C129.232 131.343 129.994 131.583 130.632 131.877C131.276 132.163 131.771 132.536 132.114 132.994C132.458 133.445 132.63 134.018 132.63 134.713C132.63 135.229 132.519 135.701 132.297 136.131C132.082 136.553 131.767 136.922 131.352 137.237C130.936 137.545 130.438 137.785 129.858 137.957C129.285 138.129 128.641 138.215 127.925 138.215C126.872 138.215 125.98 138.029 125.25 137.656C124.52 137.277 123.965 136.793 123.585 136.206C123.213 135.612 123.026 134.996 123.026 134.358H125.529C125.558 134.838 125.69 135.221 125.927 135.508C126.17 135.787 126.471 135.991 126.829 136.12C127.194 136.242 127.57 136.303 127.957 136.303C128.423 136.303 128.813 136.242 129.128 136.12C129.443 135.991 129.683 135.819 129.848 135.604C130.012 135.382 130.095 135.132 130.095 134.853ZM140.021 138.215C139.161 138.215 138.384 138.075 137.689 137.796C137.002 137.509 136.415 137.112 135.928 136.604C135.448 136.095 135.079 135.497 134.821 134.81C134.563 134.122 134.435 133.381 134.435 132.586V132.156C134.435 131.247 134.567 130.423 134.832 129.686C135.097 128.948 135.466 128.318 135.938 127.795C136.411 127.265 136.97 126.86 137.614 126.581C138.259 126.302 138.957 126.162 139.709 126.162C140.54 126.162 141.267 126.302 141.89 126.581C142.513 126.86 143.028 127.254 143.437 127.763C143.852 128.264 144.16 128.862 144.36 129.557C144.568 130.251 144.672 131.018 144.672 131.855V132.962H135.691V131.104H142.115V130.899C142.101 130.434 142.008 129.997 141.836 129.589C141.671 129.181 141.417 128.851 141.073 128.601C140.729 128.35 140.271 128.225 139.698 128.225C139.269 128.225 138.885 128.318 138.549 128.504C138.219 128.683 137.944 128.944 137.722 129.288C137.5 129.632 137.328 130.047 137.206 130.534C137.091 131.014 137.034 131.555 137.034 132.156V132.586C137.034 133.094 137.102 133.567 137.238 134.004C137.382 134.434 137.589 134.81 137.861 135.132C138.133 135.454 138.463 135.708 138.85 135.895C139.236 136.074 139.677 136.163 140.171 136.163C140.794 136.163 141.349 136.038 141.836 135.787C142.323 135.536 142.745 135.182 143.104 134.724L144.468 136.045C144.217 136.41 143.891 136.761 143.49 137.098C143.089 137.427 142.599 137.696 142.019 137.903C141.446 138.111 140.78 138.215 140.021 138.215ZM149.463 126.377V138H146.863V126.377H149.463ZM146.691 123.326C146.691 122.932 146.82 122.606 147.078 122.349C147.343 122.084 147.708 121.951 148.174 121.951C148.632 121.951 148.994 122.084 149.259 122.349C149.524 122.606 149.656 122.932 149.656 123.326C149.656 123.713 149.524 124.035 149.259 124.293C148.994 124.551 148.632 124.68 148.174 124.68C147.708 124.68 147.343 124.551 147.078 124.293C146.82 124.035 146.691 123.713 146.691 123.326ZM159.389 135.594V121.5H161.988V138H159.636L159.389 135.594ZM151.826 132.317V132.092C151.826 131.211 151.93 130.409 152.138 129.686C152.345 128.955 152.646 128.328 153.04 127.806C153.434 127.276 153.914 126.871 154.479 126.592C155.045 126.305 155.683 126.162 156.392 126.162C157.093 126.162 157.709 126.298 158.239 126.57C158.769 126.842 159.22 127.233 159.593 127.741C159.965 128.243 160.262 128.844 160.484 129.546C160.706 130.241 160.864 131.014 160.957 131.866V132.586C160.864 133.417 160.706 134.176 160.484 134.863C160.262 135.551 159.965 136.145 159.593 136.646C159.22 137.148 158.766 137.535 158.229 137.807C157.699 138.079 157.079 138.215 156.37 138.215C155.668 138.215 155.035 138.068 154.469 137.774C153.91 137.481 153.434 137.069 153.04 136.539C152.646 136.009 152.345 135.386 152.138 134.67C151.93 133.947 151.826 133.162 151.826 132.317ZM154.415 132.092V132.317C154.415 132.847 154.462 133.341 154.555 133.8C154.655 134.258 154.809 134.663 155.017 135.014C155.224 135.357 155.493 135.63 155.822 135.83C156.159 136.023 156.56 136.12 157.025 136.12C157.613 136.12 158.096 135.991 158.476 135.733C158.855 135.476 159.152 135.128 159.367 134.691C159.589 134.247 159.74 133.753 159.818 133.209V131.265C159.775 130.842 159.686 130.448 159.55 130.083C159.421 129.718 159.245 129.399 159.023 129.127C158.801 128.848 158.526 128.633 158.196 128.482C157.874 128.325 157.491 128.246 157.047 128.246C156.574 128.246 156.173 128.346 155.844 128.547C155.514 128.747 155.242 129.023 155.027 129.374C154.82 129.725 154.666 130.133 154.565 130.599C154.465 131.064 154.415 131.562 154.415 132.092ZM176.694 134.853C176.694 134.595 176.63 134.362 176.501 134.154C176.372 133.939 176.125 133.746 175.76 133.574C175.402 133.402 174.872 133.245 174.17 133.102C173.554 132.965 172.988 132.804 172.473 132.618C171.964 132.425 171.527 132.192 171.162 131.92C170.797 131.648 170.514 131.326 170.313 130.953C170.113 130.581 170.013 130.151 170.013 129.664C170.013 129.191 170.117 128.744 170.324 128.321C170.532 127.899 170.829 127.526 171.216 127.204C171.603 126.882 172.072 126.628 172.623 126.441C173.182 126.255 173.805 126.162 174.492 126.162C175.466 126.162 176.3 126.327 176.995 126.656C177.697 126.979 178.234 127.419 178.606 127.978C178.979 128.529 179.165 129.152 179.165 129.847H176.576C176.576 129.539 176.497 129.252 176.34 128.987C176.189 128.715 175.96 128.497 175.652 128.332C175.344 128.16 174.958 128.074 174.492 128.074C174.048 128.074 173.679 128.146 173.386 128.289C173.099 128.425 172.884 128.604 172.741 128.826C172.605 129.048 172.537 129.292 172.537 129.557C172.537 129.75 172.573 129.925 172.645 130.083C172.723 130.233 172.852 130.373 173.031 130.502C173.21 130.624 173.454 130.738 173.762 130.846C174.077 130.953 174.471 131.057 174.943 131.157C175.831 131.343 176.594 131.583 177.231 131.877C177.876 132.163 178.37 132.536 178.714 132.994C179.058 133.445 179.229 134.018 179.229 134.713C179.229 135.229 179.118 135.701 178.896 136.131C178.682 136.553 178.367 136.922 177.951 137.237C177.536 137.545 177.038 137.785 176.458 137.957C175.885 138.129 175.241 138.215 174.524 138.215C173.472 138.215 172.58 138.029 171.85 137.656C171.119 137.277 170.564 136.793 170.185 136.206C169.812 135.612 169.626 134.996 169.626 134.358H172.129C172.158 134.838 172.29 135.221 172.526 135.508C172.77 135.787 173.071 135.991 173.429 136.12C173.794 136.242 174.17 136.303 174.557 136.303C175.022 136.303 175.412 136.242 175.728 136.12C176.043 135.991 176.283 135.819 176.447 135.604C176.612 135.382 176.694 135.132 176.694 134.853ZM188.049 135.669V130.126C188.049 129.711 187.974 129.353 187.823 129.052C187.673 128.751 187.444 128.518 187.136 128.354C186.835 128.189 186.455 128.106 185.997 128.106C185.575 128.106 185.209 128.178 184.901 128.321C184.593 128.465 184.354 128.658 184.182 128.901C184.01 129.145 183.924 129.421 183.924 129.729H181.346C181.346 129.27 181.457 128.826 181.679 128.396C181.901 127.967 182.223 127.584 182.646 127.247C183.068 126.91 183.573 126.646 184.16 126.452C184.747 126.259 185.406 126.162 186.137 126.162C187.01 126.162 187.784 126.309 188.457 126.603C189.137 126.896 189.671 127.34 190.058 127.935C190.451 128.522 190.648 129.259 190.648 130.147V135.314C190.648 135.844 190.684 136.321 190.756 136.743C190.835 137.159 190.946 137.52 191.089 137.828V138H188.436C188.314 137.721 188.217 137.366 188.146 136.937C188.081 136.5 188.049 136.077 188.049 135.669ZM188.425 130.932L188.446 132.532H186.588C186.108 132.532 185.686 132.579 185.32 132.672C184.955 132.758 184.651 132.887 184.407 133.059C184.164 133.23 183.981 133.438 183.859 133.682C183.738 133.925 183.677 134.201 183.677 134.509C183.677 134.817 183.748 135.1 183.892 135.357C184.035 135.608 184.243 135.805 184.515 135.948C184.794 136.091 185.131 136.163 185.524 136.163C186.054 136.163 186.516 136.056 186.91 135.841C187.311 135.619 187.626 135.35 187.855 135.035C188.085 134.713 188.206 134.409 188.221 134.122L189.059 135.271C188.973 135.565 188.826 135.88 188.618 136.217C188.41 136.553 188.138 136.876 187.802 137.184C187.472 137.484 187.075 137.731 186.609 137.925C186.151 138.118 185.621 138.215 185.02 138.215C184.26 138.215 183.584 138.064 182.989 137.764C182.395 137.456 181.929 137.044 181.593 136.528C181.256 136.006 181.088 135.415 181.088 134.756C181.088 134.14 181.202 133.596 181.432 133.123C181.668 132.643 182.012 132.242 182.463 131.92C182.921 131.598 183.48 131.354 184.139 131.189C184.798 131.018 185.549 130.932 186.395 130.932H188.425ZM199.908 135.669V130.126C199.908 129.711 199.833 129.353 199.683 129.052C199.532 128.751 199.303 128.518 198.995 128.354C198.694 128.189 198.315 128.106 197.856 128.106C197.434 128.106 197.069 128.178 196.761 128.321C196.453 128.465 196.213 128.658 196.041 128.901C195.869 129.145 195.783 129.421 195.783 129.729H193.205C193.205 129.27 193.316 128.826 193.538 128.396C193.76 127.967 194.082 127.584 194.505 127.247C194.927 126.91 195.432 126.646 196.02 126.452C196.607 126.259 197.266 126.162 197.996 126.162C198.87 126.162 199.643 126.309 200.316 126.603C200.997 126.896 201.53 127.34 201.917 127.935C202.311 128.522 202.508 129.259 202.508 130.147V135.314C202.508 135.844 202.544 136.321 202.615 136.743C202.694 137.159 202.805 137.52 202.948 137.828V138H200.295C200.173 137.721 200.076 137.366 200.005 136.937C199.94 136.5 199.908 136.077 199.908 135.669ZM200.284 130.932L200.306 132.532H198.447C197.967 132.532 197.545 132.579 197.18 132.672C196.814 132.758 196.51 132.887 196.267 133.059C196.023 133.23 195.84 133.438 195.719 133.682C195.597 133.925 195.536 134.201 195.536 134.509C195.536 134.817 195.608 135.1 195.751 135.357C195.894 135.608 196.102 135.805 196.374 135.948C196.653 136.091 196.99 136.163 197.384 136.163C197.914 136.163 198.376 136.056 198.77 135.841C199.171 135.619 199.486 135.35 199.715 135.035C199.944 134.713 200.066 134.409 200.08 134.122L200.918 135.271C200.832 135.565 200.685 135.88 200.478 136.217C200.27 136.553 199.998 136.876 199.661 137.184C199.332 137.484 198.934 137.731 198.469 137.925C198.01 138.118 197.48 138.215 196.879 138.215C196.12 138.215 195.443 138.064 194.849 137.764C194.254 137.456 193.789 137.044 193.452 136.528C193.116 136.006 192.947 135.415 192.947 134.756C192.947 134.14 193.062 133.596 193.291 133.123C193.527 132.643 193.871 132.242 194.322 131.92C194.781 131.598 195.339 131.354 195.998 131.189C196.657 131.018 197.409 130.932 198.254 130.932H200.284ZM212.305 135.594V121.5H214.904V138H212.552L212.305 135.594ZM204.742 132.317V132.092C204.742 131.211 204.846 130.409 205.054 129.686C205.261 128.955 205.562 128.328 205.956 127.806C206.35 127.276 206.83 126.871 207.396 126.592C207.961 126.305 208.599 126.162 209.308 126.162C210.009 126.162 210.625 126.298 211.155 126.57C211.685 126.842 212.136 127.233 212.509 127.741C212.881 128.243 213.178 128.844 213.4 129.546C213.622 130.241 213.78 131.014 213.873 131.866V132.586C213.78 133.417 213.622 134.176 213.4 134.863C213.178 135.551 212.881 136.145 212.509 136.646C212.136 137.148 211.682 137.535 211.145 137.807C210.615 138.079 209.995 138.215 209.286 138.215C208.584 138.215 207.951 138.068 207.385 137.774C206.826 137.481 206.35 137.069 205.956 136.539C205.562 136.009 205.261 135.386 205.054 134.67C204.846 133.947 204.742 133.162 204.742 132.317ZM207.331 132.092V132.317C207.331 132.847 207.378 133.341 207.471 133.8C207.571 134.258 207.725 134.663 207.933 135.014C208.14 135.357 208.409 135.63 208.738 135.83C209.075 136.023 209.476 136.12 209.941 136.12C210.529 136.12 211.012 135.991 211.392 135.733C211.771 135.476 212.068 135.128 212.283 134.691C212.505 134.247 212.656 133.753 212.734 133.209V131.265C212.691 130.842 212.602 130.448 212.466 130.083C212.337 129.718 212.161 129.399 211.939 129.127C211.717 128.848 211.442 128.633 211.112 128.482C210.79 128.325 210.407 128.246 209.963 128.246C209.49 128.246 209.089 128.346 208.76 128.547C208.43 128.747 208.158 129.023 207.943 129.374C207.736 129.725 207.582 130.133 207.481 130.599C207.381 131.064 207.331 131.562 207.331 132.092ZM225.861 126.377V138H223.262V126.377H225.861ZM223.09 123.326C223.09 122.932 223.219 122.606 223.477 122.349C223.742 122.084 224.107 121.951 224.572 121.951C225.031 121.951 225.392 122.084 225.657 122.349C225.922 122.606 226.055 122.932 226.055 123.326C226.055 123.713 225.922 124.035 225.657 124.293C225.392 124.551 225.031 124.68 224.572 124.68C224.107 124.68 223.742 124.551 223.477 124.293C223.219 124.035 223.09 123.713 223.09 123.326ZM231.308 121.5V138H228.708V121.5H231.308ZM238.526 126.377L233.467 131.984L230.695 134.82L230.019 132.629L232.113 130.04L235.4 126.377H238.526ZM235.959 138L232.188 132.543L233.821 130.728L238.956 138H235.959ZM242.78 121.5V138H240.181V121.5H242.78ZM249.999 126.377L244.939 131.984L242.168 134.82L241.491 132.629L243.586 130.04L246.873 126.377H249.999ZM247.432 138L243.661 132.543L245.294 130.728L250.429 138H247.432ZM258.195 135.669V130.126C258.195 129.711 258.12 129.353 257.97 129.052C257.819 128.751 257.59 128.518 257.282 128.354C256.981 128.189 256.602 128.106 256.144 128.106C255.721 128.106 255.356 128.178 255.048 128.321C254.74 128.465 254.5 128.658 254.328 128.901C254.156 129.145 254.07 129.421 254.07 129.729H251.492C251.492 129.27 251.603 128.826 251.825 128.396C252.047 127.967 252.369 127.584 252.792 127.247C253.215 126.91 253.719 126.646 254.307 126.452C254.894 126.259 255.553 126.162 256.283 126.162C257.157 126.162 257.93 126.309 258.604 126.603C259.284 126.896 259.817 127.34 260.204 127.935C260.598 128.522 260.795 129.259 260.795 130.147V135.314C260.795 135.844 260.831 136.321 260.902 136.743C260.981 137.159 261.092 137.52 261.235 137.828V138H258.582C258.46 137.721 258.364 137.366 258.292 136.937C258.228 136.5 258.195 136.077 258.195 135.669ZM258.571 130.932L258.593 132.532H256.734C256.255 132.532 255.832 132.579 255.467 132.672C255.102 132.758 254.797 132.887 254.554 133.059C254.31 133.23 254.128 133.438 254.006 133.682C253.884 133.925 253.823 134.201 253.823 134.509C253.823 134.817 253.895 135.1 254.038 135.357C254.181 135.608 254.389 135.805 254.661 135.948C254.94 136.091 255.277 136.163 255.671 136.163C256.201 136.163 256.663 136.056 257.057 135.841C257.458 135.619 257.773 135.35 258.002 135.035C258.231 134.713 258.353 134.409 258.367 134.122L259.205 135.271C259.119 135.565 258.972 135.88 258.765 136.217C258.557 136.553 258.285 136.876 257.948 137.184C257.619 137.484 257.221 137.731 256.756 137.925C256.298 138.118 255.768 138.215 255.166 138.215C254.407 138.215 253.73 138.064 253.136 137.764C252.541 137.456 252.076 137.044 251.739 136.528C251.403 136.006 251.234 135.415 251.234 134.756C251.234 134.14 251.349 133.596 251.578 133.123C251.814 132.643 252.158 132.242 252.609 131.92C253.068 131.598 253.626 131.354 254.285 131.189C254.944 131.018 255.696 130.932 256.541 130.932H258.571ZM22.1035 149.5V166H19.5039V149.5H22.1035ZM31.9326 163.261V154.377H34.5322V166H32.083L31.9326 163.261ZM32.2979 160.844L33.168 160.822C33.168 161.603 33.082 162.323 32.9102 162.981C32.7383 163.633 32.4733 164.202 32.1152 164.689C31.7572 165.169 31.2988 165.545 30.7402 165.817C30.1816 166.082 29.512 166.215 28.7314 166.215C28.1657 166.215 27.6465 166.132 27.1738 165.968C26.7012 165.803 26.293 165.549 25.9492 165.205C25.6126 164.861 25.3512 164.414 25.165 163.862C24.9788 163.311 24.8857 162.652 24.8857 161.886V154.377H27.4746V161.907C27.4746 162.33 27.5247 162.684 27.625 162.971C27.7253 163.25 27.8613 163.476 28.0332 163.647C28.2051 163.819 28.4056 163.941 28.6348 164.013C28.8639 164.084 29.1074 164.12 29.3652 164.12C30.1029 164.12 30.6829 163.977 31.1055 163.69C31.5352 163.397 31.8395 163.003 32.0186 162.509C32.2048 162.015 32.2979 161.46 32.2979 160.844ZM44.6299 154.377H46.9824V165.678C46.9824 166.723 46.7604 167.611 46.3164 168.342C45.8724 169.072 45.2529 169.627 44.458 170.007C43.6631 170.394 42.7428 170.587 41.6973 170.587C41.2533 170.587 40.7591 170.522 40.2148 170.394C39.6777 170.265 39.1549 170.057 38.6465 169.771C38.1452 169.491 37.7262 169.122 37.3896 168.664L38.6035 167.139C39.0189 167.633 39.4772 167.994 39.9785 168.224C40.4798 168.453 41.0062 168.567 41.5576 168.567C42.152 168.567 42.6569 168.456 43.0723 168.234C43.4948 168.02 43.8206 167.701 44.0498 167.278C44.279 166.856 44.3936 166.34 44.3936 165.731V157.009L44.6299 154.377ZM36.7344 160.317V160.092C36.7344 159.211 36.8418 158.409 37.0566 157.686C37.2715 156.955 37.5794 156.328 37.9805 155.806C38.3815 155.276 38.8685 154.871 39.4414 154.592C40.0143 154.305 40.6624 154.162 41.3857 154.162C42.1377 154.162 42.7786 154.298 43.3086 154.57C43.8457 154.842 44.2933 155.233 44.6514 155.741C45.0094 156.243 45.2887 156.844 45.4893 157.546C45.6969 158.241 45.8509 159.014 45.9512 159.866V160.586C45.8581 161.417 45.7005 162.176 45.4785 162.863C45.2565 163.551 44.9629 164.145 44.5977 164.646C44.2324 165.148 43.7812 165.535 43.2441 165.807C42.7142 166.079 42.0876 166.215 41.3643 166.215C40.6553 166.215 40.0143 166.068 39.4414 165.774C38.8757 165.481 38.3887 165.069 37.9805 164.539C37.5794 164.009 37.2715 163.386 37.0566 162.67C36.8418 161.947 36.7344 161.162 36.7344 160.317ZM39.3232 160.092V160.317C39.3232 160.847 39.3734 161.341 39.4736 161.8C39.5811 162.258 39.7422 162.663 39.957 163.014C40.179 163.357 40.4583 163.63 40.7949 163.83C41.1387 164.023 41.5433 164.12 42.0088 164.12C42.6175 164.12 43.1152 163.991 43.502 163.733C43.8958 163.476 44.1966 163.128 44.4043 162.691C44.6191 162.247 44.7695 161.753 44.8555 161.209V159.265C44.8125 158.842 44.723 158.448 44.5869 158.083C44.458 157.718 44.2826 157.399 44.0605 157.127C43.8385 156.848 43.5592 156.633 43.2227 156.482C42.8861 156.325 42.4886 156.246 42.0303 156.246C41.5648 156.246 41.1602 156.346 40.8164 156.547C40.4727 156.747 40.1898 157.023 39.9678 157.374C39.7529 157.725 39.5918 158.133 39.4844 158.599C39.377 159.064 39.3232 159.562 39.3232 160.092ZM54.792 166.215C53.9326 166.215 53.1556 166.075 52.4609 165.796C51.7734 165.509 51.1862 165.112 50.6992 164.604C50.2194 164.095 49.8506 163.497 49.5928 162.81C49.335 162.122 49.2061 161.381 49.2061 160.586V160.156C49.2061 159.247 49.3385 158.423 49.6035 157.686C49.8685 156.948 50.2373 156.318 50.71 155.795C51.1826 155.265 51.7412 154.86 52.3857 154.581C53.0303 154.302 53.7285 154.162 54.4805 154.162C55.3112 154.162 56.0381 154.302 56.6611 154.581C57.2842 154.86 57.7998 155.254 58.208 155.763C58.6234 156.264 58.9313 156.862 59.1318 157.557C59.3395 158.251 59.4434 159.018 59.4434 159.855V160.962H50.4629V159.104H56.8867V158.899C56.8724 158.434 56.7793 157.997 56.6074 157.589C56.4427 157.181 56.1885 156.851 55.8447 156.601C55.501 156.35 55.0426 156.225 54.4697 156.225C54.04 156.225 53.6569 156.318 53.3203 156.504C52.9909 156.683 52.7152 156.944 52.4932 157.288C52.2712 157.632 52.0993 158.047 51.9775 158.534C51.863 159.014 51.8057 159.555 51.8057 160.156V160.586C51.8057 161.094 51.8737 161.567 52.0098 162.004C52.153 162.434 52.3607 162.81 52.6328 163.132C52.9049 163.454 53.2344 163.708 53.6211 163.895C54.0078 164.074 54.4482 164.163 54.9424 164.163C55.5654 164.163 56.1204 164.038 56.6074 163.787C57.0944 163.536 57.5169 163.182 57.875 162.724L59.2393 164.045C58.9886 164.41 58.6628 164.761 58.2617 165.098C57.8607 165.427 57.3701 165.696 56.79 165.903C56.2171 166.111 55.5511 166.215 54.792 166.215ZM68.5527 163.594V149.5H71.1523V166H68.7998L68.5527 163.594ZM60.9902 160.317V160.092C60.9902 159.211 61.0941 158.409 61.3018 157.686C61.5094 156.955 61.8102 156.328 62.2041 155.806C62.598 155.276 63.0778 154.871 63.6436 154.592C64.2093 154.305 64.8467 154.162 65.5557 154.162C66.2575 154.162 66.8734 154.298 67.4033 154.57C67.9333 154.842 68.3844 155.233 68.7568 155.741C69.1292 156.243 69.4264 156.844 69.6484 157.546C69.8704 158.241 70.028 159.014 70.1211 159.866V160.586C70.028 161.417 69.8704 162.176 69.6484 162.863C69.4264 163.551 69.1292 164.145 68.7568 164.646C68.3844 165.148 67.9297 165.535 67.3926 165.807C66.8626 166.079 66.2432 166.215 65.5342 166.215C64.8324 166.215 64.1986 166.068 63.6328 165.774C63.0742 165.481 62.598 165.069 62.2041 164.539C61.8102 164.009 61.5094 163.386 61.3018 162.67C61.0941 161.947 60.9902 161.162 60.9902 160.317ZM63.5791 160.092V160.317C63.5791 160.847 63.6257 161.341 63.7188 161.8C63.819 162.258 63.973 162.663 64.1807 163.014C64.3883 163.357 64.6569 163.63 64.9863 163.83C65.3229 164.023 65.724 164.12 66.1895 164.12C66.7767 164.12 67.2601 163.991 67.6396 163.733C68.0192 163.476 68.3164 163.128 68.5312 162.691C68.7533 162.247 68.9036 161.753 68.9824 161.209V159.265C68.9395 158.842 68.8499 158.448 68.7139 158.083C68.585 157.718 68.4095 157.399 68.1875 157.127C67.9655 156.848 67.6898 156.633 67.3604 156.482C67.0381 156.325 66.6549 156.246 66.2109 156.246C65.7383 156.246 65.3372 156.346 65.0078 156.547C64.6784 156.747 64.4062 157.023 64.1914 157.374C63.9837 157.725 63.8298 158.133 63.7295 158.599C63.6292 159.064 63.5791 159.562 63.5791 160.092ZM80.4121 163.669V158.126C80.4121 157.711 80.3369 157.353 80.1865 157.052C80.0361 156.751 79.807 156.518 79.499 156.354C79.1982 156.189 78.8187 156.106 78.3604 156.106C77.9378 156.106 77.5726 156.178 77.2646 156.321C76.9567 156.465 76.7168 156.658 76.5449 156.901C76.373 157.145 76.2871 157.421 76.2871 157.729H73.709C73.709 157.27 73.82 156.826 74.042 156.396C74.264 155.967 74.5863 155.584 75.0088 155.247C75.4313 154.91 75.9362 154.646 76.5234 154.452C77.1107 154.259 77.7695 154.162 78.5 154.162C79.3737 154.162 80.1471 154.309 80.8203 154.603C81.5007 154.896 82.0342 155.34 82.4209 155.935C82.8148 156.522 83.0117 157.259 83.0117 158.147V163.314C83.0117 163.844 83.0475 164.321 83.1191 164.743C83.1979 165.159 83.3089 165.52 83.4521 165.828V166H80.7988C80.6771 165.721 80.5804 165.366 80.5088 164.937C80.4443 164.5 80.4121 164.077 80.4121 163.669ZM80.7881 158.932L80.8096 160.532H78.9512C78.4714 160.532 78.0488 160.579 77.6836 160.672C77.3184 160.758 77.014 160.887 76.7705 161.059C76.527 161.23 76.3444 161.438 76.2227 161.682C76.1009 161.925 76.04 162.201 76.04 162.509C76.04 162.817 76.1117 163.1 76.2549 163.357C76.3981 163.608 76.6058 163.805 76.8779 163.948C77.1572 164.091 77.4938 164.163 77.8877 164.163C78.4176 164.163 78.8796 164.056 79.2734 163.841C79.6745 163.619 79.9896 163.35 80.2188 163.035C80.4479 162.713 80.5697 162.409 80.584 162.122L81.4219 163.271C81.3359 163.565 81.1891 163.88 80.9814 164.217C80.7738 164.553 80.5016 164.876 80.165 165.184C79.8356 165.484 79.4382 165.731 78.9727 165.925C78.5143 166.118 77.9844 166.215 77.3828 166.215C76.6237 166.215 75.9469 166.064 75.3525 165.764C74.7581 165.456 74.2926 165.044 73.9561 164.528C73.6195 164.006 73.4512 163.415 73.4512 162.756C73.4512 162.14 73.5658 161.596 73.7949 161.123C74.0312 160.643 74.375 160.242 74.8262 159.92C75.2845 159.598 75.8431 159.354 76.502 159.189C77.1608 159.018 77.9128 158.932 78.7578 158.932H80.7881ZM85.8262 164.711C85.8262 164.31 85.9622 163.973 86.2344 163.701C86.5065 163.422 86.8753 163.282 87.3408 163.282C87.8135 163.282 88.1823 163.422 88.4473 163.701C88.7194 163.973 88.8555 164.31 88.8555 164.711C88.8555 165.112 88.7194 165.449 88.4473 165.721C88.1823 165.993 87.8135 166.129 87.3408 166.129C86.8753 166.129 86.5065 165.993 86.2344 165.721C85.9622 165.449 85.8262 165.112 85.8262 164.711Z" fill="#461102"/>
<path d="M28.384 189.772C30.4373 189.772 32.212 190.153 33.708 190.916C35.204 191.649 36.3333 192.661 37.096 193.952C37.888 195.213 38.284 196.621 38.284 198.176C38.284 199.789 37.932 201.344 37.228 202.84C36.5533 204.336 35.38 206.023 33.708 207.9C32.0653 209.777 29.66 212.197 26.492 215.16H38.944L38.24 220H19.364V215.468C23.06 211.772 25.7293 209.015 27.372 207.196C29.0147 205.377 30.1733 203.837 30.848 202.576C31.5227 201.315 31.86 200.024 31.86 198.704C31.86 197.443 31.4933 196.445 30.76 195.712C30.0267 194.979 29.044 194.612 27.812 194.612C26.7267 194.612 25.7587 194.861 24.908 195.36C24.0573 195.829 23.1627 196.621 22.224 197.736L18.484 194.744C21.0067 191.429 24.3067 189.772 28.384 189.772ZM61.9938 210.188C62.4045 212.212 63.1525 213.693 64.2378 214.632C65.3525 215.571 66.8338 216.04 68.6818 216.04C70.6471 216.04 72.7591 215.424 75.0178 214.192V219.032C73.8151 219.589 72.6711 220 71.5858 220.264C70.5005 220.557 69.3125 220.704 68.0218 220.704C64.7071 220.704 61.9791 219.795 59.8378 217.976C57.7258 216.128 56.3325 213.532 55.6578 210.188H51.8298L52.7098 206.8H55.4818V203.5H51.8298L52.7098 200.068H55.7018C56.5231 196.871 58.0485 194.363 60.2778 192.544C62.5365 190.696 65.1911 189.772 68.2418 189.772C71.2925 189.772 74.0498 190.608 76.5138 192.28L74.2698 196.152C73.3311 195.536 72.4071 195.096 71.4978 194.832C70.5885 194.539 69.5765 194.392 68.4618 194.392C66.9365 194.392 65.6311 194.861 64.5458 195.8C63.4605 196.739 62.6538 198.161 62.1258 200.068H72.9058L72.0258 203.5H61.8178V206.8H71.3218L70.4858 210.188H61.9938Z" fill="#E3000F"/>
<path d="M95.5889 209.672V211.5H86.9229V209.936L91.0801 205.444C91.5137 204.952 91.8564 204.524 92.1084 204.161C92.3604 203.798 92.5391 203.47 92.6445 203.177C92.7559 202.878 92.8115 202.594 92.8115 202.324C92.8115 201.932 92.7412 201.589 92.6006 201.296C92.46 200.997 92.2549 200.766 91.9854 200.602C91.7217 200.438 91.3965 200.355 91.0098 200.355C90.582 200.355 90.2158 200.455 89.9111 200.654C89.6123 200.848 89.3838 201.117 89.2256 201.463C89.0732 201.809 88.9971 202.204 88.9971 202.649H86.668C86.668 201.894 86.8438 201.205 87.1953 200.584C87.5469 199.957 88.0508 199.456 88.707 199.081C89.3633 198.706 90.1426 198.519 91.0449 198.519C91.9238 198.519 92.668 198.665 93.2773 198.958C93.8867 199.245 94.3496 199.655 94.666 200.188C94.9824 200.722 95.1406 201.357 95.1406 202.096C95.1406 202.506 95.0732 202.91 94.9385 203.309C94.8037 203.707 94.6133 204.103 94.3672 204.495C94.127 204.882 93.8398 205.274 93.5059 205.673C93.1719 206.071 92.7998 206.479 92.3896 206.895L89.8936 209.672H95.5889ZM104.132 197.991V211.5H101.812V197.991H104.132ZM110.091 201.99L105.951 206.64L103.71 208.916L102.972 207.114L104.703 204.935L107.287 201.99H110.091ZM107.718 211.5L104.773 207.07L106.32 205.567L110.407 211.5H107.718ZM116.981 209.241V201.99H119.319V211.5H117.122L116.981 209.241ZM117.28 207.272L118.001 207.255C118.001 207.894 117.931 208.482 117.79 209.021C117.649 209.561 117.43 210.029 117.131 210.428C116.838 210.82 116.466 211.128 116.015 211.351C115.563 211.567 115.03 211.676 114.415 211.676C113.946 211.676 113.519 211.611 113.132 211.482C112.745 211.348 112.411 211.14 112.13 210.858C111.854 210.571 111.641 210.205 111.488 209.76C111.336 209.309 111.26 208.767 111.26 208.134V201.99H113.58V208.151C113.58 208.468 113.615 208.731 113.686 208.942C113.762 209.153 113.864 209.326 113.993 209.461C114.128 209.59 114.283 209.684 114.459 209.742C114.641 209.795 114.834 209.821 115.039 209.821C115.602 209.821 116.044 209.71 116.366 209.487C116.694 209.259 116.929 208.954 117.069 208.573C117.21 208.187 117.28 207.753 117.28 207.272ZM127.036 209.241V201.99H129.374V211.5H127.177L127.036 209.241ZM127.335 207.272L128.056 207.255C128.056 207.894 127.985 208.482 127.845 209.021C127.704 209.561 127.484 210.029 127.186 210.428C126.893 210.82 126.521 211.128 126.069 211.351C125.618 211.567 125.085 211.676 124.47 211.676C124.001 211.676 123.573 211.611 123.187 211.482C122.8 211.348 122.466 211.14 122.185 210.858C121.909 210.571 121.695 210.205 121.543 209.76C121.391 209.309 121.314 208.767 121.314 208.134V201.99H123.635V208.151C123.635 208.468 123.67 208.731 123.74 208.942C123.816 209.153 123.919 209.326 124.048 209.461C124.183 209.59 124.338 209.684 124.514 209.742C124.695 209.795 124.889 209.821 125.094 209.821C125.656 209.821 126.099 209.71 126.421 209.487C126.749 209.259 126.983 208.954 127.124 208.573C127.265 208.187 127.335 207.753 127.335 207.272ZM137.135 209.479V198H139.473V211.5H137.363L137.135 209.479ZM131.026 206.859V206.675C131.026 205.948 131.108 205.289 131.272 204.697C131.442 204.1 131.688 203.587 132.011 203.159C132.333 202.731 132.723 202.4 133.18 202.166C133.643 201.932 134.167 201.814 134.753 201.814C135.321 201.814 135.816 201.929 136.238 202.157C136.666 202.386 137.029 202.711 137.328 203.133C137.633 203.555 137.876 204.056 138.058 204.636C138.239 205.21 138.371 205.843 138.453 206.534V207.035C138.371 207.709 138.239 208.327 138.058 208.89C137.876 209.452 137.633 209.944 137.328 210.366C137.029 210.782 136.666 211.104 136.238 211.333C135.811 211.562 135.31 211.676 134.735 211.676C134.155 211.676 133.634 211.556 133.171 211.315C132.714 211.075 132.324 210.738 132.002 210.305C131.686 209.871 131.442 209.361 131.272 208.775C131.108 208.189 131.026 207.551 131.026 206.859ZM133.355 206.675V206.859C133.355 207.27 133.391 207.653 133.461 208.011C133.531 208.368 133.646 208.685 133.804 208.96C133.962 209.229 134.164 209.44 134.41 209.593C134.662 209.745 134.967 209.821 135.324 209.821C135.781 209.821 136.156 209.722 136.449 209.522C136.748 209.317 136.979 209.039 137.144 208.688C137.308 208.33 137.413 207.929 137.46 207.483V206.104C137.437 205.752 137.375 205.427 137.275 205.128C137.182 204.829 137.047 204.571 136.871 204.354C136.701 204.138 136.49 203.968 136.238 203.845C135.986 203.722 135.688 203.66 135.342 203.66C134.984 203.66 134.68 203.739 134.428 203.897C134.176 204.05 133.971 204.264 133.812 204.539C133.654 204.814 133.537 205.134 133.461 205.497C133.391 205.86 133.355 206.253 133.355 206.675Z" fill="#461102"/>
<rect x="164" y="188" width="168" height="34" rx="8.5" fill="#E3000F"/>
<path d="M190.163 199.219L189.891 201.361H186.984V211H184.196V201.361H181.153V199.219H190.163ZM198.511 199.219L198.222 201.208H194.074V204.03H197.695V205.985H194.074V208.994H198.511V211H191.286V199.219H198.511ZM203.022 199.219V208.79H207.612L207.323 211H200.234V199.219H203.022ZM211.738 199.219V208.79H216.328L216.039 211H208.95V199.219H211.738ZM220.454 199.219V211H217.666V199.219H220.454ZM229.961 199.219C231.809 199.219 233.288 199.638 234.398 200.477C235.52 201.304 236.081 202.829 236.081 205.05C236.081 207.237 235.537 208.779 234.449 209.674C233.361 210.558 231.95 211 230.216 211H226.68V199.219H229.961ZM229.468 201.242V208.977H230.386C231.304 208.977 232.001 208.694 232.477 208.127C232.953 207.549 233.191 206.523 233.191 205.05C233.191 204.041 233.072 203.259 232.834 202.704C232.596 202.149 232.273 201.769 231.865 201.565C231.457 201.35 230.953 201.242 230.352 201.242H229.468ZM240.541 199.219V211H237.753V199.219H240.541ZM247.834 198.93C249.353 198.93 250.662 199.412 251.761 200.375L250.35 201.854C249.931 201.537 249.54 201.31 249.177 201.174C248.826 201.027 248.418 200.953 247.953 200.953C247.08 200.953 246.383 201.299 245.862 201.99C245.341 202.67 245.08 203.707 245.08 205.101C245.08 206.608 245.278 207.679 245.675 208.314C246.072 208.937 246.689 209.249 247.528 209.249C248.117 209.249 248.65 209.119 249.126 208.858V206.189H247.596L247.324 204.217H251.829V210.048C251.217 210.445 250.543 210.751 249.806 210.966C249.069 211.181 248.333 211.289 247.596 211.289C245.805 211.289 244.457 210.768 243.55 209.725C242.643 208.671 242.19 207.13 242.19 205.101C242.19 203.809 242.434 202.698 242.921 201.769C243.42 200.84 244.094 200.137 244.944 199.661C245.805 199.174 246.769 198.93 247.834 198.93ZM256.479 199.219V211H253.691V199.219H256.479ZM262.479 199.219C264.032 199.219 265.239 199.542 266.1 200.188C266.962 200.834 267.392 201.792 267.392 203.061C267.392 204.387 266.967 205.39 266.117 206.07C265.279 206.739 264.151 207.073 262.734 207.073H261.459V211H258.671V199.219H262.479ZM262.496 205.067C263.154 205.067 263.652 204.914 263.992 204.608C264.344 204.291 264.519 203.775 264.519 203.061C264.519 201.826 263.828 201.208 262.445 201.208H261.459V205.067H262.496ZM274.057 211L273.445 208.467H270.011L269.416 211H266.526L270.079 199.219H273.462L277.015 211H274.057ZM270.487 206.444H272.969L271.728 201.242L270.487 206.444ZM280.667 199.219V211H277.879V199.219H280.667ZM287.433 199.219L283.676 204.506L287.739 211H284.509L280.752 204.71L284.492 199.219H287.433ZM295.862 199.219L295.573 201.208H291.425V204.03H295.046V205.985H291.425V208.994H295.862V211H288.637V199.219H295.862ZM305.643 199.219L305.371 201.361H302.464V211H299.676V201.361H296.633V199.219H305.643ZM314.824 199.219L314.552 201.361H311.645V211H308.857V201.361H305.814V199.219H314.824Z" fill="#FFE80D"/>
</svg>
