<svg width="600" height="260" viewBox="0 0 600 260" fill="none" xmlns="http://www.w3.org/2000/svg">
<rect width="600" height="260" fill="#330B6A"/>
<path d="M53.6924 27.6425V60H46.035V27.6425H53.6924ZM72.2758 27.6425L61.9569 42.1637L73.1163 60H64.2448L53.9259 42.724L64.1981 27.6425H72.2758ZM96.8234 47.113C96.8234 48.1403 96.7767 49.0274 96.6833 49.7745H81.3216C81.5707 51.86 82.1621 53.3231 83.0959 54.1635C84.0298 55.004 85.3216 55.4242 86.9714 55.4242C87.9675 55.4242 88.9324 55.253 89.8663 54.9106C90.8001 54.537 91.8118 53.9767 92.9012 53.2297L95.9362 57.3386C93.0413 59.642 89.8196 60.7938 86.271 60.7938C82.2555 60.7938 79.1738 59.6109 77.026 57.2452C74.8782 54.8795 73.8042 51.7044 73.8042 47.72C73.8042 45.1987 74.2556 42.9419 75.1583 40.9497C76.061 38.9264 77.384 37.3389 79.1271 36.1871C80.8703 35.0043 82.9559 34.4128 85.3838 34.4128C88.9636 34.4128 91.7651 35.5334 93.7884 37.7747C95.8117 40.0159 96.8234 43.1287 96.8234 47.113ZM89.5861 45.0119C89.5239 41.2143 88.1854 39.3155 85.5706 39.3155C84.2944 39.3155 83.2983 39.7824 82.5823 40.7162C81.8975 41.6501 81.4773 43.1909 81.3216 45.3387H89.5861V45.0119ZM110.283 34.4128C112.057 34.4128 113.722 34.6774 115.279 35.2066C116.835 35.7358 118.205 36.4828 119.388 37.4478L116.679 41.6034C114.656 40.3271 112.617 39.689 110.563 39.689C109.598 39.689 108.851 39.8602 108.322 40.2026C107.824 40.5139 107.575 40.9653 107.575 41.5567C107.575 42.0236 107.683 42.4127 107.901 42.724C108.15 43.0041 108.633 43.2999 109.349 43.6111C110.065 43.9224 111.17 44.296 112.664 44.7317C115.248 45.4788 117.162 46.4594 118.407 47.6733C119.683 48.8562 120.321 50.506 120.321 52.6227C120.321 54.3036 119.839 55.7666 118.874 57.0117C117.909 58.2257 116.586 59.1595 114.905 59.8132C113.224 60.4669 111.357 60.7938 109.302 60.7938C107.217 60.7938 105.271 60.4669 103.466 59.8132C101.691 59.1595 100.182 58.2568 98.9365 57.1051L102.532 53.0896C104.617 54.7083 106.812 55.5176 109.115 55.5176C110.236 55.5176 111.108 55.3152 111.73 54.9106C112.384 54.5059 112.711 53.9301 112.711 53.183C112.711 52.5916 112.586 52.1246 112.337 51.7822C112.088 51.4398 111.606 51.1285 110.89 50.8484C110.174 50.5371 109.038 50.1636 107.481 49.7278C105.022 49.0118 103.185 48.0157 101.971 46.7395C100.758 45.4633 100.151 43.8757 100.151 41.9769C100.151 40.545 100.555 39.2688 101.365 38.1482C102.205 36.9965 103.388 36.0937 104.913 35.4401C106.469 34.7552 108.259 34.4128 110.283 34.4128ZM151.918 58.8327C151.015 59.4553 149.957 59.9377 148.743 60.2802C147.56 60.6226 146.377 60.7938 145.194 60.7938C139.778 60.7626 137.07 57.7744 137.07 51.8289V40.3427H133.568V35.2066H137.07V29.837L144.447 28.9966V35.2066H150.144L149.35 40.3427H144.447V51.7355C144.447 52.8873 144.634 53.7122 145.008 54.2102C145.381 54.7083 145.973 54.9573 146.782 54.9573C147.622 54.9573 148.509 54.6927 149.443 54.1635L151.918 58.8327ZM164.883 34.4128C168.68 34.4128 171.653 35.5801 173.801 37.9147C175.949 40.2182 177.023 43.4555 177.023 47.6266C177.023 50.2725 176.524 52.5916 175.528 54.5837C174.563 56.5448 173.163 58.0701 171.326 59.1595C169.521 60.249 167.373 60.7938 164.883 60.7938C161.116 60.7938 158.143 59.642 155.964 57.3386C153.817 55.004 152.743 51.7511 152.743 47.58C152.743 44.9341 153.225 42.6306 154.19 40.6696C155.186 38.6774 156.587 37.1365 158.392 36.0471C160.229 34.9576 162.392 34.4128 164.883 34.4128ZM164.883 39.8291C163.388 39.8291 162.268 40.4672 161.521 41.7435C160.774 42.9886 160.4 44.9341 160.4 47.58C160.4 50.2881 160.758 52.2647 161.474 53.5098C162.221 54.7549 163.357 55.3775 164.883 55.3775C166.377 55.3775 167.497 54.7549 168.244 53.5098C168.992 52.2336 169.365 50.2725 169.365 47.6266C169.365 44.9185 168.992 42.9419 168.244 41.6968C167.529 40.4517 166.408 39.8291 164.883 39.8291ZM167.591 30.3506C166.906 30.3506 166.315 30.2417 165.816 30.0238C165.318 29.8059 164.774 29.4946 164.182 29.09C163.404 28.5297 162.766 28.2495 162.268 28.2495C161.739 28.2495 161.287 28.4207 160.914 28.7631C160.571 29.0744 160.198 29.588 159.793 30.304L156.105 28.5297C156.727 26.911 157.552 25.5881 158.579 24.5608C159.638 23.5336 160.82 23.02 162.128 23.02C162.844 23.02 163.451 23.1445 163.949 23.3936C164.478 23.6114 165.054 23.9227 165.676 24.3274C166.112 24.6075 166.455 24.8099 166.704 24.9344C166.984 25.0589 167.264 25.1212 167.544 25.1212C168.042 25.1212 168.462 24.9655 168.805 24.6542C169.178 24.3118 169.567 23.7827 169.972 23.0667L173.661 24.8877C173.007 26.5375 172.151 27.8604 171.093 28.8565C170.065 29.8526 168.898 30.3506 167.591 30.3506ZM190.726 34.4128C192.5 34.4128 194.165 34.6774 195.722 35.2066C197.278 35.7358 198.648 36.4828 199.831 37.4478L197.123 41.6034C195.099 40.3271 193.06 39.689 191.006 39.689C190.041 39.689 189.294 39.8602 188.765 40.2026C188.267 40.5139 188.018 40.9653 188.018 41.5567C188.018 42.0236 188.127 42.4127 188.345 42.724C188.594 43.0041 189.076 43.2999 189.792 43.6111C190.508 43.9224 191.613 44.296 193.107 44.7317C195.691 45.4788 197.605 46.4594 198.85 47.6733C200.126 48.8562 200.765 50.506 200.765 52.6227C200.765 54.3036 200.282 55.7666 199.317 57.0117C198.352 58.2257 197.029 59.1595 195.348 59.8132C193.667 60.4669 191.8 60.7938 189.745 60.7938C187.66 60.7938 185.714 60.4669 183.909 59.8132C182.135 59.1595 180.625 58.2568 179.38 57.1051L182.975 53.0896C185.061 54.7083 187.255 55.5176 189.559 55.5176C190.679 55.5176 191.551 55.3152 192.173 54.9106C192.827 54.5059 193.154 53.9301 193.154 53.183C193.154 52.5916 193.029 52.1246 192.78 51.7822C192.531 51.4398 192.049 51.1285 191.333 50.8484C190.617 50.5371 189.481 50.1636 187.924 49.7278C185.465 49.0118 183.629 48.0157 182.415 46.7395C181.201 45.4633 180.594 43.8757 180.594 41.9769C180.594 40.545 180.998 39.2688 181.808 38.1482C182.648 36.9965 183.831 36.0937 185.356 35.4401C186.913 34.7552 188.703 34.4128 190.726 34.4128ZM220.697 58.8327C219.795 59.4553 218.736 59.9377 217.522 60.2802C216.339 60.6226 215.157 60.7938 213.974 60.7938C208.557 60.7626 205.849 57.7744 205.849 51.8289V40.3427H202.347V35.2066H205.849V29.837L213.227 28.9966V35.2066H218.923L218.129 40.3427H213.227V51.7355C213.227 52.8873 213.413 53.7122 213.787 54.2102C214.16 54.7083 214.752 54.9573 215.561 54.9573C216.402 54.9573 217.289 54.6927 218.223 54.1635L220.697 58.8327ZM242.9 52.8094C242.9 53.7433 243.025 54.4281 243.274 54.8639C243.554 55.2997 243.99 55.6265 244.581 55.8444L243.04 60.6537C241.515 60.5292 240.27 60.2023 239.305 59.6732C238.34 59.1129 237.593 58.2413 237.064 57.0584C235.445 59.5486 232.955 60.7938 229.593 60.7938C227.134 60.7938 225.173 60.0778 223.71 58.6459C222.247 57.2141 221.516 55.3464 221.516 53.0429C221.516 50.3348 222.512 48.2648 224.504 46.8329C226.496 45.401 229.375 44.6851 233.142 44.6851H235.663V43.6111C235.663 42.1481 235.352 41.152 234.729 40.6229C234.107 40.0626 233.017 39.7824 231.461 39.7824C230.652 39.7824 229.671 39.9069 228.519 40.1559C227.368 40.3738 226.185 40.6851 224.971 41.0898L223.29 36.2338C224.846 35.6424 226.434 35.191 228.052 34.8798C229.702 34.5685 231.227 34.4128 232.628 34.4128C236.177 34.4128 238.776 35.1443 240.426 36.6074C242.076 38.0704 242.9 40.2649 242.9 43.1909V52.8094ZM231.741 55.5176C233.422 55.5176 234.729 54.7238 235.663 53.1363V48.7473H233.842C232.161 48.7473 230.901 49.043 230.06 49.6344C229.251 50.2258 228.846 51.1441 228.846 52.3892C228.846 53.3853 229.095 54.1635 229.593 54.7238C230.122 55.253 230.838 55.5176 231.741 55.5176ZM263.415 34.4128C266.372 34.4128 268.644 35.5801 270.232 37.9147C271.819 40.2182 272.613 43.4555 272.613 47.6266C272.613 50.1791 272.208 52.4515 271.399 54.4437C270.621 56.4359 269.485 57.9922 267.99 59.1129C266.527 60.2335 264.784 60.7938 262.761 60.7938C261.422 60.7938 260.193 60.5136 259.072 59.9533C257.983 59.393 257.049 58.6148 256.271 57.6187L255.897 60H249.36V25.3546L256.738 24.5608V37.728C257.485 36.7007 258.434 35.8914 259.586 35.3C260.769 34.7086 262.045 34.4128 263.415 34.4128ZM260.613 55.4242C263.508 55.4242 264.955 52.825 264.955 47.6266C264.955 44.6695 264.613 42.6306 263.928 41.51C263.243 40.3894 262.247 39.8291 260.94 39.8291C259.29 39.8291 257.889 40.7941 256.738 42.724V53.0429C257.205 53.79 257.765 54.3814 258.419 54.8172C259.103 55.2219 259.835 55.4242 260.613 55.4242ZM296.799 57.1985C296.799 59.7821 296.378 61.9144 295.538 63.5953C294.729 65.2762 293.608 66.6147 292.176 67.6108C290.775 68.638 289.001 69.5407 286.853 70.3189L284.378 64.9493C285.592 64.389 286.542 63.8443 287.227 63.3151C287.912 62.7859 288.441 62.07 288.814 61.1673C289.219 60.2957 289.421 59.1284 289.421 57.6654V35.2066H296.799V57.1985ZM293.11 22.1329C294.386 22.1329 295.429 22.5375 296.238 23.3469C297.079 24.1251 297.499 25.1212 297.499 26.3351C297.499 27.5491 297.079 28.5608 296.238 29.3701C295.429 30.1483 294.386 30.5374 293.11 30.5374C291.834 30.5374 290.791 30.1483 289.982 29.3701C289.172 28.5608 288.768 27.5491 288.768 26.3351C288.768 25.1212 289.172 24.1251 289.982 23.3469C290.791 22.5375 291.834 22.1329 293.11 22.1329ZM322.888 52.8094C322.888 53.7433 323.012 54.4281 323.261 54.8639C323.541 55.2997 323.977 55.6265 324.569 55.8444L323.028 60.6537C321.502 60.5292 320.257 60.2023 319.292 59.6732C318.327 59.1129 317.58 58.2413 317.051 57.0584C315.432 59.5486 312.942 60.7938 309.58 60.7938C307.121 60.7938 305.16 60.0778 303.697 58.6459C302.234 57.2141 301.503 55.3464 301.503 53.0429C301.503 50.3348 302.499 48.2648 304.491 46.8329C306.483 45.401 309.363 44.6851 313.129 44.6851H315.65V43.6111C315.65 42.1481 315.339 41.152 314.717 40.6229C314.094 40.0626 313.005 39.7824 311.448 39.7824C310.639 39.7824 309.658 39.9069 308.507 40.1559C307.355 40.3738 306.172 40.6851 304.958 41.0898L303.277 36.2338C304.833 35.6424 306.421 35.191 308.04 34.8798C309.689 34.5685 311.215 34.4128 312.615 34.4128C316.164 34.4128 318.763 35.1443 320.413 36.6074C322.063 38.0704 322.888 40.2649 322.888 43.1909V52.8094ZM311.728 55.5176C313.409 55.5176 314.717 54.7238 315.65 53.1363V48.7473H313.829C312.148 48.7473 310.888 49.043 310.047 49.6344C309.238 50.2258 308.833 51.1441 308.833 52.3892C308.833 53.3853 309.082 54.1635 309.58 54.7238C310.11 55.253 310.826 55.5176 311.728 55.5176ZM335.475 60.7938C333.327 60.7938 331.646 60.1868 330.432 58.9728C329.25 57.7277 328.658 55.9689 328.658 53.6966V25.3546L336.035 24.5608V53.4164C336.035 54.4437 336.456 54.9573 337.296 54.9573C337.732 54.9573 338.137 54.8795 338.51 54.7238L339.958 59.9533C338.619 60.5136 337.125 60.7938 335.475 60.7938ZM366.169 36.6541C364.551 37.3077 362.169 37.6346 359.025 37.6346C360.644 38.3194 361.827 39.1599 362.574 40.1559C363.321 41.152 363.695 42.4438 363.695 44.0314C363.695 45.6189 363.274 47.0508 362.434 48.327C361.593 49.5721 360.379 50.5527 358.792 51.2686C357.235 51.9846 355.399 52.3425 353.282 52.3425C352.286 52.3425 351.337 52.2491 350.434 52.0624C350.185 52.1869 349.983 52.3892 349.827 52.6694C349.703 52.9184 349.64 53.183 349.64 53.4631C349.64 53.9301 349.811 54.3036 350.154 54.5837C350.527 54.8328 351.259 54.9573 352.348 54.9573H356.084C357.983 54.9573 359.648 55.2686 361.08 55.8911C362.512 56.5137 363.617 57.3697 364.395 58.4592C365.173 59.5486 365.562 60.7782 365.562 62.1478C365.562 64.7314 364.442 66.7392 362.2 68.1711C359.99 69.6341 356.784 70.3656 352.582 70.3656C349.562 70.3656 347.181 70.0388 345.438 69.3851C343.695 68.7625 342.465 67.8754 341.749 66.7236C341.065 65.5719 340.722 64.1245 340.722 62.3813H347.352C347.352 63.1284 347.492 63.7198 347.773 64.1556C348.084 64.5914 348.629 64.9182 349.407 65.1361C350.185 65.354 351.306 65.463 352.769 65.463C354.792 65.463 356.193 65.2139 356.971 64.7159C357.749 64.249 358.138 63.5641 358.138 62.6614C358.138 61.9144 357.842 61.3229 357.251 60.8871C356.66 60.4514 355.772 60.2335 354.59 60.2335H350.994C348.442 60.2335 346.527 59.7821 345.251 58.8794C344.006 57.9456 343.384 56.7627 343.384 55.3308C343.384 54.4281 343.648 53.5565 344.177 52.7161C344.706 51.8445 345.422 51.1285 346.325 50.5682C344.769 49.7278 343.633 48.7473 342.917 47.6266C342.232 46.4749 341.889 45.0897 341.889 43.4711C341.889 40.7007 342.885 38.5062 344.878 36.8875C346.87 35.2377 349.5 34.4128 352.769 34.4128C355.259 34.4751 357.36 34.2261 359.072 33.6658C360.815 33.1055 362.605 32.2806 364.442 31.1911L366.169 36.6541ZM352.955 39.2688C351.804 39.2688 350.885 39.6423 350.201 40.3894C349.547 41.1053 349.22 42.1014 349.22 43.3777C349.22 44.7162 349.547 45.759 350.201 46.506C350.885 47.222 351.804 47.58 352.955 47.58C354.169 47.58 355.088 47.222 355.71 46.506C356.364 45.7901 356.691 44.7162 356.691 43.2843C356.691 40.6073 355.446 39.2688 352.955 39.2688ZM383.645 34.4128C386.758 34.4128 389.077 35.5646 390.602 37.868C392.127 40.1715 392.89 43.3932 392.89 47.5333C392.89 50.0858 392.485 52.3737 391.676 54.397C390.898 56.3892 389.762 57.9611 388.268 59.1129C386.773 60.2335 385.03 60.7938 383.038 60.7938C380.548 60.7938 378.54 59.9377 377.015 58.2257V69.5718L369.638 70.3656V35.2066H376.128L376.501 37.9614C377.466 36.7474 378.571 35.8603 379.816 35.3C381.061 34.7086 382.338 34.4128 383.645 34.4128ZM380.797 55.3775C383.754 55.3775 385.233 52.7939 385.233 47.6266C385.233 44.7006 384.906 42.6773 384.252 41.5567C383.598 40.405 382.618 39.8291 381.311 39.8291C380.47 39.8291 379.676 40.0781 378.929 40.5762C378.213 41.0742 377.575 41.7902 377.015 42.724V53.183C378.011 54.646 379.272 55.3775 380.797 55.3775ZM417.329 52.8094C417.329 53.7433 417.454 54.4281 417.703 54.8639C417.983 55.2997 418.419 55.6265 419.01 55.8444L417.469 60.6537C415.944 60.5292 414.699 60.2023 413.734 59.6732C412.769 59.1129 412.022 58.2413 411.493 57.0584C409.874 59.5486 407.384 60.7938 404.022 60.7938C401.563 60.7938 399.602 60.0778 398.139 58.6459C396.676 57.2141 395.944 55.3464 395.944 53.0429C395.944 50.3348 396.94 48.2648 398.933 46.8329C400.925 45.401 403.804 44.6851 407.571 44.6851H410.092V43.6111C410.092 42.1481 409.781 41.152 409.158 40.6229C408.536 40.0626 407.446 39.7824 405.89 39.7824C405.08 39.7824 404.1 39.9069 402.948 40.1559C401.796 40.3738 400.614 40.6851 399.4 41.0898L397.719 36.2338C399.275 35.6424 400.863 35.191 402.481 34.8798C404.131 34.5685 405.656 34.4128 407.057 34.4128C410.606 34.4128 413.205 35.1443 414.855 36.6074C416.504 38.0704 417.329 40.2649 417.329 43.1909V52.8094ZM406.17 55.5176C407.851 55.5176 409.158 54.7238 410.092 53.1363V48.7473H408.271C406.59 48.7473 405.329 49.043 404.489 49.6344C403.68 50.2258 403.275 51.1441 403.275 52.3892C403.275 53.3853 403.524 54.1635 404.022 54.7238C404.551 55.253 405.267 55.5176 406.17 55.5176ZM429.917 60.7938C427.769 60.7938 426.088 60.1868 424.874 58.9728C423.691 57.7277 423.1 55.9689 423.1 53.6966V25.3546L430.477 24.5608V53.4164C430.477 54.4437 430.897 54.9573 431.738 54.9573C432.174 54.9573 432.578 54.8795 432.952 54.7238L434.399 59.9533C433.061 60.5136 431.567 60.7938 429.917 60.7938ZM444.362 60.7938C442.214 60.7938 440.533 60.1868 439.319 58.9728C438.136 57.7277 437.545 55.9689 437.545 53.6966V25.3546L444.922 24.5608V53.4164C444.922 54.4437 445.343 54.9573 446.183 54.9573C446.619 54.9573 447.023 54.8795 447.397 54.7238L448.844 59.9533C447.506 60.5136 446.012 60.7938 444.362 60.7938ZM459.601 35.2066V60H452.224V35.2066H459.601ZM455.866 22.1329C457.142 22.1329 458.185 22.5375 458.994 23.3469C459.835 24.1251 460.255 25.1212 460.255 26.3351C460.255 27.5491 459.835 28.5608 458.994 29.3701C458.185 30.1483 457.142 30.5374 455.866 30.5374C454.59 30.5374 453.547 30.1483 452.737 29.3701C451.928 28.5608 451.523 27.5491 451.523 26.3351C451.523 25.1212 451.928 24.1251 452.737 23.3469C453.547 22.5375 454.59 22.1329 455.866 22.1329ZM78.159 118H70.6416L70.0813 105.346C69.9257 102.327 69.8478 99.6345 69.8478 97.2688C69.8478 95.4634 69.8945 93.7513 69.9879 92.1327L64.9919 114.591H57.7546L52.4318 92.1327C52.6185 94.8408 52.7119 97.3933 52.7119 99.7902C52.7119 101.596 52.6652 103.479 52.5718 105.44L52.0115 118H44.5408L46.9688 85.6425H56.634L61.49 107.588L66.0191 85.6425H75.731L78.159 118ZM115.449 118H107.931L107.371 105.346C107.215 102.327 107.138 99.6345 107.138 97.2688C107.138 95.4634 107.184 93.7513 107.278 92.1327L102.282 114.591H95.0443L89.7214 92.1327C89.9082 94.8408 90.0016 97.3933 90.0016 99.7902C90.0016 101.596 89.9549 103.479 89.8615 105.44L89.3012 118H81.8305L84.2585 85.6425H93.9237L98.7797 107.588L103.309 85.6425H113.021L115.449 118ZM119.634 106.234V100.537H134.529V106.234H119.634ZM147.449 82.5608V118H140.072V83.3546L147.449 82.5608ZM162.764 93.2066L155.247 104.086L163.371 118H155.06L147.683 104.459L155.247 93.2066H162.764ZM185.438 110.809C185.438 111.743 185.563 112.428 185.812 112.864C186.092 113.3 186.528 113.627 187.119 113.844L185.578 118.654C184.053 118.529 182.808 118.202 181.843 117.673C180.878 117.113 180.131 116.241 179.602 115.058C177.983 117.549 175.493 118.794 172.131 118.794C169.672 118.794 167.711 118.078 166.248 116.646C164.785 115.214 164.053 113.346 164.053 111.043C164.053 108.335 165.05 106.265 167.042 104.833C169.034 103.401 171.913 102.685 175.68 102.685H178.201V101.611C178.201 100.148 177.89 99.152 177.267 98.6229C176.645 98.0626 175.555 97.7824 173.999 97.7824C173.19 97.7824 172.209 97.9069 171.057 98.1559C169.906 98.3738 168.723 98.6851 167.509 99.0898L165.828 94.2338C167.384 93.6424 168.972 93.191 170.59 92.8798C172.24 92.5685 173.765 92.4128 175.166 92.4128C178.715 92.4128 181.314 93.1443 182.964 94.6074C184.613 96.0704 185.438 98.2649 185.438 101.191V110.809ZM174.279 113.518C175.96 113.518 177.267 112.724 178.201 111.136V106.747H176.38C174.699 106.747 173.439 107.043 172.598 107.634C171.789 108.226 171.384 109.144 171.384 110.389C171.384 111.385 171.633 112.164 172.131 112.724C172.66 113.253 173.376 113.518 174.279 113.518ZM205.346 92.5062C206.248 92.5062 207.073 92.6152 207.82 92.8331L206.653 99.9769C205.719 99.759 204.972 99.6501 204.412 99.6501C202.949 99.6501 201.828 100.164 201.05 101.191C200.303 102.187 199.711 103.697 199.276 105.72V118H191.898V93.2066H198.342L198.949 98.0159C199.509 96.3038 200.35 94.9653 201.47 94.0004C202.622 93.0043 203.914 92.5062 205.346 92.5062ZM218.6 93.2066V118H211.223V93.2066H218.6ZM214.864 80.1329C216.141 80.1329 217.184 80.5375 217.993 81.3469C218.833 82.1251 219.254 83.1212 219.254 84.3351C219.254 85.5491 218.833 86.5608 217.993 87.3701C217.184 88.1483 216.141 88.5374 214.864 88.5374C213.588 88.5374 212.545 88.1483 211.736 87.3701C210.927 86.5608 210.522 85.5491 210.522 84.3351C210.522 83.1212 210.927 82.1251 211.736 81.3469C212.545 80.5375 213.588 80.1329 214.864 80.1329ZM232.361 82.5608V118H224.984V83.3546L232.361 82.5608ZM247.676 93.2066L240.159 104.086L248.283 118H239.972L232.595 104.459L240.159 93.2066H247.676ZM270.35 110.809C270.35 111.743 270.475 112.428 270.724 112.864C271.004 113.3 271.44 113.627 272.031 113.844L270.49 118.654C268.965 118.529 267.72 118.202 266.755 117.673C265.79 117.113 265.043 116.241 264.514 115.058C262.895 117.549 260.405 118.794 257.043 118.794C254.584 118.794 252.623 118.078 251.16 116.646C249.697 115.214 248.965 113.346 248.965 111.043C248.965 108.335 249.961 106.265 251.954 104.833C253.946 103.401 256.825 102.685 260.592 102.685H263.113V101.611C263.113 100.148 262.802 99.152 262.179 98.6229C261.556 98.0626 260.467 97.7824 258.911 97.7824C258.101 97.7824 257.121 97.9069 255.969 98.1559C254.817 98.3738 253.634 98.6851 252.42 99.0898L250.74 94.2338C252.296 93.6424 253.883 93.191 255.502 92.8798C257.152 92.5685 258.677 92.4128 260.078 92.4128C263.626 92.4128 266.226 93.1443 267.875 94.6074C269.525 96.0704 270.35 98.2649 270.35 101.191V110.809ZM259.191 113.518C260.872 113.518 262.179 112.724 263.113 111.136V106.747H261.292C259.611 106.747 258.35 107.043 257.51 107.634C256.701 108.226 256.296 109.144 256.296 110.389C256.296 111.385 256.545 112.164 257.043 112.724C257.572 113.253 258.288 113.518 259.191 113.518ZM284.081 84.8488C286.26 84.8488 288.112 85.2067 289.638 85.9227C291.194 86.6075 292.361 87.5413 293.139 88.7242C293.918 89.907 294.307 91.2144 294.307 92.6463C294.307 93.9225 294.073 95.012 293.606 95.9147C293.171 96.8174 292.641 97.5489 292.019 98.1093C291.396 98.6696 290.571 99.3232 289.544 100.07C288.299 100.911 287.381 101.673 286.789 102.358C286.198 103.012 285.902 103.868 285.902 104.926V106.094H279.179V104.646C279.179 103.183 279.396 101.954 279.832 100.957C280.299 99.9302 280.844 99.1365 281.466 98.5762C282.12 97.9847 282.929 97.3466 283.894 96.6618C284.828 96.0392 285.513 95.4945 285.949 95.0276C286.385 94.5607 286.603 93.9848 286.603 93.3C286.603 92.4595 286.307 91.8058 285.715 91.3389C285.155 90.872 284.361 90.6385 283.334 90.6385C281.373 90.6385 279.552 91.588 277.871 93.4868L273.155 89.8448C275.988 86.5141 279.63 84.8488 284.081 84.8488ZM282.634 110.343C283.785 110.343 284.766 110.763 285.575 111.603C286.416 112.413 286.836 113.393 286.836 114.545C286.836 115.728 286.416 116.739 285.575 117.58C284.766 118.389 283.785 118.794 282.634 118.794C281.482 118.794 280.486 118.389 279.645 117.58C278.836 116.739 278.431 115.728 278.431 114.545C278.431 113.393 278.836 112.413 279.645 111.603C280.486 110.763 281.482 110.343 282.634 110.343Z" fill="#D7FF00"/>
<path d="M43.9192 141.763V139.792H55.6682V141.763H50.9315V154.973H48.6484V141.763H43.9192ZM61.0817 155.202C59.9599 155.202 58.9938 154.963 58.1833 154.483C57.3778 153.999 56.7552 153.32 56.3153 152.445C55.8805 151.565 55.663 150.535 55.663 149.354C55.663 148.188 55.8805 147.16 56.3153 146.27C56.7552 145.381 57.3679 144.686 58.1537 144.187C58.9444 143.688 59.8685 143.439 60.926 143.439C61.5684 143.439 62.1911 143.545 62.794 143.757C63.3969 143.97 63.938 144.303 64.4174 144.758C64.8967 145.213 65.2748 145.803 65.5515 146.53C65.8282 147.251 65.9666 148.128 65.9666 149.161V149.947H56.9158V148.286H63.7947C63.7947 147.703 63.6761 147.187 63.4389 146.737C63.2017 146.283 62.8681 145.924 62.4382 145.662C62.0132 145.4 61.5141 145.269 60.9408 145.269C60.3182 145.269 59.7746 145.423 59.3101 145.729C58.8505 146.031 58.4947 146.426 58.2426 146.915C57.9955 147.399 57.872 147.926 57.872 148.494V149.791C57.872 150.552 58.0054 151.2 58.2723 151.733C58.5441 152.267 58.9221 152.675 59.4064 152.956C59.8907 153.233 60.4565 153.372 61.1039 153.372C61.524 153.372 61.907 153.312 62.2529 153.194C62.5988 153.07 62.8978 152.887 63.1498 152.645C63.4018 152.403 63.5946 152.104 63.728 151.748L65.8258 152.126C65.6578 152.744 65.3563 153.285 64.9214 153.75C64.4915 154.209 63.9504 154.567 63.2981 154.824C62.6507 155.076 61.9119 155.202 61.0817 155.202ZM73.072 155.202C71.9502 155.202 70.9841 154.963 70.1737 154.483C69.3682 153.999 68.7455 153.32 68.3057 152.445C67.8708 151.565 67.6534 150.535 67.6534 149.354C67.6534 148.188 67.8708 147.16 68.3057 146.27C68.7455 145.381 69.3583 144.686 70.144 144.187C70.9347 143.688 71.8588 143.439 72.9163 143.439C73.5588 143.439 74.1814 143.545 74.7843 143.757C75.3872 143.97 75.9284 144.303 76.4077 144.758C76.8871 145.213 77.2651 145.803 77.5418 146.53C77.8186 147.251 77.9569 148.128 77.9569 149.161V149.947H68.9061V148.286H75.785C75.785 147.703 75.6664 147.187 75.4292 146.737C75.192 146.283 74.8585 145.924 74.4285 145.662C74.0035 145.4 73.5044 145.269 72.9312 145.269C72.3085 145.269 71.7649 145.423 71.3004 145.729C70.8408 146.031 70.485 146.426 70.233 146.915C69.9859 147.399 69.8623 147.926 69.8623 148.494V149.791C69.8623 150.552 69.9958 151.2 70.2626 151.733C70.5344 152.267 70.9125 152.675 71.3968 152.956C71.881 153.233 72.4469 153.372 73.0942 153.372C73.5143 153.372 73.8973 153.312 74.2432 153.194C74.5891 153.07 74.8881 152.887 75.1401 152.645C75.3922 152.403 75.5849 152.104 75.7183 151.748L77.8161 152.126C77.6481 152.744 77.3466 153.285 76.9118 153.75C76.4818 154.209 75.9407 154.567 75.2884 154.824C74.641 155.076 73.9022 155.202 73.072 155.202ZM90.2145 155.202C89.1471 155.202 88.2156 154.958 87.4199 154.469C86.6243 153.979 86.0066 153.295 85.5668 152.415C85.127 151.536 84.907 150.508 84.907 149.332C84.907 148.151 85.127 147.118 85.5668 146.233C86.0066 145.349 86.6243 144.662 87.4199 144.172C88.2156 143.683 89.1471 143.439 90.2145 143.439C91.2819 143.439 92.2134 143.683 93.0091 144.172C93.8047 144.662 94.4224 145.349 94.8622 146.233C95.3021 147.118 95.522 148.151 95.522 149.332C95.522 150.508 95.3021 151.536 94.8622 152.415C94.4224 153.295 93.8047 153.979 93.0091 154.469C92.2134 154.958 91.2819 155.202 90.2145 155.202ZM90.2219 153.342C90.9138 153.342 91.487 153.159 91.9417 152.793C92.3963 152.428 92.7323 151.941 92.9498 151.333C93.1722 150.725 93.2833 150.056 93.2833 149.324C93.2833 148.598 93.1722 147.931 92.9498 147.323C92.7323 146.71 92.3963 146.218 91.9417 145.848C91.487 145.477 90.9138 145.292 90.2219 145.292C89.5251 145.292 88.9469 145.477 88.4874 145.848C88.0327 146.218 87.6942 146.71 87.4718 147.323C87.2544 147.931 87.1457 148.598 87.1457 149.324C87.1457 150.056 87.2544 150.725 87.4718 151.333C87.6942 151.941 88.0327 152.428 88.4874 152.793C88.9469 153.159 89.5251 153.342 90.2219 153.342ZM97.735 154.973V143.587H99.8624V145.44H100.003C100.24 144.812 100.628 144.323 101.167 143.972C101.706 143.616 102.351 143.439 103.102 143.439C103.863 143.439 104.5 143.616 105.014 143.972C105.533 144.328 105.916 144.817 106.163 145.44H106.282C106.554 144.832 106.986 144.348 107.579 143.987C108.172 143.621 108.879 143.439 109.699 143.439C110.732 143.439 111.574 143.762 112.227 144.41C112.884 145.057 113.213 146.033 113.213 147.338V154.973H110.996V147.545C110.996 146.774 110.786 146.216 110.366 145.87C109.946 145.524 109.445 145.351 108.861 145.351C108.14 145.351 107.579 145.573 107.179 146.018C106.778 146.458 106.578 147.024 106.578 147.716V154.973H104.369V147.404C104.369 146.787 104.177 146.29 103.791 145.914C103.406 145.539 102.904 145.351 102.286 145.351C101.866 145.351 101.478 145.462 101.123 145.685C100.772 145.902 100.488 146.206 100.27 146.596C100.058 146.987 99.9514 147.439 99.9514 147.953V154.973H97.735ZM119.236 155.225C118.514 155.225 117.862 155.091 117.279 154.824C116.696 154.553 116.234 154.16 115.893 153.646C115.557 153.132 115.389 152.502 115.389 151.756C115.389 151.113 115.512 150.584 115.759 150.169C116.006 149.754 116.34 149.426 116.76 149.183C117.18 148.941 117.649 148.758 118.168 148.635C118.687 148.511 119.216 148.417 119.755 148.353C120.437 148.274 120.99 148.21 121.415 148.16C121.84 148.106 122.149 148.02 122.342 147.901C122.534 147.782 122.631 147.59 122.631 147.323V147.271C122.631 146.624 122.448 146.122 122.082 145.766C121.721 145.41 121.183 145.232 120.466 145.232C119.72 145.232 119.132 145.398 118.702 145.729C118.277 146.055 117.983 146.418 117.82 146.819L115.737 146.344C115.984 145.652 116.345 145.094 116.819 144.669C117.299 144.239 117.85 143.928 118.472 143.735C119.095 143.537 119.75 143.439 120.437 143.439C120.891 143.439 121.373 143.493 121.882 143.602C122.396 143.705 122.875 143.898 123.32 144.18C123.77 144.462 124.138 144.864 124.425 145.388C124.711 145.907 124.855 146.582 124.855 147.412V154.973H122.69V153.416H122.601C122.458 153.703 122.243 153.984 121.956 154.261C121.67 154.538 121.301 154.768 120.852 154.95C120.402 155.133 119.863 155.225 119.236 155.225ZM119.718 153.446C120.33 153.446 120.854 153.325 121.289 153.082C121.729 152.84 122.062 152.524 122.29 152.134C122.522 151.738 122.638 151.316 122.638 150.866V149.398C122.559 149.477 122.406 149.552 122.179 149.621C121.956 149.685 121.702 149.742 121.415 149.791C121.128 149.836 120.849 149.878 120.577 149.917C120.306 149.952 120.078 149.981 119.895 150.006C119.466 150.061 119.073 150.152 118.717 150.28C118.366 150.409 118.084 150.594 117.872 150.836C117.664 151.074 117.561 151.39 117.561 151.785C117.561 152.334 117.763 152.749 118.168 153.031C118.574 153.307 119.09 153.446 119.718 153.446ZM137.716 155.202C136.594 155.202 135.628 154.963 134.818 154.483C134.012 153.999 133.39 153.32 132.95 152.445C132.515 151.565 132.298 150.535 132.298 149.354C132.298 148.188 132.515 147.16 132.95 146.27C133.39 145.381 134.003 144.686 134.788 144.187C135.579 143.688 136.503 143.439 137.561 143.439C138.203 143.439 138.826 143.545 139.429 143.757C140.031 143.97 140.573 144.303 141.052 144.758C141.531 145.213 141.909 145.803 142.186 146.53C142.463 147.251 142.601 148.128 142.601 149.161V149.947H133.55V148.286H140.429C140.429 147.703 140.311 147.187 140.073 146.737C139.836 146.283 139.503 145.924 139.073 145.662C138.648 145.4 138.149 145.269 137.575 145.269C136.953 145.269 136.409 145.423 135.945 145.729C135.485 146.031 135.129 146.426 134.877 146.915C134.63 147.399 134.507 147.926 134.507 148.494V149.791C134.507 150.552 134.64 151.2 134.907 151.733C135.179 152.267 135.557 152.675 136.041 152.956C136.525 153.233 137.091 153.372 137.738 153.372C138.159 153.372 138.542 153.312 138.887 153.194C139.233 153.07 139.532 152.887 139.784 152.645C140.036 152.403 140.229 152.104 140.363 151.748L142.46 152.126C142.292 152.744 141.991 153.285 141.556 153.75C141.126 154.209 140.585 154.567 139.933 154.824C139.285 155.076 138.546 155.202 137.716 155.202ZM147.016 148.212V154.973H144.799V143.587H146.927V145.44H147.068C147.33 144.837 147.74 144.353 148.298 143.987C148.862 143.621 149.571 143.439 150.426 143.439C151.201 143.439 151.881 143.602 152.464 143.928C153.047 144.249 153.499 144.728 153.821 145.366C154.142 146.003 154.302 146.792 154.302 147.73V154.973H152.086V147.997C152.086 147.172 151.871 146.527 151.441 146.063C151.011 145.593 150.421 145.358 149.67 145.358C149.156 145.358 148.698 145.47 148.298 145.692C147.903 145.914 147.589 146.241 147.357 146.67C147.129 147.095 147.016 147.609 147.016 148.212ZM159.23 148.212V154.973H157.014V143.587H159.141V145.44H159.282C159.544 144.837 159.954 144.353 160.513 143.987C161.076 143.621 161.785 143.439 162.64 143.439C163.416 143.439 164.096 143.602 164.679 143.928C165.262 144.249 165.714 144.728 166.035 145.366C166.356 146.003 166.517 146.792 166.517 147.73V154.973H164.301V147.997C164.301 147.172 164.086 146.527 163.656 146.063C163.226 145.593 162.635 145.358 161.884 145.358C161.37 145.358 160.913 145.47 160.513 145.692C160.117 145.914 159.804 146.241 159.571 146.67C159.344 147.095 159.23 147.609 159.23 148.212ZM176.441 150.251V143.587H178.665V154.973H176.486V153.001H176.367C176.105 153.609 175.685 154.115 175.107 154.52C174.534 154.921 173.819 155.121 172.965 155.121C172.233 155.121 171.586 154.96 171.022 154.639C170.464 154.313 170.024 153.831 169.703 153.194C169.387 152.556 169.229 151.768 169.229 150.829V143.587H171.445V150.562C171.445 151.338 171.66 151.956 172.09 152.415C172.52 152.875 173.078 153.105 173.765 153.105C174.18 153.105 174.593 153.001 175.003 152.793C175.418 152.586 175.762 152.272 176.033 151.852C176.31 151.432 176.446 150.898 176.441 150.251ZM189.914 146.367L187.905 146.722C187.821 146.465 187.688 146.221 187.505 145.989C187.327 145.756 187.085 145.566 186.778 145.418C186.472 145.269 186.089 145.195 185.629 145.195C185.002 145.195 184.478 145.336 184.058 145.618C183.638 145.895 183.428 146.253 183.428 146.693C183.428 147.073 183.569 147.38 183.85 147.612C184.132 147.844 184.587 148.034 185.214 148.183L187.023 148.598C188.071 148.84 188.851 149.213 189.365 149.717C189.879 150.221 190.136 150.876 190.136 151.681C190.136 152.363 189.939 152.971 189.543 153.505C189.153 154.034 188.607 154.449 187.905 154.75C187.208 155.052 186.4 155.202 185.481 155.202C184.206 155.202 183.166 154.931 182.36 154.387C181.555 153.839 181.061 153.06 180.878 152.052L183.02 151.726C183.154 152.284 183.428 152.707 183.843 152.993C184.258 153.275 184.799 153.416 185.466 153.416C186.193 153.416 186.773 153.265 187.208 152.964C187.643 152.657 187.861 152.284 187.861 151.845C187.861 151.489 187.727 151.19 187.46 150.948C187.198 150.705 186.796 150.523 186.252 150.399L184.325 149.977C183.262 149.734 182.477 149.349 181.968 148.82C181.463 148.291 181.211 147.622 181.211 146.811C181.211 146.139 181.399 145.551 181.775 145.047C182.15 144.543 182.669 144.15 183.331 143.869C183.994 143.582 184.752 143.439 185.607 143.439C186.838 143.439 187.806 143.705 188.513 144.239C189.22 144.768 189.687 145.477 189.914 146.367ZM197.627 143.587V145.366H191.408V143.587H197.627ZM193.076 140.859H195.292V151.63C195.292 152.059 195.356 152.383 195.485 152.601C195.613 152.813 195.779 152.959 195.982 153.038C196.189 153.112 196.414 153.149 196.656 153.149C196.834 153.149 196.99 153.137 197.123 153.112C197.257 153.087 197.36 153.068 197.434 153.053L197.835 154.884C197.706 154.933 197.523 154.983 197.286 155.032C197.049 155.086 196.752 155.116 196.397 155.121C195.814 155.131 195.27 155.027 194.766 154.81C194.262 154.592 193.854 154.256 193.543 153.801C193.231 153.347 193.076 152.776 193.076 152.089V140.859ZM207.03 150.251V143.587H209.254V154.973H207.075V153.001H206.956C206.694 153.609 206.274 154.115 205.696 154.52C205.123 154.921 204.409 155.121 203.554 155.121C202.823 155.121 202.175 154.96 201.612 154.639C201.053 154.313 200.614 153.831 200.292 153.194C199.976 152.556 199.818 151.768 199.818 150.829V143.587H202.034V150.562C202.034 151.338 202.249 151.956 202.679 152.415C203.109 152.875 203.668 153.105 204.355 153.105C204.77 153.105 205.182 153.001 205.592 152.793C206.008 152.586 206.351 152.272 206.623 151.852C206.9 151.432 207.035 150.898 207.03 150.251ZM220.503 146.367L218.495 146.722C218.41 146.465 218.277 146.221 218.094 145.989C217.916 145.756 217.674 145.566 217.368 145.418C217.061 145.269 216.678 145.195 216.219 145.195C215.591 145.195 215.067 145.336 214.647 145.618C214.227 145.895 214.017 146.253 214.017 146.693C214.017 147.073 214.158 147.38 214.44 147.612C214.721 147.844 215.176 148.034 215.804 148.183L217.612 148.598C218.66 148.84 219.441 149.213 219.955 149.717C220.469 150.221 220.726 150.876 220.726 151.681C220.726 152.363 220.528 152.971 220.133 153.505C219.742 154.034 219.196 154.449 218.495 154.75C217.798 155.052 216.99 155.202 216.071 155.202C214.796 155.202 213.755 154.931 212.95 154.387C212.144 153.839 211.65 153.06 211.467 152.052L213.61 151.726C213.743 152.284 214.017 152.707 214.432 152.993C214.847 153.275 215.389 153.416 216.056 153.416C216.782 153.416 217.363 153.265 217.798 152.964C218.233 152.657 218.45 152.284 218.45 151.845C218.45 151.489 218.317 151.19 218.05 150.948C217.788 150.705 217.385 150.523 216.841 150.399L214.914 149.977C213.852 149.734 213.066 149.349 212.557 148.82C212.053 148.291 211.801 147.622 211.801 146.811C211.801 146.139 211.989 145.551 212.364 145.047C212.74 144.543 213.259 144.15 213.921 143.869C214.583 143.582 215.342 143.439 216.197 143.439C217.427 143.439 218.396 143.705 219.102 144.239C219.809 144.768 220.276 145.477 220.503 146.367ZM228.165 143.587H230.381V155.714C230.381 156.475 230.243 157.117 229.966 157.641C229.695 158.165 229.289 158.563 228.751 158.835C228.217 159.106 227.557 159.242 226.771 159.242C226.692 159.242 226.618 159.242 226.549 159.242C226.475 159.242 226.398 159.24 226.319 159.235V157.33C226.388 157.33 226.45 157.33 226.505 157.33C226.554 157.33 226.611 157.33 226.675 157.33C227.199 157.33 227.577 157.189 227.809 156.907C228.046 156.631 228.165 156.228 228.165 155.699V143.587ZM229.262 141.83C228.877 141.83 228.546 141.702 228.269 141.445C227.997 141.183 227.861 140.871 227.861 140.511C227.861 140.145 227.997 139.834 228.269 139.577C228.546 139.315 228.877 139.184 229.262 139.184C229.648 139.184 229.976 139.315 230.248 139.577C230.525 139.834 230.663 140.145 230.663 140.511C230.663 140.871 230.525 141.183 230.248 141.445C229.976 141.702 229.648 141.83 229.262 141.83ZM236.416 155.225C235.694 155.225 235.042 155.091 234.459 154.824C233.876 154.553 233.414 154.16 233.073 153.646C232.737 153.132 232.569 152.502 232.569 151.756C232.569 151.113 232.692 150.584 232.939 150.169C233.186 149.754 233.52 149.426 233.94 149.183C234.36 148.941 234.829 148.758 235.348 148.635C235.867 148.511 236.396 148.417 236.935 148.353C237.617 148.274 238.17 148.21 238.595 148.16C239.02 148.106 239.329 148.02 239.522 147.901C239.714 147.782 239.811 147.59 239.811 147.323V147.271C239.811 146.624 239.628 146.122 239.262 145.766C238.901 145.41 238.363 145.232 237.646 145.232C236.9 145.232 236.312 145.398 235.882 145.729C235.457 146.055 235.163 146.418 235 146.819L232.917 146.344C233.164 145.652 233.525 145.094 233.999 144.669C234.479 144.239 235.03 143.928 235.652 143.735C236.275 143.537 236.93 143.439 237.617 143.439C238.071 143.439 238.553 143.493 239.062 143.602C239.576 143.705 240.055 143.898 240.5 144.18C240.95 144.462 241.318 144.864 241.605 145.388C241.891 145.907 242.034 146.582 242.034 147.412V154.973H239.87V153.416H239.781C239.638 153.703 239.423 153.984 239.136 154.261C238.85 154.538 238.481 154.768 238.032 154.95C237.582 155.133 237.043 155.225 236.416 155.225ZM236.898 153.446C237.51 153.446 238.034 153.325 238.469 153.082C238.909 152.84 239.242 152.524 239.47 152.134C239.702 151.738 239.818 151.316 239.818 150.866V149.398C239.739 149.477 239.586 149.552 239.359 149.621C239.136 149.685 238.882 149.742 238.595 149.791C238.308 149.836 238.029 149.878 237.757 149.917C237.486 149.952 237.258 149.981 237.075 150.006C236.645 150.061 236.253 150.152 235.897 150.28C235.546 150.409 235.264 150.594 235.052 150.836C234.844 151.074 234.74 151.39 234.74 151.785C234.74 152.334 234.943 152.749 235.348 153.031C235.753 153.307 236.27 153.446 236.898 153.446ZM254.785 155.202C253.718 155.202 252.786 154.958 251.99 154.469C251.195 153.979 250.577 153.295 250.137 152.415C249.697 151.536 249.478 150.508 249.478 149.332C249.478 148.151 249.697 147.118 250.137 146.233C250.577 145.349 251.195 144.662 251.99 144.172C252.786 143.683 253.718 143.439 254.785 143.439C255.852 143.439 256.784 143.683 257.58 144.172C258.375 144.662 258.993 145.349 259.433 146.233C259.873 147.118 260.092 148.151 260.092 149.332C260.092 150.508 259.873 151.536 259.433 152.415C258.993 153.295 258.375 153.979 257.58 154.469C256.784 154.958 255.852 155.202 254.785 155.202ZM254.792 153.342C255.484 153.342 256.057 153.159 256.512 152.793C256.967 152.428 257.303 151.941 257.52 151.333C257.743 150.725 257.854 150.056 257.854 149.324C257.854 148.598 257.743 147.931 257.52 147.323C257.303 146.71 256.967 146.218 256.512 145.848C256.057 145.477 255.484 145.292 254.792 145.292C254.096 145.292 253.517 145.477 253.058 145.848C252.603 146.218 252.265 146.71 252.042 147.323C251.825 147.931 251.716 148.598 251.716 149.324C251.716 150.056 251.825 150.725 252.042 151.333C252.265 151.941 252.603 152.428 253.058 152.793C253.517 153.159 254.096 153.342 254.792 153.342ZM270.837 146.367L268.829 146.722C268.745 146.465 268.611 146.221 268.428 145.989C268.25 145.756 268.008 145.566 267.702 145.418C267.395 145.269 267.013 145.195 266.553 145.195C265.925 145.195 265.401 145.336 264.981 145.618C264.561 145.895 264.351 146.253 264.351 146.693C264.351 147.073 264.492 147.38 264.774 147.612C265.056 147.844 265.51 148.034 266.138 148.183L267.947 148.598C268.994 148.84 269.775 149.213 270.289 149.717C270.803 150.221 271.06 150.876 271.06 151.681C271.06 152.363 270.862 152.971 270.467 153.505C270.076 154.034 269.53 154.449 268.829 154.75C268.132 155.052 267.324 155.202 266.405 155.202C265.13 155.202 264.089 154.931 263.284 154.387C262.478 153.839 261.984 153.06 261.801 152.052L263.944 151.726C264.077 152.284 264.351 152.707 264.766 152.993C265.182 153.275 265.723 153.416 266.39 153.416C267.116 153.416 267.697 153.265 268.132 152.964C268.567 152.657 268.784 152.284 268.784 151.845C268.784 151.489 268.651 151.19 268.384 150.948C268.122 150.705 267.719 150.523 267.176 150.399L265.248 149.977C264.186 149.734 263.4 149.349 262.891 148.82C262.387 148.291 262.135 147.622 262.135 146.811C262.135 146.139 262.323 145.551 262.698 145.047C263.074 144.543 263.593 144.15 264.255 143.869C264.917 143.582 265.676 143.439 266.531 143.439C267.761 143.439 268.73 143.705 269.436 144.239C270.143 144.768 270.61 145.477 270.837 146.367ZM276.549 155.225C275.828 155.225 275.175 155.091 274.592 154.824C274.009 154.553 273.547 154.16 273.206 153.646C272.87 153.132 272.702 152.502 272.702 151.756C272.702 151.113 272.826 150.584 273.073 150.169C273.32 149.754 273.653 149.426 274.073 149.183C274.493 148.941 274.963 148.758 275.482 148.635C276.001 148.511 276.529 148.417 277.068 148.353C277.75 148.274 278.304 148.21 278.729 148.16C279.154 148.106 279.462 148.02 279.655 147.901C279.848 147.782 279.944 147.59 279.944 147.323V147.271C279.944 146.624 279.761 146.122 279.396 145.766C279.035 145.41 278.496 145.232 277.78 145.232C277.034 145.232 276.445 145.398 276.016 145.729C275.591 146.055 275.297 146.418 275.133 146.819L273.05 146.344C273.298 145.652 273.658 145.094 274.133 144.669C274.612 144.239 275.163 143.928 275.786 143.735C276.408 143.537 277.063 143.439 277.75 143.439C278.205 143.439 278.687 143.493 279.196 143.602C279.71 143.705 280.189 143.898 280.634 144.18C281.083 144.462 281.451 144.864 281.738 145.388C282.025 145.907 282.168 146.582 282.168 147.412V154.973H280.004V153.416H279.915C279.771 153.703 279.556 153.984 279.27 154.261C278.983 154.538 278.615 154.768 278.165 154.95C277.716 155.133 277.177 155.225 276.549 155.225ZM277.031 153.446C277.644 153.446 278.168 153.325 278.603 153.082C279.042 152.84 279.376 152.524 279.603 152.134C279.836 151.738 279.952 151.316 279.952 150.866V149.398C279.873 149.477 279.719 149.552 279.492 149.621C279.27 149.685 279.015 149.742 278.729 149.791C278.442 149.836 278.163 149.878 277.891 149.917C277.619 149.952 277.392 149.981 277.209 150.006C276.779 150.061 276.386 150.152 276.03 150.28C275.68 150.409 275.398 150.594 275.185 150.836C274.978 151.074 274.874 151.39 274.874 151.785C274.874 152.334 275.077 152.749 275.482 153.031C275.887 153.307 276.403 153.446 277.031 153.446ZM287.076 139.792V154.973H284.859V139.792H287.076ZM294.704 155.202C293.582 155.202 292.616 154.963 291.805 154.483C291 153.999 290.377 153.32 289.937 152.445C289.502 151.565 289.285 150.535 289.285 149.354C289.285 148.188 289.502 147.16 289.937 146.27C290.377 145.381 290.99 144.686 291.776 144.187C292.566 143.688 293.49 143.439 294.548 143.439C295.19 143.439 295.813 143.545 296.416 143.757C297.019 143.97 297.56 144.303 298.039 144.758C298.519 145.213 298.897 145.803 299.173 146.53C299.45 147.251 299.589 148.128 299.589 149.161V149.947H290.538V148.286H297.417C297.417 147.703 297.298 147.187 297.061 146.737C296.824 146.283 296.49 145.924 296.06 145.662C295.635 145.4 295.136 145.269 294.563 145.269C293.94 145.269 293.396 145.423 292.932 145.729C292.472 146.031 292.117 146.426 291.865 146.915C291.617 147.399 291.494 147.926 291.494 148.494V149.791C291.494 150.552 291.627 151.2 291.894 151.733C292.166 152.267 292.544 152.675 293.028 152.956C293.513 153.233 294.078 153.372 294.726 153.372C295.146 153.372 295.529 153.312 295.875 153.194C296.221 153.07 296.52 152.887 296.772 152.645C297.024 152.403 297.216 152.104 297.35 151.748L299.448 152.126C299.28 152.744 298.978 153.285 298.543 153.75C298.113 154.209 297.572 154.567 296.92 154.824C296.273 155.076 295.534 155.202 294.704 155.202ZM306.049 155.195C305.13 155.195 304.31 154.96 303.588 154.491C302.871 154.016 302.308 153.342 301.898 152.467C301.493 151.588 301.29 150.532 301.29 149.302C301.29 148.071 301.495 147.019 301.905 146.144C302.32 145.269 302.889 144.6 303.61 144.135C304.332 143.671 305.15 143.439 306.064 143.439C306.771 143.439 307.339 143.557 307.769 143.794C308.204 144.027 308.54 144.298 308.777 144.61C309.019 144.921 309.207 145.195 309.34 145.433H309.474V139.792H311.69V154.973H309.526V153.201H309.34C309.207 153.443 309.014 153.72 308.762 154.031C308.515 154.343 308.174 154.614 307.739 154.847C307.304 155.079 306.741 155.195 306.049 155.195ZM306.538 153.305C307.176 153.305 307.714 153.137 308.154 152.801C308.599 152.46 308.935 151.988 309.162 151.385C309.395 150.782 309.511 150.08 309.511 149.28C309.511 148.489 309.397 147.797 309.17 147.204C308.942 146.611 308.609 146.149 308.169 145.818C307.729 145.487 307.186 145.321 306.538 145.321C305.871 145.321 305.315 145.494 304.87 145.84C304.426 146.186 304.09 146.658 303.862 147.256C303.64 147.854 303.529 148.529 303.529 149.28C303.529 150.041 303.642 150.725 303.87 151.333C304.097 151.941 304.433 152.423 304.878 152.779C305.328 153.129 305.881 153.305 306.538 153.305Z" fill="#F5FCC4"/>
<path d="M325.141 155.18C324.093 155.18 323.159 154.987 322.339 154.602C321.524 154.217 320.876 153.685 320.397 153.008C319.918 152.331 319.668 151.555 319.648 150.681H322.762C322.796 151.269 323.043 151.746 323.503 152.111C323.962 152.477 324.508 152.66 325.141 152.66C325.645 152.66 326.09 152.549 326.475 152.326C326.866 152.099 327.17 151.785 327.387 151.385C327.609 150.98 327.721 150.515 327.721 149.991C327.721 149.458 327.607 148.988 327.38 148.583C327.157 148.178 326.848 147.861 326.453 147.634C326.058 147.407 325.606 147.291 325.097 147.286C324.652 147.286 324.219 147.377 323.799 147.56C323.384 147.743 323.061 147.992 322.828 148.309L319.974 147.797L320.693 139.792H329.974V142.416H323.34L322.947 146.218H323.036C323.303 145.843 323.705 145.531 324.244 145.284C324.783 145.037 325.386 144.914 326.053 144.914C326.967 144.914 327.782 145.129 328.499 145.559C329.216 145.989 329.781 146.579 330.196 147.33C330.612 148.076 330.817 148.936 330.812 149.91C330.817 150.933 330.579 151.842 330.1 152.638C329.626 153.428 328.961 154.051 328.106 154.506C327.256 154.955 326.268 155.18 325.141 155.18ZM346.677 152.867L337.819 144.024L339.761 142.06L348.627 150.925L346.677 152.867ZM339.761 152.867L337.819 150.925L346.677 142.06L348.627 144.024L339.761 152.867ZM362.462 139.792V154.973H359.252V142.838H359.163L355.686 145.017V142.171L359.445 139.792H362.462ZM371.761 155.306C370.486 155.301 369.389 154.987 368.47 154.365C367.556 153.742 366.851 152.84 366.357 151.659C365.868 150.478 365.626 149.057 365.631 147.397C365.631 145.741 365.875 144.331 366.365 143.164C366.859 141.998 367.563 141.111 368.477 140.503C369.396 139.89 370.491 139.584 371.761 139.584C373.031 139.584 374.123 139.89 375.037 140.503C375.957 141.116 376.663 142.005 377.157 143.172C377.652 144.333 377.896 145.741 377.891 147.397C377.891 149.062 377.644 150.486 377.15 151.667C376.661 152.848 375.959 153.75 375.045 154.372C374.131 154.995 373.036 155.306 371.761 155.306ZM371.761 152.645C372.631 152.645 373.325 152.208 373.844 151.333C374.363 150.458 374.62 149.146 374.615 147.397C374.615 146.245 374.496 145.287 374.259 144.521C374.027 143.755 373.696 143.179 373.266 142.794C372.841 142.408 372.339 142.215 371.761 142.215C370.896 142.215 370.204 142.648 369.686 143.513C369.167 144.378 368.905 145.672 368.9 147.397C368.9 148.563 369.016 149.537 369.248 150.318C369.485 151.093 369.819 151.676 370.249 152.067C370.679 152.452 371.183 152.645 371.761 152.645ZM385.871 155.306C384.596 155.301 383.499 154.987 382.58 154.365C381.666 153.742 380.962 152.84 380.468 151.659C379.978 150.478 379.736 149.057 379.741 147.397C379.741 145.741 379.986 144.331 380.475 143.164C380.969 141.998 381.673 141.111 382.588 140.503C383.507 139.89 384.601 139.584 385.871 139.584C387.141 139.584 388.234 139.89 389.148 140.503C390.067 141.116 390.774 142.005 391.268 143.172C391.762 144.333 392.007 145.741 392.002 147.397C392.002 149.062 391.755 150.486 391.26 151.667C390.771 152.848 390.069 153.75 389.155 154.372C388.241 154.995 387.146 155.306 385.871 155.306ZM385.871 152.645C386.741 152.645 387.435 152.208 387.954 151.333C388.473 150.458 388.73 149.146 388.725 147.397C388.725 146.245 388.607 145.287 388.369 144.521C388.137 143.755 387.806 143.179 387.376 142.794C386.951 142.408 386.45 142.215 385.871 142.215C385.007 142.215 384.315 142.648 383.796 143.513C383.277 144.378 383.015 145.672 383.01 147.397C383.01 148.563 383.126 149.537 383.359 150.318C383.596 151.093 383.929 151.676 384.359 152.067C384.789 152.452 385.293 152.645 385.871 152.645ZM408.622 145.017L407.888 146.641H397.977L398.577 145.017H408.622ZM407.206 148.123L406.398 149.784H397.977L398.577 148.123H407.206ZM410.549 140.963L409.363 143.498C409.165 143.36 408.925 143.209 408.644 143.046C408.367 142.878 408.048 142.737 407.688 142.623C407.332 142.505 406.936 142.445 406.502 142.445C405.815 142.445 405.217 142.618 404.708 142.964C404.199 143.31 403.803 143.849 403.522 144.58C403.245 145.312 403.107 146.25 403.107 147.397C403.107 148.553 403.245 149.495 403.522 150.221C403.803 150.943 404.199 151.474 404.708 151.815C405.217 152.151 405.815 152.319 406.502 152.319C406.936 152.319 407.332 152.262 407.688 152.148C408.043 152.035 408.355 151.899 408.622 151.741C408.893 151.583 409.121 151.437 409.304 151.303L410.504 153.839C409.966 154.283 409.355 154.619 408.673 154.847C407.991 155.069 407.268 155.18 406.502 155.18C405.207 155.18 404.06 154.874 403.062 154.261C402.069 153.643 401.29 152.756 400.727 151.6C400.164 150.439 399.882 149.038 399.882 147.397C399.882 145.761 400.164 144.36 400.727 143.194C401.29 142.028 402.069 141.136 403.062 140.518C404.06 139.895 405.207 139.584 406.502 139.584C407.297 139.584 408.034 139.703 408.711 139.94C409.388 140.177 410 140.518 410.549 140.963ZM420.427 139.792V154.973H417.269V139.792H420.427ZM427.84 155.195C426.689 155.195 425.693 154.95 424.853 154.461C424.018 153.967 423.373 153.28 422.918 152.4C422.463 151.516 422.236 150.49 422.236 149.324C422.236 148.148 422.463 147.12 422.918 146.241C423.373 145.356 424.018 144.669 424.853 144.18C425.693 143.686 426.689 143.439 427.84 143.439C428.991 143.439 429.985 143.686 430.82 144.18C431.66 144.669 432.307 145.356 432.762 146.241C433.217 147.12 433.444 148.148 433.444 149.324C433.444 150.49 433.217 151.516 432.762 152.4C432.307 153.28 431.66 153.967 430.82 154.461C429.985 154.95 428.991 155.195 427.84 155.195ZM427.855 152.749C428.379 152.749 428.816 152.601 429.167 152.304C429.518 152.003 429.782 151.592 429.96 151.074C430.143 150.555 430.234 149.964 430.234 149.302C430.234 148.64 430.143 148.049 429.96 147.53C429.782 147.011 429.518 146.601 429.167 146.3C428.816 145.998 428.379 145.848 427.855 145.848C427.326 145.848 426.881 145.998 426.521 146.3C426.165 146.601 425.895 147.011 425.713 147.53C425.535 148.049 425.446 148.64 425.446 149.302C425.446 149.964 425.535 150.555 425.713 151.074C425.895 151.592 426.165 152.003 426.521 152.304C426.881 152.601 427.326 152.749 427.855 152.749ZM440.381 155.195C439.229 155.195 438.233 154.95 437.393 154.461C436.558 153.967 435.913 153.28 435.459 152.4C435.004 151.516 434.777 150.49 434.777 149.324C434.777 148.148 435.004 147.12 435.459 146.241C435.913 145.356 436.558 144.669 437.393 144.18C438.233 143.686 439.229 143.439 440.381 143.439C441.532 143.439 442.525 143.686 443.361 144.18C444.201 144.669 444.848 145.356 445.303 146.241C445.757 147.12 445.985 148.148 445.985 149.324C445.985 150.49 445.757 151.516 445.303 152.4C444.848 153.28 444.201 153.967 443.361 154.461C442.525 154.95 441.532 155.195 440.381 155.195ZM440.396 152.749C440.919 152.749 441.357 152.601 441.708 152.304C442.058 152.003 442.323 151.592 442.501 151.074C442.684 150.555 442.775 149.964 442.775 149.302C442.775 148.64 442.684 148.049 442.501 147.53C442.323 147.011 442.058 146.601 441.708 146.3C441.357 145.998 440.919 145.848 440.396 145.848C439.867 145.848 439.422 145.998 439.061 146.3C438.705 146.601 438.436 147.011 438.253 147.53C438.075 148.049 437.986 148.64 437.986 149.302C437.986 149.964 438.075 150.555 438.253 151.074C438.436 151.592 438.705 152.003 439.061 152.304C439.422 152.601 439.867 152.749 440.396 152.749ZM457.25 146.834L454.359 147.011C454.31 146.764 454.204 146.542 454.041 146.344C453.878 146.142 453.663 145.981 453.396 145.863C453.134 145.739 452.82 145.677 452.454 145.677C451.965 145.677 451.553 145.781 451.216 145.989C450.88 146.191 450.712 146.463 450.712 146.804C450.712 147.076 450.821 147.306 451.039 147.493C451.256 147.681 451.629 147.832 452.158 147.945L454.219 148.361C455.326 148.588 456.151 148.954 456.694 149.458C457.238 149.962 457.51 150.624 457.51 151.444C457.51 152.19 457.29 152.845 456.85 153.409C456.415 153.972 455.817 154.412 455.056 154.728C454.3 155.039 453.428 155.195 452.44 155.195C450.932 155.195 449.731 154.881 448.837 154.254C447.948 153.621 447.426 152.761 447.273 151.674L450.379 151.511C450.473 151.971 450.7 152.321 451.061 152.564C451.422 152.801 451.884 152.919 452.447 152.919C453 152.919 453.445 152.813 453.781 152.601C454.122 152.383 454.295 152.104 454.3 151.763C454.295 151.476 454.174 151.242 453.937 151.059C453.7 150.871 453.334 150.728 452.84 150.629L450.868 150.236C449.756 150.014 448.928 149.628 448.385 149.08C447.846 148.531 447.577 147.832 447.577 146.982C447.577 146.25 447.775 145.62 448.17 145.092C448.57 144.563 449.131 144.155 449.853 143.869C450.579 143.582 451.429 143.439 452.403 143.439C453.841 143.439 454.972 143.742 455.798 144.35C456.628 144.958 457.112 145.786 457.25 146.834ZM459.237 154.973V143.587H462.395V154.973H459.237ZM460.824 142.119C460.354 142.119 459.951 141.963 459.615 141.652C459.284 141.336 459.119 140.958 459.119 140.518C459.119 140.083 459.284 139.71 459.615 139.399C459.951 139.082 460.354 138.924 460.824 138.924C461.293 138.924 461.693 139.082 462.025 139.399C462.361 139.71 462.529 140.083 462.529 140.518C462.529 140.958 462.361 141.336 462.025 141.652C461.693 141.963 461.293 142.119 460.824 142.119ZM474.137 146.834L471.246 147.011C471.197 146.764 471.091 146.542 470.927 146.344C470.764 146.142 470.549 145.981 470.283 145.863C470.021 145.739 469.707 145.677 469.341 145.677C468.852 145.677 468.439 145.781 468.103 145.989C467.767 146.191 467.599 146.463 467.599 146.804C467.599 147.076 467.708 147.306 467.925 147.493C468.143 147.681 468.516 147.832 469.045 147.945L471.105 148.361C472.212 148.588 473.038 148.954 473.581 149.458C474.125 149.962 474.397 150.624 474.397 151.444C474.397 152.19 474.177 152.845 473.737 153.409C473.302 153.972 472.704 154.412 471.943 154.728C471.187 155.039 470.315 155.195 469.326 155.195C467.819 155.195 466.618 154.881 465.724 154.254C464.834 153.621 464.313 152.761 464.16 151.674L467.266 151.511C467.36 151.971 467.587 152.321 467.948 152.564C468.308 152.801 468.77 152.919 469.334 152.919C469.887 152.919 470.332 152.813 470.668 152.601C471.009 152.383 471.182 152.104 471.187 151.763C471.182 151.476 471.061 151.242 470.824 151.059C470.587 150.871 470.221 150.728 469.727 150.629L467.755 150.236C466.643 150.014 465.815 149.628 465.272 149.08C464.733 148.531 464.464 147.832 464.464 146.982C464.464 146.25 464.661 145.62 465.057 145.092C465.457 144.563 466.018 144.155 466.739 143.869C467.466 143.582 468.316 143.439 469.289 143.439C470.727 143.439 471.859 143.742 472.684 144.35C473.515 144.958 473.999 145.786 474.137 146.834ZM479.897 139.792L479.608 150.421H476.895L476.599 139.792H479.897ZM478.252 155.165C477.762 155.165 477.342 154.992 476.991 154.646C476.641 154.296 476.468 153.876 476.473 153.386C476.468 152.902 476.641 152.487 476.991 152.141C477.342 151.795 477.762 151.622 478.252 151.622C478.721 151.622 479.134 151.795 479.489 152.141C479.845 152.487 480.026 152.902 480.031 153.386C480.026 153.713 479.939 154.011 479.771 154.283C479.608 154.55 479.393 154.765 479.126 154.928C478.859 155.086 478.568 155.165 478.252 155.165Z" fill="#D7FF00"/>
<path d="M43 188.238C43 185.811 44.9675 183.844 47.3945 183.844H216.34C218.767 183.844 220.734 185.811 220.734 188.238V232.605C220.734 235.033 218.767 237 216.34 237H47.3945C44.9675 237 43 235.033 43 232.605V188.238Z" fill="#D7FF00"/>
<path d="M82.1816 201.176L81.7598 203.997H75.168V208.743H80.916V211.538H75.168V216.574H82.2344V219.422H71.292V201.176H82.1816ZM98.6564 219.422H93.673L87.8722 204.946C88.0304 206.194 88.1535 207.372 88.2414 208.479C88.3468 209.569 88.3996 210.853 88.3996 212.329V219.422H84.8927V201.176H89.7707L95.6769 215.678C95.3253 213.322 95.1496 211.16 95.1496 209.191V201.176H98.6564V219.422ZM115.939 219.422H110.956L105.155 204.946C105.313 206.194 105.436 207.372 105.524 208.479C105.63 209.569 105.682 210.853 105.682 212.329V219.422H102.176V201.176H107.054L112.96 215.678C112.608 213.322 112.432 211.16 112.432 209.191V201.176H115.939V219.422ZM133.09 213.41C133.09 214.658 132.827 215.766 132.299 216.732C131.772 217.699 130.981 218.464 129.926 219.026C128.889 219.571 127.623 219.844 126.129 219.844C123.879 219.844 122.157 219.264 120.961 218.104C119.784 216.926 119.195 215.361 119.195 213.41V201.176H123.071V213.226C123.071 214.456 123.317 215.379 123.809 215.994C124.301 216.592 125.075 216.891 126.129 216.891C127.184 216.891 127.957 216.592 128.45 215.994C128.959 215.379 129.214 214.456 129.214 213.226V201.176H133.09V213.41ZM141.79 200.754C143.108 200.754 144.251 200.947 145.218 201.334C146.202 201.703 147.107 202.274 147.933 203.048L146.088 205.184C145.437 204.656 144.787 204.27 144.136 204.023C143.486 203.777 142.792 203.654 142.053 203.654C141.245 203.654 140.595 203.83 140.102 204.182C139.628 204.516 139.39 204.999 139.39 205.632C139.39 206.071 139.487 206.432 139.68 206.713C139.891 206.994 140.252 207.258 140.761 207.504C141.271 207.75 142.036 208.031 143.055 208.348C144.866 208.928 146.22 209.648 147.116 210.51C148.012 211.354 148.461 212.566 148.461 214.148C148.461 215.273 148.179 216.267 147.617 217.128C147.054 217.972 146.237 218.64 145.165 219.132C144.093 219.606 142.836 219.844 141.394 219.844C139.953 219.844 138.67 219.615 137.545 219.158C136.42 218.701 135.453 218.077 134.644 217.286L136.622 215.098C137.325 215.695 138.054 216.152 138.81 216.469C139.566 216.768 140.392 216.917 141.289 216.917C142.238 216.917 142.994 216.697 143.556 216.258C144.136 215.818 144.427 215.203 144.427 214.412C144.427 213.92 144.321 213.516 144.11 213.199C143.917 212.865 143.574 212.566 143.082 212.303C142.59 212.039 141.878 211.767 140.946 211.485C138.96 210.87 137.536 210.132 136.675 209.271C135.831 208.409 135.409 207.284 135.409 205.896C135.409 204.876 135.681 203.979 136.226 203.206C136.771 202.415 137.527 201.809 138.494 201.387C139.461 200.965 140.559 200.754 141.79 200.754ZM162.342 201.176L161.92 204.208H157.305V219.422H153.429V204.208H148.578V201.176H162.342ZM172.331 219.422L171.303 215.335H165.581L164.553 219.422H160.519L166.135 201.176H170.855L176.445 219.422H172.331ZM166.32 212.461H170.565L168.429 204.05L166.32 212.461ZM191.565 219.422H186.581L180.781 204.946C180.939 206.194 181.062 207.372 181.15 208.479C181.255 209.569 181.308 210.853 181.308 212.329V219.422H177.801V201.176H182.679L188.585 215.678C188.234 213.322 188.058 211.16 188.058 209.191V201.176H191.565V219.422Z" fill="black"/>
</svg>
