<svg width="330" height="200" viewBox="0 0 330 200" fill="none" xmlns="http://www.w3.org/2000/svg">
<rect width="330" height="200" fill="#330B6A"/>
<path d="M42.7609 16.9488V36.3875H38.1607V16.9488H42.7609ZM53.9248 16.9488L47.7257 25.6723L54.4297 36.3875H49.1002L42.9011 26.009L49.0721 16.9488H53.9248ZM68.6716 28.6457C68.6716 29.2628 68.6436 29.7957 68.5875 30.2445H59.359C59.5086 31.4974 59.8639 32.3763 60.4249 32.8812C60.9859 33.3861 61.762 33.6386 62.7531 33.6386C63.3515 33.6386 63.9312 33.5357 64.4922 33.33C65.0532 33.1056 65.6609 32.769 66.3154 32.3202L68.1387 34.7886C66.3996 36.1724 64.4641 36.8643 62.3323 36.8643C59.92 36.8643 58.0687 36.1537 56.7784 34.7325C55.4881 33.3113 54.843 31.4039 54.843 29.0103C54.843 27.4956 55.1141 26.1399 55.6564 24.9431C56.1987 23.7276 56.9935 22.7738 58.0407 22.0819C59.0879 21.3713 60.3408 21.016 61.7994 21.016C63.9499 21.016 65.6329 21.6892 66.8484 23.0357C68.0639 24.3821 68.6716 26.2521 68.6716 28.6457ZM64.3239 27.3834C64.2865 25.102 63.4824 23.9613 61.9116 23.9613C61.1449 23.9613 60.5465 24.2418 60.1164 24.8028C59.705 25.3638 59.4525 26.2895 59.359 27.5798H64.3239V27.3834ZM76.7572 21.016C77.8231 21.016 78.8236 21.175 79.7586 21.4929C80.6936 21.8108 81.5164 22.2596 82.227 22.8393L80.6001 25.3358C79.3846 24.569 78.1597 24.1857 76.9255 24.1857C76.3458 24.1857 75.897 24.2885 75.5791 24.4942C75.2799 24.6812 75.1303 24.9524 75.1303 25.3077C75.1303 25.5882 75.1958 25.822 75.3267 26.009C75.4763 26.1773 75.7661 26.3549 76.1962 26.5419C76.6263 26.7289 77.2902 26.9533 78.1878 27.2151C79.7399 27.6639 80.8899 28.253 81.6379 28.9823C82.4046 29.6929 82.788 30.684 82.788 31.9556C82.788 32.9654 82.4981 33.8443 81.9184 34.5923C81.3387 35.3216 80.544 35.8826 79.5342 36.2753C78.5244 36.668 77.4024 36.8643 76.1682 36.8643C74.9153 36.8643 73.7465 36.668 72.6619 36.2753C71.596 35.8826 70.6891 35.3403 69.9411 34.6484L72.1009 32.2361C73.3538 33.2085 74.6722 33.6947 76.056 33.6947C76.7292 33.6947 77.2528 33.5731 77.6268 33.33C78.0195 33.0869 78.2158 32.741 78.2158 32.2922C78.2158 31.9369 78.141 31.6564 77.9914 31.4507C77.8418 31.245 77.552 31.058 77.1219 30.8897C76.6918 30.7027 76.0092 30.4783 75.0742 30.2165C73.5969 29.7864 72.4936 29.188 71.7643 28.4213C71.035 27.6546 70.6704 26.7009 70.6704 25.5602C70.6704 24.7 70.9135 23.9333 71.3997 23.26C71.9046 22.5682 72.6152 22.0259 73.5315 21.6331C74.4665 21.2217 75.5417 21.016 76.7572 21.016ZM101.77 35.6862C101.227 36.0602 100.591 36.3501 99.8621 36.5558C99.1515 36.7615 98.4409 36.8643 97.7303 36.8643C94.4765 36.8456 92.8496 35.0504 92.8496 31.4787V24.5784H90.7459V21.4929H92.8496V18.2671L97.2815 17.7622V21.4929H100.704L100.227 24.5784H97.2815V31.4226C97.2815 32.1145 97.3937 32.6101 97.6181 32.9093C97.8425 33.2085 98.1978 33.3581 98.684 33.3581C99.1889 33.3581 99.7219 33.1991 100.283 32.8812L101.77 35.6862ZM109.558 21.016C111.839 21.016 113.625 21.7173 114.916 23.1198C116.206 24.5036 116.851 26.4484 116.851 28.9542C116.851 30.5437 116.552 31.9369 115.953 33.1337C115.374 34.3118 114.532 35.2281 113.429 35.8826C112.344 36.5371 111.054 36.8643 109.558 36.8643C107.295 36.8643 105.509 36.1724 104.2 34.7886C102.91 33.3861 102.265 31.432 102.265 28.9262C102.265 27.3367 102.555 25.9529 103.135 24.7747C103.733 23.578 104.574 22.6523 105.659 21.9978C106.762 21.3433 108.062 21.016 109.558 21.016ZM109.558 24.2699C108.66 24.2699 107.987 24.6532 107.538 25.4199C107.09 26.1679 106.865 27.3367 106.865 28.9262C106.865 30.5531 107.08 31.7405 107.51 32.4885C107.959 33.2365 108.642 33.6105 109.558 33.6105C110.456 33.6105 111.129 33.2365 111.578 32.4885C112.026 31.7218 112.251 30.5437 112.251 28.9542C112.251 27.3273 112.026 26.1399 111.578 25.3919C111.147 24.6439 110.474 24.2699 109.558 24.2699ZM111.185 18.5757C110.773 18.5757 110.418 18.5102 110.119 18.3793C109.82 18.2484 109.493 18.0614 109.137 17.8183C108.67 17.4817 108.286 17.3135 107.987 17.3135C107.669 17.3135 107.398 17.4163 107.174 17.622C106.968 17.809 106.744 18.1175 106.501 18.5476L104.285 17.4817C104.659 16.5093 105.154 15.7146 105.771 15.0975C106.407 14.4804 107.118 14.1718 107.903 14.1718C108.333 14.1718 108.698 14.2466 108.997 14.3962C109.315 14.5271 109.661 14.7141 110.035 14.9572C110.297 15.1255 110.502 15.2471 110.652 15.3219C110.82 15.3967 110.989 15.4341 111.157 15.4341C111.456 15.4341 111.708 15.3406 111.914 15.1536C112.139 14.9479 112.372 14.63 112.615 14.1999L114.831 15.2938C114.439 16.2849 113.924 17.0797 113.289 17.6781C112.672 18.2765 111.97 18.5757 111.185 18.5757ZM125.083 21.016C126.149 21.016 127.15 21.175 128.085 21.4929C129.02 21.8108 129.842 22.2596 130.553 22.8393L128.926 25.3358C127.711 24.569 126.486 24.1857 125.252 24.1857C124.672 24.1857 124.223 24.2885 123.905 24.4942C123.606 24.6812 123.456 24.9524 123.456 25.3077C123.456 25.5882 123.522 25.822 123.653 26.009C123.802 26.1773 124.092 26.3549 124.522 26.5419C124.952 26.7289 125.616 26.9533 126.514 27.2151C128.066 27.6639 129.216 28.253 129.964 28.9823C130.731 29.6929 131.114 30.684 131.114 31.9556C131.114 32.9654 130.824 33.8443 130.244 34.5923C129.665 35.3216 128.87 35.8826 127.86 36.2753C126.85 36.668 125.728 36.8643 124.494 36.8643C123.241 36.8643 122.073 36.668 120.988 36.2753C119.922 35.8826 119.015 35.3403 118.267 34.6484L120.427 32.2361C121.68 33.2085 122.998 33.6947 124.382 33.6947C125.055 33.6947 125.579 33.5731 125.953 33.33C126.345 33.0869 126.542 32.741 126.542 32.2922C126.542 31.9369 126.467 31.6564 126.317 31.4507C126.168 31.245 125.878 31.058 125.448 30.8897C125.018 30.7027 124.335 30.4783 123.4 30.2165C121.923 29.7864 120.82 29.188 120.09 28.4213C119.361 27.6546 118.996 26.7009 118.996 25.5602C118.996 24.7 119.239 23.9333 119.726 23.26C120.231 22.5682 120.941 22.0259 121.857 21.6331C122.792 21.2217 123.868 21.016 125.083 21.016ZM143.088 35.6862C142.546 36.0602 141.91 36.3501 141.181 36.5558C140.47 36.7615 139.76 36.8643 139.049 36.8643C135.795 36.8456 134.169 35.0504 134.169 31.4787V24.5784H132.065V21.4929H134.169V18.2671L138.6 17.7622V21.4929H142.023L141.546 24.5784H138.6V31.4226C138.6 32.1145 138.713 32.6101 138.937 32.9093C139.161 33.2085 139.517 33.3581 140.003 33.3581C140.508 33.3581 141.041 33.1991 141.602 32.8812L143.088 35.6862ZM156.427 32.0678C156.427 32.6288 156.502 33.0402 156.651 33.302C156.82 33.5638 157.081 33.7601 157.437 33.891L156.511 36.7802C155.595 36.7054 154.847 36.509 154.267 36.1911C153.687 35.8545 153.239 35.3309 152.921 34.6203C151.948 36.1163 150.452 36.8643 148.433 36.8643C146.955 36.8643 145.777 36.4342 144.898 35.574C144.019 34.7138 143.58 33.5918 143.58 32.208C143.58 30.5811 144.178 29.3376 145.375 28.4774C146.572 27.6172 148.302 27.1871 150.564 27.1871H152.079V26.5419C152.079 25.663 151.892 25.0646 151.518 24.7467C151.144 24.4101 150.49 24.2418 149.555 24.2418C149.068 24.2418 148.479 24.3166 147.788 24.4662C147.096 24.5971 146.385 24.7841 145.656 25.0272L144.646 22.11C145.581 21.7547 146.535 21.4836 147.507 21.2965C148.498 21.1095 149.414 21.016 150.256 21.016C152.388 21.016 153.949 21.4555 154.94 22.3344C155.931 23.2133 156.427 24.5317 156.427 26.2895V32.0678ZM149.723 33.6947C150.733 33.6947 151.518 33.2178 152.079 32.2641V29.6274H150.985C149.975 29.6274 149.218 29.8051 148.713 30.1604C148.227 30.5157 147.984 31.0673 147.984 31.8153C147.984 32.4137 148.133 32.8812 148.433 33.2178C148.751 33.5357 149.181 33.6947 149.723 33.6947ZM168.751 21.016C170.527 21.016 171.892 21.7173 172.846 23.1198C173.8 24.5036 174.277 26.4484 174.277 28.9542C174.277 30.4876 174.033 31.8527 173.547 33.0495C173.08 34.2463 172.397 35.1813 171.5 35.8545C170.621 36.5277 169.574 36.8643 168.358 36.8643C167.554 36.8643 166.815 36.696 166.142 36.3594C165.488 36.0228 164.927 35.5553 164.459 34.9569L164.235 36.3875H160.308V15.5743L164.74 15.0975V23.0076C165.188 22.3905 165.759 21.9043 166.451 21.549C167.161 21.1937 167.928 21.016 168.751 21.016ZM167.068 33.6386C168.807 33.6386 169.676 32.0771 169.676 28.9542C169.676 27.1777 169.471 25.9529 169.059 25.2796C168.648 24.6065 168.049 24.2699 167.264 24.2699C166.273 24.2699 165.431 24.8496 164.74 26.009V32.208C165.02 32.6568 165.357 33.0121 165.749 33.2739C166.161 33.517 166.6 33.6386 167.068 33.6386ZM188.806 34.7045C188.806 36.2566 188.554 37.5375 188.049 38.5473C187.562 39.5571 186.889 40.3612 186.029 40.9596C185.188 41.5767 184.122 42.119 182.831 42.5865L181.345 39.3608C182.074 39.0242 182.644 38.6969 183.056 38.379C183.467 38.0611 183.785 37.631 184.009 37.0887C184.253 36.5651 184.374 35.8639 184.374 34.985V21.4929H188.806V34.7045ZM186.59 13.6389C187.357 13.6389 187.983 13.882 188.469 14.3682C188.974 14.8357 189.227 15.4341 189.227 16.1634C189.227 16.8927 188.974 17.5004 188.469 17.9866C187.983 18.4541 187.357 18.6879 186.59 18.6879C185.823 18.6879 185.197 18.4541 184.711 17.9866C184.225 17.5004 183.981 16.8927 183.981 16.1634C183.981 15.4341 184.225 14.8357 184.711 14.3682C185.197 13.882 185.823 13.6389 186.59 13.6389ZM204.479 32.0678C204.479 32.6288 204.554 33.0402 204.703 33.302C204.872 33.5638 205.133 33.7601 205.489 33.891L204.563 36.7802C203.647 36.7054 202.899 36.509 202.319 36.1911C201.739 35.8545 201.291 35.3309 200.973 34.6203C200 36.1163 198.504 36.8643 196.485 36.8643C195.007 36.8643 193.829 36.4342 192.95 35.574C192.072 34.7138 191.632 33.5918 191.632 32.208C191.632 30.5811 192.23 29.3376 193.427 28.4774C194.624 27.6172 196.354 27.1871 198.617 27.1871H200.131V26.5419C200.131 25.663 199.944 25.0646 199.57 24.7467C199.196 24.4101 198.542 24.2418 197.607 24.2418C197.121 24.2418 196.531 24.3166 195.84 24.4662C195.148 24.5971 194.437 24.7841 193.708 25.0272L192.698 22.11C193.633 21.7547 194.587 21.4836 195.559 21.2965C196.55 21.1095 197.466 21.016 198.308 21.016C200.44 21.016 202.001 21.4555 202.992 22.3344C203.983 23.2133 204.479 24.5317 204.479 26.2895V32.0678ZM197.775 33.6947C198.785 33.6947 199.57 33.2178 200.131 32.2641V29.6274H199.037C198.027 29.6274 197.27 29.8051 196.765 30.1604C196.279 30.5157 196.036 31.0673 196.036 31.8153C196.036 32.4137 196.186 32.8812 196.485 33.2178C196.803 33.5357 197.233 33.6947 197.775 33.6947ZM212.041 36.8643C210.751 36.8643 209.741 36.4997 209.011 35.7704C208.301 35.0224 207.946 33.9658 207.946 32.6007V15.5743L212.377 15.0975V32.4324C212.377 33.0495 212.63 33.3581 213.135 33.3581C213.397 33.3581 213.64 33.3113 213.864 33.2178L214.734 36.3594C213.93 36.696 213.032 36.8643 212.041 36.8643ZM230.48 22.3625C229.508 22.7552 228.077 22.9515 226.189 22.9515C227.161 23.3629 227.872 23.8678 228.32 24.4662C228.769 25.0646 228.994 25.8407 228.994 26.7944C228.994 27.7481 228.741 28.6083 228.236 29.375C227.731 30.123 227.002 30.712 226.048 31.1421C225.113 31.5722 224.01 31.7873 222.738 31.7873C222.14 31.7873 221.57 31.7312 221.027 31.619C220.878 31.6938 220.756 31.8153 220.663 31.9836C220.588 32.1332 220.551 32.2922 220.551 32.4605C220.551 32.741 220.653 32.9654 220.859 33.1337C221.083 33.2833 221.523 33.3581 222.177 33.3581H224.421C225.562 33.3581 226.563 33.5451 227.423 33.9191C228.283 34.2931 228.947 34.8073 229.414 35.4618C229.882 36.1163 230.116 36.855 230.116 37.6778C230.116 39.2299 229.442 40.436 228.096 41.2962C226.768 42.1751 224.842 42.6146 222.318 42.6146C220.504 42.6146 219.073 42.4182 218.026 42.0255C216.979 41.6515 216.24 41.1186 215.81 40.4267C215.399 39.7348 215.193 38.8652 215.193 37.818H219.176C219.176 38.2668 219.26 38.6221 219.429 38.8839C219.616 39.1457 219.943 39.3421 220.41 39.473C220.878 39.6039 221.551 39.6693 222.43 39.6693C223.645 39.6693 224.487 39.5197 224.954 39.2205C225.422 38.94 225.656 38.5286 225.656 37.9863C225.656 37.5375 225.478 37.1822 225.123 36.9204C224.767 36.6586 224.234 36.5277 223.524 36.5277H221.364C219.831 36.5277 218.681 36.2566 217.914 35.7143C217.166 35.1533 216.792 34.4427 216.792 33.5825C216.792 33.0402 216.951 32.5166 217.269 32.0117C217.587 31.4881 218.017 31.058 218.559 30.7214C217.624 30.2165 216.941 29.6274 216.511 28.9542C216.1 28.2623 215.894 27.4302 215.894 26.4578C215.894 24.7935 216.493 23.4751 217.689 22.5027C218.886 21.5116 220.466 21.016 222.43 21.016C223.926 21.0535 225.188 20.9039 226.217 20.5673C227.264 20.2307 228.339 19.7351 229.442 19.0806L230.48 22.3625ZM222.542 23.9332C221.85 23.9332 221.299 24.1576 220.887 24.6065C220.494 25.0366 220.298 25.635 220.298 26.4017C220.298 27.2058 220.494 27.8322 220.887 28.281C221.299 28.7111 221.85 28.9262 222.542 28.9262C223.271 28.9262 223.823 28.7111 224.197 28.281C224.59 27.8509 224.786 27.2058 224.786 26.3456C224.786 24.7373 224.038 23.9332 222.542 23.9332ZM240.979 21.016C242.849 21.016 244.242 21.7079 245.158 23.0917C246.075 24.4756 246.533 26.411 246.533 28.8981C246.533 30.4315 246.29 31.806 245.803 33.0215C245.336 34.2183 244.653 35.1626 243.756 35.8545C242.858 36.5277 241.811 36.8643 240.614 36.8643C239.118 36.8643 237.912 36.3501 236.996 35.3216V42.1377L232.564 42.6146V21.4929H236.463L236.687 23.1478C237.267 22.4185 237.931 21.8856 238.679 21.549C239.427 21.1937 240.193 21.016 240.979 21.016ZM239.268 33.6105C241.044 33.6105 241.933 32.0584 241.933 28.9542C241.933 27.1964 241.736 25.9809 241.343 25.3077C240.951 24.6158 240.362 24.2699 239.576 24.2699C239.071 24.2699 238.595 24.4195 238.146 24.7187C237.716 25.0179 237.332 25.448 236.996 26.009V32.2922C237.594 33.1711 238.351 33.6105 239.268 33.6105ZM261.214 32.0678C261.214 32.6288 261.289 33.0402 261.439 33.302C261.607 33.5638 261.869 33.7601 262.224 33.891L261.299 36.7802C260.382 36.7054 259.634 36.509 259.055 36.1911C258.475 35.8545 258.026 35.3309 257.708 34.6203C256.736 36.1163 255.24 36.8643 253.22 36.8643C251.743 36.8643 250.565 36.4342 249.686 35.574C248.807 34.7138 248.368 33.5918 248.368 32.208C248.368 30.5811 248.966 29.3376 250.163 28.4774C251.36 27.6172 253.089 27.1871 255.352 27.1871H256.867V26.5419C256.867 25.663 256.68 25.0646 256.306 24.7467C255.932 24.4101 255.277 24.2418 254.342 24.2418C253.856 24.2418 253.267 24.3166 252.575 24.4662C251.883 24.5971 251.173 24.7841 250.443 25.0272L249.433 22.11C250.368 21.7547 251.322 21.4836 252.295 21.2965C253.286 21.1095 254.202 21.016 255.043 21.016C257.175 21.016 258.737 21.4555 259.728 22.3344C260.719 23.2133 261.214 24.5317 261.214 26.2895V32.0678ZM254.511 33.6947C255.52 33.6947 256.306 33.2178 256.867 32.2641V29.6274H255.773C254.763 29.6274 254.006 29.8051 253.501 30.1604C253.015 30.5157 252.771 31.0673 252.771 31.8153C252.771 32.4137 252.921 32.8812 253.22 33.2178C253.538 33.5357 253.968 33.6947 254.511 33.6947ZM268.776 36.8643C267.486 36.8643 266.476 36.4997 265.747 35.7704C265.036 35.0224 264.681 33.9658 264.681 32.6007V15.5743L269.113 15.0975V32.4324C269.113 33.0495 269.365 33.3581 269.87 33.3581C270.132 33.3581 270.375 33.3113 270.6 33.2178L271.469 36.3594C270.665 36.696 269.767 36.8643 268.776 36.8643ZM277.454 36.8643C276.164 36.8643 275.154 36.4997 274.425 35.7704C273.714 35.0224 273.359 33.9658 273.359 32.6007V15.5743L277.791 15.0975V32.4324C277.791 33.0495 278.043 33.3581 278.548 33.3581C278.81 33.3581 279.053 33.3113 279.278 33.2178L280.147 36.3594C279.343 36.696 278.445 36.8643 277.454 36.8643ZM286.609 21.4929V36.3875H282.177V21.4929H286.609ZM284.365 13.6389C285.132 13.6389 285.758 13.882 286.245 14.3682C286.749 14.8357 287.002 15.4341 287.002 16.1634C287.002 16.8927 286.749 17.5004 286.245 17.9866C285.758 18.4541 285.132 18.6879 284.365 18.6879C283.598 18.6879 282.972 18.4541 282.486 17.9866C282 17.5004 281.757 16.8927 281.757 16.1634C281.757 15.4341 282 14.8357 282.486 14.3682C282.972 13.882 283.598 13.6389 284.365 13.6389ZM57.4591 71.3875H52.943L52.6064 63.7859C52.5129 61.972 52.4662 60.3544 52.4662 58.9332C52.4662 57.8486 52.4942 56.8201 52.5503 55.8477L49.549 69.3398H45.2012L42.0035 55.8477C42.1157 57.4747 42.1718 59.0081 42.1718 60.448C42.1718 61.5326 42.1438 62.6639 42.0877 63.842L41.7511 71.3875H37.2631L38.7217 51.9488H44.528L47.4452 65.1323L50.1661 51.9488H56.0005L57.4591 71.3875ZM79.8607 71.3875H75.3447L75.0081 63.7859C74.9146 61.972 74.8678 60.3544 74.8678 58.9332C74.8678 57.8486 74.8959 56.8201 74.952 55.8477L71.9506 69.3398H67.6029L64.4052 55.8477C64.5174 57.4747 64.5735 59.0081 64.5735 60.448C64.5735 61.5326 64.5454 62.6639 64.4893 63.842L64.1527 71.3875H59.6647L61.1233 51.9488H66.9297L69.8469 65.1323L72.5677 51.9488H78.4021L79.8607 71.3875ZM82.3749 64.3189V60.8968H91.3229V64.3189H82.3749ZM99.085 50.0975V71.3875H94.6531V50.5743L99.085 50.0975ZM108.285 56.4929L103.769 63.0286L108.65 71.3875H103.657L99.2253 63.253L103.769 56.4929H108.285ZM121.907 67.0678C121.907 67.6288 121.982 68.0402 122.131 68.302C122.299 68.5638 122.561 68.7601 122.917 68.891L121.991 71.7802C121.075 71.7054 120.327 71.509 119.747 71.1911C119.167 70.8545 118.718 70.3309 118.401 69.6203C117.428 71.1163 115.932 71.8643 113.913 71.8643C112.435 71.8643 111.257 71.4342 110.378 70.574C109.499 69.7138 109.06 68.5918 109.06 67.208C109.06 65.5811 109.658 64.3376 110.855 63.4774C112.052 62.6172 113.782 62.1871 116.044 62.1871H117.559V61.5419C117.559 60.663 117.372 60.0646 116.998 59.7467C116.624 59.4101 115.97 59.2418 115.035 59.2418C114.548 59.2418 113.959 59.3166 113.267 59.4662C112.575 59.5971 111.865 59.7841 111.136 60.0272L110.126 57.11C111.061 56.7547 112.014 56.4836 112.987 56.2965C113.978 56.1095 114.894 56.016 115.736 56.016C117.868 56.016 119.429 56.4555 120.42 57.3344C121.411 58.2133 121.907 59.5317 121.907 61.2895V67.0678ZM115.203 68.6947C116.213 68.6947 116.998 68.2178 117.559 67.2641V64.6274H116.465C115.455 64.6274 114.698 64.8051 114.193 65.1604C113.707 65.5157 113.464 66.0673 113.464 66.8153C113.464 67.4137 113.613 67.8812 113.913 68.2178C114.23 68.5357 114.661 68.6947 115.203 68.6947ZM133.866 56.0722C134.408 56.0722 134.904 56.1376 135.353 56.2685L134.651 60.5602C134.09 60.4293 133.642 60.3638 133.305 60.3638C132.426 60.3638 131.753 60.6724 131.285 61.2895C130.837 61.8879 130.481 62.7948 130.219 64.0103V71.3875H125.788V56.4929H129.658L130.023 59.382C130.36 58.3536 130.865 57.5495 131.538 56.9698C132.23 56.3714 133.006 56.0722 133.866 56.0722ZM141.828 56.4929V71.3875H137.397V56.4929H141.828ZM139.584 48.6389C140.351 48.6389 140.978 48.882 141.464 49.3682C141.969 49.8357 142.221 50.4341 142.221 51.1634C142.221 51.8927 141.969 52.5004 141.464 52.9866C140.978 53.4541 140.351 53.6879 139.584 53.6879C138.818 53.6879 138.191 53.4541 137.705 52.9866C137.219 52.5004 136.976 51.8927 136.976 51.1634C136.976 50.4341 137.219 49.8357 137.705 49.3682C138.191 48.882 138.818 48.6389 139.584 48.6389ZM150.095 50.0975V71.3875H145.664V50.5743L150.095 50.0975ZM159.296 56.4929L154.78 63.0286L159.661 71.3875H154.668L150.236 63.253L154.78 56.4929H159.296ZM172.917 67.0678C172.917 67.6288 172.992 68.0402 173.142 68.302C173.31 68.5638 173.572 68.7601 173.927 68.891L173.001 71.7802C172.085 71.7054 171.337 71.509 170.757 71.1911C170.178 70.8545 169.729 70.3309 169.411 69.6203C168.439 71.1163 166.943 71.8643 164.923 71.8643C163.446 71.8643 162.268 71.4342 161.389 70.574C160.51 69.7138 160.07 68.5918 160.07 67.208C160.07 65.5811 160.669 64.3376 161.866 63.4774C163.062 62.6172 164.792 62.1871 167.055 62.1871H168.569V61.5419C168.569 60.663 168.382 60.0646 168.008 59.7467C167.634 59.4101 166.98 59.2418 166.045 59.2418C165.559 59.2418 164.97 59.3166 164.278 59.4662C163.586 59.5971 162.875 59.7841 162.146 60.0272L161.136 57.11C162.071 56.7547 163.025 56.4836 163.997 56.2965C164.988 56.1095 165.905 56.016 166.746 56.016C168.878 56.016 170.439 56.4555 171.431 57.3344C172.422 58.2133 172.917 59.5317 172.917 61.2895V67.0678ZM166.213 68.6947C167.223 68.6947 168.008 68.2178 168.569 67.2641V64.6274H167.476C166.466 64.6274 165.708 64.8051 165.203 65.1604C164.717 65.5157 164.474 66.0673 164.474 66.8153C164.474 67.4137 164.624 67.8812 164.923 68.2178C165.241 68.5357 165.671 68.6947 166.213 68.6947ZM181.166 51.4719C182.475 51.4719 183.588 51.687 184.504 52.1171C185.439 52.5285 186.14 53.0895 186.608 53.8001C187.075 54.5107 187.309 55.2961 187.309 56.1563C187.309 56.923 187.169 57.5775 186.888 58.1198C186.627 58.6621 186.309 59.1015 185.935 59.4381C185.561 59.7748 185.065 60.1675 184.448 60.6163C183.7 61.1212 183.148 61.5793 182.793 61.9907C182.438 62.3834 182.26 62.8977 182.26 63.5335V64.2347H178.221V63.3652C178.221 62.4863 178.352 61.7476 178.614 61.1492C178.894 60.5321 179.221 60.0553 179.595 59.7187C179.988 59.3633 180.474 58.98 181.054 58.5686C181.615 58.1946 182.026 57.8673 182.288 57.5869C182.55 57.3063 182.681 56.9604 182.681 56.549C182.681 56.0441 182.503 55.6514 182.148 55.3709C181.811 55.0904 181.334 54.9501 180.717 54.9501C179.539 54.9501 178.445 55.5205 177.435 56.6612L174.602 54.4733C176.304 52.4724 178.492 51.4719 181.166 51.4719ZM180.297 66.7873C180.988 66.7873 181.578 67.0397 182.064 67.5446C182.569 68.0308 182.821 68.6199 182.821 69.3118C182.821 70.0224 182.569 70.6301 182.064 71.135C181.578 71.6212 180.988 71.8643 180.297 71.8643C179.605 71.8643 179.006 71.6212 178.501 71.135C178.015 70.6301 177.772 70.0224 177.772 69.3118C177.772 68.6199 178.015 68.0308 178.501 67.5446C179.006 67.0397 179.605 66.7873 180.297 66.7873Z" fill="#D7FF00"/>
<path d="M37.2093 89.358V87.4877H48.3538V89.358H43.8608V101.888H41.6952V89.358H37.2093ZM53.4887 102.106C52.4247 102.106 51.5083 101.878 50.7395 101.424C49.9754 100.964 49.3848 100.32 48.9676 99.49C48.5551 98.6557 48.3489 97.6783 48.3489 96.558C48.3489 95.4518 48.5551 94.4768 48.9676 93.633C49.3848 92.7893 49.9661 92.1307 50.7114 91.6572C51.4614 91.1838 52.338 90.9471 53.3411 90.9471C53.9505 90.9471 54.5411 91.0479 55.113 91.2494C55.6848 91.451 56.1981 91.7674 56.6528 92.1986C57.1075 92.6299 57.4661 93.19 57.7286 93.8791C57.9911 94.5635 58.1223 95.3955 58.1223 96.3752V97.1205H49.5372V95.5455H56.0622C56.0622 94.9924 55.9497 94.5025 55.7247 94.076C55.4997 93.6447 55.1833 93.3049 54.7755 93.0564C54.3723 92.808 53.8989 92.6838 53.3551 92.6838C52.7645 92.6838 52.2489 92.8291 51.8083 93.1197C51.3723 93.4057 51.0348 93.7807 50.7958 94.2447C50.5614 94.7041 50.4442 95.2033 50.4442 95.7424V96.9729C50.4442 97.6947 50.5708 98.3088 50.8239 98.815C51.0817 99.3213 51.4403 99.708 51.8997 99.9752C52.359 100.238 52.8958 100.369 53.5098 100.369C53.9083 100.369 54.2715 100.313 54.5997 100.2C54.9278 100.083 55.2114 99.9096 55.4505 99.6799C55.6895 99.4502 55.8723 99.1666 55.9989 98.8291L57.9887 99.1877C57.8294 99.7736 57.5434 100.287 57.1309 100.728C56.7231 101.163 56.2098 101.503 55.5911 101.747C54.977 101.986 54.2762 102.106 53.4887 102.106ZM64.8621 102.106C63.7981 102.106 62.8817 101.878 62.1129 101.424C61.3488 100.964 60.7582 100.32 60.341 99.49C59.9285 98.6557 59.7223 97.6783 59.7223 96.558C59.7223 95.4518 59.9285 94.4768 60.341 93.633C60.7582 92.7893 61.3395 92.1307 62.0848 91.6572C62.8348 91.1838 63.7113 90.9471 64.7145 90.9471C65.3238 90.9471 65.9145 91.0479 66.4863 91.2494C67.0582 91.451 67.5715 91.7674 68.0262 92.1986C68.4809 92.6299 68.8395 93.19 69.102 93.8791C69.3645 94.5635 69.4957 95.3955 69.4957 96.3752V97.1205H60.9106V95.5455H67.4356C67.4356 94.9924 67.3231 94.5025 67.0981 94.076C66.8731 93.6447 66.5567 93.3049 66.1488 93.0564C65.7457 92.808 65.2723 92.6838 64.7285 92.6838C64.1379 92.6838 63.6223 92.8291 63.1817 93.1197C62.7457 93.4057 62.4082 93.7807 62.1692 94.2447C61.9348 94.7041 61.8176 95.2033 61.8176 95.7424V96.9729C61.8176 97.6947 61.9442 98.3088 62.1973 98.815C62.4551 99.3213 62.8137 99.708 63.2731 99.9752C63.7324 100.238 64.2692 100.369 64.8832 100.369C65.2817 100.369 65.6449 100.313 65.9731 100.2C66.3012 100.083 66.5848 99.9096 66.8238 99.6799C67.0629 99.4502 67.2457 99.1666 67.3723 98.8291L69.3621 99.1877C69.2028 99.7736 68.9168 100.287 68.5043 100.728C68.0965 101.163 67.5832 101.503 66.9645 101.747C66.3504 101.986 65.6496 102.106 64.8621 102.106ZM81.1226 102.106C80.1101 102.106 79.2265 101.874 78.4718 101.41C77.7171 100.946 77.1312 100.296 76.714 99.4619C76.2968 98.6275 76.0882 97.6525 76.0882 96.5369C76.0882 95.4166 76.2968 94.4369 76.714 93.5979C77.1312 92.7588 77.7171 92.1072 78.4718 91.6432C79.2265 91.1791 80.1101 90.9471 81.1226 90.9471C82.1351 90.9471 83.0187 91.1791 83.7734 91.6432C84.5281 92.1072 85.114 92.7588 85.5312 93.5979C85.9484 94.4369 86.157 95.4166 86.157 96.5369C86.157 97.6525 85.9484 98.6275 85.5312 99.4619C85.114 100.296 84.5281 100.946 83.7734 101.41C83.0187 101.874 82.1351 102.106 81.1226 102.106ZM81.1296 100.341C81.7859 100.341 82.3296 100.167 82.7609 99.8205C83.1921 99.4736 83.5109 99.0119 83.7171 98.4354C83.9281 97.8588 84.0335 97.2236 84.0335 96.5299C84.0335 95.8408 83.9281 95.208 83.7171 94.6314C83.5109 94.0502 83.1921 93.5838 82.7609 93.2322C82.3296 92.8807 81.7859 92.7049 81.1296 92.7049C80.4687 92.7049 79.9203 92.8807 79.4843 93.2322C79.0531 93.5838 78.732 94.0502 78.521 94.6314C78.3148 95.208 78.2117 95.8408 78.2117 96.5299C78.2117 97.2236 78.3148 97.8588 78.521 98.4354C78.732 99.0119 79.0531 99.4736 79.4843 99.8205C79.9203 100.167 80.4687 100.341 81.1296 100.341ZM88.2562 101.888V91.0877H90.2741V92.8455H90.4077C90.6327 92.2502 91.0007 91.7861 91.5116 91.4533C92.0226 91.1158 92.6343 90.9471 93.3468 90.9471C94.0687 90.9471 94.6733 91.1158 95.1608 91.4533C95.653 91.7908 96.0163 92.2549 96.2507 92.8455H96.3632C96.621 92.2689 97.0312 91.8096 97.5937 91.4674C98.1562 91.1205 98.8265 90.9471 99.6046 90.9471C100.584 90.9471 101.383 91.2541 102.002 91.8682C102.626 92.4822 102.937 93.408 102.937 94.6455V101.888H100.835V94.8424C100.835 94.1111 100.636 93.5814 100.237 93.2533C99.839 92.9252 99.3632 92.7611 98.8101 92.7611C98.1257 92.7611 97.5937 92.9721 97.214 93.3939C96.8343 93.8111 96.6444 94.3479 96.6444 95.0041V101.888H94.5491V94.7088C94.5491 94.1229 94.3663 93.6518 94.0007 93.2955C93.6351 92.9393 93.1593 92.7611 92.5733 92.7611C92.1749 92.7611 91.8069 92.8666 91.4694 93.0775C91.1366 93.2838 90.8671 93.5721 90.6608 93.9424C90.4593 94.3127 90.3585 94.7416 90.3585 95.2291V101.888H88.2562ZM108.651 102.127C107.966 102.127 107.348 102 106.794 101.747C106.241 101.489 105.803 101.117 105.48 100.629C105.161 100.142 105.001 99.5439 105.001 98.8361C105.001 98.2268 105.119 97.7252 105.353 97.3314C105.587 96.9377 105.904 96.626 106.302 96.3963C106.701 96.1666 107.146 95.9932 107.638 95.876C108.13 95.7588 108.632 95.6697 109.143 95.6088C109.79 95.5338 110.315 95.4729 110.718 95.426C111.121 95.3744 111.414 95.2924 111.597 95.1799C111.78 95.0674 111.871 94.8846 111.871 94.6314V94.5822C111.871 93.9682 111.698 93.4924 111.351 93.1549C111.008 92.8174 110.498 92.6486 109.818 92.6486C109.11 92.6486 108.552 92.8057 108.144 93.1197C107.741 93.4291 107.462 93.7736 107.308 94.1533L105.332 93.7033C105.566 93.0471 105.908 92.5174 106.358 92.1143C106.813 91.7064 107.336 91.4111 107.926 91.2283C108.517 91.0408 109.138 90.9471 109.79 90.9471C110.221 90.9471 110.678 90.9986 111.161 91.1018C111.648 91.2002 112.103 91.383 112.525 91.6502C112.951 91.9174 113.301 92.2994 113.573 92.7963C113.844 93.2885 113.98 93.9283 113.98 94.7158V101.888H111.927V100.411H111.843C111.707 100.683 111.503 100.95 111.231 101.213C110.959 101.475 110.61 101.693 110.183 101.867C109.757 102.04 109.246 102.127 108.651 102.127ZM109.108 100.439C109.689 100.439 110.186 100.324 110.598 100.095C111.015 99.865 111.332 99.565 111.548 99.1947C111.768 98.8197 111.878 98.4189 111.878 97.9924V96.6002C111.803 96.6752 111.658 96.7455 111.442 96.8111C111.231 96.8721 110.99 96.926 110.718 96.9729C110.446 97.015 110.181 97.0549 109.923 97.0924C109.665 97.1252 109.45 97.1533 109.276 97.1768C108.869 97.2283 108.496 97.315 108.158 97.4369C107.826 97.5588 107.558 97.7346 107.357 97.9643C107.16 98.1893 107.062 98.4893 107.062 98.8643C107.062 99.3846 107.254 99.7783 107.638 100.046C108.023 100.308 108.512 100.439 109.108 100.439ZM126.18 102.106C125.116 102.106 124.2 101.878 123.431 101.424C122.667 100.964 122.076 100.32 121.659 99.49C121.247 98.6557 121.04 97.6783 121.04 96.558C121.04 95.4518 121.247 94.4768 121.659 93.633C122.076 92.7893 122.658 92.1307 123.403 91.6572C124.153 91.1838 125.029 90.9471 126.033 90.9471C126.642 90.9471 127.233 91.0479 127.804 91.2494C128.376 91.451 128.89 91.7674 129.344 92.1986C129.799 92.6299 130.158 93.19 130.42 93.8791C130.683 94.5635 130.814 95.3955 130.814 96.3752V97.1205H122.229V95.5455H128.754C128.754 94.9924 128.641 94.5025 128.416 94.076C128.191 93.6447 127.875 93.3049 127.467 93.0564C127.064 92.808 126.59 92.6838 126.047 92.6838C125.456 92.6838 124.94 92.8291 124.5 93.1197C124.064 93.4057 123.726 93.7807 123.487 94.2447C123.253 94.7041 123.136 95.2033 123.136 95.7424V96.9729C123.136 97.6947 123.262 98.3088 123.515 98.815C123.773 99.3213 124.132 99.708 124.591 99.9752C125.051 100.238 125.587 100.369 126.201 100.369C126.6 100.369 126.963 100.313 127.291 100.2C127.619 100.083 127.903 99.9096 128.142 99.6799C128.381 99.4502 128.564 99.1666 128.69 98.8291L130.68 99.1877C130.521 99.7736 130.235 100.287 129.822 100.728C129.415 101.163 128.901 101.503 128.283 101.747C127.669 101.986 126.968 102.106 126.18 102.106ZM135.001 95.4752V101.888H132.899V91.0877H134.917V92.8455H135.051C135.299 92.2736 135.688 91.8143 136.218 91.4674C136.752 91.1205 137.425 90.9471 138.236 90.9471C138.972 90.9471 139.616 91.1018 140.169 91.4111C140.722 91.7158 141.151 92.1705 141.456 92.7752C141.761 93.3799 141.913 94.1275 141.913 95.0182V101.888H139.811V95.2713C139.811 94.4885 139.607 93.8768 139.199 93.4361C138.791 92.9908 138.231 92.7682 137.519 92.7682C137.031 92.7682 136.597 92.8736 136.218 93.0846C135.843 93.2955 135.545 93.6049 135.325 94.0127C135.109 94.4158 135.001 94.9033 135.001 95.4752ZM146.587 95.4752V101.888H144.485V91.0877H146.503V92.8455H146.637C146.885 92.2736 147.274 91.8143 147.804 91.4674C148.338 91.1205 149.011 90.9471 149.822 90.9471C150.558 90.9471 151.202 91.1018 151.755 91.4111C152.309 91.7158 152.737 92.1705 153.042 92.7752C153.347 93.3799 153.499 94.1275 153.499 95.0182V101.888H151.397V95.2713C151.397 94.4885 151.193 93.8768 150.785 93.4361C150.377 92.9908 149.817 92.7682 149.105 92.7682C148.617 92.7682 148.184 92.8736 147.804 93.0846C147.429 93.2955 147.131 93.6049 146.911 94.0127C146.695 94.4158 146.587 94.9033 146.587 95.4752ZM162.913 97.4088V91.0877H165.022V101.888H162.955V100.017H162.842C162.594 100.594 162.195 101.074 161.647 101.459C161.103 101.838 160.426 102.028 159.615 102.028C158.921 102.028 158.307 101.876 157.773 101.571C157.243 101.262 156.826 100.805 156.521 100.2C156.221 99.5955 156.071 98.8479 156.071 97.9572V91.0877H158.174V97.7041C158.174 98.44 158.377 99.026 158.785 99.4619C159.193 99.8979 159.723 100.116 160.374 100.116C160.768 100.116 161.159 100.017 161.549 99.8205C161.942 99.6236 162.268 99.326 162.526 98.9275C162.788 98.5291 162.917 98.0229 162.913 97.4088ZM175.692 93.7244L173.787 94.0619C173.707 93.8182 173.58 93.5861 173.407 93.3658C173.238 93.1455 173.009 92.965 172.718 92.8244C172.427 92.6838 172.064 92.6135 171.628 92.6135C171.033 92.6135 170.536 92.7471 170.138 93.0143C169.739 93.2768 169.54 93.6166 169.54 94.0338C169.54 94.3947 169.673 94.6854 169.941 94.9057C170.208 95.126 170.639 95.3064 171.234 95.4471L172.95 95.8408C173.944 96.0705 174.684 96.4244 175.172 96.9025C175.659 97.3807 175.903 98.0018 175.903 98.7658C175.903 99.4127 175.716 99.9893 175.341 100.496C174.97 100.997 174.452 101.391 173.787 101.677C173.126 101.963 172.359 102.106 171.488 102.106C170.278 102.106 169.291 101.848 168.527 101.332C167.763 100.812 167.295 100.074 167.121 99.1174L169.153 98.808C169.28 99.3377 169.54 99.7385 169.934 100.01C170.327 100.278 170.841 100.411 171.473 100.411C172.163 100.411 172.713 100.268 173.126 99.9822C173.538 99.6916 173.745 99.3377 173.745 98.9205C173.745 98.583 173.618 98.2994 173.365 98.0697C173.116 97.84 172.734 97.6666 172.219 97.5494L170.391 97.1486C169.383 96.9189 168.638 96.5533 168.155 96.0518C167.677 95.5502 167.438 94.915 167.438 94.1463C167.438 93.5088 167.616 92.951 167.972 92.4729C168.328 91.9947 168.82 91.6221 169.448 91.3549C170.077 91.083 170.796 90.9471 171.607 90.9471C172.774 90.9471 173.693 91.2002 174.363 91.7064C175.034 92.208 175.477 92.8807 175.692 93.7244ZM183.009 91.0877V92.7752H177.109V91.0877H183.009ZM178.691 88.5002H180.794V98.7166C180.794 99.1244 180.855 99.4314 180.977 99.6377C181.098 99.8393 181.255 99.9775 181.448 100.053C181.645 100.123 181.858 100.158 182.087 100.158C182.256 100.158 182.404 100.146 182.53 100.123C182.657 100.099 182.755 100.081 182.826 100.067L183.205 101.803C183.084 101.85 182.91 101.897 182.685 101.944C182.46 101.996 182.179 102.024 181.841 102.028C181.288 102.038 180.773 101.939 180.295 101.733C179.816 101.527 179.43 101.208 179.134 100.777C178.839 100.346 178.691 99.8041 178.691 99.1525V88.5002ZM191.928 97.4088V91.0877H194.037V101.888H191.97V100.017H191.858C191.609 100.594 191.211 101.074 190.662 101.459C190.119 101.838 189.441 102.028 188.63 102.028C187.937 102.028 187.323 101.876 186.788 101.571C186.259 101.262 185.841 100.805 185.537 100.2C185.237 99.5955 185.087 98.8479 185.087 97.9572V91.0877H187.189V97.7041C187.189 98.44 187.393 99.026 187.801 99.4619C188.209 99.8979 188.738 100.116 189.39 100.116C189.784 100.116 190.175 100.017 190.564 99.8205C190.958 99.6236 191.284 99.326 191.541 98.9275C191.804 98.5291 191.933 98.0229 191.928 97.4088ZM204.708 93.7244L202.802 94.0619C202.723 93.8182 202.596 93.5861 202.423 93.3658C202.254 93.1455 202.024 92.965 201.734 92.8244C201.443 92.6838 201.08 92.6135 200.644 92.6135C200.048 92.6135 199.551 92.7471 199.153 93.0143C198.755 93.2768 198.555 93.6166 198.555 94.0338C198.555 94.3947 198.689 94.6854 198.956 94.9057C199.223 95.126 199.655 95.3064 200.25 95.4471L201.966 95.8408C202.959 96.0705 203.7 96.4244 204.187 96.9025C204.675 97.3807 204.919 98.0018 204.919 98.7658C204.919 99.4127 204.731 99.9893 204.356 100.496C203.986 100.997 203.468 101.391 202.802 101.677C202.141 101.963 201.375 102.106 200.503 102.106C199.294 102.106 198.307 101.848 197.543 101.332C196.779 100.812 196.31 100.074 196.137 99.1174L198.169 98.808C198.295 99.3377 198.555 99.7385 198.949 100.01C199.343 100.278 199.856 100.411 200.489 100.411C201.178 100.411 201.729 100.268 202.141 99.9822C202.554 99.6916 202.76 99.3377 202.76 98.9205C202.76 98.583 202.634 98.2994 202.38 98.0697C202.132 97.84 201.75 97.6666 201.234 97.5494L199.406 97.1486C198.398 96.9189 197.653 96.5533 197.17 96.0518C196.692 95.5502 196.453 94.915 196.453 94.1463C196.453 93.5088 196.631 92.951 196.987 92.4729C197.344 91.9947 197.836 91.6221 198.464 91.3549C199.092 91.083 199.812 90.9471 200.623 90.9471C201.79 90.9471 202.709 91.2002 203.379 91.7064C204.049 92.208 204.492 92.8807 204.708 93.7244ZM211.975 91.0877H214.078V102.591C214.078 103.313 213.946 103.922 213.684 104.419C213.426 104.916 213.042 105.293 212.531 105.551C212.024 105.809 211.399 105.938 210.653 105.938C210.578 105.938 210.508 105.938 210.442 105.938C210.372 105.938 210.299 105.935 210.224 105.931V104.124C210.29 104.124 210.349 104.124 210.4 104.124C210.447 104.124 210.501 104.124 210.562 104.124C211.059 104.124 211.417 103.99 211.638 103.723C211.863 103.46 211.975 103.078 211.975 102.577V91.0877ZM213.016 89.4213C212.65 89.4213 212.336 89.2994 212.074 89.0557C211.816 88.8072 211.687 88.5119 211.687 88.1697C211.687 87.8229 211.816 87.5275 212.074 87.2838C212.336 87.0354 212.65 86.9111 213.016 86.9111C213.381 86.9111 213.693 87.0354 213.951 87.2838C214.214 87.5275 214.345 87.8229 214.345 88.1697C214.345 88.5119 214.214 88.8072 213.951 89.0557C213.693 89.2994 213.381 89.4213 213.016 89.4213ZM219.801 102.127C219.117 102.127 218.498 102 217.945 101.747C217.392 101.489 216.954 101.117 216.63 100.629C216.312 100.142 216.152 99.5439 216.152 98.8361C216.152 98.2268 216.269 97.7252 216.504 97.3314C216.738 96.9377 217.054 96.626 217.453 96.3963C217.851 96.1666 218.297 95.9932 218.789 95.876C219.281 95.7588 219.783 95.6697 220.294 95.6088C220.94 95.5338 221.465 95.4729 221.869 95.426C222.272 95.3744 222.565 95.2924 222.747 95.1799C222.93 95.0674 223.022 94.8846 223.022 94.6314V94.5822C223.022 93.9682 222.848 93.4924 222.501 93.1549C222.159 92.8174 221.648 92.6486 220.969 92.6486C220.261 92.6486 219.703 92.8057 219.295 93.1197C218.892 93.4291 218.613 93.7736 218.458 94.1533L216.483 93.7033C216.717 93.0471 217.059 92.5174 217.509 92.1143C217.964 91.7064 218.487 91.4111 219.077 91.2283C219.668 91.0408 220.289 90.9471 220.94 90.9471C221.372 90.9471 221.829 90.9986 222.312 91.1018C222.799 91.2002 223.254 91.383 223.676 91.6502C224.102 91.9174 224.451 92.2994 224.723 92.7963C224.995 93.2885 225.131 93.9283 225.131 94.7158V101.888H223.078V100.411H222.994C222.858 100.683 222.654 100.95 222.382 101.213C222.11 101.475 221.761 101.693 221.334 101.867C220.908 102.04 220.397 102.127 219.801 102.127ZM220.258 100.439C220.84 100.439 221.337 100.324 221.749 100.095C222.166 99.865 222.483 99.565 222.698 99.1947C222.919 98.8197 223.029 98.4189 223.029 97.9924V96.6002C222.954 96.6752 222.808 96.7455 222.593 96.8111C222.382 96.8721 222.14 96.926 221.869 96.9729C221.597 97.015 221.332 97.0549 221.074 97.0924C220.816 97.1252 220.601 97.1533 220.427 97.1768C220.019 97.2283 219.647 97.315 219.309 97.4369C218.976 97.5588 218.709 97.7346 218.508 97.9643C218.311 98.1893 218.212 98.4893 218.212 98.8643C218.212 99.3846 218.404 99.7783 218.789 100.046C219.173 100.308 219.663 100.439 220.258 100.439ZM237.226 102.106C236.213 102.106 235.329 101.874 234.575 101.41C233.82 100.946 233.234 100.296 232.817 99.4619C232.4 98.6275 232.191 97.6525 232.191 96.5369C232.191 95.4166 232.4 94.4369 232.817 93.5979C233.234 92.7588 233.82 92.1072 234.575 91.6432C235.329 91.1791 236.213 90.9471 237.226 90.9471C238.238 90.9471 239.122 91.1791 239.876 91.6432C240.631 92.1072 241.217 92.7588 241.634 93.5979C242.051 94.4369 242.26 95.4166 242.26 96.5369C242.26 97.6525 242.051 98.6275 241.634 99.4619C241.217 100.296 240.631 100.946 239.876 101.41C239.122 101.874 238.238 102.106 237.226 102.106ZM237.233 100.341C237.889 100.341 238.433 100.167 238.864 99.8205C239.295 99.4736 239.614 99.0119 239.82 98.4354C240.031 97.8588 240.136 97.2236 240.136 96.5299C240.136 95.8408 240.031 95.208 239.82 94.6314C239.614 94.0502 239.295 93.5838 238.864 93.2322C238.433 92.8807 237.889 92.7049 237.233 92.7049C236.572 92.7049 236.023 92.8807 235.587 93.2322C235.156 93.5838 234.835 94.0502 234.624 94.6314C234.418 95.208 234.315 95.8408 234.315 96.5299C234.315 97.2236 234.418 97.8588 234.624 98.4354C234.835 99.0119 235.156 99.4736 235.587 99.8205C236.023 100.167 236.572 100.341 237.233 100.341ZM252.452 93.7244L250.547 94.0619C250.467 93.8182 250.34 93.5861 250.167 93.3658C249.998 93.1455 249.768 92.965 249.478 92.8244C249.187 92.6838 248.824 92.6135 248.388 92.6135C247.793 92.6135 247.296 92.7471 246.897 93.0143C246.499 93.2768 246.3 93.6166 246.3 94.0338C246.3 94.3947 246.433 94.6854 246.7 94.9057C246.968 95.126 247.399 95.3064 247.994 95.4471L249.71 95.8408C250.704 96.0705 251.444 96.4244 251.932 96.9025C252.419 97.3807 252.663 98.0018 252.663 98.7658C252.663 99.4127 252.475 99.9893 252.1 100.496C251.73 100.997 251.212 101.391 250.547 101.677C249.886 101.963 249.119 102.106 248.247 102.106C247.038 102.106 246.051 101.848 245.287 101.332C244.523 100.812 244.054 100.074 243.881 99.1174L245.913 98.808C246.04 99.3377 246.3 99.7385 246.693 100.01C247.087 100.278 247.6 100.411 248.233 100.411C248.922 100.411 249.473 100.268 249.886 99.9822C250.298 99.6916 250.504 99.3377 250.504 98.9205C250.504 98.583 250.378 98.2994 250.125 98.0697C249.876 97.84 249.494 97.6666 248.979 97.5494L247.15 97.1486C246.143 96.9189 245.397 96.5533 244.915 96.0518C244.436 95.5502 244.197 94.915 244.197 94.1463C244.197 93.5088 244.375 92.951 244.732 92.4729C245.088 91.9947 245.58 91.6221 246.208 91.3549C246.836 91.083 247.556 90.9471 248.367 90.9471C249.534 90.9471 250.453 91.2002 251.123 91.7064C251.793 92.208 252.236 92.8807 252.452 93.7244ZM257.87 102.127C257.186 102.127 256.567 102 256.014 101.747C255.461 101.489 255.022 101.117 254.699 100.629C254.38 100.142 254.221 99.5439 254.221 98.8361C254.221 98.2268 254.338 97.7252 254.572 97.3314C254.807 96.9377 255.123 96.626 255.522 96.3963C255.92 96.1666 256.365 95.9932 256.857 95.876C257.35 95.7588 257.851 95.6697 258.362 95.6088C259.009 95.5338 259.534 95.4729 259.937 95.426C260.34 95.3744 260.633 95.2924 260.816 95.1799C260.999 95.0674 261.09 94.8846 261.09 94.6314V94.5822C261.09 93.9682 260.917 93.4924 260.57 93.1549C260.228 92.8174 259.717 92.6486 259.037 92.6486C258.329 92.6486 257.772 92.8057 257.364 93.1197C256.961 93.4291 256.682 93.7736 256.527 94.1533L254.551 93.7033C254.786 93.0471 255.128 92.5174 255.578 92.1143C256.032 91.7064 256.555 91.4111 257.146 91.2283C257.736 91.0408 258.357 90.9471 259.009 90.9471C259.44 90.9471 259.897 90.9986 260.38 91.1018C260.868 91.2002 261.322 91.383 261.744 91.6502C262.171 91.9174 262.52 92.2994 262.792 92.7963C263.064 93.2885 263.2 93.9283 263.2 94.7158V101.888H261.147V100.411H261.062C260.926 100.683 260.722 100.95 260.45 101.213C260.179 101.475 259.829 101.693 259.403 101.867C258.976 102.04 258.465 102.127 257.87 102.127ZM258.327 100.439C258.908 100.439 259.405 100.324 259.818 100.095C260.235 99.865 260.551 99.565 260.767 99.1947C260.987 98.8197 261.097 98.4189 261.097 97.9924V96.6002C261.022 96.6752 260.877 96.7455 260.661 96.8111C260.45 96.8721 260.209 96.926 259.937 96.9729C259.665 97.015 259.4 97.0549 259.143 97.0924C258.885 97.1252 258.669 97.1533 258.496 97.1768C258.088 97.2283 257.715 97.315 257.378 97.4369C257.045 97.5588 256.778 97.7346 256.576 97.9643C256.379 98.1893 256.281 98.4893 256.281 98.8643C256.281 99.3846 256.473 99.7783 256.857 100.046C257.242 100.308 257.732 100.439 258.327 100.439ZM267.855 87.4877V101.888H265.752V87.4877H267.855ZM275.09 102.106C274.026 102.106 273.11 101.878 272.341 101.424C271.577 100.964 270.986 100.32 270.569 99.49C270.157 98.6557 269.95 97.6783 269.95 96.558C269.95 95.4518 270.157 94.4768 270.569 93.633C270.986 92.7893 271.568 92.1307 272.313 91.6572C273.063 91.1838 273.939 90.9471 274.943 90.9471C275.552 90.9471 276.143 91.0479 276.714 91.2494C277.286 91.451 277.8 91.7674 278.254 92.1986C278.709 92.6299 279.068 93.19 279.33 93.8791C279.593 94.5635 279.724 95.3955 279.724 96.3752V97.1205H271.139V95.5455H277.664C277.664 94.9924 277.551 94.5025 277.326 94.076C277.101 93.6447 276.785 93.3049 276.377 93.0564C275.974 92.808 275.5 92.6838 274.957 92.6838C274.366 92.6838 273.85 92.8291 273.41 93.1197C272.974 93.4057 272.636 93.7807 272.397 94.2447C272.163 94.7041 272.046 95.2033 272.046 95.7424V96.9729C272.046 97.6947 272.172 98.3088 272.425 98.815C272.683 99.3213 273.042 99.708 273.501 99.9752C273.96 100.238 274.497 100.369 275.111 100.369C275.51 100.369 275.873 100.313 276.201 100.2C276.529 100.083 276.813 99.9096 277.052 99.6799C277.291 99.4502 277.474 99.1666 277.6 98.8291L279.59 99.1877C279.431 99.7736 279.145 100.287 278.732 100.728C278.325 101.163 277.811 101.503 277.193 101.747C276.578 101.986 275.878 102.106 275.09 102.106ZM285.852 102.099C284.98 102.099 284.202 101.876 283.517 101.431C282.838 100.981 282.303 100.341 281.914 99.5111C281.53 98.6768 281.338 97.676 281.338 96.5088C281.338 95.3416 281.532 94.3432 281.921 93.5135C282.315 92.6838 282.854 92.0486 283.539 91.608C284.223 91.1674 284.999 90.9471 285.866 90.9471C286.536 90.9471 287.075 91.0596 287.483 91.2846C287.896 91.5049 288.214 91.7627 288.439 92.058C288.669 92.3533 288.847 92.6135 288.974 92.8385H289.1V87.4877H291.203V101.888H289.15V100.207H288.974C288.847 100.437 288.664 100.699 288.425 100.995C288.191 101.29 287.867 101.548 287.455 101.768C287.042 101.988 286.508 102.099 285.852 102.099ZM286.316 100.306C286.921 100.306 287.432 100.146 287.849 99.8275C288.271 99.5041 288.589 99.0564 288.805 98.4846C289.025 97.9127 289.135 97.2471 289.135 96.4877C289.135 95.7377 289.028 95.0814 288.812 94.5189C288.596 93.9564 288.28 93.5182 287.863 93.2041C287.446 92.89 286.93 92.733 286.316 92.733C285.683 92.733 285.156 92.8971 284.734 93.2252C284.312 93.5533 283.993 94.001 283.778 94.5682C283.567 95.1354 283.461 95.7752 283.461 96.4877C283.461 97.2096 283.569 97.8588 283.785 98.4354C284 99.0119 284.319 99.4689 284.741 99.8064C285.167 100.139 285.692 100.306 286.316 100.306Z" fill="#F5FCC4"/>
<path d="M42.764 127.085C41.7702 127.085 40.8843 126.902 40.1062 126.536C39.3327 126.171 38.7187 125.667 38.264 125.024C37.8093 124.382 37.5726 123.646 37.5538 122.817H40.5069C40.5397 123.374 40.7741 123.827 41.2101 124.174C41.646 124.521 42.164 124.694 42.764 124.694C43.2421 124.694 43.664 124.588 44.0296 124.378C44.3999 124.162 44.6882 123.864 44.8944 123.485C45.1054 123.1 45.2108 122.66 45.2108 122.163C45.2108 121.656 45.103 121.211 44.8874 120.827C44.6765 120.442 44.3835 120.142 44.0085 119.927C43.6335 119.711 43.2046 119.601 42.7218 119.596C42.2999 119.596 41.8897 119.683 41.4913 119.856C41.0976 120.03 40.7905 120.267 40.5702 120.567L37.8632 120.081L38.5452 112.488H47.3483V114.977H41.0554L40.6827 118.584H40.7671C41.0202 118.228 41.4022 117.932 41.9132 117.698C42.4241 117.463 42.996 117.346 43.6288 117.346C44.496 117.346 45.2694 117.55 45.9491 117.958C46.6288 118.366 47.1655 118.926 47.5593 119.638C47.953 120.346 48.1476 121.162 48.1429 122.085C48.1476 123.056 47.9226 123.918 47.4679 124.673C47.0179 125.423 46.3874 126.013 45.5765 126.445C44.7702 126.871 43.8327 127.085 42.764 127.085ZM63.1922 124.891L54.7899 116.503L56.6321 114.639L65.0414 123.049L63.1922 124.891ZM56.6321 124.891L54.7899 123.049L63.1922 114.639L65.0414 116.503L56.6321 124.891ZM78.1642 112.488V126.888H75.1197V115.378H75.0353L71.7376 117.445V114.745L75.3025 112.488H78.1642ZM86.9853 127.204C85.7759 127.199 84.7353 126.902 83.8634 126.311C82.9962 125.721 82.3282 124.865 81.8595 123.745C81.3954 122.624 81.1657 121.277 81.1704 119.702C81.1704 118.131 81.4024 116.793 81.8665 115.687C82.3353 114.581 83.0032 113.739 83.8704 113.163C84.7423 112.581 85.7806 112.291 86.9853 112.291C88.1899 112.291 89.2259 112.581 90.0931 113.163C90.9649 113.744 91.6353 114.588 92.104 115.694C92.5728 116.796 92.8048 118.131 92.8001 119.702C92.8001 121.281 92.5657 122.631 92.097 123.752C91.6329 124.872 90.9673 125.728 90.1001 126.318C89.2329 126.909 88.1946 127.204 86.9853 127.204ZM86.9853 124.68C87.8103 124.68 88.4688 124.265 88.961 123.435C89.4532 122.606 89.697 121.361 89.6923 119.702C89.6923 118.61 89.5798 117.7 89.3548 116.974C89.1345 116.247 88.8204 115.701 88.4126 115.335C88.0095 114.97 87.5337 114.787 86.9853 114.787C86.1649 114.787 85.5087 115.197 85.0165 116.017C84.5243 116.838 84.2759 118.066 84.2712 119.702C84.2712 120.808 84.3813 121.731 84.6017 122.472C84.8267 123.208 85.1431 123.761 85.5509 124.131C85.9587 124.497 86.4368 124.68 86.9853 124.68ZM100.37 127.204C99.1602 127.199 98.1196 126.902 97.2477 126.311C96.3805 125.721 95.7126 124.865 95.2438 123.745C94.7798 122.624 94.5501 121.277 94.5548 119.702C94.5548 118.131 94.7868 116.793 95.2508 115.687C95.7196 114.581 96.3876 113.739 97.2548 113.163C98.1266 112.581 99.1649 112.291 100.37 112.291C101.574 112.291 102.61 112.581 103.477 113.163C104.349 113.744 105.02 114.588 105.488 115.694C105.957 116.796 106.189 118.131 106.184 119.702C106.184 121.281 105.95 122.631 105.481 123.752C105.017 124.872 104.352 125.728 103.484 126.318C102.617 126.909 101.579 127.204 100.37 127.204ZM100.37 124.68C101.195 124.68 101.853 124.265 102.345 123.435C102.838 122.606 103.081 121.361 103.077 119.702C103.077 118.61 102.964 117.7 102.739 116.974C102.519 116.247 102.205 115.701 101.797 115.335C101.394 114.97 100.918 114.787 100.37 114.787C99.5493 114.787 98.893 115.197 98.4008 116.017C97.9087 116.838 97.6602 118.066 97.6555 119.702C97.6555 120.808 97.7657 121.731 97.986 122.472C98.211 123.208 98.5274 123.761 98.9352 124.131C99.343 124.497 99.8212 124.68 100.37 124.68ZM121.949 117.445L121.253 118.985H111.852L112.422 117.445H121.949ZM120.606 120.391L119.84 121.966H111.852L112.422 120.391H120.606ZM123.777 113.599L122.652 116.003C122.465 115.872 122.237 115.729 121.97 115.574C121.708 115.415 121.405 115.281 121.063 115.174C120.726 115.061 120.351 115.005 119.938 115.005C119.287 115.005 118.72 115.169 118.237 115.497C117.754 115.825 117.379 116.336 117.112 117.03C116.849 117.724 116.718 118.614 116.718 119.702C116.718 120.799 116.849 121.692 117.112 122.381C117.379 123.065 117.754 123.569 118.237 123.892C118.72 124.211 119.287 124.371 119.938 124.371C120.351 124.371 120.726 124.317 121.063 124.209C121.401 124.101 121.696 123.972 121.949 123.822C122.207 123.672 122.423 123.534 122.596 123.407L123.735 125.812C123.224 126.234 122.645 126.553 121.998 126.768C121.352 126.979 120.665 127.085 119.938 127.085C118.71 127.085 117.623 126.794 116.676 126.213C115.734 125.627 114.995 124.785 114.461 123.688C113.927 122.587 113.659 121.258 113.659 119.702C113.659 118.15 113.927 116.821 114.461 115.715C114.995 114.609 115.734 113.763 116.676 113.177C117.623 112.586 118.71 112.291 119.938 112.291C120.693 112.291 121.391 112.403 122.034 112.628C122.676 112.853 123.257 113.177 123.777 113.599ZM133.147 112.488V126.888H130.152V112.488H133.147ZM140.179 127.099C139.087 127.099 138.142 126.867 137.345 126.403C136.553 125.934 135.941 125.282 135.51 124.448C135.079 123.609 134.863 122.636 134.863 121.53C134.863 120.414 135.079 119.439 135.51 118.605C135.941 117.766 136.553 117.114 137.345 116.65C138.142 116.181 139.087 115.947 140.179 115.947C141.271 115.947 142.213 116.181 143.005 116.65C143.802 117.114 144.416 117.766 144.848 118.605C145.279 119.439 145.494 120.414 145.494 121.53C145.494 122.636 145.279 123.609 144.848 124.448C144.416 125.282 143.802 125.934 143.005 126.403C142.213 126.867 141.271 127.099 140.179 127.099ZM140.193 124.778C140.69 124.778 141.105 124.638 141.437 124.356C141.77 124.071 142.021 123.681 142.19 123.189C142.363 122.697 142.45 122.137 142.45 121.509C142.45 120.881 142.363 120.321 142.19 119.828C142.021 119.336 141.77 118.947 141.437 118.661C141.105 118.375 140.69 118.232 140.193 118.232C139.691 118.232 139.269 118.375 138.927 118.661C138.59 118.947 138.334 119.336 138.161 119.828C137.992 120.321 137.908 120.881 137.908 121.509C137.908 122.137 137.992 122.697 138.161 123.189C138.334 123.681 138.59 124.071 138.927 124.356C139.269 124.638 139.691 124.778 140.193 124.778ZM152.074 127.099C150.982 127.099 150.038 126.867 149.241 126.403C148.448 125.934 147.837 125.282 147.405 124.448C146.974 123.609 146.759 122.636 146.759 121.53C146.759 120.414 146.974 119.439 147.405 118.605C147.837 117.766 148.448 117.114 149.241 116.65C150.038 116.181 150.982 115.947 152.074 115.947C153.166 115.947 154.109 116.181 154.901 116.65C155.698 117.114 156.312 117.766 156.743 118.605C157.174 119.439 157.39 120.414 157.39 121.53C157.39 122.636 157.174 123.609 156.743 124.448C156.312 125.282 155.698 125.934 154.901 126.403C154.109 126.867 153.166 127.099 152.074 127.099ZM152.088 124.778C152.585 124.778 153 124.638 153.333 124.356C153.666 124.071 153.916 123.681 154.085 123.189C154.259 122.697 154.345 122.137 154.345 121.509C154.345 120.881 154.259 120.321 154.085 119.828C153.916 119.336 153.666 118.947 153.333 118.661C153 118.375 152.585 118.232 152.088 118.232C151.587 118.232 151.165 118.375 150.823 118.661C150.485 118.947 150.23 119.336 150.056 119.828C149.888 120.321 149.803 120.881 149.803 121.509C149.803 122.137 149.888 122.697 150.056 123.189C150.23 123.681 150.485 124.071 150.823 124.356C151.165 124.638 151.587 124.778 152.088 124.778ZM168.076 119.167L165.334 119.336C165.287 119.102 165.186 118.891 165.031 118.703C164.877 118.511 164.673 118.359 164.42 118.246C164.171 118.129 163.874 118.071 163.527 118.071C163.063 118.071 162.671 118.169 162.353 118.366C162.034 118.558 161.874 118.816 161.874 119.139C161.874 119.397 161.978 119.615 162.184 119.793C162.39 119.971 162.744 120.114 163.245 120.222L165.2 120.616C166.25 120.831 167.033 121.178 167.549 121.656C168.064 122.135 168.322 122.763 168.322 123.541C168.322 124.249 168.113 124.87 167.696 125.404C167.284 125.938 166.717 126.356 165.995 126.656C165.278 126.951 164.45 127.099 163.513 127.099C162.083 127.099 160.944 126.801 160.095 126.206C159.252 125.606 158.757 124.79 158.612 123.759L161.558 123.604C161.647 124.04 161.863 124.373 162.205 124.603C162.547 124.828 162.985 124.94 163.52 124.94C164.045 124.94 164.467 124.839 164.785 124.638C165.109 124.431 165.273 124.167 165.278 123.843C165.273 123.571 165.158 123.349 164.933 123.175C164.708 122.997 164.361 122.861 163.892 122.767L162.022 122.395C160.967 122.184 160.182 121.818 159.667 121.298C159.156 120.778 158.9 120.114 158.9 119.308C158.9 118.614 159.088 118.017 159.463 117.515C159.842 117.013 160.374 116.627 161.059 116.355C161.748 116.083 162.554 115.947 163.478 115.947C164.842 115.947 165.915 116.235 166.698 116.812C167.485 117.388 167.945 118.174 168.076 119.167ZM169.961 126.888V116.088H172.956V126.888H169.961ZM171.465 114.696C171.02 114.696 170.638 114.548 170.319 114.253C170.005 113.953 169.848 113.594 169.848 113.177C169.848 112.764 170.005 112.41 170.319 112.115C170.638 111.815 171.02 111.665 171.465 111.665C171.911 111.665 172.29 111.815 172.604 112.115C172.923 112.41 173.083 112.764 173.083 113.177C173.083 113.594 172.923 113.953 172.604 114.253C172.29 114.548 171.911 114.696 171.465 114.696ZM184.094 119.167L181.352 119.336C181.305 119.102 181.204 118.891 181.049 118.703C180.895 118.511 180.691 118.359 180.438 118.246C180.189 118.129 179.892 118.071 179.545 118.071C179.081 118.071 178.689 118.169 178.37 118.366C178.052 118.558 177.892 118.816 177.892 119.139C177.892 119.397 177.995 119.615 178.202 119.793C178.408 119.971 178.762 120.114 179.263 120.222L181.218 120.616C182.268 120.831 183.051 121.178 183.567 121.656C184.082 122.135 184.34 122.763 184.34 123.541C184.34 124.249 184.131 124.87 183.714 125.404C183.302 125.938 182.734 126.356 182.013 126.656C181.295 126.951 180.468 127.099 179.531 127.099C178.101 127.099 176.962 126.801 176.113 126.206C175.27 125.606 174.775 124.79 174.63 123.759L177.576 123.604C177.665 124.04 177.881 124.373 178.223 124.603C178.565 124.828 179.003 124.94 179.538 124.94C180.063 124.94 180.484 124.839 180.803 124.638C181.127 124.431 181.291 124.167 181.295 123.843C181.291 123.571 181.176 123.349 180.951 123.175C180.726 122.997 180.379 122.861 179.91 122.767L178.04 122.395C176.985 122.184 176.2 121.818 175.684 121.298C175.174 120.778 174.918 120.114 174.918 119.308C174.918 118.614 175.106 118.017 175.481 117.515C175.86 117.013 176.392 116.627 177.077 116.355C177.766 116.083 178.572 115.947 179.495 115.947C180.859 115.947 181.933 116.235 182.716 116.812C183.503 117.388 183.963 118.174 184.094 119.167ZM189.557 112.488L189.283 122.571H186.71L186.429 112.488H189.557ZM187.997 127.071C187.532 127.071 187.134 126.906 186.801 126.578C186.468 126.246 186.304 125.847 186.309 125.383C186.304 124.924 186.468 124.53 186.801 124.202C187.134 123.874 187.532 123.71 187.997 123.71C188.442 123.71 188.833 123.874 189.171 124.202C189.508 124.53 189.679 124.924 189.684 125.383C189.679 125.692 189.597 125.976 189.438 126.234C189.283 126.487 189.079 126.691 188.826 126.846C188.573 126.996 188.297 127.071 187.997 127.071Z" fill="#D7FF00"/>
<path d="M36.3374 147.762C36.3374 145.94 37.8149 144.462 39.6374 144.462H166.637C168.46 144.462 169.937 145.94 169.937 147.762V181.562C169.937 183.385 168.46 184.862 166.637 184.862H39.6374C37.8149 184.862 36.3374 183.385 36.3374 181.562V147.762Z" fill="#D7FF00"/>
<path d="M65.7603 157.961L65.4435 160.079H60.4935V163.643H64.8099V165.742H60.4935V169.524H65.7999V171.662H57.5829V157.961H65.7603ZM78.1317 171.662H74.3895L70.0335 160.792C70.1523 161.729 70.2447 162.614 70.3107 163.445C70.3899 164.264 70.4295 165.227 70.4295 166.336V171.662H67.7961V157.961H71.4591L75.8943 168.851C75.6303 167.082 75.4983 165.458 75.4983 163.98V157.961H78.1317V171.662ZM91.11 171.662H87.3678L83.0118 160.792C83.1306 161.729 83.223 162.614 83.289 163.445C83.3682 164.264 83.4078 165.227 83.4078 166.336V171.662H80.7744V157.961H84.4374L88.8726 168.851C88.6086 167.082 88.4766 165.458 88.4766 163.98V157.961H91.11V171.662ZM103.989 167.148C103.989 168.085 103.791 168.917 103.395 169.643C102.999 170.369 102.405 170.943 101.613 171.365C100.834 171.774 99.8841 171.979 98.7621 171.979C97.0725 171.979 95.7789 171.543 94.8813 170.672C93.9969 169.788 93.5547 168.613 93.5547 167.148V157.961H96.4653V167.009C96.4653 167.933 96.6501 168.626 97.0197 169.088C97.3893 169.537 97.9701 169.761 98.7621 169.761C99.5541 169.761 100.135 169.537 100.504 169.088C100.887 168.626 101.079 167.933 101.079 167.009V157.961H103.989V167.148ZM110.522 157.644C111.512 157.644 112.37 157.789 113.096 158.079C113.835 158.357 114.515 158.786 115.135 159.366L113.749 160.97C113.261 160.574 112.773 160.284 112.284 160.099C111.796 159.914 111.274 159.822 110.72 159.822C110.113 159.822 109.624 159.954 109.255 160.218C108.898 160.469 108.72 160.832 108.72 161.307C108.72 161.637 108.793 161.907 108.938 162.119C109.096 162.33 109.367 162.528 109.75 162.713C110.133 162.897 110.707 163.109 111.472 163.346C112.832 163.782 113.848 164.323 114.522 164.97C115.195 165.603 115.531 166.514 115.531 167.702C115.531 168.547 115.32 169.293 114.898 169.94C114.475 170.573 113.862 171.075 113.056 171.444C112.251 171.801 111.307 171.979 110.225 171.979C109.143 171.979 108.179 171.807 107.334 171.464C106.489 171.121 105.763 170.652 105.156 170.058L106.641 168.415C107.169 168.864 107.717 169.207 108.285 169.445C108.852 169.669 109.473 169.781 110.146 169.781C110.859 169.781 111.426 169.616 111.849 169.286C112.284 168.956 112.502 168.494 112.502 167.9C112.502 167.531 112.423 167.227 112.264 166.989C112.119 166.739 111.862 166.514 111.492 166.316C111.123 166.118 110.588 165.914 109.888 165.702C108.397 165.24 107.328 164.686 106.681 164.039C106.047 163.392 105.73 162.548 105.73 161.505C105.73 160.739 105.935 160.066 106.344 159.485C106.753 158.891 107.321 158.436 108.047 158.119C108.773 157.802 109.598 157.644 110.522 157.644ZM125.955 157.961L125.638 160.238H122.173V171.662H119.263V160.238H115.619V157.961H125.955ZM133.457 171.662L132.685 168.593H128.388L127.616 171.662H124.586L128.804 157.961H132.348L136.546 171.662H133.457ZM128.942 166.435H132.13L130.526 160.119L128.942 166.435ZM147.9 171.662H144.157L139.801 160.792C139.92 161.729 140.013 162.614 140.079 163.445C140.158 164.264 140.197 165.227 140.197 166.336V171.662H137.564V157.961H141.227L145.662 168.851C145.398 167.082 145.266 165.458 145.266 163.98V157.961H147.9V171.662Z" fill="black"/>
</svg>
