<svg width="222" height="46" viewBox="0 0 222 46" fill="none" xmlns="http://www.w3.org/2000/svg">
<path d="M5.577 22L3.575 18.464H2.717V22H0.897V12.926H4.303C5.005 12.926 5.603 13.0517 6.097 13.303C6.591 13.5457 6.95933 13.8793 7.202 14.304C7.45333 14.72 7.579 15.188 7.579 15.708C7.579 16.306 7.40567 16.8477 7.059 17.333C6.71233 17.8097 6.19667 18.139 5.512 18.321L7.683 22H5.577ZM2.717 17.099H4.238C4.732 17.099 5.10033 16.982 5.343 16.748C5.58567 16.5053 5.707 16.1717 5.707 15.747C5.707 15.331 5.58567 15.0103 5.343 14.785C5.10033 14.551 4.732 14.434 4.238 14.434H2.717V17.099ZM11.2791 12.926V18.542C11.2791 19.1573 11.4395 19.6297 11.7601 19.959C12.0808 20.2797 12.5315 20.44 13.1121 20.44C13.7015 20.44 14.1565 20.2797 14.4771 19.959C14.7978 19.6297 14.9581 19.1573 14.9581 18.542V12.926H16.7911V18.529C16.7911 19.3003 16.6221 19.9547 16.2841 20.492C15.9548 21.0207 15.5085 21.4193 14.9451 21.688C14.3905 21.9567 13.7708 22.091 13.0861 22.091C12.4101 22.091 11.7948 21.9567 11.2401 21.688C10.6941 21.4193 10.2608 21.0207 9.94013 20.492C9.61946 19.9547 9.45913 19.3003 9.45913 18.529V12.926H11.2791ZM23.9576 17.346C24.4689 17.4413 24.8892 17.697 25.2186 18.113C25.5479 18.529 25.7126 19.0057 25.7126 19.543C25.7126 20.0283 25.5912 20.4573 25.3486 20.83C25.1146 21.194 24.7722 21.48 24.3216 21.688C23.8709 21.896 23.3379 22 22.7226 22H18.8096V12.926H22.5536C23.1689 12.926 23.6976 13.0257 24.1396 13.225C24.5902 13.4243 24.9282 13.7017 25.1536 14.057C25.3876 14.4123 25.5046 14.8153 25.5046 15.266C25.5046 15.7947 25.3616 16.2367 25.0756 16.592C24.7982 16.9473 24.4256 17.1987 23.9576 17.346ZM20.6296 16.67H22.2936C22.7269 16.67 23.0606 16.5747 23.2946 16.384C23.5286 16.1847 23.6456 15.903 23.6456 15.539C23.6456 15.175 23.5286 14.8933 23.2946 14.694C23.0606 14.4947 22.7269 14.395 22.2936 14.395H20.6296V16.67ZM22.4626 20.518C22.9046 20.518 23.2469 20.414 23.4896 20.206C23.7409 19.998 23.8666 19.7033 23.8666 19.322C23.8666 18.932 23.7366 18.6287 23.4766 18.412C23.2166 18.1867 22.8656 18.074 22.4236 18.074H20.6296V20.518H22.4626ZM32.1031 22L30.1011 18.464H29.2431V22H27.4231V12.926H30.8291C31.5311 12.926 32.1291 13.0517 32.6231 13.303C33.1171 13.5457 33.4854 13.8793 33.7281 14.304C33.9794 14.72 34.1051 15.188 34.1051 15.708C34.1051 16.306 33.9318 16.8477 33.5851 17.333C33.2384 17.8097 32.7228 18.139 32.0381 18.321L34.2091 22H32.1031ZM29.2431 17.099H30.7641C31.2581 17.099 31.6264 16.982 31.8691 16.748C32.1118 16.5053 32.2331 16.1717 32.2331 15.747C32.2331 15.331 32.1118 15.0103 31.8691 14.785C31.6264 14.551 31.2581 14.434 30.7641 14.434H29.2431V17.099ZM37.8312 12.926V22H36.0112V12.926H37.8312ZM41.7094 12.926V22H39.8894V12.926H41.7094ZM48.8895 22L45.5875 17.957V22H43.7675V12.926H45.5875V16.995L48.8895 12.926H51.0865L47.3425 17.424L51.1905 22H48.8895ZM54.4677 12.926V22H52.6477V12.926H54.4677ZM7.072 24.926V26.395H4.654V34H2.834V26.395H0.416V24.926H7.072ZM12.8719 34.091C12.0226 34.091 11.2426 33.8917 10.5319 33.493C9.82126 33.0943 9.25793 32.544 8.84193 31.842C8.42593 31.1313 8.21793 30.3297 8.21793 29.437C8.21793 28.553 8.42593 27.76 8.84193 27.058C9.25793 26.3473 9.82126 25.7927 10.5319 25.394C11.2426 24.9953 12.0226 24.796 12.8719 24.796C13.7299 24.796 14.5099 24.9953 15.2119 25.394C15.9226 25.7927 16.4816 26.3473 16.8889 27.058C17.3049 27.76 17.5129 28.553 17.5129 29.437C17.5129 30.3297 17.3049 31.1313 16.8889 31.842C16.4816 32.544 15.9226 33.0943 15.2119 33.493C14.5013 33.8917 13.7213 34.091 12.8719 34.091ZM12.8719 32.466C13.4179 32.466 13.8989 32.3447 14.3149 32.102C14.7309 31.8507 15.0559 31.4953 15.2899 31.036C15.5239 30.5767 15.6409 30.0437 15.6409 29.437C15.6409 28.8303 15.5239 28.3017 15.2899 27.851C15.0559 27.3917 14.7309 27.0407 14.3149 26.798C13.8989 26.5553 13.4179 26.434 12.8719 26.434C12.3259 26.434 11.8406 26.5553 11.4159 26.798C10.9999 27.0407 10.6749 27.3917 10.4409 27.851C10.2069 28.3017 10.0899 28.8303 10.0899 29.437C10.0899 30.0437 10.2069 30.5767 10.4409 31.036C10.6749 31.4953 10.9999 31.8507 11.4159 32.102C11.8406 32.3447 12.3259 32.466 12.8719 32.466ZM20.947 26.395V28.67H24.002V30.113H20.947V32.518H24.392V34H19.127V24.913H24.392V26.395H20.947ZM32.4809 24.926V26.395H30.0629V34H28.2429V26.395H25.8249V24.926H32.4809ZM39.6328 32.271H36.0188L35.4208 34H33.5098L36.7728 24.913H38.8918L42.1548 34H40.2308L39.6328 32.271ZM39.1388 30.815L37.8258 27.019L36.5128 30.815H39.1388ZM48.7825 29.346C49.2938 29.4413 49.7142 29.697 50.0435 30.113C50.3728 30.529 50.5375 31.0057 50.5375 31.543C50.5375 32.0283 50.4162 32.4573 50.1735 32.83C49.9395 33.194 49.5972 33.48 49.1465 33.688C48.6958 33.896 48.1628 34 47.5475 34H43.6345V24.926H47.3785C47.9938 24.926 48.5225 25.0257 48.9645 25.225C49.4152 25.4243 49.7532 25.7017 49.9785 26.057C50.2125 26.4123 50.3295 26.8153 50.3295 27.266C50.3295 27.7947 50.1865 28.2367 49.9005 28.592C49.6232 28.9473 49.2505 29.1987 48.7825 29.346ZM45.4545 28.67H47.1185C47.5518 28.67 47.8855 28.5747 48.1195 28.384C48.3535 28.1847 48.4705 27.903 48.4705 27.539C48.4705 27.175 48.3535 26.8933 48.1195 26.694C47.8855 26.4947 47.5518 26.395 47.1185 26.395H45.4545V28.67ZM47.2875 32.518C47.7295 32.518 48.0718 32.414 48.3145 32.206C48.5658 31.998 48.6915 31.7033 48.6915 31.322C48.6915 30.932 48.5615 30.6287 48.3015 30.412C48.0415 30.1867 47.6905 30.074 47.2485 30.074H45.4545V32.518H47.2875Z" fill="white"/>
<g clip-path="url(#clip0_372_1299)">
<path d="M130.276 28.9418V16.5218H147.319L144.307 13.4674C143.914 13.0672 143.446 12.7493 142.929 12.5321C142.412 12.3149 141.856 12.2028 141.296 12.2024H125.487V25.5348C125.487 26.6802 125.936 27.7796 126.734 28.5892L130.629 32.5375C131.022 32.9373 131.491 33.2549 132.008 33.472C132.525 33.689 133.08 33.8011 133.641 33.8017H146.79V29.4839H130.812C130.67 29.4828 130.534 29.4254 130.434 29.3242C130.334 29.223 130.279 29.0863 130.279 28.9441L130.276 28.9418ZM97.2637 16.5218H108.978C109.121 16.5228 109.257 16.5802 109.356 16.6814C109.456 16.7826 109.512 16.9194 109.511 17.0616V23.0002H97.2599L97.2637 16.5218ZM106.149 12.2024H92.4721V33.7994H97.2637V24.6224L98.6782 26.0569C99.0716 26.4568 99.5405 26.7745 100.058 26.9915C100.575 27.2085 101.13 27.3206 101.691 27.3211H114.303V20.4709C114.305 19.3284 113.857 18.2312 113.056 17.4165L109.161 13.4682C108.768 13.0684 108.299 12.7507 107.782 12.5337C107.265 12.3167 106.709 12.2046 106.149 12.204L106.149 12.2024ZM154.787 28.9418V25.1629H167.03C167.326 25.1629 167.563 25.4044 167.563 25.7027V29.4823H155.32C155.249 29.4818 155.179 29.4674 155.114 29.44C155.05 29.4126 154.991 29.3726 154.941 29.3224C154.892 29.2722 154.853 29.2128 154.826 29.1475C154.8 29.0822 154.786 29.0123 154.787 28.9418ZM154.787 20.8458V16.528H167.03C167.326 16.528 167.563 16.7695 167.563 17.0677V20.8474H154.783L154.787 20.8458ZM172.359 33.8025V26.4134C172.36 25.271 171.912 24.1741 171.111 23.359L169.697 21.9245H172.359V19.9343C172.36 18.7918 171.912 17.6945 171.111 16.8799L167.75 13.4705C167.356 13.0707 166.887 12.753 166.37 12.536C165.853 12.319 165.298 12.2069 164.737 12.2063H149.994V25.5386C149.994 26.684 150.443 27.7834 151.242 28.593L155.136 32.5413C155.53 32.9411 155.998 33.2588 156.516 33.4758C157.033 33.6928 157.588 33.8049 158.149 33.8056H172.363L172.359 33.8025ZM213.053 16.5218V33.7948H208.26V16.5218H200.003V12.2024H221.301V16.5218H213.053ZM122.288 12.2055H117.496V33.8025H122.288V12.2055ZM197.337 16.5218L194.324 13.4674C193.931 13.0669 193.463 12.7487 192.945 12.5314C192.428 12.314 191.873 12.202 191.311 12.2017H175.503V25.534C175.503 26.6794 175.951 27.7788 176.75 28.5884L180.645 32.5367C181.038 32.9365 181.507 33.2542 182.024 33.4712C182.541 33.6882 183.096 33.8003 183.657 33.801H196.805V29.4831H180.828C180.758 29.4827 180.688 29.4684 180.623 29.4411C180.558 29.4137 180.499 29.3739 180.449 29.3237C180.4 29.2736 180.361 29.2142 180.334 29.149C180.308 29.0837 180.294 29.0138 180.294 28.9434V25.1637H196.8V20.8466H180.294V16.5287H197.337V16.5218ZM89.8347 16.5218L86.8217 13.4674C86.4292 13.0668 85.9606 12.7484 85.4435 12.5311C84.9264 12.3137 84.3712 12.2017 83.8103 12.2017H68.0016V25.534C68.0016 26.6794 68.4501 27.7788 69.249 28.5884L73.1436 32.5367C73.5369 32.9365 74.0057 33.2542 74.5228 33.4712C75.0399 33.6882 75.595 33.8003 76.1559 33.801H89.3042V29.4831H73.3269C73.1847 29.4821 73.0487 29.4247 72.9488 29.3235C72.8489 29.2223 72.7932 29.0856 72.794 28.9434V25.1637H89.3004V20.8466H72.794V16.5287H89.837L89.8347 16.5218Z" fill="#B6EA00"/>
</g>
<defs>
<clipPath id="clip0_372_1299">
<rect width="153.333" height="46" fill="white" transform="translate(68)"/>
</clipPath>
</defs>
</svg>
