<svg width="668" height="400" viewBox="0 0 668 400" fill="none" xmlns="http://www.w3.org/2000/svg">
<path d="M97.364 130L94.4 118.22H77.908L74.944 130H63.316L79.504 77.408H93.108L109.22 130H97.364ZM80.036 109.936H92.272L86.116 85.692L80.036 109.936ZM135.397 88.504C138.944 88.504 141.705 89.5933 143.681 91.772C145.657 93.9 146.645 96.864 146.645 100.664V130H135.853V102.488C135.853 100.309 135.473 98.7893 134.713 97.928C134.004 97.016 132.915 96.56 131.445 96.56C129.925 96.56 128.532 97.0413 127.265 98.004C126.049 98.916 124.859 100.309 123.693 102.184V130H112.901V89.72H122.249L123.085 94.812C124.757 92.7347 126.581 91.164 128.557 90.1C130.584 89.036 132.864 88.504 135.397 88.504ZM178.459 88.504C182.006 88.504 184.767 89.5933 186.743 91.772C188.719 93.9 189.707 96.864 189.707 100.664V130H178.915V102.488C178.915 100.309 178.535 98.7893 177.775 97.928C177.066 97.016 175.976 96.56 174.507 96.56C172.987 96.56 171.594 97.0413 170.327 98.004C169.111 98.916 167.92 100.309 166.755 102.184V130H155.963V89.72H165.311L166.147 94.812C167.819 92.7347 169.643 91.164 171.619 90.1C173.646 89.036 175.926 88.504 178.459 88.504ZM229.805 118.828C229.805 120.399 230.033 121.564 230.489 122.324C230.945 123.033 231.705 123.565 232.769 123.92L230.489 131.064C228.107 130.861 226.157 130.304 224.637 129.392C223.167 128.48 222.027 127.061 221.217 125.136C218.582 129.189 214.554 131.216 209.133 131.216C205.13 131.216 201.938 130.076 199.557 127.796C197.226 125.465 196.061 122.451 196.061 118.752C196.061 114.344 197.657 110.975 200.849 108.644C204.041 106.313 208.626 105.148 214.605 105.148H219.241V103.172C219.241 100.689 218.683 98.9667 217.569 98.004C216.454 97.0413 214.605 96.56 212.021 96.56C209.183 96.56 205.637 97.2693 201.381 98.688L198.949 91.468C203.965 89.492 208.93 88.504 213.845 88.504C219.317 88.504 223.345 89.6947 225.929 92.076C228.513 94.4067 229.805 97.9027 229.805 102.564V118.828ZM212.097 123.464C215.137 123.464 217.518 121.969 219.241 118.98V111.304H215.669C209.842 111.304 206.929 113.483 206.929 117.84C206.929 119.613 207.359 121.007 208.221 122.02C209.133 122.983 210.425 123.464 212.097 123.464ZM267.274 131.216C263.981 131.216 261.422 130.279 259.598 128.404C257.774 126.479 256.862 123.768 256.862 120.272V73.684L267.654 72.468V119.968C267.654 121.741 268.389 122.628 269.858 122.628C270.669 122.628 271.378 122.476 271.986 122.172L274.19 129.848C272.113 130.76 269.807 131.216 267.274 131.216ZM312.457 108.948C312.457 109.455 312.381 110.848 312.229 113.128H287.073C287.428 116.776 288.416 119.36 290.037 120.88C291.658 122.4 293.862 123.16 296.649 123.16C298.372 123.16 299.993 122.881 301.513 122.324C303.033 121.767 304.68 120.88 306.453 119.664L310.937 125.744C306.428 129.392 301.336 131.216 295.661 131.216C289.328 131.216 284.464 129.316 281.069 125.516C277.674 121.716 275.977 116.573 275.977 110.088C275.977 105.984 276.686 102.311 278.105 99.068C279.574 95.7747 281.677 93.1907 284.413 91.316C287.2 89.4413 290.493 88.504 294.293 88.504C300.018 88.504 304.477 90.3027 307.669 93.9C310.861 97.4973 312.457 102.513 312.457 108.948ZM301.741 105.908C301.741 99.22 299.334 95.876 294.521 95.876C292.292 95.876 290.544 96.712 289.277 98.384C288.061 100.005 287.326 102.665 287.073 106.364H301.741V105.908ZM341.814 88.504C345.31 88.504 348.046 89.5933 350.022 91.772C352.049 93.9 353.062 96.864 353.062 100.664V130H342.27V102.488C342.27 100.309 341.89 98.7893 341.13 97.928C340.37 97.016 339.281 96.56 337.862 96.56C335.025 96.56 332.441 98.4093 330.11 102.108V130H319.318V73.684L330.11 72.544V94.28C331.732 92.3547 333.48 90.9107 335.354 89.948C337.28 88.9853 339.433 88.504 341.814 88.504ZM396.428 108.948C396.428 109.455 396.352 110.848 396.2 113.128H371.044C371.399 116.776 372.387 119.36 374.008 120.88C375.629 122.4 377.833 123.16 380.62 123.16C382.343 123.16 383.964 122.881 385.484 122.324C387.004 121.767 388.651 120.88 390.424 119.664L394.908 125.744C390.399 129.392 385.307 131.216 379.632 131.216C373.299 131.216 368.435 129.316 365.04 125.516C361.645 121.716 359.948 116.573 359.948 110.088C359.948 105.984 360.657 102.311 362.076 99.068C363.545 95.7747 365.648 93.1907 368.384 91.316C371.171 89.4413 374.464 88.504 378.264 88.504C383.989 88.504 388.448 90.3027 391.64 93.9C394.832 97.4973 396.428 102.513 396.428 108.948ZM385.712 105.908C385.712 99.22 383.305 95.876 378.492 95.876C376.263 95.876 374.515 96.712 373.248 98.384C372.032 100.005 371.297 102.665 371.044 106.364H385.712V105.908ZM414.082 72.468V130H403.29V73.684L414.082 72.468ZM438.554 89.72L425.71 107.428L439.694 130H427.458L414.462 107.96L427.382 89.72H438.554ZM475.921 130H466.573L466.041 124.604C464.623 126.833 462.9 128.505 460.873 129.62C458.847 130.684 456.491 131.216 453.805 131.216C450.157 131.216 447.371 130.127 445.445 127.948C443.52 125.719 442.557 122.628 442.557 118.676V89.72H453.349V117.308C453.349 119.436 453.704 120.956 454.413 121.868C455.123 122.729 456.237 123.16 457.757 123.16C460.645 123.16 463.103 121.412 465.129 117.916V89.72H475.921V130ZM518.612 130H509.264L508.732 124.604C507.313 126.833 505.59 128.505 503.564 129.62C501.537 130.684 499.181 131.216 496.496 131.216C492.848 131.216 490.061 130.127 488.136 127.948C486.21 125.719 485.248 122.628 485.248 118.676V89.72H496.04V117.308C496.04 119.436 496.394 120.956 497.104 121.868C497.813 122.729 498.928 123.16 500.448 123.16C503.336 123.16 505.793 121.412 507.82 117.916V89.72H518.612V130ZM538.35 131.216C535.057 131.216 532.498 130.279 530.674 128.404C528.85 126.479 527.938 123.768 527.938 120.272V73.684L538.73 72.468V119.968C538.73 121.741 539.465 122.628 540.934 122.628C541.745 122.628 542.454 122.476 543.062 122.172L545.266 129.848C543.189 130.76 540.884 131.216 538.35 131.216ZM583.534 108.948C583.534 109.455 583.458 110.848 583.306 113.128H558.15C558.504 116.776 559.492 119.36 561.114 120.88C562.735 122.4 564.939 123.16 567.726 123.16C569.448 123.16 571.07 122.881 572.59 122.324C574.11 121.767 575.756 120.88 577.53 119.664L582.014 125.744C577.504 129.392 572.412 131.216 566.738 131.216C560.404 131.216 555.54 129.316 552.146 125.516C548.751 121.716 547.054 116.573 547.054 110.088C547.054 105.984 547.763 102.311 549.182 99.068C550.651 95.7747 552.754 93.1907 555.49 91.316C558.276 89.4413 561.57 88.504 565.37 88.504C571.095 88.504 575.554 90.3027 578.746 93.9C581.938 97.4973 583.534 102.513 583.534 108.948ZM572.818 105.908C572.818 99.22 570.411 95.876 565.598 95.876C563.368 95.876 561.62 96.712 560.354 98.384C559.138 100.005 558.403 102.665 558.15 106.364H572.818V105.908ZM90.144 179.58C91.36 179.58 92.7027 179.783 94.172 180.188L92.348 190.6C90.9293 190.245 89.7387 190.068 88.776 190.068C86.3947 190.068 84.5453 190.904 83.228 192.576C81.9107 194.248 80.872 196.781 80.112 200.176V221H69.32V180.72H78.668L79.656 188.548C80.6187 185.711 82.012 183.507 83.836 181.936C85.7107 180.365 87.8133 179.58 90.144 179.58ZM113.224 179.504C119.254 179.504 123.966 181.404 127.36 185.204C130.755 188.953 132.452 194.172 132.452 200.86C132.452 205.116 131.667 208.865 130.096 212.108C128.576 215.3 126.347 217.783 123.408 219.556C120.52 221.329 117.1 222.216 113.148 222.216C107.119 222.216 102.382 220.341 98.9362 216.592C95.5416 212.792 93.8442 207.548 93.8442 200.86C93.8442 196.604 94.6042 192.88 96.1242 189.688C97.6949 186.445 99.9242 183.937 102.812 182.164C105.751 180.391 109.222 179.504 113.224 179.504ZM113.224 187.56C110.488 187.56 108.436 188.649 107.068 190.828C105.751 192.956 105.092 196.3 105.092 200.86C105.092 205.42 105.751 208.789 107.068 210.968C108.436 213.096 110.463 214.16 113.148 214.16C115.834 214.16 117.835 213.096 119.152 210.968C120.52 208.789 121.204 205.42 121.204 200.86C121.204 196.3 120.546 192.956 119.228 190.828C117.911 188.649 115.91 187.56 113.224 187.56ZM162.205 179.504C165.701 179.504 168.437 180.593 170.413 182.772C172.44 184.9 173.453 187.864 173.453 191.664V221H162.661V193.488C162.661 191.309 162.281 189.789 161.521 188.928C160.761 188.016 159.672 187.56 158.253 187.56C155.416 187.56 152.832 189.409 150.501 193.108V221H139.709V164.684L150.501 163.544V185.28C152.122 183.355 153.87 181.911 155.745 180.948C157.67 179.985 159.824 179.504 162.205 179.504ZM193.563 163.468V221H182.771V164.684L193.563 163.468ZM218.035 180.72L205.191 198.428L219.175 221H206.939L193.943 198.96L206.863 180.72H218.035ZM256.17 199.948C256.17 200.455 256.094 201.848 255.942 204.128H230.786C231.14 207.776 232.128 210.36 233.75 211.88C235.371 213.4 237.575 214.16 240.362 214.16C242.084 214.16 243.706 213.881 245.226 213.324C246.746 212.767 248.392 211.88 250.166 210.664L254.65 216.744C250.14 220.392 245.048 222.216 239.374 222.216C233.04 222.216 228.176 220.316 224.782 216.516C221.387 212.716 219.69 207.573 219.69 201.088C219.69 196.984 220.399 193.311 221.818 190.068C223.287 186.775 225.39 184.191 228.126 182.316C230.912 180.441 234.206 179.504 238.006 179.504C243.731 179.504 248.19 181.303 251.382 184.9C254.574 188.497 256.17 193.513 256.17 199.948ZM245.454 196.908C245.454 190.22 243.047 186.876 238.234 186.876C236.004 186.876 234.256 187.712 232.99 189.384C231.774 191.005 231.039 193.665 230.786 197.364H245.454V196.908ZM306.579 179.504C309.771 179.504 312.33 180.593 314.255 182.772C316.231 184.951 317.219 187.915 317.219 191.664V221H306.427V193.488C306.427 189.536 305.11 187.56 302.475 187.56C301.056 187.56 299.815 188.016 298.751 188.928C297.687 189.84 296.598 191.259 295.483 193.184V221H284.691V193.488C284.691 189.536 283.374 187.56 280.739 187.56C279.32 187.56 278.079 188.041 277.015 189.004C275.951 189.916 274.887 191.309 273.823 193.184V221H263.031V180.72H272.379L273.215 185.736C274.735 183.709 276.432 182.164 278.307 181.1C280.232 180.036 282.436 179.504 284.919 179.504C287.199 179.504 289.175 180.087 290.847 181.252C292.519 182.367 293.735 183.963 294.495 186.04C296.167 183.861 297.966 182.24 299.891 181.176C301.867 180.061 304.096 179.504 306.579 179.504ZM357.484 179.504C363.158 179.504 368.022 181.125 372.076 184.368L367.972 190.524C364.577 188.396 361.233 187.332 357.94 187.332C356.166 187.332 354.798 187.661 353.836 188.32C352.873 188.979 352.392 189.865 352.392 190.98C352.392 191.791 352.594 192.475 353 193.032C353.456 193.589 354.266 194.121 355.432 194.628C356.648 195.135 358.446 195.743 360.828 196.452C365.084 197.617 368.25 199.188 370.328 201.164C372.405 203.089 373.444 205.749 373.444 209.144C373.444 211.829 372.658 214.16 371.088 216.136C369.568 218.112 367.49 219.632 364.856 220.696C362.221 221.709 359.282 222.216 356.04 222.216C352.645 222.216 349.554 221.709 346.768 220.696C343.981 219.632 341.6 218.188 339.624 216.364L344.944 210.436C348.338 213.071 351.936 214.388 355.736 214.388C357.762 214.388 359.358 214.008 360.524 213.248C361.74 212.437 362.348 211.348 362.348 209.98C362.348 208.916 362.12 208.08 361.664 207.472C361.208 206.864 360.372 206.307 359.156 205.8C357.94 205.243 356.04 204.609 353.456 203.9C349.402 202.785 346.388 201.215 344.412 199.188C342.486 197.111 341.524 194.552 341.524 191.512C341.524 189.232 342.182 187.18 343.5 185.356C344.817 183.532 346.666 182.113 349.048 181.1C351.48 180.036 354.292 179.504 357.484 179.504ZM390.317 180.72V221H379.525V180.72H390.317ZM384.845 159.972C386.77 159.972 388.341 160.58 389.557 161.796C390.823 162.961 391.457 164.456 391.457 166.28C391.457 168.104 390.823 169.624 389.557 170.84C388.341 172.005 386.77 172.588 384.845 172.588C382.919 172.588 381.349 172.005 380.133 170.84C378.917 169.624 378.309 168.104 378.309 166.28C378.309 164.456 378.917 162.961 380.133 161.796C381.349 160.58 382.919 159.972 384.845 159.972ZM413.4 179.504C419.075 179.504 423.939 181.125 427.992 184.368L423.888 190.524C420.493 188.396 417.149 187.332 413.856 187.332C412.083 187.332 410.715 187.661 409.752 188.32C408.789 188.979 408.308 189.865 408.308 190.98C408.308 191.791 408.511 192.475 408.916 193.032C409.372 193.589 410.183 194.121 411.348 194.628C412.564 195.135 414.363 195.743 416.744 196.452C421 197.617 424.167 199.188 426.244 201.164C428.321 203.089 429.36 205.749 429.36 209.144C429.36 211.829 428.575 214.16 427.004 216.136C425.484 218.112 423.407 219.632 420.772 220.696C418.137 221.709 415.199 222.216 411.956 222.216C408.561 222.216 405.471 221.709 402.684 220.696C399.897 219.632 397.516 218.188 395.54 216.364L400.86 210.436C404.255 213.071 407.852 214.388 411.652 214.388C413.679 214.388 415.275 214.008 416.44 213.248C417.656 212.437 418.264 211.348 418.264 209.98C418.264 208.916 418.036 208.08 417.58 207.472C417.124 206.864 416.288 206.307 415.072 205.8C413.856 205.243 411.956 204.609 409.372 203.9C405.319 202.785 402.304 201.215 400.328 199.188C398.403 197.111 397.44 194.552 397.44 191.512C397.44 189.232 398.099 187.18 399.416 185.356C400.733 183.532 402.583 182.113 404.964 181.1C407.396 180.036 410.208 179.504 413.4 179.504ZM468.425 221H459.077L458.545 215.604C457.126 217.833 455.404 219.505 453.377 220.62C451.35 221.684 448.994 222.216 446.309 222.216C442.661 222.216 439.874 221.127 437.949 218.948C436.024 216.719 435.061 213.628 435.061 209.676V180.72H445.853V208.308C445.853 210.436 446.208 211.956 446.917 212.868C447.626 213.729 448.741 214.16 450.261 214.16C453.149 214.16 455.606 212.412 457.633 208.916V180.72H468.425V221ZM487.632 168.408L486.34 202.076H477.524L476.08 168.408H487.632ZM481.932 209.22C483.756 209.22 485.301 209.853 486.568 211.12C487.834 212.387 488.468 213.907 488.468 215.68C488.468 217.453 487.834 218.999 486.568 220.316C485.301 221.583 483.756 222.216 481.932 222.216C480.158 222.216 478.638 221.583 477.372 220.316C476.105 218.999 475.472 217.453 475.472 215.68C475.472 213.907 476.105 212.387 477.372 211.12C478.638 209.853 480.158 209.22 481.932 209.22Z" fill="#F20312"/>
<path d="M64 285C64 276.163 71.1634 269 80 269H373V339H80C71.1634 339 64 331.837 64 323V285Z" fill="#FFDF38"/>
<path d="M113.024 292.856L112.512 296.536H106.912V315H102.208V296.536H96.32V292.856H113.024ZM128.246 292.856L127.734 296.28H119.734V302.04H126.71V305.432H119.734V311.544H128.31V315H115.03V292.856H128.246ZM136.24 292.856V311.224H145.008L144.496 315H131.536V292.856H136.24ZM152.121 292.856V311.224H160.889L160.377 315H147.417V292.856H152.121ZM168.003 292.856V315H163.299V292.856H168.003ZM185.509 292.856C188.965 292.856 191.728 293.645 193.797 295.224C195.888 296.781 196.933 299.651 196.933 303.832C196.933 307.928 195.909 310.819 193.861 312.504C191.835 314.168 189.232 315 186.053 315H179.717V292.856H185.509ZM184.421 296.312V311.544H186.341C188.155 311.544 189.552 310.989 190.533 309.88C191.536 308.749 192.037 306.733 192.037 303.832C192.037 301.827 191.781 300.269 191.269 299.16C190.779 298.051 190.117 297.304 189.285 296.92C188.453 296.515 187.44 296.312 186.245 296.312H184.421ZM204.834 292.856V315H200.13V292.856H204.834ZM218.384 292.344C219.877 292.344 221.2 292.579 222.352 293.048C223.525 293.496 224.613 294.147 225.616 295L223.152 297.56C222.363 296.963 221.616 296.525 220.912 296.248C220.229 295.971 219.451 295.832 218.576 295.832C216.891 295.832 215.525 296.504 214.48 297.848C213.456 299.171 212.944 301.197 212.944 303.928C212.944 306.808 213.339 308.877 214.128 310.136C214.939 311.373 216.187 311.992 217.872 311.992C219.088 311.992 220.187 311.725 221.168 311.192V305.784H218.064L217.584 302.36H225.744V313.272C224.592 313.976 223.344 314.531 222 314.936C220.677 315.32 219.333 315.512 217.968 315.512C214.704 315.512 212.229 314.531 210.544 312.568C208.859 310.605 208.016 307.715 208.016 303.896C208.016 301.485 208.475 299.405 209.392 297.656C210.309 295.907 211.547 294.584 213.104 293.688C214.683 292.792 216.443 292.344 218.384 292.344ZM233.94 292.856V315H229.236V292.856H233.94ZM245.09 292.856C247.97 292.856 250.2 293.453 251.778 294.648C253.378 295.843 254.178 297.624 254.178 299.992C254.178 302.467 253.389 304.333 251.81 305.592C250.232 306.829 248.12 307.448 245.474 307.448H242.946V315H238.242V292.856H245.09ZM245.09 303.992C246.456 303.992 247.501 303.683 248.226 303.064C248.952 302.445 249.314 301.421 249.314 299.992C249.314 297.496 247.885 296.248 245.026 296.248H242.946V303.992H245.09ZM266.679 315L265.431 310.04H258.487L257.239 315H252.343L259.159 292.856H264.887L271.671 315H266.679ZM259.383 306.552H264.535L261.943 296.344L259.383 306.552ZM278.021 292.856V315H273.317V292.856H278.021ZM290.597 292.856L283.205 302.84L291.173 315H285.669L278.213 303.192L285.573 292.856H290.597ZM306.04 292.856L305.528 296.28H297.528V302.04H304.504V305.432H297.528V311.544H306.104V315H292.824V292.856H306.04ZM324.018 292.856L323.506 296.536H317.906V315H313.202V296.536H307.314V292.856H324.018ZM340.712 292.856L340.2 296.536H334.6V315H329.896V296.536H324.008V292.856H340.712Z" fill="#451D02"/>
<path d="M373 269H590C598.837 269 606 276.163 606 285V323C606 331.837 598.837 339 590 339H373V269Z" fill="#F20312"/>
<path d="M412.52 293.016C413.992 293.016 415.251 293.261 416.296 293.752C417.363 294.221 418.163 294.872 418.696 295.704C419.251 296.536 419.528 297.464 419.528 298.488C419.528 299.789 419.155 300.877 418.408 301.752C417.661 302.605 416.627 303.213 415.304 303.576C416.755 303.725 417.939 304.248 418.856 305.144C419.773 306.04 420.232 307.288 420.232 308.888C420.232 310.125 419.912 311.245 419.272 312.248C418.653 313.251 417.736 314.051 416.52 314.648C415.304 315.224 413.864 315.512 412.2 315.512C409.149 315.512 406.76 314.445 405.032 312.312L407.496 309.944C408.221 310.669 408.936 311.192 409.64 311.512C410.344 311.832 411.112 311.992 411.944 311.992C413.053 311.992 413.928 311.693 414.568 311.096C415.229 310.499 415.56 309.667 415.56 308.6C415.56 307.448 415.251 306.616 414.632 306.104C414.013 305.592 413.085 305.336 411.848 305.336H410.088L410.632 302.136H411.816C412.819 302.136 413.619 301.869 414.216 301.336C414.813 300.803 415.112 300.056 415.112 299.096C415.112 298.264 414.835 297.613 414.28 297.144C413.747 296.675 413.011 296.44 412.072 296.44C411.261 296.44 410.515 296.589 409.832 296.888C409.149 297.187 408.477 297.656 407.816 298.296L405.544 295.832C407.528 293.955 409.853 293.016 412.52 293.016ZM436.289 307.864C436.588 309.336 437.132 310.413 437.921 311.096C438.732 311.779 439.809 312.12 441.153 312.12C442.583 312.12 444.119 311.672 445.761 310.776V314.296C444.887 314.701 444.055 315 443.265 315.192C442.476 315.405 441.612 315.512 440.673 315.512C438.263 315.512 436.279 314.851 434.721 313.528C433.185 312.184 432.172 310.296 431.681 307.864H428.897L429.537 305.4H431.553V303H428.897L429.537 300.504H431.713C432.311 298.179 433.42 296.355 435.041 295.032C436.684 293.688 438.615 293.016 440.833 293.016C443.052 293.016 445.057 293.624 446.849 294.84L445.217 297.656C444.535 297.208 443.863 296.888 443.201 296.696C442.54 296.483 441.804 296.376 440.993 296.376C439.884 296.376 438.935 296.717 438.145 297.4C437.356 298.083 436.769 299.117 436.385 300.504H444.225L443.585 303H436.161V305.4H443.073L442.465 307.864H436.289ZM464.387 288.952L468.323 289.848L460.835 318.52L456.867 317.592L464.387 288.952ZM485.432 293.016C486.904 293.016 488.163 293.261 489.208 293.752C490.275 294.221 491.075 294.872 491.608 295.704C492.163 296.536 492.44 297.464 492.44 298.488C492.44 299.789 492.067 300.877 491.32 301.752C490.574 302.605 489.539 303.213 488.216 303.576C489.667 303.725 490.851 304.248 491.768 305.144C492.686 306.04 493.144 307.288 493.144 308.888C493.144 310.125 492.824 311.245 492.184 312.248C491.566 313.251 490.648 314.051 489.432 314.648C488.216 315.224 486.776 315.512 485.112 315.512C482.062 315.512 479.672 314.445 477.944 312.312L480.408 309.944C481.134 310.669 481.848 311.192 482.552 311.512C483.256 311.832 484.024 311.992 484.856 311.992C485.966 311.992 486.84 311.693 487.48 311.096C488.142 310.499 488.472 309.667 488.472 308.6C488.472 307.448 488.163 306.616 487.544 306.104C486.926 305.592 485.998 305.336 484.76 305.336H483L483.544 302.136H484.728C485.731 302.136 486.531 301.869 487.128 301.336C487.726 300.803 488.024 300.056 488.024 299.096C488.024 298.264 487.747 297.613 487.192 297.144C486.659 296.675 485.923 296.44 484.984 296.44C484.174 296.44 483.427 296.589 482.744 296.888C482.062 297.187 481.39 297.656 480.728 298.296L478.456 295.832C480.44 293.955 482.766 293.016 485.432 293.016ZM508.178 290.776V315H503.634V291.288L508.178 290.776ZM518.482 298.04L513.074 305.496L518.962 315H513.81L508.338 305.72L513.778 298.04H518.482ZM534.216 315H530.28L530.056 312.728C529.458 313.667 528.733 314.371 527.88 314.84C527.026 315.288 526.034 315.512 524.904 315.512C523.368 315.512 522.194 315.053 521.384 314.136C520.573 313.197 520.168 311.896 520.168 310.232V298.04H524.712V309.656C524.712 310.552 524.861 311.192 525.16 311.576C525.458 311.939 525.928 312.12 526.568 312.12C527.784 312.12 528.818 311.384 529.672 309.912V298.04H534.216V315ZM552.191 315H548.255L548.031 312.728C547.433 313.667 546.708 314.371 545.855 314.84C545.001 315.288 544.009 315.512 542.879 315.512C541.343 315.512 540.169 315.053 539.359 314.136C538.548 313.197 538.143 311.896 538.143 310.232V298.04H542.687V309.656C542.687 310.552 542.836 311.192 543.135 311.576C543.433 311.939 543.903 312.12 544.543 312.12C545.759 312.12 546.793 311.384 547.647 309.912V298.04H552.191V315ZM570.966 291.288V315H566.966L566.71 312.92C565.515 314.648 563.894 315.512 561.846 315.512C559.755 315.512 558.155 314.712 557.046 313.112C555.958 311.491 555.414 309.293 555.414 306.52C555.414 304.771 555.691 303.224 556.246 301.88C556.822 300.515 557.632 299.448 558.678 298.68C559.723 297.912 560.928 297.528 562.294 297.528C563.872 297.528 565.248 298.093 566.422 299.224V290.776L570.966 291.288ZM563.19 312.12C563.851 312.12 564.438 311.96 564.95 311.64C565.462 311.299 565.952 310.776 566.422 310.072V302.488C565.974 301.955 565.515 301.56 565.046 301.304C564.598 301.027 564.075 300.888 563.478 300.888C562.432 300.888 561.611 301.347 561.014 302.264C560.438 303.181 560.15 304.6 560.15 306.52C560.15 308.547 560.406 309.987 560.918 310.84C561.451 311.693 562.208 312.12 563.19 312.12Z" fill="white"/>
</svg>
