<svg width="600" height="260" viewBox="0 0 600 260" fill="none" xmlns="http://www.w3.org/2000/svg">
<path d="M53.24 44.792C53.24 46.496 52.88 48.008 52.16 49.328C51.44 50.648 50.36 51.692 48.92 52.46C47.504 53.204 45.776 53.576 43.736 53.576C40.664 53.576 38.312 52.784 36.68 51.2C35.072 49.592 34.268 47.456 34.268 44.792V28.088H39.56V44.54C39.56 46.22 39.896 47.48 40.568 48.32C41.24 49.136 42.296 49.544 43.736 49.544C45.176 49.544 46.232 49.136 46.904 48.32C47.6 47.48 47.948 46.22 47.948 44.54V28.088H53.24V44.792ZM73.6987 53H69.2707L69.0187 50.444C68.3467 51.5 67.5307 52.292 66.5707 52.82C65.6107 53.324 64.4947 53.576 63.2227 53.576C61.4947 53.576 60.1747 53.06 59.2627 52.028C58.3507 50.972 57.8947 49.508 57.8947 47.636V33.92H63.0067V46.988C63.0067 47.996 63.1747 48.716 63.5107 49.148C63.8467 49.556 64.3747 49.76 65.0947 49.76C66.4627 49.76 67.6267 48.932 68.5867 47.276V33.92H73.6987V53ZM94.8746 43.028C94.8746 43.268 94.8386 43.928 94.7666 45.008H82.8506C83.0186 46.736 83.4866 47.96 84.2546 48.68C85.0226 49.4 86.0666 49.76 87.3866 49.76C88.2026 49.76 88.9706 49.628 89.6906 49.364C90.4106 49.1 91.1906 48.68 92.0306 48.104L94.1546 50.984C92.0186 52.712 89.6066 53.576 86.9186 53.576C83.9186 53.576 81.6146 52.676 80.0066 50.876C78.3986 49.076 77.5946 46.64 77.5946 43.568C77.5946 41.624 77.9306 39.884 78.6026 38.348C79.2986 36.788 80.2946 35.564 81.5906 34.676C82.9106 33.788 84.4706 33.344 86.2706 33.344C88.9826 33.344 91.0946 34.196 92.6066 35.9C94.1186 37.604 94.8746 39.98 94.8746 43.028ZM89.7986 41.588C89.7986 38.42 88.6586 36.836 86.3786 36.836C85.3226 36.836 84.4946 37.232 83.8946 38.024C83.3186 38.792 82.9706 40.052 82.8506 41.804H89.7986V41.588ZM103.327 53.576C101.767 53.576 100.555 53.132 99.6907 52.244C98.8267 51.332 98.3947 50.048 98.3947 48.392V26.324L103.507 25.748V48.248C103.507 49.088 103.855 49.508 104.551 49.508C104.935 49.508 105.271 49.436 105.559 49.292L106.603 52.928C105.619 53.36 104.527 53.576 103.327 53.576ZM132.596 47.708C132.596 48.452 132.704 49.004 132.92 49.364C133.136 49.7 133.496 49.952 134 50.12L132.92 53.504C131.792 53.408 130.868 53.144 130.148 52.712C129.452 52.28 128.912 51.608 128.528 50.696C127.28 52.616 125.372 53.576 122.804 53.576C120.908 53.576 119.396 53.036 118.268 51.956C117.164 50.852 116.612 49.424 116.612 47.672C116.612 45.584 117.368 43.988 118.88 42.884C120.392 41.78 122.564 41.228 125.396 41.228H127.592V40.292C127.592 39.116 127.328 38.3 126.8 37.844C126.272 37.388 125.396 37.16 124.172 37.16C122.828 37.16 121.148 37.496 119.132 38.168L117.98 34.748C120.356 33.812 122.708 33.344 125.036 33.344C127.628 33.344 129.536 33.908 130.76 35.036C131.984 36.14 132.596 37.796 132.596 40.004V47.708ZM124.208 49.904C125.648 49.904 126.776 49.196 127.592 47.78V44.144H125.9C123.14 44.144 121.76 45.176 121.76 47.24C121.76 48.08 121.964 48.74 122.372 49.22C122.804 49.676 123.416 49.904 124.208 49.904ZM152.108 47.708C152.108 48.452 152.216 49.004 152.432 49.364C152.648 49.7 153.008 49.952 153.512 50.12L152.432 53.504C151.304 53.408 150.38 53.144 149.66 52.712C148.964 52.28 148.424 51.608 148.04 50.696C146.792 52.616 144.884 53.576 142.316 53.576C140.42 53.576 138.908 53.036 137.78 51.956C136.676 50.852 136.124 49.424 136.124 47.672C136.124 45.584 136.88 43.988 138.392 42.884C139.904 41.78 142.076 41.228 144.908 41.228H147.104V40.292C147.104 39.116 146.84 38.3 146.312 37.844C145.784 37.388 144.908 37.16 143.684 37.16C142.34 37.16 140.66 37.496 138.644 38.168L137.492 34.748C139.868 33.812 142.22 33.344 144.548 33.344C147.14 33.344 149.048 33.908 150.272 35.036C151.496 36.14 152.108 37.796 152.108 40.004V47.708ZM143.72 49.904C145.16 49.904 146.288 49.196 147.104 47.78V44.144H145.412C142.652 44.144 141.272 45.176 141.272 47.24C141.272 48.08 141.476 48.74 141.884 49.22C142.316 49.676 142.928 49.904 143.72 49.904ZM163.2 33.344C165.888 33.344 168.192 34.112 170.112 35.648L168.168 38.564C166.56 37.556 164.976 37.052 163.416 37.052C162.576 37.052 161.928 37.208 161.472 37.52C161.016 37.832 160.788 38.252 160.788 38.78C160.788 39.164 160.884 39.488 161.076 39.752C161.292 40.016 161.676 40.268 162.228 40.508C162.804 40.748 163.656 41.036 164.784 41.372C166.8 41.924 168.3 42.668 169.284 43.604C170.268 44.516 170.76 45.776 170.76 47.384C170.76 48.656 170.388 49.76 169.644 50.696C168.924 51.632 167.94 52.352 166.692 52.856C165.444 53.336 164.052 53.576 162.516 53.576C160.908 53.576 159.444 53.336 158.124 52.856C156.804 52.352 155.676 51.668 154.74 50.804L157.26 47.996C158.868 49.244 160.572 49.868 162.372 49.868C163.332 49.868 164.088 49.688 164.64 49.328C165.216 48.944 165.504 48.428 165.504 47.78C165.504 47.276 165.396 46.88 165.18 46.592C164.964 46.304 164.568 46.04 163.992 45.8C163.416 45.536 162.516 45.236 161.292 44.9C159.372 44.372 157.944 43.628 157.008 42.668C156.096 41.684 155.64 40.472 155.64 39.032C155.64 37.952 155.952 36.98 156.576 36.116C157.2 35.252 158.076 34.58 159.204 34.1C160.356 33.596 161.688 33.344 163.2 33.344ZM185.502 52.1C184.806 52.58 184.014 52.94 183.126 53.18C182.262 53.444 181.398 53.576 180.534 53.576C178.566 53.552 177.078 52.988 176.07 51.884C175.062 50.78 174.558 49.16 174.558 47.024V37.52H171.714V33.92H174.558V29.744L179.67 29.132V33.92H184.062L183.558 37.52H179.67V46.916C179.67 47.828 179.826 48.488 180.138 48.896C180.45 49.304 180.93 49.508 181.578 49.508C182.226 49.508 182.946 49.292 183.738 48.86L185.502 52.1ZM201.959 47.708C201.959 48.452 202.067 49.004 202.283 49.364C202.499 49.7 202.859 49.952 203.363 50.12L202.283 53.504C201.155 53.408 200.231 53.144 199.511 52.712C198.815 52.28 198.275 51.608 197.891 50.696C196.643 52.616 194.735 53.576 192.167 53.576C190.271 53.576 188.759 53.036 187.631 51.956C186.527 50.852 185.975 49.424 185.975 47.672C185.975 45.584 186.731 43.988 188.243 42.884C189.755 41.78 191.927 41.228 194.759 41.228H196.955V40.292C196.955 39.116 196.691 38.3 196.163 37.844C195.635 37.388 194.759 37.16 193.535 37.16C192.191 37.16 190.511 37.496 188.495 38.168L187.343 34.748C189.719 33.812 192.071 33.344 194.399 33.344C196.991 33.344 198.899 33.908 200.123 35.036C201.347 36.14 201.959 37.796 201.959 40.004V47.708ZM193.571 49.904C195.011 49.904 196.139 49.196 196.955 47.78V44.144H195.263C192.503 44.144 191.123 45.176 191.123 47.24C191.123 48.08 191.327 48.74 191.735 49.22C192.167 49.676 192.779 49.904 193.571 49.904ZM211.467 53.576C209.907 53.576 208.695 53.132 207.831 52.244C206.967 51.332 206.535 50.048 206.535 48.392V26.324L211.647 25.748V48.248C211.647 49.088 211.995 49.508 212.691 49.508C213.075 49.508 213.411 49.436 213.699 49.292L214.743 52.928C213.759 53.36 212.667 53.576 211.467 53.576ZM231.269 25.748V53H226.157V26.324L231.269 25.748ZM242.861 33.92L236.777 42.308L243.401 53H237.605L231.449 42.56L237.569 33.92H242.861ZM259.721 47.708C259.721 48.452 259.829 49.004 260.045 49.364C260.261 49.7 260.621 49.952 261.125 50.12L260.045 53.504C258.917 53.408 257.993 53.144 257.273 52.712C256.577 52.28 256.037 51.608 255.653 50.696C254.405 52.616 252.497 53.576 249.929 53.576C248.033 53.576 246.521 53.036 245.393 51.956C244.289 50.852 243.737 49.424 243.737 47.672C243.737 45.584 244.493 43.988 246.005 42.884C247.517 41.78 249.689 41.228 252.521 41.228H254.717V40.292C254.717 39.116 254.453 38.3 253.925 37.844C253.397 37.388 252.521 37.16 251.297 37.16C249.953 37.16 248.273 37.496 246.257 38.168L245.105 34.748C247.481 33.812 249.833 33.344 252.161 33.344C254.753 33.344 256.661 33.908 257.885 35.036C259.109 36.14 259.721 37.796 259.721 40.004V47.708ZM251.333 49.904C252.773 49.904 253.901 49.196 254.717 47.78V44.144H253.025C250.265 44.144 248.885 45.176 248.885 47.24C248.885 48.08 249.089 48.74 249.497 49.22C249.929 49.676 250.541 49.904 251.333 49.904ZM248.201 24.488C248.969 24.488 249.605 24.752 250.109 25.28C250.637 25.784 250.901 26.408 250.901 27.152C250.901 27.896 250.637 28.532 250.109 29.06C249.605 29.564 248.969 29.816 248.201 29.816C247.457 29.816 246.821 29.564 246.293 29.06C245.765 28.532 245.501 27.896 245.501 27.152C245.501 26.408 245.765 25.784 246.293 25.28C246.821 24.752 247.457 24.488 248.201 24.488ZM256.337 24.488C257.105 24.488 257.753 24.752 258.281 25.28C258.809 25.784 259.073 26.408 259.073 27.152C259.073 27.896 258.809 28.532 258.281 29.06C257.753 29.564 257.105 29.816 256.337 29.816C255.593 29.816 254.957 29.564 254.429 29.06C253.925 28.532 253.673 27.896 253.673 27.152C253.673 26.408 253.925 25.784 254.429 25.28C254.957 24.752 255.593 24.488 256.337 24.488ZM269.941 33.92V53H264.829V33.92H269.941ZM267.349 24.092C268.261 24.092 269.005 24.38 269.581 24.956C270.181 25.508 270.481 26.216 270.481 27.08C270.481 27.944 270.181 28.664 269.581 29.24C269.005 29.792 268.261 30.068 267.349 30.068C266.437 30.068 265.693 29.792 265.117 29.24C264.541 28.664 264.253 27.944 264.253 27.08C264.253 26.216 264.541 25.508 265.117 24.956C265.693 24.38 266.437 24.092 267.349 24.092ZM285.645 33.344C287.325 33.344 288.633 33.86 289.569 34.892C290.505 35.9 290.973 37.304 290.973 39.104V53H285.861V39.968C285.861 38.936 285.681 38.216 285.321 37.808C284.985 37.376 284.469 37.16 283.773 37.16C283.053 37.16 282.393 37.388 281.793 37.844C281.217 38.276 280.653 38.936 280.101 39.824V53H274.989V33.92H279.417L279.813 36.332C280.605 35.348 281.469 34.604 282.405 34.1C283.365 33.596 284.445 33.344 285.645 33.344ZM310.961 33.344C313.649 33.344 315.953 34.112 317.873 35.648L315.929 38.564C314.321 37.556 312.737 37.052 311.177 37.052C310.337 37.052 309.689 37.208 309.233 37.52C308.777 37.832 308.549 38.252 308.549 38.78C308.549 39.164 308.645 39.488 308.837 39.752C309.053 40.016 309.437 40.268 309.989 40.508C310.565 40.748 311.417 41.036 312.545 41.372C314.561 41.924 316.061 42.668 317.045 43.604C318.029 44.516 318.521 45.776 318.521 47.384C318.521 48.656 318.149 49.76 317.405 50.696C316.685 51.632 315.701 52.352 314.453 52.856C313.205 53.336 311.813 53.576 310.277 53.576C308.669 53.576 307.205 53.336 305.885 52.856C304.565 52.352 303.437 51.668 302.501 50.804L305.021 47.996C306.629 49.244 308.333 49.868 310.133 49.868C311.093 49.868 311.849 49.688 312.401 49.328C312.977 48.944 313.265 48.428 313.265 47.78C313.265 47.276 313.157 46.88 312.941 46.592C312.725 46.304 312.329 46.04 311.753 45.8C311.177 45.536 310.277 45.236 309.053 44.9C307.133 44.372 305.705 43.628 304.769 42.668C303.857 41.684 303.401 40.472 303.401 39.032C303.401 37.952 303.713 36.98 304.337 36.116C304.961 35.252 305.837 34.58 306.965 34.1C308.117 33.596 309.449 33.344 310.961 33.344ZM329.88 33.344C332.736 33.344 334.968 34.244 336.576 36.044C338.184 37.82 338.988 40.292 338.988 43.46C338.988 45.476 338.616 47.252 337.872 48.788C337.152 50.3 336.096 51.476 334.704 52.316C333.336 53.156 331.716 53.576 329.844 53.576C326.988 53.576 324.744 52.688 323.112 50.912C321.504 49.112 320.7 46.628 320.7 43.46C320.7 41.444 321.06 39.68 321.78 38.168C322.524 36.632 323.58 35.444 324.948 34.604C326.34 33.764 327.984 33.344 329.88 33.344ZM329.88 37.16C328.584 37.16 327.612 37.676 326.964 38.708C326.34 39.716 326.028 41.3 326.028 43.46C326.028 45.62 326.34 47.216 326.964 48.248C327.612 49.256 328.572 49.76 329.844 49.76C331.116 49.76 332.064 49.256 332.688 48.248C333.336 47.216 333.66 45.62 333.66 43.46C333.66 41.3 333.348 39.716 332.724 38.708C332.1 37.676 331.152 37.16 329.88 37.16ZM331.932 29.96C331.428 29.96 330.984 29.876 330.6 29.708C330.24 29.54 329.808 29.3 329.304 28.988C328.992 28.748 328.716 28.58 328.476 28.484C328.26 28.364 328.032 28.304 327.792 28.304C327.408 28.304 327.072 28.436 326.784 28.7C326.496 28.964 326.196 29.372 325.884 29.924L323.256 28.628C323.736 27.452 324.36 26.492 325.128 25.748C325.896 25.004 326.76 24.632 327.72 24.632C328.272 24.632 328.74 24.728 329.124 24.92C329.508 25.088 329.94 25.328 330.42 25.64C330.732 25.856 330.996 26.024 331.212 26.144C331.428 26.24 331.656 26.288 331.896 26.288C332.28 26.288 332.604 26.168 332.868 25.928C333.156 25.664 333.468 25.256 333.804 24.704L336.432 26C335.952 27.224 335.328 28.196 334.56 28.916C333.792 29.612 332.916 29.96 331.932 29.96ZM353.207 33.344C355.439 33.344 357.167 34.232 358.391 36.008C359.639 37.784 360.263 40.268 360.263 43.46C360.263 45.428 359.951 47.18 359.327 48.716C358.727 50.228 357.851 51.416 356.699 52.28C355.571 53.144 354.239 53.576 352.703 53.576C350.615 53.576 348.947 52.76 347.699 51.128L347.411 53H342.875V26.324L347.987 25.748V35.972C348.587 35.156 349.343 34.52 350.255 34.064C351.167 33.584 352.151 33.344 353.207 33.344ZM351.263 49.796C353.711 49.796 354.935 47.684 354.935 43.46C354.935 41.132 354.635 39.5 354.035 38.564C353.459 37.604 352.619 37.124 351.515 37.124C350.147 37.124 348.971 37.94 347.987 39.572V47.744C348.827 49.112 349.919 49.796 351.263 49.796ZM374.185 33.38C374.761 33.38 375.397 33.476 376.093 33.668L375.229 38.6C374.557 38.432 373.993 38.348 373.537 38.348C372.409 38.348 371.533 38.744 370.909 39.536C370.285 40.328 369.793 41.528 369.433 43.136V53H364.321V33.92H368.749L369.217 37.628C369.673 36.284 370.333 35.24 371.197 34.496C372.085 33.752 373.081 33.38 374.185 33.38ZM391.944 47.708C391.944 48.452 392.052 49.004 392.268 49.364C392.484 49.7 392.844 49.952 393.348 50.12L392.268 53.504C391.14 53.408 390.216 53.144 389.496 52.712C388.8 52.28 388.26 51.608 387.876 50.696C386.628 52.616 384.72 53.576 382.152 53.576C380.256 53.576 378.744 53.036 377.616 51.956C376.512 50.852 375.96 49.424 375.96 47.672C375.96 45.584 376.716 43.988 378.228 42.884C379.74 41.78 381.912 41.228 384.744 41.228H386.94V40.292C386.94 39.116 386.676 38.3 386.148 37.844C385.62 37.388 384.744 37.16 383.52 37.16C382.176 37.16 380.496 37.496 378.48 38.168L377.328 34.748C379.704 33.812 382.056 33.344 384.384 33.344C386.976 33.344 388.884 33.908 390.108 35.036C391.332 36.14 391.944 37.796 391.944 40.004V47.708ZM383.556 49.904C384.996 49.904 386.124 49.196 386.94 47.78V44.144H385.248C382.488 44.144 381.108 45.176 381.108 47.24C381.108 48.08 381.312 48.74 381.72 49.22C382.152 49.676 382.764 49.904 383.556 49.904ZM407.707 33.344C409.387 33.344 410.695 33.86 411.631 34.892C412.567 35.9 413.035 37.304 413.035 39.104V53H407.923V39.968C407.923 38.936 407.743 38.216 407.383 37.808C407.047 37.376 406.531 37.16 405.835 37.16C405.115 37.16 404.455 37.388 403.855 37.844C403.279 38.276 402.715 38.936 402.163 39.824V53H397.051V33.92H401.479L401.875 36.332C402.667 35.348 403.531 34.604 404.467 34.1C405.427 33.596 406.507 33.344 407.707 33.344ZM428.555 33.344C430.235 33.344 431.543 33.86 432.479 34.892C433.415 35.9 433.883 37.304 433.883 39.104V53H428.771V39.968C428.771 38.936 428.591 38.216 428.231 37.808C427.895 37.376 427.379 37.16 426.683 37.16C425.963 37.16 425.303 37.388 424.703 37.844C424.127 38.276 423.563 38.936 423.011 39.824V53H417.899V33.92H422.327L422.723 36.332C423.515 35.348 424.379 34.604 425.315 34.1C426.275 33.596 427.355 33.344 428.555 33.344ZM453.327 47.708C453.327 48.452 453.435 49.004 453.651 49.364C453.867 49.7 454.227 49.952 454.731 50.12L453.651 53.504C452.523 53.408 451.599 53.144 450.879 52.712C450.183 52.28 449.643 51.608 449.259 50.696C448.011 52.616 446.103 53.576 443.535 53.576C441.639 53.576 440.127 53.036 438.999 51.956C437.895 50.852 437.343 49.424 437.343 47.672C437.343 45.584 438.099 43.988 439.611 42.884C441.123 41.78 443.295 41.228 446.127 41.228H448.323V40.292C448.323 39.116 448.059 38.3 447.531 37.844C447.003 37.388 446.127 37.16 444.903 37.16C443.559 37.16 441.879 37.496 439.863 38.168L438.711 34.748C441.087 33.812 443.439 33.344 445.767 33.344C448.359 33.344 450.267 33.908 451.491 35.036C452.715 36.14 453.327 37.796 453.327 40.004V47.708ZM444.939 49.904C446.379 49.904 447.507 49.196 448.323 47.78V44.144H446.631C443.871 44.144 442.491 45.176 442.491 47.24C442.491 48.08 442.695 48.74 443.103 49.22C443.535 49.676 444.147 49.904 444.939 49.904ZM474.958 26.324V53H470.458L470.17 50.66C468.826 52.604 467.002 53.576 464.698 53.576C462.346 53.576 460.546 52.676 459.298 50.876C458.074 49.052 457.462 46.58 457.462 43.46C457.462 41.492 457.774 39.752 458.398 38.24C459.046 36.704 459.958 35.504 461.134 34.64C462.31 33.776 463.666 33.344 465.202 33.344C466.978 33.344 468.526 33.98 469.846 35.252V25.748L474.958 26.324ZM466.21 49.76C466.954 49.76 467.614 49.58 468.19 49.22C468.766 48.836 469.318 48.248 469.846 47.456V38.924C469.342 38.324 468.826 37.88 468.298 37.592C467.794 37.28 467.206 37.124 466.534 37.124C465.358 37.124 464.434 37.64 463.762 38.672C463.114 39.704 462.79 41.3 462.79 43.46C462.79 45.74 463.078 47.36 463.654 48.32C464.254 49.28 465.106 49.76 466.21 49.76ZM496.113 43.028C496.113 43.268 496.077 43.928 496.005 45.008H484.089C484.257 46.736 484.725 47.96 485.493 48.68C486.261 49.4 487.305 49.76 488.625 49.76C489.441 49.76 490.209 49.628 490.929 49.364C491.649 49.1 492.429 48.68 493.269 48.104L495.393 50.984C493.257 52.712 490.845 53.576 488.157 53.576C485.157 53.576 482.853 52.676 481.245 50.876C479.637 49.076 478.833 46.64 478.833 43.568C478.833 41.624 479.169 39.884 479.841 38.348C480.537 36.788 481.533 35.564 482.829 34.676C484.149 33.788 485.709 33.344 487.509 33.344C490.221 33.344 492.333 34.196 493.845 35.9C495.357 37.604 496.113 39.98 496.113 43.028ZM491.037 41.588C491.037 38.42 489.897 36.836 487.617 36.836C486.561 36.836 485.733 37.232 485.133 38.024C484.557 38.792 484.209 40.052 484.089 41.804H491.037V41.588ZM516.877 34.964C515.629 35.444 513.793 35.684 511.369 35.684C512.569 36.212 513.457 36.872 514.033 37.664C514.609 38.432 514.897 39.404 514.897 40.58C514.897 41.804 514.573 42.908 513.925 43.892C513.301 44.852 512.389 45.608 511.189 46.16C510.013 46.712 508.633 46.988 507.049 46.988C506.209 46.988 505.465 46.904 504.817 46.736C504.337 47.048 504.097 47.468 504.097 47.996C504.097 48.38 504.241 48.692 504.529 48.932C504.841 49.148 505.429 49.256 506.293 49.256H509.209C510.625 49.256 511.861 49.496 512.917 49.976C513.997 50.432 514.825 51.08 515.401 51.92C516.001 52.736 516.301 53.672 516.301 54.728C516.301 56.672 515.461 58.184 513.781 59.264C512.125 60.368 509.725 60.92 506.581 60.92C504.325 60.92 502.537 60.68 501.217 60.2C499.921 59.744 499.009 59.072 498.481 58.184C497.953 57.296 497.689 56.18 497.689 54.836H502.261C502.261 55.46 502.381 55.952 502.621 56.312C502.861 56.696 503.293 56.972 503.917 57.14C504.565 57.332 505.489 57.428 506.689 57.428C508.345 57.428 509.497 57.224 510.145 56.816C510.817 56.408 511.153 55.832 511.153 55.088C511.153 54.416 510.901 53.9 510.397 53.54C509.893 53.18 509.149 53 508.165 53H505.357C503.461 53 502.045 52.652 501.109 51.956C500.173 51.236 499.705 50.336 499.705 49.256C499.705 48.584 499.897 47.936 500.281 47.312C500.689 46.664 501.241 46.124 501.937 45.692C500.761 45.044 499.897 44.288 499.345 43.424C498.817 42.536 498.553 41.48 498.553 40.256C498.553 38.864 498.889 37.652 499.561 36.62C500.257 35.564 501.217 34.76 502.441 34.208C503.689 33.632 505.105 33.344 506.689 33.344C508.657 33.392 510.277 33.224 511.549 32.84C512.821 32.456 514.177 31.856 515.617 31.04L516.877 34.964ZM506.797 36.764C505.837 36.764 505.069 37.076 504.493 37.7C503.941 38.3 503.665 39.128 503.665 40.184C503.665 41.264 503.941 42.116 504.493 42.74C505.069 43.364 505.849 43.676 506.833 43.676C507.865 43.676 508.645 43.376 509.173 42.776C509.701 42.176 509.965 41.288 509.965 40.112C509.965 37.88 508.909 36.764 506.797 36.764ZM533.166 47.708C533.166 48.452 533.274 49.004 533.49 49.364C533.706 49.7 534.066 49.952 534.57 50.12L533.49 53.504C532.362 53.408 531.438 53.144 530.718 52.712C530.022 52.28 529.482 51.608 529.098 50.696C527.85 52.616 525.942 53.576 523.374 53.576C521.478 53.576 519.966 53.036 518.838 51.956C517.734 50.852 517.182 49.424 517.182 47.672C517.182 45.584 517.938 43.988 519.45 42.884C520.962 41.78 523.134 41.228 525.966 41.228H528.162V40.292C528.162 39.116 527.898 38.3 527.37 37.844C526.842 37.388 525.966 37.16 524.742 37.16C523.398 37.16 521.718 37.496 519.702 38.168L518.55 34.748C520.926 33.812 523.278 33.344 525.606 33.344C528.198 33.344 530.106 33.908 531.33 35.036C532.554 36.14 533.166 37.796 533.166 40.004V47.708ZM524.778 49.904C526.218 49.904 527.346 49.196 528.162 47.78V44.144H526.47C523.71 44.144 522.33 45.176 522.33 47.24C522.33 48.08 522.534 48.74 522.942 49.22C523.374 49.676 523.986 49.904 524.778 49.904ZM44.384 73.38C44.96 73.38 45.596 73.476 46.292 73.668L45.428 78.6C44.756 78.432 44.192 78.348 43.736 78.348C42.608 78.348 41.732 78.744 41.108 79.536C40.484 80.328 39.992 81.528 39.632 83.136V93H34.52V73.92H38.948L39.416 77.628C39.872 76.284 40.532 75.24 41.396 74.496C42.284 73.752 43.28 73.38 44.384 73.38ZM55.7668 73.344C58.6228 73.344 60.8548 74.244 62.4628 76.044C64.0708 77.82 64.8748 80.292 64.8748 83.46C64.8748 85.476 64.5028 87.252 63.7588 88.788C63.0388 90.3 61.9828 91.476 60.5908 92.316C59.2228 93.156 57.6028 93.576 55.7308 93.576C52.8748 93.576 50.6308 92.688 48.9988 90.912C47.3908 89.112 46.5868 86.628 46.5868 83.46C46.5868 81.444 46.9468 79.68 47.6668 78.168C48.4108 76.632 49.4668 75.444 50.8348 74.604C52.2268 73.764 53.8708 73.344 55.7668 73.344ZM55.7668 77.16C54.4708 77.16 53.4988 77.676 52.8508 78.708C52.2268 79.716 51.9148 81.3 51.9148 83.46C51.9148 85.62 52.2268 87.216 52.8508 88.248C53.4988 89.256 54.4588 89.76 55.7308 89.76C57.0028 89.76 57.9508 89.256 58.5748 88.248C59.2228 87.216 59.5468 85.62 59.5468 83.46C59.5468 81.3 59.2348 79.716 58.6108 78.708C57.9868 77.676 57.0388 77.16 55.7668 77.16ZM79.4182 73.344C81.0742 73.344 82.3702 73.86 83.3062 74.892C84.2662 75.9 84.7462 77.304 84.7462 79.104V93H79.6342V79.968C79.6342 78.936 79.4542 78.216 79.0942 77.808C78.7342 77.376 78.2182 77.16 77.5462 77.16C76.2022 77.16 74.9782 78.036 73.8742 79.788V93H68.7622V66.324L73.8742 65.784V76.08C74.6422 75.168 75.4702 74.484 76.3582 74.028C77.2702 73.572 78.2902 73.344 79.4182 73.344ZM94.7218 65.748V93H89.6098V66.324L94.7218 65.748ZM106.314 73.92L100.23 82.308L106.854 93H101.058L94.9018 82.56L101.022 73.92H106.314ZM124.828 83.028C124.828 83.268 124.792 83.928 124.72 85.008H112.804C112.972 86.736 113.44 87.96 114.208 88.68C114.976 89.4 116.02 89.76 117.34 89.76C118.156 89.76 118.924 89.628 119.644 89.364C120.364 89.1 121.144 88.68 121.984 88.104L124.108 90.984C121.972 92.712 119.56 93.576 116.872 93.576C113.872 93.576 111.568 92.676 109.96 90.876C108.352 89.076 107.548 86.64 107.548 83.568C107.548 81.624 107.884 79.884 108.556 78.348C109.252 76.788 110.248 75.564 111.544 74.676C112.864 73.788 114.424 73.344 116.224 73.344C118.936 73.344 121.048 74.196 122.56 75.9C124.072 77.604 124.828 79.98 124.828 83.028ZM119.752 81.588C119.752 78.42 118.612 76.836 116.332 76.836C115.276 76.836 114.448 77.232 113.848 78.024C113.272 78.792 112.924 80.052 112.804 81.804H119.752V81.588ZM149.156 73.344C150.668 73.344 151.88 73.86 152.792 74.892C153.728 75.924 154.196 77.328 154.196 79.104V93H149.084V79.968C149.084 78.096 148.46 77.16 147.212 77.16C146.54 77.16 145.952 77.376 145.448 77.808C144.944 78.24 144.428 78.912 143.9 79.824V93H138.788V79.968C138.788 78.096 138.164 77.16 136.916 77.16C136.244 77.16 135.656 77.388 135.152 77.844C134.648 78.276 134.144 78.936 133.64 79.824V93H128.528V73.92H132.956L133.352 76.296C134.072 75.336 134.876 74.604 135.764 74.1C136.676 73.596 137.72 73.344 138.896 73.344C139.976 73.344 140.912 73.62 141.704 74.172C142.496 74.7 143.072 75.456 143.432 76.44C144.224 75.408 145.076 74.64 145.988 74.136C146.924 73.608 147.98 73.344 149.156 73.344ZM172.945 65.748V93H167.833V66.324L172.945 65.748ZM184.537 73.92L178.453 82.308L185.077 93H179.281L173.125 82.56L179.245 73.92H184.537ZM194.95 73.344C197.806 73.344 200.038 74.244 201.646 76.044C203.254 77.82 204.058 80.292 204.058 83.46C204.058 85.476 203.686 87.252 202.942 88.788C202.222 90.3 201.166 91.476 199.774 92.316C198.406 93.156 196.786 93.576 194.914 93.576C192.058 93.576 189.814 92.688 188.182 90.912C186.574 89.112 185.77 86.628 185.77 83.46C185.77 81.444 186.13 79.68 186.85 78.168C187.594 76.632 188.65 75.444 190.018 74.604C191.41 73.764 193.054 73.344 194.95 73.344ZM194.95 77.16C193.654 77.16 192.682 77.676 192.034 78.708C191.41 79.716 191.098 81.3 191.098 83.46C191.098 85.62 191.41 87.216 192.034 88.248C192.682 89.256 193.642 89.76 194.914 89.76C196.186 89.76 197.134 89.256 197.758 88.248C198.406 87.216 198.73 85.62 198.73 83.46C198.73 81.3 198.418 79.716 197.794 78.708C197.17 77.676 196.222 77.16 194.95 77.16ZM218.602 73.344C220.258 73.344 221.554 73.86 222.49 74.892C223.45 75.9 223.93 77.304 223.93 79.104V93H218.818V79.968C218.818 78.936 218.638 78.216 218.278 77.808C217.918 77.376 217.402 77.16 216.73 77.16C215.386 77.16 214.162 78.036 213.058 79.788V93H207.946V66.324L213.058 65.784V76.08C213.826 75.168 214.654 74.484 215.542 74.028C216.454 73.572 217.474 73.344 218.602 73.344ZM244.423 73.92L238.303 93H232.219L225.99 73.92H231.535L235.314 89.004L239.167 73.92H244.423ZM251.976 73.92V93H246.864V73.92H251.976ZM249.384 64.092C250.296 64.092 251.04 64.38 251.616 64.956C252.216 65.508 252.516 66.216 252.516 67.08C252.516 67.944 252.216 68.664 251.616 69.24C251.04 69.792 250.296 70.068 249.384 70.068C248.472 70.068 247.728 69.792 247.152 69.24C246.576 68.664 246.288 67.944 246.288 67.08C246.288 66.216 246.576 65.508 247.152 64.956C247.728 64.38 248.472 64.092 249.384 64.092ZM268.436 92.1C267.74 92.58 266.948 92.94 266.06 93.18C265.196 93.444 264.332 93.576 263.468 93.576C261.5 93.552 260.012 92.988 259.004 91.884C257.996 90.78 257.492 89.16 257.492 87.024V77.52H254.648V73.92H257.492V69.744L262.604 69.132V73.92H266.996L266.492 77.52H262.604V86.916C262.604 87.828 262.76 88.488 263.072 88.896C263.384 89.304 263.864 89.508 264.512 89.508C265.16 89.508 265.88 89.292 266.672 88.86L268.436 92.1ZM284.893 87.708C284.893 88.452 285.001 89.004 285.217 89.364C285.433 89.7 285.793 89.952 286.297 90.12L285.217 93.504C284.089 93.408 283.165 93.144 282.445 92.712C281.749 92.28 281.209 91.608 280.825 90.696C279.577 92.616 277.669 93.576 275.101 93.576C273.205 93.576 271.693 93.036 270.565 91.956C269.461 90.852 268.909 89.424 268.909 87.672C268.909 85.584 269.665 83.988 271.177 82.884C272.689 81.78 274.861 81.228 277.693 81.228H279.889V80.292C279.889 79.116 279.625 78.3 279.097 77.844C278.569 77.388 277.693 77.16 276.469 77.16C275.125 77.16 273.445 77.496 271.429 78.168L270.277 74.748C272.653 73.812 275.005 73.344 277.333 73.344C279.925 73.344 281.833 73.908 283.057 75.036C284.281 76.14 284.893 77.796 284.893 80.004V87.708ZM276.505 89.904C277.945 89.904 279.073 89.196 279.889 87.78V84.144H278.197C275.437 84.144 274.057 85.176 274.057 87.24C274.057 88.08 274.261 88.74 274.669 89.22C275.101 89.676 275.713 89.904 276.505 89.904ZM310.628 73.344C312.14 73.344 313.352 73.86 314.264 74.892C315.2 75.924 315.668 77.328 315.668 79.104V93H310.556V79.968C310.556 78.096 309.932 77.16 308.684 77.16C308.012 77.16 307.424 77.376 306.92 77.808C306.416 78.24 305.9 78.912 305.372 79.824V93H300.26V79.968C300.26 78.096 299.636 77.16 298.388 77.16C297.716 77.16 297.128 77.388 296.624 77.844C296.12 78.276 295.616 78.936 295.112 79.824V93H290V73.92H294.428L294.824 76.296C295.544 75.336 296.348 74.604 297.236 74.1C298.148 73.596 299.192 73.344 300.368 73.344C301.448 73.344 302.384 73.62 303.176 74.172C303.968 74.7 304.544 75.456 304.904 76.44C305.696 75.408 306.548 74.64 307.46 74.136C308.396 73.608 309.452 73.344 310.628 73.344ZM335.096 87.708C335.096 88.452 335.204 89.004 335.42 89.364C335.636 89.7 335.996 89.952 336.5 90.12L335.42 93.504C334.292 93.408 333.368 93.144 332.648 92.712C331.952 92.28 331.412 91.608 331.028 90.696C329.78 92.616 327.872 93.576 325.304 93.576C323.408 93.576 321.896 93.036 320.768 91.956C319.664 90.852 319.112 89.424 319.112 87.672C319.112 85.584 319.868 83.988 321.38 82.884C322.892 81.78 325.064 81.228 327.896 81.228H330.092V80.292C330.092 79.116 329.828 78.3 329.3 77.844C328.772 77.388 327.896 77.16 326.672 77.16C325.328 77.16 323.648 77.496 321.632 78.168L320.48 74.748C322.856 73.812 325.208 73.344 327.536 73.344C330.128 73.344 332.036 73.908 333.26 75.036C334.484 76.14 335.096 77.796 335.096 80.004V87.708ZM326.708 89.904C328.148 89.904 329.276 89.196 330.092 87.78V84.144H328.4C325.64 84.144 324.26 85.176 324.26 87.24C324.26 88.08 324.464 88.74 324.872 89.22C325.304 89.676 325.916 89.904 326.708 89.904ZM346.188 73.344C348.876 73.344 351.18 74.112 353.1 75.648L351.156 78.564C349.548 77.556 347.964 77.052 346.404 77.052C345.564 77.052 344.916 77.208 344.46 77.52C344.004 77.832 343.776 78.252 343.776 78.78C343.776 79.164 343.872 79.488 344.064 79.752C344.28 80.016 344.664 80.268 345.216 80.508C345.792 80.748 346.644 81.036 347.772 81.372C349.788 81.924 351.288 82.668 352.272 83.604C353.256 84.516 353.748 85.776 353.748 87.384C353.748 88.656 353.376 89.76 352.632 90.696C351.912 91.632 350.928 92.352 349.68 92.856C348.432 93.336 347.04 93.576 345.504 93.576C343.896 93.576 342.432 93.336 341.112 92.856C339.792 92.352 338.664 91.668 337.728 90.804L340.248 87.996C341.856 89.244 343.56 89.868 345.36 89.868C346.32 89.868 347.076 89.688 347.628 89.328C348.204 88.944 348.492 88.428 348.492 87.78C348.492 87.276 348.384 86.88 348.168 86.592C347.952 86.304 347.556 86.04 346.98 85.8C346.404 85.536 345.504 85.236 344.28 84.9C342.36 84.372 340.932 83.628 339.996 82.668C339.084 81.684 338.628 80.472 338.628 79.032C338.628 77.952 338.94 76.98 339.564 76.116C340.188 75.252 341.064 74.58 342.192 74.1C343.344 73.596 344.676 73.344 346.188 73.344ZM358.843 87.42C359.707 87.42 360.439 87.72 361.039 88.32C361.639 88.92 361.939 89.64 361.939 90.48C361.939 91.32 361.639 92.052 361.039 92.676C360.439 93.276 359.707 93.576 358.843 93.576C358.003 93.576 357.283 93.276 356.683 92.676C356.083 92.052 355.783 91.32 355.783 90.48C355.783 89.64 356.083 88.92 356.683 88.32C357.283 87.72 358.003 87.42 358.843 87.42Z" fill="#E3000F"/>
<path d="M36.6758 110.938V128H33.7344V110.938H36.6758ZM46.9297 110.938L40.0156 119.152L36.0781 123.324L35.5625 120.406L38.375 116.938L43.3438 110.938H46.9297ZM43.7656 128L38.1523 119.914L40.1797 117.91L47.2578 128H43.7656ZM55.9648 125.012V115.32H58.8008V128H56.1289L55.9648 125.012ZM56.3633 122.375L57.3125 122.352C57.3125 123.203 57.2188 123.988 57.0312 124.707C56.8438 125.418 56.5547 126.039 56.1641 126.57C55.7734 127.094 55.2734 127.504 54.6641 127.801C54.0547 128.09 53.3242 128.234 52.4727 128.234C51.8555 128.234 51.2891 128.145 50.7734 127.965C50.2578 127.785 49.8125 127.508 49.4375 127.133C49.0703 126.758 48.7852 126.27 48.582 125.668C48.3789 125.066 48.2773 124.348 48.2773 123.512V115.32H51.1016V123.535C51.1016 123.996 51.1562 124.383 51.2656 124.695C51.375 125 51.5234 125.246 51.7109 125.434C51.8984 125.621 52.1172 125.754 52.3672 125.832C52.6172 125.91 52.8828 125.949 53.1641 125.949C53.9688 125.949 54.6016 125.793 55.0625 125.48C55.5312 125.16 55.8633 124.73 56.0586 124.191C56.2617 123.652 56.3633 123.047 56.3633 122.375ZM64.7188 115.32V128H61.8828V115.32H64.7188ZM61.6953 111.992C61.6953 111.562 61.8359 111.207 62.1172 110.926C62.4062 110.637 62.8047 110.492 63.3125 110.492C63.8125 110.492 64.207 110.637 64.4961 110.926C64.7852 111.207 64.9297 111.562 64.9297 111.992C64.9297 112.414 64.7852 112.766 64.4961 113.047C64.207 113.328 63.8125 113.469 63.3125 113.469C62.8047 113.469 62.4062 113.328 62.1172 113.047C61.8359 112.766 61.6953 112.414 61.6953 111.992ZM79.3789 128.234C78.4414 128.234 77.5938 128.082 76.8359 127.777C76.0859 127.465 75.4453 127.031 74.9141 126.477C74.3906 125.922 73.9883 125.27 73.707 124.52C73.4258 123.77 73.2852 122.961 73.2852 122.094V121.625C73.2852 120.633 73.4297 119.734 73.7188 118.93C74.0078 118.125 74.4102 117.438 74.9258 116.867C75.4414 116.289 76.0508 115.848 76.7539 115.543C77.457 115.238 78.2188 115.086 79.0391 115.086C79.9453 115.086 80.7383 115.238 81.418 115.543C82.0977 115.848 82.6602 116.277 83.1055 116.832C83.5586 117.379 83.8945 118.031 84.1133 118.789C84.3398 119.547 84.4531 120.383 84.4531 121.297V122.504H74.6562V120.477H81.6641V120.254C81.6484 119.746 81.5469 119.27 81.3594 118.824C81.1797 118.379 80.9023 118.02 80.5273 117.746C80.1523 117.473 79.6523 117.336 79.0273 117.336C78.5586 117.336 78.1406 117.438 77.7734 117.641C77.4141 117.836 77.1133 118.121 76.8711 118.496C76.6289 118.871 76.4414 119.324 76.3086 119.855C76.1836 120.379 76.1211 120.969 76.1211 121.625V122.094C76.1211 122.648 76.1953 123.164 76.3438 123.641C76.5 124.109 76.7266 124.52 77.0234 124.871C77.3203 125.223 77.6797 125.5 78.1016 125.703C78.5234 125.898 79.0039 125.996 79.543 125.996C80.2227 125.996 80.8281 125.859 81.3594 125.586C81.8906 125.312 82.3516 124.926 82.7422 124.426L84.2305 125.867C83.957 126.266 83.6016 126.648 83.1641 127.016C82.7266 127.375 82.1914 127.668 81.5586 127.895C80.9336 128.121 80.207 128.234 79.3789 128.234ZM89.6797 115.32V128H86.8438V115.32H89.6797ZM86.6562 111.992C86.6562 111.562 86.7969 111.207 87.0781 110.926C87.3672 110.637 87.7656 110.492 88.2734 110.492C88.7734 110.492 89.168 110.637 89.457 110.926C89.7461 111.207 89.8906 111.562 89.8906 111.992C89.8906 112.414 89.7461 112.766 89.457 113.047C89.168 113.328 88.7734 113.469 88.2734 113.469C87.7656 113.469 87.3672 113.328 87.0781 113.047C86.7969 112.766 86.6562 112.414 86.6562 111.992ZM98.8906 115.32H101.727V129.102C101.727 129.969 101.578 130.699 101.281 131.293C100.984 131.895 100.547 132.348 99.9688 132.652C99.3906 132.965 98.6836 133.121 97.8477 133.121C97.5977 133.121 97.3398 133.102 97.0742 133.062C96.8008 133.031 96.543 132.984 96.3008 132.922L96.3125 130.719C96.4766 130.75 96.6523 130.773 96.8398 130.789C97.0195 130.812 97.1914 130.824 97.3555 130.824C97.6914 130.824 97.9727 130.766 98.1992 130.648C98.4258 130.531 98.5977 130.348 98.7148 130.098C98.832 129.848 98.8906 129.516 98.8906 129.102V115.32ZM98.6445 111.992C98.6445 111.562 98.7891 111.207 99.0781 110.926C99.3672 110.637 99.7617 110.492 100.262 110.492C100.77 110.492 101.164 110.637 101.445 110.926C101.734 111.207 101.879 111.562 101.879 111.992C101.879 112.414 101.734 112.766 101.445 113.047C101.164 113.328 100.77 113.469 100.262 113.469C99.7617 113.469 99.3672 113.328 99.0781 113.047C98.7891 112.766 98.6445 112.414 98.6445 111.992ZM104.234 121.801V121.531C104.234 120.617 104.367 119.77 104.633 118.988C104.898 118.199 105.281 117.516 105.781 116.938C106.289 116.352 106.906 115.898 107.633 115.578C108.367 115.25 109.195 115.086 110.117 115.086C111.047 115.086 111.875 115.25 112.602 115.578C113.336 115.898 113.957 116.352 114.465 116.938C114.973 117.516 115.359 118.199 115.625 118.988C115.891 119.77 116.023 120.617 116.023 121.531V121.801C116.023 122.715 115.891 123.562 115.625 124.344C115.359 125.125 114.973 125.809 114.465 126.395C113.957 126.973 113.34 127.426 112.613 127.754C111.887 128.074 111.062 128.234 110.141 128.234C109.211 128.234 108.379 128.074 107.645 127.754C106.918 127.426 106.301 126.973 105.793 126.395C105.285 125.809 104.898 125.125 104.633 124.344C104.367 123.562 104.234 122.715 104.234 121.801ZM107.059 121.531V121.801C107.059 122.371 107.117 122.91 107.234 123.418C107.352 123.926 107.535 124.371 107.785 124.754C108.035 125.137 108.355 125.438 108.746 125.656C109.137 125.875 109.602 125.984 110.141 125.984C110.664 125.984 111.117 125.875 111.5 125.656C111.891 125.438 112.211 125.137 112.461 124.754C112.711 124.371 112.895 123.926 113.012 123.418C113.137 122.91 113.199 122.371 113.199 121.801V121.531C113.199 120.969 113.137 120.438 113.012 119.938C112.895 119.43 112.707 118.98 112.449 118.59C112.199 118.199 111.879 117.895 111.488 117.676C111.105 117.449 110.648 117.336 110.117 117.336C109.586 117.336 109.125 117.449 108.734 117.676C108.352 117.895 108.035 118.199 107.785 118.59C107.535 118.98 107.352 119.43 107.234 119.938C107.117 120.438 107.059 120.969 107.059 121.531ZM112.637 110.141L114.359 110.27C114.359 110.84 114.246 111.352 114.02 111.805C113.793 112.25 113.484 112.602 113.094 112.859C112.703 113.117 112.262 113.246 111.77 113.246C111.387 113.246 111.062 113.191 110.797 113.082C110.531 112.973 110.289 112.848 110.07 112.707C109.852 112.566 109.625 112.445 109.391 112.344C109.164 112.234 108.895 112.18 108.582 112.18C108.285 112.18 108.031 112.289 107.82 112.508C107.617 112.727 107.516 113.02 107.516 113.387L105.781 113.293C105.781 112.73 105.895 112.223 106.121 111.77C106.348 111.316 106.656 110.957 107.047 110.691C107.438 110.426 107.879 110.293 108.371 110.293C108.691 110.293 108.98 110.348 109.238 110.457C109.504 110.559 109.754 110.68 109.988 110.82C110.23 110.961 110.477 111.086 110.727 111.195C110.977 111.305 111.254 111.359 111.559 111.359C111.855 111.359 112.109 111.246 112.32 111.02C112.531 110.793 112.637 110.5 112.637 110.141ZM126.02 125.012V115.32H128.855V128H126.184L126.02 125.012ZM126.418 122.375L127.367 122.352C127.367 123.203 127.273 123.988 127.086 124.707C126.898 125.418 126.609 126.039 126.219 126.57C125.828 127.094 125.328 127.504 124.719 127.801C124.109 128.09 123.379 128.234 122.527 128.234C121.91 128.234 121.344 128.145 120.828 127.965C120.312 127.785 119.867 127.508 119.492 127.133C119.125 126.758 118.84 126.27 118.637 125.668C118.434 125.066 118.332 124.348 118.332 123.512V115.32H121.156V123.535C121.156 123.996 121.211 124.383 121.32 124.695C121.43 125 121.578 125.246 121.766 125.434C121.953 125.621 122.172 125.754 122.422 125.832C122.672 125.91 122.938 125.949 123.219 125.949C124.023 125.949 124.656 125.793 125.117 125.48C125.586 125.16 125.918 124.73 126.113 124.191C126.316 123.652 126.418 123.047 126.418 122.375ZM138.898 125.457V119.41C138.898 118.957 138.816 118.566 138.652 118.238C138.488 117.91 138.238 117.656 137.902 117.477C137.574 117.297 137.16 117.207 136.66 117.207C136.199 117.207 135.801 117.285 135.465 117.441C135.129 117.598 134.867 117.809 134.68 118.074C134.492 118.34 134.398 118.641 134.398 118.977H131.586C131.586 118.477 131.707 117.992 131.949 117.523C132.191 117.055 132.543 116.637 133.004 116.27C133.465 115.902 134.016 115.613 134.656 115.402C135.297 115.191 136.016 115.086 136.812 115.086C137.766 115.086 138.609 115.246 139.344 115.566C140.086 115.887 140.668 116.371 141.09 117.02C141.52 117.66 141.734 118.465 141.734 119.434V125.07C141.734 125.648 141.773 126.168 141.852 126.629C141.938 127.082 142.059 127.477 142.215 127.812V128H139.32C139.188 127.695 139.082 127.309 139.004 126.84C138.934 126.363 138.898 125.902 138.898 125.457ZM139.309 120.289L139.332 122.035H137.305C136.781 122.035 136.32 122.086 135.922 122.188C135.523 122.281 135.191 122.422 134.926 122.609C134.66 122.797 134.461 123.023 134.328 123.289C134.195 123.555 134.129 123.855 134.129 124.191C134.129 124.527 134.207 124.836 134.363 125.117C134.52 125.391 134.746 125.605 135.043 125.762C135.348 125.918 135.715 125.996 136.145 125.996C136.723 125.996 137.227 125.879 137.656 125.645C138.094 125.402 138.438 125.109 138.688 124.766C138.938 124.414 139.07 124.082 139.086 123.77L140 125.023C139.906 125.344 139.746 125.688 139.52 126.055C139.293 126.422 138.996 126.773 138.629 127.109C138.27 127.438 137.836 127.707 137.328 127.918C136.828 128.129 136.25 128.234 135.594 128.234C134.766 128.234 134.027 128.07 133.379 127.742C132.73 127.406 132.223 126.957 131.855 126.395C131.488 125.824 131.305 125.18 131.305 124.461C131.305 123.789 131.43 123.195 131.68 122.68C131.938 122.156 132.312 121.719 132.805 121.367C133.305 121.016 133.914 120.75 134.633 120.57C135.352 120.383 136.172 120.289 137.094 120.289H139.309ZM147.336 125.281L147.324 127.297C147.324 128.094 147.125 128.914 146.727 129.758C146.328 130.602 145.801 131.297 145.145 131.844L143.633 130.965C143.852 130.613 144.051 130.258 144.23 129.898C144.41 129.539 144.555 129.156 144.664 128.75C144.773 128.344 144.828 127.895 144.828 127.402V125.281H147.336ZM155.492 121.801V121.531C155.492 120.617 155.625 119.77 155.891 118.988C156.156 118.199 156.539 117.516 157.039 116.938C157.547 116.352 158.164 115.898 158.891 115.578C159.625 115.25 160.453 115.086 161.375 115.086C162.305 115.086 163.133 115.25 163.859 115.578C164.594 115.898 165.215 116.352 165.723 116.938C166.23 117.516 166.617 118.199 166.883 118.988C167.148 119.77 167.281 120.617 167.281 121.531V121.801C167.281 122.715 167.148 123.562 166.883 124.344C166.617 125.125 166.23 125.809 165.723 126.395C165.215 126.973 164.598 127.426 163.871 127.754C163.145 128.074 162.32 128.234 161.398 128.234C160.469 128.234 159.637 128.074 158.902 127.754C158.176 127.426 157.559 126.973 157.051 126.395C156.543 125.809 156.156 125.125 155.891 124.344C155.625 123.562 155.492 122.715 155.492 121.801ZM158.316 121.531V121.801C158.316 122.371 158.375 122.91 158.492 123.418C158.609 123.926 158.793 124.371 159.043 124.754C159.293 125.137 159.613 125.438 160.004 125.656C160.395 125.875 160.859 125.984 161.398 125.984C161.922 125.984 162.375 125.875 162.758 125.656C163.148 125.438 163.469 125.137 163.719 124.754C163.969 124.371 164.152 123.926 164.27 123.418C164.395 122.91 164.457 122.371 164.457 121.801V121.531C164.457 120.969 164.395 120.438 164.27 119.938C164.152 119.43 163.965 118.98 163.707 118.59C163.457 118.199 163.137 117.895 162.746 117.676C162.363 117.449 161.906 117.336 161.375 117.336C160.844 117.336 160.383 117.449 159.992 117.676C159.609 117.895 159.293 118.199 159.043 118.59C158.793 118.98 158.609 119.43 158.492 119.938C158.375 120.438 158.316 120.969 158.316 121.531ZM172.449 118.027V128H169.625V115.32H172.285L172.449 118.027ZM171.945 121.191L171.031 121.18C171.039 120.281 171.164 119.457 171.406 118.707C171.656 117.957 172 117.312 172.438 116.773C172.883 116.234 173.414 115.82 174.031 115.531C174.648 115.234 175.336 115.086 176.094 115.086C176.703 115.086 177.254 115.172 177.746 115.344C178.246 115.508 178.672 115.777 179.023 116.152C179.383 116.527 179.656 117.016 179.844 117.617C180.031 118.211 180.125 118.941 180.125 119.809V128H177.289V119.797C177.289 119.188 177.199 118.707 177.02 118.355C176.848 117.996 176.594 117.742 176.258 117.594C175.93 117.438 175.52 117.359 175.027 117.359C174.543 117.359 174.109 117.461 173.727 117.664C173.344 117.867 173.02 118.145 172.754 118.496C172.496 118.848 172.297 119.254 172.156 119.715C172.016 120.176 171.945 120.668 171.945 121.191ZM195.723 110.938V128H192.805V110.938H195.723ZM201.078 110.938V113.281H187.496V110.938H201.078ZM206.07 115.32V128H203.234V115.32H206.07ZM203.047 111.992C203.047 111.562 203.188 111.207 203.469 110.926C203.758 110.637 204.156 110.492 204.664 110.492C205.164 110.492 205.559 110.637 205.848 110.926C206.137 111.207 206.281 111.562 206.281 111.992C206.281 112.414 206.137 112.766 205.848 113.047C205.559 113.328 205.164 113.469 204.664 113.469C204.156 113.469 203.758 113.328 203.469 113.047C203.188 112.766 203.047 112.414 203.047 111.992ZM212.188 115.32V128H209.352V115.32H212.188ZM209.164 111.992C209.164 111.562 209.305 111.207 209.586 110.926C209.875 110.637 210.273 110.492 210.781 110.492C211.281 110.492 211.676 110.637 211.965 110.926C212.254 111.207 212.398 111.562 212.398 111.992C212.398 112.414 212.254 112.766 211.965 113.047C211.676 113.328 211.281 113.469 210.781 113.469C210.273 113.469 209.875 113.328 209.586 113.047C209.305 112.766 209.164 112.414 209.164 111.992ZM222.91 125.012V115.32H225.746V128H223.074L222.91 125.012ZM223.309 122.375L224.258 122.352C224.258 123.203 224.164 123.988 223.977 124.707C223.789 125.418 223.5 126.039 223.109 126.57C222.719 127.094 222.219 127.504 221.609 127.801C221 128.09 220.27 128.234 219.418 128.234C218.801 128.234 218.234 128.145 217.719 127.965C217.203 127.785 216.758 127.508 216.383 127.133C216.016 126.758 215.73 126.27 215.527 125.668C215.324 125.066 215.223 124.348 215.223 123.512V115.32H218.047V123.535C218.047 123.996 218.102 124.383 218.211 124.695C218.32 125 218.469 125.246 218.656 125.434C218.844 125.621 219.062 125.754 219.312 125.832C219.562 125.91 219.828 125.949 220.109 125.949C220.914 125.949 221.547 125.793 222.008 125.48C222.477 125.16 222.809 124.73 223.004 124.191C223.207 123.652 223.309 123.047 223.309 122.375ZM238.742 125.762L241.848 115.32H244.777L240.371 128H238.543L238.742 125.762ZM236.363 115.32L239.527 125.809L239.68 128H237.852L233.422 115.32H236.363ZM251.949 128.234C251.012 128.234 250.164 128.082 249.406 127.777C248.656 127.465 248.016 127.031 247.484 126.477C246.961 125.922 246.559 125.27 246.277 124.52C245.996 123.77 245.855 122.961 245.855 122.094V121.625C245.855 120.633 246 119.734 246.289 118.93C246.578 118.125 246.98 117.438 247.496 116.867C248.012 116.289 248.621 115.848 249.324 115.543C250.027 115.238 250.789 115.086 251.609 115.086C252.516 115.086 253.309 115.238 253.988 115.543C254.668 115.848 255.23 116.277 255.676 116.832C256.129 117.379 256.465 118.031 256.684 118.789C256.91 119.547 257.023 120.383 257.023 121.297V122.504H247.227V120.477H254.234V120.254C254.219 119.746 254.117 119.27 253.93 118.824C253.75 118.379 253.473 118.02 253.098 117.746C252.723 117.473 252.223 117.336 251.598 117.336C251.129 117.336 250.711 117.438 250.344 117.641C249.984 117.836 249.684 118.121 249.441 118.496C249.199 118.871 249.012 119.324 248.879 119.855C248.754 120.379 248.691 120.969 248.691 121.625V122.094C248.691 122.648 248.766 123.164 248.914 123.641C249.07 124.109 249.297 124.52 249.594 124.871C249.891 125.223 250.25 125.5 250.672 125.703C251.094 125.898 251.574 125.996 252.113 125.996C252.793 125.996 253.398 125.859 253.93 125.586C254.461 125.312 254.922 124.926 255.312 124.426L256.801 125.867C256.527 126.266 256.172 126.648 255.734 127.016C255.297 127.375 254.762 127.668 254.129 127.895C253.504 128.121 252.777 128.234 251.949 128.234ZM264.816 128.234C263.879 128.234 263.031 128.082 262.273 127.777C261.523 127.465 260.883 127.031 260.352 126.477C259.828 125.922 259.426 125.27 259.145 124.52C258.863 123.77 258.723 122.961 258.723 122.094V121.625C258.723 120.633 258.867 119.734 259.156 118.93C259.445 118.125 259.848 117.438 260.363 116.867C260.879 116.289 261.488 115.848 262.191 115.543C262.895 115.238 263.656 115.086 264.477 115.086C265.383 115.086 266.176 115.238 266.855 115.543C267.535 115.848 268.098 116.277 268.543 116.832C268.996 117.379 269.332 118.031 269.551 118.789C269.777 119.547 269.891 120.383 269.891 121.297V122.504H260.094V120.477H267.102V120.254C267.086 119.746 266.984 119.27 266.797 118.824C266.617 118.379 266.34 118.02 265.965 117.746C265.59 117.473 265.09 117.336 264.465 117.336C263.996 117.336 263.578 117.438 263.211 117.641C262.852 117.836 262.551 118.121 262.309 118.496C262.066 118.871 261.879 119.324 261.746 119.855C261.621 120.379 261.559 120.969 261.559 121.625V122.094C261.559 122.648 261.633 123.164 261.781 123.641C261.938 124.109 262.164 124.52 262.461 124.871C262.758 125.223 263.117 125.5 263.539 125.703C263.961 125.898 264.441 125.996 264.98 125.996C265.66 125.996 266.266 125.859 266.797 125.586C267.328 125.312 267.789 124.926 268.18 124.426L269.668 125.867C269.395 126.266 269.039 126.648 268.602 127.016C268.164 127.375 267.629 127.668 266.996 127.895C266.371 128.121 265.645 128.234 264.816 128.234ZM272.105 110H274.93V125.293L274.66 128H272.105V110ZM283.203 121.543V121.789C283.203 122.727 283.098 123.59 282.887 124.379C282.684 125.16 282.371 125.84 281.949 126.418C281.535 126.996 281.02 127.445 280.402 127.766C279.793 128.078 279.086 128.234 278.281 128.234C277.492 128.234 276.805 128.086 276.219 127.789C275.633 127.492 275.141 127.07 274.742 126.523C274.352 125.977 274.035 125.324 273.793 124.566C273.551 123.809 273.379 122.973 273.277 122.059V121.273C273.379 120.352 273.551 119.516 273.793 118.766C274.035 118.008 274.352 117.355 274.742 116.809C275.141 116.254 275.629 115.828 276.207 115.531C276.793 115.234 277.477 115.086 278.258 115.086C279.07 115.086 279.785 115.242 280.402 115.555C281.027 115.867 281.547 116.312 281.961 116.891C282.375 117.461 282.684 118.141 282.887 118.93C283.098 119.719 283.203 120.59 283.203 121.543ZM280.379 121.789V121.543C280.379 120.973 280.332 120.438 280.238 119.938C280.145 119.43 279.988 118.984 279.77 118.602C279.559 118.219 279.27 117.918 278.902 117.699C278.543 117.473 278.094 117.359 277.555 117.359C277.055 117.359 276.625 117.445 276.266 117.617C275.906 117.789 275.605 118.023 275.363 118.32C275.121 118.617 274.93 118.961 274.789 119.352C274.656 119.742 274.566 120.164 274.52 120.617V122.738C274.59 123.324 274.738 123.863 274.965 124.355C275.199 124.84 275.527 125.23 275.949 125.527C276.371 125.816 276.914 125.961 277.578 125.961C278.102 125.961 278.543 125.855 278.902 125.645C279.262 125.434 279.547 125.141 279.758 124.766C279.977 124.383 280.133 123.938 280.227 123.43C280.328 122.922 280.379 122.375 280.379 121.789ZM288.617 115.32V128H285.781V115.32H288.617ZM285.594 111.992C285.594 111.562 285.734 111.207 286.016 110.926C286.305 110.637 286.703 110.492 287.211 110.492C287.711 110.492 288.105 110.637 288.395 110.926C288.684 111.207 288.828 111.562 288.828 111.992C288.828 112.414 288.684 112.766 288.395 113.047C288.105 113.328 287.711 113.469 287.211 113.469C286.703 113.469 286.305 113.328 286.016 113.047C285.734 112.766 285.594 112.414 285.594 111.992ZM294.547 117.758V132.875H291.723V115.32H294.324L294.547 117.758ZM302.809 121.543V121.789C302.809 122.711 302.699 123.566 302.48 124.355C302.27 125.137 301.953 125.82 301.531 126.406C301.117 126.984 300.605 127.434 299.996 127.754C299.387 128.074 298.684 128.234 297.887 128.234C297.098 128.234 296.406 128.09 295.812 127.801C295.227 127.504 294.73 127.086 294.324 126.547C293.918 126.008 293.59 125.375 293.34 124.648C293.098 123.914 292.926 123.109 292.824 122.234V121.285C292.926 120.355 293.098 119.512 293.34 118.754C293.59 117.996 293.918 117.344 294.324 116.797C294.73 116.25 295.227 115.828 295.812 115.531C296.398 115.234 297.082 115.086 297.863 115.086C298.66 115.086 299.367 115.242 299.984 115.555C300.602 115.859 301.121 116.297 301.543 116.867C301.965 117.43 302.281 118.109 302.492 118.906C302.703 119.695 302.809 120.574 302.809 121.543ZM299.984 121.789V121.543C299.984 120.957 299.93 120.414 299.82 119.914C299.711 119.406 299.539 118.961 299.305 118.578C299.07 118.195 298.77 117.898 298.402 117.688C298.043 117.469 297.609 117.359 297.102 117.359C296.602 117.359 296.172 117.445 295.812 117.617C295.453 117.781 295.152 118.012 294.91 118.309C294.668 118.605 294.48 118.953 294.348 119.352C294.215 119.742 294.121 120.168 294.066 120.629V122.902C294.16 123.465 294.32 123.98 294.547 124.449C294.773 124.918 295.094 125.293 295.508 125.574C295.93 125.848 296.469 125.984 297.125 125.984C297.633 125.984 298.066 125.875 298.426 125.656C298.785 125.438 299.078 125.137 299.305 124.754C299.539 124.363 299.711 123.914 299.82 123.406C299.93 122.898 299.984 122.359 299.984 121.789ZM304.672 121.801V121.531C304.672 120.617 304.805 119.77 305.07 118.988C305.336 118.199 305.719 117.516 306.219 116.938C306.727 116.352 307.344 115.898 308.07 115.578C308.805 115.25 309.633 115.086 310.555 115.086C311.484 115.086 312.312 115.25 313.039 115.578C313.773 115.898 314.395 116.352 314.902 116.938C315.41 117.516 315.797 118.199 316.062 118.988C316.328 119.77 316.461 120.617 316.461 121.531V121.801C316.461 122.715 316.328 123.562 316.062 124.344C315.797 125.125 315.41 125.809 314.902 126.395C314.395 126.973 313.777 127.426 313.051 127.754C312.324 128.074 311.5 128.234 310.578 128.234C309.648 128.234 308.816 128.074 308.082 127.754C307.355 127.426 306.738 126.973 306.23 126.395C305.723 125.809 305.336 125.125 305.07 124.344C304.805 123.562 304.672 122.715 304.672 121.801ZM307.496 121.531V121.801C307.496 122.371 307.555 122.91 307.672 123.418C307.789 123.926 307.973 124.371 308.223 124.754C308.473 125.137 308.793 125.438 309.184 125.656C309.574 125.875 310.039 125.984 310.578 125.984C311.102 125.984 311.555 125.875 311.938 125.656C312.328 125.438 312.648 125.137 312.898 124.754C313.148 124.371 313.332 123.926 313.449 123.418C313.574 122.91 313.637 122.371 313.637 121.801V121.531C313.637 120.969 313.574 120.438 313.449 119.938C313.332 119.43 313.145 118.98 312.887 118.59C312.637 118.199 312.316 117.895 311.926 117.676C311.543 117.449 311.086 117.336 310.555 117.336C310.023 117.336 309.562 117.449 309.172 117.676C308.789 117.895 308.473 118.199 308.223 118.59C307.973 118.98 307.789 119.43 307.672 119.938C307.555 120.438 307.496 120.969 307.496 121.531ZM321.664 117.734V128H318.84V115.32H321.535L321.664 117.734ZM325.543 115.238L325.52 117.863C325.348 117.832 325.16 117.809 324.957 117.793C324.762 117.777 324.566 117.77 324.371 117.77C323.887 117.77 323.461 117.84 323.094 117.98C322.727 118.113 322.418 118.309 322.168 118.566C321.926 118.816 321.738 119.121 321.605 119.48C321.473 119.84 321.395 120.242 321.371 120.688L320.727 120.734C320.727 119.938 320.805 119.199 320.961 118.52C321.117 117.84 321.352 117.242 321.664 116.727C321.984 116.211 322.383 115.809 322.859 115.52C323.344 115.23 323.902 115.086 324.535 115.086C324.707 115.086 324.891 115.102 325.086 115.133C325.289 115.164 325.441 115.199 325.543 115.238ZM333.711 115.32V117.383H326.562V115.32H333.711ZM328.625 112.215H331.449V124.496C331.449 124.887 331.504 125.188 331.613 125.398C331.73 125.602 331.891 125.738 332.094 125.809C332.297 125.879 332.535 125.914 332.809 125.914C333.004 125.914 333.191 125.902 333.371 125.879C333.551 125.855 333.695 125.832 333.805 125.809L333.816 127.965C333.582 128.035 333.309 128.098 332.996 128.152C332.691 128.207 332.34 128.234 331.941 128.234C331.293 128.234 330.719 128.121 330.219 127.895C329.719 127.66 329.328 127.281 329.047 126.758C328.766 126.234 328.625 125.539 328.625 124.672V112.215ZM343.039 125.457V119.41C343.039 118.957 342.957 118.566 342.793 118.238C342.629 117.91 342.379 117.656 342.043 117.477C341.715 117.297 341.301 117.207 340.801 117.207C340.34 117.207 339.941 117.285 339.605 117.441C339.27 117.598 339.008 117.809 338.82 118.074C338.633 118.34 338.539 118.641 338.539 118.977H335.727C335.727 118.477 335.848 117.992 336.09 117.523C336.332 117.055 336.684 116.637 337.145 116.27C337.605 115.902 338.156 115.613 338.797 115.402C339.438 115.191 340.156 115.086 340.953 115.086C341.906 115.086 342.75 115.246 343.484 115.566C344.227 115.887 344.809 116.371 345.23 117.02C345.66 117.66 345.875 118.465 345.875 119.434V125.07C345.875 125.648 345.914 126.168 345.992 126.629C346.078 127.082 346.199 127.477 346.355 127.812V128H343.461C343.328 127.695 343.223 127.309 343.145 126.84C343.074 126.363 343.039 125.902 343.039 125.457ZM343.449 120.289L343.473 122.035H341.445C340.922 122.035 340.461 122.086 340.062 122.188C339.664 122.281 339.332 122.422 339.066 122.609C338.801 122.797 338.602 123.023 338.469 123.289C338.336 123.555 338.27 123.855 338.27 124.191C338.27 124.527 338.348 124.836 338.504 125.117C338.66 125.391 338.887 125.605 339.184 125.762C339.488 125.918 339.855 125.996 340.285 125.996C340.863 125.996 341.367 125.879 341.797 125.645C342.234 125.402 342.578 125.109 342.828 124.766C343.078 124.414 343.211 124.082 343.227 123.77L344.141 125.023C344.047 125.344 343.887 125.688 343.66 126.055C343.434 126.422 343.137 126.773 342.77 127.109C342.41 127.438 341.977 127.707 341.469 127.918C340.969 128.129 340.391 128.234 339.734 128.234C338.906 128.234 338.168 128.07 337.52 127.742C336.871 127.406 336.363 126.957 335.996 126.395C335.629 125.824 335.445 125.18 335.445 124.461C335.445 123.789 335.57 123.195 335.82 122.68C336.078 122.156 336.453 121.719 336.945 121.367C337.445 121.016 338.055 120.75 338.773 120.57C339.492 120.383 340.312 120.289 341.234 120.289H343.449ZM355.977 125.457V119.41C355.977 118.957 355.895 118.566 355.73 118.238C355.566 117.91 355.316 117.656 354.98 117.477C354.652 117.297 354.238 117.207 353.738 117.207C353.277 117.207 352.879 117.285 352.543 117.441C352.207 117.598 351.945 117.809 351.758 118.074C351.57 118.34 351.477 118.641 351.477 118.977H348.664C348.664 118.477 348.785 117.992 349.027 117.523C349.27 117.055 349.621 116.637 350.082 116.27C350.543 115.902 351.094 115.613 351.734 115.402C352.375 115.191 353.094 115.086 353.891 115.086C354.844 115.086 355.688 115.246 356.422 115.566C357.164 115.887 357.746 116.371 358.168 117.02C358.598 117.66 358.812 118.465 358.812 119.434V125.07C358.812 125.648 358.852 126.168 358.93 126.629C359.016 127.082 359.137 127.477 359.293 127.812V128H356.398C356.266 127.695 356.16 127.309 356.082 126.84C356.012 126.363 355.977 125.902 355.977 125.457ZM356.387 120.289L356.41 122.035H354.383C353.859 122.035 353.398 122.086 353 122.188C352.602 122.281 352.27 122.422 352.004 122.609C351.738 122.797 351.539 123.023 351.406 123.289C351.273 123.555 351.207 123.855 351.207 124.191C351.207 124.527 351.285 124.836 351.441 125.117C351.598 125.391 351.824 125.605 352.121 125.762C352.426 125.918 352.793 125.996 353.223 125.996C353.801 125.996 354.305 125.879 354.734 125.645C355.172 125.402 355.516 125.109 355.766 124.766C356.016 124.414 356.148 124.082 356.164 123.77L357.078 125.023C356.984 125.344 356.824 125.688 356.598 126.055C356.371 126.422 356.074 126.773 355.707 127.109C355.348 127.438 354.914 127.707 354.406 127.918C353.906 128.129 353.328 128.234 352.672 128.234C351.844 128.234 351.105 128.07 350.457 127.742C349.809 127.406 349.301 126.957 348.934 126.395C348.566 125.824 348.383 125.18 348.383 124.461C348.383 123.789 348.508 123.195 348.758 122.68C349.016 122.156 349.391 121.719 349.883 121.367C350.383 121.016 350.992 120.75 351.711 120.57C352.43 120.383 353.25 120.289 354.172 120.289H356.387ZM364.789 110V128H361.953V110H364.789ZM381.008 125.457V119.41C381.008 118.957 380.926 118.566 380.762 118.238C380.598 117.91 380.348 117.656 380.012 117.477C379.684 117.297 379.27 117.207 378.77 117.207C378.309 117.207 377.91 117.285 377.574 117.441C377.238 117.598 376.977 117.809 376.789 118.074C376.602 118.34 376.508 118.641 376.508 118.977H373.695C373.695 118.477 373.816 117.992 374.059 117.523C374.301 117.055 374.652 116.637 375.113 116.27C375.574 115.902 376.125 115.613 376.766 115.402C377.406 115.191 378.125 115.086 378.922 115.086C379.875 115.086 380.719 115.246 381.453 115.566C382.195 115.887 382.777 116.371 383.199 117.02C383.629 117.66 383.844 118.465 383.844 119.434V125.07C383.844 125.648 383.883 126.168 383.961 126.629C384.047 127.082 384.168 127.477 384.324 127.812V128H381.43C381.297 127.695 381.191 127.309 381.113 126.84C381.043 126.363 381.008 125.902 381.008 125.457ZM381.418 120.289L381.441 122.035H379.414C378.891 122.035 378.43 122.086 378.031 122.188C377.633 122.281 377.301 122.422 377.035 122.609C376.77 122.797 376.57 123.023 376.438 123.289C376.305 123.555 376.238 123.855 376.238 124.191C376.238 124.527 376.316 124.836 376.473 125.117C376.629 125.391 376.855 125.605 377.152 125.762C377.457 125.918 377.824 125.996 378.254 125.996C378.832 125.996 379.336 125.879 379.766 125.645C380.203 125.402 380.547 125.109 380.797 124.766C381.047 124.414 381.18 124.082 381.195 123.77L382.109 125.023C382.016 125.344 381.855 125.688 381.629 126.055C381.402 126.422 381.105 126.773 380.738 127.109C380.379 127.438 379.945 127.707 379.438 127.918C378.938 128.129 378.359 128.234 377.703 128.234C376.875 128.234 376.137 128.07 375.488 127.742C374.84 127.406 374.332 126.957 373.965 126.395C373.598 125.824 373.414 125.18 373.414 124.461C373.414 123.789 373.539 123.195 373.789 122.68C374.047 122.156 374.422 121.719 374.914 121.367C375.414 121.016 376.023 120.75 376.742 120.57C377.461 120.383 378.281 120.289 379.203 120.289H381.418ZM389.82 110V128H386.984V110H389.82ZM400.062 125.457V119.41C400.062 118.957 399.98 118.566 399.816 118.238C399.652 117.91 399.402 117.656 399.066 117.477C398.738 117.297 398.324 117.207 397.824 117.207C397.363 117.207 396.965 117.285 396.629 117.441C396.293 117.598 396.031 117.809 395.844 118.074C395.656 118.34 395.562 118.641 395.562 118.977H392.75C392.75 118.477 392.871 117.992 393.113 117.523C393.355 117.055 393.707 116.637 394.168 116.27C394.629 115.902 395.18 115.613 395.82 115.402C396.461 115.191 397.18 115.086 397.977 115.086C398.93 115.086 399.773 115.246 400.508 115.566C401.25 115.887 401.832 116.371 402.254 117.02C402.684 117.66 402.898 118.465 402.898 119.434V125.07C402.898 125.648 402.938 126.168 403.016 126.629C403.102 127.082 403.223 127.477 403.379 127.812V128H400.484C400.352 127.695 400.246 127.309 400.168 126.84C400.098 126.363 400.062 125.902 400.062 125.457ZM400.473 120.289L400.496 122.035H398.469C397.945 122.035 397.484 122.086 397.086 122.188C396.688 122.281 396.355 122.422 396.09 122.609C395.824 122.797 395.625 123.023 395.492 123.289C395.359 123.555 395.293 123.855 395.293 124.191C395.293 124.527 395.371 124.836 395.527 125.117C395.684 125.391 395.91 125.605 396.207 125.762C396.512 125.918 396.879 125.996 397.309 125.996C397.887 125.996 398.391 125.879 398.82 125.645C399.258 125.402 399.602 125.109 399.852 124.766C400.102 124.414 400.234 124.082 400.25 123.77L401.164 125.023C401.07 125.344 400.91 125.688 400.684 126.055C400.457 126.422 400.16 126.773 399.793 127.109C399.434 127.438 399 127.707 398.492 127.918C397.992 128.129 397.414 128.234 396.758 128.234C395.93 128.234 395.191 128.07 394.543 127.742C393.895 127.406 393.387 126.957 393.02 126.395C392.652 125.824 392.469 125.18 392.469 124.461C392.469 123.789 392.594 123.195 392.844 122.68C393.102 122.156 393.477 121.719 393.969 121.367C394.469 121.016 395.078 120.75 395.797 120.57C396.516 120.383 397.336 120.289 398.258 120.289H400.473ZM411.664 115.32V117.383H404.516V115.32H411.664ZM406.578 112.215H409.402V124.496C409.402 124.887 409.457 125.188 409.566 125.398C409.684 125.602 409.844 125.738 410.047 125.809C410.25 125.879 410.488 125.914 410.762 125.914C410.957 125.914 411.145 125.902 411.324 125.879C411.504 125.855 411.648 125.832 411.758 125.809L411.77 127.965C411.535 128.035 411.262 128.098 410.949 128.152C410.645 128.207 410.293 128.234 409.895 128.234C409.246 128.234 408.672 128.121 408.172 127.895C407.672 127.66 407.281 127.281 407 126.758C406.719 126.234 406.578 125.539 406.578 124.672V112.215ZM416.867 115.32V128H414.031V115.32H416.867ZM413.844 111.992C413.844 111.562 413.984 111.207 414.266 110.926C414.555 110.637 414.953 110.492 415.461 110.492C415.961 110.492 416.355 110.637 416.645 110.926C416.934 111.207 417.078 111.562 417.078 111.992C417.078 112.414 416.934 112.766 416.645 113.047C416.355 113.328 415.961 113.469 415.461 113.469C414.953 113.469 414.555 113.328 414.266 113.047C413.984 112.766 413.844 112.414 413.844 111.992ZM425.398 121.801V121.531C425.398 120.617 425.531 119.77 425.797 118.988C426.062 118.199 426.445 117.516 426.945 116.938C427.453 116.352 428.07 115.898 428.797 115.578C429.531 115.25 430.359 115.086 431.281 115.086C432.211 115.086 433.039 115.25 433.766 115.578C434.5 115.898 435.121 116.352 435.629 116.938C436.137 117.516 436.523 118.199 436.789 118.988C437.055 119.77 437.188 120.617 437.188 121.531V121.801C437.188 122.715 437.055 123.562 436.789 124.344C436.523 125.125 436.137 125.809 435.629 126.395C435.121 126.973 434.504 127.426 433.777 127.754C433.051 128.074 432.227 128.234 431.305 128.234C430.375 128.234 429.543 128.074 428.809 127.754C428.082 127.426 427.465 126.973 426.957 126.395C426.449 125.809 426.062 125.125 425.797 124.344C425.531 123.562 425.398 122.715 425.398 121.801ZM428.223 121.531V121.801C428.223 122.371 428.281 122.91 428.398 123.418C428.516 123.926 428.699 124.371 428.949 124.754C429.199 125.137 429.52 125.438 429.91 125.656C430.301 125.875 430.766 125.984 431.305 125.984C431.828 125.984 432.281 125.875 432.664 125.656C433.055 125.438 433.375 125.137 433.625 124.754C433.875 124.371 434.059 123.926 434.176 123.418C434.301 122.91 434.363 122.371 434.363 121.801V121.531C434.363 120.969 434.301 120.438 434.176 119.938C434.059 119.43 433.871 118.98 433.613 118.59C433.363 118.199 433.043 117.895 432.652 117.676C432.27 117.449 431.812 117.336 431.281 117.336C430.75 117.336 430.289 117.449 429.898 117.676C429.516 117.895 429.199 118.199 428.949 118.59C428.699 118.98 428.516 119.43 428.398 119.938C428.281 120.438 428.223 120.969 428.223 121.531ZM442.578 110V128H439.742V110H442.578ZM451.262 128.234C450.324 128.234 449.477 128.082 448.719 127.777C447.969 127.465 447.328 127.031 446.797 126.477C446.273 125.922 445.871 125.27 445.59 124.52C445.309 123.77 445.168 122.961 445.168 122.094V121.625C445.168 120.633 445.312 119.734 445.602 118.93C445.891 118.125 446.293 117.438 446.809 116.867C447.324 116.289 447.934 115.848 448.637 115.543C449.34 115.238 450.102 115.086 450.922 115.086C451.828 115.086 452.621 115.238 453.301 115.543C453.98 115.848 454.543 116.277 454.988 116.832C455.441 117.379 455.777 118.031 455.996 118.789C456.223 119.547 456.336 120.383 456.336 121.297V122.504H446.539V120.477H453.547V120.254C453.531 119.746 453.43 119.27 453.242 118.824C453.062 118.379 452.785 118.02 452.41 117.746C452.035 117.473 451.535 117.336 450.91 117.336C450.441 117.336 450.023 117.438 449.656 117.641C449.297 117.836 448.996 118.121 448.754 118.496C448.512 118.871 448.324 119.324 448.191 119.855C448.066 120.379 448.004 120.969 448.004 121.625V122.094C448.004 122.648 448.078 123.164 448.227 123.641C448.383 124.109 448.609 124.52 448.906 124.871C449.203 125.223 449.562 125.5 449.984 125.703C450.406 125.898 450.887 125.996 451.426 125.996C452.105 125.996 452.711 125.859 453.242 125.586C453.773 125.312 454.234 124.926 454.625 124.426L456.113 125.867C455.84 126.266 455.484 126.648 455.047 127.016C454.609 127.375 454.074 127.668 453.441 127.895C452.816 128.121 452.09 128.234 451.262 128.234ZM461.363 117.898V128H458.539V115.32H461.199L461.363 117.898ZM460.906 121.191L459.945 121.18C459.945 120.305 460.055 119.496 460.273 118.754C460.492 118.012 460.812 117.367 461.234 116.82C461.656 116.266 462.18 115.84 462.805 115.543C463.438 115.238 464.168 115.086 464.996 115.086C465.574 115.086 466.102 115.172 466.578 115.344C467.062 115.508 467.48 115.77 467.832 116.129C468.191 116.488 468.465 116.949 468.652 117.512C468.848 118.074 468.945 118.754 468.945 119.551V128H466.121V119.797C466.121 119.18 466.027 118.695 465.84 118.344C465.66 117.992 465.398 117.742 465.055 117.594C464.719 117.438 464.316 117.359 463.848 117.359C463.316 117.359 462.863 117.461 462.488 117.664C462.121 117.867 461.82 118.145 461.586 118.496C461.352 118.848 461.18 119.254 461.07 119.715C460.961 120.176 460.906 120.668 460.906 121.191ZM468.77 120.441L467.445 120.734C467.445 119.969 467.551 119.246 467.762 118.566C467.98 117.879 468.297 117.277 468.711 116.762C469.133 116.238 469.652 115.828 470.27 115.531C470.887 115.234 471.594 115.086 472.391 115.086C473.039 115.086 473.617 115.176 474.125 115.355C474.641 115.527 475.078 115.801 475.438 116.176C475.797 116.551 476.07 117.039 476.258 117.641C476.445 118.234 476.539 118.953 476.539 119.797V128H473.703V119.785C473.703 119.145 473.609 118.648 473.422 118.297C473.242 117.945 472.984 117.703 472.648 117.57C472.312 117.43 471.91 117.359 471.441 117.359C471.004 117.359 470.617 117.441 470.281 117.605C469.953 117.762 469.676 117.984 469.449 118.273C469.223 118.555 469.051 118.879 468.934 119.246C468.824 119.613 468.77 120.012 468.77 120.441ZM486.594 125.457V119.41C486.594 118.957 486.512 118.566 486.348 118.238C486.184 117.91 485.934 117.656 485.598 117.477C485.27 117.297 484.855 117.207 484.355 117.207C483.895 117.207 483.496 117.285 483.16 117.441C482.824 117.598 482.562 117.809 482.375 118.074C482.188 118.34 482.094 118.641 482.094 118.977H479.281C479.281 118.477 479.402 117.992 479.645 117.523C479.887 117.055 480.238 116.637 480.699 116.27C481.16 115.902 481.711 115.613 482.352 115.402C482.992 115.191 483.711 115.086 484.508 115.086C485.461 115.086 486.305 115.246 487.039 115.566C487.781 115.887 488.363 116.371 488.785 117.02C489.215 117.66 489.43 118.465 489.43 119.434V125.07C489.43 125.648 489.469 126.168 489.547 126.629C489.633 127.082 489.754 127.477 489.91 127.812V128H487.016C486.883 127.695 486.777 127.309 486.699 126.84C486.629 126.363 486.594 125.902 486.594 125.457ZM487.004 120.289L487.027 122.035H485C484.477 122.035 484.016 122.086 483.617 122.188C483.219 122.281 482.887 122.422 482.621 122.609C482.355 122.797 482.156 123.023 482.023 123.289C481.891 123.555 481.824 123.855 481.824 124.191C481.824 124.527 481.902 124.836 482.059 125.117C482.215 125.391 482.441 125.605 482.738 125.762C483.043 125.918 483.41 125.996 483.84 125.996C484.418 125.996 484.922 125.879 485.352 125.645C485.789 125.402 486.133 125.109 486.383 124.766C486.633 124.414 486.766 124.082 486.781 123.77L487.695 125.023C487.602 125.344 487.441 125.688 487.215 126.055C486.988 126.422 486.691 126.773 486.324 127.109C485.965 127.438 485.531 127.707 485.023 127.918C484.523 128.129 483.945 128.234 483.289 128.234C482.461 128.234 481.723 128.07 481.074 127.742C480.426 127.406 479.918 126.957 479.551 126.395C479.184 125.824 479 125.18 479 124.461C479 123.789 479.125 123.195 479.375 122.68C479.633 122.156 480.008 121.719 480.5 121.367C481 121.016 481.609 120.75 482.328 120.57C483.047 120.383 483.867 120.289 484.789 120.289H487.004ZM499.496 124.566C499.496 124.285 499.426 124.031 499.285 123.805C499.145 123.57 498.875 123.359 498.477 123.172C498.086 122.984 497.508 122.812 496.742 122.656C496.07 122.508 495.453 122.332 494.891 122.129C494.336 121.918 493.859 121.664 493.461 121.367C493.062 121.07 492.754 120.719 492.535 120.312C492.316 119.906 492.207 119.438 492.207 118.906C492.207 118.391 492.32 117.902 492.547 117.441C492.773 116.98 493.098 116.574 493.52 116.223C493.941 115.871 494.453 115.594 495.055 115.391C495.664 115.188 496.344 115.086 497.094 115.086C498.156 115.086 499.066 115.266 499.824 115.625C500.59 115.977 501.176 116.457 501.582 117.066C501.988 117.668 502.191 118.348 502.191 119.105H499.367C499.367 118.77 499.281 118.457 499.109 118.168C498.945 117.871 498.695 117.633 498.359 117.453C498.023 117.266 497.602 117.172 497.094 117.172C496.609 117.172 496.207 117.25 495.887 117.406C495.574 117.555 495.34 117.75 495.184 117.992C495.035 118.234 494.961 118.5 494.961 118.789C494.961 119 495 119.191 495.078 119.363C495.164 119.527 495.305 119.68 495.5 119.82C495.695 119.953 495.961 120.078 496.297 120.195C496.641 120.312 497.07 120.426 497.586 120.535C498.555 120.738 499.387 121 500.082 121.32C500.785 121.633 501.324 122.039 501.699 122.539C502.074 123.031 502.262 123.656 502.262 124.414C502.262 124.977 502.141 125.492 501.898 125.961C501.664 126.422 501.32 126.824 500.867 127.168C500.414 127.504 499.871 127.766 499.238 127.953C498.613 128.141 497.91 128.234 497.129 128.234C495.98 128.234 495.008 128.031 494.211 127.625C493.414 127.211 492.809 126.684 492.395 126.043C491.988 125.395 491.785 124.723 491.785 124.027H494.516C494.547 124.551 494.691 124.969 494.949 125.281C495.215 125.586 495.543 125.809 495.934 125.949C496.332 126.082 496.742 126.148 497.164 126.148C497.672 126.148 498.098 126.082 498.441 125.949C498.785 125.809 499.047 125.621 499.227 125.387C499.406 125.145 499.496 124.871 499.496 124.566ZM504.852 126.594C504.852 126.156 505 125.789 505.297 125.492C505.594 125.188 505.996 125.035 506.504 125.035C507.02 125.035 507.422 125.188 507.711 125.492C508.008 125.789 508.156 126.156 508.156 126.594C508.156 127.031 508.008 127.398 507.711 127.695C507.422 127.992 507.02 128.141 506.504 128.141C505.996 128.141 505.594 127.992 505.297 127.695C505 127.398 504.852 127.031 504.852 126.594Z" fill="#461102"/>
<path d="M47.576 181.658C50.656 181.658 53.318 182.23 55.562 183.374C57.806 184.474 59.5 185.992 60.644 187.928C61.832 189.82 62.426 191.932 62.426 194.264C62.426 196.684 61.898 199.016 60.842 201.26C59.83 203.504 58.07 206.034 55.562 208.85C53.098 211.666 49.49 215.296 44.738 219.74H63.416L62.36 227H34.046V220.202C39.59 214.658 43.594 210.522 46.058 207.794C48.522 205.066 50.26 202.756 51.272 200.864C52.284 198.972 52.79 197.036 52.79 195.056C52.79 193.164 52.24 191.668 51.14 190.568C50.04 189.468 48.566 188.918 46.718 188.918C45.09 188.918 43.638 189.292 42.362 190.04C41.086 190.744 39.744 191.932 38.336 193.604L32.726 189.116C36.51 184.144 41.46 181.658 47.576 181.658ZM97.9907 212.282C98.6067 215.318 99.7287 217.54 101.357 218.948C103.029 220.356 105.251 221.06 108.023 221.06C110.971 221.06 114.139 220.136 117.527 218.288V225.548C115.723 226.384 114.007 227 112.379 227.396C110.751 227.836 108.969 228.056 107.033 228.056C102.061 228.056 97.9687 226.692 94.7567 223.964C91.5887 221.192 89.4987 217.298 88.4867 212.282H82.7447L84.0647 207.2H88.2227V202.25H82.7447L84.0647 197.102H88.5527C89.7847 192.306 92.0727 188.544 95.4167 185.816C98.8047 183.044 102.787 181.658 107.363 181.658C111.939 181.658 116.075 182.912 119.771 185.42L116.405 191.228C114.997 190.304 113.611 189.644 112.247 189.248C110.883 188.808 109.365 188.588 107.693 188.588C105.405 188.588 103.447 189.292 101.819 190.7C100.191 192.108 98.9807 194.242 98.1887 197.102H114.359L113.039 202.25H97.7267V207.2H111.983L110.729 212.282H97.9907Z" fill="#E3000F"/>
<path d="M147.916 211.156V214H134.436V211.566L140.902 204.58C141.577 203.814 142.11 203.149 142.502 202.584C142.894 202.019 143.172 201.508 143.336 201.053C143.509 200.588 143.596 200.146 143.596 199.727C143.596 199.116 143.486 198.583 143.268 198.127C143.049 197.662 142.73 197.302 142.311 197.047C141.9 196.792 141.395 196.664 140.793 196.664C140.128 196.664 139.558 196.819 139.084 197.129C138.619 197.43 138.264 197.849 138.018 198.387C137.781 198.924 137.662 199.54 137.662 200.232H134.039C134.039 199.057 134.312 197.986 134.859 197.02C135.406 196.044 136.19 195.265 137.211 194.682C138.232 194.098 139.444 193.807 140.848 193.807C142.215 193.807 143.372 194.035 144.32 194.49C145.268 194.937 145.988 195.575 146.48 196.404C146.973 197.234 147.219 198.223 147.219 199.371C147.219 200.009 147.114 200.638 146.904 201.258C146.695 201.878 146.398 202.493 146.016 203.104C145.642 203.705 145.195 204.316 144.676 204.936C144.156 205.555 143.577 206.189 142.939 206.836L139.057 211.156H147.916ZM161.205 192.986V214H157.596V192.986H161.205ZM170.475 199.207L164.035 206.439L160.549 209.98L159.4 207.178L162.094 203.787L166.113 199.207H170.475ZM166.783 214L162.203 207.109L164.609 204.771L170.967 214H166.783ZM181.193 210.486V199.207H184.83V214H181.412L181.193 210.486ZM181.658 207.424L182.779 207.396C182.779 208.39 182.67 209.306 182.451 210.145C182.232 210.983 181.891 211.712 181.426 212.332C180.97 212.943 180.391 213.421 179.689 213.768C178.988 214.105 178.158 214.273 177.201 214.273C176.472 214.273 175.807 214.173 175.205 213.973C174.604 213.763 174.084 213.439 173.646 213.002C173.218 212.555 172.885 211.986 172.648 211.293C172.411 210.591 172.293 209.748 172.293 208.764V199.207H175.902V208.791C175.902 209.283 175.957 209.693 176.066 210.021C176.185 210.35 176.344 210.618 176.545 210.828C176.755 211.029 176.996 211.174 177.27 211.266C177.552 211.348 177.853 211.389 178.172 211.389C179.047 211.389 179.735 211.215 180.236 210.869C180.747 210.514 181.111 210.04 181.33 209.447C181.549 208.846 181.658 208.171 181.658 207.424ZM196.834 210.486V199.207H200.471V214H197.053L196.834 210.486ZM197.299 207.424L198.42 207.396C198.42 208.39 198.311 209.306 198.092 210.145C197.873 210.983 197.531 211.712 197.066 212.332C196.611 212.943 196.032 213.421 195.33 213.768C194.628 214.105 193.799 214.273 192.842 214.273C192.113 214.273 191.447 214.173 190.846 213.973C190.244 213.763 189.725 213.439 189.287 213.002C188.859 212.555 188.526 211.986 188.289 211.293C188.052 210.591 187.934 209.748 187.934 208.764V199.207H191.543V208.791C191.543 209.283 191.598 209.693 191.707 210.021C191.826 210.35 191.985 210.618 192.186 210.828C192.395 211.029 192.637 211.174 192.91 211.266C193.193 211.348 193.493 211.389 193.812 211.389C194.688 211.389 195.376 211.215 195.877 210.869C196.387 210.514 196.752 210.04 196.971 209.447C197.189 208.846 197.299 208.171 197.299 207.424ZM212.543 210.855V193H216.18V214H212.898L212.543 210.855ZM203.041 206.781V206.494C203.041 205.364 203.169 204.339 203.424 203.418C203.688 202.488 204.071 201.691 204.572 201.025C205.074 200.36 205.68 199.845 206.391 199.48C207.111 199.116 207.926 198.934 208.838 198.934C209.722 198.934 210.492 199.111 211.148 199.467C211.814 199.822 212.379 200.328 212.844 200.984C213.318 201.641 213.696 202.42 213.979 203.322C214.261 204.215 214.466 205.2 214.594 206.275V207.055C214.466 208.103 214.261 209.064 213.979 209.939C213.696 210.814 213.318 211.58 212.844 212.236C212.379 212.883 211.814 213.385 211.148 213.74C210.483 214.096 209.704 214.273 208.811 214.273C207.908 214.273 207.097 214.087 206.377 213.713C205.666 213.339 205.06 212.815 204.559 212.141C204.066 211.466 203.688 210.673 203.424 209.762C203.169 208.85 203.041 207.857 203.041 206.781ZM206.664 206.494V206.781C206.664 207.419 206.719 208.016 206.828 208.572C206.938 209.128 207.115 209.62 207.361 210.049C207.607 210.468 207.922 210.796 208.305 211.033C208.697 211.27 209.171 211.389 209.727 211.389C210.438 211.389 211.021 211.234 211.477 210.924C211.941 210.605 212.301 210.172 212.557 209.625C212.812 209.069 212.976 208.445 213.049 207.752V205.605C213.012 205.059 212.917 204.553 212.762 204.088C212.616 203.623 212.406 203.222 212.133 202.885C211.868 202.548 211.54 202.283 211.148 202.092C210.757 201.9 210.292 201.805 209.754 201.805C209.198 201.805 208.724 201.928 208.332 202.174C207.94 202.411 207.621 202.743 207.375 203.172C207.129 203.6 206.947 204.097 206.828 204.662C206.719 205.227 206.664 205.838 206.664 206.494Z" fill="#461102"/>
<rect x="291" y="176" width="277" height="56" rx="14" fill="#E3000F"/>
<path d="M334.092 194.096L333.644 197.624H328.856V213.5H324.264V197.624H319.252V194.096H334.092ZM347.841 194.096L347.365 197.372H340.533V202.02H346.497V205.24H340.533V210.196H347.841V213.5H335.941V194.096H347.841ZM355.271 194.096V209.86H362.831L362.355 213.5H350.679V194.096H355.271ZM369.627 194.096V209.86H377.187L376.711 213.5H365.035V194.096H369.627ZM383.982 194.096V213.5H379.39V194.096H383.982ZM399.642 194.096C402.685 194.096 405.121 194.787 406.95 196.168C408.798 197.531 409.722 200.041 409.722 203.7C409.722 207.303 408.826 209.841 407.034 211.316C405.242 212.772 402.918 213.5 400.062 213.5H394.238V194.096H399.642ZM398.83 197.428V210.168H400.342C401.854 210.168 403.002 209.701 403.786 208.768C404.57 207.816 404.962 206.127 404.962 203.7C404.962 202.039 404.766 200.751 404.374 199.836C403.982 198.921 403.45 198.296 402.778 197.96C402.106 197.605 401.275 197.428 400.286 197.428H398.83ZM417.068 194.096V213.5H412.476V194.096H417.068ZM429.079 193.62C431.581 193.62 433.737 194.413 435.547 196L433.223 198.436C432.533 197.913 431.889 197.54 431.291 197.316C430.713 197.073 430.041 196.952 429.275 196.952C427.838 196.952 426.69 197.521 425.831 198.66C424.973 199.78 424.543 201.488 424.543 203.784C424.543 206.267 424.87 208.031 425.523 209.076C426.177 210.103 427.194 210.616 428.575 210.616C429.546 210.616 430.423 210.401 431.207 209.972V205.576H428.687L428.239 202.328H435.659V211.932C434.651 212.585 433.541 213.089 432.327 213.444C431.114 213.799 429.901 213.976 428.687 213.976C425.738 213.976 423.517 213.117 422.023 211.4C420.53 209.664 419.783 207.125 419.783 203.784C419.783 201.656 420.185 199.827 420.987 198.296C421.809 196.765 422.919 195.608 424.319 194.824C425.738 194.021 427.325 193.62 429.079 193.62ZM443.318 194.096V213.5H438.726V194.096H443.318ZM453.201 194.096C455.759 194.096 457.747 194.628 459.165 195.692C460.584 196.756 461.293 198.333 461.293 200.424C461.293 202.608 460.593 204.26 459.193 205.38C457.812 206.481 455.955 207.032 453.621 207.032H451.521V213.5H446.929V194.096H453.201ZM453.229 203.728C454.312 203.728 455.133 203.476 455.693 202.972C456.272 202.449 456.561 201.6 456.561 200.424C456.561 198.389 455.423 197.372 453.145 197.372H451.521V203.728H453.229ZM472.27 213.5L471.262 209.328H465.606L464.626 213.5H459.866L465.718 194.096H471.29L477.142 213.5H472.27ZM466.39 205.996H470.478L468.434 197.428L466.39 205.996ZM483.158 194.096V213.5H478.566V194.096H483.158ZM494.302 194.096L488.114 202.804L494.806 213.5H489.486L483.298 203.14L489.458 194.096H494.302ZM508.185 194.096L507.709 197.372H500.877V202.02H506.841V205.24H500.877V210.196H508.185V213.5H496.285V194.096H508.185ZM524.295 194.096L523.847 197.624H519.059V213.5H514.467V197.624H509.455V194.096H524.295ZM539.416 194.096L538.968 197.624H534.18V213.5H529.588V197.624H524.576V194.096H539.416Z" fill="#FFE80D"/>
</svg>
