<svg width="600" height="260" viewBox="0 0 600 260" fill="none" xmlns="http://www.w3.org/2000/svg">
<path d="M53.24 44.792C53.24 46.496 52.88 48.008 52.16 49.328C51.44 50.648 50.36 51.692 48.92 52.46C47.504 53.204 45.776 53.576 43.736 53.576C40.664 53.576 38.312 52.784 36.68 51.2C35.072 49.592 34.268 47.456 34.268 44.792V28.088H39.56V44.54C39.56 46.22 39.896 47.48 40.568 48.32C41.24 49.136 42.296 49.544 43.736 49.544C45.176 49.544 46.232 49.136 46.904 48.32C47.6 47.48 47.948 46.22 47.948 44.54V28.088H53.24V44.792ZM73.6987 53H69.2707L69.0187 50.444C68.3467 51.5 67.5307 52.292 66.5707 52.82C65.6107 53.324 64.4947 53.576 63.2227 53.576C61.4947 53.576 60.1747 53.06 59.2627 52.028C58.3507 50.972 57.8947 49.508 57.8947 47.636V33.92H63.0067V46.988C63.0067 47.996 63.1747 48.716 63.5107 49.148C63.8467 49.556 64.3747 49.76 65.0947 49.76C66.4627 49.76 67.6267 48.932 68.5867 47.276V33.92H73.6987V53ZM94.8746 43.028C94.8746 43.268 94.8386 43.928 94.7666 45.008H82.8506C83.0186 46.736 83.4866 47.96 84.2546 48.68C85.0226 49.4 86.0666 49.76 87.3866 49.76C88.2026 49.76 88.9706 49.628 89.6906 49.364C90.4106 49.1 91.1906 48.68 92.0306 48.104L94.1546 50.984C92.0186 52.712 89.6066 53.576 86.9186 53.576C83.9186 53.576 81.6146 52.676 80.0066 50.876C78.3986 49.076 77.5946 46.64 77.5946 43.568C77.5946 41.624 77.9306 39.884 78.6026 38.348C79.2986 36.788 80.2946 35.564 81.5906 34.676C82.9106 33.788 84.4706 33.344 86.2706 33.344C88.9826 33.344 91.0946 34.196 92.6066 35.9C94.1186 37.604 94.8746 39.98 94.8746 43.028ZM89.7986 41.588C89.7986 38.42 88.6586 36.836 86.3786 36.836C85.3226 36.836 84.4946 37.232 83.8946 38.024C83.3186 38.792 82.9706 40.052 82.8506 41.804H89.7986V41.588ZM103.327 53.576C101.767 53.576 100.555 53.132 99.6907 52.244C98.8267 51.332 98.3947 50.048 98.3947 48.392V26.324L103.507 25.748V48.248C103.507 49.088 103.855 49.508 104.551 49.508C104.935 49.508 105.271 49.436 105.559 49.292L106.603 52.928C105.619 53.36 104.527 53.576 103.327 53.576ZM132.596 47.708C132.596 48.452 132.704 49.004 132.92 49.364C133.136 49.7 133.496 49.952 134 50.12L132.92 53.504C131.792 53.408 130.868 53.144 130.148 52.712C129.452 52.28 128.912 51.608 128.528 50.696C127.28 52.616 125.372 53.576 122.804 53.576C120.908 53.576 119.396 53.036 118.268 51.956C117.164 50.852 116.612 49.424 116.612 47.672C116.612 45.584 117.368 43.988 118.88 42.884C120.392 41.78 122.564 41.228 125.396 41.228H127.592V40.292C127.592 39.116 127.328 38.3 126.8 37.844C126.272 37.388 125.396 37.16 124.172 37.16C122.828 37.16 121.148 37.496 119.132 38.168L117.98 34.748C120.356 33.812 122.708 33.344 125.036 33.344C127.628 33.344 129.536 33.908 130.76 35.036C131.984 36.14 132.596 37.796 132.596 40.004V47.708ZM124.208 49.904C125.648 49.904 126.776 49.196 127.592 47.78V44.144H125.9C123.14 44.144 121.76 45.176 121.76 47.24C121.76 48.08 121.964 48.74 122.372 49.22C122.804 49.676 123.416 49.904 124.208 49.904ZM152.108 47.708C152.108 48.452 152.216 49.004 152.432 49.364C152.648 49.7 153.008 49.952 153.512 50.12L152.432 53.504C151.304 53.408 150.38 53.144 149.66 52.712C148.964 52.28 148.424 51.608 148.04 50.696C146.792 52.616 144.884 53.576 142.316 53.576C140.42 53.576 138.908 53.036 137.78 51.956C136.676 50.852 136.124 49.424 136.124 47.672C136.124 45.584 136.88 43.988 138.392 42.884C139.904 41.78 142.076 41.228 144.908 41.228H147.104V40.292C147.104 39.116 146.84 38.3 146.312 37.844C145.784 37.388 144.908 37.16 143.684 37.16C142.34 37.16 140.66 37.496 138.644 38.168L137.492 34.748C139.868 33.812 142.22 33.344 144.548 33.344C147.14 33.344 149.048 33.908 150.272 35.036C151.496 36.14 152.108 37.796 152.108 40.004V47.708ZM143.72 49.904C145.16 49.904 146.288 49.196 147.104 47.78V44.144H145.412C142.652 44.144 141.272 45.176 141.272 47.24C141.272 48.08 141.476 48.74 141.884 49.22C142.316 49.676 142.928 49.904 143.72 49.904ZM163.2 33.344C165.888 33.344 168.192 34.112 170.112 35.648L168.168 38.564C166.56 37.556 164.976 37.052 163.416 37.052C162.576 37.052 161.928 37.208 161.472 37.52C161.016 37.832 160.788 38.252 160.788 38.78C160.788 39.164 160.884 39.488 161.076 39.752C161.292 40.016 161.676 40.268 162.228 40.508C162.804 40.748 163.656 41.036 164.784 41.372C166.8 41.924 168.3 42.668 169.284 43.604C170.268 44.516 170.76 45.776 170.76 47.384C170.76 48.656 170.388 49.76 169.644 50.696C168.924 51.632 167.94 52.352 166.692 52.856C165.444 53.336 164.052 53.576 162.516 53.576C160.908 53.576 159.444 53.336 158.124 52.856C156.804 52.352 155.676 51.668 154.74 50.804L157.26 47.996C158.868 49.244 160.572 49.868 162.372 49.868C163.332 49.868 164.088 49.688 164.64 49.328C165.216 48.944 165.504 48.428 165.504 47.78C165.504 47.276 165.396 46.88 165.18 46.592C164.964 46.304 164.568 46.04 163.992 45.8C163.416 45.536 162.516 45.236 161.292 44.9C159.372 44.372 157.944 43.628 157.008 42.668C156.096 41.684 155.64 40.472 155.64 39.032C155.64 37.952 155.952 36.98 156.576 36.116C157.2 35.252 158.076 34.58 159.204 34.1C160.356 33.596 161.688 33.344 163.2 33.344ZM185.502 52.1C184.806 52.58 184.014 52.94 183.126 53.18C182.262 53.444 181.398 53.576 180.534 53.576C178.566 53.552 177.078 52.988 176.07 51.884C175.062 50.78 174.558 49.16 174.558 47.024V37.52H171.714V33.92H174.558V29.744L179.67 29.132V33.92H184.062L183.558 37.52H179.67V46.916C179.67 47.828 179.826 48.488 180.138 48.896C180.45 49.304 180.93 49.508 181.578 49.508C182.226 49.508 182.946 49.292 183.738 48.86L185.502 52.1ZM201.959 47.708C201.959 48.452 202.067 49.004 202.283 49.364C202.499 49.7 202.859 49.952 203.363 50.12L202.283 53.504C201.155 53.408 200.231 53.144 199.511 52.712C198.815 52.28 198.275 51.608 197.891 50.696C196.643 52.616 194.735 53.576 192.167 53.576C190.271 53.576 188.759 53.036 187.631 51.956C186.527 50.852 185.975 49.424 185.975 47.672C185.975 45.584 186.731 43.988 188.243 42.884C189.755 41.78 191.927 41.228 194.759 41.228H196.955V40.292C196.955 39.116 196.691 38.3 196.163 37.844C195.635 37.388 194.759 37.16 193.535 37.16C192.191 37.16 190.511 37.496 188.495 38.168L187.343 34.748C189.719 33.812 192.071 33.344 194.399 33.344C196.991 33.344 198.899 33.908 200.123 35.036C201.347 36.14 201.959 37.796 201.959 40.004V47.708ZM193.571 49.904C195.011 49.904 196.139 49.196 196.955 47.78V44.144H195.263C192.503 44.144 191.123 45.176 191.123 47.24C191.123 48.08 191.327 48.74 191.735 49.22C192.167 49.676 192.779 49.904 193.571 49.904ZM211.467 53.576C209.907 53.576 208.695 53.132 207.831 52.244C206.967 51.332 206.535 50.048 206.535 48.392V26.324L211.647 25.748V48.248C211.647 49.088 211.995 49.508 212.691 49.508C213.075 49.508 213.411 49.436 213.699 49.292L214.743 52.928C213.759 53.36 212.667 53.576 211.467 53.576ZM231.233 51.092C231.233 53.012 230.933 54.584 230.333 55.808C229.757 57.056 228.953 58.052 227.921 58.796C226.889 59.564 225.569 60.26 223.961 60.884L222.269 57.176C223.205 56.744 223.937 56.312 224.465 55.88C224.993 55.472 225.401 54.908 225.689 54.188C225.977 53.492 226.121 52.568 226.121 51.416V33.92H231.233V51.092ZM228.641 24.092C229.553 24.092 230.297 24.38 230.873 24.956C231.473 25.508 231.773 26.216 231.773 27.08C231.773 27.944 231.473 28.664 230.873 29.24C230.297 29.792 229.553 30.068 228.641 30.068C227.729 30.068 226.985 29.792 226.409 29.24C225.833 28.664 225.545 27.944 225.545 27.08C225.545 26.216 225.833 25.508 226.409 24.956C226.985 24.38 227.729 24.092 228.641 24.092ZM250.862 47.708C250.862 48.452 250.97 49.004 251.186 49.364C251.402 49.7 251.762 49.952 252.266 50.12L251.186 53.504C250.058 53.408 249.134 53.144 248.414 52.712C247.718 52.28 247.178 51.608 246.794 50.696C245.546 52.616 243.638 53.576 241.07 53.576C239.174 53.576 237.662 53.036 236.534 51.956C235.43 50.852 234.878 49.424 234.878 47.672C234.878 45.584 235.634 43.988 237.146 42.884C238.658 41.78 240.83 41.228 243.662 41.228H245.858V40.292C245.858 39.116 245.594 38.3 245.066 37.844C244.538 37.388 243.662 37.16 242.438 37.16C241.094 37.16 239.414 37.496 237.398 38.168L236.246 34.748C238.622 33.812 240.974 33.344 243.302 33.344C245.894 33.344 247.802 33.908 249.026 35.036C250.25 36.14 250.862 37.796 250.862 40.004V47.708ZM242.474 49.904C243.914 49.904 245.042 49.196 245.858 47.78V44.144H244.166C241.406 44.144 240.026 45.176 240.026 47.24C240.026 48.08 240.23 48.74 240.638 49.22C241.07 49.676 241.682 49.904 242.474 49.904ZM239.342 24.488C240.11 24.488 240.746 24.752 241.25 25.28C241.778 25.784 242.042 26.408 242.042 27.152C242.042 27.896 241.778 28.532 241.25 29.06C240.746 29.564 240.11 29.816 239.342 29.816C238.598 29.816 237.962 29.564 237.434 29.06C236.906 28.532 236.642 27.896 236.642 27.152C236.642 26.408 236.906 25.784 237.434 25.28C237.962 24.752 238.598 24.488 239.342 24.488ZM247.478 24.488C248.246 24.488 248.894 24.752 249.422 25.28C249.95 25.784 250.214 26.408 250.214 27.152C250.214 27.896 249.95 28.532 249.422 29.06C248.894 29.564 248.246 29.816 247.478 29.816C246.734 29.816 246.098 29.564 245.57 29.06C245.066 28.532 244.814 27.896 244.814 27.152C244.814 26.408 245.066 25.784 245.57 25.28C246.098 24.752 246.734 24.488 247.478 24.488ZM265.833 33.38C266.409 33.38 267.045 33.476 267.741 33.668L266.877 38.6C266.205 38.432 265.641 38.348 265.185 38.348C264.057 38.348 263.181 38.744 262.557 39.536C261.933 40.328 261.441 41.528 261.081 43.136V53H255.969V33.92H260.397L260.865 37.628C261.321 36.284 261.981 35.24 262.845 34.496C263.733 33.752 264.729 33.38 265.833 33.38ZM286.885 34.964C285.637 35.444 283.801 35.684 281.377 35.684C282.577 36.212 283.465 36.872 284.041 37.664C284.617 38.432 284.905 39.404 284.905 40.58C284.905 41.804 284.581 42.908 283.933 43.892C283.309 44.852 282.397 45.608 281.197 46.16C280.021 46.712 278.641 46.988 277.057 46.988C276.217 46.988 275.473 46.904 274.825 46.736C274.345 47.048 274.105 47.468 274.105 47.996C274.105 48.38 274.249 48.692 274.537 48.932C274.849 49.148 275.437 49.256 276.301 49.256H279.217C280.633 49.256 281.869 49.496 282.925 49.976C284.005 50.432 284.833 51.08 285.409 51.92C286.009 52.736 286.309 53.672 286.309 54.728C286.309 56.672 285.469 58.184 283.789 59.264C282.133 60.368 279.733 60.92 276.589 60.92C274.333 60.92 272.545 60.68 271.225 60.2C269.929 59.744 269.017 59.072 268.489 58.184C267.961 57.296 267.697 56.18 267.697 54.836H272.269C272.269 55.46 272.389 55.952 272.629 56.312C272.869 56.696 273.301 56.972 273.925 57.14C274.573 57.332 275.497 57.428 276.697 57.428C278.353 57.428 279.505 57.224 280.153 56.816C280.825 56.408 281.161 55.832 281.161 55.088C281.161 54.416 280.909 53.9 280.405 53.54C279.901 53.18 279.157 53 278.173 53H275.365C273.469 53 272.053 52.652 271.117 51.956C270.181 51.236 269.713 50.336 269.713 49.256C269.713 48.584 269.905 47.936 270.289 47.312C270.697 46.664 271.249 46.124 271.945 45.692C270.769 45.044 269.905 44.288 269.353 43.424C268.825 42.536 268.561 41.48 268.561 40.256C268.561 38.864 268.897 37.652 269.569 36.62C270.265 35.564 271.225 34.76 272.449 34.208C273.697 33.632 275.113 33.344 276.697 33.344C278.665 33.392 280.285 33.224 281.557 32.84C282.829 32.456 284.185 31.856 285.625 31.04L286.885 34.964ZM276.805 36.764C275.845 36.764 275.077 37.076 274.501 37.7C273.949 38.3 273.673 39.128 273.673 40.184C273.673 41.264 273.949 42.116 274.501 42.74C275.077 43.364 275.857 43.676 276.841 43.676C277.873 43.676 278.653 43.376 279.181 42.776C279.709 42.176 279.973 41.288 279.973 40.112C279.973 37.88 278.917 36.764 276.805 36.764ZM294.515 33.92V53H289.403V33.92H294.515ZM291.923 24.092C292.835 24.092 293.579 24.38 294.155 24.956C294.755 25.508 295.055 26.216 295.055 27.08C295.055 27.944 294.755 28.664 294.155 29.24C293.579 29.792 292.835 30.068 291.923 30.068C291.011 30.068 290.267 29.792 289.691 29.24C289.115 28.664 288.827 27.944 288.827 27.08C288.827 26.216 289.115 25.508 289.691 24.956C290.267 24.38 291.011 24.092 291.923 24.092ZM310.219 33.344C311.899 33.344 313.207 33.86 314.143 34.892C315.079 35.9 315.547 37.304 315.547 39.104V53H310.435V39.968C310.435 38.936 310.255 38.216 309.895 37.808C309.559 37.376 309.043 37.16 308.347 37.16C307.627 37.16 306.967 37.388 306.367 37.844C305.791 38.276 305.227 38.936 304.675 39.824V53H299.563V33.92H303.991L304.387 36.332C305.179 35.348 306.043 34.604 306.979 34.1C307.939 33.596 309.019 33.344 310.219 33.344ZM334.312 25.748V53H329.2V26.324L334.312 25.748ZM345.904 33.92L339.82 42.308L346.444 53H340.648L334.492 42.56L340.612 33.92H345.904ZM356.318 33.344C359.174 33.344 361.406 34.244 363.014 36.044C364.622 37.82 365.426 40.292 365.426 43.46C365.426 45.476 365.054 47.252 364.31 48.788C363.59 50.3 362.534 51.476 361.142 52.316C359.774 53.156 358.154 53.576 356.282 53.576C353.426 53.576 351.182 52.688 349.55 50.912C347.942 49.112 347.138 46.628 347.138 43.46C347.138 41.444 347.498 39.68 348.218 38.168C348.962 36.632 350.018 35.444 351.386 34.604C352.778 33.764 354.422 33.344 356.318 33.344ZM356.318 37.16C355.022 37.16 354.05 37.676 353.402 38.708C352.778 39.716 352.466 41.3 352.466 43.46C352.466 45.62 352.778 47.216 353.402 48.248C354.05 49.256 355.01 49.76 356.282 49.76C357.554 49.76 358.502 49.256 359.126 48.248C359.774 47.216 360.098 45.62 360.098 43.46C360.098 41.3 359.786 39.716 359.162 38.708C358.538 37.676 357.59 37.16 356.318 37.16ZM358.37 29.96C357.866 29.96 357.422 29.876 357.038 29.708C356.678 29.54 356.246 29.3 355.742 28.988C355.43 28.748 355.154 28.58 354.914 28.484C354.698 28.364 354.47 28.304 354.23 28.304C353.846 28.304 353.51 28.436 353.222 28.7C352.934 28.964 352.634 29.372 352.322 29.924L349.694 28.628C350.174 27.452 350.798 26.492 351.566 25.748C352.334 25.004 353.198 24.632 354.158 24.632C354.71 24.632 355.178 24.728 355.562 24.92C355.946 25.088 356.378 25.328 356.858 25.64C357.17 25.856 357.434 26.024 357.65 26.144C357.866 26.24 358.094 26.288 358.334 26.288C358.718 26.288 359.042 26.168 359.306 25.928C359.594 25.664 359.906 25.256 360.242 24.704L362.87 26C362.39 27.224 361.766 28.196 360.998 28.916C360.23 29.612 359.354 29.96 358.37 29.96ZM374.425 33.92V53H369.313V33.92H374.425ZM371.833 24.092C372.745 24.092 373.489 24.38 374.065 24.956C374.665 25.508 374.965 26.216 374.965 27.08C374.965 27.944 374.665 28.664 374.065 29.24C373.489 29.792 372.745 30.068 371.833 30.068C370.921 30.068 370.177 29.792 369.601 29.24C369.025 28.664 368.737 27.944 368.737 27.08C368.737 26.216 369.025 25.508 369.601 24.956C370.177 24.38 370.921 24.092 371.833 24.092ZM384.585 25.748V53H379.473V26.324L384.585 25.748ZM396.177 33.92L390.093 42.308L396.717 53H390.921L384.765 42.56L390.885 33.92H396.177ZM404.097 33.92V53H398.985V33.92H404.097ZM401.505 24.092C402.417 24.092 403.161 24.38 403.737 24.956C404.337 25.508 404.637 26.216 404.637 27.08C404.637 27.944 404.337 28.664 403.737 29.24C403.161 29.792 402.417 30.068 401.505 30.068C400.593 30.068 399.849 29.792 399.273 29.24C398.697 28.664 398.409 27.944 398.409 27.08C398.409 26.216 398.697 25.508 399.273 24.956C399.849 24.38 400.593 24.092 401.505 24.092ZM55.148 73.344C56.66 73.344 57.872 73.86 58.784 74.892C59.72 75.924 60.188 77.328 60.188 79.104V93H55.076V79.968C55.076 78.096 54.452 77.16 53.204 77.16C52.532 77.16 51.944 77.376 51.44 77.808C50.936 78.24 50.42 78.912 49.892 79.824V93H44.78V79.968C44.78 78.096 44.156 77.16 42.908 77.16C42.236 77.16 41.648 77.388 41.144 77.844C40.64 78.276 40.136 78.936 39.632 79.824V93H34.52V73.92H38.948L39.344 76.296C40.064 75.336 40.868 74.604 41.756 74.1C42.668 73.596 43.712 73.344 44.888 73.344C45.968 73.344 46.904 73.62 47.696 74.172C48.488 74.7 49.064 75.456 49.424 76.44C50.216 75.408 51.068 74.64 51.98 74.136C52.916 73.608 53.972 73.344 55.148 73.344ZM73.0636 73.344C75.9196 73.344 78.1516 74.244 79.7596 76.044C81.3676 77.82 82.1716 80.292 82.1716 83.46C82.1716 85.476 81.7996 87.252 81.0556 88.788C80.3356 90.3 79.2796 91.476 77.8876 92.316C76.5196 93.156 74.8996 93.576 73.0276 93.576C70.1716 93.576 67.9276 92.688 66.2956 90.912C64.6876 89.112 63.8836 86.628 63.8836 83.46C63.8836 81.444 64.2436 79.68 64.9636 78.168C65.7076 76.632 66.7636 75.444 68.1316 74.604C69.5236 73.764 71.1676 73.344 73.0636 73.344ZM73.0636 77.16C71.7676 77.16 70.7956 77.676 70.1476 78.708C69.5236 79.716 69.2116 81.3 69.2116 83.46C69.2116 85.62 69.5236 87.216 70.1476 88.248C70.7956 89.256 71.7556 89.76 73.0276 89.76C74.2996 89.76 75.2476 89.256 75.8716 88.248C76.5196 87.216 76.8436 85.62 76.8436 83.46C76.8436 81.3 76.5316 79.716 75.9076 78.708C75.2836 77.676 74.3356 77.16 73.0636 77.16ZM102.187 83.028C102.187 83.268 102.151 83.928 102.079 85.008H90.1631C90.3311 86.736 90.7991 87.96 91.5671 88.68C92.3351 89.4 93.3791 89.76 94.6991 89.76C95.5151 89.76 96.2831 89.628 97.0031 89.364C97.7231 89.1 98.5031 88.68 99.3431 88.104L101.467 90.984C99.3311 92.712 96.9191 93.576 94.2311 93.576C91.2311 93.576 88.9271 92.676 87.3191 90.876C85.7111 89.076 84.9071 86.64 84.9071 83.568C84.9071 81.624 85.2431 79.884 85.9151 78.348C86.6111 76.788 87.6071 75.564 88.9031 74.676C90.2231 73.788 91.7831 73.344 93.5831 73.344C96.2951 73.344 98.4071 74.196 99.9191 75.9C101.431 77.604 102.187 79.98 102.187 83.028ZM97.1111 81.588C97.1111 78.42 95.9711 76.836 93.6911 76.836C92.6351 76.836 91.8071 77.232 91.2071 78.024C90.6311 78.792 90.2831 80.052 90.1631 81.804H97.1111V81.588ZM117.299 92.1C116.603 92.58 115.811 92.94 114.923 93.18C114.059 93.444 113.195 93.576 112.331 93.576C110.363 93.552 108.875 92.988 107.867 91.884C106.859 90.78 106.355 89.16 106.355 87.024V77.52H103.511V73.92H106.355V69.744L111.467 69.132V73.92H115.859L115.355 77.52H111.467V86.916C111.467 87.828 111.623 88.488 111.935 88.896C112.247 89.304 112.727 89.508 113.375 89.508C114.023 89.508 114.743 89.292 115.535 88.86L117.299 92.1ZM129.427 73.38C130.003 73.38 130.639 73.476 131.335 73.668L130.471 78.6C129.799 78.432 129.235 78.348 128.779 78.348C127.651 78.348 126.775 78.744 126.151 79.536C125.527 80.328 125.035 81.528 124.675 83.136V93H119.563V73.92H123.991L124.459 77.628C124.915 76.284 125.575 75.24 126.439 74.496C127.327 73.752 128.323 73.38 129.427 73.38ZM148.91 83.028C148.91 83.268 148.874 83.928 148.802 85.008H136.886C137.054 86.736 137.522 87.96 138.29 88.68C139.058 89.4 140.102 89.76 141.422 89.76C142.238 89.76 143.006 89.628 143.726 89.364C144.446 89.1 145.226 88.68 146.066 88.104L148.19 90.984C146.054 92.712 143.642 93.576 140.954 93.576C137.954 93.576 135.65 92.676 134.042 90.876C132.434 89.076 131.63 86.64 131.63 83.568C131.63 81.624 131.966 79.884 132.638 78.348C133.334 76.788 134.33 75.564 135.626 74.676C136.946 73.788 138.506 73.344 140.306 73.344C143.018 73.344 145.13 74.196 146.642 75.9C148.154 77.604 148.91 79.98 148.91 83.028ZM143.834 81.588C143.834 78.42 142.694 76.836 140.414 76.836C139.358 76.836 138.53 77.232 137.93 78.024C137.354 78.792 137.006 80.052 136.886 81.804H143.834V81.588ZM163.266 73.344C164.946 73.344 166.254 73.86 167.19 74.892C168.126 75.9 168.594 77.304 168.594 79.104V93H163.482V79.968C163.482 78.936 163.302 78.216 162.942 77.808C162.606 77.376 162.09 77.16 161.394 77.16C160.674 77.16 160.014 77.388 159.414 77.844C158.838 78.276 158.274 78.936 157.722 79.824V93H152.61V73.92H157.038L157.434 76.332C158.226 75.348 159.09 74.604 160.026 74.1C160.986 73.596 162.066 73.344 163.266 73.344ZM189.982 66.324V93H185.482L185.194 90.66C183.85 92.604 182.026 93.576 179.722 93.576C177.37 93.576 175.57 92.676 174.322 90.876C173.098 89.052 172.486 86.58 172.486 83.46C172.486 81.492 172.798 79.752 173.422 78.24C174.07 76.704 174.982 75.504 176.158 74.64C177.334 73.776 178.69 73.344 180.226 73.344C182.002 73.344 183.55 73.98 184.87 75.252V65.748L189.982 66.324ZM181.234 89.76C181.978 89.76 182.638 89.58 183.214 89.22C183.79 88.836 184.342 88.248 184.87 87.456V78.924C184.366 78.324 183.85 77.88 183.322 77.592C182.818 77.28 182.23 77.124 181.558 77.124C180.382 77.124 179.458 77.64 178.786 78.672C178.138 79.704 177.814 81.3 177.814 83.46C177.814 85.74 178.102 87.36 178.678 88.32C179.278 89.28 180.13 89.76 181.234 89.76ZM211.136 83.028C211.136 83.268 211.1 83.928 211.028 85.008H199.112C199.28 86.736 199.748 87.96 200.516 88.68C201.284 89.4 202.328 89.76 203.648 89.76C204.464 89.76 205.232 89.628 205.952 89.364C206.672 89.1 207.452 88.68 208.292 88.104L210.416 90.984C208.28 92.712 205.868 93.576 203.18 93.576C200.18 93.576 197.876 92.676 196.268 90.876C194.66 89.076 193.856 86.64 193.856 83.568C193.856 81.624 194.192 79.884 194.864 78.348C195.56 76.788 196.556 75.564 197.852 74.676C199.172 73.788 200.732 73.344 202.532 73.344C205.244 73.344 207.356 74.196 208.868 75.9C210.38 77.604 211.136 79.98 211.136 83.028ZM206.06 81.588C206.06 78.42 204.92 76.836 202.64 76.836C201.584 76.836 200.756 77.232 200.156 78.024C199.58 78.792 199.232 80.052 199.112 81.804H206.06V81.588ZM216.249 87.42C217.113 87.42 217.845 87.72 218.445 88.32C219.045 88.92 219.345 89.64 219.345 90.48C219.345 91.32 219.045 92.052 218.445 92.676C217.845 93.276 217.113 93.576 216.249 93.576C215.409 93.576 214.689 93.276 214.089 92.676C213.489 92.052 213.189 91.32 213.189 90.48C213.189 89.64 213.489 88.92 214.089 88.32C214.689 87.72 215.409 87.42 216.249 87.42Z" fill="#E3000F"/>
<path d="M47.2695 110.938V128H44.3281L36.6758 115.777V128H33.7344V110.938H36.6758L44.3516 123.184V110.938H47.2695ZM57.6406 125.457V119.41C57.6406 118.957 57.5586 118.566 57.3945 118.238C57.2305 117.91 56.9805 117.656 56.6445 117.477C56.3164 117.297 55.9023 117.207 55.4023 117.207C54.9414 117.207 54.543 117.285 54.207 117.441C53.8711 117.598 53.6094 117.809 53.4219 118.074C53.2344 118.34 53.1406 118.641 53.1406 118.977H50.3281C50.3281 118.477 50.4492 117.992 50.6914 117.523C50.9336 117.055 51.2852 116.637 51.7461 116.27C52.207 115.902 52.7578 115.613 53.3984 115.402C54.0391 115.191 54.7578 115.086 55.5547 115.086C56.5078 115.086 57.3516 115.246 58.0859 115.566C58.8281 115.887 59.4102 116.371 59.832 117.02C60.2617 117.66 60.4766 118.465 60.4766 119.434V125.07C60.4766 125.648 60.5156 126.168 60.5938 126.629C60.6797 127.082 60.8008 127.477 60.957 127.812V128H58.0625C57.9297 127.695 57.8242 127.309 57.7461 126.84C57.6758 126.363 57.6406 125.902 57.6406 125.457ZM58.0508 120.289L58.0742 122.035H56.0469C55.5234 122.035 55.0625 122.086 54.6641 122.188C54.2656 122.281 53.9336 122.422 53.668 122.609C53.4023 122.797 53.2031 123.023 53.0703 123.289C52.9375 123.555 52.8711 123.855 52.8711 124.191C52.8711 124.527 52.9492 124.836 53.1055 125.117C53.2617 125.391 53.4883 125.605 53.7852 125.762C54.0898 125.918 54.457 125.996 54.8867 125.996C55.4648 125.996 55.9688 125.879 56.3984 125.645C56.8359 125.402 57.1797 125.109 57.4297 124.766C57.6797 124.414 57.8125 124.082 57.8281 123.77L58.7422 125.023C58.6484 125.344 58.4883 125.688 58.2617 126.055C58.0352 126.422 57.7383 126.773 57.3711 127.109C57.0117 127.438 56.5781 127.707 56.0703 127.918C55.5703 128.129 54.9922 128.234 54.3359 128.234C53.5078 128.234 52.7695 128.07 52.1211 127.742C51.4727 127.406 50.9648 126.957 50.5977 126.395C50.2305 125.824 50.0469 125.18 50.0469 124.461C50.0469 123.789 50.1719 123.195 50.4219 122.68C50.6797 122.156 51.0547 121.719 51.5469 121.367C52.0469 121.016 52.6562 120.75 53.375 120.57C54.0938 120.383 54.9141 120.289 55.8359 120.289H58.0508ZM66.4531 115.32V128H63.6172V115.32H66.4531ZM63.4297 111.992C63.4297 111.562 63.5703 111.207 63.8516 110.926C64.1406 110.637 64.5391 110.492 65.0469 110.492C65.5469 110.492 65.9414 110.637 66.2305 110.926C66.5195 111.207 66.6641 111.562 66.6641 111.992C66.6641 112.414 66.5195 112.766 66.2305 113.047C65.9414 113.328 65.5469 113.469 65.0469 113.469C64.5391 113.469 64.1406 113.328 63.8516 113.047C63.5703 112.766 63.4297 112.414 63.4297 111.992ZM76.6602 124.566C76.6602 124.285 76.5898 124.031 76.4492 123.805C76.3086 123.57 76.0391 123.359 75.6406 123.172C75.25 122.984 74.6719 122.812 73.9062 122.656C73.2344 122.508 72.6172 122.332 72.0547 122.129C71.5 121.918 71.0234 121.664 70.625 121.367C70.2266 121.07 69.918 120.719 69.6992 120.312C69.4805 119.906 69.3711 119.438 69.3711 118.906C69.3711 118.391 69.4844 117.902 69.7109 117.441C69.9375 116.98 70.2617 116.574 70.6836 116.223C71.1055 115.871 71.6172 115.594 72.2188 115.391C72.8281 115.188 73.5078 115.086 74.2578 115.086C75.3203 115.086 76.2305 115.266 76.9883 115.625C77.7539 115.977 78.3398 116.457 78.7461 117.066C79.1523 117.668 79.3555 118.348 79.3555 119.105H76.5312C76.5312 118.77 76.4453 118.457 76.2734 118.168C76.1094 117.871 75.8594 117.633 75.5234 117.453C75.1875 117.266 74.7656 117.172 74.2578 117.172C73.7734 117.172 73.3711 117.25 73.0508 117.406C72.7383 117.555 72.5039 117.75 72.3477 117.992C72.1992 118.234 72.125 118.5 72.125 118.789C72.125 119 72.1641 119.191 72.2422 119.363C72.3281 119.527 72.4688 119.68 72.6641 119.82C72.8594 119.953 73.125 120.078 73.4609 120.195C73.8047 120.312 74.2344 120.426 74.75 120.535C75.7188 120.738 76.5508 121 77.2461 121.32C77.9492 121.633 78.4883 122.039 78.8633 122.539C79.2383 123.031 79.4258 123.656 79.4258 124.414C79.4258 124.977 79.3047 125.492 79.0625 125.961C78.8281 126.422 78.4844 126.824 78.0312 127.168C77.5781 127.504 77.0352 127.766 76.4023 127.953C75.7773 128.141 75.0742 128.234 74.293 128.234C73.1445 128.234 72.1719 128.031 71.375 127.625C70.5781 127.211 69.9727 126.684 69.5586 126.043C69.1523 125.395 68.9492 124.723 68.9492 124.027H71.6797C71.7109 124.551 71.8555 124.969 72.1133 125.281C72.3789 125.586 72.707 125.809 73.0977 125.949C73.4961 126.082 73.9062 126.148 74.3281 126.148C74.8359 126.148 75.2617 126.082 75.6055 125.949C75.9492 125.809 76.2109 125.621 76.3906 125.387C76.5703 125.145 76.6602 124.871 76.6602 124.566ZM87.7109 115.32V117.383H80.5625V115.32H87.7109ZM82.625 112.215H85.4492V124.496C85.4492 124.887 85.5039 125.188 85.6133 125.398C85.7305 125.602 85.8906 125.738 86.0938 125.809C86.2969 125.879 86.5352 125.914 86.8086 125.914C87.0039 125.914 87.1914 125.902 87.3711 125.879C87.5508 125.855 87.6953 125.832 87.8047 125.809L87.8164 127.965C87.582 128.035 87.3086 128.098 86.9961 128.152C86.6914 128.207 86.3398 128.234 85.9414 128.234C85.293 128.234 84.7188 128.121 84.2188 127.895C83.7188 127.66 83.3281 127.281 83.0469 126.758C82.7656 126.234 82.625 125.539 82.625 124.672V112.215ZM95.4805 128.234C94.543 128.234 93.6953 128.082 92.9375 127.777C92.1875 127.465 91.5469 127.031 91.0156 126.477C90.4922 125.922 90.0898 125.27 89.8086 124.52C89.5273 123.77 89.3867 122.961 89.3867 122.094V121.625C89.3867 120.633 89.5312 119.734 89.8203 118.93C90.1094 118.125 90.5117 117.438 91.0273 116.867C91.543 116.289 92.1523 115.848 92.8555 115.543C93.5586 115.238 94.3203 115.086 95.1406 115.086C96.0469 115.086 96.8398 115.238 97.5195 115.543C98.1992 115.848 98.7617 116.277 99.207 116.832C99.6602 117.379 99.9961 118.031 100.215 118.789C100.441 119.547 100.555 120.383 100.555 121.297V122.504H90.7578V120.477H97.7656V120.254C97.75 119.746 97.6484 119.27 97.4609 118.824C97.2812 118.379 97.0039 118.02 96.6289 117.746C96.2539 117.473 95.7539 117.336 95.1289 117.336C94.6602 117.336 94.2422 117.438 93.875 117.641C93.5156 117.836 93.2148 118.121 92.9727 118.496C92.7305 118.871 92.543 119.324 92.4102 119.855C92.2852 120.379 92.2227 120.969 92.2227 121.625V122.094C92.2227 122.648 92.2969 123.164 92.4453 123.641C92.6016 124.109 92.8281 124.52 93.125 124.871C93.4219 125.223 93.7812 125.5 94.2031 125.703C94.625 125.898 95.1055 125.996 95.6445 125.996C96.3242 125.996 96.9297 125.859 97.4609 125.586C97.9922 125.312 98.4531 124.926 98.8438 124.426L100.332 125.867C100.059 126.266 99.7031 126.648 99.2656 127.016C98.8281 127.375 98.293 127.668 97.6602 127.895C97.0352 128.121 96.3086 128.234 95.4805 128.234ZM105.781 110V128H102.945V110H105.781ZM114.465 128.234C113.527 128.234 112.68 128.082 111.922 127.777C111.172 127.465 110.531 127.031 110 126.477C109.477 125.922 109.074 125.27 108.793 124.52C108.512 123.77 108.371 122.961 108.371 122.094V121.625C108.371 120.633 108.516 119.734 108.805 118.93C109.094 118.125 109.496 117.438 110.012 116.867C110.527 116.289 111.137 115.848 111.84 115.543C112.543 115.238 113.305 115.086 114.125 115.086C115.031 115.086 115.824 115.238 116.504 115.543C117.184 115.848 117.746 116.277 118.191 116.832C118.645 117.379 118.98 118.031 119.199 118.789C119.426 119.547 119.539 120.383 119.539 121.297V122.504H109.742V120.477H116.75V120.254C116.734 119.746 116.633 119.27 116.445 118.824C116.266 118.379 115.988 118.02 115.613 117.746C115.238 117.473 114.738 117.336 114.113 117.336C113.645 117.336 113.227 117.438 112.859 117.641C112.5 117.836 112.199 118.121 111.957 118.496C111.715 118.871 111.527 119.324 111.395 119.855C111.27 120.379 111.207 120.969 111.207 121.625V122.094C111.207 122.648 111.281 123.164 111.43 123.641C111.586 124.109 111.812 124.52 112.109 124.871C112.406 125.223 112.766 125.5 113.188 125.703C113.609 125.898 114.09 125.996 114.629 125.996C115.309 125.996 115.914 125.859 116.445 125.586C116.977 125.312 117.438 124.926 117.828 124.426L119.316 125.867C119.043 126.266 118.688 126.648 118.25 127.016C117.812 127.375 117.277 127.668 116.645 127.895C116.02 128.121 115.293 128.234 114.465 128.234ZM124.531 110V128H121.719V110H124.531ZM124.039 121.191L123.125 121.18C123.133 120.305 123.254 119.496 123.488 118.754C123.73 118.012 124.066 117.367 124.496 116.82C124.934 116.266 125.457 115.84 126.066 115.543C126.676 115.238 127.352 115.086 128.094 115.086C128.719 115.086 129.281 115.172 129.781 115.344C130.289 115.516 130.727 115.793 131.094 116.176C131.461 116.551 131.738 117.043 131.926 117.652C132.121 118.254 132.219 118.988 132.219 119.855V128H129.383V119.832C129.383 119.223 129.293 118.738 129.113 118.379C128.941 118.02 128.688 117.762 128.352 117.605C128.016 117.441 127.605 117.359 127.121 117.359C126.613 117.359 126.164 117.461 125.773 117.664C125.391 117.867 125.07 118.145 124.812 118.496C124.555 118.848 124.359 119.254 124.227 119.715C124.102 120.176 124.039 120.668 124.039 121.191ZM140.668 128.234C139.73 128.234 138.883 128.082 138.125 127.777C137.375 127.465 136.734 127.031 136.203 126.477C135.68 125.922 135.277 125.27 134.996 124.52C134.715 123.77 134.574 122.961 134.574 122.094V121.625C134.574 120.633 134.719 119.734 135.008 118.93C135.297 118.125 135.699 117.438 136.215 116.867C136.73 116.289 137.34 115.848 138.043 115.543C138.746 115.238 139.508 115.086 140.328 115.086C141.234 115.086 142.027 115.238 142.707 115.543C143.387 115.848 143.949 116.277 144.395 116.832C144.848 117.379 145.184 118.031 145.402 118.789C145.629 119.547 145.742 120.383 145.742 121.297V122.504H135.945V120.477H142.953V120.254C142.938 119.746 142.836 119.27 142.648 118.824C142.469 118.379 142.191 118.02 141.816 117.746C141.441 117.473 140.941 117.336 140.316 117.336C139.848 117.336 139.43 117.438 139.062 117.641C138.703 117.836 138.402 118.121 138.16 118.496C137.918 118.871 137.73 119.324 137.598 119.855C137.473 120.379 137.41 120.969 137.41 121.625V122.094C137.41 122.648 137.484 123.164 137.633 123.641C137.789 124.109 138.016 124.52 138.312 124.871C138.609 125.223 138.969 125.5 139.391 125.703C139.812 125.898 140.293 125.996 140.832 125.996C141.512 125.996 142.117 125.859 142.648 125.586C143.18 125.312 143.641 124.926 144.031 124.426L145.52 125.867C145.246 126.266 144.891 126.648 144.453 127.016C144.016 127.375 143.48 127.668 142.848 127.895C142.223 128.121 141.496 128.234 140.668 128.234ZM158.047 125.762L161.152 115.32H164.082L159.676 128H157.848L158.047 125.762ZM155.668 115.32L158.832 125.809L158.984 128H157.156L152.727 115.32H155.668ZM171.254 128.234C170.316 128.234 169.469 128.082 168.711 127.777C167.961 127.465 167.32 127.031 166.789 126.477C166.266 125.922 165.863 125.27 165.582 124.52C165.301 123.77 165.16 122.961 165.16 122.094V121.625C165.16 120.633 165.305 119.734 165.594 118.93C165.883 118.125 166.285 117.438 166.801 116.867C167.316 116.289 167.926 115.848 168.629 115.543C169.332 115.238 170.094 115.086 170.914 115.086C171.82 115.086 172.613 115.238 173.293 115.543C173.973 115.848 174.535 116.277 174.98 116.832C175.434 117.379 175.77 118.031 175.988 118.789C176.215 119.547 176.328 120.383 176.328 121.297V122.504H166.531V120.477H173.539V120.254C173.523 119.746 173.422 119.27 173.234 118.824C173.055 118.379 172.777 118.02 172.402 117.746C172.027 117.473 171.527 117.336 170.902 117.336C170.434 117.336 170.016 117.438 169.648 117.641C169.289 117.836 168.988 118.121 168.746 118.496C168.504 118.871 168.316 119.324 168.184 119.855C168.059 120.379 167.996 120.969 167.996 121.625V122.094C167.996 122.648 168.07 123.164 168.219 123.641C168.375 124.109 168.602 124.52 168.898 124.871C169.195 125.223 169.555 125.5 169.977 125.703C170.398 125.898 170.879 125.996 171.418 125.996C172.098 125.996 172.703 125.859 173.234 125.586C173.766 125.312 174.227 124.926 174.617 124.426L176.105 125.867C175.832 126.266 175.477 126.648 175.039 127.016C174.602 127.375 174.066 127.668 173.434 127.895C172.809 128.121 172.082 128.234 171.254 128.234ZM184.121 128.234C183.184 128.234 182.336 128.082 181.578 127.777C180.828 127.465 180.188 127.031 179.656 126.477C179.133 125.922 178.73 125.27 178.449 124.52C178.168 123.77 178.027 122.961 178.027 122.094V121.625C178.027 120.633 178.172 119.734 178.461 118.93C178.75 118.125 179.152 117.438 179.668 116.867C180.184 116.289 180.793 115.848 181.496 115.543C182.199 115.238 182.961 115.086 183.781 115.086C184.688 115.086 185.48 115.238 186.16 115.543C186.84 115.848 187.402 116.277 187.848 116.832C188.301 117.379 188.637 118.031 188.855 118.789C189.082 119.547 189.195 120.383 189.195 121.297V122.504H179.398V120.477H186.406V120.254C186.391 119.746 186.289 119.27 186.102 118.824C185.922 118.379 185.645 118.02 185.27 117.746C184.895 117.473 184.395 117.336 183.77 117.336C183.301 117.336 182.883 117.438 182.516 117.641C182.156 117.836 181.855 118.121 181.613 118.496C181.371 118.871 181.184 119.324 181.051 119.855C180.926 120.379 180.863 120.969 180.863 121.625V122.094C180.863 122.648 180.938 123.164 181.086 123.641C181.242 124.109 181.469 124.52 181.766 124.871C182.062 125.223 182.422 125.5 182.844 125.703C183.266 125.898 183.746 125.996 184.285 125.996C184.965 125.996 185.57 125.859 186.102 125.586C186.633 125.312 187.094 124.926 187.484 124.426L188.973 125.867C188.699 126.266 188.344 126.648 187.906 127.016C187.469 127.375 186.934 127.668 186.301 127.895C185.676 128.121 184.949 128.234 184.121 128.234ZM191.41 110H194.234V125.293L193.965 128H191.41V110ZM202.508 121.543V121.789C202.508 122.727 202.402 123.59 202.191 124.379C201.988 125.16 201.676 125.84 201.254 126.418C200.84 126.996 200.324 127.445 199.707 127.766C199.098 128.078 198.391 128.234 197.586 128.234C196.797 128.234 196.109 128.086 195.523 127.789C194.938 127.492 194.445 127.07 194.047 126.523C193.656 125.977 193.34 125.324 193.098 124.566C192.855 123.809 192.684 122.973 192.582 122.059V121.273C192.684 120.352 192.855 119.516 193.098 118.766C193.34 118.008 193.656 117.355 194.047 116.809C194.445 116.254 194.934 115.828 195.512 115.531C196.098 115.234 196.781 115.086 197.562 115.086C198.375 115.086 199.09 115.242 199.707 115.555C200.332 115.867 200.852 116.312 201.266 116.891C201.68 117.461 201.988 118.141 202.191 118.93C202.402 119.719 202.508 120.59 202.508 121.543ZM199.684 121.789V121.543C199.684 120.973 199.637 120.438 199.543 119.938C199.449 119.43 199.293 118.984 199.074 118.602C198.863 118.219 198.574 117.918 198.207 117.699C197.848 117.473 197.398 117.359 196.859 117.359C196.359 117.359 195.93 117.445 195.57 117.617C195.211 117.789 194.91 118.023 194.668 118.32C194.426 118.617 194.234 118.961 194.094 119.352C193.961 119.742 193.871 120.164 193.824 120.617V122.738C193.895 123.324 194.043 123.863 194.27 124.355C194.504 124.84 194.832 125.23 195.254 125.527C195.676 125.816 196.219 125.961 196.883 125.961C197.406 125.961 197.848 125.855 198.207 125.645C198.566 125.434 198.852 125.141 199.062 124.766C199.281 124.383 199.438 123.938 199.531 123.43C199.633 122.922 199.684 122.375 199.684 121.789ZM207.922 115.32V128H205.086V115.32H207.922ZM204.898 111.992C204.898 111.562 205.039 111.207 205.32 110.926C205.609 110.637 206.008 110.492 206.516 110.492C207.016 110.492 207.41 110.637 207.699 110.926C207.988 111.207 208.133 111.562 208.133 111.992C208.133 112.414 207.988 112.766 207.699 113.047C207.41 113.328 207.016 113.469 206.516 113.469C206.008 113.469 205.609 113.328 205.32 113.047C205.039 112.766 204.898 112.414 204.898 111.992ZM213.852 117.758V132.875H211.027V115.32H213.629L213.852 117.758ZM222.113 121.543V121.789C222.113 122.711 222.004 123.566 221.785 124.355C221.574 125.137 221.258 125.82 220.836 126.406C220.422 126.984 219.91 127.434 219.301 127.754C218.691 128.074 217.988 128.234 217.191 128.234C216.402 128.234 215.711 128.09 215.117 127.801C214.531 127.504 214.035 127.086 213.629 126.547C213.223 126.008 212.895 125.375 212.645 124.648C212.402 123.914 212.23 123.109 212.129 122.234V121.285C212.23 120.355 212.402 119.512 212.645 118.754C212.895 117.996 213.223 117.344 213.629 116.797C214.035 116.25 214.531 115.828 215.117 115.531C215.703 115.234 216.387 115.086 217.168 115.086C217.965 115.086 218.672 115.242 219.289 115.555C219.906 115.859 220.426 116.297 220.848 116.867C221.27 117.43 221.586 118.109 221.797 118.906C222.008 119.695 222.113 120.574 222.113 121.543ZM219.289 121.789V121.543C219.289 120.957 219.234 120.414 219.125 119.914C219.016 119.406 218.844 118.961 218.609 118.578C218.375 118.195 218.074 117.898 217.707 117.688C217.348 117.469 216.914 117.359 216.406 117.359C215.906 117.359 215.477 117.445 215.117 117.617C214.758 117.781 214.457 118.012 214.215 118.309C213.973 118.605 213.785 118.953 213.652 119.352C213.52 119.742 213.426 120.168 213.371 120.629V122.902C213.465 123.465 213.625 123.98 213.852 124.449C214.078 124.918 214.398 125.293 214.812 125.574C215.234 125.848 215.773 125.984 216.43 125.984C216.938 125.984 217.371 125.875 217.73 125.656C218.09 125.438 218.383 125.137 218.609 124.754C218.844 124.363 219.016 123.914 219.125 123.406C219.234 122.898 219.289 122.359 219.289 121.789ZM223.977 121.801V121.531C223.977 120.617 224.109 119.77 224.375 118.988C224.641 118.199 225.023 117.516 225.523 116.938C226.031 116.352 226.648 115.898 227.375 115.578C228.109 115.25 228.938 115.086 229.859 115.086C230.789 115.086 231.617 115.25 232.344 115.578C233.078 115.898 233.699 116.352 234.207 116.938C234.715 117.516 235.102 118.199 235.367 118.988C235.633 119.77 235.766 120.617 235.766 121.531V121.801C235.766 122.715 235.633 123.562 235.367 124.344C235.102 125.125 234.715 125.809 234.207 126.395C233.699 126.973 233.082 127.426 232.355 127.754C231.629 128.074 230.805 128.234 229.883 128.234C228.953 128.234 228.121 128.074 227.387 127.754C226.66 127.426 226.043 126.973 225.535 126.395C225.027 125.809 224.641 125.125 224.375 124.344C224.109 123.562 223.977 122.715 223.977 121.801ZM226.801 121.531V121.801C226.801 122.371 226.859 122.91 226.977 123.418C227.094 123.926 227.277 124.371 227.527 124.754C227.777 125.137 228.098 125.438 228.488 125.656C228.879 125.875 229.344 125.984 229.883 125.984C230.406 125.984 230.859 125.875 231.242 125.656C231.633 125.438 231.953 125.137 232.203 124.754C232.453 124.371 232.637 123.926 232.754 123.418C232.879 122.91 232.941 122.371 232.941 121.801V121.531C232.941 120.969 232.879 120.438 232.754 119.938C232.637 119.43 232.449 118.98 232.191 118.59C231.941 118.199 231.621 117.895 231.23 117.676C230.848 117.449 230.391 117.336 229.859 117.336C229.328 117.336 228.867 117.449 228.477 117.676C228.094 117.895 227.777 118.199 227.527 118.59C227.277 118.98 227.094 119.43 226.977 119.938C226.859 120.438 226.801 120.969 226.801 121.531ZM240.969 117.734V128H238.145V115.32H240.84L240.969 117.734ZM244.848 115.238L244.824 117.863C244.652 117.832 244.465 117.809 244.262 117.793C244.066 117.777 243.871 117.77 243.676 117.77C243.191 117.77 242.766 117.84 242.398 117.98C242.031 118.113 241.723 118.309 241.473 118.566C241.23 118.816 241.043 119.121 240.91 119.48C240.777 119.84 240.699 120.242 240.676 120.688L240.031 120.734C240.031 119.938 240.109 119.199 240.266 118.52C240.422 117.84 240.656 117.242 240.969 116.727C241.289 116.211 241.688 115.809 242.164 115.52C242.648 115.23 243.207 115.086 243.84 115.086C244.012 115.086 244.195 115.102 244.391 115.133C244.594 115.164 244.746 115.199 244.848 115.238ZM253.016 115.32V117.383H245.867V115.32H253.016ZM247.93 112.215H250.754V124.496C250.754 124.887 250.809 125.188 250.918 125.398C251.035 125.602 251.195 125.738 251.398 125.809C251.602 125.879 251.84 125.914 252.113 125.914C252.309 125.914 252.496 125.902 252.676 125.879C252.855 125.855 253 125.832 253.109 125.809L253.121 127.965C252.887 128.035 252.613 128.098 252.301 128.152C251.996 128.207 251.645 128.234 251.246 128.234C250.598 128.234 250.023 128.121 249.523 127.895C249.023 127.66 248.633 127.281 248.352 126.758C248.07 126.234 247.93 125.539 247.93 124.672V112.215ZM262.344 125.457V119.41C262.344 118.957 262.262 118.566 262.098 118.238C261.934 117.91 261.684 117.656 261.348 117.477C261.02 117.297 260.605 117.207 260.105 117.207C259.645 117.207 259.246 117.285 258.91 117.441C258.574 117.598 258.312 117.809 258.125 118.074C257.938 118.34 257.844 118.641 257.844 118.977H255.031C255.031 118.477 255.152 117.992 255.395 117.523C255.637 117.055 255.988 116.637 256.449 116.27C256.91 115.902 257.461 115.613 258.102 115.402C258.742 115.191 259.461 115.086 260.258 115.086C261.211 115.086 262.055 115.246 262.789 115.566C263.531 115.887 264.113 116.371 264.535 117.02C264.965 117.66 265.18 118.465 265.18 119.434V125.07C265.18 125.648 265.219 126.168 265.297 126.629C265.383 127.082 265.504 127.477 265.66 127.812V128H262.766C262.633 127.695 262.527 127.309 262.449 126.84C262.379 126.363 262.344 125.902 262.344 125.457ZM262.754 120.289L262.777 122.035H260.75C260.227 122.035 259.766 122.086 259.367 122.188C258.969 122.281 258.637 122.422 258.371 122.609C258.105 122.797 257.906 123.023 257.773 123.289C257.641 123.555 257.574 123.855 257.574 124.191C257.574 124.527 257.652 124.836 257.809 125.117C257.965 125.391 258.191 125.605 258.488 125.762C258.793 125.918 259.16 125.996 259.59 125.996C260.168 125.996 260.672 125.879 261.102 125.645C261.539 125.402 261.883 125.109 262.133 124.766C262.383 124.414 262.516 124.082 262.531 123.77L263.445 125.023C263.352 125.344 263.191 125.688 262.965 126.055C262.738 126.422 262.441 126.773 262.074 127.109C261.715 127.438 261.281 127.707 260.773 127.918C260.273 128.129 259.695 128.234 259.039 128.234C258.211 128.234 257.473 128.07 256.824 127.742C256.176 127.406 255.668 126.957 255.301 126.395C254.934 125.824 254.75 125.18 254.75 124.461C254.75 123.789 254.875 123.195 255.125 122.68C255.383 122.156 255.758 121.719 256.25 121.367C256.75 121.016 257.359 120.75 258.078 120.57C258.797 120.383 259.617 120.289 260.539 120.289H262.754ZM275.281 125.457V119.41C275.281 118.957 275.199 118.566 275.035 118.238C274.871 117.91 274.621 117.656 274.285 117.477C273.957 117.297 273.543 117.207 273.043 117.207C272.582 117.207 272.184 117.285 271.848 117.441C271.512 117.598 271.25 117.809 271.062 118.074C270.875 118.34 270.781 118.641 270.781 118.977H267.969C267.969 118.477 268.09 117.992 268.332 117.523C268.574 117.055 268.926 116.637 269.387 116.27C269.848 115.902 270.398 115.613 271.039 115.402C271.68 115.191 272.398 115.086 273.195 115.086C274.148 115.086 274.992 115.246 275.727 115.566C276.469 115.887 277.051 116.371 277.473 117.02C277.902 117.66 278.117 118.465 278.117 119.434V125.07C278.117 125.648 278.156 126.168 278.234 126.629C278.32 127.082 278.441 127.477 278.598 127.812V128H275.703C275.57 127.695 275.465 127.309 275.387 126.84C275.316 126.363 275.281 125.902 275.281 125.457ZM275.691 120.289L275.715 122.035H273.688C273.164 122.035 272.703 122.086 272.305 122.188C271.906 122.281 271.574 122.422 271.309 122.609C271.043 122.797 270.844 123.023 270.711 123.289C270.578 123.555 270.512 123.855 270.512 124.191C270.512 124.527 270.59 124.836 270.746 125.117C270.902 125.391 271.129 125.605 271.426 125.762C271.73 125.918 272.098 125.996 272.527 125.996C273.105 125.996 273.609 125.879 274.039 125.645C274.477 125.402 274.82 125.109 275.07 124.766C275.32 124.414 275.453 124.082 275.469 123.77L276.383 125.023C276.289 125.344 276.129 125.688 275.902 126.055C275.676 126.422 275.379 126.773 275.012 127.109C274.652 127.438 274.219 127.707 273.711 127.918C273.211 128.129 272.633 128.234 271.977 128.234C271.148 128.234 270.41 128.07 269.762 127.742C269.113 127.406 268.605 126.957 268.238 126.395C267.871 125.824 267.688 125.18 267.688 124.461C267.688 123.789 267.812 123.195 268.062 122.68C268.32 122.156 268.695 121.719 269.188 121.367C269.688 121.016 270.297 120.75 271.016 120.57C271.734 120.383 272.555 120.289 273.477 120.289H275.691ZM284.094 110V128H281.258V110H284.094ZM300.312 125.457V119.41C300.312 118.957 300.23 118.566 300.066 118.238C299.902 117.91 299.652 117.656 299.316 117.477C298.988 117.297 298.574 117.207 298.074 117.207C297.613 117.207 297.215 117.285 296.879 117.441C296.543 117.598 296.281 117.809 296.094 118.074C295.906 118.34 295.812 118.641 295.812 118.977H293C293 118.477 293.121 117.992 293.363 117.523C293.605 117.055 293.957 116.637 294.418 116.27C294.879 115.902 295.43 115.613 296.07 115.402C296.711 115.191 297.43 115.086 298.227 115.086C299.18 115.086 300.023 115.246 300.758 115.566C301.5 115.887 302.082 116.371 302.504 117.02C302.934 117.66 303.148 118.465 303.148 119.434V125.07C303.148 125.648 303.188 126.168 303.266 126.629C303.352 127.082 303.473 127.477 303.629 127.812V128H300.734C300.602 127.695 300.496 127.309 300.418 126.84C300.348 126.363 300.312 125.902 300.312 125.457ZM300.723 120.289L300.746 122.035H298.719C298.195 122.035 297.734 122.086 297.336 122.188C296.938 122.281 296.605 122.422 296.34 122.609C296.074 122.797 295.875 123.023 295.742 123.289C295.609 123.555 295.543 123.855 295.543 124.191C295.543 124.527 295.621 124.836 295.777 125.117C295.934 125.391 296.16 125.605 296.457 125.762C296.762 125.918 297.129 125.996 297.559 125.996C298.137 125.996 298.641 125.879 299.07 125.645C299.508 125.402 299.852 125.109 300.102 124.766C300.352 124.414 300.484 124.082 300.5 123.77L301.414 125.023C301.32 125.344 301.16 125.688 300.934 126.055C300.707 126.422 300.41 126.773 300.043 127.109C299.684 127.438 299.25 127.707 298.742 127.918C298.242 128.129 297.664 128.234 297.008 128.234C296.18 128.234 295.441 128.07 294.793 127.742C294.145 127.406 293.637 126.957 293.27 126.395C292.902 125.824 292.719 125.18 292.719 124.461C292.719 123.789 292.844 123.195 293.094 122.68C293.352 122.156 293.727 121.719 294.219 121.367C294.719 121.016 295.328 120.75 296.047 120.57C296.766 120.383 297.586 120.289 298.508 120.289H300.723ZM309.125 115.32V128H306.289V115.32H309.125ZM306.102 111.992C306.102 111.562 306.242 111.207 306.523 110.926C306.812 110.637 307.211 110.492 307.719 110.492C308.219 110.492 308.613 110.637 308.902 110.926C309.191 111.207 309.336 111.562 309.336 111.992C309.336 112.414 309.191 112.766 308.902 113.047C308.613 113.328 308.219 113.469 307.719 113.469C307.211 113.469 306.812 113.328 306.523 113.047C306.242 112.766 306.102 112.414 306.102 111.992ZM318.031 115.32V117.383H310.883V115.32H318.031ZM312.945 112.215H315.77V124.496C315.77 124.887 315.824 125.188 315.934 125.398C316.051 125.602 316.211 125.738 316.414 125.809C316.617 125.879 316.855 125.914 317.129 125.914C317.324 125.914 317.512 125.902 317.691 125.879C317.871 125.855 318.016 125.832 318.125 125.809L318.137 127.965C317.902 128.035 317.629 128.098 317.316 128.152C317.012 128.207 316.66 128.234 316.262 128.234C315.613 128.234 315.039 128.121 314.539 127.895C314.039 127.66 313.648 127.281 313.367 126.758C313.086 126.234 312.945 125.539 312.945 124.672V112.215ZM327.359 125.457V119.41C327.359 118.957 327.277 118.566 327.113 118.238C326.949 117.91 326.699 117.656 326.363 117.477C326.035 117.297 325.621 117.207 325.121 117.207C324.66 117.207 324.262 117.285 323.926 117.441C323.59 117.598 323.328 117.809 323.141 118.074C322.953 118.34 322.859 118.641 322.859 118.977H320.047C320.047 118.477 320.168 117.992 320.41 117.523C320.652 117.055 321.004 116.637 321.465 116.27C321.926 115.902 322.477 115.613 323.117 115.402C323.758 115.191 324.477 115.086 325.273 115.086C326.227 115.086 327.07 115.246 327.805 115.566C328.547 115.887 329.129 116.371 329.551 117.02C329.98 117.66 330.195 118.465 330.195 119.434V125.07C330.195 125.648 330.234 126.168 330.312 126.629C330.398 127.082 330.52 127.477 330.676 127.812V128H327.781C327.648 127.695 327.543 127.309 327.465 126.84C327.395 126.363 327.359 125.902 327.359 125.457ZM327.77 120.289L327.793 122.035H325.766C325.242 122.035 324.781 122.086 324.383 122.188C323.984 122.281 323.652 122.422 323.387 122.609C323.121 122.797 322.922 123.023 322.789 123.289C322.656 123.555 322.59 123.855 322.59 124.191C322.59 124.527 322.668 124.836 322.824 125.117C322.98 125.391 323.207 125.605 323.504 125.762C323.809 125.918 324.176 125.996 324.605 125.996C325.184 125.996 325.688 125.879 326.117 125.645C326.555 125.402 326.898 125.109 327.148 124.766C327.398 124.414 327.531 124.082 327.547 123.77L328.461 125.023C328.367 125.344 328.207 125.688 327.98 126.055C327.754 126.422 327.457 126.773 327.09 127.109C326.73 127.438 326.297 127.707 325.789 127.918C325.289 128.129 324.711 128.234 324.055 128.234C323.227 128.234 322.488 128.07 321.84 127.742C321.191 127.406 320.684 126.957 320.316 126.395C319.949 125.824 319.766 125.18 319.766 124.461C319.766 123.789 319.891 123.195 320.141 122.68C320.398 122.156 320.773 121.719 321.266 121.367C321.766 121.016 322.375 120.75 323.094 120.57C323.812 120.383 324.633 120.289 325.555 120.289H327.77ZM333.16 110H335.984V125.293L335.715 128H333.16V110ZM344.258 121.543V121.789C344.258 122.727 344.152 123.59 343.941 124.379C343.738 125.16 343.426 125.84 343.004 126.418C342.59 126.996 342.074 127.445 341.457 127.766C340.848 128.078 340.141 128.234 339.336 128.234C338.547 128.234 337.859 128.086 337.273 127.789C336.688 127.492 336.195 127.07 335.797 126.523C335.406 125.977 335.09 125.324 334.848 124.566C334.605 123.809 334.434 122.973 334.332 122.059V121.273C334.434 120.352 334.605 119.516 334.848 118.766C335.09 118.008 335.406 117.355 335.797 116.809C336.195 116.254 336.684 115.828 337.262 115.531C337.848 115.234 338.531 115.086 339.312 115.086C340.125 115.086 340.84 115.242 341.457 115.555C342.082 115.867 342.602 116.312 343.016 116.891C343.43 117.461 343.738 118.141 343.941 118.93C344.152 119.719 344.258 120.59 344.258 121.543ZM341.434 121.789V121.543C341.434 120.973 341.387 120.438 341.293 119.938C341.199 119.43 341.043 118.984 340.824 118.602C340.613 118.219 340.324 117.918 339.957 117.699C339.598 117.473 339.148 117.359 338.609 117.359C338.109 117.359 337.68 117.445 337.32 117.617C336.961 117.789 336.66 118.023 336.418 118.32C336.176 118.617 335.984 118.961 335.844 119.352C335.711 119.742 335.621 120.164 335.574 120.617V122.738C335.645 123.324 335.793 123.863 336.02 124.355C336.254 124.84 336.582 125.23 337.004 125.527C337.426 125.816 337.969 125.961 338.633 125.961C339.156 125.961 339.598 125.855 339.957 125.645C340.316 125.434 340.602 125.141 340.812 124.766C341.031 124.383 341.188 123.938 341.281 123.43C341.383 122.922 341.434 122.375 341.434 121.789ZM358.438 115.32V117.383H351.289V115.32H358.438ZM353.352 112.215H356.176V124.496C356.176 124.887 356.23 125.188 356.34 125.398C356.457 125.602 356.617 125.738 356.82 125.809C357.023 125.879 357.262 125.914 357.535 125.914C357.73 125.914 357.918 125.902 358.098 125.879C358.277 125.855 358.422 125.832 358.531 125.809L358.543 127.965C358.309 128.035 358.035 128.098 357.723 128.152C357.418 128.207 357.066 128.234 356.668 128.234C356.02 128.234 355.445 128.121 354.945 127.895C354.445 127.66 354.055 127.281 353.773 126.758C353.492 126.234 353.352 125.539 353.352 124.672V112.215ZM366.207 128.234C365.27 128.234 364.422 128.082 363.664 127.777C362.914 127.465 362.273 127.031 361.742 126.477C361.219 125.922 360.816 125.27 360.535 124.52C360.254 123.77 360.113 122.961 360.113 122.094V121.625C360.113 120.633 360.258 119.734 360.547 118.93C360.836 118.125 361.238 117.438 361.754 116.867C362.27 116.289 362.879 115.848 363.582 115.543C364.285 115.238 365.047 115.086 365.867 115.086C366.773 115.086 367.566 115.238 368.246 115.543C368.926 115.848 369.488 116.277 369.934 116.832C370.387 117.379 370.723 118.031 370.941 118.789C371.168 119.547 371.281 120.383 371.281 121.297V122.504H361.484V120.477H368.492V120.254C368.477 119.746 368.375 119.27 368.188 118.824C368.008 118.379 367.73 118.02 367.355 117.746C366.98 117.473 366.48 117.336 365.855 117.336C365.387 117.336 364.969 117.438 364.602 117.641C364.242 117.836 363.941 118.121 363.699 118.496C363.457 118.871 363.27 119.324 363.137 119.855C363.012 120.379 362.949 120.969 362.949 121.625V122.094C362.949 122.648 363.023 123.164 363.172 123.641C363.328 124.109 363.555 124.52 363.852 124.871C364.148 125.223 364.508 125.5 364.93 125.703C365.352 125.898 365.832 125.996 366.371 125.996C367.051 125.996 367.656 125.859 368.188 125.586C368.719 125.312 369.18 124.926 369.57 124.426L371.059 125.867C370.785 126.266 370.43 126.648 369.992 127.016C369.555 127.375 369.02 127.668 368.387 127.895C367.762 128.121 367.035 128.234 366.207 128.234ZM376.273 110V128H373.461V110H376.273ZM375.781 121.191L374.867 121.18C374.875 120.305 374.996 119.496 375.23 118.754C375.473 118.012 375.809 117.367 376.238 116.82C376.676 116.266 377.199 115.84 377.809 115.543C378.418 115.238 379.094 115.086 379.836 115.086C380.461 115.086 381.023 115.172 381.523 115.344C382.031 115.516 382.469 115.793 382.836 116.176C383.203 116.551 383.48 117.043 383.668 117.652C383.863 118.254 383.961 118.988 383.961 119.855V128H381.125V119.832C381.125 119.223 381.035 118.738 380.855 118.379C380.684 118.02 380.43 117.762 380.094 117.605C379.758 117.441 379.348 117.359 378.863 117.359C378.355 117.359 377.906 117.461 377.516 117.664C377.133 117.867 376.812 118.145 376.555 118.496C376.297 118.848 376.102 119.254 375.969 119.715C375.844 120.176 375.781 120.668 375.781 121.191ZM393.969 125.457V119.41C393.969 118.957 393.887 118.566 393.723 118.238C393.559 117.91 393.309 117.656 392.973 117.477C392.645 117.297 392.23 117.207 391.73 117.207C391.27 117.207 390.871 117.285 390.535 117.441C390.199 117.598 389.938 117.809 389.75 118.074C389.562 118.34 389.469 118.641 389.469 118.977H386.656C386.656 118.477 386.777 117.992 387.02 117.523C387.262 117.055 387.613 116.637 388.074 116.27C388.535 115.902 389.086 115.613 389.727 115.402C390.367 115.191 391.086 115.086 391.883 115.086C392.836 115.086 393.68 115.246 394.414 115.566C395.156 115.887 395.738 116.371 396.16 117.02C396.59 117.66 396.805 118.465 396.805 119.434V125.07C396.805 125.648 396.844 126.168 396.922 126.629C397.008 127.082 397.129 127.477 397.285 127.812V128H394.391C394.258 127.695 394.152 127.309 394.074 126.84C394.004 126.363 393.969 125.902 393.969 125.457ZM394.379 120.289L394.402 122.035H392.375C391.852 122.035 391.391 122.086 390.992 122.188C390.594 122.281 390.262 122.422 389.996 122.609C389.73 122.797 389.531 123.023 389.398 123.289C389.266 123.555 389.199 123.855 389.199 124.191C389.199 124.527 389.277 124.836 389.434 125.117C389.59 125.391 389.816 125.605 390.113 125.762C390.418 125.918 390.785 125.996 391.215 125.996C391.793 125.996 392.297 125.879 392.727 125.645C393.164 125.402 393.508 125.109 393.758 124.766C394.008 124.414 394.141 124.082 394.156 123.77L395.07 125.023C394.977 125.344 394.816 125.688 394.59 126.055C394.363 126.422 394.066 126.773 393.699 127.109C393.34 127.438 392.906 127.707 392.398 127.918C391.898 128.129 391.32 128.234 390.664 128.234C389.836 128.234 389.098 128.07 388.449 127.742C387.801 127.406 387.293 126.957 386.926 126.395C386.559 125.824 386.375 125.18 386.375 124.461C386.375 123.789 386.5 123.195 386.75 122.68C387.008 122.156 387.383 121.719 387.875 121.367C388.375 121.016 388.984 120.75 389.703 120.57C390.422 120.383 391.242 120.289 392.164 120.289H394.379ZM412.848 124.566C412.848 124.285 412.777 124.031 412.637 123.805C412.496 123.57 412.227 123.359 411.828 123.172C411.438 122.984 410.859 122.812 410.094 122.656C409.422 122.508 408.805 122.332 408.242 122.129C407.688 121.918 407.211 121.664 406.812 121.367C406.414 121.07 406.105 120.719 405.887 120.312C405.668 119.906 405.559 119.438 405.559 118.906C405.559 118.391 405.672 117.902 405.898 117.441C406.125 116.98 406.449 116.574 406.871 116.223C407.293 115.871 407.805 115.594 408.406 115.391C409.016 115.188 409.695 115.086 410.445 115.086C411.508 115.086 412.418 115.266 413.176 115.625C413.941 115.977 414.527 116.457 414.934 117.066C415.34 117.668 415.543 118.348 415.543 119.105H412.719C412.719 118.77 412.633 118.457 412.461 118.168C412.297 117.871 412.047 117.633 411.711 117.453C411.375 117.266 410.953 117.172 410.445 117.172C409.961 117.172 409.559 117.25 409.238 117.406C408.926 117.555 408.691 117.75 408.535 117.992C408.387 118.234 408.312 118.5 408.312 118.789C408.312 119 408.352 119.191 408.43 119.363C408.516 119.527 408.656 119.68 408.852 119.82C409.047 119.953 409.312 120.078 409.648 120.195C409.992 120.312 410.422 120.426 410.938 120.535C411.906 120.738 412.738 121 413.434 121.32C414.137 121.633 414.676 122.039 415.051 122.539C415.426 123.031 415.613 123.656 415.613 124.414C415.613 124.977 415.492 125.492 415.25 125.961C415.016 126.422 414.672 126.824 414.219 127.168C413.766 127.504 413.223 127.766 412.59 127.953C411.965 128.141 411.262 128.234 410.48 128.234C409.332 128.234 408.359 128.031 407.562 127.625C406.766 127.211 406.16 126.684 405.746 126.043C405.34 125.395 405.137 124.723 405.137 124.027H407.867C407.898 124.551 408.043 124.969 408.301 125.281C408.566 125.586 408.895 125.809 409.285 125.949C409.684 126.082 410.094 126.148 410.516 126.148C411.023 126.148 411.449 126.082 411.793 125.949C412.137 125.809 412.398 125.621 412.578 125.387C412.758 125.145 412.848 124.871 412.848 124.566ZM423.898 115.32V117.383H416.75V115.32H423.898ZM418.812 112.215H421.637V124.496C421.637 124.887 421.691 125.188 421.801 125.398C421.918 125.602 422.078 125.738 422.281 125.809C422.484 125.879 422.723 125.914 422.996 125.914C423.191 125.914 423.379 125.902 423.559 125.879C423.738 125.855 423.883 125.832 423.992 125.809L424.004 127.965C423.77 128.035 423.496 128.098 423.184 128.152C422.879 128.207 422.527 128.234 422.129 128.234C421.48 128.234 420.906 128.121 420.406 127.895C419.906 127.66 419.516 127.281 419.234 126.758C418.953 126.234 418.812 125.539 418.812 124.672V112.215ZM429.102 115.32V128H426.266V115.32H429.102ZM426.078 111.992C426.078 111.562 426.219 111.207 426.5 110.926C426.789 110.637 427.188 110.492 427.695 110.492C428.195 110.492 428.59 110.637 428.879 110.926C429.168 111.207 429.312 111.562 429.312 111.992C429.312 112.414 429.168 112.766 428.879 113.047C428.59 113.328 428.195 113.469 427.695 113.469C427.188 113.469 426.789 113.328 426.5 113.047C426.219 112.766 426.078 112.414 426.078 111.992ZM435.219 115.32V128H432.383V115.32H435.219ZM432.195 111.992C432.195 111.562 432.336 111.207 432.617 110.926C432.906 110.637 433.305 110.492 433.812 110.492C434.312 110.492 434.707 110.637 434.996 110.926C435.285 111.207 435.43 111.562 435.43 111.992C435.43 112.414 435.285 112.766 434.996 113.047C434.707 113.328 434.312 113.469 433.812 113.469C433.305 113.469 432.906 113.328 432.617 113.047C432.336 112.766 432.195 112.414 432.195 111.992ZM441.336 110V128H438.5V110H441.336ZM451.543 124.566C451.543 124.285 451.473 124.031 451.332 123.805C451.191 123.57 450.922 123.359 450.523 123.172C450.133 122.984 449.555 122.812 448.789 122.656C448.117 122.508 447.5 122.332 446.938 122.129C446.383 121.918 445.906 121.664 445.508 121.367C445.109 121.07 444.801 120.719 444.582 120.312C444.363 119.906 444.254 119.438 444.254 118.906C444.254 118.391 444.367 117.902 444.594 117.441C444.82 116.98 445.145 116.574 445.566 116.223C445.988 115.871 446.5 115.594 447.102 115.391C447.711 115.188 448.391 115.086 449.141 115.086C450.203 115.086 451.113 115.266 451.871 115.625C452.637 115.977 453.223 116.457 453.629 117.066C454.035 117.668 454.238 118.348 454.238 119.105H451.414C451.414 118.77 451.328 118.457 451.156 118.168C450.992 117.871 450.742 117.633 450.406 117.453C450.07 117.266 449.648 117.172 449.141 117.172C448.656 117.172 448.254 117.25 447.934 117.406C447.621 117.555 447.387 117.75 447.23 117.992C447.082 118.234 447.008 118.5 447.008 118.789C447.008 119 447.047 119.191 447.125 119.363C447.211 119.527 447.352 119.68 447.547 119.82C447.742 119.953 448.008 120.078 448.344 120.195C448.688 120.312 449.117 120.426 449.633 120.535C450.602 120.738 451.434 121 452.129 121.32C452.832 121.633 453.371 122.039 453.746 122.539C454.121 123.031 454.309 123.656 454.309 124.414C454.309 124.977 454.188 125.492 453.945 125.961C453.711 126.422 453.367 126.824 452.914 127.168C452.461 127.504 451.918 127.766 451.285 127.953C450.66 128.141 449.957 128.234 449.176 128.234C448.027 128.234 447.055 128.031 446.258 127.625C445.461 127.211 444.855 126.684 444.441 126.043C444.035 125.395 443.832 124.723 443.832 124.027H446.562C446.594 124.551 446.738 124.969 446.996 125.281C447.262 125.586 447.59 125.809 447.98 125.949C448.379 126.082 448.789 126.148 449.211 126.148C449.719 126.148 450.145 126.082 450.488 125.949C450.832 125.809 451.094 125.621 451.273 125.387C451.453 125.145 451.543 124.871 451.543 124.566ZM462.371 128.234C461.434 128.234 460.586 128.082 459.828 127.777C459.078 127.465 458.438 127.031 457.906 126.477C457.383 125.922 456.98 125.27 456.699 124.52C456.418 123.77 456.277 122.961 456.277 122.094V121.625C456.277 120.633 456.422 119.734 456.711 118.93C457 118.125 457.402 117.438 457.918 116.867C458.434 116.289 459.043 115.848 459.746 115.543C460.449 115.238 461.211 115.086 462.031 115.086C462.938 115.086 463.73 115.238 464.41 115.543C465.09 115.848 465.652 116.277 466.098 116.832C466.551 117.379 466.887 118.031 467.105 118.789C467.332 119.547 467.445 120.383 467.445 121.297V122.504H457.648V120.477H464.656V120.254C464.641 119.746 464.539 119.27 464.352 118.824C464.172 118.379 463.895 118.02 463.52 117.746C463.145 117.473 462.645 117.336 462.02 117.336C461.551 117.336 461.133 117.438 460.766 117.641C460.406 117.836 460.105 118.121 459.863 118.496C459.621 118.871 459.434 119.324 459.301 119.855C459.176 120.379 459.113 120.969 459.113 121.625V122.094C459.113 122.648 459.188 123.164 459.336 123.641C459.492 124.109 459.719 124.52 460.016 124.871C460.312 125.223 460.672 125.5 461.094 125.703C461.516 125.898 461.996 125.996 462.535 125.996C463.215 125.996 463.82 125.859 464.352 125.586C464.883 125.312 465.344 124.926 465.734 124.426L467.223 125.867C466.949 126.266 466.594 126.648 466.156 127.016C465.719 127.375 465.184 127.668 464.551 127.895C463.926 128.121 463.199 128.234 462.371 128.234ZM472.672 115.32V128H469.836V115.32H472.672ZM469.648 111.992C469.648 111.562 469.789 111.207 470.07 110.926C470.359 110.637 470.758 110.492 471.266 110.492C471.766 110.492 472.16 110.637 472.449 110.926C472.738 111.207 472.883 111.562 472.883 111.992C472.883 112.414 472.738 112.766 472.449 113.047C472.16 113.328 471.766 113.469 471.266 113.469C470.758 113.469 470.359 113.328 470.07 113.047C469.789 112.766 469.648 112.414 469.648 111.992ZM483.5 125.375V110H486.336V128H483.77L483.5 125.375ZM475.25 121.801V121.555C475.25 120.594 475.363 119.719 475.59 118.93C475.816 118.133 476.145 117.449 476.574 116.879C477.004 116.301 477.527 115.859 478.145 115.555C478.762 115.242 479.457 115.086 480.23 115.086C480.996 115.086 481.668 115.234 482.246 115.531C482.824 115.828 483.316 116.254 483.723 116.809C484.129 117.355 484.453 118.012 484.695 118.777C484.938 119.535 485.109 120.379 485.211 121.309V122.094C485.109 123 484.938 123.828 484.695 124.578C484.453 125.328 484.129 125.977 483.723 126.523C483.316 127.07 482.82 127.492 482.234 127.789C481.656 128.086 480.98 128.234 480.207 128.234C479.441 128.234 478.75 128.074 478.133 127.754C477.523 127.434 477.004 126.984 476.574 126.406C476.145 125.828 475.816 125.148 475.59 124.367C475.363 123.578 475.25 122.723 475.25 121.801ZM478.074 121.555V121.801C478.074 122.379 478.125 122.918 478.227 123.418C478.336 123.918 478.504 124.359 478.73 124.742C478.957 125.117 479.25 125.414 479.609 125.633C479.977 125.844 480.414 125.949 480.922 125.949C481.562 125.949 482.09 125.809 482.504 125.527C482.918 125.246 483.242 124.867 483.477 124.391C483.719 123.906 483.883 123.367 483.969 122.773V120.652C483.922 120.191 483.824 119.762 483.676 119.363C483.535 118.965 483.344 118.617 483.102 118.32C482.859 118.016 482.559 117.781 482.199 117.617C481.848 117.445 481.43 117.359 480.945 117.359C480.43 117.359 479.992 117.469 479.633 117.688C479.273 117.906 478.977 118.207 478.742 118.59C478.516 118.973 478.348 119.418 478.238 119.926C478.129 120.434 478.074 120.977 478.074 121.555ZM37.5781 155.762L40.6836 145.32H43.6133L39.207 158H37.3789L37.5781 155.762ZM35.1992 145.32L38.3633 155.809L38.5156 158H36.6875L32.2578 145.32H35.1992ZM52.3203 155.457V149.41C52.3203 148.957 52.2383 148.566 52.0742 148.238C51.9102 147.91 51.6602 147.656 51.3242 147.477C50.9961 147.297 50.582 147.207 50.082 147.207C49.6211 147.207 49.2227 147.285 48.8867 147.441C48.5508 147.598 48.2891 147.809 48.1016 148.074C47.9141 148.34 47.8203 148.641 47.8203 148.977H45.0078C45.0078 148.477 45.1289 147.992 45.3711 147.523C45.6133 147.055 45.9648 146.637 46.4258 146.27C46.8867 145.902 47.4375 145.613 48.0781 145.402C48.7188 145.191 49.4375 145.086 50.2344 145.086C51.1875 145.086 52.0312 145.246 52.7656 145.566C53.5078 145.887 54.0898 146.371 54.5117 147.02C54.9414 147.66 55.1562 148.465 55.1562 149.434V155.07C55.1562 155.648 55.1953 156.168 55.2734 156.629C55.3594 157.082 55.4805 157.477 55.6367 157.812V158H52.7422C52.6094 157.695 52.5039 157.309 52.4258 156.84C52.3555 156.363 52.3203 155.902 52.3203 155.457ZM52.7305 150.289L52.7539 152.035H50.7266C50.2031 152.035 49.7422 152.086 49.3438 152.188C48.9453 152.281 48.6133 152.422 48.3477 152.609C48.082 152.797 47.8828 153.023 47.75 153.289C47.6172 153.555 47.5508 153.855 47.5508 154.191C47.5508 154.527 47.6289 154.836 47.7852 155.117C47.9414 155.391 48.168 155.605 48.4648 155.762C48.7695 155.918 49.1367 155.996 49.5664 155.996C50.1445 155.996 50.6484 155.879 51.0781 155.645C51.5156 155.402 51.8594 155.109 52.1094 154.766C52.3594 154.414 52.4922 154.082 52.5078 153.77L53.4219 155.023C53.3281 155.344 53.168 155.688 52.9414 156.055C52.7148 156.422 52.418 156.773 52.0508 157.109C51.6914 157.438 51.2578 157.707 50.75 157.918C50.25 158.129 49.6719 158.234 49.0156 158.234C48.1875 158.234 47.4492 158.07 46.8008 157.742C46.1523 157.406 45.6445 156.957 45.2773 156.395C44.9102 155.824 44.7266 155.18 44.7266 154.461C44.7266 153.789 44.8516 153.195 45.1016 152.68C45.3594 152.156 45.7344 151.719 46.2266 151.367C46.7266 151.016 47.3359 150.75 48.0547 150.57C48.7734 150.383 49.5938 150.289 50.5156 150.289H52.7305ZM61.1328 140V158H58.2969V140H61.1328ZM67.25 145.32V158H64.4141V145.32H67.25ZM64.2266 141.992C64.2266 141.562 64.3672 141.207 64.6484 140.926C64.9375 140.637 65.3359 140.492 65.8438 140.492C66.3438 140.492 66.7383 140.637 67.0273 140.926C67.3164 141.207 67.4609 141.562 67.4609 141.992C67.4609 142.414 67.3164 142.766 67.0273 143.047C66.7383 143.328 66.3438 143.469 65.8438 143.469C65.3359 143.469 64.9375 143.328 64.6484 143.047C64.3672 142.766 64.2266 142.414 64.2266 141.992ZM73.1914 140V158H70.3555V140H73.1914ZM81.0664 145.32L75.5469 151.438L72.5234 154.531L71.7852 152.141L74.0703 149.316L77.6562 145.32H81.0664ZM78.2656 158L74.1523 152.047L75.9336 150.066L81.5352 158H78.2656ZM90.4883 155.012V145.32H93.3242V158H90.6523L90.4883 155.012ZM90.8867 152.375L91.8359 152.352C91.8359 153.203 91.7422 153.988 91.5547 154.707C91.3672 155.418 91.0781 156.039 90.6875 156.57C90.2969 157.094 89.7969 157.504 89.1875 157.801C88.5781 158.09 87.8477 158.234 86.9961 158.234C86.3789 158.234 85.8125 158.145 85.2969 157.965C84.7812 157.785 84.3359 157.508 83.9609 157.133C83.5938 156.758 83.3086 156.27 83.1055 155.668C82.9023 155.066 82.8008 154.348 82.8008 153.512V145.32H85.625V153.535C85.625 153.996 85.6797 154.383 85.7891 154.695C85.8984 155 86.0469 155.246 86.2344 155.434C86.4219 155.621 86.6406 155.754 86.8906 155.832C87.1406 155.91 87.4062 155.949 87.6875 155.949C88.4922 155.949 89.125 155.793 89.5859 155.48C90.0547 155.16 90.3867 154.73 90.582 154.191C90.7852 153.652 90.8867 153.047 90.8867 152.375ZM99.2422 145.32V158H96.4062V145.32H99.2422ZM96.2188 141.992C96.2188 141.562 96.3594 141.207 96.6406 140.926C96.9297 140.637 97.3281 140.492 97.8359 140.492C98.3359 140.492 98.7305 140.637 99.0195 140.926C99.3086 141.207 99.4531 141.562 99.4531 141.992C99.4531 142.414 99.3086 142.766 99.0195 143.047C98.7305 143.328 98.3359 143.469 97.8359 143.469C97.3281 143.469 96.9297 143.328 96.6406 143.047C96.3594 142.766 96.2188 142.414 96.2188 141.992ZM110.07 155.375V140H112.906V158H110.34L110.07 155.375ZM101.82 151.801V151.555C101.82 150.594 101.934 149.719 102.16 148.93C102.387 148.133 102.715 147.449 103.145 146.879C103.574 146.301 104.098 145.859 104.715 145.555C105.332 145.242 106.027 145.086 106.801 145.086C107.566 145.086 108.238 145.234 108.816 145.531C109.395 145.828 109.887 146.254 110.293 146.809C110.699 147.355 111.023 148.012 111.266 148.777C111.508 149.535 111.68 150.379 111.781 151.309V152.094C111.68 153 111.508 153.828 111.266 154.578C111.023 155.328 110.699 155.977 110.293 156.523C109.887 157.07 109.391 157.492 108.805 157.789C108.227 158.086 107.551 158.234 106.777 158.234C106.012 158.234 105.32 158.074 104.703 157.754C104.094 157.434 103.574 156.984 103.145 156.406C102.715 155.828 102.387 155.148 102.16 154.367C101.934 153.578 101.82 152.723 101.82 151.801ZM104.645 151.555V151.801C104.645 152.379 104.695 152.918 104.797 153.418C104.906 153.918 105.074 154.359 105.301 154.742C105.527 155.117 105.82 155.414 106.18 155.633C106.547 155.844 106.984 155.949 107.492 155.949C108.133 155.949 108.66 155.809 109.074 155.527C109.488 155.246 109.812 154.867 110.047 154.391C110.289 153.906 110.453 153.367 110.539 152.773V150.652C110.492 150.191 110.395 149.762 110.246 149.363C110.105 148.965 109.914 148.617 109.672 148.32C109.43 148.016 109.129 147.781 108.77 147.617C108.418 147.445 108 147.359 107.516 147.359C107 147.359 106.562 147.469 106.203 147.688C105.844 147.906 105.547 148.207 105.312 148.59C105.086 148.973 104.918 149.418 104.809 149.926C104.699 150.434 104.645 150.977 104.645 151.555ZM115.977 156.594C115.977 156.156 116.125 155.789 116.422 155.492C116.719 155.188 117.121 155.035 117.629 155.035C118.145 155.035 118.547 155.188 118.836 155.492C119.133 155.789 119.281 156.156 119.281 156.594C119.281 157.031 119.133 157.398 118.836 157.695C118.547 157.992 118.145 158.141 117.629 158.141C117.121 158.141 116.719 157.992 116.422 157.695C116.125 157.398 115.977 157.031 115.977 156.594Z" fill="#461102"/>
<path d="M47.576 181.658C50.656 181.658 53.318 182.23 55.562 183.374C57.806 184.474 59.5 185.992 60.644 187.928C61.832 189.82 62.426 191.932 62.426 194.264C62.426 196.684 61.898 199.016 60.842 201.26C59.83 203.504 58.07 206.034 55.562 208.85C53.098 211.666 49.49 215.296 44.738 219.74H63.416L62.36 227H34.046V220.202C39.59 214.658 43.594 210.522 46.058 207.794C48.522 205.066 50.26 202.756 51.272 200.864C52.284 198.972 52.79 197.036 52.79 195.056C52.79 193.164 52.24 191.668 51.14 190.568C50.04 189.468 48.566 188.918 46.718 188.918C45.09 188.918 43.638 189.292 42.362 190.04C41.086 190.744 39.744 191.932 38.336 193.604L32.726 189.116C36.51 184.144 41.46 181.658 47.576 181.658ZM97.9907 212.282C98.6067 215.318 99.7287 217.54 101.357 218.948C103.029 220.356 105.251 221.06 108.023 221.06C110.971 221.06 114.139 220.136 117.527 218.288V225.548C115.723 226.384 114.007 227 112.379 227.396C110.751 227.836 108.969 228.056 107.033 228.056C102.061 228.056 97.9687 226.692 94.7567 223.964C91.5887 221.192 89.4987 217.298 88.4867 212.282H82.7447L84.0647 207.2H88.2227V202.25H82.7447L84.0647 197.102H88.5527C89.7847 192.306 92.0727 188.544 95.4167 185.816C98.8047 183.044 102.787 181.658 107.363 181.658C111.939 181.658 116.075 182.912 119.771 185.42L116.405 191.228C114.997 190.304 113.611 189.644 112.247 189.248C110.883 188.808 109.365 188.588 107.693 188.588C105.405 188.588 103.447 189.292 101.819 190.7C100.191 192.108 98.9807 194.242 98.1887 197.102H114.359L113.039 202.25H97.7267V207.2H111.983L110.729 212.282H97.9907Z" fill="#E3000F"/>
<path d="M147.916 211.156V214H134.436V211.566L140.902 204.58C141.577 203.814 142.11 203.149 142.502 202.584C142.894 202.019 143.172 201.508 143.336 201.053C143.509 200.588 143.596 200.146 143.596 199.727C143.596 199.116 143.486 198.583 143.268 198.127C143.049 197.662 142.73 197.302 142.311 197.047C141.9 196.792 141.395 196.664 140.793 196.664C140.128 196.664 139.558 196.819 139.084 197.129C138.619 197.43 138.264 197.849 138.018 198.387C137.781 198.924 137.662 199.54 137.662 200.232H134.039C134.039 199.057 134.312 197.986 134.859 197.02C135.406 196.044 136.19 195.265 137.211 194.682C138.232 194.098 139.444 193.807 140.848 193.807C142.215 193.807 143.372 194.035 144.32 194.49C145.268 194.937 145.988 195.575 146.48 196.404C146.973 197.234 147.219 198.223 147.219 199.371C147.219 200.009 147.114 200.638 146.904 201.258C146.695 201.878 146.398 202.493 146.016 203.104C145.642 203.705 145.195 204.316 144.676 204.936C144.156 205.555 143.577 206.189 142.939 206.836L139.057 211.156H147.916ZM161.205 192.986V214H157.596V192.986H161.205ZM170.475 199.207L164.035 206.439L160.549 209.98L159.4 207.178L162.094 203.787L166.113 199.207H170.475ZM166.783 214L162.203 207.109L164.609 204.771L170.967 214H166.783ZM181.193 210.486V199.207H184.83V214H181.412L181.193 210.486ZM181.658 207.424L182.779 207.396C182.779 208.39 182.67 209.306 182.451 210.145C182.232 210.983 181.891 211.712 181.426 212.332C180.97 212.943 180.391 213.421 179.689 213.768C178.988 214.105 178.158 214.273 177.201 214.273C176.472 214.273 175.807 214.173 175.205 213.973C174.604 213.763 174.084 213.439 173.646 213.002C173.218 212.555 172.885 211.986 172.648 211.293C172.411 210.591 172.293 209.748 172.293 208.764V199.207H175.902V208.791C175.902 209.283 175.957 209.693 176.066 210.021C176.185 210.35 176.344 210.618 176.545 210.828C176.755 211.029 176.996 211.174 177.27 211.266C177.552 211.348 177.853 211.389 178.172 211.389C179.047 211.389 179.735 211.215 180.236 210.869C180.747 210.514 181.111 210.04 181.33 209.447C181.549 208.846 181.658 208.171 181.658 207.424ZM196.834 210.486V199.207H200.471V214H197.053L196.834 210.486ZM197.299 207.424L198.42 207.396C198.42 208.39 198.311 209.306 198.092 210.145C197.873 210.983 197.531 211.712 197.066 212.332C196.611 212.943 196.032 213.421 195.33 213.768C194.628 214.105 193.799 214.273 192.842 214.273C192.113 214.273 191.447 214.173 190.846 213.973C190.244 213.763 189.725 213.439 189.287 213.002C188.859 212.555 188.526 211.986 188.289 211.293C188.052 210.591 187.934 209.748 187.934 208.764V199.207H191.543V208.791C191.543 209.283 191.598 209.693 191.707 210.021C191.826 210.35 191.985 210.618 192.186 210.828C192.395 211.029 192.637 211.174 192.91 211.266C193.193 211.348 193.493 211.389 193.812 211.389C194.688 211.389 195.376 211.215 195.877 210.869C196.387 210.514 196.752 210.04 196.971 209.447C197.189 208.846 197.299 208.171 197.299 207.424ZM212.543 210.855V193H216.18V214H212.898L212.543 210.855ZM203.041 206.781V206.494C203.041 205.364 203.169 204.339 203.424 203.418C203.688 202.488 204.071 201.691 204.572 201.025C205.074 200.36 205.68 199.845 206.391 199.48C207.111 199.116 207.926 198.934 208.838 198.934C209.722 198.934 210.492 199.111 211.148 199.467C211.814 199.822 212.379 200.328 212.844 200.984C213.318 201.641 213.696 202.42 213.979 203.322C214.261 204.215 214.466 205.2 214.594 206.275V207.055C214.466 208.103 214.261 209.064 213.979 209.939C213.696 210.814 213.318 211.58 212.844 212.236C212.379 212.883 211.814 213.385 211.148 213.74C210.483 214.096 209.704 214.273 208.811 214.273C207.908 214.273 207.097 214.087 206.377 213.713C205.666 213.339 205.06 212.815 204.559 212.141C204.066 211.466 203.688 210.673 203.424 209.762C203.169 208.85 203.041 207.857 203.041 206.781ZM206.664 206.494V206.781C206.664 207.419 206.719 208.016 206.828 208.572C206.938 209.128 207.115 209.62 207.361 210.049C207.607 210.468 207.922 210.796 208.305 211.033C208.697 211.27 209.171 211.389 209.727 211.389C210.438 211.389 211.021 211.234 211.477 210.924C211.941 210.605 212.301 210.172 212.557 209.625C212.812 209.069 212.976 208.445 213.049 207.752V205.605C213.012 205.059 212.917 204.553 212.762 204.088C212.616 203.623 212.406 203.222 212.133 202.885C211.868 202.548 211.54 202.283 211.148 202.092C210.757 201.9 210.292 201.805 209.754 201.805C209.198 201.805 208.724 201.928 208.332 202.174C207.94 202.411 207.621 202.743 207.375 203.172C207.129 203.6 206.947 204.097 206.828 204.662C206.719 205.227 206.664 205.838 206.664 206.494Z" fill="#461102"/>
<rect x="291" y="176" width="277" height="56" rx="14" fill="#E3000F"/>
<path d="M334.092 194.096L333.644 197.624H328.856V213.5H324.264V197.624H319.252V194.096H334.092ZM347.841 194.096L347.365 197.372H340.533V202.02H346.497V205.24H340.533V210.196H347.841V213.5H335.941V194.096H347.841ZM355.271 194.096V209.86H362.831L362.355 213.5H350.679V194.096H355.271ZM369.627 194.096V209.86H377.187L376.711 213.5H365.035V194.096H369.627ZM383.982 194.096V213.5H379.39V194.096H383.982ZM399.642 194.096C402.685 194.096 405.121 194.787 406.95 196.168C408.798 197.531 409.722 200.041 409.722 203.7C409.722 207.303 408.826 209.841 407.034 211.316C405.242 212.772 402.918 213.5 400.062 213.5H394.238V194.096H399.642ZM398.83 197.428V210.168H400.342C401.854 210.168 403.002 209.701 403.786 208.768C404.57 207.816 404.962 206.127 404.962 203.7C404.962 202.039 404.766 200.751 404.374 199.836C403.982 198.921 403.45 198.296 402.778 197.96C402.106 197.605 401.275 197.428 400.286 197.428H398.83ZM417.068 194.096V213.5H412.476V194.096H417.068ZM429.079 193.62C431.581 193.62 433.737 194.413 435.547 196L433.223 198.436C432.533 197.913 431.889 197.54 431.291 197.316C430.713 197.073 430.041 196.952 429.275 196.952C427.838 196.952 426.69 197.521 425.831 198.66C424.973 199.78 424.543 201.488 424.543 203.784C424.543 206.267 424.87 208.031 425.523 209.076C426.177 210.103 427.194 210.616 428.575 210.616C429.546 210.616 430.423 210.401 431.207 209.972V205.576H428.687L428.239 202.328H435.659V211.932C434.651 212.585 433.541 213.089 432.327 213.444C431.114 213.799 429.901 213.976 428.687 213.976C425.738 213.976 423.517 213.117 422.023 211.4C420.53 209.664 419.783 207.125 419.783 203.784C419.783 201.656 420.185 199.827 420.987 198.296C421.809 196.765 422.919 195.608 424.319 194.824C425.738 194.021 427.325 193.62 429.079 193.62ZM443.318 194.096V213.5H438.726V194.096H443.318ZM453.201 194.096C455.759 194.096 457.747 194.628 459.165 195.692C460.584 196.756 461.293 198.333 461.293 200.424C461.293 202.608 460.593 204.26 459.193 205.38C457.812 206.481 455.955 207.032 453.621 207.032H451.521V213.5H446.929V194.096H453.201ZM453.229 203.728C454.312 203.728 455.133 203.476 455.693 202.972C456.272 202.449 456.561 201.6 456.561 200.424C456.561 198.389 455.423 197.372 453.145 197.372H451.521V203.728H453.229ZM472.27 213.5L471.262 209.328H465.606L464.626 213.5H459.866L465.718 194.096H471.29L477.142 213.5H472.27ZM466.39 205.996H470.478L468.434 197.428L466.39 205.996ZM483.158 194.096V213.5H478.566V194.096H483.158ZM494.302 194.096L488.114 202.804L494.806 213.5H489.486L483.298 203.14L489.458 194.096H494.302ZM508.185 194.096L507.709 197.372H500.877V202.02H506.841V205.24H500.877V210.196H508.185V213.5H496.285V194.096H508.185ZM524.295 194.096L523.847 197.624H519.059V213.5H514.467V197.624H509.455V194.096H524.295ZM539.416 194.096L538.968 197.624H534.18V213.5H529.588V197.624H524.576V194.096H539.416Z" fill="#FFE80D"/>
</svg>
