<svg width="600" height="260" viewBox="0 0 600 260" fill="none" xmlns="http://www.w3.org/2000/svg">
<path d="M53.24 44.792C53.24 46.496 52.88 48.008 52.16 49.328C51.44 50.648 50.36 51.692 48.92 52.46C47.504 53.204 45.776 53.576 43.736 53.576C40.664 53.576 38.312 52.784 36.68 51.2C35.072 49.592 34.268 47.456 34.268 44.792V28.088H39.56V44.54C39.56 46.22 39.896 47.48 40.568 48.32C41.24 49.136 42.296 49.544 43.736 49.544C45.176 49.544 46.232 49.136 46.904 48.32C47.6 47.48 47.948 46.22 47.948 44.54V28.088H53.24V44.792ZM73.6987 53H69.2707L69.0187 50.444C68.3467 51.5 67.5307 52.292 66.5707 52.82C65.6107 53.324 64.4947 53.576 63.2227 53.576C61.4947 53.576 60.1747 53.06 59.2627 52.028C58.3507 50.972 57.8947 49.508 57.8947 47.636V33.92H63.0067V46.988C63.0067 47.996 63.1747 48.716 63.5107 49.148C63.8467 49.556 64.3747 49.76 65.0947 49.76C66.4627 49.76 67.6267 48.932 68.5867 47.276V33.92H73.6987V53ZM94.8746 43.028C94.8746 43.268 94.8386 43.928 94.7666 45.008H82.8506C83.0186 46.736 83.4866 47.96 84.2546 48.68C85.0226 49.4 86.0666 49.76 87.3866 49.76C88.2026 49.76 88.9706 49.628 89.6906 49.364C90.4106 49.1 91.1906 48.68 92.0306 48.104L94.1546 50.984C92.0186 52.712 89.6066 53.576 86.9186 53.576C83.9186 53.576 81.6146 52.676 80.0066 50.876C78.3986 49.076 77.5946 46.64 77.5946 43.568C77.5946 41.624 77.9306 39.884 78.6026 38.348C79.2986 36.788 80.2946 35.564 81.5906 34.676C82.9106 33.788 84.4706 33.344 86.2706 33.344C88.9826 33.344 91.0946 34.196 92.6066 35.9C94.1186 37.604 94.8746 39.98 94.8746 43.028ZM89.7986 41.588C89.7986 38.42 88.6586 36.836 86.3786 36.836C85.3226 36.836 84.4946 37.232 83.8946 38.024C83.3186 38.792 82.9706 40.052 82.8506 41.804H89.7986V41.588ZM103.327 53.576C101.767 53.576 100.555 53.132 99.6907 52.244C98.8267 51.332 98.3947 50.048 98.3947 48.392V26.324L103.507 25.748V48.248C103.507 49.088 103.855 49.508 104.551 49.508C104.935 49.508 105.271 49.436 105.559 49.292L106.603 52.928C105.619 53.36 104.527 53.576 103.327 53.576ZM132.596 47.708C132.596 48.452 132.704 49.004 132.92 49.364C133.136 49.7 133.496 49.952 134 50.12L132.92 53.504C131.792 53.408 130.868 53.144 130.148 52.712C129.452 52.28 128.912 51.608 128.528 50.696C127.28 52.616 125.372 53.576 122.804 53.576C120.908 53.576 119.396 53.036 118.268 51.956C117.164 50.852 116.612 49.424 116.612 47.672C116.612 45.584 117.368 43.988 118.88 42.884C120.392 41.78 122.564 41.228 125.396 41.228H127.592V40.292C127.592 39.116 127.328 38.3 126.8 37.844C126.272 37.388 125.396 37.16 124.172 37.16C122.828 37.16 121.148 37.496 119.132 38.168L117.98 34.748C120.356 33.812 122.708 33.344 125.036 33.344C127.628 33.344 129.536 33.908 130.76 35.036C131.984 36.14 132.596 37.796 132.596 40.004V47.708ZM124.208 49.904C125.648 49.904 126.776 49.196 127.592 47.78V44.144H125.9C123.14 44.144 121.76 45.176 121.76 47.24C121.76 48.08 121.964 48.74 122.372 49.22C122.804 49.676 123.416 49.904 124.208 49.904ZM152.108 47.708C152.108 48.452 152.216 49.004 152.432 49.364C152.648 49.7 153.008 49.952 153.512 50.12L152.432 53.504C151.304 53.408 150.38 53.144 149.66 52.712C148.964 52.28 148.424 51.608 148.04 50.696C146.792 52.616 144.884 53.576 142.316 53.576C140.42 53.576 138.908 53.036 137.78 51.956C136.676 50.852 136.124 49.424 136.124 47.672C136.124 45.584 136.88 43.988 138.392 42.884C139.904 41.78 142.076 41.228 144.908 41.228H147.104V40.292C147.104 39.116 146.84 38.3 146.312 37.844C145.784 37.388 144.908 37.16 143.684 37.16C142.34 37.16 140.66 37.496 138.644 38.168L137.492 34.748C139.868 33.812 142.22 33.344 144.548 33.344C147.14 33.344 149.048 33.908 150.272 35.036C151.496 36.14 152.108 37.796 152.108 40.004V47.708ZM143.72 49.904C145.16 49.904 146.288 49.196 147.104 47.78V44.144H145.412C142.652 44.144 141.272 45.176 141.272 47.24C141.272 48.08 141.476 48.74 141.884 49.22C142.316 49.676 142.928 49.904 143.72 49.904ZM163.2 33.344C165.888 33.344 168.192 34.112 170.112 35.648L168.168 38.564C166.56 37.556 164.976 37.052 163.416 37.052C162.576 37.052 161.928 37.208 161.472 37.52C161.016 37.832 160.788 38.252 160.788 38.78C160.788 39.164 160.884 39.488 161.076 39.752C161.292 40.016 161.676 40.268 162.228 40.508C162.804 40.748 163.656 41.036 164.784 41.372C166.8 41.924 168.3 42.668 169.284 43.604C170.268 44.516 170.76 45.776 170.76 47.384C170.76 48.656 170.388 49.76 169.644 50.696C168.924 51.632 167.94 52.352 166.692 52.856C165.444 53.336 164.052 53.576 162.516 53.576C160.908 53.576 159.444 53.336 158.124 52.856C156.804 52.352 155.676 51.668 154.74 50.804L157.26 47.996C158.868 49.244 160.572 49.868 162.372 49.868C163.332 49.868 164.088 49.688 164.64 49.328C165.216 48.944 165.504 48.428 165.504 47.78C165.504 47.276 165.396 46.88 165.18 46.592C164.964 46.304 164.568 46.04 163.992 45.8C163.416 45.536 162.516 45.236 161.292 44.9C159.372 44.372 157.944 43.628 157.008 42.668C156.096 41.684 155.64 40.472 155.64 39.032C155.64 37.952 155.952 36.98 156.576 36.116C157.2 35.252 158.076 34.58 159.204 34.1C160.356 33.596 161.688 33.344 163.2 33.344ZM185.502 52.1C184.806 52.58 184.014 52.94 183.126 53.18C182.262 53.444 181.398 53.576 180.534 53.576C178.566 53.552 177.078 52.988 176.07 51.884C175.062 50.78 174.558 49.16 174.558 47.024V37.52H171.714V33.92H174.558V29.744L179.67 29.132V33.92H184.062L183.558 37.52H179.67V46.916C179.67 47.828 179.826 48.488 180.138 48.896C180.45 49.304 180.93 49.508 181.578 49.508C182.226 49.508 182.946 49.292 183.738 48.86L185.502 52.1ZM201.959 47.708C201.959 48.452 202.067 49.004 202.283 49.364C202.499 49.7 202.859 49.952 203.363 50.12L202.283 53.504C201.155 53.408 200.231 53.144 199.511 52.712C198.815 52.28 198.275 51.608 197.891 50.696C196.643 52.616 194.735 53.576 192.167 53.576C190.271 53.576 188.759 53.036 187.631 51.956C186.527 50.852 185.975 49.424 185.975 47.672C185.975 45.584 186.731 43.988 188.243 42.884C189.755 41.78 191.927 41.228 194.759 41.228H196.955V40.292C196.955 39.116 196.691 38.3 196.163 37.844C195.635 37.388 194.759 37.16 193.535 37.16C192.191 37.16 190.511 37.496 188.495 38.168L187.343 34.748C189.719 33.812 192.071 33.344 194.399 33.344C196.991 33.344 198.899 33.908 200.123 35.036C201.347 36.14 201.959 37.796 201.959 40.004V47.708ZM193.571 49.904C195.011 49.904 196.139 49.196 196.955 47.78V44.144H195.263C192.503 44.144 191.123 45.176 191.123 47.24C191.123 48.08 191.327 48.74 191.735 49.22C192.167 49.676 192.779 49.904 193.571 49.904ZM211.467 53.576C209.907 53.576 208.695 53.132 207.831 52.244C206.967 51.332 206.535 50.048 206.535 48.392V26.324L211.647 25.748V48.248C211.647 49.088 211.995 49.508 212.691 49.508C213.075 49.508 213.411 49.436 213.699 49.292L214.743 52.928C213.759 53.36 212.667 53.576 211.467 53.576ZM236.813 33.344C238.469 33.344 239.765 33.86 240.701 34.892C241.661 35.9 242.141 37.304 242.141 39.104V53H237.029V39.968C237.029 38.936 236.849 38.216 236.489 37.808C236.129 37.376 235.613 37.16 234.941 37.16C233.597 37.16 232.373 38.036 231.269 39.788V53H226.157V26.324L231.269 25.784V36.08C232.037 35.168 232.865 34.484 233.753 34.028C234.665 33.572 235.685 33.344 236.813 33.344ZM261.584 47.708C261.584 48.452 261.692 49.004 261.908 49.364C262.124 49.7 262.484 49.952 262.988 50.12L261.908 53.504C260.78 53.408 259.856 53.144 259.136 52.712C258.44 52.28 257.9 51.608 257.516 50.696C256.268 52.616 254.36 53.576 251.792 53.576C249.896 53.576 248.384 53.036 247.256 51.956C246.152 50.852 245.6 49.424 245.6 47.672C245.6 45.584 246.356 43.988 247.868 42.884C249.38 41.78 251.552 41.228 254.384 41.228H256.58V40.292C256.58 39.116 256.316 38.3 255.788 37.844C255.26 37.388 254.384 37.16 253.16 37.16C251.816 37.16 250.136 37.496 248.12 38.168L246.968 34.748C249.344 33.812 251.696 33.344 254.024 33.344C256.616 33.344 258.524 33.908 259.748 35.036C260.972 36.14 261.584 37.796 261.584 40.004V47.708ZM253.196 49.904C254.636 49.904 255.764 49.196 256.58 47.78V44.144H254.888C252.128 44.144 250.748 45.176 250.748 47.24C250.748 48.08 250.952 48.74 251.36 49.22C251.792 49.676 252.404 49.904 253.196 49.904ZM271.804 25.748V53H266.692V26.324L271.804 25.748ZM283.396 33.92L277.312 42.308L283.936 53H278.14L271.984 42.56L278.104 33.92H283.396ZM291.316 25.748V53H286.204V26.324L291.316 25.748ZM302.908 33.92L296.824 42.308L303.448 53H297.652L291.496 42.56L297.616 33.92H302.908ZM319.768 47.708C319.768 48.452 319.876 49.004 320.092 49.364C320.308 49.7 320.668 49.952 321.172 50.12L320.092 53.504C318.964 53.408 318.04 53.144 317.32 52.712C316.624 52.28 316.084 51.608 315.7 50.696C314.452 52.616 312.544 53.576 309.976 53.576C308.08 53.576 306.568 53.036 305.44 51.956C304.336 50.852 303.784 49.424 303.784 47.672C303.784 45.584 304.54 43.988 306.052 42.884C307.564 41.78 309.736 41.228 312.568 41.228H314.764V40.292C314.764 39.116 314.5 38.3 313.972 37.844C313.444 37.388 312.568 37.16 311.344 37.16C310 37.16 308.32 37.496 306.304 38.168L305.152 34.748C307.528 33.812 309.88 33.344 312.208 33.344C314.8 33.344 316.708 33.908 317.932 35.036C319.156 36.14 319.768 37.796 319.768 40.004V47.708ZM311.38 49.904C312.82 49.904 313.948 49.196 314.764 47.78V44.144H313.072C310.312 44.144 308.932 45.176 308.932 47.24C308.932 48.08 309.136 48.74 309.544 49.22C309.976 49.676 310.588 49.904 311.38 49.904ZM335.531 33.344C337.211 33.344 338.519 33.86 339.455 34.892C340.391 35.9 340.859 37.304 340.859 39.104V53H335.747V39.968C335.747 38.936 335.567 38.216 335.207 37.808C334.871 37.376 334.355 37.16 333.659 37.16C332.939 37.16 332.279 37.388 331.679 37.844C331.103 38.276 330.539 38.936 329.987 39.824V53H324.875V33.92H329.303L329.699 36.332C330.491 35.348 331.355 34.604 332.291 34.1C333.251 33.596 334.331 33.344 335.531 33.344ZM364.376 33.38C364.952 33.38 365.588 33.476 366.284 33.668L365.42 38.6C364.748 38.432 364.184 38.348 363.728 38.348C362.6 38.348 361.724 38.744 361.1 39.536C360.476 40.328 359.984 41.528 359.624 43.136V53H354.512V33.92H358.94L359.408 37.628C359.864 36.284 360.524 35.24 361.388 34.496C362.276 33.752 363.272 33.38 364.376 33.38ZM383.859 43.028C383.859 43.268 383.823 43.928 383.751 45.008H371.835C372.003 46.736 372.471 47.96 373.239 48.68C374.007 49.4 375.051 49.76 376.371 49.76C377.187 49.76 377.955 49.628 378.675 49.364C379.395 49.1 380.175 48.68 381.015 48.104L383.139 50.984C381.003 52.712 378.591 53.576 375.903 53.576C372.903 53.576 370.599 52.676 368.991 50.876C367.383 49.076 366.579 46.64 366.579 43.568C366.579 41.624 366.915 39.884 367.587 38.348C368.283 36.788 369.279 35.564 370.575 34.676C371.895 33.788 373.455 33.344 375.255 33.344C377.967 33.344 380.079 34.196 381.591 35.9C383.103 37.604 383.859 39.98 383.859 43.028ZM378.783 41.588C378.783 38.42 377.643 36.836 375.363 36.836C374.307 36.836 373.479 37.232 372.879 38.024C372.303 38.792 371.955 40.052 371.835 41.804H378.783V41.588ZM404.623 34.964C403.375 35.444 401.539 35.684 399.115 35.684C400.315 36.212 401.203 36.872 401.779 37.664C402.355 38.432 402.643 39.404 402.643 40.58C402.643 41.804 402.319 42.908 401.671 43.892C401.047 44.852 400.135 45.608 398.935 46.16C397.759 46.712 396.379 46.988 394.795 46.988C393.955 46.988 393.211 46.904 392.563 46.736C392.083 47.048 391.843 47.468 391.843 47.996C391.843 48.38 391.987 48.692 392.275 48.932C392.587 49.148 393.175 49.256 394.039 49.256H396.955C398.371 49.256 399.607 49.496 400.663 49.976C401.743 50.432 402.571 51.08 403.147 51.92C403.747 52.736 404.047 53.672 404.047 54.728C404.047 56.672 403.207 58.184 401.527 59.264C399.871 60.368 397.471 60.92 394.327 60.92C392.071 60.92 390.283 60.68 388.963 60.2C387.667 59.744 386.755 59.072 386.227 58.184C385.699 57.296 385.435 56.18 385.435 54.836H390.007C390.007 55.46 390.127 55.952 390.367 56.312C390.607 56.696 391.039 56.972 391.663 57.14C392.311 57.332 393.235 57.428 394.435 57.428C396.091 57.428 397.243 57.224 397.891 56.816C398.563 56.408 398.899 55.832 398.899 55.088C398.899 54.416 398.647 53.9 398.143 53.54C397.639 53.18 396.895 53 395.911 53H393.103C391.207 53 389.791 52.652 388.855 51.956C387.919 51.236 387.451 50.336 387.451 49.256C387.451 48.584 387.643 47.936 388.027 47.312C388.435 46.664 388.987 46.124 389.683 45.692C388.507 45.044 387.643 44.288 387.091 43.424C386.563 42.536 386.299 41.48 386.299 40.256C386.299 38.864 386.635 37.652 387.307 36.62C388.003 35.564 388.963 34.76 390.187 34.208C391.435 33.632 392.851 33.344 394.435 33.344C396.403 33.392 398.023 33.224 399.295 32.84C400.567 32.456 401.923 31.856 403.363 31.04L404.623 34.964ZM394.543 36.764C393.583 36.764 392.815 37.076 392.239 37.7C391.687 38.3 391.411 39.128 391.411 40.184C391.411 41.264 391.687 42.116 392.239 42.74C392.815 43.364 393.595 43.676 394.579 43.676C395.611 43.676 396.391 43.376 396.919 42.776C397.447 42.176 397.711 41.288 397.711 40.112C397.711 37.88 396.655 36.764 394.543 36.764ZM422.414 53H417.986L417.734 50.444C417.062 51.5 416.246 52.292 415.286 52.82C414.326 53.324 413.21 53.576 411.938 53.576C410.21 53.576 408.89 53.06 407.978 52.028C407.066 50.972 406.61 49.508 406.61 47.636V33.92H411.722V46.988C411.722 47.996 411.89 48.716 412.226 49.148C412.562 49.556 413.09 49.76 413.81 49.76C415.178 49.76 416.342 48.932 417.302 47.276V33.92H422.414V53ZM432.213 53.576C430.653 53.576 429.441 53.132 428.577 52.244C427.713 51.332 427.281 50.048 427.281 48.392V26.324L432.393 25.748V48.248C432.393 49.088 432.741 49.508 433.437 49.508C433.821 49.508 434.157 49.436 434.445 49.292L435.489 52.928C434.505 53.36 433.413 53.576 432.213 53.576ZM452.518 47.708C452.518 48.452 452.626 49.004 452.842 49.364C453.058 49.7 453.418 49.952 453.922 50.12L452.842 53.504C451.714 53.408 450.79 53.144 450.07 52.712C449.374 52.28 448.834 51.608 448.45 50.696C447.202 52.616 445.294 53.576 442.726 53.576C440.83 53.576 439.318 53.036 438.19 51.956C437.086 50.852 436.534 49.424 436.534 47.672C436.534 45.584 437.29 43.988 438.802 42.884C440.314 41.78 442.486 41.228 445.318 41.228H447.514V40.292C447.514 39.116 447.25 38.3 446.722 37.844C446.194 37.388 445.318 37.16 444.094 37.16C442.75 37.16 441.07 37.496 439.054 38.168L437.902 34.748C440.278 33.812 442.63 33.344 444.958 33.344C447.55 33.344 449.458 33.908 450.682 35.036C451.906 36.14 452.518 37.796 452.518 40.004V47.708ZM444.13 49.904C445.57 49.904 446.698 49.196 447.514 47.78V44.144H445.822C443.062 44.144 441.682 45.176 441.682 47.24C441.682 48.08 441.886 48.74 442.294 49.22C442.726 49.676 443.338 49.904 444.13 49.904ZM472.03 47.708C472.03 48.452 472.138 49.004 472.354 49.364C472.57 49.7 472.93 49.952 473.434 50.12L472.354 53.504C471.226 53.408 470.302 53.144 469.582 52.712C468.886 52.28 468.346 51.608 467.962 50.696C466.714 52.616 464.806 53.576 462.238 53.576C460.342 53.576 458.83 53.036 457.702 51.956C456.598 50.852 456.046 49.424 456.046 47.672C456.046 45.584 456.802 43.988 458.314 42.884C459.826 41.78 461.998 41.228 464.83 41.228H467.026V40.292C467.026 39.116 466.762 38.3 466.234 37.844C465.706 37.388 464.83 37.16 463.606 37.16C462.262 37.16 460.582 37.496 458.566 38.168L457.414 34.748C459.79 33.812 462.142 33.344 464.47 33.344C467.062 33.344 468.97 33.908 470.194 35.036C471.418 36.14 472.03 37.796 472.03 40.004V47.708ZM463.642 49.904C465.082 49.904 466.21 49.196 467.026 47.78V44.144H465.334C462.574 44.144 461.194 45.176 461.194 47.24C461.194 48.08 461.398 48.74 461.806 49.22C462.238 49.676 462.85 49.904 463.642 49.904ZM487.001 33.38C487.577 33.38 488.213 33.476 488.909 33.668L488.045 38.6C487.373 38.432 486.809 38.348 486.353 38.348C485.225 38.348 484.349 38.744 483.725 39.536C483.101 40.328 482.609 41.528 482.249 43.136V53H477.137V33.92H481.565L482.033 37.628C482.489 36.284 483.149 35.24 484.013 34.496C484.901 33.752 485.897 33.38 487.001 33.38ZM497.325 33.344C500.013 33.344 502.317 34.112 504.237 35.648L502.293 38.564C500.685 37.556 499.101 37.052 497.541 37.052C496.701 37.052 496.053 37.208 495.597 37.52C495.141 37.832 494.913 38.252 494.913 38.78C494.913 39.164 495.009 39.488 495.201 39.752C495.417 40.016 495.801 40.268 496.353 40.508C496.929 40.748 497.781 41.036 498.909 41.372C500.925 41.924 502.425 42.668 503.409 43.604C504.393 44.516 504.885 45.776 504.885 47.384C504.885 48.656 504.513 49.76 503.769 50.696C503.049 51.632 502.065 52.352 500.817 52.856C499.569 53.336 498.177 53.576 496.641 53.576C495.033 53.576 493.569 53.336 492.249 52.856C490.929 52.352 489.801 51.668 488.865 50.804L491.385 47.996C492.993 49.244 494.697 49.868 496.497 49.868C497.457 49.868 498.213 49.688 498.765 49.328C499.341 48.944 499.629 48.428 499.629 47.78C499.629 47.276 499.521 46.88 499.305 46.592C499.089 46.304 498.693 46.04 498.117 45.8C497.541 45.536 496.641 45.236 495.417 44.9C493.497 44.372 492.069 43.628 491.133 42.668C490.221 41.684 489.765 40.472 489.765 39.032C489.765 37.952 490.077 36.98 490.701 36.116C491.325 35.252 492.201 34.58 493.329 34.1C494.481 33.596 495.813 33.344 497.325 33.344ZM524.343 43.028C524.343 43.268 524.307 43.928 524.235 45.008H512.319C512.487 46.736 512.955 47.96 513.723 48.68C514.491 49.4 515.535 49.76 516.855 49.76C517.671 49.76 518.439 49.628 519.159 49.364C519.879 49.1 520.659 48.68 521.499 48.104L523.623 50.984C521.487 52.712 519.075 53.576 516.387 53.576C513.387 53.576 511.083 52.676 509.475 50.876C507.867 49.076 507.063 46.64 507.063 43.568C507.063 41.624 507.399 39.884 508.071 38.348C508.767 36.788 509.763 35.564 511.059 34.676C512.379 33.788 513.939 33.344 515.739 33.344C518.451 33.344 520.563 34.196 522.075 35.9C523.587 37.604 524.343 39.98 524.343 43.028ZM519.267 41.588C519.267 38.42 518.127 36.836 515.847 36.836C514.791 36.836 513.963 37.232 513.363 38.024C512.787 38.792 512.439 40.052 512.319 41.804H519.267V41.588ZM532.795 53.576C531.235 53.576 530.023 53.132 529.159 52.244C528.295 51.332 527.863 50.048 527.863 48.392V26.324L532.975 25.748V48.248C532.975 49.088 533.323 49.508 534.019 49.508C534.403 49.508 534.739 49.436 535.027 49.292L536.071 52.928C535.087 53.36 533.995 53.576 532.795 53.576ZM550.108 52.1C549.412 52.58 548.62 52.94 547.732 53.18C546.868 53.444 546.004 53.576 545.14 53.576C543.172 53.552 541.684 52.988 540.676 51.884C539.668 50.78 539.164 49.16 539.164 47.024V37.52H536.32V33.92H539.164V29.744L544.276 29.132V33.92H548.668L548.164 37.52H544.276V46.916C544.276 47.828 544.432 48.488 544.744 48.896C545.056 49.304 545.536 49.508 546.184 49.508C546.832 49.508 547.552 49.292 548.344 48.86L550.108 52.1ZM40.856 73.344C43.544 73.344 45.848 74.112 47.768 75.648L45.824 78.564C44.216 77.556 42.632 77.052 41.072 77.052C40.232 77.052 39.584 77.208 39.128 77.52C38.672 77.832 38.444 78.252 38.444 78.78C38.444 79.164 38.54 79.488 38.732 79.752C38.948 80.016 39.332 80.268 39.884 80.508C40.46 80.748 41.312 81.036 42.44 81.372C44.456 81.924 45.956 82.668 46.94 83.604C47.924 84.516 48.416 85.776 48.416 87.384C48.416 88.656 48.044 89.76 47.3 90.696C46.58 91.632 45.596 92.352 44.348 92.856C43.1 93.336 41.708 93.576 40.172 93.576C38.564 93.576 37.1 93.336 35.78 92.856C34.46 92.352 33.332 91.668 32.396 90.804L34.916 87.996C36.524 89.244 38.228 89.868 40.028 89.868C40.988 89.868 41.744 89.688 42.296 89.328C42.872 88.944 43.16 88.428 43.16 87.78C43.16 87.276 43.052 86.88 42.836 86.592C42.62 86.304 42.224 86.04 41.648 85.8C41.072 85.536 40.172 85.236 38.948 84.9C37.028 84.372 35.6 83.628 34.664 82.668C33.752 81.684 33.296 80.472 33.296 79.032C33.296 77.952 33.608 76.98 34.232 76.116C34.856 75.252 35.732 74.58 36.86 74.1C38.012 73.596 39.344 73.344 40.856 73.344ZM62.0426 73.344C64.4426 73.344 66.2186 74.232 67.3706 76.008C68.5466 77.76 69.1346 80.232 69.1346 83.424C69.1346 85.368 68.8346 87.108 68.2346 88.644C67.6346 90.18 66.7586 91.392 65.6066 92.28C64.4786 93.144 63.1346 93.576 61.5746 93.576C59.6306 93.576 58.0586 92.892 56.8586 91.524V100.344L51.7466 100.92V73.92H56.2466L56.4986 76.152C57.2186 75.216 58.0586 74.52 59.0186 74.064C60.0026 73.584 61.0106 73.344 62.0426 73.344ZM60.0626 89.76C62.5586 89.76 63.8066 87.66 63.8066 83.46C63.8066 81.156 63.5306 79.524 62.9786 78.564C62.4266 77.604 61.5866 77.124 60.4586 77.124C59.7386 77.124 59.0666 77.352 58.4426 77.808C57.8426 78.24 57.3146 78.828 56.8586 79.572V87.888C57.6746 89.136 58.7426 89.76 60.0626 89.76ZM81.2199 73.344C84.0759 73.344 86.3079 74.244 87.9159 76.044C89.5239 77.82 90.3279 80.292 90.3279 83.46C90.3279 85.476 89.9559 87.252 89.2119 88.788C88.4919 90.3 87.4359 91.476 86.0439 92.316C84.6759 93.156 83.0559 93.576 81.1839 93.576C78.3279 93.576 76.0839 92.688 74.4519 90.912C72.8439 89.112 72.0399 86.628 72.0399 83.46C72.0399 81.444 72.3999 79.68 73.1199 78.168C73.8639 76.632 74.9199 75.444 76.2879 74.604C77.6799 73.764 79.3239 73.344 81.2199 73.344ZM81.2199 77.16C79.9239 77.16 78.9519 77.676 78.3039 78.708C77.6799 79.716 77.3679 81.3 77.3679 83.46C77.3679 85.62 77.6799 87.216 78.3039 88.248C78.9519 89.256 79.9119 89.76 81.1839 89.76C82.4559 89.76 83.4039 89.256 84.0279 88.248C84.6759 87.216 84.9999 85.62 84.9999 83.46C84.9999 81.3 84.6879 79.716 84.0639 78.708C83.4399 77.676 82.4919 77.16 81.2199 77.16ZM104.079 73.38C104.655 73.38 105.291 73.476 105.987 73.668L105.123 78.6C104.451 78.432 103.887 78.348 103.431 78.348C102.303 78.348 101.427 78.744 100.803 79.536C100.179 80.328 99.6873 81.528 99.3273 83.136V93H94.2153V73.92H98.6433L99.1113 77.628C99.5673 76.284 100.227 75.24 101.091 74.496C101.979 73.752 102.975 73.38 104.079 73.38ZM119.936 92.1C119.24 92.58 118.448 92.94 117.56 93.18C116.696 93.444 115.832 93.576 114.968 93.576C113 93.552 111.512 92.988 110.504 91.884C109.496 90.78 108.992 89.16 108.992 87.024V77.52H106.148V73.92H108.992V69.744L114.104 69.132V73.92H118.496L117.992 77.52H114.104V86.916C114.104 87.828 114.26 88.488 114.572 88.896C114.884 89.304 115.364 89.508 116.012 89.508C116.66 89.508 117.38 89.292 118.172 88.86L119.936 92.1ZM127.312 73.92V93H122.2V73.92H127.312ZM124.72 64.092C125.632 64.092 126.376 64.38 126.952 64.956C127.552 65.508 127.852 66.216 127.852 67.08C127.852 67.944 127.552 68.664 126.952 69.24C126.376 69.792 125.632 70.068 124.72 70.068C123.808 70.068 123.064 69.792 122.488 69.24C121.912 68.664 121.624 67.944 121.624 67.08C121.624 66.216 121.912 65.508 122.488 64.956C123.064 64.38 123.808 64.092 124.72 64.092ZM152.988 73.344C154.5 73.344 155.712 73.86 156.624 74.892C157.56 75.924 158.028 77.328 158.028 79.104V93H152.916V79.968C152.916 78.096 152.292 77.16 151.044 77.16C150.372 77.16 149.784 77.376 149.28 77.808C148.776 78.24 148.26 78.912 147.732 79.824V93H142.62V79.968C142.62 78.096 141.996 77.16 140.748 77.16C140.076 77.16 139.488 77.388 138.984 77.844C138.48 78.276 137.976 78.936 137.472 79.824V93H132.36V73.92H136.788L137.184 76.296C137.904 75.336 138.708 74.604 139.596 74.1C140.508 73.596 141.552 73.344 142.728 73.344C143.808 73.344 144.744 73.62 145.536 74.172C146.328 74.7 146.904 75.456 147.264 76.44C148.056 75.408 148.908 74.64 149.82 74.136C150.756 73.608 151.812 73.344 152.988 73.344ZM177.455 87.708C177.455 88.452 177.563 89.004 177.779 89.364C177.995 89.7 178.355 89.952 178.859 90.12L177.779 93.504C176.651 93.408 175.727 93.144 175.007 92.712C174.311 92.28 173.771 91.608 173.387 90.696C172.139 92.616 170.231 93.576 167.663 93.576C165.767 93.576 164.255 93.036 163.127 91.956C162.023 90.852 161.471 89.424 161.471 87.672C161.471 85.584 162.227 83.988 163.739 82.884C165.251 81.78 167.423 81.228 170.255 81.228H172.451V80.292C172.451 79.116 172.187 78.3 171.659 77.844C171.131 77.388 170.255 77.16 169.031 77.16C167.687 77.16 166.007 77.496 163.991 78.168L162.839 74.748C165.215 73.812 167.567 73.344 169.895 73.344C172.487 73.344 174.395 73.908 175.619 75.036C176.843 76.14 177.455 77.796 177.455 80.004V87.708ZM169.067 89.904C170.507 89.904 171.635 89.196 172.451 87.78V84.144H170.759C167.999 84.144 166.619 85.176 166.619 87.24C166.619 88.08 166.823 88.74 167.231 89.22C167.663 89.676 168.275 89.904 169.067 89.904ZM184.327 87.42C185.191 87.42 185.923 87.72 186.523 88.32C187.123 88.92 187.423 89.64 187.423 90.48C187.423 91.32 187.123 92.052 186.523 92.676C185.923 93.276 185.191 93.576 184.327 93.576C183.487 93.576 182.767 93.276 182.167 92.676C181.567 92.052 181.267 91.32 181.267 90.48C181.267 89.64 181.567 88.92 182.167 88.32C182.767 87.72 183.487 87.42 184.327 87.42Z" fill="#E3000F"/>
<path d="M36.875 110.938V128H33.9336V110.938H36.875ZM47.3633 124.566C47.3633 124.285 47.293 124.031 47.1523 123.805C47.0117 123.57 46.7422 123.359 46.3438 123.172C45.9531 122.984 45.375 122.812 44.6094 122.656C43.9375 122.508 43.3203 122.332 42.7578 122.129C42.2031 121.918 41.7266 121.664 41.3281 121.367C40.9297 121.07 40.6211 120.719 40.4023 120.312C40.1836 119.906 40.0742 119.438 40.0742 118.906C40.0742 118.391 40.1875 117.902 40.4141 117.441C40.6406 116.98 40.9648 116.574 41.3867 116.223C41.8086 115.871 42.3203 115.594 42.9219 115.391C43.5312 115.188 44.2109 115.086 44.9609 115.086C46.0234 115.086 46.9336 115.266 47.6914 115.625C48.457 115.977 49.043 116.457 49.4492 117.066C49.8555 117.668 50.0586 118.348 50.0586 119.105H47.2344C47.2344 118.77 47.1484 118.457 46.9766 118.168C46.8125 117.871 46.5625 117.633 46.2266 117.453C45.8906 117.266 45.4688 117.172 44.9609 117.172C44.4766 117.172 44.0742 117.25 43.7539 117.406C43.4414 117.555 43.207 117.75 43.0508 117.992C42.9023 118.234 42.8281 118.5 42.8281 118.789C42.8281 119 42.8672 119.191 42.9453 119.363C43.0312 119.527 43.1719 119.68 43.3672 119.82C43.5625 119.953 43.8281 120.078 44.1641 120.195C44.5078 120.312 44.9375 120.426 45.4531 120.535C46.4219 120.738 47.2539 121 47.9492 121.32C48.6523 121.633 49.1914 122.039 49.5664 122.539C49.9414 123.031 50.1289 123.656 50.1289 124.414C50.1289 124.977 50.0078 125.492 49.7656 125.961C49.5312 126.422 49.1875 126.824 48.7344 127.168C48.2812 127.504 47.7383 127.766 47.1055 127.953C46.4805 128.141 45.7773 128.234 44.9961 128.234C43.8477 128.234 42.875 128.031 42.0781 127.625C41.2812 127.211 40.6758 126.684 40.2617 126.043C39.8555 125.395 39.6523 124.723 39.6523 124.027H42.3828C42.4141 124.551 42.5586 124.969 42.8164 125.281C43.082 125.586 43.4102 125.809 43.8008 125.949C44.1992 126.082 44.6094 126.148 45.0312 126.148C45.5391 126.148 45.9648 126.082 46.3086 125.949C46.6523 125.809 46.9141 125.621 47.0938 125.387C47.2734 125.145 47.3633 124.871 47.3633 124.566ZM58.1914 128.234C57.2539 128.234 56.4062 128.082 55.6484 127.777C54.8984 127.465 54.2578 127.031 53.7266 126.477C53.2031 125.922 52.8008 125.27 52.5195 124.52C52.2383 123.77 52.0977 122.961 52.0977 122.094V121.625C52.0977 120.633 52.2422 119.734 52.5312 118.93C52.8203 118.125 53.2227 117.438 53.7383 116.867C54.2539 116.289 54.8633 115.848 55.5664 115.543C56.2695 115.238 57.0312 115.086 57.8516 115.086C58.7578 115.086 59.5508 115.238 60.2305 115.543C60.9102 115.848 61.4727 116.277 61.918 116.832C62.3711 117.379 62.707 118.031 62.9258 118.789C63.1523 119.547 63.2656 120.383 63.2656 121.297V122.504H53.4688V120.477H60.4766V120.254C60.4609 119.746 60.3594 119.27 60.1719 118.824C59.9922 118.379 59.7148 118.02 59.3398 117.746C58.9648 117.473 58.4648 117.336 57.8398 117.336C57.3711 117.336 56.9531 117.438 56.5859 117.641C56.2266 117.836 55.9258 118.121 55.6836 118.496C55.4414 118.871 55.2539 119.324 55.1211 119.855C54.9961 120.379 54.9336 120.969 54.9336 121.625V122.094C54.9336 122.648 55.0078 123.164 55.1562 123.641C55.3125 124.109 55.5391 124.52 55.8359 124.871C56.1328 125.223 56.4922 125.5 56.9141 125.703C57.3359 125.898 57.8164 125.996 58.3555 125.996C59.0352 125.996 59.6406 125.859 60.1719 125.586C60.7031 125.312 61.1641 124.926 61.5547 124.426L63.043 125.867C62.7695 126.266 62.4141 126.648 61.9766 127.016C61.5391 127.375 61.0039 127.668 60.3711 127.895C59.7461 128.121 59.0195 128.234 58.1914 128.234ZM73.5898 115.32H76.1562V127.648C76.1562 128.789 75.9141 129.758 75.4297 130.555C74.9453 131.352 74.2695 131.957 73.4023 132.371C72.5352 132.793 71.5312 133.004 70.3906 133.004C69.9062 133.004 69.3672 132.934 68.7734 132.793C68.1875 132.652 67.6172 132.426 67.0625 132.113C66.5156 131.809 66.0586 131.406 65.6914 130.906L67.0156 129.242C67.4688 129.781 67.9688 130.176 68.5156 130.426C69.0625 130.676 69.6367 130.801 70.2383 130.801C70.8867 130.801 71.4375 130.68 71.8906 130.438C72.3516 130.203 72.707 129.855 72.957 129.395C73.207 128.934 73.332 128.371 73.332 127.707V118.191L73.5898 115.32ZM64.9766 121.801V121.555C64.9766 120.594 65.0938 119.719 65.3281 118.93C65.5625 118.133 65.8984 117.449 66.3359 116.879C66.7734 116.301 67.3047 115.859 67.9297 115.555C68.5547 115.242 69.2617 115.086 70.0508 115.086C70.8711 115.086 71.5703 115.234 72.1484 115.531C72.7344 115.828 73.2227 116.254 73.6133 116.809C74.0039 117.355 74.3086 118.012 74.5273 118.777C74.7539 119.535 74.9219 120.379 75.0312 121.309V122.094C74.9297 123 74.7578 123.828 74.5156 124.578C74.2734 125.328 73.9531 125.977 73.5547 126.523C73.1562 127.07 72.6641 127.492 72.0781 127.789C71.5 128.086 70.8164 128.234 70.0273 128.234C69.2539 128.234 68.5547 128.074 67.9297 127.754C67.3125 127.434 66.7812 126.984 66.3359 126.406C65.8984 125.828 65.5625 125.148 65.3281 124.367C65.0938 123.578 64.9766 122.723 64.9766 121.801ZM67.8008 121.555V121.801C67.8008 122.379 67.8555 122.918 67.9648 123.418C68.082 123.918 68.2578 124.359 68.4922 124.742C68.7344 125.117 69.0391 125.414 69.4062 125.633C69.7812 125.844 70.2227 125.949 70.7305 125.949C71.3945 125.949 71.9375 125.809 72.3594 125.527C72.7891 125.246 73.1172 124.867 73.3438 124.391C73.5781 123.906 73.7422 123.367 73.8359 122.773V120.652C73.7891 120.191 73.6914 119.762 73.543 119.363C73.4023 118.965 73.2109 118.617 72.9688 118.32C72.7266 118.016 72.4219 117.781 72.0547 117.617C71.6875 117.445 71.2539 117.359 70.7539 117.359C70.2461 117.359 69.8047 117.469 69.4297 117.688C69.0547 117.906 68.7461 118.207 68.5039 118.59C68.2695 118.973 68.0938 119.418 67.9766 119.926C67.8594 120.434 67.8008 120.977 67.8008 121.555ZM82.1094 115.32V128H79.2734V115.32H82.1094ZM79.0859 111.992C79.0859 111.562 79.2266 111.207 79.5078 110.926C79.7969 110.637 80.1953 110.492 80.7031 110.492C81.2031 110.492 81.5977 110.637 81.8867 110.926C82.1758 111.207 82.3203 111.562 82.3203 111.992C82.3203 112.414 82.1758 112.766 81.8867 113.047C81.5977 113.328 81.2031 113.469 80.7031 113.469C80.1953 113.469 79.7969 113.328 79.5078 113.047C79.2266 112.766 79.0859 112.414 79.0859 111.992ZM94.0273 110V128H91.1914V110H94.0273ZM101.902 115.32L96.3828 121.438L93.3594 124.531L92.6211 122.141L94.9062 119.316L98.4922 115.32H101.902ZM99.1016 128L94.9883 122.047L96.7695 120.066L102.371 128H99.1016ZM111.324 125.012V115.32H114.16V128H111.488L111.324 125.012ZM111.723 122.375L112.672 122.352C112.672 123.203 112.578 123.988 112.391 124.707C112.203 125.418 111.914 126.039 111.523 126.57C111.133 127.094 110.633 127.504 110.023 127.801C109.414 128.09 108.684 128.234 107.832 128.234C107.215 128.234 106.648 128.145 106.133 127.965C105.617 127.785 105.172 127.508 104.797 127.133C104.43 126.758 104.145 126.27 103.941 125.668C103.738 125.066 103.637 124.348 103.637 123.512V115.32H106.461V123.535C106.461 123.996 106.516 124.383 106.625 124.695C106.734 125 106.883 125.246 107.07 125.434C107.258 125.621 107.477 125.754 107.727 125.832C107.977 125.91 108.242 125.949 108.523 125.949C109.328 125.949 109.961 125.793 110.422 125.48C110.891 125.16 111.223 124.73 111.418 124.191C111.621 123.652 111.723 123.047 111.723 122.375ZM120.078 115.32V128H117.242V115.32H120.078ZM117.055 111.992C117.055 111.562 117.195 111.207 117.477 110.926C117.766 110.637 118.164 110.492 118.672 110.492C119.172 110.492 119.566 110.637 119.855 110.926C120.145 111.207 120.289 111.562 120.289 111.992C120.289 112.414 120.145 112.766 119.855 113.047C119.566 113.328 119.172 113.469 118.672 113.469C118.164 113.469 117.766 113.328 117.477 113.047C117.195 112.766 117.055 112.414 117.055 111.992ZM136.262 124.566C136.262 124.285 136.191 124.031 136.051 123.805C135.91 123.57 135.641 123.359 135.242 123.172C134.852 122.984 134.273 122.812 133.508 122.656C132.836 122.508 132.219 122.332 131.656 122.129C131.102 121.918 130.625 121.664 130.227 121.367C129.828 121.07 129.52 120.719 129.301 120.312C129.082 119.906 128.973 119.438 128.973 118.906C128.973 118.391 129.086 117.902 129.312 117.441C129.539 116.98 129.863 116.574 130.285 116.223C130.707 115.871 131.219 115.594 131.82 115.391C132.43 115.188 133.109 115.086 133.859 115.086C134.922 115.086 135.832 115.266 136.59 115.625C137.355 115.977 137.941 116.457 138.348 117.066C138.754 117.668 138.957 118.348 138.957 119.105H136.133C136.133 118.77 136.047 118.457 135.875 118.168C135.711 117.871 135.461 117.633 135.125 117.453C134.789 117.266 134.367 117.172 133.859 117.172C133.375 117.172 132.973 117.25 132.652 117.406C132.34 117.555 132.105 117.75 131.949 117.992C131.801 118.234 131.727 118.5 131.727 118.789C131.727 119 131.766 119.191 131.844 119.363C131.93 119.527 132.07 119.68 132.266 119.82C132.461 119.953 132.727 120.078 133.062 120.195C133.406 120.312 133.836 120.426 134.352 120.535C135.32 120.738 136.152 121 136.848 121.32C137.551 121.633 138.09 122.039 138.465 122.539C138.84 123.031 139.027 123.656 139.027 124.414C139.027 124.977 138.906 125.492 138.664 125.961C138.43 126.422 138.086 126.824 137.633 127.168C137.18 127.504 136.637 127.766 136.004 127.953C135.379 128.141 134.676 128.234 133.895 128.234C132.746 128.234 131.773 128.031 130.977 127.625C130.18 127.211 129.574 126.684 129.16 126.043C128.754 125.395 128.551 124.723 128.551 124.027H131.281C131.312 124.551 131.457 124.969 131.715 125.281C131.98 125.586 132.309 125.809 132.699 125.949C133.098 126.082 133.508 126.148 133.93 126.148C134.438 126.148 134.863 126.082 135.207 125.949C135.551 125.809 135.812 125.621 135.992 125.387C136.172 125.145 136.262 124.871 136.262 124.566ZM147.09 128.234C146.152 128.234 145.305 128.082 144.547 127.777C143.797 127.465 143.156 127.031 142.625 126.477C142.102 125.922 141.699 125.27 141.418 124.52C141.137 123.77 140.996 122.961 140.996 122.094V121.625C140.996 120.633 141.141 119.734 141.43 118.93C141.719 118.125 142.121 117.438 142.637 116.867C143.152 116.289 143.762 115.848 144.465 115.543C145.168 115.238 145.93 115.086 146.75 115.086C147.656 115.086 148.449 115.238 149.129 115.543C149.809 115.848 150.371 116.277 150.816 116.832C151.27 117.379 151.605 118.031 151.824 118.789C152.051 119.547 152.164 120.383 152.164 121.297V122.504H142.367V120.477H149.375V120.254C149.359 119.746 149.258 119.27 149.07 118.824C148.891 118.379 148.613 118.02 148.238 117.746C147.863 117.473 147.363 117.336 146.738 117.336C146.27 117.336 145.852 117.438 145.484 117.641C145.125 117.836 144.824 118.121 144.582 118.496C144.34 118.871 144.152 119.324 144.02 119.855C143.895 120.379 143.832 120.969 143.832 121.625V122.094C143.832 122.648 143.906 123.164 144.055 123.641C144.211 124.109 144.438 124.52 144.734 124.871C145.031 125.223 145.391 125.5 145.812 125.703C146.234 125.898 146.715 125.996 147.254 125.996C147.934 125.996 148.539 125.859 149.07 125.586C149.602 125.312 150.062 124.926 150.453 124.426L151.941 125.867C151.668 126.266 151.312 126.648 150.875 127.016C150.438 127.375 149.902 127.668 149.27 127.895C148.645 128.121 147.918 128.234 147.09 128.234ZM159.957 128.234C159.02 128.234 158.172 128.082 157.414 127.777C156.664 127.465 156.023 127.031 155.492 126.477C154.969 125.922 154.566 125.27 154.285 124.52C154.004 123.77 153.863 122.961 153.863 122.094V121.625C153.863 120.633 154.008 119.734 154.297 118.93C154.586 118.125 154.988 117.438 155.504 116.867C156.02 116.289 156.629 115.848 157.332 115.543C158.035 115.238 158.797 115.086 159.617 115.086C160.523 115.086 161.316 115.238 161.996 115.543C162.676 115.848 163.238 116.277 163.684 116.832C164.137 117.379 164.473 118.031 164.691 118.789C164.918 119.547 165.031 120.383 165.031 121.297V122.504H155.234V120.477H162.242V120.254C162.227 119.746 162.125 119.27 161.938 118.824C161.758 118.379 161.48 118.02 161.105 117.746C160.73 117.473 160.23 117.336 159.605 117.336C159.137 117.336 158.719 117.438 158.352 117.641C157.992 117.836 157.691 118.121 157.449 118.496C157.207 118.871 157.02 119.324 156.887 119.855C156.762 120.379 156.699 120.969 156.699 121.625V122.094C156.699 122.648 156.773 123.164 156.922 123.641C157.078 124.109 157.305 124.52 157.602 124.871C157.898 125.223 158.258 125.5 158.68 125.703C159.102 125.898 159.582 125.996 160.121 125.996C160.801 125.996 161.406 125.859 161.938 125.586C162.469 125.312 162.93 124.926 163.32 124.426L164.809 125.867C164.535 126.266 164.18 126.648 163.742 127.016C163.305 127.375 162.77 127.668 162.137 127.895C161.512 128.121 160.785 128.234 159.957 128.234ZM173.352 115.32H176.188V129.102C176.188 129.969 176.039 130.699 175.742 131.293C175.445 131.895 175.008 132.348 174.43 132.652C173.852 132.965 173.145 133.121 172.309 133.121C172.059 133.121 171.801 133.102 171.535 133.062C171.262 133.031 171.004 132.984 170.762 132.922L170.773 130.719C170.938 130.75 171.113 130.773 171.301 130.789C171.48 130.812 171.652 130.824 171.816 130.824C172.152 130.824 172.434 130.766 172.66 130.648C172.887 130.531 173.059 130.348 173.176 130.098C173.293 129.848 173.352 129.516 173.352 129.102V115.32ZM173.105 111.992C173.105 111.562 173.25 111.207 173.539 110.926C173.828 110.637 174.223 110.492 174.723 110.492C175.23 110.492 175.625 110.637 175.906 110.926C176.195 111.207 176.34 111.562 176.34 111.992C176.34 112.414 176.195 112.766 175.906 113.047C175.625 113.328 175.23 113.469 174.723 113.469C174.223 113.469 173.828 113.328 173.539 113.047C173.25 112.766 173.105 112.414 173.105 111.992ZM186.383 125.457V119.41C186.383 118.957 186.301 118.566 186.137 118.238C185.973 117.91 185.723 117.656 185.387 117.477C185.059 117.297 184.645 117.207 184.145 117.207C183.684 117.207 183.285 117.285 182.949 117.441C182.613 117.598 182.352 117.809 182.164 118.074C181.977 118.34 181.883 118.641 181.883 118.977H179.07C179.07 118.477 179.191 117.992 179.434 117.523C179.676 117.055 180.027 116.637 180.488 116.27C180.949 115.902 181.5 115.613 182.141 115.402C182.781 115.191 183.5 115.086 184.297 115.086C185.25 115.086 186.094 115.246 186.828 115.566C187.57 115.887 188.152 116.371 188.574 117.02C189.004 117.66 189.219 118.465 189.219 119.434V125.07C189.219 125.648 189.258 126.168 189.336 126.629C189.422 127.082 189.543 127.477 189.699 127.812V128H186.805C186.672 127.695 186.566 127.309 186.488 126.84C186.418 126.363 186.383 125.902 186.383 125.457ZM186.793 120.289L186.816 122.035H184.789C184.266 122.035 183.805 122.086 183.406 122.188C183.008 122.281 182.676 122.422 182.41 122.609C182.145 122.797 181.945 123.023 181.812 123.289C181.68 123.555 181.613 123.855 181.613 124.191C181.613 124.527 181.691 124.836 181.848 125.117C182.004 125.391 182.23 125.605 182.527 125.762C182.832 125.918 183.199 125.996 183.629 125.996C184.207 125.996 184.711 125.879 185.141 125.645C185.578 125.402 185.922 125.109 186.172 124.766C186.422 124.414 186.555 124.082 186.57 123.77L187.484 125.023C187.391 125.344 187.23 125.688 187.004 126.055C186.777 126.422 186.48 126.773 186.113 127.109C185.754 127.438 185.32 127.707 184.812 127.918C184.312 128.129 183.734 128.234 183.078 128.234C182.25 128.234 181.512 128.07 180.863 127.742C180.215 127.406 179.707 126.957 179.34 126.395C178.973 125.824 178.789 125.18 178.789 124.461C178.789 123.789 178.914 123.195 179.164 122.68C179.422 122.156 179.797 121.719 180.289 121.367C180.789 121.016 181.398 120.75 182.117 120.57C182.836 120.383 183.656 120.289 184.578 120.289H186.793ZM180.242 111.957C180.242 111.574 180.375 111.254 180.641 110.996C180.906 110.73 181.258 110.598 181.695 110.598C182.141 110.598 182.496 110.73 182.762 110.996C183.027 111.254 183.16 111.574 183.16 111.957C183.16 112.332 183.027 112.652 182.762 112.918C182.496 113.176 182.141 113.305 181.695 113.305C181.258 113.305 180.906 113.176 180.641 112.918C180.375 112.652 180.242 112.332 180.242 111.957ZM185.668 111.969C185.668 111.586 185.801 111.266 186.066 111.008C186.332 110.742 186.688 110.609 187.133 110.609C187.57 110.609 187.922 110.742 188.188 111.008C188.461 111.266 188.598 111.586 188.598 111.969C188.598 112.344 188.461 112.664 188.188 112.93C187.922 113.188 187.57 113.316 187.133 113.316C186.688 113.316 186.332 113.188 186.066 112.93C185.801 112.664 185.668 112.344 185.668 111.969ZM199.32 125.457V119.41C199.32 118.957 199.238 118.566 199.074 118.238C198.91 117.91 198.66 117.656 198.324 117.477C197.996 117.297 197.582 117.207 197.082 117.207C196.621 117.207 196.223 117.285 195.887 117.441C195.551 117.598 195.289 117.809 195.102 118.074C194.914 118.34 194.82 118.641 194.82 118.977H192.008C192.008 118.477 192.129 117.992 192.371 117.523C192.613 117.055 192.965 116.637 193.426 116.27C193.887 115.902 194.438 115.613 195.078 115.402C195.719 115.191 196.438 115.086 197.234 115.086C198.188 115.086 199.031 115.246 199.766 115.566C200.508 115.887 201.09 116.371 201.512 117.02C201.941 117.66 202.156 118.465 202.156 119.434V125.07C202.156 125.648 202.195 126.168 202.273 126.629C202.359 127.082 202.48 127.477 202.637 127.812V128H199.742C199.609 127.695 199.504 127.309 199.426 126.84C199.355 126.363 199.32 125.902 199.32 125.457ZM199.73 120.289L199.754 122.035H197.727C197.203 122.035 196.742 122.086 196.344 122.188C195.945 122.281 195.613 122.422 195.348 122.609C195.082 122.797 194.883 123.023 194.75 123.289C194.617 123.555 194.551 123.855 194.551 124.191C194.551 124.527 194.629 124.836 194.785 125.117C194.941 125.391 195.168 125.605 195.465 125.762C195.77 125.918 196.137 125.996 196.566 125.996C197.145 125.996 197.648 125.879 198.078 125.645C198.516 125.402 198.859 125.109 199.109 124.766C199.359 124.414 199.492 124.082 199.508 123.77L200.422 125.023C200.328 125.344 200.168 125.688 199.941 126.055C199.715 126.422 199.418 126.773 199.051 127.109C198.691 127.438 198.258 127.707 197.75 127.918C197.25 128.129 196.672 128.234 196.016 128.234C195.188 128.234 194.449 128.07 193.801 127.742C193.152 127.406 192.645 126.957 192.277 126.395C191.91 125.824 191.727 125.18 191.727 124.461C191.727 123.789 191.852 123.195 192.102 122.68C192.359 122.156 192.734 121.719 193.227 121.367C193.727 121.016 194.336 120.75 195.055 120.57C195.773 120.383 196.594 120.289 197.516 120.289H199.73ZM193.18 111.957C193.18 111.574 193.312 111.254 193.578 110.996C193.844 110.73 194.195 110.598 194.633 110.598C195.078 110.598 195.434 110.73 195.699 110.996C195.965 111.254 196.098 111.574 196.098 111.957C196.098 112.332 195.965 112.652 195.699 112.918C195.434 113.176 195.078 113.305 194.633 113.305C194.195 113.305 193.844 113.176 193.578 112.918C193.312 112.652 193.18 112.332 193.18 111.957ZM198.605 111.969C198.605 111.586 198.738 111.266 199.004 111.008C199.27 110.742 199.625 110.609 200.07 110.609C200.508 110.609 200.859 110.742 201.125 111.008C201.398 111.266 201.535 111.586 201.535 111.969C201.535 112.344 201.398 112.664 201.125 112.93C200.859 113.188 200.508 113.316 200.07 113.316C199.625 113.316 199.27 113.188 199.004 112.93C198.738 112.664 198.605 112.344 198.605 111.969ZM205.121 110H207.945V125.293L207.676 128H205.121V110ZM216.219 121.543V121.789C216.219 122.727 216.113 123.59 215.902 124.379C215.699 125.16 215.387 125.84 214.965 126.418C214.551 126.996 214.035 127.445 213.418 127.766C212.809 128.078 212.102 128.234 211.297 128.234C210.508 128.234 209.82 128.086 209.234 127.789C208.648 127.492 208.156 127.07 207.758 126.523C207.367 125.977 207.051 125.324 206.809 124.566C206.566 123.809 206.395 122.973 206.293 122.059V121.273C206.395 120.352 206.566 119.516 206.809 118.766C207.051 118.008 207.367 117.355 207.758 116.809C208.156 116.254 208.645 115.828 209.223 115.531C209.809 115.234 210.492 115.086 211.273 115.086C212.086 115.086 212.801 115.242 213.418 115.555C214.043 115.867 214.562 116.312 214.977 116.891C215.391 117.461 215.699 118.141 215.902 118.93C216.113 119.719 216.219 120.59 216.219 121.543ZM213.395 121.789V121.543C213.395 120.973 213.348 120.438 213.254 119.938C213.16 119.43 213.004 118.984 212.785 118.602C212.574 118.219 212.285 117.918 211.918 117.699C211.559 117.473 211.109 117.359 210.57 117.359C210.07 117.359 209.641 117.445 209.281 117.617C208.922 117.789 208.621 118.023 208.379 118.32C208.137 118.617 207.945 118.961 207.805 119.352C207.672 119.742 207.582 120.164 207.535 120.617V122.738C207.605 123.324 207.754 123.863 207.98 124.355C208.215 124.84 208.543 125.23 208.965 125.527C209.387 125.816 209.93 125.961 210.594 125.961C211.117 125.961 211.559 125.855 211.918 125.645C212.277 125.434 212.562 125.141 212.773 124.766C212.992 124.383 213.148 123.938 213.242 123.43C213.344 122.922 213.395 122.375 213.395 121.789ZM227.422 117.758V132.875H224.598V115.32H227.199L227.422 117.758ZM235.684 121.543V121.789C235.684 122.711 235.574 123.566 235.355 124.355C235.145 125.137 234.828 125.82 234.406 126.406C233.992 126.984 233.48 127.434 232.871 127.754C232.262 128.074 231.559 128.234 230.762 128.234C229.973 128.234 229.281 128.09 228.688 127.801C228.102 127.504 227.605 127.086 227.199 126.547C226.793 126.008 226.465 125.375 226.215 124.648C225.973 123.914 225.801 123.109 225.699 122.234V121.285C225.801 120.355 225.973 119.512 226.215 118.754C226.465 117.996 226.793 117.344 227.199 116.797C227.605 116.25 228.102 115.828 228.688 115.531C229.273 115.234 229.957 115.086 230.738 115.086C231.535 115.086 232.242 115.242 232.859 115.555C233.477 115.859 233.996 116.297 234.418 116.867C234.84 117.43 235.156 118.109 235.367 118.906C235.578 119.695 235.684 120.574 235.684 121.543ZM232.859 121.789V121.543C232.859 120.957 232.805 120.414 232.695 119.914C232.586 119.406 232.414 118.961 232.18 118.578C231.945 118.195 231.645 117.898 231.277 117.688C230.918 117.469 230.484 117.359 229.977 117.359C229.477 117.359 229.047 117.445 228.688 117.617C228.328 117.781 228.027 118.012 227.785 118.309C227.543 118.605 227.355 118.953 227.223 119.352C227.09 119.742 226.996 120.168 226.941 120.629V122.902C227.035 123.465 227.195 123.98 227.422 124.449C227.648 124.918 227.969 125.293 228.383 125.574C228.805 125.848 229.344 125.984 230 125.984C230.508 125.984 230.941 125.875 231.301 125.656C231.66 125.438 231.953 125.137 232.18 124.754C232.414 124.363 232.586 123.914 232.695 123.406C232.805 122.898 232.859 122.359 232.859 121.789ZM241.109 110V128H238.273V110H241.109ZM251.352 125.457V119.41C251.352 118.957 251.27 118.566 251.105 118.238C250.941 117.91 250.691 117.656 250.355 117.477C250.027 117.297 249.613 117.207 249.113 117.207C248.652 117.207 248.254 117.285 247.918 117.441C247.582 117.598 247.32 117.809 247.133 118.074C246.945 118.34 246.852 118.641 246.852 118.977H244.039C244.039 118.477 244.16 117.992 244.402 117.523C244.645 117.055 244.996 116.637 245.457 116.27C245.918 115.902 246.469 115.613 247.109 115.402C247.75 115.191 248.469 115.086 249.266 115.086C250.219 115.086 251.062 115.246 251.797 115.566C252.539 115.887 253.121 116.371 253.543 117.02C253.973 117.66 254.188 118.465 254.188 119.434V125.07C254.188 125.648 254.227 126.168 254.305 126.629C254.391 127.082 254.512 127.477 254.668 127.812V128H251.773C251.641 127.695 251.535 127.309 251.457 126.84C251.387 126.363 251.352 125.902 251.352 125.457ZM251.762 120.289L251.785 122.035H249.758C249.234 122.035 248.773 122.086 248.375 122.188C247.977 122.281 247.645 122.422 247.379 122.609C247.113 122.797 246.914 123.023 246.781 123.289C246.648 123.555 246.582 123.855 246.582 124.191C246.582 124.527 246.66 124.836 246.816 125.117C246.973 125.391 247.199 125.605 247.496 125.762C247.801 125.918 248.168 125.996 248.598 125.996C249.176 125.996 249.68 125.879 250.109 125.645C250.547 125.402 250.891 125.109 251.141 124.766C251.391 124.414 251.523 124.082 251.539 123.77L252.453 125.023C252.359 125.344 252.199 125.688 251.973 126.055C251.746 126.422 251.449 126.773 251.082 127.109C250.723 127.438 250.289 127.707 249.781 127.918C249.281 128.129 248.703 128.234 248.047 128.234C247.219 128.234 246.48 128.07 245.832 127.742C245.184 127.406 244.676 126.957 244.309 126.395C243.941 125.824 243.758 125.18 243.758 124.461C243.758 123.789 243.883 123.195 244.133 122.68C244.391 122.156 244.766 121.719 245.258 121.367C245.758 121.016 246.367 120.75 247.086 120.57C247.805 120.383 248.625 120.289 249.547 120.289H251.762ZM264.289 125.457V119.41C264.289 118.957 264.207 118.566 264.043 118.238C263.879 117.91 263.629 117.656 263.293 117.477C262.965 117.297 262.551 117.207 262.051 117.207C261.59 117.207 261.191 117.285 260.855 117.441C260.52 117.598 260.258 117.809 260.07 118.074C259.883 118.34 259.789 118.641 259.789 118.977H256.977C256.977 118.477 257.098 117.992 257.34 117.523C257.582 117.055 257.934 116.637 258.395 116.27C258.855 115.902 259.406 115.613 260.047 115.402C260.688 115.191 261.406 115.086 262.203 115.086C263.156 115.086 264 115.246 264.734 115.566C265.477 115.887 266.059 116.371 266.48 117.02C266.91 117.66 267.125 118.465 267.125 119.434V125.07C267.125 125.648 267.164 126.168 267.242 126.629C267.328 127.082 267.449 127.477 267.605 127.812V128H264.711C264.578 127.695 264.473 127.309 264.395 126.84C264.324 126.363 264.289 125.902 264.289 125.457ZM264.699 120.289L264.723 122.035H262.695C262.172 122.035 261.711 122.086 261.312 122.188C260.914 122.281 260.582 122.422 260.316 122.609C260.051 122.797 259.852 123.023 259.719 123.289C259.586 123.555 259.52 123.855 259.52 124.191C259.52 124.527 259.598 124.836 259.754 125.117C259.91 125.391 260.137 125.605 260.434 125.762C260.738 125.918 261.105 125.996 261.535 125.996C262.113 125.996 262.617 125.879 263.047 125.645C263.484 125.402 263.828 125.109 264.078 124.766C264.328 124.414 264.461 124.082 264.477 123.77L265.391 125.023C265.297 125.344 265.137 125.688 264.91 126.055C264.684 126.422 264.387 126.773 264.02 127.109C263.66 127.438 263.227 127.707 262.719 127.918C262.219 128.129 261.641 128.234 260.984 128.234C260.156 128.234 259.418 128.07 258.77 127.742C258.121 127.406 257.613 126.957 257.246 126.395C256.879 125.824 256.695 125.18 256.695 124.461C256.695 123.789 256.82 123.195 257.07 122.68C257.328 122.156 257.703 121.719 258.195 121.367C258.695 121.016 259.305 120.75 260.023 120.57C260.742 120.383 261.562 120.289 262.484 120.289H264.699ZM272.879 118.027V128H270.055V115.32H272.715L272.879 118.027ZM272.375 121.191L271.461 121.18C271.469 120.281 271.594 119.457 271.836 118.707C272.086 117.957 272.43 117.312 272.867 116.773C273.312 116.234 273.844 115.82 274.461 115.531C275.078 115.234 275.766 115.086 276.523 115.086C277.133 115.086 277.684 115.172 278.176 115.344C278.676 115.508 279.102 115.777 279.453 116.152C279.812 116.527 280.086 117.016 280.273 117.617C280.461 118.211 280.555 118.941 280.555 119.809V128H277.719V119.797C277.719 119.188 277.629 118.707 277.449 118.355C277.277 117.996 277.023 117.742 276.688 117.594C276.359 117.438 275.949 117.359 275.457 117.359C274.973 117.359 274.539 117.461 274.156 117.664C273.773 117.867 273.449 118.145 273.184 118.496C272.926 118.848 272.727 119.254 272.586 119.715C272.445 120.176 272.375 120.668 272.375 121.191ZM286.461 115.32V128H283.625V115.32H286.461ZM283.438 111.992C283.438 111.562 283.578 111.207 283.859 110.926C284.148 110.637 284.547 110.492 285.055 110.492C285.555 110.492 285.949 110.637 286.238 110.926C286.527 111.207 286.672 111.562 286.672 111.992C286.672 112.414 286.527 112.766 286.238 113.047C285.949 113.328 285.555 113.469 285.055 113.469C284.547 113.469 284.148 113.328 283.859 113.047C283.578 112.766 283.438 112.414 283.438 111.992ZM292.402 110V128H289.566V110H292.402ZM300.277 115.32L294.758 121.438L291.734 124.531L290.996 122.141L293.281 119.316L296.867 115.32H300.277ZM297.477 128L293.363 122.047L295.145 120.066L300.746 128H297.477ZM309.184 124.566C309.184 124.285 309.113 124.031 308.973 123.805C308.832 123.57 308.562 123.359 308.164 123.172C307.773 122.984 307.195 122.812 306.43 122.656C305.758 122.508 305.141 122.332 304.578 122.129C304.023 121.918 303.547 121.664 303.148 121.367C302.75 121.07 302.441 120.719 302.223 120.312C302.004 119.906 301.895 119.438 301.895 118.906C301.895 118.391 302.008 117.902 302.234 117.441C302.461 116.98 302.785 116.574 303.207 116.223C303.629 115.871 304.141 115.594 304.742 115.391C305.352 115.188 306.031 115.086 306.781 115.086C307.844 115.086 308.754 115.266 309.512 115.625C310.277 115.977 310.863 116.457 311.27 117.066C311.676 117.668 311.879 118.348 311.879 119.105H309.055C309.055 118.77 308.969 118.457 308.797 118.168C308.633 117.871 308.383 117.633 308.047 117.453C307.711 117.266 307.289 117.172 306.781 117.172C306.297 117.172 305.895 117.25 305.574 117.406C305.262 117.555 305.027 117.75 304.871 117.992C304.723 118.234 304.648 118.5 304.648 118.789C304.648 119 304.688 119.191 304.766 119.363C304.852 119.527 304.992 119.68 305.188 119.82C305.383 119.953 305.648 120.078 305.984 120.195C306.328 120.312 306.758 120.426 307.273 120.535C308.242 120.738 309.074 121 309.77 121.32C310.473 121.633 311.012 122.039 311.387 122.539C311.762 123.031 311.949 123.656 311.949 124.414C311.949 124.977 311.828 125.492 311.586 125.961C311.352 126.422 311.008 126.824 310.555 127.168C310.102 127.504 309.559 127.766 308.926 127.953C308.301 128.141 307.598 128.234 306.816 128.234C305.668 128.234 304.695 128.031 303.898 127.625C303.102 127.211 302.496 126.684 302.082 126.043C301.676 125.395 301.473 124.723 301.473 124.027H304.203C304.234 124.551 304.379 124.969 304.637 125.281C304.902 125.586 305.23 125.809 305.621 125.949C306.02 126.082 306.43 126.148 306.852 126.148C307.359 126.148 307.785 126.082 308.129 125.949C308.473 125.809 308.734 125.621 308.914 125.387C309.094 125.145 309.184 124.871 309.184 124.566ZM317.07 125.281L317.059 127.297C317.059 128.094 316.859 128.914 316.461 129.758C316.062 130.602 315.535 131.297 314.879 131.844L313.367 130.965C313.586 130.613 313.785 130.258 313.965 129.898C314.145 129.539 314.289 129.156 314.398 128.75C314.508 128.344 314.562 127.895 314.562 127.402V125.281H317.07ZM332.879 124.566C332.879 124.285 332.809 124.031 332.668 123.805C332.527 123.57 332.258 123.359 331.859 123.172C331.469 122.984 330.891 122.812 330.125 122.656C329.453 122.508 328.836 122.332 328.273 122.129C327.719 121.918 327.242 121.664 326.844 121.367C326.445 121.07 326.137 120.719 325.918 120.312C325.699 119.906 325.59 119.438 325.59 118.906C325.59 118.391 325.703 117.902 325.93 117.441C326.156 116.98 326.48 116.574 326.902 116.223C327.324 115.871 327.836 115.594 328.438 115.391C329.047 115.188 329.727 115.086 330.477 115.086C331.539 115.086 332.449 115.266 333.207 115.625C333.973 115.977 334.559 116.457 334.965 117.066C335.371 117.668 335.574 118.348 335.574 119.105H332.75C332.75 118.77 332.664 118.457 332.492 118.168C332.328 117.871 332.078 117.633 331.742 117.453C331.406 117.266 330.984 117.172 330.477 117.172C329.992 117.172 329.59 117.25 329.27 117.406C328.957 117.555 328.723 117.75 328.566 117.992C328.418 118.234 328.344 118.5 328.344 118.789C328.344 119 328.383 119.191 328.461 119.363C328.547 119.527 328.688 119.68 328.883 119.82C329.078 119.953 329.344 120.078 329.68 120.195C330.023 120.312 330.453 120.426 330.969 120.535C331.938 120.738 332.77 121 333.465 121.32C334.168 121.633 334.707 122.039 335.082 122.539C335.457 123.031 335.645 123.656 335.645 124.414C335.645 124.977 335.523 125.492 335.281 125.961C335.047 126.422 334.703 126.824 334.25 127.168C333.797 127.504 333.254 127.766 332.621 127.953C331.996 128.141 331.293 128.234 330.512 128.234C329.363 128.234 328.391 128.031 327.594 127.625C326.797 127.211 326.191 126.684 325.777 126.043C325.371 125.395 325.168 124.723 325.168 124.027H327.898C327.93 124.551 328.074 124.969 328.332 125.281C328.598 125.586 328.926 125.809 329.316 125.949C329.715 126.082 330.125 126.148 330.547 126.148C331.055 126.148 331.48 126.082 331.824 125.949C332.168 125.809 332.43 125.621 332.609 125.387C332.789 125.145 332.879 124.871 332.879 124.566ZM340.953 117.758V132.875H338.129V115.32H340.73L340.953 117.758ZM349.215 121.543V121.789C349.215 122.711 349.105 123.566 348.887 124.355C348.676 125.137 348.359 125.82 347.938 126.406C347.523 126.984 347.012 127.434 346.402 127.754C345.793 128.074 345.09 128.234 344.293 128.234C343.504 128.234 342.812 128.09 342.219 127.801C341.633 127.504 341.137 127.086 340.73 126.547C340.324 126.008 339.996 125.375 339.746 124.648C339.504 123.914 339.332 123.109 339.23 122.234V121.285C339.332 120.355 339.504 119.512 339.746 118.754C339.996 117.996 340.324 117.344 340.73 116.797C341.137 116.25 341.633 115.828 342.219 115.531C342.805 115.234 343.488 115.086 344.27 115.086C345.066 115.086 345.773 115.242 346.391 115.555C347.008 115.859 347.527 116.297 347.949 116.867C348.371 117.43 348.688 118.109 348.898 118.906C349.109 119.695 349.215 120.574 349.215 121.543ZM346.391 121.789V121.543C346.391 120.957 346.336 120.414 346.227 119.914C346.117 119.406 345.945 118.961 345.711 118.578C345.477 118.195 345.176 117.898 344.809 117.688C344.449 117.469 344.016 117.359 343.508 117.359C343.008 117.359 342.578 117.445 342.219 117.617C341.859 117.781 341.559 118.012 341.316 118.309C341.074 118.605 340.887 118.953 340.754 119.352C340.621 119.742 340.527 120.168 340.473 120.629V122.902C340.566 123.465 340.727 123.98 340.953 124.449C341.18 124.918 341.5 125.293 341.914 125.574C342.336 125.848 342.875 125.984 343.531 125.984C344.039 125.984 344.473 125.875 344.832 125.656C345.191 125.438 345.484 125.137 345.711 124.754C345.945 124.363 346.117 123.914 346.227 123.406C346.336 122.898 346.391 122.359 346.391 121.789ZM351.078 121.801V121.531C351.078 120.617 351.211 119.77 351.477 118.988C351.742 118.199 352.125 117.516 352.625 116.938C353.133 116.352 353.75 115.898 354.477 115.578C355.211 115.25 356.039 115.086 356.961 115.086C357.891 115.086 358.719 115.25 359.445 115.578C360.18 115.898 360.801 116.352 361.309 116.938C361.816 117.516 362.203 118.199 362.469 118.988C362.734 119.77 362.867 120.617 362.867 121.531V121.801C362.867 122.715 362.734 123.562 362.469 124.344C362.203 125.125 361.816 125.809 361.309 126.395C360.801 126.973 360.184 127.426 359.457 127.754C358.73 128.074 357.906 128.234 356.984 128.234C356.055 128.234 355.223 128.074 354.488 127.754C353.762 127.426 353.145 126.973 352.637 126.395C352.129 125.809 351.742 125.125 351.477 124.344C351.211 123.562 351.078 122.715 351.078 121.801ZM353.902 121.531V121.801C353.902 122.371 353.961 122.91 354.078 123.418C354.195 123.926 354.379 124.371 354.629 124.754C354.879 125.137 355.199 125.438 355.59 125.656C355.98 125.875 356.445 125.984 356.984 125.984C357.508 125.984 357.961 125.875 358.344 125.656C358.734 125.438 359.055 125.137 359.305 124.754C359.555 124.371 359.738 123.926 359.855 123.418C359.98 122.91 360.043 122.371 360.043 121.801V121.531C360.043 120.969 359.98 120.438 359.855 119.938C359.738 119.43 359.551 118.98 359.293 118.59C359.043 118.199 358.723 117.895 358.332 117.676C357.949 117.449 357.492 117.336 356.961 117.336C356.43 117.336 355.969 117.449 355.578 117.676C355.195 117.895 354.879 118.199 354.629 118.59C354.379 118.98 354.195 119.43 354.078 119.938C353.961 120.438 353.902 120.969 353.902 121.531ZM368.07 117.734V128H365.246V115.32H367.941L368.07 117.734ZM371.949 115.238L371.926 117.863C371.754 117.832 371.566 117.809 371.363 117.793C371.168 117.777 370.973 117.77 370.777 117.77C370.293 117.77 369.867 117.84 369.5 117.98C369.133 118.113 368.824 118.309 368.574 118.566C368.332 118.816 368.145 119.121 368.012 119.48C367.879 119.84 367.801 120.242 367.777 120.688L367.133 120.734C367.133 119.938 367.211 119.199 367.367 118.52C367.523 117.84 367.758 117.242 368.07 116.727C368.391 116.211 368.789 115.809 369.266 115.52C369.75 115.23 370.309 115.086 370.941 115.086C371.113 115.086 371.297 115.102 371.492 115.133C371.695 115.164 371.848 115.199 371.949 115.238ZM381.219 125.375V110H384.055V128H381.488L381.219 125.375ZM372.969 121.801V121.555C372.969 120.594 373.082 119.719 373.309 118.93C373.535 118.133 373.863 117.449 374.293 116.879C374.723 116.301 375.246 115.859 375.863 115.555C376.48 115.242 377.176 115.086 377.949 115.086C378.715 115.086 379.387 115.234 379.965 115.531C380.543 115.828 381.035 116.254 381.441 116.809C381.848 117.355 382.172 118.012 382.414 118.777C382.656 119.535 382.828 120.379 382.93 121.309V122.094C382.828 123 382.656 123.828 382.414 124.578C382.172 125.328 381.848 125.977 381.441 126.523C381.035 127.07 380.539 127.492 379.953 127.789C379.375 128.086 378.699 128.234 377.926 128.234C377.16 128.234 376.469 128.074 375.852 127.754C375.242 127.434 374.723 126.984 374.293 126.406C373.863 125.828 373.535 125.148 373.309 124.367C373.082 123.578 372.969 122.723 372.969 121.801ZM375.793 121.555V121.801C375.793 122.379 375.844 122.918 375.945 123.418C376.055 123.918 376.223 124.359 376.449 124.742C376.676 125.117 376.969 125.414 377.328 125.633C377.695 125.844 378.133 125.949 378.641 125.949C379.281 125.949 379.809 125.809 380.223 125.527C380.637 125.246 380.961 124.867 381.195 124.391C381.438 123.906 381.602 123.367 381.688 122.773V120.652C381.641 120.191 381.543 119.762 381.395 119.363C381.254 118.965 381.062 118.617 380.82 118.32C380.578 118.016 380.277 117.781 379.918 117.617C379.566 117.445 379.148 117.359 378.664 117.359C378.148 117.359 377.711 117.469 377.352 117.688C376.992 117.906 376.695 118.207 376.461 118.59C376.234 118.973 376.066 119.418 375.957 119.926C375.848 120.434 375.793 120.977 375.793 121.555ZM390.031 115.32V128H387.195V115.32H390.031ZM387.008 111.992C387.008 111.562 387.148 111.207 387.43 110.926C387.719 110.637 388.117 110.492 388.625 110.492C389.125 110.492 389.52 110.637 389.809 110.926C390.098 111.207 390.242 111.562 390.242 111.992C390.242 112.414 390.098 112.766 389.809 113.047C389.52 113.328 389.125 113.469 388.625 113.469C388.117 113.469 387.719 113.328 387.43 113.047C387.148 112.766 387.008 112.414 387.008 111.992ZM400.754 125.012V115.32H403.59V128H400.918L400.754 125.012ZM401.152 122.375L402.102 122.352C402.102 123.203 402.008 123.988 401.82 124.707C401.633 125.418 401.344 126.039 400.953 126.57C400.562 127.094 400.062 127.504 399.453 127.801C398.844 128.09 398.113 128.234 397.262 128.234C396.645 128.234 396.078 128.145 395.562 127.965C395.047 127.785 394.602 127.508 394.227 127.133C393.859 126.758 393.574 126.27 393.371 125.668C393.168 125.066 393.066 124.348 393.066 123.512V115.32H395.891V123.535C395.891 123.996 395.945 124.383 396.055 124.695C396.164 125 396.312 125.246 396.5 125.434C396.688 125.621 396.906 125.754 397.156 125.832C397.406 125.91 397.672 125.949 397.953 125.949C398.758 125.949 399.391 125.793 399.852 125.48C400.32 125.16 400.652 124.73 400.848 124.191C401.051 123.652 401.152 123.047 401.152 122.375ZM414.113 125.012V115.32H416.949V128H414.277L414.113 125.012ZM414.512 122.375L415.461 122.352C415.461 123.203 415.367 123.988 415.18 124.707C414.992 125.418 414.703 126.039 414.312 126.57C413.922 127.094 413.422 127.504 412.812 127.801C412.203 128.09 411.473 128.234 410.621 128.234C410.004 128.234 409.438 128.145 408.922 127.965C408.406 127.785 407.961 127.508 407.586 127.133C407.219 126.758 406.934 126.27 406.73 125.668C406.527 125.066 406.426 124.348 406.426 123.512V115.32H409.25V123.535C409.25 123.996 409.305 124.383 409.414 124.695C409.523 125 409.672 125.246 409.859 125.434C410.047 125.621 410.266 125.754 410.516 125.832C410.766 125.91 411.031 125.949 411.312 125.949C412.117 125.949 412.75 125.793 413.211 125.48C413.68 125.16 414.012 124.73 414.207 124.191C414.41 123.652 414.512 123.047 414.512 122.375ZM427.578 125.375V110H430.414V128H427.848L427.578 125.375ZM419.328 121.801V121.555C419.328 120.594 419.441 119.719 419.668 118.93C419.895 118.133 420.223 117.449 420.652 116.879C421.082 116.301 421.605 115.859 422.223 115.555C422.84 115.242 423.535 115.086 424.309 115.086C425.074 115.086 425.746 115.234 426.324 115.531C426.902 115.828 427.395 116.254 427.801 116.809C428.207 117.355 428.531 118.012 428.773 118.777C429.016 119.535 429.188 120.379 429.289 121.309V122.094C429.188 123 429.016 123.828 428.773 124.578C428.531 125.328 428.207 125.977 427.801 126.523C427.395 127.07 426.898 127.492 426.312 127.789C425.734 128.086 425.059 128.234 424.285 128.234C423.52 128.234 422.828 128.074 422.211 127.754C421.602 127.434 421.082 126.984 420.652 126.406C420.223 125.828 419.895 125.148 419.668 124.367C419.441 123.578 419.328 122.723 419.328 121.801ZM422.152 121.555V121.801C422.152 122.379 422.203 122.918 422.305 123.418C422.414 123.918 422.582 124.359 422.809 124.742C423.035 125.117 423.328 125.414 423.688 125.633C424.055 125.844 424.492 125.949 425 125.949C425.641 125.949 426.168 125.809 426.582 125.527C426.996 125.246 427.32 124.867 427.555 124.391C427.797 123.906 427.961 123.367 428.047 122.773V120.652C428 120.191 427.902 119.762 427.754 119.363C427.613 118.965 427.422 118.617 427.18 118.32C426.938 118.016 426.637 117.781 426.277 117.617C425.926 117.445 425.508 117.359 425.023 117.359C424.508 117.359 424.07 117.469 423.711 117.688C423.352 117.906 423.055 118.207 422.82 118.59C422.594 118.973 422.426 119.418 422.316 119.926C422.207 120.434 422.152 120.977 422.152 121.555ZM436.391 115.32V128H433.555V115.32H436.391ZM433.367 111.992C433.367 111.562 433.508 111.207 433.789 110.926C434.078 110.637 434.477 110.492 434.984 110.492C435.484 110.492 435.879 110.637 436.168 110.926C436.457 111.207 436.602 111.562 436.602 111.992C436.602 112.414 436.457 112.766 436.168 113.047C435.879 113.328 435.484 113.469 434.984 113.469C434.477 113.469 434.078 113.328 433.789 113.047C433.508 112.766 433.367 112.414 433.367 111.992ZM446.598 124.566C446.598 124.285 446.527 124.031 446.387 123.805C446.246 123.57 445.977 123.359 445.578 123.172C445.188 122.984 444.609 122.812 443.844 122.656C443.172 122.508 442.555 122.332 441.992 122.129C441.438 121.918 440.961 121.664 440.562 121.367C440.164 121.07 439.855 120.719 439.637 120.312C439.418 119.906 439.309 119.438 439.309 118.906C439.309 118.391 439.422 117.902 439.648 117.441C439.875 116.98 440.199 116.574 440.621 116.223C441.043 115.871 441.555 115.594 442.156 115.391C442.766 115.188 443.445 115.086 444.195 115.086C445.258 115.086 446.168 115.266 446.926 115.625C447.691 115.977 448.277 116.457 448.684 117.066C449.09 117.668 449.293 118.348 449.293 119.105H446.469C446.469 118.77 446.383 118.457 446.211 118.168C446.047 117.871 445.797 117.633 445.461 117.453C445.125 117.266 444.703 117.172 444.195 117.172C443.711 117.172 443.309 117.25 442.988 117.406C442.676 117.555 442.441 117.75 442.285 117.992C442.137 118.234 442.062 118.5 442.062 118.789C442.062 119 442.102 119.191 442.18 119.363C442.266 119.527 442.406 119.68 442.602 119.82C442.797 119.953 443.062 120.078 443.398 120.195C443.742 120.312 444.172 120.426 444.688 120.535C445.656 120.738 446.488 121 447.184 121.32C447.887 121.633 448.426 122.039 448.801 122.539C449.176 123.031 449.363 123.656 449.363 124.414C449.363 124.977 449.242 125.492 449 125.961C448.766 126.422 448.422 126.824 447.969 127.168C447.516 127.504 446.973 127.766 446.34 127.953C445.715 128.141 445.012 128.234 444.23 128.234C443.082 128.234 442.109 128.031 441.312 127.625C440.516 127.211 439.91 126.684 439.496 126.043C439.09 125.395 438.887 124.723 438.887 124.027H441.617C441.648 124.551 441.793 124.969 442.051 125.281C442.316 125.586 442.645 125.809 443.035 125.949C443.434 126.082 443.844 126.148 444.266 126.148C444.773 126.148 445.199 126.082 445.543 125.949C445.887 125.809 446.148 125.621 446.328 125.387C446.508 125.145 446.598 124.871 446.598 124.566ZM457.426 128.234C456.488 128.234 455.641 128.082 454.883 127.777C454.133 127.465 453.492 127.031 452.961 126.477C452.438 125.922 452.035 125.27 451.754 124.52C451.473 123.77 451.332 122.961 451.332 122.094V121.625C451.332 120.633 451.477 119.734 451.766 118.93C452.055 118.125 452.457 117.438 452.973 116.867C453.488 116.289 454.098 115.848 454.801 115.543C455.504 115.238 456.266 115.086 457.086 115.086C457.992 115.086 458.785 115.238 459.465 115.543C460.145 115.848 460.707 116.277 461.152 116.832C461.605 117.379 461.941 118.031 462.16 118.789C462.387 119.547 462.5 120.383 462.5 121.297V122.504H452.703V120.477H459.711V120.254C459.695 119.746 459.594 119.27 459.406 118.824C459.227 118.379 458.949 118.02 458.574 117.746C458.199 117.473 457.699 117.336 457.074 117.336C456.605 117.336 456.188 117.438 455.82 117.641C455.461 117.836 455.16 118.121 454.918 118.496C454.676 118.871 454.488 119.324 454.355 119.855C454.23 120.379 454.168 120.969 454.168 121.625V122.094C454.168 122.648 454.242 123.164 454.391 123.641C454.547 124.109 454.773 124.52 455.07 124.871C455.367 125.223 455.727 125.5 456.148 125.703C456.57 125.898 457.051 125.996 457.59 125.996C458.27 125.996 458.875 125.859 459.406 125.586C459.938 125.312 460.398 124.926 460.789 124.426L462.277 125.867C462.004 126.266 461.648 126.648 461.211 127.016C460.773 127.375 460.238 127.668 459.605 127.895C458.98 128.121 458.254 128.234 457.426 128.234ZM467.727 115.32V128H464.891V115.32H467.727ZM464.703 111.992C464.703 111.562 464.844 111.207 465.125 110.926C465.414 110.637 465.812 110.492 466.32 110.492C466.82 110.492 467.215 110.637 467.504 110.926C467.793 111.207 467.938 111.562 467.938 111.992C467.938 112.414 467.793 112.766 467.504 113.047C467.215 113.328 466.82 113.469 466.32 113.469C465.812 113.469 465.414 113.328 465.125 113.047C464.844 112.766 464.703 112.414 464.703 111.992ZM478.555 125.375V110H481.391V128H478.824L478.555 125.375ZM470.305 121.801V121.555C470.305 120.594 470.418 119.719 470.645 118.93C470.871 118.133 471.199 117.449 471.629 116.879C472.059 116.301 472.582 115.859 473.199 115.555C473.816 115.242 474.512 115.086 475.285 115.086C476.051 115.086 476.723 115.234 477.301 115.531C477.879 115.828 478.371 116.254 478.777 116.809C479.184 117.355 479.508 118.012 479.75 118.777C479.992 119.535 480.164 120.379 480.266 121.309V122.094C480.164 123 479.992 123.828 479.75 124.578C479.508 125.328 479.184 125.977 478.777 126.523C478.371 127.07 477.875 127.492 477.289 127.789C476.711 128.086 476.035 128.234 475.262 128.234C474.496 128.234 473.805 128.074 473.188 127.754C472.578 127.434 472.059 126.984 471.629 126.406C471.199 125.828 470.871 125.148 470.645 124.367C470.418 123.578 470.305 122.723 470.305 121.801ZM473.129 121.555V121.801C473.129 122.379 473.18 122.918 473.281 123.418C473.391 123.918 473.559 124.359 473.785 124.742C474.012 125.117 474.305 125.414 474.664 125.633C475.031 125.844 475.469 125.949 475.977 125.949C476.617 125.949 477.145 125.809 477.559 125.527C477.973 125.246 478.297 124.867 478.531 124.391C478.773 123.906 478.938 123.367 479.023 122.773V120.652C478.977 120.191 478.879 119.762 478.73 119.363C478.59 118.965 478.398 118.617 478.156 118.32C477.914 118.016 477.613 117.781 477.254 117.617C476.902 117.445 476.484 117.359 476 117.359C475.484 117.359 475.047 117.469 474.688 117.688C474.328 117.906 474.031 118.207 473.797 118.59C473.57 118.973 473.402 119.418 473.293 119.926C473.184 120.434 473.129 120.977 473.129 121.555ZM497.434 124.566C497.434 124.285 497.363 124.031 497.223 123.805C497.082 123.57 496.812 123.359 496.414 123.172C496.023 122.984 495.445 122.812 494.68 122.656C494.008 122.508 493.391 122.332 492.828 122.129C492.273 121.918 491.797 121.664 491.398 121.367C491 121.07 490.691 120.719 490.473 120.312C490.254 119.906 490.145 119.438 490.145 118.906C490.145 118.391 490.258 117.902 490.484 117.441C490.711 116.98 491.035 116.574 491.457 116.223C491.879 115.871 492.391 115.594 492.992 115.391C493.602 115.188 494.281 115.086 495.031 115.086C496.094 115.086 497.004 115.266 497.762 115.625C498.527 115.977 499.113 116.457 499.52 117.066C499.926 117.668 500.129 118.348 500.129 119.105H497.305C497.305 118.77 497.219 118.457 497.047 118.168C496.883 117.871 496.633 117.633 496.297 117.453C495.961 117.266 495.539 117.172 495.031 117.172C494.547 117.172 494.145 117.25 493.824 117.406C493.512 117.555 493.277 117.75 493.121 117.992C492.973 118.234 492.898 118.5 492.898 118.789C492.898 119 492.938 119.191 493.016 119.363C493.102 119.527 493.242 119.68 493.438 119.82C493.633 119.953 493.898 120.078 494.234 120.195C494.578 120.312 495.008 120.426 495.523 120.535C496.492 120.738 497.324 121 498.02 121.32C498.723 121.633 499.262 122.039 499.637 122.539C500.012 123.031 500.199 123.656 500.199 124.414C500.199 124.977 500.078 125.492 499.836 125.961C499.602 126.422 499.258 126.824 498.805 127.168C498.352 127.504 497.809 127.766 497.176 127.953C496.551 128.141 495.848 128.234 495.066 128.234C493.918 128.234 492.945 128.031 492.148 127.625C491.352 127.211 490.746 126.684 490.332 126.043C489.926 125.395 489.723 124.723 489.723 124.027H492.453C492.484 124.551 492.629 124.969 492.887 125.281C493.152 125.586 493.48 125.809 493.871 125.949C494.27 126.082 494.68 126.148 495.102 126.148C495.609 126.148 496.035 126.082 496.379 125.949C496.723 125.809 496.984 125.621 497.164 125.387C497.344 125.145 497.434 124.871 497.434 124.566ZM509.82 125.457V119.41C509.82 118.957 509.738 118.566 509.574 118.238C509.41 117.91 509.16 117.656 508.824 117.477C508.496 117.297 508.082 117.207 507.582 117.207C507.121 117.207 506.723 117.285 506.387 117.441C506.051 117.598 505.789 117.809 505.602 118.074C505.414 118.34 505.32 118.641 505.32 118.977H502.508C502.508 118.477 502.629 117.992 502.871 117.523C503.113 117.055 503.465 116.637 503.926 116.27C504.387 115.902 504.938 115.613 505.578 115.402C506.219 115.191 506.938 115.086 507.734 115.086C508.688 115.086 509.531 115.246 510.266 115.566C511.008 115.887 511.59 116.371 512.012 117.02C512.441 117.66 512.656 118.465 512.656 119.434V125.07C512.656 125.648 512.695 126.168 512.773 126.629C512.859 127.082 512.98 127.477 513.137 127.812V128H510.242C510.109 127.695 510.004 127.309 509.926 126.84C509.855 126.363 509.82 125.902 509.82 125.457ZM510.23 120.289L510.254 122.035H508.227C507.703 122.035 507.242 122.086 506.844 122.188C506.445 122.281 506.113 122.422 505.848 122.609C505.582 122.797 505.383 123.023 505.25 123.289C505.117 123.555 505.051 123.855 505.051 124.191C505.051 124.527 505.129 124.836 505.285 125.117C505.441 125.391 505.668 125.605 505.965 125.762C506.27 125.918 506.637 125.996 507.066 125.996C507.645 125.996 508.148 125.879 508.578 125.645C509.016 125.402 509.359 125.109 509.609 124.766C509.859 124.414 509.992 124.082 510.008 123.77L510.922 125.023C510.828 125.344 510.668 125.688 510.441 126.055C510.215 126.422 509.918 126.773 509.551 127.109C509.191 127.438 508.758 127.707 508.25 127.918C507.75 128.129 507.172 128.234 506.516 128.234C505.688 128.234 504.949 128.07 504.301 127.742C503.652 127.406 503.145 126.957 502.777 126.395C502.41 125.824 502.227 125.18 502.227 124.461C502.227 123.789 502.352 123.195 502.602 122.68C502.859 122.156 503.234 121.719 503.727 121.367C504.227 121.016 504.836 120.75 505.555 120.57C506.273 120.383 507.094 120.289 508.016 120.289H510.23ZM522.758 125.457V119.41C522.758 118.957 522.676 118.566 522.512 118.238C522.348 117.91 522.098 117.656 521.762 117.477C521.434 117.297 521.02 117.207 520.52 117.207C520.059 117.207 519.66 117.285 519.324 117.441C518.988 117.598 518.727 117.809 518.539 118.074C518.352 118.34 518.258 118.641 518.258 118.977H515.445C515.445 118.477 515.566 117.992 515.809 117.523C516.051 117.055 516.402 116.637 516.863 116.27C517.324 115.902 517.875 115.613 518.516 115.402C519.156 115.191 519.875 115.086 520.672 115.086C521.625 115.086 522.469 115.246 523.203 115.566C523.945 115.887 524.527 116.371 524.949 117.02C525.379 117.66 525.594 118.465 525.594 119.434V125.07C525.594 125.648 525.633 126.168 525.711 126.629C525.797 127.082 525.918 127.477 526.074 127.812V128H523.18C523.047 127.695 522.941 127.309 522.863 126.84C522.793 126.363 522.758 125.902 522.758 125.457ZM523.168 120.289L523.191 122.035H521.164C520.641 122.035 520.18 122.086 519.781 122.188C519.383 122.281 519.051 122.422 518.785 122.609C518.52 122.797 518.32 123.023 518.188 123.289C518.055 123.555 517.988 123.855 517.988 124.191C517.988 124.527 518.066 124.836 518.223 125.117C518.379 125.391 518.605 125.605 518.902 125.762C519.207 125.918 519.574 125.996 520.004 125.996C520.582 125.996 521.086 125.879 521.516 125.645C521.953 125.402 522.297 125.109 522.547 124.766C522.797 124.414 522.93 124.082 522.945 123.77L523.859 125.023C523.766 125.344 523.605 125.688 523.379 126.055C523.152 126.422 522.855 126.773 522.488 127.109C522.129 127.438 521.695 127.707 521.188 127.918C520.688 128.129 520.109 128.234 519.453 128.234C518.625 128.234 517.887 128.07 517.238 127.742C516.59 127.406 516.082 126.957 515.715 126.395C515.348 125.824 515.164 125.18 515.164 124.461C515.164 123.789 515.289 123.195 515.539 122.68C515.797 122.156 516.172 121.719 516.664 121.367C517.164 121.016 517.773 120.75 518.492 120.57C519.211 120.383 520.031 120.289 520.953 120.289H523.168ZM536.281 125.375V110H539.117V128H536.551L536.281 125.375ZM528.031 121.801V121.555C528.031 120.594 528.145 119.719 528.371 118.93C528.598 118.133 528.926 117.449 529.355 116.879C529.785 116.301 530.309 115.859 530.926 115.555C531.543 115.242 532.238 115.086 533.012 115.086C533.777 115.086 534.449 115.234 535.027 115.531C535.605 115.828 536.098 116.254 536.504 116.809C536.91 117.355 537.234 118.012 537.477 118.777C537.719 119.535 537.891 120.379 537.992 121.309V122.094C537.891 123 537.719 123.828 537.477 124.578C537.234 125.328 536.91 125.977 536.504 126.523C536.098 127.07 535.602 127.492 535.016 127.789C534.438 128.086 533.762 128.234 532.988 128.234C532.223 128.234 531.531 128.074 530.914 127.754C530.305 127.434 529.785 126.984 529.355 126.406C528.926 125.828 528.598 125.148 528.371 124.367C528.145 123.578 528.031 122.723 528.031 121.801ZM530.855 121.555V121.801C530.855 122.379 530.906 122.918 531.008 123.418C531.117 123.918 531.285 124.359 531.512 124.742C531.738 125.117 532.031 125.414 532.391 125.633C532.758 125.844 533.195 125.949 533.703 125.949C534.344 125.949 534.871 125.809 535.285 125.527C535.699 125.246 536.023 124.867 536.258 124.391C536.5 123.906 536.664 123.367 536.75 122.773V120.652C536.703 120.191 536.605 119.762 536.457 119.363C536.316 118.965 536.125 118.617 535.883 118.32C535.641 118.016 535.34 117.781 534.98 117.617C534.629 117.445 534.211 117.359 533.727 117.359C533.211 117.359 532.773 117.469 532.414 117.688C532.055 117.906 531.758 118.207 531.523 118.59C531.297 118.973 531.129 119.418 531.02 119.926C530.91 120.434 530.855 120.977 530.855 121.555ZM36.4766 145.32V158H33.6406V145.32H36.4766ZM33.4531 141.992C33.4531 141.562 33.5938 141.207 33.875 140.926C34.1641 140.637 34.5625 140.492 35.0703 140.492C35.5703 140.492 35.9648 140.637 36.2539 140.926C36.543 141.207 36.6875 141.562 36.6875 141.992C36.6875 142.414 36.543 142.766 36.2539 143.047C35.9648 143.328 35.5703 143.469 35.0703 143.469C34.5625 143.469 34.1641 143.328 33.875 143.047C33.5938 142.766 33.4531 142.414 33.4531 141.992ZM42.418 140V158H39.582V140H42.418ZM50.293 145.32L44.7734 151.438L41.75 154.531L41.0117 152.141L43.2969 149.316L46.8828 145.32H50.293ZM47.4922 158L43.3789 152.047L45.1602 150.066L50.7617 158H47.4922ZM54.9336 140V158H52.0977V140H54.9336ZM62.8086 145.32L57.2891 151.438L54.2656 154.531L53.5273 152.141L55.8125 149.316L59.3984 145.32H62.8086ZM60.0078 158L55.8945 152.047L57.6758 150.066L63.2773 158H60.0078ZM71.75 155.457V149.41C71.75 148.957 71.668 148.566 71.5039 148.238C71.3398 147.91 71.0898 147.656 70.7539 147.477C70.4258 147.297 70.0117 147.207 69.5117 147.207C69.0508 147.207 68.6523 147.285 68.3164 147.441C67.9805 147.598 67.7188 147.809 67.5312 148.074C67.3438 148.34 67.25 148.641 67.25 148.977H64.4375C64.4375 148.477 64.5586 147.992 64.8008 147.523C65.043 147.055 65.3945 146.637 65.8555 146.27C66.3164 145.902 66.8672 145.613 67.5078 145.402C68.1484 145.191 68.8672 145.086 69.6641 145.086C70.6172 145.086 71.4609 145.246 72.1953 145.566C72.9375 145.887 73.5195 146.371 73.9414 147.02C74.3711 147.66 74.5859 148.465 74.5859 149.434V155.07C74.5859 155.648 74.625 156.168 74.7031 156.629C74.7891 157.082 74.9102 157.477 75.0664 157.812V158H72.1719C72.0391 157.695 71.9336 157.309 71.8555 156.84C71.7852 156.363 71.75 155.902 71.75 155.457ZM72.1602 150.289L72.1836 152.035H70.1562C69.6328 152.035 69.1719 152.086 68.7734 152.188C68.375 152.281 68.043 152.422 67.7773 152.609C67.5117 152.797 67.3125 153.023 67.1797 153.289C67.0469 153.555 66.9805 153.855 66.9805 154.191C66.9805 154.527 67.0586 154.836 67.2148 155.117C67.3711 155.391 67.5977 155.605 67.8945 155.762C68.1992 155.918 68.5664 155.996 68.9961 155.996C69.5742 155.996 70.0781 155.879 70.5078 155.645C70.9453 155.402 71.2891 155.109 71.5391 154.766C71.7891 154.414 71.9219 154.082 71.9375 153.77L72.8516 155.023C72.7578 155.344 72.5977 155.688 72.3711 156.055C72.1445 156.422 71.8477 156.773 71.4805 157.109C71.1211 157.438 70.6875 157.707 70.1797 157.918C69.6797 158.129 69.1016 158.234 68.4453 158.234C67.6172 158.234 66.8789 158.07 66.2305 157.742C65.582 157.406 65.0742 156.957 64.707 156.395C64.3398 155.824 64.1562 155.18 64.1562 154.461C64.1562 153.789 64.2812 153.195 64.5312 152.68C64.7891 152.156 65.1641 151.719 65.6562 151.367C66.1562 151.016 66.7656 150.75 67.4844 150.57C68.2031 150.383 69.0234 150.289 69.9453 150.289H72.1602ZM86.5391 140V158H83.7031V140H86.5391ZM97.2617 155.012V145.32H100.098V158H97.4258L97.2617 155.012ZM97.6602 152.375L98.6094 152.352C98.6094 153.203 98.5156 153.988 98.3281 154.707C98.1406 155.418 97.8516 156.039 97.4609 156.57C97.0703 157.094 96.5703 157.504 95.9609 157.801C95.3516 158.09 94.6211 158.234 93.7695 158.234C93.1523 158.234 92.5859 158.145 92.0703 157.965C91.5547 157.785 91.1094 157.508 90.7344 157.133C90.3672 156.758 90.082 156.27 89.8789 155.668C89.6758 155.066 89.5742 154.348 89.5742 153.512V145.32H92.3984V153.535C92.3984 153.996 92.4531 154.383 92.5625 154.695C92.6719 155 92.8203 155.246 93.0078 155.434C93.1953 155.621 93.4141 155.754 93.6641 155.832C93.9141 155.91 94.1797 155.949 94.4609 155.949C95.2656 155.949 95.8984 155.793 96.3594 155.48C96.8281 155.16 97.1602 154.73 97.3555 154.191C97.5586 153.652 97.6602 153.047 97.6602 152.375ZM111.113 145.32H113.68V157.648C113.68 158.789 113.438 159.758 112.953 160.555C112.469 161.352 111.793 161.957 110.926 162.371C110.059 162.793 109.055 163.004 107.914 163.004C107.43 163.004 106.891 162.934 106.297 162.793C105.711 162.652 105.141 162.426 104.586 162.113C104.039 161.809 103.582 161.406 103.215 160.906L104.539 159.242C104.992 159.781 105.492 160.176 106.039 160.426C106.586 160.676 107.16 160.801 107.762 160.801C108.41 160.801 108.961 160.68 109.414 160.438C109.875 160.203 110.23 159.855 110.48 159.395C110.73 158.934 110.855 158.371 110.855 157.707V148.191L111.113 145.32ZM102.5 151.801V151.555C102.5 150.594 102.617 149.719 102.852 148.93C103.086 148.133 103.422 147.449 103.859 146.879C104.297 146.301 104.828 145.859 105.453 145.555C106.078 145.242 106.785 145.086 107.574 145.086C108.395 145.086 109.094 145.234 109.672 145.531C110.258 145.828 110.746 146.254 111.137 146.809C111.527 147.355 111.832 148.012 112.051 148.777C112.277 149.535 112.445 150.379 112.555 151.309V152.094C112.453 153 112.281 153.828 112.039 154.578C111.797 155.328 111.477 155.977 111.078 156.523C110.68 157.07 110.188 157.492 109.602 157.789C109.023 158.086 108.34 158.234 107.551 158.234C106.777 158.234 106.078 158.074 105.453 157.754C104.836 157.434 104.305 156.984 103.859 156.406C103.422 155.828 103.086 155.148 102.852 154.367C102.617 153.578 102.5 152.723 102.5 151.801ZM105.324 151.555V151.801C105.324 152.379 105.379 152.918 105.488 153.418C105.605 153.918 105.781 154.359 106.016 154.742C106.258 155.117 106.562 155.414 106.93 155.633C107.305 155.844 107.746 155.949 108.254 155.949C108.918 155.949 109.461 155.809 109.883 155.527C110.312 155.246 110.641 154.867 110.867 154.391C111.102 153.906 111.266 153.367 111.359 152.773V150.652C111.312 150.191 111.215 149.762 111.066 149.363C110.926 148.965 110.734 148.617 110.492 148.32C110.25 148.016 109.945 147.781 109.578 147.617C109.211 147.445 108.777 147.359 108.277 147.359C107.77 147.359 107.328 147.469 106.953 147.688C106.578 147.906 106.27 148.207 106.027 148.59C105.793 148.973 105.617 149.418 105.5 149.926C105.383 150.434 105.324 150.977 105.324 151.555ZM122.199 158.234C121.262 158.234 120.414 158.082 119.656 157.777C118.906 157.465 118.266 157.031 117.734 156.477C117.211 155.922 116.809 155.27 116.527 154.52C116.246 153.77 116.105 152.961 116.105 152.094V151.625C116.105 150.633 116.25 149.734 116.539 148.93C116.828 148.125 117.23 147.438 117.746 146.867C118.262 146.289 118.871 145.848 119.574 145.543C120.277 145.238 121.039 145.086 121.859 145.086C122.766 145.086 123.559 145.238 124.238 145.543C124.918 145.848 125.48 146.277 125.926 146.832C126.379 147.379 126.715 148.031 126.934 148.789C127.16 149.547 127.273 150.383 127.273 151.297V152.504H117.477V150.477H124.484V150.254C124.469 149.746 124.367 149.27 124.18 148.824C124 148.379 123.723 148.02 123.348 147.746C122.973 147.473 122.473 147.336 121.848 147.336C121.379 147.336 120.961 147.438 120.594 147.641C120.234 147.836 119.934 148.121 119.691 148.496C119.449 148.871 119.262 149.324 119.129 149.855C119.004 150.379 118.941 150.969 118.941 151.625V152.094C118.941 152.648 119.016 153.164 119.164 153.641C119.32 154.109 119.547 154.52 119.844 154.871C120.141 155.223 120.5 155.5 120.922 155.703C121.344 155.898 121.824 155.996 122.363 155.996C123.043 155.996 123.648 155.859 124.18 155.586C124.711 155.312 125.172 154.926 125.562 154.426L127.051 155.867C126.777 156.266 126.422 156.648 125.984 157.016C125.547 157.375 125.012 157.668 124.379 157.895C123.754 158.121 123.027 158.234 122.199 158.234ZM137.211 155.375V140H140.047V158H137.48L137.211 155.375ZM128.961 151.801V151.555C128.961 150.594 129.074 149.719 129.301 148.93C129.527 148.133 129.855 147.449 130.285 146.879C130.715 146.301 131.238 145.859 131.855 145.555C132.473 145.242 133.168 145.086 133.941 145.086C134.707 145.086 135.379 145.234 135.957 145.531C136.535 145.828 137.027 146.254 137.434 146.809C137.84 147.355 138.164 148.012 138.406 148.777C138.648 149.535 138.82 150.379 138.922 151.309V152.094C138.82 153 138.648 153.828 138.406 154.578C138.164 155.328 137.84 155.977 137.434 156.523C137.027 157.07 136.531 157.492 135.945 157.789C135.367 158.086 134.691 158.234 133.918 158.234C133.152 158.234 132.461 158.074 131.844 157.754C131.234 157.434 130.715 156.984 130.285 156.406C129.855 155.828 129.527 155.148 129.301 154.367C129.074 153.578 128.961 152.723 128.961 151.801ZM131.785 151.555V151.801C131.785 152.379 131.836 152.918 131.938 153.418C132.047 153.918 132.215 154.359 132.441 154.742C132.668 155.117 132.961 155.414 133.32 155.633C133.688 155.844 134.125 155.949 134.633 155.949C135.273 155.949 135.801 155.809 136.215 155.527C136.629 155.246 136.953 154.867 137.188 154.391C137.43 153.906 137.594 153.367 137.68 152.773V150.652C137.633 150.191 137.535 149.762 137.387 149.363C137.246 148.965 137.055 148.617 136.812 148.32C136.57 148.016 136.27 147.781 135.91 147.617C135.559 147.445 135.141 147.359 134.656 147.359C134.141 147.359 133.703 147.469 133.344 147.688C132.984 147.906 132.688 148.207 132.453 148.59C132.227 148.973 132.059 149.418 131.949 149.926C131.84 150.434 131.785 150.977 131.785 151.555ZM150.148 155.457V149.41C150.148 148.957 150.066 148.566 149.902 148.238C149.738 147.91 149.488 147.656 149.152 147.477C148.824 147.297 148.41 147.207 147.91 147.207C147.449 147.207 147.051 147.285 146.715 147.441C146.379 147.598 146.117 147.809 145.93 148.074C145.742 148.34 145.648 148.641 145.648 148.977H142.836C142.836 148.477 142.957 147.992 143.199 147.523C143.441 147.055 143.793 146.637 144.254 146.27C144.715 145.902 145.266 145.613 145.906 145.402C146.547 145.191 147.266 145.086 148.062 145.086C149.016 145.086 149.859 145.246 150.594 145.566C151.336 145.887 151.918 146.371 152.34 147.02C152.77 147.66 152.984 148.465 152.984 149.434V155.07C152.984 155.648 153.023 156.168 153.102 156.629C153.188 157.082 153.309 157.477 153.465 157.812V158H150.57C150.438 157.695 150.332 157.309 150.254 156.84C150.184 156.363 150.148 155.902 150.148 155.457ZM150.559 150.289L150.582 152.035H148.555C148.031 152.035 147.57 152.086 147.172 152.188C146.773 152.281 146.441 152.422 146.176 152.609C145.91 152.797 145.711 153.023 145.578 153.289C145.445 153.555 145.379 153.855 145.379 154.191C145.379 154.527 145.457 154.836 145.613 155.117C145.77 155.391 145.996 155.605 146.293 155.762C146.598 155.918 146.965 155.996 147.395 155.996C147.973 155.996 148.477 155.879 148.906 155.645C149.344 155.402 149.688 155.109 149.938 154.766C150.188 154.414 150.32 154.082 150.336 153.77L151.25 155.023C151.156 155.344 150.996 155.688 150.77 156.055C150.543 156.422 150.246 156.773 149.879 157.109C149.52 157.438 149.086 157.707 148.578 157.918C148.078 158.129 147.5 158.234 146.844 158.234C146.016 158.234 145.277 158.07 144.629 157.742C143.98 157.406 143.473 156.957 143.105 156.395C142.738 155.824 142.555 155.18 142.555 154.461C142.555 153.789 142.68 153.195 142.93 152.68C143.188 152.156 143.562 151.719 144.055 151.367C144.555 151.016 145.164 150.75 145.883 150.57C146.602 150.383 147.422 150.289 148.344 150.289H150.559ZM156.055 156.594C156.055 156.156 156.203 155.789 156.5 155.492C156.797 155.188 157.199 155.035 157.707 155.035C158.223 155.035 158.625 155.188 158.914 155.492C159.211 155.789 159.359 156.156 159.359 156.594C159.359 157.031 159.211 157.398 158.914 157.695C158.625 157.992 158.223 158.141 157.707 158.141C157.199 158.141 156.797 157.992 156.5 157.695C156.203 157.398 156.055 157.031 156.055 156.594Z" fill="#461102"/>
<path d="M47.576 181.658C50.656 181.658 53.318 182.23 55.562 183.374C57.806 184.474 59.5 185.992 60.644 187.928C61.832 189.82 62.426 191.932 62.426 194.264C62.426 196.684 61.898 199.016 60.842 201.26C59.83 203.504 58.07 206.034 55.562 208.85C53.098 211.666 49.49 215.296 44.738 219.74H63.416L62.36 227H34.046V220.202C39.59 214.658 43.594 210.522 46.058 207.794C48.522 205.066 50.26 202.756 51.272 200.864C52.284 198.972 52.79 197.036 52.79 195.056C52.79 193.164 52.24 191.668 51.14 190.568C50.04 189.468 48.566 188.918 46.718 188.918C45.09 188.918 43.638 189.292 42.362 190.04C41.086 190.744 39.744 191.932 38.336 193.604L32.726 189.116C36.51 184.144 41.46 181.658 47.576 181.658ZM97.9907 212.282C98.6067 215.318 99.7287 217.54 101.357 218.948C103.029 220.356 105.251 221.06 108.023 221.06C110.971 221.06 114.139 220.136 117.527 218.288V225.548C115.723 226.384 114.007 227 112.379 227.396C110.751 227.836 108.969 228.056 107.033 228.056C102.061 228.056 97.9687 226.692 94.7567 223.964C91.5887 221.192 89.4987 217.298 88.4867 212.282H82.7447L84.0647 207.2H88.2227V202.25H82.7447L84.0647 197.102H88.5527C89.7847 192.306 92.0727 188.544 95.4167 185.816C98.8047 183.044 102.787 181.658 107.363 181.658C111.939 181.658 116.075 182.912 119.771 185.42L116.405 191.228C114.997 190.304 113.611 189.644 112.247 189.248C110.883 188.808 109.365 188.588 107.693 188.588C105.405 188.588 103.447 189.292 101.819 190.7C100.191 192.108 98.9807 194.242 98.1887 197.102H114.359L113.039 202.25H97.7267V207.2H111.983L110.729 212.282H97.9907Z" fill="#E3000F"/>
<path d="M147.916 211.156V214H134.436V211.566L140.902 204.58C141.577 203.814 142.11 203.149 142.502 202.584C142.894 202.019 143.172 201.508 143.336 201.053C143.509 200.588 143.596 200.146 143.596 199.727C143.596 199.116 143.486 198.583 143.268 198.127C143.049 197.662 142.73 197.302 142.311 197.047C141.9 196.792 141.395 196.664 140.793 196.664C140.128 196.664 139.558 196.819 139.084 197.129C138.619 197.43 138.264 197.849 138.018 198.387C137.781 198.924 137.662 199.54 137.662 200.232H134.039C134.039 199.057 134.312 197.986 134.859 197.02C135.406 196.044 136.19 195.265 137.211 194.682C138.232 194.098 139.444 193.807 140.848 193.807C142.215 193.807 143.372 194.035 144.32 194.49C145.268 194.937 145.988 195.575 146.48 196.404C146.973 197.234 147.219 198.223 147.219 199.371C147.219 200.009 147.114 200.638 146.904 201.258C146.695 201.878 146.398 202.493 146.016 203.104C145.642 203.705 145.195 204.316 144.676 204.936C144.156 205.555 143.577 206.189 142.939 206.836L139.057 211.156H147.916ZM161.205 192.986V214H157.596V192.986H161.205ZM170.475 199.207L164.035 206.439L160.549 209.98L159.4 207.178L162.094 203.787L166.113 199.207H170.475ZM166.783 214L162.203 207.109L164.609 204.771L170.967 214H166.783ZM181.193 210.486V199.207H184.83V214H181.412L181.193 210.486ZM181.658 207.424L182.779 207.396C182.779 208.39 182.67 209.306 182.451 210.145C182.232 210.983 181.891 211.712 181.426 212.332C180.97 212.943 180.391 213.421 179.689 213.768C178.988 214.105 178.158 214.273 177.201 214.273C176.472 214.273 175.807 214.173 175.205 213.973C174.604 213.763 174.084 213.439 173.646 213.002C173.218 212.555 172.885 211.986 172.648 211.293C172.411 210.591 172.293 209.748 172.293 208.764V199.207H175.902V208.791C175.902 209.283 175.957 209.693 176.066 210.021C176.185 210.35 176.344 210.618 176.545 210.828C176.755 211.029 176.996 211.174 177.27 211.266C177.552 211.348 177.853 211.389 178.172 211.389C179.047 211.389 179.735 211.215 180.236 210.869C180.747 210.514 181.111 210.04 181.33 209.447C181.549 208.846 181.658 208.171 181.658 207.424ZM196.834 210.486V199.207H200.471V214H197.053L196.834 210.486ZM197.299 207.424L198.42 207.396C198.42 208.39 198.311 209.306 198.092 210.145C197.873 210.983 197.531 211.712 197.066 212.332C196.611 212.943 196.032 213.421 195.33 213.768C194.628 214.105 193.799 214.273 192.842 214.273C192.113 214.273 191.447 214.173 190.846 213.973C190.244 213.763 189.725 213.439 189.287 213.002C188.859 212.555 188.526 211.986 188.289 211.293C188.052 210.591 187.934 209.748 187.934 208.764V199.207H191.543V208.791C191.543 209.283 191.598 209.693 191.707 210.021C191.826 210.35 191.985 210.618 192.186 210.828C192.395 211.029 192.637 211.174 192.91 211.266C193.193 211.348 193.493 211.389 193.812 211.389C194.688 211.389 195.376 211.215 195.877 210.869C196.387 210.514 196.752 210.04 196.971 209.447C197.189 208.846 197.299 208.171 197.299 207.424ZM212.543 210.855V193H216.18V214H212.898L212.543 210.855ZM203.041 206.781V206.494C203.041 205.364 203.169 204.339 203.424 203.418C203.688 202.488 204.071 201.691 204.572 201.025C205.074 200.36 205.68 199.845 206.391 199.48C207.111 199.116 207.926 198.934 208.838 198.934C209.722 198.934 210.492 199.111 211.148 199.467C211.814 199.822 212.379 200.328 212.844 200.984C213.318 201.641 213.696 202.42 213.979 203.322C214.261 204.215 214.466 205.2 214.594 206.275V207.055C214.466 208.103 214.261 209.064 213.979 209.939C213.696 210.814 213.318 211.58 212.844 212.236C212.379 212.883 211.814 213.385 211.148 213.74C210.483 214.096 209.704 214.273 208.811 214.273C207.908 214.273 207.097 214.087 206.377 213.713C205.666 213.339 205.06 212.815 204.559 212.141C204.066 211.466 203.688 210.673 203.424 209.762C203.169 208.85 203.041 207.857 203.041 206.781ZM206.664 206.494V206.781C206.664 207.419 206.719 208.016 206.828 208.572C206.938 209.128 207.115 209.62 207.361 210.049C207.607 210.468 207.922 210.796 208.305 211.033C208.697 211.27 209.171 211.389 209.727 211.389C210.438 211.389 211.021 211.234 211.477 210.924C211.941 210.605 212.301 210.172 212.557 209.625C212.812 209.069 212.976 208.445 213.049 207.752V205.605C213.012 205.059 212.917 204.553 212.762 204.088C212.616 203.623 212.406 203.222 212.133 202.885C211.868 202.548 211.54 202.283 211.148 202.092C210.757 201.9 210.292 201.805 209.754 201.805C209.198 201.805 208.724 201.928 208.332 202.174C207.94 202.411 207.621 202.743 207.375 203.172C207.129 203.6 206.947 204.097 206.828 204.662C206.719 205.227 206.664 205.838 206.664 206.494Z" fill="#461102"/>
<rect x="291" y="176" width="277" height="56" rx="14" fill="#E3000F"/>
<path d="M334.092 194.096L333.644 197.624H328.856V213.5H324.264V197.624H319.252V194.096H334.092ZM347.841 194.096L347.365 197.372H340.533V202.02H346.497V205.24H340.533V210.196H347.841V213.5H335.941V194.096H347.841ZM355.271 194.096V209.86H362.831L362.355 213.5H350.679V194.096H355.271ZM369.627 194.096V209.86H377.187L376.711 213.5H365.035V194.096H369.627ZM383.982 194.096V213.5H379.39V194.096H383.982ZM399.642 194.096C402.685 194.096 405.121 194.787 406.95 196.168C408.798 197.531 409.722 200.041 409.722 203.7C409.722 207.303 408.826 209.841 407.034 211.316C405.242 212.772 402.918 213.5 400.062 213.5H394.238V194.096H399.642ZM398.83 197.428V210.168H400.342C401.854 210.168 403.002 209.701 403.786 208.768C404.57 207.816 404.962 206.127 404.962 203.7C404.962 202.039 404.766 200.751 404.374 199.836C403.982 198.921 403.45 198.296 402.778 197.96C402.106 197.605 401.275 197.428 400.286 197.428H398.83ZM417.068 194.096V213.5H412.476V194.096H417.068ZM429.079 193.62C431.581 193.62 433.737 194.413 435.547 196L433.223 198.436C432.533 197.913 431.889 197.54 431.291 197.316C430.713 197.073 430.041 196.952 429.275 196.952C427.838 196.952 426.69 197.521 425.831 198.66C424.973 199.78 424.543 201.488 424.543 203.784C424.543 206.267 424.87 208.031 425.523 209.076C426.177 210.103 427.194 210.616 428.575 210.616C429.546 210.616 430.423 210.401 431.207 209.972V205.576H428.687L428.239 202.328H435.659V211.932C434.651 212.585 433.541 213.089 432.327 213.444C431.114 213.799 429.901 213.976 428.687 213.976C425.738 213.976 423.517 213.117 422.023 211.4C420.53 209.664 419.783 207.125 419.783 203.784C419.783 201.656 420.185 199.827 420.987 198.296C421.809 196.765 422.919 195.608 424.319 194.824C425.738 194.021 427.325 193.62 429.079 193.62ZM443.318 194.096V213.5H438.726V194.096H443.318ZM453.201 194.096C455.759 194.096 457.747 194.628 459.165 195.692C460.584 196.756 461.293 198.333 461.293 200.424C461.293 202.608 460.593 204.26 459.193 205.38C457.812 206.481 455.955 207.032 453.621 207.032H451.521V213.5H446.929V194.096H453.201ZM453.229 203.728C454.312 203.728 455.133 203.476 455.693 202.972C456.272 202.449 456.561 201.6 456.561 200.424C456.561 198.389 455.423 197.372 453.145 197.372H451.521V203.728H453.229ZM472.27 213.5L471.262 209.328H465.606L464.626 213.5H459.866L465.718 194.096H471.29L477.142 213.5H472.27ZM466.39 205.996H470.478L468.434 197.428L466.39 205.996ZM483.158 194.096V213.5H478.566V194.096H483.158ZM494.302 194.096L488.114 202.804L494.806 213.5H489.486L483.298 203.14L489.458 194.096H494.302ZM508.185 194.096L507.709 197.372H500.877V202.02H506.841V205.24H500.877V210.196H508.185V213.5H496.285V194.096H508.185ZM524.295 194.096L523.847 197.624H519.059V213.5H514.467V197.624H509.455V194.096H524.295ZM539.416 194.096L538.968 197.624H534.18V213.5H529.588V197.624H524.576V194.096H539.416Z" fill="#FFE80D"/>
</svg>
