<svg width="740" height="400" viewBox="0 0 740 400" fill="none" xmlns="http://www.w3.org/2000/svg">
<path d="M74.176 58.688C77.376 58.688 80.1493 59.1573 82.496 60.096C84.8853 60.992 87.0827 62.3787 89.088 64.256L84.608 69.44C83.0293 68.16 81.4507 67.2213 79.872 66.624C78.2933 66.0267 76.608 65.728 74.816 65.728C72.8533 65.728 71.2747 66.1547 70.08 67.008C68.928 67.8187 68.352 68.992 68.352 70.528C68.352 71.5947 68.5867 72.4693 69.056 73.152C69.568 73.8347 70.4427 74.4747 71.68 75.072C72.9173 75.6693 74.7733 76.352 77.248 77.12C81.6427 78.528 84.928 80.2773 87.104 82.368C89.28 84.416 90.368 87.36 90.368 91.2C90.368 93.9307 89.6853 96.3413 88.32 98.432C86.9547 100.48 84.9707 102.101 82.368 103.296C79.7653 104.448 76.7147 105.024 73.216 105.024C69.7173 105.024 66.6027 104.469 63.872 103.36C61.1413 102.251 58.7947 100.736 56.832 98.816L61.632 93.504C63.3387 94.9547 65.1093 96.064 66.944 96.832C68.7787 97.5573 70.784 97.92 72.96 97.92C75.264 97.92 77.0987 97.3867 78.464 96.32C79.872 95.2533 80.576 93.76 80.576 91.84C80.576 90.6453 80.32 89.664 79.808 88.896C79.3387 88.0853 78.5067 87.36 77.312 86.72C76.1173 86.08 74.3893 85.4187 72.128 84.736C67.3067 83.2427 63.8507 81.4507 61.76 79.36C59.712 77.2693 58.688 74.5387 58.688 71.168C58.688 68.6933 59.3493 66.5173 60.672 64.64C61.9947 62.72 63.8293 61.248 66.176 60.224C68.5227 59.2 71.1893 58.688 74.176 58.688ZM106.268 59.712V104H96.8595V59.712H106.268ZM129.176 58.688C132.376 58.688 135.149 59.1573 137.496 60.096C139.885 60.992 142.083 62.3787 144.088 64.256L139.608 69.44C138.029 68.16 136.451 67.2213 134.872 66.624C133.293 66.0267 131.608 65.728 129.816 65.728C127.853 65.728 126.275 66.1547 125.08 67.008C123.928 67.8187 123.352 68.992 123.352 70.528C123.352 71.5947 123.587 72.4693 124.056 73.152C124.568 73.8347 125.443 74.4747 126.68 75.072C127.917 75.6693 129.773 76.352 132.248 77.12C136.643 78.528 139.928 80.2773 142.104 82.368C144.28 84.416 145.368 87.36 145.368 91.2C145.368 93.9307 144.685 96.3413 143.32 98.432C141.955 100.48 139.971 102.101 137.368 103.296C134.765 104.448 131.715 105.024 128.216 105.024C124.717 105.024 121.603 104.469 118.872 103.36C116.141 102.251 113.795 100.736 111.832 98.816L116.632 93.504C118.339 94.9547 120.109 96.064 121.944 96.832C123.779 97.5573 125.784 97.92 127.96 97.92C130.264 97.92 132.099 97.3867 133.464 96.32C134.872 95.2533 135.576 93.76 135.576 91.84C135.576 90.6453 135.32 89.664 134.808 88.896C134.339 88.0853 133.507 87.36 132.312 86.72C131.117 86.08 129.389 85.4187 127.128 84.736C122.307 83.2427 118.851 81.4507 116.76 79.36C114.712 77.2693 113.688 74.5387 113.688 71.168C113.688 68.6933 114.349 66.5173 115.672 64.64C116.995 62.72 118.829 61.248 121.176 60.224C123.523 59.2 126.189 58.688 129.176 58.688ZM184.948 89.408C184.948 92.4373 184.308 95.1253 183.028 97.472C181.748 99.8187 179.828 101.675 177.268 103.04C174.75 104.363 171.678 105.024 168.052 105.024C162.59 105.024 158.409 103.616 155.508 100.8C152.649 97.9413 151.22 94.144 151.22 89.408V59.712H160.628V88.96C160.628 91.9467 161.225 94.1867 162.42 95.68C163.614 97.1307 165.492 97.856 168.052 97.856C170.612 97.856 172.489 97.1307 173.684 95.68C174.921 94.1867 175.54 91.9467 175.54 88.96V59.712H184.948V89.408ZM218.768 59.712V96.448H236.304L235.28 104H209.36V59.712H218.768ZM256.644 58.688C260.697 58.688 264.196 59.6053 267.14 61.44C270.084 63.232 272.345 65.856 273.924 69.312C275.503 72.768 276.292 76.9493 276.292 81.856C276.292 86.6773 275.503 90.8373 273.924 94.336C272.345 97.792 270.084 100.437 267.14 102.272C264.196 104.107 260.697 105.024 256.644 105.024C252.591 105.024 249.071 104.128 246.084 102.336C243.14 100.501 240.879 97.856 239.3 94.4C237.721 90.9013 236.932 86.72 236.932 81.856C236.932 77.0773 237.721 72.96 239.3 69.504C240.921 66.0053 243.204 63.3387 246.148 61.504C249.135 59.6267 252.633 58.688 256.644 58.688ZM256.644 65.728C253.401 65.728 250.948 67.008 249.284 69.568C247.663 72.128 246.852 76.224 246.852 81.856C246.852 87.488 247.684 91.584 249.348 94.144C251.012 96.704 253.444 97.984 256.644 97.984C259.887 97.984 262.319 96.7253 263.94 94.208C265.561 91.648 266.372 87.5307 266.372 81.856C266.372 76.1813 265.561 72.0853 263.94 69.568C262.319 67.008 259.887 65.728 256.644 65.728ZM309.854 59.712L308.83 66.56H292.83V78.08H306.782V84.864H292.83V97.088H309.982V104H283.422V59.712H309.854ZM339.891 80.576C342.877 81.1307 345.288 82.2187 347.123 83.84C349 85.4187 349.939 87.8507 349.939 91.136C349.939 95.7867 348.275 99.0933 344.947 101.056C341.619 103.019 336.989 104 331.059 104H317.235V59.712H329.331C335.389 59.712 340.019 60.608 343.219 62.4C346.419 64.192 348.019 67.072 348.019 71.04C348.019 73.6427 347.229 75.7547 345.651 77.376C344.115 78.9547 342.195 80.0213 339.891 80.576ZM326.643 66.496V77.696H331.251C333.555 77.696 335.325 77.2267 336.563 76.288C337.8 75.3067 338.419 73.8347 338.419 71.872C338.419 69.9093 337.757 68.5227 336.435 67.712C335.112 66.9013 333.043 66.496 330.227 66.496H326.643ZM331.123 97.024C334.067 97.024 336.307 96.5973 337.843 95.744C339.379 94.848 340.147 93.184 340.147 90.752C340.147 86.3147 337.416 84.096 331.955 84.096H326.643V97.024H331.123ZM364.418 59.712L363.33 88.064H355.906L354.69 59.712H364.418ZM359.618 94.08C361.154 94.08 362.455 94.6133 363.522 95.68C364.588 96.7467 365.122 98.0267 365.122 99.52C365.122 101.013 364.588 102.315 363.522 103.424C362.455 104.491 361.154 105.024 359.618 105.024C358.124 105.024 356.844 104.491 355.778 103.424C354.711 102.315 354.178 101.013 354.178 99.52C354.178 98.0267 354.711 96.7467 355.778 95.68C356.844 94.6133 358.124 94.08 359.618 94.08Z" fill="#FFE80D"/>
<path d="M190.286 112.543C199.215 112.728 207.803 113.852 216.822 113.9C227.65 113.958 238.712 113.04 249.67 113.372C250.019 113.383 250.373 113.394 250.732 113.407C261.827 113.782 273.053 114.048 284.231 114.347C295.427 114.64 306.609 114.943 317.818 115.237C320.766 115.314 323.717 115.39 326.655 115.462C334.839 115.657 342.988 115.578 351.058 114.731C356.635 114.214 362.026 112.922 367.865 112.11L367.826 112.117C369.714 111.841 371.598 111.531 373.48 111.189C376.751 110.611 379.984 109.858 383.339 109.336C383.628 109.293 383.923 109.253 384.214 109.218C386.394 108.982 388.523 108.584 390.662 108.069C390.999 107.989 391.331 107.959 391.598 107.988C391.857 108.018 392.032 108.104 392.071 108.235C392.11 108.366 392.011 108.535 391.807 108.703C391.597 108.873 391.298 109.027 390.964 109.139C388.87 109.847 386.669 110.464 384.493 110.898C384.203 110.96 383.905 111.028 383.614 111.099C380.977 111.752 378.309 112.61 375.608 113.366C375.05 112.921 374.362 112.647 373.22 112.713C372.635 112.746 371.805 112.888 371.223 113.118C370.697 113.326 370.319 113.575 369.962 113.81C369.582 114.058 369.227 114.291 368.738 114.443C368.592 114.489 368.447 114.538 368.302 114.591C368.296 114.592 368.276 114.596 368.269 114.597C367.618 114.821 367.005 115.139 366.369 115.481C366.091 115.632 365.804 115.788 365.51 115.943C362.99 116.619 360.393 117.378 357.76 118.021C356.711 118.173 355.772 118.3 354.968 118.468C354.255 118.616 353.599 118.847 352.974 119.097C352.56 119.181 352.143 119.263 351.736 119.342C349.054 119.857 346.397 120.277 343.701 120.634C341.587 120.677 339.378 120.7 336.517 120.791C335.273 120.83 334.05 120.804 332.898 120.77C331.159 120.721 329.53 120.655 328.135 120.764C327.684 120.798 327.215 120.802 326.735 120.788C326.237 120.773 325.722 120.74 325.198 120.706C323.876 120.618 322.543 120.53 321.351 120.761C320.58 120.907 319.915 121.08 319.268 121.241C318.227 121.498 317.373 121.721 316.549 121.744C315.041 121.789 313.714 121.98 312.566 122.148C311.157 122.35 310.017 122.519 308.974 122.358C308.82 122.334 308.643 122.301 308.443 122.264C307.388 122.067 305.695 121.753 303.27 121.952C302.412 122.023 301.589 122.196 300.804 122.366C299.653 122.613 298.525 122.852 297.325 122.756C297.145 122.741 296.957 122.678 296.786 122.619C296.568 122.545 296.377 122.481 296.265 122.539C295.935 122.708 295.416 122.896 294.848 123.101C294.432 123.251 293.989 123.41 293.581 123.577C290.466 123.686 287.348 123.786 284.229 123.878C282.803 123.92 281.368 123.96 279.942 123.998C279.208 123.747 278.46 123.52 277.673 123.348C276.635 123.123 275.31 123.054 273.574 122.963C272.311 122.895 270.824 122.816 269.105 122.653C265.915 122.351 262.657 122.396 260.541 122.534C260.104 122.563 259.65 122.595 259.17 122.628C257.374 122.755 255.102 122.92 250.784 123.045C250.332 123.057 249.895 123.068 249.473 123.077C246.001 123.15 243.033 123.153 240.739 123.16C239.424 123.164 238.328 123.169 237.492 123.191C236.055 123.229 234.296 123.262 232.525 123.297C229.755 123.352 226.964 123.412 225.383 123.5C224.82 123.532 224.229 123.571 223.591 123.613C221.822 123.729 219.685 123.87 216.734 123.94C213.635 124.013 211.714 123.936 209.716 123.784C208.907 123.722 208.186 123.5 207.455 123.27C206.411 122.944 205.326 122.603 203.843 122.678C203.499 122.695 203.13 122.741 202.744 122.788C202.031 122.874 201.269 122.967 200.484 122.906C200.21 122.884 199.967 122.821 199.734 122.76C199.477 122.692 199.224 122.626 198.936 122.616C197.855 122.581 196.814 122.571 195.876 122.561C194.68 122.548 193.659 122.534 193.043 122.466C191.931 122.343 190.714 122.387 189.471 122.429C188.529 122.46 187.571 122.491 186.65 122.445C186.069 122.415 185.437 122.393 184.761 122.376C182.417 122.318 179.6 122.349 176.712 122.449C175.308 122.497 174.126 122.324 172.611 122.104C171.669 121.968 170.598 121.812 169.263 121.682C168.507 121.609 167.861 121.708 167.264 121.8C166.712 121.884 166.202 121.962 165.683 121.895C165.223 121.835 164.939 121.627 164.668 121.43C164.366 121.211 164.082 121.004 163.597 121.029C163.339 121.042 163.022 121.133 162.646 121.24C162.497 121.283 162.339 121.328 162.171 121.372C162.18 121.332 162.183 121.296 162.184 121.269C162.19 121.076 161.699 120.96 161.217 120.846C161.024 120.801 160.832 120.756 160.675 120.707C160.096 120.525 158.993 120.467 158.148 120.45C157.79 120.443 157.468 120.374 157.092 120.293C157.004 120.274 156.912 120.254 156.816 120.234C156.556 120.18 156.264 120.126 155.914 120.086C155.642 120.056 155.433 119.994 155.26 119.943C155.134 119.905 155.027 119.874 154.927 119.863C154.841 119.855 154.77 119.908 154.689 119.969C154.631 120.012 154.569 120.059 154.492 120.089C154.307 120.16 154.083 120.177 153.922 120.149C153.848 120.136 153.79 120.113 153.732 120.09C153.665 120.063 153.598 120.037 153.506 120.026C153.079 119.975 152.66 120.028 152.221 120.084C151.734 120.146 151.249 120.21 150.696 120.143C150.522 120.122 150.337 120.078 150.158 120.035C149.97 119.991 149.787 119.947 149.631 119.934C148.995 119.879 148.411 120.007 147.861 120.125C147.497 120.203 147.152 120.277 146.832 120.291C146.248 120.315 145.937 120.476 145.705 120.595C145.585 120.657 145.487 120.708 145.384 120.722C145.291 120.716 145.196 120.71 145.103 120.702C145.018 120.689 144.929 120.675 144.846 120.678C144.84 120.678 144.834 120.679 144.828 120.679C144.306 120.632 143.793 120.568 143.289 120.506C142.151 120.365 141.019 120.227 139.828 120.288C139.571 120.302 139.308 120.368 139.041 120.436C138.713 120.518 138.379 120.603 138.039 120.595C137.23 120.575 136.411 120.457 135.605 120.343C134.395 120.17 133.209 120.004 132.119 120.182C131.76 120.241 131.409 120.34 131.057 120.439C130.861 120.495 130.664 120.551 130.466 120.6C130.508 120.509 130.53 120.424 130.551 120.344C130.594 120.18 130.631 120.04 130.822 119.921C131.273 119.64 131.785 119.253 131.728 118.97C131.713 118.894 131.726 118.808 131.739 118.722C131.774 118.507 131.809 118.286 131.389 118.187C131.106 118.119 130.38 117.966 129.916 118.131C129.816 118.167 129.754 118.238 129.686 118.318C129.564 118.46 129.418 118.629 128.98 118.669C128.906 118.675 128.826 118.681 128.743 118.687C128.413 118.71 128.044 118.735 127.906 118.85C127.747 118.982 127.782 119.133 127.822 119.309C127.874 119.538 127.936 119.81 127.595 120.139C127.527 120.204 127.397 120.226 127.299 120.243C127.23 120.256 127.177 120.265 127.172 120.285C127.166 120.307 127.188 120.354 127.217 120.413C127.316 120.62 127.489 120.983 126.772 121.001C126.578 121.006 126.356 120.99 126.158 120.975C125.865 120.953 125.622 120.936 125.59 120.995C125.577 121.018 125.569 121.042 125.562 121.068C125.329 121.062 125.097 121.056 124.864 121.05C124.563 120.981 124.142 120.99 123.618 121.001C123.491 121.004 123.357 121.007 123.218 121.009C122.757 120.997 122.303 120.986 121.838 120.975C121.472 120.948 121.082 120.903 120.672 120.829C119.853 120.681 119.134 120.432 118.431 120.189C118.135 120.087 117.842 119.985 117.546 119.893C117.661 119.88 117.765 119.864 117.844 119.844C118.389 119.706 118.607 119.445 118.808 119.205C118.941 119.046 119.067 118.895 119.277 118.797C119.663 118.616 119.62 118.411 119.591 118.258C119.576 118.179 119.564 118.115 119.614 118.076C119.655 118.045 119.75 118.029 119.848 118.013C119.934 117.999 120.022 117.984 120.078 117.959C120.763 117.65 120.555 117.477 120.251 117.225C120.084 117.086 119.888 116.924 119.797 116.701C119.718 116.464 119.743 116.395 120.103 116.297C119.82 116.182 119.541 116.068 119.254 115.954C119.143 115.963 119.059 116.037 118.942 116.16C118.733 116.38 118.047 116.467 117.514 116.536C117.268 116.568 117.054 116.596 116.933 116.631C116.284 116.817 116.477 117.061 116.647 117.275C116.74 117.394 116.827 117.503 116.762 117.589C116.734 117.626 116.775 117.661 116.816 117.697C116.848 117.725 116.88 117.754 116.882 117.784C116.893 118 116.509 118.165 116.155 118.319C115.952 118.407 115.759 118.492 115.653 118.58C115.621 118.607 115.595 118.634 115.572 118.66C115.537 118.699 115.503 118.735 115.449 118.767C115.326 118.84 115.073 118.891 114.797 118.947C114.655 118.976 114.508 119.006 114.369 119.041C114.187 119.087 114.12 119.173 114.052 119.264C114.003 119.328 113.953 119.393 113.858 119.448C113.688 119.548 113.341 119.589 113.021 119.627C112.881 119.644 112.747 119.66 112.634 119.68C112.588 119.688 112.566 119.703 112.561 119.724C112.04 119.801 111.539 119.879 111.046 119.957C108.617 120.346 106.481 120.688 103.318 120.571C102.722 120.549 102.085 120.578 101.43 120.632C99.3683 120.618 97.2751 120.614 95.2084 120.627C94.785 120.453 94.3078 120.313 93.6857 120.219C92.5636 120.04 91.4362 120.055 90.0722 120.094C89.1173 120.12 87.96 120.162 86.7223 120.164C86.4238 120.167 86.1436 120.171 85.8832 120.176C85.577 120.187 85.2983 120.199 85.0516 120.212C83.3951 120.336 81.6829 120.484 79.8358 120.703C77.3175 121.001 74.4664 121.398 72.4585 121.747C71.3643 121.936 70.1942 121.987 69.0922 122.049C67.5466 122.136 66.1613 122.238 65.4094 122.716C65.1716 122.869 64.9559 123.088 64.7444 123.302C64.5909 123.455 64.4534 123.602 64.3043 123.723C63.8555 123.803 63.3885 123.891 62.9443 123.974C62.0984 123.979 60.8047 124.089 59.6768 124.617C59.196 124.716 58.7486 124.808 58.291 124.904C57.3021 125.114 56.3299 125.324 55.3718 125.536C55.0566 125.606 54.7229 125.681 54.4073 125.752C54.4043 125.753 54.4013 125.753 54.3983 125.754C53.7687 125.895 53.0885 126.052 52.4641 126.196C52.1931 126.258 51.9195 126.322 51.6432 126.386C50.9242 126.556 50.259 126.712 49.5534 126.882C49.1754 126.973 48.8256 127.056 48.4557 127.146C47.8619 127.289 47.2387 127.443 46.6544 127.586C45.6841 127.825 44.7233 128.064 43.7535 128.308C43.5939 128.348 43.4328 128.365 43.3062 128.354C43.1796 128.342 43.0973 128.303 43.0777 128.241C43.0581 128.18 43.1026 128.1 43.1992 128.016C43.2957 127.933 43.437 127.854 43.5903 127.794C44.5236 127.431 45.4498 127.073 46.386 126.716C46.9488 126.501 47.5511 126.274 48.1245 126.058C48.4819 125.924 48.8194 125.797 49.1854 125.662C49.8681 125.409 50.5127 125.17 51.2104 124.918C51.4784 124.821 51.7437 124.725 52.0066 124.63C52.614 124.41 53.2776 124.176 53.8913 123.959C53.895 123.958 53.8988 123.956 53.9025 123.955C54.2082 123.847 54.5308 123.735 54.8358 123.629C55.7693 123.304 56.7194 122.981 57.6891 122.659C58.1911 122.492 58.6989 122.325 59.2259 122.155C59.5155 122.061 59.7984 121.97 60.0785 121.881C60.2362 121.831 60.395 121.781 60.5537 121.731C64.1765 120.586 67.8103 119.562 71.5354 118.673C75.2364 117.784 78.9663 117.04 82.6312 116.268C83.2035 116.148 83.7622 116.03 84.3362 115.907C87.6908 115.254 90.8495 114.966 94.0824 114.644C115.018 112.813 135.963 112.062 157.053 112.068C160.13 112.081 163.21 112.094 166.295 112.118C169.726 112.143 173.252 112.185 176.696 112.244C179.536 112.293 182.331 112.352 185.157 112.425C185.793 112.441 186.427 112.457 187.059 112.472C188.111 112.496 189.177 112.52 190.286 112.543Z" fill="#FFE80D"/>
<path d="M69.8604 143.984V171H65.2402V143.984H69.8604ZM78.3398 143.984V147.695H56.835V143.984H78.3398ZM88.5264 171.371C87.042 171.371 85.6999 171.13 84.5 170.647C83.3125 170.153 82.2982 169.466 81.457 168.588C80.6283 167.71 79.9912 166.677 79.5459 165.489C79.1006 164.302 78.8779 163.021 78.8779 161.648V160.906C78.8779 159.335 79.1068 157.913 79.5645 156.639C80.0221 155.365 80.6592 154.276 81.4756 153.373C82.292 152.458 83.2568 151.759 84.3701 151.276C85.4834 150.794 86.6895 150.553 87.9883 150.553C89.4232 150.553 90.6787 150.794 91.7549 151.276C92.8311 151.759 93.7217 152.439 94.4268 153.317C95.1442 154.183 95.6761 155.216 96.0225 156.416C96.3812 157.616 96.5605 158.939 96.5605 160.387V162.298H81.0488V159.088H92.1445V158.735C92.1198 157.931 91.959 157.177 91.6621 156.472C91.3776 155.767 90.9385 155.198 90.3447 154.765C89.751 154.332 88.9593 154.115 87.9697 154.115C87.2275 154.115 86.5658 154.276 85.9844 154.598C85.4154 154.907 84.9391 155.358 84.5557 155.952C84.1722 156.546 83.8753 157.263 83.665 158.104C83.4671 158.933 83.3682 159.867 83.3682 160.906V161.648C83.3682 162.527 83.4857 163.343 83.7207 164.098C83.9681 164.84 84.3268 165.489 84.7969 166.046C85.2669 166.603 85.8359 167.042 86.5039 167.363C87.1719 167.673 87.9326 167.827 88.7861 167.827C89.8623 167.827 90.821 167.611 91.6621 167.178C92.5033 166.745 93.2331 166.132 93.8516 165.341L96.208 167.623C95.7751 168.254 95.2122 168.86 94.5195 169.441C93.8268 170.01 92.9795 170.474 91.9775 170.833C90.988 171.192 89.8376 171.371 88.5264 171.371ZM104.836 142.5V171H100.346V142.5H104.836ZM114.521 142.5V171H110.031V142.5H114.521ZM124.207 150.924V171H119.717V150.924H124.207ZM119.42 145.654C119.42 144.974 119.643 144.411 120.088 143.966C120.546 143.508 121.176 143.279 121.98 143.279C122.772 143.279 123.397 143.508 123.854 143.966C124.312 144.411 124.541 144.974 124.541 145.654C124.541 146.322 124.312 146.879 123.854 147.324C123.397 147.77 122.772 147.992 121.98 147.992C121.176 147.992 120.546 147.77 120.088 147.324C119.643 146.879 119.42 146.322 119.42 145.654ZM160.556 156.75V158.234C160.556 160.275 160.29 162.106 159.758 163.727C159.226 165.347 158.465 166.726 157.476 167.864C156.498 169.002 155.323 169.874 153.95 170.48C152.577 171.074 151.056 171.371 149.386 171.371C147.728 171.371 146.213 171.074 144.84 170.48C143.479 169.874 142.298 169.002 141.296 167.864C140.294 166.726 139.515 165.347 138.958 163.727C138.414 162.106 138.142 160.275 138.142 158.234V156.75C138.142 154.709 138.414 152.884 138.958 151.276C139.502 149.656 140.269 148.277 141.259 147.139C142.261 145.988 143.442 145.116 144.803 144.522C146.176 143.916 147.691 143.613 149.349 143.613C151.019 143.613 152.54 143.916 153.913 144.522C155.286 145.116 156.467 145.988 157.457 147.139C158.447 148.277 159.207 149.656 159.739 151.276C160.284 152.884 160.556 154.709 160.556 156.75ZM155.898 158.234V156.713C155.898 155.204 155.75 153.874 155.453 152.724C155.169 151.561 154.742 150.59 154.173 149.811C153.616 149.019 152.93 148.425 152.113 148.029C151.297 147.621 150.375 147.417 149.349 147.417C148.322 147.417 147.407 147.621 146.603 148.029C145.799 148.425 145.112 149.019 144.543 149.811C143.986 150.59 143.56 151.561 143.263 152.724C142.966 153.874 142.817 155.204 142.817 156.713V158.234C142.817 159.743 142.966 161.079 143.263 162.242C143.56 163.405 143.993 164.388 144.562 165.192C145.143 165.984 145.836 166.584 146.64 166.992C147.444 167.388 148.359 167.586 149.386 167.586C150.425 167.586 151.346 167.388 152.15 166.992C152.954 166.584 153.635 165.984 154.191 165.192C154.748 164.388 155.169 163.405 155.453 162.242C155.75 161.079 155.898 159.743 155.898 158.234ZM153.431 136.934L156.158 137.138C156.158 138.041 155.979 138.851 155.62 139.568C155.261 140.273 154.773 140.83 154.154 141.238C153.536 141.646 152.837 141.851 152.058 141.851C151.451 141.851 150.938 141.764 150.518 141.591C150.097 141.418 149.714 141.22 149.367 140.997C149.021 140.774 148.662 140.583 148.291 140.422C147.932 140.249 147.506 140.162 147.011 140.162C146.541 140.162 146.139 140.335 145.805 140.682C145.483 141.028 145.322 141.492 145.322 142.073L142.576 141.925C142.576 141.034 142.756 140.23 143.114 139.513C143.473 138.795 143.962 138.226 144.58 137.806C145.199 137.385 145.897 137.175 146.677 137.175C147.184 137.175 147.642 137.261 148.05 137.435C148.47 137.595 148.866 137.787 149.237 138.01C149.621 138.232 150.01 138.43 150.406 138.604C150.802 138.777 151.241 138.863 151.724 138.863C152.194 138.863 152.596 138.684 152.93 138.325C153.264 137.966 153.431 137.503 153.431 136.934ZM169.184 142.5V171H164.73V142.5H169.184ZM168.404 160.22L166.957 160.201C166.969 158.816 167.161 157.535 167.532 156.36C167.916 155.185 168.448 154.165 169.128 153.299C169.821 152.421 170.649 151.746 171.614 151.276C172.579 150.794 173.649 150.553 174.824 150.553C175.814 150.553 176.704 150.689 177.496 150.961C178.3 151.233 178.993 151.672 179.574 152.278C180.156 152.872 180.595 153.651 180.892 154.616C181.201 155.569 181.355 156.731 181.355 158.104V171H176.865V158.067C176.865 157.103 176.723 156.336 176.438 155.767C176.166 155.198 175.764 154.789 175.232 154.542C174.701 154.282 174.051 154.152 173.284 154.152C172.48 154.152 171.769 154.313 171.15 154.635C170.544 154.956 170.037 155.396 169.629 155.952C169.221 156.509 168.911 157.152 168.701 157.882C168.503 158.612 168.404 159.391 168.404 160.22ZM195.086 150.924V154.189H183.768V150.924H195.086ZM187.033 146.007H191.505V165.452C191.505 166.071 191.591 166.547 191.765 166.881C191.95 167.202 192.204 167.419 192.525 167.53C192.847 167.642 193.224 167.697 193.657 167.697C193.966 167.697 194.263 167.679 194.548 167.642C194.832 167.604 195.061 167.567 195.234 167.53L195.253 170.944C194.882 171.056 194.449 171.155 193.954 171.241C193.472 171.328 192.915 171.371 192.284 171.371C191.257 171.371 190.348 171.192 189.557 170.833C188.765 170.462 188.146 169.862 187.701 169.033C187.256 168.204 187.033 167.104 187.033 165.73V146.007ZM210.616 166.269V150.924H215.106V171H210.876L210.616 166.269ZM211.247 162.094L212.75 162.057C212.75 163.405 212.602 164.648 212.305 165.786C212.008 166.912 211.55 167.895 210.932 168.736C210.313 169.565 209.521 170.215 208.557 170.685C207.592 171.142 206.435 171.371 205.087 171.371C204.11 171.371 203.213 171.229 202.396 170.944C201.58 170.66 200.875 170.221 200.281 169.627C199.7 169.033 199.248 168.26 198.927 167.308C198.605 166.355 198.444 165.217 198.444 163.894V150.924H202.916V163.931C202.916 164.66 203.003 165.273 203.176 165.768C203.349 166.25 203.584 166.64 203.881 166.937C204.178 167.233 204.524 167.444 204.92 167.567C205.316 167.691 205.736 167.753 206.182 167.753C207.456 167.753 208.458 167.506 209.188 167.011C209.93 166.504 210.455 165.823 210.765 164.97C211.086 164.116 211.247 163.158 211.247 162.094ZM224.477 142.5V171H219.986V142.5H224.477ZM238.226 171.371C236.741 171.371 235.399 171.13 234.199 170.647C233.012 170.153 231.997 169.466 231.156 168.588C230.327 167.71 229.69 166.677 229.245 165.489C228.8 164.302 228.577 163.021 228.577 161.648V160.906C228.577 159.335 228.806 157.913 229.264 156.639C229.721 155.365 230.358 154.276 231.175 153.373C231.991 152.458 232.956 151.759 234.069 151.276C235.183 150.794 236.389 150.553 237.688 150.553C239.122 150.553 240.378 150.794 241.454 151.276C242.53 151.759 243.421 152.439 244.126 153.317C244.843 154.183 245.375 155.216 245.722 156.416C246.08 157.616 246.26 158.939 246.26 160.387V162.298H230.748V159.088H241.844V158.735C241.819 157.931 241.658 157.177 241.361 156.472C241.077 155.767 240.638 155.198 240.044 154.765C239.45 154.332 238.659 154.115 237.669 154.115C236.927 154.115 236.265 154.276 235.684 154.598C235.115 154.907 234.638 155.358 234.255 155.952C233.871 156.546 233.575 157.263 233.364 158.104C233.166 158.933 233.067 159.867 233.067 160.906V161.648C233.067 162.527 233.185 163.343 233.42 164.098C233.667 164.84 234.026 165.489 234.496 166.046C234.966 166.603 235.535 167.042 236.203 167.363C236.871 167.673 237.632 167.827 238.485 167.827C239.562 167.827 240.52 167.611 241.361 167.178C242.202 166.745 242.932 166.132 243.551 165.341L245.907 167.623C245.474 168.254 244.911 168.86 244.219 169.441C243.526 170.01 242.679 170.474 241.677 170.833C240.687 171.192 239.537 171.371 238.226 171.371ZM254.164 142.5V171H249.711V142.5H254.164ZM253.385 160.22L251.938 160.201C251.95 158.816 252.142 157.535 252.513 156.36C252.896 155.185 253.428 154.165 254.108 153.299C254.801 152.421 255.63 151.746 256.595 151.276C257.56 150.794 258.63 150.553 259.805 150.553C260.794 150.553 261.685 150.689 262.477 150.961C263.281 151.233 263.973 151.672 264.555 152.278C265.136 152.872 265.575 153.651 265.872 154.616C266.181 155.569 266.336 156.731 266.336 158.104V171H261.846V158.067C261.846 157.103 261.703 156.336 261.419 155.767C261.147 155.198 260.745 154.789 260.213 154.542C259.681 154.282 259.032 154.152 258.265 154.152C257.461 154.152 256.749 154.313 256.131 154.635C255.525 154.956 255.018 155.396 254.609 155.952C254.201 156.509 253.892 157.152 253.682 157.882C253.484 158.612 253.385 159.391 253.385 160.22ZM280.066 150.924V154.189H268.748V150.924H280.066ZM272.014 146.007H276.485V165.452C276.485 166.071 276.572 166.547 276.745 166.881C276.931 167.202 277.184 167.419 277.506 167.53C277.827 167.642 278.205 167.697 278.638 167.697C278.947 167.697 279.244 167.679 279.528 167.642C279.813 167.604 280.042 167.567 280.215 167.53L280.233 170.944C279.862 171.056 279.429 171.155 278.935 171.241C278.452 171.328 277.896 171.371 277.265 171.371C276.238 171.371 275.329 171.192 274.537 170.833C273.745 170.462 273.127 169.862 272.682 169.033C272.236 168.204 272.014 167.104 272.014 165.73V146.007ZM298.083 143.984V171H293.426V143.984H298.083ZM314.318 143.984L303.371 156.991L297.137 163.597L296.32 158.977L300.773 153.484L308.641 143.984H314.318ZM309.309 171L300.421 158.197L303.631 155.024L314.838 171H309.309ZM321.777 150.924V171H317.287V150.924H321.777ZM316.99 145.654C316.99 144.974 317.213 144.411 317.658 143.966C318.116 143.508 318.747 143.279 319.551 143.279C320.342 143.279 320.967 143.508 321.425 143.966C321.882 144.411 322.111 144.974 322.111 145.654C322.111 146.322 321.882 146.879 321.425 147.324C320.967 147.77 320.342 147.992 319.551 147.992C318.747 147.992 318.116 147.77 317.658 147.324C317.213 146.879 316.99 146.322 316.99 145.654ZM331.166 154.746V171H326.694V150.924H330.962L331.166 154.746ZM337.308 150.794L337.271 154.95C336.998 154.901 336.701 154.864 336.38 154.839C336.071 154.814 335.761 154.802 335.452 154.802C334.685 154.802 334.011 154.913 333.43 155.136C332.848 155.346 332.36 155.655 331.964 156.063C331.58 156.459 331.284 156.942 331.073 157.511C330.863 158.08 330.739 158.717 330.702 159.422L329.682 159.496C329.682 158.234 329.805 157.065 330.053 155.989C330.3 154.913 330.671 153.967 331.166 153.15C331.673 152.334 332.304 151.697 333.059 151.239C333.826 150.782 334.71 150.553 335.712 150.553C335.984 150.553 336.275 150.577 336.584 150.627C336.906 150.676 337.147 150.732 337.308 150.794ZM340.332 150.924H344.822V172.744C344.822 174.117 344.587 175.274 344.117 176.214C343.647 177.166 342.954 177.884 342.039 178.366C341.124 178.861 340.004 179.108 338.681 179.108C338.285 179.108 337.877 179.077 337.456 179.016C337.023 178.966 336.615 178.892 336.231 178.793L336.25 175.305C336.51 175.354 336.788 175.391 337.085 175.416C337.369 175.453 337.642 175.472 337.901 175.472C338.433 175.472 338.879 175.379 339.237 175.193C339.596 175.008 339.868 174.717 340.054 174.321C340.239 173.925 340.332 173.4 340.332 172.744V150.924ZM339.942 145.654C339.942 144.974 340.171 144.411 340.629 143.966C341.087 143.508 341.711 143.279 342.503 143.279C343.307 143.279 343.932 143.508 344.377 143.966C344.835 144.411 345.063 144.974 345.063 145.654C345.063 146.322 344.835 146.879 344.377 147.324C343.932 147.77 343.307 147.992 342.503 147.992C341.711 147.992 341.087 147.77 340.629 147.324C340.171 146.879 339.942 146.322 339.942 145.654ZM360.965 166.974V157.399C360.965 156.682 360.835 156.063 360.575 155.544C360.315 155.024 359.92 154.622 359.388 154.338C358.868 154.053 358.213 153.911 357.421 153.911C356.691 153.911 356.06 154.035 355.528 154.282C354.996 154.53 354.582 154.864 354.285 155.284C353.988 155.705 353.84 156.181 353.84 156.713H349.387C349.387 155.921 349.578 155.154 349.962 154.412C350.345 153.67 350.902 153.008 351.632 152.427C352.362 151.845 353.234 151.388 354.248 151.054C355.262 150.72 356.4 150.553 357.662 150.553C359.171 150.553 360.507 150.806 361.67 151.313C362.845 151.821 363.767 152.588 364.435 153.614C365.115 154.629 365.455 155.903 365.455 157.437V166.361C365.455 167.277 365.517 168.099 365.641 168.829C365.777 169.547 365.968 170.171 366.216 170.703V171H361.633C361.423 170.518 361.256 169.905 361.132 169.163C361.021 168.409 360.965 167.679 360.965 166.974ZM361.614 158.791L361.651 161.556H358.441C357.613 161.556 356.883 161.636 356.252 161.797C355.621 161.945 355.095 162.168 354.675 162.465C354.254 162.762 353.939 163.12 353.729 163.541C353.518 163.962 353.413 164.438 353.413 164.97C353.413 165.502 353.537 165.99 353.784 166.436C354.032 166.868 354.39 167.209 354.86 167.456C355.343 167.703 355.924 167.827 356.604 167.827C357.52 167.827 358.318 167.642 358.998 167.271C359.691 166.887 360.235 166.423 360.631 165.879C361.027 165.322 361.237 164.797 361.262 164.302L362.709 166.287C362.561 166.794 362.307 167.339 361.948 167.92C361.59 168.501 361.119 169.058 360.538 169.59C359.969 170.109 359.283 170.536 358.479 170.87C357.687 171.204 356.771 171.371 355.732 171.371C354.421 171.371 353.252 171.111 352.226 170.592C351.199 170.06 350.395 169.349 349.813 168.458C349.232 167.555 348.941 166.535 348.941 165.396C348.941 164.333 349.139 163.393 349.535 162.576C349.943 161.747 350.537 161.055 351.316 160.498C352.108 159.941 353.073 159.521 354.211 159.236C355.349 158.939 356.648 158.791 358.107 158.791H361.614ZM381.394 165.563C381.394 165.118 381.282 164.716 381.06 164.357C380.837 163.986 380.41 163.652 379.779 163.355C379.161 163.059 378.245 162.786 377.033 162.539C375.969 162.304 374.992 162.026 374.102 161.704C373.223 161.37 372.469 160.968 371.838 160.498C371.207 160.028 370.718 159.471 370.372 158.828C370.026 158.185 369.853 157.443 369.853 156.602C369.853 155.785 370.032 155.012 370.391 154.282C370.749 153.552 371.263 152.909 371.931 152.353C372.599 151.796 373.409 151.357 374.361 151.035C375.326 150.714 376.402 150.553 377.59 150.553C379.272 150.553 380.713 150.837 381.913 151.406C383.125 151.963 384.053 152.724 384.696 153.688C385.34 154.641 385.661 155.717 385.661 156.917H381.189C381.189 156.385 381.053 155.89 380.781 155.433C380.521 154.963 380.126 154.585 379.594 154.301C379.062 154.004 378.394 153.855 377.59 153.855C376.823 153.855 376.186 153.979 375.679 154.227C375.184 154.462 374.813 154.771 374.565 155.154C374.33 155.538 374.213 155.958 374.213 156.416C374.213 156.75 374.275 157.053 374.398 157.325C374.535 157.585 374.757 157.826 375.066 158.049C375.376 158.259 375.796 158.457 376.328 158.643C376.872 158.828 377.553 159.007 378.369 159.181C379.903 159.502 381.22 159.917 382.321 160.424C383.435 160.919 384.288 161.562 384.882 162.354C385.476 163.133 385.772 164.122 385.772 165.322C385.772 166.213 385.581 167.029 385.197 167.771C384.826 168.501 384.282 169.138 383.564 169.683C382.847 170.215 381.987 170.629 380.985 170.926C379.996 171.223 378.882 171.371 377.646 171.371C375.827 171.371 374.287 171.049 373.025 170.406C371.764 169.751 370.805 168.916 370.149 167.901C369.506 166.875 369.185 165.811 369.185 164.71H373.508C373.557 165.539 373.786 166.201 374.194 166.695C374.615 167.178 375.134 167.53 375.753 167.753C376.384 167.963 377.033 168.068 377.701 168.068C378.505 168.068 379.179 167.963 379.724 167.753C380.268 167.53 380.682 167.233 380.967 166.862C381.251 166.479 381.394 166.046 381.394 165.563ZM398.891 150.924V154.189H387.572V150.924H398.891ZM390.838 146.007H395.31V165.452C395.31 166.071 395.396 166.547 395.569 166.881C395.755 167.202 396.008 167.419 396.33 167.53C396.652 167.642 397.029 167.697 397.462 167.697C397.771 167.697 398.068 167.679 398.353 167.642C398.637 167.604 398.866 167.567 399.039 167.53L399.058 170.944C398.687 171.056 398.254 171.155 397.759 171.241C397.276 171.328 396.72 171.371 396.089 171.371C395.062 171.371 394.153 171.192 393.361 170.833C392.57 170.462 391.951 169.862 391.506 169.033C391.061 168.204 390.838 167.104 390.838 165.73V146.007ZM414.421 166.269V150.924H418.911V171H414.681L414.421 166.269ZM415.052 162.094L416.555 162.057C416.555 163.405 416.406 164.648 416.109 165.786C415.812 166.912 415.355 167.895 414.736 168.736C414.118 169.565 413.326 170.215 412.361 170.685C411.396 171.142 410.24 171.371 408.892 171.371C407.914 171.371 407.018 171.229 406.201 170.944C405.385 170.66 404.68 170.221 404.086 169.627C403.505 169.033 403.053 168.26 402.731 167.308C402.41 166.355 402.249 165.217 402.249 163.894V150.924H406.721V163.931C406.721 164.66 406.807 165.273 406.98 165.768C407.154 166.25 407.389 166.64 407.686 166.937C407.982 167.233 408.329 167.444 408.725 167.567C409.12 167.691 409.541 167.753 409.986 167.753C411.26 167.753 412.262 167.506 412.992 167.011C413.734 166.504 414.26 165.823 414.569 164.97C414.891 164.116 415.052 163.158 415.052 162.094ZM434.757 165.563C434.757 165.118 434.646 164.716 434.423 164.357C434.2 163.986 433.773 163.652 433.143 163.355C432.524 163.059 431.609 162.786 430.396 162.539C429.333 162.304 428.355 162.026 427.465 161.704C426.587 161.37 425.832 160.968 425.201 160.498C424.57 160.028 424.082 159.471 423.735 158.828C423.389 158.185 423.216 157.443 423.216 156.602C423.216 155.785 423.395 155.012 423.754 154.282C424.113 153.552 424.626 152.909 425.294 152.353C425.962 151.796 426.772 151.357 427.725 151.035C428.689 150.714 429.766 150.553 430.953 150.553C432.635 150.553 434.076 150.837 435.276 151.406C436.489 151.963 437.416 152.724 438.06 153.688C438.703 154.641 439.024 155.717 439.024 156.917H434.553C434.553 156.385 434.417 155.89 434.145 155.433C433.885 154.963 433.489 154.585 432.957 154.301C432.425 154.004 431.757 153.855 430.953 153.855C430.186 153.855 429.549 153.979 429.042 154.227C428.547 154.462 428.176 154.771 427.929 155.154C427.694 155.538 427.576 155.958 427.576 156.416C427.576 156.75 427.638 157.053 427.762 157.325C427.898 157.585 428.12 157.826 428.43 158.049C428.739 158.259 429.16 158.457 429.691 158.643C430.236 158.828 430.916 159.007 431.732 159.181C433.266 159.502 434.584 159.917 435.685 160.424C436.798 160.919 437.651 161.562 438.245 162.354C438.839 163.133 439.136 164.122 439.136 165.322C439.136 166.213 438.944 167.029 438.561 167.771C438.189 168.501 437.645 169.138 436.928 169.683C436.21 170.215 435.351 170.629 434.349 170.926C433.359 171.223 432.246 171.371 431.009 171.371C429.19 171.371 427.65 171.049 426.389 170.406C425.127 169.751 424.168 168.916 423.513 167.901C422.869 166.875 422.548 165.811 422.548 164.71H426.871C426.921 165.539 427.149 166.201 427.558 166.695C427.978 167.178 428.498 167.53 429.116 167.753C429.747 167.963 430.396 168.068 431.064 168.068C431.868 168.068 432.543 167.963 433.087 167.753C433.631 167.53 434.046 167.233 434.33 166.862C434.615 166.479 434.757 166.046 434.757 165.563ZM451.901 171.371C450.417 171.371 449.075 171.13 447.875 170.647C446.688 170.153 445.673 169.466 444.832 168.588C444.003 167.71 443.366 166.677 442.921 165.489C442.476 164.302 442.253 163.021 442.253 161.648V160.906C442.253 159.335 442.482 157.913 442.939 156.639C443.397 155.365 444.034 154.276 444.851 153.373C445.667 152.458 446.632 151.759 447.745 151.276C448.858 150.794 450.064 150.553 451.363 150.553C452.798 150.553 454.054 150.794 455.13 151.276C456.206 151.759 457.097 152.439 457.802 153.317C458.519 154.183 459.051 155.216 459.397 156.416C459.756 157.616 459.936 158.939 459.936 160.387V162.298H444.424V159.088H455.52V158.735C455.495 157.931 455.334 157.177 455.037 156.472C454.753 155.767 454.313 155.198 453.72 154.765C453.126 154.332 452.334 154.115 451.345 154.115C450.603 154.115 449.941 154.276 449.359 154.598C448.79 154.907 448.314 155.358 447.931 155.952C447.547 156.546 447.25 157.263 447.04 158.104C446.842 158.933 446.743 159.867 446.743 160.906V161.648C446.743 162.527 446.861 163.343 447.096 164.098C447.343 164.84 447.702 165.489 448.172 166.046C448.642 166.603 449.211 167.042 449.879 167.363C450.547 167.673 451.308 167.827 452.161 167.827C453.237 167.827 454.196 167.611 455.037 167.178C455.878 166.745 456.608 166.132 457.227 165.341L459.583 167.623C459.15 168.254 458.587 168.86 457.895 169.441C457.202 170.01 456.354 170.474 455.353 170.833C454.363 171.192 453.213 171.371 451.901 171.371ZM485.133 166.844V142.5H489.623V171H485.56L485.133 166.844ZM472.07 161.185V160.795C472.07 159.273 472.25 157.888 472.608 156.639C472.967 155.377 473.487 154.295 474.167 153.392C474.847 152.476 475.676 151.777 476.653 151.295C477.631 150.8 478.731 150.553 479.956 150.553C481.168 150.553 482.232 150.788 483.147 151.258C484.063 151.728 484.842 152.402 485.485 153.28C486.129 154.146 486.642 155.185 487.025 156.397C487.409 157.597 487.681 158.933 487.842 160.405V161.648C487.681 163.083 487.409 164.395 487.025 165.582C486.642 166.77 486.129 167.796 485.485 168.662C484.842 169.528 484.057 170.196 483.129 170.666C482.214 171.136 481.144 171.371 479.919 171.371C478.707 171.371 477.612 171.118 476.635 170.61C475.67 170.103 474.847 169.392 474.167 168.477C473.487 167.561 472.967 166.485 472.608 165.248C472.25 163.999 472.07 162.644 472.07 161.185ZM476.542 160.795V161.185C476.542 162.1 476.622 162.953 476.783 163.745C476.956 164.537 477.222 165.236 477.581 165.842C477.94 166.436 478.404 166.906 478.973 167.252C479.554 167.586 480.247 167.753 481.051 167.753C482.065 167.753 482.9 167.53 483.556 167.085C484.211 166.64 484.725 166.04 485.096 165.285C485.479 164.518 485.739 163.665 485.875 162.725V159.366C485.801 158.636 485.646 157.956 485.411 157.325C485.188 156.694 484.885 156.144 484.502 155.674C484.118 155.191 483.642 154.82 483.073 154.561C482.517 154.288 481.855 154.152 481.088 154.152C480.271 154.152 479.579 154.326 479.01 154.672C478.441 155.018 477.971 155.494 477.6 156.101C477.241 156.707 476.975 157.412 476.802 158.216C476.629 159.02 476.542 159.88 476.542 160.795ZM499.086 150.924V171H494.596V150.924H499.086ZM494.299 145.654C494.299 144.974 494.521 144.411 494.967 143.966C495.424 143.508 496.055 143.279 496.859 143.279C497.651 143.279 498.276 143.508 498.733 143.966C499.191 144.411 499.42 144.974 499.42 145.654C499.42 146.322 499.191 146.879 498.733 147.324C498.276 147.77 497.651 147.992 496.859 147.992C496.055 147.992 495.424 147.77 494.967 147.324C494.521 146.879 494.299 146.322 494.299 145.654ZM516.843 150.924H520.906V170.443C520.906 172.249 520.523 173.783 519.756 175.045C518.989 176.307 517.919 177.265 516.546 177.921C515.173 178.589 513.583 178.923 511.777 178.923C511.01 178.923 510.157 178.812 509.217 178.589C508.289 178.366 507.386 178.007 506.508 177.513C505.642 177.03 504.918 176.393 504.337 175.602L506.434 172.967C507.151 173.82 507.943 174.445 508.809 174.841C509.674 175.237 510.584 175.435 511.536 175.435C512.563 175.435 513.435 175.243 514.152 174.859C514.882 174.488 515.445 173.938 515.841 173.208C516.237 172.478 516.435 171.588 516.435 170.536V155.47L516.843 150.924ZM503.205 161.185V160.795C503.205 159.273 503.391 157.888 503.762 156.639C504.133 155.377 504.665 154.295 505.357 153.392C506.05 152.476 506.891 151.777 507.881 151.295C508.87 150.8 509.99 150.553 511.239 150.553C512.538 150.553 513.645 150.788 514.561 151.258C515.488 151.728 516.261 152.402 516.88 153.28C517.498 154.146 517.981 155.185 518.327 156.397C518.686 157.597 518.952 158.933 519.125 160.405V161.648C518.964 163.083 518.692 164.395 518.309 165.582C517.925 166.77 517.418 167.796 516.787 168.662C516.156 169.528 515.377 170.196 514.449 170.666C513.534 171.136 512.451 171.371 511.202 171.371C509.978 171.371 508.87 171.118 507.881 170.61C506.904 170.103 506.062 169.392 505.357 168.477C504.665 167.561 504.133 166.485 503.762 165.248C503.391 163.999 503.205 162.644 503.205 161.185ZM507.677 160.795V161.185C507.677 162.1 507.763 162.953 507.937 163.745C508.122 164.537 508.4 165.236 508.771 165.842C509.155 166.436 509.637 166.906 510.219 167.252C510.812 167.586 511.511 167.753 512.315 167.753C513.367 167.753 514.227 167.53 514.895 167.085C515.575 166.64 516.094 166.04 516.453 165.285C516.824 164.518 517.084 163.665 517.232 162.725V159.366C517.158 158.636 517.004 157.956 516.769 157.325C516.546 156.694 516.243 156.144 515.859 155.674C515.476 155.191 514.993 154.82 514.412 154.561C513.831 154.288 513.144 154.152 512.353 154.152C511.549 154.152 510.85 154.326 510.256 154.672C509.662 155.018 509.174 155.494 508.79 156.101C508.419 156.707 508.141 157.412 507.955 158.216C507.77 159.02 507.677 159.88 507.677 160.795ZM530.332 150.924V171H525.842V150.924H530.332ZM525.545 145.654C525.545 144.974 525.768 144.411 526.213 143.966C526.671 143.508 527.301 143.279 528.105 143.279C528.897 143.279 529.522 143.508 529.979 143.966C530.437 144.411 530.666 144.974 530.666 145.654C530.666 146.322 530.437 146.879 529.979 147.324C529.522 147.77 528.897 147.992 528.105 147.992C527.301 147.992 526.671 147.77 526.213 147.324C525.768 146.879 525.545 146.322 525.545 145.654ZM539.721 154.783V178.719H535.249V150.924H539.368L539.721 154.783ZM552.802 160.776V161.166C552.802 162.626 552.629 163.98 552.282 165.229C551.948 166.466 551.447 167.549 550.779 168.477C550.124 169.392 549.313 170.103 548.349 170.61C547.384 171.118 546.271 171.371 545.009 171.371C543.759 171.371 542.665 171.142 541.725 170.685C540.797 170.215 540.011 169.553 539.368 168.699C538.725 167.846 538.205 166.844 537.81 165.693C537.426 164.531 537.154 163.257 536.993 161.871V160.368C537.154 158.896 537.426 157.56 537.81 156.36C538.205 155.16 538.725 154.128 539.368 153.262C540.011 152.396 540.797 151.728 541.725 151.258C542.652 150.788 543.735 150.553 544.972 150.553C546.233 150.553 547.353 150.8 548.33 151.295C549.307 151.777 550.13 152.47 550.798 153.373C551.466 154.264 551.967 155.34 552.301 156.602C552.635 157.851 552.802 159.243 552.802 160.776ZM548.33 161.166V160.776C548.33 159.849 548.243 158.989 548.07 158.197C547.897 157.393 547.625 156.688 547.254 156.082C546.883 155.476 546.407 155.006 545.825 154.672C545.256 154.326 544.57 154.152 543.766 154.152C542.974 154.152 542.294 154.288 541.725 154.561C541.156 154.82 540.679 155.185 540.296 155.655C539.912 156.125 539.616 156.676 539.405 157.307C539.195 157.925 539.047 158.599 538.96 159.329V162.929C539.108 163.819 539.362 164.636 539.721 165.378C540.079 166.12 540.587 166.714 541.242 167.159C541.91 167.592 542.764 167.809 543.803 167.809C544.607 167.809 545.293 167.635 545.862 167.289C546.431 166.943 546.895 166.466 547.254 165.86C547.625 165.242 547.897 164.531 548.07 163.727C548.243 162.923 548.33 162.069 548.33 161.166ZM567.924 166.974V157.399C567.924 156.682 567.794 156.063 567.534 155.544C567.274 155.024 566.879 154.622 566.347 154.338C565.827 154.053 565.172 153.911 564.38 153.911C563.65 153.911 563.019 154.035 562.487 154.282C561.955 154.53 561.541 154.864 561.244 155.284C560.947 155.705 560.799 156.181 560.799 156.713H556.346C556.346 155.921 556.537 155.154 556.921 154.412C557.304 153.67 557.861 153.008 558.591 152.427C559.321 151.845 560.193 151.388 561.207 151.054C562.221 150.72 563.359 150.553 564.621 150.553C566.13 150.553 567.466 150.806 568.629 151.313C569.804 151.821 570.726 152.588 571.394 153.614C572.074 154.629 572.414 155.903 572.414 157.437V166.361C572.414 167.277 572.476 168.099 572.6 168.829C572.736 169.547 572.927 170.171 573.175 170.703V171H568.592C568.382 170.518 568.215 169.905 568.091 169.163C567.979 168.409 567.924 167.679 567.924 166.974ZM568.573 158.791L568.61 161.556H565.4C564.572 161.556 563.842 161.636 563.211 161.797C562.58 161.945 562.054 162.168 561.634 162.465C561.213 162.762 560.898 163.12 560.688 163.541C560.477 163.962 560.372 164.438 560.372 164.97C560.372 165.502 560.496 165.99 560.743 166.436C560.991 166.868 561.349 167.209 561.819 167.456C562.302 167.703 562.883 167.827 563.563 167.827C564.479 167.827 565.277 167.642 565.957 167.271C566.65 166.887 567.194 166.423 567.59 165.879C567.986 165.322 568.196 164.797 568.221 164.302L569.668 166.287C569.52 166.794 569.266 167.339 568.907 167.92C568.549 168.501 568.078 169.058 567.497 169.59C566.928 170.109 566.242 170.536 565.438 170.87C564.646 171.204 563.73 171.371 562.691 171.371C561.38 171.371 560.211 171.111 559.185 170.592C558.158 170.06 557.354 169.349 556.772 168.458C556.191 167.555 555.9 166.535 555.9 165.396C555.9 164.333 556.098 163.393 556.494 162.576C556.902 161.747 557.496 161.055 558.275 160.498C559.067 159.941 560.032 159.521 561.17 159.236C562.308 158.939 563.607 158.791 565.066 158.791H568.573ZM581.599 142.5V171H577.108V142.5H581.599ZM594.067 150.924L585.328 160.609L580.541 165.508L579.372 161.723L582.99 157.251L588.668 150.924H594.067ZM589.633 171L583.12 161.574L585.94 158.438L594.81 171H589.633ZM605.386 171.371C603.901 171.371 602.559 171.13 601.359 170.647C600.172 170.153 599.158 169.466 598.316 168.588C597.488 167.71 596.851 166.677 596.405 165.489C595.96 164.302 595.737 163.021 595.737 161.648V160.906C595.737 159.335 595.966 157.913 596.424 156.639C596.882 155.365 597.519 154.276 598.335 153.373C599.151 152.458 600.116 151.759 601.229 151.276C602.343 150.794 603.549 150.553 604.848 150.553C606.283 150.553 607.538 150.794 608.614 151.276C609.69 151.759 610.581 152.439 611.286 153.317C612.004 154.183 612.535 155.216 612.882 156.416C613.241 157.616 613.42 158.939 613.42 160.387V162.298H597.908V159.088H609.004V158.735C608.979 157.931 608.818 157.177 608.521 156.472C608.237 155.767 607.798 155.198 607.204 154.765C606.61 154.332 605.819 154.115 604.829 154.115C604.087 154.115 603.425 154.276 602.844 154.598C602.275 154.907 601.799 155.358 601.415 155.952C601.032 156.546 600.735 157.263 600.524 158.104C600.326 158.933 600.228 159.867 600.228 160.906V161.648C600.228 162.527 600.345 163.343 600.58 164.098C600.827 164.84 601.186 165.489 601.656 166.046C602.126 166.603 602.695 167.042 603.363 167.363C604.031 167.673 604.792 167.827 605.646 167.827C606.722 167.827 607.68 167.611 608.521 167.178C609.363 166.745 610.092 166.132 610.711 165.341L613.067 167.623C612.634 168.254 612.072 168.86 611.379 169.441C610.686 170.01 609.839 170.474 608.837 170.833C607.847 171.192 606.697 171.371 605.386 171.371ZM626.111 150.924V154.189H614.793V150.924H626.111ZM618.059 146.007H622.53V165.452C622.53 166.071 622.617 166.547 622.79 166.881C622.976 167.202 623.229 167.419 623.551 167.53C623.872 167.642 624.25 167.697 624.683 167.697C624.992 167.697 625.289 167.679 625.573 167.642C625.858 167.604 626.087 167.567 626.26 167.53L626.278 170.944C625.907 171.056 625.474 171.155 624.979 171.241C624.497 171.328 623.94 171.371 623.31 171.371C622.283 171.371 621.374 171.192 620.582 170.833C619.79 170.462 619.172 169.862 618.727 169.033C618.281 168.204 618.059 167.104 618.059 165.73V146.007ZM638.766 150.924V154.189H627.447V150.924H638.766ZM630.713 146.007H635.185V165.452C635.185 166.071 635.271 166.547 635.444 166.881C635.63 167.202 635.883 167.419 636.205 167.53C636.527 167.642 636.904 167.697 637.337 167.697C637.646 167.697 637.943 167.679 638.228 167.642C638.512 167.604 638.741 167.567 638.914 167.53L638.933 170.944C638.562 171.056 638.129 171.155 637.634 171.241C637.151 171.328 636.595 171.371 635.964 171.371C634.937 171.371 634.028 171.192 633.236 170.833C632.445 170.462 631.826 169.862 631.381 169.033C630.936 168.204 630.713 167.104 630.713 165.73V146.007ZM647.375 143.984L646.93 163.04H643.107L642.644 143.984H647.375ZM642.514 168.885C642.514 168.204 642.736 167.635 643.182 167.178C643.639 166.708 644.27 166.473 645.074 166.473C645.866 166.473 646.491 166.708 646.948 167.178C647.406 167.635 647.635 168.204 647.635 168.885C647.635 169.54 647.406 170.103 646.948 170.573C646.491 171.031 645.866 171.26 645.074 171.26C644.27 171.26 643.639 171.031 643.182 170.573C642.736 170.103 642.514 169.54 642.514 168.885Z" fill="white"/>
<path d="M74.88 280.54C78.6133 280.54 81.84 281.233 84.56 282.62C87.28 283.953 89.3333 285.793 90.72 288.14C92.16 290.433 92.88 292.993 92.88 295.82C92.88 298.753 92.24 301.58 90.96 304.3C89.7333 307.02 87.6 310.087 84.56 313.5C81.5733 316.913 77.2 321.313 71.44 326.7H94.08L92.8 335.5H58.48V327.26C65.2 320.54 70.0533 315.527 73.04 312.22C76.0267 308.913 78.1333 306.113 79.36 303.82C80.5867 301.527 81.2 299.18 81.2 296.78C81.2 294.487 80.5333 292.673 79.2 291.34C77.8667 290.007 76.08 289.34 73.84 289.34C71.8667 289.34 70.1067 289.793 68.56 290.7C67.0133 291.553 65.3867 292.993 63.68 295.02L56.88 289.58C61.4667 283.553 67.4667 280.54 74.88 280.54ZM135.989 317.66C136.735 321.34 138.095 324.033 140.069 325.74C142.095 327.447 144.789 328.3 148.149 328.3C151.722 328.3 155.562 327.18 159.669 324.94V333.74C157.482 334.753 155.402 335.5 153.429 335.98C151.455 336.513 149.295 336.78 146.949 336.78C140.922 336.78 135.962 335.127 132.069 331.82C128.229 328.46 125.695 323.74 124.469 317.66H117.509L119.109 311.5H124.149V305.5H117.509L119.109 299.26H124.549C126.042 293.447 128.815 288.887 132.869 285.58C136.975 282.22 141.802 280.54 147.349 280.54C152.895 280.54 157.909 282.06 162.389 285.1L158.309 292.14C156.602 291.02 154.922 290.22 153.269 289.74C151.615 289.207 149.775 288.94 147.749 288.94C144.975 288.94 142.602 289.793 140.629 291.5C138.655 293.207 137.189 295.793 136.229 299.26H155.829L154.229 305.5H135.669V311.5H152.949L151.429 317.66H135.989Z" fill="#FFE80D"/>
<path d="M191.08 297.89C192.48 297.89 193.69 298.15 194.71 298.67C195.73 299.17 196.5 299.86 197.02 300.74C197.56 301.6 197.83 302.56 197.83 303.62C197.83 304.72 197.59 305.78 197.11 306.8C196.65 307.82 195.85 308.97 194.71 310.25C193.59 311.53 191.95 313.18 189.79 315.2H198.28L197.8 318.5H184.93V315.41C187.45 312.89 189.27 311.01 190.39 309.77C191.51 308.53 192.3 307.48 192.76 306.62C193.22 305.76 193.45 304.88 193.45 303.98C193.45 303.12 193.2 302.44 192.7 301.94C192.2 301.44 191.53 301.19 190.69 301.19C189.95 301.19 189.29 301.36 188.71 301.7C188.13 302.02 187.52 302.56 186.88 303.32L184.33 301.28C186.05 299.02 188.3 297.89 191.08 297.89ZM213.036 295.79V318.5H208.776V296.27L213.036 295.79ZM222.696 302.6L217.626 309.59L223.146 318.5H218.316L213.186 309.8L218.286 302.6H222.696ZM237.821 318.5H234.131L233.921 316.37C233.361 317.25 232.681 317.91 231.881 318.35C231.081 318.77 230.151 318.98 229.091 318.98C227.651 318.98 226.551 318.55 225.791 317.69C225.031 316.81 224.651 315.59 224.651 314.03V302.6H228.911V313.49C228.911 314.33 229.051 314.93 229.331 315.29C229.611 315.63 230.051 315.8 230.651 315.8C231.791 315.8 232.761 315.11 233.561 313.73V302.6H237.821V318.5ZM255.048 318.5H251.358L251.148 316.37C250.588 317.25 249.908 317.91 249.108 318.35C248.308 318.77 247.378 318.98 246.318 318.98C244.878 318.98 243.778 318.55 243.018 317.69C242.258 316.81 241.878 315.59 241.878 314.03V302.6H246.138V313.49C246.138 314.33 246.278 314.93 246.558 315.29C246.838 315.63 247.278 315.8 247.878 315.8C249.018 315.8 249.988 315.11 250.788 313.73V302.6H255.048V318.5ZM273.024 296.27V318.5H269.274L269.034 316.55C267.914 318.17 266.394 318.98 264.474 318.98C262.514 318.98 261.014 318.23 259.974 316.73C258.954 315.21 258.444 313.15 258.444 310.55C258.444 308.91 258.704 307.46 259.224 306.2C259.764 304.92 260.524 303.92 261.504 303.2C262.484 302.48 263.614 302.12 264.894 302.12C266.374 302.12 267.664 302.65 268.764 303.71V295.79L273.024 296.27ZM265.734 315.8C266.354 315.8 266.904 315.65 267.384 315.35C267.864 315.03 268.324 314.54 268.764 313.88V306.77C268.344 306.27 267.914 305.9 267.474 305.66C267.054 305.4 266.564 305.27 266.004 305.27C265.024 305.27 264.254 305.7 263.694 306.56C263.154 307.42 262.884 308.75 262.884 310.55C262.884 312.45 263.124 313.8 263.604 314.6C264.104 315.4 264.814 315.8 265.734 315.8Z" fill="white"/>
<rect x="522" y="276" width="162" height="64" rx="16" fill="#AF0510"/>
<path d="M571.248 296.824L570.736 300.856H565.264V319H560.016V300.856H554.288V296.824H571.248ZM586.961 296.824L586.417 300.568H578.609V305.88H585.425V309.56H578.609V315.224H586.961V319H573.361V296.824H586.961ZM595.453 296.824V314.84H604.093L603.549 319H590.205V296.824H595.453ZM611.859 296.824V314.84H620.499L619.955 319H606.611V296.824H611.859ZM628.266 296.824V319H623.018V296.824H628.266ZM649.481 319H642.793L636.393 301.816C636.606 303.501 636.766 304.995 636.873 306.296C637.001 307.576 637.065 309.101 637.065 310.872V319H632.393V296.824H638.921L645.481 314.04C645.011 311.117 644.777 308.365 644.777 305.784V296.824H649.481V319Z" fill="#FFE80D"/>
</svg>
