<svg width="350" height="250" viewBox="0 0 350 250" fill="none" xmlns="http://www.w3.org/2000/svg">
<path d="M42.877 80.6896L41.2 74.0246H31.869L30.192 80.6896H23.613L32.772 50.9336H40.469L49.585 80.6896H42.877ZM33.073 69.3376H39.996L36.513 55.6206L33.073 69.3376ZM64.3958 57.2116C66.4025 57.2116 67.9648 57.8279 69.0828 59.0606C70.2008 60.2646 70.7598 61.9416 70.7598 64.0916V80.6896H64.6538V65.1236C64.6538 63.8909 64.4388 63.0309 64.0088 62.5436C63.6075 62.0276 62.9911 61.7696 62.1598 61.7696C61.2998 61.7696 60.5115 62.0419 59.7948 62.5866C59.1068 63.1026 58.4331 63.8909 57.7738 64.9516V80.6896H51.6678V57.8996H56.9568L57.4298 60.7806C58.3758 59.6052 59.4078 58.7166 60.5258 58.1146C61.6725 57.5126 62.9625 57.2116 64.3958 57.2116ZM88.7597 57.2116C90.7663 57.2116 92.3287 57.8279 93.4467 59.0606C94.5647 60.2646 95.1237 61.9416 95.1237 64.0916V80.6896H89.0177V65.1236C89.0177 63.8909 88.8027 63.0309 88.3727 62.5436C87.9713 62.0276 87.355 61.7696 86.5237 61.7696C85.6637 61.7696 84.8753 62.0419 84.1587 62.5866C83.4707 63.1026 82.797 63.8909 82.1377 64.9516V80.6896H76.0317V57.8996H81.3207L81.7937 60.7806C82.7397 59.6052 83.7717 58.7166 84.8897 58.1146C86.0363 57.5126 87.3263 57.2116 88.7597 57.2116ZM117.811 74.3686C117.811 75.2572 117.94 75.9166 118.198 76.3466C118.456 76.7479 118.886 77.0489 119.488 77.2496L118.198 81.2916C116.85 81.1769 115.747 80.8616 114.887 80.3456C114.055 79.8296 113.41 79.0269 112.952 77.9376C111.461 80.2309 109.182 81.3776 106.115 81.3776C103.85 81.3776 102.044 80.7326 100.697 79.4426C99.3779 78.1239 98.7185 76.4182 98.7185 74.3256C98.7185 71.8316 99.6215 69.9252 101.428 68.6066C103.234 67.2879 105.828 66.6286 109.211 66.6286H111.834V65.5106C111.834 64.1059 111.518 63.1312 110.888 62.5866C110.257 62.0419 109.211 61.7696 107.749 61.7696C106.143 61.7696 104.137 62.1709 101.729 62.9736L100.353 58.8886C103.191 57.7706 106 57.2116 108.781 57.2116C111.877 57.2116 114.156 57.8852 115.618 59.2326C117.08 60.5512 117.811 62.5292 117.811 65.1666V74.3686ZM107.792 76.9916C109.512 76.9916 110.859 76.1459 111.834 74.4546V70.1116H109.813C106.516 70.1116 104.868 71.3442 104.868 73.8096C104.868 74.8129 105.111 75.6012 105.599 76.1746C106.115 76.7192 106.846 76.9916 107.792 76.9916ZM139.01 81.3776C137.147 81.3776 135.699 80.8472 134.667 79.7866C133.635 78.6972 133.119 77.1636 133.119 75.1856V48.8266L139.225 48.1386V75.0136C139.225 76.0169 139.641 76.5186 140.472 76.5186C140.931 76.5186 141.332 76.4326 141.676 76.2606L142.923 80.6036C141.748 81.1196 140.444 81.3776 139.01 81.3776ZM164.574 68.7786C164.574 69.0652 164.531 69.8536 164.445 71.1436H150.212C150.413 73.2076 150.972 74.6696 151.889 75.5296C152.807 76.3896 154.054 76.8196 155.63 76.8196C156.605 76.8196 157.522 76.6619 158.382 76.3466C159.242 76.0312 160.174 75.5296 161.177 74.8416L163.714 78.2816C161.163 80.3456 158.282 81.3776 155.071 81.3776C151.488 81.3776 148.736 80.3026 146.815 78.1526C144.895 76.0026 143.934 73.0929 143.934 69.4236C143.934 67.1016 144.336 65.0232 145.138 63.1886C145.97 61.3252 147.159 59.8632 148.707 58.8026C150.284 57.7419 152.147 57.2116 154.297 57.2116C157.537 57.2116 160.059 58.2292 161.865 60.2646C163.671 62.2999 164.574 65.1379 164.574 68.7786ZM158.511 67.0586C158.511 63.2746 157.15 61.3826 154.426 61.3826C153.165 61.3826 152.176 61.8556 151.459 62.8016C150.771 63.7189 150.356 65.2239 150.212 67.3166H158.511V67.0586ZM181.184 57.2116C183.162 57.2116 184.71 57.8279 185.828 59.0606C186.975 60.2646 187.548 61.9416 187.548 64.0916V80.6896H181.442V65.1236C181.442 63.8909 181.227 63.0309 180.797 62.5436C180.367 62.0276 179.751 61.7696 178.948 61.7696C177.343 61.7696 175.881 62.8159 174.562 64.9086V80.6896H168.456V48.8266L174.562 48.1816V60.4796C175.48 59.3902 176.469 58.5732 177.529 58.0286C178.619 57.4839 179.837 57.2116 181.184 57.2116ZM212.084 68.7786C212.084 69.0652 212.041 69.8536 211.955 71.1436H197.722C197.923 73.2076 198.482 74.6696 199.399 75.5296C200.317 76.3896 201.564 76.8196 203.14 76.8196C204.115 76.8196 205.032 76.6619 205.892 76.3466C206.752 76.0312 207.684 75.5296 208.687 74.8416L211.224 78.2816C208.673 80.3456 205.792 81.3776 202.581 81.3776C198.998 81.3776 196.246 80.3026 194.325 78.1526C192.405 76.0026 191.444 73.0929 191.444 69.4236C191.444 67.1016 191.846 65.0232 192.648 63.1886C193.48 61.3252 194.669 59.8632 196.217 58.8026C197.794 57.7419 199.657 57.2116 201.807 57.2116C205.047 57.2116 207.569 58.2292 209.375 60.2646C211.181 62.2999 212.084 65.1379 212.084 68.7786ZM206.021 67.0586C206.021 63.2746 204.66 61.3826 201.936 61.3826C200.675 61.3826 199.686 61.8556 198.969 62.8016C198.281 63.7189 197.866 65.2239 197.722 67.3166H206.021V67.0586ZM222.072 48.1386V80.6896H215.966V48.8266L222.072 48.1386ZM235.918 57.8996L228.651 67.9186L236.563 80.6896H229.64L222.287 68.2196L229.597 57.8996H235.918ZM257.061 80.6896H251.772L251.471 77.6366C250.668 78.8979 249.693 79.8439 248.547 80.4746C247.4 81.0766 246.067 81.3776 244.548 81.3776C242.484 81.3776 240.907 80.7612 239.818 79.5286C238.728 78.2672 238.184 76.5186 238.184 74.2826V57.8996H244.29V73.5086C244.29 74.7126 244.49 75.5726 244.892 76.0886C245.293 76.5759 245.924 76.8196 246.784 76.8196C248.418 76.8196 249.808 75.8306 250.955 73.8526V57.8996H257.061V80.6896ZM281.215 80.6896H275.926L275.625 77.6366C274.822 78.8979 273.847 79.8439 272.701 80.4746C271.554 81.0766 270.221 81.3776 268.702 81.3776C266.638 81.3776 265.061 80.7612 263.972 79.5286C262.882 78.2672 262.338 76.5186 262.338 74.2826V57.8996H268.444V73.5086C268.444 74.7126 268.644 75.5726 269.046 76.0886C269.447 76.5759 270.078 76.8196 270.938 76.8196C272.572 76.8196 273.962 75.8306 275.109 73.8526V57.8996H281.215V80.6896ZM292.382 81.3776C290.519 81.3776 289.071 80.8472 288.039 79.7866C287.007 78.6972 286.491 77.1636 286.491 75.1856V48.8266L292.597 48.1386V75.0136C292.597 76.0169 293.013 76.5186 293.844 76.5186C294.303 76.5186 294.704 76.4326 295.048 76.2606L296.295 80.6036C295.12 81.1196 293.816 81.3776 292.382 81.3776ZM317.947 68.7786C317.947 69.0652 317.904 69.8536 317.818 71.1436H303.585C303.785 73.2076 304.344 74.6696 305.262 75.5296C306.179 76.3896 307.426 76.8196 309.003 76.8196C309.977 76.8196 310.895 76.6619 311.755 76.3466C312.615 76.0312 313.546 75.5296 314.55 74.8416L317.087 78.2816C314.535 80.3456 311.654 81.3776 308.444 81.3776C304.86 81.3776 302.108 80.3026 300.188 78.1526C298.267 76.0026 297.307 73.0929 297.307 69.4236C297.307 67.1016 297.708 65.0232 298.511 63.1886C299.342 61.3252 300.532 59.8632 302.08 58.8026C303.656 57.7419 305.52 57.2116 307.67 57.2116C310.909 57.2116 313.432 58.2292 315.238 60.2646C317.044 62.2999 317.947 65.1379 317.947 68.7786ZM311.884 67.0586C311.884 63.2746 310.522 61.3826 307.799 61.3826C306.537 61.3826 305.548 61.8556 304.832 62.8016C304.144 63.7189 303.728 65.2239 303.585 67.3166H311.884V67.0586ZM38.792 105.255C39.48 105.255 40.2397 105.369 41.071 105.599L40.039 111.49C39.2363 111.289 38.5627 111.189 38.018 111.189C36.6707 111.189 35.6243 111.662 34.879 112.608C34.1337 113.554 33.546 114.987 33.116 116.908V128.69H27.01V105.9H32.299L32.858 110.329C33.4027 108.723 34.191 107.476 35.223 106.588C36.2837 105.699 37.4733 105.255 38.792 105.255ZM51.8506 105.212C55.2619 105.212 57.9279 106.287 59.8486 108.437C61.7692 110.558 62.7296 113.511 62.7296 117.295C62.7296 119.703 62.2852 121.824 61.3966 123.659C60.5366 125.465 59.2752 126.869 57.6126 127.873C55.9786 128.876 54.0436 129.378 51.8076 129.378C48.3962 129.378 45.7159 128.317 43.7666 126.196C41.8459 124.046 40.8856 121.079 40.8856 117.295C40.8856 114.887 41.3156 112.78 42.1756 110.974C43.0642 109.139 44.3256 107.72 45.9596 106.717C47.6222 105.713 49.5859 105.212 51.8506 105.212ZM51.8506 109.77C50.3026 109.77 49.1416 110.386 48.3676 111.619C47.6222 112.823 47.2496 114.715 47.2496 117.295C47.2496 119.875 47.6222 121.781 48.3676 123.014C49.1416 124.218 50.2882 124.82 51.8076 124.82C53.3269 124.82 54.4592 124.218 55.2046 123.014C55.9786 121.781 56.3656 119.875 56.3656 117.295C56.3656 114.715 55.9929 112.823 55.2476 111.619C54.5022 110.386 53.3699 109.77 51.8506 109.77ZM79.5634 105.212C81.5414 105.212 83.0894 105.828 84.2074 107.061C85.3541 108.265 85.9274 109.942 85.9274 112.092V128.69H79.8214V113.124C79.8214 111.891 79.6064 111.031 79.1764 110.544C78.7464 110.028 78.1301 109.77 77.3274 109.77C75.7221 109.77 74.2601 110.816 72.9414 112.909V128.69H66.8354V96.8266L72.9414 96.1816V108.48C73.8587 107.39 74.8477 106.573 75.9084 106.029C76.9977 105.484 78.2161 105.212 79.5634 105.212ZM97.3053 96.1386V128.69H91.1993V96.8266L97.3053 96.1386ZM111.151 105.9L103.884 115.919L111.796 128.69H104.873L97.5203 116.22L104.83 105.9H111.151ZM132.728 116.779C132.728 117.065 132.685 117.854 132.599 119.144H118.366C118.566 121.208 119.125 122.67 120.043 123.53C120.96 124.39 122.207 124.82 123.784 124.82C124.758 124.82 125.676 124.662 126.536 124.347C127.396 124.031 128.327 123.53 129.331 122.842L131.868 126.282C129.316 128.346 126.435 129.378 123.225 129.378C119.641 129.378 116.889 128.303 114.969 126.153C113.048 124.003 112.088 121.093 112.088 117.424C112.088 115.102 112.489 113.023 113.292 111.189C114.123 109.325 115.313 107.863 116.861 106.803C118.437 105.742 120.301 105.212 122.451 105.212C125.69 105.212 128.213 106.229 130.019 108.265C131.825 110.3 132.728 113.138 132.728 116.779ZM126.665 115.059C126.665 111.275 125.303 109.383 122.58 109.383C121.318 109.383 120.329 109.856 119.613 110.802C118.925 111.719 118.509 113.224 118.366 115.317H126.665V115.059ZM161.249 105.212C163.055 105.212 164.502 105.828 165.592 107.061C166.71 108.293 167.269 109.97 167.269 112.092V128.69H161.163V113.124C161.163 110.888 160.417 109.77 158.927 109.77C158.124 109.77 157.422 110.028 156.82 110.544C156.218 111.06 155.601 111.862 154.971 112.952V128.69H148.865V113.124C148.865 110.888 148.119 109.77 146.629 109.77C145.826 109.77 145.124 110.042 144.522 110.587C143.92 111.103 143.318 111.891 142.716 112.952V128.69H136.61V105.9H141.899L142.372 108.738C143.232 107.591 144.192 106.717 145.253 106.115C146.342 105.513 147.589 105.212 148.994 105.212C150.284 105.212 151.402 105.541 152.348 106.201C153.294 106.831 153.982 107.734 154.412 108.91C155.358 107.677 156.375 106.76 157.465 106.158C158.583 105.527 159.844 105.212 161.249 105.212ZM190.05 105.212C193.261 105.212 196.013 106.129 198.306 107.964L195.984 111.447C194.063 110.243 192.171 109.641 190.308 109.641C189.305 109.641 188.531 109.827 187.986 110.2C187.441 110.572 187.169 111.074 187.169 111.705C187.169 112.163 187.284 112.55 187.513 112.866C187.771 113.181 188.23 113.482 188.889 113.769C189.577 114.055 190.595 114.399 191.942 114.801C194.35 115.46 196.142 116.349 197.317 117.467C198.492 118.556 199.08 120.061 199.08 121.982C199.08 123.501 198.636 124.82 197.747 125.938C196.887 127.056 195.712 127.916 194.221 128.518C192.73 129.091 191.068 129.378 189.233 129.378C187.312 129.378 185.564 129.091 183.987 128.518C182.41 127.916 181.063 127.099 179.945 126.067L182.955 122.713C184.876 124.203 186.911 124.949 189.061 124.949C190.208 124.949 191.111 124.734 191.77 124.304C192.458 123.845 192.802 123.229 192.802 122.455C192.802 121.853 192.673 121.38 192.415 121.036C192.157 120.692 191.684 120.376 190.996 120.09C190.308 119.774 189.233 119.416 187.771 119.015C185.478 118.384 183.772 117.495 182.654 116.349C181.565 115.173 181.02 113.726 181.02 112.006C181.02 110.716 181.393 109.555 182.138 108.523C182.883 107.491 183.93 106.688 185.277 106.115C186.653 105.513 188.244 105.212 190.05 105.212ZM208.627 105.9V128.69H202.521V105.9H208.627ZM205.531 94.1606C206.62 94.1606 207.509 94.5046 208.197 95.1926C208.913 95.8519 209.272 96.6976 209.272 97.7296C209.272 98.7616 208.913 99.6216 208.197 100.31C207.509 100.969 206.62 101.299 205.531 101.299C204.441 101.299 203.553 100.969 202.865 100.31C202.177 99.6216 201.833 98.7616 201.833 97.7296C201.833 96.6976 202.177 95.8519 202.865 95.1926C203.553 94.5046 204.441 94.1606 205.531 94.1606ZM221.687 105.212C224.897 105.212 227.649 106.129 229.943 107.964L227.621 111.447C225.7 110.243 223.808 109.641 221.945 109.641C220.941 109.641 220.167 109.827 219.623 110.2C219.078 110.572 218.806 111.074 218.806 111.705C218.806 112.163 218.92 112.55 219.15 112.866C219.408 113.181 219.866 113.482 220.526 113.769C221.214 114.055 222.231 114.399 223.579 114.801C225.987 115.46 227.778 116.349 228.954 117.467C230.129 118.556 230.717 120.061 230.717 121.982C230.717 123.501 230.272 124.82 229.384 125.938C228.524 127.056 227.348 127.916 225.858 128.518C224.367 129.091 222.704 129.378 220.87 129.378C218.949 129.378 217.2 129.091 215.624 128.518C214.047 127.916 212.7 127.099 211.582 126.067L214.592 122.713C216.512 124.203 218.548 124.949 220.698 124.949C221.844 124.949 222.747 124.734 223.407 124.304C224.095 123.845 224.439 123.229 224.439 122.455C224.439 121.853 224.31 121.38 224.052 121.036C223.794 120.692 223.321 120.376 222.633 120.09C221.945 119.774 220.87 119.416 219.408 119.015C217.114 118.384 215.409 117.495 214.291 116.349C213.201 115.173 212.657 113.726 212.657 112.006C212.657 110.716 213.029 109.555 213.775 108.523C214.52 107.491 215.566 106.688 216.914 106.115C218.29 105.513 219.881 105.212 221.687 105.212ZM252.819 128.69H247.53L247.229 125.637C246.427 126.898 245.452 127.844 244.305 128.475C243.159 129.077 241.826 129.378 240.306 129.378C238.242 129.378 236.666 128.761 235.576 127.529C234.487 126.267 233.942 124.519 233.942 122.283V105.9H240.048V121.509C240.048 122.713 240.249 123.573 240.65 124.089C241.052 124.576 241.682 124.82 242.542 124.82C244.176 124.82 245.567 123.831 246.713 121.853V105.9H252.819V128.69ZM263.686 98.9336L262.955 117.983H257.967L257.15 98.9336H263.686ZM260.461 122.025C261.493 122.025 262.368 122.383 263.084 123.1C263.801 123.816 264.159 124.676 264.159 125.68C264.159 126.683 263.801 127.557 263.084 128.303C262.368 129.019 261.493 129.378 260.461 129.378C259.458 129.378 258.598 129.019 257.881 128.303C257.165 127.557 256.806 126.683 256.806 125.68C256.806 124.676 257.165 123.816 257.881 123.1C258.598 122.383 259.458 122.025 260.461 122.025Z" fill="#F20312"/>
<path d="M24 169.563C24 164.662 27.9729 160.689 32.8737 160.689H195.495V199.31H32.8737C27.9729 199.31 24 195.338 24 190.437V169.563Z" fill="#FFDF38"/>
<path d="M51.1889 173.719L50.9049 175.76H47.7991V186H45.1903V175.76H41.9248V173.719H51.1889ZM59.6309 173.719L59.347 175.618H54.9101V178.812H58.779V180.694H54.9101V184.083H59.6664V186H52.3013V173.719H59.6309ZM64.0646 173.719V183.906H68.9273L68.6434 186H61.4557V173.719H64.0646ZM72.8723 173.719V183.906H77.7351L77.4512 186H70.2635V173.719H72.8723ZM81.6801 173.719V186H79.0713V173.719H81.6801ZM91.3894 173.719C93.3062 173.719 94.8383 174.157 95.986 175.032C97.1455 175.896 97.7252 177.487 97.7252 179.806C97.7252 182.078 97.1573 183.681 96.0215 184.616C94.8975 185.539 93.454 186 91.6911 186H88.1772V173.719H91.3894ZM90.786 175.636V184.083H91.8509C92.8566 184.083 93.6315 183.776 94.1758 183.16C94.7319 182.533 95.0099 181.415 95.0099 179.806C95.0099 178.694 94.8679 177.83 94.584 177.215C94.3118 176.6 93.9451 176.186 93.4836 175.973C93.0222 175.748 92.4602 175.636 91.7976 175.636H90.786ZM102.107 173.719V186H99.498V173.719H102.107ZM109.622 173.435C110.45 173.435 111.184 173.565 111.823 173.825C112.473 174.074 113.077 174.435 113.633 174.908L112.266 176.328C111.828 175.996 111.414 175.754 111.024 175.6C110.645 175.446 110.213 175.369 109.728 175.369C108.794 175.369 108.036 175.742 107.457 176.487C106.889 177.221 106.605 178.345 106.605 179.859C106.605 181.457 106.824 182.604 107.261 183.302C107.711 183.989 108.403 184.332 109.338 184.332C110.012 184.332 110.622 184.184 111.166 183.888V180.889H109.444L109.178 178.99H113.704V185.042C113.065 185.432 112.373 185.74 111.627 185.965C110.894 186.177 110.148 186.284 109.391 186.284C107.581 186.284 106.208 185.74 105.274 184.651C104.339 183.563 103.872 181.96 103.872 179.842C103.872 178.505 104.126 177.351 104.635 176.381C105.144 175.411 105.83 174.677 106.694 174.18C107.569 173.683 108.545 173.435 109.622 173.435ZM118.249 173.719V186H115.64V173.719H118.249ZM124.433 173.719C126.031 173.719 127.267 174.05 128.142 174.713C129.03 175.375 129.474 176.363 129.474 177.677C129.474 179.049 129.036 180.084 128.16 180.782C127.285 181.469 126.113 181.812 124.646 181.812H123.244V186H120.635V173.719H124.433ZM124.433 179.895C125.19 179.895 125.77 179.723 126.173 179.38C126.575 179.037 126.776 178.469 126.776 177.677C126.776 176.292 125.983 175.6 124.398 175.6H123.244V179.895H124.433ZM136.407 186L135.714 183.249H131.863L131.171 186H128.456L132.236 173.719H135.413L139.175 186H136.407ZM132.36 181.315H135.218L133.78 175.653L132.36 181.315ZM142.697 173.719V186H140.088V173.719H142.697ZM149.672 173.719L145.572 179.256L149.991 186H146.939L142.803 179.451L146.885 173.719H149.672ZM158.236 173.719L157.952 175.618H153.515V178.812H157.384V180.694H153.515V184.083H158.271V186H150.906V173.719H158.236ZM168.207 173.719L167.923 175.76H164.817V186H162.208V175.76H158.943V173.719H168.207ZM177.465 173.719L177.181 175.76H174.075V186H171.467V175.76H168.201V173.719H177.465Z" fill="#451D02"/>
<path d="M195.495 160.689H316.116C321.016 160.689 324.989 164.662 324.989 169.563V190.437C324.989 195.338 321.016 199.31 316.116 199.31H195.495V160.689Z" fill="#F20312"/>
<path d="M217.413 173.808C218.229 173.808 218.927 173.944 219.507 174.216C220.098 174.476 220.542 174.837 220.838 175.298C221.145 175.76 221.299 176.274 221.299 176.842C221.299 177.564 221.092 178.168 220.678 178.653C220.264 179.126 219.69 179.463 218.957 179.664C219.761 179.747 220.418 180.037 220.927 180.534C221.435 181.031 221.69 181.723 221.69 182.61C221.69 183.296 221.512 183.918 221.157 184.474C220.814 185.03 220.305 185.473 219.631 185.805C218.957 186.124 218.158 186.284 217.235 186.284C215.543 186.284 214.218 185.692 213.26 184.509L214.626 183.196C215.029 183.598 215.425 183.888 215.815 184.066C216.206 184.243 216.632 184.332 217.093 184.332C217.708 184.332 218.193 184.166 218.548 183.835C218.915 183.504 219.099 183.042 219.099 182.451C219.099 181.812 218.927 181.35 218.584 181.066C218.241 180.782 217.726 180.64 217.04 180.64H216.064L216.365 178.866H217.022C217.578 178.866 218.022 178.718 218.353 178.422C218.684 178.126 218.85 177.712 218.85 177.18C218.85 176.718 218.696 176.357 218.389 176.097C218.093 175.837 217.685 175.707 217.164 175.707C216.714 175.707 216.3 175.789 215.922 175.955C215.543 176.121 215.17 176.381 214.804 176.736L213.544 175.369C214.644 174.328 215.934 173.808 217.413 173.808ZM230.595 182.042C230.761 182.859 231.062 183.456 231.5 183.835C231.95 184.213 232.547 184.403 233.293 184.403C234.085 184.403 234.937 184.154 235.848 183.657V185.61C235.363 185.834 234.902 186 234.464 186.106C234.026 186.225 233.547 186.284 233.026 186.284C231.689 186.284 230.589 185.917 229.725 185.184C228.874 184.438 228.312 183.391 228.039 182.042H226.495L226.85 180.676H227.968V179.345H226.495L226.85 177.96H228.057C228.388 176.671 229.004 175.659 229.903 174.926C230.814 174.18 231.885 173.808 233.115 173.808C234.346 173.808 235.458 174.145 236.452 174.819L235.547 176.381C235.168 176.132 234.795 175.955 234.428 175.849C234.062 175.73 233.654 175.671 233.204 175.671C232.589 175.671 232.062 175.86 231.624 176.239C231.187 176.618 230.861 177.191 230.648 177.96H234.996L234.641 179.345H230.524V180.676H234.357L234.02 182.042H230.595ZM246.178 171.554L248.361 172.051L244.208 187.952L242.008 187.438L246.178 171.554ZM257.85 173.808C258.666 173.808 259.365 173.944 259.944 174.216C260.536 174.476 260.98 174.837 261.275 175.298C261.583 175.76 261.737 176.274 261.737 176.842C261.737 177.564 261.53 178.168 261.116 178.653C260.701 179.126 260.128 179.463 259.394 179.664C260.199 179.747 260.855 180.037 261.364 180.534C261.873 181.031 262.127 181.723 262.127 182.61C262.127 183.296 261.95 183.918 261.595 184.474C261.252 185.03 260.743 185.473 260.068 185.805C259.394 186.124 258.595 186.284 257.673 186.284C255.981 186.284 254.656 185.692 253.697 184.509L255.064 183.196C255.466 183.598 255.862 183.888 256.253 184.066C256.643 184.243 257.069 184.332 257.531 184.332C258.146 184.332 258.631 184.166 258.986 183.835C259.353 183.504 259.536 183.042 259.536 182.451C259.536 181.812 259.365 181.35 259.021 181.066C258.678 180.782 258.164 180.64 257.477 180.64H256.501L256.803 178.866H257.46C258.016 178.866 258.459 178.718 258.791 178.422C259.122 178.126 259.288 177.712 259.288 177.18C259.288 176.718 259.134 176.357 258.826 176.097C258.53 175.837 258.122 175.707 257.602 175.707C257.152 175.707 256.738 175.789 256.359 175.955C255.981 176.121 255.608 176.381 255.241 176.736L253.981 175.369C255.081 174.328 256.371 173.808 257.85 173.808ZM270.465 172.565V186H267.945V172.849L270.465 172.565ZM276.179 176.594L273.18 180.729L276.446 186H273.588L270.553 180.853L273.57 176.594H276.179ZM284.905 186H282.722L282.598 184.74C282.267 185.261 281.865 185.651 281.391 185.911C280.918 186.16 280.368 186.284 279.741 186.284C278.889 186.284 278.238 186.03 277.789 185.521C277.339 185 277.114 184.279 277.114 183.356V176.594H279.634V183.036C279.634 183.533 279.717 183.888 279.883 184.101C280.048 184.302 280.309 184.403 280.664 184.403C281.338 184.403 281.912 183.995 282.385 183.178V176.594H284.905V186ZM294.874 186H292.691L292.567 184.74C292.236 185.261 291.834 185.651 291.36 185.911C290.887 186.16 290.337 186.284 289.71 186.284C288.858 186.284 288.207 186.03 287.758 185.521C287.308 185 287.083 184.279 287.083 183.356V176.594H289.603V183.036C289.603 183.533 289.686 183.888 289.852 184.101C290.017 184.302 290.278 184.403 290.633 184.403C291.307 184.403 291.881 183.995 292.354 183.178V176.594H294.874V186ZM305.287 172.849V186H303.069L302.927 184.846C302.264 185.805 301.365 186.284 300.229 186.284C299.069 186.284 298.182 185.84 297.567 184.953C296.963 184.054 296.662 182.835 296.662 181.297C296.662 180.327 296.816 179.469 297.123 178.724C297.443 177.966 297.892 177.375 298.472 176.949C299.052 176.523 299.72 176.31 300.477 176.31C301.353 176.31 302.116 176.624 302.767 177.251V172.565L305.287 172.849ZM300.974 184.403C301.341 184.403 301.667 184.314 301.95 184.137C302.234 183.947 302.507 183.657 302.767 183.267V179.061C302.518 178.765 302.264 178.546 302.004 178.404C301.755 178.25 301.465 178.173 301.134 178.173C300.554 178.173 300.099 178.428 299.768 178.937C299.448 179.445 299.288 180.232 299.288 181.297C299.288 182.421 299.43 183.22 299.714 183.693C300.01 184.166 300.43 184.403 300.974 184.403Z" fill="white"/>
</svg>
