<svg width="336" height="64" viewBox="0 0 336 64" fill="none" xmlns="http://www.w3.org/2000/svg">
<rect width="336" height="64" rx="16" fill="#FFE80D"/>
<path d="M49.248 20.824L48.736 24.856H43.264V43H38.016V24.856H32.288V20.824H49.248ZM64.9613 20.824L64.4173 24.568H56.6093V29.88H63.4253V33.56H56.6093V39.224H64.9613V43H51.3613V20.824H64.9613ZM73.453 20.824V38.84H82.093L81.549 43H68.205V20.824H73.453ZM89.8593 20.824V38.84H98.4993L97.9553 43H84.6113V20.824H89.8593ZM106.266 20.824V43H101.018V20.824H106.266Z" fill="#E3000F"/>
<path d="M138.71 20.92C140.267 20.92 141.6 21.1973 142.71 21.752C143.84 22.3067 144.694 23.0533 145.27 23.992C145.867 24.9307 146.166 25.9653 146.166 27.096C146.166 28.248 145.931 29.3467 145.462 30.392C144.992 31.4373 144.16 32.6427 142.966 34.008C141.771 35.352 140.032 37.0587 137.75 39.128H146.614L146.102 43H132.022V39.416C134.646 36.8347 136.555 34.8933 137.75 33.592C138.944 32.2693 139.776 31.1707 140.246 30.296C140.736 29.4213 140.982 28.5253 140.982 27.608C140.982 26.7333 140.726 26.0507 140.214 25.56C139.723 25.048 139.051 24.792 138.198 24.792C137.43 24.792 136.747 24.9733 136.15 25.336C135.552 25.6773 134.923 26.2427 134.262 27.032L131.286 24.664C132.182 23.4907 133.248 22.5733 134.486 21.912C135.744 21.2507 137.152 20.92 138.71 20.92ZM163.379 35.96C163.699 37.304 164.243 38.296 165.011 38.936C165.779 39.5547 166.792 39.864 168.051 39.864C169.587 39.864 171.144 39.4053 172.723 38.488V42.36C171.827 42.7653 170.973 43.064 170.163 43.256C169.373 43.448 168.509 43.544 167.571 43.544C165.096 43.544 163.048 42.8827 161.427 41.56C159.827 40.2373 158.771 38.3707 158.259 35.96H155.507L156.211 33.336H158.131V31.064H155.507L156.211 28.408H158.323C158.941 26.0827 160.093 24.2587 161.779 22.936C163.485 21.592 165.469 20.92 167.731 20.92C169.971 20.92 172.008 21.5387 173.843 22.776L172.051 25.848C171.389 25.4 170.728 25.08 170.067 24.888C169.405 24.6747 168.691 24.568 167.923 24.568C166.877 24.568 165.96 24.888 165.171 25.528C164.403 26.168 163.827 27.128 163.443 28.408H171.219L170.515 31.064H163.219V33.336H170.035L169.363 35.96H163.379ZM191.607 16.888L196.023 17.88L188.503 46.584L184.055 45.56L191.607 16.888ZM213.554 20.92C215.111 20.92 216.444 21.1973 217.554 21.752C218.684 22.3067 219.538 23.0533 220.114 23.992C220.711 24.9307 221.01 25.9653 221.01 27.096C221.01 28.248 220.775 29.3467 220.306 30.392C219.836 31.4373 219.004 32.6427 217.81 34.008C216.615 35.352 214.876 37.0587 212.594 39.128H221.458L220.946 43H206.866V39.416C209.49 36.8347 211.399 34.8933 212.594 33.592C213.788 32.2693 214.62 31.1707 215.09 30.296C215.58 29.4213 215.826 28.5253 215.826 27.608C215.826 26.7333 215.57 26.0507 215.058 25.56C214.567 25.048 213.895 24.792 213.042 24.792C212.274 24.792 211.591 24.9733 210.994 25.336C210.396 25.6773 209.767 26.2427 209.106 27.032L206.13 24.664C207.026 23.4907 208.092 22.5733 209.33 21.912C210.588 21.2507 211.996 20.92 213.554 20.92ZM237.103 18.712V43H232.047V19.256L237.103 18.712ZM247.599 26.008L242.447 33.464L248.015 43H242.319L237.263 33.72L242.447 26.008H247.599ZM263.758 43H259.374L259.15 40.856C257.912 42.648 256.195 43.544 253.998 43.544C252.44 43.544 251.256 43.0747 250.446 42.136C249.656 41.1973 249.262 39.8853 249.262 38.2V26.008H254.318V37.56C254.318 38.392 254.446 38.9787 254.702 39.32C254.979 39.64 255.395 39.8 255.95 39.8C257.016 39.8 257.934 39.1387 258.702 37.816V26.008H263.758V43ZM282.07 43H277.686L277.462 40.856C276.225 42.648 274.507 43.544 272.31 43.544C270.753 43.544 269.569 43.0747 268.758 42.136C267.969 41.1973 267.574 39.8853 267.574 38.2V26.008H272.63V37.56C272.63 38.392 272.758 38.9787 273.014 39.32C273.291 39.64 273.707 39.8 274.262 39.8C275.329 39.8 276.246 39.1387 277.014 37.816V26.008H282.07V43ZM301.279 19.256V43H296.799L296.543 41.016C295.348 42.7013 293.737 43.544 291.711 43.544C289.599 43.544 287.988 42.7333 286.879 41.112C285.791 39.4907 285.247 37.272 285.247 34.456C285.247 32.728 285.535 31.1813 286.111 29.816C286.687 28.4507 287.497 27.384 288.543 26.616C289.609 25.848 290.825 25.464 292.191 25.464C293.812 25.464 295.156 25.9973 296.223 27.064V18.712L301.279 19.256ZM293.279 39.832C294.452 39.832 295.433 39.192 296.223 37.912V30.584C295.817 30.0933 295.401 29.7307 294.975 29.496C294.569 29.2613 294.1 29.144 293.567 29.144C292.628 29.144 291.881 29.5813 291.327 30.456C290.772 31.3307 290.495 32.6747 290.495 34.488C290.495 36.472 290.729 37.8587 291.199 38.648C291.689 39.4373 292.383 39.832 293.279 39.832Z" fill="#17191A"/>
</svg>
