<svg width="140" height="48" viewBox="0 0 140 48" fill="none" xmlns="http://www.w3.org/2000/svg">
<g clip-path="url(#clip0_208_354)">
<mask id="mask0_208_354" style="mask-type:luminance" maskUnits="userSpaceOnUse" x="0" y="0" width="140" height="48">
<path d="M140 0H0V48H140V0Z" fill="white"/>
</mask>
<g mask="url(#mask0_208_354)">
<path d="M128.536 4.94922H5.17456V36.0425V36.2132L16.9615 42.6026H135.003V19.2106L128.536 4.94922ZM132.866 40.4959H17.4945L9.49305 36.2186H128.531V10.1066L132.86 19.6532V40.4959H132.866Z" fill="#FA3944"/>
<path d="M16.7572 20.6986L21.7972 25.9092H23.5203L18.2488 20.4265L23.138 15.2532H21.4634L16.7572 20.2559V15.2532H15.4272V25.9092H16.7572V20.6986Z" fill="white"/>
<path d="M26.0456 15.2532H24.7156V25.9092H26.0456V15.2532Z" fill="white"/>
<path d="M40.0241 17.5732L45.6349 25.9092H46.9811V15.2532H45.6349V23.5786L40.0241 15.2532H38.678V25.9092H40.0241V17.5732Z" fill="white"/>
<path d="M50.5509 15.2532H49.2209V25.9092H50.5509V15.2532Z" fill="white"/>
<path d="M29.6318 17.5732L35.2425 25.9092H36.5833V15.2532H35.2425V23.5786L29.6318 15.2532H28.2856V25.9092H29.6318V17.5732Z" fill="white"/>
<path d="M59.6347 20.8426C59.3439 20.6399 59.0478 20.4799 58.7409 20.3626C58.4339 20.2505 58.1647 20.1599 57.9278 20.0959L55.8816 19.5092C55.6178 19.4345 55.3486 19.3385 55.0686 19.2266C54.7939 19.1092 54.557 18.9545 54.3686 18.7519C54.1801 18.5546 54.0832 18.2879 54.0832 17.9626C54.0832 17.6319 54.1855 17.3386 54.3955 17.0879C54.6055 16.8319 54.8855 16.6346 55.2409 16.4906C55.5963 16.3466 55.9894 16.2772 56.4309 16.2826C56.8886 16.2879 57.3086 16.3732 57.6963 16.5439C58.0786 16.7146 58.4016 16.9546 58.6547 17.2692C58.9132 17.5839 59.0747 17.9572 59.1501 18.3892L60.5609 18.1439C60.4316 17.4986 60.1786 16.9439 59.8016 16.4799C59.4247 16.0159 58.9509 15.6586 58.3801 15.4079C57.8094 15.1572 57.1632 15.0292 56.4416 15.0292C55.7309 15.0239 55.0901 15.1412 54.5194 15.3759C53.9539 15.6106 53.5016 15.9519 53.1732 16.3999C52.8394 16.8479 52.6778 17.3866 52.6778 18.0159C52.6778 18.4106 52.7424 18.7519 52.8716 19.0399C53.0009 19.3279 53.1732 19.5732 53.3939 19.7812C53.6147 19.9839 53.8624 20.1545 54.1424 20.2932C54.4224 20.4266 54.7078 20.5385 55.0094 20.6292L57.7501 21.4346C57.9439 21.4879 58.1324 21.5572 58.3101 21.6425C58.4878 21.7279 58.6494 21.8292 58.7947 21.9519C58.9347 22.0745 59.0478 22.2185 59.1286 22.3892C59.2094 22.5599 59.2524 22.7626 59.2524 22.9972C59.2524 23.3812 59.1394 23.7172 58.9078 23.9945C58.6763 24.2772 58.3694 24.4906 57.9763 24.6399C57.5832 24.7892 57.147 24.8639 56.6624 24.8639C55.9139 24.8639 55.2678 24.6772 54.7186 24.2986C54.1694 23.9199 53.8032 23.3972 53.6309 22.7252L52.2578 22.9385C52.3763 23.5892 52.6347 24.1546 53.0332 24.6292C53.4316 25.1039 53.9324 25.4719 54.5409 25.7279C55.1494 25.9839 55.8386 26.1119 56.5978 26.1119C57.1578 26.1119 57.6801 26.0426 58.1647 25.8986C58.6547 25.7599 59.0801 25.5519 59.4516 25.2852C59.8178 25.0186 60.1086 24.6826 60.3132 24.2825C60.5178 23.8826 60.6255 23.4239 60.6255 22.9119C60.6255 22.3999 60.5286 21.9732 60.3401 21.6372C60.1624 21.3172 59.9255 21.0452 59.6347 20.8426Z" fill="white"/>
<path d="M68.4816 15.2534L65.3208 24.5067L62.1924 15.2534H60.8086L64.4109 25.9094H66.2632L69.8654 15.2534H68.4816Z" fill="white"/>
<path d="M72.7087 15.2532L69.1064 25.9092H70.49L71.33 23.4132H75.9287L76.7797 25.9092H78.1632L74.561 15.2532H72.7087ZM71.75 22.1759L73.6242 16.6345L75.5142 22.1759H71.75Z" fill="white"/>
<path d="M86.2346 20.7518C86.6655 20.1491 86.8865 19.4344 86.8865 18.6078C86.8865 18.0424 86.7843 17.5251 86.5846 17.0558C86.3855 16.5918 86.0897 16.2025 85.691 15.8985C85.2923 15.5944 84.8078 15.3971 84.221 15.3064C84.0865 15.2798 83.9465 15.2638 83.801 15.2584C83.6555 15.2531 83.532 15.2478 83.4298 15.2478H79.1755V25.9038H80.5055V21.9678H83.65L85.5778 25.9038H87.102L85.0233 21.6745C85.5298 21.4771 85.9333 21.1731 86.2346 20.7518ZM80.511 20.7198V16.5011H83.3865C83.4833 16.5011 83.591 16.5064 83.7097 16.5118C83.8333 16.5171 83.9465 16.5385 84.0598 16.5651C84.4043 16.6398 84.6843 16.7838 84.8998 16.9918C85.1146 17.2051 85.2765 17.4505 85.3733 17.7331C85.4755 18.0158 85.5243 18.3091 85.5243 18.6025C85.5243 18.9011 85.4755 19.1891 85.3733 19.4718C85.271 19.7545 85.1146 19.9998 84.8998 20.2131C84.6843 20.4211 84.4043 20.5651 84.0598 20.6451C83.952 20.6718 83.8333 20.6878 83.7097 20.6985C83.5855 20.7091 83.4778 20.7145 83.3865 20.7145H80.511V20.7198Z" fill="white"/>
<path d="M91.5119 15.2532L87.9097 25.9092H89.2932L90.1332 23.4132H94.7319L95.5822 25.9092H96.9664L93.3642 15.2532H91.5119ZM90.5532 22.1759L92.4267 16.6345L94.3167 22.1759H90.5532Z" fill="white"/>
<path d="M108.893 20.7305C109.152 20.4371 109.345 20.1225 109.474 19.7865C109.604 19.4452 109.669 19.0345 109.669 18.5438C109.669 17.8665 109.512 17.2691 109.2 16.7411C108.888 16.2131 108.462 15.7972 107.93 15.4931C107.391 15.1891 106.782 15.0398 106.11 15.0398C105.399 15.0398 104.763 15.1838 104.214 15.4771C103.66 15.7705 103.229 16.1758 102.911 16.6985C102.593 17.2211 102.437 17.8238 102.437 18.5118H104.036C104.031 18.1545 104.117 17.8291 104.29 17.5198C104.462 17.2158 104.704 16.9705 105.016 16.7838C105.329 16.5971 105.684 16.5065 106.082 16.5065C106.47 16.5065 106.814 16.5971 107.111 16.7731C107.407 16.9492 107.644 17.1892 107.811 17.4931C107.978 17.7971 108.064 18.1385 108.064 18.5171C108.064 18.8158 107.994 19.1198 107.86 19.4185C107.724 19.7171 107.466 20.0371 107.084 20.3678L102.404 24.5225L102.4 25.8985H109.674V24.4265H104.817L107.93 21.6745C108.312 21.3385 108.634 21.0238 108.893 20.7305Z" fill="white"/>
<path d="M117.11 22.5866V19.7012H115.527V22.5866H112.463L115.952 15.2585H114.17L110.676 22.5866V24.0532H115.527V25.9092H117.11V24.0532H118.182V22.5866H117.11Z" fill="white"/>
</g>
</g>
<defs>
<clipPath id="clip0_208_354">
<rect width="140" height="48" fill="white"/>
</clipPath>
</defs>
</svg>
