<svg width="350" height="100" viewBox="0 0 350 100" fill="none" xmlns="http://www.w3.org/2000/svg">
<path d="M38.16 29.78C40.96 29.78 43.38 30.3 45.42 31.34C47.46 32.34 49 33.72 50.04 35.48C51.12 37.2 51.66 39.12 51.66 41.24C51.66 43.44 51.18 45.56 50.22 47.6C49.3 49.64 47.7 51.94 45.42 54.5C43.18 57.06 39.9 60.36 35.58 64.4H52.56L51.6 71H25.86V64.82C30.9 59.78 34.54 56.02 36.78 53.54C39.02 51.06 40.6 48.96 41.52 47.24C42.44 45.52 42.9 43.76 42.9 41.96C42.9 40.24 42.4 38.88 41.4 37.88C40.4 36.88 39.06 36.38 37.38 36.38C35.9 36.38 34.58 36.72 33.42 37.4C32.26 38.04 31.04 39.12 29.76 40.64L24.66 36.56C28.1 32.04 32.6 29.78 38.16 29.78ZM83.9916 57.62C84.5516 60.38 85.5716 62.4 87.0516 63.68C88.5716 64.96 90.5916 65.6 93.1116 65.6C95.7916 65.6 98.6716 64.76 101.752 63.08V69.68C100.112 70.44 98.5516 71 97.0716 71.36C95.5916 71.76 93.9716 71.96 92.2116 71.96C87.6916 71.96 83.9716 70.72 81.0516 68.24C78.1716 65.72 76.2716 62.18 75.3516 57.62H70.1316L71.3316 53H75.1116V48.5H70.1316L71.3316 43.82H75.4116C76.5316 39.46 78.6116 36.04 81.6516 33.56C84.7316 31.04 88.3516 29.78 92.5116 29.78C96.6716 29.78 100.432 30.92 103.792 33.2L100.732 38.48C99.4516 37.64 98.1916 37.04 96.9516 36.68C95.7116 36.28 94.3316 36.08 92.8116 36.08C90.7316 36.08 88.9516 36.72 87.4716 38C85.9916 39.28 84.8916 41.22 84.1716 43.82H98.8716L97.6716 48.5H83.7516V53H96.7116L95.5716 57.62H83.9916Z" fill="#FFE80D"/>
<path d="M125.31 42.5425C126.36 42.5425 127.268 42.7375 128.033 43.1275C128.798 43.5025 129.375 44.02 129.765 44.68C130.17 45.325 130.373 46.045 130.373 46.84C130.373 47.665 130.193 48.46 129.833 49.225C129.488 49.99 128.888 50.8525 128.033 51.8125C127.193 52.7725 125.963 54.01 124.343 55.525H130.71L130.35 58H120.698V55.6825C122.588 53.7925 123.953 52.3825 124.793 51.4525C125.633 50.5225 126.225 49.735 126.57 49.09C126.915 48.445 127.088 47.785 127.088 47.11C127.088 46.465 126.9 45.955 126.525 45.58C126.15 45.205 125.648 45.0175 125.018 45.0175C124.463 45.0175 123.968 45.145 123.533 45.4C123.098 45.64 122.64 46.045 122.16 46.615L120.248 45.085C121.538 43.39 123.225 42.5425 125.31 42.5425ZM141.777 40.9675V58H138.582V41.3275L141.777 40.9675ZM149.022 46.075L145.219 51.3175L149.359 58H145.737L141.889 51.475L145.714 46.075H149.022ZM160.366 58H157.598L157.441 56.4025C157.021 57.0625 156.511 57.5575 155.911 57.8875C155.311 58.2025 154.613 58.36 153.818 58.36C152.738 58.36 151.913 58.0375 151.343 57.3925C150.773 56.7325 150.488 55.8175 150.488 54.6475V46.075H153.683V54.2425C153.683 54.8725 153.788 55.3225 153.998 55.5925C154.208 55.8475 154.538 55.975 154.988 55.975C155.843 55.975 156.571 55.4575 157.171 54.4225V46.075H160.366V58ZM173.286 58H170.518L170.361 56.4025C169.941 57.0625 169.431 57.5575 168.831 57.8875C168.231 58.2025 167.533 58.36 166.738 58.36C165.658 58.36 164.833 58.0375 164.263 57.3925C163.693 56.7325 163.408 55.8175 163.408 54.6475V46.075H166.603V54.2425C166.603 54.8725 166.708 55.3225 166.918 55.5925C167.128 55.8475 167.458 55.975 167.908 55.975C168.763 55.975 169.491 55.4575 170.091 54.4225V46.075H173.286V58ZM186.768 41.3275V58H183.956L183.776 56.5375C182.936 57.7525 181.796 58.36 180.356 58.36C178.886 58.36 177.761 57.7975 176.981 56.6725C176.216 55.5325 175.833 53.9875 175.833 52.0375C175.833 50.8075 176.028 49.72 176.418 48.775C176.823 47.815 177.393 47.065 178.128 46.525C178.863 45.985 179.711 45.715 180.671 45.715C181.781 45.715 182.748 46.1125 183.573 46.9075V40.9675L186.768 41.3275ZM181.301 55.975C181.766 55.975 182.178 55.8625 182.538 55.6375C182.898 55.3975 183.243 55.03 183.573 54.535V49.2025C183.258 48.8275 182.936 48.55 182.606 48.37C182.291 48.175 181.923 48.0775 181.503 48.0775C180.768 48.0775 180.191 48.4 179.771 49.045C179.366 49.69 179.163 50.6875 179.163 52.0375C179.163 53.4625 179.343 54.475 179.703 55.075C180.078 55.675 180.611 55.975 181.301 55.975Z" fill="white"/>
<rect x="225" y="30" width="101" height="40" rx="12" fill="#AF0510"/>
<path d="M255.78 43.14L255.46 45.66H252.04V57H248.76V45.66H245.18V43.14H255.78ZM265.601 43.14L265.261 45.48H260.381V48.8H264.641V51.1H260.381V54.64H265.601V57H257.101V43.14H265.601ZM270.908 43.14V54.4H276.308L275.968 57H267.628V43.14H270.908ZM281.162 43.14V54.4H286.562L286.222 57H277.882V43.14H281.162ZM291.416 43.14V57H288.136V43.14H291.416ZM304.675 57H300.495L296.495 46.26C296.629 47.3133 296.729 48.2467 296.795 49.06C296.875 49.86 296.915 50.8133 296.915 51.92V57H293.995V43.14H298.075L302.175 53.9C301.882 52.0733 301.735 50.3533 301.735 48.74V43.14H304.675V57Z" fill="#FFE80D"/>
</svg>
