<svg width="350" height="100" viewBox="0 0 350 100" fill="none" xmlns="http://www.w3.org/2000/svg">
<path d="M65.4205 31.392C67.9705 31.392 70.1805 31.766 72.0505 32.514C73.9545 33.228 75.7055 34.333 77.3035 35.829L73.7335 39.96C72.4755 38.94 71.2175 38.192 69.9595 37.716C68.7015 37.24 67.3585 37.002 65.9305 37.002C64.3665 37.002 63.1085 37.342 62.1565 38.022C61.2385 38.668 60.7795 39.603 60.7795 40.827C60.7795 41.677 60.9665 42.374 61.3405 42.918C61.7485 43.462 62.4455 43.972 63.4315 44.448C64.4175 44.924 65.8965 45.468 67.8685 46.08C71.3705 47.202 73.9885 48.596 75.7225 50.262C77.4565 51.894 78.3235 54.24 78.3235 57.3C78.3235 59.476 77.7795 61.397 76.6915 63.063C75.6035 64.695 74.0225 65.987 71.9485 66.939C69.8745 67.857 67.4435 68.316 64.6555 68.316C61.8675 68.316 59.3855 67.874 57.2095 66.99C55.0335 66.106 53.1635 64.899 51.5995 63.369L55.4245 59.136C56.7845 60.292 58.1955 61.176 59.6575 61.788C61.1195 62.366 62.7175 62.655 64.4515 62.655C66.2875 62.655 67.7495 62.23 68.8375 61.38C69.9595 60.53 70.5205 59.34 70.5205 57.81C70.5205 56.858 70.3165 56.076 69.9085 55.464C69.5345 54.818 68.8715 54.24 67.9195 53.73C66.9675 53.22 65.5905 52.693 63.7885 52.149C59.9465 50.959 57.1925 49.531 55.5265 47.865C53.8945 46.199 53.0785 44.023 53.0785 41.337C53.0785 39.365 53.6055 37.631 54.6595 36.135C55.7135 34.605 57.1755 33.432 59.0455 32.616C60.9155 31.8 63.0405 31.392 65.4205 31.392ZM90.9934 32.208V67.5H83.4964V32.208H90.9934ZM109.249 31.392C111.799 31.392 114.009 31.766 115.879 32.514C117.783 33.228 119.534 34.333 121.132 35.829L117.562 39.96C116.304 38.94 115.046 38.192 113.788 37.716C112.53 37.24 111.187 37.002 109.759 37.002C108.195 37.002 106.937 37.342 105.985 38.022C105.067 38.668 104.608 39.603 104.608 40.827C104.608 41.677 104.795 42.374 105.169 42.918C105.577 43.462 106.274 43.972 107.26 44.448C108.246 44.924 109.725 45.468 111.697 46.08C115.199 47.202 117.817 48.596 119.551 50.262C121.285 51.894 122.152 54.24 122.152 57.3C122.152 59.476 121.608 61.397 120.52 63.063C119.432 64.695 117.851 65.987 115.777 66.939C113.703 67.857 111.272 68.316 108.484 68.316C105.696 68.316 103.214 67.874 101.038 66.99C98.8616 66.106 96.9916 64.899 95.4276 63.369L99.2526 59.136C100.613 60.292 102.024 61.176 103.486 61.788C104.948 62.366 106.546 62.655 108.28 62.655C110.116 62.655 111.578 62.23 112.666 61.38C113.788 60.53 114.349 59.34 114.349 57.81C114.349 56.858 114.145 56.076 113.737 55.464C113.363 54.818 112.7 54.24 111.748 53.73C110.796 53.22 109.419 52.693 107.617 52.149C103.775 50.959 101.021 49.531 99.3546 47.865C97.7226 46.199 96.9066 44.023 96.9066 41.337C96.9066 39.365 97.4336 37.631 98.4876 36.135C99.5416 34.605 101.004 33.432 102.874 32.616C104.744 31.8 106.869 31.392 109.249 31.392ZM153.692 55.872C153.692 58.286 153.182 60.428 152.162 62.298C151.142 64.168 149.612 65.647 147.572 66.735C145.566 67.789 143.118 68.316 140.228 68.316C135.876 68.316 132.544 67.194 130.232 64.95C127.954 62.672 126.815 59.646 126.815 55.872V32.208H134.312V55.515C134.312 57.895 134.788 59.68 135.74 60.87C136.692 62.026 138.188 62.604 140.228 62.604C142.268 62.604 143.764 62.026 144.716 60.87C145.702 59.68 146.195 57.895 146.195 55.515V32.208H153.692V55.872ZM180.642 32.208V61.482H194.616L193.8 67.5H173.145V32.208H180.642ZM210.825 31.392C214.055 31.392 216.843 32.123 219.189 33.585C221.535 35.013 223.337 37.104 224.595 39.858C225.853 42.612 226.482 45.944 226.482 49.854C226.482 53.696 225.853 57.011 224.595 59.799C223.337 62.553 221.535 64.661 219.189 66.123C216.843 67.585 214.055 68.316 210.825 68.316C207.595 68.316 204.79 67.602 202.41 66.174C200.064 64.712 198.262 62.604 197.004 59.85C195.746 57.062 195.117 53.73 195.117 49.854C195.117 46.046 195.746 42.765 197.004 40.011C198.296 37.223 200.115 35.098 202.461 33.636C204.841 32.14 207.629 31.392 210.825 31.392ZM210.825 37.002C208.241 37.002 206.286 38.022 204.96 40.062C203.668 42.102 203.022 45.366 203.022 49.854C203.022 54.342 203.685 57.606 205.011 59.646C206.337 61.686 208.275 62.706 210.825 62.706C213.409 62.706 215.347 61.703 216.639 59.697C217.931 57.657 218.577 54.376 218.577 49.854C218.577 45.332 217.931 42.068 216.639 40.062C215.347 38.022 213.409 37.002 210.825 37.002ZM253.226 32.208L252.41 37.665H239.66V46.845H250.778V52.251H239.66V61.992H253.328V67.5H232.163V32.208H253.226ZM277.162 48.834C279.542 49.276 281.463 50.143 282.925 51.435C284.421 52.693 285.169 54.631 285.169 57.249C285.169 60.955 283.843 63.59 281.191 65.154C278.539 66.718 274.85 67.5 270.124 67.5H259.108V32.208H268.747C273.575 32.208 277.264 32.922 279.814 34.35C282.364 35.778 283.639 38.073 283.639 41.235C283.639 43.309 283.01 44.992 281.752 46.284C280.528 47.542 278.998 48.392 277.162 48.834ZM266.605 37.614V46.539H270.277C272.113 46.539 273.524 46.165 274.51 45.417C275.496 44.635 275.989 43.462 275.989 41.898C275.989 40.334 275.462 39.229 274.408 38.583C273.354 37.937 271.705 37.614 269.461 37.614H266.605ZM270.175 61.941C272.521 61.941 274.306 61.601 275.53 60.921C276.754 60.207 277.366 58.881 277.366 56.943C277.366 53.407 275.19 51.639 270.838 51.639H266.605V61.941H270.175ZM296.707 32.208L295.84 54.801H289.924L288.955 32.208H296.707ZM292.882 59.595C294.106 59.595 295.143 60.02 295.993 60.87C296.843 61.72 297.268 62.74 297.268 63.93C297.268 65.12 296.843 66.157 295.993 67.041C295.143 67.891 294.106 68.316 292.882 68.316C291.692 68.316 290.672 67.891 289.822 67.041C288.972 66.157 288.547 65.12 288.547 63.93C288.547 62.74 288.972 61.72 289.822 60.87C290.672 60.02 291.692 59.595 292.882 59.595Z" fill="#FFE80D"/>
<path d="M154.74 74.0312C161.392 74.157 167.788 74.9713 174.504 75.0054C182.568 75.046 190.804 74.3779 198.96 74.6139C199.217 74.6213 199.477 74.6294 199.742 74.6382C208.006 74.9056 216.364 75.0991 224.686 75.3174C233.022 75.5312 241.344 75.7537 249.691 75.9712C251.903 76.0287 254.117 76.0855 256.322 76.1399C262.403 76.2847 268.455 76.2397 274.46 75.661C278.629 75.3071 282.681 74.4026 287.034 73.8403L287.006 73.8449C288.402 73.6555 289.794 73.4424 291.186 73.2073C293.628 72.8058 296.042 72.2819 298.54 71.9193C298.76 71.8891 298.984 71.8607 299.206 71.8361C300.826 71.6739 302.411 71.3982 304.004 71.0402C304.257 70.9843 304.503 70.9652 304.701 70.9879C304.894 71.0122 305.022 71.0759 305.049 71.1718C305.076 71.2676 304.999 71.3897 304.845 71.5104C304.686 71.6326 304.461 71.743 304.212 71.8218C302.649 72.3203 301.013 72.7531 299.396 73.0584C299.174 73.1033 298.948 73.1527 298.725 73.204C296.752 73.6672 294.757 74.2725 292.738 74.806C292.33 74.4781 291.823 74.2743 290.972 74.3149C290.538 74.3357 289.917 74.4341 289.482 74.5981C289.089 74.7461 288.805 74.925 288.536 75.0945C288.252 75.2722 287.982 75.4402 287.618 75.5482C287.522 75.5767 287.427 75.6075 287.331 75.6403C287.327 75.641 287.313 75.6436 287.308 75.6441C286.807 75.8053 286.336 76.0399 285.845 76.2923C285.637 76.4004 285.418 76.5134 285.199 76.6241C283.311 77.1033 281.374 77.6374 279.41 78.0901C278.629 78.1943 277.932 78.2814 277.329 78.3991C276.801 78.5027 276.311 78.6674 275.843 78.8464C275.532 78.9059 275.227 78.9629 274.921 79.0186C272.92 79.3809 270.948 79.676 268.94 79.9278C267.369 79.9528 265.727 79.9644 263.599 80.0253C262.679 80.0515 261.761 80.0307 260.908 80.0041C259.613 79.9663 258.401 79.9173 257.365 79.9949C257.046 80.0186 256.715 80.0218 256.376 80.0135C255.989 80.0033 255.588 79.9773 255.179 79.9513C254.197 79.8872 253.205 79.8225 252.316 79.9902C251.74 80.0959 251.249 80.2217 250.765 80.3385C249.99 80.5246 249.355 80.6865 248.741 80.7035C247.619 80.7352 246.631 80.8739 245.776 80.9959C244.727 81.1427 243.878 81.2651 243.103 81.1477C242.988 81.1299 242.856 81.106 242.707 81.0788C241.922 80.9357 240.662 80.7066 238.857 80.8508C238.218 80.9021 237.605 81.028 237.021 81.1512C236.164 81.3306 235.325 81.5044 234.431 81.4343C234.297 81.4238 234.157 81.3775 234.03 81.3351C233.868 81.2813 233.726 81.2343 233.642 81.2763C233.397 81.3994 233.01 81.5361 232.588 81.6848C232.277 81.794 231.948 81.9098 231.644 82.031C229.326 82.1095 227.005 82.1825 224.683 82.2489C223.622 82.2793 222.554 82.3084 221.492 82.3361C220.946 82.1531 220.389 81.9881 219.803 81.8632C219.03 81.6998 218.044 81.6496 216.752 81.583C215.812 81.534 214.706 81.4761 213.426 81.3577C211.051 81.1387 208.626 81.1719 207.052 81.2727C206.727 81.2942 206.389 81.317 206.031 81.3417C204.694 81.4345 203.005 81.5547 199.791 81.6476C199.458 81.6569 199.136 81.6649 198.825 81.6717C196.236 81.7267 194.023 81.7299 192.313 81.7357C191.333 81.7391 190.517 81.743 189.895 81.7594C188.825 81.7875 187.515 81.8114 186.196 81.8372C184.134 81.8775 182.056 81.9219 180.879 81.9862C180.46 82.0091 180.02 82.0377 179.545 82.0683C178.228 82.1529 176.637 82.2557 174.441 82.3071C172.135 82.3606 170.705 82.3052 169.218 82.1949C168.617 82.15 168.08 81.9889 167.536 81.822C166.758 81.5852 165.951 81.3374 164.847 81.3926C164.591 81.4056 164.317 81.4386 164.03 81.473C163.499 81.5363 162.932 81.6045 162.348 81.56C162.144 81.5445 161.964 81.499 161.79 81.4543C161.599 81.4051 161.41 81.357 161.196 81.3503C160.392 81.3252 159.617 81.319 158.919 81.3123C158.029 81.3038 157.27 81.2943 156.811 81.2451C155.984 81.1571 155.077 81.1902 154.154 81.2214C153.452 81.2454 152.74 81.2685 152.054 81.2359C151.614 81.2149 151.135 81.1991 150.621 81.1875C148.881 81.1486 146.794 81.1743 144.656 81.2493C143.61 81.2859 142.73 81.1612 141.602 81.0025C140.9 80.9038 140.102 80.7917 139.108 80.6985C138.545 80.6456 138.064 80.7182 137.62 80.7854C137.209 80.8473 136.829 80.9046 136.443 80.8557C136.101 80.8124 135.889 80.6617 135.686 80.5185C135.461 80.3592 135.25 80.2094 134.889 80.2277C134.696 80.2375 134.461 80.3036 134.181 80.3822C134.07 80.4133 133.952 80.4462 133.827 80.4785C133.835 80.4493 133.837 80.4231 133.837 80.4032C133.842 80.2627 133.475 80.1789 133.116 80.0967C132.973 80.0639 132.83 80.0314 132.713 79.9957C132.282 79.864 131.46 79.8224 130.831 79.811C130.565 79.8061 130.325 79.7561 130.046 79.6976C129.967 79.6811 129.884 79.6639 129.797 79.6469C129.614 79.6104 129.409 79.5748 129.167 79.5482C128.965 79.5261 128.809 79.4814 128.68 79.4441C128.587 79.4172 128.507 79.3941 128.433 79.3868C128.368 79.3805 128.315 79.4195 128.256 79.4634C128.213 79.495 128.166 79.5293 128.109 79.551C127.971 79.6029 127.803 79.6156 127.684 79.5951C127.629 79.5857 127.586 79.569 127.543 79.5524C127.493 79.5331 127.443 79.5136 127.374 79.5056C127.056 79.4691 126.744 79.5083 126.418 79.5492C126.056 79.594 125.693 79.6412 125.281 79.5927C125.152 79.5774 125.015 79.5455 124.881 79.5145C124.741 79.4821 124.605 79.4508 124.489 79.4411C124.014 79.4015 123.58 79.4948 123.171 79.5807C122.9 79.6379 122.643 79.6919 122.405 79.7016C121.969 79.7195 121.738 79.837 121.565 79.9237C121.476 79.9687 121.403 80.0056 121.327 80.0161C121.257 80.0118 121.186 80.0069 121.117 80.0017C121.054 79.992 120.988 79.982 120.926 79.9841C120.922 79.9843 120.917 79.9847 120.912 79.9849C120.524 79.9508 120.142 79.9047 119.766 79.8592C118.919 79.7569 118.076 79.6569 117.189 79.7019C116.998 79.7116 116.802 79.7599 116.603 79.8091C116.359 79.8694 116.11 79.9312 115.857 79.9251C115.255 79.9105 114.645 79.8253 114.045 79.7419C113.144 79.6166 112.26 79.4956 111.449 79.6254C111.181 79.6682 110.92 79.7399 110.658 79.8122C110.512 79.8525 110.366 79.8932 110.218 79.9288C110.249 79.8628 110.266 79.8008 110.281 79.7431C110.313 79.624 110.341 79.522 110.483 79.4354C110.819 79.2308 111.2 78.9494 111.158 78.744C111.146 78.6882 111.156 78.6261 111.166 78.5636C111.192 78.4068 111.218 78.2466 110.905 78.1741C110.694 78.1251 110.154 78.0131 109.809 78.1335C109.734 78.1597 109.688 78.2115 109.638 78.2691C109.546 78.3727 109.438 78.4953 109.112 78.5243C109.057 78.5292 108.997 78.5337 108.935 78.5378C108.689 78.5544 108.414 78.5728 108.312 78.6563C108.194 78.7524 108.219 78.862 108.249 78.9898C108.288 79.1563 108.334 79.354 108.08 79.5932C108.03 79.6405 107.933 79.657 107.86 79.6694C107.808 79.6782 107.769 79.6853 107.765 79.6995C107.761 79.7158 107.777 79.7496 107.798 79.7925C107.873 79.9436 108.001 80.2075 107.467 80.2206C107.323 80.2241 107.158 80.2122 107.01 80.2014C106.791 80.1856 106.61 80.1726 106.586 80.216C106.577 80.2324 106.571 80.2503 106.566 80.2687C106.392 80.2643 106.219 80.26 106.046 80.2557C105.822 80.2053 105.509 80.2115 105.118 80.2197C105.024 80.2217 104.924 80.2237 104.82 80.2251C104.477 80.2167 104.139 80.2086 103.793 80.2005C103.52 80.1808 103.23 80.1476 102.925 80.0938C102.314 79.986 101.78 79.8045 101.256 79.6275C101.036 79.5529 100.818 79.479 100.598 79.4118C100.683 79.4023 100.76 79.3912 100.82 79.3766C101.226 79.2764 101.389 79.0868 101.538 78.9123C101.637 78.7962 101.731 78.6868 101.888 78.6152C102.175 78.4841 102.143 78.3345 102.121 78.2239C102.11 78.1665 102.101 78.1194 102.139 78.0911C102.169 78.0684 102.24 78.0571 102.313 78.0455C102.377 78.0354 102.442 78.0248 102.484 78.0063C102.994 77.7821 102.839 77.6561 102.613 77.4728C102.489 77.3717 102.344 77.2531 102.276 77.091C102.217 76.9192 102.236 76.8685 102.504 76.7973C102.293 76.7142 102.086 76.6311 101.873 76.5481C101.79 76.5545 101.728 76.6084 101.64 76.6978C101.484 76.8573 100.973 76.9206 100.577 76.9705C100.393 76.9936 100.233 77.0138 100.144 77.0391C99.6625 77.174 99.8041 77.3516 99.9309 77.5078C100.001 77.5938 100.065 77.6734 100.016 77.7358C99.9956 77.7625 100.026 77.7884 100.056 77.8148C100.08 77.8352 100.103 77.8559 100.105 77.8775C100.114 78.0346 99.8275 78.1548 99.5637 78.2667C99.4125 78.3307 99.2686 78.3922 99.1897 78.456C99.1656 78.4754 99.1465 78.4952 99.1287 78.5143C99.1026 78.5423 99.0772 78.569 99.0371 78.5921C98.9459 78.6448 98.7573 78.6821 98.5514 78.7229C98.4459 78.7438 98.3358 78.7656 98.232 78.791C98.0983 78.8238 98.048 78.8868 97.9972 78.9525C97.961 78.9989 97.9231 79.0468 97.8528 79.0868C97.7254 79.1592 97.4669 79.1887 97.2284 79.2163C97.1245 79.2282 97.0242 79.2401 96.9399 79.2547C96.9055 79.2606 96.8892 79.2716 96.8859 79.2863C96.4965 79.3421 96.126 79.399 95.7582 79.455C93.949 79.7362 92.3567 79.9837 90.0011 79.8956C89.5553 79.8791 89.0862 79.8991 88.5953 79.9383C87.0633 79.9257 85.4974 79.9203 83.9605 79.926C83.6417 79.799 83.2961 79.6964 82.8282 79.6269C81.9885 79.4948 81.1474 79.504 80.1343 79.5288C79.4275 79.545 78.5569 79.573 77.6377 79.5686C77.398 79.5698 77.1733 79.572 76.9648 79.5751C76.7326 79.581 76.5005 79.5909 76.3061 79.6001C75.0981 79.682 73.8481 79.781 72.5009 79.9297C70.6244 80.1353 68.4982 80.4106 66.9988 80.6545C66.1843 80.7853 65.3107 80.8165 64.4896 80.8556C63.3373 80.9095 62.3094 80.9748 61.741 81.3186C61.5624 81.4277 61.3994 81.5858 61.2394 81.7402C61.1239 81.8505 61.0162 81.9573 60.9048 82.0439C60.5716 82.0994 60.2194 82.1609 59.8895 82.218C59.2638 82.2153 58.2934 82.2882 57.4504 82.6634C57.0931 82.7319 56.7554 82.7968 56.4154 82.8629C55.6751 83.0087 54.9492 83.1552 54.2348 83.302C53.9991 83.3504 53.7524 83.4022 53.5137 83.4522C53.5115 83.4526 53.5093 83.453 53.507 83.4535C53.0368 83.5513 52.5313 83.6602 52.0624 83.7605C51.8601 83.8038 51.6559 83.848 51.4496 83.893C50.9137 84.0108 50.4146 84.1197 49.8884 84.2375C49.6067 84.3007 49.3436 84.3591 49.0678 84.4213C48.6247 84.5209 48.158 84.6284 47.7219 84.7277C46.9972 84.8939 46.2787 85.0604 45.5541 85.2305C45.4349 85.2585 45.3149 85.2697 45.2211 85.2602C45.1272 85.2507 45.0668 85.2214 45.0534 85.1765C45.04 85.1315 45.0744 85.0735 45.1476 85.0136C45.2208 84.9538 45.3272 84.8974 45.4421 84.855C46.1416 84.5975 46.8365 84.3442 47.5378 84.0919C47.9591 83.9395 48.4115 83.7787 48.8406 83.6265C49.1078 83.5318 49.3625 83.4415 49.636 83.346C50.1465 83.1675 50.6315 82.9978 51.153 82.82C51.3535 82.7513 51.552 82.6834 51.7487 82.6163C52.2061 82.46 52.7003 82.2954 53.1598 82.1422C53.1626 82.1413 53.1654 82.1403 53.1682 82.1394C53.4001 82.0624 53.639 81.9839 53.8675 81.9088C54.5651 81.6795 55.276 81.451 56.0033 81.2236C56.3771 81.1056 56.7606 80.987 57.1529 80.8676C57.3698 80.8014 57.5781 80.7378 57.7914 80.6735C57.9091 80.6383 58.0276 80.603 58.146 80.568C60.8543 79.7598 63.5712 79.0381 66.3475 78.412C69.1088 77.7853 71.889 77.2601 74.623 76.7146C75.0253 76.6346 75.4151 76.556 75.8181 76.4746C78.329 76.0108 80.7161 75.8029 83.1402 75.5734C98.708 74.2723 114.283 73.7259 129.959 73.716C132.264 73.7224 134.571 73.7299 136.881 73.7444C139.435 73.76 142.06 73.7878 144.622 73.8273C146.727 73.86 148.798 73.9002 150.892 73.9496C151.375 73.961 151.856 73.9719 152.336 73.9823C153.12 73.9991 153.913 74.0153 154.74 74.0312Z" fill="#FFE80D"/>
</svg>
