<svg width="550" height="58" viewBox="0 0 550 58" fill="none" xmlns="http://www.w3.org/2000/svg">
<path d="M340.299 55.1263C335.959 58.3463 328.209 57.2963 323.419 56.2963C322.249 58.5163 317.869 58.2763 316.109 56.7563C311.529 54.0263 308.229 59.2663 306.299 54.5963C304.709 58.1363 293.489 57.8963 287.899 55.4863C286.819 57.0063 266.029 58.5663 265.939 55.8563C264.669 57.5463 263.019 57.5163 261.449 55.8763L257.199 57.2763C253.409 53.4863 249.189 58.6563 243.879 55.9263L238.299 57.8863C236.979 55.6963 234.459 57.1363 233.769 55.0963C228.489 58.3763 230.619 53.0163 233.279 51.0563C227.099 49.5263 232.519 46.7863 230.129 42.0763C233.679 36.1863 229.119 33.4563 229.769 31.5763C234.149 23.8463 228.869 10.6063 231.709 2.2363L234.469 2.2663C236.929 -0.243701 237.259 2.5063 238.459 0.316299C238.599 0.0662991 239.789 -0.143701 239.859 0.126299C242.199 3.4963 252.829 -1.0337 256.459 2.0863C257.719 0.186299 259.289 0.00629902 260.429 2.0863C262.359 -0.353701 267.979 1.5263 271.559 1.0663C277.519 2.1763 281.919 0.876299 286.709 1.8763C292.779 -1.0537 300.169 3.1663 307.169 2.1263C308.279 0.266299 311.379 2.1963 314.119 0.956299C313.329 0.356299 312.969 0.0462991 313.979 0.506299C319.389 2.0963 316.849 -1.0737 320.399 2.5263C321.659 1.7363 322.579 0.786299 323.789 2.1963C331.849 2.1463 343.869 -3.0837 342.579 8.4863L342.519 15.3063C341.189 15.8463 340.729 16.2263 340.989 17.6163C344.639 19.4063 342.919 21.1363 342.119 24.0563C342.009 31.6263 343.509 35.3163 342.689 42.9263C343.909 48.5263 340.329 50.1963 342.749 55.7963L340.279 55.1263H340.299Z" fill="#009A9A"/>
<path d="M0 10.6H8.424C11.2667 10.6 13.3987 11.3627 14.82 12.888C16.2413 14.4133 16.952 16.6493 16.952 19.596V23.184C16.952 26.1307 16.2413 28.3667 14.82 29.892C13.3987 31.4173 11.2667 32.18 8.424 32.18H5.72V47H0V10.6ZM8.424 26.98C9.36 26.98 10.0533 26.72 10.504 26.2C10.9893 25.68 11.232 24.796 11.232 23.548V19.232C11.232 17.984 10.9893 17.1 10.504 16.58C10.0533 16.06 9.36 15.8 8.424 15.8H5.72V26.98H8.424Z" fill="#009A9A"/>
<path d="M20.0586 10.6H25.7786V47H20.0586V10.6Z" fill="#009A9A"/>
<path d="M30.0625 10.6H38.7985C41.6412 10.6 43.7732 11.3627 45.1945 12.888C46.6158 14.4133 47.3265 16.6493 47.3265 19.596V38.004C47.3265 40.9507 46.6158 43.1867 45.1945 44.712C43.7732 46.2373 41.6412 47 38.7985 47H30.0625V10.6ZM38.6945 41.8C39.6305 41.8 40.3412 41.5227 40.8265 40.968C41.3465 40.4133 41.6065 39.512 41.6065 38.264V19.336C41.6065 18.088 41.3465 17.1867 40.8265 16.632C40.3412 16.0773 39.6305 15.8 38.6945 15.8H35.7825V41.8H38.6945Z" fill="#009A9A"/>
<path d="M59.5075 47.52C56.7342 47.52 54.6195 46.74 53.1635 45.18C51.7075 43.5853 50.9795 41.3147 50.9795 38.368V10.6H56.6995V38.784C56.6995 40.032 56.9422 40.9333 57.4275 41.488C57.9475 42.0427 58.6755 42.32 59.6115 42.32C60.5475 42.32 61.2582 42.0427 61.7435 41.488C62.2635 40.9333 62.5235 40.032 62.5235 38.784V10.6H68.0355V38.368C68.0355 41.3147 67.3075 43.5853 65.8515 45.18C64.3955 46.74 62.2808 47.52 59.5075 47.52Z" fill="#009A9A"/>
<path d="M72.1094 10.6H77.8294V41.8H87.2414V47H72.1094V10.6Z" fill="#009A9A"/>
<path d="M94.6075 10.6H102.355L108.284 47H102.563L101.523 39.772V39.876H95.0235L93.9835 47H88.6795L94.6075 10.6ZM100.848 34.936L98.2995 16.944H98.1955L95.6995 34.936H100.848Z" fill="#009A9A"/>
<path d="M119.277 47.52C116.504 47.52 114.389 46.74 112.933 45.18C111.477 43.5853 110.749 41.3147 110.749 38.368V10.6H116.469V38.784C116.469 40.032 116.712 40.9333 117.197 41.488C117.717 42.0427 118.445 42.32 119.381 42.32C120.317 42.32 121.028 42.0427 121.513 41.488C122.033 40.9333 122.293 40.032 122.293 38.784V10.6H127.805V38.368C127.805 41.3147 127.077 43.5853 125.621 45.18C124.165 46.74 122.05 47.52 119.277 47.52Z" fill="#009A9A"/>
<path d="M131.879 10.6H140.615C143.458 10.6 145.59 11.3627 147.011 12.888C148.432 14.4133 149.143 16.6493 149.143 19.596V38.004C149.143 40.9507 148.432 43.1867 147.011 44.712C145.59 46.2373 143.458 47 140.615 47H131.879V10.6ZM140.511 41.8C141.447 41.8 142.158 41.5227 142.643 40.968C143.163 40.4133 143.423 39.512 143.423 38.264V19.336C143.423 18.088 143.163 17.1867 142.643 16.632C142.158 16.0773 141.447 15.8 140.511 15.8H137.599V41.8H140.511Z" fill="#009A9A"/>
<path d="M159.824 10.6H165.596L169.34 38.836H169.444L173.188 10.6H178.44L172.928 47H165.336L159.824 10.6Z" fill="#009A9A"/>
<path d="M181.188 10.6H186.908V47H181.188V10.6Z" fill="#009A9A"/>
<path d="M199.251 47.52C196.513 47.52 194.415 46.74 192.959 45.18C191.538 43.62 190.827 41.4187 190.827 38.576V19.024C190.827 16.1813 191.538 13.98 192.959 12.42C194.415 10.86 196.513 10.08 199.251 10.08C201.99 10.08 204.07 10.86 205.491 12.42C206.947 13.98 207.675 16.1813 207.675 19.024V22.872H202.267V18.66C202.267 16.4067 201.314 15.28 199.407 15.28C197.501 15.28 196.547 16.4067 196.547 18.66V38.992C196.547 41.2107 197.501 42.32 199.407 42.32C201.314 42.32 202.267 41.2107 202.267 38.992V33.428H207.675V38.576C207.675 41.4187 206.947 43.62 205.491 45.18C204.07 46.74 201.99 47.52 199.251 47.52ZM192.127 2.17599H196.443L199.095 5.03599L201.747 2.17599H206.063L201.799 8.15599H196.391L192.127 2.17599Z" fill="#009A9A"/>
<path d="M211.098 10.6H216.818V47H211.098V10.6Z" fill="#009A9A"/>
<path d="M254.354 47.52C251.546 47.52 249.397 46.7227 247.906 45.128C246.415 43.5333 245.67 41.28 245.67 38.368V19.232C245.67 16.32 246.415 14.0667 247.906 12.472C249.397 10.8773 251.546 10.08 254.354 10.08C257.162 10.08 259.311 10.8773 260.802 12.472C262.293 14.0667 263.038 16.32 263.038 19.232V38.368C263.038 41.28 262.293 43.5333 260.802 45.128C259.311 46.7227 257.162 47.52 254.354 47.52ZM254.354 42.32C256.33 42.32 257.318 41.124 257.318 38.732V18.868C257.318 16.476 256.33 15.28 254.354 15.28C252.378 15.28 251.39 16.476 251.39 18.868V38.732C251.39 41.124 252.378 42.32 254.354 42.32ZM247.126 6.69999C247.785 5.20932 248.495 4.11732 249.258 3.42399C250.021 2.69599 250.887 2.33199 251.858 2.33199C252.482 2.33199 253.019 2.41866 253.47 2.59199C253.955 2.76532 254.458 3.00799 254.978 3.31999C255.29 3.49332 255.585 3.64932 255.862 3.78799C256.174 3.92666 256.469 3.99599 256.746 3.99599C257.162 3.99599 257.526 3.83999 257.838 3.52799C258.15 3.21599 258.479 2.69599 258.826 1.96799L261.582 3.63199C260.923 5.12266 260.213 6.23199 259.45 6.95999C258.687 7.65332 257.821 7.99999 256.85 7.99999C256.226 7.99999 255.671 7.91332 255.186 7.73999C254.735 7.56665 254.25 7.32399 253.73 7.01199C253.418 6.83865 253.106 6.68265 252.794 6.54399C252.517 6.40532 252.239 6.33599 251.962 6.33599C251.546 6.33599 251.182 6.49199 250.87 6.80399C250.558 7.11599 250.229 7.63599 249.882 8.36399L247.126 6.69999Z" fill="#FFF480"/>
<path d="M266.906 10.6H272.626V41.8H282.038V47H266.906V10.6Z" fill="#FFF480"/>
<path d="M284.781 10.6H290.501V47H284.781V10.6Z" fill="#FFF480"/>
<path d="M299.257 15.8H293.277V10.6H310.957V15.8H304.977V47H299.257V15.8Z" fill="#FFF480"/>
<path d="M315.76 10.6H323.508L329.436 47H323.716L322.676 39.772V39.876H316.176L315.136 47H309.832L315.76 10.6ZM322 34.936L319.452 16.944H319.348L316.852 34.936H322Z" fill="#FFF480"/>
<path d="M357.195 10.6H362.915V25.42H369.051V10.6H374.771V47H369.051V30.62H362.915V47H357.195V10.6Z" fill="#009A9A"/>
<path d="M379.031 10.6H394.631V15.8H384.751V25.42H392.603V30.62H384.751V41.8H394.631V47H379.031V10.6Z" fill="#009A9A"/>
<path d="M397.922 10.6H413.522V15.8H403.642V25.42H411.494V30.62H403.642V41.8H413.522V47H397.922V10.6Z" fill="#009A9A"/>
<path d="M416.812 10.6H425.289C428.235 10.6 430.385 11.2933 431.737 12.68C433.089 14.032 433.764 16.1293 433.764 18.972V21.208C433.764 24.9867 432.517 27.3787 430.021 28.384V28.488C431.407 28.904 432.378 29.7533 432.932 31.036C433.522 32.3187 433.816 34.0347 433.816 36.184V42.58C433.816 43.62 433.851 44.4693 433.921 45.128C433.99 45.752 434.163 46.376 434.44 47H428.616C428.408 46.4107 428.27 45.856 428.201 45.336C428.131 44.816 428.096 43.88 428.096 42.528V35.872C428.096 34.208 427.819 33.0467 427.264 32.388C426.744 31.7293 425.826 31.4 424.509 31.4H422.533V47H416.812V10.6ZM424.612 26.2C425.756 26.2 426.606 25.9053 427.16 25.316C427.75 24.7267 428.044 23.7387 428.044 22.352V19.544C428.044 18.2267 427.802 17.2733 427.316 16.684C426.866 16.0947 426.138 15.8 425.133 15.8H422.533V26.2H424.612Z" fill="#009A9A"/>
<path d="M437.785 10.6H443.505V47H437.785V10.6Z" fill="#009A9A"/>
<path d="M447.789 10.6H454.965L460.529 32.388H460.633V10.6H465.729V47H459.853L452.989 20.428H452.885V47H447.789V10.6Z" fill="#009A9A"/>
<path d="M478.092 47.52C475.319 47.52 473.204 46.74 471.748 45.18C470.292 43.5853 469.564 41.3147 469.564 38.368V19.232C469.564 16.2853 470.292 14.032 471.748 12.472C473.204 10.8773 475.319 10.08 478.092 10.08C480.866 10.08 482.98 10.8773 484.436 12.472C485.892 14.032 486.62 16.2853 486.62 19.232V22.352H481.212V18.868C481.212 16.476 480.224 15.28 478.248 15.28C476.272 15.28 475.284 16.476 475.284 18.868V38.784C475.284 41.1413 476.272 42.32 478.248 42.32C480.224 42.32 481.212 41.1413 481.212 38.784V31.66H478.352V26.46H486.62V38.368C486.62 41.3147 485.892 43.5853 484.436 45.18C482.98 46.74 480.866 47.52 478.092 47.52Z" fill="#009A9A"/>
<path d="M494.713 10.6H502.461L508.389 47H502.669L501.629 39.772V39.876H495.129L494.089 47H488.785L494.713 10.6ZM500.953 34.936L498.405 16.944H498.301L495.805 34.936H500.953Z" fill="#009A9A"/>
<path d="M519.174 47.52C516.401 47.52 514.287 46.74 512.831 45.18C511.375 43.5853 510.647 41.3147 510.647 38.368V19.232C510.647 16.2853 511.375 14.032 512.831 12.472C514.287 10.8773 516.401 10.08 519.174 10.08C521.948 10.08 524.062 10.8773 525.518 12.472C526.974 14.032 527.703 16.2853 527.703 19.232V22.352H522.294V18.868C522.294 16.476 521.307 15.28 519.331 15.28C517.355 15.28 516.367 16.476 516.367 18.868V38.784C516.367 41.1413 517.355 42.32 519.331 42.32C521.307 42.32 522.294 41.1413 522.294 38.784V31.66H519.435V26.46H527.703V38.368C527.703 41.3147 526.974 43.5853 525.518 45.18C524.062 46.74 521.948 47.52 519.174 47.52Z" fill="#009A9A"/>
<path d="M535.795 10.6H543.543L549.471 47H543.751L542.711 39.772V39.876H536.211L535.171 47H529.867L535.795 10.6ZM542.035 34.936L539.487 16.944H539.383L536.887 34.936H542.035Z" fill="#009A9A"/>
</svg>
